<?xml version="1.0" encoding="UTF-8" standalone="no"?>
<!DOCTYPE svg PUBLIC "-//W3C//DTD SVG 1.1//EN"
 "http://www.w3.org/Graphics/SVG/1.1/DTD/svg11.dtd">
<!-- Generated by graphviz version 2.40.1 (20161225.0304)
 -->
<!-- Title: %3 Pages: 1 -->
<svg width="301pt" height="964pt"
 viewBox="0.00 0.00 301.00 963.80" xmlns="http://www.w3.org/2000/svg" xmlns:xlink="http://www.w3.org/1999/xlink">
<g id="graph0" class="graph" transform="scale(1 1) rotate(0) translate(4 959.7958)">
<title>%3</title>
<polygon fill="#ffffff" stroke="transparent" points="-4,4 -4,-959.7958 297,-959.7958 297,4 -4,4"/>
<!-- Root -->
<g id="node1" class="node">
<title>Root</title>
<ellipse fill="none" stroke="#000000" cx="209" cy="-937.7958" rx="27.8951" ry="18"/>
<text text-anchor="middle" x="209" y="-934.0958" font-family="Times,serif" font-size="14.00" fill="#000000">Root</text>
</g>
<!-- c1a -->
<g id="node2" class="node">
<title>c1a</title>
<ellipse fill="none" stroke="#000000" cx="264" cy="-855.3979" rx="23.3111" ry="23.3111"/>
<ellipse fill="none" stroke="#000000" cx="264" cy="-855.3979" rx="27.2962" ry="27.2962"/>
<text text-anchor="middle" x="264" y="-851.6979" font-family="Times,serif" font-size="14.00" fill="#000000">Cut</text>
</g>
<!-- Root&#45;&gt;c1a -->
<g id="edge1" class="edge">
<title>Root&#45;&gt;c1a</title>
<path fill="none" stroke="#000000" d="M220.1301,-921.1214C226.6835,-911.3034 235.187,-898.5639 242.9605,-886.9181"/>
<polygon fill="#000000" stroke="#000000" points="246.0775,-888.5527 248.7182,-878.2922 240.2554,-884.6664 246.0775,-888.5527"/>
</g>
<!-- c1b -->
<g id="node3" class="node">
<title>c1b</title>
<ellipse fill="none" stroke="#000000" cx="137" cy="-855.3979" rx="27" ry="18"/>
<text text-anchor="middle" x="137" y="-851.6979" font-family="Times,serif" font-size="14.00" fill="#000000">Cut</text>
</g>
<!-- Root&#45;&gt;c1b -->
<g id="edge2" class="edge">
<title>Root&#45;&gt;c1b</title>
<path fill="none" stroke="#000000" d="M195.1177,-921.9087C184.3915,-909.6335 169.3884,-892.4637 157.3128,-878.6442"/>
<polygon fill="#000000" stroke="#000000" points="159.8111,-876.1841 150.5955,-870.9569 154.5399,-880.7901 159.8111,-876.1841"/>
</g>
<!-- ret -->
<g id="node8" class="node">
<title>ret</title>
<ellipse fill="none" stroke="#000000" cx="235" cy="-759" rx="27" ry="18"/>
<text text-anchor="middle" x="235" y="-755.3" font-family="Times,serif" font-size="14.00" fill="#000000">I</text>
</g>
<!-- Root&#45;&gt;ret -->
<g id="edge6" class="edge">
<title>Root&#45;&gt;ret</title>
<path fill="none" stroke="#ff0000" stroke-width="2" d="M211.6361,-919.668C216.1717,-888.478 225.4834,-824.4437 230.8812,-787.3241"/>
<polygon fill="#ff0000" stroke="#ff0000" stroke-width="2" points="234.3814,-787.5754 232.3569,-777.1758 227.4542,-786.568 234.3814,-787.5754"/>
</g>
<!-- d1 -->
<g id="node6" class="node">
<title>d1</title>
<ellipse fill="none" stroke="#000000" cx="266" cy="-599" rx="27" ry="18"/>
<text text-anchor="middle" x="266" y="-595.3" font-family="Times,serif" font-size="14.00" fill="#000000">Dup</text>
</g>
<!-- c1a&#45;&gt;d1 -->
<g id="edge9" class="edge">
<title>c1a&#45;&gt;d1</title>
<path fill="none" stroke="#ff0000" d="M267.0624,-827.8638C268.5799,-812.8503 270.2458,-793.9277 271,-777 273.3569,-724.1009 270.3217,-662.306 268.0547,-627.1995"/>
<polygon fill="#ff0000" stroke="#ff0000" points="271.5455,-626.9433 267.3826,-617.2005 264.5612,-627.4128 271.5455,-626.9433"/>
<text text-anchor="middle" x="274.5" y="-711.8" font-family="Times,serif" font-size="14.00" fill="#000000">1</text>
</g>
<!-- c1a&#45;&gt;ret -->
<g id="edge10" class="edge">
<title>c1a&#45;&gt;ret</title>
<path fill="none" stroke="#0000ff" d="M256.0756,-829.0568C252.0932,-815.819 247.2712,-799.7904 243.2452,-786.4074"/>
<polygon fill="#0000ff" stroke="#0000ff" points="246.5811,-785.3469 240.3486,-776.7791 239.8779,-787.3635 246.5811,-785.3469"/>
<text text-anchor="middle" x="252.5" y="-798.8" font-family="Times,serif" font-size="14.00" fill="#000000">0</text>
</g>
<!-- c2b -->
<g id="node5" class="node">
<title>c2b</title>
<ellipse fill="none" stroke="#000000" cx="158" cy="-599" rx="27" ry="18"/>
<text text-anchor="middle" x="158" y="-595.3" font-family="Times,serif" font-size="14.00" fill="#000000">Cut</text>
</g>
<!-- c1b&#45;&gt;c2b -->
<g id="edge4" class="edge">
<title>c1b&#45;&gt;c2b</title>
<path fill="none" stroke="#000000" d="M132.5536,-837.5159C124.4687,-801.8997 109.7174,-719.8607 127,-654 129.7543,-643.5041 135.0144,-632.9008 140.4303,-623.8428"/>
<polygon fill="#000000" stroke="#000000" points="143.4095,-625.6802 145.8111,-615.3612 137.4986,-621.9303 143.4095,-625.6802"/>
</g>
<!-- d2 -->
<g id="node7" class="node">
<title>d2</title>
<ellipse fill="none" stroke="#000000" cx="86" cy="-599" rx="27" ry="18"/>
<text text-anchor="middle" x="86" y="-595.3" font-family="Times,serif" font-size="14.00" fill="#000000">Dup</text>
</g>
<!-- c1b&#45;&gt;d2 -->
<g id="edge12" class="edge">
<title>c1b&#45;&gt;d2</title>
<path fill="none" stroke="#0000ff" d="M130.0437,-837.9399C126.9249,-829.59 123.4134,-819.3886 121,-810 104.4091,-745.4593 93.8792,-667.7146 89.0658,-626.9964"/>
<polygon fill="#0000ff" stroke="#0000ff" points="92.536,-626.5359 87.9121,-617.0033 85.5822,-627.3387 92.536,-626.5359"/>
<text text-anchor="middle" x="106.5" y="-711.8" font-family="Times,serif" font-size="14.00" fill="#000000">1</text>
</g>
<!-- fpa -->
<g id="node11" class="node">
<title>fpa</title>
<ellipse fill="none" stroke="#000000" cx="163" cy="-759" rx="27" ry="18"/>
<text text-anchor="middle" x="163" y="-755.3" font-family="Times,serif" font-size="14.00" fill="#000000">!p</text>
</g>
<!-- c1b&#45;&gt;fpa -->
<g id="edge11" class="edge">
<title>c1b&#45;&gt;fpa</title>
<path fill="none" stroke="#ff0000" d="M141.8904,-837.2662C145.7277,-823.0391 151.1345,-802.9928 155.5154,-786.7499"/>
<polygon fill="#ff0000" stroke="#ff0000" points="158.9944,-787.2912 158.2194,-776.7247 152.236,-785.4682 158.9944,-787.2912"/>
<text text-anchor="middle" x="157.5" y="-798.8" font-family="Times,serif" font-size="14.00" fill="#000000">0</text>
</g>
<!-- fa -->
<g id="node4" class="node">
<title>fa</title>
<ellipse fill="none" stroke="#000000" cx="163" cy="-672" rx="27" ry="18"/>
<text text-anchor="middle" x="163" y="-668.3" font-family="Times,serif" font-size="14.00" fill="#000000">PiR</text>
</g>
<!-- fa&#45;&gt;c2b -->
<g id="edge3" class="edge">
<title>fa&#45;&gt;c2b</title>
<path fill="none" stroke="#000000" d="M161.764,-653.9551C161.2112,-645.8828 160.5463,-636.1764 159.9303,-627.1817"/>
<polygon fill="#000000" stroke="#000000" points="163.4143,-626.8278 159.2391,-617.0904 156.4307,-627.3062 163.4143,-626.8278"/>
</g>
<!-- fa&#45;&gt;d1 -->
<g id="edge15" class="edge">
<title>fa&#45;&gt;d1</title>
<path fill="none" stroke="#ff0000" d="M181.8918,-658.6107C198.2984,-646.9827 222.2057,-630.0387 240.3418,-617.185"/>
<ellipse fill="none" stroke="#ff0000" cx="243.9645" cy="-614.6174" rx="4" ry="4"/>
</g>
<!-- fa&#45;&gt;d2 -->
<g id="edge14" class="edge">
<title>fa&#45;&gt;d2</title>
<path fill="none" stroke="#0000ff" d="M147.4179,-657.2274C135.9374,-646.3432 120.1821,-631.4064 107.5036,-619.3865"/>
<ellipse fill="none" stroke="#0000ff" cx="104.4618" cy="-616.5027" rx="4" ry="4"/>
</g>
<!-- hi_retp -->
<g id="node10" class="node">
<title>hi_retp</title>
<ellipse fill="none" stroke="#000000" cx="86" cy="-512" rx="27" ry="18"/>
<text text-anchor="middle" x="86" y="-508.3" font-family="Times,serif" font-size="14.00" fill="#000000">!p</text>
</g>
<!-- c2b&#45;&gt;hi_retp -->
<g id="edge16" class="edge">
<title>c2b&#45;&gt;hi_retp</title>
<path fill="none" stroke="#ff0000" d="M144.7941,-583.0429C133.8328,-569.798 118.0821,-550.7659 105.6416,-535.7336"/>
<polygon fill="#ff0000" stroke="#ff0000" points="108.1943,-533.3284 99.1222,-527.856 102.8015,-537.7914 108.1943,-533.3284"/>
<text text-anchor="middle" x="130.5" y="-551.8" font-family="Times,serif" font-size="14.00" fill="#000000">1</text>
</g>
<!-- x_o2 -->
<g id="node12" class="node">
<title>x_o2</title>
<ellipse fill="none" stroke="#000000" cx="158" cy="-512" rx="27" ry="18"/>
<text text-anchor="middle" x="158" y="-508.3" font-family="Times,serif" font-size="14.00" fill="#000000">!c</text>
</g>
<!-- c2b&#45;&gt;x_o2 -->
<g id="edge17" class="edge">
<title>c2b&#45;&gt;x_o2</title>
<path fill="none" stroke="#0000ff" d="M158,-580.9735C158,-569.1918 158,-553.5607 158,-540.1581"/>
<polygon fill="#0000ff" stroke="#0000ff" points="161.5001,-540.0033 158,-530.0034 154.5001,-540.0034 161.5001,-540.0033"/>
<text text-anchor="middle" x="161.5" y="-551.8" font-family="Times,serif" font-size="14.00" fill="#000000">1</text>
</g>
<!-- d1&#45;&gt;d2 -->
<g id="edge5" class="edge">
<title>d1&#45;&gt;d2</title>
<path fill="none" stroke="#000000" stroke-dasharray="5,2" d="M246.4881,-611.6492C219.9801,-627.1731 171.2744,-649.7801 131,-635.5 119.2436,-631.3315 108.3183,-622.6377 100.1773,-614.7804"/>
</g>
<!-- f_ret -->
<g id="node9" class="node">
<title>f_ret</title>
<ellipse fill="none" stroke="#000000" cx="259" cy="-251" rx="27" ry="18"/>
<text text-anchor="middle" x="259" y="-247.3" font-family="Times,serif" font-size="14.00" fill="#000000">I</text>
</g>
<!-- d1&#45;&gt;f_ret -->
<g id="edge7" class="edge">
<title>d1&#45;&gt;f_ret</title>
<path fill="none" stroke="#ff0000" d="M266,-580.6694C266,-563.0629 266,-535.7135 266,-512 266,-512 266,-512 266,-338 266,-318.3603 264.2057,-296.3069 262.434,-279.318"/>
<polygon fill="#ff0000" stroke="#ff0000" points="265.867,-278.5176 261.2921,-268.9614 258.9092,-279.2848 265.867,-278.5176"/>
</g>
<!-- d2&#45;&gt;hi_retp -->
<g id="edge8" class="edge">
<title>d2&#45;&gt;hi_retp</title>
<path fill="none" stroke="#0000ff" d="M86,-580.9735C86,-569.1918 86,-553.5607 86,-540.1581"/>
<polygon fill="#0000ff" stroke="#0000ff" points="89.5001,-540.0033 86,-530.0034 82.5001,-540.0034 89.5001,-540.0033"/>
<text text-anchor="middle" x="89.5" y="-551.8" font-family="Times,serif" font-size="14.00" fill="#000000">1</text>
</g>
<!-- hi_ret -->
<g id="node16" class="node">
<title>hi_ret</title>
<ellipse fill="none" stroke="#000000" cx="99" cy="-251" rx="27" ry="18"/>
<text text-anchor="middle" x="99" y="-247.3" font-family="Times,serif" font-size="14.00" fill="#000000">I</text>
</g>
<!-- hi_retp&#45;&gt;hi_ret -->
<g id="edge23" class="edge">
<title>hi_retp&#45;&gt;hi_ret</title>
<path fill="none" stroke="#ff0000" d="M86.9141,-493.647C89.1472,-448.8139 94.8928,-333.4607 97.5777,-279.5557"/>
<polygon fill="#ff0000" stroke="#ff0000" points="101.085,-279.4945 98.0869,-269.3327 94.0936,-279.1462 101.085,-279.4945"/>
<text text-anchor="middle" x="96.5" y="-377.8" font-family="Times,serif" font-size="14.00" fill="#000000">2</text>
</g>
<!-- h_di -->
<g id="node17" class="node">
<title>h_di</title>
<ellipse fill="none" stroke="#000000" cx="44" cy="-425" rx="27" ry="18"/>
<text text-anchor="middle" x="44" y="-421.3" font-family="Times,serif" font-size="14.00" fill="#000000">!d</text>
</g>
<!-- hi_retp&#45;&gt;h_di -->
<g id="edge24" class="edge">
<title>hi_retp&#45;&gt;h_di</title>
<path fill="none" stroke="#0000ff" d="M77.7022,-494.8116C71.7196,-482.4191 63.5339,-465.4631 56.728,-451.3651"/>
<polygon fill="#0000ff" stroke="#0000ff" points="59.7801,-449.6366 52.2806,-442.1527 53.4762,-452.6799 59.7801,-449.6366"/>
<text text-anchor="middle" x="71.5" y="-464.8" font-family="Times,serif" font-size="14.00" fill="#000000">1</text>
</g>
<!-- fpa&#45;&gt;fa -->
<g id="edge13" class="edge">
<title>fpa&#45;&gt;fa</title>
<path fill="none" stroke="#ff0000" d="M163,-740.9735C163,-729.1918 163,-713.5607 163,-700.1581"/>
<polygon fill="#ff0000" stroke="#ff0000" points="166.5001,-700.0033 163,-690.0034 159.5001,-700.0034 166.5001,-700.0033"/>
<text text-anchor="middle" x="166.5" y="-711.8" font-family="Times,serif" font-size="14.00" fill="#000000">1</text>
</g>
<!-- x1_o2 -->
<g id="node13" class="node">
<title>x1_o2</title>
<ellipse fill="none" stroke="#000000" cx="174" cy="-251" rx="27" ry="18"/>
<text text-anchor="middle" x="174" y="-247.3" font-family="Times,serif" font-size="14.00" fill="#000000">I</text>
</g>
<!-- x_o2&#45;&gt;x1_o2 -->
<g id="edge18" class="edge">
<title>x_o2&#45;&gt;x1_o2</title>
<path fill="none" stroke="#0000ff" d="M159.1251,-493.647C161.8801,-448.7053 168.9792,-332.9017 172.2734,-279.1653"/>
<polygon fill="#0000ff" stroke="#0000ff" points="175.7789,-279.1817 172.8974,-268.9862 168.792,-278.7533 175.7789,-279.1817"/>
</g>
<!-- x2_o2 -->
<g id="node14" class="node">
<title>x2_o2</title>
<ellipse fill="none" stroke="#000000" cx="211" cy="-425" rx="27" ry="18"/>
<text text-anchor="middle" x="211" y="-421.3" font-family="Times,serif" font-size="14.00" fill="#000000">!d</text>
</g>
<!-- x_o2&#45;&gt;x2_o2 -->
<g id="edge19" class="edge">
<title>x_o2&#45;&gt;x2_o2</title>
<path fill="none" stroke="#0000ff" d="M168.2189,-495.2255C175.9176,-482.588 186.6096,-465.0371 195.3785,-450.6429"/>
<polygon fill="#0000ff" stroke="#0000ff" points="198.5988,-452.084 200.8124,-441.723 192.6208,-448.4422 198.5988,-452.084"/>
</g>
<!-- x2i_o2 -->
<g id="node15" class="node">
<title>x2i_o2</title>
<ellipse fill="none" stroke="#000000" cx="211" cy="-338" rx="27" ry="18"/>
<text text-anchor="middle" x="211" y="-334.3" font-family="Times,serif" font-size="14.00" fill="#000000">PiL</text>
</g>
<!-- x2_o2&#45;&gt;x2i_o2 -->
<g id="edge20" class="edge">
<title>x2_o2&#45;&gt;x2i_o2</title>
<path fill="none" stroke="#0000ff" d="M211,-406.9735C211,-395.1918 211,-379.5607 211,-366.1581"/>
<polygon fill="#0000ff" stroke="#0000ff" points="214.5001,-366.0033 211,-356.0034 207.5001,-366.0034 214.5001,-366.0033"/>
</g>
<!-- x2i_o2&#45;&gt;f_ret -->
<g id="edge22" class="edge">
<title>x2i_o2&#45;&gt;f_ret</title>
<path fill="none" stroke="#0000ff" d="M220.4833,-320.8116C227.3862,-308.3 236.8557,-291.1366 244.6777,-276.9592"/>
<polygon fill="#0000ff" stroke="#0000ff" points="247.7701,-278.5993 249.5364,-268.1527 241.6411,-275.2177 247.7701,-278.5993"/>
</g>
<!-- x2i_o2&#45;&gt;x1_o2 -->
<g id="edge21" class="edge">
<title>x2i_o2&#45;&gt;x1_o2</title>
<path fill="none" stroke="#ff0000" d="M203.5125,-320.3943C198.3469,-308.2482 191.3804,-291.8674 185.513,-278.0711"/>
<polygon fill="#ff0000" stroke="#ff0000" points="188.6109,-276.4121 181.4764,-268.5796 182.1692,-279.1517 188.6109,-276.4121"/>
</g>
<!-- h -->
<g id="node18" class="node">
<title>h</title>
<ellipse fill="none" stroke="#000000" cx="44" cy="-338" rx="27" ry="18"/>
<text text-anchor="middle" x="44" y="-334.3" font-family="Times,serif" font-size="14.00" fill="#000000">PiL</text>
</g>
<!-- h_di&#45;&gt;h -->
<g id="edge25" class="edge">
<title>h_di&#45;&gt;h</title>
<path fill="none" stroke="#0000ff" d="M44,-406.9735C44,-395.1918 44,-379.5607 44,-366.1581"/>
<polygon fill="#0000ff" stroke="#0000ff" points="47.5001,-366.0033 44,-356.0034 40.5001,-366.0034 47.5001,-366.0033"/>
<text text-anchor="middle" x="47.5" y="-377.8" font-family="Times,serif" font-size="14.00" fill="#000000">2</text>
</g>
<!-- h&#45;&gt;hi_ret -->
<g id="edge31" class="edge">
<title>h&#45;&gt;hi_ret</title>
<path fill="none" stroke="#0000ff" d="M54.6046,-321.2255C62.6699,-308.4677 73.9008,-290.7024 83.0484,-276.2325"/>
<polygon fill="#0000ff" stroke="#0000ff" points="86.0428,-278.0458 88.428,-267.723 80.126,-274.3053 86.0428,-278.0458"/>
</g>
<!-- i -->
<g id="node19" class="node">
<title>i</title>
<ellipse fill="none" stroke="#000000" cx="27" cy="-251" rx="27" ry="18"/>
<text text-anchor="middle" x="27" y="-247.3" font-family="Times,serif" font-size="14.00" fill="#000000">!p</text>
</g>
<!-- h&#45;&gt;i -->
<g id="edge30" class="edge">
<title>h&#45;&gt;i</title>
<path fill="none" stroke="#ff0000" d="M40.4776,-319.9735C38.1754,-308.1918 35.121,-292.5607 32.5022,-279.1581"/>
<polygon fill="#ff0000" stroke="#ff0000" points="35.8708,-278.1465 30.5179,-269.0034 29.0007,-279.489 35.8708,-278.1465"/>
<text text-anchor="middle" x="40.5" y="-290.8" font-family="Times,serif" font-size="14.00" fill="#000000">2</text>
</g>
<!-- i_i -->
<g id="node20" class="node">
<title>i_i</title>
<ellipse fill="none" stroke="#000000" cx="27" cy="-164" rx="27" ry="18"/>
<text text-anchor="middle" x="27" y="-160.3" font-family="Times,serif" font-size="14.00" fill="#000000">PiR</text>
</g>
<!-- i&#45;&gt;i_i -->
<g id="edge26" class="edge">
<title>i&#45;&gt;i_i</title>
<path fill="none" stroke="#ff0000" d="M27,-232.9735C27,-221.1918 27,-205.5607 27,-192.1581"/>
<polygon fill="#ff0000" stroke="#ff0000" points="30.5001,-192.0033 27,-182.0034 23.5001,-192.0034 30.5001,-192.0033"/>
<text text-anchor="middle" x="30.5" y="-203.8" font-family="Times,serif" font-size="14.00" fill="#000000">3</text>
</g>
<!-- il -->
<g id="node21" class="node">
<title>il</title>
<ellipse fill="none" stroke="#000000" cx="70" cy="-91" rx="27" ry="18"/>
<text text-anchor="middle" x="70" y="-87.3" font-family="Times,serif" font-size="14.00" fill="#000000">!d</text>
</g>
<!-- i_i&#45;&gt;il -->
<g id="edge27" class="edge">
<title>i_i&#45;&gt;il</title>
<path fill="none" stroke="#0000ff" d="M36.9731,-147.0688C42.2918,-138.0396 48.9465,-126.742 54.8861,-116.6585"/>
<polygon fill="#0000ff" stroke="#0000ff" points="58.0212,-118.232 60.0809,-107.8393 51.9898,-114.6793 58.0212,-118.232"/>
</g>
<!-- i_ret -->
<g id="node22" class="node">
<title>i_ret</title>
<ellipse fill="none" stroke="#000000" cx="27" cy="-18" rx="27" ry="18"/>
<text text-anchor="middle" x="27" y="-14.3" font-family="Times,serif" font-size="14.00" fill="#000000">I</text>
</g>
<!-- i_i&#45;&gt;i_ret -->
<g id="edge28" class="edge">
<title>i_i&#45;&gt;i_ret</title>
<path fill="none" stroke="#ff0000" d="M27,-145.8042C27,-120.8868 27,-75.8938 27,-46.4877"/>
<polygon fill="#ff0000" stroke="#ff0000" points="30.5001,-46.4251 27,-36.4251 23.5001,-46.4251 30.5001,-46.4251"/>
</g>
<!-- il&#45;&gt;i_ret -->
<g id="edge29" class="edge">
<title>il&#45;&gt;i_ret</title>
<path fill="none" stroke="#0000ff" d="M60.0269,-74.0688C54.7082,-65.0396 48.0535,-53.742 42.1139,-43.6585"/>
<polygon fill="#0000ff" stroke="#0000ff" points="45.0102,-41.6793 36.9191,-34.8393 38.9788,-45.232 45.0102,-41.6793"/>
</g>
</g>
</svg>
