<?xml version="1.0" encoding="UTF-8" standalone="no"?>
<!DOCTYPE svg PUBLIC "-//W3C//DTD SVG 1.1//EN"
 "http://www.w3.org/Graphics/SVG/1.1/DTD/svg11.dtd">
<!-- Generated by graphviz version 2.40.1 (20161225.0304)
 -->
<!-- Title: %3 Pages: 1 -->
<svg width="180pt" height="404pt"
 viewBox="0.00 0.00 180.10 404.00" xmlns="http://www.w3.org/2000/svg" xmlns:xlink="http://www.w3.org/1999/xlink">
<g id="graph0" class="graph" transform="scale(1 1) rotate(0) translate(4 400)">
<title>%3</title>
<polygon fill="#ffffff" stroke="transparent" points="-4,4 -4,-400 176.0969,-400 176.0969,4 -4,4"/>
<!-- and -->
<g id="node1" class="node">
<title>and</title>
<ellipse fill="none" stroke="#000000" cx="121.0969" cy="-378" rx="38.1938" ry="18"/>
<text text-anchor="middle" x="121.0969" y="-374.3" font-family="Times,serif" font-size="14.00" fill="#000000">and =</text>
</g>
<!-- d -->
<g id="node2" class="node">
<title>d</title>
<ellipse fill="none" stroke="#000000" cx="121.0969" cy="-306" rx="27" ry="18"/>
<text text-anchor="middle" x="121.0969" y="-302.3" font-family="Times,serif" font-size="14.00" fill="#000000">PiR</text>
</g>
<!-- and&#45;&gt;d -->
<g id="edge1" class="edge">
<title>and&#45;&gt;d</title>
<path fill="none" stroke="#ff0000" d="M121.0969,-359.8314C121.0969,-352.131 121.0969,-342.9743 121.0969,-334.4166"/>
<polygon fill="#ff0000" stroke="#ff0000" points="124.597,-334.4132 121.0969,-324.4133 117.597,-334.4133 124.597,-334.4132"/>
</g>
<!-- e -->
<g id="node3" class="node">
<title>e</title>
<ellipse fill="none" stroke="#000000" cx="121.0969" cy="-234" rx="46.2923" ry="18"/>
<text text-anchor="middle" x="121.0969" y="-230.3" font-family="Times,serif" font-size="14.00" fill="#000000">SigmaL</text>
</g>
<!-- d&#45;&gt;e -->
<g id="edge3" class="edge">
<title>d&#45;&gt;e</title>
<path fill="none" stroke="#ff0000" d="M115.1812,-288.2022C114.3973,-280.3864 114.1658,-271.0171 114.4866,-262.2836"/>
<polygon fill="#ff0000" stroke="#ff0000" points="117.9929,-262.2999 115.1519,-252.0931 111.0078,-261.8439 117.9929,-262.2999"/>
</g>
<!-- e&#45;&gt;d -->
<g id="edge2" class="edge">
<title>e&#45;&gt;d</title>
<path fill="none" stroke="#0000ff" d="M127.7071,-262.2836C128.0279,-271.0171 127.7964,-280.3864 127.0126,-288.2022"/>
<polygon fill="#0000ff" stroke="#0000ff" points="131.186,-261.8439 127.0419,-252.0931 124.2008,-262.2999 131.186,-261.8439"/>
</g>
<!-- f1 -->
<g id="node4" class="node">
<title>f1</title>
<ellipse fill="none" stroke="#000000" cx="35.0969" cy="-162" rx="27" ry="18"/>
<text text-anchor="middle" x="35.0969" y="-158.3" font-family="Times,serif" font-size="14.00" fill="#000000">PiR</text>
</g>
<!-- e&#45;&gt;f1 -->
<g id="edge4" class="edge">
<title>e&#45;&gt;f1</title>
<path fill="none" stroke="#ff0000" d="M101.5822,-217.6621C89.1881,-207.2856 73.0389,-193.7654 59.7603,-182.6484"/>
<polygon fill="#ff0000" stroke="#ff0000" points="61.8371,-179.8225 51.9227,-176.0867 57.3435,-185.1898 61.8371,-179.8225"/>
</g>
<!-- f2 -->
<g id="node5" class="node">
<title>f2</title>
<ellipse fill="none" stroke="#000000" cx="121.0969" cy="-162" rx="27" ry="18"/>
<text text-anchor="middle" x="121.0969" y="-158.3" font-family="Times,serif" font-size="14.00" fill="#000000">PiR</text>
</g>
<!-- e&#45;&gt;f2 -->
<g id="edge5" class="edge">
<title>e&#45;&gt;f2</title>
<path fill="none" stroke="#ff0000" d="M121.0969,-215.8314C121.0969,-208.131 121.0969,-198.9743 121.0969,-190.4166"/>
<polygon fill="#ff0000" stroke="#ff0000" points="124.597,-190.4132 121.0969,-180.4133 117.597,-190.4133 124.597,-190.4132"/>
</g>
<!-- h1 -->
<g id="node7" class="node">
<title>h1</title>
<ellipse fill="none" stroke="#000000" cx="35.0969" cy="-90" rx="35.194" ry="18"/>
<text text-anchor="middle" x="35.0969" y="-86.3" font-family="Times,serif" font-size="14.00" fill="#000000">False</text>
</g>
<!-- f1&#45;&gt;h1 -->
<g id="edge7" class="edge">
<title>f1&#45;&gt;h1</title>
<path fill="none" stroke="#ff0000" d="M35.0969,-143.8314C35.0969,-136.131 35.0969,-126.9743 35.0969,-118.4166"/>
<polygon fill="#ff0000" stroke="#ff0000" points="38.597,-118.4132 35.0969,-108.4133 31.597,-118.4133 38.597,-118.4132"/>
</g>
<!-- h2 -->
<g id="node9" class="node">
<title>h2</title>
<ellipse fill="none" stroke="#000000" cx="118.0969" cy="-90" rx="27" ry="18"/>
<text text-anchor="middle" x="118.0969" y="-86.3" font-family="Times,serif" font-size="14.00" fill="#000000">I</text>
</g>
<!-- f2&#45;&gt;h2 -->
<g id="edge9" class="edge">
<title>f2&#45;&gt;h2</title>
<path fill="none" stroke="#ff0000" d="M120.3399,-143.8314C120.019,-136.131 119.6375,-126.9743 119.2809,-118.4166"/>
<polygon fill="#ff0000" stroke="#ff0000" points="122.7775,-118.2589 118.8641,-108.4133 115.7835,-118.5503 122.7775,-118.2589"/>
</g>
<!-- g1 -->
<g id="node6" class="node">
<title>g1</title>
<ellipse fill="none" stroke="#000000" cx="30.0969" cy="-234" rx="27" ry="18"/>
<text text-anchor="middle" x="30.0969" y="-230.3" font-family="Times,serif" font-size="14.00" fill="#000000">!w</text>
</g>
<!-- g1&#45;&gt;f1 -->
<g id="edge6" class="edge">
<title>g1&#45;&gt;f1</title>
<path fill="none" stroke="#0000ff" d="M32.0514,-205.8545C32.6448,-197.3097 33.2813,-188.1442 33.8182,-180.4133"/>
<polygon fill="#0000ff" stroke="#0000ff" points="28.5599,-205.6129 31.3586,-215.8314 35.5431,-206.0979 28.5599,-205.6129"/>
</g>
<!-- g2 -->
<g id="node8" class="node">
<title>g2</title>
<ellipse fill="none" stroke="#000000" cx="145.0969" cy="-18" rx="27" ry="18"/>
<text text-anchor="middle" x="145.0969" y="-14.3" font-family="Times,serif" font-size="14.00" fill="#000000">!d</text>
</g>
<!-- g2&#45;&gt;f2 -->
<g id="edge8" class="edge">
<title>g2&#45;&gt;f2</title>
<path fill="none" stroke="#0000ff" d="M153.1125,-45.8018C157.039,-63.8278 159.821,-87.656 154.0969,-108 150.1688,-121.9607 141.5179,-135.8814 134.0589,-146.0916"/>
<polygon fill="#0000ff" stroke="#0000ff" points="156.4774,-44.8256 150.7241,-35.9289 149.6737,-46.4716 156.4774,-44.8256"/>
</g>
<!-- h2&#45;&gt;g2 -->
<g id="edge10" class="edge">
<title>h2&#45;&gt;g2</title>
<path fill="none" stroke="#0000ff" d="M128.3127,-62.7579C131.7257,-53.6566 135.4368,-43.7602 138.4995,-35.593"/>
<polygon fill="#0000ff" stroke="#0000ff" points="125.0052,-61.61 124.771,-72.2022 131.5595,-64.0679 125.0052,-61.61"/>
</g>
</g>
</svg>
