<?xml version="1.0" encoding="UTF-8" standalone="no"?>
<!DOCTYPE svg PUBLIC "-//W3C//DTD SVG 1.1//EN"
 "http://www.w3.org/Graphics/SVG/1.1/DTD/svg11.dtd">
<!-- Generated by graphviz version 2.43.0 (0)
 -->
<!-- Title: %3 Pages: 1 -->
<svg width="291pt" height="1137pt"
 viewBox="0.00 0.00 291.00 1136.79" xmlns="http://www.w3.org/2000/svg" xmlns:xlink="http://www.w3.org/1999/xlink">
<g id="graph0" class="graph" transform="scale(1 1) rotate(0) translate(4 1132.79)">
<title>%3</title>
<polygon fill="white" stroke="transparent" points="-4,4 -4,-1132.79 287,-1132.79 287,4 -4,4"/>
<!-- Root -->
<g id="node1" class="node">
<title>Root</title>
<ellipse fill="none" stroke="black" cx="223" cy="-1110.79" rx="32.49" ry="18"/>
<text text-anchor="middle" x="223" y="-1107.09" font-family="Times,serif" font-size="14.00">Root</text>
</g>
<!-- c1b -->
<g id="node2" class="node">
<title>c1b</title>
<ellipse fill="none" stroke="black" cx="192" cy="-1037.79" rx="27.1" ry="18"/>
<text text-anchor="middle" x="192" y="-1034.09" font-family="Times,serif" font-size="14.00">Cut</text>
</g>
<!-- Root&#45;&gt;c1b -->
<g id="edge1" class="edge">
<title>Root&#45;&gt;c1b</title>
<path fill="none" stroke="black" d="M215.65,-1092.97C211.99,-1084.57 207.47,-1074.22 203.36,-1064.82"/>
<polygon fill="black" stroke="black" points="206.5,-1063.26 199.29,-1055.5 200.09,-1066.06 206.5,-1063.26"/>
</g>
<!-- ret -->
<g id="node5" class="node">
<title>ret</title>
<ellipse fill="none" stroke="black" cx="256" cy="-863.79" rx="27" ry="18"/>
<text text-anchor="middle" x="256" y="-860.09" font-family="Times,serif" font-size="14.00">I</text>
</g>
<!-- Root&#45;&gt;ret -->
<g id="edge3" class="edge">
<title>Root&#45;&gt;ret</title>
<path fill="none" stroke="red" stroke-width="2" d="M225.32,-1092.57C230.98,-1050.57 245.51,-942.65 252.35,-891.92"/>
<polygon fill="red" stroke="red" stroke-width="2" points="255.82,-892.38 253.68,-882 248.88,-891.45 255.82,-892.38"/>
</g>
<!-- d1 -->
<g id="node6" class="node">
<title>d1</title>
<ellipse fill="none" stroke="black" cx="145" cy="-760.9" rx="29.81" ry="29.81"/>
<ellipse fill="none" stroke="black" cx="145" cy="-760.9" rx="33.8" ry="33.8"/>
<text text-anchor="middle" x="145" y="-757.2" font-family="Times,serif" font-size="14.00">Dup</text>
</g>
<!-- c1b&#45;&gt;d1 -->
<g id="edge5" class="edge">
<title>c1b&#45;&gt;d1</title>
<path fill="none" stroke="red" d="M181.37,-1021.08C172.94,-1007.78 161.68,-987.87 156,-968.79 139.69,-914.01 139.39,-847.53 141.51,-804.97"/>
<polygon fill="red" stroke="red" points="145.01,-805.13 142.07,-794.95 138.02,-804.74 145.01,-805.13"/>
<text text-anchor="middle" x="150" y="-903.59" font-family="Times,serif" font-size="14.00">1</text>
</g>
<!-- x2i_o1 -->
<g id="node7" class="node">
<title>x2i_o1</title>
<ellipse fill="none" stroke="black" cx="192" cy="-950.79" rx="27" ry="18"/>
<text text-anchor="middle" x="192" y="-947.09" font-family="Times,serif" font-size="14.00">PiL</text>
</g>
<!-- c1b&#45;&gt;x2i_o1 -->
<g id="edge6" class="edge">
<title>c1b&#45;&gt;x2i_o1</title>
<path fill="none" stroke="blue" d="M192,-1019.59C192,-1007.96 192,-992.34 192,-979.03"/>
<polygon fill="blue" stroke="blue" points="195.5,-978.97 192,-968.97 188.5,-978.97 195.5,-978.97"/>
<text text-anchor="middle" x="197" y="-990.59" font-family="Times,serif" font-size="14.00">0</text>
</g>
<!-- f -->
<g id="node3" class="node">
<title>f</title>
<ellipse fill="none" stroke="black" cx="145" cy="-672" rx="27" ry="18"/>
<text text-anchor="middle" x="145" y="-668.3" font-family="Times,serif" font-size="14.00">PiR</text>
</g>
<!-- c2b -->
<g id="node4" class="node">
<title>c2b</title>
<ellipse fill="none" stroke="black" cx="145" cy="-599" rx="27.1" ry="18"/>
<text text-anchor="middle" x="145" y="-595.3" font-family="Times,serif" font-size="14.00">Cut</text>
</g>
<!-- f&#45;&gt;c2b -->
<g id="edge2" class="edge">
<title>f&#45;&gt;c2b</title>
<path fill="none" stroke="black" d="M145,-653.81C145,-645.79 145,-636.05 145,-627.07"/>
<polygon fill="black" stroke="black" points="148.5,-627.03 145,-617.03 141.5,-627.03 148.5,-627.03"/>
</g>
<!-- hi_retp -->
<g id="node9" class="node">
<title>hi_retp</title>
<ellipse fill="none" stroke="black" cx="82" cy="-512" rx="27" ry="18"/>
<text text-anchor="middle" x="82" y="-508.3" font-family="Times,serif" font-size="14.00">!p</text>
</g>
<!-- f&#45;&gt;hi_retp -->
<g id="edge10" class="edge">
<title>f&#45;&gt;hi_retp</title>
<path fill="none" stroke="blue" d="M129.24,-656.99C118.95,-646.91 106.14,-632.42 99,-617 87.69,-592.57 83.76,-561.87 82.47,-540.17"/>
<polygon fill="blue" stroke="blue" points="85.96,-539.86 82.02,-530.02 78.97,-540.17 85.96,-539.86"/>
<text text-anchor="middle" x="104" y="-595.3" font-family="Times,serif" font-size="14.00">1</text>
</g>
<!-- f_ret -->
<g id="node10" class="node">
<title>f_ret</title>
<ellipse fill="none" stroke="black" cx="246" cy="-251" rx="27" ry="18"/>
<text text-anchor="middle" x="246" y="-247.3" font-family="Times,serif" font-size="14.00">I</text>
</g>
<!-- f&#45;&gt;f_ret -->
<g id="edge11" class="edge">
<title>f&#45;&gt;f_ret</title>
<path fill="none" stroke="red" d="M170.21,-665.22C200.42,-656.63 247,-637.33 247,-600 247,-600 247,-600 247,-337 247,-317.75 246.74,-296.05 246.49,-279.4"/>
<polygon fill="red" stroke="red" points="249.98,-279.2 246.32,-269.26 242.98,-279.31 249.98,-279.2"/>
</g>
<!-- c2b&#45;&gt;hi_retp -->
<g id="edge12" class="edge">
<title>c2b&#45;&gt;hi_retp</title>
<path fill="none" stroke="red" d="M133.44,-582.41C123.94,-569.59 110.33,-551.22 99.49,-536.6"/>
<polygon fill="red" stroke="red" points="102.25,-534.44 93.48,-528.49 96.62,-538.61 102.25,-534.44"/>
<text text-anchor="middle" x="123" y="-551.8" font-family="Times,serif" font-size="14.00">1</text>
</g>
<!-- x_o2 -->
<g id="node11" class="node">
<title>x_o2</title>
<ellipse fill="none" stroke="black" cx="154" cy="-512" rx="27" ry="18"/>
<text text-anchor="middle" x="154" y="-508.3" font-family="Times,serif" font-size="14.00">!c</text>
</g>
<!-- c2b&#45;&gt;x_o2 -->
<g id="edge13" class="edge">
<title>c2b&#45;&gt;x_o2</title>
<path fill="none" stroke="blue" d="M146.82,-580.8C148.05,-569.16 149.71,-553.55 151.12,-540.24"/>
<polygon fill="blue" stroke="blue" points="154.61,-540.49 152.18,-530.18 147.65,-539.75 154.61,-540.49"/>
<text text-anchor="middle" x="156" y="-551.8" font-family="Times,serif" font-size="14.00">1</text>
</g>
<!-- d1&#45;&gt;f -->
<g id="edge4" class="edge">
<title>d1&#45;&gt;f</title>
<path fill="none" stroke="red" d="M145,-726.55C145,-717.9 145,-708.68 145,-700.37"/>
<polygon fill="red" stroke="red" points="148.5,-700.1 145,-690.1 141.5,-700.1 148.5,-700.1"/>
</g>
<!-- x2i_o1&#45;&gt;ret -->
<g id="edge8" class="edge">
<title>x2i_o1&#45;&gt;ret</title>
<path fill="none" stroke="blue" d="M203.74,-934.2C213.39,-921.38 227.22,-903.01 238.23,-888.39"/>
<polygon fill="blue" stroke="blue" points="241.12,-890.38 244.34,-880.29 235.52,-886.17 241.12,-890.38"/>
</g>
<!-- fpa -->
<g id="node8" class="node">
<title>fpa</title>
<ellipse fill="none" stroke="black" cx="184" cy="-863.79" rx="27" ry="18"/>
<text text-anchor="middle" x="184" y="-860.09" font-family="Times,serif" font-size="14.00">!p</text>
</g>
<!-- x2i_o1&#45;&gt;fpa -->
<g id="edge7" class="edge">
<title>x2i_o1&#45;&gt;fpa</title>
<path fill="none" stroke="red" d="M190.38,-932.59C189.29,-920.96 187.82,-905.34 186.56,-892.03"/>
<polygon fill="red" stroke="red" points="190.04,-891.6 185.62,-881.97 183.07,-892.25 190.04,-891.6"/>
<text text-anchor="middle" x="194" y="-903.59" font-family="Times,serif" font-size="14.00">0</text>
</g>
<!-- fpa&#45;&gt;d1 -->
<g id="edge9" class="edge">
<title>fpa&#45;&gt;d1</title>
<path fill="none" stroke="red" d="M177.56,-846.13C172.76,-833.72 166.01,-816.27 159.9,-800.46"/>
<ellipse fill="none" stroke="red" cx="158.41" cy="-796.59" rx="4" ry="4"/>
<text text-anchor="middle" x="176" y="-816.59" font-family="Times,serif" font-size="14.00">1</text>
</g>
<!-- hi_ret -->
<g id="node15" class="node">
<title>hi_ret</title>
<ellipse fill="none" stroke="black" cx="27" cy="-251" rx="27" ry="18"/>
<text text-anchor="middle" x="27" y="-247.3" font-family="Times,serif" font-size="14.00">I</text>
</g>
<!-- hi_retp&#45;&gt;hi_ret -->
<g id="edge19" class="edge">
<title>hi_retp&#45;&gt;hi_ret</title>
<path fill="none" stroke="red" d="M71.4,-495.28C63,-481.96 51.75,-462.05 46,-443 28.96,-386.52 26.4,-316.82 26.44,-279.19"/>
<polygon fill="red" stroke="red" points="29.95,-279.06 26.52,-269.03 22.95,-279 29.95,-279.06"/>
<text text-anchor="middle" x="39" y="-377.8" font-family="Times,serif" font-size="14.00">2</text>
</g>
<!-- h_di -->
<g id="node16" class="node">
<title>h_di</title>
<ellipse fill="none" stroke="black" cx="82" cy="-425" rx="27" ry="18"/>
<text text-anchor="middle" x="82" y="-421.3" font-family="Times,serif" font-size="14.00">!d</text>
</g>
<!-- hi_retp&#45;&gt;h_di -->
<g id="edge20" class="edge">
<title>hi_retp&#45;&gt;h_di</title>
<path fill="none" stroke="blue" d="M82,-493.8C82,-482.16 82,-466.55 82,-453.24"/>
<polygon fill="blue" stroke="blue" points="85.5,-453.18 82,-443.18 78.5,-453.18 85.5,-453.18"/>
<text text-anchor="middle" x="87" y="-464.8" font-family="Times,serif" font-size="14.00">1</text>
</g>
<!-- x1_o2 -->
<g id="node12" class="node">
<title>x1_o2</title>
<ellipse fill="none" stroke="black" cx="172" cy="-251" rx="27" ry="18"/>
<text text-anchor="middle" x="172" y="-247.3" font-family="Times,serif" font-size="14.00">I</text>
</g>
<!-- x_o2&#45;&gt;x1_o2 -->
<g id="edge14" class="edge">
<title>x_o2&#45;&gt;x1_o2</title>
<path fill="none" stroke="blue" d="M152.92,-493.8C151.08,-460.23 148.27,-383.7 156,-320 157.68,-306.17 161.07,-291.07 164.3,-278.61"/>
<polygon fill="blue" stroke="blue" points="167.71,-279.43 166.94,-268.86 160.95,-277.6 167.71,-279.43"/>
</g>
<!-- x2_o2 -->
<g id="node13" class="node">
<title>x2_o2</title>
<ellipse fill="none" stroke="black" cx="192" cy="-425" rx="27" ry="18"/>
<text text-anchor="middle" x="192" y="-421.3" font-family="Times,serif" font-size="14.00">!d</text>
</g>
<!-- x_o2&#45;&gt;x2_o2 -->
<g id="edge15" class="edge">
<title>x_o2&#45;&gt;x2_o2</title>
<path fill="none" stroke="blue" d="M161.33,-494.61C166.74,-482.5 174.22,-465.77 180.44,-451.86"/>
<polygon fill="blue" stroke="blue" points="183.81,-452.9 184.7,-442.34 177.42,-450.04 183.81,-452.9"/>
</g>
<!-- x2i_o2 -->
<g id="node14" class="node">
<title>x2i_o2</title>
<ellipse fill="none" stroke="black" cx="192" cy="-338" rx="27" ry="18"/>
<text text-anchor="middle" x="192" y="-334.3" font-family="Times,serif" font-size="14.00">PiL</text>
</g>
<!-- x2_o2&#45;&gt;x2i_o2 -->
<g id="edge16" class="edge">
<title>x2_o2&#45;&gt;x2i_o2</title>
<path fill="none" stroke="blue" d="M192,-406.8C192,-395.16 192,-379.55 192,-366.24"/>
<polygon fill="blue" stroke="blue" points="195.5,-366.18 192,-356.18 188.5,-366.18 195.5,-366.18"/>
</g>
<!-- x2i_o2&#45;&gt;f_ret -->
<g id="edge18" class="edge">
<title>x2i_o2&#45;&gt;f_ret</title>
<path fill="none" stroke="blue" d="M202.16,-321.01C210.08,-308.55 221.22,-291.01 230.28,-276.74"/>
<polygon fill="blue" stroke="blue" points="233.48,-278.23 235.89,-267.92 227.57,-274.48 233.48,-278.23"/>
</g>
<!-- x2i_o2&#45;&gt;x1_o2 -->
<g id="edge17" class="edge">
<title>x2i_o2&#45;&gt;x1_o2</title>
<path fill="none" stroke="red" d="M187.95,-319.8C185.2,-308.09 181.49,-292.34 178.35,-278.97"/>
<polygon fill="red" stroke="red" points="181.67,-277.82 175.97,-268.89 174.86,-279.42 181.67,-277.82"/>
</g>
<!-- h -->
<g id="node17" class="node">
<title>h</title>
<ellipse fill="none" stroke="black" cx="82" cy="-338" rx="27" ry="18"/>
<text text-anchor="middle" x="82" y="-334.3" font-family="Times,serif" font-size="14.00">PiL</text>
</g>
<!-- h_di&#45;&gt;h -->
<g id="edge21" class="edge">
<title>h_di&#45;&gt;h</title>
<path fill="none" stroke="blue" d="M82,-406.8C82,-395.16 82,-379.55 82,-366.24"/>
<polygon fill="blue" stroke="blue" points="85.5,-366.18 82,-356.18 78.5,-366.18 85.5,-366.18"/>
<text text-anchor="middle" x="87" y="-377.8" font-family="Times,serif" font-size="14.00">2</text>
</g>
<!-- h&#45;&gt;hi_ret -->
<g id="edge27" class="edge">
<title>h&#45;&gt;hi_ret</title>
<path fill="none" stroke="blue" d="M71.65,-321.01C63.51,-308.43 52.03,-290.68 42.74,-276.33"/>
<polygon fill="blue" stroke="blue" points="45.67,-274.41 37.3,-267.92 39.79,-278.21 45.67,-274.41"/>
</g>
<!-- i -->
<g id="node18" class="node">
<title>i</title>
<ellipse fill="none" stroke="black" cx="99" cy="-251" rx="27" ry="18"/>
<text text-anchor="middle" x="99" y="-247.3" font-family="Times,serif" font-size="14.00">!p</text>
</g>
<!-- h&#45;&gt;i -->
<g id="edge26" class="edge">
<title>h&#45;&gt;i</title>
<path fill="none" stroke="red" d="M85.44,-319.8C87.78,-308.09 90.93,-292.34 93.61,-278.97"/>
<polygon fill="red" stroke="red" points="97.09,-279.38 95.62,-268.89 90.23,-278 97.09,-279.38"/>
<text text-anchor="middle" x="97" y="-290.8" font-family="Times,serif" font-size="14.00">2</text>
</g>
<!-- i_i -->
<g id="node19" class="node">
<title>i_i</title>
<ellipse fill="none" stroke="black" cx="99" cy="-164" rx="27" ry="18"/>
<text text-anchor="middle" x="99" y="-160.3" font-family="Times,serif" font-size="14.00">PiR</text>
</g>
<!-- i&#45;&gt;i_i -->
<g id="edge22" class="edge">
<title>i&#45;&gt;i_i</title>
<path fill="none" stroke="red" d="M99,-232.8C99,-221.16 99,-205.55 99,-192.24"/>
<polygon fill="red" stroke="red" points="102.5,-192.18 99,-182.18 95.5,-192.18 102.5,-192.18"/>
<text text-anchor="middle" x="104" y="-203.8" font-family="Times,serif" font-size="14.00">3</text>
</g>
<!-- il -->
<g id="node20" class="node">
<title>il</title>
<ellipse fill="none" stroke="black" cx="142" cy="-91" rx="27" ry="18"/>
<text text-anchor="middle" x="142" y="-87.3" font-family="Times,serif" font-size="14.00">!d</text>
</g>
<!-- i_i&#45;&gt;il -->
<g id="edge23" class="edge">
<title>i_i&#45;&gt;il</title>
<path fill="none" stroke="blue" d="M108.76,-146.89C114.15,-137.99 120.95,-126.75 127,-116.77"/>
<polygon fill="blue" stroke="blue" points="130.09,-118.41 132.28,-108.05 124.11,-114.79 130.09,-118.41"/>
</g>
<!-- i_ret -->
<g id="node21" class="node">
<title>i_ret</title>
<ellipse fill="none" stroke="black" cx="99" cy="-18" rx="27" ry="18"/>
<text text-anchor="middle" x="99" y="-14.3" font-family="Times,serif" font-size="14.00">I</text>
</g>
<!-- i_i&#45;&gt;i_ret -->
<g id="edge24" class="edge">
<title>i_i&#45;&gt;i_ret</title>
<path fill="none" stroke="red" d="M99,-145.92C99,-121.34 99,-75.75 99,-46.43"/>
<polygon fill="red" stroke="red" points="102.5,-46.06 99,-36.06 95.5,-46.06 102.5,-46.06"/>
</g>
<!-- il&#45;&gt;i_ret -->
<g id="edge25" class="edge">
<title>il&#45;&gt;i_ret</title>
<path fill="none" stroke="blue" d="M132.24,-73.89C126.85,-64.99 120.05,-53.75 114,-43.77"/>
<polygon fill="blue" stroke="blue" points="116.89,-41.79 108.72,-35.05 110.91,-45.41 116.89,-41.79"/>
</g>
</g>
</svg>
