<?xml version="1.0" encoding="UTF-8" standalone="no"?>
<!DOCTYPE svg PUBLIC "-//W3C//DTD SVG 1.1//EN"
 "http://www.w3.org/Graphics/SVG/1.1/DTD/svg11.dtd">
<!-- Generated by graphviz version 2.40.1 (20161225.0304)
 -->
<!-- Title: %3 Pages: 1 -->
<svg width="740pt" height="1161pt"
 viewBox="0.00 0.00 740.50 1160.90" xmlns="http://www.w3.org/2000/svg" xmlns:xlink="http://www.w3.org/1999/xlink">
<g id="graph0" class="graph" transform="scale(1 1) rotate(0) translate(4 1156.895)">
<title>%3</title>
<polygon fill="#ffffff" stroke="transparent" points="-4,4 -4,-1156.895 736.4971,-1156.895 736.4971,4 -4,4"/>
<!-- Root -->
<g id="node1" class="node">
<title>Root</title>
<ellipse fill="none" stroke="#000000" cx="32.4971" cy="-525.895" rx="32.4942" ry="18"/>
<text text-anchor="middle" x="32.4971" y="-522.195" font-family="Times,serif" font-size="14.00" fill="#000000">Root</text>
</g>
<!-- f_retf -->
<g id="node2" class="node">
<title>f_retf</title>
<ellipse fill="none" stroke="#000000" cx="64.4971" cy="-438.895" rx="27" ry="18"/>
<text text-anchor="middle" x="64.4971" y="-435.195" font-family="Times,serif" font-size="14.00" fill="#000000">I</text>
</g>
<!-- Root&#45;&gt;f_retf -->
<g id="edge1" class="edge">
<title>Root&#45;&gt;f_retf</title>
<path fill="none" stroke="#ff0000" stroke-width="2" d="M37.1021,-507.7313C39.7804,-497.8908 43.4269,-485.591 47.4971,-474.895 48.6771,-471.7943 50.0122,-468.5907 51.4028,-465.4318"/>
<polygon fill="#ff0000" stroke="#ff0000" stroke-width="2" points="54.6335,-466.7838 55.6415,-456.237 48.2765,-463.8532 54.6335,-466.7838"/>
<text text-anchor="middle" x="64.9971" y="-478.695" font-family="Times,serif" font-size="14.00" fill="#000000">0&#45;&gt;1</text>
</g>
<!-- c1a -->
<g id="node3" class="node">
<title>c1a</title>
<ellipse fill="none" stroke="#000000" cx="694.4971" cy="-1134.895" rx="27.8951" ry="18"/>
<text text-anchor="middle" x="694.4971" y="-1131.195" font-family="Times,serif" font-size="14.00" fill="#000000">Cut</text>
</g>
<!-- fp1 -->
<g id="node4" class="node">
<title>fp1</title>
<ellipse fill="none" stroke="#000000" cx="658.4971" cy="-1047.895" rx="27" ry="18"/>
<text text-anchor="middle" x="658.4971" y="-1044.195" font-family="Times,serif" font-size="14.00" fill="#000000">!p</text>
</g>
<!-- c1a&#45;&gt;fp1 -->
<g id="edge2" class="edge">
<title>c1a&#45;&gt;fp1</title>
<path fill="none" stroke="#ff0000" d="M687.212,-1117.2893C682.186,-1105.1433 675.4078,-1088.7625 669.699,-1074.9662"/>
<polygon fill="#ff0000" stroke="#ff0000" points="672.8291,-1073.3765 665.7714,-1065.4746 666.3609,-1076.053 672.8291,-1073.3765"/>
<text text-anchor="middle" x="683.4971" y="-1087.695" font-family="Times,serif" font-size="14.00" fill="#000000">0</text>
</g>
<!-- d2a -->
<g id="node5" class="node">
<title>d2a</title>
<ellipse fill="none" stroke="#000000" cx="664.4971" cy="-699.895" rx="29.795" ry="18"/>
<text text-anchor="middle" x="664.4971" y="-696.195" font-family="Times,serif" font-size="14.00" fill="#000000">Dup</text>
</g>
<!-- c1a&#45;&gt;d2a -->
<g id="edge3" class="edge">
<title>c1a&#45;&gt;d2a</title>
<path fill="none" stroke="#0000ff" d="M703.5106,-1117.7551C711.6959,-1100.5746 722.4971,-1073.1238 722.4971,-1047.895 722.4971,-1047.895 722.4971,-1047.895 722.4971,-786.895 722.4971,-761.6227 705.344,-738.1081 689.6943,-721.9135"/>
<polygon fill="#0000ff" stroke="#0000ff" points="691.8039,-719.0801 682.2142,-714.5758 686.9019,-724.0772 691.8039,-719.0801"/>
<text text-anchor="middle" x="727.4971" y="-913.695" font-family="Times,serif" font-size="14.00" fill="#000000">1</text>
</g>
<!-- f2a -->
<g id="node22" class="node">
<title>f2a</title>
<ellipse fill="none" stroke="#000000" cx="627.4971" cy="-960.895" rx="27" ry="18"/>
<text text-anchor="middle" x="627.4971" y="-957.195" font-family="Times,serif" font-size="14.00" fill="#000000">PiR</text>
</g>
<!-- fp1&#45;&gt;f2a -->
<g id="edge27" class="edge">
<title>fp1&#45;&gt;f2a</title>
<path fill="none" stroke="#ff0000" d="M652.2238,-1030.2893C647.8959,-1018.1433 642.0591,-1001.7625 637.1432,-987.9662"/>
<polygon fill="#ff0000" stroke="#ff0000" points="640.4146,-986.7197 633.7611,-978.4746 633.8207,-989.0693 640.4146,-986.7197"/>
<text text-anchor="middle" x="649.4971" y="-1000.695" font-family="Times,serif" font-size="14.00" fill="#000000">1</text>
</g>
<!-- d2b -->
<g id="node7" class="node">
<title>d2b</title>
<ellipse fill="none" stroke="#000000" cx="300.4971" cy="-525.895" rx="29.795" ry="18"/>
<text text-anchor="middle" x="300.4971" y="-522.195" font-family="Times,serif" font-size="14.00" fill="#000000">Dup</text>
</g>
<!-- d2a&#45;&gt;d2b -->
<g id="edge30" class="edge">
<title>d2a&#45;&gt;d2b</title>
<path fill="none" stroke="#000000" stroke-dasharray="5,2" d="M635.1064,-696.0907C572.4812,-687.9093 430.8121,-668.9719 421.4971,-663.895 368.6185,-635.0753 327.8663,-573.5915 310.1571,-543.3827"/>
</g>
<!-- d2c -->
<g id="node21" class="node">
<title>d2c</title>
<ellipse fill="none" stroke="#000000" cx="222.4971" cy="-438.895" rx="29.795" ry="18"/>
<text text-anchor="middle" x="222.4971" y="-435.195" font-family="Times,serif" font-size="14.00" fill="#000000">Dup</text>
</g>
<!-- d2a&#45;&gt;d2c -->
<g id="edge31" class="edge">
<title>d2a&#45;&gt;d2c</title>
<path fill="none" stroke="#000000" stroke-dasharray="5,2" d="M635.1399,-696.3519C575.4645,-689.0838 441.8203,-672.4536 396.4971,-663.895 335.8032,-652.434 314.4807,-662.6417 261.4971,-630.895 216.95,-604.2033 202.056,-592.3972 183.4971,-543.895 171.544,-512.6567 193.2581,-475.9962 208.7949,-455.3011"/>
</g>
<!-- hi_retpa -->
<g id="node23" class="node">
<title>hi_retpa</title>
<ellipse fill="none" stroke="#000000" cx="591.4971" cy="-612.895" rx="27" ry="18"/>
<text text-anchor="middle" x="591.4971" y="-609.195" font-family="Times,serif" font-size="14.00" fill="#000000">!p</text>
</g>
<!-- d2a&#45;&gt;hi_retpa -->
<g id="edge32" class="edge">
<title>d2a&#45;&gt;hi_retpa</title>
<path fill="none" stroke="#0000ff" d="M650.7664,-683.531C639.6847,-670.3241 623.9408,-651.5608 611.4644,-636.6917"/>
<polygon fill="#0000ff" stroke="#0000ff" points="614.0287,-634.3026 604.9197,-628.8918 608.6663,-638.802 614.0287,-634.3026"/>
<text text-anchor="middle" x="636.4971" y="-652.695" font-family="Times,serif" font-size="14.00" fill="#000000">1</text>
</g>
<!-- c1b2 -->
<g id="node6" class="node">
<title>c1b2</title>
<ellipse fill="none" stroke="#000000" cx="262.4971" cy="-960.895" rx="27.8951" ry="18"/>
<text text-anchor="middle" x="262.4971" y="-957.195" font-family="Times,serif" font-size="14.00" fill="#000000">Cut</text>
</g>
<!-- c1b2&#45;&gt;d2b -->
<g id="edge4" class="edge">
<title>c1b2&#45;&gt;d2b</title>
<path fill="none" stroke="#ff0000" stroke-width="2" d="M255.2935,-943.23C248.8774,-925.8816 240.4971,-898.5108 240.4971,-873.895 240.4971,-873.895 240.4971,-873.895 240.4971,-612.895 240.4971,-587.1192 258.5658,-563.4336 274.8722,-547.3064"/>
<polygon fill="#ff0000" stroke="#ff0000" stroke-width="2" points="277.2795,-549.8471 282.1691,-540.4481 272.4854,-544.7465 277.2795,-549.8471"/>
<text text-anchor="middle" x="245.4971" y="-739.695" font-family="Times,serif" font-size="14.00" fill="#000000">2</text>
</g>
<!-- xdicg2 -->
<g id="node8" class="node">
<title>xdicg2</title>
<ellipse fill="none" stroke="#000000" cx="295.4971" cy="-873.895" rx="27" ry="18"/>
<text text-anchor="middle" x="295.4971" y="-870.195" font-family="Times,serif" font-size="14.00" fill="#000000">!c</text>
</g>
<!-- c1b2&#45;&gt;xdicg2 -->
<g id="edge5" class="edge">
<title>c1b2&#45;&gt;xdicg2</title>
<path fill="none" stroke="#0000ff" stroke-width="2" d="M269.1752,-943.2893C273.7823,-931.1433 279.9957,-914.7625 285.2288,-900.9662"/>
<polygon fill="#0000ff" stroke="#0000ff" stroke-width="2" points="288.5549,-902.0659 288.829,-891.4746 282.0099,-899.5833 288.5549,-902.0659"/>
<text text-anchor="middle" x="286.4971" y="-913.695" font-family="Times,serif" font-size="14.00" fill="#000000">1</text>
</g>
<!-- d4b -->
<g id="node24" class="node">
<title>d4b</title>
<ellipse fill="none" stroke="#000000" cx="502.4971" cy="-351.9475" rx="29.795" ry="18"/>
<text text-anchor="middle" x="502.4971" y="-348.2475" font-family="Times,serif" font-size="14.00" fill="#000000">Dup</text>
</g>
<!-- d2b&#45;&gt;d4b -->
<g id="edge33" class="edge">
<title>d2b&#45;&gt;d4b</title>
<path fill="none" stroke="#ff0000" stroke-width="2" d="M317.7195,-511.0644C353.945,-479.8697 438.0585,-407.4373 479.1129,-372.0842"/>
<ellipse fill="none" stroke="#ff0000" stroke-width="2" cx="482.2872" cy="-369.3508" rx="4" ry="4"/>
</g>
<!-- d1b -->
<g id="node9" class="node">
<title>d1b</title>
<ellipse fill="none" stroke="#000000" cx="664.4971" cy="-786.895" rx="29.795" ry="18"/>
<text text-anchor="middle" x="664.4971" y="-783.195" font-family="Times,serif" font-size="14.00" fill="#000000">Dup</text>
</g>
<!-- xdicg2&#45;&gt;d1b -->
<g id="edge15" class="edge">
<title>xdicg2&#45;&gt;d1b</title>
<path fill="none" stroke="#0000ff" d="M322.5195,-873.2389C390.1716,-871.2231 565.086,-863.6031 616.4971,-837.895 628.9865,-831.6497 639.9302,-820.7441 648.2015,-810.6163"/>
<ellipse fill="none" stroke="#0000ff" cx="650.7864" cy="-807.2889" rx="4" ry="4"/>
</g>
<!-- h_di2g2 -->
<g id="node17" class="node">
<title>h_di2g2</title>
<ellipse fill="none" stroke="#000000" cx="295.4971" cy="-786.895" rx="27" ry="18"/>
<text text-anchor="middle" x="295.4971" y="-783.195" font-family="Times,serif" font-size="14.00" fill="#000000">!d</text>
</g>
<!-- xdicg2&#45;&gt;h_di2g2 -->
<g id="edge16" class="edge">
<title>xdicg2&#45;&gt;h_di2g2</title>
<path fill="none" stroke="#0000ff" stroke-width="2" d="M295.4971,-855.8686C295.4971,-844.0868 295.4971,-828.4557 295.4971,-815.0531"/>
<polygon fill="#0000ff" stroke="#0000ff" stroke-width="2" points="298.9972,-814.8984 295.4971,-804.8984 291.9972,-814.8984 298.9972,-814.8984"/>
<text text-anchor="middle" x="300.4971" y="-826.695" font-family="Times,serif" font-size="14.00" fill="#000000">1</text>
</g>
<!-- d1b&#45;&gt;d2a -->
<g id="edge22" class="edge">
<title>d1b&#45;&gt;d2a</title>
<path fill="none" stroke="#0000ff" d="M664.4971,-768.8686C664.4971,-756.5036 664.4971,-739.8986 664.4971,-726.0798"/>
<ellipse fill="none" stroke="#0000ff" cx="664.4972" cy="-721.8984" rx="4" ry="4"/>
</g>
<!-- d1c -->
<g id="node10" class="node">
<title>d1c</title>
<ellipse fill="none" stroke="#000000" cx="300.4971" cy="-612.895" rx="29.795" ry="18"/>
<text text-anchor="middle" x="300.4971" y="-609.195" font-family="Times,serif" font-size="14.00" fill="#000000">Dup</text>
</g>
<!-- d1b&#45;&gt;d1c -->
<g id="edge6" class="edge">
<title>d1b&#45;&gt;d1c</title>
<path fill="none" stroke="#000000" stroke-dasharray="5,2" d="M648.2019,-771.7712C616.4169,-743.1387 542.8161,-681.0127 469.4971,-648.895 444.6984,-638.0319 370.8539,-624.5906 329.4542,-617.6072"/>
</g>
<!-- d1d -->
<g id="node11" class="node">
<title>d1d</title>
<ellipse fill="none" stroke="#000000" cx="222.4971" cy="-525.895" rx="29.795" ry="18"/>
<text text-anchor="middle" x="222.4971" y="-522.195" font-family="Times,serif" font-size="14.00" fill="#000000">Dup</text>
</g>
<!-- d1b&#45;&gt;d1d -->
<g id="edge7" class="edge">
<title>d1b&#45;&gt;d1d</title>
<path fill="none" stroke="#000000" stroke-dasharray="5,2" d="M641.3463,-775.1262C636.2173,-772.8265 630.7447,-770.6022 625.4971,-768.895 618.602,-766.6519 375.9369,-721.2273 369.4971,-717.895 348.835,-707.2034 349.3802,-696.7756 331.4971,-681.895 280.7664,-639.6819 247.6749,-639.4015 226.4971,-576.895 222.9632,-566.4646 221.9143,-554.173 221.7721,-544.2705"/>
</g>
<!-- d1c&#45;&gt;d2b -->
<g id="edge23" class="edge">
<title>d1c&#45;&gt;d2b</title>
<path fill="none" stroke="#ff0000" d="M300.4971,-594.8686C300.4971,-582.5036 300.4971,-565.8986 300.4971,-552.0798"/>
<ellipse fill="none" stroke="#ff0000" cx="300.4972" cy="-547.8984" rx="4" ry="4"/>
</g>
<!-- d1d&#45;&gt;d2c -->
<g id="edge24" class="edge">
<title>d1d&#45;&gt;d2c</title>
<path fill="none" stroke="#ff0000" d="M222.4971,-507.8686C222.4971,-495.5036 222.4971,-478.8986 222.4971,-465.0798"/>
<ellipse fill="none" stroke="#ff0000" cx="222.4972" cy="-460.8984" rx="4" ry="4"/>
</g>
<!-- xdicg1 -->
<g id="node12" class="node">
<title>xdicg1</title>
<ellipse fill="none" stroke="#000000" cx="627.4971" cy="-873.895" rx="27" ry="18"/>
<text text-anchor="middle" x="627.4971" y="-870.195" font-family="Times,serif" font-size="14.00" fill="#000000">!c</text>
</g>
<!-- xdicg1&#45;&gt;d1b -->
<g id="edge8" class="edge">
<title>xdicg1&#45;&gt;d1b</title>
<path fill="none" stroke="#0000ff" d="M636.0369,-856.4249C638.8197,-850.5727 641.8677,-843.9872 644.4971,-837.895 647.836,-830.159 651.2593,-821.6694 654.3085,-813.8743"/>
<polygon fill="#0000ff" stroke="#0000ff" points="657.5985,-815.0704 657.9365,-804.481 651.0686,-812.5484 657.5985,-815.0704"/>
</g>
<!-- h_di2g1 -->
<g id="node13" class="node">
<title>h_di2g1</title>
<ellipse fill="none" stroke="#000000" cx="589.4971" cy="-786.895" rx="27" ry="18"/>
<text text-anchor="middle" x="589.4971" y="-783.195" font-family="Times,serif" font-size="14.00" fill="#000000">!d</text>
</g>
<!-- xdicg1&#45;&gt;h_di2g1 -->
<g id="edge9" class="edge">
<title>xdicg1&#45;&gt;h_di2g1</title>
<path fill="none" stroke="#0000ff" d="M619.8072,-856.2893C614.4672,-844.0633 607.253,-827.5467 601.2025,-813.6942"/>
<polygon fill="#0000ff" stroke="#0000ff" points="604.256,-811.9407 597.0459,-804.1777 597.8412,-814.7426 604.256,-811.9407"/>
<text text-anchor="middle" x="615.4971" y="-826.695" font-family="Times,serif" font-size="14.00" fill="#000000">1</text>
</g>
<!-- hbg1 -->
<g id="node14" class="node">
<title>hbg1</title>
<ellipse fill="none" stroke="#000000" cx="405.4971" cy="-699.895" rx="27" ry="18"/>
<text text-anchor="middle" x="405.4971" y="-696.195" font-family="Times,serif" font-size="14.00" fill="#000000">PiL</text>
</g>
<!-- h_di2g1&#45;&gt;hbg1 -->
<g id="edge10" class="edge">
<title>h_di2g1&#45;&gt;hbg1</title>
<path fill="none" stroke="#0000ff" d="M567.0918,-776.6809C538.024,-763.3765 485.7882,-739.2875 441.4971,-717.895 439.751,-717.0517 437.9605,-716.1797 436.1556,-715.2951"/>
<polygon fill="#0000ff" stroke="#0000ff" points="437.6671,-712.138 427.1517,-710.8424 434.564,-718.4127 437.6671,-712.138"/>
<text text-anchor="middle" x="514.4971" y="-739.695" font-family="Times,serif" font-size="14.00" fill="#000000">2</text>
</g>
<!-- hbg1&#45;&gt;d1c -->
<g id="edge11" class="edge">
<title>hbg1&#45;&gt;d1c</title>
<path fill="none" stroke="#ff0000" d="M383.4806,-689.159C371.35,-682.706 356.3871,-673.8298 344.4971,-663.895 335.2907,-656.2025 326.3966,-646.4847 319.0432,-637.6004"/>
<polygon fill="#ff0000" stroke="#ff0000" points="321.7431,-635.3726 312.7585,-629.7577 316.2806,-639.75 321.7431,-635.3726"/>
</g>
<!-- x2i_o2g1 -->
<g id="node15" class="node">
<title>x2i_o2g1</title>
<ellipse fill="none" stroke="#000000" cx="451.4971" cy="-612.895" rx="27" ry="18"/>
<text text-anchor="middle" x="451.4971" y="-609.195" font-family="Times,serif" font-size="14.00" fill="#000000">PiL</text>
</g>
<!-- hbg1&#45;&gt;x2i_o2g1 -->
<g id="edge12" class="edge">
<title>hbg1&#45;&gt;x2i_o2g1</title>
<path fill="none" stroke="#0000ff" d="M414.5852,-682.7066C421.1376,-670.3142 430.1028,-653.3581 437.557,-639.2601"/>
<polygon fill="#0000ff" stroke="#0000ff" points="440.8477,-640.5241 442.4279,-630.0477 434.6595,-637.2521 440.8477,-640.5241"/>
<text text-anchor="middle" x="447.9971" y="-652.695" font-family="Times,serif" font-size="14.00" fill="#000000">2&#45;&gt;1</text>
</g>
<!-- x2i_o2g1&#45;&gt;d1d -->
<g id="edge13" class="edge">
<title>x2i_o2g1&#45;&gt;d1d</title>
<path fill="none" stroke="#ff0000" d="M427.2544,-604.8222C390.8954,-592.5508 320.2382,-568.0668 261.4971,-543.895 259.6352,-543.1288 257.7321,-542.324 255.8174,-541.4973"/>
<polygon fill="#ff0000" stroke="#ff0000" points="256.8419,-538.1225 246.2824,-537.2579 253.998,-544.5188 256.8419,-538.1225"/>
</g>
<!-- f_retg1 -->
<g id="node16" class="node">
<title>f_retg1</title>
<ellipse fill="none" stroke="#000000" cx="458.4971" cy="-525.895" rx="27" ry="18"/>
<text text-anchor="middle" x="458.4971" y="-522.195" font-family="Times,serif" font-size="14.00" fill="#000000">I</text>
</g>
<!-- x2i_o2g1&#45;&gt;f_retg1 -->
<g id="edge14" class="edge">
<title>x2i_o2g1&#45;&gt;f_retg1</title>
<path fill="none" stroke="#0000ff" d="M452.9475,-594.8686C453.8955,-583.0868 455.1532,-567.4557 456.2315,-554.0531"/>
<polygon fill="#0000ff" stroke="#0000ff" points="459.7352,-554.1469 457.0486,-543.8984 452.7577,-553.5855 459.7352,-554.1469"/>
</g>
<!-- hbg2 -->
<g id="node18" class="node">
<title>hbg2</title>
<ellipse fill="none" stroke="#000000" cx="295.4971" cy="-699.895" rx="27" ry="18"/>
<text text-anchor="middle" x="295.4971" y="-696.195" font-family="Times,serif" font-size="14.00" fill="#000000">PiL</text>
</g>
<!-- h_di2g2&#45;&gt;hbg2 -->
<g id="edge17" class="edge">
<title>h_di2g2&#45;&gt;hbg2</title>
<path fill="none" stroke="#0000ff" stroke-width="2" d="M295.4971,-768.8686C295.4971,-757.0868 295.4971,-741.4557 295.4971,-728.0531"/>
<polygon fill="#0000ff" stroke="#0000ff" stroke-width="2" points="298.9972,-727.8984 295.4971,-717.8984 291.9972,-727.8984 298.9972,-727.8984"/>
<text text-anchor="middle" x="300.4971" y="-739.695" font-family="Times,serif" font-size="14.00" fill="#000000">2</text>
</g>
<!-- hbg2&#45;&gt;d1c -->
<g id="edge18" class="edge">
<title>hbg2&#45;&gt;d1c</title>
<path fill="none" stroke="#ff0000" d="M296.5331,-681.8686C297.2438,-669.5036 298.1981,-652.8986 298.9922,-639.0798"/>
<ellipse fill="none" stroke="#ff0000" cx="299.2329" cy="-634.8918" rx="4" ry="4"/>
</g>
<!-- x2i_o2g2 -->
<g id="node19" class="node">
<title>x2i_o2g2</title>
<ellipse fill="none" stroke="#000000" cx="109.4971" cy="-612.895" rx="27" ry="18"/>
<text text-anchor="middle" x="109.4971" y="-609.195" font-family="Times,serif" font-size="14.00" fill="#000000">PiL</text>
</g>
<!-- hbg2&#45;&gt;x2i_o2g2 -->
<g id="edge19" class="edge">
<title>hbg2&#45;&gt;x2i_o2g2</title>
<path fill="none" stroke="#0000ff" stroke-width="2" d="M268.4736,-698.1287C223.9203,-694.6352 137.9333,-685.25 117.4971,-663.895 111.7459,-657.8853 109.1134,-649.5297 108.0941,-641.3191"/>
<polygon fill="#0000ff" stroke="#0000ff" stroke-width="2" points="111.5812,-640.9831 107.5525,-631.1841 104.5912,-641.3567 111.5812,-640.9831"/>
<text text-anchor="middle" x="134.9971" y="-652.695" font-family="Times,serif" font-size="14.00" fill="#000000">2&#45;&gt;1</text>
</g>
<!-- x2i_o2g2&#45;&gt;d1d -->
<g id="edge20" class="edge">
<title>x2i_o2g2&#45;&gt;d1d</title>
<path fill="none" stroke="#ff0000" d="M127.4023,-599.1096C146.2704,-584.5829 176.1382,-561.5873 197.3622,-545.2467"/>
<ellipse fill="none" stroke="#ff0000" cx="200.755" cy="-542.6345" rx="4" ry="4"/>
</g>
<!-- x2i_o2f -->
<g id="node20" class="node">
<title>x2i_o2f</title>
<ellipse fill="none" stroke="#000000" cx="109.4971" cy="-525.895" rx="27" ry="18"/>
<text text-anchor="middle" x="109.4971" y="-522.195" font-family="Times,serif" font-size="14.00" fill="#000000">PiL</text>
</g>
<!-- x2i_o2g2&#45;&gt;x2i_o2f -->
<g id="edge21" class="edge">
<title>x2i_o2g2&#45;&gt;x2i_o2f</title>
<path fill="none" stroke="#0000ff" stroke-width="2" d="M109.4971,-594.8686C109.4971,-583.0868 109.4971,-567.4557 109.4971,-554.0531"/>
<polygon fill="#0000ff" stroke="#0000ff" stroke-width="2" points="112.9972,-553.8984 109.4971,-543.8984 105.9972,-553.8984 112.9972,-553.8984"/>
</g>
<!-- x2i_o2f&#45;&gt;f_retf -->
<g id="edge29" class="edge">
<title>x2i_o2f&#45;&gt;f_retf</title>
<path fill="none" stroke="#0000ff" stroke-width="2" d="M100.6066,-508.7066C94.1967,-496.3142 85.4263,-479.3581 78.1342,-465.2601"/>
<polygon fill="#0000ff" stroke="#0000ff" stroke-width="2" points="81.0722,-463.3219 73.3692,-456.0477 74.8547,-466.5379 81.0722,-463.3219"/>
</g>
<!-- x2i_o2f&#45;&gt;d2c -->
<g id="edge28" class="edge">
<title>x2i_o2f&#45;&gt;d2c</title>
<path fill="none" stroke="#ff0000" d="M127.4023,-512.1096C145.862,-497.8973 174.8503,-475.5788 195.9721,-459.317"/>
<polygon fill="#ff0000" stroke="#ff0000" points="198.136,-462.0681 203.9245,-453.1943 193.8657,-456.5216 198.136,-462.0681"/>
</g>
<!-- x1_o2 -->
<g id="node25" class="node">
<title>x1_o2</title>
<ellipse fill="none" stroke="#000000" cx="295.4971" cy="-351.9475" rx="27" ry="18"/>
<text text-anchor="middle" x="295.4971" y="-348.2475" font-family="Times,serif" font-size="14.00" fill="#000000">I</text>
</g>
<!-- d2c&#45;&gt;x1_o2 -->
<g id="edge34" class="edge">
<title>d2c&#45;&gt;x1_o2</title>
<path fill="none" stroke="#ff0000" d="M236.2279,-422.5409C247.3095,-409.3419 263.0534,-390.5899 275.5298,-375.7298"/>
<polygon fill="#ff0000" stroke="#ff0000" points="278.325,-377.8438 282.0746,-367.9346 272.964,-373.3427 278.325,-377.8438"/>
</g>
<!-- f2a&#45;&gt;xdicg1 -->
<g id="edge26" class="edge">
<title>f2a&#45;&gt;xdicg1</title>
<path fill="none" stroke="#0000ff" d="M627.4971,-942.8686C627.4971,-931.0868 627.4971,-915.4557 627.4971,-902.0531"/>
<polygon fill="#0000ff" stroke="#0000ff" points="630.9972,-901.8984 627.4971,-891.8984 623.9972,-901.8984 630.9972,-901.8984"/>
</g>
<!-- f2a&#45;&gt;f_retg1 -->
<g id="edge25" class="edge">
<title>f2a&#45;&gt;f_retg1</title>
<path fill="none" stroke="#ff0000" d="M604.5083,-951.4514C576.9684,-938.4284 534.4971,-912.1442 534.4971,-873.895 534.4971,-873.895 534.4971,-873.895 534.4971,-612.895 534.4971,-583.2816 509.2136,-558.8862 487.8127,-543.5413"/>
<polygon fill="#ff0000" stroke="#ff0000" points="489.5009,-540.4565 479.2645,-537.7241 485.5627,-546.2437 489.5009,-540.4565"/>
</g>
<!-- hi_ret1 -->
<g id="node26" class="node">
<title>hi_ret1</title>
<ellipse fill="none" stroke="#000000" cx="577.4971" cy="-351.9475" rx="27" ry="18"/>
<text text-anchor="middle" x="577.4971" y="-348.2475" font-family="Times,serif" font-size="14.00" fill="#000000">I</text>
</g>
<!-- hi_retpa&#45;&gt;hi_ret1 -->
<g id="edge41" class="edge">
<title>hi_retpa&#45;&gt;hi_ret1</title>
<path fill="none" stroke="#ff0000" d="M590.5127,-594.5457C588.1078,-549.7216 581.9203,-434.3916 579.0288,-380.4975"/>
<polygon fill="#ff0000" stroke="#ff0000" points="582.5113,-380.0747 578.4805,-370.2766 575.5213,-380.4497 582.5113,-380.0747"/>
<text text-anchor="middle" x="589.4971" y="-478.695" font-family="Times,serif" font-size="14.00" fill="#000000">2</text>
</g>
<!-- h_di1 -->
<g id="node29" class="node">
<title>h_di1</title>
<ellipse fill="none" stroke="#000000" cx="537.4971" cy="-525.895" rx="27" ry="18"/>
<text text-anchor="middle" x="537.4971" y="-522.195" font-family="Times,serif" font-size="14.00" fill="#000000">!d</text>
</g>
<!-- hi_retpa&#45;&gt;h_di1 -->
<g id="edge42" class="edge">
<title>hi_retpa&#45;&gt;h_di1</title>
<path fill="none" stroke="#0000ff" d="M580.6541,-596.0949C576.7877,-590.0593 572.4201,-583.1893 568.4971,-576.895 563.4002,-568.7171 557.9153,-559.7503 552.997,-551.6471"/>
<polygon fill="#0000ff" stroke="#0000ff" points="555.9077,-549.6965 547.7358,-542.9533 549.9189,-553.3208 555.9077,-549.6965"/>
<text text-anchor="middle" x="573.4971" y="-565.695" font-family="Times,serif" font-size="14.00" fill="#000000">1</text>
</g>
<!-- h_app -->
<g id="node27" class="node">
<title>h_app</title>
<ellipse fill="none" stroke="#000000" cx="562.4971" cy="-251" rx="27" ry="18"/>
<text text-anchor="middle" x="562.4971" y="-247.3" font-family="Times,serif" font-size="14.00" fill="#000000">I</text>
</g>
<!-- d4b&#45;&gt;h_app -->
<g id="edge35" class="edge">
<title>d4b&#45;&gt;h_app</title>
<path fill="none" stroke="#ff0000" stroke-width="2" d="M512.6753,-334.8231C522.1277,-318.9198 536.3323,-295.0213 547.1587,-276.8062"/>
<polygon fill="#ff0000" stroke="#ff0000" stroke-width="2" points="550.3686,-278.256 552.4692,-267.8715 544.3512,-274.6794 550.3686,-278.256"/>
</g>
<!-- ha -->
<g id="node28" class="node">
<title>ha</title>
<ellipse fill="none" stroke="#000000" cx="537.4971" cy="-438.895" rx="27" ry="18"/>
<text text-anchor="middle" x="537.4971" y="-435.195" font-family="Times,serif" font-size="14.00" fill="#000000">PiL</text>
</g>
<!-- ha&#45;&gt;d4b -->
<g id="edge36" class="edge">
<title>ha&#45;&gt;d4b</title>
<path fill="none" stroke="#ff0000" d="M530.4143,-421.2999C525.528,-409.1612 518.938,-392.7903 513.3878,-379.0023"/>
<polygon fill="#ff0000" stroke="#ff0000" points="516.5505,-377.4861 509.5694,-369.5165 510.0568,-380.1001 516.5505,-377.4861"/>
</g>
<!-- ha&#45;&gt;hi_ret1 -->
<g id="edge37" class="edge">
<title>ha&#45;&gt;hi_ret1</title>
<path fill="none" stroke="#0000ff" d="M545.5917,-421.2999C551.2674,-408.9627 558.9543,-392.2538 565.3608,-378.3281"/>
<polygon fill="#0000ff" stroke="#0000ff" points="568.5513,-379.7673 569.5511,-369.2198 562.1919,-376.8417 568.5513,-379.7673"/>
</g>
<!-- h_di1&#45;&gt;ha -->
<g id="edge38" class="edge">
<title>h_di1&#45;&gt;ha</title>
<path fill="none" stroke="#0000ff" d="M537.4971,-507.8686C537.4971,-496.0868 537.4971,-480.4557 537.4971,-467.0531"/>
<polygon fill="#0000ff" stroke="#0000ff" points="540.9972,-466.8984 537.4971,-456.8984 533.9972,-466.8984 540.9972,-466.8984"/>
<text text-anchor="middle" x="542.4971" y="-478.695" font-family="Times,serif" font-size="14.00" fill="#000000">2</text>
</g>
<!-- c2a -->
<g id="node30" class="node">
<title>c2a</title>
<ellipse fill="none" stroke="#000000" cx="478.4971" cy="-699.895" rx="27.8951" ry="18"/>
<text text-anchor="middle" x="478.4971" y="-696.195" font-family="Times,serif" font-size="14.00" fill="#000000">Cut</text>
</g>
<!-- c2a&#45;&gt;hi_retpa -->
<g id="edge39" class="edge">
<title>c2a&#45;&gt;hi_retpa</title>
<path fill="none" stroke="#ff0000" d="M496.6525,-685.917C515.2957,-671.5634 544.4852,-649.0901 565.5595,-632.8647"/>
<polygon fill="#ff0000" stroke="#ff0000" points="567.9709,-635.4254 573.7593,-626.5516 563.7005,-629.8788 567.9709,-635.4254"/>
<text text-anchor="middle" x="546.4971" y="-652.695" font-family="Times,serif" font-size="14.00" fill="#000000">1</text>
</g>
<!-- c2a&#45;&gt;x1_o2 -->
<g id="edge40" class="edge">
<title>c2a&#45;&gt;x1_o2</title>
<path fill="none" stroke="#0000ff" d="M456.3143,-688.7814C451.462,-686.4408 446.331,-684.0343 441.4971,-681.895 397.6297,-662.4815 358.4971,-660.8662 358.4971,-612.895 358.4971,-612.895 358.4971,-612.895 358.4971,-482.395 358.4971,-441.8996 333.5743,-400.7398 315.08,-375.7713"/>
<polygon fill="#0000ff" stroke="#0000ff" points="317.7153,-373.4559 308.8578,-367.6425 312.1568,-377.7106 317.7153,-373.4559"/>
</g>
<!-- c3 -->
<g id="node31" class="node">
<title>c3</title>
<ellipse fill="none" stroke="#000000" cx="654.4971" cy="-351.9475" rx="27.9017" ry="27.9017"/>
<ellipse fill="none" stroke="#000000" cx="654.4971" cy="-351.9475" rx="31.8951" ry="31.8951"/>
<text text-anchor="middle" x="654.4971" y="-348.2475" font-family="Times,serif" font-size="14.00" fill="#000000">Cut</text>
</g>
<!-- c3&#45;&gt;h_app -->
<g id="edge44" class="edge">
<title>c3&#45;&gt;h_app</title>
<path fill="none" stroke="#0000ff" stroke-width="2" d="M632.9272,-328.2798C618.048,-311.9536 598.3648,-290.3561 583.5899,-274.1441"/>
<polygon fill="#0000ff" stroke="#0000ff" stroke-width="2" points="586.0964,-271.6984 576.7735,-266.6649 580.9226,-276.4135 586.0964,-271.6984"/>
</g>
<!-- i -->
<g id="node32" class="node">
<title>i</title>
<ellipse fill="none" stroke="#000000" cx="654.4971" cy="-251" rx="27" ry="18"/>
<text text-anchor="middle" x="654.4971" y="-247.3" font-family="Times,serif" font-size="14.00" fill="#000000">!p</text>
</g>
<!-- c3&#45;&gt;i -->
<g id="edge43" class="edge">
<title>c3&#45;&gt;i</title>
<path fill="none" stroke="#ff0000" d="M654.4971,-319.7295C654.4971,-306.7874 654.4971,-291.9944 654.4971,-279.4561"/>
<polygon fill="#ff0000" stroke="#ff0000" points="657.9972,-279.1211 654.4971,-269.1211 650.9972,-279.1212 657.9972,-279.1211"/>
<text text-anchor="middle" x="659.4971" y="-290.8" font-family="Times,serif" font-size="14.00" fill="#000000">2</text>
</g>
<!-- i_i -->
<g id="node33" class="node">
<title>i_i</title>
<ellipse fill="none" stroke="#000000" cx="654.4971" cy="-164" rx="27" ry="18"/>
<text text-anchor="middle" x="654.4971" y="-160.3" font-family="Times,serif" font-size="14.00" fill="#000000">PiR</text>
</g>
<!-- i&#45;&gt;i_i -->
<g id="edge45" class="edge">
<title>i&#45;&gt;i_i</title>
<path fill="none" stroke="#ff0000" d="M654.4971,-232.9735C654.4971,-221.1918 654.4971,-205.5607 654.4971,-192.1581"/>
<polygon fill="#ff0000" stroke="#ff0000" points="657.9972,-192.0033 654.4971,-182.0034 650.9972,-192.0034 657.9972,-192.0033"/>
<text text-anchor="middle" x="659.4971" y="-203.8" font-family="Times,serif" font-size="14.00" fill="#000000">3</text>
</g>
<!-- il -->
<g id="node34" class="node">
<title>il</title>
<ellipse fill="none" stroke="#000000" cx="697.4971" cy="-91" rx="27" ry="18"/>
<text text-anchor="middle" x="697.4971" y="-87.3" font-family="Times,serif" font-size="14.00" fill="#000000">!d</text>
</g>
<!-- i_i&#45;&gt;il -->
<g id="edge46" class="edge">
<title>i_i&#45;&gt;il</title>
<path fill="none" stroke="#0000ff" d="M664.4703,-147.0688C669.7889,-138.0396 676.4436,-126.742 682.3832,-116.6585"/>
<polygon fill="#0000ff" stroke="#0000ff" points="685.5184,-118.232 687.5781,-107.8393 679.4869,-114.6793 685.5184,-118.232"/>
</g>
<!-- i_ret -->
<g id="node35" class="node">
<title>i_ret</title>
<ellipse fill="none" stroke="#000000" cx="654.4971" cy="-18" rx="27" ry="18"/>
<text text-anchor="middle" x="654.4971" y="-14.3" font-family="Times,serif" font-size="14.00" fill="#000000">I</text>
</g>
<!-- i_i&#45;&gt;i_ret -->
<g id="edge47" class="edge">
<title>i_i&#45;&gt;i_ret</title>
<path fill="none" stroke="#ff0000" d="M654.4971,-145.8042C654.4971,-120.8868 654.4971,-75.8938 654.4971,-46.4877"/>
<polygon fill="#ff0000" stroke="#ff0000" points="657.9972,-46.4251 654.4971,-36.4251 650.9972,-46.4251 657.9972,-46.4251"/>
</g>
<!-- il&#45;&gt;i_ret -->
<g id="edge48" class="edge">
<title>il&#45;&gt;i_ret</title>
<path fill="none" stroke="#0000ff" d="M687.524,-74.0688C682.2054,-65.0396 675.5506,-53.742 669.611,-43.6585"/>
<polygon fill="#0000ff" stroke="#0000ff" points="672.5073,-41.6793 664.4162,-34.8393 666.4759,-45.232 672.5073,-41.6793"/>
</g>
</g>
</svg>
