<?xml version="1.0" encoding="UTF-8" standalone="no"?>
<!DOCTYPE svg PUBLIC "-//W3C//DTD SVG 1.1//EN"
 "http://www.w3.org/Graphics/SVG/1.1/DTD/svg11.dtd">
<!-- Generated by graphviz version 2.40.1 (20161225.0304)
 -->
<!-- Title: %3 Pages: 1 -->
<svg width="437pt" height="900pt"
 viewBox="0.00 0.00 437.50 899.90" xmlns="http://www.w3.org/2000/svg" xmlns:xlink="http://www.w3.org/1999/xlink">
<g id="graph0" class="graph" transform="scale(1 1) rotate(0) translate(4 895.895)">
<title>%3</title>
<polygon fill="#ffffff" stroke="transparent" points="-4,4 -4,-895.895 433.4971,-895.895 433.4971,4 -4,4"/>
<!-- Root -->
<g id="node1" class="node">
<title>Root</title>
<ellipse fill="none" stroke="#000000" cx="32.4971" cy="-672" rx="32.4942" ry="18"/>
<text text-anchor="middle" x="32.4971" y="-668.3" font-family="Times,serif" font-size="14.00" fill="#000000">Root</text>
</g>
<!-- ret -->
<g id="node2" class="node">
<title>ret</title>
<ellipse fill="none" stroke="#000000" cx="34.4971" cy="-599" rx="27" ry="18"/>
<text text-anchor="middle" x="34.4971" y="-595.3" font-family="Times,serif" font-size="14.00" fill="#000000">I</text>
</g>
<!-- Root&#45;&gt;ret -->
<g id="edge1" class="edge">
<title>Root&#45;&gt;ret</title>
<path fill="none" stroke="#ff0000" stroke-width="2" d="M32.9915,-653.9551C33.2127,-645.8828 33.4786,-636.1764 33.725,-627.1817"/>
<polygon fill="#ff0000" stroke="#ff0000" stroke-width="2" points="37.2262,-627.1825 34.0015,-617.0904 30.2288,-626.9907 37.2262,-627.1825"/>
</g>
<!-- c1a -->
<g id="node3" class="node">
<title>c1a</title>
<ellipse fill="none" stroke="#000000" cx="225.4971" cy="-859.9475" rx="27.8951" ry="18"/>
<text text-anchor="middle" x="225.4971" y="-856.2475" font-family="Times,serif" font-size="14.00" fill="#000000">Cut</text>
</g>
<!-- fp1 -->
<g id="node4" class="node">
<title>fp1</title>
<ellipse fill="none" stroke="#000000" cx="306.4971" cy="-759" rx="27" ry="18"/>
<text text-anchor="middle" x="306.4971" y="-755.3" font-family="Times,serif" font-size="14.00" fill="#000000">!p</text>
</g>
<!-- c1a&#45;&gt;fp1 -->
<g id="edge2" class="edge">
<title>c1a&#45;&gt;fp1</title>
<path fill="none" stroke="#ff0000" d="M238.5112,-843.7286C251.6782,-827.319 272.184,-801.7633 287.2339,-783.0071"/>
<polygon fill="#ff0000" stroke="#ff0000" points="289.9868,-785.1687 293.5154,-775.1787 284.5271,-780.7879 289.9868,-785.1687"/>
<text text-anchor="middle" x="280.4971" y="-798.8" font-family="Times,serif" font-size="14.00" fill="#000000">0</text>
</g>
<!-- x1_o1 -->
<g id="node5" class="node">
<title>x1_o1</title>
<ellipse fill="none" stroke="#000000" cx="122.4971" cy="-599" rx="27" ry="18"/>
<text text-anchor="middle" x="122.4971" y="-595.3" font-family="Times,serif" font-size="14.00" fill="#000000">I</text>
</g>
<!-- c1a&#45;&gt;x1_o1 -->
<g id="edge3" class="edge">
<title>c1a&#45;&gt;x1_o1</title>
<path fill="none" stroke="#0000ff" d="M224.9742,-841.9249C223.5735,-812.7297 218.4238,-753.7516 199.4971,-708 186.0487,-675.491 161.4641,-643.199 143.6853,-622.3037"/>
<polygon fill="#0000ff" stroke="#0000ff" points="146.2058,-619.868 137.007,-614.6111 140.9198,-624.457 146.2058,-619.868"/>
</g>
<!-- d1 -->
<g id="node9" class="node">
<title>d1</title>
<ellipse fill="none" stroke="#000000" cx="345.4971" cy="-672" rx="29.795" ry="18"/>
<text text-anchor="middle" x="345.4971" y="-668.3" font-family="Times,serif" font-size="14.00" fill="#000000">Dup</text>
</g>
<!-- fp1&#45;&gt;d1 -->
<g id="edge9" class="edge">
<title>fp1&#45;&gt;d1</title>
<path fill="none" stroke="#ff0000" d="M314.3893,-741.3943C320.0984,-728.6586 327.8946,-711.2671 334.2539,-697.081"/>
<ellipse fill="none" stroke="#ff0000" cx="335.9804" cy="-693.2296" rx="4" ry="4"/>
<text text-anchor="middle" x="332.4971" y="-711.8" font-family="Times,serif" font-size="14.00" fill="#000000">1</text>
</g>
<!-- c1b -->
<g id="node6" class="node">
<title>c1b</title>
<ellipse fill="none" stroke="#000000" cx="134.4971" cy="-859.9475" rx="27.9017" ry="27.9017"/>
<ellipse fill="none" stroke="#000000" cx="134.4971" cy="-859.9475" rx="31.8951" ry="31.8951"/>
<text text-anchor="middle" x="134.4971" y="-856.2475" font-family="Times,serif" font-size="14.00" fill="#000000">Cut</text>
</g>
<!-- fp2 -->
<g id="node7" class="node">
<title>fp2</title>
<ellipse fill="none" stroke="#000000" cx="158.4971" cy="-759" rx="27" ry="18"/>
<text text-anchor="middle" x="158.4971" y="-755.3" font-family="Times,serif" font-size="14.00" fill="#000000">!p</text>
</g>
<!-- c1b&#45;&gt;fp2 -->
<g id="edge4" class="edge">
<title>c1b&#45;&gt;fp2</title>
<path fill="none" stroke="#ff0000" d="M141.8937,-828.8362C145.0889,-815.3971 148.7972,-799.7994 151.8977,-786.7581"/>
<polygon fill="#ff0000" stroke="#ff0000" points="155.3246,-787.4758 154.2325,-776.9374 148.5144,-785.8567 155.3246,-787.4758"/>
<text text-anchor="middle" x="153.4971" y="-798.8" font-family="Times,serif" font-size="14.00" fill="#000000">0</text>
</g>
<!-- x2_o1 -->
<g id="node8" class="node">
<title>x2_o1</title>
<ellipse fill="none" stroke="#000000" cx="86.4971" cy="-759" rx="27" ry="18"/>
<text text-anchor="middle" x="86.4971" y="-755.3" font-family="Times,serif" font-size="14.00" fill="#000000">!d</text>
</g>
<!-- c1b&#45;&gt;x2_o1 -->
<g id="edge5" class="edge">
<title>c1b&#45;&gt;x2_o1</title>
<path fill="none" stroke="#0000ff" stroke-width="2" d="M120.7422,-831.02C113.8996,-816.6295 105.6892,-799.3623 99.0231,-785.3431"/>
<polygon fill="#0000ff" stroke="#0000ff" stroke-width="2" points="102.1458,-783.7597 94.6907,-776.2316 95.8241,-786.7657 102.1458,-783.7597"/>
</g>
<!-- fp2&#45;&gt;d1 -->
<g id="edge6" class="edge">
<title>fp2&#45;&gt;d1</title>
<path fill="none" stroke="#ff0000" d="M180.6828,-748.6783C213.3258,-733.4915 274.5205,-705.0212 312.4599,-687.3702"/>
<polygon fill="#ff0000" stroke="#ff0000" points="313.9826,-690.5222 321.5729,-683.1305 311.0298,-684.1754 313.9826,-690.5222"/>
<text text-anchor="middle" x="267.4971" y="-711.8" font-family="Times,serif" font-size="14.00" fill="#000000">1</text>
</g>
<!-- x2i_o1 -->
<g id="node10" class="node">
<title>x2i_o1</title>
<ellipse fill="none" stroke="#000000" cx="109.4971" cy="-672" rx="27" ry="18"/>
<text text-anchor="middle" x="109.4971" y="-668.3" font-family="Times,serif" font-size="14.00" fill="#000000">PiL</text>
</g>
<!-- x2_o1&#45;&gt;x2i_o1 -->
<g id="edge7" class="edge">
<title>x2_o1&#45;&gt;x2i_o1</title>
<path fill="none" stroke="#0000ff" stroke-width="2" d="M91.2627,-740.9735C94.4083,-729.0751 98.5917,-713.2508 102.1581,-699.7606"/>
<polygon fill="#0000ff" stroke="#0000ff" stroke-width="2" points="105.5654,-700.5658 104.7376,-690.0034 98.7979,-698.7766 105.5654,-700.5658"/>
</g>
<!-- f -->
<g id="node11" class="node">
<title>f</title>
<ellipse fill="none" stroke="#000000" cx="345.4971" cy="-599" rx="27" ry="18"/>
<text text-anchor="middle" x="345.4971" y="-595.3" font-family="Times,serif" font-size="14.00" fill="#000000">PiR</text>
</g>
<!-- d1&#45;&gt;f -->
<g id="edge8" class="edge">
<title>d1&#45;&gt;f</title>
<path fill="none" stroke="#ff0000" d="M345.4971,-653.9551C345.4971,-645.8828 345.4971,-636.1764 345.4971,-627.1817"/>
<polygon fill="#ff0000" stroke="#ff0000" points="348.9972,-627.0903 345.4971,-617.0904 341.9972,-627.0904 348.9972,-627.0903"/>
</g>
<!-- x2i_o1&#45;&gt;ret -->
<g id="edge11" class="edge">
<title>x2i_o1&#45;&gt;ret</title>
<path fill="none" stroke="#0000ff" stroke-width="2" d="M93.9571,-656.8744C83.3277,-646.5285 69.064,-632.6451 57.1714,-621.0696"/>
<polygon fill="#0000ff" stroke="#0000ff" stroke-width="2" points="59.3679,-618.3233 49.7606,-613.8565 54.4854,-623.3395 59.3679,-618.3233"/>
</g>
<!-- x2i_o1&#45;&gt;x1_o1 -->
<g id="edge10" class="edge">
<title>x2i_o1&#45;&gt;x1_o1</title>
<path fill="none" stroke="#ff0000" d="M112.7106,-653.9551C114.1481,-645.8828 115.8767,-636.1764 117.4785,-627.1817"/>
<polygon fill="#ff0000" stroke="#ff0000" points="120.968,-627.5491 119.2755,-617.0904 114.0764,-626.3218 120.968,-627.5491"/>
</g>
<!-- hi_retp -->
<g id="node12" class="node">
<title>hi_retp</title>
<ellipse fill="none" stroke="#000000" cx="354.4971" cy="-512" rx="27" ry="18"/>
<text text-anchor="middle" x="354.4971" y="-508.3" font-family="Times,serif" font-size="14.00" fill="#000000">!p</text>
</g>
<!-- f&#45;&gt;hi_retp -->
<g id="edge12" class="edge">
<title>f&#45;&gt;hi_retp</title>
<path fill="none" stroke="#0000ff" d="M347.3619,-580.9735C348.5807,-569.1918 350.1977,-553.5607 351.5842,-540.1581"/>
<polygon fill="#0000ff" stroke="#0000ff" points="355.087,-540.3105 352.6347,-530.0034 348.1242,-539.5901 355.087,-540.3105"/>
<text text-anchor="middle" x="355.4971" y="-551.8" font-family="Times,serif" font-size="14.00" fill="#000000">1</text>
</g>
<!-- f_ret -->
<g id="node13" class="node">
<title>f_ret</title>
<ellipse fill="none" stroke="#000000" cx="273.4971" cy="-512" rx="27" ry="18"/>
<text text-anchor="middle" x="273.4971" y="-508.3" font-family="Times,serif" font-size="14.00" fill="#000000">I</text>
</g>
<!-- f&#45;&gt;f_ret -->
<g id="edge13" class="edge">
<title>f&#45;&gt;f_ret</title>
<path fill="none" stroke="#ff0000" d="M335.8013,-581.7192C329.6995,-571.475 321.3276,-558.4873 312.4971,-548 308.2128,-542.9118 303.2436,-537.8307 298.3165,-533.1572"/>
<polygon fill="#ff0000" stroke="#ff0000" points="300.4552,-530.3703 290.713,-526.2063 295.7322,-535.5368 300.4552,-530.3703"/>
</g>
<!-- hi_ret -->
<g id="node22" class="node">
<title>hi_ret</title>
<ellipse fill="none" stroke="#000000" cx="402.4971" cy="-251" rx="27" ry="18"/>
<text text-anchor="middle" x="402.4971" y="-247.3" font-family="Times,serif" font-size="14.00" fill="#000000">I</text>
</g>
<!-- hi_retp&#45;&gt;hi_ret -->
<g id="edge25" class="edge">
<title>hi_retp&#45;&gt;hi_ret</title>
<path fill="none" stroke="#ff0000" d="M363.3767,-494.9154C370.0587,-481.2465 378.8356,-461.3899 383.4971,-443 397.9173,-386.1122 401.4988,-317.1598 402.3232,-279.3027"/>
<polygon fill="#ff0000" stroke="#ff0000" points="405.8269,-279.0993 402.4945,-269.0423 398.8279,-278.9824 405.8269,-279.0993"/>
<text text-anchor="middle" x="400.4971" y="-377.8" font-family="Times,serif" font-size="14.00" fill="#000000">2</text>
</g>
<!-- h_di -->
<g id="node23" class="node">
<title>h_di</title>
<ellipse fill="none" stroke="#000000" cx="347.4971" cy="-425" rx="27" ry="18"/>
<text text-anchor="middle" x="347.4971" y="-421.3" font-family="Times,serif" font-size="14.00" fill="#000000">!d</text>
</g>
<!-- hi_retp&#45;&gt;h_di -->
<g id="edge26" class="edge">
<title>hi_retp&#45;&gt;h_di</title>
<path fill="none" stroke="#0000ff" d="M353.0467,-493.9735C352.0988,-482.1918 350.8411,-466.5607 349.7627,-453.1581"/>
<polygon fill="#0000ff" stroke="#0000ff" points="353.2365,-452.6904 348.9457,-443.0034 346.259,-453.2519 353.2365,-452.6904"/>
<text text-anchor="middle" x="355.4971" y="-464.8" font-family="Times,serif" font-size="14.00" fill="#000000">1</text>
</g>
<!-- c2 -->
<g id="node14" class="node">
<title>c2</title>
<ellipse fill="none" stroke="#000000" cx="269.4971" cy="-672" rx="27.8951" ry="18"/>
<text text-anchor="middle" x="269.4971" y="-668.3" font-family="Times,serif" font-size="14.00" fill="#000000">Cut</text>
</g>
<!-- o2 -->
<g id="node15" class="node">
<title>o2</title>
<ellipse fill="none" stroke="#000000" cx="199.4971" cy="-599" rx="27" ry="18"/>
<text text-anchor="middle" x="199.4971" y="-595.3" font-family="Times,serif" font-size="14.00" fill="#000000">PiR</text>
</g>
<!-- c2&#45;&gt;o2 -->
<g id="edge14" class="edge">
<title>c2&#45;&gt;o2</title>
<path fill="none" stroke="#ff0000" d="M254.6519,-656.5186C245,-646.453 232.2461,-633.1525 221.434,-621.877"/>
<polygon fill="#ff0000" stroke="#ff0000" points="223.7684,-619.2545 214.3209,-614.4591 218.7159,-624.0994 223.7684,-619.2545"/>
</g>
<!-- o2l -->
<g id="node16" class="node">
<title>o2l</title>
<ellipse fill="none" stroke="#000000" cx="271.4971" cy="-599" rx="27" ry="18"/>
<text text-anchor="middle" x="271.4971" y="-595.3" font-family="Times,serif" font-size="14.00" fill="#000000">PiL</text>
</g>
<!-- c2&#45;&gt;o2l -->
<g id="edge15" class="edge">
<title>c2&#45;&gt;o2l</title>
<path fill="none" stroke="#0000ff" d="M269.9915,-653.9551C270.2127,-645.8828 270.4786,-636.1764 270.725,-627.1817"/>
<polygon fill="#0000ff" stroke="#0000ff" points="274.2262,-627.1825 271.0015,-617.0904 267.2288,-626.9907 274.2262,-627.1825"/>
</g>
<!-- x_o2 -->
<g id="node17" class="node">
<title>x_o2</title>
<ellipse fill="none" stroke="#000000" cx="145.4971" cy="-512" rx="27" ry="18"/>
<text text-anchor="middle" x="145.4971" y="-508.3" font-family="Times,serif" font-size="14.00" fill="#000000">!c</text>
</g>
<!-- o2&#45;&gt;x_o2 -->
<g id="edge16" class="edge">
<title>o2&#45;&gt;x_o2</title>
<path fill="none" stroke="#0000ff" d="M189.0854,-582.2255C181.1667,-569.4677 170.14,-551.7024 161.1586,-537.2325"/>
<polygon fill="#0000ff" stroke="#0000ff" points="164.1243,-535.3736 155.8769,-528.723 158.1768,-539.0652 164.1243,-535.3736"/>
</g>
<!-- ret_o2 -->
<g id="node18" class="node">
<title>ret_o2</title>
<ellipse fill="none" stroke="#000000" cx="180.4971" cy="-251" rx="27" ry="18"/>
<text text-anchor="middle" x="180.4971" y="-247.3" font-family="Times,serif" font-size="14.00" fill="#000000">I</text>
</g>
<!-- o2&#45;&gt;ret_o2 -->
<g id="edge17" class="edge">
<title>o2&#45;&gt;ret_o2</title>
<path fill="none" stroke="#ff0000" d="M199.8301,-580.6701C200.121,-563.0641 200.4971,-535.7151 200.4971,-512 200.4971,-512 200.4971,-512 200.4971,-338 200.4971,-317.7217 195.2725,-295.445 190.1639,-278.5101"/>
<polygon fill="#ff0000" stroke="#ff0000" points="193.416,-277.1876 187.0459,-268.7217 186.7462,-279.3123 193.416,-277.1876"/>
</g>
<!-- o2l&#45;&gt;hi_retp -->
<g id="edge23" class="edge">
<title>o2l&#45;&gt;hi_retp</title>
<path fill="none" stroke="#ff0000" d="M286.3359,-583.4461C299.2009,-569.9611 317.994,-550.2623 332.5902,-534.9627"/>
<polygon fill="#ff0000" stroke="#ff0000" points="335.4165,-537.0707 339.7868,-527.4192 330.3516,-532.2387 335.4165,-537.0707"/>
<text text-anchor="middle" x="322.4971" y="-551.8" font-family="Times,serif" font-size="14.00" fill="#000000">1</text>
</g>
<!-- o2l&#45;&gt;f_ret -->
<g id="edge24" class="edge">
<title>o2l&#45;&gt;f_ret</title>
<path fill="none" stroke="#0000ff" d="M271.9115,-580.9735C272.1824,-569.1918 272.5417,-553.5607 272.8498,-540.1581"/>
<polygon fill="#0000ff" stroke="#0000ff" points="276.3524,-540.0812 273.0832,-530.0034 269.3543,-539.9202 276.3524,-540.0812"/>
</g>
<!-- x1_o2 -->
<g id="node19" class="node">
<title>x1_o2</title>
<ellipse fill="none" stroke="#000000" cx="96.4971" cy="-251" rx="27" ry="18"/>
<text text-anchor="middle" x="96.4971" y="-247.3" font-family="Times,serif" font-size="14.00" fill="#000000">I</text>
</g>
<!-- x_o2&#45;&gt;x1_o2 -->
<g id="edge18" class="edge">
<title>x_o2&#45;&gt;x1_o2</title>
<path fill="none" stroke="#0000ff" d="M134.401,-495.5239C125.9479,-482.0329 114.8762,-462.1198 109.4971,-443 93.6445,-386.6521 93.4016,-317.5005 94.8273,-279.464"/>
<polygon fill="#0000ff" stroke="#0000ff" points="98.3381,-279.2971 95.2849,-269.1517 91.345,-278.9867 98.3381,-279.2971"/>
</g>
<!-- x2_o2 -->
<g id="node20" class="node">
<title>x2_o2</title>
<ellipse fill="none" stroke="#000000" cx="145.4971" cy="-425" rx="27" ry="18"/>
<text text-anchor="middle" x="145.4971" y="-421.3" font-family="Times,serif" font-size="14.00" fill="#000000">!d</text>
</g>
<!-- x_o2&#45;&gt;x2_o2 -->
<g id="edge19" class="edge">
<title>x_o2&#45;&gt;x2_o2</title>
<path fill="none" stroke="#0000ff" d="M145.4971,-493.9735C145.4971,-482.1918 145.4971,-466.5607 145.4971,-453.1581"/>
<polygon fill="#0000ff" stroke="#0000ff" points="148.9972,-453.0033 145.4971,-443.0034 141.9972,-453.0034 148.9972,-453.0033"/>
</g>
<!-- x2i_o2 -->
<g id="node21" class="node">
<title>x2i_o2</title>
<ellipse fill="none" stroke="#000000" cx="145.4971" cy="-338" rx="27" ry="18"/>
<text text-anchor="middle" x="145.4971" y="-334.3" font-family="Times,serif" font-size="14.00" fill="#000000">PiL</text>
</g>
<!-- x2_o2&#45;&gt;x2i_o2 -->
<g id="edge20" class="edge">
<title>x2_o2&#45;&gt;x2i_o2</title>
<path fill="none" stroke="#0000ff" d="M145.4971,-406.9735C145.4971,-395.1918 145.4971,-379.5607 145.4971,-366.1581"/>
<polygon fill="#0000ff" stroke="#0000ff" points="148.9972,-366.0033 145.4971,-356.0034 141.9972,-366.0034 148.9972,-366.0033"/>
</g>
<!-- x2i_o2&#45;&gt;ret_o2 -->
<g id="edge22" class="edge">
<title>x2i_o2&#45;&gt;ret_o2</title>
<path fill="none" stroke="#0000ff" d="M152.5799,-320.3943C157.4662,-308.2482 164.0562,-291.8674 169.6064,-278.0711"/>
<polygon fill="#0000ff" stroke="#0000ff" points="172.9396,-279.1633 173.4249,-268.5796 166.4454,-276.5506 172.9396,-279.1633"/>
</g>
<!-- x2i_o2&#45;&gt;x1_o2 -->
<g id="edge21" class="edge">
<title>x2i_o2&#45;&gt;x1_o2</title>
<path fill="none" stroke="#ff0000" d="M135.8163,-320.8116C128.7237,-308.2187 118.9771,-290.9135 110.9625,-276.6834"/>
<polygon fill="#ff0000" stroke="#ff0000" points="113.9481,-274.8522 105.9911,-267.8567 107.8489,-278.2873 113.9481,-274.8522"/>
</g>
<!-- h -->
<g id="node24" class="node">
<title>h</title>
<ellipse fill="none" stroke="#000000" cx="347.4971" cy="-338" rx="27" ry="18"/>
<text text-anchor="middle" x="347.4971" y="-334.3" font-family="Times,serif" font-size="14.00" fill="#000000">PiL</text>
</g>
<!-- h_di&#45;&gt;h -->
<g id="edge27" class="edge">
<title>h_di&#45;&gt;h</title>
<path fill="none" stroke="#0000ff" d="M347.4971,-406.9735C347.4971,-395.1918 347.4971,-379.5607 347.4971,-366.1581"/>
<polygon fill="#0000ff" stroke="#0000ff" points="350.9972,-366.0033 347.4971,-356.0034 343.9972,-366.0034 350.9972,-366.0033"/>
<text text-anchor="middle" x="352.4971" y="-377.8" font-family="Times,serif" font-size="14.00" fill="#000000">2</text>
</g>
<!-- h&#45;&gt;hi_ret -->
<g id="edge35" class="edge">
<title>h&#45;&gt;hi_ret</title>
<path fill="none" stroke="#0000ff" d="M358.1017,-321.2255C366.167,-308.4677 377.3979,-290.7024 386.5456,-276.2325"/>
<polygon fill="#0000ff" stroke="#0000ff" points="389.5399,-278.0458 391.9251,-267.723 383.6231,-274.3053 389.5399,-278.0458"/>
</g>
<!-- h_app -->
<g id="node27" class="node">
<title>h_app</title>
<ellipse fill="none" stroke="#000000" cx="330.4971" cy="-251" rx="27" ry="18"/>
<text text-anchor="middle" x="330.4971" y="-247.3" font-family="Times,serif" font-size="14.00" fill="#000000">I</text>
</g>
<!-- h&#45;&gt;h_app -->
<g id="edge34" class="edge">
<title>h&#45;&gt;h_app</title>
<path fill="none" stroke="#ff0000" d="M343.9747,-319.9735C341.6725,-308.1918 338.6182,-292.5607 335.9993,-279.1581"/>
<polygon fill="#ff0000" stroke="#ff0000" points="339.3679,-278.1465 334.015,-269.0034 332.4978,-279.489 339.3679,-278.1465"/>
</g>
<!-- c3 -->
<g id="node25" class="node">
<title>c3</title>
<ellipse fill="none" stroke="#000000" cx="268.4971" cy="-338" rx="27.8951" ry="18"/>
<text text-anchor="middle" x="268.4971" y="-334.3" font-family="Times,serif" font-size="14.00" fill="#000000">Cut</text>
</g>
<!-- i -->
<g id="node26" class="node">
<title>i</title>
<ellipse fill="none" stroke="#000000" cx="258.4971" cy="-251" rx="27" ry="18"/>
<text text-anchor="middle" x="258.4971" y="-247.3" font-family="Times,serif" font-size="14.00" fill="#000000">!p</text>
</g>
<!-- c3&#45;&gt;i -->
<g id="edge28" class="edge">
<title>c3&#45;&gt;i</title>
<path fill="none" stroke="#ff0000" d="M266.4251,-319.9735C265.0709,-308.1918 263.2742,-292.5607 261.7337,-279.1581"/>
<polygon fill="#ff0000" stroke="#ff0000" points="265.1856,-278.5383 260.5665,-269.0034 258.2314,-279.3376 265.1856,-278.5383"/>
<text text-anchor="middle" x="268.4971" y="-290.8" font-family="Times,serif" font-size="14.00" fill="#000000">2</text>
</g>
<!-- c3&#45;&gt;h_app -->
<g id="edge29" class="edge">
<title>c3&#45;&gt;h_app</title>
<path fill="none" stroke="#0000ff" d="M280.1588,-321.636C289.4249,-308.6336 302.5289,-290.2457 313.0442,-275.4904"/>
<polygon fill="#0000ff" stroke="#0000ff" points="315.9344,-277.4656 318.8877,-267.2907 310.2338,-273.4031 315.9344,-277.4656"/>
</g>
<!-- i_i -->
<g id="node28" class="node">
<title>i_i</title>
<ellipse fill="none" stroke="#000000" cx="258.4971" cy="-164" rx="27" ry="18"/>
<text text-anchor="middle" x="258.4971" y="-160.3" font-family="Times,serif" font-size="14.00" fill="#000000">PiR</text>
</g>
<!-- i&#45;&gt;i_i -->
<g id="edge30" class="edge">
<title>i&#45;&gt;i_i</title>
<path fill="none" stroke="#ff0000" d="M258.4971,-232.9735C258.4971,-221.1918 258.4971,-205.5607 258.4971,-192.1581"/>
<polygon fill="#ff0000" stroke="#ff0000" points="261.9972,-192.0033 258.4971,-182.0034 254.9972,-192.0034 261.9972,-192.0033"/>
<text text-anchor="middle" x="263.4971" y="-203.8" font-family="Times,serif" font-size="14.00" fill="#000000">3</text>
</g>
<!-- il -->
<g id="node29" class="node">
<title>il</title>
<ellipse fill="none" stroke="#000000" cx="301.4971" cy="-91" rx="27" ry="18"/>
<text text-anchor="middle" x="301.4971" y="-87.3" font-family="Times,serif" font-size="14.00" fill="#000000">!d</text>
</g>
<!-- i_i&#45;&gt;il -->
<g id="edge31" class="edge">
<title>i_i&#45;&gt;il</title>
<path fill="none" stroke="#0000ff" d="M268.4703,-147.0688C273.7889,-138.0396 280.4436,-126.742 286.3832,-116.6585"/>
<polygon fill="#0000ff" stroke="#0000ff" points="289.5184,-118.232 291.5781,-107.8393 283.4869,-114.6793 289.5184,-118.232"/>
</g>
<!-- i_ret -->
<g id="node30" class="node">
<title>i_ret</title>
<ellipse fill="none" stroke="#000000" cx="258.4971" cy="-18" rx="27" ry="18"/>
<text text-anchor="middle" x="258.4971" y="-14.3" font-family="Times,serif" font-size="14.00" fill="#000000">I</text>
</g>
<!-- i_i&#45;&gt;i_ret -->
<g id="edge32" class="edge">
<title>i_i&#45;&gt;i_ret</title>
<path fill="none" stroke="#ff0000" d="M258.4971,-145.8042C258.4971,-120.8868 258.4971,-75.8938 258.4971,-46.4877"/>
<polygon fill="#ff0000" stroke="#ff0000" points="261.9972,-46.4251 258.4971,-36.4251 254.9972,-46.4251 261.9972,-46.4251"/>
</g>
<!-- il&#45;&gt;i_ret -->
<g id="edge33" class="edge">
<title>il&#45;&gt;i_ret</title>
<path fill="none" stroke="#0000ff" d="M291.524,-74.0688C286.2054,-65.0396 279.5506,-53.742 273.611,-43.6585"/>
<polygon fill="#0000ff" stroke="#0000ff" points="276.5073,-41.6793 268.4162,-34.8393 270.4759,-45.232 276.5073,-41.6793"/>
</g>
</g>
</svg>
