<?xml version="1.0" encoding="UTF-8" standalone="no"?>
<!DOCTYPE svg PUBLIC "-//W3C//DTD SVG 1.1//EN"
 "http://www.w3.org/Graphics/SVG/1.1/DTD/svg11.dtd">
<!-- Generated by graphviz version 2.40.1 (20161225.0304)
 -->
<!-- Title: %3 Pages: 1 -->
<svg width="425pt" height="964pt"
 viewBox="0.00 0.00 425.00 963.80" xmlns="http://www.w3.org/2000/svg" xmlns:xlink="http://www.w3.org/1999/xlink">
<g id="graph0" class="graph" transform="scale(1 1) rotate(0) translate(4 959.7958)">
<title>%3</title>
<polygon fill="#ffffff" stroke="transparent" points="-4,4 -4,-959.7958 421,-959.7958 421,4 -4,4"/>
<!-- Root -->
<g id="node1" class="node">
<title>Root</title>
<ellipse fill="none" stroke="#000000" cx="360" cy="-937.7958" rx="27.8951" ry="18"/>
<text text-anchor="middle" x="360" y="-934.0958" font-family="Times,serif" font-size="14.00" fill="#000000">Root</text>
</g>
<!-- c1b -->
<g id="node2" class="node">
<title>c1b</title>
<ellipse fill="none" stroke="#000000" cx="317" cy="-855.3979" rx="23.3111" ry="23.3111"/>
<ellipse fill="none" stroke="#000000" cx="317" cy="-855.3979" rx="27.2962" ry="27.2962"/>
<text text-anchor="middle" x="317" y="-851.6979" font-family="Times,serif" font-size="14.00" fill="#000000">Cut</text>
</g>
<!-- Root&#45;&gt;c1b -->
<g id="edge1" class="edge">
<title>Root&#45;&gt;c1b</title>
<path fill="none" stroke="#000000" d="M351.0904,-920.7229C346.2858,-911.5162 340.186,-899.8276 334.4783,-888.8904"/>
<polygon fill="#000000" stroke="#000000" points="337.5426,-887.197 329.8132,-879.9509 331.3368,-890.4356 337.5426,-887.197"/>
</g>
<!-- ret -->
<g id="node5" class="node">
<title>ret</title>
<ellipse fill="none" stroke="#000000" cx="390" cy="-512" rx="27" ry="18"/>
<text text-anchor="middle" x="390" y="-508.3" font-family="Times,serif" font-size="14.00" fill="#000000">I</text>
</g>
<!-- Root&#45;&gt;ret -->
<g id="edge3" class="edge">
<title>Root&#45;&gt;ret</title>
<path fill="none" stroke="#ff0000" stroke-width="2" d="M371.6545,-921.3063C381.836,-905.2618 395,-879.7992 395,-855.3979 395,-855.3979 395,-855.3979 395,-599 395,-579.3913 393.7184,-557.3375 392.4529,-540.3406"/>
<polygon fill="#ff0000" stroke="#ff0000" stroke-width="2" points="395.9112,-539.6725 391.6372,-529.978 388.9328,-540.2218 395.9112,-539.6725"/>
</g>
<!-- fp -->
<g id="node6" class="node">
<title>fp</title>
<ellipse fill="none" stroke="#000000" cx="223" cy="-759" rx="27" ry="18"/>
<text text-anchor="middle" x="223" y="-755.3" font-family="Times,serif" font-size="14.00" fill="#000000">!p</text>
</g>
<!-- c1b&#45;&gt;fp -->
<g id="edge4" class="edge">
<title>c1b&#45;&gt;fp</title>
<path fill="none" stroke="#ff0000" d="M297.5231,-835.4242C282.2727,-819.7847 261.0529,-798.0236 245.1554,-781.7205"/>
<polygon fill="#ff0000" stroke="#ff0000" points="247.3155,-778.9225 237.8281,-774.2064 242.3038,-783.8095 247.3155,-778.9225"/>
<text text-anchor="middle" x="273.5" y="-798.8" font-family="Times,serif" font-size="14.00" fill="#000000">0</text>
</g>
<!-- x_o1 -->
<g id="node7" class="node">
<title>x_o1</title>
<ellipse fill="none" stroke="#000000" cx="317" cy="-759" rx="27" ry="18"/>
<text text-anchor="middle" x="317" y="-755.3" font-family="Times,serif" font-size="14.00" fill="#000000">!c</text>
</g>
<!-- c1b&#45;&gt;x_o1 -->
<g id="edge5" class="edge">
<title>c1b&#45;&gt;x_o1</title>
<path fill="none" stroke="#0000ff" d="M317,-827.7741C317,-815.0823 317,-800.0472 317,-787.2766"/>
<polygon fill="#0000ff" stroke="#0000ff" points="320.5001,-787.183 317,-777.183 313.5001,-787.1831 320.5001,-787.183"/>
</g>
<!-- f -->
<g id="node3" class="node">
<title>f</title>
<ellipse fill="none" stroke="#000000" cx="204" cy="-672" rx="27" ry="18"/>
<text text-anchor="middle" x="204" y="-668.3" font-family="Times,serif" font-size="14.00" fill="#000000">PiR</text>
</g>
<!-- c2b -->
<g id="node4" class="node">
<title>c2b</title>
<ellipse fill="none" stroke="#000000" cx="181" cy="-599" rx="27" ry="18"/>
<text text-anchor="middle" x="181" y="-595.3" font-family="Times,serif" font-size="14.00" fill="#000000">Cut</text>
</g>
<!-- f&#45;&gt;c2b -->
<g id="edge2" class="edge">
<title>f&#45;&gt;c2b</title>
<path fill="none" stroke="#000000" d="M198.4323,-654.3287C195.7962,-645.962 192.5875,-635.7776 189.6449,-626.4382"/>
<polygon fill="#000000" stroke="#000000" points="192.9395,-625.2476 186.5961,-616.7615 186.263,-627.3511 192.9395,-625.2476"/>
</g>
<!-- hi_retp -->
<g id="node11" class="node">
<title>hi_retp</title>
<ellipse fill="none" stroke="#000000" cx="108" cy="-512" rx="27" ry="18"/>
<text text-anchor="middle" x="108" y="-508.3" font-family="Times,serif" font-size="14.00" fill="#000000">!p</text>
</g>
<!-- f&#45;&gt;hi_retp -->
<g id="edge12" class="edge">
<title>f&#45;&gt;hi_retp</title>
<path fill="none" stroke="#0000ff" d="M183.885,-659.9647C169.1377,-650.1513 149.7198,-634.9988 138,-617 122.7977,-593.6529 115.1632,-562.5107 111.4176,-540.2159"/>
<polygon fill="#0000ff" stroke="#0000ff" points="114.8364,-539.4163 109.8751,-530.0549 107.9157,-540.4669 114.8364,-539.4163"/>
<text text-anchor="middle" x="141.5" y="-595.3" font-family="Times,serif" font-size="14.00" fill="#000000">1</text>
</g>
<!-- f_ret -->
<g id="node12" class="node">
<title>f_ret</title>
<ellipse fill="none" stroke="#000000" cx="246" cy="-251" rx="27" ry="18"/>
<text text-anchor="middle" x="246" y="-247.3" font-family="Times,serif" font-size="14.00" fill="#000000">I</text>
</g>
<!-- f&#45;&gt;f_ret -->
<g id="edge13" class="edge">
<title>f&#45;&gt;f_ret</title>
<path fill="none" stroke="#ff0000" d="M219.2813,-656.9865C231.6407,-643.1842 247,-621.5046 247,-599 247,-599 247,-599 247,-338 247,-318.5462 246.7469,-296.6471 246.4954,-279.6867"/>
<polygon fill="#ff0000" stroke="#ff0000" points="249.9894,-279.2737 246.333,-269.3299 242.9903,-279.3835 249.9894,-279.2737"/>
</g>
<!-- c2b&#45;&gt;hi_retp -->
<g id="edge14" class="edge">
<title>c2b&#45;&gt;hi_retp</title>
<path fill="none" stroke="#ff0000" d="M167.6107,-583.0429C156.4972,-569.798 140.5277,-550.7659 127.9144,-535.7336"/>
<polygon fill="#ff0000" stroke="#ff0000" points="130.4135,-533.2668 121.3044,-527.856 125.0511,-537.7663 130.4135,-533.2668"/>
<text text-anchor="middle" x="152.5" y="-551.8" font-family="Times,serif" font-size="14.00" fill="#000000">1</text>
</g>
<!-- x_o2 -->
<g id="node13" class="node">
<title>x_o2</title>
<ellipse fill="none" stroke="#000000" cx="181" cy="-512" rx="27" ry="18"/>
<text text-anchor="middle" x="181" y="-508.3" font-family="Times,serif" font-size="14.00" fill="#000000">!c</text>
</g>
<!-- c2b&#45;&gt;x_o2 -->
<g id="edge15" class="edge">
<title>c2b&#45;&gt;x_o2</title>
<path fill="none" stroke="#0000ff" d="M181,-580.9735C181,-569.1918 181,-553.5607 181,-540.1581"/>
<polygon fill="#0000ff" stroke="#0000ff" points="184.5001,-540.0033 181,-530.0034 177.5001,-540.0034 184.5001,-540.0033"/>
<text text-anchor="middle" x="184.5" y="-551.8" font-family="Times,serif" font-size="14.00" fill="#000000">1</text>
</g>
<!-- fp&#45;&gt;f -->
<g id="edge11" class="edge">
<title>fp&#45;&gt;f</title>
<path fill="none" stroke="#ff0000" d="M219.0632,-740.9735C216.4902,-729.1918 213.0765,-713.5607 210.1495,-700.1581"/>
<polygon fill="#ff0000" stroke="#ff0000" points="213.4849,-699.0263 207.9318,-690.0034 206.6461,-700.5199 213.4849,-699.0263"/>
<text text-anchor="middle" x="218.5" y="-711.8" font-family="Times,serif" font-size="14.00" fill="#000000">1</text>
</g>
<!-- x1_o1 -->
<g id="node8" class="node">
<title>x1_o1</title>
<ellipse fill="none" stroke="#000000" cx="308" cy="-512" rx="27" ry="18"/>
<text text-anchor="middle" x="308" y="-508.3" font-family="Times,serif" font-size="14.00" fill="#000000">I</text>
</g>
<!-- x_o1&#45;&gt;x1_o1 -->
<g id="edge6" class="edge">
<title>x_o1&#45;&gt;x1_o1</title>
<path fill="none" stroke="#0000ff" d="M312.6496,-740.9709C309.5413,-727.1248 305.6321,-707.4775 304,-690 299.0644,-637.1459 302.5509,-575.1007 305.3809,-539.9815"/>
<polygon fill="#0000ff" stroke="#0000ff" points="308.8708,-540.2468 306.228,-529.9868 301.8958,-539.6555 308.8708,-540.2468"/>
</g>
<!-- x2_o1 -->
<g id="node9" class="node">
<title>x2_o1</title>
<ellipse fill="none" stroke="#000000" cx="340" cy="-672" rx="27" ry="18"/>
<text text-anchor="middle" x="340" y="-668.3" font-family="Times,serif" font-size="14.00" fill="#000000">!d</text>
</g>
<!-- x_o1&#45;&gt;x2_o1 -->
<g id="edge7" class="edge">
<title>x_o1&#45;&gt;x2_o1</title>
<path fill="none" stroke="#0000ff" d="M321.7656,-740.9735C324.9112,-729.0751 329.0946,-713.2508 332.661,-699.7606"/>
<polygon fill="#0000ff" stroke="#0000ff" points="336.0683,-700.5658 335.2405,-690.0034 329.3008,-698.7766 336.0683,-700.5658"/>
</g>
<!-- x2i_o1 -->
<g id="node10" class="node">
<title>x2i_o1</title>
<ellipse fill="none" stroke="#000000" cx="340" cy="-599" rx="27" ry="18"/>
<text text-anchor="middle" x="340" y="-595.3" font-family="Times,serif" font-size="14.00" fill="#000000">PiL</text>
</g>
<!-- x2_o1&#45;&gt;x2i_o1 -->
<g id="edge8" class="edge">
<title>x2_o1&#45;&gt;x2i_o1</title>
<path fill="none" stroke="#0000ff" d="M340,-653.9551C340,-645.8828 340,-636.1764 340,-627.1817"/>
<polygon fill="#0000ff" stroke="#0000ff" points="343.5001,-627.0903 340,-617.0904 336.5001,-627.0904 343.5001,-627.0903"/>
</g>
<!-- x2i_o1&#45;&gt;ret -->
<g id="edge10" class="edge">
<title>x2i_o1&#45;&gt;ret</title>
<path fill="none" stroke="#0000ff" d="M349.8784,-581.8116C357.1157,-569.2187 367.0612,-551.9135 375.2394,-537.6834"/>
<polygon fill="#0000ff" stroke="#0000ff" points="378.3639,-539.2708 380.3123,-528.8567 372.2948,-535.7828 378.3639,-539.2708"/>
</g>
<!-- x2i_o1&#45;&gt;x1_o1 -->
<g id="edge9" class="edge">
<title>x2i_o1&#45;&gt;x1_o1</title>
<path fill="none" stroke="#ff0000" d="M333.5243,-581.3943C329.0568,-569.2482 323.0317,-552.8674 317.9572,-539.0711"/>
<polygon fill="#ff0000" stroke="#ff0000" points="321.203,-537.7566 314.466,-529.5796 314.6333,-540.1731 321.203,-537.7566"/>
</g>
<!-- hi_ret -->
<g id="node17" class="node">
<title>hi_ret</title>
<ellipse fill="none" stroke="#000000" cx="27" cy="-251" rx="27" ry="18"/>
<text text-anchor="middle" x="27" y="-247.3" font-family="Times,serif" font-size="14.00" fill="#000000">I</text>
</g>
<!-- hi_retp&#45;&gt;hi_ret -->
<g id="edge21" class="edge">
<title>hi_retp&#45;&gt;hi_ret</title>
<path fill="none" stroke="#ff0000" d="M90.5069,-498.1791C75.8825,-485.5236 55.877,-465.3981 46,-443 22.0954,-388.7917 22.1527,-317.8382 24.472,-279.1542"/>
<polygon fill="#ff0000" stroke="#ff0000" points="27.9662,-279.3585 25.1681,-269.1398 20.983,-278.873 27.9662,-279.3585"/>
<text text-anchor="middle" x="33.5" y="-377.8" font-family="Times,serif" font-size="14.00" fill="#000000">2</text>
</g>
<!-- h_di -->
<g id="node18" class="node">
<title>h_di</title>
<ellipse fill="none" stroke="#000000" cx="82" cy="-425" rx="27" ry="18"/>
<text text-anchor="middle" x="82" y="-421.3" font-family="Times,serif" font-size="14.00" fill="#000000">!d</text>
</g>
<!-- hi_retp&#45;&gt;h_di -->
<g id="edge22" class="edge">
<title>hi_retp&#45;&gt;h_di</title>
<path fill="none" stroke="#0000ff" d="M102.6128,-493.9735C99.0332,-481.9958 94.2647,-466.0396 90.2157,-452.4912"/>
<polygon fill="#0000ff" stroke="#0000ff" points="93.5083,-451.2848 87.2914,-442.7057 86.8013,-453.2892 93.5083,-451.2848"/>
<text text-anchor="middle" x="100.5" y="-464.8" font-family="Times,serif" font-size="14.00" fill="#000000">1</text>
</g>
<!-- x1_o2 -->
<g id="node14" class="node">
<title>x1_o2</title>
<ellipse fill="none" stroke="#000000" cx="172" cy="-251" rx="27" ry="18"/>
<text text-anchor="middle" x="172" y="-247.3" font-family="Times,serif" font-size="14.00" fill="#000000">I</text>
</g>
<!-- x_o2&#45;&gt;x1_o2 -->
<g id="edge16" class="edge">
<title>x_o2&#45;&gt;x1_o2</title>
<path fill="none" stroke="#0000ff" d="M172.7775,-494.5956C166.7909,-480.916 159.1948,-461.1964 156,-443 146.5465,-389.1569 149.7854,-374.3123 156,-320 157.5836,-306.1601 160.8987,-291.0577 164.1028,-278.5202"/>
<polygon fill="#0000ff" stroke="#0000ff" points="167.533,-279.2401 166.7276,-268.6759 160.7693,-277.4365 167.533,-279.2401"/>
</g>
<!-- x2_o2 -->
<g id="node15" class="node">
<title>x2_o2</title>
<ellipse fill="none" stroke="#000000" cx="192" cy="-425" rx="27" ry="18"/>
<text text-anchor="middle" x="192" y="-421.3" font-family="Times,serif" font-size="14.00" fill="#000000">!d</text>
</g>
<!-- x_o2&#45;&gt;x2_o2 -->
<g id="edge17" class="edge">
<title>x_o2&#45;&gt;x2_o2</title>
<path fill="none" stroke="#0000ff" d="M183.2792,-493.9735C184.7689,-482.1918 186.7452,-466.5607 188.4398,-453.1581"/>
<polygon fill="#0000ff" stroke="#0000ff" points="191.9416,-453.3634 189.7237,-443.0034 184.9969,-452.4853 191.9416,-453.3634"/>
</g>
<!-- x2i_o2 -->
<g id="node16" class="node">
<title>x2i_o2</title>
<ellipse fill="none" stroke="#000000" cx="192" cy="-338" rx="27" ry="18"/>
<text text-anchor="middle" x="192" y="-334.3" font-family="Times,serif" font-size="14.00" fill="#000000">PiL</text>
</g>
<!-- x2_o2&#45;&gt;x2i_o2 -->
<g id="edge18" class="edge">
<title>x2_o2&#45;&gt;x2i_o2</title>
<path fill="none" stroke="#0000ff" d="M192,-406.9735C192,-395.1918 192,-379.5607 192,-366.1581"/>
<polygon fill="#0000ff" stroke="#0000ff" points="195.5001,-366.0033 192,-356.0034 188.5001,-366.0034 195.5001,-366.0033"/>
</g>
<!-- x2i_o2&#45;&gt;f_ret -->
<g id="edge20" class="edge">
<title>x2i_o2&#45;&gt;f_ret</title>
<path fill="none" stroke="#0000ff" d="M202.4117,-321.2255C210.3304,-308.4677 221.3571,-290.7024 230.3385,-276.2325"/>
<polygon fill="#0000ff" stroke="#0000ff" points="233.3203,-278.0652 235.6202,-267.723 227.3728,-274.3736 233.3203,-278.0652"/>
</g>
<!-- x2i_o2&#45;&gt;x1_o2 -->
<g id="edge19" class="edge">
<title>x2i_o2&#45;&gt;x1_o2</title>
<path fill="none" stroke="#ff0000" d="M187.856,-319.9735C185.1207,-308.0751 181.4829,-292.2508 178.3818,-278.7606"/>
<polygon fill="#ff0000" stroke="#ff0000" points="181.7902,-277.965 176.1387,-269.0034 174.9682,-279.5333 181.7902,-277.965"/>
</g>
<!-- h -->
<g id="node19" class="node">
<title>h</title>
<ellipse fill="none" stroke="#000000" cx="82" cy="-338" rx="27" ry="18"/>
<text text-anchor="middle" x="82" y="-334.3" font-family="Times,serif" font-size="14.00" fill="#000000">PiL</text>
</g>
<!-- h_di&#45;&gt;h -->
<g id="edge23" class="edge">
<title>h_di&#45;&gt;h</title>
<path fill="none" stroke="#0000ff" d="M82,-406.9735C82,-395.1918 82,-379.5607 82,-366.1581"/>
<polygon fill="#0000ff" stroke="#0000ff" points="85.5001,-366.0033 82,-356.0034 78.5001,-366.0034 85.5001,-366.0033"/>
<text text-anchor="middle" x="85.5" y="-377.8" font-family="Times,serif" font-size="14.00" fill="#000000">2</text>
</g>
<!-- h&#45;&gt;hi_ret -->
<g id="edge29" class="edge">
<title>h&#45;&gt;hi_ret</title>
<path fill="none" stroke="#0000ff" d="M71.3954,-321.2255C63.3301,-308.4677 52.0992,-290.7024 42.9516,-276.2325"/>
<polygon fill="#0000ff" stroke="#0000ff" points="45.874,-274.3053 37.572,-267.723 39.9572,-278.0458 45.874,-274.3053"/>
</g>
<!-- i -->
<g id="node20" class="node">
<title>i</title>
<ellipse fill="none" stroke="#000000" cx="99" cy="-251" rx="27" ry="18"/>
<text text-anchor="middle" x="99" y="-247.3" font-family="Times,serif" font-size="14.00" fill="#000000">!p</text>
</g>
<!-- h&#45;&gt;i -->
<g id="edge28" class="edge">
<title>h&#45;&gt;i</title>
<path fill="none" stroke="#ff0000" d="M85.5224,-319.9735C87.8246,-308.1918 90.879,-292.5607 93.4978,-279.1581"/>
<polygon fill="#ff0000" stroke="#ff0000" points="96.9993,-279.489 95.4821,-269.0034 90.1292,-278.1465 96.9993,-279.489"/>
<text text-anchor="middle" x="95.5" y="-290.8" font-family="Times,serif" font-size="14.00" fill="#000000">2</text>
</g>
<!-- i_i -->
<g id="node21" class="node">
<title>i_i</title>
<ellipse fill="none" stroke="#000000" cx="99" cy="-164" rx="27" ry="18"/>
<text text-anchor="middle" x="99" y="-160.3" font-family="Times,serif" font-size="14.00" fill="#000000">PiR</text>
</g>
<!-- i&#45;&gt;i_i -->
<g id="edge24" class="edge">
<title>i&#45;&gt;i_i</title>
<path fill="none" stroke="#ff0000" d="M99,-232.9735C99,-221.1918 99,-205.5607 99,-192.1581"/>
<polygon fill="#ff0000" stroke="#ff0000" points="102.5001,-192.0033 99,-182.0034 95.5001,-192.0034 102.5001,-192.0033"/>
<text text-anchor="middle" x="102.5" y="-203.8" font-family="Times,serif" font-size="14.00" fill="#000000">3</text>
</g>
<!-- il -->
<g id="node22" class="node">
<title>il</title>
<ellipse fill="none" stroke="#000000" cx="142" cy="-91" rx="27" ry="18"/>
<text text-anchor="middle" x="142" y="-87.3" font-family="Times,serif" font-size="14.00" fill="#000000">!d</text>
</g>
<!-- i_i&#45;&gt;il -->
<g id="edge25" class="edge">
<title>i_i&#45;&gt;il</title>
<path fill="none" stroke="#0000ff" d="M108.9731,-147.0688C114.2918,-138.0396 120.9465,-126.742 126.8861,-116.6585"/>
<polygon fill="#0000ff" stroke="#0000ff" points="130.0212,-118.232 132.0809,-107.8393 123.9898,-114.6793 130.0212,-118.232"/>
</g>
<!-- i_ret -->
<g id="node23" class="node">
<title>i_ret</title>
<ellipse fill="none" stroke="#000000" cx="99" cy="-18" rx="27" ry="18"/>
<text text-anchor="middle" x="99" y="-14.3" font-family="Times,serif" font-size="14.00" fill="#000000">I</text>
</g>
<!-- i_i&#45;&gt;i_ret -->
<g id="edge26" class="edge">
<title>i_i&#45;&gt;i_ret</title>
<path fill="none" stroke="#ff0000" d="M99,-145.8042C99,-120.8868 99,-75.8938 99,-46.4877"/>
<polygon fill="#ff0000" stroke="#ff0000" points="102.5001,-46.4251 99,-36.4251 95.5001,-46.4251 102.5001,-46.4251"/>
</g>
<!-- il&#45;&gt;i_ret -->
<g id="edge27" class="edge">
<title>il&#45;&gt;i_ret</title>
<path fill="none" stroke="#0000ff" d="M132.0269,-74.0688C126.7082,-65.0396 120.0535,-53.742 114.1139,-43.6585"/>
<polygon fill="#0000ff" stroke="#0000ff" points="117.0102,-41.6793 108.9191,-34.8393 110.9788,-45.232 117.0102,-41.6793"/>
</g>
</g>
</svg>
