<?xml version="1.0" encoding="UTF-8" standalone="no"?>
<!DOCTYPE svg PUBLIC "-//W3C//DTD SVG 1.1//EN"
 "http://www.w3.org/Graphics/SVG/1.1/DTD/svg11.dtd">
<!-- Generated by graphviz version 2.40.1 (20161225.0304)
 -->
<!-- Title: %3 Pages: 1 -->
<svg width="601pt" height="1151pt"
 viewBox="0.00 0.00 600.90 1150.79" xmlns="http://www.w3.org/2000/svg" xmlns:xlink="http://www.w3.org/1999/xlink">
<g id="graph0" class="graph" transform="scale(1 1) rotate(0) translate(4 1146.7947)">
<title>%3</title>
<polygon fill="#ffffff" stroke="transparent" points="-4,4 -4,-1146.7947 596.8973,-1146.7947 596.8973,4 -4,4"/>
<!-- Root -->
<g id="node1" class="node">
<title>Root</title>
<ellipse fill="none" stroke="#000000" cx="281" cy="-484" rx="32.4942" ry="18"/>
<text text-anchor="middle" x="281" y="-480.3" font-family="Times,serif" font-size="14.00" fill="#000000">Root</text>
</g>
<!-- f_retf -->
<g id="node2" class="node">
<title>f_retf</title>
<ellipse fill="none" stroke="#000000" cx="293" cy="-397" rx="27" ry="18"/>
<text text-anchor="middle" x="293" y="-393.3" font-family="Times,serif" font-size="14.00" fill="#000000">I</text>
</g>
<!-- Root&#45;&gt;f_retf -->
<g id="edge1" class="edge">
<title>Root&#45;&gt;f_retf</title>
<path fill="none" stroke="#ff0000" stroke-width="2" d="M283.4864,-465.9735C285.1115,-454.1918 287.2675,-438.5607 289.1161,-425.1581"/>
<polygon fill="#ff0000" stroke="#ff0000" stroke-width="2" points="292.6175,-425.3878 290.5168,-415.0034 285.6831,-424.4313 292.6175,-425.3878"/>
<text text-anchor="middle" x="304.5" y="-436.8" font-family="Times,serif" font-size="14.00" fill="#000000">0&#45;&gt;1</text>
</g>
<!-- c1a -->
<g id="node3" class="node">
<title>c1a</title>
<ellipse fill="none" stroke="#000000" cx="51" cy="-1124.7947" rx="27.8951" ry="18"/>
<text text-anchor="middle" x="51" y="-1121.0947" font-family="Times,serif" font-size="14.00" fill="#000000">Cut</text>
</g>
<!-- fp1 -->
<g id="node4" class="node">
<title>fp1</title>
<ellipse fill="none" stroke="#000000" cx="128" cy="-1037.7947" rx="27" ry="18"/>
<text text-anchor="middle" x="128" y="-1034.0947" font-family="Times,serif" font-size="14.00" fill="#000000">!p</text>
</g>
<!-- c1a&#45;&gt;fp1 -->
<g id="edge2" class="edge">
<title>c1a&#45;&gt;fp1</title>
<path fill="none" stroke="#ff0000" d="M65.123,-1108.8376C76.9187,-1095.5099 93.9007,-1076.3225 107.2434,-1061.2469"/>
<polygon fill="#ff0000" stroke="#ff0000" points="110.2189,-1063.166 114.2256,-1053.358 104.9771,-1058.5266 110.2189,-1063.166"/>
<text text-anchor="middle" x="99" y="-1077.5947" font-family="Times,serif" font-size="14.00" fill="#000000">0</text>
</g>
<!-- d2a -->
<g id="node5" class="node">
<title>d2a</title>
<ellipse fill="none" stroke="#000000" cx="30" cy="-673.8973" rx="29.795" ry="18"/>
<text text-anchor="middle" x="30" y="-670.1973" font-family="Times,serif" font-size="14.00" fill="#000000">Dup</text>
</g>
<!-- c1a&#45;&gt;d2a -->
<g id="edge3" class="edge">
<title>c1a&#45;&gt;d2a</title>
<path fill="none" stroke="#0000ff" d="M45.761,-1106.9753C41.0947,-1089.5125 35,-1062.0595 35,-1037.7947 35,-1037.7947 35,-1037.7947 35,-776.7947 35,-751.5123 33.4755,-722.7768 32.11,-702.1104"/>
<polygon fill="#0000ff" stroke="#0000ff" points="35.5995,-701.8352 31.4194,-692.0999 28.6161,-702.3171 35.5995,-701.8352"/>
<text text-anchor="middle" x="40" y="-903.5947" font-family="Times,serif" font-size="14.00" fill="#000000">1</text>
</g>
<!-- f2a -->
<g id="node24" class="node">
<title>f2a</title>
<ellipse fill="none" stroke="#000000" cx="181" cy="-950.7947" rx="27" ry="18"/>
<text text-anchor="middle" x="181" y="-947.0947" font-family="Times,serif" font-size="14.00" fill="#000000">PiR</text>
</g>
<!-- fp1&#45;&gt;f2a -->
<g id="edge28" class="edge">
<title>fp1&#45;&gt;f2a</title>
<path fill="none" stroke="#ff0000" d="M138.2189,-1021.0202C145.9176,-1008.3827 156.6096,-990.8318 165.3785,-976.4376"/>
<polygon fill="#ff0000" stroke="#ff0000" points="168.5988,-977.8787 170.8124,-967.5177 162.6208,-974.2369 168.5988,-977.8787"/>
<text text-anchor="middle" x="162" y="-990.5947" font-family="Times,serif" font-size="14.00" fill="#000000">1</text>
</g>
<!-- d2c -->
<g id="node23" class="node">
<title>d2c</title>
<ellipse fill="none" stroke="#000000" cx="381" cy="-397" rx="29.795" ry="18"/>
<text text-anchor="middle" x="381" y="-393.3" font-family="Times,serif" font-size="14.00" fill="#000000">Dup</text>
</g>
<!-- d2a&#45;&gt;d2c -->
<g id="edge31" class="edge">
<title>d2a&#45;&gt;d2c</title>
<path fill="none" stroke="#000000" stroke-dasharray="5,2" d="M45.6131,-658.2147C93.2773,-610.3677 234.0369,-469.2965 240,-466 270.7578,-448.9965 285.3729,-463.3259 317,-448 335.411,-439.0783 353.3597,-424.0568 365.5407,-412.6207"/>
</g>
<!-- hi_retpa -->
<g id="node25" class="node">
<title>hi_retpa</title>
<ellipse fill="none" stroke="#000000" cx="42" cy="-571" rx="27" ry="18"/>
<text text-anchor="middle" x="42" y="-567.3" font-family="Times,serif" font-size="14.00" fill="#000000">!p</text>
</g>
<!-- d2a&#45;&gt;hi_retpa -->
<g id="edge32" class="edge">
<title>d2a&#45;&gt;hi_retpa</title>
<path fill="none" stroke="#0000ff" d="M27.9136,-655.8649C26.784,-642.3178 26.1364,-623.3613 29,-607 29.5048,-604.1159 30.2209,-601.1581 31.0607,-598.2374"/>
<polygon fill="#0000ff" stroke="#0000ff" points="34.4274,-599.2051 34.2648,-588.6115 27.7856,-596.9943 34.4274,-599.2051"/>
<text text-anchor="middle" x="34" y="-610.8" font-family="Times,serif" font-size="14.00" fill="#000000">1</text>
</g>
<!-- dx -->
<g id="node6" class="node">
<title>dx</title>
<ellipse fill="none" stroke="#000000" cx="523" cy="-673.8973" rx="29.8071" ry="29.8071"/>
<ellipse fill="none" stroke="#000000" cx="523" cy="-673.8973" rx="33.795" ry="33.795"/>
<text text-anchor="middle" x="523" y="-670.1973" font-family="Times,serif" font-size="14.00" fill="#000000">Dup</text>
</g>
<!-- i_i2 -->
<g id="node7" class="node">
<title>i_i2</title>
<ellipse fill="none" stroke="#000000" cx="563" cy="-397" rx="27" ry="18"/>
<text text-anchor="middle" x="563" y="-393.3" font-family="Times,serif" font-size="14.00" fill="#000000">PiR</text>
</g>
<!-- dx&#45;&gt;i_i2 -->
<g id="edge4" class="edge">
<title>dx&#45;&gt;i_i2</title>
<path fill="none" stroke="#ff0000" d="M527.8648,-640.2211C535.8343,-585.0527 551.5252,-476.4333 558.9382,-425.1176"/>
<polygon fill="#ff0000" stroke="#ff0000" points="562.4229,-425.4747 560.3886,-415.077 555.4948,-424.4739 562.4229,-425.4747"/>
</g>
<!-- d2d -->
<g id="node37" class="node">
<title>d2d</title>
<ellipse fill="none" stroke="#000000" cx="468" cy="-324" rx="29.795" ry="18"/>
<text text-anchor="middle" x="468" y="-320.3" font-family="Times,serif" font-size="14.00" fill="#000000">Dup</text>
</g>
<!-- i_i2&#45;&gt;d2d -->
<g id="edge51" class="edge">
<title>i_i2&#45;&gt;d2d</title>
<path fill="none" stroke="#0000ff" d="M545.1312,-383.2693C530.9425,-372.3663 510.8806,-356.9504 494.7739,-344.5736"/>
<polygon fill="#0000ff" stroke="#0000ff" points="496.8256,-341.7362 486.7636,-338.4184 492.5604,-347.2868 496.8256,-341.7362"/>
</g>
<!-- d2e -->
<g id="node38" class="node">
<title>d2e</title>
<ellipse fill="none" stroke="#000000" cx="563" cy="-324" rx="29.795" ry="18"/>
<text text-anchor="middle" x="563" y="-320.3" font-family="Times,serif" font-size="14.00" fill="#000000">Dup</text>
</g>
<!-- i_i2&#45;&gt;d2e -->
<g id="edge52" class="edge">
<title>i_i2&#45;&gt;d2e</title>
<path fill="none" stroke="#ff0000" d="M563,-378.9551C563,-370.8828 563,-361.1764 563,-352.1817"/>
<polygon fill="#ff0000" stroke="#ff0000" points="566.5001,-352.0903 563,-342.0904 559.5001,-352.0904 566.5001,-352.0903"/>
</g>
<!-- c1b2a -->
<g id="node8" class="node">
<title>c1b2a</title>
<ellipse fill="none" stroke="#000000" cx="359" cy="-863.7947" rx="27.8951" ry="18"/>
<text text-anchor="middle" x="359" y="-860.0947" font-family="Times,serif" font-size="14.00" fill="#000000">Cut</text>
</g>
<!-- i2a -->
<g id="node9" class="node">
<title>i2a</title>
<ellipse fill="none" stroke="#000000" cx="522" cy="-776.7947" rx="27" ry="18"/>
<text text-anchor="middle" x="522" y="-773.0947" font-family="Times,serif" font-size="14.00" fill="#000000">!p</text>
</g>
<!-- c1b2a&#45;&gt;i2a -->
<g id="edge5" class="edge">
<title>c1b2a&#45;&gt;i2a</title>
<path fill="none" stroke="#ff0000" d="M380.6451,-852.2418C409.1778,-837.0127 459.524,-810.1408 491.7938,-792.917"/>
<polygon fill="#ff0000" stroke="#ff0000" points="493.6094,-795.9154 500.7834,-788.1189 490.3132,-789.7399 493.6094,-795.9154"/>
<text text-anchor="middle" x="455" y="-816.5947" font-family="Times,serif" font-size="14.00" fill="#000000">2</text>
</g>
<!-- d1b -->
<g id="node10" class="node">
<title>d1b</title>
<ellipse fill="none" stroke="#000000" cx="180" cy="-776.7947" rx="29.795" ry="18"/>
<text text-anchor="middle" x="180" y="-773.0947" font-family="Times,serif" font-size="14.00" fill="#000000">Dup</text>
</g>
<!-- c1b2a&#45;&gt;d1b -->
<g id="edge6" class="edge">
<title>c1b2a&#45;&gt;d1b</title>
<path fill="none" stroke="#0000ff" d="M331.0286,-861.8336C301.3424,-858.6096 254.102,-850.1158 220,-827.7947 209.5448,-820.9514 200.6336,-810.4487 193.8941,-800.7491"/>
<ellipse fill="none" stroke="#0000ff" cx="191.5791" cy="-797.2329" rx="4" ry="4"/>
<text text-anchor="middle" x="225" y="-816.5947" font-family="Times,serif" font-size="14.00" fill="#000000">1</text>
</g>
<!-- i2a&#45;&gt;dx -->
<g id="edge9" class="edge">
<title>i2a&#45;&gt;dx</title>
<path fill="none" stroke="#ff0000" d="M522.1788,-758.3987C522.2882,-747.1418 522.4332,-732.2239 522.5708,-718.0583"/>
<polygon fill="#ff0000" stroke="#ff0000" points="526.0717,-717.9732 522.6692,-707.9396 519.0721,-717.9051 526.0717,-717.9732"/>
<text text-anchor="middle" x="527" y="-729.5947" font-family="Times,serif" font-size="14.00" fill="#000000">3</text>
</g>
<!-- d1b&#45;&gt;d2a -->
<g id="edge23" class="edge">
<title>d1b&#45;&gt;d2a</title>
<path fill="none" stroke="#0000ff" d="M158.0558,-764.547C135.1694,-751.4568 98.5752,-729.6241 69,-707.7947 63.6205,-703.8241 58.0677,-699.2923 52.8984,-694.8627"/>
<ellipse fill="none" stroke="#0000ff" cx="49.6097" cy="-691.9885" rx="4" ry="4"/>
</g>
<!-- d1c -->
<g id="node13" class="node">
<title>d1c</title>
<ellipse fill="none" stroke="#000000" cx="492" cy="-571" rx="29.795" ry="18"/>
<text text-anchor="middle" x="492" y="-567.3" font-family="Times,serif" font-size="14.00" fill="#000000">Dup</text>
</g>
<!-- d1b&#45;&gt;d1c -->
<g id="edge10" class="edge">
<title>d1b&#45;&gt;d1c</title>
<path fill="none" stroke="#000000" stroke-dasharray="5,2" d="M152.902,-768.8411C129.5361,-760.4523 101.2638,-745.6879 113,-725.7947 114.7335,-722.8563 324.7658,-608.0858 328,-607 381.21,-589.1361 399.1785,-604.927 453,-589 458.4345,-587.3918 464.0795,-585.152 469.3311,-582.7975"/>
</g>
<!-- d1d -->
<g id="node14" class="node">
<title>d1d</title>
<ellipse fill="none" stroke="#000000" cx="433" cy="-484" rx="29.795" ry="18"/>
<text text-anchor="middle" x="433" y="-480.3" font-family="Times,serif" font-size="14.00" fill="#000000">Dup</text>
</g>
<!-- d1b&#45;&gt;d1d -->
<g id="edge11" class="edge">
<title>d1b&#45;&gt;d1d</title>
<path fill="none" stroke="#000000" stroke-dasharray="5,2" d="M185.0994,-758.8063C197.6082,-717.5328 233.4401,-614.8357 296,-553 304.7599,-544.3415 372.4048,-512.1632 409.2528,-494.9803"/>
</g>
<!-- c1b2b -->
<g id="node11" class="node">
<title>c1b2b</title>
<ellipse fill="none" stroke="#000000" cx="448" cy="-776.7947" rx="27.8951" ry="18"/>
<text text-anchor="middle" x="448" y="-773.0947" font-family="Times,serif" font-size="14.00" fill="#000000">Cut</text>
</g>
<!-- c1b2b&#45;&gt;dx -->
<g id="edge7" class="edge">
<title>c1b2b&#45;&gt;dx</title>
<path fill="none" stroke="#ff0000" stroke-width="2" d="M460.05,-760.2625C470.2124,-746.3201 485.0961,-725.9001 497.8399,-708.4161"/>
<ellipse fill="none" stroke="#ff0000" stroke-width="2" cx="500.4296" cy="-704.8631" rx="4" ry="4"/>
<text text-anchor="middle" x="488" y="-729.5947" font-family="Times,serif" font-size="14.00" fill="#000000">3</text>
</g>
<!-- hbg2 -->
<g id="node12" class="node">
<title>hbg2</title>
<ellipse fill="none" stroke="#000000" cx="444" cy="-673.8973" rx="27" ry="18"/>
<text text-anchor="middle" x="444" y="-670.1973" font-family="Times,serif" font-size="14.00" fill="#000000">PiL</text>
</g>
<!-- c1b2b&#45;&gt;hbg2 -->
<g id="edge8" class="edge">
<title>c1b2b&#45;&gt;hbg2</title>
<path fill="none" stroke="#0000ff" stroke-width="2" d="M447.2849,-758.3987C446.6791,-742.8153 445.8006,-720.2162 445.1045,-702.3091"/>
<polygon fill="#0000ff" stroke="#0000ff" stroke-width="2" points="448.5948,-701.9905 444.7089,-692.1341 441.6001,-702.2625 448.5948,-701.9905"/>
<text text-anchor="middle" x="451" y="-729.5947" font-family="Times,serif" font-size="14.00" fill="#000000">2</text>
</g>
<!-- hbg2&#45;&gt;d1c -->
<g id="edge19" class="edge">
<title>hbg2&#45;&gt;d1c</title>
<path fill="none" stroke="#ff0000" d="M456.4154,-657.8324C463.5621,-647.9467 472.2398,-634.7631 478,-622 481.5693,-614.0914 484.4111,-605.0721 486.5762,-596.8397"/>
<ellipse fill="none" stroke="#ff0000" cx="487.563" cy="-592.8244" rx="4" ry="4"/>
</g>
<!-- x2i_o2g2 -->
<g id="node20" class="node">
<title>x2i_o2g2</title>
<ellipse fill="none" stroke="#000000" cx="417" cy="-571" rx="27" ry="18"/>
<text text-anchor="middle" x="417" y="-567.3" font-family="Times,serif" font-size="14.00" fill="#000000">PiL</text>
</g>
<!-- hbg2&#45;&gt;x2i_o2g2 -->
<g id="edge20" class="edge">
<title>hbg2&#45;&gt;x2i_o2g2</title>
<path fill="none" stroke="#0000ff" stroke-width="2" d="M439.297,-655.974C435.1603,-640.2093 429.0719,-617.0064 424.302,-598.8282"/>
<polygon fill="#0000ff" stroke="#0000ff" stroke-width="2" points="427.6633,-597.8474 421.7397,-589.0632 420.8925,-599.6241 427.6633,-597.8474"/>
<text text-anchor="middle" x="446.5" y="-610.8" font-family="Times,serif" font-size="14.00" fill="#000000">2&#45;&gt;1</text>
</g>
<!-- i3 -->
<g id="node22" class="node">
<title>i3</title>
<ellipse fill="none" stroke="#000000" cx="508" cy="-484" rx="27" ry="18"/>
<text text-anchor="middle" x="508" y="-480.3" font-family="Times,serif" font-size="14.00" fill="#000000">!p</text>
</g>
<!-- d1c&#45;&gt;i3 -->
<g id="edge24" class="edge">
<title>d1c&#45;&gt;i3</title>
<path fill="none" stroke="#ff0000" d="M495.3152,-552.9735C497.482,-541.1918 500.3567,-525.5607 502.8215,-512.1581"/>
<polygon fill="#ff0000" stroke="#ff0000" points="506.3225,-512.4715 504.689,-502.0034 499.4379,-511.2053 506.3225,-512.4715"/>
</g>
<!-- d1d&#45;&gt;d2c -->
<g id="edge25" class="edge">
<title>d1d&#45;&gt;d2c</title>
<path fill="none" stroke="#ff0000" d="M422.7265,-466.8116C414.9634,-453.8233 404.204,-435.8221 395.5554,-421.3523"/>
<ellipse fill="none" stroke="#ff0000" cx="393.3044" cy="-417.5861" rx="4" ry="4"/>
</g>
<!-- xdicg1 -->
<g id="node15" class="node">
<title>xdicg1</title>
<ellipse fill="none" stroke="#000000" cx="181" cy="-863.7947" rx="27" ry="18"/>
<text text-anchor="middle" x="181" y="-860.0947" font-family="Times,serif" font-size="14.00" fill="#000000">!c</text>
</g>
<!-- xdicg1&#45;&gt;d1b -->
<g id="edge12" class="edge">
<title>xdicg1&#45;&gt;d1b</title>
<path fill="none" stroke="#0000ff" d="M180.7928,-845.7682C180.6574,-833.9865 180.4777,-818.3553 180.3237,-804.9528"/>
<polygon fill="#0000ff" stroke="#0000ff" points="183.8217,-804.7571 180.2069,-794.7981 176.8222,-804.8377 183.8217,-804.7571"/>
</g>
<!-- h_di2g1 -->
<g id="node16" class="node">
<title>h_di2g1</title>
<ellipse fill="none" stroke="#000000" cx="303" cy="-776.7947" rx="27" ry="18"/>
<text text-anchor="middle" x="303" y="-773.0947" font-family="Times,serif" font-size="14.00" fill="#000000">!d</text>
</g>
<!-- xdicg1&#45;&gt;h_di2g1 -->
<g id="edge13" class="edge">
<title>xdicg1&#45;&gt;h_di2g1</title>
<path fill="none" stroke="#0000ff" d="M199.5292,-850.5813C219.8621,-836.0816 252.6932,-812.6692 275.9136,-796.1104"/>
<polygon fill="#0000ff" stroke="#0000ff" points="278.1867,-798.7882 284.2964,-790.1325 274.1225,-793.0889 278.1867,-798.7882"/>
<text text-anchor="middle" x="254" y="-816.5947" font-family="Times,serif" font-size="14.00" fill="#000000">1</text>
</g>
<!-- hbg1 -->
<g id="node17" class="node">
<title>hbg1</title>
<ellipse fill="none" stroke="#000000" cx="332" cy="-673.8973" rx="27" ry="18"/>
<text text-anchor="middle" x="332" y="-670.1973" font-family="Times,serif" font-size="14.00" fill="#000000">PiL</text>
</g>
<!-- h_di2g1&#45;&gt;hbg1 -->
<g id="edge14" class="edge">
<title>h_di2g1&#45;&gt;hbg1</title>
<path fill="none" stroke="#0000ff" d="M308.0514,-758.8713C312.5217,-743.01 319.1142,-719.6187 324.2512,-701.3915"/>
<polygon fill="#0000ff" stroke="#0000ff" points="327.6625,-702.1898 327.0065,-691.6153 320.925,-700.2909 327.6625,-702.1898"/>
<text text-anchor="middle" x="321" y="-729.5947" font-family="Times,serif" font-size="14.00" fill="#000000">2</text>
</g>
<!-- hbg1&#45;&gt;d1c -->
<g id="edge15" class="edge">
<title>hbg1&#45;&gt;d1c</title>
<path fill="none" stroke="#ff0000" d="M354.5128,-663.5795C369.5846,-656.7403 389.9028,-647.6518 408,-640 427.8401,-631.6112 435.8418,-635.0229 453,-622 462.1505,-615.0549 470.2543,-605.4359 476.671,-596.4216"/>
<polygon fill="#ff0000" stroke="#ff0000" points="479.6102,-598.3229 482.2853,-588.0713 473.8011,-594.4171 479.6102,-598.3229"/>
</g>
<!-- x2i_o2g1 -->
<g id="node18" class="node">
<title>x2i_o2g1</title>
<ellipse fill="none" stroke="#000000" cx="332" cy="-571" rx="27" ry="18"/>
<text text-anchor="middle" x="332" y="-567.3" font-family="Times,serif" font-size="14.00" fill="#000000">PiL</text>
</g>
<!-- hbg1&#45;&gt;x2i_o2g1 -->
<g id="edge16" class="edge">
<title>hbg1&#45;&gt;x2i_o2g1</title>
<path fill="none" stroke="#0000ff" d="M332,-655.5014C332,-639.918 332,-617.3188 332,-599.4118"/>
<polygon fill="#0000ff" stroke="#0000ff" points="335.5001,-599.2367 332,-589.2367 328.5001,-599.2368 335.5001,-599.2367"/>
<text text-anchor="middle" x="349.5" y="-610.8" font-family="Times,serif" font-size="14.00" fill="#000000">2&#45;&gt;1</text>
</g>
<!-- x2i_o2g1&#45;&gt;d1d -->
<g id="edge17" class="edge">
<title>x2i_o2g1&#45;&gt;d1d</title>
<path fill="none" stroke="#ff0000" d="M348.6781,-556.6337C364.7842,-542.7601 389.3851,-521.5693 407.8649,-505.651"/>
<polygon fill="#ff0000" stroke="#ff0000" points="410.3271,-508.1496 415.6195,-498.9713 405.7586,-502.8459 410.3271,-508.1496"/>
</g>
<!-- f_retg1 -->
<g id="node19" class="node">
<title>f_retg1</title>
<ellipse fill="none" stroke="#000000" cx="166" cy="-484" rx="27" ry="18"/>
<text text-anchor="middle" x="166" y="-480.3" font-family="Times,serif" font-size="14.00" fill="#000000">I</text>
</g>
<!-- x2i_o2g1&#45;&gt;f_retg1 -->
<g id="edge18" class="edge">
<title>x2i_o2g1&#45;&gt;f_retg1</title>
<path fill="none" stroke="#0000ff" d="M313.4709,-557.9C297.5951,-546.9936 273.8919,-531.4526 252,-520 235.1348,-511.1771 215.6174,-502.8637 199.443,-496.4534"/>
<polygon fill="#0000ff" stroke="#0000ff" points="200.4462,-493.0881 189.8578,-492.7204 197.9059,-499.6109 200.4462,-493.0881"/>
</g>
<!-- x2i_o2g2&#45;&gt;d1d -->
<g id="edge21" class="edge">
<title>x2i_o2g2&#45;&gt;d1d</title>
<path fill="none" stroke="#ff0000" d="M420.3152,-552.9735C422.5892,-540.6085 425.643,-524.0036 428.1844,-510.1847"/>
<ellipse fill="none" stroke="#ff0000" cx="428.9655" cy="-505.9374" rx="4" ry="4"/>
</g>
<!-- x2i_o2f -->
<g id="node21" class="node">
<title>x2i_o2f</title>
<ellipse fill="none" stroke="#000000" cx="358" cy="-484" rx="27" ry="18"/>
<text text-anchor="middle" x="358" y="-480.3" font-family="Times,serif" font-size="14.00" fill="#000000">PiL</text>
</g>
<!-- x2i_o2g2&#45;&gt;x2i_o2f -->
<g id="edge22" class="edge">
<title>x2i_o2g2&#45;&gt;x2i_o2f</title>
<path fill="none" stroke="#0000ff" stroke-width="2" d="M405.6242,-554.2255C396.9169,-541.3859 384.77,-523.4744 374.9232,-508.9546"/>
<polygon fill="#0000ff" stroke="#0000ff" stroke-width="2" points="377.6502,-506.7398 369.1408,-500.4279 371.8568,-510.6687 377.6502,-506.7398"/>
</g>
<!-- x2i_o2f&#45;&gt;f_retf -->
<g id="edge30" class="edge">
<title>x2i_o2f&#45;&gt;f_retf</title>
<path fill="none" stroke="#0000ff" stroke-width="2" d="M348.3605,-466.9524C342.3594,-456.7908 334.2361,-443.8082 326,-433 322.5955,-428.5323 318.743,-423.966 314.9024,-419.6513"/>
<polygon fill="#0000ff" stroke="#0000ff" stroke-width="2" points="317.4389,-417.2388 308.1016,-412.2324 312.2789,-421.9689 317.4389,-417.2388"/>
</g>
<!-- x2i_o2f&#45;&gt;d2c -->
<g id="edge29" class="edge">
<title>x2i_o2f&#45;&gt;d2c</title>
<path fill="none" stroke="#ff0000" d="M362.7656,-465.9735C365.9112,-454.0751 370.0946,-438.2508 373.661,-424.7606"/>
<polygon fill="#ff0000" stroke="#ff0000" points="377.0683,-425.5658 376.2405,-415.0034 370.3008,-423.7766 377.0683,-425.5658"/>
</g>
<!-- i_i3 -->
<g id="node39" class="node">
<title>i_i3</title>
<ellipse fill="none" stroke="#000000" cx="491" cy="-397" rx="27" ry="18"/>
<text text-anchor="middle" x="491" y="-393.3" font-family="Times,serif" font-size="14.00" fill="#000000">PiR</text>
</g>
<!-- i3&#45;&gt;i_i3 -->
<g id="edge55" class="edge">
<title>i3&#45;&gt;i_i3</title>
<path fill="none" stroke="#ff0000" d="M504.4776,-465.9735C502.1754,-454.1918 499.121,-438.5607 496.5022,-425.1581"/>
<polygon fill="#ff0000" stroke="#ff0000" points="499.8708,-424.1465 494.5179,-415.0034 493.0007,-425.489 499.8708,-424.1465"/>
<text text-anchor="middle" x="505" y="-436.8" font-family="Times,serif" font-size="14.00" fill="#000000">3</text>
</g>
<!-- x1_o2 -->
<g id="node26" class="node">
<title>x1_o2</title>
<ellipse fill="none" stroke="#000000" cx="257" cy="-324" rx="27" ry="18"/>
<text text-anchor="middle" x="257" y="-320.3" font-family="Times,serif" font-size="14.00" fill="#000000">I</text>
</g>
<!-- d2c&#45;&gt;x1_o2 -->
<g id="edge33" class="edge">
<title>d2c&#45;&gt;x1_o2</title>
<path fill="none" stroke="#ff0000" d="M359.4008,-384.2844C339.1536,-372.3646 308.7246,-354.4507 286.2957,-341.2467"/>
<polygon fill="#ff0000" stroke="#ff0000" points="287.9215,-338.1423 277.5282,-336.0852 284.3702,-344.1746 287.9215,-338.1423"/>
</g>
<!-- d2c&#45;&gt;d2d -->
<g id="edge47" class="edge">
<title>d2c&#45;&gt;d2d</title>
<path fill="none" stroke="#000000" stroke-dasharray="5,2" d="M398.6057,-382.2274C413.6999,-369.5622 435.3339,-351.4095 450.4204,-338.7507"/>
</g>
<!-- f2a&#45;&gt;xdicg1 -->
<g id="edge27" class="edge">
<title>f2a&#45;&gt;xdicg1</title>
<path fill="none" stroke="#0000ff" d="M181,-932.7682C181,-920.9865 181,-905.3553 181,-891.9528"/>
<polygon fill="#0000ff" stroke="#0000ff" points="184.5001,-891.798 181,-881.7981 177.5001,-891.7981 184.5001,-891.798"/>
</g>
<!-- f2a&#45;&gt;f_retg1 -->
<g id="edge26" class="edge">
<title>f2a&#45;&gt;f_retg1</title>
<path fill="none" stroke="#ff0000" d="M197.7936,-936.6363C214.6072,-920.7845 238,-893.4085 238,-863.7947 238,-863.7947 238,-863.7947 238,-571 238,-542.2232 214.3315,-517.8453 194.1351,-502.2818"/>
<polygon fill="#ff0000" stroke="#ff0000" points="196.1912,-499.4493 186.056,-496.3624 192.054,-505.096 196.1912,-499.4493"/>
</g>
<!-- hi_ret1 -->
<g id="node27" class="node">
<title>hi_ret1</title>
<ellipse fill="none" stroke="#000000" cx="27" cy="-324" rx="27" ry="18"/>
<text text-anchor="middle" x="27" y="-320.3" font-family="Times,serif" font-size="14.00" fill="#000000">I</text>
</g>
<!-- hi_retpa&#45;&gt;hi_ret1 -->
<g id="edge44" class="edge">
<title>hi_retpa&#45;&gt;hi_ret1</title>
<path fill="none" stroke="#ff0000" d="M34.7591,-553.4931C29.4882,-539.7584 22.8024,-520.0147 20,-502 11.836,-449.5195 17.7756,-387.3467 22.5703,-352.1029"/>
<polygon fill="#ff0000" stroke="#ff0000" points="26.0541,-352.465 24.0047,-342.0703 19.1245,-351.4743 26.0541,-352.465"/>
<text text-anchor="middle" x="22" y="-436.8" font-family="Times,serif" font-size="14.00" fill="#000000">2</text>
</g>
<!-- h_di1 -->
<g id="node35" class="node">
<title>h_di1</title>
<ellipse fill="none" stroke="#000000" cx="56" cy="-484" rx="27" ry="18"/>
<text text-anchor="middle" x="56" y="-480.3" font-family="Times,serif" font-size="14.00" fill="#000000">!d</text>
</g>
<!-- hi_retpa&#45;&gt;h_di1 -->
<g id="edge45" class="edge">
<title>hi_retpa&#45;&gt;h_di1</title>
<path fill="none" stroke="#0000ff" d="M44.9008,-552.9735C46.7967,-541.1918 49.3121,-525.5607 51.4688,-512.1581"/>
<polygon fill="#0000ff" stroke="#0000ff" points="54.9696,-512.4324 53.1029,-502.0034 48.0585,-511.3203 54.9696,-512.4324"/>
<text text-anchor="middle" x="54" y="-523.8" font-family="Times,serif" font-size="14.00" fill="#000000">1</text>
</g>
<!-- d4a -->
<g id="node28" class="node">
<title>d4a</title>
<ellipse fill="none" stroke="#000000" cx="438" cy="-164" rx="29.795" ry="18"/>
<text text-anchor="middle" x="438" y="-160.3" font-family="Times,serif" font-size="14.00" fill="#000000">Dup</text>
</g>
<!-- d4b -->
<g id="node29" class="node">
<title>d4b</title>
<ellipse fill="none" stroke="#000000" cx="533" cy="-164" rx="29.795" ry="18"/>
<text text-anchor="middle" x="533" y="-160.3" font-family="Times,serif" font-size="14.00" fill="#000000">Dup</text>
</g>
<!-- d4a&#45;&gt;d4b -->
<g id="edge34" class="edge">
<title>d4a&#45;&gt;d4b</title>
<path fill="none" stroke="#000000" stroke-dasharray="5,2" d="M468.0586,-164C479.7278,-164 491.3969,-164 503.0661,-164"/>
</g>
<!-- il -->
<g id="node30" class="node">
<title>il</title>
<ellipse fill="none" stroke="#000000" cx="468" cy="-91" rx="27" ry="18"/>
<text text-anchor="middle" x="468" y="-87.3" font-family="Times,serif" font-size="14.00" fill="#000000">!d</text>
</g>
<!-- d4a&#45;&gt;il -->
<g id="edge35" class="edge">
<title>d4a&#45;&gt;il</title>
<path fill="none" stroke="#0000ff" d="M445.2622,-146.3287C448.7629,-137.8103 453.0379,-127.4078 456.9324,-117.9312"/>
<polygon fill="#0000ff" stroke="#0000ff" points="460.2408,-119.0884 460.8047,-108.5085 453.7662,-116.4275 460.2408,-119.0884"/>
</g>
<!-- i_ret -->
<g id="node31" class="node">
<title>i_ret</title>
<ellipse fill="none" stroke="#000000" cx="500" cy="-18" rx="27" ry="18"/>
<text text-anchor="middle" x="500" y="-14.3" font-family="Times,serif" font-size="14.00" fill="#000000">I</text>
</g>
<!-- d4b&#45;&gt;i_ret -->
<g id="edge36" class="edge">
<title>d4b&#45;&gt;i_ret</title>
<path fill="none" stroke="#ff0000" d="M528.9536,-146.0975C523.3127,-121.141 513.0292,-75.6445 506.3585,-46.1314"/>
<polygon fill="#ff0000" stroke="#ff0000" points="509.6982,-45.0312 504.0795,-36.0489 502.8704,-46.5745 509.6982,-45.0312"/>
</g>
<!-- il&#45;&gt;i_ret -->
<g id="edge56" class="edge">
<title>il&#45;&gt;i_ret</title>
<path fill="none" stroke="#0000ff" d="M475.5836,-73.7C479.3816,-65.0357 484.0642,-54.3535 488.3095,-44.669"/>
<polygon fill="#0000ff" stroke="#0000ff" points="491.5507,-45.9927 492.36,-35.4288 485.1396,-43.1823 491.5507,-45.9927"/>
</g>
<!-- i_i1 -->
<g id="node32" class="node">
<title>i_i1</title>
<ellipse fill="none" stroke="#000000" cx="413" cy="-237" rx="27" ry="18"/>
<text text-anchor="middle" x="413" y="-233.3" font-family="Times,serif" font-size="14.00" fill="#000000">PiR</text>
</g>
<!-- i_i1&#45;&gt;d4a -->
<g id="edge37" class="edge">
<title>i_i1&#45;&gt;d4a</title>
<path fill="none" stroke="#0000ff" d="M419.0518,-219.3287C421.9171,-210.962 425.4049,-200.7776 428.6034,-191.4382"/>
<polygon fill="#0000ff" stroke="#0000ff" points="431.9885,-192.3561 431.9173,-181.7615 425.3661,-190.0881 431.9885,-192.3561"/>
</g>
<!-- i_i1&#45;&gt;d4b -->
<g id="edge38" class="edge">
<title>i_i1&#45;&gt;d4b</title>
<path fill="none" stroke="#ff0000" d="M433.0853,-224.7814C452.2024,-213.1519 481.2133,-195.5036 503.0577,-182.2149"/>
<polygon fill="#ff0000" stroke="#ff0000" points="504.9096,-185.1851 511.6339,-176.9977 501.2715,-179.2048 504.9096,-185.1851"/>
</g>
<!-- ha -->
<g id="node33" class="node">
<title>ha</title>
<ellipse fill="none" stroke="#000000" cx="56" cy="-397" rx="27" ry="18"/>
<text text-anchor="middle" x="56" y="-393.3" font-family="Times,serif" font-size="14.00" fill="#000000">PiL</text>
</g>
<!-- ha&#45;&gt;hi_ret1 -->
<g id="edge40" class="edge">
<title>ha&#45;&gt;hi_ret1</title>
<path fill="none" stroke="#0000ff" d="M48.9799,-379.3287C45.5959,-370.8103 41.4634,-360.4078 37.6987,-350.9312"/>
<polygon fill="#0000ff" stroke="#0000ff" points="40.9002,-349.5099 33.9554,-341.5085 34.3947,-352.0943 40.9002,-349.5099"/>
</g>
<!-- i1 -->
<g id="node34" class="node">
<title>i1</title>
<ellipse fill="none" stroke="#000000" cx="136" cy="-324" rx="27" ry="18"/>
<text text-anchor="middle" x="136" y="-320.3" font-family="Times,serif" font-size="14.00" fill="#000000">!p</text>
</g>
<!-- ha&#45;&gt;i1 -->
<g id="edge39" class="edge">
<title>ha&#45;&gt;i1</title>
<path fill="none" stroke="#ff0000" d="M72.1892,-382.2274C83.6833,-371.739 99.3015,-357.4874 112.2093,-345.709"/>
<polygon fill="#ff0000" stroke="#ff0000" points="114.8072,-348.0766 119.8349,-338.7507 110.0888,-342.9058 114.8072,-348.0766"/>
</g>
<!-- i1&#45;&gt;i_i1 -->
<g id="edge46" class="edge">
<title>i1&#45;&gt;i_i1</title>
<path fill="none" stroke="#ff0000" d="M160.5819,-316.2793C210.1701,-300.7047 322.2702,-265.4964 378.8985,-247.7106"/>
<polygon fill="#ff0000" stroke="#ff0000" points="379.9815,-251.0391 388.4732,-244.7034 377.8839,-244.3607 379.9815,-251.0391"/>
<text text-anchor="middle" x="296" y="-276.8" font-family="Times,serif" font-size="14.00" fill="#000000">3</text>
</g>
<!-- h_di1&#45;&gt;ha -->
<g id="edge41" class="edge">
<title>h_di1&#45;&gt;ha</title>
<path fill="none" stroke="#0000ff" d="M56,-465.9735C56,-454.1918 56,-438.5607 56,-425.1581"/>
<polygon fill="#0000ff" stroke="#0000ff" points="59.5001,-425.0033 56,-415.0034 52.5001,-425.0034 59.5001,-425.0033"/>
<text text-anchor="middle" x="61" y="-436.8" font-family="Times,serif" font-size="14.00" fill="#000000">2</text>
</g>
<!-- c2a -->
<g id="node36" class="node">
<title>c2a</title>
<ellipse fill="none" stroke="#000000" cx="106" cy="-673.8973" rx="27.8951" ry="18"/>
<text text-anchor="middle" x="106" y="-670.1973" font-family="Times,serif" font-size="14.00" fill="#000000">Cut</text>
</g>
<!-- c2a&#45;&gt;hi_retpa -->
<g id="edge42" class="edge">
<title>c2a&#45;&gt;hi_retpa</title>
<path fill="none" stroke="#ff0000" d="M95.4317,-656.9059C85.1801,-640.4237 69.4973,-615.2093 57.7699,-596.3543"/>
<polygon fill="#ff0000" stroke="#ff0000" points="60.6253,-594.3182 52.3716,-587.6752 54.6812,-598.0153 60.6253,-594.3182"/>
<text text-anchor="middle" x="77" y="-610.8" font-family="Times,serif" font-size="14.00" fill="#000000">1</text>
</g>
<!-- c2a&#45;&gt;x1_o2 -->
<g id="edge43" class="edge">
<title>c2a&#45;&gt;x1_o2</title>
<path fill="none" stroke="#0000ff" d="M107.4194,-655.6948C108.8976,-635.1408 111,-600.6894 111,-571 111,-571 111,-571 111,-397 111,-372.2206 179.1307,-347.2303 222.3097,-333.8805"/>
<polygon fill="#0000ff" stroke="#0000ff" points="223.3438,-337.2244 231.9017,-330.9784 221.3166,-330.5243 223.3438,-337.2244"/>
</g>
<!-- d2d&#45;&gt;d4a -->
<g id="edge49" class="edge">
<title>d2d&#45;&gt;d4a</title>
<path fill="none" stroke="#0000ff" d="M464.8062,-305.7712C461.1101,-284.8141 454.7882,-249.3908 449,-219 447.2145,-209.6256 445.1841,-199.3684 443.3578,-190.2782"/>
<ellipse fill="none" stroke="#0000ff" cx="442.5424" cy="-186.2378" rx="4" ry="4"/>
</g>
<!-- d2d&#45;&gt;d2e -->
<g id="edge48" class="edge">
<title>d2d&#45;&gt;d2e</title>
<path fill="none" stroke="#000000" stroke-dasharray="5,2" d="M498.0586,-324C509.7278,-324 521.3969,-324 533.0661,-324"/>
</g>
<!-- d2e&#45;&gt;d4b -->
<g id="edge50" class="edge">
<title>d2e&#45;&gt;d4b</title>
<path fill="none" stroke="#ff0000" d="M559.6169,-305.957C554.3278,-277.7485 544.0736,-223.0594 537.9523,-190.4121"/>
<ellipse fill="none" stroke="#ff0000" cx="537.1539" cy="-186.1541" rx="4" ry="4"/>
</g>
<!-- i_i3&#45;&gt;d2d -->
<g id="edge53" class="edge">
<title>i_i3&#45;&gt;d2d</title>
<path fill="none" stroke="#0000ff" d="M485.4323,-379.3287C482.628,-370.4279 479.1755,-359.47 476.0849,-349.6608"/>
<ellipse fill="none" stroke="#0000ff" cx="474.7982" cy="-345.5767" rx="4" ry="4"/>
</g>
<!-- i_i3&#45;&gt;d2e -->
<g id="edge54" class="edge">
<title>i_i3&#45;&gt;d2e</title>
<path fill="none" stroke="#ff0000" d="M505.9184,-381.8744C516.3009,-371.3477 530.2954,-357.1589 541.829,-345.465"/>
<ellipse fill="none" stroke="#ff0000" cx="544.795" cy="-342.4578" rx="4" ry="4"/>
</g>
</g>
</svg>
