<?xml version="1.0" encoding="UTF-8" standalone="no"?>
<!DOCTYPE svg PUBLIC "-//W3C//DTD SVG 1.1//EN"
 "http://www.w3.org/Graphics/SVG/1.1/DTD/svg11.dtd">
<!-- Generated by graphviz version 2.43.0 (0)
 -->
<!-- Title: %3 Pages: 1 -->
<svg width="601pt" height="1186pt"
 viewBox="0.00 0.00 600.90 1185.79" xmlns="http://www.w3.org/2000/svg" xmlns:xlink="http://www.w3.org/1999/xlink">
<g id="graph0" class="graph" transform="scale(1 1) rotate(0) translate(4 1181.79)">
<title>%3</title>
<polygon fill="white" stroke="transparent" points="-4,4 -4,-1181.79 596.9,-1181.79 596.9,4 -4,4"/>
<!-- Root -->
<g id="node1" class="node">
<title>Root</title>
<ellipse fill="none" stroke="black" cx="117.9" cy="-534.9" rx="32.49" ry="18"/>
<text text-anchor="middle" x="117.9" y="-531.2" font-family="Times,serif" font-size="14.00">Root</text>
</g>
<!-- f_retf -->
<g id="node2" class="node">
<title>f_retf</title>
<ellipse fill="none" stroke="black" cx="166.9" cy="-432" rx="27" ry="18"/>
<text text-anchor="middle" x="166.9" y="-428.3" font-family="Times,serif" font-size="14.00">I</text>
</g>
<!-- Root&#45;&gt;f_retf -->
<g id="edge1" class="edge">
<title>Root&#45;&gt;f_retf</title>
<path fill="none" stroke="red" stroke-width="2" d="M119.23,-516.76C120.89,-502.9 124.61,-483.26 132.9,-468 135.63,-462.97 139.28,-458.17 143.18,-453.81"/>
<polygon fill="red" stroke="red" stroke-width="2" points="145.83,-456.1 150.32,-446.51 140.83,-451.21 145.83,-456.1"/>
<text text-anchor="middle" x="150.4" y="-471.8" font-family="Times,serif" font-size="14.00">0&#45;&gt;1</text>
</g>
<!-- c1a -->
<g id="node3" class="node">
<title>c1a</title>
<ellipse fill="none" stroke="black" cx="554.9" cy="-1159.79" rx="27.1" ry="18"/>
<text text-anchor="middle" x="554.9" y="-1156.09" font-family="Times,serif" font-size="14.00">Cut</text>
</g>
<!-- fp1 -->
<g id="node4" class="node">
<title>fp1</title>
<ellipse fill="none" stroke="black" cx="517.9" cy="-1072.79" rx="27" ry="18"/>
<text text-anchor="middle" x="517.9" y="-1069.09" font-family="Times,serif" font-size="14.00">!p</text>
</g>
<!-- c1a&#45;&gt;fp1 -->
<g id="edge2" class="edge">
<title>c1a&#45;&gt;fp1</title>
<path fill="none" stroke="red" d="M547.76,-1142.41C542.52,-1130.37 535.3,-1113.78 529.27,-1099.92"/>
<polygon fill="red" stroke="red" points="532.34,-1098.2 525.14,-1090.42 525.92,-1100.99 532.34,-1098.2"/>
<text text-anchor="middle" x="542.9" y="-1112.59" font-family="Times,serif" font-size="14.00">0</text>
</g>
<!-- d2a -->
<g id="node5" class="node">
<title>d2a</title>
<ellipse fill="none" stroke="black" cx="562.9" cy="-724.79" rx="29.8" ry="18"/>
<text text-anchor="middle" x="562.9" y="-721.09" font-family="Times,serif" font-size="14.00">Dup</text>
</g>
<!-- c1a&#45;&gt;d2a -->
<g id="edge3" class="edge">
<title>c1a&#45;&gt;d2a</title>
<path fill="none" stroke="blue" d="M563.6,-1142.7C571.82,-1125.98 582.9,-1098.81 582.9,-1073.79 582.9,-1073.79 582.9,-1073.79 582.9,-810.79 582.9,-790.71 577.54,-768.64 572.37,-752.03"/>
<polygon fill="blue" stroke="blue" points="575.67,-750.86 569.23,-742.46 569.02,-753.05 575.67,-750.86"/>
<text text-anchor="middle" x="587.9" y="-938.59" font-family="Times,serif" font-size="14.00">1</text>
</g>
<!-- f2a -->
<g id="node22" class="node">
<title>f2a</title>
<ellipse fill="none" stroke="black" cx="492.9" cy="-985.79" rx="27" ry="18"/>
<text text-anchor="middle" x="492.9" y="-982.09" font-family="Times,serif" font-size="14.00">PiR</text>
</g>
<!-- fp1&#45;&gt;f2a -->
<g id="edge27" class="edge">
<title>fp1&#45;&gt;f2a</title>
<path fill="none" stroke="red" d="M512.96,-1055C509.47,-1043.13 504.71,-1026.96 500.71,-1013.35"/>
<polygon fill="red" stroke="red" points="504.01,-1012.16 497.83,-1003.55 497.29,-1014.13 504.01,-1012.16"/>
<text text-anchor="middle" x="510.9" y="-1025.59" font-family="Times,serif" font-size="14.00">1</text>
</g>
<!-- d2b -->
<g id="node7" class="node">
<title>d2b</title>
<ellipse fill="none" stroke="black" cx="33.9" cy="-534.9" rx="29.81" ry="29.81"/>
<ellipse fill="none" stroke="black" cx="33.9" cy="-534.9" rx="33.8" ry="33.8"/>
<text text-anchor="middle" x="33.9" y="-531.2" font-family="Times,serif" font-size="14.00">Dup</text>
</g>
<!-- d2a&#45;&gt;d2b -->
<g id="edge30" class="edge">
<title>d2a&#45;&gt;d2b</title>
<path fill="none" stroke="black" stroke-dasharray="5,2" d="M537.56,-715.12C518.89,-708.49 493,-698.82 470.9,-688.79 411.32,-661.78 402.58,-641.57 340.9,-619.79 228.21,-580.01 185.92,-617.74 76.9,-568.79 70.72,-566.02 64.62,-562.21 59.04,-558.16"/>
</g>
<!-- d2c -->
<g id="node21" class="node">
<title>d2c</title>
<ellipse fill="none" stroke="black" cx="307.9" cy="-432" rx="29.8" ry="18"/>
<text text-anchor="middle" x="307.9" y="-428.3" font-family="Times,serif" font-size="14.00">Dup</text>
</g>
<!-- d2a&#45;&gt;d2c -->
<g id="edge31" class="edge">
<title>d2a&#45;&gt;d2c</title>
<path fill="none" stroke="black" stroke-dasharray="5,2" d="M536,-716.8C521.3,-713.24 502.71,-709.18 485.9,-706.79 404.37,-695.24 170.52,-719.94 118.9,-655.79 99.54,-631.74 93.31,-612.17 110.9,-586.79 123.88,-568.07 141.61,-583.63 158.9,-568.79 185.11,-546.3 172.95,-525.89 196.9,-501 222.28,-474.62 259.99,-454.39 284.26,-443.1"/>
</g>
<!-- hi_retpa -->
<g id="node23" class="node">
<title>hi_retpa</title>
<ellipse fill="none" stroke="black" cx="506.9" cy="-637.79" rx="27" ry="18"/>
<text text-anchor="middle" x="506.9" y="-634.09" font-family="Times,serif" font-size="14.00">!p</text>
</g>
<!-- d2a&#45;&gt;hi_retpa -->
<g id="edge32" class="edge">
<title>d2a&#45;&gt;hi_retpa</title>
<path fill="none" stroke="blue" d="M552.36,-707.81C544.07,-695.22 532.38,-677.47 522.93,-663.13"/>
<polygon fill="blue" stroke="blue" points="525.81,-661.14 517.38,-654.71 519.96,-664.99 525.81,-661.14"/>
<text text-anchor="middle" x="542.9" y="-677.59" font-family="Times,serif" font-size="14.00">1</text>
</g>
<!-- c1b2 -->
<g id="node6" class="node">
<title>c1b2</title>
<ellipse fill="none" stroke="black" cx="108.9" cy="-985.79" rx="27.1" ry="18"/>
<text text-anchor="middle" x="108.9" y="-982.09" font-family="Times,serif" font-size="14.00">Cut</text>
</g>
<!-- c1b2&#45;&gt;d2b -->
<g id="edge4" class="edge">
<title>c1b2&#45;&gt;d2b</title>
<path fill="none" stroke="red" stroke-width="2" d="M87.01,-974.71C61.82,-961.42 23.9,-935.48 23.9,-899.79 23.9,-899.79 23.9,-899.79 23.9,-636.79 23.9,-617.67 25.7,-596.6 27.77,-578.68"/>
<polygon fill="red" stroke="red" stroke-width="2" points="31.27,-578.88 29.01,-568.53 24.33,-578.03 31.27,-578.88"/>
<text text-anchor="middle" x="28.9" y="-764.59" font-family="Times,serif" font-size="14.00">2</text>
</g>
<!-- xdicg2 -->
<g id="node8" class="node">
<title>xdicg2</title>
<ellipse fill="none" stroke="black" cx="190.9" cy="-898.79" rx="27" ry="18"/>
<text text-anchor="middle" x="190.9" y="-895.09" font-family="Times,serif" font-size="14.00">!c</text>
</g>
<!-- c1b2&#45;&gt;xdicg2 -->
<g id="edge5" class="edge">
<title>c1b2&#45;&gt;xdicg2</title>
<path fill="none" stroke="blue" stroke-width="2" d="M123.18,-969.99C136,-956.7 154.98,-937.02 169.59,-921.88"/>
<polygon fill="blue" stroke="blue" stroke-width="2" points="172.35,-924.06 176.78,-914.43 167.32,-919.2 172.35,-924.06"/>
<text text-anchor="middle" x="159.9" y="-938.59" font-family="Times,serif" font-size="14.00">1</text>
</g>
<!-- i2 -->
<g id="node24" class="node">
<title>i2</title>
<ellipse fill="none" stroke="black" cx="197.9" cy="-378" rx="27" ry="18"/>
<text text-anchor="middle" x="197.9" y="-374.3" font-family="Times,serif" font-size="14.00">!p</text>
</g>
<!-- d2b&#45;&gt;i2 -->
<g id="edge33" class="edge">
<title>d2b&#45;&gt;i2</title>
<path fill="none" stroke="red" d="M51.6,-505.92C69.26,-479.69 98.37,-440.63 130.9,-414 141.47,-405.34 154.54,-397.94 166.31,-392.19"/>
<polygon fill="red" stroke="red" points="167.82,-395.35 175.4,-387.96 164.86,-389.01 167.82,-395.35"/>
</g>
<!-- d1b -->
<g id="node9" class="node">
<title>d1b</title>
<ellipse fill="none" stroke="black" cx="524.9" cy="-811.79" rx="29.8" ry="18"/>
<text text-anchor="middle" x="524.9" y="-808.09" font-family="Times,serif" font-size="14.00">Dup</text>
</g>
<!-- xdicg2&#45;&gt;d1b -->
<g id="edge15" class="edge">
<title>xdicg2&#45;&gt;d1b</title>
<path fill="none" stroke="blue" d="M216.99,-893.45C268.97,-884.44 388.82,-861.84 485.9,-829.79 488.73,-828.86 491.64,-827.8 494.53,-826.67"/>
<ellipse fill="none" stroke="blue" cx="498.37" cy="-825.1" rx="4" ry="4"/>
</g>
<!-- h_di2g2 -->
<g id="node17" class="node">
<title>h_di2g2</title>
<ellipse fill="none" stroke="black" cx="190.9" cy="-811.79" rx="27" ry="18"/>
<text text-anchor="middle" x="190.9" y="-808.09" font-family="Times,serif" font-size="14.00">!d</text>
</g>
<!-- xdicg2&#45;&gt;h_di2g2 -->
<g id="edge16" class="edge">
<title>xdicg2&#45;&gt;h_di2g2</title>
<path fill="none" stroke="blue" stroke-width="2" d="M190.9,-880.59C190.9,-868.96 190.9,-853.34 190.9,-840.03"/>
<polygon fill="blue" stroke="blue" stroke-width="2" points="194.4,-839.97 190.9,-829.97 187.4,-839.97 194.4,-839.97"/>
<text text-anchor="middle" x="195.9" y="-851.59" font-family="Times,serif" font-size="14.00">1</text>
</g>
<!-- d1b&#45;&gt;d2a -->
<g id="edge22" class="edge">
<title>d1b&#45;&gt;d2a</title>
<path fill="none" stroke="blue" d="M532.4,-794C538.06,-781.35 545.9,-763.82 552.21,-749.7"/>
<ellipse fill="none" stroke="blue" cx="553.9" cy="-745.92" rx="4" ry="4"/>
</g>
<!-- d1c -->
<g id="node10" class="node">
<title>d1c</title>
<ellipse fill="none" stroke="black" cx="157.9" cy="-637.79" rx="29.8" ry="18"/>
<text text-anchor="middle" x="157.9" y="-634.09" font-family="Times,serif" font-size="14.00">Dup</text>
</g>
<!-- d1b&#45;&gt;d1c -->
<g id="edge6" class="edge">
<title>d1b&#45;&gt;d1c</title>
<path fill="none" stroke="black" stroke-dasharray="5,2" d="M523.38,-793.63C520.38,-770.4 511.55,-729.31 485.9,-706.79 387.86,-620.77 322.72,-690.14 196.9,-655.79 191.34,-654.28 185.55,-652.11 180.18,-649.82"/>
</g>
<!-- d1d -->
<g id="node11" class="node">
<title>d1d</title>
<ellipse fill="none" stroke="black" cx="307.9" cy="-534.9" rx="29.8" ry="18"/>
<text text-anchor="middle" x="307.9" y="-531.2" font-family="Times,serif" font-size="14.00">Dup</text>
</g>
<!-- d1b&#45;&gt;d1d -->
<g id="edge7" class="edge">
<title>d1b&#45;&gt;d1d</title>
<path fill="none" stroke="black" stroke-dasharray="5,2" d="M502.07,-800.03C496.83,-797.78 491.22,-795.57 485.9,-793.79 474.15,-789.89 279.94,-748.4 268.9,-742.79 246.97,-731.67 247.53,-720.16 226.9,-706.79 182.35,-677.93 147.31,-700.63 118.9,-655.79 58.51,-560.5 218.29,-597.38 268.9,-568.79 277.54,-563.91 286.08,-557.01 292.96,-550.78"/>
</g>
<!-- d1c&#45;&gt;d2b -->
<g id="edge23" class="edge">
<title>d1c&#45;&gt;d2b</title>
<path fill="none" stroke="red" d="M140.92,-622.98C121.68,-607.32 89.88,-581.45 65.94,-561.97"/>
<ellipse fill="none" stroke="red" cx="62.83" cy="-559.44" rx="4" ry="4"/>
</g>
<!-- d1d&#45;&gt;d2c -->
<g id="edge24" class="edge">
<title>d1d&#45;&gt;d2c</title>
<path fill="none" stroke="red" d="M307.9,-516.78C307.9,-500.84 307.9,-476.85 307.9,-458.62"/>
<ellipse fill="none" stroke="red" cx="307.9" cy="-454.2" rx="4" ry="4"/>
</g>
<!-- xdicg1 -->
<g id="node12" class="node">
<title>xdicg1</title>
<ellipse fill="none" stroke="black" cx="492.9" cy="-898.79" rx="27" ry="18"/>
<text text-anchor="middle" x="492.9" y="-895.09" font-family="Times,serif" font-size="14.00">!c</text>
</g>
<!-- xdicg1&#45;&gt;d1b -->
<g id="edge8" class="edge">
<title>xdicg1&#45;&gt;d1b</title>
<path fill="none" stroke="blue" d="M499.22,-881C503.73,-869.01 509.89,-852.65 515.05,-838.95"/>
<polygon fill="blue" stroke="blue" points="518.34,-840.15 518.59,-829.55 511.79,-837.68 518.34,-840.15"/>
</g>
<!-- h_di2g1 -->
<g id="node13" class="node">
<title>h_di2g1</title>
<ellipse fill="none" stroke="black" cx="449.9" cy="-811.79" rx="27" ry="18"/>
<text text-anchor="middle" x="449.9" y="-808.09" font-family="Times,serif" font-size="14.00">!d</text>
</g>
<!-- xdicg1&#45;&gt;h_di2g1 -->
<g id="edge9" class="edge">
<title>xdicg1&#45;&gt;h_di2g1</title>
<path fill="none" stroke="blue" d="M484.61,-881.41C478.42,-869.18 469.85,-852.24 462.78,-838.25"/>
<polygon fill="blue" stroke="blue" points="465.8,-836.48 458.16,-829.13 459.55,-839.64 465.8,-836.48"/>
<text text-anchor="middle" x="478.9" y="-851.59" font-family="Times,serif" font-size="14.00">1</text>
</g>
<!-- hbg1 -->
<g id="node14" class="node">
<title>hbg1</title>
<ellipse fill="none" stroke="black" cx="304.9" cy="-724.79" rx="27" ry="18"/>
<text text-anchor="middle" x="304.9" y="-721.09" font-family="Times,serif" font-size="14.00">PiL</text>
</g>
<!-- h_di2g1&#45;&gt;hbg1 -->
<g id="edge10" class="edge">
<title>h_di2g1&#45;&gt;hbg1</title>
<path fill="none" stroke="blue" d="M430.34,-799.33C405.37,-784.69 361.97,-759.25 333.34,-742.47"/>
<polygon fill="blue" stroke="blue" points="335,-739.39 324.61,-737.35 331.46,-745.42 335,-739.39"/>
<text text-anchor="middle" x="391.9" y="-764.59" font-family="Times,serif" font-size="14.00">2</text>
</g>
<!-- hbg1&#45;&gt;d1c -->
<g id="edge11" class="edge">
<title>hbg1&#45;&gt;d1c</title>
<path fill="none" stroke="red" d="M292.54,-708.27C283.03,-697.25 268.99,-682.86 253.9,-673.79 231.12,-660.12 221.78,-665.12 196.9,-655.79 194.82,-655.02 192.69,-654.19 190.55,-653.33"/>
<polygon fill="red" stroke="red" points="191.82,-650.06 181.24,-649.45 189.13,-656.52 191.82,-650.06"/>
</g>
<!-- x2i_o2g1 -->
<g id="node15" class="node">
<title>x2i_o2g1</title>
<ellipse fill="none" stroke="black" cx="304.9" cy="-637.79" rx="27" ry="18"/>
<text text-anchor="middle" x="304.9" y="-634.09" font-family="Times,serif" font-size="14.00">PiL</text>
</g>
<!-- hbg1&#45;&gt;x2i_o2g1 -->
<g id="edge12" class="edge">
<title>hbg1&#45;&gt;x2i_o2g1</title>
<path fill="none" stroke="blue" d="M304.9,-706.59C304.9,-694.96 304.9,-679.34 304.9,-666.03"/>
<polygon fill="blue" stroke="blue" points="308.4,-665.97 304.9,-655.97 301.4,-665.97 308.4,-665.97"/>
<text text-anchor="middle" x="322.4" y="-677.59" font-family="Times,serif" font-size="14.00">2&#45;&gt;1</text>
</g>
<!-- x2i_o2g1&#45;&gt;d1d -->
<g id="edge13" class="edge">
<title>x2i_o2g1&#45;&gt;d1d</title>
<path fill="none" stroke="red" d="M305.41,-619.68C305.87,-604.24 306.55,-581.27 307.08,-563.28"/>
<polygon fill="red" stroke="red" points="310.59,-563.2 307.39,-553.1 303.59,-562.99 310.59,-563.2"/>
</g>
<!-- f_retg1 -->
<g id="node16" class="node">
<title>f_retg1</title>
<ellipse fill="none" stroke="black" cx="384.9" cy="-534.9" rx="27" ry="18"/>
<text text-anchor="middle" x="384.9" y="-531.2" font-family="Times,serif" font-size="14.00">I</text>
</g>
<!-- x2i_o2g1&#45;&gt;f_retg1 -->
<g id="edge14" class="edge">
<title>x2i_o2g1&#45;&gt;f_retg1</title>
<path fill="none" stroke="blue" d="M317.05,-621.47C330.22,-604.85 351.4,-578.15 366.59,-558.99"/>
<polygon fill="blue" stroke="blue" points="369.42,-561.05 372.89,-551.04 363.94,-556.7 369.42,-561.05"/>
</g>
<!-- hbg2 -->
<g id="node18" class="node">
<title>hbg2</title>
<ellipse fill="none" stroke="black" cx="190.9" cy="-724.79" rx="27" ry="18"/>
<text text-anchor="middle" x="190.9" y="-721.09" font-family="Times,serif" font-size="14.00">PiL</text>
</g>
<!-- h_di2g2&#45;&gt;hbg2 -->
<g id="edge17" class="edge">
<title>h_di2g2&#45;&gt;hbg2</title>
<path fill="none" stroke="blue" stroke-width="2" d="M190.9,-793.59C190.9,-781.96 190.9,-766.34 190.9,-753.03"/>
<polygon fill="blue" stroke="blue" stroke-width="2" points="194.4,-752.97 190.9,-742.97 187.4,-752.97 194.4,-752.97"/>
<text text-anchor="middle" x="195.9" y="-764.59" font-family="Times,serif" font-size="14.00">2</text>
</g>
<!-- hbg2&#45;&gt;d1c -->
<g id="edge18" class="edge">
<title>hbg2&#45;&gt;d1c</title>
<path fill="none" stroke="red" d="M184.38,-707C179.54,-694.54 172.87,-677.37 167.44,-663.37"/>
<ellipse fill="none" stroke="red" cx="165.85" cy="-659.28" rx="4" ry="4"/>
</g>
<!-- x2i_o2g2 -->
<g id="node19" class="node">
<title>x2i_o2g2</title>
<ellipse fill="none" stroke="black" cx="232.9" cy="-637.79" rx="27" ry="18"/>
<text text-anchor="middle" x="232.9" y="-634.09" font-family="Times,serif" font-size="14.00">PiL</text>
</g>
<!-- hbg2&#45;&gt;x2i_o2g2 -->
<g id="edge19" class="edge">
<title>hbg2&#45;&gt;x2i_o2g2</title>
<path fill="none" stroke="blue" stroke-width="2" d="M199,-707.41C205.04,-695.18 213.41,-678.24 220.32,-664.25"/>
<polygon fill="blue" stroke="blue" stroke-width="2" points="223.53,-665.65 224.82,-655.13 217.26,-662.55 223.53,-665.65"/>
<text text-anchor="middle" x="232.4" y="-677.59" font-family="Times,serif" font-size="14.00">2&#45;&gt;1</text>
</g>
<!-- x2i_o2g2&#45;&gt;d1d -->
<g id="edge20" class="edge">
<title>x2i_o2g2&#45;&gt;d1d</title>
<path fill="none" stroke="red" d="M244.29,-621.47C256.82,-604.61 277.09,-577.34 291.37,-558.13"/>
<ellipse fill="none" stroke="red" cx="293.77" cy="-554.91" rx="4" ry="4"/>
</g>
<!-- x2i_o2f -->
<g id="node20" class="node">
<title>x2i_o2f</title>
<ellipse fill="none" stroke="black" cx="232.9" cy="-534.9" rx="27" ry="18"/>
<text text-anchor="middle" x="232.9" y="-531.2" font-family="Times,serif" font-size="14.00">PiL</text>
</g>
<!-- x2i_o2g2&#45;&gt;x2i_o2f -->
<g id="edge21" class="edge">
<title>x2i_o2g2&#45;&gt;x2i_o2f</title>
<path fill="none" stroke="blue" stroke-width="2" d="M232.9,-619.68C232.9,-604.24 232.9,-581.27 232.9,-563.28"/>
<polygon fill="blue" stroke="blue" stroke-width="2" points="236.4,-563.1 232.9,-553.1 229.4,-563.1 236.4,-563.1"/>
</g>
<!-- x2i_o2f&#45;&gt;f_retf -->
<g id="edge29" class="edge">
<title>x2i_o2f&#45;&gt;f_retf</title>
<path fill="none" stroke="blue" stroke-width="2" d="M222.58,-518.13C211.94,-501.86 195.2,-476.27 182.85,-457.39"/>
<polygon fill="blue" stroke="blue" stroke-width="2" points="185.76,-455.44 177.36,-448.99 179.9,-459.27 185.76,-455.44"/>
</g>
<!-- x2i_o2f&#45;&gt;d2c -->
<g id="edge28" class="edge">
<title>x2i_o2f&#45;&gt;d2c</title>
<path fill="none" stroke="red" d="M244.29,-518.57C256.44,-502.22 275.86,-476.1 290.05,-457.02"/>
<polygon fill="red" stroke="red" points="292.99,-458.92 296.15,-448.8 287.38,-454.74 292.99,-458.92"/>
</g>
<!-- x1_o2 -->
<g id="node25" class="node">
<title>x1_o2</title>
<ellipse fill="none" stroke="black" cx="378.9" cy="-324" rx="27" ry="18"/>
<text text-anchor="middle" x="378.9" y="-320.3" font-family="Times,serif" font-size="14.00">I</text>
</g>
<!-- d2c&#45;&gt;x1_o2 -->
<g id="edge34" class="edge">
<title>d2c&#45;&gt;x1_o2</title>
<path fill="none" stroke="red" d="M318.68,-414.9C330.37,-397.44 349.17,-369.39 362.65,-349.26"/>
<polygon fill="red" stroke="red" points="365.59,-351.16 368.25,-340.9 359.77,-347.26 365.59,-351.16"/>
</g>
<!-- f2a&#45;&gt;xdicg1 -->
<g id="edge26" class="edge">
<title>f2a&#45;&gt;xdicg1</title>
<path fill="none" stroke="blue" d="M492.9,-967.59C492.9,-955.96 492.9,-940.34 492.9,-927.03"/>
<polygon fill="blue" stroke="blue" points="496.4,-926.97 492.9,-916.97 489.4,-926.97 496.4,-926.97"/>
</g>
<!-- f2a&#45;&gt;f_retg1 -->
<g id="edge25" class="edge">
<title>f2a&#45;&gt;f_retg1</title>
<path fill="none" stroke="red" d="M469.67,-976.49C440.69,-964.46 394.9,-939.21 394.9,-899.79 394.9,-899.79 394.9,-899.79 394.9,-723.79 394.9,-666.66 390.23,-599.89 387.27,-563.32"/>
<polygon fill="red" stroke="red" points="390.73,-562.66 386.42,-552.98 383.75,-563.23 390.73,-562.66"/>
</g>
<!-- hi_ret1 -->
<g id="node26" class="node">
<title>hi_ret1</title>
<ellipse fill="none" stroke="black" cx="474.9" cy="-324" rx="27" ry="18"/>
<text text-anchor="middle" x="474.9" y="-320.3" font-family="Times,serif" font-size="14.00">I</text>
</g>
<!-- hi_retpa&#45;&gt;hi_ret1 -->
<g id="edge41" class="edge">
<title>hi_retpa&#45;&gt;hi_ret1</title>
<path fill="none" stroke="red" d="M505.13,-619.59C499.85,-568.16 484.17,-415.31 477.72,-352.46"/>
<polygon fill="red" stroke="red" points="481.16,-351.74 476.66,-342.15 474.2,-352.46 481.16,-351.74"/>
<text text-anchor="middle" x="495.9" y="-471.8" font-family="Times,serif" font-size="14.00">2</text>
</g>
<!-- h_di1 -->
<g id="node31" class="node">
<title>h_di1</title>
<ellipse fill="none" stroke="black" cx="537.9" cy="-534.9" rx="27" ry="18"/>
<text text-anchor="middle" x="537.9" y="-531.2" font-family="Times,serif" font-size="14.00">!d</text>
</g>
<!-- hi_retpa&#45;&gt;h_di1 -->
<g id="edge42" class="edge">
<title>hi_retpa&#45;&gt;h_di1</title>
<path fill="none" stroke="blue" d="M512.16,-619.68C516.97,-604 524.18,-580.55 529.74,-562.45"/>
<polygon fill="blue" stroke="blue" points="533.12,-563.35 532.72,-552.76 526.43,-561.29 533.12,-563.35"/>
<text text-anchor="middle" x="525.9" y="-590.59" font-family="Times,serif" font-size="14.00">1</text>
</g>
<!-- d4b -->
<g id="node27" class="node">
<title>d4b</title>
<ellipse fill="none" stroke="black" cx="297.9" cy="-237" rx="29.8" ry="18"/>
<text text-anchor="middle" x="297.9" y="-233.3" font-family="Times,serif" font-size="14.00">Dup</text>
</g>
<!-- i2&#45;&gt;d4b -->
<g id="edge44" class="edge">
<title>i2&#45;&gt;d4b</title>
<path fill="none" stroke="red" d="M209.17,-361.33C226.88,-336.71 261.28,-288.9 281.65,-260.58"/>
<ellipse fill="none" stroke="red" cx="284.17" cy="-257.08" rx="4" ry="4"/>
<text text-anchor="middle" x="252.9" y="-320.3" font-family="Times,serif" font-size="14.00">3</text>
</g>
<!-- i_i -->
<g id="node28" class="node">
<title>i_i</title>
<ellipse fill="none" stroke="black" cx="297.9" cy="-164" rx="27" ry="18"/>
<text text-anchor="middle" x="297.9" y="-160.3" font-family="Times,serif" font-size="14.00">PiR</text>
</g>
<!-- d4b&#45;&gt;i_i -->
<g id="edge35" class="edge">
<title>d4b&#45;&gt;i_i</title>
<path fill="none" stroke="red" d="M297.9,-218.81C297.9,-210.79 297.9,-201.05 297.9,-192.07"/>
<polygon fill="red" stroke="red" points="301.4,-192.03 297.9,-182.03 294.4,-192.03 301.4,-192.03"/>
</g>
<!-- il -->
<g id="node33" class="node">
<title>il</title>
<ellipse fill="none" stroke="black" cx="340.9" cy="-91" rx="27" ry="18"/>
<text text-anchor="middle" x="340.9" y="-87.3" font-family="Times,serif" font-size="14.00">!d</text>
</g>
<!-- i_i&#45;&gt;il -->
<g id="edge45" class="edge">
<title>i_i&#45;&gt;il</title>
<path fill="none" stroke="blue" d="M307.65,-146.89C313.04,-137.99 319.85,-126.75 325.9,-116.77"/>
<polygon fill="blue" stroke="blue" points="328.99,-118.41 331.18,-108.05 323,-114.79 328.99,-118.41"/>
</g>
<!-- i_ret -->
<g id="node34" class="node">
<title>i_ret</title>
<ellipse fill="none" stroke="black" cx="297.9" cy="-18" rx="27" ry="18"/>
<text text-anchor="middle" x="297.9" y="-14.3" font-family="Times,serif" font-size="14.00">I</text>
</g>
<!-- i_i&#45;&gt;i_ret -->
<g id="edge46" class="edge">
<title>i_i&#45;&gt;i_ret</title>
<path fill="none" stroke="red" d="M297.9,-145.92C297.9,-121.34 297.9,-75.75 297.9,-46.43"/>
<polygon fill="red" stroke="red" points="301.4,-46.06 297.9,-36.06 294.4,-46.06 301.4,-46.06"/>
</g>
<!-- ha -->
<g id="node29" class="node">
<title>ha</title>
<ellipse fill="none" stroke="black" cx="537.9" cy="-432" rx="27" ry="18"/>
<text text-anchor="middle" x="537.9" y="-428.3" font-family="Times,serif" font-size="14.00">PiL</text>
</g>
<!-- ha&#45;&gt;hi_ret1 -->
<g id="edge37" class="edge">
<title>ha&#45;&gt;hi_ret1</title>
<path fill="none" stroke="blue" d="M528.79,-414.83C520.59,-400.37 508.14,-378.65 496.9,-360 494.83,-356.57 492.62,-352.97 490.43,-349.45"/>
<polygon fill="blue" stroke="blue" points="493.38,-347.57 485.1,-340.95 487.45,-351.28 493.38,-347.57"/>
</g>
<!-- i1 -->
<g id="node30" class="node">
<title>i1</title>
<ellipse fill="none" stroke="black" cx="546.9" cy="-324" rx="27" ry="18"/>
<text text-anchor="middle" x="546.9" y="-320.3" font-family="Times,serif" font-size="14.00">!p</text>
</g>
<!-- ha&#45;&gt;i1 -->
<g id="edge36" class="edge">
<title>ha&#45;&gt;i1</title>
<path fill="none" stroke="red" d="M539.34,-413.97C540.76,-397.28 542.94,-371.58 544.6,-352.08"/>
<polygon fill="red" stroke="red" points="548.1,-352.25 545.45,-341.99 541.12,-351.66 548.1,-352.25"/>
</g>
<!-- i1&#45;&gt;d4b -->
<g id="edge43" class="edge">
<title>i1&#45;&gt;d4b</title>
<path fill="none" stroke="red" d="M525.78,-312.46C520.94,-310.2 515.79,-307.92 510.9,-306 450.04,-282.04 377.02,-260.16 334.21,-248"/>
<polygon fill="red" stroke="red" points="335.1,-244.62 324.52,-245.27 333.2,-251.35 335.1,-244.62"/>
<text text-anchor="middle" x="464.9" y="-276.8" font-family="Times,serif" font-size="14.00">3</text>
</g>
<!-- h_di1&#45;&gt;ha -->
<g id="edge38" class="edge">
<title>h_di1&#45;&gt;ha</title>
<path fill="none" stroke="blue" d="M537.9,-516.78C537.9,-501.34 537.9,-478.37 537.9,-460.38"/>
<polygon fill="blue" stroke="blue" points="541.4,-460.2 537.9,-450.2 534.4,-460.2 541.4,-460.2"/>
<text text-anchor="middle" x="542.9" y="-471.8" font-family="Times,serif" font-size="14.00">2</text>
</g>
<!-- c2a -->
<g id="node32" class="node">
<title>c2a</title>
<ellipse fill="none" stroke="black" cx="449.9" cy="-724.79" rx="27.1" ry="18"/>
<text text-anchor="middle" x="449.9" y="-721.09" font-family="Times,serif" font-size="14.00">Cut</text>
</g>
<!-- c2a&#45;&gt;hi_retpa -->
<g id="edge39" class="edge">
<title>c2a&#45;&gt;hi_retpa</title>
<path fill="none" stroke="red" d="M460.62,-707.81C469.11,-695.14 481.11,-677.25 490.76,-662.86"/>
<polygon fill="red" stroke="red" points="493.75,-664.68 496.42,-654.42 487.94,-660.78 493.75,-664.68"/>
<text text-anchor="middle" x="485.9" y="-677.59" font-family="Times,serif" font-size="14.00">1</text>
</g>
<!-- c2a&#45;&gt;x1_o2 -->
<g id="edge40" class="edge">
<title>c2a&#45;&gt;x1_o2</title>
<path fill="none" stroke="blue" d="M448.29,-706.56C446.83,-689.4 444.9,-662.3 444.9,-638.79 444.9,-638.79 444.9,-638.79 444.9,-431 444.9,-397.51 420.86,-365.84 401.8,-345.98"/>
<polygon fill="blue" stroke="blue" points="404.09,-343.32 394.54,-338.73 399.14,-348.27 404.09,-343.32"/>
</g>
<!-- il&#45;&gt;i_ret -->
<g id="edge47" class="edge">
<title>il&#45;&gt;i_ret</title>
<path fill="none" stroke="blue" d="M331.14,-73.89C325.75,-64.99 318.95,-53.75 312.9,-43.77"/>
<polygon fill="blue" stroke="blue" points="315.79,-41.79 307.62,-35.05 309.8,-45.41 315.79,-41.79"/>
</g>
</g>
</svg>
