<?xml version="1.0" encoding="UTF-8" standalone="no"?>
<!DOCTYPE svg PUBLIC "-//W3C//DTD SVG 1.1//EN"
 "http://www.w3.org/Graphics/SVG/1.1/DTD/svg11.dtd">
<!-- Generated by graphviz version 2.43.0 (0)
 -->
<!-- Title: %3 Pages: 1 -->
<svg width="415pt" height="1394pt"
 viewBox="0.00 0.00 414.56 1394.00" xmlns="http://www.w3.org/2000/svg" xmlns:xlink="http://www.w3.org/1999/xlink">
<g id="graph0" class="graph" transform="scale(1 1) rotate(0) translate(4 1390)">
<title>%3</title>
<polygon fill="white" stroke="transparent" points="-4,4 -4,-1390 410.56,-1390 410.56,4 -4,4"/>
<!-- Root -->
<g id="node1" class="node">
<title>Root</title>
<ellipse fill="none" stroke="black" cx="234.56" cy="-1368" rx="32.49" ry="18"/>
<text text-anchor="middle" x="234.56" y="-1364.3" font-family="Times,serif" font-size="14.00">Root</text>
</g>
<!-- c1a -->
<g id="node2" class="node">
<title>c1a</title>
<ellipse fill="none" stroke="black" cx="125.56" cy="-1295" rx="27.1" ry="18"/>
<text text-anchor="middle" x="125.56" y="-1291.3" font-family="Times,serif" font-size="14.00">Cut</text>
</g>
<!-- Root&#45;&gt;c1a -->
<g id="edge1" class="edge">
<title>Root&#45;&gt;c1a</title>
<path fill="none" stroke="black" d="M214.31,-1353.81C196.98,-1342.53 171.89,-1326.18 152.8,-1313.75"/>
<polygon fill="black" stroke="black" points="154.53,-1310.69 144.24,-1308.17 150.71,-1316.56 154.53,-1310.69"/>
</g>
<!-- c1b -->
<g id="node3" class="node">
<title>c1b</title>
<ellipse fill="none" stroke="black" cx="234.56" cy="-1295" rx="27.1" ry="18"/>
<text text-anchor="middle" x="234.56" y="-1291.3" font-family="Times,serif" font-size="14.00">Cut</text>
</g>
<!-- Root&#45;&gt;c1b -->
<g id="edge2" class="edge">
<title>Root&#45;&gt;c1b</title>
<path fill="none" stroke="black" d="M234.56,-1349.81C234.56,-1341.79 234.56,-1332.05 234.56,-1323.07"/>
<polygon fill="black" stroke="black" points="238.06,-1323.03 234.56,-1313.03 231.06,-1323.03 238.06,-1323.03"/>
</g>
<!-- f_ret1 -->
<g id="node6" class="node">
<title>f_ret1</title>
<ellipse fill="none" stroke="black" cx="371.56" cy="-947" rx="27" ry="18"/>
<text text-anchor="middle" x="371.56" y="-943.3" font-family="Times,serif" font-size="14.00">I</text>
</g>
<!-- Root&#45;&gt;f_ret1 -->
<g id="edge4" class="edge">
<title>Root&#45;&gt;f_ret1</title>
<path fill="none" stroke="red" d="M266.68,-1364.3C307.17,-1358.94 371.56,-1343.01 371.56,-1296 371.56,-1296 371.56,-1296 371.56,-1033 371.56,-1013.75 371.56,-992.05 371.56,-975.4"/>
<polygon fill="red" stroke="red" points="375.06,-975.26 371.56,-965.26 368.06,-975.26 375.06,-975.26"/>
<text text-anchor="middle" x="389.06" y="-1160.8" font-family="Times,serif" font-size="14.00">0&#45;&gt;1</text>
</g>
<!-- d2a -->
<g id="node4" class="node">
<title>d2a</title>
<ellipse fill="none" stroke="black" cx="37.56" cy="-860" rx="29.8" ry="18"/>
<text text-anchor="middle" x="37.56" y="-856.3" font-family="Times,serif" font-size="14.00">Dup</text>
</g>
<!-- c1a&#45;&gt;d2a -->
<g id="edge28" class="edge">
<title>c1a&#45;&gt;d2a</title>
<path fill="none" stroke="blue" d="M104.65,-1282.95C81.55,-1269.05 47.56,-1242.85 47.56,-1209 47.56,-1209 47.56,-1209 47.56,-946 47.56,-926.62 44.96,-904.92 42.41,-888.3"/>
<polygon fill="blue" stroke="blue" points="45.83,-887.5 40.77,-878.19 38.92,-888.62 45.83,-887.5"/>
<text text-anchor="middle" x="52.56" y="-1073.8" font-family="Times,serif" font-size="14.00">1</text>
</g>
<!-- fpa -->
<g id="node24" class="node">
<title>fpa</title>
<ellipse fill="none" stroke="black" cx="125.56" cy="-1208" rx="27" ry="18"/>
<text text-anchor="middle" x="125.56" y="-1204.3" font-family="Times,serif" font-size="14.00">!p</text>
</g>
<!-- c1a&#45;&gt;fpa -->
<g id="edge27" class="edge">
<title>c1a&#45;&gt;fpa</title>
<path fill="none" stroke="red" d="M125.56,-1276.8C125.56,-1265.16 125.56,-1249.55 125.56,-1236.24"/>
<polygon fill="red" stroke="red" points="129.06,-1236.18 125.56,-1226.18 122.06,-1236.18 129.06,-1236.18"/>
<text text-anchor="middle" x="130.56" y="-1247.8" font-family="Times,serif" font-size="14.00">0</text>
</g>
<!-- h_dib2 -->
<g id="node11" class="node">
<title>h_dib2</title>
<ellipse fill="none" stroke="black" cx="269.56" cy="-1208" rx="27" ry="18"/>
<text text-anchor="middle" x="269.56" y="-1204.3" font-family="Times,serif" font-size="14.00">!d</text>
</g>
<!-- c1b&#45;&gt;h_dib2 -->
<g id="edge30" class="edge">
<title>c1b&#45;&gt;h_dib2</title>
<path fill="none" stroke="blue" d="M241.47,-1277.21C246.44,-1265.14 253.23,-1248.64 258.9,-1234.89"/>
<polygon fill="blue" stroke="blue" points="262.2,-1236.05 262.77,-1225.47 255.73,-1233.38 262.2,-1236.05"/>
<text text-anchor="middle" x="259.56" y="-1247.8" font-family="Times,serif" font-size="14.00">1</text>
</g>
<!-- fpb -->
<g id="node25" class="node">
<title>fpb</title>
<ellipse fill="none" stroke="black" cx="197.56" cy="-1208" rx="27" ry="18"/>
<text text-anchor="middle" x="197.56" y="-1204.3" font-family="Times,serif" font-size="14.00">!p</text>
</g>
<!-- c1b&#45;&gt;fpb -->
<g id="edge29" class="edge">
<title>c1b&#45;&gt;fpb</title>
<path fill="none" stroke="red" d="M227.42,-1277.61C222.18,-1265.58 214.96,-1248.98 208.93,-1235.13"/>
<polygon fill="red" stroke="red" points="211.99,-1233.4 204.79,-1225.63 205.58,-1236.19 211.99,-1233.4"/>
<text text-anchor="middle" x="223.56" y="-1247.8" font-family="Times,serif" font-size="14.00">0</text>
</g>
<!-- d2ba -->
<g id="node5" class="node">
<title>d2ba</title>
<ellipse fill="none" stroke="black" cx="169.56" cy="-599" rx="29.8" ry="18"/>
<text text-anchor="middle" x="169.56" y="-595.3" font-family="Times,serif" font-size="14.00">Dup</text>
</g>
<!-- d2a&#45;&gt;d2ba -->
<g id="edge3" class="edge">
<title>d2a&#45;&gt;d2ba</title>
<path fill="none" stroke="black" stroke-dasharray="5,2" d="M29.27,-842.56C12.81,-807.35 -19.44,-723.38 16.56,-668 17.51,-666.54 103.09,-629.02 145.83,-610.35"/>
</g>
<!-- hi_retpa -->
<g id="node8" class="node">
<title>hi_retpa</title>
<ellipse fill="none" stroke="black" cx="127.56" cy="-512" rx="27" ry="18"/>
<text text-anchor="middle" x="127.56" y="-508.3" font-family="Times,serif" font-size="14.00">!p</text>
</g>
<!-- d2a&#45;&gt;hi_retpa -->
<g id="edge5" class="edge">
<title>d2a&#45;&gt;hi_retpa</title>
<path fill="none" stroke="blue" d="M37.88,-841.74C38.17,-824.57 38.56,-797.47 38.56,-774 38.56,-774 38.56,-774 38.56,-598 38.56,-565.27 70.42,-541.27 96.02,-527.28"/>
<polygon fill="blue" stroke="blue" points="97.83,-530.29 105.1,-522.58 94.61,-524.07 97.83,-530.29"/>
<text text-anchor="middle" x="43.56" y="-682.3" font-family="Times,serif" font-size="14.00">1</text>
</g>
<!-- d2ba&#45;&gt;hi_retpa -->
<g id="edge20" class="edge">
<title>d2ba&#45;&gt;hi_retpa</title>
<path fill="none" stroke="red" d="M161.46,-581.61C155.42,-569.38 147.05,-552.44 140.13,-538.46"/>
<polygon fill="red" stroke="red" points="143.2,-536.75 135.63,-529.34 136.92,-539.85 143.2,-536.75"/>
<text text-anchor="middle" x="156.56" y="-551.8" font-family="Times,serif" font-size="14.00">1</text>
</g>
<!-- f_ret2 -->
<g id="node7" class="node">
<title>f_ret2</title>
<ellipse fill="none" stroke="black" cx="94.56" cy="-599" rx="27" ry="18"/>
<text text-anchor="middle" x="94.56" y="-595.3" font-family="Times,serif" font-size="14.00">I</text>
</g>
<!-- hi_reta -->
<g id="node28" class="node">
<title>hi_reta</title>
<ellipse fill="none" stroke="black" cx="123.56" cy="-251" rx="27" ry="18"/>
<text text-anchor="middle" x="123.56" y="-247.3" font-family="Times,serif" font-size="14.00">I</text>
</g>
<!-- hi_retpa&#45;&gt;hi_reta -->
<g id="edge36" class="edge">
<title>hi_retpa&#45;&gt;hi_reta</title>
<path fill="none" stroke="red" d="M127.29,-493.6C126.61,-449.46 124.8,-332.83 123.98,-279.42"/>
<polygon fill="red" stroke="red" points="127.48,-279.26 123.82,-269.32 120.48,-279.37 127.48,-279.26"/>
<text text-anchor="middle" x="131.56" y="-377.8" font-family="Times,serif" font-size="14.00">2</text>
</g>
<!-- h_dia -->
<g id="node29" class="node">
<title>h_dia</title>
<ellipse fill="none" stroke="black" cx="178.56" cy="-425" rx="27" ry="18"/>
<text text-anchor="middle" x="178.56" y="-421.3" font-family="Times,serif" font-size="14.00">!d</text>
</g>
<!-- hi_retpa&#45;&gt;h_dia -->
<g id="edge37" class="edge">
<title>hi_retpa&#45;&gt;h_dia</title>
<path fill="none" stroke="blue" d="M137.15,-495.01C144.91,-482.07 155.95,-463.67 164.68,-449.12"/>
<ellipse fill="none" stroke="blue" cx="166.95" cy="-445.35" rx="4" ry="4"/>
<text text-anchor="middle" x="161.56" y="-464.8" font-family="Times,serif" font-size="14.00">1</text>
</g>
<!-- h_dib1 -->
<g id="node9" class="node">
<title>h_dib1</title>
<ellipse fill="none" stroke="black" cx="151.56" cy="-860" rx="27" ry="18"/>
<text text-anchor="middle" x="151.56" y="-856.3" font-family="Times,serif" font-size="14.00">!d</text>
</g>
<!-- hb1 -->
<g id="node10" class="node">
<title>hb1</title>
<ellipse fill="none" stroke="black" cx="157.56" cy="-773" rx="27" ry="18"/>
<text text-anchor="middle" x="157.56" y="-769.3" font-family="Times,serif" font-size="14.00">PiL</text>
</g>
<!-- h_dib1&#45;&gt;hb1 -->
<g id="edge6" class="edge">
<title>h_dib1&#45;&gt;hb1</title>
<path fill="none" stroke="blue" d="M152.77,-841.8C153.59,-830.16 154.69,-814.55 155.63,-801.24"/>
<polygon fill="blue" stroke="blue" points="159.13,-801.4 156.34,-791.18 152.15,-800.9 159.13,-801.4"/>
<text text-anchor="middle" x="160.56" y="-812.8" font-family="Times,serif" font-size="14.00">2</text>
</g>
<!-- i2a -->
<g id="node13" class="node">
<title>i2a</title>
<ellipse fill="none" stroke="black" cx="236.56" cy="-686" rx="27" ry="18"/>
<text text-anchor="middle" x="236.56" y="-682.3" font-family="Times,serif" font-size="14.00">!p</text>
</g>
<!-- hb1&#45;&gt;i2a -->
<g id="edge8" class="edge">
<title>hb1&#45;&gt;i2a</title>
<path fill="none" stroke="red" d="M174.05,-758.27C181.22,-752.03 189.56,-744.41 196.56,-737 204.34,-728.76 212.28,-719.15 219,-710.57"/>
<polygon fill="red" stroke="red" points="221.95,-712.47 225.27,-702.42 216.4,-708.21 221.95,-712.47"/>
<text text-anchor="middle" x="214.56" y="-725.8" font-family="Times,serif" font-size="14.00">2</text>
</g>
<!-- x2i_o2a -->
<g id="node14" class="node">
<title>x2i_o2a</title>
<ellipse fill="none" stroke="black" cx="157.56" cy="-686" rx="27" ry="18"/>
<text text-anchor="middle" x="157.56" y="-682.3" font-family="Times,serif" font-size="14.00">PiL</text>
</g>
<!-- hb1&#45;&gt;x2i_o2a -->
<g id="edge9" class="edge">
<title>hb1&#45;&gt;x2i_o2a</title>
<path fill="none" stroke="blue" d="M157.56,-754.8C157.56,-743.16 157.56,-727.55 157.56,-714.24"/>
<polygon fill="blue" stroke="blue" points="161.06,-714.18 157.56,-704.18 154.06,-714.18 161.06,-714.18"/>
<text text-anchor="middle" x="175.06" y="-725.8" font-family="Times,serif" font-size="14.00">2&#45;&gt;1</text>
</g>
<!-- hb2 -->
<g id="node12" class="node">
<title>hb2</title>
<ellipse fill="none" stroke="black" cx="269.56" cy="-1121" rx="27" ry="18"/>
<text text-anchor="middle" x="269.56" y="-1117.3" font-family="Times,serif" font-size="14.00">PiL</text>
</g>
<!-- h_dib2&#45;&gt;hb2 -->
<g id="edge7" class="edge">
<title>h_dib2&#45;&gt;hb2</title>
<path fill="none" stroke="blue" d="M269.56,-1189.8C269.56,-1178.16 269.56,-1162.55 269.56,-1149.24"/>
<polygon fill="blue" stroke="blue" points="273.06,-1149.18 269.56,-1139.18 266.06,-1149.18 273.06,-1149.18"/>
<text text-anchor="middle" x="274.56" y="-1160.8" font-family="Times,serif" font-size="14.00">2</text>
</g>
<!-- i2b -->
<g id="node15" class="node">
<title>i2b</title>
<ellipse fill="none" stroke="black" cx="244.56" cy="-1034" rx="27" ry="18"/>
<text text-anchor="middle" x="244.56" y="-1030.3" font-family="Times,serif" font-size="14.00">!p</text>
</g>
<!-- hb2&#45;&gt;i2b -->
<g id="edge10" class="edge">
<title>hb2&#45;&gt;i2b</title>
<path fill="none" stroke="red" d="M260.4,-1103.68C257.5,-1097.92 254.55,-1091.31 252.56,-1085 250.29,-1077.82 248.65,-1069.85 247.46,-1062.42"/>
<polygon fill="red" stroke="red" points="250.91,-1061.84 246.07,-1052.41 243.98,-1062.8 250.91,-1061.84"/>
<text text-anchor="middle" x="257.56" y="-1073.8" font-family="Times,serif" font-size="14.00">2</text>
</g>
<!-- x2i_o2b -->
<g id="node16" class="node">
<title>x2i_o2b</title>
<ellipse fill="none" stroke="black" cx="316.56" cy="-1034" rx="27" ry="18"/>
<text text-anchor="middle" x="316.56" y="-1030.3" font-family="Times,serif" font-size="14.00">PiL</text>
</g>
<!-- hb2&#45;&gt;x2i_o2b -->
<g id="edge11" class="edge">
<title>hb2&#45;&gt;x2i_o2b</title>
<path fill="none" stroke="blue" d="M278.62,-1103.61C285.42,-1091.3 294.87,-1074.23 302.63,-1060.19"/>
<polygon fill="blue" stroke="blue" points="305.9,-1061.5 307.68,-1051.05 299.78,-1058.11 305.9,-1061.5"/>
<text text-anchor="middle" x="313.06" y="-1073.8" font-family="Times,serif" font-size="14.00">2&#45;&gt;1</text>
</g>
<!-- i_i2a -->
<g id="node17" class="node">
<title>i_i2a</title>
<ellipse fill="none" stroke="black" cx="244.56" cy="-599" rx="27" ry="18"/>
<text text-anchor="middle" x="244.56" y="-595.3" font-family="Times,serif" font-size="14.00">PiR</text>
</g>
<!-- i2a&#45;&gt;i_i2a -->
<g id="edge12" class="edge">
<title>i2a&#45;&gt;i_i2a</title>
<path fill="none" stroke="red" d="M238.17,-667.8C239.27,-656.16 240.74,-640.55 241.99,-627.24"/>
<polygon fill="red" stroke="red" points="245.49,-627.46 242.94,-617.18 238.52,-626.8 245.49,-627.46"/>
<text text-anchor="middle" x="246.56" y="-638.8" font-family="Times,serif" font-size="14.00">3</text>
</g>
<!-- x2i_o2a&#45;&gt;d2ba -->
<g id="edge21" class="edge">
<title>x2i_o2a&#45;&gt;d2ba</title>
<path fill="none" stroke="red" d="M159.98,-667.8C161.71,-655.59 164.05,-638.99 165.99,-625.28"/>
<ellipse fill="none" stroke="red" cx="166.57" cy="-621.14" rx="4" ry="4"/>
</g>
<!-- x2i_o2a&#45;&gt;f_ret2 -->
<g id="edge22" class="edge">
<title>x2i_o2a&#45;&gt;f_ret2</title>
<path fill="none" stroke="blue" d="M146,-669.41C136.5,-656.59 122.88,-638.22 112.05,-623.6"/>
<polygon fill="blue" stroke="blue" points="114.8,-621.44 106.04,-615.49 109.18,-625.61 114.8,-621.44"/>
</g>
<!-- i_i2b -->
<g id="node20" class="node">
<title>i_i2b</title>
<ellipse fill="none" stroke="black" cx="244.56" cy="-947" rx="27" ry="18"/>
<text text-anchor="middle" x="244.56" y="-943.3" font-family="Times,serif" font-size="14.00">PiR</text>
</g>
<!-- i2b&#45;&gt;i_i2b -->
<g id="edge16" class="edge">
<title>i2b&#45;&gt;i_i2b</title>
<path fill="none" stroke="red" d="M244.56,-1015.8C244.56,-1004.16 244.56,-988.55 244.56,-975.24"/>
<polygon fill="red" stroke="red" points="248.06,-975.18 244.56,-965.18 241.06,-975.18 248.06,-975.18"/>
<text text-anchor="middle" x="249.56" y="-986.8" font-family="Times,serif" font-size="14.00">3</text>
</g>
<!-- x2i_o2b&#45;&gt;d2ba -->
<g id="edge23" class="edge">
<title>x2i_o2b&#45;&gt;d2ba</title>
<path fill="none" stroke="red" d="M316.56,-1015.74C316.56,-998.57 316.56,-971.46 316.56,-948 316.56,-948 316.56,-948 316.56,-685 316.56,-628.28 261.05,-638.48 208.56,-617 206.5,-616.16 204.39,-615.28 202.27,-614.39"/>
<polygon fill="red" stroke="red" points="203.56,-611.14 192.99,-610.42 200.81,-617.57 203.56,-611.14"/>
</g>
<!-- x2i_o2b&#45;&gt;f_ret1 -->
<g id="edge24" class="edge">
<title>x2i_o2b&#45;&gt;f_ret1</title>
<path fill="none" stroke="blue" d="M326.9,-1017.01C335.04,-1004.43 346.53,-986.68 355.81,-972.33"/>
<polygon fill="blue" stroke="blue" points="358.76,-974.21 361.26,-963.92 352.89,-970.41 358.76,-974.21"/>
</g>
<!-- il2a -->
<g id="node18" class="node">
<title>il2a</title>
<ellipse fill="none" stroke="black" cx="205.56" cy="-512" rx="27" ry="18"/>
<text text-anchor="middle" x="205.56" y="-508.3" font-family="Times,serif" font-size="14.00">!d</text>
</g>
<!-- i_i2a&#45;&gt;il2a -->
<g id="edge13" class="edge">
<title>i_i2a&#45;&gt;il2a</title>
<path fill="none" stroke="blue" d="M237.04,-581.61C231.43,-569.38 223.65,-552.44 217.24,-538.46"/>
<polygon fill="blue" stroke="blue" points="220.4,-536.97 213.05,-529.34 214.04,-539.89 220.4,-536.97"/>
</g>
<!-- i_ret2a -->
<g id="node19" class="node">
<title>i_ret2a</title>
<ellipse fill="none" stroke="black" cx="252.56" cy="-425" rx="27" ry="18"/>
<text text-anchor="middle" x="252.56" y="-421.3" font-family="Times,serif" font-size="14.00">I</text>
</g>
<!-- i_i2a&#45;&gt;i_ret2a -->
<g id="edge14" class="edge">
<title>i_i2a&#45;&gt;i_ret2a</title>
<path fill="none" stroke="red" d="M245.35,-580.88C246.74,-551 249.62,-489.11 251.29,-453.27"/>
<polygon fill="red" stroke="red" points="254.79,-453.2 251.76,-443.05 247.8,-452.88 254.79,-453.2"/>
</g>
<!-- il2a&#45;&gt;i_ret2a -->
<g id="edge15" class="edge">
<title>il2a&#45;&gt;i_ret2a</title>
<path fill="none" stroke="blue" d="M214.62,-494.61C221.42,-482.3 230.87,-465.23 238.63,-451.19"/>
<polygon fill="blue" stroke="blue" points="241.9,-452.5 243.68,-442.05 235.78,-449.11 241.9,-452.5"/>
</g>
<!-- il2b -->
<g id="node21" class="node">
<title>il2b</title>
<ellipse fill="none" stroke="black" cx="223.56" cy="-860" rx="27" ry="18"/>
<text text-anchor="middle" x="223.56" y="-856.3" font-family="Times,serif" font-size="14.00">!d</text>
</g>
<!-- i_i2b&#45;&gt;il2b -->
<g id="edge17" class="edge">
<title>i_i2b&#45;&gt;il2b</title>
<path fill="none" stroke="blue" d="M240.41,-929.21C237.49,-917.41 233.53,-901.38 230.18,-887.82"/>
<polygon fill="blue" stroke="blue" points="233.56,-886.92 227.77,-878.05 226.77,-888.6 233.56,-886.92"/>
</g>
<!-- i_ret2b -->
<g id="node22" class="node">
<title>i_ret2b</title>
<ellipse fill="none" stroke="black" cx="252.56" cy="-773" rx="27" ry="18"/>
<text text-anchor="middle" x="252.56" y="-769.3" font-family="Times,serif" font-size="14.00">I</text>
</g>
<!-- i_i2b&#45;&gt;i_ret2b -->
<g id="edge18" class="edge">
<title>i_i2b&#45;&gt;i_ret2b</title>
<path fill="none" stroke="red" d="M249.35,-929.12C252.97,-915.47 257.63,-895.67 259.56,-878 262.39,-851.96 259.78,-822.11 256.98,-801.09"/>
<polygon fill="red" stroke="red" points="260.41,-800.37 255.52,-790.97 253.48,-801.37 260.41,-800.37"/>
</g>
<!-- il2b&#45;&gt;i_ret2b -->
<g id="edge19" class="edge">
<title>il2b&#45;&gt;i_ret2b</title>
<path fill="none" stroke="blue" d="M229.29,-842.21C233.34,-830.33 238.85,-814.17 243.5,-800.56"/>
<polygon fill="blue" stroke="blue" points="246.92,-801.35 246.84,-790.76 240.3,-799.09 246.92,-801.35"/>
</g>
<!-- hi_retpc1 -->
<g id="node23" class="node">
<title>hi_retpc1</title>
<ellipse fill="none" stroke="black" cx="150.56" cy="-947" rx="27" ry="18"/>
<text text-anchor="middle" x="150.56" y="-943.3" font-family="Times,serif" font-size="14.00">!c</text>
</g>
<!-- hi_retpc1&#45;&gt;d2a -->
<g id="edge25" class="edge">
<title>hi_retpc1&#45;&gt;d2a</title>
<path fill="none" stroke="blue" d="M133.39,-933.09C114.45,-918.84 83.8,-895.78 62.27,-879.59"/>
<ellipse fill="none" stroke="blue" cx="58.83" cy="-877" rx="4" ry="4"/>
</g>
<!-- hi_retpc1&#45;&gt;h_dib1 -->
<g id="edge26" class="edge">
<title>hi_retpc1&#45;&gt;h_dib1</title>
<path fill="none" stroke="blue" d="M150.76,-928.8C150.9,-917.16 151.08,-901.55 151.24,-888.24"/>
<polygon fill="blue" stroke="blue" points="154.74,-888.22 151.35,-878.18 147.74,-888.13 154.74,-888.22"/>
<text text-anchor="middle" x="156.56" y="-899.8" font-family="Times,serif" font-size="14.00">1</text>
</g>
<!-- d5 -->
<g id="node26" class="node">
<title>d5</title>
<ellipse fill="none" stroke="black" cx="131.56" cy="-1121" rx="29.8" ry="18"/>
<text text-anchor="middle" x="131.56" y="-1117.3" font-family="Times,serif" font-size="14.00">Dup</text>
</g>
<!-- fpa&#45;&gt;d5 -->
<g id="edge31" class="edge">
<title>fpa&#45;&gt;d5</title>
<path fill="none" stroke="red" d="M126.77,-1189.8C127.59,-1178.16 128.69,-1162.55 129.63,-1149.24"/>
<polygon fill="red" stroke="red" points="133.13,-1149.4 130.34,-1139.18 126.15,-1148.9 133.13,-1149.4"/>
<text text-anchor="middle" x="134.56" y="-1160.8" font-family="Times,serif" font-size="14.00">1</text>
</g>
<!-- fpb&#45;&gt;d5 -->
<g id="edge32" class="edge">
<title>fpb&#45;&gt;d5</title>
<path fill="none" stroke="red" d="M185.76,-1191.8C175.84,-1179.03 161.49,-1160.55 150.05,-1145.81"/>
<polygon fill="red" stroke="red" points="152.6,-1143.39 143.7,-1137.64 147.07,-1147.68 152.6,-1143.39"/>
<text text-anchor="middle" x="173.56" y="-1160.8" font-family="Times,serif" font-size="14.00">1</text>
</g>
<!-- fa -->
<g id="node27" class="node">
<title>fa</title>
<ellipse fill="none" stroke="black" cx="131.56" cy="-1034" rx="27" ry="18"/>
<text text-anchor="middle" x="131.56" y="-1030.3" font-family="Times,serif" font-size="14.00">PiR</text>
</g>
<!-- d5&#45;&gt;fa -->
<g id="edge33" class="edge">
<title>d5&#45;&gt;fa</title>
<path fill="none" stroke="red" d="M131.56,-1102.8C131.56,-1091.16 131.56,-1075.55 131.56,-1062.24"/>
<polygon fill="red" stroke="red" points="135.06,-1062.18 131.56,-1052.18 128.06,-1062.18 135.06,-1062.18"/>
</g>
<!-- fa&#45;&gt;f_ret2 -->
<g id="edge35" class="edge">
<title>fa&#45;&gt;f_ret2</title>
<path fill="none" stroke="red" d="M120.56,-1017.54C109.97,-1001.1 95.56,-973.96 95.56,-948 95.56,-948 95.56,-948 95.56,-685 95.56,-665.75 95.3,-644.05 95.04,-627.4"/>
<polygon fill="red" stroke="red" points="98.54,-627.2 94.88,-617.26 91.54,-627.31 98.54,-627.2"/>
</g>
<!-- fa&#45;&gt;hi_retpc1 -->
<g id="edge34" class="edge">
<title>fa&#45;&gt;hi_retpc1</title>
<path fill="none" stroke="blue" d="M135.4,-1015.8C138.02,-1004.09 141.54,-988.34 144.53,-974.97"/>
<polygon fill="blue" stroke="blue" points="148.02,-975.41 146.78,-964.89 141.18,-973.88 148.02,-975.41"/>
</g>
<!-- ha -->
<g id="node30" class="node">
<title>ha</title>
<ellipse fill="none" stroke="black" cx="178.56" cy="-338" rx="27" ry="18"/>
<text text-anchor="middle" x="178.56" y="-334.3" font-family="Times,serif" font-size="14.00">PiL</text>
</g>
<!-- h_dia&#45;&gt;ha -->
<g id="edge38" class="edge">
<title>h_dia&#45;&gt;ha</title>
<path fill="none" stroke="blue" d="M178.56,-406.8C178.56,-395.16 178.56,-379.55 178.56,-366.24"/>
<polygon fill="blue" stroke="blue" points="182.06,-366.18 178.56,-356.18 175.06,-366.18 182.06,-366.18"/>
<text text-anchor="middle" x="183.56" y="-377.8" font-family="Times,serif" font-size="14.00">2</text>
</g>
<!-- ha&#45;&gt;hi_reta -->
<g id="edge40" class="edge">
<title>ha&#45;&gt;hi_reta</title>
<path fill="none" stroke="blue" d="M168.21,-321.01C160.07,-308.43 148.58,-290.68 139.3,-276.33"/>
<polygon fill="blue" stroke="blue" points="142.23,-274.41 133.85,-267.92 136.35,-278.21 142.23,-274.41"/>
</g>
<!-- i1 -->
<g id="node31" class="node">
<title>i1</title>
<ellipse fill="none" stroke="black" cx="195.56" cy="-251" rx="27" ry="18"/>
<text text-anchor="middle" x="195.56" y="-247.3" font-family="Times,serif" font-size="14.00">!p</text>
</g>
<!-- ha&#45;&gt;i1 -->
<g id="edge39" class="edge">
<title>ha&#45;&gt;i1</title>
<path fill="none" stroke="red" d="M182,-319.8C184.34,-308.09 187.49,-292.34 190.16,-278.97"/>
<polygon fill="red" stroke="red" points="193.65,-279.38 192.18,-268.89 186.79,-278 193.65,-279.38"/>
<text text-anchor="middle" x="193.56" y="-290.8" font-family="Times,serif" font-size="14.00">2</text>
</g>
<!-- i_i1 -->
<g id="node32" class="node">
<title>i_i1</title>
<ellipse fill="none" stroke="black" cx="195.56" cy="-164" rx="27" ry="18"/>
<text text-anchor="middle" x="195.56" y="-160.3" font-family="Times,serif" font-size="14.00">PiR</text>
</g>
<!-- i1&#45;&gt;i_i1 -->
<g id="edge41" class="edge">
<title>i1&#45;&gt;i_i1</title>
<path fill="none" stroke="red" d="M195.56,-232.8C195.56,-221.16 195.56,-205.55 195.56,-192.24"/>
<polygon fill="red" stroke="red" points="199.06,-192.18 195.56,-182.18 192.06,-192.18 199.06,-192.18"/>
<text text-anchor="middle" x="200.56" y="-203.8" font-family="Times,serif" font-size="14.00">3</text>
</g>
<!-- il1 -->
<g id="node33" class="node">
<title>il1</title>
<ellipse fill="none" stroke="black" cx="168.56" cy="-91" rx="27" ry="18"/>
<text text-anchor="middle" x="168.56" y="-87.3" font-family="Times,serif" font-size="14.00">!d</text>
</g>
<!-- i_i1&#45;&gt;il1 -->
<g id="edge42" class="edge">
<title>i_i1&#45;&gt;il1</title>
<path fill="none" stroke="blue" d="M189.16,-146.17C186,-137.86 182.11,-127.64 178.57,-118.33"/>
<polygon fill="blue" stroke="blue" points="181.73,-116.81 174.91,-108.71 175.19,-119.3 181.73,-116.81"/>
</g>
<!-- i_ret1 -->
<g id="node34" class="node">
<title>i_ret1</title>
<ellipse fill="none" stroke="black" cx="209.56" cy="-18" rx="27" ry="18"/>
<text text-anchor="middle" x="209.56" y="-14.3" font-family="Times,serif" font-size="14.00">I</text>
</g>
<!-- i_i1&#45;&gt;i_ret1 -->
<g id="edge43" class="edge">
<title>i_i1&#45;&gt;i_ret1</title>
<path fill="none" stroke="red" d="M198.87,-146.04C200.82,-135.44 203.17,-121.47 204.56,-109 206.88,-88.03 208.14,-64.2 208.82,-46.32"/>
<polygon fill="red" stroke="red" points="212.32,-46.41 209.16,-36.3 205.32,-46.18 212.32,-46.41"/>
</g>
<!-- il1&#45;&gt;i_ret1 -->
<g id="edge44" class="edge">
<title>il1&#45;&gt;i_ret1</title>
<path fill="none" stroke="blue" d="M177.86,-73.89C183,-64.99 189.49,-53.75 195.25,-43.77"/>
<polygon fill="blue" stroke="blue" points="198.32,-45.46 200.29,-35.05 192.26,-41.96 198.32,-45.46"/>
</g>
</g>
</svg>
