<?xml version="1.0" encoding="UTF-8" standalone="no"?>
<!DOCTYPE svg PUBLIC "-//W3C//DTD SVG 1.1//EN"
 "http://www.w3.org/Graphics/SVG/1.1/DTD/svg11.dtd">
<!-- Generated by graphviz version 2.43.0 (0)
 -->
<!-- Title: %3 Pages: 1 -->
<svg width="623pt" height="1151pt"
 viewBox="0.00 0.00 622.90 1150.79" xmlns="http://www.w3.org/2000/svg" xmlns:xlink="http://www.w3.org/1999/xlink">
<g id="graph0" class="graph" transform="scale(1 1) rotate(0) translate(4 1146.79)">
<title>%3</title>
<polygon fill="white" stroke="transparent" points="-4,4 -4,-1146.79 618.9,-1146.79 618.9,4 -4,4"/>
<!-- Root -->
<g id="node1" class="node">
<title>Root</title>
<ellipse fill="none" stroke="black" cx="283" cy="-498" rx="32.49" ry="18"/>
<text text-anchor="middle" x="283" y="-494.3" font-family="Times,serif" font-size="14.00">Root</text>
</g>
<!-- f_retf -->
<g id="node2" class="node">
<title>f_retf</title>
<ellipse fill="none" stroke="black" cx="284" cy="-411" rx="27" ry="18"/>
<text text-anchor="middle" x="284" y="-407.3" font-family="Times,serif" font-size="14.00">I</text>
</g>
<!-- Root&#45;&gt;f_retf -->
<g id="edge1" class="edge">
<title>Root&#45;&gt;f_retf</title>
<path fill="none" stroke="red" stroke-width="2" d="M283.2,-479.8C283.34,-468.16 283.52,-452.55 283.68,-439.24"/>
<polygon fill="red" stroke="red" stroke-width="2" points="287.18,-439.22 283.8,-429.18 280.18,-439.13 287.18,-439.22"/>
<text text-anchor="middle" x="300.5" y="-450.8" font-family="Times,serif" font-size="14.00">0&#45;&gt;1</text>
</g>
<!-- c1a -->
<g id="node3" class="node">
<title>c1a</title>
<ellipse fill="none" stroke="black" cx="157" cy="-1124.79" rx="27.1" ry="18"/>
<text text-anchor="middle" x="157" y="-1121.09" font-family="Times,serif" font-size="14.00">Cut</text>
</g>
<!-- fp1 -->
<g id="node4" class="node">
<title>fp1</title>
<ellipse fill="none" stroke="black" cx="213" cy="-1037.79" rx="27" ry="18"/>
<text text-anchor="middle" x="213" y="-1034.09" font-family="Times,serif" font-size="14.00">!p</text>
</g>
<!-- c1a&#45;&gt;fp1 -->
<g id="edge2" class="edge">
<title>c1a&#45;&gt;fp1</title>
<path fill="none" stroke="red" d="M167.53,-1107.81C175.82,-1095.22 187.52,-1077.47 196.97,-1063.13"/>
<polygon fill="red" stroke="red" points="199.94,-1064.99 202.51,-1054.71 194.09,-1061.14 199.94,-1064.99"/>
<text text-anchor="middle" x="193" y="-1077.59" font-family="Times,serif" font-size="14.00">0</text>
</g>
<!-- d2a -->
<g id="node5" class="node">
<title>d2a</title>
<ellipse fill="none" stroke="black" cx="45" cy="-672" rx="29.8" ry="18"/>
<text text-anchor="middle" x="45" y="-668.3" font-family="Times,serif" font-size="14.00">Dup</text>
</g>
<!-- c1a&#45;&gt;d2a -->
<g id="edge3" class="edge">
<title>c1a&#45;&gt;d2a</title>
<path fill="none" stroke="blue" d="M151.94,-1107.04C147.25,-1090.02 141,-1062.82 141,-1038.79 141,-1038.79 141,-1038.79 141,-758 141,-739.84 102.02,-710.31 73.74,-691.28"/>
<polygon fill="blue" stroke="blue" points="75.63,-688.33 65.36,-685.73 71.77,-694.17 75.63,-688.33"/>
<text text-anchor="middle" x="146" y="-903.59" font-family="Times,serif" font-size="14.00">1</text>
</g>
<!-- f2a -->
<g id="node14" class="node">
<title>f2a</title>
<ellipse fill="none" stroke="black" cx="447" cy="-950.79" rx="27" ry="18"/>
<text text-anchor="middle" x="447" y="-947.09" font-family="Times,serif" font-size="14.00">PiR</text>
</g>
<!-- fp1&#45;&gt;f2a -->
<g id="edge13" class="edge">
<title>fp1&#45;&gt;f2a</title>
<path fill="none" stroke="red" d="M236.29,-1028.33C278.17,-1013.12 366.26,-981.12 414.21,-963.71"/>
<polygon fill="red" stroke="red" points="415.6,-966.93 423.8,-960.22 413.21,-960.35 415.6,-966.93"/>
<text text-anchor="middle" x="349" y="-990.59" font-family="Times,serif" font-size="14.00">1</text>
</g>
<!-- d2b -->
<g id="node10" class="node">
<title>d2b</title>
<ellipse fill="none" stroke="black" cx="585" cy="-498" rx="29.8" ry="18"/>
<text text-anchor="middle" x="585" y="-494.3" font-family="Times,serif" font-size="14.00">Dup</text>
</g>
<!-- d2a&#45;&gt;d2b -->
<g id="edge23" class="edge">
<title>d2a&#45;&gt;d2b</title>
<path fill="none" stroke="black" stroke-dasharray="5,2" d="M67.21,-659.69C72.58,-657.41 78.39,-655.32 84,-654 122.34,-644.99 403.76,-655.46 438,-636 453.33,-627.29 453.35,-619.32 460,-603 471.78,-574.1 451.55,-556.67 473,-534 495.96,-509.72 514.35,-526.71 546,-516 551.32,-514.2 556.91,-511.97 562.16,-509.73"/>
</g>
<!-- d2c -->
<g id="node15" class="node">
<title>d2c</title>
<ellipse fill="none" stroke="black" cx="360" cy="-411" rx="29.8" ry="18"/>
<text text-anchor="middle" x="360" y="-407.3" font-family="Times,serif" font-size="14.00">Dup</text>
</g>
<!-- d2a&#45;&gt;d2c -->
<g id="edge24" class="edge">
<title>d2a&#45;&gt;d2c</title>
<path fill="none" stroke="black" stroke-dasharray="5,2" d="M34.34,-654.86C29.02,-644.64 24.9,-631.43 31,-621 39.24,-606.91 51.45,-614.53 63,-603 87.93,-578.12 79.72,-561.29 102,-534 139.25,-488.36 148.54,-471.76 202,-447 250.14,-424.71 268.97,-443.49 320,-429 325.66,-427.39 331.59,-425.19 337.09,-422.9"/>
</g>
<!-- hi_retpa -->
<g id="node19" class="node">
<title>hi_retpa</title>
<ellipse fill="none" stroke="black" cx="27" cy="-585" rx="27" ry="18"/>
<text text-anchor="middle" x="27" y="-581.3" font-family="Times,serif" font-size="14.00">!p</text>
</g>
<!-- d2a&#45;&gt;hi_retpa -->
<g id="edge25" class="edge">
<title>d2a&#45;&gt;hi_retpa</title>
<path fill="none" stroke="blue" d="M41.36,-653.8C38.88,-642.09 35.54,-626.34 32.71,-612.97"/>
<polygon fill="blue" stroke="blue" points="36.07,-611.94 30.58,-602.89 29.22,-613.39 36.07,-611.94"/>
<text text-anchor="middle" x="43" y="-624.8" font-family="Times,serif" font-size="14.00">1</text>
</g>
<!-- c1b1 -->
<g id="node6" class="node">
<title>c1b1</title>
<ellipse fill="none" stroke="black" cx="351" cy="-585" rx="27.1" ry="18"/>
<text text-anchor="middle" x="351" y="-581.3" font-family="Times,serif" font-size="14.00">Cut</text>
</g>
<!-- d1a -->
<g id="node7" class="node">
<title>d1a</title>
<ellipse fill="none" stroke="black" cx="507" cy="-498" rx="29.8" ry="18"/>
<text text-anchor="middle" x="507" y="-494.3" font-family="Times,serif" font-size="14.00">Dup</text>
</g>
<!-- c1b1&#45;&gt;d1a -->
<g id="edge4" class="edge">
<title>c1b1&#45;&gt;d1a</title>
<path fill="none" stroke="red" stroke-width="2" d="M372.3,-573.58C377.39,-571.27 382.84,-568.94 388,-567 414.47,-557.07 424.18,-562.53 449,-549 463.05,-541.34 476.71,-529.83 487.24,-519.78"/>
<ellipse fill="none" stroke="red" stroke-width="2" cx="490.2" cy="-516.88" rx="4" ry="4"/>
<text text-anchor="middle" x="474" y="-537.8" font-family="Times,serif" font-size="14.00">1</text>
</g>
<!-- x2i_o2f -->
<g id="node8" class="node">
<title>x2i_o2f</title>
<ellipse fill="none" stroke="black" cx="360" cy="-498" rx="27" ry="18"/>
<text text-anchor="middle" x="360" y="-494.3" font-family="Times,serif" font-size="14.00">PiL</text>
</g>
<!-- c1b1&#45;&gt;x2i_o2f -->
<g id="edge5" class="edge">
<title>c1b1&#45;&gt;x2i_o2f</title>
<path fill="none" stroke="blue" stroke-width="2" d="M352.82,-566.8C354.05,-555.16 355.71,-539.55 357.12,-526.24"/>
<polygon fill="blue" stroke="blue" stroke-width="2" points="360.61,-526.49 358.18,-516.18 353.65,-525.75 360.61,-526.49"/>
<text text-anchor="middle" x="373.5" y="-537.8" font-family="Times,serif" font-size="14.00">2&#45;&gt;1</text>
</g>
<!-- d1b -->
<g id="node11" class="node">
<title>d1b</title>
<ellipse fill="none" stroke="black" cx="447" cy="-847.9" rx="29.81" ry="29.81"/>
<ellipse fill="none" stroke="black" cx="447" cy="-847.9" rx="33.8" ry="33.8"/>
<text text-anchor="middle" x="447" y="-844.2" font-family="Times,serif" font-size="14.00">Dup</text>
</g>
<!-- d1a&#45;&gt;d1b -->
<g id="edge8" class="edge">
<title>d1a&#45;&gt;d1b</title>
<path fill="none" stroke="black" stroke-dasharray="5,2" d="M520.44,-514.31C524.68,-520.08 528.82,-526.96 531,-534 555.87,-614.23 555.65,-642.7 531,-723 519.1,-761.75 490.51,-799.29 469.99,-822.69"/>
</g>
<!-- f_retg -->
<g id="node12" class="node">
<title>f_retg</title>
<ellipse fill="none" stroke="black" cx="456" cy="-411" rx="27" ry="18"/>
<text text-anchor="middle" x="456" y="-407.3" font-family="Times,serif" font-size="14.00">I</text>
</g>
<!-- d1a&#45;&gt;f_retg -->
<g id="edge9" class="edge">
<title>d1a&#45;&gt;f_retg</title>
<path fill="none" stroke="red" stroke-width="2" d="M497.17,-480.61C489.71,-468.19 479.34,-450.9 470.87,-436.78"/>
<polygon fill="red" stroke="red" stroke-width="2" points="473.78,-434.82 465.63,-428.05 467.77,-438.43 473.78,-434.82"/>
</g>
<!-- x2i_o2f&#45;&gt;f_retf -->
<g id="edge15" class="edge">
<title>x2i_o2f&#45;&gt;f_retf</title>
<path fill="none" stroke="blue" stroke-width="2" d="M348.23,-481.27C340.5,-471.21 330.01,-458.03 320,-447 315.87,-442.45 311.29,-437.76 306.81,-433.34"/>
<polygon fill="blue" stroke="blue" stroke-width="2" points="309.1,-430.68 299.48,-426.24 304.23,-435.71 309.1,-430.68"/>
</g>
<!-- x2i_o2f&#45;&gt;d2c -->
<g id="edge14" class="edge">
<title>x2i_o2f&#45;&gt;d2c</title>
<path fill="none" stroke="red" d="M360,-479.8C360,-468.16 360,-452.55 360,-439.24"/>
<polygon fill="red" stroke="red" points="363.5,-439.18 360,-429.18 356.5,-439.18 363.5,-439.18"/>
</g>
<!-- c1b2 -->
<g id="node9" class="node">
<title>c1b2</title>
<ellipse fill="none" stroke="black" cx="552" cy="-950.79" rx="27.1" ry="18"/>
<text text-anchor="middle" x="552" y="-947.09" font-family="Times,serif" font-size="14.00">Cut</text>
</g>
<!-- c1b2&#45;&gt;d2b -->
<g id="edge6" class="edge">
<title>c1b2&#45;&gt;d2b</title>
<path fill="none" stroke="red" d="M562.77,-934.17C574.92,-914.99 593,-881.04 593,-848.9 593,-848.9 593,-848.9 593,-584 593,-564.67 590.92,-542.97 588.89,-526.34"/>
<polygon fill="red" stroke="red" points="592.33,-525.68 587.58,-516.21 585.39,-526.58 592.33,-525.68"/>
<text text-anchor="middle" x="598" y="-711.8" font-family="Times,serif" font-size="14.00">2</text>
</g>
<!-- c1b2&#45;&gt;d1b -->
<g id="edge7" class="edge">
<title>c1b2&#45;&gt;d1b</title>
<path fill="none" stroke="blue" d="M536.96,-935.34C521.33,-920.33 496.48,-896.44 476.85,-877.58"/>
<ellipse fill="none" stroke="blue" cx="473.83" cy="-874.67" rx="4" ry="4"/>
<text text-anchor="middle" x="520" y="-903.59" font-family="Times,serif" font-size="14.00">1</text>
</g>
<!-- d4b -->
<g id="node20" class="node">
<title>d4b</title>
<ellipse fill="none" stroke="black" cx="462" cy="-338" rx="29.8" ry="18"/>
<text text-anchor="middle" x="462" y="-334.3" font-family="Times,serif" font-size="14.00">Dup</text>
</g>
<!-- d2b&#45;&gt;d4b -->
<g id="edge26" class="edge">
<title>d2b&#45;&gt;d4b</title>
<path fill="none" stroke="red" d="M572.76,-481.27C550.75,-453 504.44,-393.52 479.24,-361.14"/>
<ellipse fill="none" stroke="red" cx="476.65" cy="-357.82" rx="4" ry="4"/>
</g>
<!-- xdicg -->
<g id="node13" class="node">
<title>xdicg</title>
<ellipse fill="none" stroke="black" cx="424" cy="-759" rx="27" ry="18"/>
<text text-anchor="middle" x="424" y="-755.3" font-family="Times,serif" font-size="14.00">!c</text>
</g>
<!-- d1b&#45;&gt;xdicg -->
<g id="edge10" class="edge">
<title>d1b&#45;&gt;xdicg</title>
<path fill="none" stroke="blue" stroke-width="2" d="M438.57,-815.03C436.13,-805.84 433.5,-795.9 431.16,-787.04"/>
<polygon fill="blue" stroke="blue" stroke-width="2" points="434.5,-786 428.56,-777.23 427.73,-787.79 434.5,-786"/>
</g>
<!-- xdicg&#45;&gt;d2a -->
<g id="edge16" class="edge">
<title>xdicg&#45;&gt;d2a</title>
<path fill="none" stroke="blue" d="M397.93,-753.53C329.06,-741.6 143.44,-708.66 84,-690 81.15,-689.11 78.24,-688.07 75.34,-686.96"/>
<ellipse fill="none" stroke="blue" cx="71.49" cy="-685.4" rx="4" ry="4"/>
</g>
<!-- h_di2g -->
<g id="node16" class="node">
<title>h_di2g</title>
<ellipse fill="none" stroke="black" cx="424" cy="-672" rx="27" ry="18"/>
<text text-anchor="middle" x="424" y="-668.3" font-family="Times,serif" font-size="14.00">!d</text>
</g>
<!-- xdicg&#45;&gt;h_di2g -->
<g id="edge17" class="edge">
<title>xdicg&#45;&gt;h_di2g</title>
<path fill="none" stroke="blue" stroke-width="2" d="M424,-740.8C424,-729.16 424,-713.55 424,-700.24"/>
<polygon fill="blue" stroke="blue" stroke-width="2" points="427.5,-700.18 424,-690.18 420.5,-700.18 427.5,-700.18"/>
<text text-anchor="middle" x="429" y="-711.8" font-family="Times,serif" font-size="14.00">1</text>
</g>
<!-- f2a&#45;&gt;d1a -->
<g id="edge11" class="edge">
<title>f2a&#45;&gt;d1a</title>
<path fill="none" stroke="red" d="M469.81,-940.76C481.45,-935.02 494.85,-926.44 503,-914.79 520.17,-890.27 517,-878.84 517,-848.9 517,-848.9 517,-848.9 517,-584 517,-564.62 514.4,-542.92 511.86,-526.3"/>
<polygon fill="red" stroke="red" points="515.27,-525.5 510.22,-516.19 508.36,-526.62 515.27,-525.5"/>
</g>
<!-- f2a&#45;&gt;d1b -->
<g id="edge12" class="edge">
<title>f2a&#45;&gt;d1b</title>
<path fill="none" stroke="blue" d="M447,-932.68C447,-921.55 447,-906.5 447,-892.23"/>
<polygon fill="blue" stroke="blue" points="450.5,-892.04 447,-882.04 443.5,-892.04 450.5,-892.04"/>
</g>
<!-- x1_o2 -->
<g id="node21" class="node">
<title>x1_o2</title>
<ellipse fill="none" stroke="black" cx="198" cy="-338" rx="27" ry="18"/>
<text text-anchor="middle" x="198" y="-334.3" font-family="Times,serif" font-size="14.00">I</text>
</g>
<!-- d2c&#45;&gt;x1_o2 -->
<g id="edge27" class="edge">
<title>d2c&#45;&gt;x1_o2</title>
<path fill="none" stroke="red" d="M336.44,-399.68C308.13,-387.27 260.53,-366.41 229.19,-352.67"/>
<polygon fill="red" stroke="red" points="230.59,-349.46 220.02,-348.65 227.78,-355.87 230.59,-349.46"/>
</g>
<!-- hbg -->
<g id="node17" class="node">
<title>hbg</title>
<ellipse fill="none" stroke="black" cx="424" cy="-585" rx="27" ry="18"/>
<text text-anchor="middle" x="424" y="-581.3" font-family="Times,serif" font-size="14.00">PiL</text>
</g>
<!-- h_di2g&#45;&gt;hbg -->
<g id="edge18" class="edge">
<title>h_di2g&#45;&gt;hbg</title>
<path fill="none" stroke="blue" stroke-width="2" d="M424,-653.8C424,-642.16 424,-626.55 424,-613.24"/>
<polygon fill="blue" stroke="blue" stroke-width="2" points="427.5,-613.18 424,-603.18 420.5,-613.18 427.5,-613.18"/>
<text text-anchor="middle" x="429" y="-624.8" font-family="Times,serif" font-size="14.00">2</text>
</g>
<!-- hbg&#45;&gt;d2b -->
<g id="edge19" class="edge">
<title>hbg&#45;&gt;d2b</title>
<path fill="none" stroke="red" d="M444.72,-573.06C473.02,-558.12 523.92,-531.25 556,-514.31"/>
<ellipse fill="none" stroke="red" cx="559.8" cy="-512.31" rx="4" ry="4"/>
</g>
<!-- x2i_o2g -->
<g id="node18" class="node">
<title>x2i_o2g</title>
<ellipse fill="none" stroke="black" cx="432" cy="-498" rx="27" ry="18"/>
<text text-anchor="middle" x="432" y="-494.3" font-family="Times,serif" font-size="14.00">PiL</text>
</g>
<!-- hbg&#45;&gt;x2i_o2g -->
<g id="edge20" class="edge">
<title>hbg&#45;&gt;x2i_o2g</title>
<path fill="none" stroke="blue" stroke-width="2" d="M414.81,-567.77C410.42,-557.98 406.75,-545.26 410,-534 411.11,-530.15 412.78,-526.32 414.71,-522.68"/>
<polygon fill="blue" stroke="blue" stroke-width="2" points="417.71,-524.49 419.9,-514.12 411.72,-520.86 417.71,-524.49"/>
<text text-anchor="middle" x="427.5" y="-537.8" font-family="Times,serif" font-size="14.00">2&#45;&gt;1</text>
</g>
<!-- x2i_o2g&#45;&gt;f_retg -->
<g id="edge22" class="edge">
<title>x2i_o2g&#45;&gt;f_retg</title>
<path fill="none" stroke="blue" stroke-width="2" d="M436.74,-480.21C440.09,-468.33 444.66,-452.17 448.5,-438.56"/>
<polygon fill="blue" stroke="blue" stroke-width="2" points="451.92,-439.33 451.27,-428.76 445.18,-437.43 451.92,-439.33"/>
</g>
<!-- x2i_o2g&#45;&gt;d2c -->
<g id="edge21" class="edge">
<title>x2i_o2g&#45;&gt;d2c</title>
<path fill="none" stroke="red" d="M419.13,-481.8C407.73,-468.35 390.97,-448.56 378.2,-433.49"/>
<ellipse fill="none" stroke="red" cx="375.59" cy="-430.4" rx="4" ry="4"/>
</g>
<!-- hi_ret1 -->
<g id="node22" class="node">
<title>hi_ret1</title>
<ellipse fill="none" stroke="black" cx="69" cy="-338" rx="27" ry="18"/>
<text text-anchor="middle" x="69" y="-334.3" font-family="Times,serif" font-size="14.00">I</text>
</g>
<!-- hi_retpa&#45;&gt;hi_ret1 -->
<g id="edge34" class="edge">
<title>hi_retpa&#45;&gt;hi_ret1</title>
<path fill="none" stroke="red" d="M29.95,-566.77C37.15,-524.78 55.65,-416.86 64.35,-366.12"/>
<polygon fill="red" stroke="red" points="67.81,-366.66 66.05,-356.21 60.91,-365.47 67.81,-366.66"/>
<text text-anchor="middle" x="56" y="-450.8" font-family="Times,serif" font-size="14.00">2</text>
</g>
<!-- h_di1 -->
<g id="node25" class="node">
<title>h_di1</title>
<ellipse fill="none" stroke="black" cx="206" cy="-498" rx="27" ry="18"/>
<text text-anchor="middle" x="206" y="-494.3" font-family="Times,serif" font-size="14.00">!d</text>
</g>
<!-- hi_retpa&#45;&gt;h_di1 -->
<g id="edge35" class="edge">
<title>hi_retpa&#45;&gt;h_di1</title>
<path fill="none" stroke="blue" d="M48.59,-573.75C80.26,-558.71 139.44,-530.61 175.53,-513.47"/>
<polygon fill="blue" stroke="blue" points="177.08,-516.61 184.61,-509.16 174.08,-510.28 177.08,-516.61"/>
<text text-anchor="middle" x="133" y="-537.8" font-family="Times,serif" font-size="14.00">1</text>
</g>
<!-- h_app -->
<g id="node23" class="node">
<title>h_app</title>
<ellipse fill="none" stroke="black" cx="464" cy="-251" rx="27" ry="18"/>
<text text-anchor="middle" x="464" y="-247.3" font-family="Times,serif" font-size="14.00">I</text>
</g>
<!-- d4b&#45;&gt;h_app -->
<g id="edge28" class="edge">
<title>d4b&#45;&gt;h_app</title>
<path fill="none" stroke="red" d="M462.4,-319.8C462.68,-308.16 463.05,-292.55 463.36,-279.24"/>
<polygon fill="red" stroke="red" points="466.86,-279.26 463.6,-269.18 459.86,-279.09 466.86,-279.26"/>
</g>
<!-- ha -->
<g id="node24" class="node">
<title>ha</title>
<ellipse fill="none" stroke="black" cx="206" cy="-411" rx="27" ry="18"/>
<text text-anchor="middle" x="206" y="-407.3" font-family="Times,serif" font-size="14.00">PiL</text>
</g>
<!-- ha&#45;&gt;d4b -->
<g id="edge29" class="edge">
<title>ha&#45;&gt;d4b</title>
<path fill="none" stroke="red" d="M228.02,-400.42C234.4,-397.83 241.42,-395.15 248,-393 308.69,-373.16 381.05,-356.27 424.16,-346.89"/>
<polygon fill="red" stroke="red" points="424.91,-350.31 433.95,-344.79 423.44,-343.47 424.91,-350.31"/>
</g>
<!-- ha&#45;&gt;hi_ret1 -->
<g id="edge30" class="edge">
<title>ha&#45;&gt;hi_ret1</title>
<path fill="none" stroke="blue" d="M185.19,-399.22C162.26,-387.33 125.17,-368.11 99.07,-354.59"/>
<polygon fill="blue" stroke="blue" points="100.49,-351.38 90,-349.88 97.27,-357.59 100.49,-351.38"/>
</g>
<!-- h_di1&#45;&gt;ha -->
<g id="edge31" class="edge">
<title>h_di1&#45;&gt;ha</title>
<path fill="none" stroke="blue" d="M206,-479.8C206,-468.16 206,-452.55 206,-439.24"/>
<polygon fill="blue" stroke="blue" points="209.5,-439.18 206,-429.18 202.5,-439.18 209.5,-439.18"/>
<text text-anchor="middle" x="211" y="-450.8" font-family="Times,serif" font-size="14.00">2</text>
</g>
<!-- c2a -->
<g id="node26" class="node">
<title>c2a</title>
<ellipse fill="none" stroke="black" cx="120" cy="-672" rx="27.1" ry="18"/>
<text text-anchor="middle" x="120" y="-668.3" font-family="Times,serif" font-size="14.00">Cut</text>
</g>
<!-- c2a&#45;&gt;hi_retpa -->
<g id="edge32" class="edge">
<title>c2a&#45;&gt;hi_retpa</title>
<path fill="none" stroke="red" d="M104.64,-656.96C89.83,-643.43 67.23,-622.77 50.22,-607.22"/>
<polygon fill="red" stroke="red" points="52.12,-604.22 42.38,-600.06 47.4,-609.39 52.12,-604.22"/>
<text text-anchor="middle" x="85" y="-624.8" font-family="Times,serif" font-size="14.00">1</text>
</g>
<!-- c2a&#45;&gt;x1_o2 -->
<g id="edge33" class="edge">
<title>c2a&#45;&gt;x1_o2</title>
<path fill="none" stroke="blue" d="M120.33,-654C121.07,-627.97 123.44,-576.76 131,-534 142.32,-469.97 146.24,-453.52 170,-393 173.84,-383.22 178.92,-372.89 183.7,-363.92"/>
<polygon fill="blue" stroke="blue" points="186.78,-365.58 188.51,-355.13 180.64,-362.22 186.78,-365.58"/>
</g>
<!-- c3 -->
<g id="node27" class="node">
<title>c3</title>
<ellipse fill="none" stroke="black" cx="537" cy="-338" rx="27.1" ry="18"/>
<text text-anchor="middle" x="537" y="-334.3" font-family="Times,serif" font-size="14.00">Cut</text>
</g>
<!-- c3&#45;&gt;h_app -->
<g id="edge37" class="edge">
<title>c3&#45;&gt;h_app</title>
<path fill="none" stroke="blue" d="M523.95,-321.8C512.74,-308.75 496.41,-289.74 483.62,-274.85"/>
<polygon fill="blue" stroke="blue" points="486.11,-272.37 476.94,-267.06 480.8,-276.93 486.11,-272.37"/>
</g>
<!-- i -->
<g id="node28" class="node">
<title>i</title>
<ellipse fill="none" stroke="black" cx="537" cy="-251" rx="27" ry="18"/>
<text text-anchor="middle" x="537" y="-247.3" font-family="Times,serif" font-size="14.00">!p</text>
</g>
<!-- c3&#45;&gt;i -->
<g id="edge36" class="edge">
<title>c3&#45;&gt;i</title>
<path fill="none" stroke="red" d="M537,-319.8C537,-308.16 537,-292.55 537,-279.24"/>
<polygon fill="red" stroke="red" points="540.5,-279.18 537,-269.18 533.5,-279.18 540.5,-279.18"/>
<text text-anchor="middle" x="542" y="-290.8" font-family="Times,serif" font-size="14.00">2</text>
</g>
<!-- i_i -->
<g id="node29" class="node">
<title>i_i</title>
<ellipse fill="none" stroke="black" cx="537" cy="-164" rx="27" ry="18"/>
<text text-anchor="middle" x="537" y="-160.3" font-family="Times,serif" font-size="14.00">PiR</text>
</g>
<!-- i&#45;&gt;i_i -->
<g id="edge38" class="edge">
<title>i&#45;&gt;i_i</title>
<path fill="none" stroke="red" d="M537,-232.8C537,-221.16 537,-205.55 537,-192.24"/>
<polygon fill="red" stroke="red" points="540.5,-192.18 537,-182.18 533.5,-192.18 540.5,-192.18"/>
<text text-anchor="middle" x="542" y="-203.8" font-family="Times,serif" font-size="14.00">3</text>
</g>
<!-- il -->
<g id="node30" class="node">
<title>il</title>
<ellipse fill="none" stroke="black" cx="580" cy="-91" rx="27" ry="18"/>
<text text-anchor="middle" x="580" y="-87.3" font-family="Times,serif" font-size="14.00">!d</text>
</g>
<!-- i_i&#45;&gt;il -->
<g id="edge39" class="edge">
<title>i_i&#45;&gt;il</title>
<path fill="none" stroke="blue" d="M546.76,-146.89C552.15,-137.99 558.95,-126.75 565,-116.77"/>
<polygon fill="blue" stroke="blue" points="568.09,-118.41 570.28,-108.05 562.11,-114.79 568.09,-118.41"/>
</g>
<!-- i_ret -->
<g id="node31" class="node">
<title>i_ret</title>
<ellipse fill="none" stroke="black" cx="537" cy="-18" rx="27" ry="18"/>
<text text-anchor="middle" x="537" y="-14.3" font-family="Times,serif" font-size="14.00">I</text>
</g>
<!-- i_i&#45;&gt;i_ret -->
<g id="edge40" class="edge">
<title>i_i&#45;&gt;i_ret</title>
<path fill="none" stroke="red" d="M537,-145.92C537,-121.34 537,-75.75 537,-46.43"/>
<polygon fill="red" stroke="red" points="540.5,-46.06 537,-36.06 533.5,-46.06 540.5,-46.06"/>
</g>
<!-- il&#45;&gt;i_ret -->
<g id="edge41" class="edge">
<title>il&#45;&gt;i_ret</title>
<path fill="none" stroke="blue" d="M570.24,-73.89C564.85,-64.99 558.05,-53.75 552,-43.77"/>
<polygon fill="blue" stroke="blue" points="554.89,-41.79 546.72,-35.05 548.91,-45.41 554.89,-41.79"/>
</g>
</g>
</svg>
