<?xml version="1.0" encoding="UTF-8" standalone="no"?>
<!DOCTYPE svg PUBLIC "-//W3C//DTD SVG 1.1//EN"
 "http://www.w3.org/Graphics/SVG/1.1/DTD/svg11.dtd">
<!-- Generated by graphviz version 2.40.1 (20161225.0304)
 -->
<!-- Title: %3 Pages: 1 -->
<svg width="316pt" height="973pt"
 viewBox="0.00 0.00 316.00 972.90" xmlns="http://www.w3.org/2000/svg" xmlns:xlink="http://www.w3.org/1999/xlink">
<g id="graph0" class="graph" transform="scale(1 1) rotate(0) translate(4 968.895)">
<title>%3</title>
<polygon fill="#ffffff" stroke="transparent" points="-4,4 -4,-968.895 312,-968.895 312,4 -4,4"/>
<!-- Root -->
<g id="node1" class="node">
<title>Root</title>
<ellipse fill="none" stroke="#000000" cx="222" cy="-946.895" rx="32.4942" ry="18"/>
<text text-anchor="middle" x="222" y="-943.195" font-family="Times,serif" font-size="14.00" fill="#000000">Root</text>
</g>
<!-- c1b -->
<g id="node2" class="node">
<title>c1b</title>
<ellipse fill="none" stroke="#000000" cx="170" cy="-873.895" rx="27.8951" ry="18"/>
<text text-anchor="middle" x="170" y="-870.195" font-family="Times,serif" font-size="14.00" fill="#000000">Cut</text>
</g>
<!-- Root&#45;&gt;c1b -->
<g id="edge1" class="edge">
<title>Root&#45;&gt;c1b</title>
<path fill="none" stroke="#000000" d="M209.9395,-929.9639C203.3295,-920.6845 195.013,-909.0095 187.6825,-898.7185"/>
<polygon fill="#000000" stroke="#000000" points="190.4684,-896.5969 181.8159,-890.4827 184.767,-900.6582 190.4684,-896.5969"/>
</g>
<!-- d1 -->
<g id="node5" class="node">
<title>d1</title>
<ellipse fill="none" stroke="#000000" cx="250" cy="-612.9475" rx="29.795" ry="18"/>
<text text-anchor="middle" x="250" y="-609.2475" font-family="Times,serif" font-size="14.00" fill="#000000">Dup</text>
</g>
<!-- Root&#45;&gt;d1 -->
<g id="edge5" class="edge">
<title>Root&#45;&gt;d1</title>
<path fill="none" stroke="#ff0000" d="M232.7455,-929.6065C240.6416,-915.2441 250,-893.9844 250,-873.895 250,-873.895 250,-873.895 250,-699.895 250,-680.4543 250,-658.5684 250,-641.6179"/>
<polygon fill="#ff0000" stroke="#ff0000" points="253.5001,-641.267 250,-631.267 246.5001,-641.2671 253.5001,-641.267"/>
<text text-anchor="middle" x="267.5" y="-783.195" font-family="Times,serif" font-size="14.00" fill="#000000">0&#45;&gt;1</text>
</g>
<!-- c2b -->
<g id="node4" class="node">
<title>c2b</title>
<ellipse fill="none" stroke="#000000" cx="170" cy="-612.9475" rx="27.9017" ry="27.9017"/>
<ellipse fill="none" stroke="#000000" cx="170" cy="-612.9475" rx="31.8951" ry="31.8951"/>
<text text-anchor="middle" x="170" y="-609.2475" font-family="Times,serif" font-size="14.00" fill="#000000">Cut</text>
</g>
<!-- c1b&#45;&gt;c2b -->
<g id="edge3" class="edge">
<title>c1b&#45;&gt;c2b</title>
<path fill="none" stroke="#000000" d="M173.6821,-855.8291C176.3126,-841.9637 179.6207,-822.3083 181,-804.895 185.3166,-750.3991 185.3199,-736.3908 181,-681.895 180.2901,-672.94 179.0694,-663.3917 177.6931,-654.344"/>
<polygon fill="#000000" stroke="#000000" points="181.1372,-653.7164 176.0921,-644.3999 174.2262,-654.8291 181.1372,-653.7164"/>
</g>
<!-- d2 -->
<g id="node6" class="node">
<title>d2</title>
<ellipse fill="none" stroke="#000000" cx="90" cy="-612.9475" rx="29.795" ry="18"/>
<text text-anchor="middle" x="90" y="-609.2475" font-family="Times,serif" font-size="14.00" fill="#000000">Dup</text>
</g>
<!-- c1b&#45;&gt;d2 -->
<g id="edge9" class="edge">
<title>c1b&#45;&gt;d2</title>
<path fill="none" stroke="#0000ff" d="M152.5038,-859.7625C138.1411,-847.0549 118.6527,-827.0252 109,-804.895 85.3202,-750.6057 85.2917,-679.7082 87.5364,-641.0666"/>
<polygon fill="#0000ff" stroke="#0000ff" points="91.0301,-641.2768 88.2121,-631.0636 84.046,-640.805 91.0301,-641.2768"/>
<text text-anchor="middle" x="99" y="-739.695" font-family="Times,serif" font-size="14.00" fill="#000000">1</text>
</g>
<!-- fpa -->
<g id="node9" class="node">
<title>fpa</title>
<ellipse fill="none" stroke="#000000" cx="145" cy="-786.895" rx="27" ry="18"/>
<text text-anchor="middle" x="145" y="-783.195" font-family="Times,serif" font-size="14.00" fill="#000000">!p</text>
</g>
<!-- c1b&#45;&gt;fpa -->
<g id="edge8" class="edge">
<title>c1b&#45;&gt;fpa</title>
<path fill="none" stroke="#ff0000" d="M164.82,-855.8686C161.3781,-843.8908 156.793,-827.9346 152.8998,-814.3862"/>
<polygon fill="#ff0000" stroke="#ff0000" points="156.2136,-813.2451 150.0878,-804.6007 149.4858,-815.1785 156.2136,-813.2451"/>
<text text-anchor="middle" x="163" y="-826.695" font-family="Times,serif" font-size="14.00" fill="#000000">0</text>
</g>
<!-- fa -->
<g id="node3" class="node">
<title>fa</title>
<ellipse fill="none" stroke="#000000" cx="145" cy="-699.895" rx="27" ry="18"/>
<text text-anchor="middle" x="145" y="-696.195" font-family="Times,serif" font-size="14.00" fill="#000000">PiR</text>
</g>
<!-- fa&#45;&gt;c2b -->
<g id="edge2" class="edge">
<title>fa&#45;&gt;c2b</title>
<path fill="none" stroke="#000000" d="M150.18,-681.8795C152.5399,-673.6722 155.4371,-663.5958 158.2803,-653.7074"/>
<polygon fill="#000000" stroke="#000000" points="161.6839,-654.5357 161.0836,-643.9578 154.9565,-652.6013 161.6839,-654.5357"/>
</g>
<!-- fa&#45;&gt;d1 -->
<g id="edge12" class="edge">
<title>fa&#45;&gt;d1</title>
<path fill="none" stroke="#ff0000" d="M162.3386,-685.5374C179.7129,-671.1503 206.5956,-648.8895 226.0111,-632.8121"/>
<ellipse fill="none" stroke="#ff0000" cx="229.2038" cy="-630.1683" rx="4" ry="4"/>
</g>
<!-- fa&#45;&gt;d2 -->
<g id="edge11" class="edge">
<title>fa&#45;&gt;d2</title>
<path fill="none" stroke="#0000ff" d="M134.3954,-683.1307C126.0794,-669.9842 114.3979,-651.5174 105.1047,-636.826"/>
<ellipse fill="none" stroke="#0000ff" cx="102.898" cy="-633.3375" rx="4" ry="4"/>
</g>
<!-- hi_retp -->
<g id="node8" class="node">
<title>hi_retp</title>
<ellipse fill="none" stroke="#000000" cx="99" cy="-512" rx="27" ry="18"/>
<text text-anchor="middle" x="99" y="-508.3" font-family="Times,serif" font-size="14.00" fill="#000000">!p</text>
</g>
<!-- c2b&#45;&gt;hi_retp -->
<g id="edge13" class="edge">
<title>c2b&#45;&gt;hi_retp</title>
<path fill="none" stroke="#ff0000" d="M151.5309,-586.6883C140.6773,-571.2566 127.0402,-551.8675 116.3809,-536.7121"/>
<polygon fill="#ff0000" stroke="#ff0000" points="119.1082,-534.5059 110.4925,-528.3399 113.3826,-538.533 119.1082,-534.5059"/>
<text text-anchor="middle" x="140" y="-551.8" font-family="Times,serif" font-size="14.00" fill="#000000">1</text>
</g>
<!-- x_o2 -->
<g id="node10" class="node">
<title>x_o2</title>
<ellipse fill="none" stroke="#000000" cx="234" cy="-512" rx="27" ry="18"/>
<text text-anchor="middle" x="234" y="-508.3" font-family="Times,serif" font-size="14.00" fill="#000000">!c</text>
</g>
<!-- c2b&#45;&gt;x_o2 -->
<g id="edge14" class="edge">
<title>c2b&#45;&gt;x_o2</title>
<path fill="none" stroke="#0000ff" d="M187.1508,-585.8954C196.7175,-570.8058 208.5594,-552.1276 217.9439,-537.3254"/>
<polygon fill="#0000ff" stroke="#0000ff" points="221.0287,-538.9963 223.4272,-528.6765 215.1167,-535.2481 221.0287,-538.9963"/>
<text text-anchor="middle" x="214" y="-551.8" font-family="Times,serif" font-size="14.00" fill="#000000">1</text>
</g>
<!-- d1&#45;&gt;d2 -->
<g id="edge4" class="edge">
<title>d1&#45;&gt;d2</title>
<path fill="none" stroke="#000000" stroke-dasharray="5,2" d="M239.3078,-630.0243C230.8201,-641.8474 217.7772,-656.629 202,-663.395 175.8581,-674.606 164.1419,-674.606 138,-663.395 122.2228,-656.629 109.1799,-641.8474 100.6922,-630.0243"/>
</g>
<!-- f_ret -->
<g id="node7" class="node">
<title>f_ret</title>
<ellipse fill="none" stroke="#000000" cx="207" cy="-251" rx="27" ry="18"/>
<text text-anchor="middle" x="207" y="-247.3" font-family="Times,serif" font-size="14.00" fill="#000000">I</text>
</g>
<!-- d1&#45;&gt;f_ret -->
<g id="edge6" class="edge">
<title>d1&#45;&gt;f_ret</title>
<path fill="none" stroke="#ff0000" d="M231.3456,-598.7568C210.3095,-580.9886 179,-548.4247 179,-512 179,-512 179,-512 179,-338 179,-316.9103 186.5478,-294.2679 193.8058,-277.3701"/>
<polygon fill="#ff0000" stroke="#ff0000" points="197.0488,-278.6932 197.9865,-268.14 190.6723,-275.8051 197.0488,-278.6932"/>
</g>
<!-- d2&#45;&gt;hi_retp -->
<g id="edge7" class="edge">
<title>d2&#45;&gt;hi_retp</title>
<path fill="none" stroke="#0000ff" d="M91.609,-594.9001C92.9573,-579.7778 94.9059,-557.9209 96.4639,-540.4463"/>
<polygon fill="#0000ff" stroke="#0000ff" points="99.9726,-540.5028 97.3746,-530.2315 93.0003,-539.8812 99.9726,-540.5028"/>
<text text-anchor="middle" x="101" y="-551.8" font-family="Times,serif" font-size="14.00" fill="#000000">1</text>
</g>
<!-- hi_ret -->
<g id="node14" class="node">
<title>hi_ret</title>
<ellipse fill="none" stroke="#000000" cx="126" cy="-251" rx="27" ry="18"/>
<text text-anchor="middle" x="126" y="-247.3" font-family="Times,serif" font-size="14.00" fill="#000000">I</text>
</g>
<!-- hi_retp&#45;&gt;hi_ret -->
<g id="edge20" class="edge">
<title>hi_retp&#45;&gt;hi_ret</title>
<path fill="none" stroke="#ff0000" d="M101.1887,-493.8496C102.8455,-479.9399 105.1449,-460.2662 107,-443 113.2531,-384.8004 119.8226,-316.5914 123.3628,-279.1572"/>
<polygon fill="#ff0000" stroke="#ff0000" points="126.8653,-279.2948 124.3194,-269.0104 119.8962,-278.6377 126.8653,-279.2948"/>
<text text-anchor="middle" x="119" y="-377.8" font-family="Times,serif" font-size="14.00" fill="#000000">2</text>
</g>
<!-- h_di -->
<g id="node15" class="node">
<title>h_di</title>
<ellipse fill="none" stroke="#000000" cx="71" cy="-425" rx="27" ry="18"/>
<text text-anchor="middle" x="71" y="-421.3" font-family="Times,serif" font-size="14.00" fill="#000000">!d</text>
</g>
<!-- hi_retp&#45;&gt;h_di -->
<g id="edge21" class="edge">
<title>hi_retp&#45;&gt;h_di</title>
<path fill="none" stroke="#0000ff" d="M93.3338,-494.3943C89.4881,-482.4453 84.3234,-466.3978 79.9293,-452.7446"/>
<polygon fill="#0000ff" stroke="#0000ff" points="83.1493,-451.325 76.7539,-442.8782 76.4859,-453.4696 83.1493,-451.325"/>
<text text-anchor="middle" x="92" y="-464.8" font-family="Times,serif" font-size="14.00" fill="#000000">1</text>
</g>
<!-- fpa&#45;&gt;fa -->
<g id="edge10" class="edge">
<title>fpa&#45;&gt;fa</title>
<path fill="none" stroke="#ff0000" d="M145,-768.8686C145,-757.0868 145,-741.4557 145,-728.0531"/>
<polygon fill="#ff0000" stroke="#ff0000" points="148.5001,-727.8984 145,-717.8984 141.5001,-727.8984 148.5001,-727.8984"/>
<text text-anchor="middle" x="150" y="-739.695" font-family="Times,serif" font-size="14.00" fill="#000000">1</text>
</g>
<!-- x1_o2 -->
<g id="node11" class="node">
<title>x1_o2</title>
<ellipse fill="none" stroke="#000000" cx="281" cy="-251" rx="27" ry="18"/>
<text text-anchor="middle" x="281" y="-247.3" font-family="Times,serif" font-size="14.00" fill="#000000">I</text>
</g>
<!-- x_o2&#45;&gt;x1_o2 -->
<g id="edge15" class="edge">
<title>x_o2&#45;&gt;x1_o2</title>
<path fill="none" stroke="#0000ff" d="M245.1501,-495.5389C253.6337,-482.0564 264.7202,-462.1474 270,-443 285.55,-386.6072 284.9677,-317.4722 283.0512,-279.4506"/>
<polygon fill="#0000ff" stroke="#0000ff" points="286.5269,-278.9254 282.4589,-269.1426 279.5384,-279.327 286.5269,-278.9254"/>
</g>
<!-- x2_o2 -->
<g id="node12" class="node">
<title>x2_o2</title>
<ellipse fill="none" stroke="#000000" cx="234" cy="-425" rx="27" ry="18"/>
<text text-anchor="middle" x="234" y="-421.3" font-family="Times,serif" font-size="14.00" fill="#000000">!d</text>
</g>
<!-- x_o2&#45;&gt;x2_o2 -->
<g id="edge16" class="edge">
<title>x_o2&#45;&gt;x2_o2</title>
<path fill="none" stroke="#0000ff" d="M234,-493.9735C234,-482.1918 234,-466.5607 234,-453.1581"/>
<polygon fill="#0000ff" stroke="#0000ff" points="237.5001,-453.0033 234,-443.0034 230.5001,-453.0034 237.5001,-453.0033"/>
</g>
<!-- x2i_o2 -->
<g id="node13" class="node">
<title>x2i_o2</title>
<ellipse fill="none" stroke="#000000" cx="234" cy="-338" rx="27" ry="18"/>
<text text-anchor="middle" x="234" y="-334.3" font-family="Times,serif" font-size="14.00" fill="#000000">PiL</text>
</g>
<!-- x2_o2&#45;&gt;x2i_o2 -->
<g id="edge17" class="edge">
<title>x2_o2&#45;&gt;x2i_o2</title>
<path fill="none" stroke="#0000ff" d="M234,-406.9735C234,-395.1918 234,-379.5607 234,-366.1581"/>
<polygon fill="#0000ff" stroke="#0000ff" points="237.5001,-366.0033 234,-356.0034 230.5001,-366.0034 237.5001,-366.0033"/>
</g>
<!-- x2i_o2&#45;&gt;f_ret -->
<g id="edge19" class="edge">
<title>x2i_o2&#45;&gt;f_ret</title>
<path fill="none" stroke="#0000ff" d="M228.4056,-319.9735C224.6884,-307.9958 219.7364,-292.0396 215.5317,-278.4912"/>
<polygon fill="#0000ff" stroke="#0000ff" points="218.8017,-277.2189 212.4949,-268.7057 212.1162,-279.2938 218.8017,-277.2189"/>
</g>
<!-- x2i_o2&#45;&gt;x1_o2 -->
<g id="edge18" class="edge">
<title>x2i_o2&#45;&gt;x1_o2</title>
<path fill="none" stroke="#ff0000" d="M243.2857,-320.8116C250.0449,-308.3 259.317,-291.1366 266.9761,-276.9592"/>
<polygon fill="#ff0000" stroke="#ff0000" points="270.0599,-278.6145 271.7336,-268.1527 263.9011,-275.2873 270.0599,-278.6145"/>
</g>
<!-- h -->
<g id="node16" class="node">
<title>h</title>
<ellipse fill="none" stroke="#000000" cx="71" cy="-338" rx="27" ry="18"/>
<text text-anchor="middle" x="71" y="-334.3" font-family="Times,serif" font-size="14.00" fill="#000000">PiL</text>
</g>
<!-- h_di&#45;&gt;h -->
<g id="edge22" class="edge">
<title>h_di&#45;&gt;h</title>
<path fill="none" stroke="#0000ff" d="M71,-406.9735C71,-395.1918 71,-379.5607 71,-366.1581"/>
<polygon fill="#0000ff" stroke="#0000ff" points="74.5001,-366.0033 71,-356.0034 67.5001,-366.0034 74.5001,-366.0033"/>
<text text-anchor="middle" x="76" y="-377.8" font-family="Times,serif" font-size="14.00" fill="#000000">2</text>
</g>
<!-- h&#45;&gt;hi_ret -->
<g id="edge28" class="edge">
<title>h&#45;&gt;hi_ret</title>
<path fill="none" stroke="#0000ff" d="M81.6046,-321.2255C89.6699,-308.4677 100.9008,-290.7024 110.0484,-276.2325"/>
<polygon fill="#0000ff" stroke="#0000ff" points="113.0428,-278.0458 115.428,-267.723 107.126,-274.3053 113.0428,-278.0458"/>
</g>
<!-- i -->
<g id="node17" class="node">
<title>i</title>
<ellipse fill="none" stroke="#000000" cx="54" cy="-251" rx="27" ry="18"/>
<text text-anchor="middle" x="54" y="-247.3" font-family="Times,serif" font-size="14.00" fill="#000000">!p</text>
</g>
<!-- h&#45;&gt;i -->
<g id="edge27" class="edge">
<title>h&#45;&gt;i</title>
<path fill="none" stroke="#ff0000" d="M67.4776,-319.9735C65.1754,-308.1918 62.121,-292.5607 59.5022,-279.1581"/>
<polygon fill="#ff0000" stroke="#ff0000" points="62.8708,-278.1465 57.5179,-269.0034 56.0007,-279.489 62.8708,-278.1465"/>
<text text-anchor="middle" x="69" y="-290.8" font-family="Times,serif" font-size="14.00" fill="#000000">2</text>
</g>
<!-- i_i -->
<g id="node18" class="node">
<title>i_i</title>
<ellipse fill="none" stroke="#000000" cx="54" cy="-164" rx="27" ry="18"/>
<text text-anchor="middle" x="54" y="-160.3" font-family="Times,serif" font-size="14.00" fill="#000000">PiR</text>
</g>
<!-- i&#45;&gt;i_i -->
<g id="edge23" class="edge">
<title>i&#45;&gt;i_i</title>
<path fill="none" stroke="#ff0000" d="M54,-232.9735C54,-221.1918 54,-205.5607 54,-192.1581"/>
<polygon fill="#ff0000" stroke="#ff0000" points="57.5001,-192.0033 54,-182.0034 50.5001,-192.0034 57.5001,-192.0033"/>
<text text-anchor="middle" x="59" y="-203.8" font-family="Times,serif" font-size="14.00" fill="#000000">3</text>
</g>
<!-- il -->
<g id="node19" class="node">
<title>il</title>
<ellipse fill="none" stroke="#000000" cx="27" cy="-91" rx="27" ry="18"/>
<text text-anchor="middle" x="27" y="-87.3" font-family="Times,serif" font-size="14.00" fill="#000000">!d</text>
</g>
<!-- i_i&#45;&gt;il -->
<g id="edge24" class="edge">
<title>i_i&#45;&gt;il</title>
<path fill="none" stroke="#0000ff" d="M47.4641,-146.3287C44.3134,-137.8103 40.4659,-127.4078 36.9608,-117.9312"/>
<polygon fill="#0000ff" stroke="#0000ff" points="40.2274,-116.6734 33.4758,-108.5085 33.6621,-119.1017 40.2274,-116.6734"/>
</g>
<!-- i_ret -->
<g id="node20" class="node">
<title>i_ret</title>
<ellipse fill="none" stroke="#000000" cx="54" cy="-18" rx="27" ry="18"/>
<text text-anchor="middle" x="54" y="-14.3" font-family="Times,serif" font-size="14.00" fill="#000000">I</text>
</g>
<!-- i_i&#45;&gt;i_ret -->
<g id="edge25" class="edge">
<title>i_i&#45;&gt;i_ret</title>
<path fill="none" stroke="#ff0000" d="M57.7475,-145.7581C59.7467,-135.0941 61.9967,-121.3441 63,-109 64.2962,-93.0526 64.2962,-88.9474 63,-73 62.2867,-64.2241 60.9433,-54.7377 59.5079,-46.1547"/>
<polygon fill="#ff0000" stroke="#ff0000" points="62.9422,-45.4759 57.7475,-36.2419 56.05,-46.6999 62.9422,-45.4759"/>
</g>
<!-- il&#45;&gt;i_ret -->
<g id="edge26" class="edge">
<title>il&#45;&gt;i_ret</title>
<path fill="none" stroke="#0000ff" d="M33.5359,-73.3287C36.6866,-64.8103 40.5341,-54.4078 44.0392,-44.9312"/>
<polygon fill="#0000ff" stroke="#0000ff" points="47.3379,-46.1017 47.5242,-35.5085 40.7726,-43.6734 47.3379,-46.1017"/>
</g>
</g>
</svg>
