<?xml version="1.0" encoding="UTF-8" standalone="no"?>
<!DOCTYPE svg PUBLIC "-//W3C//DTD SVG 1.1//EN"
 "http://www.w3.org/Graphics/SVG/1.1/DTD/svg11.dtd">
<!-- Generated by graphviz version 2.43.0 (0)
 -->
<!-- Title: %3 Pages: 1 -->
<svg width="323pt" height="972pt"
 viewBox="0.00 0.00 323.00 971.60" xmlns="http://www.w3.org/2000/svg" xmlns:xlink="http://www.w3.org/1999/xlink">
<g id="graph0" class="graph" transform="scale(1 1) rotate(0) translate(4 967.6)">
<title>%3</title>
<polygon fill="white" stroke="transparent" points="-4,4 -4,-967.6 319,-967.6 319,4 -4,4"/>
<!-- Root -->
<g id="node1" class="node">
<title>Root</title>
<ellipse fill="none" stroke="black" cx="222" cy="-945.6" rx="32.49" ry="18"/>
<text text-anchor="middle" x="222" y="-941.9" font-family="Times,serif" font-size="14.00">Root</text>
</g>
<!-- c1b -->
<g id="node2" class="node">
<title>c1b</title>
<ellipse fill="none" stroke="black" cx="185" cy="-872.6" rx="27.1" ry="18"/>
<text text-anchor="middle" x="185" y="-868.9" font-family="Times,serif" font-size="14.00">Cut</text>
</g>
<!-- Root&#45;&gt;c1b -->
<g id="edge1" class="edge">
<title>Root&#45;&gt;c1b</title>
<path fill="none" stroke="black" d="M213.42,-928.13C208.89,-919.44 203.23,-908.58 198.16,-898.85"/>
<polygon fill="black" stroke="black" points="201.26,-897.22 193.54,-889.97 195.05,-900.46 201.26,-897.22"/>
</g>
<!-- d1 -->
<g id="node5" class="node">
<title>d1</title>
<ellipse fill="none" stroke="black" cx="249" cy="-612.3" rx="29.8" ry="18"/>
<text text-anchor="middle" x="249" y="-608.6" font-family="Times,serif" font-size="14.00">Dup</text>
</g>
<!-- Root&#45;&gt;d1 -->
<g id="edge5" class="edge">
<title>Root&#45;&gt;d1</title>
<path fill="none" stroke="red" d="M232.43,-928.38C240.39,-914.43 250,-893.47 250,-873.6 250,-873.6 250,-873.6 250,-697.6 250,-678.51 249.74,-656.99 249.49,-640.47"/>
<polygon fill="red" stroke="red" points="252.98,-640.35 249.32,-630.41 245.99,-640.47 252.98,-640.35"/>
<text text-anchor="middle" x="267.5" y="-781.9" font-family="Times,serif" font-size="14.00">0&#45;&gt;1</text>
</g>
<!-- c2b -->
<g id="node4" class="node">
<title>c2b</title>
<ellipse fill="none" stroke="black" cx="170" cy="-612.3" rx="27.12" ry="27.12"/>
<ellipse fill="none" stroke="black" cx="170" cy="-612.3" rx="31.1" ry="31.1"/>
<text text-anchor="middle" x="170" y="-608.6" font-family="Times,serif" font-size="14.00">Cut</text>
</g>
<!-- c1b&#45;&gt;c2b -->
<g id="edge3" class="edge">
<title>c1b&#45;&gt;c2b</title>
<path fill="none" stroke="black" d="M185.45,-854.43C186.15,-820.92 186.86,-744.5 181,-680.6 180.19,-671.78 178.92,-662.38 177.52,-653.48"/>
<polygon fill="black" stroke="black" points="180.92,-652.63 175.84,-643.33 174.02,-653.77 180.92,-652.63"/>
</g>
<!-- d2 -->
<g id="node6" class="node">
<title>d2</title>
<ellipse fill="none" stroke="black" cx="91" cy="-612.3" rx="29.8" ry="18"/>
<text text-anchor="middle" x="91" y="-608.6" font-family="Times,serif" font-size="14.00">Dup</text>
</g>
<!-- c1b&#45;&gt;d2 -->
<g id="edge9" class="edge">
<title>c1b&#45;&gt;d2</title>
<path fill="none" stroke="blue" d="M165.31,-860.08C147.28,-848.36 121.53,-828.41 109,-803.6 82.38,-750.89 84.07,-679.51 87.58,-640.89"/>
<polygon fill="blue" stroke="blue" points="91.11,-640.76 88.64,-630.46 84.14,-640.05 91.11,-640.76"/>
<text text-anchor="middle" x="97" y="-738.4" font-family="Times,serif" font-size="14.00">1</text>
</g>
<!-- fpa -->
<g id="node9" class="node">
<title>fpa</title>
<ellipse fill="none" stroke="black" cx="145" cy="-785.6" rx="27" ry="18"/>
<text text-anchor="middle" x="145" y="-781.9" font-family="Times,serif" font-size="14.00">!p</text>
</g>
<!-- c1b&#45;&gt;fpa -->
<g id="edge8" class="edge">
<title>c1b&#45;&gt;fpa</title>
<path fill="none" stroke="red" d="M177.29,-855.21C171.53,-842.98 163.56,-826.04 156.98,-812.05"/>
<polygon fill="red" stroke="red" points="160.11,-810.49 152.69,-802.93 153.78,-813.47 160.11,-810.49"/>
<text text-anchor="middle" x="172" y="-825.4" font-family="Times,serif" font-size="14.00">0</text>
</g>
<!-- fa -->
<g id="node3" class="node">
<title>fa</title>
<ellipse fill="none" stroke="black" cx="145" cy="-698.6" rx="27" ry="18"/>
<text text-anchor="middle" x="145" y="-694.9" font-family="Times,serif" font-size="14.00">PiR</text>
</g>
<!-- fa&#45;&gt;c2b -->
<g id="edge2" class="edge">
<title>fa&#45;&gt;c2b</title>
<path fill="none" stroke="black" d="M150.06,-680.54C152.48,-672.38 155.48,-662.26 158.42,-652.36"/>
<polygon fill="black" stroke="black" points="161.82,-653.2 161.3,-642.62 155.1,-651.21 161.82,-653.2"/>
</g>
<!-- fa&#45;&gt;d1 -->
<g id="edge12" class="edge">
<title>fa&#45;&gt;d1</title>
<path fill="none" stroke="red" d="M161.71,-684.05C178.94,-670.09 205.96,-648.19 225.37,-632.45"/>
<ellipse fill="none" stroke="red" cx="228.53" cy="-629.89" rx="4" ry="4"/>
</g>
<!-- fa&#45;&gt;d2 -->
<g id="edge11" class="edge">
<title>fa&#45;&gt;d2</title>
<path fill="none" stroke="blue" d="M134.84,-681.74C126.6,-668.87 114.87,-650.55 105.61,-636.11"/>
<ellipse fill="none" stroke="blue" cx="103.45" cy="-632.74" rx="4" ry="4"/>
</g>
<!-- hi_retp -->
<g id="node8" class="node">
<title>hi_retp</title>
<ellipse fill="none" stroke="black" cx="99" cy="-512" rx="27" ry="18"/>
<text text-anchor="middle" x="99" y="-508.3" font-family="Times,serif" font-size="14.00">!p</text>
</g>
<!-- c2b&#45;&gt;hi_retp -->
<g id="edge13" class="edge">
<title>c2b&#45;&gt;hi_retp</title>
<path fill="none" stroke="red" d="M152.08,-586.49C141.09,-571.28 127.1,-551.9 116.24,-536.86"/>
<polygon fill="red" stroke="red" points="118.94,-534.63 110.25,-528.58 113.27,-538.73 118.94,-534.63"/>
<text text-anchor="middle" x="139" y="-551.8" font-family="Times,serif" font-size="14.00">1</text>
</g>
<!-- x_o2 -->
<g id="node10" class="node">
<title>x_o2</title>
<ellipse fill="none" stroke="black" cx="234" cy="-512" rx="27" ry="18"/>
<text text-anchor="middle" x="234" y="-508.3" font-family="Times,serif" font-size="14.00">!c</text>
</g>
<!-- c2b&#45;&gt;x_o2 -->
<g id="edge14" class="edge">
<title>c2b&#45;&gt;x_o2</title>
<path fill="none" stroke="blue" d="M186.65,-585.73C196.34,-570.84 208.49,-552.17 218.06,-537.48"/>
<polygon fill="blue" stroke="blue" points="221.12,-539.2 223.64,-528.91 215.25,-535.38 221.12,-539.2"/>
<text text-anchor="middle" x="214" y="-551.8" font-family="Times,serif" font-size="14.00">1</text>
</g>
<!-- d1&#45;&gt;d2 -->
<g id="edge4" class="edge">
<title>d1&#45;&gt;d2</title>
<path fill="none" stroke="black" stroke-dasharray="5,2" d="M238.26,-629.16C229.74,-640.83 216.69,-655.43 201,-662.1 175.64,-672.87 164.36,-672.87 139,-662.1 123.31,-655.43 110.26,-640.83 101.74,-629.16"/>
</g>
<!-- f_ret -->
<g id="node7" class="node">
<title>f_ret</title>
<ellipse fill="none" stroke="black" cx="214" cy="-251" rx="27" ry="18"/>
<text text-anchor="middle" x="214" y="-247.3" font-family="Times,serif" font-size="14.00">I</text>
</g>
<!-- d1&#45;&gt;f_ret -->
<g id="edge6" class="edge">
<title>d1&#45;&gt;f_ret</title>
<path fill="none" stroke="red" d="M230.97,-597.83C210.23,-580.65 179,-548.83 179,-513 179,-513 179,-513 179,-337 179,-315.52 188.67,-293.13 197.85,-276.73"/>
<polygon fill="red" stroke="red" points="201.04,-278.2 203.12,-267.81 195.02,-274.64 201.04,-278.2"/>
</g>
<!-- d2&#45;&gt;hi_retp -->
<g id="edge7" class="edge">
<title>d2&#45;&gt;hi_retp</title>
<path fill="none" stroke="blue" d="M92.39,-594.18C93.6,-579.33 95.37,-557.57 96.78,-540.31"/>
<polygon fill="blue" stroke="blue" points="100.27,-540.51 97.6,-530.26 93.3,-539.94 100.27,-540.51"/>
<text text-anchor="middle" x="101" y="-551.8" font-family="Times,serif" font-size="14.00">1</text>
</g>
<!-- hi_ret -->
<g id="node14" class="node">
<title>hi_ret</title>
<ellipse fill="none" stroke="black" cx="126" cy="-251" rx="27" ry="18"/>
<text text-anchor="middle" x="126" y="-247.3" font-family="Times,serif" font-size="14.00">I</text>
</g>
<!-- hi_retp&#45;&gt;hi_ret -->
<g id="edge20" class="edge">
<title>hi_retp&#45;&gt;hi_ret</title>
<path fill="none" stroke="red" d="M101.09,-493.96C102.76,-480.21 105.11,-460.37 107,-443 113.33,-384.66 119.94,-316.19 123.45,-279.14"/>
<polygon fill="red" stroke="red" points="126.94,-279.42 124.4,-269.13 119.98,-278.76 126.94,-279.42"/>
<text text-anchor="middle" x="119" y="-377.8" font-family="Times,serif" font-size="14.00">2</text>
</g>
<!-- h_di -->
<g id="node15" class="node">
<title>h_di</title>
<ellipse fill="none" stroke="black" cx="71" cy="-425" rx="27" ry="18"/>
<text text-anchor="middle" x="71" y="-421.3" font-family="Times,serif" font-size="14.00">!d</text>
</g>
<!-- hi_retp&#45;&gt;h_di -->
<g id="edge21" class="edge">
<title>hi_retp&#45;&gt;h_di</title>
<path fill="none" stroke="blue" d="M93.47,-494.21C89.56,-482.33 84.23,-466.17 79.75,-452.56"/>
<polygon fill="blue" stroke="blue" points="82.97,-451.16 76.52,-442.76 76.32,-453.35 82.97,-451.16"/>
<text text-anchor="middle" x="92" y="-464.8" font-family="Times,serif" font-size="14.00">1</text>
</g>
<!-- fpa&#45;&gt;fa -->
<g id="edge10" class="edge">
<title>fpa&#45;&gt;fa</title>
<path fill="none" stroke="red" d="M145,-767.39C145,-755.76 145,-740.14 145,-726.83"/>
<polygon fill="red" stroke="red" points="148.5,-726.77 145,-716.77 141.5,-726.77 148.5,-726.77"/>
<text text-anchor="middle" x="150" y="-738.4" font-family="Times,serif" font-size="14.00">1</text>
</g>
<!-- x1_o2 -->
<g id="node11" class="node">
<title>x1_o2</title>
<ellipse fill="none" stroke="black" cx="288" cy="-251" rx="27" ry="18"/>
<text text-anchor="middle" x="288" y="-247.3" font-family="Times,serif" font-size="14.00">I</text>
</g>
<!-- x_o2&#45;&gt;x1_o2 -->
<g id="edge15" class="edge">
<title>x_o2&#45;&gt;x1_o2</title>
<path fill="none" stroke="blue" d="M244.62,-495.29C253.04,-481.98 264.3,-462.07 270,-443 286.88,-386.51 289.02,-316.81 288.74,-279.19"/>
<polygon fill="blue" stroke="blue" points="292.24,-278.98 288.59,-269.03 285.24,-279.08 292.24,-278.98"/>
</g>
<!-- x2_o2 -->
<g id="node12" class="node">
<title>x2_o2</title>
<ellipse fill="none" stroke="black" cx="234" cy="-425" rx="27" ry="18"/>
<text text-anchor="middle" x="234" y="-421.3" font-family="Times,serif" font-size="14.00">!d</text>
</g>
<!-- x_o2&#45;&gt;x2_o2 -->
<g id="edge16" class="edge">
<title>x_o2&#45;&gt;x2_o2</title>
<path fill="none" stroke="blue" d="M234,-493.8C234,-482.16 234,-466.55 234,-453.24"/>
<polygon fill="blue" stroke="blue" points="237.5,-453.18 234,-443.18 230.5,-453.18 237.5,-453.18"/>
</g>
<!-- x2i_o2 -->
<g id="node13" class="node">
<title>x2i_o2</title>
<ellipse fill="none" stroke="black" cx="234" cy="-338" rx="27" ry="18"/>
<text text-anchor="middle" x="234" y="-334.3" font-family="Times,serif" font-size="14.00">PiL</text>
</g>
<!-- x2_o2&#45;&gt;x2i_o2 -->
<g id="edge17" class="edge">
<title>x2_o2&#45;&gt;x2i_o2</title>
<path fill="none" stroke="blue" d="M234,-406.8C234,-395.16 234,-379.55 234,-366.24"/>
<polygon fill="blue" stroke="blue" points="237.5,-366.18 234,-356.18 230.5,-366.18 237.5,-366.18"/>
</g>
<!-- x2i_o2&#45;&gt;f_ret -->
<g id="edge19" class="edge">
<title>x2i_o2&#45;&gt;f_ret</title>
<path fill="none" stroke="blue" d="M229.95,-319.8C227.2,-308.09 223.49,-292.34 220.35,-278.97"/>
<polygon fill="blue" stroke="blue" points="223.67,-277.82 217.97,-268.89 216.86,-279.42 223.67,-277.82"/>
</g>
<!-- x2i_o2&#45;&gt;x1_o2 -->
<g id="edge18" class="edge">
<title>x2i_o2&#45;&gt;x1_o2</title>
<path fill="none" stroke="red" d="M244.16,-321.01C252.08,-308.55 263.22,-291.01 272.28,-276.74"/>
<polygon fill="red" stroke="red" points="275.48,-278.23 277.89,-267.92 269.57,-274.48 275.48,-278.23"/>
</g>
<!-- h -->
<g id="node16" class="node">
<title>h</title>
<ellipse fill="none" stroke="black" cx="71" cy="-338" rx="27" ry="18"/>
<text text-anchor="middle" x="71" y="-334.3" font-family="Times,serif" font-size="14.00">PiL</text>
</g>
<!-- h_di&#45;&gt;h -->
<g id="edge22" class="edge">
<title>h_di&#45;&gt;h</title>
<path fill="none" stroke="blue" d="M71,-406.8C71,-395.16 71,-379.55 71,-366.24"/>
<polygon fill="blue" stroke="blue" points="74.5,-366.18 71,-356.18 67.5,-366.18 74.5,-366.18"/>
<text text-anchor="middle" x="76" y="-377.8" font-family="Times,serif" font-size="14.00">2</text>
</g>
<!-- h&#45;&gt;hi_ret -->
<g id="edge28" class="edge">
<title>h&#45;&gt;hi_ret</title>
<path fill="none" stroke="blue" d="M81.35,-321.01C89.49,-308.43 100.97,-290.68 110.26,-276.33"/>
<polygon fill="blue" stroke="blue" points="113.21,-278.21 115.7,-267.92 107.33,-274.41 113.21,-278.21"/>
</g>
<!-- i -->
<g id="node17" class="node">
<title>i</title>
<ellipse fill="none" stroke="black" cx="54" cy="-251" rx="27" ry="18"/>
<text text-anchor="middle" x="54" y="-247.3" font-family="Times,serif" font-size="14.00">!p</text>
</g>
<!-- h&#45;&gt;i -->
<g id="edge27" class="edge">
<title>h&#45;&gt;i</title>
<path fill="none" stroke="red" d="M67.56,-319.8C65.22,-308.09 62.07,-292.34 59.39,-278.97"/>
<polygon fill="red" stroke="red" points="62.77,-278 57.38,-268.89 55.91,-279.38 62.77,-278"/>
<text text-anchor="middle" x="69" y="-290.8" font-family="Times,serif" font-size="14.00">2</text>
</g>
<!-- i_i -->
<g id="node18" class="node">
<title>i_i</title>
<ellipse fill="none" stroke="black" cx="54" cy="-164" rx="27" ry="18"/>
<text text-anchor="middle" x="54" y="-160.3" font-family="Times,serif" font-size="14.00">PiR</text>
</g>
<!-- i&#45;&gt;i_i -->
<g id="edge23" class="edge">
<title>i&#45;&gt;i_i</title>
<path fill="none" stroke="red" d="M54,-232.8C54,-221.16 54,-205.55 54,-192.24"/>
<polygon fill="red" stroke="red" points="57.5,-192.18 54,-182.18 50.5,-192.18 57.5,-192.18"/>
<text text-anchor="middle" x="59" y="-203.8" font-family="Times,serif" font-size="14.00">3</text>
</g>
<!-- il -->
<g id="node19" class="node">
<title>il</title>
<ellipse fill="none" stroke="black" cx="27" cy="-91" rx="27" ry="18"/>
<text text-anchor="middle" x="27" y="-87.3" font-family="Times,serif" font-size="14.00">!d</text>
</g>
<!-- i_i&#45;&gt;il -->
<g id="edge24" class="edge">
<title>i_i&#45;&gt;il</title>
<path fill="none" stroke="blue" d="M47.6,-146.17C44.44,-137.86 40.55,-127.64 37.01,-118.33"/>
<polygon fill="blue" stroke="blue" points="40.18,-116.81 33.35,-108.71 33.64,-119.3 40.18,-116.81"/>
</g>
<!-- i_ret -->
<g id="node20" class="node">
<title>i_ret</title>
<ellipse fill="none" stroke="black" cx="54" cy="-18" rx="27" ry="18"/>
<text text-anchor="middle" x="54" y="-14.3" font-family="Times,serif" font-size="14.00">I</text>
</g>
<!-- i_i&#45;&gt;i_ret -->
<g id="edge25" class="edge">
<title>i_i&#45;&gt;i_ret</title>
<path fill="none" stroke="red" d="M57.56,-146.07C59.6,-135.47 61.97,-121.5 63,-109 64.32,-93.05 64.32,-88.95 63,-73 62.26,-64.11 60.86,-54.48 59.37,-45.85"/>
<polygon fill="red" stroke="red" points="62.8,-45.14 57.56,-35.93 55.92,-46.4 62.8,-45.14"/>
</g>
<!-- il&#45;&gt;i_ret -->
<g id="edge26" class="edge">
<title>il&#45;&gt;i_ret</title>
<path fill="none" stroke="blue" d="M33.4,-73.17C36.56,-64.86 40.45,-54.64 43.99,-45.33"/>
<polygon fill="blue" stroke="blue" points="47.36,-46.3 47.65,-35.71 40.82,-43.81 47.36,-46.3"/>
</g>
</g>
</svg>
