<?xml version="1.0" encoding="UTF-8" standalone="no"?>
<!DOCTYPE svg PUBLIC "-//W3C//DTD SVG 1.1//EN"
 "http://www.w3.org/Graphics/SVG/1.1/DTD/svg11.dtd">
<!-- Generated by graphviz version 2.40.1 (20161225.0304)
 -->
<!-- Title: %3 Pages: 1 -->
<svg width="607pt" height="1151pt"
 viewBox="0.00 0.00 606.91 1150.79" xmlns="http://www.w3.org/2000/svg" xmlns:xlink="http://www.w3.org/1999/xlink">
<g id="graph0" class="graph" transform="scale(1 1) rotate(0) translate(4 1146.7947)">
<title>%3</title>
<polygon fill="#ffffff" stroke="transparent" points="-4,4 -4,-1146.7947 602.9083,-1146.7947 602.9083,4 -4,4"/>
<!-- Root -->
<g id="node1" class="node">
<title>Root</title>
<ellipse fill="none" stroke="#000000" cx="483" cy="-515.7947" rx="32.4942" ry="18"/>
<text text-anchor="middle" x="483" y="-512.0947" font-family="Times,serif" font-size="14.00" fill="#000000">Root</text>
</g>
<!-- f_retf -->
<g id="node2" class="node">
<title>f_retf</title>
<ellipse fill="none" stroke="#000000" cx="449" cy="-428.7947" rx="27" ry="18"/>
<text text-anchor="middle" x="449" y="-425.0947" font-family="Times,serif" font-size="14.00" fill="#000000">I</text>
</g>
<!-- Root&#45;&gt;f_retf -->
<g id="edge1" class="edge">
<title>Root&#45;&gt;f_retf</title>
<path fill="none" stroke="#ff0000" stroke-width="2" d="M476.1196,-498.1889C471.3729,-486.0429 464.9712,-469.6621 459.5795,-455.8658"/>
<polygon fill="#ff0000" stroke="#ff0000" stroke-width="2" points="462.7701,-454.4143 455.8702,-446.3743 456.2503,-456.9623 462.7701,-454.4143"/>
<text text-anchor="middle" x="485.5" y="-468.5947" font-family="Times,serif" font-size="14.00" fill="#000000">0&#45;&gt;1</text>
</g>
<!-- c1a -->
<g id="node3" class="node">
<title>c1a</title>
<ellipse fill="none" stroke="#000000" cx="76" cy="-1124.7947" rx="27.8951" ry="18"/>
<text text-anchor="middle" x="76" y="-1121.0947" font-family="Times,serif" font-size="14.00" fill="#000000">Cut</text>
</g>
<!-- fp1 -->
<g id="node4" class="node">
<title>fp1</title>
<ellipse fill="none" stroke="#000000" cx="125" cy="-1037.7947" rx="27" ry="18"/>
<text text-anchor="middle" x="125" y="-1034.0947" font-family="Times,serif" font-size="14.00" fill="#000000">!p</text>
</g>
<!-- c1a&#45;&gt;fp1 -->
<g id="edge2" class="edge">
<title>c1a&#45;&gt;fp1</title>
<path fill="none" stroke="#ff0000" d="M85.6808,-1107.6063C92.7734,-1095.0134 102.52,-1077.7082 110.5347,-1063.4781"/>
<polygon fill="#ff0000" stroke="#ff0000" points="113.6482,-1065.082 115.506,-1054.6514 107.549,-1061.6469 113.6482,-1065.082"/>
<text text-anchor="middle" x="108" y="-1077.5947" font-family="Times,serif" font-size="14.00" fill="#000000">0</text>
</g>
<!-- d2a -->
<g id="node5" class="node">
<title>d2a</title>
<ellipse fill="none" stroke="#000000" cx="49" cy="-689.7947" rx="29.795" ry="18"/>
<text text-anchor="middle" x="49" y="-686.0947" font-family="Times,serif" font-size="14.00" fill="#000000">Dup</text>
</g>
<!-- c1a&#45;&gt;d2a -->
<g id="edge3" class="edge">
<title>c1a&#45;&gt;d2a</title>
<path fill="none" stroke="#0000ff" d="M70.761,-1106.9753C66.0947,-1089.5125 60,-1062.0595 60,-1037.7947 60,-1037.7947 60,-1037.7947 60,-776.7947 60,-756.8745 57.1265,-734.5899 54.3167,-717.5616"/>
<polygon fill="#0000ff" stroke="#0000ff" points="57.7645,-716.9584 52.6018,-707.7065 50.8681,-718.1585 57.7645,-716.9584"/>
<text text-anchor="middle" x="65" y="-903.5947" font-family="Times,serif" font-size="14.00" fill="#000000">1</text>
</g>
<!-- f2a -->
<g id="node24" class="node">
<title>f2a</title>
<ellipse fill="none" stroke="#000000" cx="241" cy="-950.7947" rx="27" ry="18"/>
<text text-anchor="middle" x="241" y="-947.0947" font-family="Times,serif" font-size="14.00" fill="#000000">PiR</text>
</g>
<!-- fp1&#45;&gt;f2a -->
<g id="edge28" class="edge">
<title>fp1&#45;&gt;f2a</title>
<path fill="none" stroke="#ff0000" d="M143.125,-1024.2009C162.3637,-1009.7719 192.9472,-986.8343 214.8057,-970.4404"/>
<polygon fill="#ff0000" stroke="#ff0000" points="217.1023,-973.093 223.0023,-964.293 212.9022,-967.493 217.1023,-973.093"/>
<text text-anchor="middle" x="194" y="-990.5947" font-family="Times,serif" font-size="14.00" fill="#000000">1</text>
</g>
<!-- d2b -->
<g id="node7" class="node">
<title>d2b</title>
<ellipse fill="none" stroke="#000000" cx="560" cy="-428.7947" rx="29.795" ry="18"/>
<text text-anchor="middle" x="560" y="-425.0947" font-family="Times,serif" font-size="14.00" fill="#000000">Dup</text>
</g>
<!-- d2a&#45;&gt;d2b -->
<g id="edge31" class="edge">
<title>d2a&#45;&gt;d2b</title>
<path fill="none" stroke="#000000" stroke-dasharray="5,2" d="M63.838,-674.0112C99.9586,-636.6497 196.9383,-542.5817 298,-497.7947 319.6092,-488.2183 468.8004,-451.1434 531.9086,-435.6548"/>
</g>
<!-- d2c -->
<g id="node23" class="node">
<title>d2c</title>
<ellipse fill="none" stroke="#000000" cx="183" cy="-428.7947" rx="29.795" ry="18"/>
<text text-anchor="middle" x="183" y="-425.0947" font-family="Times,serif" font-size="14.00" fill="#000000">Dup</text>
</g>
<!-- d2a&#45;&gt;d2c -->
<g id="edge32" class="edge">
<title>d2a&#45;&gt;d2c</title>
<path fill="none" stroke="#000000" stroke-dasharray="5,2" d="M72.03,-678.3142C106.6352,-660.9246 168.8809,-629.0535 177,-620.7947 217.8083,-579.2841 236.8086,-554.0899 222,-497.7947 216.8891,-478.3657 204.9229,-458.6552 195.583,-445.3037"/>
</g>
<!-- hi_retpa -->
<g id="node25" class="node">
<title>hi_retpa</title>
<ellipse fill="none" stroke="#000000" cx="33" cy="-602.7947" rx="27" ry="18"/>
<text text-anchor="middle" x="33" y="-599.0947" font-family="Times,serif" font-size="14.00" fill="#000000">!p</text>
</g>
<!-- d2a&#45;&gt;hi_retpa -->
<g id="edge33" class="edge">
<title>d2a&#45;&gt;hi_retpa</title>
<path fill="none" stroke="#0000ff" d="M32.0208,-674.9481C26.4439,-668.9988 20.9278,-661.6816 18,-653.7947 15.0315,-645.7981 16.1614,-636.9282 18.8175,-628.8578"/>
<polygon fill="#0000ff" stroke="#0000ff" points="22.0896,-630.1032 22.6413,-619.5227 15.6119,-627.4498 22.0896,-630.1032"/>
<text text-anchor="middle" x="23" y="-642.5947" font-family="Times,serif" font-size="14.00" fill="#000000">1</text>
</g>
<!-- dx -->
<g id="node6" class="node">
<title>dx</title>
<ellipse fill="none" stroke="#000000" cx="512" cy="-689.7947" rx="29.795" ry="18"/>
<text text-anchor="middle" x="512" y="-686.0947" font-family="Times,serif" font-size="14.00" fill="#000000">Dup</text>
</g>
<!-- dx&#45;&gt;d2b -->
<g id="edge4" class="edge">
<title>dx&#45;&gt;d2b</title>
<path fill="none" stroke="#ff0000" stroke-width="2" d="M524.5895,-673.1854C544.4159,-645.8702 582.0883,-588.9741 596,-533.7947 599.9115,-518.2802 599.8101,-513.3344 596,-497.7947 592.2199,-482.3773 584.3273,-466.5786 576.8931,-453.9956"/>
<polygon fill="#ff0000" stroke="#ff0000" stroke-width="2" points="579.8536,-452.1283 571.6262,-445.453 573.8951,-455.8021 579.8536,-452.1283"/>
</g>
<!-- d4b -->
<g id="node28" class="node">
<title>d4b</title>
<ellipse fill="none" stroke="#000000" cx="251" cy="-252.8973" rx="29.8071" ry="29.8071"/>
<ellipse fill="none" stroke="#000000" cx="251" cy="-252.8973" rx="33.795" ry="33.795"/>
<text text-anchor="middle" x="251" y="-249.1973" font-family="Times,serif" font-size="14.00" fill="#000000">Dup</text>
</g>
<!-- d2b&#45;&gt;d4b -->
<g id="edge44" class="edge">
<title>d2b&#45;&gt;d4b</title>
<path fill="none" stroke="#ff0000" stroke-width="2" d="M538.2717,-416.4259C486.447,-386.9248 355.0298,-312.116 289.4486,-274.7841"/>
<polygon fill="#ff0000" stroke="#ff0000" stroke-width="2" points="291.0689,-271.6791 280.6468,-269.7737 287.6059,-277.7626 291.0689,-271.6791"/>
</g>
<!-- c1b2a -->
<g id="node8" class="node">
<title>c1b2a</title>
<ellipse fill="none" stroke="#000000" cx="461" cy="-863.7947" rx="27.8951" ry="18"/>
<text text-anchor="middle" x="461" y="-860.0947" font-family="Times,serif" font-size="14.00" fill="#000000">Cut</text>
</g>
<!-- i2a -->
<g id="node9" class="node">
<title>i2a</title>
<ellipse fill="none" stroke="#000000" cx="511" cy="-776.7947" rx="27" ry="18"/>
<text text-anchor="middle" x="511" y="-773.0947" font-family="Times,serif" font-size="14.00" fill="#000000">!p</text>
</g>
<!-- c1b2a&#45;&gt;i2a -->
<g id="edge5" class="edge">
<title>c1b2a&#45;&gt;i2a</title>
<path fill="none" stroke="#ff0000" d="M470.8784,-846.6063C478.1157,-834.0134 488.0612,-816.7082 496.2394,-802.4781"/>
<polygon fill="#ff0000" stroke="#ff0000" points="499.3639,-804.0655 501.3123,-793.6514 493.2948,-800.5775 499.3639,-804.0655"/>
<text text-anchor="middle" x="493" y="-816.5947" font-family="Times,serif" font-size="14.00" fill="#000000">2</text>
</g>
<!-- d1b -->
<g id="node10" class="node">
<title>d1b</title>
<ellipse fill="none" stroke="#000000" cx="210" cy="-776.7947" rx="29.795" ry="18"/>
<text text-anchor="middle" x="210" y="-773.0947" font-family="Times,serif" font-size="14.00" fill="#000000">Dup</text>
</g>
<!-- c1b2a&#45;&gt;d1b -->
<g id="edge6" class="edge">
<title>c1b2a&#45;&gt;d1b</title>
<path fill="none" stroke="#0000ff" d="M435.203,-856.4677C394.9431,-844.7947 314.9476,-820.6417 249,-794.7947 246.2705,-793.7249 243.4597,-792.5592 240.6568,-791.3523"/>
<ellipse fill="none" stroke="#0000ff" cx="236.9741" cy="-789.7199" rx="4" ry="4"/>
<text text-anchor="middle" x="346" y="-816.5947" font-family="Times,serif" font-size="14.00" fill="#000000">1</text>
</g>
<!-- i2a&#45;&gt;dx -->
<g id="edge9" class="edge">
<title>i2a&#45;&gt;dx</title>
<path fill="none" stroke="#ff0000" d="M511.2072,-758.7682C511.3426,-746.9865 511.5223,-731.3553 511.6763,-717.9528"/>
<polygon fill="#ff0000" stroke="#ff0000" points="515.1778,-717.8377 511.7931,-707.7981 508.1783,-717.7571 515.1778,-717.8377"/>
<text text-anchor="middle" x="516" y="-729.5947" font-family="Times,serif" font-size="14.00" fill="#000000">3</text>
</g>
<!-- d1b&#45;&gt;d2a -->
<g id="edge23" class="edge">
<title>d1b&#45;&gt;d2a</title>
<path fill="none" stroke="#0000ff" d="M187.6136,-764.6977C159.2171,-749.353 110.1624,-722.8452 78.6708,-705.828"/>
<ellipse fill="none" stroke="#0000ff" cx="74.9742" cy="-703.8305" rx="4" ry="4"/>
</g>
<!-- d1c -->
<g id="node13" class="node">
<title>d1c</title>
<ellipse fill="none" stroke="#000000" cx="480" cy="-602.7947" rx="29.795" ry="18"/>
<text text-anchor="middle" x="480" y="-599.0947" font-family="Times,serif" font-size="14.00" fill="#000000">Dup</text>
</g>
<!-- d1b&#45;&gt;d1c -->
<g id="edge10" class="edge">
<title>d1b&#45;&gt;d1c</title>
<path fill="none" stroke="#000000" stroke-dasharray="5,2" d="M184.24,-767.2717C164.8774,-758.4561 143.0988,-743.9801 152,-725.7947 165.8552,-697.488 234.7429,-650.5104 264,-638.7947 337.4057,-609.4001 364.7268,-641.6477 441,-620.7947 446.4668,-619.3001 452.125,-617.1064 457.3791,-614.7606"/>
</g>
<!-- d1d -->
<g id="node14" class="node">
<title>d1d</title>
<ellipse fill="none" stroke="#000000" cx="183" cy="-515.7947" rx="29.795" ry="18"/>
<text text-anchor="middle" x="183" y="-512.0947" font-family="Times,serif" font-size="14.00" fill="#000000">Dup</text>
</g>
<!-- d1b&#45;&gt;d1d -->
<g id="edge11" class="edge">
<title>d1b&#45;&gt;d1d</title>
<path fill="none" stroke="#000000" stroke-dasharray="5,2" d="M213.0634,-758.6837C218.6853,-730.2262 233.0343,-674.6001 264,-638.7947 273.6774,-627.6048 284.9109,-633.7796 292,-620.7947 299.667,-606.7513 299.716,-598.8112 292,-584.7947 282.5764,-567.6762 235.3547,-541.8353 206.2429,-527.1169"/>
</g>
<!-- c1b2b -->
<g id="node11" class="node">
<title>c1b2b</title>
<ellipse fill="none" stroke="#000000" cx="437" cy="-776.7947" rx="27.8951" ry="18"/>
<text text-anchor="middle" x="437" y="-773.0947" font-family="Times,serif" font-size="14.00" fill="#000000">Cut</text>
</g>
<!-- c1b2b&#45;&gt;dx -->
<g id="edge7" class="edge">
<title>c1b2b&#45;&gt;dx</title>
<path fill="none" stroke="#ff0000" stroke-width="2" d="M450.7562,-760.8376C462.523,-747.188 479.5884,-727.3921 492.718,-712.1618"/>
<ellipse fill="none" stroke="#ff0000" stroke-width="2" cx="495.4653" cy="-708.975" rx="4" ry="4"/>
<text text-anchor="middle" x="483" y="-729.5947" font-family="Times,serif" font-size="14.00" fill="#000000">3</text>
</g>
<!-- hbg2 -->
<g id="node12" class="node">
<title>hbg2</title>
<ellipse fill="none" stroke="#000000" cx="437" cy="-689.7947" rx="27" ry="18"/>
<text text-anchor="middle" x="437" y="-686.0947" font-family="Times,serif" font-size="14.00" fill="#000000">PiL</text>
</g>
<!-- c1b2b&#45;&gt;hbg2 -->
<g id="edge8" class="edge">
<title>c1b2b&#45;&gt;hbg2</title>
<path fill="none" stroke="#0000ff" stroke-width="2" d="M437,-758.7682C437,-746.9865 437,-731.3553 437,-717.9528"/>
<polygon fill="#0000ff" stroke="#0000ff" stroke-width="2" points="440.5001,-717.798 437,-707.7981 433.5001,-717.7981 440.5001,-717.798"/>
<text text-anchor="middle" x="442" y="-729.5947" font-family="Times,serif" font-size="14.00" fill="#000000">2</text>
</g>
<!-- hbg2&#45;&gt;d1c -->
<g id="edge19" class="edge">
<title>hbg2&#45;&gt;d1c</title>
<path fill="none" stroke="#ff0000" d="M448.4631,-673.3448C452.3877,-667.3422 456.6337,-660.4034 460,-653.7947 464.1219,-645.7028 467.9513,-636.5522 471.133,-628.2584"/>
<ellipse fill="none" stroke="#ff0000" cx="472.5774" cy="-624.3801" rx="4" ry="4"/>
</g>
<!-- x2i_o2g2 -->
<g id="node20" class="node">
<title>x2i_o2g2</title>
<ellipse fill="none" stroke="#000000" cx="405" cy="-602.7947" rx="27" ry="18"/>
<text text-anchor="middle" x="405" y="-599.0947" font-family="Times,serif" font-size="14.00" fill="#000000">PiL</text>
</g>
<!-- hbg2&#45;&gt;x2i_o2g2 -->
<g id="edge20" class="edge">
<title>hbg2&#45;&gt;x2i_o2g2</title>
<path fill="none" stroke="#0000ff" stroke-width="2" d="M430.5243,-672.1889C426.0568,-660.0429 420.0317,-643.6621 414.9572,-629.8658"/>
<polygon fill="#0000ff" stroke="#0000ff" stroke-width="2" points="418.203,-628.5513 411.466,-620.3743 411.6333,-630.9678 418.203,-628.5513"/>
<text text-anchor="middle" x="439.5" y="-642.5947" font-family="Times,serif" font-size="14.00" fill="#000000">2&#45;&gt;1</text>
</g>
<!-- i3 -->
<g id="node22" class="node">
<title>i3</title>
<ellipse fill="none" stroke="#000000" cx="560" cy="-515.7947" rx="27" ry="18"/>
<text text-anchor="middle" x="560" y="-512.0947" font-family="Times,serif" font-size="14.00" fill="#000000">!p</text>
</g>
<!-- d1c&#45;&gt;i3 -->
<g id="edge24" class="edge">
<title>d1c&#45;&gt;i3</title>
<path fill="none" stroke="#ff0000" d="M494.6732,-586.8376C507.042,-573.3865 524.8993,-553.9667 538.8188,-538.8292"/>
<polygon fill="#ff0000" stroke="#ff0000" points="541.4965,-541.0881 545.689,-531.358 536.3438,-536.3499 541.4965,-541.0881"/>
</g>
<!-- d1d&#45;&gt;d2c -->
<g id="edge25" class="edge">
<title>d1d&#45;&gt;d2c</title>
<path fill="none" stroke="#ff0000" d="M183,-497.7682C183,-485.4032 183,-468.7983 183,-454.9794"/>
<ellipse fill="none" stroke="#ff0000" cx="183" cy="-450.7981" rx="4" ry="4"/>
</g>
<!-- xdicg1 -->
<g id="node15" class="node">
<title>xdicg1</title>
<ellipse fill="none" stroke="#000000" cx="241" cy="-863.7947" rx="27" ry="18"/>
<text text-anchor="middle" x="241" y="-860.0947" font-family="Times,serif" font-size="14.00" fill="#000000">!c</text>
</g>
<!-- xdicg1&#45;&gt;d1b -->
<g id="edge12" class="edge">
<title>xdicg1&#45;&gt;d1b</title>
<path fill="none" stroke="#0000ff" d="M234.7267,-846.1889C230.4273,-834.1228 224.6387,-817.8775 219.7432,-804.1385"/>
<polygon fill="#0000ff" stroke="#0000ff" points="223.0239,-802.9179 216.3704,-794.6729 216.43,-805.2675 223.0239,-802.9179"/>
</g>
<!-- h_di2g1 -->
<g id="node16" class="node">
<title>h_di2g1</title>
<ellipse fill="none" stroke="#000000" cx="285" cy="-776.7947" rx="27" ry="18"/>
<text text-anchor="middle" x="285" y="-773.0947" font-family="Times,serif" font-size="14.00" fill="#000000">!d</text>
</g>
<!-- xdicg1&#45;&gt;h_di2g1 -->
<g id="edge13" class="edge">
<title>xdicg1&#45;&gt;h_di2g1</title>
<path fill="none" stroke="#0000ff" d="M249.693,-846.6063C255.9604,-834.2138 264.5359,-817.2578 271.666,-803.1597"/>
<polygon fill="#0000ff" stroke="#0000ff" points="274.9352,-804.4507 276.3251,-793.9474 268.6886,-801.2915 274.9352,-804.4507"/>
<text text-anchor="middle" x="270" y="-816.5947" font-family="Times,serif" font-size="14.00" fill="#000000">1</text>
</g>
<!-- hbg1 -->
<g id="node17" class="node">
<title>hbg1</title>
<ellipse fill="none" stroke="#000000" cx="285" cy="-689.7947" rx="27" ry="18"/>
<text text-anchor="middle" x="285" y="-686.0947" font-family="Times,serif" font-size="14.00" fill="#000000">PiL</text>
</g>
<!-- h_di2g1&#45;&gt;hbg1 -->
<g id="edge14" class="edge">
<title>h_di2g1&#45;&gt;hbg1</title>
<path fill="none" stroke="#0000ff" d="M285,-758.7682C285,-746.9865 285,-731.3553 285,-717.9528"/>
<polygon fill="#0000ff" stroke="#0000ff" points="288.5001,-717.798 285,-707.7981 281.5001,-717.7981 288.5001,-717.798"/>
<text text-anchor="middle" x="290" y="-729.5947" font-family="Times,serif" font-size="14.00" fill="#000000">2</text>
</g>
<!-- hbg1&#45;&gt;d1c -->
<g id="edge15" class="edge">
<title>hbg1&#45;&gt;d1c</title>
<path fill="none" stroke="#ff0000" d="M307.7857,-679.8523C338.2153,-666.5435 393.7731,-642.136 441,-620.7947 442.8348,-619.9656 444.7164,-619.1111 446.6145,-618.2459"/>
<polygon fill="#ff0000" stroke="#ff0000" points="448.47,-621.2456 456.1025,-613.8975 445.5535,-614.8821 448.47,-621.2456"/>
</g>
<!-- x2i_o2g1 -->
<g id="node18" class="node">
<title>x2i_o2g1</title>
<ellipse fill="none" stroke="#000000" cx="256" cy="-602.7947" rx="27" ry="18"/>
<text text-anchor="middle" x="256" y="-599.0947" font-family="Times,serif" font-size="14.00" fill="#000000">PiL</text>
</g>
<!-- hbg1&#45;&gt;x2i_o2g1 -->
<g id="edge16" class="edge">
<title>hbg1&#45;&gt;x2i_o2g1</title>
<path fill="none" stroke="#0000ff" d="M279.1314,-672.1889C275.0827,-660.0429 269.6225,-643.6621 265.0237,-629.8658"/>
<polygon fill="#0000ff" stroke="#0000ff" points="268.3426,-628.7543 261.8599,-620.3743 261.7018,-630.9679 268.3426,-628.7543"/>
<text text-anchor="middle" x="289.5" y="-642.5947" font-family="Times,serif" font-size="14.00" fill="#000000">2&#45;&gt;1</text>
</g>
<!-- x2i_o2g1&#45;&gt;d1d -->
<g id="edge17" class="edge">
<title>x2i_o2g1&#45;&gt;d1d</title>
<path fill="none" stroke="#ff0000" d="M239.8711,-588.3377C233.1346,-581.9921 225.4029,-574.2912 219,-566.7947 212.2087,-558.8434 205.4228,-549.6412 199.603,-541.2606"/>
<polygon fill="#ff0000" stroke="#ff0000" points="202.4442,-539.2143 193.9281,-532.9112 196.6548,-543.1492 202.4442,-539.2143"/>
</g>
<!-- f_retg1 -->
<g id="node19" class="node">
<title>f_retg1</title>
<ellipse fill="none" stroke="#000000" cx="334" cy="-515.7947" rx="27" ry="18"/>
<text text-anchor="middle" x="334" y="-512.0947" font-family="Times,serif" font-size="14.00" fill="#000000">I</text>
</g>
<!-- x2i_o2g1&#45;&gt;f_retg1 -->
<g id="edge18" class="edge">
<title>x2i_o2g1&#45;&gt;f_retg1</title>
<path fill="none" stroke="#0000ff" d="M269.9448,-587.2408C281.9603,-573.839 299.478,-554.3 313.1583,-539.0412"/>
<polygon fill="#0000ff" stroke="#0000ff" points="315.8434,-541.2894 319.9129,-531.5072 310.6314,-536.6165 315.8434,-541.2894"/>
</g>
<!-- x2i_o2g2&#45;&gt;d1d -->
<g id="edge21" class="edge">
<title>x2i_o2g2&#45;&gt;d1d</title>
<path fill="none" stroke="#ff0000" d="M381.6617,-593.6486C341.9879,-578.1008 261.2933,-546.4772 215.9057,-528.6902"/>
<ellipse fill="none" stroke="#ff0000" cx="212.122" cy="-527.2074" rx="4" ry="4"/>
</g>
<!-- x2i_o2f -->
<g id="node21" class="node">
<title>x2i_o2f</title>
<ellipse fill="none" stroke="#000000" cx="406" cy="-515.7947" rx="27" ry="18"/>
<text text-anchor="middle" x="406" y="-512.0947" font-family="Times,serif" font-size="14.00" fill="#000000">PiL</text>
</g>
<!-- x2i_o2g2&#45;&gt;x2i_o2f -->
<g id="edge22" class="edge">
<title>x2i_o2g2&#45;&gt;x2i_o2f</title>
<path fill="none" stroke="#0000ff" stroke-width="2" d="M405.2072,-584.7682C405.3426,-572.9865 405.5223,-557.3553 405.6763,-543.9528"/>
<polygon fill="#0000ff" stroke="#0000ff" stroke-width="2" points="409.1778,-543.8377 405.7931,-533.7981 402.1783,-543.7571 409.1778,-543.8377"/>
</g>
<!-- x2i_o2f&#45;&gt;f_retf -->
<g id="edge30" class="edge">
<title>x2i_o2f&#45;&gt;f_retf</title>
<path fill="none" stroke="#0000ff" stroke-width="2" d="M414.4954,-498.6063C420.6204,-486.2138 429.001,-469.2578 435.969,-455.1597"/>
<polygon fill="#0000ff" stroke="#0000ff" stroke-width="2" points="439.229,-456.463 440.5222,-445.9474 432.9536,-453.3614 439.229,-456.463"/>
</g>
<!-- x2i_o2f&#45;&gt;d2c -->
<g id="edge29" class="edge">
<title>x2i_o2f&#45;&gt;d2c</title>
<path fill="none" stroke="#ff0000" d="M384.4804,-504.5523C379.7553,-502.2198 374.7453,-499.8491 370,-497.7947 318.4018,-475.4564 256.9719,-453.6785 218.9759,-440.7483"/>
<polygon fill="#ff0000" stroke="#ff0000" points="219.9691,-437.3895 209.3748,-437.4997 217.7255,-444.0202 219.9691,-437.3895"/>
</g>
<!-- i3&#45;&gt;d2b -->
<g id="edge45" class="edge">
<title>i3&#45;&gt;d2b</title>
<path fill="none" stroke="#ff0000" d="M560,-497.7682C560,-485.4032 560,-468.7983 560,-454.9794"/>
<ellipse fill="none" stroke="#ff0000" cx="560" cy="-450.7981" rx="4" ry="4"/>
<text text-anchor="middle" x="565" y="-468.5947" font-family="Times,serif" font-size="14.00" fill="#000000">3</text>
</g>
<!-- x1_o2 -->
<g id="node26" class="node">
<title>x1_o2</title>
<ellipse fill="none" stroke="#000000" cx="180" cy="-355.7947" rx="27" ry="18"/>
<text text-anchor="middle" x="180" y="-352.0947" font-family="Times,serif" font-size="14.00" fill="#000000">I</text>
</g>
<!-- d2c&#45;&gt;x1_o2 -->
<g id="edge34" class="edge">
<title>d2c&#45;&gt;x1_o2</title>
<path fill="none" stroke="#ff0000" d="M182.2584,-410.7497C181.9267,-402.6775 181.5278,-392.9711 181.1582,-383.9764"/>
<polygon fill="#ff0000" stroke="#ff0000" points="184.6512,-383.7329 180.7434,-373.8851 177.6571,-384.0204 184.6512,-383.7329"/>
</g>
<!-- f2a&#45;&gt;xdicg1 -->
<g id="edge27" class="edge">
<title>f2a&#45;&gt;xdicg1</title>
<path fill="none" stroke="#0000ff" d="M241,-932.7682C241,-920.9865 241,-905.3553 241,-891.9528"/>
<polygon fill="#0000ff" stroke="#0000ff" points="244.5001,-891.798 241,-881.7981 237.5001,-891.7981 244.5001,-891.798"/>
</g>
<!-- f2a&#45;&gt;f_retg1 -->
<g id="edge26" class="edge">
<title>f2a&#45;&gt;f_retg1</title>
<path fill="none" stroke="#ff0000" d="M265.5069,-943.2281C297.3714,-931.6866 349,-906.4109 349,-863.7947 349,-863.7947 349,-863.7947 349,-602.7947 349,-582.7402 345.0815,-560.4586 341.2501,-543.4653"/>
<polygon fill="#ff0000" stroke="#ff0000" points="344.631,-542.5537 338.9116,-533.6352 337.821,-544.1738 344.631,-542.5537"/>
</g>
<!-- hi_ret1 -->
<g id="node27" class="node">
<title>hi_ret1</title>
<ellipse fill="none" stroke="#000000" cx="27" cy="-355.7947" rx="27" ry="18"/>
<text text-anchor="middle" x="27" y="-352.0947" font-family="Times,serif" font-size="14.00" fill="#000000">I</text>
</g>
<!-- hi_retpa&#45;&gt;hi_ret1 -->
<g id="edge41" class="edge">
<title>hi_retpa&#45;&gt;hi_ret1</title>
<path fill="none" stroke="#ff0000" d="M32.5588,-584.6322C31.5229,-541.9876 28.929,-435.2055 27.6856,-384.0194"/>
<polygon fill="#ff0000" stroke="#ff0000" points="31.1837,-383.8958 27.4418,-373.9838 24.1858,-384.0659 31.1837,-383.8958"/>
<text text-anchor="middle" x="35" y="-468.5947" font-family="Times,serif" font-size="14.00" fill="#000000">2</text>
</g>
<!-- h_di1 -->
<g id="node32" class="node">
<title>h_di1</title>
<ellipse fill="none" stroke="#000000" cx="70" cy="-515.7947" rx="27" ry="18"/>
<text text-anchor="middle" x="70" y="-512.0947" font-family="Times,serif" font-size="14.00" fill="#000000">!d</text>
</g>
<!-- hi_retpa&#45;&gt;h_di1 -->
<g id="edge42" class="edge">
<title>hi_retpa&#45;&gt;h_di1</title>
<path fill="none" stroke="#0000ff" d="M40.4875,-585.1889C45.6531,-573.0429 52.6196,-556.6621 58.487,-542.8658"/>
<polygon fill="#0000ff" stroke="#0000ff" points="61.8308,-543.9464 62.5236,-533.3743 55.3891,-541.2068 61.8308,-543.9464"/>
<text text-anchor="middle" x="59" y="-555.5947" font-family="Times,serif" font-size="14.00" fill="#000000">1</text>
</g>
<!-- i_i -->
<g id="node29" class="node">
<title>i_i</title>
<ellipse fill="none" stroke="#000000" cx="251" cy="-164" rx="27" ry="18"/>
<text text-anchor="middle" x="251" y="-160.3" font-family="Times,serif" font-size="14.00" fill="#000000">PiR</text>
</g>
<!-- d4b&#45;&gt;i_i -->
<g id="edge35" class="edge">
<title>d4b&#45;&gt;i_i</title>
<path fill="none" stroke="#ff0000" d="M251,-218.7816C251,-210.0369 251,-200.7274 251,-192.3111"/>
<polygon fill="#ff0000" stroke="#ff0000" points="254.5001,-192.2378 251,-182.2378 247.5001,-192.2379 254.5001,-192.2378"/>
</g>
<!-- il -->
<g id="node34" class="node">
<title>il</title>
<ellipse fill="none" stroke="#000000" cx="224" cy="-91" rx="27" ry="18"/>
<text text-anchor="middle" x="224" y="-87.3" font-family="Times,serif" font-size="14.00" fill="#000000">!d</text>
</g>
<!-- i_i&#45;&gt;il -->
<g id="edge46" class="edge">
<title>i_i&#45;&gt;il</title>
<path fill="none" stroke="#0000ff" d="M244.4641,-146.3287C241.3134,-137.8103 237.4659,-127.4078 233.9608,-117.9312"/>
<polygon fill="#0000ff" stroke="#0000ff" points="237.2274,-116.6734 230.4758,-108.5085 230.6621,-119.1017 237.2274,-116.6734"/>
</g>
<!-- i_ret -->
<g id="node35" class="node">
<title>i_ret</title>
<ellipse fill="none" stroke="#000000" cx="259" cy="-18" rx="27" ry="18"/>
<text text-anchor="middle" x="259" y="-14.3" font-family="Times,serif" font-size="14.00" fill="#000000">I</text>
</g>
<!-- i_i&#45;&gt;i_ret -->
<g id="edge47" class="edge">
<title>i_i&#45;&gt;i_ret</title>
<path fill="none" stroke="#ff0000" d="M254.7475,-145.7581C256.7467,-135.0941 258.9967,-121.3441 260,-109 261.7039,-88.036 261.3653,-64.2671 260.6476,-46.2796"/>
<polygon fill="#ff0000" stroke="#ff0000" points="264.1381,-45.9911 260.1804,-36.1633 257.1456,-46.3142 264.1381,-45.9911"/>
</g>
<!-- ha -->
<g id="node30" class="node">
<title>ha</title>
<ellipse fill="none" stroke="#000000" cx="70" cy="-428.7947" rx="27" ry="18"/>
<text text-anchor="middle" x="70" y="-425.0947" font-family="Times,serif" font-size="14.00" fill="#000000">PiL</text>
</g>
<!-- ha&#45;&gt;hi_ret1 -->
<g id="edge37" class="edge">
<title>ha&#45;&gt;hi_ret1</title>
<path fill="none" stroke="#0000ff" d="M60.0269,-411.8635C54.7082,-402.8343 48.0535,-391.5367 42.1139,-381.4532"/>
<polygon fill="#0000ff" stroke="#0000ff" points="45.0102,-379.474 36.9191,-372.634 38.9788,-383.0267 45.0102,-379.474"/>
</g>
<!-- i1 -->
<g id="node31" class="node">
<title>i1</title>
<ellipse fill="none" stroke="#000000" cx="105" cy="-355.7947" rx="27" ry="18"/>
<text text-anchor="middle" x="105" y="-352.0947" font-family="Times,serif" font-size="14.00" fill="#000000">!p</text>
</g>
<!-- ha&#45;&gt;i1 -->
<g id="edge36" class="edge">
<title>ha&#45;&gt;i1</title>
<path fill="none" stroke="#ff0000" d="M78.2945,-411.4947C82.479,-402.7671 87.6451,-391.9921 92.3151,-382.2518"/>
<polygon fill="#ff0000" stroke="#ff0000" points="95.5977,-383.5008 96.765,-372.9705 89.2857,-380.4745 95.5977,-383.5008"/>
</g>
<!-- i1&#45;&gt;d4b -->
<g id="edge43" class="edge">
<title>i1&#45;&gt;d4b</title>
<path fill="none" stroke="#ff0000" d="M123.7881,-342.5533C146.7097,-326.3987 185.9679,-298.7304 214.8248,-278.3928"/>
<polygon fill="#ff0000" stroke="#ff0000" points="216.883,-281.2241 223.0407,-272.6024 212.8504,-275.5024 216.883,-281.2241"/>
<text text-anchor="middle" x="178" y="-308.5947" font-family="Times,serif" font-size="14.00" fill="#000000">3</text>
</g>
<!-- h_di1&#45;&gt;ha -->
<g id="edge38" class="edge">
<title>h_di1&#45;&gt;ha</title>
<path fill="none" stroke="#0000ff" d="M70,-497.7682C70,-485.9865 70,-470.3553 70,-456.9528"/>
<polygon fill="#0000ff" stroke="#0000ff" points="73.5001,-456.798 70,-446.7981 66.5001,-456.7981 73.5001,-456.798"/>
<text text-anchor="middle" x="75" y="-468.5947" font-family="Times,serif" font-size="14.00" fill="#000000">2</text>
</g>
<!-- c2a -->
<g id="node33" class="node">
<title>c2a</title>
<ellipse fill="none" stroke="#000000" cx="125" cy="-689.7947" rx="27.8951" ry="18"/>
<text text-anchor="middle" x="125" y="-686.0947" font-family="Times,serif" font-size="14.00" fill="#000000">Cut</text>
</g>
<!-- c2a&#45;&gt;hi_retpa -->
<g id="edge39" class="edge">
<title>c2a&#45;&gt;hi_retpa</title>
<path fill="none" stroke="#ff0000" d="M108.9748,-674.6405C94.4634,-660.9177 72.9029,-640.5289 56.4531,-624.9731"/>
<polygon fill="#ff0000" stroke="#ff0000" points="58.5121,-622.1032 48.8415,-617.7753 53.7025,-627.1892 58.5121,-622.1032"/>
<text text-anchor="middle" x="89" y="-642.5947" font-family="Times,serif" font-size="14.00" fill="#000000">1</text>
</g>
<!-- c2a&#45;&gt;x1_o2 -->
<g id="edge40" class="edge">
<title>c2a&#45;&gt;x1_o2</title>
<path fill="none" stroke="#0000ff" d="M125,-671.4641C125,-653.8575 125,-626.5082 125,-602.7947 125,-602.7947 125,-602.7947 125,-428.7947 125,-407.9083 139.5398,-389.2015 153.6679,-375.9545"/>
<polygon fill="#0000ff" stroke="#0000ff" points="156.1783,-378.4079 161.3795,-369.1776 151.5574,-373.1497 156.1783,-378.4079"/>
</g>
<!-- il&#45;&gt;i_ret -->
<g id="edge48" class="edge">
<title>il&#45;&gt;i_ret</title>
<path fill="none" stroke="#0000ff" d="M232.2945,-73.7C236.479,-64.9724 241.6451,-54.1974 246.3151,-44.4571"/>
<polygon fill="#0000ff" stroke="#0000ff" points="249.5977,-45.7061 250.765,-35.1758 243.2857,-42.6798 249.5977,-45.7061"/>
</g>
</g>
</svg>
