<?xml version="1.0" encoding="UTF-8" standalone="no"?>
<!DOCTYPE svg PUBLIC "-//W3C//DTD SVG 1.1//EN"
 "http://www.w3.org/Graphics/SVG/1.1/DTD/svg11.dtd">
<!-- Generated by graphviz version 2.40.1 (20161225.0304)
 -->
<!-- Title: %3 Pages: 1 -->
<svg width="624pt" height="1165pt"
 viewBox="0.00 0.00 624.50 1164.79" xmlns="http://www.w3.org/2000/svg" xmlns:xlink="http://www.w3.org/1999/xlink">
<g id="graph0" class="graph" transform="scale(1 1) rotate(0) translate(4 1160.7947)">
<title>%3</title>
<polygon fill="#ffffff" stroke="transparent" points="-4,4 -4,-1160.7947 620.4971,-1160.7947 620.4971,4 -4,4"/>
<!-- Root -->
<g id="node1" class="node">
<title>Root</title>
<ellipse fill="none" stroke="#000000" cx="32.4971" cy="-498" rx="32.4942" ry="18"/>
<text text-anchor="middle" x="32.4971" y="-494.3" font-family="Times,serif" font-size="14.00" fill="#000000">Root</text>
</g>
<!-- f_retf -->
<g id="node2" class="node">
<title>f_retf</title>
<ellipse fill="none" stroke="#000000" cx="58.4971" cy="-411" rx="27" ry="18"/>
<text text-anchor="middle" x="58.4971" y="-407.3" font-family="Times,serif" font-size="14.00" fill="#000000">I</text>
</g>
<!-- Root&#45;&gt;f_retf -->
<g id="edge1" class="edge">
<title>Root&#45;&gt;f_retf</title>
<path fill="none" stroke="#ff0000" stroke-width="2" d="M37.727,-480.0485C40.5884,-470.2702 44.2104,-457.9621 47.4971,-447 48.2966,-444.3337 49.1345,-441.558 49.976,-438.7832"/>
<polygon fill="#ff0000" stroke="#ff0000" stroke-width="2" points="53.4103,-439.52 52.9768,-428.934 46.7142,-437.4798 53.4103,-439.52"/>
<text text-anchor="middle" x="64.9971" y="-450.8" font-family="Times,serif" font-size="14.00" fill="#000000">0&#45;&gt;1</text>
</g>
<!-- c1a -->
<g id="node3" class="node">
<title>c1a</title>
<ellipse fill="none" stroke="#000000" cx="389.4971" cy="-1138.7947" rx="27.8951" ry="18"/>
<text text-anchor="middle" x="389.4971" y="-1135.0947" font-family="Times,serif" font-size="14.00" fill="#000000">Cut</text>
</g>
<!-- fp1 -->
<g id="node4" class="node">
<title>fp1</title>
<ellipse fill="none" stroke="#000000" cx="360.4971" cy="-1051.7947" rx="27" ry="18"/>
<text text-anchor="middle" x="360.4971" y="-1048.0947" font-family="Times,serif" font-size="14.00" fill="#000000">!p</text>
</g>
<!-- c1a&#45;&gt;fp1 -->
<g id="edge2" class="edge">
<title>c1a&#45;&gt;fp1</title>
<path fill="none" stroke="#ff0000" d="M383.6285,-1121.1889C379.5799,-1109.0429 374.1196,-1092.6621 369.5208,-1078.8658"/>
<polygon fill="#ff0000" stroke="#ff0000" points="372.8397,-1077.7543 366.357,-1069.3743 366.1989,-1079.9679 372.8397,-1077.7543"/>
<text text-anchor="middle" x="381.4971" y="-1091.5947" font-family="Times,serif" font-size="14.00" fill="#000000">0</text>
</g>
<!-- d2a -->
<g id="node5" class="node">
<title>d2a</title>
<ellipse fill="none" stroke="#000000" cx="428.4971" cy="-672" rx="29.795" ry="18"/>
<text text-anchor="middle" x="428.4971" y="-668.3" font-family="Times,serif" font-size="14.00" fill="#000000">Dup</text>
</g>
<!-- c1a&#45;&gt;d2a -->
<g id="edge3" class="edge">
<title>c1a&#45;&gt;d2a</title>
<path fill="none" stroke="#0000ff" d="M398.8325,-1121.6917C407.3102,-1104.5394 418.4971,-1077.1094 418.4971,-1051.7947 418.4971,-1051.7947 418.4971,-1051.7947 418.4971,-759 418.4971,-739.2947 421.0604,-717.2421 423.5914,-700.27"/>
<polygon fill="#0000ff" stroke="#0000ff" points="427.1221,-700.3494 425.2227,-689.9262 420.2075,-699.2589 427.1221,-700.3494"/>
<text text-anchor="middle" x="423.4971" y="-885.8" font-family="Times,serif" font-size="14.00" fill="#000000">1</text>
</g>
<!-- d1 -->
<g id="node7" class="node">
<title>d1</title>
<ellipse fill="none" stroke="#000000" cx="317.4971" cy="-948.8973" rx="29.8071" ry="29.8071"/>
<ellipse fill="none" stroke="#000000" cx="317.4971" cy="-948.8973" rx="33.795" ry="33.795"/>
<text text-anchor="middle" x="317.4971" y="-945.1973" font-family="Times,serif" font-size="14.00" fill="#000000">Dup</text>
</g>
<!-- fp1&#45;&gt;d1 -->
<g id="edge7" class="edge">
<title>fp1&#45;&gt;d1</title>
<path fill="none" stroke="#ff0000" d="M353.2028,-1034.3396C348.0833,-1022.0889 341.0189,-1005.184 334.5242,-989.6424"/>
<polygon fill="#ff0000" stroke="#ff0000" points="337.6616,-988.0728 330.5764,-980.1956 331.2029,-990.7719 337.6616,-988.0728"/>
<text text-anchor="middle" x="350.4971" y="-1004.5947" font-family="Times,serif" font-size="14.00" fill="#000000">1</text>
</g>
<!-- d2b -->
<g id="node10" class="node">
<title>d2b</title>
<ellipse fill="none" stroke="#000000" cx="260.4971" cy="-498" rx="29.795" ry="18"/>
<text text-anchor="middle" x="260.4971" y="-494.3" font-family="Times,serif" font-size="14.00" fill="#000000">Dup</text>
</g>
<!-- d2a&#45;&gt;d2b -->
<g id="edge19" class="edge">
<title>d2a&#45;&gt;d2b</title>
<path fill="none" stroke="#000000" stroke-dasharray="5,2" d="M422.9885,-654.0662C413.1227,-624.8364 389.7198,-566.8908 350.4971,-534 332.0789,-518.5551 321.7669,-525.0463 299.4971,-516 294.5227,-513.9793 289.2614,-511.6715 284.2681,-509.3978"/>
</g>
<!-- d2c -->
<g id="node12" class="node">
<title>d2c</title>
<ellipse fill="none" stroke="#000000" cx="260.4971" cy="-411" rx="29.795" ry="18"/>
<text text-anchor="middle" x="260.4971" y="-407.3" font-family="Times,serif" font-size="14.00" fill="#000000">Dup</text>
</g>
<!-- d2a&#45;&gt;d2c -->
<g id="edge20" class="edge">
<title>d2a&#45;&gt;d2c</title>
<path fill="none" stroke="#000000" stroke-dasharray="5,2" d="M405.3274,-660.2886C400.1996,-657.9853 394.7323,-655.745 389.4971,-654 353.2756,-641.9262 340.0652,-652.212 305.4971,-636 254.8376,-612.2413 234.6499,-601.1989 214.4971,-549 197.7609,-505.6506 228.8467,-453.325 247.6563,-427.3208"/>
</g>
<!-- hi_retpa -->
<g id="node18" class="node">
<title>hi_retpa</title>
<ellipse fill="none" stroke="#000000" cx="447.4971" cy="-585" rx="27" ry="18"/>
<text text-anchor="middle" x="447.4971" y="-581.3" font-family="Times,serif" font-size="14.00" fill="#000000">!p</text>
</g>
<!-- d2a&#45;&gt;hi_retpa -->
<g id="edge21" class="edge">
<title>d2a&#45;&gt;hi_retpa</title>
<path fill="none" stroke="#0000ff" d="M432.4339,-653.9735C435.007,-642.1918 438.4207,-626.5607 441.3477,-613.1581"/>
<polygon fill="#0000ff" stroke="#0000ff" points="444.8511,-613.5199 443.5653,-603.0034 438.0122,-612.0263 444.8511,-613.5199"/>
<text text-anchor="middle" x="443.4971" y="-624.8" font-family="Times,serif" font-size="14.00" fill="#000000">1</text>
</g>
<!-- c1b -->
<g id="node6" class="node">
<title>c1b</title>
<ellipse fill="none" stroke="#000000" cx="230.4971" cy="-1051.7947" rx="27.8951" ry="18"/>
<text text-anchor="middle" x="230.4971" y="-1048.0947" font-family="Times,serif" font-size="14.00" fill="#000000">Cut</text>
</g>
<!-- c1b&#45;&gt;d1 -->
<g id="edge4" class="edge">
<title>c1b&#45;&gt;d1</title>
<path fill="none" stroke="#ff0000" d="M244.0909,-1035.717C256.3491,-1021.2188 274.7485,-999.4573 290.0593,-981.3488"/>
<ellipse fill="none" stroke="#ff0000" cx="292.9607" cy="-977.9172" rx="4" ry="4"/>
<text text-anchor="middle" x="276.4971" y="-1004.5947" font-family="Times,serif" font-size="14.00" fill="#000000">1</text>
</g>
<!-- hbf -->
<g id="node8" class="node">
<title>hbf</title>
<ellipse fill="none" stroke="#000000" cx="151.4971" cy="-585" rx="27" ry="18"/>
<text text-anchor="middle" x="151.4971" y="-581.3" font-family="Times,serif" font-size="14.00" fill="#000000">PiL</text>
</g>
<!-- c1b&#45;&gt;hbf -->
<g id="edge5" class="edge">
<title>c1b&#45;&gt;hbf</title>
<path fill="none" stroke="#0000ff" stroke-width="2" d="M212.7279,-1037.4605C192.2837,-1019.2325 161.4971,-985.6773 161.4971,-948.8973 161.4971,-948.8973 161.4971,-948.8973 161.4971,-672 161.4971,-652.2947 158.9339,-630.2421 156.4028,-613.27"/>
<polygon fill="#0000ff" stroke="#0000ff" stroke-width="2" points="159.7867,-612.2589 154.7715,-602.9262 152.8722,-613.3494 159.7867,-612.2589"/>
<text text-anchor="middle" x="166.4971" y="-798.8" font-family="Times,serif" font-size="14.00" fill="#000000">2</text>
</g>
<!-- f2 -->
<g id="node9" class="node">
<title>f2</title>
<ellipse fill="none" stroke="#000000" cx="317.4971" cy="-846" rx="27" ry="18"/>
<text text-anchor="middle" x="317.4971" y="-842.3" font-family="Times,serif" font-size="14.00" fill="#000000">PiR</text>
</g>
<!-- d1&#45;&gt;f2 -->
<g id="edge6" class="edge">
<title>d1&#45;&gt;f2</title>
<path fill="none" stroke="#ff0000" d="M317.4971,-914.9197C317.4971,-901.7897 317.4971,-886.937 317.4971,-874.3909"/>
<polygon fill="#ff0000" stroke="#ff0000" points="320.9972,-874.0604 317.4971,-864.0604 313.9972,-874.0605 320.9972,-874.0604"/>
</g>
<!-- hbf&#45;&gt;d2b -->
<g id="edge8" class="edge">
<title>hbf&#45;&gt;d2b</title>
<path fill="none" stroke="#ff0000" d="M169.0099,-571.0219C186.6758,-556.9216 214.1587,-534.9857 234.3943,-518.8344"/>
<polygon fill="#ff0000" stroke="#ff0000" points="236.6686,-521.4973 242.3009,-512.5236 232.3018,-516.0263 236.6686,-521.4973"/>
</g>
<!-- x2i_o2f -->
<g id="node11" class="node">
<title>x2i_o2f</title>
<ellipse fill="none" stroke="#000000" cx="109.4971" cy="-498" rx="27" ry="18"/>
<text text-anchor="middle" x="109.4971" y="-494.3" font-family="Times,serif" font-size="14.00" fill="#000000">PiL</text>
</g>
<!-- hbf&#45;&gt;x2i_o2f -->
<g id="edge9" class="edge">
<title>hbf&#45;&gt;x2i_o2f</title>
<path fill="none" stroke="#0000ff" stroke-width="2" d="M143.1993,-567.8116C137.2167,-555.4191 129.031,-538.4631 122.2251,-524.3651"/>
<polygon fill="#0000ff" stroke="#0000ff" stroke-width="2" points="125.2772,-522.6366 117.7777,-515.1527 118.9733,-525.6799 125.2772,-522.6366"/>
<text text-anchor="middle" x="150.9971" y="-537.8" font-family="Times,serif" font-size="14.00" fill="#000000">2&#45;&gt;1</text>
</g>
<!-- xdicg -->
<g id="node13" class="node">
<title>xdicg</title>
<ellipse fill="none" stroke="#000000" cx="353.4971" cy="-759" rx="27" ry="18"/>
<text text-anchor="middle" x="353.4971" y="-755.3" font-family="Times,serif" font-size="14.00" fill="#000000">!c</text>
</g>
<!-- f2&#45;&gt;xdicg -->
<g id="edge25" class="edge">
<title>f2&#45;&gt;xdicg</title>
<path fill="none" stroke="#0000ff" d="M324.7823,-828.3943C329.8082,-816.2482 336.5865,-799.8674 342.2953,-786.0711"/>
<polygon fill="#0000ff" stroke="#0000ff" points="345.6333,-787.158 346.2228,-776.5796 339.1652,-784.4815 345.6333,-787.158"/>
</g>
<!-- f_retg -->
<g id="node17" class="node">
<title>f_retg</title>
<ellipse fill="none" stroke="#000000" cx="373.4971" cy="-411" rx="27" ry="18"/>
<text text-anchor="middle" x="373.4971" y="-407.3" font-family="Times,serif" font-size="14.00" fill="#000000">I</text>
</g>
<!-- f2&#45;&gt;f_retg -->
<g id="edge24" class="edge">
<title>f2&#45;&gt;f_retg</title>
<path fill="none" stroke="#ff0000" d="M302.7589,-830.7931C272.1458,-797.2955 207.4173,-715.2534 243.4971,-654 255.3608,-633.8587 319.7107,-620.2397 335.4971,-603 376.9961,-557.6807 378.8272,-480.5793 376.3253,-439.2126"/>
<polygon fill="#ff0000" stroke="#ff0000" points="379.8003,-438.7434 375.576,-429.0271 372.8192,-439.257 379.8003,-438.7434"/>
</g>
<!-- d4b -->
<g id="node19" class="node">
<title>d4b</title>
<ellipse fill="none" stroke="#000000" cx="398.4971" cy="-338" rx="29.795" ry="18"/>
<text text-anchor="middle" x="398.4971" y="-334.3" font-family="Times,serif" font-size="14.00" fill="#000000">Dup</text>
</g>
<!-- d2b&#45;&gt;d4b -->
<g id="edge22" class="edge">
<title>d2b&#45;&gt;d4b</title>
<path fill="none" stroke="#ff0000" d="M271.2615,-481.1944C285.3291,-459.7648 311.2747,-422.0134 337.4971,-393 348.7913,-380.5037 362.6504,-367.8294 374.3026,-357.8019"/>
<ellipse fill="none" stroke="#ff0000" cx="377.4702" cy="-355.1111" rx="4" ry="4"/>
</g>
<!-- x2i_o2f&#45;&gt;f_retf -->
<g id="edge11" class="edge">
<title>x2i_o2f&#45;&gt;f_retf</title>
<path fill="none" stroke="#0000ff" stroke-width="2" d="M100.9209,-480.7618C95.8121,-470.7657 89.0621,-458.0157 82.4971,-447 80.3941,-443.4713 78.0943,-439.8073 75.7779,-436.2269"/>
<polygon fill="#0000ff" stroke="#0000ff" stroke-width="2" points="78.5237,-434.0338 70.0878,-427.6238 72.6851,-437.8954 78.5237,-434.0338"/>
</g>
<!-- x2i_o2f&#45;&gt;d2c -->
<g id="edge10" class="edge">
<title>x2i_o2f&#45;&gt;d2c</title>
<path fill="none" stroke="#ff0000" d="M130.1764,-486.0854C155.9426,-471.24 200.1905,-445.7462 229.8882,-428.6356"/>
<polygon fill="#ff0000" stroke="#ff0000" points="231.6835,-431.6406 238.6009,-423.6157 228.1889,-425.5753 231.6835,-431.6406"/>
</g>
<!-- x1_o2 -->
<g id="node20" class="node">
<title>x1_o2</title>
<ellipse fill="none" stroke="#000000" cx="223.4971" cy="-338" rx="27" ry="18"/>
<text text-anchor="middle" x="223.4971" y="-334.3" font-family="Times,serif" font-size="14.00" fill="#000000">I</text>
</g>
<!-- d2c&#45;&gt;x1_o2 -->
<g id="edge23" class="edge">
<title>d2c&#45;&gt;x1_o2</title>
<path fill="none" stroke="#ff0000" d="M251.7286,-393.7C247.259,-384.8815 241.7299,-373.9727 236.7528,-364.153"/>
<polygon fill="#ff0000" stroke="#ff0000" points="239.8456,-362.5132 232.2027,-355.1758 233.6018,-365.6779 239.8456,-362.5132"/>
</g>
<!-- xdicg&#45;&gt;d2a -->
<g id="edge12" class="edge">
<title>xdicg&#45;&gt;d2a</title>
<path fill="none" stroke="#0000ff" d="M367.2533,-743.0429C379.0201,-729.3933 396.0855,-709.5975 409.2151,-694.3671"/>
<ellipse fill="none" stroke="#0000ff" cx="411.9624" cy="-691.1803" rx="4" ry="4"/>
</g>
<!-- h_di2g -->
<g id="node14" class="node">
<title>h_di2g</title>
<ellipse fill="none" stroke="#000000" cx="353.4971" cy="-672" rx="27" ry="18"/>
<text text-anchor="middle" x="353.4971" y="-668.3" font-family="Times,serif" font-size="14.00" fill="#000000">!d</text>
</g>
<!-- xdicg&#45;&gt;h_di2g -->
<g id="edge13" class="edge">
<title>xdicg&#45;&gt;h_di2g</title>
<path fill="none" stroke="#0000ff" d="M353.4971,-740.9735C353.4971,-729.1918 353.4971,-713.5607 353.4971,-700.1581"/>
<polygon fill="#0000ff" stroke="#0000ff" points="356.9972,-700.0033 353.4971,-690.0034 349.9972,-700.0034 356.9972,-700.0033"/>
<text text-anchor="middle" x="358.4971" y="-711.8" font-family="Times,serif" font-size="14.00" fill="#000000">1</text>
</g>
<!-- hbg -->
<g id="node15" class="node">
<title>hbg</title>
<ellipse fill="none" stroke="#000000" cx="299.4971" cy="-585" rx="27" ry="18"/>
<text text-anchor="middle" x="299.4971" y="-581.3" font-family="Times,serif" font-size="14.00" fill="#000000">PiL</text>
</g>
<!-- h_di2g&#45;&gt;hbg -->
<g id="edge14" class="edge">
<title>h_di2g&#45;&gt;hbg</title>
<path fill="none" stroke="#0000ff" d="M335.8553,-658.0364C329.0313,-651.8871 321.6422,-644.1988 316.4971,-636 312.0322,-628.8851 308.6056,-620.4695 306.039,-612.5471"/>
<polygon fill="#0000ff" stroke="#0000ff" points="309.3896,-611.5344 303.2346,-602.9108 302.6684,-613.4905 309.3896,-611.5344"/>
<text text-anchor="middle" x="321.4971" y="-624.8" font-family="Times,serif" font-size="14.00" fill="#000000">2</text>
</g>
<!-- hbg&#45;&gt;d2b -->
<g id="edge15" class="edge">
<title>hbg&#45;&gt;d2b</title>
<path fill="none" stroke="#ff0000" d="M291.6049,-567.3943C285.8958,-554.6586 278.0996,-537.2671 271.7403,-523.081"/>
<ellipse fill="none" stroke="#ff0000" cx="270.0139" cy="-519.2296" rx="4" ry="4"/>
</g>
<!-- x2i_o2g -->
<g id="node16" class="node">
<title>x2i_o2g</title>
<ellipse fill="none" stroke="#000000" cx="335.4971" cy="-498" rx="27" ry="18"/>
<text text-anchor="middle" x="335.4971" y="-494.3" font-family="Times,serif" font-size="14.00" fill="#000000">PiL</text>
</g>
<!-- hbg&#45;&gt;x2i_o2g -->
<g id="edge16" class="edge">
<title>hbg&#45;&gt;x2i_o2g</title>
<path fill="none" stroke="#0000ff" d="M306.7823,-567.3943C311.8082,-555.2482 318.5865,-538.8674 324.2953,-525.0711"/>
<polygon fill="#0000ff" stroke="#0000ff" points="327.6333,-526.158 328.2228,-515.5796 321.1652,-523.4815 327.6333,-526.158"/>
<text text-anchor="middle" x="337.9971" y="-537.8" font-family="Times,serif" font-size="14.00" fill="#000000">2&#45;&gt;1</text>
</g>
<!-- x2i_o2g&#45;&gt;d2c -->
<g id="edge17" class="edge">
<title>x2i_o2g&#45;&gt;d2c</title>
<path fill="none" stroke="#ff0000" d="M321.741,-482.0429C309.9741,-468.3933 292.9087,-448.5975 279.7791,-433.3671"/>
<ellipse fill="none" stroke="#ff0000" cx="277.0318" cy="-430.1803" rx="4" ry="4"/>
</g>
<!-- x2i_o2g&#45;&gt;f_retg -->
<g id="edge18" class="edge">
<title>x2i_o2g&#45;&gt;f_retg</title>
<path fill="none" stroke="#0000ff" d="M343.187,-480.3943C348.5271,-468.1683 355.7412,-451.6517 361.7917,-437.7992"/>
<polygon fill="#0000ff" stroke="#0000ff" points="365.153,-438.8476 365.9484,-428.2827 358.7383,-436.0457 365.153,-438.8476"/>
</g>
<!-- hi_ret1 -->
<g id="node21" class="node">
<title>hi_ret1</title>
<ellipse fill="none" stroke="#000000" cx="473.4971" cy="-338" rx="27" ry="18"/>
<text text-anchor="middle" x="473.4971" y="-334.3" font-family="Times,serif" font-size="14.00" fill="#000000">I</text>
</g>
<!-- hi_retpa&#45;&gt;hi_ret1 -->
<g id="edge32" class="edge">
<title>hi_retpa&#45;&gt;hi_ret1</title>
<path fill="none" stroke="#ff0000" d="M458.4841,-568.2472C466.6361,-554.7613 477.0727,-534.989 481.4971,-516 493.584,-464.1251 485.7922,-401.5057 479.3947,-366.0638"/>
<polygon fill="#ff0000" stroke="#ff0000" points="482.7837,-365.1495 477.4776,-355.9791 475.9069,-366.4568 482.7837,-365.1495"/>
<text text-anchor="middle" x="492.4971" y="-450.8" font-family="Times,serif" font-size="14.00" fill="#000000">2</text>
</g>
<!-- h_di1 -->
<g id="node24" class="node">
<title>h_di1</title>
<ellipse fill="none" stroke="#000000" cx="445.4971" cy="-498" rx="27" ry="18"/>
<text text-anchor="middle" x="445.4971" y="-494.3" font-family="Times,serif" font-size="14.00" fill="#000000">!d</text>
</g>
<!-- hi_retpa&#45;&gt;h_di1 -->
<g id="edge33" class="edge">
<title>hi_retpa&#45;&gt;h_di1</title>
<path fill="none" stroke="#0000ff" d="M447.0827,-566.9735C446.8119,-555.1918 446.4525,-539.5607 446.1444,-526.1581"/>
<polygon fill="#0000ff" stroke="#0000ff" points="449.64,-525.9202 445.911,-516.0034 442.6418,-526.0812 449.64,-525.9202"/>
<text text-anchor="middle" x="451.4971" y="-537.8" font-family="Times,serif" font-size="14.00" fill="#000000">1</text>
</g>
<!-- h_app -->
<g id="node22" class="node">
<title>h_app</title>
<ellipse fill="none" stroke="#000000" cx="455.4971" cy="-251" rx="27" ry="18"/>
<text text-anchor="middle" x="455.4971" y="-247.3" font-family="Times,serif" font-size="14.00" fill="#000000">I</text>
</g>
<!-- d4b&#45;&gt;h_app -->
<g id="edge26" class="edge">
<title>d4b&#45;&gt;h_app</title>
<path fill="none" stroke="#ff0000" d="M409.4873,-321.2255C417.8459,-308.4677 429.4852,-290.7024 438.9655,-276.2325"/>
<polygon fill="#ff0000" stroke="#ff0000" points="441.988,-278.0057 444.5407,-267.723 436.1328,-274.1695 441.988,-278.0057"/>
</g>
<!-- ha -->
<g id="node23" class="node">
<title>ha</title>
<ellipse fill="none" stroke="#000000" cx="445.4971" cy="-411" rx="27" ry="18"/>
<text text-anchor="middle" x="445.4971" y="-407.3" font-family="Times,serif" font-size="14.00" fill="#000000">PiL</text>
</g>
<!-- ha&#45;&gt;d4b -->
<g id="edge27" class="edge">
<title>ha&#45;&gt;d4b</title>
<path fill="none" stroke="#ff0000" d="M434.8321,-394.4352C428.9667,-385.3251 421.5626,-373.8251 414.9707,-363.5867"/>
<polygon fill="#ff0000" stroke="#ff0000" points="417.8024,-361.5192 409.4461,-355.0059 411.9167,-365.3086 417.8024,-361.5192"/>
</g>
<!-- ha&#45;&gt;hi_ret1 -->
<g id="edge28" class="edge">
<title>ha&#45;&gt;hi_ret1</title>
<path fill="none" stroke="#0000ff" d="M452.2751,-393.3287C455.5425,-384.8103 459.5325,-374.4078 463.1673,-364.9312"/>
<polygon fill="#0000ff" stroke="#0000ff" points="466.4681,-366.0987 466.7815,-355.5085 459.9324,-363.5918 466.4681,-366.0987"/>
</g>
<!-- h_di1&#45;&gt;ha -->
<g id="edge29" class="edge">
<title>h_di1&#45;&gt;ha</title>
<path fill="none" stroke="#0000ff" d="M445.4971,-479.9735C445.4971,-468.1918 445.4971,-452.5607 445.4971,-439.1581"/>
<polygon fill="#0000ff" stroke="#0000ff" points="448.9972,-439.0033 445.4971,-429.0034 441.9972,-439.0034 448.9972,-439.0033"/>
<text text-anchor="middle" x="450.4971" y="-450.8" font-family="Times,serif" font-size="14.00" fill="#000000">2</text>
</g>
<!-- c2a -->
<g id="node25" class="node">
<title>c2a</title>
<ellipse fill="none" stroke="#000000" cx="280.4971" cy="-672" rx="27.8951" ry="18"/>
<text text-anchor="middle" x="280.4971" y="-668.3" font-family="Times,serif" font-size="14.00" fill="#000000">Cut</text>
</g>
<!-- c2a&#45;&gt;hi_retpa -->
<g id="edge30" class="edge">
<title>c2a&#45;&gt;hi_retpa</title>
<path fill="none" stroke="#ff0000" d="M302.3295,-660.6263C331.6203,-645.367 383.7856,-618.191 416.959,-600.9091"/>
<polygon fill="#ff0000" stroke="#ff0000" points="418.9358,-603.8258 426.1874,-596.1014 415.7017,-597.6177 418.9358,-603.8258"/>
<text text-anchor="middle" x="378.4971" y="-624.8" font-family="Times,serif" font-size="14.00" fill="#000000">1</text>
</g>
<!-- c2a&#45;&gt;x1_o2 -->
<g id="edge31" class="edge">
<title>c2a&#45;&gt;x1_o2</title>
<path fill="none" stroke="#0000ff" d="M271.6223,-654.8174C257.6514,-626.6974 231.1289,-568.6948 221.4971,-516 211.6677,-462.2243 220.5037,-447.6576 221.4971,-393 221.6534,-384.402 221.947,-375.0517 222.262,-366.5407"/>
<polygon fill="#0000ff" stroke="#0000ff" points="225.7679,-366.4587 222.6638,-356.3288 218.7733,-366.1834 225.7679,-366.4587"/>
</g>
<!-- c3 -->
<g id="node26" class="node">
<title>c3</title>
<ellipse fill="none" stroke="#000000" cx="546.4971" cy="-338" rx="27.8951" ry="18"/>
<text text-anchor="middle" x="546.4971" y="-334.3" font-family="Times,serif" font-size="14.00" fill="#000000">Cut</text>
</g>
<!-- c3&#45;&gt;h_app -->
<g id="edge35" class="edge">
<title>c3&#45;&gt;h_app</title>
<path fill="none" stroke="#0000ff" d="M530.6461,-322.8458C516.2925,-309.123 494.9663,-288.7342 478.6953,-273.1784"/>
<polygon fill="#0000ff" stroke="#0000ff" points="480.8133,-270.3612 471.1665,-265.9806 475.976,-275.4209 480.8133,-270.3612"/>
</g>
<!-- i -->
<g id="node27" class="node">
<title>i</title>
<ellipse fill="none" stroke="#000000" cx="546.4971" cy="-251" rx="27" ry="18"/>
<text text-anchor="middle" x="546.4971" y="-247.3" font-family="Times,serif" font-size="14.00" fill="#000000">!p</text>
</g>
<!-- c3&#45;&gt;i -->
<g id="edge34" class="edge">
<title>c3&#45;&gt;i</title>
<path fill="none" stroke="#ff0000" d="M546.4971,-319.9735C546.4971,-308.1918 546.4971,-292.5607 546.4971,-279.1581"/>
<polygon fill="#ff0000" stroke="#ff0000" points="549.9972,-279.0033 546.4971,-269.0034 542.9972,-279.0034 549.9972,-279.0033"/>
<text text-anchor="middle" x="551.4971" y="-290.8" font-family="Times,serif" font-size="14.00" fill="#000000">2</text>
</g>
<!-- i_i -->
<g id="node28" class="node">
<title>i_i</title>
<ellipse fill="none" stroke="#000000" cx="546.4971" cy="-164" rx="27" ry="18"/>
<text text-anchor="middle" x="546.4971" y="-160.3" font-family="Times,serif" font-size="14.00" fill="#000000">PiR</text>
</g>
<!-- i&#45;&gt;i_i -->
<g id="edge36" class="edge">
<title>i&#45;&gt;i_i</title>
<path fill="none" stroke="#ff0000" d="M546.4971,-232.9735C546.4971,-221.1918 546.4971,-205.5607 546.4971,-192.1581"/>
<polygon fill="#ff0000" stroke="#ff0000" points="549.9972,-192.0033 546.4971,-182.0034 542.9972,-192.0034 549.9972,-192.0033"/>
<text text-anchor="middle" x="551.4971" y="-203.8" font-family="Times,serif" font-size="14.00" fill="#000000">3</text>
</g>
<!-- il -->
<g id="node29" class="node">
<title>il</title>
<ellipse fill="none" stroke="#000000" cx="589.4971" cy="-91" rx="27" ry="18"/>
<text text-anchor="middle" x="589.4971" y="-87.3" font-family="Times,serif" font-size="14.00" fill="#000000">!d</text>
</g>
<!-- i_i&#45;&gt;il -->
<g id="edge37" class="edge">
<title>i_i&#45;&gt;il</title>
<path fill="none" stroke="#0000ff" d="M556.4703,-147.0688C561.7889,-138.0396 568.4436,-126.742 574.3832,-116.6585"/>
<polygon fill="#0000ff" stroke="#0000ff" points="577.5184,-118.232 579.5781,-107.8393 571.4869,-114.6793 577.5184,-118.232"/>
</g>
<!-- i_ret -->
<g id="node30" class="node">
<title>i_ret</title>
<ellipse fill="none" stroke="#000000" cx="546.4971" cy="-18" rx="27" ry="18"/>
<text text-anchor="middle" x="546.4971" y="-14.3" font-family="Times,serif" font-size="14.00" fill="#000000">I</text>
</g>
<!-- i_i&#45;&gt;i_ret -->
<g id="edge38" class="edge">
<title>i_i&#45;&gt;i_ret</title>
<path fill="none" stroke="#ff0000" d="M546.4971,-145.8042C546.4971,-120.8868 546.4971,-75.8938 546.4971,-46.4877"/>
<polygon fill="#ff0000" stroke="#ff0000" points="549.9972,-46.4251 546.4971,-36.4251 542.9972,-46.4251 549.9972,-46.4251"/>
</g>
<!-- il&#45;&gt;i_ret -->
<g id="edge39" class="edge">
<title>il&#45;&gt;i_ret</title>
<path fill="none" stroke="#0000ff" d="M579.524,-74.0688C574.2054,-65.0396 567.5506,-53.742 561.611,-43.6585"/>
<polygon fill="#0000ff" stroke="#0000ff" points="564.5073,-41.6793 556.4162,-34.8393 558.4759,-45.232 564.5073,-41.6793"/>
</g>
</g>
</svg>
