<?xml version="1.0" encoding="UTF-8" standalone="no"?>
<!DOCTYPE svg PUBLIC "-//W3C//DTD SVG 1.1//EN"
 "http://www.w3.org/Graphics/SVG/1.1/DTD/svg11.dtd">
<!-- Generated by graphviz version 2.43.0 (0)
 -->
<!-- Title: %3 Pages: 1 -->
<svg width="413pt" height="305pt"
 viewBox="0.00 0.00 413.44 305.00" xmlns="http://www.w3.org/2000/svg" xmlns:xlink="http://www.w3.org/1999/xlink">
<g id="graph0" class="graph" transform="scale(1 1) rotate(0) translate(4 301)">
<title>%3</title>
<polygon fill="white" stroke="transparent" points="-4,4 -4,-301 409.44,-301 409.44,4 -4,4"/>
<!-- nonexistent -->
<g id="node1" class="node">
<title>nonexistent</title>
<ellipse fill="none" stroke="black" cx="158.44" cy="-279" rx="117.78" ry="18"/>
<text text-anchor="middle" x="158.44" y="-275.3" font-family="Times,serif" font-size="14.00">not thrown, not caught</text>
</g>
<!-- fresh -->
<g id="node2" class="node">
<title>fresh</title>
<ellipse fill="none" stroke="black" cx="99.44" cy="-192" rx="99.38" ry="18"/>
<text text-anchor="middle" x="99.44" y="-188.3" font-family="Times,serif" font-size="14.00">thrown, not caught</text>
</g>
<!-- nonexistent&#45;&gt;fresh -->
<g id="edge1" class="edge">
<title>nonexistent&#45;&gt;fresh</title>
<path fill="none" stroke="black" d="M85.81,-264.79C75.06,-259.7 65.31,-252.68 58.44,-243 52,-233.92 56.71,-224.36 64.89,-216.07"/>
<polygon fill="black" stroke="black" points="67.23,-218.67 72.42,-209.44 62.6,-213.42 67.23,-218.67"/>
<text text-anchor="middle" x="97.44" y="-231.8" font-family="Times,serif" font-size="14.00">add failure</text>
</g>
<!-- fresh&#45;&gt;nonexistent -->
<g id="edge4" class="edge">
<title>fresh&#45;&gt;nonexistent</title>
<path fill="none" stroke="black" d="M120.16,-209.86C125.92,-215.24 131.86,-221.49 136.44,-228 141.43,-235.09 145.67,-243.49 149.04,-251.36"/>
<polygon fill="black" stroke="black" points="145.9,-252.92 152.86,-260.91 152.4,-250.33 145.9,-252.92"/>
<text text-anchor="middle" x="196.94" y="-231.8" font-family="Times,serif" font-size="14.00">remove failure</text>
</g>
<!-- mature -->
<g id="node4" class="node">
<title>mature</title>
<ellipse fill="none" stroke="black" cx="142.44" cy="-105" rx="81.49" ry="18"/>
<text text-anchor="middle" x="142.44" y="-101.3" font-family="Times,serif" font-size="14.00">thrown, caught</text>
</g>
<!-- fresh&#45;&gt;mature -->
<g id="edge2" class="edge">
<title>fresh&#45;&gt;mature</title>
<path fill="none" stroke="black" d="M55.83,-175.58C38.28,-166.87 24.31,-154.93 34.44,-141 41.85,-130.81 52.29,-123.53 63.79,-118.34"/>
<polygon fill="black" stroke="black" points="65.19,-121.54 73.2,-114.6 62.61,-115.04 65.19,-121.54"/>
<text text-anchor="middle" x="77.44" y="-144.8" font-family="Times,serif" font-size="14.00">add handler</text>
</g>
<!-- dead -->
<g id="node3" class="node">
<title>dead</title>
<ellipse fill="none" stroke="black" cx="210.44" cy="-18" rx="99.38" ry="18"/>
<text text-anchor="middle" x="210.44" y="-14.3" font-family="Times,serif" font-size="14.00">not thrown, caught</text>
</g>
<!-- dead&#45;&gt;nonexistent -->
<g id="edge5" class="edge">
<title>dead&#45;&gt;nonexistent</title>
<path fill="none" stroke="black" d="M246.14,-34.94C253.47,-39.94 260.23,-46.25 264.44,-54 304.62,-127.93 303.72,-175.53 253.44,-243 248.57,-249.54 242.34,-254.86 235.41,-259.19"/>
<polygon fill="black" stroke="black" points="233.4,-256.29 226.3,-264.15 236.75,-262.44 233.4,-256.29"/>
<text text-anchor="middle" x="348.94" y="-144.8" font-family="Times,serif" font-size="14.00">remove handler</text>
</g>
<!-- mature&#45;&gt;fresh -->
<g id="edge6" class="edge">
<title>mature&#45;&gt;fresh</title>
<path fill="none" stroke="black" d="M135.43,-123.38C131.35,-133.11 125.93,-145.39 120.44,-156 118.91,-158.96 117.23,-162.01 115.52,-165.02"/>
<polygon fill="black" stroke="black" points="112.41,-163.41 110.35,-173.8 118.44,-166.96 112.41,-163.41"/>
<text text-anchor="middle" x="183.94" y="-144.8" font-family="Times,serif" font-size="14.00">remove handler</text>
</g>
<!-- mature&#45;&gt;dead -->
<g id="edge3" class="edge">
<title>mature&#45;&gt;dead</title>
<path fill="none" stroke="black" d="M145.4,-86.96C147.84,-76.64 152.13,-63.65 159.44,-54 162.97,-49.34 167.31,-45.08 171.95,-41.26"/>
<polygon fill="black" stroke="black" points="174.06,-44.05 179.95,-35.25 169.86,-38.45 174.06,-44.05"/>
<text text-anchor="middle" x="211.94" y="-57.8" font-family="Times,serif" font-size="14.00">remove failure</text>
</g>
</g>
</svg>
