<?xml version="1.0" encoding="UTF-8" standalone="no"?>
<!DOCTYPE svg PUBLIC "-//W3C//DTD SVG 1.1//EN"
 "http://www.w3.org/Graphics/SVG/1.1/DTD/svg11.dtd">
<!-- Generated by graphviz version 2.43.0 (0)
 -->
<!-- Title: %3 Pages: 1 -->
<svg width="297pt" height="1059pt"
 viewBox="0.00 0.00 297.00 1058.60" xmlns="http://www.w3.org/2000/svg" xmlns:xlink="http://www.w3.org/1999/xlink">
<g id="graph0" class="graph" transform="scale(1 1) rotate(0) translate(4 1054.6)">
<title>%3</title>
<polygon fill="white" stroke="transparent" points="-4,4 -4,-1054.6 293,-1054.6 293,4 -4,4"/>
<!-- Root -->
<g id="node1" class="node">
<title>Root</title>
<ellipse fill="none" stroke="black" cx="227" cy="-1032.6" rx="32.49" ry="18"/>
<text text-anchor="middle" x="227" y="-1028.9" font-family="Times,serif" font-size="14.00">Root</text>
</g>
<!-- c1b -->
<g id="node2" class="node">
<title>c1b</title>
<ellipse fill="none" stroke="black" cx="192" cy="-946.3" rx="27.12" ry="27.12"/>
<ellipse fill="none" stroke="black" cx="192" cy="-946.3" rx="31.1" ry="31.1"/>
<text text-anchor="middle" x="192" y="-942.6" font-family="Times,serif" font-size="14.00">Cut</text>
</g>
<!-- Root&#45;&gt;c1b -->
<g id="edge1" class="edge">
<title>Root&#45;&gt;c1b</title>
<path fill="none" stroke="black" d="M220.09,-1014.94C216.52,-1006.34 212.01,-995.48 207.65,-984.99"/>
<polygon fill="black" stroke="black" points="210.79,-983.43 203.73,-975.54 204.33,-986.12 210.79,-983.43"/>
</g>
<!-- ret -->
<g id="node8" class="node">
<title>ret</title>
<ellipse fill="none" stroke="black" cx="262" cy="-759" rx="27" ry="18"/>
<text text-anchor="middle" x="262" y="-755.3" font-family="Times,serif" font-size="14.00">I</text>
</g>
<!-- Root&#45;&gt;ret -->
<g id="edge5" class="edge">
<title>Root&#45;&gt;ret</title>
<path fill="none" stroke="red" stroke-width="2" d="M229.19,-1014.61C235.08,-968.88 251.32,-842.9 258.5,-787.15"/>
<polygon fill="red" stroke="red" stroke-width="2" points="262,-787.35 259.81,-776.98 255.06,-786.45 262,-787.35"/>
</g>
<!-- fb -->
<g id="node5" class="node">
<title>fb</title>
<ellipse fill="none" stroke="black" cx="126" cy="-672" rx="27" ry="18"/>
<text text-anchor="middle" x="126" y="-668.3" font-family="Times,serif" font-size="14.00">PiR</text>
</g>
<!-- c1b&#45;&gt;fb -->
<g id="edge8" class="edge">
<title>c1b&#45;&gt;fb</title>
<path fill="none" stroke="red" d="M177.83,-918.13C170.3,-902.64 161.49,-882.66 156,-864 139.26,-807.14 131.34,-737.86 128.04,-700.33"/>
<polygon fill="red" stroke="red" points="131.51,-699.86 127.19,-690.19 124.54,-700.45 131.51,-699.86"/>
<text text-anchor="middle" x="148" y="-798.8" font-family="Times,serif" font-size="14.00">1</text>
</g>
<!-- x2i_o1 -->
<g id="node11" class="node">
<title>x2i_o1</title>
<ellipse fill="none" stroke="black" cx="192" cy="-846" rx="27" ry="18"/>
<text text-anchor="middle" x="192" y="-842.3" font-family="Times,serif" font-size="14.00">PiL</text>
</g>
<!-- c1b&#45;&gt;x2i_o1 -->
<g id="edge9" class="edge">
<title>c1b&#45;&gt;x2i_o1</title>
<path fill="none" stroke="blue" d="M192,-914.73C192,-901.83 192,-886.93 192,-874.39"/>
<polygon fill="blue" stroke="blue" points="195.5,-874.09 192,-864.09 188.5,-874.09 195.5,-874.09"/>
<text text-anchor="middle" x="197" y="-885.8" font-family="Times,serif" font-size="14.00">0</text>
</g>
<!-- fa -->
<g id="node3" class="node">
<title>fa</title>
<ellipse fill="none" stroke="black" cx="199" cy="-672" rx="27" ry="18"/>
<text text-anchor="middle" x="199" y="-668.3" font-family="Times,serif" font-size="14.00">PiR</text>
</g>
<!-- c2b -->
<g id="node4" class="node">
<title>c2b</title>
<ellipse fill="none" stroke="black" cx="157" cy="-599" rx="27.1" ry="18"/>
<text text-anchor="middle" x="157" y="-595.3" font-family="Times,serif" font-size="14.00">Cut</text>
</g>
<!-- fa&#45;&gt;c2b -->
<g id="edge2" class="edge">
<title>fa&#45;&gt;c2b</title>
<path fill="none" stroke="black" d="M194.2,-653.98C192.11,-647.79 189.36,-640.88 186,-635 183.54,-630.69 180.53,-626.38 177.4,-622.34"/>
<polygon fill="black" stroke="black" points="179.99,-619.98 170.93,-614.49 174.59,-624.43 179.99,-619.98"/>
</g>
<!-- d1 -->
<g id="node6" class="node">
<title>d1</title>
<ellipse fill="none" stroke="black" cx="232" cy="-599" rx="29.8" ry="18"/>
<text text-anchor="middle" x="232" y="-595.3" font-family="Times,serif" font-size="14.00">Dup</text>
</g>
<!-- fa&#45;&gt;d1 -->
<g id="edge14" class="edge">
<title>fa&#45;&gt;d1</title>
<path fill="none" stroke="red" d="M206.65,-654.53C210.84,-645.52 216.11,-634.19 220.75,-624.19"/>
<ellipse fill="none" stroke="red" cx="222.47" cy="-620.5" rx="4" ry="4"/>
</g>
<!-- d2 -->
<g id="node7" class="node">
<title>d2</title>
<ellipse fill="none" stroke="black" cx="82" cy="-599" rx="29.8" ry="18"/>
<text text-anchor="middle" x="82" y="-595.3" font-family="Times,serif" font-size="14.00">Dup</text>
</g>
<!-- fa&#45;&gt;d2 -->
<g id="edge13" class="edge">
<title>fa&#45;&gt;d2</title>
<path fill="none" stroke="blue" d="M179.68,-659.28C160.55,-647.67 131.09,-629.79 109.52,-616.7"/>
<ellipse fill="none" stroke="blue" cx="105.95" cy="-614.53" rx="4" ry="4"/>
</g>
<!-- hi_retp -->
<g id="node10" class="node">
<title>hi_retp</title>
<ellipse fill="none" stroke="black" cx="82" cy="-512" rx="27" ry="18"/>
<text text-anchor="middle" x="82" y="-508.3" font-family="Times,serif" font-size="14.00">!p</text>
</g>
<!-- c2b&#45;&gt;hi_retp -->
<g id="edge17" class="edge">
<title>c2b&#45;&gt;hi_retp</title>
<path fill="none" stroke="red" d="M143.94,-583.19C132.39,-570.11 115.38,-550.83 102.1,-535.78"/>
<polygon fill="red" stroke="red" points="104.41,-533.1 95.17,-527.92 99.16,-537.74 104.41,-533.1"/>
<text text-anchor="middle" x="129" y="-551.8" font-family="Times,serif" font-size="14.00">1</text>
</g>
<!-- x_o2 -->
<g id="node13" class="node">
<title>x_o2</title>
<ellipse fill="none" stroke="black" cx="157" cy="-512" rx="27" ry="18"/>
<text text-anchor="middle" x="157" y="-508.3" font-family="Times,serif" font-size="14.00">!c</text>
</g>
<!-- c2b&#45;&gt;x_o2 -->
<g id="edge18" class="edge">
<title>c2b&#45;&gt;x_o2</title>
<path fill="none" stroke="blue" d="M157,-580.8C157,-569.16 157,-553.55 157,-540.24"/>
<polygon fill="blue" stroke="blue" points="160.5,-540.18 157,-530.18 153.5,-540.18 160.5,-540.18"/>
<text text-anchor="middle" x="162" y="-551.8" font-family="Times,serif" font-size="14.00">1</text>
</g>
<!-- fb&#45;&gt;c2b -->
<g id="edge3" class="edge">
<title>fb&#45;&gt;c2b</title>
<path fill="none" stroke="black" d="M131.51,-654.34C133.68,-648.19 136.29,-641.21 139,-635 140.41,-631.77 141.98,-628.42 143.59,-625.13"/>
<polygon fill="black" stroke="black" points="146.73,-626.67 148.13,-616.17 140.49,-623.51 146.73,-626.67"/>
</g>
<!-- fb&#45;&gt;d1 -->
<g id="edge16" class="edge">
<title>fb&#45;&gt;d1</title>
<path fill="none" stroke="red" d="M144.46,-658.63C160.95,-647.59 185.34,-631.25 204.19,-618.63"/>
<polygon fill="red" stroke="red" points="206.31,-621.42 212.67,-612.95 202.42,-615.6 206.31,-621.42"/>
</g>
<!-- fb&#45;&gt;d2 -->
<g id="edge15" class="edge">
<title>fb&#45;&gt;d2</title>
<path fill="none" stroke="blue" d="M116.02,-654.89C110.5,-645.99 103.54,-634.75 97.35,-624.77"/>
<polygon fill="blue" stroke="blue" points="100.19,-622.7 91.94,-616.05 94.24,-626.39 100.19,-622.7"/>
</g>
<!-- d1&#45;&gt;d2 -->
<g id="edge4" class="edge">
<title>d1&#45;&gt;d2</title>
<path fill="none" stroke="black" stroke-dasharray="5,2" d="M216.69,-614.8C207.95,-622.66 196.3,-631.35 184,-635.5 161.26,-643.16 152.74,-643.16 130,-635.5 117.7,-631.35 106.05,-622.66 97.31,-614.8"/>
</g>
<!-- f_ret -->
<g id="node9" class="node">
<title>f_ret</title>
<ellipse fill="none" stroke="black" cx="246" cy="-251" rx="27" ry="18"/>
<text text-anchor="middle" x="246" y="-247.3" font-family="Times,serif" font-size="14.00">I</text>
</g>
<!-- d1&#45;&gt;f_ret -->
<g id="edge6" class="edge">
<title>d1&#45;&gt;f_ret</title>
<path fill="none" stroke="red" d="M236.75,-581.22C241.14,-564.19 247,-536.98 247,-513 247,-513 247,-513 247,-337 247,-317.75 246.74,-296.05 246.49,-279.4"/>
<polygon fill="red" stroke="red" points="249.98,-279.2 246.32,-269.26 242.98,-279.31 249.98,-279.2"/>
</g>
<!-- d2&#45;&gt;hi_retp -->
<g id="edge7" class="edge">
<title>d2&#45;&gt;hi_retp</title>
<path fill="none" stroke="blue" d="M82,-580.8C82,-569.16 82,-553.55 82,-540.24"/>
<polygon fill="blue" stroke="blue" points="85.5,-540.18 82,-530.18 78.5,-540.18 85.5,-540.18"/>
<text text-anchor="middle" x="87" y="-551.8" font-family="Times,serif" font-size="14.00">1</text>
</g>
<!-- hi_ret -->
<g id="node17" class="node">
<title>hi_ret</title>
<ellipse fill="none" stroke="black" cx="27" cy="-251" rx="27" ry="18"/>
<text text-anchor="middle" x="27" y="-247.3" font-family="Times,serif" font-size="14.00">I</text>
</g>
<!-- hi_retp&#45;&gt;hi_ret -->
<g id="edge24" class="edge">
<title>hi_retp&#45;&gt;hi_ret</title>
<path fill="none" stroke="red" d="M71.4,-495.28C63,-481.96 51.75,-462.05 46,-443 28.96,-386.52 26.4,-316.82 26.44,-279.19"/>
<polygon fill="red" stroke="red" points="29.95,-279.06 26.52,-269.03 22.95,-279 29.95,-279.06"/>
<text text-anchor="middle" x="39" y="-377.8" font-family="Times,serif" font-size="14.00">2</text>
</g>
<!-- h_di -->
<g id="node18" class="node">
<title>h_di</title>
<ellipse fill="none" stroke="black" cx="82" cy="-425" rx="27" ry="18"/>
<text text-anchor="middle" x="82" y="-421.3" font-family="Times,serif" font-size="14.00">!d</text>
</g>
<!-- hi_retp&#45;&gt;h_di -->
<g id="edge25" class="edge">
<title>hi_retp&#45;&gt;h_di</title>
<path fill="none" stroke="blue" d="M82,-493.8C82,-482.16 82,-466.55 82,-453.24"/>
<polygon fill="blue" stroke="blue" points="85.5,-453.18 82,-443.18 78.5,-453.18 85.5,-453.18"/>
<text text-anchor="middle" x="87" y="-464.8" font-family="Times,serif" font-size="14.00">1</text>
</g>
<!-- x2i_o1&#45;&gt;ret -->
<g id="edge11" class="edge">
<title>x2i_o1&#45;&gt;ret</title>
<path fill="none" stroke="blue" d="M204.51,-829.8C215.27,-816.75 230.92,-797.74 243.18,-782.85"/>
<polygon fill="blue" stroke="blue" points="245.94,-785.01 249.59,-775.06 240.53,-780.56 245.94,-785.01"/>
</g>
<!-- fpa -->
<g id="node12" class="node">
<title>fpa</title>
<ellipse fill="none" stroke="black" cx="190" cy="-759" rx="27" ry="18"/>
<text text-anchor="middle" x="190" y="-755.3" font-family="Times,serif" font-size="14.00">!p</text>
</g>
<!-- x2i_o1&#45;&gt;fpa -->
<g id="edge10" class="edge">
<title>x2i_o1&#45;&gt;fpa</title>
<path fill="none" stroke="red" d="M191.6,-827.8C191.32,-816.16 190.95,-800.55 190.64,-787.24"/>
<polygon fill="red" stroke="red" points="194.14,-787.09 190.4,-777.18 187.14,-787.26 194.14,-787.09"/>
<text text-anchor="middle" x="196" y="-798.8" font-family="Times,serif" font-size="14.00">0</text>
</g>
<!-- fpa&#45;&gt;fa -->
<g id="edge12" class="edge">
<title>fpa&#45;&gt;fa</title>
<path fill="none" stroke="red" d="M191.82,-740.8C193.05,-729.16 194.71,-713.55 196.12,-700.24"/>
<polygon fill="red" stroke="red" points="199.61,-700.49 197.18,-690.18 192.65,-699.75 199.61,-700.49"/>
<text text-anchor="middle" x="200" y="-711.8" font-family="Times,serif" font-size="14.00">1</text>
</g>
<!-- x1_o2 -->
<g id="node14" class="node">
<title>x1_o2</title>
<ellipse fill="none" stroke="black" cx="172" cy="-251" rx="27" ry="18"/>
<text text-anchor="middle" x="172" y="-247.3" font-family="Times,serif" font-size="14.00">I</text>
</g>
<!-- x_o2&#45;&gt;x1_o2 -->
<g id="edge19" class="edge">
<title>x_o2&#45;&gt;x1_o2</title>
<path fill="none" stroke="blue" d="M155.53,-493.8C152.96,-460.24 148.6,-383.74 156,-320 157.61,-306.16 160.99,-291.06 164.24,-278.6"/>
<polygon fill="blue" stroke="blue" points="167.64,-279.42 166.89,-268.85 160.89,-277.59 167.64,-279.42"/>
</g>
<!-- x2_o2 -->
<g id="node15" class="node">
<title>x2_o2</title>
<ellipse fill="none" stroke="black" cx="192" cy="-425" rx="27" ry="18"/>
<text text-anchor="middle" x="192" y="-421.3" font-family="Times,serif" font-size="14.00">!d</text>
</g>
<!-- x_o2&#45;&gt;x2_o2 -->
<g id="edge20" class="edge">
<title>x_o2&#45;&gt;x2_o2</title>
<path fill="none" stroke="blue" d="M163.91,-494.21C168.88,-482.14 175.68,-465.64 181.34,-451.89"/>
<polygon fill="blue" stroke="blue" points="184.65,-453.05 185.22,-442.47 178.17,-450.38 184.65,-453.05"/>
</g>
<!-- x2i_o2 -->
<g id="node16" class="node">
<title>x2i_o2</title>
<ellipse fill="none" stroke="black" cx="192" cy="-338" rx="27" ry="18"/>
<text text-anchor="middle" x="192" y="-334.3" font-family="Times,serif" font-size="14.00">PiL</text>
</g>
<!-- x2_o2&#45;&gt;x2i_o2 -->
<g id="edge21" class="edge">
<title>x2_o2&#45;&gt;x2i_o2</title>
<path fill="none" stroke="blue" d="M192,-406.8C192,-395.16 192,-379.55 192,-366.24"/>
<polygon fill="blue" stroke="blue" points="195.5,-366.18 192,-356.18 188.5,-366.18 195.5,-366.18"/>
</g>
<!-- x2i_o2&#45;&gt;f_ret -->
<g id="edge23" class="edge">
<title>x2i_o2&#45;&gt;f_ret</title>
<path fill="none" stroke="blue" d="M202.16,-321.01C210.08,-308.55 221.22,-291.01 230.28,-276.74"/>
<polygon fill="blue" stroke="blue" points="233.48,-278.23 235.89,-267.92 227.57,-274.48 233.48,-278.23"/>
</g>
<!-- x2i_o2&#45;&gt;x1_o2 -->
<g id="edge22" class="edge">
<title>x2i_o2&#45;&gt;x1_o2</title>
<path fill="none" stroke="red" d="M187.95,-319.8C185.2,-308.09 181.49,-292.34 178.35,-278.97"/>
<polygon fill="red" stroke="red" points="181.67,-277.82 175.97,-268.89 174.86,-279.42 181.67,-277.82"/>
</g>
<!-- h -->
<g id="node19" class="node">
<title>h</title>
<ellipse fill="none" stroke="black" cx="82" cy="-338" rx="27" ry="18"/>
<text text-anchor="middle" x="82" y="-334.3" font-family="Times,serif" font-size="14.00">PiL</text>
</g>
<!-- h_di&#45;&gt;h -->
<g id="edge26" class="edge">
<title>h_di&#45;&gt;h</title>
<path fill="none" stroke="blue" d="M82,-406.8C82,-395.16 82,-379.55 82,-366.24"/>
<polygon fill="blue" stroke="blue" points="85.5,-366.18 82,-356.18 78.5,-366.18 85.5,-366.18"/>
<text text-anchor="middle" x="87" y="-377.8" font-family="Times,serif" font-size="14.00">2</text>
</g>
<!-- h&#45;&gt;hi_ret -->
<g id="edge32" class="edge">
<title>h&#45;&gt;hi_ret</title>
<path fill="none" stroke="blue" d="M71.65,-321.01C63.51,-308.43 52.03,-290.68 42.74,-276.33"/>
<polygon fill="blue" stroke="blue" points="45.67,-274.41 37.3,-267.92 39.79,-278.21 45.67,-274.41"/>
</g>
<!-- i -->
<g id="node20" class="node">
<title>i</title>
<ellipse fill="none" stroke="black" cx="99" cy="-251" rx="27" ry="18"/>
<text text-anchor="middle" x="99" y="-247.3" font-family="Times,serif" font-size="14.00">!p</text>
</g>
<!-- h&#45;&gt;i -->
<g id="edge31" class="edge">
<title>h&#45;&gt;i</title>
<path fill="none" stroke="red" d="M85.44,-319.8C87.78,-308.09 90.93,-292.34 93.61,-278.97"/>
<polygon fill="red" stroke="red" points="97.09,-279.38 95.62,-268.89 90.23,-278 97.09,-279.38"/>
<text text-anchor="middle" x="97" y="-290.8" font-family="Times,serif" font-size="14.00">2</text>
</g>
<!-- i_i -->
<g id="node21" class="node">
<title>i_i</title>
<ellipse fill="none" stroke="black" cx="99" cy="-164" rx="27" ry="18"/>
<text text-anchor="middle" x="99" y="-160.3" font-family="Times,serif" font-size="14.00">PiR</text>
</g>
<!-- i&#45;&gt;i_i -->
<g id="edge27" class="edge">
<title>i&#45;&gt;i_i</title>
<path fill="none" stroke="red" d="M99,-232.8C99,-221.16 99,-205.55 99,-192.24"/>
<polygon fill="red" stroke="red" points="102.5,-192.18 99,-182.18 95.5,-192.18 102.5,-192.18"/>
<text text-anchor="middle" x="104" y="-203.8" font-family="Times,serif" font-size="14.00">3</text>
</g>
<!-- il -->
<g id="node22" class="node">
<title>il</title>
<ellipse fill="none" stroke="black" cx="142" cy="-91" rx="27" ry="18"/>
<text text-anchor="middle" x="142" y="-87.3" font-family="Times,serif" font-size="14.00">!d</text>
</g>
<!-- i_i&#45;&gt;il -->
<g id="edge28" class="edge">
<title>i_i&#45;&gt;il</title>
<path fill="none" stroke="blue" d="M108.76,-146.89C114.15,-137.99 120.95,-126.75 127,-116.77"/>
<polygon fill="blue" stroke="blue" points="130.09,-118.41 132.28,-108.05 124.11,-114.79 130.09,-118.41"/>
</g>
<!-- i_ret -->
<g id="node23" class="node">
<title>i_ret</title>
<ellipse fill="none" stroke="black" cx="99" cy="-18" rx="27" ry="18"/>
<text text-anchor="middle" x="99" y="-14.3" font-family="Times,serif" font-size="14.00">I</text>
</g>
<!-- i_i&#45;&gt;i_ret -->
<g id="edge29" class="edge">
<title>i_i&#45;&gt;i_ret</title>
<path fill="none" stroke="red" d="M99,-145.92C99,-121.34 99,-75.75 99,-46.43"/>
<polygon fill="red" stroke="red" points="102.5,-46.06 99,-36.06 95.5,-46.06 102.5,-46.06"/>
</g>
<!-- il&#45;&gt;i_ret -->
<g id="edge30" class="edge">
<title>il&#45;&gt;i_ret</title>
<path fill="none" stroke="blue" d="M132.24,-73.89C126.85,-64.99 120.05,-53.75 114,-43.77"/>
<polygon fill="blue" stroke="blue" points="116.89,-41.79 108.72,-35.05 110.91,-45.41 116.89,-41.79"/>
</g>
</g>
</svg>
