<?xml version="1.0" encoding="UTF-8" standalone="no"?>
<!DOCTYPE svg PUBLIC "-//W3C//DTD SVG 1.1//EN"
 "http://www.w3.org/Graphics/SVG/1.1/DTD/svg11.dtd">
<!-- Generated by graphviz version 2.40.1 (20161225.0304)
 -->
<!-- Title: %3 Pages: 1 -->
<svg width="415pt" height="1394pt"
 viewBox="0.00 0.00 414.62 1394.00" xmlns="http://www.w3.org/2000/svg" xmlns:xlink="http://www.w3.org/1999/xlink">
<g id="graph0" class="graph" transform="scale(1 1) rotate(0) translate(4 1390)">
<title>%3</title>
<polygon fill="#ffffff" stroke="transparent" points="-4,4 -4,-1390 410.6201,-1390 410.6201,4 -4,4"/>
<!-- Root -->
<g id="node1" class="node">
<title>Root</title>
<ellipse fill="none" stroke="#000000" cx="233.6201" cy="-1368" rx="32.4942" ry="18"/>
<text text-anchor="middle" x="233.6201" y="-1364.3" font-family="Times,serif" font-size="14.00" fill="#000000">Root</text>
</g>
<!-- c1a -->
<g id="node2" class="node">
<title>c1a</title>
<ellipse fill="none" stroke="#000000" cx="125.6201" cy="-1295" rx="27.8951" ry="18"/>
<text text-anchor="middle" x="125.6201" y="-1291.3" font-family="Times,serif" font-size="14.00" fill="#000000">Cut</text>
</g>
<!-- Root&#45;&gt;c1a -->
<g id="edge1" class="edge">
<title>Root&#45;&gt;c1a</title>
<path fill="none" stroke="#000000" d="M212.7966,-1353.9249C195.8636,-1342.4794 171.8246,-1326.2308 153.2772,-1313.6942"/>
<polygon fill="#000000" stroke="#000000" points="155.1733,-1310.7512 144.9283,-1308.0509 151.2533,-1316.5507 155.1733,-1310.7512"/>
</g>
<!-- c1b -->
<g id="node3" class="node">
<title>c1b</title>
<ellipse fill="none" stroke="#000000" cx="233.6201" cy="-1295" rx="27.8951" ry="18"/>
<text text-anchor="middle" x="233.6201" y="-1291.3" font-family="Times,serif" font-size="14.00" fill="#000000">Cut</text>
</g>
<!-- Root&#45;&gt;c1b -->
<g id="edge2" class="edge">
<title>Root&#45;&gt;c1b</title>
<path fill="none" stroke="#000000" d="M233.6201,-1349.9551C233.6201,-1341.8828 233.6201,-1332.1764 233.6201,-1323.1817"/>
<polygon fill="#000000" stroke="#000000" points="237.1202,-1323.0903 233.6201,-1313.0904 230.1202,-1323.0904 237.1202,-1323.0903"/>
</g>
<!-- f_ret1 -->
<g id="node6" class="node">
<title>f_ret1</title>
<ellipse fill="none" stroke="#000000" cx="371.6201" cy="-947" rx="27" ry="18"/>
<text text-anchor="middle" x="371.6201" y="-943.3" font-family="Times,serif" font-size="14.00" fill="#000000">I</text>
</g>
<!-- Root&#45;&gt;f_ret1 -->
<g id="edge4" class="edge">
<title>Root&#45;&gt;f_ret1</title>
<path fill="none" stroke="#ff0000" d="M265.975,-1364.9952C306.7636,-1359.2236 371.6201,-1342.5674 371.6201,-1295 371.6201,-1295 371.6201,-1295 371.6201,-1034 371.6201,-1014.5475 371.6201,-992.6484 371.6201,-975.6877"/>
<polygon fill="#ff0000" stroke="#ff0000" points="375.1202,-975.3305 371.6201,-965.3306 368.1202,-975.3306 375.1202,-975.3305"/>
<text text-anchor="middle" x="389.1201" y="-1160.8" font-family="Times,serif" font-size="14.00" fill="#000000">0&#45;&gt;1</text>
</g>
<!-- d2a -->
<g id="node4" class="node">
<title>d2a</title>
<ellipse fill="none" stroke="#000000" cx="37.6201" cy="-860" rx="29.795" ry="18"/>
<text text-anchor="middle" x="37.6201" y="-856.3" font-family="Times,serif" font-size="14.00" fill="#000000">Dup</text>
</g>
<!-- c1a&#45;&gt;d2a -->
<g id="edge28" class="edge">
<title>c1a&#45;&gt;d2a</title>
<path fill="none" stroke="#0000ff" d="M104.3063,-1283.308C81.2119,-1268.8978 47.6201,-1242.0801 47.6201,-1208 47.6201,-1208 47.6201,-1208 47.6201,-947 47.6201,-927.2947 45.0568,-905.2421 42.5258,-888.27"/>
<polygon fill="#0000ff" stroke="#0000ff" points="45.9097,-887.2589 40.8945,-877.9262 38.9952,-888.3494 45.9097,-887.2589"/>
<text text-anchor="middle" x="52.6201" y="-1073.8" font-family="Times,serif" font-size="14.00" fill="#000000">1</text>
</g>
<!-- fpa -->
<g id="node24" class="node">
<title>fpa</title>
<ellipse fill="none" stroke="#000000" cx="125.6201" cy="-1208" rx="27" ry="18"/>
<text text-anchor="middle" x="125.6201" y="-1204.3" font-family="Times,serif" font-size="14.00" fill="#000000">!p</text>
</g>
<!-- c1a&#45;&gt;fpa -->
<g id="edge27" class="edge">
<title>c1a&#45;&gt;fpa</title>
<path fill="none" stroke="#ff0000" d="M125.6201,-1276.9735C125.6201,-1265.1918 125.6201,-1249.5607 125.6201,-1236.1581"/>
<polygon fill="#ff0000" stroke="#ff0000" points="129.1202,-1236.0033 125.6201,-1226.0034 122.1202,-1236.0034 129.1202,-1236.0033"/>
<text text-anchor="middle" x="130.6201" y="-1247.8" font-family="Times,serif" font-size="14.00" fill="#000000">0</text>
</g>
<!-- h_dib2 -->
<g id="node11" class="node">
<title>h_dib2</title>
<ellipse fill="none" stroke="#000000" cx="269.6201" cy="-1208" rx="27" ry="18"/>
<text text-anchor="middle" x="269.6201" y="-1204.3" font-family="Times,serif" font-size="14.00" fill="#000000">!d</text>
</g>
<!-- c1b&#45;&gt;h_dib2 -->
<g id="edge30" class="edge">
<title>c1b&#45;&gt;h_dib2</title>
<path fill="none" stroke="#0000ff" d="M240.9052,-1277.3943C245.9312,-1265.2482 252.7094,-1248.8674 258.4183,-1235.0711"/>
<polygon fill="#0000ff" stroke="#0000ff" points="261.7563,-1236.158 262.3458,-1225.5796 255.2882,-1233.4815 261.7563,-1236.158"/>
<text text-anchor="middle" x="259.6201" y="-1247.8" font-family="Times,serif" font-size="14.00" fill="#000000">1</text>
</g>
<!-- fpb -->
<g id="node25" class="node">
<title>fpb</title>
<ellipse fill="none" stroke="#000000" cx="197.6201" cy="-1208" rx="27" ry="18"/>
<text text-anchor="middle" x="197.6201" y="-1204.3" font-family="Times,serif" font-size="14.00" fill="#000000">!p</text>
</g>
<!-- c1b&#45;&gt;fpb -->
<g id="edge29" class="edge">
<title>c1b&#45;&gt;fpb</title>
<path fill="none" stroke="#ff0000" d="M226.335,-1277.3943C221.309,-1265.2482 214.5308,-1248.8674 208.8219,-1235.0711"/>
<polygon fill="#ff0000" stroke="#ff0000" points="211.952,-1233.4815 204.8944,-1225.5796 205.4839,-1236.158 211.952,-1233.4815"/>
<text text-anchor="middle" x="223.6201" y="-1247.8" font-family="Times,serif" font-size="14.00" fill="#000000">0</text>
</g>
<!-- d2ba -->
<g id="node5" class="node">
<title>d2ba</title>
<ellipse fill="none" stroke="#000000" cx="169.6201" cy="-599" rx="29.795" ry="18"/>
<text text-anchor="middle" x="169.6201" y="-595.3" font-family="Times,serif" font-size="14.00" fill="#000000">Dup</text>
</g>
<!-- d2a&#45;&gt;d2ba -->
<g id="edge3" class="edge">
<title>d2a&#45;&gt;d2ba</title>
<path fill="none" stroke="#000000" stroke-dasharray="5,2" d="M28.9364,-842.6665C12.3341,-806.8242 -19.2172,-723.2925 16.6201,-668 46.8092,-621.422 80.0874,-639.9638 130.6201,-617 135.5082,-614.7787 140.7317,-612.383 145.7153,-610.0868"/>
</g>
<!-- hi_retpa -->
<g id="node8" class="node">
<title>hi_retpa</title>
<ellipse fill="none" stroke="#000000" cx="127.6201" cy="-512" rx="27" ry="18"/>
<text text-anchor="middle" x="127.6201" y="-508.3" font-family="Times,serif" font-size="14.00" fill="#000000">!p</text>
</g>
<!-- d2a&#45;&gt;hi_retpa -->
<g id="edge5" class="edge">
<title>d2a&#45;&gt;hi_retpa</title>
<path fill="none" stroke="#0000ff" d="M37.9531,-841.6701C38.244,-824.0641 38.6201,-796.7151 38.6201,-773 38.6201,-773 38.6201,-773 38.6201,-599 38.6201,-566.0926 70.1188,-541.5482 95.6384,-527.0629"/>
<polygon fill="#0000ff" stroke="#0000ff" points="97.5543,-530.0065 104.7004,-522.1845 94.2361,-523.8429 97.5543,-530.0065"/>
<text text-anchor="middle" x="43.6201" y="-682.3" font-family="Times,serif" font-size="14.00" fill="#000000">1</text>
</g>
<!-- d2ba&#45;&gt;hi_retpa -->
<g id="edge20" class="edge">
<title>d2ba&#45;&gt;hi_retpa</title>
<path fill="none" stroke="#ff0000" d="M161.1208,-581.3943C155.1613,-569.0496 147.09,-552.3306 140.3632,-538.3965"/>
<polygon fill="#ff0000" stroke="#ff0000" points="143.4629,-536.7665 135.9635,-529.2827 137.1591,-539.8098 143.4629,-536.7665"/>
<text text-anchor="middle" x="156.6201" y="-551.8" font-family="Times,serif" font-size="14.00" fill="#000000">1</text>
</g>
<!-- f_ret2 -->
<g id="node7" class="node">
<title>f_ret2</title>
<ellipse fill="none" stroke="#000000" cx="94.6201" cy="-599" rx="27" ry="18"/>
<text text-anchor="middle" x="94.6201" y="-595.3" font-family="Times,serif" font-size="14.00" fill="#000000">I</text>
</g>
<!-- hi_reta -->
<g id="node28" class="node">
<title>hi_reta</title>
<ellipse fill="none" stroke="#000000" cx="123.6201" cy="-251" rx="27" ry="18"/>
<text text-anchor="middle" x="123.6201" y="-247.3" font-family="Times,serif" font-size="14.00" fill="#000000">I</text>
</g>
<!-- hi_retpa&#45;&gt;hi_reta -->
<g id="edge36" class="edge">
<title>hi_retpa&#45;&gt;hi_reta</title>
<path fill="none" stroke="#ff0000" d="M127.3388,-493.647C126.6517,-448.8139 124.8839,-333.4607 124.0577,-279.5557"/>
<polygon fill="#ff0000" stroke="#ff0000" points="127.554,-279.2779 123.9011,-269.3327 120.5548,-279.3852 127.554,-279.2779"/>
<text text-anchor="middle" x="131.6201" y="-377.8" font-family="Times,serif" font-size="14.00" fill="#000000">2</text>
</g>
<!-- h_dia -->
<g id="node29" class="node">
<title>h_dia</title>
<ellipse fill="none" stroke="#000000" cx="178.6201" cy="-425" rx="27" ry="18"/>
<text text-anchor="middle" x="178.6201" y="-421.3" font-family="Times,serif" font-size="14.00" fill="#000000">!d</text>
</g>
<!-- hi_retpa&#45;&gt;h_dia -->
<g id="edge37" class="edge">
<title>hi_retpa&#45;&gt;h_dia</title>
<path fill="none" stroke="#0000ff" d="M137.4534,-495.2255C145.0945,-482.1907 155.7999,-463.9286 164.3783,-449.2948"/>
<ellipse fill="none" stroke="#0000ff" cx="166.6201" cy="-445.4706" rx="4" ry="4"/>
<text text-anchor="middle" x="161.6201" y="-464.8" font-family="Times,serif" font-size="14.00" fill="#000000">1</text>
</g>
<!-- h_dib1 -->
<g id="node9" class="node">
<title>h_dib1</title>
<ellipse fill="none" stroke="#000000" cx="151.6201" cy="-860" rx="27" ry="18"/>
<text text-anchor="middle" x="151.6201" y="-856.3" font-family="Times,serif" font-size="14.00" fill="#000000">!d</text>
</g>
<!-- hb1 -->
<g id="node10" class="node">
<title>hb1</title>
<ellipse fill="none" stroke="#000000" cx="157.6201" cy="-773" rx="27" ry="18"/>
<text text-anchor="middle" x="157.6201" y="-769.3" font-family="Times,serif" font-size="14.00" fill="#000000">PiL</text>
</g>
<!-- h_dib1&#45;&gt;hb1 -->
<g id="edge6" class="edge">
<title>h_dib1&#45;&gt;hb1</title>
<path fill="none" stroke="#0000ff" d="M152.8633,-841.9735C153.6758,-830.1918 154.7538,-814.5607 155.6782,-801.1581"/>
<polygon fill="#0000ff" stroke="#0000ff" points="159.1821,-801.2205 156.3785,-791.0034 152.1987,-800.7388 159.1821,-801.2205"/>
<text text-anchor="middle" x="160.6201" y="-812.8" font-family="Times,serif" font-size="14.00" fill="#000000">2</text>
</g>
<!-- i2a -->
<g id="node13" class="node">
<title>i2a</title>
<ellipse fill="none" stroke="#000000" cx="236.6201" cy="-686" rx="27" ry="18"/>
<text text-anchor="middle" x="236.6201" y="-682.3" font-family="Times,serif" font-size="14.00" fill="#000000">!p</text>
</g>
<!-- hb1&#45;&gt;i2a -->
<g id="edge8" class="edge">
<title>hb1&#45;&gt;i2a</title>
<path fill="none" stroke="#ff0000" d="M174.4992,-758.4968C181.5792,-752.1434 189.7464,-744.4492 196.6201,-737 204.1747,-728.8129 211.8684,-719.3308 218.4637,-710.7798"/>
<polygon fill="#ff0000" stroke="#ff0000" points="221.396,-712.7053 224.6471,-702.6216 215.8174,-708.477 221.396,-712.7053"/>
<text text-anchor="middle" x="214.6201" y="-725.8" font-family="Times,serif" font-size="14.00" fill="#000000">2</text>
</g>
<!-- x2i_o2a -->
<g id="node14" class="node">
<title>x2i_o2a</title>
<ellipse fill="none" stroke="#000000" cx="157.6201" cy="-686" rx="27" ry="18"/>
<text text-anchor="middle" x="157.6201" y="-682.3" font-family="Times,serif" font-size="14.00" fill="#000000">PiL</text>
</g>
<!-- hb1&#45;&gt;x2i_o2a -->
<g id="edge9" class="edge">
<title>hb1&#45;&gt;x2i_o2a</title>
<path fill="none" stroke="#0000ff" d="M157.6201,-754.9735C157.6201,-743.1918 157.6201,-727.5607 157.6201,-714.1581"/>
<polygon fill="#0000ff" stroke="#0000ff" points="161.1202,-714.0033 157.6201,-704.0034 154.1202,-714.0034 161.1202,-714.0033"/>
<text text-anchor="middle" x="175.1201" y="-725.8" font-family="Times,serif" font-size="14.00" fill="#000000">2&#45;&gt;1</text>
</g>
<!-- hb2 -->
<g id="node12" class="node">
<title>hb2</title>
<ellipse fill="none" stroke="#000000" cx="269.6201" cy="-1121" rx="27" ry="18"/>
<text text-anchor="middle" x="269.6201" y="-1117.3" font-family="Times,serif" font-size="14.00" fill="#000000">PiL</text>
</g>
<!-- h_dib2&#45;&gt;hb2 -->
<g id="edge7" class="edge">
<title>h_dib2&#45;&gt;hb2</title>
<path fill="none" stroke="#0000ff" d="M269.6201,-1189.9735C269.6201,-1178.1918 269.6201,-1162.5607 269.6201,-1149.1581"/>
<polygon fill="#0000ff" stroke="#0000ff" points="273.1202,-1149.0033 269.6201,-1139.0034 266.1202,-1149.0034 273.1202,-1149.0033"/>
<text text-anchor="middle" x="274.6201" y="-1160.8" font-family="Times,serif" font-size="14.00" fill="#000000">2</text>
</g>
<!-- i2b -->
<g id="node15" class="node">
<title>i2b</title>
<ellipse fill="none" stroke="#000000" cx="244.6201" cy="-1034" rx="27" ry="18"/>
<text text-anchor="middle" x="244.6201" y="-1030.3" font-family="Times,serif" font-size="14.00" fill="#000000">!p</text>
</g>
<!-- hb2&#45;&gt;i2b -->
<g id="edge10" class="edge">
<title>hb2&#45;&gt;i2b</title>
<path fill="none" stroke="#ff0000" d="M260.2849,-1103.8228C257.449,-1097.9902 254.5708,-1091.3421 252.6201,-1085 250.3995,-1077.7801 248.7739,-1069.7864 247.5923,-1062.3108"/>
<polygon fill="#ff0000" stroke="#ff0000" points="251.0345,-1061.6508 246.2017,-1052.2225 244.1001,-1062.6068 251.0345,-1061.6508"/>
<text text-anchor="middle" x="257.6201" y="-1073.8" font-family="Times,serif" font-size="14.00" fill="#000000">2</text>
</g>
<!-- x2i_o2b -->
<g id="node16" class="node">
<title>x2i_o2b</title>
<ellipse fill="none" stroke="#000000" cx="316.6201" cy="-1034" rx="27" ry="18"/>
<text text-anchor="middle" x="316.6201" y="-1030.3" font-family="Times,serif" font-size="14.00" fill="#000000">PiL</text>
</g>
<!-- hb2&#45;&gt;x2i_o2b -->
<g id="edge11" class="edge">
<title>hb2&#45;&gt;x2i_o2b</title>
<path fill="none" stroke="#0000ff" d="M278.9058,-1103.8116C285.665,-1091.3 294.9371,-1074.1366 302.5962,-1059.9592"/>
<polygon fill="#0000ff" stroke="#0000ff" points="305.68,-1061.6145 307.3537,-1051.1527 299.5212,-1058.2873 305.68,-1061.6145"/>
<text text-anchor="middle" x="313.1201" y="-1073.8" font-family="Times,serif" font-size="14.00" fill="#000000">2&#45;&gt;1</text>
</g>
<!-- i_i2a -->
<g id="node17" class="node">
<title>i_i2a</title>
<ellipse fill="none" stroke="#000000" cx="244.6201" cy="-599" rx="27" ry="18"/>
<text text-anchor="middle" x="244.6201" y="-595.3" font-family="Times,serif" font-size="14.00" fill="#000000">PiR</text>
</g>
<!-- i2a&#45;&gt;i_i2a -->
<g id="edge12" class="edge">
<title>i2a&#45;&gt;i_i2a</title>
<path fill="none" stroke="#ff0000" d="M238.2777,-667.9735C239.3611,-656.1918 240.7984,-640.5607 242.0309,-627.1581"/>
<polygon fill="#ff0000" stroke="#ff0000" points="245.5341,-627.2819 242.9646,-617.0034 238.5636,-626.6408 245.5341,-627.2819"/>
<text text-anchor="middle" x="246.6201" y="-638.8" font-family="Times,serif" font-size="14.00" fill="#000000">3</text>
</g>
<!-- x2i_o2a&#45;&gt;d2ba -->
<g id="edge21" class="edge">
<title>x2i_o2a&#45;&gt;d2ba</title>
<path fill="none" stroke="#ff0000" d="M160.1065,-667.9735C161.812,-655.6085 164.1024,-639.0036 166.0084,-625.1847"/>
<ellipse fill="none" stroke="#ff0000" cx="166.5903" cy="-620.9658" rx="4" ry="4"/>
</g>
<!-- x2i_o2a&#45;&gt;f_ret2 -->
<g id="edge22" class="edge">
<title>x2i_o2a&#45;&gt;f_ret2</title>
<path fill="none" stroke="#0000ff" d="M145.7703,-669.636C136.3548,-656.6336 123.0394,-638.2457 112.3545,-623.4904"/>
<polygon fill="#0000ff" stroke="#0000ff" points="115.1167,-621.3373 106.4168,-615.2907 109.4471,-625.4429 115.1167,-621.3373"/>
</g>
<!-- i_i2b -->
<g id="node20" class="node">
<title>i_i2b</title>
<ellipse fill="none" stroke="#000000" cx="244.6201" cy="-947" rx="27" ry="18"/>
<text text-anchor="middle" x="244.6201" y="-943.3" font-family="Times,serif" font-size="14.00" fill="#000000">PiR</text>
</g>
<!-- i2b&#45;&gt;i_i2b -->
<g id="edge16" class="edge">
<title>i2b&#45;&gt;i_i2b</title>
<path fill="none" stroke="#ff0000" d="M244.6201,-1015.9735C244.6201,-1004.1918 244.6201,-988.5607 244.6201,-975.1581"/>
<polygon fill="#ff0000" stroke="#ff0000" points="248.1202,-975.0033 244.6201,-965.0034 241.1202,-975.0034 248.1202,-975.0033"/>
<text text-anchor="middle" x="249.6201" y="-986.8" font-family="Times,serif" font-size="14.00" fill="#000000">3</text>
</g>
<!-- x2i_o2b&#45;&gt;d2ba -->
<g id="edge23" class="edge">
<title>x2i_o2b&#45;&gt;d2ba</title>
<path fill="none" stroke="#ff0000" d="M316.6201,-1015.6694C316.6201,-998.0629 316.6201,-970.7135 316.6201,-947 316.6201,-947 316.6201,-947 316.6201,-686 316.6201,-629.04 261.1042,-639.1329 208.6201,-617 206.7649,-616.2176 204.8672,-615.4001 202.9566,-614.5635"/>
<polygon fill="#ff0000" stroke="#ff0000" points="203.9902,-611.1913 193.4332,-610.2961 201.1277,-617.5793 203.9902,-611.1913"/>
</g>
<!-- x2i_o2b&#45;&gt;f_ret1 -->
<g id="edge24" class="edge">
<title>x2i_o2b&#45;&gt;f_ret1</title>
<path fill="none" stroke="#0000ff" d="M327.2247,-1017.2255C335.29,-1004.4677 346.5209,-986.7024 355.6685,-972.2325"/>
<polygon fill="#0000ff" stroke="#0000ff" points="358.6629,-974.0458 361.0481,-963.723 352.7461,-970.3053 358.6629,-974.0458"/>
</g>
<!-- il2a -->
<g id="node18" class="node">
<title>il2a</title>
<ellipse fill="none" stroke="#000000" cx="205.6201" cy="-512" rx="27" ry="18"/>
<text text-anchor="middle" x="205.6201" y="-508.3" font-family="Times,serif" font-size="14.00" fill="#000000">!d</text>
</g>
<!-- i_i2a&#45;&gt;il2a -->
<g id="edge13" class="edge">
<title>i_i2a&#45;&gt;il2a</title>
<path fill="none" stroke="#0000ff" d="M236.7279,-581.3943C231.2473,-569.1683 223.8433,-552.6517 217.6335,-538.7992"/>
<polygon fill="#0000ff" stroke="#0000ff" points="220.6519,-536.976 213.3675,-529.2827 214.2643,-539.8395 220.6519,-536.976"/>
</g>
<!-- i_ret2a -->
<g id="node19" class="node">
<title>i_ret2a</title>
<ellipse fill="none" stroke="#000000" cx="252.6201" cy="-425" rx="27" ry="18"/>
<text text-anchor="middle" x="252.6201" y="-421.3" font-family="Times,serif" font-size="14.00" fill="#000000">I</text>
</g>
<!-- i_i2a&#45;&gt;i_ret2a -->
<g id="edge14" class="edge">
<title>i_i2a&#45;&gt;i_ret2a</title>
<path fill="none" stroke="#ff0000" d="M245.4611,-580.7078C246.8572,-550.3436 249.6627,-489.3226 251.3168,-453.3464"/>
<polygon fill="#ff0000" stroke="#ff0000" points="254.8273,-453.1973 251.7903,-443.0471 247.8347,-452.8758 254.8273,-453.1973"/>
</g>
<!-- il2a&#45;&gt;i_ret2a -->
<g id="edge15" class="edge">
<title>il2a&#45;&gt;i_ret2a</title>
<path fill="none" stroke="#0000ff" d="M214.9058,-494.8116C221.665,-482.3 230.9371,-465.1366 238.5962,-450.9592"/>
<polygon fill="#0000ff" stroke="#0000ff" points="241.68,-452.6145 243.3537,-442.1527 235.5212,-449.2873 241.68,-452.6145"/>
</g>
<!-- il2b -->
<g id="node21" class="node">
<title>il2b</title>
<ellipse fill="none" stroke="#000000" cx="223.6201" cy="-860" rx="27" ry="18"/>
<text text-anchor="middle" x="223.6201" y="-856.3" font-family="Times,serif" font-size="14.00" fill="#000000">!d</text>
</g>
<!-- i_i2b&#45;&gt;il2b -->
<g id="edge17" class="edge">
<title>i_i2b&#45;&gt;il2b</title>
<path fill="none" stroke="#0000ff" d="M240.2689,-928.9735C237.3969,-917.0751 233.5772,-901.2508 230.3209,-887.7606"/>
<polygon fill="#0000ff" stroke="#0000ff" points="233.7145,-886.9029 227.9657,-878.0034 226.9099,-888.5455 233.7145,-886.9029"/>
</g>
<!-- i_ret2b -->
<g id="node22" class="node">
<title>i_ret2b</title>
<ellipse fill="none" stroke="#000000" cx="252.6201" cy="-773" rx="27" ry="18"/>
<text text-anchor="middle" x="252.6201" y="-769.3" font-family="Times,serif" font-size="14.00" fill="#000000">I</text>
</g>
<!-- i_i2b&#45;&gt;i_ret2b -->
<g id="edge18" class="edge">
<title>i_i2b&#45;&gt;i_ret2b</title>
<path fill="none" stroke="#ff0000" d="M249.5638,-929.3008C253.1612,-915.4628 257.7212,-895.6738 259.6201,-878 262.4083,-852.0488 259.9045,-822.362 257.1469,-801.191"/>
<polygon fill="#ff0000" stroke="#ff0000" points="260.6076,-800.6654 255.7518,-791.2488 253.6755,-801.6382 260.6076,-800.6654"/>
</g>
<!-- il2b&#45;&gt;i_ret2b -->
<g id="edge19" class="edge">
<title>il2b&#45;&gt;i_ret2b</title>
<path fill="none" stroke="#0000ff" d="M229.4887,-842.3943C233.5374,-830.2482 238.9976,-813.8674 243.5964,-800.0711"/>
<polygon fill="#0000ff" stroke="#0000ff" points="246.9183,-801.1732 246.7602,-790.5796 240.2775,-798.9596 246.9183,-801.1732"/>
</g>
<!-- hi_retpc1 -->
<g id="node23" class="node">
<title>hi_retpc1</title>
<ellipse fill="none" stroke="#000000" cx="150.6201" cy="-947" rx="27" ry="18"/>
<text text-anchor="middle" x="150.6201" y="-943.3" font-family="Times,serif" font-size="14.00" fill="#000000">!c</text>
</g>
<!-- hi_retpc1&#45;&gt;d2a -->
<g id="edge25" class="edge">
<title>hi_retpc1&#45;&gt;d2a</title>
<path fill="none" stroke="#0000ff" d="M132.7149,-933.2146C113.8469,-918.6879 83.9791,-895.6923 62.755,-879.3517"/>
<ellipse fill="none" stroke="#0000ff" cx="59.3622" cy="-876.7395" rx="4" ry="4"/>
</g>
<!-- hi_retpc1&#45;&gt;h_dib1 -->
<g id="edge26" class="edge">
<title>hi_retpc1&#45;&gt;h_dib1</title>
<path fill="none" stroke="#0000ff" d="M150.8273,-928.9735C150.9627,-917.1918 151.1424,-901.5607 151.2964,-888.1581"/>
<polygon fill="#0000ff" stroke="#0000ff" points="154.7979,-888.043 151.4132,-878.0034 147.7984,-887.9624 154.7979,-888.043"/>
<text text-anchor="middle" x="156.6201" y="-899.8" font-family="Times,serif" font-size="14.00" fill="#000000">1</text>
</g>
<!-- d5 -->
<g id="node26" class="node">
<title>d5</title>
<ellipse fill="none" stroke="#000000" cx="131.6201" cy="-1121" rx="29.795" ry="18"/>
<text text-anchor="middle" x="131.6201" y="-1117.3" font-family="Times,serif" font-size="14.00" fill="#000000">Dup</text>
</g>
<!-- fpa&#45;&gt;d5 -->
<g id="edge31" class="edge">
<title>fpa&#45;&gt;d5</title>
<path fill="none" stroke="#ff0000" d="M126.8633,-1189.9735C127.6758,-1178.1918 128.7538,-1162.5607 129.6782,-1149.1581"/>
<polygon fill="#ff0000" stroke="#ff0000" points="133.1821,-1149.2205 130.3785,-1139.0034 126.1987,-1148.7388 133.1821,-1149.2205"/>
<text text-anchor="middle" x="134.6201" y="-1160.8" font-family="Times,serif" font-size="14.00" fill="#000000">1</text>
</g>
<!-- fpb&#45;&gt;d5 -->
<g id="edge32" class="edge">
<title>fpb&#45;&gt;d5</title>
<path fill="none" stroke="#ff0000" d="M185.206,-1191.636C175.4046,-1178.7159 161.5691,-1160.4783 150.4119,-1145.771"/>
<polygon fill="#ff0000" stroke="#ff0000" points="153.0353,-1143.438 144.2029,-1137.5865 147.4584,-1147.6688 153.0353,-1143.438"/>
<text text-anchor="middle" x="173.6201" y="-1160.8" font-family="Times,serif" font-size="14.00" fill="#000000">1</text>
</g>
<!-- fa -->
<g id="node27" class="node">
<title>fa</title>
<ellipse fill="none" stroke="#000000" cx="131.6201" cy="-1034" rx="27" ry="18"/>
<text text-anchor="middle" x="131.6201" y="-1030.3" font-family="Times,serif" font-size="14.00" fill="#000000">PiR</text>
</g>
<!-- d5&#45;&gt;fa -->
<g id="edge33" class="edge">
<title>d5&#45;&gt;fa</title>
<path fill="none" stroke="#ff0000" d="M131.6201,-1102.9735C131.6201,-1091.1918 131.6201,-1075.5607 131.6201,-1062.1581"/>
<polygon fill="#ff0000" stroke="#ff0000" points="135.1202,-1062.0033 131.6201,-1052.0034 128.1202,-1062.0034 135.1202,-1062.0033"/>
</g>
<!-- fa&#45;&gt;f_ret2 -->
<g id="edge35" class="edge">
<title>fa&#45;&gt;f_ret2</title>
<path fill="none" stroke="#ff0000" d="M120.2295,-1017.5063C109.6826,-1000.5998 95.6201,-973.1539 95.6201,-947 95.6201,-947 95.6201,-947 95.6201,-686 95.6201,-666.5462 95.367,-644.6471 95.1155,-627.6867"/>
<polygon fill="#ff0000" stroke="#ff0000" points="98.6095,-627.2737 94.9531,-617.3299 91.6104,-627.3835 98.6095,-627.2737"/>
</g>
<!-- fa&#45;&gt;hi_retpc1 -->
<g id="edge34" class="edge">
<title>fa&#45;&gt;hi_retpc1</title>
<path fill="none" stroke="#0000ff" d="M135.5569,-1015.9735C138.1299,-1004.1918 141.5436,-988.5607 144.4706,-975.1581"/>
<polygon fill="#0000ff" stroke="#0000ff" points="147.974,-975.5199 146.6883,-965.0034 141.1352,-974.0263 147.974,-975.5199"/>
</g>
<!-- ha -->
<g id="node30" class="node">
<title>ha</title>
<ellipse fill="none" stroke="#000000" cx="178.6201" cy="-338" rx="27" ry="18"/>
<text text-anchor="middle" x="178.6201" y="-334.3" font-family="Times,serif" font-size="14.00" fill="#000000">PiL</text>
</g>
<!-- h_dia&#45;&gt;ha -->
<g id="edge38" class="edge">
<title>h_dia&#45;&gt;ha</title>
<path fill="none" stroke="#0000ff" d="M178.6201,-406.9735C178.6201,-395.1918 178.6201,-379.5607 178.6201,-366.1581"/>
<polygon fill="#0000ff" stroke="#0000ff" points="182.1202,-366.0033 178.6201,-356.0034 175.1202,-366.0034 182.1202,-366.0033"/>
<text text-anchor="middle" x="183.6201" y="-377.8" font-family="Times,serif" font-size="14.00" fill="#000000">2</text>
</g>
<!-- ha&#45;&gt;hi_reta -->
<g id="edge40" class="edge">
<title>ha&#45;&gt;hi_reta</title>
<path fill="none" stroke="#0000ff" d="M168.0155,-321.2255C159.9502,-308.4677 148.7193,-290.7024 139.5717,-276.2325"/>
<polygon fill="#0000ff" stroke="#0000ff" points="142.4941,-274.3053 134.1921,-267.723 136.5773,-278.0458 142.4941,-274.3053"/>
</g>
<!-- i1 -->
<g id="node31" class="node">
<title>i1</title>
<ellipse fill="none" stroke="#000000" cx="195.6201" cy="-251" rx="27" ry="18"/>
<text text-anchor="middle" x="195.6201" y="-247.3" font-family="Times,serif" font-size="14.00" fill="#000000">!p</text>
</g>
<!-- ha&#45;&gt;i1 -->
<g id="edge39" class="edge">
<title>ha&#45;&gt;i1</title>
<path fill="none" stroke="#ff0000" d="M182.1425,-319.9735C184.4447,-308.1918 187.4991,-292.5607 190.1179,-279.1581"/>
<polygon fill="#ff0000" stroke="#ff0000" points="193.6194,-279.489 192.1022,-269.0034 186.7493,-278.1465 193.6194,-279.489"/>
<text text-anchor="middle" x="193.6201" y="-290.8" font-family="Times,serif" font-size="14.00" fill="#000000">2</text>
</g>
<!-- i_i1 -->
<g id="node32" class="node">
<title>i_i1</title>
<ellipse fill="none" stroke="#000000" cx="195.6201" cy="-164" rx="27" ry="18"/>
<text text-anchor="middle" x="195.6201" y="-160.3" font-family="Times,serif" font-size="14.00" fill="#000000">PiR</text>
</g>
<!-- i1&#45;&gt;i_i1 -->
<g id="edge41" class="edge">
<title>i1&#45;&gt;i_i1</title>
<path fill="none" stroke="#ff0000" d="M195.6201,-232.9735C195.6201,-221.1918 195.6201,-205.5607 195.6201,-192.1581"/>
<polygon fill="#ff0000" stroke="#ff0000" points="199.1202,-192.0033 195.6201,-182.0034 192.1202,-192.0034 199.1202,-192.0033"/>
<text text-anchor="middle" x="200.6201" y="-203.8" font-family="Times,serif" font-size="14.00" fill="#000000">3</text>
</g>
<!-- il1 -->
<g id="node33" class="node">
<title>il1</title>
<ellipse fill="none" stroke="#000000" cx="168.6201" cy="-91" rx="27" ry="18"/>
<text text-anchor="middle" x="168.6201" y="-87.3" font-family="Times,serif" font-size="14.00" fill="#000000">!d</text>
</g>
<!-- i_i1&#45;&gt;il1 -->
<g id="edge42" class="edge">
<title>i_i1&#45;&gt;il1</title>
<path fill="none" stroke="#0000ff" d="M189.0842,-146.3287C185.9335,-137.8103 182.086,-127.4078 178.581,-117.9312"/>
<polygon fill="#0000ff" stroke="#0000ff" points="181.8475,-116.6734 175.0959,-108.5085 175.2822,-119.1017 181.8475,-116.6734"/>
</g>
<!-- i_ret1 -->
<g id="node34" class="node">
<title>i_ret1</title>
<ellipse fill="none" stroke="#000000" cx="209.6201" cy="-18" rx="27" ry="18"/>
<text text-anchor="middle" x="209.6201" y="-14.3" font-family="Times,serif" font-size="14.00" fill="#000000">I</text>
</g>
<!-- i_i1&#45;&gt;i_ret1 -->
<g id="edge43" class="edge">
<title>i_i1&#45;&gt;i_ret1</title>
<path fill="none" stroke="#ff0000" d="M199.1139,-145.7339C201.0284,-135.0619 203.2784,-121.3119 204.6201,-109 206.902,-88.0603 208.1627,-64.2905 208.8473,-46.2965"/>
<polygon fill="#ff0000" stroke="#ff0000" points="212.3494,-46.29 209.1951,-36.1757 205.3536,-46.0495 212.3494,-46.29"/>
</g>
<!-- il1&#45;&gt;i_ret1 -->
<g id="edge44" class="edge">
<title>il1&#45;&gt;i_ret1</title>
<path fill="none" stroke="#0000ff" d="M178.1294,-74.0688C183.1644,-65.1041 189.4553,-53.9033 195.0877,-43.8747"/>
<polygon fill="#0000ff" stroke="#0000ff" points="198.175,-45.5251 200.0204,-35.0922 192.0717,-42.0972 198.175,-45.5251"/>
</g>
</g>
</svg>
