<?xml version="1.0" encoding="UTF-8" standalone="no"?>
<!DOCTYPE svg PUBLIC "-//W3C//DTD SVG 1.1//EN"
 "http://www.w3.org/Graphics/SVG/1.1/DTD/svg11.dtd">
<!-- Generated by graphviz version 2.40.1 (20161225.0304)
 -->
<!-- Title: %3 Pages: 1 -->
<svg width="538pt" height="896pt"
 viewBox="0.00 0.00 538.00 896.00" xmlns="http://www.w3.org/2000/svg" xmlns:xlink="http://www.w3.org/1999/xlink">
<g id="graph0" class="graph" transform="scale(1 1) rotate(0) translate(4 891.9954)">
<title>%3</title>
<polygon fill="#ffffff" stroke="transparent" points="-4,4 -4,-891.9954 534,-891.9954 534,4 -4,4"/>
<!-- Root -->
<g id="node1" class="node">
<title>Root</title>
<ellipse fill="none" stroke="#000000" cx="139" cy="-683.9977" rx="27.8951" ry="18"/>
<text text-anchor="middle" x="139" y="-680.2977" font-family="Times,serif" font-size="14.00" fill="#000000">Root</text>
</g>
<!-- ret -->
<g id="node2" class="node">
<title>ret</title>
<ellipse fill="none" stroke="#000000" cx="118" cy="-599" rx="27" ry="18"/>
<text text-anchor="middle" x="118" y="-595.3" font-family="Times,serif" font-size="14.00" fill="#000000">I</text>
</g>
<!-- Root&#45;&gt;ret -->
<g id="edge1" class="edge">
<title>Root&#45;&gt;ret</title>
<path fill="none" stroke="#ff0000" stroke-width="2" d="M134.5464,-665.9719C131.7344,-654.5901 128.0447,-639.6559 124.8632,-626.7788"/>
<polygon fill="#ff0000" stroke="#ff0000" stroke-width="2" points="128.2436,-625.8684 122.4471,-616.9998 121.4479,-627.5474 128.2436,-625.8684"/>
</g>
<!-- c1a -->
<g id="node3" class="node">
<title>c1a</title>
<ellipse fill="none" stroke="#000000" cx="27" cy="-869.9954" rx="27" ry="18"/>
<text text-anchor="middle" x="27" y="-866.2954" font-family="Times,serif" font-size="14.00" fill="#000000">Cut</text>
</g>
<!-- fp1 -->
<g id="node4" class="node">
<title>fp1</title>
<ellipse fill="none" stroke="#000000" cx="195" cy="-782.9954" rx="27" ry="18"/>
<text text-anchor="middle" x="195" y="-779.2954" font-family="Times,serif" font-size="14.00" fill="#000000">!p</text>
</g>
<!-- c1a&#45;&gt;fp1 -->
<g id="edge2" class="edge">
<title>c1a&#45;&gt;fp1</title>
<path fill="none" stroke="#ff0000" d="M48.6191,-858.7998C78.1051,-843.5302 131.0844,-816.0945 164.5714,-798.7531"/>
<polygon fill="#ff0000" stroke="#ff0000" points="166.1934,-801.8546 173.4638,-794.148 162.9744,-795.6386 166.1934,-801.8546"/>
<text text-anchor="middle" x="124.5" y="-822.7954" font-family="Times,serif" font-size="14.00" fill="#000000">0</text>
</g>
<!-- x1_o1 -->
<g id="node5" class="node">
<title>x1_o1</title>
<ellipse fill="none" stroke="#000000" cx="35" cy="-599" rx="27" ry="18"/>
<text text-anchor="middle" x="35" y="-595.3" font-family="Times,serif" font-size="14.00" fill="#000000">I</text>
</g>
<!-- c1a&#45;&gt;x1_o1 -->
<g id="edge3" class="edge">
<title>c1a&#45;&gt;x1_o1</title>
<path fill="none" stroke="#0000ff" d="M26.7816,-851.7745C26.4397,-814.5742 26.1691,-727.2179 30,-654 30.4509,-645.3826 31.2027,-636.0265 31.9882,-627.5162"/>
<polygon fill="#0000ff" stroke="#0000ff" points="35.4965,-627.6 32.9809,-617.3081 28.5293,-626.9223 35.4965,-627.6"/>
</g>
<!-- d1 -->
<g id="node7" class="node">
<title>d1</title>
<ellipse fill="none" stroke="#000000" cx="215" cy="-683.9977" rx="25.9957" ry="25.9957"/>
<ellipse fill="none" stroke="#000000" cx="215" cy="-683.9977" rx="29.9954" ry="29.9954"/>
<text text-anchor="middle" x="215" y="-680.2977" font-family="Times,serif" font-size="14.00" fill="#000000">Dup</text>
</g>
<!-- fp1&#45;&gt;d1 -->
<g id="edge7" class="edge">
<title>fp1&#45;&gt;d1</title>
<path fill="none" stroke="#ff0000" d="M198.6683,-764.8377C201.1041,-752.7806 204.3914,-736.5089 207.3782,-721.7245"/>
<ellipse fill="none" stroke="#ff0000" cx="208.2072" cy="-717.6211" rx="4" ry="4"/>
<text text-anchor="middle" x="208.5" y="-735.7954" font-family="Times,serif" font-size="14.00" fill="#000000">1</text>
</g>
<!-- c1b -->
<g id="node6" class="node">
<title>c1b</title>
<ellipse fill="none" stroke="#000000" cx="104" cy="-782.9954" rx="27" ry="18"/>
<text text-anchor="middle" x="104" y="-779.2954" font-family="Times,serif" font-size="14.00" fill="#000000">Cut</text>
</g>
<!-- c1b&#45;&gt;d1 -->
<g id="edge4" class="edge">
<title>c1b&#45;&gt;d1</title>
<path fill="none" stroke="#ff0000" stroke-width="2" d="M120.3784,-768.3879C137.2763,-753.3172 164.0185,-729.4667 184.7689,-710.9599"/>
<polygon fill="#ff0000" stroke="#ff0000" stroke-width="2" points="187.2619,-713.4263 192.3953,-704.1581 182.6026,-708.2022 187.2619,-713.4263"/>
<text text-anchor="middle" x="162.5" y="-735.7954" font-family="Times,serif" font-size="14.00" fill="#000000">1</text>
</g>
<!-- x2i_o1 -->
<g id="node8" class="node">
<title>x2i_o1</title>
<ellipse fill="none" stroke="#000000" cx="66" cy="-683.9977" rx="27" ry="18"/>
<text text-anchor="middle" x="66" y="-680.2977" font-family="Times,serif" font-size="14.00" fill="#000000">PiL</text>
</g>
<!-- c1b&#45;&gt;x2i_o1 -->
<g id="edge5" class="edge">
<title>c1b&#45;&gt;x2i_o1</title>
<path fill="none" stroke="#0000ff" stroke-width="2" d="M97.2064,-765.2966C91.4244,-750.2334 83.0271,-728.3568 76.3995,-711.0904"/>
<polygon fill="#0000ff" stroke="#0000ff" stroke-width="2" points="79.586,-709.6249 72.7348,-701.5433 73.0509,-712.1334 79.586,-709.6249"/>
<text text-anchor="middle" x="92.5" y="-735.7954" font-family="Times,serif" font-size="14.00" fill="#000000">0</text>
</g>
<!-- f -->
<g id="node9" class="node">
<title>f</title>
<ellipse fill="none" stroke="#000000" cx="215" cy="-599" rx="27" ry="18"/>
<text text-anchor="middle" x="215" y="-595.3" font-family="Times,serif" font-size="14.00" fill="#000000">PiR</text>
</g>
<!-- d1&#45;&gt;f -->
<g id="edge6" class="edge">
<title>d1&#45;&gt;f</title>
<path fill="none" stroke="#ff0000" d="M215,-653.7914C215,-645.2024 215,-635.8806 215,-627.4027"/>
<polygon fill="#ff0000" stroke="#ff0000" points="218.5001,-627.2341 215,-617.2341 211.5001,-627.2342 218.5001,-627.2341"/>
</g>
<!-- x2i_o1&#45;&gt;ret -->
<g id="edge9" class="edge">
<title>x2i_o1&#45;&gt;ret</title>
<path fill="none" stroke="#0000ff" stroke-width="2" d="M76.2735,-667.2049C83.7518,-654.9812 94.0103,-638.2128 102.4842,-624.3617"/>
<polygon fill="#0000ff" stroke="#0000ff" stroke-width="2" points="105.5147,-626.1148 107.7478,-615.7579 99.5435,-622.4617 105.5147,-626.1148"/>
</g>
<!-- x2i_o1&#45;&gt;x1_o1 -->
<g id="edge8" class="edge">
<title>x2i_o1&#45;&gt;x1_o1</title>
<path fill="none" stroke="#ff0000" d="M59.5768,-666.3861C55.3371,-654.7615 49.6985,-639.3014 44.8917,-626.1217"/>
<polygon fill="#ff0000" stroke="#ff0000" points="48.1296,-624.7844 41.415,-616.589 41.5533,-627.183 48.1296,-624.7844"/>
</g>
<!-- hi_retp -->
<g id="node10" class="node">
<title>hi_retp</title>
<ellipse fill="none" stroke="#000000" cx="279" cy="-512" rx="27" ry="18"/>
<text text-anchor="middle" x="279" y="-508.3" font-family="Times,serif" font-size="14.00" fill="#000000">!p</text>
</g>
<!-- f&#45;&gt;hi_retp -->
<g id="edge10" class="edge">
<title>f&#45;&gt;hi_retp</title>
<path fill="none" stroke="#0000ff" d="M227.0379,-582.636C236.6029,-569.6336 250.1296,-551.2457 260.9841,-536.4904"/>
<polygon fill="#0000ff" stroke="#0000ff" points="263.9097,-538.4199 267.0161,-528.2907 258.271,-534.2719 263.9097,-538.4199"/>
<text text-anchor="middle" x="253.5" y="-551.8" font-family="Times,serif" font-size="14.00" fill="#000000">1</text>
</g>
<!-- f_ret -->
<g id="node11" class="node">
<title>f_ret</title>
<ellipse fill="none" stroke="#000000" cx="207" cy="-512" rx="27" ry="18"/>
<text text-anchor="middle" x="207" y="-508.3" font-family="Times,serif" font-size="14.00" fill="#000000">I</text>
</g>
<!-- f&#45;&gt;f_ret -->
<g id="edge11" class="edge">
<title>f&#45;&gt;f_ret</title>
<path fill="none" stroke="#ff0000" d="M213.3424,-580.9735C212.259,-569.1918 210.8217,-553.5607 209.5892,-540.1581"/>
<polygon fill="#ff0000" stroke="#ff0000" points="213.0565,-539.6408 208.6555,-530.0034 206.086,-540.2819 213.0565,-539.6408"/>
</g>
<!-- hi_ret -->
<g id="node20" class="node">
<title>hi_ret</title>
<ellipse fill="none" stroke="#000000" cx="215" cy="-251" rx="27" ry="18"/>
<text text-anchor="middle" x="215" y="-247.3" font-family="Times,serif" font-size="14.00" fill="#000000">I</text>
</g>
<!-- hi_retp&#45;&gt;hi_ret -->
<g id="edge23" class="edge">
<title>hi_retp&#45;&gt;hi_ret</title>
<path fill="none" stroke="#ff0000" d="M280.0121,-493.9193C281.3583,-459.1435 281.4536,-380.984 260,-320 254.2929,-303.7769 244.0184,-287.5703 234.7266,-274.9442"/>
<polygon fill="#ff0000" stroke="#ff0000" points="237.3711,-272.6404 228.519,-266.8188 231.8087,-276.89 237.3711,-272.6404"/>
<text text-anchor="middle" x="278.5" y="-377.8" font-family="Times,serif" font-size="14.00" fill="#000000">2</text>
</g>
<!-- h_di -->
<g id="node21" class="node">
<title>h_di</title>
<ellipse fill="none" stroke="#000000" cx="224" cy="-425" rx="27" ry="18"/>
<text text-anchor="middle" x="224" y="-421.3" font-family="Times,serif" font-size="14.00" fill="#000000">!d</text>
</g>
<!-- hi_retp&#45;&gt;h_di -->
<g id="edge24" class="edge">
<title>hi_retp&#45;&gt;h_di</title>
<path fill="none" stroke="#0000ff" d="M268.3954,-495.2255C260.3301,-482.4677 249.0992,-464.7024 239.9516,-450.2325"/>
<polygon fill="#0000ff" stroke="#0000ff" points="242.874,-448.3053 234.572,-441.723 236.9572,-452.0458 242.874,-448.3053"/>
<text text-anchor="middle" x="257.5" y="-464.8" font-family="Times,serif" font-size="14.00" fill="#000000">1</text>
</g>
<!-- c2 -->
<g id="node12" class="node">
<title>c2</title>
<ellipse fill="none" stroke="#000000" cx="354" cy="-683.9977" rx="27" ry="18"/>
<text text-anchor="middle" x="354" y="-680.2977" font-family="Times,serif" font-size="14.00" fill="#000000">Cut</text>
</g>
<!-- o2 -->
<g id="node13" class="node">
<title>o2</title>
<ellipse fill="none" stroke="#000000" cx="413" cy="-599" rx="27" ry="18"/>
<text text-anchor="middle" x="413" y="-595.3" font-family="Times,serif" font-size="14.00" fill="#000000">PiR</text>
</g>
<!-- c2&#45;&gt;o2 -->
<g id="edge12" class="edge">
<title>c2&#45;&gt;o2</title>
<path fill="none" stroke="#ff0000" d="M365.3758,-667.6093C374.0277,-655.145 386.0754,-637.7886 395.8883,-623.6517"/>
<polygon fill="#ff0000" stroke="#ff0000" points="398.8321,-625.5488 401.6591,-615.3381 393.0816,-621.5572 398.8321,-625.5488"/>
</g>
<!-- o2l -->
<g id="node14" class="node">
<title>o2l</title>
<ellipse fill="none" stroke="#000000" cx="295" cy="-599" rx="27" ry="18"/>
<text text-anchor="middle" x="295" y="-595.3" font-family="Times,serif" font-size="14.00" fill="#000000">PiL</text>
</g>
<!-- c2&#45;&gt;o2l -->
<g id="edge13" class="edge">
<title>c2&#45;&gt;o2l</title>
<path fill="none" stroke="#0000ff" d="M342.6242,-667.6093C333.9723,-655.145 321.9246,-637.7886 312.1117,-623.6517"/>
<polygon fill="#0000ff" stroke="#0000ff" points="314.9184,-621.5572 306.3409,-615.3381 309.1679,-625.5488 314.9184,-621.5572"/>
</g>
<!-- x_o2 -->
<g id="node15" class="node">
<title>x_o2</title>
<ellipse fill="none" stroke="#000000" cx="413" cy="-512" rx="27" ry="18"/>
<text text-anchor="middle" x="413" y="-508.3" font-family="Times,serif" font-size="14.00" fill="#000000">!c</text>
</g>
<!-- o2&#45;&gt;x_o2 -->
<g id="edge14" class="edge">
<title>o2&#45;&gt;x_o2</title>
<path fill="none" stroke="#0000ff" d="M413,-580.9735C413,-569.1918 413,-553.5607 413,-540.1581"/>
<polygon fill="#0000ff" stroke="#0000ff" points="416.5001,-540.0033 413,-530.0034 409.5001,-540.0034 416.5001,-540.0033"/>
</g>
<!-- ret_o2 -->
<g id="node16" class="node">
<title>ret_o2</title>
<ellipse fill="none" stroke="#000000" cx="503" cy="-251" rx="27" ry="18"/>
<text text-anchor="middle" x="503" y="-247.3" font-family="Times,serif" font-size="14.00" fill="#000000">I</text>
</g>
<!-- o2&#45;&gt;ret_o2 -->
<g id="edge15" class="edge">
<title>o2&#45;&gt;ret_o2</title>
<path fill="none" stroke="#ff0000" d="M435.7108,-589.1195C462.3726,-575.8031 503,-549.3789 503,-512 503,-512 503,-512 503,-338 503,-318.5475 503,-296.6484 503,-279.6877"/>
<polygon fill="#ff0000" stroke="#ff0000" points="506.5001,-279.3305 503,-269.3306 499.5001,-279.3306 506.5001,-279.3305"/>
</g>
<!-- o2l&#45;&gt;hi_retp -->
<g id="edge21" class="edge">
<title>o2l&#45;&gt;hi_retp</title>
<path fill="none" stroke="#ff0000" d="M291.6848,-580.9735C289.518,-569.1918 286.6433,-553.5607 284.1785,-540.1581"/>
<polygon fill="#ff0000" stroke="#ff0000" points="287.5621,-539.2053 282.311,-530.0034 280.6775,-540.4715 287.5621,-539.2053"/>
<text text-anchor="middle" x="290.5" y="-551.8" font-family="Times,serif" font-size="14.00" fill="#000000">1</text>
</g>
<!-- o2l&#45;&gt;f_ret -->
<g id="edge22" class="edge">
<title>o2l&#45;&gt;f_ret</title>
<path fill="none" stroke="#0000ff" d="M281.4242,-583.4279C272.2498,-573.1176 259.7175,-559.439 248,-548 242.8994,-543.0206 237.2549,-537.8581 231.8269,-533.0502"/>
<polygon fill="#0000ff" stroke="#0000ff" points="233.9535,-530.2607 224.1177,-526.3226 229.3509,-535.5349 233.9535,-530.2607"/>
</g>
<!-- x1_o2 -->
<g id="node17" class="node">
<title>x1_o2</title>
<ellipse fill="none" stroke="#000000" cx="431" cy="-251" rx="27" ry="18"/>
<text text-anchor="middle" x="431" y="-247.3" font-family="Times,serif" font-size="14.00" fill="#000000">I</text>
</g>
<!-- x_o2&#45;&gt;x1_o2 -->
<g id="edge16" class="edge">
<title>x_o2&#45;&gt;x1_o2</title>
<path fill="none" stroke="#0000ff" d="M411.2364,-493.892C408.2761,-459.7121 403.4272,-383.4241 412,-320 413.8853,-306.0516 417.8225,-290.9368 421.6265,-278.419"/>
<polygon fill="#0000ff" stroke="#0000ff" points="425.0545,-279.1878 424.7425,-268.5976 418.3822,-277.0709 425.0545,-279.1878"/>
</g>
<!-- x2_o2 -->
<g id="node18" class="node">
<title>x2_o2</title>
<ellipse fill="none" stroke="#000000" cx="448" cy="-425" rx="27" ry="18"/>
<text text-anchor="middle" x="448" y="-421.3" font-family="Times,serif" font-size="14.00" fill="#000000">!d</text>
</g>
<!-- x_o2&#45;&gt;x2_o2 -->
<g id="edge17" class="edge">
<title>x_o2&#45;&gt;x2_o2</title>
<path fill="none" stroke="#0000ff" d="M420.0828,-494.3943C424.9691,-482.2482 431.5591,-465.8674 437.1093,-452.0711"/>
<polygon fill="#0000ff" stroke="#0000ff" points="440.4425,-453.1633 440.9278,-442.5796 433.9483,-450.5506 440.4425,-453.1633"/>
</g>
<!-- x2i_o2 -->
<g id="node19" class="node">
<title>x2i_o2</title>
<ellipse fill="none" stroke="#000000" cx="448" cy="-338" rx="27" ry="18"/>
<text text-anchor="middle" x="448" y="-334.3" font-family="Times,serif" font-size="14.00" fill="#000000">PiL</text>
</g>
<!-- x2_o2&#45;&gt;x2i_o2 -->
<g id="edge18" class="edge">
<title>x2_o2&#45;&gt;x2i_o2</title>
<path fill="none" stroke="#0000ff" d="M448,-406.9735C448,-395.1918 448,-379.5607 448,-366.1581"/>
<polygon fill="#0000ff" stroke="#0000ff" points="451.5001,-366.0033 448,-356.0034 444.5001,-366.0034 451.5001,-366.0033"/>
</g>
<!-- x2i_o2&#45;&gt;ret_o2 -->
<g id="edge20" class="edge">
<title>x2i_o2&#45;&gt;ret_o2</title>
<path fill="none" stroke="#0000ff" d="M458.6046,-321.2255C466.6699,-308.4677 477.9008,-290.7024 487.0484,-276.2325"/>
<polygon fill="#0000ff" stroke="#0000ff" points="490.0428,-278.0458 492.428,-267.723 484.126,-274.3053 490.0428,-278.0458"/>
</g>
<!-- x2i_o2&#45;&gt;x1_o2 -->
<g id="edge19" class="edge">
<title>x2i_o2&#45;&gt;x1_o2</title>
<path fill="none" stroke="#ff0000" d="M444.4776,-319.9735C442.1754,-308.1918 439.121,-292.5607 436.5022,-279.1581"/>
<polygon fill="#ff0000" stroke="#ff0000" points="439.8708,-278.1465 434.5179,-269.0034 433.0007,-279.489 439.8708,-278.1465"/>
</g>
<!-- h -->
<g id="node22" class="node">
<title>h</title>
<ellipse fill="none" stroke="#000000" cx="224" cy="-338" rx="27" ry="18"/>
<text text-anchor="middle" x="224" y="-334.3" font-family="Times,serif" font-size="14.00" fill="#000000">PiL</text>
</g>
<!-- h_di&#45;&gt;h -->
<g id="edge25" class="edge">
<title>h_di&#45;&gt;h</title>
<path fill="none" stroke="#0000ff" d="M224,-406.9735C224,-395.1918 224,-379.5607 224,-366.1581"/>
<polygon fill="#0000ff" stroke="#0000ff" points="227.5001,-366.0033 224,-356.0034 220.5001,-366.0034 227.5001,-366.0033"/>
<text text-anchor="middle" x="227.5" y="-377.8" font-family="Times,serif" font-size="14.00" fill="#000000">2</text>
</g>
<!-- h&#45;&gt;hi_ret -->
<g id="edge33" class="edge">
<title>h&#45;&gt;hi_ret</title>
<path fill="none" stroke="#0000ff" d="M222.1352,-319.9735C220.9164,-308.1918 219.2994,-292.5607 217.9129,-279.1581"/>
<polygon fill="#0000ff" stroke="#0000ff" points="221.3729,-278.5901 216.8624,-269.0034 214.4101,-279.3105 221.3729,-278.5901"/>
</g>
<!-- h_app -->
<g id="node25" class="node">
<title>h_app</title>
<ellipse fill="none" stroke="#000000" cx="287" cy="-251" rx="27" ry="18"/>
<text text-anchor="middle" x="287" y="-247.3" font-family="Times,serif" font-size="14.00" fill="#000000">I</text>
</g>
<!-- h&#45;&gt;h_app -->
<g id="edge32" class="edge">
<title>h&#45;&gt;h_app</title>
<path fill="none" stroke="#ff0000" d="M235.8498,-321.636C245.2653,-308.6336 258.5807,-290.2457 269.2656,-275.4904"/>
<polygon fill="#ff0000" stroke="#ff0000" points="272.173,-277.4429 275.2033,-267.2907 266.5034,-273.3373 272.173,-277.4429"/>
</g>
<!-- c3 -->
<g id="node23" class="node">
<title>c3</title>
<ellipse fill="none" stroke="#000000" cx="337" cy="-338" rx="27" ry="18"/>
<text text-anchor="middle" x="337" y="-334.3" font-family="Times,serif" font-size="14.00" fill="#000000">Cut</text>
</g>
<!-- i -->
<g id="node24" class="node">
<title>i</title>
<ellipse fill="none" stroke="#000000" cx="359" cy="-251" rx="27" ry="18"/>
<text text-anchor="middle" x="359" y="-247.3" font-family="Times,serif" font-size="14.00" fill="#000000">!p</text>
</g>
<!-- c3&#45;&gt;i -->
<g id="edge26" class="edge">
<title>c3&#45;&gt;i</title>
<path fill="none" stroke="#ff0000" d="M341.5584,-319.9735C344.5672,-308.0751 348.5688,-292.2508 351.9801,-278.7606"/>
<polygon fill="#ff0000" stroke="#ff0000" points="355.389,-279.5563 354.4474,-269.0034 348.6026,-277.8401 355.389,-279.5563"/>
<text text-anchor="middle" x="352.5" y="-290.8" font-family="Times,serif" font-size="14.00" fill="#000000">2</text>
</g>
<!-- c3&#45;&gt;h_app -->
<g id="edge27" class="edge">
<title>c3&#45;&gt;h_app</title>
<path fill="none" stroke="#0000ff" d="M327.1216,-320.8116C319.8843,-308.2187 309.9388,-290.9135 301.7606,-276.6834"/>
<polygon fill="#0000ff" stroke="#0000ff" points="304.7052,-274.7828 296.6877,-267.8567 298.6361,-278.2708 304.7052,-274.7828"/>
</g>
<!-- i_i -->
<g id="node26" class="node">
<title>i_i</title>
<ellipse fill="none" stroke="#000000" cx="359" cy="-164" rx="27" ry="18"/>
<text text-anchor="middle" x="359" y="-160.3" font-family="Times,serif" font-size="14.00" fill="#000000">PiR</text>
</g>
<!-- i&#45;&gt;i_i -->
<g id="edge28" class="edge">
<title>i&#45;&gt;i_i</title>
<path fill="none" stroke="#ff0000" d="M359,-232.9735C359,-221.1918 359,-205.5607 359,-192.1581"/>
<polygon fill="#ff0000" stroke="#ff0000" points="362.5001,-192.0033 359,-182.0034 355.5001,-192.0034 362.5001,-192.0033"/>
<text text-anchor="middle" x="362.5" y="-203.8" font-family="Times,serif" font-size="14.00" fill="#000000">3</text>
</g>
<!-- il -->
<g id="node27" class="node">
<title>il</title>
<ellipse fill="none" stroke="#000000" cx="402" cy="-91" rx="27" ry="18"/>
<text text-anchor="middle" x="402" y="-87.3" font-family="Times,serif" font-size="14.00" fill="#000000">!d</text>
</g>
<!-- i_i&#45;&gt;il -->
<g id="edge29" class="edge">
<title>i_i&#45;&gt;il</title>
<path fill="none" stroke="#0000ff" d="M368.9731,-147.0688C374.2918,-138.0396 380.9465,-126.742 386.8861,-116.6585"/>
<polygon fill="#0000ff" stroke="#0000ff" points="390.0212,-118.232 392.0809,-107.8393 383.9898,-114.6793 390.0212,-118.232"/>
</g>
<!-- i_ret -->
<g id="node28" class="node">
<title>i_ret</title>
<ellipse fill="none" stroke="#000000" cx="359" cy="-18" rx="27" ry="18"/>
<text text-anchor="middle" x="359" y="-14.3" font-family="Times,serif" font-size="14.00" fill="#000000">I</text>
</g>
<!-- i_i&#45;&gt;i_ret -->
<g id="edge30" class="edge">
<title>i_i&#45;&gt;i_ret</title>
<path fill="none" stroke="#ff0000" d="M359,-145.8042C359,-120.8868 359,-75.8938 359,-46.4877"/>
<polygon fill="#ff0000" stroke="#ff0000" points="362.5001,-46.4251 359,-36.4251 355.5001,-46.4251 362.5001,-46.4251"/>
</g>
<!-- il&#45;&gt;i_ret -->
<g id="edge31" class="edge">
<title>il&#45;&gt;i_ret</title>
<path fill="none" stroke="#0000ff" d="M392.0269,-74.0688C386.7082,-65.0396 380.0535,-53.742 374.1139,-43.6585"/>
<polygon fill="#0000ff" stroke="#0000ff" points="377.0102,-41.6793 368.9191,-34.8393 370.9788,-45.232 377.0102,-41.6793"/>
</g>
</g>
</svg>
