<?xml version="1.0" encoding="UTF-8" standalone="no"?>
<!DOCTYPE svg PUBLIC "-//W3C//DTD SVG 1.1//EN"
 "http://www.w3.org/Graphics/SVG/1.1/DTD/svg11.dtd">
<!-- Generated by graphviz version 2.40.1 (20161225.0304)
 -->
<!-- Title: %3 Pages: 1 -->
<svg width="692pt" height="1078pt"
 viewBox="0.00 0.00 692.00 1078.00" xmlns="http://www.w3.org/2000/svg" xmlns:xlink="http://www.w3.org/1999/xlink">
<g id="graph0" class="graph" transform="scale(1 1) rotate(0) translate(4 1073.9954)">
<title>%3</title>
<polygon fill="#ffffff" stroke="transparent" points="-4,4 -4,-1073.9954 688,-1073.9954 688,4 -4,4"/>
<!-- Root -->
<g id="node1" class="node">
<title>Root</title>
<ellipse fill="none" stroke="#000000" cx="521" cy="-877.9954" rx="27.8951" ry="18"/>
<text text-anchor="middle" x="521" y="-874.2954" font-family="Times,serif" font-size="14.00" fill="#000000">Root</text>
</g>
<!-- d1 -->
<g id="node2" class="node">
<title>d1</title>
<ellipse fill="none" stroke="#000000" cx="513" cy="-790.9954" rx="27" ry="18"/>
<text text-anchor="middle" x="513" y="-787.2954" font-family="Times,serif" font-size="14.00" fill="#000000">Dup</text>
</g>
<!-- Root&#45;&gt;d1 -->
<g id="edge1" class="edge">
<title>Root&#45;&gt;d1</title>
<path fill="none" stroke="#ff0000" stroke-width="2" d="M519.3424,-859.9689C518.259,-848.1872 516.8217,-832.556 515.5892,-819.1535"/>
<polygon fill="#ff0000" stroke="#ff0000" stroke-width="2" points="519.0565,-818.6362 514.6555,-808.9987 512.086,-819.2773 519.0565,-818.6362"/>
<text text-anchor="middle" x="530.5" y="-830.7954" font-family="Times,serif" font-size="14.00" fill="#000000">0&#45;&gt;1</text>
</g>
<!-- f_ret -->
<g id="node6" class="node">
<title>f_ret</title>
<ellipse fill="none" stroke="#000000" cx="515" cy="-342" rx="18" ry="18"/>
<ellipse fill="none" stroke="#000000" cx="515" cy="-342" rx="22" ry="22"/>
<text text-anchor="middle" x="515" y="-338.3" font-family="Times,serif" font-size="14.00" fill="#000000">I</text>
</g>
<!-- d1&#45;&gt;f_ret -->
<g id="edge4" class="edge">
<title>d1&#45;&gt;f_ret</title>
<path fill="none" stroke="#ff0000" stroke-width="2" d="M522.9792,-773.97C532.0415,-756.8765 544,-729.49 544,-703.9954 544,-703.9954 544,-703.9954 544,-430.9977 544,-410.2135 536.7615,-387.9828 529.5173,-370.9389"/>
<polygon fill="#ff0000" stroke="#ff0000" stroke-width="2" points="532.593,-369.244 525.306,-361.5532 526.2064,-372.1097 532.593,-369.244"/>
</g>
<!-- d2a -->
<g id="node9" class="node">
<title>d2a</title>
<ellipse fill="none" stroke="#000000" cx="142" cy="-703.9954" rx="27" ry="18"/>
<text text-anchor="middle" x="142" y="-700.2954" font-family="Times,serif" font-size="14.00" fill="#000000">Dup</text>
</g>
<!-- d1&#45;&gt;d2a -->
<g id="edge21" class="edge">
<title>d1&#45;&gt;d2a</title>
<path fill="none" stroke="#000000" stroke-dasharray="5,2" d="M488.4534,-783.3226C476.1206,-779.7188 460.8832,-775.6432 447,-772.9954 375.8395,-759.4238 355.9276,-769.7358 285,-754.9954 260.6376,-749.9323 201.0949,-731.2574 178,-721.9954 173.2007,-720.0707 168.1679,-717.7546 163.4376,-715.4344"/>
</g>
<!-- d2b -->
<g id="node12" class="node">
<title>d2b</title>
<ellipse fill="none" stroke="#000000" cx="417" cy="-529.9954" rx="27" ry="18"/>
<text text-anchor="middle" x="417" y="-526.2954" font-family="Times,serif" font-size="14.00" fill="#000000">Dup</text>
</g>
<!-- d1&#45;&gt;d2b -->
<g id="edge22" class="edge">
<title>d1&#45;&gt;d2b</title>
<path fill="none" stroke="#000000" stroke-dasharray="5,2" d="M488.4077,-783.5502C476.0637,-780.0023 460.83,-775.9081 447,-772.9954 394.2276,-761.8813 375.7984,-777.9553 327,-754.9954 285.4202,-735.4319 291.2352,-706.275 250,-685.9954 210.6538,-666.6448 181.0338,-701.71 153,-667.9954 118.1156,-626.0421 320.0808,-559.4977 392.1621,-537.3996"/>
</g>
<!-- d2c -->
<g id="node14" class="node">
<title>d2c</title>
<ellipse fill="none" stroke="#000000" cx="314" cy="-430.9977" rx="27" ry="18"/>
<text text-anchor="middle" x="314" y="-427.2977" font-family="Times,serif" font-size="14.00" fill="#000000">Dup</text>
</g>
<!-- d1&#45;&gt;d2c -->
<g id="edge23" class="edge">
<title>d1&#45;&gt;d2c</title>
<path fill="none" stroke="#000000" stroke-dasharray="5,2" d="M487.881,-784.1351C450.0045,-773.7848 382.5862,-755.3363 382,-754.9954 364.0703,-744.5672 358.0696,-740.6492 349,-721.9954 303.1655,-627.7251 308.4326,-496.7437 312.2385,-449.1752"/>
</g>
<!-- d2d -->
<g id="node15" class="node">
<title>d2d</title>
<ellipse fill="none" stroke="#000000" cx="486" cy="-430.9977" rx="25.9957" ry="25.9957"/>
<ellipse fill="none" stroke="#000000" cx="486" cy="-430.9977" rx="29.9954" ry="29.9954"/>
<text text-anchor="middle" x="486" y="-427.2977" font-family="Times,serif" font-size="14.00" fill="#000000">Dup</text>
</g>
<!-- d1&#45;&gt;d2d -->
<g id="edge24" class="edge">
<title>d1&#45;&gt;d2d</title>
<path fill="none" stroke="#000000" stroke-dasharray="5,2" d="M487.9628,-783.9734C461.155,-776.1964 420.632,-763.6199 407,-754.9954 337.4958,-711.0226 352.8823,-662.7606 344,-580.9954 336.7774,-514.5085 415.4427,-465.286 458.6879,-443.4601"/>
</g>
<!-- c1a -->
<g id="node3" class="node">
<title>c1a</title>
<ellipse fill="none" stroke="#000000" cx="602" cy="-1051.9954" rx="27" ry="18"/>
<text text-anchor="middle" x="602" y="-1048.2954" font-family="Times,serif" font-size="14.00" fill="#000000">Cut</text>
</g>
<!-- fp1 -->
<g id="node4" class="node">
<title>fp1</title>
<ellipse fill="none" stroke="#000000" cx="561" cy="-964.9954" rx="27" ry="18"/>
<text text-anchor="middle" x="561" y="-961.2954" font-family="Times,serif" font-size="14.00" fill="#000000">!p</text>
</g>
<!-- c1a&#45;&gt;fp1 -->
<g id="edge2" class="edge">
<title>c1a&#45;&gt;fp1</title>
<path fill="none" stroke="#ff0000" d="M593.8997,-1034.807C588.0975,-1022.495 580.1725,-1005.6785 573.5545,-991.6354"/>
<polygon fill="#ff0000" stroke="#ff0000" points="576.6529,-989.9996 569.2238,-982.4459 570.3208,-992.9838 576.6529,-989.9996"/>
<text text-anchor="middle" x="586.5" y="-1004.7954" font-family="Times,serif" font-size="14.00" fill="#000000">0</text>
</g>
<!-- x1_o1 -->
<g id="node5" class="node">
<title>x1_o1</title>
<ellipse fill="none" stroke="#000000" cx="657" cy="-790.9954" rx="27" ry="18"/>
<text text-anchor="middle" x="657" y="-787.2954" font-family="Times,serif" font-size="14.00" fill="#000000">I</text>
</g>
<!-- c1a&#45;&gt;x1_o1 -->
<g id="edge3" class="edge">
<title>c1a&#45;&gt;x1_o1</title>
<path fill="none" stroke="#0000ff" d="M605.7804,-1034.0558C615.2,-989.3552 639.7718,-872.7512 651.1103,-818.9446"/>
<polygon fill="#0000ff" stroke="#0000ff" points="654.5559,-819.5673 653.1932,-809.0605 647.7063,-818.1239 654.5559,-819.5673"/>
</g>
<!-- f2 -->
<g id="node23" class="node">
<title>f2</title>
<ellipse fill="none" stroke="#000000" cx="448" cy="-877.9954" rx="27" ry="18"/>
<text text-anchor="middle" x="448" y="-874.2954" font-family="Times,serif" font-size="14.00" fill="#000000">PiR</text>
</g>
<!-- fp1&#45;&gt;f2 -->
<g id="edge31" class="edge">
<title>fp1&#45;&gt;f2</title>
<path fill="none" stroke="#ff0000" d="M543.0948,-951.21C524.4154,-936.8285 494.9551,-914.1467 473.7741,-897.8392"/>
<polygon fill="#ff0000" stroke="#ff0000" points="475.8803,-895.0436 465.8214,-891.7163 471.6099,-900.5901 475.8803,-895.0436"/>
<text text-anchor="middle" x="514.5" y="-917.7954" font-family="Times,serif" font-size="14.00" fill="#000000">1</text>
</g>
<!-- c1bb -->
<g id="node7" class="node">
<title>c1bb</title>
<ellipse fill="none" stroke="#000000" cx="598" cy="-877.9954" rx="27" ry="18"/>
<text text-anchor="middle" x="598" y="-874.2954" font-family="Times,serif" font-size="14.00" fill="#000000">Cut</text>
</g>
<!-- c1bb&#45;&gt;x1_o1 -->
<g id="edge5" class="edge">
<title>c1bb&#45;&gt;x1_o1</title>
<path fill="none" stroke="#ff0000" d="M609.3758,-861.2209C618.0831,-848.3813 630.23,-830.4698 640.0768,-815.95"/>
<polygon fill="#ff0000" stroke="#ff0000" points="643.1432,-817.6641 645.8592,-807.4233 637.3498,-813.7352 643.1432,-817.6641"/>
<text text-anchor="middle" x="634.5" y="-830.7954" font-family="Times,serif" font-size="14.00" fill="#000000">0</text>
</g>
<!-- xdicf -->
<g id="node8" class="node">
<title>xdicf</title>
<ellipse fill="none" stroke="#000000" cx="585" cy="-790.9954" rx="27" ry="18"/>
<text text-anchor="middle" x="585" y="-787.2954" font-family="Times,serif" font-size="14.00" fill="#000000">!c</text>
</g>
<!-- c1bb&#45;&gt;xdicf -->
<g id="edge6" class="edge">
<title>c1bb&#45;&gt;xdicf</title>
<path fill="none" stroke="#0000ff" d="M595.3064,-859.9689C593.5459,-848.1872 591.2102,-832.556 589.2075,-819.1535"/>
<polygon fill="#0000ff" stroke="#0000ff" points="592.6297,-818.3717 587.6902,-808.9987 585.7065,-819.4062 592.6297,-818.3717"/>
<text text-anchor="middle" x="595.5" y="-830.7954" font-family="Times,serif" font-size="14.00" fill="#000000">1</text>
</g>
<!-- xdicf&#45;&gt;d2a -->
<g id="edge7" class="edge">
<title>xdicf&#45;&gt;d2a</title>
<path fill="none" stroke="#0000ff" d="M564.0092,-779.5796C559.165,-777.2052 553.9722,-774.8609 549,-772.9954 494.3977,-752.5094 479.537,-749.5128 422,-739.9954 314.7187,-722.2496 282.8389,-750.8572 178,-721.9954 175.8652,-721.4077 173.7073,-720.6897 171.5648,-719.8826"/>
<polygon fill="#0000ff" stroke="#0000ff" points="172.9557,-716.671 162.3888,-715.9024 170.1701,-723.0928 172.9557,-716.671"/>
</g>
<!-- h_di2f -->
<g id="node10" class="node">
<title>h_di2f</title>
<ellipse fill="none" stroke="#000000" cx="489" cy="-703.9954" rx="27" ry="18"/>
<text text-anchor="middle" x="489" y="-700.2954" font-family="Times,serif" font-size="14.00" fill="#000000">!d</text>
</g>
<!-- xdicf&#45;&gt;h_di2f -->
<g id="edge8" class="edge">
<title>xdicf&#45;&gt;h_di2f</title>
<path fill="none" stroke="#0000ff" d="M587.6179,-772.805C588.1422,-762.2384 586.9616,-749.2312 580,-739.9954 567.1704,-722.9746 545.0614,-713.9906 525.8489,-709.2539"/>
<polygon fill="#0000ff" stroke="#0000ff" points="526.3553,-705.7826 515.8414,-707.0897 524.8756,-712.6244 526.3553,-705.7826"/>
<text text-anchor="middle" x="589.5" y="-743.7954" font-family="Times,serif" font-size="14.00" fill="#000000">1</text>
</g>
<!-- hi_retpa -->
<g id="node20" class="node">
<title>hi_retpa</title>
<ellipse fill="none" stroke="#000000" cx="110" cy="-616.9954" rx="27" ry="18"/>
<text text-anchor="middle" x="110" y="-613.2954" font-family="Times,serif" font-size="14.00" fill="#000000">!p</text>
</g>
<!-- d2a&#45;&gt;hi_retpa -->
<g id="edge25" class="edge">
<title>d2a&#45;&gt;hi_retpa</title>
<path fill="none" stroke="#0000ff" d="M119.0135,-694.3384C108.1203,-688.4499 96.1661,-679.7638 90,-667.9954 85.6564,-659.7053 87.6074,-650.2527 91.6556,-641.7563"/>
<polygon fill="#0000ff" stroke="#0000ff" points="94.7316,-643.4279 96.6727,-633.0124 88.6601,-639.9441 94.7316,-643.4279"/>
<text text-anchor="middle" x="93.5" y="-656.7954" font-family="Times,serif" font-size="14.00" fill="#000000">1</text>
</g>
<!-- hbf -->
<g id="node11" class="node">
<title>hbf</title>
<ellipse fill="none" stroke="#000000" cx="489" cy="-616.9954" rx="27" ry="18"/>
<text text-anchor="middle" x="489" y="-613.2954" font-family="Times,serif" font-size="14.00" fill="#000000">PiL</text>
</g>
<!-- h_di2f&#45;&gt;hbf -->
<g id="edge9" class="edge">
<title>h_di2f&#45;&gt;hbf</title>
<path fill="none" stroke="#0000ff" d="M489,-685.9689C489,-674.1872 489,-658.556 489,-645.1535"/>
<polygon fill="#0000ff" stroke="#0000ff" points="492.5001,-644.9987 489,-634.9987 485.5001,-644.9988 492.5001,-644.9987"/>
<text text-anchor="middle" x="492.5" y="-656.7954" font-family="Times,serif" font-size="14.00" fill="#000000">2</text>
</g>
<!-- hbf&#45;&gt;d2b -->
<g id="edge10" class="edge">
<title>hbf&#45;&gt;d2b</title>
<path fill="none" stroke="#ff0000" d="M475.7941,-601.0382C464.8328,-587.7934 449.0821,-568.7613 436.6416,-553.729"/>
<polygon fill="#ff0000" stroke="#ff0000" points="439.1943,-551.3238 430.1222,-545.8514 433.8015,-555.7868 439.1943,-551.3238"/>
</g>
<!-- x2i_o2f -->
<g id="node13" class="node">
<title>x2i_o2f</title>
<ellipse fill="none" stroke="#000000" cx="489" cy="-529.9954" rx="27" ry="18"/>
<text text-anchor="middle" x="489" y="-526.2954" font-family="Times,serif" font-size="14.00" fill="#000000">PiL</text>
</g>
<!-- hbf&#45;&gt;x2i_o2f -->
<g id="edge11" class="edge">
<title>hbf&#45;&gt;x2i_o2f</title>
<path fill="none" stroke="#0000ff" d="M489,-598.9689C489,-587.1872 489,-571.556 489,-558.1535"/>
<polygon fill="#0000ff" stroke="#0000ff" points="492.5001,-557.9987 489,-547.9987 485.5001,-557.9988 492.5001,-557.9987"/>
<text text-anchor="middle" x="502.5" y="-569.7954" font-family="Times,serif" font-size="14.00" fill="#000000">2&#45;&gt;1</text>
</g>
<!-- d4b -->
<g id="node21" class="node">
<title>d4b</title>
<ellipse fill="none" stroke="#000000" cx="198" cy="-342" rx="27" ry="18"/>
<text text-anchor="middle" x="198" y="-338.3" font-family="Times,serif" font-size="14.00" fill="#000000">Dup</text>
</g>
<!-- d2b&#45;&gt;d4b -->
<g id="edge26" class="edge">
<title>d2b&#45;&gt;d4b</title>
<path fill="none" stroke="#ff0000" d="M412.1502,-512.0311C403.8457,-484.5004 384.3822,-431.8314 350,-401 316.4861,-370.9472 265.9565,-355.4647 232.483,-348.0473"/>
<ellipse fill="none" stroke="#ff0000" cx="228.2746" cy="-347.1583" rx="4" ry="4"/>
</g>
<!-- x2i_o2f&#45;&gt;d2c -->
<g id="edge12" class="edge">
<title>x2i_o2f&#45;&gt;d2c</title>
<path fill="none" stroke="#ff0000" d="M468.238,-518.2503C437.3205,-500.7603 379.0337,-467.7873 343.6394,-447.7647"/>
<polygon fill="#ff0000" stroke="#ff0000" points="345.1622,-444.605 334.735,-442.7275 341.7155,-450.6977 345.1622,-444.605"/>
</g>
<!-- x2i_o2f&#45;&gt;d2d -->
<g id="edge13" class="edge">
<title>x2i_o2f&#45;&gt;d2d</title>
<path fill="none" stroke="#0000ff" d="M488.4498,-511.8377C488.104,-500.4286 487.6439,-485.2458 487.2159,-471.1204"/>
<polygon fill="#0000ff" stroke="#0000ff" points="490.7133,-470.9802 486.9119,-461.0909 483.7165,-471.1923 490.7133,-470.9802"/>
</g>
<!-- x1_o2 -->
<g id="node22" class="node">
<title>x1_o2</title>
<ellipse fill="none" stroke="#000000" cx="341" cy="-342" rx="27" ry="18"/>
<text text-anchor="middle" x="341" y="-338.3" font-family="Times,serif" font-size="14.00" fill="#000000">I</text>
</g>
<!-- d2c&#45;&gt;x1_o2 -->
<g id="edge27" class="edge">
<title>d2c&#45;&gt;x1_o2</title>
<path fill="none" stroke="#ff0000" d="M319.4639,-412.9877C323.2581,-400.481 328.384,-383.5851 332.683,-369.4145"/>
<polygon fill="#ff0000" stroke="#ff0000" points="336.0825,-370.2649 335.6364,-359.6795 329.384,-368.2327 336.0825,-370.2649"/>
</g>
<!-- d2d&#45;&gt;f_ret -->
<g id="edge28" class="edge">
<title>d2d&#45;&gt;f_ret</title>
<path fill="none" stroke="#0000ff" stroke-width="2" d="M495.3354,-402.3484C498.4322,-392.8445 501.8906,-382.2312 505.0332,-372.5871"/>
<polygon fill="#0000ff" stroke="#0000ff" stroke-width="2" points="508.3948,-373.5673 508.1653,-362.975 501.7392,-371.3986 508.3948,-373.5673"/>
</g>
<!-- xdicg -->
<g id="node16" class="node">
<title>xdicg</title>
<ellipse fill="none" stroke="#000000" cx="411" cy="-790.9954" rx="27" ry="18"/>
<text text-anchor="middle" x="411" y="-787.2954" font-family="Times,serif" font-size="14.00" fill="#000000">!c</text>
</g>
<!-- xdicg&#45;&gt;d2a -->
<g id="edge14" class="edge">
<title>xdicg&#45;&gt;d2a</title>
<path fill="none" stroke="#0000ff" d="M384.1417,-788.7616C347.3947,-785.0427 279.8659,-775.8213 226,-754.9954 204.8869,-746.8325 183.0952,-733.4316 166.9996,-722.4149"/>
<ellipse fill="none" stroke="#0000ff" cx="163.3079" cy="-719.8379" rx="4" ry="4"/>
</g>
<!-- h_di2g -->
<g id="node17" class="node">
<title>h_di2g</title>
<ellipse fill="none" stroke="#000000" cx="411" cy="-703.9954" rx="27" ry="18"/>
<text text-anchor="middle" x="411" y="-700.2954" font-family="Times,serif" font-size="14.00" fill="#000000">!d</text>
</g>
<!-- xdicg&#45;&gt;h_di2g -->
<g id="edge15" class="edge">
<title>xdicg&#45;&gt;h_di2g</title>
<path fill="none" stroke="#0000ff" d="M411,-772.9689C411,-761.1872 411,-745.556 411,-732.1535"/>
<polygon fill="#0000ff" stroke="#0000ff" points="414.5001,-731.9987 411,-721.9987 407.5001,-731.9988 414.5001,-731.9987"/>
<text text-anchor="middle" x="414.5" y="-743.7954" font-family="Times,serif" font-size="14.00" fill="#000000">1</text>
</g>
<!-- hbg -->
<g id="node18" class="node">
<title>hbg</title>
<ellipse fill="none" stroke="#000000" cx="411" cy="-616.9954" rx="27" ry="18"/>
<text text-anchor="middle" x="411" y="-613.2954" font-family="Times,serif" font-size="14.00" fill="#000000">PiL</text>
</g>
<!-- h_di2g&#45;&gt;hbg -->
<g id="edge16" class="edge">
<title>h_di2g&#45;&gt;hbg</title>
<path fill="none" stroke="#0000ff" d="M411,-685.9689C411,-674.1872 411,-658.556 411,-645.1535"/>
<polygon fill="#0000ff" stroke="#0000ff" points="414.5001,-644.9987 411,-634.9987 407.5001,-644.9988 414.5001,-644.9987"/>
<text text-anchor="middle" x="414.5" y="-656.7954" font-family="Times,serif" font-size="14.00" fill="#000000">2</text>
</g>
<!-- hbg&#45;&gt;d2b -->
<g id="edge17" class="edge">
<title>hbg&#45;&gt;d2b</title>
<path fill="none" stroke="#ff0000" d="M412.2432,-598.9689C413.096,-586.6039 414.2411,-569.999 415.1942,-556.1801"/>
<ellipse fill="none" stroke="#ff0000" cx="415.4831" cy="-551.9893" rx="4" ry="4"/>
</g>
<!-- x2i_o2g -->
<g id="node19" class="node">
<title>x2i_o2g</title>
<ellipse fill="none" stroke="#000000" cx="269" cy="-529.9954" rx="27" ry="18"/>
<text text-anchor="middle" x="269" y="-526.2954" font-family="Times,serif" font-size="14.00" fill="#000000">PiL</text>
</g>
<!-- hbg&#45;&gt;x2i_o2g -->
<g id="edge18" class="edge">
<title>hbg&#45;&gt;x2i_o2g</title>
<path fill="none" stroke="#0000ff" d="M390.956,-604.7149C366.6414,-589.8179 325.4752,-564.5964 297.7757,-547.6256"/>
<polygon fill="#0000ff" stroke="#0000ff" points="299.2974,-544.4532 288.942,-542.2134 295.6404,-550.422 299.2974,-544.4532"/>
<text text-anchor="middle" x="361.5" y="-569.7954" font-family="Times,serif" font-size="14.00" fill="#000000">2&#45;&gt;1</text>
</g>
<!-- x2i_o2g&#45;&gt;d2c -->
<g id="edge19" class="edge">
<title>x2i_o2g&#45;&gt;d2c</title>
<path fill="none" stroke="#ff0000" d="M272.509,-512.0674C274.8101,-502.0753 278.2754,-489.5556 283,-478.9954 286.846,-470.3989 292.1029,-461.5773 297.1952,-453.8799"/>
<ellipse fill="none" stroke="#ff0000" cx="299.5246" cy="-450.4688" rx="4" ry="4"/>
</g>
<!-- x2i_o2g&#45;&gt;d2d -->
<g id="edge20" class="edge">
<title>x2i_o2g&#45;&gt;d2d</title>
<path fill="none" stroke="#0000ff" d="M291.4055,-519.7738C329.2807,-502.4947 406.2204,-467.394 451.1765,-446.8845"/>
<ellipse fill="none" stroke="#0000ff" cx="455.0047" cy="-445.1381" rx="4" ry="4"/>
</g>
<!-- hi_ret1 -->
<g id="node24" class="node">
<title>hi_ret1</title>
<ellipse fill="none" stroke="#000000" cx="126" cy="-342" rx="27" ry="18"/>
<text text-anchor="middle" x="126" y="-338.3" font-family="Times,serif" font-size="14.00" fill="#000000">I</text>
</g>
<!-- hi_retpa&#45;&gt;hi_ret1 -->
<g id="edge38" class="edge">
<title>hi_retpa&#45;&gt;hi_ret1</title>
<path fill="none" stroke="#ff0000" d="M111.0498,-598.9522C113.7734,-552.1416 121.0816,-426.5343 124.3641,-370.1161"/>
<polygon fill="#ff0000" stroke="#ff0000" points="127.8595,-370.2961 124.9463,-360.1097 120.8713,-369.8894 127.8595,-370.2961"/>
<text text-anchor="middle" x="121.5" y="-482.7954" font-family="Times,serif" font-size="14.00" fill="#000000">2</text>
</g>
<!-- h_di1 -->
<g id="node27" class="node">
<title>h_di1</title>
<ellipse fill="none" stroke="#000000" cx="159" cy="-529.9954" rx="27" ry="18"/>
<text text-anchor="middle" x="159" y="-526.2954" font-family="Times,serif" font-size="14.00" fill="#000000">!d</text>
</g>
<!-- hi_retpa&#45;&gt;h_di1 -->
<g id="edge39" class="edge">
<title>hi_retpa&#45;&gt;h_di1</title>
<path fill="none" stroke="#0000ff" d="M119.6808,-599.807C126.7734,-587.2141 136.52,-569.9089 144.5347,-555.6788"/>
<polygon fill="#0000ff" stroke="#0000ff" points="147.6482,-557.2827 149.506,-546.852 141.549,-553.8475 147.6482,-557.2827"/>
<text text-anchor="middle" x="141.5" y="-569.7954" font-family="Times,serif" font-size="14.00" fill="#000000">1</text>
</g>
<!-- h_app -->
<g id="node25" class="node">
<title>h_app</title>
<ellipse fill="none" stroke="#000000" cx="162" cy="-251" rx="27" ry="18"/>
<text text-anchor="middle" x="162" y="-247.3" font-family="Times,serif" font-size="14.00" fill="#000000">I</text>
</g>
<!-- d4b&#45;&gt;h_app -->
<g id="edge32" class="edge">
<title>d4b&#45;&gt;h_app</title>
<path fill="none" stroke="#ff0000" d="M191.0588,-324.4543C185.8295,-311.2357 178.5671,-292.8779 172.6108,-277.8218"/>
<polygon fill="#ff0000" stroke="#ff0000" points="175.8531,-276.5031 168.9199,-268.4919 169.344,-279.0782 175.8531,-276.5031"/>
</g>
<!-- f2&#45;&gt;d1 -->
<g id="edge29" class="edge">
<title>f2&#45;&gt;d1</title>
<path fill="none" stroke="#ff0000" d="M460.226,-861.6314C470.3036,-848.1429 484.7113,-828.8588 495.9272,-813.8467"/>
<ellipse fill="none" stroke="#ff0000" cx="498.4347" cy="-810.4905" rx="4" ry="4"/>
</g>
<!-- f2&#45;&gt;xdicg -->
<g id="edge30" class="edge">
<title>f2&#45;&gt;xdicg</title>
<path fill="none" stroke="#0000ff" d="M440.5125,-860.3896C435.3469,-848.2436 428.3804,-831.8628 422.513,-818.0665"/>
<polygon fill="#0000ff" stroke="#0000ff" points="425.6109,-816.4075 418.4764,-808.575 419.1692,-819.1471 425.6109,-816.4075"/>
</g>
<!-- ha -->
<g id="node26" class="node">
<title>ha</title>
<ellipse fill="none" stroke="#000000" cx="159" cy="-430.9977" rx="27" ry="18"/>
<text text-anchor="middle" x="159" y="-427.2977" font-family="Times,serif" font-size="14.00" fill="#000000">PiL</text>
</g>
<!-- ha&#45;&gt;d4b -->
<g id="edge33" class="edge">
<title>ha&#45;&gt;d4b</title>
<path fill="none" stroke="#ff0000" d="M166.7051,-413.4146C172.2604,-400.7376 179.8614,-383.3922 186.1812,-368.9704"/>
<polygon fill="#ff0000" stroke="#ff0000" points="189.5028,-370.1105 190.3109,-359.5466 183.0914,-367.3009 189.5028,-370.1105"/>
</g>
<!-- ha&#45;&gt;hi_ret1 -->
<g id="edge34" class="edge">
<title>ha&#45;&gt;hi_ret1</title>
<path fill="none" stroke="#0000ff" d="M152.4803,-413.4146C147.7797,-400.7376 141.3481,-383.3922 136.0005,-368.9704"/>
<polygon fill="#0000ff" stroke="#0000ff" points="139.2646,-367.7059 132.5062,-359.5466 132.7012,-370.1396 139.2646,-367.7059"/>
</g>
<!-- h_di1&#45;&gt;ha -->
<g id="edge35" class="edge">
<title>h_di1&#45;&gt;ha</title>
<path fill="none" stroke="#0000ff" d="M159,-511.8377C159,-497.185 159,-476.3077 159,-459.44"/>
<polygon fill="#0000ff" stroke="#0000ff" points="162.5001,-459.0402 159,-449.0403 155.5001,-459.0403 162.5001,-459.0402"/>
<text text-anchor="middle" x="162.5" y="-482.7954" font-family="Times,serif" font-size="14.00" fill="#000000">2</text>
</g>
<!-- c2a -->
<g id="node28" class="node">
<title>c2a</title>
<ellipse fill="none" stroke="#000000" cx="214" cy="-703.9954" rx="27" ry="18"/>
<text text-anchor="middle" x="214" y="-700.2954" font-family="Times,serif" font-size="14.00" fill="#000000">Cut</text>
</g>
<!-- c2a&#45;&gt;hi_retpa -->
<g id="edge36" class="edge">
<title>c2a&#45;&gt;hi_retpa</title>
<path fill="none" stroke="#ff0000" d="M192.5598,-692.5628C187.8297,-690.2422 182.7976,-687.9243 178,-685.9954 152.9577,-675.9268 138.0344,-688.0766 120,-667.9954 114.4046,-661.7649 111.5519,-653.3486 110.1888,-645.1503"/>
<polygon fill="#ff0000" stroke="#ff0000" points="113.657,-644.6586 109.1644,-635.0635 106.6928,-645.366 113.657,-644.6586"/>
<text text-anchor="middle" x="123.5" y="-656.7954" font-family="Times,serif" font-size="14.00" fill="#000000">1</text>
</g>
<!-- c2a&#45;&gt;x1_o2 -->
<g id="edge37" class="edge">
<title>c2a&#45;&gt;x1_o2</title>
<path fill="none" stroke="#0000ff" d="M214,-685.6648C214,-668.0582 214,-640.7089 214,-616.9954 214,-616.9954 214,-616.9954 214,-430.9977 214,-386.0165 268.0907,-361.8414 305.6709,-350.4734"/>
<polygon fill="#0000ff" stroke="#0000ff" points="306.6433,-353.8357 315.2997,-347.7269 304.7231,-347.1042 306.6433,-353.8357"/>
</g>
<!-- c3 -->
<g id="node29" class="node">
<title>c3</title>
<ellipse fill="none" stroke="#000000" cx="54" cy="-342" rx="27" ry="18"/>
<text text-anchor="middle" x="54" y="-338.3" font-family="Times,serif" font-size="14.00" fill="#000000">Cut</text>
</g>
<!-- c3&#45;&gt;h_app -->
<g id="edge41" class="edge">
<title>c3&#45;&gt;h_app</title>
<path fill="none" stroke="#0000ff" d="M70.875,-327.7813C88.7076,-312.7556 117.0094,-288.9087 137.3416,-271.777"/>
<polygon fill="#0000ff" stroke="#0000ff" points="139.8514,-274.239 145.2435,-265.1189 135.3409,-268.8859 139.8514,-274.239"/>
</g>
<!-- i -->
<g id="node30" class="node">
<title>i</title>
<ellipse fill="none" stroke="#000000" cx="54" cy="-251" rx="27" ry="18"/>
<text text-anchor="middle" x="54" y="-247.3" font-family="Times,serif" font-size="14.00" fill="#000000">!p</text>
</g>
<!-- c3&#45;&gt;i -->
<g id="edge40" class="edge">
<title>c3&#45;&gt;i</title>
<path fill="none" stroke="#ff0000" d="M54,-323.5848C54,-310.9209 54,-293.8558 54,-279.4541"/>
<polygon fill="#ff0000" stroke="#ff0000" points="57.5001,-279.0772 54,-269.0773 50.5001,-279.0773 57.5001,-279.0772"/>
<text text-anchor="middle" x="57.5" y="-290.8" font-family="Times,serif" font-size="14.00" fill="#000000">2</text>
</g>
<!-- i_i -->
<g id="node31" class="node">
<title>i_i</title>
<ellipse fill="none" stroke="#000000" cx="54" cy="-164" rx="27" ry="18"/>
<text text-anchor="middle" x="54" y="-160.3" font-family="Times,serif" font-size="14.00" fill="#000000">PiR</text>
</g>
<!-- i&#45;&gt;i_i -->
<g id="edge42" class="edge">
<title>i&#45;&gt;i_i</title>
<path fill="none" stroke="#ff0000" d="M54,-232.9735C54,-221.1918 54,-205.5607 54,-192.1581"/>
<polygon fill="#ff0000" stroke="#ff0000" points="57.5001,-192.0033 54,-182.0034 50.5001,-192.0034 57.5001,-192.0033"/>
<text text-anchor="middle" x="57.5" y="-203.8" font-family="Times,serif" font-size="14.00" fill="#000000">3</text>
</g>
<!-- il -->
<g id="node32" class="node">
<title>il</title>
<ellipse fill="none" stroke="#000000" cx="27" cy="-91" rx="27" ry="18"/>
<text text-anchor="middle" x="27" y="-87.3" font-family="Times,serif" font-size="14.00" fill="#000000">!d</text>
</g>
<!-- i_i&#45;&gt;il -->
<g id="edge43" class="edge">
<title>i_i&#45;&gt;il</title>
<path fill="none" stroke="#0000ff" d="M47.4641,-146.3287C44.3134,-137.8103 40.4659,-127.4078 36.9608,-117.9312"/>
<polygon fill="#0000ff" stroke="#0000ff" points="40.2274,-116.6734 33.4758,-108.5085 33.6621,-119.1017 40.2274,-116.6734"/>
</g>
<!-- i_ret -->
<g id="node33" class="node">
<title>i_ret</title>
<ellipse fill="none" stroke="#000000" cx="54" cy="-18" rx="27" ry="18"/>
<text text-anchor="middle" x="54" y="-14.3" font-family="Times,serif" font-size="14.00" fill="#000000">I</text>
</g>
<!-- i_i&#45;&gt;i_ret -->
<g id="edge44" class="edge">
<title>i_i&#45;&gt;i_ret</title>
<path fill="none" stroke="#ff0000" d="M57.7475,-145.7581C59.7467,-135.0941 61.9967,-121.3441 63,-109 64.2962,-93.0526 64.2962,-88.9474 63,-73 62.2867,-64.2241 60.9433,-54.7377 59.5079,-46.1547"/>
<polygon fill="#ff0000" stroke="#ff0000" points="62.9422,-45.4759 57.7475,-36.2419 56.05,-46.6999 62.9422,-45.4759"/>
</g>
<!-- il&#45;&gt;i_ret -->
<g id="edge45" class="edge">
<title>il&#45;&gt;i_ret</title>
<path fill="none" stroke="#0000ff" d="M33.5359,-73.3287C36.6866,-64.8103 40.5341,-54.4078 44.0392,-44.9312"/>
<polygon fill="#0000ff" stroke="#0000ff" points="47.3379,-46.1017 47.5242,-35.5085 40.7726,-43.6734 47.3379,-46.1017"/>
</g>
</g>
</svg>
