<?xml version="1.0" encoding="UTF-8" standalone="no"?>
<!DOCTYPE svg PUBLIC "-//W3C//DTD SVG 1.1//EN"
 "http://www.w3.org/Graphics/SVG/1.1/DTD/svg11.dtd">
<!-- Generated by graphviz version 2.40.1 (20161225.0304)
 -->
<!-- Title: %3 Pages: 1 -->
<svg width="299pt" height="1147pt"
 viewBox="0.00 0.00 298.87 1146.90" xmlns="http://www.w3.org/2000/svg" xmlns:xlink="http://www.w3.org/1999/xlink">
<g id="graph0" class="graph" transform="scale(1 1) rotate(0) translate(4 1142.895)">
<title>%3</title>
<polygon fill="#ffffff" stroke="transparent" points="-4,4 -4,-1142.895 294.8727,-1142.895 294.8727,4 -4,4"/>
<!-- Root -->
<g id="node1" class="node">
<title>Root</title>
<ellipse fill="none" stroke="#000000" cx="181.9754" cy="-1120.895" rx="32.4942" ry="18"/>
<text text-anchor="middle" x="181.9754" y="-1117.195" font-family="Times,serif" font-size="14.00" fill="#000000">Root</text>
</g>
<!-- c1b -->
<g id="node2" class="node">
<title>c1b</title>
<ellipse fill="none" stroke="#000000" cx="140.9754" cy="-1033.9475" rx="27.9017" ry="27.9017"/>
<ellipse fill="none" stroke="#000000" cx="140.9754" cy="-1033.9475" rx="31.8951" ry="31.8951"/>
<text text-anchor="middle" x="140.9754" y="-1030.2475" font-family="Times,serif" font-size="14.00" fill="#000000">Cut</text>
</g>
<!-- Root&#45;&gt;c1b -->
<g id="edge1" class="edge">
<title>Root&#45;&gt;c1b</title>
<path fill="none" stroke="#000000" d="M173.6784,-1103.2999C169.4797,-1094.3959 164.2073,-1083.2148 159.1294,-1072.4462"/>
<polygon fill="#000000" stroke="#000000" points="162.1798,-1070.7088 154.749,-1063.1568 155.8484,-1073.6944 162.1798,-1070.7088"/>
</g>
<!-- d1 -->
<g id="node5" class="node">
<title>d1</title>
<ellipse fill="none" stroke="#000000" cx="260.9754" cy="-773" rx="29.795" ry="18"/>
<text text-anchor="middle" x="260.9754" y="-769.3" font-family="Times,serif" font-size="14.00" fill="#000000">Dup</text>
</g>
<!-- Root&#45;&gt;d1 -->
<g id="edge7" class="edge">
<title>Root&#45;&gt;d1</title>
<path fill="none" stroke="#ff0000" d="M200.0105,-1105.5678C216.7097,-1089.5709 238.9754,-1062.8269 238.9754,-1033.9475 238.9754,-1033.9475 238.9754,-1033.9475 238.9754,-846 238.9754,-830.389 243.6446,-813.6684 248.6809,-800.1738"/>
<polygon fill="#ff0000" stroke="#ff0000" points="252.0643,-801.1395 252.5325,-790.555 245.5659,-798.5374 252.0643,-801.1395"/>
<text text-anchor="middle" x="256.4754" y="-929.3" font-family="Times,serif" font-size="14.00" fill="#000000">0&#45;&gt;1</text>
</g>
<!-- c2b -->
<g id="node4" class="node">
<title>c2b</title>
<ellipse fill="none" stroke="#000000" cx="40.9754" cy="-773" rx="27.8951" ry="18"/>
<text text-anchor="middle" x="40.9754" y="-769.3" font-family="Times,serif" font-size="14.00" fill="#000000">Cut</text>
</g>
<!-- c1b&#45;&gt;c2b -->
<g id="edge3" class="edge">
<title>c1b&#45;&gt;c2b</title>
<path fill="none" stroke="#000000" d="M129.5041,-1004.0135C109.8738,-952.7889 70.1396,-849.1034 51.3143,-799.9793"/>
<polygon fill="#000000" stroke="#000000" points="54.5814,-798.7236 47.7346,-790.6382 48.0449,-801.2285 54.5814,-798.7236"/>
</g>
<!-- hi_retpc2 -->
<g id="node13" class="node">
<title>hi_retpc2</title>
<ellipse fill="none" stroke="#000000" cx="113.9754" cy="-773" rx="27" ry="18"/>
<text text-anchor="middle" x="113.9754" y="-769.3" font-family="Times,serif" font-size="14.00" fill="#000000">!c</text>
</g>
<!-- c1b&#45;&gt;hi_retpc2 -->
<g id="edge16" class="edge">
<title>c1b&#45;&gt;hi_retpc2</title>
<path fill="none" stroke="#0000ff" d="M137.6646,-1001.9502C132.3495,-950.5808 121.9964,-850.5212 116.9221,-801.4799"/>
<polygon fill="#0000ff" stroke="#0000ff" points="120.3766,-800.8582 115.8659,-791.2715 113.4138,-801.5787 120.3766,-800.8582"/>
<text text-anchor="middle" x="131.9754" y="-885.8" font-family="Times,serif" font-size="14.00" fill="#000000">1</text>
</g>
<!-- fpa -->
<g id="node14" class="node">
<title>fpa</title>
<ellipse fill="none" stroke="#000000" cx="173.9754" cy="-933" rx="27" ry="18"/>
<text text-anchor="middle" x="173.9754" y="-929.3" font-family="Times,serif" font-size="14.00" fill="#000000">!p</text>
</g>
<!-- c1b&#45;&gt;fpa -->
<g id="edge15" class="edge">
<title>c1b&#45;&gt;fpa</title>
<path fill="none" stroke="#ff0000" d="M150.966,-1003.386C155.4406,-989.6981 160.6758,-973.6835 165.0212,-960.391"/>
<polygon fill="#ff0000" stroke="#ff0000" points="168.3628,-961.4329 168.1433,-950.8404 161.7092,-959.2578 168.3628,-961.4329"/>
<text text-anchor="middle" x="166.9754" y="-972.8" font-family="Times,serif" font-size="14.00" fill="#000000">0</text>
</g>
<!-- fa -->
<g id="node3" class="node">
<title>fa</title>
<ellipse fill="none" stroke="#000000" cx="181.9754" cy="-846" rx="27" ry="18"/>
<text text-anchor="middle" x="181.9754" y="-842.3" font-family="Times,serif" font-size="14.00" fill="#000000">PiR</text>
</g>
<!-- fa&#45;&gt;c2b -->
<g id="edge2" class="edge">
<title>fa&#45;&gt;c2b</title>
<path fill="none" stroke="#000000" d="M160.5605,-834.9129C136.9918,-822.7106 98.8932,-802.9858 72.0432,-789.0848"/>
<polygon fill="#000000" stroke="#000000" points="73.5471,-785.9221 63.0575,-784.4326 70.3287,-792.1384 73.5471,-785.9221"/>
</g>
<!-- fa&#45;&gt;d1 -->
<g id="edge19" class="edge">
<title>fa&#45;&gt;d1</title>
<path fill="none" stroke="#ff0000" d="M197.9622,-831.2274C209.5859,-820.4864 225.4808,-805.7988 238.3982,-793.8625"/>
<ellipse fill="none" stroke="#ff0000" cx="241.5307" cy="-790.9679" rx="4" ry="4"/>
</g>
<!-- hi_retpc1 -->
<g id="node12" class="node">
<title>hi_retpc1</title>
<ellipse fill="none" stroke="#000000" cx="185.9754" cy="-773" rx="27" ry="18"/>
<text text-anchor="middle" x="185.9754" y="-769.3" font-family="Times,serif" font-size="14.00" fill="#000000">!c</text>
</g>
<!-- fa&#45;&gt;hi_retpc1 -->
<g id="edge18" class="edge">
<title>fa&#45;&gt;hi_retpc1</title>
<path fill="none" stroke="#0000ff" d="M182.9641,-827.9551C183.4064,-819.8828 183.9383,-810.1764 184.4311,-801.1817"/>
<polygon fill="#0000ff" stroke="#0000ff" points="187.9316,-801.2669 184.9841,-791.0904 180.9421,-800.8839 187.9316,-801.2669"/>
</g>
<!-- d3 -->
<g id="node8" class="node">
<title>d3</title>
<ellipse fill="none" stroke="#000000" cx="34.9754" cy="-512" rx="29.795" ry="18"/>
<text text-anchor="middle" x="34.9754" y="-508.3" font-family="Times,serif" font-size="14.00" fill="#000000">Dup</text>
</g>
<!-- c2b&#45;&gt;d3 -->
<g id="edge20" class="edge">
<title>c2b&#45;&gt;d3</title>
<path fill="none" stroke="#ff0000" d="M29.3492,-756.3417C20.7216,-742.9078 9.673,-723.1594 4.9754,-704 -9.1979,-646.194 10.4094,-576.8807 23.9703,-539.371"/>
<polygon fill="#ff0000" stroke="#ff0000" points="27.3736,-540.2631 27.6018,-529.6707 20.8179,-537.8088 27.3736,-540.2631"/>
<text text-anchor="middle" x="6.9754" y="-638.8" font-family="Times,serif" font-size="14.00" fill="#000000">2</text>
</g>
<!-- x2i_o2 -->
<g id="node15" class="node">
<title>x2i_o2</title>
<ellipse fill="none" stroke="#000000" cx="40.9754" cy="-686" rx="27" ry="18"/>
<text text-anchor="middle" x="40.9754" y="-682.3" font-family="Times,serif" font-size="14.00" fill="#000000">PiL</text>
</g>
<!-- c2b&#45;&gt;x2i_o2 -->
<g id="edge21" class="edge">
<title>c2b&#45;&gt;x2i_o2</title>
<path fill="none" stroke="#0000ff" d="M40.9754,-754.9735C40.9754,-743.1918 40.9754,-727.5607 40.9754,-714.1581"/>
<polygon fill="#0000ff" stroke="#0000ff" points="44.4754,-714.0033 40.9754,-704.0034 37.4754,-714.0034 44.4754,-714.0033"/>
<text text-anchor="middle" x="45.9754" y="-725.8" font-family="Times,serif" font-size="14.00" fill="#000000">1</text>
</g>
<!-- d2b -->
<g id="node6" class="node">
<title>d2b</title>
<ellipse fill="none" stroke="#000000" cx="210.9754" cy="-686" rx="29.795" ry="18"/>
<text text-anchor="middle" x="210.9754" y="-682.3" font-family="Times,serif" font-size="14.00" fill="#000000">Dup</text>
</g>
<!-- d1&#45;&gt;d2b -->
<g id="edge4" class="edge">
<title>d1&#45;&gt;d2b</title>
<path fill="none" stroke="#000000" stroke-dasharray="5,2" d="M251.097,-755.8116C242.3313,-740.5593 229.5927,-718.3942 220.8332,-703.1527"/>
</g>
<!-- f_ret -->
<g id="node10" class="node">
<title>f_ret</title>
<ellipse fill="none" stroke="#000000" cx="235.9754" cy="-599" rx="27" ry="18"/>
<text text-anchor="middle" x="235.9754" y="-595.3" font-family="Times,serif" font-size="14.00" fill="#000000">I</text>
</g>
<!-- d1&#45;&gt;f_ret -->
<g id="edge8" class="edge">
<title>d1&#45;&gt;f_ret</title>
<path fill="none" stroke="#ff0000" d="M259.5948,-754.722C257.8849,-733.7197 254.6186,-698.2551 249.9754,-668 247.8894,-654.408 244.9331,-639.4368 242.2743,-626.9236"/>
<polygon fill="#ff0000" stroke="#ff0000" points="245.6782,-626.1048 240.1365,-617.0748 238.8375,-627.5897 245.6782,-626.1048"/>
</g>
<!-- d4 -->
<g id="node9" class="node">
<title>d4</title>
<ellipse fill="none" stroke="#000000" cx="129.9754" cy="-512" rx="29.795" ry="18"/>
<text text-anchor="middle" x="129.9754" y="-508.3" font-family="Times,serif" font-size="14.00" fill="#000000">Dup</text>
</g>
<!-- d2b&#45;&gt;d4 -->
<g id="edge10" class="edge">
<title>d2b&#45;&gt;d4</title>
<path fill="none" stroke="#0000ff" d="M202.7629,-668.3584C188.5354,-637.7957 159.2227,-574.8276 142.461,-538.821"/>
<polygon fill="#0000ff" stroke="#0000ff" points="145.4825,-537.0183 138.0891,-529.4296 139.1364,-539.9725 145.4825,-537.0183"/>
</g>
<!-- d2a -->
<g id="node7" class="node">
<title>d2a</title>
<ellipse fill="none" stroke="#000000" cx="115.9754" cy="-686" rx="29.795" ry="18"/>
<text text-anchor="middle" x="115.9754" y="-682.3" font-family="Times,serif" font-size="14.00" fill="#000000">Dup</text>
</g>
<!-- d2a&#45;&gt;d2b -->
<g id="edge5" class="edge">
<title>d2a&#45;&gt;d2b</title>
<path fill="none" stroke="#000000" stroke-dasharray="5,2" d="M146.0339,-686C157.7031,-686 169.3723,-686 181.0414,-686"/>
</g>
<!-- hi_retpa -->
<g id="node11" class="node">
<title>hi_retpa</title>
<ellipse fill="none" stroke="#000000" cx="88.9754" cy="-599" rx="27" ry="18"/>
<text text-anchor="middle" x="88.9754" y="-595.3" font-family="Times,serif" font-size="14.00" fill="#000000">!p</text>
</g>
<!-- d2a&#45;&gt;hi_retpa -->
<g id="edge9" class="edge">
<title>d2a&#45;&gt;hi_retpa</title>
<path fill="none" stroke="#0000ff" d="M110.3809,-667.9735C106.6637,-655.9958 101.7118,-640.0396 97.5071,-626.4912"/>
<polygon fill="#0000ff" stroke="#0000ff" points="100.777,-625.2189 94.4702,-616.7057 94.0916,-627.2938 100.777,-625.2189"/>
<text text-anchor="middle" x="109.9754" y="-638.8" font-family="Times,serif" font-size="14.00" fill="#000000">1</text>
</g>
<!-- d3&#45;&gt;d4 -->
<g id="edge6" class="edge">
<title>d3&#45;&gt;d4</title>
<path fill="none" stroke="#000000" stroke-dasharray="5,2" d="M65.0339,-512C76.7031,-512 88.3723,-512 100.0414,-512"/>
</g>
<!-- hi_ret -->
<g id="node16" class="node">
<title>hi_ret</title>
<ellipse fill="none" stroke="#000000" cx="51.9754" cy="-251" rx="27" ry="18"/>
<text text-anchor="middle" x="51.9754" y="-247.3" font-family="Times,serif" font-size="14.00" fill="#000000">I</text>
</g>
<!-- d3&#45;&gt;hi_ret -->
<g id="edge26" class="edge">
<title>d3&#45;&gt;hi_ret</title>
<path fill="none" stroke="#ff0000" d="M36.1708,-493.647C39.098,-448.7053 46.6408,-332.9017 50.1408,-279.1653"/>
<polygon fill="#ff0000" stroke="#ff0000" points="53.6464,-279.1926 50.8038,-268.9862 46.6612,-278.7376 53.6464,-279.1926"/>
</g>
<!-- h_di -->
<g id="node17" class="node">
<title>h_di</title>
<ellipse fill="none" stroke="#000000" cx="128.9754" cy="-425" rx="27" ry="18"/>
<text text-anchor="middle" x="128.9754" y="-421.3" font-family="Times,serif" font-size="14.00" fill="#000000">!d</text>
</g>
<!-- d4&#45;&gt;h_di -->
<g id="edge27" class="edge">
<title>d4&#45;&gt;h_di</title>
<path fill="none" stroke="#0000ff" d="M129.7682,-493.9735C129.6327,-482.1918 129.4531,-466.5607 129.299,-453.1581"/>
<polygon fill="#0000ff" stroke="#0000ff" points="132.7971,-452.9624 129.1823,-443.0034 125.7976,-453.043 132.7971,-452.9624"/>
<text text-anchor="middle" x="134.9754" y="-464.8" font-family="Times,serif" font-size="14.00" fill="#000000">1</text>
</g>
<!-- hi_retpa&#45;&gt;d3 -->
<g id="edge24" class="edge">
<title>hi_retpa&#45;&gt;d3</title>
<path fill="none" stroke="#ff0000" d="M78.5636,-582.2255C70.3988,-569.0711 58.9297,-550.5931 49.8054,-535.8929"/>
<ellipse fill="none" stroke="#ff0000" cx="47.6489" cy="-532.4184" rx="4" ry="4"/>
<text text-anchor="middle" x="70.9754" y="-551.8" font-family="Times,serif" font-size="14.00" fill="#000000">2</text>
</g>
<!-- hi_retpa&#45;&gt;d4 -->
<g id="edge25" class="edge">
<title>hi_retpa&#45;&gt;d4</title>
<path fill="none" stroke="#0000ff" d="M97.0756,-581.8116C103.101,-569.026 111.4156,-551.3829 118.1785,-537.0324"/>
<ellipse fill="none" stroke="#0000ff" cx="120.0463" cy="-533.0688" rx="4" ry="4"/>
<text text-anchor="middle" x="116.9754" y="-551.8" font-family="Times,serif" font-size="14.00" fill="#000000">1</text>
</g>
<!-- hi_retpc1&#45;&gt;d2b -->
<g id="edge12" class="edge">
<title>hi_retpc1&#45;&gt;d2b</title>
<path fill="none" stroke="#0000ff" d="M192.2132,-755.135C194.1488,-749.3739 196.2302,-742.9418 197.9754,-737 200.345,-728.9316 202.691,-720.0732 204.7241,-712.0356"/>
<ellipse fill="none" stroke="#0000ff" cx="205.7516" cy="-707.9057" rx="4" ry="4"/>
</g>
<!-- hi_retpc1&#45;&gt;d2a -->
<g id="edge11" class="edge">
<title>hi_retpc1&#45;&gt;d2a</title>
<path fill="none" stroke="#0000ff" d="M173.1363,-757.0429C162.3204,-743.6003 146.708,-724.1963 134.5318,-709.063"/>
<ellipse fill="none" stroke="#0000ff" cx="131.7162" cy="-705.5636" rx="4" ry="4"/>
</g>
<!-- hi_retpc2&#45;&gt;d2b -->
<g id="edge14" class="edge">
<title>hi_retpc2&#45;&gt;d2b</title>
<path fill="none" stroke="#0000ff" d="M130.4301,-758.2416C145.8044,-744.4523 168.955,-723.6883 186.4969,-707.9549"/>
<polygon fill="#0000ff" stroke="#0000ff" points="189.0064,-710.4057 194.1139,-701.1232 184.3325,-705.1946 189.0064,-710.4057"/>
</g>
<!-- hi_retpc2&#45;&gt;d2a -->
<g id="edge13" class="edge">
<title>hi_retpc2&#45;&gt;d2a</title>
<path fill="none" stroke="#0000ff" d="M114.3898,-754.9735C114.6606,-743.1918 115.0199,-727.5607 115.328,-714.1581"/>
<polygon fill="#0000ff" stroke="#0000ff" points="118.8306,-714.0812 115.5615,-704.0034 111.8325,-713.9202 118.8306,-714.0812"/>
</g>
<!-- fpa&#45;&gt;fa -->
<g id="edge17" class="edge">
<title>fpa&#45;&gt;fa</title>
<path fill="none" stroke="#ff0000" d="M175.633,-914.9735C176.7163,-903.1918 178.1537,-887.5607 179.3861,-874.1581"/>
<polygon fill="#ff0000" stroke="#ff0000" points="182.8894,-874.2819 180.3199,-864.0034 175.9188,-873.6408 182.8894,-874.2819"/>
<text text-anchor="middle" x="183.9754" y="-885.8" font-family="Times,serif" font-size="14.00" fill="#000000">1</text>
</g>
<!-- x2i_o2&#45;&gt;f_ret -->
<g id="edge23" class="edge">
<title>x2i_o2&#45;&gt;f_ret</title>
<path fill="none" stroke="#0000ff" d="M62.5774,-674.9415C67.2974,-672.5975 72.2844,-670.1756 76.9754,-668 95.399,-659.4551 100.3335,-658.0576 118.9754,-650 147.6289,-637.6151 180.177,-623.4169 203.6564,-613.1515"/>
<polygon fill="#0000ff" stroke="#0000ff" points="205.3666,-616.2237 213.126,-609.0096 202.5614,-609.8103 205.3666,-616.2237"/>
</g>
<!-- x2i_o2&#45;&gt;hi_retpa -->
<g id="edge22" class="edge">
<title>x2i_o2&#45;&gt;hi_retpa</title>
<path fill="none" stroke="#ff0000" d="M50.4586,-668.8116C57.3616,-656.3 66.831,-639.1366 74.653,-624.9592"/>
<polygon fill="#ff0000" stroke="#ff0000" points="77.7455,-626.5993 79.5118,-616.1527 71.6164,-623.2177 77.7455,-626.5993"/>
<text text-anchor="middle" x="72.9754" y="-638.8" font-family="Times,serif" font-size="14.00" fill="#000000">1</text>
</g>
<!-- h -->
<g id="node18" class="node">
<title>h</title>
<ellipse fill="none" stroke="#000000" cx="126.9754" cy="-338" rx="27" ry="18"/>
<text text-anchor="middle" x="126.9754" y="-334.3" font-family="Times,serif" font-size="14.00" fill="#000000">PiL</text>
</g>
<!-- h_di&#45;&gt;h -->
<g id="edge28" class="edge">
<title>h_di&#45;&gt;h</title>
<path fill="none" stroke="#0000ff" d="M128.561,-406.9735C128.2901,-395.1918 127.9308,-379.5607 127.6227,-366.1581"/>
<polygon fill="#0000ff" stroke="#0000ff" points="131.1182,-365.9202 127.3892,-356.0034 124.1201,-366.0812 131.1182,-365.9202"/>
<text text-anchor="middle" x="133.9754" y="-377.8" font-family="Times,serif" font-size="14.00" fill="#000000">2</text>
</g>
<!-- h&#45;&gt;hi_ret -->
<g id="edge34" class="edge">
<title>h&#45;&gt;hi_ret</title>
<path fill="none" stroke="#0000ff" d="M113.2192,-322.0429C101.8012,-308.798 85.3943,-289.7659 72.4354,-274.7336"/>
<polygon fill="#0000ff" stroke="#0000ff" points="74.8247,-272.1448 65.6443,-266.856 69.5228,-276.7154 74.8247,-272.1448"/>
</g>
<!-- i -->
<g id="node19" class="node">
<title>i</title>
<ellipse fill="none" stroke="#000000" cx="126.9754" cy="-251" rx="27" ry="18"/>
<text text-anchor="middle" x="126.9754" y="-247.3" font-family="Times,serif" font-size="14.00" fill="#000000">!p</text>
</g>
<!-- h&#45;&gt;i -->
<g id="edge33" class="edge">
<title>h&#45;&gt;i</title>
<path fill="none" stroke="#ff0000" d="M126.9754,-319.9735C126.9754,-308.1918 126.9754,-292.5607 126.9754,-279.1581"/>
<polygon fill="#ff0000" stroke="#ff0000" points="130.4754,-279.0033 126.9754,-269.0034 123.4754,-279.0034 130.4754,-279.0033"/>
<text text-anchor="middle" x="131.9754" y="-290.8" font-family="Times,serif" font-size="14.00" fill="#000000">2</text>
</g>
<!-- i_i -->
<g id="node20" class="node">
<title>i_i</title>
<ellipse fill="none" stroke="#000000" cx="126.9754" cy="-164" rx="27" ry="18"/>
<text text-anchor="middle" x="126.9754" y="-160.3" font-family="Times,serif" font-size="14.00" fill="#000000">PiR</text>
</g>
<!-- i&#45;&gt;i_i -->
<g id="edge29" class="edge">
<title>i&#45;&gt;i_i</title>
<path fill="none" stroke="#ff0000" d="M126.9754,-232.9735C126.9754,-221.1918 126.9754,-205.5607 126.9754,-192.1581"/>
<polygon fill="#ff0000" stroke="#ff0000" points="130.4754,-192.0033 126.9754,-182.0034 123.4754,-192.0034 130.4754,-192.0033"/>
<text text-anchor="middle" x="131.9754" y="-203.8" font-family="Times,serif" font-size="14.00" fill="#000000">3</text>
</g>
<!-- il -->
<g id="node21" class="node">
<title>il</title>
<ellipse fill="none" stroke="#000000" cx="169.9754" cy="-91" rx="27" ry="18"/>
<text text-anchor="middle" x="169.9754" y="-87.3" font-family="Times,serif" font-size="14.00" fill="#000000">!d</text>
</g>
<!-- i_i&#45;&gt;il -->
<g id="edge30" class="edge">
<title>i_i&#45;&gt;il</title>
<path fill="none" stroke="#0000ff" d="M136.9485,-147.0688C142.2671,-138.0396 148.9219,-126.742 154.8615,-116.6585"/>
<polygon fill="#0000ff" stroke="#0000ff" points="157.9966,-118.232 160.0563,-107.8393 151.9652,-114.6793 157.9966,-118.232"/>
</g>
<!-- i_ret -->
<g id="node22" class="node">
<title>i_ret</title>
<ellipse fill="none" stroke="#000000" cx="126.9754" cy="-18" rx="27" ry="18"/>
<text text-anchor="middle" x="126.9754" y="-14.3" font-family="Times,serif" font-size="14.00" fill="#000000">I</text>
</g>
<!-- i_i&#45;&gt;i_ret -->
<g id="edge31" class="edge">
<title>i_i&#45;&gt;i_ret</title>
<path fill="none" stroke="#ff0000" d="M126.9754,-145.8042C126.9754,-120.8868 126.9754,-75.8938 126.9754,-46.4877"/>
<polygon fill="#ff0000" stroke="#ff0000" points="130.4755,-46.4251 126.9754,-36.4251 123.4755,-46.4251 130.4755,-46.4251"/>
</g>
<!-- il&#45;&gt;i_ret -->
<g id="edge32" class="edge">
<title>il&#45;&gt;i_ret</title>
<path fill="none" stroke="#0000ff" d="M160.0022,-74.0688C154.6836,-65.0396 148.0288,-53.742 142.0892,-43.6585"/>
<polygon fill="#0000ff" stroke="#0000ff" points="144.9855,-41.6793 136.8944,-34.8393 138.9541,-45.232 144.9855,-41.6793"/>
</g>
</g>
</svg>
