<?xml version="1.0" encoding="UTF-8" standalone="no"?>
<!DOCTYPE svg PUBLIC "-//W3C//DTD SVG 1.1//EN"
 "http://www.w3.org/Graphics/SVG/1.1/DTD/svg11.dtd">
<!-- Generated by graphviz version 2.40.1 (20161225.0304)
 -->
<!-- Title: %3 Pages: 1 -->
<svg width="456pt" height="1051pt"
 viewBox="0.00 0.00 456.00 1050.80" xmlns="http://www.w3.org/2000/svg" xmlns:xlink="http://www.w3.org/1999/xlink">
<g id="graph0" class="graph" transform="scale(1 1) rotate(0) translate(4 1046.7958)">
<title>%3</title>
<polygon fill="#ffffff" stroke="transparent" points="-4,4 -4,-1046.7958 452,-1046.7958 452,4 -4,4"/>
<!-- Root -->
<g id="node1" class="node">
<title>Root</title>
<ellipse fill="none" stroke="#000000" cx="82" cy="-1024.7958" rx="27.8951" ry="18"/>
<text text-anchor="middle" x="82" y="-1021.0958" font-family="Times,serif" font-size="14.00" fill="#000000">Root</text>
</g>
<!-- c1a -->
<g id="node2" class="node">
<title>c1a</title>
<ellipse fill="none" stroke="#000000" cx="82" cy="-951.7958" rx="27" ry="18"/>
<text text-anchor="middle" x="82" y="-948.0958" font-family="Times,serif" font-size="14.00" fill="#000000">Cut</text>
</g>
<!-- Root&#45;&gt;c1a -->
<g id="edge1" class="edge">
<title>Root&#45;&gt;c1a</title>
<path fill="none" stroke="#000000" d="M82,-1006.7509C82,-998.6787 82,-988.9722 82,-979.9776"/>
<polygon fill="#000000" stroke="#000000" points="85.5001,-979.8862 82,-969.8862 78.5001,-979.8862 85.5001,-979.8862"/>
</g>
<!-- c1b -->
<g id="node3" class="node">
<title>c1b</title>
<ellipse fill="none" stroke="#000000" cx="160" cy="-951.7958" rx="27" ry="18"/>
<text text-anchor="middle" x="160" y="-948.0958" font-family="Times,serif" font-size="14.00" fill="#000000">Cut</text>
</g>
<!-- Root&#45;&gt;c1b -->
<g id="edge2" class="edge">
<title>Root&#45;&gt;c1b</title>
<path fill="none" stroke="#000000" d="M98.1617,-1009.6702C109.3214,-999.2258 124.3334,-985.1761 136.7715,-973.5353"/>
<polygon fill="#000000" stroke="#000000" points="139.2163,-976.041 144.1259,-966.6523 134.4331,-970.9301 139.2163,-976.041"/>
</g>
<!-- ret -->
<g id="node8" class="node">
<title>ret</title>
<ellipse fill="none" stroke="#000000" cx="27" cy="-864.7958" rx="27" ry="18"/>
<text text-anchor="middle" x="27" y="-861.0958" font-family="Times,serif" font-size="14.00" fill="#000000">I</text>
</g>
<!-- Root&#45;&gt;ret -->
<g id="edge5" class="edge">
<title>Root&#45;&gt;ret</title>
<path fill="none" stroke="#ff0000" stroke-width="2" d="M68.7693,-1008.4339C60.9746,-997.9748 51.5776,-983.7893 46,-969.7958 36.0834,-944.9167 31.3077,-914.65 29.0291,-893.0158"/>
<polygon fill="#ff0000" stroke="#ff0000" stroke-width="2" points="32.4949,-892.4864 28.0752,-882.8574 25.5255,-893.1408 32.4949,-892.4864"/>
</g>
<!-- c1a&#45;&gt;ret -->
<g id="edge7" class="edge">
<title>c1a&#45;&gt;ret</title>
<path fill="none" stroke="#0000ff" d="M71.3954,-935.0214C63.3301,-922.2635 52.0992,-904.4982 42.9516,-890.0283"/>
<polygon fill="#0000ff" stroke="#0000ff" points="45.874,-888.1012 37.572,-881.5188 39.9572,-891.8417 45.874,-888.1012"/>
</g>
<!-- ret_o1 -->
<g id="node9" class="node">
<title>ret_o1</title>
<ellipse fill="none" stroke="#000000" cx="86" cy="-599" rx="27" ry="18"/>
<text text-anchor="middle" x="86" y="-595.3" font-family="Times,serif" font-size="14.00" fill="#000000">I</text>
</g>
<!-- c1a&#45;&gt;ret_o1 -->
<g id="edge6" class="edge">
<title>c1a&#45;&gt;ret_o1</title>
<path fill="none" stroke="#ff0000" d="M82,-933.4653C82,-915.8587 82,-888.5094 82,-864.7958 82,-864.7958 82,-864.7958 82,-695.3979 82,-672.4679 83.1438,-646.4961 84.2081,-627.2926"/>
<polygon fill="#ff0000" stroke="#ff0000" points="87.7136,-627.2991 84.7999,-617.1129 80.7254,-626.8929 87.7136,-627.2991"/>
</g>
<!-- fp -->
<g id="node10" class="node">
<title>fp</title>
<ellipse fill="none" stroke="#000000" cx="270" cy="-864.7958" rx="27" ry="18"/>
<text text-anchor="middle" x="270" y="-861.0958" font-family="Times,serif" font-size="14.00" fill="#000000">!p</text>
</g>
<!-- c1b&#45;&gt;fp -->
<g id="edge8" class="edge">
<title>c1b&#45;&gt;fp</title>
<path fill="none" stroke="#ff0000" d="M177.6734,-937.8178C195.7149,-923.5486 223.9022,-901.255 244.3882,-885.0525"/>
<polygon fill="#ff0000" stroke="#ff0000" points="246.6983,-887.6878 252.3705,-878.7392 242.3559,-882.1974 246.6983,-887.6878"/>
<text text-anchor="middle" x="224.5" y="-904.5958" font-family="Times,serif" font-size="14.00" fill="#000000">0</text>
</g>
<!-- x_o1 -->
<g id="node11" class="node">
<title>x_o1</title>
<ellipse fill="none" stroke="#000000" cx="160" cy="-864.7958" rx="27" ry="18"/>
<text text-anchor="middle" x="160" y="-861.0958" font-family="Times,serif" font-size="14.00" fill="#000000">!c</text>
</g>
<!-- c1b&#45;&gt;x_o1 -->
<g id="edge9" class="edge">
<title>c1b&#45;&gt;x_o1</title>
<path fill="none" stroke="#0000ff" d="M160,-933.7694C160,-921.9876 160,-906.3565 160,-892.9539"/>
<polygon fill="#0000ff" stroke="#0000ff" points="163.5001,-892.7992 160,-882.7992 156.5001,-892.7992 163.5001,-892.7992"/>
</g>
<!-- f -->
<g id="node4" class="node">
<title>f</title>
<ellipse fill="none" stroke="#000000" cx="294" cy="-777.7958" rx="27" ry="18"/>
<text text-anchor="middle" x="294" y="-774.0958" font-family="Times,serif" font-size="14.00" fill="#000000">PiR</text>
</g>
<!-- c2 -->
<g id="node5" class="node">
<title>c2</title>
<ellipse fill="none" stroke="#000000" cx="247" cy="-695.3979" rx="23.3111" ry="23.3111"/>
<ellipse fill="none" stroke="#000000" cx="247" cy="-695.3979" rx="27.2962" ry="27.2962"/>
<text text-anchor="middle" x="247" y="-691.6979" font-family="Times,serif" font-size="14.00" fill="#000000">Cut</text>
</g>
<!-- f&#45;&gt;c2 -->
<g id="edge3" class="edge">
<title>f&#45;&gt;c2</title>
<path fill="none" stroke="#000000" d="M284.2616,-760.7229C278.8727,-751.2754 271.993,-739.2144 265.6155,-728.0337"/>
<polygon fill="#000000" stroke="#000000" points="268.6415,-726.2746 260.6466,-719.3225 262.5611,-729.7429 268.6415,-726.2746"/>
</g>
<!-- hi_retp -->
<g id="node15" class="node">
<title>hi_retp</title>
<ellipse fill="none" stroke="#000000" cx="340" cy="-512" rx="27" ry="18"/>
<text text-anchor="middle" x="340" y="-508.3" font-family="Times,serif" font-size="14.00" fill="#000000">!p</text>
</g>
<!-- f&#45;&gt;hi_retp -->
<g id="edge16" class="edge">
<title>f&#45;&gt;hi_retp</title>
<path fill="none" stroke="#0000ff" d="M295.6684,-759.7523C299.0646,-724.9432 307.6123,-646.1977 321,-581 323.8311,-567.2124 327.8771,-552.1161 331.5084,-539.569"/>
<polygon fill="#0000ff" stroke="#0000ff" points="334.9433,-540.2958 334.4253,-529.7137 328.2311,-538.3091 334.9433,-540.2958"/>
<text text-anchor="middle" x="314.5" y="-638.8" font-family="Times,serif" font-size="14.00" fill="#000000">1</text>
</g>
<!-- f_ret -->
<g id="node16" class="node">
<title>f_ret</title>
<ellipse fill="none" stroke="#000000" cx="412" cy="-512" rx="27" ry="18"/>
<text text-anchor="middle" x="412" y="-508.3" font-family="Times,serif" font-size="14.00" fill="#000000">I</text>
</g>
<!-- f&#45;&gt;f_ret -->
<g id="edge17" class="edge">
<title>f&#45;&gt;f_ret</title>
<path fill="none" stroke="#ff0000" d="M306.9246,-761.5271C328.3654,-733.6625 371.0922,-674.2556 393,-617 402.5712,-591.9859 407.3916,-561.7368 409.7746,-540.1433"/>
<polygon fill="#ff0000" stroke="#ff0000" points="413.2758,-540.3047 410.7849,-530.0069 406.3103,-539.6104 413.2758,-540.3047"/>
</g>
<!-- o2 -->
<g id="node17" class="node">
<title>o2</title>
<ellipse fill="none" stroke="#000000" cx="239" cy="-599" rx="27" ry="18"/>
<text text-anchor="middle" x="239" y="-595.3" font-family="Times,serif" font-size="14.00" fill="#000000">PiR</text>
</g>
<!-- c2&#45;&gt;o2 -->
<g id="edge18" class="edge">
<title>c2&#45;&gt;o2</title>
<path fill="none" stroke="#ff0000" d="M244.7289,-668.032C243.6679,-655.2469 242.4059,-640.0402 241.3368,-627.1575"/>
<polygon fill="#ff0000" stroke="#ff0000" points="244.8079,-626.6631 240.4927,-616.9869 237.8318,-627.2421 244.8079,-626.6631"/>
</g>
<!-- o2l -->
<g id="node18" class="node">
<title>o2l</title>
<ellipse fill="none" stroke="#000000" cx="357" cy="-599" rx="27" ry="18"/>
<text text-anchor="middle" x="357" y="-595.3" font-family="Times,serif" font-size="14.00" fill="#000000">PiL</text>
</g>
<!-- c2&#45;&gt;o2l -->
<g id="edge19" class="edge">
<title>c2&#45;&gt;o2l</title>
<path fill="none" stroke="#0000ff" d="M270.6782,-681.2147C283.7585,-672.8756 299.9508,-661.6953 313,-650 322.0675,-641.8733 331.038,-631.9202 338.4903,-622.971"/>
<polygon fill="#0000ff" stroke="#0000ff" points="341.2818,-625.0856 344.8667,-615.1156 335.8469,-620.6739 341.2818,-625.0856"/>
</g>
<!-- h_di -->
<g id="node6" class="node">
<title>h_di</title>
<ellipse fill="none" stroke="#000000" cx="340" cy="-425" rx="27" ry="18"/>
<text text-anchor="middle" x="340" y="-421.3" font-family="Times,serif" font-size="14.00" fill="#000000">!d</text>
</g>
<!-- c3 -->
<g id="node7" class="node">
<title>c3</title>
<ellipse fill="none" stroke="#000000" cx="294" cy="-338" rx="27" ry="18"/>
<text text-anchor="middle" x="294" y="-334.3" font-family="Times,serif" font-size="14.00" fill="#000000">Cut</text>
</g>
<!-- h_di&#45;&gt;c3 -->
<g id="edge4" class="edge">
<title>h_di&#45;&gt;c3</title>
<path fill="none" stroke="#000000" d="M330.9119,-407.8116C324.3595,-395.4191 315.3943,-378.4631 307.9401,-364.3651"/>
<polygon fill="#000000" stroke="#000000" points="310.8376,-362.3571 303.0692,-355.1527 304.6494,-365.629 310.8376,-362.3571"/>
</g>
<!-- h -->
<g id="node25" class="node">
<title>h</title>
<ellipse fill="none" stroke="#000000" cx="366" cy="-338" rx="27" ry="18"/>
<text text-anchor="middle" x="366" y="-334.3" font-family="Times,serif" font-size="14.00" fill="#000000">PiL</text>
</g>
<!-- h_di&#45;&gt;h -->
<g id="edge31" class="edge">
<title>h_di&#45;&gt;h</title>
<path fill="none" stroke="#0000ff" d="M345.3872,-406.9735C348.9668,-394.9958 353.7353,-379.0396 357.7843,-365.4912"/>
<polygon fill="#0000ff" stroke="#0000ff" points="361.1987,-366.2892 360.7086,-355.7057 354.4917,-364.2848 361.1987,-366.2892"/>
<text text-anchor="middle" x="357.5" y="-377.8" font-family="Times,serif" font-size="14.00" fill="#000000">2</text>
</g>
<!-- i -->
<g id="node26" class="node">
<title>i</title>
<ellipse fill="none" stroke="#000000" cx="277" cy="-251" rx="27" ry="18"/>
<text text-anchor="middle" x="277" y="-247.3" font-family="Times,serif" font-size="14.00" fill="#000000">!p</text>
</g>
<!-- c3&#45;&gt;i -->
<g id="edge32" class="edge">
<title>c3&#45;&gt;i</title>
<path fill="none" stroke="#ff0000" d="M290.4776,-319.9735C288.1754,-308.1918 285.121,-292.5607 282.5022,-279.1581"/>
<polygon fill="#ff0000" stroke="#ff0000" points="285.8708,-278.1465 280.5179,-269.0034 279.0007,-279.489 285.8708,-278.1465"/>
<text text-anchor="middle" x="289.5" y="-290.8" font-family="Times,serif" font-size="14.00" fill="#000000">2</text>
</g>
<!-- h_app -->
<g id="node27" class="node">
<title>h_app</title>
<ellipse fill="none" stroke="#000000" cx="349" cy="-251" rx="27" ry="18"/>
<text text-anchor="middle" x="349" y="-247.3" font-family="Times,serif" font-size="14.00" fill="#000000">I</text>
</g>
<!-- c3&#45;&gt;h_app -->
<g id="edge33" class="edge">
<title>c3&#45;&gt;h_app</title>
<path fill="none" stroke="#0000ff" d="M304.6046,-321.2255C312.6699,-308.4677 323.9008,-290.7024 333.0484,-276.2325"/>
<polygon fill="#0000ff" stroke="#0000ff" points="336.0428,-278.0458 338.428,-267.723 330.126,-274.3053 336.0428,-278.0458"/>
</g>
<!-- fp&#45;&gt;f -->
<g id="edge15" class="edge">
<title>fp&#45;&gt;f</title>
<path fill="none" stroke="#ff0000" d="M274.9728,-846.7694C278.277,-834.7916 282.6787,-818.8354 286.4162,-805.287"/>
<polygon fill="#ff0000" stroke="#ff0000" points="289.8303,-806.0722 289.1157,-795.5015 283.0823,-804.2107 289.8303,-806.0722"/>
<text text-anchor="middle" x="286.5" y="-817.5958" font-family="Times,serif" font-size="14.00" fill="#000000">1</text>
</g>
<!-- x1_o1 -->
<g id="node12" class="node">
<title>x1_o1</title>
<ellipse fill="none" stroke="#000000" cx="160" cy="-599" rx="27" ry="18"/>
<text text-anchor="middle" x="160" y="-595.3" font-family="Times,serif" font-size="14.00" fill="#000000">I</text>
</g>
<!-- x_o1&#45;&gt;x1_o1 -->
<g id="edge10" class="edge">
<title>x_o1&#45;&gt;x1_o1</title>
<path fill="none" stroke="#0000ff" d="M164.3504,-846.7668C167.4587,-832.9207 171.3679,-813.2733 173,-795.7958 178.2809,-739.2437 178.2809,-724.5521 173,-668 171.7249,-654.3457 169.06,-639.3671 166.473,-626.8649"/>
<polygon fill="#0000ff" stroke="#0000ff" points="169.8812,-626.0657 164.3504,-617.0291 163.0387,-627.5424 169.8812,-626.0657"/>
</g>
<!-- x2_o1 -->
<g id="node13" class="node">
<title>x2_o1</title>
<ellipse fill="none" stroke="#000000" cx="137" cy="-777.7958" rx="27" ry="18"/>
<text text-anchor="middle" x="137" y="-774.0958" font-family="Times,serif" font-size="14.00" fill="#000000">!d</text>
</g>
<!-- x_o1&#45;&gt;x2_o1 -->
<g id="edge11" class="edge">
<title>x_o1&#45;&gt;x2_o1</title>
<path fill="none" stroke="#0000ff" d="M155.2344,-846.7694C152.0888,-834.871 147.9054,-819.0466 144.339,-805.5565"/>
<polygon fill="#0000ff" stroke="#0000ff" points="147.6992,-804.5725 141.7595,-795.7992 140.9317,-806.3617 147.6992,-804.5725"/>
</g>
<!-- x2i_o1 -->
<g id="node14" class="node">
<title>x2i_o1</title>
<ellipse fill="none" stroke="#000000" cx="137" cy="-695.3979" rx="27" ry="18"/>
<text text-anchor="middle" x="137" y="-691.6979" font-family="Times,serif" font-size="14.00" fill="#000000">PiL</text>
</g>
<!-- x2_o1&#45;&gt;x2i_o1 -->
<g id="edge12" class="edge">
<title>x2_o1&#45;&gt;x2i_o1</title>
<path fill="none" stroke="#0000ff" d="M137,-759.5091C137,-749.0547 137,-735.7141 137,-723.9124"/>
<polygon fill="#0000ff" stroke="#0000ff" points="140.5001,-723.6335 137,-713.6336 133.5001,-723.6336 140.5001,-723.6335"/>
</g>
<!-- x2i_o1&#45;&gt;ret_o1 -->
<g id="edge14" class="edge">
<title>x2i_o1&#45;&gt;ret_o1</title>
<path fill="none" stroke="#0000ff" d="M127.8822,-678.1639C120.1222,-663.4963 108.8522,-642.1942 99.9572,-625.3812"/>
<polygon fill="#0000ff" stroke="#0000ff" points="102.809,-623.2872 95.0388,-616.0848 96.6216,-626.5608 102.809,-623.2872"/>
</g>
<!-- x2i_o1&#45;&gt;x1_o1 -->
<g id="edge13" class="edge">
<title>x2i_o1&#45;&gt;x1_o1</title>
<path fill="none" stroke="#ff0000" d="M141.3261,-677.2662C144.6993,-663.1286 149.4435,-643.2447 153.3058,-627.0568"/>
<polygon fill="#ff0000" stroke="#ff0000" points="156.7768,-627.5897 155.6933,-617.0504 149.968,-625.9651 156.7768,-627.5897"/>
</g>
<!-- hi_retp&#45;&gt;h_di -->
<g id="edge30" class="edge">
<title>hi_retp&#45;&gt;h_di</title>
<path fill="none" stroke="#0000ff" d="M340,-493.9735C340,-482.1918 340,-466.5607 340,-453.1581"/>
<polygon fill="#0000ff" stroke="#0000ff" points="343.5001,-453.0033 340,-443.0034 336.5001,-453.0034 343.5001,-453.0033"/>
<text text-anchor="middle" x="343.5" y="-464.8" font-family="Times,serif" font-size="14.00" fill="#000000">1</text>
</g>
<!-- hi_ret -->
<g id="node24" class="node">
<title>hi_ret</title>
<ellipse fill="none" stroke="#000000" cx="421" cy="-251" rx="27" ry="18"/>
<text text-anchor="middle" x="421" y="-247.3" font-family="Times,serif" font-size="14.00" fill="#000000">I</text>
</g>
<!-- hi_retp&#45;&gt;hi_ret -->
<g id="edge29" class="edge">
<title>hi_retp&#45;&gt;hi_ret</title>
<path fill="none" stroke="#ff0000" d="M349.9583,-495.1342C357.7676,-481.4227 368.5288,-461.4033 376,-443 398.6221,-387.2768 411.3863,-317.6252 417.1699,-279.396"/>
<polygon fill="#ff0000" stroke="#ff0000" points="420.7008,-279.4377 418.6813,-269.0371 413.7741,-278.427 420.7008,-279.4377"/>
<text text-anchor="middle" x="400.5" y="-377.8" font-family="Times,serif" font-size="14.00" fill="#000000">2</text>
</g>
<!-- x_o2 -->
<g id="node19" class="node">
<title>x_o2</title>
<ellipse fill="none" stroke="#000000" cx="184" cy="-512" rx="27" ry="18"/>
<text text-anchor="middle" x="184" y="-508.3" font-family="Times,serif" font-size="14.00" fill="#000000">!c</text>
</g>
<!-- o2&#45;&gt;x_o2 -->
<g id="edge20" class="edge">
<title>o2&#45;&gt;x_o2</title>
<path fill="none" stroke="#0000ff" d="M228.3954,-582.2255C220.3301,-569.4677 209.0992,-551.7024 199.9516,-537.2325"/>
<polygon fill="#0000ff" stroke="#0000ff" points="202.874,-535.3053 194.572,-528.723 196.9572,-539.0458 202.874,-535.3053"/>
</g>
<!-- ret_o2 -->
<g id="node20" class="node">
<title>ret_o2</title>
<ellipse fill="none" stroke="#000000" cx="204" cy="-251" rx="27" ry="18"/>
<text text-anchor="middle" x="204" y="-247.3" font-family="Times,serif" font-size="14.00" fill="#000000">I</text>
</g>
<!-- o2&#45;&gt;ret_o2 -->
<g id="edge21" class="edge">
<title>o2&#45;&gt;ret_o2</title>
<path fill="none" stroke="#ff0000" d="M239,-580.6694C239,-563.0629 239,-535.7135 239,-512 239,-512 239,-512 239,-338 239,-316.0212 229.2668,-293.0292 220.0659,-276.2047"/>
<polygon fill="#ff0000" stroke="#ff0000" points="223.0981,-274.4566 215.0742,-267.5379 217.0323,-277.9503 223.0981,-274.4566"/>
</g>
<!-- o2l&#45;&gt;hi_retp -->
<g id="edge27" class="edge">
<title>o2l&#45;&gt;hi_retp</title>
<path fill="none" stroke="#ff0000" d="M353.4776,-580.9735C351.1754,-569.1918 348.121,-553.5607 345.5022,-540.1581"/>
<polygon fill="#ff0000" stroke="#ff0000" points="348.8708,-539.1465 343.5179,-530.0034 342.0007,-540.489 348.8708,-539.1465"/>
<text text-anchor="middle" x="352.5" y="-551.8" font-family="Times,serif" font-size="14.00" fill="#000000">1</text>
</g>
<!-- o2l&#45;&gt;f_ret -->
<g id="edge28" class="edge">
<title>o2l&#45;&gt;f_ret</title>
<path fill="none" stroke="#0000ff" d="M367.6046,-582.2255C375.6699,-569.4677 386.9008,-551.7024 396.0484,-537.2325"/>
<polygon fill="#0000ff" stroke="#0000ff" points="399.0428,-539.0458 401.428,-528.723 393.126,-535.3053 399.0428,-539.0458"/>
</g>
<!-- x1_o2 -->
<g id="node21" class="node">
<title>x1_o2</title>
<ellipse fill="none" stroke="#000000" cx="130" cy="-251" rx="27" ry="18"/>
<text text-anchor="middle" x="130" y="-247.3" font-family="Times,serif" font-size="14.00" fill="#000000">I</text>
</g>
<!-- x_o2&#45;&gt;x1_o2 -->
<g id="edge22" class="edge">
<title>x_o2&#45;&gt;x1_o2</title>
<path fill="none" stroke="#0000ff" d="M173.0381,-495.4852C164.661,-481.9722 153.6259,-462.0486 148,-443 131.3851,-386.7445 129.0814,-317.5589 129.2822,-279.4916"/>
<polygon fill="#0000ff" stroke="#0000ff" points="132.7856,-279.211 129.4035,-269.1705 125.7861,-279.1286 132.7856,-279.211"/>
</g>
<!-- x2_o2 -->
<g id="node22" class="node">
<title>x2_o2</title>
<ellipse fill="none" stroke="#000000" cx="184" cy="-425" rx="27" ry="18"/>
<text text-anchor="middle" x="184" y="-421.3" font-family="Times,serif" font-size="14.00" fill="#000000">!d</text>
</g>
<!-- x_o2&#45;&gt;x2_o2 -->
<g id="edge23" class="edge">
<title>x_o2&#45;&gt;x2_o2</title>
<path fill="none" stroke="#0000ff" d="M184,-493.9735C184,-482.1918 184,-466.5607 184,-453.1581"/>
<polygon fill="#0000ff" stroke="#0000ff" points="187.5001,-453.0033 184,-443.0034 180.5001,-453.0034 187.5001,-453.0033"/>
</g>
<!-- x2i_o2 -->
<g id="node23" class="node">
<title>x2i_o2</title>
<ellipse fill="none" stroke="#000000" cx="184" cy="-338" rx="27" ry="18"/>
<text text-anchor="middle" x="184" y="-334.3" font-family="Times,serif" font-size="14.00" fill="#000000">PiL</text>
</g>
<!-- x2_o2&#45;&gt;x2i_o2 -->
<g id="edge24" class="edge">
<title>x2_o2&#45;&gt;x2i_o2</title>
<path fill="none" stroke="#0000ff" d="M184,-406.9735C184,-395.1918 184,-379.5607 184,-366.1581"/>
<polygon fill="#0000ff" stroke="#0000ff" points="187.5001,-366.0033 184,-356.0034 180.5001,-366.0034 187.5001,-366.0033"/>
</g>
<!-- x2i_o2&#45;&gt;ret_o2 -->
<g id="edge26" class="edge">
<title>x2i_o2&#45;&gt;ret_o2</title>
<path fill="none" stroke="#0000ff" d="M188.144,-319.9735C190.8793,-308.0751 194.5171,-292.2508 197.6182,-278.7606"/>
<polygon fill="#0000ff" stroke="#0000ff" points="201.0318,-279.5333 199.8613,-269.0034 194.2098,-277.965 201.0318,-279.5333"/>
</g>
<!-- x2i_o2&#45;&gt;x1_o2 -->
<g id="edge25" class="edge">
<title>x2i_o2&#45;&gt;x1_o2</title>
<path fill="none" stroke="#ff0000" d="M173.5883,-321.2255C165.6696,-308.4677 154.6429,-290.7024 145.6615,-276.2325"/>
<polygon fill="#ff0000" stroke="#ff0000" points="148.6272,-274.3736 140.3798,-267.723 142.6797,-278.0652 148.6272,-274.3736"/>
</g>
<!-- h&#45;&gt;hi_ret -->
<g id="edge39" class="edge">
<title>h&#45;&gt;hi_ret</title>
<path fill="none" stroke="#0000ff" d="M376.6046,-321.2255C384.6699,-308.4677 395.9008,-290.7024 405.0484,-276.2325"/>
<polygon fill="#0000ff" stroke="#0000ff" points="408.0428,-278.0458 410.428,-267.723 402.126,-274.3053 408.0428,-278.0458"/>
</g>
<!-- h&#45;&gt;h_app -->
<g id="edge38" class="edge">
<title>h&#45;&gt;h_app</title>
<path fill="none" stroke="#ff0000" d="M362.4776,-319.9735C360.1754,-308.1918 357.121,-292.5607 354.5022,-279.1581"/>
<polygon fill="#ff0000" stroke="#ff0000" points="357.8708,-278.1465 352.5179,-269.0034 351.0007,-279.489 357.8708,-278.1465"/>
</g>
<!-- i_i -->
<g id="node28" class="node">
<title>i_i</title>
<ellipse fill="none" stroke="#000000" cx="277" cy="-164" rx="27" ry="18"/>
<text text-anchor="middle" x="277" y="-160.3" font-family="Times,serif" font-size="14.00" fill="#000000">PiR</text>
</g>
<!-- i&#45;&gt;i_i -->
<g id="edge34" class="edge">
<title>i&#45;&gt;i_i</title>
<path fill="none" stroke="#ff0000" d="M277,-232.9735C277,-221.1918 277,-205.5607 277,-192.1581"/>
<polygon fill="#ff0000" stroke="#ff0000" points="280.5001,-192.0033 277,-182.0034 273.5001,-192.0034 280.5001,-192.0033"/>
<text text-anchor="middle" x="280.5" y="-203.8" font-family="Times,serif" font-size="14.00" fill="#000000">3</text>
</g>
<!-- il -->
<g id="node29" class="node">
<title>il</title>
<ellipse fill="none" stroke="#000000" cx="320" cy="-91" rx="27" ry="18"/>
<text text-anchor="middle" x="320" y="-87.3" font-family="Times,serif" font-size="14.00" fill="#000000">!d</text>
</g>
<!-- i_i&#45;&gt;il -->
<g id="edge35" class="edge">
<title>i_i&#45;&gt;il</title>
<path fill="none" stroke="#0000ff" d="M286.9731,-147.0688C292.2918,-138.0396 298.9465,-126.742 304.8861,-116.6585"/>
<polygon fill="#0000ff" stroke="#0000ff" points="308.0212,-118.232 310.0809,-107.8393 301.9898,-114.6793 308.0212,-118.232"/>
</g>
<!-- i_ret -->
<g id="node30" class="node">
<title>i_ret</title>
<ellipse fill="none" stroke="#000000" cx="277" cy="-18" rx="27" ry="18"/>
<text text-anchor="middle" x="277" y="-14.3" font-family="Times,serif" font-size="14.00" fill="#000000">I</text>
</g>
<!-- i_i&#45;&gt;i_ret -->
<g id="edge36" class="edge">
<title>i_i&#45;&gt;i_ret</title>
<path fill="none" stroke="#ff0000" d="M277,-145.8042C277,-120.8868 277,-75.8938 277,-46.4877"/>
<polygon fill="#ff0000" stroke="#ff0000" points="280.5001,-46.4251 277,-36.4251 273.5001,-46.4251 280.5001,-46.4251"/>
</g>
<!-- il&#45;&gt;i_ret -->
<g id="edge37" class="edge">
<title>il&#45;&gt;i_ret</title>
<path fill="none" stroke="#0000ff" d="M310.0269,-74.0688C304.7082,-65.0396 298.0535,-53.742 292.1139,-43.6585"/>
<polygon fill="#0000ff" stroke="#0000ff" points="295.0102,-41.6793 286.9191,-34.8393 288.9788,-45.232 295.0102,-41.6793"/>
</g>
</g>
</svg>
