<?xml version="1.0" encoding="UTF-8" standalone="no"?>
<!DOCTYPE svg PUBLIC "-//W3C//DTD SVG 1.1//EN"
 "http://www.w3.org/Graphics/SVG/1.1/DTD/svg11.dtd">
<!-- Generated by graphviz version 2.40.1 (20161225.0304)
 -->
<!-- Title: %3 Pages: 1 -->
<svg width="255pt" height="620pt"
 viewBox="0.00 0.00 255.24 620.00" xmlns="http://www.w3.org/2000/svg" xmlns:xlink="http://www.w3.org/1999/xlink">
<g id="graph0" class="graph" transform="scale(1 1) rotate(0) translate(4 616)">
<title>%3</title>
<polygon fill="#ffffff" stroke="transparent" points="-4,4 -4,-616 251.2428,-616 251.2428,4 -4,4"/>
<!-- r -->
<g id="node1" class="node">
<title>r</title>
<ellipse fill="none" stroke="#000000" cx="71.4971" cy="-594" rx="27" ry="18"/>
<text text-anchor="middle" x="71.4971" y="-590.3" font-family="Times,serif" font-size="14.00" fill="#000000">r =</text>
</g>
<!-- p -->
<g id="node2" class="node">
<title>p</title>
<ellipse fill="none" stroke="#000000" cx="71.4971" cy="-522" rx="27" ry="18"/>
<text text-anchor="middle" x="71.4971" y="-518.3" font-family="Times,serif" font-size="14.00" fill="#000000">I</text>
</g>
<!-- r&#45;&gt;p -->
<g id="edge1" class="edge">
<title>r&#45;&gt;p</title>
<path fill="none" stroke="#ff0000" d="M71.4971,-575.8314C71.4971,-568.131 71.4971,-558.9743 71.4971,-550.4166"/>
<polygon fill="#ff0000" stroke="#ff0000" points="74.9972,-550.4132 71.4971,-540.4133 67.9972,-550.4133 74.9972,-550.4132"/>
</g>
<!-- m -->
<g id="node9" class="node">
<title>m</title>
<ellipse fill="none" stroke="#000000" cx="71.4971" cy="-450" rx="27" ry="18"/>
<text text-anchor="middle" x="71.4971" y="-446.3" font-family="Times,serif" font-size="14.00" fill="#000000">PiL</text>
</g>
<!-- p&#45;&gt;m -->
<g id="edge14" class="edge">
<title>p&#45;&gt;m</title>
<path fill="none" stroke="#0000ff" d="M71.4971,-493.5726C71.4971,-485.1084 71.4971,-476.0593 71.4971,-468.4133"/>
<polygon fill="#0000ff" stroke="#0000ff" points="67.9972,-493.8313 71.4971,-503.8314 74.9972,-493.8314 67.9972,-493.8313"/>
</g>
<!-- c1 -->
<g id="node3" class="node">
<title>c1</title>
<ellipse fill="none" stroke="#000000" cx="35.4971" cy="-306" rx="27.8951" ry="18"/>
<text text-anchor="middle" x="35.4971" y="-302.3" font-family="Times,serif" font-size="14.00" fill="#000000">Cut</text>
</g>
<!-- a -->
<g id="node4" class="node">
<title>a</title>
<ellipse fill="none" stroke="#000000" cx="33.4971" cy="-234" rx="27" ry="18"/>
<text text-anchor="middle" x="33.4971" y="-230.3" font-family="Times,serif" font-size="14.00" fill="#000000">!</text>
</g>
<!-- c1&#45;&gt;a -->
<g id="edge2" class="edge">
<title>c1&#45;&gt;a</title>
<path fill="none" stroke="#ff0000" d="M34.9924,-287.8314C34.7785,-280.131 34.5242,-270.9743 34.2865,-262.4166"/>
<polygon fill="#ff0000" stroke="#ff0000" points="37.785,-262.3122 34.0086,-252.4133 30.7877,-262.5066 37.785,-262.3122"/>
</g>
<!-- b -->
<g id="node6" class="node">
<title>b</title>
<ellipse fill="none" stroke="#000000" cx="32.4971" cy="-162" rx="32.4942" ry="18"/>
<text text-anchor="middle" x="32.4971" y="-158.3" font-family="Times,serif" font-size="14.00" fill="#000000">True</text>
</g>
<!-- a&#45;&gt;b -->
<g id="edge4" class="edge">
<title>a&#45;&gt;b</title>
<path fill="none" stroke="#ff0000" d="M33.2448,-215.8314C33.1378,-208.131 33.0106,-198.9743 32.8918,-190.4166"/>
<polygon fill="#ff0000" stroke="#ff0000" points="36.3915,-190.3637 32.7529,-180.4133 29.3922,-190.4609 36.3915,-190.3637"/>
</g>
<!-- n -->
<g id="node5" class="node">
<title>n</title>
<ellipse fill="none" stroke="#000000" cx="35.4971" cy="-378" rx="27" ry="18"/>
<text text-anchor="middle" x="35.4971" y="-374.3" font-family="Times,serif" font-size="14.00" fill="#000000">I</text>
</g>
<!-- n&#45;&gt;c1 -->
<g id="edge3" class="edge">
<title>n&#45;&gt;c1</title>
<path fill="none" stroke="#0000ff" d="M35.4971,-349.5726C35.4971,-341.1084 35.4971,-332.0593 35.4971,-324.4133"/>
<polygon fill="#0000ff" stroke="#0000ff" points="31.9972,-349.8313 35.4971,-359.8314 38.9972,-349.8314 31.9972,-349.8313"/>
</g>
<!-- c2 -->
<g id="node7" class="node">
<title>c2</title>
<ellipse fill="none" stroke="#000000" cx="108.4971" cy="-378" rx="27.8951" ry="18"/>
<text text-anchor="middle" x="108.4971" y="-374.3" font-family="Times,serif" font-size="14.00" fill="#000000">Cut</text>
</g>
<!-- l -->
<g id="node8" class="node">
<title>l</title>
<ellipse fill="none" stroke="#000000" cx="109.4971" cy="-306" rx="27" ry="18"/>
<text text-anchor="middle" x="109.4971" y="-302.3" font-family="Times,serif" font-size="14.00" fill="#000000">I</text>
</g>
<!-- c2&#45;&gt;l -->
<g id="edge5" class="edge">
<title>c2&#45;&gt;l</title>
<path fill="none" stroke="#ff0000" d="M108.7495,-359.8314C108.8564,-352.131 108.9836,-342.9743 109.1024,-334.4166"/>
<polygon fill="#ff0000" stroke="#ff0000" points="112.6021,-334.4609 109.2414,-324.4133 105.6027,-334.3637 112.6021,-334.4609"/>
</g>
<!-- j -->
<g id="node15" class="node">
<title>j</title>
<ellipse fill="none" stroke="#000000" cx="109.4971" cy="-234" rx="27" ry="18"/>
<text text-anchor="middle" x="109.4971" y="-230.3" font-family="Times,serif" font-size="14.00" fill="#000000">PiL</text>
</g>
<!-- l&#45;&gt;j -->
<g id="edge12" class="edge">
<title>l&#45;&gt;j</title>
<path fill="none" stroke="#0000ff" d="M109.4971,-277.5726C109.4971,-269.1084 109.4971,-260.0593 109.4971,-252.4133"/>
<polygon fill="#0000ff" stroke="#0000ff" points="105.9972,-277.8313 109.4971,-287.8314 112.9972,-277.8314 105.9972,-277.8313"/>
</g>
<!-- m&#45;&gt;n -->
<g id="edge13" class="edge">
<title>m&#45;&gt;n</title>
<path fill="none" stroke="#ff0000" d="M62.7825,-432.5708C58.5374,-424.0807 53.3435,-413.6929 48.6308,-404.2674"/>
<polygon fill="#ff0000" stroke="#ff0000" points="51.7341,-402.6477 44.1315,-395.2687 45.4732,-405.7782 51.7341,-402.6477"/>
</g>
<!-- m&#45;&gt;c2 -->
<g id="edge6" class="edge">
<title>m&#45;&gt;c2</title>
<path fill="none" stroke="#0000ff" d="M84.9056,-423.9077C89.7709,-414.4402 95.1456,-403.9813 99.5345,-395.4407"/>
<polygon fill="#0000ff" stroke="#0000ff" points="81.7233,-422.4429 80.2656,-432.937 87.9494,-425.6424 81.7233,-422.4429"/>
</g>
<!-- c3 -->
<g id="node10" class="node">
<title>c3</title>
<ellipse fill="none" stroke="#000000" cx="103.4971" cy="-90" rx="27.8951" ry="18"/>
<text text-anchor="middle" x="103.4971" y="-86.3" font-family="Times,serif" font-size="14.00" fill="#000000">Cut</text>
</g>
<!-- c -->
<g id="node11" class="node">
<title>c</title>
<ellipse fill="none" stroke="#000000" cx="103.4971" cy="-18" rx="35.194" ry="18"/>
<text text-anchor="middle" x="103.4971" y="-14.3" font-family="Times,serif" font-size="14.00" fill="#000000">False</text>
</g>
<!-- c3&#45;&gt;c -->
<g id="edge7" class="edge">
<title>c3&#45;&gt;c</title>
<path fill="none" stroke="#ff0000" d="M103.4971,-71.8314C103.4971,-64.131 103.4971,-54.9743 103.4971,-46.4166"/>
<polygon fill="#ff0000" stroke="#ff0000" points="106.9972,-46.4132 103.4971,-36.4133 99.9972,-46.4133 106.9972,-46.4132"/>
</g>
<!-- k -->
<g id="node12" class="node">
<title>k</title>
<ellipse fill="none" stroke="#000000" cx="109.4971" cy="-162" rx="27" ry="18"/>
<text text-anchor="middle" x="109.4971" y="-158.3" font-family="Times,serif" font-size="14.00" fill="#000000">I</text>
</g>
<!-- k&#45;&gt;c3 -->
<g id="edge8" class="edge">
<title>k&#45;&gt;c3</title>
<path fill="none" stroke="#0000ff" d="M107.1517,-133.8545C106.4396,-125.3097 105.6758,-116.1442 105.0316,-108.4133"/>
<polygon fill="#0000ff" stroke="#0000ff" points="103.6646,-134.1566 107.9831,-143.8314 110.6404,-133.5752 103.6646,-134.1566"/>
</g>
<!-- c4 -->
<g id="node13" class="node">
<title>c4</title>
<ellipse fill="none" stroke="#000000" cx="193.4971" cy="-162" rx="27.8951" ry="18"/>
<text text-anchor="middle" x="193.4971" y="-158.3" font-family="Times,serif" font-size="14.00" fill="#000000">Cut</text>
</g>
<!-- d2 -->
<g id="node14" class="node">
<title>d2</title>
<ellipse fill="none" stroke="#000000" cx="198.4971" cy="-90" rx="48.9926" ry="18"/>
<text text-anchor="middle" x="198.4971" y="-86.3" font-family="Times,serif" font-size="14.00" fill="#000000">Use and</text>
</g>
<!-- c4&#45;&gt;d2 -->
<g id="edge9" class="edge">
<title>c4&#45;&gt;d2</title>
<path fill="none" stroke="#ff0000" d="M194.7588,-143.8314C195.2936,-136.131 195.9295,-126.9743 196.5237,-118.4166"/>
<polygon fill="#ff0000" stroke="#ff0000" points="200.0171,-118.6317 197.2184,-108.4133 193.034,-118.1467 200.0171,-118.6317"/>
</g>
<!-- j&#45;&gt;k -->
<g id="edge11" class="edge">
<title>j&#45;&gt;k</title>
<path fill="none" stroke="#ff0000" d="M109.4971,-215.8314C109.4971,-208.131 109.4971,-198.9743 109.4971,-190.4166"/>
<polygon fill="#ff0000" stroke="#ff0000" points="112.9972,-190.4132 109.4971,-180.4133 105.9972,-190.4133 112.9972,-190.4132"/>
</g>
<!-- j&#45;&gt;c4 -->
<g id="edge10" class="edge">
<title>j&#45;&gt;c4</title>
<path fill="none" stroke="#0000ff" d="M133.768,-213.1964C147.5107,-201.417 164.355,-186.9789 176.6484,-176.4418"/>
<polygon fill="#0000ff" stroke="#0000ff" points="131.4076,-210.6098 126.0928,-219.7751 135.9632,-215.9246 131.4076,-210.6098"/>
</g>
</g>
</svg>
