<?xml version="1.0" encoding="UTF-8" standalone="no"?>
<!DOCTYPE svg PUBLIC "-//W3C//DTD SVG 1.1//EN"
 "http://www.w3.org/Graphics/SVG/1.1/DTD/svg11.dtd">
<!-- Generated by graphviz version 2.40.1 (20161225.0304)
 -->
<!-- Title: %3 Pages: 1 -->
<svg width="355pt" height="914pt"
 viewBox="0.00 0.00 355.00 913.90" xmlns="http://www.w3.org/2000/svg" xmlns:xlink="http://www.w3.org/1999/xlink">
<g id="graph0" class="graph" transform="scale(1 1) rotate(0) translate(4 909.895)">
<title>%3</title>
<polygon fill="#ffffff" stroke="transparent" points="-4,4 -4,-909.895 351,-909.895 351,4 -4,4"/>
<!-- Root -->
<g id="node1" class="node">
<title>Root</title>
<ellipse fill="none" stroke="#000000" cx="188" cy="-699.9475" rx="32.4942" ry="18"/>
<text text-anchor="middle" x="188" y="-696.2475" font-family="Times,serif" font-size="14.00" fill="#000000">Root</text>
</g>
<!-- d1 -->
<g id="node2" class="node">
<title>d1</title>
<ellipse fill="none" stroke="#000000" cx="164" cy="-599" rx="29.795" ry="18"/>
<text text-anchor="middle" x="164" y="-595.3" font-family="Times,serif" font-size="14.00" fill="#000000">Dup</text>
</g>
<!-- Root&#45;&gt;d1 -->
<g id="edge1" class="edge">
<title>Root&#45;&gt;d1</title>
<path fill="none" stroke="#ff0000" stroke-width="2" d="M183.7093,-681.9001C180.0575,-666.5403 174.754,-644.2328 170.5681,-626.6263"/>
<polygon fill="#ff0000" stroke="#ff0000" stroke-width="2" points="173.9717,-625.8104 168.2536,-616.8911 167.1616,-627.4296 173.9717,-625.8104"/>
<text text-anchor="middle" x="193.5" y="-638.8" font-family="Times,serif" font-size="14.00" fill="#000000">0&#45;&gt;1</text>
</g>
<!-- d2 -->
<g id="node6" class="node">
<title>d2</title>
<ellipse fill="none" stroke="#000000" cx="69" cy="-599" rx="29.795" ry="18"/>
<text text-anchor="middle" x="69" y="-595.3" font-family="Times,serif" font-size="14.00" fill="#000000">Dup</text>
</g>
<!-- d1&#45;&gt;d2 -->
<g id="edge4" class="edge">
<title>d1&#45;&gt;d2</title>
<path fill="none" stroke="#000000" stroke-dasharray="5,2" d="M134.0661,-599C122.3969,-599 110.7278,-599 99.0586,-599"/>
</g>
<!-- f_ret -->
<g id="node7" class="node">
<title>f_ret</title>
<ellipse fill="none" stroke="#000000" cx="180" cy="-512" rx="27" ry="18"/>
<text text-anchor="middle" x="180" y="-508.3" font-family="Times,serif" font-size="14.00" fill="#000000">I</text>
</g>
<!-- d1&#45;&gt;f_ret -->
<g id="edge5" class="edge">
<title>d1&#45;&gt;f_ret</title>
<path fill="none" stroke="#ff0000" stroke-width="2" d="M167.3152,-580.9735C169.482,-569.1918 172.3567,-553.5607 174.8215,-540.1581"/>
<polygon fill="#ff0000" stroke="#ff0000" stroke-width="2" points="178.3225,-540.4715 176.689,-530.0034 171.4379,-539.2053 178.3225,-540.4715"/>
</g>
<!-- c1a -->
<g id="node3" class="node">
<title>c1a</title>
<ellipse fill="none" stroke="#000000" cx="106" cy="-887.895" rx="27.8951" ry="18"/>
<text text-anchor="middle" x="106" y="-884.195" font-family="Times,serif" font-size="14.00" fill="#000000">Cut</text>
</g>
<!-- fp1 -->
<g id="node4" class="node">
<title>fp1</title>
<ellipse fill="none" stroke="#000000" cx="147" cy="-800.895" rx="27" ry="18"/>
<text text-anchor="middle" x="147" y="-797.195" font-family="Times,serif" font-size="14.00" fill="#000000">!p</text>
</g>
<!-- c1a&#45;&gt;fp1 -->
<g id="edge2" class="edge">
<title>c1a&#45;&gt;fp1</title>
<path fill="none" stroke="#ff0000" d="M114.297,-870.2893C120.1146,-857.9446 127.9936,-841.2256 134.5603,-827.2915"/>
<polygon fill="#ff0000" stroke="#ff0000" points="137.7583,-828.7156 138.8553,-818.1777 131.4262,-825.7315 137.7583,-828.7156"/>
<text text-anchor="middle" x="134" y="-840.695" font-family="Times,serif" font-size="14.00" fill="#000000">0</text>
</g>
<!-- x1_o1 -->
<g id="node5" class="node">
<title>x1_o1</title>
<ellipse fill="none" stroke="#000000" cx="75" cy="-800.895" rx="27" ry="18"/>
<text text-anchor="middle" x="75" y="-797.195" font-family="Times,serif" font-size="14.00" fill="#000000">I</text>
</g>
<!-- c1a&#45;&gt;x1_o1 -->
<g id="edge3" class="edge">
<title>c1a&#45;&gt;x1_o1</title>
<path fill="none" stroke="#0000ff" d="M99.7267,-870.2893C95.3988,-858.1433 89.562,-841.7625 84.646,-827.9662"/>
<polygon fill="#0000ff" stroke="#0000ff" points="87.9175,-826.7197 81.264,-818.4746 81.3236,-829.0693 87.9175,-826.7197"/>
</g>
<!-- f2 -->
<g id="node10" class="node">
<title>f2</title>
<ellipse fill="none" stroke="#000000" cx="111" cy="-699.9475" rx="27" ry="18"/>
<text text-anchor="middle" x="111" y="-696.2475" font-family="Times,serif" font-size="14.00" fill="#000000">PiR</text>
</g>
<!-- fp1&#45;&gt;f2 -->
<g id="edge11" class="edge">
<title>fp1&#45;&gt;f2</title>
<path fill="none" stroke="#ff0000" d="M140.7293,-783.3113C135.2138,-767.8454 127.0959,-745.0821 120.7361,-727.2484"/>
<polygon fill="#ff0000" stroke="#ff0000" points="123.9754,-725.9117 117.3197,-717.6684 117.3821,-728.2631 123.9754,-725.9117"/>
<text text-anchor="middle" x="139" y="-753.695" font-family="Times,serif" font-size="14.00" fill="#000000">1</text>
</g>
<!-- hi_retp -->
<g id="node9" class="node">
<title>hi_retp</title>
<ellipse fill="none" stroke="#000000" cx="76" cy="-512" rx="27" ry="18"/>
<text text-anchor="middle" x="76" y="-508.3" font-family="Times,serif" font-size="14.00" fill="#000000">!p</text>
</g>
<!-- d2&#45;&gt;hi_retp -->
<g id="edge8" class="edge">
<title>d2&#45;&gt;hi_retp</title>
<path fill="none" stroke="#0000ff" d="M70.4504,-580.9735C71.3984,-569.1918 72.656,-553.5607 73.7344,-540.1581"/>
<polygon fill="#0000ff" stroke="#0000ff" points="77.2381,-540.2519 74.5515,-530.0034 70.2606,-539.6904 77.2381,-540.2519"/>
<text text-anchor="middle" x="78" y="-551.8" font-family="Times,serif" font-size="14.00" fill="#000000">1</text>
</g>
<!-- c1bb -->
<g id="node8" class="node">
<title>c1bb</title>
<ellipse fill="none" stroke="#000000" cx="28" cy="-887.895" rx="27.8951" ry="18"/>
<text text-anchor="middle" x="28" y="-884.195" font-family="Times,serif" font-size="14.00" fill="#000000">Cut</text>
</g>
<!-- c1bb&#45;&gt;x1_o1 -->
<g id="edge6" class="edge">
<title>c1bb&#45;&gt;x1_o1</title>
<path fill="none" stroke="#ff0000" d="M37.2857,-870.7066C44.0449,-858.195 53.317,-841.0316 60.9761,-826.8542"/>
<polygon fill="#ff0000" stroke="#ff0000" points="64.0599,-828.5095 65.7336,-818.0477 57.9011,-825.1824 64.0599,-828.5095"/>
<text text-anchor="middle" x="60" y="-840.695" font-family="Times,serif" font-size="14.00" fill="#000000">0</text>
</g>
<!-- c1bb&#45;&gt;d2 -->
<g id="edge7" class="edge">
<title>c1bb&#45;&gt;d2</title>
<path fill="none" stroke="#0000ff" d="M29.5918,-869.6474C31.4956,-848.673 34.9395,-813.2338 39,-782.895 46.4083,-727.5423 57.4681,-663.2142 63.8853,-627.1898"/>
<polygon fill="#0000ff" stroke="#0000ff" points="67.3997,-627.4204 65.7186,-616.9598 60.5095,-626.1856 67.3997,-627.4204"/>
<text text-anchor="middle" x="49" y="-753.695" font-family="Times,serif" font-size="14.00" fill="#000000">1</text>
</g>
<!-- hi_ret -->
<g id="node19" class="node">
<title>hi_ret</title>
<ellipse fill="none" stroke="#000000" cx="27" cy="-251" rx="27" ry="18"/>
<text text-anchor="middle" x="27" y="-247.3" font-family="Times,serif" font-size="14.00" fill="#000000">I</text>
</g>
<!-- hi_retp&#45;&gt;hi_ret -->
<g id="edge23" class="edge">
<title>hi_retp&#45;&gt;hi_ret</title>
<path fill="none" stroke="#ff0000" d="M66.8015,-494.9528C59.882,-481.3045 50.7992,-461.4574 46,-443 31.2316,-386.2017 27.7785,-317.2162 27.0699,-279.3294"/>
<polygon fill="#ff0000" stroke="#ff0000" points="30.5661,-279.0125 26.932,-269.0604 23.5667,-279.1065 30.5661,-279.0125"/>
<text text-anchor="middle" x="41" y="-377.8" font-family="Times,serif" font-size="14.00" fill="#000000">2</text>
</g>
<!-- h_di -->
<g id="node20" class="node">
<title>h_di</title>
<ellipse fill="none" stroke="#000000" cx="82" cy="-425" rx="27" ry="18"/>
<text text-anchor="middle" x="82" y="-421.3" font-family="Times,serif" font-size="14.00" fill="#000000">!d</text>
</g>
<!-- hi_retp&#45;&gt;h_di -->
<g id="edge24" class="edge">
<title>hi_retp&#45;&gt;h_di</title>
<path fill="none" stroke="#0000ff" d="M77.2432,-493.9735C78.0557,-482.1918 79.1337,-466.5607 80.0581,-453.1581"/>
<polygon fill="#0000ff" stroke="#0000ff" points="83.562,-453.2205 80.7584,-443.0034 76.5786,-452.7388 83.562,-453.2205"/>
<text text-anchor="middle" x="85" y="-464.8" font-family="Times,serif" font-size="14.00" fill="#000000">1</text>
</g>
<!-- f2&#45;&gt;d1 -->
<g id="edge9" class="edge">
<title>f2&#45;&gt;d1</title>
<path fill="none" stroke="#ff0000" d="M119.9907,-682.8231C128.5185,-666.5805 141.425,-641.998 151.059,-623.6484"/>
<ellipse fill="none" stroke="#ff0000" cx="153.1057" cy="-619.7499" rx="4" ry="4"/>
</g>
<!-- f2&#45;&gt;d2 -->
<g id="edge10" class="edge">
<title>f2&#45;&gt;d2</title>
<path fill="none" stroke="#0000ff" d="M103.6842,-682.3638C97.0399,-666.3943 87.1587,-642.6446 79.6407,-624.5751"/>
<ellipse fill="none" stroke="#0000ff" cx="77.9095" cy="-620.414" rx="4" ry="4"/>
</g>
<!-- c2 -->
<g id="node11" class="node">
<title>c2</title>
<ellipse fill="none" stroke="#000000" cx="275" cy="-699.9475" rx="27.9017" ry="27.9017"/>
<ellipse fill="none" stroke="#000000" cx="275" cy="-699.9475" rx="31.8951" ry="31.8951"/>
<text text-anchor="middle" x="275" y="-696.2475" font-family="Times,serif" font-size="14.00" fill="#000000">Cut</text>
</g>
<!-- o2 -->
<g id="node12" class="node">
<title>o2</title>
<ellipse fill="none" stroke="#000000" cx="311" cy="-599" rx="27" ry="18"/>
<text text-anchor="middle" x="311" y="-595.3" font-family="Times,serif" font-size="14.00" fill="#000000">PiR</text>
</g>
<!-- c2&#45;&gt;o2 -->
<g id="edge12" class="edge">
<title>c2&#45;&gt;o2</title>
<path fill="none" stroke="#ff0000" d="M285.8012,-669.6599C290.7194,-655.8688 296.4961,-639.6704 301.2769,-626.2644"/>
<polygon fill="#ff0000" stroke="#ff0000" points="304.6456,-627.2379 304.708,-616.6432 298.0523,-624.8866 304.6456,-627.2379"/>
</g>
<!-- o2l -->
<g id="node13" class="node">
<title>o2l</title>
<ellipse fill="none" stroke="#000000" cx="239" cy="-599" rx="27" ry="18"/>
<text text-anchor="middle" x="239" y="-595.3" font-family="Times,serif" font-size="14.00" fill="#000000">PiL</text>
</g>
<!-- c2&#45;&gt;o2l -->
<g id="edge13" class="edge">
<title>c2&#45;&gt;o2l</title>
<path fill="none" stroke="#0000ff" stroke-width="2" d="M264.1988,-669.6599C259.2806,-655.8688 253.5039,-639.6704 248.7231,-626.2644"/>
<polygon fill="#0000ff" stroke="#0000ff" stroke-width="2" points="251.9477,-624.8866 245.292,-616.6432 245.3544,-627.2379 251.9477,-624.8866"/>
</g>
<!-- x_o2 -->
<g id="node14" class="node">
<title>x_o2</title>
<ellipse fill="none" stroke="#000000" cx="267" cy="-512" rx="27" ry="18"/>
<text text-anchor="middle" x="267" y="-508.3" font-family="Times,serif" font-size="14.00" fill="#000000">!c</text>
</g>
<!-- o2&#45;&gt;x_o2 -->
<g id="edge14" class="edge">
<title>o2&#45;&gt;x_o2</title>
<path fill="none" stroke="#0000ff" d="M302.307,-581.8116C296.0396,-569.4191 287.4641,-552.4631 280.334,-538.3651"/>
<polygon fill="#0000ff" stroke="#0000ff" points="283.3114,-536.4968 275.6749,-529.1527 277.0648,-539.656 283.3114,-536.4968"/>
</g>
<!-- ret_o2 -->
<g id="node15" class="node">
<title>ret_o2</title>
<ellipse fill="none" stroke="#000000" cx="320" cy="-251" rx="27" ry="18"/>
<text text-anchor="middle" x="320" y="-247.3" font-family="Times,serif" font-size="14.00" fill="#000000">I</text>
</g>
<!-- o2&#45;&gt;ret_o2 -->
<g id="edge15" class="edge">
<title>o2&#45;&gt;ret_o2</title>
<path fill="none" stroke="#ff0000" d="M314.6018,-581.0882C317.8099,-563.5569 322,-536.0546 322,-512 322,-512 322,-512 322,-338 322,-318.5423 321.4938,-296.6433 320.9908,-279.6839"/>
<polygon fill="#ff0000" stroke="#ff0000" points="324.4778,-279.2131 320.666,-269.3277 317.4812,-279.4326 324.4778,-279.2131"/>
</g>
<!-- o2l&#45;&gt;f_ret -->
<g id="edge22" class="edge">
<title>o2l&#45;&gt;f_ret</title>
<path fill="none" stroke="#0000ff" stroke-width="2" d="M232.7998,-581.1718C228.8164,-570.9791 223.0664,-558.2291 216,-548 212.5242,-542.9685 208.2976,-538.0271 203.9799,-533.4947"/>
<polygon fill="#0000ff" stroke="#0000ff" stroke-width="2" points="206.3061,-530.8721 196.7441,-526.3092 201.3737,-535.8391 206.3061,-530.8721"/>
</g>
<!-- o2l&#45;&gt;hi_retp -->
<g id="edge21" class="edge">
<title>o2l&#45;&gt;hi_retp</title>
<path fill="none" stroke="#ff0000" d="M217.6906,-587.6263C189.2584,-572.4508 138.7443,-545.4893 106.342,-528.1948"/>
<polygon fill="#ff0000" stroke="#ff0000" points="107.7847,-524.9976 97.3146,-523.3765 104.4886,-531.173 107.7847,-524.9976"/>
<text text-anchor="middle" x="173" y="-551.8" font-family="Times,serif" font-size="14.00" fill="#000000">1</text>
</g>
<!-- x1_o2 -->
<g id="node16" class="node">
<title>x1_o2</title>
<ellipse fill="none" stroke="#000000" cx="245" cy="-251" rx="27" ry="18"/>
<text text-anchor="middle" x="245" y="-247.3" font-family="Times,serif" font-size="14.00" fill="#000000">I</text>
</g>
<!-- x_o2&#45;&gt;x1_o2 -->
<g id="edge16" class="edge">
<title>x_o2&#45;&gt;x1_o2</title>
<path fill="none" stroke="#0000ff" d="M255.5508,-495.6168C246.8979,-482.1784 235.7298,-462.2906 231,-443 216.9595,-385.7354 228.9184,-316.2173 237.7111,-278.528"/>
<polygon fill="#0000ff" stroke="#0000ff" points="241.1199,-279.3222 240.0829,-268.7783 234.3183,-277.6676 241.1199,-279.3222"/>
</g>
<!-- x2_o2 -->
<g id="node17" class="node">
<title>x2_o2</title>
<ellipse fill="none" stroke="#000000" cx="267" cy="-425" rx="27" ry="18"/>
<text text-anchor="middle" x="267" y="-421.3" font-family="Times,serif" font-size="14.00" fill="#000000">!d</text>
</g>
<!-- x_o2&#45;&gt;x2_o2 -->
<g id="edge17" class="edge">
<title>x_o2&#45;&gt;x2_o2</title>
<path fill="none" stroke="#0000ff" d="M267,-493.9735C267,-482.1918 267,-466.5607 267,-453.1581"/>
<polygon fill="#0000ff" stroke="#0000ff" points="270.5001,-453.0033 267,-443.0034 263.5001,-453.0034 270.5001,-453.0033"/>
</g>
<!-- x2i_o2 -->
<g id="node18" class="node">
<title>x2i_o2</title>
<ellipse fill="none" stroke="#000000" cx="267" cy="-338" rx="27" ry="18"/>
<text text-anchor="middle" x="267" y="-334.3" font-family="Times,serif" font-size="14.00" fill="#000000">PiL</text>
</g>
<!-- x2_o2&#45;&gt;x2i_o2 -->
<g id="edge18" class="edge">
<title>x2_o2&#45;&gt;x2i_o2</title>
<path fill="none" stroke="#0000ff" d="M267,-406.9735C267,-395.1918 267,-379.5607 267,-366.1581"/>
<polygon fill="#0000ff" stroke="#0000ff" points="270.5001,-366.0033 267,-356.0034 263.5001,-366.0034 270.5001,-366.0033"/>
</g>
<!-- x2i_o2&#45;&gt;ret_o2 -->
<g id="edge20" class="edge">
<title>x2i_o2&#45;&gt;ret_o2</title>
<path fill="none" stroke="#0000ff" d="M277.2189,-321.2255C284.9176,-308.588 295.6096,-291.0371 304.3785,-276.6429"/>
<polygon fill="#0000ff" stroke="#0000ff" points="307.5988,-278.084 309.8124,-267.723 301.6208,-274.4422 307.5988,-278.084"/>
</g>
<!-- x2i_o2&#45;&gt;x1_o2 -->
<g id="edge19" class="edge">
<title>x2i_o2&#45;&gt;x1_o2</title>
<path fill="none" stroke="#ff0000" d="M262.4416,-319.9735C259.4328,-308.0751 255.4312,-292.2508 252.0199,-278.7606"/>
<polygon fill="#ff0000" stroke="#ff0000" points="255.3974,-277.8401 249.5526,-269.0034 248.611,-279.5563 255.3974,-277.8401"/>
</g>
<!-- h -->
<g id="node21" class="node">
<title>h</title>
<ellipse fill="none" stroke="#000000" cx="82" cy="-338" rx="27" ry="18"/>
<text text-anchor="middle" x="82" y="-334.3" font-family="Times,serif" font-size="14.00" fill="#000000">PiL</text>
</g>
<!-- h_di&#45;&gt;h -->
<g id="edge25" class="edge">
<title>h_di&#45;&gt;h</title>
<path fill="none" stroke="#0000ff" d="M82,-406.9735C82,-395.1918 82,-379.5607 82,-366.1581"/>
<polygon fill="#0000ff" stroke="#0000ff" points="85.5001,-366.0033 82,-356.0034 78.5001,-366.0034 85.5001,-366.0033"/>
<text text-anchor="middle" x="87" y="-377.8" font-family="Times,serif" font-size="14.00" fill="#000000">2</text>
</g>
<!-- h&#45;&gt;hi_ret -->
<g id="edge33" class="edge">
<title>h&#45;&gt;hi_ret</title>
<path fill="none" stroke="#0000ff" d="M71.3954,-321.2255C63.3301,-308.4677 52.0992,-290.7024 42.9516,-276.2325"/>
<polygon fill="#0000ff" stroke="#0000ff" points="45.874,-274.3053 37.572,-267.723 39.9572,-278.0458 45.874,-274.3053"/>
</g>
<!-- h_app -->
<g id="node24" class="node">
<title>h_app</title>
<ellipse fill="none" stroke="#000000" cx="99" cy="-251" rx="27" ry="18"/>
<text text-anchor="middle" x="99" y="-247.3" font-family="Times,serif" font-size="14.00" fill="#000000">I</text>
</g>
<!-- h&#45;&gt;h_app -->
<g id="edge32" class="edge">
<title>h&#45;&gt;h_app</title>
<path fill="none" stroke="#ff0000" d="M85.5224,-319.9735C87.8246,-308.1918 90.879,-292.5607 93.4978,-279.1581"/>
<polygon fill="#ff0000" stroke="#ff0000" points="96.9993,-279.489 95.4821,-269.0034 90.1292,-278.1465 96.9993,-279.489"/>
</g>
<!-- c3 -->
<g id="node22" class="node">
<title>c3</title>
<ellipse fill="none" stroke="#000000" cx="156" cy="-338" rx="27.8951" ry="18"/>
<text text-anchor="middle" x="156" y="-334.3" font-family="Times,serif" font-size="14.00" fill="#000000">Cut</text>
</g>
<!-- i -->
<g id="node23" class="node">
<title>i</title>
<ellipse fill="none" stroke="#000000" cx="171" cy="-251" rx="27" ry="18"/>
<text text-anchor="middle" x="171" y="-247.3" font-family="Times,serif" font-size="14.00" fill="#000000">!p</text>
</g>
<!-- c3&#45;&gt;i -->
<g id="edge26" class="edge">
<title>c3&#45;&gt;i</title>
<path fill="none" stroke="#ff0000" d="M159.108,-319.9735C161.1393,-308.1918 163.8344,-292.5607 166.1452,-279.1581"/>
<polygon fill="#ff0000" stroke="#ff0000" points="169.6459,-279.4527 167.896,-269.0034 162.7477,-278.2633 169.6459,-279.4527"/>
<text text-anchor="middle" x="170" y="-290.8" font-family="Times,serif" font-size="14.00" fill="#000000">2</text>
</g>
<!-- c3&#45;&gt;h_app -->
<g id="edge27" class="edge">
<title>c3&#45;&gt;h_app</title>
<path fill="none" stroke="#0000ff" d="M145.0098,-321.2255C136.6512,-308.4677 125.0119,-290.7024 115.5316,-276.2325"/>
<polygon fill="#0000ff" stroke="#0000ff" points="118.3644,-274.1695 109.9564,-267.723 112.5091,-278.0057 118.3644,-274.1695"/>
</g>
<!-- i_i -->
<g id="node25" class="node">
<title>i_i</title>
<ellipse fill="none" stroke="#000000" cx="171" cy="-164" rx="27" ry="18"/>
<text text-anchor="middle" x="171" y="-160.3" font-family="Times,serif" font-size="14.00" fill="#000000">PiR</text>
</g>
<!-- i&#45;&gt;i_i -->
<g id="edge28" class="edge">
<title>i&#45;&gt;i_i</title>
<path fill="none" stroke="#ff0000" d="M171,-232.9735C171,-221.1918 171,-205.5607 171,-192.1581"/>
<polygon fill="#ff0000" stroke="#ff0000" points="174.5001,-192.0033 171,-182.0034 167.5001,-192.0034 174.5001,-192.0033"/>
<text text-anchor="middle" x="176" y="-203.8" font-family="Times,serif" font-size="14.00" fill="#000000">3</text>
</g>
<!-- il -->
<g id="node26" class="node">
<title>il</title>
<ellipse fill="none" stroke="#000000" cx="214" cy="-91" rx="27" ry="18"/>
<text text-anchor="middle" x="214" y="-87.3" font-family="Times,serif" font-size="14.00" fill="#000000">!d</text>
</g>
<!-- i_i&#45;&gt;il -->
<g id="edge29" class="edge">
<title>i_i&#45;&gt;il</title>
<path fill="none" stroke="#0000ff" d="M180.9731,-147.0688C186.2918,-138.0396 192.9465,-126.742 198.8861,-116.6585"/>
<polygon fill="#0000ff" stroke="#0000ff" points="202.0212,-118.232 204.0809,-107.8393 195.9898,-114.6793 202.0212,-118.232"/>
</g>
<!-- i_ret -->
<g id="node27" class="node">
<title>i_ret</title>
<ellipse fill="none" stroke="#000000" cx="171" cy="-18" rx="27" ry="18"/>
<text text-anchor="middle" x="171" y="-14.3" font-family="Times,serif" font-size="14.00" fill="#000000">I</text>
</g>
<!-- i_i&#45;&gt;i_ret -->
<g id="edge30" class="edge">
<title>i_i&#45;&gt;i_ret</title>
<path fill="none" stroke="#ff0000" d="M171,-145.8042C171,-120.8868 171,-75.8938 171,-46.4877"/>
<polygon fill="#ff0000" stroke="#ff0000" points="174.5001,-46.4251 171,-36.4251 167.5001,-46.4251 174.5001,-46.4251"/>
</g>
<!-- il&#45;&gt;i_ret -->
<g id="edge31" class="edge">
<title>il&#45;&gt;i_ret</title>
<path fill="none" stroke="#0000ff" d="M204.0269,-74.0688C198.7082,-65.0396 192.0535,-53.742 186.1139,-43.6585"/>
<polygon fill="#0000ff" stroke="#0000ff" points="189.0102,-41.6793 180.9191,-34.8393 182.9788,-45.232 189.0102,-41.6793"/>
</g>
</g>
</svg>
