<?xml version="1.0" encoding="UTF-8" standalone="no"?>
<!DOCTYPE svg PUBLIC "-//W3C//DTD SVG 1.1//EN"
 "http://www.w3.org/Graphics/SVG/1.1/DTD/svg11.dtd">
<!-- Generated by graphviz version 2.40.1 (20161225.0304)
 -->
<!-- Title: foo Pages: 1 -->
<svg width="571pt" height="157pt"
 viewBox="0.00 0.00 570.56 157.00" xmlns="http://www.w3.org/2000/svg" xmlns:xlink="http://www.w3.org/1999/xlink">
<g id="graph0" class="graph" transform="scale(1 1) rotate(0) translate(4 153)">
<title>foo</title>
<polygon fill="#ffffff" stroke="transparent" points="-4,4 -4,-153 566.5629,-153 566.5629,4 -4,4"/>
<g id="clust1" class="cluster">
<title>cluster_0</title>
<polygon fill="#d3d3d3" stroke="#d3d3d3" points="138.4902,-26 138.4902,-141 426.6724,-141 426.6724,-26 138.4902,-26"/>
<text text-anchor="middle" x="282.5813" y="-125.8" font-family="Times,serif" font-size="14.00" fill="#000000">BuildModule C.java</text>
</g>
<!-- a0 -->
<g id="node1" class="node">
<title>a0</title>
<ellipse fill="#ffffff" stroke="#ffffff" cx="182.237" cy="-72" rx="35.9954" ry="35.9954"/>
<text text-anchor="middle" x="182.237" y="-68.3" font-family="Times,serif" font-size="14.00" fill="#000000">require</text>
</g>
<!-- a1 -->
<g id="node2" class="node">
<title>a1</title>
<ellipse fill="#ffffff" stroke="#ffffff" cx="280.6315" cy="-72" rx="26.7961" ry="26.7961"/>
<text text-anchor="middle" x="280.6315" y="-68.3" font-family="Times,serif" font-size="14.00" fill="#000000">cmd</text>
</g>
<!-- a0&#45;&gt;a1 -->
<g id="edge1" class="edge">
<title>a0&#45;&gt;a1</title>
<path fill="none" stroke="#000000" d="M218.038,-72C226.476,-72 235.4831,-72 243.9588,-72"/>
<polygon fill="#000000" stroke="#000000" points="243.96,-75.5001 253.9599,-72 243.9599,-68.5001 243.96,-75.5001"/>
</g>
<!-- a2 -->
<g id="node3" class="node">
<title>a2</title>
<ellipse fill="#ffffff" stroke="#ffffff" cx="380.9758" cy="-72" rx="37.8943" ry="37.8943"/>
<text text-anchor="middle" x="380.9758" y="-68.3" font-family="Times,serif" font-size="14.00" fill="#000000">provide</text>
</g>
<!-- a1&#45;&gt;a2 -->
<g id="edge2" class="edge">
<title>a1&#45;&gt;a2</title>
<path fill="none" stroke="#000000" d="M307.5219,-72C315.3663,-72 324.1864,-72 332.9208,-72"/>
<polygon fill="#000000" stroke="#000000" points="333.0712,-75.5001 343.0712,-72 333.0712,-68.5001 333.0712,-75.5001"/>
</g>
<!-- C.class -->
<g id="node6" class="node">
<title>C.class</title>
<ellipse fill="none" stroke="#000000" cx="508.6176" cy="-126" rx="36.2938" ry="18"/>
<text text-anchor="middle" x="508.6176" y="-122.3" font-family="Times,serif" font-size="14.00" fill="#000000">C.class</text>
</g>
<!-- a2&#45;&gt;C.class -->
<g id="edge5" class="edge">
<title>a2&#45;&gt;C.class</title>
<path fill="none" stroke="#000000" d="M415.8545,-86.7557C433.0437,-94.0278 453.7868,-102.8033 471.2948,-110.2102"/>
<polygon fill="#000000" stroke="#000000" points="470.0721,-113.4933 480.6456,-114.1662 472.7995,-107.0464 470.0721,-113.4933"/>
</g>
<!-- C$1.class -->
<g id="node7" class="node">
<title>C$1.class</title>
<ellipse fill="none" stroke="#000000" cx="508.6176" cy="-72" rx="44.6926" ry="18"/>
<text text-anchor="middle" x="508.6176" y="-68.3" font-family="Times,serif" font-size="14.00" fill="#000000">C$1.class</text>
</g>
<!-- a2&#45;&gt;C$1.class -->
<g id="edge6" class="edge">
<title>a2&#45;&gt;C$1.class</title>
<path fill="none" stroke="#000000" d="M418.927,-72C429.7261,-72 441.7148,-72 453.3206,-72"/>
<polygon fill="#000000" stroke="#000000" points="453.3815,-75.5001 463.3815,-72 453.3815,-68.5001 453.3815,-75.5001"/>
</g>
<!-- C$Foo.class -->
<g id="node8" class="node">
<title>C$Foo.class</title>
<ellipse fill="none" stroke="#000000" cx="508.6176" cy="-18" rx="53.8905" ry="18"/>
<text text-anchor="middle" x="508.6176" y="-14.3" font-family="Times,serif" font-size="14.00" fill="#000000">C$Foo.class</text>
</g>
<!-- a2&#45;&gt;C$Foo.class -->
<g id="edge7" class="edge">
<title>a2&#45;&gt;C$Foo.class</title>
<path fill="none" stroke="#000000" d="M415.8545,-57.2443C431.2803,-50.7182 449.5681,-42.9814 465.8116,-36.1095"/>
<polygon fill="#000000" stroke="#000000" points="467.2561,-39.2988 475.1021,-32.179 464.5287,-32.852 467.2561,-39.2988"/>
</g>
<!-- Javac config -->
<g id="node4" class="node">
<title>Javac config</title>
<ellipse fill="none" stroke="#000000" cx="55.2451" cy="-99" rx="55.4913" ry="18"/>
<text text-anchor="middle" x="55.2451" y="-95.3" font-family="Times,serif" font-size="14.00" fill="#000000">Javac config</text>
</g>
<!-- Javac config&#45;&gt;a0 -->
<g id="edge3" class="edge">
<title>Javac config&#45;&gt;a0</title>
<path fill="none" stroke="#000000" d="M101.8111,-89.0995C113.4181,-86.6317 125.8394,-83.9908 137.3629,-81.5408"/>
<polygon fill="#000000" stroke="#000000" points="138.1621,-84.9492 147.2155,-79.446 136.7063,-78.1022 138.1621,-84.9492"/>
</g>
<!-- C.java -->
<g id="node5" class="node">
<title>C.java</title>
<ellipse fill="none" stroke="#000000" cx="55.2451" cy="-45" rx="33.5952" ry="18"/>
<text text-anchor="middle" x="55.2451" y="-41.3" font-family="Times,serif" font-size="14.00" fill="#000000">C.java</text>
</g>
<!-- C.java&#45;&gt;a0 -->
<g id="edge4" class="edge">
<title>C.java&#45;&gt;a0</title>
<path fill="none" stroke="#000000" d="M86.6364,-51.6742C101.8426,-54.9072 120.3826,-58.849 137.0739,-62.3978"/>
<polygon fill="#000000" stroke="#000000" points="136.6721,-65.8905 147.1813,-64.5467 138.1279,-59.0436 136.6721,-65.8905"/>
</g>
</g>
</svg>
