<?xml version="1.0" encoding="UTF-8" standalone="no"?>
<!DOCTYPE svg PUBLIC "-//W3C//DTD SVG 1.1//EN"
 "http://www.w3.org/Graphics/SVG/1.1/DTD/svg11.dtd">
<!-- Generated by graphviz version 2.40.1 (20161225.0304)
 -->
<!-- Title: %3 Pages: 1 -->
<svg width="481pt" height="1109pt"
 viewBox="0.00 0.00 481.00 1108.99" xmlns="http://www.w3.org/2000/svg" xmlns:xlink="http://www.w3.org/1999/xlink">
<g id="graph0" class="graph" transform="scale(1 1) rotate(0) translate(4 1104.9908)">
<title>%3</title>
<polygon fill="#ffffff" stroke="transparent" points="-4,4 -4,-1104.9908 477,-1104.9908 477,4 -4,4"/>
<!-- Root -->
<g id="node1" class="node">
<title>Root</title>
<ellipse fill="none" stroke="#000000" cx="85" cy="-835.9908" rx="27.8951" ry="18"/>
<text text-anchor="middle" x="85" y="-832.2908" font-family="Times,serif" font-size="14.00" fill="#000000">Root</text>
</g>
<!-- d1 -->
<g id="node2" class="node">
<title>d1</title>
<ellipse fill="none" stroke="#000000" cx="27" cy="-748.9908" rx="27" ry="18"/>
<text text-anchor="middle" x="27" y="-745.2908" font-family="Times,serif" font-size="14.00" fill="#000000">Dup</text>
</g>
<!-- Root&#45;&gt;d1 -->
<g id="edge1" class="edge">
<title>Root&#45;&gt;d1</title>
<path fill="none" stroke="#ff0000" stroke-width="2" d="M73.817,-819.2163C65.3118,-806.4584 53.4682,-788.6931 43.8216,-774.2232"/>
<polygon fill="#ff0000" stroke="#ff0000" stroke-width="2" points="46.6079,-772.0928 38.1487,-765.7138 40.7835,-775.9757 46.6079,-772.0928"/>
<text text-anchor="middle" x="73.5" y="-788.7908" font-family="Times,serif" font-size="14.00" fill="#000000">0&#45;&gt;1</text>
</g>
<!-- d2 -->
<g id="node6" class="node">
<title>d2</title>
<ellipse fill="none" stroke="#000000" cx="245" cy="-835.9908" rx="27" ry="18"/>
<text text-anchor="middle" x="245" y="-832.2908" font-family="Times,serif" font-size="14.00" fill="#000000">Dup</text>
</g>
<!-- d1&#45;&gt;d2 -->
<g id="edge4" class="edge">
<title>d1&#45;&gt;d2</title>
<path fill="none" stroke="#000000" stroke-dasharray="5,2" d="M35.4426,-766.1074C42.0906,-777.6644 52.4876,-792.1853 66,-799.9908 119.5591,-830.9294 144.4161,-801.3916 204,-817.9908 210.4402,-819.7849 217.1805,-822.405 223.2923,-825.0936"/>
</g>
<!-- f_ret -->
<g id="node7" class="node">
<title>f_ret</title>
<ellipse fill="none" stroke="#000000" cx="72" cy="-661.9908" rx="27" ry="18"/>
<text text-anchor="middle" x="72" y="-658.2908" font-family="Times,serif" font-size="14.00" fill="#000000">I</text>
</g>
<!-- d1&#45;&gt;f_ret -->
<g id="edge5" class="edge">
<title>d1&#45;&gt;f_ret</title>
<path fill="none" stroke="#ff0000" stroke-width="2" d="M35.8906,-731.8024C42.3005,-719.4099 51.0708,-702.4538 58.3629,-688.3558"/>
<polygon fill="#ff0000" stroke="#ff0000" stroke-width="2" points="61.6424,-689.6337 63.1279,-679.1435 55.4249,-686.4177 61.6424,-689.6337"/>
</g>
<!-- c1a -->
<g id="node3" class="node">
<title>c1a</title>
<ellipse fill="none" stroke="#000000" cx="142" cy="-1082.9908" rx="27" ry="18"/>
<text text-anchor="middle" x="142" y="-1079.2908" font-family="Times,serif" font-size="14.00" fill="#000000">Cut</text>
</g>
<!-- fp1 -->
<g id="node4" class="node">
<title>fp1</title>
<ellipse fill="none" stroke="#000000" cx="118" cy="-995.9908" rx="27" ry="18"/>
<text text-anchor="middle" x="118" y="-992.2908" font-family="Times,serif" font-size="14.00" fill="#000000">!p</text>
</g>
<!-- c1a&#45;&gt;fp1 -->
<g id="edge2" class="edge">
<title>c1a&#45;&gt;fp1</title>
<path fill="none" stroke="#ff0000" d="M137.0272,-1064.9643C133.723,-1052.9866 129.3213,-1037.0304 125.5838,-1023.4819"/>
<polygon fill="#ff0000" stroke="#ff0000" points="128.9177,-1022.4056 122.8843,-1013.6965 122.1697,-1024.2672 128.9177,-1022.4056"/>
<text text-anchor="middle" x="135.5" y="-1035.7908" font-family="Times,serif" font-size="14.00" fill="#000000">0</text>
</g>
<!-- x1_o1 -->
<g id="node5" class="node">
<title>x1_o1</title>
<ellipse fill="none" stroke="#000000" cx="190" cy="-995.9908" rx="27" ry="18"/>
<text text-anchor="middle" x="190" y="-992.2908" font-family="Times,serif" font-size="14.00" fill="#000000">I</text>
</g>
<!-- c1a&#45;&gt;x1_o1 -->
<g id="edge3" class="edge">
<title>c1a&#45;&gt;x1_o1</title>
<path fill="none" stroke="#0000ff" d="M151.4833,-1065.8024C158.3862,-1053.2907 167.8557,-1036.1273 175.6777,-1021.95"/>
<polygon fill="#0000ff" stroke="#0000ff" points="178.7701,-1023.59 180.5364,-1013.1435 172.6411,-1020.2085 178.7701,-1023.59"/>
</g>
<!-- f2 -->
<g id="node10" class="node">
<title>f2</title>
<ellipse fill="none" stroke="#000000" cx="118" cy="-908.9908" rx="27" ry="18"/>
<text text-anchor="middle" x="118" y="-905.2908" font-family="Times,serif" font-size="14.00" fill="#000000">PiR</text>
</g>
<!-- fp1&#45;&gt;f2 -->
<g id="edge11" class="edge">
<title>fp1&#45;&gt;f2</title>
<path fill="none" stroke="#ff0000" d="M118,-977.9643C118,-966.1825 118,-950.5514 118,-937.1488"/>
<polygon fill="#ff0000" stroke="#ff0000" points="121.5001,-936.9941 118,-926.9941 114.5001,-936.9942 121.5001,-936.9941"/>
<text text-anchor="middle" x="121.5" y="-948.7908" font-family="Times,serif" font-size="14.00" fill="#000000">1</text>
</g>
<!-- xdic -->
<g id="node9" class="node">
<title>xdic</title>
<ellipse fill="none" stroke="#000000" cx="281" cy="-748.9908" rx="27" ry="18"/>
<text text-anchor="middle" x="281" y="-745.2908" font-family="Times,serif" font-size="14.00" fill="#000000">!c</text>
</g>
<!-- d2&#45;&gt;xdic -->
<g id="edge8" class="edge">
<title>d2&#45;&gt;xdic</title>
<path fill="none" stroke="#0000ff" d="M252.2851,-818.385C257.3111,-806.239 264.0893,-789.8582 269.7982,-776.0619"/>
<polygon fill="#0000ff" stroke="#0000ff" points="273.1362,-777.1488 273.7257,-766.5703 266.6681,-774.4723 273.1362,-777.1488"/>
</g>
<!-- c1bb -->
<g id="node8" class="node">
<title>c1bb</title>
<ellipse fill="none" stroke="#000000" cx="214" cy="-1082.9908" rx="27" ry="18"/>
<text text-anchor="middle" x="214" y="-1079.2908" font-family="Times,serif" font-size="14.00" fill="#000000">Cut</text>
</g>
<!-- c1bb&#45;&gt;x1_o1 -->
<g id="edge6" class="edge">
<title>c1bb&#45;&gt;x1_o1</title>
<path fill="none" stroke="#ff0000" d="M209.0272,-1064.9643C205.723,-1052.9866 201.3213,-1037.0304 197.5838,-1023.4819"/>
<polygon fill="#ff0000" stroke="#ff0000" points="200.9177,-1022.4056 194.8843,-1013.6965 194.1697,-1024.2672 200.9177,-1022.4056"/>
<text text-anchor="middle" x="206.5" y="-1035.7908" font-family="Times,serif" font-size="14.00" fill="#000000">0</text>
</g>
<!-- c1bb&#45;&gt;d2 -->
<g id="edge7" class="edge">
<title>c1bb&#45;&gt;d2</title>
<path fill="none" stroke="#0000ff" d="M217.4852,-1064.8824C220.0764,-1050.9948 223.5695,-1031.3302 226,-1013.9908 233.4089,-961.1353 239.4279,-899.0906 242.5876,-863.9718"/>
<polygon fill="#0000ff" stroke="#0000ff" points="246.0768,-864.2477 243.4748,-853.9773 239.1042,-863.6287 246.0768,-864.2477"/>
<text text-anchor="middle" x="237.5" y="-948.7908" font-family="Times,serif" font-size="14.00" fill="#000000">1</text>
</g>
<!-- h_di2 -->
<g id="node19" class="node">
<title>h_di2</title>
<ellipse fill="none" stroke="#000000" cx="339" cy="-607.9908" rx="27" ry="18"/>
<text text-anchor="middle" x="339" y="-604.2908" font-family="Times,serif" font-size="14.00" fill="#000000">!d</text>
</g>
<!-- xdic&#45;&gt;h_di2 -->
<g id="edge30" class="edge">
<title>xdic&#45;&gt;h_di2</title>
<path fill="none" stroke="#0000ff" d="M290.9275,-732.1124C298.7195,-718.3939 309.4723,-698.371 317,-679.9908 322.8818,-665.6294 328.0401,-649.1014 331.8808,-635.506"/>
<polygon fill="#0000ff" stroke="#0000ff" points="335.2826,-636.3351 334.5511,-625.7656 328.5317,-634.4844 335.2826,-636.3351"/>
<text text-anchor="middle" x="311.5" y="-701.7908" font-family="Times,serif" font-size="14.00" fill="#000000">1</text>
</g>
<!-- hi_retpa -->
<g id="node21" class="node">
<title>hi_retpa</title>
<ellipse fill="none" stroke="#000000" cx="281" cy="-661.9908" rx="27" ry="18"/>
<text text-anchor="middle" x="281" y="-658.2908" font-family="Times,serif" font-size="14.00" fill="#000000">!p</text>
</g>
<!-- xdic&#45;&gt;hi_retpa -->
<g id="edge29" class="edge">
<title>xdic&#45;&gt;hi_retpa</title>
<path fill="none" stroke="#0000ff" d="M281,-730.9643C281,-719.1825 281,-703.5514 281,-690.1488"/>
<polygon fill="#0000ff" stroke="#0000ff" points="284.5001,-689.9941 281,-679.9941 277.5001,-689.9942 284.5001,-689.9941"/>
<text text-anchor="middle" x="284.5" y="-701.7908" font-family="Times,serif" font-size="14.00" fill="#000000">1</text>
</g>
<!-- f2&#45;&gt;d1 -->
<g id="edge9" class="edge">
<title>f2&#45;&gt;d1</title>
<path fill="none" stroke="#ff0000" d="M96.5502,-897.7053C80.6333,-888.1922 59.7347,-873.083 48,-853.9908 33.2398,-829.9761 28.5973,-797.5732 27.2653,-775.1435"/>
<ellipse fill="none" stroke="#ff0000" cx="27.0823" cy="-771.0697" rx="4" ry="4"/>
</g>
<!-- f2&#45;&gt;d2 -->
<g id="edge10" class="edge">
<title>f2&#45;&gt;d2</title>
<path fill="none" stroke="#0000ff" d="M138.6874,-897.0996C160.0898,-884.7974 193.6378,-865.5139 217.3147,-851.9044"/>
<ellipse fill="none" stroke="#0000ff" cx="220.8535" cy="-849.8703" rx="4" ry="4"/>
</g>
<!-- d3 -->
<g id="node11" class="node">
<title>d3</title>
<ellipse fill="none" stroke="#000000" cx="224" cy="-541.9931" rx="25.9957" ry="25.9957"/>
<ellipse fill="none" stroke="#000000" cx="224" cy="-541.9931" rx="29.9954" ry="29.9954"/>
<text text-anchor="middle" x="224" y="-538.2931" font-family="Times,serif" font-size="14.00" fill="#000000">Dup</text>
</g>
<!-- d4a -->
<g id="node12" class="node">
<title>d4a</title>
<ellipse fill="none" stroke="#000000" cx="282" cy="-357.9977" rx="25.9957" ry="25.9957"/>
<ellipse fill="none" stroke="#000000" cx="282" cy="-357.9977" rx="29.9954" ry="29.9954"/>
<text text-anchor="middle" x="282" y="-354.2977" font-family="Times,serif" font-size="14.00" fill="#000000">Dup</text>
</g>
<!-- d3&#45;&gt;d4a -->
<g id="edge12" class="edge">
<title>d3&#45;&gt;d4a</title>
<path fill="none" stroke="#000000" stroke-dasharray="5,2" d="M211.9694,-514.2476C208.7097,-503.2153 206.8507,-490.4464 210,-478.9954 220.2417,-441.756 245.2675,-404.3935 262.9271,-381.2451"/>
</g>
<!-- hi_ret -->
<g id="node14" class="node">
<title>hi_ret</title>
<ellipse fill="none" stroke="#000000" cx="239" cy="-255" rx="18" ry="18"/>
<ellipse fill="none" stroke="#000000" cx="239" cy="-255" rx="22" ry="22"/>
<text text-anchor="middle" x="239" y="-251.3" font-family="Times,serif" font-size="14.00" fill="#000000">I</text>
</g>
<!-- d3&#45;&gt;hi_ret -->
<g id="edge14" class="edge">
<title>d3&#45;&gt;hi_ret</title>
<path fill="none" stroke="#ff0000" stroke-width="2" d="M225.5769,-511.8222C228.4247,-457.3361 234.4005,-343.002 237.3211,-287.1218"/>
<polygon fill="#ff0000" stroke="#ff0000" stroke-width="2" points="240.8193,-287.2467 237.8461,-277.0776 233.8288,-286.8813 240.8193,-287.2467"/>
</g>
<!-- d4a&#45;&gt;hi_ret -->
<g id="edge15" class="edge">
<title>d4a&#45;&gt;hi_ret</title>
<path fill="none" stroke="#0000ff" stroke-width="2" d="M270.3636,-330.125C264.503,-316.0873 257.3941,-299.0594 251.4271,-284.7666"/>
<polygon fill="#0000ff" stroke="#0000ff" stroke-width="2" points="254.5903,-283.2585 247.5079,-275.3788 248.1307,-285.9554 254.5903,-283.2585"/>
</g>
<!-- d4b -->
<g id="node13" class="node">
<title>d4b</title>
<ellipse fill="none" stroke="#000000" cx="374" cy="-357.9977" rx="27" ry="18"/>
<text text-anchor="middle" x="374" y="-354.2977" font-family="Times,serif" font-size="14.00" fill="#000000">Dup</text>
</g>
<!-- d4b&#45;&gt;d4a -->
<g id="edge13" class="edge">
<title>d4b&#45;&gt;d4a</title>
<path fill="none" stroke="#000000" stroke-dasharray="5,2" d="M346.957,-357.9977C335.3672,-357.9977 323.7773,-357.9977 312.1875,-357.9977"/>
</g>
<!-- h_app -->
<g id="node15" class="node">
<title>h_app</title>
<ellipse fill="none" stroke="#000000" cx="446" cy="-255" rx="27" ry="18"/>
<text text-anchor="middle" x="446" y="-251.3" font-family="Times,serif" font-size="14.00" fill="#000000">I</text>
</g>
<!-- d4b&#45;&gt;h_app -->
<g id="edge16" class="edge">
<title>d4b&#45;&gt;h_app</title>
<path fill="none" stroke="#ff0000" d="M376.7457,-339.8652C379.4458,-326.5203 384.5828,-308.4381 394,-295 400.079,-286.3255 408.6038,-278.6747 416.9951,-272.4485"/>
<polygon fill="#ff0000" stroke="#ff0000" points="419.0336,-275.2941 425.2465,-266.7121 415.0378,-269.5466 419.0336,-275.2941"/>
</g>
<!-- ha -->
<g id="node16" class="node">
<title>ha</title>
<ellipse fill="none" stroke="#000000" cx="297" cy="-442.9954" rx="27" ry="18"/>
<text text-anchor="middle" x="297" y="-439.2954" font-family="Times,serif" font-size="14.00" fill="#000000">PiL</text>
</g>
<!-- ha&#45;&gt;d4a -->
<g id="edge18" class="edge">
<title>ha&#45;&gt;d4a</title>
<path fill="none" stroke="#0000ff" d="M293.8189,-424.9696C292.4168,-417.0249 290.7093,-407.3493 289.0331,-397.8507"/>
<polygon fill="#0000ff" stroke="#0000ff" points="292.427,-396.9429 287.2423,-387.7034 285.5336,-398.1595 292.427,-396.9429"/>
</g>
<!-- ha&#45;&gt;d4b -->
<g id="edge17" class="edge">
<title>ha&#45;&gt;d4b</title>
<path fill="none" stroke="#ff0000" d="M311.123,-427.4055C322.8454,-414.4655 339.6899,-395.8714 352.9944,-381.1851"/>
<polygon fill="#ff0000" stroke="#ff0000" points="355.8466,-383.2497 359.9665,-373.4887 350.6588,-378.5501 355.8466,-383.2497"/>
</g>
<!-- hb -->
<g id="node17" class="node">
<title>hb</title>
<ellipse fill="none" stroke="#000000" cx="369" cy="-442.9954" rx="27" ry="18"/>
<text text-anchor="middle" x="369" y="-439.2954" font-family="Times,serif" font-size="14.00" fill="#000000">PiL</text>
</g>
<!-- hb&#45;&gt;d4a -->
<g id="edge20" class="edge">
<title>hb&#45;&gt;d4a</title>
<path fill="none" stroke="#0000ff" d="M353.4461,-427.7995C341.3006,-415.9335 324.1144,-399.1429 309.6417,-385.0033"/>
<ellipse fill="none" stroke="#0000ff" cx="306.4891" cy="-381.9231" rx="4" ry="4"/>
</g>
<!-- hb&#45;&gt;d4b -->
<g id="edge19" class="edge">
<title>hb&#45;&gt;d4b</title>
<path fill="none" stroke="#ff0000" d="M370.0604,-424.9696C370.7564,-413.1371 371.6783,-397.4651 372.4553,-384.2566"/>
<ellipse fill="none" stroke="#ff0000" cx="372.7062" cy="-379.9906" rx="4" ry="4"/>
</g>
<!-- h_di1 -->
<g id="node18" class="node">
<title>h_di1</title>
<ellipse fill="none" stroke="#000000" cx="299" cy="-541.9931" rx="27" ry="18"/>
<text text-anchor="middle" x="299" y="-538.2931" font-family="Times,serif" font-size="14.00" fill="#000000">!d</text>
</g>
<!-- h_di1&#45;&gt;ha -->
<g id="edge21" class="edge">
<title>h_di1&#45;&gt;ha</title>
<path fill="none" stroke="#0000ff" d="M298.6332,-523.8354C298.3371,-509.1827 297.9154,-488.3054 297.5746,-471.4377"/>
<polygon fill="#0000ff" stroke="#0000ff" points="301.0659,-470.9652 297.3645,-461.038 294.0673,-471.1067 301.0659,-470.9652"/>
<text text-anchor="middle" x="301.5" y="-482.7954" font-family="Times,serif" font-size="14.00" fill="#000000">2</text>
</g>
<!-- h_di2&#45;&gt;hb -->
<g id="edge22" class="edge">
<title>h_di2&#45;&gt;hb</title>
<path fill="none" stroke="#0000ff" d="M342.2676,-590.0193C347.4748,-561.3804 357.6971,-505.1594 363.8818,-471.1449"/>
<polygon fill="#0000ff" stroke="#0000ff" points="367.391,-471.4096 365.7364,-460.9447 360.5039,-470.1573 367.391,-471.4096"/>
<text text-anchor="middle" x="358.5" y="-538.2931" font-family="Times,serif" font-size="14.00" fill="#000000">2</text>
</g>
<!-- c2a -->
<g id="node20" class="node">
<title>c2a</title>
<ellipse fill="none" stroke="#000000" cx="171" cy="-748.9908" rx="27" ry="18"/>
<text text-anchor="middle" x="171" y="-745.2908" font-family="Times,serif" font-size="14.00" fill="#000000">Cut</text>
</g>
<!-- c2a&#45;&gt;hi_retpa -->
<g id="edge23" class="edge">
<title>c2a&#45;&gt;hi_retpa</title>
<path fill="none" stroke="#ff0000" d="M176.648,-730.994C180.8069,-720.2325 187.4201,-706.9532 197,-697.9908 210.5287,-685.3339 229.1916,-676.7336 245.4906,-671.1224"/>
<polygon fill="#ff0000" stroke="#ff0000" points="246.8023,-674.3778 255.2665,-668.0054 244.6758,-667.7086 246.8023,-674.3778"/>
<text text-anchor="middle" x="200.5" y="-701.7908" font-family="Times,serif" font-size="14.00" fill="#000000">1</text>
</g>
<!-- x1_o2 -->
<g id="node22" class="node">
<title>x1_o2</title>
<ellipse fill="none" stroke="#000000" cx="145" cy="-661.9908" rx="27" ry="18"/>
<text text-anchor="middle" x="145" y="-658.2908" font-family="Times,serif" font-size="14.00" fill="#000000">I</text>
</g>
<!-- c2a&#45;&gt;x1_o2 -->
<g id="edge24" class="edge">
<title>c2a&#45;&gt;x1_o2</title>
<path fill="none" stroke="#0000ff" d="M165.6128,-730.9643C162.0332,-718.9866 157.2647,-703.0304 153.2157,-689.4819"/>
<polygon fill="#0000ff" stroke="#0000ff" points="156.5083,-688.2756 150.2914,-679.6965 149.8013,-690.28 156.5083,-688.2756"/>
</g>
<!-- hi_retpa&#45;&gt;d3 -->
<g id="edge27" class="edge">
<title>hi_retpa&#45;&gt;d3</title>
<path fill="none" stroke="#ff0000" d="M272.8333,-644.798C264.645,-627.5598 251.7841,-600.4848 241.3159,-578.4468"/>
<polygon fill="#ff0000" stroke="#ff0000" points="244.4487,-576.8848 236.9966,-569.3538 238.1258,-579.8883 244.4487,-576.8848"/>
<text text-anchor="middle" x="265.5" y="-604.2908" font-family="Times,serif" font-size="14.00" fill="#000000">2</text>
</g>
<!-- hi_retpa&#45;&gt;h_di1 -->
<g id="edge28" class="edge">
<title>hi_retpa&#45;&gt;h_di1</title>
<path fill="none" stroke="#0000ff" d="M283.6948,-644.0259C286.6242,-624.4968 291.3447,-593.0276 294.7694,-570.1965"/>
<polygon fill="#0000ff" stroke="#0000ff" points="298.2646,-570.4893 296.2868,-560.0808 291.342,-569.4509 298.2646,-570.4893"/>
<text text-anchor="middle" x="294.5" y="-604.2908" font-family="Times,serif" font-size="14.00" fill="#000000">1</text>
</g>
<!-- c2b -->
<g id="node23" class="node">
<title>c2b</title>
<ellipse fill="none" stroke="#000000" cx="168" cy="-835.9908" rx="27" ry="18"/>
<text text-anchor="middle" x="168" y="-832.2908" font-family="Times,serif" font-size="14.00" fill="#000000">Cut</text>
</g>
<!-- c2b&#45;&gt;d3 -->
<g id="edge25" class="edge">
<title>c2b&#45;&gt;d3</title>
<path fill="none" stroke="#ff0000" stroke-width="2" d="M179.9923,-819.6421C189.1338,-806.2232 201.1204,-786.345 207,-766.9908 226.2416,-703.6528 227.4881,-625.897 226.1123,-580.3548"/>
<ellipse fill="none" stroke="#ff0000" stroke-width="2" cx="225.9684" cy="-576.2343" rx="4" ry="4"/>
<text text-anchor="middle" x="223.5" y="-701.7908" font-family="Times,serif" font-size="14.00" fill="#000000">2</text>
</g>
<!-- x2i_o2 -->
<g id="node24" class="node">
<title>x2i_o2</title>
<ellipse fill="none" stroke="#000000" cx="99" cy="-748.9908" rx="27" ry="18"/>
<text text-anchor="middle" x="99" y="-745.2908" font-family="Times,serif" font-size="14.00" fill="#000000">PiL</text>
</g>
<!-- c2b&#45;&gt;x2i_o2 -->
<g id="edge26" class="edge">
<title>c2b&#45;&gt;x2i_o2</title>
<path fill="none" stroke="#0000ff" stroke-width="2" d="M155.3443,-820.0336C144.9055,-806.8716 129.9339,-787.9944 118.0471,-773.0067"/>
<polygon fill="#0000ff" stroke="#0000ff" stroke-width="2" points="120.7653,-770.8015 111.8091,-765.1414 115.2808,-775.1513 120.7653,-770.8015"/>
<text text-anchor="middle" x="140.5" y="-788.7908" font-family="Times,serif" font-size="14.00" fill="#000000">1</text>
</g>
<!-- x2i_o2&#45;&gt;f_ret -->
<g id="edge32" class="edge">
<title>x2i_o2&#45;&gt;f_ret</title>
<path fill="none" stroke="#0000ff" stroke-width="2" d="M93.4056,-730.9643C89.6884,-718.9866 84.7364,-703.0304 80.5317,-689.4819"/>
<polygon fill="#0000ff" stroke="#0000ff" stroke-width="2" points="83.8017,-688.2097 77.4949,-679.6965 77.1162,-690.2845 83.8017,-688.2097"/>
</g>
<!-- x2i_o2&#45;&gt;x1_o2 -->
<g id="edge31" class="edge">
<title>x2i_o2&#45;&gt;x1_o2</title>
<path fill="none" stroke="#ff0000" d="M108.0881,-731.8024C114.6405,-719.4099 123.6057,-702.4538 131.0599,-688.3558"/>
<polygon fill="#ff0000" stroke="#ff0000" points="134.3506,-689.6198 135.9308,-679.1435 128.1624,-686.3478 134.3506,-689.6198"/>
</g>
<!-- c3 -->
<g id="node25" class="node">
<title>c3</title>
<ellipse fill="none" stroke="#000000" cx="446" cy="-357.9977" rx="27" ry="18"/>
<text text-anchor="middle" x="446" y="-354.2977" font-family="Times,serif" font-size="14.00" fill="#000000">Cut</text>
</g>
<!-- c3&#45;&gt;h_app -->
<g id="edge34" class="edge">
<title>c3&#45;&gt;h_app</title>
<path fill="none" stroke="#0000ff" d="M446,-339.5838C446,-323.9852 446,-301.364 446,-283.4395"/>
<polygon fill="#0000ff" stroke="#0000ff" points="449.5001,-283.2545 446,-273.2545 442.5001,-283.2545 449.5001,-283.2545"/>
</g>
<!-- i -->
<g id="node26" class="node">
<title>i</title>
<ellipse fill="none" stroke="#000000" cx="374" cy="-255" rx="27" ry="18"/>
<text text-anchor="middle" x="374" y="-251.3" font-family="Times,serif" font-size="14.00" fill="#000000">!p</text>
</g>
<!-- c3&#45;&gt;i -->
<g id="edge33" class="edge">
<title>c3&#45;&gt;i</title>
<path fill="none" stroke="#ff0000" d="M434.432,-341.4493C422.7804,-324.7816 404.6639,-298.8654 391.3031,-279.7525"/>
<polygon fill="#ff0000" stroke="#ff0000" points="394.1374,-277.698 385.5393,-271.5073 388.4001,-281.7086 394.1374,-277.698"/>
<text text-anchor="middle" x="415.5" y="-298.8" font-family="Times,serif" font-size="14.00" fill="#000000">2</text>
</g>
<!-- i_i -->
<g id="node27" class="node">
<title>i_i</title>
<ellipse fill="none" stroke="#000000" cx="374" cy="-164" rx="27" ry="18"/>
<text text-anchor="middle" x="374" y="-160.3" font-family="Times,serif" font-size="14.00" fill="#000000">PiR</text>
</g>
<!-- i&#45;&gt;i_i -->
<g id="edge35" class="edge">
<title>i&#45;&gt;i_i</title>
<path fill="none" stroke="#ff0000" d="M374,-236.5848C374,-223.9209 374,-206.8558 374,-192.4541"/>
<polygon fill="#ff0000" stroke="#ff0000" points="377.5001,-192.0772 374,-182.0773 370.5001,-192.0773 377.5001,-192.0772"/>
<text text-anchor="middle" x="377.5" y="-203.8" font-family="Times,serif" font-size="14.00" fill="#000000">3</text>
</g>
<!-- il -->
<g id="node28" class="node">
<title>il</title>
<ellipse fill="none" stroke="#000000" cx="347" cy="-91" rx="27" ry="18"/>
<text text-anchor="middle" x="347" y="-87.3" font-family="Times,serif" font-size="14.00" fill="#000000">!d</text>
</g>
<!-- i_i&#45;&gt;il -->
<g id="edge36" class="edge">
<title>i_i&#45;&gt;il</title>
<path fill="none" stroke="#0000ff" d="M367.4641,-146.3287C364.3134,-137.8103 360.4659,-127.4078 356.9608,-117.9312"/>
<polygon fill="#0000ff" stroke="#0000ff" points="360.2274,-116.6734 353.4758,-108.5085 353.6621,-119.1017 360.2274,-116.6734"/>
</g>
<!-- i_ret -->
<g id="node29" class="node">
<title>i_ret</title>
<ellipse fill="none" stroke="#000000" cx="374" cy="-18" rx="27" ry="18"/>
<text text-anchor="middle" x="374" y="-14.3" font-family="Times,serif" font-size="14.00" fill="#000000">I</text>
</g>
<!-- i_i&#45;&gt;i_ret -->
<g id="edge37" class="edge">
<title>i_i&#45;&gt;i_ret</title>
<path fill="none" stroke="#ff0000" d="M377.7475,-145.7581C379.7467,-135.0941 381.9967,-121.3441 383,-109 384.2962,-93.0526 384.2962,-88.9474 383,-73 382.2867,-64.2241 380.9433,-54.7377 379.5079,-46.1547"/>
<polygon fill="#ff0000" stroke="#ff0000" points="382.9422,-45.4759 377.7475,-36.2419 376.05,-46.6999 382.9422,-45.4759"/>
</g>
<!-- il&#45;&gt;i_ret -->
<g id="edge38" class="edge">
<title>il&#45;&gt;i_ret</title>
<path fill="none" stroke="#0000ff" d="M353.5359,-73.3287C356.6866,-64.8103 360.5341,-54.4078 364.0392,-44.9312"/>
<polygon fill="#0000ff" stroke="#0000ff" points="367.3379,-46.1017 367.5242,-35.5085 360.7726,-43.6734 367.3379,-46.1017"/>
</g>
</g>
</svg>
