<?xml version="1.0" encoding="UTF-8" standalone="no"?>
<!DOCTYPE svg PUBLIC "-//W3C//DTD SVG 1.1//EN"
 "http://www.w3.org/Graphics/SVG/1.1/DTD/svg11.dtd">
<!-- Generated by graphviz version 2.40.1 (20161225.0304)
 -->
<!-- Title: %3 Pages: 1 -->
<svg width="568pt" height="891pt"
 viewBox="0.00 0.00 567.95 890.80" xmlns="http://www.w3.org/2000/svg" xmlns:xlink="http://www.w3.org/1999/xlink">
<g id="graph0" class="graph" transform="scale(1 1) rotate(0) translate(4 886.7958)">
<title>%3</title>
<polygon fill="#ffffff" stroke="transparent" points="-4,4 -4,-886.7958 563.9475,-886.7958 563.9475,4 -4,4"/>
<!-- Root -->
<g id="node1" class="node">
<title>Root</title>
<ellipse fill="none" stroke="#000000" cx="27.9475" cy="-672" rx="27.8951" ry="18"/>
<text text-anchor="middle" x="27.9475" y="-668.3" font-family="Times,serif" font-size="14.00" fill="#000000">Root</text>
</g>
<!-- ret -->
<g id="node2" class="node">
<title>ret</title>
<ellipse fill="none" stroke="#000000" cx="58.9475" cy="-599" rx="27" ry="18"/>
<text text-anchor="middle" x="58.9475" y="-595.3" font-family="Times,serif" font-size="14.00" fill="#000000">I</text>
</g>
<!-- Root&#45;&gt;ret -->
<g id="edge1" class="edge">
<title>Root&#45;&gt;ret</title>
<path fill="none" stroke="#ff0000" stroke-width="2" d="M35.4518,-654.3287C39.0692,-645.8103 43.4867,-635.4078 47.511,-625.9312"/>
<polygon fill="#ff0000" stroke="#ff0000" stroke-width="2" points="50.8252,-627.0811 51.5124,-616.5085 44.382,-624.3449 50.8252,-627.0811"/>
</g>
<!-- c1a -->
<g id="node3" class="node">
<title>c1a</title>
<ellipse fill="none" stroke="#000000" cx="171.9475" cy="-864.7958" rx="27" ry="18"/>
<text text-anchor="middle" x="171.9475" y="-861.0958" font-family="Times,serif" font-size="14.00" fill="#000000">Cut</text>
</g>
<!-- fp1 -->
<g id="node4" class="node">
<title>fp1</title>
<ellipse fill="none" stroke="#000000" cx="288.9475" cy="-768.3979" rx="27" ry="18"/>
<text text-anchor="middle" x="288.9475" y="-764.6979" font-family="Times,serif" font-size="14.00" fill="#000000">!p</text>
</g>
<!-- c1a&#45;&gt;fp1 -->
<g id="edge2" class="edge">
<title>c1a&#45;&gt;fp1</title>
<path fill="none" stroke="#ff0000" d="M188.9603,-850.7788C208.7165,-834.5014 241.4787,-807.5082 264.0871,-788.8808"/>
<polygon fill="#ff0000" stroke="#ff0000" points="266.4219,-791.4921 271.9142,-782.4319 261.9707,-786.0895 266.4219,-791.4921"/>
<text text-anchor="middle" x="234.4475" y="-817.5958" font-family="Times,serif" font-size="14.00" fill="#000000">0</text>
</g>
<!-- x1_o1 -->
<g id="node5" class="node">
<title>x1_o1</title>
<ellipse fill="none" stroke="#000000" cx="133.9475" cy="-599" rx="27" ry="18"/>
<text text-anchor="middle" x="133.9475" y="-595.3" font-family="Times,serif" font-size="14.00" fill="#000000">I</text>
</g>
<!-- c1a&#45;&gt;x1_o1 -->
<g id="edge3" class="edge">
<title>c1a&#45;&gt;x1_o1</title>
<path fill="none" stroke="#0000ff" d="M169.3356,-846.5266C162.8118,-800.8947 145.7686,-681.6839 137.9601,-627.0668"/>
<polygon fill="#0000ff" stroke="#0000ff" points="141.4076,-626.4496 136.5274,-617.0456 134.478,-627.4403 141.4076,-626.4496"/>
</g>
<!-- f2 -->
<g id="node13" class="node">
<title>f2</title>
<ellipse fill="none" stroke="#000000" cx="290.9475" cy="-672" rx="27" ry="18"/>
<text text-anchor="middle" x="290.9475" y="-668.3" font-family="Times,serif" font-size="14.00" fill="#000000">PiR</text>
</g>
<!-- fp1&#45;&gt;f2 -->
<g id="edge13" class="edge">
<title>fp1&#45;&gt;f2</title>
<path fill="none" stroke="#ff0000" d="M289.3237,-750.2662C289.617,-736.1286 290.0296,-716.2447 290.3654,-700.0568"/>
<polygon fill="#ff0000" stroke="#ff0000" points="293.8647,-700.1209 290.573,-690.0504 286.8662,-699.9756 293.8647,-700.1209"/>
<text text-anchor="middle" x="294.4475" y="-711.8" font-family="Times,serif" font-size="14.00" fill="#000000">1</text>
</g>
<!-- c1b -->
<g id="node6" class="node">
<title>c1b</title>
<ellipse fill="none" stroke="#000000" cx="214.9475" cy="-768.3979" rx="23.3111" ry="23.3111"/>
<ellipse fill="none" stroke="#000000" cx="214.9475" cy="-768.3979" rx="27.2962" ry="27.2962"/>
<text text-anchor="middle" x="214.9475" y="-764.6979" font-family="Times,serif" font-size="14.00" fill="#000000">Cut</text>
</g>
<!-- f1 -->
<g id="node7" class="node">
<title>f1</title>
<ellipse fill="none" stroke="#000000" cx="218.9475" cy="-672" rx="27" ry="18"/>
<text text-anchor="middle" x="218.9475" y="-668.3" font-family="Times,serif" font-size="14.00" fill="#000000">PiR</text>
</g>
<!-- c1b&#45;&gt;f1 -->
<g id="edge4" class="edge">
<title>c1b&#45;&gt;f1</title>
<path fill="none" stroke="#ff0000" d="M216.0938,-740.7741C216.6204,-728.0823 217.2443,-713.0472 217.7742,-700.2766"/>
<polygon fill="#ff0000" stroke="#ff0000" points="221.2753,-700.3196 218.193,-690.183 214.2813,-700.0293 221.2753,-700.3196"/>
<text text-anchor="middle" x="221.4475" y="-711.8" font-family="Times,serif" font-size="14.00" fill="#000000">1</text>
</g>
<!-- x2i_o1 -->
<g id="node8" class="node">
<title>x2i_o1</title>
<ellipse fill="none" stroke="#000000" cx="100.9475" cy="-672" rx="27" ry="18"/>
<text text-anchor="middle" x="100.9475" y="-668.3" font-family="Times,serif" font-size="14.00" fill="#000000">PiL</text>
</g>
<!-- c1b&#45;&gt;x2i_o1 -->
<g id="edge5" class="edge">
<title>c1b&#45;&gt;x2i_o1</title>
<path fill="none" stroke="#0000ff" stroke-width="2" d="M193.7722,-750.4921C174.5305,-734.2214 146.1292,-710.2055 125.815,-693.0278"/>
<polygon fill="#0000ff" stroke="#0000ff" stroke-width="2" points="127.82,-690.1397 117.924,-686.3553 123.3001,-695.4848 127.82,-690.1397"/>
<text text-anchor="middle" x="161.4475" y="-711.8" font-family="Times,serif" font-size="14.00" fill="#000000">0</text>
</g>
<!-- d1 -->
<g id="node9" class="node">
<title>d1</title>
<ellipse fill="none" stroke="#000000" cx="206.9475" cy="-599" rx="27" ry="18"/>
<text text-anchor="middle" x="206.9475" y="-595.3" font-family="Times,serif" font-size="14.00" fill="#000000">Dup</text>
</g>
<!-- f1&#45;&gt;d1 -->
<g id="edge9" class="edge">
<title>f1&#45;&gt;d1</title>
<path fill="none" stroke="#ff0000" d="M215.9812,-653.9551C214.6543,-645.8828 213.0587,-636.1764 211.5801,-627.1817"/>
<polygon fill="#ff0000" stroke="#ff0000" points="214.9971,-626.3902 209.9213,-617.0904 208.0898,-627.5257 214.9971,-626.3902"/>
</g>
<!-- d2 -->
<g id="node10" class="node">
<title>d2</title>
<ellipse fill="none" stroke="#000000" cx="296.9475" cy="-599" rx="27" ry="18"/>
<text text-anchor="middle" x="296.9475" y="-595.3" font-family="Times,serif" font-size="14.00" fill="#000000">Dup</text>
</g>
<!-- f1&#45;&gt;d2 -->
<g id="edge10" class="edge">
<title>f1&#45;&gt;d2</title>
<path fill="none" stroke="#0000ff" d="M234.732,-657.2274C245.9387,-646.739 261.1665,-632.4874 273.7516,-620.709"/>
<polygon fill="#0000ff" stroke="#0000ff" points="276.2769,-623.1393 281.1865,-613.7507 271.4937,-618.0284 276.2769,-623.1393"/>
</g>
<!-- x2i_o1&#45;&gt;ret -->
<g id="edge15" class="edge">
<title>x2i_o1&#45;&gt;ret</title>
<path fill="none" stroke="#0000ff" stroke-width="2" d="M91.2063,-655.0688C86.0114,-646.0396 79.5114,-634.742 73.7099,-624.6585"/>
<polygon fill="#0000ff" stroke="#0000ff" stroke-width="2" points="76.6566,-622.7617 68.6359,-615.8393 70.5892,-626.2526 76.6566,-622.7617"/>
</g>
<!-- x2i_o1&#45;&gt;x1_o1 -->
<g id="edge14" class="edge">
<title>x2i_o1&#45;&gt;x1_o1</title>
<path fill="none" stroke="#ff0000" d="M108.7681,-654.7C112.6848,-646.0357 117.5138,-635.3535 121.8917,-625.669"/>
<polygon fill="#ff0000" stroke="#ff0000" points="125.1388,-626.9827 126.0688,-616.4288 118.7602,-624.0992 125.1388,-626.9827"/>
</g>
<!-- d1&#45;&gt;d2 -->
<g id="edge6" class="edge">
<title>d1&#45;&gt;d2</title>
<path fill="none" stroke="#000000" stroke-dasharray="5,2" d="M234.0178,-599C245.981,-599 257.9442,-599 269.9074,-599"/>
</g>
<!-- f_ret -->
<g id="node11" class="node">
<title>f_ret</title>
<ellipse fill="none" stroke="#000000" cx="220.9475" cy="-512" rx="27" ry="18"/>
<text text-anchor="middle" x="220.9475" y="-508.3" font-family="Times,serif" font-size="14.00" fill="#000000">I</text>
</g>
<!-- d1&#45;&gt;f_ret -->
<g id="edge7" class="edge">
<title>d1&#45;&gt;f_ret</title>
<path fill="none" stroke="#ff0000" d="M209.8483,-580.9735C211.7442,-569.1918 214.2596,-553.5607 216.4163,-540.1581"/>
<polygon fill="#ff0000" stroke="#ff0000" points="219.9171,-540.4324 218.0504,-530.0034 213.006,-539.3203 219.9171,-540.4324"/>
</g>
<!-- hi_retp -->
<g id="node12" class="node">
<title>hi_retp</title>
<ellipse fill="none" stroke="#000000" cx="296.9475" cy="-512" rx="27" ry="18"/>
<text text-anchor="middle" x="296.9475" y="-508.3" font-family="Times,serif" font-size="14.00" fill="#000000">!p</text>
</g>
<!-- d2&#45;&gt;hi_retp -->
<g id="edge8" class="edge">
<title>d2&#45;&gt;hi_retp</title>
<path fill="none" stroke="#0000ff" d="M296.9475,-580.9735C296.9475,-569.1918 296.9475,-553.5607 296.9475,-540.1581"/>
<polygon fill="#0000ff" stroke="#0000ff" points="300.4476,-540.0033 296.9475,-530.0034 293.4476,-540.0034 300.4476,-540.0033"/>
<text text-anchor="middle" x="300.4475" y="-551.8" font-family="Times,serif" font-size="14.00" fill="#000000">1</text>
</g>
<!-- hi_ret -->
<g id="node22" class="node">
<title>hi_ret</title>
<ellipse fill="none" stroke="#000000" cx="241.9475" cy="-251" rx="27" ry="18"/>
<text text-anchor="middle" x="241.9475" y="-247.3" font-family="Times,serif" font-size="14.00" fill="#000000">I</text>
</g>
<!-- hi_retp&#45;&gt;hi_ret -->
<g id="edge27" class="edge">
<title>hi_retp&#45;&gt;hi_ret</title>
<path fill="none" stroke="#ff0000" d="M286.0124,-495.4772C277.6504,-481.9598 266.6226,-462.034 260.9475,-443 244.1792,-386.7596 241.4637,-317.5684 241.4198,-279.4961"/>
<polygon fill="#ff0000" stroke="#ff0000" points="244.9214,-279.1918 241.474,-269.1735 237.9215,-279.155 244.9214,-279.1918"/>
<text text-anchor="middle" x="252.4475" y="-377.8" font-family="Times,serif" font-size="14.00" fill="#000000">2</text>
</g>
<!-- h_di -->
<g id="node23" class="node">
<title>h_di</title>
<ellipse fill="none" stroke="#000000" cx="296.9475" cy="-425" rx="27" ry="18"/>
<text text-anchor="middle" x="296.9475" y="-421.3" font-family="Times,serif" font-size="14.00" fill="#000000">!d</text>
</g>
<!-- hi_retp&#45;&gt;h_di -->
<g id="edge28" class="edge">
<title>hi_retp&#45;&gt;h_di</title>
<path fill="none" stroke="#0000ff" d="M296.9475,-493.9735C296.9475,-482.1918 296.9475,-466.5607 296.9475,-453.1581"/>
<polygon fill="#0000ff" stroke="#0000ff" points="300.4476,-453.0033 296.9475,-443.0034 293.4476,-453.0034 300.4476,-453.0033"/>
<text text-anchor="middle" x="300.4475" y="-464.8" font-family="Times,serif" font-size="14.00" fill="#000000">1</text>
</g>
<!-- f2&#45;&gt;d1 -->
<g id="edge11" class="edge">
<title>f2&#45;&gt;d1</title>
<path fill="none" stroke="#ff0000" d="M274.3518,-657.5775C261.5813,-646.4794 243.7915,-631.0192 229.6946,-618.7683"/>
<ellipse fill="none" stroke="#ff0000" cx="226.5279" cy="-616.0163" rx="4" ry="4"/>
</g>
<!-- f2&#45;&gt;d2 -->
<g id="edge12" class="edge">
<title>f2&#45;&gt;d2</title>
<path fill="none" stroke="#0000ff" d="M292.4307,-653.9551C293.1446,-645.2686 294.0141,-634.6898 294.7989,-625.142"/>
<ellipse fill="none" stroke="#0000ff" cx="295.1329" cy="-621.0769" rx="4" ry="4"/>
</g>
<!-- c2 -->
<g id="node14" class="node">
<title>c2</title>
<ellipse fill="none" stroke="#000000" cx="413.9475" cy="-672" rx="27" ry="18"/>
<text text-anchor="middle" x="413.9475" y="-668.3" font-family="Times,serif" font-size="14.00" fill="#000000">Cut</text>
</g>
<!-- o2 -->
<g id="node15" class="node">
<title>o2</title>
<ellipse fill="none" stroke="#000000" cx="459.9475" cy="-599" rx="27" ry="18"/>
<text text-anchor="middle" x="459.9475" y="-595.3" font-family="Times,serif" font-size="14.00" fill="#000000">PiR</text>
</g>
<!-- c2&#45;&gt;o2 -->
<g id="edge16" class="edge">
<title>c2&#45;&gt;o2</title>
<path fill="none" stroke="#ff0000" d="M424.6165,-655.0688C430.3642,-645.9474 437.5706,-634.5112 443.9734,-624.3502"/>
<polygon fill="#ff0000" stroke="#ff0000" points="446.9663,-626.1657 449.3364,-615.8393 441.044,-622.4338 446.9663,-626.1657"/>
</g>
<!-- o2l -->
<g id="node16" class="node">
<title>o2l</title>
<ellipse fill="none" stroke="#000000" cx="368.9475" cy="-599" rx="27" ry="18"/>
<text text-anchor="middle" x="368.9475" y="-595.3" font-family="Times,serif" font-size="14.00" fill="#000000">PiL</text>
</g>
<!-- c2&#45;&gt;o2l -->
<g id="edge17" class="edge">
<title>c2&#45;&gt;o2l</title>
<path fill="none" stroke="#0000ff" d="M403.5105,-655.0688C397.9445,-646.0396 390.9802,-634.742 384.7644,-624.6585"/>
<polygon fill="#0000ff" stroke="#0000ff" points="387.5549,-622.5153 379.3279,-615.8393 381.596,-626.1886 387.5549,-622.5153"/>
</g>
<!-- x_o2 -->
<g id="node17" class="node">
<title>x_o2</title>
<ellipse fill="none" stroke="#000000" cx="459.9475" cy="-512" rx="27" ry="18"/>
<text text-anchor="middle" x="459.9475" y="-508.3" font-family="Times,serif" font-size="14.00" fill="#000000">!c</text>
</g>
<!-- o2&#45;&gt;x_o2 -->
<g id="edge18" class="edge">
<title>o2&#45;&gt;x_o2</title>
<path fill="none" stroke="#0000ff" d="M459.9475,-580.9735C459.9475,-569.1918 459.9475,-553.5607 459.9475,-540.1581"/>
<polygon fill="#0000ff" stroke="#0000ff" points="463.4476,-540.0033 459.9475,-530.0034 456.4476,-540.0034 463.4476,-540.0033"/>
</g>
<!-- ret_o2 -->
<g id="node18" class="node">
<title>ret_o2</title>
<ellipse fill="none" stroke="#000000" cx="532.9475" cy="-251" rx="27" ry="18"/>
<text text-anchor="middle" x="532.9475" y="-247.3" font-family="Times,serif" font-size="14.00" fill="#000000">I</text>
</g>
<!-- o2&#45;&gt;ret_o2 -->
<g id="edge19" class="edge">
<title>o2&#45;&gt;ret_o2</title>
<path fill="none" stroke="#ff0000" d="M480.1683,-587.0359C502.0784,-572.3702 533.9475,-545.3126 533.9475,-512 533.9475,-512 533.9475,-512 533.9475,-338 533.9475,-318.5462 533.6944,-296.6471 533.4429,-279.6867"/>
<polygon fill="#ff0000" stroke="#ff0000" points="536.9369,-279.2737 533.2805,-269.3299 529.9378,-279.3835 536.9369,-279.2737"/>
</g>
<!-- o2l&#45;&gt;f_ret -->
<g id="edge26" class="edge">
<title>o2l&#45;&gt;f_ret</title>
<path fill="none" stroke="#0000ff" d="M353.4867,-583.5726C341.7693,-572.5328 324.8496,-557.927 307.9475,-548 288.6598,-536.6718 281.5995,-538.5931 260.9475,-530 258.245,-528.8755 255.4523,-527.6829 252.6574,-526.468"/>
<polygon fill="#0000ff" stroke="#0000ff" points="253.8356,-523.1621 243.2744,-522.318 251.0041,-529.5639 253.8356,-523.1621"/>
</g>
<!-- o2l&#45;&gt;hi_retp -->
<g id="edge25" class="edge">
<title>o2l&#45;&gt;hi_retp</title>
<path fill="none" stroke="#ff0000" d="M360.1037,-581.5962C354.4654,-571.3083 346.6066,-558.318 337.9475,-548 333.3653,-542.5399 327.9343,-537.1792 322.5496,-532.3312"/>
<polygon fill="#ff0000" stroke="#ff0000" points="324.6555,-529.5256 314.7975,-525.6434 320.0829,-534.8258 324.6555,-529.5256"/>
<text text-anchor="middle" x="352.4475" y="-551.8" font-family="Times,serif" font-size="14.00" fill="#000000">1</text>
</g>
<!-- x1_o2 -->
<g id="node19" class="node">
<title>x1_o2</title>
<ellipse fill="none" stroke="#000000" cx="459.9475" cy="-251" rx="27" ry="18"/>
<text text-anchor="middle" x="459.9475" y="-247.3" font-family="Times,serif" font-size="14.00" fill="#000000">I</text>
</g>
<!-- x_o2&#45;&gt;x1_o2 -->
<g id="edge20" class="edge">
<title>x_o2&#45;&gt;x1_o2</title>
<path fill="none" stroke="#0000ff" d="M454.3466,-494.3488C450.2706,-480.5366 445.103,-460.7589 442.9475,-443 436.3608,-388.7316 436.3608,-374.2684 442.9475,-320 444.6315,-306.1259 448.1539,-291.0196 451.558,-278.4882"/>
<polygon fill="#0000ff" stroke="#0000ff" points="454.9865,-279.2267 454.3466,-268.6512 448.2519,-277.3175 454.9865,-279.2267"/>
</g>
<!-- x2_o2 -->
<g id="node20" class="node">
<title>x2_o2</title>
<ellipse fill="none" stroke="#000000" cx="478.9475" cy="-425" rx="27" ry="18"/>
<text text-anchor="middle" x="478.9475" y="-421.3" font-family="Times,serif" font-size="14.00" fill="#000000">!d</text>
</g>
<!-- x_o2&#45;&gt;x2_o2 -->
<g id="edge21" class="edge">
<title>x_o2&#45;&gt;x2_o2</title>
<path fill="none" stroke="#0000ff" d="M463.8843,-493.9735C466.4574,-482.1918 469.8711,-466.5607 472.7981,-453.1581"/>
<polygon fill="#0000ff" stroke="#0000ff" points="476.3015,-453.5199 475.0158,-443.0034 469.4626,-452.0263 476.3015,-453.5199"/>
</g>
<!-- x2i_o2 -->
<g id="node21" class="node">
<title>x2i_o2</title>
<ellipse fill="none" stroke="#000000" cx="478.9475" cy="-338" rx="27" ry="18"/>
<text text-anchor="middle" x="478.9475" y="-334.3" font-family="Times,serif" font-size="14.00" fill="#000000">PiL</text>
</g>
<!-- x2_o2&#45;&gt;x2i_o2 -->
<g id="edge22" class="edge">
<title>x2_o2&#45;&gt;x2i_o2</title>
<path fill="none" stroke="#0000ff" d="M478.9475,-406.9735C478.9475,-395.1918 478.9475,-379.5607 478.9475,-366.1581"/>
<polygon fill="#0000ff" stroke="#0000ff" points="482.4476,-366.0033 478.9475,-356.0034 475.4476,-366.0034 482.4476,-366.0033"/>
</g>
<!-- x2i_o2&#45;&gt;ret_o2 -->
<g id="edge24" class="edge">
<title>x2i_o2&#45;&gt;ret_o2</title>
<path fill="none" stroke="#0000ff" d="M489.3593,-321.2255C497.2779,-308.4677 508.3047,-290.7024 517.286,-276.2325"/>
<polygon fill="#0000ff" stroke="#0000ff" points="520.2678,-278.0652 522.5677,-267.723 514.3203,-274.3736 520.2678,-278.0652"/>
</g>
<!-- x2i_o2&#45;&gt;x1_o2 -->
<g id="edge23" class="edge">
<title>x2i_o2&#45;&gt;x1_o2</title>
<path fill="none" stroke="#ff0000" d="M475.0107,-319.9735C472.4377,-308.1918 469.024,-292.5607 466.097,-279.1581"/>
<polygon fill="#ff0000" stroke="#ff0000" points="469.4324,-278.0263 463.8793,-269.0034 462.5936,-279.5199 469.4324,-278.0263"/>
</g>
<!-- h -->
<g id="node24" class="node">
<title>h</title>
<ellipse fill="none" stroke="#000000" cx="296.9475" cy="-338" rx="27" ry="18"/>
<text text-anchor="middle" x="296.9475" y="-334.3" font-family="Times,serif" font-size="14.00" fill="#000000">PiL</text>
</g>
<!-- h_di&#45;&gt;h -->
<g id="edge29" class="edge">
<title>h_di&#45;&gt;h</title>
<path fill="none" stroke="#0000ff" d="M296.9475,-406.9735C296.9475,-395.1918 296.9475,-379.5607 296.9475,-366.1581"/>
<polygon fill="#0000ff" stroke="#0000ff" points="300.4476,-366.0033 296.9475,-356.0034 293.4476,-366.0034 300.4476,-366.0033"/>
<text text-anchor="middle" x="300.4475" y="-377.8" font-family="Times,serif" font-size="14.00" fill="#000000">2</text>
</g>
<!-- h&#45;&gt;hi_ret -->
<g id="edge37" class="edge">
<title>h&#45;&gt;hi_ret</title>
<path fill="none" stroke="#0000ff" d="M286.343,-321.2255C278.2776,-308.4677 267.0467,-290.7024 257.8991,-276.2325"/>
<polygon fill="#0000ff" stroke="#0000ff" points="260.8216,-274.3053 252.5195,-267.723 254.9047,-278.0458 260.8216,-274.3053"/>
</g>
<!-- h_app -->
<g id="node27" class="node">
<title>h_app</title>
<ellipse fill="none" stroke="#000000" cx="313.9475" cy="-251" rx="27" ry="18"/>
<text text-anchor="middle" x="313.9475" y="-247.3" font-family="Times,serif" font-size="14.00" fill="#000000">I</text>
</g>
<!-- h&#45;&gt;h_app -->
<g id="edge36" class="edge">
<title>h&#45;&gt;h_app</title>
<path fill="none" stroke="#ff0000" d="M300.4699,-319.9735C302.7721,-308.1918 305.8265,-292.5607 308.4454,-279.1581"/>
<polygon fill="#ff0000" stroke="#ff0000" points="311.9468,-279.489 310.4296,-269.0034 305.0768,-278.1465 311.9468,-279.489"/>
</g>
<!-- c3 -->
<g id="node25" class="node">
<title>c3</title>
<ellipse fill="none" stroke="#000000" cx="368.9475" cy="-338" rx="27" ry="18"/>
<text text-anchor="middle" x="368.9475" y="-334.3" font-family="Times,serif" font-size="14.00" fill="#000000">Cut</text>
</g>
<!-- i -->
<g id="node26" class="node">
<title>i</title>
<ellipse fill="none" stroke="#000000" cx="385.9475" cy="-251" rx="27" ry="18"/>
<text text-anchor="middle" x="385.9475" y="-247.3" font-family="Times,serif" font-size="14.00" fill="#000000">!p</text>
</g>
<!-- c3&#45;&gt;i -->
<g id="edge30" class="edge">
<title>c3&#45;&gt;i</title>
<path fill="none" stroke="#ff0000" d="M372.4699,-319.9735C374.7721,-308.1918 377.8265,-292.5607 380.4454,-279.1581"/>
<polygon fill="#ff0000" stroke="#ff0000" points="383.9468,-279.489 382.4296,-269.0034 377.0768,-278.1465 383.9468,-279.489"/>
<text text-anchor="middle" x="382.4475" y="-290.8" font-family="Times,serif" font-size="14.00" fill="#000000">2</text>
</g>
<!-- c3&#45;&gt;h_app -->
<g id="edge31" class="edge">
<title>c3&#45;&gt;h_app</title>
<path fill="none" stroke="#0000ff" d="M358.343,-321.2255C350.2776,-308.4677 339.0467,-290.7024 329.8991,-276.2325"/>
<polygon fill="#0000ff" stroke="#0000ff" points="332.8216,-274.3053 324.5195,-267.723 326.9047,-278.0458 332.8216,-274.3053"/>
</g>
<!-- i_i -->
<g id="node28" class="node">
<title>i_i</title>
<ellipse fill="none" stroke="#000000" cx="385.9475" cy="-164" rx="27" ry="18"/>
<text text-anchor="middle" x="385.9475" y="-160.3" font-family="Times,serif" font-size="14.00" fill="#000000">PiR</text>
</g>
<!-- i&#45;&gt;i_i -->
<g id="edge32" class="edge">
<title>i&#45;&gt;i_i</title>
<path fill="none" stroke="#ff0000" d="M385.9475,-232.9735C385.9475,-221.1918 385.9475,-205.5607 385.9475,-192.1581"/>
<polygon fill="#ff0000" stroke="#ff0000" points="389.4476,-192.0033 385.9475,-182.0034 382.4476,-192.0034 389.4476,-192.0033"/>
<text text-anchor="middle" x="389.4475" y="-203.8" font-family="Times,serif" font-size="14.00" fill="#000000">3</text>
</g>
<!-- il -->
<g id="node29" class="node">
<title>il</title>
<ellipse fill="none" stroke="#000000" cx="428.9475" cy="-91" rx="27" ry="18"/>
<text text-anchor="middle" x="428.9475" y="-87.3" font-family="Times,serif" font-size="14.00" fill="#000000">!d</text>
</g>
<!-- i_i&#45;&gt;il -->
<g id="edge33" class="edge">
<title>i_i&#45;&gt;il</title>
<path fill="none" stroke="#0000ff" d="M395.9207,-147.0688C401.2393,-138.0396 407.894,-126.742 413.8336,-116.6585"/>
<polygon fill="#0000ff" stroke="#0000ff" points="416.9688,-118.232 419.0285,-107.8393 410.9373,-114.6793 416.9688,-118.232"/>
</g>
<!-- i_ret -->
<g id="node30" class="node">
<title>i_ret</title>
<ellipse fill="none" stroke="#000000" cx="385.9475" cy="-18" rx="27" ry="18"/>
<text text-anchor="middle" x="385.9475" y="-14.3" font-family="Times,serif" font-size="14.00" fill="#000000">I</text>
</g>
<!-- i_i&#45;&gt;i_ret -->
<g id="edge34" class="edge">
<title>i_i&#45;&gt;i_ret</title>
<path fill="none" stroke="#ff0000" d="M385.9475,-145.8042C385.9475,-120.8868 385.9475,-75.8938 385.9475,-46.4877"/>
<polygon fill="#ff0000" stroke="#ff0000" points="389.4476,-46.4251 385.9475,-36.4251 382.4476,-46.4251 389.4476,-46.4251"/>
</g>
<!-- il&#45;&gt;i_ret -->
<g id="edge35" class="edge">
<title>il&#45;&gt;i_ret</title>
<path fill="none" stroke="#0000ff" d="M418.9744,-74.0688C413.6558,-65.0396 407.001,-53.742 401.0614,-43.6585"/>
<polygon fill="#0000ff" stroke="#0000ff" points="403.9577,-41.6793 395.8666,-34.8393 397.9263,-45.232 403.9577,-41.6793"/>
</g>
</g>
</svg>
