<?xml version="1.0" encoding="UTF-8" standalone="no"?>
<!DOCTYPE svg PUBLIC "-//W3C//DTD SVG 1.1//EN"
 "http://www.w3.org/Graphics/SVG/1.1/DTD/svg11.dtd">
<!-- Generated by graphviz version 2.40.1 (20161225.0304)
 -->
<!-- Title: %3 Pages: 1 -->
<svg width="278pt" height="1398pt"
 viewBox="0.00 0.00 277.90 1397.79" xmlns="http://www.w3.org/2000/svg" xmlns:xlink="http://www.w3.org/1999/xlink">
<g id="graph0" class="graph" transform="scale(1 1) rotate(0) translate(4 1393.7947)">
<title>%3</title>
<polygon fill="#ffffff" stroke="transparent" points="-4,4 -4,-1393.7947 273.8973,-1393.7947 273.8973,4 -4,4"/>
<!-- Root -->
<g id="node1" class="node">
<title>Root</title>
<ellipse fill="none" stroke="#000000" cx="157" cy="-1371.7947" rx="32.4942" ry="18"/>
<text text-anchor="middle" x="157" y="-1368.0947" font-family="Times,serif" font-size="14.00" fill="#000000">Root</text>
</g>
<!-- c1a -->
<g id="node2" class="node">
<title>c1a</title>
<ellipse fill="none" stroke="#000000" cx="55" cy="-1298.7947" rx="27.8951" ry="18"/>
<text text-anchor="middle" x="55" y="-1295.0947" font-family="Times,serif" font-size="14.00" fill="#000000">Cut</text>
</g>
<!-- Root&#45;&gt;c1a -->
<g id="edge1" class="edge">
<title>Root&#45;&gt;c1a</title>
<path fill="none" stroke="#000000" d="M136.8481,-1357.3722C121.2249,-1346.191 99.4153,-1330.5821 82.2376,-1318.2883"/>
<polygon fill="#000000" stroke="#000000" points="83.9033,-1315.1764 73.7344,-1312.2026 79.8293,-1320.8688 83.9033,-1315.1764"/>
</g>
<!-- c1b -->
<g id="node3" class="node">
<title>c1b</title>
<ellipse fill="none" stroke="#000000" cx="157" cy="-1298.7947" rx="27.8951" ry="18"/>
<text text-anchor="middle" x="157" y="-1295.0947" font-family="Times,serif" font-size="14.00" fill="#000000">Cut</text>
</g>
<!-- Root&#45;&gt;c1b -->
<g id="edge2" class="edge">
<title>Root&#45;&gt;c1b</title>
<path fill="none" stroke="#000000" d="M157,-1353.7497C157,-1345.6775 157,-1335.9711 157,-1326.9764"/>
<polygon fill="#000000" stroke="#000000" points="160.5001,-1326.885 157,-1316.8851 153.5001,-1326.8851 160.5001,-1326.885"/>
</g>
<!-- d1 -->
<g id="node4" class="node">
<title>d1</title>
<ellipse fill="none" stroke="#000000" cx="240" cy="-964.7947" rx="29.795" ry="18"/>
<text text-anchor="middle" x="240" y="-961.0947" font-family="Times,serif" font-size="14.00" fill="#000000">Dup</text>
</g>
<!-- Root&#45;&gt;d1 -->
<g id="edge5" class="edge">
<title>Root&#45;&gt;d1</title>
<path fill="none" stroke="#ff0000" d="M181.7145,-1359.8794C202.8923,-1347.7463 230,-1326.7549 230,-1298.7947 230,-1298.7947 230,-1298.7947 230,-1037.7947 230,-1022.8561 232.081,-1006.3557 234.3443,-992.827"/>
<polygon fill="#ff0000" stroke="#ff0000" points="237.84,-993.1622 236.1623,-982.7011 230.9502,-991.9252 237.84,-993.1622"/>
<text text-anchor="middle" x="247.5" y="-1164.5947" font-family="Times,serif" font-size="14.00" fill="#000000">0&#45;&gt;1</text>
</g>
<!-- d2a -->
<g id="node5" class="node">
<title>d2a</title>
<ellipse fill="none" stroke="#000000" cx="50" cy="-875.8973" rx="29.795" ry="18"/>
<text text-anchor="middle" x="50" y="-872.1973" font-family="Times,serif" font-size="14.00" fill="#000000">Dup</text>
</g>
<!-- c1a&#45;&gt;d2a -->
<g id="edge12" class="edge">
<title>c1a&#45;&gt;d2a</title>
<path fill="none" stroke="#0000ff" d="M38.4982,-1284.2238C22.2976,-1268.228 0,-1240.9217 0,-1211.7947 0,-1211.7947 0,-1211.7947 0,-964.7947 0,-940.1429 14.7872,-916.0127 28.2783,-899.1274"/>
<polygon fill="#0000ff" stroke="#0000ff" points="30.9754,-901.3582 34.7267,-891.4497 25.6151,-896.8562 30.9754,-901.3582"/>
<text text-anchor="middle" x="5" y="-1077.5947" font-family="Times,serif" font-size="14.00" fill="#000000">1</text>
</g>
<!-- fpa -->
<g id="node11" class="node">
<title>fpa</title>
<ellipse fill="none" stroke="#000000" cx="55" cy="-1211.7947" rx="27" ry="18"/>
<text text-anchor="middle" x="55" y="-1208.0947" font-family="Times,serif" font-size="14.00" fill="#000000">!p</text>
</g>
<!-- c1a&#45;&gt;fpa -->
<g id="edge11" class="edge">
<title>c1a&#45;&gt;fpa</title>
<path fill="none" stroke="#ff0000" d="M55,-1280.7682C55,-1268.9865 55,-1253.3553 55,-1239.9528"/>
<polygon fill="#ff0000" stroke="#ff0000" points="58.5001,-1239.798 55,-1229.7981 51.5001,-1239.7981 58.5001,-1239.798"/>
<text text-anchor="middle" x="60" y="-1251.5947" font-family="Times,serif" font-size="14.00" fill="#000000">0</text>
</g>
<!-- d2b -->
<g id="node6" class="node">
<title>d2b</title>
<ellipse fill="none" stroke="#000000" cx="159" cy="-875.8973" rx="29.8071" ry="29.8071"/>
<ellipse fill="none" stroke="#000000" cx="159" cy="-875.8973" rx="33.795" ry="33.795"/>
<text text-anchor="middle" x="159" y="-872.1973" font-family="Times,serif" font-size="14.00" fill="#000000">Dup</text>
</g>
<!-- c1b&#45;&gt;d2b -->
<g id="edge14" class="edge">
<title>c1b&#45;&gt;d2b</title>
<path fill="none" stroke="#0000ff" d="M165.0478,-1281.5508C172.3561,-1264.2914 182,-1236.7822 182,-1211.7947 182,-1211.7947 182,-1211.7947 182,-964.7947 182,-948.9924 178.5516,-932.0993 174.3253,-917.3294"/>
<polygon fill="#0000ff" stroke="#0000ff" points="177.5843,-916.0185 171.308,-907.4828 170.8915,-918.0694 177.5843,-916.0185"/>
<text text-anchor="middle" x="187" y="-1077.5947" font-family="Times,serif" font-size="14.00" fill="#000000">1</text>
</g>
<!-- fpb -->
<g id="node12" class="node">
<title>fpb</title>
<ellipse fill="none" stroke="#000000" cx="127" cy="-1211.7947" rx="27" ry="18"/>
<text text-anchor="middle" x="127" y="-1208.0947" font-family="Times,serif" font-size="14.00" fill="#000000">!p</text>
</g>
<!-- c1b&#45;&gt;fpb -->
<g id="edge13" class="edge">
<title>c1b&#45;&gt;fpb</title>
<path fill="none" stroke="#ff0000" d="M150.9291,-1281.1889C146.7408,-1269.0429 141.0922,-1252.6621 136.3349,-1238.8658"/>
<polygon fill="#ff0000" stroke="#ff0000" points="139.6307,-1237.687 133.0619,-1229.3743 133.0131,-1239.969 139.6307,-1237.687"/>
<text text-anchor="middle" x="149" y="-1251.5947" font-family="Times,serif" font-size="14.00" fill="#000000">0</text>
</g>
<!-- d1&#45;&gt;d2a -->
<g id="edge3" class="edge">
<title>d1&#45;&gt;d2a</title>
<path fill="none" stroke="#000000" stroke-dasharray="5,2" d="M215.1073,-954.2491C189.9339,-943.4688 149.9952,-926.0476 116,-909.7947 101.3571,-902.794 85.1399,-894.473 72.4453,-887.8273"/>
</g>
<!-- d1&#45;&gt;d2b -->
<g id="edge4" class="edge">
<title>d1&#45;&gt;d2b</title>
<path fill="none" stroke="#000000" stroke-dasharray="5,2" d="M225.5188,-948.9016C213.4145,-935.6172 195.9331,-916.4313 181.9288,-901.0616"/>
</g>
<!-- f_ret -->
<g id="node7" class="node">
<title>f_ret</title>
<ellipse fill="none" stroke="#000000" cx="240" cy="-512" rx="27" ry="18"/>
<text text-anchor="middle" x="240" y="-508.3" font-family="Times,serif" font-size="14.00" fill="#000000">I</text>
</g>
<!-- d1&#45;&gt;f_ret -->
<g id="edge6" class="edge">
<title>d1&#45;&gt;f_ret</title>
<path fill="none" stroke="#ff0000" d="M240,-946.747C240,-928.7864 240,-900.4367 240,-875.8973 240,-875.8973 240,-875.8973 240,-599 240,-579.5475 240,-557.6484 240,-540.6877"/>
<polygon fill="#ff0000" stroke="#ff0000" points="243.5001,-540.3305 240,-530.3306 236.5001,-540.3306 243.5001,-540.3305"/>
</g>
<!-- hi_retpa -->
<g id="node8" class="node">
<title>hi_retpa</title>
<ellipse fill="none" stroke="#000000" cx="79" cy="-512" rx="27" ry="18"/>
<text text-anchor="middle" x="79" y="-508.3" font-family="Times,serif" font-size="14.00" fill="#000000">!p</text>
</g>
<!-- d2a&#45;&gt;hi_retpa -->
<g id="edge7" class="edge">
<title>d2a&#45;&gt;hi_retpa</title>
<path fill="none" stroke="#0000ff" d="M50,-857.6819C50,-837.1162 50,-802.6544 50,-773 50,-773 50,-773 50,-599 50,-577.8385 57.8174,-555.1988 65.3346,-538.3203"/>
<polygon fill="#0000ff" stroke="#0000ff" points="68.5805,-539.6422 69.6646,-529.1029 62.2448,-536.6658 68.5805,-539.6422"/>
<text text-anchor="middle" x="55" y="-682.3" font-family="Times,serif" font-size="14.00" fill="#000000">1</text>
</g>
<!-- h_dib -->
<g id="node9" class="node">
<title>h_dib</title>
<ellipse fill="none" stroke="#000000" cx="159" cy="-773" rx="27" ry="18"/>
<text text-anchor="middle" x="159" y="-769.3" font-family="Times,serif" font-size="14.00" fill="#000000">!d</text>
</g>
<!-- d2b&#45;&gt;h_dib -->
<g id="edge8" class="edge">
<title>d2b&#45;&gt;h_dib</title>
<path fill="none" stroke="#0000ff" d="M159,-841.9197C159,-828.7897 159,-813.937 159,-801.3909"/>
<polygon fill="#0000ff" stroke="#0000ff" points="162.5001,-801.0604 159,-791.0604 155.5001,-801.0605 162.5001,-801.0604"/>
<text text-anchor="middle" x="164" y="-812.8" font-family="Times,serif" font-size="14.00" fill="#000000">1</text>
</g>
<!-- hi_reta -->
<g id="node16" class="node">
<title>hi_reta</title>
<ellipse fill="none" stroke="#000000" cx="100" cy="-251" rx="27" ry="18"/>
<text text-anchor="middle" x="100" y="-247.3" font-family="Times,serif" font-size="14.00" fill="#000000">I</text>
</g>
<!-- hi_retpa&#45;&gt;hi_reta -->
<g id="edge22" class="edge">
<title>hi_retpa&#45;&gt;hi_reta</title>
<path fill="none" stroke="#ff0000" d="M80.4767,-493.647C84.0927,-448.7053 93.4102,-332.9017 97.7338,-279.1653"/>
<polygon fill="#ff0000" stroke="#ff0000" points="101.2395,-279.2347 98.5528,-268.9862 94.262,-278.6733 101.2395,-279.2347"/>
<text text-anchor="middle" x="95" y="-377.8" font-family="Times,serif" font-size="14.00" fill="#000000">2</text>
</g>
<!-- h_dia -->
<g id="node17" class="node">
<title>h_dia</title>
<ellipse fill="none" stroke="#000000" cx="45" cy="-425" rx="27" ry="18"/>
<text text-anchor="middle" x="45" y="-421.3" font-family="Times,serif" font-size="14.00" fill="#000000">!d</text>
</g>
<!-- hi_retpa&#45;&gt;h_dia -->
<g id="edge23" class="edge">
<title>hi_retpa&#45;&gt;h_dia</title>
<path fill="none" stroke="#0000ff" d="M72.1196,-494.3943C67.1424,-481.6586 60.3458,-464.2671 54.8018,-450.081"/>
<ellipse fill="none" stroke="#0000ff" cx="53.3262" cy="-446.3052" rx="4" ry="4"/>
<text text-anchor="middle" x="70" y="-464.8" font-family="Times,serif" font-size="14.00" fill="#000000">1</text>
</g>
<!-- hb -->
<g id="node19" class="node">
<title>hb</title>
<ellipse fill="none" stroke="#000000" cx="159" cy="-686" rx="27" ry="18"/>
<text text-anchor="middle" x="159" y="-682.3" font-family="Times,serif" font-size="14.00" fill="#000000">PiL</text>
</g>
<!-- h_dib&#45;&gt;hb -->
<g id="edge25" class="edge">
<title>h_dib&#45;&gt;hb</title>
<path fill="none" stroke="#0000ff" d="M159,-754.9735C159,-743.1918 159,-727.5607 159,-714.1581"/>
<polygon fill="#0000ff" stroke="#0000ff" points="162.5001,-714.0033 159,-704.0034 155.5001,-714.0034 162.5001,-714.0033"/>
<text text-anchor="middle" x="164" y="-725.8" font-family="Times,serif" font-size="14.00" fill="#000000">2</text>
</g>
<!-- hi_retpc1 -->
<g id="node10" class="node">
<title>hi_retpc1</title>
<ellipse fill="none" stroke="#000000" cx="126" cy="-964.7947" rx="27" ry="18"/>
<text text-anchor="middle" x="126" y="-961.0947" font-family="Times,serif" font-size="14.00" fill="#000000">!c</text>
</g>
<!-- hi_retpc1&#45;&gt;d2a -->
<g id="edge9" class="edge">
<title>hi_retpc1&#45;&gt;d2a</title>
<path fill="none" stroke="#0000ff" d="M112.4127,-948.9016C100.3832,-934.8306 82.6932,-914.1386 69.2154,-898.3736"/>
<ellipse fill="none" stroke="#0000ff" cx="66.3252" cy="-894.9929" rx="4" ry="4"/>
</g>
<!-- hi_retpc1&#45;&gt;d2b -->
<g id="edge10" class="edge">
<title>hi_retpc1&#45;&gt;d2b</title>
<path fill="none" stroke="#0000ff" d="M132.5197,-947.2314C135.9078,-938.1044 140.1952,-926.5548 144.3278,-915.4223"/>
<ellipse fill="none" stroke="#0000ff" cx="145.759" cy="-911.5667" rx="4" ry="4"/>
</g>
<!-- d5 -->
<g id="node13" class="node">
<title>d5</title>
<ellipse fill="none" stroke="#000000" cx="124" cy="-1124.7947" rx="29.795" ry="18"/>
<text text-anchor="middle" x="124" y="-1121.0947" font-family="Times,serif" font-size="14.00" fill="#000000">Dup</text>
</g>
<!-- fpa&#45;&gt;d5 -->
<g id="edge15" class="edge">
<title>fpa&#45;&gt;d5</title>
<path fill="none" stroke="#ff0000" d="M67.6557,-1195.8376C78.0289,-1182.7583 92.878,-1164.0355 104.7282,-1149.0939"/>
<polygon fill="#ff0000" stroke="#ff0000" points="107.484,-1151.2517 110.9557,-1141.2418 101.9995,-1146.9019 107.484,-1151.2517"/>
<text text-anchor="middle" x="99" y="-1164.5947" font-family="Times,serif" font-size="14.00" fill="#000000">1</text>
</g>
<!-- fpb&#45;&gt;d5 -->
<g id="edge16" class="edge">
<title>fpb&#45;&gt;d5</title>
<path fill="none" stroke="#ff0000" d="M126.3784,-1193.7682C125.9721,-1181.9865 125.4331,-1166.3553 124.971,-1152.9528"/>
<polygon fill="#ff0000" stroke="#ff0000" points="128.4634,-1152.6715 124.6208,-1142.7981 121.4676,-1152.9128 128.4634,-1152.6715"/>
<text text-anchor="middle" x="131" y="-1164.5947" font-family="Times,serif" font-size="14.00" fill="#000000">1</text>
</g>
<!-- fa -->
<g id="node14" class="node">
<title>fa</title>
<ellipse fill="none" stroke="#000000" cx="126" cy="-1037.7947" rx="27" ry="18"/>
<text text-anchor="middle" x="126" y="-1034.0947" font-family="Times,serif" font-size="14.00" fill="#000000">PiR</text>
</g>
<!-- d5&#45;&gt;fa -->
<g id="edge17" class="edge">
<title>d5&#45;&gt;fa</title>
<path fill="none" stroke="#ff0000" d="M124.4144,-1106.7682C124.6852,-1094.9865 125.0446,-1079.3553 125.3527,-1065.9528"/>
<polygon fill="#ff0000" stroke="#ff0000" points="128.8553,-1065.8759 125.5861,-1055.7981 121.8571,-1065.7149 128.8553,-1065.8759"/>
</g>
<!-- fa&#45;&gt;d1 -->
<g id="edge19" class="edge">
<title>fa&#45;&gt;d1</title>
<path fill="none" stroke="#ff0000" d="M145.5973,-1025.2455C164.048,-1013.4306 191.8599,-995.6213 212.5225,-982.3899"/>
<ellipse fill="none" stroke="#ff0000" cx="216.1374" cy="-980.0751" rx="4" ry="4"/>
</g>
<!-- fa&#45;&gt;hi_retpc1 -->
<g id="edge18" class="edge">
<title>fa&#45;&gt;hi_retpc1</title>
<path fill="none" stroke="#0000ff" d="M126,-1019.7497C126,-1011.6775 126,-1001.9711 126,-992.9764"/>
<polygon fill="#0000ff" stroke="#0000ff" points="129.5001,-992.885 126,-982.8851 122.5001,-992.8851 129.5001,-992.885"/>
</g>
<!-- x2i_o2 -->
<g id="node15" class="node">
<title>x2i_o2</title>
<ellipse fill="none" stroke="#000000" cx="105" cy="-599" rx="27" ry="18"/>
<text text-anchor="middle" x="105" y="-595.3" font-family="Times,serif" font-size="14.00" fill="#000000">PiL</text>
</g>
<!-- x2i_o2&#45;&gt;f_ret -->
<g id="edge21" class="edge">
<title>x2i_o2&#45;&gt;f_ret</title>
<path fill="none" stroke="#0000ff" d="M121.0987,-584.3299C133.406,-573.5311 151.081,-558.8944 168,-548 168.1284,-547.9173 189.6041,-537.1812 209.0649,-527.4562"/>
<polygon fill="#0000ff" stroke="#0000ff" points="210.6857,-530.559 218.0666,-522.9581 207.5567,-524.2972 210.6857,-530.559"/>
</g>
<!-- x2i_o2&#45;&gt;hi_retpa -->
<g id="edge20" class="edge">
<title>x2i_o2&#45;&gt;hi_retpa</title>
<path fill="none" stroke="#ff0000" d="M99.6128,-580.9735C96.0332,-568.9958 91.2647,-553.0396 87.2157,-539.4912"/>
<polygon fill="#ff0000" stroke="#ff0000" points="90.5083,-538.2848 84.2914,-529.7057 83.8013,-540.2892 90.5083,-538.2848"/>
<text text-anchor="middle" x="99" y="-551.8" font-family="Times,serif" font-size="14.00" fill="#000000">1</text>
</g>
<!-- ha -->
<g id="node18" class="node">
<title>ha</title>
<ellipse fill="none" stroke="#000000" cx="45" cy="-338" rx="27" ry="18"/>
<text text-anchor="middle" x="45" y="-334.3" font-family="Times,serif" font-size="14.00" fill="#000000">PiL</text>
</g>
<!-- h_dia&#45;&gt;ha -->
<g id="edge24" class="edge">
<title>h_dia&#45;&gt;ha</title>
<path fill="none" stroke="#0000ff" d="M45,-406.9735C45,-395.1918 45,-379.5607 45,-366.1581"/>
<polygon fill="#0000ff" stroke="#0000ff" points="48.5001,-366.0033 45,-356.0034 41.5001,-366.0034 48.5001,-366.0033"/>
<text text-anchor="middle" x="50" y="-377.8" font-family="Times,serif" font-size="14.00" fill="#000000">2</text>
</g>
<!-- ha&#45;&gt;hi_reta -->
<g id="edge27" class="edge">
<title>ha&#45;&gt;hi_reta</title>
<path fill="none" stroke="#0000ff" d="M55.6046,-321.2255C63.6699,-308.4677 74.9008,-290.7024 84.0484,-276.2325"/>
<polygon fill="#0000ff" stroke="#0000ff" points="87.0428,-278.0458 89.428,-267.723 81.126,-274.3053 87.0428,-278.0458"/>
</g>
<!-- i1 -->
<g id="node20" class="node">
<title>i1</title>
<ellipse fill="none" stroke="#000000" cx="28" cy="-251" rx="27" ry="18"/>
<text text-anchor="middle" x="28" y="-247.3" font-family="Times,serif" font-size="14.00" fill="#000000">!p</text>
</g>
<!-- ha&#45;&gt;i1 -->
<g id="edge26" class="edge">
<title>ha&#45;&gt;i1</title>
<path fill="none" stroke="#ff0000" d="M41.4776,-319.9735C39.1754,-308.1918 36.121,-292.5607 33.5022,-279.1581"/>
<polygon fill="#ff0000" stroke="#ff0000" points="36.8708,-278.1465 31.5179,-269.0034 30.0007,-279.489 36.8708,-278.1465"/>
<text text-anchor="middle" x="43" y="-290.8" font-family="Times,serif" font-size="14.00" fill="#000000">2</text>
</g>
<!-- hb&#45;&gt;x2i_o2 -->
<g id="edge29" class="edge">
<title>hb&#45;&gt;x2i_o2</title>
<path fill="none" stroke="#0000ff" d="M144.0666,-670.6478C138.5897,-664.532 132.6093,-657.2342 128,-650 123.2505,-642.5457 118.9714,-633.9467 115.4283,-625.9587"/>
<polygon fill="#0000ff" stroke="#0000ff" points="118.6056,-624.4856 111.4896,-616.6362 112.1575,-627.2099 118.6056,-624.4856"/>
<text text-anchor="middle" x="145.5" y="-638.8" font-family="Times,serif" font-size="14.00" fill="#000000">2&#45;&gt;1</text>
</g>
<!-- i2 -->
<g id="node21" class="node">
<title>i2</title>
<ellipse fill="none" stroke="#000000" cx="177" cy="-599" rx="27" ry="18"/>
<text text-anchor="middle" x="177" y="-595.3" font-family="Times,serif" font-size="14.00" fill="#000000">!p</text>
</g>
<!-- hb&#45;&gt;i2 -->
<g id="edge28" class="edge">
<title>hb&#45;&gt;i2</title>
<path fill="none" stroke="#ff0000" d="M162.7296,-667.9735C165.1672,-656.1918 168.4012,-640.5607 171.1742,-627.1581"/>
<polygon fill="#ff0000" stroke="#ff0000" points="174.6764,-627.5051 173.2752,-617.0034 167.8216,-626.0868 174.6764,-627.5051"/>
<text text-anchor="middle" x="175" y="-638.8" font-family="Times,serif" font-size="14.00" fill="#000000">2</text>
</g>
<!-- i_i1 -->
<g id="node22" class="node">
<title>i_i1</title>
<ellipse fill="none" stroke="#000000" cx="28" cy="-164" rx="27" ry="18"/>
<text text-anchor="middle" x="28" y="-160.3" font-family="Times,serif" font-size="14.00" fill="#000000">PiR</text>
</g>
<!-- i1&#45;&gt;i_i1 -->
<g id="edge30" class="edge">
<title>i1&#45;&gt;i_i1</title>
<path fill="none" stroke="#ff0000" d="M28,-232.9735C28,-221.1918 28,-205.5607 28,-192.1581"/>
<polygon fill="#ff0000" stroke="#ff0000" points="31.5001,-192.0033 28,-182.0034 24.5001,-192.0034 31.5001,-192.0033"/>
<text text-anchor="middle" x="33" y="-203.8" font-family="Times,serif" font-size="14.00" fill="#000000">3</text>
</g>
<!-- i_i2 -->
<g id="node25" class="node">
<title>i_i2</title>
<ellipse fill="none" stroke="#000000" cx="168" cy="-512" rx="27" ry="18"/>
<text text-anchor="middle" x="168" y="-508.3" font-family="Times,serif" font-size="14.00" fill="#000000">PiR</text>
</g>
<!-- i2&#45;&gt;i_i2 -->
<g id="edge34" class="edge">
<title>i2&#45;&gt;i_i2</title>
<path fill="none" stroke="#ff0000" d="M175.1352,-580.9735C173.9164,-569.1918 172.2994,-553.5607 170.9129,-540.1581"/>
<polygon fill="#ff0000" stroke="#ff0000" points="174.3729,-539.5901 169.8624,-530.0034 167.4101,-540.3105 174.3729,-539.5901"/>
<text text-anchor="middle" x="179" y="-551.8" font-family="Times,serif" font-size="14.00" fill="#000000">3</text>
</g>
<!-- il1 -->
<g id="node23" class="node">
<title>il1</title>
<ellipse fill="none" stroke="#000000" cx="71" cy="-91" rx="27" ry="18"/>
<text text-anchor="middle" x="71" y="-87.3" font-family="Times,serif" font-size="14.00" fill="#000000">!d</text>
</g>
<!-- i_i1&#45;&gt;il1 -->
<g id="edge31" class="edge">
<title>i_i1&#45;&gt;il1</title>
<path fill="none" stroke="#0000ff" d="M37.9731,-147.0688C43.2918,-138.0396 49.9465,-126.742 55.8861,-116.6585"/>
<polygon fill="#0000ff" stroke="#0000ff" points="59.0212,-118.232 61.0809,-107.8393 52.9898,-114.6793 59.0212,-118.232"/>
</g>
<!-- i_ret1 -->
<g id="node24" class="node">
<title>i_ret1</title>
<ellipse fill="none" stroke="#000000" cx="28" cy="-18" rx="27" ry="18"/>
<text text-anchor="middle" x="28" y="-14.3" font-family="Times,serif" font-size="14.00" fill="#000000">I</text>
</g>
<!-- i_i1&#45;&gt;i_ret1 -->
<g id="edge32" class="edge">
<title>i_i1&#45;&gt;i_ret1</title>
<path fill="none" stroke="#ff0000" d="M28,-145.8042C28,-120.8868 28,-75.8938 28,-46.4877"/>
<polygon fill="#ff0000" stroke="#ff0000" points="31.5001,-46.4251 28,-36.4251 24.5001,-46.4251 31.5001,-46.4251"/>
</g>
<!-- il1&#45;&gt;i_ret1 -->
<g id="edge33" class="edge">
<title>il1&#45;&gt;i_ret1</title>
<path fill="none" stroke="#0000ff" d="M61.0269,-74.0688C55.7082,-65.0396 49.0535,-53.742 43.1139,-43.6585"/>
<polygon fill="#0000ff" stroke="#0000ff" points="46.0102,-41.6793 37.9191,-34.8393 39.9788,-45.232 46.0102,-41.6793"/>
</g>
<!-- il2 -->
<g id="node26" class="node">
<title>il2</title>
<ellipse fill="none" stroke="#000000" cx="201" cy="-425" rx="27" ry="18"/>
<text text-anchor="middle" x="201" y="-421.3" font-family="Times,serif" font-size="14.00" fill="#000000">!d</text>
</g>
<!-- i_i2&#45;&gt;il2 -->
<g id="edge35" class="edge">
<title>i_i2&#45;&gt;il2</title>
<path fill="none" stroke="#0000ff" d="M174.678,-494.3943C179.2852,-482.2482 185.4986,-465.8674 190.7316,-452.0711"/>
<polygon fill="#0000ff" stroke="#0000ff" points="194.0578,-453.1709 194.3319,-442.5796 187.5128,-450.6882 194.0578,-453.1709"/>
</g>
<!-- i_ret2 -->
<g id="node27" class="node">
<title>i_ret2</title>
<ellipse fill="none" stroke="#000000" cx="159" cy="-338" rx="27" ry="18"/>
<text text-anchor="middle" x="159" y="-334.3" font-family="Times,serif" font-size="14.00" fill="#000000">I</text>
</g>
<!-- i_i2&#45;&gt;i_ret2 -->
<g id="edge36" class="edge">
<title>i_i2&#45;&gt;i_ret2</title>
<path fill="none" stroke="#ff0000" d="M167.0539,-493.7078C165.4833,-463.3436 162.327,-402.3226 160.4662,-366.3464"/>
<polygon fill="#ff0000" stroke="#ff0000" points="163.9454,-365.8529 159.9335,-356.0471 156.9548,-366.2146 163.9454,-365.8529"/>
</g>
<!-- il2&#45;&gt;i_ret2 -->
<g id="edge37" class="edge">
<title>il2&#45;&gt;i_ret2</title>
<path fill="none" stroke="#0000ff" d="M192.7022,-407.8116C186.7196,-395.4191 178.5339,-378.4631 171.728,-364.3651"/>
<polygon fill="#0000ff" stroke="#0000ff" points="174.7801,-362.6366 167.2806,-355.1527 168.4762,-365.6799 174.7801,-362.6366"/>
</g>
</g>
</svg>
