<?xml version="1.0" encoding="UTF-8" standalone="no"?>
<!DOCTYPE svg PUBLIC "-//W3C//DTD SVG 1.1//EN"
 "http://www.w3.org/Graphics/SVG/1.1/DTD/svg11.dtd">
<!-- Generated by graphviz version 2.40.1 (20161225.0304)
 -->
<!-- Title: %3 Pages: 1 -->
<svg width="351pt" height="1285pt"
 viewBox="0.00 0.00 351.00 1284.59" xmlns="http://www.w3.org/2000/svg" xmlns:xlink="http://www.w3.org/1999/xlink">
<g id="graph0" class="graph" transform="scale(1 1) rotate(0) translate(4 1280.5894)">
<title>%3</title>
<polygon fill="#ffffff" stroke="transparent" points="-4,4 -4,-1280.5894 347,-1280.5894 347,4 -4,4"/>
<!-- Root -->
<g id="node1" class="node">
<title>Root</title>
<ellipse fill="none" stroke="#000000" cx="203" cy="-1258.5894" rx="32.4942" ry="18"/>
<text text-anchor="middle" x="203" y="-1254.8894" font-family="Times,serif" font-size="14.00" fill="#000000">Root</text>
</g>
<!-- c1a -->
<g id="node2" class="node">
<title>c1a</title>
<ellipse fill="none" stroke="#000000" cx="60" cy="-1185.5894" rx="27.8951" ry="18"/>
<text text-anchor="middle" x="60" y="-1181.8894" font-family="Times,serif" font-size="14.00" fill="#000000">Cut</text>
</g>
<!-- Root&#45;&gt;c1a -->
<g id="edge1" class="edge">
<title>Root&#45;&gt;c1a</title>
<path fill="none" stroke="#000000" d="M179.065,-1246.3708C154.9887,-1234.0801 117.7435,-1215.0669 91.3281,-1201.5821"/>
<polygon fill="#000000" stroke="#000000" points="92.6285,-1198.3163 82.1306,-1196.8868 89.4458,-1204.5509 92.6285,-1198.3163"/>
</g>
<!-- c1b -->
<g id="node3" class="node">
<title>c1b</title>
<ellipse fill="none" stroke="#000000" cx="203" cy="-1185.5894" rx="27.8951" ry="18"/>
<text text-anchor="middle" x="203" y="-1181.8894" font-family="Times,serif" font-size="14.00" fill="#000000">Cut</text>
</g>
<!-- Root&#45;&gt;c1b -->
<g id="edge2" class="edge">
<title>Root&#45;&gt;c1b</title>
<path fill="none" stroke="#000000" d="M203,-1240.5444C203,-1232.4722 203,-1222.7658 203,-1213.7711"/>
<polygon fill="#000000" stroke="#000000" points="206.5001,-1213.6797 203,-1203.6797 199.5001,-1213.6798 206.5001,-1213.6797"/>
</g>
<!-- d1 -->
<g id="node6" class="node">
<title>d1</title>
<ellipse fill="none" stroke="#000000" cx="293" cy="-851.5894" rx="29.795" ry="18"/>
<text text-anchor="middle" x="293" y="-847.8894" font-family="Times,serif" font-size="14.00" fill="#000000">Dup</text>
</g>
<!-- Root&#45;&gt;d1 -->
<g id="edge10" class="edge">
<title>Root&#45;&gt;d1</title>
<path fill="none" stroke="#ff0000" d="M233.0888,-1251.4466C264.1161,-1242.0784 308,-1222.3335 308,-1185.5894 308,-1185.5894 308,-1185.5894 308,-924.5894 308,-909.3302 304.8164,-892.6372 301.3826,-879.0701"/>
<polygon fill="#ff0000" stroke="#ff0000" points="304.7504,-878.1164 298.7565,-869.3801 297.9942,-879.9475 304.7504,-878.1164"/>
<text text-anchor="middle" x="325.5" y="-1051.3894" font-family="Times,serif" font-size="14.00" fill="#000000">0&#45;&gt;1</text>
</g>
<!-- c2b -->
<g id="node5" class="node">
<title>c2b</title>
<ellipse fill="none" stroke="#000000" cx="193" cy="-851.5894" rx="27.8951" ry="18"/>
<text text-anchor="middle" x="193" y="-847.8894" font-family="Times,serif" font-size="14.00" fill="#000000">Cut</text>
</g>
<!-- c1a&#45;&gt;c2b -->
<g id="edge4" class="edge">
<title>c1a&#45;&gt;c2b</title>
<path fill="none" stroke="#000000" d="M57.1521,-1167.5951C51.7385,-1127.5816 43.601,-1029.3444 81,-960.5894 101.3843,-923.1146 138.9763,-890.5565 164.9503,-871.0113"/>
<polygon fill="#000000" stroke="#000000" points="167.288,-873.6367 173.2718,-864.8934 163.1417,-867.9968 167.288,-873.6367"/>
</g>
<!-- d2a -->
<g id="node7" class="node">
<title>d2a</title>
<ellipse fill="none" stroke="#000000" cx="108" cy="-764.5894" rx="29.795" ry="18"/>
<text text-anchor="middle" x="108" y="-760.8894" font-family="Times,serif" font-size="14.00" fill="#000000">Dup</text>
</g>
<!-- c1a&#45;&gt;d2a -->
<g id="edge17" class="edge">
<title>c1a&#45;&gt;d2a</title>
<path fill="none" stroke="#0000ff" d="M42.3225,-1171.6156C24.624,-1155.9217 0,-1128.6798 0,-1098.5894 0,-1098.5894 0,-1098.5894 0,-888.0894 0,-840.8355 45.3575,-802.9609 77.2841,-782.1544"/>
<polygon fill="#0000ff" stroke="#0000ff" points="79.2829,-785.032 85.884,-776.7449 75.5557,-779.1067 79.2829,-785.032"/>
<text text-anchor="middle" x="5" y="-964.3894" font-family="Times,serif" font-size="14.00" fill="#000000">1</text>
</g>
<!-- fpa -->
<g id="node16" class="node">
<title>fpa</title>
<ellipse fill="none" stroke="#000000" cx="93" cy="-1098.5894" rx="27" ry="18"/>
<text text-anchor="middle" x="93" y="-1094.8894" font-family="Times,serif" font-size="14.00" fill="#000000">!p</text>
</g>
<!-- c1a&#45;&gt;fpa -->
<g id="edge16" class="edge">
<title>c1a&#45;&gt;fpa</title>
<path fill="none" stroke="#ff0000" d="M66.678,-1167.9836C71.2852,-1155.8376 77.4986,-1139.4568 82.7316,-1125.6605"/>
<polygon fill="#ff0000" stroke="#ff0000" points="86.0578,-1126.7602 86.3319,-1116.169 79.5128,-1124.2776 86.0578,-1126.7602"/>
<text text-anchor="middle" x="84" y="-1138.3894" font-family="Times,serif" font-size="14.00" fill="#000000">0</text>
</g>
<!-- c1b&#45;&gt;c2b -->
<g id="edge5" class="edge">
<title>c1b&#45;&gt;c2b</title>
<path fill="none" stroke="#000000" d="M219.5018,-1171.0185C235.7024,-1155.0227 258,-1127.7163 258,-1098.5894 258,-1098.5894 258,-1098.5894 258,-924.5894 258,-901.5479 239.7142,-882.4123 222.5401,-869.5213"/>
<polygon fill="#000000" stroke="#000000" points="224.4743,-866.6026 214.2834,-863.7048 220.4429,-872.3252 224.4743,-866.6026"/>
</g>
<!-- d2b -->
<g id="node8" class="node">
<title>d2b</title>
<ellipse fill="none" stroke="#000000" cx="30" cy="-764.5894" rx="29.795" ry="18"/>
<text text-anchor="middle" x="30" y="-760.8894" font-family="Times,serif" font-size="14.00" fill="#000000">Dup</text>
</g>
<!-- c1b&#45;&gt;d2b -->
<g id="edge19" class="edge">
<title>c1b&#45;&gt;d2b</title>
<path fill="none" stroke="#0000ff" d="M193.4137,-1168.312C167.8279,-1121.5533 97.1493,-988.0691 57,-869.5894 48.3181,-843.9694 40.8747,-814.0226 36.0154,-792.6818"/>
<polygon fill="#0000ff" stroke="#0000ff" points="39.3741,-791.6624 33.7803,-782.6646 32.5421,-793.1868 39.3741,-791.6624"/>
<text text-anchor="middle" x="104" y="-964.3894" font-family="Times,serif" font-size="14.00" fill="#000000">1</text>
</g>
<!-- fpb -->
<g id="node17" class="node">
<title>fpb</title>
<ellipse fill="none" stroke="#000000" cx="203" cy="-1098.5894" rx="27" ry="18"/>
<text text-anchor="middle" x="203" y="-1094.8894" font-family="Times,serif" font-size="14.00" fill="#000000">!p</text>
</g>
<!-- c1b&#45;&gt;fpb -->
<g id="edge18" class="edge">
<title>c1b&#45;&gt;fpb</title>
<path fill="none" stroke="#ff0000" d="M203,-1167.5629C203,-1155.7812 203,-1140.15 203,-1126.7475"/>
<polygon fill="#ff0000" stroke="#ff0000" points="206.5001,-1126.5927 203,-1116.5928 199.5001,-1126.5928 206.5001,-1126.5927"/>
<text text-anchor="middle" x="208" y="-1138.3894" font-family="Times,serif" font-size="14.00" fill="#000000">0</text>
</g>
<!-- fa -->
<g id="node4" class="node">
<title>fa</title>
<ellipse fill="none" stroke="#000000" cx="193" cy="-924.5894" rx="27" ry="18"/>
<text text-anchor="middle" x="193" y="-920.8894" font-family="Times,serif" font-size="14.00" fill="#000000">PiR</text>
</g>
<!-- fa&#45;&gt;c2b -->
<g id="edge3" class="edge">
<title>fa&#45;&gt;c2b</title>
<path fill="none" stroke="#000000" d="M193,-906.5444C193,-898.4722 193,-888.7658 193,-879.7711"/>
<polygon fill="#000000" stroke="#000000" points="196.5001,-879.6797 193,-869.6797 189.5001,-879.6798 196.5001,-879.6797"/>
</g>
<!-- fa&#45;&gt;d1 -->
<g id="edge24" class="edge">
<title>fa&#45;&gt;d1</title>
<path fill="none" stroke="#ff0000" d="M211.3415,-911.2001C226.9717,-899.7901 249.6134,-883.2616 267.0928,-870.5016"/>
<ellipse fill="none" stroke="#ff0000" cx="270.5215" cy="-867.9987" rx="4" ry="4"/>
</g>
<!-- hi_retpc1 -->
<g id="node15" class="node">
<title>hi_retpc1</title>
<ellipse fill="none" stroke="#000000" cx="93" cy="-851.5894" rx="27" ry="18"/>
<text text-anchor="middle" x="93" y="-847.8894" font-family="Times,serif" font-size="14.00" fill="#000000">!c</text>
</g>
<!-- fa&#45;&gt;hi_retpc1 -->
<g id="edge23" class="edge">
<title>fa&#45;&gt;hi_retpc1</title>
<path fill="none" stroke="#0000ff" d="M174.6585,-911.2001C159.1526,-899.8808 136.746,-883.524 119.3249,-870.8066"/>
<polygon fill="#0000ff" stroke="#0000ff" points="121.3658,-867.9631 111.2253,-864.8938 117.2385,-873.6169 121.3658,-867.9631"/>
</g>
<!-- d3 -->
<g id="node9" class="node">
<title>d3</title>
<ellipse fill="none" stroke="#000000" cx="237" cy="-553.692" rx="29.8071" ry="29.8071"/>
<ellipse fill="none" stroke="#000000" cx="237" cy="-553.692" rx="33.795" ry="33.795"/>
<text text-anchor="middle" x="237" y="-549.992" font-family="Times,serif" font-size="14.00" fill="#000000">Dup</text>
</g>
<!-- c2b&#45;&gt;d3 -->
<g id="edge25" class="edge">
<title>c2b&#45;&gt;d3</title>
<path fill="none" stroke="#ff0000" d="M201.1467,-834.1402C207.1552,-820.4365 214.9598,-800.7064 219,-782.5894 233.0757,-719.4718 236.5401,-644.4278 237.1896,-597.9207"/>
<polygon fill="#ff0000" stroke="#ff0000" points="240.6898,-597.911 237.2921,-587.8758 233.6902,-597.8396 240.6898,-597.911"/>
<text text-anchor="middle" x="235" y="-717.3894" font-family="Times,serif" font-size="14.00" fill="#000000">2</text>
</g>
<!-- x2i_o2 -->
<g id="node19" class="node">
<title>x2i_o2</title>
<ellipse fill="none" stroke="#000000" cx="183" cy="-764.5894" rx="27" ry="18"/>
<text text-anchor="middle" x="183" y="-760.8894" font-family="Times,serif" font-size="14.00" fill="#000000">PiL</text>
</g>
<!-- c2b&#45;&gt;x2i_o2 -->
<g id="edge26" class="edge">
<title>c2b&#45;&gt;x2i_o2</title>
<path fill="none" stroke="#0000ff" d="M190.928,-833.5629C189.5738,-821.7812 187.7771,-806.15 186.2366,-792.7475"/>
<polygon fill="#0000ff" stroke="#0000ff" points="189.6885,-792.1276 185.0694,-782.5928 182.7342,-792.927 189.6885,-792.1276"/>
<text text-anchor="middle" x="194" y="-804.3894" font-family="Times,serif" font-size="14.00" fill="#000000">1</text>
</g>
<!-- d1&#45;&gt;d2a -->
<g id="edge6" class="edge">
<title>d1&#45;&gt;d2a</title>
<path fill="none" stroke="#000000" stroke-dasharray="5,2" d="M266.0727,-843.6143C238.79,-835.3704 198.5896,-822.7274 184,-815.5894 163.1611,-805.3939 141.3721,-790.2395 126.4947,-779.0987"/>
</g>
<!-- d1&#45;&gt;d2b -->
<g id="edge7" class="edge">
<title>d1&#45;&gt;d2b</title>
<path fill="none" stroke="#000000" stroke-dasharray="5,2" d="M272.8248,-838.0143C254.2156,-826.1768 225.4036,-809.5389 198,-800.5894 142.9714,-782.618 124.5451,-798.8943 69,-782.5894 63.562,-780.9931 57.9155,-778.7582 52.6637,-776.4045"/>
</g>
<!-- f_ret -->
<g id="node12" class="node">
<title>f_ret</title>
<ellipse fill="none" stroke="#000000" cx="293" cy="-677.5894" rx="27" ry="18"/>
<text text-anchor="middle" x="293" y="-673.8894" font-family="Times,serif" font-size="14.00" fill="#000000">I</text>
</g>
<!-- d1&#45;&gt;f_ret -->
<g id="edge11" class="edge">
<title>d1&#45;&gt;f_ret</title>
<path fill="none" stroke="#ff0000" d="M293,-833.2972C293,-802.933 293,-741.912 293,-705.9358"/>
<polygon fill="#ff0000" stroke="#ff0000" points="296.5001,-705.6364 293,-695.6365 289.5001,-705.6365 296.5001,-705.6364"/>
</g>
<!-- hi_retpa -->
<g id="node13" class="node">
<title>hi_retpa</title>
<ellipse fill="none" stroke="#000000" cx="170" cy="-677.5894" rx="27" ry="18"/>
<text text-anchor="middle" x="170" y="-673.8894" font-family="Times,serif" font-size="14.00" fill="#000000">!p</text>
</g>
<!-- d2a&#45;&gt;hi_retpa -->
<g id="edge12" class="edge">
<title>d2a&#45;&gt;hi_retpa</title>
<path fill="none" stroke="#0000ff" d="M119.9542,-747.8149C129.1043,-734.9753 141.8688,-717.0638 152.2163,-702.544"/>
<polygon fill="#0000ff" stroke="#0000ff" points="155.3395,-704.1922 158.2927,-694.0173 149.6389,-700.1297 155.3395,-704.1922"/>
<text text-anchor="middle" x="148" y="-717.3894" font-family="Times,serif" font-size="14.00" fill="#000000">1</text>
</g>
<!-- h_dib -->
<g id="node14" class="node">
<title>h_dib</title>
<ellipse fill="none" stroke="#000000" cx="69" cy="-623.5894" rx="27" ry="18"/>
<text text-anchor="middle" x="69" y="-619.8894" font-family="Times,serif" font-size="14.00" fill="#000000">!d</text>
</g>
<!-- d2b&#45;&gt;h_dib -->
<g id="edge13" class="edge">
<title>d2b&#45;&gt;h_dib</title>
<path fill="none" stroke="#0000ff" d="M34.9394,-746.7316C41.6207,-722.5761 53.6005,-679.2646 61.424,-650.9797"/>
<polygon fill="#0000ff" stroke="#0000ff" points="64.8081,-651.8733 64.1007,-641.3021 58.0615,-650.0072 64.8081,-651.8733"/>
<text text-anchor="middle" x="49" y="-717.3894" font-family="Times,serif" font-size="14.00" fill="#000000">1</text>
</g>
<!-- d4a -->
<g id="node10" class="node">
<title>d4a</title>
<ellipse fill="none" stroke="#000000" cx="73" cy="-361.8973" rx="29.795" ry="18"/>
<text text-anchor="middle" x="73" y="-358.1973" font-family="Times,serif" font-size="14.00" fill="#000000">Dup</text>
</g>
<!-- d3&#45;&gt;d4a -->
<g id="edge8" class="edge">
<title>d3&#45;&gt;d4a</title>
<path fill="none" stroke="#000000" stroke-dasharray="5,2" d="M211.1808,-530.9792C205.7428,-526.8869 199.8686,-522.9312 194,-519.7947 129.2946,-485.2126 80.1262,-528.1483 37,-468.7947 16.6255,-440.7537 41.6347,-400.3867 59.0103,-378.143"/>
</g>
<!-- hi_ret -->
<g id="node21" class="node">
<title>hi_ret</title>
<ellipse fill="none" stroke="#000000" cx="214" cy="-255" rx="18" ry="18"/>
<ellipse fill="none" stroke="#000000" cx="214" cy="-255" rx="22" ry="22"/>
<text text-anchor="middle" x="214" y="-251.3" font-family="Times,serif" font-size="14.00" fill="#000000">I</text>
</g>
<!-- d3&#45;&gt;hi_ret -->
<g id="edge31" class="edge">
<title>d3&#45;&gt;hi_ret</title>
<path fill="none" stroke="#ff0000" d="M234.384,-519.7191C229.9153,-461.686 220.8706,-344.2263 216.4898,-287.334"/>
<polygon fill="#ff0000" stroke="#ff0000" points="219.9609,-286.8226 215.7034,-277.1209 212.9815,-287.3601 219.9609,-286.8226"/>
</g>
<!-- d4b -->
<g id="node11" class="node">
<title>d4b</title>
<ellipse fill="none" stroke="#000000" cx="172" cy="-361.8973" rx="29.8071" ry="29.8071"/>
<ellipse fill="none" stroke="#000000" cx="172" cy="-361.8973" rx="33.795" ry="33.795"/>
<text text-anchor="middle" x="172" y="-358.1973" font-family="Times,serif" font-size="14.00" fill="#000000">Dup</text>
</g>
<!-- d4a&#45;&gt;d4b -->
<g id="edge9" class="edge">
<title>d4a&#45;&gt;d4b</title>
<path fill="none" stroke="#000000" stroke-dasharray="5,2" d="M103.1641,-361.8973C114.7263,-361.8973 126.2886,-361.8973 137.8509,-361.8973"/>
</g>
<!-- i -->
<g id="node22" class="node">
<title>i</title>
<ellipse fill="none" stroke="#000000" cx="73" cy="-255" rx="27" ry="18"/>
<text text-anchor="middle" x="73" y="-251.3" font-family="Times,serif" font-size="14.00" fill="#000000">!p</text>
</g>
<!-- d4a&#45;&gt;i -->
<g id="edge32" class="edge">
<title>d4a&#45;&gt;i</title>
<path fill="none" stroke="#ff0000" d="M73,-343.7637C73,-327.2548 73,-302.6098 73,-283.4743"/>
<polygon fill="#ff0000" stroke="#ff0000" points="76.5001,-283.2226 73,-273.2226 69.5001,-283.2227 76.5001,-283.2226"/>
<text text-anchor="middle" x="78" y="-298.8" font-family="Times,serif" font-size="14.00" fill="#000000">2</text>
</g>
<!-- d4b&#45;&gt;hi_ret -->
<g id="edge33" class="edge">
<title>d4b&#45;&gt;hi_ret</title>
<path fill="none" stroke="#0000ff" d="M184.4877,-330.114C190.0526,-315.9503 196.5775,-299.3432 202.0751,-285.351"/>
<polygon fill="#0000ff" stroke="#0000ff" points="205.4688,-286.2843 205.8681,-275.697 198.9536,-283.7245 205.4688,-286.2843"/>
</g>
<!-- hi_retpa&#45;&gt;d3 -->
<g id="edge29" class="edge">
<title>hi_retpa&#45;&gt;d3</title>
<path fill="none" stroke="#ff0000" d="M179.1756,-660.6218C188.8127,-642.8008 204.2766,-614.2046 216.7888,-591.0668"/>
<ellipse fill="none" stroke="#ff0000" cx="218.8337" cy="-587.2854" rx="4" ry="4"/>
<text text-anchor="middle" x="213" y="-619.8894" font-family="Times,serif" font-size="14.00" fill="#000000">2</text>
</g>
<!-- h_dia -->
<g id="node20" class="node">
<title>h_dia</title>
<ellipse fill="none" stroke="#000000" cx="158" cy="-553.692" rx="27" ry="18"/>
<text text-anchor="middle" x="158" y="-549.992" font-family="Times,serif" font-size="14.00" fill="#000000">!d</text>
</g>
<!-- hi_retpa&#45;&gt;h_dia -->
<g id="edge30" class="edge">
<title>hi_retpa&#45;&gt;h_dia</title>
<path fill="none" stroke="#0000ff" d="M168.2551,-659.5737C166.2199,-638.561 162.8391,-603.6547 160.5193,-579.7037"/>
<ellipse fill="none" stroke="#0000ff" cx="160.1327" cy="-575.7109" rx="4" ry="4"/>
<text text-anchor="middle" x="172" y="-619.8894" font-family="Times,serif" font-size="14.00" fill="#000000">1</text>
</g>
<!-- hb -->
<g id="node24" class="node">
<title>hb</title>
<ellipse fill="none" stroke="#000000" cx="73" cy="-450.7947" rx="27" ry="18"/>
<text text-anchor="middle" x="73" y="-447.0947" font-family="Times,serif" font-size="14.00" fill="#000000">PiL</text>
</g>
<!-- h_dib&#45;&gt;hb -->
<g id="edge35" class="edge">
<title>h_dib&#45;&gt;hb</title>
<path fill="none" stroke="#0000ff" d="M69.4205,-605.4239C70.1167,-575.3485 71.514,-514.9871 72.3419,-479.2244"/>
<polygon fill="#0000ff" stroke="#0000ff" points="75.8467,-479.0544 72.5791,-468.9761 68.8485,-478.8923 75.8467,-479.0544"/>
<text text-anchor="middle" x="77" y="-549.992" font-family="Times,serif" font-size="14.00" fill="#000000">2</text>
</g>
<!-- hi_retpc1&#45;&gt;d2a -->
<g id="edge14" class="edge">
<title>hi_retpc1&#45;&gt;d2a</title>
<path fill="none" stroke="#0000ff" d="M105.009,-835.1996C108.6382,-829.3146 112.1494,-822.4346 114,-815.5894 116.1413,-807.6689 115.9676,-798.8521 114.8666,-790.807"/>
<ellipse fill="none" stroke="#0000ff" cx="114.1403" cy="-786.711" rx="4" ry="4"/>
</g>
<!-- hi_retpc1&#45;&gt;d2b -->
<g id="edge15" class="edge">
<title>hi_retpc1&#45;&gt;d2b</title>
<path fill="none" stroke="#0000ff" d="M81.1502,-835.2254C71.4445,-821.8223 57.5949,-802.6966 46.7543,-787.7263"/>
<ellipse fill="none" stroke="#0000ff" cx="44.3569" cy="-784.4156" rx="4" ry="4"/>
</g>
<!-- d5 -->
<g id="node18" class="node">
<title>d5</title>
<ellipse fill="none" stroke="#000000" cx="193" cy="-1011.5894" rx="29.795" ry="18"/>
<text text-anchor="middle" x="193" y="-1007.8894" font-family="Times,serif" font-size="14.00" fill="#000000">Dup</text>
</g>
<!-- fpa&#45;&gt;d5 -->
<g id="edge20" class="edge">
<title>fpa&#45;&gt;d5</title>
<path fill="none" stroke="#ff0000" d="M109.513,-1084.2231C125.3881,-1070.4117 149.5986,-1049.3486 167.8673,-1033.4548"/>
<polygon fill="#ff0000" stroke="#ff0000" points="170.5444,-1035.7649 175.7916,-1026.5607 165.9499,-1030.4838 170.5444,-1035.7649"/>
<text text-anchor="middle" x="154" y="-1051.3894" font-family="Times,serif" font-size="14.00" fill="#000000">1</text>
</g>
<!-- fpb&#45;&gt;d5 -->
<g id="edge21" class="edge">
<title>fpb&#45;&gt;d5</title>
<path fill="none" stroke="#ff0000" d="M200.928,-1080.5629C199.5738,-1068.7812 197.7771,-1053.15 196.2366,-1039.7475"/>
<polygon fill="#ff0000" stroke="#ff0000" points="199.6885,-1039.1276 195.0694,-1029.5928 192.7342,-1039.927 199.6885,-1039.1276"/>
<text text-anchor="middle" x="204" y="-1051.3894" font-family="Times,serif" font-size="14.00" fill="#000000">1</text>
</g>
<!-- d5&#45;&gt;fa -->
<g id="edge22" class="edge">
<title>d5&#45;&gt;fa</title>
<path fill="none" stroke="#ff0000" d="M193,-993.5629C193,-981.7812 193,-966.15 193,-952.7475"/>
<polygon fill="#ff0000" stroke="#ff0000" points="196.5001,-952.5927 193,-942.5928 189.5001,-952.5928 196.5001,-952.5927"/>
</g>
<!-- x2i_o2&#45;&gt;f_ret -->
<g id="edge28" class="edge">
<title>x2i_o2&#45;&gt;f_ret</title>
<path fill="none" stroke="#0000ff" d="M206.5013,-755.2541C220.5708,-748.9826 238.3182,-739.819 252,-728.5894 261.0504,-721.1611 269.4588,-711.448 276.2752,-702.4936"/>
<polygon fill="#0000ff" stroke="#0000ff" points="279.2292,-704.383 282.2918,-694.2404 273.5727,-700.2594 279.2292,-704.383"/>
</g>
<!-- x2i_o2&#45;&gt;hi_retpa -->
<g id="edge27" class="edge">
<title>x2i_o2&#45;&gt;hi_retpa</title>
<path fill="none" stroke="#ff0000" d="M180.3064,-746.5629C178.5459,-734.7812 176.2102,-719.15 174.2075,-705.7475"/>
<polygon fill="#ff0000" stroke="#ff0000" points="177.6297,-704.9657 172.6902,-695.5928 170.7065,-706.0002 177.6297,-704.9657"/>
<text text-anchor="middle" x="183" y="-717.3894" font-family="Times,serif" font-size="14.00" fill="#000000">1</text>
</g>
<!-- ha -->
<g id="node23" class="node">
<title>ha</title>
<ellipse fill="none" stroke="#000000" cx="158" cy="-450.7947" rx="27" ry="18"/>
<text text-anchor="middle" x="158" y="-447.0947" font-family="Times,serif" font-size="14.00" fill="#000000">PiL</text>
</g>
<!-- h_dia&#45;&gt;ha -->
<g id="edge34" class="edge">
<title>h_dia&#45;&gt;ha</title>
<path fill="none" stroke="#0000ff" d="M158,-535.2961C158,-519.7127 158,-497.1135 158,-479.2065"/>
<polygon fill="#0000ff" stroke="#0000ff" points="161.5001,-479.0314 158,-469.0314 154.5001,-479.0314 161.5001,-479.0314"/>
<text text-anchor="middle" x="163" y="-490.5947" font-family="Times,serif" font-size="14.00" fill="#000000">2</text>
</g>
<!-- i_i -->
<g id="node25" class="node">
<title>i_i</title>
<ellipse fill="none" stroke="#000000" cx="73" cy="-164" rx="27" ry="18"/>
<text text-anchor="middle" x="73" y="-160.3" font-family="Times,serif" font-size="14.00" fill="#000000">PiR</text>
</g>
<!-- i&#45;&gt;i_i -->
<g id="edge36" class="edge">
<title>i&#45;&gt;i_i</title>
<path fill="none" stroke="#ff0000" d="M73,-236.5848C73,-223.9209 73,-206.8558 73,-192.4541"/>
<polygon fill="#ff0000" stroke="#ff0000" points="76.5001,-192.0772 73,-182.0773 69.5001,-192.0773 76.5001,-192.0772"/>
<text text-anchor="middle" x="78" y="-203.8" font-family="Times,serif" font-size="14.00" fill="#000000">3</text>
</g>
<!-- ha&#45;&gt;d4a -->
<g id="edge40" class="edge">
<title>ha&#45;&gt;d4a</title>
<path fill="none" stroke="#ff0000" d="M143.1941,-435.31C129.5052,-420.9934 109.0269,-399.5761 93.7171,-383.5643"/>
<ellipse fill="none" stroke="#ff0000" cx="90.6858" cy="-380.394" rx="4" ry="4"/>
</g>
<!-- ha&#45;&gt;d4b -->
<g id="edge41" class="edge">
<title>ha&#45;&gt;d4b</title>
<path fill="none" stroke="#0000ff" d="M160.8331,-432.805C162.1571,-424.3981 163.7937,-414.0058 165.4019,-403.7938"/>
<ellipse fill="none" stroke="#0000ff" cx="166.0568" cy="-399.6352" rx="4" ry="4"/>
</g>
<!-- hb&#45;&gt;d4a -->
<g id="edge42" class="edge">
<title>hb&#45;&gt;d4a</title>
<path fill="none" stroke="#ff0000" d="M73,-432.3751C73,-420.2561 73,-404.1512 73,-390.3959"/>
<polygon fill="#ff0000" stroke="#ff0000" points="76.5001,-389.9891 73,-379.9892 69.5001,-389.9892 76.5001,-389.9891"/>
</g>
<!-- hb&#45;&gt;d4b -->
<g id="edge43" class="edge">
<title>hb&#45;&gt;d4b</title>
<path fill="none" stroke="#0000ff" d="M89.3478,-436.1151C102.8735,-423.9697 122.5109,-406.3362 139.2508,-391.3046"/>
<polygon fill="#0000ff" stroke="#0000ff" points="141.6037,-393.8958 146.7058,-384.6103 136.9269,-388.6874 141.6037,-393.8958"/>
</g>
<!-- il -->
<g id="node26" class="node">
<title>il</title>
<ellipse fill="none" stroke="#000000" cx="116" cy="-91" rx="27" ry="18"/>
<text text-anchor="middle" x="116" y="-87.3" font-family="Times,serif" font-size="14.00" fill="#000000">!d</text>
</g>
<!-- i_i&#45;&gt;il -->
<g id="edge37" class="edge">
<title>i_i&#45;&gt;il</title>
<path fill="none" stroke="#0000ff" d="M82.9731,-147.0688C88.2918,-138.0396 94.9465,-126.742 100.8861,-116.6585"/>
<polygon fill="#0000ff" stroke="#0000ff" points="104.0212,-118.232 106.0809,-107.8393 97.9898,-114.6793 104.0212,-118.232"/>
</g>
<!-- i_ret -->
<g id="node27" class="node">
<title>i_ret</title>
<ellipse fill="none" stroke="#000000" cx="73" cy="-18" rx="27" ry="18"/>
<text text-anchor="middle" x="73" y="-14.3" font-family="Times,serif" font-size="14.00" fill="#000000">I</text>
</g>
<!-- i_i&#45;&gt;i_ret -->
<g id="edge38" class="edge">
<title>i_i&#45;&gt;i_ret</title>
<path fill="none" stroke="#ff0000" d="M73,-145.8042C73,-120.8868 73,-75.8938 73,-46.4877"/>
<polygon fill="#ff0000" stroke="#ff0000" points="76.5001,-46.4251 73,-36.4251 69.5001,-46.4251 76.5001,-46.4251"/>
</g>
<!-- il&#45;&gt;i_ret -->
<g id="edge39" class="edge">
<title>il&#45;&gt;i_ret</title>
<path fill="none" stroke="#0000ff" d="M106.0269,-74.0688C100.7082,-65.0396 94.0535,-53.742 88.1139,-43.6585"/>
<polygon fill="#0000ff" stroke="#0000ff" points="91.0102,-41.6793 82.9191,-34.8393 84.9788,-45.232 91.0102,-41.6793"/>
</g>
</g>
</svg>
