<?xml version="1.0" encoding="UTF-8" standalone="no"?>
<!DOCTYPE svg PUBLIC "-//W3C//DTD SVG 1.1//EN"
 "http://www.w3.org/Graphics/SVG/1.1/DTD/svg11.dtd">
<!-- Generated by graphviz version 2.43.0 (0)
 -->
<!-- Title: %3 Pages: 1 -->
<svg width="337pt" height="1045pt"
 viewBox="0.00 0.00 337.00 1044.60" xmlns="http://www.w3.org/2000/svg" xmlns:xlink="http://www.w3.org/1999/xlink">
<g id="graph0" class="graph" transform="scale(1 1) rotate(0) translate(4 1040.6)">
<title>%3</title>
<polygon fill="white" stroke="transparent" points="-4,4 -4,-1040.6 333,-1040.6 333,4 -4,4"/>
<!-- Root -->
<g id="node1" class="node">
<title>Root</title>
<ellipse fill="none" stroke="black" cx="228" cy="-1018.6" rx="32.49" ry="18"/>
<text text-anchor="middle" x="228" y="-1014.9" font-family="Times,serif" font-size="14.00">Root</text>
</g>
<!-- c1a -->
<g id="node2" class="node">
<title>c1a</title>
<ellipse fill="none" stroke="black" cx="130" cy="-932.3" rx="27.12" ry="27.12"/>
<ellipse fill="none" stroke="black" cx="130" cy="-932.3" rx="31.1" ry="31.1"/>
<text text-anchor="middle" x="130" y="-928.6" font-family="Times,serif" font-size="14.00">Cut</text>
</g>
<!-- Root&#45;&gt;c1a -->
<g id="edge1" class="edge">
<title>Root&#45;&gt;c1a</title>
<path fill="none" stroke="black" d="M210.93,-1002.91C197.26,-991.16 177.73,-974.35 161.27,-960.2"/>
<polygon fill="black" stroke="black" points="163.34,-957.36 153.48,-953.5 158.78,-962.67 163.34,-957.36"/>
</g>
<!-- c1b -->
<g id="node3" class="node">
<title>c1b</title>
<ellipse fill="none" stroke="black" cx="228" cy="-932.3" rx="27.12" ry="27.12"/>
<ellipse fill="none" stroke="black" cx="228" cy="-932.3" rx="31.1" ry="31.1"/>
<text text-anchor="middle" x="228" y="-928.6" font-family="Times,serif" font-size="14.00">Cut</text>
</g>
<!-- Root&#45;&gt;c1b -->
<g id="edge2" class="edge">
<title>Root&#45;&gt;c1b</title>
<path fill="none" stroke="black" d="M228,-1000.54C228,-992.76 228,-983.2 228,-973.75"/>
<polygon fill="black" stroke="black" points="231.5,-973.63 228,-963.63 224.5,-973.63 231.5,-973.63"/>
</g>
<!-- ret -->
<g id="node6" class="node">
<title>ret</title>
<ellipse fill="none" stroke="black" cx="300" cy="-672" rx="27" ry="18"/>
<text text-anchor="middle" x="300" y="-668.3" font-family="Times,serif" font-size="14.00">I</text>
</g>
<!-- Root&#45;&gt;ret -->
<g id="edge4" class="edge">
<title>Root&#45;&gt;ret</title>
<path fill="none" stroke="red" stroke-width="2" d="M255.07,-1008.38C284.98,-996.27 329,-971.9 329,-933.3 329,-933.3 329,-933.3 329,-744 329,-727.71 322.38,-710.78 315.47,-697.54"/>
<polygon fill="red" stroke="red" stroke-width="2" points="318.41,-695.63 310.47,-688.61 312.3,-699.05 318.41,-695.63"/>
</g>
<!-- fpa -->
<g id="node8" class="node">
<title>fpa</title>
<ellipse fill="none" stroke="black" cx="130" cy="-832" rx="27" ry="18"/>
<text text-anchor="middle" x="130" y="-828.3" font-family="Times,serif" font-size="14.00">!p</text>
</g>
<!-- c1a&#45;&gt;fpa -->
<g id="edge6" class="edge">
<title>c1a&#45;&gt;fpa</title>
<path fill="none" stroke="red" d="M130,-900.73C130,-887.83 130,-872.93 130,-860.39"/>
<polygon fill="red" stroke="red" points="133.5,-860.09 130,-850.09 126.5,-860.09 133.5,-860.09"/>
<text text-anchor="middle" x="135" y="-871.8" font-family="Times,serif" font-size="14.00">0</text>
</g>
<!-- x1_o1 -->
<g id="node9" class="node">
<title>x1_o1</title>
<ellipse fill="none" stroke="black" cx="225" cy="-672" rx="27" ry="18"/>
<text text-anchor="middle" x="225" y="-668.3" font-family="Times,serif" font-size="14.00">I</text>
</g>
<!-- c1a&#45;&gt;x1_o1 -->
<g id="edge7" class="edge">
<title>c1a&#45;&gt;x1_o1</title>
<path fill="none" stroke="blue" d="M114.88,-904.78C106.95,-889.34 98.06,-869.18 94,-850 82.63,-796.22 73.95,-770.93 107,-727 112.59,-719.56 160.1,-699.24 193.1,-685.76"/>
<polygon fill="blue" stroke="blue" points="194.45,-688.99 202.4,-681.98 191.82,-682.5 194.45,-688.99"/>
</g>
<!-- fpb -->
<g id="node10" class="node">
<title>fpb</title>
<ellipse fill="none" stroke="black" cx="202" cy="-832" rx="27" ry="18"/>
<text text-anchor="middle" x="202" y="-828.3" font-family="Times,serif" font-size="14.00">!p</text>
</g>
<!-- c1b&#45;&gt;fpb -->
<g id="edge8" class="edge">
<title>c1b&#45;&gt;fpb</title>
<path fill="none" stroke="red" d="M220.2,-901.81C216.66,-888.42 212.5,-872.7 209.05,-859.67"/>
<polygon fill="red" stroke="red" points="212.41,-858.67 206.47,-849.89 205.64,-860.46 212.41,-858.67"/>
<text text-anchor="middle" x="220" y="-871.8" font-family="Times,serif" font-size="14.00">0</text>
</g>
<!-- x2_o1 -->
<g id="node11" class="node">
<title>x2_o1</title>
<ellipse fill="none" stroke="black" cx="274" cy="-832" rx="27" ry="18"/>
<text text-anchor="middle" x="274" y="-828.3" font-family="Times,serif" font-size="14.00">!d</text>
</g>
<!-- c1b&#45;&gt;x2_o1 -->
<g id="edge9" class="edge">
<title>c1b&#45;&gt;x2_o1</title>
<path fill="none" stroke="blue" d="M240.94,-903.65C247.52,-889.58 255.48,-872.58 261.94,-858.78"/>
<polygon fill="blue" stroke="blue" points="265.27,-859.92 266.33,-849.38 258.93,-856.96 265.27,-859.92"/>
</g>
<!-- f -->
<g id="node4" class="node">
<title>f</title>
<ellipse fill="none" stroke="black" cx="146" cy="-672" rx="27" ry="18"/>
<text text-anchor="middle" x="146" y="-668.3" font-family="Times,serif" font-size="14.00">PiR</text>
</g>
<!-- c2b -->
<g id="node5" class="node">
<title>c2b</title>
<ellipse fill="none" stroke="black" cx="146" cy="-599" rx="27.1" ry="18"/>
<text text-anchor="middle" x="146" y="-595.3" font-family="Times,serif" font-size="14.00">Cut</text>
</g>
<!-- f&#45;&gt;c2b -->
<g id="edge3" class="edge">
<title>f&#45;&gt;c2b</title>
<path fill="none" stroke="black" d="M146,-653.81C146,-645.79 146,-636.05 146,-627.07"/>
<polygon fill="black" stroke="black" points="149.5,-627.03 146,-617.03 142.5,-627.03 149.5,-627.03"/>
</g>
<!-- hi_retp -->
<g id="node13" class="node">
<title>hi_retp</title>
<ellipse fill="none" stroke="black" cx="82" cy="-512" rx="27" ry="18"/>
<text text-anchor="middle" x="82" y="-508.3" font-family="Times,serif" font-size="14.00">!p</text>
</g>
<!-- f&#45;&gt;hi_retp -->
<g id="edge15" class="edge">
<title>f&#45;&gt;hi_retp</title>
<path fill="none" stroke="blue" d="M130.29,-656.97C120.02,-646.88 107.22,-632.39 100,-617 88.55,-592.59 84.32,-561.88 82.79,-540.18"/>
<polygon fill="blue" stroke="blue" points="86.27,-539.82 82.22,-530.03 79.28,-540.21 86.27,-539.82"/>
<text text-anchor="middle" x="105" y="-595.3" font-family="Times,serif" font-size="14.00">1</text>
</g>
<!-- f_ret -->
<g id="node14" class="node">
<title>f_ret</title>
<ellipse fill="none" stroke="black" cx="246" cy="-251" rx="27" ry="18"/>
<text text-anchor="middle" x="246" y="-247.3" font-family="Times,serif" font-size="14.00">I</text>
</g>
<!-- f&#45;&gt;f_ret -->
<g id="edge16" class="edge">
<title>f&#45;&gt;f_ret</title>
<path fill="none" stroke="red" d="M167.92,-660.8C197.62,-646.25 247,-619.18 247,-600 247,-600 247,-600 247,-337 247,-317.75 246.74,-296.05 246.49,-279.4"/>
<polygon fill="red" stroke="red" points="249.98,-279.2 246.32,-269.26 242.98,-279.31 249.98,-279.2"/>
</g>
<!-- c2b&#45;&gt;hi_retp -->
<g id="edge17" class="edge">
<title>c2b&#45;&gt;hi_retp</title>
<path fill="none" stroke="red" d="M134.26,-582.41C124.61,-569.59 110.78,-551.22 99.77,-536.6"/>
<polygon fill="red" stroke="red" points="102.48,-534.37 93.66,-528.49 96.88,-538.59 102.48,-534.37"/>
<text text-anchor="middle" x="123" y="-551.8" font-family="Times,serif" font-size="14.00">1</text>
</g>
<!-- x_o2 -->
<g id="node15" class="node">
<title>x_o2</title>
<ellipse fill="none" stroke="black" cx="154" cy="-512" rx="27" ry="18"/>
<text text-anchor="middle" x="154" y="-508.3" font-family="Times,serif" font-size="14.00">!c</text>
</g>
<!-- c2b&#45;&gt;x_o2 -->
<g id="edge18" class="edge">
<title>c2b&#45;&gt;x_o2</title>
<path fill="none" stroke="blue" d="M147.62,-580.8C148.71,-569.16 150.18,-553.55 151.44,-540.24"/>
<polygon fill="blue" stroke="blue" points="154.93,-540.46 152.38,-530.18 147.96,-539.8 154.93,-540.46"/>
<text text-anchor="middle" x="156" y="-551.8" font-family="Times,serif" font-size="14.00">1</text>
</g>
<!-- d1 -->
<g id="node7" class="node">
<title>d1</title>
<ellipse fill="none" stroke="black" cx="146" cy="-745" rx="29.8" ry="18"/>
<text text-anchor="middle" x="146" y="-741.3" font-family="Times,serif" font-size="14.00">Dup</text>
</g>
<!-- d1&#45;&gt;f -->
<g id="edge5" class="edge">
<title>d1&#45;&gt;f</title>
<path fill="none" stroke="red" d="M146,-726.81C146,-718.79 146,-709.05 146,-700.07"/>
<polygon fill="red" stroke="red" points="149.5,-700.03 146,-690.03 142.5,-700.03 149.5,-700.03"/>
</g>
<!-- fpa&#45;&gt;d1 -->
<g id="edge14" class="edge">
<title>fpa&#45;&gt;d1</title>
<path fill="none" stroke="red" d="M133.24,-813.8C135.54,-801.59 138.66,-784.99 141.24,-771.28"/>
<ellipse fill="none" stroke="red" cx="142.03" cy="-767.11" rx="4" ry="4"/>
<text text-anchor="middle" x="144" y="-784.8" font-family="Times,serif" font-size="14.00">1</text>
</g>
<!-- fpb&#45;&gt;d1 -->
<g id="edge13" class="edge">
<title>fpb&#45;&gt;d1</title>
<path fill="none" stroke="red" d="M191.47,-815.01C183.18,-802.43 171.48,-784.68 162.03,-770.33"/>
<polygon fill="red" stroke="red" points="164.91,-768.34 156.49,-761.92 159.06,-772.19 164.91,-768.34"/>
<text text-anchor="middle" x="183" y="-784.8" font-family="Times,serif" font-size="14.00">1</text>
</g>
<!-- x2i_o1 -->
<g id="node12" class="node">
<title>x2i_o1</title>
<ellipse fill="none" stroke="black" cx="274" cy="-745" rx="27" ry="18"/>
<text text-anchor="middle" x="274" y="-741.3" font-family="Times,serif" font-size="14.00">PiL</text>
</g>
<!-- x2_o1&#45;&gt;x2i_o1 -->
<g id="edge10" class="edge">
<title>x2_o1&#45;&gt;x2i_o1</title>
<path fill="none" stroke="blue" d="M274,-813.8C274,-802.16 274,-786.55 274,-773.24"/>
<polygon fill="blue" stroke="blue" points="277.5,-773.18 274,-763.18 270.5,-773.18 277.5,-773.18"/>
</g>
<!-- x2i_o1&#45;&gt;ret -->
<g id="edge12" class="edge">
<title>x2i_o1&#45;&gt;ret</title>
<path fill="none" stroke="blue" d="M280.16,-727.17C283.21,-718.86 286.95,-708.64 290.36,-699.33"/>
<polygon fill="blue" stroke="blue" points="293.73,-700.3 293.88,-689.71 287.16,-697.89 293.73,-700.3"/>
</g>
<!-- x2i_o1&#45;&gt;x1_o1 -->
<g id="edge11" class="edge">
<title>x2i_o1&#45;&gt;x1_o1</title>
<path fill="none" stroke="red" d="M263.13,-728.24C256.78,-719.05 248.65,-707.27 241.53,-696.95"/>
<polygon fill="red" stroke="red" points="244.4,-694.96 235.84,-688.71 238.64,-698.93 244.4,-694.96"/>
</g>
<!-- hi_ret -->
<g id="node19" class="node">
<title>hi_ret</title>
<ellipse fill="none" stroke="black" cx="27" cy="-251" rx="27" ry="18"/>
<text text-anchor="middle" x="27" y="-247.3" font-family="Times,serif" font-size="14.00">I</text>
</g>
<!-- hi_retp&#45;&gt;hi_ret -->
<g id="edge24" class="edge">
<title>hi_retp&#45;&gt;hi_ret</title>
<path fill="none" stroke="red" d="M71.4,-495.28C63,-481.96 51.75,-462.05 46,-443 28.96,-386.52 26.4,-316.82 26.44,-279.19"/>
<polygon fill="red" stroke="red" points="29.95,-279.06 26.52,-269.03 22.95,-279 29.95,-279.06"/>
<text text-anchor="middle" x="39" y="-377.8" font-family="Times,serif" font-size="14.00">2</text>
</g>
<!-- h_di -->
<g id="node20" class="node">
<title>h_di</title>
<ellipse fill="none" stroke="black" cx="82" cy="-425" rx="27" ry="18"/>
<text text-anchor="middle" x="82" y="-421.3" font-family="Times,serif" font-size="14.00">!d</text>
</g>
<!-- hi_retp&#45;&gt;h_di -->
<g id="edge25" class="edge">
<title>hi_retp&#45;&gt;h_di</title>
<path fill="none" stroke="blue" d="M82,-493.8C82,-482.16 82,-466.55 82,-453.24"/>
<polygon fill="blue" stroke="blue" points="85.5,-453.18 82,-443.18 78.5,-453.18 85.5,-453.18"/>
<text text-anchor="middle" x="87" y="-464.8" font-family="Times,serif" font-size="14.00">1</text>
</g>
<!-- x1_o2 -->
<g id="node16" class="node">
<title>x1_o2</title>
<ellipse fill="none" stroke="black" cx="173" cy="-251" rx="27" ry="18"/>
<text text-anchor="middle" x="173" y="-247.3" font-family="Times,serif" font-size="14.00">I</text>
</g>
<!-- x_o2&#45;&gt;x1_o2 -->
<g id="edge19" class="edge">
<title>x_o2&#45;&gt;x1_o2</title>
<path fill="none" stroke="blue" d="M152.84,-493.79C150.87,-460.2 147.83,-383.64 156,-320 157.78,-306.14 161.38,-291.03 164.82,-278.58"/>
<polygon fill="blue" stroke="blue" points="168.22,-279.41 167.62,-268.84 161.49,-277.48 168.22,-279.41"/>
</g>
<!-- x2_o2 -->
<g id="node17" class="node">
<title>x2_o2</title>
<ellipse fill="none" stroke="black" cx="192" cy="-425" rx="27" ry="18"/>
<text text-anchor="middle" x="192" y="-421.3" font-family="Times,serif" font-size="14.00">!d</text>
</g>
<!-- x_o2&#45;&gt;x2_o2 -->
<g id="edge20" class="edge">
<title>x_o2&#45;&gt;x2_o2</title>
<path fill="none" stroke="blue" d="M161.33,-494.61C166.74,-482.5 174.22,-465.77 180.44,-451.86"/>
<polygon fill="blue" stroke="blue" points="183.81,-452.9 184.7,-442.34 177.42,-450.04 183.81,-452.9"/>
</g>
<!-- x2i_o2 -->
<g id="node18" class="node">
<title>x2i_o2</title>
<ellipse fill="none" stroke="black" cx="192" cy="-338" rx="27" ry="18"/>
<text text-anchor="middle" x="192" y="-334.3" font-family="Times,serif" font-size="14.00">PiL</text>
</g>
<!-- x2_o2&#45;&gt;x2i_o2 -->
<g id="edge21" class="edge">
<title>x2_o2&#45;&gt;x2i_o2</title>
<path fill="none" stroke="blue" d="M192,-406.8C192,-395.16 192,-379.55 192,-366.24"/>
<polygon fill="blue" stroke="blue" points="195.5,-366.18 192,-356.18 188.5,-366.18 195.5,-366.18"/>
</g>
<!-- x2i_o2&#45;&gt;f_ret -->
<g id="edge23" class="edge">
<title>x2i_o2&#45;&gt;f_ret</title>
<path fill="none" stroke="blue" d="M202.16,-321.01C210.08,-308.55 221.22,-291.01 230.28,-276.74"/>
<polygon fill="blue" stroke="blue" points="233.48,-278.23 235.89,-267.92 227.57,-274.48 233.48,-278.23"/>
</g>
<!-- x2i_o2&#45;&gt;x1_o2 -->
<g id="edge22" class="edge">
<title>x2i_o2&#45;&gt;x1_o2</title>
<path fill="none" stroke="red" d="M188.16,-319.8C185.54,-308.09 182.02,-292.34 179.03,-278.97"/>
<polygon fill="red" stroke="red" points="182.37,-277.88 176.77,-268.89 175.54,-279.41 182.37,-277.88"/>
</g>
<!-- h -->
<g id="node21" class="node">
<title>h</title>
<ellipse fill="none" stroke="black" cx="82" cy="-338" rx="27" ry="18"/>
<text text-anchor="middle" x="82" y="-334.3" font-family="Times,serif" font-size="14.00">PiL</text>
</g>
<!-- h_di&#45;&gt;h -->
<g id="edge26" class="edge">
<title>h_di&#45;&gt;h</title>
<path fill="none" stroke="blue" d="M82,-406.8C82,-395.16 82,-379.55 82,-366.24"/>
<polygon fill="blue" stroke="blue" points="85.5,-366.18 82,-356.18 78.5,-366.18 85.5,-366.18"/>
<text text-anchor="middle" x="87" y="-377.8" font-family="Times,serif" font-size="14.00">2</text>
</g>
<!-- h&#45;&gt;hi_ret -->
<g id="edge32" class="edge">
<title>h&#45;&gt;hi_ret</title>
<path fill="none" stroke="blue" d="M71.65,-321.01C63.51,-308.43 52.03,-290.68 42.74,-276.33"/>
<polygon fill="blue" stroke="blue" points="45.67,-274.41 37.3,-267.92 39.79,-278.21 45.67,-274.41"/>
</g>
<!-- i -->
<g id="node22" class="node">
<title>i</title>
<ellipse fill="none" stroke="black" cx="99" cy="-251" rx="27" ry="18"/>
<text text-anchor="middle" x="99" y="-247.3" font-family="Times,serif" font-size="14.00">!p</text>
</g>
<!-- h&#45;&gt;i -->
<g id="edge31" class="edge">
<title>h&#45;&gt;i</title>
<path fill="none" stroke="red" d="M85.44,-319.8C87.78,-308.09 90.93,-292.34 93.61,-278.97"/>
<polygon fill="red" stroke="red" points="97.09,-279.38 95.62,-268.89 90.23,-278 97.09,-279.38"/>
<text text-anchor="middle" x="97" y="-290.8" font-family="Times,serif" font-size="14.00">2</text>
</g>
<!-- i_i -->
<g id="node23" class="node">
<title>i_i</title>
<ellipse fill="none" stroke="black" cx="99" cy="-164" rx="27" ry="18"/>
<text text-anchor="middle" x="99" y="-160.3" font-family="Times,serif" font-size="14.00">PiR</text>
</g>
<!-- i&#45;&gt;i_i -->
<g id="edge27" class="edge">
<title>i&#45;&gt;i_i</title>
<path fill="none" stroke="red" d="M99,-232.8C99,-221.16 99,-205.55 99,-192.24"/>
<polygon fill="red" stroke="red" points="102.5,-192.18 99,-182.18 95.5,-192.18 102.5,-192.18"/>
<text text-anchor="middle" x="104" y="-203.8" font-family="Times,serif" font-size="14.00">3</text>
</g>
<!-- il -->
<g id="node24" class="node">
<title>il</title>
<ellipse fill="none" stroke="black" cx="142" cy="-91" rx="27" ry="18"/>
<text text-anchor="middle" x="142" y="-87.3" font-family="Times,serif" font-size="14.00">!d</text>
</g>
<!-- i_i&#45;&gt;il -->
<g id="edge28" class="edge">
<title>i_i&#45;&gt;il</title>
<path fill="none" stroke="blue" d="M108.76,-146.89C114.15,-137.99 120.95,-126.75 127,-116.77"/>
<polygon fill="blue" stroke="blue" points="130.09,-118.41 132.28,-108.05 124.11,-114.79 130.09,-118.41"/>
</g>
<!-- i_ret -->
<g id="node25" class="node">
<title>i_ret</title>
<ellipse fill="none" stroke="black" cx="99" cy="-18" rx="27" ry="18"/>
<text text-anchor="middle" x="99" y="-14.3" font-family="Times,serif" font-size="14.00">I</text>
</g>
<!-- i_i&#45;&gt;i_ret -->
<g id="edge29" class="edge">
<title>i_i&#45;&gt;i_ret</title>
<path fill="none" stroke="red" d="M99,-145.92C99,-121.34 99,-75.75 99,-46.43"/>
<polygon fill="red" stroke="red" points="102.5,-46.06 99,-36.06 95.5,-46.06 102.5,-46.06"/>
</g>
<!-- il&#45;&gt;i_ret -->
<g id="edge30" class="edge">
<title>il&#45;&gt;i_ret</title>
<path fill="none" stroke="blue" d="M132.24,-73.89C126.85,-64.99 120.05,-53.75 114,-43.77"/>
<polygon fill="blue" stroke="blue" points="116.89,-41.79 108.72,-35.05 110.91,-45.41 116.89,-41.79"/>
</g>
</g>
</svg>
