<?xml version="1.0" encoding="UTF-8" standalone="no"?>
<!DOCTYPE svg PUBLIC "-//W3C//DTD SVG 1.1//EN"
 "http://www.w3.org/Graphics/SVG/1.1/DTD/svg11.dtd">
<!-- Generated by graphviz version 2.40.1 (20161225.0304)
 -->
<!-- Title: %3 Pages: 1 -->
<svg width="502pt" height="1125pt"
 viewBox="0.00 0.00 501.84 1124.59" xmlns="http://www.w3.org/2000/svg" xmlns:xlink="http://www.w3.org/1999/xlink">
<g id="graph0" class="graph" transform="scale(1 1) rotate(0) translate(4 1120.5894)">
<title>%3</title>
<polygon fill="#ffffff" stroke="transparent" points="-4,4 -4,-1120.5894 497.8449,-1120.5894 497.8449,4 -4,4"/>
<!-- Root -->
<g id="node1" class="node">
<title>Root</title>
<ellipse fill="none" stroke="#000000" cx="89.8973" cy="-851.5894" rx="32.4942" ry="18"/>
<text text-anchor="middle" x="89.8973" y="-847.8894" font-family="Times,serif" font-size="14.00" fill="#000000">Root</text>
</g>
<!-- d1 -->
<g id="node2" class="node">
<title>d1</title>
<ellipse fill="none" stroke="#000000" cx="29.8973" cy="-764.5894" rx="29.795" ry="18"/>
<text text-anchor="middle" x="29.8973" y="-760.8894" font-family="Times,serif" font-size="14.00" fill="#000000">Dup</text>
</g>
<!-- Root&#45;&gt;d1 -->
<g id="edge1" class="edge">
<title>Root&#45;&gt;d1</title>
<path fill="none" stroke="#ff0000" stroke-width="2" d="M78.0433,-834.401C69.2758,-821.6882 57.1963,-804.1728 47.3302,-789.867"/>
<polygon fill="#ff0000" stroke="#ff0000" stroke-width="2" points="50.0813,-787.6911 41.5226,-781.446 44.3188,-791.6653 50.0813,-787.6911"/>
<text text-anchor="middle" x="81.3973" y="-804.3894" font-family="Times,serif" font-size="14.00" fill="#000000">0&#45;&gt;1</text>
</g>
<!-- d2 -->
<g id="node6" class="node">
<title>d2</title>
<ellipse fill="none" stroke="#000000" cx="254.8973" cy="-851.5894" rx="29.795" ry="18"/>
<text text-anchor="middle" x="254.8973" y="-847.8894" font-family="Times,serif" font-size="14.00" fill="#000000">Dup</text>
</g>
<!-- d1&#45;&gt;d2 -->
<g id="edge4" class="edge">
<title>d1&#45;&gt;d2</title>
<path fill="none" stroke="#000000" stroke-dasharray="5,2" d="M38.9487,-782.2245C45.8215,-793.7074 56.3897,-807.929 69.8973,-815.5894 125.2341,-846.9719 150.4401,-817.1572 211.8973,-833.5894 218.3084,-835.3035 225.0241,-837.7664 231.1916,-840.3224"/>
</g>
<!-- f_ret -->
<g id="node7" class="node">
<title>f_ret</title>
<ellipse fill="none" stroke="#000000" cx="80.8973" cy="-677.5894" rx="27" ry="18"/>
<text text-anchor="middle" x="80.8973" y="-673.8894" font-family="Times,serif" font-size="14.00" fill="#000000">I</text>
</g>
<!-- d1&#45;&gt;f_ret -->
<g id="edge5" class="edge">
<title>d1&#45;&gt;f_ret</title>
<path fill="none" stroke="#ff0000" stroke-width="2" d="M39.9733,-747.401C47.3553,-734.8081 57.4998,-717.5029 65.8416,-703.2728"/>
<polygon fill="#ff0000" stroke="#ff0000" stroke-width="2" points="68.9781,-704.8431 71.0159,-694.446 62.9392,-701.303 68.9781,-704.8431"/>
</g>
<!-- c1a -->
<g id="node3" class="node">
<title>c1a</title>
<ellipse fill="none" stroke="#000000" cx="145.8973" cy="-1098.5894" rx="27.8951" ry="18"/>
<text text-anchor="middle" x="145.8973" y="-1094.8894" font-family="Times,serif" font-size="14.00" fill="#000000">Cut</text>
</g>
<!-- fp1 -->
<g id="node4" class="node">
<title>fp1</title>
<ellipse fill="none" stroke="#000000" cx="127.8973" cy="-1011.5894" rx="27" ry="18"/>
<text text-anchor="middle" x="127.8973" y="-1007.8894" font-family="Times,serif" font-size="14.00" fill="#000000">!p</text>
</g>
<!-- c1a&#45;&gt;fp1 -->
<g id="edge2" class="edge">
<title>c1a&#45;&gt;fp1</title>
<path fill="none" stroke="#ff0000" d="M142.1677,-1080.5629C139.7301,-1068.7812 136.4961,-1053.15 133.7232,-1039.7475"/>
<polygon fill="#ff0000" stroke="#ff0000" points="137.0757,-1038.6762 131.6222,-1029.5928 130.2209,-1040.0945 137.0757,-1038.6762"/>
<text text-anchor="middle" x="143.8973" y="-1051.3894" font-family="Times,serif" font-size="14.00" fill="#000000">0</text>
</g>
<!-- x1_o1 -->
<g id="node5" class="node">
<title>x1_o1</title>
<ellipse fill="none" stroke="#000000" cx="199.8973" cy="-1011.5894" rx="27" ry="18"/>
<text text-anchor="middle" x="199.8973" y="-1007.8894" font-family="Times,serif" font-size="14.00" fill="#000000">I</text>
</g>
<!-- c1a&#45;&gt;x1_o1 -->
<g id="edge3" class="edge">
<title>c1a&#45;&gt;x1_o1</title>
<path fill="none" stroke="#0000ff" d="M156.3091,-1081.8149C164.2278,-1069.057 175.2545,-1051.2918 184.2358,-1036.8219"/>
<polygon fill="#0000ff" stroke="#0000ff" points="187.2176,-1038.6546 189.5176,-1028.3124 181.2701,-1034.963 187.2176,-1038.6546"/>
</g>
<!-- f2 -->
<g id="node10" class="node">
<title>f2</title>
<ellipse fill="none" stroke="#000000" cx="127.8973" cy="-924.5894" rx="27" ry="18"/>
<text text-anchor="middle" x="127.8973" y="-920.8894" font-family="Times,serif" font-size="14.00" fill="#000000">PiR</text>
</g>
<!-- fp1&#45;&gt;f2 -->
<g id="edge11" class="edge">
<title>fp1&#45;&gt;f2</title>
<path fill="none" stroke="#ff0000" d="M127.8973,-993.5629C127.8973,-981.7812 127.8973,-966.15 127.8973,-952.7475"/>
<polygon fill="#ff0000" stroke="#ff0000" points="131.3974,-952.5927 127.8973,-942.5928 124.3974,-952.5928 131.3974,-952.5927"/>
<text text-anchor="middle" x="132.8973" y="-964.3894" font-family="Times,serif" font-size="14.00" fill="#000000">1</text>
</g>
<!-- xdic -->
<g id="node9" class="node">
<title>xdic</title>
<ellipse fill="none" stroke="#000000" cx="288.8973" cy="-764.5894" rx="27" ry="18"/>
<text text-anchor="middle" x="288.8973" y="-760.8894" font-family="Times,serif" font-size="14.00" fill="#000000">!c</text>
</g>
<!-- d2&#45;&gt;xdic -->
<g id="edge8" class="edge">
<title>d2&#45;&gt;xdic</title>
<path fill="none" stroke="#0000ff" d="M261.7778,-833.9836C266.5245,-821.8376 272.9262,-805.4568 278.3178,-791.6605"/>
<polygon fill="#0000ff" stroke="#0000ff" points="281.6471,-792.757 282.0272,-782.169 275.1272,-790.209 281.6471,-792.757"/>
</g>
<!-- c1bb -->
<g id="node8" class="node">
<title>c1bb</title>
<ellipse fill="none" stroke="#000000" cx="221.8973" cy="-1098.5894" rx="27.8951" ry="18"/>
<text text-anchor="middle" x="221.8973" y="-1094.8894" font-family="Times,serif" font-size="14.00" fill="#000000">Cut</text>
</g>
<!-- c1bb&#45;&gt;x1_o1 -->
<g id="edge6" class="edge">
<title>c1bb&#45;&gt;x1_o1</title>
<path fill="none" stroke="#ff0000" d="M217.3389,-1080.5629C214.3301,-1068.6645 210.3286,-1052.8401 206.9173,-1039.35"/>
<polygon fill="#ff0000" stroke="#ff0000" points="210.2948,-1038.4295 204.4499,-1029.5928 203.5084,-1040.1457 210.2948,-1038.4295"/>
<text text-anchor="middle" x="216.8973" y="-1051.3894" font-family="Times,serif" font-size="14.00" fill="#000000">0</text>
</g>
<!-- c1bb&#45;&gt;d2 -->
<g id="edge7" class="edge">
<title>c1bb&#45;&gt;d2</title>
<path fill="none" stroke="#0000ff" d="M226.0487,-1080.5131C229.1165,-1066.6422 233.2103,-1046.9846 235.8973,-1029.5894 244.0452,-976.8428 249.8117,-914.7609 252.7252,-879.6058"/>
<polygon fill="#0000ff" stroke="#0000ff" points="256.2167,-879.8507 253.5372,-869.6003 249.2396,-879.2843 256.2167,-879.8507"/>
<text text-anchor="middle" x="248.8973" y="-964.3894" font-family="Times,serif" font-size="14.00" fill="#000000">1</text>
</g>
<!-- h_di2 -->
<g id="node19" class="node">
<title>h_di2</title>
<ellipse fill="none" stroke="#000000" cx="347.8973" cy="-623.5894" rx="27" ry="18"/>
<text text-anchor="middle" x="347.8973" y="-619.8894" font-family="Times,serif" font-size="14.00" fill="#000000">!d</text>
</g>
<!-- xdic&#45;&gt;h_di2 -->
<g id="edge30" class="edge">
<title>xdic&#45;&gt;h_di2</title>
<path fill="none" stroke="#0000ff" d="M298.7617,-747.685C306.5179,-733.9516 317.2535,-713.9216 324.8973,-695.5894 330.8935,-681.2087 336.2753,-664.6794 340.3226,-651.088"/>
<polygon fill="#0000ff" stroke="#0000ff" points="343.7224,-651.9307 343.1456,-641.3516 336.9993,-649.9813 343.7224,-651.9307"/>
<text text-anchor="middle" x="320.8973" y="-717.3894" font-family="Times,serif" font-size="14.00" fill="#000000">1</text>
</g>
<!-- hi_retpa -->
<g id="node21" class="node">
<title>hi_retpa</title>
<ellipse fill="none" stroke="#000000" cx="288.8973" cy="-677.5894" rx="27" ry="18"/>
<text text-anchor="middle" x="288.8973" y="-673.8894" font-family="Times,serif" font-size="14.00" fill="#000000">!p</text>
</g>
<!-- xdic&#45;&gt;hi_retpa -->
<g id="edge29" class="edge">
<title>xdic&#45;&gt;hi_retpa</title>
<path fill="none" stroke="#0000ff" d="M288.8973,-746.5629C288.8973,-734.7812 288.8973,-719.15 288.8973,-705.7475"/>
<polygon fill="#0000ff" stroke="#0000ff" points="292.3974,-705.5927 288.8973,-695.5928 285.3974,-705.5928 292.3974,-705.5927"/>
<text text-anchor="middle" x="293.8973" y="-717.3894" font-family="Times,serif" font-size="14.00" fill="#000000">1</text>
</g>
<!-- f2&#45;&gt;d1 -->
<g id="edge9" class="edge">
<title>f2&#45;&gt;d1</title>
<path fill="none" stroke="#ff0000" d="M105.0822,-914.7775C86.9064,-905.7365 62.3517,-890.5422 48.8973,-869.5894 33.7199,-845.9532 29.8561,-813.4804 29.2283,-790.9308"/>
<ellipse fill="none" stroke="#ff0000" cx="29.1782" cy="-786.8132" rx="4" ry="4"/>
</g>
<!-- f2&#45;&gt;d2 -->
<g id="edge10" class="edge">
<title>f2&#45;&gt;d2</title>
<path fill="none" stroke="#0000ff" d="M148.5847,-912.6982C169.605,-900.6157 202.3409,-881.799 225.9343,-868.2374"/>
<ellipse fill="none" stroke="#0000ff" cx="229.4719" cy="-866.204" rx="4" ry="4"/>
</g>
<!-- d3 -->
<g id="node11" class="node">
<title>d3</title>
<ellipse fill="none" stroke="#000000" cx="228.8973" cy="-553.692" rx="29.8071" ry="29.8071"/>
<ellipse fill="none" stroke="#000000" cx="228.8973" cy="-553.692" rx="33.795" ry="33.795"/>
<text text-anchor="middle" x="228.8973" y="-549.992" font-family="Times,serif" font-size="14.00" fill="#000000">Dup</text>
</g>
<!-- d4a -->
<g id="node12" class="node">
<title>d4a</title>
<ellipse fill="none" stroke="#000000" cx="290.8973" cy="-361.8973" rx="29.8071" ry="29.8071"/>
<ellipse fill="none" stroke="#000000" cx="290.8973" cy="-361.8973" rx="33.795" ry="33.795"/>
<text text-anchor="middle" x="290.8973" y="-358.1973" font-family="Times,serif" font-size="14.00" fill="#000000">Dup</text>
</g>
<!-- d3&#45;&gt;d4a -->
<g id="edge12" class="edge">
<title>d3&#45;&gt;d4a</title>
<path fill="none" stroke="#000000" stroke-dasharray="5,2" d="M216.069,-522.171C213.13,-510.927 211.6944,-498.22 214.8973,-486.7947 225.3802,-449.4011 250.4795,-412.0921 268.9795,-388.1233"/>
</g>
<!-- hi_ret -->
<g id="node14" class="node">
<title>hi_ret</title>
<ellipse fill="none" stroke="#000000" cx="250.8973" cy="-255" rx="18" ry="18"/>
<ellipse fill="none" stroke="#000000" cx="250.8973" cy="-255" rx="22" ry="22"/>
<text text-anchor="middle" x="250.8973" y="-251.3" font-family="Times,serif" font-size="14.00" fill="#000000">I</text>
</g>
<!-- d3&#45;&gt;hi_ret -->
<g id="edge14" class="edge">
<title>d3&#45;&gt;hi_ret</title>
<path fill="none" stroke="#ff0000" stroke-width="2" d="M231.3996,-519.7191C235.674,-461.686 244.3254,-344.2263 248.5158,-287.334"/>
<polygon fill="#ff0000" stroke="#ff0000" stroke-width="2" points="252.0239,-287.351 249.268,-277.1209 245.0429,-286.8368 252.0239,-287.351"/>
</g>
<!-- d4a&#45;&gt;hi_ret -->
<g id="edge15" class="edge">
<title>d4a&#45;&gt;hi_ret</title>
<path fill="none" stroke="#0000ff" stroke-width="2" d="M279.0043,-330.114C273.7044,-315.9503 267.4902,-299.3432 262.2544,-285.351"/>
<polygon fill="#0000ff" stroke="#0000ff" stroke-width="2" points="265.4247,-283.8362 258.642,-275.697 258.8686,-286.2894 265.4247,-283.8362"/>
</g>
<!-- d4b -->
<g id="node13" class="node">
<title>d4b</title>
<ellipse fill="none" stroke="#000000" cx="389.8973" cy="-361.8973" rx="29.795" ry="18"/>
<text text-anchor="middle" x="389.8973" y="-358.1973" font-family="Times,serif" font-size="14.00" fill="#000000">Dup</text>
</g>
<!-- d4b&#45;&gt;d4a -->
<g id="edge13" class="edge">
<title>d4b&#45;&gt;d4a</title>
<path fill="none" stroke="#000000" stroke-dasharray="5,2" d="M359.9508,-361.8973C348.2767,-361.8973 336.6027,-361.8973 324.9286,-361.8973"/>
</g>
<!-- h_app -->
<g id="node15" class="node">
<title>h_app</title>
<ellipse fill="none" stroke="#000000" cx="465.8973" cy="-255" rx="27" ry="18"/>
<text text-anchor="middle" x="465.8973" y="-251.3" font-family="Times,serif" font-size="14.00" fill="#000000">I</text>
</g>
<!-- d4b&#45;&gt;h_app -->
<g id="edge16" class="edge">
<title>d4b&#45;&gt;h_app</title>
<path fill="none" stroke="#ff0000" d="M394.4749,-343.9034C398.6962,-329.6808 405.978,-309.8232 416.8973,-295 422.7326,-287.0785 430.4852,-279.8023 438.0982,-273.6901"/>
<polygon fill="#ff0000" stroke="#ff0000" points="440.3553,-276.3711 446.2072,-267.5389 436.1248,-270.794 440.3553,-276.3711"/>
</g>
<!-- ha -->
<g id="node16" class="node">
<title>ha</title>
<ellipse fill="none" stroke="#000000" cx="304.8973" cy="-450.7947" rx="27" ry="18"/>
<text text-anchor="middle" x="304.8973" y="-447.0947" font-family="Times,serif" font-size="14.00" fill="#000000">PiL</text>
</g>
<!-- ha&#45;&gt;d4a -->
<g id="edge18" class="edge">
<title>ha&#45;&gt;d4a</title>
<path fill="none" stroke="#0000ff" d="M302.0642,-432.805C300.8189,-424.8975 299.297,-415.2335 297.7823,-405.6152"/>
<polygon fill="#0000ff" stroke="#0000ff" points="301.2314,-405.0176 296.2182,-395.6839 294.3166,-406.1067 301.2314,-405.0176"/>
</g>
<!-- ha&#45;&gt;d4b -->
<g id="edge17" class="edge">
<title>ha&#45;&gt;d4b</title>
<path fill="none" stroke="#ff0000" d="M319.7032,-435.31C333.0287,-421.3735 352.7879,-400.7083 367.9502,-384.8508"/>
<polygon fill="#ff0000" stroke="#ff0000" points="370.5948,-387.1495 374.9759,-377.5029 365.5353,-382.3119 370.5948,-387.1495"/>
</g>
<!-- hb -->
<g id="node17" class="node">
<title>hb</title>
<ellipse fill="none" stroke="#000000" cx="376.8973" cy="-450.7947" rx="27" ry="18"/>
<text text-anchor="middle" x="376.8973" y="-447.0947" font-family="Times,serif" font-size="14.00" fill="#000000">PiL</text>
</g>
<!-- hb&#45;&gt;d4a -->
<g id="edge20" class="edge">
<title>hb&#45;&gt;d4a</title>
<path fill="none" stroke="#0000ff" d="M361.9173,-435.31C350.548,-423.5576 334.5497,-407.0204 320.615,-392.6162"/>
<ellipse fill="none" stroke="#0000ff" cx="317.5701" cy="-389.4687" rx="4" ry="4"/>
</g>
<!-- hb&#45;&gt;d4b -->
<g id="edge19" class="edge">
<title>hb&#45;&gt;d4b</title>
<path fill="none" stroke="#ff0000" d="M379.5281,-432.805C381.4135,-419.9121 383.9818,-402.3495 386.0906,-387.9288"/>
<ellipse fill="none" stroke="#ff0000" cx="386.6917" cy="-383.8182" rx="4" ry="4"/>
</g>
<!-- h_di1 -->
<g id="node18" class="node">
<title>h_di1</title>
<ellipse fill="none" stroke="#000000" cx="307.8973" cy="-553.692" rx="27" ry="18"/>
<text text-anchor="middle" x="307.8973" y="-549.992" font-family="Times,serif" font-size="14.00" fill="#000000">!d</text>
</g>
<!-- h_di1&#45;&gt;ha -->
<g id="edge21" class="edge">
<title>h_di1&#45;&gt;ha</title>
<path fill="none" stroke="#0000ff" d="M307.361,-535.2961C306.9067,-519.7127 306.2478,-497.1135 305.7257,-479.2065"/>
<polygon fill="#0000ff" stroke="#0000ff" points="309.2191,-478.9251 305.429,-469.0314 302.2221,-479.1292 309.2191,-478.9251"/>
<text text-anchor="middle" x="310.8973" y="-490.5947" font-family="Times,serif" font-size="14.00" fill="#000000">2</text>
</g>
<!-- h_di2&#45;&gt;hb -->
<g id="edge22" class="edge">
<title>h_di2&#45;&gt;hb</title>
<path fill="none" stroke="#0000ff" d="M350.946,-605.4239C356.0068,-575.27 366.1769,-514.6717 372.1729,-478.9447"/>
<polygon fill="#0000ff" stroke="#0000ff" points="375.686,-479.1582 373.8895,-468.7168 368.7825,-477.9995 375.686,-479.1582"/>
<text text-anchor="middle" x="368.8973" y="-549.992" font-family="Times,serif" font-size="14.00" fill="#000000">2</text>
</g>
<!-- c2a -->
<g id="node20" class="node">
<title>c2a</title>
<ellipse fill="none" stroke="#000000" cx="177.8973" cy="-764.5894" rx="27.8951" ry="18"/>
<text text-anchor="middle" x="177.8973" y="-760.8894" font-family="Times,serif" font-size="14.00" fill="#000000">Cut</text>
</g>
<!-- c2a&#45;&gt;hi_retpa -->
<g id="edge23" class="edge">
<title>c2a&#45;&gt;hi_retpa</title>
<path fill="none" stroke="#ff0000" d="M182.7554,-746.5586C186.4606,-735.7843 192.5493,-722.5036 201.8973,-713.5894 216.0385,-700.1045 235.9429,-691.3636 253.1449,-685.8766"/>
<polygon fill="#ff0000" stroke="#ff0000" points="254.2895,-689.1883 262.8969,-683.0107 252.3157,-682.4723 254.2895,-689.1883"/>
<text text-anchor="middle" x="206.8973" y="-717.3894" font-family="Times,serif" font-size="14.00" fill="#000000">1</text>
</g>
<!-- x1_o2 -->
<g id="node22" class="node">
<title>x1_o2</title>
<ellipse fill="none" stroke="#000000" cx="156.8973" cy="-677.5894" rx="27" ry="18"/>
<text text-anchor="middle" x="156.8973" y="-673.8894" font-family="Times,serif" font-size="14.00" fill="#000000">I</text>
</g>
<!-- c2a&#45;&gt;x1_o2 -->
<g id="edge24" class="edge">
<title>c2a&#45;&gt;x1_o2</title>
<path fill="none" stroke="#0000ff" d="M173.5461,-746.5629C170.6741,-734.6645 166.8544,-718.8401 163.5982,-705.35"/>
<polygon fill="#0000ff" stroke="#0000ff" points="166.9918,-704.4923 161.243,-695.5928 160.1872,-706.1348 166.9918,-704.4923"/>
</g>
<!-- hi_retpa&#45;&gt;d3 -->
<g id="edge27" class="edge">
<title>hi_retpa&#45;&gt;d3</title>
<path fill="none" stroke="#ff0000" d="M280.5546,-660.362C272.2342,-643.1807 259.1547,-616.1722 248.2391,-593.6319"/>
<polygon fill="#ff0000" stroke="#ff0000" points="251.3773,-592.0817 243.8686,-584.6071 245.0771,-595.1328 251.3773,-592.0817"/>
<text text-anchor="middle" x="275.8973" y="-619.8894" font-family="Times,serif" font-size="14.00" fill="#000000">2</text>
</g>
<!-- hi_retpa&#45;&gt;h_di1 -->
<g id="edge28" class="edge">
<title>hi_retpa&#45;&gt;h_di1</title>
<path fill="none" stroke="#0000ff" d="M291.6601,-659.5737C294.784,-639.2033 299.9102,-605.7757 303.567,-581.93"/>
<polygon fill="#0000ff" stroke="#0000ff" points="307.0749,-582.1445 305.1312,-571.7295 300.1558,-581.0834 307.0749,-582.1445"/>
<text text-anchor="middle" x="303.8973" y="-619.8894" font-family="Times,serif" font-size="14.00" fill="#000000">1</text>
</g>
<!-- c2b -->
<g id="node23" class="node">
<title>c2b</title>
<ellipse fill="none" stroke="#000000" cx="174.8973" cy="-851.5894" rx="27.8951" ry="18"/>
<text text-anchor="middle" x="174.8973" y="-847.8894" font-family="Times,serif" font-size="14.00" fill="#000000">Cut</text>
</g>
<!-- c2b&#45;&gt;d3 -->
<g id="edge25" class="edge">
<title>c2b&#45;&gt;d3</title>
<path fill="none" stroke="#ff0000" stroke-width="2" d="M187.2772,-835.3122C196.6983,-821.9337 209.0141,-802.075 214.8973,-782.5894 233.9496,-719.488 234.2144,-642.2694 232.0236,-595.585"/>
<ellipse fill="none" stroke="#ff0000" stroke-width="2" cx="231.8128" cy="-591.5105" rx="4" ry="4"/>
<text text-anchor="middle" x="232.8973" y="-717.3894" font-family="Times,serif" font-size="14.00" fill="#000000">2</text>
</g>
<!-- x2i_o2 -->
<g id="node24" class="node">
<title>x2i_o2</title>
<ellipse fill="none" stroke="#000000" cx="104.8973" cy="-764.5894" rx="27" ry="18"/>
<text text-anchor="middle" x="104.8973" y="-760.8894" font-family="Times,serif" font-size="14.00" fill="#000000">PiL</text>
</g>
<!-- c2b&#45;&gt;x2i_o2 -->
<g id="edge26" class="edge">
<title>c2b&#45;&gt;x2i_o2</title>
<path fill="none" stroke="#0000ff" stroke-width="2" d="M161.7309,-835.2254C151.1046,-822.0184 136.0077,-803.2551 124.0441,-788.3861"/>
<polygon fill="#0000ff" stroke="#0000ff" stroke-width="2" points="126.764,-786.1832 117.7683,-780.5861 121.3102,-790.5714 126.764,-786.1832"/>
<text text-anchor="middle" x="149.8973" y="-804.3894" font-family="Times,serif" font-size="14.00" fill="#000000">1</text>
</g>
<!-- x2i_o2&#45;&gt;f_ret -->
<g id="edge32" class="edge">
<title>x2i_o2&#45;&gt;f_ret</title>
<path fill="none" stroke="#0000ff" stroke-width="2" d="M99.9245,-746.5629C96.6203,-734.5852 92.2186,-718.629 88.4811,-705.0805"/>
<polygon fill="#0000ff" stroke="#0000ff" stroke-width="2" points="91.815,-704.0042 85.7817,-695.2951 85.0671,-705.8658 91.815,-704.0042"/>
</g>
<!-- x2i_o2&#45;&gt;x1_o2 -->
<g id="edge31" class="edge">
<title>x2i_o2&#45;&gt;x1_o2</title>
<path fill="none" stroke="#ff0000" d="M114.9235,-747.8149C122.4769,-735.1774 132.9671,-717.6265 141.5706,-703.2323"/>
<polygon fill="#ff0000" stroke="#ff0000" points="144.7758,-704.6917 146.902,-694.3124 138.7672,-701.1003 144.7758,-704.6917"/>
</g>
<!-- c3 -->
<g id="node25" class="node">
<title>c3</title>
<ellipse fill="none" stroke="#000000" cx="465.8973" cy="-361.8973" rx="27.8951" ry="18"/>
<text text-anchor="middle" x="465.8973" y="-358.1973" font-family="Times,serif" font-size="14.00" fill="#000000">Cut</text>
</g>
<!-- c3&#45;&gt;h_app -->
<g id="edge34" class="edge">
<title>c3&#45;&gt;h_app</title>
<path fill="none" stroke="#0000ff" d="M465.8973,-343.7637C465.8973,-327.2548 465.8973,-302.6098 465.8973,-283.4743"/>
<polygon fill="#0000ff" stroke="#0000ff" points="469.3974,-283.2226 465.8973,-273.2226 462.3974,-283.2227 469.3974,-283.2226"/>
</g>
<!-- i -->
<g id="node26" class="node">
<title>i</title>
<ellipse fill="none" stroke="#000000" cx="393.8973" cy="-255" rx="27" ry="18"/>
<text text-anchor="middle" x="393.8973" y="-251.3" font-family="Times,serif" font-size="14.00" fill="#000000">!p</text>
</g>
<!-- c3&#45;&gt;i -->
<g id="edge33" class="edge">
<title>c3&#45;&gt;i</title>
<path fill="none" stroke="#ff0000" d="M454.6473,-345.1946C442.8646,-327.701 424.2259,-300.0284 410.699,-279.9451"/>
<polygon fill="#ff0000" stroke="#ff0000" points="413.5578,-277.9243 405.0683,-271.5854 407.7519,-281.8348 413.5578,-277.9243"/>
<text text-anchor="middle" x="434.8973" y="-298.8" font-family="Times,serif" font-size="14.00" fill="#000000">2</text>
</g>
<!-- i_i -->
<g id="node27" class="node">
<title>i_i</title>
<ellipse fill="none" stroke="#000000" cx="393.8973" cy="-164" rx="27" ry="18"/>
<text text-anchor="middle" x="393.8973" y="-160.3" font-family="Times,serif" font-size="14.00" fill="#000000">PiR</text>
</g>
<!-- i&#45;&gt;i_i -->
<g id="edge35" class="edge">
<title>i&#45;&gt;i_i</title>
<path fill="none" stroke="#ff0000" d="M393.8973,-236.5848C393.8973,-223.9209 393.8973,-206.8558 393.8973,-192.4541"/>
<polygon fill="#ff0000" stroke="#ff0000" points="397.3974,-192.0772 393.8973,-182.0773 390.3974,-192.0773 397.3974,-192.0772"/>
<text text-anchor="middle" x="398.8973" y="-203.8" font-family="Times,serif" font-size="14.00" fill="#000000">3</text>
</g>
<!-- il -->
<g id="node28" class="node">
<title>il</title>
<ellipse fill="none" stroke="#000000" cx="366.8973" cy="-91" rx="27" ry="18"/>
<text text-anchor="middle" x="366.8973" y="-87.3" font-family="Times,serif" font-size="14.00" fill="#000000">!d</text>
</g>
<!-- i_i&#45;&gt;il -->
<g id="edge36" class="edge">
<title>i_i&#45;&gt;il</title>
<path fill="none" stroke="#0000ff" d="M387.3614,-146.3287C384.2108,-137.8103 380.3632,-127.4078 376.8582,-117.9312"/>
<polygon fill="#0000ff" stroke="#0000ff" points="380.1248,-116.6734 373.3731,-108.5085 373.5595,-119.1017 380.1248,-116.6734"/>
</g>
<!-- i_ret -->
<g id="node29" class="node">
<title>i_ret</title>
<ellipse fill="none" stroke="#000000" cx="393.8973" cy="-18" rx="27" ry="18"/>
<text text-anchor="middle" x="393.8973" y="-14.3" font-family="Times,serif" font-size="14.00" fill="#000000">I</text>
</g>
<!-- i_i&#45;&gt;i_ret -->
<g id="edge37" class="edge">
<title>i_i&#45;&gt;i_ret</title>
<path fill="none" stroke="#ff0000" d="M397.6449,-145.7581C399.644,-135.0941 401.894,-121.3441 402.8973,-109 404.1935,-93.0526 404.1935,-88.9474 402.8973,-73 402.1841,-64.2241 400.8407,-54.7377 399.4052,-46.1547"/>
<polygon fill="#ff0000" stroke="#ff0000" points="402.8395,-45.4759 397.6449,-36.2419 395.9474,-46.6999 402.8395,-45.4759"/>
</g>
<!-- il&#45;&gt;i_ret -->
<g id="edge38" class="edge">
<title>il&#45;&gt;i_ret</title>
<path fill="none" stroke="#0000ff" d="M373.4333,-73.3287C376.5839,-64.8103 380.4314,-54.4078 383.9365,-44.9312"/>
<polygon fill="#0000ff" stroke="#0000ff" points="387.2352,-46.1017 387.4216,-35.5085 380.6699,-43.6734 387.2352,-46.1017"/>
</g>
</g>
</svg>
