<?xml version="1.0" encoding="UTF-8" standalone="no"?>
<!DOCTYPE svg PUBLIC "-//W3C//DTD SVG 1.1//EN"
 "http://www.w3.org/Graphics/SVG/1.1/DTD/svg11.dtd">
<!-- Generated by graphviz version 2.40.1 (20161225.0304)
 -->
<!-- Title: foo Pages: 1 -->
<svg width="412pt" height="98pt"
 viewBox="0.00 0.00 412.37 98.00" xmlns="http://www.w3.org/2000/svg" xmlns:xlink="http://www.w3.org/1999/xlink">
<g id="graph0" class="graph" transform="scale(1 1) rotate(0) translate(4 94)">
<title>foo</title>
<polygon fill="#ffffff" stroke="transparent" points="-4,4 -4,-94 408.3737,-94 408.3737,4 -4,4"/>
<!-- Recheck -->
<g id="node1" class="node">
<title>Recheck</title>
<ellipse fill="none" stroke="#000000" cx="40.9464" cy="-41" rx="40.8928" ry="18"/>
<text text-anchor="middle" x="40.9464" y="-37.3" font-family="Times,serif" font-size="14.00" fill="#000000">Recheck</text>
</g>
<!-- Dirty -->
<g id="node2" class="node">
<title>Dirty</title>
<ellipse fill="none" stroke="#000000" cx="147.1401" cy="-64" rx="29.4969" ry="18"/>
<text text-anchor="middle" x="147.1401" y="-60.3" font-family="Times,serif" font-size="14.00" fill="#000000">Dirty</text>
</g>
<!-- Recheck&#45;&gt;Dirty -->
<g id="edge1" class="edge">
<title>Recheck&#45;&gt;Dirty</title>
<path fill="none" stroke="#000000" d="M77.7898,-48.9797C88.0335,-51.1984 99.1705,-53.6105 109.4614,-55.8393"/>
<polygon fill="#000000" stroke="#000000" points="108.8915,-59.297 119.4058,-57.9932 110.3733,-52.4556 108.8915,-59.297"/>
</g>
<!-- Loaded -->
<g id="node4" class="node">
<title>Loaded</title>
<ellipse fill="none" stroke="#000000" cx="367.327" cy="-18" rx="37.0935" ry="18"/>
<text text-anchor="middle" x="367.327" y="-14.3" font-family="Times,serif" font-size="14.00" fill="#000000">Loaded</text>
</g>
<!-- Recheck&#45;&gt;Loaded -->
<g id="edge5" class="edge">
<title>Recheck&#45;&gt;Loaded</title>
<path fill="none" stroke="#000000" d="M81.6228,-38.1335C142.1627,-33.8673 255.7146,-25.8653 319.9293,-21.3401"/>
<polygon fill="#000000" stroke="#000000" points="320.4483,-24.8123 330.1775,-20.6179 319.9562,-17.8296 320.4483,-24.8123"/>
</g>
<!-- Running -->
<g id="node3" class="node">
<title>Running</title>
<ellipse fill="none" stroke="#000000" cx="253.3339" cy="-64" rx="40.8928" ry="18"/>
<text text-anchor="middle" x="253.3339" y="-60.3" font-family="Times,serif" font-size="14.00" fill="#000000">Running</text>
</g>
<!-- Dirty&#45;&gt;Running -->
<g id="edge2" class="edge">
<title>Dirty&#45;&gt;Running</title>
<path fill="none" stroke="#000000" d="M176.4392,-64C184.3818,-64 193.2201,-64 201.9944,-64"/>
<polygon fill="#000000" stroke="#000000" points="202.2078,-67.5001 212.2078,-64 202.2077,-60.5001 202.2078,-67.5001"/>
</g>
<!-- Running&#45;&gt;Loaded -->
<g id="edge3" class="edge">
<title>Running&#45;&gt;Loaded</title>
<path fill="none" stroke="#000000" d="M283.5827,-51.7936C297.5423,-46.1604 314.2703,-39.4101 329.0928,-33.4287"/>
<polygon fill="#000000" stroke="#000000" points="330.5463,-36.6165 338.5099,-29.6286 327.9267,-30.1251 330.5463,-36.6165"/>
</g>
<!-- Error -->
<g id="node5" class="node">
<title>Error</title>
<ellipse fill="none" stroke="#000000" cx="367.327" cy="-72" rx="29.4969" ry="18"/>
<text text-anchor="middle" x="367.327" y="-68.3" font-family="Times,serif" font-size="14.00" fill="#000000">Error</text>
</g>
<!-- Running&#45;&gt;Error -->
<g id="edge4" class="edge">
<title>Running&#45;&gt;Error</title>
<path fill="none" stroke="#000000" d="M293.8446,-66.843C304.9015,-67.619 316.8641,-68.4585 327.862,-69.2304"/>
<polygon fill="#000000" stroke="#000000" points="327.8291,-72.7366 338.0496,-69.9453 328.3192,-65.7537 327.8291,-72.7366"/>
</g>
</g>
</svg>
