<?xml version="1.0" encoding="UTF-8" standalone="no"?>
<!DOCTYPE svg PUBLIC "-//W3C//DTD SVG 1.1//EN"
 "http://www.w3.org/Graphics/SVG/1.1/DTD/svg11.dtd">
<!-- Generated by graphviz version 2.43.0 (0)
 -->
<!-- Title: paradigms Pages: 1 -->
<svg width="2539pt" height="476pt"
 viewBox="0.00 0.00 2539.49 476.00" xmlns="http://www.w3.org/2000/svg" xmlns:xlink="http://www.w3.org/1999/xlink">
<g id="graph0" class="graph" transform="scale(1 1) rotate(0) translate(4 472)">
<title>paradigms</title>
<polygon fill="white" stroke="transparent" points="-4,4 -4,-472 2535.49,-472 2535.49,4 -4,4"/>
<!-- action -->
<g id="node1" class="node">
<title>action</title>
<ellipse fill="none" stroke="black" cx="1445.75" cy="-450" rx="38.99" ry="18"/>
<text text-anchor="middle" x="1445.75" y="-446.3" font-family="Times,serif" font-size="14.00">action</text>
</g>
<!-- relation -->
<g id="node2" class="node">
<title>relation</title>
<ellipse fill="none" stroke="black" cx="1445.75" cy="-378" rx="46.59" ry="18"/>
<text text-anchor="middle" x="1445.75" y="-374.3" font-family="Times,serif" font-size="14.00">relation</text>
</g>
<!-- action&#45;&gt;relation -->
<g id="edge1" class="edge">
<title>action&#45;&gt;relation</title>
<path fill="none" stroke="black" d="M1445.75,-431.7C1445.75,-423.98 1445.75,-414.71 1445.75,-406.11"/>
<polygon fill="black" stroke="black" points="1449.25,-406.1 1445.75,-396.1 1442.25,-406.1 1449.25,-406.1"/>
</g>
<!-- set -->
<g id="node17" class="node">
<title>set</title>
<ellipse fill="none" stroke="black" cx="1531.75" cy="-306" rx="27" ry="18"/>
<text text-anchor="middle" x="1531.75" y="-302.3" font-family="Times,serif" font-size="14.00">set</text>
</g>
<!-- relation&#45;&gt;set -->
<g id="edge20" class="edge">
<title>relation&#45;&gt;set</title>
<path fill="none" stroke="black" d="M1464.83,-361.46C1477.37,-351.26 1493.89,-337.81 1507.38,-326.84"/>
<polygon fill="black" stroke="black" points="1509.77,-329.4 1515.32,-320.37 1505.36,-323.97 1509.77,-329.4"/>
</g>
<!-- array -->
<g id="node3" class="node">
<title>array</title>
<ellipse fill="none" stroke="black" cx="35.75" cy="-90" rx="36" ry="18"/>
<text text-anchor="middle" x="35.75" y="-86.3" font-family="Times,serif" font-size="14.00">array</text>
</g>
<!-- function -->
<g id="node4" class="node">
<title>function</title>
<ellipse fill="none" stroke="black" cx="1064.75" cy="-18" rx="48.99" ry="18"/>
<text text-anchor="middle" x="1064.75" y="-14.3" font-family="Times,serif" font-size="14.00">function</text>
</g>
<!-- array&#45;&gt;function -->
<g id="edge2" class="edge">
<title>array&#45;&gt;function</title>
<path fill="none" stroke="black" d="M62.89,-78.27C70.2,-75.79 78.19,-73.46 85.75,-72 263.62,-37.62 822.58,-23.77 1005.89,-20.08"/>
<polygon fill="black" stroke="black" points="1006.2,-23.57 1016.13,-19.88 1006.06,-16.57 1006.2,-23.57"/>
</g>
<!-- function&#45;&gt;relation -->
<g id="edge19" class="edge">
<title>function&#45;&gt;relation</title>
<path fill="none" stroke="black" d="M1016.25,-20.1C827.82,-24.56 153.12,-42.56 118.75,-72 88.03,-98.31 99.75,-120.55 99.75,-161 99.75,-235 99.75,-235 99.75,-235 99.75,-366.67 1131.59,-376.63 1388.4,-377.07"/>
<polygon fill="black" stroke="black" points="1388.63,-380.57 1398.63,-377.08 1388.64,-373.57 1388.63,-380.57"/>
</g>
<!-- nondet automata -->
<g id="node5" class="node">
<title>nondet automata</title>
<ellipse fill="none" stroke="black" cx="1592.75" cy="-450" rx="89.88" ry="18"/>
<text text-anchor="middle" x="1592.75" y="-446.3" font-family="Times,serif" font-size="14.00">nondet automata</text>
</g>
<!-- nondet automata&#45;&gt;relation -->
<g id="edge3" class="edge">
<title>nondet automata&#45;&gt;relation</title>
<path fill="none" stroke="black" d="M1559.39,-433.12C1536.76,-422.34 1506.8,-408.07 1483.32,-396.89"/>
<polygon fill="black" stroke="black" points="1484.56,-393.61 1474.02,-392.47 1481.55,-399.93 1484.56,-393.61"/>
</g>
<!-- det automata -->
<g id="node6" class="node">
<title>det automata</title>
<ellipse fill="none" stroke="black" cx="200.75" cy="-90" rx="72.59" ry="18"/>
<text text-anchor="middle" x="200.75" y="-86.3" font-family="Times,serif" font-size="14.00">det automata</text>
</g>
<!-- det automata&#45;&gt;function -->
<g id="edge4" class="edge">
<title>det automata&#45;&gt;function</title>
<path fill="none" stroke="black" d="M253.95,-77.51C265.07,-75.42 276.76,-73.44 287.75,-72 554.67,-36.96 876.41,-24.36 1006.23,-20.5"/>
<polygon fill="black" stroke="black" points="1006.45,-23.99 1016.35,-20.2 1006.25,-17 1006.45,-23.99"/>
</g>
<!-- concurrency -->
<g id="node7" class="node">
<title>concurrency</title>
<ellipse fill="none" stroke="black" cx="338.75" cy="-162" rx="67.69" ry="18"/>
<text text-anchor="middle" x="338.75" y="-158.3" font-family="Times,serif" font-size="14.00">concurrency</text>
</g>
<!-- command -->
<g id="node8" class="node">
<title>command</title>
<ellipse fill="none" stroke="black" cx="551.75" cy="-90" rx="55.79" ry="18"/>
<text text-anchor="middle" x="551.75" y="-86.3" font-family="Times,serif" font-size="14.00">command</text>
</g>
<!-- concurrency&#45;&gt;command -->
<g id="edge5" class="edge">
<title>concurrency&#45;&gt;command</title>
<path fill="none" stroke="black" d="M379.56,-147.59C415.16,-135.89 466.81,-118.91 504.25,-106.61"/>
<polygon fill="black" stroke="black" points="505.52,-109.88 513.93,-103.43 503.34,-103.23 505.52,-109.88"/>
</g>
<!-- command&#45;&gt;function -->
<g id="edge32" class="edge">
<title>command&#45;&gt;function</title>
<path fill="none" stroke="black" d="M592.12,-77.52C600.23,-75.47 608.72,-73.52 616.75,-72 755.78,-45.73 921.68,-30.14 1007.3,-23.24"/>
<polygon fill="black" stroke="black" points="1007.64,-26.73 1017.34,-22.44 1007.09,-19.75 1007.64,-26.73"/>
</g>
<!-- actor -->
<g id="node9" class="node">
<title>actor</title>
<ellipse fill="none" stroke="black" cx="463.75" cy="-234" rx="34.39" ry="18"/>
<text text-anchor="middle" x="463.75" y="-230.3" font-family="Times,serif" font-size="14.00">actor</text>
</g>
<!-- actor&#45;&gt;concurrency -->
<g id="edge6" class="edge">
<title>actor&#45;&gt;concurrency</title>
<path fill="none" stroke="black" d="M441.11,-220.32C422.77,-210.05 396.56,-195.37 375.25,-183.44"/>
<polygon fill="black" stroke="black" points="376.89,-180.35 366.46,-178.52 373.47,-186.46 376.89,-180.35"/>
</g>
<!-- loop -->
<g id="node12" class="node">
<title>loop</title>
<ellipse fill="none" stroke="black" cx="454.75" cy="-162" rx="30.59" ry="18"/>
<text text-anchor="middle" x="454.75" y="-158.3" font-family="Times,serif" font-size="14.00">loop</text>
</g>
<!-- actor&#45;&gt;loop -->
<g id="edge9" class="edge">
<title>actor&#45;&gt;loop</title>
<path fill="none" stroke="black" d="M461.52,-215.7C460.53,-207.98 459.34,-198.71 458.23,-190.11"/>
<polygon fill="black" stroke="black" points="461.69,-189.58 456.95,-180.1 454.75,-190.47 461.69,-189.58"/>
</g>
<!-- agent -->
<g id="node10" class="node">
<title>agent</title>
<ellipse fill="none" stroke="black" cx="296.75" cy="-234" rx="37.09" ry="18"/>
<text text-anchor="middle" x="296.75" y="-230.3" font-family="Times,serif" font-size="14.00">agent</text>
</g>
<!-- agent&#45;&gt;concurrency -->
<g id="edge7" class="edge">
<title>agent&#45;&gt;concurrency</title>
<path fill="none" stroke="black" d="M306.7,-216.41C311.65,-208.16 317.74,-198.01 323.28,-188.78"/>
<polygon fill="black" stroke="black" points="326.43,-190.33 328.57,-179.96 320.43,-186.73 326.43,-190.33"/>
</g>
<!-- agent&#45;&gt;loop -->
<g id="edge10" class="edge">
<title>agent&#45;&gt;loop</title>
<path fill="none" stroke="black" d="M323.19,-221.28C350.26,-209.29 392.41,-190.62 421.67,-177.65"/>
<polygon fill="black" stroke="black" points="423.33,-180.75 431.06,-173.49 420.5,-174.35 423.33,-180.75"/>
</g>
<!-- flow -->
<g id="node11" class="node">
<title>flow</title>
<ellipse fill="none" stroke="black" cx="381.75" cy="-234" rx="29.8" ry="18"/>
<text text-anchor="middle" x="381.75" y="-230.3" font-family="Times,serif" font-size="14.00">flow</text>
</g>
<!-- flow&#45;&gt;concurrency -->
<g id="edge8" class="edge">
<title>flow&#45;&gt;concurrency</title>
<path fill="none" stroke="black" d="M371.77,-216.76C366.66,-208.44 360.31,-198.1 354.55,-188.73"/>
<polygon fill="black" stroke="black" points="357.48,-186.81 349.27,-180.12 351.52,-190.48 357.48,-186.81"/>
</g>
<!-- flow&#45;&gt;loop -->
<g id="edge11" class="edge">
<title>flow&#45;&gt;loop</title>
<path fill="none" stroke="black" d="M397.23,-218.15C407.29,-208.5 420.59,-195.75 431.87,-184.94"/>
<polygon fill="black" stroke="black" points="434.49,-187.27 439.29,-177.82 429.65,-182.22 434.49,-187.27"/>
</g>
<!-- loop&#45;&gt;function -->
<g id="edge46" class="edge">
<title>loop&#45;&gt;function</title>
<path fill="none" stroke="black" d="M430.9,-150.39C425.91,-148.23 420.67,-146.01 415.75,-144 373.93,-126.97 346.4,-145.16 320.75,-108 311.66,-94.83 309.84,-83.71 320.75,-72 367.07,-22.25 837.95,-18.46 1005.75,-18.7"/>
<polygon fill="black" stroke="black" points="1005.88,-22.2 1015.89,-18.72 1005.89,-15.2 1005.88,-22.2"/>
</g>
<!-- recursion -->
<g id="node39" class="node">
<title>recursion</title>
<ellipse fill="none" stroke="black" cx="384.75" cy="-90" rx="54.69" ry="18"/>
<text text-anchor="middle" x="384.75" y="-86.3" font-family="Times,serif" font-size="14.00">recursion</text>
</g>
<!-- loop&#45;&gt;recursion -->
<g id="edge47" class="edge">
<title>loop&#45;&gt;recursion</title>
<path fill="none" stroke="black" d="M439.9,-146.15C430.73,-136.98 418.76,-125.01 408.31,-114.56"/>
<polygon fill="black" stroke="black" points="410.58,-111.89 401.04,-107.29 405.63,-116.84 410.58,-111.89"/>
</g>
<!-- data&#45;driven -->
<g id="node13" class="node">
<title>data&#45;driven</title>
<ellipse fill="none" stroke="black" cx="781.75" cy="-234" rx="63.89" ry="18"/>
<text text-anchor="middle" x="781.75" y="-230.3" font-family="Times,serif" font-size="14.00">data&#45;driven</text>
</g>
<!-- data&#45;driven&#45;&gt;function -->
<g id="edge14" class="edge">
<title>data&#45;driven&#45;&gt;function</title>
<path fill="none" stroke="black" d="M777.94,-215.8C771.82,-183.16 763.92,-111.93 800.75,-72 827.99,-42.46 937.71,-28.69 1006.84,-22.84"/>
<polygon fill="black" stroke="black" points="1007.47,-26.3 1017.15,-22 1006.9,-19.32 1007.47,-26.3"/>
</g>
<!-- data&#45;driven&#45;&gt;command -->
<g id="edge15" class="edge">
<title>data&#45;driven&#45;&gt;command</title>
<path fill="none" stroke="black" d="M756.25,-217.26C714.59,-191.54 631.89,-140.48 585.44,-111.8"/>
<polygon fill="black" stroke="black" points="587,-108.65 576.65,-106.38 583.32,-114.61 587,-108.65"/>
</g>
<!-- data&#45;driven&#45;&gt;loop -->
<g id="edge12" class="edge">
<title>data&#45;driven&#45;&gt;loop</title>
<path fill="none" stroke="black" d="M735.11,-221.68C726.37,-219.69 717.3,-217.71 708.75,-216 614.18,-197.05 587.32,-207.05 494.75,-180 492.34,-179.3 489.88,-178.49 487.43,-177.62"/>
<polygon fill="black" stroke="black" points="488.69,-174.35 478.1,-174.01 486.16,-180.88 488.69,-174.35"/>
</g>
<!-- condition -->
<g id="node14" class="node">
<title>condition</title>
<ellipse fill="none" stroke="black" cx="981.75" cy="-162" rx="53.89" ry="18"/>
<text text-anchor="middle" x="981.75" y="-158.3" font-family="Times,serif" font-size="14.00">condition</text>
</g>
<!-- data&#45;driven&#45;&gt;condition -->
<g id="edge13" class="edge">
<title>data&#45;driven&#45;&gt;condition</title>
<path fill="none" stroke="black" d="M820.31,-219.5C853.51,-207.88 901.47,-191.1 936.48,-178.84"/>
<polygon fill="black" stroke="black" points="937.71,-182.12 945.99,-175.51 935.4,-175.51 937.71,-182.12"/>
</g>
<!-- declarative -->
<g id="node15" class="node">
<title>declarative</title>
<ellipse fill="none" stroke="black" cx="1762.75" cy="-450" rx="62.29" ry="18"/>
<text text-anchor="middle" x="1762.75" y="-446.3" font-family="Times,serif" font-size="14.00">declarative</text>
</g>
<!-- declarative&#45;&gt;relation -->
<g id="edge16" class="edge">
<title>declarative&#45;&gt;relation</title>
<path fill="none" stroke="black" d="M1716.57,-437.78C1708.31,-435.82 1699.78,-433.83 1691.75,-432 1623.99,-416.59 1545.48,-399.87 1495.72,-389.42"/>
<polygon fill="black" stroke="black" points="1496.37,-385.98 1485.86,-387.35 1494.93,-392.83 1496.37,-385.98"/>
</g>
<!-- declarative&#45;&gt;function -->
<g id="edge17" class="edge">
<title>declarative&#45;&gt;function</title>
<path fill="none" stroke="black" d="M1803.25,-436.21C1891.99,-407.59 2095.75,-338.46 2095.75,-307 2095.75,-307 2095.75,-307 2095.75,-161 2095.75,-120.55 2107.51,-98.25 2076.75,-72 2040.33,-40.92 1334.01,-24.37 1123.48,-20.12"/>
<polygon fill="black" stroke="black" points="1123.31,-16.61 1113.25,-19.91 1123.17,-23.61 1123.31,-16.61"/>
</g>
<!-- lambda -->
<g id="node16" class="node">
<title>lambda</title>
<ellipse fill="none" stroke="black" cx="670.75" cy="-90" rx="44.69" ry="18"/>
<text text-anchor="middle" x="670.75" y="-86.3" font-family="Times,serif" font-size="14.00">lambda</text>
</g>
<!-- lambda&#45;&gt;function -->
<g id="edge18" class="edge">
<title>lambda&#45;&gt;function</title>
<path fill="none" stroke="black" d="M705.19,-78.3C713.2,-76.03 721.73,-73.78 729.75,-72 827,-50.38 942.04,-34.19 1008.87,-25.69"/>
<polygon fill="black" stroke="black" points="1009.68,-29.12 1019.17,-24.39 1008.81,-22.17 1009.68,-29.12"/>
</g>
<!-- boolean -->
<g id="node18" class="node">
<title>boolean</title>
<ellipse fill="none" stroke="black" cx="1531.75" cy="-234" rx="46.59" ry="18"/>
<text text-anchor="middle" x="1531.75" y="-230.3" font-family="Times,serif" font-size="14.00">boolean</text>
</g>
<!-- set&#45;&gt;boolean -->
<g id="edge44" class="edge">
<title>set&#45;&gt;boolean</title>
<path fill="none" stroke="black" d="M1531.75,-287.7C1531.75,-279.98 1531.75,-270.71 1531.75,-262.11"/>
<polygon fill="black" stroke="black" points="1535.25,-262.1 1531.75,-252.1 1528.25,-262.1 1535.25,-262.1"/>
</g>
<!-- constraint -->
<g id="node19" class="node">
<title>constraint</title>
<ellipse fill="none" stroke="black" cx="1531.75" cy="-162" rx="57.69" ry="18"/>
<text text-anchor="middle" x="1531.75" y="-158.3" font-family="Times,serif" font-size="14.00">constraint</text>
</g>
<!-- boolean&#45;&gt;constraint -->
<g id="edge21" class="edge">
<title>boolean&#45;&gt;constraint</title>
<path fill="none" stroke="black" d="M1531.75,-215.7C1531.75,-207.98 1531.75,-198.71 1531.75,-190.11"/>
<polygon fill="black" stroke="black" points="1535.25,-190.1 1531.75,-180.1 1528.25,-190.1 1535.25,-190.1"/>
</g>
<!-- optimization -->
<g id="node20" class="node">
<title>optimization</title>
<ellipse fill="none" stroke="black" cx="1488.75" cy="-90" rx="68.79" ry="18"/>
<text text-anchor="middle" x="1488.75" y="-86.3" font-family="Times,serif" font-size="14.00">optimization</text>
</g>
<!-- constraint&#45;&gt;optimization -->
<g id="edge22" class="edge">
<title>constraint&#45;&gt;optimization</title>
<path fill="none" stroke="black" d="M1521.34,-144.05C1516.34,-135.92 1510.25,-126 1504.68,-116.94"/>
<polygon fill="black" stroke="black" points="1507.58,-114.96 1499.36,-108.28 1501.61,-118.63 1507.58,-114.96"/>
</g>
<!-- optimization&#45;&gt;relation -->
<g id="edge55" class="edge">
<title>optimization&#45;&gt;relation</title>
<path fill="none" stroke="black" d="M1479.18,-108.11C1473.99,-118.23 1467.99,-131.48 1464.75,-144 1446,-216.44 1444.4,-305.4 1444.97,-349.5"/>
<polygon fill="black" stroke="black" points="1441.48,-349.77 1445.16,-359.71 1448.48,-349.65 1441.48,-349.77"/>
</g>
<!-- optimization&#45;&gt;function -->
<g id="edge56" class="edge">
<title>optimization&#45;&gt;function</title>
<path fill="none" stroke="black" d="M1438.49,-77.56C1429.28,-75.6 1419.74,-73.67 1410.75,-72 1308.59,-53.06 1188.55,-35.78 1120.09,-26.39"/>
<polygon fill="black" stroke="black" points="1120.34,-22.89 1109.96,-25.01 1119.4,-29.83 1120.34,-22.89"/>
</g>
<!-- dataflow -->
<g id="node21" class="node">
<title>dataflow</title>
<ellipse fill="none" stroke="black" cx="859.75" cy="-162" rx="50.09" ry="18"/>
<text text-anchor="middle" x="859.75" y="-158.3" font-family="Times,serif" font-size="14.00">dataflow</text>
</g>
<!-- block -->
<g id="node22" class="node">
<title>block</title>
<ellipse fill="none" stroke="black" cx="844.75" cy="-90" rx="35.19" ry="18"/>
<text text-anchor="middle" x="844.75" y="-86.3" font-family="Times,serif" font-size="14.00">block</text>
</g>
<!-- dataflow&#45;&gt;block -->
<g id="edge23" class="edge">
<title>dataflow&#45;&gt;block</title>
<path fill="none" stroke="black" d="M856.04,-143.7C854.39,-135.98 852.4,-126.71 850.56,-118.11"/>
<polygon fill="black" stroke="black" points="853.93,-117.15 848.41,-108.1 847.09,-118.62 853.93,-117.15"/>
</g>
<!-- block&#45;&gt;function -->
<g id="edge49" class="edge">
<title>block&#45;&gt;function</title>
<path fill="none" stroke="black" d="M871.62,-78.24C877.25,-76.1 883.17,-73.91 888.75,-72 931.92,-57.18 981.8,-42.38 1017.41,-32.19"/>
<polygon fill="black" stroke="black" points="1018.4,-35.55 1027.06,-29.45 1016.48,-28.82 1018.4,-35.55"/>
</g>
<!-- reactive -->
<g id="node23" class="node">
<title>reactive</title>
<ellipse fill="none" stroke="black" cx="551.75" cy="-162" rx="48.19" ry="18"/>
<text text-anchor="middle" x="551.75" y="-158.3" font-family="Times,serif" font-size="14.00">reactive</text>
</g>
<!-- reactive&#45;&gt;function -->
<g id="edge24" class="edge">
<title>reactive&#45;&gt;function</title>
<path fill="none" stroke="black" d="M527.71,-146.07C501.1,-127.76 464.69,-96.17 486.75,-72 521.29,-34.15 865.85,-22.99 1005.96,-20"/>
<polygon fill="black" stroke="black" points="1006.16,-23.5 1016.09,-19.79 1006.02,-16.5 1006.16,-23.5"/>
</g>
<!-- reactive&#45;&gt;command -->
<g id="edge25" class="edge">
<title>reactive&#45;&gt;command</title>
<path fill="none" stroke="black" d="M551.75,-143.7C551.75,-135.98 551.75,-126.71 551.75,-118.11"/>
<polygon fill="black" stroke="black" points="555.25,-118.1 551.75,-108.1 548.25,-118.1 555.25,-118.1"/>
</g>
<!-- query -->
<g id="node24" class="node">
<title>query</title>
<ellipse fill="none" stroke="black" cx="935.75" cy="-90" rx="37.89" ry="18"/>
<text text-anchor="middle" x="935.75" y="-86.3" font-family="Times,serif" font-size="14.00">query</text>
</g>
<!-- query&#45;&gt;function -->
<g id="edge26" class="edge">
<title>query&#45;&gt;function</title>
<path fill="none" stroke="black" d="M959.71,-76C979.3,-65.36 1007.3,-50.17 1029.46,-38.15"/>
<polygon fill="black" stroke="black" points="1031.13,-41.23 1038.25,-33.38 1027.79,-35.07 1031.13,-41.23"/>
</g>
<!-- differentiable -->
<g id="node25" class="node">
<title>differentiable</title>
<ellipse fill="none" stroke="black" cx="1064.75" cy="-90" rx="73.39" ry="18"/>
<text text-anchor="middle" x="1064.75" y="-86.3" font-family="Times,serif" font-size="14.00">differentiable</text>
</g>
<!-- differentiable&#45;&gt;function -->
<g id="edge27" class="edge">
<title>differentiable&#45;&gt;function</title>
<path fill="none" stroke="black" d="M1064.75,-71.7C1064.75,-63.98 1064.75,-54.71 1064.75,-46.11"/>
<polygon fill="black" stroke="black" points="1068.25,-46.1 1064.75,-36.1 1061.25,-46.1 1068.25,-46.1"/>
</g>
<!-- dynamic -->
<g id="node26" class="node">
<title>dynamic</title>
<ellipse fill="none" stroke="black" cx="1205.75" cy="-90" rx="50.09" ry="18"/>
<text text-anchor="middle" x="1205.75" y="-86.3" font-family="Times,serif" font-size="14.00">dynamic</text>
</g>
<!-- dynamic&#45;&gt;function -->
<g id="edge28" class="edge">
<title>dynamic&#45;&gt;function</title>
<path fill="none" stroke="black" d="M1177.55,-75C1155.84,-64.22 1125.64,-49.23 1101.95,-37.47"/>
<polygon fill="black" stroke="black" points="1103.41,-34.28 1092.89,-32.97 1100.29,-40.55 1103.41,-34.28"/>
</g>
<!-- event -->
<g id="node27" class="node">
<title>event</title>
<ellipse fill="none" stroke="black" cx="663.75" cy="-234" rx="36.29" ry="18"/>
<text text-anchor="middle" x="663.75" y="-230.3" font-family="Times,serif" font-size="14.00">event</text>
</g>
<!-- event&#45;&gt;function -->
<g id="edge29" class="edge">
<title>event&#45;&gt;function</title>
<path fill="none" stroke="black" d="M670.49,-216.06C684.78,-182.55 721.47,-107.96 777.75,-72 815.08,-48.14 935.36,-32.14 1007.83,-24.4"/>
<polygon fill="black" stroke="black" points="1008.57,-27.84 1018.15,-23.32 1007.84,-20.88 1008.57,-27.84"/>
</g>
<!-- event&#45;&gt;loop -->
<g id="edge30" class="edge">
<title>event&#45;&gt;loop</title>
<path fill="none" stroke="black" d="M635.64,-222.26C629.75,-220.11 623.57,-217.92 617.75,-216 563.67,-198.12 548.38,-199.17 494.75,-180 492.38,-179.16 489.96,-178.24 487.53,-177.3"/>
<polygon fill="black" stroke="black" points="488.84,-174.05 478.25,-173.53 486.21,-180.53 488.84,-174.05"/>
</g>
<!-- generic -->
<g id="node28" class="node">
<title>generic</title>
<ellipse fill="none" stroke="black" cx="1356.75" cy="-90" rx="45.49" ry="18"/>
<text text-anchor="middle" x="1356.75" y="-86.3" font-family="Times,serif" font-size="14.00">generic</text>
</g>
<!-- generic&#45;&gt;function -->
<g id="edge31" class="edge">
<title>generic&#45;&gt;function</title>
<path fill="none" stroke="black" d="M1321.58,-78.51C1313.76,-76.28 1305.49,-73.99 1297.75,-72 1235.62,-56 1163.52,-39.99 1116.17,-29.82"/>
<polygon fill="black" stroke="black" points="1116.68,-26.35 1106.16,-27.68 1115.21,-33.19 1116.68,-26.35"/>
</g>
<!-- mutable variable -->
<g id="node29" class="node">
<title>mutable variable</title>
<ellipse fill="none" stroke="black" cx="2300.75" cy="-90" rx="89.08" ry="18"/>
<text text-anchor="middle" x="2300.75" y="-86.3" font-family="Times,serif" font-size="14.00">mutable variable</text>
</g>
<!-- mutable variable&#45;&gt;function -->
<g id="edge33" class="edge">
<title>mutable variable&#45;&gt;function</title>
<path fill="none" stroke="black" d="M2238.7,-77.03C2226.81,-75.08 2214.42,-73.28 2202.75,-72 1791.36,-26.92 1292.2,-20.12 1123.59,-19.15"/>
<polygon fill="black" stroke="black" points="1123.46,-15.65 1113.44,-19.09 1123.42,-22.65 1123.46,-15.65"/>
</g>
<!-- procedure -->
<g id="node30" class="node">
<title>procedure</title>
<ellipse fill="none" stroke="black" cx="1633.75" cy="-90" rx="57.69" ry="18"/>
<text text-anchor="middle" x="1633.75" y="-86.3" font-family="Times,serif" font-size="14.00">procedure</text>
</g>
<!-- procedure&#45;&gt;function -->
<g id="edge34" class="edge">
<title>procedure&#45;&gt;function</title>
<path fill="none" stroke="black" d="M1592.13,-77.46C1583.77,-75.42 1575.02,-73.48 1566.75,-72 1407.3,-43.51 1216.43,-28.53 1122.61,-22.41"/>
<polygon fill="black" stroke="black" points="1122.68,-18.9 1112.48,-21.75 1122.23,-25.89 1122.68,-18.9"/>
</g>
<!-- attribute -->
<g id="node31" class="node">
<title>attribute</title>
<ellipse fill="none" stroke="black" cx="1761.75" cy="-90" rx="51.99" ry="18"/>
<text text-anchor="middle" x="1761.75" y="-86.3" font-family="Times,serif" font-size="14.00">attribute</text>
</g>
<!-- attribute&#45;&gt;function -->
<g id="edge35" class="edge">
<title>attribute&#45;&gt;function</title>
<path fill="none" stroke="black" d="M1724.26,-77.36C1716.54,-75.3 1708.43,-73.38 1700.75,-72 1490.55,-34.3 1236.37,-23.33 1123.57,-20.2"/>
<polygon fill="black" stroke="black" points="1123.51,-16.7 1113.42,-19.93 1123.33,-23.7 1123.51,-16.7"/>
</g>
<!-- macro -->
<g id="node32" class="node">
<title>macro</title>
<ellipse fill="none" stroke="black" cx="1871.75" cy="-90" rx="39.79" ry="18"/>
<text text-anchor="middle" x="1871.75" y="-86.3" font-family="Times,serif" font-size="14.00">macro</text>
</g>
<!-- macro&#45;&gt;function -->
<g id="edge36" class="edge">
<title>macro&#45;&gt;function</title>
<path fill="none" stroke="black" d="M1842.82,-77.55C1836.31,-75.37 1829.36,-73.35 1822.75,-72 1689.15,-44.66 1276.94,-26.91 1123.28,-21.09"/>
<polygon fill="black" stroke="black" points="1123.23,-17.59 1113.11,-20.71 1122.97,-24.58 1123.23,-17.59"/>
</g>
<!-- nondeterministic -->
<g id="node33" class="node">
<title>nondeterministic</title>
<ellipse fill="none" stroke="black" cx="1122.75" cy="-450" rx="89.88" ry="18"/>
<text text-anchor="middle" x="1122.75" y="-446.3" font-family="Times,serif" font-size="14.00">nondeterministic</text>
</g>
<!-- nondeterministic&#45;&gt;relation -->
<g id="edge37" class="edge">
<title>nondeterministic&#45;&gt;relation</title>
<path fill="none" stroke="black" d="M1181.24,-436.32C1242.64,-423.02 1338.12,-402.32 1396.01,-389.78"/>
<polygon fill="black" stroke="black" points="1396.98,-393.15 1406.02,-387.61 1395.5,-386.31 1396.98,-393.15"/>
</g>
<!-- parallel -->
<g id="node34" class="node">
<title>parallel</title>
<ellipse fill="none" stroke="black" cx="562.75" cy="-234" rx="46.29" ry="18"/>
<text text-anchor="middle" x="562.75" y="-230.3" font-family="Times,serif" font-size="14.00">parallel</text>
</g>
<!-- parallel&#45;&gt;concurrency -->
<g id="edge39" class="edge">
<title>parallel&#45;&gt;concurrency</title>
<path fill="none" stroke="black" d="M527.75,-222.06C490.95,-210.56 432.67,-192.35 390.55,-179.19"/>
<polygon fill="black" stroke="black" points="391.34,-175.77 380.75,-176.13 389.25,-182.45 391.34,-175.77"/>
</g>
<!-- parallel&#45;&gt;block -->
<g id="edge38" class="edge">
<title>parallel&#45;&gt;block</title>
<path fill="none" stroke="black" d="M589.79,-219.38C641.65,-193.27 754.97,-136.21 811.41,-107.78"/>
<polygon fill="black" stroke="black" points="813.26,-110.77 820.62,-103.15 810.11,-104.52 813.26,-110.77"/>
</g>
<!-- process -->
<g id="node35" class="node">
<title>process</title>
<ellipse fill="none" stroke="black" cx="195.75" cy="-234" rx="46.29" ry="18"/>
<text text-anchor="middle" x="195.75" y="-230.3" font-family="Times,serif" font-size="14.00">process</text>
</g>
<!-- process&#45;&gt;concurrency -->
<g id="edge40" class="edge">
<title>process&#45;&gt;concurrency</title>
<path fill="none" stroke="black" d="M223.32,-219.5C244.67,-209.05 274.55,-194.42 298.57,-182.67"/>
<polygon fill="black" stroke="black" points="300.34,-185.7 307.78,-178.16 297.26,-179.41 300.34,-185.7"/>
</g>
<!-- probabilistic -->
<g id="node36" class="node">
<title>probabilistic</title>
<ellipse fill="none" stroke="black" cx="1998.75" cy="-90" rx="68.79" ry="18"/>
<text text-anchor="middle" x="1998.75" y="-86.3" font-family="Times,serif" font-size="14.00">probabilistic</text>
</g>
<!-- probabilistic&#45;&gt;function -->
<g id="edge41" class="edge">
<title>probabilistic&#45;&gt;function</title>
<path fill="none" stroke="black" d="M1949.85,-77.15C1940.25,-75.16 1930.22,-73.32 1920.75,-72 1623.28,-30.62 1263.17,-21.55 1123.79,-19.56"/>
<polygon fill="black" stroke="black" points="1123.79,-16.06 1113.75,-19.42 1123.7,-23.06 1123.79,-16.06"/>
</g>
<!-- quantum -->
<g id="node37" class="node">
<title>quantum</title>
<ellipse fill="none" stroke="black" cx="1194.75" cy="-162" rx="51.99" ry="18"/>
<text text-anchor="middle" x="1194.75" y="-158.3" font-family="Times,serif" font-size="14.00">quantum</text>
</g>
<!-- quantum&#45;&gt;function -->
<g id="edge42" class="edge">
<title>quantum&#45;&gt;function</title>
<path fill="none" stroke="black" d="M1224.31,-146.97C1239.38,-138.1 1256.26,-125.06 1264.75,-108 1271.87,-93.67 1274.5,-84.68 1264.75,-72 1247.2,-49.2 1173.32,-34.18 1120.46,-26.14"/>
<polygon fill="black" stroke="black" points="1120.93,-22.67 1110.52,-24.67 1119.9,-29.59 1120.93,-22.67"/>
</g>
<!-- quantum&#45;&gt;block -->
<g id="edge43" class="edge">
<title>quantum&#45;&gt;block</title>
<path fill="none" stroke="black" d="M1146.13,-155.59C1085.22,-148.12 977.99,-132.71 888.75,-108 886.1,-107.27 883.39,-106.43 880.68,-105.54"/>
<polygon fill="black" stroke="black" points="881.58,-102.15 870.99,-102.11 879.25,-108.74 881.58,-102.15"/>
</g>
<!-- stack -->
<g id="node38" class="node">
<title>stack</title>
<ellipse fill="none" stroke="black" cx="2158.75" cy="-90" rx="35.19" ry="18"/>
<text text-anchor="middle" x="2158.75" y="-86.3" font-family="Times,serif" font-size="14.00">stack</text>
</g>
<!-- stack&#45;&gt;function -->
<g id="edge45" class="edge">
<title>stack&#45;&gt;function</title>
<path fill="none" stroke="black" d="M2131.91,-78.16C2124.81,-75.72 2117.08,-73.43 2109.75,-72 1918.68,-34.8 1315.18,-22.74 1123.67,-19.8"/>
<polygon fill="black" stroke="black" points="1123.57,-16.3 1113.52,-19.65 1123.47,-23.3 1123.57,-16.3"/>
</g>
<!-- recursion&#45;&gt;function -->
<g id="edge52" class="edge">
<title>recursion&#45;&gt;function</title>
<path fill="none" stroke="black" d="M425.39,-77.88C434.66,-75.65 444.5,-73.53 453.75,-72 654.98,-38.69 897.19,-25.55 1006.36,-21.05"/>
<polygon fill="black" stroke="black" points="1006.65,-24.54 1016.51,-20.64 1006.37,-17.55 1006.65,-24.54"/>
</g>
<!-- conditional -->
<g id="node40" class="node">
<title>conditional</title>
<ellipse fill="none" stroke="black" cx="2469.75" cy="-90" rx="61.99" ry="18"/>
<text text-anchor="middle" x="2469.75" y="-86.3" font-family="Times,serif" font-size="14.00">conditional</text>
</g>
<!-- conditional&#45;&gt;function -->
<g id="edge48" class="edge">
<title>conditional&#45;&gt;function</title>
<path fill="none" stroke="black" d="M2426.07,-77.13C2417.09,-75.09 2407.66,-73.23 2398.75,-72 2147.03,-37.2 1347.85,-23.13 1123.71,-19.81"/>
<polygon fill="black" stroke="black" points="1123.52,-16.31 1113.47,-19.66 1123.42,-23.31 1123.52,-16.31"/>
</g>
<!-- object -->
<g id="node41" class="node">
<title>object</title>
<ellipse fill="none" stroke="black" cx="2300.75" cy="-162" rx="38.99" ry="18"/>
<text text-anchor="middle" x="2300.75" y="-158.3" font-family="Times,serif" font-size="14.00">object</text>
</g>
<!-- object&#45;&gt;mutable variable -->
<g id="edge50" class="edge">
<title>object&#45;&gt;mutable variable</title>
<path fill="none" stroke="black" d="M2300.75,-143.7C2300.75,-135.98 2300.75,-126.71 2300.75,-118.11"/>
<polygon fill="black" stroke="black" points="2304.25,-118.1 2300.75,-108.1 2297.25,-118.1 2304.25,-118.1"/>
</g>
<!-- class -->
<g id="node42" class="node">
<title>class</title>
<ellipse fill="none" stroke="black" cx="1876.75" cy="-450" rx="33.6" ry="18"/>
<text text-anchor="middle" x="1876.75" y="-446.3" font-family="Times,serif" font-size="14.00">class</text>
</g>
<!-- type -->
<g id="node43" class="node">
<title>type</title>
<ellipse fill="none" stroke="black" cx="1709.75" cy="-378" rx="31.4" ry="18"/>
<text text-anchor="middle" x="1709.75" y="-374.3" font-family="Times,serif" font-size="14.00">type</text>
</g>
<!-- class&#45;&gt;type -->
<g id="edge51" class="edge">
<title>class&#45;&gt;type</title>
<path fill="none" stroke="black" d="M1851.02,-438.22C1822.16,-426.12 1775.26,-406.46 1743.48,-393.14"/>
<polygon fill="black" stroke="black" points="1744.72,-389.86 1734.14,-389.23 1742.01,-396.32 1744.72,-389.86"/>
</g>
<!-- type&#45;&gt;set -->
<g id="edge53" class="edge">
<title>type&#45;&gt;set</title>
<path fill="none" stroke="black" d="M1684.62,-367.12C1653.05,-354.7 1598.8,-333.37 1564.14,-319.74"/>
<polygon fill="black" stroke="black" points="1565.08,-316.35 1554.49,-315.94 1562.52,-322.86 1565.08,-316.35"/>
</g>
<!-- term rewriting -->
<g id="node44" class="node">
<title>term rewriting</title>
<ellipse fill="none" stroke="black" cx="1309.75" cy="-450" rx="79.09" ry="18"/>
<text text-anchor="middle" x="1309.75" y="-446.3" font-family="Times,serif" font-size="14.00">term rewriting</text>
</g>
<!-- term rewriting&#45;&gt;relation -->
<g id="edge54" class="edge">
<title>term rewriting&#45;&gt;relation</title>
<path fill="none" stroke="black" d="M1340.27,-433.29C1360.83,-422.71 1388.03,-408.71 1409.66,-397.57"/>
<polygon fill="black" stroke="black" points="1411.27,-400.68 1418.55,-393 1408.06,-394.46 1411.27,-400.68"/>
</g>
</g>
</svg>
