<?xml version="1.0" encoding="UTF-8" standalone="no"?>
<!DOCTYPE svg PUBLIC "-//W3C//DTD SVG 1.1//EN"
 "http://www.w3.org/Graphics/SVG/1.1/DTD/svg11.dtd">
<!-- Generated by graphviz version 2.40.1 (20161225.0304)
 -->
<!-- Title: %3 Pages: 1 -->
<svg width="316pt" height="964pt"
 viewBox="0.00 0.00 316.00 963.80" xmlns="http://www.w3.org/2000/svg" xmlns:xlink="http://www.w3.org/1999/xlink">
<g id="graph0" class="graph" transform="scale(1 1) rotate(0) translate(4 959.7958)">
<title>%3</title>
<polygon fill="#ffffff" stroke="transparent" points="-4,4 -4,-959.7958 312,-959.7958 312,4 -4,4"/>
<!-- Root -->
<g id="node1" class="node">
<title>Root</title>
<ellipse fill="none" stroke="#000000" cx="201" cy="-937.7958" rx="27.8951" ry="18"/>
<text text-anchor="middle" x="201" y="-934.0958" font-family="Times,serif" font-size="14.00" fill="#000000">Root</text>
</g>
<!-- c1b -->
<g id="node2" class="node">
<title>c1b</title>
<ellipse fill="none" stroke="#000000" cx="166" cy="-864.7958" rx="27" ry="18"/>
<text text-anchor="middle" x="166" y="-861.0958" font-family="Times,serif" font-size="14.00" fill="#000000">Cut</text>
</g>
<!-- Root&#45;&gt;c1b -->
<g id="edge1" class="edge">
<title>Root&#45;&gt;c1b</title>
<path fill="none" stroke="#000000" d="M192.7055,-920.4959C188.521,-911.7683 183.3549,-900.9933 178.6849,-891.2529"/>
<polygon fill="#000000" stroke="#000000" points="181.7143,-889.4756 174.235,-881.9716 175.4023,-892.502 181.7143,-889.4756"/>
</g>
<!-- d1 -->
<g id="node5" class="node">
<title>d1</title>
<ellipse fill="none" stroke="#000000" cx="227" cy="-608.3979" rx="27" ry="18"/>
<text text-anchor="middle" x="227" y="-604.6979" font-family="Times,serif" font-size="14.00" fill="#000000">Dup</text>
</g>
<!-- Root&#45;&gt;d1 -->
<g id="edge5" class="edge">
<title>Root&#45;&gt;d1</title>
<path fill="none" stroke="#ff0000" d="M211.4262,-921.0858C219.387,-906.7197 229,-885.1567 229,-864.7958 229,-864.7958 229,-864.7958 229,-690.7958 229,-672.7749 228.516,-652.5436 228.0242,-636.6378"/>
<polygon fill="#ff0000" stroke="#ff0000" points="231.5143,-636.2774 227.6883,-626.3975 224.5181,-636.5069 231.5143,-636.2774"/>
<text text-anchor="middle" x="242.5" y="-774.0958" font-family="Times,serif" font-size="14.00" fill="#000000">0&#45;&gt;1</text>
</g>
<!-- c2b -->
<g id="node4" class="node">
<title>c2b</title>
<ellipse fill="none" stroke="#000000" cx="155" cy="-608.3979" rx="23.3111" ry="23.3111"/>
<ellipse fill="none" stroke="#000000" cx="155" cy="-608.3979" rx="27.2962" ry="27.2962"/>
<text text-anchor="middle" x="155" y="-604.6979" font-family="Times,serif" font-size="14.00" fill="#000000">Cut</text>
</g>
<!-- c1b&#45;&gt;c2b -->
<g id="edge3" class="edge">
<title>c1b&#45;&gt;c2b</title>
<path fill="none" stroke="#000000" d="M165.7149,-846.784C165.1146,-812.7642 163.4792,-736.7325 160,-672.7958 159.527,-664.104 158.8811,-654.7622 158.2107,-645.9639"/>
<polygon fill="#000000" stroke="#000000" points="161.697,-645.6503 157.4213,-635.9566 154.7186,-646.2009 161.697,-645.6503"/>
</g>
<!-- d2 -->
<g id="node6" class="node">
<title>d2</title>
<ellipse fill="none" stroke="#000000" cx="83" cy="-608.3979" rx="27" ry="18"/>
<text text-anchor="middle" x="83" y="-604.6979" font-family="Times,serif" font-size="14.00" fill="#000000">Dup</text>
</g>
<!-- c1b&#45;&gt;d2 -->
<g id="edge9" class="edge">
<title>c1b&#45;&gt;d2</title>
<path fill="none" stroke="#0000ff" d="M145.0524,-853.1354C126.2822,-841.3858 99.9268,-821.3544 88,-795.7958 63.6577,-743.6316 70.565,-674.0944 77.1607,-636.0908"/>
<polygon fill="#0000ff" stroke="#0000ff" points="80.6038,-636.7193 78.9866,-626.2486 73.7212,-635.4424 80.6038,-636.7193"/>
<text text-anchor="middle" x="77.5" y="-730.5958" font-family="Times,serif" font-size="14.00" fill="#000000">1</text>
</g>
<!-- fpa -->
<g id="node9" class="node">
<title>fpa</title>
<ellipse fill="none" stroke="#000000" cx="124" cy="-777.7958" rx="27" ry="18"/>
<text text-anchor="middle" x="124" y="-774.0958" font-family="Times,serif" font-size="14.00" fill="#000000">!p</text>
</g>
<!-- c1b&#45;&gt;fpa -->
<g id="edge8" class="edge">
<title>c1b&#45;&gt;fpa</title>
<path fill="none" stroke="#ff0000" d="M157.7022,-847.6074C151.7196,-835.215 143.5339,-818.2589 136.728,-804.1609"/>
<polygon fill="#ff0000" stroke="#ff0000" points="139.7801,-802.4324 132.2806,-794.9485 133.4762,-805.4757 139.7801,-802.4324"/>
<text text-anchor="middle" x="150.5" y="-817.5958" font-family="Times,serif" font-size="14.00" fill="#000000">0</text>
</g>
<!-- fa -->
<g id="node3" class="node">
<title>fa</title>
<ellipse fill="none" stroke="#000000" cx="124" cy="-690.7958" rx="27" ry="18"/>
<text text-anchor="middle" x="124" y="-687.0958" font-family="Times,serif" font-size="14.00" fill="#000000">PiR</text>
</g>
<!-- fa&#45;&gt;c2b -->
<g id="edge2" class="edge">
<title>fa&#45;&gt;c2b</title>
<path fill="none" stroke="#000000" d="M130.5743,-673.3214C133.8068,-664.7295 137.8249,-654.0494 141.6626,-643.8488"/>
<polygon fill="#000000" stroke="#000000" points="145.0097,-644.8915 145.2552,-634.2995 138.458,-642.4266 145.0097,-644.8915"/>
</g>
<!-- fa&#45;&gt;d1 -->
<g id="edge12" class="edge">
<title>fa&#45;&gt;d1</title>
<path fill="none" stroke="#ff0000" d="M141.4725,-676.8182C158.3414,-663.3235 184.0263,-642.776 202.8473,-627.7196"/>
<ellipse fill="none" stroke="#ff0000" cx="206.3182" cy="-624.9429" rx="4" ry="4"/>
</g>
<!-- fa&#45;&gt;d2 -->
<g id="edge11" class="edge">
<title>fa&#45;&gt;d2</title>
<path fill="none" stroke="#0000ff" d="M115.305,-673.3214C109.4493,-661.5533 101.6444,-645.8677 95.1732,-632.8624"/>
<ellipse fill="none" stroke="#0000ff" cx="93.3239" cy="-629.1458" rx="4" ry="4"/>
</g>
<!-- hi_retp -->
<g id="node8" class="node">
<title>hi_retp</title>
<ellipse fill="none" stroke="#000000" cx="112" cy="-512" rx="27" ry="18"/>
<text text-anchor="middle" x="112" y="-508.3" font-family="Times,serif" font-size="14.00" fill="#000000">!p</text>
</g>
<!-- c2b&#45;&gt;hi_retp -->
<g id="edge13" class="edge">
<title>c2b&#45;&gt;hi_retp</title>
<path fill="none" stroke="#ff0000" d="M143.8145,-583.3221C137.7272,-569.6756 130.1942,-552.788 123.9866,-538.8717"/>
<polygon fill="#ff0000" stroke="#ff0000" points="127.0105,-537.0591 119.7403,-529.3523 120.6177,-539.9108 127.0105,-537.0591"/>
<text text-anchor="middle" x="136.5" y="-551.8" font-family="Times,serif" font-size="14.00" fill="#000000">1</text>
</g>
<!-- x_o2 -->
<g id="node10" class="node">
<title>x_o2</title>
<ellipse fill="none" stroke="#000000" cx="227" cy="-512" rx="27" ry="18"/>
<text text-anchor="middle" x="227" y="-508.3" font-family="Times,serif" font-size="14.00" fill="#000000">!c</text>
</g>
<!-- c2b&#45;&gt;x_o2 -->
<g id="edge14" class="edge">
<title>c2b&#45;&gt;x_o2</title>
<path fill="none" stroke="#0000ff" d="M171.6992,-586.04C182.7423,-571.2549 197.2254,-551.864 208.5997,-536.6355"/>
<polygon fill="#0000ff" stroke="#0000ff" points="211.7079,-538.3227 214.8879,-528.2164 206.0996,-534.1338 211.7079,-538.3227"/>
<text text-anchor="middle" x="202.5" y="-551.8" font-family="Times,serif" font-size="14.00" fill="#000000">1</text>
</g>
<!-- d1&#45;&gt;d2 -->
<g id="edge4" class="edge">
<title>d1&#45;&gt;d2</title>
<path fill="none" stroke="#000000" stroke-dasharray="5,2" d="M215.8302,-625.3242C207.8182,-635.8325 195.9926,-648.4188 182,-654.2958 159.8725,-663.5897 150.1275,-663.5897 128,-654.2958 114.0074,-648.4188 102.1818,-635.8325 94.1698,-625.3242"/>
</g>
<!-- f_ret -->
<g id="node7" class="node">
<title>f_ret</title>
<ellipse fill="none" stroke="#000000" cx="207" cy="-251" rx="27" ry="18"/>
<text text-anchor="middle" x="207" y="-247.3" font-family="Times,serif" font-size="14.00" fill="#000000">I</text>
</g>
<!-- d1&#45;&gt;f_ret -->
<g id="edge6" class="edge">
<title>d1&#45;&gt;f_ret</title>
<path fill="none" stroke="#ff0000" d="M211.0816,-593.732C202.8737,-585.4126 193.2923,-574.4049 187,-563 175.5865,-542.3129 172,-535.6267 172,-512 172,-512 172,-512 172,-338 172,-316.0212 181.7332,-293.0292 190.9341,-276.2047"/>
<polygon fill="#ff0000" stroke="#ff0000" points="193.9677,-277.9503 195.9258,-267.5379 187.9019,-274.4566 193.9677,-277.9503"/>
</g>
<!-- d2&#45;&gt;hi_retp -->
<g id="edge7" class="edge">
<title>d2&#45;&gt;hi_retp</title>
<path fill="none" stroke="#0000ff" d="M88.319,-590.7171C92.6252,-576.4033 98.7664,-555.9894 103.7158,-539.5371"/>
<polygon fill="#0000ff" stroke="#0000ff" points="107.0872,-540.4796 106.6165,-529.8952 100.3839,-538.463 107.0872,-540.4796"/>
<text text-anchor="middle" x="103.5" y="-551.8" font-family="Times,serif" font-size="14.00" fill="#000000">1</text>
</g>
<!-- hi_ret -->
<g id="node14" class="node">
<title>hi_ret</title>
<ellipse fill="none" stroke="#000000" cx="126" cy="-251" rx="27" ry="18"/>
<text text-anchor="middle" x="126" y="-247.3" font-family="Times,serif" font-size="14.00" fill="#000000">I</text>
</g>
<!-- hi_retp&#45;&gt;hi_ret -->
<g id="edge20" class="edge">
<title>hi_retp&#45;&gt;hi_ret</title>
<path fill="none" stroke="#ff0000" d="M112.9845,-493.647C115.3893,-448.8139 121.5768,-333.4607 124.4683,-279.5557"/>
<polygon fill="#ff0000" stroke="#ff0000" points="127.9759,-279.5059 125.0166,-269.3327 120.9859,-279.1309 127.9759,-279.5059"/>
<text text-anchor="middle" x="122.5" y="-377.8" font-family="Times,serif" font-size="14.00" fill="#000000">2</text>
</g>
<!-- h_di -->
<g id="node15" class="node">
<title>h_di</title>
<ellipse fill="none" stroke="#000000" cx="71" cy="-425" rx="27" ry="18"/>
<text text-anchor="middle" x="71" y="-421.3" font-family="Times,serif" font-size="14.00" fill="#000000">!d</text>
</g>
<!-- hi_retp&#45;&gt;h_di -->
<g id="edge21" class="edge">
<title>hi_retp&#45;&gt;h_di</title>
<path fill="none" stroke="#0000ff" d="M103.8997,-494.8116C98.0975,-482.4996 90.1725,-465.6831 83.5545,-451.64"/>
<polygon fill="#0000ff" stroke="#0000ff" points="86.6529,-450.0043 79.2238,-442.4505 80.3208,-452.9884 86.6529,-450.0043"/>
<text text-anchor="middle" x="96.5" y="-464.8" font-family="Times,serif" font-size="14.00" fill="#000000">1</text>
</g>
<!-- fpa&#45;&gt;fa -->
<g id="edge10" class="edge">
<title>fpa&#45;&gt;fa</title>
<path fill="none" stroke="#ff0000" d="M124,-759.7694C124,-747.9876 124,-732.3565 124,-718.9539"/>
<polygon fill="#ff0000" stroke="#ff0000" points="127.5001,-718.7992 124,-708.7992 120.5001,-718.7992 127.5001,-718.7992"/>
<text text-anchor="middle" x="127.5" y="-730.5958" font-family="Times,serif" font-size="14.00" fill="#000000">1</text>
</g>
<!-- x1_o2 -->
<g id="node11" class="node">
<title>x1_o2</title>
<ellipse fill="none" stroke="#000000" cx="281" cy="-251" rx="27" ry="18"/>
<text text-anchor="middle" x="281" y="-247.3" font-family="Times,serif" font-size="14.00" fill="#000000">I</text>
</g>
<!-- x_o2&#45;&gt;x1_o2 -->
<g id="edge15" class="edge">
<title>x_o2&#45;&gt;x1_o2</title>
<path fill="none" stroke="#0000ff" d="M237.9619,-495.4852C246.339,-481.9722 257.3741,-462.0486 263,-443 279.6149,-386.7445 281.9186,-317.5589 281.7178,-279.4916"/>
<polygon fill="#0000ff" stroke="#0000ff" points="285.2139,-279.1286 281.5965,-269.1705 278.2144,-279.211 285.2139,-279.1286"/>
</g>
<!-- x2_o2 -->
<g id="node12" class="node">
<title>x2_o2</title>
<ellipse fill="none" stroke="#000000" cx="227" cy="-425" rx="27" ry="18"/>
<text text-anchor="middle" x="227" y="-421.3" font-family="Times,serif" font-size="14.00" fill="#000000">!d</text>
</g>
<!-- x_o2&#45;&gt;x2_o2 -->
<g id="edge16" class="edge">
<title>x_o2&#45;&gt;x2_o2</title>
<path fill="none" stroke="#0000ff" d="M227,-493.9735C227,-482.1918 227,-466.5607 227,-453.1581"/>
<polygon fill="#0000ff" stroke="#0000ff" points="230.5001,-453.0033 227,-443.0034 223.5001,-453.0034 230.5001,-453.0033"/>
</g>
<!-- x2i_o2 -->
<g id="node13" class="node">
<title>x2i_o2</title>
<ellipse fill="none" stroke="#000000" cx="227" cy="-338" rx="27" ry="18"/>
<text text-anchor="middle" x="227" y="-334.3" font-family="Times,serif" font-size="14.00" fill="#000000">PiL</text>
</g>
<!-- x2_o2&#45;&gt;x2i_o2 -->
<g id="edge17" class="edge">
<title>x2_o2&#45;&gt;x2i_o2</title>
<path fill="none" stroke="#0000ff" d="M227,-406.9735C227,-395.1918 227,-379.5607 227,-366.1581"/>
<polygon fill="#0000ff" stroke="#0000ff" points="230.5001,-366.0033 227,-356.0034 223.5001,-366.0034 230.5001,-366.0033"/>
</g>
<!-- x2i_o2&#45;&gt;f_ret -->
<g id="edge19" class="edge">
<title>x2i_o2&#45;&gt;f_ret</title>
<path fill="none" stroke="#0000ff" d="M222.856,-319.9735C220.1207,-308.0751 216.4829,-292.2508 213.3818,-278.7606"/>
<polygon fill="#0000ff" stroke="#0000ff" points="216.7902,-277.965 211.1387,-269.0034 209.9682,-279.5333 216.7902,-277.965"/>
</g>
<!-- x2i_o2&#45;&gt;x1_o2 -->
<g id="edge18" class="edge">
<title>x2i_o2&#45;&gt;x1_o2</title>
<path fill="none" stroke="#ff0000" d="M237.4117,-321.2255C245.3304,-308.4677 256.3571,-290.7024 265.3385,-276.2325"/>
<polygon fill="#ff0000" stroke="#ff0000" points="268.3203,-278.0652 270.6202,-267.723 262.3728,-274.3736 268.3203,-278.0652"/>
</g>
<!-- h -->
<g id="node16" class="node">
<title>h</title>
<ellipse fill="none" stroke="#000000" cx="71" cy="-338" rx="27" ry="18"/>
<text text-anchor="middle" x="71" y="-334.3" font-family="Times,serif" font-size="14.00" fill="#000000">PiL</text>
</g>
<!-- h_di&#45;&gt;h -->
<g id="edge22" class="edge">
<title>h_di&#45;&gt;h</title>
<path fill="none" stroke="#0000ff" d="M71,-406.9735C71,-395.1918 71,-379.5607 71,-366.1581"/>
<polygon fill="#0000ff" stroke="#0000ff" points="74.5001,-366.0033 71,-356.0034 67.5001,-366.0034 74.5001,-366.0033"/>
<text text-anchor="middle" x="74.5" y="-377.8" font-family="Times,serif" font-size="14.00" fill="#000000">2</text>
</g>
<!-- h&#45;&gt;hi_ret -->
<g id="edge28" class="edge">
<title>h&#45;&gt;hi_ret</title>
<path fill="none" stroke="#0000ff" d="M81.6046,-321.2255C89.6699,-308.4677 100.9008,-290.7024 110.0484,-276.2325"/>
<polygon fill="#0000ff" stroke="#0000ff" points="113.0428,-278.0458 115.428,-267.723 107.126,-274.3053 113.0428,-278.0458"/>
</g>
<!-- i -->
<g id="node17" class="node">
<title>i</title>
<ellipse fill="none" stroke="#000000" cx="54" cy="-251" rx="27" ry="18"/>
<text text-anchor="middle" x="54" y="-247.3" font-family="Times,serif" font-size="14.00" fill="#000000">!p</text>
</g>
<!-- h&#45;&gt;i -->
<g id="edge27" class="edge">
<title>h&#45;&gt;i</title>
<path fill="none" stroke="#ff0000" d="M67.4776,-319.9735C65.1754,-308.1918 62.121,-292.5607 59.5022,-279.1581"/>
<polygon fill="#ff0000" stroke="#ff0000" points="62.8708,-278.1465 57.5179,-269.0034 56.0007,-279.489 62.8708,-278.1465"/>
<text text-anchor="middle" x="67.5" y="-290.8" font-family="Times,serif" font-size="14.00" fill="#000000">2</text>
</g>
<!-- i_i -->
<g id="node18" class="node">
<title>i_i</title>
<ellipse fill="none" stroke="#000000" cx="54" cy="-164" rx="27" ry="18"/>
<text text-anchor="middle" x="54" y="-160.3" font-family="Times,serif" font-size="14.00" fill="#000000">PiR</text>
</g>
<!-- i&#45;&gt;i_i -->
<g id="edge23" class="edge">
<title>i&#45;&gt;i_i</title>
<path fill="none" stroke="#ff0000" d="M54,-232.9735C54,-221.1918 54,-205.5607 54,-192.1581"/>
<polygon fill="#ff0000" stroke="#ff0000" points="57.5001,-192.0033 54,-182.0034 50.5001,-192.0034 57.5001,-192.0033"/>
<text text-anchor="middle" x="57.5" y="-203.8" font-family="Times,serif" font-size="14.00" fill="#000000">3</text>
</g>
<!-- il -->
<g id="node19" class="node">
<title>il</title>
<ellipse fill="none" stroke="#000000" cx="27" cy="-91" rx="27" ry="18"/>
<text text-anchor="middle" x="27" y="-87.3" font-family="Times,serif" font-size="14.00" fill="#000000">!d</text>
</g>
<!-- i_i&#45;&gt;il -->
<g id="edge24" class="edge">
<title>i_i&#45;&gt;il</title>
<path fill="none" stroke="#0000ff" d="M47.4641,-146.3287C44.3134,-137.8103 40.4659,-127.4078 36.9608,-117.9312"/>
<polygon fill="#0000ff" stroke="#0000ff" points="40.2274,-116.6734 33.4758,-108.5085 33.6621,-119.1017 40.2274,-116.6734"/>
</g>
<!-- i_ret -->
<g id="node20" class="node">
<title>i_ret</title>
<ellipse fill="none" stroke="#000000" cx="54" cy="-18" rx="27" ry="18"/>
<text text-anchor="middle" x="54" y="-14.3" font-family="Times,serif" font-size="14.00" fill="#000000">I</text>
</g>
<!-- i_i&#45;&gt;i_ret -->
<g id="edge25" class="edge">
<title>i_i&#45;&gt;i_ret</title>
<path fill="none" stroke="#ff0000" d="M57.7475,-145.7581C59.7467,-135.0941 61.9967,-121.3441 63,-109 64.2962,-93.0526 64.2962,-88.9474 63,-73 62.2867,-64.2241 60.9433,-54.7377 59.5079,-46.1547"/>
<polygon fill="#ff0000" stroke="#ff0000" points="62.9422,-45.4759 57.7475,-36.2419 56.05,-46.6999 62.9422,-45.4759"/>
</g>
<!-- il&#45;&gt;i_ret -->
<g id="edge26" class="edge">
<title>il&#45;&gt;i_ret</title>
<path fill="none" stroke="#0000ff" d="M33.5359,-73.3287C36.6866,-64.8103 40.5341,-54.4078 44.0392,-44.9312"/>
<polygon fill="#0000ff" stroke="#0000ff" points="47.3379,-46.1017 47.5242,-35.5085 40.7726,-43.6734 47.3379,-46.1017"/>
</g>
</g>
</svg>
