<?xml version="1.0" encoding="UTF-8" standalone="no"?>
<!DOCTYPE svg PUBLIC "-//W3C//DTD SVG 1.1//EN"
 "http://www.w3.org/Graphics/SVG/1.1/DTD/svg11.dtd">
<!-- Generated by graphviz version 2.43.0 (0)
 -->
<!-- Title: %3 Pages: 1 -->
<svg width="379pt" height="620pt"
 viewBox="0.00 0.00 379.00 620.00" xmlns="http://www.w3.org/2000/svg" xmlns:xlink="http://www.w3.org/1999/xlink">
<g id="graph0" class="graph" transform="scale(1 1) rotate(0) translate(4 616)">
<title>%3</title>
<polygon fill="white" stroke="transparent" points="-4,4 -4,-616 375,-616 375,4 -4,4"/>
<!-- Root -->
<g id="node1" class="node">
<title>Root</title>
<ellipse fill="none" stroke="black" cx="104" cy="-378" rx="32.49" ry="18"/>
<text text-anchor="middle" x="104" y="-374.3" font-family="Times,serif" font-size="14.00">Root</text>
</g>
<!-- ret -->
<g id="node2" class="node">
<title>ret</title>
<ellipse fill="none" stroke="black" cx="115" cy="-306" rx="27" ry="18"/>
<text text-anchor="middle" x="115" y="-302.3" font-family="Times,serif" font-size="14.00">I</text>
</g>
<!-- Root&#45;&gt;ret -->
<g id="edge1" class="edge">
<title>Root&#45;&gt;ret</title>
<path fill="none" stroke="red" d="M106.66,-360.05C107.87,-352.35 109.34,-343.03 110.7,-334.36"/>
<polygon fill="red" stroke="red" points="114.19,-334.7 112.29,-324.28 107.28,-333.61 114.19,-334.7"/>
</g>
<!-- y -->
<g id="node16" class="node">
<title>y</title>
<ellipse fill="none" stroke="black" cx="192" cy="-306" rx="27" ry="18"/>
<text text-anchor="middle" x="192" y="-302.3" font-family="Times,serif" font-size="14.00">PiL</text>
</g>
<!-- Root&#45;&gt;y -->
<g id="edge21" class="edge">
<title>Root&#45;&gt;y</title>
<path fill="none" stroke="red" d="M129.96,-356.35C144.55,-344.74 162.33,-330.6 175.11,-320.43"/>
<polygon fill="red" stroke="red" points="127.46,-353.87 121.81,-362.83 131.81,-359.35 127.46,-353.87"/>
</g>
<!-- c2 -->
<g id="node3" class="node">
<title>c2</title>
<ellipse fill="none" stroke="black" cx="299" cy="-594" rx="27.1" ry="18"/>
<text text-anchor="middle" x="299" y="-590.3" font-family="Times,serif" font-size="14.00">Cut</text>
</g>
<!-- x23_f2 -->
<g id="node4" class="node">
<title>x23_f2</title>
<ellipse fill="none" stroke="black" cx="336" cy="-450" rx="27" ry="18"/>
<text text-anchor="middle" x="336" y="-446.3" font-family="Times,serif" font-size="14.00">!c</text>
</g>
<!-- c2&#45;&gt;x23_f2 -->
<g id="edge2" class="edge">
<title>c2&#45;&gt;x23_f2</title>
<path fill="none" stroke="blue" d="M305.18,-576.45C308.91,-566.07 313.59,-552.37 317,-540 322.63,-519.57 327.58,-496.11 331.01,-478.4"/>
<polygon fill="blue" stroke="blue" points="334.52,-478.68 332.95,-468.21 327.64,-477.38 334.52,-478.68"/>
</g>
<!-- g2b -->
<g id="node5" class="node">
<title>g2b</title>
<ellipse fill="none" stroke="black" cx="281" cy="-522" rx="27" ry="18"/>
<text text-anchor="middle" x="281" y="-518.3" font-family="Times,serif" font-size="14.00">!</text>
</g>
<!-- c2&#45;&gt;g2b -->
<g id="edge3" class="edge">
<title>c2&#45;&gt;g2b</title>
<path fill="none" stroke="red" d="M294.64,-576.05C292.61,-568.14 290.14,-558.54 287.86,-549.69"/>
<polygon fill="red" stroke="red" points="291.2,-548.6 285.32,-539.79 284.42,-550.35 291.2,-548.6"/>
</g>
<!-- x2_f2 -->
<g id="node10" class="node">
<title>x2_f2</title>
<ellipse fill="none" stroke="black" cx="325" cy="-378" rx="27" ry="18"/>
<text text-anchor="middle" x="325" y="-374.3" font-family="Times,serif" font-size="14.00">I</text>
</g>
<!-- x23_f2&#45;&gt;x2_f2 -->
<g id="edge7" class="edge">
<title>x23_f2&#45;&gt;x2_f2</title>
<path fill="none" stroke="blue" d="M333.34,-432.05C332.13,-424.35 330.66,-415.03 329.3,-406.36"/>
<polygon fill="blue" stroke="blue" points="332.72,-405.61 327.71,-396.28 325.81,-406.7 332.72,-405.61"/>
</g>
<!-- x3_f2 -->
<g id="node11" class="node">
<title>x3_f2</title>
<ellipse fill="none" stroke="black" cx="344" cy="-306" rx="27" ry="18"/>
<text text-anchor="middle" x="344" y="-302.3" font-family="Times,serif" font-size="14.00">I</text>
</g>
<!-- x23_f2&#45;&gt;x3_f2 -->
<g id="edge8" class="edge">
<title>x23_f2&#45;&gt;x3_f2</title>
<path fill="none" stroke="blue" d="M345.85,-432.97C351.51,-422.79 358.06,-409.1 361,-396 365.74,-374.86 360.46,-350.7 354.56,-332.9"/>
<polygon fill="blue" stroke="blue" points="357.86,-331.71 351.19,-323.47 351.26,-334.06 357.86,-331.71"/>
</g>
<!-- d1 -->
<g id="node8" class="node">
<title>d1</title>
<ellipse fill="none" stroke="black" cx="254" cy="-450" rx="29.8" ry="18"/>
<text text-anchor="middle" x="254" y="-446.3" font-family="Times,serif" font-size="14.00">Dup</text>
</g>
<!-- g2b&#45;&gt;d1 -->
<g id="edge17" class="edge">
<title>g2b&#45;&gt;d1</title>
<path fill="none" stroke="red" d="M274.6,-504.41C271.49,-496.34 267.67,-486.43 264.17,-477.35"/>
<polygon fill="red" stroke="red" points="267.4,-476.03 260.54,-467.96 260.87,-478.55 267.4,-476.03"/>
</g>
<!-- c1 -->
<g id="node6" class="node">
<title>c1</title>
<ellipse fill="none" stroke="black" cx="208" cy="-594" rx="27.1" ry="18"/>
<text text-anchor="middle" x="208" y="-590.3" font-family="Times,serif" font-size="14.00">Cut</text>
</g>
<!-- x1i_f2 -->
<g id="node7" class="node">
<title>x1i_f2</title>
<ellipse fill="none" stroke="black" cx="171" cy="-522" rx="27" ry="18"/>
<text text-anchor="middle" x="171" y="-518.3" font-family="Times,serif" font-size="14.00">PiL</text>
</g>
<!-- c1&#45;&gt;x1i_f2 -->
<g id="edge4" class="edge">
<title>c1&#45;&gt;x1i_f2</title>
<path fill="none" stroke="blue" d="M199.42,-576.76C194.94,-568.28 189.35,-557.71 184.32,-548.2"/>
<polygon fill="blue" stroke="blue" points="187.3,-546.35 179.54,-539.15 181.11,-549.62 187.3,-546.35"/>
</g>
<!-- c1&#45;&gt;d1 -->
<g id="edge5" class="edge">
<title>c1&#45;&gt;d1</title>
<path fill="none" stroke="red" d="M213.46,-576.15C221.34,-551.81 236,-506.57 245.36,-477.67"/>
<polygon fill="red" stroke="red" points="248.8,-478.42 248.55,-467.82 242.14,-476.26 248.8,-478.42"/>
</g>
<!-- id_r -->
<g id="node12" class="node">
<title>id_r</title>
<ellipse fill="none" stroke="black" cx="27" cy="-450" rx="27" ry="18"/>
<text text-anchor="middle" x="27" y="-446.3" font-family="Times,serif" font-size="14.00">PiR</text>
</g>
<!-- x1i_f2&#45;&gt;id_r -->
<g id="edge11" class="edge">
<title>x1i_f2&#45;&gt;id_r</title>
<path fill="none" stroke="red" d="M149.75,-510.67C125.4,-498.83 85.28,-479.33 57.57,-465.86"/>
<polygon fill="red" stroke="red" points="58.86,-462.6 48.33,-461.37 55.8,-468.89 58.86,-462.6"/>
</g>
<!-- ssa -->
<g id="node14" class="node">
<title>ssa</title>
<ellipse fill="none" stroke="black" cx="179" cy="-450" rx="27" ry="18"/>
<text text-anchor="middle" x="179" y="-446.3" font-family="Times,serif" font-size="14.00">PiL</text>
</g>
<!-- x1i_f2&#45;&gt;ssa -->
<g id="edge12" class="edge">
<title>x1i_f2&#45;&gt;ssa</title>
<path fill="none" stroke="blue" d="M172.98,-503.7C173.86,-495.98 174.92,-486.71 175.9,-478.11"/>
<polygon fill="blue" stroke="blue" points="179.39,-478.44 177.05,-468.1 172.43,-477.64 179.39,-478.44"/>
</g>
<!-- g2s -->
<g id="node9" class="node">
<title>g2s</title>
<ellipse fill="none" stroke="black" cx="253" cy="-378" rx="27" ry="18"/>
<text text-anchor="middle" x="253" y="-374.3" font-family="Times,serif" font-size="14.00">PiR</text>
</g>
<!-- d1&#45;&gt;g2s -->
<g id="edge6" class="edge">
<title>d1&#45;&gt;g2s</title>
<path fill="none" stroke="red" d="M253.75,-431.7C253.64,-423.98 253.51,-414.71 253.39,-406.11"/>
<polygon fill="red" stroke="red" points="256.89,-406.05 253.24,-396.1 249.89,-406.15 256.89,-406.05"/>
</g>
<!-- g2s&#45;&gt;y -->
<g id="edge18" class="edge">
<title>g2s&#45;&gt;y</title>
<path fill="none" stroke="blue" d="M240.06,-362.15C231.81,-352.69 220.96,-340.24 211.66,-329.56"/>
<polygon fill="blue" stroke="blue" points="214.13,-327.06 204.92,-321.82 208.85,-331.66 214.13,-327.06"/>
</g>
<!-- ret_g2 -->
<g id="node17" class="node">
<title>ret_g2</title>
<ellipse fill="none" stroke="black" cx="243" cy="-18" rx="27" ry="18"/>
<text text-anchor="middle" x="243" y="-14.3" font-family="Times,serif" font-size="14.00">I</text>
</g>
<!-- g2s&#45;&gt;ret_g2 -->
<g id="edge19" class="edge">
<title>g2s&#45;&gt;ret_g2</title>
<path fill="none" stroke="red" d="M253,-359.95C253,-333.29 253,-280.11 253,-235 253,-235 253,-235 253,-161 253,-120.9 248.98,-74.58 246.04,-46.04"/>
<polygon fill="red" stroke="red" points="249.51,-45.6 244.98,-36.02 242.55,-46.34 249.51,-45.6"/>
</g>
<!-- al -->
<g id="node13" class="node">
<title>al</title>
<ellipse fill="none" stroke="black" cx="27" cy="-378" rx="27" ry="18"/>
<text text-anchor="middle" x="27" y="-374.3" font-family="Times,serif" font-size="14.00">I</text>
</g>
<!-- id_r&#45;&gt;al -->
<g id="edge9" class="edge">
<title>id_r&#45;&gt;al</title>
<path fill="none" stroke="blue" d="M21.16,-432.41C20.3,-424.51 20.05,-414.85 20.41,-405.94"/>
<polygon fill="blue" stroke="blue" points="23.9,-406.18 21.12,-395.96 16.92,-405.68 23.9,-406.18"/>
</g>
<!-- id_r&#45;&gt;al -->
<g id="edge10" class="edge">
<title>id_r&#45;&gt;al</title>
<path fill="none" stroke="red" d="M32.84,-432.41C33.7,-424.51 33.95,-414.85 33.59,-405.94"/>
<polygon fill="red" stroke="red" points="37.08,-405.68 32.88,-395.96 30.1,-406.18 37.08,-405.68"/>
</g>
<!-- ssa&#45;&gt;x2_f2 -->
<g id="edge13" class="edge">
<title>ssa&#45;&gt;x2_f2</title>
<path fill="none" stroke="red" d="M200.23,-438.82C225.1,-426.9 266.48,-407.06 294.72,-393.52"/>
<polygon fill="red" stroke="red" points="296.24,-396.67 303.74,-389.19 293.21,-390.36 296.24,-396.67"/>
</g>
<!-- sa -->
<g id="node15" class="node">
<title>sa</title>
<ellipse fill="none" stroke="black" cx="181" cy="-378" rx="27" ry="18"/>
<text text-anchor="middle" x="181" y="-374.3" font-family="Times,serif" font-size="14.00">PiL</text>
</g>
<!-- ssa&#45;&gt;sa -->
<g id="edge14" class="edge">
<title>ssa&#45;&gt;sa</title>
<path fill="none" stroke="blue" d="M179.49,-431.7C179.71,-423.98 179.98,-414.71 180.23,-406.11"/>
<polygon fill="blue" stroke="blue" points="183.72,-406.2 180.51,-396.1 176.73,-406 183.72,-406.2"/>
</g>
<!-- sa&#45;&gt;ret -->
<g id="edge16" class="edge">
<title>sa&#45;&gt;ret</title>
<path fill="none" stroke="blue" d="M167,-362.15C157.99,-352.6 146.11,-339.99 135.98,-329.25"/>
<polygon fill="blue" stroke="blue" points="138.38,-326.7 128.98,-321.82 133.29,-331.5 138.38,-326.7"/>
</g>
<!-- sa&#45;&gt;x3_f2 -->
<g id="edge15" class="edge">
<title>sa&#45;&gt;x3_f2</title>
<path fill="none" stroke="red" d="M202.25,-366.77C207.08,-364.5 212.2,-362.13 217,-360 249.14,-345.72 286.3,-330.34 312.09,-319.84"/>
<polygon fill="red" stroke="red" points="313.43,-323.08 321.38,-316.07 310.8,-316.59 313.43,-323.08"/>
</g>
<!-- x_g2 -->
<g id="node18" class="node">
<title>x_g2</title>
<ellipse fill="none" stroke="black" cx="192" cy="-234" rx="27" ry="18"/>
<text text-anchor="middle" x="192" y="-230.3" font-family="Times,serif" font-size="14.00">!c</text>
</g>
<!-- y&#45;&gt;x_g2 -->
<g id="edge20" class="edge">
<title>y&#45;&gt;x_g2</title>
<path fill="none" stroke="blue" d="M192,-287.7C192,-279.98 192,-270.71 192,-262.11"/>
<polygon fill="blue" stroke="blue" points="195.5,-262.1 192,-252.1 188.5,-262.1 195.5,-262.1"/>
</g>
<!-- x1_g2 -->
<g id="node19" class="node">
<title>x1_g2</title>
<ellipse fill="none" stroke="black" cx="198" cy="-162" rx="27" ry="18"/>
<text text-anchor="middle" x="198" y="-158.3" font-family="Times,serif" font-size="14.00">!d</text>
</g>
<!-- x_g2&#45;&gt;x1_g2 -->
<g id="edge22" class="edge">
<title>x_g2&#45;&gt;x1_g2</title>
<path fill="none" stroke="blue" d="M193.48,-215.7C194.14,-207.98 194.94,-198.71 195.68,-190.11"/>
<polygon fill="blue" stroke="blue" points="199.17,-190.37 196.53,-180.1 192.19,-189.77 199.17,-190.37"/>
</g>
<!-- x2_g2 -->
<g id="node20" class="node">
<title>x2_g2</title>
<ellipse fill="none" stroke="black" cx="162" cy="-18" rx="27" ry="18"/>
<text text-anchor="middle" x="162" y="-14.3" font-family="Times,serif" font-size="14.00">I</text>
</g>
<!-- x_g2&#45;&gt;x2_g2 -->
<g id="edge23" class="edge">
<title>x_g2&#45;&gt;x2_g2</title>
<path fill="none" stroke="blue" d="M180.51,-217.7C173.66,-207.58 165.61,-193.7 162,-180 149.98,-134.35 153.82,-78.85 157.82,-46.37"/>
<polygon fill="blue" stroke="blue" points="161.32,-46.66 159.17,-36.29 154.38,-45.74 161.32,-46.66"/>
</g>
<!-- x1i_g2 -->
<g id="node21" class="node">
<title>x1i_g2</title>
<ellipse fill="none" stroke="black" cx="198" cy="-90" rx="27" ry="18"/>
<text text-anchor="middle" x="198" y="-86.3" font-family="Times,serif" font-size="14.00">PiL</text>
</g>
<!-- x1_g2&#45;&gt;x1i_g2 -->
<g id="edge24" class="edge">
<title>x1_g2&#45;&gt;x1i_g2</title>
<path fill="none" stroke="blue" d="M198,-143.7C198,-135.98 198,-126.71 198,-118.11"/>
<polygon fill="blue" stroke="blue" points="201.5,-118.1 198,-108.1 194.5,-118.1 201.5,-118.1"/>
</g>
<!-- x1i_g2&#45;&gt;ret_g2 -->
<g id="edge26" class="edge">
<title>x1i_g2&#45;&gt;ret_g2</title>
<path fill="none" stroke="blue" d="M208.21,-73.12C213.85,-64.34 220.97,-53.26 227.3,-43.42"/>
<polygon fill="blue" stroke="blue" points="230.37,-45.13 232.83,-34.82 224.48,-41.34 230.37,-45.13"/>
</g>
<!-- x1i_g2&#45;&gt;x2_g2 -->
<g id="edge25" class="edge">
<title>x1i_g2&#45;&gt;x2_g2</title>
<path fill="none" stroke="red" d="M189.65,-72.76C185.29,-64.28 179.85,-53.71 174.96,-44.2"/>
<polygon fill="red" stroke="red" points="177.99,-42.44 170.3,-35.15 171.77,-45.64 177.99,-42.44"/>
</g>
</g>
</svg>
