<?xml version="1.0" encoding="UTF-8" standalone="no"?>
<!DOCTYPE svg PUBLIC "-//W3C//DTD SVG 1.1//EN"
 "http://www.w3.org/Graphics/SVG/1.1/DTD/svg11.dtd">
<!-- Generated by graphviz version 2.40.1 (20161225.0304)
 -->
<!-- Title: %3 Pages: 1 -->
<svg width="492pt" height="1078pt"
 viewBox="0.00 0.00 492.31 1077.79" xmlns="http://www.w3.org/2000/svg" xmlns:xlink="http://www.w3.org/1999/xlink">
<g id="graph0" class="graph" transform="scale(1 1) rotate(0) translate(4 1073.7947)">
<title>%3</title>
<polygon fill="#ffffff" stroke="transparent" points="-4,4 -4,-1073.7947 488.3071,-1073.7947 488.3071,4 -4,4"/>
<!-- Root -->
<g id="node1" class="node">
<title>Root</title>
<ellipse fill="none" stroke="#000000" cx="48.3071" cy="-804.7947" rx="32.4942" ry="18"/>
<text text-anchor="middle" x="48.3071" y="-801.0947" font-family="Times,serif" font-size="14.00" fill="#000000">Root</text>
</g>
<!-- d1 -->
<g id="node2" class="node">
<title>d1</title>
<ellipse fill="none" stroke="#000000" cx="39.3071" cy="-717.7947" rx="29.795" ry="18"/>
<text text-anchor="middle" x="39.3071" y="-714.0947" font-family="Times,serif" font-size="14.00" fill="#000000">Dup</text>
</g>
<!-- Root&#45;&gt;d1 -->
<g id="edge1" class="edge">
<title>Root&#45;&gt;d1</title>
<path fill="none" stroke="#ff0000" stroke-width="2" d="M46.4423,-786.7682C45.2235,-774.9865 43.6065,-759.3553 42.22,-745.9528"/>
<polygon fill="#ff0000" stroke="#ff0000" stroke-width="2" points="45.68,-745.3848 41.1695,-735.7981 38.7172,-746.1052 45.68,-745.3848"/>
<text text-anchor="middle" x="62.8071" y="-757.5947" font-family="Times,serif" font-size="14.00" fill="#000000">0&#45;&gt;1</text>
</g>
<!-- d2 -->
<g id="node6" class="node">
<title>d2</title>
<ellipse fill="none" stroke="#000000" cx="257.3071" cy="-804.7947" rx="29.795" ry="18"/>
<text text-anchor="middle" x="257.3071" y="-801.0947" font-family="Times,serif" font-size="14.00" fill="#000000">Dup</text>
</g>
<!-- d1&#45;&gt;d2 -->
<g id="edge4" class="edge">
<title>d1&#45;&gt;d2</title>
<path fill="none" stroke="#000000" stroke-dasharray="5,2" d="M33.8823,-735.9156C31.8407,-746.7238 31.5998,-760.0086 39.3071,-768.7947 59.556,-791.8781 146.0681,-781.459 176.3071,-786.7947 194.0401,-789.9237 213.7676,-794.2886 229.314,-797.9364"/>
</g>
<!-- f_ret -->
<g id="node7" class="node">
<title>f_ret</title>
<ellipse fill="none" stroke="#000000" cx="152.3071" cy="-630.7947" rx="27" ry="18"/>
<text text-anchor="middle" x="152.3071" y="-627.0947" font-family="Times,serif" font-size="14.00" fill="#000000">I</text>
</g>
<!-- d1&#45;&gt;f_ret -->
<g id="edge5" class="edge">
<title>d1&#45;&gt;f_ret</title>
<path fill="none" stroke="#ff0000" stroke-width="2" d="M48.4536,-700.436C54.8276,-689.6506 64.169,-676.1142 75.3071,-666.7947 87.8132,-656.3306 103.8691,-648.1926 118.0804,-642.3224"/>
<polygon fill="#ff0000" stroke="#ff0000" stroke-width="2" points="119.517,-645.5188 127.5579,-638.6199 116.9698,-638.9986 119.517,-645.5188"/>
</g>
<!-- c1a -->
<g id="node3" class="node">
<title>c1a</title>
<ellipse fill="none" stroke="#000000" cx="148.3071" cy="-1051.7947" rx="27.8951" ry="18"/>
<text text-anchor="middle" x="148.3071" y="-1048.0947" font-family="Times,serif" font-size="14.00" fill="#000000">Cut</text>
</g>
<!-- fp1 -->
<g id="node4" class="node">
<title>fp1</title>
<ellipse fill="none" stroke="#000000" cx="130.3071" cy="-964.7947" rx="27" ry="18"/>
<text text-anchor="middle" x="130.3071" y="-961.0947" font-family="Times,serif" font-size="14.00" fill="#000000">!p</text>
</g>
<!-- c1a&#45;&gt;fp1 -->
<g id="edge2" class="edge">
<title>c1a&#45;&gt;fp1</title>
<path fill="none" stroke="#ff0000" d="M144.5775,-1033.7682C142.1399,-1021.9865 138.9058,-1006.3553 136.1329,-992.9528"/>
<polygon fill="#ff0000" stroke="#ff0000" points="139.4855,-991.8815 134.0319,-982.7981 132.6306,-993.2998 139.4855,-991.8815"/>
<text text-anchor="middle" x="146.3071" y="-1004.5947" font-family="Times,serif" font-size="14.00" fill="#000000">0</text>
</g>
<!-- x1_o1 -->
<g id="node5" class="node">
<title>x1_o1</title>
<ellipse fill="none" stroke="#000000" cx="202.3071" cy="-964.7947" rx="27" ry="18"/>
<text text-anchor="middle" x="202.3071" y="-961.0947" font-family="Times,serif" font-size="14.00" fill="#000000">I</text>
</g>
<!-- c1a&#45;&gt;x1_o1 -->
<g id="edge3" class="edge">
<title>c1a&#45;&gt;x1_o1</title>
<path fill="none" stroke="#0000ff" d="M158.7188,-1035.0202C166.6375,-1022.2624 177.6642,-1004.4971 186.6456,-990.0272"/>
<polygon fill="#0000ff" stroke="#0000ff" points="189.6274,-991.8599 191.9273,-981.5177 183.6799,-988.1683 189.6274,-991.8599"/>
</g>
<!-- f2 -->
<g id="node10" class="node">
<title>f2</title>
<ellipse fill="none" stroke="#000000" cx="130.3071" cy="-877.7947" rx="27" ry="18"/>
<text text-anchor="middle" x="130.3071" y="-874.0947" font-family="Times,serif" font-size="14.00" fill="#000000">PiR</text>
</g>
<!-- fp1&#45;&gt;f2 -->
<g id="edge11" class="edge">
<title>fp1&#45;&gt;f2</title>
<path fill="none" stroke="#ff0000" d="M130.3071,-946.7682C130.3071,-934.9865 130.3071,-919.3553 130.3071,-905.9528"/>
<polygon fill="#ff0000" stroke="#ff0000" points="133.8072,-905.798 130.3071,-895.7981 126.8072,-905.7981 133.8072,-905.798"/>
<text text-anchor="middle" x="135.3071" y="-917.5947" font-family="Times,serif" font-size="14.00" fill="#000000">1</text>
</g>
<!-- xdic -->
<g id="node9" class="node">
<title>xdic</title>
<ellipse fill="none" stroke="#000000" cx="298.3071" cy="-717.7947" rx="27" ry="18"/>
<text text-anchor="middle" x="298.3071" y="-714.0947" font-family="Times,serif" font-size="14.00" fill="#000000">!c</text>
</g>
<!-- d2&#45;&gt;xdic -->
<g id="edge8" class="edge">
<title>d2&#45;&gt;xdic</title>
<path fill="none" stroke="#0000ff" d="M265.6041,-787.1889C271.4216,-774.8443 279.3007,-758.1253 285.8674,-744.1912"/>
<polygon fill="#0000ff" stroke="#0000ff" points="289.0654,-745.6153 290.1624,-735.0774 282.7333,-742.6311 289.0654,-745.6153"/>
</g>
<!-- c1bb -->
<g id="node8" class="node">
<title>c1bb</title>
<ellipse fill="none" stroke="#000000" cx="224.3071" cy="-1051.7947" rx="27.8951" ry="18"/>
<text text-anchor="middle" x="224.3071" y="-1048.0947" font-family="Times,serif" font-size="14.00" fill="#000000">Cut</text>
</g>
<!-- c1bb&#45;&gt;x1_o1 -->
<g id="edge6" class="edge">
<title>c1bb&#45;&gt;x1_o1</title>
<path fill="none" stroke="#ff0000" d="M219.7487,-1033.7682C216.7399,-1021.8698 212.7383,-1006.0454 209.327,-992.5553"/>
<polygon fill="#ff0000" stroke="#ff0000" points="212.7045,-991.6348 206.8597,-982.7981 205.9181,-993.351 212.7045,-991.6348"/>
<text text-anchor="middle" x="219.3071" y="-1004.5947" font-family="Times,serif" font-size="14.00" fill="#000000">0</text>
</g>
<!-- c1bb&#45;&gt;d2 -->
<g id="edge7" class="edge">
<title>c1bb&#45;&gt;d2</title>
<path fill="none" stroke="#0000ff" d="M228.4585,-1033.7184C231.5262,-1019.8475 235.62,-1000.1899 238.3071,-982.7947 246.4549,-930.0481 252.2215,-867.9662 255.1349,-832.8111"/>
<polygon fill="#0000ff" stroke="#0000ff" points="258.6264,-833.056 255.947,-822.8056 251.6494,-832.4896 258.6264,-833.056"/>
<text text-anchor="middle" x="251.3071" y="-917.5947" font-family="Times,serif" font-size="14.00" fill="#000000">1</text>
</g>
<!-- d4 -->
<g id="node12" class="node">
<title>d4</title>
<ellipse fill="none" stroke="#000000" cx="345.3071" cy="-527.8973" rx="29.8071" ry="29.8071"/>
<ellipse fill="none" stroke="#000000" cx="345.3071" cy="-527.8973" rx="33.795" ry="33.795"/>
<text text-anchor="middle" x="345.3071" y="-524.1973" font-family="Times,serif" font-size="14.00" fill="#000000">Dup</text>
</g>
<!-- xdic&#45;&gt;d4 -->
<g id="edge22" class="edge">
<title>xdic&#45;&gt;d4</title>
<path fill="none" stroke="#0000ff" d="M308.7346,-700.8957C316.578,-687.3291 326.8724,-667.5196 332.3071,-648.7947 339.7287,-623.224 342.9928,-593.503 344.3947,-569.9285"/>
<ellipse fill="none" stroke="#0000ff" cx="344.6076" cy="-565.8577" rx="4" ry="4"/>
<text text-anchor="middle" x="344.3071" y="-627.0947" font-family="Times,serif" font-size="14.00" fill="#000000">1</text>
</g>
<!-- hi_retpa -->
<g id="node16" class="node">
<title>hi_retpa</title>
<ellipse fill="none" stroke="#000000" cx="296.3071" cy="-630.7947" rx="27" ry="18"/>
<text text-anchor="middle" x="296.3071" y="-627.0947" font-family="Times,serif" font-size="14.00" fill="#000000">!p</text>
</g>
<!-- xdic&#45;&gt;hi_retpa -->
<g id="edge21" class="edge">
<title>xdic&#45;&gt;hi_retpa</title>
<path fill="none" stroke="#0000ff" d="M297.8927,-699.7682C297.6218,-687.9865 297.2625,-672.3553 296.9544,-658.9528"/>
<polygon fill="#0000ff" stroke="#0000ff" points="300.45,-658.7149 296.721,-648.7981 293.4518,-658.8759 300.45,-658.7149"/>
<text text-anchor="middle" x="302.3071" y="-670.5947" font-family="Times,serif" font-size="14.00" fill="#000000">1</text>
</g>
<!-- f2&#45;&gt;d1 -->
<g id="edge9" class="edge">
<title>f2&#45;&gt;d1</title>
<path fill="none" stroke="#ff0000" d="M103.7497,-874.3597C74.4252,-868.9918 28.5567,-855.5739 7.3071,-822.7947 -9.0624,-797.5436 6.9383,-763.4929 21.6034,-741.1062"/>
<ellipse fill="none" stroke="#ff0000" cx="24.0174" cy="-737.5755" rx="4" ry="4"/>
</g>
<!-- f2&#45;&gt;d2 -->
<g id="edge10" class="edge">
<title>f2&#45;&gt;d2</title>
<path fill="none" stroke="#0000ff" d="M150.9945,-865.9035C172.0147,-853.821 204.7506,-835.0043 228.3441,-821.4427"/>
<ellipse fill="none" stroke="#0000ff" cx="231.8817" cy="-819.4093" rx="4" ry="4"/>
</g>
<!-- d3 -->
<g id="node11" class="node">
<title>d3</title>
<ellipse fill="none" stroke="#000000" cx="246.3071" cy="-527.8973" rx="29.795" ry="18"/>
<text text-anchor="middle" x="246.3071" y="-524.1973" font-family="Times,serif" font-size="14.00" fill="#000000">Dup</text>
</g>
<!-- d3&#45;&gt;d4 -->
<g id="edge12" class="edge">
<title>d3&#45;&gt;d4</title>
<path fill="none" stroke="#000000" stroke-dasharray="5,2" d="M276.4712,-527.8973C288.0334,-527.8973 299.5957,-527.8973 311.158,-527.8973"/>
</g>
<!-- hi_ret -->
<g id="node13" class="node">
<title>hi_ret</title>
<ellipse fill="none" stroke="#000000" cx="267.3071" cy="-251" rx="27" ry="18"/>
<text text-anchor="middle" x="267.3071" y="-247.3" font-family="Times,serif" font-size="14.00" fill="#000000">I</text>
</g>
<!-- d3&#45;&gt;hi_ret -->
<g id="edge13" class="edge">
<title>d3&#45;&gt;hi_ret</title>
<path fill="none" stroke="#ff0000" stroke-width="2" d="M247.685,-509.7293C251.2596,-462.595 260.8516,-336.1189 265.16,-279.3106"/>
<polygon fill="#ff0000" stroke="#ff0000" stroke-width="2" points="268.6578,-279.471 265.9242,-269.2349 261.6778,-278.9416 268.6578,-279.471"/>
</g>
<!-- h_di -->
<g id="node14" class="node">
<title>h_di</title>
<ellipse fill="none" stroke="#000000" cx="344.3071" cy="-425" rx="27" ry="18"/>
<text text-anchor="middle" x="344.3071" y="-421.3" font-family="Times,serif" font-size="14.00" fill="#000000">!d</text>
</g>
<!-- d4&#45;&gt;h_di -->
<g id="edge14" class="edge">
<title>d4&#45;&gt;h_di</title>
<path fill="none" stroke="#0000ff" stroke-width="2" d="M344.9769,-493.9197C344.8493,-480.7897 344.7049,-465.937 344.583,-453.3909"/>
<polygon fill="#0000ff" stroke="#0000ff" stroke-width="2" points="348.0797,-453.0259 344.4826,-443.0604 341.0801,-453.094 348.0797,-453.0259"/>
<text text-anchor="middle" x="349.3071" y="-464.8" font-family="Times,serif" font-size="14.00" fill="#000000">1</text>
</g>
<!-- h -->
<g id="node20" class="node">
<title>h</title>
<ellipse fill="none" stroke="#000000" cx="341.3071" cy="-338" rx="27" ry="18"/>
<text text-anchor="middle" x="341.3071" y="-334.3" font-family="Times,serif" font-size="14.00" fill="#000000">PiL</text>
</g>
<!-- h_di&#45;&gt;h -->
<g id="edge25" class="edge">
<title>h_di&#45;&gt;h</title>
<path fill="none" stroke="#0000ff" stroke-width="2" d="M343.6855,-406.9735C343.2792,-395.1918 342.7402,-379.5607 342.2781,-366.1581"/>
<polygon fill="#0000ff" stroke="#0000ff" stroke-width="2" points="345.7705,-365.8768 341.9279,-356.0034 338.7747,-366.1181 345.7705,-365.8768"/>
<text text-anchor="middle" x="347.3071" y="-377.8" font-family="Times,serif" font-size="14.00" fill="#000000">2</text>
</g>
<!-- c2a -->
<g id="node15" class="node">
<title>c2a</title>
<ellipse fill="none" stroke="#000000" cx="225.3071" cy="-717.7947" rx="27.8951" ry="18"/>
<text text-anchor="middle" x="225.3071" y="-714.0947" font-family="Times,serif" font-size="14.00" fill="#000000">Cut</text>
</g>
<!-- c2a&#45;&gt;hi_retpa -->
<g id="edge15" class="edge">
<title>c2a&#45;&gt;hi_retpa</title>
<path fill="none" stroke="#ff0000" d="M238.3296,-701.8376C249.1386,-688.5927 264.6705,-669.5606 276.9383,-654.5283"/>
<polygon fill="#ff0000" stroke="#ff0000" points="279.7561,-656.6111 283.3672,-646.6507 274.3328,-652.1852 279.7561,-656.6111"/>
<text text-anchor="middle" x="269.3071" y="-670.5947" font-family="Times,serif" font-size="14.00" fill="#000000">1</text>
</g>
<!-- x1_o2 -->
<g id="node17" class="node">
<title>x1_o2</title>
<ellipse fill="none" stroke="#000000" cx="224.3071" cy="-630.7947" rx="27" ry="18"/>
<text text-anchor="middle" x="224.3071" y="-627.0947" font-family="Times,serif" font-size="14.00" fill="#000000">I</text>
</g>
<!-- c2a&#45;&gt;x1_o2 -->
<g id="edge16" class="edge">
<title>c2a&#45;&gt;x1_o2</title>
<path fill="none" stroke="#0000ff" d="M225.0999,-699.7682C224.9645,-687.9865 224.7848,-672.3553 224.6307,-658.9528"/>
<polygon fill="#0000ff" stroke="#0000ff" points="228.1288,-658.7571 224.514,-648.7981 221.1293,-658.8377 228.1288,-658.7571"/>
</g>
<!-- hi_retpa&#45;&gt;d3 -->
<g id="edge19" class="edge">
<title>hi_retpa&#45;&gt;d3</title>
<path fill="none" stroke="#ff0000" d="M287.8253,-613.3396C279.9957,-597.2267 268.2536,-573.0621 259.2525,-554.5382"/>
<polygon fill="#ff0000" stroke="#ff0000" points="262.3491,-552.9028 254.8305,-545.4381 256.0531,-555.9622 262.3491,-552.9028"/>
<text text-anchor="middle" x="283.3071" y="-583.5947" font-family="Times,serif" font-size="14.00" fill="#000000">2</text>
</g>
<!-- hi_retpa&#45;&gt;d4 -->
<g id="edge20" class="edge">
<title>hi_retpa&#45;&gt;d4</title>
<path fill="none" stroke="#0000ff" d="M304.6193,-613.3396C310.5537,-600.8775 318.7818,-583.599 326.2868,-567.839"/>
<polygon fill="#0000ff" stroke="#0000ff" points="329.4598,-569.3164 330.5993,-558.783 323.1398,-566.3068 329.4598,-569.3164"/>
<text text-anchor="middle" x="324.3071" y="-583.5947" font-family="Times,serif" font-size="14.00" fill="#000000">1</text>
</g>
<!-- c2b -->
<g id="node18" class="node">
<title>c2b</title>
<ellipse fill="none" stroke="#000000" cx="139.3071" cy="-804.7947" rx="27.8951" ry="18"/>
<text text-anchor="middle" x="139.3071" y="-801.0947" font-family="Times,serif" font-size="14.00" fill="#000000">Cut</text>
</g>
<!-- c2b&#45;&gt;d3 -->
<g id="edge17" class="edge">
<title>c2b&#45;&gt;d3</title>
<path fill="none" stroke="#ff0000" stroke-width="2" d="M130.8256,-787.364C114.9533,-752.0494 85.0639,-670.5138 116.3071,-612.7947 136.4762,-575.534 180.8851,-552.024 212.1649,-539.4256"/>
<ellipse fill="none" stroke="#ff0000" stroke-width="2" cx="216.0831" cy="-537.9041" rx="4" ry="4"/>
<text text-anchor="middle" x="108.3071" y="-670.5947" font-family="Times,serif" font-size="14.00" fill="#000000">2</text>
</g>
<!-- x2i_o2 -->
<g id="node19" class="node">
<title>x2i_o2</title>
<ellipse fill="none" stroke="#000000" cx="152.3071" cy="-717.7947" rx="27" ry="18"/>
<text text-anchor="middle" x="152.3071" y="-714.0947" font-family="Times,serif" font-size="14.00" fill="#000000">PiL</text>
</g>
<!-- c2b&#45;&gt;x2i_o2 -->
<g id="edge18" class="edge">
<title>c2b&#45;&gt;x2i_o2</title>
<path fill="none" stroke="#0000ff" stroke-width="2" d="M142.0007,-786.7682C143.7612,-774.9865 146.0969,-759.3553 148.0996,-745.9528"/>
<polygon fill="#0000ff" stroke="#0000ff" stroke-width="2" points="151.6006,-746.2055 149.6169,-735.7981 144.6774,-745.171 151.6006,-746.2055"/>
<text text-anchor="middle" x="152.3071" y="-757.5947" font-family="Times,serif" font-size="14.00" fill="#000000">1</text>
</g>
<!-- x2i_o2&#45;&gt;f_ret -->
<g id="edge24" class="edge">
<title>x2i_o2&#45;&gt;f_ret</title>
<path fill="none" stroke="#0000ff" stroke-width="2" d="M152.3071,-699.7682C152.3071,-687.9865 152.3071,-672.3553 152.3071,-658.9528"/>
<polygon fill="#0000ff" stroke="#0000ff" stroke-width="2" points="155.8072,-658.798 152.3071,-648.7981 148.8072,-658.7981 155.8072,-658.798"/>
</g>
<!-- x2i_o2&#45;&gt;x1_o2 -->
<g id="edge23" class="edge">
<title>x2i_o2&#45;&gt;x1_o2</title>
<path fill="none" stroke="#ff0000" d="M165.513,-701.8376C176.4743,-688.5927 192.2249,-669.5606 204.6655,-654.5283"/>
<polygon fill="#ff0000" stroke="#ff0000" points="207.5056,-656.5861 211.1849,-646.6507 202.1128,-652.1231 207.5056,-656.5861"/>
</g>
<!-- h&#45;&gt;hi_ret -->
<g id="edge33" class="edge">
<title>h&#45;&gt;hi_ret</title>
<path fill="none" stroke="#0000ff" stroke-width="2" d="M327.7344,-322.0429C316.4686,-308.798 300.2804,-289.7659 287.4943,-274.7336"/>
<polygon fill="#0000ff" stroke="#0000ff" stroke-width="2" points="289.9389,-272.2056 280.7938,-266.856 284.6068,-276.7409 289.9389,-272.2056"/>
</g>
<!-- h_app -->
<g id="node23" class="node">
<title>h_app</title>
<ellipse fill="none" stroke="#000000" cx="342.3071" cy="-251" rx="27" ry="18"/>
<text text-anchor="middle" x="342.3071" y="-247.3" font-family="Times,serif" font-size="14.00" fill="#000000">I</text>
</g>
<!-- h&#45;&gt;h_app -->
<g id="edge32" class="edge">
<title>h&#45;&gt;h_app</title>
<path fill="none" stroke="#ff0000" d="M341.5143,-319.9735C341.6497,-308.1918 341.8294,-292.5607 341.9834,-279.1581"/>
<polygon fill="#ff0000" stroke="#ff0000" points="345.4849,-279.043 342.1002,-269.0034 338.4854,-278.9624 345.4849,-279.043"/>
</g>
<!-- c3 -->
<g id="node21" class="node">
<title>c3</title>
<ellipse fill="none" stroke="#000000" cx="414.3071" cy="-338" rx="27.8951" ry="18"/>
<text text-anchor="middle" x="414.3071" y="-334.3" font-family="Times,serif" font-size="14.00" fill="#000000">Cut</text>
</g>
<!-- i -->
<g id="node22" class="node">
<title>i</title>
<ellipse fill="none" stroke="#000000" cx="414.3071" cy="-251" rx="27" ry="18"/>
<text text-anchor="middle" x="414.3071" y="-247.3" font-family="Times,serif" font-size="14.00" fill="#000000">!p</text>
</g>
<!-- c3&#45;&gt;i -->
<g id="edge26" class="edge">
<title>c3&#45;&gt;i</title>
<path fill="none" stroke="#ff0000" d="M414.3071,-319.9735C414.3071,-308.1918 414.3071,-292.5607 414.3071,-279.1581"/>
<polygon fill="#ff0000" stroke="#ff0000" points="417.8072,-279.0033 414.3071,-269.0034 410.8072,-279.0034 417.8072,-279.0033"/>
<text text-anchor="middle" x="419.3071" y="-290.8" font-family="Times,serif" font-size="14.00" fill="#000000">2</text>
</g>
<!-- c3&#45;&gt;h_app -->
<g id="edge27" class="edge">
<title>c3&#45;&gt;h_app</title>
<path fill="none" stroke="#0000ff" d="M401.1012,-322.0429C390.1399,-308.798 374.3892,-289.7659 361.9487,-274.7336"/>
<polygon fill="#0000ff" stroke="#0000ff" points="364.5014,-272.3284 355.4293,-266.856 359.1086,-276.7914 364.5014,-272.3284"/>
</g>
<!-- i_i -->
<g id="node24" class="node">
<title>i_i</title>
<ellipse fill="none" stroke="#000000" cx="414.3071" cy="-164" rx="27" ry="18"/>
<text text-anchor="middle" x="414.3071" y="-160.3" font-family="Times,serif" font-size="14.00" fill="#000000">PiR</text>
</g>
<!-- i&#45;&gt;i_i -->
<g id="edge28" class="edge">
<title>i&#45;&gt;i_i</title>
<path fill="none" stroke="#ff0000" d="M414.3071,-232.9735C414.3071,-221.1918 414.3071,-205.5607 414.3071,-192.1581"/>
<polygon fill="#ff0000" stroke="#ff0000" points="417.8072,-192.0033 414.3071,-182.0034 410.8072,-192.0034 417.8072,-192.0033"/>
<text text-anchor="middle" x="419.3071" y="-203.8" font-family="Times,serif" font-size="14.00" fill="#000000">3</text>
</g>
<!-- il -->
<g id="node25" class="node">
<title>il</title>
<ellipse fill="none" stroke="#000000" cx="457.3071" cy="-91" rx="27" ry="18"/>
<text text-anchor="middle" x="457.3071" y="-87.3" font-family="Times,serif" font-size="14.00" fill="#000000">!d</text>
</g>
<!-- i_i&#45;&gt;il -->
<g id="edge29" class="edge">
<title>i_i&#45;&gt;il</title>
<path fill="none" stroke="#0000ff" d="M424.2802,-147.0688C429.5988,-138.0396 436.2536,-126.742 442.1932,-116.6585"/>
<polygon fill="#0000ff" stroke="#0000ff" points="445.3283,-118.232 447.388,-107.8393 439.2969,-114.6793 445.3283,-118.232"/>
</g>
<!-- i_ret -->
<g id="node26" class="node">
<title>i_ret</title>
<ellipse fill="none" stroke="#000000" cx="414.3071" cy="-18" rx="27" ry="18"/>
<text text-anchor="middle" x="414.3071" y="-14.3" font-family="Times,serif" font-size="14.00" fill="#000000">I</text>
</g>
<!-- i_i&#45;&gt;i_ret -->
<g id="edge30" class="edge">
<title>i_i&#45;&gt;i_ret</title>
<path fill="none" stroke="#ff0000" d="M414.3071,-145.8042C414.3071,-120.8868 414.3071,-75.8938 414.3071,-46.4877"/>
<polygon fill="#ff0000" stroke="#ff0000" points="417.8072,-46.4251 414.3071,-36.4251 410.8072,-46.4251 417.8072,-46.4251"/>
</g>
<!-- il&#45;&gt;i_ret -->
<g id="edge31" class="edge">
<title>il&#45;&gt;i_ret</title>
<path fill="none" stroke="#0000ff" d="M447.3339,-74.0688C442.0153,-65.0396 435.3606,-53.742 429.421,-43.6585"/>
<polygon fill="#0000ff" stroke="#0000ff" points="432.3173,-41.6793 424.2262,-34.8393 426.2858,-45.232 432.3173,-41.6793"/>
</g>
</g>
</svg>
