<?xml version="1.0" encoding="UTF-8" standalone="no"?>
<!DOCTYPE svg PUBLIC "-//W3C//DTD SVG 1.1//EN"
 "http://www.w3.org/Graphics/SVG/1.1/DTD/svg11.dtd">
<!-- Generated by graphviz version 2.40.1 (20161225.0304)
 -->
<!-- Title: %3 Pages: 1 -->
<svg width="612pt" height="1001pt"
 viewBox="0.00 0.00 612.00 1001.39" xmlns="http://www.w3.org/2000/svg" xmlns:xlink="http://www.w3.org/1999/xlink">
<g id="graph0" class="graph" transform="scale(1 1) rotate(0) translate(4 997.3875)">
<title>%3</title>
<polygon fill="#ffffff" stroke="transparent" points="-4,4 -4,-997.3875 608,-997.3875 608,4 -4,4"/>
<!-- Root -->
<g id="node1" class="node">
<title>Root</title>
<ellipse fill="none" stroke="#000000" cx="82" cy="-975.3875" rx="27.8951" ry="18"/>
<text text-anchor="middle" x="82" y="-971.6875" font-family="Times,serif" font-size="14.00" fill="#000000">Root</text>
</g>
<!-- c1a -->
<g id="node2" class="node">
<title>c1a</title>
<ellipse fill="none" stroke="#000000" cx="82" cy="-892.9896" rx="23.3111" ry="23.3111"/>
<ellipse fill="none" stroke="#000000" cx="82" cy="-892.9896" rx="27.2962" ry="27.2962"/>
<text text-anchor="middle" x="82" y="-889.2896" font-family="Times,serif" font-size="14.00" fill="#000000">Cut</text>
</g>
<!-- Root&#45;&gt;c1a -->
<g id="edge1" class="edge">
<title>Root&#45;&gt;c1a</title>
<path fill="none" stroke="#000000" d="M82,-957.1008C82,-949.3155 82,-939.9298 82,-930.7708"/>
<polygon fill="#000000" stroke="#000000" points="85.5001,-930.6239 82,-920.6239 78.5001,-930.6239 85.5001,-930.6239"/>
</g>
<!-- c1b -->
<g id="node3" class="node">
<title>c1b</title>
<ellipse fill="none" stroke="#000000" cx="160" cy="-892.9896" rx="27" ry="18"/>
<text text-anchor="middle" x="160" y="-889.2896" font-family="Times,serif" font-size="14.00" fill="#000000">Cut</text>
</g>
<!-- Root&#45;&gt;c1b -->
<g id="edge2" class="edge">
<title>Root&#45;&gt;c1b</title>
<path fill="none" stroke="#000000" d="M96.6712,-959.8891C108.4374,-947.4595 125.1228,-929.8334 138.4131,-915.7936"/>
<polygon fill="#000000" stroke="#000000" points="141.0617,-918.0869 145.3946,-908.4185 135.9782,-913.2747 141.0617,-918.0869"/>
</g>
<!-- ret -->
<g id="node9" class="node">
<title>ret</title>
<ellipse fill="none" stroke="#000000" cx="27" cy="-796.5917" rx="27" ry="18"/>
<text text-anchor="middle" x="27" y="-792.8917" font-family="Times,serif" font-size="14.00" fill="#000000">I</text>
</g>
<!-- Root&#45;&gt;ret -->
<g id="edge6" class="edge">
<title>Root&#45;&gt;ret</title>
<path fill="none" stroke="#ff0000" stroke-width="2" d="M68.6374,-959.0772C60.793,-948.6375 51.3902,-934.4543 46,-920.3875 34.0183,-889.1188 29.5764,-850.6713 27.9389,-824.9975"/>
<polygon fill="#ff0000" stroke="#ff0000" stroke-width="2" points="31.4245,-824.6333 27.395,-814.8347 24.4345,-825.0075 31.4245,-824.6333"/>
</g>
<!-- c1a&#45;&gt;ret -->
<g id="edge8" class="edge">
<title>c1a&#45;&gt;ret</title>
<path fill="none" stroke="#0000ff" d="M68.4045,-869.1609C60.3151,-854.9828 50.0475,-836.9867 41.7608,-822.4628"/>
<polygon fill="#0000ff" stroke="#0000ff" points="44.6399,-820.4462 36.6442,-813.495 38.5599,-823.9152 44.6399,-820.4462"/>
</g>
<!-- ret_o1 -->
<g id="node10" class="node">
<title>ret_o1</title>
<ellipse fill="none" stroke="#000000" cx="83" cy="-530.7958" rx="27" ry="18"/>
<text text-anchor="middle" x="83" y="-527.0958" font-family="Times,serif" font-size="14.00" fill="#000000">I</text>
</g>
<!-- c1a&#45;&gt;ret_o1 -->
<g id="edge7" class="edge">
<title>c1a&#45;&gt;ret_o1</title>
<path fill="none" stroke="#ff0000" d="M82,-865.5657C82,-846.2748 82,-819.8544 82,-796.5917 82,-796.5917 82,-796.5917 82,-627.1938 82,-604.2822 82.286,-578.3092 82.552,-559.1005"/>
<polygon fill="#ff0000" stroke="#ff0000" points="86.0542,-558.9672 82.7,-548.9174 79.055,-558.8655 86.0542,-558.9672"/>
</g>
<!-- fp -->
<g id="node11" class="node">
<title>fp</title>
<ellipse fill="none" stroke="#000000" cx="261" cy="-796.5917" rx="27" ry="18"/>
<text text-anchor="middle" x="261" y="-792.8917" font-family="Times,serif" font-size="14.00" fill="#000000">!p</text>
</g>
<!-- c1b&#45;&gt;fp -->
<g id="edge9" class="edge">
<title>c1b&#45;&gt;fp</title>
<path fill="none" stroke="#ff0000" d="M175.7813,-877.9274C192.458,-862.0105 218.9255,-836.7491 237.9398,-818.6011"/>
<polygon fill="#ff0000" stroke="#ff0000" points="240.5121,-820.9844 245.3296,-811.5481 235.6791,-815.9206 240.5121,-820.9844"/>
<text text-anchor="middle" x="225.5" y="-836.3917" font-family="Times,serif" font-size="14.00" fill="#000000">0</text>
</g>
<!-- x_o1 -->
<g id="node12" class="node">
<title>x_o1</title>
<ellipse fill="none" stroke="#000000" cx="160" cy="-796.5917" rx="27" ry="18"/>
<text text-anchor="middle" x="160" y="-792.8917" font-family="Times,serif" font-size="14.00" fill="#000000">!c</text>
</g>
<!-- c1b&#45;&gt;x_o1 -->
<g id="edge10" class="edge">
<title>c1b&#45;&gt;x_o1</title>
<path fill="none" stroke="#0000ff" d="M160,-874.8579C160,-860.7203 160,-840.8364 160,-824.6485"/>
<polygon fill="#0000ff" stroke="#0000ff" points="163.5001,-824.6421 160,-814.6421 156.5001,-824.6421 163.5001,-824.6421"/>
</g>
<!-- f -->
<g id="node4" class="node">
<title>f</title>
<ellipse fill="none" stroke="#000000" cx="285" cy="-709.5917" rx="27" ry="18"/>
<text text-anchor="middle" x="285" y="-705.8917" font-family="Times,serif" font-size="14.00" fill="#000000">PiR</text>
</g>
<!-- c2a -->
<g id="node5" class="node">
<title>c2a</title>
<ellipse fill="none" stroke="#000000" cx="285" cy="-627.1938" rx="23.3111" ry="23.3111"/>
<ellipse fill="none" stroke="#000000" cx="285" cy="-627.1938" rx="27.2962" ry="27.2962"/>
<text text-anchor="middle" x="285" y="-623.4938" font-family="Times,serif" font-size="14.00" fill="#000000">Cut</text>
</g>
<!-- f&#45;&gt;c2a -->
<g id="edge3" class="edge">
<title>f&#45;&gt;c2a</title>
<path fill="none" stroke="#000000" d="M285,-691.3049C285,-683.5197 285,-674.1339 285,-664.975"/>
<polygon fill="#000000" stroke="#000000" points="288.5001,-664.828 285,-654.828 281.5001,-664.8281 288.5001,-664.828"/>
</g>
<!-- c2b -->
<g id="node6" class="node">
<title>c2b</title>
<ellipse fill="none" stroke="#000000" cx="362" cy="-627.1938" rx="27" ry="18"/>
<text text-anchor="middle" x="362" y="-623.4938" font-family="Times,serif" font-size="14.00" fill="#000000">Cut</text>
</g>
<!-- f&#45;&gt;c2b -->
<g id="edge4" class="edge">
<title>f&#45;&gt;c2b</title>
<path fill="none" stroke="#000000" d="M299.4831,-694.0933C311.0985,-681.6636 327.5699,-664.0375 340.6899,-649.9978"/>
<polygon fill="#000000" stroke="#000000" points="343.3113,-652.3188 347.5818,-642.6227 338.1969,-647.5394 343.3113,-652.3188"/>
</g>
<!-- hi_retp -->
<g id="node16" class="node">
<title>hi_retp</title>
<ellipse fill="none" stroke="#000000" cx="437" cy="-530.7958" rx="27" ry="18"/>
<text text-anchor="middle" x="437" y="-527.0958" font-family="Times,serif" font-size="14.00" fill="#000000">!p</text>
</g>
<!-- f&#45;&gt;hi_retp -->
<g id="edge17" class="edge">
<title>f&#45;&gt;hi_retp</title>
<path fill="none" stroke="#0000ff" d="M310.6582,-703.4822C336.2819,-696.0913 375.0624,-681.1966 398,-654.5917 421.3814,-627.472 430.7626,-586.3213 434.5154,-559.0078"/>
<polygon fill="#0000ff" stroke="#0000ff" points="438.0085,-559.2747 435.7319,-548.9274 431.0589,-558.436 438.0085,-559.2747"/>
<text text-anchor="middle" x="428.5" y="-623.4938" font-family="Times,serif" font-size="14.00" fill="#000000">1</text>
</g>
<!-- f_ret -->
<g id="node17" class="node">
<title>f_ret</title>
<ellipse fill="none" stroke="#000000" cx="230" cy="-530.7958" rx="27" ry="18"/>
<text text-anchor="middle" x="230" y="-527.0958" font-family="Times,serif" font-size="14.00" fill="#000000">I</text>
</g>
<!-- f&#45;&gt;f_ret -->
<g id="edge18" class="edge">
<title>f&#45;&gt;f_ret</title>
<path fill="none" stroke="#ff0000" d="M271.9929,-693.7533C264.0789,-683.2715 254.4718,-668.8716 249,-654.5917 237.0183,-623.323 232.5764,-584.8755 230.9389,-559.2017"/>
<polygon fill="#ff0000" stroke="#ff0000" points="234.4245,-558.8375 230.395,-549.0388 227.4345,-559.2116 234.4245,-558.8375"/>
</g>
<!-- c2a&#45;&gt;f_ret -->
<g id="edge20" class="edge">
<title>c2a&#45;&gt;f_ret</title>
<path fill="none" stroke="#0000ff" d="M271.4045,-603.3651C263.3151,-589.1869 253.0475,-571.1909 244.7608,-556.667"/>
<polygon fill="#0000ff" stroke="#0000ff" points="247.6399,-554.6503 239.6442,-547.6991 241.5599,-558.1193 247.6399,-554.6503"/>
</g>
<!-- ret_o2 -->
<g id="node18" class="node">
<title>ret_o2</title>
<ellipse fill="none" stroke="#000000" cx="286" cy="-251" rx="27" ry="18"/>
<text text-anchor="middle" x="286" y="-247.3" font-family="Times,serif" font-size="14.00" fill="#000000">I</text>
</g>
<!-- c2a&#45;&gt;ret_o2 -->
<g id="edge19" class="edge">
<title>c2a&#45;&gt;ret_o2</title>
<path fill="none" stroke="#ff0000" d="M285,-599.7698C285,-580.479 285,-554.0585 285,-530.7958 285,-530.7958 285,-530.7958 285,-347.3979 285,-324.4864 285.286,-298.5133 285.552,-279.3046"/>
<polygon fill="#ff0000" stroke="#ff0000" points="289.0542,-279.1714 285.7,-269.1216 282.055,-279.0696 289.0542,-279.1714"/>
</g>
<!-- c2b&#45;&gt;hi_retp -->
<g id="edge21" class="edge">
<title>c2b&#45;&gt;hi_retp</title>
<path fill="none" stroke="#ff0000" d="M374.7227,-610.8412C386.6467,-595.5152 404.6203,-572.4137 418.1984,-554.9617"/>
<polygon fill="#ff0000" stroke="#ff0000" points="421.0869,-556.9488 424.4652,-546.9069 415.5621,-552.6503 421.0869,-556.9488"/>
<text text-anchor="middle" x="411.5" y="-570.5958" font-family="Times,serif" font-size="14.00" fill="#000000">1</text>
</g>
<!-- x_o2 -->
<g id="node19" class="node">
<title>x_o2</title>
<ellipse fill="none" stroke="#000000" cx="362" cy="-530.7958" rx="27" ry="18"/>
<text text-anchor="middle" x="362" y="-527.0958" font-family="Times,serif" font-size="14.00" fill="#000000">!c</text>
</g>
<!-- c2b&#45;&gt;x_o2 -->
<g id="edge22" class="edge">
<title>c2b&#45;&gt;x_o2</title>
<path fill="none" stroke="#0000ff" d="M362,-609.0621C362,-594.9244 362,-575.0405 362,-558.8527"/>
<polygon fill="#0000ff" stroke="#0000ff" points="365.5001,-558.8462 362,-548.8463 358.5001,-558.8463 365.5001,-558.8462"/>
<text text-anchor="middle" x="365.5" y="-570.5958" font-family="Times,serif" font-size="14.00" fill="#000000">1</text>
</g>
<!-- h_di -->
<g id="node7" class="node">
<title>h_di</title>
<ellipse fill="none" stroke="#000000" cx="450" cy="-443.7958" rx="27" ry="18"/>
<text text-anchor="middle" x="450" y="-440.0958" font-family="Times,serif" font-size="14.00" fill="#000000">!d</text>
</g>
<!-- c3 -->
<g id="node8" class="node">
<title>c3</title>
<ellipse fill="none" stroke="#000000" cx="450" cy="-347.3979" rx="23.3111" ry="23.3111"/>
<ellipse fill="none" stroke="#000000" cx="450" cy="-347.3979" rx="27.2962" ry="27.2962"/>
<text text-anchor="middle" x="450" y="-343.6979" font-family="Times,serif" font-size="14.00" fill="#000000">Cut</text>
</g>
<!-- h_di&#45;&gt;c3 -->
<g id="edge5" class="edge">
<title>h_di&#45;&gt;c3</title>
<path fill="none" stroke="#000000" d="M450,-425.6641C450,-414.2774 450,-399.1629 450,-385.2543"/>
<polygon fill="#000000" stroke="#000000" points="453.5001,-384.935 450,-374.935 446.5001,-384.935 453.5001,-384.935"/>
</g>
<!-- h -->
<g id="node24" class="node">
<title>h</title>
<ellipse fill="none" stroke="#000000" cx="522" cy="-347.3979" rx="27" ry="18"/>
<text text-anchor="middle" x="522" y="-343.6979" font-family="Times,serif" font-size="14.00" fill="#000000">PiL</text>
</g>
<!-- h_di&#45;&gt;h -->
<g id="edge30" class="edge">
<title>h_di&#45;&gt;h</title>
<path fill="none" stroke="#0000ff" d="M462.2138,-427.4433C473.5919,-412.2096 490.7078,-389.2938 503.7144,-371.8798"/>
<polygon fill="#0000ff" stroke="#0000ff" points="506.5463,-373.9371 509.7263,-363.8307 500.9379,-369.7482 506.5463,-373.9371"/>
<text text-anchor="middle" x="489.5" y="-396.5958" font-family="Times,serif" font-size="14.00" fill="#000000">2</text>
</g>
<!-- i -->
<g id="node25" class="node">
<title>i</title>
<ellipse fill="none" stroke="#000000" cx="433" cy="-251" rx="27" ry="18"/>
<text text-anchor="middle" x="433" y="-247.3" font-family="Times,serif" font-size="14.00" fill="#000000">!p</text>
</g>
<!-- c3&#45;&gt;i -->
<g id="edge31" class="edge">
<title>c3&#45;&gt;i</title>
<path fill="none" stroke="#ff0000" d="M445.2193,-320.2892C442.9636,-307.4984 440.2727,-292.2393 437.9909,-279.3007"/>
<polygon fill="#ff0000" stroke="#ff0000" points="441.3726,-278.3232 436.189,-269.0831 434.479,-279.539 441.3726,-278.3232"/>
<text text-anchor="middle" x="444.5" y="-290.8" font-family="Times,serif" font-size="14.00" fill="#000000">2</text>
</g>
<!-- h_app -->
<g id="node26" class="node">
<title>h_app</title>
<ellipse fill="none" stroke="#000000" cx="505" cy="-251" rx="27" ry="18"/>
<text text-anchor="middle" x="505" y="-247.3" font-family="Times,serif" font-size="14.00" fill="#000000">I</text>
</g>
<!-- c3&#45;&gt;h_app -->
<g id="edge32" class="edge">
<title>c3&#45;&gt;h_app</title>
<path fill="none" stroke="#0000ff" d="M463.5955,-323.5692C471.6849,-309.3911 481.9525,-291.395 490.2392,-276.8711"/>
<polygon fill="#0000ff" stroke="#0000ff" points="493.4401,-278.3235 495.3558,-267.9033 487.3601,-274.8545 493.4401,-278.3235"/>
</g>
<!-- fp&#45;&gt;f -->
<g id="edge16" class="edge">
<title>fp&#45;&gt;f</title>
<path fill="none" stroke="#ff0000" d="M265.9728,-778.5652C269.277,-766.5875 273.6787,-750.6313 277.4162,-737.0828"/>
<polygon fill="#ff0000" stroke="#ff0000" points="280.8303,-737.8681 280.1157,-727.2974 274.0823,-736.0065 280.8303,-737.8681"/>
<text text-anchor="middle" x="277.5" y="-749.3917" font-family="Times,serif" font-size="14.00" fill="#000000">1</text>
</g>
<!-- x1_o1 -->
<g id="node13" class="node">
<title>x1_o1</title>
<ellipse fill="none" stroke="#000000" cx="157" cy="-530.7958" rx="27" ry="18"/>
<text text-anchor="middle" x="157" y="-527.0958" font-family="Times,serif" font-size="14.00" fill="#000000">I</text>
</g>
<!-- x_o1&#45;&gt;x1_o1 -->
<g id="edge11" class="edge">
<title>x_o1&#45;&gt;x1_o1</title>
<path fill="none" stroke="#0000ff" d="M164.3504,-778.5626C167.4587,-764.7165 171.3679,-745.0691 173,-727.5917 178.2809,-671.0396 179.4569,-656.2258 173,-599.7958 171.4164,-585.9559 168.1013,-570.8536 164.8972,-558.316"/>
<polygon fill="#0000ff" stroke="#0000ff" points="168.2307,-557.2324 162.2724,-548.4717 161.467,-559.0359 168.2307,-557.2324"/>
</g>
<!-- x2_o1 -->
<g id="node14" class="node">
<title>x2_o1</title>
<ellipse fill="none" stroke="#000000" cx="137" cy="-709.5917" rx="27" ry="18"/>
<text text-anchor="middle" x="137" y="-705.8917" font-family="Times,serif" font-size="14.00" fill="#000000">!d</text>
</g>
<!-- x_o1&#45;&gt;x2_o1 -->
<g id="edge12" class="edge">
<title>x_o1&#45;&gt;x2_o1</title>
<path fill="none" stroke="#0000ff" d="M155.2344,-778.5652C152.0888,-766.6668 147.9054,-750.8424 144.339,-737.3523"/>
<polygon fill="#0000ff" stroke="#0000ff" points="147.6992,-736.3683 141.7595,-727.5951 140.9317,-738.1575 147.6992,-736.3683"/>
</g>
<!-- x2i_o1 -->
<g id="node15" class="node">
<title>x2i_o1</title>
<ellipse fill="none" stroke="#000000" cx="137" cy="-627.1938" rx="27" ry="18"/>
<text text-anchor="middle" x="137" y="-623.4938" font-family="Times,serif" font-size="14.00" fill="#000000">PiL</text>
</g>
<!-- x2_o1&#45;&gt;x2i_o1 -->
<g id="edge13" class="edge">
<title>x2_o1&#45;&gt;x2i_o1</title>
<path fill="none" stroke="#0000ff" d="M137,-691.3049C137,-680.8505 137,-667.51 137,-655.7082"/>
<polygon fill="#0000ff" stroke="#0000ff" points="140.5001,-655.4294 137,-645.4294 133.5001,-655.4295 140.5001,-655.4294"/>
</g>
<!-- x2i_o1&#45;&gt;ret_o1 -->
<g id="edge15" class="edge">
<title>x2i_o1&#45;&gt;ret_o1</title>
<path fill="none" stroke="#0000ff" d="M127.3459,-609.9598C119.0526,-595.1551 106.9731,-573.5913 97.5148,-556.7068"/>
<polygon fill="#0000ff" stroke="#0000ff" points="100.5113,-554.8945 92.5705,-547.8807 94.4043,-558.3156 100.5113,-554.8945"/>
</g>
<!-- x2i_o1&#45;&gt;x1_o1 -->
<g id="edge14" class="edge">
<title>x2i_o1&#45;&gt;x1_o1</title>
<path fill="none" stroke="#ff0000" d="M140.7618,-609.0621C143.695,-594.9244 147.8204,-575.0405 151.179,-558.8527"/>
<polygon fill="#ff0000" stroke="#ff0000" points="154.6505,-559.3488 153.255,-548.8463 147.7965,-557.9267 154.6505,-559.3488"/>
</g>
<!-- hi_retp&#45;&gt;h_di -->
<g id="edge29" class="edge">
<title>hi_retp&#45;&gt;h_di</title>
<path fill="none" stroke="#0000ff" d="M439.6936,-512.7694C441.4541,-500.9876 443.7898,-485.3565 445.7925,-471.9539"/>
<polygon fill="#0000ff" stroke="#0000ff" points="449.2935,-472.2067 447.3098,-461.7992 442.3703,-471.1721 449.2935,-472.2067"/>
<text text-anchor="middle" x="447.5" y="-483.5958" font-family="Times,serif" font-size="14.00" fill="#000000">1</text>
</g>
<!-- hi_ret -->
<g id="node23" class="node">
<title>hi_ret</title>
<ellipse fill="none" stroke="#000000" cx="577" cy="-251" rx="27" ry="18"/>
<text text-anchor="middle" x="577" y="-247.3" font-family="Times,serif" font-size="14.00" fill="#000000">I</text>
</g>
<!-- hi_retp&#45;&gt;hi_ret -->
<g id="edge28" class="edge">
<title>hi_retp&#45;&gt;hi_ret</title>
<path fill="none" stroke="#ff0000" d="M453.1155,-515.7395C479.7907,-489.7775 532.6865,-433.6803 558,-374.7958 571.2248,-344.0322 575.4142,-305.4822 576.6531,-279.6464"/>
<polygon fill="#ff0000" stroke="#ff0000" points="580.1594,-279.5315 577.0212,-269.4121 573.164,-279.2798 580.1594,-279.5315"/>
<text text-anchor="middle" x="552.5" y="-396.5958" font-family="Times,serif" font-size="14.00" fill="#000000">2</text>
</g>
<!-- x1_o2 -->
<g id="node20" class="node">
<title>x1_o2</title>
<ellipse fill="none" stroke="#000000" cx="360" cy="-251" rx="27" ry="18"/>
<text text-anchor="middle" x="360" y="-247.3" font-family="Times,serif" font-size="14.00" fill="#000000">I</text>
</g>
<!-- x_o2&#45;&gt;x1_o2 -->
<g id="edge23" class="edge">
<title>x_o2&#45;&gt;x1_o2</title>
<path fill="none" stroke="#0000ff" d="M366.6844,-512.7874C370.0314,-498.9521 374.2412,-479.3092 376,-461.7958 382.2972,-399.0909 383.1643,-382.6118 376,-320 374.4164,-306.1601 371.1013,-291.0577 367.8972,-278.5202"/>
<polygon fill="#0000ff" stroke="#0000ff" points="371.2307,-277.4365 365.2724,-268.6759 364.467,-279.2401 371.2307,-277.4365"/>
</g>
<!-- x2_o2 -->
<g id="node21" class="node">
<title>x2_o2</title>
<ellipse fill="none" stroke="#000000" cx="340" cy="-443.7958" rx="27" ry="18"/>
<text text-anchor="middle" x="340" y="-440.0958" font-family="Times,serif" font-size="14.00" fill="#000000">!d</text>
</g>
<!-- x_o2&#45;&gt;x2_o2 -->
<g id="edge24" class="edge">
<title>x_o2&#45;&gt;x2_o2</title>
<path fill="none" stroke="#0000ff" d="M357.4416,-512.7694C354.4328,-500.871 350.4312,-485.0466 347.0199,-471.5565"/>
<polygon fill="#0000ff" stroke="#0000ff" points="350.3974,-470.636 344.5526,-461.7992 343.611,-472.3521 350.3974,-470.636"/>
</g>
<!-- x2i_o2 -->
<g id="node22" class="node">
<title>x2i_o2</title>
<ellipse fill="none" stroke="#000000" cx="340" cy="-347.3979" rx="27" ry="18"/>
<text text-anchor="middle" x="340" y="-343.6979" font-family="Times,serif" font-size="14.00" fill="#000000">PiL</text>
</g>
<!-- x2_o2&#45;&gt;x2i_o2 -->
<g id="edge25" class="edge">
<title>x2_o2&#45;&gt;x2i_o2</title>
<path fill="none" stroke="#0000ff" d="M340,-425.6641C340,-411.5265 340,-391.6426 340,-375.4548"/>
<polygon fill="#0000ff" stroke="#0000ff" points="343.5001,-375.4483 340,-365.4483 336.5001,-375.4484 343.5001,-375.4483"/>
</g>
<!-- x2i_o2&#45;&gt;ret_o2 -->
<g id="edge27" class="edge">
<title>x2i_o2&#45;&gt;ret_o2</title>
<path fill="none" stroke="#0000ff" d="M330.3459,-330.1639C322.0526,-315.3592 309.9731,-293.7954 300.5148,-276.911"/>
<polygon fill="#0000ff" stroke="#0000ff" points="303.5113,-275.0987 295.5705,-268.0848 297.4043,-278.5198 303.5113,-275.0987"/>
</g>
<!-- x2i_o2&#45;&gt;x1_o2 -->
<g id="edge26" class="edge">
<title>x2i_o2&#45;&gt;x1_o2</title>
<path fill="none" stroke="#ff0000" d="M343.7618,-329.2662C346.695,-315.1286 350.8204,-295.2447 354.179,-279.0568"/>
<polygon fill="#ff0000" stroke="#ff0000" points="357.6505,-279.5529 356.255,-269.0504 350.7965,-278.1309 357.6505,-279.5529"/>
</g>
<!-- h&#45;&gt;hi_ret -->
<g id="edge38" class="edge">
<title>h&#45;&gt;hi_ret</title>
<path fill="none" stroke="#0000ff" d="M531.8329,-330.1639C540.2797,-315.3592 552.583,-293.7954 562.2164,-276.911"/>
<polygon fill="#0000ff" stroke="#0000ff" points="565.3365,-278.505 567.2522,-268.0848 559.2565,-275.036 565.3365,-278.505"/>
</g>
<!-- h&#45;&gt;h_app -->
<g id="edge37" class="edge">
<title>h&#45;&gt;h_app</title>
<path fill="none" stroke="#ff0000" d="M518.8024,-329.2662C516.3092,-315.1286 512.8027,-295.2447 509.9479,-279.0568"/>
<polygon fill="#ff0000" stroke="#ff0000" points="513.3669,-278.2906 508.1832,-269.0504 506.4732,-279.5063 513.3669,-278.2906"/>
</g>
<!-- i_i -->
<g id="node27" class="node">
<title>i_i</title>
<ellipse fill="none" stroke="#000000" cx="433" cy="-164" rx="27" ry="18"/>
<text text-anchor="middle" x="433" y="-160.3" font-family="Times,serif" font-size="14.00" fill="#000000">PiR</text>
</g>
<!-- i&#45;&gt;i_i -->
<g id="edge33" class="edge">
<title>i&#45;&gt;i_i</title>
<path fill="none" stroke="#ff0000" d="M433,-232.9735C433,-221.1918 433,-205.5607 433,-192.1581"/>
<polygon fill="#ff0000" stroke="#ff0000" points="436.5001,-192.0033 433,-182.0034 429.5001,-192.0034 436.5001,-192.0033"/>
<text text-anchor="middle" x="436.5" y="-203.8" font-family="Times,serif" font-size="14.00" fill="#000000">3</text>
</g>
<!-- il -->
<g id="node28" class="node">
<title>il</title>
<ellipse fill="none" stroke="#000000" cx="476" cy="-91" rx="27" ry="18"/>
<text text-anchor="middle" x="476" y="-87.3" font-family="Times,serif" font-size="14.00" fill="#000000">!d</text>
</g>
<!-- i_i&#45;&gt;il -->
<g id="edge34" class="edge">
<title>i_i&#45;&gt;il</title>
<path fill="none" stroke="#0000ff" d="M442.9731,-147.0688C448.2918,-138.0396 454.9465,-126.742 460.8861,-116.6585"/>
<polygon fill="#0000ff" stroke="#0000ff" points="464.0212,-118.232 466.0809,-107.8393 457.9898,-114.6793 464.0212,-118.232"/>
</g>
<!-- i_ret -->
<g id="node29" class="node">
<title>i_ret</title>
<ellipse fill="none" stroke="#000000" cx="433" cy="-18" rx="27" ry="18"/>
<text text-anchor="middle" x="433" y="-14.3" font-family="Times,serif" font-size="14.00" fill="#000000">I</text>
</g>
<!-- i_i&#45;&gt;i_ret -->
<g id="edge35" class="edge">
<title>i_i&#45;&gt;i_ret</title>
<path fill="none" stroke="#ff0000" d="M433,-145.8042C433,-120.8868 433,-75.8938 433,-46.4877"/>
<polygon fill="#ff0000" stroke="#ff0000" points="436.5001,-46.4251 433,-36.4251 429.5001,-46.4251 436.5001,-46.4251"/>
</g>
<!-- il&#45;&gt;i_ret -->
<g id="edge36" class="edge">
<title>il&#45;&gt;i_ret</title>
<path fill="none" stroke="#0000ff" d="M466.0269,-74.0688C460.7082,-65.0396 454.0535,-53.742 448.1139,-43.6585"/>
<polygon fill="#0000ff" stroke="#0000ff" points="451.0102,-41.6793 442.9191,-34.8393 444.9788,-45.232 451.0102,-41.6793"/>
</g>
</g>
</svg>
