<?xml version="1.0" encoding="UTF-8" standalone="no"?>
<!DOCTYPE svg PUBLIC "-//W3C//DTD SVG 1.1//EN"
 "http://www.w3.org/Graphics/SVG/1.1/DTD/svg11.dtd">
<!-- Generated by graphviz version 2.40.1 (20161225.0304)
 -->
<!-- Title: %3 Pages: 1 -->
<svg width="588pt" height="1143pt"
 viewBox="0.00 0.00 588.00 1143.00" xmlns="http://www.w3.org/2000/svg" xmlns:xlink="http://www.w3.org/1999/xlink">
<g id="graph0" class="graph" transform="scale(1 1) rotate(0) translate(4 1138.9954)">
<title>%3</title>
<polygon fill="#ffffff" stroke="transparent" points="-4,4 -4,-1138.9954 584,-1138.9954 584,4 -4,4"/>
<!-- Root -->
<g id="node1" class="node">
<title>Root</title>
<ellipse fill="none" stroke="#000000" cx="281" cy="-484" rx="27.8951" ry="18"/>
<text text-anchor="middle" x="281" y="-480.3" font-family="Times,serif" font-size="14.00" fill="#000000">Root</text>
</g>
<!-- f_retf -->
<g id="node2" class="node">
<title>f_retf</title>
<ellipse fill="none" stroke="#000000" cx="291" cy="-397" rx="27" ry="18"/>
<text text-anchor="middle" x="291" y="-393.3" font-family="Times,serif" font-size="14.00" fill="#000000">I</text>
</g>
<!-- Root&#45;&gt;f_retf -->
<g id="edge1" class="edge">
<title>Root&#45;&gt;f_retf</title>
<path fill="none" stroke="#ff0000" stroke-width="2" d="M283.072,-465.9735C284.4262,-454.1918 286.2229,-438.5607 287.7634,-425.1581"/>
<polygon fill="#ff0000" stroke="#ff0000" stroke-width="2" points="291.2658,-425.3376 288.9306,-415.0034 284.3115,-424.5383 291.2658,-425.3376"/>
<text text-anchor="middle" x="299.5" y="-436.8" font-family="Times,serif" font-size="14.00" fill="#000000">0&#45;&gt;1</text>
</g>
<!-- c1a -->
<g id="node3" class="node">
<title>c1a</title>
<ellipse fill="none" stroke="#000000" cx="61" cy="-1116.9954" rx="27" ry="18"/>
<text text-anchor="middle" x="61" y="-1113.2954" font-family="Times,serif" font-size="14.00" fill="#000000">Cut</text>
</g>
<!-- fp1 -->
<g id="node4" class="node">
<title>fp1</title>
<ellipse fill="none" stroke="#000000" cx="141" cy="-1029.9954" rx="27" ry="18"/>
<text text-anchor="middle" x="141" y="-1026.2954" font-family="Times,serif" font-size="14.00" fill="#000000">!p</text>
</g>
<!-- c1a&#45;&gt;fp1 -->
<g id="edge2" class="edge">
<title>c1a&#45;&gt;fp1</title>
<path fill="none" stroke="#ff0000" d="M75.3024,-1101.4415C87.7025,-1087.9565 105.8162,-1068.2577 119.8849,-1052.9581"/>
<polygon fill="#ff0000" stroke="#ff0000" points="122.629,-1055.1447 126.8214,-1045.4146 117.4763,-1050.4065 122.629,-1055.1447"/>
<text text-anchor="middle" x="108.5" y="-1069.7954" font-family="Times,serif" font-size="14.00" fill="#000000">0</text>
</g>
<!-- d2a -->
<g id="node5" class="node">
<title>d2a</title>
<ellipse fill="none" stroke="#000000" cx="40" cy="-669.9977" rx="27" ry="18"/>
<text text-anchor="middle" x="40" y="-666.2977" font-family="Times,serif" font-size="14.00" fill="#000000">Dup</text>
</g>
<!-- c1a&#45;&gt;d2a -->
<g id="edge3" class="edge">
<title>c1a&#45;&gt;d2a</title>
<path fill="none" stroke="#0000ff" d="M55.761,-1099.176C51.0947,-1081.7132 45,-1054.2602 45,-1029.9954 45,-1029.9954 45,-1029.9954 45,-768.9954 45,-745.1824 43.5392,-718.1884 42.1967,-698.4097"/>
<polygon fill="#0000ff" stroke="#0000ff" points="45.6734,-697.9565 41.4731,-688.2299 38.691,-698.4529 45.6734,-697.9565"/>
<text text-anchor="middle" x="48.5" y="-895.7954" font-family="Times,serif" font-size="14.00" fill="#000000">1</text>
</g>
<!-- f2a -->
<g id="node24" class="node">
<title>f2a</title>
<ellipse fill="none" stroke="#000000" cx="188" cy="-942.9954" rx="27" ry="18"/>
<text text-anchor="middle" x="188" y="-939.2954" font-family="Times,serif" font-size="14.00" fill="#000000">PiR</text>
</g>
<!-- fp1&#45;&gt;f2a -->
<g id="edge28" class="edge">
<title>fp1&#45;&gt;f2a</title>
<path fill="none" stroke="#ff0000" d="M150.2857,-1012.807C157.0449,-1000.2953 166.317,-983.132 173.9761,-968.9546"/>
<polygon fill="#ff0000" stroke="#ff0000" points="177.0599,-970.6099 178.7336,-960.1481 170.9011,-967.2827 177.0599,-970.6099"/>
<text text-anchor="middle" x="170.5" y="-982.7954" font-family="Times,serif" font-size="14.00" fill="#000000">1</text>
</g>
<!-- d2c -->
<g id="node23" class="node">
<title>d2c</title>
<ellipse fill="none" stroke="#000000" cx="373" cy="-397" rx="27" ry="18"/>
<text text-anchor="middle" x="373" y="-393.3" font-family="Times,serif" font-size="14.00" fill="#000000">Dup</text>
</g>
<!-- d2a&#45;&gt;d2c -->
<g id="edge31" class="edge">
<title>d2a&#45;&gt;d2c</title>
<path fill="none" stroke="#000000" stroke-dasharray="5,2" d="M54.8456,-654.9489C100.8405,-608.3508 238.2395,-469.358 244,-466 269.8973,-450.9037 282.2945,-461.6157 309,-448 327.2266,-438.7073 345.1982,-423.7321 357.4348,-412.4076"/>
</g>
<!-- hi_retpa -->
<g id="node25" class="node">
<title>hi_retpa</title>
<ellipse fill="none" stroke="#000000" cx="49" cy="-571" rx="27" ry="18"/>
<text text-anchor="middle" x="49" y="-567.3" font-family="Times,serif" font-size="14.00" fill="#000000">!p</text>
</g>
<!-- d2a&#45;&gt;hi_retpa -->
<g id="edge32" class="edge">
<title>d2a&#45;&gt;hi_retpa</title>
<path fill="none" stroke="#0000ff" d="M39.3158,-651.738C39.0812,-639.1266 39.2338,-621.9914 41,-607 41.3191,-604.2917 41.7534,-601.488 42.2559,-598.6957"/>
<polygon fill="#0000ff" stroke="#0000ff" points="45.7,-599.3233 44.2897,-588.8227 38.844,-597.9109 45.7,-599.3233"/>
<text text-anchor="middle" x="44.5" y="-610.8" font-family="Times,serif" font-size="14.00" fill="#000000">1</text>
</g>
<!-- dx -->
<g id="node6" class="node">
<title>dx</title>
<ellipse fill="none" stroke="#000000" cx="524" cy="-669.9977" rx="25.9957" ry="25.9957"/>
<ellipse fill="none" stroke="#000000" cx="524" cy="-669.9977" rx="29.9954" ry="29.9954"/>
<text text-anchor="middle" x="524" y="-666.2977" font-family="Times,serif" font-size="14.00" fill="#000000">Dup</text>
</g>
<!-- i_i2 -->
<g id="node7" class="node">
<title>i_i2</title>
<ellipse fill="none" stroke="#000000" cx="553" cy="-397" rx="27" ry="18"/>
<text text-anchor="middle" x="553" y="-393.3" font-family="Times,serif" font-size="14.00" fill="#000000">PiR</text>
</g>
<!-- dx&#45;&gt;i_i2 -->
<g id="edge4" class="edge">
<title>dx&#45;&gt;i_i2</title>
<path fill="none" stroke="#ff0000" d="M527.1865,-640.0012C532.8322,-586.8538 544.5138,-476.887 550.0134,-425.1147"/>
<polygon fill="#ff0000" stroke="#ff0000" points="553.5128,-425.3055 551.0888,-414.9917 546.5519,-424.566 553.5128,-425.3055"/>
</g>
<!-- d2d -->
<g id="node37" class="node">
<title>d2d</title>
<ellipse fill="none" stroke="#000000" cx="463" cy="-324" rx="27" ry="18"/>
<text text-anchor="middle" x="463" y="-320.3" font-family="Times,serif" font-size="14.00" fill="#000000">Dup</text>
</g>
<!-- i_i2&#45;&gt;d2d -->
<g id="edge51" class="edge">
<title>i_i2&#45;&gt;d2d</title>
<path fill="none" stroke="#0000ff" d="M535.6471,-382.9249C522.2003,-372.018 503.3761,-356.7495 488.259,-344.4878"/>
<polygon fill="#0000ff" stroke="#0000ff" points="490.2709,-341.6131 480.2996,-338.0319 485.8613,-347.0496 490.2709,-341.6131"/>
</g>
<!-- d2e -->
<g id="node38" class="node">
<title>d2e</title>
<ellipse fill="none" stroke="#000000" cx="553" cy="-324" rx="27" ry="18"/>
<text text-anchor="middle" x="553" y="-320.3" font-family="Times,serif" font-size="14.00" fill="#000000">Dup</text>
</g>
<!-- i_i2&#45;&gt;d2e -->
<g id="edge52" class="edge">
<title>i_i2&#45;&gt;d2e</title>
<path fill="none" stroke="#ff0000" d="M553,-378.9551C553,-370.8828 553,-361.1764 553,-352.1817"/>
<polygon fill="#ff0000" stroke="#ff0000" points="556.5001,-352.0903 553,-342.0904 549.5001,-352.0904 556.5001,-352.0903"/>
</g>
<!-- c1b2a -->
<g id="node8" class="node">
<title>c1b2a</title>
<ellipse fill="none" stroke="#000000" cx="360" cy="-855.9954" rx="27" ry="18"/>
<text text-anchor="middle" x="360" y="-852.2954" font-family="Times,serif" font-size="14.00" fill="#000000">Cut</text>
</g>
<!-- i2a -->
<g id="node9" class="node">
<title>i2a</title>
<ellipse fill="none" stroke="#000000" cx="523" cy="-768.9954" rx="27" ry="18"/>
<text text-anchor="middle" x="523" y="-765.2954" font-family="Times,serif" font-size="14.00" fill="#000000">!p</text>
</g>
<!-- c1b2a&#45;&gt;i2a -->
<g id="edge5" class="edge">
<title>c1b2a&#45;&gt;i2a</title>
<path fill="none" stroke="#ff0000" d="M381.3094,-844.6217C409.7416,-829.4462 460.2557,-802.4847 492.658,-785.1902"/>
<polygon fill="#ff0000" stroke="#ff0000" points="494.5114,-788.1684 501.6854,-780.3719 491.2153,-781.9929 494.5114,-788.1684"/>
<text text-anchor="middle" x="454.5" y="-808.7954" font-family="Times,serif" font-size="14.00" fill="#000000">2</text>
</g>
<!-- d1b -->
<g id="node10" class="node">
<title>d1b</title>
<ellipse fill="none" stroke="#000000" cx="188" cy="-768.9954" rx="27" ry="18"/>
<text text-anchor="middle" x="188" y="-765.2954" font-family="Times,serif" font-size="14.00" fill="#000000">Dup</text>
</g>
<!-- c1b2a&#45;&gt;d1b -->
<g id="edge6" class="edge">
<title>c1b2a&#45;&gt;d1b</title>
<path fill="none" stroke="#0000ff" d="M333.1677,-853.6715C304.9526,-850.1471 260.2592,-841.4071 228,-819.9954 217.5889,-813.0851 208.6835,-802.5736 201.9365,-792.8854"/>
<ellipse fill="none" stroke="#0000ff" cx="199.6191" cy="-789.3772" rx="4" ry="4"/>
<text text-anchor="middle" x="231.5" y="-808.7954" font-family="Times,serif" font-size="14.00" fill="#000000">1</text>
</g>
<!-- i2a&#45;&gt;dx -->
<g id="edge9" class="edge">
<title>i2a&#45;&gt;dx</title>
<path fill="none" stroke="#ff0000" d="M523.1834,-750.8377C523.2987,-739.4286 523.452,-724.2458 523.5947,-710.1204"/>
<polygon fill="#ff0000" stroke="#ff0000" points="527.0947,-710.1257 523.696,-700.0909 520.0951,-710.055 527.0947,-710.1257"/>
<text text-anchor="middle" x="526.5" y="-721.7954" font-family="Times,serif" font-size="14.00" fill="#000000">3</text>
</g>
<!-- d1b&#45;&gt;d2a -->
<g id="edge23" class="edge">
<title>d1b&#45;&gt;d2a</title>
<path fill="none" stroke="#0000ff" d="M167.2025,-757.3774C144.2777,-744.3002 106.5943,-721.9956 76,-699.9954 71.5623,-696.8042 66.9742,-693.2219 62.6204,-689.6734"/>
<ellipse fill="none" stroke="#0000ff" cx="59.5302" cy="-687.1051" rx="4" ry="4"/>
</g>
<!-- d1c -->
<g id="node13" class="node">
<title>d1c</title>
<ellipse fill="none" stroke="#000000" cx="494" cy="-571" rx="27" ry="18"/>
<text text-anchor="middle" x="494" y="-567.3" font-family="Times,serif" font-size="14.00" fill="#000000">Dup</text>
</g>
<!-- d1b&#45;&gt;d1c -->
<g id="edge10" class="edge">
<title>d1b&#45;&gt;d1c</title>
<path fill="none" stroke="#000000" stroke-dasharray="5,2" d="M165.0547,-759.399C146.4779,-750.1336 124.9228,-735.0309 135,-717.9954 161.0773,-673.9116 288.4631,-623.3577 337,-607 388.5223,-589.6362 406.1506,-605.3612 458,-589 463.0645,-587.4019 468.2948,-585.1662 473.1461,-582.8124"/>
</g>
<!-- d1d -->
<g id="node14" class="node">
<title>d1d</title>
<ellipse fill="none" stroke="#000000" cx="426" cy="-484" rx="27" ry="18"/>
<text text-anchor="middle" x="426" y="-480.3" font-family="Times,serif" font-size="14.00" fill="#000000">Dup</text>
</g>
<!-- d1b&#45;&gt;d1d -->
<g id="edge11" class="edge">
<title>d1b&#45;&gt;d1d</title>
<path fill="none" stroke="#000000" stroke-dasharray="5,2" d="M193.7834,-751.2622C207.4917,-711.5061 245.3494,-613.9668 305,-553 312.8007,-545.0272 372.2064,-512.707 404.7815,-495.275"/>
</g>
<!-- c1b2b -->
<g id="node11" class="node">
<title>c1b2b</title>
<ellipse fill="none" stroke="#000000" cx="450" cy="-768.9954" rx="27" ry="18"/>
<text text-anchor="middle" x="450" y="-765.2954" font-family="Times,serif" font-size="14.00" fill="#000000">Cut</text>
</g>
<!-- c1b2b&#45;&gt;dx -->
<g id="edge7" class="edge">
<title>c1b2b&#45;&gt;dx</title>
<path fill="none" stroke="#ff0000" stroke-width="2" d="M462.2196,-752.6479C472.7293,-738.588 488.1756,-717.9238 500.9939,-700.7754"/>
<ellipse fill="none" stroke="#ff0000" stroke-width="2" cx="503.5471" cy="-697.3598" rx="4" ry="4"/>
<text text-anchor="middle" x="490.5" y="-721.7954" font-family="Times,serif" font-size="14.00" fill="#000000">3</text>
</g>
<!-- hbg2 -->
<g id="node12" class="node">
<title>hbg2</title>
<ellipse fill="none" stroke="#000000" cx="449" cy="-669.9977" rx="27" ry="18"/>
<text text-anchor="middle" x="449" y="-666.2977" font-family="Times,serif" font-size="14.00" fill="#000000">PiL</text>
</g>
<!-- c1b2b&#45;&gt;hbg2 -->
<g id="edge8" class="edge">
<title>c1b2b&#45;&gt;hbg2</title>
<path fill="none" stroke="#0000ff" stroke-width="2" d="M449.8166,-750.8377C449.6686,-736.185 449.4577,-715.3077 449.2873,-698.44"/>
<polygon fill="#0000ff" stroke="#0000ff" stroke-width="2" points="452.7832,-698.0044 449.1823,-688.0403 445.7835,-698.0752 452.7832,-698.0044"/>
<text text-anchor="middle" x="452.5" y="-721.7954" font-family="Times,serif" font-size="14.00" fill="#000000">2</text>
</g>
<!-- hbg2&#45;&gt;d1c -->
<g id="edge19" class="edge">
<title>hbg2&#45;&gt;d1c</title>
<path fill="none" stroke="#ff0000" d="M460.5044,-653.2122C466.3009,-644.2355 473.1161,-632.8272 478,-622 481.6058,-614.0063 484.7297,-604.9647 487.2362,-596.7381"/>
<ellipse fill="none" stroke="#ff0000" cx="488.4138" cy="-592.6928" rx="4" ry="4"/>
</g>
<!-- x2i_o2g2 -->
<g id="node20" class="node">
<title>x2i_o2g2</title>
<ellipse fill="none" stroke="#000000" cx="422" cy="-571" rx="27" ry="18"/>
<text text-anchor="middle" x="422" y="-567.3" font-family="Times,serif" font-size="14.00" fill="#000000">PiL</text>
</g>
<!-- hbg2&#45;&gt;x2i_o2g2 -->
<g id="edge20" class="edge">
<title>hbg2&#45;&gt;x2i_o2g2</title>
<path fill="none" stroke="#0000ff" stroke-width="2" d="M444.0478,-651.84C440.0134,-637.0477 434.2489,-615.9118 429.626,-598.9615"/>
<polygon fill="#0000ff" stroke="#0000ff" stroke-width="2" points="432.9288,-597.7693 426.9208,-589.0426 426.1755,-599.6112 432.9288,-597.7693"/>
<text text-anchor="middle" x="448.5" y="-610.8" font-family="Times,serif" font-size="14.00" fill="#000000">2&#45;&gt;1</text>
</g>
<!-- i3 -->
<g id="node22" class="node">
<title>i3</title>
<ellipse fill="none" stroke="#000000" cx="498" cy="-484" rx="27" ry="18"/>
<text text-anchor="middle" x="498" y="-480.3" font-family="Times,serif" font-size="14.00" fill="#000000">!p</text>
</g>
<!-- d1c&#45;&gt;i3 -->
<g id="edge24" class="edge">
<title>d1c&#45;&gt;i3</title>
<path fill="none" stroke="#ff0000" d="M494.8288,-552.9735C495.3705,-541.1918 496.0892,-525.5607 496.7054,-512.1581"/>
<polygon fill="#ff0000" stroke="#ff0000" points="500.2092,-512.1536 497.1723,-502.0034 493.2166,-511.832 500.2092,-512.1536"/>
</g>
<!-- d1d&#45;&gt;d2c -->
<g id="edge25" class="edge">
<title>d1d&#45;&gt;d2c</title>
<path fill="none" stroke="#ff0000" d="M415.7811,-467.2255C407.7157,-453.9862 396.3654,-435.3545 387.3824,-420.6089"/>
<ellipse fill="none" stroke="#ff0000" cx="385.2686" cy="-417.139" rx="4" ry="4"/>
</g>
<!-- xdicg1 -->
<g id="node15" class="node">
<title>xdicg1</title>
<ellipse fill="none" stroke="#000000" cx="188" cy="-855.9954" rx="27" ry="18"/>
<text text-anchor="middle" x="188" y="-852.2954" font-family="Times,serif" font-size="14.00" fill="#000000">!c</text>
</g>
<!-- xdicg1&#45;&gt;d1b -->
<g id="edge12" class="edge">
<title>xdicg1&#45;&gt;d1b</title>
<path fill="none" stroke="#0000ff" d="M188,-837.9689C188,-826.1872 188,-810.556 188,-797.1535"/>
<polygon fill="#0000ff" stroke="#0000ff" points="191.5001,-796.9987 188,-786.9987 184.5001,-796.9988 191.5001,-796.9987"/>
</g>
<!-- h_di2g1 -->
<g id="node16" class="node">
<title>h_di2g1</title>
<ellipse fill="none" stroke="#000000" cx="305" cy="-768.9954" rx="27" ry="18"/>
<text text-anchor="middle" x="305" y="-765.2954" font-family="Times,serif" font-size="14.00" fill="#000000">!d</text>
</g>
<!-- xdicg1&#45;&gt;h_di2g1 -->
<g id="edge13" class="edge">
<title>xdicg1&#45;&gt;h_di2g1</title>
<path fill="none" stroke="#0000ff" d="M206.0248,-842.5923C225.3782,-828.2014 256.3237,-805.1906 278.46,-788.7303"/>
<polygon fill="#0000ff" stroke="#0000ff" points="280.8257,-791.3327 286.7619,-782.557 276.6488,-785.7155 280.8257,-791.3327"/>
<text text-anchor="middle" x="256.5" y="-808.7954" font-family="Times,serif" font-size="14.00" fill="#000000">1</text>
</g>
<!-- hbg1 -->
<g id="node17" class="node">
<title>hbg1</title>
<ellipse fill="none" stroke="#000000" cx="341" cy="-669.9977" rx="27" ry="18"/>
<text text-anchor="middle" x="341" y="-666.2977" font-family="Times,serif" font-size="14.00" fill="#000000">PiL</text>
</g>
<!-- h_di2g1&#45;&gt;hbg1 -->
<g id="edge14" class="edge">
<title>h_di2g1&#45;&gt;hbg1</title>
<path fill="none" stroke="#0000ff" d="M311.4361,-751.2966C316.9137,-736.2334 324.869,-714.3568 331.1479,-697.0904"/>
<polygon fill="#0000ff" stroke="#0000ff" points="334.4913,-698.1373 334.6196,-687.5433 327.9128,-695.745 334.4913,-698.1373"/>
<text text-anchor="middle" x="326.5" y="-721.7954" font-family="Times,serif" font-size="14.00" fill="#000000">2</text>
</g>
<!-- hbg1&#45;&gt;d1c -->
<g id="edge15" class="edge">
<title>hbg1&#45;&gt;d1c</title>
<path fill="none" stroke="#ff0000" d="M364.0665,-660.3494C395.4731,-647.1654 448.2461,-624.8243 452,-622 461.4465,-614.893 470.0941,-605.2424 477.0551,-596.2482"/>
<polygon fill="#ff0000" stroke="#ff0000" points="480.0695,-598.0574 483.1832,-587.9305 474.4338,-593.9053 480.0695,-598.0574"/>
</g>
<!-- x2i_o2g1 -->
<g id="node18" class="node">
<title>x2i_o2g1</title>
<ellipse fill="none" stroke="#000000" cx="341" cy="-571" rx="27" ry="18"/>
<text text-anchor="middle" x="341" y="-567.3" font-family="Times,serif" font-size="14.00" fill="#000000">PiL</text>
</g>
<!-- hbg1&#45;&gt;x2i_o2g1 -->
<g id="edge16" class="edge">
<title>hbg1&#45;&gt;x2i_o2g1</title>
<path fill="none" stroke="#0000ff" d="M341,-651.84C341,-637.1873 341,-616.31 341,-599.4423"/>
<polygon fill="#0000ff" stroke="#0000ff" points="344.5001,-599.0426 341,-589.0426 337.5001,-599.0426 344.5001,-599.0426"/>
<text text-anchor="middle" x="354.5" y="-610.8" font-family="Times,serif" font-size="14.00" fill="#000000">2&#45;&gt;1</text>
</g>
<!-- x2i_o2g1&#45;&gt;d1d -->
<g id="edge17" class="edge">
<title>x2i_o2g1&#45;&gt;d1d</title>
<path fill="none" stroke="#ff0000" d="M355.8059,-555.8458C369.1314,-542.2067 388.8905,-521.9826 404.0529,-506.4635"/>
<polygon fill="#ff0000" stroke="#ff0000" points="406.5937,-508.8713 411.0786,-499.2725 401.5867,-503.9794 406.5937,-508.8713"/>
</g>
<!-- f_retg1 -->
<g id="node19" class="node">
<title>f_retg1</title>
<ellipse fill="none" stroke="#000000" cx="170" cy="-484" rx="27" ry="18"/>
<text text-anchor="middle" x="170" y="-480.3" font-family="Times,serif" font-size="14.00" fill="#000000">I</text>
</g>
<!-- x2i_o2g1&#45;&gt;f_retg1 -->
<g id="edge18" class="edge">
<title>x2i_o2g1&#45;&gt;f_retg1</title>
<path fill="none" stroke="#0000ff" d="M321.7962,-558.1757C305.0757,-547.2955 279.9801,-531.6441 257,-520 239.7327,-511.2506 219.8239,-502.8924 203.4124,-496.4357"/>
<polygon fill="#0000ff" stroke="#0000ff" points="204.2898,-493.0223 193.7007,-492.6748 201.7619,-499.5499 204.2898,-493.0223"/>
</g>
<!-- x2i_o2g2&#45;&gt;d1d -->
<g id="edge21" class="edge">
<title>x2i_o2g2&#45;&gt;d1d</title>
<path fill="none" stroke="#ff0000" d="M422.8288,-552.9735C423.3973,-540.6085 424.1608,-524.0036 424.7961,-510.1847"/>
<ellipse fill="none" stroke="#ff0000" cx="424.9885" cy="-505.9991" rx="4" ry="4"/>
</g>
<!-- x2i_o2f -->
<g id="node21" class="node">
<title>x2i_o2f</title>
<ellipse fill="none" stroke="#000000" cx="354" cy="-484" rx="27" ry="18"/>
<text text-anchor="middle" x="354" y="-480.3" font-family="Times,serif" font-size="14.00" fill="#000000">PiL</text>
</g>
<!-- x2i_o2g2&#45;&gt;x2i_o2f -->
<g id="edge22" class="edge">
<title>x2i_o2g2&#45;&gt;x2i_o2f</title>
<path fill="none" stroke="#0000ff" stroke-width="2" d="M409.2097,-554.636C398.9826,-541.5513 384.4927,-523.0127 372.9233,-508.2107"/>
<polygon fill="#0000ff" stroke="#0000ff" stroke-width="2" points="375.419,-505.7202 366.5032,-499.9967 369.9038,-510.031 375.419,-505.7202"/>
</g>
<!-- x2i_o2f&#45;&gt;f_retf -->
<g id="edge30" class="edge">
<title>x2i_o2f&#45;&gt;f_retf</title>
<path fill="none" stroke="#0000ff" stroke-width="2" d="M342.1502,-467.636C332.7347,-454.6336 319.4193,-436.2457 308.7344,-421.4904"/>
<polygon fill="#0000ff" stroke="#0000ff" stroke-width="2" points="311.4966,-419.3373 302.7967,-413.2907 305.827,-423.4429 311.4966,-419.3373"/>
</g>
<!-- x2i_o2f&#45;&gt;d2c -->
<g id="edge29" class="edge">
<title>x2i_o2f&#45;&gt;d2c</title>
<path fill="none" stroke="#ff0000" d="M357.9368,-465.9735C360.5098,-454.1918 363.9235,-438.5607 366.8505,-425.1581"/>
<polygon fill="#ff0000" stroke="#ff0000" points="370.3539,-425.5199 369.0682,-415.0034 363.5151,-424.0263 370.3539,-425.5199"/>
</g>
<!-- i_i3 -->
<g id="node39" class="node">
<title>i_i3</title>
<ellipse fill="none" stroke="#000000" cx="481" cy="-397" rx="27" ry="18"/>
<text text-anchor="middle" x="481" y="-393.3" font-family="Times,serif" font-size="14.00" fill="#000000">PiR</text>
</g>
<!-- i3&#45;&gt;i_i3 -->
<g id="edge55" class="edge">
<title>i3&#45;&gt;i_i3</title>
<path fill="none" stroke="#ff0000" d="M494.4776,-465.9735C492.1754,-454.1918 489.121,-438.5607 486.5022,-425.1581"/>
<polygon fill="#ff0000" stroke="#ff0000" points="489.8708,-424.1465 484.5179,-415.0034 483.0007,-425.489 489.8708,-424.1465"/>
<text text-anchor="middle" x="493.5" y="-436.8" font-family="Times,serif" font-size="14.00" fill="#000000">3</text>
</g>
<!-- x1_o2 -->
<g id="node26" class="node">
<title>x1_o2</title>
<ellipse fill="none" stroke="#000000" cx="295" cy="-324" rx="27" ry="18"/>
<text text-anchor="middle" x="295" y="-320.3" font-family="Times,serif" font-size="14.00" fill="#000000">I</text>
</g>
<!-- d2c&#45;&gt;x1_o2 -->
<g id="edge33" class="edge">
<title>d2c&#45;&gt;x1_o2</title>
<path fill="none" stroke="#ff0000" d="M357.2155,-382.2274C346.0088,-371.739 330.781,-357.4874 318.1959,-345.709"/>
<polygon fill="#ff0000" stroke="#ff0000" points="320.4538,-343.0284 310.761,-338.7507 315.6706,-348.1393 320.4538,-343.0284"/>
</g>
<!-- d2c&#45;&gt;d2d -->
<g id="edge47" class="edge">
<title>d2c&#45;&gt;d2d</title>
<path fill="none" stroke="#000000" stroke-dasharray="5,2" d="M390.3529,-382.9249C406.2899,-369.9982 429.7803,-350.9449 445.7004,-338.0319"/>
</g>
<!-- f2a&#45;&gt;xdicg1 -->
<g id="edge27" class="edge">
<title>f2a&#45;&gt;xdicg1</title>
<path fill="none" stroke="#0000ff" d="M188,-924.9689C188,-913.1872 188,-897.556 188,-884.1535"/>
<polygon fill="#0000ff" stroke="#0000ff" points="191.5001,-883.9987 188,-873.9987 184.5001,-883.9988 191.5001,-883.9987"/>
</g>
<!-- f2a&#45;&gt;f_retg1 -->
<g id="edge26" class="edge">
<title>f2a&#45;&gt;f_retg1</title>
<path fill="none" stroke="#ff0000" d="M204.5018,-928.4245C220.7024,-912.4287 243,-885.1223 243,-855.9954 243,-855.9954 243,-855.9954 243,-571 243,-542.0601 219.0028,-517.7061 198.5259,-502.1927"/>
<polygon fill="#ff0000" stroke="#ff0000" points="200.4951,-499.2977 190.3346,-496.2951 196.405,-504.9785 200.4951,-499.2977"/>
</g>
<!-- hi_ret1 -->
<g id="node27" class="node">
<title>hi_ret1</title>
<ellipse fill="none" stroke="#000000" cx="27" cy="-324" rx="27" ry="18"/>
<text text-anchor="middle" x="27" y="-320.3" font-family="Times,serif" font-size="14.00" fill="#000000">I</text>
</g>
<!-- hi_retpa&#45;&gt;hi_ret1 -->
<g id="edge44" class="edge">
<title>hi_retpa&#45;&gt;hi_ret1</title>
<path fill="none" stroke="#ff0000" d="M40.7775,-553.5956C34.7909,-539.916 27.1948,-520.1964 24,-502 14.8212,-449.7214 19.3074,-387.4796 23.2553,-352.1686"/>
<polygon fill="#ff0000" stroke="#ff0000" points="26.7455,-352.458 24.4475,-342.1154 19.7942,-351.6336 26.7455,-352.458"/>
<text text-anchor="middle" x="22.5" y="-436.8" font-family="Times,serif" font-size="14.00" fill="#000000">2</text>
</g>
<!-- h_di1 -->
<g id="node35" class="node">
<title>h_di1</title>
<ellipse fill="none" stroke="#000000" cx="60" cy="-484" rx="27" ry="18"/>
<text text-anchor="middle" x="60" y="-480.3" font-family="Times,serif" font-size="14.00" fill="#000000">!d</text>
</g>
<!-- hi_retpa&#45;&gt;h_di1 -->
<g id="edge45" class="edge">
<title>hi_retpa&#45;&gt;h_di1</title>
<path fill="none" stroke="#0000ff" d="M51.2792,-552.9735C52.7689,-541.1918 54.7452,-525.5607 56.4398,-512.1581"/>
<polygon fill="#0000ff" stroke="#0000ff" points="59.9416,-512.3634 57.7237,-502.0034 52.9969,-511.4853 59.9416,-512.3634"/>
<text text-anchor="middle" x="58.5" y="-523.8" font-family="Times,serif" font-size="14.00" fill="#000000">1</text>
</g>
<!-- d4a -->
<g id="node28" class="node">
<title>d4a</title>
<ellipse fill="none" stroke="#000000" cx="419" cy="-164" rx="27" ry="18"/>
<text text-anchor="middle" x="419" y="-160.3" font-family="Times,serif" font-size="14.00" fill="#000000">Dup</text>
</g>
<!-- d4b -->
<g id="node29" class="node">
<title>d4b</title>
<ellipse fill="none" stroke="#000000" cx="509" cy="-164" rx="27" ry="18"/>
<text text-anchor="middle" x="509" y="-160.3" font-family="Times,serif" font-size="14.00" fill="#000000">Dup</text>
</g>
<!-- d4a&#45;&gt;d4b -->
<g id="edge34" class="edge">
<title>d4a&#45;&gt;d4b</title>
<path fill="none" stroke="#000000" stroke-dasharray="5,2" d="M446.0703,-164C458.0335,-164 469.9967,-164 481.9599,-164"/>
</g>
<!-- il -->
<g id="node30" class="node">
<title>il</title>
<ellipse fill="none" stroke="#000000" cx="445" cy="-91" rx="27" ry="18"/>
<text text-anchor="middle" x="445" y="-87.3" font-family="Times,serif" font-size="14.00" fill="#000000">!d</text>
</g>
<!-- d4a&#45;&gt;il -->
<g id="edge35" class="edge">
<title>d4a&#45;&gt;il</title>
<path fill="none" stroke="#0000ff" d="M425.2939,-146.3287C428.2738,-137.962 431.9011,-127.7776 435.2275,-118.4382"/>
<polygon fill="#0000ff" stroke="#0000ff" points="438.6158,-119.3562 438.674,-108.7615 432.0216,-117.0075 438.6158,-119.3562"/>
</g>
<!-- i_ret -->
<g id="node31" class="node">
<title>i_ret</title>
<ellipse fill="none" stroke="#000000" cx="476" cy="-18" rx="27" ry="18"/>
<text text-anchor="middle" x="476" y="-14.3" font-family="Times,serif" font-size="14.00" fill="#000000">I</text>
</g>
<!-- d4b&#45;&gt;i_ret -->
<g id="edge36" class="edge">
<title>d4b&#45;&gt;i_ret</title>
<path fill="none" stroke="#ff0000" d="M504.9536,-146.0975C499.3127,-121.141 489.0292,-75.6445 482.3585,-46.1314"/>
<polygon fill="#ff0000" stroke="#ff0000" points="485.6982,-45.0312 480.0795,-36.0489 478.8704,-46.5745 485.6982,-45.0312"/>
</g>
<!-- il&#45;&gt;i_ret -->
<g id="edge56" class="edge">
<title>il&#45;&gt;i_ret</title>
<path fill="none" stroke="#0000ff" d="M452.5042,-73.3287C456.1216,-64.8103 460.5392,-54.4078 464.5635,-44.9312"/>
<polygon fill="#0000ff" stroke="#0000ff" points="467.8776,-46.0811 468.5649,-35.5085 461.4345,-43.3449 467.8776,-46.0811"/>
</g>
<!-- i_i1 -->
<g id="node32" class="node">
<title>i_i1</title>
<ellipse fill="none" stroke="#000000" cx="408" cy="-237" rx="27" ry="18"/>
<text text-anchor="middle" x="408" y="-233.3" font-family="Times,serif" font-size="14.00" fill="#000000">PiR</text>
</g>
<!-- i_i1&#45;&gt;d4a -->
<g id="edge37" class="edge">
<title>i_i1&#45;&gt;d4a</title>
<path fill="none" stroke="#0000ff" d="M410.7191,-218.9551C411.9355,-210.8828 413.3981,-201.1764 414.7534,-192.1817"/>
<polygon fill="#0000ff" stroke="#0000ff" points="418.2449,-192.5003 416.2741,-182.0904 411.323,-191.4572 418.2449,-192.5003"/>
</g>
<!-- i_i1&#45;&gt;d4b -->
<g id="edge38" class="edge">
<title>i_i1&#45;&gt;d4b</title>
<path fill="none" stroke="#ff0000" d="M426.525,-223.6107C442.1859,-212.2914 464.8165,-195.9346 482.4119,-183.2172"/>
<polygon fill="#ff0000" stroke="#ff0000" points="484.538,-185.999 490.5925,-177.3044 480.4375,-180.3257 484.538,-185.999"/>
</g>
<!-- ha -->
<g id="node33" class="node">
<title>ha</title>
<ellipse fill="none" stroke="#000000" cx="60" cy="-397" rx="27" ry="18"/>
<text text-anchor="middle" x="60" y="-393.3" font-family="Times,serif" font-size="14.00" fill="#000000">PiL</text>
</g>
<!-- ha&#45;&gt;hi_ret1 -->
<g id="edge40" class="edge">
<title>ha&#45;&gt;hi_ret1</title>
<path fill="none" stroke="#0000ff" d="M52.1795,-379.7C48.2627,-371.0357 43.4338,-360.3535 39.0558,-350.669"/>
<polygon fill="#0000ff" stroke="#0000ff" points="42.1873,-349.0992 34.8788,-341.4288 35.8088,-351.9827 42.1873,-349.0992"/>
</g>
<!-- i1 -->
<g id="node34" class="node">
<title>i1</title>
<ellipse fill="none" stroke="#000000" cx="133" cy="-324" rx="27" ry="18"/>
<text text-anchor="middle" x="133" y="-320.3" font-family="Times,serif" font-size="14.00" fill="#000000">!p</text>
</g>
<!-- ha&#45;&gt;i1 -->
<g id="edge39" class="edge">
<title>ha&#45;&gt;i1</title>
<path fill="none" stroke="#ff0000" d="M75.1256,-381.8744C85.403,-371.597 99.1712,-357.8288 110.7001,-346.2999"/>
<polygon fill="#ff0000" stroke="#ff0000" points="113.2975,-348.6523 117.8937,-339.1063 108.3477,-343.7025 113.2975,-348.6523"/>
</g>
<!-- i1&#45;&gt;i_i1 -->
<g id="edge46" class="edge">
<title>i1&#45;&gt;i_i1</title>
<path fill="none" stroke="#ff0000" d="M157.4044,-316.2793C206.5105,-300.7439 317.365,-265.6736 373.7189,-247.8453"/>
<polygon fill="#ff0000" stroke="#ff0000" points="374.7764,-251.1818 383.255,-244.8284 372.665,-244.5078 374.7764,-251.1818"/>
<text text-anchor="middle" x="289.5" y="-276.8" font-family="Times,serif" font-size="14.00" fill="#000000">3</text>
</g>
<!-- h_di1&#45;&gt;ha -->
<g id="edge41" class="edge">
<title>h_di1&#45;&gt;ha</title>
<path fill="none" stroke="#0000ff" d="M60,-465.9735C60,-454.1918 60,-438.5607 60,-425.1581"/>
<polygon fill="#0000ff" stroke="#0000ff" points="63.5001,-425.0033 60,-415.0034 56.5001,-425.0034 63.5001,-425.0033"/>
<text text-anchor="middle" x="63.5" y="-436.8" font-family="Times,serif" font-size="14.00" fill="#000000">2</text>
</g>
<!-- c2a -->
<g id="node36" class="node">
<title>c2a</title>
<ellipse fill="none" stroke="#000000" cx="112" cy="-669.9977" rx="27" ry="18"/>
<text text-anchor="middle" x="112" y="-666.2977" font-family="Times,serif" font-size="14.00" fill="#000000">Cut</text>
</g>
<!-- c2a&#45;&gt;hi_retpa -->
<g id="edge42" class="edge">
<title>c2a&#45;&gt;hi_retpa</title>
<path fill="none" stroke="#ff0000" d="M101.3129,-653.2041C91.4476,-637.7019 76.6526,-614.4531 65.3112,-596.6312"/>
<polygon fill="#ff0000" stroke="#ff0000" points="68.0612,-594.4335 59.7395,-587.876 62.1556,-598.1917 68.0612,-594.4335"/>
<text text-anchor="middle" x="83.5" y="-610.8" font-family="Times,serif" font-size="14.00" fill="#000000">1</text>
</g>
<!-- c2a&#45;&gt;x1_o2 -->
<g id="edge43" class="edge">
<title>c2a&#45;&gt;x1_o2</title>
<path fill="none" stroke="#0000ff" d="M112.8839,-651.7566C113.7688,-631.8973 115,-599.1998 115,-571 115,-571 115,-571 115,-397 115,-366.2549 206.3218,-342.272 258.8719,-331.0165"/>
<polygon fill="#0000ff" stroke="#0000ff" points="259.7536,-334.4079 268.8265,-328.9368 258.322,-327.5559 259.7536,-334.4079"/>
</g>
<!-- d2d&#45;&gt;d4a -->
<g id="edge49" class="edge">
<title>d2d&#45;&gt;d4a</title>
<path fill="none" stroke="#0000ff" d="M461.0983,-305.8389C458.5634,-284.6428 453.2811,-248.7062 444,-219 440.8232,-208.8321 436.2323,-198.0753 431.8492,-188.7973"/>
<ellipse fill="none" stroke="#0000ff" cx="430.0007" cy="-184.9945" rx="4" ry="4"/>
</g>
<!-- d2d&#45;&gt;d2e -->
<g id="edge48" class="edge">
<title>d2d&#45;&gt;d2e</title>
<path fill="none" stroke="#000000" stroke-dasharray="5,2" d="M490.0703,-324C502.0335,-324 513.9967,-324 525.9599,-324"/>
</g>
<!-- d2e&#45;&gt;d4b -->
<g id="edge50" class="edge">
<title>d2e&#45;&gt;d4b</title>
<path fill="none" stroke="#ff0000" d="M548.1231,-306.2659C540.3262,-277.9133 525.0198,-222.254 516.0377,-189.5915"/>
<ellipse fill="none" stroke="#ff0000" cx="514.9594" cy="-185.6704" rx="4" ry="4"/>
</g>
<!-- i_i3&#45;&gt;d2d -->
<g id="edge53" class="edge">
<title>i_i3&#45;&gt;d2d</title>
<path fill="none" stroke="#0000ff" d="M476.5506,-378.9551C474.3708,-370.1149 471.7078,-359.3149 469.3212,-349.6361"/>
<ellipse fill="none" stroke="#0000ff" cx="468.3559" cy="-345.7211" rx="4" ry="4"/>
</g>
<!-- i_i3&#45;&gt;d2e -->
<g id="edge54" class="edge">
<title>i_i3&#45;&gt;d2e</title>
<path fill="none" stroke="#ff0000" d="M495.9184,-381.8744C506.4412,-371.2055 520.6742,-356.7747 532.2952,-344.9923"/>
<ellipse fill="none" stroke="#ff0000" cx="535.2918" cy="-341.9541" rx="4" ry="4"/>
</g>
</g>
</svg>
