<?xml version="1.0" encoding="UTF-8" standalone="no"?>
<!DOCTYPE svg PUBLIC "-//W3C//DTD SVG 1.1//EN"
 "http://www.w3.org/Graphics/SVG/1.1/DTD/svg11.dtd">
<!-- Generated by graphviz version 2.40.1 (20161225.0304)
 -->
<!-- Title: foo Pages: 1 -->
<svg width="1152pt" height="547pt"
 viewBox="0.00 0.00 1151.62 547.00" xmlns="http://www.w3.org/2000/svg" xmlns:xlink="http://www.w3.org/1999/xlink">
<g id="graph0" class="graph" transform="scale(1 1) rotate(0) translate(4 543)">
<title>foo</title>
<polygon fill="#ffffff" stroke="transparent" points="-4,4 -4,-543 1147.6159,-543 1147.6159,4 -4,4"/>
<g id="clust2" class="cluster">
<title>cluster_keys</title>
<polygon fill="#d3d3d3" stroke="#d3d3d3" points="8,-8 8,-531 131.8904,-531 131.8904,-8 8,-8"/>
</g>
<!-- IKey -->
<g id="node1" class="node">
<title>IKey</title>
<ellipse fill="none" stroke="#000000" cx="254.782" cy="-263" rx="79.0865" ry="18"/>
<text text-anchor="middle" x="254.782" y="-259.3" font-family="Times,serif" font-size="14.00" fill="#000000">Input keystate</text>
</g>
<!-- Rule engine -->
<g id="node8" class="node">
<title>Rule engine</title>
<ellipse fill="none" stroke="#000000" cx="451.3178" cy="-263" rx="65.7887" ry="18"/>
<text text-anchor="middle" x="451.3178" y="-259.3" font-family="Times,serif" font-size="14.00" fill="#000000">Rule engine</text>
</g>
<!-- IKey&#45;&gt;Rule engine -->
<g id="edge6" class="edge">
<title>IKey&#45;&gt;Rule engine</title>
<path fill="none" stroke="#000000" d="M334.1541,-263C347.7373,-263 361.8211,-263 375.3138,-263"/>
<polygon fill="#000000" stroke="#000000" points="375.4985,-266.5001 385.4984,-263 375.4984,-259.5001 375.4985,-266.5001"/>
</g>
<!-- Changes -->
<g id="node12" class="node">
<title>Changes</title>
<ellipse fill="none" stroke="#000000" cx="451.3178" cy="-317" rx="51.1914" ry="18"/>
<text text-anchor="middle" x="451.3178" y="-313.3" font-family="Times,serif" font-size="14.00" fill="#000000">Changes</text>
</g>
<!-- IKey&#45;&gt;Changes -->
<g id="edge10" class="edge">
<title>IKey&#45;&gt;Changes</title>
<path fill="none" stroke="#000000" d="M305.3948,-276.9063C334.6957,-284.957 371.4551,-295.057 400.7486,-303.1056"/>
<polygon fill="#000000" stroke="#000000" points="400.2042,-306.5857 410.7742,-305.8603 402.0589,-299.8359 400.2042,-306.5857"/>
</g>
<!-- IKey2 -->
<g id="node2" class="node">
<title>IKey2</title>
<ellipse fill="none" stroke="#000000" cx="254.782" cy="-317" rx="94.7833" ry="18"/>
<text text-anchor="middle" x="254.782" y="-313.3" font-family="Times,serif" font-size="14.00" fill="#000000">Modified keystate</text>
</g>
<!-- IKey2&#45;&gt;Changes -->
<g id="edge11" class="edge">
<title>IKey2&#45;&gt;Changes</title>
<path fill="none" stroke="#000000" d="M349.8835,-317C363.356,-317 376.9078,-317 389.5248,-317"/>
<polygon fill="#000000" stroke="#000000" points="389.8809,-320.5001 399.8809,-317 389.8809,-313.5001 389.8809,-320.5001"/>
</g>
<!-- Files -->
<g id="node3" class="node">
<title>Files</title>
<ellipse fill="#ffffff" stroke="#ffffff" cx="69.9452" cy="-490" rx="33.2948" ry="33.2948"/>
<text text-anchor="middle" x="69.9452" y="-486.3" font-family="Times,serif" font-size="14.00" fill="#000000">Files</text>
</g>
<!-- Files&#45;&gt;IKey -->
<g id="edge1" class="edge">
<title>Files&#45;&gt;IKey</title>
<path fill="none" stroke="#000000" d="M100.1424,-476.1138C111.8124,-469.2619 124.1861,-459.8838 131.8904,-448 170.6858,-388.159 112.0935,-342.929 159.8904,-290 164.8625,-284.4941 170.8683,-280.0784 177.4159,-276.5416"/>
<polygon fill="#000000" stroke="#000000" points="179.0497,-279.6417 186.6339,-272.2437 176.0916,-273.2974 179.0497,-279.6417"/>
</g>
<!-- Network -->
<g id="node4" class="node">
<title>Network</title>
<ellipse fill="#ffffff" stroke="#ffffff" cx="69.9452" cy="-387" rx="51.9908" ry="51.9908"/>
<text text-anchor="middle" x="69.9452" y="-383.3" font-family="Times,serif" font-size="14.00" fill="#000000">Network</text>
</g>
<!-- Network&#45;&gt;IKey -->
<g id="edge2" class="edge">
<title>Network&#45;&gt;IKey</title>
<path fill="none" stroke="#000000" d="M107.7714,-351.3228C115.9339,-343.1952 124.3662,-334.4575 131.8904,-326 145.3633,-310.8559 143.0868,-301.3359 159.8904,-290 167.1121,-285.1282 175.2096,-281.1265 183.5499,-277.8415"/>
<polygon fill="#000000" stroke="#000000" points="184.8111,-281.1074 193.0359,-274.4288 182.4415,-274.5207 184.8111,-281.1074"/>
</g>
<!-- Database -->
<g id="node5" class="node">
<title>Database</title>
<ellipse fill="#ffffff" stroke="#ffffff" cx="69.9452" cy="-263" rx="53.8905" ry="53.8905"/>
<text text-anchor="middle" x="69.9452" y="-259.3" font-family="Times,serif" font-size="14.00" fill="#000000">Database</text>
</g>
<!-- Database&#45;&gt;IKey -->
<g id="edge3" class="edge">
<title>Database&#45;&gt;IKey</title>
<path fill="none" stroke="#000000" d="M123.9045,-263C136.852,-263 151.0253,-263 165.1132,-263"/>
<polygon fill="#000000" stroke="#000000" points="165.3376,-266.5001 175.3376,-263 165.3376,-259.5001 165.3376,-266.5001"/>
</g>
<!-- Journal -->
<g id="node6" class="node">
<title>Journal</title>
<ellipse fill="#ffffff" stroke="#ffffff" cx="69.9452" cy="-147" rx="44.393" ry="44.393"/>
<text text-anchor="middle" x="69.9452" y="-143.3" font-family="Times,serif" font-size="14.00" fill="#000000">Journal</text>
</g>
<!-- Journal&#45;&gt;IKey -->
<g id="edge4" class="edge">
<title>Journal&#45;&gt;IKey</title>
<path fill="none" stroke="#000000" d="M107.7957,-170.7542C140.4267,-191.2328 187.1978,-220.5855 219.1624,-240.6458"/>
<polygon fill="#000000" stroke="#000000" points="217.4307,-243.6912 227.7614,-246.0424 221.1517,-237.7621 217.4307,-243.6912"/>
</g>
<!-- Time -->
<g id="node7" class="node">
<title>Time</title>
<ellipse fill="#ffffff" stroke="#ffffff" cx="69.9452" cy="-50" rx="34.394" ry="34.394"/>
<text text-anchor="middle" x="69.9452" y="-46.3" font-family="Times,serif" font-size="14.00" fill="#000000">Time</text>
</g>
<!-- Time&#45;&gt;IKey -->
<g id="edge5" class="edge">
<title>Time&#45;&gt;IKey</title>
<path fill="none" stroke="#000000" d="M99.5242,-68.1256C110.3151,-75.4574 122.2297,-84.4461 131.8904,-94 176.9976,-138.6083 217.8235,-201.1322 239.1692,-236.2802"/>
<polygon fill="#000000" stroke="#000000" points="236.2655,-238.2434 244.4141,-245.0147 242.2667,-234.6398 236.2655,-238.2434"/>
</g>
<!-- OKey -->
<g id="node9" class="node">
<title>OKey</title>
<ellipse fill="none" stroke="#000000" cx="1050.0242" cy="-243" rx="87.1846" ry="18"/>
<text text-anchor="middle" x="1050.0242" y="-239.3" font-family="Times,serif" font-size="14.00" fill="#000000">Output keystate</text>
</g>
<!-- Rule engine&#45;&gt;OKey -->
<g id="edge7" class="edge">
<title>Rule engine&#45;&gt;OKey</title>
<path fill="none" stroke="#000000" d="M502.2482,-251.5945C518.3796,-248.4904 536.3392,-245.5571 552.9619,-244 692.5141,-230.9274 855.0731,-234.0403 955.2697,-238.0629"/>
<polygon fill="#000000" stroke="#000000" points="955.233,-241.5643 965.3689,-238.48 955.5219,-234.5702 955.233,-241.5643"/>
</g>
<!-- Traces -->
<g id="node11" class="node">
<title>Traces</title>
<ellipse fill="none" stroke="#000000" cx="595.2082" cy="-271" rx="42.4939" ry="18"/>
<text text-anchor="middle" x="595.2082" y="-267.3" font-family="Times,serif" font-size="14.00" fill="#000000">Traces</text>
</g>
<!-- Rule engine&#45;&gt;Traces -->
<g id="edge9" class="edge">
<title>Rule engine&#45;&gt;Traces</title>
<path fill="none" stroke="#000000" d="M515.7985,-264.5819C524.9415,-265.0902 534.2495,-265.6077 543.123,-266.1011"/>
<path fill="none" stroke="#000000" d="M515.6875,-266.5788C524.8305,-267.0871 534.1385,-267.6047 543.012,-268.098"/>
<path fill="none" stroke="#000000" d="M515.5765,-268.5757C524.7194,-269.0841 534.0274,-269.6016 542.901,-270.0949"/>
<polygon fill="#000000" stroke="#000000" points="543.0143,-271.6034 553.1932,-268.6641 543.403,-264.6142 543.0143,-271.6034"/>
</g>
<!-- OKey2 -->
<g id="node10" class="node">
<title>OKey2</title>
<ellipse fill="none" stroke="#000000" cx="1050.0242" cy="-315" rx="93.6835" ry="18"/>
<text text-anchor="middle" x="1050.0242" y="-311.3" font-family="Times,serif" font-size="14.00" fill="#000000">Updated keystate</text>
</g>
<!-- Traces&#45;&gt;OKey -->
<g id="edge8" class="edge">
<title>Traces&#45;&gt;OKey</title>
<path fill="none" stroke="#000000" d="M647.2507,-267.7961C725.2366,-262.995 873.195,-253.8862 966.4384,-248.1458"/>
<polygon fill="#000000" stroke="#000000" points="646.947,-264.3081 637.181,-268.416 647.3772,-271.2948 646.947,-264.3081"/>
</g>
<!-- Incremental rule engine -->
<g id="node13" class="node">
<title>Incremental rule engine</title>
<ellipse fill="none" stroke="#000000" cx="796.9435" cy="-315" rx="123.4781" ry="18"/>
<text text-anchor="middle" x="796.9435" y="-311.3" font-family="Times,serif" font-size="14.00" fill="#000000">Incremental rule engine</text>
</g>
<!-- Traces&#45;&gt;Incremental rule engine -->
<g id="edge12" class="edge">
<title>Traces&#45;&gt;Incremental rule engine</title>
<path fill="none" stroke="#000000" d="M633.1531,-279.2761C657.1484,-284.5096 689.0538,-291.4684 718.3276,-297.8533"/>
<polygon fill="#000000" stroke="#000000" points="717.6229,-301.2818 728.1391,-299.9932 719.1147,-294.4426 717.6229,-301.2818"/>
</g>
<!-- Changes&#45;&gt;Incremental rule engine -->
<g id="edge13" class="edge">
<title>Changes&#45;&gt;Incremental rule engine</title>
<path fill="none" stroke="#000000" d="M502.6882,-316.7027C545.0861,-316.4574 607.2039,-316.0979 663.4525,-315.7725"/>
<polygon fill="#000000" stroke="#000000" points="663.5356,-319.2721 673.5152,-315.7142 663.495,-312.2723 663.5356,-319.2721"/>
</g>
<!-- Incremental rule engine&#45;&gt;OKey2 -->
<g id="edge14" class="edge">
<title>Incremental rule engine&#45;&gt;OKey2</title>
<path fill="none" stroke="#000000" d="M920.5183,-315C929.082,-315 937.6637,-315 946.1066,-315"/>
<polygon fill="#000000" stroke="#000000" points="946.3257,-318.5001 956.3257,-315 946.3256,-311.5001 946.3257,-318.5001"/>
</g>
</g>
</svg>
