<?xml version="1.0" encoding="UTF-8" standalone="no"?>
<!DOCTYPE svg PUBLIC "-//W3C//DTD SVG 1.1//EN"
 "http://www.w3.org/Graphics/SVG/1.1/DTD/svg11.dtd">
<!-- Generated by graphviz version 2.43.0 (0)
 -->
<!-- Title: %3 Pages: 1 -->
<svg width="366pt" height="1219pt"
 viewBox="0.00 0.00 365.90 1218.60" xmlns="http://www.w3.org/2000/svg" xmlns:xlink="http://www.w3.org/1999/xlink">
<g id="graph0" class="graph" transform="scale(1 1) rotate(0) translate(4 1214.6)">
<title>%3</title>
<polygon fill="white" stroke="transparent" points="-4,4 -4,-1214.6 361.9,-1214.6 361.9,4 -4,4"/>
<!-- Root -->
<g id="node1" class="node">
<title>Root</title>
<ellipse fill="none" stroke="black" cx="229.9" cy="-1192.6" rx="32.49" ry="18"/>
<text text-anchor="middle" x="229.9" y="-1188.9" font-family="Times,serif" font-size="14.00">Root</text>
</g>
<!-- c1a -->
<g id="node2" class="node">
<title>c1a</title>
<ellipse fill="none" stroke="black" cx="86.9" cy="-1119.6" rx="27.1" ry="18"/>
<text text-anchor="middle" x="86.9" y="-1115.9" font-family="Times,serif" font-size="14.00">Cut</text>
</g>
<!-- Root&#45;&gt;c1a -->
<g id="edge1" class="edge">
<title>Root&#45;&gt;c1a</title>
<path fill="none" stroke="black" d="M206.6,-1180.03C182.36,-1167.99 144.26,-1149.08 117.58,-1135.83"/>
<polygon fill="black" stroke="black" points="118.82,-1132.54 108.31,-1131.23 115.71,-1138.81 118.82,-1132.54"/>
</g>
<!-- c1b -->
<g id="node3" class="node">
<title>c1b</title>
<ellipse fill="none" stroke="black" cx="229.9" cy="-1119.6" rx="27.1" ry="18"/>
<text text-anchor="middle" x="229.9" y="-1115.9" font-family="Times,serif" font-size="14.00">Cut</text>
</g>
<!-- Root&#45;&gt;c1b -->
<g id="edge2" class="edge">
<title>Root&#45;&gt;c1b</title>
<path fill="none" stroke="black" d="M229.9,-1174.41C229.9,-1166.38 229.9,-1156.64 229.9,-1147.66"/>
<polygon fill="black" stroke="black" points="233.4,-1147.62 229.9,-1137.62 226.4,-1147.62 233.4,-1147.62"/>
</g>
<!-- d1 -->
<g id="node6" class="node">
<title>d1</title>
<ellipse fill="none" stroke="black" cx="252.9" cy="-772.3" rx="29.8" ry="18"/>
<text text-anchor="middle" x="252.9" y="-768.6" font-family="Times,serif" font-size="14.00">Dup</text>
</g>
<!-- Root&#45;&gt;d1 -->
<g id="edge8" class="edge">
<title>Root&#45;&gt;d1</title>
<path fill="none" stroke="red" d="M258.05,-1183.31C285.43,-1173.32 322.9,-1153.6 322.9,-1120.6 322.9,-1120.6 322.9,-1120.6 322.9,-901.1 322.9,-860.18 294.96,-819.96 274.39,-795.88"/>
<polygon fill="red" stroke="red" points="276.99,-793.54 267.74,-788.36 271.74,-798.17 276.99,-793.54"/>
<text text-anchor="middle" x="340.4" y="-985.4" font-family="Times,serif" font-size="14.00">0&#45;&gt;1</text>
</g>
<!-- c2b -->
<g id="node5" class="node">
<title>c2b</title>
<ellipse fill="none" stroke="black" cx="101.9" cy="-772.3" rx="27.12" ry="27.12"/>
<ellipse fill="none" stroke="black" cx="101.9" cy="-772.3" rx="31.1" ry="31.1"/>
<text text-anchor="middle" x="101.9" y="-768.6" font-family="Times,serif" font-size="14.00">Cut</text>
</g>
<!-- c1a&#45;&gt;c2b -->
<g id="edge4" class="edge">
<title>c1a&#45;&gt;c2b</title>
<path fill="none" stroke="black" d="M79.94,-1101.99C73.49,-1085.09 64.9,-1057.98 64.9,-1033.6 64.9,-1033.6 64.9,-1033.6 64.9,-857.6 64.9,-840.12 71.64,-822.2 79.37,-807.4"/>
<polygon fill="black" stroke="black" points="82.46,-809.06 84.26,-798.62 76.34,-805.66 82.46,-809.06"/>
</g>
<!-- d2a -->
<g id="node7" class="node">
<title>d2a</title>
<ellipse fill="none" stroke="black" cx="29.9" cy="-672" rx="29.8" ry="18"/>
<text text-anchor="middle" x="29.9" y="-668.3" font-family="Times,serif" font-size="14.00">Dup</text>
</g>
<!-- c1a&#45;&gt;d2a -->
<g id="edge15" class="edge">
<title>c1a&#45;&gt;d2a</title>
<path fill="none" stroke="blue" d="M69.54,-1105.31C51.82,-1090.09 26.9,-1063.4 26.9,-1033.6 26.9,-1033.6 26.9,-1033.6 26.9,-771.3 26.9,-747.24 27.81,-719.89 28.62,-700.15"/>
<polygon fill="blue" stroke="blue" points="32.13,-700.19 29.06,-690.04 25.13,-699.88 32.13,-700.19"/>
<text text-anchor="middle" x="31.9" y="-898.4" font-family="Times,serif" font-size="14.00">1</text>
</g>
<!-- fpa -->
<g id="node13" class="node">
<title>fpa</title>
<ellipse fill="none" stroke="black" cx="119.9" cy="-1032.6" rx="27" ry="18"/>
<text text-anchor="middle" x="119.9" y="-1028.9" font-family="Times,serif" font-size="14.00">!p</text>
</g>
<!-- c1a&#45;&gt;fpa -->
<g id="edge14" class="edge">
<title>c1a&#45;&gt;fpa</title>
<path fill="none" stroke="red" d="M93.42,-1101.8C98.07,-1089.81 104.43,-1073.45 109.74,-1059.75"/>
<polygon fill="red" stroke="red" points="113.03,-1060.94 113.39,-1050.35 106.51,-1058.41 113.03,-1060.94"/>
<text text-anchor="middle" x="110.9" y="-1072.4" font-family="Times,serif" font-size="14.00">0</text>
</g>
<!-- c1b&#45;&gt;c2b -->
<g id="edge5" class="edge">
<title>c1b&#45;&gt;c2b</title>
<path fill="none" stroke="black" d="M220.38,-1102.48C212.63,-1088.93 201.71,-1068.9 193.9,-1050.6 158.62,-967.99 128.12,-866.98 112.68,-812.55"/>
<polygon fill="black" stroke="black" points="115.96,-811.3 109.88,-802.63 109.22,-813.2 115.96,-811.3"/>
</g>
<!-- d2b -->
<g id="node8" class="node">
<title>d2b</title>
<ellipse fill="none" stroke="black" cx="303.9" cy="-672" rx="29.8" ry="18"/>
<text text-anchor="middle" x="303.9" y="-668.3" font-family="Times,serif" font-size="14.00">Dup</text>
</g>
<!-- c1b&#45;&gt;d2b -->
<g id="edge17" class="edge">
<title>c1b&#45;&gt;d2b</title>
<path fill="none" stroke="blue" d="M246.1,-1104.72C262.33,-1089.2 284.9,-1062.42 284.9,-1033.6 284.9,-1033.6 284.9,-1033.6 284.9,-901.1 284.9,-881.49 296.19,-756.57 301.36,-700.35"/>
<polygon fill="blue" stroke="blue" points="304.88,-700.35 302.31,-690.07 297.91,-699.71 304.88,-700.35"/>
<text text-anchor="middle" x="289.9" y="-898.4" font-family="Times,serif" font-size="14.00">1</text>
</g>
<!-- fpb -->
<g id="node14" class="node">
<title>fpb</title>
<ellipse fill="none" stroke="black" cx="229.9" cy="-1032.6" rx="27" ry="18"/>
<text text-anchor="middle" x="229.9" y="-1028.9" font-family="Times,serif" font-size="14.00">!p</text>
</g>
<!-- c1b&#45;&gt;fpb -->
<g id="edge16" class="edge">
<title>c1b&#45;&gt;fpb</title>
<path fill="none" stroke="red" d="M229.9,-1101.39C229.9,-1089.76 229.9,-1074.14 229.9,-1060.83"/>
<polygon fill="red" stroke="red" points="233.4,-1060.77 229.9,-1050.77 226.4,-1060.77 233.4,-1060.77"/>
<text text-anchor="middle" x="234.9" y="-1072.4" font-family="Times,serif" font-size="14.00">0</text>
</g>
<!-- fa -->
<g id="node4" class="node">
<title>fa</title>
<ellipse fill="none" stroke="black" cx="221.9" cy="-858.6" rx="27" ry="18"/>
<text text-anchor="middle" x="221.9" y="-854.9" font-family="Times,serif" font-size="14.00">PiR</text>
</g>
<!-- fa&#45;&gt;c2b -->
<g id="edge3" class="edge">
<title>fa&#45;&gt;c2b</title>
<path fill="none" stroke="black" d="M207.12,-843.22C199.4,-836.17 189.57,-827.87 179.9,-821.6 164.22,-811.42 157.87,-813.29 141.9,-803.6 139.3,-802.02 136.67,-800.31 134.06,-798.53"/>
<polygon fill="black" stroke="black" points="136.05,-795.66 125.87,-792.71 131.99,-801.36 136.05,-795.66"/>
</g>
<!-- fa&#45;&gt;d1 -->
<g id="edge22" class="edge">
<title>fa&#45;&gt;d1</title>
<path fill="none" stroke="red" d="M228.13,-840.87C230.28,-835.08 232.7,-828.56 234.9,-822.6 237.87,-814.52 241.1,-805.68 244,-797.76"/>
<ellipse fill="none" stroke="red" cx="245.39" cy="-793.95" rx="4" ry="4"/>
</g>
<!-- hi_retpc1 -->
<g id="node12" class="node">
<title>hi_retpc1</title>
<ellipse fill="none" stroke="black" cx="177.9" cy="-772.3" rx="27" ry="18"/>
<text text-anchor="middle" x="177.9" y="-768.6" font-family="Times,serif" font-size="14.00">!c</text>
</g>
<!-- fa&#45;&gt;hi_retpc1 -->
<g id="edge21" class="edge">
<title>fa&#45;&gt;hi_retpc1</title>
<path fill="none" stroke="blue" d="M215.52,-840.88C213.03,-834.73 210.01,-827.76 206.9,-821.6 202.93,-813.74 198.17,-805.44 193.66,-797.97"/>
<polygon fill="blue" stroke="blue" points="196.39,-795.74 188.16,-789.07 190.43,-799.41 196.39,-795.74"/>
</g>
<!-- hi_retb -->
<g id="node16" class="node">
<title>hi_retb</title>
<ellipse fill="none" stroke="black" cx="181.9" cy="-411" rx="27" ry="18"/>
<text text-anchor="middle" x="181.9" y="-407.3" font-family="Times,serif" font-size="14.00">I</text>
</g>
<!-- c2b&#45;&gt;hi_retb -->
<g id="edge23" class="edge">
<title>c2b&#45;&gt;hi_retb</title>
<path fill="none" stroke="red" d="M127.29,-753.35C149.05,-735.66 176.9,-706.49 176.9,-673 176.9,-673 176.9,-673 176.9,-497 176.9,-477.72 178.2,-456.02 179.47,-439.37"/>
<polygon fill="red" stroke="red" points="182.97,-439.49 180.29,-429.24 175.99,-438.92 182.97,-439.49"/>
<text text-anchor="middle" x="181.9" y="-581.3" font-family="Times,serif" font-size="14.00">2</text>
</g>
<!-- x2i_o2 -->
<g id="node17" class="node">
<title>x2i_o2</title>
<ellipse fill="none" stroke="black" cx="104.9" cy="-672" rx="27" ry="18"/>
<text text-anchor="middle" x="104.9" y="-668.3" font-family="Times,serif" font-size="14.00">PiL</text>
</g>
<!-- c2b&#45;&gt;x2i_o2 -->
<g id="edge24" class="edge">
<title>c2b&#45;&gt;x2i_o2</title>
<path fill="none" stroke="blue" d="M102.82,-741C103.22,-728.09 103.67,-713.13 104.06,-700.53"/>
<polygon fill="blue" stroke="blue" points="107.57,-700.28 104.37,-690.18 100.57,-700.07 107.57,-700.28"/>
<text text-anchor="middle" x="108.9" y="-711.8" font-family="Times,serif" font-size="14.00">1</text>
</g>
<!-- d1&#45;&gt;d2a -->
<g id="edge6" class="edge">
<title>d1&#45;&gt;d2a</title>
<path fill="none" stroke="black" stroke-dasharray="5,2" d="M236.64,-756.76C229.93,-751.29 221.88,-745.35 213.9,-741 153.92,-708.29 132.47,-715 68.9,-690 63.81,-688 58.41,-685.74 53.29,-683.53"/>
</g>
<!-- d1&#45;&gt;d2b -->
<g id="edge7" class="edge">
<title>d1&#45;&gt;d2b</title>
<path fill="none" stroke="black" stroke-dasharray="5,2" d="M261.55,-754.62C270.98,-736.44 285.99,-707.52 295.37,-689.43"/>
</g>
<!-- f_ret -->
<g id="node9" class="node">
<title>f_ret</title>
<ellipse fill="none" stroke="black" cx="231.9" cy="-585" rx="27" ry="18"/>
<text text-anchor="middle" x="231.9" y="-581.3" font-family="Times,serif" font-size="14.00">I</text>
</g>
<!-- d1&#45;&gt;f_ret -->
<g id="edge9" class="edge">
<title>d1&#45;&gt;f_ret</title>
<path fill="none" stroke="red" d="M250.96,-754.2C247.3,-721.93 239.36,-651.84 234.97,-613.1"/>
<polygon fill="red" stroke="red" points="238.43,-612.6 233.83,-603.06 231.48,-613.39 238.43,-612.6"/>
</g>
<!-- hi_retpa -->
<g id="node10" class="node">
<title>hi_retpa</title>
<ellipse fill="none" stroke="black" cx="81.9" cy="-585" rx="27" ry="18"/>
<text text-anchor="middle" x="81.9" y="-581.3" font-family="Times,serif" font-size="14.00">!p</text>
</g>
<!-- d2a&#45;&gt;hi_retpa -->
<g id="edge10" class="edge">
<title>d2a&#45;&gt;hi_retpa</title>
<path fill="none" stroke="blue" d="M39.92,-654.61C47.53,-642.19 58.1,-624.9 66.74,-610.78"/>
<polygon fill="blue" stroke="blue" points="69.85,-612.41 72.08,-602.05 63.87,-608.75 69.85,-612.41"/>
<text text-anchor="middle" x="64.9" y="-624.8" font-family="Times,serif" font-size="14.00">1</text>
</g>
<!-- h_dib -->
<g id="node11" class="node">
<title>h_dib</title>
<ellipse fill="none" stroke="black" cx="303.9" cy="-585" rx="27" ry="18"/>
<text text-anchor="middle" x="303.9" y="-581.3" font-family="Times,serif" font-size="14.00">!d</text>
</g>
<!-- d2b&#45;&gt;h_dib -->
<g id="edge11" class="edge">
<title>d2b&#45;&gt;h_dib</title>
<path fill="none" stroke="blue" d="M303.9,-653.8C303.9,-642.16 303.9,-626.55 303.9,-613.24"/>
<polygon fill="blue" stroke="blue" points="307.4,-613.18 303.9,-603.18 300.4,-613.18 307.4,-613.18"/>
<text text-anchor="middle" x="308.9" y="-624.8" font-family="Times,serif" font-size="14.00">1</text>
</g>
<!-- hi_reta -->
<g id="node18" class="node">
<title>hi_reta</title>
<ellipse fill="none" stroke="black" cx="74.9" cy="-338" rx="27" ry="18"/>
<text text-anchor="middle" x="74.9" y="-334.3" font-family="Times,serif" font-size="14.00">I</text>
</g>
<!-- hi_retpa&#45;&gt;hi_reta -->
<g id="edge27" class="edge">
<title>hi_retpa&#45;&gt;hi_reta</title>
<path fill="none" stroke="red" d="M79.34,-567C77.41,-553.28 74.92,-533.44 73.9,-516 70.7,-461.43 73.39,-447.66 73.9,-393 73.98,-384.3 74.13,-374.81 74.29,-366.24"/>
<polygon fill="red" stroke="red" points="77.8,-366.09 74.5,-356.02 70.8,-365.95 77.8,-366.09"/>
<text text-anchor="middle" x="77.9" y="-450.8" font-family="Times,serif" font-size="14.00">2</text>
</g>
<!-- h_dia -->
<g id="node19" class="node">
<title>h_dia</title>
<ellipse fill="none" stroke="black" cx="109.9" cy="-498" rx="27" ry="18"/>
<text text-anchor="middle" x="109.9" y="-494.3" font-family="Times,serif" font-size="14.00">!d</text>
</g>
<!-- hi_retpa&#45;&gt;h_dia -->
<g id="edge28" class="edge">
<title>hi_retpa&#45;&gt;h_dia</title>
<path fill="none" stroke="blue" d="M87.43,-567.21C91.53,-554.75 97.19,-537.57 101.8,-523.57"/>
<ellipse fill="none" stroke="blue" cx="103.13" cy="-519.56" rx="4" ry="4"/>
<text text-anchor="middle" x="102.9" y="-537.8" font-family="Times,serif" font-size="14.00">1</text>
</g>
<!-- hb -->
<g id="node23" class="node">
<title>hb</title>
<ellipse fill="none" stroke="black" cx="236.9" cy="-498" rx="27" ry="18"/>
<text text-anchor="middle" x="236.9" y="-494.3" font-family="Times,serif" font-size="14.00">PiL</text>
</g>
<!-- h_dib&#45;&gt;hb -->
<g id="edge31" class="edge">
<title>h_dib&#45;&gt;hb</title>
<path fill="none" stroke="blue" d="M291.92,-568.8C281.79,-555.95 267.1,-537.32 255.45,-522.54"/>
<polygon fill="blue" stroke="blue" points="257.94,-520.04 249,-514.35 252.44,-524.37 257.94,-520.04"/>
<text text-anchor="middle" x="279.9" y="-537.8" font-family="Times,serif" font-size="14.00">2</text>
</g>
<!-- hi_retpc1&#45;&gt;d2a -->
<g id="edge12" class="edge">
<title>hi_retpc1&#45;&gt;d2a</title>
<path fill="none" stroke="blue" d="M162.9,-756.96C156.71,-751.52 149.27,-745.54 141.9,-741 124.61,-730.35 117.6,-732.96 99.9,-723 83.72,-713.89 66.74,-701.84 53.56,-691.85"/>
<ellipse fill="none" stroke="blue" cx="50.21" cy="-689.28" rx="4" ry="4"/>
</g>
<!-- hi_retpc1&#45;&gt;d2b -->
<g id="edge13" class="edge">
<title>hi_retpc1&#45;&gt;d2b</title>
<path fill="none" stroke="blue" d="M193.88,-757.54C200.07,-752.29 207.26,-746.3 213.9,-741 235.39,-723.86 260.37,-705.07 278.55,-691.6"/>
<ellipse fill="none" stroke="blue" cx="282.19" cy="-688.9" rx="4" ry="4"/>
</g>
<!-- d5 -->
<g id="node15" class="node">
<title>d5</title>
<ellipse fill="none" stroke="black" cx="223.9" cy="-945.6" rx="29.8" ry="18"/>
<text text-anchor="middle" x="223.9" y="-941.9" font-family="Times,serif" font-size="14.00">Dup</text>
</g>
<!-- fpa&#45;&gt;d5 -->
<g id="edge18" class="edge">
<title>fpa&#45;&gt;d5</title>
<path fill="none" stroke="red" d="M136.61,-1017.94C153.49,-1004.14 179.76,-982.67 199.08,-966.88"/>
<polygon fill="red" stroke="red" points="201.36,-969.54 206.88,-960.5 196.93,-964.12 201.36,-969.54"/>
<text text-anchor="middle" x="183.9" y="-985.4" font-family="Times,serif" font-size="14.00">1</text>
</g>
<!-- fpb&#45;&gt;d5 -->
<g id="edge19" class="edge">
<title>fpb&#45;&gt;d5</title>
<path fill="none" stroke="red" d="M228.68,-1014.39C227.86,-1002.76 226.76,-987.14 225.82,-973.83"/>
<polygon fill="red" stroke="red" points="229.31,-973.5 225.11,-963.77 222.32,-973.99 229.31,-973.5"/>
<text text-anchor="middle" x="232.9" y="-985.4" font-family="Times,serif" font-size="14.00">1</text>
</g>
<!-- d5&#45;&gt;fa -->
<g id="edge20" class="edge">
<title>d5&#45;&gt;fa</title>
<path fill="none" stroke="red" d="M223.49,-927.39C223.22,-915.76 222.85,-900.14 222.54,-886.83"/>
<polygon fill="red" stroke="red" points="226.04,-886.69 222.3,-876.77 219.04,-886.85 226.04,-886.69"/>
</g>
<!-- x2i_o2&#45;&gt;f_ret -->
<g id="edge26" class="edge">
<title>x2i_o2&#45;&gt;f_ret</title>
<path fill="none" stroke="blue" d="M123.36,-658.64C144.81,-644.29 180.37,-620.49 204.91,-604.06"/>
<polygon fill="blue" stroke="blue" points="207.04,-606.85 213.41,-598.37 203.15,-601.03 207.04,-606.85"/>
</g>
<!-- x2i_o2&#45;&gt;hi_retpa -->
<g id="edge25" class="edge">
<title>x2i_o2&#45;&gt;hi_retpa</title>
<path fill="none" stroke="red" d="M100.35,-654.21C97.14,-642.33 92.77,-626.17 89.08,-612.56"/>
<polygon fill="red" stroke="red" points="92.42,-611.5 86.43,-602.76 85.67,-613.33 92.42,-611.5"/>
<text text-anchor="middle" x="99.9" y="-624.8" font-family="Times,serif" font-size="14.00">1</text>
</g>
<!-- ha -->
<g id="node22" class="node">
<title>ha</title>
<ellipse fill="none" stroke="black" cx="109.9" cy="-411" rx="27" ry="18"/>
<text text-anchor="middle" x="109.9" y="-407.3" font-family="Times,serif" font-size="14.00">PiL</text>
</g>
<!-- h_dia&#45;&gt;ha -->
<g id="edge30" class="edge">
<title>h_dia&#45;&gt;ha</title>
<path fill="none" stroke="blue" d="M109.9,-479.8C109.9,-468.16 109.9,-452.55 109.9,-439.24"/>
<polygon fill="blue" stroke="blue" points="113.4,-439.18 109.9,-429.18 106.4,-439.18 113.4,-439.18"/>
<text text-anchor="middle" x="114.9" y="-450.8" font-family="Times,serif" font-size="14.00">2</text>
</g>
<!-- d4a -->
<g id="node20" class="node">
<title>d4a</title>
<ellipse fill="none" stroke="black" cx="208.9" cy="-338" rx="29.8" ry="18"/>
<text text-anchor="middle" x="208.9" y="-334.3" font-family="Times,serif" font-size="14.00">Dup</text>
</g>
<!-- i -->
<g id="node21" class="node">
<title>i</title>
<ellipse fill="none" stroke="black" cx="208.9" cy="-251" rx="27" ry="18"/>
<text text-anchor="middle" x="208.9" y="-247.3" font-family="Times,serif" font-size="14.00">!p</text>
</g>
<!-- d4a&#45;&gt;i -->
<g id="edge29" class="edge">
<title>d4a&#45;&gt;i</title>
<path fill="none" stroke="red" d="M208.9,-319.8C208.9,-308.16 208.9,-292.55 208.9,-279.24"/>
<polygon fill="red" stroke="red" points="212.4,-279.18 208.9,-269.18 205.4,-279.18 212.4,-279.18"/>
<text text-anchor="middle" x="213.9" y="-290.8" font-family="Times,serif" font-size="14.00">2</text>
</g>
<!-- i_i -->
<g id="node24" class="node">
<title>i_i</title>
<ellipse fill="none" stroke="black" cx="208.9" cy="-164" rx="27" ry="18"/>
<text text-anchor="middle" x="208.9" y="-160.3" font-family="Times,serif" font-size="14.00">PiR</text>
</g>
<!-- i&#45;&gt;i_i -->
<g id="edge32" class="edge">
<title>i&#45;&gt;i_i</title>
<path fill="none" stroke="red" d="M208.9,-232.8C208.9,-221.16 208.9,-205.55 208.9,-192.24"/>
<polygon fill="red" stroke="red" points="212.4,-192.18 208.9,-182.18 205.4,-192.18 212.4,-192.18"/>
<text text-anchor="middle" x="213.9" y="-203.8" font-family="Times,serif" font-size="14.00">3</text>
</g>
<!-- ha&#45;&gt;hi_reta -->
<g id="edge37" class="edge">
<title>ha&#45;&gt;hi_reta</title>
<path fill="none" stroke="blue" d="M101.78,-393.53C97.54,-384.93 92.25,-374.21 87.5,-364.56"/>
<polygon fill="blue" stroke="blue" points="90.53,-362.8 82.97,-355.38 84.25,-365.89 90.53,-362.8"/>
</g>
<!-- ha&#45;&gt;d4a -->
<g id="edge36" class="edge">
<title>ha&#45;&gt;d4a</title>
<path fill="none" stroke="red" d="M127.6,-397.31C143.21,-386.11 166.14,-369.66 183.68,-357.09"/>
<ellipse fill="none" stroke="red" cx="187.09" cy="-354.64" rx="4" ry="4"/>
</g>
<!-- hb&#45;&gt;hi_retb -->
<g id="edge39" class="edge">
<title>hb&#45;&gt;hi_retb</title>
<path fill="none" stroke="blue" d="M226.55,-481.01C218.41,-468.43 206.92,-450.68 197.64,-436.33"/>
<polygon fill="blue" stroke="blue" points="200.57,-434.41 192.2,-427.92 194.69,-438.21 200.57,-434.41"/>
</g>
<!-- hb&#45;&gt;d4a -->
<g id="edge38" class="edge">
<title>hb&#45;&gt;d4a</title>
<path fill="none" stroke="red" d="M233.9,-480.09C229.08,-452.91 219.57,-399.25 213.77,-366.5"/>
<polygon fill="red" stroke="red" points="217.15,-365.5 211.96,-356.27 210.26,-366.72 217.15,-365.5"/>
</g>
<!-- il -->
<g id="node25" class="node">
<title>il</title>
<ellipse fill="none" stroke="black" cx="181.9" cy="-91" rx="27" ry="18"/>
<text text-anchor="middle" x="181.9" y="-87.3" font-family="Times,serif" font-size="14.00">!d</text>
</g>
<!-- i_i&#45;&gt;il -->
<g id="edge33" class="edge">
<title>i_i&#45;&gt;il</title>
<path fill="none" stroke="blue" d="M202.5,-146.17C199.34,-137.86 195.45,-127.64 191.91,-118.33"/>
<polygon fill="blue" stroke="blue" points="195.08,-116.81 188.25,-108.71 188.53,-119.3 195.08,-116.81"/>
</g>
<!-- i_ret -->
<g id="node26" class="node">
<title>i_ret</title>
<ellipse fill="none" stroke="black" cx="208.9" cy="-18" rx="27" ry="18"/>
<text text-anchor="middle" x="208.9" y="-14.3" font-family="Times,serif" font-size="14.00">I</text>
</g>
<!-- i_i&#45;&gt;i_ret -->
<g id="edge34" class="edge">
<title>i_i&#45;&gt;i_ret</title>
<path fill="none" stroke="red" d="M212.46,-146.07C214.5,-135.47 216.86,-121.5 217.9,-109 219.22,-93.05 219.22,-88.95 217.9,-73 217.16,-64.11 215.76,-54.48 214.27,-45.85"/>
<polygon fill="red" stroke="red" points="217.7,-45.14 212.46,-35.93 210.81,-46.4 217.7,-45.14"/>
</g>
<!-- il&#45;&gt;i_ret -->
<g id="edge35" class="edge">
<title>il&#45;&gt;i_ret</title>
<path fill="none" stroke="blue" d="M188.3,-73.17C191.46,-64.86 195.34,-54.64 198.89,-45.33"/>
<polygon fill="blue" stroke="blue" points="202.26,-46.3 202.54,-35.71 195.72,-43.81 202.26,-46.3"/>
</g>
</g>
</svg>
