<?xml version="1.0" encoding="UTF-8" standalone="no"?>
<!DOCTYPE svg PUBLIC "-//W3C//DTD SVG 1.1//EN"
 "http://www.w3.org/Graphics/SVG/1.1/DTD/svg11.dtd">
<!-- Generated by graphviz version 2.43.0 (0)
 -->
<!-- Title: foo Pages: 1 -->
<svg width="261pt" height="98pt"
 viewBox="0.00 0.00 261.00 98.00" xmlns="http://www.w3.org/2000/svg" xmlns:xlink="http://www.w3.org/1999/xlink">
<g id="graph0" class="graph" transform="scale(1 1) rotate(0) translate(4 94)">
<title>foo</title>
<polygon fill="white" stroke="transparent" points="-4,4 -4,-94 257,-94 257,4 -4,4"/>
<!-- A -->
<g id="node1" class="node">
<title>A</title>
<ellipse fill="none" stroke="black" cx="27" cy="-44" rx="27" ry="18"/>
<text text-anchor="middle" x="27" y="-40.3" font-family="Times,serif" font-size="14.00">A</text>
</g>
<!-- B -->
<g id="node2" class="node">
<title>B</title>
<ellipse fill="none" stroke="black" cx="118" cy="-72" rx="27" ry="18"/>
<text text-anchor="middle" x="118" y="-68.3" font-family="Times,serif" font-size="14.00">B</text>
</g>
<!-- A&#45;&gt;B -->
<g id="edge1" class="edge">
<title>A&#45;&gt;B</title>
<path fill="none" stroke="black" d="M51.85,-51.5C61.61,-54.57 73.06,-58.18 83.62,-61.5"/>
<polygon fill="black" stroke="black" points="82.8,-64.91 93.39,-64.57 84.9,-58.23 82.8,-64.91"/>
</g>
<!-- C -->
<g id="node3" class="node">
<title>C</title>
<ellipse fill="none" stroke="black" cx="118" cy="-18" rx="27" ry="18"/>
<text text-anchor="middle" x="118" y="-14.3" font-family="Times,serif" font-size="14.00">C</text>
</g>
<!-- A&#45;&gt;C -->
<g id="edge2" class="edge">
<title>A&#45;&gt;C</title>
<path fill="none" stroke="black" d="M52.32,-36.9C61.82,-34.12 72.87,-30.89 83.12,-27.9"/>
<polygon fill="black" stroke="black" points="84.4,-31.17 93.02,-25.01 82.44,-24.45 84.4,-31.17"/>
</g>
<!-- L -->
<g id="node4" class="node">
<title>L</title>
<ellipse fill="none" stroke="black" cx="226" cy="-45" rx="27" ry="18"/>
<text text-anchor="middle" x="226" y="-41.3" font-family="Times,serif" font-size="14.00">L</text>
</g>
<!-- B&#45;&gt;L -->
<g id="edge3" class="edge">
<title>B&#45;&gt;L</title>
<path fill="none" stroke="black" d="M143.58,-65.74C157.63,-62.16 175.46,-57.62 190.85,-53.7"/>
<polygon fill="black" stroke="black" points="191.72,-57.09 200.55,-51.23 189.99,-50.3 191.72,-57.09"/>
<text text-anchor="middle" x="172" y="-63.8" font-family="Times,serif" font-size="14.00">v1</text>
</g>
<!-- C&#45;&gt;L -->
<g id="edge4" class="edge">
<title>C&#45;&gt;L</title>
<path fill="none" stroke="black" d="M143.58,-24.26C157.63,-27.84 175.46,-32.38 190.85,-36.3"/>
<polygon fill="black" stroke="black" points="189.99,-39.7 200.55,-38.77 191.72,-32.91 189.99,-39.7"/>
<text text-anchor="middle" x="172" y="-36.8" font-family="Times,serif" font-size="14.00">v2</text>
</g>
</g>
</svg>
