<?xml version="1.0" encoding="UTF-8" standalone="no"?>
<!DOCTYPE svg PUBLIC "-//W3C//DTD SVG 1.1//EN"
 "http://www.w3.org/Graphics/SVG/1.1/DTD/svg11.dtd">
<!-- Generated by graphviz version 2.43.0 (0)
 -->
<!-- Title: %3 Pages: 1 -->
<svg width="442pt" height="1085pt"
 viewBox="0.00 0.00 442.13 1084.79" xmlns="http://www.w3.org/2000/svg" xmlns:xlink="http://www.w3.org/1999/xlink">
<g id="graph0" class="graph" transform="scale(1 1) rotate(0) translate(4 1080.79)">
<title>%3</title>
<polygon fill="white" stroke="transparent" points="-4,4 -4,-1080.79 438.13,-1080.79 438.13,4 -4,4"/>
<!-- Root -->
<g id="node1" class="node">
<title>Root</title>
<ellipse fill="none" stroke="black" cx="48.13" cy="-811.79" rx="32.49" ry="18"/>
<text text-anchor="middle" x="48.13" y="-808.09" font-family="Times,serif" font-size="14.00">Root</text>
</g>
<!-- d1 -->
<g id="node2" class="node">
<title>d1</title>
<ellipse fill="none" stroke="black" cx="40.13" cy="-724.79" rx="29.8" ry="18"/>
<text text-anchor="middle" x="40.13" y="-721.09" font-family="Times,serif" font-size="14.00">Dup</text>
</g>
<!-- Root&#45;&gt;d1 -->
<g id="edge1" class="edge">
<title>Root&#45;&gt;d1</title>
<path fill="none" stroke="red" stroke-width="2" d="M46.51,-793.59C45.42,-781.96 43.95,-766.34 42.7,-753.03"/>
<polygon fill="red" stroke="red" stroke-width="2" points="46.17,-752.6 41.75,-742.97 39.2,-753.25 46.17,-752.6"/>
<text text-anchor="middle" x="62.63" y="-764.59" font-family="Times,serif" font-size="14.00">0&#45;&gt;1</text>
</g>
<!-- d2 -->
<g id="node6" class="node">
<title>d2</title>
<ellipse fill="none" stroke="black" cx="255.13" cy="-811.79" rx="29.8" ry="18"/>
<text text-anchor="middle" x="255.13" y="-808.09" font-family="Times,serif" font-size="14.00">Dup</text>
</g>
<!-- d1&#45;&gt;d2 -->
<g id="edge4" class="edge">
<title>d1&#45;&gt;d2</title>
<path fill="none" stroke="black" stroke-dasharray="5,2" d="M35.01,-742.6C32.84,-753.36 32.36,-766.91 40.13,-775.79 60.07,-798.57 145.31,-788.65 175.13,-793.79 192.76,-796.84 212.42,-801 227.83,-804.45"/>
</g>
<!-- f_ret -->
<g id="node7" class="node">
<title>f_ret</title>
<ellipse fill="none" stroke="black" cx="153.13" cy="-637.79" rx="27" ry="18"/>
<text text-anchor="middle" x="153.13" y="-634.09" font-family="Times,serif" font-size="14.00">I</text>
</g>
<!-- d1&#45;&gt;f_ret -->
<g id="edge5" class="edge">
<title>d1&#45;&gt;f_ret</title>
<path fill="none" stroke="red" stroke-width="2" d="M49.03,-707.21C55.43,-696.55 64.88,-683.02 76.13,-673.79 88.87,-663.36 105.22,-655.35 119.57,-649.64"/>
<polygon fill="red" stroke="red" stroke-width="2" points="120.99,-652.85 129.12,-646.06 118.53,-646.29 120.99,-652.85"/>
</g>
<!-- c1a -->
<g id="node3" class="node">
<title>c1a</title>
<ellipse fill="none" stroke="black" cx="147.13" cy="-1058.79" rx="27.1" ry="18"/>
<text text-anchor="middle" x="147.13" y="-1055.09" font-family="Times,serif" font-size="14.00">Cut</text>
</g>
<!-- fp1 -->
<g id="node4" class="node">
<title>fp1</title>
<ellipse fill="none" stroke="black" cx="128.13" cy="-971.79" rx="27" ry="18"/>
<text text-anchor="middle" x="128.13" y="-968.09" font-family="Times,serif" font-size="14.00">!p</text>
</g>
<!-- c1a&#45;&gt;fp1 -->
<g id="edge2" class="edge">
<title>c1a&#45;&gt;fp1</title>
<path fill="none" stroke="red" d="M143.2,-1040.71C141.9,-1035.01 140.44,-1028.63 139.13,-1022.79 137.47,-1015.37 135.69,-1007.31 134.05,-999.88"/>
<polygon fill="red" stroke="red" points="137.43,-998.94 131.87,-989.93 130.59,-1000.44 137.43,-998.94"/>
<text text-anchor="middle" x="144.13" y="-1011.59" font-family="Times,serif" font-size="14.00">0</text>
</g>
<!-- x1_o1 -->
<g id="node5" class="node">
<title>x1_o1</title>
<ellipse fill="none" stroke="black" cx="200.13" cy="-971.79" rx="27" ry="18"/>
<text text-anchor="middle" x="200.13" y="-968.09" font-family="Times,serif" font-size="14.00">I</text>
</g>
<!-- c1a&#45;&gt;x1_o1 -->
<g id="edge3" class="edge">
<title>c1a&#45;&gt;x1_o1</title>
<path fill="none" stroke="blue" d="M157.1,-1041.81C164.88,-1029.34 175.81,-1011.81 184.71,-997.53"/>
<polygon fill="blue" stroke="blue" points="187.89,-999.05 190.21,-988.71 181.95,-995.34 187.89,-999.05"/>
</g>
<!-- f2 -->
<g id="node10" class="node">
<title>f2</title>
<ellipse fill="none" stroke="black" cx="128.13" cy="-884.79" rx="27" ry="18"/>
<text text-anchor="middle" x="128.13" y="-881.09" font-family="Times,serif" font-size="14.00">PiR</text>
</g>
<!-- fp1&#45;&gt;f2 -->
<g id="edge11" class="edge">
<title>fp1&#45;&gt;f2</title>
<path fill="none" stroke="red" d="M128.13,-953.59C128.13,-941.96 128.13,-926.34 128.13,-913.03"/>
<polygon fill="red" stroke="red" points="131.63,-912.97 128.13,-902.97 124.63,-912.97 131.63,-912.97"/>
<text text-anchor="middle" x="133.13" y="-924.59" font-family="Times,serif" font-size="14.00">1</text>
</g>
<!-- xdic -->
<g id="node9" class="node">
<title>xdic</title>
<ellipse fill="none" stroke="black" cx="297.13" cy="-724.79" rx="27" ry="18"/>
<text text-anchor="middle" x="297.13" y="-721.09" font-family="Times,serif" font-size="14.00">!c</text>
</g>
<!-- d2&#45;&gt;xdic -->
<g id="edge8" class="edge">
<title>d2&#45;&gt;xdic</title>
<path fill="none" stroke="blue" d="M263.23,-794.41C269.27,-782.18 277.64,-765.24 284.56,-751.25"/>
<polygon fill="blue" stroke="blue" points="287.77,-752.65 289.06,-742.13 281.49,-749.55 287.77,-752.65"/>
</g>
<!-- c1bb -->
<g id="node8" class="node">
<title>c1bb</title>
<ellipse fill="none" stroke="black" cx="237.13" cy="-1058.79" rx="27.1" ry="18"/>
<text text-anchor="middle" x="237.13" y="-1055.09" font-family="Times,serif" font-size="14.00">Cut</text>
</g>
<!-- c1bb&#45;&gt;x1_o1 -->
<g id="edge6" class="edge">
<title>c1bb&#45;&gt;x1_o1</title>
<path fill="none" stroke="red" d="M230,-1041.41C224.76,-1029.37 217.54,-1012.78 211.51,-998.92"/>
<polygon fill="red" stroke="red" points="214.57,-997.2 207.37,-989.42 208.15,-999.99 214.57,-997.2"/>
<text text-anchor="middle" x="225.13" y="-1011.59" font-family="Times,serif" font-size="14.00">0</text>
</g>
<!-- c1bb&#45;&gt;d2 -->
<g id="edge7" class="edge">
<title>c1bb&#45;&gt;d2</title>
<path fill="none" stroke="blue" d="M238.4,-1040.57C241.48,-998.66 249.38,-891.1 253.12,-840.24"/>
<polygon fill="blue" stroke="blue" points="256.63,-840.23 253.87,-830 249.65,-839.72 256.63,-840.23"/>
<text text-anchor="middle" x="252.13" y="-924.59" font-family="Times,serif" font-size="14.00">1</text>
</g>
<!-- h_di2 -->
<g id="node16" class="node">
<title>h_di2</title>
<ellipse fill="none" stroke="black" cx="354.13" cy="-583.79" rx="27" ry="18"/>
<text text-anchor="middle" x="354.13" y="-580.09" font-family="Times,serif" font-size="14.00">!d</text>
</g>
<!-- xdic&#45;&gt;h_di2 -->
<g id="edge24" class="edge">
<title>xdic&#45;&gt;h_di2</title>
<path fill="none" stroke="blue" d="M306.8,-707.75C314.66,-694.24 325.62,-674.22 333.13,-655.79 338.92,-641.61 343.87,-625.25 347.5,-611.81"/>
<polygon fill="blue" stroke="blue" points="350.99,-612.32 350.13,-601.76 344.22,-610.55 350.99,-612.32"/>
<text text-anchor="middle" x="329.13" y="-677.59" font-family="Times,serif" font-size="14.00">1</text>
</g>
<!-- hi_retpa -->
<g id="node18" class="node">
<title>hi_retpa</title>
<ellipse fill="none" stroke="black" cx="297.13" cy="-637.79" rx="27" ry="18"/>
<text text-anchor="middle" x="297.13" y="-634.09" font-family="Times,serif" font-size="14.00">!p</text>
</g>
<!-- xdic&#45;&gt;hi_retpa -->
<g id="edge23" class="edge">
<title>xdic&#45;&gt;hi_retpa</title>
<path fill="none" stroke="blue" d="M297.13,-706.59C297.13,-694.96 297.13,-679.34 297.13,-666.03"/>
<polygon fill="blue" stroke="blue" points="300.63,-665.97 297.13,-655.97 293.63,-665.97 300.63,-665.97"/>
<text text-anchor="middle" x="302.13" y="-677.59" font-family="Times,serif" font-size="14.00">1</text>
</g>
<!-- f2&#45;&gt;d1 -->
<g id="edge9" class="edge">
<title>f2&#45;&gt;d1</title>
<path fill="none" stroke="red" d="M101.75,-880.39C72.89,-875.1 27.98,-861.93 7.13,-829.79 -9.33,-804.41 7.59,-770.22 22.65,-748.09"/>
<ellipse fill="none" stroke="red" cx="25.12" cy="-744.62" rx="4" ry="4"/>
</g>
<!-- f2&#45;&gt;d2 -->
<g id="edge10" class="edge">
<title>f2&#45;&gt;d2</title>
<path fill="none" stroke="blue" d="M148.26,-872.54C169.43,-860.71 202.92,-841.98 226.77,-828.65"/>
<ellipse fill="none" stroke="blue" cx="230.34" cy="-826.65" rx="4" ry="4"/>
</g>
<!-- d3 -->
<g id="node11" class="node">
<title>d3</title>
<ellipse fill="none" stroke="black" cx="217.13" cy="-529.79" rx="29.8" ry="18"/>
<text text-anchor="middle" x="217.13" y="-526.09" font-family="Times,serif" font-size="14.00">Dup</text>
</g>
<!-- d4 -->
<g id="node12" class="node">
<title>d4</title>
<ellipse fill="none" stroke="black" cx="292.13" cy="-426.9" rx="29.81" ry="29.81"/>
<ellipse fill="none" stroke="black" cx="292.13" cy="-426.9" rx="33.8" ry="33.8"/>
<text text-anchor="middle" x="292.13" y="-423.2" font-family="Times,serif" font-size="14.00">Dup</text>
</g>
<!-- d3&#45;&gt;d4 -->
<g id="edge12" class="edge">
<title>d3&#45;&gt;d4</title>
<path fill="none" stroke="black" stroke-dasharray="5,2" d="M228.85,-513.03C240.47,-497.4 258.49,-473.16 272.33,-454.54"/>
</g>
<!-- hi_ret -->
<g id="node13" class="node">
<title>hi_ret</title>
<ellipse fill="none" stroke="black" cx="219.13" cy="-251" rx="27" ry="18"/>
<text text-anchor="middle" x="219.13" y="-247.3" font-family="Times,serif" font-size="14.00">I</text>
</g>
<!-- d3&#45;&gt;hi_ret -->
<g id="edge13" class="edge">
<title>d3&#45;&gt;hi_ret</title>
<path fill="none" stroke="red" stroke-width="2" d="M217.26,-511.48C217.6,-464.78 218.53,-335.96 218.94,-279.32"/>
<polygon fill="red" stroke="red" stroke-width="2" points="222.44,-279.33 219.01,-269.31 215.44,-279.28 222.44,-279.33"/>
</g>
<!-- h -->
<g id="node14" class="node">
<title>h</title>
<ellipse fill="none" stroke="black" cx="292.13" cy="-338" rx="27" ry="18"/>
<text text-anchor="middle" x="292.13" y="-334.3" font-family="Times,serif" font-size="14.00">PiL</text>
</g>
<!-- d4&#45;&gt;h -->
<g id="edge14" class="edge">
<title>d4&#45;&gt;h</title>
<path fill="none" stroke="blue" stroke-width="2" d="M292.13,-392.55C292.13,-383.9 292.13,-374.68 292.13,-366.37"/>
<polygon fill="blue" stroke="blue" stroke-width="2" points="295.63,-366.1 292.13,-356.1 288.63,-366.1 295.63,-366.1"/>
</g>
<!-- h&#45;&gt;hi_ret -->
<g id="edge34" class="edge">
<title>h&#45;&gt;hi_ret</title>
<path fill="none" stroke="blue" stroke-width="2" d="M279.08,-321.8C267.87,-308.75 251.54,-289.74 238.76,-274.85"/>
<polygon fill="blue" stroke="blue" stroke-width="2" points="241.24,-272.37 232.07,-267.06 235.93,-276.93 241.24,-272.37"/>
</g>
<!-- h_app -->
<g id="node24" class="node">
<title>h_app</title>
<ellipse fill="none" stroke="black" cx="292.13" cy="-251" rx="27" ry="18"/>
<text text-anchor="middle" x="292.13" y="-247.3" font-family="Times,serif" font-size="14.00">I</text>
</g>
<!-- h&#45;&gt;h_app -->
<g id="edge33" class="edge">
<title>h&#45;&gt;h_app</title>
<path fill="none" stroke="red" d="M292.13,-319.8C292.13,-308.16 292.13,-292.55 292.13,-279.24"/>
<polygon fill="red" stroke="red" points="295.63,-279.18 292.13,-269.18 288.63,-279.18 295.63,-279.18"/>
</g>
<!-- h_di1 -->
<g id="node15" class="node">
<title>h_di1</title>
<ellipse fill="none" stroke="black" cx="292.13" cy="-529.79" rx="27" ry="18"/>
<text text-anchor="middle" x="292.13" y="-526.09" font-family="Times,serif" font-size="14.00">!d</text>
</g>
<!-- h_di1&#45;&gt;d4 -->
<g id="edge15" class="edge">
<title>h_di1&#45;&gt;d4</title>
<path fill="none" stroke="blue" d="M292.13,-511.68C292.13,-500.55 292.13,-485.5 292.13,-471.23"/>
<polygon fill="blue" stroke="blue" points="295.63,-471.04 292.13,-461.04 288.63,-471.04 295.63,-471.04"/>
<text text-anchor="middle" x="297.13" y="-482.59" font-family="Times,serif" font-size="14.00">2</text>
</g>
<!-- h_di2&#45;&gt;d4 -->
<g id="edge16" class="edge">
<title>h_di2&#45;&gt;d4</title>
<path fill="none" stroke="blue" d="M348.29,-566.06C343.18,-551.61 335.45,-530.22 328.13,-511.79 322.16,-496.76 315.22,-480.37 309.04,-466.1"/>
<ellipse fill="none" stroke="blue" cx="307.3" cy="-462.08" rx="4" ry="4"/>
<text text-anchor="middle" x="346.13" y="-526.09" font-family="Times,serif" font-size="14.00">2</text>
</g>
<!-- c2a -->
<g id="node17" class="node">
<title>c2a</title>
<ellipse fill="none" stroke="black" cx="225.13" cy="-724.79" rx="27.1" ry="18"/>
<text text-anchor="middle" x="225.13" y="-721.09" font-family="Times,serif" font-size="14.00">Cut</text>
</g>
<!-- c2a&#45;&gt;hi_retpa -->
<g id="edge17" class="edge">
<title>c2a&#45;&gt;hi_retpa</title>
<path fill="none" stroke="red" d="M238.01,-708.6C249.06,-695.54 265.17,-676.53 277.78,-661.64"/>
<polygon fill="red" stroke="red" points="280.58,-663.75 284.37,-653.86 275.24,-659.23 280.58,-663.75"/>
<text text-anchor="middle" x="270.13" y="-677.59" font-family="Times,serif" font-size="14.00">1</text>
</g>
<!-- x1_o2 -->
<g id="node19" class="node">
<title>x1_o2</title>
<ellipse fill="none" stroke="black" cx="225.13" cy="-637.79" rx="27" ry="18"/>
<text text-anchor="middle" x="225.13" y="-634.09" font-family="Times,serif" font-size="14.00">I</text>
</g>
<!-- c2a&#45;&gt;x1_o2 -->
<g id="edge18" class="edge">
<title>c2a&#45;&gt;x1_o2</title>
<path fill="none" stroke="blue" d="M225.13,-706.59C225.13,-694.96 225.13,-679.34 225.13,-666.03"/>
<polygon fill="blue" stroke="blue" points="228.63,-665.97 225.13,-655.97 221.63,-665.97 228.63,-665.97"/>
</g>
<!-- hi_retpa&#45;&gt;d3 -->
<g id="edge21" class="edge">
<title>hi_retpa&#45;&gt;d3</title>
<path fill="none" stroke="red" d="M285.33,-621.15C272.09,-603.62 250.48,-574.98 235.14,-554.65"/>
<polygon fill="red" stroke="red" points="237.8,-552.37 228.99,-546.5 232.22,-556.59 237.8,-552.37"/>
<text text-anchor="middle" x="273.13" y="-580.09" font-family="Times,serif" font-size="14.00">2</text>
</g>
<!-- hi_retpa&#45;&gt;h_di1 -->
<g id="edge22" class="edge">
<title>hi_retpa&#45;&gt;h_di1</title>
<path fill="none" stroke="blue" d="M296.33,-619.76C295.55,-603.17 294.34,-577.68 293.43,-558.23"/>
<polygon fill="blue" stroke="blue" points="296.92,-557.96 292.95,-548.14 289.93,-558.29 296.92,-557.96"/>
<text text-anchor="middle" x="300.13" y="-580.09" font-family="Times,serif" font-size="14.00">1</text>
</g>
<!-- c2b -->
<g id="node20" class="node">
<title>c2b</title>
<ellipse fill="none" stroke="black" cx="139.13" cy="-811.79" rx="27.1" ry="18"/>
<text text-anchor="middle" x="139.13" y="-808.09" font-family="Times,serif" font-size="14.00">Cut</text>
</g>
<!-- c2b&#45;&gt;d3 -->
<g id="edge19" class="edge">
<title>c2b&#45;&gt;d3</title>
<path fill="none" stroke="red" stroke-width="2" d="M131.77,-794.34C117.61,-760.14 90.28,-679.64 117.13,-619.79 131.68,-587.37 164.53,-561.93 188.62,-546.7"/>
<ellipse fill="none" stroke="red" stroke-width="2" cx="192.07" cy="-544.58" rx="4" ry="4"/>
<text text-anchor="middle" x="111.13" y="-677.59" font-family="Times,serif" font-size="14.00">2</text>
</g>
<!-- x2i_o2 -->
<g id="node21" class="node">
<title>x2i_o2</title>
<ellipse fill="none" stroke="black" cx="153.13" cy="-724.79" rx="27" ry="18"/>
<text text-anchor="middle" x="153.13" y="-721.09" font-family="Times,serif" font-size="14.00">PiL</text>
</g>
<!-- c2b&#45;&gt;x2i_o2 -->
<g id="edge20" class="edge">
<title>c2b&#45;&gt;x2i_o2</title>
<path fill="none" stroke="blue" stroke-width="2" d="M141.97,-793.59C143.88,-781.96 146.46,-766.34 148.65,-753.03"/>
<polygon fill="blue" stroke="blue" stroke-width="2" points="152.13,-753.41 150.3,-742.97 145.23,-752.27 152.13,-753.41"/>
<text text-anchor="middle" x="152.13" y="-764.59" font-family="Times,serif" font-size="14.00">1</text>
</g>
<!-- x2i_o2&#45;&gt;f_ret -->
<g id="edge26" class="edge">
<title>x2i_o2&#45;&gt;f_ret</title>
<path fill="none" stroke="blue" stroke-width="2" d="M153.13,-706.59C153.13,-694.96 153.13,-679.34 153.13,-666.03"/>
<polygon fill="blue" stroke="blue" stroke-width="2" points="156.63,-665.97 153.13,-655.97 149.63,-665.97 156.63,-665.97"/>
</g>
<!-- x2i_o2&#45;&gt;x1_o2 -->
<g id="edge25" class="edge">
<title>x2i_o2&#45;&gt;x1_o2</title>
<path fill="none" stroke="red" d="M166.01,-708.6C177.06,-695.54 193.17,-676.53 205.78,-661.64"/>
<polygon fill="red" stroke="red" points="208.58,-663.75 212.37,-653.86 203.24,-659.23 208.58,-663.75"/>
</g>
<!-- c3 -->
<g id="node22" class="node">
<title>c3</title>
<ellipse fill="none" stroke="black" cx="364.13" cy="-338" rx="27.1" ry="18"/>
<text text-anchor="middle" x="364.13" y="-334.3" font-family="Times,serif" font-size="14.00">Cut</text>
</g>
<!-- i -->
<g id="node23" class="node">
<title>i</title>
<ellipse fill="none" stroke="black" cx="364.13" cy="-251" rx="27" ry="18"/>
<text text-anchor="middle" x="364.13" y="-247.3" font-family="Times,serif" font-size="14.00">!p</text>
</g>
<!-- c3&#45;&gt;i -->
<g id="edge27" class="edge">
<title>c3&#45;&gt;i</title>
<path fill="none" stroke="red" d="M364.13,-319.8C364.13,-308.16 364.13,-292.55 364.13,-279.24"/>
<polygon fill="red" stroke="red" points="367.63,-279.18 364.13,-269.18 360.63,-279.18 367.63,-279.18"/>
<text text-anchor="middle" x="369.13" y="-290.8" font-family="Times,serif" font-size="14.00">2</text>
</g>
<!-- c3&#45;&gt;h_app -->
<g id="edge28" class="edge">
<title>c3&#45;&gt;h_app</title>
<path fill="none" stroke="blue" d="M351.26,-321.8C340.2,-308.75 324.1,-289.74 311.49,-274.85"/>
<polygon fill="blue" stroke="blue" points="314.03,-272.43 304.89,-267.06 308.69,-276.96 314.03,-272.43"/>
</g>
<!-- i_i -->
<g id="node25" class="node">
<title>i_i</title>
<ellipse fill="none" stroke="black" cx="364.13" cy="-164" rx="27" ry="18"/>
<text text-anchor="middle" x="364.13" y="-160.3" font-family="Times,serif" font-size="14.00">PiR</text>
</g>
<!-- i&#45;&gt;i_i -->
<g id="edge29" class="edge">
<title>i&#45;&gt;i_i</title>
<path fill="none" stroke="red" d="M364.13,-232.8C364.13,-221.16 364.13,-205.55 364.13,-192.24"/>
<polygon fill="red" stroke="red" points="367.63,-192.18 364.13,-182.18 360.63,-192.18 367.63,-192.18"/>
<text text-anchor="middle" x="369.13" y="-203.8" font-family="Times,serif" font-size="14.00">3</text>
</g>
<!-- il -->
<g id="node26" class="node">
<title>il</title>
<ellipse fill="none" stroke="black" cx="407.13" cy="-91" rx="27" ry="18"/>
<text text-anchor="middle" x="407.13" y="-87.3" font-family="Times,serif" font-size="14.00">!d</text>
</g>
<!-- i_i&#45;&gt;il -->
<g id="edge30" class="edge">
<title>i_i&#45;&gt;il</title>
<path fill="none" stroke="blue" d="M373.89,-146.89C379.28,-137.99 386.09,-126.75 392.13,-116.77"/>
<polygon fill="blue" stroke="blue" points="395.23,-118.41 397.41,-108.05 389.24,-114.79 395.23,-118.41"/>
</g>
<!-- i_ret -->
<g id="node27" class="node">
<title>i_ret</title>
<ellipse fill="none" stroke="black" cx="364.13" cy="-18" rx="27" ry="18"/>
<text text-anchor="middle" x="364.13" y="-14.3" font-family="Times,serif" font-size="14.00">I</text>
</g>
<!-- i_i&#45;&gt;i_ret -->
<g id="edge31" class="edge">
<title>i_i&#45;&gt;i_ret</title>
<path fill="none" stroke="red" d="M364.13,-145.92C364.13,-121.34 364.13,-75.75 364.13,-46.43"/>
<polygon fill="red" stroke="red" points="367.63,-46.06 364.13,-36.06 360.63,-46.06 367.63,-46.06"/>
</g>
<!-- il&#45;&gt;i_ret -->
<g id="edge32" class="edge">
<title>il&#45;&gt;i_ret</title>
<path fill="none" stroke="blue" d="M397.38,-73.89C391.99,-64.99 385.18,-53.75 379.13,-43.77"/>
<polygon fill="blue" stroke="blue" points="382.03,-41.79 373.85,-35.05 376.04,-45.41 382.03,-41.79"/>
</g>
</g>
</svg>
