<?xml version="1.0" encoding="UTF-8" standalone="no"?>
<!DOCTYPE svg PUBLIC "-//W3C//DTD SVG 1.1//EN"
 "http://www.w3.org/Graphics/SVG/1.1/DTD/svg11.dtd">
<!-- Generated by graphviz version 2.40.1 (20161225.0304)
 -->
<!-- Title: %3 Pages: 1 -->
<svg width="298pt" height="908pt"
 viewBox="0.00 0.00 298.50 908.00" xmlns="http://www.w3.org/2000/svg" xmlns:xlink="http://www.w3.org/1999/xlink">
<g id="graph0" class="graph" transform="scale(1 1) rotate(0) translate(4 904)">
<title>%3</title>
<polygon fill="#ffffff" stroke="transparent" points="-4,4 -4,-904 294.4971,-904 294.4971,4 -4,4"/>
<!-- Root -->
<g id="node1" class="node">
<title>Root</title>
<ellipse fill="none" stroke="#000000" cx="32.4971" cy="-666" rx="32.4942" ry="18"/>
<text text-anchor="middle" x="32.4971" y="-662.3" font-family="Times,serif" font-size="14.00" fill="#000000">Root</text>
</g>
<!-- ret -->
<g id="node2" class="node">
<title>ret</title>
<ellipse fill="none" stroke="#000000" cx="90.4971" cy="-594" rx="27" ry="18"/>
<text text-anchor="middle" x="90.4971" y="-590.3" font-family="Times,serif" font-size="14.00" fill="#000000">I</text>
</g>
<!-- Root&#45;&gt;ret -->
<g id="edge1" class="edge">
<title>Root&#45;&gt;ret</title>
<path fill="none" stroke="#ff0000" d="M45.9493,-649.3008C53.4484,-639.9915 62.917,-628.2374 71.1943,-617.9621"/>
<polygon fill="#ff0000" stroke="#ff0000" points="73.9692,-620.0966 77.5169,-610.1134 68.5179,-615.7053 73.9692,-620.0966"/>
</g>
<!-- y -->
<g id="node14" class="node">
<title>y</title>
<ellipse fill="none" stroke="#000000" cx="71.4971" cy="-306" rx="27" ry="18"/>
<text text-anchor="middle" x="71.4971" y="-302.3" font-family="Times,serif" font-size="14.00" fill="#000000">PiL</text>
</g>
<!-- Root&#45;&gt;y -->
<g id="edge19" class="edge">
<title>Root&#45;&gt;y</title>
<path fill="none" stroke="#ff0000" d="M33.1245,-637.584C33.711,-608.5398 34.4971,-562.1279 34.4971,-522 34.4971,-522 34.4971,-522 34.4971,-450 34.4971,-403.022 53.1981,-350.0586 64.0096,-323.3645"/>
<polygon fill="#ff0000" stroke="#ff0000" points="29.6205,-637.745 32.9115,-647.8157 36.619,-637.8908 29.6205,-637.745"/>
</g>
<!-- c1 -->
<g id="node3" class="node">
<title>c1</title>
<ellipse fill="none" stroke="#000000" cx="258.4971" cy="-882" rx="27.8951" ry="18"/>
<text text-anchor="middle" x="258.4971" y="-878.3" font-family="Times,serif" font-size="14.00" fill="#000000">Cut</text>
</g>
<!-- x1i_f2 -->
<g id="node4" class="node">
<title>x1i_f2</title>
<ellipse fill="none" stroke="#000000" cx="206.4971" cy="-810" rx="27" ry="18"/>
<text text-anchor="middle" x="206.4971" y="-806.3" font-family="Times,serif" font-size="14.00" fill="#000000">PiL</text>
</g>
<!-- c1&#45;&gt;x1i_f2 -->
<g id="edge2" class="edge">
<title>c1&#45;&gt;x1i_f2</title>
<path fill="none" stroke="#0000ff" d="M246.6975,-865.6621C240.049,-856.4564 231.6134,-844.7764 224.1882,-834.4953"/>
<polygon fill="#0000ff" stroke="#0000ff" points="226.9424,-832.3308 218.25,-826.2733 221.2676,-836.4293 226.9424,-832.3308"/>
</g>
<!-- d1 -->
<g id="node5" class="node">
<title>d1</title>
<ellipse fill="none" stroke="#000000" cx="197.4971" cy="-450" rx="29.795" ry="18"/>
<text text-anchor="middle" x="197.4971" y="-446.3" font-family="Times,serif" font-size="14.00" fill="#000000">Dup</text>
</g>
<!-- c1&#45;&gt;d1 -->
<g id="edge3" class="edge">
<title>c1&#45;&gt;d1</title>
<path fill="none" stroke="#ff0000" d="M265.1275,-864.0988C274.5005,-837.1451 290.4971,-784.3538 290.4971,-738 290.4971,-738 290.4971,-738 290.4971,-594 290.4971,-543.9465 250.3559,-497.5074 222.8176,-471.5379"/>
<polygon fill="#ff0000" stroke="#ff0000" points="225.1668,-468.9433 215.4285,-464.77 220.4387,-474.1053 225.1668,-468.9433"/>
</g>
<!-- id_r -->
<g id="node10" class="node">
<title>id_r</title>
<ellipse fill="none" stroke="#000000" cx="109.4971" cy="-738" rx="27" ry="18"/>
<text text-anchor="middle" x="109.4971" y="-734.3" font-family="Times,serif" font-size="14.00" fill="#000000">PiR</text>
</g>
<!-- x1i_f2&#45;&gt;id_r -->
<g id="edge10" class="edge">
<title>x1i_f2&#45;&gt;id_r</title>
<path fill="none" stroke="#ff0000" d="M188.2522,-796.4574C173.4843,-785.4956 152.4853,-769.9088 135.8843,-757.5864"/>
<polygon fill="#ff0000" stroke="#ff0000" points="137.7761,-754.6318 127.6603,-751.4819 133.6039,-760.2526 137.7761,-754.6318"/>
</g>
<!-- ssa -->
<g id="node12" class="node">
<title>ssa</title>
<ellipse fill="none" stroke="#000000" cx="206.4971" cy="-738" rx="27" ry="18"/>
<text text-anchor="middle" x="206.4971" y="-734.3" font-family="Times,serif" font-size="14.00" fill="#000000">PiL</text>
</g>
<!-- x1i_f2&#45;&gt;ssa -->
<g id="edge11" class="edge">
<title>x1i_f2&#45;&gt;ssa</title>
<path fill="none" stroke="#0000ff" d="M206.4971,-791.8314C206.4971,-784.131 206.4971,-774.9743 206.4971,-766.4166"/>
<polygon fill="#0000ff" stroke="#0000ff" points="209.9972,-766.4132 206.4971,-756.4133 202.9972,-766.4133 209.9972,-766.4132"/>
</g>
<!-- g2s -->
<g id="node6" class="node">
<title>g2s</title>
<ellipse fill="none" stroke="#000000" cx="144.4971" cy="-378" rx="27" ry="18"/>
<text text-anchor="middle" x="144.4971" y="-374.3" font-family="Times,serif" font-size="14.00" fill="#000000">PiR</text>
</g>
<!-- d1&#45;&gt;g2s -->
<g id="edge4" class="edge">
<title>d1&#45;&gt;g2s</title>
<path fill="none" stroke="#ff0000" d="M185.2046,-433.3008C178.5154,-424.2135 170.1113,-412.7966 162.6788,-402.6996"/>
<polygon fill="#ff0000" stroke="#ff0000" points="165.4698,-400.5872 156.7229,-394.6087 159.8325,-404.7369 165.4698,-400.5872"/>
</g>
<!-- g2s&#45;&gt;y -->
<g id="edge16" class="edge">
<title>g2s&#45;&gt;y</title>
<path fill="none" stroke="#0000ff" d="M129.3715,-363.0816C119.1626,-353.0125 105.5093,-339.5463 94.0279,-328.2221"/>
<polygon fill="#0000ff" stroke="#0000ff" points="96.432,-325.6773 86.8545,-321.147 91.5165,-330.6611 96.432,-325.6773"/>
</g>
<!-- ret_g2 -->
<g id="node15" class="node">
<title>ret_g2</title>
<ellipse fill="none" stroke="#000000" cx="134.4971" cy="-18" rx="27" ry="18"/>
<text text-anchor="middle" x="134.4971" y="-14.3" font-family="Times,serif" font-size="14.00" fill="#000000">I</text>
</g>
<!-- g2s&#45;&gt;ret_g2 -->
<g id="edge17" class="edge">
<title>g2s&#45;&gt;ret_g2</title>
<path fill="none" stroke="#ff0000" d="M144.4971,-359.8146C144.4971,-332.4983 144.4971,-279.25 144.4971,-234 144.4971,-234 144.4971,-234 144.4971,-162 144.4971,-121.7793 140.5666,-75.391 137.634,-46.3773"/>
<polygon fill="#ff0000" stroke="#ff0000" points="141.0867,-45.7407 136.5691,-36.1573 134.1244,-46.4662 141.0867,-45.7407"/>
</g>
<!-- d2 -->
<g id="node7" class="node">
<title>d2</title>
<ellipse fill="none" stroke="#000000" cx="197.4971" cy="-522" rx="29.795" ry="18"/>
<text text-anchor="middle" x="197.4971" y="-518.3" font-family="Times,serif" font-size="14.00" fill="#000000">Dup</text>
</g>
<!-- d2&#45;&gt;d1 -->
<g id="edge5" class="edge">
<title>d2&#45;&gt;d1</title>
<path fill="none" stroke="#ff0000" d="M197.4971,-503.8314C197.4971,-496.131 197.4971,-486.9743 197.4971,-478.4166"/>
<polygon fill="#ff0000" stroke="#ff0000" points="200.9972,-478.4132 197.4971,-468.4133 193.9972,-478.4133 200.9972,-478.4132"/>
</g>
<!-- g2a -->
<g id="node8" class="node">
<title>g2a</title>
<ellipse fill="none" stroke="#000000" cx="235.4971" cy="-594" rx="27" ry="18"/>
<text text-anchor="middle" x="235.4971" y="-590.3" font-family="Times,serif" font-size="14.00" fill="#000000">!</text>
</g>
<!-- g2a&#45;&gt;d2 -->
<g id="edge6" class="edge">
<title>g2a&#45;&gt;d2</title>
<path fill="none" stroke="#ff0000" d="M226.4916,-576.937C222.0144,-568.4537 216.502,-558.0092 211.4901,-548.513"/>
<polygon fill="#ff0000" stroke="#ff0000" points="214.4649,-546.6509 206.7019,-539.4407 208.2742,-549.9182 214.4649,-546.6509"/>
</g>
<!-- g2b -->
<g id="node9" class="node">
<title>g2b</title>
<ellipse fill="none" stroke="#000000" cx="163.4971" cy="-594" rx="27" ry="18"/>
<text text-anchor="middle" x="163.4971" y="-590.3" font-family="Times,serif" font-size="14.00" fill="#000000">!</text>
</g>
<!-- g2b&#45;&gt;d2 -->
<g id="edge7" class="edge">
<title>g2b&#45;&gt;d2</title>
<path fill="none" stroke="#ff0000" d="M171.7276,-576.5708C175.6659,-568.2309 180.4689,-558.0598 184.8564,-548.7686"/>
<polygon fill="#ff0000" stroke="#ff0000" points="188.1194,-550.0553 189.2246,-539.5182 181.7896,-547.0662 188.1194,-550.0553"/>
</g>
<!-- al -->
<g id="node11" class="node">
<title>al</title>
<ellipse fill="none" stroke="#000000" cx="109.4971" cy="-666" rx="27" ry="18"/>
<text text-anchor="middle" x="109.4971" y="-662.3" font-family="Times,serif" font-size="14.00" fill="#000000">I</text>
</g>
<!-- id_r&#45;&gt;al -->
<g id="edge8" class="edge">
<title>id_r&#45;&gt;al</title>
<path fill="none" stroke="#0000ff" d="M103.5814,-720.2022C102.777,-712.1807 102.5543,-702.5231 102.9133,-693.5957"/>
<polygon fill="#0000ff" stroke="#0000ff" points="106.4068,-693.8099 103.6021,-683.593 99.4233,-693.3289 106.4068,-693.8099"/>
</g>
<!-- id_r&#45;&gt;al -->
<g id="edge9" class="edge">
<title>id_r&#45;&gt;al</title>
<path fill="none" stroke="#ff0000" d="M115.4128,-720.2022C116.2173,-712.1807 116.44,-702.5231 116.0809,-693.5957"/>
<polygon fill="#ff0000" stroke="#ff0000" points="119.5709,-693.3289 115.3921,-683.593 112.5874,-693.8099 119.5709,-693.3289"/>
</g>
<!-- ssa&#45;&gt;g2a -->
<g id="edge12" class="edge">
<title>ssa&#45;&gt;g2a</title>
<path fill="none" stroke="#ff0000" d="M210.1798,-720.0032C212.324,-709.5043 215.074,-696.0043 217.4971,-684 221.6943,-663.2067 226.3938,-639.7014 229.9382,-621.9276"/>
<polygon fill="#ff0000" stroke="#ff0000" points="233.4079,-622.4247 231.9299,-611.9335 226.5429,-621.0565 233.4079,-622.4247"/>
</g>
<!-- sa -->
<g id="node13" class="node">
<title>sa</title>
<ellipse fill="none" stroke="#000000" cx="181.4971" cy="-666" rx="27" ry="18"/>
<text text-anchor="middle" x="181.4971" y="-662.3" font-family="Times,serif" font-size="14.00" fill="#000000">PiL</text>
</g>
<!-- ssa&#45;&gt;sa -->
<g id="edge13" class="edge">
<title>ssa&#45;&gt;sa</title>
<path fill="none" stroke="#0000ff" d="M200.3173,-720.2022C197.5018,-712.0936 194.1058,-702.3129 190.978,-693.3049"/>
<polygon fill="#0000ff" stroke="#0000ff" points="194.1923,-691.8917 187.6058,-683.593 187.5796,-694.1878 194.1923,-691.8917"/>
</g>
<!-- sa&#45;&gt;ret -->
<g id="edge15" class="edge">
<title>sa&#45;&gt;ret</title>
<path fill="none" stroke="#0000ff" d="M163.9514,-652.1177C150.3552,-641.3602 131.3218,-626.3009 116.0367,-614.2072"/>
<polygon fill="#0000ff" stroke="#0000ff" points="118.0029,-611.2998 107.989,-607.8397 113.6595,-616.7893 118.0029,-611.2998"/>
</g>
<!-- sa&#45;&gt;g2b -->
<g id="edge14" class="edge">
<title>sa&#45;&gt;g2b</title>
<path fill="none" stroke="#ff0000" d="M177.0477,-648.2022C175.0573,-640.2406 172.6639,-630.6671 170.446,-621.7957"/>
<polygon fill="#ff0000" stroke="#ff0000" points="173.7787,-620.6951 167.9578,-611.8425 166.9877,-622.3929 173.7787,-620.6951"/>
</g>
<!-- x_g2 -->
<g id="node16" class="node">
<title>x_g2</title>
<ellipse fill="none" stroke="#000000" cx="71.4971" cy="-234" rx="27" ry="18"/>
<text text-anchor="middle" x="71.4971" y="-230.3" font-family="Times,serif" font-size="14.00" fill="#000000">!c</text>
</g>
<!-- y&#45;&gt;x_g2 -->
<g id="edge18" class="edge">
<title>y&#45;&gt;x_g2</title>
<path fill="none" stroke="#0000ff" d="M71.4971,-287.8314C71.4971,-280.131 71.4971,-270.9743 71.4971,-262.4166"/>
<polygon fill="#0000ff" stroke="#0000ff" points="74.9972,-262.4132 71.4971,-252.4133 67.9972,-262.4133 74.9972,-262.4132"/>
</g>
<!-- x1_g2 -->
<g id="node17" class="node">
<title>x1_g2</title>
<ellipse fill="none" stroke="#000000" cx="89.4971" cy="-162" rx="27" ry="18"/>
<text text-anchor="middle" x="89.4971" y="-158.3" font-family="Times,serif" font-size="14.00" fill="#000000">!d</text>
</g>
<!-- x_g2&#45;&gt;x1_g2 -->
<g id="edge20" class="edge">
<title>x_g2&#45;&gt;x1_g2</title>
<path fill="none" stroke="#0000ff" d="M75.9466,-216.2022C77.937,-208.2406 80.3303,-198.6671 82.5482,-189.7957"/>
<polygon fill="#0000ff" stroke="#0000ff" points="86.0065,-190.3929 85.0365,-179.8425 79.2156,-188.6951 86.0065,-190.3929"/>
</g>
<!-- x2_g2 -->
<g id="node18" class="node">
<title>x2_g2</title>
<ellipse fill="none" stroke="#000000" cx="53.4971" cy="-18" rx="27" ry="18"/>
<text text-anchor="middle" x="53.4971" y="-14.3" font-family="Times,serif" font-size="14.00" fill="#000000">I</text>
</g>
<!-- x_g2&#45;&gt;x2_g2 -->
<g id="edge21" class="edge">
<title>x_g2&#45;&gt;x2_g2</title>
<path fill="none" stroke="#0000ff" d="M64.0167,-216.3643C60.0233,-205.9858 55.5233,-192.4858 53.4971,-180 45.9686,-133.6074 48.2689,-78.7525 50.774,-46.2515"/>
<polygon fill="#0000ff" stroke="#0000ff" points="54.2748,-46.3871 51.6176,-36.1309 47.299,-45.8056 54.2748,-46.3871"/>
</g>
<!-- x1i_g2 -->
<g id="node19" class="node">
<title>x1i_g2</title>
<ellipse fill="none" stroke="#000000" cx="89.4971" cy="-90" rx="27" ry="18"/>
<text text-anchor="middle" x="89.4971" y="-86.3" font-family="Times,serif" font-size="14.00" fill="#000000">PiL</text>
</g>
<!-- x1_g2&#45;&gt;x1i_g2 -->
<g id="edge22" class="edge">
<title>x1_g2&#45;&gt;x1i_g2</title>
<path fill="none" stroke="#0000ff" d="M89.4971,-143.8314C89.4971,-136.131 89.4971,-126.9743 89.4971,-118.4166"/>
<polygon fill="#0000ff" stroke="#0000ff" points="92.9972,-118.4132 89.4971,-108.4133 85.9972,-118.4133 92.9972,-118.4132"/>
</g>
<!-- x1i_g2&#45;&gt;ret_g2 -->
<g id="edge24" class="edge">
<title>x1i_g2&#45;&gt;ret_g2</title>
<path fill="none" stroke="#0000ff" d="M99.9341,-73.3008C105.4206,-64.5224 112.2657,-53.5703 118.4134,-43.7339"/>
<polygon fill="#0000ff" stroke="#0000ff" points="121.4722,-45.4436 123.8042,-35.1086 115.5362,-41.7336 121.4722,-45.4436"/>
</g>
<!-- x1i_g2&#45;&gt;x2_g2 -->
<g id="edge23" class="edge">
<title>x1i_g2&#45;&gt;x2_g2</title>
<path fill="none" stroke="#ff0000" d="M80.7825,-72.5708C76.5374,-64.0807 71.3435,-53.6929 66.6308,-44.2674"/>
<polygon fill="#ff0000" stroke="#ff0000" points="69.7341,-42.6477 62.1315,-35.2687 63.4732,-45.7782 69.7341,-42.6477"/>
</g>
</g>
</svg>
