<?xml version="1.0" encoding="UTF-8" standalone="no"?>
<!DOCTYPE svg PUBLIC "-//W3C//DTD SVG 1.1//EN"
 "http://www.w3.org/Graphics/SVG/1.1/DTD/svg11.dtd">
<!-- Generated by graphviz version 2.40.1 (20161225.0304)
 -->
<!-- Title: %3 Pages: 1 -->
<svg width="598pt" height="827pt"
 viewBox="0.00 0.00 598.50 826.90" xmlns="http://www.w3.org/2000/svg" xmlns:xlink="http://www.w3.org/1999/xlink">
<g id="graph0" class="graph" transform="scale(1 1) rotate(0) translate(4 822.895)">
<title>%3</title>
<polygon fill="#ffffff" stroke="transparent" points="-4,4 -4,-822.895 594.4971,-822.895 594.4971,4 -4,4"/>
<!-- Root -->
<g id="node1" class="node">
<title>Root</title>
<ellipse fill="none" stroke="#000000" cx="32.4971" cy="-525.9475" rx="32.4942" ry="18"/>
<text text-anchor="middle" x="32.4971" y="-522.2475" font-family="Times,serif" font-size="14.00" fill="#000000">Root</text>
</g>
<!-- ret -->
<g id="node2" class="node">
<title>ret</title>
<ellipse fill="none" stroke="#000000" cx="49.4971" cy="-425" rx="27" ry="18"/>
<text text-anchor="middle" x="49.4971" y="-421.3" font-family="Times,serif" font-size="14.00" fill="#000000">I</text>
</g>
<!-- Root&#45;&gt;ret -->
<g id="edge1" class="edge">
<title>Root&#45;&gt;ret</title>
<path fill="none" stroke="#ff0000" stroke-width="2" d="M35.5364,-507.9001C38.0989,-492.6838 41.8096,-470.6491 44.7614,-453.1211"/>
<polygon fill="#ff0000" stroke="#ff0000" stroke-width="2" points="48.2748,-453.3336 46.4842,-442.8911 41.372,-452.171 48.2748,-453.3336"/>
</g>
<!-- c1a -->
<g id="node3" class="node">
<title>c1a</title>
<ellipse fill="none" stroke="#000000" cx="114.4971" cy="-525.9475" rx="27.9017" ry="27.9017"/>
<ellipse fill="none" stroke="#000000" cx="114.4971" cy="-525.9475" rx="31.8951" ry="31.8951"/>
<text text-anchor="middle" x="114.4971" y="-522.2475" font-family="Times,serif" font-size="14.00" fill="#000000">Cut</text>
</g>
<!-- c1a&#45;&gt;ret -->
<g id="edge3" class="edge">
<title>c1a&#45;&gt;ret</title>
<path fill="none" stroke="#0000ff" stroke-width="2" d="M97.0783,-498.8954C87.3621,-483.8058 75.3352,-465.1276 65.8041,-450.3254"/>
<polygon fill="#0000ff" stroke="#0000ff" stroke-width="2" points="68.5917,-448.1895 60.2351,-441.6765 62.7062,-451.9792 68.5917,-448.1895"/>
</g>
<!-- ret_o1 -->
<g id="node4" class="node">
<title>ret_o1</title>
<ellipse fill="none" stroke="#000000" cx="126.4971" cy="-425" rx="27" ry="18"/>
<text text-anchor="middle" x="126.4971" y="-421.3" font-family="Times,serif" font-size="14.00" fill="#000000">I</text>
</g>
<!-- c1a&#45;&gt;ret_o1 -->
<g id="edge2" class="edge">
<title>c1a&#45;&gt;ret_o1</title>
<path fill="none" stroke="#ff0000" d="M118.294,-494.0071C119.8497,-480.9202 121.6348,-465.9031 123.1417,-453.2265"/>
<polygon fill="#ff0000" stroke="#ff0000" points="126.626,-453.5656 124.331,-443.2224 119.6749,-452.7393 126.626,-453.5656"/>
</g>
<!-- c1b -->
<g id="node5" class="node">
<title>c1b</title>
<ellipse fill="none" stroke="#000000" cx="281.4971" cy="-800.895" rx="27.8951" ry="18"/>
<text text-anchor="middle" x="281.4971" y="-797.195" font-family="Times,serif" font-size="14.00" fill="#000000">Cut</text>
</g>
<!-- fp -->
<g id="node6" class="node">
<title>fp</title>
<ellipse fill="none" stroke="#000000" cx="320.4971" cy="-713.895" rx="27" ry="18"/>
<text text-anchor="middle" x="320.4971" y="-710.195" font-family="Times,serif" font-size="14.00" fill="#000000">!p</text>
</g>
<!-- c1b&#45;&gt;fp -->
<g id="edge4" class="edge">
<title>c1b&#45;&gt;fp</title>
<path fill="none" stroke="#ff0000" d="M289.3893,-783.2893C294.8699,-771.0633 302.2739,-754.5467 308.4837,-740.6942"/>
<polygon fill="#ff0000" stroke="#ff0000" points="311.8529,-741.7345 312.7497,-731.1777 305.4653,-738.8711 311.8529,-741.7345"/>
<text text-anchor="middle" x="308.4971" y="-753.695" font-family="Times,serif" font-size="14.00" fill="#000000">0</text>
</g>
<!-- x_o1 -->
<g id="node7" class="node">
<title>x_o1</title>
<ellipse fill="none" stroke="#000000" cx="246.4971" cy="-713.895" rx="27" ry="18"/>
<text text-anchor="middle" x="246.4971" y="-710.195" font-family="Times,serif" font-size="14.00" fill="#000000">!c</text>
</g>
<!-- c1b&#45;&gt;x_o1 -->
<g id="edge5" class="edge">
<title>c1b&#45;&gt;x_o1</title>
<path fill="none" stroke="#0000ff" d="M274.4143,-783.2893C269.528,-771.1433 262.938,-754.7625 257.3878,-740.9662"/>
<polygon fill="#0000ff" stroke="#0000ff" points="260.5488,-739.4457 253.5694,-731.4746 254.0546,-742.0583 260.5488,-739.4457"/>
</g>
<!-- f -->
<g id="node11" class="node">
<title>f</title>
<ellipse fill="none" stroke="#000000" cx="325.4971" cy="-626.895" rx="27" ry="18"/>
<text text-anchor="middle" x="325.4971" y="-623.195" font-family="Times,serif" font-size="14.00" fill="#000000">PiR</text>
</g>
<!-- fp&#45;&gt;f -->
<g id="edge11" class="edge">
<title>fp&#45;&gt;f</title>
<path fill="none" stroke="#ff0000" d="M321.5331,-695.8686C322.2102,-684.0868 323.1086,-668.4557 323.8788,-655.0531"/>
<polygon fill="#ff0000" stroke="#ff0000" points="327.3828,-655.0828 324.4624,-644.8984 320.3943,-654.6811 327.3828,-655.0828"/>
<text text-anchor="middle" x="328.4971" y="-666.695" font-family="Times,serif" font-size="14.00" fill="#000000">1</text>
</g>
<!-- x1_o1 -->
<g id="node8" class="node">
<title>x1_o1</title>
<ellipse fill="none" stroke="#000000" cx="204.4971" cy="-425" rx="27" ry="18"/>
<text text-anchor="middle" x="204.4971" y="-421.3" font-family="Times,serif" font-size="14.00" fill="#000000">I</text>
</g>
<!-- x_o1&#45;&gt;x1_o1 -->
<g id="edge6" class="edge">
<title>x_o1&#45;&gt;x1_o1</title>
<path fill="none" stroke="#0000ff" d="M246.3668,-695.7301C245.7812,-657.8321 242.749,-567.7349 227.4971,-494 224.5707,-479.8523 219.6659,-464.5681 215.1357,-451.9893"/>
<polygon fill="#0000ff" stroke="#0000ff" points="218.3935,-450.7081 211.6278,-442.5548 211.8323,-453.1476 218.3935,-450.7081"/>
</g>
<!-- x2_o1 -->
<g id="node9" class="node">
<title>x2_o1</title>
<ellipse fill="none" stroke="#000000" cx="191.4971" cy="-626.895" rx="27" ry="18"/>
<text text-anchor="middle" x="191.4971" y="-623.195" font-family="Times,serif" font-size="14.00" fill="#000000">!d</text>
</g>
<!-- x_o1&#45;&gt;x2_o1 -->
<g id="edge7" class="edge">
<title>x_o1&#45;&gt;x2_o1</title>
<path fill="none" stroke="#0000ff" d="M235.8926,-697.1206C227.8272,-684.3627 216.5963,-666.5974 207.4487,-652.1275"/>
<polygon fill="#0000ff" stroke="#0000ff" points="210.3712,-650.2003 202.0691,-643.618 204.4543,-653.9409 210.3712,-650.2003"/>
</g>
<!-- x2i_o1 -->
<g id="node10" class="node">
<title>x2i_o1</title>
<ellipse fill="none" stroke="#000000" cx="191.4971" cy="-525.9475" rx="27" ry="18"/>
<text text-anchor="middle" x="191.4971" y="-522.2475" font-family="Times,serif" font-size="14.00" fill="#000000">PiL</text>
</g>
<!-- x2_o1&#45;&gt;x2i_o1 -->
<g id="edge8" class="edge">
<title>x2_o1&#45;&gt;x2i_o1</title>
<path fill="none" stroke="#0000ff" d="M191.4971,-608.8476C191.4971,-593.7253 191.4971,-571.8684 191.4971,-554.3938"/>
<polygon fill="#0000ff" stroke="#0000ff" points="194.9972,-554.179 191.4971,-544.179 187.9972,-554.1791 194.9972,-554.179"/>
</g>
<!-- x2i_o1&#45;&gt;ret_o1 -->
<g id="edge10" class="edge">
<title>x2i_o1&#45;&gt;ret_o1</title>
<path fill="none" stroke="#0000ff" d="M180.7637,-509.2781C170.4138,-493.2044 154.6134,-468.6657 142.7265,-450.2049"/>
<polygon fill="#0000ff" stroke="#0000ff" points="145.603,-448.2072 137.2465,-441.6942 139.7176,-451.9968 145.603,-448.2072"/>
</g>
<!-- x2i_o1&#45;&gt;x1_o1 -->
<g id="edge9" class="edge">
<title>x2i_o1&#45;&gt;x1_o1</title>
<path fill="none" stroke="#ff0000" d="M193.8213,-507.9001C195.7687,-492.7778 198.5834,-470.9209 200.8338,-453.4463"/>
<polygon fill="#ff0000" stroke="#ff0000" points="204.3433,-453.5967 202.1493,-443.2315 197.4006,-452.7025 204.3433,-453.5967"/>
</g>
<!-- hi_retp -->
<g id="node12" class="node">
<title>hi_retp</title>
<ellipse fill="none" stroke="#000000" cx="325.4971" cy="-525.9475" rx="27" ry="18"/>
<text text-anchor="middle" x="325.4971" y="-522.2475" font-family="Times,serif" font-size="14.00" fill="#000000">!p</text>
</g>
<!-- f&#45;&gt;hi_retp -->
<g id="edge12" class="edge">
<title>f&#45;&gt;hi_retp</title>
<path fill="none" stroke="#0000ff" d="M325.4971,-608.8476C325.4971,-593.7253 325.4971,-571.8684 325.4971,-554.3938"/>
<polygon fill="#0000ff" stroke="#0000ff" points="328.9972,-554.179 325.4971,-544.179 321.9972,-554.1791 328.9972,-554.179"/>
<text text-anchor="middle" x="330.4971" y="-579.695" font-family="Times,serif" font-size="14.00" fill="#000000">1</text>
</g>
<!-- f_ret -->
<g id="node13" class="node">
<title>f_ret</title>
<ellipse fill="none" stroke="#000000" cx="403.4971" cy="-525.9475" rx="27" ry="18"/>
<text text-anchor="middle" x="403.4971" y="-522.2475" font-family="Times,serif" font-size="14.00" fill="#000000">I</text>
</g>
<!-- f&#45;&gt;f_ret -->
<g id="edge13" class="edge">
<title>f&#45;&gt;f_ret</title>
<path fill="none" stroke="#ff0000" d="M344.5321,-614.0053C352.8874,-607.711 362.3901,-599.618 369.4971,-590.895 378.7583,-579.528 386.5696,-565.239 392.3604,-552.9598"/>
<polygon fill="#ff0000" stroke="#ff0000" points="395.6439,-554.1924 396.5605,-543.6373 389.2617,-551.317 395.6439,-554.1924"/>
</g>
<!-- hi_ret -->
<g id="node22" class="node">
<title>hi_ret</title>
<ellipse fill="none" stroke="#000000" cx="271.4971" cy="-251" rx="27" ry="18"/>
<text text-anchor="middle" x="271.4971" y="-247.3" font-family="Times,serif" font-size="14.00" fill="#000000">I</text>
</g>
<!-- hi_retp&#45;&gt;hi_ret -->
<g id="edge25" class="edge">
<title>hi_retp&#45;&gt;hi_ret</title>
<path fill="none" stroke="#ff0000" d="M316.3979,-508.6828C308.1876,-492.2634 296.505,-466.6312 290.4971,-443 276.0367,-386.1224 272.4701,-317.1662 271.6591,-279.3057"/>
<polygon fill="#ff0000" stroke="#ff0000" points="275.1544,-278.9859 271.4916,-269.0443 268.1553,-279.1001 275.1544,-278.9859"/>
<text text-anchor="middle" x="285.4971" y="-377.8" font-family="Times,serif" font-size="14.00" fill="#000000">2</text>
</g>
<!-- h_di -->
<g id="node23" class="node">
<title>h_di</title>
<ellipse fill="none" stroke="#000000" cx="326.4971" cy="-425" rx="27" ry="18"/>
<text text-anchor="middle" x="326.4971" y="-421.3" font-family="Times,serif" font-size="14.00" fill="#000000">!d</text>
</g>
<!-- hi_retp&#45;&gt;h_di -->
<g id="edge26" class="edge">
<title>hi_retp&#45;&gt;h_di</title>
<path fill="none" stroke="#0000ff" d="M325.6759,-507.9001C325.8257,-492.7778 326.0422,-470.9209 326.2153,-453.4463"/>
<polygon fill="#0000ff" stroke="#0000ff" points="329.7172,-453.2657 326.3165,-443.2315 322.7175,-453.1963 329.7172,-453.2657"/>
<text text-anchor="middle" x="331.4971" y="-464.8" font-family="Times,serif" font-size="14.00" fill="#000000">1</text>
</g>
<!-- c2 -->
<g id="node14" class="node">
<title>c2</title>
<ellipse fill="none" stroke="#000000" cx="452.4971" cy="-713.895" rx="27.8951" ry="18"/>
<text text-anchor="middle" x="452.4971" y="-710.195" font-family="Times,serif" font-size="14.00" fill="#000000">Cut</text>
</g>
<!-- o2 -->
<g id="node15" class="node">
<title>o2</title>
<ellipse fill="none" stroke="#000000" cx="496.4971" cy="-626.895" rx="27" ry="18"/>
<text text-anchor="middle" x="496.4971" y="-623.195" font-family="Times,serif" font-size="14.00" fill="#000000">PiR</text>
</g>
<!-- c2&#45;&gt;o2 -->
<g id="edge14" class="edge">
<title>c2&#45;&gt;o2</title>
<path fill="none" stroke="#ff0000" d="M461.1901,-696.7066C467.4576,-684.3142 476.033,-667.3581 483.1631,-653.2601"/>
<polygon fill="#ff0000" stroke="#ff0000" points="486.4323,-654.551 487.8222,-644.0477 480.1857,-651.3918 486.4323,-654.551"/>
</g>
<!-- o2l -->
<g id="node16" class="node">
<title>o2l</title>
<ellipse fill="none" stroke="#000000" cx="408.4971" cy="-626.895" rx="27" ry="18"/>
<text text-anchor="middle" x="408.4971" y="-623.195" font-family="Times,serif" font-size="14.00" fill="#000000">PiL</text>
</g>
<!-- c2&#45;&gt;o2l -->
<g id="edge15" class="edge">
<title>c2&#45;&gt;o2l</title>
<path fill="none" stroke="#0000ff" d="M443.8041,-696.7066C437.5367,-684.3142 428.9612,-667.3581 421.8312,-653.2601"/>
<polygon fill="#0000ff" stroke="#0000ff" points="424.8085,-651.3918 417.172,-644.0477 418.5619,-654.551 424.8085,-651.3918"/>
</g>
<!-- x_o2 -->
<g id="node17" class="node">
<title>x_o2</title>
<ellipse fill="none" stroke="#000000" cx="496.4971" cy="-525.9475" rx="27" ry="18"/>
<text text-anchor="middle" x="496.4971" y="-522.2475" font-family="Times,serif" font-size="14.00" fill="#000000">!c</text>
</g>
<!-- o2&#45;&gt;x_o2 -->
<g id="edge16" class="edge">
<title>o2&#45;&gt;x_o2</title>
<path fill="none" stroke="#0000ff" d="M496.4971,-608.8476C496.4971,-593.7253 496.4971,-571.8684 496.4971,-554.3938"/>
<polygon fill="#0000ff" stroke="#0000ff" points="499.9972,-554.179 496.4971,-544.179 492.9972,-554.1791 499.9972,-554.179"/>
</g>
<!-- ret_o2 -->
<g id="node18" class="node">
<title>ret_o2</title>
<ellipse fill="none" stroke="#000000" cx="563.4971" cy="-251" rx="27" ry="18"/>
<text text-anchor="middle" x="563.4971" y="-247.3" font-family="Times,serif" font-size="14.00" fill="#000000">I</text>
</g>
<!-- o2&#45;&gt;ret_o2 -->
<g id="edge17" class="edge">
<title>o2&#45;&gt;ret_o2</title>
<path fill="none" stroke="#ff0000" d="M514.2663,-612.9044C534.7105,-595.0944 565.4971,-562.2482 565.4971,-525.9475 565.4971,-525.9475 565.4971,-525.9475 565.4971,-338 565.4971,-318.5423 564.9909,-296.6433 564.4879,-279.6839"/>
<polygon fill="#ff0000" stroke="#ff0000" points="567.9749,-279.2131 564.1631,-269.3277 560.9784,-279.4326 567.9749,-279.2131"/>
</g>
<!-- o2l&#45;&gt;hi_retp -->
<g id="edge23" class="edge">
<title>o2l&#45;&gt;hi_retp</title>
<path fill="none" stroke="#ff0000" d="M395.1617,-610.6761C381.5898,-594.1694 360.4086,-568.4081 344.9628,-549.6224"/>
<polygon fill="#ff0000" stroke="#ff0000" points="347.5803,-547.2949 338.5258,-541.7934 342.1733,-551.7406 347.5803,-547.2949"/>
<text text-anchor="middle" x="382.4971" y="-579.695" font-family="Times,serif" font-size="14.00" fill="#000000">1</text>
</g>
<!-- o2l&#45;&gt;f_ret -->
<g id="edge24" class="edge">
<title>o2l&#45;&gt;f_ret</title>
<path fill="none" stroke="#0000ff" d="M407.6032,-608.8476C406.8542,-593.7253 405.7716,-571.8684 404.9061,-554.3938"/>
<polygon fill="#0000ff" stroke="#0000ff" points="408.3906,-553.9936 404.4001,-544.179 401.3992,-554.34 408.3906,-553.9936"/>
</g>
<!-- x1_o2 -->
<g id="node19" class="node">
<title>x1_o2</title>
<ellipse fill="none" stroke="#000000" cx="490.4971" cy="-251" rx="27" ry="18"/>
<text text-anchor="middle" x="490.4971" y="-247.3" font-family="Times,serif" font-size="14.00" fill="#000000">I</text>
</g>
<!-- x_o2&#45;&gt;x1_o2 -->
<g id="edge18" class="edge">
<title>x_o2&#45;&gt;x1_o2</title>
<path fill="none" stroke="#0000ff" d="M490.3199,-508.0947C484.9176,-491.4766 477.4822,-465.8989 474.4971,-443 467.4305,-388.792 468.2825,-374.3123 474.4971,-320 476.0807,-306.1601 479.3958,-291.0577 482.5999,-278.5202"/>
<polygon fill="#0000ff" stroke="#0000ff" points="486.0302,-279.2401 485.2248,-268.6759 479.2665,-277.4365 486.0302,-279.2401"/>
</g>
<!-- x2_o2 -->
<g id="node20" class="node">
<title>x2_o2</title>
<ellipse fill="none" stroke="#000000" cx="510.4971" cy="-425" rx="27" ry="18"/>
<text text-anchor="middle" x="510.4971" y="-421.3" font-family="Times,serif" font-size="14.00" fill="#000000">!d</text>
</g>
<!-- x_o2&#45;&gt;x2_o2 -->
<g id="edge19" class="edge">
<title>x_o2&#45;&gt;x2_o2</title>
<path fill="none" stroke="#0000ff" d="M499,-507.9001C501.0973,-492.7778 504.1285,-470.9209 506.552,-453.4463"/>
<polygon fill="#0000ff" stroke="#0000ff" points="510.0617,-453.6175 507.9687,-443.2315 503.128,-452.6559 510.0617,-453.6175"/>
</g>
<!-- x2i_o2 -->
<g id="node21" class="node">
<title>x2i_o2</title>
<ellipse fill="none" stroke="#000000" cx="510.4971" cy="-338" rx="27" ry="18"/>
<text text-anchor="middle" x="510.4971" y="-334.3" font-family="Times,serif" font-size="14.00" fill="#000000">PiL</text>
</g>
<!-- x2_o2&#45;&gt;x2i_o2 -->
<g id="edge20" class="edge">
<title>x2_o2&#45;&gt;x2i_o2</title>
<path fill="none" stroke="#0000ff" d="M510.4971,-406.9735C510.4971,-395.1918 510.4971,-379.5607 510.4971,-366.1581"/>
<polygon fill="#0000ff" stroke="#0000ff" points="513.9972,-366.0033 510.4971,-356.0034 506.9972,-366.0034 513.9972,-366.0033"/>
</g>
<!-- x2i_o2&#45;&gt;ret_o2 -->
<g id="edge22" class="edge">
<title>x2i_o2&#45;&gt;ret_o2</title>
<path fill="none" stroke="#0000ff" d="M520.716,-321.2255C528.4148,-308.588 539.1067,-291.0371 547.8756,-276.6429"/>
<polygon fill="#0000ff" stroke="#0000ff" points="551.096,-278.084 553.3096,-267.723 545.1179,-274.4422 551.096,-278.084"/>
</g>
<!-- x2i_o2&#45;&gt;x1_o2 -->
<g id="edge21" class="edge">
<title>x2i_o2&#45;&gt;x1_o2</title>
<path fill="none" stroke="#ff0000" d="M506.3531,-319.9735C503.6178,-308.0751 499.98,-292.2508 496.8789,-278.7606"/>
<polygon fill="#ff0000" stroke="#ff0000" points="500.2873,-277.965 494.6358,-269.0034 493.4653,-279.5333 500.2873,-277.965"/>
</g>
<!-- h -->
<g id="node24" class="node">
<title>h</title>
<ellipse fill="none" stroke="#000000" cx="326.4971" cy="-338" rx="27" ry="18"/>
<text text-anchor="middle" x="326.4971" y="-334.3" font-family="Times,serif" font-size="14.00" fill="#000000">PiL</text>
</g>
<!-- h_di&#45;&gt;h -->
<g id="edge27" class="edge">
<title>h_di&#45;&gt;h</title>
<path fill="none" stroke="#0000ff" d="M326.4971,-406.9735C326.4971,-395.1918 326.4971,-379.5607 326.4971,-366.1581"/>
<polygon fill="#0000ff" stroke="#0000ff" points="329.9972,-366.0033 326.4971,-356.0034 322.9972,-366.0034 329.9972,-366.0033"/>
<text text-anchor="middle" x="331.4971" y="-377.8" font-family="Times,serif" font-size="14.00" fill="#000000">2</text>
</g>
<!-- h&#45;&gt;hi_ret -->
<g id="edge35" class="edge">
<title>h&#45;&gt;hi_ret</title>
<path fill="none" stroke="#0000ff" d="M315.8926,-321.2255C307.8272,-308.4677 296.5963,-290.7024 287.4487,-276.2325"/>
<polygon fill="#0000ff" stroke="#0000ff" points="290.3712,-274.3053 282.0691,-267.723 284.4543,-278.0458 290.3712,-274.3053"/>
</g>
<!-- h_app -->
<g id="node27" class="node">
<title>h_app</title>
<ellipse fill="none" stroke="#000000" cx="343.4971" cy="-251" rx="27" ry="18"/>
<text text-anchor="middle" x="343.4971" y="-247.3" font-family="Times,serif" font-size="14.00" fill="#000000">I</text>
</g>
<!-- h&#45;&gt;h_app -->
<g id="edge34" class="edge">
<title>h&#45;&gt;h_app</title>
<path fill="none" stroke="#ff0000" d="M330.0195,-319.9735C332.3217,-308.1918 335.3761,-292.5607 337.995,-279.1581"/>
<polygon fill="#ff0000" stroke="#ff0000" points="341.4964,-279.489 339.9792,-269.0034 334.6263,-278.1465 341.4964,-279.489"/>
</g>
<!-- c3 -->
<g id="node25" class="node">
<title>c3</title>
<ellipse fill="none" stroke="#000000" cx="399.4971" cy="-338" rx="27.8951" ry="18"/>
<text text-anchor="middle" x="399.4971" y="-334.3" font-family="Times,serif" font-size="14.00" fill="#000000">Cut</text>
</g>
<!-- i -->
<g id="node26" class="node">
<title>i</title>
<ellipse fill="none" stroke="#000000" cx="415.4971" cy="-251" rx="27" ry="18"/>
<text text-anchor="middle" x="415.4971" y="-247.3" font-family="Times,serif" font-size="14.00" fill="#000000">!p</text>
</g>
<!-- c3&#45;&gt;i -->
<g id="edge28" class="edge">
<title>c3&#45;&gt;i</title>
<path fill="none" stroke="#ff0000" d="M402.8123,-319.9735C404.9791,-308.1918 407.8538,-292.5607 410.3186,-279.1581"/>
<polygon fill="#ff0000" stroke="#ff0000" points="413.8196,-279.4715 412.1862,-269.0034 406.9351,-278.2053 413.8196,-279.4715"/>
<text text-anchor="middle" x="413.4971" y="-290.8" font-family="Times,serif" font-size="14.00" fill="#000000">2</text>
</g>
<!-- c3&#45;&gt;h_app -->
<g id="edge29" class="edge">
<title>c3&#45;&gt;h_app</title>
<path fill="none" stroke="#0000ff" d="M388.6998,-321.2255C380.4878,-308.4677 369.0527,-290.7024 359.7387,-276.2325"/>
<polygon fill="#0000ff" stroke="#0000ff" points="362.6169,-274.2373 354.2613,-267.723 356.7308,-278.026 362.6169,-274.2373"/>
</g>
<!-- i_i -->
<g id="node28" class="node">
<title>i_i</title>
<ellipse fill="none" stroke="#000000" cx="415.4971" cy="-164" rx="27" ry="18"/>
<text text-anchor="middle" x="415.4971" y="-160.3" font-family="Times,serif" font-size="14.00" fill="#000000">PiR</text>
</g>
<!-- i&#45;&gt;i_i -->
<g id="edge30" class="edge">
<title>i&#45;&gt;i_i</title>
<path fill="none" stroke="#ff0000" d="M415.4971,-232.9735C415.4971,-221.1918 415.4971,-205.5607 415.4971,-192.1581"/>
<polygon fill="#ff0000" stroke="#ff0000" points="418.9972,-192.0033 415.4971,-182.0034 411.9972,-192.0034 418.9972,-192.0033"/>
<text text-anchor="middle" x="420.4971" y="-203.8" font-family="Times,serif" font-size="14.00" fill="#000000">3</text>
</g>
<!-- il -->
<g id="node29" class="node">
<title>il</title>
<ellipse fill="none" stroke="#000000" cx="458.4971" cy="-91" rx="27" ry="18"/>
<text text-anchor="middle" x="458.4971" y="-87.3" font-family="Times,serif" font-size="14.00" fill="#000000">!d</text>
</g>
<!-- i_i&#45;&gt;il -->
<g id="edge31" class="edge">
<title>i_i&#45;&gt;il</title>
<path fill="none" stroke="#0000ff" d="M425.4703,-147.0688C430.7889,-138.0396 437.4436,-126.742 443.3832,-116.6585"/>
<polygon fill="#0000ff" stroke="#0000ff" points="446.5184,-118.232 448.5781,-107.8393 440.4869,-114.6793 446.5184,-118.232"/>
</g>
<!-- i_ret -->
<g id="node30" class="node">
<title>i_ret</title>
<ellipse fill="none" stroke="#000000" cx="415.4971" cy="-18" rx="27" ry="18"/>
<text text-anchor="middle" x="415.4971" y="-14.3" font-family="Times,serif" font-size="14.00" fill="#000000">I</text>
</g>
<!-- i_i&#45;&gt;i_ret -->
<g id="edge32" class="edge">
<title>i_i&#45;&gt;i_ret</title>
<path fill="none" stroke="#ff0000" d="M415.4971,-145.8042C415.4971,-120.8868 415.4971,-75.8938 415.4971,-46.4877"/>
<polygon fill="#ff0000" stroke="#ff0000" points="418.9972,-46.4251 415.4971,-36.4251 411.9972,-46.4251 418.9972,-46.4251"/>
</g>
<!-- il&#45;&gt;i_ret -->
<g id="edge33" class="edge">
<title>il&#45;&gt;i_ret</title>
<path fill="none" stroke="#0000ff" d="M448.524,-74.0688C443.2054,-65.0396 436.5506,-53.742 430.611,-43.6585"/>
<polygon fill="#0000ff" stroke="#0000ff" points="433.5073,-41.6793 425.4162,-34.8393 427.4759,-45.232 433.5073,-41.6793"/>
</g>
</g>
</svg>
