<?xml version="1.0" encoding="UTF-8" standalone="no"?>
<!DOCTYPE svg PUBLIC "-//W3C//DTD SVG 1.1//EN"
 "http://www.w3.org/Graphics/SVG/1.1/DTD/svg11.dtd">
<!-- Generated by graphviz version 2.43.0 (0)
 -->
<!-- Title: %3 Pages: 1 -->
<svg width="596pt" height="826pt"
 viewBox="0.00 0.00 596.50 825.60" xmlns="http://www.w3.org/2000/svg" xmlns:xlink="http://www.w3.org/1999/xlink">
<g id="graph0" class="graph" transform="scale(1 1) rotate(0) translate(4 821.6)">
<title>%3</title>
<polygon fill="white" stroke="transparent" points="-4,4 -4,-821.6 592.5,-821.6 592.5,4 -4,4"/>
<!-- Root -->
<g id="node1" class="node">
<title>Root</title>
<ellipse fill="none" stroke="black" cx="32.5" cy="-525.3" rx="32.49" ry="18"/>
<text text-anchor="middle" x="32.5" y="-521.6" font-family="Times,serif" font-size="14.00">Root</text>
</g>
<!-- ret -->
<g id="node2" class="node">
<title>ret</title>
<ellipse fill="none" stroke="black" cx="48.5" cy="-425" rx="27" ry="18"/>
<text text-anchor="middle" x="48.5" y="-421.3" font-family="Times,serif" font-size="14.00">I</text>
</g>
<!-- Root&#45;&gt;ret -->
<g id="edge1" class="edge">
<title>Root&#45;&gt;ret</title>
<path fill="none" stroke="red" stroke-width="2" d="M35.28,-507.18C37.72,-492.23 41.29,-470.3 44.1,-453"/>
<polygon fill="red" stroke="red" stroke-width="2" points="47.59,-453.36 45.74,-442.93 40.68,-452.23 47.59,-453.36"/>
</g>
<!-- c1a -->
<g id="node3" class="node">
<title>c1a</title>
<ellipse fill="none" stroke="black" cx="114.5" cy="-525.3" rx="27.12" ry="27.12"/>
<ellipse fill="none" stroke="black" cx="114.5" cy="-525.3" rx="31.1" ry="31.1"/>
<text text-anchor="middle" x="114.5" y="-521.6" font-family="Times,serif" font-size="14.00">Cut</text>
</g>
<!-- c1a&#45;&gt;ret -->
<g id="edge3" class="edge">
<title>c1a&#45;&gt;ret</title>
<path fill="none" stroke="blue" stroke-width="2" d="M97.5,-498.98C87.44,-484 74.77,-465.13 64.83,-450.32"/>
<polygon fill="blue" stroke="blue" stroke-width="2" points="67.52,-448.05 59.04,-441.7 61.71,-451.96 67.52,-448.05"/>
</g>
<!-- ret_o1 -->
<g id="node4" class="node">
<title>ret_o1</title>
<ellipse fill="none" stroke="black" cx="125.5" cy="-425" rx="27" ry="18"/>
<text text-anchor="middle" x="125.5" y="-421.3" font-family="Times,serif" font-size="14.00">I</text>
</g>
<!-- c1a&#45;&gt;ret_o1 -->
<g id="edge2" class="edge">
<title>c1a&#45;&gt;ret_o1</title>
<path fill="none" stroke="red" d="M117.89,-494C119.35,-480.96 121.04,-465.82 122.46,-453.15"/>
<polygon fill="red" stroke="red" points="125.94,-453.51 123.57,-443.18 118.98,-452.73 125.94,-453.51"/>
</g>
<!-- c1b -->
<g id="node5" class="node">
<title>c1b</title>
<ellipse fill="none" stroke="black" cx="280.5" cy="-799.6" rx="27.1" ry="18"/>
<text text-anchor="middle" x="280.5" y="-795.9" font-family="Times,serif" font-size="14.00">Cut</text>
</g>
<!-- fp -->
<g id="node6" class="node">
<title>fp</title>
<ellipse fill="none" stroke="black" cx="319.5" cy="-712.6" rx="27" ry="18"/>
<text text-anchor="middle" x="319.5" y="-708.9" font-family="Times,serif" font-size="14.00">!p</text>
</g>
<!-- c1b&#45;&gt;fp -->
<g id="edge4" class="edge">
<title>c1b&#45;&gt;fp</title>
<path fill="none" stroke="red" d="M288.02,-782.21C293.63,-769.98 301.4,-753.04 307.82,-739.05"/>
<polygon fill="red" stroke="red" points="311.01,-740.48 312,-729.93 304.65,-737.56 311.01,-740.48"/>
<text text-anchor="middle" x="307.5" y="-752.4" font-family="Times,serif" font-size="14.00">0</text>
</g>
<!-- x_o1 -->
<g id="node7" class="node">
<title>x_o1</title>
<ellipse fill="none" stroke="black" cx="245.5" cy="-712.6" rx="27" ry="18"/>
<text text-anchor="middle" x="245.5" y="-708.9" font-family="Times,serif" font-size="14.00">!c</text>
</g>
<!-- c1b&#45;&gt;x_o1 -->
<g id="edge5" class="edge">
<title>c1b&#45;&gt;x_o1</title>
<path fill="none" stroke="blue" d="M273.58,-781.8C268.61,-769.73 261.82,-753.23 256.16,-739.49"/>
<polygon fill="blue" stroke="blue" points="259.32,-737.98 252.28,-730.06 252.85,-740.64 259.32,-737.98"/>
</g>
<!-- f -->
<g id="node11" class="node">
<title>f</title>
<ellipse fill="none" stroke="black" cx="324.5" cy="-625.6" rx="27" ry="18"/>
<text text-anchor="middle" x="324.5" y="-621.9" font-family="Times,serif" font-size="14.00">PiR</text>
</g>
<!-- fp&#45;&gt;f -->
<g id="edge11" class="edge">
<title>fp&#45;&gt;f</title>
<path fill="none" stroke="red" d="M320.51,-694.39C321.19,-682.76 322.11,-667.14 322.89,-653.83"/>
<polygon fill="red" stroke="red" points="326.39,-653.96 323.49,-643.77 319.41,-653.55 326.39,-653.96"/>
<text text-anchor="middle" x="327.5" y="-665.4" font-family="Times,serif" font-size="14.00">1</text>
</g>
<!-- x1_o1 -->
<g id="node8" class="node">
<title>x1_o1</title>
<ellipse fill="none" stroke="black" cx="203.5" cy="-425" rx="27" ry="18"/>
<text text-anchor="middle" x="203.5" y="-421.3" font-family="Times,serif" font-size="14.00">I</text>
</g>
<!-- x_o1&#45;&gt;x1_o1 -->
<g id="edge6" class="edge">
<title>x_o1&#45;&gt;x1_o1</title>
<path fill="none" stroke="blue" d="M245.39,-694.46C244.84,-657.46 241.9,-567.49 226.5,-494 223.51,-479.76 218.46,-464.36 213.86,-451.82"/>
<polygon fill="blue" stroke="blue" points="217.12,-450.57 210.3,-442.46 210.58,-453.05 217.12,-450.57"/>
</g>
<!-- x2_o1 -->
<g id="node9" class="node">
<title>x2_o1</title>
<ellipse fill="none" stroke="black" cx="190.5" cy="-625.6" rx="27" ry="18"/>
<text text-anchor="middle" x="190.5" y="-621.9" font-family="Times,serif" font-size="14.00">!d</text>
</g>
<!-- x_o1&#45;&gt;x2_o1 -->
<g id="edge7" class="edge">
<title>x_o1&#45;&gt;x2_o1</title>
<path fill="none" stroke="blue" d="M235.15,-695.61C227.01,-683.02 215.52,-665.27 206.24,-650.93"/>
<polygon fill="blue" stroke="blue" points="209.17,-649.01 200.8,-642.51 203.29,-652.81 209.17,-649.01"/>
</g>
<!-- x2i_o1 -->
<g id="node10" class="node">
<title>x2i_o1</title>
<ellipse fill="none" stroke="black" cx="190.5" cy="-525.3" rx="27" ry="18"/>
<text text-anchor="middle" x="190.5" y="-521.6" font-family="Times,serif" font-size="14.00">PiL</text>
</g>
<!-- x2_o1&#45;&gt;x2i_o1 -->
<g id="edge8" class="edge">
<title>x2_o1&#45;&gt;x2i_o1</title>
<path fill="none" stroke="blue" d="M190.5,-607.47C190.5,-592.62 190.5,-570.86 190.5,-553.61"/>
<polygon fill="blue" stroke="blue" points="194,-553.55 190.5,-543.55 187,-553.55 194,-553.55"/>
</g>
<!-- x2i_o1&#45;&gt;ret_o1 -->
<g id="edge10" class="edge">
<title>x2i_o1&#45;&gt;ret_o1</title>
<path fill="none" stroke="blue" d="M180.05,-508.5C169.63,-492.74 153.47,-468.31 141.45,-450.12"/>
<polygon fill="blue" stroke="blue" points="144.35,-448.16 135.91,-441.75 138.51,-452.03 144.35,-448.16"/>
</g>
<!-- x2i_o1&#45;&gt;x1_o1 -->
<g id="edge9" class="edge">
<title>x2i_o1&#45;&gt;x1_o1</title>
<path fill="none" stroke="red" d="M192.76,-507.18C194.73,-492.33 197.6,-470.57 199.88,-453.31"/>
<polygon fill="red" stroke="red" points="203.37,-453.63 201.22,-443.26 196.43,-452.71 203.37,-453.63"/>
</g>
<!-- hi_retp -->
<g id="node12" class="node">
<title>hi_retp</title>
<ellipse fill="none" stroke="black" cx="324.5" cy="-525.3" rx="27" ry="18"/>
<text text-anchor="middle" x="324.5" y="-521.6" font-family="Times,serif" font-size="14.00">!p</text>
</g>
<!-- f&#45;&gt;hi_retp -->
<g id="edge12" class="edge">
<title>f&#45;&gt;hi_retp</title>
<path fill="none" stroke="blue" d="M324.5,-607.47C324.5,-592.62 324.5,-570.86 324.5,-553.61"/>
<polygon fill="blue" stroke="blue" points="328,-553.55 324.5,-543.55 321,-553.55 328,-553.55"/>
<text text-anchor="middle" x="329.5" y="-578.4" font-family="Times,serif" font-size="14.00">1</text>
</g>
<!-- f_ret -->
<g id="node13" class="node">
<title>f_ret</title>
<ellipse fill="none" stroke="black" cx="402.5" cy="-525.3" rx="27" ry="18"/>
<text text-anchor="middle" x="402.5" y="-521.6" font-family="Times,serif" font-size="14.00">I</text>
</g>
<!-- f&#45;&gt;f_ret -->
<g id="edge13" class="edge">
<title>f&#45;&gt;f_ret</title>
<path fill="none" stroke="red" d="M343.07,-612.44C351.52,-606.29 361.24,-598.29 368.5,-589.6 377.9,-578.34 385.84,-564.07 391.67,-551.93"/>
<polygon fill="red" stroke="red" points="394.89,-553.3 395.89,-542.75 388.53,-550.38 394.89,-553.3"/>
</g>
<!-- hi_ret -->
<g id="node22" class="node">
<title>hi_ret</title>
<ellipse fill="none" stroke="black" cx="270.5" cy="-251" rx="27" ry="18"/>
<text text-anchor="middle" x="270.5" y="-247.3" font-family="Times,serif" font-size="14.00">I</text>
</g>
<!-- hi_retp&#45;&gt;hi_ret -->
<g id="edge25" class="edge">
<title>hi_retp&#45;&gt;hi_ret</title>
<path fill="none" stroke="red" d="M315.71,-508.01C307.48,-491.97 295.57,-466.51 289.5,-443 274.78,-386.03 271.32,-316.79 270.6,-279.3"/>
<polygon fill="red" stroke="red" points="274.1,-279.12 270.45,-269.17 267.1,-279.22 274.1,-279.12"/>
<text text-anchor="middle" x="284.5" y="-377.8" font-family="Times,serif" font-size="14.00">2</text>
</g>
<!-- h_di -->
<g id="node23" class="node">
<title>h_di</title>
<ellipse fill="none" stroke="black" cx="325.5" cy="-425" rx="27" ry="18"/>
<text text-anchor="middle" x="325.5" y="-421.3" font-family="Times,serif" font-size="14.00">!d</text>
</g>
<!-- hi_retp&#45;&gt;h_di -->
<g id="edge26" class="edge">
<title>hi_retp&#45;&gt;h_di</title>
<path fill="none" stroke="blue" d="M324.67,-507.18C324.82,-492.33 325.04,-470.57 325.22,-453.31"/>
<polygon fill="blue" stroke="blue" points="328.72,-453.29 325.32,-443.26 321.72,-453.22 328.72,-453.29"/>
<text text-anchor="middle" x="330.5" y="-464.8" font-family="Times,serif" font-size="14.00">1</text>
</g>
<!-- c2 -->
<g id="node14" class="node">
<title>c2</title>
<ellipse fill="none" stroke="black" cx="450.5" cy="-712.6" rx="27.1" ry="18"/>
<text text-anchor="middle" x="450.5" y="-708.9" font-family="Times,serif" font-size="14.00">Cut</text>
</g>
<!-- o2 -->
<g id="node15" class="node">
<title>o2</title>
<ellipse fill="none" stroke="black" cx="494.5" cy="-625.6" rx="27" ry="18"/>
<text text-anchor="middle" x="494.5" y="-621.9" font-family="Times,serif" font-size="14.00">PiR</text>
</g>
<!-- c2&#45;&gt;o2 -->
<g id="edge14" class="edge">
<title>c2&#45;&gt;o2</title>
<path fill="none" stroke="red" d="M458.98,-695.21C465.31,-682.98 474.08,-666.04 481.32,-652.05"/>
<polygon fill="red" stroke="red" points="484.55,-653.42 486.04,-642.93 478.33,-650.21 484.55,-653.42"/>
</g>
<!-- o2l -->
<g id="node16" class="node">
<title>o2l</title>
<ellipse fill="none" stroke="black" cx="407.5" cy="-625.6" rx="27" ry="18"/>
<text text-anchor="middle" x="407.5" y="-621.9" font-family="Times,serif" font-size="14.00">PiL</text>
</g>
<!-- c2&#45;&gt;o2l -->
<g id="edge15" class="edge">
<title>c2&#45;&gt;o2l</title>
<path fill="none" stroke="blue" d="M442.21,-695.21C436.02,-682.98 427.45,-666.04 420.37,-652.05"/>
<polygon fill="blue" stroke="blue" points="423.4,-650.28 415.76,-642.93 417.15,-653.44 423.4,-650.28"/>
</g>
<!-- x_o2 -->
<g id="node17" class="node">
<title>x_o2</title>
<ellipse fill="none" stroke="black" cx="494.5" cy="-525.3" rx="27" ry="18"/>
<text text-anchor="middle" x="494.5" y="-521.6" font-family="Times,serif" font-size="14.00">!c</text>
</g>
<!-- o2&#45;&gt;x_o2 -->
<g id="edge16" class="edge">
<title>o2&#45;&gt;x_o2</title>
<path fill="none" stroke="blue" d="M494.5,-607.47C494.5,-592.62 494.5,-570.86 494.5,-553.61"/>
<polygon fill="blue" stroke="blue" points="498,-553.55 494.5,-543.55 491,-553.55 498,-553.55"/>
</g>
<!-- ret_o2 -->
<g id="node18" class="node">
<title>ret_o2</title>
<ellipse fill="none" stroke="black" cx="561.5" cy="-251" rx="27" ry="18"/>
<text text-anchor="middle" x="561.5" y="-247.3" font-family="Times,serif" font-size="14.00">I</text>
</g>
<!-- o2&#45;&gt;ret_o2 -->
<g id="edge17" class="edge">
<title>o2&#45;&gt;ret_o2</title>
<path fill="none" stroke="red" d="M511.66,-611.32C531.8,-594.09 562.5,-561.99 562.5,-526.3 562.5,-526.3 562.5,-526.3 562.5,-337 562.5,-317.75 562.24,-296.05 561.98,-279.4"/>
<polygon fill="red" stroke="red" points="565.48,-279.2 561.82,-269.26 558.48,-279.31 565.48,-279.2"/>
</g>
<!-- o2l&#45;&gt;hi_retp -->
<g id="edge23" class="edge">
<title>o2l&#45;&gt;hi_retp</title>
<path fill="none" stroke="red" d="M394.89,-609.67C381.3,-593.57 359.51,-567.76 343.77,-549.12"/>
<polygon fill="red" stroke="red" points="346.35,-546.75 337.22,-541.37 341,-551.27 346.35,-546.75"/>
<text text-anchor="middle" x="381.5" y="-578.4" font-family="Times,serif" font-size="14.00">1</text>
</g>
<!-- o2l&#45;&gt;f_ret -->
<g id="edge24" class="edge">
<title>o2l&#45;&gt;f_ret</title>
<path fill="none" stroke="blue" d="M406.63,-607.47C405.87,-592.62 404.76,-570.86 403.89,-553.61"/>
<polygon fill="blue" stroke="blue" points="407.38,-553.36 403.37,-543.55 400.39,-553.72 407.38,-553.36"/>
</g>
<!-- x1_o2 -->
<g id="node19" class="node">
<title>x1_o2</title>
<ellipse fill="none" stroke="black" cx="488.5" cy="-251" rx="27" ry="18"/>
<text text-anchor="middle" x="488.5" y="-247.3" font-family="Times,serif" font-size="14.00">I</text>
</g>
<!-- x_o2&#45;&gt;x1_o2 -->
<g id="edge18" class="edge">
<title>x_o2&#45;&gt;x1_o2</title>
<path fill="none" stroke="blue" d="M488.26,-507.46C482.6,-491.22 474.66,-465.81 471.5,-443 463.98,-388.85 464.82,-374.26 471.5,-320 473.2,-306.13 476.8,-291.02 480.25,-278.57"/>
<polygon fill="blue" stroke="blue" points="483.65,-279.41 483.06,-268.83 476.93,-277.46 483.65,-279.41"/>
</g>
<!-- x2_o2 -->
<g id="node20" class="node">
<title>x2_o2</title>
<ellipse fill="none" stroke="black" cx="507.5" cy="-425" rx="27" ry="18"/>
<text text-anchor="middle" x="507.5" y="-421.3" font-family="Times,serif" font-size="14.00">!d</text>
</g>
<!-- x_o2&#45;&gt;x2_o2 -->
<g id="edge19" class="edge">
<title>x_o2&#45;&gt;x2_o2</title>
<path fill="none" stroke="blue" d="M496.76,-507.18C498.73,-492.33 501.6,-470.57 503.88,-453.31"/>
<polygon fill="blue" stroke="blue" points="507.37,-453.63 505.22,-443.26 500.43,-452.71 507.37,-453.63"/>
</g>
<!-- x2i_o2 -->
<g id="node21" class="node">
<title>x2i_o2</title>
<ellipse fill="none" stroke="black" cx="507.5" cy="-338" rx="27" ry="18"/>
<text text-anchor="middle" x="507.5" y="-334.3" font-family="Times,serif" font-size="14.00">PiL</text>
</g>
<!-- x2_o2&#45;&gt;x2i_o2 -->
<g id="edge20" class="edge">
<title>x2_o2&#45;&gt;x2i_o2</title>
<path fill="none" stroke="blue" d="M507.5,-406.8C507.5,-395.16 507.5,-379.55 507.5,-366.24"/>
<polygon fill="blue" stroke="blue" points="511,-366.18 507.5,-356.18 504,-366.18 511,-366.18"/>
</g>
<!-- x2i_o2&#45;&gt;ret_o2 -->
<g id="edge22" class="edge">
<title>x2i_o2&#45;&gt;ret_o2</title>
<path fill="none" stroke="blue" d="M517.65,-321.01C525.57,-308.55 536.71,-291.01 545.78,-276.74"/>
<polygon fill="blue" stroke="blue" points="548.98,-278.23 551.39,-267.92 543.07,-274.48 548.98,-278.23"/>
</g>
<!-- x2i_o2&#45;&gt;x1_o2 -->
<g id="edge21" class="edge">
<title>x2i_o2&#45;&gt;x1_o2</title>
<path fill="none" stroke="red" d="M503.65,-319.8C501.03,-308.09 497.51,-292.34 494.53,-278.97"/>
<polygon fill="red" stroke="red" points="497.87,-277.88 492.27,-268.89 491.04,-279.41 497.87,-277.88"/>
</g>
<!-- h -->
<g id="node24" class="node">
<title>h</title>
<ellipse fill="none" stroke="black" cx="325.5" cy="-338" rx="27" ry="18"/>
<text text-anchor="middle" x="325.5" y="-334.3" font-family="Times,serif" font-size="14.00">PiL</text>
</g>
<!-- h_di&#45;&gt;h -->
<g id="edge27" class="edge">
<title>h_di&#45;&gt;h</title>
<path fill="none" stroke="blue" d="M325.5,-406.8C325.5,-395.16 325.5,-379.55 325.5,-366.24"/>
<polygon fill="blue" stroke="blue" points="329,-366.18 325.5,-356.18 322,-366.18 329,-366.18"/>
<text text-anchor="middle" x="330.5" y="-377.8" font-family="Times,serif" font-size="14.00">2</text>
</g>
<!-- h&#45;&gt;hi_ret -->
<g id="edge35" class="edge">
<title>h&#45;&gt;hi_ret</title>
<path fill="none" stroke="blue" d="M315.15,-321.01C307.01,-308.43 295.52,-290.68 286.24,-276.33"/>
<polygon fill="blue" stroke="blue" points="289.17,-274.41 280.8,-267.92 283.29,-278.21 289.17,-274.41"/>
</g>
<!-- h_app -->
<g id="node27" class="node">
<title>h_app</title>
<ellipse fill="none" stroke="black" cx="342.5" cy="-251" rx="27" ry="18"/>
<text text-anchor="middle" x="342.5" y="-247.3" font-family="Times,serif" font-size="14.00">I</text>
</g>
<!-- h&#45;&gt;h_app -->
<g id="edge34" class="edge">
<title>h&#45;&gt;h_app</title>
<path fill="none" stroke="red" d="M328.94,-319.8C331.28,-308.09 334.43,-292.34 337.1,-278.97"/>
<polygon fill="red" stroke="red" points="340.59,-279.38 339.12,-268.89 333.73,-278 340.59,-279.38"/>
</g>
<!-- c3 -->
<g id="node25" class="node">
<title>c3</title>
<ellipse fill="none" stroke="black" cx="397.5" cy="-338" rx="27.1" ry="18"/>
<text text-anchor="middle" x="397.5" y="-334.3" font-family="Times,serif" font-size="14.00">Cut</text>
</g>
<!-- i -->
<g id="node26" class="node">
<title>i</title>
<ellipse fill="none" stroke="black" cx="414.5" cy="-251" rx="27" ry="18"/>
<text text-anchor="middle" x="414.5" y="-247.3" font-family="Times,serif" font-size="14.00">!p</text>
</g>
<!-- c3&#45;&gt;i -->
<g id="edge28" class="edge">
<title>c3&#45;&gt;i</title>
<path fill="none" stroke="red" d="M400.94,-319.8C403.28,-308.09 406.43,-292.34 409.1,-278.97"/>
<polygon fill="red" stroke="red" points="412.59,-279.38 411.12,-268.89 405.73,-278 412.59,-279.38"/>
<text text-anchor="middle" x="412.5" y="-290.8" font-family="Times,serif" font-size="14.00">2</text>
</g>
<!-- c3&#45;&gt;h_app -->
<g id="edge29" class="edge">
<title>c3&#45;&gt;h_app</title>
<path fill="none" stroke="blue" d="M387.15,-321.01C379.01,-308.43 367.52,-290.68 358.24,-276.33"/>
<polygon fill="blue" stroke="blue" points="361.17,-274.41 352.8,-267.92 355.29,-278.21 361.17,-274.41"/>
</g>
<!-- i_i -->
<g id="node28" class="node">
<title>i_i</title>
<ellipse fill="none" stroke="black" cx="414.5" cy="-164" rx="27" ry="18"/>
<text text-anchor="middle" x="414.5" y="-160.3" font-family="Times,serif" font-size="14.00">PiR</text>
</g>
<!-- i&#45;&gt;i_i -->
<g id="edge30" class="edge">
<title>i&#45;&gt;i_i</title>
<path fill="none" stroke="red" d="M414.5,-232.8C414.5,-221.16 414.5,-205.55 414.5,-192.24"/>
<polygon fill="red" stroke="red" points="418,-192.18 414.5,-182.18 411,-192.18 418,-192.18"/>
<text text-anchor="middle" x="419.5" y="-203.8" font-family="Times,serif" font-size="14.00">3</text>
</g>
<!-- il -->
<g id="node29" class="node">
<title>il</title>
<ellipse fill="none" stroke="black" cx="457.5" cy="-91" rx="27" ry="18"/>
<text text-anchor="middle" x="457.5" y="-87.3" font-family="Times,serif" font-size="14.00">!d</text>
</g>
<!-- i_i&#45;&gt;il -->
<g id="edge31" class="edge">
<title>i_i&#45;&gt;il</title>
<path fill="none" stroke="blue" d="M424.25,-146.89C429.64,-137.99 436.45,-126.75 442.5,-116.77"/>
<polygon fill="blue" stroke="blue" points="445.59,-118.41 447.78,-108.05 439.6,-114.79 445.59,-118.41"/>
</g>
<!-- i_ret -->
<g id="node30" class="node">
<title>i_ret</title>
<ellipse fill="none" stroke="black" cx="414.5" cy="-18" rx="27" ry="18"/>
<text text-anchor="middle" x="414.5" y="-14.3" font-family="Times,serif" font-size="14.00">I</text>
</g>
<!-- i_i&#45;&gt;i_ret -->
<g id="edge32" class="edge">
<title>i_i&#45;&gt;i_ret</title>
<path fill="none" stroke="red" d="M414.5,-145.92C414.5,-121.34 414.5,-75.75 414.5,-46.43"/>
<polygon fill="red" stroke="red" points="418,-46.06 414.5,-36.06 411,-46.06 418,-46.06"/>
</g>
<!-- il&#45;&gt;i_ret -->
<g id="edge33" class="edge">
<title>il&#45;&gt;i_ret</title>
<path fill="none" stroke="blue" d="M447.74,-73.89C442.35,-64.99 435.54,-53.75 429.5,-43.77"/>
<polygon fill="blue" stroke="blue" points="432.39,-41.79 424.22,-35.05 426.4,-45.41 432.39,-41.79"/>
</g>
</g>
</svg>
