<?xml version="1.0" encoding="UTF-8" standalone="no"?>
<!DOCTYPE svg PUBLIC "-//W3C//DTD SVG 1.1//EN"
 "http://www.w3.org/Graphics/SVG/1.1/DTD/svg11.dtd">
<!-- Generated by graphviz version 2.40.1 (20161225.0304)
 -->
<!-- Title: %3 Pages: 1 -->
<svg width="268pt" height="1471pt"
 viewBox="0.00 0.00 267.90 1470.79" xmlns="http://www.w3.org/2000/svg" xmlns:xlink="http://www.w3.org/1999/xlink">
<g id="graph0" class="graph" transform="scale(1 1) rotate(0) translate(4 1466.7947)">
<title>%3</title>
<polygon fill="#ffffff" stroke="transparent" points="-4,4 -4,-1466.7947 263.8973,-1466.7947 263.8973,4 -4,4"/>
<!-- Root -->
<g id="node1" class="node">
<title>Root</title>
<ellipse fill="none" stroke="#000000" cx="133.8973" cy="-1444.7947" rx="32.4942" ry="18"/>
<text text-anchor="middle" x="133.8973" y="-1441.0947" font-family="Times,serif" font-size="14.00" fill="#000000">Root</text>
</g>
<!-- c1a -->
<g id="node2" class="node">
<title>c1a</title>
<ellipse fill="none" stroke="#000000" cx="191.8973" cy="-1371.7947" rx="27.8951" ry="18"/>
<text text-anchor="middle" x="191.8973" y="-1368.0947" font-family="Times,serif" font-size="14.00" fill="#000000">Cut</text>
</g>
<!-- Root&#45;&gt;c1a -->
<g id="edge1" class="edge">
<title>Root&#45;&gt;c1a</title>
<path fill="none" stroke="#000000" d="M147.0584,-1428.2299C154.601,-1418.7366 164.2056,-1406.6481 172.5892,-1396.0964"/>
<polygon fill="#000000" stroke="#000000" points="175.5077,-1398.0494 178.9881,-1388.0425 170.027,-1393.6948 175.5077,-1398.0494"/>
</g>
<!-- c1b -->
<g id="node3" class="node">
<title>c1b</title>
<ellipse fill="none" stroke="#000000" cx="77.8973" cy="-1371.7947" rx="27.8951" ry="18"/>
<text text-anchor="middle" x="77.8973" y="-1368.0947" font-family="Times,serif" font-size="14.00" fill="#000000">Cut</text>
</g>
<!-- Root&#45;&gt;c1b -->
<g id="edge2" class="edge">
<title>Root&#45;&gt;c1b</title>
<path fill="none" stroke="#000000" d="M120.9091,-1427.8635C113.6685,-1418.4249 104.5265,-1406.5076 96.5345,-1396.0896"/>
<polygon fill="#000000" stroke="#000000" points="99.2936,-1393.9359 90.43,-1388.1319 93.7396,-1398.1965 99.2936,-1393.9359"/>
</g>
<!-- d1 -->
<g id="node4" class="node">
<title>d1</title>
<ellipse fill="none" stroke="#000000" cx="119.8973" cy="-1037.7947" rx="29.795" ry="18"/>
<text text-anchor="middle" x="119.8973" y="-1034.0947" font-family="Times,serif" font-size="14.00" fill="#000000">Dup</text>
</g>
<!-- Root&#45;&gt;d1 -->
<g id="edge5" class="edge">
<title>Root&#45;&gt;d1</title>
<path fill="none" stroke="#ff0000" d="M133.8973,-1426.4944C133.8973,-1411.7296 133.8973,-1390.4249 133.8973,-1371.7947 133.8973,-1371.7947 133.8973,-1371.7947 133.8973,-1110.7947 133.8973,-1095.5754 130.926,-1078.8855 127.7211,-1065.3102"/>
<polygon fill="#ff0000" stroke="#ff0000" points="131.1137,-1064.4497 125.2701,-1055.6121 124.3271,-1066.1649 131.1137,-1064.4497"/>
<text text-anchor="middle" x="151.3973" y="-1237.5947" font-family="Times,serif" font-size="14.00" fill="#000000">0&#45;&gt;1</text>
</g>
<!-- d2a -->
<g id="node5" class="node">
<title>d2a</title>
<ellipse fill="none" stroke="#000000" cx="194.8973" cy="-964.7947" rx="29.795" ry="18"/>
<text text-anchor="middle" x="194.8973" y="-961.0947" font-family="Times,serif" font-size="14.00" fill="#000000">Dup</text>
</g>
<!-- c1a&#45;&gt;d2a -->
<g id="edge12" class="edge">
<title>c1a&#45;&gt;d2a</title>
<path fill="none" stroke="#0000ff" d="M209.2993,-1357.4068C226.3835,-1341.5639 249.8973,-1314.384 249.8973,-1284.7947 249.8973,-1284.7947 249.8973,-1284.7947 249.8973,-1037.7947 249.8973,-1017.1761 235.7279,-998.6815 221.773,-985.4667"/>
<polygon fill="#0000ff" stroke="#0000ff" points="223.9367,-982.7073 214.1337,-978.6883 219.2907,-987.9433 223.9367,-982.7073"/>
<text text-anchor="middle" x="254.8973" y="-1150.5947" font-family="Times,serif" font-size="14.00" fill="#000000">1</text>
</g>
<!-- fpa -->
<g id="node11" class="node">
<title>fpa</title>
<ellipse fill="none" stroke="#000000" cx="191.8973" cy="-1284.7947" rx="27" ry="18"/>
<text text-anchor="middle" x="191.8973" y="-1281.0947" font-family="Times,serif" font-size="14.00" fill="#000000">!p</text>
</g>
<!-- c1a&#45;&gt;fpa -->
<g id="edge11" class="edge">
<title>c1a&#45;&gt;fpa</title>
<path fill="none" stroke="#ff0000" d="M191.8973,-1353.7682C191.8973,-1341.9865 191.8973,-1326.3553 191.8973,-1312.9528"/>
<polygon fill="#ff0000" stroke="#ff0000" points="195.3974,-1312.798 191.8973,-1302.7981 188.3974,-1312.7981 195.3974,-1312.798"/>
<text text-anchor="middle" x="196.8973" y="-1324.5947" font-family="Times,serif" font-size="14.00" fill="#000000">0</text>
</g>
<!-- d2b -->
<g id="node6" class="node">
<title>d2b</title>
<ellipse fill="none" stroke="#000000" cx="42.8973" cy="-964.7947" rx="29.795" ry="18"/>
<text text-anchor="middle" x="42.8973" y="-961.0947" font-family="Times,serif" font-size="14.00" fill="#000000">Dup</text>
</g>
<!-- c1b&#45;&gt;d2b -->
<g id="edge14" class="edge">
<title>c1b&#45;&gt;d2b</title>
<path fill="none" stroke="#0000ff" d="M61.4021,-1356.8677C45.5217,-1340.7832 23.8973,-1313.5937 23.8973,-1284.7947 23.8973,-1284.7947 23.8973,-1284.7947 23.8973,-1037.7947 23.8973,-1022.3498 27.9299,-1005.6422 32.2794,-992.1134"/>
<polygon fill="#0000ff" stroke="#0000ff" points="35.6566,-993.0557 35.6058,-982.461 29.0386,-990.7749 35.6566,-993.0557"/>
<text text-anchor="middle" x="28.8973" y="-1150.5947" font-family="Times,serif" font-size="14.00" fill="#000000">1</text>
</g>
<!-- fpb -->
<g id="node12" class="node">
<title>fpb</title>
<ellipse fill="none" stroke="#000000" cx="78.8973" cy="-1284.7947" rx="27" ry="18"/>
<text text-anchor="middle" x="78.8973" y="-1281.0947" font-family="Times,serif" font-size="14.00" fill="#000000">!p</text>
</g>
<!-- c1b&#45;&gt;fpb -->
<g id="edge13" class="edge">
<title>c1b&#45;&gt;fpb</title>
<path fill="none" stroke="#ff0000" d="M78.1045,-1353.7682C78.24,-1341.9865 78.4196,-1326.3553 78.5737,-1312.9528"/>
<polygon fill="#ff0000" stroke="#ff0000" points="82.0751,-1312.8377 78.6904,-1302.7981 75.0756,-1312.7571 82.0751,-1312.8377"/>
<text text-anchor="middle" x="83.8973" y="-1324.5947" font-family="Times,serif" font-size="14.00" fill="#000000">0</text>
</g>
<!-- d1&#45;&gt;d2a -->
<g id="edge3" class="edge">
<title>d1&#45;&gt;d2a</title>
<path fill="none" stroke="#000000" stroke-dasharray="5,2" d="M135.8029,-1022.3133C148.5307,-1009.9249 166.293,-992.6363 179.0147,-980.2538"/>
</g>
<!-- d1&#45;&gt;d2b -->
<g id="edge4" class="edge">
<title>d1&#45;&gt;d2b</title>
<path fill="none" stroke="#000000" stroke-dasharray="5,2" d="M103.5676,-1022.3133C90.4122,-1009.8412 72.0178,-992.4024 58.9395,-980.0035"/>
</g>
<!-- f_ret -->
<g id="node7" class="node">
<title>f_ret</title>
<ellipse fill="none" stroke="#000000" cx="63.8973" cy="-616.7947" rx="27" ry="18"/>
<text text-anchor="middle" x="63.8973" y="-613.0947" font-family="Times,serif" font-size="14.00" fill="#000000">I</text>
</g>
<!-- d1&#45;&gt;f_ret -->
<g id="edge6" class="edge">
<title>d1&#45;&gt;f_ret</title>
<path fill="none" stroke="#ff0000" d="M119.8973,-1019.4944C119.8973,-1004.7296 119.8973,-983.4249 119.8973,-964.7947 119.8973,-964.7947 119.8973,-964.7947 119.8973,-703.7947 119.8973,-680.2895 118.4832,-672.6464 105.8973,-652.7947 102.0278,-646.6912 96.8041,-641.0653 91.3568,-636.1637"/>
<polygon fill="#ff0000" stroke="#ff0000" points="93.2812,-633.213 83.3474,-629.5291 88.8158,-638.6037 93.2812,-633.213"/>
</g>
<!-- hi_retpa -->
<g id="node8" class="node">
<title>hi_retpa</title>
<ellipse fill="none" stroke="#000000" cx="135.8973" cy="-616.7947" rx="27" ry="18"/>
<text text-anchor="middle" x="135.8973" y="-613.0947" font-family="Times,serif" font-size="14.00" fill="#000000">!p</text>
</g>
<!-- d2a&#45;&gt;hi_retpa -->
<g id="edge7" class="edge">
<title>d2a&#45;&gt;hi_retpa</title>
<path fill="none" stroke="#0000ff" d="M189.9858,-946.9542C185.6112,-929.4757 179.8973,-902.0114 179.8973,-877.7947 179.8973,-877.7947 179.8973,-877.7947 179.8973,-703.7947 179.8973,-680.5889 167.2774,-657.2859 155.5548,-640.6456"/>
<polygon fill="#0000ff" stroke="#0000ff" points="158.3463,-638.5341 149.578,-632.587 152.7239,-642.704 158.3463,-638.5341"/>
<text text-anchor="middle" x="184.8973" y="-787.0947" font-family="Times,serif" font-size="14.00" fill="#000000">1</text>
</g>
<!-- h_dib -->
<g id="node9" class="node">
<title>h_dib</title>
<ellipse fill="none" stroke="#000000" cx="42.8973" cy="-877.7947" rx="27" ry="18"/>
<text text-anchor="middle" x="42.8973" y="-874.0947" font-family="Times,serif" font-size="14.00" fill="#000000">!d</text>
</g>
<!-- d2b&#45;&gt;h_dib -->
<g id="edge8" class="edge">
<title>d2b&#45;&gt;h_dib</title>
<path fill="none" stroke="#0000ff" d="M42.8973,-946.7682C42.8973,-934.9865 42.8973,-919.3553 42.8973,-905.9528"/>
<polygon fill="#0000ff" stroke="#0000ff" points="46.3974,-905.798 42.8973,-895.7981 39.3974,-905.7981 46.3974,-905.798"/>
<text text-anchor="middle" x="47.8973" y="-917.5947" font-family="Times,serif" font-size="14.00" fill="#000000">1</text>
</g>
<!-- hi_reta -->
<g id="node16" class="node">
<title>hi_reta</title>
<ellipse fill="none" stroke="#000000" cx="120.8973" cy="-353.8973" rx="27" ry="18"/>
<text text-anchor="middle" x="120.8973" y="-350.1973" font-family="Times,serif" font-size="14.00" fill="#000000">I</text>
</g>
<!-- hi_retpa&#45;&gt;hi_reta -->
<g id="edge22" class="edge">
<title>hi_retpa&#45;&gt;hi_reta</title>
<path fill="none" stroke="#ff0000" d="M134.8663,-598.7247C132.3027,-553.793 125.6239,-436.7365 122.523,-382.3893"/>
<polygon fill="#ff0000" stroke="#ff0000" points="125.9996,-381.8782 121.9356,-372.0938 119.011,-382.277 125.9996,-381.8782"/>
<text text-anchor="middle" x="132.8973" y="-482.5947" font-family="Times,serif" font-size="14.00" fill="#000000">2</text>
</g>
<!-- h_dia -->
<g id="node17" class="node">
<title>h_dia</title>
<ellipse fill="none" stroke="#000000" cx="80.8973" cy="-529.7947" rx="27" ry="18"/>
<text text-anchor="middle" x="80.8973" y="-526.0947" font-family="Times,serif" font-size="14.00" fill="#000000">!d</text>
</g>
<!-- hi_retpa&#45;&gt;h_dia -->
<g id="edge23" class="edge">
<title>hi_retpa&#45;&gt;h_dia</title>
<path fill="none" stroke="#0000ff" d="M124.5177,-600.0408C120.4771,-594.0096 115.9324,-587.1305 111.8973,-580.7947 106.3314,-572.055 100.3836,-562.3613 95.2016,-553.7923"/>
<ellipse fill="none" stroke="#0000ff" cx="93.1175" cy="-550.3313" rx="4" ry="4"/>
<text text-anchor="middle" x="116.8973" y="-569.5947" font-family="Times,serif" font-size="14.00" fill="#000000">1</text>
</g>
<!-- hb -->
<g id="node21" class="node">
<title>hb</title>
<ellipse fill="none" stroke="#000000" cx="42.8973" cy="-790.7947" rx="27" ry="18"/>
<text text-anchor="middle" x="42.8973" y="-787.0947" font-family="Times,serif" font-size="14.00" fill="#000000">PiL</text>
</g>
<!-- h_dib&#45;&gt;hb -->
<g id="edge26" class="edge">
<title>h_dib&#45;&gt;hb</title>
<path fill="none" stroke="#0000ff" d="M42.8973,-859.7682C42.8973,-847.9865 42.8973,-832.3553 42.8973,-818.9528"/>
<polygon fill="#0000ff" stroke="#0000ff" points="46.3974,-818.798 42.8973,-808.7981 39.3974,-818.7981 46.3974,-818.798"/>
<text text-anchor="middle" x="47.8973" y="-830.5947" font-family="Times,serif" font-size="14.00" fill="#000000">2</text>
</g>
<!-- hi_retpc1 -->
<g id="node10" class="node">
<title>hi_retpc1</title>
<ellipse fill="none" stroke="#000000" cx="194.8973" cy="-1037.7947" rx="27" ry="18"/>
<text text-anchor="middle" x="194.8973" y="-1034.0947" font-family="Times,serif" font-size="14.00" fill="#000000">!c</text>
</g>
<!-- hi_retpc1&#45;&gt;d2a -->
<g id="edge9" class="edge">
<title>hi_retpc1&#45;&gt;d2a</title>
<path fill="none" stroke="#0000ff" d="M194.8973,-1019.7497C194.8973,-1011.0633 194.8973,-1000.4845 194.8973,-990.9367"/>
<ellipse fill="none" stroke="#0000ff" cx="194.8974" cy="-986.8851" rx="4" ry="4"/>
</g>
<!-- hi_retpc1&#45;&gt;d2b -->
<g id="edge10" class="edge">
<title>hi_retpc1&#45;&gt;d2b</title>
<path fill="none" stroke="#0000ff" d="M173.2316,-1026.8702C168.5156,-1024.5179 163.5463,-1022.0587 158.8973,-1019.7947 130.3291,-1005.8819 97.6031,-990.4071 74.211,-979.4252"/>
<ellipse fill="none" stroke="#0000ff" cx="70.5827" cy="-977.7236" rx="4" ry="4"/>
</g>
<!-- d5 -->
<g id="node13" class="node">
<title>d5</title>
<ellipse fill="none" stroke="#000000" cx="191.8973" cy="-1197.7947" rx="29.795" ry="18"/>
<text text-anchor="middle" x="191.8973" y="-1194.0947" font-family="Times,serif" font-size="14.00" fill="#000000">Dup</text>
</g>
<!-- fpa&#45;&gt;d5 -->
<g id="edge15" class="edge">
<title>fpa&#45;&gt;d5</title>
<path fill="none" stroke="#ff0000" d="M191.8973,-1266.7682C191.8973,-1254.9865 191.8973,-1239.3553 191.8973,-1225.9528"/>
<polygon fill="#ff0000" stroke="#ff0000" points="195.3974,-1225.798 191.8973,-1215.7981 188.3974,-1225.7981 195.3974,-1225.798"/>
<text text-anchor="middle" x="196.8973" y="-1237.5947" font-family="Times,serif" font-size="14.00" fill="#000000">1</text>
</g>
<!-- fpb&#45;&gt;d5 -->
<g id="edge16" class="edge">
<title>fpb&#45;&gt;d5</title>
<path fill="none" stroke="#ff0000" d="M83.3412,-1266.7315C86.8123,-1255.945 92.638,-1242.6628 101.8973,-1233.7947 116.0193,-1220.2695 135.863,-1211.6056 153.325,-1206.1765"/>
<polygon fill="#ff0000" stroke="#ff0000" points="154.6127,-1209.4489 163.2699,-1203.3414 152.6935,-1202.7171 154.6127,-1209.4489"/>
<text text-anchor="middle" x="106.8973" y="-1237.5947" font-family="Times,serif" font-size="14.00" fill="#000000">1</text>
</g>
<!-- fa -->
<g id="node14" class="node">
<title>fa</title>
<ellipse fill="none" stroke="#000000" cx="191.8973" cy="-1110.7947" rx="27" ry="18"/>
<text text-anchor="middle" x="191.8973" y="-1107.0947" font-family="Times,serif" font-size="14.00" fill="#000000">PiR</text>
</g>
<!-- d5&#45;&gt;fa -->
<g id="edge17" class="edge">
<title>d5&#45;&gt;fa</title>
<path fill="none" stroke="#ff0000" d="M191.8973,-1179.7682C191.8973,-1167.9865 191.8973,-1152.3553 191.8973,-1138.9528"/>
<polygon fill="#ff0000" stroke="#ff0000" points="195.3974,-1138.798 191.8973,-1128.7981 188.3974,-1138.7981 195.3974,-1138.798"/>
</g>
<!-- fa&#45;&gt;d1 -->
<g id="edge19" class="edge">
<title>fa&#45;&gt;d1</title>
<path fill="none" stroke="#ff0000" d="M176.9789,-1095.669C166.5965,-1085.1424 152.602,-1070.9536 141.0683,-1059.2597"/>
<ellipse fill="none" stroke="#ff0000" cx="138.1023" cy="-1056.2525" rx="4" ry="4"/>
</g>
<!-- fa&#45;&gt;hi_retpc1 -->
<g id="edge18" class="edge">
<title>fa&#45;&gt;hi_retpc1</title>
<path fill="none" stroke="#0000ff" d="M192.6389,-1092.7497C192.9707,-1084.6775 193.3696,-1074.9711 193.7392,-1065.9764"/>
<polygon fill="#0000ff" stroke="#0000ff" points="197.2402,-1066.0204 194.1539,-1055.8851 190.2462,-1065.7329 197.2402,-1066.0204"/>
</g>
<!-- x2i_o2 -->
<g id="node15" class="node">
<title>x2i_o2</title>
<ellipse fill="none" stroke="#000000" cx="63.8973" cy="-703.7947" rx="27" ry="18"/>
<text text-anchor="middle" x="63.8973" y="-700.0947" font-family="Times,serif" font-size="14.00" fill="#000000">PiL</text>
</g>
<!-- x2i_o2&#45;&gt;f_ret -->
<g id="edge21" class="edge">
<title>x2i_o2&#45;&gt;f_ret</title>
<path fill="none" stroke="#0000ff" d="M63.8973,-685.7682C63.8973,-673.9865 63.8973,-658.3553 63.8973,-644.9528"/>
<polygon fill="#0000ff" stroke="#0000ff" points="67.3974,-644.798 63.8973,-634.7981 60.3974,-644.7981 67.3974,-644.798"/>
</g>
<!-- x2i_o2&#45;&gt;hi_retpa -->
<g id="edge20" class="edge">
<title>x2i_o2&#45;&gt;hi_retpa</title>
<path fill="none" stroke="#ff0000" d="M77.1033,-687.8376C88.0645,-674.5927 103.8152,-655.5606 116.2557,-640.5283"/>
<polygon fill="#ff0000" stroke="#ff0000" points="119.0958,-642.5861 122.7752,-632.6507 113.7031,-638.1231 119.0958,-642.5861"/>
<text text-anchor="middle" x="108.8973" y="-656.5947" font-family="Times,serif" font-size="14.00" fill="#000000">1</text>
</g>
<!-- ha -->
<g id="node20" class="node">
<title>ha</title>
<ellipse fill="none" stroke="#000000" cx="80.8973" cy="-442.7947" rx="27" ry="18"/>
<text text-anchor="middle" x="80.8973" y="-439.0947" font-family="Times,serif" font-size="14.00" fill="#000000">PiL</text>
</g>
<!-- h_dia&#45;&gt;ha -->
<g id="edge25" class="edge">
<title>h_dia&#45;&gt;ha</title>
<path fill="none" stroke="#0000ff" d="M80.8973,-511.7682C80.8973,-499.9865 80.8973,-484.3553 80.8973,-470.9528"/>
<polygon fill="#0000ff" stroke="#0000ff" points="84.3974,-470.798 80.8973,-460.7981 77.3974,-470.7981 84.3974,-470.798"/>
<text text-anchor="middle" x="85.8973" y="-482.5947" font-family="Times,serif" font-size="14.00" fill="#000000">2</text>
</g>
<!-- d4a -->
<g id="node18" class="node">
<title>d4a</title>
<ellipse fill="none" stroke="#000000" cx="33.8973" cy="-353.8973" rx="29.8071" ry="29.8071"/>
<ellipse fill="none" stroke="#000000" cx="33.8973" cy="-353.8973" rx="33.795" ry="33.795"/>
<text text-anchor="middle" x="33.8973" y="-350.1973" font-family="Times,serif" font-size="14.00" fill="#000000">Dup</text>
</g>
<!-- i -->
<g id="node19" class="node">
<title>i</title>
<ellipse fill="none" stroke="#000000" cx="33.8973" cy="-251" rx="27" ry="18"/>
<text text-anchor="middle" x="33.8973" y="-247.3" font-family="Times,serif" font-size="14.00" fill="#000000">!p</text>
</g>
<!-- d4a&#45;&gt;i -->
<g id="edge24" class="edge">
<title>d4a&#45;&gt;i</title>
<path fill="none" stroke="#ff0000" d="M33.8973,-319.9197C33.8973,-306.7897 33.8973,-291.937 33.8973,-279.3909"/>
<polygon fill="#ff0000" stroke="#ff0000" points="37.3974,-279.0604 33.8973,-269.0604 30.3974,-279.0605 37.3974,-279.0604"/>
<text text-anchor="middle" x="38.8973" y="-290.8" font-family="Times,serif" font-size="14.00" fill="#000000">2</text>
</g>
<!-- i_i -->
<g id="node22" class="node">
<title>i_i</title>
<ellipse fill="none" stroke="#000000" cx="33.8973" cy="-164" rx="27" ry="18"/>
<text text-anchor="middle" x="33.8973" y="-160.3" font-family="Times,serif" font-size="14.00" fill="#000000">PiR</text>
</g>
<!-- i&#45;&gt;i_i -->
<g id="edge27" class="edge">
<title>i&#45;&gt;i_i</title>
<path fill="none" stroke="#ff0000" d="M33.8973,-232.9735C33.8973,-221.1918 33.8973,-205.5607 33.8973,-192.1581"/>
<polygon fill="#ff0000" stroke="#ff0000" points="37.3974,-192.0033 33.8973,-182.0034 30.3974,-192.0034 37.3974,-192.0033"/>
<text text-anchor="middle" x="38.8973" y="-203.8" font-family="Times,serif" font-size="14.00" fill="#000000">3</text>
</g>
<!-- ha&#45;&gt;hi_reta -->
<g id="edge32" class="edge">
<title>ha&#45;&gt;hi_reta</title>
<path fill="none" stroke="#0000ff" d="M88.8001,-425.2314C94.4978,-412.5687 102.2936,-395.2429 108.7755,-380.8374"/>
<polygon fill="#0000ff" stroke="#0000ff" points="112.0995,-381.9797 113.0111,-371.4241 105.7159,-379.1073 112.0995,-381.9797"/>
</g>
<!-- ha&#45;&gt;d4a -->
<g id="edge31" class="edge">
<title>ha&#45;&gt;d4a</title>
<path fill="none" stroke="#ff0000" d="M71.8353,-425.6544C66.6661,-415.8773 59.9754,-403.2221 53.6552,-391.268"/>
<ellipse fill="none" stroke="#ff0000" cx="51.6544" cy="-387.4836" rx="4" ry="4"/>
</g>
<!-- hb&#45;&gt;x2i_o2 -->
<g id="edge34" class="edge">
<title>hb&#45;&gt;x2i_o2</title>
<path fill="none" stroke="#0000ff" d="M47.2486,-772.7682C50.1206,-760.8698 53.9403,-745.0454 57.1965,-731.5553"/>
<polygon fill="#0000ff" stroke="#0000ff" points="60.6075,-732.3402 59.5517,-721.7981 53.8029,-730.6976 60.6075,-732.3402"/>
<text text-anchor="middle" x="72.3973" y="-743.5947" font-family="Times,serif" font-size="14.00" fill="#000000">2&#45;&gt;1</text>
</g>
<!-- hb&#45;&gt;d4a -->
<g id="edge33" class="edge">
<title>hb&#45;&gt;d4a</title>
<path fill="none" stroke="#ff0000" d="M32.1395,-774.2136C22.1786,-757.239 8.8973,-729.7413 8.8973,-703.7947 8.8973,-703.7947 8.8973,-703.7947 8.8973,-442.7947 8.8973,-426.9027 12.6456,-409.9894 17.2394,-395.2284"/>
<polygon fill="#ff0000" stroke="#ff0000" points="20.6762,-395.9857 20.5191,-385.392 14.0356,-393.7715 20.6762,-395.9857"/>
</g>
<!-- il -->
<g id="node23" class="node">
<title>il</title>
<ellipse fill="none" stroke="#000000" cx="76.8973" cy="-91" rx="27" ry="18"/>
<text text-anchor="middle" x="76.8973" y="-87.3" font-family="Times,serif" font-size="14.00" fill="#000000">!d</text>
</g>
<!-- i_i&#45;&gt;il -->
<g id="edge28" class="edge">
<title>i_i&#45;&gt;il</title>
<path fill="none" stroke="#0000ff" d="M43.8705,-147.0688C49.1891,-138.0396 55.8439,-126.742 61.7835,-116.6585"/>
<polygon fill="#0000ff" stroke="#0000ff" points="64.9186,-118.232 66.9783,-107.8393 58.8872,-114.6793 64.9186,-118.232"/>
</g>
<!-- i_ret -->
<g id="node24" class="node">
<title>i_ret</title>
<ellipse fill="none" stroke="#000000" cx="33.8973" cy="-18" rx="27" ry="18"/>
<text text-anchor="middle" x="33.8973" y="-14.3" font-family="Times,serif" font-size="14.00" fill="#000000">I</text>
</g>
<!-- i_i&#45;&gt;i_ret -->
<g id="edge29" class="edge">
<title>i_i&#45;&gt;i_ret</title>
<path fill="none" stroke="#ff0000" d="M33.8973,-145.8042C33.8973,-120.8868 33.8973,-75.8938 33.8973,-46.4877"/>
<polygon fill="#ff0000" stroke="#ff0000" points="37.3974,-46.4251 33.8973,-36.4251 30.3974,-46.4251 37.3974,-46.4251"/>
</g>
<!-- il&#45;&gt;i_ret -->
<g id="edge30" class="edge">
<title>il&#45;&gt;i_ret</title>
<path fill="none" stroke="#0000ff" d="M66.9242,-74.0688C61.6056,-65.0396 54.9508,-53.742 49.0112,-43.6585"/>
<polygon fill="#0000ff" stroke="#0000ff" points="51.9075,-41.6793 43.8164,-34.8393 45.8761,-45.232 51.9075,-41.6793"/>
</g>
</g>
</svg>
