<?xml version="1.0" encoding="UTF-8" standalone="no"?>
<!DOCTYPE svg PUBLIC "-//W3C//DTD SVG 1.1//EN"
 "http://www.w3.org/Graphics/SVG/1.1/DTD/svg11.dtd">
<!-- Generated by graphviz version 2.43.0 (0)
 -->
<!-- Title: %3 Pages: 1 -->
<svg width="394pt" height="1064pt"
 viewBox="0.00 0.00 394.50 1063.79" xmlns="http://www.w3.org/2000/svg" xmlns:xlink="http://www.w3.org/1999/xlink">
<g id="graph0" class="graph" transform="scale(1 1) rotate(0) translate(4 1059.79)">
<title>%3</title>
<polygon fill="white" stroke="transparent" points="-4,4 -4,-1059.79 390.5,-1059.79 390.5,4 -4,4"/>
<!-- Root -->
<g id="node1" class="node">
<title>Root</title>
<ellipse fill="none" stroke="black" cx="32.5" cy="-863.79" rx="32.49" ry="18"/>
<text text-anchor="middle" x="32.5" y="-860.09" font-family="Times,serif" font-size="14.00">Root</text>
</g>
<!-- d1 -->
<g id="node2" class="node">
<title>d1</title>
<ellipse fill="none" stroke="black" cx="32.5" cy="-760.9" rx="29.8" ry="18"/>
<text text-anchor="middle" x="32.5" y="-757.2" font-family="Times,serif" font-size="14.00">Dup</text>
</g>
<!-- Root&#45;&gt;d1 -->
<g id="edge1" class="edge">
<title>Root&#45;&gt;d1</title>
<path fill="none" stroke="red" stroke-width="2" d="M32.5,-845.68C32.5,-830.24 32.5,-807.27 32.5,-789.28"/>
<polygon fill="red" stroke="red" stroke-width="2" points="36,-789.1 32.5,-779.1 29,-789.1 36,-789.1"/>
<text text-anchor="middle" x="50" y="-816.59" font-family="Times,serif" font-size="14.00">0&#45;&gt;1</text>
</g>
<!-- d2 -->
<g id="node6" class="node">
<title>d2</title>
<ellipse fill="none" stroke="black" cx="235.5" cy="-760.9" rx="29.81" ry="29.81"/>
<ellipse fill="none" stroke="black" cx="235.5" cy="-760.9" rx="33.8" ry="33.8"/>
<text text-anchor="middle" x="235.5" y="-757.2" font-family="Times,serif" font-size="14.00">Dup</text>
</g>
<!-- d1&#45;&gt;d2 -->
<g id="edge4" class="edge">
<title>d1&#45;&gt;d2</title>
<path fill="none" stroke="black" stroke-dasharray="5,2" d="M62.63,-760.9C108.89,-760.9 155.14,-760.9 201.4,-760.9"/>
</g>
<!-- f_ret -->
<g id="node7" class="node">
<title>f_ret</title>
<ellipse fill="none" stroke="black" cx="32.5" cy="-338" rx="27" ry="18"/>
<text text-anchor="middle" x="32.5" y="-334.3" font-family="Times,serif" font-size="14.00">I</text>
</g>
<!-- d1&#45;&gt;f_ret -->
<g id="edge5" class="edge">
<title>d1&#45;&gt;f_ret</title>
<path fill="none" stroke="red" stroke-width="2" d="M32.5,-742.59C32.5,-725.05 32.5,-697.14 32.5,-673 32.5,-673 32.5,-673 32.5,-410 32.5,-395.65 32.5,-379.67 32.5,-366.51"/>
<polygon fill="red" stroke="red" stroke-width="2" points="36,-366.22 32.5,-356.22 29,-366.22 36,-366.22"/>
</g>
<!-- c1a -->
<g id="node3" class="node">
<title>c1a</title>
<ellipse fill="none" stroke="black" cx="127.5" cy="-1037.79" rx="27.1" ry="18"/>
<text text-anchor="middle" x="127.5" y="-1034.09" font-family="Times,serif" font-size="14.00">Cut</text>
</g>
<!-- fp1 -->
<g id="node4" class="node">
<title>fp1</title>
<ellipse fill="none" stroke="black" cx="108.5" cy="-950.79" rx="27" ry="18"/>
<text text-anchor="middle" x="108.5" y="-947.09" font-family="Times,serif" font-size="14.00">!p</text>
</g>
<!-- c1a&#45;&gt;fp1 -->
<g id="edge2" class="edge">
<title>c1a&#45;&gt;fp1</title>
<path fill="none" stroke="red" d="M123.65,-1019.59C121.03,-1007.88 117.51,-992.14 114.53,-978.77"/>
<polygon fill="red" stroke="red" points="117.87,-977.68 112.27,-968.68 111.04,-979.2 117.87,-977.68"/>
<text text-anchor="middle" x="124.5" y="-990.59" font-family="Times,serif" font-size="14.00">0</text>
</g>
<!-- x1_o1 -->
<g id="node5" class="node">
<title>x1_o1</title>
<ellipse fill="none" stroke="black" cx="180.5" cy="-950.79" rx="27" ry="18"/>
<text text-anchor="middle" x="180.5" y="-947.09" font-family="Times,serif" font-size="14.00">I</text>
</g>
<!-- c1a&#45;&gt;x1_o1 -->
<g id="edge3" class="edge">
<title>c1a&#45;&gt;x1_o1</title>
<path fill="none" stroke="blue" d="M137.47,-1020.81C145.24,-1008.34 156.17,-990.81 165.07,-976.53"/>
<polygon fill="blue" stroke="blue" points="168.25,-978.05 170.57,-967.71 162.31,-974.34 168.25,-978.05"/>
</g>
<!-- f2 -->
<g id="node10" class="node">
<title>f2</title>
<ellipse fill="none" stroke="black" cx="109.5" cy="-863.79" rx="27" ry="18"/>
<text text-anchor="middle" x="109.5" y="-860.09" font-family="Times,serif" font-size="14.00">PiR</text>
</g>
<!-- fp1&#45;&gt;f2 -->
<g id="edge11" class="edge">
<title>fp1&#45;&gt;f2</title>
<path fill="none" stroke="red" d="M108.7,-932.59C108.84,-920.96 109.02,-905.34 109.18,-892.03"/>
<polygon fill="red" stroke="red" points="112.68,-892.01 109.3,-881.97 105.68,-891.93 112.68,-892.01"/>
<text text-anchor="middle" x="114.5" y="-903.59" font-family="Times,serif" font-size="14.00">1</text>
</g>
<!-- xdic -->
<g id="node9" class="node">
<title>xdic</title>
<ellipse fill="none" stroke="black" cx="235.5" cy="-672" rx="27" ry="18"/>
<text text-anchor="middle" x="235.5" y="-668.3" font-family="Times,serif" font-size="14.00">!c</text>
</g>
<!-- d2&#45;&gt;xdic -->
<g id="edge8" class="edge">
<title>d2&#45;&gt;xdic</title>
<path fill="none" stroke="blue" stroke-width="2" d="M235.5,-726.55C235.5,-717.9 235.5,-708.68 235.5,-700.37"/>
<polygon fill="blue" stroke="blue" stroke-width="2" points="239,-700.1 235.5,-690.1 232,-700.1 239,-700.1"/>
</g>
<!-- c1bb -->
<g id="node8" class="node">
<title>c1bb</title>
<ellipse fill="none" stroke="black" cx="202.5" cy="-1037.79" rx="27.1" ry="18"/>
<text text-anchor="middle" x="202.5" y="-1034.09" font-family="Times,serif" font-size="14.00">Cut</text>
</g>
<!-- c1bb&#45;&gt;x1_o1 -->
<g id="edge6" class="edge">
<title>c1bb&#45;&gt;x1_o1</title>
<path fill="none" stroke="red" d="M198.15,-1020C195.1,-1008.2 190.95,-992.17 187.44,-978.62"/>
<polygon fill="red" stroke="red" points="190.8,-977.65 184.91,-968.84 184.03,-979.4 190.8,-977.65"/>
<text text-anchor="middle" x="198.5" y="-990.59" font-family="Times,serif" font-size="14.00">0</text>
</g>
<!-- c1bb&#45;&gt;d2 -->
<g id="edge7" class="edge">
<title>c1bb&#45;&gt;d2</title>
<path fill="none" stroke="blue" d="M206.54,-1019.84C209.67,-1006.14 213.9,-986.32 216.5,-968.79 224.84,-912.55 230.12,-847.12 232.93,-805.15"/>
<polygon fill="blue" stroke="blue" points="236.44,-805.21 233.6,-795 229.45,-804.75 236.44,-805.21"/>
<text text-anchor="middle" x="230.5" y="-903.59" font-family="Times,serif" font-size="14.00">1</text>
</g>
<!-- h_di2 -->
<g id="node18" class="node">
<title>h_di2</title>
<ellipse fill="none" stroke="black" cx="315.5" cy="-585" rx="27" ry="18"/>
<text text-anchor="middle" x="315.5" y="-581.3" font-family="Times,serif" font-size="14.00">!d</text>
</g>
<!-- xdic&#45;&gt;h_di2 -->
<g id="edge24" class="edge">
<title>xdic&#45;&gt;h_di2</title>
<path fill="none" stroke="blue" stroke-width="2" d="M249.43,-656.19C261.94,-642.91 280.46,-623.23 294.71,-608.08"/>
<polygon fill="blue" stroke="blue" stroke-width="2" points="297.42,-610.32 301.72,-600.64 292.32,-605.52 297.42,-610.32"/>
<text text-anchor="middle" x="285.5" y="-624.8" font-family="Times,serif" font-size="14.00">1</text>
</g>
<!-- hi_retpa -->
<g id="node20" class="node">
<title>hi_retpa</title>
<ellipse fill="none" stroke="black" cx="234.5" cy="-585" rx="27" ry="18"/>
<text text-anchor="middle" x="234.5" y="-581.3" font-family="Times,serif" font-size="14.00">!p</text>
</g>
<!-- xdic&#45;&gt;hi_retpa -->
<g id="edge23" class="edge">
<title>xdic&#45;&gt;hi_retpa</title>
<path fill="none" stroke="blue" d="M235.29,-653.8C235.16,-642.16 234.97,-626.55 234.82,-613.24"/>
<polygon fill="blue" stroke="blue" points="238.32,-613.13 234.7,-603.18 231.32,-613.22 238.32,-613.13"/>
<text text-anchor="middle" x="240.5" y="-624.8" font-family="Times,serif" font-size="14.00">1</text>
</g>
<!-- f2&#45;&gt;d1 -->
<g id="edge9" class="edge">
<title>f2&#45;&gt;d1</title>
<path fill="none" stroke="red" d="M97.87,-847.46C90.36,-837.56 80.36,-824.41 71.5,-812.79 64.29,-803.34 56.3,-792.92 49.45,-783.98"/>
<ellipse fill="none" stroke="red" cx="46.9" cy="-780.65" rx="4" ry="4"/>
</g>
<!-- f2&#45;&gt;d2 -->
<g id="edge10" class="edge">
<title>f2&#45;&gt;d2</title>
<path fill="none" stroke="blue" d="M126.23,-849.4C145.77,-833.75 178.55,-807.5 203.12,-787.83"/>
<ellipse fill="none" stroke="blue" cx="206.37" cy="-785.22" rx="4" ry="4"/>
</g>
<!-- hi_ret1 -->
<g id="node11" class="node">
<title>hi_ret1</title>
<ellipse fill="none" stroke="black" cx="248.5" cy="-338" rx="27" ry="18"/>
<text text-anchor="middle" x="248.5" y="-334.3" font-family="Times,serif" font-size="14.00">I</text>
</g>
<!-- d4b -->
<g id="node12" class="node">
<title>d4b</title>
<ellipse fill="none" stroke="black" cx="323.5" cy="-338" rx="29.8" ry="18"/>
<text text-anchor="middle" x="323.5" y="-334.3" font-family="Times,serif" font-size="14.00">Dup</text>
</g>
<!-- h_app -->
<g id="node13" class="node">
<title>h_app</title>
<ellipse fill="none" stroke="black" cx="249.5" cy="-251" rx="27" ry="18"/>
<text text-anchor="middle" x="249.5" y="-247.3" font-family="Times,serif" font-size="14.00">I</text>
</g>
<!-- d4b&#45;&gt;h_app -->
<g id="edge12" class="edge">
<title>d4b&#45;&gt;h_app</title>
<path fill="none" stroke="red" d="M310.27,-321.8C298.9,-308.75 282.35,-289.74 269.39,-274.85"/>
<polygon fill="red" stroke="red" points="271.82,-272.31 262.61,-267.06 266.54,-276.91 271.82,-272.31"/>
</g>
<!-- ha -->
<g id="node14" class="node">
<title>ha</title>
<ellipse fill="none" stroke="black" cx="287.5" cy="-411" rx="27" ry="18"/>
<text text-anchor="middle" x="287.5" y="-407.3" font-family="Times,serif" font-size="14.00">PiL</text>
</g>
<!-- ha&#45;&gt;hi_ret1 -->
<g id="edge14" class="edge">
<title>ha&#45;&gt;hi_ret1</title>
<path fill="none" stroke="blue" d="M278.65,-393.89C273.81,-385.08 267.71,-373.98 262.27,-364.07"/>
<polygon fill="blue" stroke="blue" points="265.19,-362.13 257.31,-355.05 259.06,-365.5 265.19,-362.13"/>
</g>
<!-- ha&#45;&gt;d4b -->
<g id="edge13" class="edge">
<title>ha&#45;&gt;d4b</title>
<path fill="none" stroke="red" d="M295.85,-393.53C300.21,-384.93 305.64,-374.21 310.54,-364.56"/>
<polygon fill="red" stroke="red" points="313.79,-365.88 315.19,-355.38 307.55,-362.71 313.79,-365.88"/>
</g>
<!-- hb -->
<g id="node15" class="node">
<title>hb</title>
<ellipse fill="none" stroke="black" cx="359.5" cy="-498" rx="27" ry="18"/>
<text text-anchor="middle" x="359.5" y="-494.3" font-family="Times,serif" font-size="14.00">PiL</text>
</g>
<!-- hb&#45;&gt;d4b -->
<g id="edge15" class="edge">
<title>hb&#45;&gt;d4b</title>
<path fill="none" stroke="red" d="M355.64,-480.09C349.32,-452.32 336.69,-396.9 329.28,-364.4"/>
<ellipse fill="none" stroke="red" cx="328.32" cy="-360.17" rx="4" ry="4"/>
</g>
<!-- x2i_o2 -->
<g id="node16" class="node">
<title>x2i_o2</title>
<ellipse fill="none" stroke="black" cx="176.5" cy="-411" rx="27" ry="18"/>
<text text-anchor="middle" x="176.5" y="-407.3" font-family="Times,serif" font-size="14.00">PiL</text>
</g>
<!-- hb&#45;&gt;x2i_o2 -->
<g id="edge16" class="edge">
<title>hb&#45;&gt;x2i_o2</title>
<path fill="none" stroke="blue" stroke-width="2" d="M339,-485.94C334.04,-483.66 328.68,-481.5 323.5,-480 291.67,-470.81 197.46,-486.8 175.5,-462 169.99,-455.78 168.74,-447.24 169.33,-438.97"/>
<polygon fill="blue" stroke="blue" stroke-width="2" points="172.83,-439.25 170.88,-428.83 165.91,-438.19 172.83,-439.25"/>
<text text-anchor="middle" x="193" y="-450.8" font-family="Times,serif" font-size="14.00">2&#45;&gt;1</text>
</g>
<!-- x2i_o2&#45;&gt;f_ret -->
<g id="edge26" class="edge">
<title>x2i_o2&#45;&gt;f_ret</title>
<path fill="none" stroke="blue" stroke-width="2" d="M155.25,-399.52C130.9,-387.52 90.78,-367.74 63.07,-354.07"/>
<polygon fill="blue" stroke="blue" stroke-width="2" points="64.35,-350.8 53.83,-349.52 61.25,-357.08 64.35,-350.8"/>
</g>
<!-- x1_o2 -->
<g id="node21" class="node">
<title>x1_o2</title>
<ellipse fill="none" stroke="black" cx="176.5" cy="-338" rx="27" ry="18"/>
<text text-anchor="middle" x="176.5" y="-334.3" font-family="Times,serif" font-size="14.00">I</text>
</g>
<!-- x2i_o2&#45;&gt;x1_o2 -->
<g id="edge25" class="edge">
<title>x2i_o2&#45;&gt;x1_o2</title>
<path fill="none" stroke="red" d="M176.5,-392.81C176.5,-384.79 176.5,-375.05 176.5,-366.07"/>
<polygon fill="red" stroke="red" points="180,-366.03 176.5,-356.03 173,-366.03 180,-366.03"/>
</g>
<!-- h_di1 -->
<g id="node17" class="node">
<title>h_di1</title>
<ellipse fill="none" stroke="black" cx="287.5" cy="-498" rx="27" ry="18"/>
<text text-anchor="middle" x="287.5" y="-494.3" font-family="Times,serif" font-size="14.00">!d</text>
</g>
<!-- h_di1&#45;&gt;ha -->
<g id="edge17" class="edge">
<title>h_di1&#45;&gt;ha</title>
<path fill="none" stroke="blue" d="M287.5,-479.8C287.5,-468.16 287.5,-452.55 287.5,-439.24"/>
<polygon fill="blue" stroke="blue" points="291,-439.18 287.5,-429.18 284,-439.18 291,-439.18"/>
<text text-anchor="middle" x="292.5" y="-450.8" font-family="Times,serif" font-size="14.00">2</text>
</g>
<!-- h_di2&#45;&gt;hb -->
<g id="edge18" class="edge">
<title>h_di2&#45;&gt;hb</title>
<path fill="none" stroke="blue" stroke-width="2" d="M323.98,-567.61C330.31,-555.38 339.08,-538.44 346.32,-524.46"/>
<polygon fill="blue" stroke="blue" stroke-width="2" points="349.55,-525.83 351.04,-515.34 343.33,-522.61 349.55,-525.83"/>
<text text-anchor="middle" x="344.5" y="-537.8" font-family="Times,serif" font-size="14.00">2</text>
</g>
<!-- c2a -->
<g id="node19" class="node">
<title>c2a</title>
<ellipse fill="none" stroke="black" cx="142.5" cy="-672" rx="27.1" ry="18"/>
<text text-anchor="middle" x="142.5" y="-668.3" font-family="Times,serif" font-size="14.00">Cut</text>
</g>
<!-- c2a&#45;&gt;hi_retpa -->
<g id="edge19" class="edge">
<title>c2a&#45;&gt;hi_retpa</title>
<path fill="none" stroke="red" d="M157.69,-656.96C172.34,-643.43 194.7,-622.77 211.53,-607.22"/>
<polygon fill="red" stroke="red" points="214.31,-609.41 219.28,-600.06 209.56,-604.27 214.31,-609.41"/>
<text text-anchor="middle" x="199.5" y="-624.8" font-family="Times,serif" font-size="14.00">1</text>
</g>
<!-- c2a&#45;&gt;x1_o2 -->
<g id="edge20" class="edge">
<title>c2a&#45;&gt;x1_o2</title>
<path fill="none" stroke="blue" d="M135.85,-654.37C129.7,-637.44 121.5,-610.32 121.5,-586 121.5,-586 121.5,-586 121.5,-410 121.5,-389.21 136.41,-370.82 150.71,-357.97"/>
<polygon fill="blue" stroke="blue" points="153.09,-360.54 158.49,-351.42 148.58,-355.18 153.09,-360.54"/>
</g>
<!-- hi_retpa&#45;&gt;hi_ret1 -->
<g id="edge21" class="edge">
<title>hi_retpa&#45;&gt;hi_ret1</title>
<path fill="none" stroke="red" d="M235.48,-566.77C237.88,-524.86 244.02,-417.31 246.93,-366.44"/>
<polygon fill="red" stroke="red" points="250.44,-366.39 247.51,-356.21 243.45,-365.99 250.44,-366.39"/>
<text text-anchor="middle" x="247.5" y="-450.8" font-family="Times,serif" font-size="14.00">2</text>
</g>
<!-- hi_retpa&#45;&gt;h_di1 -->
<g id="edge22" class="edge">
<title>hi_retpa&#45;&gt;h_di1</title>
<path fill="none" stroke="blue" d="M244.47,-568.01C252.24,-555.55 263.17,-538.01 272.07,-523.74"/>
<polygon fill="blue" stroke="blue" points="275.25,-525.25 277.57,-514.92 269.31,-521.55 275.25,-525.25"/>
<text text-anchor="middle" x="269.5" y="-537.8" font-family="Times,serif" font-size="14.00">1</text>
</g>
<!-- c3 -->
<g id="node22" class="node">
<title>c3</title>
<ellipse fill="none" stroke="black" cx="104.5" cy="-338" rx="27.1" ry="18"/>
<text text-anchor="middle" x="104.5" y="-334.3" font-family="Times,serif" font-size="14.00">Cut</text>
</g>
<!-- c3&#45;&gt;h_app -->
<g id="edge28" class="edge">
<title>c3&#45;&gt;h_app</title>
<path fill="none" stroke="blue" d="M124.35,-325.36C149.41,-310.67 192.67,-285.31 221.18,-268.6"/>
<polygon fill="blue" stroke="blue" points="223.02,-271.58 229.88,-263.5 219.48,-265.54 223.02,-271.58"/>
</g>
<!-- i -->
<g id="node23" class="node">
<title>i</title>
<ellipse fill="none" stroke="black" cx="104.5" cy="-251" rx="27" ry="18"/>
<text text-anchor="middle" x="104.5" y="-247.3" font-family="Times,serif" font-size="14.00">!p</text>
</g>
<!-- c3&#45;&gt;i -->
<g id="edge27" class="edge">
<title>c3&#45;&gt;i</title>
<path fill="none" stroke="red" d="M104.5,-319.8C104.5,-308.16 104.5,-292.55 104.5,-279.24"/>
<polygon fill="red" stroke="red" points="108,-279.18 104.5,-269.18 101,-279.18 108,-279.18"/>
<text text-anchor="middle" x="109.5" y="-290.8" font-family="Times,serif" font-size="14.00">2</text>
</g>
<!-- i_i -->
<g id="node24" class="node">
<title>i_i</title>
<ellipse fill="none" stroke="black" cx="104.5" cy="-164" rx="27" ry="18"/>
<text text-anchor="middle" x="104.5" y="-160.3" font-family="Times,serif" font-size="14.00">PiR</text>
</g>
<!-- i&#45;&gt;i_i -->
<g id="edge29" class="edge">
<title>i&#45;&gt;i_i</title>
<path fill="none" stroke="red" d="M104.5,-232.8C104.5,-221.16 104.5,-205.55 104.5,-192.24"/>
<polygon fill="red" stroke="red" points="108,-192.18 104.5,-182.18 101,-192.18 108,-192.18"/>
<text text-anchor="middle" x="109.5" y="-203.8" font-family="Times,serif" font-size="14.00">3</text>
</g>
<!-- il -->
<g id="node25" class="node">
<title>il</title>
<ellipse fill="none" stroke="black" cx="69.5" cy="-91" rx="27" ry="18"/>
<text text-anchor="middle" x="69.5" y="-87.3" font-family="Times,serif" font-size="14.00">!d</text>
</g>
<!-- i_i&#45;&gt;il -->
<g id="edge30" class="edge">
<title>i_i&#45;&gt;il</title>
<path fill="none" stroke="blue" d="M96.38,-146.53C92.14,-137.93 86.85,-127.21 82.1,-117.56"/>
<polygon fill="blue" stroke="blue" points="85.13,-115.8 77.57,-108.38 78.85,-118.89 85.13,-115.8"/>
</g>
<!-- i_ret -->
<g id="node26" class="node">
<title>i_ret</title>
<ellipse fill="none" stroke="black" cx="110.5" cy="-18" rx="27" ry="18"/>
<text text-anchor="middle" x="110.5" y="-14.3" font-family="Times,serif" font-size="14.00">I</text>
</g>
<!-- i_i&#45;&gt;i_ret -->
<g id="edge31" class="edge">
<title>i_i&#45;&gt;i_ret</title>
<path fill="none" stroke="red" d="M105.21,-145.92C106.23,-121.34 108.13,-75.75 109.35,-46.43"/>
<polygon fill="red" stroke="red" points="112.87,-46.2 109.79,-36.06 105.87,-45.91 112.87,-46.2"/>
</g>
<!-- il&#45;&gt;i_ret -->
<g id="edge32" class="edge">
<title>il&#45;&gt;i_ret</title>
<path fill="none" stroke="blue" d="M78.8,-73.89C83.94,-64.99 90.43,-53.75 96.2,-43.77"/>
<polygon fill="blue" stroke="blue" points="99.26,-45.46 101.23,-35.05 93.2,-41.96 99.26,-45.46"/>
</g>
</g>
</svg>
