<?xml version="1.0" encoding="UTF-8" standalone="no"?>
<!DOCTYPE svg PUBLIC "-//W3C//DTD SVG 1.1//EN"
 "http://www.w3.org/Graphics/SVG/1.1/DTD/svg11.dtd">
<!-- Generated by graphviz version 2.43.0 (0)
 -->
<!-- Title: %3 Pages: 1 -->
<svg width="369pt" height="1245pt"
 viewBox="0.00 0.00 369.00 1244.79" xmlns="http://www.w3.org/2000/svg" xmlns:xlink="http://www.w3.org/1999/xlink">
<g id="graph0" class="graph" transform="scale(1 1) rotate(0) translate(4 1240.79)">
<title>%3</title>
<polygon fill="white" stroke="transparent" points="-4,4 -4,-1240.79 365,-1240.79 365,4 -4,4"/>
<!-- Root -->
<g id="node1" class="node">
<title>Root</title>
<ellipse fill="none" stroke="black" cx="207" cy="-1218.79" rx="32.49" ry="18"/>
<text text-anchor="middle" x="207" y="-1215.09" font-family="Times,serif" font-size="14.00">Root</text>
</g>
<!-- c1a -->
<g id="node2" class="node">
<title>c1a</title>
<ellipse fill="none" stroke="black" cx="61" cy="-1145.79" rx="27.1" ry="18"/>
<text text-anchor="middle" x="61" y="-1142.09" font-family="Times,serif" font-size="14.00">Cut</text>
</g>
<!-- Root&#45;&gt;c1a -->
<g id="edge1" class="edge">
<title>Root&#45;&gt;c1a</title>
<path fill="none" stroke="black" d="M183.22,-1206.23C158.21,-1194.07 118.77,-1174.89 91.49,-1161.62"/>
<polygon fill="black" stroke="black" points="92.92,-1158.42 82.39,-1157.2 89.86,-1164.72 92.92,-1158.42"/>
</g>
<!-- c1b -->
<g id="node3" class="node">
<title>c1b</title>
<ellipse fill="none" stroke="black" cx="207" cy="-1145.79" rx="27.1" ry="18"/>
<text text-anchor="middle" x="207" y="-1142.09" font-family="Times,serif" font-size="14.00">Cut</text>
</g>
<!-- Root&#45;&gt;c1b -->
<g id="edge2" class="edge">
<title>Root&#45;&gt;c1b</title>
<path fill="none" stroke="black" d="M207,-1200.61C207,-1192.58 207,-1182.84 207,-1173.86"/>
<polygon fill="black" stroke="black" points="210.5,-1173.82 207,-1163.82 203.5,-1173.82 210.5,-1173.82"/>
</g>
<!-- d1 -->
<g id="node6" class="node">
<title>d1</title>
<ellipse fill="none" stroke="black" cx="230" cy="-811.79" rx="29.8" ry="18"/>
<text text-anchor="middle" x="230" y="-808.09" font-family="Times,serif" font-size="14.00">Dup</text>
</g>
<!-- Root&#45;&gt;d1 -->
<g id="edge9" class="edge">
<title>Root&#45;&gt;d1</title>
<path fill="none" stroke="red" d="M237.96,-1213.05C273.21,-1205.69 326,-1187.81 326,-1146.79 326,-1146.79 326,-1146.79 326,-883.79 326,-852.96 293.59,-833.99 266.44,-823.51"/>
<polygon fill="red" stroke="red" points="267.34,-820.11 256.74,-820.02 264.97,-826.7 267.34,-820.11"/>
<text text-anchor="middle" x="343.5" y="-1011.59" font-family="Times,serif" font-size="14.00">0&#45;&gt;1</text>
</g>
<!-- c2b -->
<g id="node5" class="node">
<title>c2b</title>
<ellipse fill="none" stroke="black" cx="83" cy="-811.79" rx="27.1" ry="18"/>
<text text-anchor="middle" x="83" y="-808.09" font-family="Times,serif" font-size="14.00">Cut</text>
</g>
<!-- c1a&#45;&gt;c2b -->
<g id="edge4" class="edge">
<title>c1a&#45;&gt;c2b</title>
<path fill="none" stroke="black" d="M54.04,-1128.19C47.59,-1111.29 39,-1084.18 39,-1059.79 39,-1059.79 39,-1059.79 39,-883.79 39,-865.3 49.92,-847.61 60.88,-834.52"/>
<polygon fill="black" stroke="black" points="63.55,-836.78 67.61,-826.99 58.34,-832.11 63.55,-836.78"/>
</g>
<!-- d2a -->
<g id="node7" class="node">
<title>d2a</title>
<ellipse fill="none" stroke="black" cx="83" cy="-724.79" rx="29.8" ry="18"/>
<text text-anchor="middle" x="83" y="-721.09" font-family="Times,serif" font-size="14.00">Dup</text>
</g>
<!-- c1a&#45;&gt;d2a -->
<g id="edge16" class="edge">
<title>c1a&#45;&gt;d2a</title>
<path fill="none" stroke="blue" d="M43.68,-1131.84C25.65,-1116.74 0,-1089.95 0,-1059.79 0,-1059.79 0,-1059.79 0,-810.79 0,-780.07 28.11,-756.32 51.61,-741.83"/>
<polygon fill="blue" stroke="blue" points="53.45,-744.81 60.32,-736.74 49.92,-738.76 53.45,-744.81"/>
<text text-anchor="middle" x="5" y="-924.59" font-family="Times,serif" font-size="14.00">1</text>
</g>
<!-- fpa -->
<g id="node15" class="node">
<title>fpa</title>
<ellipse fill="none" stroke="black" cx="94" cy="-1058.79" rx="27" ry="18"/>
<text text-anchor="middle" x="94" y="-1055.09" font-family="Times,serif" font-size="14.00">!p</text>
</g>
<!-- c1a&#45;&gt;fpa -->
<g id="edge15" class="edge">
<title>c1a&#45;&gt;fpa</title>
<path fill="none" stroke="red" d="M67.52,-1128C72.18,-1116.01 78.53,-1099.65 83.84,-1085.95"/>
<polygon fill="red" stroke="red" points="87.14,-1087.14 87.49,-1076.55 80.61,-1084.61 87.14,-1087.14"/>
<text text-anchor="middle" x="85" y="-1098.59" font-family="Times,serif" font-size="14.00">0</text>
</g>
<!-- c1b&#45;&gt;c2b -->
<g id="edge5" class="edge">
<title>c1b&#45;&gt;c2b</title>
<path fill="none" stroke="black" d="M190.22,-1131.38C173.09,-1116.06 149,-1089.27 149,-1059.79 149,-1059.79 149,-1059.79 149,-883.79 149,-860.51 129.72,-841.65 112,-829.24"/>
<polygon fill="black" stroke="black" points="113.8,-826.24 103.52,-823.68 109.96,-832.09 113.8,-826.24"/>
</g>
<!-- d2b -->
<g id="node8" class="node">
<title>d2b</title>
<ellipse fill="none" stroke="black" cx="271" cy="-724.79" rx="29.8" ry="18"/>
<text text-anchor="middle" x="271" y="-721.09" font-family="Times,serif" font-size="14.00">Dup</text>
</g>
<!-- c1b&#45;&gt;d2b -->
<g id="edge18" class="edge">
<title>c1b&#45;&gt;d2b</title>
<path fill="none" stroke="blue" d="M228.28,-1134.19C252.28,-1120.56 288,-1094.45 288,-1059.79 288,-1059.79 288,-1059.79 288,-810.79 288,-791.04 283.53,-769.2 279.18,-752.61"/>
<polygon fill="blue" stroke="blue" points="282.43,-751.23 276.38,-742.53 275.68,-753.1 282.43,-751.23"/>
<text text-anchor="middle" x="293" y="-924.59" font-family="Times,serif" font-size="14.00">1</text>
</g>
<!-- fpb -->
<g id="node16" class="node">
<title>fpb</title>
<ellipse fill="none" stroke="black" cx="207" cy="-1058.79" rx="27" ry="18"/>
<text text-anchor="middle" x="207" y="-1055.09" font-family="Times,serif" font-size="14.00">!p</text>
</g>
<!-- c1b&#45;&gt;fpb -->
<g id="edge17" class="edge">
<title>c1b&#45;&gt;fpb</title>
<path fill="none" stroke="red" d="M207,-1127.59C207,-1115.96 207,-1100.34 207,-1087.03"/>
<polygon fill="red" stroke="red" points="210.5,-1086.97 207,-1076.97 203.5,-1086.97 210.5,-1086.97"/>
<text text-anchor="middle" x="212" y="-1098.59" font-family="Times,serif" font-size="14.00">0</text>
</g>
<!-- fa -->
<g id="node4" class="node">
<title>fa</title>
<ellipse fill="none" stroke="black" cx="205" cy="-884.79" rx="27" ry="18"/>
<text text-anchor="middle" x="205" y="-881.09" font-family="Times,serif" font-size="14.00">PiR</text>
</g>
<!-- fa&#45;&gt;c2b -->
<g id="edge3" class="edge">
<title>fa&#45;&gt;c2b</title>
<path fill="none" stroke="black" d="M190.33,-869.61C182.39,-862.44 172.15,-853.97 162,-847.79 144.3,-837.02 137.93,-838.22 119,-829.79 117.39,-829.08 115.75,-828.34 114.1,-827.58"/>
<polygon fill="black" stroke="black" points="115.17,-824.23 104.63,-823.2 112.23,-830.58 115.17,-824.23"/>
</g>
<!-- fa&#45;&gt;d1 -->
<g id="edge23" class="edge">
<title>fa&#45;&gt;d1</title>
<path fill="none" stroke="red" d="M210.92,-866.97C214.07,-858.04 217.99,-846.9 221.46,-837.06"/>
<ellipse fill="none" stroke="red" cx="222.79" cy="-833.27" rx="4" ry="4"/>
</g>
<!-- hi_retpc1 -->
<g id="node14" class="node">
<title>hi_retpc1</title>
<ellipse fill="none" stroke="black" cx="155" cy="-811.79" rx="27" ry="18"/>
<text text-anchor="middle" x="155" y="-808.09" font-family="Times,serif" font-size="14.00">!c</text>
</g>
<!-- fa&#45;&gt;hi_retpc1 -->
<g id="edge22" class="edge">
<title>fa&#45;&gt;hi_retpc1</title>
<path fill="none" stroke="blue" d="M199.56,-866.98C197.13,-860.68 193.92,-853.65 190,-847.79 186.63,-842.76 182.46,-837.85 178.19,-833.37"/>
<polygon fill="blue" stroke="blue" points="180.61,-830.84 171.03,-826.3 175.69,-835.82 180.61,-830.84"/>
</g>
<!-- d3 -->
<g id="node9" class="node">
<title>d3</title>
<ellipse fill="none" stroke="black" cx="33" cy="-529.79" rx="29.8" ry="18"/>
<text text-anchor="middle" x="33" y="-526.09" font-family="Times,serif" font-size="14.00">Dup</text>
</g>
<!-- c2b&#45;&gt;d3 -->
<g id="edge24" class="edge">
<title>c2b&#45;&gt;d3</title>
<path fill="none" stroke="red" d="M71.26,-795.28C62,-782.09 49.73,-762.25 44,-742.79 25.13,-678.7 27.47,-599.06 30.44,-558.04"/>
<polygon fill="red" stroke="red" points="33.94,-558.25 31.24,-548.01 26.96,-557.7 33.94,-558.25"/>
<text text-anchor="middle" x="38" y="-677.59" font-family="Times,serif" font-size="14.00">2</text>
</g>
<!-- x2i_o2 -->
<g id="node18" class="node">
<title>x2i_o2</title>
<ellipse fill="none" stroke="black" cx="158" cy="-724.79" rx="27" ry="18"/>
<text text-anchor="middle" x="158" y="-721.09" font-family="Times,serif" font-size="14.00">PiL</text>
</g>
<!-- c2b&#45;&gt;x2i_o2 -->
<g id="edge25" class="edge">
<title>c2b&#45;&gt;x2i_o2</title>
<path fill="none" stroke="blue" d="M96.06,-795.99C107.61,-782.91 124.62,-763.62 137.9,-748.57"/>
<polygon fill="blue" stroke="blue" points="140.84,-750.53 144.83,-740.72 135.59,-745.9 140.84,-750.53"/>
<text text-anchor="middle" x="130" y="-764.59" font-family="Times,serif" font-size="14.00">1</text>
</g>
<!-- d1&#45;&gt;d2a -->
<g id="edge6" class="edge">
<title>d1&#45;&gt;d2a</title>
<path fill="none" stroke="black" stroke-dasharray="5,2" d="M207.18,-800.01C201.93,-797.77 196.33,-795.55 191,-793.79 157.22,-782.64 141.78,-796.71 113,-775.79 101.7,-767.58 93.87,-753.69 89.04,-742.64"/>
</g>
<!-- d1&#45;&gt;d2b -->
<g id="edge7" class="edge">
<title>d1&#45;&gt;d2b</title>
<path fill="none" stroke="black" stroke-dasharray="5,2" d="M237.91,-794.41C245.12,-779.45 255.73,-757.45 262.98,-742.42"/>
</g>
<!-- f_ret -->
<g id="node11" class="node">
<title>f_ret</title>
<ellipse fill="none" stroke="black" cx="180" cy="-637.79" rx="27" ry="18"/>
<text text-anchor="middle" x="180" y="-634.09" font-family="Times,serif" font-size="14.00">I</text>
</g>
<!-- d1&#45;&gt;f_ret -->
<g id="edge10" class="edge">
<title>d1&#45;&gt;f_ret</title>
<path fill="none" stroke="red" d="M225.11,-793.99C216.41,-764.06 198.17,-701.31 187.75,-665.45"/>
<polygon fill="red" stroke="red" points="191.06,-664.29 184.91,-655.67 184.34,-666.25 191.06,-664.29"/>
</g>
<!-- hi_retpa -->
<g id="node12" class="node">
<title>hi_retpa</title>
<ellipse fill="none" stroke="black" cx="93" cy="-637.79" rx="27" ry="18"/>
<text text-anchor="middle" x="93" y="-634.09" font-family="Times,serif" font-size="14.00">!p</text>
</g>
<!-- d2a&#45;&gt;hi_retpa -->
<g id="edge11" class="edge">
<title>d2a&#45;&gt;hi_retpa</title>
<path fill="none" stroke="blue" d="M85.02,-706.59C86.39,-694.96 88.23,-679.34 89.8,-666.03"/>
<polygon fill="blue" stroke="blue" points="93.29,-666.31 90.98,-655.97 86.33,-665.49 93.29,-666.31"/>
<text text-anchor="middle" x="94" y="-677.59" font-family="Times,serif" font-size="14.00">1</text>
</g>
<!-- h_dib -->
<g id="node13" class="node">
<title>h_dib</title>
<ellipse fill="none" stroke="black" cx="235" cy="-583.79" rx="27" ry="18"/>
<text text-anchor="middle" x="235" y="-580.09" font-family="Times,serif" font-size="14.00">!d</text>
</g>
<!-- d2b&#45;&gt;h_dib -->
<g id="edge12" class="edge">
<title>d2b&#45;&gt;h_dib</title>
<path fill="none" stroke="blue" d="M266.59,-706.75C260.46,-683.09 249.31,-640.06 242.03,-611.95"/>
<polygon fill="blue" stroke="blue" points="245.35,-610.78 239.45,-601.98 238.57,-612.54 245.35,-610.78"/>
<text text-anchor="middle" x="266" y="-677.59" font-family="Times,serif" font-size="14.00">1</text>
</g>
<!-- d4 -->
<g id="node10" class="node">
<title>d4</title>
<ellipse fill="none" stroke="black" cx="108" cy="-426.9" rx="29.81" ry="29.81"/>
<ellipse fill="none" stroke="black" cx="108" cy="-426.9" rx="33.8" ry="33.8"/>
<text text-anchor="middle" x="108" y="-423.2" font-family="Times,serif" font-size="14.00">Dup</text>
</g>
<!-- d3&#45;&gt;d4 -->
<g id="edge8" class="edge">
<title>d3&#45;&gt;d4</title>
<path fill="none" stroke="black" stroke-dasharray="5,2" d="M44.72,-513.03C56.34,-497.4 74.35,-473.16 88.2,-454.54"/>
</g>
<!-- hi_ret -->
<g id="node20" class="node">
<title>hi_ret</title>
<ellipse fill="none" stroke="black" cx="35" cy="-251" rx="27" ry="18"/>
<text text-anchor="middle" x="35" y="-247.3" font-family="Times,serif" font-size="14.00">I</text>
</g>
<!-- d3&#45;&gt;hi_ret -->
<g id="edge30" class="edge">
<title>d3&#45;&gt;hi_ret</title>
<path fill="none" stroke="red" d="M33.13,-511.48C33.46,-464.78 34.39,-335.96 34.8,-279.32"/>
<polygon fill="red" stroke="red" points="38.3,-279.33 34.87,-269.31 31.3,-279.28 38.3,-279.33"/>
</g>
<!-- h -->
<g id="node21" class="node">
<title>h</title>
<ellipse fill="none" stroke="black" cx="108" cy="-338" rx="27" ry="18"/>
<text text-anchor="middle" x="108" y="-334.3" font-family="Times,serif" font-size="14.00">PiL</text>
</g>
<!-- d4&#45;&gt;h -->
<g id="edge31" class="edge">
<title>d4&#45;&gt;h</title>
<path fill="none" stroke="blue" d="M108,-392.55C108,-383.9 108,-374.68 108,-366.37"/>
<polygon fill="blue" stroke="blue" points="111.5,-366.1 108,-356.1 104.5,-366.1 111.5,-366.1"/>
</g>
<!-- hi_retpa&#45;&gt;d3 -->
<g id="edge28" class="edge">
<title>hi_retpa&#45;&gt;d3</title>
<path fill="none" stroke="red" d="M83.89,-620.7C73.84,-602.95 57.6,-574.25 46.17,-554.06"/>
<ellipse fill="none" stroke="red" cx="44.17" cy="-550.53" rx="4" ry="4"/>
<text text-anchor="middle" x="77" y="-580.09" font-family="Times,serif" font-size="14.00">2</text>
</g>
<!-- h_dia -->
<g id="node19" class="node">
<title>h_dia</title>
<ellipse fill="none" stroke="black" cx="108" cy="-529.79" rx="27" ry="18"/>
<text text-anchor="middle" x="108" y="-526.09" font-family="Times,serif" font-size="14.00">!d</text>
</g>
<!-- hi_retpa&#45;&gt;h_dia -->
<g id="edge29" class="edge">
<title>hi_retpa&#45;&gt;h_dia</title>
<path fill="none" stroke="blue" d="M95.41,-619.76C97.86,-602.46 101.68,-575.46 104.47,-555.74"/>
<ellipse fill="none" stroke="blue" cx="105.04" cy="-551.74" rx="4" ry="4"/>
<text text-anchor="middle" x="108" y="-580.09" font-family="Times,serif" font-size="14.00">1</text>
</g>
<!-- h_dib&#45;&gt;d4 -->
<g id="edge33" class="edge">
<title>h_dib&#45;&gt;d4</title>
<path fill="none" stroke="blue" d="M222.59,-567.66C202.57,-543.24 162.65,-494.55 135.63,-461.59"/>
<polygon fill="blue" stroke="blue" points="138.1,-459.09 129.05,-453.58 132.69,-463.53 138.1,-459.09"/>
<text text-anchor="middle" x="211" y="-526.09" font-family="Times,serif" font-size="14.00">2</text>
</g>
<!-- hi_retpc1&#45;&gt;d2a -->
<g id="edge13" class="edge">
<title>hi_retpc1&#45;&gt;d2a</title>
<path fill="none" stroke="blue" d="M144.24,-795.02C137.14,-784.94 127.45,-771.76 118,-760.79 113.74,-755.85 108.93,-750.76 104.27,-746.05"/>
<ellipse fill="none" stroke="blue" cx="101.33" cy="-743.13" rx="4" ry="4"/>
</g>
<!-- hi_retpc1&#45;&gt;d2b -->
<g id="edge14" class="edge">
<title>hi_retpc1&#45;&gt;d2b</title>
<path fill="none" stroke="blue" d="M172.62,-797.89C192.26,-783.49 224.17,-760.11 246.3,-743.89"/>
<ellipse fill="none" stroke="blue" cx="249.61" cy="-741.47" rx="4" ry="4"/>
</g>
<!-- d5 -->
<g id="node17" class="node">
<title>d5</title>
<ellipse fill="none" stroke="black" cx="207" cy="-971.79" rx="29.8" ry="18"/>
<text text-anchor="middle" x="207" y="-968.09" font-family="Times,serif" font-size="14.00">Dup</text>
</g>
<!-- fpa&#45;&gt;d5 -->
<g id="edge19" class="edge">
<title>fpa&#45;&gt;d5</title>
<path fill="none" stroke="red" d="M111.16,-1044.89C129.69,-1030.95 159.44,-1008.57 180.87,-992.45"/>
<polygon fill="red" stroke="red" points="183.04,-995.2 188.93,-986.39 178.83,-989.6 183.04,-995.2"/>
<text text-anchor="middle" x="163" y="-1011.59" font-family="Times,serif" font-size="14.00">1</text>
</g>
<!-- fpb&#45;&gt;d5 -->
<g id="edge20" class="edge">
<title>fpb&#45;&gt;d5</title>
<path fill="none" stroke="red" d="M207,-1040.59C207,-1028.96 207,-1013.34 207,-1000.03"/>
<polygon fill="red" stroke="red" points="210.5,-999.97 207,-989.97 203.5,-999.97 210.5,-999.97"/>
<text text-anchor="middle" x="212" y="-1011.59" font-family="Times,serif" font-size="14.00">1</text>
</g>
<!-- d5&#45;&gt;fa -->
<g id="edge21" class="edge">
<title>d5&#45;&gt;fa</title>
<path fill="none" stroke="red" d="M206.6,-953.59C206.32,-941.96 205.95,-926.34 205.64,-913.03"/>
<polygon fill="red" stroke="red" points="209.14,-912.89 205.4,-902.97 202.14,-913.05 209.14,-912.89"/>
</g>
<!-- x2i_o2&#45;&gt;f_ret -->
<g id="edge27" class="edge">
<title>x2i_o2&#45;&gt;f_ret</title>
<path fill="none" stroke="blue" d="M162.35,-707C165.4,-695.2 169.55,-679.17 173.06,-665.62"/>
<polygon fill="blue" stroke="blue" points="176.47,-666.4 175.59,-655.84 169.69,-664.65 176.47,-666.4"/>
</g>
<!-- x2i_o2&#45;&gt;hi_retpa -->
<g id="edge26" class="edge">
<title>x2i_o2&#45;&gt;hi_retpa</title>
<path fill="none" stroke="red" d="M146.08,-708.2C136.27,-695.38 122.23,-677.01 111.04,-662.39"/>
<polygon fill="red" stroke="red" points="113.7,-660.1 104.85,-654.29 108.14,-664.36 113.7,-660.1"/>
<text text-anchor="middle" x="135" y="-677.59" font-family="Times,serif" font-size="14.00">1</text>
</g>
<!-- h_dia&#45;&gt;d4 -->
<g id="edge32" class="edge">
<title>h_dia&#45;&gt;d4</title>
<path fill="none" stroke="blue" d="M108,-511.68C108,-500.01 108,-484.03 108,-469.16"/>
<ellipse fill="none" stroke="blue" cx="108" cy="-465.04" rx="4" ry="4"/>
<text text-anchor="middle" x="113" y="-482.59" font-family="Times,serif" font-size="14.00">2</text>
</g>
<!-- h&#45;&gt;hi_ret -->
<g id="edge39" class="edge">
<title>h&#45;&gt;hi_ret</title>
<path fill="none" stroke="blue" d="M94.95,-321.8C83.74,-308.75 67.41,-289.74 54.62,-274.85"/>
<polygon fill="blue" stroke="blue" points="57.11,-272.37 47.94,-267.06 51.8,-276.93 57.11,-272.37"/>
</g>
<!-- i -->
<g id="node22" class="node">
<title>i</title>
<ellipse fill="none" stroke="black" cx="108" cy="-251" rx="27" ry="18"/>
<text text-anchor="middle" x="108" y="-247.3" font-family="Times,serif" font-size="14.00">!p</text>
</g>
<!-- h&#45;&gt;i -->
<g id="edge38" class="edge">
<title>h&#45;&gt;i</title>
<path fill="none" stroke="red" d="M108,-319.8C108,-308.16 108,-292.55 108,-279.24"/>
<polygon fill="red" stroke="red" points="111.5,-279.18 108,-269.18 104.5,-279.18 111.5,-279.18"/>
<text text-anchor="middle" x="113" y="-290.8" font-family="Times,serif" font-size="14.00">2</text>
</g>
<!-- i_i -->
<g id="node23" class="node">
<title>i_i</title>
<ellipse fill="none" stroke="black" cx="108" cy="-164" rx="27" ry="18"/>
<text text-anchor="middle" x="108" y="-160.3" font-family="Times,serif" font-size="14.00">PiR</text>
</g>
<!-- i&#45;&gt;i_i -->
<g id="edge34" class="edge">
<title>i&#45;&gt;i_i</title>
<path fill="none" stroke="red" d="M108,-232.8C108,-221.16 108,-205.55 108,-192.24"/>
<polygon fill="red" stroke="red" points="111.5,-192.18 108,-182.18 104.5,-192.18 111.5,-192.18"/>
<text text-anchor="middle" x="113" y="-203.8" font-family="Times,serif" font-size="14.00">3</text>
</g>
<!-- il -->
<g id="node24" class="node">
<title>il</title>
<ellipse fill="none" stroke="black" cx="151" cy="-91" rx="27" ry="18"/>
<text text-anchor="middle" x="151" y="-87.3" font-family="Times,serif" font-size="14.00">!d</text>
</g>
<!-- i_i&#45;&gt;il -->
<g id="edge35" class="edge">
<title>i_i&#45;&gt;il</title>
<path fill="none" stroke="blue" d="M117.76,-146.89C123.15,-137.99 129.95,-126.75 136,-116.77"/>
<polygon fill="blue" stroke="blue" points="139.09,-118.41 141.28,-108.05 133.11,-114.79 139.09,-118.41"/>
</g>
<!-- i_ret -->
<g id="node25" class="node">
<title>i_ret</title>
<ellipse fill="none" stroke="black" cx="108" cy="-18" rx="27" ry="18"/>
<text text-anchor="middle" x="108" y="-14.3" font-family="Times,serif" font-size="14.00">I</text>
</g>
<!-- i_i&#45;&gt;i_ret -->
<g id="edge36" class="edge">
<title>i_i&#45;&gt;i_ret</title>
<path fill="none" stroke="red" d="M108,-145.92C108,-121.34 108,-75.75 108,-46.43"/>
<polygon fill="red" stroke="red" points="111.5,-46.06 108,-36.06 104.5,-46.06 111.5,-46.06"/>
</g>
<!-- il&#45;&gt;i_ret -->
<g id="edge37" class="edge">
<title>il&#45;&gt;i_ret</title>
<path fill="none" stroke="blue" d="M141.24,-73.89C135.85,-64.99 129.05,-53.75 123,-43.77"/>
<polygon fill="blue" stroke="blue" points="125.89,-41.79 117.72,-35.05 119.91,-45.41 125.89,-41.79"/>
</g>
</g>
</svg>
