<?xml version="1.0" encoding="UTF-8" standalone="no"?>
<!DOCTYPE svg PUBLIC "-//W3C//DTD SVG 1.1//EN"
 "http://www.w3.org/Graphics/SVG/1.1/DTD/svg11.dtd">
<!-- Generated by graphviz version 2.40.1 (20161225.0304)
 -->
<!-- Title: %3 Pages: 1 -->
<svg width="371pt" height="1178pt"
 viewBox="0.00 0.00 371.00 1177.59" xmlns="http://www.w3.org/2000/svg" xmlns:xlink="http://www.w3.org/1999/xlink">
<g id="graph0" class="graph" transform="scale(1 1) rotate(0) translate(4 1173.5917)">
<title>%3</title>
<polygon fill="#ffffff" stroke="transparent" points="-4,4 -4,-1173.5917 367,-1173.5917 367,4 -4,4"/>
<!-- Root -->
<g id="node1" class="node">
<title>Root</title>
<ellipse fill="none" stroke="#000000" cx="42" cy="-1151.5917" rx="27.8951" ry="18"/>
<text text-anchor="middle" x="42" y="-1147.8917" font-family="Times,serif" font-size="14.00" fill="#000000">Root</text>
</g>
<!-- c1b -->
<g id="node2" class="node">
<title>c1b</title>
<ellipse fill="none" stroke="#000000" cx="147" cy="-1078.5917" rx="27" ry="18"/>
<text text-anchor="middle" x="147" y="-1074.8917" font-family="Times,serif" font-size="14.00" fill="#000000">Cut</text>
</g>
<!-- Root&#45;&gt;c1b -->
<g id="edge1" class="edge">
<title>Root&#45;&gt;c1b</title>
<path fill="none" stroke="#000000" d="M61.2586,-1138.2024C77.6416,-1126.8123 101.361,-1110.3216 119.7012,-1097.5708"/>
<polygon fill="#000000" stroke="#000000" points="122.004,-1100.2327 128.2167,-1091.6505 118.0081,-1094.4852 122.004,-1100.2327"/>
</g>
<!-- d1 -->
<g id="node6" class="node">
<title>d1</title>
<ellipse fill="none" stroke="#000000" cx="27" cy="-822.1938" rx="27" ry="18"/>
<text text-anchor="middle" x="27" y="-818.4938" font-family="Times,serif" font-size="14.00" fill="#000000">Dup</text>
</g>
<!-- Root&#45;&gt;d1 -->
<g id="edge8" class="edge">
<title>Root&#45;&gt;d1</title>
<path fill="none" stroke="#ff0000" d="M37.3948,-1133.7262C34.0107,-1119.029 30,-1097.6004 30,-1078.5917 30,-1078.5917 30,-1078.5917 30,-904.5917 30,-886.5642 29.274,-866.3327 28.5363,-850.4285"/>
<polygon fill="#ff0000" stroke="#ff0000" points="32.0198,-850.0054 28.0324,-840.1896 25.0282,-850.3495 32.0198,-850.0054"/>
<text text-anchor="middle" x="43.5" y="-987.8917" font-family="Times,serif" font-size="14.00" fill="#000000">0&#45;&gt;1</text>
</g>
<!-- c2b -->
<g id="node4" class="node">
<title>c2b</title>
<ellipse fill="none" stroke="#000000" cx="99" cy="-822.1938" rx="23.3111" ry="23.3111"/>
<ellipse fill="none" stroke="#000000" cx="99" cy="-822.1938" rx="27.2962" ry="27.2962"/>
<text text-anchor="middle" x="99" y="-818.4938" font-family="Times,serif" font-size="14.00" fill="#000000">Cut</text>
</g>
<!-- c1b&#45;&gt;c2b -->
<g id="edge3" class="edge">
<title>c1b&#45;&gt;c2b</title>
<path fill="none" stroke="#000000" d="M135.8849,-1062.1209C127.421,-1048.6329 116.3441,-1028.7213 111,-1009.5917 96.9287,-959.2224 95.7805,-898.3939 96.8846,-859.9929"/>
<polygon fill="#000000" stroke="#000000" points="100.3899,-859.9017 97.2469,-849.7838 93.3944,-859.6534 100.3899,-859.9017"/>
</g>
<!-- c2a -->
<g id="node5" class="node">
<title>c2a</title>
<ellipse fill="none" stroke="#000000" cx="200" cy="-749.3979" rx="23.3111" ry="23.3111"/>
<ellipse fill="none" stroke="#000000" cx="200" cy="-749.3979" rx="27.2962" ry="27.2962"/>
<text text-anchor="middle" x="200" y="-745.6979" font-family="Times,serif" font-size="14.00" fill="#000000">Cut</text>
</g>
<!-- c1b&#45;&gt;c2a -->
<g id="edge5" class="edge">
<title>c1b&#45;&gt;c2a</title>
<path fill="none" stroke="#000000" d="M158.1084,-1062.119C166.5684,-1048.63 177.6435,-1028.7178 183,-1009.5917 204.4845,-932.8782 204.4643,-838.6776 202.3527,-787.2841"/>
<polygon fill="#000000" stroke="#000000" points="205.8349,-786.8166 201.8773,-776.9887 198.8424,-787.1395 205.8349,-786.8166"/>
</g>
<!-- d2 -->
<g id="node7" class="node">
<title>d2</title>
<ellipse fill="none" stroke="#000000" cx="256" cy="-822.1938" rx="27" ry="18"/>
<text text-anchor="middle" x="256" y="-818.4938" font-family="Times,serif" font-size="14.00" fill="#000000">Dup</text>
</g>
<!-- c1b&#45;&gt;d2 -->
<g id="edge14" class="edge">
<title>c1b&#45;&gt;d2</title>
<path fill="none" stroke="#0000ff" d="M172.1,-1071.6673C187.1366,-1066.2137 205.3444,-1057.0621 216,-1042.5917 258.6054,-984.7332 260.5471,-895.585 258.3288,-850.4522"/>
<polygon fill="#0000ff" stroke="#0000ff" points="261.8081,-850.0007 257.7157,-840.2282 254.8207,-850.4198 261.8081,-850.0007"/>
<text text-anchor="middle" x="257.5" y="-944.3917" font-family="Times,serif" font-size="14.00" fill="#000000">1</text>
</g>
<!-- fpa -->
<g id="node14" class="node">
<title>fpa</title>
<ellipse fill="none" stroke="#000000" cx="147" cy="-991.5917" rx="27" ry="18"/>
<text text-anchor="middle" x="147" y="-987.8917" font-family="Times,serif" font-size="14.00" fill="#000000">!p</text>
</g>
<!-- c1b&#45;&gt;fpa -->
<g id="edge13" class="edge">
<title>c1b&#45;&gt;fpa</title>
<path fill="none" stroke="#ff0000" d="M147,-1060.5652C147,-1048.7835 147,-1033.1524 147,-1019.7498"/>
<polygon fill="#ff0000" stroke="#ff0000" points="150.5001,-1019.595 147,-1009.5951 143.5001,-1019.5951 150.5001,-1019.595"/>
<text text-anchor="middle" x="150.5" y="-1031.3917" font-family="Times,serif" font-size="14.00" fill="#000000">0</text>
</g>
<!-- fa -->
<g id="node3" class="node">
<title>fa</title>
<ellipse fill="none" stroke="#000000" cx="147" cy="-904.5917" rx="27" ry="18"/>
<text text-anchor="middle" x="147" y="-900.8917" font-family="Times,serif" font-size="14.00" fill="#000000">PiR</text>
</g>
<!-- fa&#45;&gt;c2b -->
<g id="edge2" class="edge">
<title>fa&#45;&gt;c2b</title>
<path fill="none" stroke="#000000" d="M137.0544,-887.5188C131.5508,-878.0712 124.5248,-866.0102 118.0116,-854.8295"/>
<polygon fill="#000000" stroke="#000000" points="120.9949,-852.9973 112.937,-846.1183 114.9463,-856.5209 120.9949,-852.9973"/>
</g>
<!-- fa&#45;&gt;c2a -->
<g id="edge4" class="edge">
<title>fa&#45;&gt;c2a</title>
<path fill="none" stroke="#000000" d="M153.0798,-886.789C161.4952,-862.1469 176.882,-817.0917 187.7366,-785.3075"/>
<polygon fill="#000000" stroke="#000000" points="191.1673,-786.0915 191.087,-775.4969 184.5429,-783.8291 191.1673,-786.0915"/>
</g>
<!-- fa&#45;&gt;d1 -->
<g id="edge17" class="edge">
<title>fa&#45;&gt;d1</title>
<path fill="none" stroke="#ff0000" d="M127.0475,-892.0897C109.8588,-881.1868 84.4966,-864.7807 63,-849.5917 59.1373,-846.8624 55.0998,-843.9011 51.1836,-840.968"/>
<ellipse fill="none" stroke="#ff0000" cx="47.9486" cy="-838.5188" rx="4" ry="4"/>
</g>
<!-- fa&#45;&gt;d2 -->
<g id="edge16" class="edge">
<title>fa&#45;&gt;d2</title>
<path fill="none" stroke="#0000ff" d="M164.9991,-890.9854C183.1439,-877.2689 211.2787,-856.0006 231.4606,-840.7442"/>
<ellipse fill="none" stroke="#0000ff" cx="234.7832" cy="-838.2325" rx="4" ry="4"/>
</g>
<!-- hi_retpb -->
<g id="node13" class="node">
<title>hi_retpb</title>
<ellipse fill="none" stroke="#000000" cx="215" cy="-599" rx="27" ry="18"/>
<text text-anchor="middle" x="215" y="-595.3" font-family="Times,serif" font-size="14.00" fill="#000000">!p</text>
</g>
<!-- c2b&#45;&gt;hi_retpb -->
<g id="edge20" class="edge">
<title>c2b&#45;&gt;hi_retpb</title>
<path fill="none" stroke="#ff0000" d="M111.8572,-797.4554C133.9032,-755.0371 178.7215,-668.8029 201.3201,-625.3212"/>
<polygon fill="#ff0000" stroke="#ff0000" points="204.5407,-626.714 206.0468,-616.2267 198.3295,-623.4858 204.5407,-626.714"/>
<text text-anchor="middle" x="181.5" y="-682.3" font-family="Times,serif" font-size="14.00" fill="#000000">1</text>
</g>
<!-- x2_o2 -->
<g id="node16" class="node">
<title>x2_o2</title>
<ellipse fill="none" stroke="#000000" cx="90" cy="-686" rx="27" ry="18"/>
<text text-anchor="middle" x="90" y="-682.3" font-family="Times,serif" font-size="14.00" fill="#000000">!d</text>
</g>
<!-- c2b&#45;&gt;x2_o2 -->
<g id="edge21" class="edge">
<title>c2b&#45;&gt;x2_o2</title>
<path fill="none" stroke="#0000ff" d="M97.1787,-794.6329C95.6376,-771.3112 93.4373,-738.0161 91.8798,-714.4463"/>
<polygon fill="#0000ff" stroke="#0000ff" points="95.3659,-714.1195 91.2141,-704.3721 88.3812,-714.5812 95.3659,-714.1195"/>
<text text-anchor="middle" x="99.5" y="-745.6979" font-family="Times,serif" font-size="14.00" fill="#000000">1</text>
</g>
<!-- hi_retpa -->
<g id="node12" class="node">
<title>hi_retpa</title>
<ellipse fill="none" stroke="#000000" cx="290" cy="-599" rx="27" ry="18"/>
<text text-anchor="middle" x="290" y="-595.3" font-family="Times,serif" font-size="14.00" fill="#000000">!p</text>
</g>
<!-- c2a&#45;&gt;hi_retpa -->
<g id="edge18" class="edge">
<title>c2a&#45;&gt;hi_retpa</title>
<path fill="none" stroke="#ff0000" d="M226.5224,-741.3159C244.4283,-734.4 266.9228,-722.5631 279,-704 293.8419,-681.1876 295.1673,-649.5143 293.6627,-626.9335"/>
<polygon fill="#ff0000" stroke="#ff0000" points="297.148,-626.6119 292.7773,-616.9606 290.1754,-627.231 297.148,-626.6119"/>
<text text-anchor="middle" x="294.5" y="-682.3" font-family="Times,serif" font-size="14.00" fill="#000000">1</text>
</g>
<!-- x1_o2 -->
<g id="node15" class="node">
<title>x1_o2</title>
<ellipse fill="none" stroke="#000000" cx="131" cy="-512" rx="27" ry="18"/>
<text text-anchor="middle" x="131" y="-508.3" font-family="Times,serif" font-size="14.00" fill="#000000">I</text>
</g>
<!-- c2a&#45;&gt;x1_o2 -->
<g id="edge19" class="edge">
<title>c2a&#45;&gt;x1_o2</title>
<path fill="none" stroke="#0000ff" d="M192.3522,-723.0851C179.1734,-677.7429 152.3138,-585.3313 138.9375,-539.3094"/>
<polygon fill="#0000ff" stroke="#0000ff" points="142.2977,-538.3297 136.1457,-529.7039 135.5758,-540.2834 142.2977,-538.3297"/>
<text text-anchor="middle" x="174.5" y="-638.8" font-family="Times,serif" font-size="14.00" fill="#000000">1</text>
</g>
<!-- d1&#45;&gt;d2 -->
<g id="edge6" class="edge">
<title>d1&#45;&gt;d2</title>
<path fill="none" stroke="#000000" stroke-dasharray="5,2" d="M38.1698,-839.12C46.1818,-849.6284 58.0074,-862.2147 72,-868.0917 126.9089,-891.1541 150.5033,-889.7014 206,-868.0917 221.1528,-862.1914 234.4984,-849.3149 243.582,-838.6981"/>
</g>
<!-- f_ret -->
<g id="node10" class="node">
<title>f_ret</title>
<ellipse fill="none" stroke="#000000" cx="52" cy="-512" rx="27" ry="18"/>
<text text-anchor="middle" x="52" y="-508.3" font-family="Times,serif" font-size="14.00" fill="#000000">I</text>
</g>
<!-- d1&#45;&gt;f_ret -->
<g id="edge9" class="edge">
<title>d1&#45;&gt;f_ret</title>
<path fill="none" stroke="#ff0000" d="M28.4522,-804.1757C32.6204,-752.4566 44.6474,-603.2295 49.7104,-540.409"/>
<polygon fill="#ff0000" stroke="#ff0000" points="53.2291,-540.3167 50.5438,-530.0678 46.2517,-539.7543 53.2291,-540.3167"/>
</g>
<!-- hi_retpc -->
<g id="node11" class="node">
<title>hi_retpc</title>
<ellipse fill="none" stroke="#000000" cx="243" cy="-686" rx="27" ry="18"/>
<text text-anchor="middle" x="243" y="-682.3" font-family="Times,serif" font-size="14.00" fill="#000000">!c</text>
</g>
<!-- d2&#45;&gt;hi_retpc -->
<g id="edge10" class="edge">
<title>d2&#45;&gt;hi_retpc</title>
<path fill="none" stroke="#0000ff" d="M254.2737,-804.1083C252.0786,-781.112 248.2649,-741.1571 245.6877,-714.1575"/>
<polygon fill="#0000ff" stroke="#0000ff" points="249.1679,-713.7824 244.7334,-704.1603 242.1996,-714.4476 249.1679,-713.7824"/>
</g>
<!-- d3 -->
<g id="node8" class="node">
<title>d3</title>
<ellipse fill="none" stroke="#000000" cx="207" cy="-512" rx="27" ry="18"/>
<text text-anchor="middle" x="207" y="-508.3" font-family="Times,serif" font-size="14.00" fill="#000000">Dup</text>
</g>
<!-- d4 -->
<g id="node9" class="node">
<title>d4</title>
<ellipse fill="none" stroke="#000000" cx="297" cy="-512" rx="27" ry="18"/>
<text text-anchor="middle" x="297" y="-508.3" font-family="Times,serif" font-size="14.00" fill="#000000">Dup</text>
</g>
<!-- d3&#45;&gt;d4 -->
<g id="edge7" class="edge">
<title>d3&#45;&gt;d4</title>
<path fill="none" stroke="#000000" stroke-dasharray="5,2" d="M234.0703,-512C246.0335,-512 257.9967,-512 269.9599,-512"/>
</g>
<!-- hi_ret -->
<g id="node18" class="node">
<title>hi_ret</title>
<ellipse fill="none" stroke="#000000" cx="220" cy="-251" rx="27" ry="18"/>
<text text-anchor="middle" x="220" y="-247.3" font-family="Times,serif" font-size="14.00" fill="#000000">I</text>
</g>
<!-- d3&#45;&gt;hi_ret -->
<g id="edge29" class="edge">
<title>d3&#45;&gt;hi_ret</title>
<path fill="none" stroke="#ff0000" d="M207.9141,-493.647C210.1472,-448.8139 215.8928,-333.4607 218.5777,-279.5557"/>
<polygon fill="#ff0000" stroke="#ff0000" points="222.085,-279.4945 219.0869,-269.3327 215.0936,-279.1462 222.085,-279.4945"/>
</g>
<!-- h_di -->
<g id="node19" class="node">
<title>h_di</title>
<ellipse fill="none" stroke="#000000" cx="296" cy="-425" rx="27" ry="18"/>
<text text-anchor="middle" x="296" y="-421.3" font-family="Times,serif" font-size="14.00" fill="#000000">!d</text>
</g>
<!-- d4&#45;&gt;h_di -->
<g id="edge30" class="edge">
<title>d4&#45;&gt;h_di</title>
<path fill="none" stroke="#0000ff" d="M296.7928,-493.9735C296.6574,-482.1918 296.4777,-466.5607 296.3237,-453.1581"/>
<polygon fill="#0000ff" stroke="#0000ff" points="299.8217,-452.9624 296.2069,-443.0034 292.8222,-453.043 299.8217,-452.9624"/>
<text text-anchor="middle" x="299.5" y="-464.8" font-family="Times,serif" font-size="14.00" fill="#000000">1</text>
</g>
<!-- hi_retpc&#45;&gt;hi_retpa -->
<g id="edge11" class="edge">
<title>hi_retpc&#45;&gt;hi_retpa</title>
<path fill="none" stroke="#0000ff" d="M252.2857,-668.8116C259.0449,-656.3 268.317,-639.1366 275.9761,-624.9592"/>
<polygon fill="#0000ff" stroke="#0000ff" points="279.0599,-626.6145 280.7336,-616.1527 272.9011,-623.2873 279.0599,-626.6145"/>
<text text-anchor="middle" x="272.5" y="-638.8" font-family="Times,serif" font-size="14.00" fill="#000000">1</text>
</g>
<!-- hi_retpc&#45;&gt;hi_retpb -->
<g id="edge12" class="edge">
<title>hi_retpc&#45;&gt;hi_retpb</title>
<path fill="none" stroke="#0000ff" d="M237.3338,-668.3943C233.4881,-656.4453 228.3234,-640.3978 223.9293,-626.7446"/>
<polygon fill="#0000ff" stroke="#0000ff" points="227.1493,-625.325 220.7539,-616.8782 220.4859,-627.4696 227.1493,-625.325"/>
<text text-anchor="middle" x="233.5" y="-638.8" font-family="Times,serif" font-size="14.00" fill="#000000">1</text>
</g>
<!-- hi_retpa&#45;&gt;d3 -->
<g id="edge27" class="edge">
<title>hi_retpa&#45;&gt;d3</title>
<path fill="none" stroke="#ff0000" d="M269.661,-586.8664C260.0033,-580.5071 248.7004,-572.1441 240,-563 232.4283,-555.0422 225.5552,-545.1175 220.0656,-536.1438"/>
<ellipse fill="none" stroke="#ff0000" cx="218.0053" cy="-532.6517" rx="4" ry="4"/>
<text text-anchor="middle" x="243.5" y="-551.8" font-family="Times,serif" font-size="14.00" fill="#000000">2</text>
</g>
<!-- hi_retpa&#45;&gt;d4 -->
<g id="edge28" class="edge">
<title>hi_retpa&#45;&gt;d4</title>
<path fill="none" stroke="#0000ff" d="M291.4504,-580.9735C292.4453,-568.6085 293.7813,-552.0036 294.8932,-538.1847"/>
<ellipse fill="none" stroke="#0000ff" cx="295.2306" cy="-533.9905" rx="4" ry="4"/>
<text text-anchor="middle" x="296.5" y="-551.8" font-family="Times,serif" font-size="14.00" fill="#000000">1</text>
</g>
<!-- hi_retpb&#45;&gt;d3 -->
<g id="edge25" class="edge">
<title>hi_retpb&#45;&gt;d3</title>
<path fill="none" stroke="#ff0000" d="M212.2272,-581.0881C211.4115,-575.3244 210.5826,-568.9027 210,-563 209.2859,-555.765 208.7215,-547.9345 208.2842,-540.6316"/>
<polygon fill="#ff0000" stroke="#ff0000" points="211.768,-540.2363 207.7318,-530.4404 204.7783,-540.6153 211.768,-540.2363"/>
<text text-anchor="middle" x="213.5" y="-551.8" font-family="Times,serif" font-size="14.00" fill="#000000">2</text>
</g>
<!-- hi_retpb&#45;&gt;d4 -->
<g id="edge26" class="edge">
<title>hi_retpb&#45;&gt;d4</title>
<path fill="none" stroke="#0000ff" d="M229.66,-583.4461C242.37,-569.9611 260.9366,-550.2623 275.357,-534.9627"/>
<polygon fill="#0000ff" stroke="#0000ff" points="278.1551,-537.0969 282.467,-527.4192 273.0611,-532.2957 278.1551,-537.0969"/>
<text text-anchor="middle" x="263.5" y="-551.8" font-family="Times,serif" font-size="14.00" fill="#000000">1</text>
</g>
<!-- fpa&#45;&gt;fa -->
<g id="edge15" class="edge">
<title>fpa&#45;&gt;fa</title>
<path fill="none" stroke="#ff0000" d="M147,-973.5652C147,-961.7835 147,-946.1524 147,-932.7498"/>
<polygon fill="#ff0000" stroke="#ff0000" points="150.5001,-932.595 147,-922.5951 143.5001,-932.5951 150.5001,-932.595"/>
<text text-anchor="middle" x="150.5" y="-944.3917" font-family="Times,serif" font-size="14.00" fill="#000000">1</text>
</g>
<!-- x2i_o2 -->
<g id="node17" class="node">
<title>x2i_o2</title>
<ellipse fill="none" stroke="#000000" cx="90" cy="-599" rx="27" ry="18"/>
<text text-anchor="middle" x="90" y="-595.3" font-family="Times,serif" font-size="14.00" fill="#000000">PiL</text>
</g>
<!-- x2_o2&#45;&gt;x2i_o2 -->
<g id="edge22" class="edge">
<title>x2_o2&#45;&gt;x2i_o2</title>
<path fill="none" stroke="#0000ff" d="M90,-667.9735C90,-656.1918 90,-640.5607 90,-627.1581"/>
<polygon fill="#0000ff" stroke="#0000ff" points="93.5001,-627.0033 90,-617.0034 86.5001,-627.0034 93.5001,-627.0033"/>
</g>
<!-- x2i_o2&#45;&gt;f_ret -->
<g id="edge24" class="edge">
<title>x2i_o2&#45;&gt;f_ret</title>
<path fill="none" stroke="#0000ff" d="M82.3101,-581.3943C76.9701,-569.1683 69.7559,-552.6517 63.7054,-538.7992"/>
<polygon fill="#0000ff" stroke="#0000ff" points="66.7589,-537.0457 59.5487,-529.2827 60.3441,-539.8476 66.7589,-537.0457"/>
</g>
<!-- x2i_o2&#45;&gt;x1_o2 -->
<g id="edge23" class="edge">
<title>x2i_o2&#45;&gt;x1_o2</title>
<path fill="none" stroke="#ff0000" d="M98.1003,-581.8116C103.9025,-569.4996 111.8275,-552.6831 118.4455,-538.64"/>
<polygon fill="#ff0000" stroke="#ff0000" points="121.6792,-539.9884 122.7762,-529.4505 115.3471,-537.0043 121.6792,-539.9884"/>
</g>
<!-- h -->
<g id="node20" class="node">
<title>h</title>
<ellipse fill="none" stroke="#000000" cx="293" cy="-338" rx="27" ry="18"/>
<text text-anchor="middle" x="293" y="-334.3" font-family="Times,serif" font-size="14.00" fill="#000000">PiL</text>
</g>
<!-- h_di&#45;&gt;h -->
<g id="edge31" class="edge">
<title>h_di&#45;&gt;h</title>
<path fill="none" stroke="#0000ff" d="M295.3784,-406.9735C294.9721,-395.1918 294.4331,-379.5607 293.971,-366.1581"/>
<polygon fill="#0000ff" stroke="#0000ff" points="297.4634,-365.8768 293.6208,-356.0034 290.4676,-366.1181 297.4634,-365.8768"/>
<text text-anchor="middle" x="297.5" y="-377.8" font-family="Times,serif" font-size="14.00" fill="#000000">2</text>
</g>
<!-- h&#45;&gt;hi_ret -->
<g id="edge37" class="edge">
<title>h&#45;&gt;hi_ret</title>
<path fill="none" stroke="#0000ff" d="M279.6107,-322.0429C268.4972,-308.798 252.5277,-289.7659 239.9144,-274.7336"/>
<polygon fill="#0000ff" stroke="#0000ff" points="242.4135,-272.2668 233.3044,-266.856 237.0511,-276.7663 242.4135,-272.2668"/>
</g>
<!-- i -->
<g id="node21" class="node">
<title>i</title>
<ellipse fill="none" stroke="#000000" cx="293" cy="-251" rx="27" ry="18"/>
<text text-anchor="middle" x="293" y="-247.3" font-family="Times,serif" font-size="14.00" fill="#000000">!p</text>
</g>
<!-- h&#45;&gt;i -->
<g id="edge36" class="edge">
<title>h&#45;&gt;i</title>
<path fill="none" stroke="#ff0000" d="M293,-319.9735C293,-308.1918 293,-292.5607 293,-279.1581"/>
<polygon fill="#ff0000" stroke="#ff0000" points="296.5001,-279.0033 293,-269.0034 289.5001,-279.0034 296.5001,-279.0033"/>
<text text-anchor="middle" x="296.5" y="-290.8" font-family="Times,serif" font-size="14.00" fill="#000000">2</text>
</g>
<!-- i_i -->
<g id="node22" class="node">
<title>i_i</title>
<ellipse fill="none" stroke="#000000" cx="293" cy="-164" rx="27" ry="18"/>
<text text-anchor="middle" x="293" y="-160.3" font-family="Times,serif" font-size="14.00" fill="#000000">PiR</text>
</g>
<!-- i&#45;&gt;i_i -->
<g id="edge32" class="edge">
<title>i&#45;&gt;i_i</title>
<path fill="none" stroke="#ff0000" d="M293,-232.9735C293,-221.1918 293,-205.5607 293,-192.1581"/>
<polygon fill="#ff0000" stroke="#ff0000" points="296.5001,-192.0033 293,-182.0034 289.5001,-192.0034 296.5001,-192.0033"/>
<text text-anchor="middle" x="296.5" y="-203.8" font-family="Times,serif" font-size="14.00" fill="#000000">3</text>
</g>
<!-- il -->
<g id="node23" class="node">
<title>il</title>
<ellipse fill="none" stroke="#000000" cx="336" cy="-91" rx="27" ry="18"/>
<text text-anchor="middle" x="336" y="-87.3" font-family="Times,serif" font-size="14.00" fill="#000000">!d</text>
</g>
<!-- i_i&#45;&gt;il -->
<g id="edge33" class="edge">
<title>i_i&#45;&gt;il</title>
<path fill="none" stroke="#0000ff" d="M302.9731,-147.0688C308.2918,-138.0396 314.9465,-126.742 320.8861,-116.6585"/>
<polygon fill="#0000ff" stroke="#0000ff" points="324.0212,-118.232 326.0809,-107.8393 317.9898,-114.6793 324.0212,-118.232"/>
</g>
<!-- i_ret -->
<g id="node24" class="node">
<title>i_ret</title>
<ellipse fill="none" stroke="#000000" cx="293" cy="-18" rx="27" ry="18"/>
<text text-anchor="middle" x="293" y="-14.3" font-family="Times,serif" font-size="14.00" fill="#000000">I</text>
</g>
<!-- i_i&#45;&gt;i_ret -->
<g id="edge34" class="edge">
<title>i_i&#45;&gt;i_ret</title>
<path fill="none" stroke="#ff0000" d="M293,-145.8042C293,-120.8868 293,-75.8938 293,-46.4877"/>
<polygon fill="#ff0000" stroke="#ff0000" points="296.5001,-46.4251 293,-36.4251 289.5001,-46.4251 296.5001,-46.4251"/>
</g>
<!-- il&#45;&gt;i_ret -->
<g id="edge35" class="edge">
<title>il&#45;&gt;i_ret</title>
<path fill="none" stroke="#0000ff" d="M326.0269,-74.0688C320.7082,-65.0396 314.0535,-53.742 308.1139,-43.6585"/>
<polygon fill="#0000ff" stroke="#0000ff" points="311.0102,-41.6793 302.9191,-34.8393 304.9788,-45.232 311.0102,-41.6793"/>
</g>
</g>
</svg>
