<?xml version="1.0" encoding="UTF-8" standalone="no"?>
<!DOCTYPE svg PUBLIC "-//W3C//DTD SVG 1.1//EN"
 "http://www.w3.org/Graphics/SVG/1.1/DTD/svg11.dtd">
<!-- Generated by graphviz version 2.43.0 (0)
 -->
<!-- Title: %3 Pages: 1 -->
<svg width="254pt" height="620pt"
 viewBox="0.00 0.00 254.24 620.00" xmlns="http://www.w3.org/2000/svg" xmlns:xlink="http://www.w3.org/1999/xlink">
<g id="graph0" class="graph" transform="scale(1 1) rotate(0) translate(4 616)">
<title>%3</title>
<polygon fill="white" stroke="transparent" points="-4,4 -4,-616 250.24,-616 250.24,4 -4,4"/>
<!-- r -->
<g id="node1" class="node">
<title>r</title>
<ellipse fill="none" stroke="black" cx="71.5" cy="-594" rx="27" ry="18"/>
<text text-anchor="middle" x="71.5" y="-590.3" font-family="Times,serif" font-size="14.00">r =</text>
</g>
<!-- p -->
<g id="node2" class="node">
<title>p</title>
<ellipse fill="none" stroke="black" cx="71.5" cy="-522" rx="27" ry="18"/>
<text text-anchor="middle" x="71.5" y="-518.3" font-family="Times,serif" font-size="14.00">I</text>
</g>
<!-- r&#45;&gt;p -->
<g id="edge1" class="edge">
<title>r&#45;&gt;p</title>
<path fill="none" stroke="red" d="M71.5,-575.7C71.5,-567.98 71.5,-558.71 71.5,-550.11"/>
<polygon fill="red" stroke="red" points="75,-550.1 71.5,-540.1 68,-550.1 75,-550.1"/>
</g>
<!-- m -->
<g id="node9" class="node">
<title>m</title>
<ellipse fill="none" stroke="black" cx="71.5" cy="-450" rx="27" ry="18"/>
<text text-anchor="middle" x="71.5" y="-446.3" font-family="Times,serif" font-size="14.00">PiL</text>
</g>
<!-- p&#45;&gt;m -->
<g id="edge14" class="edge">
<title>p&#45;&gt;m</title>
<path fill="none" stroke="blue" d="M71.5,-493.67C71.5,-485.05 71.5,-475.79 71.5,-468.1"/>
<polygon fill="blue" stroke="blue" points="68,-493.7 71.5,-503.7 75,-493.7 68,-493.7"/>
</g>
<!-- c1 -->
<g id="node3" class="node">
<title>c1</title>
<ellipse fill="none" stroke="black" cx="34.5" cy="-306" rx="27.1" ry="18"/>
<text text-anchor="middle" x="34.5" y="-302.3" font-family="Times,serif" font-size="14.00">Cut</text>
</g>
<!-- a -->
<g id="node4" class="node">
<title>a</title>
<ellipse fill="none" stroke="black" cx="32.5" cy="-234" rx="27" ry="18"/>
<text text-anchor="middle" x="32.5" y="-230.3" font-family="Times,serif" font-size="14.00">!</text>
</g>
<!-- c1&#45;&gt;a -->
<g id="edge2" class="edge">
<title>c1&#45;&gt;a</title>
<path fill="none" stroke="red" d="M34,-287.7C33.78,-279.98 33.52,-270.71 33.27,-262.11"/>
<polygon fill="red" stroke="red" points="36.77,-262 32.99,-252.1 29.77,-262.2 36.77,-262"/>
</g>
<!-- b -->
<g id="node6" class="node">
<title>b</title>
<ellipse fill="none" stroke="black" cx="32.5" cy="-162" rx="32.49" ry="18"/>
<text text-anchor="middle" x="32.5" y="-158.3" font-family="Times,serif" font-size="14.00">True</text>
</g>
<!-- a&#45;&gt;b -->
<g id="edge4" class="edge">
<title>a&#45;&gt;b</title>
<path fill="none" stroke="red" d="M32.5,-215.7C32.5,-207.98 32.5,-198.71 32.5,-190.11"/>
<polygon fill="red" stroke="red" points="36,-190.1 32.5,-180.1 29,-190.1 36,-190.1"/>
</g>
<!-- n -->
<g id="node5" class="node">
<title>n</title>
<ellipse fill="none" stroke="black" cx="35.5" cy="-378" rx="27" ry="18"/>
<text text-anchor="middle" x="35.5" y="-374.3" font-family="Times,serif" font-size="14.00">I</text>
</g>
<!-- n&#45;&gt;c1 -->
<g id="edge3" class="edge">
<title>n&#45;&gt;c1</title>
<path fill="none" stroke="blue" d="M35.11,-349.67C34.98,-341.05 34.85,-331.79 34.74,-324.1"/>
<polygon fill="blue" stroke="blue" points="31.61,-349.75 35.25,-359.7 38.61,-349.65 31.61,-349.75"/>
</g>
<!-- c2 -->
<g id="node7" class="node">
<title>c2</title>
<ellipse fill="none" stroke="black" cx="108.5" cy="-378" rx="27.1" ry="18"/>
<text text-anchor="middle" x="108.5" y="-374.3" font-family="Times,serif" font-size="14.00">Cut</text>
</g>
<!-- l -->
<g id="node8" class="node">
<title>l</title>
<ellipse fill="none" stroke="black" cx="108.5" cy="-306" rx="27" ry="18"/>
<text text-anchor="middle" x="108.5" y="-302.3" font-family="Times,serif" font-size="14.00">I</text>
</g>
<!-- c2&#45;&gt;l -->
<g id="edge5" class="edge">
<title>c2&#45;&gt;l</title>
<path fill="none" stroke="red" d="M108.5,-359.7C108.5,-351.98 108.5,-342.71 108.5,-334.11"/>
<polygon fill="red" stroke="red" points="112,-334.1 108.5,-324.1 105,-334.1 112,-334.1"/>
</g>
<!-- j -->
<g id="node15" class="node">
<title>j</title>
<ellipse fill="none" stroke="black" cx="109.5" cy="-234" rx="27" ry="18"/>
<text text-anchor="middle" x="109.5" y="-230.3" font-family="Times,serif" font-size="14.00">PiL</text>
</g>
<!-- l&#45;&gt;j -->
<g id="edge12" class="edge">
<title>l&#45;&gt;j</title>
<path fill="none" stroke="blue" d="M108.89,-277.67C109.01,-269.05 109.14,-259.79 109.25,-252.1"/>
<polygon fill="blue" stroke="blue" points="105.39,-277.65 108.74,-287.7 112.39,-277.75 105.39,-277.65"/>
</g>
<!-- m&#45;&gt;n -->
<g id="edge13" class="edge">
<title>m&#45;&gt;n</title>
<path fill="none" stroke="red" d="M63.15,-432.76C58.79,-424.28 53.35,-413.71 48.46,-404.2"/>
<polygon fill="red" stroke="red" points="51.49,-402.44 43.8,-395.15 45.26,-405.64 51.49,-402.44"/>
</g>
<!-- m&#45;&gt;c2 -->
<g id="edge6" class="edge">
<title>m&#45;&gt;c2</title>
<path fill="none" stroke="blue" d="M84.87,-423.7C89.9,-414.18 95.49,-403.61 99.96,-395.15"/>
<polygon fill="blue" stroke="blue" points="81.66,-422.29 80.08,-432.76 87.85,-425.56 81.66,-422.29"/>
</g>
<!-- c3 -->
<g id="node10" class="node">
<title>c3</title>
<ellipse fill="none" stroke="black" cx="103.5" cy="-90" rx="27.1" ry="18"/>
<text text-anchor="middle" x="103.5" y="-86.3" font-family="Times,serif" font-size="14.00">Cut</text>
</g>
<!-- c -->
<g id="node11" class="node">
<title>c</title>
<ellipse fill="none" stroke="black" cx="103.5" cy="-18" rx="35.19" ry="18"/>
<text text-anchor="middle" x="103.5" y="-14.3" font-family="Times,serif" font-size="14.00">False</text>
</g>
<!-- c3&#45;&gt;c -->
<g id="edge7" class="edge">
<title>c3&#45;&gt;c</title>
<path fill="none" stroke="red" d="M103.5,-71.7C103.5,-63.98 103.5,-54.71 103.5,-46.11"/>
<polygon fill="red" stroke="red" points="107,-46.1 103.5,-36.1 100,-46.1 107,-46.1"/>
</g>
<!-- k -->
<g id="node12" class="node">
<title>k</title>
<ellipse fill="none" stroke="black" cx="109.5" cy="-162" rx="27" ry="18"/>
<text text-anchor="middle" x="109.5" y="-158.3" font-family="Times,serif" font-size="14.00">I</text>
</g>
<!-- k&#45;&gt;c3 -->
<g id="edge8" class="edge">
<title>k&#45;&gt;c3</title>
<path fill="none" stroke="blue" d="M107.15,-133.67C106.42,-125.05 105.62,-115.79 104.96,-108.1"/>
<polygon fill="blue" stroke="blue" points="103.67,-134.03 108.01,-143.7 110.65,-133.43 103.67,-134.03"/>
</g>
<!-- c4 -->
<g id="node13" class="node">
<title>c4</title>
<ellipse fill="none" stroke="black" cx="186.5" cy="-162" rx="27.1" ry="18"/>
<text text-anchor="middle" x="186.5" y="-158.3" font-family="Times,serif" font-size="14.00">Cut</text>
</g>
<!-- d2 -->
<g id="node14" class="node">
<title>d2</title>
<ellipse fill="none" stroke="black" cx="197.5" cy="-90" rx="48.99" ry="18"/>
<text text-anchor="middle" x="197.5" y="-86.3" font-family="Times,serif" font-size="14.00">Use and</text>
</g>
<!-- c4&#45;&gt;d2 -->
<g id="edge9" class="edge">
<title>c4&#45;&gt;d2</title>
<path fill="none" stroke="red" d="M189.16,-144.05C190.37,-136.35 191.84,-127.03 193.2,-118.36"/>
<polygon fill="red" stroke="red" points="196.69,-118.7 194.78,-108.28 189.77,-117.61 196.69,-118.7"/>
</g>
<!-- j&#45;&gt;k -->
<g id="edge11" class="edge">
<title>j&#45;&gt;k</title>
<path fill="none" stroke="red" d="M109.5,-215.7C109.5,-207.98 109.5,-198.71 109.5,-190.11"/>
<polygon fill="red" stroke="red" points="113,-190.1 109.5,-180.1 106,-190.1 113,-190.1"/>
</g>
<!-- j&#45;&gt;c4 -->
<g id="edge10" class="edge">
<title>j&#45;&gt;c4</title>
<path fill="none" stroke="blue" d="M132.77,-211.84C145.13,-200.6 159.99,-187.1 170.94,-177.14"/>
<polygon fill="blue" stroke="blue" points="130.12,-209.52 125.08,-218.83 134.83,-214.7 130.12,-209.52"/>
</g>
</g>
</svg>
