<?xml version="1.0" encoding="UTF-8" standalone="no"?>
<!DOCTYPE svg PUBLIC "-//W3C//DTD SVG 1.1//EN"
 "http://www.w3.org/Graphics/SVG/1.1/DTD/svg11.dtd">
<!-- Generated by graphviz version 2.43.0 (0)
 -->
<!-- Title: %3 Pages: 1 -->
<svg width="425pt" height="972pt"
 viewBox="0.00 0.00 425.00 971.60" xmlns="http://www.w3.org/2000/svg" xmlns:xlink="http://www.w3.org/1999/xlink">
<g id="graph0" class="graph" transform="scale(1 1) rotate(0) translate(4 967.6)">
<title>%3</title>
<polygon fill="white" stroke="transparent" points="-4,4 -4,-967.6 421,-967.6 421,4 -4,4"/>
<!-- Root -->
<g id="node1" class="node">
<title>Root</title>
<ellipse fill="none" stroke="black" cx="365" cy="-945.6" rx="32.49" ry="18"/>
<text text-anchor="middle" x="365" y="-941.9" font-family="Times,serif" font-size="14.00">Root</text>
</g>
<!-- c1b -->
<g id="node2" class="node">
<title>c1b</title>
<ellipse fill="none" stroke="black" cx="326" cy="-859.3" rx="27.12" ry="27.12"/>
<ellipse fill="none" stroke="black" cx="326" cy="-859.3" rx="31.1" ry="31.1"/>
<text text-anchor="middle" x="326" y="-855.6" font-family="Times,serif" font-size="14.00">Cut</text>
</g>
<!-- Root&#45;&gt;c1b -->
<g id="edge1" class="edge">
<title>Root&#45;&gt;c1b</title>
<path fill="none" stroke="black" d="M357.29,-927.94C353.24,-919.18 348.1,-908.07 343.16,-897.4"/>
<polygon fill="black" stroke="black" points="346.29,-895.81 338.91,-888.2 339.93,-898.75 346.29,-895.81"/>
</g>
<!-- ret -->
<g id="node5" class="node">
<title>ret</title>
<ellipse fill="none" stroke="black" cx="390" cy="-512" rx="27" ry="18"/>
<text text-anchor="middle" x="390" y="-508.3" font-family="Times,serif" font-size="14.00">I</text>
</g>
<!-- Root&#45;&gt;ret -->
<g id="edge3" class="edge">
<title>Root&#45;&gt;ret</title>
<path fill="none" stroke="red" stroke-width="2" d="M374.66,-928.1C383.43,-911.53 395,-885 395,-860.3 395,-860.3 395,-860.3 395,-598 395,-578.72 393.7,-557.02 392.43,-540.37"/>
<polygon fill="red" stroke="red" stroke-width="2" points="395.9,-539.92 391.61,-530.24 388.93,-540.49 395.9,-539.92"/>
</g>
<!-- fp -->
<g id="node6" class="node">
<title>fp</title>
<ellipse fill="none" stroke="black" cx="230" cy="-759" rx="27" ry="18"/>
<text text-anchor="middle" x="230" y="-755.3" font-family="Times,serif" font-size="14.00">!p</text>
</g>
<!-- c1b&#45;&gt;fp -->
<g id="edge4" class="edge">
<title>c1b&#45;&gt;fp</title>
<path fill="none" stroke="red" d="M304.22,-835.99C288.43,-819.83 267.19,-798.08 251.48,-781.99"/>
<polygon fill="red" stroke="red" points="253.75,-779.31 244.26,-774.6 248.74,-784.2 253.75,-779.31"/>
<text text-anchor="middle" x="283" y="-798.8" font-family="Times,serif" font-size="14.00">0</text>
</g>
<!-- x_o1 -->
<g id="node7" class="node">
<title>x_o1</title>
<ellipse fill="none" stroke="black" cx="326" cy="-759" rx="27" ry="18"/>
<text text-anchor="middle" x="326" y="-755.3" font-family="Times,serif" font-size="14.00">!c</text>
</g>
<!-- c1b&#45;&gt;x_o1 -->
<g id="edge5" class="edge">
<title>c1b&#45;&gt;x_o1</title>
<path fill="none" stroke="blue" d="M326,-827.73C326,-814.83 326,-799.93 326,-787.39"/>
<polygon fill="blue" stroke="blue" points="329.5,-787.09 326,-777.09 322.5,-787.09 329.5,-787.09"/>
</g>
<!-- f -->
<g id="node3" class="node">
<title>f</title>
<ellipse fill="none" stroke="black" cx="204" cy="-672" rx="27" ry="18"/>
<text text-anchor="middle" x="204" y="-668.3" font-family="Times,serif" font-size="14.00">PiR</text>
</g>
<!-- c2b -->
<g id="node4" class="node">
<title>c2b</title>
<ellipse fill="none" stroke="black" cx="180" cy="-599" rx="27.1" ry="18"/>
<text text-anchor="middle" x="180" y="-595.3" font-family="Times,serif" font-size="14.00">Cut</text>
</g>
<!-- f&#45;&gt;c2b -->
<g id="edge2" class="edge">
<title>f&#45;&gt;c2b</title>
<path fill="none" stroke="black" d="M198.31,-654.17C195.5,-645.86 192.05,-635.64 188.9,-626.33"/>
<polygon fill="black" stroke="black" points="192.16,-625.06 185.65,-616.71 185.53,-627.3 192.16,-625.06"/>
</g>
<!-- hi_retp -->
<g id="node11" class="node">
<title>hi_retp</title>
<ellipse fill="none" stroke="black" cx="106" cy="-512" rx="27" ry="18"/>
<text text-anchor="middle" x="106" y="-508.3" font-family="Times,serif" font-size="14.00">!p</text>
</g>
<!-- f&#45;&gt;hi_retp -->
<g id="edge12" class="edge">
<title>f&#45;&gt;hi_retp</title>
<path fill="none" stroke="blue" d="M183.55,-660.18C167.74,-650.79 146.52,-635.77 134,-617 118.57,-593.87 111.62,-562.53 108.5,-540.32"/>
<polygon fill="blue" stroke="blue" points="111.96,-539.72 107.26,-530.22 105.01,-540.57 111.96,-539.72"/>
<text text-anchor="middle" x="139" y="-595.3" font-family="Times,serif" font-size="14.00">1</text>
</g>
<!-- f_ret -->
<g id="node12" class="node">
<title>f_ret</title>
<ellipse fill="none" stroke="black" cx="246" cy="-251" rx="27" ry="18"/>
<text text-anchor="middle" x="246" y="-247.3" font-family="Times,serif" font-size="14.00">I</text>
</g>
<!-- f&#45;&gt;f_ret -->
<g id="edge13" class="edge">
<title>f&#45;&gt;f_ret</title>
<path fill="none" stroke="red" d="M219.04,-656.74C231.44,-643.38 247,-622.19 247,-600 247,-600 247,-600 247,-337 247,-317.75 246.74,-296.05 246.49,-279.4"/>
<polygon fill="red" stroke="red" points="249.98,-279.2 246.32,-269.26 242.98,-279.31 249.98,-279.2"/>
</g>
<!-- c2b&#45;&gt;hi_retp -->
<g id="edge14" class="edge">
<title>c2b&#45;&gt;hi_retp</title>
<path fill="none" stroke="red" d="M166.77,-582.8C155.41,-569.75 138.85,-550.74 125.89,-535.85"/>
<polygon fill="red" stroke="red" points="128.32,-533.31 119.12,-528.06 123.04,-537.91 128.32,-533.31"/>
<text text-anchor="middle" x="153" y="-551.8" font-family="Times,serif" font-size="14.00">1</text>
</g>
<!-- x_o2 -->
<g id="node13" class="node">
<title>x_o2</title>
<ellipse fill="none" stroke="black" cx="180" cy="-512" rx="27" ry="18"/>
<text text-anchor="middle" x="180" y="-508.3" font-family="Times,serif" font-size="14.00">!c</text>
</g>
<!-- c2b&#45;&gt;x_o2 -->
<g id="edge15" class="edge">
<title>c2b&#45;&gt;x_o2</title>
<path fill="none" stroke="blue" d="M180,-580.8C180,-569.16 180,-553.55 180,-540.24"/>
<polygon fill="blue" stroke="blue" points="183.5,-540.18 180,-530.18 176.5,-540.18 183.5,-540.18"/>
<text text-anchor="middle" x="185" y="-551.8" font-family="Times,serif" font-size="14.00">1</text>
</g>
<!-- fp&#45;&gt;f -->
<g id="edge11" class="edge">
<title>fp&#45;&gt;f</title>
<path fill="none" stroke="red" d="M224.86,-741.21C221.23,-729.33 216.29,-713.17 212.12,-699.56"/>
<polygon fill="red" stroke="red" points="215.4,-698.3 209.13,-689.76 208.7,-700.34 215.4,-698.3"/>
<text text-anchor="middle" x="224" y="-711.8" font-family="Times,serif" font-size="14.00">1</text>
</g>
<!-- x1_o1 -->
<g id="node8" class="node">
<title>x1_o1</title>
<ellipse fill="none" stroke="black" cx="308" cy="-512" rx="27" ry="18"/>
<text text-anchor="middle" x="308" y="-508.3" font-family="Times,serif" font-size="14.00">I</text>
</g>
<!-- x_o1&#45;&gt;x1_o1 -->
<g id="edge6" class="edge">
<title>x_o1&#45;&gt;x1_o1</title>
<path fill="none" stroke="blue" d="M319.08,-741.59C313.77,-728.03 306.86,-708.14 304,-690 295.72,-637.54 300.44,-575.25 304.38,-540.31"/>
<polygon fill="blue" stroke="blue" points="307.91,-540.32 305.62,-529.97 300.96,-539.49 307.91,-540.32"/>
</g>
<!-- x2_o1 -->
<g id="node9" class="node">
<title>x2_o1</title>
<ellipse fill="none" stroke="black" cx="340" cy="-672" rx="27" ry="18"/>
<text text-anchor="middle" x="340" y="-668.3" font-family="Times,serif" font-size="14.00">!d</text>
</g>
<!-- x_o1&#45;&gt;x2_o1 -->
<g id="edge7" class="edge">
<title>x_o1&#45;&gt;x2_o1</title>
<path fill="none" stroke="blue" d="M328.83,-740.8C330.75,-729.16 333.32,-713.55 335.51,-700.24"/>
<polygon fill="blue" stroke="blue" points="339,-700.61 337.17,-690.18 332.09,-699.47 339,-700.61"/>
</g>
<!-- x2i_o1 -->
<g id="node10" class="node">
<title>x2i_o1</title>
<ellipse fill="none" stroke="black" cx="340" cy="-599" rx="27" ry="18"/>
<text text-anchor="middle" x="340" y="-595.3" font-family="Times,serif" font-size="14.00">PiL</text>
</g>
<!-- x2_o1&#45;&gt;x2i_o1 -->
<g id="edge8" class="edge">
<title>x2_o1&#45;&gt;x2i_o1</title>
<path fill="none" stroke="blue" d="M340,-653.81C340,-645.79 340,-636.05 340,-627.07"/>
<polygon fill="blue" stroke="blue" points="343.5,-627.03 340,-617.03 336.5,-627.03 343.5,-627.03"/>
</g>
<!-- x2i_o1&#45;&gt;ret -->
<g id="edge10" class="edge">
<title>x2i_o1&#45;&gt;ret</title>
<path fill="none" stroke="blue" d="M349.4,-582.01C356.74,-569.55 367.05,-552.01 375.45,-537.74"/>
<polygon fill="blue" stroke="blue" points="378.58,-539.31 380.64,-528.92 372.55,-535.76 378.58,-539.31"/>
</g>
<!-- x2i_o1&#45;&gt;x1_o1 -->
<g id="edge9" class="edge">
<title>x2i_o1&#45;&gt;x1_o1</title>
<path fill="none" stroke="red" d="M333.68,-581.21C329.16,-569.22 323,-552.85 317.85,-539.16"/>
<polygon fill="red" stroke="red" points="321.11,-537.88 314.31,-529.76 314.56,-540.35 321.11,-537.88"/>
</g>
<!-- hi_ret -->
<g id="node17" class="node">
<title>hi_ret</title>
<ellipse fill="none" stroke="black" cx="27" cy="-251" rx="27" ry="18"/>
<text text-anchor="middle" x="27" y="-247.3" font-family="Times,serif" font-size="14.00">I</text>
</g>
<!-- hi_retp&#45;&gt;hi_ret -->
<g id="edge21" class="edge">
<title>hi_retp&#45;&gt;hi_ret</title>
<path fill="none" stroke="red" d="M89.35,-497.56C75.18,-485.06 55.63,-465.08 46,-443 22.37,-388.78 22.37,-317.94 24.6,-279.58"/>
<polygon fill="red" stroke="red" points="28.11,-279.43 25.3,-269.22 21.13,-278.96 28.11,-279.43"/>
<text text-anchor="middle" x="35" y="-377.8" font-family="Times,serif" font-size="14.00">2</text>
</g>
<!-- h_di -->
<g id="node18" class="node">
<title>h_di</title>
<ellipse fill="none" stroke="black" cx="82" cy="-425" rx="27" ry="18"/>
<text text-anchor="middle" x="82" y="-421.3" font-family="Times,serif" font-size="14.00">!d</text>
</g>
<!-- hi_retp&#45;&gt;h_di -->
<g id="edge22" class="edge">
<title>hi_retp&#45;&gt;h_di</title>
<path fill="none" stroke="blue" d="M101.26,-494.21C97.91,-482.33 93.34,-466.17 89.5,-452.56"/>
<polygon fill="blue" stroke="blue" points="92.82,-451.43 86.73,-442.76 86.08,-453.33 92.82,-451.43"/>
<text text-anchor="middle" x="101" y="-464.8" font-family="Times,serif" font-size="14.00">1</text>
</g>
<!-- x1_o2 -->
<g id="node14" class="node">
<title>x1_o2</title>
<ellipse fill="none" stroke="black" cx="172" cy="-251" rx="27" ry="18"/>
<text text-anchor="middle" x="172" y="-247.3" font-family="Times,serif" font-size="14.00">I</text>
</g>
<!-- x_o2&#45;&gt;x1_o2 -->
<g id="edge16" class="edge">
<title>x_o2&#45;&gt;x1_o2</title>
<path fill="none" stroke="blue" d="M172.46,-494.65C166.66,-481.14 159.13,-461.26 156,-443 146.77,-389.12 149.7,-374.3 156,-320 157.61,-306.16 160.99,-291.06 164.24,-278.6"/>
<polygon fill="blue" stroke="blue" points="167.64,-279.42 166.89,-268.85 160.89,-277.59 167.64,-279.42"/>
</g>
<!-- x2_o2 -->
<g id="node15" class="node">
<title>x2_o2</title>
<ellipse fill="none" stroke="black" cx="192" cy="-425" rx="27" ry="18"/>
<text text-anchor="middle" x="192" y="-421.3" font-family="Times,serif" font-size="14.00">!d</text>
</g>
<!-- x_o2&#45;&gt;x2_o2 -->
<g id="edge17" class="edge">
<title>x_o2&#45;&gt;x2_o2</title>
<path fill="none" stroke="blue" d="M182.43,-493.8C184.07,-482.16 186.28,-466.55 188.15,-453.24"/>
<polygon fill="blue" stroke="blue" points="191.64,-453.57 189.58,-443.18 184.71,-452.59 191.64,-453.57"/>
</g>
<!-- x2i_o2 -->
<g id="node16" class="node">
<title>x2i_o2</title>
<ellipse fill="none" stroke="black" cx="192" cy="-338" rx="27" ry="18"/>
<text text-anchor="middle" x="192" y="-334.3" font-family="Times,serif" font-size="14.00">PiL</text>
</g>
<!-- x2_o2&#45;&gt;x2i_o2 -->
<g id="edge18" class="edge">
<title>x2_o2&#45;&gt;x2i_o2</title>
<path fill="none" stroke="blue" d="M192,-406.8C192,-395.16 192,-379.55 192,-366.24"/>
<polygon fill="blue" stroke="blue" points="195.5,-366.18 192,-356.18 188.5,-366.18 195.5,-366.18"/>
</g>
<!-- x2i_o2&#45;&gt;f_ret -->
<g id="edge20" class="edge">
<title>x2i_o2&#45;&gt;f_ret</title>
<path fill="none" stroke="blue" d="M202.16,-321.01C210.08,-308.55 221.22,-291.01 230.28,-276.74"/>
<polygon fill="blue" stroke="blue" points="233.48,-278.23 235.89,-267.92 227.57,-274.48 233.48,-278.23"/>
</g>
<!-- x2i_o2&#45;&gt;x1_o2 -->
<g id="edge19" class="edge">
<title>x2i_o2&#45;&gt;x1_o2</title>
<path fill="none" stroke="red" d="M187.95,-319.8C185.2,-308.09 181.49,-292.34 178.35,-278.97"/>
<polygon fill="red" stroke="red" points="181.67,-277.82 175.97,-268.89 174.86,-279.42 181.67,-277.82"/>
</g>
<!-- h -->
<g id="node19" class="node">
<title>h</title>
<ellipse fill="none" stroke="black" cx="82" cy="-338" rx="27" ry="18"/>
<text text-anchor="middle" x="82" y="-334.3" font-family="Times,serif" font-size="14.00">PiL</text>
</g>
<!-- h_di&#45;&gt;h -->
<g id="edge23" class="edge">
<title>h_di&#45;&gt;h</title>
<path fill="none" stroke="blue" d="M82,-406.8C82,-395.16 82,-379.55 82,-366.24"/>
<polygon fill="blue" stroke="blue" points="85.5,-366.18 82,-356.18 78.5,-366.18 85.5,-366.18"/>
<text text-anchor="middle" x="87" y="-377.8" font-family="Times,serif" font-size="14.00">2</text>
</g>
<!-- h&#45;&gt;hi_ret -->
<g id="edge29" class="edge">
<title>h&#45;&gt;hi_ret</title>
<path fill="none" stroke="blue" d="M71.65,-321.01C63.51,-308.43 52.03,-290.68 42.74,-276.33"/>
<polygon fill="blue" stroke="blue" points="45.67,-274.41 37.3,-267.92 39.79,-278.21 45.67,-274.41"/>
</g>
<!-- i -->
<g id="node20" class="node">
<title>i</title>
<ellipse fill="none" stroke="black" cx="99" cy="-251" rx="27" ry="18"/>
<text text-anchor="middle" x="99" y="-247.3" font-family="Times,serif" font-size="14.00">!p</text>
</g>
<!-- h&#45;&gt;i -->
<g id="edge28" class="edge">
<title>h&#45;&gt;i</title>
<path fill="none" stroke="red" d="M85.44,-319.8C87.78,-308.09 90.93,-292.34 93.61,-278.97"/>
<polygon fill="red" stroke="red" points="97.09,-279.38 95.62,-268.89 90.23,-278 97.09,-279.38"/>
<text text-anchor="middle" x="97" y="-290.8" font-family="Times,serif" font-size="14.00">2</text>
</g>
<!-- i_i -->
<g id="node21" class="node">
<title>i_i</title>
<ellipse fill="none" stroke="black" cx="99" cy="-164" rx="27" ry="18"/>
<text text-anchor="middle" x="99" y="-160.3" font-family="Times,serif" font-size="14.00">PiR</text>
</g>
<!-- i&#45;&gt;i_i -->
<g id="edge24" class="edge">
<title>i&#45;&gt;i_i</title>
<path fill="none" stroke="red" d="M99,-232.8C99,-221.16 99,-205.55 99,-192.24"/>
<polygon fill="red" stroke="red" points="102.5,-192.18 99,-182.18 95.5,-192.18 102.5,-192.18"/>
<text text-anchor="middle" x="104" y="-203.8" font-family="Times,serif" font-size="14.00">3</text>
</g>
<!-- il -->
<g id="node22" class="node">
<title>il</title>
<ellipse fill="none" stroke="black" cx="142" cy="-91" rx="27" ry="18"/>
<text text-anchor="middle" x="142" y="-87.3" font-family="Times,serif" font-size="14.00">!d</text>
</g>
<!-- i_i&#45;&gt;il -->
<g id="edge25" class="edge">
<title>i_i&#45;&gt;il</title>
<path fill="none" stroke="blue" d="M108.76,-146.89C114.15,-137.99 120.95,-126.75 127,-116.77"/>
<polygon fill="blue" stroke="blue" points="130.09,-118.41 132.28,-108.05 124.11,-114.79 130.09,-118.41"/>
</g>
<!-- i_ret -->
<g id="node23" class="node">
<title>i_ret</title>
<ellipse fill="none" stroke="black" cx="99" cy="-18" rx="27" ry="18"/>
<text text-anchor="middle" x="99" y="-14.3" font-family="Times,serif" font-size="14.00">I</text>
</g>
<!-- i_i&#45;&gt;i_ret -->
<g id="edge26" class="edge">
<title>i_i&#45;&gt;i_ret</title>
<path fill="none" stroke="red" d="M99,-145.92C99,-121.34 99,-75.75 99,-46.43"/>
<polygon fill="red" stroke="red" points="102.5,-46.06 99,-36.06 95.5,-46.06 102.5,-46.06"/>
</g>
<!-- il&#45;&gt;i_ret -->
<g id="edge27" class="edge">
<title>il&#45;&gt;i_ret</title>
<path fill="none" stroke="blue" d="M132.24,-73.89C126.85,-64.99 120.05,-53.75 114,-43.77"/>
<polygon fill="blue" stroke="blue" points="116.89,-41.79 108.72,-35.05 110.91,-45.41 116.89,-41.79"/>
</g>
</g>
</svg>
