<?xml version="1.0" encoding="UTF-8" standalone="no"?>
<!DOCTYPE svg PUBLIC "-//W3C//DTD SVG 1.1//EN"
 "http://www.w3.org/Graphics/SVG/1.1/DTD/svg11.dtd">
<!-- Generated by graphviz version 2.40.1 (20161225.0304)
 -->
<!-- Title: %3 Pages: 1 -->
<svg width="535pt" height="1060pt"
 viewBox="0.00 0.00 534.65 1059.90" xmlns="http://www.w3.org/2000/svg" xmlns:xlink="http://www.w3.org/1999/xlink">
<g id="graph0" class="graph" transform="scale(1 1) rotate(0) translate(4 1055.895)">
<title>%3</title>
<polygon fill="#ffffff" stroke="transparent" points="-4,4 -4,-1055.895 530.6533,-1055.895 530.6533,4 -4,4"/>
<!-- Root -->
<g id="node1" class="node">
<title>Root</title>
<ellipse fill="none" stroke="#000000" cx="55.6533" cy="-498" rx="32.4942" ry="18"/>
<text text-anchor="middle" x="55.6533" y="-494.3" font-family="Times,serif" font-size="14.00" fill="#000000">Root</text>
</g>
<!-- f_retf -->
<g id="node2" class="node">
<title>f_retf</title>
<ellipse fill="none" stroke="#000000" cx="242.6533" cy="-411" rx="27" ry="18"/>
<text text-anchor="middle" x="242.6533" y="-407.3" font-family="Times,serif" font-size="14.00" fill="#000000">I</text>
</g>
<!-- Root&#45;&gt;f_retf -->
<g id="edge1" class="edge">
<title>Root&#45;&gt;f_retf</title>
<path fill="none" stroke="#ff0000" stroke-width="2" d="M58.812,-479.8774C61.7469,-468.6407 67.2986,-454.8895 77.6533,-447 123.6994,-411.9163 151.3697,-446.1705 206.6533,-429 208.5552,-428.4093 210.4798,-427.727 212.3985,-426.9809"/>
<polygon fill="#ff0000" stroke="#ff0000" stroke-width="2" points="214.0623,-430.0729 221.8101,-422.8464 211.2468,-423.664 214.0623,-430.0729"/>
<text text-anchor="middle" x="95.1533" y="-450.8" font-family="Times,serif" font-size="14.00" fill="#000000">0&#45;&gt;1</text>
</g>
<!-- c1a -->
<g id="node3" class="node">
<title>c1a</title>
<ellipse fill="none" stroke="#000000" cx="292.6533" cy="-1019.9475" rx="27.9017" ry="27.9017"/>
<ellipse fill="none" stroke="#000000" cx="292.6533" cy="-1019.9475" rx="31.8951" ry="31.8951"/>
<text text-anchor="middle" x="292.6533" y="-1016.2475" font-family="Times,serif" font-size="14.00" fill="#000000">Cut</text>
</g>
<!-- fp1 -->
<g id="node4" class="node">
<title>fp1</title>
<ellipse fill="none" stroke="#000000" cx="331.6533" cy="-919" rx="27" ry="18"/>
<text text-anchor="middle" x="331.6533" y="-915.3" font-family="Times,serif" font-size="14.00" fill="#000000">!p</text>
</g>
<!-- c1a&#45;&gt;fp1 -->
<g id="edge2" class="edge">
<title>c1a&#45;&gt;fp1</title>
<path fill="none" stroke="#ff0000" d="M304.249,-989.9333C309.6168,-976.0393 315.9464,-959.6557 321.1695,-946.1364"/>
<polygon fill="#ff0000" stroke="#ff0000" points="324.5746,-947.0345 324.9136,-936.4451 318.0449,-944.5118 324.5746,-947.0345"/>
<text text-anchor="middle" x="321.6533" y="-958.8" font-family="Times,serif" font-size="14.00" fill="#000000">0</text>
</g>
<!-- xdicf -->
<g id="node5" class="node">
<title>xdicf</title>
<ellipse fill="none" stroke="#000000" cx="246.6533" cy="-759" rx="27" ry="18"/>
<text text-anchor="middle" x="246.6533" y="-755.3" font-family="Times,serif" font-size="14.00" fill="#000000">!c</text>
</g>
<!-- c1a&#45;&gt;xdicf -->
<g id="edge3" class="edge">
<title>c1a&#45;&gt;xdicf</title>
<path fill="none" stroke="#0000ff" stroke-width="2" d="M287.1046,-988.4712C278.0439,-937.0718 260.2176,-835.9473 251.5785,-786.9392"/>
<polygon fill="#0000ff" stroke="#0000ff" stroke-width="2" points="255.0152,-786.2738 249.8322,-777.0333 248.1215,-787.4891 255.0152,-786.2738"/>
<text text-anchor="middle" x="272.6533" y="-871.8" font-family="Times,serif" font-size="14.00" fill="#000000">1</text>
</g>
<!-- f2 -->
<g id="node20" class="node">
<title>f2</title>
<ellipse fill="none" stroke="#000000" cx="376.6533" cy="-832" rx="27" ry="18"/>
<text text-anchor="middle" x="376.6533" y="-828.3" font-family="Times,serif" font-size="14.00" fill="#000000">PiR</text>
</g>
<!-- fp1&#45;&gt;f2 -->
<g id="edge25" class="edge">
<title>fp1&#45;&gt;f2</title>
<path fill="none" stroke="#ff0000" d="M340.5439,-901.8116C346.9538,-889.4191 355.7241,-872.4631 363.0162,-858.3651"/>
<polygon fill="#ff0000" stroke="#ff0000" points="366.2957,-859.6429 367.7812,-849.1527 360.0782,-856.4269 366.2957,-859.6429"/>
<text text-anchor="middle" x="361.6533" y="-871.8" font-family="Times,serif" font-size="14.00" fill="#000000">1</text>
</g>
<!-- d2a -->
<g id="node6" class="node">
<title>d2a</title>
<ellipse fill="none" stroke="#000000" cx="171.6533" cy="-672" rx="29.795" ry="18"/>
<text text-anchor="middle" x="171.6533" y="-668.3" font-family="Times,serif" font-size="14.00" fill="#000000">Dup</text>
</g>
<!-- xdicf&#45;&gt;d2a -->
<g id="edge4" class="edge">
<title>xdicf&#45;&gt;d2a</title>
<path fill="none" stroke="#0000ff" d="M232.8972,-743.0429C221.5506,-729.8808 205.2771,-711.0036 192.3567,-696.0159"/>
<polygon fill="#0000ff" stroke="#0000ff" points="194.7566,-693.4394 185.5763,-688.1506 189.4547,-698.01 194.7566,-693.4394"/>
</g>
<!-- h_di2f -->
<g id="node7" class="node">
<title>h_di2f</title>
<ellipse fill="none" stroke="#000000" cx="246.6533" cy="-672" rx="27" ry="18"/>
<text text-anchor="middle" x="246.6533" y="-668.3" font-family="Times,serif" font-size="14.00" fill="#000000">!d</text>
</g>
<!-- xdicf&#45;&gt;h_di2f -->
<g id="edge5" class="edge">
<title>xdicf&#45;&gt;h_di2f</title>
<path fill="none" stroke="#0000ff" stroke-width="2" d="M246.6533,-740.9735C246.6533,-729.1918 246.6533,-713.5607 246.6533,-700.1581"/>
<polygon fill="#0000ff" stroke="#0000ff" stroke-width="2" points="250.1534,-700.0033 246.6533,-690.0034 243.1534,-700.0034 250.1534,-700.0033"/>
<text text-anchor="middle" x="251.6533" y="-711.8" font-family="Times,serif" font-size="14.00" fill="#000000">1</text>
</g>
<!-- d2b -->
<g id="node9" class="node">
<title>d2b</title>
<ellipse fill="none" stroke="#000000" cx="317.6533" cy="-498" rx="29.795" ry="18"/>
<text text-anchor="middle" x="317.6533" y="-494.3" font-family="Times,serif" font-size="14.00" fill="#000000">Dup</text>
</g>
<!-- d2a&#45;&gt;d2b -->
<g id="edge18" class="edge">
<title>d2a&#45;&gt;d2b</title>
<path fill="none" stroke="#000000" stroke-dasharray="5,2" d="M194.2635,-659.9945C199.5182,-657.6507 205.1793,-655.4679 210.6533,-654 252.8996,-642.6713 369.075,-658.3821 406.6533,-636 434.3075,-619.5289 446.1303,-594.0297 428.6533,-567 418.0682,-550.6292 405.5434,-558.7353 388.6533,-549 369.7188,-538.0863 349.6208,-523.3138 335.6592,-512.4768"/>
</g>
<!-- d2c -->
<g id="node11" class="node">
<title>d2c</title>
<ellipse fill="none" stroke="#000000" cx="372.6533" cy="-411" rx="29.795" ry="18"/>
<text text-anchor="middle" x="372.6533" y="-407.3" font-family="Times,serif" font-size="14.00" fill="#000000">Dup</text>
</g>
<!-- d2a&#45;&gt;d2c -->
<g id="edge19" class="edge">
<title>d2a&#45;&gt;d2c</title>
<path fill="none" stroke="#000000" stroke-dasharray="5,2" d="M185.4315,-655.5974C201.8519,-633.9359 224.9116,-595.238 206.6533,-567 196.0682,-550.6292 182.6119,-560.197 166.6533,-549 149.9293,-537.2659 142.3261,-534.9344 134.6533,-516 128.6443,-501.1713 128.6443,-494.8287 134.6533,-480 160.1525,-417.0749 211.7864,-440.7727 278.6533,-429 300.5814,-425.1393 325.3083,-420.3885 343.896,-416.7372"/>
</g>
<!-- hi_retpa -->
<g id="node17" class="node">
<title>hi_retpa</title>
<ellipse fill="none" stroke="#000000" cx="170.6533" cy="-585" rx="27" ry="18"/>
<text text-anchor="middle" x="170.6533" y="-581.3" font-family="Times,serif" font-size="14.00" fill="#000000">!p</text>
</g>
<!-- d2a&#45;&gt;hi_retpa -->
<g id="edge20" class="edge">
<title>d2a&#45;&gt;hi_retpa</title>
<path fill="none" stroke="#0000ff" d="M171.4461,-653.9735C171.3107,-642.1918 171.131,-626.5607 170.977,-613.1581"/>
<polygon fill="#0000ff" stroke="#0000ff" points="174.4751,-612.9624 170.8603,-603.0034 167.4755,-613.043 174.4751,-612.9624"/>
<text text-anchor="middle" x="176.6533" y="-624.8" font-family="Times,serif" font-size="14.00" fill="#000000">1</text>
</g>
<!-- hbf -->
<g id="node8" class="node">
<title>hbf</title>
<ellipse fill="none" stroke="#000000" cx="280.6533" cy="-585" rx="27" ry="18"/>
<text text-anchor="middle" x="280.6533" y="-581.3" font-family="Times,serif" font-size="14.00" fill="#000000">PiL</text>
</g>
<!-- h_di2f&#45;&gt;hbf -->
<g id="edge6" class="edge">
<title>h_di2f&#45;&gt;hbf</title>
<path fill="none" stroke="#0000ff" stroke-width="2" d="M253.5337,-654.3943C258.2805,-642.2482 264.6821,-625.8674 270.0738,-612.0711"/>
<polygon fill="#0000ff" stroke="#0000ff" stroke-width="2" points="273.403,-613.1676 273.7831,-602.5796 266.8832,-610.6196 273.403,-613.1676"/>
<text text-anchor="middle" x="270.6533" y="-624.8" font-family="Times,serif" font-size="14.00" fill="#000000">2</text>
</g>
<!-- hbf&#45;&gt;d2b -->
<g id="edge7" class="edge">
<title>hbf&#45;&gt;d2b</title>
<path fill="none" stroke="#ff0000" d="M288.1408,-567.3943C293.3064,-555.2482 300.2729,-538.8674 306.1403,-525.0711"/>
<polygon fill="#ff0000" stroke="#ff0000" points="309.4841,-526.1517 310.177,-515.5796 303.0424,-523.4121 309.4841,-526.1517"/>
</g>
<!-- x2i_o2f -->
<g id="node10" class="node">
<title>x2i_o2f</title>
<ellipse fill="none" stroke="#000000" cx="242.6533" cy="-498" rx="27" ry="18"/>
<text text-anchor="middle" x="242.6533" y="-494.3" font-family="Times,serif" font-size="14.00" fill="#000000">PiL</text>
</g>
<!-- hbf&#45;&gt;x2i_o2f -->
<g id="edge8" class="edge">
<title>hbf&#45;&gt;x2i_o2f</title>
<path fill="none" stroke="#0000ff" stroke-width="2" d="M268.864,-568.7074C264.9087,-562.7196 260.7268,-555.7499 257.6533,-549 254.3026,-541.6413 251.4885,-533.3463 249.2362,-525.6176"/>
<polygon fill="#0000ff" stroke="#0000ff" stroke-width="2" points="252.5986,-524.644 246.601,-515.9102 245.8431,-526.4779 252.5986,-524.644"/>
<text text-anchor="middle" x="275.1533" y="-537.8" font-family="Times,serif" font-size="14.00" fill="#000000">2&#45;&gt;1</text>
</g>
<!-- d4b -->
<g id="node18" class="node">
<title>d4b</title>
<ellipse fill="none" stroke="#000000" cx="308.6533" cy="-338" rx="29.795" ry="18"/>
<text text-anchor="middle" x="308.6533" y="-334.3" font-family="Times,serif" font-size="14.00" fill="#000000">Dup</text>
</g>
<!-- d2b&#45;&gt;d4b -->
<g id="edge21" class="edge">
<title>d2b&#45;&gt;d4b</title>
<path fill="none" stroke="#ff0000" d="M316.6384,-479.957C315.0517,-451.7485 311.9754,-397.0594 310.139,-364.4121"/>
<ellipse fill="none" stroke="#ff0000" cx="309.903" cy="-360.2163" rx="4" ry="4"/>
</g>
<!-- x2i_o2f&#45;&gt;f_retf -->
<g id="edge10" class="edge">
<title>x2i_o2f&#45;&gt;f_retf</title>
<path fill="none" stroke="#0000ff" stroke-width="2" d="M242.6533,-479.9735C242.6533,-468.1918 242.6533,-452.5607 242.6533,-439.1581"/>
<polygon fill="#0000ff" stroke="#0000ff" stroke-width="2" points="246.1534,-439.0033 242.6533,-429.0034 239.1534,-439.0034 246.1534,-439.0033"/>
</g>
<!-- x2i_o2f&#45;&gt;d2c -->
<g id="edge9" class="edge">
<title>x2i_o2f&#45;&gt;d2c</title>
<path fill="none" stroke="#ff0000" d="M261.8353,-485.1629C283.5689,-470.618 319.2075,-446.7676 344.1864,-430.051"/>
<polygon fill="#ff0000" stroke="#ff0000" points="346.1728,-432.9331 352.5369,-424.4626 342.2796,-427.1156 346.1728,-432.9331"/>
</g>
<!-- x1_o2 -->
<g id="node19" class="node">
<title>x1_o2</title>
<ellipse fill="none" stroke="#000000" cx="383.6533" cy="-338" rx="27" ry="18"/>
<text text-anchor="middle" x="383.6533" y="-334.3" font-family="Times,serif" font-size="14.00" fill="#000000">I</text>
</g>
<!-- d2c&#45;&gt;x1_o2 -->
<g id="edge22" class="edge">
<title>d2c&#45;&gt;x1_o2</title>
<path fill="none" stroke="#ff0000" d="M375.3724,-392.9551C376.5888,-384.8828 378.0514,-375.1764 379.4068,-366.1817"/>
<polygon fill="#ff0000" stroke="#ff0000" points="382.8982,-366.5003 380.9274,-356.0904 375.9763,-365.4572 382.8982,-366.5003"/>
</g>
<!-- xdicg -->
<g id="node12" class="node">
<title>xdicg</title>
<ellipse fill="none" stroke="#000000" cx="376.6533" cy="-759" rx="27" ry="18"/>
<text text-anchor="middle" x="376.6533" y="-755.3" font-family="Times,serif" font-size="14.00" fill="#000000">!c</text>
</g>
<!-- xdicg&#45;&gt;d2a -->
<g id="edge11" class="edge">
<title>xdicg&#45;&gt;d2a</title>
<path fill="none" stroke="#0000ff" d="M354.1755,-748.5689C330.9474,-737.9195 293.5471,-721.1339 260.6533,-708 238.7188,-699.2419 232.5073,-698.9572 210.6533,-690 208.1693,-688.9819 205.6126,-687.8941 203.0529,-686.7765"/>
<ellipse fill="none" stroke="#0000ff" cx="199.0864" cy="-685.0049" rx="4" ry="4"/>
</g>
<!-- h_di2g -->
<g id="node13" class="node">
<title>h_di2g</title>
<ellipse fill="none" stroke="#000000" cx="392.6533" cy="-672" rx="27" ry="18"/>
<text text-anchor="middle" x="392.6533" y="-668.3" font-family="Times,serif" font-size="14.00" fill="#000000">!d</text>
</g>
<!-- xdicg&#45;&gt;h_di2g -->
<g id="edge12" class="edge">
<title>xdicg&#45;&gt;h_di2g</title>
<path fill="none" stroke="#0000ff" d="M379.9685,-740.9735C382.1353,-729.1918 385.01,-713.5607 387.4748,-700.1581"/>
<polygon fill="#0000ff" stroke="#0000ff" points="390.9758,-700.4715 389.3424,-690.0034 384.0913,-699.2053 390.9758,-700.4715"/>
<text text-anchor="middle" x="389.6533" y="-711.8" font-family="Times,serif" font-size="14.00" fill="#000000">1</text>
</g>
<!-- hbg -->
<g id="node14" class="node">
<title>hbg</title>
<ellipse fill="none" stroke="#000000" cx="392.6533" cy="-585" rx="27" ry="18"/>
<text text-anchor="middle" x="392.6533" y="-581.3" font-family="Times,serif" font-size="14.00" fill="#000000">PiL</text>
</g>
<!-- h_di2g&#45;&gt;hbg -->
<g id="edge13" class="edge">
<title>h_di2g&#45;&gt;hbg</title>
<path fill="none" stroke="#0000ff" d="M392.6533,-653.9735C392.6533,-642.1918 392.6533,-626.5607 392.6533,-613.1581"/>
<polygon fill="#0000ff" stroke="#0000ff" points="396.1534,-613.0033 392.6533,-603.0034 389.1534,-613.0034 396.1534,-613.0033"/>
<text text-anchor="middle" x="397.6533" y="-624.8" font-family="Times,serif" font-size="14.00" fill="#000000">2</text>
</g>
<!-- hbg&#45;&gt;d2b -->
<g id="edge14" class="edge">
<title>hbg&#45;&gt;d2b</title>
<path fill="none" stroke="#ff0000" d="M371.8319,-572.8485C362.3862,-566.5978 351.5821,-558.3314 343.6533,-549 337.1829,-541.385 331.7844,-531.8844 327.6139,-523.1541"/>
<ellipse fill="none" stroke="#ff0000" cx="325.9152" cy="-519.3926" rx="4" ry="4"/>
</g>
<!-- x2i_o2g -->
<g id="node15" class="node">
<title>x2i_o2g</title>
<ellipse fill="none" stroke="#000000" cx="392.6533" cy="-498" rx="27" ry="18"/>
<text text-anchor="middle" x="392.6533" y="-494.3" font-family="Times,serif" font-size="14.00" fill="#000000">PiL</text>
</g>
<!-- hbg&#45;&gt;x2i_o2g -->
<g id="edge15" class="edge">
<title>hbg&#45;&gt;x2i_o2g</title>
<path fill="none" stroke="#0000ff" d="M392.6533,-566.9735C392.6533,-555.1918 392.6533,-539.5607 392.6533,-526.1581"/>
<polygon fill="#0000ff" stroke="#0000ff" points="396.1534,-526.0033 392.6533,-516.0034 389.1534,-526.0034 396.1534,-526.0033"/>
<text text-anchor="middle" x="410.1533" y="-537.8" font-family="Times,serif" font-size="14.00" fill="#000000">2&#45;&gt;1</text>
</g>
<!-- x2i_o2g&#45;&gt;d2c -->
<g id="edge16" class="edge">
<title>x2i_o2g&#45;&gt;d2c</title>
<path fill="none" stroke="#ff0000" d="M388.5093,-479.9735C385.6668,-467.6085 381.8496,-451.0036 378.6728,-437.1847"/>
<ellipse fill="none" stroke="#ff0000" cx="377.6882" cy="-432.9017" rx="4" ry="4"/>
</g>
<!-- f_retg -->
<g id="node16" class="node">
<title>f_retg</title>
<ellipse fill="none" stroke="#000000" cx="447.6533" cy="-411" rx="27" ry="18"/>
<text text-anchor="middle" x="447.6533" y="-407.3" font-family="Times,serif" font-size="14.00" fill="#000000">I</text>
</g>
<!-- x2i_o2g&#45;&gt;f_retg -->
<g id="edge17" class="edge">
<title>x2i_o2g&#45;&gt;f_retg</title>
<path fill="none" stroke="#0000ff" d="M403.2579,-481.2255C411.3232,-468.4677 422.5541,-450.7024 431.7018,-436.2325"/>
<polygon fill="#0000ff" stroke="#0000ff" points="434.6961,-438.0458 437.0813,-427.723 428.7793,-434.3053 434.6961,-438.0458"/>
</g>
<!-- hi_ret1 -->
<g id="node21" class="node">
<title>hi_ret1</title>
<ellipse fill="none" stroke="#000000" cx="39.6533" cy="-338" rx="27" ry="18"/>
<text text-anchor="middle" x="39.6533" y="-334.3" font-family="Times,serif" font-size="14.00" fill="#000000">I</text>
</g>
<!-- hi_retpa&#45;&gt;hi_ret1 -->
<g id="edge32" class="edge">
<title>hi_retpa&#45;&gt;hi_ret1</title>
<path fill="none" stroke="#ff0000" d="M143.7349,-581.9409C107.2406,-576.1867 43.3363,-560.0501 14.6533,-516 -15.7493,-469.309 8.4168,-401.1629 25.8232,-364.2007"/>
<polygon fill="#ff0000" stroke="#ff0000" points="29.0362,-365.5975 30.2839,-355.0764 22.7475,-362.523 29.0362,-365.5975"/>
<text text-anchor="middle" x="6.6533" y="-450.8" font-family="Times,serif" font-size="14.00" fill="#000000">2</text>
</g>
<!-- h_di1 -->
<g id="node24" class="node">
<title>h_di1</title>
<ellipse fill="none" stroke="#000000" cx="170.6533" cy="-498" rx="27" ry="18"/>
<text text-anchor="middle" x="170.6533" y="-494.3" font-family="Times,serif" font-size="14.00" fill="#000000">!d</text>
</g>
<!-- hi_retpa&#45;&gt;h_di1 -->
<g id="edge33" class="edge">
<title>hi_retpa&#45;&gt;h_di1</title>
<path fill="none" stroke="#0000ff" d="M170.6533,-566.9735C170.6533,-555.1918 170.6533,-539.5607 170.6533,-526.1581"/>
<polygon fill="#0000ff" stroke="#0000ff" points="174.1534,-526.0033 170.6533,-516.0034 167.1534,-526.0034 174.1534,-526.0033"/>
<text text-anchor="middle" x="175.6533" y="-537.8" font-family="Times,serif" font-size="14.00" fill="#000000">1</text>
</g>
<!-- h_app -->
<g id="node22" class="node">
<title>h_app</title>
<ellipse fill="none" stroke="#000000" cx="365.6533" cy="-251" rx="27" ry="18"/>
<text text-anchor="middle" x="365.6533" y="-247.3" font-family="Times,serif" font-size="14.00" fill="#000000">I</text>
</g>
<!-- d4b&#45;&gt;h_app -->
<g id="edge26" class="edge">
<title>d4b&#45;&gt;h_app</title>
<path fill="none" stroke="#ff0000" d="M319.6435,-321.2255C328.0021,-308.4677 339.6414,-290.7024 349.1217,-276.2325"/>
<polygon fill="#ff0000" stroke="#ff0000" points="352.1442,-278.0057 354.6969,-267.723 346.289,-274.1695 352.1442,-278.0057"/>
</g>
<!-- f2&#45;&gt;xdicg -->
<g id="edge24" class="edge">
<title>f2&#45;&gt;xdicg</title>
<path fill="none" stroke="#0000ff" d="M376.6533,-813.9551C376.6533,-805.8828 376.6533,-796.1764 376.6533,-787.1817"/>
<polygon fill="#0000ff" stroke="#0000ff" points="380.1534,-787.0903 376.6533,-777.0904 373.1534,-787.0904 380.1534,-787.0903"/>
</g>
<!-- f2&#45;&gt;f_retg -->
<g id="edge23" class="edge">
<title>f2&#45;&gt;f_retg</title>
<path fill="none" stroke="#ff0000" d="M398.729,-821.0618C419.5712,-808.9987 447.6533,-787.4638 447.6533,-759 447.6533,-759 447.6533,-759 447.6533,-498 447.6533,-478.5475 447.6533,-456.6484 447.6533,-439.6877"/>
<polygon fill="#ff0000" stroke="#ff0000" points="451.1534,-439.3305 447.6533,-429.3306 444.1534,-439.3306 451.1534,-439.3305"/>
</g>
<!-- ha -->
<g id="node23" class="node">
<title>ha</title>
<ellipse fill="none" stroke="#000000" cx="170.6533" cy="-411" rx="27" ry="18"/>
<text text-anchor="middle" x="170.6533" y="-407.3" font-family="Times,serif" font-size="14.00" fill="#000000">PiL</text>
</g>
<!-- ha&#45;&gt;d4b -->
<g id="edge27" class="edge">
<title>ha&#45;&gt;d4b</title>
<path fill="none" stroke="#ff0000" d="M191.9134,-399.7537C214.5384,-387.7854 250.5953,-368.7118 276.6541,-354.9271"/>
<polygon fill="#ff0000" stroke="#ff0000" points="278.5561,-357.8806 285.759,-350.1108 275.2829,-351.693 278.5561,-357.8806"/>
</g>
<!-- ha&#45;&gt;hi_ret1 -->
<g id="edge28" class="edge">
<title>ha&#45;&gt;hi_ret1</title>
<path fill="none" stroke="#0000ff" d="M149.896,-399.4329C128.2732,-387.3836 94.1893,-368.3903 69.6424,-354.7115"/>
<polygon fill="#0000ff" stroke="#0000ff" points="71.1864,-351.5651 60.7473,-349.7547 67.7789,-357.6798 71.1864,-351.5651"/>
</g>
<!-- h_di1&#45;&gt;ha -->
<g id="edge29" class="edge">
<title>h_di1&#45;&gt;ha</title>
<path fill="none" stroke="#0000ff" d="M170.6533,-479.9735C170.6533,-468.1918 170.6533,-452.5607 170.6533,-439.1581"/>
<polygon fill="#0000ff" stroke="#0000ff" points="174.1534,-439.0033 170.6533,-429.0034 167.1534,-439.0034 174.1534,-439.0033"/>
<text text-anchor="middle" x="175.6533" y="-450.8" font-family="Times,serif" font-size="14.00" fill="#000000">2</text>
</g>
<!-- c2a -->
<g id="node25" class="node">
<title>c2a</title>
<ellipse fill="none" stroke="#000000" cx="319.6533" cy="-672" rx="27.8951" ry="18"/>
<text text-anchor="middle" x="319.6533" y="-668.3" font-family="Times,serif" font-size="14.00" fill="#000000">Cut</text>
</g>
<!-- c2a&#45;&gt;hi_retpa -->
<g id="edge30" class="edge">
<title>c2a&#45;&gt;hi_retpa</title>
<path fill="none" stroke="#ff0000" d="M309.7808,-654.6859C302.6827,-643.6401 292.1763,-629.7963 279.6533,-621 267.5787,-612.5186 233.0018,-601.8037 205.9955,-594.2771"/>
<polygon fill="#ff0000" stroke="#ff0000" points="206.6478,-590.8269 196.0784,-591.5598 204.798,-597.5781 206.6478,-590.8269"/>
<text text-anchor="middle" x="299.6533" y="-624.8" font-family="Times,serif" font-size="14.00" fill="#000000">1</text>
</g>
<!-- c2a&#45;&gt;x1_o2 -->
<g id="edge31" class="edge">
<title>c2a&#45;&gt;x1_o2</title>
<path fill="none" stroke="#0000ff" d="M341.2352,-660.5577C346.2135,-658.1847 351.5484,-655.8476 356.6533,-654 432.1675,-626.6689 523.6533,-665.308 523.6533,-585 523.6533,-585 523.6533,-585 523.6533,-411 523.6533,-409.4702 455.5204,-374.5484 414.3154,-353.5684"/>
<polygon fill="#0000ff" stroke="#0000ff" points="415.7214,-350.3569 405.2215,-348.9419 412.5473,-356.5959 415.7214,-350.3569"/>
</g>
<!-- c3 -->
<g id="node26" class="node">
<title>c3</title>
<ellipse fill="none" stroke="#000000" cx="456.6533" cy="-338" rx="27.8951" ry="18"/>
<text text-anchor="middle" x="456.6533" y="-334.3" font-family="Times,serif" font-size="14.00" fill="#000000">Cut</text>
</g>
<!-- c3&#45;&gt;h_app -->
<g id="edge35" class="edge">
<title>c3&#45;&gt;h_app</title>
<path fill="none" stroke="#0000ff" d="M440.8023,-322.8458C426.4487,-309.123 405.1225,-288.7342 388.8515,-273.1784"/>
<polygon fill="#0000ff" stroke="#0000ff" points="390.9695,-270.3612 381.3227,-265.9806 386.1322,-275.4209 390.9695,-270.3612"/>
</g>
<!-- i -->
<g id="node27" class="node">
<title>i</title>
<ellipse fill="none" stroke="#000000" cx="456.6533" cy="-251" rx="27" ry="18"/>
<text text-anchor="middle" x="456.6533" y="-247.3" font-family="Times,serif" font-size="14.00" fill="#000000">!p</text>
</g>
<!-- c3&#45;&gt;i -->
<g id="edge34" class="edge">
<title>c3&#45;&gt;i</title>
<path fill="none" stroke="#ff0000" d="M456.6533,-319.9735C456.6533,-308.1918 456.6533,-292.5607 456.6533,-279.1581"/>
<polygon fill="#ff0000" stroke="#ff0000" points="460.1534,-279.0033 456.6533,-269.0034 453.1534,-279.0034 460.1534,-279.0033"/>
<text text-anchor="middle" x="461.6533" y="-290.8" font-family="Times,serif" font-size="14.00" fill="#000000">2</text>
</g>
<!-- i_i -->
<g id="node28" class="node">
<title>i_i</title>
<ellipse fill="none" stroke="#000000" cx="456.6533" cy="-164" rx="27" ry="18"/>
<text text-anchor="middle" x="456.6533" y="-160.3" font-family="Times,serif" font-size="14.00" fill="#000000">PiR</text>
</g>
<!-- i&#45;&gt;i_i -->
<g id="edge36" class="edge">
<title>i&#45;&gt;i_i</title>
<path fill="none" stroke="#ff0000" d="M456.6533,-232.9735C456.6533,-221.1918 456.6533,-205.5607 456.6533,-192.1581"/>
<polygon fill="#ff0000" stroke="#ff0000" points="460.1534,-192.0033 456.6533,-182.0034 453.1534,-192.0034 460.1534,-192.0033"/>
<text text-anchor="middle" x="461.6533" y="-203.8" font-family="Times,serif" font-size="14.00" fill="#000000">3</text>
</g>
<!-- il -->
<g id="node29" class="node">
<title>il</title>
<ellipse fill="none" stroke="#000000" cx="499.6533" cy="-91" rx="27" ry="18"/>
<text text-anchor="middle" x="499.6533" y="-87.3" font-family="Times,serif" font-size="14.00" fill="#000000">!d</text>
</g>
<!-- i_i&#45;&gt;il -->
<g id="edge37" class="edge">
<title>i_i&#45;&gt;il</title>
<path fill="none" stroke="#0000ff" d="M466.6265,-147.0688C471.9451,-138.0396 478.5998,-126.742 484.5394,-116.6585"/>
<polygon fill="#0000ff" stroke="#0000ff" points="487.6746,-118.232 489.7343,-107.8393 481.6431,-114.6793 487.6746,-118.232"/>
</g>
<!-- i_ret -->
<g id="node30" class="node">
<title>i_ret</title>
<ellipse fill="none" stroke="#000000" cx="456.6533" cy="-18" rx="27" ry="18"/>
<text text-anchor="middle" x="456.6533" y="-14.3" font-family="Times,serif" font-size="14.00" fill="#000000">I</text>
</g>
<!-- i_i&#45;&gt;i_ret -->
<g id="edge38" class="edge">
<title>i_i&#45;&gt;i_ret</title>
<path fill="none" stroke="#ff0000" d="M456.6533,-145.8042C456.6533,-120.8868 456.6533,-75.8938 456.6533,-46.4877"/>
<polygon fill="#ff0000" stroke="#ff0000" points="460.1534,-46.4251 456.6533,-36.4251 453.1534,-46.4251 460.1534,-46.4251"/>
</g>
<!-- il&#45;&gt;i_ret -->
<g id="edge39" class="edge">
<title>il&#45;&gt;i_ret</title>
<path fill="none" stroke="#0000ff" d="M489.6802,-74.0688C484.3616,-65.0396 477.7068,-53.742 471.7672,-43.6585"/>
<polygon fill="#0000ff" stroke="#0000ff" points="474.6635,-41.6793 466.5724,-34.8393 468.6321,-45.232 474.6635,-41.6793"/>
</g>
</g>
</svg>
