<?xml version="1.0" encoding="UTF-8" standalone="no"?>
<!DOCTYPE svg PUBLIC "-//W3C//DTD SVG 1.1//EN"
 "http://www.w3.org/Graphics/SVG/1.1/DTD/svg11.dtd">
<!-- Generated by graphviz version 2.40.1 (20161225.0304)
 -->
<!-- Title: %3 Pages: 1 -->
<svg width="395pt" height="905pt"
 viewBox="0.00 0.00 394.95 904.80" xmlns="http://www.w3.org/2000/svg" xmlns:xlink="http://www.w3.org/1999/xlink">
<g id="graph0" class="graph" transform="scale(1 1) rotate(0) translate(4 900.7958)">
<title>%3</title>
<polygon fill="#ffffff" stroke="transparent" points="-4,4 -4,-900.7958 390.9475,-900.7958 390.9475,4 -4,4"/>
<!-- Root -->
<g id="node1" class="node">
<title>Root</title>
<ellipse fill="none" stroke="#000000" cx="27.9475" cy="-704.7958" rx="27.8951" ry="18"/>
<text text-anchor="middle" x="27.9475" y="-701.0958" font-family="Times,serif" font-size="14.00" fill="#000000">Root</text>
</g>
<!-- d1 -->
<g id="node2" class="node">
<title>d1</title>
<ellipse fill="none" stroke="#000000" cx="31.9475" cy="-608.3979" rx="27" ry="18"/>
<text text-anchor="middle" x="31.9475" y="-604.6979" font-family="Times,serif" font-size="14.00" fill="#000000">Dup</text>
</g>
<!-- Root&#45;&gt;d1 -->
<g id="edge1" class="edge">
<title>Root&#45;&gt;d1</title>
<path fill="none" stroke="#ff0000" stroke-width="2" d="M28.6999,-686.6641C29.2865,-672.5265 30.1116,-652.6426 30.7833,-636.4548"/>
<polygon fill="#ff0000" stroke="#ff0000" stroke-width="2" points="34.2808,-636.5849 31.1985,-626.4483 27.2868,-636.2946 34.2808,-636.5849"/>
<text text-anchor="middle" x="43.4475" y="-657.5958" font-family="Times,serif" font-size="14.00" fill="#000000">0&#45;&gt;1</text>
</g>
<!-- d2 -->
<g id="node6" class="node">
<title>d2</title>
<ellipse fill="none" stroke="#000000" cx="121.9475" cy="-608.3979" rx="27" ry="18"/>
<text text-anchor="middle" x="121.9475" y="-604.6979" font-family="Times,serif" font-size="14.00" fill="#000000">Dup</text>
</g>
<!-- d1&#45;&gt;d2 -->
<g id="edge4" class="edge">
<title>d1&#45;&gt;d2</title>
<path fill="none" stroke="#000000" stroke-dasharray="5,2" d="M59.0178,-608.3979C70.981,-608.3979 82.9442,-608.3979 94.9074,-608.3979"/>
</g>
<!-- f_ret -->
<g id="node7" class="node">
<title>f_ret</title>
<ellipse fill="none" stroke="#000000" cx="95.9475" cy="-512" rx="27" ry="18"/>
<text text-anchor="middle" x="95.9475" y="-508.3" font-family="Times,serif" font-size="14.00" fill="#000000">I</text>
</g>
<!-- d1&#45;&gt;f_ret -->
<g id="edge5" class="edge">
<title>d1&#45;&gt;f_ret</title>
<path fill="none" stroke="#ff0000" stroke-width="2" d="M43.0955,-591.6067C53.0986,-576.5398 67.9167,-554.2205 79.3194,-537.0456"/>
<polygon fill="#ff0000" stroke="#ff0000" stroke-width="2" points="82.312,-538.8658 84.9273,-528.5988 76.4803,-534.994 82.312,-538.8658"/>
</g>
<!-- c1a -->
<g id="node3" class="node">
<title>c1a</title>
<ellipse fill="none" stroke="#000000" cx="102.9475" cy="-878.7958" rx="27" ry="18"/>
<text text-anchor="middle" x="102.9475" y="-875.0958" font-family="Times,serif" font-size="14.00" fill="#000000">Cut</text>
</g>
<!-- fp1 -->
<g id="node4" class="node">
<title>fp1</title>
<ellipse fill="none" stroke="#000000" cx="75.9475" cy="-791.7958" rx="27" ry="18"/>
<text text-anchor="middle" x="75.9475" y="-788.0958" font-family="Times,serif" font-size="14.00" fill="#000000">!p</text>
</g>
<!-- c1a&#45;&gt;fp1 -->
<g id="edge2" class="edge">
<title>c1a&#45;&gt;fp1</title>
<path fill="none" stroke="#ff0000" d="M97.3531,-860.7694C93.6359,-848.7916 88.6839,-832.8354 84.4793,-819.287"/>
<polygon fill="#ff0000" stroke="#ff0000" points="87.7492,-818.0148 81.4424,-809.5015 81.0637,-820.0896 87.7492,-818.0148"/>
<text text-anchor="middle" x="94.4475" y="-831.5958" font-family="Times,serif" font-size="14.00" fill="#000000">0</text>
</g>
<!-- x1_o1 -->
<g id="node5" class="node">
<title>x1_o1</title>
<ellipse fill="none" stroke="#000000" cx="147.9475" cy="-791.7958" rx="27" ry="18"/>
<text text-anchor="middle" x="147.9475" y="-788.0958" font-family="Times,serif" font-size="14.00" fill="#000000">I</text>
</g>
<!-- c1a&#45;&gt;x1_o1 -->
<g id="edge3" class="edge">
<title>c1a&#45;&gt;x1_o1</title>
<path fill="none" stroke="#0000ff" d="M111.8381,-861.6074C118.248,-849.215 127.0183,-832.2589 134.3104,-818.1609"/>
<polygon fill="#0000ff" stroke="#0000ff" points="137.5899,-819.4387 139.0754,-808.9485 131.3724,-816.2227 137.5899,-819.4387"/>
</g>
<!-- f2 -->
<g id="node10" class="node">
<title>f2</title>
<ellipse fill="none" stroke="#000000" cx="100.9475" cy="-704.7958" rx="27" ry="18"/>
<text text-anchor="middle" x="100.9475" y="-701.0958" font-family="Times,serif" font-size="14.00" fill="#000000">PiR</text>
</g>
<!-- fp1&#45;&gt;f2 -->
<g id="edge11" class="edge">
<title>fp1&#45;&gt;f2</title>
<path fill="none" stroke="#ff0000" d="M81.1275,-773.7694C84.5694,-761.7916 89.1545,-745.8354 93.0478,-732.287"/>
<polygon fill="#ff0000" stroke="#ff0000" points="96.4617,-733.0793 95.8597,-722.5015 89.7339,-731.1459 96.4617,-733.0793"/>
<text text-anchor="middle" x="92.4475" y="-744.5958" font-family="Times,serif" font-size="14.00" fill="#000000">1</text>
</g>
<!-- hi_retp -->
<g id="node9" class="node">
<title>hi_retp</title>
<ellipse fill="none" stroke="#000000" cx="194.9475" cy="-512" rx="27" ry="18"/>
<text text-anchor="middle" x="194.9475" y="-508.3" font-family="Times,serif" font-size="14.00" fill="#000000">!p</text>
</g>
<!-- d2&#45;&gt;hi_retp -->
<g id="edge8" class="edge">
<title>d2&#45;&gt;hi_retp</title>
<path fill="none" stroke="#0000ff" d="M134.331,-592.0453C145.937,-576.7194 163.4312,-553.6179 176.6473,-536.1658"/>
<polygon fill="#0000ff" stroke="#0000ff" points="179.5001,-538.1962 182.7469,-528.1111 173.9196,-533.9702 179.5001,-538.1962"/>
<text text-anchor="middle" x="170.4475" y="-551.8" font-family="Times,serif" font-size="14.00" fill="#000000">1</text>
</g>
<!-- c1bb -->
<g id="node8" class="node">
<title>c1bb</title>
<ellipse fill="none" stroke="#000000" cx="184.9475" cy="-878.7958" rx="27" ry="18"/>
<text text-anchor="middle" x="184.9475" y="-875.0958" font-family="Times,serif" font-size="14.00" fill="#000000">Cut</text>
</g>
<!-- c1bb&#45;&gt;x1_o1 -->
<g id="edge6" class="edge">
<title>c1bb&#45;&gt;x1_o1</title>
<path fill="none" stroke="#ff0000" d="M177.46,-861.1901C172.2945,-849.0441 165.3279,-832.6633 159.4605,-818.867"/>
<polygon fill="#ff0000" stroke="#ff0000" points="162.5584,-817.208 155.4239,-809.3754 156.1168,-819.9476 162.5584,-817.208"/>
<text text-anchor="middle" x="171.4475" y="-831.5958" font-family="Times,serif" font-size="14.00" fill="#000000">0</text>
</g>
<!-- c1bb&#45;&gt;d2 -->
<g id="edge7" class="edge">
<title>c1bb&#45;&gt;d2</title>
<path fill="none" stroke="#0000ff" d="M186.6616,-860.7775C188.2323,-839.7155 189.5535,-803.9048 183.9475,-773.7958 174.4348,-722.7045 150.3466,-666.7749 135.1492,-634.8024"/>
<polygon fill="#0000ff" stroke="#0000ff" points="138.2447,-633.1638 130.7442,-625.681 131.9412,-636.208 138.2447,-633.1638"/>
<text text-anchor="middle" x="182.4475" y="-744.5958" font-family="Times,serif" font-size="14.00" fill="#000000">1</text>
</g>
<!-- hi_ret -->
<g id="node18" class="node">
<title>hi_ret</title>
<ellipse fill="none" stroke="#000000" cx="172.9475" cy="-251" rx="27" ry="18"/>
<text text-anchor="middle" x="172.9475" y="-247.3" font-family="Times,serif" font-size="14.00" fill="#000000">I</text>
</g>
<!-- hi_retp&#45;&gt;hi_ret -->
<g id="edge21" class="edge">
<title>hi_retp&#45;&gt;hi_ret</title>
<path fill="none" stroke="#ff0000" d="M193.4005,-493.647C189.6123,-448.7053 179.8511,-332.9017 175.3216,-279.1653"/>
<polygon fill="#ff0000" stroke="#ff0000" points="178.7913,-278.6569 174.4636,-268.9862 171.816,-279.2449 178.7913,-278.6569"/>
<text text-anchor="middle" x="187.4475" y="-377.8" font-family="Times,serif" font-size="14.00" fill="#000000">2</text>
</g>
<!-- h_di -->
<g id="node19" class="node">
<title>h_di</title>
<ellipse fill="none" stroke="#000000" cx="227.9475" cy="-425" rx="27" ry="18"/>
<text text-anchor="middle" x="227.9475" y="-421.3" font-family="Times,serif" font-size="14.00" fill="#000000">!d</text>
</g>
<!-- hi_retp&#45;&gt;h_di -->
<g id="edge22" class="edge">
<title>hi_retp&#45;&gt;h_di</title>
<path fill="none" stroke="#0000ff" d="M201.6256,-494.3943C206.2327,-482.2482 212.4461,-465.8674 217.6792,-452.0711"/>
<polygon fill="#0000ff" stroke="#0000ff" points="221.0053,-453.1709 221.2794,-442.5796 214.4603,-450.6882 221.0053,-453.1709"/>
<text text-anchor="middle" x="216.4475" y="-464.8" font-family="Times,serif" font-size="14.00" fill="#000000">1</text>
</g>
<!-- f2&#45;&gt;d1 -->
<g id="edge9" class="edge">
<title>f2&#45;&gt;d1</title>
<path fill="none" stroke="#ff0000" d="M89.2426,-688.4433C78.0413,-672.7942 61.0371,-649.0382 48.4603,-631.4675"/>
<ellipse fill="none" stroke="#ff0000" cx="46.038" cy="-628.0834" rx="4" ry="4"/>
</g>
<!-- f2&#45;&gt;d2 -->
<g id="edge10" class="edge">
<title>f2&#45;&gt;d2</title>
<path fill="none" stroke="#0000ff" d="M104.8975,-686.6641C108.0946,-671.9879 112.6408,-651.1193 116.2348,-634.6213"/>
<ellipse fill="none" stroke="#0000ff" cx="117.1638" cy="-630.3567" rx="4" ry="4"/>
</g>
<!-- c2a -->
<g id="node11" class="node">
<title>c2a</title>
<ellipse fill="none" stroke="#000000" cx="193.9475" cy="-608.3979" rx="23.3111" ry="23.3111"/>
<ellipse fill="none" stroke="#000000" cx="193.9475" cy="-608.3979" rx="27.2962" ry="27.2962"/>
<text text-anchor="middle" x="193.9475" y="-604.6979" font-family="Times,serif" font-size="14.00" fill="#000000">Cut</text>
</g>
<!-- c2a&#45;&gt;f_ret -->
<g id="edge13" class="edge">
<title>c2a&#45;&gt;f_ret</title>
<path fill="none" stroke="#0000ff" stroke-width="2" d="M181.5324,-583.9272C174.7584,-572.1479 165.5834,-558.3682 154.9475,-548 146.8084,-540.0658 136.6144,-533.0742 127.0007,-527.414"/>
<polygon fill="#0000ff" stroke="#0000ff" stroke-width="2" points="128.4836,-524.2332 118.0472,-522.4079 125.0674,-530.3431 128.4836,-524.2332"/>
</g>
<!-- ret_o2 -->
<g id="node12" class="node">
<title>ret_o2</title>
<ellipse fill="none" stroke="#000000" cx="279.9475" cy="-512" rx="27" ry="18"/>
<text text-anchor="middle" x="279.9475" y="-508.3" font-family="Times,serif" font-size="14.00" fill="#000000">I</text>
</g>
<!-- c2a&#45;&gt;ret_o2 -->
<g id="edge12" class="edge">
<title>c2a&#45;&gt;ret_o2</title>
<path fill="none" stroke="#ff0000" d="M212.6082,-587.481C226.3224,-572.1087 244.9617,-551.2159 259.1534,-535.3083"/>
<polygon fill="#ff0000" stroke="#ff0000" points="262.0742,-537.2918 266.1197,-527.4997 256.8508,-532.6318 262.0742,-537.2918"/>
</g>
<!-- c2b -->
<g id="node13" class="node">
<title>c2b</title>
<ellipse fill="none" stroke="#000000" cx="263.9475" cy="-878.7958" rx="27" ry="18"/>
<text text-anchor="middle" x="263.9475" y="-875.0958" font-family="Times,serif" font-size="14.00" fill="#000000">Cut</text>
</g>
<!-- c2b&#45;&gt;hi_retp -->
<g id="edge14" class="edge">
<title>c2b&#45;&gt;hi_retp</title>
<path fill="none" stroke="#ff0000" d="M259.036,-860.9553C254.6613,-843.4768 248.9475,-816.0125 248.9475,-791.7958 248.9475,-791.7958 248.9475,-791.7958 248.9475,-608.3979 248.9475,-580.6175 231.6664,-553.4187 216.6561,-535.0338"/>
<polygon fill="#ff0000" stroke="#ff0000" points="219.1482,-532.5627 209.9895,-527.2364 213.8278,-537.1116 219.1482,-532.5627"/>
<text text-anchor="middle" x="252.4475" y="-701.0958" font-family="Times,serif" font-size="14.00" fill="#000000">1</text>
</g>
<!-- x_o2 -->
<g id="node14" class="node">
<title>x_o2</title>
<ellipse fill="none" stroke="#000000" cx="303.9475" cy="-791.7958" rx="27" ry="18"/>
<text text-anchor="middle" x="303.9475" y="-788.0958" font-family="Times,serif" font-size="14.00" fill="#000000">!c</text>
</g>
<!-- c2b&#45;&gt;x_o2 -->
<g id="edge15" class="edge">
<title>c2b&#45;&gt;x_o2</title>
<path fill="none" stroke="#0000ff" d="M272.0421,-861.1901C277.7178,-848.8455 285.4047,-832.1264 291.8112,-818.1923"/>
<polygon fill="#0000ff" stroke="#0000ff" points="295.0041,-819.6263 296.0015,-809.0785 288.6441,-816.7021 295.0041,-819.6263"/>
</g>
<!-- x1_o2 -->
<g id="node15" class="node">
<title>x1_o2</title>
<ellipse fill="none" stroke="#000000" cx="355.9475" cy="-512" rx="27" ry="18"/>
<text text-anchor="middle" x="355.9475" y="-508.3" font-family="Times,serif" font-size="14.00" fill="#000000">I</text>
</g>
<!-- x_o2&#45;&gt;x1_o2 -->
<g id="edge16" class="edge">
<title>x_o2&#45;&gt;x1_o2</title>
<path fill="none" stroke="#0000ff" d="M315.0013,-775.3077C323.4304,-761.8099 334.4906,-741.8935 339.9475,-722.7958 358.0438,-659.4645 358.6311,-581.3338 357.3648,-540.2768"/>
<polygon fill="#0000ff" stroke="#0000ff" points="360.8592,-540.059 356.9921,-530.1952 353.864,-540.3177 360.8592,-540.059"/>
</g>
<!-- x2_o2 -->
<g id="node16" class="node">
<title>x2_o2</title>
<ellipse fill="none" stroke="#000000" cx="303.9475" cy="-704.7958" rx="27" ry="18"/>
<text text-anchor="middle" x="303.9475" y="-701.0958" font-family="Times,serif" font-size="14.00" fill="#000000">!d</text>
</g>
<!-- x_o2&#45;&gt;x2_o2 -->
<g id="edge17" class="edge">
<title>x_o2&#45;&gt;x2_o2</title>
<path fill="none" stroke="#0000ff" d="M303.9475,-773.7694C303.9475,-761.9876 303.9475,-746.3565 303.9475,-732.9539"/>
<polygon fill="#0000ff" stroke="#0000ff" points="307.4476,-732.7992 303.9475,-722.7992 300.4476,-732.7992 307.4476,-732.7992"/>
</g>
<!-- x2i_o2 -->
<g id="node17" class="node">
<title>x2i_o2</title>
<ellipse fill="none" stroke="#000000" cx="303.9475" cy="-608.3979" rx="27" ry="18"/>
<text text-anchor="middle" x="303.9475" y="-604.6979" font-family="Times,serif" font-size="14.00" fill="#000000">PiL</text>
</g>
<!-- x2_o2&#45;&gt;x2i_o2 -->
<g id="edge18" class="edge">
<title>x2_o2&#45;&gt;x2i_o2</title>
<path fill="none" stroke="#0000ff" d="M303.9475,-686.6641C303.9475,-672.5265 303.9475,-652.6426 303.9475,-636.4548"/>
<polygon fill="#0000ff" stroke="#0000ff" points="307.4476,-636.4483 303.9475,-626.4483 300.4476,-636.4484 307.4476,-636.4483"/>
</g>
<!-- x2i_o2&#45;&gt;ret_o2 -->
<g id="edge20" class="edge">
<title>x2i_o2&#45;&gt;ret_o2</title>
<path fill="none" stroke="#0000ff" d="M299.4333,-590.2662C295.9135,-576.1286 290.963,-556.2447 286.9328,-540.0568"/>
<polygon fill="#0000ff" stroke="#0000ff" points="290.2538,-538.9086 284.4415,-530.0504 283.4612,-540.5998 290.2538,-538.9086"/>
</g>
<!-- x2i_o2&#45;&gt;x1_o2 -->
<g id="edge19" class="edge">
<title>x2i_o2&#45;&gt;x1_o2</title>
<path fill="none" stroke="#ff0000" d="M313.2441,-591.1639C321.2302,-576.3592 332.8624,-554.7954 341.9703,-537.911"/>
<polygon fill="#ff0000" stroke="#ff0000" points="345.0642,-539.5477 346.7314,-529.0848 338.9034,-536.2243 345.0642,-539.5477"/>
</g>
<!-- h -->
<g id="node20" class="node">
<title>h</title>
<ellipse fill="none" stroke="#000000" cx="227.9475" cy="-338" rx="27" ry="18"/>
<text text-anchor="middle" x="227.9475" y="-334.3" font-family="Times,serif" font-size="14.00" fill="#000000">PiL</text>
</g>
<!-- h_di&#45;&gt;h -->
<g id="edge23" class="edge">
<title>h_di&#45;&gt;h</title>
<path fill="none" stroke="#0000ff" d="M227.9475,-406.9735C227.9475,-395.1918 227.9475,-379.5607 227.9475,-366.1581"/>
<polygon fill="#0000ff" stroke="#0000ff" points="231.4476,-366.0033 227.9475,-356.0034 224.4476,-366.0034 231.4476,-366.0033"/>
<text text-anchor="middle" x="231.4475" y="-377.8" font-family="Times,serif" font-size="14.00" fill="#000000">2</text>
</g>
<!-- h&#45;&gt;hi_ret -->
<g id="edge31" class="edge">
<title>h&#45;&gt;hi_ret</title>
<path fill="none" stroke="#0000ff" d="M217.343,-321.2255C209.2776,-308.4677 198.0467,-290.7024 188.8991,-276.2325"/>
<polygon fill="#0000ff" stroke="#0000ff" points="191.8216,-274.3053 183.5195,-267.723 185.9047,-278.0458 191.8216,-274.3053"/>
</g>
<!-- h_app -->
<g id="node23" class="node">
<title>h_app</title>
<ellipse fill="none" stroke="#000000" cx="244.9475" cy="-251" rx="27" ry="18"/>
<text text-anchor="middle" x="244.9475" y="-247.3" font-family="Times,serif" font-size="14.00" fill="#000000">I</text>
</g>
<!-- h&#45;&gt;h_app -->
<g id="edge30" class="edge">
<title>h&#45;&gt;h_app</title>
<path fill="none" stroke="#ff0000" d="M231.4699,-319.9735C233.7721,-308.1918 236.8265,-292.5607 239.4454,-279.1581"/>
<polygon fill="#ff0000" stroke="#ff0000" points="242.9468,-279.489 241.4296,-269.0034 236.0768,-278.1465 242.9468,-279.489"/>
</g>
<!-- c3 -->
<g id="node21" class="node">
<title>c3</title>
<ellipse fill="none" stroke="#000000" cx="307.9475" cy="-338" rx="27" ry="18"/>
<text text-anchor="middle" x="307.9475" y="-334.3" font-family="Times,serif" font-size="14.00" fill="#000000">Cut</text>
</g>
<!-- i -->
<g id="node22" class="node">
<title>i</title>
<ellipse fill="none" stroke="#000000" cx="316.9475" cy="-251" rx="27" ry="18"/>
<text text-anchor="middle" x="316.9475" y="-247.3" font-family="Times,serif" font-size="14.00" fill="#000000">!p</text>
</g>
<!-- c3&#45;&gt;i -->
<g id="edge24" class="edge">
<title>c3&#45;&gt;i</title>
<path fill="none" stroke="#ff0000" d="M309.8123,-319.9735C311.0311,-308.1918 312.6481,-292.5607 314.0346,-279.1581"/>
<polygon fill="#ff0000" stroke="#ff0000" points="317.5374,-279.3105 315.0851,-269.0034 310.5746,-278.5901 317.5374,-279.3105"/>
<text text-anchor="middle" x="316.4475" y="-290.8" font-family="Times,serif" font-size="14.00" fill="#000000">2</text>
</g>
<!-- c3&#45;&gt;h_app -->
<g id="edge25" class="edge">
<title>c3&#45;&gt;h_app</title>
<path fill="none" stroke="#0000ff" d="M296.0977,-321.636C286.6822,-308.6336 273.3668,-290.2457 262.682,-275.4904"/>
<polygon fill="#0000ff" stroke="#0000ff" points="265.4441,-273.3373 256.7442,-267.2907 259.7745,-277.4429 265.4441,-273.3373"/>
</g>
<!-- i_i -->
<g id="node24" class="node">
<title>i_i</title>
<ellipse fill="none" stroke="#000000" cx="316.9475" cy="-164" rx="27" ry="18"/>
<text text-anchor="middle" x="316.9475" y="-160.3" font-family="Times,serif" font-size="14.00" fill="#000000">PiR</text>
</g>
<!-- i&#45;&gt;i_i -->
<g id="edge26" class="edge">
<title>i&#45;&gt;i_i</title>
<path fill="none" stroke="#ff0000" d="M316.9475,-232.9735C316.9475,-221.1918 316.9475,-205.5607 316.9475,-192.1581"/>
<polygon fill="#ff0000" stroke="#ff0000" points="320.4476,-192.0033 316.9475,-182.0034 313.4476,-192.0034 320.4476,-192.0033"/>
<text text-anchor="middle" x="320.4475" y="-203.8" font-family="Times,serif" font-size="14.00" fill="#000000">3</text>
</g>
<!-- il -->
<g id="node25" class="node">
<title>il</title>
<ellipse fill="none" stroke="#000000" cx="359.9475" cy="-91" rx="27" ry="18"/>
<text text-anchor="middle" x="359.9475" y="-87.3" font-family="Times,serif" font-size="14.00" fill="#000000">!d</text>
</g>
<!-- i_i&#45;&gt;il -->
<g id="edge27" class="edge">
<title>i_i&#45;&gt;il</title>
<path fill="none" stroke="#0000ff" d="M326.9207,-147.0688C332.2393,-138.0396 338.894,-126.742 344.8336,-116.6585"/>
<polygon fill="#0000ff" stroke="#0000ff" points="347.9688,-118.232 350.0285,-107.8393 341.9373,-114.6793 347.9688,-118.232"/>
</g>
<!-- i_ret -->
<g id="node26" class="node">
<title>i_ret</title>
<ellipse fill="none" stroke="#000000" cx="316.9475" cy="-18" rx="27" ry="18"/>
<text text-anchor="middle" x="316.9475" y="-14.3" font-family="Times,serif" font-size="14.00" fill="#000000">I</text>
</g>
<!-- i_i&#45;&gt;i_ret -->
<g id="edge28" class="edge">
<title>i_i&#45;&gt;i_ret</title>
<path fill="none" stroke="#ff0000" d="M316.9475,-145.8042C316.9475,-120.8868 316.9475,-75.8938 316.9475,-46.4877"/>
<polygon fill="#ff0000" stroke="#ff0000" points="320.4476,-46.4251 316.9475,-36.4251 313.4476,-46.4251 320.4476,-46.4251"/>
</g>
<!-- il&#45;&gt;i_ret -->
<g id="edge29" class="edge">
<title>il&#45;&gt;i_ret</title>
<path fill="none" stroke="#0000ff" d="M349.9744,-74.0688C344.6558,-65.0396 338.001,-53.742 332.0614,-43.6585"/>
<polygon fill="#0000ff" stroke="#0000ff" points="334.9577,-41.6793 326.8666,-34.8393 328.9263,-45.232 334.9577,-41.6793"/>
</g>
</g>
</svg>
