<?xml version="1.0" encoding="UTF-8" standalone="no"?>
<!DOCTYPE svg PUBLIC "-//W3C//DTD SVG 1.1//EN"
 "http://www.w3.org/Graphics/SVG/1.1/DTD/svg11.dtd">
<!-- Generated by graphviz version 2.43.0 (0)
 -->
<!-- Title: %3 Pages: 1 -->
<svg width="738pt" height="1160pt"
 viewBox="0.00 0.00 738.50 1159.60" xmlns="http://www.w3.org/2000/svg" xmlns:xlink="http://www.w3.org/1999/xlink">
<g id="graph0" class="graph" transform="scale(1 1) rotate(0) translate(4 1155.6)">
<title>%3</title>
<polygon fill="white" stroke="transparent" points="-4,4 -4,-1155.6 734.5,-1155.6 734.5,4 -4,4"/>
<!-- Root -->
<g id="node1" class="node">
<title>Root</title>
<ellipse fill="none" stroke="black" cx="32.5" cy="-524.6" rx="32.49" ry="18"/>
<text text-anchor="middle" x="32.5" y="-520.9" font-family="Times,serif" font-size="14.00">Root</text>
</g>
<!-- f_retf -->
<g id="node2" class="node">
<title>f_retf</title>
<ellipse fill="none" stroke="black" cx="57.5" cy="-437.6" rx="27" ry="18"/>
<text text-anchor="middle" x="57.5" y="-433.9" font-family="Times,serif" font-size="14.00">I</text>
</g>
<!-- Root&#45;&gt;f_retf -->
<g id="edge1" class="edge">
<title>Root&#45;&gt;f_retf</title>
<path fill="none" stroke="red" stroke-width="2" d="M37.16,-506.43C39.82,-496.77 43.26,-484.48 46.5,-473.6 47.33,-470.79 48.22,-467.87 49.12,-464.95"/>
<polygon fill="red" stroke="red" stroke-width="2" points="52.49,-465.89 52.13,-455.3 45.81,-463.8 52.49,-465.89"/>
<text text-anchor="middle" x="64" y="-477.4" font-family="Times,serif" font-size="14.00">0&#45;&gt;1</text>
</g>
<!-- c1a -->
<g id="node3" class="node">
<title>c1a</title>
<ellipse fill="none" stroke="black" cx="692.5" cy="-1133.6" rx="27.1" ry="18"/>
<text text-anchor="middle" x="692.5" y="-1129.9" font-family="Times,serif" font-size="14.00">Cut</text>
</g>
<!-- fp1 -->
<g id="node4" class="node">
<title>fp1</title>
<ellipse fill="none" stroke="black" cx="656.5" cy="-1046.6" rx="27" ry="18"/>
<text text-anchor="middle" x="656.5" y="-1042.9" font-family="Times,serif" font-size="14.00">!p</text>
</g>
<!-- c1a&#45;&gt;fp1 -->
<g id="edge2" class="edge">
<title>c1a&#45;&gt;fp1</title>
<path fill="none" stroke="red" d="M685.38,-1115.8C680.27,-1103.73 673.29,-1087.23 667.46,-1073.49"/>
<polygon fill="red" stroke="red" points="670.6,-1071.91 663.47,-1064.06 664.15,-1074.64 670.6,-1071.91"/>
<text text-anchor="middle" x="681.5" y="-1086.4" font-family="Times,serif" font-size="14.00">0</text>
</g>
<!-- d2a -->
<g id="node5" class="node">
<title>d2a</title>
<ellipse fill="none" stroke="black" cx="662.5" cy="-698.6" rx="29.8" ry="18"/>
<text text-anchor="middle" x="662.5" y="-694.9" font-family="Times,serif" font-size="14.00">Dup</text>
</g>
<!-- c1a&#45;&gt;d2a -->
<g id="edge3" class="edge">
<title>c1a&#45;&gt;d2a</title>
<path fill="none" stroke="blue" d="M701.2,-1116.5C709.42,-1099.78 720.5,-1072.61 720.5,-1047.6 720.5,-1047.6 720.5,-1047.6 720.5,-784.6 720.5,-759.57 703.13,-736.48 687.4,-720.7"/>
<polygon fill="blue" stroke="blue" points="689.56,-717.92 679.9,-713.57 684.74,-723 689.56,-717.92"/>
<text text-anchor="middle" x="725.5" y="-912.4" font-family="Times,serif" font-size="14.00">1</text>
</g>
<!-- f2a -->
<g id="node22" class="node">
<title>f2a</title>
<ellipse fill="none" stroke="black" cx="625.5" cy="-959.6" rx="27" ry="18"/>
<text text-anchor="middle" x="625.5" y="-955.9" font-family="Times,serif" font-size="14.00">PiR</text>
</g>
<!-- fp1&#45;&gt;f2a -->
<g id="edge27" class="edge">
<title>fp1&#45;&gt;f2a</title>
<path fill="none" stroke="red" d="M650.37,-1028.8C646,-1016.81 640.03,-1000.45 635.04,-986.75"/>
<polygon fill="red" stroke="red" points="638.32,-985.55 631.61,-977.35 631.75,-987.95 638.32,-985.55"/>
<text text-anchor="middle" x="647.5" y="-999.4" font-family="Times,serif" font-size="14.00">1</text>
</g>
<!-- d2b -->
<g id="node7" class="node">
<title>d2b</title>
<ellipse fill="none" stroke="black" cx="300.5" cy="-524.6" rx="29.8" ry="18"/>
<text text-anchor="middle" x="300.5" y="-520.9" font-family="Times,serif" font-size="14.00">Dup</text>
</g>
<!-- d2a&#45;&gt;d2b -->
<g id="edge30" class="edge">
<title>d2a&#45;&gt;d2b</title>
<path fill="none" stroke="black" stroke-dasharray="5,2" d="M633.37,-694.5C573.33,-687.97 439.86,-672.53 421.5,-662.6 368.18,-633.76 327.07,-571.69 309.63,-542.03"/>
</g>
<!-- d2c -->
<g id="node21" class="node">
<title>d2c</title>
<ellipse fill="none" stroke="black" cx="222.5" cy="-437.6" rx="29.8" ry="18"/>
<text text-anchor="middle" x="222.5" y="-433.9" font-family="Times,serif" font-size="14.00">Dup</text>
</g>
<!-- d2a&#45;&gt;d2c -->
<g id="edge31" class="edge">
<title>d2a&#45;&gt;d2c</title>
<path fill="none" stroke="black" stroke-dasharray="5,2" d="M633.14,-694.19C573.45,-687.19 439.8,-671.14 394.5,-662.6 334.65,-651.3 313.69,-660.99 261.5,-629.6 217,-602.83 202.06,-591.1 183.5,-542.6 171.51,-511.26 193.83,-474.47 209.37,-454.13"/>
</g>
<!-- hi_retpa -->
<g id="node23" class="node">
<title>hi_retpa</title>
<ellipse fill="none" stroke="black" cx="589.5" cy="-611.6" rx="27" ry="18"/>
<text text-anchor="middle" x="589.5" y="-607.9" font-family="Times,serif" font-size="14.00">!p</text>
</g>
<!-- d2a&#45;&gt;hi_retpa -->
<g id="edge32" class="edge">
<title>d2a&#45;&gt;hi_retpa</title>
<path fill="none" stroke="blue" d="M649.45,-682.4C638.23,-669.34 621.91,-650.33 609.12,-635.44"/>
<polygon fill="blue" stroke="blue" points="611.61,-632.97 602.44,-627.66 606.3,-637.53 611.61,-632.97"/>
<text text-anchor="middle" x="634.5" y="-651.4" font-family="Times,serif" font-size="14.00">1</text>
</g>
<!-- c1b2 -->
<g id="node6" class="node">
<title>c1b2</title>
<ellipse fill="none" stroke="black" cx="268.5" cy="-959.6" rx="27.1" ry="18"/>
<text text-anchor="middle" x="268.5" y="-955.9" font-family="Times,serif" font-size="14.00">Cut</text>
</g>
<!-- c1b2&#45;&gt;d2b -->
<g id="edge4" class="edge">
<title>c1b2&#45;&gt;d2b</title>
<path fill="none" stroke="red" stroke-width="2" d="M259.79,-942.5C251.57,-925.78 240.5,-898.61 240.5,-873.6 240.5,-873.6 240.5,-873.6 240.5,-610.6 240.5,-585.14 258.68,-561.95 275.03,-546.25"/>
<polygon fill="red" stroke="red" stroke-width="2" points="277.78,-548.48 282.82,-539.16 273.07,-543.3 277.78,-548.48"/>
<text text-anchor="middle" x="245.5" y="-738.4" font-family="Times,serif" font-size="14.00">2</text>
</g>
<!-- xdicg2 -->
<g id="node8" class="node">
<title>xdicg2</title>
<ellipse fill="none" stroke="black" cx="295.5" cy="-872.6" rx="27" ry="18"/>
<text text-anchor="middle" x="295.5" y="-868.9" font-family="Times,serif" font-size="14.00">!c</text>
</g>
<!-- c1b2&#45;&gt;xdicg2 -->
<g id="edge5" class="edge">
<title>c1b2&#45;&gt;xdicg2</title>
<path fill="none" stroke="blue" stroke-width="2" d="M273.83,-941.8C277.6,-929.93 282.74,-913.76 287.06,-900.15"/>
<polygon fill="blue" stroke="blue" stroke-width="2" points="290.48,-900.94 290.17,-890.35 283.81,-898.82 290.48,-900.94"/>
<text text-anchor="middle" x="289.5" y="-912.4" font-family="Times,serif" font-size="14.00">1</text>
</g>
<!-- d4b -->
<g id="node24" class="node">
<title>d4b</title>
<ellipse fill="none" stroke="black" cx="500.5" cy="-351.3" rx="29.8" ry="18"/>
<text text-anchor="middle" x="500.5" y="-347.6" font-family="Times,serif" font-size="14.00">Dup</text>
</g>
<!-- d2b&#45;&gt;d4b -->
<g id="edge33" class="edge">
<title>d2b&#45;&gt;d4b</title>
<path fill="none" stroke="red" stroke-width="2" d="M317.21,-509.29C353.03,-478.6 437.26,-406.46 477.85,-371.69"/>
<ellipse fill="none" stroke="red" stroke-width="2" cx="480.94" cy="-369.05" rx="4" ry="4"/>
</g>
<!-- d1b -->
<g id="node9" class="node">
<title>d1b</title>
<ellipse fill="none" stroke="black" cx="662.5" cy="-785.6" rx="29.8" ry="18"/>
<text text-anchor="middle" x="662.5" y="-781.9" font-family="Times,serif" font-size="14.00">Dup</text>
</g>
<!-- xdicg2&#45;&gt;d1b -->
<g id="edge15" class="edge">
<title>xdicg2&#45;&gt;d1b</title>
<path fill="none" stroke="blue" d="M322.83,-870.97C390.37,-869.05 563.39,-861.76 614.5,-836.6 627.25,-830.32 638.45,-819.19 646.82,-809.02"/>
<ellipse fill="none" stroke="blue" cx="649.43" cy="-805.69" rx="4" ry="4"/>
</g>
<!-- h_di2g2 -->
<g id="node17" class="node">
<title>h_di2g2</title>
<ellipse fill="none" stroke="black" cx="295.5" cy="-785.6" rx="27" ry="18"/>
<text text-anchor="middle" x="295.5" y="-781.9" font-family="Times,serif" font-size="14.00">!d</text>
</g>
<!-- xdicg2&#45;&gt;h_di2g2 -->
<g id="edge16" class="edge">
<title>xdicg2&#45;&gt;h_di2g2</title>
<path fill="none" stroke="blue" stroke-width="2" d="M295.5,-854.39C295.5,-842.76 295.5,-827.14 295.5,-813.83"/>
<polygon fill="blue" stroke="blue" stroke-width="2" points="299,-813.77 295.5,-803.77 292,-813.77 299,-813.77"/>
<text text-anchor="middle" x="300.5" y="-825.4" font-family="Times,serif" font-size="14.00">1</text>
</g>
<!-- d1b&#45;&gt;d2a -->
<g id="edge22" class="edge">
<title>d1b&#45;&gt;d2a</title>
<path fill="none" stroke="blue" d="M662.5,-767.39C662.5,-755.18 662.5,-738.59 662.5,-724.87"/>
<ellipse fill="none" stroke="blue" cx="662.5" cy="-720.77" rx="4" ry="4"/>
</g>
<!-- d1c -->
<g id="node10" class="node">
<title>d1c</title>
<ellipse fill="none" stroke="black" cx="300.5" cy="-611.6" rx="29.8" ry="18"/>
<text text-anchor="middle" x="300.5" y="-607.9" font-family="Times,serif" font-size="14.00">Dup</text>
</g>
<!-- d1b&#45;&gt;d1c -->
<g id="edge6" class="edge">
<title>d1b&#45;&gt;d1c</title>
<path fill="none" stroke="black" stroke-dasharray="5,2" d="M646.88,-769.98C615.73,-741.69 542.58,-679.43 469.5,-647.6 423.21,-627.44 364.64,-618.65 330.01,-615"/>
</g>
<!-- d1d -->
<g id="node11" class="node">
<title>d1d</title>
<ellipse fill="none" stroke="black" cx="222.5" cy="-524.6" rx="29.8" ry="18"/>
<text text-anchor="middle" x="222.5" y="-520.9" font-family="Times,serif" font-size="14.00">Dup</text>
</g>
<!-- d1b&#45;&gt;d1d -->
<g id="edge7" class="edge">
<title>d1b&#45;&gt;d1d</title>
<path fill="none" stroke="black" stroke-dasharray="5,2" d="M639.69,-773.78C634.44,-771.54 628.84,-769.33 623.5,-767.6 559,-746.61 541.05,-747.66 474.5,-734.6 428.04,-725.47 411.84,-737.79 369.5,-716.6 348.69,-706.18 349.38,-695.48 331.5,-680.6 280.77,-638.38 247.72,-638.09 226.5,-575.6 222.91,-565.04 221.91,-552.54 221.81,-542.68"/>
</g>
<!-- d1c&#45;&gt;d2b -->
<g id="edge23" class="edge">
<title>d1c&#45;&gt;d2b</title>
<path fill="none" stroke="red" d="M300.5,-593.39C300.5,-581.18 300.5,-564.59 300.5,-550.87"/>
<ellipse fill="none" stroke="red" cx="300.5" cy="-546.77" rx="4" ry="4"/>
</g>
<!-- d1d&#45;&gt;d2c -->
<g id="edge24" class="edge">
<title>d1d&#45;&gt;d2c</title>
<path fill="none" stroke="red" d="M222.5,-506.39C222.5,-494.18 222.5,-477.59 222.5,-463.87"/>
<ellipse fill="none" stroke="red" cx="222.5" cy="-459.77" rx="4" ry="4"/>
</g>
<!-- xdicg1 -->
<g id="node12" class="node">
<title>xdicg1</title>
<ellipse fill="none" stroke="black" cx="625.5" cy="-872.6" rx="27" ry="18"/>
<text text-anchor="middle" x="625.5" y="-868.9" font-family="Times,serif" font-size="14.00">!c</text>
</g>
<!-- xdicg1&#45;&gt;d1b -->
<g id="edge8" class="edge">
<title>xdicg1&#45;&gt;d1b</title>
<path fill="none" stroke="blue" d="M633.7,-855.33C636.57,-849.47 639.77,-842.77 642.5,-836.6 645.9,-828.9 649.38,-820.44 652.47,-812.69"/>
<polygon fill="blue" stroke="blue" points="655.72,-813.97 656.13,-803.39 649.21,-811.41 655.72,-813.97"/>
</g>
<!-- h_di2g1 -->
<g id="node13" class="node">
<title>h_di2g1</title>
<ellipse fill="none" stroke="black" cx="587.5" cy="-785.6" rx="27" ry="18"/>
<text text-anchor="middle" x="587.5" y="-781.9" font-family="Times,serif" font-size="14.00">!d</text>
</g>
<!-- xdicg1&#45;&gt;h_di2g1 -->
<g id="edge9" class="edge">
<title>xdicg1&#45;&gt;h_di2g1</title>
<path fill="none" stroke="blue" d="M618.17,-855.21C612.76,-843.09 605.28,-826.36 599.06,-812.46"/>
<polygon fill="blue" stroke="blue" points="602.08,-810.63 594.8,-802.93 595.69,-813.49 602.08,-810.63"/>
<text text-anchor="middle" x="613.5" y="-825.4" font-family="Times,serif" font-size="14.00">1</text>
</g>
<!-- hbg1 -->
<g id="node14" class="node">
<title>hbg1</title>
<ellipse fill="none" stroke="black" cx="405.5" cy="-698.6" rx="27" ry="18"/>
<text text-anchor="middle" x="405.5" y="-694.9" font-family="Times,serif" font-size="14.00">PiL</text>
</g>
<!-- h_di2g1&#45;&gt;hbg1 -->
<g id="edge10" class="edge">
<title>h_di2g1&#45;&gt;hbg1</title>
<path fill="none" stroke="blue" d="M565.71,-774.49C537.16,-761.24 485.55,-737.25 441.5,-716.6 439.71,-715.76 437.88,-714.9 436.03,-714.03"/>
<polygon fill="blue" stroke="blue" points="437.35,-710.78 426.81,-709.68 434.36,-717.11 437.35,-710.78"/>
<text text-anchor="middle" x="513.5" y="-738.4" font-family="Times,serif" font-size="14.00">2</text>
</g>
<!-- hbg1&#45;&gt;d1c -->
<g id="edge11" class="edge">
<title>hbg1&#45;&gt;d1c</title>
<path fill="none" stroke="red" d="M384.07,-687.51C371.85,-681.23 356.6,-672.48 344.5,-662.6 335.04,-654.87 325.89,-645 318.41,-636.08"/>
<polygon fill="red" stroke="red" points="321.07,-633.8 312.05,-628.24 315.63,-638.21 321.07,-633.8"/>
</g>
<!-- x2i_o2g1 -->
<g id="node15" class="node">
<title>x2i_o2g1</title>
<ellipse fill="none" stroke="black" cx="451.5" cy="-611.6" rx="27" ry="18"/>
<text text-anchor="middle" x="451.5" y="-607.9" font-family="Times,serif" font-size="14.00">PiL</text>
</g>
<!-- hbg1&#45;&gt;x2i_o2g1 -->
<g id="edge12" class="edge">
<title>hbg1&#45;&gt;x2i_o2g1</title>
<path fill="none" stroke="blue" d="M414.37,-681.21C421.03,-668.9 430.27,-651.82 437.87,-637.78"/>
<polygon fill="blue" stroke="blue" points="441.13,-639.11 442.81,-628.65 434.97,-635.77 441.13,-639.11"/>
<text text-anchor="middle" x="448" y="-651.4" font-family="Times,serif" font-size="14.00">2&#45;&gt;1</text>
</g>
<!-- x2i_o2g1&#45;&gt;d1d -->
<g id="edge13" class="edge">
<title>x2i_o2g1&#45;&gt;d1d</title>
<path fill="none" stroke="red" d="M427.91,-602.72C391.8,-590.55 320.77,-566.09 261.5,-542.6 259.43,-541.78 257.32,-540.92 255.19,-540.03"/>
<polygon fill="red" stroke="red" points="256.47,-536.78 245.9,-536.1 253.74,-543.22 256.47,-536.78"/>
</g>
<!-- f_retg1 -->
<g id="node16" class="node">
<title>f_retg1</title>
<ellipse fill="none" stroke="black" cx="460.5" cy="-524.6" rx="27" ry="18"/>
<text text-anchor="middle" x="460.5" y="-520.9" font-family="Times,serif" font-size="14.00">I</text>
</g>
<!-- x2i_o2g1&#45;&gt;f_retg1 -->
<g id="edge14" class="edge">
<title>x2i_o2g1&#45;&gt;f_retg1</title>
<path fill="none" stroke="blue" d="M453.32,-593.39C454.55,-581.76 456.2,-566.14 457.61,-552.83"/>
<polygon fill="blue" stroke="blue" points="461.11,-553.08 458.68,-542.77 454.14,-552.35 461.11,-553.08"/>
</g>
<!-- hbg2 -->
<g id="node18" class="node">
<title>hbg2</title>
<ellipse fill="none" stroke="black" cx="295.5" cy="-698.6" rx="27" ry="18"/>
<text text-anchor="middle" x="295.5" y="-694.9" font-family="Times,serif" font-size="14.00">PiL</text>
</g>
<!-- h_di2g2&#45;&gt;hbg2 -->
<g id="edge17" class="edge">
<title>h_di2g2&#45;&gt;hbg2</title>
<path fill="none" stroke="blue" stroke-width="2" d="M295.5,-767.39C295.5,-755.76 295.5,-740.14 295.5,-726.83"/>
<polygon fill="blue" stroke="blue" stroke-width="2" points="299,-726.77 295.5,-716.77 292,-726.77 299,-726.77"/>
<text text-anchor="middle" x="300.5" y="-738.4" font-family="Times,serif" font-size="14.00">2</text>
</g>
<!-- hbg2&#45;&gt;d1c -->
<g id="edge18" class="edge">
<title>hbg2&#45;&gt;d1c</title>
<path fill="none" stroke="red" d="M296.51,-680.39C297.23,-668.18 298.2,-651.59 299.01,-637.87"/>
<ellipse fill="none" stroke="red" cx="299.25" cy="-633.76" rx="4" ry="4"/>
</g>
<!-- x2i_o2g2 -->
<g id="node19" class="node">
<title>x2i_o2g2</title>
<ellipse fill="none" stroke="black" cx="109.5" cy="-611.6" rx="27" ry="18"/>
<text text-anchor="middle" x="109.5" y="-607.9" font-family="Times,serif" font-size="14.00">PiL</text>
</g>
<!-- hbg2&#45;&gt;x2i_o2g2 -->
<g id="edge19" class="edge">
<title>hbg2&#45;&gt;x2i_o2g2</title>
<path fill="none" stroke="blue" stroke-width="2" d="M268.75,-695.02C227.34,-690.54 150.29,-680.08 129.5,-662.6 122.5,-656.71 117.93,-648.03 114.96,-639.55"/>
<polygon fill="blue" stroke="blue" stroke-width="2" points="118.29,-638.49 112.15,-629.86 111.57,-640.44 118.29,-638.49"/>
<text text-anchor="middle" x="147" y="-651.4" font-family="Times,serif" font-size="14.00">2&#45;&gt;1</text>
</g>
<!-- x2i_o2g2&#45;&gt;d1d -->
<g id="edge20" class="edge">
<title>x2i_o2g2&#45;&gt;d1d</title>
<path fill="none" stroke="red" d="M126.66,-597.69C145.6,-583.44 176.25,-560.38 197.78,-544.19"/>
<ellipse fill="none" stroke="red" cx="201.23" cy="-541.59" rx="4" ry="4"/>
</g>
<!-- x2i_o2f -->
<g id="node20" class="node">
<title>x2i_o2f</title>
<ellipse fill="none" stroke="black" cx="109.5" cy="-524.6" rx="27" ry="18"/>
<text text-anchor="middle" x="109.5" y="-520.9" font-family="Times,serif" font-size="14.00">PiL</text>
</g>
<!-- x2i_o2g2&#45;&gt;x2i_o2f -->
<g id="edge21" class="edge">
<title>x2i_o2g2&#45;&gt;x2i_o2f</title>
<path fill="none" stroke="blue" stroke-width="2" d="M109.5,-593.39C109.5,-581.76 109.5,-566.14 109.5,-552.83"/>
<polygon fill="blue" stroke="blue" stroke-width="2" points="113,-552.77 109.5,-542.77 106,-552.77 113,-552.77"/>
</g>
<!-- x2i_o2f&#45;&gt;f_retf -->
<g id="edge29" class="edge">
<title>x2i_o2f&#45;&gt;f_retf</title>
<path fill="none" stroke="blue" stroke-width="2" d="M100.78,-507.17C95.43,-497.3 88.32,-484.58 81.5,-473.6 79.22,-469.93 76.74,-466.12 74.25,-462.41"/>
<polygon fill="blue" stroke="blue" stroke-width="2" points="77.09,-460.36 68.56,-454.08 71.31,-464.31 77.09,-460.36"/>
</g>
<!-- x2i_o2f&#45;&gt;d2c -->
<g id="edge28" class="edge">
<title>x2i_o2f&#45;&gt;d2c</title>
<path fill="none" stroke="red" d="M126.66,-510.69C145.19,-496.75 174.93,-474.37 196.37,-458.25"/>
<polygon fill="red" stroke="red" points="198.54,-461 204.42,-452.19 194.33,-455.4 198.54,-461"/>
</g>
<!-- x1_o2 -->
<g id="node25" class="node">
<title>x1_o2</title>
<ellipse fill="none" stroke="black" cx="295.5" cy="-351.3" rx="27" ry="18"/>
<text text-anchor="middle" x="295.5" y="-347.6" font-family="Times,serif" font-size="14.00">I</text>
</g>
<!-- d2c&#45;&gt;x1_o2 -->
<g id="edge34" class="edge">
<title>d2c&#45;&gt;x1_o2</title>
<path fill="none" stroke="red" d="M235.89,-421.13C247.07,-408.22 263.17,-389.63 275.82,-375.02"/>
<polygon fill="red" stroke="red" points="278.54,-377.23 282.44,-367.38 273.25,-372.65 278.54,-377.23"/>
</g>
<!-- f2a&#45;&gt;xdicg1 -->
<g id="edge26" class="edge">
<title>f2a&#45;&gt;xdicg1</title>
<path fill="none" stroke="blue" d="M625.5,-941.39C625.5,-929.76 625.5,-914.14 625.5,-900.83"/>
<polygon fill="blue" stroke="blue" points="629,-900.77 625.5,-890.77 622,-900.77 629,-900.77"/>
</g>
<!-- f2a&#45;&gt;f_retg1 -->
<g id="edge25" class="edge">
<title>f2a&#45;&gt;f_retg1</title>
<path fill="none" stroke="red" d="M602.51,-949.52C574.97,-936.95 532.5,-911.44 532.5,-873.6 532.5,-873.6 532.5,-873.6 532.5,-610.6 532.5,-582.17 508.76,-558.36 488.54,-543.24"/>
<polygon fill="red" stroke="red" points="490.35,-540.23 480.17,-537.3 486.3,-545.94 490.35,-540.23"/>
</g>
<!-- hi_ret1 -->
<g id="node26" class="node">
<title>hi_ret1</title>
<ellipse fill="none" stroke="black" cx="575.5" cy="-351.3" rx="27" ry="18"/>
<text text-anchor="middle" x="575.5" y="-347.6" font-family="Times,serif" font-size="14.00">I</text>
</g>
<!-- hi_retpa&#45;&gt;hi_ret1 -->
<g id="edge41" class="edge">
<title>hi_retpa&#45;&gt;hi_ret1</title>
<path fill="none" stroke="red" d="M588.56,-593.25C586.17,-549.22 579.87,-432.91 576.98,-379.64"/>
<polygon fill="red" stroke="red" points="580.47,-379.37 576.43,-369.57 573.48,-379.75 580.47,-379.37"/>
<text text-anchor="middle" x="587.5" y="-477.4" font-family="Times,serif" font-size="14.00">2</text>
</g>
<!-- h_di1 -->
<g id="node29" class="node">
<title>h_di1</title>
<ellipse fill="none" stroke="black" cx="535.5" cy="-524.6" rx="27" ry="18"/>
<text text-anchor="middle" x="535.5" y="-520.9" font-family="Times,serif" font-size="14.00">!d</text>
</g>
<!-- hi_retpa&#45;&gt;h_di1 -->
<g id="edge42" class="edge">
<title>hi_retpa&#45;&gt;h_di1</title>
<path fill="none" stroke="blue" d="M579.1,-594.97C575.13,-588.94 570.57,-581.97 566.5,-575.6 561.23,-567.34 555.55,-558.25 550.52,-550.11"/>
<polygon fill="blue" stroke="blue" points="553.39,-548.1 545.16,-541.43 547.43,-551.77 553.39,-548.1"/>
<text text-anchor="middle" x="571.5" y="-564.4" font-family="Times,serif" font-size="14.00">1</text>
</g>
<!-- h_app -->
<g id="node27" class="node">
<title>h_app</title>
<ellipse fill="none" stroke="black" cx="559.5" cy="-251" rx="27" ry="18"/>
<text text-anchor="middle" x="559.5" y="-247.3" font-family="Times,serif" font-size="14.00">I</text>
</g>
<!-- d4b&#45;&gt;h_app -->
<g id="edge35" class="edge">
<title>d4b&#45;&gt;h_app</title>
<path fill="none" stroke="red" stroke-width="2" d="M510.24,-334.07C519.6,-318.46 533.89,-294.67 544.66,-276.71"/>
<polygon fill="red" stroke="red" stroke-width="2" points="547.79,-278.31 549.94,-267.93 541.79,-274.7 547.79,-278.31"/>
</g>
<!-- ha -->
<g id="node28" class="node">
<title>ha</title>
<ellipse fill="none" stroke="black" cx="535.5" cy="-437.6" rx="27" ry="18"/>
<text text-anchor="middle" x="535.5" y="-433.9" font-family="Times,serif" font-size="14.00">PiL</text>
</g>
<!-- ha&#45;&gt;d4b -->
<g id="edge36" class="edge">
<title>ha&#45;&gt;d4b</title>
<path fill="none" stroke="red" d="M528.58,-419.94C523.64,-408.05 516.91,-391.82 511.27,-378.24"/>
<polygon fill="red" stroke="red" points="514.46,-376.81 507.4,-368.92 508,-379.5 514.46,-376.81"/>
</g>
<!-- ha&#45;&gt;hi_ret1 -->
<g id="edge37" class="edge">
<title>ha&#45;&gt;hi_ret1</title>
<path fill="none" stroke="blue" d="M543.21,-420.34C548.87,-408.41 556.68,-391.95 563.2,-378.21"/>
<polygon fill="blue" stroke="blue" points="566.55,-379.32 567.67,-368.79 560.22,-376.32 566.55,-379.32"/>
</g>
<!-- h_di1&#45;&gt;ha -->
<g id="edge38" class="edge">
<title>h_di1&#45;&gt;ha</title>
<path fill="none" stroke="blue" d="M535.5,-506.39C535.5,-494.76 535.5,-479.14 535.5,-465.83"/>
<polygon fill="blue" stroke="blue" points="539,-465.77 535.5,-455.77 532,-465.77 539,-465.77"/>
<text text-anchor="middle" x="540.5" y="-477.4" font-family="Times,serif" font-size="14.00">2</text>
</g>
<!-- c2a -->
<g id="node30" class="node">
<title>c2a</title>
<ellipse fill="none" stroke="black" cx="477.5" cy="-698.6" rx="27.1" ry="18"/>
<text text-anchor="middle" x="477.5" y="-694.9" font-family="Times,serif" font-size="14.00">Cut</text>
</g>
<!-- c2a&#45;&gt;hi_retpa -->
<g id="edge39" class="edge">
<title>c2a&#45;&gt;hi_retpa</title>
<path fill="none" stroke="red" d="M495,-684.31C513.49,-670.28 542.84,-648 563.93,-632"/>
<polygon fill="red" stroke="red" points="566.27,-634.62 572.12,-625.78 562.04,-629.04 566.27,-634.62"/>
<text text-anchor="middle" x="544.5" y="-651.4" font-family="Times,serif" font-size="14.00">1</text>
</g>
<!-- c2a&#45;&gt;x1_o2 -->
<g id="edge40" class="edge">
<title>c2a&#45;&gt;x1_o2</title>
<path fill="none" stroke="blue" d="M455.92,-687.08C451.19,-684.87 446.2,-682.6 441.5,-680.6 397.64,-661.87 358.5,-660.28 358.5,-612.6 358.5,-612.6 358.5,-612.6 358.5,-480.1 358.5,-440.04 333.3,-399.53 314.77,-375.17"/>
<polygon fill="blue" stroke="blue" points="317.48,-372.95 308.55,-367.25 311.98,-377.27 317.48,-372.95"/>
</g>
<!-- c3 -->
<g id="node31" class="node">
<title>c3</title>
<ellipse fill="none" stroke="black" cx="651.5" cy="-351.3" rx="27.12" ry="27.12"/>
<ellipse fill="none" stroke="black" cx="651.5" cy="-351.3" rx="31.1" ry="31.1"/>
<text text-anchor="middle" x="651.5" y="-347.6" font-family="Times,serif" font-size="14.00">Cut</text>
</g>
<!-- c3&#45;&gt;h_app -->
<g id="edge44" class="edge">
<title>c3&#45;&gt;h_app</title>
<path fill="none" stroke="blue" stroke-width="2" d="M630.16,-327.5C615.11,-311.42 595.05,-289.99 580.15,-274.07"/>
<polygon fill="blue" stroke="blue" stroke-width="2" points="582.68,-271.65 573.3,-266.74 577.57,-276.44 582.68,-271.65"/>
</g>
<!-- i -->
<g id="node32" class="node">
<title>i</title>
<ellipse fill="none" stroke="black" cx="651.5" cy="-251" rx="27" ry="18"/>
<text text-anchor="middle" x="651.5" y="-247.3" font-family="Times,serif" font-size="14.00">!p</text>
</g>
<!-- c3&#45;&gt;i -->
<g id="edge43" class="edge">
<title>c3&#45;&gt;i</title>
<path fill="none" stroke="red" d="M651.5,-319.73C651.5,-306.83 651.5,-291.93 651.5,-279.39"/>
<polygon fill="red" stroke="red" points="655,-279.09 651.5,-269.09 648,-279.09 655,-279.09"/>
<text text-anchor="middle" x="656.5" y="-290.8" font-family="Times,serif" font-size="14.00">2</text>
</g>
<!-- i_i -->
<g id="node33" class="node">
<title>i_i</title>
<ellipse fill="none" stroke="black" cx="651.5" cy="-164" rx="27" ry="18"/>
<text text-anchor="middle" x="651.5" y="-160.3" font-family="Times,serif" font-size="14.00">PiR</text>
</g>
<!-- i&#45;&gt;i_i -->
<g id="edge45" class="edge">
<title>i&#45;&gt;i_i</title>
<path fill="none" stroke="red" d="M651.5,-232.8C651.5,-221.16 651.5,-205.55 651.5,-192.24"/>
<polygon fill="red" stroke="red" points="655,-192.18 651.5,-182.18 648,-192.18 655,-192.18"/>
<text text-anchor="middle" x="656.5" y="-203.8" font-family="Times,serif" font-size="14.00">3</text>
</g>
<!-- il -->
<g id="node34" class="node">
<title>il</title>
<ellipse fill="none" stroke="black" cx="694.5" cy="-91" rx="27" ry="18"/>
<text text-anchor="middle" x="694.5" y="-87.3" font-family="Times,serif" font-size="14.00">!d</text>
</g>
<!-- i_i&#45;&gt;il -->
<g id="edge46" class="edge">
<title>i_i&#45;&gt;il</title>
<path fill="none" stroke="blue" d="M661.25,-146.89C666.64,-137.99 673.45,-126.75 679.5,-116.77"/>
<polygon fill="blue" stroke="blue" points="682.59,-118.41 684.78,-108.05 676.6,-114.79 682.59,-118.41"/>
</g>
<!-- i_ret -->
<g id="node35" class="node">
<title>i_ret</title>
<ellipse fill="none" stroke="black" cx="651.5" cy="-18" rx="27" ry="18"/>
<text text-anchor="middle" x="651.5" y="-14.3" font-family="Times,serif" font-size="14.00">I</text>
</g>
<!-- i_i&#45;&gt;i_ret -->
<g id="edge47" class="edge">
<title>i_i&#45;&gt;i_ret</title>
<path fill="none" stroke="red" d="M651.5,-145.92C651.5,-121.34 651.5,-75.75 651.5,-46.43"/>
<polygon fill="red" stroke="red" points="655,-46.06 651.5,-36.06 648,-46.06 655,-46.06"/>
</g>
<!-- il&#45;&gt;i_ret -->
<g id="edge48" class="edge">
<title>il&#45;&gt;i_ret</title>
<path fill="none" stroke="blue" d="M684.74,-73.89C679.35,-64.99 672.54,-53.75 666.5,-43.77"/>
<polygon fill="blue" stroke="blue" points="669.39,-41.79 661.22,-35.05 663.4,-45.41 669.39,-41.79"/>
</g>
</g>
</svg>
