<?xml version="1.0" encoding="UTF-8" standalone="no"?>
<!DOCTYPE svg PUBLIC "-//W3C//DTD SVG 1.1//EN"
 "http://www.w3.org/Graphics/SVG/1.1/DTD/svg11.dtd">
<!-- Generated by graphviz version 2.43.0 (0)
 -->
<!-- Title: %3 Pages: 1 -->
<svg width="622pt" height="1160pt"
 viewBox="0.00 0.00 622.50 1159.60" xmlns="http://www.w3.org/2000/svg" xmlns:xlink="http://www.w3.org/1999/xlink">
<g id="graph0" class="graph" transform="scale(1 1) rotate(0) translate(4 1155.6)">
<title>%3</title>
<polygon fill="white" stroke="transparent" points="-4,4 -4,-1155.6 618.5,-1155.6 618.5,4 -4,4"/>
<!-- Root -->
<g id="node1" class="node">
<title>Root</title>
<ellipse fill="none" stroke="black" cx="32.5" cy="-498" rx="32.49" ry="18"/>
<text text-anchor="middle" x="32.5" y="-494.3" font-family="Times,serif" font-size="14.00">Root</text>
</g>
<!-- f_retf -->
<g id="node2" class="node">
<title>f_retf</title>
<ellipse fill="none" stroke="black" cx="64.5" cy="-411" rx="27" ry="18"/>
<text text-anchor="middle" x="64.5" y="-407.3" font-family="Times,serif" font-size="14.00">I</text>
</g>
<!-- Root&#45;&gt;f_retf -->
<g id="edge1" class="edge">
<title>Root&#45;&gt;f_retf</title>
<path fill="none" stroke="red" stroke-width="2" d="M36.84,-480.11C39.53,-470.31 43.28,-457.81 47.5,-447 48.72,-443.85 50.12,-440.6 51.57,-437.4"/>
<polygon fill="red" stroke="red" stroke-width="2" points="54.85,-438.67 55.99,-428.14 48.53,-435.66 54.85,-438.67"/>
<text text-anchor="middle" x="65" y="-450.8" font-family="Times,serif" font-size="14.00">0&#45;&gt;1</text>
</g>
<!-- c1a -->
<g id="node3" class="node">
<title>c1a</title>
<ellipse fill="none" stroke="black" cx="381.5" cy="-1133.6" rx="27.1" ry="18"/>
<text text-anchor="middle" x="381.5" y="-1129.9" font-family="Times,serif" font-size="14.00">Cut</text>
</g>
<!-- fp1 -->
<g id="node4" class="node">
<title>fp1</title>
<ellipse fill="none" stroke="black" cx="353.5" cy="-1033.3" rx="27" ry="18"/>
<text text-anchor="middle" x="353.5" y="-1029.6" font-family="Times,serif" font-size="14.00">!p</text>
</g>
<!-- c1a&#45;&gt;fp1 -->
<g id="edge2" class="edge">
<title>c1a&#45;&gt;fp1</title>
<path fill="none" stroke="red" d="M376.62,-1115.47C372.36,-1100.53 366.12,-1078.6 361.19,-1061.29"/>
<polygon fill="red" stroke="red" points="364.42,-1059.88 358.32,-1051.22 357.69,-1061.8 364.42,-1059.88"/>
<text text-anchor="middle" x="375.5" y="-1086.4" font-family="Times,serif" font-size="14.00">0</text>
</g>
<!-- d2a -->
<g id="node5" class="node">
<title>d2a</title>
<ellipse fill="none" stroke="black" cx="425.5" cy="-672" rx="29.8" ry="18"/>
<text text-anchor="middle" x="425.5" y="-668.3" font-family="Times,serif" font-size="14.00">Dup</text>
</g>
<!-- c1a&#45;&gt;d2a -->
<g id="edge3" class="edge">
<title>c1a&#45;&gt;d2a</title>
<path fill="none" stroke="blue" d="M389.15,-1116.3C397.44,-1097.13 409.5,-1064.11 409.5,-1034.3 409.5,-1034.3 409.5,-1034.3 409.5,-758 409.5,-738.29 413.7,-716.45 417.8,-699.84"/>
<polygon fill="blue" stroke="blue" points="421.29,-700.32 420.43,-689.76 414.52,-698.55 421.29,-700.32"/>
<text text-anchor="middle" x="414.5" y="-885.8" font-family="Times,serif" font-size="14.00">1</text>
</g>
<!-- f2a -->
<g id="node13" class="node">
<title>f2a</title>
<ellipse fill="none" stroke="black" cx="345.5" cy="-933" rx="27" ry="18"/>
<text text-anchor="middle" x="345.5" y="-929.3" font-family="Times,serif" font-size="14.00">PiR</text>
</g>
<!-- fp1&#45;&gt;f2a -->
<g id="edge13" class="edge">
<title>fp1&#45;&gt;f2a</title>
<path fill="none" stroke="red" d="M352.1,-1015.18C350.9,-1000.33 349.12,-978.57 347.72,-961.31"/>
<polygon fill="red" stroke="red" points="351.2,-960.94 346.9,-951.26 344.22,-961.51 351.2,-960.94"/>
<text text-anchor="middle" x="354.5" y="-972.8" font-family="Times,serif" font-size="14.00">1</text>
</g>
<!-- d2b -->
<g id="node14" class="node">
<title>d2b</title>
<ellipse fill="none" stroke="black" cx="260.5" cy="-498" rx="29.8" ry="18"/>
<text text-anchor="middle" x="260.5" y="-494.3" font-family="Times,serif" font-size="14.00">Dup</text>
</g>
<!-- d2a&#45;&gt;d2b -->
<g id="edge25" class="edge">
<title>d2a&#45;&gt;d2b</title>
<path fill="none" stroke="black" stroke-dasharray="5,2" d="M420.8,-654.1C411.98,-625.37 390.22,-566.91 351.5,-534 332.86,-518.16 322.28,-524.89 299.5,-516 294.41,-514.01 289,-511.75 283.88,-509.55"/>
</g>
<!-- d2c -->
<g id="node16" class="node">
<title>d2c</title>
<ellipse fill="none" stroke="black" cx="260.5" cy="-411" rx="29.8" ry="18"/>
<text text-anchor="middle" x="260.5" y="-407.3" font-family="Times,serif" font-size="14.00">Dup</text>
</g>
<!-- d2a&#45;&gt;d2c -->
<g id="edge26" class="edge">
<title>d2a&#45;&gt;d2c</title>
<path fill="none" stroke="black" stroke-dasharray="5,2" d="M402.65,-660.27C397.41,-658.03 391.81,-655.8 386.5,-654 354.85,-643.29 344.11,-649.4 313.5,-636 260.14,-612.65 236.2,-603.44 215.5,-549 199.04,-505.71 229.87,-453.44 248.23,-427.78"/>
</g>
<!-- hi_retpa -->
<g id="node20" class="node">
<title>hi_retpa</title>
<ellipse fill="none" stroke="black" cx="447.5" cy="-585" rx="27" ry="18"/>
<text text-anchor="middle" x="447.5" y="-581.3" font-family="Times,serif" font-size="14.00">!p</text>
</g>
<!-- d2a&#45;&gt;hi_retpa -->
<g id="edge27" class="edge">
<title>d2a&#45;&gt;hi_retpa</title>
<path fill="none" stroke="blue" d="M429.95,-653.8C433.01,-641.97 437.14,-626.03 440.62,-612.58"/>
<polygon fill="blue" stroke="blue" points="444.01,-613.44 443.13,-602.89 437.23,-611.69 444.01,-613.44"/>
<text text-anchor="middle" x="442.5" y="-624.8" font-family="Times,serif" font-size="14.00">1</text>
</g>
<!-- c1b -->
<g id="node6" class="node">
<title>c1b</title>
<ellipse fill="none" stroke="black" cx="193.5" cy="-1033.3" rx="27.12" ry="27.12"/>
<ellipse fill="none" stroke="black" cx="193.5" cy="-1033.3" rx="31.1" ry="31.1"/>
<text text-anchor="middle" x="193.5" y="-1029.6" font-family="Times,serif" font-size="14.00">Cut</text>
</g>
<!-- f2b -->
<g id="node7" class="node">
<title>f2b</title>
<ellipse fill="none" stroke="black" cx="228.5" cy="-933" rx="27" ry="18"/>
<text text-anchor="middle" x="228.5" y="-929.3" font-family="Times,serif" font-size="14.00">PiR</text>
</g>
<!-- c1b&#45;&gt;f2b -->
<g id="edge4" class="edge">
<title>c1b&#45;&gt;f2b</title>
<path fill="none" stroke="red" d="M203.71,-1003.6C208.6,-989.87 214.41,-973.56 219.18,-960.17"/>
<polygon fill="red" stroke="red" points="222.53,-961.19 222.59,-950.6 215.94,-958.85 222.53,-961.19"/>
<text text-anchor="middle" x="220.5" y="-972.8" font-family="Times,serif" font-size="14.00">1</text>
</g>
<!-- hbf -->
<g id="node8" class="node">
<title>hbf</title>
<ellipse fill="none" stroke="black" cx="151.5" cy="-585" rx="27" ry="18"/>
<text text-anchor="middle" x="151.5" y="-581.3" font-family="Times,serif" font-size="14.00">PiL</text>
</g>
<!-- c1b&#45;&gt;hbf -->
<g id="edge5" class="edge">
<title>c1b&#45;&gt;hbf</title>
<path fill="none" stroke="blue" stroke-width="2" d="M181.13,-1004.5C173.63,-985.14 165.5,-958.49 165.5,-934 165.5,-934 165.5,-934 165.5,-671 165.5,-651.37 161.82,-629.53 158.23,-612.9"/>
<polygon fill="blue" stroke="blue" stroke-width="2" points="161.56,-611.77 155.93,-602.8 154.74,-613.33 161.56,-611.77"/>
<text text-anchor="middle" x="170.5" y="-798.8" font-family="Times,serif" font-size="14.00">2</text>
</g>
<!-- d1a -->
<g id="node9" class="node">
<title>d1a</title>
<ellipse fill="none" stroke="black" cx="228.5" cy="-846" rx="29.8" ry="18"/>
<text text-anchor="middle" x="228.5" y="-842.3" font-family="Times,serif" font-size="14.00">Dup</text>
</g>
<!-- f2b&#45;&gt;d1a -->
<g id="edge11" class="edge">
<title>f2b&#45;&gt;d1a</title>
<path fill="none" stroke="red" d="M228.5,-914.8C228.5,-902.59 228.5,-885.99 228.5,-872.28"/>
<ellipse fill="none" stroke="red" cx="228.5" cy="-868.18" rx="4" ry="4"/>
</g>
<!-- d1b -->
<g id="node10" class="node">
<title>d1b</title>
<ellipse fill="none" stroke="black" cx="345.5" cy="-846" rx="29.8" ry="18"/>
<text text-anchor="middle" x="345.5" y="-842.3" font-family="Times,serif" font-size="14.00">Dup</text>
</g>
<!-- f2b&#45;&gt;d1b -->
<g id="edge12" class="edge">
<title>f2b&#45;&gt;d1b</title>
<path fill="none" stroke="blue" d="M246.01,-919.27C265.77,-904.92 298.06,-881.46 320.47,-865.18"/>
<ellipse fill="none" stroke="blue" cx="323.85" cy="-862.73" rx="4" ry="4"/>
</g>
<!-- hbf&#45;&gt;d2b -->
<g id="edge14" class="edge">
<title>hbf&#45;&gt;d2b</title>
<path fill="none" stroke="red" d="M168.53,-570.72C186.32,-556.85 214.42,-534.93 234.89,-518.97"/>
<polygon fill="red" stroke="red" points="237.13,-521.66 242.86,-512.75 232.83,-516.14 237.13,-521.66"/>
</g>
<!-- x2i_o2f -->
<g id="node15" class="node">
<title>x2i_o2f</title>
<ellipse fill="none" stroke="black" cx="109.5" cy="-498" rx="27" ry="18"/>
<text text-anchor="middle" x="109.5" y="-494.3" font-family="Times,serif" font-size="14.00">PiL</text>
</g>
<!-- hbf&#45;&gt;x2i_o2f -->
<g id="edge15" class="edge">
<title>hbf&#45;&gt;x2i_o2f</title>
<path fill="none" stroke="blue" stroke-width="2" d="M143.4,-567.61C137.36,-555.38 128.99,-538.44 122.08,-524.46"/>
<polygon fill="blue" stroke="blue" stroke-width="2" points="125.14,-522.75 117.57,-515.34 118.86,-525.85 125.14,-522.75"/>
<text text-anchor="middle" x="151" y="-537.8" font-family="Times,serif" font-size="14.00">2&#45;&gt;1</text>
</g>
<!-- d1a&#45;&gt;d1b -->
<g id="edge6" class="edge">
<title>d1a&#45;&gt;d1b</title>
<path fill="none" stroke="black" stroke-dasharray="5,2" d="M258.66,-846C277.54,-846 296.43,-846 315.31,-846"/>
</g>
<!-- f_retg -->
<g id="node11" class="node">
<title>f_retg</title>
<ellipse fill="none" stroke="black" cx="373.5" cy="-411" rx="27" ry="18"/>
<text text-anchor="middle" x="373.5" y="-407.3" font-family="Times,serif" font-size="14.00">I</text>
</g>
<!-- d1a&#45;&gt;f_retg -->
<g id="edge7" class="edge">
<title>d1a&#45;&gt;f_retg</title>
<path fill="none" stroke="red" d="M224.74,-828.02C217.88,-792.5 207.09,-709.1 242.5,-654 267.98,-614.34 303.58,-637.69 335.5,-603 377.21,-557.66 378.79,-480.1 376.24,-439.15"/>
<polygon fill="red" stroke="red" points="379.73,-438.81 375.48,-429.1 372.75,-439.34 379.73,-438.81"/>
</g>
<!-- xdicg -->
<g id="node12" class="node">
<title>xdicg</title>
<ellipse fill="none" stroke="black" cx="350.5" cy="-759" rx="27" ry="18"/>
<text text-anchor="middle" x="350.5" y="-755.3" font-family="Times,serif" font-size="14.00">!c</text>
</g>
<!-- d1b&#45;&gt;xdicg -->
<g id="edge8" class="edge">
<title>d1b&#45;&gt;xdicg</title>
<path fill="none" stroke="blue" d="M346.51,-827.8C347.19,-816.16 348.11,-800.55 348.89,-787.24"/>
<polygon fill="blue" stroke="blue" points="352.39,-787.36 349.49,-777.18 345.41,-786.95 352.39,-787.36"/>
</g>
<!-- xdicg&#45;&gt;d2a -->
<g id="edge18" class="edge">
<title>xdicg&#45;&gt;d2a</title>
<path fill="none" stroke="blue" d="M363.56,-743.19C375.46,-729.71 393.17,-709.64 406.61,-694.41"/>
<ellipse fill="none" stroke="blue" cx="409.43" cy="-691.21" rx="4" ry="4"/>
</g>
<!-- h_di2g -->
<g id="node17" class="node">
<title>h_di2g</title>
<ellipse fill="none" stroke="black" cx="350.5" cy="-672" rx="27" ry="18"/>
<text text-anchor="middle" x="350.5" y="-668.3" font-family="Times,serif" font-size="14.00">!d</text>
</g>
<!-- xdicg&#45;&gt;h_di2g -->
<g id="edge19" class="edge">
<title>xdicg&#45;&gt;h_di2g</title>
<path fill="none" stroke="blue" d="M350.5,-740.8C350.5,-729.16 350.5,-713.55 350.5,-700.24"/>
<polygon fill="blue" stroke="blue" points="354,-700.18 350.5,-690.18 347,-700.18 354,-700.18"/>
<text text-anchor="middle" x="355.5" y="-711.8" font-family="Times,serif" font-size="14.00">1</text>
</g>
<!-- f2a&#45;&gt;d1a -->
<g id="edge9" class="edge">
<title>f2a&#45;&gt;d1a</title>
<path fill="none" stroke="red" d="M327.98,-919.27C308.73,-905.29 277.59,-882.67 255.28,-866.46"/>
<polygon fill="red" stroke="red" points="257.05,-863.42 246.91,-860.37 252.94,-869.08 257.05,-863.42"/>
</g>
<!-- f2a&#45;&gt;d1b -->
<g id="edge10" class="edge">
<title>f2a&#45;&gt;d1b</title>
<path fill="none" stroke="blue" d="M345.5,-914.8C345.5,-903.16 345.5,-887.55 345.5,-874.24"/>
<polygon fill="blue" stroke="blue" points="349,-874.18 345.5,-864.18 342,-874.18 349,-874.18"/>
</g>
<!-- d4b -->
<g id="node21" class="node">
<title>d4b</title>
<ellipse fill="none" stroke="black" cx="397.5" cy="-338" rx="29.8" ry="18"/>
<text text-anchor="middle" x="397.5" y="-334.3" font-family="Times,serif" font-size="14.00">Dup</text>
</g>
<!-- d2b&#45;&gt;d4b -->
<g id="edge28" class="edge">
<title>d2b&#45;&gt;d4b</title>
<path fill="none" stroke="red" d="M270.8,-481.09C284.78,-460.01 311.06,-422.1 337.5,-393 348.79,-380.57 362.65,-367.95 374.21,-358.04"/>
<ellipse fill="none" stroke="red" cx="377.31" cy="-355.41" rx="4" ry="4"/>
</g>
<!-- x2i_o2f&#45;&gt;f_retf -->
<g id="edge17" class="edge">
<title>x2i_o2f&#45;&gt;f_retf</title>
<path fill="none" stroke="blue" stroke-width="2" d="M100.82,-480.61C94.35,-468.38 85.38,-451.44 77.97,-437.46"/>
<polygon fill="blue" stroke="blue" stroke-width="2" points="80.92,-435.54 73.15,-428.34 74.73,-438.81 80.92,-435.54"/>
</g>
<!-- x2i_o2f&#45;&gt;d2c -->
<g id="edge16" class="edge">
<title>x2i_o2f&#45;&gt;d2c</title>
<path fill="none" stroke="red" d="M129.55,-485.71C155.43,-471.14 200.69,-445.67 230.63,-428.81"/>
<polygon fill="red" stroke="red" points="232.39,-431.84 239.39,-423.88 228.96,-425.74 232.39,-431.84"/>
</g>
<!-- x1_o2 -->
<g id="node22" class="node">
<title>x1_o2</title>
<ellipse fill="none" stroke="black" cx="223.5" cy="-338" rx="27" ry="18"/>
<text text-anchor="middle" x="223.5" y="-334.3" font-family="Times,serif" font-size="14.00">I</text>
</g>
<!-- d2c&#45;&gt;x1_o2 -->
<g id="edge29" class="edge">
<title>d2c&#45;&gt;x1_o2</title>
<path fill="none" stroke="red" d="M251.92,-393.53C247.39,-384.84 241.73,-373.99 236.66,-364.26"/>
<polygon fill="red" stroke="red" points="239.76,-362.63 232.03,-355.38 233.55,-365.86 239.76,-362.63"/>
</g>
<!-- hbg -->
<g id="node18" class="node">
<title>hbg</title>
<ellipse fill="none" stroke="black" cx="299.5" cy="-585" rx="27" ry="18"/>
<text text-anchor="middle" x="299.5" y="-581.3" font-family="Times,serif" font-size="14.00">PiL</text>
</g>
<!-- h_di2g&#45;&gt;hbg -->
<g id="edge20" class="edge">
<title>h_di2g&#45;&gt;hbg</title>
<path fill="none" stroke="blue" d="M338.81,-655.64C334.44,-649.64 329.56,-642.62 325.5,-636 320.77,-628.29 316.07,-619.63 311.99,-611.71"/>
<polygon fill="blue" stroke="blue" points="314.99,-609.89 307.36,-602.53 308.74,-613.04 314.99,-609.89"/>
<text text-anchor="middle" x="330.5" y="-624.8" font-family="Times,serif" font-size="14.00">2</text>
</g>
<!-- hbg&#45;&gt;d2b -->
<g id="edge21" class="edge">
<title>hbg&#45;&gt;d2b</title>
<path fill="none" stroke="red" d="M291.98,-567.61C286.19,-554.99 278.1,-537.36 271.57,-523.13"/>
<ellipse fill="none" stroke="red" cx="269.79" cy="-519.26" rx="4" ry="4"/>
</g>
<!-- x2i_o2g -->
<g id="node19" class="node">
<title>x2i_o2g</title>
<ellipse fill="none" stroke="black" cx="335.5" cy="-498" rx="27" ry="18"/>
<text text-anchor="middle" x="335.5" y="-494.3" font-family="Times,serif" font-size="14.00">PiL</text>
</g>
<!-- hbg&#45;&gt;x2i_o2g -->
<g id="edge22" class="edge">
<title>hbg&#45;&gt;x2i_o2g</title>
<path fill="none" stroke="blue" d="M306.61,-567.21C311.72,-555.14 318.71,-538.64 324.53,-524.89"/>
<polygon fill="blue" stroke="blue" points="327.84,-526.04 328.52,-515.47 321.4,-523.31 327.84,-526.04"/>
<text text-anchor="middle" x="338" y="-537.8" font-family="Times,serif" font-size="14.00">2&#45;&gt;1</text>
</g>
<!-- x2i_o2g&#45;&gt;f_retg -->
<g id="edge24" class="edge">
<title>x2i_o2g&#45;&gt;f_retg</title>
<path fill="none" stroke="blue" d="M342.82,-480.61C348.24,-468.5 355.72,-451.77 361.94,-437.86"/>
<polygon fill="blue" stroke="blue" points="365.31,-438.9 366.19,-428.34 358.92,-436.04 365.31,-438.9"/>
</g>
<!-- x2i_o2g&#45;&gt;d2c -->
<g id="edge23" class="edge">
<title>x2i_o2g&#45;&gt;d2c</title>
<path fill="none" stroke="red" d="M322.43,-482.19C310.53,-468.71 292.82,-448.64 279.38,-433.41"/>
<ellipse fill="none" stroke="red" cx="276.56" cy="-430.21" rx="4" ry="4"/>
</g>
<!-- hi_ret1 -->
<g id="node23" class="node">
<title>hi_ret1</title>
<ellipse fill="none" stroke="black" cx="472.5" cy="-338" rx="27" ry="18"/>
<text text-anchor="middle" x="472.5" y="-334.3" font-family="Times,serif" font-size="14.00">I</text>
</g>
<!-- hi_retpa&#45;&gt;hi_ret1 -->
<g id="edge36" class="edge">
<title>hi_retpa&#45;&gt;hi_ret1</title>
<path fill="none" stroke="red" d="M457.98,-568.32C466.2,-555.04 476.98,-535.14 481.5,-516 493.8,-463.89 485.22,-400.85 478.46,-365.81"/>
<polygon fill="red" stroke="red" points="481.87,-364.98 476.45,-355.88 475,-366.37 481.87,-364.98"/>
<text text-anchor="middle" x="492.5" y="-450.8" font-family="Times,serif" font-size="14.00">2</text>
</g>
<!-- h_di1 -->
<g id="node26" class="node">
<title>h_di1</title>
<ellipse fill="none" stroke="black" cx="445.5" cy="-498" rx="27" ry="18"/>
<text text-anchor="middle" x="445.5" y="-494.3" font-family="Times,serif" font-size="14.00">!d</text>
</g>
<!-- hi_retpa&#45;&gt;h_di1 -->
<g id="edge37" class="edge">
<title>hi_retpa&#45;&gt;h_di1</title>
<path fill="none" stroke="blue" d="M447.09,-566.8C446.82,-555.16 446.45,-539.55 446.14,-526.24"/>
<polygon fill="blue" stroke="blue" points="449.64,-526.09 445.9,-516.18 442.64,-526.26 449.64,-526.09"/>
<text text-anchor="middle" x="451.5" y="-537.8" font-family="Times,serif" font-size="14.00">1</text>
</g>
<!-- h_app -->
<g id="node24" class="node">
<title>h_app</title>
<ellipse fill="none" stroke="black" cx="440.5" cy="-251" rx="27" ry="18"/>
<text text-anchor="middle" x="440.5" y="-247.3" font-family="Times,serif" font-size="14.00">I</text>
</g>
<!-- d4b&#45;&gt;h_app -->
<g id="edge30" class="edge">
<title>d4b&#45;&gt;h_app</title>
<path fill="none" stroke="red" d="M405.79,-320.61C411.97,-308.38 420.54,-291.44 427.62,-277.46"/>
<polygon fill="red" stroke="red" points="430.84,-278.84 432.23,-268.34 424.59,-275.68 430.84,-278.84"/>
</g>
<!-- ha -->
<g id="node25" class="node">
<title>ha</title>
<ellipse fill="none" stroke="black" cx="445.5" cy="-411" rx="27" ry="18"/>
<text text-anchor="middle" x="445.5" y="-407.3" font-family="Times,serif" font-size="14.00">PiL</text>
</g>
<!-- ha&#45;&gt;d4b -->
<g id="edge31" class="edge">
<title>ha&#45;&gt;d4b</title>
<path fill="none" stroke="red" d="M434.84,-394.24C428.78,-385.27 421.04,-373.83 414.19,-363.69"/>
<polygon fill="red" stroke="red" points="416.95,-361.53 408.45,-355.21 411.15,-365.45 416.95,-361.53"/>
</g>
<!-- ha&#45;&gt;hi_ret1 -->
<g id="edge32" class="edge">
<title>ha&#45;&gt;hi_ret1</title>
<path fill="none" stroke="blue" d="M451.9,-393.17C455.06,-384.86 458.94,-374.64 462.49,-365.33"/>
<polygon fill="blue" stroke="blue" points="465.86,-366.3 466.14,-355.71 459.32,-363.81 465.86,-366.3"/>
</g>
<!-- h_di1&#45;&gt;ha -->
<g id="edge33" class="edge">
<title>h_di1&#45;&gt;ha</title>
<path fill="none" stroke="blue" d="M445.5,-479.8C445.5,-468.16 445.5,-452.55 445.5,-439.24"/>
<polygon fill="blue" stroke="blue" points="449,-439.18 445.5,-429.18 442,-439.18 449,-439.18"/>
<text text-anchor="middle" x="450.5" y="-450.8" font-family="Times,serif" font-size="14.00">2</text>
</g>
<!-- c2a -->
<g id="node27" class="node">
<title>c2a</title>
<ellipse fill="none" stroke="black" cx="278.5" cy="-672" rx="27.1" ry="18"/>
<text text-anchor="middle" x="278.5" y="-668.3" font-family="Times,serif" font-size="14.00">Cut</text>
</g>
<!-- c2a&#45;&gt;hi_retpa -->
<g id="edge34" class="edge">
<title>c2a&#45;&gt;hi_retpa</title>
<path fill="none" stroke="red" d="M299.56,-660.41C329.24,-645.48 383.54,-618.17 417.45,-601.11"/>
<polygon fill="red" stroke="red" points="419.07,-604.21 426.44,-596.59 415.93,-597.96 419.07,-604.21"/>
<text text-anchor="middle" x="377.5" y="-624.8" font-family="Times,serif" font-size="14.00">1</text>
</g>
<!-- c2a&#45;&gt;x1_o2 -->
<g id="edge35" class="edge">
<title>c2a&#45;&gt;x1_o2</title>
<path fill="none" stroke="blue" d="M270.35,-654.79C256.98,-627.16 230.9,-568.79 221.5,-516 211.91,-462.18 220.49,-447.66 221.5,-393 221.66,-384.29 221.97,-374.8 222.29,-366.24"/>
<polygon fill="blue" stroke="blue" points="225.8,-366.15 222.71,-356.02 218.8,-365.87 225.8,-366.15"/>
</g>
<!-- c3 -->
<g id="node28" class="node">
<title>c3</title>
<ellipse fill="none" stroke="black" cx="544.5" cy="-338" rx="27.1" ry="18"/>
<text text-anchor="middle" x="544.5" y="-334.3" font-family="Times,serif" font-size="14.00">Cut</text>
</g>
<!-- c3&#45;&gt;h_app -->
<g id="edge39" class="edge">
<title>c3&#45;&gt;h_app</title>
<path fill="none" stroke="blue" d="M527.79,-323.34C510.71,-309.38 484,-287.56 464.63,-271.72"/>
<polygon fill="blue" stroke="blue" points="466.78,-268.96 456.82,-265.34 462.35,-274.38 466.78,-268.96"/>
</g>
<!-- i -->
<g id="node29" class="node">
<title>i</title>
<ellipse fill="none" stroke="black" cx="544.5" cy="-251" rx="27" ry="18"/>
<text text-anchor="middle" x="544.5" y="-247.3" font-family="Times,serif" font-size="14.00">!p</text>
</g>
<!-- c3&#45;&gt;i -->
<g id="edge38" class="edge">
<title>c3&#45;&gt;i</title>
<path fill="none" stroke="red" d="M544.5,-319.8C544.5,-308.16 544.5,-292.55 544.5,-279.24"/>
<polygon fill="red" stroke="red" points="548,-279.18 544.5,-269.18 541,-279.18 548,-279.18"/>
<text text-anchor="middle" x="549.5" y="-290.8" font-family="Times,serif" font-size="14.00">2</text>
</g>
<!-- i_i -->
<g id="node30" class="node">
<title>i_i</title>
<ellipse fill="none" stroke="black" cx="544.5" cy="-164" rx="27" ry="18"/>
<text text-anchor="middle" x="544.5" y="-160.3" font-family="Times,serif" font-size="14.00">PiR</text>
</g>
<!-- i&#45;&gt;i_i -->
<g id="edge40" class="edge">
<title>i&#45;&gt;i_i</title>
<path fill="none" stroke="red" d="M544.5,-232.8C544.5,-221.16 544.5,-205.55 544.5,-192.24"/>
<polygon fill="red" stroke="red" points="548,-192.18 544.5,-182.18 541,-192.18 548,-192.18"/>
<text text-anchor="middle" x="549.5" y="-203.8" font-family="Times,serif" font-size="14.00">3</text>
</g>
<!-- il -->
<g id="node31" class="node">
<title>il</title>
<ellipse fill="none" stroke="black" cx="587.5" cy="-91" rx="27" ry="18"/>
<text text-anchor="middle" x="587.5" y="-87.3" font-family="Times,serif" font-size="14.00">!d</text>
</g>
<!-- i_i&#45;&gt;il -->
<g id="edge41" class="edge">
<title>i_i&#45;&gt;il</title>
<path fill="none" stroke="blue" d="M554.25,-146.89C559.64,-137.99 566.45,-126.75 572.5,-116.77"/>
<polygon fill="blue" stroke="blue" points="575.59,-118.41 577.78,-108.05 569.6,-114.79 575.59,-118.41"/>
</g>
<!-- i_ret -->
<g id="node32" class="node">
<title>i_ret</title>
<ellipse fill="none" stroke="black" cx="544.5" cy="-18" rx="27" ry="18"/>
<text text-anchor="middle" x="544.5" y="-14.3" font-family="Times,serif" font-size="14.00">I</text>
</g>
<!-- i_i&#45;&gt;i_ret -->
<g id="edge42" class="edge">
<title>i_i&#45;&gt;i_ret</title>
<path fill="none" stroke="red" d="M544.5,-145.92C544.5,-121.34 544.5,-75.75 544.5,-46.43"/>
<polygon fill="red" stroke="red" points="548,-46.06 544.5,-36.06 541,-46.06 548,-46.06"/>
</g>
<!-- il&#45;&gt;i_ret -->
<g id="edge43" class="edge">
<title>il&#45;&gt;i_ret</title>
<path fill="none" stroke="blue" d="M577.74,-73.89C572.35,-64.99 565.54,-53.75 559.5,-43.77"/>
<polygon fill="blue" stroke="blue" points="562.39,-41.79 554.22,-35.05 556.4,-45.41 562.39,-41.79"/>
</g>
</g>
</svg>
