<?xml version="1.0" encoding="UTF-8" standalone="no"?>
<!DOCTYPE svg PUBLIC "-//W3C//DTD SVG 1.1//EN"
 "http://www.w3.org/Graphics/SVG/1.1/DTD/svg11.dtd">
<!-- Generated by graphviz version 2.40.1 (20161225.0304)
 -->
<!-- Title: %3 Pages: 1 -->
<svg width="442pt" height="1074pt"
 viewBox="0.00 0.00 442.50 1073.90" xmlns="http://www.w3.org/2000/svg" xmlns:xlink="http://www.w3.org/1999/xlink">
<g id="graph0" class="graph" transform="scale(1 1) rotate(0) translate(4 1069.895)">
<title>%3</title>
<polygon fill="#ffffff" stroke="transparent" points="-4,4 -4,-1069.895 438.4971,-1069.895 438.4971,4 -4,4"/>
<!-- Root -->
<g id="node1" class="node">
<title>Root</title>
<ellipse fill="none" stroke="#000000" cx="32.4971" cy="-773" rx="32.4942" ry="18"/>
<text text-anchor="middle" x="32.4971" y="-769.3" font-family="Times,serif" font-size="14.00" fill="#000000">Root</text>
</g>
<!-- d1 -->
<g id="node2" class="node">
<title>d1</title>
<ellipse fill="none" stroke="#000000" cx="32.4971" cy="-686" rx="29.795" ry="18"/>
<text text-anchor="middle" x="32.4971" y="-682.3" font-family="Times,serif" font-size="14.00" fill="#000000">Dup</text>
</g>
<!-- Root&#45;&gt;d1 -->
<g id="edge1" class="edge">
<title>Root&#45;&gt;d1</title>
<path fill="none" stroke="#ff0000" stroke-width="2" d="M32.4971,-754.9735C32.4971,-743.1918 32.4971,-727.5607 32.4971,-714.1581"/>
<polygon fill="#ff0000" stroke="#ff0000" stroke-width="2" points="35.9972,-714.0033 32.4971,-704.0034 28.9972,-714.0034 35.9972,-714.0033"/>
<text text-anchor="middle" x="49.9971" y="-725.8" font-family="Times,serif" font-size="14.00" fill="#000000">0&#45;&gt;1</text>
</g>
<!-- d2 -->
<g id="node6" class="node">
<title>d2</title>
<ellipse fill="none" stroke="#000000" cx="122.4971" cy="-773" rx="29.795" ry="18"/>
<text text-anchor="middle" x="122.4971" y="-769.3" font-family="Times,serif" font-size="14.00" fill="#000000">Dup</text>
</g>
<!-- d1&#45;&gt;d2 -->
<g id="edge4" class="edge">
<title>d1&#45;&gt;d2</title>
<path fill="none" stroke="#000000" stroke-dasharray="5,2" d="M49.3348,-701.2711C56.2586,-707.6206 64.321,-715.1052 71.4971,-722 83.5965,-733.6251 97.0026,-747.0535 107.0325,-757.2122"/>
</g>
<!-- f_ret -->
<g id="node7" class="node">
<title>f_ret</title>
<ellipse fill="none" stroke="#000000" cx="50.4971" cy="-599" rx="27" ry="18"/>
<text text-anchor="middle" x="50.4971" y="-595.3" font-family="Times,serif" font-size="14.00" fill="#000000">I</text>
</g>
<!-- d1&#45;&gt;f_ret -->
<g id="edge5" class="edge">
<title>d1&#45;&gt;f_ret</title>
<path fill="none" stroke="#ff0000" stroke-width="2" d="M36.2267,-667.9735C38.6643,-656.1918 41.8984,-640.5607 44.6713,-627.1581"/>
<polygon fill="#ff0000" stroke="#ff0000" stroke-width="2" points="48.1736,-627.5051 46.7723,-617.0034 41.3187,-626.0868 48.1736,-627.5051"/>
</g>
<!-- c1a -->
<g id="node3" class="node">
<title>c1a</title>
<ellipse fill="none" stroke="#000000" cx="225.4971" cy="-1047.895" rx="27.8951" ry="18"/>
<text text-anchor="middle" x="225.4971" y="-1044.195" font-family="Times,serif" font-size="14.00" fill="#000000">Cut</text>
</g>
<!-- fp1 -->
<g id="node4" class="node">
<title>fp1</title>
<ellipse fill="none" stroke="#000000" cx="177.4971" cy="-960.895" rx="27" ry="18"/>
<text text-anchor="middle" x="177.4971" y="-957.195" font-family="Times,serif" font-size="14.00" fill="#000000">!p</text>
</g>
<!-- c1a&#45;&gt;fp1 -->
<g id="edge2" class="edge">
<title>c1a&#45;&gt;fp1</title>
<path fill="none" stroke="#ff0000" d="M206.8243,-1034.3327C199.731,-1028.2448 192.2285,-1020.494 187.4971,-1011.895 183.7292,-1005.0472 181.3663,-996.9942 179.8889,-989.3357"/>
<polygon fill="#ff0000" stroke="#ff0000" points="183.3258,-988.6537 178.3744,-979.287 176.4039,-989.697 183.3258,-988.6537"/>
<text text-anchor="middle" x="192.4971" y="-1000.695" font-family="Times,serif" font-size="14.00" fill="#000000">0</text>
</g>
<!-- x1_o1 -->
<g id="node5" class="node">
<title>x1_o1</title>
<ellipse fill="none" stroke="#000000" cx="249.4971" cy="-960.895" rx="27" ry="18"/>
<text text-anchor="middle" x="249.4971" y="-957.195" font-family="Times,serif" font-size="14.00" fill="#000000">I</text>
</g>
<!-- c1a&#45;&gt;x1_o1 -->
<g id="edge3" class="edge">
<title>c1a&#45;&gt;x1_o1</title>
<path fill="none" stroke="#0000ff" d="M230.4699,-1029.8686C233.7741,-1017.8908 238.1759,-1001.9346 241.9134,-988.3862"/>
<polygon fill="#0000ff" stroke="#0000ff" points="245.3274,-989.1714 244.6128,-978.6007 238.5794,-987.3099 245.3274,-989.1714"/>
</g>
<!-- f2 -->
<g id="node10" class="node">
<title>f2</title>
<ellipse fill="none" stroke="#000000" cx="177.4971" cy="-859.9475" rx="27" ry="18"/>
<text text-anchor="middle" x="177.4971" y="-856.2475" font-family="Times,serif" font-size="14.00" fill="#000000">PiR</text>
</g>
<!-- fp1&#45;&gt;f2 -->
<g id="edge11" class="edge">
<title>fp1&#45;&gt;f2</title>
<path fill="none" stroke="#ff0000" d="M177.4971,-942.8476C177.4971,-927.7253 177.4971,-905.8684 177.4971,-888.3938"/>
<polygon fill="#ff0000" stroke="#ff0000" points="180.9972,-888.179 177.4971,-878.179 173.9972,-888.1791 180.9972,-888.179"/>
<text text-anchor="middle" x="182.4971" y="-913.695" font-family="Times,serif" font-size="14.00" fill="#000000">1</text>
</g>
<!-- xdic -->
<g id="node9" class="node">
<title>xdic</title>
<ellipse fill="none" stroke="#000000" cx="253.4971" cy="-686" rx="27" ry="18"/>
<text text-anchor="middle" x="253.4971" y="-682.3" font-family="Times,serif" font-size="14.00" fill="#000000">!c</text>
</g>
<!-- d2&#45;&gt;xdic -->
<g id="edge8" class="edge">
<title>d2&#45;&gt;xdic</title>
<path fill="none" stroke="#0000ff" d="M142.6788,-759.5969C164.9232,-744.8239 200.8452,-720.9673 225.7341,-704.438"/>
<polygon fill="#0000ff" stroke="#0000ff" points="227.9648,-707.1582 234.3588,-698.7102 224.0921,-701.327 227.9648,-707.1582"/>
</g>
<!-- c1bb -->
<g id="node8" class="node">
<title>c1bb</title>
<ellipse fill="none" stroke="#000000" cx="141.4971" cy="-1047.895" rx="27.8951" ry="18"/>
<text text-anchor="middle" x="141.4971" y="-1044.195" font-family="Times,serif" font-size="14.00" fill="#000000">Cut</text>
</g>
<!-- c1bb&#45;&gt;x1_o1 -->
<g id="edge6" class="edge">
<title>c1bb&#45;&gt;x1_o1</title>
<path fill="none" stroke="#ff0000" d="M162.4052,-1035.8595C173.2407,-1029.2784 186.4756,-1020.6901 197.4971,-1011.895 208.1531,-1003.3917 219.0565,-993.0052 228.1089,-983.8298"/>
<polygon fill="#ff0000" stroke="#ff0000" points="230.7888,-986.0937 235.2316,-976.4753 225.7604,-981.2238 230.7888,-986.0937"/>
<text text-anchor="middle" x="218.4971" y="-1000.695" font-family="Times,serif" font-size="14.00" fill="#000000">0</text>
</g>
<!-- c1bb&#45;&gt;d2 -->
<g id="edge7" class="edge">
<title>c1bb&#45;&gt;d2</title>
<path fill="none" stroke="#0000ff" d="M140.2505,-1029.8584C137.0162,-983.0649 128.3378,-857.5034 124.4397,-801.1059"/>
<polygon fill="#0000ff" stroke="#0000ff" points="127.9296,-800.8379 123.7483,-791.103 120.9463,-801.3206 127.9296,-800.8379"/>
<text text-anchor="middle" x="137.4971" y="-913.695" font-family="Times,serif" font-size="14.00" fill="#000000">1</text>
</g>
<!-- hi_retpa -->
<g id="node16" class="node">
<title>hi_retpa</title>
<ellipse fill="none" stroke="#000000" cx="206.4971" cy="-599" rx="27" ry="18"/>
<text text-anchor="middle" x="206.4971" y="-595.3" font-family="Times,serif" font-size="14.00" fill="#000000">!p</text>
</g>
<!-- xdic&#45;&gt;hi_retpa -->
<g id="edge23" class="edge">
<title>xdic&#45;&gt;hi_retpa</title>
<path fill="none" stroke="#0000ff" d="M244.2114,-668.8116C237.4523,-656.3 228.1801,-639.1366 220.521,-624.9592"/>
<polygon fill="#0000ff" stroke="#0000ff" points="223.596,-623.2873 215.7635,-616.1527 217.4372,-626.6145 223.596,-623.2873"/>
<text text-anchor="middle" x="237.4971" y="-638.8" font-family="Times,serif" font-size="14.00" fill="#000000">1</text>
</g>
<!-- hi_retpb -->
<g id="node19" class="node">
<title>hi_retpb</title>
<ellipse fill="none" stroke="#000000" cx="287.4971" cy="-599" rx="27" ry="18"/>
<text text-anchor="middle" x="287.4971" y="-595.3" font-family="Times,serif" font-size="14.00" fill="#000000">!p</text>
</g>
<!-- xdic&#45;&gt;hi_retpb -->
<g id="edge24" class="edge">
<title>xdic&#45;&gt;hi_retpb</title>
<path fill="none" stroke="#0000ff" d="M260.3775,-668.3943C265.1243,-656.2482 271.5259,-639.8674 276.9176,-626.0711"/>
<polygon fill="#0000ff" stroke="#0000ff" points="280.2468,-627.1676 280.6269,-616.5796 273.727,-624.6196 280.2468,-627.1676"/>
<text text-anchor="middle" x="277.4971" y="-638.8" font-family="Times,serif" font-size="14.00" fill="#000000">1</text>
</g>
<!-- f2&#45;&gt;d1 -->
<g id="edge9" class="edge">
<title>f2&#45;&gt;d1</title>
<path fill="none" stroke="#ff0000" d="M179.3711,-841.8252C180.7304,-819.3612 179.799,-780.8838 161.4971,-755 155.217,-746.1183 99.5728,-718.2239 63.4455,-700.7407"/>
<ellipse fill="none" stroke="#ff0000" cx="59.6604" cy="-698.9158" rx="4" ry="4"/>
</g>
<!-- f2&#45;&gt;d2 -->
<g id="edge10" class="edge">
<title>f2&#45;&gt;d2</title>
<path fill="none" stroke="#0000ff" d="M166.8926,-843.1832C158.5765,-830.0367 146.8951,-811.5698 137.6018,-796.8785"/>
<ellipse fill="none" stroke="#0000ff" cx="135.3952" cy="-793.39" rx="4" ry="4"/>
</g>
<!-- d3 -->
<g id="node11" class="node">
<title>d3</title>
<ellipse fill="none" stroke="#000000" cx="199.4971" cy="-512" rx="29.795" ry="18"/>
<text text-anchor="middle" x="199.4971" y="-508.3" font-family="Times,serif" font-size="14.00" fill="#000000">Dup</text>
</g>
<!-- d4 -->
<g id="node12" class="node">
<title>d4</title>
<ellipse fill="none" stroke="#000000" cx="294.4971" cy="-512" rx="29.795" ry="18"/>
<text text-anchor="middle" x="294.4971" y="-508.3" font-family="Times,serif" font-size="14.00" fill="#000000">Dup</text>
</g>
<!-- d3&#45;&gt;d4 -->
<g id="edge12" class="edge">
<title>d3&#45;&gt;d4</title>
<path fill="none" stroke="#000000" stroke-dasharray="5,2" d="M229.5557,-512C241.2249,-512 252.894,-512 264.5632,-512"/>
</g>
<!-- hi_ret -->
<g id="node13" class="node">
<title>hi_ret</title>
<ellipse fill="none" stroke="#000000" cx="217.4971" cy="-251" rx="27" ry="18"/>
<text text-anchor="middle" x="217.4971" y="-247.3" font-family="Times,serif" font-size="14.00" fill="#000000">I</text>
</g>
<!-- d3&#45;&gt;hi_ret -->
<g id="edge13" class="edge">
<title>d3&#45;&gt;hi_ret</title>
<path fill="none" stroke="#ff0000" d="M200.7628,-493.647C203.8623,-448.7053 211.8487,-332.9017 215.5547,-279.1653"/>
<polygon fill="#ff0000" stroke="#ff0000" points="219.0603,-279.2034 216.2567,-268.9862 212.0769,-278.7217 219.0603,-279.2034"/>
</g>
<!-- h_di -->
<g id="node14" class="node">
<title>h_di</title>
<ellipse fill="none" stroke="#000000" cx="293.4971" cy="-425" rx="27" ry="18"/>
<text text-anchor="middle" x="293.4971" y="-421.3" font-family="Times,serif" font-size="14.00" fill="#000000">!d</text>
</g>
<!-- d4&#45;&gt;h_di -->
<g id="edge14" class="edge">
<title>d4&#45;&gt;h_di</title>
<path fill="none" stroke="#0000ff" d="M294.2899,-493.9735C294.1545,-482.1918 293.9748,-466.5607 293.8208,-453.1581"/>
<polygon fill="#0000ff" stroke="#0000ff" points="297.3189,-452.9624 293.7041,-443.0034 290.3193,-453.043 297.3189,-452.9624"/>
<text text-anchor="middle" x="298.4971" y="-464.8" font-family="Times,serif" font-size="14.00" fill="#000000">1</text>
</g>
<!-- h -->
<g id="node22" class="node">
<title>h</title>
<ellipse fill="none" stroke="#000000" cx="291.4971" cy="-338" rx="27" ry="18"/>
<text text-anchor="middle" x="291.4971" y="-334.3" font-family="Times,serif" font-size="14.00" fill="#000000">PiL</text>
</g>
<!-- h_di&#45;&gt;h -->
<g id="edge28" class="edge">
<title>h_di&#45;&gt;h</title>
<path fill="none" stroke="#0000ff" d="M293.0827,-406.9735C292.8119,-395.1918 292.4525,-379.5607 292.1444,-366.1581"/>
<polygon fill="#0000ff" stroke="#0000ff" points="295.64,-365.9202 291.911,-356.0034 288.6418,-366.0812 295.64,-365.9202"/>
<text text-anchor="middle" x="297.4971" y="-377.8" font-family="Times,serif" font-size="14.00" fill="#000000">2</text>
</g>
<!-- c2a -->
<g id="node15" class="node">
<title>c2a</title>
<ellipse fill="none" stroke="#000000" cx="180.4971" cy="-686" rx="27.8951" ry="18"/>
<text text-anchor="middle" x="180.4971" y="-682.3" font-family="Times,serif" font-size="14.00" fill="#000000">Cut</text>
</g>
<!-- c2a&#45;&gt;hi_retpa -->
<g id="edge15" class="edge">
<title>c2a&#45;&gt;hi_retpa</title>
<path fill="none" stroke="#ff0000" d="M185.8843,-667.9735C189.4639,-655.9958 194.2324,-640.0396 198.2814,-626.4912"/>
<polygon fill="#ff0000" stroke="#ff0000" points="201.6958,-627.2892 201.2058,-616.7057 194.9889,-625.2848 201.6958,-627.2892"/>
<text text-anchor="middle" x="199.4971" y="-638.8" font-family="Times,serif" font-size="14.00" fill="#000000">1</text>
</g>
<!-- x1_o2 -->
<g id="node17" class="node">
<title>x1_o2</title>
<ellipse fill="none" stroke="#000000" cx="130.4971" cy="-599" rx="27" ry="18"/>
<text text-anchor="middle" x="130.4971" y="-595.3" font-family="Times,serif" font-size="14.00" fill="#000000">I</text>
</g>
<!-- c2a&#45;&gt;x1_o2 -->
<g id="edge16" class="edge">
<title>c2a&#45;&gt;x1_o2</title>
<path fill="none" stroke="#0000ff" d="M170.6187,-668.8116C163.3814,-656.2187 153.4359,-638.9135 145.2577,-624.6834"/>
<polygon fill="#0000ff" stroke="#0000ff" points="148.2023,-622.7828 140.1849,-615.8567 142.1332,-626.2708 148.2023,-622.7828"/>
</g>
<!-- hi_retpa&#45;&gt;d3 -->
<g id="edge19" class="edge">
<title>hi_retpa&#45;&gt;d3</title>
<path fill="none" stroke="#ff0000" d="M201.7298,-581.1838C200.4069,-575.4252 199.1538,-568.9824 198.4971,-563 197.6827,-555.5807 197.5129,-547.5189 197.6516,-540.0417"/>
<polygon fill="#ff0000" stroke="#ff0000" points="201.1513,-540.1093 198.018,-529.9885 194.156,-539.8543 201.1513,-540.1093"/>
<text text-anchor="middle" x="203.4971" y="-551.8" font-family="Times,serif" font-size="14.00" fill="#000000">2</text>
</g>
<!-- hi_retpa&#45;&gt;d4 -->
<g id="edge20" class="edge">
<title>hi_retpa&#45;&gt;d4</title>
<path fill="none" stroke="#0000ff" d="M221.8255,-583.8458C235.5367,-570.2904 255.8272,-550.2305 271.4859,-534.7497"/>
<polygon fill="#0000ff" stroke="#0000ff" points="274.1011,-537.086 278.7518,-527.5664 269.1797,-532.108 274.1011,-537.086"/>
<text text-anchor="middle" x="260.4971" y="-551.8" font-family="Times,serif" font-size="14.00" fill="#000000">1</text>
</g>
<!-- c2b -->
<g id="node18" class="node">
<title>c2b</title>
<ellipse fill="none" stroke="#000000" cx="268.4971" cy="-859.9475" rx="27.9017" ry="27.9017"/>
<ellipse fill="none" stroke="#000000" cx="268.4971" cy="-859.9475" rx="31.8951" ry="31.8951"/>
<text text-anchor="middle" x="268.4971" y="-856.2475" font-family="Times,serif" font-size="14.00" fill="#000000">Cut</text>
</g>
<!-- c2b&#45;&gt;hi_retpb -->
<g id="edge17" class="edge">
<title>c2b&#45;&gt;hi_retpb</title>
<path fill="none" stroke="#ff0000" d="M274.4533,-828.4414C276.5454,-816.7148 278.796,-803.2757 280.4971,-791 285.833,-752.4949 287.4945,-742.8214 289.4971,-704 290.3214,-688.0212 289.7289,-683.9983 289.4971,-668 289.3037,-654.654 288.9001,-639.8605 288.5057,-627.4052"/>
<polygon fill="#ff0000" stroke="#ff0000" points="291.9955,-627.0355 288.167,-617.1565 284.9993,-627.2667 291.9955,-627.0355"/>
<text text-anchor="middle" x="292.4971" y="-725.8" font-family="Times,serif" font-size="14.00" fill="#000000">1</text>
</g>
<!-- x2_o2 -->
<g id="node20" class="node">
<title>x2_o2</title>
<ellipse fill="none" stroke="#000000" cx="244.4971" cy="-773" rx="27" ry="18"/>
<text text-anchor="middle" x="244.4971" y="-769.3" font-family="Times,serif" font-size="14.00" fill="#000000">!d</text>
</g>
<!-- c2b&#45;&gt;x2_o2 -->
<g id="edge18" class="edge">
<title>c2b&#45;&gt;x2_o2</title>
<path fill="none" stroke="#0000ff" stroke-width="2" d="M259.968,-829.0483C257.4033,-819.7566 254.6071,-809.6265 252.1061,-800.5658"/>
<polygon fill="#0000ff" stroke="#0000ff" stroke-width="2" points="255.4705,-799.6003 249.4358,-790.8921 248.7229,-801.4629 255.4705,-799.6003"/>
</g>
<!-- hi_retpb&#45;&gt;d3 -->
<g id="edge21" class="edge">
<title>hi_retpb&#45;&gt;d3</title>
<path fill="none" stroke="#ff0000" d="M265.4999,-588.2591C254.1418,-581.9783 240.5891,-573.2666 230.4971,-563 223.0065,-555.3798 216.5203,-545.623 211.4449,-536.6875"/>
<ellipse fill="none" stroke="#ff0000" cx="209.4262" cy="-532.9576" rx="4" ry="4"/>
<text text-anchor="middle" x="235.4971" y="-551.8" font-family="Times,serif" font-size="14.00" fill="#000000">2</text>
</g>
<!-- hi_retpb&#45;&gt;d4 -->
<g id="edge22" class="edge">
<title>hi_retpb&#45;&gt;d4</title>
<path fill="none" stroke="#0000ff" d="M288.9475,-580.9735C289.9424,-568.6085 291.2784,-552.0036 292.3903,-538.1847"/>
<ellipse fill="none" stroke="#0000ff" cx="292.7277" cy="-533.9905" rx="4" ry="4"/>
<text text-anchor="middle" x="295.4971" y="-551.8" font-family="Times,serif" font-size="14.00" fill="#000000">1</text>
</g>
<!-- x2i_o2 -->
<g id="node21" class="node">
<title>x2i_o2</title>
<ellipse fill="none" stroke="#000000" cx="107.4971" cy="-686" rx="27" ry="18"/>
<text text-anchor="middle" x="107.4971" y="-682.3" font-family="Times,serif" font-size="14.00" fill="#000000">PiL</text>
</g>
<!-- x2_o2&#45;&gt;x2i_o2 -->
<g id="edge25" class="edge">
<title>x2_o2&#45;&gt;x2i_o2</title>
<path fill="none" stroke="#0000ff" stroke-width="2" d="M232.0203,-756.8212C222.7183,-745.7063 209.1372,-731.3281 194.4971,-722 174.2253,-709.0836 165.6229,-713.393 143.4971,-704 141.7122,-703.2423 139.8913,-702.4373 138.063,-701.6042"/>
<polygon fill="#0000ff" stroke="#0000ff" stroke-width="2" points="139.5289,-698.4258 128.9948,-697.2935 136.5237,-704.7479 139.5289,-698.4258"/>
</g>
<!-- x2i_o2&#45;&gt;f_ret -->
<g id="edge27" class="edge">
<title>x2i_o2&#45;&gt;f_ret</title>
<path fill="none" stroke="#0000ff" stroke-width="2" d="M96.5069,-669.2255C88.1483,-656.4677 76.509,-638.7024 67.0287,-624.2325"/>
<polygon fill="#0000ff" stroke="#0000ff" stroke-width="2" points="69.8615,-622.1695 61.4536,-615.723 64.0062,-626.0057 69.8615,-622.1695"/>
</g>
<!-- x2i_o2&#45;&gt;x1_o2 -->
<g id="edge26" class="edge">
<title>x2i_o2&#45;&gt;x1_o2</title>
<path fill="none" stroke="#ff0000" d="M112.2627,-667.9735C115.4083,-656.0751 119.5917,-640.2508 123.1581,-626.7606"/>
<polygon fill="#ff0000" stroke="#ff0000" points="126.5654,-627.5658 125.7376,-617.0034 119.7979,-625.7766 126.5654,-627.5658"/>
</g>
<!-- h&#45;&gt;hi_ret -->
<g id="edge36" class="edge">
<title>h&#45;&gt;hi_ret</title>
<path fill="none" stroke="#0000ff" d="M277.9244,-322.0429C266.6586,-308.798 250.4704,-289.7659 237.6843,-274.7336"/>
<polygon fill="#0000ff" stroke="#0000ff" points="240.1289,-272.2056 230.9838,-266.856 234.7968,-276.7409 240.1289,-272.2056"/>
</g>
<!-- h_app -->
<g id="node25" class="node">
<title>h_app</title>
<ellipse fill="none" stroke="#000000" cx="292.4971" cy="-251" rx="27" ry="18"/>
<text text-anchor="middle" x="292.4971" y="-247.3" font-family="Times,serif" font-size="14.00" fill="#000000">I</text>
</g>
<!-- h&#45;&gt;h_app -->
<g id="edge35" class="edge">
<title>h&#45;&gt;h_app</title>
<path fill="none" stroke="#ff0000" d="M291.7043,-319.9735C291.8397,-308.1918 292.0194,-292.5607 292.1735,-279.1581"/>
<polygon fill="#ff0000" stroke="#ff0000" points="295.6749,-279.043 292.2902,-269.0034 288.6754,-278.9624 295.6749,-279.043"/>
</g>
<!-- c3 -->
<g id="node23" class="node">
<title>c3</title>
<ellipse fill="none" stroke="#000000" cx="364.4971" cy="-338" rx="27.8951" ry="18"/>
<text text-anchor="middle" x="364.4971" y="-334.3" font-family="Times,serif" font-size="14.00" fill="#000000">Cut</text>
</g>
<!-- i -->
<g id="node24" class="node">
<title>i</title>
<ellipse fill="none" stroke="#000000" cx="364.4971" cy="-251" rx="27" ry="18"/>
<text text-anchor="middle" x="364.4971" y="-247.3" font-family="Times,serif" font-size="14.00" fill="#000000">!p</text>
</g>
<!-- c3&#45;&gt;i -->
<g id="edge29" class="edge">
<title>c3&#45;&gt;i</title>
<path fill="none" stroke="#ff0000" d="M364.4971,-319.9735C364.4971,-308.1918 364.4971,-292.5607 364.4971,-279.1581"/>
<polygon fill="#ff0000" stroke="#ff0000" points="367.9972,-279.0033 364.4971,-269.0034 360.9972,-279.0034 367.9972,-279.0033"/>
<text text-anchor="middle" x="369.4971" y="-290.8" font-family="Times,serif" font-size="14.00" fill="#000000">2</text>
</g>
<!-- c3&#45;&gt;h_app -->
<g id="edge30" class="edge">
<title>c3&#45;&gt;h_app</title>
<path fill="none" stroke="#0000ff" d="M351.2912,-322.0429C340.33,-308.798 324.5793,-289.7659 312.1387,-274.7336"/>
<polygon fill="#0000ff" stroke="#0000ff" points="314.6914,-272.3284 305.6193,-266.856 309.2986,-276.7914 314.6914,-272.3284"/>
</g>
<!-- i_i -->
<g id="node26" class="node">
<title>i_i</title>
<ellipse fill="none" stroke="#000000" cx="364.4971" cy="-164" rx="27" ry="18"/>
<text text-anchor="middle" x="364.4971" y="-160.3" font-family="Times,serif" font-size="14.00" fill="#000000">PiR</text>
</g>
<!-- i&#45;&gt;i_i -->
<g id="edge31" class="edge">
<title>i&#45;&gt;i_i</title>
<path fill="none" stroke="#ff0000" d="M364.4971,-232.9735C364.4971,-221.1918 364.4971,-205.5607 364.4971,-192.1581"/>
<polygon fill="#ff0000" stroke="#ff0000" points="367.9972,-192.0033 364.4971,-182.0034 360.9972,-192.0034 367.9972,-192.0033"/>
<text text-anchor="middle" x="369.4971" y="-203.8" font-family="Times,serif" font-size="14.00" fill="#000000">3</text>
</g>
<!-- il -->
<g id="node27" class="node">
<title>il</title>
<ellipse fill="none" stroke="#000000" cx="407.4971" cy="-91" rx="27" ry="18"/>
<text text-anchor="middle" x="407.4971" y="-87.3" font-family="Times,serif" font-size="14.00" fill="#000000">!d</text>
</g>
<!-- i_i&#45;&gt;il -->
<g id="edge32" class="edge">
<title>i_i&#45;&gt;il</title>
<path fill="none" stroke="#0000ff" d="M374.4703,-147.0688C379.7889,-138.0396 386.4436,-126.742 392.3832,-116.6585"/>
<polygon fill="#0000ff" stroke="#0000ff" points="395.5184,-118.232 397.5781,-107.8393 389.4869,-114.6793 395.5184,-118.232"/>
</g>
<!-- i_ret -->
<g id="node28" class="node">
<title>i_ret</title>
<ellipse fill="none" stroke="#000000" cx="364.4971" cy="-18" rx="27" ry="18"/>
<text text-anchor="middle" x="364.4971" y="-14.3" font-family="Times,serif" font-size="14.00" fill="#000000">I</text>
</g>
<!-- i_i&#45;&gt;i_ret -->
<g id="edge33" class="edge">
<title>i_i&#45;&gt;i_ret</title>
<path fill="none" stroke="#ff0000" d="M364.4971,-145.8042C364.4971,-120.8868 364.4971,-75.8938 364.4971,-46.4877"/>
<polygon fill="#ff0000" stroke="#ff0000" points="367.9972,-46.4251 364.4971,-36.4251 360.9972,-46.4251 367.9972,-46.4251"/>
</g>
<!-- il&#45;&gt;i_ret -->
<g id="edge34" class="edge">
<title>il&#45;&gt;i_ret</title>
<path fill="none" stroke="#0000ff" d="M397.524,-74.0688C392.2054,-65.0396 385.5506,-53.742 379.611,-43.6585"/>
<polygon fill="#0000ff" stroke="#0000ff" points="382.5073,-41.6793 374.4162,-34.8393 376.4759,-45.232 382.5073,-41.6793"/>
</g>
</g>
</svg>
