<?xml version="1.0" encoding="UTF-8" standalone="no"?>
<!DOCTYPE svg PUBLIC "-//W3C//DTD SVG 1.1//EN"
 "http://www.w3.org/Graphics/SVG/1.1/DTD/svg11.dtd">
<!-- Generated by graphviz version 2.43.0 (0)
 -->
<!-- Title: %3 Pages: 1 -->
<svg width="515pt" height="826pt"
 viewBox="0.00 0.00 515.50 825.60" xmlns="http://www.w3.org/2000/svg" xmlns:xlink="http://www.w3.org/1999/xlink">
<g id="graph0" class="graph" transform="scale(1 1) rotate(0) translate(4 821.6)">
<title>%3</title>
<polygon fill="white" stroke="transparent" points="-4,4 -4,-821.6 511.5,-821.6 511.5,4 -4,4"/>
<!-- Root -->
<g id="node1" class="node">
<title>Root</title>
<ellipse fill="none" stroke="black" cx="32.5" cy="-512" rx="32.49" ry="18"/>
<text text-anchor="middle" x="32.5" y="-508.3" font-family="Times,serif" font-size="14.00">Root</text>
</g>
<!-- ret -->
<g id="node2" class="node">
<title>ret</title>
<ellipse fill="none" stroke="black" cx="59.5" cy="-425" rx="27" ry="18"/>
<text text-anchor="middle" x="59.5" y="-421.3" font-family="Times,serif" font-size="14.00">I</text>
</g>
<!-- Root&#45;&gt;ret -->
<g id="edge1" class="edge">
<title>Root&#45;&gt;ret</title>
<path fill="none" stroke="red" stroke-width="2" d="M37.83,-494.21C41.6,-482.33 46.74,-466.17 51.06,-452.56"/>
<polygon fill="red" stroke="red" stroke-width="2" points="54.48,-453.35 54.17,-442.76 47.81,-451.23 54.48,-453.35"/>
</g>
<!-- c1b -->
<g id="node3" class="node">
<title>c1b</title>
<ellipse fill="none" stroke="black" cx="200.5" cy="-786.3" rx="27.12" ry="27.12"/>
<ellipse fill="none" stroke="black" cx="200.5" cy="-786.3" rx="31.1" ry="31.1"/>
<text text-anchor="middle" x="200.5" y="-782.6" font-family="Times,serif" font-size="14.00">Cut</text>
</g>
<!-- fp -->
<g id="node4" class="node">
<title>fp</title>
<ellipse fill="none" stroke="black" cx="237.5" cy="-686" rx="27" ry="18"/>
<text text-anchor="middle" x="237.5" y="-682.3" font-family="Times,serif" font-size="14.00">!p</text>
</g>
<!-- c1b&#45;&gt;fp -->
<g id="edge2" class="edge">
<title>c1b&#45;&gt;fp</title>
<path fill="none" stroke="red" d="M211.2,-756.87C216.37,-743.13 222.53,-726.75 227.6,-713.31"/>
<polygon fill="red" stroke="red" points="230.97,-714.28 231.22,-703.69 224.42,-711.81 230.97,-714.28"/>
<text text-anchor="middle" x="228.5" y="-725.8" font-family="Times,serif" font-size="14.00">0</text>
</g>
<!-- x_o1 -->
<g id="node5" class="node">
<title>x_o1</title>
<ellipse fill="none" stroke="black" cx="164.5" cy="-686" rx="27" ry="18"/>
<text text-anchor="middle" x="164.5" y="-682.3" font-family="Times,serif" font-size="14.00">!c</text>
</g>
<!-- c1b&#45;&gt;x_o1 -->
<g id="edge3" class="edge">
<title>c1b&#45;&gt;x_o1</title>
<path fill="none" stroke="blue" stroke-width="2" d="M189.99,-756.6C184.96,-742.87 178.98,-726.56 174.08,-713.17"/>
<polygon fill="blue" stroke="blue" stroke-width="2" points="177.3,-711.78 170.58,-703.6 170.73,-714.19 177.3,-711.78"/>
</g>
<!-- f -->
<g id="node9" class="node">
<title>f</title>
<ellipse fill="none" stroke="black" cx="238.5" cy="-599" rx="27" ry="18"/>
<text text-anchor="middle" x="238.5" y="-595.3" font-family="Times,serif" font-size="14.00">PiR</text>
</g>
<!-- fp&#45;&gt;f -->
<g id="edge9" class="edge">
<title>fp&#45;&gt;f</title>
<path fill="none" stroke="red" d="M237.7,-667.8C237.84,-656.16 238.02,-640.55 238.18,-627.24"/>
<polygon fill="red" stroke="red" points="241.68,-627.22 238.3,-617.18 234.68,-627.13 241.68,-627.22"/>
<text text-anchor="middle" x="243.5" y="-638.8" font-family="Times,serif" font-size="14.00">1</text>
</g>
<!-- x1_o1 -->
<g id="node6" class="node">
<title>x1_o1</title>
<ellipse fill="none" stroke="black" cx="133.5" cy="-425" rx="27" ry="18"/>
<text text-anchor="middle" x="133.5" y="-421.3" font-family="Times,serif" font-size="14.00">I</text>
</g>
<!-- x_o1&#45;&gt;x1_o1 -->
<g id="edge4" class="edge">
<title>x_o1&#45;&gt;x1_o1</title>
<path fill="none" stroke="blue" d="M163.23,-667.83C160.65,-634.31 154.3,-557.88 145.5,-494 143.64,-480.5 141.06,-465.58 138.77,-453.16"/>
<polygon fill="blue" stroke="blue" points="142.15,-452.17 136.86,-442.99 135.27,-453.47 142.15,-452.17"/>
</g>
<!-- x2_o1 -->
<g id="node7" class="node">
<title>x2_o1</title>
<ellipse fill="none" stroke="black" cx="109.5" cy="-599" rx="27" ry="18"/>
<text text-anchor="middle" x="109.5" y="-595.3" font-family="Times,serif" font-size="14.00">!d</text>
</g>
<!-- x_o1&#45;&gt;x2_o1 -->
<g id="edge5" class="edge">
<title>x_o1&#45;&gt;x2_o1</title>
<path fill="none" stroke="blue" stroke-width="2" d="M154.15,-669.01C146.01,-656.43 134.52,-638.68 125.24,-624.33"/>
<polygon fill="blue" stroke="blue" stroke-width="2" points="128.17,-622.41 119.8,-615.92 122.29,-626.21 128.17,-622.41"/>
</g>
<!-- x2i_o1 -->
<g id="node8" class="node">
<title>x2i_o1</title>
<ellipse fill="none" stroke="black" cx="109.5" cy="-512" rx="27" ry="18"/>
<text text-anchor="middle" x="109.5" y="-508.3" font-family="Times,serif" font-size="14.00">PiL</text>
</g>
<!-- x2_o1&#45;&gt;x2i_o1 -->
<g id="edge6" class="edge">
<title>x2_o1&#45;&gt;x2i_o1</title>
<path fill="none" stroke="blue" stroke-width="2" d="M109.5,-580.8C109.5,-569.16 109.5,-553.55 109.5,-540.24"/>
<polygon fill="blue" stroke="blue" stroke-width="2" points="113,-540.18 109.5,-530.18 106,-540.18 113,-540.18"/>
</g>
<!-- x2i_o1&#45;&gt;ret -->
<g id="edge8" class="edge">
<title>x2i_o1&#45;&gt;ret</title>
<path fill="none" stroke="blue" stroke-width="2" d="M100.09,-495.01C92.76,-482.55 82.45,-465.01 74.05,-450.74"/>
<polygon fill="blue" stroke="blue" stroke-width="2" points="76.95,-448.76 68.86,-441.92 70.91,-452.31 76.95,-448.76"/>
</g>
<!-- x2i_o1&#45;&gt;x1_o1 -->
<g id="edge7" class="edge">
<title>x2i_o1&#45;&gt;x1_o1</title>
<path fill="none" stroke="red" d="M114.24,-494.21C117.59,-482.33 122.16,-466.17 126,-452.56"/>
<polygon fill="red" stroke="red" points="129.42,-453.33 128.77,-442.76 122.68,-451.43 129.42,-453.33"/>
</g>
<!-- hi_retp -->
<g id="node10" class="node">
<title>hi_retp</title>
<ellipse fill="none" stroke="black" cx="238.5" cy="-512" rx="27" ry="18"/>
<text text-anchor="middle" x="238.5" y="-508.3" font-family="Times,serif" font-size="14.00">!p</text>
</g>
<!-- f&#45;&gt;hi_retp -->
<g id="edge10" class="edge">
<title>f&#45;&gt;hi_retp</title>
<path fill="none" stroke="blue" d="M238.5,-580.8C238.5,-569.16 238.5,-553.55 238.5,-540.24"/>
<polygon fill="blue" stroke="blue" points="242,-540.18 238.5,-530.18 235,-540.18 242,-540.18"/>
<text text-anchor="middle" x="243.5" y="-551.8" font-family="Times,serif" font-size="14.00">1</text>
</g>
<!-- f_ret -->
<g id="node11" class="node">
<title>f_ret</title>
<ellipse fill="none" stroke="black" cx="316.5" cy="-512" rx="27" ry="18"/>
<text text-anchor="middle" x="316.5" y="-508.3" font-family="Times,serif" font-size="14.00">I</text>
</g>
<!-- f&#45;&gt;f_ret -->
<g id="edge11" class="edge">
<title>f&#45;&gt;f_ret</title>
<path fill="none" stroke="red" d="M256.67,-585.49C265.04,-579.26 274.8,-571.3 282.5,-563 289.52,-555.43 296.17,-546.29 301.69,-537.91"/>
<polygon fill="red" stroke="red" points="304.81,-539.54 307.21,-529.22 298.9,-535.78 304.81,-539.54"/>
</g>
<!-- hi_ret -->
<g id="node20" class="node">
<title>hi_ret</title>
<ellipse fill="none" stroke="black" cx="189.5" cy="-251" rx="27" ry="18"/>
<text text-anchor="middle" x="189.5" y="-247.3" font-family="Times,serif" font-size="14.00">I</text>
</g>
<!-- hi_retp&#45;&gt;hi_ret -->
<g id="edge23" class="edge">
<title>hi_retp&#45;&gt;hi_ret</title>
<path fill="none" stroke="red" d="M229.58,-494.76C222.62,-481.31 213.36,-461.47 208.5,-443 193.52,-386.1 190.17,-316.83 189.52,-279.32"/>
<polygon fill="red" stroke="red" points="193.02,-279.14 189.41,-269.18 186.02,-279.22 193.02,-279.14"/>
<text text-anchor="middle" x="203.5" y="-377.8" font-family="Times,serif" font-size="14.00">2</text>
</g>
<!-- h_di -->
<g id="node21" class="node">
<title>h_di</title>
<ellipse fill="none" stroke="black" cx="244.5" cy="-425" rx="27" ry="18"/>
<text text-anchor="middle" x="244.5" y="-421.3" font-family="Times,serif" font-size="14.00">!d</text>
</g>
<!-- hi_retp&#45;&gt;h_di -->
<g id="edge24" class="edge">
<title>hi_retp&#45;&gt;h_di</title>
<path fill="none" stroke="blue" d="M239.71,-493.8C240.53,-482.16 241.63,-466.55 242.57,-453.24"/>
<polygon fill="blue" stroke="blue" points="246.07,-453.4 243.28,-443.18 239.09,-452.9 246.07,-453.4"/>
<text text-anchor="middle" x="247.5" y="-464.8" font-family="Times,serif" font-size="14.00">1</text>
</g>
<!-- c2 -->
<g id="node12" class="node">
<title>c2</title>
<ellipse fill="none" stroke="black" cx="374.5" cy="-686" rx="27.1" ry="18"/>
<text text-anchor="middle" x="374.5" y="-682.3" font-family="Times,serif" font-size="14.00">Cut</text>
</g>
<!-- o2 -->
<g id="node13" class="node">
<title>o2</title>
<ellipse fill="none" stroke="black" cx="411.5" cy="-599" rx="27" ry="18"/>
<text text-anchor="middle" x="411.5" y="-595.3" font-family="Times,serif" font-size="14.00">PiR</text>
</g>
<!-- c2&#45;&gt;o2 -->
<g id="edge12" class="edge">
<title>c2&#45;&gt;o2</title>
<path fill="none" stroke="red" d="M381.63,-668.61C386.87,-656.58 394.09,-639.98 400.12,-626.13"/>
<polygon fill="red" stroke="red" points="403.48,-627.19 404.26,-616.63 397.06,-624.4 403.48,-627.19"/>
</g>
<!-- o2l -->
<g id="node14" class="node">
<title>o2l</title>
<ellipse fill="none" stroke="black" cx="321.5" cy="-599" rx="27" ry="18"/>
<text text-anchor="middle" x="321.5" y="-595.3" font-family="Times,serif" font-size="14.00">PiL</text>
</g>
<!-- c2&#45;&gt;o2l -->
<g id="edge13" class="edge">
<title>c2&#45;&gt;o2l</title>
<path fill="none" stroke="blue" d="M364.53,-669.01C356.76,-656.55 345.82,-639.01 336.92,-624.74"/>
<polygon fill="blue" stroke="blue" points="339.68,-622.55 331.42,-615.92 333.74,-626.25 339.68,-622.55"/>
</g>
<!-- x_o2 -->
<g id="node15" class="node">
<title>x_o2</title>
<ellipse fill="none" stroke="black" cx="411.5" cy="-512" rx="27" ry="18"/>
<text text-anchor="middle" x="411.5" y="-508.3" font-family="Times,serif" font-size="14.00">!c</text>
</g>
<!-- o2&#45;&gt;x_o2 -->
<g id="edge14" class="edge">
<title>o2&#45;&gt;x_o2</title>
<path fill="none" stroke="blue" d="M411.5,-580.8C411.5,-569.16 411.5,-553.55 411.5,-540.24"/>
<polygon fill="blue" stroke="blue" points="415,-540.18 411.5,-530.18 408,-540.18 415,-540.18"/>
</g>
<!-- ret_o2 -->
<g id="node16" class="node">
<title>ret_o2</title>
<ellipse fill="none" stroke="black" cx="480.5" cy="-251" rx="27" ry="18"/>
<text text-anchor="middle" x="480.5" y="-247.3" font-family="Times,serif" font-size="14.00">I</text>
</g>
<!-- o2&#45;&gt;ret_o2 -->
<g id="edge15" class="edge">
<title>o2&#45;&gt;ret_o2</title>
<path fill="none" stroke="red" d="M430.62,-586.16C451.35,-571.69 481.5,-545.12 481.5,-513 481.5,-513 481.5,-513 481.5,-337 481.5,-317.75 481.24,-296.05 480.98,-279.4"/>
<polygon fill="red" stroke="red" points="484.48,-279.2 480.82,-269.26 477.48,-279.31 484.48,-279.2"/>
</g>
<!-- o2l&#45;&gt;hi_retp -->
<g id="edge21" class="edge">
<title>o2l&#45;&gt;hi_retp</title>
<path fill="none" stroke="red" d="M307.42,-583.58C294.42,-570.27 274.93,-550.31 259.99,-535.01"/>
<polygon fill="red" stroke="red" points="262.14,-532.2 252.65,-527.49 257.13,-537.09 262.14,-532.2"/>
<text text-anchor="middle" x="290.5" y="-551.8" font-family="Times,serif" font-size="14.00">1</text>
</g>
<!-- o2l&#45;&gt;f_ret -->
<g id="edge22" class="edge">
<title>o2l&#45;&gt;f_ret</title>
<path fill="none" stroke="blue" d="M320.49,-580.8C319.8,-569.16 318.88,-553.55 318.1,-540.24"/>
<polygon fill="blue" stroke="blue" points="321.59,-539.95 317.51,-530.18 314.6,-540.36 321.59,-539.95"/>
</g>
<!-- x1_o2 -->
<g id="node17" class="node">
<title>x1_o2</title>
<ellipse fill="none" stroke="black" cx="406.5" cy="-251" rx="27" ry="18"/>
<text text-anchor="middle" x="406.5" y="-247.3" font-family="Times,serif" font-size="14.00">I</text>
</g>
<!-- x_o2&#45;&gt;x1_o2 -->
<g id="edge16" class="edge">
<title>x_o2&#45;&gt;x1_o2</title>
<path fill="none" stroke="blue" d="M404.79,-494.28C399.73,-480.72 393.21,-460.96 390.5,-443 382.34,-388.95 384.19,-374.3 390.5,-320 392.1,-306.16 395.49,-291.06 398.73,-278.6"/>
<polygon fill="blue" stroke="blue" points="402.14,-279.42 401.38,-268.85 395.38,-277.59 402.14,-279.42"/>
</g>
<!-- x2_o2 -->
<g id="node18" class="node">
<title>x2_o2</title>
<ellipse fill="none" stroke="black" cx="426.5" cy="-425" rx="27" ry="18"/>
<text text-anchor="middle" x="426.5" y="-421.3" font-family="Times,serif" font-size="14.00">!d</text>
</g>
<!-- x_o2&#45;&gt;x2_o2 -->
<g id="edge17" class="edge">
<title>x_o2&#45;&gt;x2_o2</title>
<path fill="none" stroke="blue" d="M414.53,-493.8C416.59,-482.16 419.34,-466.55 421.69,-453.24"/>
<polygon fill="blue" stroke="blue" points="425.17,-453.63 423.47,-443.18 418.28,-452.41 425.17,-453.63"/>
</g>
<!-- x2i_o2 -->
<g id="node19" class="node">
<title>x2i_o2</title>
<ellipse fill="none" stroke="black" cx="426.5" cy="-338" rx="27" ry="18"/>
<text text-anchor="middle" x="426.5" y="-334.3" font-family="Times,serif" font-size="14.00">PiL</text>
</g>
<!-- x2_o2&#45;&gt;x2i_o2 -->
<g id="edge18" class="edge">
<title>x2_o2&#45;&gt;x2i_o2</title>
<path fill="none" stroke="blue" d="M426.5,-406.8C426.5,-395.16 426.5,-379.55 426.5,-366.24"/>
<polygon fill="blue" stroke="blue" points="430,-366.18 426.5,-356.18 423,-366.18 430,-366.18"/>
</g>
<!-- x2i_o2&#45;&gt;ret_o2 -->
<g id="edge20" class="edge">
<title>x2i_o2&#45;&gt;ret_o2</title>
<path fill="none" stroke="blue" d="M436.65,-321.01C444.57,-308.55 455.71,-291.01 464.78,-276.74"/>
<polygon fill="blue" stroke="blue" points="467.98,-278.23 470.39,-267.92 462.07,-274.48 467.98,-278.23"/>
</g>
<!-- x2i_o2&#45;&gt;x1_o2 -->
<g id="edge19" class="edge">
<title>x2i_o2&#45;&gt;x1_o2</title>
<path fill="none" stroke="red" d="M422.45,-319.8C419.69,-308.09 415.99,-292.34 412.84,-278.97"/>
<polygon fill="red" stroke="red" points="416.17,-277.82 410.47,-268.89 409.35,-279.42 416.17,-277.82"/>
</g>
<!-- h -->
<g id="node22" class="node">
<title>h</title>
<ellipse fill="none" stroke="black" cx="244.5" cy="-338" rx="27" ry="18"/>
<text text-anchor="middle" x="244.5" y="-334.3" font-family="Times,serif" font-size="14.00">PiL</text>
</g>
<!-- h_di&#45;&gt;h -->
<g id="edge25" class="edge">
<title>h_di&#45;&gt;h</title>
<path fill="none" stroke="blue" d="M244.5,-406.8C244.5,-395.16 244.5,-379.55 244.5,-366.24"/>
<polygon fill="blue" stroke="blue" points="248,-366.18 244.5,-356.18 241,-366.18 248,-366.18"/>
<text text-anchor="middle" x="249.5" y="-377.8" font-family="Times,serif" font-size="14.00">2</text>
</g>
<!-- h&#45;&gt;hi_ret -->
<g id="edge33" class="edge">
<title>h&#45;&gt;hi_ret</title>
<path fill="none" stroke="blue" d="M234.15,-321.01C226.01,-308.43 214.52,-290.68 205.24,-276.33"/>
<polygon fill="blue" stroke="blue" points="208.17,-274.41 199.8,-267.92 202.29,-278.21 208.17,-274.41"/>
</g>
<!-- h_app -->
<g id="node25" class="node">
<title>h_app</title>
<ellipse fill="none" stroke="black" cx="261.5" cy="-251" rx="27" ry="18"/>
<text text-anchor="middle" x="261.5" y="-247.3" font-family="Times,serif" font-size="14.00">I</text>
</g>
<!-- h&#45;&gt;h_app -->
<g id="edge32" class="edge">
<title>h&#45;&gt;h_app</title>
<path fill="none" stroke="red" d="M247.94,-319.8C250.28,-308.09 253.43,-292.34 256.1,-278.97"/>
<polygon fill="red" stroke="red" points="259.59,-279.38 258.12,-268.89 252.73,-278 259.59,-279.38"/>
</g>
<!-- c3 -->
<g id="node23" class="node">
<title>c3</title>
<ellipse fill="none" stroke="black" cx="316.5" cy="-338" rx="27.1" ry="18"/>
<text text-anchor="middle" x="316.5" y="-334.3" font-family="Times,serif" font-size="14.00">Cut</text>
</g>
<!-- i -->
<g id="node24" class="node">
<title>i</title>
<ellipse fill="none" stroke="black" cx="333.5" cy="-251" rx="27" ry="18"/>
<text text-anchor="middle" x="333.5" y="-247.3" font-family="Times,serif" font-size="14.00">!p</text>
</g>
<!-- c3&#45;&gt;i -->
<g id="edge26" class="edge">
<title>c3&#45;&gt;i</title>
<path fill="none" stroke="red" d="M319.94,-319.8C322.28,-308.09 325.43,-292.34 328.1,-278.97"/>
<polygon fill="red" stroke="red" points="331.59,-279.38 330.12,-268.89 324.73,-278 331.59,-279.38"/>
<text text-anchor="middle" x="331.5" y="-290.8" font-family="Times,serif" font-size="14.00">2</text>
</g>
<!-- c3&#45;&gt;h_app -->
<g id="edge27" class="edge">
<title>c3&#45;&gt;h_app</title>
<path fill="none" stroke="blue" d="M306.15,-321.01C298.01,-308.43 286.52,-290.68 277.24,-276.33"/>
<polygon fill="blue" stroke="blue" points="280.17,-274.41 271.8,-267.92 274.29,-278.21 280.17,-274.41"/>
</g>
<!-- i_i -->
<g id="node26" class="node">
<title>i_i</title>
<ellipse fill="none" stroke="black" cx="333.5" cy="-164" rx="27" ry="18"/>
<text text-anchor="middle" x="333.5" y="-160.3" font-family="Times,serif" font-size="14.00">PiR</text>
</g>
<!-- i&#45;&gt;i_i -->
<g id="edge28" class="edge">
<title>i&#45;&gt;i_i</title>
<path fill="none" stroke="red" d="M333.5,-232.8C333.5,-221.16 333.5,-205.55 333.5,-192.24"/>
<polygon fill="red" stroke="red" points="337,-192.18 333.5,-182.18 330,-192.18 337,-192.18"/>
<text text-anchor="middle" x="338.5" y="-203.8" font-family="Times,serif" font-size="14.00">3</text>
</g>
<!-- il -->
<g id="node27" class="node">
<title>il</title>
<ellipse fill="none" stroke="black" cx="376.5" cy="-91" rx="27" ry="18"/>
<text text-anchor="middle" x="376.5" y="-87.3" font-family="Times,serif" font-size="14.00">!d</text>
</g>
<!-- i_i&#45;&gt;il -->
<g id="edge29" class="edge">
<title>i_i&#45;&gt;il</title>
<path fill="none" stroke="blue" d="M343.25,-146.89C348.64,-137.99 355.45,-126.75 361.5,-116.77"/>
<polygon fill="blue" stroke="blue" points="364.59,-118.41 366.78,-108.05 358.6,-114.79 364.59,-118.41"/>
</g>
<!-- i_ret -->
<g id="node28" class="node">
<title>i_ret</title>
<ellipse fill="none" stroke="black" cx="333.5" cy="-18" rx="27" ry="18"/>
<text text-anchor="middle" x="333.5" y="-14.3" font-family="Times,serif" font-size="14.00">I</text>
</g>
<!-- i_i&#45;&gt;i_ret -->
<g id="edge30" class="edge">
<title>i_i&#45;&gt;i_ret</title>
<path fill="none" stroke="red" d="M333.5,-145.92C333.5,-121.34 333.5,-75.75 333.5,-46.43"/>
<polygon fill="red" stroke="red" points="337,-46.06 333.5,-36.06 330,-46.06 337,-46.06"/>
</g>
<!-- il&#45;&gt;i_ret -->
<g id="edge31" class="edge">
<title>il&#45;&gt;i_ret</title>
<path fill="none" stroke="blue" d="M366.74,-73.89C361.35,-64.99 354.54,-53.75 348.5,-43.77"/>
<polygon fill="blue" stroke="blue" points="351.39,-41.79 343.22,-35.05 345.4,-45.41 351.39,-41.79"/>
</g>
</g>
</svg>
