<?xml version="1.0" encoding="UTF-8" standalone="no"?>
<!DOCTYPE svg PUBLIC "-//W3C//DTD SVG 1.1//EN"
 "http://www.w3.org/Graphics/SVG/1.1/DTD/svg11.dtd">
<!-- Generated by graphviz version 2.40.1 (20161225.0304)
 -->
<!-- Title: %3 Pages: 1 -->
<svg width="576pt" height="1178pt"
 viewBox="0.00 0.00 576.00 1178.00" xmlns="http://www.w3.org/2000/svg" xmlns:xlink="http://www.w3.org/1999/xlink">
<g id="graph0" class="graph" transform="scale(1 1) rotate(0) translate(4 1173.9954)">
<title>%3</title>
<polygon fill="#ffffff" stroke="transparent" points="-4,4 -4,-1173.9954 571.9977,-1173.9954 571.9977,4 -4,4"/>
<!-- Root -->
<g id="node1" class="node">
<title>Root</title>
<ellipse fill="none" stroke="#000000" cx="105.9977" cy="-530.9977" rx="27.8951" ry="18"/>
<text text-anchor="middle" x="105.9977" y="-527.2977" font-family="Times,serif" font-size="14.00" fill="#000000">Root</text>
</g>
<!-- f_retf -->
<g id="node2" class="node">
<title>f_retf</title>
<ellipse fill="none" stroke="#000000" cx="161.9977" cy="-432" rx="27" ry="18"/>
<text text-anchor="middle" x="161.9977" y="-428.3" font-family="Times,serif" font-size="14.00" fill="#000000">I</text>
</g>
<!-- Root&#45;&gt;f_retf -->
<g id="edge1" class="edge">
<title>Root&#45;&gt;f_retf</title>
<path fill="none" stroke="#ff0000" stroke-width="2" d="M108.5425,-512.8612C110.9973,-499.6818 115.6191,-481.8091 123.9977,-468 127.3388,-462.4934 131.7425,-457.2766 136.3644,-452.611"/>
<polygon fill="#ff0000" stroke="#ff0000" stroke-width="2" points="138.768,-455.1553 143.6856,-445.7709 133.9891,-450.0404 138.768,-455.1553"/>
<text text-anchor="middle" x="137.4977" y="-471.8" font-family="Times,serif" font-size="14.00" fill="#000000">0&#45;&gt;1</text>
</g>
<!-- c1a -->
<g id="node3" class="node">
<title>c1a</title>
<ellipse fill="none" stroke="#000000" cx="530.9977" cy="-1151.9954" rx="27" ry="18"/>
<text text-anchor="middle" x="530.9977" y="-1148.2954" font-family="Times,serif" font-size="14.00" fill="#000000">Cut</text>
</g>
<!-- fp1 -->
<g id="node4" class="node">
<title>fp1</title>
<ellipse fill="none" stroke="#000000" cx="501.9977" cy="-1064.9954" rx="27" ry="18"/>
<text text-anchor="middle" x="501.9977" y="-1061.2954" font-family="Times,serif" font-size="14.00" fill="#000000">!p</text>
</g>
<!-- c1a&#45;&gt;fp1 -->
<g id="edge2" class="edge">
<title>c1a&#45;&gt;fp1</title>
<path fill="none" stroke="#ff0000" d="M525.1291,-1134.3896C521.0804,-1122.2436 515.6202,-1105.8628 511.0214,-1092.0665"/>
<polygon fill="#ff0000" stroke="#ff0000" points="514.3403,-1090.955 507.8575,-1082.575 507.6995,-1093.1686 514.3403,-1090.955"/>
<text text-anchor="middle" x="521.4977" y="-1104.7954" font-family="Times,serif" font-size="14.00" fill="#000000">0</text>
</g>
<!-- d2a -->
<g id="node5" class="node">
<title>d2a</title>
<ellipse fill="none" stroke="#000000" cx="540.9977" cy="-716.9954" rx="27" ry="18"/>
<text text-anchor="middle" x="540.9977" y="-713.2954" font-family="Times,serif" font-size="14.00" fill="#000000">Dup</text>
</g>
<!-- c1a&#45;&gt;d2a -->
<g id="edge3" class="edge">
<title>c1a&#45;&gt;d2a</title>
<path fill="none" stroke="#0000ff" d="M539.6893,-1134.8196C547.5822,-1117.6119 557.9977,-1090.1409 557.9977,-1064.9954 557.9977,-1064.9954 557.9977,-1064.9954 557.9977,-803.9954 557.9977,-783.8588 553.5568,-761.579 549.2145,-744.6071"/>
<polygon fill="#0000ff" stroke="#0000ff" points="552.5501,-743.534 546.5641,-734.7923 545.7922,-745.359 552.5501,-743.534"/>
<text text-anchor="middle" x="561.4977" y="-930.7954" font-family="Times,serif" font-size="14.00" fill="#000000">1</text>
</g>
<!-- f2a -->
<g id="node22" class="node">
<title>f2a</title>
<ellipse fill="none" stroke="#000000" cx="482.9977" cy="-977.9954" rx="27" ry="18"/>
<text text-anchor="middle" x="482.9977" y="-974.2954" font-family="Times,serif" font-size="14.00" fill="#000000">PiR</text>
</g>
<!-- fp1&#45;&gt;f2a -->
<g id="edge27" class="edge">
<title>fp1&#45;&gt;f2a</title>
<path fill="none" stroke="#ff0000" d="M498.0609,-1046.9689C495.4879,-1035.1872 492.0742,-1019.556 489.1472,-1006.1535"/>
<polygon fill="#ff0000" stroke="#ff0000" points="492.4826,-1005.0217 486.9295,-995.9987 485.6438,-1006.5153 492.4826,-1005.0217"/>
<text text-anchor="middle" x="496.4977" y="-1017.7954" font-family="Times,serif" font-size="14.00" fill="#000000">1</text>
</g>
<!-- d2b -->
<g id="node7" class="node">
<title>d2b</title>
<ellipse fill="none" stroke="#000000" cx="29.9977" cy="-530.9977" rx="25.9957" ry="25.9957"/>
<ellipse fill="none" stroke="#000000" cx="29.9977" cy="-530.9977" rx="29.9954" ry="29.9954"/>
<text text-anchor="middle" x="29.9977" y="-527.2977" font-family="Times,serif" font-size="14.00" fill="#000000">Dup</text>
</g>
<!-- d2a&#45;&gt;d2b -->
<g id="edge30" class="edge">
<title>d2a&#45;&gt;d2b</title>
<path fill="none" stroke="#000000" stroke-dasharray="5,2" d="M517.2612,-708.236C499.1494,-701.3508 473.7023,-691.2409 451.9977,-680.9954 393.9072,-653.5742 385.4025,-633.8512 324.9977,-611.9954 215.9054,-572.5234 174.6355,-608.9519 68.9977,-560.9954 63.3975,-558.453 57.8624,-554.9679 52.7989,-551.2714"/>
</g>
<!-- d2c -->
<g id="node21" class="node">
<title>d2c</title>
<ellipse fill="none" stroke="#000000" cx="288.9977" cy="-432" rx="27" ry="18"/>
<text text-anchor="middle" x="288.9977" y="-428.3" font-family="Times,serif" font-size="14.00" fill="#000000">Dup</text>
</g>
<!-- d2a&#45;&gt;d2c -->
<g id="edge31" class="edge">
<title>d2a&#45;&gt;d2c</title>
<path fill="none" stroke="#000000" stroke-dasharray="5,2" d="M516.211,-709.8066C501.9416,-705.9611 483.5998,-701.5115 466.9977,-698.9954 387.5462,-686.9544 154.9344,-713.9298 108.9977,-647.9954 91.4213,-622.7674 87.4264,-604.8947 103.9977,-578.9954 114.2865,-562.9148 128.6366,-573.5733 142.9977,-560.9954 166.7417,-540.1997 158.7229,-523.3623 180.9977,-501 206.5924,-475.3048 243.3782,-454.3575 266.7276,-442.529"/>
</g>
<!-- hi_retpa -->
<g id="node23" class="node">
<title>hi_retpa</title>
<ellipse fill="none" stroke="#000000" cx="488.9977" cy="-629.9954" rx="27" ry="18"/>
<text text-anchor="middle" x="488.9977" y="-626.2954" font-family="Times,serif" font-size="14.00" fill="#000000">!p</text>
</g>
<!-- d2a&#45;&gt;hi_retpa -->
<g id="edge32" class="edge">
<title>d2a&#45;&gt;hi_retpa</title>
<path fill="none" stroke="#0000ff" d="M530.9716,-700.2209C523.4181,-687.5834 512.9279,-670.0325 504.3245,-655.6382"/>
<polygon fill="#0000ff" stroke="#0000ff" points="507.1278,-653.5063 498.993,-646.7184 501.1193,-657.0977 507.1278,-653.5063"/>
<text text-anchor="middle" x="521.4977" y="-669.7954" font-family="Times,serif" font-size="14.00" fill="#000000">1</text>
</g>
<!-- c1b2 -->
<g id="node6" class="node">
<title>c1b2</title>
<ellipse fill="none" stroke="#000000" cx="38.9977" cy="-977.9954" rx="27" ry="18"/>
<text text-anchor="middle" x="38.9977" y="-974.2954" font-family="Times,serif" font-size="14.00" fill="#000000">Cut</text>
</g>
<!-- c1b2&#45;&gt;d2b -->
<g id="edge4" class="edge">
<title>c1b2&#45;&gt;d2b</title>
<path fill="none" stroke="#ff0000" stroke-width="2" d="M30.9499,-960.7515C23.6416,-943.4921 13.9977,-915.9829 13.9977,-890.9954 13.9977,-890.9954 13.9977,-890.9954 13.9977,-629.9954 13.9977,-610.1098 17.1827,-588.2618 20.7107,-570.1611"/>
<polygon fill="#ff0000" stroke="#ff0000" stroke-width="2" points="24.1619,-570.754 22.7467,-560.2542 17.3052,-569.3448 24.1619,-570.754"/>
<text text-anchor="middle" x="17.4977" y="-756.7954" font-family="Times,serif" font-size="14.00" fill="#000000">2</text>
</g>
<!-- xdicg2 -->
<g id="node8" class="node">
<title>xdicg2</title>
<ellipse fill="none" stroke="#000000" cx="153.9977" cy="-890.9954" rx="27" ry="18"/>
<text text-anchor="middle" x="153.9977" y="-887.2954" font-family="Times,serif" font-size="14.00" fill="#000000">!c</text>
</g>
<!-- c1b2&#45;&gt;xdicg2 -->
<g id="edge5" class="edge">
<title>c1b2&#45;&gt;xdicg2</title>
<path fill="none" stroke="#0000ff" stroke-width="2" d="M56.9664,-964.4016C75.9277,-950.057 106.0049,-927.303 127.6482,-910.9294"/>
<polygon fill="#0000ff" stroke="#0000ff" stroke-width="2" points="129.9123,-913.6053 135.7756,-904.7808 125.689,-908.0228 129.9123,-913.6053"/>
<text text-anchor="middle" x="107.4977" y="-930.7954" font-family="Times,serif" font-size="14.00" fill="#000000">1</text>
</g>
<!-- i2 -->
<g id="node24" class="node">
<title>i2</title>
<ellipse fill="none" stroke="#000000" cx="199.9977" cy="-378" rx="27" ry="18"/>
<text text-anchor="middle" x="199.9977" y="-374.3" font-family="Times,serif" font-size="14.00" fill="#000000">!p</text>
</g>
<!-- d2b&#45;&gt;i2 -->
<g id="edge33" class="edge">
<title>d2b&#45;&gt;i2</title>
<path fill="none" stroke="#ff0000" d="M46.1288,-505.4484C63.3838,-479.7281 92.7936,-440.2101 125.9977,-414 138.1799,-404.3838 153.3483,-396.4463 166.775,-390.4944"/>
<polygon fill="#ff0000" stroke="#ff0000" points="168.331,-393.6364 176.1762,-386.5158 165.6028,-387.19 168.331,-393.6364"/>
</g>
<!-- d1b -->
<g id="node9" class="node">
<title>d1b</title>
<ellipse fill="none" stroke="#000000" cx="502.9977" cy="-803.9954" rx="27" ry="18"/>
<text text-anchor="middle" x="502.9977" y="-800.2954" font-family="Times,serif" font-size="14.00" fill="#000000">Dup</text>
</g>
<!-- xdicg2&#45;&gt;d1b -->
<g id="edge15" class="edge">
<title>xdicg2&#45;&gt;d1b</title>
<path fill="none" stroke="#0000ff" d="M180.5765,-887.4004C235.3309,-879.5061 364.1883,-858.399 466.9977,-821.9954 469.5007,-821.1091 472.0539,-820.0893 474.5872,-818.9952"/>
<ellipse fill="none" stroke="#0000ff" cx="478.4251" cy="-817.2247" rx="4" ry="4"/>
</g>
<!-- h_di2g2 -->
<g id="node17" class="node">
<title>h_di2g2</title>
<ellipse fill="none" stroke="#000000" cx="153.9977" cy="-803.9954" rx="27" ry="18"/>
<text text-anchor="middle" x="153.9977" y="-800.2954" font-family="Times,serif" font-size="14.00" fill="#000000">!d</text>
</g>
<!-- xdicg2&#45;&gt;h_di2g2 -->
<g id="edge16" class="edge">
<title>xdicg2&#45;&gt;h_di2g2</title>
<path fill="none" stroke="#0000ff" stroke-width="2" d="M153.9977,-872.9689C153.9977,-861.1872 153.9977,-845.556 153.9977,-832.1535"/>
<polygon fill="#0000ff" stroke="#0000ff" stroke-width="2" points="157.4978,-831.9987 153.9977,-821.9987 150.4978,-831.9988 157.4978,-831.9987"/>
<text text-anchor="middle" x="157.4977" y="-843.7954" font-family="Times,serif" font-size="14.00" fill="#000000">1</text>
</g>
<!-- d1b&#45;&gt;d2a -->
<g id="edge22" class="edge">
<title>d1b&#45;&gt;d2a</title>
<path fill="none" stroke="#0000ff" d="M510.6876,-786.3896C516.2869,-773.5702 523.9466,-756.0334 530.1649,-741.7968"/>
<ellipse fill="none" stroke="#0000ff" cx="531.8479" cy="-737.9436" rx="4" ry="4"/>
</g>
<!-- d1c -->
<g id="node10" class="node">
<title>d1c</title>
<ellipse fill="none" stroke="#000000" cx="144.9977" cy="-629.9954" rx="27" ry="18"/>
<text text-anchor="middle" x="144.9977" y="-626.2954" font-family="Times,serif" font-size="14.00" fill="#000000">Dup</text>
</g>
<!-- d1b&#45;&gt;d1c -->
<g id="edge6" class="edge">
<title>d1b&#45;&gt;d1c</title>
<path fill="none" stroke="#000000" stroke-dasharray="5,2" d="M502.0093,-785.8713C499.7138,-762.3041 492.113,-721.5015 466.9977,-698.9954 370.8407,-612.8278 304.4908,-685.6845 180.9977,-647.9954 175.9183,-646.4452 170.682,-644.229 165.8295,-641.8789"/>
</g>
<!-- d1d -->
<g id="node11" class="node">
<title>d1d</title>
<ellipse fill="none" stroke="#000000" cx="288.9977" cy="-530.9977" rx="27" ry="18"/>
<text text-anchor="middle" x="288.9977" y="-527.2977" font-family="Times,serif" font-size="14.00" fill="#000000">Dup</text>
</g>
<!-- d1b&#45;&gt;d1d -->
<g id="edge7" class="edge">
<title>d1b&#45;&gt;d1d</title>
<path fill="none" stroke="#000000" stroke-dasharray="5,2" d="M482.0346,-792.5047C477.189,-790.1342 471.9886,-787.8104 466.9977,-785.9954 444.0259,-777.6412 275.6178,-744.2595 252.9977,-734.9954 248.673,-733.2242 111.294,-652.0657 108.9977,-647.9954 55.0249,-552.3282 231.0482,-573.4912 252.9977,-560.9954 260.2091,-556.8899 267.389,-551.2938 273.4177,-546.0466"/>
</g>
<!-- d1c&#45;&gt;d2b -->
<g id="edge23" class="edge">
<title>d1c&#45;&gt;d2b</title>
<path fill="none" stroke="#ff0000" d="M128.029,-615.3879C109.9458,-599.821 80.9807,-574.8864 59.2153,-556.1496"/>
<ellipse fill="none" stroke="#ff0000" cx="56.0291" cy="-553.4068" rx="4" ry="4"/>
</g>
<!-- d1d&#45;&gt;d2c -->
<g id="edge24" class="edge">
<title>d1d&#45;&gt;d2c</title>
<path fill="none" stroke="#ff0000" d="M288.9977,-512.84C288.9977,-497.4895 288.9977,-475.3076 288.9977,-458.061"/>
<ellipse fill="none" stroke="#ff0000" cx="288.9977" cy="-454.0426" rx="4" ry="4"/>
</g>
<!-- xdicg1 -->
<g id="node12" class="node">
<title>xdicg1</title>
<ellipse fill="none" stroke="#000000" cx="482.9977" cy="-890.9954" rx="27" ry="18"/>
<text text-anchor="middle" x="482.9977" y="-887.2954" font-family="Times,serif" font-size="14.00" fill="#000000">!c</text>
</g>
<!-- xdicg1&#45;&gt;d1b -->
<g id="edge8" class="edge">
<title>xdicg1&#45;&gt;d1b</title>
<path fill="none" stroke="#0000ff" d="M487.1417,-872.9689C489.877,-861.0705 493.5148,-845.2461 496.6159,-831.756"/>
<polygon fill="#0000ff" stroke="#0000ff" points="500.0295,-832.5287 498.859,-821.9987 493.2075,-830.9604 500.0295,-832.5287"/>
</g>
<!-- h_di2g1 -->
<g id="node13" class="node">
<title>h_di2g1</title>
<ellipse fill="none" stroke="#000000" cx="430.9977" cy="-803.9954" rx="27" ry="18"/>
<text text-anchor="middle" x="430.9977" y="-800.2954" font-family="Times,serif" font-size="14.00" fill="#000000">!d</text>
</g>
<!-- xdicg1&#45;&gt;h_di2g1 -->
<g id="edge9" class="edge">
<title>xdicg1&#45;&gt;h_di2g1</title>
<path fill="none" stroke="#0000ff" d="M472.9716,-874.2209C465.4181,-861.5834 454.9279,-844.0325 446.3245,-829.6382"/>
<polygon fill="#0000ff" stroke="#0000ff" points="449.1278,-827.5063 440.993,-820.7184 443.1193,-831.0977 449.1278,-827.5063"/>
<text text-anchor="middle" x="463.4977" y="-843.7954" font-family="Times,serif" font-size="14.00" fill="#000000">1</text>
</g>
<!-- hbg1 -->
<g id="node14" class="node">
<title>hbg1</title>
<ellipse fill="none" stroke="#000000" cx="288.9977" cy="-716.9954" rx="27" ry="18"/>
<text text-anchor="middle" x="288.9977" y="-713.2954" font-family="Times,serif" font-size="14.00" fill="#000000">PiL</text>
</g>
<!-- h_di2g1&#45;&gt;hbg1 -->
<g id="edge10" class="edge">
<title>h_di2g1&#45;&gt;hbg1</title>
<path fill="none" stroke="#0000ff" d="M410.9537,-791.7149C386.6391,-776.8179 345.4729,-751.5964 317.7734,-734.6256"/>
<polygon fill="#0000ff" stroke="#0000ff" points="319.2951,-731.4532 308.9397,-729.2134 315.6381,-737.422 319.2951,-731.4532"/>
<text text-anchor="middle" x="372.4977" y="-756.7954" font-family="Times,serif" font-size="14.00" fill="#000000">2</text>
</g>
<!-- hbg1&#45;&gt;d1c -->
<g id="edge11" class="edge">
<title>hbg1&#45;&gt;d1c</title>
<path fill="none" stroke="#ff0000" d="M272.1246,-702.6797C258.7933,-691.7884 239.4252,-676.8712 220.9977,-665.9954 204.2088,-656.0867 198.6086,-656.3563 180.9977,-647.9954 179.246,-647.1638 177.451,-646.3009 175.6428,-645.4234"/>
<polygon fill="#ff0000" stroke="#ff0000" points="177.1477,-642.2632 166.6296,-640.9901 174.0581,-648.5445 177.1477,-642.2632"/>
</g>
<!-- x2i_o2g1 -->
<g id="node15" class="node">
<title>x2i_o2g1</title>
<ellipse fill="none" stroke="#000000" cx="288.9977" cy="-629.9954" rx="27" ry="18"/>
<text text-anchor="middle" x="288.9977" y="-626.2954" font-family="Times,serif" font-size="14.00" fill="#000000">PiL</text>
</g>
<!-- hbg1&#45;&gt;x2i_o2g1 -->
<g id="edge12" class="edge">
<title>hbg1&#45;&gt;x2i_o2g1</title>
<path fill="none" stroke="#0000ff" d="M288.9977,-698.9689C288.9977,-687.1872 288.9977,-671.556 288.9977,-658.1535"/>
<polygon fill="#0000ff" stroke="#0000ff" points="292.4978,-657.9987 288.9977,-647.9987 285.4978,-657.9988 292.4978,-657.9987"/>
<text text-anchor="middle" x="302.4977" y="-669.7954" font-family="Times,serif" font-size="14.00" fill="#000000">2&#45;&gt;1</text>
</g>
<!-- x2i_o2g1&#45;&gt;d1d -->
<g id="edge13" class="edge">
<title>x2i_o2g1&#45;&gt;d1d</title>
<path fill="none" stroke="#ff0000" d="M288.9977,-611.8377C288.9977,-597.185 288.9977,-576.3077 288.9977,-559.44"/>
<polygon fill="#ff0000" stroke="#ff0000" points="292.4978,-559.0402 288.9977,-549.0403 285.4978,-559.0403 292.4978,-559.0402"/>
</g>
<!-- f_retg1 -->
<g id="node16" class="node">
<title>f_retg1</title>
<ellipse fill="none" stroke="#000000" cx="365.9977" cy="-530.9977" rx="27" ry="18"/>
<text text-anchor="middle" x="365.9977" y="-527.2977" font-family="Times,serif" font-size="14.00" fill="#000000">I</text>
</g>
<!-- x2i_o2g1&#45;&gt;f_retg1 -->
<g id="edge14" class="edge">
<title>x2i_o2g1&#45;&gt;f_retg1</title>
<path fill="none" stroke="#0000ff" d="M301.7127,-613.6479C314.0467,-597.7903 332.9151,-573.5315 347.0246,-555.3911"/>
<polygon fill="#0000ff" stroke="#0000ff" points="350.1425,-557.0833 353.5193,-547.041 344.6171,-552.7856 350.1425,-557.0833"/>
</g>
<!-- hbg2 -->
<g id="node18" class="node">
<title>hbg2</title>
<ellipse fill="none" stroke="#000000" cx="153.9977" cy="-716.9954" rx="27" ry="18"/>
<text text-anchor="middle" x="153.9977" y="-713.2954" font-family="Times,serif" font-size="14.00" fill="#000000">PiL</text>
</g>
<!-- h_di2g2&#45;&gt;hbg2 -->
<g id="edge17" class="edge">
<title>h_di2g2&#45;&gt;hbg2</title>
<path fill="none" stroke="#0000ff" stroke-width="2" d="M153.9977,-785.9689C153.9977,-774.1872 153.9977,-758.556 153.9977,-745.1535"/>
<polygon fill="#0000ff" stroke="#0000ff" stroke-width="2" points="157.4978,-744.9987 153.9977,-734.9987 150.4978,-744.9988 157.4978,-744.9987"/>
<text text-anchor="middle" x="157.4977" y="-756.7954" font-family="Times,serif" font-size="14.00" fill="#000000">2</text>
</g>
<!-- hbg2&#45;&gt;d1c -->
<g id="edge18" class="edge">
<title>hbg2&#45;&gt;d1c</title>
<path fill="none" stroke="#ff0000" d="M152.1329,-698.9689C150.8537,-686.6039 149.136,-669.999 147.7065,-656.1801"/>
<ellipse fill="none" stroke="#ff0000" cx="147.2718" cy="-651.9775" rx="4" ry="4"/>
</g>
<!-- x2i_o2g2 -->
<g id="node19" class="node">
<title>x2i_o2g2</title>
<ellipse fill="none" stroke="#000000" cx="216.9977" cy="-629.9954" rx="27" ry="18"/>
<text text-anchor="middle" x="216.9977" y="-626.2954" font-family="Times,serif" font-size="14.00" fill="#000000">PiL</text>
</g>
<!-- hbg2&#45;&gt;x2i_o2g2 -->
<g id="edge19" class="edge">
<title>hbg2&#45;&gt;x2i_o2g2</title>
<path fill="none" stroke="#0000ff" stroke-width="2" d="M165.8475,-700.6314C175.263,-687.629 188.5784,-669.2411 199.2633,-654.4858"/>
<polygon fill="#0000ff" stroke="#0000ff" stroke-width="2" points="202.1707,-656.4383 205.201,-646.286 196.5011,-652.3327 202.1707,-656.4383"/>
<text text-anchor="middle" x="203.4977" y="-669.7954" font-family="Times,serif" font-size="14.00" fill="#000000">2&#45;&gt;1</text>
</g>
<!-- x2i_o2g2&#45;&gt;d1d -->
<g id="edge20" class="edge">
<title>x2i_o2g2&#45;&gt;d1d</title>
<path fill="none" stroke="#ff0000" d="M228.887,-613.6479C240.6641,-597.4548 258.8126,-572.5012 272.088,-554.248"/>
<ellipse fill="none" stroke="#ff0000" cx="274.738" cy="-550.6044" rx="4" ry="4"/>
</g>
<!-- x2i_o2f -->
<g id="node20" class="node">
<title>x2i_o2f</title>
<ellipse fill="none" stroke="#000000" cx="216.9977" cy="-530.9977" rx="27" ry="18"/>
<text text-anchor="middle" x="216.9977" y="-527.2977" font-family="Times,serif" font-size="14.00" fill="#000000">PiL</text>
</g>
<!-- x2i_o2g2&#45;&gt;x2i_o2f -->
<g id="edge21" class="edge">
<title>x2i_o2g2&#45;&gt;x2i_o2f</title>
<path fill="none" stroke="#0000ff" stroke-width="2" d="M216.9977,-611.8377C216.9977,-597.185 216.9977,-576.3077 216.9977,-559.44"/>
<polygon fill="#0000ff" stroke="#0000ff" stroke-width="2" points="220.4978,-559.0402 216.9977,-549.0403 213.4978,-559.0403 220.4978,-559.0402"/>
</g>
<!-- x2i_o2f&#45;&gt;f_retf -->
<g id="edge29" class="edge">
<title>x2i_o2f&#45;&gt;f_retf</title>
<path fill="none" stroke="#0000ff" stroke-width="2" d="M207.4174,-513.7536C198.8999,-498.4224 186.32,-475.7791 176.5579,-458.2078"/>
<polygon fill="#0000ff" stroke="#0000ff" stroke-width="2" points="179.3843,-456.0882 171.4682,-449.0465 173.2652,-459.4878 179.3843,-456.0882"/>
</g>
<!-- x2i_o2f&#45;&gt;d2c -->
<g id="edge28" class="edge">
<title>x2i_o2f&#45;&gt;d2c</title>
<path fill="none" stroke="#ff0000" d="M228.887,-514.6502C240.3515,-498.887 257.8535,-474.8223 271.0205,-456.718"/>
<polygon fill="#ff0000" stroke="#ff0000" points="274.0394,-458.5177 277.0907,-448.3717 268.3783,-454.4004 274.0394,-458.5177"/>
</g>
<!-- x1_o2 -->
<g id="node25" class="node">
<title>x1_o2</title>
<ellipse fill="none" stroke="#000000" cx="360.9977" cy="-324" rx="27" ry="18"/>
<text text-anchor="middle" x="360.9977" y="-320.3" font-family="Times,serif" font-size="14.00" fill="#000000">I</text>
</g>
<!-- d2c&#45;&gt;x1_o2 -->
<g id="edge34" class="edge">
<title>d2c&#45;&gt;x1_o2</title>
<path fill="none" stroke="#ff0000" d="M300.2477,-415.125C312.0304,-397.4509 330.6691,-369.4929 344.1961,-349.2025"/>
<polygon fill="#ff0000" stroke="#ff0000" points="347.1918,-351.0185 349.8267,-340.7565 341.3675,-347.1356 347.1918,-351.0185"/>
</g>
<!-- f2a&#45;&gt;xdicg1 -->
<g id="edge26" class="edge">
<title>f2a&#45;&gt;xdicg1</title>
<path fill="none" stroke="#0000ff" d="M482.9977,-959.9689C482.9977,-948.1872 482.9977,-932.556 482.9977,-919.1535"/>
<polygon fill="#0000ff" stroke="#0000ff" points="486.4978,-918.9987 482.9977,-908.9987 479.4978,-918.9988 486.4978,-918.9987"/>
</g>
<!-- f2a&#45;&gt;f_retg1 -->
<g id="edge25" class="edge">
<title>f2a&#45;&gt;f_retg1</title>
<path fill="none" stroke="#ff0000" d="M458.4497,-970.2617C426.8597,-958.5964 375.9977,-933.253 375.9977,-890.9954 375.9977,-890.9954 375.9977,-890.9954 375.9977,-716.9954 375.9977,-661.167 371.4498,-596.0485 368.4881,-559.5598"/>
<polygon fill="#ff0000" stroke="#ff0000" points="371.9431,-558.8726 367.6266,-549.1969 364.9672,-559.4525 371.9431,-558.8726"/>
</g>
<!-- hi_ret1 -->
<g id="node26" class="node">
<title>hi_ret1</title>
<ellipse fill="none" stroke="#000000" cx="455.9977" cy="-324" rx="27" ry="18"/>
<text text-anchor="middle" x="455.9977" y="-320.3" font-family="Times,serif" font-size="14.00" fill="#000000">I</text>
</g>
<!-- hi_retpa&#45;&gt;hi_ret1 -->
<g id="edge41" class="edge">
<title>hi_retpa&#45;&gt;hi_ret1</title>
<path fill="none" stroke="#ff0000" d="M487.0322,-611.7704C481.4953,-560.4288 465.7378,-414.3162 459.0544,-352.3436"/>
<polygon fill="#ff0000" stroke="#ff0000" points="462.505,-351.6966 457.9529,-342.1295 455.5454,-352.4472 462.505,-351.6966"/>
<text text-anchor="middle" x="475.4977" y="-471.8" font-family="Times,serif" font-size="14.00" fill="#000000">2</text>
</g>
<!-- h_di1 -->
<g id="node31" class="node">
<title>h_di1</title>
<ellipse fill="none" stroke="#000000" cx="518.9977" cy="-530.9977" rx="27" ry="18"/>
<text text-anchor="middle" x="518.9977" y="-527.2977" font-family="Times,serif" font-size="14.00" fill="#000000">!d</text>
</g>
<!-- hi_retpa&#45;&gt;h_di1 -->
<g id="edge42" class="edge">
<title>hi_retpa&#45;&gt;h_di1</title>
<path fill="none" stroke="#0000ff" d="M494.3611,-612.2966C498.8552,-597.4663 505.3507,-576.0316 510.5439,-558.8945"/>
<polygon fill="#0000ff" stroke="#0000ff" points="514.029,-559.4624 513.5796,-548.8771 507.3298,-557.4322 514.029,-559.4624"/>
<text text-anchor="middle" x="507.4977" y="-582.7954" font-family="Times,serif" font-size="14.00" fill="#000000">1</text>
</g>
<!-- d4b -->
<g id="node27" class="node">
<title>d4b</title>
<ellipse fill="none" stroke="#000000" cx="278.9977" cy="-237" rx="27" ry="18"/>
<text text-anchor="middle" x="278.9977" y="-233.3" font-family="Times,serif" font-size="14.00" fill="#000000">Dup</text>
</g>
<!-- i2&#45;&gt;d4b -->
<g id="edge44" class="edge">
<title>i2&#45;&gt;d4b</title>
<path fill="none" stroke="#ff0000" d="M209.5269,-360.9921C223.4655,-336.1144 249.4829,-289.6783 265.4196,-261.2344"/>
<ellipse fill="none" stroke="#ff0000" cx="267.4795" cy="-257.5578" rx="4" ry="4"/>
<text text-anchor="middle" x="243.4977" y="-320.3" font-family="Times,serif" font-size="14.00" fill="#000000">3</text>
</g>
<!-- i_i -->
<g id="node28" class="node">
<title>i_i</title>
<ellipse fill="none" stroke="#000000" cx="278.9977" cy="-164" rx="27" ry="18"/>
<text text-anchor="middle" x="278.9977" y="-160.3" font-family="Times,serif" font-size="14.00" fill="#000000">PiR</text>
</g>
<!-- d4b&#45;&gt;i_i -->
<g id="edge35" class="edge">
<title>d4b&#45;&gt;i_i</title>
<path fill="none" stroke="#ff0000" d="M278.9977,-218.9551C278.9977,-210.8828 278.9977,-201.1764 278.9977,-192.1817"/>
<polygon fill="#ff0000" stroke="#ff0000" points="282.4978,-192.0903 278.9977,-182.0904 275.4978,-192.0904 282.4978,-192.0903"/>
</g>
<!-- il -->
<g id="node33" class="node">
<title>il</title>
<ellipse fill="none" stroke="#000000" cx="321.9977" cy="-91" rx="27" ry="18"/>
<text text-anchor="middle" x="321.9977" y="-87.3" font-family="Times,serif" font-size="14.00" fill="#000000">!d</text>
</g>
<!-- i_i&#45;&gt;il -->
<g id="edge45" class="edge">
<title>i_i&#45;&gt;il</title>
<path fill="none" stroke="#0000ff" d="M288.9708,-147.0688C294.2894,-138.0396 300.9442,-126.742 306.8838,-116.6585"/>
<polygon fill="#0000ff" stroke="#0000ff" points="310.0189,-118.232 312.0786,-107.8393 303.9875,-114.6793 310.0189,-118.232"/>
</g>
<!-- i_ret -->
<g id="node34" class="node">
<title>i_ret</title>
<ellipse fill="none" stroke="#000000" cx="278.9977" cy="-18" rx="27" ry="18"/>
<text text-anchor="middle" x="278.9977" y="-14.3" font-family="Times,serif" font-size="14.00" fill="#000000">I</text>
</g>
<!-- i_i&#45;&gt;i_ret -->
<g id="edge46" class="edge">
<title>i_i&#45;&gt;i_ret</title>
<path fill="none" stroke="#ff0000" d="M278.9977,-145.8042C278.9977,-120.8868 278.9977,-75.8938 278.9977,-46.4877"/>
<polygon fill="#ff0000" stroke="#ff0000" points="282.4978,-46.4251 278.9977,-36.4251 275.4978,-46.4251 282.4978,-46.4251"/>
</g>
<!-- ha -->
<g id="node29" class="node">
<title>ha</title>
<ellipse fill="none" stroke="#000000" cx="518.9977" cy="-432" rx="27" ry="18"/>
<text text-anchor="middle" x="518.9977" y="-428.3" font-family="Times,serif" font-size="14.00" fill="#000000">PiL</text>
</g>
<!-- ha&#45;&gt;hi_ret1 -->
<g id="edge37" class="edge">
<title>ha&#45;&gt;hi_ret1</title>
<path fill="none" stroke="#0000ff" d="M509.5346,-415.0397C501.3173,-400.3953 489.0363,-378.7067 477.9977,-360 475.962,-356.5502 473.7921,-352.9314 471.6382,-349.3733"/>
<polygon fill="#0000ff" stroke="#0000ff" points="474.5962,-347.5015 466.4027,-340.7846 468.6191,-351.145 474.5962,-347.5015"/>
</g>
<!-- i1 -->
<g id="node30" class="node">
<title>i1</title>
<ellipse fill="none" stroke="#000000" cx="527.9977" cy="-324" rx="27" ry="18"/>
<text text-anchor="middle" x="527.9977" y="-320.3" font-family="Times,serif" font-size="14.00" fill="#000000">!p</text>
</g>
<!-- ha&#45;&gt;i1 -->
<g id="edge36" class="edge">
<title>ha&#45;&gt;i1</title>
<path fill="none" stroke="#ff0000" d="M520.5244,-413.6793C521.9293,-396.821 524.0339,-371.5651 525.6521,-352.147"/>
<polygon fill="#ff0000" stroke="#ff0000" points="529.1509,-352.3063 526.4935,-342.0502 522.1751,-351.7249 529.1509,-352.3063"/>
</g>
<!-- i1&#45;&gt;d4b -->
<g id="edge43" class="edge">
<title>i1&#45;&gt;d4b</title>
<path fill="none" stroke="#ff0000" d="M506.5393,-312.6123C501.8103,-310.2889 496.7833,-307.9586 491.9977,-306 430.6798,-280.9052 356.5912,-258.6394 313.9196,-246.5599"/>
<polygon fill="#ff0000" stroke="#ff0000" points="314.6038,-243.1168 304.0299,-243.7839 312.7119,-249.8563 314.6038,-243.1168"/>
<text text-anchor="middle" x="443.4977" y="-276.8" font-family="Times,serif" font-size="14.00" fill="#000000">3</text>
</g>
<!-- h_di1&#45;&gt;ha -->
<g id="edge38" class="edge">
<title>h_di1&#45;&gt;ha</title>
<path fill="none" stroke="#0000ff" d="M518.9977,-512.84C518.9977,-498.1873 518.9977,-477.31 518.9977,-460.4423"/>
<polygon fill="#0000ff" stroke="#0000ff" points="522.4978,-460.0426 518.9977,-450.0426 515.4978,-460.0426 522.4978,-460.0426"/>
<text text-anchor="middle" x="522.4977" y="-471.8" font-family="Times,serif" font-size="14.00" fill="#000000">2</text>
</g>
<!-- c2a -->
<g id="node32" class="node">
<title>c2a</title>
<ellipse fill="none" stroke="#000000" cx="430.9977" cy="-716.9954" rx="27" ry="18"/>
<text text-anchor="middle" x="430.9977" y="-713.2954" font-family="Times,serif" font-size="14.00" fill="#000000">Cut</text>
</g>
<!-- c2a&#45;&gt;hi_retpa -->
<g id="edge39" class="edge">
<title>c2a&#45;&gt;hi_retpa</title>
<path fill="none" stroke="#ff0000" d="M442.1807,-700.2209C450.6859,-687.463 462.5294,-669.6978 472.1761,-655.2278"/>
<polygon fill="#ff0000" stroke="#ff0000" points="475.2142,-656.9803 477.849,-646.7184 469.3898,-653.0974 475.2142,-656.9803"/>
<text text-anchor="middle" x="466.4977" y="-669.7954" font-family="Times,serif" font-size="14.00" fill="#000000">1</text>
</g>
<!-- c2a&#45;&gt;x1_o2 -->
<g id="edge40" class="edge">
<title>c2a&#45;&gt;x1_o2</title>
<path fill="none" stroke="#0000ff" d="M429.3605,-699.0174C427.9023,-681.4369 425.9977,-653.8993 425.9977,-629.9954 425.9977,-629.9954 425.9977,-629.9954 425.9977,-432 425.9977,-398.5774 402.8631,-366.5948 384.1975,-346.2297"/>
<polygon fill="#0000ff" stroke="#0000ff" points="386.5016,-343.5745 377.0651,-338.7576 381.4381,-348.4079 386.5016,-343.5745"/>
</g>
<!-- il&#45;&gt;i_ret -->
<g id="edge47" class="edge">
<title>il&#45;&gt;i_ret</title>
<path fill="none" stroke="#0000ff" d="M312.0245,-74.0688C306.7059,-65.0396 300.0512,-53.742 294.1116,-43.6585"/>
<polygon fill="#0000ff" stroke="#0000ff" points="297.0079,-41.6793 288.9168,-34.8393 290.9764,-45.232 297.0079,-41.6793"/>
</g>
</g>
</svg>
