<?xml version="1.0" encoding="UTF-8" standalone="no"?>
<!DOCTYPE svg PUBLIC "-//W3C//DTD SVG 1.1//EN"
 "http://www.w3.org/Graphics/SVG/1.1/DTD/svg11.dtd">
<!-- Generated by graphviz version 2.43.0 (0)
 -->
<!-- Title: %3 Pages: 1 -->
<svg width="580pt" height="899pt"
 viewBox="0.00 0.00 580.50 898.60" xmlns="http://www.w3.org/2000/svg" xmlns:xlink="http://www.w3.org/1999/xlink">
<g id="graph0" class="graph" transform="scale(1 1) rotate(0) translate(4 894.6)">
<title>%3</title>
<polygon fill="white" stroke="transparent" points="-4,4 -4,-894.6 576.5,-894.6 576.5,4 -4,4"/>
<!-- Root -->
<g id="node1" class="node">
<title>Root</title>
<ellipse fill="none" stroke="black" cx="32.5" cy="-672" rx="32.49" ry="18"/>
<text text-anchor="middle" x="32.5" y="-668.3" font-family="Times,serif" font-size="14.00">Root</text>
</g>
<!-- ret -->
<g id="node2" class="node">
<title>ret</title>
<ellipse fill="none" stroke="black" cx="55.5" cy="-599" rx="27" ry="18"/>
<text text-anchor="middle" x="55.5" y="-595.3" font-family="Times,serif" font-size="14.00">I</text>
</g>
<!-- Root&#45;&gt;ret -->
<g id="edge1" class="edge">
<title>Root&#45;&gt;ret</title>
<path fill="none" stroke="red" stroke-width="2" d="M37.95,-654.17C40.64,-645.86 43.95,-635.64 46.97,-626.33"/>
<polygon fill="red" stroke="red" stroke-width="2" points="50.33,-627.3 50.09,-616.71 43.67,-625.14 50.33,-627.3"/>
</g>
<!-- c1a -->
<g id="node3" class="node">
<title>c1a</title>
<ellipse fill="none" stroke="black" cx="180.5" cy="-872.6" rx="27.1" ry="18"/>
<text text-anchor="middle" x="180.5" y="-868.9" font-family="Times,serif" font-size="14.00">Cut</text>
</g>
<!-- fp1 -->
<g id="node4" class="node">
<title>fp1</title>
<ellipse fill="none" stroke="black" cx="301.5" cy="-772.3" rx="27" ry="18"/>
<text text-anchor="middle" x="301.5" y="-768.6" font-family="Times,serif" font-size="14.00">!p</text>
</g>
<!-- c1a&#45;&gt;fp1 -->
<g id="edge2" class="edge">
<title>c1a&#45;&gt;fp1</title>
<path fill="none" stroke="red" d="M197.25,-858.08C214.22,-844.37 241.22,-822.55 264.5,-803.6 268.58,-800.27 272.91,-796.74 277.11,-793.3"/>
<polygon fill="red" stroke="red" points="279.42,-795.93 284.94,-786.89 274.98,-790.52 279.42,-795.93"/>
<text text-anchor="middle" x="246.5" y="-825.4" font-family="Times,serif" font-size="14.00">0</text>
</g>
<!-- x1_o1 -->
<g id="node5" class="node">
<title>x1_o1</title>
<ellipse fill="none" stroke="black" cx="135.5" cy="-599" rx="27" ry="18"/>
<text text-anchor="middle" x="135.5" y="-595.3" font-family="Times,serif" font-size="14.00">I</text>
</g>
<!-- c1a&#45;&gt;x1_o1 -->
<g id="edge3" class="edge">
<title>c1a&#45;&gt;x1_o1</title>
<path fill="none" stroke="blue" d="M177.91,-854.64C172.29,-817.99 158.41,-728.65 145.5,-654 143.97,-645.18 142.22,-635.57 140.62,-626.94"/>
<polygon fill="blue" stroke="blue" points="144.04,-626.19 138.75,-617.01 137.16,-627.48 144.04,-626.19"/>
</g>
<!-- f2 -->
<g id="node13" class="node">
<title>f2</title>
<ellipse fill="none" stroke="black" cx="302.5" cy="-672" rx="27" ry="18"/>
<text text-anchor="middle" x="302.5" y="-668.3" font-family="Times,serif" font-size="14.00">PiR</text>
</g>
<!-- fp1&#45;&gt;f2 -->
<g id="edge13" class="edge">
<title>fp1&#45;&gt;f2</title>
<path fill="none" stroke="red" d="M301.67,-754.18C301.82,-739.33 302.04,-717.57 302.22,-700.31"/>
<polygon fill="red" stroke="red" points="305.72,-700.29 302.32,-690.26 298.72,-700.22 305.72,-700.29"/>
<text text-anchor="middle" x="307.5" y="-711.8" font-family="Times,serif" font-size="14.00">1</text>
</g>
<!-- c1b -->
<g id="node6" class="node">
<title>c1b</title>
<ellipse fill="none" stroke="black" cx="224.5" cy="-772.3" rx="27.12" ry="27.12"/>
<ellipse fill="none" stroke="black" cx="224.5" cy="-772.3" rx="31.1" ry="31.1"/>
<text text-anchor="middle" x="224.5" y="-768.6" font-family="Times,serif" font-size="14.00">Cut</text>
</g>
<!-- f1 -->
<g id="node7" class="node">
<title>f1</title>
<ellipse fill="none" stroke="black" cx="230.5" cy="-672" rx="27" ry="18"/>
<text text-anchor="middle" x="230.5" y="-668.3" font-family="Times,serif" font-size="14.00">PiR</text>
</g>
<!-- c1b&#45;&gt;f1 -->
<g id="edge4" class="edge">
<title>c1b&#45;&gt;f1</title>
<path fill="none" stroke="red" d="M226.35,-741C227.13,-728.09 228.05,-713.13 228.82,-700.53"/>
<polygon fill="red" stroke="red" points="232.33,-700.38 229.45,-690.18 225.35,-699.95 232.33,-700.38"/>
<text text-anchor="middle" x="233.5" y="-711.8" font-family="Times,serif" font-size="14.00">1</text>
</g>
<!-- x2i_o1 -->
<g id="node8" class="node">
<title>x2i_o1</title>
<ellipse fill="none" stroke="black" cx="109.5" cy="-672" rx="27" ry="18"/>
<text text-anchor="middle" x="109.5" y="-668.3" font-family="Times,serif" font-size="14.00">PiL</text>
</g>
<!-- c1b&#45;&gt;x2i_o1 -->
<g id="edge5" class="edge">
<title>c1b&#45;&gt;x2i_o1</title>
<path fill="none" stroke="blue" stroke-width="2" d="M200.95,-751.17C181.2,-734.28 153.12,-710.28 133.29,-693.34"/>
<polygon fill="blue" stroke="blue" stroke-width="2" points="135.49,-690.61 125.62,-686.78 130.94,-695.94 135.49,-690.61"/>
<text text-anchor="middle" x="172.5" y="-711.8" font-family="Times,serif" font-size="14.00">0</text>
</g>
<!-- d1 -->
<g id="node9" class="node">
<title>d1</title>
<ellipse fill="none" stroke="black" cx="214.5" cy="-599" rx="29.8" ry="18"/>
<text text-anchor="middle" x="214.5" y="-595.3" font-family="Times,serif" font-size="14.00">Dup</text>
</g>
<!-- f1&#45;&gt;d1 -->
<g id="edge9" class="edge">
<title>f1&#45;&gt;d1</title>
<path fill="none" stroke="red" d="M226.71,-654.17C224.88,-646.07 222.64,-636.15 220.59,-627.03"/>
<polygon fill="red" stroke="red" points="223.99,-626.18 218.37,-617.2 217.16,-627.72 223.99,-626.18"/>
</g>
<!-- d2 -->
<g id="node10" class="node">
<title>d2</title>
<ellipse fill="none" stroke="black" cx="309.5" cy="-599" rx="29.8" ry="18"/>
<text text-anchor="middle" x="309.5" y="-595.3" font-family="Times,serif" font-size="14.00">Dup</text>
</g>
<!-- f1&#45;&gt;d2 -->
<g id="edge10" class="edge">
<title>f1&#45;&gt;d2</title>
<path fill="none" stroke="blue" d="M246.1,-656.97C257.43,-646.8 272.94,-632.86 285.79,-621.31"/>
<polygon fill="blue" stroke="blue" points="288.28,-623.77 293.38,-614.49 283.6,-618.57 288.28,-623.77"/>
</g>
<!-- x2i_o1&#45;&gt;ret -->
<g id="edge15" class="edge">
<title>x2i_o1&#45;&gt;ret</title>
<path fill="none" stroke="blue" stroke-width="2" d="M97.78,-655.59C90.63,-646.2 81.36,-634 73.31,-623.42"/>
<polygon fill="blue" stroke="blue" stroke-width="2" points="76.03,-621.22 67.19,-615.38 70.46,-625.45 76.03,-621.22"/>
</g>
<!-- x2i_o1&#45;&gt;x1_o1 -->
<g id="edge14" class="edge">
<title>x2i_o1&#45;&gt;x1_o1</title>
<path fill="none" stroke="red" d="M115.66,-654.17C118.7,-645.86 122.45,-635.64 125.86,-626.33"/>
<polygon fill="red" stroke="red" points="129.23,-627.3 129.38,-616.71 122.65,-624.89 129.23,-627.3"/>
</g>
<!-- d1&#45;&gt;d2 -->
<g id="edge6" class="edge">
<title>d1&#45;&gt;d2</title>
<path fill="none" stroke="black" stroke-dasharray="5,2" d="M244.56,-599C256.22,-599 267.89,-599 279.56,-599"/>
</g>
<!-- f_ret -->
<g id="node11" class="node">
<title>f_ret</title>
<ellipse fill="none" stroke="black" cx="231.5" cy="-512" rx="27" ry="18"/>
<text text-anchor="middle" x="231.5" y="-508.3" font-family="Times,serif" font-size="14.00">I</text>
</g>
<!-- d1&#45;&gt;f_ret -->
<g id="edge7" class="edge">
<title>d1&#45;&gt;f_ret</title>
<path fill="none" stroke="red" d="M217.94,-580.8C220.28,-569.09 223.43,-553.34 226.1,-539.97"/>
<polygon fill="red" stroke="red" points="229.59,-540.38 228.12,-529.89 222.73,-539 229.59,-540.38"/>
</g>
<!-- hi_retp -->
<g id="node12" class="node">
<title>hi_retp</title>
<ellipse fill="none" stroke="black" cx="309.5" cy="-512" rx="27" ry="18"/>
<text text-anchor="middle" x="309.5" y="-508.3" font-family="Times,serif" font-size="14.00">!p</text>
</g>
<!-- d2&#45;&gt;hi_retp -->
<g id="edge8" class="edge">
<title>d2&#45;&gt;hi_retp</title>
<path fill="none" stroke="blue" d="M309.5,-580.8C309.5,-569.16 309.5,-553.55 309.5,-540.24"/>
<polygon fill="blue" stroke="blue" points="313,-540.18 309.5,-530.18 306,-540.18 313,-540.18"/>
<text text-anchor="middle" x="314.5" y="-551.8" font-family="Times,serif" font-size="14.00">1</text>
</g>
<!-- hi_ret -->
<g id="node22" class="node">
<title>hi_ret</title>
<ellipse fill="none" stroke="black" cx="254.5" cy="-251" rx="27" ry="18"/>
<text text-anchor="middle" x="254.5" y="-247.3" font-family="Times,serif" font-size="14.00">I</text>
</g>
<!-- hi_retp&#45;&gt;hi_ret -->
<g id="edge27" class="edge">
<title>hi_retp&#45;&gt;hi_ret</title>
<path fill="none" stroke="red" d="M298.9,-495.28C290.5,-481.96 279.25,-462.05 273.5,-443 256.46,-386.52 253.9,-316.82 253.94,-279.19"/>
<polygon fill="red" stroke="red" points="257.44,-279.06 254.02,-269.03 250.44,-279 257.44,-279.06"/>
<text text-anchor="middle" x="266.5" y="-377.8" font-family="Times,serif" font-size="14.00">2</text>
</g>
<!-- h_di -->
<g id="node23" class="node">
<title>h_di</title>
<ellipse fill="none" stroke="black" cx="309.5" cy="-425" rx="27" ry="18"/>
<text text-anchor="middle" x="309.5" y="-421.3" font-family="Times,serif" font-size="14.00">!d</text>
</g>
<!-- hi_retp&#45;&gt;h_di -->
<g id="edge28" class="edge">
<title>hi_retp&#45;&gt;h_di</title>
<path fill="none" stroke="blue" d="M309.5,-493.8C309.5,-482.16 309.5,-466.55 309.5,-453.24"/>
<polygon fill="blue" stroke="blue" points="313,-453.18 309.5,-443.18 306,-453.18 313,-453.18"/>
<text text-anchor="middle" x="314.5" y="-464.8" font-family="Times,serif" font-size="14.00">1</text>
</g>
<!-- f2&#45;&gt;d1 -->
<g id="edge11" class="edge">
<title>f2&#45;&gt;d1</title>
<path fill="none" stroke="red" d="M285.94,-657.65C272.47,-646.78 253.29,-631.3 238.19,-619.12"/>
<ellipse fill="none" stroke="red" cx="234.69" cy="-616.29" rx="4" ry="4"/>
</g>
<!-- f2&#45;&gt;d2 -->
<g id="edge12" class="edge">
<title>f2&#45;&gt;d2</title>
<path fill="none" stroke="blue" d="M304.19,-653.81C305.04,-645.18 306.09,-634.56 307.03,-625.03"/>
<ellipse fill="none" stroke="blue" cx="307.43" cy="-621.01" rx="4" ry="4"/>
</g>
<!-- c2 -->
<g id="node14" class="node">
<title>c2</title>
<ellipse fill="none" stroke="black" cx="428.5" cy="-672" rx="27.1" ry="18"/>
<text text-anchor="middle" x="428.5" y="-668.3" font-family="Times,serif" font-size="14.00">Cut</text>
</g>
<!-- o2 -->
<g id="node15" class="node">
<title>o2</title>
<ellipse fill="none" stroke="black" cx="473.5" cy="-599" rx="27" ry="18"/>
<text text-anchor="middle" x="473.5" y="-595.3" font-family="Times,serif" font-size="14.00">PiR</text>
</g>
<!-- c2&#45;&gt;o2 -->
<g id="edge16" class="edge">
<title>c2&#45;&gt;o2</title>
<path fill="none" stroke="red" d="M438.48,-655.24C444.17,-646.27 451.42,-634.83 457.85,-624.69"/>
<polygon fill="red" stroke="red" points="460.83,-626.53 463.23,-616.21 454.92,-622.78 460.83,-626.53"/>
</g>
<!-- o2l -->
<g id="node16" class="node">
<title>o2l</title>
<ellipse fill="none" stroke="black" cx="384.5" cy="-599" rx="27" ry="18"/>
<text text-anchor="middle" x="384.5" y="-595.3" font-family="Times,serif" font-size="14.00">PiL</text>
</g>
<!-- c2&#45;&gt;o2l -->
<g id="edge17" class="edge">
<title>c2&#45;&gt;o2l</title>
<path fill="none" stroke="blue" d="M418.51,-654.89C413,-645.99 406.03,-634.75 399.84,-624.77"/>
<polygon fill="blue" stroke="blue" points="402.68,-622.7 394.44,-616.05 396.73,-626.39 402.68,-622.7"/>
</g>
<!-- x_o2 -->
<g id="node17" class="node">
<title>x_o2</title>
<ellipse fill="none" stroke="black" cx="473.5" cy="-512" rx="27" ry="18"/>
<text text-anchor="middle" x="473.5" y="-508.3" font-family="Times,serif" font-size="14.00">!c</text>
</g>
<!-- o2&#45;&gt;x_o2 -->
<g id="edge18" class="edge">
<title>o2&#45;&gt;x_o2</title>
<path fill="none" stroke="blue" d="M473.5,-580.8C473.5,-569.16 473.5,-553.55 473.5,-540.24"/>
<polygon fill="blue" stroke="blue" points="477,-540.18 473.5,-530.18 470,-540.18 477,-540.18"/>
</g>
<!-- ret_o2 -->
<g id="node18" class="node">
<title>ret_o2</title>
<ellipse fill="none" stroke="black" cx="545.5" cy="-251" rx="27" ry="18"/>
<text text-anchor="middle" x="545.5" y="-247.3" font-family="Times,serif" font-size="14.00">I</text>
</g>
<!-- o2&#45;&gt;ret_o2 -->
<g id="edge19" class="edge">
<title>o2&#45;&gt;ret_o2</title>
<path fill="none" stroke="red" d="M493.44,-586.36C515.06,-572.07 546.5,-545.68 546.5,-513 546.5,-513 546.5,-513 546.5,-337 546.5,-317.75 546.24,-296.05 545.98,-279.4"/>
<polygon fill="red" stroke="red" points="549.48,-279.2 545.82,-269.26 542.48,-279.31 549.48,-279.2"/>
</g>
<!-- o2l&#45;&gt;f_ret -->
<g id="edge26" class="edge">
<title>o2l&#45;&gt;f_ret</title>
<path fill="none" stroke="blue" d="M370.02,-583.7C358.28,-572.74 340.89,-557.87 323.5,-548 302.95,-536.34 295.56,-538.43 273.5,-530 270.24,-528.75 266.85,-527.43 263.47,-526.09"/>
<polygon fill="blue" stroke="blue" points="264.69,-522.81 254.1,-522.34 262.08,-529.31 264.69,-522.81"/>
</g>
<!-- o2l&#45;&gt;hi_retp -->
<g id="edge25" class="edge">
<title>o2l&#45;&gt;hi_retp</title>
<path fill="none" stroke="red" d="M376.28,-581.72C370.66,-571.45 362.59,-558.23 353.5,-548 348.32,-542.18 342.1,-536.59 335.99,-531.66"/>
<polygon fill="red" stroke="red" points="337.89,-528.7 327.83,-525.36 333.61,-534.24 337.89,-528.7"/>
<text text-anchor="middle" x="369.5" y="-551.8" font-family="Times,serif" font-size="14.00">1</text>
</g>
<!-- x1_o2 -->
<g id="node19" class="node">
<title>x1_o2</title>
<ellipse fill="none" stroke="black" cx="472.5" cy="-251" rx="27" ry="18"/>
<text text-anchor="middle" x="472.5" y="-247.3" font-family="Times,serif" font-size="14.00">I</text>
</g>
<!-- x_o2&#45;&gt;x1_o2 -->
<g id="edge20" class="edge">
<title>x_o2&#45;&gt;x1_o2</title>
<path fill="none" stroke="blue" d="M467.75,-494.2C463.4,-480.58 457.81,-460.8 455.5,-443 448.44,-388.79 448.82,-374.26 455.5,-320 457.2,-306.13 460.8,-291.02 464.25,-278.57"/>
<polygon fill="blue" stroke="blue" points="467.65,-279.41 467.06,-268.83 460.93,-277.46 467.65,-279.41"/>
</g>
<!-- x2_o2 -->
<g id="node20" class="node">
<title>x2_o2</title>
<ellipse fill="none" stroke="black" cx="491.5" cy="-425" rx="27" ry="18"/>
<text text-anchor="middle" x="491.5" y="-421.3" font-family="Times,serif" font-size="14.00">!d</text>
</g>
<!-- x_o2&#45;&gt;x2_o2 -->
<g id="edge21" class="edge">
<title>x_o2&#45;&gt;x2_o2</title>
<path fill="none" stroke="blue" d="M477.14,-493.8C479.62,-482.09 482.95,-466.34 485.78,-452.97"/>
<polygon fill="blue" stroke="blue" points="489.27,-453.39 487.92,-442.89 482.43,-451.94 489.27,-453.39"/>
</g>
<!-- x2i_o2 -->
<g id="node21" class="node">
<title>x2i_o2</title>
<ellipse fill="none" stroke="black" cx="491.5" cy="-338" rx="27" ry="18"/>
<text text-anchor="middle" x="491.5" y="-334.3" font-family="Times,serif" font-size="14.00">PiL</text>
</g>
<!-- x2_o2&#45;&gt;x2i_o2 -->
<g id="edge22" class="edge">
<title>x2_o2&#45;&gt;x2i_o2</title>
<path fill="none" stroke="blue" d="M491.5,-406.8C491.5,-395.16 491.5,-379.55 491.5,-366.24"/>
<polygon fill="blue" stroke="blue" points="495,-366.18 491.5,-356.18 488,-366.18 495,-366.18"/>
</g>
<!-- x2i_o2&#45;&gt;ret_o2 -->
<g id="edge24" class="edge">
<title>x2i_o2&#45;&gt;ret_o2</title>
<path fill="none" stroke="blue" d="M501.65,-321.01C509.57,-308.55 520.71,-291.01 529.78,-276.74"/>
<polygon fill="blue" stroke="blue" points="532.98,-278.23 535.39,-267.92 527.07,-274.48 532.98,-278.23"/>
</g>
<!-- x2i_o2&#45;&gt;x1_o2 -->
<g id="edge23" class="edge">
<title>x2i_o2&#45;&gt;x1_o2</title>
<path fill="none" stroke="red" d="M487.65,-319.8C485.03,-308.09 481.51,-292.34 478.53,-278.97"/>
<polygon fill="red" stroke="red" points="481.87,-277.88 476.27,-268.89 475.04,-279.41 481.87,-277.88"/>
</g>
<!-- h -->
<g id="node24" class="node">
<title>h</title>
<ellipse fill="none" stroke="black" cx="309.5" cy="-338" rx="27" ry="18"/>
<text text-anchor="middle" x="309.5" y="-334.3" font-family="Times,serif" font-size="14.00">PiL</text>
</g>
<!-- h_di&#45;&gt;h -->
<g id="edge29" class="edge">
<title>h_di&#45;&gt;h</title>
<path fill="none" stroke="blue" d="M309.5,-406.8C309.5,-395.16 309.5,-379.55 309.5,-366.24"/>
<polygon fill="blue" stroke="blue" points="313,-366.18 309.5,-356.18 306,-366.18 313,-366.18"/>
<text text-anchor="middle" x="314.5" y="-377.8" font-family="Times,serif" font-size="14.00">2</text>
</g>
<!-- h&#45;&gt;hi_ret -->
<g id="edge37" class="edge">
<title>h&#45;&gt;hi_ret</title>
<path fill="none" stroke="blue" d="M299.15,-321.01C291.01,-308.43 279.52,-290.68 270.24,-276.33"/>
<polygon fill="blue" stroke="blue" points="273.17,-274.41 264.8,-267.92 267.29,-278.21 273.17,-274.41"/>
</g>
<!-- h_app -->
<g id="node27" class="node">
<title>h_app</title>
<ellipse fill="none" stroke="black" cx="326.5" cy="-251" rx="27" ry="18"/>
<text text-anchor="middle" x="326.5" y="-247.3" font-family="Times,serif" font-size="14.00">I</text>
</g>
<!-- h&#45;&gt;h_app -->
<g id="edge36" class="edge">
<title>h&#45;&gt;h_app</title>
<path fill="none" stroke="red" d="M312.94,-319.8C315.28,-308.09 318.43,-292.34 321.1,-278.97"/>
<polygon fill="red" stroke="red" points="324.59,-279.38 323.12,-268.89 317.73,-278 324.59,-279.38"/>
</g>
<!-- c3 -->
<g id="node25" class="node">
<title>c3</title>
<ellipse fill="none" stroke="black" cx="381.5" cy="-338" rx="27.1" ry="18"/>
<text text-anchor="middle" x="381.5" y="-334.3" font-family="Times,serif" font-size="14.00">Cut</text>
</g>
<!-- i -->
<g id="node26" class="node">
<title>i</title>
<ellipse fill="none" stroke="black" cx="398.5" cy="-251" rx="27" ry="18"/>
<text text-anchor="middle" x="398.5" y="-247.3" font-family="Times,serif" font-size="14.00">!p</text>
</g>
<!-- c3&#45;&gt;i -->
<g id="edge30" class="edge">
<title>c3&#45;&gt;i</title>
<path fill="none" stroke="red" d="M384.94,-319.8C387.28,-308.09 390.43,-292.34 393.1,-278.97"/>
<polygon fill="red" stroke="red" points="396.59,-279.38 395.12,-268.89 389.73,-278 396.59,-279.38"/>
<text text-anchor="middle" x="396.5" y="-290.8" font-family="Times,serif" font-size="14.00">2</text>
</g>
<!-- c3&#45;&gt;h_app -->
<g id="edge31" class="edge">
<title>c3&#45;&gt;h_app</title>
<path fill="none" stroke="blue" d="M371.15,-321.01C363.01,-308.43 351.52,-290.68 342.24,-276.33"/>
<polygon fill="blue" stroke="blue" points="345.17,-274.41 336.8,-267.92 339.29,-278.21 345.17,-274.41"/>
</g>
<!-- i_i -->
<g id="node28" class="node">
<title>i_i</title>
<ellipse fill="none" stroke="black" cx="398.5" cy="-164" rx="27" ry="18"/>
<text text-anchor="middle" x="398.5" y="-160.3" font-family="Times,serif" font-size="14.00">PiR</text>
</g>
<!-- i&#45;&gt;i_i -->
<g id="edge32" class="edge">
<title>i&#45;&gt;i_i</title>
<path fill="none" stroke="red" d="M398.5,-232.8C398.5,-221.16 398.5,-205.55 398.5,-192.24"/>
<polygon fill="red" stroke="red" points="402,-192.18 398.5,-182.18 395,-192.18 402,-192.18"/>
<text text-anchor="middle" x="403.5" y="-203.8" font-family="Times,serif" font-size="14.00">3</text>
</g>
<!-- il -->
<g id="node29" class="node">
<title>il</title>
<ellipse fill="none" stroke="black" cx="441.5" cy="-91" rx="27" ry="18"/>
<text text-anchor="middle" x="441.5" y="-87.3" font-family="Times,serif" font-size="14.00">!d</text>
</g>
<!-- i_i&#45;&gt;il -->
<g id="edge33" class="edge">
<title>i_i&#45;&gt;il</title>
<path fill="none" stroke="blue" d="M408.25,-146.89C413.64,-137.99 420.45,-126.75 426.5,-116.77"/>
<polygon fill="blue" stroke="blue" points="429.59,-118.41 431.78,-108.05 423.6,-114.79 429.59,-118.41"/>
</g>
<!-- i_ret -->
<g id="node30" class="node">
<title>i_ret</title>
<ellipse fill="none" stroke="black" cx="398.5" cy="-18" rx="27" ry="18"/>
<text text-anchor="middle" x="398.5" y="-14.3" font-family="Times,serif" font-size="14.00">I</text>
</g>
<!-- i_i&#45;&gt;i_ret -->
<g id="edge34" class="edge">
<title>i_i&#45;&gt;i_ret</title>
<path fill="none" stroke="red" d="M398.5,-145.92C398.5,-121.34 398.5,-75.75 398.5,-46.43"/>
<polygon fill="red" stroke="red" points="402,-46.06 398.5,-36.06 395,-46.06 402,-46.06"/>
</g>
<!-- il&#45;&gt;i_ret -->
<g id="edge35" class="edge">
<title>il&#45;&gt;i_ret</title>
<path fill="none" stroke="blue" d="M431.74,-73.89C426.35,-64.99 419.54,-53.75 413.5,-43.77"/>
<polygon fill="blue" stroke="blue" points="416.39,-41.79 408.22,-35.05 410.4,-45.41 416.39,-41.79"/>
</g>
</g>
</svg>
