<?xml version="1.0" encoding="UTF-8" standalone="no"?>
<!DOCTYPE svg PUBLIC "-//W3C//DTD SVG 1.1//EN"
 "http://www.w3.org/Graphics/SVG/1.1/DTD/svg11.dtd">
<!-- Generated by graphviz version 2.40.1 (20161225.0304)
 -->
<!-- Title: %3 Pages: 1 -->
<svg width="412pt" height="914pt"
 viewBox="0.00 0.00 412.50 913.90" xmlns="http://www.w3.org/2000/svg" xmlns:xlink="http://www.w3.org/1999/xlink">
<g id="graph0" class="graph" transform="scale(1 1) rotate(0) translate(4 909.895)">
<title>%3</title>
<polygon fill="#ffffff" stroke="transparent" points="-4,4 -4,-909.895 408.4971,-909.895 408.4971,4 -4,4"/>
<!-- Root -->
<g id="node1" class="node">
<title>Root</title>
<ellipse fill="none" stroke="#000000" cx="32.4971" cy="-713.895" rx="32.4942" ry="18"/>
<text text-anchor="middle" x="32.4971" y="-710.195" font-family="Times,serif" font-size="14.00" fill="#000000">Root</text>
</g>
<!-- d1 -->
<g id="node2" class="node">
<title>d1</title>
<ellipse fill="none" stroke="#000000" cx="35.4971" cy="-612.9475" rx="29.795" ry="18"/>
<text text-anchor="middle" x="35.4971" y="-609.2475" font-family="Times,serif" font-size="14.00" fill="#000000">Dup</text>
</g>
<!-- Root&#45;&gt;d1 -->
<g id="edge1" class="edge">
<title>Root&#45;&gt;d1</title>
<path fill="none" stroke="#ff0000" stroke-width="2" d="M33.0335,-695.8476C33.4829,-680.7253 34.1324,-658.8684 34.6517,-641.3938"/>
<polygon fill="#ff0000" stroke="#ff0000" stroke-width="2" points="38.1566,-641.2786 34.9553,-631.179 31.1597,-641.0706 38.1566,-641.2786"/>
<text text-anchor="middle" x="51.9971" y="-666.695" font-family="Times,serif" font-size="14.00" fill="#000000">0&#45;&gt;1</text>
</g>
<!-- d2 -->
<g id="node6" class="node">
<title>d2</title>
<ellipse fill="none" stroke="#000000" cx="130.4971" cy="-612.9475" rx="29.795" ry="18"/>
<text text-anchor="middle" x="130.4971" y="-609.2475" font-family="Times,serif" font-size="14.00" fill="#000000">Dup</text>
</g>
<!-- d1&#45;&gt;d2 -->
<g id="edge4" class="edge">
<title>d1&#45;&gt;d2</title>
<path fill="none" stroke="#000000" stroke-dasharray="5,2" d="M65.5557,-612.9475C77.2249,-612.9475 88.894,-612.9475 100.5632,-612.9475"/>
</g>
<!-- f_ret -->
<g id="node7" class="node">
<title>f_ret</title>
<ellipse fill="none" stroke="#000000" cx="107.4971" cy="-512" rx="27" ry="18"/>
<text text-anchor="middle" x="107.4971" y="-508.3" font-family="Times,serif" font-size="14.00" fill="#000000">I</text>
</g>
<!-- d1&#45;&gt;f_ret -->
<g id="edge5" class="edge">
<title>d1&#45;&gt;f_ret</title>
<path fill="none" stroke="#ff0000" stroke-width="2" d="M47.3865,-596.2781C58.972,-580.0346 76.7232,-555.1465 89.9357,-536.622"/>
<polygon fill="#ff0000" stroke="#ff0000" stroke-width="2" points="92.8717,-538.533 95.829,-528.3593 87.1727,-534.4682 92.8717,-538.533"/>
</g>
<!-- c1a -->
<g id="node3" class="node">
<title>c1a</title>
<ellipse fill="none" stroke="#000000" cx="131.4971" cy="-887.895" rx="27.8951" ry="18"/>
<text text-anchor="middle" x="131.4971" y="-884.195" font-family="Times,serif" font-size="14.00" fill="#000000">Cut</text>
</g>
<!-- fp1 -->
<g id="node4" class="node">
<title>fp1</title>
<ellipse fill="none" stroke="#000000" cx="96.4971" cy="-800.895" rx="27" ry="18"/>
<text text-anchor="middle" x="96.4971" y="-797.195" font-family="Times,serif" font-size="14.00" fill="#000000">!p</text>
</g>
<!-- c1a&#45;&gt;fp1 -->
<g id="edge2" class="edge">
<title>c1a&#45;&gt;fp1</title>
<path fill="none" stroke="#ff0000" d="M124.4143,-870.2893C119.528,-858.1433 112.938,-841.7625 107.3878,-827.9662"/>
<polygon fill="#ff0000" stroke="#ff0000" points="110.5488,-826.4457 103.5694,-818.4746 104.0546,-829.0583 110.5488,-826.4457"/>
<text text-anchor="middle" x="120.4971" y="-840.695" font-family="Times,serif" font-size="14.00" fill="#000000">0</text>
</g>
<!-- x1_o1 -->
<g id="node5" class="node">
<title>x1_o1</title>
<ellipse fill="none" stroke="#000000" cx="168.4971" cy="-800.895" rx="27" ry="18"/>
<text text-anchor="middle" x="168.4971" y="-797.195" font-family="Times,serif" font-size="14.00" fill="#000000">I</text>
</g>
<!-- c1a&#45;&gt;x1_o1 -->
<g id="edge3" class="edge">
<title>c1a&#45;&gt;x1_o1</title>
<path fill="none" stroke="#0000ff" d="M138.9846,-870.2893C144.1502,-858.1433 151.1167,-841.7625 156.9841,-827.9662"/>
<polygon fill="#0000ff" stroke="#0000ff" points="160.3279,-829.0468 161.0207,-818.4746 153.8862,-826.3072 160.3279,-829.0468"/>
</g>
<!-- f2 -->
<g id="node10" class="node">
<title>f2</title>
<ellipse fill="none" stroke="#000000" cx="109.4971" cy="-713.895" rx="27" ry="18"/>
<text text-anchor="middle" x="109.4971" y="-710.195" font-family="Times,serif" font-size="14.00" fill="#000000">PiR</text>
</g>
<!-- fp1&#45;&gt;f2 -->
<g id="edge11" class="edge">
<title>fp1&#45;&gt;f2</title>
<path fill="none" stroke="#ff0000" d="M99.1907,-782.8686C100.9512,-771.0868 103.2869,-755.4557 105.2896,-742.0531"/>
<polygon fill="#ff0000" stroke="#ff0000" points="108.7906,-742.3059 106.807,-731.8984 101.8675,-741.2713 108.7906,-742.3059"/>
<text text-anchor="middle" x="108.4971" y="-753.695" font-family="Times,serif" font-size="14.00" fill="#000000">1</text>
</g>
<!-- hi_retp -->
<g id="node9" class="node">
<title>hi_retp</title>
<ellipse fill="none" stroke="#000000" cx="212.4971" cy="-512" rx="27" ry="18"/>
<text text-anchor="middle" x="212.4971" y="-508.3" font-family="Times,serif" font-size="14.00" fill="#000000">!p</text>
</g>
<!-- d2&#45;&gt;hi_retp -->
<g id="edge8" class="edge">
<title>d2&#45;&gt;hi_retp</title>
<path fill="none" stroke="#0000ff" d="M143.6718,-596.7286C157.0803,-580.2219 178.0063,-554.4605 193.266,-535.6749"/>
<polygon fill="#0000ff" stroke="#0000ff" points="196.0371,-537.8146 199.6254,-527.8459 190.6037,-533.401 196.0371,-537.8146"/>
<text text-anchor="middle" x="185.4971" y="-551.8" font-family="Times,serif" font-size="14.00" fill="#000000">1</text>
</g>
<!-- c1bb -->
<g id="node8" class="node">
<title>c1bb</title>
<ellipse fill="none" stroke="#000000" cx="208.4971" cy="-887.895" rx="27.8951" ry="18"/>
<text text-anchor="middle" x="208.4971" y="-884.195" font-family="Times,serif" font-size="14.00" fill="#000000">Cut</text>
</g>
<!-- c1bb&#45;&gt;x1_o1 -->
<g id="edge6" class="edge">
<title>c1bb&#45;&gt;x1_o1</title>
<path fill="none" stroke="#ff0000" d="M200.4025,-870.2893C194.7268,-857.9446 187.0399,-841.2256 180.6334,-827.2915"/>
<polygon fill="#ff0000" stroke="#ff0000" points="183.8006,-825.8013 176.4432,-818.1777 177.4406,-828.7255 183.8006,-825.8013"/>
<text text-anchor="middle" x="195.4971" y="-840.695" font-family="Times,serif" font-size="14.00" fill="#000000">0</text>
</g>
<!-- c1bb&#45;&gt;d2 -->
<g id="edge7" class="edge">
<title>c1bb&#45;&gt;d2</title>
<path fill="none" stroke="#0000ff" d="M209.8213,-869.7952C210.9077,-848.6566 211.316,-812.774 204.4971,-782.895 192.2457,-729.2115 163.3121,-671.3671 145.4703,-638.9073"/>
<polygon fill="#0000ff" stroke="#0000ff" points="148.4661,-637.0931 140.5377,-630.0652 142.353,-640.5034 148.4661,-637.0931"/>
<text text-anchor="middle" x="204.4971" y="-753.695" font-family="Times,serif" font-size="14.00" fill="#000000">1</text>
</g>
<!-- hi_ret -->
<g id="node18" class="node">
<title>hi_ret</title>
<ellipse fill="none" stroke="#000000" cx="190.4971" cy="-251" rx="27" ry="18"/>
<text text-anchor="middle" x="190.4971" y="-247.3" font-family="Times,serif" font-size="14.00" fill="#000000">I</text>
</g>
<!-- hi_retp&#45;&gt;hi_ret -->
<g id="edge21" class="edge">
<title>hi_retp&#45;&gt;hi_ret</title>
<path fill="none" stroke="#ff0000" d="M210.9501,-493.647C207.1619,-448.7053 197.4007,-332.9017 192.8712,-279.1653"/>
<polygon fill="#ff0000" stroke="#ff0000" points="196.3409,-278.6569 192.0132,-268.9862 189.3656,-279.2449 196.3409,-278.6569"/>
<text text-anchor="middle" x="206.4971" y="-377.8" font-family="Times,serif" font-size="14.00" fill="#000000">2</text>
</g>
<!-- h_di -->
<g id="node19" class="node">
<title>h_di</title>
<ellipse fill="none" stroke="#000000" cx="245.4971" cy="-425" rx="27" ry="18"/>
<text text-anchor="middle" x="245.4971" y="-421.3" font-family="Times,serif" font-size="14.00" fill="#000000">!d</text>
</g>
<!-- hi_retp&#45;&gt;h_di -->
<g id="edge22" class="edge">
<title>hi_retp&#45;&gt;h_di</title>
<path fill="none" stroke="#0000ff" d="M219.1752,-494.3943C223.7823,-482.2482 229.9957,-465.8674 235.2288,-452.0711"/>
<polygon fill="#0000ff" stroke="#0000ff" points="238.5549,-453.1709 238.829,-442.5796 232.0099,-450.6882 238.5549,-453.1709"/>
<text text-anchor="middle" x="235.4971" y="-464.8" font-family="Times,serif" font-size="14.00" fill="#000000">1</text>
</g>
<!-- f2&#45;&gt;d1 -->
<g id="edge9" class="edge">
<title>f2&#45;&gt;d1</title>
<path fill="none" stroke="#ff0000" d="M97.9722,-697.251C90.9797,-687.2325 81.8263,-674.2585 73.4971,-662.895 66.9914,-654.0193 59.7042,-644.3725 53.2648,-635.9446"/>
<ellipse fill="none" stroke="#ff0000" cx="50.7469" cy="-632.6596" rx="4" ry="4"/>
</g>
<!-- f2&#45;&gt;d2 -->
<g id="edge10" class="edge">
<title>f2&#45;&gt;d2</title>
<path fill="none" stroke="#0000ff" d="M113.2515,-695.8476C116.5364,-680.0571 121.3488,-656.9239 125.0558,-639.1042"/>
<ellipse fill="none" stroke="#0000ff" cx="125.9605" cy="-634.7548" rx="4" ry="4"/>
</g>
<!-- c2a -->
<g id="node11" class="node">
<title>c2a</title>
<ellipse fill="none" stroke="#000000" cx="210.4971" cy="-612.9475" rx="27.9017" ry="27.9017"/>
<ellipse fill="none" stroke="#000000" cx="210.4971" cy="-612.9475" rx="31.8951" ry="31.8951"/>
<text text-anchor="middle" x="210.4971" y="-609.2475" font-family="Times,serif" font-size="14.00" fill="#000000">Cut</text>
</g>
<!-- c2a&#45;&gt;f_ret -->
<g id="edge13" class="edge">
<title>c2a&#45;&gt;f_ret</title>
<path fill="none" stroke="#0000ff" stroke-width="2" d="M198.0603,-583.4267C191.9476,-571.3976 183.6837,-558 173.4971,-548 164.1102,-538.7851 151.8854,-531.2462 140.5118,-525.4919"/>
<polygon fill="#0000ff" stroke="#0000ff" stroke-width="2" points="141.7731,-522.2161 131.2393,-521.0804 138.7657,-528.5372 141.7731,-522.2161"/>
</g>
<!-- ret_o2 -->
<g id="node12" class="node">
<title>ret_o2</title>
<ellipse fill="none" stroke="#000000" cx="301.4971" cy="-512" rx="27" ry="18"/>
<text text-anchor="middle" x="301.4971" y="-508.3" font-family="Times,serif" font-size="14.00" fill="#000000">I</text>
</g>
<!-- c2a&#45;&gt;ret_o2 -->
<g id="edge12" class="edge">
<title>c2a&#45;&gt;ret_o2</title>
<path fill="none" stroke="#ff0000" d="M232.0628,-589.0244C246.7874,-572.6902 266.1871,-551.1699 280.7369,-535.0296"/>
<polygon fill="#ff0000" stroke="#ff0000" points="283.3522,-537.3556 287.4483,-527.5846 278.1529,-532.6687 283.3522,-537.3556"/>
</g>
<!-- c2b -->
<g id="node13" class="node">
<title>c2b</title>
<ellipse fill="none" stroke="#000000" cx="284.4971" cy="-887.895" rx="27.8951" ry="18"/>
<text text-anchor="middle" x="284.4971" y="-884.195" font-family="Times,serif" font-size="14.00" fill="#000000">Cut</text>
</g>
<!-- c2b&#45;&gt;hi_retp -->
<g id="edge14" class="edge">
<title>c2b&#45;&gt;hi_retp</title>
<path fill="none" stroke="#ff0000" d="M279.913,-870.0347C275.83,-852.5415 270.4971,-825.0666 270.4971,-800.895 270.4971,-800.895 270.4971,-800.895 270.4971,-612.9475 270.4971,-582.8816 250.9149,-553.6732 234.5071,-534.4768"/>
<polygon fill="#ff0000" stroke="#ff0000" points="237.0057,-532.02 227.7359,-526.8894 231.783,-536.6809 237.0057,-532.02"/>
<text text-anchor="middle" x="275.4971" y="-710.195" font-family="Times,serif" font-size="14.00" fill="#000000">1</text>
</g>
<!-- x_o2 -->
<g id="node14" class="node">
<title>x_o2</title>
<ellipse fill="none" stroke="#000000" cx="325.4971" cy="-800.895" rx="27" ry="18"/>
<text text-anchor="middle" x="325.4971" y="-797.195" font-family="Times,serif" font-size="14.00" fill="#000000">!c</text>
</g>
<!-- c2b&#45;&gt;x_o2 -->
<g id="edge15" class="edge">
<title>c2b&#45;&gt;x_o2</title>
<path fill="none" stroke="#0000ff" d="M292.7941,-870.2893C298.6117,-857.9446 306.4907,-841.2256 313.0574,-827.2915"/>
<polygon fill="#0000ff" stroke="#0000ff" points="316.2554,-828.7156 317.3524,-818.1777 309.9233,-825.7315 316.2554,-828.7156"/>
</g>
<!-- x1_o2 -->
<g id="node15" class="node">
<title>x1_o2</title>
<ellipse fill="none" stroke="#000000" cx="377.4971" cy="-512" rx="27" ry="18"/>
<text text-anchor="middle" x="377.4971" y="-508.3" font-family="Times,serif" font-size="14.00" fill="#000000">I</text>
</g>
<!-- x_o2&#45;&gt;x1_o2 -->
<g id="edge16" class="edge">
<title>x_o2&#45;&gt;x1_o2</title>
<path fill="none" stroke="#0000ff" d="M336.5671,-784.4115C345.0054,-770.9163 356.07,-751.0012 361.4971,-731.895 380.4512,-665.1672 380.5879,-582.7168 379.0507,-540.2437"/>
<polygon fill="#0000ff" stroke="#0000ff" points="382.5411,-539.941 378.6225,-530.0975 375.5473,-540.2362 382.5411,-539.941"/>
</g>
<!-- x2_o2 -->
<g id="node16" class="node">
<title>x2_o2</title>
<ellipse fill="none" stroke="#000000" cx="325.4971" cy="-713.895" rx="27" ry="18"/>
<text text-anchor="middle" x="325.4971" y="-710.195" font-family="Times,serif" font-size="14.00" fill="#000000">!d</text>
</g>
<!-- x_o2&#45;&gt;x2_o2 -->
<g id="edge17" class="edge">
<title>x_o2&#45;&gt;x2_o2</title>
<path fill="none" stroke="#0000ff" d="M325.4971,-782.8686C325.4971,-771.0868 325.4971,-755.4557 325.4971,-742.0531"/>
<polygon fill="#0000ff" stroke="#0000ff" points="328.9972,-741.8984 325.4971,-731.8984 321.9972,-741.8984 328.9972,-741.8984"/>
</g>
<!-- x2i_o2 -->
<g id="node17" class="node">
<title>x2i_o2</title>
<ellipse fill="none" stroke="#000000" cx="325.4971" cy="-612.9475" rx="27" ry="18"/>
<text text-anchor="middle" x="325.4971" y="-609.2475" font-family="Times,serif" font-size="14.00" fill="#000000">PiL</text>
</g>
<!-- x2_o2&#45;&gt;x2i_o2 -->
<g id="edge18" class="edge">
<title>x2_o2&#45;&gt;x2i_o2</title>
<path fill="none" stroke="#0000ff" d="M325.4971,-695.8476C325.4971,-680.7253 325.4971,-658.8684 325.4971,-641.3938"/>
<polygon fill="#0000ff" stroke="#0000ff" points="328.9972,-641.179 325.4971,-631.179 321.9972,-641.1791 328.9972,-641.179"/>
</g>
<!-- x2i_o2&#45;&gt;ret_o2 -->
<g id="edge20" class="edge">
<title>x2i_o2&#45;&gt;ret_o2</title>
<path fill="none" stroke="#0000ff" d="M321.2064,-594.9001C317.5546,-579.5403 312.2511,-557.2328 308.0652,-539.6263"/>
<polygon fill="#0000ff" stroke="#0000ff" points="311.4689,-538.8104 305.7507,-529.8911 304.6587,-540.4296 311.4689,-538.8104"/>
</g>
<!-- x2i_o2&#45;&gt;x1_o2 -->
<g id="edge19" class="edge">
<title>x2i_o2&#45;&gt;x1_o2</title>
<path fill="none" stroke="#ff0000" d="M334.3182,-595.8231C342.461,-580.0156 354.6728,-556.3089 364.0339,-538.136"/>
<polygon fill="#ff0000" stroke="#ff0000" points="367.1648,-539.701 368.6328,-529.2084 360.9419,-536.4955 367.1648,-539.701"/>
</g>
<!-- h -->
<g id="node20" class="node">
<title>h</title>
<ellipse fill="none" stroke="#000000" cx="245.4971" cy="-338" rx="27" ry="18"/>
<text text-anchor="middle" x="245.4971" y="-334.3" font-family="Times,serif" font-size="14.00" fill="#000000">PiL</text>
</g>
<!-- h_di&#45;&gt;h -->
<g id="edge23" class="edge">
<title>h_di&#45;&gt;h</title>
<path fill="none" stroke="#0000ff" d="M245.4971,-406.9735C245.4971,-395.1918 245.4971,-379.5607 245.4971,-366.1581"/>
<polygon fill="#0000ff" stroke="#0000ff" points="248.9972,-366.0033 245.4971,-356.0034 241.9972,-366.0034 248.9972,-366.0033"/>
<text text-anchor="middle" x="250.4971" y="-377.8" font-family="Times,serif" font-size="14.00" fill="#000000">2</text>
</g>
<!-- h&#45;&gt;hi_ret -->
<g id="edge31" class="edge">
<title>h&#45;&gt;hi_ret</title>
<path fill="none" stroke="#0000ff" d="M234.8926,-321.2255C226.8272,-308.4677 215.5963,-290.7024 206.4487,-276.2325"/>
<polygon fill="#0000ff" stroke="#0000ff" points="209.3712,-274.3053 201.0691,-267.723 203.4543,-278.0458 209.3712,-274.3053"/>
</g>
<!-- h_app -->
<g id="node23" class="node">
<title>h_app</title>
<ellipse fill="none" stroke="#000000" cx="262.4971" cy="-251" rx="27" ry="18"/>
<text text-anchor="middle" x="262.4971" y="-247.3" font-family="Times,serif" font-size="14.00" fill="#000000">I</text>
</g>
<!-- h&#45;&gt;h_app -->
<g id="edge30" class="edge">
<title>h&#45;&gt;h_app</title>
<path fill="none" stroke="#ff0000" d="M249.0195,-319.9735C251.3217,-308.1918 254.3761,-292.5607 256.995,-279.1581"/>
<polygon fill="#ff0000" stroke="#ff0000" points="260.4964,-279.489 258.9792,-269.0034 253.6263,-278.1465 260.4964,-279.489"/>
</g>
<!-- c3 -->
<g id="node21" class="node">
<title>c3</title>
<ellipse fill="none" stroke="#000000" cx="326.4971" cy="-338" rx="27.8951" ry="18"/>
<text text-anchor="middle" x="326.4971" y="-334.3" font-family="Times,serif" font-size="14.00" fill="#000000">Cut</text>
</g>
<!-- i -->
<g id="node22" class="node">
<title>i</title>
<ellipse fill="none" stroke="#000000" cx="334.4971" cy="-251" rx="27" ry="18"/>
<text text-anchor="middle" x="334.4971" y="-247.3" font-family="Times,serif" font-size="14.00" fill="#000000">!p</text>
</g>
<!-- c3&#45;&gt;i -->
<g id="edge24" class="edge">
<title>c3&#45;&gt;i</title>
<path fill="none" stroke="#ff0000" d="M328.1547,-319.9735C329.2381,-308.1918 330.6754,-292.5607 331.9079,-279.1581"/>
<polygon fill="#ff0000" stroke="#ff0000" points="335.4112,-279.2819 332.8416,-269.0034 328.4406,-278.6408 335.4112,-279.2819"/>
<text text-anchor="middle" x="335.4971" y="-290.8" font-family="Times,serif" font-size="14.00" fill="#000000">2</text>
</g>
<!-- c3&#45;&gt;h_app -->
<g id="edge25" class="edge">
<title>c3&#45;&gt;h_app</title>
<path fill="none" stroke="#0000ff" d="M314.4592,-321.636C304.8943,-308.6336 291.3675,-290.2457 280.5131,-275.4904"/>
<polygon fill="#0000ff" stroke="#0000ff" points="283.2261,-273.2719 274.481,-267.2907 277.5874,-277.4199 283.2261,-273.2719"/>
</g>
<!-- i_i -->
<g id="node24" class="node">
<title>i_i</title>
<ellipse fill="none" stroke="#000000" cx="334.4971" cy="-164" rx="27" ry="18"/>
<text text-anchor="middle" x="334.4971" y="-160.3" font-family="Times,serif" font-size="14.00" fill="#000000">PiR</text>
</g>
<!-- i&#45;&gt;i_i -->
<g id="edge26" class="edge">
<title>i&#45;&gt;i_i</title>
<path fill="none" stroke="#ff0000" d="M334.4971,-232.9735C334.4971,-221.1918 334.4971,-205.5607 334.4971,-192.1581"/>
<polygon fill="#ff0000" stroke="#ff0000" points="337.9972,-192.0033 334.4971,-182.0034 330.9972,-192.0034 337.9972,-192.0033"/>
<text text-anchor="middle" x="339.4971" y="-203.8" font-family="Times,serif" font-size="14.00" fill="#000000">3</text>
</g>
<!-- il -->
<g id="node25" class="node">
<title>il</title>
<ellipse fill="none" stroke="#000000" cx="377.4971" cy="-91" rx="27" ry="18"/>
<text text-anchor="middle" x="377.4971" y="-87.3" font-family="Times,serif" font-size="14.00" fill="#000000">!d</text>
</g>
<!-- i_i&#45;&gt;il -->
<g id="edge27" class="edge">
<title>i_i&#45;&gt;il</title>
<path fill="none" stroke="#0000ff" d="M344.4703,-147.0688C349.7889,-138.0396 356.4436,-126.742 362.3832,-116.6585"/>
<polygon fill="#0000ff" stroke="#0000ff" points="365.5184,-118.232 367.5781,-107.8393 359.4869,-114.6793 365.5184,-118.232"/>
</g>
<!-- i_ret -->
<g id="node26" class="node">
<title>i_ret</title>
<ellipse fill="none" stroke="#000000" cx="334.4971" cy="-18" rx="27" ry="18"/>
<text text-anchor="middle" x="334.4971" y="-14.3" font-family="Times,serif" font-size="14.00" fill="#000000">I</text>
</g>
<!-- i_i&#45;&gt;i_ret -->
<g id="edge28" class="edge">
<title>i_i&#45;&gt;i_ret</title>
<path fill="none" stroke="#ff0000" d="M334.4971,-145.8042C334.4971,-120.8868 334.4971,-75.8938 334.4971,-46.4877"/>
<polygon fill="#ff0000" stroke="#ff0000" points="337.9972,-46.4251 334.4971,-36.4251 330.9972,-46.4251 337.9972,-46.4251"/>
</g>
<!-- il&#45;&gt;i_ret -->
<g id="edge29" class="edge">
<title>il&#45;&gt;i_ret</title>
<path fill="none" stroke="#0000ff" d="M367.524,-74.0688C362.2054,-65.0396 355.5506,-53.742 349.611,-43.6585"/>
<polygon fill="#0000ff" stroke="#0000ff" points="352.5073,-41.6793 344.4162,-34.8393 346.4759,-45.232 352.5073,-41.6793"/>
</g>
</g>
</svg>
