<?xml version="1.0" encoding="UTF-8" standalone="no"?>
<!DOCTYPE svg PUBLIC "-//W3C//DTD SVG 1.1//EN"
 "http://www.w3.org/Graphics/SVG/1.1/DTD/svg11.dtd">
<!-- Generated by graphviz version 2.43.0 (0)
 -->
<!-- Title: %3 Pages: 1 -->
<svg width="619pt" height="764pt"
 viewBox="0.00 0.00 619.00 764.00" xmlns="http://www.w3.org/2000/svg" xmlns:xlink="http://www.w3.org/1999/xlink">
<g id="graph0" class="graph" transform="scale(1 1) rotate(0) translate(4 760)">
<title>%3</title>
<polygon fill="white" stroke="transparent" points="-4,4 -4,-760 615,-760 615,4 -4,4"/>
<!-- Root -->
<g id="node1" class="node">
<title>Root</title>
<ellipse fill="none" stroke="black" cx="419" cy="-738" rx="32.49" ry="18"/>
<text text-anchor="middle" x="419" y="-734.3" font-family="Times,serif" font-size="14.00">Root</text>
</g>
<!-- c1 -->
<g id="node2" class="node">
<title>c1</title>
<ellipse fill="none" stroke="black" cx="356" cy="-666" rx="27.1" ry="18"/>
<text text-anchor="middle" x="356" y="-662.3" font-family="Times,serif" font-size="14.00">Cut</text>
</g>
<!-- Root&#45;&gt;c1 -->
<!-- y -->
<g id="node3" class="node">
<title>y</title>
<ellipse fill="none" stroke="black" cx="474" cy="-378" rx="27" ry="18"/>
<text text-anchor="middle" x="474" y="-374.3" font-family="Times,serif" font-size="14.00">PiL</text>
</g>
<!-- Root&#45;&gt;y -->
<g id="edge30" class="edge">
<title>Root&#45;&gt;y</title>
<path fill="none" stroke="red" d="M435.08,-712.17C451.31,-684.67 474,-638.47 474,-595 474,-595 474,-595 474,-521 474,-475.89 474,-422.71 474,-396.05"/>
<polygon fill="red" stroke="red" points="432.07,-710.38 429.87,-720.75 438.05,-714.02 432.07,-710.38"/>
</g>
<!-- ret -->
<g id="node7" class="node">
<title>ret</title>
<ellipse fill="none" stroke="black" cx="419" cy="-522" rx="27" ry="18"/>
<text text-anchor="middle" x="419" y="-518.3" font-family="Times,serif" font-size="14.00">I</text>
</g>
<!-- Root&#45;&gt;ret -->
<g id="edge4" class="edge">
<title>Root&#45;&gt;ret</title>
<path fill="none" stroke="red" d="M419,-719.85C419,-682.83 419,-595.18 419,-550.39"/>
<polygon fill="red" stroke="red" points="422.5,-550.23 419,-540.23 415.5,-550.23 422.5,-550.23"/>
</g>
<!-- f2r -->
<g id="node8" class="node">
<title>f2r</title>
<ellipse fill="none" stroke="black" cx="229" cy="-594" rx="27" ry="18"/>
<text text-anchor="middle" x="229" y="-590.3" font-family="Times,serif" font-size="14.00">PiR</text>
</g>
<!-- c1&#45;&gt;f2r -->
<g id="edge5" class="edge">
<title>c1&#45;&gt;f2r</title>
<path fill="none" stroke="red" d="M335.6,-653.75C314.67,-642.22 281.93,-624.18 258.26,-611.12"/>
<polygon fill="red" stroke="red" points="259.8,-607.98 249.35,-606.22 256.42,-614.11 259.8,-607.98"/>
</g>
<!-- f2l -->
<g id="node9" class="node">
<title>f2l</title>
<ellipse fill="none" stroke="black" cx="356" cy="-594" rx="27" ry="18"/>
<text text-anchor="middle" x="356" y="-590.3" font-family="Times,serif" font-size="14.00">PiL</text>
</g>
<!-- c1&#45;&gt;f2l -->
<g id="edge6" class="edge">
<title>c1&#45;&gt;f2l</title>
<path fill="none" stroke="blue" d="M356,-647.7C356,-639.98 356,-630.71 356,-622.11"/>
<polygon fill="blue" stroke="blue" points="359.5,-622.1 356,-612.1 352.5,-622.1 359.5,-622.1"/>
</g>
<!-- c2 -->
<g id="node4" class="node">
<title>c2</title>
<ellipse fill="none" stroke="black" cx="567" cy="-306" rx="27.1" ry="18"/>
<text text-anchor="middle" x="567" y="-302.3" font-family="Times,serif" font-size="14.00">Cut</text>
</g>
<!-- y&#45;&gt;c2 -->
<!-- y_arg -->
<g id="node24" class="node">
<title>y_arg</title>
<ellipse fill="none" stroke="black" cx="439" cy="-234" rx="27" ry="18"/>
<text text-anchor="middle" x="439" y="-230.3" font-family="Times,serif" font-size="14.00">I</text>
</g>
<!-- y&#45;&gt;y_arg -->
<g id="edge29" class="edge">
<title>y&#45;&gt;y_arg</title>
<path fill="none" stroke="blue" d="M470.78,-359.84C467.29,-341.84 461.38,-312.79 455,-288 452.79,-279.4 450.09,-270.1 447.54,-261.73"/>
<polygon fill="blue" stroke="blue" points="450.85,-260.6 444.55,-252.08 444.17,-262.67 450.85,-260.6"/>
</g>
<!-- id_r -->
<g id="node15" class="node">
<title>id_r</title>
<ellipse fill="none" stroke="black" cx="584" cy="-234" rx="27" ry="18"/>
<text text-anchor="middle" x="584" y="-230.3" font-family="Times,serif" font-size="14.00">PiR</text>
</g>
<!-- c2&#45;&gt;id_r -->
<g id="edge13" class="edge">
<title>c2&#45;&gt;id_r</title>
<path fill="none" stroke="red" d="M571.12,-288.05C573.01,-280.26 575.3,-270.82 577.42,-262.08"/>
<polygon fill="red" stroke="red" points="580.85,-262.82 579.8,-252.28 574.04,-261.17 580.85,-262.82"/>
</g>
<!-- id_l -->
<g id="node16" class="node">
<title>id_l</title>
<ellipse fill="none" stroke="black" cx="512" cy="-234" rx="27" ry="18"/>
<text text-anchor="middle" x="512" y="-230.3" font-family="Times,serif" font-size="14.00">I</text>
</g>
<!-- c2&#45;&gt;id_l -->
<g id="edge14" class="edge">
<title>c2&#45;&gt;id_l</title>
<path fill="none" stroke="blue" d="M555.07,-289.81C547.79,-280.55 538.34,-268.52 530.15,-258.09"/>
<polygon fill="blue" stroke="blue" points="532.84,-255.86 523.91,-250.16 527.34,-260.18 532.84,-255.86"/>
</g>
<!-- x23_f2 -->
<g id="node5" class="node">
<title>x23_f2</title>
<ellipse fill="none" stroke="black" cx="191" cy="-450" rx="27" ry="18"/>
<text text-anchor="middle" x="191" y="-446.3" font-family="Times,serif" font-size="14.00">!c</text>
</g>
<!-- c3 -->
<g id="node6" class="node">
<title>c3</title>
<ellipse fill="none" stroke="black" cx="237" cy="-378" rx="27.1" ry="18"/>
<text text-anchor="middle" x="237" y="-374.3" font-family="Times,serif" font-size="14.00">Cut</text>
</g>
<!-- x23_f2&#45;&gt;c3 -->
<!-- x2_f2 -->
<g id="node13" class="node">
<title>x2_f2</title>
<ellipse fill="none" stroke="black" cx="55" cy="-234" rx="27" ry="18"/>
<text text-anchor="middle" x="55" y="-230.3" font-family="Times,serif" font-size="14.00">I</text>
</g>
<!-- x23_f2&#45;&gt;x2_f2 -->
<g id="edge11" class="edge">
<title>x23_f2&#45;&gt;x2_f2</title>
<path fill="none" stroke="blue" d="M176.82,-434.28C155.88,-411.92 116.41,-367.41 91,-324 79.33,-304.07 69.75,-279.64 63.41,-261.42"/>
<polygon fill="blue" stroke="blue" points="66.66,-260.1 60.15,-251.75 60.03,-262.34 66.66,-260.1"/>
</g>
<!-- x3_f2 -->
<g id="node14" class="node">
<title>x3_f2</title>
<ellipse fill="none" stroke="black" cx="127" cy="-162" rx="27" ry="18"/>
<text text-anchor="middle" x="127" y="-158.3" font-family="Times,serif" font-size="14.00">I</text>
</g>
<!-- x23_f2&#45;&gt;x3_f2 -->
<g id="edge12" class="edge">
<title>x23_f2&#45;&gt;x3_f2</title>
<path fill="none" stroke="blue" d="M191.65,-431.98C192.6,-392.59 191.71,-292.7 163,-216 159.08,-205.53 152.69,-195.11 146.37,-186.32"/>
<polygon fill="blue" stroke="blue" points="149,-183.99 140.18,-178.13 143.42,-188.21 149,-183.99"/>
</g>
<!-- o -->
<g id="node25" class="node">
<title>o</title>
<ellipse fill="none" stroke="black" cx="237" cy="-306" rx="27" ry="18"/>
<text text-anchor="middle" x="237" y="-302.3" font-family="Times,serif" font-size="14.00">PiR</text>
</g>
<!-- c3&#45;&gt;o -->
<g id="edge31" class="edge">
<title>c3&#45;&gt;o</title>
<path fill="none" stroke="red" d="M237,-359.7C237,-351.98 237,-342.71 237,-334.11"/>
<polygon fill="red" stroke="red" points="240.5,-334.1 237,-324.1 233.5,-334.1 240.5,-334.1"/>
</g>
<!-- o_app -->
<g id="node26" class="node">
<title>o_app</title>
<ellipse fill="none" stroke="black" cx="419" cy="-306" rx="27" ry="18"/>
<text text-anchor="middle" x="419" y="-302.3" font-family="Times,serif" font-size="14.00">PiL</text>
</g>
<!-- c3&#45;&gt;o_app -->
<g id="edge32" class="edge">
<title>c3&#45;&gt;o_app</title>
<path fill="none" stroke="blue" d="M258.17,-366.6C263.01,-364.34 268.15,-362.02 273,-360 311.13,-344.12 355.9,-328.26 385.72,-318.09"/>
<polygon fill="blue" stroke="blue" points="386.88,-321.4 395.22,-314.87 384.63,-314.77 386.88,-321.4"/>
</g>
<!-- x_f2 -->
<g id="node10" class="node">
<title>x_f2</title>
<ellipse fill="none" stroke="black" cx="229" cy="-522" rx="27" ry="18"/>
<text text-anchor="middle" x="229" y="-518.3" font-family="Times,serif" font-size="14.00">!c</text>
</g>
<!-- f2r&#45;&gt;x_f2 -->
<g id="edge7" class="edge">
<title>f2r&#45;&gt;x_f2</title>
<path fill="none" stroke="blue" d="M229,-575.7C229,-567.98 229,-558.71 229,-550.11"/>
<polygon fill="blue" stroke="blue" points="232.5,-550.1 229,-540.1 225.5,-550.1 232.5,-550.1"/>
</g>
<!-- ret_f2 -->
<g id="node11" class="node">
<title>ret_f2</title>
<ellipse fill="none" stroke="black" cx="28" cy="-162" rx="27" ry="18"/>
<text text-anchor="middle" x="28" y="-158.3" font-family="Times,serif" font-size="14.00">I</text>
</g>
<!-- f2r&#45;&gt;ret_f2 -->
<g id="edge8" class="edge">
<title>f2r&#45;&gt;ret_f2</title>
<path fill="none" stroke="red" d="M202.73,-589.32C142.58,-579.28 0,-545.5 0,-451 0,-451 0,-451 0,-305 0,-264.23 11.25,-218.09 19.49,-189.77"/>
<polygon fill="red" stroke="red" points="22.95,-190.42 22.47,-179.84 16.24,-188.41 22.95,-190.42"/>
</g>
<!-- f2l&#45;&gt;ret -->
<g id="edge25" class="edge">
<title>f2l&#45;&gt;ret</title>
<path fill="none" stroke="blue" d="M369.36,-578.15C377.88,-568.69 389.09,-556.24 398.69,-545.56"/>
<polygon fill="blue" stroke="blue" points="401.57,-547.6 405.66,-537.82 396.37,-542.92 401.57,-547.6"/>
</g>
<!-- g2 -->
<g id="node21" class="node">
<title>g2</title>
<ellipse fill="none" stroke="black" cx="347" cy="-522" rx="27" ry="18"/>
<text text-anchor="middle" x="347" y="-518.3" font-family="Times,serif" font-size="14.00">!</text>
</g>
<!-- f2l&#45;&gt;g2 -->
<g id="edge24" class="edge">
<title>f2l&#45;&gt;g2</title>
<path fill="none" stroke="red" d="M353.82,-576.05C352.83,-568.35 351.63,-559.03 350.52,-550.36"/>
<polygon fill="red" stroke="red" points="353.97,-549.75 349.22,-540.28 347.02,-550.64 353.97,-549.75"/>
</g>
<!-- x_f2&#45;&gt;x23_f2 -->
<g id="edge10" class="edge">
<title>x_f2&#45;&gt;x23_f2</title>
<path fill="none" stroke="blue" d="M220.19,-504.76C215.58,-496.28 209.84,-485.71 204.68,-476.2"/>
<polygon fill="blue" stroke="blue" points="207.61,-474.27 199.77,-467.15 201.46,-477.61 207.61,-474.27"/>
</g>
<!-- x1_f2 -->
<g id="node12" class="node">
<title>x1_f2</title>
<ellipse fill="none" stroke="black" cx="273" cy="-450" rx="27" ry="18"/>
<text text-anchor="middle" x="273" y="-446.3" font-family="Times,serif" font-size="14.00">!d</text>
</g>
<!-- x_f2&#45;&gt;x1_f2 -->
<g id="edge9" class="edge">
<title>x_f2&#45;&gt;x1_f2</title>
<path fill="none" stroke="blue" d="M238.98,-505.12C244.5,-496.34 251.46,-485.26 257.65,-475.42"/>
<polygon fill="blue" stroke="blue" points="260.7,-477.15 263.06,-466.82 254.77,-473.42 260.7,-477.15"/>
</g>
<!-- x1i_f2 -->
<g id="node18" class="node">
<title>x1i_f2</title>
<ellipse fill="none" stroke="black" cx="309" cy="-378" rx="27" ry="18"/>
<text text-anchor="middle" x="309" y="-374.3" font-family="Times,serif" font-size="14.00">PiL</text>
</g>
<!-- x1_f2&#45;&gt;x1i_f2 -->
<g id="edge17" class="edge">
<title>x1_f2&#45;&gt;x1i_f2</title>
<path fill="none" stroke="blue" d="M281.35,-432.76C285.71,-424.28 291.15,-413.71 296.04,-404.2"/>
<polygon fill="blue" stroke="blue" points="299.23,-405.64 300.7,-395.15 293.01,-402.44 299.23,-405.64"/>
</g>
<!-- al -->
<g id="node17" class="node">
<title>al</title>
<ellipse fill="none" stroke="black" cx="584" cy="-162" rx="27" ry="18"/>
<text text-anchor="middle" x="584" y="-158.3" font-family="Times,serif" font-size="14.00">I</text>
</g>
<!-- id_r&#45;&gt;al -->
<g id="edge15" class="edge">
<title>id_r&#45;&gt;al</title>
<path fill="none" stroke="blue" d="M578.16,-216.41C577.3,-208.51 577.05,-198.85 577.41,-189.94"/>
<polygon fill="blue" stroke="blue" points="580.9,-190.18 578.12,-179.96 573.92,-189.68 580.9,-190.18"/>
</g>
<!-- id_r&#45;&gt;al -->
<g id="edge16" class="edge">
<title>id_r&#45;&gt;al</title>
<path fill="none" stroke="red" d="M589.84,-216.41C590.7,-208.51 590.95,-198.85 590.59,-189.94"/>
<polygon fill="red" stroke="red" points="594.08,-189.68 589.88,-179.96 587.1,-190.18 594.08,-189.68"/>
</g>
<!-- x1i_f2&#45;&gt;id_l -->
<g id="edge18" class="edge">
<title>x1i_f2&#45;&gt;id_l</title>
<path fill="none" stroke="red" d="M334.96,-372.82C366.26,-366.69 419.1,-352.72 455,-324 475.93,-307.26 491.54,-280.64 501.08,-260.87"/>
<polygon fill="red" stroke="red" points="504.26,-262.33 505.27,-251.79 497.9,-259.4 504.26,-262.33"/>
</g>
<!-- ssa -->
<g id="node19" class="node">
<title>ssa</title>
<ellipse fill="none" stroke="black" cx="127" cy="-306" rx="27" ry="18"/>
<text text-anchor="middle" x="127" y="-302.3" font-family="Times,serif" font-size="14.00">PiL</text>
</g>
<!-- x1i_f2&#45;&gt;ssa -->
<g id="edge19" class="edge">
<title>x1i_f2&#45;&gt;ssa</title>
<path fill="none" stroke="blue" d="M287.83,-366.6C282.99,-364.34 277.85,-362.02 273,-360 234.87,-344.12 190.1,-328.26 160.28,-318.09"/>
<polygon fill="blue" stroke="blue" points="161.37,-314.77 150.78,-314.87 159.12,-321.4 161.37,-314.77"/>
</g>
<!-- ssa&#45;&gt;x2_f2 -->
<g id="edge20" class="edge">
<title>ssa&#45;&gt;x2_f2</title>
<path fill="none" stroke="red" d="M112.43,-290.83C102.25,-280.94 88.48,-267.55 76.97,-256.36"/>
<polygon fill="red" stroke="red" points="79.41,-253.85 69.8,-249.38 74.53,-258.87 79.41,-253.85"/>
</g>
<!-- sa -->
<g id="node20" class="node">
<title>sa</title>
<ellipse fill="none" stroke="black" cx="127" cy="-234" rx="27" ry="18"/>
<text text-anchor="middle" x="127" y="-230.3" font-family="Times,serif" font-size="14.00">PiL</text>
</g>
<!-- ssa&#45;&gt;sa -->
<g id="edge21" class="edge">
<title>ssa&#45;&gt;sa</title>
<path fill="none" stroke="blue" d="M127,-287.7C127,-279.98 127,-270.71 127,-262.11"/>
<polygon fill="blue" stroke="blue" points="130.5,-262.1 127,-252.1 123.5,-262.1 130.5,-262.1"/>
</g>
<!-- sa&#45;&gt;ret_f2 -->
<g id="edge23" class="edge">
<title>sa&#45;&gt;ret_f2</title>
<path fill="none" stroke="blue" d="M108.84,-220.16C93.63,-209.41 71.71,-193.91 54.53,-181.76"/>
<polygon fill="blue" stroke="blue" points="56.23,-178.67 46.04,-175.76 52.19,-184.39 56.23,-178.67"/>
</g>
<!-- sa&#45;&gt;x3_f2 -->
<g id="edge22" class="edge">
<title>sa&#45;&gt;x3_f2</title>
<path fill="none" stroke="red" d="M127,-215.7C127,-207.98 127,-198.71 127,-190.11"/>
<polygon fill="red" stroke="red" points="130.5,-190.1 127,-180.1 123.5,-190.1 130.5,-190.1"/>
</g>
<!-- g2s -->
<g id="node22" class="node">
<title>g2s</title>
<ellipse fill="none" stroke="black" cx="364" cy="-450" rx="27" ry="18"/>
<text text-anchor="middle" x="364" y="-446.3" font-family="Times,serif" font-size="14.00">PiR</text>
</g>
<!-- g2&#45;&gt;g2s -->
<g id="edge26" class="edge">
<title>g2&#45;&gt;g2s</title>
<path fill="none" stroke="red" d="M351.12,-504.05C353.01,-496.26 355.3,-486.82 357.42,-478.08"/>
<polygon fill="red" stroke="red" points="360.85,-478.82 359.8,-468.28 354.04,-477.17 360.85,-478.82"/>
</g>
<!-- g2s&#45;&gt;y -->
<g id="edge27" class="edge">
<title>g2s&#45;&gt;y</title>
<path fill="none" stroke="blue" d="M383.16,-436.81C400.67,-425.67 426.76,-409.06 446.49,-396.5"/>
<polygon fill="blue" stroke="blue" points="448.5,-399.37 455.06,-391.05 444.74,-393.47 448.5,-399.37"/>
</g>
<!-- ret_g2 -->
<g id="node23" class="node">
<title>ret_g2</title>
<ellipse fill="none" stroke="black" cx="365" cy="-234" rx="27" ry="18"/>
<text text-anchor="middle" x="365" y="-230.3" font-family="Times,serif" font-size="14.00">I</text>
</g>
<!-- g2s&#45;&gt;ret_g2 -->
<g id="edge28" class="edge">
<title>g2s&#45;&gt;ret_g2</title>
<path fill="none" stroke="red" d="M364.08,-431.85C364.25,-394.83 364.66,-307.18 364.87,-262.39"/>
<polygon fill="red" stroke="red" points="368.37,-262.25 364.92,-252.23 361.37,-262.22 368.37,-262.25"/>
</g>
<!-- x_g2 -->
<g id="node27" class="node">
<title>x_g2</title>
<ellipse fill="none" stroke="black" cx="237" cy="-234" rx="27" ry="18"/>
<text text-anchor="middle" x="237" y="-230.3" font-family="Times,serif" font-size="14.00">!c</text>
</g>
<!-- o&#45;&gt;x_g2 -->
<g id="edge33" class="edge">
<title>o&#45;&gt;x_g2</title>
<path fill="none" stroke="blue" d="M237,-287.7C237,-279.98 237,-270.71 237,-262.11"/>
<polygon fill="blue" stroke="blue" points="240.5,-262.1 237,-252.1 233.5,-262.1 240.5,-262.1"/>
</g>
<!-- ret_o -->
<g id="node28" class="node">
<title>ret_o</title>
<ellipse fill="none" stroke="black" cx="282" cy="-18" rx="27" ry="18"/>
<text text-anchor="middle" x="282" y="-14.3" font-family="Times,serif" font-size="14.00">I</text>
</g>
<!-- o&#45;&gt;ret_o -->
<g id="edge34" class="edge">
<title>o&#45;&gt;ret_o</title>
<path fill="none" stroke="red" d="M250.56,-290.01C258.7,-280.02 268.34,-266.16 273,-252 296.48,-180.59 290.63,-90.19 285.65,-45.91"/>
<polygon fill="red" stroke="red" points="289.12,-45.45 284.45,-35.94 282.17,-46.29 289.12,-45.45"/>
</g>
<!-- o_app&#45;&gt;ret_g2 -->
<g id="edge41" class="edge">
<title>o_app&#45;&gt;ret_g2</title>
<path fill="none" stroke="blue" d="M407.02,-289.46C400.02,-280.4 391.06,-268.79 383.21,-258.61"/>
<polygon fill="blue" stroke="blue" points="385.83,-256.27 376.95,-250.49 380.29,-260.55 385.83,-256.27"/>
</g>
<!-- o_app&#45;&gt;y_arg -->
<g id="edge40" class="edge">
<title>o_app&#45;&gt;y_arg</title>
<path fill="none" stroke="red" d="M423.84,-288.05C426.1,-280.14 428.85,-270.54 431.37,-261.69"/>
<polygon fill="red" stroke="red" points="434.82,-262.37 434.2,-251.79 428.09,-260.44 434.82,-262.37"/>
</g>
<!-- x1_g2 -->
<g id="node29" class="node">
<title>x1_g2</title>
<ellipse fill="none" stroke="black" cx="237" cy="-162" rx="27" ry="18"/>
<text text-anchor="middle" x="237" y="-158.3" font-family="Times,serif" font-size="14.00">!d</text>
</g>
<!-- x_g2&#45;&gt;x1_g2 -->
<g id="edge35" class="edge">
<title>x_g2&#45;&gt;x1_g2</title>
<path fill="none" stroke="blue" d="M237,-215.7C237,-207.98 237,-198.71 237,-190.11"/>
<polygon fill="blue" stroke="blue" points="240.5,-190.1 237,-180.1 233.5,-190.1 240.5,-190.1"/>
</g>
<!-- x2_g2 -->
<g id="node30" class="node">
<title>x2_g2</title>
<ellipse fill="none" stroke="black" cx="201" cy="-18" rx="27" ry="18"/>
<text text-anchor="middle" x="201" y="-14.3" font-family="Times,serif" font-size="14.00">I</text>
</g>
<!-- x_g2&#45;&gt;x2_g2 -->
<g id="edge36" class="edge">
<title>x_g2&#45;&gt;x2_g2</title>
<path fill="none" stroke="blue" d="M223.25,-218.07C215.04,-208.1 205.38,-194.25 201,-180 187.05,-134.63 191.61,-78.62 196.26,-46.04"/>
<polygon fill="blue" stroke="blue" points="199.75,-46.35 197.81,-35.94 192.83,-45.29 199.75,-46.35"/>
</g>
<!-- x1i_g2 -->
<g id="node31" class="node">
<title>x1i_g2</title>
<ellipse fill="none" stroke="black" cx="237" cy="-90" rx="27" ry="18"/>
<text text-anchor="middle" x="237" y="-86.3" font-family="Times,serif" font-size="14.00">PiL</text>
</g>
<!-- x1_g2&#45;&gt;x1i_g2 -->
<g id="edge37" class="edge">
<title>x1_g2&#45;&gt;x1i_g2</title>
<path fill="none" stroke="blue" d="M237,-143.7C237,-135.98 237,-126.71 237,-118.11"/>
<polygon fill="blue" stroke="blue" points="240.5,-118.1 237,-108.1 233.5,-118.1 240.5,-118.1"/>
</g>
<!-- x1i_g2&#45;&gt;ret_o -->
<g id="edge39" class="edge">
<title>x1i_g2&#45;&gt;ret_o</title>
<path fill="none" stroke="blue" d="M247.21,-73.12C252.85,-64.34 259.97,-53.26 266.3,-43.42"/>
<polygon fill="blue" stroke="blue" points="269.37,-45.13 271.83,-34.82 263.48,-41.34 269.37,-45.13"/>
</g>
<!-- x1i_g2&#45;&gt;x2_g2 -->
<g id="edge38" class="edge">
<title>x1i_g2&#45;&gt;x2_g2</title>
<path fill="none" stroke="red" d="M228.65,-72.76C224.29,-64.28 218.85,-53.71 213.96,-44.2"/>
<polygon fill="red" stroke="red" points="216.99,-42.44 209.3,-35.15 210.77,-45.64 216.99,-42.44"/>
</g>
</g>
</svg>
