<?xml version="1.0" encoding="UTF-8" standalone="no"?>
<!DOCTYPE svg PUBLIC "-//W3C//DTD SVG 1.1//EN"
 "http://www.w3.org/Graphics/SVG/1.1/DTD/svg11.dtd">
<!-- Generated by graphviz version 2.43.0 (0)
 -->
<!-- Title: G Pages: 1 -->
<svg width="448pt" height="152pt"
 viewBox="0.00 0.00 448.48 152.00" xmlns="http://www.w3.org/2000/svg" xmlns:xlink="http://www.w3.org/1999/xlink">
<g id="graph0" class="graph" transform="scale(1 1) rotate(0) translate(4 148)">
<title>G</title>
<polygon fill="white" stroke="transparent" points="-4,4 -4,-148 444.48,-148 444.48,4 -4,4"/>
<!-- +A -->
<g id="node1" class="node">
<title>+A</title>
<ellipse fill="none" stroke="black" cx="27" cy="-95" rx="27" ry="18"/>
<text text-anchor="middle" x="27" y="-91.3" font-family="Times,serif" font-size="14.00">+A</text>
</g>
<!-- A -->
<g id="node2" class="node">
<title>A</title>
<ellipse fill="none" stroke="black" cx="225.44" cy="-126" rx="27" ry="18"/>
<text text-anchor="middle" x="225.44" y="-122.3" font-family="Times,serif" font-size="14.00">A</text>
</g>
<!-- +A&#45;&gt;A -->
<g id="edge1" class="edge">
<title>+A&#45;&gt;A</title>
<path fill="none" stroke="black" d="M53.68,-99.05C88.19,-104.5 149.69,-114.2 188.7,-120.36"/>
<polygon fill="black" stroke="black" points="188.64,-123.89 199.06,-122 189.73,-116.98 188.64,-123.89"/>
</g>
<!-- +&#45;+A -->
<g id="node4" class="node">
<title>+&#45;+A</title>
<ellipse fill="none" stroke="black" cx="125.75" cy="-72" rx="36" ry="18"/>
<text text-anchor="middle" x="125.75" y="-68.3" font-family="Times,serif" font-size="14.00">+&#45;+A</text>
</g>
<!-- +A&#45;&gt;+&#45;+A -->
<g id="edge3" class="edge">
<title>+A&#45;&gt;+&#45;+A</title>
<path fill="none" stroke="black" d="M52.66,-89.14C62,-86.92 72.9,-84.33 83.35,-81.84"/>
<polygon fill="black" stroke="black" points="84.25,-85.22 93.17,-79.51 82.63,-78.41 84.25,-85.22"/>
</g>
<!-- &#45;A -->
<g id="node3" class="node">
<title>&#45;A</title>
<ellipse fill="none" stroke="black" cx="413.48" cy="-95" rx="27" ry="18"/>
<text text-anchor="middle" x="413.48" y="-91.3" font-family="Times,serif" font-size="14.00">&#45;A</text>
</g>
<!-- A&#45;&gt;&#45;A -->
<g id="edge2" class="edge">
<title>A&#45;&gt;&#45;A</title>
<path fill="none" stroke="black" d="M251.92,-121.75C284.25,-116.37 340.21,-107.04 376.79,-100.95"/>
<polygon fill="black" stroke="black" points="377.73,-104.34 387.01,-99.24 376.58,-97.44 377.73,-104.34"/>
</g>
<!-- +&#45;A -->
<g id="node5" class="node">
<title>+&#45;A</title>
<ellipse fill="none" stroke="black" cx="225.44" cy="-72" rx="27.9" ry="18"/>
<text text-anchor="middle" x="225.44" y="-68.3" font-family="Times,serif" font-size="14.00">+&#45;A</text>
</g>
<!-- +&#45;+A&#45;&gt;+&#45;A -->
<g id="edge4" class="edge">
<title>+&#45;+A&#45;&gt;+&#45;A</title>
<path fill="none" stroke="black" d="M161.74,-72C169.98,-72 178.79,-72 187.13,-72"/>
<polygon fill="black" stroke="black" points="187.35,-75.5 197.35,-72 187.35,-68.5 187.35,-75.5"/>
</g>
<!-- &#45;+A -->
<g id="node6" class="node">
<title>&#45;+A</title>
<ellipse fill="none" stroke="black" cx="225.44" cy="-18" rx="27.9" ry="18"/>
<text text-anchor="middle" x="225.44" y="-14.3" font-family="Times,serif" font-size="14.00">&#45;+A</text>
</g>
<!-- +&#45;+A&#45;&gt;&#45;+A -->
<g id="edge5" class="edge">
<title>+&#45;+A&#45;&gt;&#45;+A</title>
<path fill="none" stroke="black" d="M150.4,-58.93C163.74,-51.55 180.53,-42.27 194.75,-34.41"/>
<polygon fill="black" stroke="black" points="196.6,-37.39 203.66,-29.49 193.22,-31.26 196.6,-37.39"/>
</g>
<!-- &#45;+&#45;A -->
<g id="node7" class="node">
<title>&#45;+&#45;A</title>
<ellipse fill="none" stroke="black" cx="319.94" cy="-72" rx="30.59" ry="18"/>
<text text-anchor="middle" x="319.94" y="-68.3" font-family="Times,serif" font-size="14.00">&#45;+&#45;A</text>
</g>
<!-- +&#45;A&#45;&gt;&#45;+&#45;A -->
<g id="edge6" class="edge">
<title>+&#45;A&#45;&gt;&#45;+&#45;A</title>
<path fill="none" stroke="black" d="M253.69,-72C261.65,-72 270.51,-72 279.08,-72"/>
<polygon fill="black" stroke="black" points="279.3,-75.5 289.3,-72 279.3,-68.5 279.3,-75.5"/>
</g>
<!-- &#45;+A&#45;&gt;&#45;+&#45;A -->
<g id="edge7" class="edge">
<title>&#45;+A&#45;&gt;&#45;+&#45;A</title>
<path fill="none" stroke="black" d="M246.97,-29.98C259.16,-37.1 274.86,-46.27 288.47,-54.22"/>
<polygon fill="black" stroke="black" points="287.1,-57.47 297.5,-59.49 290.63,-51.42 287.1,-57.47"/>
</g>
<!-- &#45;+&#45;A&#45;&gt;&#45;A -->
<g id="edge8" class="edge">
<title>&#45;+&#45;A&#45;&gt;&#45;A</title>
<path fill="none" stroke="black" d="M348.4,-78.9C357.71,-81.24 368.22,-83.88 378,-86.34"/>
<polygon fill="black" stroke="black" points="377.29,-89.77 387.84,-88.81 378.99,-82.98 377.29,-89.77"/>
</g>
</g>
</svg>
