<?xml version="1.0" encoding="UTF-8" standalone="no"?>
<!DOCTYPE svg PUBLIC "-//W3C//DTD SVG 1.1//EN"
 "http://www.w3.org/Graphics/SVG/1.1/DTD/svg11.dtd">
<!-- Generated by graphviz version 2.43.0 (0)
 -->
<!-- Title: %3 Pages: 1 -->
<svg width="542pt" height="904pt"
 viewBox="0.00 0.00 542.30 903.79" xmlns="http://www.w3.org/2000/svg" xmlns:xlink="http://www.w3.org/1999/xlink">
<g id="graph0" class="graph" transform="scale(1 1) rotate(0) translate(4 899.79)">
<title>%3</title>
<polygon fill="white" stroke="transparent" points="-4,4 -4,-899.79 538.3,-899.79 538.3,4 -4,4"/>
<!-- Root -->
<g id="node1" class="node">
<title>Root</title>
<ellipse fill="none" stroke="black" cx="143.3" cy="-687.9" rx="32.49" ry="18"/>
<text text-anchor="middle" x="143.3" y="-684.2" font-family="Times,serif" font-size="14.00">Root</text>
</g>
<!-- ret -->
<g id="node2" class="node">
<title>ret</title>
<ellipse fill="none" stroke="black" cx="119.3" cy="-599" rx="27" ry="18"/>
<text text-anchor="middle" x="119.3" y="-595.3" font-family="Times,serif" font-size="14.00">I</text>
</g>
<!-- Root&#45;&gt;ret -->
<g id="edge1" class="edge">
<title>Root&#45;&gt;ret</title>
<path fill="none" stroke="red" stroke-width="2" d="M138.56,-669.73C135.18,-657.51 130.58,-640.85 126.72,-626.88"/>
<polygon fill="red" stroke="red" stroke-width="2" points="129.98,-625.54 123.95,-616.84 123.24,-627.41 129.98,-625.54"/>
</g>
<!-- c1a -->
<g id="node3" class="node">
<title>c1a</title>
<ellipse fill="none" stroke="black" cx="27.3" cy="-877.79" rx="27.1" ry="18"/>
<text text-anchor="middle" x="27.3" y="-874.09" font-family="Times,serif" font-size="14.00">Cut</text>
</g>
<!-- fp1 -->
<g id="node4" class="node">
<title>fp1</title>
<ellipse fill="none" stroke="black" cx="204.3" cy="-790.79" rx="27" ry="18"/>
<text text-anchor="middle" x="204.3" y="-787.09" font-family="Times,serif" font-size="14.00">!p</text>
</g>
<!-- c1a&#45;&gt;fp1 -->
<g id="edge2" class="edge">
<title>c1a&#45;&gt;fp1</title>
<path fill="none" stroke="red" d="M48.65,-866.54C79.74,-851.61 137.67,-823.79 173.42,-806.62"/>
<polygon fill="red" stroke="red" points="175.37,-809.57 182.87,-802.08 172.34,-803.26 175.37,-809.57"/>
<text text-anchor="middle" x="132.3" y="-830.59" font-family="Times,serif" font-size="14.00">0</text>
</g>
<!-- x1_o1 -->
<g id="node5" class="node">
<title>x1_o1</title>
<ellipse fill="none" stroke="black" cx="45.3" cy="-599" rx="27" ry="18"/>
<text text-anchor="middle" x="45.3" y="-595.3" font-family="Times,serif" font-size="14.00">I</text>
</g>
<!-- c1a&#45;&gt;x1_o1 -->
<g id="edge3" class="edge">
<title>c1a&#45;&gt;x1_o1</title>
<path fill="none" stroke="blue" d="M26.04,-859.63C23.61,-822.1 19.41,-730.01 30.3,-654 31.61,-644.86 34,-635.08 36.51,-626.39"/>
<polygon fill="blue" stroke="blue" points="39.86,-627.37 39.43,-616.79 33.17,-625.33 39.86,-627.37"/>
</g>
<!-- d1 -->
<g id="node7" class="node">
<title>d1</title>
<ellipse fill="none" stroke="black" cx="227.3" cy="-687.9" rx="29.81" ry="29.81"/>
<ellipse fill="none" stroke="black" cx="227.3" cy="-687.9" rx="33.8" ry="33.8"/>
<text text-anchor="middle" x="227.3" y="-684.2" font-family="Times,serif" font-size="14.00">Dup</text>
</g>
<!-- fp1&#45;&gt;d1 -->
<g id="edge7" class="edge">
<title>fp1&#45;&gt;d1</title>
<path fill="none" stroke="red" d="M208.2,-772.68C210.9,-760.82 214.62,-744.51 218.06,-729.43"/>
<ellipse fill="none" stroke="red" cx="219.04" cy="-725.12" rx="4" ry="4"/>
<text text-anchor="middle" x="219.3" y="-743.59" font-family="Times,serif" font-size="14.00">1</text>
</g>
<!-- c1b -->
<g id="node6" class="node">
<title>c1b</title>
<ellipse fill="none" stroke="black" cx="110.3" cy="-790.79" rx="27.1" ry="18"/>
<text text-anchor="middle" x="110.3" y="-787.09" font-family="Times,serif" font-size="14.00">Cut</text>
</g>
<!-- c1b&#45;&gt;d1 -->
<g id="edge4" class="edge">
<title>c1b&#45;&gt;d1</title>
<path fill="none" stroke="red" stroke-width="2" d="M126.57,-775.77C143.9,-760.82 171.83,-736.73 193.89,-717.71"/>
<polygon fill="red" stroke="red" stroke-width="2" points="196.43,-720.14 201.72,-710.95 191.86,-714.83 196.43,-720.14"/>
<text text-anchor="middle" x="170.3" y="-743.59" font-family="Times,serif" font-size="14.00">1</text>
</g>
<!-- x2i_o1 -->
<g id="node8" class="node">
<title>x2i_o1</title>
<ellipse fill="none" stroke="black" cx="66.3" cy="-687.9" rx="27" ry="18"/>
<text text-anchor="middle" x="66.3" y="-684.2" font-family="Times,serif" font-size="14.00">PiL</text>
</g>
<!-- c1b&#45;&gt;x2i_o1 -->
<g id="edge5" class="edge">
<title>c1b&#45;&gt;x2i_o1</title>
<path fill="none" stroke="blue" stroke-width="2" d="M103.03,-773.13C96.12,-757.29 85.62,-733.21 77.61,-714.85"/>
<polygon fill="blue" stroke="blue" stroke-width="2" points="80.78,-713.35 73.57,-705.58 74.36,-716.15 80.78,-713.35"/>
<text text-anchor="middle" x="100.3" y="-743.59" font-family="Times,serif" font-size="14.00">0</text>
</g>
<!-- f -->
<g id="node9" class="node">
<title>f</title>
<ellipse fill="none" stroke="black" cx="227.3" cy="-599" rx="27" ry="18"/>
<text text-anchor="middle" x="227.3" y="-595.3" font-family="Times,serif" font-size="14.00">PiR</text>
</g>
<!-- d1&#45;&gt;f -->
<g id="edge6" class="edge">
<title>d1&#45;&gt;f</title>
<path fill="none" stroke="red" d="M227.3,-653.55C227.3,-644.9 227.3,-635.68 227.3,-627.37"/>
<polygon fill="red" stroke="red" points="230.8,-627.1 227.3,-617.1 223.8,-627.1 230.8,-627.1"/>
</g>
<!-- x2i_o1&#45;&gt;ret -->
<g id="edge9" class="edge">
<title>x2i_o1&#45;&gt;ret</title>
<path fill="none" stroke="blue" stroke-width="2" d="M76.02,-670.96C83.94,-657.97 95.25,-639.42 104.33,-624.54"/>
<polygon fill="blue" stroke="blue" stroke-width="2" points="107.42,-626.2 109.64,-615.84 101.44,-622.55 107.42,-626.2"/>
</g>
<!-- x2i_o1&#45;&gt;x1_o1 -->
<g id="edge8" class="edge">
<title>x2i_o1&#45;&gt;x1_o1</title>
<path fill="none" stroke="red" d="M62.15,-669.73C59.2,-657.51 55.17,-640.85 51.79,-626.88"/>
<polygon fill="red" stroke="red" points="55.12,-625.73 49.37,-616.84 48.31,-627.38 55.12,-625.73"/>
</g>
<!-- hi_retp -->
<g id="node10" class="node">
<title>hi_retp</title>
<ellipse fill="none" stroke="black" cx="283.3" cy="-512" rx="27" ry="18"/>
<text text-anchor="middle" x="283.3" y="-508.3" font-family="Times,serif" font-size="14.00">!p</text>
</g>
<!-- f&#45;&gt;hi_retp -->
<g id="edge10" class="edge">
<title>f&#45;&gt;hi_retp</title>
<path fill="none" stroke="blue" d="M237.83,-582.01C246.12,-569.43 257.82,-551.68 267.27,-537.33"/>
<polygon fill="blue" stroke="blue" points="270.23,-539.19 272.81,-528.92 264.39,-535.34 270.23,-539.19"/>
<text text-anchor="middle" x="263.3" y="-551.8" font-family="Times,serif" font-size="14.00">1</text>
</g>
<!-- f_ret -->
<g id="node11" class="node">
<title>f_ret</title>
<ellipse fill="none" stroke="black" cx="211.3" cy="-512" rx="27" ry="18"/>
<text text-anchor="middle" x="211.3" y="-508.3" font-family="Times,serif" font-size="14.00">I</text>
</g>
<!-- f&#45;&gt;f_ret -->
<g id="edge11" class="edge">
<title>f&#45;&gt;f_ret</title>
<path fill="none" stroke="red" d="M224.06,-580.8C221.85,-569.09 218.89,-553.34 216.38,-539.97"/>
<polygon fill="red" stroke="red" points="219.77,-539.07 214.48,-529.89 212.89,-540.36 219.77,-539.07"/>
</g>
<!-- hi_ret -->
<g id="node20" class="node">
<title>hi_ret</title>
<ellipse fill="none" stroke="black" cx="219.3" cy="-251" rx="27" ry="18"/>
<text text-anchor="middle" x="219.3" y="-247.3" font-family="Times,serif" font-size="14.00">I</text>
</g>
<!-- hi_retp&#45;&gt;hi_ret -->
<g id="edge23" class="edge">
<title>hi_retp&#45;&gt;hi_ret</title>
<path fill="none" stroke="red" d="M284.3,-493.8C285.71,-459.59 286.03,-381.06 264.3,-320 258.51,-303.75 248.04,-287.56 238.65,-275.05"/>
<polygon fill="red" stroke="red" points="241.3,-272.76 232.39,-267.03 235.78,-277.07 241.3,-272.76"/>
<text text-anchor="middle" x="284.3" y="-377.8" font-family="Times,serif" font-size="14.00">2</text>
</g>
<!-- h_di -->
<g id="node21" class="node">
<title>h_di</title>
<ellipse fill="none" stroke="black" cx="228.3" cy="-425" rx="27" ry="18"/>
<text text-anchor="middle" x="228.3" y="-421.3" font-family="Times,serif" font-size="14.00">!d</text>
</g>
<!-- hi_retp&#45;&gt;h_di -->
<g id="edge24" class="edge">
<title>hi_retp&#45;&gt;h_di</title>
<path fill="none" stroke="blue" d="M272.39,-495.42C268.23,-489.4 263.48,-482.42 259.3,-476 253.95,-467.8 248.25,-458.72 243.23,-450.58"/>
<polygon fill="blue" stroke="blue" points="246.1,-448.57 237.89,-441.88 240.13,-452.23 246.1,-448.57"/>
<text text-anchor="middle" x="264.3" y="-464.8" font-family="Times,serif" font-size="14.00">1</text>
</g>
<!-- c2 -->
<g id="node12" class="node">
<title>c2</title>
<ellipse fill="none" stroke="black" cx="333.3" cy="-687.9" rx="27.1" ry="18"/>
<text text-anchor="middle" x="333.3" y="-684.2" font-family="Times,serif" font-size="14.00">Cut</text>
</g>
<!-- o2 -->
<g id="node13" class="node">
<title>o2</title>
<ellipse fill="none" stroke="black" cx="424.3" cy="-599" rx="27" ry="18"/>
<text text-anchor="middle" x="424.3" y="-595.3" font-family="Times,serif" font-size="14.00">PiR</text>
</g>
<!-- c2&#45;&gt;o2 -->
<g id="edge12" class="edge">
<title>c2&#45;&gt;o2</title>
<path fill="none" stroke="red" d="M348.32,-672.55C362.9,-658.63 385.2,-637.33 401.87,-621.41"/>
<polygon fill="red" stroke="red" points="404.74,-623.52 409.55,-614.08 399.9,-618.46 404.74,-623.52"/>
</g>
<!-- o2l -->
<g id="node14" class="node">
<title>o2l</title>
<ellipse fill="none" stroke="black" cx="302.3" cy="-599" rx="27" ry="18"/>
<text text-anchor="middle" x="302.3" y="-595.3" font-family="Times,serif" font-size="14.00">PiL</text>
</g>
<!-- c2&#45;&gt;o2l -->
<g id="edge13" class="edge">
<title>c2&#45;&gt;o2l</title>
<path fill="none" stroke="blue" d="M327.32,-670.14C322.9,-657.76 316.8,-640.66 311.73,-626.44"/>
<polygon fill="blue" stroke="blue" points="314.91,-624.95 308.26,-616.7 308.32,-627.3 314.91,-624.95"/>
</g>
<!-- x_o2 -->
<g id="node15" class="node">
<title>x_o2</title>
<ellipse fill="none" stroke="black" cx="424.3" cy="-512" rx="27" ry="18"/>
<text text-anchor="middle" x="424.3" y="-508.3" font-family="Times,serif" font-size="14.00">!c</text>
</g>
<!-- o2&#45;&gt;x_o2 -->
<g id="edge14" class="edge">
<title>o2&#45;&gt;x_o2</title>
<path fill="none" stroke="blue" d="M424.3,-580.8C424.3,-569.16 424.3,-553.55 424.3,-540.24"/>
<polygon fill="blue" stroke="blue" points="427.8,-540.18 424.3,-530.18 420.8,-540.18 427.8,-540.18"/>
</g>
<!-- ret_o2 -->
<g id="node16" class="node">
<title>ret_o2</title>
<ellipse fill="none" stroke="black" cx="507.3" cy="-251" rx="27" ry="18"/>
<text text-anchor="middle" x="507.3" y="-247.3" font-family="Times,serif" font-size="14.00">I</text>
</g>
<!-- o2&#45;&gt;ret_o2 -->
<g id="edge15" class="edge">
<title>o2&#45;&gt;ret_o2</title>
<path fill="none" stroke="red" d="M445.67,-587.78C470.26,-574.35 507.3,-548.27 507.3,-513 507.3,-513 507.3,-513 507.3,-337 507.3,-317.75 507.3,-296.05 507.3,-279.4"/>
<polygon fill="red" stroke="red" points="510.8,-279.26 507.3,-269.26 503.8,-279.26 510.8,-279.26"/>
</g>
<!-- o2l&#45;&gt;hi_retp -->
<g id="edge21" class="edge">
<title>o2l&#45;&gt;hi_retp</title>
<path fill="none" stroke="red" d="M298.45,-580.8C295.83,-569.09 292.32,-553.34 289.33,-539.97"/>
<polygon fill="red" stroke="red" points="292.67,-538.88 287.07,-529.89 285.84,-540.41 292.67,-538.88"/>
<text text-anchor="middle" x="298.3" y="-551.8" font-family="Times,serif" font-size="14.00">1</text>
</g>
<!-- o2l&#45;&gt;f_ret -->
<g id="edge22" class="edge">
<title>o2l&#45;&gt;f_ret</title>
<path fill="none" stroke="blue" d="M289.26,-583.02C280.11,-572.8 267.39,-559.14 255.3,-548 249.57,-542.73 243.14,-537.34 237,-532.43"/>
<polygon fill="blue" stroke="blue" points="238.94,-529.5 228.91,-526.07 234.61,-535 238.94,-529.5"/>
</g>
<!-- x1_o2 -->
<g id="node17" class="node">
<title>x1_o2</title>
<ellipse fill="none" stroke="black" cx="435.3" cy="-251" rx="27" ry="18"/>
<text text-anchor="middle" x="435.3" y="-247.3" font-family="Times,serif" font-size="14.00">I</text>
</g>
<!-- x_o2&#45;&gt;x1_o2 -->
<g id="edge16" class="edge">
<title>x_o2&#45;&gt;x1_o2</title>
<path fill="none" stroke="blue" d="M421.58,-494.04C416.66,-460.59 407.55,-383.79 416.3,-320 418.21,-306.05 422.23,-290.93 426.08,-278.5"/>
<polygon fill="blue" stroke="blue" points="429.48,-279.37 429.23,-268.78 422.82,-277.21 429.48,-279.37"/>
</g>
<!-- x2_o2 -->
<g id="node18" class="node">
<title>x2_o2</title>
<ellipse fill="none" stroke="black" cx="452.3" cy="-425" rx="27" ry="18"/>
<text text-anchor="middle" x="452.3" y="-421.3" font-family="Times,serif" font-size="14.00">!d</text>
</g>
<!-- x_o2&#45;&gt;x2_o2 -->
<g id="edge17" class="edge">
<title>x_o2&#45;&gt;x2_o2</title>
<path fill="none" stroke="blue" d="M429.83,-494.21C433.74,-482.33 439.07,-466.17 443.55,-452.56"/>
<polygon fill="blue" stroke="blue" points="446.97,-453.35 446.78,-442.76 440.32,-451.16 446.97,-453.35"/>
</g>
<!-- x2i_o2 -->
<g id="node19" class="node">
<title>x2i_o2</title>
<ellipse fill="none" stroke="black" cx="452.3" cy="-338" rx="27" ry="18"/>
<text text-anchor="middle" x="452.3" y="-334.3" font-family="Times,serif" font-size="14.00">PiL</text>
</g>
<!-- x2_o2&#45;&gt;x2i_o2 -->
<g id="edge18" class="edge">
<title>x2_o2&#45;&gt;x2i_o2</title>
<path fill="none" stroke="blue" d="M452.3,-406.8C452.3,-395.16 452.3,-379.55 452.3,-366.24"/>
<polygon fill="blue" stroke="blue" points="455.8,-366.18 452.3,-356.18 448.8,-366.18 455.8,-366.18"/>
</g>
<!-- x2i_o2&#45;&gt;ret_o2 -->
<g id="edge20" class="edge">
<title>x2i_o2&#45;&gt;ret_o2</title>
<path fill="none" stroke="blue" d="M462.64,-321.01C470.79,-308.43 482.27,-290.68 491.55,-276.33"/>
<polygon fill="blue" stroke="blue" points="494.5,-278.21 497,-267.92 488.63,-274.41 494.5,-278.21"/>
</g>
<!-- x2i_o2&#45;&gt;x1_o2 -->
<g id="edge19" class="edge">
<title>x2i_o2&#45;&gt;x1_o2</title>
<path fill="none" stroke="red" d="M448.86,-319.8C446.51,-308.09 443.37,-292.34 440.69,-278.97"/>
<polygon fill="red" stroke="red" points="444.07,-278 438.67,-268.89 437.2,-279.38 444.07,-278"/>
</g>
<!-- h -->
<g id="node22" class="node">
<title>h</title>
<ellipse fill="none" stroke="black" cx="228.3" cy="-338" rx="27" ry="18"/>
<text text-anchor="middle" x="228.3" y="-334.3" font-family="Times,serif" font-size="14.00">PiL</text>
</g>
<!-- h_di&#45;&gt;h -->
<g id="edge25" class="edge">
<title>h_di&#45;&gt;h</title>
<path fill="none" stroke="blue" d="M228.3,-406.8C228.3,-395.16 228.3,-379.55 228.3,-366.24"/>
<polygon fill="blue" stroke="blue" points="231.8,-366.18 228.3,-356.18 224.8,-366.18 231.8,-366.18"/>
<text text-anchor="middle" x="233.3" y="-377.8" font-family="Times,serif" font-size="14.00">2</text>
</g>
<!-- h&#45;&gt;hi_ret -->
<g id="edge33" class="edge">
<title>h&#45;&gt;hi_ret</title>
<path fill="none" stroke="blue" d="M226.48,-319.8C225.24,-308.16 223.59,-292.55 222.18,-279.24"/>
<polygon fill="blue" stroke="blue" points="225.65,-278.75 221.12,-269.18 218.69,-279.49 225.65,-278.75"/>
</g>
<!-- h_app -->
<g id="node25" class="node">
<title>h_app</title>
<ellipse fill="none" stroke="black" cx="291.3" cy="-251" rx="27" ry="18"/>
<text text-anchor="middle" x="291.3" y="-247.3" font-family="Times,serif" font-size="14.00">I</text>
</g>
<!-- h&#45;&gt;h_app -->
<g id="edge32" class="edge">
<title>h&#45;&gt;h_app</title>
<path fill="none" stroke="red" d="M239.85,-321.41C249.36,-308.59 262.97,-290.22 273.81,-275.6"/>
<polygon fill="red" stroke="red" points="276.67,-277.61 279.82,-267.49 271.05,-273.44 276.67,-277.61"/>
</g>
<!-- c3 -->
<g id="node23" class="node">
<title>c3</title>
<ellipse fill="none" stroke="black" cx="341.3" cy="-338" rx="27.1" ry="18"/>
<text text-anchor="middle" x="341.3" y="-334.3" font-family="Times,serif" font-size="14.00">Cut</text>
</g>
<!-- i -->
<g id="node24" class="node">
<title>i</title>
<ellipse fill="none" stroke="black" cx="363.3" cy="-251" rx="27" ry="18"/>
<text text-anchor="middle" x="363.3" y="-247.3" font-family="Times,serif" font-size="14.00">!p</text>
</g>
<!-- c3&#45;&gt;i -->
<g id="edge26" class="edge">
<title>c3&#45;&gt;i</title>
<path fill="none" stroke="red" d="M345.64,-320.21C348.7,-308.41 352.85,-292.38 356.36,-278.82"/>
<polygon fill="red" stroke="red" points="359.77,-279.61 358.88,-269.05 352.99,-277.85 359.77,-279.61"/>
<text text-anchor="middle" x="358.3" y="-290.8" font-family="Times,serif" font-size="14.00">2</text>
</g>
<!-- c3&#45;&gt;h_app -->
<g id="edge27" class="edge">
<title>c3&#45;&gt;h_app</title>
<path fill="none" stroke="blue" d="M331.89,-321.01C324.56,-308.55 314.25,-291.01 305.85,-276.74"/>
<polygon fill="blue" stroke="blue" points="308.75,-274.76 300.66,-267.92 302.71,-278.31 308.75,-274.76"/>
</g>
<!-- i_i -->
<g id="node26" class="node">
<title>i_i</title>
<ellipse fill="none" stroke="black" cx="363.3" cy="-164" rx="27" ry="18"/>
<text text-anchor="middle" x="363.3" y="-160.3" font-family="Times,serif" font-size="14.00">PiR</text>
</g>
<!-- i&#45;&gt;i_i -->
<g id="edge28" class="edge">
<title>i&#45;&gt;i_i</title>
<path fill="none" stroke="red" d="M363.3,-232.8C363.3,-221.16 363.3,-205.55 363.3,-192.24"/>
<polygon fill="red" stroke="red" points="366.8,-192.18 363.3,-182.18 359.8,-192.18 366.8,-192.18"/>
<text text-anchor="middle" x="368.3" y="-203.8" font-family="Times,serif" font-size="14.00">3</text>
</g>
<!-- il -->
<g id="node27" class="node">
<title>il</title>
<ellipse fill="none" stroke="black" cx="406.3" cy="-91" rx="27" ry="18"/>
<text text-anchor="middle" x="406.3" y="-87.3" font-family="Times,serif" font-size="14.00">!d</text>
</g>
<!-- i_i&#45;&gt;il -->
<g id="edge29" class="edge">
<title>i_i&#45;&gt;il</title>
<path fill="none" stroke="blue" d="M373.05,-146.89C378.44,-137.99 385.25,-126.75 391.3,-116.77"/>
<polygon fill="blue" stroke="blue" points="394.39,-118.41 396.58,-108.05 388.4,-114.79 394.39,-118.41"/>
</g>
<!-- i_ret -->
<g id="node28" class="node">
<title>i_ret</title>
<ellipse fill="none" stroke="black" cx="363.3" cy="-18" rx="27" ry="18"/>
<text text-anchor="middle" x="363.3" y="-14.3" font-family="Times,serif" font-size="14.00">I</text>
</g>
<!-- i_i&#45;&gt;i_ret -->
<g id="edge30" class="edge">
<title>i_i&#45;&gt;i_ret</title>
<path fill="none" stroke="red" d="M363.3,-145.92C363.3,-121.34 363.3,-75.75 363.3,-46.43"/>
<polygon fill="red" stroke="red" points="366.8,-46.06 363.3,-36.06 359.8,-46.06 366.8,-46.06"/>
</g>
<!-- il&#45;&gt;i_ret -->
<g id="edge31" class="edge">
<title>il&#45;&gt;i_ret</title>
<path fill="none" stroke="blue" d="M396.54,-73.89C391.15,-64.99 384.35,-53.75 378.3,-43.77"/>
<polygon fill="blue" stroke="blue" points="381.19,-41.79 373.02,-35.05 375.2,-45.41 381.19,-41.79"/>
</g>
</g>
</svg>
