<?xml version="1.0" encoding="UTF-8" standalone="no"?>
<!DOCTYPE svg PUBLIC "-//W3C//DTD SVG 1.1//EN"
 "http://www.w3.org/Graphics/SVG/1.1/DTD/svg11.dtd">
<!-- Generated by graphviz version 2.43.0 (0)
 -->
<!-- Title: %3 Pages: 1 -->
<svg width="464pt" height="1059pt"
 viewBox="0.00 0.00 464.00 1058.60" xmlns="http://www.w3.org/2000/svg" xmlns:xlink="http://www.w3.org/1999/xlink">
<g id="graph0" class="graph" transform="scale(1 1) rotate(0) translate(4 1054.6)">
<title>%3</title>
<polygon fill="white" stroke="transparent" points="-4,4 -4,-1054.6 460,-1054.6 460,4 -4,4"/>
<!-- Root -->
<g id="node1" class="node">
<title>Root</title>
<ellipse fill="none" stroke="black" cx="82" cy="-1032.6" rx="32.49" ry="18"/>
<text text-anchor="middle" x="82" y="-1028.9" font-family="Times,serif" font-size="14.00">Root</text>
</g>
<!-- c1a -->
<g id="node2" class="node">
<title>c1a</title>
<ellipse fill="none" stroke="black" cx="82" cy="-959.6" rx="27.1" ry="18"/>
<text text-anchor="middle" x="82" y="-955.9" font-family="Times,serif" font-size="14.00">Cut</text>
</g>
<!-- Root&#45;&gt;c1a -->
<g id="edge1" class="edge">
<title>Root&#45;&gt;c1a</title>
<path fill="none" stroke="black" d="M82,-1014.41C82,-1006.38 82,-996.64 82,-987.66"/>
<polygon fill="black" stroke="black" points="85.5,-987.62 82,-977.62 78.5,-987.62 85.5,-987.62"/>
</g>
<!-- c1b -->
<g id="node3" class="node">
<title>c1b</title>
<ellipse fill="none" stroke="black" cx="161" cy="-959.6" rx="27.1" ry="18"/>
<text text-anchor="middle" x="161" y="-955.9" font-family="Times,serif" font-size="14.00">Cut</text>
</g>
<!-- Root&#45;&gt;c1b -->
<g id="edge2" class="edge">
<title>Root&#45;&gt;c1b</title>
<path fill="none" stroke="black" d="M98.37,-1016.88C109.82,-1006.59 125.28,-992.7 137.97,-981.29"/>
<polygon fill="black" stroke="black" points="140.36,-983.85 145.46,-974.56 135.68,-978.64 140.36,-983.85"/>
</g>
<!-- ret -->
<g id="node8" class="node">
<title>ret</title>
<ellipse fill="none" stroke="black" cx="27" cy="-872.6" rx="27" ry="18"/>
<text text-anchor="middle" x="27" y="-868.9" font-family="Times,serif" font-size="14.00">I</text>
</g>
<!-- Root&#45;&gt;ret -->
<g id="edge5" class="edge">
<title>Root&#45;&gt;ret</title>
<path fill="none" stroke="red" stroke-width="2" d="M69.12,-1016.03C61.26,-1005.73 51.66,-991.59 46,-977.6 35.93,-952.7 31.17,-922.3 28.93,-900.81"/>
<polygon fill="red" stroke="red" stroke-width="2" points="32.41,-900.39 28,-890.75 25.44,-901.03 32.41,-900.39"/>
</g>
<!-- c1a&#45;&gt;ret -->
<g id="edge7" class="edge">
<title>c1a&#45;&gt;ret</title>
<path fill="none" stroke="blue" d="M71.65,-942.61C63.51,-930.02 52.03,-912.27 42.74,-897.93"/>
<polygon fill="blue" stroke="blue" points="45.67,-896.01 37.3,-889.51 39.79,-899.81 45.67,-896.01"/>
</g>
<!-- ret_o1 -->
<g id="node9" class="node">
<title>ret_o1</title>
<ellipse fill="none" stroke="black" cx="94" cy="-599" rx="27" ry="18"/>
<text text-anchor="middle" x="94" y="-595.3" font-family="Times,serif" font-size="14.00">I</text>
</g>
<!-- c1a&#45;&gt;ret_o1 -->
<g id="edge6" class="edge">
<title>c1a&#45;&gt;ret_o1</title>
<path fill="none" stroke="red" d="M82,-941.34C82,-924.17 82,-897.06 82,-873.6 82,-873.6 82,-873.6 82,-698.3 82,-674.07 85.64,-646.74 88.9,-627.05"/>
<polygon fill="red" stroke="red" points="92.39,-627.42 90.66,-616.97 85.5,-626.22 92.39,-627.42"/>
</g>
<!-- fp -->
<g id="node10" class="node">
<title>fp</title>
<ellipse fill="none" stroke="black" cx="274" cy="-872.6" rx="27" ry="18"/>
<text text-anchor="middle" x="274" y="-868.9" font-family="Times,serif" font-size="14.00">!p</text>
</g>
<!-- c1b&#45;&gt;fp -->
<g id="edge8" class="edge">
<title>c1b&#45;&gt;fp</title>
<path fill="none" stroke="red" d="M178.66,-945.31C197.42,-931.2 227.27,-908.74 248.57,-892.72"/>
<polygon fill="red" stroke="red" points="250.95,-895.31 256.84,-886.5 246.74,-889.72 250.95,-895.31"/>
<text text-anchor="middle" x="230" y="-912.4" font-family="Times,serif" font-size="14.00">0</text>
</g>
<!-- x_o1 -->
<g id="node11" class="node">
<title>x_o1</title>
<ellipse fill="none" stroke="black" cx="161" cy="-872.6" rx="27" ry="18"/>
<text text-anchor="middle" x="161" y="-868.9" font-family="Times,serif" font-size="14.00">!c</text>
</g>
<!-- c1b&#45;&gt;x_o1 -->
<g id="edge9" class="edge">
<title>c1b&#45;&gt;x_o1</title>
<path fill="none" stroke="blue" d="M161,-941.39C161,-929.76 161,-914.14 161,-900.83"/>
<polygon fill="blue" stroke="blue" points="164.5,-900.77 161,-890.77 157.5,-900.77 164.5,-900.77"/>
</g>
<!-- f -->
<g id="node4" class="node">
<title>f</title>
<ellipse fill="none" stroke="black" cx="301" cy="-785.6" rx="27" ry="18"/>
<text text-anchor="middle" x="301" y="-781.9" font-family="Times,serif" font-size="14.00">PiR</text>
</g>
<!-- c2 -->
<g id="node5" class="node">
<title>c2</title>
<ellipse fill="none" stroke="black" cx="251" cy="-699.3" rx="27.12" ry="27.12"/>
<ellipse fill="none" stroke="black" cx="251" cy="-699.3" rx="31.1" ry="31.1"/>
<text text-anchor="middle" x="251" y="-695.6" font-family="Times,serif" font-size="14.00">Cut</text>
</g>
<!-- f&#45;&gt;c2 -->
<g id="edge3" class="edge">
<title>f&#45;&gt;c2</title>
<path fill="none" stroke="black" d="M291.36,-768.34C285.85,-759.05 278.72,-747.03 271.98,-735.68"/>
<polygon fill="black" stroke="black" points="274.82,-733.6 266.71,-726.78 268.8,-737.17 274.82,-733.6"/>
</g>
<!-- hi_retp -->
<g id="node15" class="node">
<title>hi_retp</title>
<ellipse fill="none" stroke="black" cx="348" cy="-512" rx="27" ry="18"/>
<text text-anchor="middle" x="348" y="-508.3" font-family="Times,serif" font-size="14.00">!p</text>
</g>
<!-- f&#45;&gt;hi_retp -->
<g id="edge16" class="edge">
<title>f&#45;&gt;hi_retp</title>
<path fill="none" stroke="blue" d="M302.55,-767.57C305.93,-732.44 314.79,-649.47 329,-581 331.86,-567.22 335.98,-552.11 339.65,-539.65"/>
<polygon fill="blue" stroke="blue" points="343.06,-540.47 342.59,-529.89 336.35,-538.45 343.06,-540.47"/>
<text text-anchor="middle" x="323" y="-638.8" font-family="Times,serif" font-size="14.00">1</text>
</g>
<!-- f_ret -->
<g id="node16" class="node">
<title>f_ret</title>
<ellipse fill="none" stroke="black" cx="420" cy="-512" rx="27" ry="18"/>
<text text-anchor="middle" x="420" y="-508.3" font-family="Times,serif" font-size="14.00">I</text>
</g>
<!-- f&#45;&gt;f_ret -->
<g id="edge17" class="edge">
<title>f&#45;&gt;f_ret</title>
<path fill="none" stroke="red" d="M313,-768.94C334.24,-740.39 378.36,-677.26 401,-617 410.44,-591.87 415.3,-561.5 417.72,-540.08"/>
<polygon fill="red" stroke="red" points="421.21,-540.37 418.76,-530.07 414.25,-539.65 421.21,-540.37"/>
</g>
<!-- o2 -->
<g id="node17" class="node">
<title>o2</title>
<ellipse fill="none" stroke="black" cx="247" cy="-599" rx="27" ry="18"/>
<text text-anchor="middle" x="247" y="-595.3" font-family="Times,serif" font-size="14.00">PiR</text>
</g>
<!-- c2&#45;&gt;o2 -->
<g id="edge18" class="edge">
<title>c2&#45;&gt;o2</title>
<path fill="none" stroke="red" d="M249.77,-668C249.24,-655.09 248.63,-640.13 248.12,-627.53"/>
<polygon fill="red" stroke="red" points="251.6,-627.03 247.7,-617.18 244.61,-627.32 251.6,-627.03"/>
</g>
<!-- o2l -->
<g id="node18" class="node">
<title>o2l</title>
<ellipse fill="none" stroke="black" cx="365" cy="-599" rx="27" ry="18"/>
<text text-anchor="middle" x="365" y="-595.3" font-family="Times,serif" font-size="14.00">PiL</text>
</g>
<!-- c2&#45;&gt;o2l -->
<g id="edge19" class="edge">
<title>c2&#45;&gt;o2l</title>
<path fill="none" stroke="blue" d="M278.05,-683.09C292.45,-674.35 310.01,-662.63 324,-650 332.59,-642.25 340.91,-632.63 347.78,-623.91"/>
<polygon fill="blue" stroke="blue" points="350.6,-625.99 353.89,-615.92 345.04,-621.74 350.6,-625.99"/>
</g>
<!-- h_di -->
<g id="node6" class="node">
<title>h_di</title>
<ellipse fill="none" stroke="black" cx="348" cy="-425" rx="27" ry="18"/>
<text text-anchor="middle" x="348" y="-421.3" font-family="Times,serif" font-size="14.00">!d</text>
</g>
<!-- c3 -->
<g id="node7" class="node">
<title>c3</title>
<ellipse fill="none" stroke="black" cx="302" cy="-338" rx="27.1" ry="18"/>
<text text-anchor="middle" x="302" y="-334.3" font-family="Times,serif" font-size="14.00">Cut</text>
</g>
<!-- h_di&#45;&gt;c3 -->
<g id="edge4" class="edge">
<title>h_di&#45;&gt;c3</title>
<path fill="none" stroke="black" d="M339.13,-407.61C332.51,-395.38 323.35,-378.44 315.78,-364.46"/>
<polygon fill="black" stroke="black" points="318.68,-362.47 310.84,-355.34 312.52,-365.8 318.68,-362.47"/>
</g>
<!-- h -->
<g id="node25" class="node">
<title>h</title>
<ellipse fill="none" stroke="black" cx="374" cy="-338" rx="27" ry="18"/>
<text text-anchor="middle" x="374" y="-334.3" font-family="Times,serif" font-size="14.00">PiL</text>
</g>
<!-- h_di&#45;&gt;h -->
<g id="edge31" class="edge">
<title>h_di&#45;&gt;h</title>
<path fill="none" stroke="blue" d="M353.14,-407.21C356.77,-395.33 361.71,-379.17 365.88,-365.56"/>
<polygon fill="blue" stroke="blue" points="369.3,-366.34 368.87,-355.76 362.6,-364.3 369.3,-366.34"/>
<text text-anchor="middle" x="367" y="-377.8" font-family="Times,serif" font-size="14.00">2</text>
</g>
<!-- i -->
<g id="node26" class="node">
<title>i</title>
<ellipse fill="none" stroke="black" cx="285" cy="-251" rx="27" ry="18"/>
<text text-anchor="middle" x="285" y="-247.3" font-family="Times,serif" font-size="14.00">!p</text>
</g>
<!-- c3&#45;&gt;i -->
<g id="edge32" class="edge">
<title>c3&#45;&gt;i</title>
<path fill="none" stroke="red" d="M298.56,-319.8C296.22,-308.09 293.07,-292.34 290.39,-278.97"/>
<polygon fill="red" stroke="red" points="293.77,-278 288.38,-268.89 286.91,-279.38 293.77,-278"/>
<text text-anchor="middle" x="299" y="-290.8" font-family="Times,serif" font-size="14.00">2</text>
</g>
<!-- h_app -->
<g id="node27" class="node">
<title>h_app</title>
<ellipse fill="none" stroke="black" cx="357" cy="-251" rx="27" ry="18"/>
<text text-anchor="middle" x="357" y="-247.3" font-family="Times,serif" font-size="14.00">I</text>
</g>
<!-- c3&#45;&gt;h_app -->
<g id="edge33" class="edge">
<title>c3&#45;&gt;h_app</title>
<path fill="none" stroke="blue" d="M312.35,-321.01C320.49,-308.43 331.97,-290.68 341.26,-276.33"/>
<polygon fill="blue" stroke="blue" points="344.21,-278.21 346.7,-267.92 338.33,-274.41 344.21,-278.21"/>
</g>
<!-- fp&#45;&gt;f -->
<g id="edge15" class="edge">
<title>fp&#45;&gt;f</title>
<path fill="none" stroke="red" d="M279.33,-854.8C283.11,-842.93 288.24,-826.76 292.56,-813.15"/>
<polygon fill="red" stroke="red" points="295.99,-813.94 295.68,-803.35 289.31,-811.82 295.99,-813.94"/>
<text text-anchor="middle" x="294" y="-825.4" font-family="Times,serif" font-size="14.00">1</text>
</g>
<!-- x1_o1 -->
<g id="node12" class="node">
<title>x1_o1</title>
<ellipse fill="none" stroke="black" cx="172" cy="-599" rx="27" ry="18"/>
<text text-anchor="middle" x="172" y="-595.3" font-family="Times,serif" font-size="14.00">I</text>
</g>
<!-- x_o1&#45;&gt;x1_o1 -->
<g id="edge10" class="edge">
<title>x_o1&#45;&gt;x1_o1</title>
<path fill="none" stroke="blue" d="M164.84,-854.66C167.73,-840.97 171.46,-821.15 173,-803.6 178.51,-740.67 175.84,-666.39 173.73,-627.27"/>
<polygon fill="blue" stroke="blue" points="177.22,-626.99 173.15,-617.2 170.23,-627.39 177.22,-626.99"/>
</g>
<!-- x2_o1 -->
<g id="node13" class="node">
<title>x2_o1</title>
<ellipse fill="none" stroke="black" cx="137" cy="-785.6" rx="27" ry="18"/>
<text text-anchor="middle" x="137" y="-781.9" font-family="Times,serif" font-size="14.00">!d</text>
</g>
<!-- x_o1&#45;&gt;x2_o1 -->
<g id="edge11" class="edge">
<title>x_o1&#45;&gt;x2_o1</title>
<path fill="none" stroke="blue" d="M156.26,-854.8C152.91,-842.93 148.34,-826.76 144.5,-813.15"/>
<polygon fill="blue" stroke="blue" points="147.82,-812.03 141.73,-803.35 141.08,-813.93 147.82,-812.03"/>
</g>
<!-- x2i_o1 -->
<g id="node14" class="node">
<title>x2i_o1</title>
<ellipse fill="none" stroke="black" cx="137" cy="-699.3" rx="27" ry="18"/>
<text text-anchor="middle" x="137" y="-695.6" font-family="Times,serif" font-size="14.00">PiL</text>
</g>
<!-- x2_o1&#45;&gt;x2i_o1 -->
<g id="edge12" class="edge">
<title>x2_o1&#45;&gt;x2i_o1</title>
<path fill="none" stroke="blue" d="M137,-767.54C137,-756.11 137,-740.82 137,-727.7"/>
<polygon fill="blue" stroke="blue" points="140.5,-727.33 137,-717.33 133.5,-727.33 140.5,-727.33"/>
</g>
<!-- x2i_o1&#45;&gt;ret_o1 -->
<g id="edge14" class="edge">
<title>x2i_o1&#45;&gt;ret_o1</title>
<path fill="none" stroke="blue" d="M129.71,-681.62C122.99,-666.28 112.94,-643.29 105.21,-625.62"/>
<polygon fill="blue" stroke="blue" points="108.4,-624.19 101.19,-616.43 101.99,-626.99 108.4,-624.19"/>
</g>
<!-- x2i_o1&#45;&gt;x1_o1 -->
<g id="edge13" class="edge">
<title>x2i_o1&#45;&gt;x1_o1</title>
<path fill="none" stroke="red" d="M142.94,-681.62C148.32,-666.51 156.34,-643.99 162.59,-626.43"/>
<polygon fill="red" stroke="red" points="165.98,-627.35 166.03,-616.76 159.38,-625 165.98,-627.35"/>
</g>
<!-- hi_retp&#45;&gt;h_di -->
<g id="edge30" class="edge">
<title>hi_retp&#45;&gt;h_di</title>
<path fill="none" stroke="blue" d="M348,-493.8C348,-482.16 348,-466.55 348,-453.24"/>
<polygon fill="blue" stroke="blue" points="351.5,-453.18 348,-443.18 344.5,-453.18 351.5,-453.18"/>
<text text-anchor="middle" x="353" y="-464.8" font-family="Times,serif" font-size="14.00">1</text>
</g>
<!-- hi_ret -->
<g id="node24" class="node">
<title>hi_ret</title>
<ellipse fill="none" stroke="black" cx="429" cy="-251" rx="27" ry="18"/>
<text text-anchor="middle" x="429" y="-247.3" font-family="Times,serif" font-size="14.00">I</text>
</g>
<!-- hi_retp&#45;&gt;hi_ret -->
<g id="edge29" class="edge">
<title>hi_retp&#45;&gt;hi_ret</title>
<path fill="none" stroke="red" d="M357.66,-494.95C365.5,-481.43 376.46,-461.42 384,-443 406.85,-387.19 419.62,-317.23 425.32,-279.38"/>
<polygon fill="red" stroke="red" points="428.83,-279.56 426.8,-269.16 421.9,-278.55 428.83,-279.56"/>
<text text-anchor="middle" x="411" y="-377.8" font-family="Times,serif" font-size="14.00">2</text>
</g>
<!-- x_o2 -->
<g id="node19" class="node">
<title>x_o2</title>
<ellipse fill="none" stroke="black" cx="192" cy="-512" rx="27" ry="18"/>
<text text-anchor="middle" x="192" y="-508.3" font-family="Times,serif" font-size="14.00">!c</text>
</g>
<!-- o2&#45;&gt;x_o2 -->
<g id="edge20" class="edge">
<title>o2&#45;&gt;x_o2</title>
<path fill="none" stroke="blue" d="M236.65,-582.01C228.51,-569.43 217.03,-551.68 207.74,-537.33"/>
<polygon fill="blue" stroke="blue" points="210.67,-535.41 202.3,-528.92 204.79,-539.21 210.67,-535.41"/>
</g>
<!-- ret_o2 -->
<g id="node20" class="node">
<title>ret_o2</title>
<ellipse fill="none" stroke="black" cx="212" cy="-251" rx="27" ry="18"/>
<text text-anchor="middle" x="212" y="-247.3" font-family="Times,serif" font-size="14.00">I</text>
</g>
<!-- o2&#45;&gt;ret_o2 -->
<g id="edge21" class="edge">
<title>o2&#45;&gt;ret_o2</title>
<path fill="none" stroke="red" d="M247,-580.74C247,-563.57 247,-536.46 247,-513 247,-513 247,-513 247,-337 247,-315.52 237.33,-293.13 228.15,-276.73"/>
<polygon fill="red" stroke="red" points="230.98,-274.64 222.88,-267.81 224.96,-278.2 230.98,-274.64"/>
</g>
<!-- o2l&#45;&gt;hi_retp -->
<g id="edge27" class="edge">
<title>o2l&#45;&gt;hi_retp</title>
<path fill="none" stroke="red" d="M361.56,-580.8C359.22,-569.09 356.07,-553.34 353.39,-539.97"/>
<polygon fill="red" stroke="red" points="356.77,-539 351.38,-529.89 349.91,-540.38 356.77,-539"/>
<text text-anchor="middle" x="362" y="-551.8" font-family="Times,serif" font-size="14.00">1</text>
</g>
<!-- o2l&#45;&gt;f_ret -->
<g id="edge28" class="edge">
<title>o2l&#45;&gt;f_ret</title>
<path fill="none" stroke="blue" d="M375.35,-582.01C383.49,-569.43 394.97,-551.68 404.26,-537.33"/>
<polygon fill="blue" stroke="blue" points="407.21,-539.21 409.7,-528.92 401.33,-535.41 407.21,-539.21"/>
</g>
<!-- x1_o2 -->
<g id="node21" class="node">
<title>x1_o2</title>
<ellipse fill="none" stroke="black" cx="138" cy="-251" rx="27" ry="18"/>
<text text-anchor="middle" x="138" y="-247.3" font-family="Times,serif" font-size="14.00">I</text>
</g>
<!-- x_o2&#45;&gt;x1_o2 -->
<g id="edge22" class="edge">
<title>x_o2&#45;&gt;x1_o2</title>
<path fill="none" stroke="blue" d="M181.38,-495.29C172.96,-481.98 161.7,-462.07 156,-443 139.12,-386.51 136.98,-316.81 137.26,-279.19"/>
<polygon fill="blue" stroke="blue" points="140.76,-279.08 137.41,-269.03 133.76,-278.98 140.76,-279.08"/>
</g>
<!-- x2_o2 -->
<g id="node22" class="node">
<title>x2_o2</title>
<ellipse fill="none" stroke="black" cx="192" cy="-425" rx="27" ry="18"/>
<text text-anchor="middle" x="192" y="-421.3" font-family="Times,serif" font-size="14.00">!d</text>
</g>
<!-- x_o2&#45;&gt;x2_o2 -->
<g id="edge23" class="edge">
<title>x_o2&#45;&gt;x2_o2</title>
<path fill="none" stroke="blue" d="M192,-493.8C192,-482.16 192,-466.55 192,-453.24"/>
<polygon fill="blue" stroke="blue" points="195.5,-453.18 192,-443.18 188.5,-453.18 195.5,-453.18"/>
</g>
<!-- x2i_o2 -->
<g id="node23" class="node">
<title>x2i_o2</title>
<ellipse fill="none" stroke="black" cx="192" cy="-338" rx="27" ry="18"/>
<text text-anchor="middle" x="192" y="-334.3" font-family="Times,serif" font-size="14.00">PiL</text>
</g>
<!-- x2_o2&#45;&gt;x2i_o2 -->
<g id="edge24" class="edge">
<title>x2_o2&#45;&gt;x2i_o2</title>
<path fill="none" stroke="blue" d="M192,-406.8C192,-395.16 192,-379.55 192,-366.24"/>
<polygon fill="blue" stroke="blue" points="195.5,-366.18 192,-356.18 188.5,-366.18 195.5,-366.18"/>
</g>
<!-- x2i_o2&#45;&gt;ret_o2 -->
<g id="edge26" class="edge">
<title>x2i_o2&#45;&gt;ret_o2</title>
<path fill="none" stroke="blue" d="M196.05,-319.8C198.8,-308.09 202.51,-292.34 205.65,-278.97"/>
<polygon fill="blue" stroke="blue" points="209.14,-279.42 208.03,-268.89 202.33,-277.82 209.14,-279.42"/>
</g>
<!-- x2i_o2&#45;&gt;x1_o2 -->
<g id="edge25" class="edge">
<title>x2i_o2&#45;&gt;x1_o2</title>
<path fill="none" stroke="red" d="M181.84,-321.01C173.92,-308.55 162.78,-291.01 153.72,-276.74"/>
<polygon fill="red" stroke="red" points="156.43,-274.48 148.11,-267.92 150.52,-278.23 156.43,-274.48"/>
</g>
<!-- h&#45;&gt;hi_ret -->
<g id="edge39" class="edge">
<title>h&#45;&gt;hi_ret</title>
<path fill="none" stroke="blue" d="M384.35,-321.01C392.49,-308.43 403.97,-290.68 413.26,-276.33"/>
<polygon fill="blue" stroke="blue" points="416.21,-278.21 418.7,-267.92 410.33,-274.41 416.21,-278.21"/>
</g>
<!-- h&#45;&gt;h_app -->
<g id="edge38" class="edge">
<title>h&#45;&gt;h_app</title>
<path fill="none" stroke="red" d="M370.56,-319.8C368.22,-308.09 365.07,-292.34 362.39,-278.97"/>
<polygon fill="red" stroke="red" points="365.77,-278 360.38,-268.89 358.91,-279.38 365.77,-278"/>
</g>
<!-- i_i -->
<g id="node28" class="node">
<title>i_i</title>
<ellipse fill="none" stroke="black" cx="285" cy="-164" rx="27" ry="18"/>
<text text-anchor="middle" x="285" y="-160.3" font-family="Times,serif" font-size="14.00">PiR</text>
</g>
<!-- i&#45;&gt;i_i -->
<g id="edge34" class="edge">
<title>i&#45;&gt;i_i</title>
<path fill="none" stroke="red" d="M285,-232.8C285,-221.16 285,-205.55 285,-192.24"/>
<polygon fill="red" stroke="red" points="288.5,-192.18 285,-182.18 281.5,-192.18 288.5,-192.18"/>
<text text-anchor="middle" x="290" y="-203.8" font-family="Times,serif" font-size="14.00">3</text>
</g>
<!-- il -->
<g id="node29" class="node">
<title>il</title>
<ellipse fill="none" stroke="black" cx="328" cy="-91" rx="27" ry="18"/>
<text text-anchor="middle" x="328" y="-87.3" font-family="Times,serif" font-size="14.00">!d</text>
</g>
<!-- i_i&#45;&gt;il -->
<g id="edge35" class="edge">
<title>i_i&#45;&gt;il</title>
<path fill="none" stroke="blue" d="M294.76,-146.89C300.15,-137.99 306.95,-126.75 313,-116.77"/>
<polygon fill="blue" stroke="blue" points="316.09,-118.41 318.28,-108.05 310.11,-114.79 316.09,-118.41"/>
</g>
<!-- i_ret -->
<g id="node30" class="node">
<title>i_ret</title>
<ellipse fill="none" stroke="black" cx="285" cy="-18" rx="27" ry="18"/>
<text text-anchor="middle" x="285" y="-14.3" font-family="Times,serif" font-size="14.00">I</text>
</g>
<!-- i_i&#45;&gt;i_ret -->
<g id="edge36" class="edge">
<title>i_i&#45;&gt;i_ret</title>
<path fill="none" stroke="red" d="M285,-145.92C285,-121.34 285,-75.75 285,-46.43"/>
<polygon fill="red" stroke="red" points="288.5,-46.06 285,-36.06 281.5,-46.06 288.5,-46.06"/>
</g>
<!-- il&#45;&gt;i_ret -->
<g id="edge37" class="edge">
<title>il&#45;&gt;i_ret</title>
<path fill="none" stroke="blue" d="M318.24,-73.89C312.85,-64.99 306.05,-53.75 300,-43.77"/>
<polygon fill="blue" stroke="blue" points="302.89,-41.79 294.72,-35.05 296.91,-45.41 302.89,-41.79"/>
</g>
</g>
</svg>
