<?xml version="1.0" encoding="UTF-8" standalone="no"?>
<!DOCTYPE svg PUBLIC "-//W3C//DTD SVG 1.1//EN"
 "http://www.w3.org/Graphics/SVG/1.1/DTD/svg11.dtd">
<!-- Generated by graphviz version 2.40.1 (20161225.0304)
 -->
<!-- Title: %3 Pages: 1 -->
<svg width="334pt" height="1037pt"
 viewBox="0.00 0.00 334.00 1036.80" xmlns="http://www.w3.org/2000/svg" xmlns:xlink="http://www.w3.org/1999/xlink">
<g id="graph0" class="graph" transform="scale(1 1) rotate(0) translate(4 1032.7958)">
<title>%3</title>
<polygon fill="#ffffff" stroke="transparent" points="-4,4 -4,-1032.7958 330,-1032.7958 330,4 -4,4"/>
<!-- Root -->
<g id="node1" class="node">
<title>Root</title>
<ellipse fill="none" stroke="#000000" cx="223" cy="-1010.7958" rx="27.8951" ry="18"/>
<text text-anchor="middle" x="223" y="-1007.0958" font-family="Times,serif" font-size="14.00" fill="#000000">Root</text>
</g>
<!-- c1a -->
<g id="node2" class="node">
<title>c1a</title>
<ellipse fill="none" stroke="#000000" cx="127" cy="-928.3979" rx="23.3111" ry="23.3111"/>
<ellipse fill="none" stroke="#000000" cx="127" cy="-928.3979" rx="27.2962" ry="27.2962"/>
<text text-anchor="middle" x="127" y="-924.6979" font-family="Times,serif" font-size="14.00" fill="#000000">Cut</text>
</g>
<!-- Root&#45;&gt;c1a -->
<g id="edge1" class="edge">
<title>Root&#45;&gt;c1a</title>
<path fill="none" stroke="#000000" d="M205.8371,-996.0648C191.9329,-984.1306 172.042,-967.058 155.7189,-953.0477"/>
<polygon fill="#000000" stroke="#000000" points="157.902,-950.309 148.0342,-946.4518 153.3429,-955.6208 157.902,-950.309"/>
</g>
<!-- c1b -->
<g id="node3" class="node">
<title>c1b</title>
<ellipse fill="none" stroke="#000000" cx="223" cy="-928.3979" rx="23.3111" ry="23.3111"/>
<ellipse fill="none" stroke="#000000" cx="223" cy="-928.3979" rx="27.2962" ry="27.2962"/>
<text text-anchor="middle" x="223" y="-924.6979" font-family="Times,serif" font-size="14.00" fill="#000000">Cut</text>
</g>
<!-- Root&#45;&gt;c1b -->
<g id="edge2" class="edge">
<title>Root&#45;&gt;c1b</title>
<path fill="none" stroke="#000000" d="M223,-992.5091C223,-984.7238 223,-975.3381 223,-966.1791"/>
<polygon fill="#000000" stroke="#000000" points="226.5001,-966.0322 223,-956.0322 219.5001,-966.0322 226.5001,-966.0322"/>
</g>
<!-- ret -->
<g id="node6" class="node">
<title>ret</title>
<ellipse fill="none" stroke="#000000" cx="299" cy="-672" rx="27" ry="18"/>
<text text-anchor="middle" x="299" y="-668.3" font-family="Times,serif" font-size="14.00" fill="#000000">I</text>
</g>
<!-- Root&#45;&gt;ret -->
<g id="edge4" class="edge">
<title>Root&#45;&gt;ret</title>
<path fill="none" stroke="#ff0000" stroke-width="2" d="M248.4607,-1002.9211C278.9619,-991.7164 326,-968.0146 326,-928.3979 326,-928.3979 326,-928.3979 326,-745 326,-728.6897 319.9977,-711.5314 313.6531,-697.9506"/>
<polygon fill="#ff0000" stroke="#ff0000" stroke-width="2" points="316.6582,-696.1345 309.0538,-688.7573 310.3979,-699.2665 316.6582,-696.1345"/>
</g>
<!-- fpa -->
<g id="node8" class="node">
<title>fpa</title>
<ellipse fill="none" stroke="#000000" cx="127" cy="-832" rx="27" ry="18"/>
<text text-anchor="middle" x="127" y="-828.3" font-family="Times,serif" font-size="14.00" fill="#000000">!p</text>
</g>
<!-- c1a&#45;&gt;fpa -->
<g id="edge6" class="edge">
<title>c1a&#45;&gt;fpa</title>
<path fill="none" stroke="#ff0000" d="M127,-900.7741C127,-888.0823 127,-873.0472 127,-860.2766"/>
<polygon fill="#ff0000" stroke="#ff0000" points="130.5001,-860.183 127,-850.183 123.5001,-860.1831 130.5001,-860.183"/>
<text text-anchor="middle" x="130.5" y="-871.8" font-family="Times,serif" font-size="14.00" fill="#000000">0</text>
</g>
<!-- x1_o1 -->
<g id="node9" class="node">
<title>x1_o1</title>
<ellipse fill="none" stroke="#000000" cx="223" cy="-672" rx="27" ry="18"/>
<text text-anchor="middle" x="223" y="-668.3" font-family="Times,serif" font-size="14.00" fill="#000000">I</text>
</g>
<!-- c1a&#45;&gt;x1_o1 -->
<g id="edge7" class="edge">
<title>c1a&#45;&gt;x1_o1</title>
<path fill="none" stroke="#0000ff" d="M112.8155,-904.6299C104.6618,-889.5537 95.2224,-869.3137 91,-850 79.2133,-796.0871 74.2153,-770.6363 108,-727 113.5099,-719.8834 158.4521,-699.6032 190.4884,-685.7622"/>
<polygon fill="#0000ff" stroke="#0000ff" points="192.1511,-688.8573 199.9584,-681.6952 189.3887,-682.4254 192.1511,-688.8573"/>
</g>
<!-- fpb -->
<g id="node10" class="node">
<title>fpb</title>
<ellipse fill="none" stroke="#000000" cx="199" cy="-832" rx="27" ry="18"/>
<text text-anchor="middle" x="199" y="-828.3" font-family="Times,serif" font-size="14.00" fill="#000000">!p</text>
</g>
<!-- c1b&#45;&gt;fpb -->
<g id="edge8" class="edge">
<title>c1b&#45;&gt;fpb</title>
<path fill="none" stroke="#ff0000" d="M216.3784,-901.8016C213.1377,-888.7854 209.2373,-873.1191 205.9534,-859.9291"/>
<polygon fill="#ff0000" stroke="#ff0000" points="209.2887,-858.838 203.4764,-849.9798 202.4961,-860.5292 209.2887,-858.838"/>
<text text-anchor="middle" x="214.5" y="-871.8" font-family="Times,serif" font-size="14.00" fill="#000000">0</text>
</g>
<!-- x2_o1 -->
<g id="node11" class="node">
<title>x2_o1</title>
<ellipse fill="none" stroke="#000000" cx="271" cy="-832" rx="27" ry="18"/>
<text text-anchor="middle" x="271" y="-828.3" font-family="Times,serif" font-size="14.00" fill="#000000">!d</text>
</g>
<!-- c1b&#45;&gt;x2_o1 -->
<g id="edge9" class="edge">
<title>c1b&#45;&gt;x2_o1</title>
<path fill="none" stroke="#0000ff" d="M235.2366,-903.8232C242.1424,-889.9545 250.7744,-872.6188 257.8278,-858.4535"/>
<polygon fill="#0000ff" stroke="#0000ff" points="261.0938,-859.7466 262.4181,-849.2349 254.8276,-856.6265 261.0938,-859.7466"/>
</g>
<!-- f -->
<g id="node4" class="node">
<title>f</title>
<ellipse fill="none" stroke="#000000" cx="144" cy="-672" rx="27" ry="18"/>
<text text-anchor="middle" x="144" y="-668.3" font-family="Times,serif" font-size="14.00" fill="#000000">PiR</text>
</g>
<!-- c2b -->
<g id="node5" class="node">
<title>c2b</title>
<ellipse fill="none" stroke="#000000" cx="144" cy="-599" rx="27" ry="18"/>
<text text-anchor="middle" x="144" y="-595.3" font-family="Times,serif" font-size="14.00" fill="#000000">Cut</text>
</g>
<!-- f&#45;&gt;c2b -->
<g id="edge3" class="edge">
<title>f&#45;&gt;c2b</title>
<path fill="none" stroke="#000000" d="M144,-653.9551C144,-645.8828 144,-636.1764 144,-627.1817"/>
<polygon fill="#000000" stroke="#000000" points="147.5001,-627.0903 144,-617.0904 140.5001,-627.0904 147.5001,-627.0903"/>
</g>
<!-- hi_retp -->
<g id="node13" class="node">
<title>hi_retp</title>
<ellipse fill="none" stroke="#000000" cx="82" cy="-512" rx="27" ry="18"/>
<text text-anchor="middle" x="82" y="-508.3" font-family="Times,serif" font-size="14.00" fill="#000000">!p</text>
</g>
<!-- f&#45;&gt;hi_retp -->
<g id="edge15" class="edge">
<title>f&#45;&gt;hi_retp</title>
<path fill="none" stroke="#0000ff" d="M128.9564,-656.9905C119.4553,-646.6249 107.7408,-632.0426 101,-617 90.0477,-592.5591 85.4061,-562.2357 83.4404,-540.4691"/>
<polygon fill="#0000ff" stroke="#0000ff" points="86.9104,-539.942 82.6557,-530.239 79.9309,-540.4775 86.9104,-539.942"/>
<text text-anchor="middle" x="104.5" y="-595.3" font-family="Times,serif" font-size="14.00" fill="#000000">1</text>
</g>
<!-- f_ret -->
<g id="node14" class="node">
<title>f_ret</title>
<ellipse fill="none" stroke="#000000" cx="246" cy="-251" rx="27" ry="18"/>
<text text-anchor="middle" x="246" y="-247.3" font-family="Times,serif" font-size="14.00" fill="#000000">I</text>
</g>
<!-- f&#45;&gt;f_ret -->
<g id="edge16" class="edge">
<title>f&#45;&gt;f_ret</title>
<path fill="none" stroke="#ff0000" d="M166.0961,-661.6095C196.3609,-646.6464 247,-618.6711 247,-599 247,-599 247,-599 247,-338 247,-318.5462 246.7469,-296.6471 246.4954,-279.6867"/>
<polygon fill="#ff0000" stroke="#ff0000" points="249.9894,-279.2737 246.333,-269.3299 242.9903,-279.3835 249.9894,-279.2737"/>
</g>
<!-- c2b&#45;&gt;hi_retp -->
<g id="edge17" class="edge">
<title>c2b&#45;&gt;hi_retp</title>
<path fill="none" stroke="#ff0000" d="M132.3383,-582.636C123.0722,-569.6336 109.9682,-551.2457 99.4529,-536.4904"/>
<polygon fill="#ff0000" stroke="#ff0000" points="102.2633,-534.4031 93.6094,-528.2907 96.5627,-538.4656 102.2633,-534.4031"/>
<text text-anchor="middle" x="120.5" y="-551.8" font-family="Times,serif" font-size="14.00" fill="#000000">1</text>
</g>
<!-- x_o2 -->
<g id="node15" class="node">
<title>x_o2</title>
<ellipse fill="none" stroke="#000000" cx="154" cy="-512" rx="27" ry="18"/>
<text text-anchor="middle" x="154" y="-508.3" font-family="Times,serif" font-size="14.00" fill="#000000">!c</text>
</g>
<!-- c2b&#45;&gt;x_o2 -->
<g id="edge18" class="edge">
<title>c2b&#45;&gt;x_o2</title>
<path fill="none" stroke="#0000ff" d="M146.072,-580.9735C147.4262,-569.1918 149.2229,-553.5607 150.7634,-540.1581"/>
<polygon fill="#0000ff" stroke="#0000ff" points="154.2658,-540.3376 151.9306,-530.0034 147.3115,-539.5383 154.2658,-540.3376"/>
<text text-anchor="middle" x="153.5" y="-551.8" font-family="Times,serif" font-size="14.00" fill="#000000">1</text>
</g>
<!-- d1 -->
<g id="node7" class="node">
<title>d1</title>
<ellipse fill="none" stroke="#000000" cx="144" cy="-745" rx="27" ry="18"/>
<text text-anchor="middle" x="144" y="-741.3" font-family="Times,serif" font-size="14.00" fill="#000000">Dup</text>
</g>
<!-- d1&#45;&gt;f -->
<g id="edge5" class="edge">
<title>d1&#45;&gt;f</title>
<path fill="none" stroke="#ff0000" d="M144,-726.9551C144,-718.8828 144,-709.1764 144,-700.1817"/>
<polygon fill="#ff0000" stroke="#ff0000" points="147.5001,-700.0903 144,-690.0904 140.5001,-700.0904 147.5001,-700.0903"/>
</g>
<!-- fpa&#45;&gt;d1 -->
<g id="edge14" class="edge">
<title>fpa&#45;&gt;d1</title>
<path fill="none" stroke="#ff0000" d="M130.5224,-813.9735C132.9386,-801.6085 136.1832,-785.0036 138.8834,-771.1847"/>
<ellipse fill="none" stroke="#ff0000" cx="139.715" cy="-766.9291" rx="4" ry="4"/>
<text text-anchor="middle" x="140.5" y="-784.8" font-family="Times,serif" font-size="14.00" fill="#000000">1</text>
</g>
<!-- fpb&#45;&gt;d1 -->
<g id="edge13" class="edge">
<title>fpb&#45;&gt;d1</title>
<path fill="none" stroke="#ff0000" d="M188.3954,-815.2255C180.3301,-802.4677 169.0992,-784.7024 159.9516,-770.2325"/>
<polygon fill="#ff0000" stroke="#ff0000" points="162.874,-768.3053 154.572,-761.723 156.9572,-772.0458 162.874,-768.3053"/>
<text text-anchor="middle" x="178.5" y="-784.8" font-family="Times,serif" font-size="14.00" fill="#000000">1</text>
</g>
<!-- x2i_o1 -->
<g id="node12" class="node">
<title>x2i_o1</title>
<ellipse fill="none" stroke="#000000" cx="271" cy="-745" rx="27" ry="18"/>
<text text-anchor="middle" x="271" y="-741.3" font-family="Times,serif" font-size="14.00" fill="#000000">PiL</text>
</g>
<!-- x2_o1&#45;&gt;x2i_o1 -->
<g id="edge10" class="edge">
<title>x2_o1&#45;&gt;x2i_o1</title>
<path fill="none" stroke="#0000ff" d="M271,-813.9735C271,-802.1918 271,-786.5607 271,-773.1581"/>
<polygon fill="#0000ff" stroke="#0000ff" points="274.5001,-773.0033 271,-763.0034 267.5001,-773.0034 274.5001,-773.0033"/>
</g>
<!-- x2i_o1&#45;&gt;ret -->
<g id="edge12" class="edge">
<title>x2i_o1&#45;&gt;ret</title>
<path fill="none" stroke="#0000ff" d="M277.778,-727.3287C281.0453,-718.8103 285.0354,-708.4078 288.6702,-698.9312"/>
<polygon fill="#0000ff" stroke="#0000ff" points="291.971,-700.0987 292.2844,-689.5085 285.4353,-697.5918 291.971,-700.0987"/>
</g>
<!-- x2i_o1&#45;&gt;x1_o1 -->
<g id="edge11" class="edge">
<title>x2i_o1&#45;&gt;x1_o1</title>
<path fill="none" stroke="#ff0000" d="M260.1081,-728.4352C254.0323,-719.195 246.3399,-707.496 239.5361,-697.1487"/>
<polygon fill="#ff0000" stroke="#ff0000" points="242.2674,-694.9319 233.8488,-688.4993 236.4185,-698.7778 242.2674,-694.9319"/>
</g>
<!-- hi_ret -->
<g id="node19" class="node">
<title>hi_ret</title>
<ellipse fill="none" stroke="#000000" cx="27" cy="-251" rx="27" ry="18"/>
<text text-anchor="middle" x="27" y="-247.3" font-family="Times,serif" font-size="14.00" fill="#000000">I</text>
</g>
<!-- hi_retp&#45;&gt;hi_ret -->
<g id="edge24" class="edge">
<title>hi_retp&#45;&gt;hi_ret</title>
<path fill="none" stroke="#ff0000" d="M71.0649,-495.4772C62.7029,-481.9598 51.6751,-462.034 46,-443 29.2317,-386.7596 26.5162,-317.5684 26.4723,-279.4961"/>
<polygon fill="#ff0000" stroke="#ff0000" points="29.9738,-279.1918 26.5265,-269.1735 22.9739,-279.155 29.9738,-279.1918"/>
<text text-anchor="middle" x="37.5" y="-377.8" font-family="Times,serif" font-size="14.00" fill="#000000">2</text>
</g>
<!-- h_di -->
<g id="node20" class="node">
<title>h_di</title>
<ellipse fill="none" stroke="#000000" cx="82" cy="-425" rx="27" ry="18"/>
<text text-anchor="middle" x="82" y="-421.3" font-family="Times,serif" font-size="14.00" fill="#000000">!d</text>
</g>
<!-- hi_retp&#45;&gt;h_di -->
<g id="edge25" class="edge">
<title>hi_retp&#45;&gt;h_di</title>
<path fill="none" stroke="#0000ff" d="M82,-493.9735C82,-482.1918 82,-466.5607 82,-453.1581"/>
<polygon fill="#0000ff" stroke="#0000ff" points="85.5001,-453.0033 82,-443.0034 78.5001,-453.0034 85.5001,-453.0033"/>
<text text-anchor="middle" x="85.5" y="-464.8" font-family="Times,serif" font-size="14.00" fill="#000000">1</text>
</g>
<!-- x1_o2 -->
<g id="node16" class="node">
<title>x1_o2</title>
<ellipse fill="none" stroke="#000000" cx="173" cy="-251" rx="27" ry="18"/>
<text text-anchor="middle" x="173" y="-247.3" font-family="Times,serif" font-size="14.00" fill="#000000">I</text>
</g>
<!-- x_o2&#45;&gt;x1_o2 -->
<g id="edge19" class="edge">
<title>x_o2&#45;&gt;x1_o2</title>
<path fill="none" stroke="#0000ff" d="M152.8045,-493.9055C150.8537,-459.7481 147.9575,-383.4962 156,-320 157.7562,-306.1348 161.2869,-291.0295 164.6778,-278.4966"/>
<polygon fill="#0000ff" stroke="#0000ff" points="168.1068,-279.2322 167.4513,-268.6576 161.3694,-277.3329 168.1068,-279.2322"/>
</g>
<!-- x2_o2 -->
<g id="node17" class="node">
<title>x2_o2</title>
<ellipse fill="none" stroke="#000000" cx="192" cy="-425" rx="27" ry="18"/>
<text text-anchor="middle" x="192" y="-421.3" font-family="Times,serif" font-size="14.00" fill="#000000">!d</text>
</g>
<!-- x_o2&#45;&gt;x2_o2 -->
<g id="edge20" class="edge">
<title>x_o2&#45;&gt;x2_o2</title>
<path fill="none" stroke="#0000ff" d="M161.6899,-494.3943C167.0299,-482.1683 174.2441,-465.6517 180.2946,-451.7992"/>
<polygon fill="#0000ff" stroke="#0000ff" points="183.6559,-452.8476 184.4513,-442.2827 177.2411,-450.0457 183.6559,-452.8476"/>
</g>
<!-- x2i_o2 -->
<g id="node18" class="node">
<title>x2i_o2</title>
<ellipse fill="none" stroke="#000000" cx="192" cy="-338" rx="27" ry="18"/>
<text text-anchor="middle" x="192" y="-334.3" font-family="Times,serif" font-size="14.00" fill="#000000">PiL</text>
</g>
<!-- x2_o2&#45;&gt;x2i_o2 -->
<g id="edge21" class="edge">
<title>x2_o2&#45;&gt;x2i_o2</title>
<path fill="none" stroke="#0000ff" d="M192,-406.9735C192,-395.1918 192,-379.5607 192,-366.1581"/>
<polygon fill="#0000ff" stroke="#0000ff" points="195.5001,-366.0033 192,-356.0034 188.5001,-366.0034 195.5001,-366.0033"/>
</g>
<!-- x2i_o2&#45;&gt;f_ret -->
<g id="edge23" class="edge">
<title>x2i_o2&#45;&gt;f_ret</title>
<path fill="none" stroke="#0000ff" d="M202.4117,-321.2255C210.3304,-308.4677 221.3571,-290.7024 230.3385,-276.2325"/>
<polygon fill="#0000ff" stroke="#0000ff" points="233.3203,-278.0652 235.6202,-267.723 227.3728,-274.3736 233.3203,-278.0652"/>
</g>
<!-- x2i_o2&#45;&gt;x1_o2 -->
<g id="edge22" class="edge">
<title>x2i_o2&#45;&gt;x1_o2</title>
<path fill="none" stroke="#ff0000" d="M188.0632,-319.9735C185.4902,-308.1918 182.0765,-292.5607 179.1495,-279.1581"/>
<polygon fill="#ff0000" stroke="#ff0000" points="182.4849,-278.0263 176.9318,-269.0034 175.6461,-279.5199 182.4849,-278.0263"/>
</g>
<!-- h -->
<g id="node21" class="node">
<title>h</title>
<ellipse fill="none" stroke="#000000" cx="82" cy="-338" rx="27" ry="18"/>
<text text-anchor="middle" x="82" y="-334.3" font-family="Times,serif" font-size="14.00" fill="#000000">PiL</text>
</g>
<!-- h_di&#45;&gt;h -->
<g id="edge26" class="edge">
<title>h_di&#45;&gt;h</title>
<path fill="none" stroke="#0000ff" d="M82,-406.9735C82,-395.1918 82,-379.5607 82,-366.1581"/>
<polygon fill="#0000ff" stroke="#0000ff" points="85.5001,-366.0033 82,-356.0034 78.5001,-366.0034 85.5001,-366.0033"/>
<text text-anchor="middle" x="85.5" y="-377.8" font-family="Times,serif" font-size="14.00" fill="#000000">2</text>
</g>
<!-- h&#45;&gt;hi_ret -->
<g id="edge32" class="edge">
<title>h&#45;&gt;hi_ret</title>
<path fill="none" stroke="#0000ff" d="M71.3954,-321.2255C63.3301,-308.4677 52.0992,-290.7024 42.9516,-276.2325"/>
<polygon fill="#0000ff" stroke="#0000ff" points="45.874,-274.3053 37.572,-267.723 39.9572,-278.0458 45.874,-274.3053"/>
</g>
<!-- i -->
<g id="node22" class="node">
<title>i</title>
<ellipse fill="none" stroke="#000000" cx="99" cy="-251" rx="27" ry="18"/>
<text text-anchor="middle" x="99" y="-247.3" font-family="Times,serif" font-size="14.00" fill="#000000">!p</text>
</g>
<!-- h&#45;&gt;i -->
<g id="edge31" class="edge">
<title>h&#45;&gt;i</title>
<path fill="none" stroke="#ff0000" d="M85.5224,-319.9735C87.8246,-308.1918 90.879,-292.5607 93.4978,-279.1581"/>
<polygon fill="#ff0000" stroke="#ff0000" points="96.9993,-279.489 95.4821,-269.0034 90.1292,-278.1465 96.9993,-279.489"/>
<text text-anchor="middle" x="95.5" y="-290.8" font-family="Times,serif" font-size="14.00" fill="#000000">2</text>
</g>
<!-- i_i -->
<g id="node23" class="node">
<title>i_i</title>
<ellipse fill="none" stroke="#000000" cx="99" cy="-164" rx="27" ry="18"/>
<text text-anchor="middle" x="99" y="-160.3" font-family="Times,serif" font-size="14.00" fill="#000000">PiR</text>
</g>
<!-- i&#45;&gt;i_i -->
<g id="edge27" class="edge">
<title>i&#45;&gt;i_i</title>
<path fill="none" stroke="#ff0000" d="M99,-232.9735C99,-221.1918 99,-205.5607 99,-192.1581"/>
<polygon fill="#ff0000" stroke="#ff0000" points="102.5001,-192.0033 99,-182.0034 95.5001,-192.0034 102.5001,-192.0033"/>
<text text-anchor="middle" x="102.5" y="-203.8" font-family="Times,serif" font-size="14.00" fill="#000000">3</text>
</g>
<!-- il -->
<g id="node24" class="node">
<title>il</title>
<ellipse fill="none" stroke="#000000" cx="142" cy="-91" rx="27" ry="18"/>
<text text-anchor="middle" x="142" y="-87.3" font-family="Times,serif" font-size="14.00" fill="#000000">!d</text>
</g>
<!-- i_i&#45;&gt;il -->
<g id="edge28" class="edge">
<title>i_i&#45;&gt;il</title>
<path fill="none" stroke="#0000ff" d="M108.9731,-147.0688C114.2918,-138.0396 120.9465,-126.742 126.8861,-116.6585"/>
<polygon fill="#0000ff" stroke="#0000ff" points="130.0212,-118.232 132.0809,-107.8393 123.9898,-114.6793 130.0212,-118.232"/>
</g>
<!-- i_ret -->
<g id="node25" class="node">
<title>i_ret</title>
<ellipse fill="none" stroke="#000000" cx="99" cy="-18" rx="27" ry="18"/>
<text text-anchor="middle" x="99" y="-14.3" font-family="Times,serif" font-size="14.00" fill="#000000">I</text>
</g>
<!-- i_i&#45;&gt;i_ret -->
<g id="edge29" class="edge">
<title>i_i&#45;&gt;i_ret</title>
<path fill="none" stroke="#ff0000" d="M99,-145.8042C99,-120.8868 99,-75.8938 99,-46.4877"/>
<polygon fill="#ff0000" stroke="#ff0000" points="102.5001,-46.4251 99,-36.4251 95.5001,-46.4251 102.5001,-46.4251"/>
</g>
<!-- il&#45;&gt;i_ret -->
<g id="edge30" class="edge">
<title>il&#45;&gt;i_ret</title>
<path fill="none" stroke="#0000ff" d="M132.0269,-74.0688C126.7082,-65.0396 120.0535,-53.742 114.1139,-43.6585"/>
<polygon fill="#0000ff" stroke="#0000ff" points="117.0102,-41.6793 108.9191,-34.8393 110.9788,-45.232 117.0102,-41.6793"/>
</g>
</g>
</svg>
