<?xml version="1.0" encoding="UTF-8" standalone="no"?>
<!DOCTYPE svg PUBLIC "-//W3C//DTD SVG 1.1//EN"
 "http://www.w3.org/Graphics/SVG/1.1/DTD/svg11.dtd">
<!-- Generated by graphviz version 2.43.0 (0)
 -->
<!-- Title: %3 Pages: 1 -->
<svg width="278pt" height="1398pt"
 viewBox="0.00 0.00 277.90 1397.79" xmlns="http://www.w3.org/2000/svg" xmlns:xlink="http://www.w3.org/1999/xlink">
<g id="graph0" class="graph" transform="scale(1 1) rotate(0) translate(4 1393.79)">
<title>%3</title>
<polygon fill="white" stroke="transparent" points="-4,4 -4,-1393.79 273.9,-1393.79 273.9,4 -4,4"/>
<!-- Root -->
<g id="node1" class="node">
<title>Root</title>
<ellipse fill="none" stroke="black" cx="157" cy="-1371.79" rx="32.49" ry="18"/>
<text text-anchor="middle" x="157" y="-1368.09" font-family="Times,serif" font-size="14.00">Root</text>
</g>
<!-- c1a -->
<g id="node2" class="node">
<title>c1a</title>
<ellipse fill="none" stroke="black" cx="55" cy="-1298.79" rx="27.1" ry="18"/>
<text text-anchor="middle" x="55" y="-1295.09" font-family="Times,serif" font-size="14.00">Cut</text>
</g>
<!-- Root&#45;&gt;c1a -->
<g id="edge1" class="edge">
<title>Root&#45;&gt;c1a</title>
<path fill="none" stroke="black" d="M137.33,-1357.11C121.56,-1346.12 99.25,-1330.6 81.84,-1318.48"/>
<polygon fill="black" stroke="black" points="83.44,-1315.33 73.24,-1312.49 79.44,-1321.07 83.44,-1315.33"/>
</g>
<!-- c1b -->
<g id="node3" class="node">
<title>c1b</title>
<ellipse fill="none" stroke="black" cx="157" cy="-1298.79" rx="27.1" ry="18"/>
<text text-anchor="middle" x="157" y="-1295.09" font-family="Times,serif" font-size="14.00">Cut</text>
</g>
<!-- Root&#45;&gt;c1b -->
<g id="edge2" class="edge">
<title>Root&#45;&gt;c1b</title>
<path fill="none" stroke="black" d="M157,-1353.61C157,-1345.58 157,-1335.84 157,-1326.86"/>
<polygon fill="black" stroke="black" points="160.5,-1326.82 157,-1316.82 153.5,-1326.82 160.5,-1326.82"/>
</g>
<!-- d1 -->
<g id="node4" class="node">
<title>d1</title>
<ellipse fill="none" stroke="black" cx="240" cy="-964.79" rx="29.8" ry="18"/>
<text text-anchor="middle" x="240" y="-961.09" font-family="Times,serif" font-size="14.00">Dup</text>
</g>
<!-- Root&#45;&gt;d1 -->
<g id="edge5" class="edge">
<title>Root&#45;&gt;d1</title>
<path fill="none" stroke="red" d="M181.31,-1359.61C202.54,-1347.97 230,-1327.55 230,-1299.79 230,-1299.79 230,-1299.79 230,-1036.79 230,-1022.16 232.11,-1005.99 234.39,-992.79"/>
<polygon fill="red" stroke="red" points="237.84,-993.39 236.22,-982.92 230.96,-992.11 237.84,-993.39"/>
<text text-anchor="middle" x="247.5" y="-1164.59" font-family="Times,serif" font-size="14.00">0&#45;&gt;1</text>
</g>
<!-- d2a -->
<g id="node5" class="node">
<title>d2a</title>
<ellipse fill="none" stroke="black" cx="50" cy="-875.9" rx="29.8" ry="18"/>
<text text-anchor="middle" x="50" y="-872.2" font-family="Times,serif" font-size="14.00">Dup</text>
</g>
<!-- c1a&#45;&gt;d2a -->
<g id="edge12" class="edge">
<title>c1a&#45;&gt;d2a</title>
<path fill="none" stroke="blue" d="M38.8,-1283.92C22.57,-1268.4 0,-1241.62 0,-1212.79 0,-1212.79 0,-1212.79 0,-963.79 0,-939.64 14.7,-916.13 28.16,-899.67"/>
<polygon fill="blue" stroke="blue" points="31.12,-901.6 35,-891.74 25.82,-897.02 31.12,-901.6"/>
<text text-anchor="middle" x="5" y="-1077.59" font-family="Times,serif" font-size="14.00">1</text>
</g>
<!-- fpa -->
<g id="node11" class="node">
<title>fpa</title>
<ellipse fill="none" stroke="black" cx="55" cy="-1211.79" rx="27" ry="18"/>
<text text-anchor="middle" x="55" y="-1208.09" font-family="Times,serif" font-size="14.00">!p</text>
</g>
<!-- c1a&#45;&gt;fpa -->
<g id="edge11" class="edge">
<title>c1a&#45;&gt;fpa</title>
<path fill="none" stroke="red" d="M55,-1280.59C55,-1268.96 55,-1253.34 55,-1240.03"/>
<polygon fill="red" stroke="red" points="58.5,-1239.97 55,-1229.97 51.5,-1239.97 58.5,-1239.97"/>
<text text-anchor="middle" x="60" y="-1251.59" font-family="Times,serif" font-size="14.00">0</text>
</g>
<!-- d2b -->
<g id="node6" class="node">
<title>d2b</title>
<ellipse fill="none" stroke="black" cx="159" cy="-875.9" rx="29.81" ry="29.81"/>
<ellipse fill="none" stroke="black" cx="159" cy="-875.9" rx="33.8" ry="33.8"/>
<text text-anchor="middle" x="159" y="-872.2" font-family="Times,serif" font-size="14.00">Dup</text>
</g>
<!-- c1b&#45;&gt;d2b -->
<g id="edge14" class="edge">
<title>c1b&#45;&gt;d2b</title>
<path fill="none" stroke="blue" d="M164.91,-1281.28C172.23,-1264.46 182,-1237.41 182,-1212.79 182,-1212.79 182,-1212.79 182,-963.79 182,-948.33 178.55,-931.81 174.33,-917.37"/>
<polygon fill="blue" stroke="blue" points="177.64,-916.24 171.31,-907.75 170.96,-918.34 177.64,-916.24"/>
<text text-anchor="middle" x="187" y="-1077.59" font-family="Times,serif" font-size="14.00">1</text>
</g>
<!-- fpb -->
<g id="node12" class="node">
<title>fpb</title>
<ellipse fill="none" stroke="black" cx="127" cy="-1211.79" rx="27" ry="18"/>
<text text-anchor="middle" x="127" y="-1208.09" font-family="Times,serif" font-size="14.00">!p</text>
</g>
<!-- c1b&#45;&gt;fpb -->
<g id="edge13" class="edge">
<title>c1b&#45;&gt;fpb</title>
<path fill="none" stroke="red" d="M151.07,-1281C146.88,-1269.13 141.18,-1252.96 136.37,-1239.35"/>
<polygon fill="red" stroke="red" points="139.54,-1237.82 132.91,-1229.55 132.94,-1240.15 139.54,-1237.82"/>
<text text-anchor="middle" x="149" y="-1251.59" font-family="Times,serif" font-size="14.00">0</text>
</g>
<!-- d1&#45;&gt;d2a -->
<g id="edge3" class="edge">
<title>d1&#45;&gt;d2a</title>
<path fill="none" stroke="black" stroke-dasharray="5,2" d="M216.06,-953.8C190.97,-943.23 150.47,-925.88 116,-909.79 101.27,-902.92 84.91,-894.77 72.16,-888.3"/>
</g>
<!-- d1&#45;&gt;d2b -->
<g id="edge4" class="edge">
<title>d1&#45;&gt;d2b</title>
<path fill="none" stroke="black" stroke-dasharray="5,2" d="M225.89,-948.66C213.74,-935.63 195.99,-916.58 181.82,-901.38"/>
</g>
<!-- f_ret -->
<g id="node7" class="node">
<title>f_ret</title>
<ellipse fill="none" stroke="black" cx="240" cy="-512" rx="27" ry="18"/>
<text text-anchor="middle" x="240" y="-508.3" font-family="Times,serif" font-size="14.00">I</text>
</g>
<!-- d1&#45;&gt;f_ret -->
<g id="edge6" class="edge">
<title>d1&#45;&gt;f_ret</title>
<path fill="none" stroke="red" d="M240,-946.48C240,-928.95 240,-901.04 240,-876.9 240,-876.9 240,-876.9 240,-598 240,-578.75 240,-557.05 240,-540.4"/>
<polygon fill="red" stroke="red" points="243.5,-540.26 240,-530.26 236.5,-540.26 243.5,-540.26"/>
</g>
<!-- hi_retpa -->
<g id="node8" class="node">
<title>hi_retpa</title>
<ellipse fill="none" stroke="black" cx="79" cy="-512" rx="27" ry="18"/>
<text text-anchor="middle" x="79" y="-508.3" font-family="Times,serif" font-size="14.00">!p</text>
</g>
<!-- d2a&#45;&gt;hi_retpa -->
<g id="edge7" class="edge">
<title>d2a&#45;&gt;hi_retpa</title>
<path fill="none" stroke="blue" d="M50,-857.76C50,-837.68 50,-803.43 50,-774 50,-774 50,-774 50,-598 50,-577.02 58.02,-554.6 65.62,-538.06"/>
<polygon fill="blue" stroke="blue" points="68.77,-539.58 69.98,-529.06 62.47,-536.53 68.77,-539.58"/>
<text text-anchor="middle" x="55" y="-682.3" font-family="Times,serif" font-size="14.00">1</text>
</g>
<!-- h_dib -->
<g id="node9" class="node">
<title>h_dib</title>
<ellipse fill="none" stroke="black" cx="159" cy="-773" rx="27" ry="18"/>
<text text-anchor="middle" x="159" y="-769.3" font-family="Times,serif" font-size="14.00">!d</text>
</g>
<!-- d2b&#45;&gt;h_dib -->
<g id="edge8" class="edge">
<title>d2b&#45;&gt;h_dib</title>
<path fill="none" stroke="blue" d="M159,-841.86C159,-828.79 159,-813.95 159,-801.48"/>
<polygon fill="blue" stroke="blue" points="162.5,-801.24 159,-791.24 155.5,-801.24 162.5,-801.24"/>
<text text-anchor="middle" x="164" y="-812.8" font-family="Times,serif" font-size="14.00">1</text>
</g>
<!-- hi_reta -->
<g id="node16" class="node">
<title>hi_reta</title>
<ellipse fill="none" stroke="black" cx="100" cy="-251" rx="27" ry="18"/>
<text text-anchor="middle" x="100" y="-247.3" font-family="Times,serif" font-size="14.00">I</text>
</g>
<!-- hi_retpa&#45;&gt;hi_reta -->
<g id="edge22" class="edge">
<title>hi_retpa&#45;&gt;hi_reta</title>
<path fill="none" stroke="red" d="M80.38,-494.01C83.94,-450.1 93.46,-332.6 97.8,-279.15"/>
<polygon fill="red" stroke="red" points="101.3,-279.31 98.62,-269.06 94.32,-278.74 101.3,-279.31"/>
<text text-anchor="middle" x="95" y="-377.8" font-family="Times,serif" font-size="14.00">2</text>
</g>
<!-- h_dia -->
<g id="node17" class="node">
<title>h_dia</title>
<ellipse fill="none" stroke="black" cx="45" cy="-425" rx="27" ry="18"/>
<text text-anchor="middle" x="45" y="-421.3" font-family="Times,serif" font-size="14.00">!d</text>
</g>
<!-- hi_retpa&#45;&gt;h_dia -->
<g id="edge23" class="edge">
<title>hi_retpa&#45;&gt;h_dia</title>
<path fill="none" stroke="blue" d="M72.28,-494.21C67.22,-481.55 60.21,-464.03 54.56,-449.91"/>
<ellipse fill="none" stroke="blue" cx="53.07" cy="-446.18" rx="4" ry="4"/>
<text text-anchor="middle" x="70" y="-464.8" font-family="Times,serif" font-size="14.00">1</text>
</g>
<!-- hb -->
<g id="node19" class="node">
<title>hb</title>
<ellipse fill="none" stroke="black" cx="159" cy="-686" rx="27" ry="18"/>
<text text-anchor="middle" x="159" y="-682.3" font-family="Times,serif" font-size="14.00">PiL</text>
</g>
<!-- h_dib&#45;&gt;hb -->
<g id="edge25" class="edge">
<title>h_dib&#45;&gt;hb</title>
<path fill="none" stroke="blue" d="M159,-754.8C159,-743.16 159,-727.55 159,-714.24"/>
<polygon fill="blue" stroke="blue" points="162.5,-714.18 159,-704.18 155.5,-714.18 162.5,-714.18"/>
<text text-anchor="middle" x="164" y="-725.8" font-family="Times,serif" font-size="14.00">2</text>
</g>
<!-- hi_retpc1 -->
<g id="node10" class="node">
<title>hi_retpc1</title>
<ellipse fill="none" stroke="black" cx="126" cy="-964.79" rx="27" ry="18"/>
<text text-anchor="middle" x="126" y="-961.09" font-family="Times,serif" font-size="14.00">!c</text>
</g>
<!-- hi_retpc1&#45;&gt;d2a -->
<g id="edge9" class="edge">
<title>hi_retpc1&#45;&gt;d2a</title>
<path fill="none" stroke="blue" d="M112.76,-948.66C100.63,-934.79 82.54,-914.1 68.89,-898.49"/>
<ellipse fill="none" stroke="blue" cx="65.97" cy="-895.16" rx="4" ry="4"/>
</g>
<!-- hi_retpc1&#45;&gt;d2b -->
<g id="edge10" class="edge">
<title>hi_retpc1&#45;&gt;d2b</title>
<path fill="none" stroke="blue" d="M132.36,-947.04C135.77,-938.06 140.12,-926.61 144.32,-915.57"/>
<ellipse fill="none" stroke="blue" cx="145.76" cy="-911.76" rx="4" ry="4"/>
</g>
<!-- d5 -->
<g id="node13" class="node">
<title>d5</title>
<ellipse fill="none" stroke="black" cx="124" cy="-1124.79" rx="29.8" ry="18"/>
<text text-anchor="middle" x="124" y="-1121.09" font-family="Times,serif" font-size="14.00">Dup</text>
</g>
<!-- fpa&#45;&gt;d5 -->
<g id="edge15" class="edge">
<title>fpa&#45;&gt;d5</title>
<path fill="none" stroke="red" d="M67.34,-1195.6C77.71,-1182.82 92.71,-1164.34 104.67,-1149.61"/>
<polygon fill="red" stroke="red" points="107.72,-1151.4 111.3,-1141.43 102.28,-1146.99 107.72,-1151.4"/>
<text text-anchor="middle" x="99" y="-1164.59" font-family="Times,serif" font-size="14.00">1</text>
</g>
<!-- fpb&#45;&gt;d5 -->
<g id="edge16" class="edge">
<title>fpb&#45;&gt;d5</title>
<path fill="none" stroke="red" d="M126.39,-1193.59C125.98,-1181.96 125.43,-1166.34 124.96,-1153.03"/>
<polygon fill="red" stroke="red" points="128.46,-1152.84 124.61,-1142.97 121.46,-1153.09 128.46,-1152.84"/>
<text text-anchor="middle" x="131" y="-1164.59" font-family="Times,serif" font-size="14.00">1</text>
</g>
<!-- fa -->
<g id="node14" class="node">
<title>fa</title>
<ellipse fill="none" stroke="black" cx="126" cy="-1037.79" rx="27" ry="18"/>
<text text-anchor="middle" x="126" y="-1034.09" font-family="Times,serif" font-size="14.00">PiR</text>
</g>
<!-- d5&#45;&gt;fa -->
<g id="edge17" class="edge">
<title>d5&#45;&gt;fa</title>
<path fill="none" stroke="red" d="M124.4,-1106.59C124.68,-1094.96 125.05,-1079.34 125.36,-1066.03"/>
<polygon fill="red" stroke="red" points="128.86,-1066.05 125.6,-1055.97 121.86,-1065.89 128.86,-1066.05"/>
</g>
<!-- fa&#45;&gt;d1 -->
<g id="edge19" class="edge">
<title>fa&#45;&gt;d1</title>
<path fill="none" stroke="red" d="M145.08,-1024.91C163.57,-1013.4 191.79,-995.82 212.66,-982.83"/>
<ellipse fill="none" stroke="red" cx="216.31" cy="-980.55" rx="4" ry="4"/>
</g>
<!-- fa&#45;&gt;hi_retpc1 -->
<g id="edge18" class="edge">
<title>fa&#45;&gt;hi_retpc1</title>
<path fill="none" stroke="blue" d="M126,-1019.61C126,-1011.58 126,-1001.84 126,-992.86"/>
<polygon fill="blue" stroke="blue" points="129.5,-992.82 126,-982.82 122.5,-992.82 129.5,-992.82"/>
</g>
<!-- x2i_o2 -->
<g id="node15" class="node">
<title>x2i_o2</title>
<ellipse fill="none" stroke="black" cx="105" cy="-599" rx="27" ry="18"/>
<text text-anchor="middle" x="105" y="-595.3" font-family="Times,serif" font-size="14.00">PiL</text>
</g>
<!-- x2i_o2&#45;&gt;f_ret -->
<g id="edge21" class="edge">
<title>x2i_o2&#45;&gt;f_ret</title>
<path fill="none" stroke="blue" d="M120.6,-584.03C132.93,-573.39 150.86,-558.78 168,-548 171.96,-545.51 191.64,-535.97 209.43,-527.48"/>
<polygon fill="blue" stroke="blue" points="210.94,-530.63 218.47,-523.17 207.93,-524.31 210.94,-530.63"/>
</g>
<!-- x2i_o2&#45;&gt;hi_retpa -->
<g id="edge20" class="edge">
<title>x2i_o2&#45;&gt;hi_retpa</title>
<path fill="none" stroke="red" d="M99.86,-581.21C96.23,-569.33 91.29,-553.17 87.12,-539.56"/>
<polygon fill="red" stroke="red" points="90.4,-538.3 84.13,-529.76 83.7,-540.34 90.4,-538.3"/>
<text text-anchor="middle" x="99" y="-551.8" font-family="Times,serif" font-size="14.00">1</text>
</g>
<!-- ha -->
<g id="node18" class="node">
<title>ha</title>
<ellipse fill="none" stroke="black" cx="45" cy="-338" rx="27" ry="18"/>
<text text-anchor="middle" x="45" y="-334.3" font-family="Times,serif" font-size="14.00">PiL</text>
</g>
<!-- h_dia&#45;&gt;ha -->
<g id="edge24" class="edge">
<title>h_dia&#45;&gt;ha</title>
<path fill="none" stroke="blue" d="M45,-406.8C45,-395.16 45,-379.55 45,-366.24"/>
<polygon fill="blue" stroke="blue" points="48.5,-366.18 45,-356.18 41.5,-366.18 48.5,-366.18"/>
<text text-anchor="middle" x="50" y="-377.8" font-family="Times,serif" font-size="14.00">2</text>
</g>
<!-- ha&#45;&gt;hi_reta -->
<g id="edge27" class="edge">
<title>ha&#45;&gt;hi_reta</title>
<path fill="none" stroke="blue" d="M55.35,-321.01C63.49,-308.43 74.97,-290.68 84.26,-276.33"/>
<polygon fill="blue" stroke="blue" points="87.21,-278.21 89.7,-267.92 81.33,-274.41 87.21,-278.21"/>
</g>
<!-- i1 -->
<g id="node20" class="node">
<title>i1</title>
<ellipse fill="none" stroke="black" cx="28" cy="-251" rx="27" ry="18"/>
<text text-anchor="middle" x="28" y="-247.3" font-family="Times,serif" font-size="14.00">!p</text>
</g>
<!-- ha&#45;&gt;i1 -->
<g id="edge26" class="edge">
<title>ha&#45;&gt;i1</title>
<path fill="none" stroke="red" d="M41.56,-319.8C39.22,-308.09 36.07,-292.34 33.39,-278.97"/>
<polygon fill="red" stroke="red" points="36.77,-278 31.38,-268.89 29.91,-279.38 36.77,-278"/>
<text text-anchor="middle" x="43" y="-290.8" font-family="Times,serif" font-size="14.00">2</text>
</g>
<!-- hb&#45;&gt;x2i_o2 -->
<g id="edge29" class="edge">
<title>hb&#45;&gt;x2i_o2</title>
<path fill="none" stroke="blue" d="M144.39,-670.46C138.82,-664.45 132.7,-657.21 128,-650 123.18,-642.6 118.84,-634.03 115.26,-626.1"/>
<polygon fill="blue" stroke="blue" points="118.46,-624.66 111.3,-616.85 112.02,-627.42 118.46,-624.66"/>
<text text-anchor="middle" x="145.5" y="-638.8" font-family="Times,serif" font-size="14.00">2&#45;&gt;1</text>
</g>
<!-- i2 -->
<g id="node21" class="node">
<title>i2</title>
<ellipse fill="none" stroke="black" cx="177" cy="-599" rx="27" ry="18"/>
<text text-anchor="middle" x="177" y="-595.3" font-family="Times,serif" font-size="14.00">!p</text>
</g>
<!-- hb&#45;&gt;i2 -->
<g id="edge28" class="edge">
<title>hb&#45;&gt;i2</title>
<path fill="none" stroke="red" d="M162.64,-667.8C165.12,-656.09 168.46,-640.34 171.29,-626.97"/>
<polygon fill="red" stroke="red" points="174.78,-627.39 173.42,-616.89 167.93,-625.94 174.78,-627.39"/>
<text text-anchor="middle" x="175" y="-638.8" font-family="Times,serif" font-size="14.00">2</text>
</g>
<!-- i_i1 -->
<g id="node22" class="node">
<title>i_i1</title>
<ellipse fill="none" stroke="black" cx="28" cy="-164" rx="27" ry="18"/>
<text text-anchor="middle" x="28" y="-160.3" font-family="Times,serif" font-size="14.00">PiR</text>
</g>
<!-- i1&#45;&gt;i_i1 -->
<g id="edge30" class="edge">
<title>i1&#45;&gt;i_i1</title>
<path fill="none" stroke="red" d="M28,-232.8C28,-221.16 28,-205.55 28,-192.24"/>
<polygon fill="red" stroke="red" points="31.5,-192.18 28,-182.18 24.5,-192.18 31.5,-192.18"/>
<text text-anchor="middle" x="33" y="-203.8" font-family="Times,serif" font-size="14.00">3</text>
</g>
<!-- i_i2 -->
<g id="node25" class="node">
<title>i_i2</title>
<ellipse fill="none" stroke="black" cx="168" cy="-512" rx="27" ry="18"/>
<text text-anchor="middle" x="168" y="-508.3" font-family="Times,serif" font-size="14.00">PiR</text>
</g>
<!-- i2&#45;&gt;i_i2 -->
<g id="edge34" class="edge">
<title>i2&#45;&gt;i_i2</title>
<path fill="none" stroke="red" d="M175.18,-580.8C173.95,-569.16 172.29,-553.55 170.88,-540.24"/>
<polygon fill="red" stroke="red" points="174.35,-539.75 169.82,-530.18 167.39,-540.49 174.35,-539.75"/>
<text text-anchor="middle" x="179" y="-551.8" font-family="Times,serif" font-size="14.00">3</text>
</g>
<!-- il1 -->
<g id="node23" class="node">
<title>il1</title>
<ellipse fill="none" stroke="black" cx="71" cy="-91" rx="27" ry="18"/>
<text text-anchor="middle" x="71" y="-87.3" font-family="Times,serif" font-size="14.00">!d</text>
</g>
<!-- i_i1&#45;&gt;il1 -->
<g id="edge31" class="edge">
<title>i_i1&#45;&gt;il1</title>
<path fill="none" stroke="blue" d="M37.76,-146.89C43.15,-137.99 49.95,-126.75 56,-116.77"/>
<polygon fill="blue" stroke="blue" points="59.09,-118.41 61.28,-108.05 53.11,-114.79 59.09,-118.41"/>
</g>
<!-- i_ret1 -->
<g id="node24" class="node">
<title>i_ret1</title>
<ellipse fill="none" stroke="black" cx="28" cy="-18" rx="27" ry="18"/>
<text text-anchor="middle" x="28" y="-14.3" font-family="Times,serif" font-size="14.00">I</text>
</g>
<!-- i_i1&#45;&gt;i_ret1 -->
<g id="edge32" class="edge">
<title>i_i1&#45;&gt;i_ret1</title>
<path fill="none" stroke="red" d="M28,-145.92C28,-121.34 28,-75.75 28,-46.43"/>
<polygon fill="red" stroke="red" points="31.5,-46.06 28,-36.06 24.5,-46.06 31.5,-46.06"/>
</g>
<!-- il1&#45;&gt;i_ret1 -->
<g id="edge33" class="edge">
<title>il1&#45;&gt;i_ret1</title>
<path fill="none" stroke="blue" d="M61.24,-73.89C55.85,-64.99 49.05,-53.75 43,-43.77"/>
<polygon fill="blue" stroke="blue" points="45.89,-41.79 37.72,-35.05 39.91,-45.41 45.89,-41.79"/>
</g>
<!-- il2 -->
<g id="node26" class="node">
<title>il2</title>
<ellipse fill="none" stroke="black" cx="201" cy="-425" rx="27" ry="18"/>
<text text-anchor="middle" x="201" y="-421.3" font-family="Times,serif" font-size="14.00">!d</text>
</g>
<!-- i_i2&#45;&gt;il2 -->
<g id="edge35" class="edge">
<title>i_i2&#45;&gt;il2</title>
<path fill="none" stroke="blue" d="M174.52,-494.21C179.18,-482.22 185.53,-465.85 190.84,-452.16"/>
<polygon fill="blue" stroke="blue" points="194.14,-453.35 194.49,-442.76 187.61,-450.81 194.14,-453.35"/>
</g>
<!-- i_ret2 -->
<g id="node27" class="node">
<title>i_ret2</title>
<ellipse fill="none" stroke="black" cx="159" cy="-338" rx="27" ry="18"/>
<text text-anchor="middle" x="159" y="-334.3" font-family="Times,serif" font-size="14.00">I</text>
</g>
<!-- i_i2&#45;&gt;i_ret2 -->
<g id="edge36" class="edge">
<title>i_i2&#45;&gt;i_ret2</title>
<path fill="none" stroke="red" d="M167.1,-493.88C165.54,-464 162.3,-402.11 160.43,-366.27"/>
<polygon fill="red" stroke="red" points="163.91,-365.86 159.89,-356.05 156.92,-366.22 163.91,-365.86"/>
</g>
<!-- il2&#45;&gt;i_ret2 -->
<g id="edge37" class="edge">
<title>il2&#45;&gt;i_ret2</title>
<path fill="none" stroke="blue" d="M192.9,-407.61C186.86,-395.38 178.49,-378.44 171.58,-364.46"/>
<polygon fill="blue" stroke="blue" points="174.64,-362.75 167.07,-355.34 168.37,-365.85 174.64,-362.75"/>
</g>
</g>
</svg>
