<?xml version="1.0" encoding="UTF-8" standalone="no"?>
<!DOCTYPE svg PUBLIC "-//W3C//DTD SVG 1.1//EN"
 "http://www.w3.org/Graphics/SVG/1.1/DTD/svg11.dtd">
<!-- Generated by graphviz version 2.40.1 (20161225.0304)
 -->
<!-- Title: %3 Pages: 1 -->
<svg width="427pt" height="548pt"
 viewBox="0.00 0.00 427.00 548.00" xmlns="http://www.w3.org/2000/svg" xmlns:xlink="http://www.w3.org/1999/xlink">
<g id="graph0" class="graph" transform="scale(1 1) rotate(0) translate(4 544)">
<title>%3</title>
<polygon fill="#ffffff" stroke="transparent" points="-4,4 -4,-544 423,-544 423,4 -4,4"/>
<!-- Root -->
<g id="node1" class="node">
<title>Root</title>
<ellipse fill="none" stroke="#000000" cx="254" cy="-378" rx="32.4942" ry="18"/>
<text text-anchor="middle" x="254" y="-374.3" font-family="Times,serif" font-size="14.00" fill="#000000">Root</text>
</g>
<!-- ret -->
<g id="node2" class="node">
<title>ret</title>
<ellipse fill="none" stroke="#000000" cx="182" cy="-90" rx="27" ry="18"/>
<text text-anchor="middle" x="182" y="-86.3" font-family="Times,serif" font-size="14.00" fill="#000000">I</text>
</g>
<!-- Root&#45;&gt;ret -->
<g id="edge1" class="edge">
<title>Root&#45;&gt;ret</title>
<path fill="none" stroke="#ff0000" d="M256.533,-359.951C261.4164,-319.2612 268.8737,-218.1462 235,-144 228.9973,-130.8607 218.3718,-119.0453 208.2028,-109.841"/>
<polygon fill="#ff0000" stroke="#ff0000" points="210.4724,-107.1767 200.5995,-103.3327 205.9204,-112.4945 210.4724,-107.1767"/>
</g>
<!-- y -->
<g id="node16" class="node">
<title>y</title>
<ellipse fill="none" stroke="#000000" cx="320" cy="-306" rx="27" ry="18"/>
<text text-anchor="middle" x="320" y="-302.3" font-family="Times,serif" font-size="14.00" fill="#000000">PiL</text>
</g>
<!-- Root&#45;&gt;y -->
<g id="edge21" class="edge">
<title>Root&#45;&gt;y</title>
<path fill="none" stroke="#ff0000" d="M275.7739,-354.2466C285.5509,-343.5808 296.8204,-331.2868 305.5364,-321.7784"/>
<polygon fill="#ff0000" stroke="#ff0000" points="273.1537,-351.9255 268.9764,-361.6621 278.3137,-356.6556 273.1537,-351.9255"/>
</g>
<!-- c2 -->
<g id="node3" class="node">
<title>c2</title>
<ellipse fill="none" stroke="#000000" cx="196" cy="-522" rx="27.8951" ry="18"/>
<text text-anchor="middle" x="196" y="-518.3" font-family="Times,serif" font-size="14.00" fill="#000000">Cut</text>
</g>
<!-- x_f2 -->
<g id="node4" class="node">
<title>x_f2</title>
<ellipse fill="none" stroke="#000000" cx="160" cy="-450" rx="27" ry="18"/>
<text text-anchor="middle" x="160" y="-446.3" font-family="Times,serif" font-size="14.00" fill="#000000">!c</text>
</g>
<!-- c2&#45;&gt;x_f2 -->
<g id="edge2" class="edge">
<title>c2&#45;&gt;x_f2</title>
<path fill="none" stroke="#0000ff" d="M187.2854,-504.5708C183.0403,-496.0807 177.8464,-485.6929 173.1337,-476.2674"/>
<polygon fill="#0000ff" stroke="#0000ff" points="176.237,-474.6477 168.6343,-467.2687 169.976,-477.7782 176.237,-474.6477"/>
</g>
<!-- g2 -->
<g id="node5" class="node">
<title>g2</title>
<ellipse fill="none" stroke="#000000" cx="273" cy="-450" rx="27" ry="18"/>
<text text-anchor="middle" x="273" y="-446.3" font-family="Times,serif" font-size="14.00" fill="#000000">!</text>
</g>
<!-- c2&#45;&gt;g2 -->
<g id="edge3" class="edge">
<title>c2&#45;&gt;g2</title>
<path fill="none" stroke="#ff0000" d="M211.9544,-507.0816C222.795,-496.945 237.3176,-483.3654 249.4782,-471.9944"/>
<polygon fill="#ff0000" stroke="#ff0000" points="252.1522,-474.2858 257.066,-464.8993 247.3712,-469.1728 252.1522,-474.2858"/>
</g>
<!-- x1_f2 -->
<g id="node6" class="node">
<title>x1_f2</title>
<ellipse fill="none" stroke="#000000" cx="160" cy="-378" rx="27" ry="18"/>
<text text-anchor="middle" x="160" y="-374.3" font-family="Times,serif" font-size="14.00" fill="#000000">!d</text>
</g>
<!-- x_f2&#45;&gt;x1_f2 -->
<g id="edge4" class="edge">
<title>x_f2&#45;&gt;x1_f2</title>
<path fill="none" stroke="#0000ff" d="M160,-431.8314C160,-424.131 160,-414.9743 160,-406.4166"/>
<polygon fill="#0000ff" stroke="#0000ff" points="163.5001,-406.4132 160,-396.4133 156.5001,-406.4133 163.5001,-406.4132"/>
</g>
<!-- x23_f2 -->
<g id="node7" class="node">
<title>x23_f2</title>
<ellipse fill="none" stroke="#000000" cx="55" cy="-234" rx="27" ry="18"/>
<text text-anchor="middle" x="55" y="-230.3" font-family="Times,serif" font-size="14.00" fill="#000000">!c</text>
</g>
<!-- x_f2&#45;&gt;x23_f2 -->
<g id="edge5" class="edge">
<title>x_f2&#45;&gt;x23_f2</title>
<path fill="none" stroke="#0000ff" d="M147.8193,-433.4754C140.4198,-423.0334 131.0694,-409.0854 124,-396 99.3504,-350.3739 77.0703,-294.08 64.8434,-261.2917"/>
<polygon fill="#0000ff" stroke="#0000ff" points="67.9816,-259.6858 61.2366,-251.5154 61.4143,-262.1087 67.9816,-259.6858"/>
</g>
<!-- g2s -->
<g id="node15" class="node">
<title>g2s</title>
<ellipse fill="none" stroke="#000000" cx="331" cy="-378" rx="27" ry="18"/>
<text text-anchor="middle" x="331" y="-374.3" font-family="Times,serif" font-size="14.00" fill="#000000">PiR</text>
</g>
<!-- g2&#45;&gt;g2s -->
<g id="edge17" class="edge">
<title>g2&#45;&gt;g2s</title>
<path fill="none" stroke="#ff0000" d="M285.8721,-434.0209C293.4562,-424.6061 303.1982,-412.5126 311.6884,-401.973"/>
<polygon fill="#ff0000" stroke="#ff0000" points="314.6162,-403.9177 318.1639,-393.9345 309.1649,-399.5264 314.6162,-403.9177"/>
</g>
<!-- x1i_f2 -->
<g id="node12" class="node">
<title>x1i_f2</title>
<ellipse fill="none" stroke="#000000" cx="160" cy="-306" rx="27" ry="18"/>
<text text-anchor="middle" x="160" y="-302.3" font-family="Times,serif" font-size="14.00" fill="#000000">PiL</text>
</g>
<!-- x1_f2&#45;&gt;x1i_f2 -->
<g id="edge10" class="edge">
<title>x1_f2&#45;&gt;x1i_f2</title>
<path fill="none" stroke="#0000ff" d="M160,-359.8314C160,-352.131 160,-342.9743 160,-334.4166"/>
<polygon fill="#0000ff" stroke="#0000ff" points="163.5001,-334.4132 160,-324.4133 156.5001,-334.4133 163.5001,-334.4132"/>
</g>
<!-- x2_f2 -->
<g id="node8" class="node">
<title>x2_f2</title>
<ellipse fill="none" stroke="#000000" cx="55" cy="-162" rx="27" ry="18"/>
<text text-anchor="middle" x="55" y="-158.3" font-family="Times,serif" font-size="14.00" fill="#000000">I</text>
</g>
<!-- x23_f2&#45;&gt;x2_f2 -->
<g id="edge6" class="edge">
<title>x23_f2&#45;&gt;x2_f2</title>
<path fill="none" stroke="#0000ff" d="M55,-215.8314C55,-208.131 55,-198.9743 55,-190.4166"/>
<polygon fill="#0000ff" stroke="#0000ff" points="58.5001,-190.4132 55,-180.4133 51.5001,-190.4133 58.5001,-190.4132"/>
</g>
<!-- x3_f2 -->
<g id="node9" class="node">
<title>x3_f2</title>
<ellipse fill="none" stroke="#000000" cx="27" cy="-90" rx="27" ry="18"/>
<text text-anchor="middle" x="27" y="-86.3" font-family="Times,serif" font-size="14.00" fill="#000000">I</text>
</g>
<!-- x23_f2&#45;&gt;x3_f2 -->
<g id="edge7" class="edge">
<title>x23_f2&#45;&gt;x3_f2</title>
<path fill="none" stroke="#0000ff" d="M40.8771,-218.2844C32.7465,-208.1468 23.3099,-194.2347 19,-180 12.8441,-159.6684 15.4397,-135.6624 19.2505,-117.5589"/>
<polygon fill="#0000ff" stroke="#0000ff" points="22.6975,-118.1898 21.5776,-107.6543 15.883,-116.5886 22.6975,-118.1898"/>
</g>
<!-- id_r -->
<g id="node10" class="node">
<title>id_r</title>
<ellipse fill="none" stroke="#000000" cx="199" cy="-234" rx="27" ry="18"/>
<text text-anchor="middle" x="199" y="-230.3" font-family="Times,serif" font-size="14.00" fill="#000000">PiR</text>
</g>
<!-- al -->
<g id="node11" class="node">
<title>al</title>
<ellipse fill="none" stroke="#000000" cx="199" cy="-162" rx="27" ry="18"/>
<text text-anchor="middle" x="199" y="-158.3" font-family="Times,serif" font-size="14.00" fill="#000000">I</text>
</g>
<!-- id_r&#45;&gt;al -->
<g id="edge8" class="edge">
<title>id_r&#45;&gt;al</title>
<path fill="none" stroke="#0000ff" d="M193.0843,-216.2022C192.2798,-208.1807 192.0571,-198.5231 192.4162,-189.5957"/>
<polygon fill="#0000ff" stroke="#0000ff" points="195.9097,-189.8099 193.105,-179.593 188.9262,-189.3289 195.9097,-189.8099"/>
</g>
<!-- id_r&#45;&gt;al -->
<g id="edge9" class="edge">
<title>id_r&#45;&gt;al</title>
<path fill="none" stroke="#ff0000" d="M204.9157,-216.2022C205.7202,-208.1807 205.9429,-198.5231 205.5838,-189.5957"/>
<polygon fill="#ff0000" stroke="#ff0000" points="209.0738,-189.3289 204.895,-179.593 202.0903,-189.8099 209.0738,-189.3289"/>
</g>
<!-- x1i_f2&#45;&gt;id_r -->
<g id="edge11" class="edge">
<title>x1i_f2&#45;&gt;id_r</title>
<path fill="none" stroke="#ff0000" d="M169.2425,-288.937C173.9537,-280.2393 179.7817,-269.4799 185.0278,-259.7948"/>
<polygon fill="#ff0000" stroke="#ff0000" points="188.1385,-261.4005 189.8239,-250.9405 181.9835,-258.0664 188.1385,-261.4005"/>
</g>
<!-- ssa -->
<g id="node13" class="node">
<title>ssa</title>
<ellipse fill="none" stroke="#000000" cx="127" cy="-234" rx="27" ry="18"/>
<text text-anchor="middle" x="127" y="-230.3" font-family="Times,serif" font-size="14.00" fill="#000000">PiL</text>
</g>
<!-- x1i_f2&#45;&gt;ssa -->
<g id="edge12" class="edge">
<title>x1i_f2&#45;&gt;ssa</title>
<path fill="none" stroke="#0000ff" d="M152.0116,-288.5708C148.1608,-280.1691 143.4583,-269.9091 139.1744,-260.5623"/>
<polygon fill="#0000ff" stroke="#0000ff" points="142.2631,-258.901 134.9148,-251.2687 135.8997,-261.8177 142.2631,-258.901"/>
</g>
<!-- ssa&#45;&gt;x2_f2 -->
<g id="edge13" class="edge">
<title>ssa&#45;&gt;x2_f2</title>
<path fill="none" stroke="#ff0000" d="M111.7307,-218.7307C101.803,-208.803 88.6847,-195.6847 77.5637,-184.5637"/>
<polygon fill="#ff0000" stroke="#ff0000" points="79.7933,-181.8436 70.2473,-177.2473 74.8436,-186.7933 79.7933,-181.8436"/>
</g>
<!-- sa -->
<g id="node14" class="node">
<title>sa</title>
<ellipse fill="none" stroke="#000000" cx="127" cy="-162" rx="27" ry="18"/>
<text text-anchor="middle" x="127" y="-158.3" font-family="Times,serif" font-size="14.00" fill="#000000">PiL</text>
</g>
<!-- ssa&#45;&gt;sa -->
<g id="edge14" class="edge">
<title>ssa&#45;&gt;sa</title>
<path fill="none" stroke="#0000ff" d="M127,-215.8314C127,-208.131 127,-198.9743 127,-190.4166"/>
<polygon fill="#0000ff" stroke="#0000ff" points="130.5001,-190.4132 127,-180.4133 123.5001,-190.4133 130.5001,-190.4132"/>
</g>
<!-- sa&#45;&gt;ret -->
<g id="edge16" class="edge">
<title>sa&#45;&gt;ret</title>
<path fill="none" stroke="#0000ff" d="M139.4804,-145.6621C146.5124,-136.4564 155.4347,-124.7764 163.2883,-114.4953"/>
<polygon fill="#0000ff" stroke="#0000ff" points="166.28,-116.3446 169.569,-106.2733 160.7172,-112.0953 166.28,-116.3446"/>
</g>
<!-- sa&#45;&gt;x3_f2 -->
<g id="edge15" class="edge">
<title>sa&#45;&gt;x3_f2</title>
<path fill="none" stroke="#ff0000" d="M108.1908,-148.4574C92.8698,-137.4263 71.0434,-121.7113 53.8789,-109.3528"/>
<polygon fill="#ff0000" stroke="#ff0000" points="55.5475,-106.2414 45.387,-103.2387 51.4573,-111.9221 55.5475,-106.2414"/>
</g>
<!-- g2s&#45;&gt;y -->
<g id="edge18" class="edge">
<title>g2s&#45;&gt;y</title>
<path fill="none" stroke="#0000ff" d="M328.2242,-359.8314C327.0297,-352.0125 325.6058,-342.6923 324.2812,-334.0221"/>
<polygon fill="#0000ff" stroke="#0000ff" points="327.707,-333.2701 322.7368,-323.9134 320.7873,-334.3273 327.707,-333.2701"/>
</g>
<!-- ret_g2 -->
<g id="node17" class="node">
<title>ret_g2</title>
<ellipse fill="none" stroke="#000000" cx="392" cy="-18" rx="27" ry="18"/>
<text text-anchor="middle" x="392" y="-14.3" font-family="Times,serif" font-size="14.00" fill="#000000">I</text>
</g>
<!-- g2s&#45;&gt;ret_g2 -->
<g id="edge19" class="edge">
<title>g2s&#45;&gt;ret_g2</title>
<path fill="none" stroke="#ff0000" d="M344.6895,-362.4061C365.3213,-337.2398 402,-285.2875 402,-234 402,-234 402,-234 402,-162 402,-121.7793 398.0695,-75.391 395.1368,-46.3773"/>
<polygon fill="#ff0000" stroke="#ff0000" points="398.5896,-45.7407 394.072,-36.1573 391.6272,-46.4662 398.5896,-45.7407"/>
</g>
<!-- x_g2 -->
<g id="node18" class="node">
<title>x_g2</title>
<ellipse fill="none" stroke="#000000" cx="320" cy="-234" rx="27" ry="18"/>
<text text-anchor="middle" x="320" y="-230.3" font-family="Times,serif" font-size="14.00" fill="#000000">!c</text>
</g>
<!-- y&#45;&gt;x_g2 -->
<g id="edge20" class="edge">
<title>y&#45;&gt;x_g2</title>
<path fill="none" stroke="#0000ff" d="M320,-287.8314C320,-280.131 320,-270.9743 320,-262.4166"/>
<polygon fill="#0000ff" stroke="#0000ff" points="323.5001,-262.4132 320,-252.4133 316.5001,-262.4133 323.5001,-262.4132"/>
</g>
<!-- x1_g2 -->
<g id="node19" class="node">
<title>x1_g2</title>
<ellipse fill="none" stroke="#000000" cx="347" cy="-162" rx="27" ry="18"/>
<text text-anchor="middle" x="347" y="-158.3" font-family="Times,serif" font-size="14.00" fill="#000000">!d</text>
</g>
<!-- x_g2&#45;&gt;x1_g2 -->
<g id="edge22" class="edge">
<title>x_g2&#45;&gt;x1_g2</title>
<path fill="none" stroke="#0000ff" d="M326.6742,-216.2022C329.7476,-208.0064 333.4616,-198.1024 336.8695,-189.0145"/>
<polygon fill="#0000ff" stroke="#0000ff" points="340.1685,-190.1853 340.4026,-179.593 333.6142,-187.7274 340.1685,-190.1853"/>
</g>
<!-- x2_g2 -->
<g id="node20" class="node">
<title>x2_g2</title>
<ellipse fill="none" stroke="#000000" cx="311" cy="-18" rx="27" ry="18"/>
<text text-anchor="middle" x="311" y="-14.3" font-family="Times,serif" font-size="14.00" fill="#000000">I</text>
</g>
<!-- x_g2&#45;&gt;x2_g2 -->
<g id="edge23" class="edge">
<title>x_g2&#45;&gt;x2_g2</title>
<path fill="none" stroke="#0000ff" d="M316.2526,-216.0931C314.2534,-205.6241 312.0034,-192.1241 311,-180 307.1235,-133.1606 308.3079,-78.4422 309.5978,-46.0899"/>
<polygon fill="#0000ff" stroke="#0000ff" points="313.0979,-46.1609 310.0322,-36.0194 306.1044,-45.8592 313.0979,-46.1609"/>
</g>
<!-- x1i_g2 -->
<g id="node21" class="node">
<title>x1i_g2</title>
<ellipse fill="none" stroke="#000000" cx="347" cy="-90" rx="27" ry="18"/>
<text text-anchor="middle" x="347" y="-86.3" font-family="Times,serif" font-size="14.00" fill="#000000">PiL</text>
</g>
<!-- x1_g2&#45;&gt;x1i_g2 -->
<g id="edge24" class="edge">
<title>x1_g2&#45;&gt;x1i_g2</title>
<path fill="none" stroke="#0000ff" d="M347,-143.8314C347,-136.131 347,-126.9743 347,-118.4166"/>
<polygon fill="#0000ff" stroke="#0000ff" points="350.5001,-118.4132 347,-108.4133 343.5001,-118.4133 350.5001,-118.4132"/>
</g>
<!-- x1i_g2&#45;&gt;ret_g2 -->
<g id="edge26" class="edge">
<title>x1i_g2&#45;&gt;ret_g2</title>
<path fill="none" stroke="#0000ff" d="M357.437,-73.3008C362.9235,-64.5224 369.7686,-53.5703 375.9163,-43.7339"/>
<polygon fill="#0000ff" stroke="#0000ff" points="378.9751,-45.4436 381.3071,-35.1086 373.0391,-41.7336 378.9751,-45.4436"/>
</g>
<!-- x1i_g2&#45;&gt;x2_g2 -->
<g id="edge25" class="edge">
<title>x1i_g2&#45;&gt;x2_g2</title>
<path fill="none" stroke="#ff0000" d="M338.2854,-72.5708C334.0403,-64.0807 328.8464,-53.6929 324.1337,-44.2674"/>
<polygon fill="#ff0000" stroke="#ff0000" points="327.237,-42.6477 319.6343,-35.2687 320.976,-45.7782 327.237,-42.6477"/>
</g>
</g>
</svg>
