<?xml version="1.0" encoding="UTF-8" standalone="no"?>
<!DOCTYPE svg PUBLIC "-//W3C//DTD SVG 1.1//EN"
 "http://www.w3.org/Graphics/SVG/1.1/DTD/svg11.dtd">
<!-- Generated by graphviz version 2.40.1 (20161225.0304)
 -->
<!-- Title: %3 Pages: 1 -->
<svg width="620pt" height="1165pt"
 viewBox="0.00 0.00 620.39 1165.00" xmlns="http://www.w3.org/2000/svg" xmlns:xlink="http://www.w3.org/1999/xlink">
<g id="graph0" class="graph" transform="scale(1 1) rotate(0) translate(4 1160.9954)">
<title>%3</title>
<polygon fill="#ffffff" stroke="transparent" points="-4,4 -4,-1160.9954 616.3915,-1160.9954 616.3915,4 -4,4"/>
<!-- Root -->
<g id="node1" class="node">
<title>Root</title>
<ellipse fill="none" stroke="#000000" cx="512.3915" cy="-517.9977" rx="27.8951" ry="18"/>
<text text-anchor="middle" x="512.3915" y="-514.2977" font-family="Times,serif" font-size="14.00" fill="#000000">Root</text>
</g>
<!-- f_retf -->
<g id="node2" class="node">
<title>f_retf</title>
<ellipse fill="none" stroke="#000000" cx="357.3915" cy="-415" rx="27" ry="18"/>
<text text-anchor="middle" x="357.3915" y="-411.3" font-family="Times,serif" font-size="14.00" fill="#000000">I</text>
</g>
<!-- Root&#45;&gt;f_retf -->
<g id="edge1" class="edge">
<title>Root&#45;&gt;f_retf</title>
<path fill="none" stroke="#ff0000" stroke-width="2" d="M496.9685,-502.7258C490.7265,-497.3252 483.1629,-491.6837 475.3915,-488 439.7113,-471.0873 420.2787,-493.2876 388.3915,-470 378.9333,-463.0926 371.97,-452.3696 367.0666,-442.2196"/>
<polygon fill="#ff0000" stroke="#ff0000" stroke-width="2" points="370.1737,-440.5873 362.9824,-432.8069 363.7522,-443.3737 370.1737,-440.5873"/>
<text text-anchor="middle" x="401.8915" y="-458.8" font-family="Times,serif" font-size="14.00" fill="#000000">0&#45;&gt;1</text>
</g>
<!-- c1a -->
<g id="node3" class="node">
<title>c1a</title>
<ellipse fill="none" stroke="#000000" cx="174.3915" cy="-1138.9954" rx="27" ry="18"/>
<text text-anchor="middle" x="174.3915" y="-1135.2954" font-family="Times,serif" font-size="14.00" fill="#000000">Cut</text>
</g>
<!-- fp1 -->
<g id="node4" class="node">
<title>fp1</title>
<ellipse fill="none" stroke="#000000" cx="213.3915" cy="-1051.9954" rx="27" ry="18"/>
<text text-anchor="middle" x="213.3915" y="-1048.2954" font-family="Times,serif" font-size="14.00" fill="#000000">!p</text>
</g>
<!-- c1a&#45;&gt;fp1 -->
<g id="edge2" class="edge">
<title>c1a&#45;&gt;fp1</title>
<path fill="none" stroke="#ff0000" d="M182.2837,-1121.3896C187.7643,-1109.1637 195.1683,-1092.6471 201.378,-1078.7946"/>
<polygon fill="#ff0000" stroke="#ff0000" points="204.7472,-1079.8349 205.6441,-1069.278 198.3597,-1076.9714 204.7472,-1079.8349"/>
<text text-anchor="middle" x="198.8915" y="-1091.7954" font-family="Times,serif" font-size="14.00" fill="#000000">0</text>
</g>
<!-- d2a -->
<g id="node5" class="node">
<title>d2a</title>
<ellipse fill="none" stroke="#000000" cx="46.3915" cy="-703.9954" rx="27" ry="18"/>
<text text-anchor="middle" x="46.3915" y="-700.2954" font-family="Times,serif" font-size="14.00" fill="#000000">Dup</text>
</g>
<!-- c1a&#45;&gt;d2a -->
<g id="edge3" class="edge">
<title>c1a&#45;&gt;d2a</title>
<path fill="none" stroke="#0000ff" d="M169.1525,-1121.176C164.4862,-1103.7132 158.3915,-1076.2602 158.3915,-1051.9954 158.3915,-1051.9954 158.3915,-1051.9954 158.3915,-790.9954 158.3915,-770.2339 109.7863,-739.0706 76.615,-720.2202"/>
<polygon fill="#0000ff" stroke="#0000ff" points="78.158,-717.0731 67.7214,-715.2488 74.7425,-723.1833 78.158,-717.0731"/>
<text text-anchor="middle" x="161.8915" y="-917.7954" font-family="Times,serif" font-size="14.00" fill="#000000">1</text>
</g>
<!-- f2a -->
<g id="node25" class="node">
<title>f2a</title>
<ellipse fill="none" stroke="#000000" cx="325.3915" cy="-964.9954" rx="27" ry="18"/>
<text text-anchor="middle" x="325.3915" y="-961.2954" font-family="Times,serif" font-size="14.00" fill="#000000">PiR</text>
</g>
<!-- fp1&#45;&gt;f2a -->
<g id="edge33" class="edge">
<title>fp1&#45;&gt;f2a</title>
<path fill="none" stroke="#ff0000" d="M231.3862,-1038.0173C249.7557,-1023.7482 278.4555,-1001.4545 299.314,-985.252"/>
<polygon fill="#ff0000" stroke="#ff0000" points="301.6911,-987.8374 307.4414,-978.9388 297.3969,-982.3092 301.6911,-987.8374"/>
<text text-anchor="middle" x="278.8915" y="-1004.7954" font-family="Times,serif" font-size="14.00" fill="#000000">1</text>
</g>
<!-- d2b -->
<g id="node10" class="node">
<title>d2b</title>
<ellipse fill="none" stroke="#000000" cx="585.3915" cy="-517.9977" rx="27" ry="18"/>
<text text-anchor="middle" x="585.3915" y="-514.2977" font-family="Times,serif" font-size="14.00" fill="#000000">Dup</text>
</g>
<!-- d2a&#45;&gt;d2b -->
<g id="edge36" class="edge">
<title>d2a&#45;&gt;d2b</title>
<path fill="none" stroke="#000000" stroke-dasharray="5,2" d="M68.0425,-693.0405C72.7594,-690.6901 77.7328,-688.2394 82.3915,-685.9954 130.9406,-662.6098 152.2023,-670.8943 192.3915,-634.9954 219.1663,-611.0789 203.6088,-584.4702 234.3915,-565.9954 294.5094,-529.9144 484.1726,-573.7344 549.3915,-547.9954 557.4129,-544.8297 564.9637,-539.1425 571.0584,-533.5648"/>
</g>
<!-- d2c -->
<g id="node24" class="node">
<title>d2c</title>
<ellipse fill="none" stroke="#000000" cx="279.3915" cy="-415" rx="27" ry="18"/>
<text text-anchor="middle" x="279.3915" y="-411.3" font-family="Times,serif" font-size="14.00" fill="#000000">Dup</text>
</g>
<!-- d2a&#45;&gt;d2c -->
<g id="edge37" class="edge">
<title>d2a&#45;&gt;d2c</title>
<path fill="none" stroke="#000000" stroke-dasharray="5,2" d="M67.3342,-692.448C72.1809,-690.0805 77.3869,-687.7722 82.3915,-685.9954 117.1443,-673.6567 131.0638,-685.7415 163.3915,-667.9954 219.5915,-637.1446 208.5771,-595.6997 265.3915,-565.9954 305.4105,-545.0721 336.4256,-582.6406 365.3915,-547.9954 382.4948,-527.5386 376.5917,-512.1983 365.3915,-488 365.1562,-487.4918 321.3112,-450.4071 296.3249,-429.2985"/>
</g>
<!-- hi_retpa -->
<g id="node26" class="node">
<title>hi_retpa</title>
<ellipse fill="none" stroke="#000000" cx="46.3915" cy="-616.9954" rx="27" ry="18"/>
<text text-anchor="middle" x="46.3915" y="-613.2954" font-family="Times,serif" font-size="14.00" fill="#000000">!p</text>
</g>
<!-- d2a&#45;&gt;hi_retpa -->
<g id="edge38" class="edge">
<title>d2a&#45;&gt;hi_retpa</title>
<path fill="none" stroke="#0000ff" d="M46.3915,-685.9689C46.3915,-674.1872 46.3915,-658.556 46.3915,-645.1535"/>
<polygon fill="#0000ff" stroke="#0000ff" points="49.8916,-644.9987 46.3915,-634.9987 42.8916,-644.9988 49.8916,-644.9987"/>
<text text-anchor="middle" x="49.8915" y="-656.7954" font-family="Times,serif" font-size="14.00" fill="#000000">1</text>
</g>
<!-- c1b1 -->
<g id="node6" class="node">
<title>c1b1</title>
<ellipse fill="none" stroke="#000000" cx="156.3915" cy="-616.9954" rx="27" ry="18"/>
<text text-anchor="middle" x="156.3915" y="-613.2954" font-family="Times,serif" font-size="14.00" fill="#000000">Cut</text>
</g>
<!-- d1a -->
<g id="node7" class="node">
<title>d1a</title>
<ellipse fill="none" stroke="#000000" cx="159.3915" cy="-517.9977" rx="25.9957" ry="25.9957"/>
<ellipse fill="none" stroke="#000000" cx="159.3915" cy="-517.9977" rx="29.9954" ry="29.9954"/>
<text text-anchor="middle" x="159.3915" y="-514.2977" font-family="Times,serif" font-size="14.00" fill="#000000">Dup</text>
</g>
<!-- c1b1&#45;&gt;d1a -->
<g id="edge4" class="edge">
<title>c1b1&#45;&gt;d1a</title>
<path fill="none" stroke="#ff0000" stroke-width="2" d="M156.9417,-598.8377C157.3009,-586.9855 157.7834,-571.0609 158.2253,-556.4798"/>
<ellipse fill="none" stroke="#ff0000" stroke-width="2" cx="158.3583" cy="-552.089" rx="4" ry="4"/>
<text text-anchor="middle" x="160.8915" y="-569.7954" font-family="Times,serif" font-size="14.00" fill="#000000">1</text>
</g>
<!-- x2i_o2f -->
<g id="node8" class="node">
<title>x2i_o2f</title>
<ellipse fill="none" stroke="#000000" cx="329.3915" cy="-517.9977" rx="27" ry="18"/>
<text text-anchor="middle" x="329.3915" y="-514.2977" font-family="Times,serif" font-size="14.00" fill="#000000">PiL</text>
</g>
<!-- c1b1&#45;&gt;x2i_o2f -->
<g id="edge5" class="edge">
<title>c1b1&#45;&gt;x2i_o2f</title>
<path fill="none" stroke="#0000ff" stroke-width="2" d="M179.5709,-607.2745C207.5446,-595.1086 255.5381,-572.8299 293.3915,-547.9954 297.511,-545.2927 301.6962,-542.1899 305.6854,-539.0275"/>
<polygon fill="#0000ff" stroke="#0000ff" stroke-width="2" points="308.0328,-541.6282 313.5148,-532.5619 303.5755,-536.2308 308.0328,-541.6282"/>
<text text-anchor="middle" x="273.8915" y="-569.7954" font-family="Times,serif" font-size="14.00" fill="#000000">2&#45;&gt;1</text>
</g>
<!-- d1b -->
<g id="node12" class="node">
<title>d1b</title>
<ellipse fill="none" stroke="#000000" cx="380.3915" cy="-790.9954" rx="27" ry="18"/>
<text text-anchor="middle" x="380.3915" y="-787.2954" font-family="Times,serif" font-size="14.00" fill="#000000">Dup</text>
</g>
<!-- d1a&#45;&gt;d1b -->
<g id="edge8" class="edge">
<title>d1a&#45;&gt;d1b</title>
<path fill="none" stroke="#000000" stroke-dasharray="5,2" d="M178.3024,-541.3581C222.2469,-595.642 330.3368,-729.1636 367.5543,-775.1379"/>
</g>
<!-- d1c -->
<g id="node13" class="node">
<title>d1c</title>
<ellipse fill="none" stroke="#000000" cx="528.3915" cy="-616.9954" rx="27" ry="18"/>
<text text-anchor="middle" x="528.3915" y="-613.2954" font-family="Times,serif" font-size="14.00" fill="#000000">Dup</text>
</g>
<!-- d1a&#45;&gt;d1c -->
<g id="edge9" class="edge">
<title>d1a&#45;&gt;d1c</title>
<path fill="none" stroke="#000000" stroke-dasharray="5,2" d="M185.6292,-532.692C194.9339,-537.732 205.5406,-543.2853 215.3915,-547.9954 249.3508,-564.2328 256.876,-571.857 293.3915,-580.9954 379.5402,-602.555 406.9694,-574.7159 492.3915,-598.9954 497.6342,-600.4855 503.0242,-602.7386 507.985,-605.1515"/>
</g>
<!-- d1d -->
<g id="node14" class="node">
<title>d1d</title>
<ellipse fill="none" stroke="#000000" cx="439.3915" cy="-517.9977" rx="27" ry="18"/>
<text text-anchor="middle" x="439.3915" y="-514.2977" font-family="Times,serif" font-size="14.00" fill="#000000">Dup</text>
</g>
<!-- d1a&#45;&gt;d1d -->
<g id="edge10" class="edge">
<title>d1a&#45;&gt;d1d</title>
<path fill="none" stroke="#000000" stroke-dasharray="5,2" d="M178.8039,-541.1042C190.5757,-553.2648 206.7109,-566.9743 224.3915,-573.4954 293.1941,-598.8719 322.3937,-603.3129 389.3915,-573.4954 407.0453,-565.6385 421.087,-548.1271 429.7409,-534.8613"/>
</g>
<!-- d1e -->
<g id="node15" class="node">
<title>d1e</title>
<ellipse fill="none" stroke="#000000" cx="254.3915" cy="-517.9977" rx="25.9957" ry="25.9957"/>
<ellipse fill="none" stroke="#000000" cx="254.3915" cy="-517.9977" rx="29.9954" ry="29.9954"/>
<text text-anchor="middle" x="254.3915" y="-514.2977" font-family="Times,serif" font-size="14.00" fill="#000000">Dup</text>
</g>
<!-- d1a&#45;&gt;d1e -->
<g id="edge11" class="edge">
<title>d1a&#45;&gt;d1e</title>
<path fill="none" stroke="#000000" stroke-dasharray="5,2" d="M189.4501,-517.9977C201.0347,-517.9977 212.6193,-517.9977 224.2039,-517.9977"/>
</g>
<!-- f_retg -->
<g id="node16" class="node">
<title>f_retg</title>
<ellipse fill="none" stroke="#000000" cx="195.3915" cy="-415" rx="18" ry="18"/>
<ellipse fill="none" stroke="#000000" cx="195.3915" cy="-415" rx="22" ry="22"/>
<text text-anchor="middle" x="195.3915" y="-411.3" font-family="Times,serif" font-size="14.00" fill="#000000">I</text>
</g>
<!-- d1a&#45;&gt;f_retg -->
<g id="edge12" class="edge">
<title>d1a&#45;&gt;f_retg</title>
<path fill="none" stroke="#ff0000" stroke-width="2" d="M169.3239,-489.5805C174.1136,-475.8769 179.8642,-459.4241 184.7442,-445.4623"/>
<polygon fill="#ff0000" stroke="#ff0000" stroke-width="2" points="188.1219,-446.406 188.1175,-435.8112 181.5139,-444.0963 188.1219,-446.406"/>
</g>
<!-- x2i_o2f&#45;&gt;f_retf -->
<g id="edge35" class="edge">
<title>x2i_o2f&#45;&gt;f_retf</title>
<path fill="none" stroke="#0000ff" stroke-width="2" d="M334.2687,-500.0569C338.5848,-484.18 344.9499,-460.766 349.9099,-442.521"/>
<polygon fill="#0000ff" stroke="#0000ff" stroke-width="2" points="353.3242,-443.3032 352.5701,-432.7352 346.5693,-441.4668 353.3242,-443.3032"/>
</g>
<!-- x2i_o2f&#45;&gt;d2c -->
<g id="edge34" class="edge">
<title>x2i_o2f&#45;&gt;d2c</title>
<path fill="none" stroke="#ff0000" d="M315.353,-502.595C307.867,-493.6509 299.0575,-481.8385 293.3915,-470 289.3558,-461.5679 286.3885,-451.8316 284.252,-442.9159"/>
<polygon fill="#ff0000" stroke="#ff0000" points="287.6342,-441.9954 282.1114,-432.9539 280.7904,-443.4661 287.6342,-441.9954"/>
</g>
<!-- c1b2 -->
<g id="node9" class="node">
<title>c1b2</title>
<ellipse fill="none" stroke="#000000" cx="505.3915" cy="-964.9954" rx="27" ry="18"/>
<text text-anchor="middle" x="505.3915" y="-961.2954" font-family="Times,serif" font-size="14.00" fill="#000000">Cut</text>
</g>
<!-- c1b2&#45;&gt;d2b -->
<g id="edge6" class="edge">
<title>c1b2&#45;&gt;d2b</title>
<path fill="none" stroke="#ff0000" d="M526.562,-953.6275C549.9628,-939.3458 584.3915,-912.4749 584.3915,-877.9954 584.3915,-877.9954 584.3915,-877.9954 584.3915,-616.9954 584.3915,-593.2115 584.6836,-566.2152 584.9521,-546.4282"/>
<polygon fill="#ff0000" stroke="#ff0000" points="588.4543,-546.292 585.0968,-536.2432 581.455,-546.1925 588.4543,-546.292"/>
<text text-anchor="middle" x="587.8915" y="-743.7954" font-family="Times,serif" font-size="14.00" fill="#000000">2</text>
</g>
<!-- xdicg2 -->
<g id="node11" class="node">
<title>xdicg2</title>
<ellipse fill="none" stroke="#000000" cx="413.3915" cy="-877.9954" rx="27" ry="18"/>
<text text-anchor="middle" x="413.3915" y="-874.2954" font-family="Times,serif" font-size="14.00" fill="#000000">!c</text>
</g>
<!-- c1b2&#45;&gt;xdicg2 -->
<g id="edge7" class="edge">
<title>c1b2&#45;&gt;xdicg2</title>
<path fill="none" stroke="#0000ff" d="M489.7849,-950.237C475.2463,-936.4885 453.376,-915.8068 436.7564,-900.0905"/>
<polygon fill="#0000ff" stroke="#0000ff" points="438.7452,-897.154 429.0746,-892.8261 433.9355,-902.2401 438.7452,-897.154"/>
<text text-anchor="middle" x="467.8915" y="-917.7954" font-family="Times,serif" font-size="14.00" fill="#000000">1</text>
</g>
<!-- d4b -->
<g id="node27" class="node">
<title>d4b</title>
<ellipse fill="none" stroke="#000000" cx="111.3915" cy="-338" rx="27" ry="18"/>
<text text-anchor="middle" x="111.3915" y="-334.3" font-family="Times,serif" font-size="14.00" fill="#000000">Dup</text>
</g>
<!-- d2b&#45;&gt;d4b -->
<g id="edge39" class="edge">
<title>d2b&#45;&gt;d4b</title>
<path fill="none" stroke="#ff0000" d="M568.8514,-503.3517C537.2847,-476.3376 465.1779,-419.0529 393.3915,-393 289.4612,-355.2814 252.8029,-389.3561 147.3915,-356 144.8599,-355.1989 142.2866,-354.239 139.7399,-353.1852"/>
<ellipse fill="none" stroke="#ff0000" cx="135.8937" cy="-351.4507" rx="4" ry="4"/>
</g>
<!-- xdicg2&#45;&gt;d1b -->
<g id="edge20" class="edge">
<title>xdicg2&#45;&gt;d1b</title>
<path fill="none" stroke="#0000ff" d="M404.601,-860.6283C401.8014,-854.783 398.8069,-848.1755 396.3915,-841.9954 393.2499,-833.9574 390.2792,-825.0289 387.77,-816.9177"/>
<ellipse fill="none" stroke="#0000ff" cx="386.5802" cy="-812.9718" rx="4" ry="4"/>
</g>
<!-- h_di2g2 -->
<g id="node21" class="node">
<title>h_di2g2</title>
<ellipse fill="none" stroke="#000000" cx="452.3915" cy="-790.9954" rx="27" ry="18"/>
<text text-anchor="middle" x="452.3915" y="-787.2954" font-family="Times,serif" font-size="14.00" fill="#000000">!d</text>
</g>
<!-- xdicg2&#45;&gt;h_di2g2 -->
<g id="edge21" class="edge">
<title>xdicg2&#45;&gt;h_di2g2</title>
<path fill="none" stroke="#0000ff" d="M421.2837,-860.3896C426.7643,-848.1637 434.1683,-831.6471 440.378,-817.7946"/>
<polygon fill="#0000ff" stroke="#0000ff" points="443.7472,-818.8349 444.6441,-808.278 437.3597,-815.9714 443.7472,-818.8349"/>
<text text-anchor="middle" x="437.8915" y="-830.7954" font-family="Times,serif" font-size="14.00" fill="#000000">1</text>
</g>
<!-- d1b&#45;&gt;d2a -->
<g id="edge27" class="edge">
<title>d1b&#45;&gt;d2a</title>
<path fill="none" stroke="#0000ff" d="M355.1792,-784.4416C316.1333,-774.3763 238.6268,-754.7319 172.3915,-739.9954 132.5729,-731.1362 120.9757,-735.2339 82.3915,-721.9954 79.8799,-721.1336 77.3207,-720.1311 74.7834,-719.0486"/>
<ellipse fill="none" stroke="#0000ff" cx="70.9429" cy="-717.2884" rx="4" ry="4"/>
</g>
<!-- d1c&#45;&gt;d2b -->
<g id="edge28" class="edge">
<title>d1c&#45;&gt;d2b</title>
<path fill="none" stroke="#ff0000" d="M538.3201,-599.7513C547.4743,-583.8522 561.1562,-560.0895 571.4135,-542.2747"/>
<ellipse fill="none" stroke="#ff0000" cx="573.5807" cy="-538.5106" rx="4" ry="4"/>
</g>
<!-- d1d&#45;&gt;d2c -->
<g id="edge29" class="edge">
<title>d1d&#45;&gt;d2c</title>
<path fill="none" stroke="#ff0000" d="M421.2493,-504.2348C414.2033,-499.0195 406.0085,-493.1105 398.3915,-488 381.6924,-476.7961 336.6434,-449.4455 307.0131,-431.5879"/>
<ellipse fill="none" stroke="#ff0000" cx="303.2656" cy="-429.3314" rx="4" ry="4"/>
</g>
<!-- d1e&#45;&gt;f_retg -->
<g id="edge30" class="edge">
<title>d1e&#45;&gt;f_retg</title>
<path fill="none" stroke="#0000ff" stroke-width="2" d="M239.3506,-491.7405C230.8687,-476.9334 220.268,-458.4276 211.6019,-443.2989"/>
<polygon fill="#0000ff" stroke="#0000ff" stroke-width="2" points="214.4998,-441.3162 206.4922,-434.3787 208.4257,-444.7957 214.4998,-441.3162"/>
</g>
<!-- xdicg1 -->
<g id="node17" class="node">
<title>xdicg1</title>
<ellipse fill="none" stroke="#000000" cx="485.3915" cy="-877.9954" rx="27" ry="18"/>
<text text-anchor="middle" x="485.3915" y="-874.2954" font-family="Times,serif" font-size="14.00" fill="#000000">!c</text>
</g>
<!-- xdicg1&#45;&gt;d1b -->
<g id="edge13" class="edge">
<title>xdicg1&#45;&gt;d1b</title>
<path fill="none" stroke="#0000ff" d="M463.9241,-866.8845C452.274,-860.3779 437.9367,-851.5704 426.3915,-841.9954 416.8349,-834.0697 407.4423,-824.1541 399.6613,-815.1786"/>
<polygon fill="#0000ff" stroke="#0000ff" points="402.13,-812.6765 393.0101,-807.2841 396.7766,-817.1868 402.13,-812.6765"/>
</g>
<!-- h_di2g1 -->
<g id="node18" class="node">
<title>h_di2g1</title>
<ellipse fill="none" stroke="#000000" cx="524.3915" cy="-790.9954" rx="27" ry="18"/>
<text text-anchor="middle" x="524.3915" y="-787.2954" font-family="Times,serif" font-size="14.00" fill="#000000">!d</text>
</g>
<!-- xdicg1&#45;&gt;h_di2g1 -->
<g id="edge14" class="edge">
<title>xdicg1&#45;&gt;h_di2g1</title>
<path fill="none" stroke="#0000ff" d="M493.2837,-860.3896C498.7643,-848.1637 506.1683,-831.6471 512.378,-817.7946"/>
<polygon fill="#0000ff" stroke="#0000ff" points="515.7472,-818.8349 516.6441,-808.278 509.3597,-815.9714 515.7472,-818.8349"/>
<text text-anchor="middle" x="509.8915" y="-830.7954" font-family="Times,serif" font-size="14.00" fill="#000000">1</text>
</g>
<!-- hbg1 -->
<g id="node19" class="node">
<title>hbg1</title>
<ellipse fill="none" stroke="#000000" cx="524.3915" cy="-703.9954" rx="27" ry="18"/>
<text text-anchor="middle" x="524.3915" y="-700.2954" font-family="Times,serif" font-size="14.00" fill="#000000">PiL</text>
</g>
<!-- h_di2g1&#45;&gt;hbg1 -->
<g id="edge15" class="edge">
<title>h_di2g1&#45;&gt;hbg1</title>
<path fill="none" stroke="#0000ff" d="M524.3915,-772.9689C524.3915,-761.1872 524.3915,-745.556 524.3915,-732.1535"/>
<polygon fill="#0000ff" stroke="#0000ff" points="527.8916,-731.9987 524.3915,-721.9987 520.8916,-731.9988 527.8916,-731.9987"/>
<text text-anchor="middle" x="527.8915" y="-743.7954" font-family="Times,serif" font-size="14.00" fill="#000000">2</text>
</g>
<!-- hbg1&#45;&gt;d1c -->
<g id="edge16" class="edge">
<title>hbg1&#45;&gt;d1c</title>
<path fill="none" stroke="#ff0000" d="M525.2203,-685.9689C525.762,-674.1872 526.4806,-658.556 527.0968,-645.1535"/>
<polygon fill="#ff0000" stroke="#ff0000" points="530.6006,-645.149 527.5637,-634.9987 523.608,-644.8274 530.6006,-645.149"/>
</g>
<!-- x2i_o2g1 -->
<g id="node20" class="node">
<title>x2i_o2g1</title>
<ellipse fill="none" stroke="#000000" cx="456.3915" cy="-616.9954" rx="27" ry="18"/>
<text text-anchor="middle" x="456.3915" y="-613.2954" font-family="Times,serif" font-size="14.00" fill="#000000">PiL</text>
</g>
<!-- hbg1&#45;&gt;x2i_o2g1 -->
<g id="edge17" class="edge">
<title>hbg1&#45;&gt;x2i_o2g1</title>
<path fill="none" stroke="#0000ff" d="M510.7619,-688.0199C505.5627,-681.8276 499.6294,-674.6402 494.3915,-667.9954 487.6243,-659.4106 480.4082,-649.8385 474.1023,-641.3265"/>
<polygon fill="#0000ff" stroke="#0000ff" points="476.8983,-639.2207 468.1503,-633.2438 471.2617,-643.3715 476.8983,-639.2207"/>
<text text-anchor="middle" x="507.8915" y="-656.7954" font-family="Times,serif" font-size="14.00" fill="#000000">2&#45;&gt;1</text>
</g>
<!-- x2i_o2g1&#45;&gt;d1d -->
<g id="edge18" class="edge">
<title>x2i_o2g1&#45;&gt;d1d</title>
<path fill="none" stroke="#ff0000" d="M453.2734,-598.8377C450.7332,-584.0454 447.1038,-562.9095 444.193,-545.9592"/>
<polygon fill="#ff0000" stroke="#ff0000" points="447.6318,-545.3036 442.4898,-536.0403 440.7328,-546.4884 447.6318,-545.3036"/>
</g>
<!-- x2i_o2g1&#45;&gt;d1e -->
<g id="edge19" class="edge">
<title>x2i_o2g1&#45;&gt;d1e</title>
<path fill="none" stroke="#0000ff" d="M440.4279,-602.4175C426.7948,-590.7736 406.1482,-574.9691 385.3915,-565.9954 347.1483,-549.4618 331.3588,-565.1529 293.3915,-547.9954 290.7643,-546.8082 288.152,-545.4126 285.5963,-543.8843"/>
<polygon fill="#0000ff" stroke="#0000ff" points="287.4498,-540.9136 277.1859,-538.2863 283.5712,-546.7408 287.4498,-540.9136"/>
</g>
<!-- hbg2 -->
<g id="node22" class="node">
<title>hbg2</title>
<ellipse fill="none" stroke="#000000" cx="452.3915" cy="-703.9954" rx="27" ry="18"/>
<text text-anchor="middle" x="452.3915" y="-700.2954" font-family="Times,serif" font-size="14.00" fill="#000000">PiL</text>
</g>
<!-- h_di2g2&#45;&gt;hbg2 -->
<g id="edge22" class="edge">
<title>h_di2g2&#45;&gt;hbg2</title>
<path fill="none" stroke="#0000ff" d="M452.3915,-772.9689C452.3915,-761.1872 452.3915,-745.556 452.3915,-732.1535"/>
<polygon fill="#0000ff" stroke="#0000ff" points="455.8916,-731.9987 452.3915,-721.9987 448.8916,-731.9988 455.8916,-731.9987"/>
<text text-anchor="middle" x="455.8915" y="-743.7954" font-family="Times,serif" font-size="14.00" fill="#000000">2</text>
</g>
<!-- hbg2&#45;&gt;d1c -->
<g id="edge23" class="edge">
<title>hbg2&#45;&gt;d1c</title>
<path fill="none" stroke="#ff0000" d="M459.3908,-686.2584C464.0523,-675.8525 470.882,-662.855 479.3915,-652.9954 485.5169,-645.8981 493.2897,-639.3924 500.8295,-633.9221"/>
<ellipse fill="none" stroke="#ff0000" cx="504.3477" cy="-631.4818" rx="4" ry="4"/>
</g>
<!-- x2i_o2g2 -->
<g id="node23" class="node">
<title>x2i_o2g2</title>
<ellipse fill="none" stroke="#000000" cx="384.3915" cy="-616.9954" rx="27" ry="18"/>
<text text-anchor="middle" x="384.3915" y="-613.2954" font-family="Times,serif" font-size="14.00" fill="#000000">PiL</text>
</g>
<!-- hbg2&#45;&gt;x2i_o2g2 -->
<g id="edge24" class="edge">
<title>hbg2&#45;&gt;x2i_o2g2</title>
<path fill="none" stroke="#0000ff" d="M434.4281,-690.0835C427.0564,-683.83 418.7737,-676.0506 412.3915,-667.9954 406.4666,-660.5175 401.1022,-651.6151 396.6912,-643.3572"/>
<polygon fill="#0000ff" stroke="#0000ff" points="399.7951,-641.7395 392.1371,-634.418 393.5579,-644.9172 399.7951,-641.7395"/>
<text text-anchor="middle" x="425.8915" y="-656.7954" font-family="Times,serif" font-size="14.00" fill="#000000">2&#45;&gt;1</text>
</g>
<!-- x2i_o2g2&#45;&gt;d1d -->
<g id="edge25" class="edge">
<title>x2i_o2g2&#45;&gt;d1d</title>
<path fill="none" stroke="#ff0000" d="M393.9717,-599.7513C402.8047,-583.8522 416.0066,-560.0895 425.9039,-542.2747"/>
<ellipse fill="none" stroke="#ff0000" cx="427.9783" cy="-538.5408" rx="4" ry="4"/>
</g>
<!-- x2i_o2g2&#45;&gt;d1e -->
<g id="edge26" class="edge">
<title>x2i_o2g2&#45;&gt;d1e</title>
<path fill="none" stroke="#0000ff" d="M382.6708,-598.5617C380.6938,-587.6358 376.4573,-574.3372 367.3915,-565.9954 342.4834,-543.0767 323.9118,-562.6306 293.3915,-547.9954 290.1854,-546.458 286.9908,-544.6275 283.8888,-542.6398"/>
<ellipse fill="none" stroke="#0000ff" cx="280.5724" cy="-540.3577" rx="4" ry="4"/>
</g>
<!-- x1_o2 -->
<g id="node28" class="node">
<title>x1_o2</title>
<ellipse fill="none" stroke="#000000" cx="183.3915" cy="-338" rx="27" ry="18"/>
<text text-anchor="middle" x="183.3915" y="-334.3" font-family="Times,serif" font-size="14.00" fill="#000000">I</text>
</g>
<!-- d2c&#45;&gt;x1_o2 -->
<g id="edge40" class="edge">
<title>d2c&#45;&gt;x1_o2</title>
<path fill="none" stroke="#ff0000" d="M261.7836,-400.877C247.0332,-389.046 225.7782,-371.9977 209.1207,-358.637"/>
<polygon fill="#ff0000" stroke="#ff0000" points="210.8784,-355.5601 200.8877,-352.0335 206.4986,-361.0206 210.8784,-355.5601"/>
</g>
<!-- f2a&#45;&gt;d1a -->
<g id="edge31" class="edge">
<title>f2a&#45;&gt;d1a</title>
<path fill="none" stroke="#ff0000" d="M325.3915,-946.6648C325.3915,-929.0582 325.3915,-901.7089 325.3915,-877.9954 325.3915,-877.9954 325.3915,-877.9954 325.3915,-660.4954 325.3915,-626.1697 242.6383,-569.2786 193.9884,-538.7988"/>
<polygon fill="#ff0000" stroke="#ff0000" points="195.6716,-535.7242 185.329,-533.4263 191.9812,-541.6724 195.6716,-535.7242"/>
</g>
<!-- f2a&#45;&gt;xdicg1 -->
<g id="edge32" class="edge">
<title>f2a&#45;&gt;xdicg1</title>
<path fill="none" stroke="#0000ff" d="M351.645,-960.5552C385.7611,-954.351 442.9203,-942.3394 459.3915,-928.9954 466.9097,-922.9045 472.47,-914.07 476.4741,-905.4597"/>
<polygon fill="#0000ff" stroke="#0000ff" points="479.8007,-906.5723 480.3551,-895.992 473.3237,-903.9172 479.8007,-906.5723"/>
</g>
<!-- hi_ret1 -->
<g id="node29" class="node">
<title>hi_ret1</title>
<ellipse fill="none" stroke="#000000" cx="27.3915" cy="-338" rx="27" ry="18"/>
<text text-anchor="middle" x="27.3915" y="-334.3" font-family="Times,serif" font-size="14.00" fill="#000000">I</text>
</g>
<!-- hi_retpa&#45;&gt;hi_ret1 -->
<g id="edge47" class="edge">
<title>hi_retpa&#45;&gt;hi_ret1</title>
<path fill="none" stroke="#ff0000" d="M34.9422,-600.6122C26.2894,-587.1738 15.1213,-567.286 10.3915,-547.9954 -6.0128,-481.0903 .1048,-461.1145 10.3915,-393 11.7859,-383.7663 14.4272,-373.946 17.2193,-365.1974"/>
<polygon fill="#ff0000" stroke="#ff0000" points="20.6044,-366.1134 20.5007,-355.5191 13.975,-363.8657 20.6044,-366.1134"/>
<text text-anchor="middle" x="5.8915" y="-458.8" font-family="Times,serif" font-size="14.00" fill="#000000">2</text>
</g>
<!-- h_di1 -->
<g id="node32" class="node">
<title>h_di1</title>
<ellipse fill="none" stroke="#000000" cx="46.3915" cy="-517.9977" rx="27" ry="18"/>
<text text-anchor="middle" x="46.3915" y="-514.2977" font-family="Times,serif" font-size="14.00" fill="#000000">!d</text>
</g>
<!-- hi_retpa&#45;&gt;h_di1 -->
<g id="edge48" class="edge">
<title>hi_retpa&#45;&gt;h_di1</title>
<path fill="none" stroke="#0000ff" d="M46.3915,-598.8377C46.3915,-584.185 46.3915,-563.3077 46.3915,-546.44"/>
<polygon fill="#0000ff" stroke="#0000ff" points="49.8916,-546.0402 46.3915,-536.0403 42.8916,-546.0403 49.8916,-546.0402"/>
<text text-anchor="middle" x="49.8915" y="-569.7954" font-family="Times,serif" font-size="14.00" fill="#000000">1</text>
</g>
<!-- h_app -->
<g id="node30" class="node">
<title>h_app</title>
<ellipse fill="none" stroke="#000000" cx="165.3915" cy="-251" rx="27" ry="18"/>
<text text-anchor="middle" x="165.3915" y="-247.3" font-family="Times,serif" font-size="14.00" fill="#000000">I</text>
</g>
<!-- d4b&#45;&gt;h_app -->
<g id="edge41" class="edge">
<title>d4b&#45;&gt;h_app</title>
<path fill="none" stroke="#ff0000" d="M121.8032,-321.2255C129.7219,-308.4677 140.7486,-290.7024 149.7299,-276.2325"/>
<polygon fill="#ff0000" stroke="#ff0000" points="152.7117,-278.0652 155.0117,-267.723 146.7643,-274.3736 152.7117,-278.0652"/>
</g>
<!-- ha -->
<g id="node31" class="node">
<title>ha</title>
<ellipse fill="none" stroke="#000000" cx="46.3915" cy="-415" rx="27" ry="18"/>
<text text-anchor="middle" x="46.3915" y="-411.3" font-family="Times,serif" font-size="14.00" fill="#000000">PiL</text>
</g>
<!-- ha&#45;&gt;d4b -->
<g id="edge42" class="edge">
<title>ha&#45;&gt;d4b</title>
<path fill="none" stroke="#ff0000" d="M59.8595,-399.0456C68.9234,-388.3083 81.0367,-373.9587 91.2416,-361.8699"/>
<polygon fill="#ff0000" stroke="#ff0000" points="94.1646,-363.8331 97.9407,-353.934 88.8156,-359.3177 94.1646,-363.8331"/>
</g>
<!-- ha&#45;&gt;hi_ret1 -->
<g id="edge43" class="edge">
<title>ha&#45;&gt;hi_ret1</title>
<path fill="none" stroke="#0000ff" d="M41.9847,-397.1411C39.6826,-387.8115 36.8139,-376.1858 34.2308,-365.7172"/>
<polygon fill="#0000ff" stroke="#0000ff" points="37.5681,-364.6323 31.7743,-355.762 30.772,-366.3094 37.5681,-364.6323"/>
</g>
<!-- h_di1&#45;&gt;ha -->
<g id="edge44" class="edge">
<title>h_di1&#45;&gt;ha</title>
<path fill="none" stroke="#0000ff" d="M46.3915,-499.5838C46.3915,-483.9852 46.3915,-461.364 46.3915,-443.4395"/>
<polygon fill="#0000ff" stroke="#0000ff" points="49.8916,-443.2545 46.3915,-433.2545 42.8916,-443.2545 49.8916,-443.2545"/>
<text text-anchor="middle" x="49.8915" y="-458.8" font-family="Times,serif" font-size="14.00" fill="#000000">2</text>
</g>
<!-- c2a -->
<g id="node33" class="node">
<title>c2a</title>
<ellipse fill="none" stroke="#000000" cx="118.3915" cy="-703.9954" rx="27" ry="18"/>
<text text-anchor="middle" x="118.3915" y="-700.2954" font-family="Times,serif" font-size="14.00" fill="#000000">Cut</text>
</g>
<!-- c2a&#45;&gt;hi_retpa -->
<g id="edge45" class="edge">
<title>c2a&#45;&gt;hi_retpa</title>
<path fill="none" stroke="#ff0000" d="M102.2141,-689.5795C95.4695,-683.2408 87.7447,-675.534 81.3915,-667.9954 74.6117,-659.9507 67.8953,-650.5942 62.1865,-642.1081"/>
<polygon fill="#ff0000" stroke="#ff0000" points="65.0589,-640.1058 56.6418,-633.6713 59.2091,-643.9504 65.0589,-640.1058"/>
<text text-anchor="middle" x="84.8915" y="-656.7954" font-family="Times,serif" font-size="14.00" fill="#000000">1</text>
</g>
<!-- c2a&#45;&gt;x1_o2 -->
<g id="edge46" class="edge">
<title>c2a&#45;&gt;x1_o2</title>
<path fill="none" stroke="#0000ff" d="M116.2223,-685.825C112.2579,-648.3558 105.541,-559.9857 120.3915,-488 129.8255,-442.2699 153.3461,-393.0511 168.8266,-363.9185"/>
<polygon fill="#0000ff" stroke="#0000ff" points="172.0565,-365.3037 173.7362,-354.8428 165.8997,-361.9729 172.0565,-365.3037"/>
</g>
<!-- c3 -->
<g id="node34" class="node">
<title>c3</title>
<ellipse fill="none" stroke="#000000" cx="255.3915" cy="-338" rx="27" ry="18"/>
<text text-anchor="middle" x="255.3915" y="-334.3" font-family="Times,serif" font-size="14.00" fill="#000000">Cut</text>
</g>
<!-- c3&#45;&gt;h_app -->
<g id="edge50" class="edge">
<title>c3&#45;&gt;h_app</title>
<path fill="none" stroke="#0000ff" d="M239.7147,-322.8458C225.5187,-309.123 204.4269,-288.7342 188.3347,-273.1784"/>
<polygon fill="#0000ff" stroke="#0000ff" points="190.5111,-270.4144 180.8886,-265.9806 185.6459,-275.4473 190.5111,-270.4144"/>
</g>
<!-- i -->
<g id="node35" class="node">
<title>i</title>
<ellipse fill="none" stroke="#000000" cx="255.3915" cy="-251" rx="27" ry="18"/>
<text text-anchor="middle" x="255.3915" y="-247.3" font-family="Times,serif" font-size="14.00" fill="#000000">!p</text>
</g>
<!-- c3&#45;&gt;i -->
<g id="edge49" class="edge">
<title>c3&#45;&gt;i</title>
<path fill="none" stroke="#ff0000" d="M255.3915,-319.9735C255.3915,-308.1918 255.3915,-292.5607 255.3915,-279.1581"/>
<polygon fill="#ff0000" stroke="#ff0000" points="258.8916,-279.0033 255.3915,-269.0034 251.8916,-279.0034 258.8916,-279.0033"/>
<text text-anchor="middle" x="258.8915" y="-290.8" font-family="Times,serif" font-size="14.00" fill="#000000">2</text>
</g>
<!-- i_i -->
<g id="node36" class="node">
<title>i_i</title>
<ellipse fill="none" stroke="#000000" cx="255.3915" cy="-164" rx="27" ry="18"/>
<text text-anchor="middle" x="255.3915" y="-160.3" font-family="Times,serif" font-size="14.00" fill="#000000">PiR</text>
</g>
<!-- i&#45;&gt;i_i -->
<g id="edge51" class="edge">
<title>i&#45;&gt;i_i</title>
<path fill="none" stroke="#ff0000" d="M255.3915,-232.9735C255.3915,-221.1918 255.3915,-205.5607 255.3915,-192.1581"/>
<polygon fill="#ff0000" stroke="#ff0000" points="258.8916,-192.0033 255.3915,-182.0034 251.8916,-192.0034 258.8916,-192.0033"/>
<text text-anchor="middle" x="258.8915" y="-203.8" font-family="Times,serif" font-size="14.00" fill="#000000">3</text>
</g>
<!-- il -->
<g id="node37" class="node">
<title>il</title>
<ellipse fill="none" stroke="#000000" cx="228.3915" cy="-91" rx="27" ry="18"/>
<text text-anchor="middle" x="228.3915" y="-87.3" font-family="Times,serif" font-size="14.00" fill="#000000">!d</text>
</g>
<!-- i_i&#45;&gt;il -->
<g id="edge52" class="edge">
<title>i_i&#45;&gt;il</title>
<path fill="none" stroke="#0000ff" d="M248.8555,-146.3287C245.7049,-137.8103 241.8574,-127.4078 238.3523,-117.9312"/>
<polygon fill="#0000ff" stroke="#0000ff" points="241.6189,-116.6734 234.8672,-108.5085 235.0536,-119.1017 241.6189,-116.6734"/>
</g>
<!-- i_ret -->
<g id="node38" class="node">
<title>i_ret</title>
<ellipse fill="none" stroke="#000000" cx="255.3915" cy="-18" rx="27" ry="18"/>
<text text-anchor="middle" x="255.3915" y="-14.3" font-family="Times,serif" font-size="14.00" fill="#000000">I</text>
</g>
<!-- i_i&#45;&gt;i_ret -->
<g id="edge53" class="edge">
<title>i_i&#45;&gt;i_ret</title>
<path fill="none" stroke="#ff0000" d="M259.139,-145.7581C261.1382,-135.0941 263.3882,-121.3441 264.3915,-109 265.6876,-93.0526 265.6876,-88.9474 264.3915,-73 263.6782,-64.2241 262.3348,-54.7377 260.8993,-46.1547"/>
<polygon fill="#ff0000" stroke="#ff0000" points="264.3337,-45.4759 259.139,-36.2419 257.4415,-46.6999 264.3337,-45.4759"/>
</g>
<!-- il&#45;&gt;i_ret -->
<g id="edge54" class="edge">
<title>il&#45;&gt;i_ret</title>
<path fill="none" stroke="#0000ff" d="M234.9274,-73.3287C238.078,-64.8103 241.9256,-54.4078 245.4306,-44.9312"/>
<polygon fill="#0000ff" stroke="#0000ff" points="248.7293,-46.1017 248.9157,-35.5085 242.164,-43.6734 248.7293,-46.1017"/>
</g>
</g>
</svg>
