<?xml version="1.0" encoding="UTF-8" standalone="no"?>
<!DOCTYPE svg PUBLIC "-//W3C//DTD SVG 1.1//EN"
 "http://www.w3.org/Graphics/SVG/1.1/DTD/svg11.dtd">
<!-- Generated by graphviz version 2.40.1 (20161225.0304)
 -->
<!-- Title: %3 Pages: 1 -->
<svg width="544pt" height="692pt"
 viewBox="0.00 0.00 544.00 692.00" xmlns="http://www.w3.org/2000/svg" xmlns:xlink="http://www.w3.org/1999/xlink">
<g id="graph0" class="graph" transform="scale(1 1) rotate(0) translate(4 688)">
<title>%3</title>
<polygon fill="#ffffff" stroke="transparent" points="-4,4 -4,-688 540,-688 540,4 -4,4"/>
<!-- Root -->
<g id="node1" class="node">
<title>Root</title>
<ellipse fill="none" stroke="#000000" cx="31" cy="-666" rx="27.8951" ry="18"/>
<text text-anchor="middle" x="31" y="-662.3" font-family="Times,serif" font-size="14.00" fill="#000000">Root</text>
</g>
<!-- c1 -->
<g id="node2" class="node">
<title>c1</title>
<ellipse fill="none" stroke="#000000" cx="86" cy="-594" rx="27" ry="18"/>
<text text-anchor="middle" x="86" y="-590.3" font-family="Times,serif" font-size="14.00" fill="#000000">Cut</text>
</g>
<!-- Root&#45;&gt;c1 -->
<!-- p -->
<g id="node6" class="node">
<title>p</title>
<ellipse fill="none" stroke="#000000" cx="27" cy="-378" rx="27" ry="18"/>
<text text-anchor="middle" x="27" y="-374.3" font-family="Times,serif" font-size="14.00" fill="#000000">I</text>
</g>
<!-- Root&#45;&gt;p -->
<g id="edge5" class="edge">
<title>Root&#45;&gt;p</title>
<path fill="none" stroke="#ff0000" d="M29.4693,-647.6545C27.5078,-623.1413 24.2159,-578.3391 23,-540 21.4785,-492.0241 21.2259,-479.9672 23,-432 23.3127,-423.5452 23.8999,-414.3609 24.53,-406.0052"/>
<polygon fill="#ff0000" stroke="#ff0000" points="28.0232,-406.2292 25.3336,-395.9815 21.0456,-405.6698 28.0232,-406.2292"/>
</g>
<!-- c2 -->
<g id="node3" class="node">
<title>c2</title>
<ellipse fill="none" stroke="#000000" cx="205" cy="-522" rx="27" ry="18"/>
<text text-anchor="middle" x="205" y="-518.3" font-family="Times,serif" font-size="14.00" fill="#000000">Cut</text>
</g>
<!-- c1&#45;&gt;c2 -->
<!-- a -->
<g id="node7" class="node">
<title>a</title>
<ellipse fill="none" stroke="#000000" cx="59" cy="-522" rx="27" ry="18"/>
<text text-anchor="middle" x="59" y="-518.3" font-family="Times,serif" font-size="14.00" fill="#000000">!</text>
</g>
<!-- c1&#45;&gt;a -->
<g id="edge6" class="edge">
<title>c1&#45;&gt;a</title>
<path fill="none" stroke="#ff0000" d="M79.3258,-576.2022C76.2524,-568.0064 72.5384,-558.1024 69.1305,-549.0145"/>
<polygon fill="#ff0000" stroke="#ff0000" points="72.3858,-547.7274 65.5974,-539.593 65.8315,-550.1853 72.3858,-547.7274"/>
</g>
<!-- n -->
<g id="node8" class="node">
<title>n</title>
<ellipse fill="none" stroke="#000000" cx="118" cy="-378" rx="27" ry="18"/>
<text text-anchor="middle" x="118" y="-374.3" font-family="Times,serif" font-size="14.00" fill="#000000">I</text>
</g>
<!-- c1&#45;&gt;n -->
<g id="edge7" class="edge">
<title>c1&#45;&gt;n</title>
<path fill="none" stroke="#0000ff" d="M89.1086,-576.0174C90.8948,-565.5232 93.1448,-552.0232 95,-540 102.239,-493.0844 109.8277,-438.3892 114.225,-406.0623"/>
<polygon fill="#0000ff" stroke="#0000ff" points="117.7138,-406.3798 115.5887,-396.0003 110.7773,-405.4396 117.7138,-406.3798"/>
</g>
<!-- c3 -->
<g id="node4" class="node">
<title>c3</title>
<ellipse fill="none" stroke="#000000" cx="241" cy="-450" rx="27" ry="18"/>
<text text-anchor="middle" x="241" y="-446.3" font-family="Times,serif" font-size="14.00" fill="#000000">Cut</text>
</g>
<!-- c2&#45;&gt;c3 -->
<!-- l -->
<g id="node10" class="node">
<title>l</title>
<ellipse fill="none" stroke="#000000" cx="323" cy="-234" rx="27" ry="18"/>
<text text-anchor="middle" x="323" y="-230.3" font-family="Times,serif" font-size="14.00" fill="#000000">I</text>
</g>
<!-- c2&#45;&gt;l -->
<g id="edge9" class="edge">
<title>c2&#45;&gt;l</title>
<path fill="none" stroke="#ff0000" d="M226.8127,-511.222C260.7841,-492.9971 324.835,-452.483 348,-396 366.4956,-350.9023 349.0503,-293.6319 335.4783,-260.6656"/>
<polygon fill="#ff0000" stroke="#ff0000" points="338.5984,-259.0612 331.4347,-251.2553 332.167,-261.8248 338.5984,-259.0612"/>
</g>
<!-- m -->
<g id="node11" class="node">
<title>m</title>
<ellipse fill="none" stroke="#000000" cx="169" cy="-450" rx="27" ry="18"/>
<text text-anchor="middle" x="169" y="-446.3" font-family="Times,serif" font-size="14.00" fill="#000000">PiL</text>
</g>
<!-- c2&#45;&gt;m -->
<g id="edge10" class="edge">
<title>c2&#45;&gt;m</title>
<path fill="none" stroke="#0000ff" d="M196.2854,-504.5708C192.0403,-496.0807 186.8464,-485.6929 182.1337,-476.2674"/>
<polygon fill="#0000ff" stroke="#0000ff" points="185.237,-474.6477 177.6343,-467.2687 178.976,-477.7782 185.237,-474.6477"/>
</g>
<!-- c4 -->
<g id="node5" class="node">
<title>c4</title>
<ellipse fill="none" stroke="#000000" cx="236" cy="-378" rx="27" ry="18"/>
<text text-anchor="middle" x="236" y="-374.3" font-family="Times,serif" font-size="14.00" fill="#000000">Cut</text>
</g>
<!-- c3&#45;&gt;c4 -->
<!-- c -->
<g id="node12" class="node">
<title>c</title>
<ellipse fill="none" stroke="#000000" cx="310" cy="-378" rx="29.4969" ry="18"/>
<text text-anchor="middle" x="310" y="-374.3" font-family="Times,serif" font-size="14.00" fill="#000000">False</text>
</g>
<!-- c3&#45;&gt;c -->
<g id="edge11" class="edge">
<title>c3&#45;&gt;c</title>
<path fill="none" stroke="#ff0000" d="M255.6331,-434.7307C265.0186,-424.9372 277.3796,-412.0387 287.9434,-401.0156"/>
<polygon fill="#ff0000" stroke="#ff0000" points="290.5188,-403.3867 294.911,-393.7451 285.4649,-398.5433 290.5188,-403.3867"/>
</g>
<!-- k -->
<g id="node13" class="node">
<title>k</title>
<ellipse fill="none" stroke="#000000" cx="209" cy="-234" rx="27" ry="18"/>
<text text-anchor="middle" x="209" y="-230.3" font-family="Times,serif" font-size="14.00" fill="#000000">I</text>
</g>
<!-- c3&#45;&gt;k -->
<g id="edge12" class="edge">
<title>c3&#45;&gt;k</title>
<path fill="none" stroke="#0000ff" d="M225.3689,-435.0823C216.0296,-425.0435 205.032,-410.949 200,-396 184.8365,-350.9528 193.5727,-294.9078 201.2902,-261.9341"/>
<polygon fill="#0000ff" stroke="#0000ff" points="204.7235,-262.6302 203.7286,-252.0822 197.9285,-260.9484 204.7235,-262.6302"/>
</g>
<!-- d -->
<g id="node14" class="node">
<title>d</title>
<ellipse fill="none" stroke="#000000" cx="422" cy="-306" rx="27" ry="18"/>
<text text-anchor="middle" x="422" y="-302.3" font-family="Times,serif" font-size="14.00" fill="#000000">PiR</text>
</g>
<!-- c4&#45;&gt;d -->
<g id="edge13" class="edge">
<title>c4&#45;&gt;d</title>
<path fill="none" stroke="#ff0000" d="M257.5073,-366.7291C262.2332,-364.3983 267.2466,-362.0355 272,-360 310.9746,-343.31 357.0141,-327.259 387.7087,-317.0581"/>
<polygon fill="#ff0000" stroke="#ff0000" points="389.0965,-320.2859 397.4975,-313.8305 386.9044,-313.638 389.0965,-320.2859"/>
</g>
<!-- j -->
<g id="node15" class="node">
<title>j</title>
<ellipse fill="none" stroke="#000000" cx="236" cy="-306" rx="27" ry="18"/>
<text text-anchor="middle" x="236" y="-302.3" font-family="Times,serif" font-size="14.00" fill="#000000">PiL</text>
</g>
<!-- c4&#45;&gt;j -->
<g id="edge14" class="edge">
<title>c4&#45;&gt;j</title>
<path fill="none" stroke="#0000ff" d="M236,-359.8314C236,-352.131 236,-342.9743 236,-334.4166"/>
<polygon fill="#0000ff" stroke="#0000ff" points="239.5001,-334.4132 236,-324.4133 232.5001,-334.4133 239.5001,-334.4132"/>
</g>
<!-- b -->
<g id="node9" class="node">
<title>b</title>
<ellipse fill="none" stroke="#000000" cx="59" cy="-450" rx="27.0966" ry="18"/>
<text text-anchor="middle" x="59" y="-446.3" font-family="Times,serif" font-size="14.00" fill="#000000">True</text>
</g>
<!-- a&#45;&gt;b -->
<g id="edge8" class="edge">
<title>a&#45;&gt;b</title>
<path fill="none" stroke="#ff0000" d="M59,-503.8314C59,-496.131 59,-486.9743 59,-478.4166"/>
<polygon fill="#ff0000" stroke="#ff0000" points="62.5001,-478.4132 59,-468.4133 55.5001,-478.4133 62.5001,-478.4132"/>
</g>
<!-- m&#45;&gt;p -->
<g id="edge27" class="edge">
<title>m&#45;&gt;p</title>
<path fill="none" stroke="#0000ff" d="M147.4333,-439.0647C123.5586,-426.9593 84.8794,-407.3473 57.815,-393.6245"/>
<polygon fill="#0000ff" stroke="#0000ff" points="59.2716,-390.4389 48.7697,-389.0382 56.1059,-396.6822 59.2716,-390.4389"/>
</g>
<!-- m&#45;&gt;n -->
<g id="edge26" class="edge">
<title>m&#45;&gt;n</title>
<path fill="none" stroke="#ff0000" d="M157.4273,-433.6621C151.0628,-424.6768 143.0285,-413.3343 135.8756,-403.2362"/>
<polygon fill="#ff0000" stroke="#ff0000" points="138.5171,-400.9101 129.8808,-394.7729 132.8049,-404.9562 138.5171,-400.9101"/>
</g>
<!-- e -->
<g id="node16" class="node">
<title>e</title>
<ellipse fill="none" stroke="#000000" cx="422" cy="-234" rx="38.9931" ry="18"/>
<text text-anchor="middle" x="422" y="-230.3" font-family="Times,serif" font-size="14.00" fill="#000000">SigmaL</text>
</g>
<!-- d&#45;&gt;e -->
<g id="edge15" class="edge">
<title>d&#45;&gt;e</title>
<path fill="none" stroke="#0000ff" d="M416.0843,-288.2022C415.2945,-280.3271 415.0655,-270.875 415.3971,-262.0852"/>
<polygon fill="#0000ff" stroke="#0000ff" points="418.9069,-262.0532 416.0798,-251.8425 411.9224,-261.5876 418.9069,-262.0532"/>
</g>
<!-- d&#45;&gt;e -->
<g id="edge16" class="edge">
<title>d&#45;&gt;e</title>
<path fill="none" stroke="#ff0000" d="M427.9157,-288.2022C428.7055,-280.3271 428.9345,-270.875 428.6029,-262.0852"/>
<polygon fill="#ff0000" stroke="#ff0000" points="432.0776,-261.5876 427.9202,-251.8425 425.0931,-262.0532 432.0776,-261.5876"/>
</g>
<!-- j&#45;&gt;l -->
<g id="edge25" class="edge">
<title>j&#45;&gt;l</title>
<path fill="none" stroke="#0000ff" d="M253.1884,-291.7751C265.9384,-281.2234 283.519,-266.674 297.8477,-254.8157"/>
<polygon fill="#0000ff" stroke="#0000ff" points="300.3748,-257.2674 305.8473,-248.1953 295.9118,-251.8747 300.3748,-257.2674"/>
</g>
<!-- j&#45;&gt;k -->
<g id="edge24" class="edge">
<title>j&#45;&gt;k</title>
<path fill="none" stroke="#ff0000" d="M229.3258,-288.2022C226.2524,-280.0064 222.5384,-270.1024 219.1305,-261.0145"/>
<polygon fill="#ff0000" stroke="#ff0000" points="222.3858,-259.7274 215.5974,-251.593 215.8315,-262.1853 222.3858,-259.7274"/>
</g>
<!-- f1 -->
<g id="node17" class="node">
<title>f1</title>
<ellipse fill="none" stroke="#000000" cx="386" cy="-162" rx="27" ry="18"/>
<text text-anchor="middle" x="386" y="-158.3" font-family="Times,serif" font-size="14.00" fill="#000000">PiR</text>
</g>
<!-- e&#45;&gt;f1 -->
<g id="edge17" class="edge">
<title>e&#45;&gt;f1</title>
<path fill="none" stroke="#ff0000" d="M413.1011,-216.2022C408.8978,-207.7955 403.7959,-197.5917 399.1575,-188.3149"/>
<polygon fill="#ff0000" stroke="#ff0000" points="402.1513,-186.4762 394.5486,-179.0972 395.8903,-189.6068 402.1513,-186.4762"/>
</g>
<!-- f2 -->
<g id="node18" class="node">
<title>f2</title>
<ellipse fill="none" stroke="#000000" cx="458" cy="-162" rx="27" ry="18"/>
<text text-anchor="middle" x="458" y="-158.3" font-family="Times,serif" font-size="14.00" fill="#000000">PiR</text>
</g>
<!-- e&#45;&gt;f2 -->
<g id="edge18" class="edge">
<title>e&#45;&gt;f2</title>
<path fill="none" stroke="#ff0000" d="M430.8989,-216.2022C435.1022,-207.7955 440.2041,-197.5917 444.8425,-188.3149"/>
<polygon fill="#ff0000" stroke="#ff0000" points="448.1097,-189.6068 449.4514,-179.0972 441.8487,-186.4762 448.1097,-189.6068"/>
</g>
<!-- g1 -->
<g id="node19" class="node">
<title>g1</title>
<ellipse fill="none" stroke="#000000" cx="316" cy="-90" rx="27" ry="18"/>
<text text-anchor="middle" x="316" y="-86.3" font-family="Times,serif" font-size="14.00" fill="#000000">!w</text>
</g>
<!-- f1&#45;&gt;g1 -->
<g id="edge19" class="edge">
<title>f1&#45;&gt;g1</title>
<path fill="none" stroke="#0000ff" d="M371.1548,-146.7307C361.5029,-136.803 348.749,-123.6847 337.9369,-112.5637"/>
<polygon fill="#0000ff" stroke="#0000ff" points="340.3041,-109.9775 330.8238,-105.2473 335.2851,-114.8571 340.3041,-109.9775"/>
</g>
<!-- h1 -->
<g id="node20" class="node">
<title>h1</title>
<ellipse fill="none" stroke="#000000" cx="390" cy="-90" rx="29.4969" ry="18"/>
<text text-anchor="middle" x="390" y="-86.3" font-family="Times,serif" font-size="14.00" fill="#000000">False</text>
</g>
<!-- f1&#45;&gt;h1 -->
<g id="edge20" class="edge">
<title>f1&#45;&gt;h1</title>
<path fill="none" stroke="#ff0000" d="M387.0094,-143.8314C387.4372,-136.131 387.9459,-126.9743 388.4213,-118.4166"/>
<polygon fill="#ff0000" stroke="#ff0000" points="391.9169,-118.592 388.977,-108.4133 384.9276,-118.2037 391.9169,-118.592"/>
</g>
<!-- g2 -->
<g id="node21" class="node">
<title>g2</title>
<ellipse fill="none" stroke="#000000" cx="509" cy="-90" rx="27" ry="18"/>
<text text-anchor="middle" x="509" y="-86.3" font-family="Times,serif" font-size="14.00" fill="#000000">!d</text>
</g>
<!-- f2&#45;&gt;g2 -->
<g id="edge21" class="edge">
<title>f2&#45;&gt;g2</title>
<path fill="none" stroke="#0000ff" d="M469.5727,-145.6621C475.9372,-136.6768 483.9715,-125.3343 491.1244,-115.2362"/>
<polygon fill="#0000ff" stroke="#0000ff" points="494.1951,-116.9562 497.1192,-106.7729 488.4829,-112.9101 494.1951,-116.9562"/>
</g>
<!-- h2 -->
<g id="node22" class="node">
<title>h2</title>
<ellipse fill="none" stroke="#000000" cx="481" cy="-18" rx="27" ry="18"/>
<text text-anchor="middle" x="481" y="-14.3" font-family="Times,serif" font-size="14.00" fill="#000000">I</text>
</g>
<!-- f2&#45;&gt;h2 -->
<g id="edge22" class="edge">
<title>f2&#45;&gt;h2</title>
<path fill="none" stroke="#ff0000" d="M460.8665,-144.0535C464.7918,-119.4774 471.8797,-75.1008 476.5122,-46.0974"/>
<polygon fill="#ff0000" stroke="#ff0000" points="479.9763,-46.5996 478.0974,-36.1727 473.0639,-45.4955 479.9763,-46.5996"/>
</g>
<!-- g2&#45;&gt;h2 -->
<g id="edge23" class="edge">
<title>g2&#45;&gt;h2</title>
<path fill="none" stroke="#0000ff" d="M502.222,-72.5708C499.0128,-64.3187 495.1065,-54.2738 491.5242,-45.0623"/>
<polygon fill="#0000ff" stroke="#0000ff" points="494.6992,-43.5697 487.8126,-35.5182 488.1752,-46.1069 494.6992,-43.5697"/>
</g>
</g>
</svg>
