<?xml version="1.0" encoding="UTF-8" standalone="no"?>
<!DOCTYPE svg PUBLIC "-//W3C//DTD SVG 1.1//EN"
 "http://www.w3.org/Graphics/SVG/1.1/DTD/svg11.dtd">
<!-- Generated by graphviz version 2.40.1 (20161225.0304)
 -->
<!-- Title: %3 Pages: 1 -->
<svg width="318pt" height="1151pt"
 viewBox="0.00 0.00 317.90 1150.79" xmlns="http://www.w3.org/2000/svg" xmlns:xlink="http://www.w3.org/1999/xlink">
<g id="graph0" class="graph" transform="scale(1 1) rotate(0) translate(4 1146.7947)">
<title>%3</title>
<polygon fill="#ffffff" stroke="transparent" points="-4,4 -4,-1146.7947 313.8973,-1146.7947 313.8973,4 -4,4"/>
<!-- Root -->
<g id="node1" class="node">
<title>Root</title>
<ellipse fill="none" stroke="#000000" cx="37.8973" cy="-1124.7947" rx="32.4942" ry="18"/>
<text text-anchor="middle" x="37.8973" y="-1121.0947" font-family="Times,serif" font-size="14.00" fill="#000000">Root</text>
</g>
<!-- c1b -->
<g id="node2" class="node">
<title>c1b</title>
<ellipse fill="none" stroke="#000000" cx="115.8973" cy="-1051.7947" rx="27.8951" ry="18"/>
<text text-anchor="middle" x="115.8973" y="-1048.0947" font-family="Times,serif" font-size="14.00" fill="#000000">Cut</text>
</g>
<!-- Root&#45;&gt;c1b -->
<g id="edge1" class="edge">
<title>Root&#45;&gt;c1b</title>
<path fill="none" stroke="#000000" d="M54.8222,-1108.9548C65.775,-1098.704 80.1915,-1085.2117 92.2675,-1073.9098"/>
<polygon fill="#000000" stroke="#000000" points="94.8956,-1076.244 99.8052,-1066.8553 90.1123,-1071.1331 94.8956,-1076.244"/>
</g>
<!-- d1 -->
<g id="node5" class="node">
<title>d1</title>
<ellipse fill="none" stroke="#000000" cx="29.8973" cy="-788.8973" rx="29.795" ry="18"/>
<text text-anchor="middle" x="29.8973" y="-785.1973" font-family="Times,serif" font-size="14.00" fill="#000000">Dup</text>
</g>
<!-- Root&#45;&gt;d1 -->
<g id="edge6" class="edge">
<title>Root&#45;&gt;d1</title>
<path fill="none" stroke="#ff0000" d="M33.2922,-1106.9292C29.9081,-1092.2319 25.8973,-1070.8034 25.8973,-1051.7947 25.8973,-1051.7947 25.8973,-1051.7947 25.8973,-877.7947 25.8973,-857.4525 26.9555,-834.5183 27.9834,-817.04"/>
<polygon fill="#ff0000" stroke="#ff0000" points="31.4843,-817.1317 28.6097,-806.9343 24.4977,-816.6986 31.4843,-817.1317"/>
<text text-anchor="middle" x="43.3973" y="-961.0947" font-family="Times,serif" font-size="14.00" fill="#000000">0&#45;&gt;1</text>
</g>
<!-- c2b -->
<g id="node4" class="node">
<title>c2b</title>
<ellipse fill="none" stroke="#000000" cx="115.8973" cy="-788.8973" rx="27.8951" ry="18"/>
<text text-anchor="middle" x="115.8973" y="-785.1973" font-family="Times,serif" font-size="14.00" fill="#000000">Cut</text>
</g>
<!-- c1b&#45;&gt;c2b -->
<g id="edge3" class="edge">
<title>c1b&#45;&gt;c2b</title>
<path fill="none" stroke="#000000" d="M113.2186,-1033.6848C111.3051,-1019.7963 108.899,-1000.1313 107.8973,-982.7947 104.7441,-928.219 104.8277,-914.3751 107.8973,-859.7947 108.6907,-845.6884 110.3653,-830.0779 111.9783,-817.1039"/>
<polygon fill="#000000" stroke="#000000" points="115.4841,-817.2836 113.298,-806.9167 108.5422,-816.3842 115.4841,-817.2836"/>
</g>
<!-- d2 -->
<g id="node6" class="node">
<title>d2</title>
<ellipse fill="none" stroke="#000000" cx="197.8973" cy="-788.8973" rx="29.8071" ry="29.8071"/>
<ellipse fill="none" stroke="#000000" cx="197.8973" cy="-788.8973" rx="33.795" ry="33.795"/>
<text text-anchor="middle" x="197.8973" y="-785.1973" font-family="Times,serif" font-size="14.00" fill="#000000">Dup</text>
</g>
<!-- c1b&#45;&gt;d2 -->
<g id="edge12" class="edge">
<title>c1b&#45;&gt;d2</title>
<path fill="none" stroke="#0000ff" d="M134.2858,-1037.8617C149.3747,-1025.2788 169.8328,-1005.3201 179.8973,-982.7947 201.3383,-934.8075 203.3759,-873.5947 201.6696,-832.9178"/>
<polygon fill="#0000ff" stroke="#0000ff" points="205.1576,-832.5916 201.1493,-822.7843 198.1668,-832.9506 205.1576,-832.5916"/>
<text text-anchor="middle" x="202.8973" y="-917.5947" font-family="Times,serif" font-size="14.00" fill="#000000">1</text>
</g>
<!-- fpa -->
<g id="node12" class="node">
<title>fpa</title>
<ellipse fill="none" stroke="#000000" cx="143.8973" cy="-964.7947" rx="27" ry="18"/>
<text text-anchor="middle" x="143.8973" y="-961.0947" font-family="Times,serif" font-size="14.00" fill="#000000">!p</text>
</g>
<!-- c1b&#45;&gt;fpa -->
<g id="edge11" class="edge">
<title>c1b&#45;&gt;fpa</title>
<path fill="none" stroke="#ff0000" d="M121.699,-1033.7682C125.5539,-1021.7905 130.6892,-1005.8343 135.0496,-992.2858"/>
<polygon fill="#ff0000" stroke="#ff0000" points="138.467,-993.0918 138.199,-982.5004 131.8036,-990.9472 138.467,-993.0918"/>
<text text-anchor="middle" x="135.8973" y="-1004.5947" font-family="Times,serif" font-size="14.00" fill="#000000">0</text>
</g>
<!-- fa -->
<g id="node3" class="node">
<title>fa</title>
<ellipse fill="none" stroke="#000000" cx="143.8973" cy="-877.7947" rx="27" ry="18"/>
<text text-anchor="middle" x="143.8973" y="-874.0947" font-family="Times,serif" font-size="14.00" fill="#000000">PiR</text>
</g>
<!-- fa&#45;&gt;c2b -->
<g id="edge2" class="edge">
<title>fa&#45;&gt;c2b</title>
<path fill="none" stroke="#000000" d="M138.2311,-859.805C134.2963,-847.3124 128.9807,-830.4356 124.5224,-816.281"/>
<polygon fill="#000000" stroke="#000000" points="127.8022,-815.0435 121.4596,-806.5569 121.1255,-817.1465 127.8022,-815.0435"/>
</g>
<!-- fa&#45;&gt;d1 -->
<g id="edge15" class="edge">
<title>fa&#45;&gt;d1</title>
<path fill="none" stroke="#ff0000" d="M126.0848,-863.9045C106.9029,-848.9464 76.2451,-825.0394 54.7083,-808.245"/>
<ellipse fill="none" stroke="#ff0000" cx="51.4944" cy="-805.7388" rx="4" ry="4"/>
</g>
<!-- fa&#45;&gt;d2 -->
<g id="edge14" class="edge">
<title>fa&#45;&gt;d2</title>
<path fill="none" stroke="#0000ff" d="M154.0543,-861.0738C160.1838,-850.9832 168.2414,-837.7183 175.775,-825.3162"/>
<ellipse fill="none" stroke="#0000ff" cx="178.0549" cy="-821.5629" rx="4" ry="4"/>
</g>
<!-- d3 -->
<g id="node7" class="node">
<title>d3</title>
<ellipse fill="none" stroke="#000000" cx="147.8973" cy="-512" rx="29.795" ry="18"/>
<text text-anchor="middle" x="147.8973" y="-508.3" font-family="Times,serif" font-size="14.00" fill="#000000">Dup</text>
</g>
<!-- c2b&#45;&gt;d3 -->
<g id="edge16" class="edge">
<title>c2b&#45;&gt;d3</title>
<path fill="none" stroke="#ff0000" d="M117.997,-770.7293C123.4441,-723.595 138.0605,-597.1189 144.6256,-540.3106"/>
<polygon fill="#ff0000" stroke="#ff0000" points="148.1188,-540.5706 145.79,-530.2349 141.165,-539.767 148.1188,-540.5706"/>
<text text-anchor="middle" x="137.8973" y="-638.8" font-family="Times,serif" font-size="14.00" fill="#000000">2</text>
</g>
<!-- x2i_o2 -->
<g id="node13" class="node">
<title>x2i_o2</title>
<ellipse fill="none" stroke="#000000" cx="84.8973" cy="-686" rx="27" ry="18"/>
<text text-anchor="middle" x="84.8973" y="-682.3" font-family="Times,serif" font-size="14.00" fill="#000000">PiL</text>
</g>
<!-- c2b&#45;&gt;x2i_o2 -->
<g id="edge17" class="edge">
<title>c2b&#45;&gt;x2i_o2</title>
<path fill="none" stroke="#0000ff" d="M110.4976,-770.974C105.719,-755.1126 98.6719,-731.7214 93.1806,-713.4942"/>
<polygon fill="#0000ff" stroke="#0000ff" points="96.4712,-712.2832 90.2353,-703.718 89.7687,-714.3025 96.4712,-712.2832"/>
<text text-anchor="middle" x="104.8973" y="-725.8" font-family="Times,serif" font-size="14.00" fill="#000000">1</text>
</g>
<!-- d1&#45;&gt;d2 -->
<g id="edge4" class="edge">
<title>d1&#45;&gt;d2</title>
<path fill="none" stroke="#000000" stroke-dasharray="5,2" d="M42.3625,-805.4092C52.9196,-817.9172 69.2803,-834.1306 87.8973,-841.2947 111.1257,-850.2333 120.8319,-850.6458 143.8973,-841.2947 156.8507,-836.0432 168.4095,-826.0279 177.4767,-816.1485"/>
</g>
<!-- f_ret -->
<g id="node9" class="node">
<title>f_ret</title>
<ellipse fill="none" stroke="#000000" cx="44.8973" cy="-599" rx="27" ry="18"/>
<text text-anchor="middle" x="44.8973" y="-595.3" font-family="Times,serif" font-size="14.00" fill="#000000">I</text>
</g>
<!-- d1&#45;&gt;f_ret -->
<g id="edge7" class="edge">
<title>d1&#45;&gt;f_ret</title>
<path fill="none" stroke="#ff0000" d="M31.3356,-770.6892C33.9619,-737.4404 39.5503,-666.693 42.6714,-627.1804"/>
<polygon fill="#ff0000" stroke="#ff0000" points="46.165,-627.3976 43.4634,-617.153 39.1868,-626.8463 46.165,-627.3976"/>
</g>
<!-- hi_retpc -->
<g id="node10" class="node">
<title>hi_retpc</title>
<ellipse fill="none" stroke="#000000" cx="197.8973" cy="-686" rx="27" ry="18"/>
<text text-anchor="middle" x="197.8973" y="-682.3" font-family="Times,serif" font-size="14.00" fill="#000000">!c</text>
</g>
<!-- d2&#45;&gt;hi_retpc -->
<g id="edge8" class="edge">
<title>d2&#45;&gt;hi_retpc</title>
<path fill="none" stroke="#0000ff" d="M197.8973,-754.9197C197.8973,-741.7897 197.8973,-726.937 197.8973,-714.3909"/>
<polygon fill="#0000ff" stroke="#0000ff" points="201.3974,-714.0604 197.8973,-704.0604 194.3974,-714.0605 201.3974,-714.0604"/>
</g>
<!-- d4 -->
<g id="node8" class="node">
<title>d4</title>
<ellipse fill="none" stroke="#000000" cx="242.8973" cy="-512" rx="29.795" ry="18"/>
<text text-anchor="middle" x="242.8973" y="-508.3" font-family="Times,serif" font-size="14.00" fill="#000000">Dup</text>
</g>
<!-- d3&#45;&gt;d4 -->
<g id="edge5" class="edge">
<title>d3&#45;&gt;d4</title>
<path fill="none" stroke="#000000" stroke-dasharray="5,2" d="M177.9559,-512C189.6251,-512 201.2943,-512 212.9634,-512"/>
</g>
<!-- hi_ret -->
<g id="node14" class="node">
<title>hi_ret</title>
<ellipse fill="none" stroke="#000000" cx="164.8973" cy="-251" rx="27" ry="18"/>
<text text-anchor="middle" x="164.8973" y="-247.3" font-family="Times,serif" font-size="14.00" fill="#000000">I</text>
</g>
<!-- d3&#45;&gt;hi_ret -->
<g id="edge22" class="edge">
<title>d3&#45;&gt;hi_ret</title>
<path fill="none" stroke="#ff0000" d="M149.0928,-493.647C152.02,-448.7053 159.5628,-332.9017 163.0628,-279.1653"/>
<polygon fill="#ff0000" stroke="#ff0000" points="166.5684,-279.1926 163.7258,-268.9862 159.5832,-278.7376 166.5684,-279.1926"/>
</g>
<!-- h_di -->
<g id="node15" class="node">
<title>h_di</title>
<ellipse fill="none" stroke="#000000" cx="241.8973" cy="-425" rx="27" ry="18"/>
<text text-anchor="middle" x="241.8973" y="-421.3" font-family="Times,serif" font-size="14.00" fill="#000000">!d</text>
</g>
<!-- d4&#45;&gt;h_di -->
<g id="edge23" class="edge">
<title>d4&#45;&gt;h_di</title>
<path fill="none" stroke="#0000ff" d="M242.6901,-493.9735C242.5547,-482.1918 242.3751,-466.5607 242.221,-453.1581"/>
<polygon fill="#0000ff" stroke="#0000ff" points="245.7191,-452.9624 242.1043,-443.0034 238.7195,-453.043 245.7191,-452.9624"/>
<text text-anchor="middle" x="246.8973" y="-464.8" font-family="Times,serif" font-size="14.00" fill="#000000">1</text>
</g>
<!-- hi_retpc&#45;&gt;d4 -->
<g id="edge10" class="edge">
<title>hi_retpc&#45;&gt;d4</title>
<path fill="none" stroke="#0000ff" d="M207.9728,-669.0496C215.5605,-655.4547 225.5406,-635.6322 230.8973,-617 238.1833,-591.6573 241.0707,-561.6764 242.2018,-540.2525"/>
<polygon fill="#0000ff" stroke="#0000ff" points="245.7015,-540.3322 242.6375,-530.1901 238.7081,-540.0293 245.7015,-540.3322"/>
</g>
<!-- hi_retpa -->
<g id="node11" class="node">
<title>hi_retpa</title>
<ellipse fill="none" stroke="#000000" cx="194.8973" cy="-599" rx="27" ry="18"/>
<text text-anchor="middle" x="194.8973" y="-595.3" font-family="Times,serif" font-size="14.00" fill="#000000">!p</text>
</g>
<!-- hi_retpc&#45;&gt;hi_retpa -->
<g id="edge9" class="edge">
<title>hi_retpc&#45;&gt;hi_retpa</title>
<path fill="none" stroke="#0000ff" d="M197.2757,-667.9735C196.8695,-656.1918 196.3305,-640.5607 195.8683,-627.1581"/>
<polygon fill="#0000ff" stroke="#0000ff" points="199.3608,-626.8768 195.5182,-617.0034 192.3649,-627.1181 199.3608,-626.8768"/>
<text text-anchor="middle" x="200.8973" y="-638.8" font-family="Times,serif" font-size="14.00" fill="#000000">1</text>
</g>
<!-- hi_retpa&#45;&gt;d3 -->
<g id="edge20" class="edge">
<title>hi_retpa&#45;&gt;d3</title>
<path fill="none" stroke="#ff0000" d="M185.6117,-581.8116C178.595,-568.8233 168.8702,-550.8221 161.0532,-536.3523"/>
<ellipse fill="none" stroke="#ff0000" cx="159.065" cy="-532.672" rx="4" ry="4"/>
<text text-anchor="middle" x="178.8973" y="-551.8" font-family="Times,serif" font-size="14.00" fill="#000000">2</text>
</g>
<!-- hi_retpa&#45;&gt;d4 -->
<g id="edge21" class="edge">
<title>hi_retpa&#45;&gt;d4</title>
<path fill="none" stroke="#0000ff" d="M204.3806,-581.8116C211.5466,-568.8233 221.4782,-550.8221 229.4616,-536.3523"/>
<ellipse fill="none" stroke="#0000ff" cx="231.5015" cy="-532.655" rx="4" ry="4"/>
<text text-anchor="middle" x="225.8973" y="-551.8" font-family="Times,serif" font-size="14.00" fill="#000000">1</text>
</g>
<!-- fpa&#45;&gt;fa -->
<g id="edge13" class="edge">
<title>fpa&#45;&gt;fa</title>
<path fill="none" stroke="#ff0000" d="M143.8973,-946.7682C143.8973,-934.9865 143.8973,-919.3553 143.8973,-905.9528"/>
<polygon fill="#ff0000" stroke="#ff0000" points="147.3974,-905.798 143.8973,-895.7981 140.3974,-905.7981 147.3974,-905.798"/>
<text text-anchor="middle" x="148.8973" y="-917.5947" font-family="Times,serif" font-size="14.00" fill="#000000">1</text>
</g>
<!-- x2i_o2&#45;&gt;f_ret -->
<g id="edge19" class="edge">
<title>x2i_o2&#45;&gt;f_ret</title>
<path fill="none" stroke="#0000ff" d="M76.8028,-668.3943C71.1271,-656.0496 63.4401,-639.3306 57.0336,-625.3965"/>
<polygon fill="#0000ff" stroke="#0000ff" points="60.2008,-623.9063 52.8434,-616.2827 53.8408,-626.8305 60.2008,-623.9063"/>
</g>
<!-- x2i_o2&#45;&gt;hi_retpa -->
<g id="edge18" class="edge">
<title>x2i_o2&#45;&gt;hi_retpa</title>
<path fill="none" stroke="#ff0000" d="M89.3782,-667.9753C92.8633,-657.2032 98.6906,-643.9227 107.8973,-635 121.929,-621.4012 141.8262,-612.6528 159.0515,-607.1901"/>
<polygon fill="#ff0000" stroke="#ff0000" points="160.1999,-610.5011 168.8203,-604.3416 158.2403,-603.781 160.1999,-610.5011"/>
<text text-anchor="middle" x="112.8973" y="-638.8" font-family="Times,serif" font-size="14.00" fill="#000000">1</text>
</g>
<!-- h -->
<g id="node16" class="node">
<title>h</title>
<ellipse fill="none" stroke="#000000" cx="239.8973" cy="-338" rx="27" ry="18"/>
<text text-anchor="middle" x="239.8973" y="-334.3" font-family="Times,serif" font-size="14.00" fill="#000000">PiL</text>
</g>
<!-- h_di&#45;&gt;h -->
<g id="edge24" class="edge">
<title>h_di&#45;&gt;h</title>
<path fill="none" stroke="#0000ff" d="M241.4829,-406.9735C241.2121,-395.1918 240.8528,-379.5607 240.5447,-366.1581"/>
<polygon fill="#0000ff" stroke="#0000ff" points="244.0402,-365.9202 240.3112,-356.0034 237.0421,-366.0812 244.0402,-365.9202"/>
<text text-anchor="middle" x="245.8973" y="-377.8" font-family="Times,serif" font-size="14.00" fill="#000000">2</text>
</g>
<!-- h&#45;&gt;hi_ret -->
<g id="edge30" class="edge">
<title>h&#45;&gt;hi_ret</title>
<path fill="none" stroke="#0000ff" d="M226.1412,-322.0429C214.7232,-308.798 198.3162,-289.7659 185.3574,-274.7336"/>
<polygon fill="#0000ff" stroke="#0000ff" points="187.7467,-272.1448 178.5663,-266.856 182.4448,-276.7154 187.7467,-272.1448"/>
</g>
<!-- i -->
<g id="node17" class="node">
<title>i</title>
<ellipse fill="none" stroke="#000000" cx="239.8973" cy="-251" rx="27" ry="18"/>
<text text-anchor="middle" x="239.8973" y="-247.3" font-family="Times,serif" font-size="14.00" fill="#000000">!p</text>
</g>
<!-- h&#45;&gt;i -->
<g id="edge29" class="edge">
<title>h&#45;&gt;i</title>
<path fill="none" stroke="#ff0000" d="M239.8973,-319.9735C239.8973,-308.1918 239.8973,-292.5607 239.8973,-279.1581"/>
<polygon fill="#ff0000" stroke="#ff0000" points="243.3974,-279.0033 239.8973,-269.0034 236.3974,-279.0034 243.3974,-279.0033"/>
<text text-anchor="middle" x="244.8973" y="-290.8" font-family="Times,serif" font-size="14.00" fill="#000000">2</text>
</g>
<!-- i_i -->
<g id="node18" class="node">
<title>i_i</title>
<ellipse fill="none" stroke="#000000" cx="239.8973" cy="-164" rx="27" ry="18"/>
<text text-anchor="middle" x="239.8973" y="-160.3" font-family="Times,serif" font-size="14.00" fill="#000000">PiR</text>
</g>
<!-- i&#45;&gt;i_i -->
<g id="edge25" class="edge">
<title>i&#45;&gt;i_i</title>
<path fill="none" stroke="#ff0000" d="M239.8973,-232.9735C239.8973,-221.1918 239.8973,-205.5607 239.8973,-192.1581"/>
<polygon fill="#ff0000" stroke="#ff0000" points="243.3974,-192.0033 239.8973,-182.0034 236.3974,-192.0034 243.3974,-192.0033"/>
<text text-anchor="middle" x="244.8973" y="-203.8" font-family="Times,serif" font-size="14.00" fill="#000000">3</text>
</g>
<!-- il -->
<g id="node19" class="node">
<title>il</title>
<ellipse fill="none" stroke="#000000" cx="282.8973" cy="-91" rx="27" ry="18"/>
<text text-anchor="middle" x="282.8973" y="-87.3" font-family="Times,serif" font-size="14.00" fill="#000000">!d</text>
</g>
<!-- i_i&#45;&gt;il -->
<g id="edge26" class="edge">
<title>i_i&#45;&gt;il</title>
<path fill="none" stroke="#0000ff" d="M249.8705,-147.0688C255.1891,-138.0396 261.8439,-126.742 267.7835,-116.6585"/>
<polygon fill="#0000ff" stroke="#0000ff" points="270.9186,-118.232 272.9783,-107.8393 264.8872,-114.6793 270.9186,-118.232"/>
</g>
<!-- i_ret -->
<g id="node20" class="node">
<title>i_ret</title>
<ellipse fill="none" stroke="#000000" cx="239.8973" cy="-18" rx="27" ry="18"/>
<text text-anchor="middle" x="239.8973" y="-14.3" font-family="Times,serif" font-size="14.00" fill="#000000">I</text>
</g>
<!-- i_i&#45;&gt;i_ret -->
<g id="edge27" class="edge">
<title>i_i&#45;&gt;i_ret</title>
<path fill="none" stroke="#ff0000" d="M239.8973,-145.8042C239.8973,-120.8868 239.8973,-75.8938 239.8973,-46.4877"/>
<polygon fill="#ff0000" stroke="#ff0000" points="243.3974,-46.4251 239.8973,-36.4251 236.3974,-46.4251 243.3974,-46.4251"/>
</g>
<!-- il&#45;&gt;i_ret -->
<g id="edge28" class="edge">
<title>il&#45;&gt;i_ret</title>
<path fill="none" stroke="#0000ff" d="M272.9242,-74.0688C267.6056,-65.0396 260.9508,-53.742 255.0112,-43.6585"/>
<polygon fill="#0000ff" stroke="#0000ff" points="257.9075,-41.6793 249.8164,-34.8393 251.8761,-45.232 257.9075,-41.6793"/>
</g>
</g>
</svg>
