<?xml version="1.0" encoding="UTF-8" standalone="no"?>
<!DOCTYPE svg PUBLIC "-//W3C//DTD SVG 1.1//EN"
 "http://www.w3.org/Graphics/SVG/1.1/DTD/svg11.dtd">
<!-- Generated by graphviz version 2.40.1 (20161225.0304)
 -->
<!-- Title: %3 Pages: 1 -->
<svg width="608pt" height="1157pt"
 viewBox="0.00 0.00 607.95 1157.00" xmlns="http://www.w3.org/2000/svg" xmlns:xlink="http://www.w3.org/1999/xlink">
<g id="graph0" class="graph" transform="scale(1 1) rotate(0) translate(4 1152.9954)">
<title>%3</title>
<polygon fill="#ffffff" stroke="transparent" points="-4,4 -4,-1152.9954 603.9475,-1152.9954 603.9475,4 -4,4"/>
<!-- Root -->
<g id="node1" class="node">
<title>Root</title>
<ellipse fill="none" stroke="#000000" cx="27.9475" cy="-498" rx="27.8951" ry="18"/>
<text text-anchor="middle" x="27.9475" y="-494.3" font-family="Times,serif" font-size="14.00" fill="#000000">Root</text>
</g>
<!-- f_retf -->
<g id="node2" class="node">
<title>f_retf</title>
<ellipse fill="none" stroke="#000000" cx="63.9475" cy="-411" rx="27" ry="18"/>
<text text-anchor="middle" x="63.9475" y="-407.3" font-family="Times,serif" font-size="14.00" fill="#000000">I</text>
</g>
<!-- Root&#45;&gt;f_retf -->
<g id="edge1" class="edge">
<title>Root&#45;&gt;f_retf</title>
<path fill="none" stroke="#ff0000" stroke-width="2" d="M33.0731,-480.2687C36.1378,-470.3381 40.3282,-457.8145 44.9475,-447 46.3503,-443.716 47.9395,-440.3258 49.587,-436.9993"/>
<polygon fill="#ff0000" stroke="#ff0000" stroke-width="2" points="52.7906,-438.4239 54.2777,-427.934 46.5736,-435.207 52.7906,-438.4239"/>
<text text-anchor="middle" x="58.4475" y="-450.8" font-family="Times,serif" font-size="14.00" fill="#000000">0&#45;&gt;1</text>
</g>
<!-- c1a -->
<g id="node3" class="node">
<title>c1a</title>
<ellipse fill="none" stroke="#000000" cx="370.9475" cy="-1130.9954" rx="27" ry="18"/>
<text text-anchor="middle" x="370.9475" y="-1127.2954" font-family="Times,serif" font-size="14.00" fill="#000000">Cut</text>
</g>
<!-- fp1 -->
<g id="node4" class="node">
<title>fp1</title>
<ellipse fill="none" stroke="#000000" cx="342.9475" cy="-1043.9954" rx="27" ry="18"/>
<text text-anchor="middle" x="342.9475" y="-1040.2954" font-family="Times,serif" font-size="14.00" fill="#000000">!p</text>
</g>
<!-- c1a&#45;&gt;fp1 -->
<g id="edge2" class="edge">
<title>c1a&#45;&gt;fp1</title>
<path fill="none" stroke="#ff0000" d="M365.2813,-1113.3896C361.4357,-1101.4407 356.271,-1085.3932 351.8768,-1071.74"/>
<polygon fill="#ff0000" stroke="#ff0000" points="355.0968,-1070.3204 348.7014,-1061.8736 348.4334,-1072.465 355.0968,-1070.3204"/>
<text text-anchor="middle" x="361.4475" y="-1083.7954" font-family="Times,serif" font-size="14.00" fill="#000000">0</text>
</g>
<!-- d2a -->
<g id="node5" class="node">
<title>d2a</title>
<ellipse fill="none" stroke="#000000" cx="407.9475" cy="-672" rx="27" ry="18"/>
<text text-anchor="middle" x="407.9475" y="-668.3" font-family="Times,serif" font-size="14.00" fill="#000000">Dup</text>
</g>
<!-- c1a&#45;&gt;d2a -->
<g id="edge3" class="edge">
<title>c1a&#45;&gt;d2a</title>
<path fill="none" stroke="#0000ff" d="M379.961,-1113.8554C388.1463,-1096.675 398.9475,-1069.2241 398.9475,-1043.9954 398.9475,-1043.9954 398.9475,-1043.9954 398.9475,-759 398.9475,-739.3191 401.2545,-717.2662 403.5324,-700.2878"/>
<polygon fill="#0000ff" stroke="#0000ff" points="407.0611,-700.3319 405.0006,-689.9393 400.1305,-699.3485 407.0611,-700.3319"/>
<text text-anchor="middle" x="402.4475" y="-885.8" font-family="Times,serif" font-size="14.00" fill="#000000">1</text>
</g>
<!-- d1 -->
<g id="node7" class="node">
<title>d1</title>
<ellipse fill="none" stroke="#000000" cx="303.9475" cy="-944.9977" rx="25.9957" ry="25.9957"/>
<ellipse fill="none" stroke="#000000" cx="303.9475" cy="-944.9977" rx="29.9954" ry="29.9954"/>
<text text-anchor="middle" x="303.9475" y="-941.2977" font-family="Times,serif" font-size="14.00" fill="#000000">Dup</text>
</g>
<!-- fp1&#45;&gt;d1 -->
<g id="edge7" class="edge">
<title>fp1&#45;&gt;d1</title>
<path fill="none" stroke="#ff0000" d="M335.9751,-1026.2966C331.1943,-1014.1611 324.6714,-997.6032 318.7595,-982.5965"/>
<polygon fill="#ff0000" stroke="#ff0000" points="321.9091,-981.0423 314.9873,-973.0211 315.3963,-983.608 321.9091,-981.0423"/>
<text text-anchor="middle" x="332.4475" y="-996.7954" font-family="Times,serif" font-size="14.00" fill="#000000">1</text>
</g>
<!-- d2b -->
<g id="node10" class="node">
<title>d2b</title>
<ellipse fill="none" stroke="#000000" cx="248.9475" cy="-498" rx="27" ry="18"/>
<text text-anchor="middle" x="248.9475" y="-494.3" font-family="Times,serif" font-size="14.00" fill="#000000">Dup</text>
</g>
<!-- d2a&#45;&gt;d2b -->
<g id="edge19" class="edge">
<title>d2a&#45;&gt;d2b</title>
<path fill="none" stroke="#000000" stroke-dasharray="5,2" d="M403.2577,-654.0769C394.7187,-624.8623 373.914,-566.9382 335.9475,-534 317.791,-518.2482 307.0733,-525.393 284.9475,-516 280.1878,-513.9794 275.1717,-511.6229 270.4452,-509.2935"/>
</g>
<!-- d2c -->
<g id="node12" class="node">
<title>d2c</title>
<ellipse fill="none" stroke="#000000" cx="248.9475" cy="-411" rx="27" ry="18"/>
<text text-anchor="middle" x="248.9475" y="-407.3" font-family="Times,serif" font-size="14.00" fill="#000000">Dup</text>
</g>
<!-- d2a&#45;&gt;d2c -->
<g id="edge20" class="edge">
<title>d2a&#45;&gt;d2c</title>
<path fill="none" stroke="#000000" stroke-dasharray="5,2" d="M386.9554,-660.5877C382.1113,-658.2132 376.9188,-655.8679 371.9475,-654 342.2796,-642.8527 332.1657,-648.2776 302.9475,-636 247.0754,-612.5224 220.0594,-605.4265 197.9475,-549 180.707,-505.0046 215.0183,-452.5283 235.3764,-426.8044"/>
</g>
<!-- hi_retpa -->
<g id="node18" class="node">
<title>hi_retpa</title>
<ellipse fill="none" stroke="#000000" cx="431.9475" cy="-585" rx="27" ry="18"/>
<text text-anchor="middle" x="431.9475" y="-581.3" font-family="Times,serif" font-size="14.00" fill="#000000">!p</text>
</g>
<!-- d2a&#45;&gt;hi_retpa -->
<g id="edge21" class="edge">
<title>d2a&#45;&gt;hi_retpa</title>
<path fill="none" stroke="#0000ff" d="M412.9203,-653.9735C416.2245,-641.9958 420.6263,-626.0396 424.3638,-612.4912"/>
<polygon fill="#0000ff" stroke="#0000ff" points="427.7778,-613.2764 427.0632,-602.7057 421.0299,-611.4148 427.7778,-613.2764"/>
<text text-anchor="middle" x="424.4475" y="-624.8" font-family="Times,serif" font-size="14.00" fill="#000000">1</text>
</g>
<!-- c1b -->
<g id="node6" class="node">
<title>c1b</title>
<ellipse fill="none" stroke="#000000" cx="218.9475" cy="-1043.9954" rx="27" ry="18"/>
<text text-anchor="middle" x="218.9475" y="-1040.2954" font-family="Times,serif" font-size="14.00" fill="#000000">Cut</text>
</g>
<!-- c1b&#45;&gt;d1 -->
<g id="edge4" class="edge">
<title>c1b&#45;&gt;d1</title>
<path fill="none" stroke="#ff0000" d="M232.6042,-1028.0897C245.0594,-1013.5834 263.7724,-991.7888 278.9086,-974.16"/>
<ellipse fill="none" stroke="#ff0000" cx="281.6993" cy="-970.9097" rx="4" ry="4"/>
<text text-anchor="middle" x="265.4475" y="-996.7954" font-family="Times,serif" font-size="14.00" fill="#000000">1</text>
</g>
<!-- hbf -->
<g id="node8" class="node">
<title>hbf</title>
<ellipse fill="none" stroke="#000000" cx="135.9475" cy="-585" rx="27" ry="18"/>
<text text-anchor="middle" x="135.9475" y="-581.3" font-family="Times,serif" font-size="14.00" fill="#000000">PiL</text>
</g>
<!-- c1b&#45;&gt;hbf -->
<g id="edge5" class="edge">
<title>c1b&#45;&gt;hbf</title>
<path fill="none" stroke="#0000ff" stroke-width="2" d="M200.1482,-1030.5782C178.5188,-1013.4178 145.9475,-981.514 145.9475,-944.9977 145.9475,-944.9977 145.9475,-944.9977 145.9475,-672 145.9475,-652.2947 143.3843,-630.2421 140.8532,-613.27"/>
<polygon fill="#0000ff" stroke="#0000ff" stroke-width="2" points="144.2371,-612.2589 139.2219,-602.9262 137.3226,-613.3494 144.2371,-612.2589"/>
<text text-anchor="middle" x="149.4475" y="-798.8" font-family="Times,serif" font-size="14.00" fill="#000000">2</text>
</g>
<!-- f2 -->
<g id="node9" class="node">
<title>f2</title>
<ellipse fill="none" stroke="#000000" cx="303.9475" cy="-846" rx="27" ry="18"/>
<text text-anchor="middle" x="303.9475" y="-842.3" font-family="Times,serif" font-size="14.00" fill="#000000">PiR</text>
</g>
<!-- d1&#45;&gt;f2 -->
<g id="edge6" class="edge">
<title>d1&#45;&gt;f2</title>
<path fill="none" stroke="#ff0000" d="M303.9475,-914.7572C303.9475,-901.8744 303.9475,-886.9296 303.9475,-874.2703"/>
<polygon fill="#ff0000" stroke="#ff0000" points="307.4476,-874.2694 303.9475,-864.2695 300.4476,-874.2695 307.4476,-874.2694"/>
</g>
<!-- hbf&#45;&gt;d2b -->
<g id="edge8" class="edge">
<title>hbf&#45;&gt;d2b</title>
<path fill="none" stroke="#ff0000" d="M153.8527,-571.2146C172.5321,-556.8331 201.9924,-534.1513 223.1734,-517.8438"/>
<polygon fill="#ff0000" stroke="#ff0000" points="225.3376,-520.5947 231.1261,-511.7209 221.0673,-515.0482 225.3376,-520.5947"/>
</g>
<!-- x2i_o2f -->
<g id="node11" class="node">
<title>x2i_o2f</title>
<ellipse fill="none" stroke="#000000" cx="100.9475" cy="-498" rx="27" ry="18"/>
<text text-anchor="middle" x="100.9475" y="-494.3" font-family="Times,serif" font-size="14.00" fill="#000000">PiL</text>
</g>
<!-- hbf&#45;&gt;x2i_o2f -->
<g id="edge9" class="edge">
<title>hbf&#45;&gt;x2i_o2f</title>
<path fill="none" stroke="#0000ff" stroke-width="2" d="M128.8647,-567.3943C123.9784,-555.2482 117.3884,-538.8674 111.8382,-525.0711"/>
<polygon fill="#0000ff" stroke="#0000ff" stroke-width="2" points="114.9992,-523.5506 108.0198,-515.5796 108.505,-526.1633 114.9992,-523.5506"/>
<text text-anchor="middle" x="134.4475" y="-537.8" font-family="Times,serif" font-size="14.00" fill="#000000">2&#45;&gt;1</text>
</g>
<!-- xdicg -->
<g id="node13" class="node">
<title>xdicg</title>
<ellipse fill="none" stroke="#000000" cx="335.9475" cy="-759" rx="27" ry="18"/>
<text text-anchor="middle" x="335.9475" y="-755.3" font-family="Times,serif" font-size="14.00" fill="#000000">!c</text>
</g>
<!-- f2&#45;&gt;xdicg -->
<g id="edge25" class="edge">
<title>f2&#45;&gt;xdicg</title>
<path fill="none" stroke="#0000ff" d="M310.4232,-828.3943C314.8907,-816.2482 320.9158,-799.8674 325.9903,-786.0711"/>
<polygon fill="#0000ff" stroke="#0000ff" points="329.3142,-787.1731 329.4815,-776.5796 322.7445,-784.7566 329.3142,-787.1731"/>
</g>
<!-- f_retg -->
<g id="node17" class="node">
<title>f_retg</title>
<ellipse fill="none" stroke="#000000" cx="358.9475" cy="-411" rx="27" ry="18"/>
<text text-anchor="middle" x="358.9475" y="-407.3" font-family="Times,serif" font-size="14.00" fill="#000000">I</text>
</g>
<!-- f2&#45;&gt;f_retg -->
<g id="edge24" class="edge">
<title>f2&#45;&gt;f_retg</title>
<path fill="none" stroke="#ff0000" d="M288.937,-830.8253C257.7479,-797.3919 191.7401,-715.47 227.9475,-654 251.675,-613.7174 288.6534,-637.7326 319.9475,-603 361.1214,-557.302 363.5857,-480.3569 361.4836,-439.1147"/>
<polygon fill="#ff0000" stroke="#ff0000" points="364.9655,-438.7179 360.8351,-428.9614 357.9798,-439.1642 364.9655,-438.7179"/>
</g>
<!-- d4b -->
<g id="node19" class="node">
<title>d4b</title>
<ellipse fill="none" stroke="#000000" cx="385.9475" cy="-338" rx="27" ry="18"/>
<text text-anchor="middle" x="385.9475" y="-334.3" font-family="Times,serif" font-size="14.00" fill="#000000">Dup</text>
</g>
<!-- d2b&#45;&gt;d4b -->
<g id="edge22" class="edge">
<title>d2b&#45;&gt;d4b</title>
<path fill="none" stroke="#ff0000" d="M259.0943,-481.0828C272.4045,-459.5354 297.1182,-421.6596 322.9475,-393 334.6756,-379.9869 349.343,-367.0228 361.5739,-356.9522"/>
<ellipse fill="none" stroke="#ff0000" cx="364.9771" cy="-354.1925" rx="4" ry="4"/>
</g>
<!-- x2i_o2f&#45;&gt;f_retf -->
<g id="edge11" class="edge">
<title>x2i_o2f&#45;&gt;f_retf</title>
<path fill="none" stroke="#0000ff" stroke-width="2" d="M93.46,-480.3943C88.2945,-468.2482 81.3279,-451.8674 75.4605,-438.0711"/>
<polygon fill="#0000ff" stroke="#0000ff" stroke-width="2" points="78.5584,-436.4121 71.4239,-428.5796 72.1168,-439.1517 78.5584,-436.4121"/>
</g>
<!-- x2i_o2f&#45;&gt;d2c -->
<g id="edge10" class="edge">
<title>x2i_o2f&#45;&gt;d2c</title>
<path fill="none" stroke="#ff0000" d="M121.216,-486.0854C146.6471,-471.1361 190.4475,-445.3885 219.5562,-428.2773"/>
<polygon fill="#ff0000" stroke="#ff0000" points="221.6018,-431.1348 228.4489,-423.0498 218.0544,-425.1003 221.6018,-431.1348"/>
</g>
<!-- x1_o2 -->
<g id="node20" class="node">
<title>x1_o2</title>
<ellipse fill="none" stroke="#000000" cx="213.9475" cy="-338" rx="27" ry="18"/>
<text text-anchor="middle" x="213.9475" y="-334.3" font-family="Times,serif" font-size="14.00" fill="#000000">I</text>
</g>
<!-- d2c&#45;&gt;x1_o2 -->
<g id="edge23" class="edge">
<title>d2c&#45;&gt;x1_o2</title>
<path fill="none" stroke="#ff0000" d="M240.653,-393.7C236.4685,-384.9724 231.3024,-374.1974 226.6324,-364.4571"/>
<polygon fill="#ff0000" stroke="#ff0000" points="229.6619,-362.6798 222.1825,-355.1758 223.3498,-365.7061 229.6619,-362.6798"/>
</g>
<!-- xdicg&#45;&gt;d2a -->
<g id="edge12" class="edge">
<title>xdicg&#45;&gt;d2a</title>
<path fill="none" stroke="#0000ff" d="M349.1534,-743.0429C360.5207,-729.3075 377.0387,-709.3482 389.6742,-694.0803"/>
<ellipse fill="none" stroke="#0000ff" cx="392.275" cy="-690.9376" rx="4" ry="4"/>
</g>
<!-- h_di2g -->
<g id="node14" class="node">
<title>h_di2g</title>
<ellipse fill="none" stroke="#000000" cx="335.9475" cy="-672" rx="27" ry="18"/>
<text text-anchor="middle" x="335.9475" y="-668.3" font-family="Times,serif" font-size="14.00" fill="#000000">!d</text>
</g>
<!-- xdicg&#45;&gt;h_di2g -->
<g id="edge13" class="edge">
<title>xdicg&#45;&gt;h_di2g</title>
<path fill="none" stroke="#0000ff" d="M335.9475,-740.9735C335.9475,-729.1918 335.9475,-713.5607 335.9475,-700.1581"/>
<polygon fill="#0000ff" stroke="#0000ff" points="339.4476,-700.0033 335.9475,-690.0034 332.4476,-700.0034 339.4476,-700.0033"/>
<text text-anchor="middle" x="339.4475" y="-711.8" font-family="Times,serif" font-size="14.00" fill="#000000">1</text>
</g>
<!-- hbg -->
<g id="node15" class="node">
<title>hbg</title>
<ellipse fill="none" stroke="#000000" cx="283.9475" cy="-585" rx="27" ry="18"/>
<text text-anchor="middle" x="283.9475" y="-581.3" font-family="Times,serif" font-size="14.00" fill="#000000">PiL</text>
</g>
<!-- h_di2g&#45;&gt;hbg -->
<g id="edge14" class="edge">
<title>h_di2g&#45;&gt;hbg</title>
<path fill="none" stroke="#0000ff" d="M325.9214,-655.2255C318.3679,-642.588 307.8778,-625.0371 299.2743,-610.6429"/>
<polygon fill="#0000ff" stroke="#0000ff" points="302.0776,-608.5109 293.9429,-601.723 296.0691,-612.1023 302.0776,-608.5109"/>
<text text-anchor="middle" x="317.4475" y="-624.8" font-family="Times,serif" font-size="14.00" fill="#000000">2</text>
</g>
<!-- hbg&#45;&gt;d2b -->
<g id="edge15" class="edge">
<title>hbg&#45;&gt;d2b</title>
<path fill="none" stroke="#ff0000" d="M276.8647,-567.3943C271.7412,-554.6586 264.7446,-537.2671 259.0376,-523.081"/>
<ellipse fill="none" stroke="#ff0000" cx="257.5127" cy="-519.2905" rx="4" ry="4"/>
</g>
<!-- x2i_o2g -->
<g id="node16" class="node">
<title>x2i_o2g</title>
<ellipse fill="none" stroke="#000000" cx="320.9475" cy="-498" rx="27" ry="18"/>
<text text-anchor="middle" x="320.9475" y="-494.3" font-family="Times,serif" font-size="14.00" fill="#000000">PiL</text>
</g>
<!-- hbg&#45;&gt;x2i_o2g -->
<g id="edge16" class="edge">
<title>hbg&#45;&gt;x2i_o2g</title>
<path fill="none" stroke="#0000ff" d="M291.435,-567.3943C296.6006,-555.2482 303.5671,-538.8674 309.4345,-525.0711"/>
<polygon fill="#0000ff" stroke="#0000ff" points="312.7783,-526.1517 313.4712,-515.5796 306.3366,-523.4121 312.7783,-526.1517"/>
<text text-anchor="middle" x="318.4475" y="-537.8" font-family="Times,serif" font-size="14.00" fill="#000000">2&#45;&gt;1</text>
</g>
<!-- x2i_o2g&#45;&gt;d2c -->
<g id="edge17" class="edge">
<title>x2i_o2g&#45;&gt;d2c</title>
<path fill="none" stroke="#ff0000" d="M307.7416,-482.0429C296.3744,-468.3075 279.8564,-448.3482 267.2209,-433.0803"/>
<ellipse fill="none" stroke="#ff0000" cx="264.62" cy="-429.9376" rx="4" ry="4"/>
</g>
<!-- x2i_o2g&#45;&gt;f_retg -->
<g id="edge18" class="edge">
<title>x2i_o2g&#45;&gt;f_retg</title>
<path fill="none" stroke="#0000ff" d="M328.6374,-480.3943C333.9775,-468.1683 341.1916,-451.6517 347.2421,-437.7992"/>
<polygon fill="#0000ff" stroke="#0000ff" points="350.6035,-438.8476 351.3988,-428.2827 344.1887,-436.0457 350.6035,-438.8476"/>
</g>
<!-- hi_ret1 -->
<g id="node21" class="node">
<title>hi_ret1</title>
<ellipse fill="none" stroke="#000000" cx="457.9475" cy="-338" rx="27" ry="18"/>
<text text-anchor="middle" x="457.9475" y="-334.3" font-family="Times,serif" font-size="14.00" fill="#000000">I</text>
</g>
<!-- hi_retpa&#45;&gt;hi_ret1 -->
<g id="edge32" class="edge">
<title>hi_retpa&#45;&gt;hi_ret1</title>
<path fill="none" stroke="#ff0000" d="M443.0822,-568.5696C451.4966,-555.1045 462.3555,-535.2039 466.9475,-516 479.3383,-464.1822 470.9892,-401.5431 464.1942,-366.0821"/>
<polygon fill="#ff0000" stroke="#ff0000" points="467.5673,-365.1027 462.16,-355.9916 460.7053,-366.4861 467.5673,-365.1027"/>
<text text-anchor="middle" x="476.4475" y="-450.8" font-family="Times,serif" font-size="14.00" fill="#000000">2</text>
</g>
<!-- h_di1 -->
<g id="node24" class="node">
<title>h_di1</title>
<ellipse fill="none" stroke="#000000" cx="430.9475" cy="-498" rx="27" ry="18"/>
<text text-anchor="middle" x="430.9475" y="-494.3" font-family="Times,serif" font-size="14.00" fill="#000000">!d</text>
</g>
<!-- hi_retpa&#45;&gt;h_di1 -->
<g id="edge33" class="edge">
<title>hi_retpa&#45;&gt;h_di1</title>
<path fill="none" stroke="#0000ff" d="M431.7403,-566.9735C431.6049,-555.1918 431.4252,-539.5607 431.2712,-526.1581"/>
<polygon fill="#0000ff" stroke="#0000ff" points="434.7693,-525.9624 431.1545,-516.0034 427.7697,-526.043 434.7693,-525.9624"/>
<text text-anchor="middle" x="434.4475" y="-537.8" font-family="Times,serif" font-size="14.00" fill="#000000">1</text>
</g>
<!-- h_app -->
<g id="node22" class="node">
<title>h_app</title>
<ellipse fill="none" stroke="#000000" cx="439.9475" cy="-251" rx="27" ry="18"/>
<text text-anchor="middle" x="439.9475" y="-247.3" font-family="Times,serif" font-size="14.00" fill="#000000">I</text>
</g>
<!-- d4b&#45;&gt;h_app -->
<g id="edge26" class="edge">
<title>d4b&#45;&gt;h_app</title>
<path fill="none" stroke="#ff0000" d="M396.3593,-321.2255C404.2779,-308.4677 415.3047,-290.7024 424.286,-276.2325"/>
<polygon fill="#ff0000" stroke="#ff0000" points="427.2678,-278.0652 429.5677,-267.723 421.3203,-274.3736 427.2678,-278.0652"/>
</g>
<!-- ha -->
<g id="node23" class="node">
<title>ha</title>
<ellipse fill="none" stroke="#000000" cx="430.9475" cy="-411" rx="27" ry="18"/>
<text text-anchor="middle" x="430.9475" y="-407.3" font-family="Times,serif" font-size="14.00" fill="#000000">PiL</text>
</g>
<!-- ha&#45;&gt;d4b -->
<g id="edge27" class="edge">
<title>ha&#45;&gt;d4b</title>
<path fill="none" stroke="#ff0000" d="M420.5105,-394.0688C414.9445,-385.0396 407.9802,-373.742 401.7644,-363.6585"/>
<polygon fill="#ff0000" stroke="#ff0000" points="404.5549,-361.5153 396.3279,-354.8393 398.596,-365.1886 404.5549,-361.5153"/>
</g>
<!-- ha&#45;&gt;hi_ret1 -->
<g id="edge28" class="edge">
<title>ha&#45;&gt;hi_ret1</title>
<path fill="none" stroke="#0000ff" d="M437.4835,-393.3287C440.6341,-384.8103 444.4816,-374.4078 447.9867,-364.9312"/>
<polygon fill="#0000ff" stroke="#0000ff" points="451.2854,-366.1017 451.4718,-355.5085 444.7201,-363.6734 451.2854,-366.1017"/>
</g>
<!-- h_di1&#45;&gt;ha -->
<g id="edge29" class="edge">
<title>h_di1&#45;&gt;ha</title>
<path fill="none" stroke="#0000ff" d="M430.9475,-479.9735C430.9475,-468.1918 430.9475,-452.5607 430.9475,-439.1581"/>
<polygon fill="#0000ff" stroke="#0000ff" points="434.4476,-439.0033 430.9475,-429.0034 427.4476,-439.0034 434.4476,-439.0033"/>
<text text-anchor="middle" x="434.4475" y="-450.8" font-family="Times,serif" font-size="14.00" fill="#000000">2</text>
</g>
<!-- c2a -->
<g id="node25" class="node">
<title>c2a</title>
<ellipse fill="none" stroke="#000000" cx="263.9475" cy="-672" rx="27" ry="18"/>
<text text-anchor="middle" x="263.9475" y="-668.3" font-family="Times,serif" font-size="14.00" fill="#000000">Cut</text>
</g>
<!-- c2a&#45;&gt;hi_retpa -->
<g id="edge30" class="edge">
<title>c2a&#45;&gt;hi_retpa</title>
<path fill="none" stroke="#ff0000" d="M285.5667,-660.8044C315.0526,-645.5349 368.0319,-618.0992 401.5189,-600.7577"/>
<polygon fill="#ff0000" stroke="#ff0000" points="403.1409,-603.8592 410.4114,-596.1527 399.9219,-597.6433 403.1409,-603.8592"/>
<text text-anchor="middle" x="361.4475" y="-624.8" font-family="Times,serif" font-size="14.00" fill="#000000">1</text>
</g>
<!-- c2a&#45;&gt;x1_o2 -->
<g id="edge31" class="edge">
<title>c2a&#45;&gt;x1_o2</title>
<path fill="none" stroke="#0000ff" d="M256.2686,-654.6703C244.1816,-626.3437 221.2409,-568.0573 212.9475,-516 204.3469,-462.0141 212.4506,-447.6644 212.9475,-393 213.0256,-384.4052 213.1724,-375.0558 213.33,-366.5447"/>
<polygon fill="#0000ff" stroke="#0000ff" points="216.8334,-366.3991 213.5309,-356.3322 209.8348,-366.2614 216.8334,-366.3991"/>
</g>
<!-- c3 -->
<g id="node26" class="node">
<title>c3</title>
<ellipse fill="none" stroke="#000000" cx="529.9475" cy="-338" rx="27" ry="18"/>
<text text-anchor="middle" x="529.9475" y="-334.3" font-family="Times,serif" font-size="14.00" fill="#000000">Cut</text>
</g>
<!-- c3&#45;&gt;h_app -->
<g id="edge35" class="edge">
<title>c3&#45;&gt;h_app</title>
<path fill="none" stroke="#0000ff" d="M514.2707,-322.8458C500.0748,-309.123 478.9829,-288.7342 462.8907,-273.1784"/>
<polygon fill="#0000ff" stroke="#0000ff" points="465.0672,-270.4144 455.4447,-265.9806 460.202,-275.4473 465.0672,-270.4144"/>
</g>
<!-- i -->
<g id="node27" class="node">
<title>i</title>
<ellipse fill="none" stroke="#000000" cx="529.9475" cy="-251" rx="27" ry="18"/>
<text text-anchor="middle" x="529.9475" y="-247.3" font-family="Times,serif" font-size="14.00" fill="#000000">!p</text>
</g>
<!-- c3&#45;&gt;i -->
<g id="edge34" class="edge">
<title>c3&#45;&gt;i</title>
<path fill="none" stroke="#ff0000" d="M529.9475,-319.9735C529.9475,-308.1918 529.9475,-292.5607 529.9475,-279.1581"/>
<polygon fill="#ff0000" stroke="#ff0000" points="533.4476,-279.0033 529.9475,-269.0034 526.4476,-279.0034 533.4476,-279.0033"/>
<text text-anchor="middle" x="533.4475" y="-290.8" font-family="Times,serif" font-size="14.00" fill="#000000">2</text>
</g>
<!-- i_i -->
<g id="node28" class="node">
<title>i_i</title>
<ellipse fill="none" stroke="#000000" cx="529.9475" cy="-164" rx="27" ry="18"/>
<text text-anchor="middle" x="529.9475" y="-160.3" font-family="Times,serif" font-size="14.00" fill="#000000">PiR</text>
</g>
<!-- i&#45;&gt;i_i -->
<g id="edge36" class="edge">
<title>i&#45;&gt;i_i</title>
<path fill="none" stroke="#ff0000" d="M529.9475,-232.9735C529.9475,-221.1918 529.9475,-205.5607 529.9475,-192.1581"/>
<polygon fill="#ff0000" stroke="#ff0000" points="533.4476,-192.0033 529.9475,-182.0034 526.4476,-192.0034 533.4476,-192.0033"/>
<text text-anchor="middle" x="533.4475" y="-203.8" font-family="Times,serif" font-size="14.00" fill="#000000">3</text>
</g>
<!-- il -->
<g id="node29" class="node">
<title>il</title>
<ellipse fill="none" stroke="#000000" cx="572.9475" cy="-91" rx="27" ry="18"/>
<text text-anchor="middle" x="572.9475" y="-87.3" font-family="Times,serif" font-size="14.00" fill="#000000">!d</text>
</g>
<!-- i_i&#45;&gt;il -->
<g id="edge37" class="edge">
<title>i_i&#45;&gt;il</title>
<path fill="none" stroke="#0000ff" d="M539.9207,-147.0688C545.2393,-138.0396 551.894,-126.742 557.8336,-116.6585"/>
<polygon fill="#0000ff" stroke="#0000ff" points="560.9688,-118.232 563.0285,-107.8393 554.9373,-114.6793 560.9688,-118.232"/>
</g>
<!-- i_ret -->
<g id="node30" class="node">
<title>i_ret</title>
<ellipse fill="none" stroke="#000000" cx="529.9475" cy="-18" rx="27" ry="18"/>
<text text-anchor="middle" x="529.9475" y="-14.3" font-family="Times,serif" font-size="14.00" fill="#000000">I</text>
</g>
<!-- i_i&#45;&gt;i_ret -->
<g id="edge38" class="edge">
<title>i_i&#45;&gt;i_ret</title>
<path fill="none" stroke="#ff0000" d="M529.9475,-145.8042C529.9475,-120.8868 529.9475,-75.8938 529.9475,-46.4877"/>
<polygon fill="#ff0000" stroke="#ff0000" points="533.4476,-46.4251 529.9475,-36.4251 526.4476,-46.4251 533.4476,-46.4251"/>
</g>
<!-- il&#45;&gt;i_ret -->
<g id="edge39" class="edge">
<title>il&#45;&gt;i_ret</title>
<path fill="none" stroke="#0000ff" d="M562.9744,-74.0688C557.6558,-65.0396 551.001,-53.742 545.0614,-43.6585"/>
<polygon fill="#0000ff" stroke="#0000ff" points="547.9577,-41.6793 539.8666,-34.8393 541.9263,-45.232 547.9577,-41.6793"/>
</g>
</g>
</svg>
