<?xml version="1.0" encoding="UTF-8" standalone="no"?>
<!DOCTYPE svg PUBLIC "-//W3C//DTD SVG 1.1//EN"
 "http://www.w3.org/Graphics/SVG/1.1/DTD/svg11.dtd">
<!-- Generated by graphviz version 2.43.0 (0)
 -->
<!-- Title: %3 Pages: 1 -->
<svg width="693pt" height="1086pt"
 viewBox="0.00 0.00 693.00 1085.79" xmlns="http://www.w3.org/2000/svg" xmlns:xlink="http://www.w3.org/1999/xlink">
<g id="graph0" class="graph" transform="scale(1 1) rotate(0) translate(4 1081.79)">
<title>%3</title>
<polygon fill="white" stroke="transparent" points="-4,4 -4,-1081.79 689,-1081.79 689,4 -4,4"/>
<!-- Root -->
<g id="node1" class="node">
<title>Root</title>
<ellipse fill="none" stroke="black" cx="516" cy="-885.79" rx="32.49" ry="18"/>
<text text-anchor="middle" x="516" y="-882.09" font-family="Times,serif" font-size="14.00">Root</text>
</g>
<!-- d1 -->
<g id="node2" class="node">
<title>d1</title>
<ellipse fill="none" stroke="black" cx="511" cy="-798.79" rx="29.8" ry="18"/>
<text text-anchor="middle" x="511" y="-795.09" font-family="Times,serif" font-size="14.00">Dup</text>
</g>
<!-- Root&#45;&gt;d1 -->
<g id="edge1" class="edge">
<title>Root&#45;&gt;d1</title>
<path fill="none" stroke="red" stroke-width="2" d="M514.99,-867.59C514.3,-855.96 513.39,-840.34 512.6,-827.03"/>
<polygon fill="red" stroke="red" stroke-width="2" points="516.09,-826.75 512.01,-816.97 509.1,-827.16 516.09,-826.75"/>
<text text-anchor="middle" x="530.5" y="-838.59" font-family="Times,serif" font-size="14.00">0&#45;&gt;1</text>
</g>
<!-- f_ret -->
<g id="node6" class="node">
<title>f_ret</title>
<ellipse fill="none" stroke="black" cx="523" cy="-342" rx="18" ry="18"/>
<ellipse fill="none" stroke="black" cx="523" cy="-342" rx="22" ry="22"/>
<text text-anchor="middle" x="523" y="-338.3" font-family="Times,serif" font-size="14.00">I</text>
</g>
<!-- d1&#45;&gt;f_ret -->
<g id="edge4" class="edge">
<title>d1&#45;&gt;f_ret</title>
<path fill="none" stroke="red" stroke-width="2" d="M521.57,-781.94C531.55,-765.41 545,-738.38 545,-712.79 545,-712.79 545,-712.79 545,-433.9 545,-413 539.44,-390.13 533.91,-372.56"/>
<polygon fill="red" stroke="red" stroke-width="2" points="537.17,-371.27 530.69,-362.88 530.52,-373.48 537.17,-371.27"/>
</g>
<!-- d2a -->
<g id="node9" class="node">
<title>d2a</title>
<ellipse fill="none" stroke="black" cx="134" cy="-711.79" rx="29.8" ry="18"/>
<text text-anchor="middle" x="134" y="-708.09" font-family="Times,serif" font-size="14.00">Dup</text>
</g>
<!-- d1&#45;&gt;d2a -->
<g id="edge21" class="edge">
<title>d1&#45;&gt;d2a</title>
<path fill="none" stroke="black" stroke-dasharray="5,2" d="M484.63,-789.96C472.89,-786.72 458.85,-783.17 446,-780.79 374.33,-767.54 354.42,-777.33 283,-762.79 232.98,-752.62 220.92,-747.36 173,-729.79 167.87,-727.91 162.44,-725.7 157.33,-723.5"/>
</g>
<!-- d2b -->
<g id="node12" class="node">
<title>d2b</title>
<ellipse fill="none" stroke="black" cx="415" cy="-537.79" rx="29.8" ry="18"/>
<text text-anchor="middle" x="415" y="-534.09" font-family="Times,serif" font-size="14.00">Dup</text>
</g>
<!-- d1&#45;&gt;d2b -->
<g id="edge22" class="edge">
<title>d1&#45;&gt;d2b</title>
<path fill="none" stroke="black" stroke-dasharray="5,2" d="M484.59,-790.19C472.84,-786.99 458.8,-783.41 446,-780.79 392.73,-769.9 374.43,-785.44 325,-762.79 282.31,-743.23 287.33,-714.12 245,-693.79 205.47,-674.82 176.03,-709.51 148,-675.79 113.07,-633.78 314.62,-568.64 388.58,-546.48"/>
</g>
<!-- d2c -->
<g id="node14" class="node">
<title>d2c</title>
<ellipse fill="none" stroke="black" cx="306" cy="-434.9" rx="29.8" ry="18"/>
<text text-anchor="middle" x="306" y="-431.2" font-family="Times,serif" font-size="14.00">Dup</text>
</g>
<!-- d1&#45;&gt;d2c -->
<g id="edge23" class="edge">
<title>d1&#45;&gt;d2c</title>
<path fill="none" stroke="black" stroke-dasharray="5,2" d="M484.05,-790.69C446.66,-780.81 383.34,-763.99 381,-762.79 360.15,-752.19 352.09,-749.82 340,-729.79 311.6,-682.74 306.92,-508.98 306.15,-453.23"/>
</g>
<!-- d2d -->
<g id="node15" class="node">
<title>d2d</title>
<ellipse fill="none" stroke="black" cx="483" cy="-434.9" rx="29.81" ry="29.81"/>
<ellipse fill="none" stroke="black" cx="483" cy="-434.9" rx="33.8" ry="33.8"/>
<text text-anchor="middle" x="483" y="-431.2" font-family="Times,serif" font-size="14.00">Dup</text>
</g>
<!-- d1&#45;&gt;d2d -->
<g id="edge24" class="edge">
<title>d1&#45;&gt;d2d</title>
<path fill="none" stroke="black" stroke-dasharray="5,2" d="M484.26,-790.45C457.72,-782.89 419.18,-771.08 406,-762.79 333.63,-717.29 338.5,-673.05 324,-588.79 322.87,-582.22 321.51,-579.98 324,-573.79 336.57,-542.62 413.21,-485.02 455.33,-455.09"/>
</g>
<!-- c1a -->
<g id="node3" class="node">
<title>c1a</title>
<ellipse fill="none" stroke="black" cx="635" cy="-1059.79" rx="27.1" ry="18"/>
<text text-anchor="middle" x="635" y="-1056.09" font-family="Times,serif" font-size="14.00">Cut</text>
</g>
<!-- fp1 -->
<g id="node4" class="node">
<title>fp1</title>
<ellipse fill="none" stroke="black" cx="478" cy="-972.79" rx="27" ry="18"/>
<text text-anchor="middle" x="478" y="-969.09" font-family="Times,serif" font-size="14.00">!p</text>
</g>
<!-- c1a&#45;&gt;fp1 -->
<g id="edge2" class="edge">
<title>c1a&#45;&gt;fp1</title>
<path fill="none" stroke="red" d="M614.47,-1047.68C587.21,-1032.92 538.85,-1006.74 507.63,-989.84"/>
<polygon fill="red" stroke="red" points="508.99,-986.59 498.53,-984.91 505.66,-992.75 508.99,-986.59"/>
<text text-anchor="middle" x="570" y="-1012.59" font-family="Times,serif" font-size="14.00">0</text>
</g>
<!-- x1_o1 -->
<g id="node5" class="node">
<title>x1_o1</title>
<ellipse fill="none" stroke="black" cx="658" cy="-798.79" rx="27" ry="18"/>
<text text-anchor="middle" x="658" y="-795.09" font-family="Times,serif" font-size="14.00">I</text>
</g>
<!-- c1a&#45;&gt;x1_o1 -->
<g id="edge3" class="edge">
<title>c1a&#45;&gt;x1_o1</title>
<path fill="none" stroke="blue" d="M636.51,-1041.8C640.41,-997.9 650.84,-880.39 655.59,-826.94"/>
<polygon fill="blue" stroke="blue" points="659.09,-827.12 656.49,-816.85 652.11,-826.5 659.09,-827.12"/>
</g>
<!-- f2 -->
<g id="node23" class="node">
<title>f2</title>
<ellipse fill="none" stroke="black" cx="439" cy="-885.79" rx="27" ry="18"/>
<text text-anchor="middle" x="439" y="-882.09" font-family="Times,serif" font-size="14.00">PiR</text>
</g>
<!-- fp1&#45;&gt;f2 -->
<g id="edge31" class="edge">
<title>fp1&#45;&gt;f2</title>
<path fill="none" stroke="red" d="M470.48,-955.41C464.87,-943.18 457.1,-926.24 450.68,-912.25"/>
<polygon fill="red" stroke="red" points="453.85,-910.76 446.5,-903.13 447.49,-913.68 453.85,-910.76"/>
<text text-anchor="middle" x="465" y="-925.59" font-family="Times,serif" font-size="14.00">1</text>
</g>
<!-- c1bb -->
<g id="node7" class="node">
<title>c1bb</title>
<ellipse fill="none" stroke="black" cx="599" cy="-885.79" rx="27.1" ry="18"/>
<text text-anchor="middle" x="599" y="-882.09" font-family="Times,serif" font-size="14.00">Cut</text>
</g>
<!-- c1bb&#45;&gt;x1_o1 -->
<g id="edge5" class="edge">
<title>c1bb&#45;&gt;x1_o1</title>
<path fill="none" stroke="red" d="M609.18,-868.88C615.59,-858.98 624.12,-846.04 632,-834.79 634.54,-831.17 637.28,-827.37 639.99,-823.67"/>
<polygon fill="red" stroke="red" points="643.02,-825.46 646.16,-815.34 637.4,-821.29 643.02,-825.46"/>
<text text-anchor="middle" x="637" y="-838.59" font-family="Times,serif" font-size="14.00">0</text>
</g>
<!-- xdicf -->
<g id="node8" class="node">
<title>xdicf</title>
<ellipse fill="none" stroke="black" cx="586" cy="-798.79" rx="27" ry="18"/>
<text text-anchor="middle" x="586" y="-795.09" font-family="Times,serif" font-size="14.00">!c</text>
</g>
<!-- c1bb&#45;&gt;xdicf -->
<g id="edge6" class="edge">
<title>c1bb&#45;&gt;xdicf</title>
<path fill="none" stroke="blue" d="M596.37,-867.59C594.59,-855.96 592.2,-840.34 590.17,-827.03"/>
<polygon fill="blue" stroke="blue" points="593.6,-826.33 588.63,-816.97 586.68,-827.38 593.6,-826.33"/>
<text text-anchor="middle" x="598" y="-838.59" font-family="Times,serif" font-size="14.00">1</text>
</g>
<!-- xdicf&#45;&gt;d2a -->
<g id="edge7" class="edge">
<title>xdicf&#45;&gt;d2a</title>
<path fill="none" stroke="blue" d="M564.96,-787.06C560.12,-784.82 554.94,-782.59 550,-780.79 495.59,-761.02 481.11,-757.24 424,-747.79 313.66,-729.55 281.6,-756.52 173,-729.79 170.55,-729.19 168.06,-728.45 165.59,-727.61"/>
<polygon fill="blue" stroke="blue" points="166.82,-724.34 156.23,-724.02 164.32,-730.87 166.82,-724.34"/>
</g>
<!-- h_di2f -->
<g id="node10" class="node">
<title>h_di2f</title>
<ellipse fill="none" stroke="black" cx="490" cy="-711.79" rx="27" ry="18"/>
<text text-anchor="middle" x="490" y="-708.09" font-family="Times,serif" font-size="14.00">!d</text>
</g>
<!-- xdicf&#45;&gt;h_di2f -->
<g id="edge8" class="edge">
<title>xdicf&#45;&gt;h_di2f</title>
<path fill="none" stroke="blue" d="M588.53,-780.41C589.1,-769.96 587.98,-756.95 581,-747.79 568.12,-730.91 546.01,-722.17 526.81,-717.65"/>
<polygon fill="blue" stroke="blue" points="527.31,-714.17 516.81,-715.59 525.9,-721.03 527.31,-714.17"/>
<text text-anchor="middle" x="592" y="-751.59" font-family="Times,serif" font-size="14.00">1</text>
</g>
<!-- hi_retpa -->
<g id="node20" class="node">
<title>hi_retpa</title>
<ellipse fill="none" stroke="black" cx="104" cy="-624.79" rx="27" ry="18"/>
<text text-anchor="middle" x="104" y="-621.09" font-family="Times,serif" font-size="14.00">!p</text>
</g>
<!-- d2a&#45;&gt;hi_retpa -->
<g id="edge25" class="edge">
<title>d2a&#45;&gt;hi_retpa</title>
<path fill="none" stroke="blue" d="M108.59,-701.95C96.75,-696.41 83.8,-687.96 77,-675.79 71.89,-666.66 75.65,-656.51 81.81,-647.75"/>
<polygon fill="blue" stroke="blue" points="84.64,-649.83 88.24,-639.86 79.21,-645.41 84.64,-649.83"/>
<text text-anchor="middle" x="82" y="-664.59" font-family="Times,serif" font-size="14.00">1</text>
</g>
<!-- hbf -->
<g id="node11" class="node">
<title>hbf</title>
<ellipse fill="none" stroke="black" cx="490" cy="-624.79" rx="27" ry="18"/>
<text text-anchor="middle" x="490" y="-621.09" font-family="Times,serif" font-size="14.00">PiL</text>
</g>
<!-- h_di2f&#45;&gt;hbf -->
<g id="edge9" class="edge">
<title>h_di2f&#45;&gt;hbf</title>
<path fill="none" stroke="blue" d="M490,-693.59C490,-681.96 490,-666.34 490,-653.03"/>
<polygon fill="blue" stroke="blue" points="493.5,-652.97 490,-642.97 486.5,-652.97 493.5,-652.97"/>
<text text-anchor="middle" x="495" y="-664.59" font-family="Times,serif" font-size="14.00">2</text>
</g>
<!-- hbf&#45;&gt;d2b -->
<g id="edge10" class="edge">
<title>hbf&#45;&gt;d2b</title>
<path fill="none" stroke="red" d="M476.94,-608.99C465.46,-595.99 448.58,-576.86 435.34,-561.85"/>
<polygon fill="red" stroke="red" points="437.66,-559.19 428.42,-554 432.41,-563.82 437.66,-559.19"/>
</g>
<!-- x2i_o2f -->
<g id="node13" class="node">
<title>x2i_o2f</title>
<ellipse fill="none" stroke="black" cx="490" cy="-537.79" rx="27" ry="18"/>
<text text-anchor="middle" x="490" y="-534.09" font-family="Times,serif" font-size="14.00">PiL</text>
</g>
<!-- hbf&#45;&gt;x2i_o2f -->
<g id="edge11" class="edge">
<title>hbf&#45;&gt;x2i_o2f</title>
<path fill="none" stroke="blue" d="M490,-606.59C490,-594.96 490,-579.34 490,-566.03"/>
<polygon fill="blue" stroke="blue" points="493.5,-565.97 490,-555.97 486.5,-565.97 493.5,-565.97"/>
<text text-anchor="middle" x="507.5" y="-577.59" font-family="Times,serif" font-size="14.00">2&#45;&gt;1</text>
</g>
<!-- d4b -->
<g id="node21" class="node">
<title>d4b</title>
<ellipse fill="none" stroke="black" cx="201" cy="-342" rx="29.8" ry="18"/>
<text text-anchor="middle" x="201" y="-338.3" font-family="Times,serif" font-size="14.00">Dup</text>
</g>
<!-- d2b&#45;&gt;d4b -->
<g id="edge26" class="edge">
<title>d2b&#45;&gt;d4b</title>
<path fill="none" stroke="red" d="M410.48,-519.8C402.12,-491.46 381.66,-434.4 345,-401 314.55,-373.26 269.13,-357.97 237.47,-350.15"/>
<ellipse fill="none" stroke="red" cx="233.22" cy="-349.15" rx="4" ry="4"/>
</g>
<!-- x2i_o2f&#45;&gt;d2c -->
<g id="edge12" class="edge">
<title>x2i_o2f&#45;&gt;d2c</title>
<path fill="none" stroke="red" d="M469.61,-525.61C437.26,-507.87 374.01,-473.19 336.33,-452.53"/>
<polygon fill="red" stroke="red" points="337.79,-449.34 327.34,-447.6 334.42,-455.47 337.79,-449.34"/>
</g>
<!-- x2i_o2f&#45;&gt;d2d -->
<g id="edge13" class="edge">
<title>x2i_o2f&#45;&gt;d2d</title>
<path fill="none" stroke="blue" d="M488.81,-519.68C488.04,-508.55 487,-493.5 486.01,-479.23"/>
<polygon fill="blue" stroke="blue" points="489.48,-478.78 485.3,-469.04 482.5,-479.26 489.48,-478.78"/>
</g>
<!-- x1_o2 -->
<g id="node22" class="node">
<title>x1_o2</title>
<ellipse fill="none" stroke="black" cx="333" cy="-342" rx="27" ry="18"/>
<text text-anchor="middle" x="333" y="-338.3" font-family="Times,serif" font-size="14.00">I</text>
</g>
<!-- d2c&#45;&gt;x1_o2 -->
<g id="edge27" class="edge">
<title>d2c&#45;&gt;x1_o2</title>
<path fill="none" stroke="red" d="M311.08,-416.8C315.03,-403.51 320.57,-384.84 325.1,-369.61"/>
<polygon fill="red" stroke="red" points="328.54,-370.3 328.04,-359.71 321.83,-368.3 328.54,-370.3"/>
</g>
<!-- d2d&#45;&gt;f_ret -->
<g id="edge28" class="edge">
<title>d2d&#45;&gt;f_ret</title>
<path fill="none" stroke="blue" stroke-width="2" d="M496.32,-403.63C500.87,-393.3 505.93,-381.78 510.42,-371.59"/>
<polygon fill="blue" stroke="blue" stroke-width="2" points="513.68,-372.86 514.51,-362.3 507.28,-370.04 513.68,-372.86"/>
</g>
<!-- xdicg -->
<g id="node16" class="node">
<title>xdicg</title>
<ellipse fill="none" stroke="black" cx="410" cy="-798.79" rx="27" ry="18"/>
<text text-anchor="middle" x="410" y="-795.09" font-family="Times,serif" font-size="14.00">!c</text>
</g>
<!-- xdicg&#45;&gt;d2a -->
<g id="edge14" class="edge">
<title>xdicg&#45;&gt;d2a</title>
<path fill="none" stroke="blue" d="M383.26,-795.56C346.31,-791.85 277.95,-782.76 223,-762.79 200.55,-754.64 177.08,-741.22 159.88,-730.33"/>
<ellipse fill="none" stroke="blue" cx="156.27" cy="-728.01" rx="4" ry="4"/>
</g>
<!-- h_di2g -->
<g id="node17" class="node">
<title>h_di2g</title>
<ellipse fill="none" stroke="black" cx="410" cy="-711.79" rx="27" ry="18"/>
<text text-anchor="middle" x="410" y="-708.09" font-family="Times,serif" font-size="14.00">!d</text>
</g>
<!-- xdicg&#45;&gt;h_di2g -->
<g id="edge15" class="edge">
<title>xdicg&#45;&gt;h_di2g</title>
<path fill="none" stroke="blue" d="M410,-780.59C410,-768.96 410,-753.34 410,-740.03"/>
<polygon fill="blue" stroke="blue" points="413.5,-739.97 410,-729.97 406.5,-739.97 413.5,-739.97"/>
<text text-anchor="middle" x="415" y="-751.59" font-family="Times,serif" font-size="14.00">1</text>
</g>
<!-- hbg -->
<g id="node18" class="node">
<title>hbg</title>
<ellipse fill="none" stroke="black" cx="410" cy="-624.79" rx="27" ry="18"/>
<text text-anchor="middle" x="410" y="-621.09" font-family="Times,serif" font-size="14.00">PiL</text>
</g>
<!-- h_di2g&#45;&gt;hbg -->
<g id="edge16" class="edge">
<title>h_di2g&#45;&gt;hbg</title>
<path fill="none" stroke="blue" d="M410,-693.59C410,-681.96 410,-666.34 410,-653.03"/>
<polygon fill="blue" stroke="blue" points="413.5,-652.97 410,-642.97 406.5,-652.97 413.5,-652.97"/>
<text text-anchor="middle" x="415" y="-664.59" font-family="Times,serif" font-size="14.00">2</text>
</g>
<!-- hbg&#45;&gt;d2b -->
<g id="edge17" class="edge">
<title>hbg&#45;&gt;d2b</title>
<path fill="none" stroke="red" d="M411.01,-606.59C411.73,-594.38 412.71,-577.79 413.51,-564.07"/>
<ellipse fill="none" stroke="red" cx="413.75" cy="-559.96" rx="4" ry="4"/>
</g>
<!-- x2i_o2g -->
<g id="node19" class="node">
<title>x2i_o2g</title>
<ellipse fill="none" stroke="black" cx="264" cy="-537.79" rx="27" ry="18"/>
<text text-anchor="middle" x="264" y="-534.09" font-family="Times,serif" font-size="14.00">PiL</text>
</g>
<!-- hbg&#45;&gt;x2i_o2g -->
<g id="edge18" class="edge">
<title>hbg&#45;&gt;x2i_o2g</title>
<path fill="none" stroke="blue" d="M390.31,-612.33C365.17,-597.69 321.47,-572.25 292.64,-555.47"/>
<polygon fill="blue" stroke="blue" points="294.25,-552.35 283.84,-550.35 290.73,-558.4 294.25,-552.35"/>
<text text-anchor="middle" x="362.5" y="-577.59" font-family="Times,serif" font-size="14.00">2&#45;&gt;1</text>
</g>
<!-- x2i_o2g&#45;&gt;d2c -->
<g id="edge19" class="edge">
<title>x2i_o2g&#45;&gt;d2c</title>
<path fill="none" stroke="red" d="M267.73,-519.81C270.13,-509.98 273.63,-497.48 278,-486.79 281.84,-477.41 286.98,-467.54 291.81,-459.02"/>
<ellipse fill="none" stroke="red" cx="293.92" cy="-455.39" rx="4" ry="4"/>
</g>
<!-- x2i_o2g&#45;&gt;d2d -->
<g id="edge20" class="edge">
<title>x2i_o2g&#45;&gt;d2d</title>
<path fill="none" stroke="blue" d="M285.8,-526.75C323,-509.61 399.18,-474.51 445.2,-453.31"/>
<ellipse fill="none" stroke="blue" cx="448.96" cy="-451.58" rx="4" ry="4"/>
</g>
<!-- hi_ret1 -->
<g id="node24" class="node">
<title>hi_ret1</title>
<ellipse fill="none" stroke="black" cx="126" cy="-342" rx="27" ry="18"/>
<text text-anchor="middle" x="126" y="-338.3" font-family="Times,serif" font-size="14.00">I</text>
</g>
<!-- hi_retpa&#45;&gt;hi_ret1 -->
<g id="edge38" class="edge">
<title>hi_retpa&#45;&gt;hi_ret1</title>
<path fill="none" stroke="red" d="M104.64,-606.71C106.14,-569.34 110.33,-477.55 118,-401 119.02,-390.82 120.47,-379.69 121.86,-369.92"/>
<polygon fill="red" stroke="red" points="125.33,-370.37 123.32,-359.96 118.41,-369.35 125.33,-370.37"/>
<text text-anchor="middle" x="116" y="-490.59" font-family="Times,serif" font-size="14.00">2</text>
</g>
<!-- h_di1 -->
<g id="node27" class="node">
<title>h_di1</title>
<ellipse fill="none" stroke="black" cx="154" cy="-537.79" rx="27" ry="18"/>
<text text-anchor="middle" x="154" y="-534.09" font-family="Times,serif" font-size="14.00">!d</text>
</g>
<!-- hi_retpa&#45;&gt;h_di1 -->
<g id="edge39" class="edge">
<title>hi_retpa&#45;&gt;h_di1</title>
<path fill="none" stroke="blue" d="M113.4,-607.81C120.74,-595.34 131.05,-577.81 139.45,-563.53"/>
<polygon fill="blue" stroke="blue" points="142.58,-565.1 144.64,-554.71 136.55,-561.56 142.58,-565.1"/>
<text text-anchor="middle" x="137" y="-577.59" font-family="Times,serif" font-size="14.00">1</text>
</g>
<!-- h_app -->
<g id="node25" class="node">
<title>h_app</title>
<ellipse fill="none" stroke="black" cx="163" cy="-251" rx="27" ry="18"/>
<text text-anchor="middle" x="163" y="-247.3" font-family="Times,serif" font-size="14.00">I</text>
</g>
<!-- d4b&#45;&gt;h_app -->
<g id="edge32" class="edge">
<title>d4b&#45;&gt;h_app</title>
<path fill="none" stroke="red" d="M193.85,-324.26C188.28,-311.21 180.44,-292.85 174.06,-277.9"/>
<polygon fill="red" stroke="red" points="177.26,-276.49 170.12,-268.67 170.82,-279.24 177.26,-276.49"/>
</g>
<!-- f2&#45;&gt;d1 -->
<g id="edge29" class="edge">
<title>f2&#45;&gt;d1</title>
<path fill="none" stroke="red" d="M451.87,-869.6C463.27,-856.14 480.03,-836.36 492.8,-821.29"/>
<ellipse fill="none" stroke="red" cx="495.41" cy="-818.2" rx="4" ry="4"/>
</g>
<!-- f2&#45;&gt;xdicg -->
<g id="edge30" class="edge">
<title>f2&#45;&gt;xdicg</title>
<path fill="none" stroke="blue" d="M433.27,-868C429.22,-856.13 423.7,-839.96 419.06,-826.35"/>
<polygon fill="blue" stroke="blue" points="422.26,-824.89 415.72,-816.55 415.63,-827.15 422.26,-824.89"/>
</g>
<!-- ha -->
<g id="node26" class="node">
<title>ha</title>
<ellipse fill="none" stroke="black" cx="154" cy="-434.9" rx="27" ry="18"/>
<text text-anchor="middle" x="154" y="-431.2" font-family="Times,serif" font-size="14.00">PiL</text>
</g>
<!-- ha&#45;&gt;d4b -->
<g id="edge33" class="edge">
<title>ha&#45;&gt;d4b</title>
<path fill="none" stroke="red" d="M162.4,-417.65C169.44,-404.03 179.62,-384.35 187.76,-368.61"/>
<polygon fill="red" stroke="red" points="191.03,-369.91 192.51,-359.42 184.81,-366.69 191.03,-369.91"/>
</g>
<!-- ha&#45;&gt;hi_ret1 -->
<g id="edge34" class="edge">
<title>ha&#45;&gt;hi_ret1</title>
<path fill="none" stroke="blue" d="M148.86,-417.23C144.79,-403.98 139,-385.2 134.27,-369.85"/>
<polygon fill="blue" stroke="blue" points="137.49,-368.4 131.2,-359.87 130.8,-370.46 137.49,-368.4"/>
</g>
<!-- h_di1&#45;&gt;ha -->
<g id="edge35" class="edge">
<title>h_di1&#45;&gt;ha</title>
<path fill="none" stroke="blue" d="M154,-519.68C154,-504.24 154,-481.27 154,-463.28"/>
<polygon fill="blue" stroke="blue" points="157.5,-463.1 154,-453.1 150.5,-463.1 157.5,-463.1"/>
<text text-anchor="middle" x="159" y="-490.59" font-family="Times,serif" font-size="14.00">2</text>
</g>
<!-- c2a -->
<g id="node28" class="node">
<title>c2a</title>
<ellipse fill="none" stroke="black" cx="209" cy="-711.79" rx="27.1" ry="18"/>
<text text-anchor="middle" x="209" y="-708.09" font-family="Times,serif" font-size="14.00">Cut</text>
</g>
<!-- c2a&#45;&gt;hi_retpa -->
<g id="edge36" class="edge">
<title>c2a&#45;&gt;hi_retpa</title>
<path fill="none" stroke="red" d="M187.93,-700.14C183.09,-697.89 177.92,-695.64 173,-693.79 145.74,-683.54 128.89,-697.95 110,-675.79 104.72,-669.6 102.48,-661.29 101.78,-653.22"/>
<polygon fill="red" stroke="red" points="105.28,-652.9 101.61,-642.96 98.28,-653.02 105.28,-652.9"/>
<text text-anchor="middle" x="115" y="-664.59" font-family="Times,serif" font-size="14.00">1</text>
</g>
<!-- c2a&#45;&gt;x1_o2 -->
<g id="edge37" class="edge">
<title>c2a&#45;&gt;x1_o2</title>
<path fill="none" stroke="blue" d="M209,-693.54C209,-676.37 209,-649.26 209,-625.79 209,-625.79 209,-625.79 209,-433.9 209,-389.37 261.65,-364.28 298.34,-352.2"/>
<polygon fill="blue" stroke="blue" points="299.69,-355.44 308.2,-349.13 297.62,-348.76 299.69,-355.44"/>
</g>
<!-- c3 -->
<g id="node29" class="node">
<title>c3</title>
<ellipse fill="none" stroke="black" cx="54" cy="-342" rx="27.1" ry="18"/>
<text text-anchor="middle" x="54" y="-338.3" font-family="Times,serif" font-size="14.00">Cut</text>
</g>
<!-- c3&#45;&gt;h_app -->
<g id="edge41" class="edge">
<title>c3&#45;&gt;h_app</title>
<path fill="none" stroke="blue" d="M70.55,-327.48C88.75,-312.63 118.13,-288.63 138.89,-271.69"/>
<polygon fill="blue" stroke="blue" points="141.11,-274.39 146.65,-265.35 136.69,-268.97 141.11,-274.39"/>
</g>
<!-- i -->
<g id="node30" class="node">
<title>i</title>
<ellipse fill="none" stroke="black" cx="54" cy="-251" rx="27" ry="18"/>
<text text-anchor="middle" x="54" y="-247.3" font-family="Times,serif" font-size="14.00">!p</text>
</g>
<!-- c3&#45;&gt;i -->
<g id="edge40" class="edge">
<title>c3&#45;&gt;i</title>
<path fill="none" stroke="red" d="M54,-323.84C54,-311.28 54,-293.98 54,-279.5"/>
<polygon fill="red" stroke="red" points="57.5,-279.11 54,-269.11 50.5,-279.11 57.5,-279.11"/>
<text text-anchor="middle" x="59" y="-290.8" font-family="Times,serif" font-size="14.00">2</text>
</g>
<!-- i_i -->
<g id="node31" class="node">
<title>i_i</title>
<ellipse fill="none" stroke="black" cx="54" cy="-164" rx="27" ry="18"/>
<text text-anchor="middle" x="54" y="-160.3" font-family="Times,serif" font-size="14.00">PiR</text>
</g>
<!-- i&#45;&gt;i_i -->
<g id="edge42" class="edge">
<title>i&#45;&gt;i_i</title>
<path fill="none" stroke="red" d="M54,-232.8C54,-221.16 54,-205.55 54,-192.24"/>
<polygon fill="red" stroke="red" points="57.5,-192.18 54,-182.18 50.5,-192.18 57.5,-192.18"/>
<text text-anchor="middle" x="59" y="-203.8" font-family="Times,serif" font-size="14.00">3</text>
</g>
<!-- il -->
<g id="node32" class="node">
<title>il</title>
<ellipse fill="none" stroke="black" cx="27" cy="-91" rx="27" ry="18"/>
<text text-anchor="middle" x="27" y="-87.3" font-family="Times,serif" font-size="14.00">!d</text>
</g>
<!-- i_i&#45;&gt;il -->
<g id="edge43" class="edge">
<title>i_i&#45;&gt;il</title>
<path fill="none" stroke="blue" d="M47.6,-146.17C44.44,-137.86 40.55,-127.64 37.01,-118.33"/>
<polygon fill="blue" stroke="blue" points="40.18,-116.81 33.35,-108.71 33.64,-119.3 40.18,-116.81"/>
</g>
<!-- i_ret -->
<g id="node33" class="node">
<title>i_ret</title>
<ellipse fill="none" stroke="black" cx="54" cy="-18" rx="27" ry="18"/>
<text text-anchor="middle" x="54" y="-14.3" font-family="Times,serif" font-size="14.00">I</text>
</g>
<!-- i_i&#45;&gt;i_ret -->
<g id="edge44" class="edge">
<title>i_i&#45;&gt;i_ret</title>
<path fill="none" stroke="red" d="M57.56,-146.07C59.6,-135.47 61.97,-121.5 63,-109 64.32,-93.05 64.32,-88.95 63,-73 62.26,-64.11 60.86,-54.48 59.37,-45.85"/>
<polygon fill="red" stroke="red" points="62.8,-45.14 57.56,-35.93 55.92,-46.4 62.8,-45.14"/>
</g>
<!-- il&#45;&gt;i_ret -->
<g id="edge45" class="edge">
<title>il&#45;&gt;i_ret</title>
<path fill="none" stroke="blue" d="M33.4,-73.17C36.56,-64.86 40.45,-54.64 43.99,-45.33"/>
<polygon fill="blue" stroke="blue" points="47.36,-46.3 47.65,-35.71 40.82,-43.81 47.36,-46.3"/>
</g>
</g>
</svg>
