<?xml version="1.0" encoding="UTF-8" standalone="no"?>
<!DOCTYPE svg PUBLIC "-//W3C//DTD SVG 1.1//EN"
 "http://www.w3.org/Graphics/SVG/1.1/DTD/svg11.dtd">
<!-- Generated by graphviz version 2.43.0 (0)
 -->
<!-- Title: %3 Pages: 1 -->
<svg width="600pt" height="1151pt"
 viewBox="0.00 0.00 599.90 1150.79" xmlns="http://www.w3.org/2000/svg" xmlns:xlink="http://www.w3.org/1999/xlink">
<g id="graph0" class="graph" transform="scale(1 1) rotate(0) translate(4 1146.79)">
<title>%3</title>
<polygon fill="white" stroke="transparent" points="-4,4 -4,-1146.79 595.9,-1146.79 595.9,4 -4,4"/>
<!-- Root -->
<g id="node1" class="node">
<title>Root</title>
<ellipse fill="none" stroke="black" cx="280" cy="-484" rx="32.49" ry="18"/>
<text text-anchor="middle" x="280" y="-480.3" font-family="Times,serif" font-size="14.00">Root</text>
</g>
<!-- f_retf -->
<g id="node2" class="node">
<title>f_retf</title>
<ellipse fill="none" stroke="black" cx="292" cy="-397" rx="27" ry="18"/>
<text text-anchor="middle" x="292" y="-393.3" font-family="Times,serif" font-size="14.00">I</text>
</g>
<!-- Root&#45;&gt;f_retf -->
<g id="edge1" class="edge">
<title>Root&#45;&gt;f_retf</title>
<path fill="none" stroke="red" stroke-width="2" d="M282.43,-465.8C284.07,-454.16 286.28,-438.55 288.15,-425.24"/>
<polygon fill="red" stroke="red" stroke-width="2" points="291.64,-425.57 289.58,-415.18 284.71,-424.59 291.64,-425.57"/>
<text text-anchor="middle" x="303.5" y="-436.8" font-family="Times,serif" font-size="14.00">0&#45;&gt;1</text>
</g>
<!-- c1a -->
<g id="node3" class="node">
<title>c1a</title>
<ellipse fill="none" stroke="black" cx="52" cy="-1124.79" rx="27.1" ry="18"/>
<text text-anchor="middle" x="52" y="-1121.09" font-family="Times,serif" font-size="14.00">Cut</text>
</g>
<!-- fp1 -->
<g id="node4" class="node">
<title>fp1</title>
<ellipse fill="none" stroke="black" cx="129" cy="-1037.79" rx="27" ry="18"/>
<text text-anchor="middle" x="129" y="-1034.09" font-family="Times,serif" font-size="14.00">!p</text>
</g>
<!-- c1a&#45;&gt;fp1 -->
<g id="edge2" class="edge">
<title>c1a&#45;&gt;fp1</title>
<path fill="none" stroke="red" d="M65.41,-1108.99C77.37,-1095.78 95.06,-1076.26 108.74,-1061.16"/>
<polygon fill="red" stroke="red" points="111.36,-1063.48 115.48,-1053.72 106.18,-1058.78 111.36,-1063.48"/>
<text text-anchor="middle" x="100" y="-1077.59" font-family="Times,serif" font-size="14.00">0</text>
</g>
<!-- d2a -->
<g id="node5" class="node">
<title>d2a</title>
<ellipse fill="none" stroke="black" cx="31" cy="-673.9" rx="29.8" ry="18"/>
<text text-anchor="middle" x="31" y="-670.2" font-family="Times,serif" font-size="14.00">Dup</text>
</g>
<!-- c1a&#45;&gt;d2a -->
<g id="edge3" class="edge">
<title>c1a&#45;&gt;d2a</title>
<path fill="none" stroke="blue" d="M46.94,-1107.04C42.25,-1090.02 36,-1062.82 36,-1038.79 36,-1038.79 36,-1038.79 36,-775.79 36,-750.82 34.45,-722.41 33.08,-702.11"/>
<polygon fill="blue" stroke="blue" points="36.56,-701.75 32.37,-692.02 29.58,-702.25 36.56,-701.75"/>
<text text-anchor="middle" x="41" y="-903.59" font-family="Times,serif" font-size="14.00">1</text>
</g>
<!-- f2a -->
<g id="node24" class="node">
<title>f2a</title>
<ellipse fill="none" stroke="black" cx="181" cy="-950.79" rx="27" ry="18"/>
<text text-anchor="middle" x="181" y="-947.09" font-family="Times,serif" font-size="14.00">PiR</text>
</g>
<!-- fp1&#45;&gt;f2a -->
<g id="edge28" class="edge">
<title>fp1&#45;&gt;f2a</title>
<path fill="none" stroke="red" d="M138.78,-1020.81C146.41,-1008.34 157.13,-990.81 165.87,-976.53"/>
<polygon fill="red" stroke="red" points="169.03,-978.07 171.26,-967.71 163.06,-974.41 169.03,-978.07"/>
<text text-anchor="middle" x="163" y="-990.59" font-family="Times,serif" font-size="14.00">1</text>
</g>
<!-- d2c -->
<g id="node23" class="node">
<title>d2c</title>
<ellipse fill="none" stroke="black" cx="380" cy="-397" rx="29.8" ry="18"/>
<text text-anchor="middle" x="380" y="-393.3" font-family="Times,serif" font-size="14.00">Dup</text>
</g>
<!-- d2a&#45;&gt;d2c -->
<g id="edge31" class="edge">
<title>d2a&#45;&gt;d2c</title>
<path fill="none" stroke="black" stroke-dasharray="5,2" d="M45.8,-657.96C92.36,-611 233.06,-469.3 239,-466 269.74,-448.96 284.3,-463.17 316,-448 334.57,-439.11 352.77,-424.1 364.99,-412.84"/>
</g>
<!-- hi_retpa -->
<g id="node25" class="node">
<title>hi_retpa</title>
<ellipse fill="none" stroke="black" cx="41" cy="-571" rx="27" ry="18"/>
<text text-anchor="middle" x="41" y="-567.3" font-family="Times,serif" font-size="14.00">!p</text>
</g>
<!-- d2a&#45;&gt;hi_retpa -->
<g id="edge32" class="edge">
<title>d2a&#45;&gt;hi_retpa</title>
<path fill="none" stroke="blue" d="M28.18,-655.97C26.43,-642.58 25.04,-623.46 28,-607 28.53,-604.07 29.28,-601.06 30.17,-598.1"/>
<polygon fill="blue" stroke="blue" points="33.57,-598.99 33.54,-588.39 26.95,-596.69 33.57,-598.99"/>
<text text-anchor="middle" x="33" y="-610.8" font-family="Times,serif" font-size="14.00">1</text>
</g>
<!-- dx -->
<g id="node6" class="node">
<title>dx</title>
<ellipse fill="none" stroke="black" cx="533" cy="-673.9" rx="29.81" ry="29.81"/>
<ellipse fill="none" stroke="black" cx="533" cy="-673.9" rx="33.8" ry="33.8"/>
<text text-anchor="middle" x="533" y="-670.2" font-family="Times,serif" font-size="14.00">Dup</text>
</g>
<!-- i_i2 -->
<g id="node7" class="node">
<title>i_i2</title>
<ellipse fill="none" stroke="black" cx="562" cy="-397" rx="27" ry="18"/>
<text text-anchor="middle" x="562" y="-393.3" font-family="Times,serif" font-size="14.00">PiR</text>
</g>
<!-- dx&#45;&gt;i_i2 -->
<g id="edge4" class="edge">
<title>dx&#45;&gt;i_i2</title>
<path fill="none" stroke="red" d="M536.47,-640.01C542.25,-585.18 553.76,-476.08 559.13,-425.25"/>
<polygon fill="red" stroke="red" points="562.63,-425.36 560.2,-415.04 555.67,-424.62 562.63,-425.36"/>
</g>
<!-- d2d -->
<g id="node37" class="node">
<title>d2d</title>
<ellipse fill="none" stroke="black" cx="467" cy="-324" rx="29.8" ry="18"/>
<text text-anchor="middle" x="467" y="-320.3" font-family="Times,serif" font-size="14.00">Dup</text>
</g>
<!-- i_i2&#45;&gt;d2d -->
<g id="edge51" class="edge">
<title>i_i2&#45;&gt;d2d</title>
<path fill="none" stroke="blue" d="M544.58,-382.98C530.16,-372.2 509.47,-356.74 493.08,-344.49"/>
<polygon fill="blue" stroke="blue" points="495.06,-341.61 484.96,-338.42 490.87,-347.21 495.06,-341.61"/>
</g>
<!-- d2e -->
<g id="node38" class="node">
<title>d2e</title>
<ellipse fill="none" stroke="black" cx="562" cy="-324" rx="29.8" ry="18"/>
<text text-anchor="middle" x="562" y="-320.3" font-family="Times,serif" font-size="14.00">Dup</text>
</g>
<!-- i_i2&#45;&gt;d2e -->
<g id="edge52" class="edge">
<title>i_i2&#45;&gt;d2e</title>
<path fill="none" stroke="red" d="M562,-378.81C562,-370.79 562,-361.05 562,-352.07"/>
<polygon fill="red" stroke="red" points="565.5,-352.03 562,-342.03 558.5,-352.03 565.5,-352.03"/>
</g>
<!-- c1b2a -->
<g id="node8" class="node">
<title>c1b2a</title>
<ellipse fill="none" stroke="black" cx="351" cy="-863.79" rx="27.1" ry="18"/>
<text text-anchor="middle" x="351" y="-860.09" font-family="Times,serif" font-size="14.00">Cut</text>
</g>
<!-- i2a -->
<g id="node9" class="node">
<title>i2a</title>
<ellipse fill="none" stroke="black" cx="532" cy="-776.79" rx="27" ry="18"/>
<text text-anchor="middle" x="532" y="-773.09" font-family="Times,serif" font-size="14.00">!p</text>
</g>
<!-- c1b2a&#45;&gt;i2a -->
<g id="edge5" class="edge">
<title>c1b2a&#45;&gt;i2a</title>
<path fill="none" stroke="red" d="M372.83,-852.54C404.94,-837.46 465.02,-809.25 501.48,-792.13"/>
<polygon fill="red" stroke="red" points="503.09,-795.24 510.65,-787.82 500.11,-788.9 503.09,-795.24"/>
<text text-anchor="middle" x="457" y="-816.59" font-family="Times,serif" font-size="14.00">2</text>
</g>
<!-- d1b -->
<g id="node10" class="node">
<title>d1b</title>
<ellipse fill="none" stroke="black" cx="179" cy="-776.79" rx="29.8" ry="18"/>
<text text-anchor="middle" x="179" y="-773.09" font-family="Times,serif" font-size="14.00">Dup</text>
</g>
<!-- c1b2a&#45;&gt;d1b -->
<g id="edge6" class="edge">
<title>c1b2a&#45;&gt;d1b</title>
<path fill="none" stroke="blue" d="M324.2,-860.34C296.51,-856.76 252.93,-848.15 221,-827.79 210.23,-820.93 200.81,-810.42 193.63,-800.81"/>
<ellipse fill="none" stroke="blue" cx="191.13" cy="-797.29" rx="4" ry="4"/>
<text text-anchor="middle" x="226" y="-816.59" font-family="Times,serif" font-size="14.00">1</text>
</g>
<!-- i2a&#45;&gt;dx -->
<g id="edge9" class="edge">
<title>i2a&#45;&gt;dx</title>
<path fill="none" stroke="red" d="M532.17,-758.68C532.28,-747.55 532.43,-732.5 532.57,-718.23"/>
<polygon fill="red" stroke="red" points="536.07,-718.08 532.67,-708.04 529.07,-718.01 536.07,-718.08"/>
<text text-anchor="middle" x="537" y="-729.59" font-family="Times,serif" font-size="14.00">3</text>
</g>
<!-- d1b&#45;&gt;d2a -->
<g id="edge23" class="edge">
<title>d1b&#45;&gt;d2a</title>
<path fill="none" stroke="blue" d="M157.93,-763.86C135.55,-750.91 99.39,-729.19 70,-707.79 64.34,-703.67 58.45,-698.96 53.02,-694.41"/>
<ellipse fill="none" stroke="blue" cx="49.94" cy="-691.79" rx="4" ry="4"/>
</g>
<!-- d1c -->
<g id="node13" class="node">
<title>d1c</title>
<ellipse fill="none" stroke="black" cx="501" cy="-571" rx="29.8" ry="18"/>
<text text-anchor="middle" x="501" y="-567.3" font-family="Times,serif" font-size="14.00">Dup</text>
</g>
<!-- d1b&#45;&gt;d1c -->
<g id="edge10" class="edge">
<title>d1b&#45;&gt;d1c</title>
<path fill="none" stroke="black" stroke-dasharray="5,2" d="M152.63,-768.11C129.45,-759.88 101.11,-745.32 113,-725.79 116.74,-719.65 336.16,-609.22 343,-607 393.88,-590.51 410.6,-603.81 462,-589 467.39,-587.45 473.02,-585.32 478.27,-583.09"/>
</g>
<!-- d1d -->
<g id="node14" class="node">
<title>d1d</title>
<ellipse fill="none" stroke="black" cx="432" cy="-484" rx="29.8" ry="18"/>
<text text-anchor="middle" x="432" y="-480.3" font-family="Times,serif" font-size="14.00">Dup</text>
</g>
<!-- d1b&#45;&gt;d1d -->
<g id="edge11" class="edge">
<title>d1b&#45;&gt;d1d</title>
<path fill="none" stroke="black" stroke-dasharray="5,2" d="M185.35,-759.01C201.19,-719 245.89,-616.64 311,-553 326.34,-538.01 378.84,-510.99 409.42,-495.92"/>
</g>
<!-- c1b2b -->
<g id="node11" class="node">
<title>c1b2b</title>
<ellipse fill="none" stroke="black" cx="457" cy="-776.79" rx="27.1" ry="18"/>
<text text-anchor="middle" x="457" y="-773.09" font-family="Times,serif" font-size="14.00">Cut</text>
</g>
<!-- c1b2b&#45;&gt;dx -->
<g id="edge7" class="edge">
<title>c1b2b&#45;&gt;dx</title>
<path fill="none" stroke="red" stroke-width="2" d="M468.54,-760.47C478.95,-746.65 494.62,-725.84 507.91,-708.21"/>
<ellipse fill="none" stroke="red" stroke-width="2" cx="510.65" cy="-704.57" rx="4" ry="4"/>
<text text-anchor="middle" x="497" y="-729.59" font-family="Times,serif" font-size="14.00">3</text>
</g>
<!-- hbg2 -->
<g id="node12" class="node">
<title>hbg2</title>
<ellipse fill="none" stroke="black" cx="454" cy="-673.9" rx="27" ry="18"/>
<text text-anchor="middle" x="454" y="-670.2" font-family="Times,serif" font-size="14.00">PiL</text>
</g>
<!-- c1b2b&#45;&gt;hbg2 -->
<g id="edge8" class="edge">
<title>c1b2b&#45;&gt;hbg2</title>
<path fill="none" stroke="blue" stroke-width="2" d="M456.49,-758.68C456.03,-743.24 455.35,-720.27 454.81,-702.28"/>
<polygon fill="blue" stroke="blue" stroke-width="2" points="458.31,-701.99 454.51,-692.1 451.31,-702.2 458.31,-701.99"/>
<text text-anchor="middle" x="460" y="-729.59" font-family="Times,serif" font-size="14.00">2</text>
</g>
<!-- hbg2&#45;&gt;d1c -->
<g id="edge19" class="edge">
<title>hbg2&#45;&gt;d1c</title>
<path fill="none" stroke="red" d="M465.7,-657.56C472.68,-647.81 481.28,-634.67 487,-622 490.56,-614.11 493.42,-605.11 495.6,-596.94"/>
<ellipse fill="none" stroke="red" cx="496.59" cy="-592.99" rx="4" ry="4"/>
</g>
<!-- x2i_o2g2 -->
<g id="node20" class="node">
<title>x2i_o2g2</title>
<ellipse fill="none" stroke="black" cx="426" cy="-571" rx="27" ry="18"/>
<text text-anchor="middle" x="426" y="-567.3" font-family="Times,serif" font-size="14.00">PiL</text>
</g>
<!-- hbg2&#45;&gt;x2i_o2g2 -->
<g id="edge20" class="edge">
<title>hbg2&#45;&gt;x2i_o2g2</title>
<path fill="none" stroke="blue" stroke-width="2" d="M449.25,-655.78C444.9,-640.1 438.39,-616.66 433.37,-598.55"/>
<polygon fill="blue" stroke="blue" stroke-width="2" points="436.73,-597.56 430.68,-588.86 429.98,-599.43 436.73,-597.56"/>
<text text-anchor="middle" x="456.5" y="-610.8" font-family="Times,serif" font-size="14.00">2&#45;&gt;1</text>
</g>
<!-- i3 -->
<g id="node22" class="node">
<title>i3</title>
<ellipse fill="none" stroke="black" cx="507" cy="-484" rx="27" ry="18"/>
<text text-anchor="middle" x="507" y="-480.3" font-family="Times,serif" font-size="14.00">!p</text>
</g>
<!-- d1c&#45;&gt;i3 -->
<g id="edge24" class="edge">
<title>d1c&#45;&gt;i3</title>
<path fill="none" stroke="red" d="M502.21,-552.8C503.04,-541.16 504.14,-525.55 505.08,-512.24"/>
<polygon fill="red" stroke="red" points="508.57,-512.4 505.79,-502.18 501.59,-511.9 508.57,-512.4"/>
</g>
<!-- d1d&#45;&gt;d2c -->
<g id="edge25" class="edge">
<title>d1d&#45;&gt;d2c</title>
<path fill="none" stroke="red" d="M421.97,-466.61C414.08,-453.71 402.99,-435.57 394.18,-421.18"/>
<ellipse fill="none" stroke="red" cx="391.91" cy="-417.46" rx="4" ry="4"/>
</g>
<!-- xdicg1 -->
<g id="node15" class="node">
<title>xdicg1</title>
<ellipse fill="none" stroke="black" cx="181" cy="-863.79" rx="27" ry="18"/>
<text text-anchor="middle" x="181" y="-860.09" font-family="Times,serif" font-size="14.00">!c</text>
</g>
<!-- xdicg1&#45;&gt;d1b -->
<g id="edge12" class="edge">
<title>xdicg1&#45;&gt;d1b</title>
<path fill="none" stroke="blue" d="M180.6,-845.59C180.32,-833.96 179.95,-818.34 179.64,-805.03"/>
<polygon fill="blue" stroke="blue" points="183.14,-804.89 179.4,-794.97 176.14,-805.05 183.14,-804.89"/>
</g>
<!-- h_di2g1 -->
<g id="node16" class="node">
<title>h_di2g1</title>
<ellipse fill="none" stroke="black" cx="305" cy="-776.79" rx="27" ry="18"/>
<text text-anchor="middle" x="305" y="-773.09" font-family="Times,serif" font-size="14.00">!d</text>
</g>
<!-- xdicg1&#45;&gt;h_di2g1 -->
<g id="edge13" class="edge">
<title>xdicg1&#45;&gt;h_di2g1</title>
<path fill="none" stroke="blue" d="M199.3,-850.25C220.18,-835.94 254.51,-812.4 278.36,-796.06"/>
<polygon fill="blue" stroke="blue" points="280.36,-798.93 286.63,-790.39 276.4,-793.16 280.36,-798.93"/>
<text text-anchor="middle" x="255" y="-816.59" font-family="Times,serif" font-size="14.00">1</text>
</g>
<!-- hbg1 -->
<g id="node17" class="node">
<title>hbg1</title>
<ellipse fill="none" stroke="black" cx="347" cy="-673.9" rx="27" ry="18"/>
<text text-anchor="middle" x="347" y="-670.2" font-family="Times,serif" font-size="14.00">PiL</text>
</g>
<!-- h_di2g1&#45;&gt;hbg1 -->
<g id="edge14" class="edge">
<title>h_di2g1&#45;&gt;hbg1</title>
<path fill="none" stroke="blue" d="M311.94,-759.13C318.53,-743.29 328.55,-719.21 336.2,-700.85"/>
<polygon fill="blue" stroke="blue" points="339.44,-702.16 340.05,-691.58 332.98,-699.47 339.44,-702.16"/>
<text text-anchor="middle" x="329" y="-729.59" font-family="Times,serif" font-size="14.00">2</text>
</g>
<!-- hbg1&#45;&gt;d1c -->
<g id="edge15" class="edge">
<title>hbg1&#45;&gt;d1c</title>
<path fill="none" stroke="red" d="M368.32,-662.71C382.36,-656.08 401.19,-647.33 418,-640 437.37,-631.56 445.16,-634.76 462,-622 471.18,-615.05 479.36,-605.43 485.84,-596.49"/>
<polygon fill="red" stroke="red" points="488.73,-598.46 491.5,-588.23 482.96,-594.5 488.73,-598.46"/>
</g>
<!-- x2i_o2g1 -->
<g id="node18" class="node">
<title>x2i_o2g1</title>
<ellipse fill="none" stroke="black" cx="347" cy="-571" rx="27" ry="18"/>
<text text-anchor="middle" x="347" y="-567.3" font-family="Times,serif" font-size="14.00">PiL</text>
</g>
<!-- hbg1&#45;&gt;x2i_o2g1 -->
<g id="edge16" class="edge">
<title>hbg1&#45;&gt;x2i_o2g1</title>
<path fill="none" stroke="blue" d="M347,-655.78C347,-640.34 347,-617.37 347,-599.38"/>
<polygon fill="blue" stroke="blue" points="350.5,-599.2 347,-589.2 343.5,-599.2 350.5,-599.2"/>
<text text-anchor="middle" x="364.5" y="-610.8" font-family="Times,serif" font-size="14.00">2&#45;&gt;1</text>
</g>
<!-- x2i_o2g1&#45;&gt;d1d -->
<g id="edge17" class="edge">
<title>x2i_o2g1&#45;&gt;d1d</title>
<path fill="none" stroke="red" d="M361.42,-555.58C374.77,-542.23 394.81,-522.19 410.13,-506.87"/>
<polygon fill="red" stroke="red" points="412.63,-509.32 417.22,-499.78 407.68,-504.37 412.63,-509.32"/>
</g>
<!-- f_retg1 -->
<g id="node19" class="node">
<title>f_retg1</title>
<ellipse fill="none" stroke="black" cx="165" cy="-484" rx="27" ry="18"/>
<text text-anchor="middle" x="165" y="-480.3" font-family="Times,serif" font-size="14.00">I</text>
</g>
<!-- x2i_o2g1&#45;&gt;f_retg1 -->
<g id="edge18" class="edge">
<title>x2i_o2g1&#45;&gt;f_retg1</title>
<path fill="none" stroke="blue" d="M326.68,-558.71C307.43,-548.18 277.61,-532.31 251,-520 233.55,-511.93 213.7,-503.78 197.47,-497.38"/>
<polygon fill="blue" stroke="blue" points="198.47,-494.02 187.88,-493.64 195.92,-500.54 198.47,-494.02"/>
</g>
<!-- x2i_o2g2&#45;&gt;d1d -->
<g id="edge21" class="edge">
<title>x2i_o2g2&#45;&gt;d1d</title>
<path fill="none" stroke="red" d="M427.21,-552.8C428.08,-540.59 429.25,-523.99 430.22,-510.28"/>
<ellipse fill="none" stroke="red" cx="430.51" cy="-506.17" rx="4" ry="4"/>
</g>
<!-- x2i_o2f -->
<g id="node21" class="node">
<title>x2i_o2f</title>
<ellipse fill="none" stroke="black" cx="357" cy="-484" rx="27" ry="18"/>
<text text-anchor="middle" x="357" y="-480.3" font-family="Times,serif" font-size="14.00">PiL</text>
</g>
<!-- x2i_o2g2&#45;&gt;x2i_o2f -->
<g id="edge22" class="edge">
<title>x2i_o2g2&#45;&gt;x2i_o2f</title>
<path fill="none" stroke="blue" stroke-width="2" d="M413.66,-554.8C403.07,-541.75 387.63,-522.74 375.55,-507.85"/>
<polygon fill="blue" stroke="blue" stroke-width="2" points="378.25,-505.62 369.23,-500.06 372.81,-510.03 378.25,-505.62"/>
</g>
<!-- x2i_o2f&#45;&gt;f_retf -->
<g id="edge30" class="edge">
<title>x2i_o2f&#45;&gt;f_retf</title>
<path fill="none" stroke="blue" stroke-width="2" d="M347.64,-466.72C341.62,-456.68 333.37,-443.72 325,-433 321.53,-428.56 317.6,-424.02 313.69,-419.75"/>
<polygon fill="blue" stroke="blue" stroke-width="2" points="316.18,-417.3 306.77,-412.44 311.1,-422.11 316.18,-417.3"/>
</g>
<!-- x2i_o2f&#45;&gt;d2c -->
<g id="edge29" class="edge">
<title>x2i_o2f&#45;&gt;d2c</title>
<path fill="none" stroke="red" d="M361.54,-466.21C364.74,-454.41 369.07,-438.38 372.74,-424.82"/>
<polygon fill="red" stroke="red" points="376.15,-425.62 375.39,-415.05 369.4,-423.79 376.15,-425.62"/>
</g>
<!-- i_i3 -->
<g id="node39" class="node">
<title>i_i3</title>
<ellipse fill="none" stroke="black" cx="490" cy="-397" rx="27" ry="18"/>
<text text-anchor="middle" x="490" y="-393.3" font-family="Times,serif" font-size="14.00">PiR</text>
</g>
<!-- i3&#45;&gt;i_i3 -->
<g id="edge55" class="edge">
<title>i3&#45;&gt;i_i3</title>
<path fill="none" stroke="red" d="M503.56,-465.8C501.22,-454.09 498.07,-438.34 495.39,-424.97"/>
<polygon fill="red" stroke="red" points="498.77,-424 493.38,-414.89 491.91,-425.38 498.77,-424"/>
<text text-anchor="middle" x="504" y="-436.8" font-family="Times,serif" font-size="14.00">3</text>
</g>
<!-- x1_o2 -->
<g id="node26" class="node">
<title>x1_o2</title>
<ellipse fill="none" stroke="black" cx="283" cy="-324" rx="27" ry="18"/>
<text text-anchor="middle" x="283" y="-320.3" font-family="Times,serif" font-size="14.00">I</text>
</g>
<!-- d2c&#45;&gt;x1_o2 -->
<g id="edge33" class="edge">
<title>d2c&#45;&gt;x1_o2</title>
<path fill="none" stroke="red" d="M361.76,-382.65C346.8,-371.7 325.46,-356.08 308.76,-343.85"/>
<polygon fill="red" stroke="red" points="310.65,-340.9 300.51,-337.82 306.51,-346.55 310.65,-340.9"/>
</g>
<!-- d2c&#45;&gt;d2d -->
<g id="edge47" class="edge">
<title>d2c&#45;&gt;d2d</title>
<path fill="none" stroke="black" stroke-dasharray="5,2" d="M397.19,-381.97C412.44,-369.53 434.61,-351.44 449.85,-339"/>
</g>
<!-- f2a&#45;&gt;xdicg1 -->
<g id="edge27" class="edge">
<title>f2a&#45;&gt;xdicg1</title>
<path fill="none" stroke="blue" d="M181,-932.59C181,-920.96 181,-905.34 181,-892.03"/>
<polygon fill="blue" stroke="blue" points="184.5,-891.97 181,-881.97 177.5,-891.97 184.5,-891.97"/>
</g>
<!-- f2a&#45;&gt;f_retg1 -->
<g id="edge26" class="edge">
<title>f2a&#45;&gt;f_retg1</title>
<path fill="none" stroke="red" d="M197.2,-936.26C213.74,-920.84 237,-893.95 237,-864.79 237,-864.79 237,-864.79 237,-570 237,-541.57 213.26,-517.76 193.04,-502.64"/>
<polygon fill="red" stroke="red" points="194.86,-499.64 184.67,-496.71 190.81,-505.35 194.86,-499.64"/>
</g>
<!-- hi_ret1 -->
<g id="node27" class="node">
<title>hi_ret1</title>
<ellipse fill="none" stroke="black" cx="27" cy="-324" rx="27" ry="18"/>
<text text-anchor="middle" x="27" y="-320.3" font-family="Times,serif" font-size="14.00">I</text>
</g>
<!-- hi_retpa&#45;&gt;hi_ret1 -->
<g id="edge44" class="edge">
<title>hi_retpa&#45;&gt;hi_ret1</title>
<path fill="none" stroke="red" d="M34.08,-553.59C28.77,-540.03 21.86,-520.14 19,-502 10.72,-449.5 17.26,-387.23 22.39,-352.3"/>
<polygon fill="red" stroke="red" points="25.92,-352.38 23.98,-341.96 19,-351.31 25.92,-352.38"/>
<text text-anchor="middle" x="21" y="-436.8" font-family="Times,serif" font-size="14.00">2</text>
</g>
<!-- h_di1 -->
<g id="node35" class="node">
<title>h_di1</title>
<ellipse fill="none" stroke="black" cx="55" cy="-484" rx="27" ry="18"/>
<text text-anchor="middle" x="55" y="-480.3" font-family="Times,serif" font-size="14.00">!d</text>
</g>
<!-- hi_retpa&#45;&gt;h_di1 -->
<g id="edge45" class="edge">
<title>hi_retpa&#45;&gt;h_di1</title>
<path fill="none" stroke="blue" d="M43.83,-552.8C45.75,-541.16 48.32,-525.55 50.51,-512.24"/>
<polygon fill="blue" stroke="blue" points="54,-512.61 52.17,-502.18 47.09,-511.47 54,-512.61"/>
<text text-anchor="middle" x="53" y="-523.8" font-family="Times,serif" font-size="14.00">1</text>
</g>
<!-- d4a -->
<g id="node28" class="node">
<title>d4a</title>
<ellipse fill="none" stroke="black" cx="437" cy="-164" rx="29.8" ry="18"/>
<text text-anchor="middle" x="437" y="-160.3" font-family="Times,serif" font-size="14.00">Dup</text>
</g>
<!-- d4b -->
<g id="node29" class="node">
<title>d4b</title>
<ellipse fill="none" stroke="black" cx="532" cy="-164" rx="29.8" ry="18"/>
<text text-anchor="middle" x="532" y="-160.3" font-family="Times,serif" font-size="14.00">Dup</text>
</g>
<!-- d4a&#45;&gt;d4b -->
<g id="edge34" class="edge">
<title>d4a&#45;&gt;d4b</title>
<path fill="none" stroke="black" stroke-dasharray="5,2" d="M467.06,-164C478.73,-164 490.4,-164 502.07,-164"/>
</g>
<!-- il -->
<g id="node30" class="node">
<title>il</title>
<ellipse fill="none" stroke="black" cx="467" cy="-91" rx="27" ry="18"/>
<text text-anchor="middle" x="467" y="-87.3" font-family="Times,serif" font-size="14.00">!d</text>
</g>
<!-- d4a&#45;&gt;il -->
<g id="edge35" class="edge">
<title>d4a&#45;&gt;il</title>
<path fill="none" stroke="blue" d="M444.11,-146.17C447.66,-137.77 452.03,-127.42 456,-118.03"/>
<polygon fill="blue" stroke="blue" points="459.27,-119.28 459.94,-108.71 452.83,-116.55 459.27,-119.28"/>
</g>
<!-- i_ret -->
<g id="node31" class="node">
<title>i_ret</title>
<ellipse fill="none" stroke="black" cx="499" cy="-18" rx="27" ry="18"/>
<text text-anchor="middle" x="499" y="-14.3" font-family="Times,serif" font-size="14.00">I</text>
</g>
<!-- d4b&#45;&gt;i_ret -->
<g id="edge36" class="edge">
<title>d4b&#45;&gt;i_ret</title>
<path fill="none" stroke="red" d="M528.08,-145.92C522.43,-121.23 511.91,-75.35 505.2,-46.04"/>
<polygon fill="red" stroke="red" points="508.56,-45.03 502.91,-36.06 501.73,-46.59 508.56,-45.03"/>
</g>
<!-- il&#45;&gt;i_ret -->
<g id="edge56" class="edge">
<title>il&#45;&gt;i_ret</title>
<path fill="none" stroke="blue" d="M474.42,-73.53C478.3,-64.93 483.13,-54.21 487.48,-44.56"/>
<polygon fill="blue" stroke="blue" points="490.7,-45.93 491.62,-35.38 484.32,-43.06 490.7,-45.93"/>
</g>
<!-- i_i1 -->
<g id="node32" class="node">
<title>i_i1</title>
<ellipse fill="none" stroke="black" cx="412" cy="-237" rx="27" ry="18"/>
<text text-anchor="middle" x="412" y="-233.3" font-family="Times,serif" font-size="14.00">PiR</text>
</g>
<!-- i_i1&#45;&gt;d4a -->
<g id="edge37" class="edge">
<title>i_i1&#45;&gt;d4a</title>
<path fill="none" stroke="blue" d="M417.92,-219.17C420.85,-210.86 424.45,-200.64 427.73,-191.33"/>
<polygon fill="blue" stroke="blue" points="431.1,-192.3 431.12,-181.71 424.5,-189.98 431.1,-192.3"/>
</g>
<!-- i_i1&#45;&gt;d4b -->
<g id="edge38" class="edge">
<title>i_i1&#45;&gt;d4b</title>
<path fill="none" stroke="red" d="M431.55,-224.43C450.81,-213.04 480.48,-195.48 502.59,-182.4"/>
<polygon fill="red" stroke="red" points="504.43,-185.38 511.25,-177.28 500.86,-179.36 504.43,-185.38"/>
</g>
<!-- ha -->
<g id="node33" class="node">
<title>ha</title>
<ellipse fill="none" stroke="black" cx="55" cy="-397" rx="27" ry="18"/>
<text text-anchor="middle" x="55" y="-393.3" font-family="Times,serif" font-size="14.00">PiL</text>
</g>
<!-- ha&#45;&gt;hi_ret1 -->
<g id="edge40" class="edge">
<title>ha&#45;&gt;hi_ret1</title>
<path fill="none" stroke="blue" d="M48.36,-379.17C45.05,-370.77 40.97,-360.42 37.26,-351.03"/>
<polygon fill="blue" stroke="blue" points="40.51,-349.72 33.59,-341.71 34,-352.29 40.51,-349.72"/>
</g>
<!-- i1 -->
<g id="node34" class="node">
<title>i1</title>
<ellipse fill="none" stroke="black" cx="119" cy="-324" rx="27" ry="18"/>
<text text-anchor="middle" x="119" y="-320.3" font-family="Times,serif" font-size="14.00">!p</text>
</g>
<!-- ha&#45;&gt;i1 -->
<g id="edge39" class="edge">
<title>ha&#45;&gt;i1</title>
<path fill="none" stroke="red" d="M68.26,-381.29C77.1,-371.48 88.88,-358.41 98.87,-347.33"/>
<polygon fill="red" stroke="red" points="101.66,-349.46 105.76,-339.69 96.46,-344.78 101.66,-349.46"/>
</g>
<!-- i1&#45;&gt;i_i1 -->
<g id="edge46" class="edge">
<title>i1&#45;&gt;i_i1</title>
<path fill="none" stroke="red" d="M143.48,-315.9C195.74,-300.74 318.35,-265.17 378.09,-247.84"/>
<polygon fill="red" stroke="red" points="379.17,-251.17 387.8,-245.02 377.22,-244.45 379.17,-251.17"/>
<text text-anchor="middle" x="288" y="-276.8" font-family="Times,serif" font-size="14.00">3</text>
</g>
<!-- h_di1&#45;&gt;ha -->
<g id="edge41" class="edge">
<title>h_di1&#45;&gt;ha</title>
<path fill="none" stroke="blue" d="M55,-465.8C55,-454.16 55,-438.55 55,-425.24"/>
<polygon fill="blue" stroke="blue" points="58.5,-425.18 55,-415.18 51.5,-425.18 58.5,-425.18"/>
<text text-anchor="middle" x="60" y="-436.8" font-family="Times,serif" font-size="14.00">2</text>
</g>
<!-- c2a -->
<g id="node36" class="node">
<title>c2a</title>
<ellipse fill="none" stroke="black" cx="106" cy="-673.9" rx="27.1" ry="18"/>
<text text-anchor="middle" x="106" y="-670.2" font-family="Times,serif" font-size="14.00">Cut</text>
</g>
<!-- c2a&#45;&gt;hi_retpa -->
<g id="edge42" class="edge">
<title>c2a&#45;&gt;hi_retpa</title>
<path fill="none" stroke="red" d="M95.84,-657.13C85.41,-640.94 69.02,-615.5 56.88,-596.65"/>
<polygon fill="red" stroke="red" points="59.66,-594.5 51.3,-587.99 53.77,-598.29 59.66,-594.5"/>
<text text-anchor="middle" x="76" y="-610.8" font-family="Times,serif" font-size="14.00">1</text>
</g>
<!-- c2a&#45;&gt;x1_o2 -->
<g id="edge43" class="edge">
<title>c2a&#45;&gt;x1_o2</title>
<path fill="none" stroke="blue" d="M107.09,-655.77C108.28,-635.7 110,-601.45 110,-572 110,-572 110,-572 110,-396 110,-366.54 196.96,-343.16 247.57,-332.05"/>
<polygon fill="blue" stroke="blue" points="248.43,-335.45 257.47,-329.93 246.96,-328.61 248.43,-335.45"/>
</g>
<!-- d2d&#45;&gt;d4a -->
<g id="edge49" class="edge">
<title>d2d&#45;&gt;d4a</title>
<path fill="none" stroke="blue" d="M464.01,-306.05C460.35,-285.45 453.92,-249.64 448,-219 446.17,-209.51 444.07,-199.09 442.2,-189.96"/>
<ellipse fill="none" stroke="blue" cx="441.36" cy="-185.92" rx="4" ry="4"/>
</g>
<!-- d2d&#45;&gt;d2e -->
<g id="edge48" class="edge">
<title>d2d&#45;&gt;d2e</title>
<path fill="none" stroke="black" stroke-dasharray="5,2" d="M497.06,-324C508.73,-324 520.4,-324 532.07,-324"/>
</g>
<!-- d2e&#45;&gt;d4b -->
<g id="edge50" class="edge">
<title>d2e&#45;&gt;d4b</title>
<path fill="none" stroke="red" d="M558.79,-306.09C553.52,-278.32 542.99,-222.9 536.82,-190.4"/>
<ellipse fill="none" stroke="red" cx="536.02" cy="-186.2" rx="4" ry="4"/>
</g>
<!-- i_i3&#45;&gt;d2d -->
<g id="edge53" class="edge">
<title>i_i3&#45;&gt;d2d</title>
<path fill="none" stroke="blue" d="M484.55,-379.17C481.68,-370.33 478.12,-359.33 474.95,-349.55"/>
<ellipse fill="none" stroke="blue" cx="473.64" cy="-345.51" rx="4" ry="4"/>
</g>
<!-- i_i3&#45;&gt;d2e -->
<g id="edge54" class="edge">
<title>i_i3&#45;&gt;d2e</title>
<path fill="none" stroke="red" d="M504.57,-381.63C515.07,-371.28 529.39,-357.16 541.1,-345.61"/>
<ellipse fill="none" stroke="red" cx="544.11" cy="-342.64" rx="4" ry="4"/>
</g>
</g>
</svg>
