<?xml version="1.0" encoding="UTF-8" standalone="no"?>
<!DOCTYPE svg PUBLIC "-//W3C//DTD SVG 1.1//EN"
 "http://www.w3.org/Graphics/SVG/1.1/DTD/svg11.dtd">
<!-- Generated by graphviz version 2.40.1 (20161225.0304)
 -->
<!-- Title: %3 Pages: 1 -->
<svg width="601pt" height="1143pt"
 viewBox="0.00 0.00 600.64 1143.00" xmlns="http://www.w3.org/2000/svg" xmlns:xlink="http://www.w3.org/1999/xlink">
<g id="graph0" class="graph" transform="scale(1 1) rotate(0) translate(4 1138.9954)">
<title>%3</title>
<polygon fill="#ffffff" stroke="transparent" points="-4,4 -4,-1138.9954 596.6381,-1138.9954 596.6381,4 -4,4"/>
<!-- Root -->
<g id="node1" class="node">
<title>Root</title>
<ellipse fill="none" stroke="#000000" cx="481" cy="-507.9954" rx="27.8951" ry="18"/>
<text text-anchor="middle" x="481" y="-504.2954" font-family="Times,serif" font-size="14.00" fill="#000000">Root</text>
</g>
<!-- f_retf -->
<g id="node2" class="node">
<title>f_retf</title>
<ellipse fill="none" stroke="#000000" cx="464" cy="-408.9977" rx="27" ry="18"/>
<text text-anchor="middle" x="464" y="-405.2977" font-family="Times,serif" font-size="14.00" fill="#000000">I</text>
</g>
<!-- Root&#45;&gt;f_retf -->
<g id="edge1" class="edge">
<title>Root&#45;&gt;f_retf</title>
<path fill="none" stroke="#ff0000" stroke-width="2" d="M477.8819,-489.8377C475.3418,-475.0454 471.7123,-453.9095 468.8016,-436.9592"/>
<polygon fill="#ff0000" stroke="#ff0000" stroke-width="2" points="472.2403,-436.3036 467.0983,-427.0403 465.3413,-437.4884 472.2403,-436.3036"/>
<text text-anchor="middle" x="487.5" y="-460.7954" font-family="Times,serif" font-size="14.00" fill="#000000">0&#45;&gt;1</text>
</g>
<!-- c1a -->
<g id="node3" class="node">
<title>c1a</title>
<ellipse fill="none" stroke="#000000" cx="88" cy="-1116.9954" rx="27" ry="18"/>
<text text-anchor="middle" x="88" y="-1113.2954" font-family="Times,serif" font-size="14.00" fill="#000000">Cut</text>
</g>
<!-- fp1 -->
<g id="node4" class="node">
<title>fp1</title>
<ellipse fill="none" stroke="#000000" cx="173" cy="-1029.9954" rx="27" ry="18"/>
<text text-anchor="middle" x="173" y="-1026.2954" font-family="Times,serif" font-size="14.00" fill="#000000">!p</text>
</g>
<!-- c1a&#45;&gt;fp1 -->
<g id="edge2" class="edge">
<title>c1a&#45;&gt;fp1</title>
<path fill="none" stroke="#ff0000" d="M102.8059,-1101.8411C116.1314,-1088.2021 135.8905,-1067.978 151.0529,-1052.4589"/>
<polygon fill="#ff0000" stroke="#ff0000" points="153.5937,-1054.8667 158.0786,-1045.2679 148.5867,-1049.9748 153.5937,-1054.8667"/>
<text text-anchor="middle" x="138.5" y="-1069.7954" font-family="Times,serif" font-size="14.00" fill="#000000">0</text>
</g>
<!-- d2a -->
<g id="node5" class="node">
<title>d2a</title>
<ellipse fill="none" stroke="#000000" cx="61" cy="-681.9954" rx="27" ry="18"/>
<text text-anchor="middle" x="61" y="-678.2954" font-family="Times,serif" font-size="14.00" fill="#000000">Dup</text>
</g>
<!-- c1a&#45;&gt;d2a -->
<g id="edge3" class="edge">
<title>c1a&#45;&gt;d2a</title>
<path fill="none" stroke="#0000ff" d="M82.761,-1099.176C78.0947,-1081.7132 72,-1054.2602 72,-1029.9954 72,-1029.9954 72,-1029.9954 72,-768.9954 72,-749.0752 69.1265,-726.7906 66.3167,-709.7623"/>
<polygon fill="#0000ff" stroke="#0000ff" points="69.7645,-709.1591 64.6018,-699.9072 62.8681,-710.3592 69.7645,-709.1591"/>
<text text-anchor="middle" x="75.5" y="-895.7954" font-family="Times,serif" font-size="14.00" fill="#000000">1</text>
</g>
<!-- f2a -->
<g id="node24" class="node">
<title>f2a</title>
<ellipse fill="none" stroke="#000000" cx="265" cy="-942.9954" rx="27" ry="18"/>
<text text-anchor="middle" x="265" y="-939.2954" font-family="Times,serif" font-size="14.00" fill="#000000">PiR</text>
</g>
<!-- fp1&#45;&gt;f2a -->
<g id="edge28" class="edge">
<title>fp1&#45;&gt;f2a</title>
<path fill="none" stroke="#ff0000" d="M188.6065,-1015.237C203.1452,-1001.4885 225.0155,-980.8068 241.6351,-965.0905"/>
<polygon fill="#ff0000" stroke="#ff0000" points="244.4559,-967.2401 249.3169,-957.8261 239.6463,-962.154 244.4559,-967.2401"/>
<text text-anchor="middle" x="227.5" y="-982.7954" font-family="Times,serif" font-size="14.00" fill="#000000">1</text>
</g>
<!-- d2b -->
<g id="node7" class="node">
<title>d2b</title>
<ellipse fill="none" stroke="#000000" cx="554" cy="-408.9977" rx="25.9957" ry="25.9957"/>
<ellipse fill="none" stroke="#000000" cx="554" cy="-408.9977" rx="29.9954" ry="29.9954"/>
<text text-anchor="middle" x="554" y="-405.2977" font-family="Times,serif" font-size="14.00" fill="#000000">Dup</text>
</g>
<!-- d2a&#45;&gt;d2b -->
<g id="edge31" class="edge">
<title>d2a&#45;&gt;d2b</title>
<path fill="none" stroke="#000000" stroke-dasharray="5,2" d="M76.4275,-667.1343C103.8826,-640.9896 163.4699,-585.5973 218,-543.9954 252.6934,-517.5272 260.0849,-507.63 300,-489.9954 383.9091,-452.9241 414.7552,-472.8825 500,-438.9954 509.5672,-435.1922 519.5528,-430.0229 528.2975,-425.047"/>
</g>
<!-- d2c -->
<g id="node23" class="node">
<title>d2c</title>
<ellipse fill="none" stroke="#000000" cx="188" cy="-408.9977" rx="27" ry="18"/>
<text text-anchor="middle" x="188" y="-405.2977" font-family="Times,serif" font-size="14.00" fill="#000000">Dup</text>
</g>
<!-- d2a&#45;&gt;d2c -->
<g id="edge32" class="edge">
<title>d2a&#45;&gt;d2c</title>
<path fill="none" stroke="#000000" stroke-dasharray="5,2" d="M82.5462,-670.9548C115.9712,-653.6873 177.2983,-621.3927 185,-612.9954 223.7634,-570.7309 235.9054,-546.0948 224,-489.9954 219.0484,-466.6629 206.8955,-441.8914 198.0769,-425.977"/>
</g>
<!-- hi_retpa -->
<g id="node25" class="node">
<title>hi_retpa</title>
<ellipse fill="none" stroke="#000000" cx="52" cy="-594.9954" rx="27" ry="18"/>
<text text-anchor="middle" x="52" y="-591.2954" font-family="Times,serif" font-size="14.00" fill="#000000">!p</text>
</g>
<!-- d2a&#45;&gt;hi_retpa -->
<g id="edge33" class="edge">
<title>d2a&#45;&gt;hi_retpa</title>
<path fill="none" stroke="#0000ff" d="M46.179,-666.7936C41.3181,-660.8059 36.5199,-653.5552 34,-645.9954 31.2256,-637.6723 32.8744,-628.6308 36.0872,-620.5041"/>
<polygon fill="#0000ff" stroke="#0000ff" points="39.2451,-622.0132 40.4057,-611.4821 32.9311,-618.9909 39.2451,-622.0132"/>
<text text-anchor="middle" x="37.5" y="-634.7954" font-family="Times,serif" font-size="14.00" fill="#000000">1</text>
</g>
<!-- dx -->
<g id="node6" class="node">
<title>dx</title>
<ellipse fill="none" stroke="#000000" cx="499" cy="-681.9954" rx="27" ry="18"/>
<text text-anchor="middle" x="499" y="-678.2954" font-family="Times,serif" font-size="14.00" fill="#000000">Dup</text>
</g>
<!-- dx&#45;&gt;d2b -->
<g id="edge4" class="edge">
<title>dx&#45;&gt;d2b</title>
<path fill="none" stroke="#ff0000" stroke-width="2" d="M512.2769,-666.0105C533.6382,-639.1348 574.7798,-582.2936 590,-525.9954 597.5558,-498.0471 586.8753,-466.7124 575.2278,-443.5098"/>
<polygon fill="#ff0000" stroke="#ff0000" stroke-width="2" points="578.1808,-441.6076 570.4036,-434.4127 571.9965,-444.8871 578.1808,-441.6076"/>
</g>
<!-- i_i2 -->
<g id="node33" class="node">
<title>i_i2</title>
<ellipse fill="none" stroke="#000000" cx="343" cy="-237" rx="27" ry="18"/>
<text text-anchor="middle" x="343" y="-233.3" font-family="Times,serif" font-size="14.00" fill="#000000">PiR</text>
</g>
<!-- d2b&#45;&gt;i_i2 -->
<g id="edge50" class="edge">
<title>d2b&#45;&gt;i_i2</title>
<path fill="none" stroke="#ff0000" d="M530.6131,-389.9338C490.5607,-357.2848 409.1861,-290.9519 368.0323,-257.4052"/>
<polygon fill="#ff0000" stroke="#ff0000" points="370.0884,-254.5658 360.1259,-250.9603 365.6656,-259.9915 370.0884,-254.5658"/>
</g>
<!-- c1b2a -->
<g id="node8" class="node">
<title>c1b2a</title>
<ellipse fill="none" stroke="#000000" cx="448" cy="-855.9954" rx="27" ry="18"/>
<text text-anchor="middle" x="448" y="-852.2954" font-family="Times,serif" font-size="14.00" fill="#000000">Cut</text>
</g>
<!-- i2a -->
<g id="node9" class="node">
<title>i2a</title>
<ellipse fill="none" stroke="#000000" cx="499" cy="-768.9954" rx="27" ry="18"/>
<text text-anchor="middle" x="499" y="-765.2954" font-family="Times,serif" font-size="14.00" fill="#000000">!p</text>
</g>
<!-- c1b2a&#45;&gt;i2a -->
<g id="edge5" class="edge">
<title>c1b2a&#45;&gt;i2a</title>
<path fill="none" stroke="#ff0000" d="M457.8333,-839.2209C465.194,-826.6644 475.3982,-809.2573 483.8055,-794.9154"/>
<polygon fill="#ff0000" stroke="#ff0000" points="486.9851,-796.4122 489.0229,-786.0152 480.9462,-792.8722 486.9851,-796.4122"/>
<text text-anchor="middle" x="479.5" y="-808.7954" font-family="Times,serif" font-size="14.00" fill="#000000">2</text>
</g>
<!-- d1b -->
<g id="node10" class="node">
<title>d1b</title>
<ellipse fill="none" stroke="#000000" cx="226" cy="-768.9954" rx="27" ry="18"/>
<text text-anchor="middle" x="226" y="-765.2954" font-family="Times,serif" font-size="14.00" fill="#000000">Dup</text>
</g>
<!-- c1b2a&#45;&gt;d1b -->
<g id="edge6" class="edge">
<title>c1b2a&#45;&gt;d1b</title>
<path fill="none" stroke="#0000ff" d="M423.5912,-847.8878C387.7229,-835.7618 318.8713,-811.6755 262,-786.9954 259.6282,-785.9661 257.1901,-784.8584 254.7542,-783.7163"/>
<ellipse fill="none" stroke="#0000ff" cx="251.1258" cy="-781.9679" rx="4" ry="4"/>
<text text-anchor="middle" x="345.5" y="-808.7954" font-family="Times,serif" font-size="14.00" fill="#000000">1</text>
</g>
<!-- i2a&#45;&gt;dx -->
<g id="edge9" class="edge">
<title>i2a&#45;&gt;dx</title>
<path fill="none" stroke="#ff0000" d="M499,-750.9689C499,-739.1872 499,-723.556 499,-710.1535"/>
<polygon fill="#ff0000" stroke="#ff0000" points="502.5001,-709.9987 499,-699.9987 495.5001,-709.9988 502.5001,-709.9987"/>
<text text-anchor="middle" x="502.5" y="-721.7954" font-family="Times,serif" font-size="14.00" fill="#000000">3</text>
</g>
<!-- d1b&#45;&gt;d2a -->
<g id="edge23" class="edge">
<title>d1b&#45;&gt;d2a</title>
<path fill="none" stroke="#0000ff" d="M204.7669,-757.7998C175.5168,-742.377 122.7273,-714.5425 89.9006,-697.2339"/>
<ellipse fill="none" stroke="#0000ff" cx="85.9512" cy="-695.1515" rx="4" ry="4"/>
</g>
<!-- d1c -->
<g id="node13" class="node">
<title>d1c</title>
<ellipse fill="none" stroke="#000000" cx="484" cy="-594.9954" rx="27" ry="18"/>
<text text-anchor="middle" x="484" y="-591.2954" font-family="Times,serif" font-size="14.00" fill="#000000">Dup</text>
</g>
<!-- d1b&#45;&gt;d1c -->
<g id="edge10" class="edge">
<title>d1b&#45;&gt;d1c</title>
<path fill="none" stroke="#000000" stroke-dasharray="5,2" d="M202.3732,-759.9154C183.5043,-751.1039 161.5158,-736.3832 170,-717.9954 194.9631,-663.893 217.2144,-654.4209 272,-630.9954 344.2984,-600.0816 372.4927,-634.9355 448,-612.9954 453.2339,-611.4746 458.6205,-609.2095 463.5808,-606.7948"/>
</g>
<!-- d1d -->
<g id="node14" class="node">
<title>d1d</title>
<ellipse fill="none" stroke="#000000" cx="188" cy="-507.9954" rx="27" ry="18"/>
<text text-anchor="middle" x="188" y="-504.2954" font-family="Times,serif" font-size="14.00" fill="#000000">Dup</text>
</g>
<!-- d1b&#45;&gt;d1d -->
<g id="edge11" class="edge">
<title>d1b&#45;&gt;d1d</title>
<path fill="none" stroke="#000000" stroke-dasharray="5,2" d="M228.1705,-750.6331C232.3213,-722.3258 243.6425,-667.488 272,-630.9954 281.0776,-619.3137 292.9109,-625.9803 300,-612.9954 307.667,-598.952 307.8014,-590.9646 300,-576.9954 290.0893,-559.2492 239.8132,-532.8226 210.0963,-518.3663"/>
</g>
<!-- c1b2b -->
<g id="node11" class="node">
<title>c1b2b</title>
<ellipse fill="none" stroke="#000000" cx="427" cy="-768.9954" rx="27" ry="18"/>
<text text-anchor="middle" x="427" y="-765.2954" font-family="Times,serif" font-size="14.00" fill="#000000">Cut</text>
</g>
<!-- c1b2b&#45;&gt;dx -->
<g id="edge7" class="edge">
<title>c1b2b&#45;&gt;dx</title>
<path fill="none" stroke="#ff0000" stroke-width="2" d="M440.2059,-753.0382C451.5731,-739.3028 468.0911,-719.3436 480.7266,-704.0757"/>
<ellipse fill="none" stroke="#ff0000" stroke-width="2" cx="483.3275" cy="-700.933" rx="4" ry="4"/>
<text text-anchor="middle" x="470.5" y="-721.7954" font-family="Times,serif" font-size="14.00" fill="#000000">3</text>
</g>
<!-- hbg2 -->
<g id="node12" class="node">
<title>hbg2</title>
<ellipse fill="none" stroke="#000000" cx="427" cy="-681.9954" rx="27" ry="18"/>
<text text-anchor="middle" x="427" y="-678.2954" font-family="Times,serif" font-size="14.00" fill="#000000">PiL</text>
</g>
<!-- c1b2b&#45;&gt;hbg2 -->
<g id="edge8" class="edge">
<title>c1b2b&#45;&gt;hbg2</title>
<path fill="none" stroke="#0000ff" stroke-width="2" d="M427,-750.9689C427,-739.1872 427,-723.556 427,-710.1535"/>
<polygon fill="#0000ff" stroke="#0000ff" stroke-width="2" points="430.5001,-709.9987 427,-699.9987 423.5001,-709.9988 430.5001,-709.9987"/>
<text text-anchor="middle" x="430.5" y="-721.7954" font-family="Times,serif" font-size="14.00" fill="#000000">2</text>
</g>
<!-- hbg2&#45;&gt;d1c -->
<g id="edge19" class="edge">
<title>hbg2&#45;&gt;d1c</title>
<path fill="none" stroke="#ff0000" d="M438.0395,-665.5388C442.1293,-659.4152 446.7938,-652.3993 451,-645.9954 456.8801,-637.0429 463.2886,-627.1668 468.8807,-618.5089"/>
<ellipse fill="none" stroke="#ff0000" cx="471.1884" cy="-614.9313" rx="4" ry="4"/>
</g>
<!-- x2i_o2g2 -->
<g id="node20" class="node">
<title>x2i_o2g2</title>
<ellipse fill="none" stroke="#000000" cx="412" cy="-594.9954" rx="27" ry="18"/>
<text text-anchor="middle" x="412" y="-591.2954" font-family="Times,serif" font-size="14.00" fill="#000000">PiL</text>
</g>
<!-- hbg2&#45;&gt;x2i_o2g2 -->
<g id="edge20" class="edge">
<title>hbg2&#45;&gt;x2i_o2g2</title>
<path fill="none" stroke="#0000ff" stroke-width="2" d="M423.892,-663.9689C421.8607,-652.1872 419.1656,-636.556 416.8548,-623.1535"/>
<polygon fill="#0000ff" stroke="#0000ff" stroke-width="2" points="420.2523,-622.2586 415.104,-612.9987 413.3541,-623.4481 420.2523,-622.2586"/>
<text text-anchor="middle" x="433.5" y="-634.7954" font-family="Times,serif" font-size="14.00" fill="#000000">2&#45;&gt;1</text>
</g>
<!-- i3 -->
<g id="node22" class="node">
<title>i3</title>
<ellipse fill="none" stroke="#000000" cx="554" cy="-507.9954" rx="27" ry="18"/>
<text text-anchor="middle" x="554" y="-504.2954" font-family="Times,serif" font-size="14.00" fill="#000000">!p</text>
</g>
<!-- d1c&#45;&gt;i3 -->
<g id="edge24" class="edge">
<title>d1c&#45;&gt;i3</title>
<path fill="none" stroke="#ff0000" d="M496.8391,-579.0382C507.4293,-565.8762 522.6178,-546.999 534.6768,-532.0113"/>
<polygon fill="#ff0000" stroke="#ff0000" points="537.4634,-534.1313 541.0053,-524.146 532.0095,-529.7431 537.4634,-534.1313"/>
</g>
<!-- d1d&#45;&gt;d2c -->
<g id="edge25" class="edge">
<title>d1d&#45;&gt;d2c</title>
<path fill="none" stroke="#ff0000" d="M188,-489.8377C188,-474.4872 188,-452.3053 188,-435.0587"/>
<ellipse fill="none" stroke="#ff0000" cx="188" cy="-431.0403" rx="4" ry="4"/>
</g>
<!-- xdicg1 -->
<g id="node15" class="node">
<title>xdicg1</title>
<ellipse fill="none" stroke="#000000" cx="265" cy="-855.9954" rx="27" ry="18"/>
<text text-anchor="middle" x="265" y="-852.2954" font-family="Times,serif" font-size="14.00" fill="#000000">!c</text>
</g>
<!-- xdicg1&#45;&gt;d1b -->
<g id="edge12" class="edge">
<title>xdicg1&#45;&gt;d1b</title>
<path fill="none" stroke="#0000ff" d="M257.1078,-838.3896C251.6272,-826.1637 244.2232,-809.6471 238.0134,-795.7946"/>
<polygon fill="#0000ff" stroke="#0000ff" points="241.0318,-793.9714 233.7474,-786.278 234.6442,-796.8349 241.0318,-793.9714"/>
</g>
<!-- h_di2g1 -->
<g id="node16" class="node">
<title>h_di2g1</title>
<ellipse fill="none" stroke="#000000" cx="298" cy="-768.9954" rx="27" ry="18"/>
<text text-anchor="middle" x="298" y="-765.2954" font-family="Times,serif" font-size="14.00" fill="#000000">!d</text>
</g>
<!-- xdicg1&#45;&gt;h_di2g1 -->
<g id="edge13" class="edge">
<title>xdicg1&#45;&gt;h_di2g1</title>
<path fill="none" stroke="#0000ff" d="M271.678,-838.3896C276.2852,-826.2436 282.4986,-809.8628 287.7316,-796.0665"/>
<polygon fill="#0000ff" stroke="#0000ff" points="291.0578,-797.1662 291.3319,-786.575 284.5128,-794.6836 291.0578,-797.1662"/>
<text text-anchor="middle" x="286.5" y="-808.7954" font-family="Times,serif" font-size="14.00" fill="#000000">1</text>
</g>
<!-- hbg1 -->
<g id="node17" class="node">
<title>hbg1</title>
<ellipse fill="none" stroke="#000000" cx="298" cy="-681.9954" rx="27" ry="18"/>
<text text-anchor="middle" x="298" y="-678.2954" font-family="Times,serif" font-size="14.00" fill="#000000">PiL</text>
</g>
<!-- h_di2g1&#45;&gt;hbg1 -->
<g id="edge14" class="edge">
<title>h_di2g1&#45;&gt;hbg1</title>
<path fill="none" stroke="#0000ff" d="M298,-750.9689C298,-739.1872 298,-723.556 298,-710.1535"/>
<polygon fill="#0000ff" stroke="#0000ff" points="301.5001,-709.9987 298,-699.9987 294.5001,-709.9988 301.5001,-709.9987"/>
<text text-anchor="middle" x="301.5" y="-721.7954" font-family="Times,serif" font-size="14.00" fill="#000000">2</text>
</g>
<!-- hbg1&#45;&gt;d1c -->
<g id="edge15" class="edge">
<title>hbg1&#45;&gt;d1c</title>
<path fill="none" stroke="#ff0000" d="M320.4697,-671.934C349.8963,-658.6947 403.0323,-634.5729 448,-612.9954 449.7482,-612.1565 451.5405,-611.288 453.3466,-610.4061"/>
<polygon fill="#ff0000" stroke="#ff0000" points="454.9356,-613.525 462.3541,-605.9608 451.8377,-607.2478 454.9356,-613.525"/>
</g>
<!-- x2i_o2g1 -->
<g id="node18" class="node">
<title>x2i_o2g1</title>
<ellipse fill="none" stroke="#000000" cx="264" cy="-594.9954" rx="27" ry="18"/>
<text text-anchor="middle" x="264" y="-591.2954" font-family="Times,serif" font-size="14.00" fill="#000000">PiL</text>
</g>
<!-- hbg1&#45;&gt;x2i_o2g1 -->
<g id="edge16" class="edge">
<title>hbg1&#45;&gt;x2i_o2g1</title>
<path fill="none" stroke="#0000ff" d="M289.9076,-664.5351C287.2848,-658.6836 284.4279,-652.0959 282,-645.9954 278.9583,-638.3524 275.8903,-629.9676 273.1704,-622.2439"/>
<polygon fill="#0000ff" stroke="#0000ff" points="276.4066,-620.8931 269.8266,-612.5892 269.792,-623.184 276.4066,-620.8931"/>
<text text-anchor="middle" x="295.5" y="-634.7954" font-family="Times,serif" font-size="14.00" fill="#000000">2&#45;&gt;1</text>
</g>
<!-- x2i_o2g1&#45;&gt;d1d -->
<g id="edge17" class="edge">
<title>x2i_o2g1&#45;&gt;d1d</title>
<path fill="none" stroke="#ff0000" d="M248.0096,-580.4178C241.2965,-574.0518 233.5448,-566.3682 227,-558.9954 219.6744,-550.7429 212.1822,-541.2461 205.7478,-532.7015"/>
<polygon fill="#ff0000" stroke="#ff0000" points="208.4773,-530.5062 199.7113,-524.5557 202.8532,-534.674 208.4773,-530.5062"/>
</g>
<!-- f_retg1 -->
<g id="node19" class="node">
<title>f_retg1</title>
<ellipse fill="none" stroke="#000000" cx="336" cy="-507.9954" rx="27" ry="18"/>
<text text-anchor="middle" x="336" y="-504.2954" font-family="Times,serif" font-size="14.00" fill="#000000">I</text>
</g>
<!-- x2i_o2g1&#45;&gt;f_retg1 -->
<g id="edge18" class="edge">
<title>x2i_o2g1&#45;&gt;f_retg1</title>
<path fill="none" stroke="#0000ff" d="M277.2059,-579.0382C288.1672,-565.7934 303.9179,-546.7613 316.3584,-531.729"/>
<polygon fill="#0000ff" stroke="#0000ff" points="319.1985,-533.7868 322.8778,-523.8514 313.8057,-529.3238 319.1985,-533.7868"/>
</g>
<!-- x2i_o2g2&#45;&gt;d1d -->
<g id="edge21" class="edge">
<title>x2i_o2g2&#45;&gt;d1d</title>
<path fill="none" stroke="#ff0000" d="M388.4514,-585.8493C347.7831,-570.054 264.3965,-537.6672 219.0429,-520.0522"/>
<ellipse fill="none" stroke="#ff0000" cx="215.2978" cy="-518.5977" rx="4" ry="4"/>
</g>
<!-- x2i_o2f -->
<g id="node21" class="node">
<title>x2i_o2f</title>
<ellipse fill="none" stroke="#000000" cx="408" cy="-507.9954" rx="27" ry="18"/>
<text text-anchor="middle" x="408" y="-504.2954" font-family="Times,serif" font-size="14.00" fill="#000000">PiL</text>
</g>
<!-- x2i_o2g2&#45;&gt;x2i_o2f -->
<g id="edge22" class="edge">
<title>x2i_o2g2&#45;&gt;x2i_o2f</title>
<path fill="none" stroke="#0000ff" stroke-width="2" d="M411.1712,-576.9689C410.6295,-565.1872 409.9108,-549.556 409.2946,-536.1535"/>
<polygon fill="#0000ff" stroke="#0000ff" stroke-width="2" points="412.7834,-535.8274 408.8277,-525.9987 405.7908,-536.149 412.7834,-535.8274"/>
</g>
<!-- x2i_o2f&#45;&gt;f_retf -->
<g id="edge30" class="edge">
<title>x2i_o2f&#45;&gt;f_retf</title>
<path fill="none" stroke="#0000ff" stroke-width="2" d="M417.7545,-490.7513C426.4269,-475.4201 439.2355,-452.7768 449.175,-435.2055"/>
<polygon fill="#0000ff" stroke="#0000ff" stroke-width="2" points="452.4801,-436.4714 454.3573,-426.0442 446.3873,-433.0249 452.4801,-436.4714"/>
</g>
<!-- x2i_o2f&#45;&gt;d2c -->
<g id="edge29" class="edge">
<title>x2i_o2f&#45;&gt;d2c</title>
<path fill="none" stroke="#ff0000" d="M386.3818,-496.9716C381.6628,-494.6255 376.6802,-492.194 372,-489.9954 319.2215,-465.2022 256.9638,-438.2722 220.0785,-422.5541"/>
<polygon fill="#ff0000" stroke="#ff0000" points="221.395,-419.3107 210.8228,-418.6185 218.6558,-425.7525 221.395,-419.3107"/>
</g>
<!-- i3&#45;&gt;d2b -->
<g id="edge51" class="edge">
<title>i3&#45;&gt;d2b</title>
<path fill="none" stroke="#ff0000" d="M554,-489.8377C554,-477.9855 554,-462.0609 554,-447.4798"/>
<ellipse fill="none" stroke="#ff0000" cx="554" cy="-443.0909" rx="4" ry="4"/>
<text text-anchor="middle" x="557.5" y="-460.7954" font-family="Times,serif" font-size="14.00" fill="#000000">3</text>
</g>
<!-- x1_o2 -->
<g id="node26" class="node">
<title>x1_o2</title>
<ellipse fill="none" stroke="#000000" cx="180" cy="-324" rx="27" ry="18"/>
<text text-anchor="middle" x="180" y="-320.3" font-family="Times,serif" font-size="14.00" fill="#000000">I</text>
</g>
<!-- d2c&#45;&gt;x1_o2 -->
<g id="edge34" class="edge">
<title>d2c&#45;&gt;x1_o2</title>
<path fill="none" stroke="#ff0000" d="M186.3034,-390.9719C185.2428,-379.7028 183.8543,-364.9513 182.6506,-352.1619"/>
<polygon fill="#ff0000" stroke="#ff0000" points="186.1159,-351.6278 181.6941,-341.9998 179.1467,-352.2838 186.1159,-351.6278"/>
</g>
<!-- f2a&#45;&gt;xdicg1 -->
<g id="edge27" class="edge">
<title>f2a&#45;&gt;xdicg1</title>
<path fill="none" stroke="#0000ff" d="M265,-924.9689C265,-913.1872 265,-897.556 265,-884.1535"/>
<polygon fill="#0000ff" stroke="#0000ff" points="268.5001,-883.9987 265,-873.9987 261.5001,-883.9988 268.5001,-883.9987"/>
</g>
<!-- f2a&#45;&gt;f_retg1 -->
<g id="edge26" class="edge">
<title>f2a&#45;&gt;f_retg1</title>
<path fill="none" stroke="#ff0000" d="M288.2155,-933.2544C315.4697,-920.0818 357,-893.806 357,-855.9954 357,-855.9954 357,-855.9954 357,-594.9954 357,-574.6649 351.5141,-552.3895 346.1501,-535.4681"/>
<polygon fill="#ff0000" stroke="#ff0000" points="349.37,-534.0608 342.8762,-525.6894 342.7321,-536.2832 349.37,-534.0608"/>
</g>
<!-- hi_ret1 -->
<g id="node27" class="node">
<title>hi_ret1</title>
<ellipse fill="none" stroke="#000000" cx="27" cy="-324" rx="27" ry="18"/>
<text text-anchor="middle" x="27" y="-320.3" font-family="Times,serif" font-size="14.00" fill="#000000">I</text>
</g>
<!-- hi_retpa&#45;&gt;hi_ret1 -->
<g id="edge47" class="edge">
<title>hi_retpa&#45;&gt;hi_ret1</title>
<path fill="none" stroke="#ff0000" d="M49.0217,-576.8798C46.8235,-562.9883 43.8966,-543.3221 42,-525.9954 35.2324,-464.1676 30.6561,-391.352 28.4737,-352.2449"/>
<polygon fill="#ff0000" stroke="#ff0000" points="31.9623,-351.9397 27.9217,-342.1457 24.9727,-352.3218 31.9623,-351.9397"/>
<text text-anchor="middle" x="40.5" y="-460.7954" font-family="Times,serif" font-size="14.00" fill="#000000">2</text>
</g>
<!-- h_di1 -->
<g id="node36" class="node">
<title>h_di1</title>
<ellipse fill="none" stroke="#000000" cx="78" cy="-507.9954" rx="27" ry="18"/>
<text text-anchor="middle" x="78" y="-504.2954" font-family="Times,serif" font-size="14.00" fill="#000000">!d</text>
</g>
<!-- hi_retpa&#45;&gt;h_di1 -->
<g id="edge48" class="edge">
<title>hi_retpa&#45;&gt;h_di1</title>
<path fill="none" stroke="#0000ff" d="M57.3872,-576.9689C60.9668,-564.9912 65.7353,-549.035 69.7843,-535.4865"/>
<polygon fill="#0000ff" stroke="#0000ff" points="73.1987,-536.2846 72.7086,-525.7011 66.4917,-534.2802 73.1987,-536.2846"/>
<text text-anchor="middle" x="69.5" y="-547.7954" font-family="Times,serif" font-size="14.00" fill="#000000">1</text>
</g>
<!-- d4a -->
<g id="node28" class="node">
<title>d4a</title>
<ellipse fill="none" stroke="#000000" cx="253" cy="-164" rx="27" ry="18"/>
<text text-anchor="middle" x="253" y="-160.3" font-family="Times,serif" font-size="14.00" fill="#000000">Dup</text>
</g>
<!-- d4b -->
<g id="node29" class="node">
<title>d4b</title>
<ellipse fill="none" stroke="#000000" cx="343" cy="-164" rx="27" ry="18"/>
<text text-anchor="middle" x="343" y="-160.3" font-family="Times,serif" font-size="14.00" fill="#000000">Dup</text>
</g>
<!-- d4a&#45;&gt;d4b -->
<g id="edge35" class="edge">
<title>d4a&#45;&gt;d4b</title>
<path fill="none" stroke="#000000" stroke-dasharray="5,2" d="M280.0703,-164C292.0335,-164 303.9967,-164 315.9599,-164"/>
</g>
<!-- il -->
<g id="node30" class="node">
<title>il</title>
<ellipse fill="none" stroke="#000000" cx="279" cy="-91" rx="27" ry="18"/>
<text text-anchor="middle" x="279" y="-87.3" font-family="Times,serif" font-size="14.00" fill="#000000">!d</text>
</g>
<!-- d4a&#45;&gt;il -->
<g id="edge36" class="edge">
<title>d4a&#45;&gt;il</title>
<path fill="none" stroke="#0000ff" d="M259.2939,-146.3287C262.2738,-137.962 265.9011,-127.7776 269.2275,-118.4382"/>
<polygon fill="#0000ff" stroke="#0000ff" points="272.6158,-119.3562 272.674,-108.7615 266.0216,-117.0075 272.6158,-119.3562"/>
</g>
<!-- i_ret -->
<g id="node31" class="node">
<title>i_ret</title>
<ellipse fill="none" stroke="#000000" cx="310" cy="-18" rx="27" ry="18"/>
<text text-anchor="middle" x="310" y="-14.3" font-family="Times,serif" font-size="14.00" fill="#000000">I</text>
</g>
<!-- d4b&#45;&gt;i_ret -->
<g id="edge37" class="edge">
<title>d4b&#45;&gt;i_ret</title>
<path fill="none" stroke="#ff0000" d="M338.9536,-146.0975C333.3127,-121.141 323.0292,-75.6445 316.3585,-46.1314"/>
<polygon fill="#ff0000" stroke="#ff0000" points="319.6982,-45.0312 314.0795,-36.0489 312.8704,-46.5745 319.6982,-45.0312"/>
</g>
<!-- il&#45;&gt;i_ret -->
<g id="edge52" class="edge">
<title>il&#45;&gt;i_ret</title>
<path fill="none" stroke="#0000ff" d="M286.5042,-73.3287C290.1216,-64.8103 294.5392,-54.4078 298.5635,-44.9312"/>
<polygon fill="#0000ff" stroke="#0000ff" points="301.8776,-46.0811 302.5649,-35.5085 295.4345,-43.3449 301.8776,-46.0811"/>
</g>
<!-- i_i1 -->
<g id="node32" class="node">
<title>i_i1</title>
<ellipse fill="none" stroke="#000000" cx="253" cy="-237" rx="27" ry="18"/>
<text text-anchor="middle" x="253" y="-233.3" font-family="Times,serif" font-size="14.00" fill="#000000">PiR</text>
</g>
<!-- i_i1&#45;&gt;d4a -->
<g id="edge38" class="edge">
<title>i_i1&#45;&gt;d4a</title>
<path fill="none" stroke="#0000ff" d="M253,-218.9551C253,-210.8828 253,-201.1764 253,-192.1817"/>
<polygon fill="#0000ff" stroke="#0000ff" points="256.5001,-192.0903 253,-182.0904 249.5001,-192.0904 256.5001,-192.0903"/>
</g>
<!-- i_i1&#45;&gt;d4b -->
<g id="edge39" class="edge">
<title>i_i1&#45;&gt;d4b</title>
<path fill="none" stroke="#ff0000" d="M270.3529,-222.9249C283.7997,-212.018 302.6239,-196.7495 317.741,-184.4878"/>
<polygon fill="#ff0000" stroke="#ff0000" points="320.1387,-187.0496 325.7004,-178.0319 315.7291,-181.6131 320.1387,-187.0496"/>
</g>
<!-- i_i2&#45;&gt;d4a -->
<g id="edge40" class="edge">
<title>i_i2&#45;&gt;d4a</title>
<path fill="none" stroke="#0000ff" d="M325.6471,-222.9249C311.7023,-211.6141 291.9743,-195.6125 276.595,-183.1382"/>
<ellipse fill="none" stroke="#0000ff" cx="273.4062" cy="-180.5517" rx="4" ry="4"/>
</g>
<!-- i_i2&#45;&gt;d4b -->
<g id="edge41" class="edge">
<title>i_i2&#45;&gt;d4b</title>
<path fill="none" stroke="#ff0000" d="M343,-218.9551C343,-210.2686 343,-199.6898 343,-190.142"/>
<ellipse fill="none" stroke="#ff0000" cx="343" cy="-186.0904" rx="4" ry="4"/>
</g>
<!-- ha -->
<g id="node34" class="node">
<title>ha</title>
<ellipse fill="none" stroke="#000000" cx="78" cy="-408.9977" rx="27" ry="18"/>
<text text-anchor="middle" x="78" y="-405.2977" font-family="Times,serif" font-size="14.00" fill="#000000">PiL</text>
</g>
<!-- ha&#45;&gt;hi_ret1 -->
<g id="edge43" class="edge">
<title>ha&#45;&gt;hi_ret1</title>
<path fill="none" stroke="#0000ff" d="M67.924,-392.2049C60.5896,-379.9812 50.5283,-363.2128 42.2174,-349.3617"/>
<polygon fill="#0000ff" stroke="#0000ff" points="45.2013,-347.532 37.055,-340.7579 39.1989,-351.1336 45.2013,-347.532"/>
</g>
<!-- i1 -->
<g id="node35" class="node">
<title>i1</title>
<ellipse fill="none" stroke="#000000" cx="101" cy="-324" rx="27" ry="18"/>
<text text-anchor="middle" x="101" y="-320.3" font-family="Times,serif" font-size="14.00" fill="#000000">!p</text>
</g>
<!-- ha&#45;&gt;i1 -->
<g id="edge42" class="edge">
<title>ha&#45;&gt;i1</title>
<path fill="none" stroke="#ff0000" d="M82.8777,-390.9719C85.9576,-379.5901 89.9987,-364.6559 93.4832,-351.7788"/>
<polygon fill="#ff0000" stroke="#ff0000" points="96.8957,-352.5669 96.1293,-341.9998 90.1387,-350.7385 96.8957,-352.5669"/>
</g>
<!-- i1&#45;&gt;i_i1 -->
<g id="edge49" class="edge">
<title>i1&#45;&gt;i_i1</title>
<path fill="none" stroke="#ff0000" d="M121.4994,-312.2668C147.7899,-297.2189 193.5635,-271.0196 223.5721,-253.8436"/>
<polygon fill="#ff0000" stroke="#ff0000" points="225.3997,-256.8304 232.3399,-248.8252 221.9224,-250.7551 225.3997,-256.8304"/>
<text text-anchor="middle" x="189.5" y="-276.8" font-family="Times,serif" font-size="14.00" fill="#000000">3</text>
</g>
<!-- h_di1&#45;&gt;ha -->
<g id="edge44" class="edge">
<title>h_di1&#45;&gt;ha</title>
<path fill="none" stroke="#0000ff" d="M78,-489.8377C78,-475.185 78,-454.3077 78,-437.44"/>
<polygon fill="#0000ff" stroke="#0000ff" points="81.5001,-437.0402 78,-427.0403 74.5001,-437.0403 81.5001,-437.0402"/>
<text text-anchor="middle" x="81.5" y="-460.7954" font-family="Times,serif" font-size="14.00" fill="#000000">2</text>
</g>
<!-- c2a -->
<g id="node37" class="node">
<title>c2a</title>
<ellipse fill="none" stroke="#000000" cx="133" cy="-681.9954" rx="27" ry="18"/>
<text text-anchor="middle" x="133" y="-678.2954" font-family="Times,serif" font-size="14.00" fill="#000000">Cut</text>
</g>
<!-- c2a&#45;&gt;hi_retpa -->
<g id="edge45" class="edge">
<title>c2a&#45;&gt;hi_retpa</title>
<path fill="none" stroke="#ff0000" d="M118.5188,-666.4415C105.9638,-652.9565 87.6236,-633.2577 73.3791,-617.9581"/>
<polygon fill="#ff0000" stroke="#ff0000" points="75.7317,-615.3486 66.3558,-610.4146 70.6084,-620.1185 75.7317,-615.3486"/>
<text text-anchor="middle" x="100.5" y="-634.7954" font-family="Times,serif" font-size="14.00" fill="#000000">1</text>
</g>
<!-- c2a&#45;&gt;x1_o2 -->
<g id="edge46" class="edge">
<title>c2a&#45;&gt;x1_o2</title>
<path fill="none" stroke="#0000ff" d="M133,-663.6648C133,-646.0582 133,-618.7089 133,-594.9954 133,-594.9954 133,-594.9954 133,-408.9977 133,-385.8792 146.4804,-363.1443 159.0023,-347.0129"/>
<polygon fill="#0000ff" stroke="#0000ff" points="161.7616,-349.1675 165.3865,-339.2121 156.3445,-344.7341 161.7616,-349.1675"/>
</g>
</g>
</svg>
