<?xml version="1.0" encoding="UTF-8" standalone="no"?>
<!DOCTYPE svg PUBLIC "-//W3C//DTD SVG 1.1//EN"
 "http://www.w3.org/Graphics/SVG/1.1/DTD/svg11.dtd">
<!-- Generated by graphviz version 2.40.1 (20161225.0304)
 -->
<!-- Title: %3 Pages: 1 -->
<svg width="379pt" height="620pt"
 viewBox="0.00 0.00 379.00 620.00" xmlns="http://www.w3.org/2000/svg" xmlns:xlink="http://www.w3.org/1999/xlink">
<g id="graph0" class="graph" transform="scale(1 1) rotate(0) translate(4 616)">
<title>%3</title>
<polygon fill="#ffffff" stroke="transparent" points="-4,4 -4,-616 375,-616 375,4 -4,4"/>
<!-- Root -->
<g id="node1" class="node">
<title>Root</title>
<ellipse fill="none" stroke="#000000" cx="104" cy="-378" rx="32.4942" ry="18"/>
<text text-anchor="middle" x="104" y="-374.3" font-family="Times,serif" font-size="14.00" fill="#000000">Root</text>
</g>
<!-- ret -->
<g id="node2" class="node">
<title>ret</title>
<ellipse fill="none" stroke="#000000" cx="115" cy="-306" rx="27" ry="18"/>
<text text-anchor="middle" x="115" y="-302.3" font-family="Times,serif" font-size="14.00" fill="#000000">I</text>
</g>
<!-- Root&#45;&gt;ret -->
<g id="edge1" class="edge">
<title>Root&#45;&gt;ret</title>
<path fill="none" stroke="#ff0000" d="M106.7758,-359.8314C107.9703,-352.0125 109.3942,-342.6923 110.7188,-334.0221"/>
<polygon fill="#ff0000" stroke="#ff0000" points="114.2127,-334.3273 112.2632,-323.9134 107.293,-333.2701 114.2127,-334.3273"/>
</g>
<!-- y -->
<g id="node16" class="node">
<title>y</title>
<ellipse fill="none" stroke="#000000" cx="192" cy="-306" rx="27" ry="18"/>
<text text-anchor="middle" x="192" y="-302.3" font-family="Times,serif" font-size="14.00" fill="#000000">PiL</text>
</g>
<!-- Root&#45;&gt;y -->
<g id="edge21" class="edge">
<title>Root&#45;&gt;y</title>
<path fill="none" stroke="#ff0000" d="M130.2826,-356.4961C144.646,-344.7442 162.0335,-330.518 174.6879,-320.1645"/>
<polygon fill="#ff0000" stroke="#ff0000" points="127.7569,-354.0403 122.2337,-363.0816 132.1896,-359.458 127.7569,-354.0403"/>
</g>
<!-- c2 -->
<g id="node3" class="node">
<title>c2</title>
<ellipse fill="none" stroke="#000000" cx="299" cy="-594" rx="27.8951" ry="18"/>
<text text-anchor="middle" x="299" y="-590.3" font-family="Times,serif" font-size="14.00" fill="#000000">Cut</text>
</g>
<!-- x23_f2 -->
<g id="node4" class="node">
<title>x23_f2</title>
<ellipse fill="none" stroke="#000000" cx="336" cy="-450" rx="27" ry="18"/>
<text text-anchor="middle" x="336" y="-446.3" font-family="Times,serif" font-size="14.00" fill="#000000">!c</text>
</g>
<!-- c2&#45;&gt;x23_f2 -->
<g id="edge2" class="edge">
<title>c2&#45;&gt;x23_f2</title>
<path fill="none" stroke="#0000ff" d="M305.5162,-576.1559C309.1883,-565.7079 313.6883,-552.2079 317,-540 322.566,-519.4823 327.4811,-495.966 330.9172,-478.1181"/>
<polygon fill="#0000ff" stroke="#0000ff" points="334.3976,-478.5485 332.8105,-468.0732 327.5187,-477.2519 334.3976,-478.5485"/>
</g>
<!-- g2b -->
<g id="node5" class="node">
<title>g2b</title>
<ellipse fill="none" stroke="#000000" cx="281" cy="-522" rx="27" ry="18"/>
<text text-anchor="middle" x="281" y="-518.3" font-family="Times,serif" font-size="14.00" fill="#000000">!</text>
</g>
<!-- c2&#45;&gt;g2b -->
<g id="edge3" class="edge">
<title>c2&#45;&gt;g2b</title>
<path fill="none" stroke="#ff0000" d="M294.5506,-576.2022C292.5602,-568.2406 290.1668,-558.6671 287.9489,-549.7957"/>
<polygon fill="#ff0000" stroke="#ff0000" points="291.2816,-548.6951 285.4606,-539.8425 284.4906,-550.3929 291.2816,-548.6951"/>
</g>
<!-- x2_f2 -->
<g id="node10" class="node">
<title>x2_f2</title>
<ellipse fill="none" stroke="#000000" cx="325" cy="-378" rx="27" ry="18"/>
<text text-anchor="middle" x="325" y="-374.3" font-family="Times,serif" font-size="14.00" fill="#000000">I</text>
</g>
<!-- x23_f2&#45;&gt;x2_f2 -->
<g id="edge7" class="edge">
<title>x23_f2&#45;&gt;x2_f2</title>
<path fill="none" stroke="#0000ff" d="M333.2242,-431.8314C332.0297,-424.0125 330.6058,-414.6923 329.2812,-406.0221"/>
<polygon fill="#0000ff" stroke="#0000ff" points="332.707,-405.2701 327.7368,-395.9134 325.7873,-406.3273 332.707,-405.2701"/>
</g>
<!-- x3_f2 -->
<g id="node11" class="node">
<title>x3_f2</title>
<ellipse fill="none" stroke="#000000" cx="344" cy="-306" rx="27" ry="18"/>
<text text-anchor="middle" x="344" y="-302.3" font-family="Times,serif" font-size="14.00" fill="#000000">I</text>
</g>
<!-- x23_f2&#45;&gt;x3_f2 -->
<g id="edge8" class="edge">
<title>x23_f2&#45;&gt;x3_f2</title>
<path fill="none" stroke="#0000ff" d="M346.1076,-433.1647C351.7095,-422.8361 358.1112,-409.1159 361,-396 365.6535,-374.8719 360.559,-350.7806 354.7634,-332.8435"/>
<polygon fill="#0000ff" stroke="#0000ff" points="358.0372,-331.602 351.4341,-323.3164 351.4291,-333.9113 358.0372,-331.602"/>
</g>
<!-- d1 -->
<g id="node8" class="node">
<title>d1</title>
<ellipse fill="none" stroke="#000000" cx="254" cy="-450" rx="29.795" ry="18"/>
<text text-anchor="middle" x="254" y="-446.3" font-family="Times,serif" font-size="14.00" fill="#000000">Dup</text>
</g>
<!-- g2b&#45;&gt;d1 -->
<g id="edge17" class="edge">
<title>g2b&#45;&gt;d1</title>
<path fill="none" stroke="#ff0000" d="M274.3258,-504.2022C271.2524,-496.0064 267.5384,-486.1024 264.1305,-477.0145"/>
<polygon fill="#ff0000" stroke="#ff0000" points="267.3858,-475.7274 260.5974,-467.593 260.8315,-478.1853 267.3858,-475.7274"/>
</g>
<!-- c1 -->
<g id="node6" class="node">
<title>c1</title>
<ellipse fill="none" stroke="#000000" cx="207" cy="-594" rx="27.8951" ry="18"/>
<text text-anchor="middle" x="207" y="-590.3" font-family="Times,serif" font-size="14.00" fill="#000000">Cut</text>
</g>
<!-- x1i_f2 -->
<g id="node7" class="node">
<title>x1i_f2</title>
<ellipse fill="none" stroke="#000000" cx="171" cy="-522" rx="27" ry="18"/>
<text text-anchor="middle" x="171" y="-518.3" font-family="Times,serif" font-size="14.00" fill="#000000">PiL</text>
</g>
<!-- c1&#45;&gt;x1i_f2 -->
<g id="edge4" class="edge">
<title>c1&#45;&gt;x1i_f2</title>
<path fill="none" stroke="#0000ff" d="M198.2854,-576.5708C194.0403,-568.0807 188.8464,-557.6929 184.1337,-548.2674"/>
<polygon fill="#0000ff" stroke="#0000ff" points="187.237,-546.6477 179.6343,-539.2687 180.976,-549.7782 187.237,-546.6477"/>
</g>
<!-- c1&#45;&gt;d1 -->
<g id="edge5" class="edge">
<title>c1&#45;&gt;d1</title>
<path fill="none" stroke="#ff0000" d="M212.7631,-576.3428C220.8323,-551.6202 235.5718,-506.4608 245.0687,-477.3639"/>
<polygon fill="#ff0000" stroke="#ff0000" points="248.4141,-478.3941 248.1897,-467.8017 241.7596,-476.2221 248.4141,-478.3941"/>
</g>
<!-- id_r -->
<g id="node12" class="node">
<title>id_r</title>
<ellipse fill="none" stroke="#000000" cx="27" cy="-450" rx="27" ry="18"/>
<text text-anchor="middle" x="27" y="-446.3" font-family="Times,serif" font-size="14.00" fill="#000000">PiR</text>
</g>
<!-- x1i_f2&#45;&gt;id_r -->
<g id="edge11" class="edge">
<title>x1i_f2&#45;&gt;id_r</title>
<path fill="none" stroke="#ff0000" d="M149.1295,-511.0647C124.7778,-498.8889 85.238,-479.119 57.7715,-465.3858"/>
<polygon fill="#ff0000" stroke="#ff0000" points="59.114,-462.1439 48.6045,-460.8022 55.9835,-468.4049 59.114,-462.1439"/>
</g>
<!-- ssa -->
<g id="node14" class="node">
<title>ssa</title>
<ellipse fill="none" stroke="#000000" cx="179" cy="-450" rx="27" ry="18"/>
<text text-anchor="middle" x="179" y="-446.3" font-family="Times,serif" font-size="14.00" fill="#000000">PiL</text>
</g>
<!-- x1i_f2&#45;&gt;ssa -->
<g id="edge12" class="edge">
<title>x1i_f2&#45;&gt;ssa</title>
<path fill="none" stroke="#0000ff" d="M173.0187,-503.8314C173.8743,-496.131 174.8917,-486.9743 175.8426,-478.4166"/>
<polygon fill="#0000ff" stroke="#0000ff" points="179.3283,-478.7386 176.9541,-468.4133 172.3711,-477.9656 179.3283,-478.7386"/>
</g>
<!-- g2s -->
<g id="node9" class="node">
<title>g2s</title>
<ellipse fill="none" stroke="#000000" cx="253" cy="-378" rx="27" ry="18"/>
<text text-anchor="middle" x="253" y="-374.3" font-family="Times,serif" font-size="14.00" fill="#000000">PiR</text>
</g>
<!-- d1&#45;&gt;g2s -->
<g id="edge6" class="edge">
<title>d1&#45;&gt;g2s</title>
<path fill="none" stroke="#ff0000" d="M253.7477,-431.8314C253.6407,-424.131 253.5135,-414.9743 253.3947,-406.4166"/>
<polygon fill="#ff0000" stroke="#ff0000" points="256.8944,-406.3637 253.2557,-396.4133 249.8951,-406.4609 256.8944,-406.3637"/>
</g>
<!-- g2s&#45;&gt;y -->
<g id="edge18" class="edge">
<title>g2s&#45;&gt;y</title>
<path fill="none" stroke="#0000ff" d="M239.4621,-362.0209C231.4067,-352.5128 221.0367,-340.2728 212.0456,-329.6604"/>
<polygon fill="#0000ff" stroke="#0000ff" points="214.6347,-327.3019 205.5,-321.9345 209.2938,-331.8268 214.6347,-327.3019"/>
</g>
<!-- ret_g2 -->
<g id="node17" class="node">
<title>ret_g2</title>
<ellipse fill="none" stroke="#000000" cx="243" cy="-18" rx="27" ry="18"/>
<text text-anchor="middle" x="243" y="-14.3" font-family="Times,serif" font-size="14.00" fill="#000000">I</text>
</g>
<!-- g2s&#45;&gt;ret_g2 -->
<g id="edge19" class="edge">
<title>g2s&#45;&gt;ret_g2</title>
<path fill="none" stroke="#ff0000" d="M253,-359.8146C253,-332.4983 253,-279.25 253,-234 253,-234 253,-234 253,-162 253,-121.7793 249.0695,-75.391 246.1368,-46.3773"/>
<polygon fill="#ff0000" stroke="#ff0000" points="249.5896,-45.7407 245.072,-36.1573 242.6272,-46.4662 249.5896,-45.7407"/>
</g>
<!-- al -->
<g id="node13" class="node">
<title>al</title>
<ellipse fill="none" stroke="#000000" cx="27" cy="-378" rx="27" ry="18"/>
<text text-anchor="middle" x="27" y="-374.3" font-family="Times,serif" font-size="14.00" fill="#000000">I</text>
</g>
<!-- id_r&#45;&gt;al -->
<g id="edge9" class="edge">
<title>id_r&#45;&gt;al</title>
<path fill="none" stroke="#0000ff" d="M21.0843,-432.2022C20.2798,-424.1807 20.0571,-414.5231 20.4162,-405.5957"/>
<polygon fill="#0000ff" stroke="#0000ff" points="23.9097,-405.8099 21.105,-395.593 16.9262,-405.3289 23.9097,-405.8099"/>
</g>
<!-- id_r&#45;&gt;al -->
<g id="edge10" class="edge">
<title>id_r&#45;&gt;al</title>
<path fill="none" stroke="#ff0000" d="M32.9157,-432.2022C33.7202,-424.1807 33.9429,-414.5231 33.5838,-405.5957"/>
<polygon fill="#ff0000" stroke="#ff0000" points="37.0738,-405.3289 32.895,-395.593 30.0903,-405.8099 37.0738,-405.3289"/>
</g>
<!-- ssa&#45;&gt;x2_f2 -->
<g id="edge13" class="edge">
<title>ssa&#45;&gt;x2_f2</title>
<path fill="none" stroke="#ff0000" d="M200.683,-439.1108C205.398,-436.7563 210.3625,-434.2873 215,-432 247.8015,-415.8215 256.1985,-412.1785 289,-396 290.7391,-395.1423 292.5241,-394.259 294.3247,-393.3657"/>
<polygon fill="#ff0000" stroke="#ff0000" points="295.9247,-396.479 303.317,-388.8892 292.8051,-390.2126 295.9247,-396.479"/>
</g>
<!-- sa -->
<g id="node15" class="node">
<title>sa</title>
<ellipse fill="none" stroke="#000000" cx="181" cy="-378" rx="27" ry="18"/>
<text text-anchor="middle" x="181" y="-374.3" font-family="Times,serif" font-size="14.00" fill="#000000">PiL</text>
</g>
<!-- ssa&#45;&gt;sa -->
<g id="edge14" class="edge">
<title>ssa&#45;&gt;sa</title>
<path fill="none" stroke="#0000ff" d="M179.5047,-431.8314C179.7186,-424.131 179.9729,-414.9743 180.2106,-406.4166"/>
<polygon fill="#0000ff" stroke="#0000ff" points="183.7094,-406.5066 180.4885,-396.4133 176.7121,-406.3122 183.7094,-406.5066"/>
</g>
<!-- sa&#45;&gt;ret -->
<g id="edge16" class="edge">
<title>sa&#45;&gt;ret</title>
<path fill="none" stroke="#0000ff" d="M166.679,-362.3771C157.7708,-352.659 146.1548,-339.987 136.1925,-329.1191"/>
<polygon fill="#0000ff" stroke="#0000ff" points="138.6304,-326.599 129.2931,-321.5924 133.4703,-331.3291 138.6304,-326.599"/>
</g>
<!-- sa&#45;&gt;x3_f2 -->
<g id="edge15" class="edge">
<title>sa&#45;&gt;x3_f2</title>
<path fill="none" stroke="#ff0000" d="M202.5973,-366.9313C207.3176,-364.588 212.306,-362.169 217,-360 248.8212,-345.2965 285.752,-329.7615 311.5581,-319.148"/>
<polygon fill="#ff0000" stroke="#ff0000" points="312.9432,-322.363 320.87,-315.3333 310.2895,-315.8854 312.9432,-322.363"/>
</g>
<!-- x_g2 -->
<g id="node18" class="node">
<title>x_g2</title>
<ellipse fill="none" stroke="#000000" cx="192" cy="-234" rx="27" ry="18"/>
<text text-anchor="middle" x="192" y="-230.3" font-family="Times,serif" font-size="14.00" fill="#000000">!c</text>
</g>
<!-- y&#45;&gt;x_g2 -->
<g id="edge20" class="edge">
<title>y&#45;&gt;x_g2</title>
<path fill="none" stroke="#0000ff" d="M192,-287.8314C192,-280.131 192,-270.9743 192,-262.4166"/>
<polygon fill="#0000ff" stroke="#0000ff" points="195.5001,-262.4132 192,-252.4133 188.5001,-262.4133 195.5001,-262.4132"/>
</g>
<!-- x1_g2 -->
<g id="node19" class="node">
<title>x1_g2</title>
<ellipse fill="none" stroke="#000000" cx="198" cy="-162" rx="27" ry="18"/>
<text text-anchor="middle" x="198" y="-158.3" font-family="Times,serif" font-size="14.00" fill="#000000">!d</text>
</g>
<!-- x_g2&#45;&gt;x1_g2 -->
<g id="edge22" class="edge">
<title>x_g2&#45;&gt;x1_g2</title>
<path fill="none" stroke="#0000ff" d="M193.5141,-215.8314C194.1558,-208.131 194.9188,-198.9743 195.6319,-190.4166"/>
<polygon fill="#0000ff" stroke="#0000ff" points="199.1229,-190.6694 196.4656,-180.4133 192.1471,-190.088 199.1229,-190.6694"/>
</g>
<!-- x2_g2 -->
<g id="node20" class="node">
<title>x2_g2</title>
<ellipse fill="none" stroke="#000000" cx="162" cy="-18" rx="27" ry="18"/>
<text text-anchor="middle" x="162" y="-14.3" font-family="Times,serif" font-size="14.00" fill="#000000">I</text>
</g>
<!-- x_g2&#45;&gt;x2_g2 -->
<g id="edge23" class="edge">
<title>x_g2&#45;&gt;x2_g2</title>
<path fill="none" stroke="#0000ff" d="M179.8931,-217.4411C173.1788,-207.2105 165.4972,-193.4962 162,-180 150.2106,-134.5031 153.8127,-79.3745 157.7357,-46.5755"/>
<polygon fill="#0000ff" stroke="#0000ff" points="161.246,-46.7207 159.0566,-36.3545 154.3037,-45.8234 161.246,-46.7207"/>
</g>
<!-- x1i_g2 -->
<g id="node21" class="node">
<title>x1i_g2</title>
<ellipse fill="none" stroke="#000000" cx="198" cy="-90" rx="27" ry="18"/>
<text text-anchor="middle" x="198" y="-86.3" font-family="Times,serif" font-size="14.00" fill="#000000">PiL</text>
</g>
<!-- x1_g2&#45;&gt;x1i_g2 -->
<g id="edge24" class="edge">
<title>x1_g2&#45;&gt;x1i_g2</title>
<path fill="none" stroke="#0000ff" d="M198,-143.8314C198,-136.131 198,-126.9743 198,-118.4166"/>
<polygon fill="#0000ff" stroke="#0000ff" points="201.5001,-118.4132 198,-108.4133 194.5001,-118.4133 201.5001,-118.4132"/>
</g>
<!-- x1i_g2&#45;&gt;ret_g2 -->
<g id="edge26" class="edge">
<title>x1i_g2&#45;&gt;ret_g2</title>
<path fill="none" stroke="#0000ff" d="M208.437,-73.3008C213.9235,-64.5224 220.7686,-53.5703 226.9163,-43.7339"/>
<polygon fill="#0000ff" stroke="#0000ff" points="229.9751,-45.4436 232.3071,-35.1086 224.0391,-41.7336 229.9751,-45.4436"/>
</g>
<!-- x1i_g2&#45;&gt;x2_g2 -->
<g id="edge25" class="edge">
<title>x1i_g2&#45;&gt;x2_g2</title>
<path fill="none" stroke="#ff0000" d="M189.2854,-72.5708C185.0403,-64.0807 179.8464,-53.6929 175.1337,-44.2674"/>
<polygon fill="#ff0000" stroke="#ff0000" points="178.237,-42.6477 170.6343,-35.2687 171.976,-45.7782 178.237,-42.6477"/>
</g>
</g>
</svg>
