<?xml version="1.0" encoding="UTF-8" standalone="no"?>
<!DOCTYPE svg PUBLIC "-//W3C//DTD SVG 1.1//EN"
 "http://www.w3.org/Graphics/SVG/1.1/DTD/svg11.dtd">
<!-- Generated by graphviz version 2.40.1 (20161225.0304)
 -->
<!-- Title: %3 Pages: 1 -->
<svg width="581pt" height="900pt"
 viewBox="0.00 0.00 581.50 899.90" xmlns="http://www.w3.org/2000/svg" xmlns:xlink="http://www.w3.org/1999/xlink">
<g id="graph0" class="graph" transform="scale(1 1) rotate(0) translate(4 895.895)">
<title>%3</title>
<polygon fill="#ffffff" stroke="transparent" points="-4,4 -4,-895.895 577.4971,-895.895 577.4971,4 -4,4"/>
<!-- Root -->
<g id="node1" class="node">
<title>Root</title>
<ellipse fill="none" stroke="#000000" cx="32.4971" cy="-672" rx="32.4942" ry="18"/>
<text text-anchor="middle" x="32.4971" y="-668.3" font-family="Times,serif" font-size="14.00" fill="#000000">Root</text>
</g>
<!-- ret -->
<g id="node2" class="node">
<title>ret</title>
<ellipse fill="none" stroke="#000000" cx="55.4971" cy="-599" rx="27" ry="18"/>
<text text-anchor="middle" x="55.4971" y="-595.3" font-family="Times,serif" font-size="14.00" fill="#000000">I</text>
</g>
<!-- Root&#45;&gt;ret -->
<g id="edge1" class="edge">
<title>Root&#45;&gt;ret</title>
<path fill="none" stroke="#ff0000" stroke-width="2" d="M38.1825,-653.9551C40.8006,-645.6453 43.9644,-635.6038 46.8675,-626.3897"/>
<polygon fill="#ff0000" stroke="#ff0000" stroke-width="2" points="50.2102,-627.427 49.8771,-616.8374 43.5338,-625.3234 50.2102,-627.427"/>
</g>
<!-- c1a -->
<g id="node3" class="node">
<title>c1a</title>
<ellipse fill="none" stroke="#000000" cx="180.4971" cy="-873.895" rx="27.8951" ry="18"/>
<text text-anchor="middle" x="180.4971" y="-870.195" font-family="Times,serif" font-size="14.00" fill="#000000">Cut</text>
</g>
<!-- fp1 -->
<g id="node4" class="node">
<title>fp1</title>
<ellipse fill="none" stroke="#000000" cx="301.4971" cy="-772.9475" rx="27" ry="18"/>
<text text-anchor="middle" x="301.4971" y="-769.2475" font-family="Times,serif" font-size="14.00" fill="#000000">!p</text>
</g>
<!-- c1a&#45;&gt;fp1 -->
<g id="edge2" class="edge">
<title>c1a&#45;&gt;fp1</title>
<path fill="none" stroke="#ff0000" d="M198.2641,-859.8461C215.5903,-846.0584 242.6027,-824.3299 265.4971,-804.895 269.4567,-801.5338 273.6158,-797.9214 277.644,-794.378"/>
<polygon fill="#ff0000" stroke="#ff0000" points="279.9795,-796.9849 285.1424,-787.7331 275.3369,-791.746 279.9795,-796.9849"/>
<text text-anchor="middle" x="247.4971" y="-826.695" font-family="Times,serif" font-size="14.00" fill="#000000">0</text>
</g>
<!-- x1_o1 -->
<g id="node5" class="node">
<title>x1_o1</title>
<ellipse fill="none" stroke="#000000" cx="135.4971" cy="-599" rx="27" ry="18"/>
<text text-anchor="middle" x="135.4971" y="-595.3" font-family="Times,serif" font-size="14.00" fill="#000000">I</text>
</g>
<!-- c1a&#45;&gt;x1_o1 -->
<g id="edge3" class="edge">
<title>c1a&#45;&gt;x1_o1</title>
<path fill="none" stroke="#0000ff" d="M177.7726,-855.9157C172.052,-818.3646 158.2621,-728.8803 145.4971,-654 144.013,-645.2939 142.3204,-635.8276 140.7551,-627.2416"/>
<polygon fill="#0000ff" stroke="#0000ff" points="144.1809,-626.5185 138.9314,-617.3155 137.2961,-627.7834 144.1809,-626.5185"/>
</g>
<!-- f2 -->
<g id="node13" class="node">
<title>f2</title>
<ellipse fill="none" stroke="#000000" cx="302.4971" cy="-672" rx="27" ry="18"/>
<text text-anchor="middle" x="302.4971" y="-668.3" font-family="Times,serif" font-size="14.00" fill="#000000">PiR</text>
</g>
<!-- fp1&#45;&gt;f2 -->
<g id="edge13" class="edge">
<title>fp1&#45;&gt;f2</title>
<path fill="none" stroke="#ff0000" d="M301.6759,-754.9001C301.8257,-739.7778 302.0422,-717.9209 302.2153,-700.4463"/>
<polygon fill="#ff0000" stroke="#ff0000" points="305.7172,-700.2657 302.3165,-690.2315 298.7175,-700.1963 305.7172,-700.2657"/>
<text text-anchor="middle" x="307.4971" y="-711.8" font-family="Times,serif" font-size="14.00" fill="#000000">1</text>
</g>
<!-- c1b -->
<g id="node6" class="node">
<title>c1b</title>
<ellipse fill="none" stroke="#000000" cx="224.4971" cy="-772.9475" rx="27.9017" ry="27.9017"/>
<ellipse fill="none" stroke="#000000" cx="224.4971" cy="-772.9475" rx="31.8951" ry="31.8951"/>
<text text-anchor="middle" x="224.4971" y="-769.2475" font-family="Times,serif" font-size="14.00" fill="#000000">Cut</text>
</g>
<!-- f1 -->
<g id="node7" class="node">
<title>f1</title>
<ellipse fill="none" stroke="#000000" cx="230.4971" cy="-672" rx="27" ry="18"/>
<text text-anchor="middle" x="230.4971" y="-668.3" font-family="Times,serif" font-size="14.00" fill="#000000">PiR</text>
</g>
<!-- c1b&#45;&gt;f1 -->
<g id="edge4" class="edge">
<title>c1b&#45;&gt;f1</title>
<path fill="none" stroke="#ff0000" d="M226.3956,-741.0071C227.1734,-727.9202 228.066,-712.9031 228.8194,-700.2265"/>
<polygon fill="#ff0000" stroke="#ff0000" points="232.3145,-700.4125 229.414,-690.2224 225.3268,-699.9971 232.3145,-700.4125"/>
<text text-anchor="middle" x="233.4971" y="-711.8" font-family="Times,serif" font-size="14.00" fill="#000000">1</text>
</g>
<!-- x2i_o1 -->
<g id="node8" class="node">
<title>x2i_o1</title>
<ellipse fill="none" stroke="#000000" cx="109.4971" cy="-672" rx="27" ry="18"/>
<text text-anchor="middle" x="109.4971" y="-668.3" font-family="Times,serif" font-size="14.00" fill="#000000">PiL</text>
</g>
<!-- c1b&#45;&gt;x2i_o1 -->
<g id="edge5" class="edge">
<title>c1b&#45;&gt;x2i_o1</title>
<path fill="none" stroke="#0000ff" stroke-width="2" d="M200.3893,-751.7856C180.8235,-734.6106 153.3636,-710.5062 133.757,-693.2954"/>
<polygon fill="#0000ff" stroke="#0000ff" stroke-width="2" points="135.9656,-690.577 126.1413,-686.6104 131.3477,-695.8378 135.9656,-690.577"/>
<text text-anchor="middle" x="172.4971" y="-711.8" font-family="Times,serif" font-size="14.00" fill="#000000">0</text>
</g>
<!-- d1 -->
<g id="node9" class="node">
<title>d1</title>
<ellipse fill="none" stroke="#000000" cx="214.4971" cy="-599" rx="29.795" ry="18"/>
<text text-anchor="middle" x="214.4971" y="-595.3" font-family="Times,serif" font-size="14.00" fill="#000000">Dup</text>
</g>
<!-- f1&#45;&gt;d1 -->
<g id="edge9" class="edge">
<title>f1&#45;&gt;d1</title>
<path fill="none" stroke="#ff0000" d="M226.5421,-653.9551C224.7536,-645.7951 222.5991,-635.9652 220.6097,-626.8887"/>
<polygon fill="#ff0000" stroke="#ff0000" points="224.022,-626.1091 218.4621,-617.0904 217.1843,-627.6079 224.022,-626.1091"/>
</g>
<!-- d2 -->
<g id="node10" class="node">
<title>d2</title>
<ellipse fill="none" stroke="#000000" cx="309.4971" cy="-599" rx="29.795" ry="18"/>
<text text-anchor="middle" x="309.4971" y="-595.3" font-family="Times,serif" font-size="14.00" fill="#000000">Dup</text>
</g>
<!-- f1&#45;&gt;d2 -->
<g id="edge10" class="edge">
<title>f1&#45;&gt;d2</title>
<path fill="none" stroke="#0000ff" d="M246.4839,-657.2274C257.685,-646.877 272.8522,-632.8618 285.4993,-621.1752"/>
<polygon fill="#0000ff" stroke="#0000ff" points="288.0211,-623.6105 292.9902,-614.2532 283.2704,-618.4693 288.0211,-623.6105"/>
</g>
<!-- x2i_o1&#45;&gt;ret -->
<g id="edge15" class="edge">
<title>x2i_o1&#45;&gt;ret</title>
<path fill="none" stroke="#0000ff" stroke-width="2" d="M97.5128,-655.7989C90.4517,-646.2534 81.3816,-633.9919 73.4769,-623.306"/>
<polygon fill="#0000ff" stroke="#0000ff" stroke-width="2" points="76.2088,-621.1138 67.448,-615.1558 70.5812,-625.2767 76.2088,-621.1138"/>
</g>
<!-- x2i_o1&#45;&gt;x1_o1 -->
<g id="edge14" class="edge">
<title>x2i_o1&#45;&gt;x1_o1</title>
<path fill="none" stroke="#ff0000" d="M115.791,-654.3287C118.7709,-645.962 122.3983,-635.7776 125.7246,-626.4382"/>
<polygon fill="#ff0000" stroke="#ff0000" points="129.113,-627.3562 129.1711,-616.7615 122.5187,-625.0075 129.113,-627.3562"/>
</g>
<!-- d1&#45;&gt;d2 -->
<g id="edge6" class="edge">
<title>d1&#45;&gt;d2</title>
<path fill="none" stroke="#000000" stroke-dasharray="5,2" d="M244.5557,-599C256.2249,-599 267.894,-599 279.5632,-599"/>
</g>
<!-- f_ret -->
<g id="node11" class="node">
<title>f_ret</title>
<ellipse fill="none" stroke="#000000" cx="231.4971" cy="-512" rx="27" ry="18"/>
<text text-anchor="middle" x="231.4971" y="-508.3" font-family="Times,serif" font-size="14.00" fill="#000000">I</text>
</g>
<!-- d1&#45;&gt;f_ret -->
<g id="edge7" class="edge">
<title>d1&#45;&gt;f_ret</title>
<path fill="none" stroke="#ff0000" d="M218.0195,-580.9735C220.3217,-569.1918 223.3761,-553.5607 225.995,-540.1581"/>
<polygon fill="#ff0000" stroke="#ff0000" points="229.4964,-540.489 227.9792,-530.0034 222.6263,-539.1465 229.4964,-540.489"/>
</g>
<!-- hi_retp -->
<g id="node12" class="node">
<title>hi_retp</title>
<ellipse fill="none" stroke="#000000" cx="309.4971" cy="-512" rx="27" ry="18"/>
<text text-anchor="middle" x="309.4971" y="-508.3" font-family="Times,serif" font-size="14.00" fill="#000000">!p</text>
</g>
<!-- d2&#45;&gt;hi_retp -->
<g id="edge8" class="edge">
<title>d2&#45;&gt;hi_retp</title>
<path fill="none" stroke="#0000ff" d="M309.4971,-580.9735C309.4971,-569.1918 309.4971,-553.5607 309.4971,-540.1581"/>
<polygon fill="#0000ff" stroke="#0000ff" points="312.9972,-540.0033 309.4971,-530.0034 305.9972,-540.0034 312.9972,-540.0033"/>
<text text-anchor="middle" x="314.4971" y="-551.8" font-family="Times,serif" font-size="14.00" fill="#000000">1</text>
</g>
<!-- hi_ret -->
<g id="node22" class="node">
<title>hi_ret</title>
<ellipse fill="none" stroke="#000000" cx="254.4971" cy="-251" rx="27" ry="18"/>
<text text-anchor="middle" x="254.4971" y="-247.3" font-family="Times,serif" font-size="14.00" fill="#000000">I</text>
</g>
<!-- hi_retp&#45;&gt;hi_ret -->
<g id="edge27" class="edge">
<title>hi_retp&#45;&gt;hi_ret</title>
<path fill="none" stroke="#ff0000" d="M298.562,-495.4772C290.2,-481.9598 279.1722,-462.034 273.4971,-443 256.7288,-386.7596 254.0133,-317.5684 253.9694,-279.4961"/>
<polygon fill="#ff0000" stroke="#ff0000" points="257.471,-279.1918 254.0236,-269.1735 250.4711,-279.155 257.471,-279.1918"/>
<text text-anchor="middle" x="266.4971" y="-377.8" font-family="Times,serif" font-size="14.00" fill="#000000">2</text>
</g>
<!-- h_di -->
<g id="node23" class="node">
<title>h_di</title>
<ellipse fill="none" stroke="#000000" cx="309.4971" cy="-425" rx="27" ry="18"/>
<text text-anchor="middle" x="309.4971" y="-421.3" font-family="Times,serif" font-size="14.00" fill="#000000">!d</text>
</g>
<!-- hi_retp&#45;&gt;h_di -->
<g id="edge28" class="edge">
<title>hi_retp&#45;&gt;h_di</title>
<path fill="none" stroke="#0000ff" d="M309.4971,-493.9735C309.4971,-482.1918 309.4971,-466.5607 309.4971,-453.1581"/>
<polygon fill="#0000ff" stroke="#0000ff" points="312.9972,-453.0033 309.4971,-443.0034 305.9972,-453.0034 312.9972,-453.0033"/>
<text text-anchor="middle" x="314.4971" y="-464.8" font-family="Times,serif" font-size="14.00" fill="#000000">1</text>
</g>
<!-- f2&#45;&gt;d1 -->
<g id="edge11" class="edge">
<title>f2&#45;&gt;d1</title>
<path fill="none" stroke="#ff0000" d="M285.5298,-657.9249C272.2765,-646.9306 253.6806,-631.5045 238.8401,-619.1936"/>
<ellipse fill="none" stroke="#ff0000" cx="235.3971" cy="-616.3375" rx="4" ry="4"/>
</g>
<!-- f2&#45;&gt;d2 -->
<g id="edge12" class="edge">
<title>f2&#45;&gt;d2</title>
<path fill="none" stroke="#0000ff" d="M304.2275,-653.9551C305.0604,-645.2686 306.0748,-634.6898 306.9903,-625.142"/>
<ellipse fill="none" stroke="#0000ff" cx="307.3806" cy="-621.0721" rx="4" ry="4"/>
</g>
<!-- c2 -->
<g id="node14" class="node">
<title>c2</title>
<ellipse fill="none" stroke="#000000" cx="429.4971" cy="-672" rx="27.8951" ry="18"/>
<text text-anchor="middle" x="429.4971" y="-668.3" font-family="Times,serif" font-size="14.00" fill="#000000">Cut</text>
</g>
<!-- o2 -->
<g id="node15" class="node">
<title>o2</title>
<ellipse fill="none" stroke="#000000" cx="474.4971" cy="-599" rx="27" ry="18"/>
<text text-anchor="middle" x="474.4971" y="-595.3" font-family="Times,serif" font-size="14.00" fill="#000000">PiR</text>
</g>
<!-- c2&#45;&gt;o2 -->
<g id="edge16" class="edge">
<title>c2&#45;&gt;o2</title>
<path fill="none" stroke="#ff0000" d="M439.9341,-655.0688C445.5001,-646.0396 452.4644,-634.742 458.6803,-624.6585"/>
<polygon fill="#ff0000" stroke="#ff0000" points="461.8486,-626.1886 464.1167,-615.8393 455.8898,-622.5153 461.8486,-626.1886"/>
</g>
<!-- o2l -->
<g id="node16" class="node">
<title>o2l</title>
<ellipse fill="none" stroke="#000000" cx="384.4971" cy="-599" rx="27" ry="18"/>
<text text-anchor="middle" x="384.4971" y="-595.3" font-family="Times,serif" font-size="14.00" fill="#000000">PiL</text>
</g>
<!-- c2&#45;&gt;o2l -->
<g id="edge17" class="edge">
<title>c2&#45;&gt;o2l</title>
<path fill="none" stroke="#0000ff" d="M419.0601,-655.0688C413.4941,-646.0396 406.5298,-634.742 400.314,-624.6585"/>
<polygon fill="#0000ff" stroke="#0000ff" points="403.1045,-622.5153 394.8775,-615.8393 397.1456,-626.1886 403.1045,-622.5153"/>
</g>
<!-- x_o2 -->
<g id="node17" class="node">
<title>x_o2</title>
<ellipse fill="none" stroke="#000000" cx="474.4971" cy="-512" rx="27" ry="18"/>
<text text-anchor="middle" x="474.4971" y="-508.3" font-family="Times,serif" font-size="14.00" fill="#000000">!c</text>
</g>
<!-- o2&#45;&gt;x_o2 -->
<g id="edge18" class="edge">
<title>o2&#45;&gt;x_o2</title>
<path fill="none" stroke="#0000ff" d="M474.4971,-580.9735C474.4971,-569.1918 474.4971,-553.5607 474.4971,-540.1581"/>
<polygon fill="#0000ff" stroke="#0000ff" points="477.9972,-540.0033 474.4971,-530.0034 470.9972,-540.0034 477.9972,-540.0033"/>
</g>
<!-- ret_o2 -->
<g id="node18" class="node">
<title>ret_o2</title>
<ellipse fill="none" stroke="#000000" cx="546.4971" cy="-251" rx="27" ry="18"/>
<text text-anchor="middle" x="546.4971" y="-247.3" font-family="Times,serif" font-size="14.00" fill="#000000">I</text>
</g>
<!-- o2&#45;&gt;ret_o2 -->
<g id="edge19" class="edge">
<title>o2&#45;&gt;ret_o2</title>
<path fill="none" stroke="#ff0000" d="M494.7179,-587.0359C516.628,-572.3702 548.4971,-545.3126 548.4971,-512 548.4971,-512 548.4971,-512 548.4971,-338 548.4971,-318.5423 547.9909,-296.6433 547.4879,-279.6839"/>
<polygon fill="#ff0000" stroke="#ff0000" points="550.9749,-279.2131 547.1631,-269.3277 543.9784,-279.4326 550.9749,-279.2131"/>
</g>
<!-- o2l&#45;&gt;f_ret -->
<g id="edge26" class="edge">
<title>o2l&#45;&gt;f_ret</title>
<path fill="none" stroke="#0000ff" d="M369.5861,-583.9373C357.8837,-572.7933 340.738,-557.8933 323.4971,-548 303.0118,-536.245 295.4722,-538.6557 273.4971,-530 270.224,-528.7108 266.8247,-527.3281 263.441,-525.9231"/>
<polygon fill="#0000ff" stroke="#0000ff" points="264.6382,-522.6294 254.0644,-521.963 261.9148,-529.0779 264.6382,-522.6294"/>
</g>
<!-- o2l&#45;&gt;hi_retp -->
<g id="edge25" class="edge">
<title>o2l&#45;&gt;hi_retp</title>
<path fill="none" stroke="#ff0000" d="M375.7829,-581.4855C370.1906,-571.1584 362.3346,-558.1657 353.4971,-548 348.422,-542.1621 342.3303,-536.5245 336.3201,-531.5117"/>
<polygon fill="#ff0000" stroke="#ff0000" points="338.2801,-528.5982 328.2782,-525.1034 333.9176,-534.0726 338.2801,-528.5982"/>
<text text-anchor="middle" x="369.4971" y="-551.8" font-family="Times,serif" font-size="14.00" fill="#000000">1</text>
</g>
<!-- x1_o2 -->
<g id="node19" class="node">
<title>x1_o2</title>
<ellipse fill="none" stroke="#000000" cx="473.4971" cy="-251" rx="27" ry="18"/>
<text text-anchor="middle" x="473.4971" y="-247.3" font-family="Times,serif" font-size="14.00" fill="#000000">I</text>
</g>
<!-- x_o2&#45;&gt;x1_o2 -->
<g id="edge20" class="edge">
<title>x_o2&#45;&gt;x1_o2</title>
<path fill="none" stroke="#0000ff" d="M468.8962,-494.3488C464.8202,-480.5366 459.6526,-460.7589 457.4971,-443 450.9104,-388.7316 451.2825,-374.3123 457.4971,-320 459.0807,-306.1601 462.3958,-291.0577 465.5999,-278.5202"/>
<polygon fill="#0000ff" stroke="#0000ff" points="469.0302,-279.2401 468.2248,-268.6759 462.2665,-277.4365 469.0302,-279.2401"/>
</g>
<!-- x2_o2 -->
<g id="node20" class="node">
<title>x2_o2</title>
<ellipse fill="none" stroke="#000000" cx="493.4971" cy="-425" rx="27" ry="18"/>
<text text-anchor="middle" x="493.4971" y="-421.3" font-family="Times,serif" font-size="14.00" fill="#000000">!d</text>
</g>
<!-- x_o2&#45;&gt;x2_o2 -->
<g id="edge21" class="edge">
<title>x_o2&#45;&gt;x2_o2</title>
<path fill="none" stroke="#0000ff" d="M478.4339,-493.9735C481.007,-482.1918 484.4207,-466.5607 487.3477,-453.1581"/>
<polygon fill="#0000ff" stroke="#0000ff" points="490.8511,-453.5199 489.5653,-443.0034 484.0122,-452.0263 490.8511,-453.5199"/>
</g>
<!-- x2i_o2 -->
<g id="node21" class="node">
<title>x2i_o2</title>
<ellipse fill="none" stroke="#000000" cx="493.4971" cy="-338" rx="27" ry="18"/>
<text text-anchor="middle" x="493.4971" y="-334.3" font-family="Times,serif" font-size="14.00" fill="#000000">PiL</text>
</g>
<!-- x2_o2&#45;&gt;x2i_o2 -->
<g id="edge22" class="edge">
<title>x2_o2&#45;&gt;x2i_o2</title>
<path fill="none" stroke="#0000ff" d="M493.4971,-406.9735C493.4971,-395.1918 493.4971,-379.5607 493.4971,-366.1581"/>
<polygon fill="#0000ff" stroke="#0000ff" points="496.9972,-366.0033 493.4971,-356.0034 489.9972,-366.0034 496.9972,-366.0033"/>
</g>
<!-- x2i_o2&#45;&gt;ret_o2 -->
<g id="edge24" class="edge">
<title>x2i_o2&#45;&gt;ret_o2</title>
<path fill="none" stroke="#0000ff" d="M503.716,-321.2255C511.4148,-308.588 522.1067,-291.0371 530.8756,-276.6429"/>
<polygon fill="#0000ff" stroke="#0000ff" points="534.096,-278.084 536.3096,-267.723 528.1179,-274.4422 534.096,-278.084"/>
</g>
<!-- x2i_o2&#45;&gt;x1_o2 -->
<g id="edge23" class="edge">
<title>x2i_o2&#45;&gt;x1_o2</title>
<path fill="none" stroke="#ff0000" d="M489.3531,-319.9735C486.6178,-308.0751 482.98,-292.2508 479.8789,-278.7606"/>
<polygon fill="#ff0000" stroke="#ff0000" points="483.2873,-277.965 477.6358,-269.0034 476.4653,-279.5333 483.2873,-277.965"/>
</g>
<!-- h -->
<g id="node24" class="node">
<title>h</title>
<ellipse fill="none" stroke="#000000" cx="309.4971" cy="-338" rx="27" ry="18"/>
<text text-anchor="middle" x="309.4971" y="-334.3" font-family="Times,serif" font-size="14.00" fill="#000000">PiL</text>
</g>
<!-- h_di&#45;&gt;h -->
<g id="edge29" class="edge">
<title>h_di&#45;&gt;h</title>
<path fill="none" stroke="#0000ff" d="M309.4971,-406.9735C309.4971,-395.1918 309.4971,-379.5607 309.4971,-366.1581"/>
<polygon fill="#0000ff" stroke="#0000ff" points="312.9972,-366.0033 309.4971,-356.0034 305.9972,-366.0034 312.9972,-366.0033"/>
<text text-anchor="middle" x="314.4971" y="-377.8" font-family="Times,serif" font-size="14.00" fill="#000000">2</text>
</g>
<!-- h&#45;&gt;hi_ret -->
<g id="edge37" class="edge">
<title>h&#45;&gt;hi_ret</title>
<path fill="none" stroke="#0000ff" d="M298.8926,-321.2255C290.8272,-308.4677 279.5963,-290.7024 270.4487,-276.2325"/>
<polygon fill="#0000ff" stroke="#0000ff" points="273.3712,-274.3053 265.0691,-267.723 267.4543,-278.0458 273.3712,-274.3053"/>
</g>
<!-- h_app -->
<g id="node27" class="node">
<title>h_app</title>
<ellipse fill="none" stroke="#000000" cx="326.4971" cy="-251" rx="27" ry="18"/>
<text text-anchor="middle" x="326.4971" y="-247.3" font-family="Times,serif" font-size="14.00" fill="#000000">I</text>
</g>
<!-- h&#45;&gt;h_app -->
<g id="edge36" class="edge">
<title>h&#45;&gt;h_app</title>
<path fill="none" stroke="#ff0000" d="M313.0195,-319.9735C315.3217,-308.1918 318.3761,-292.5607 320.995,-279.1581"/>
<polygon fill="#ff0000" stroke="#ff0000" points="324.4964,-279.489 322.9792,-269.0034 317.6263,-278.1465 324.4964,-279.489"/>
</g>
<!-- c3 -->
<g id="node25" class="node">
<title>c3</title>
<ellipse fill="none" stroke="#000000" cx="382.4971" cy="-338" rx="27.8951" ry="18"/>
<text text-anchor="middle" x="382.4971" y="-334.3" font-family="Times,serif" font-size="14.00" fill="#000000">Cut</text>
</g>
<!-- i -->
<g id="node26" class="node">
<title>i</title>
<ellipse fill="none" stroke="#000000" cx="398.4971" cy="-251" rx="27" ry="18"/>
<text text-anchor="middle" x="398.4971" y="-247.3" font-family="Times,serif" font-size="14.00" fill="#000000">!p</text>
</g>
<!-- c3&#45;&gt;i -->
<g id="edge30" class="edge">
<title>c3&#45;&gt;i</title>
<path fill="none" stroke="#ff0000" d="M385.8123,-319.9735C387.9791,-308.1918 390.8538,-292.5607 393.3186,-279.1581"/>
<polygon fill="#ff0000" stroke="#ff0000" points="396.8196,-279.4715 395.1862,-269.0034 389.9351,-278.2053 396.8196,-279.4715"/>
<text text-anchor="middle" x="396.4971" y="-290.8" font-family="Times,serif" font-size="14.00" fill="#000000">2</text>
</g>
<!-- c3&#45;&gt;h_app -->
<g id="edge31" class="edge">
<title>c3&#45;&gt;h_app</title>
<path fill="none" stroke="#0000ff" d="M371.6998,-321.2255C363.4878,-308.4677 352.0527,-290.7024 342.7387,-276.2325"/>
<polygon fill="#0000ff" stroke="#0000ff" points="345.6169,-274.2373 337.2613,-267.723 339.7308,-278.026 345.6169,-274.2373"/>
</g>
<!-- i_i -->
<g id="node28" class="node">
<title>i_i</title>
<ellipse fill="none" stroke="#000000" cx="398.4971" cy="-164" rx="27" ry="18"/>
<text text-anchor="middle" x="398.4971" y="-160.3" font-family="Times,serif" font-size="14.00" fill="#000000">PiR</text>
</g>
<!-- i&#45;&gt;i_i -->
<g id="edge32" class="edge">
<title>i&#45;&gt;i_i</title>
<path fill="none" stroke="#ff0000" d="M398.4971,-232.9735C398.4971,-221.1918 398.4971,-205.5607 398.4971,-192.1581"/>
<polygon fill="#ff0000" stroke="#ff0000" points="401.9972,-192.0033 398.4971,-182.0034 394.9972,-192.0034 401.9972,-192.0033"/>
<text text-anchor="middle" x="403.4971" y="-203.8" font-family="Times,serif" font-size="14.00" fill="#000000">3</text>
</g>
<!-- il -->
<g id="node29" class="node">
<title>il</title>
<ellipse fill="none" stroke="#000000" cx="441.4971" cy="-91" rx="27" ry="18"/>
<text text-anchor="middle" x="441.4971" y="-87.3" font-family="Times,serif" font-size="14.00" fill="#000000">!d</text>
</g>
<!-- i_i&#45;&gt;il -->
<g id="edge33" class="edge">
<title>i_i&#45;&gt;il</title>
<path fill="none" stroke="#0000ff" d="M408.4703,-147.0688C413.7889,-138.0396 420.4436,-126.742 426.3832,-116.6585"/>
<polygon fill="#0000ff" stroke="#0000ff" points="429.5184,-118.232 431.5781,-107.8393 423.4869,-114.6793 429.5184,-118.232"/>
</g>
<!-- i_ret -->
<g id="node30" class="node">
<title>i_ret</title>
<ellipse fill="none" stroke="#000000" cx="398.4971" cy="-18" rx="27" ry="18"/>
<text text-anchor="middle" x="398.4971" y="-14.3" font-family="Times,serif" font-size="14.00" fill="#000000">I</text>
</g>
<!-- i_i&#45;&gt;i_ret -->
<g id="edge34" class="edge">
<title>i_i&#45;&gt;i_ret</title>
<path fill="none" stroke="#ff0000" d="M398.4971,-145.8042C398.4971,-120.8868 398.4971,-75.8938 398.4971,-46.4877"/>
<polygon fill="#ff0000" stroke="#ff0000" points="401.9972,-46.4251 398.4971,-36.4251 394.9972,-46.4251 401.9972,-46.4251"/>
</g>
<!-- il&#45;&gt;i_ret -->
<g id="edge35" class="edge">
<title>il&#45;&gt;i_ret</title>
<path fill="none" stroke="#0000ff" d="M431.524,-74.0688C426.2054,-65.0396 419.5506,-53.742 413.611,-43.6585"/>
<polygon fill="#0000ff" stroke="#0000ff" points="416.5073,-41.6793 408.4162,-34.8393 410.4759,-45.232 416.5073,-41.6793"/>
</g>
</g>
</svg>
