<?xml version="1.0" encoding="UTF-8" standalone="no"?>
<!DOCTYPE svg PUBLIC "-//W3C//DTD SVG 1.1//EN"
 "http://www.w3.org/Graphics/SVG/1.1/DTD/svg11.dtd">
<!-- Generated by graphviz version 2.43.0 (0)
 -->
<!-- Title: multi Pages: 1 -->
<svg width="1001pt" height="466pt"
 viewBox="0.00 0.00 1000.97 466.49" xmlns="http://www.w3.org/2000/svg" xmlns:xlink="http://www.w3.org/1999/xlink">
<g id="graph0" class="graph" transform="scale(1 1) rotate(0) translate(4 462.49)">
<title>multi</title>
<polygon fill="white" stroke="transparent" points="-4,4 -4,-462.49 996.97,-462.49 996.97,4 -4,4"/>
<!-- main.c -->
<g id="node1" class="node">
<title>main.c</title>
<polygon fill="none" stroke="black" points="338.68,-411.32 254.68,-411.32 254.68,-375.32 338.68,-375.32 338.68,-411.32"/>
<text text-anchor="middle" x="296.68" y="-388.32" font-family="Times,serif" font-size="20.00">main.c</text>
</g>
<!-- main.o -->
<g id="node2" class="node">
<title>main.o</title>
<polygon fill="none" stroke="black" points="682.75,-440.32 597.75,-440.32 597.75,-404.32 682.75,-404.32 682.75,-440.32"/>
<text text-anchor="middle" x="640.25" y="-417.32" font-family="Times,serif" font-size="20.00">main.o</text>
</g>
<!-- cc main -->
<g id="node13" class="node">
<title>cc main</title>
<ellipse fill="none" stroke="black" cx="450.81" cy="-391.32" rx="67.35" ry="67.35"/>
<text text-anchor="middle" x="450.81" y="-386.32" font-family="Times,serif" font-size="20.00">cc main</text>
</g>
<!-- main.o&#45;&gt;cc main -->
<g id="edge10" class="edge">
<title>main.o&#45;&gt;cc main</title>
<path fill="none" stroke="blue" d="M597.65,-415.44C576.98,-412.02 551.35,-407.78 527.38,-403.82"/>
<polygon fill="blue" stroke="blue" points="527.66,-400.31 517.22,-402.14 526.52,-407.22 527.66,-400.31"/>
</g>
<!-- prog -->
<g id="node3" class="node">
<title>prog</title>
<polygon fill="none" stroke="black" points="950.72,-320.32 886.72,-320.32 886.72,-284.32 950.72,-284.32 950.72,-320.32"/>
<text text-anchor="middle" x="918.72" y="-297.32" font-family="Times,serif" font-size="20.00">prog</text>
</g>
<!-- ld -->
<g id="node11" class="node">
<title>ld</title>
<ellipse fill="none" stroke="black" cx="783.02" cy="-283.32" rx="25.41" ry="25.41"/>
<text text-anchor="middle" x="783.02" y="-278.32" font-family="Times,serif" font-size="20.00">ld</text>
</g>
<!-- prog&#45;&gt;ld -->
<g id="edge13" class="edge">
<title>prog&#45;&gt;ld</title>
<path fill="none" stroke="blue" d="M886.71,-297.91C866.39,-295.02 839.79,-291.24 818.75,-288.25"/>
<polygon fill="blue" stroke="blue" points="819.02,-284.76 808.62,-286.81 818.03,-291.69 819.02,-284.76"/>
</g>
<!-- parse.o -->
<g id="node4" class="node">
<title>parse.o</title>
<polygon fill="none" stroke="black" points="686.25,-216.32 594.25,-216.32 594.25,-180.32 686.25,-180.32 686.25,-216.32"/>
<text text-anchor="middle" x="640.25" y="-193.32" font-family="Times,serif" font-size="20.00">parse.o</text>
</g>
<!-- cc parse -->
<g id="node14" class="node">
<title>cc parse</title>
<ellipse fill="none" stroke="black" cx="450.81" cy="-193.32" rx="72.25" ry="72.25"/>
<text text-anchor="middle" x="450.81" y="-188.32" font-family="Times,serif" font-size="20.00">cc parse</text>
</g>
<!-- parse.o&#45;&gt;cc parse -->
<g id="edge16" class="edge">
<title>parse.o&#45;&gt;cc parse</title>
<path fill="none" stroke="blue" d="M593.87,-197.11C575.62,-196.62 554.01,-196.04 533.21,-195.49"/>
<polygon fill="blue" stroke="blue" points="533.18,-191.99 523.09,-195.22 532.99,-198.98 533.18,-191.99"/>
</g>
<!-- parse.h -->
<g id="node5" class="node">
<title>parse.h</title>
<polygon fill="none" stroke="black" points="342.68,-357.32 250.68,-357.32 250.68,-321.32 342.68,-321.32 342.68,-357.32"/>
<text text-anchor="middle" x="296.68" y="-334.32" font-family="Times,serif" font-size="20.00">parse.h</text>
</g>
<!-- yacc -->
<g id="node12" class="node">
<title>yacc</title>
<ellipse fill="none" stroke="black" cx="170.84" cy="-256.32" rx="43.68" ry="43.68"/>
<text text-anchor="middle" x="170.84" y="-251.32" font-family="Times,serif" font-size="20.00">yacc</text>
</g>
<!-- parse.h&#45;&gt;yacc -->
<g id="edge18" class="edge">
<title>parse.h&#45;&gt;yacc</title>
<path fill="none" stroke="blue" d="M268.81,-321.31C253.4,-310.98 233.68,-297.76 216.05,-285.95"/>
<polygon fill="blue" stroke="blue" points="217.85,-282.94 207.59,-280.28 213.95,-288.75 217.85,-282.94"/>
</g>
<!-- parse.c -->
<g id="node6" class="node">
<title>parse.c</title>
<polygon fill="none" stroke="black" points="342.18,-238.32 251.18,-238.32 251.18,-202.32 342.18,-202.32 342.18,-238.32"/>
<text text-anchor="middle" x="296.68" y="-215.32" font-family="Times,serif" font-size="20.00">parse.c</text>
</g>
<!-- parse.c&#45;&gt;yacc -->
<g id="edge19" class="edge">
<title>parse.c&#45;&gt;yacc</title>
<path fill="none" stroke="blue" d="M250.97,-233.31C241.92,-235.95 232.33,-238.73 223.06,-241.43"/>
<polygon fill="blue" stroke="blue" points="221.81,-238.15 213.19,-244.3 223.76,-244.87 221.81,-238.15"/>
</g>
<!-- parse.y -->
<g id="node7" class="node">
<title>parse.y</title>
<polygon fill="none" stroke="black" points="91,-274.32 0,-274.32 0,-238.32 91,-238.32 91,-274.32"/>
<text text-anchor="middle" x="45.5" y="-251.32" font-family="Times,serif" font-size="20.00">parse.y</text>
</g>
<!-- run prog -->
<g id="node8" class="node">
<title>run prog</title>
<ellipse fill="none" stroke="black" cx="918.72" cy="-192.32" rx="74.49" ry="74.49"/>
<text text-anchor="middle" x="918.72" y="-187.32" font-family="Times,serif" font-size="20.00">run prog</text>
</g>
<!-- run main -->
<g id="node9" class="node">
<title>run main</title>
<ellipse fill="none" stroke="black" cx="640.25" cy="-310.32" rx="76.24" ry="76.24"/>
<text text-anchor="middle" x="640.25" y="-305.32" font-family="Times,serif" font-size="20.00">run main</text>
</g>
<!-- run prog&#45;&gt;run main -->
<g id="edge1" class="edge">
<title>run prog&#45;&gt;run main</title>
<path fill="none" stroke="grey" stroke-width="3" stroke-dasharray="1,5" d="M847.91,-214.77C819.53,-224.51 786.63,-236.6 757.57,-249.32 744.16,-255.18 730.16,-261.94 716.71,-268.78"/>
<polygon fill="grey" stroke="grey" stroke-width="3" points="714.8,-265.83 707.5,-273.52 718,-272.05 714.8,-265.83"/>
</g>
<!-- run parse -->
<g id="node10" class="node">
<title>run parse</title>
<ellipse fill="none" stroke="black" cx="640.25" cy="-81.32" rx="81.13" ry="81.13"/>
<text text-anchor="middle" x="640.25" y="-76.32" font-family="Times,serif" font-size="20.00">run parse</text>
</g>
<!-- run prog&#45;&gt;run parse -->
<g id="edge2" class="edge">
<title>run prog&#45;&gt;run parse</title>
<path fill="none" stroke="grey" stroke-width="3" stroke-dasharray="1,5" d="M849.38,-164.88C811.93,-149.84 765.18,-131.08 725.49,-115.14"/>
<polygon fill="grey" stroke="grey" stroke-width="3" points="726.67,-111.84 716.09,-111.36 724.06,-118.34 726.67,-111.84"/>
</g>
<!-- run prog&#45;&gt;ld -->
<g id="edge3" class="edge">
<title>run prog&#45;&gt;ld</title>
<path fill="none" stroke="grey" stroke-width="3" d="M856.74,-233.82C841.52,-244.18 825.89,-254.82 813.04,-263.57"/>
<polygon fill="grey" stroke="grey" stroke-width="3" points="810.93,-260.77 804.63,-269.29 814.86,-266.56 810.93,-260.77"/>
</g>
<!-- run main&#45;&gt;yacc -->
<g id="edge4" class="edge">
<title>run main&#45;&gt;yacc</title>
<path fill="none" stroke="grey" stroke-width="3" stroke-dasharray="1,5" d="M564.15,-301.64C469.02,-290.65 307.52,-271.99 224.52,-262.4"/>
<polygon fill="grey" stroke="grey" stroke-width="3" points="224.89,-258.92 214.56,-261.25 224.09,-265.88 224.89,-258.92"/>
</g>
<!-- run main&#45;&gt;cc main -->
<g id="edge5" class="edge">
<title>run main&#45;&gt;cc main</title>
<path fill="none" stroke="grey" stroke-width="3" d="M569.98,-340.25C554.44,-346.97 537.93,-354.1 522.33,-360.84"/>
<polygon fill="grey" stroke="grey" stroke-width="3" points="520.55,-357.8 512.76,-364.98 523.32,-364.22 520.55,-357.8"/>
</g>
<!-- run parse&#45;&gt;yacc -->
<g id="edge6" class="edge">
<title>run parse&#45;&gt;yacc</title>
<path fill="none" stroke="grey" stroke-width="3" stroke-dasharray="1,5" d="M558.77,-81.74C506.18,-84.21 436.74,-91.69 378.68,-112.32 313.36,-135.52 249.66,-185.16 210.6,-219.63"/>
<polygon fill="grey" stroke="grey" stroke-width="3" points="208.25,-217.03 203.13,-226.3 212.92,-222.25 208.25,-217.03"/>
</g>
<!-- run parse&#45;&gt;cc parse -->
<g id="edge7" class="edge">
<title>run parse&#45;&gt;cc parse</title>
<path fill="none" stroke="grey" stroke-width="3" d="M569.98,-122.7C554.23,-132.12 537.49,-142.12 521.71,-151.55"/>
<polygon fill="grey" stroke="grey" stroke-width="3" points="519.85,-148.58 513.06,-156.72 523.44,-154.59 519.85,-148.58"/>
</g>
<!-- ld&#45;&gt;main.o -->
<g id="edge11" class="edge">
<title>ld&#45;&gt;main.o</title>
<path fill="none" stroke="black" d="M774.79,-307.73C766.09,-333.05 749.11,-372.11 721.57,-395.32 713.21,-402.36 702.94,-407.58 692.58,-411.46"/>
<polygon fill="black" stroke="black" points="691.45,-408.15 683.08,-414.65 693.67,-414.78 691.45,-408.15"/>
</g>
<!-- ld&#45;&gt;parse.o -->
<g id="edge12" class="edge">
<title>ld&#45;&gt;parse.o</title>
<path fill="none" stroke="black" d="M766.03,-264.06C754.73,-251.52 738.61,-235.64 721.57,-225.32 713.71,-220.56 704.91,-216.52 696.09,-213.13"/>
<polygon fill="black" stroke="black" points="697.16,-209.79 686.56,-209.69 694.79,-216.37 697.16,-209.79"/>
</g>
<!-- yacc&#45;&gt;parse.y -->
<g id="edge17" class="edge">
<title>yacc&#45;&gt;parse.y</title>
<path fill="none" stroke="black" d="M126.7,-256.32C118.5,-256.32 109.82,-256.32 101.32,-256.32"/>
<polygon fill="black" stroke="black" points="101.08,-252.82 91.08,-256.32 101.08,-259.82 101.08,-252.82"/>
</g>
<!-- cc main&#45;&gt;main.c -->
<g id="edge8" class="edge">
<title>cc main&#45;&gt;main.c</title>
<path fill="none" stroke="black" d="M383.52,-392.19C372,-392.34 360.16,-392.5 349.11,-392.64"/>
<polygon fill="black" stroke="black" points="348.74,-389.15 338.78,-392.78 348.83,-396.15 348.74,-389.15"/>
</g>
<!-- cc main&#45;&gt;parse.h -->
<g id="edge9" class="edge">
<title>cc main&#45;&gt;parse.h</title>
<path fill="none" stroke="black" d="M387.05,-369.87C375.66,-365.97 363.85,-361.94 352.7,-358.12"/>
<polygon fill="black" stroke="black" points="353.69,-354.76 343.1,-354.84 351.43,-361.39 353.69,-354.76"/>
</g>
<!-- cc parse&#45;&gt;parse.h -->
<g id="edge14" class="edge">
<title>cc parse&#45;&gt;parse.h</title>
<path fill="none" stroke="black" d="M397.88,-243.15C373,-267.03 344.27,-294.6 323.98,-314.08"/>
<polygon fill="black" stroke="black" points="321.43,-311.68 316.63,-321.13 326.27,-316.73 321.43,-311.68"/>
</g>
<!-- cc parse&#45;&gt;parse.c -->
<g id="edge15" class="edge">
<title>cc parse&#45;&gt;parse.c</title>
<path fill="none" stroke="black" d="M379.53,-205.79C370.47,-207.4 361.29,-209.03 352.53,-210.58"/>
<polygon fill="black" stroke="black" points="351.69,-207.18 342.45,-212.37 352.91,-214.07 351.69,-207.18"/>
</g>
</g>
</svg>
