<?xml version="1.0" encoding="UTF-8" standalone="no"?>
<!DOCTYPE svg PUBLIC "-//W3C//DTD SVG 1.1//EN"
 "http://www.w3.org/Graphics/SVG/1.1/DTD/svg11.dtd">
<!-- Generated by graphviz version 2.40.1 (20161225.0304)
 -->
<!-- Title: %3 Pages: 1 -->
<svg width="621pt" height="764pt"
 viewBox="0.00 0.00 621.00 764.00" xmlns="http://www.w3.org/2000/svg" xmlns:xlink="http://www.w3.org/1999/xlink">
<g id="graph0" class="graph" transform="scale(1 1) rotate(0) translate(4 760)">
<title>%3</title>
<polygon fill="#ffffff" stroke="transparent" points="-4,4 -4,-760 617,-760 617,4 -4,4"/>
<!-- Root -->
<g id="node1" class="node">
<title>Root</title>
<ellipse fill="none" stroke="#000000" cx="421" cy="-738" rx="32.4942" ry="18"/>
<text text-anchor="middle" x="421" y="-734.3" font-family="Times,serif" font-size="14.00" fill="#000000">Root</text>
</g>
<!-- c1 -->
<g id="node2" class="node">
<title>c1</title>
<ellipse fill="none" stroke="#000000" cx="357" cy="-666" rx="27.8951" ry="18"/>
<text text-anchor="middle" x="357" y="-662.3" font-family="Times,serif" font-size="14.00" fill="#000000">Cut</text>
</g>
<!-- Root&#45;&gt;c1 -->
<!-- y -->
<g id="node3" class="node">
<title>y</title>
<ellipse fill="none" stroke="#000000" cx="476" cy="-378" rx="27" ry="18"/>
<text text-anchor="middle" x="476" y="-374.3" font-family="Times,serif" font-size="14.00" fill="#000000">PiL</text>
</g>
<!-- Root&#45;&gt;y -->
<g id="edge30" class="edge">
<title>Root&#45;&gt;y</title>
<path fill="none" stroke="#ff0000" d="M437.3483,-712.3308C453.5611,-684.3666 476,-637.7592 476,-594 476,-594 476,-594 476,-522 476,-476.75 476,-423.5017 476,-396.1854"/>
<polygon fill="#ff0000" stroke="#ff0000" points="434.2524,-710.6885 432.1301,-721.0686 440.2623,-714.2776 434.2524,-710.6885"/>
</g>
<!-- ret -->
<g id="node7" class="node">
<title>ret</title>
<ellipse fill="none" stroke="#000000" cx="421" cy="-522" rx="27" ry="18"/>
<text text-anchor="middle" x="421" y="-518.3" font-family="Times,serif" font-size="14.00" fill="#000000">I</text>
</g>
<!-- Root&#45;&gt;ret -->
<g id="edge4" class="edge">
<title>Root&#45;&gt;ret</title>
<path fill="none" stroke="#ff0000" d="M421,-719.9555C421,-682.3938 421,-595.5541 421,-550.4103"/>
<polygon fill="#ff0000" stroke="#ff0000" points="424.5001,-550.145 421,-540.1451 417.5001,-550.1451 424.5001,-550.145"/>
</g>
<!-- f2r -->
<g id="node8" class="node">
<title>f2r</title>
<ellipse fill="none" stroke="#000000" cx="238" cy="-594" rx="27" ry="18"/>
<text text-anchor="middle" x="238" y="-590.3" font-family="Times,serif" font-size="14.00" fill="#000000">PiR</text>
</g>
<!-- c1&#45;&gt;f2r -->
<g id="edge5" class="edge">
<title>c1&#45;&gt;f2r</title>
<path fill="none" stroke="#ff0000" d="M336.5432,-653.6228C317.3549,-642.0131 288.4674,-624.5349 266.9236,-611.5"/>
<polygon fill="#ff0000" stroke="#ff0000" points="268.5576,-608.3979 258.1899,-606.2157 264.9339,-614.387 268.5576,-608.3979"/>
</g>
<!-- f2l -->
<g id="node9" class="node">
<title>f2l</title>
<ellipse fill="none" stroke="#000000" cx="357" cy="-594" rx="27" ry="18"/>
<text text-anchor="middle" x="357" y="-590.3" font-family="Times,serif" font-size="14.00" fill="#000000">PiL</text>
</g>
<!-- c1&#45;&gt;f2l -->
<g id="edge6" class="edge">
<title>c1&#45;&gt;f2l</title>
<path fill="none" stroke="#0000ff" d="M357,-647.8314C357,-640.131 357,-630.9743 357,-622.4166"/>
<polygon fill="#0000ff" stroke="#0000ff" points="360.5001,-622.4132 357,-612.4133 353.5001,-622.4133 360.5001,-622.4132"/>
</g>
<!-- c2 -->
<g id="node4" class="node">
<title>c2</title>
<ellipse fill="none" stroke="#000000" cx="570" cy="-306" rx="27.8951" ry="18"/>
<text text-anchor="middle" x="570" y="-302.3" font-family="Times,serif" font-size="14.00" fill="#000000">Cut</text>
</g>
<!-- y&#45;&gt;c2 -->
<!-- y_arg -->
<g id="node24" class="node">
<title>y_arg</title>
<ellipse fill="none" stroke="#000000" cx="441" cy="-234" rx="27" ry="18"/>
<text text-anchor="middle" x="441" y="-230.3" font-family="Times,serif" font-size="14.00" fill="#000000">I</text>
</g>
<!-- y&#45;&gt;y_arg -->
<g id="edge29" class="edge">
<title>y&#45;&gt;y_arg</title>
<path fill="none" stroke="#0000ff" d="M472.6348,-359.9728C469.1268,-341.733 463.2733,-312.769 457,-288 454.8154,-279.3745 452.1622,-270.0578 449.6496,-261.6313"/>
<polygon fill="#0000ff" stroke="#0000ff" points="452.9495,-260.4525 446.6954,-251.9006 446.2514,-262.4861 452.9495,-260.4525"/>
</g>
<!-- id_r -->
<g id="node15" class="node">
<title>id_r</title>
<ellipse fill="none" stroke="#000000" cx="586" cy="-234" rx="27" ry="18"/>
<text text-anchor="middle" x="586" y="-230.3" font-family="Times,serif" font-size="14.00" fill="#000000">PiR</text>
</g>
<!-- c2&#45;&gt;id_r -->
<g id="edge13" class="edge">
<title>c2&#45;&gt;id_r</title>
<path fill="none" stroke="#ff0000" d="M574.0375,-287.8314C575.7941,-279.9266 577.8917,-270.4872 579.8363,-261.7365"/>
<polygon fill="#ff0000" stroke="#ff0000" points="583.2665,-262.4346 582.0192,-251.9134 576.4332,-260.916 583.2665,-262.4346"/>
</g>
<!-- id_l -->
<g id="node16" class="node">
<title>id_l</title>
<ellipse fill="none" stroke="#000000" cx="514" cy="-234" rx="27" ry="18"/>
<text text-anchor="middle" x="514" y="-230.3" font-family="Times,serif" font-size="14.00" fill="#000000">I</text>
</g>
<!-- c2&#45;&gt;id_l -->
<g id="edge14" class="edge">
<title>c2&#45;&gt;id_l</title>
<path fill="none" stroke="#0000ff" d="M557.2927,-289.6621C550.0612,-280.3644 540.8664,-268.5426 532.8124,-258.1873"/>
<polygon fill="#0000ff" stroke="#0000ff" points="535.5592,-256.018 526.657,-250.2733 530.0337,-260.3156 535.5592,-256.018"/>
</g>
<!-- x23_f2 -->
<g id="node5" class="node">
<title>x23_f2</title>
<ellipse fill="none" stroke="#000000" cx="192" cy="-450" rx="27" ry="18"/>
<text text-anchor="middle" x="192" y="-446.3" font-family="Times,serif" font-size="14.00" fill="#000000">!c</text>
</g>
<!-- c3 -->
<g id="node6" class="node">
<title>c3</title>
<ellipse fill="none" stroke="#000000" cx="238" cy="-378" rx="27.8951" ry="18"/>
<text text-anchor="middle" x="238" y="-374.3" font-family="Times,serif" font-size="14.00" fill="#000000">Cut</text>
</g>
<!-- x23_f2&#45;&gt;c3 -->
<!-- x2_f2 -->
<g id="node13" class="node">
<title>x2_f2</title>
<ellipse fill="none" stroke="#000000" cx="55" cy="-234" rx="27" ry="18"/>
<text text-anchor="middle" x="55" y="-230.3" font-family="Times,serif" font-size="14.00" fill="#000000">I</text>
</g>
<!-- x23_f2&#45;&gt;x2_f2 -->
<g id="edge11" class="edge">
<title>x23_f2&#45;&gt;x2_f2</title>
<path fill="none" stroke="#0000ff" d="M177.3039,-434.8037C156.0311,-412.1732 116.4286,-367.5886 91,-324 79.409,-304.1312 69.9325,-279.8219 63.617,-261.4783"/>
<polygon fill="#0000ff" stroke="#0000ff" points="66.9281,-260.3433 60.4403,-251.9672 60.2886,-262.561 66.9281,-260.3433"/>
</g>
<!-- x3_f2 -->
<g id="node14" class="node">
<title>x3_f2</title>
<ellipse fill="none" stroke="#000000" cx="127" cy="-162" rx="27" ry="18"/>
<text text-anchor="middle" x="127" y="-158.3" font-family="Times,serif" font-size="14.00" fill="#000000">I</text>
</g>
<!-- x23_f2&#45;&gt;x3_f2 -->
<g id="edge12" class="edge">
<title>x23_f2&#45;&gt;x3_f2</title>
<path fill="none" stroke="#0000ff" d="M192.5458,-431.7212C193.1551,-391.4036 191.3653,-292.3643 163,-216 159.1159,-205.5434 152.8521,-195.0985 146.6299,-186.2202"/>
<polygon fill="#0000ff" stroke="#0000ff" points="149.2629,-183.8933 140.5114,-177.9215 143.6287,-188.0474 149.2629,-183.8933"/>
</g>
<!-- o -->
<g id="node25" class="node">
<title>o</title>
<ellipse fill="none" stroke="#000000" cx="238" cy="-306" rx="27" ry="18"/>
<text text-anchor="middle" x="238" y="-302.3" font-family="Times,serif" font-size="14.00" fill="#000000">PiR</text>
</g>
<!-- c3&#45;&gt;o -->
<g id="edge31" class="edge">
<title>c3&#45;&gt;o</title>
<path fill="none" stroke="#ff0000" d="M238,-359.8314C238,-352.131 238,-342.9743 238,-334.4166"/>
<polygon fill="#ff0000" stroke="#ff0000" points="241.5001,-334.4132 238,-324.4133 234.5001,-334.4133 241.5001,-334.4132"/>
</g>
<!-- o_app -->
<g id="node26" class="node">
<title>o_app</title>
<ellipse fill="none" stroke="#000000" cx="421" cy="-306" rx="27" ry="18"/>
<text text-anchor="middle" x="421" y="-302.3" font-family="Times,serif" font-size="14.00" fill="#000000">PiL</text>
</g>
<!-- c3&#45;&gt;o_app -->
<g id="edge32" class="edge">
<title>c3&#45;&gt;o_app</title>
<path fill="none" stroke="#0000ff" d="M260.1409,-366.7898C264.9958,-364.4553 270.1384,-362.0756 275,-360 312.8503,-343.8399 357.333,-327.7973 387.1636,-317.4509"/>
<polygon fill="#0000ff" stroke="#0000ff" points="388.3738,-320.7359 396.6876,-314.1686 386.0929,-314.118 388.3738,-320.7359"/>
</g>
<!-- x_f2 -->
<g id="node10" class="node">
<title>x_f2</title>
<ellipse fill="none" stroke="#000000" cx="238" cy="-522" rx="27" ry="18"/>
<text text-anchor="middle" x="238" y="-518.3" font-family="Times,serif" font-size="14.00" fill="#000000">!c</text>
</g>
<!-- f2r&#45;&gt;x_f2 -->
<g id="edge7" class="edge">
<title>f2r&#45;&gt;x_f2</title>
<path fill="none" stroke="#0000ff" d="M238,-575.8314C238,-568.131 238,-558.9743 238,-550.4166"/>
<polygon fill="#0000ff" stroke="#0000ff" points="241.5001,-550.4132 238,-540.4133 234.5001,-550.4133 241.5001,-550.4132"/>
</g>
<!-- ret_f2 -->
<g id="node11" class="node">
<title>ret_f2</title>
<ellipse fill="none" stroke="#000000" cx="28" cy="-162" rx="27" ry="18"/>
<text text-anchor="middle" x="28" y="-158.3" font-family="Times,serif" font-size="14.00" fill="#000000">I</text>
</g>
<!-- f2r&#45;&gt;ret_f2 -->
<g id="edge8" class="edge">
<title>f2r&#45;&gt;ret_f2</title>
<path fill="none" stroke="#ff0000" d="M211.161,-590.5747C148.918,-580.9769 0,-547.7951 0,-450 0,-450 0,-450 0,-306 0,-264.9444 11.1026,-218.4951 19.3252,-189.7243"/>
<polygon fill="#ff0000" stroke="#ff0000" points="22.731,-190.5486 22.1984,-179.9672 16.0161,-188.5712 22.731,-190.5486"/>
</g>
<!-- f2l&#45;&gt;ret -->
<g id="edge25" class="edge">
<title>f2l&#45;&gt;ret</title>
<path fill="none" stroke="#0000ff" d="M370.887,-578.3771C379.5253,-568.659 390.7893,-555.987 400.4497,-545.1191"/>
<polygon fill="#0000ff" stroke="#0000ff" points="403.1123,-547.3918 407.1401,-537.5924 397.8804,-542.7413 403.1123,-547.3918"/>
</g>
<!-- g2 -->
<g id="node21" class="node">
<title>g2</title>
<ellipse fill="none" stroke="#000000" cx="349" cy="-522" rx="27" ry="18"/>
<text text-anchor="middle" x="349" y="-518.3" font-family="Times,serif" font-size="14.00" fill="#000000">!</text>
</g>
<!-- f2l&#45;&gt;g2 -->
<g id="edge24" class="edge">
<title>f2l&#45;&gt;g2</title>
<path fill="none" stroke="#ff0000" d="M354.9813,-575.8314C354.1257,-568.131 353.1083,-558.9743 352.1574,-550.4166"/>
<polygon fill="#ff0000" stroke="#ff0000" points="355.6289,-549.9656 351.0459,-540.4133 348.6717,-550.7386 355.6289,-549.9656"/>
</g>
<!-- x_f2&#45;&gt;x23_f2 -->
<g id="edge10" class="edge">
<title>x_f2&#45;&gt;x23_f2</title>
<path fill="none" stroke="#0000ff" d="M227.3311,-505.3008C221.6414,-496.3952 214.5223,-485.2524 208.1684,-475.307"/>
<polygon fill="#0000ff" stroke="#0000ff" points="210.9445,-473.1513 202.6111,-466.6087 205.0456,-476.92 210.9445,-473.1513"/>
</g>
<!-- x1_f2 -->
<g id="node12" class="node">
<title>x1_f2</title>
<ellipse fill="none" stroke="#000000" cx="274" cy="-450" rx="27" ry="18"/>
<text text-anchor="middle" x="274" y="-446.3" font-family="Times,serif" font-size="14.00" fill="#000000">!d</text>
</g>
<!-- x_f2&#45;&gt;x1_f2 -->
<g id="edge9" class="edge">
<title>x_f2&#45;&gt;x1_f2</title>
<path fill="none" stroke="#0000ff" d="M246.7146,-504.5708C250.9597,-496.0807 256.1536,-485.6929 260.8663,-476.2674"/>
<polygon fill="#0000ff" stroke="#0000ff" points="264.024,-477.7782 265.3657,-467.2687 257.763,-474.6477 264.024,-477.7782"/>
</g>
<!-- x1i_f2 -->
<g id="node18" class="node">
<title>x1i_f2</title>
<ellipse fill="none" stroke="#000000" cx="311" cy="-378" rx="27" ry="18"/>
<text text-anchor="middle" x="311" y="-374.3" font-family="Times,serif" font-size="14.00" fill="#000000">PiL</text>
</g>
<!-- x1_f2&#45;&gt;x1i_f2 -->
<g id="edge17" class="edge">
<title>x1_f2&#45;&gt;x1i_f2</title>
<path fill="none" stroke="#0000ff" d="M282.7685,-432.937C287.1279,-424.4537 292.4953,-414.0092 297.3753,-404.513"/>
<polygon fill="#0000ff" stroke="#0000ff" points="300.5797,-405.9348 302.0374,-395.4407 294.3537,-402.7352 300.5797,-405.9348"/>
</g>
<!-- al -->
<g id="node17" class="node">
<title>al</title>
<ellipse fill="none" stroke="#000000" cx="586" cy="-162" rx="27" ry="18"/>
<text text-anchor="middle" x="586" y="-158.3" font-family="Times,serif" font-size="14.00" fill="#000000">I</text>
</g>
<!-- id_r&#45;&gt;al -->
<g id="edge15" class="edge">
<title>id_r&#45;&gt;al</title>
<path fill="none" stroke="#0000ff" d="M580.0843,-216.2022C579.2798,-208.1807 579.0571,-198.5231 579.4162,-189.5957"/>
<polygon fill="#0000ff" stroke="#0000ff" points="582.9097,-189.8099 580.105,-179.593 575.9262,-189.3289 582.9097,-189.8099"/>
</g>
<!-- id_r&#45;&gt;al -->
<g id="edge16" class="edge">
<title>id_r&#45;&gt;al</title>
<path fill="none" stroke="#ff0000" d="M591.9157,-216.2022C592.7202,-208.1807 592.9429,-198.5231 592.5838,-189.5957"/>
<polygon fill="#ff0000" stroke="#ff0000" points="596.0738,-189.3289 591.895,-179.593 589.0903,-189.8099 596.0738,-189.3289"/>
</g>
<!-- x1i_f2&#45;&gt;id_l -->
<g id="edge18" class="edge">
<title>x1i_f2&#45;&gt;id_l</title>
<path fill="none" stroke="#ff0000" d="M337.2673,-373.5957C368.6196,-367.2283 421.2829,-352.8974 457,-324 477.7589,-307.2047 493.2324,-280.7283 502.7796,-260.8322"/>
<polygon fill="#ff0000" stroke="#ff0000" points="505.9967,-262.2133 506.9875,-251.6649 499.6349,-259.2931 505.9967,-262.2133"/>
</g>
<!-- ssa -->
<g id="node19" class="node">
<title>ssa</title>
<ellipse fill="none" stroke="#000000" cx="127" cy="-306" rx="27" ry="18"/>
<text text-anchor="middle" x="127" y="-302.3" font-family="Times,serif" font-size="14.00" fill="#000000">PiL</text>
</g>
<!-- x1i_f2&#45;&gt;ssa -->
<g id="edge19" class="edge">
<title>x1i_f2&#45;&gt;ssa</title>
<path fill="none" stroke="#0000ff" d="M289.4861,-366.7445C284.7606,-364.4128 279.749,-362.0458 275,-360 236.6335,-343.4727 191.3662,-327.4449 161.089,-317.2035"/>
<polygon fill="#0000ff" stroke="#0000ff" points="162.0214,-313.8246 151.4274,-313.9598 159.7935,-320.4606 162.0214,-313.8246"/>
</g>
<!-- ssa&#45;&gt;x2_f2 -->
<g id="edge20" class="edge">
<title>ssa&#45;&gt;x2_f2</title>
<path fill="none" stroke="#ff0000" d="M111.7307,-290.7307C101.803,-280.803 88.6847,-267.6847 77.5637,-256.5637"/>
<polygon fill="#ff0000" stroke="#ff0000" points="79.7933,-253.8436 70.2473,-249.2473 74.8436,-258.7933 79.7933,-253.8436"/>
</g>
<!-- sa -->
<g id="node20" class="node">
<title>sa</title>
<ellipse fill="none" stroke="#000000" cx="127" cy="-234" rx="27" ry="18"/>
<text text-anchor="middle" x="127" y="-230.3" font-family="Times,serif" font-size="14.00" fill="#000000">PiL</text>
</g>
<!-- ssa&#45;&gt;sa -->
<g id="edge21" class="edge">
<title>ssa&#45;&gt;sa</title>
<path fill="none" stroke="#0000ff" d="M127,-287.8314C127,-280.131 127,-270.9743 127,-262.4166"/>
<polygon fill="#0000ff" stroke="#0000ff" points="130.5001,-262.4132 127,-252.4133 123.5001,-262.4133 130.5001,-262.4132"/>
</g>
<!-- sa&#45;&gt;ret_f2 -->
<g id="edge23" class="edge">
<title>sa&#45;&gt;ret_f2</title>
<path fill="none" stroke="#0000ff" d="M108.3789,-220.4574C93.3065,-209.4956 71.8746,-193.9088 54.9313,-181.5864"/>
<polygon fill="#0000ff" stroke="#0000ff" points="56.6836,-178.5331 46.5376,-175.4819 52.5664,-184.1943 56.6836,-178.5331"/>
</g>
<!-- sa&#45;&gt;x3_f2 -->
<g id="edge22" class="edge">
<title>sa&#45;&gt;x3_f2</title>
<path fill="none" stroke="#ff0000" d="M127,-215.8314C127,-208.131 127,-198.9743 127,-190.4166"/>
<polygon fill="#ff0000" stroke="#ff0000" points="130.5001,-190.4132 127,-180.4133 123.5001,-190.4133 130.5001,-190.4132"/>
</g>
<!-- g2s -->
<g id="node22" class="node">
<title>g2s</title>
<ellipse fill="none" stroke="#000000" cx="366" cy="-450" rx="27" ry="18"/>
<text text-anchor="middle" x="366" y="-446.3" font-family="Times,serif" font-size="14.00" fill="#000000">PiR</text>
</g>
<!-- g2&#45;&gt;g2s -->
<g id="edge26" class="edge">
<title>g2&#45;&gt;g2s</title>
<path fill="none" stroke="#ff0000" d="M353.2022,-504.2022C355.0821,-496.2406 357.3425,-486.6671 359.4371,-477.7957"/>
<polygon fill="#ff0000" stroke="#ff0000" points="362.8955,-478.3792 361.7872,-467.8425 356.0828,-476.7706 362.8955,-478.3792"/>
</g>
<!-- g2s&#45;&gt;y -->
<g id="edge27" class="edge">
<title>g2s&#45;&gt;y</title>
<path fill="none" stroke="#0000ff" d="M385.4126,-437.2936C402.742,-425.9507 428.3318,-409.201 447.8972,-396.3946"/>
<polygon fill="#0000ff" stroke="#0000ff" points="449.9613,-399.2267 456.4115,-390.8216 446.1276,-393.3698 449.9613,-399.2267"/>
</g>
<!-- ret_g2 -->
<g id="node23" class="node">
<title>ret_g2</title>
<ellipse fill="none" stroke="#000000" cx="367" cy="-234" rx="27" ry="18"/>
<text text-anchor="middle" x="367" y="-230.3" font-family="Times,serif" font-size="14.00" fill="#000000">I</text>
</g>
<!-- g2s&#45;&gt;ret_g2 -->
<g id="edge28" class="edge">
<title>g2s&#45;&gt;ret_g2</title>
<path fill="none" stroke="#ff0000" d="M366.0835,-431.9555C366.2574,-394.3938 366.6595,-307.5541 366.8685,-262.4103"/>
<polygon fill="#ff0000" stroke="#ff0000" points="370.3696,-262.1612 366.916,-252.1451 363.3696,-262.1287 370.3696,-262.1612"/>
</g>
<!-- x_g2 -->
<g id="node27" class="node">
<title>x_g2</title>
<ellipse fill="none" stroke="#000000" cx="238" cy="-234" rx="27" ry="18"/>
<text text-anchor="middle" x="238" y="-230.3" font-family="Times,serif" font-size="14.00" fill="#000000">!c</text>
</g>
<!-- o&#45;&gt;x_g2 -->
<g id="edge33" class="edge">
<title>o&#45;&gt;x_g2</title>
<path fill="none" stroke="#0000ff" d="M238,-287.8314C238,-280.131 238,-270.9743 238,-262.4166"/>
<polygon fill="#0000ff" stroke="#0000ff" points="241.5001,-262.4132 238,-252.4133 234.5001,-262.4133 241.5001,-262.4132"/>
</g>
<!-- ret_o -->
<g id="node28" class="node">
<title>ret_o</title>
<ellipse fill="none" stroke="#000000" cx="283" cy="-18" rx="27" ry="18"/>
<text text-anchor="middle" x="283" y="-14.3" font-family="Times,serif" font-size="14.00" fill="#000000">I</text>
</g>
<!-- o&#45;&gt;ret_o -->
<g id="edge34" class="edge">
<title>o&#45;&gt;ret_o</title>
<path fill="none" stroke="#ff0000" d="M251.9309,-290.2243C259.9892,-280.064 269.4173,-266.1493 274,-252 297.0296,-180.8955 291.6241,-91.2389 286.747,-46.3454"/>
<polygon fill="#ff0000" stroke="#ff0000" points="290.1979,-45.7186 285.5677,-36.1891 283.2446,-46.5261 290.1979,-45.7186"/>
</g>
<!-- o_app&#45;&gt;ret_g2 -->
<g id="edge41" class="edge">
<title>o_app&#45;&gt;ret_g2</title>
<path fill="none" stroke="#0000ff" d="M408.7466,-289.6621C401.8423,-280.4564 393.0823,-268.7764 385.3715,-258.4953"/>
<polygon fill="#0000ff" stroke="#0000ff" points="388.005,-256.1733 379.2049,-250.2733 382.405,-260.3733 388.005,-256.1733"/>
</g>
<!-- o_app&#45;&gt;y_arg -->
<g id="edge40" class="edge">
<title>o_app&#45;&gt;y_arg</title>
<path fill="none" stroke="#ff0000" d="M425.9438,-288.2022C428.1794,-280.1541 430.8726,-270.4588 433.3593,-261.5067"/>
<polygon fill="#ff0000" stroke="#ff0000" points="436.7395,-262.4145 436.0437,-251.8425 429.9949,-260.541 436.7395,-262.4145"/>
</g>
<!-- x1_g2 -->
<g id="node29" class="node">
<title>x1_g2</title>
<ellipse fill="none" stroke="#000000" cx="238" cy="-162" rx="27" ry="18"/>
<text text-anchor="middle" x="238" y="-158.3" font-family="Times,serif" font-size="14.00" fill="#000000">!d</text>
</g>
<!-- x_g2&#45;&gt;x1_g2 -->
<g id="edge35" class="edge">
<title>x_g2&#45;&gt;x1_g2</title>
<path fill="none" stroke="#0000ff" d="M238,-215.8314C238,-208.131 238,-198.9743 238,-190.4166"/>
<polygon fill="#0000ff" stroke="#0000ff" points="241.5001,-190.4132 238,-180.4133 234.5001,-190.4133 241.5001,-190.4132"/>
</g>
<!-- x2_g2 -->
<g id="node30" class="node">
<title>x2_g2</title>
<ellipse fill="none" stroke="#000000" cx="202" cy="-18" rx="27" ry="18"/>
<text text-anchor="middle" x="202" y="-14.3" font-family="Times,serif" font-size="14.00" fill="#000000">I</text>
</g>
<!-- x_g2&#45;&gt;x2_g2 -->
<g id="edge36" class="edge">
<title>x_g2&#45;&gt;x2_g2</title>
<path fill="none" stroke="#0000ff" d="M223.8771,-218.2844C215.7465,-208.1468 206.3099,-194.2347 202,-180 188.3071,-134.7753 192.5869,-79.1367 197.1468,-46.2316"/>
<polygon fill="#0000ff" stroke="#0000ff" points="200.6605,-46.3996 198.6784,-35.9918 193.7376,-45.364 200.6605,-46.3996"/>
</g>
<!-- x1i_g2 -->
<g id="node31" class="node">
<title>x1i_g2</title>
<ellipse fill="none" stroke="#000000" cx="238" cy="-90" rx="27" ry="18"/>
<text text-anchor="middle" x="238" y="-86.3" font-family="Times,serif" font-size="14.00" fill="#000000">PiL</text>
</g>
<!-- x1_g2&#45;&gt;x1i_g2 -->
<g id="edge37" class="edge">
<title>x1_g2&#45;&gt;x1i_g2</title>
<path fill="none" stroke="#0000ff" d="M238,-143.8314C238,-136.131 238,-126.9743 238,-118.4166"/>
<polygon fill="#0000ff" stroke="#0000ff" points="241.5001,-118.4132 238,-108.4133 234.5001,-118.4133 241.5001,-118.4132"/>
</g>
<!-- x1i_g2&#45;&gt;ret_o -->
<g id="edge39" class="edge">
<title>x1i_g2&#45;&gt;ret_o</title>
<path fill="none" stroke="#0000ff" d="M248.437,-73.3008C253.9235,-64.5224 260.7686,-53.5703 266.9163,-43.7339"/>
<polygon fill="#0000ff" stroke="#0000ff" points="269.9751,-45.4436 272.3071,-35.1086 264.0391,-41.7336 269.9751,-45.4436"/>
</g>
<!-- x1i_g2&#45;&gt;x2_g2 -->
<g id="edge38" class="edge">
<title>x1i_g2&#45;&gt;x2_g2</title>
<path fill="none" stroke="#ff0000" d="M229.2854,-72.5708C225.0403,-64.0807 219.8464,-53.6929 215.1337,-44.2674"/>
<polygon fill="#ff0000" stroke="#ff0000" points="218.237,-42.6477 210.6343,-35.2687 211.976,-45.7782 218.237,-42.6477"/>
</g>
</g>
</svg>
