<?xml version="1.0" encoding="UTF-8" standalone="no"?>
<!DOCTYPE svg PUBLIC "-//W3C//DTD SVG 1.1//EN"
 "http://www.w3.org/Graphics/SVG/1.1/DTD/svg11.dtd">
<!-- Generated by graphviz version 2.40.1 (20161225.0304)
 -->
<!-- Title: %3 Pages: 1 -->
<svg width="636pt" height="1182pt"
 viewBox="0.00 0.00 636.50 1181.90" xmlns="http://www.w3.org/2000/svg" xmlns:xlink="http://www.w3.org/1999/xlink">
<g id="graph0" class="graph" transform="scale(1 1) rotate(0) translate(4 1177.895)">
<title>%3</title>
<polygon fill="#ffffff" stroke="transparent" points="-4,4 -4,-1177.895 632.4971,-1177.895 632.4971,4 -4,4"/>
<!-- Root -->
<g id="node1" class="node">
<title>Root</title>
<ellipse fill="none" stroke="#000000" cx="32.4971" cy="-498" rx="32.4942" ry="18"/>
<text text-anchor="middle" x="32.4971" y="-494.3" font-family="Times,serif" font-size="14.00" fill="#000000">Root</text>
</g>
<!-- f_retf -->
<g id="node2" class="node">
<title>f_retf</title>
<ellipse fill="none" stroke="#000000" cx="64.4971" cy="-411" rx="27" ry="18"/>
<text text-anchor="middle" x="64.4971" y="-407.3" font-family="Times,serif" font-size="14.00" fill="#000000">I</text>
</g>
<!-- Root&#45;&gt;f_retf -->
<g id="edge1" class="edge">
<title>Root&#45;&gt;f_retf</title>
<path fill="none" stroke="#ff0000" stroke-width="2" d="M37.1021,-479.8362C39.7804,-469.9958 43.4269,-457.6959 47.4971,-447 48.6771,-443.8992 50.0122,-440.6957 51.4028,-437.5368"/>
<polygon fill="#ff0000" stroke="#ff0000" stroke-width="2" points="54.6335,-438.8888 55.6415,-428.342 48.2765,-435.9582 54.6335,-438.8888"/>
<text text-anchor="middle" x="64.9971" y="-450.8" font-family="Times,serif" font-size="14.00" fill="#000000">0&#45;&gt;1</text>
</g>
<!-- c1a -->
<g id="node3" class="node">
<title>c1a</title>
<ellipse fill="none" stroke="#000000" cx="383.4971" cy="-1141.9475" rx="27.8951" ry="18"/>
<text text-anchor="middle" x="383.4971" y="-1138.2475" font-family="Times,serif" font-size="14.00" fill="#000000">Cut</text>
</g>
<!-- fp1 -->
<g id="node4" class="node">
<title>fp1</title>
<ellipse fill="none" stroke="#000000" cx="355.4971" cy="-1041" rx="27" ry="18"/>
<text text-anchor="middle" x="355.4971" y="-1037.3" font-family="Times,serif" font-size="14.00" fill="#000000">!p</text>
</g>
<!-- c1a&#45;&gt;fp1 -->
<g id="edge2" class="edge">
<title>c1a&#45;&gt;fp1</title>
<path fill="none" stroke="#ff0000" d="M378.4913,-1123.9001C374.2309,-1108.5403 368.0434,-1086.2328 363.1599,-1068.6263"/>
<polygon fill="#ff0000" stroke="#ff0000" points="366.5052,-1067.5918 360.4596,-1058.8911 359.7598,-1069.4628 366.5052,-1067.5918"/>
<text text-anchor="middle" x="374.4971" y="-1080.8" font-family="Times,serif" font-size="14.00" fill="#000000">0</text>
</g>
<!-- d2a -->
<g id="node5" class="node">
<title>d2a</title>
<ellipse fill="none" stroke="#000000" cx="424.4971" cy="-672" rx="29.795" ry="18"/>
<text text-anchor="middle" x="424.4971" y="-668.3" font-family="Times,serif" font-size="14.00" fill="#000000">Dup</text>
</g>
<!-- c1a&#45;&gt;d2a -->
<g id="edge3" class="edge">
<title>c1a&#45;&gt;d2a</title>
<path fill="none" stroke="#0000ff" d="M391.4459,-1124.4845C399.7239,-1104.6735 411.4971,-1071.1909 411.4971,-1041 411.4971,-1041 411.4971,-1041 411.4971,-759 411.4971,-739.0177 414.8931,-716.7345 418.2137,-699.7224"/>
<polygon fill="#0000ff" stroke="#0000ff" points="421.6518,-700.3792 420.2404,-689.8788 414.7956,-698.9675 421.6518,-700.3792"/>
<text text-anchor="middle" x="416.4971" y="-885.8" font-family="Times,serif" font-size="14.00" fill="#000000">1</text>
</g>
<!-- d1 -->
<g id="node9" class="node">
<title>d1</title>
<ellipse fill="none" stroke="#000000" cx="327.4971" cy="-933" rx="29.795" ry="18"/>
<text text-anchor="middle" x="327.4971" y="-929.3" font-family="Times,serif" font-size="14.00" fill="#000000">Dup</text>
</g>
<!-- fp1&#45;&gt;d1 -->
<g id="edge7" class="edge">
<title>fp1&#45;&gt;d1</title>
<path fill="none" stroke="#ff0000" d="M350.8735,-1023.166C346.4759,-1006.2038 339.794,-980.4307 334.6986,-960.7773"/>
<polygon fill="#ff0000" stroke="#ff0000" points="338.0253,-959.6621 332.1276,-950.8605 331.2493,-961.4189 338.0253,-959.6621"/>
<text text-anchor="middle" x="351.4971" y="-983.3" font-family="Times,serif" font-size="14.00" fill="#000000">1</text>
</g>
<!-- d2b -->
<g id="node12" class="node">
<title>d2b</title>
<ellipse fill="none" stroke="#000000" cx="260.4971" cy="-498" rx="29.795" ry="18"/>
<text text-anchor="middle" x="260.4971" y="-494.3" font-family="Times,serif" font-size="14.00" fill="#000000">Dup</text>
</g>
<!-- d2a&#45;&gt;d2b -->
<g id="edge21" class="edge">
<title>d2a&#45;&gt;d2b</title>
<path fill="none" stroke="#000000" stroke-dasharray="5,2" d="M419.5335,-654.0726C410.5511,-624.852 388.8787,-566.9193 350.4971,-534 332.2517,-518.3512 321.7669,-525.0463 299.4971,-516 294.5227,-513.9793 289.2614,-511.6715 284.2681,-509.3978"/>
</g>
<!-- d2c -->
<g id="node14" class="node">
<title>d2c</title>
<ellipse fill="none" stroke="#000000" cx="260.4971" cy="-411" rx="29.795" ry="18"/>
<text text-anchor="middle" x="260.4971" y="-407.3" font-family="Times,serif" font-size="14.00" fill="#000000">Dup</text>
</g>
<!-- d2a&#45;&gt;d2c -->
<g id="edge22" class="edge">
<title>d2a&#45;&gt;d2c</title>
<path fill="none" stroke="#000000" stroke-dasharray="5,2" d="M401.2859,-660.41C396.1607,-658.0991 390.7049,-655.8251 385.4971,-654 353.9614,-642.9482 343.17,-649.2596 312.4971,-636 256.5533,-611.8161 230.0787,-605.2003 206.4971,-549 188.0816,-505.1116 224.4828,-452.5876 246.0906,-426.8291"/>
</g>
<!-- hi_retpa -->
<g id="node20" class="node">
<title>hi_retpa</title>
<ellipse fill="none" stroke="#000000" cx="445.4971" cy="-585" rx="27" ry="18"/>
<text text-anchor="middle" x="445.4971" y="-581.3" font-family="Times,serif" font-size="14.00" fill="#000000">!p</text>
</g>
<!-- d2a&#45;&gt;hi_retpa -->
<g id="edge23" class="edge">
<title>d2a&#45;&gt;hi_retpa</title>
<path fill="none" stroke="#0000ff" d="M428.8483,-653.9735C431.7204,-642.0751 435.54,-626.2508 438.7963,-612.7606"/>
<polygon fill="#0000ff" stroke="#0000ff" points="442.2073,-613.5455 441.1515,-603.0034 435.4027,-611.9029 442.2073,-613.5455"/>
<text text-anchor="middle" x="440.4971" y="-624.8" font-family="Times,serif" font-size="14.00" fill="#000000">1</text>
</g>
<!-- c1b -->
<g id="node6" class="node">
<title>c1b</title>
<ellipse fill="none" stroke="#000000" cx="238.4971" cy="-1141.9475" rx="27.9017" ry="27.9017"/>
<ellipse fill="none" stroke="#000000" cx="238.4971" cy="-1141.9475" rx="31.8951" ry="31.8951"/>
<text text-anchor="middle" x="238.4971" y="-1138.2475" font-family="Times,serif" font-size="14.00" fill="#000000">Cut</text>
</g>
<!-- fp2 -->
<g id="node7" class="node">
<title>fp2</title>
<ellipse fill="none" stroke="#000000" cx="277.4971" cy="-1041" rx="27" ry="18"/>
<text text-anchor="middle" x="277.4971" y="-1037.3" font-family="Times,serif" font-size="14.00" fill="#000000">!p</text>
</g>
<!-- c1b&#45;&gt;fp2 -->
<g id="edge4" class="edge">
<title>c1b&#45;&gt;fp2</title>
<path fill="none" stroke="#ff0000" d="M250.0928,-1111.9333C255.4606,-1098.0393 261.7902,-1081.6557 267.0133,-1068.1364"/>
<polygon fill="#ff0000" stroke="#ff0000" points="270.4184,-1069.0345 270.7574,-1058.4451 263.8887,-1066.5118 270.4184,-1069.0345"/>
<text text-anchor="middle" x="268.4971" y="-1080.8" font-family="Times,serif" font-size="14.00" fill="#000000">0</text>
</g>
<!-- h_di2f -->
<g id="node8" class="node">
<title>h_di2f</title>
<ellipse fill="none" stroke="#000000" cx="183.4971" cy="-987" rx="27" ry="18"/>
<text text-anchor="middle" x="183.4971" y="-983.3" font-family="Times,serif" font-size="14.00" fill="#000000">!d</text>
</g>
<!-- c1b&#45;&gt;h_di2f -->
<g id="edge5" class="edge">
<title>c1b&#45;&gt;h_di2f</title>
<path fill="none" stroke="#0000ff" stroke-width="2" d="M227.762,-1111.7042C217.7272,-1083.434 202.8765,-1041.596 193.1925,-1014.3142"/>
<polygon fill="#0000ff" stroke="#0000ff" stroke-width="2" points="196.3984,-1012.8826 189.7549,-1004.6295 189.8017,-1015.2242 196.3984,-1012.8826"/>
<text text-anchor="middle" x="225.4971" y="-1080.8" font-family="Times,serif" font-size="14.00" fill="#000000">1</text>
</g>
<!-- fp2&#45;&gt;d1 -->
<g id="edge8" class="edge">
<title>fp2&#45;&gt;d1</title>
<path fill="none" stroke="#ff0000" d="M285.5305,-1023.6479C293.7551,-1005.8828 306.6184,-978.098 315.9368,-957.9702"/>
<ellipse fill="none" stroke="#ff0000" cx="317.6371" cy="-954.2977" rx="4" ry="4"/>
<text text-anchor="middle" x="315.4971" y="-983.3" font-family="Times,serif" font-size="14.00" fill="#000000">1</text>
</g>
<!-- hbf -->
<g id="node11" class="node">
<title>hbf</title>
<ellipse fill="none" stroke="#000000" cx="149.4971" cy="-585" rx="27" ry="18"/>
<text text-anchor="middle" x="149.4971" y="-581.3" font-family="Times,serif" font-size="14.00" fill="#000000">PiL</text>
</g>
<!-- h_di2f&#45;&gt;hbf -->
<g id="edge9" class="edge">
<title>h_di2f&#45;&gt;hbf</title>
<path fill="none" stroke="#0000ff" stroke-width="2" d="M175.8369,-969.4058C168.1675,-950.1641 157.4971,-918.2305 157.4971,-889.5 157.4971,-889.5 157.4971,-889.5 157.4971,-672 157.4971,-652.341 155.4465,-630.2878 153.4217,-613.3038"/>
<polygon fill="#0000ff" stroke="#0000ff" stroke-width="2" points="156.8399,-612.4348 152.1166,-602.9511 149.8949,-613.3103 156.8399,-612.4348"/>
<text text-anchor="middle" x="162.4971" y="-798.8" font-family="Times,serif" font-size="14.00" fill="#000000">2</text>
</g>
<!-- f2 -->
<g id="node10" class="node">
<title>f2</title>
<ellipse fill="none" stroke="#000000" cx="327.4971" cy="-846" rx="27" ry="18"/>
<text text-anchor="middle" x="327.4971" y="-842.3" font-family="Times,serif" font-size="14.00" fill="#000000">PiR</text>
</g>
<!-- d1&#45;&gt;f2 -->
<g id="edge6" class="edge">
<title>d1&#45;&gt;f2</title>
<path fill="none" stroke="#ff0000" d="M327.4971,-914.9735C327.4971,-903.1918 327.4971,-887.5607 327.4971,-874.1581"/>
<polygon fill="#ff0000" stroke="#ff0000" points="330.9972,-874.0033 327.4971,-864.0034 323.9972,-874.0034 330.9972,-874.0033"/>
</g>
<!-- xdicg -->
<g id="node15" class="node">
<title>xdicg</title>
<ellipse fill="none" stroke="#000000" cx="349.4971" cy="-759" rx="27" ry="18"/>
<text text-anchor="middle" x="349.4971" y="-755.3" font-family="Times,serif" font-size="14.00" fill="#000000">!c</text>
</g>
<!-- f2&#45;&gt;xdicg -->
<g id="edge27" class="edge">
<title>f2&#45;&gt;xdicg</title>
<path fill="none" stroke="#0000ff" d="M332.0555,-827.9735C335.0643,-816.0751 339.0659,-800.2508 342.4772,-786.7606"/>
<polygon fill="#0000ff" stroke="#0000ff" points="345.8861,-787.5563 344.9445,-777.0034 339.0997,-785.8401 345.8861,-787.5563"/>
</g>
<!-- f_retg -->
<g id="node19" class="node">
<title>f_retg</title>
<ellipse fill="none" stroke="#000000" cx="373.4971" cy="-411" rx="27" ry="18"/>
<text text-anchor="middle" x="373.4971" y="-407.3" font-family="Times,serif" font-size="14.00" fill="#000000">I</text>
</g>
<!-- f2&#45;&gt;f_retg -->
<g id="edge26" class="edge">
<title>f2&#45;&gt;f_retg</title>
<path fill="none" stroke="#ff0000" d="M311.3225,-831.5037C276.7993,-798.7584 201.9914,-717.0191 239.4971,-654 263.8055,-613.1557 300.9722,-637.6596 333.4971,-603 375.632,-558.0997 378.1986,-480.8253 376.0737,-439.321"/>
<polygon fill="#ff0000" stroke="#ff0000" points="379.5511,-438.8547 375.4166,-429.0999 372.5655,-439.3038 379.5511,-438.8547"/>
</g>
<!-- hbf&#45;&gt;d2b -->
<g id="edge10" class="edge">
<title>hbf&#45;&gt;d2b</title>
<path fill="none" stroke="#ff0000" d="M167.3312,-571.0219C185.3212,-556.9216 213.3085,-534.9857 233.9153,-518.8344"/>
<polygon fill="#ff0000" stroke="#ff0000" points="236.2556,-521.4471 241.967,-512.5236 231.9374,-515.9377 236.2556,-521.4471"/>
</g>
<!-- x2i_o2f -->
<g id="node13" class="node">
<title>x2i_o2f</title>
<ellipse fill="none" stroke="#000000" cx="109.4971" cy="-498" rx="27" ry="18"/>
<text text-anchor="middle" x="109.4971" y="-494.3" font-family="Times,serif" font-size="14.00" fill="#000000">PiL</text>
</g>
<!-- hbf&#45;&gt;x2i_o2f -->
<g id="edge11" class="edge">
<title>hbf&#45;&gt;x2i_o2f</title>
<path fill="none" stroke="#0000ff" stroke-width="2" d="M141.4025,-567.3943C135.7268,-555.0496 128.0399,-538.3306 121.6334,-524.3965"/>
<polygon fill="#0000ff" stroke="#0000ff" stroke-width="2" points="124.8006,-522.9063 117.4432,-515.2827 118.4406,-525.8305 124.8006,-522.9063"/>
<text text-anchor="middle" x="149.9971" y="-537.8" font-family="Times,serif" font-size="14.00" fill="#000000">2&#45;&gt;1</text>
</g>
<!-- d4b -->
<g id="node21" class="node">
<title>d4b</title>
<ellipse fill="none" stroke="#000000" cx="410.4971" cy="-338" rx="29.795" ry="18"/>
<text text-anchor="middle" x="410.4971" y="-334.3" font-family="Times,serif" font-size="14.00" fill="#000000">Dup</text>
</g>
<!-- d2b&#45;&gt;d4b -->
<g id="edge24" class="edge">
<title>d2b&#45;&gt;d4b</title>
<path fill="none" stroke="#ff0000" d="M270.8669,-480.8217C284.5178,-458.9984 310.0235,-420.8315 337.4971,-393 351.1965,-379.1222 368.5654,-365.8941 382.924,-355.8898"/>
<ellipse fill="none" stroke="#ff0000" cx="386.4012" cy="-353.5089" rx="4" ry="4"/>
</g>
<!-- x2i_o2f&#45;&gt;f_retf -->
<g id="edge13" class="edge">
<title>x2i_o2f&#45;&gt;f_retf</title>
<path fill="none" stroke="#0000ff" stroke-width="2" d="M100.6066,-480.8116C94.1967,-468.4191 85.4263,-451.4631 78.1342,-437.3651"/>
<polygon fill="#0000ff" stroke="#0000ff" stroke-width="2" points="81.0722,-435.4269 73.3692,-428.1527 74.8547,-438.6429 81.0722,-435.4269"/>
</g>
<!-- x2i_o2f&#45;&gt;d2c -->
<g id="edge12" class="edge">
<title>x2i_o2f&#45;&gt;d2c</title>
<path fill="none" stroke="#ff0000" d="M130.1764,-486.0854C155.9426,-471.24 200.1905,-445.7462 229.8882,-428.6356"/>
<polygon fill="#ff0000" stroke="#ff0000" points="231.6835,-431.6406 238.6009,-423.6157 228.1889,-425.5753 231.6835,-431.6406"/>
</g>
<!-- x1_o2 -->
<g id="node22" class="node">
<title>x1_o2</title>
<ellipse fill="none" stroke="#000000" cx="223.4971" cy="-338" rx="27" ry="18"/>
<text text-anchor="middle" x="223.4971" y="-334.3" font-family="Times,serif" font-size="14.00" fill="#000000">I</text>
</g>
<!-- d2c&#45;&gt;x1_o2 -->
<g id="edge25" class="edge">
<title>d2c&#45;&gt;x1_o2</title>
<path fill="none" stroke="#ff0000" d="M251.7286,-393.7C247.259,-384.8815 241.7299,-373.9727 236.7528,-364.153"/>
<polygon fill="#ff0000" stroke="#ff0000" points="239.8456,-362.5132 232.2027,-355.1758 233.6018,-365.6779 239.8456,-362.5132"/>
</g>
<!-- xdicg&#45;&gt;d2a -->
<g id="edge14" class="edge">
<title>xdicg&#45;&gt;d2a</title>
<path fill="none" stroke="#0000ff" d="M363.2533,-743.0429C375.0201,-729.3933 392.0855,-709.5975 405.2151,-694.3671"/>
<ellipse fill="none" stroke="#0000ff" cx="407.9624" cy="-691.1803" rx="4" ry="4"/>
</g>
<!-- h_di2g -->
<g id="node16" class="node">
<title>h_di2g</title>
<ellipse fill="none" stroke="#000000" cx="349.4971" cy="-672" rx="27" ry="18"/>
<text text-anchor="middle" x="349.4971" y="-668.3" font-family="Times,serif" font-size="14.00" fill="#000000">!d</text>
</g>
<!-- xdicg&#45;&gt;h_di2g -->
<g id="edge15" class="edge">
<title>xdicg&#45;&gt;h_di2g</title>
<path fill="none" stroke="#0000ff" d="M349.4971,-740.9735C349.4971,-729.1918 349.4971,-713.5607 349.4971,-700.1581"/>
<polygon fill="#0000ff" stroke="#0000ff" points="352.9972,-700.0033 349.4971,-690.0034 345.9972,-700.0034 352.9972,-700.0033"/>
<text text-anchor="middle" x="354.4971" y="-711.8" font-family="Times,serif" font-size="14.00" fill="#000000">1</text>
</g>
<!-- hbg -->
<g id="node17" class="node">
<title>hbg</title>
<ellipse fill="none" stroke="#000000" cx="297.4971" cy="-585" rx="27" ry="18"/>
<text text-anchor="middle" x="297.4971" y="-581.3" font-family="Times,serif" font-size="14.00" fill="#000000">PiL</text>
</g>
<!-- h_di2g&#45;&gt;hbg -->
<g id="edge16" class="edge">
<title>h_di2g&#45;&gt;hbg</title>
<path fill="none" stroke="#0000ff" d="M337.0418,-655.876C332.5576,-649.7885 327.5972,-642.7103 323.4971,-636 318.7299,-628.1978 314.0313,-619.4168 309.9675,-611.3681"/>
<polygon fill="#0000ff" stroke="#0000ff" points="313.0859,-609.778 305.5227,-602.3586 306.8083,-612.8751 313.0859,-609.778"/>
<text text-anchor="middle" x="328.4971" y="-624.8" font-family="Times,serif" font-size="14.00" fill="#000000">2</text>
</g>
<!-- hbg&#45;&gt;d2b -->
<g id="edge17" class="edge">
<title>hbg&#45;&gt;d2b</title>
<path fill="none" stroke="#ff0000" d="M290.0096,-567.3943C284.5933,-554.6586 277.1969,-537.2671 271.1638,-523.081"/>
<ellipse fill="none" stroke="#ff0000" cx="269.539" cy="-519.2605" rx="4" ry="4"/>
</g>
<!-- x2i_o2g -->
<g id="node18" class="node">
<title>x2i_o2g</title>
<ellipse fill="none" stroke="#000000" cx="335.4971" cy="-498" rx="27" ry="18"/>
<text text-anchor="middle" x="335.4971" y="-494.3" font-family="Times,serif" font-size="14.00" fill="#000000">PiL</text>
</g>
<!-- hbg&#45;&gt;x2i_o2g -->
<g id="edge18" class="edge">
<title>hbg&#45;&gt;x2i_o2g</title>
<path fill="none" stroke="#0000ff" d="M305.187,-567.3943C310.5271,-555.1683 317.7412,-538.6517 323.7917,-524.7992"/>
<polygon fill="#0000ff" stroke="#0000ff" points="327.153,-525.8476 327.9484,-515.2827 320.7383,-523.0457 327.153,-525.8476"/>
<text text-anchor="middle" x="336.9971" y="-537.8" font-family="Times,serif" font-size="14.00" fill="#000000">2&#45;&gt;1</text>
</g>
<!-- x2i_o2g&#45;&gt;d2c -->
<g id="edge19" class="edge">
<title>x2i_o2g&#45;&gt;d2c</title>
<path fill="none" stroke="#ff0000" d="M321.741,-482.0429C309.9741,-468.3933 292.9087,-448.5975 279.7791,-433.3671"/>
<ellipse fill="none" stroke="#ff0000" cx="277.0318" cy="-430.1803" rx="4" ry="4"/>
</g>
<!-- x2i_o2g&#45;&gt;f_retg -->
<g id="edge20" class="edge">
<title>x2i_o2g&#45;&gt;f_retg</title>
<path fill="none" stroke="#0000ff" d="M343.187,-480.3943C348.5271,-468.1683 355.7412,-451.6517 361.7917,-437.7992"/>
<polygon fill="#0000ff" stroke="#0000ff" points="365.153,-438.8476 365.9484,-428.2827 358.7383,-436.0457 365.153,-438.8476"/>
</g>
<!-- hi_ret1 -->
<g id="node23" class="node">
<title>hi_ret1</title>
<ellipse fill="none" stroke="#000000" cx="485.4971" cy="-338" rx="27" ry="18"/>
<text text-anchor="middle" x="485.4971" y="-334.3" font-family="Times,serif" font-size="14.00" fill="#000000">I</text>
</g>
<!-- hi_retpa&#45;&gt;hi_ret1 -->
<g id="edge34" class="edge">
<title>hi_retpa&#45;&gt;hi_ret1</title>
<path fill="none" stroke="#ff0000" d="M456.8286,-568.5872C465.4149,-555.1321 476.5509,-535.2363 481.4971,-516 494.7515,-464.4526 491.9855,-401.7202 488.7537,-366.1691"/>
<polygon fill="#ff0000" stroke="#ff0000" points="492.2203,-365.6581 487.753,-356.0511 485.2543,-366.3471 492.2203,-365.6581"/>
<text text-anchor="middle" x="495.4971" y="-450.8" font-family="Times,serif" font-size="14.00" fill="#000000">2</text>
</g>
<!-- h_di1 -->
<g id="node26" class="node">
<title>h_di1</title>
<ellipse fill="none" stroke="#000000" cx="445.4971" cy="-498" rx="27" ry="18"/>
<text text-anchor="middle" x="445.4971" y="-494.3" font-family="Times,serif" font-size="14.00" fill="#000000">!d</text>
</g>
<!-- hi_retpa&#45;&gt;h_di1 -->
<g id="edge35" class="edge">
<title>hi_retpa&#45;&gt;h_di1</title>
<path fill="none" stroke="#0000ff" d="M445.4971,-566.9735C445.4971,-555.1918 445.4971,-539.5607 445.4971,-526.1581"/>
<polygon fill="#0000ff" stroke="#0000ff" points="448.9972,-526.0033 445.4971,-516.0034 441.9972,-526.0034 448.9972,-526.0033"/>
<text text-anchor="middle" x="450.4971" y="-537.8" font-family="Times,serif" font-size="14.00" fill="#000000">1</text>
</g>
<!-- h_app -->
<g id="node24" class="node">
<title>h_app</title>
<ellipse fill="none" stroke="#000000" cx="467.4971" cy="-251" rx="27" ry="18"/>
<text text-anchor="middle" x="467.4971" y="-247.3" font-family="Times,serif" font-size="14.00" fill="#000000">I</text>
</g>
<!-- d4b&#45;&gt;h_app -->
<g id="edge28" class="edge">
<title>d4b&#45;&gt;h_app</title>
<path fill="none" stroke="#ff0000" d="M421.4873,-321.2255C429.8459,-308.4677 441.4852,-290.7024 450.9655,-276.2325"/>
<polygon fill="#ff0000" stroke="#ff0000" points="453.988,-278.0057 456.5407,-267.723 448.1328,-274.1695 453.988,-278.0057"/>
</g>
<!-- ha -->
<g id="node25" class="node">
<title>ha</title>
<ellipse fill="none" stroke="#000000" cx="445.4971" cy="-411" rx="27" ry="18"/>
<text text-anchor="middle" x="445.4971" y="-407.3" font-family="Times,serif" font-size="14.00" fill="#000000">PiL</text>
</g>
<!-- ha&#45;&gt;d4b -->
<g id="edge29" class="edge">
<title>ha&#45;&gt;d4b</title>
<path fill="none" stroke="#ff0000" d="M437.2026,-393.7C433.0485,-385.0357 427.9269,-374.3535 423.2836,-364.669"/>
<polygon fill="#ff0000" stroke="#ff0000" points="426.3327,-362.9328 418.8534,-355.4288 420.0207,-365.9591 426.3327,-362.9328"/>
</g>
<!-- ha&#45;&gt;hi_ret1 -->
<g id="edge30" class="edge">
<title>ha&#45;&gt;hi_ret1</title>
<path fill="none" stroke="#0000ff" d="M454.7745,-394.0688C459.6867,-385.1041 465.8241,-373.9033 471.3192,-363.8747"/>
<polygon fill="#0000ff" stroke="#0000ff" points="474.3955,-365.5439 476.1315,-355.0922 468.2567,-362.1801 474.3955,-365.5439"/>
</g>
<!-- h_di1&#45;&gt;ha -->
<g id="edge31" class="edge">
<title>h_di1&#45;&gt;ha</title>
<path fill="none" stroke="#0000ff" d="M445.4971,-479.9735C445.4971,-468.1918 445.4971,-452.5607 445.4971,-439.1581"/>
<polygon fill="#0000ff" stroke="#0000ff" points="448.9972,-439.0033 445.4971,-429.0034 441.9972,-439.0034 448.9972,-439.0033"/>
<text text-anchor="middle" x="450.4971" y="-450.8" font-family="Times,serif" font-size="14.00" fill="#000000">2</text>
</g>
<!-- c2a -->
<g id="node27" class="node">
<title>c2a</title>
<ellipse fill="none" stroke="#000000" cx="276.4971" cy="-672" rx="27.8951" ry="18"/>
<text text-anchor="middle" x="276.4971" y="-668.3" font-family="Times,serif" font-size="14.00" fill="#000000">Cut</text>
</g>
<!-- c2a&#45;&gt;hi_retpa -->
<g id="edge32" class="edge">
<title>c2a&#45;&gt;hi_retpa</title>
<path fill="none" stroke="#ff0000" d="M298.5909,-660.6263C328.3598,-645.3015 381.4761,-617.9575 415.0245,-600.6871"/>
<polygon fill="#ff0000" stroke="#ff0000" points="416.6432,-603.7904 423.9322,-596.1014 413.4392,-597.5667 416.6432,-603.7904"/>
<text text-anchor="middle" x="375.4971" y="-624.8" font-family="Times,serif" font-size="14.00" fill="#000000">1</text>
</g>
<!-- c2a&#45;&gt;x1_o2 -->
<g id="edge33" class="edge">
<title>c2a&#45;&gt;x1_o2</title>
<path fill="none" stroke="#0000ff" d="M268.2198,-654.7415C255.1904,-626.5149 230.458,-568.3658 221.4971,-516 212.2766,-462.1166 220.5037,-447.6576 221.4971,-393 221.6534,-384.402 221.947,-375.0517 222.262,-366.5407"/>
<polygon fill="#0000ff" stroke="#0000ff" points="225.7679,-366.4587 222.6638,-356.3288 218.7733,-366.1834 225.7679,-366.4587"/>
</g>
<!-- c3 -->
<g id="node28" class="node">
<title>c3</title>
<ellipse fill="none" stroke="#000000" cx="558.4971" cy="-338" rx="27.8951" ry="18"/>
<text text-anchor="middle" x="558.4971" y="-334.3" font-family="Times,serif" font-size="14.00" fill="#000000">Cut</text>
</g>
<!-- c3&#45;&gt;h_app -->
<g id="edge37" class="edge">
<title>c3&#45;&gt;h_app</title>
<path fill="none" stroke="#0000ff" d="M542.6461,-322.8458C528.2925,-309.123 506.9663,-288.7342 490.6953,-273.1784"/>
<polygon fill="#0000ff" stroke="#0000ff" points="492.8133,-270.3612 483.1665,-265.9806 487.976,-275.4209 492.8133,-270.3612"/>
</g>
<!-- i -->
<g id="node29" class="node">
<title>i</title>
<ellipse fill="none" stroke="#000000" cx="558.4971" cy="-251" rx="27" ry="18"/>
<text text-anchor="middle" x="558.4971" y="-247.3" font-family="Times,serif" font-size="14.00" fill="#000000">!p</text>
</g>
<!-- c3&#45;&gt;i -->
<g id="edge36" class="edge">
<title>c3&#45;&gt;i</title>
<path fill="none" stroke="#ff0000" d="M558.4971,-319.9735C558.4971,-308.1918 558.4971,-292.5607 558.4971,-279.1581"/>
<polygon fill="#ff0000" stroke="#ff0000" points="561.9972,-279.0033 558.4971,-269.0034 554.9972,-279.0034 561.9972,-279.0033"/>
<text text-anchor="middle" x="563.4971" y="-290.8" font-family="Times,serif" font-size="14.00" fill="#000000">2</text>
</g>
<!-- i_i -->
<g id="node30" class="node">
<title>i_i</title>
<ellipse fill="none" stroke="#000000" cx="558.4971" cy="-164" rx="27" ry="18"/>
<text text-anchor="middle" x="558.4971" y="-160.3" font-family="Times,serif" font-size="14.00" fill="#000000">PiR</text>
</g>
<!-- i&#45;&gt;i_i -->
<g id="edge38" class="edge">
<title>i&#45;&gt;i_i</title>
<path fill="none" stroke="#ff0000" d="M558.4971,-232.9735C558.4971,-221.1918 558.4971,-205.5607 558.4971,-192.1581"/>
<polygon fill="#ff0000" stroke="#ff0000" points="561.9972,-192.0033 558.4971,-182.0034 554.9972,-192.0034 561.9972,-192.0033"/>
<text text-anchor="middle" x="563.4971" y="-203.8" font-family="Times,serif" font-size="14.00" fill="#000000">3</text>
</g>
<!-- il -->
<g id="node31" class="node">
<title>il</title>
<ellipse fill="none" stroke="#000000" cx="601.4971" cy="-91" rx="27" ry="18"/>
<text text-anchor="middle" x="601.4971" y="-87.3" font-family="Times,serif" font-size="14.00" fill="#000000">!d</text>
</g>
<!-- i_i&#45;&gt;il -->
<g id="edge39" class="edge">
<title>i_i&#45;&gt;il</title>
<path fill="none" stroke="#0000ff" d="M568.4703,-147.0688C573.7889,-138.0396 580.4436,-126.742 586.3832,-116.6585"/>
<polygon fill="#0000ff" stroke="#0000ff" points="589.5184,-118.232 591.5781,-107.8393 583.4869,-114.6793 589.5184,-118.232"/>
</g>
<!-- i_ret -->
<g id="node32" class="node">
<title>i_ret</title>
<ellipse fill="none" stroke="#000000" cx="558.4971" cy="-18" rx="27" ry="18"/>
<text text-anchor="middle" x="558.4971" y="-14.3" font-family="Times,serif" font-size="14.00" fill="#000000">I</text>
</g>
<!-- i_i&#45;&gt;i_ret -->
<g id="edge40" class="edge">
<title>i_i&#45;&gt;i_ret</title>
<path fill="none" stroke="#ff0000" d="M558.4971,-145.8042C558.4971,-120.8868 558.4971,-75.8938 558.4971,-46.4877"/>
<polygon fill="#ff0000" stroke="#ff0000" points="561.9972,-46.4251 558.4971,-36.4251 554.9972,-46.4251 561.9972,-46.4251"/>
</g>
<!-- il&#45;&gt;i_ret -->
<g id="edge41" class="edge">
<title>il&#45;&gt;i_ret</title>
<path fill="none" stroke="#0000ff" d="M591.524,-74.0688C586.2054,-65.0396 579.5506,-53.742 573.611,-43.6585"/>
<polygon fill="#0000ff" stroke="#0000ff" points="576.5073,-41.6793 568.4162,-34.8393 570.4759,-45.232 576.5073,-41.6793"/>
</g>
</g>
</svg>
