<?xml version="1.0" encoding="UTF-8" standalone="no"?>
<!DOCTYPE svg PUBLIC "-//W3C//DTD SVG 1.1//EN"
 "http://www.w3.org/Graphics/SVG/1.1/DTD/svg11.dtd">
<!-- Generated by graphviz version 2.43.0 (0)
 -->
<!-- Title: %3 Pages: 1 -->
<svg width="351pt" height="1285pt"
 viewBox="0.00 0.00 351.00 1284.59" xmlns="http://www.w3.org/2000/svg" xmlns:xlink="http://www.w3.org/1999/xlink">
<g id="graph0" class="graph" transform="scale(1 1) rotate(0) translate(4 1280.59)">
<title>%3</title>
<polygon fill="white" stroke="transparent" points="-4,4 -4,-1280.59 347,-1280.59 347,4 -4,4"/>
<!-- Root -->
<g id="node1" class="node">
<title>Root</title>
<ellipse fill="none" stroke="black" cx="203" cy="-1258.59" rx="32.49" ry="18"/>
<text text-anchor="middle" x="203" y="-1254.89" font-family="Times,serif" font-size="14.00">Root</text>
</g>
<!-- c1a -->
<g id="node2" class="node">
<title>c1a</title>
<ellipse fill="none" stroke="black" cx="60" cy="-1185.59" rx="27.1" ry="18"/>
<text text-anchor="middle" x="60" y="-1181.89" font-family="Times,serif" font-size="14.00">Cut</text>
</g>
<!-- Root&#45;&gt;c1a -->
<g id="edge1" class="edge">
<title>Root&#45;&gt;c1a</title>
<path fill="none" stroke="black" d="M179.71,-1246.02C155.46,-1233.99 117.37,-1215.07 90.68,-1201.82"/>
<polygon fill="black" stroke="black" points="91.93,-1198.53 81.41,-1197.22 88.81,-1204.8 91.93,-1198.53"/>
</g>
<!-- c1b -->
<g id="node3" class="node">
<title>c1b</title>
<ellipse fill="none" stroke="black" cx="203" cy="-1185.59" rx="27.1" ry="18"/>
<text text-anchor="middle" x="203" y="-1181.89" font-family="Times,serif" font-size="14.00">Cut</text>
</g>
<!-- Root&#45;&gt;c1b -->
<g id="edge2" class="edge">
<title>Root&#45;&gt;c1b</title>
<path fill="none" stroke="black" d="M203,-1240.4C203,-1232.38 203,-1222.64 203,-1213.66"/>
<polygon fill="black" stroke="black" points="206.5,-1213.62 203,-1203.62 199.5,-1213.62 206.5,-1213.62"/>
</g>
<!-- d1 -->
<g id="node6" class="node">
<title>d1</title>
<ellipse fill="none" stroke="black" cx="293" cy="-851.59" rx="29.8" ry="18"/>
<text text-anchor="middle" x="293" y="-847.89" font-family="Times,serif" font-size="14.00">Dup</text>
</g>
<!-- Root&#45;&gt;d1 -->
<g id="edge10" class="edge">
<title>Root&#45;&gt;d1</title>
<path fill="none" stroke="red" d="M232.53,-1251.06C263.58,-1242.24 308,-1223.23 308,-1186.59 308,-1186.59 308,-1186.59 308,-923.59 308,-908.68 304.79,-892.38 301.35,-879.16"/>
<polygon fill="red" stroke="red" points="304.65,-877.99 298.59,-869.31 297.91,-879.88 304.65,-877.99"/>
<text text-anchor="middle" x="325.5" y="-1051.39" font-family="Times,serif" font-size="14.00">0&#45;&gt;1</text>
</g>
<!-- c2b -->
<g id="node5" class="node">
<title>c2b</title>
<ellipse fill="none" stroke="black" cx="193" cy="-851.59" rx="27.1" ry="18"/>
<text text-anchor="middle" x="193" y="-847.89" font-family="Times,serif" font-size="14.00">Cut</text>
</g>
<!-- c1a&#45;&gt;c2b -->
<g id="edge4" class="edge">
<title>c1a&#45;&gt;c2b</title>
<path fill="none" stroke="black" d="M57.27,-1167.55C51.87,-1128.28 43.33,-1029.47 81,-960.59 101.61,-922.9 139.83,-890.36 165.83,-871.12"/>
<polygon fill="black" stroke="black" points="168.09,-873.81 174.14,-865.11 163.99,-868.14 168.09,-873.81"/>
</g>
<!-- d2a -->
<g id="node7" class="node">
<title>d2a</title>
<ellipse fill="none" stroke="black" cx="108" cy="-764.59" rx="29.8" ry="18"/>
<text text-anchor="middle" x="108" y="-760.89" font-family="Times,serif" font-size="14.00">Dup</text>
</g>
<!-- c1a&#45;&gt;d2a -->
<g id="edge17" class="edge">
<title>c1a&#45;&gt;d2a</title>
<path fill="none" stroke="blue" d="M42.65,-1171.3C24.93,-1156.09 0,-1129.39 0,-1099.59 0,-1099.59 0,-1099.59 0,-887.59 0,-840.4 45.86,-802.91 77.81,-782.51"/>
<polygon fill="blue" stroke="blue" points="79.73,-785.44 86.4,-777.22 76.05,-779.48 79.73,-785.44"/>
<text text-anchor="middle" x="5" y="-964.39" font-family="Times,serif" font-size="14.00">1</text>
</g>
<!-- fpa -->
<g id="node16" class="node">
<title>fpa</title>
<ellipse fill="none" stroke="black" cx="93" cy="-1098.59" rx="27" ry="18"/>
<text text-anchor="middle" x="93" y="-1094.89" font-family="Times,serif" font-size="14.00">!p</text>
</g>
<!-- c1a&#45;&gt;fpa -->
<g id="edge16" class="edge">
<title>c1a&#45;&gt;fpa</title>
<path fill="none" stroke="red" d="M66.52,-1167.8C71.18,-1155.8 77.53,-1139.44 82.84,-1125.75"/>
<polygon fill="red" stroke="red" points="86.14,-1126.94 86.49,-1116.35 79.61,-1124.4 86.14,-1126.94"/>
<text text-anchor="middle" x="84" y="-1138.39" font-family="Times,serif" font-size="14.00">0</text>
</g>
<!-- c1b&#45;&gt;c2b -->
<g id="edge5" class="edge">
<title>c1b&#45;&gt;c2b</title>
<path fill="none" stroke="black" d="M219.2,-1170.71C235.43,-1155.19 258,-1128.42 258,-1099.59 258,-1099.59 258,-1099.59 258,-923.59 258,-900.61 239.25,-881.83 221.89,-869.37"/>
<polygon fill="black" stroke="black" points="223.82,-866.45 213.57,-863.77 219.91,-872.26 223.82,-866.45"/>
</g>
<!-- d2b -->
<g id="node8" class="node">
<title>d2b</title>
<ellipse fill="none" stroke="black" cx="30" cy="-764.59" rx="29.8" ry="18"/>
<text text-anchor="middle" x="30" y="-760.89" font-family="Times,serif" font-size="14.00">Dup</text>
</g>
<!-- c1b&#45;&gt;d2b -->
<g id="edge19" class="edge">
<title>c1b&#45;&gt;d2b</title>
<path fill="none" stroke="blue" d="M194.38,-1168.4C187.06,-1154.63 176.3,-1134.34 167,-1116.59 111.23,-1010.14 95.7,-983.36 57,-869.59 48.26,-843.91 40.74,-813.84 35.87,-792.66"/>
<polygon fill="blue" stroke="blue" points="39.25,-791.74 33.64,-782.75 32.42,-793.27 39.25,-791.74"/>
<text text-anchor="middle" x="102" y="-964.39" font-family="Times,serif" font-size="14.00">1</text>
</g>
<!-- fpb -->
<g id="node17" class="node">
<title>fpb</title>
<ellipse fill="none" stroke="black" cx="203" cy="-1098.59" rx="27" ry="18"/>
<text text-anchor="middle" x="203" y="-1094.89" font-family="Times,serif" font-size="14.00">!p</text>
</g>
<!-- c1b&#45;&gt;fpb -->
<g id="edge18" class="edge">
<title>c1b&#45;&gt;fpb</title>
<path fill="none" stroke="red" d="M203,-1167.39C203,-1155.75 203,-1140.14 203,-1126.83"/>
<polygon fill="red" stroke="red" points="206.5,-1126.76 203,-1116.76 199.5,-1126.76 206.5,-1126.76"/>
<text text-anchor="middle" x="208" y="-1138.39" font-family="Times,serif" font-size="14.00">0</text>
</g>
<!-- fa -->
<g id="node4" class="node">
<title>fa</title>
<ellipse fill="none" stroke="black" cx="193" cy="-924.59" rx="27" ry="18"/>
<text text-anchor="middle" x="193" y="-920.89" font-family="Times,serif" font-size="14.00">PiR</text>
</g>
<!-- fa&#45;&gt;c2b -->
<g id="edge3" class="edge">
<title>fa&#45;&gt;c2b</title>
<path fill="none" stroke="black" d="M193,-906.4C193,-898.38 193,-888.64 193,-879.66"/>
<polygon fill="black" stroke="black" points="196.5,-879.62 193,-869.62 189.5,-879.62 196.5,-879.62"/>
</g>
<!-- fa&#45;&gt;d1 -->
<g id="edge24" class="edge">
<title>fa&#45;&gt;d1</title>
<path fill="none" stroke="red" d="M210.88,-910.9C226.65,-899.7 249.81,-883.25 267.52,-870.68"/>
<ellipse fill="none" stroke="red" cx="271" cy="-868.21" rx="4" ry="4"/>
</g>
<!-- hi_retpc1 -->
<g id="node15" class="node">
<title>hi_retpc1</title>
<ellipse fill="none" stroke="black" cx="93" cy="-851.59" rx="27" ry="18"/>
<text text-anchor="middle" x="93" y="-847.89" font-family="Times,serif" font-size="14.00">!c</text>
</g>
<!-- fa&#45;&gt;hi_retpc1 -->
<g id="edge23" class="edge">
<title>fa&#45;&gt;hi_retpc1</title>
<path fill="none" stroke="blue" d="M175.12,-910.9C159.48,-899.79 136.56,-883.52 118.91,-870.99"/>
<polygon fill="blue" stroke="blue" points="120.9,-868.11 110.72,-865.17 116.85,-873.82 120.9,-868.11"/>
</g>
<!-- d3 -->
<g id="node9" class="node">
<title>d3</title>
<ellipse fill="none" stroke="black" cx="237" cy="-553.69" rx="29.81" ry="29.81"/>
<ellipse fill="none" stroke="black" cx="237" cy="-553.69" rx="33.8" ry="33.8"/>
<text text-anchor="middle" x="237" y="-549.99" font-family="Times,serif" font-size="14.00">Dup</text>
</g>
<!-- c2b&#45;&gt;d3 -->
<g id="edge25" class="edge">
<title>c2b&#45;&gt;d3</title>
<path fill="none" stroke="red" d="M200.78,-834.24C206.83,-820.71 214.88,-800.84 219,-782.59 233.23,-719.56 236.64,-644.52 237.24,-598.24"/>
<polygon fill="red" stroke="red" points="240.74,-598 237.33,-587.97 233.74,-597.94 240.74,-598"/>
<text text-anchor="middle" x="236" y="-717.39" font-family="Times,serif" font-size="14.00">2</text>
</g>
<!-- x2i_o2 -->
<g id="node19" class="node">
<title>x2i_o2</title>
<ellipse fill="none" stroke="black" cx="183" cy="-764.59" rx="27" ry="18"/>
<text text-anchor="middle" x="183" y="-760.89" font-family="Times,serif" font-size="14.00">PiL</text>
</g>
<!-- c2b&#45;&gt;x2i_o2 -->
<g id="edge26" class="edge">
<title>c2b&#45;&gt;x2i_o2</title>
<path fill="none" stroke="blue" d="M190.98,-833.39C189.61,-821.75 187.77,-806.14 186.2,-792.83"/>
<polygon fill="blue" stroke="blue" points="189.67,-792.29 185.02,-782.76 182.71,-793.11 189.67,-792.29"/>
<text text-anchor="middle" x="194" y="-804.39" font-family="Times,serif" font-size="14.00">1</text>
</g>
<!-- d1&#45;&gt;d2a -->
<g id="edge6" class="edge">
<title>d1&#45;&gt;d2a</title>
<path fill="none" stroke="black" stroke-dasharray="5,2" d="M265.79,-844.06C243.26,-838.13 210.71,-828.37 184,-815.59 162.77,-805.43 140.51,-790.16 125.61,-779.17"/>
</g>
<!-- d1&#45;&gt;d2b -->
<g id="edge7" class="edge">
<title>d1&#45;&gt;d2b</title>
<path fill="none" stroke="black" stroke-dasharray="5,2" d="M273.51,-837.74C254.9,-826.12 225.68,-809.5 198,-800.59 142.9,-782.84 124.72,-798.3 69,-782.59 63.6,-781.07 57.97,-778.95 52.72,-776.72"/>
</g>
<!-- f_ret -->
<g id="node12" class="node">
<title>f_ret</title>
<ellipse fill="none" stroke="black" cx="293" cy="-677.59" rx="27" ry="18"/>
<text text-anchor="middle" x="293" y="-673.89" font-family="Times,serif" font-size="14.00">I</text>
</g>
<!-- d1&#45;&gt;f_ret -->
<g id="edge11" class="edge">
<title>d1&#45;&gt;f_ret</title>
<path fill="none" stroke="red" d="M293,-833.47C293,-803.59 293,-741.7 293,-705.86"/>
<polygon fill="red" stroke="red" points="296.5,-705.64 293,-695.64 289.5,-705.64 296.5,-705.64"/>
</g>
<!-- hi_retpa -->
<g id="node13" class="node">
<title>hi_retpa</title>
<ellipse fill="none" stroke="black" cx="170" cy="-677.59" rx="27" ry="18"/>
<text text-anchor="middle" x="170" y="-673.89" font-family="Times,serif" font-size="14.00">!p</text>
</g>
<!-- d2a&#45;&gt;hi_retpa -->
<g id="edge12" class="edge">
<title>d2a&#45;&gt;hi_retpa</title>
<path fill="none" stroke="blue" d="M119.66,-747.6C128.9,-734.94 141.95,-717.04 152.45,-702.65"/>
<polygon fill="blue" stroke="blue" points="155.53,-704.36 158.6,-694.22 149.88,-700.23 155.53,-704.36"/>
<text text-anchor="middle" x="148" y="-717.39" font-family="Times,serif" font-size="14.00">1</text>
</g>
<!-- h_dib -->
<g id="node14" class="node">
<title>h_dib</title>
<ellipse fill="none" stroke="black" cx="69" cy="-623.59" rx="27" ry="18"/>
<text text-anchor="middle" x="69" y="-619.89" font-family="Times,serif" font-size="14.00">!d</text>
</g>
<!-- d2b&#45;&gt;h_dib -->
<g id="edge13" class="edge">
<title>d2b&#45;&gt;h_dib</title>
<path fill="none" stroke="blue" d="M34.78,-746.55C41.46,-722.76 53.63,-679.38 61.51,-651.29"/>
<polygon fill="blue" stroke="blue" points="64.97,-651.91 64.3,-641.34 58.23,-650.02 64.97,-651.91"/>
<text text-anchor="middle" x="49" y="-717.39" font-family="Times,serif" font-size="14.00">1</text>
</g>
<!-- d4a -->
<g id="node10" class="node">
<title>d4a</title>
<ellipse fill="none" stroke="black" cx="73" cy="-361.9" rx="29.8" ry="18"/>
<text text-anchor="middle" x="73" y="-358.2" font-family="Times,serif" font-size="14.00">Dup</text>
</g>
<!-- d3&#45;&gt;d4a -->
<g id="edge8" class="edge">
<title>d3&#45;&gt;d4a</title>
<path fill="none" stroke="black" stroke-dasharray="5,2" d="M211.58,-531.01C206.01,-526.92 199.99,-522.94 194,-519.79 129.05,-485.68 80.13,-528.15 37,-468.79 16.57,-440.68 42.31,-400.11 59.64,-378.24"/>
</g>
<!-- hi_ret -->
<g id="node21" class="node">
<title>hi_ret</title>
<ellipse fill="none" stroke="black" cx="214" cy="-255" rx="18" ry="18"/>
<ellipse fill="none" stroke="black" cx="214" cy="-255" rx="22" ry="22"/>
<text text-anchor="middle" x="214" y="-251.3" font-family="Times,serif" font-size="14.00">I</text>
</g>
<!-- d3&#45;&gt;hi_ret -->
<g id="edge31" class="edge">
<title>d3&#45;&gt;hi_ret</title>
<path fill="none" stroke="red" d="M234.45,-519.81C229.98,-462.12 220.78,-343.47 216.41,-287.08"/>
<polygon fill="red" stroke="red" points="219.89,-286.69 215.63,-276.99 212.91,-287.23 219.89,-286.69"/>
</g>
<!-- d4b -->
<g id="node11" class="node">
<title>d4b</title>
<ellipse fill="none" stroke="black" cx="172" cy="-361.9" rx="29.81" ry="29.81"/>
<ellipse fill="none" stroke="black" cx="172" cy="-361.9" rx="33.8" ry="33.8"/>
<text text-anchor="middle" x="172" y="-358.2" font-family="Times,serif" font-size="14.00">Dup</text>
</g>
<!-- d4a&#45;&gt;d4b -->
<g id="edge9" class="edge">
<title>d4a&#45;&gt;d4b</title>
<path fill="none" stroke="black" stroke-dasharray="5,2" d="M103.16,-361.9C114.73,-361.9 126.29,-361.9 137.85,-361.9"/>
</g>
<!-- i -->
<g id="node22" class="node">
<title>i</title>
<ellipse fill="none" stroke="black" cx="73" cy="-255" rx="27" ry="18"/>
<text text-anchor="middle" x="73" y="-251.3" font-family="Times,serif" font-size="14.00">!p</text>
</g>
<!-- d4a&#45;&gt;i -->
<g id="edge32" class="edge">
<title>d4a&#45;&gt;i</title>
<path fill="none" stroke="red" d="M73,-343.58C73,-327.25 73,-302.53 73,-283.51"/>
<polygon fill="red" stroke="red" points="76.5,-283.35 73,-273.35 69.5,-283.35 76.5,-283.35"/>
<text text-anchor="middle" x="78" y="-298.8" font-family="Times,serif" font-size="14.00">2</text>
</g>
<!-- d4b&#45;&gt;hi_ret -->
<g id="edge33" class="edge">
<title>d4b&#45;&gt;hi_ret</title>
<path fill="none" stroke="blue" d="M184.26,-330.27C189.95,-316.07 196.68,-299.26 202.3,-285.22"/>
<polygon fill="blue" stroke="blue" points="205.69,-286.16 206.16,-275.57 199.2,-283.56 205.69,-286.16"/>
</g>
<!-- hi_retpa&#45;&gt;d3 -->
<g id="edge29" class="edge">
<title>hi_retpa&#45;&gt;d3</title>
<path fill="none" stroke="red" d="M178.9,-660.4C188.53,-642.87 204.22,-614.33 216.87,-591.32"/>
<ellipse fill="none" stroke="red" cx="218.93" cy="-587.57" rx="4" ry="4"/>
<text text-anchor="middle" x="213" y="-619.89" font-family="Times,serif" font-size="14.00">2</text>
</g>
<!-- h_dia -->
<g id="node20" class="node">
<title>h_dia</title>
<ellipse fill="none" stroke="black" cx="158" cy="-553.69" rx="27" ry="18"/>
<text text-anchor="middle" x="158" y="-549.99" font-family="Times,serif" font-size="14.00">!d</text>
</g>
<!-- hi_retpa&#45;&gt;h_dia -->
<g id="edge30" class="edge">
<title>hi_retpa&#45;&gt;h_dia</title>
<path fill="none" stroke="blue" d="M168.31,-659.38C166.27,-638.69 162.83,-603.79 160.49,-580.02"/>
<ellipse fill="none" stroke="blue" cx="160.08" cy="-575.79" rx="4" ry="4"/>
<text text-anchor="middle" x="172" y="-619.89" font-family="Times,serif" font-size="14.00">1</text>
</g>
<!-- hb -->
<g id="node24" class="node">
<title>hb</title>
<ellipse fill="none" stroke="black" cx="73" cy="-450.79" rx="27" ry="18"/>
<text text-anchor="middle" x="73" y="-447.09" font-family="Times,serif" font-size="14.00">PiL</text>
</g>
<!-- h_dib&#45;&gt;hb -->
<g id="edge35" class="edge">
<title>h_dib&#45;&gt;hb</title>
<path fill="none" stroke="blue" d="M69.4,-605.59C70.09,-576 71.52,-514.78 72.36,-479.15"/>
<polygon fill="blue" stroke="blue" points="75.86,-479.06 72.6,-468.98 68.86,-478.9 75.86,-479.06"/>
<text text-anchor="middle" x="77" y="-549.99" font-family="Times,serif" font-size="14.00">2</text>
</g>
<!-- hi_retpc1&#45;&gt;d2a -->
<g id="edge14" class="edge">
<title>hi_retpc1&#45;&gt;d2a</title>
<path fill="none" stroke="blue" d="M104.78,-835.05C108.49,-829.25 112.11,-822.42 114,-815.59 116.22,-807.59 115.96,-798.64 114.77,-790.55"/>
<ellipse fill="none" stroke="blue" cx="113.99" cy="-786.43" rx="4" ry="4"/>
</g>
<!-- hi_retpc1&#45;&gt;d2b -->
<g id="edge15" class="edge">
<title>hi_retpc1&#45;&gt;d2b</title>
<path fill="none" stroke="blue" d="M81.6,-835.26C77.06,-829.14 71.78,-822.03 67,-815.59 60.3,-806.55 52.93,-796.59 46.54,-787.96"/>
<ellipse fill="none" stroke="blue" cx="44.04" cy="-784.57" rx="4" ry="4"/>
</g>
<!-- d5 -->
<g id="node18" class="node">
<title>d5</title>
<ellipse fill="none" stroke="black" cx="193" cy="-1011.59" rx="29.8" ry="18"/>
<text text-anchor="middle" x="193" y="-1007.89" font-family="Times,serif" font-size="14.00">Dup</text>
</g>
<!-- fpa&#45;&gt;d5 -->
<g id="edge20" class="edge">
<title>fpa&#45;&gt;d5</title>
<path fill="none" stroke="red" d="M109.07,-1083.93C125.13,-1070.28 150.04,-1049.11 168.56,-1033.37"/>
<polygon fill="red" stroke="red" points="170.95,-1035.92 176.31,-1026.78 166.42,-1030.59 170.95,-1035.92"/>
<text text-anchor="middle" x="154" y="-1051.39" font-family="Times,serif" font-size="14.00">1</text>
</g>
<!-- fpb&#45;&gt;d5 -->
<g id="edge21" class="edge">
<title>fpb&#45;&gt;d5</title>
<path fill="none" stroke="red" d="M200.98,-1080.39C199.61,-1068.75 197.77,-1053.14 196.2,-1039.83"/>
<polygon fill="red" stroke="red" points="199.67,-1039.29 195.02,-1029.76 192.71,-1040.11 199.67,-1039.29"/>
<text text-anchor="middle" x="204" y="-1051.39" font-family="Times,serif" font-size="14.00">1</text>
</g>
<!-- d5&#45;&gt;fa -->
<g id="edge22" class="edge">
<title>d5&#45;&gt;fa</title>
<path fill="none" stroke="red" d="M193,-993.39C193,-981.75 193,-966.14 193,-952.83"/>
<polygon fill="red" stroke="red" points="196.5,-952.76 193,-942.76 189.5,-952.76 196.5,-952.76"/>
</g>
<!-- x2i_o2&#45;&gt;f_ret -->
<g id="edge28" class="edge">
<title>x2i_o2&#45;&gt;f_ret</title>
<path fill="none" stroke="blue" d="M205.83,-754.86C219.99,-748.79 238.07,-739.78 252,-728.59 261.15,-721.24 269.67,-711.55 276.54,-702.66"/>
<polygon fill="blue" stroke="blue" points="279.46,-704.6 282.6,-694.48 273.83,-700.44 279.46,-704.6"/>
</g>
<!-- x2i_o2&#45;&gt;hi_retpa -->
<g id="edge27" class="edge">
<title>x2i_o2&#45;&gt;hi_retpa</title>
<path fill="none" stroke="red" d="M180.37,-746.39C178.59,-734.75 176.2,-719.14 174.17,-705.83"/>
<polygon fill="red" stroke="red" points="177.6,-705.12 172.63,-695.76 170.68,-706.18 177.6,-705.12"/>
<text text-anchor="middle" x="183" y="-717.39" font-family="Times,serif" font-size="14.00">1</text>
</g>
<!-- ha -->
<g id="node23" class="node">
<title>ha</title>
<ellipse fill="none" stroke="black" cx="158" cy="-450.79" rx="27" ry="18"/>
<text text-anchor="middle" x="158" y="-447.09" font-family="Times,serif" font-size="14.00">PiL</text>
</g>
<!-- h_dia&#45;&gt;ha -->
<g id="edge34" class="edge">
<title>h_dia&#45;&gt;ha</title>
<path fill="none" stroke="blue" d="M158,-535.58C158,-520.14 158,-497.16 158,-479.18"/>
<polygon fill="blue" stroke="blue" points="161.5,-478.99 158,-468.99 154.5,-478.99 161.5,-478.99"/>
<text text-anchor="middle" x="163" y="-490.59" font-family="Times,serif" font-size="14.00">2</text>
</g>
<!-- i_i -->
<g id="node25" class="node">
<title>i_i</title>
<ellipse fill="none" stroke="black" cx="73" cy="-164" rx="27" ry="18"/>
<text text-anchor="middle" x="73" y="-160.3" font-family="Times,serif" font-size="14.00">PiR</text>
</g>
<!-- i&#45;&gt;i_i -->
<g id="edge36" class="edge">
<title>i&#45;&gt;i_i</title>
<path fill="none" stroke="red" d="M73,-236.84C73,-224.28 73,-206.98 73,-192.5"/>
<polygon fill="red" stroke="red" points="76.5,-192.11 73,-182.11 69.5,-192.11 76.5,-192.11"/>
<text text-anchor="middle" x="78" y="-203.8" font-family="Times,serif" font-size="14.00">3</text>
</g>
<!-- ha&#45;&gt;d4a -->
<g id="edge40" class="edge">
<title>ha&#45;&gt;d4a</title>
<path fill="none" stroke="red" d="M143.58,-435.05C129.78,-420.95 108.84,-399.53 93.34,-383.69"/>
<ellipse fill="none" stroke="red" cx="90.29" cy="-380.57" rx="4" ry="4"/>
</g>
<!-- ha&#45;&gt;d4b -->
<g id="edge41" class="edge">
<title>ha&#45;&gt;d4b</title>
<path fill="none" stroke="blue" d="M160.77,-432.63C162.11,-424.27 163.79,-413.85 165.44,-403.62"/>
<ellipse fill="none" stroke="blue" cx="166.11" cy="-399.46" rx="4" ry="4"/>
</g>
<!-- hb&#45;&gt;d4a -->
<g id="edge42" class="edge">
<title>hb&#45;&gt;d4a</title>
<path fill="none" stroke="red" d="M73,-432.63C73,-420.49 73,-403.96 73,-390.05"/>
<polygon fill="red" stroke="red" points="76.5,-390.03 73,-380.03 69.5,-390.03 76.5,-390.03"/>
</g>
<!-- hb&#45;&gt;d4b -->
<g id="edge43" class="edge">
<title>hb&#45;&gt;d4b</title>
<path fill="none" stroke="blue" d="M88.91,-435.83C102.46,-423.93 122.38,-406.45 139.32,-391.58"/>
<polygon fill="blue" stroke="blue" points="141.65,-394.19 146.86,-384.96 137.04,-388.93 141.65,-394.19"/>
</g>
<!-- il -->
<g id="node26" class="node">
<title>il</title>
<ellipse fill="none" stroke="black" cx="116" cy="-91" rx="27" ry="18"/>
<text text-anchor="middle" x="116" y="-87.3" font-family="Times,serif" font-size="14.00">!d</text>
</g>
<!-- i_i&#45;&gt;il -->
<g id="edge37" class="edge">
<title>i_i&#45;&gt;il</title>
<path fill="none" stroke="blue" d="M82.76,-146.89C88.15,-137.99 94.95,-126.75 101,-116.77"/>
<polygon fill="blue" stroke="blue" points="104.09,-118.41 106.28,-108.05 98.11,-114.79 104.09,-118.41"/>
</g>
<!-- i_ret -->
<g id="node27" class="node">
<title>i_ret</title>
<ellipse fill="none" stroke="black" cx="73" cy="-18" rx="27" ry="18"/>
<text text-anchor="middle" x="73" y="-14.3" font-family="Times,serif" font-size="14.00">I</text>
</g>
<!-- i_i&#45;&gt;i_ret -->
<g id="edge38" class="edge">
<title>i_i&#45;&gt;i_ret</title>
<path fill="none" stroke="red" d="M73,-145.92C73,-121.34 73,-75.75 73,-46.43"/>
<polygon fill="red" stroke="red" points="76.5,-46.06 73,-36.06 69.5,-46.06 76.5,-46.06"/>
</g>
<!-- il&#45;&gt;i_ret -->
<g id="edge39" class="edge">
<title>il&#45;&gt;i_ret</title>
<path fill="none" stroke="blue" d="M106.24,-73.89C100.85,-64.99 94.05,-53.75 88,-43.77"/>
<polygon fill="blue" stroke="blue" points="90.89,-41.79 82.72,-35.05 84.91,-45.41 90.89,-41.79"/>
</g>
</g>
</svg>
