<?xml version="1.0" encoding="UTF-8" standalone="no"?>
<!DOCTYPE svg PUBLIC "-//W3C//DTD SVG 1.1//EN"
 "http://www.w3.org/Graphics/SVG/1.1/DTD/svg11.dtd">
<!-- Generated by graphviz version 2.40.1 (20161225.0304)
 -->
<!-- Title: %3 Pages: 1 -->
<svg width="351pt" height="1220pt"
 viewBox="0.00 0.00 350.90 1219.90" xmlns="http://www.w3.org/2000/svg" xmlns:xlink="http://www.w3.org/1999/xlink">
<g id="graph0" class="graph" transform="scale(1 1) rotate(0) translate(4 1215.895)">
<title>%3</title>
<polygon fill="#ffffff" stroke="transparent" points="-4,4 -4,-1215.895 346.8973,-1215.895 346.8973,4 -4,4"/>
<!-- Root -->
<g id="node1" class="node">
<title>Root</title>
<ellipse fill="none" stroke="#000000" cx="214.8973" cy="-1193.895" rx="32.4942" ry="18"/>
<text text-anchor="middle" x="214.8973" y="-1190.195" font-family="Times,serif" font-size="14.00" fill="#000000">Root</text>
</g>
<!-- c1a -->
<g id="node2" class="node">
<title>c1a</title>
<ellipse fill="none" stroke="#000000" cx="71.8973" cy="-1120.895" rx="27.8951" ry="18"/>
<text text-anchor="middle" x="71.8973" y="-1117.195" font-family="Times,serif" font-size="14.00" fill="#000000">Cut</text>
</g>
<!-- Root&#45;&gt;c1a -->
<g id="edge1" class="edge">
<title>Root&#45;&gt;c1a</title>
<path fill="none" stroke="#000000" d="M190.9624,-1181.6765C166.886,-1169.3858 129.6409,-1150.3725 103.2255,-1136.8877"/>
<polygon fill="#000000" stroke="#000000" points="104.5259,-1133.6219 94.0279,-1132.1925 101.3431,-1139.8565 104.5259,-1133.6219"/>
</g>
<!-- c1b -->
<g id="node3" class="node">
<title>c1b</title>
<ellipse fill="none" stroke="#000000" cx="214.8973" cy="-1120.895" rx="27.8951" ry="18"/>
<text text-anchor="middle" x="214.8973" y="-1117.195" font-family="Times,serif" font-size="14.00" fill="#000000">Cut</text>
</g>
<!-- Root&#45;&gt;c1b -->
<g id="edge2" class="edge">
<title>Root&#45;&gt;c1b</title>
<path fill="none" stroke="#000000" d="M214.8973,-1175.8501C214.8973,-1167.7779 214.8973,-1158.0714 214.8973,-1149.0768"/>
<polygon fill="#000000" stroke="#000000" points="218.3974,-1148.9854 214.8973,-1138.9854 211.3974,-1148.9854 218.3974,-1148.9854"/>
</g>
<!-- d1 -->
<g id="node6" class="node">
<title>d1</title>
<ellipse fill="none" stroke="#000000" cx="246.8973" cy="-772.9475" rx="29.795" ry="18"/>
<text text-anchor="middle" x="246.8973" y="-769.2475" font-family="Times,serif" font-size="14.00" fill="#000000">Dup</text>
</g>
<!-- Root&#45;&gt;d1 -->
<g id="edge8" class="edge">
<title>Root&#45;&gt;d1</title>
<path fill="none" stroke="#ff0000" d="M243.3057,-1185.0457C270.6553,-1174.5473 307.8973,-1154.1468 307.8973,-1120.895 307.8973,-1120.895 307.8973,-1120.895 307.8973,-903.395 307.8973,-863.3633 284.0331,-822.3759 266.1576,-797.2894"/>
<polygon fill="#ff0000" stroke="#ff0000" points="268.8807,-795.0847 260.1334,-789.1067 263.2436,-799.2348 268.8807,-795.0847"/>
<text text-anchor="middle" x="325.3973" y="-986.695" font-family="Times,serif" font-size="14.00" fill="#000000">0&#45;&gt;1</text>
</g>
<!-- c2b -->
<g id="node5" class="node">
<title>c2b</title>
<ellipse fill="none" stroke="#000000" cx="94.8973" cy="-772.9475" rx="27.9017" ry="27.9017"/>
<ellipse fill="none" stroke="#000000" cx="94.8973" cy="-772.9475" rx="31.8951" ry="31.8951"/>
<text text-anchor="middle" x="94.8973" y="-769.2475" font-family="Times,serif" font-size="14.00" fill="#000000">Cut</text>
</g>
<!-- c1a&#45;&gt;c2b -->
<g id="edge4" class="edge">
<title>c1a&#45;&gt;c2b</title>
<path fill="none" stroke="#000000" d="M64.6937,-1103.23C58.2776,-1085.8816 49.8973,-1058.5108 49.8973,-1033.895 49.8973,-1033.895 49.8973,-1033.895 49.8973,-859.895 49.8973,-840.7137 58.6421,-821.5473 68.4218,-806.1102"/>
<polygon fill="#000000" stroke="#000000" points="71.5522,-807.728 74.2412,-797.48 65.7484,-803.8144 71.5522,-807.728"/>
</g>
<!-- d2a -->
<g id="node7" class="node">
<title>d2a</title>
<ellipse fill="none" stroke="#000000" cx="29.8973" cy="-672" rx="29.795" ry="18"/>
<text text-anchor="middle" x="29.8973" y="-668.3" font-family="Times,serif" font-size="14.00" fill="#000000">Dup</text>
</g>
<!-- c1a&#45;&gt;d2a -->
<g id="edge15" class="edge">
<title>c1a&#45;&gt;d2a</title>
<path fill="none" stroke="#0000ff" d="M54.2199,-1106.9213C36.5214,-1091.2274 11.8973,-1063.9855 11.8973,-1033.895 11.8973,-1033.895 11.8973,-1033.895 11.8973,-772.9475 11.8973,-747.9343 17.3198,-719.9685 22.2123,-699.8263"/>
<polygon fill="#0000ff" stroke="#0000ff" points="25.6225,-700.6173 24.691,-690.0635 18.8377,-698.8947 25.6225,-700.6173"/>
<text text-anchor="middle" x="16.8973" y="-899.695" font-family="Times,serif" font-size="14.00" fill="#000000">1</text>
</g>
<!-- fpa -->
<g id="node13" class="node">
<title>fpa</title>
<ellipse fill="none" stroke="#000000" cx="104.8973" cy="-1033.895" rx="27" ry="18"/>
<text text-anchor="middle" x="104.8973" y="-1030.195" font-family="Times,serif" font-size="14.00" fill="#000000">!p</text>
</g>
<!-- c1a&#45;&gt;fpa -->
<g id="edge14" class="edge">
<title>c1a&#45;&gt;fpa</title>
<path fill="none" stroke="#ff0000" d="M78.5754,-1103.2893C83.1825,-1091.1433 89.3959,-1074.7625 94.629,-1060.9662"/>
<polygon fill="#ff0000" stroke="#ff0000" points="97.9551,-1062.0659 98.2292,-1051.4746 91.4101,-1059.5833 97.9551,-1062.0659"/>
<text text-anchor="middle" x="95.8973" y="-1073.695" font-family="Times,serif" font-size="14.00" fill="#000000">0</text>
</g>
<!-- c1b&#45;&gt;c2b -->
<g id="edge5" class="edge">
<title>c1b&#45;&gt;c2b</title>
<path fill="none" stroke="#000000" d="M204.9496,-1104.025C197.1461,-1090.3111 186.3878,-1070.2905 178.8973,-1051.895 145.4092,-969.6534 118.345,-869.013 104.6448,-813.8939"/>
<polygon fill="#000000" stroke="#000000" points="108.034,-813.019 102.2436,-804.1464 101.2371,-814.6934 108.034,-813.019"/>
</g>
<!-- d2b -->
<g id="node8" class="node">
<title>d2b</title>
<ellipse fill="none" stroke="#000000" cx="296.8973" cy="-672" rx="29.795" ry="18"/>
<text text-anchor="middle" x="296.8973" y="-668.3" font-family="Times,serif" font-size="14.00" fill="#000000">Dup</text>
</g>
<!-- c1b&#45;&gt;d2b -->
<g id="edge17" class="edge">
<title>c1b&#45;&gt;d2b</title>
<path fill="none" stroke="#0000ff" d="M231.3992,-1106.3241C247.5998,-1090.3283 269.8973,-1063.022 269.8973,-1033.895 269.8973,-1033.895 269.8973,-1033.895 269.8973,-903.395 269.8973,-859.0435 280.5084,-848.918 285.8973,-804.895 290.2981,-768.9448 293.4282,-727.3029 295.1972,-700.3518"/>
<polygon fill="#0000ff" stroke="#0000ff" points="298.7072,-700.3044 295.8506,-690.102 291.7214,-699.859 298.7072,-700.3044"/>
<text text-anchor="middle" x="274.8973" y="-899.695" font-family="Times,serif" font-size="14.00" fill="#000000">1</text>
</g>
<!-- fpb -->
<g id="node14" class="node">
<title>fpb</title>
<ellipse fill="none" stroke="#000000" cx="214.8973" cy="-1033.895" rx="27" ry="18"/>
<text text-anchor="middle" x="214.8973" y="-1030.195" font-family="Times,serif" font-size="14.00" fill="#000000">!p</text>
</g>
<!-- c1b&#45;&gt;fpb -->
<g id="edge16" class="edge">
<title>c1b&#45;&gt;fpb</title>
<path fill="none" stroke="#ff0000" d="M214.8973,-1102.8686C214.8973,-1091.0868 214.8973,-1075.4557 214.8973,-1062.0531"/>
<polygon fill="#ff0000" stroke="#ff0000" points="218.3974,-1061.8984 214.8973,-1051.8984 211.3974,-1061.8984 218.3974,-1061.8984"/>
<text text-anchor="middle" x="219.8973" y="-1073.695" font-family="Times,serif" font-size="14.00" fill="#000000">0</text>
</g>
<!-- fa -->
<g id="node4" class="node">
<title>fa</title>
<ellipse fill="none" stroke="#000000" cx="207.8973" cy="-859.895" rx="27" ry="18"/>
<text text-anchor="middle" x="207.8973" y="-856.195" font-family="Times,serif" font-size="14.00" fill="#000000">PiR</text>
</g>
<!-- fa&#45;&gt;c2b -->
<g id="edge3" class="edge">
<title>fa&#45;&gt;c2b</title>
<path fill="none" stroke="#000000" d="M192.1173,-844.7702C184.4737,-837.7686 174.9971,-829.548 165.8973,-822.895 153.3451,-813.7179 148.7203,-813.6899 135.8973,-804.895 133.4555,-803.2203 130.9661,-801.45 128.4814,-799.6362"/>
<polygon fill="#000000" stroke="#000000" points="130.2292,-796.5723 120.1276,-793.3772 126.0319,-802.1744 130.2292,-796.5723"/>
</g>
<!-- fa&#45;&gt;d1 -->
<g id="edge22" class="edge">
<title>fa&#45;&gt;d1</title>
<path fill="none" stroke="#ff0000" d="M215.7896,-842.2999C221.4987,-829.5719 229.2949,-812.1909 235.6541,-798.0134"/>
<ellipse fill="none" stroke="#ff0000" cx="237.3798" cy="-794.1662" rx="4" ry="4"/>
</g>
<!-- hi_retpc1 -->
<g id="node12" class="node">
<title>hi_retpc1</title>
<ellipse fill="none" stroke="#000000" cx="171.8973" cy="-772.9475" rx="27" ry="18"/>
<text text-anchor="middle" x="171.8973" y="-769.2475" font-family="Times,serif" font-size="14.00" fill="#000000">!c</text>
</g>
<!-- fa&#45;&gt;hi_retpc1 -->
<g id="edge21" class="edge">
<title>fa&#45;&gt;hi_retpc1</title>
<path fill="none" stroke="#0000ff" d="M200.7715,-842.1852C198.2956,-836.0674 195.4898,-829.1737 192.8973,-822.895 189.802,-815.3986 186.4097,-807.2861 183.2714,-799.8229"/>
<polygon fill="#0000ff" stroke="#0000ff" points="186.4479,-798.3477 179.3387,-790.4922 179.9975,-801.0666 186.4479,-798.3477"/>
</g>
<!-- hi_retb -->
<g id="node16" class="node">
<title>hi_retb</title>
<ellipse fill="none" stroke="#000000" cx="177.8973" cy="-411" rx="27" ry="18"/>
<text text-anchor="middle" x="177.8973" y="-407.3" font-family="Times,serif" font-size="14.00" fill="#000000">I</text>
</g>
<!-- c2b&#45;&gt;hi_retb -->
<g id="edge23" class="edge">
<title>c2b&#45;&gt;hi_retb</title>
<path fill="none" stroke="#ff0000" d="M120.7081,-754.0099C142.4029,-735.7096 169.8973,-705.8415 169.8973,-672 169.8973,-672 169.8973,-672 169.8973,-498 169.8973,-478.341 171.948,-456.2878 173.9728,-439.3038"/>
<polygon fill="#ff0000" stroke="#ff0000" points="177.4996,-439.3103 175.2778,-428.9511 170.5545,-438.4348 177.4996,-439.3103"/>
<text text-anchor="middle" x="174.8973" y="-581.3" font-family="Times,serif" font-size="14.00" fill="#000000">2</text>
</g>
<!-- x2i_o2 -->
<g id="node17" class="node">
<title>x2i_o2</title>
<ellipse fill="none" stroke="#000000" cx="104.8973" cy="-672" rx="27" ry="18"/>
<text text-anchor="middle" x="104.8973" y="-668.3" font-family="Times,serif" font-size="14.00" fill="#000000">PiL</text>
</g>
<!-- c2b&#45;&gt;x2i_o2 -->
<g id="edge24" class="edge">
<title>c2b&#45;&gt;x2i_o2</title>
<path fill="none" stroke="#0000ff" d="M98.0614,-741.0071C99.3578,-727.9202 100.8454,-712.9031 102.1012,-700.2265"/>
<polygon fill="#0000ff" stroke="#0000ff" points="105.5893,-700.5187 103.0922,-690.2224 98.6234,-699.8286 105.5893,-700.5187"/>
<text text-anchor="middle" x="106.8973" y="-711.8" font-family="Times,serif" font-size="14.00" fill="#000000">1</text>
</g>
<!-- d1&#45;&gt;d2a -->
<g id="edge6" class="edge">
<title>d1&#45;&gt;d2a</title>
<path fill="none" stroke="#000000" stroke-dasharray="5,2" d="M230.717,-757.6357C224.0245,-751.87 215.9534,-745.6018 207.8973,-741 150.7576,-708.3607 129.7098,-715.1418 68.8973,-690 63.9355,-687.9486 58.6797,-685.6273 53.6879,-683.3502"/>
</g>
<!-- d1&#45;&gt;d2b -->
<g id="edge7" class="edge">
<title>d1&#45;&gt;d2b</title>
<path fill="none" stroke="#000000" stroke-dasharray="5,2" d="M255.6067,-755.3638C264.7838,-736.8356 279.1485,-707.8341 288.2878,-689.3822"/>
</g>
<!-- f_ret -->
<g id="node9" class="node">
<title>f_ret</title>
<ellipse fill="none" stroke="#000000" cx="224.8973" cy="-585" rx="27" ry="18"/>
<text text-anchor="middle" x="224.8973" y="-581.3" font-family="Times,serif" font-size="14.00" fill="#000000">I</text>
</g>
<!-- d1&#45;&gt;f_ret -->
<g id="edge9" class="edge">
<title>d1&#45;&gt;f_ret</title>
<path fill="none" stroke="#ff0000" d="M244.7879,-754.9263C240.9442,-722.0891 232.7747,-652.2963 228.1914,-613.1416"/>
<polygon fill="#ff0000" stroke="#ff0000" points="231.6394,-612.4919 227.0004,-602.9666 224.6868,-613.3058 231.6394,-612.4919"/>
</g>
<!-- hi_retpa -->
<g id="node10" class="node">
<title>hi_retpa</title>
<ellipse fill="none" stroke="#000000" cx="76.8973" cy="-585" rx="27" ry="18"/>
<text text-anchor="middle" x="76.8973" y="-581.3" font-family="Times,serif" font-size="14.00" fill="#000000">!p</text>
</g>
<!-- d2a&#45;&gt;hi_retpa -->
<g id="edge10" class="edge">
<title>d2a&#45;&gt;hi_retpa</title>
<path fill="none" stroke="#0000ff" d="M39.183,-654.8116C45.9422,-642.3 55.2144,-625.1366 62.8734,-610.9592"/>
<polygon fill="#0000ff" stroke="#0000ff" points="65.9572,-612.6145 67.6309,-602.1527 59.7985,-609.2873 65.9572,-612.6145"/>
<text text-anchor="middle" x="61.8973" y="-624.8" font-family="Times,serif" font-size="14.00" fill="#000000">1</text>
</g>
<!-- h_dib -->
<g id="node11" class="node">
<title>h_dib</title>
<ellipse fill="none" stroke="#000000" cx="296.8973" cy="-585" rx="27" ry="18"/>
<text text-anchor="middle" x="296.8973" y="-581.3" font-family="Times,serif" font-size="14.00" fill="#000000">!d</text>
</g>
<!-- d2b&#45;&gt;h_dib -->
<g id="edge11" class="edge">
<title>d2b&#45;&gt;h_dib</title>
<path fill="none" stroke="#0000ff" d="M296.8973,-653.9735C296.8973,-642.1918 296.8973,-626.5607 296.8973,-613.1581"/>
<polygon fill="#0000ff" stroke="#0000ff" points="300.3974,-613.0033 296.8973,-603.0034 293.3974,-613.0034 300.3974,-613.0033"/>
<text text-anchor="middle" x="301.8973" y="-624.8" font-family="Times,serif" font-size="14.00" fill="#000000">1</text>
</g>
<!-- hi_reta -->
<g id="node18" class="node">
<title>hi_reta</title>
<ellipse fill="none" stroke="#000000" cx="70.8973" cy="-338" rx="27" ry="18"/>
<text text-anchor="middle" x="70.8973" y="-334.3" font-family="Times,serif" font-size="14.00" fill="#000000">I</text>
</g>
<!-- hi_retpa&#45;&gt;hi_reta -->
<g id="edge27" class="edge">
<title>hi_retpa&#45;&gt;hi_reta</title>
<path fill="none" stroke="#ff0000" d="M74.5533,-566.8785C72.8788,-552.9839 70.7735,-533.3164 69.8973,-516 67.135,-461.4032 69.4004,-447.6644 69.8973,-393 69.9755,-384.4052 70.1223,-375.0558 70.2798,-366.5447"/>
<polygon fill="#ff0000" stroke="#ff0000" points="73.7832,-366.3991 70.4807,-356.3322 66.7846,-366.2614 73.7832,-366.3991"/>
<text text-anchor="middle" x="73.8973" y="-450.8" font-family="Times,serif" font-size="14.00" fill="#000000">2</text>
</g>
<!-- h_dia -->
<g id="node19" class="node">
<title>h_dia</title>
<ellipse fill="none" stroke="#000000" cx="105.8973" cy="-498" rx="27" ry="18"/>
<text text-anchor="middle" x="105.8973" y="-494.3" font-family="Times,serif" font-size="14.00" fill="#000000">!d</text>
</g>
<!-- hi_retpa&#45;&gt;h_dia -->
<g id="edge28" class="edge">
<title>hi_retpa&#45;&gt;h_dia</title>
<path fill="none" stroke="#0000ff" d="M82.7659,-567.3943C86.9718,-554.7765 92.7011,-537.5887 97.4054,-523.4759"/>
<ellipse fill="none" stroke="#0000ff" cx="98.7725" cy="-519.3743" rx="4" ry="4"/>
<text text-anchor="middle" x="98.8973" y="-537.8" font-family="Times,serif" font-size="14.00" fill="#000000">1</text>
</g>
<!-- hb -->
<g id="node23" class="node">
<title>hb</title>
<ellipse fill="none" stroke="#000000" cx="232.8973" cy="-498" rx="27" ry="18"/>
<text text-anchor="middle" x="232.8973" y="-494.3" font-family="Times,serif" font-size="14.00" fill="#000000">PiL</text>
</g>
<!-- h_dib&#45;&gt;hb -->
<g id="edge31" class="edge">
<title>h_dib&#45;&gt;hb</title>
<path fill="none" stroke="#0000ff" d="M284.8594,-568.636C275.2945,-555.6336 261.7678,-537.2457 250.9133,-522.4904"/>
<polygon fill="#0000ff" stroke="#0000ff" points="253.6263,-520.2719 244.8813,-514.2907 247.9877,-524.4199 253.6263,-520.2719"/>
<text text-anchor="middle" x="273.8973" y="-537.8" font-family="Times,serif" font-size="14.00" fill="#000000">2</text>
</g>
<!-- hi_retpc1&#45;&gt;d2a -->
<g id="edge12" class="edge">
<title>hi_retpc1&#45;&gt;d2a</title>
<path fill="none" stroke="#0000ff" d="M156.9616,-757.8524C150.7839,-752.1166 143.3337,-745.8121 135.8973,-741 119.5304,-730.4088 112.6145,-733.0292 95.8973,-723 81.0197,-714.0744 65.6114,-702.3324 53.4279,-692.3653"/>
<ellipse fill="none" stroke="#0000ff" cx="50.0923" cy="-689.5953" rx="4" ry="4"/>
</g>
<!-- hi_retpc1&#45;&gt;d2b -->
<g id="edge13" class="edge">
<title>hi_retpc1&#45;&gt;d2b</title>
<path fill="none" stroke="#0000ff" d="M187.8275,-758.4031C194.0143,-752.8627 201.2096,-746.5496 207.8973,-741 228.7508,-723.6956 253.1119,-704.903 271.0699,-691.3061"/>
<ellipse fill="none" stroke="#0000ff" cx="274.6668" cy="-688.5914" rx="4" ry="4"/>
</g>
<!-- d5 -->
<g id="node15" class="node">
<title>d5</title>
<ellipse fill="none" stroke="#000000" cx="209.8973" cy="-946.895" rx="29.795" ry="18"/>
<text text-anchor="middle" x="209.8973" y="-943.195" font-family="Times,serif" font-size="14.00" fill="#000000">Dup</text>
</g>
<!-- fpa&#45;&gt;d5 -->
<g id="edge18" class="edge">
<title>fpa&#45;&gt;d5</title>
<path fill="none" stroke="#ff0000" d="M122.236,-1019.5288C139.157,-1005.5085 165.0969,-984.0154 184.374,-968.0429"/>
<polygon fill="#ff0000" stroke="#ff0000" points="186.7149,-970.6488 192.182,-961.5735 182.2487,-965.2586 186.7149,-970.6488"/>
<text text-anchor="middle" x="168.8973" y="-986.695" font-family="Times,serif" font-size="14.00" fill="#000000">1</text>
</g>
<!-- fpb&#45;&gt;d5 -->
<g id="edge19" class="edge">
<title>fpb&#45;&gt;d5</title>
<path fill="none" stroke="#ff0000" d="M213.8613,-1015.8686C213.1842,-1004.0868 212.2859,-988.4557 211.5156,-975.0531"/>
<polygon fill="#ff0000" stroke="#ff0000" points="215.0001,-974.6811 210.932,-964.8984 208.0116,-975.0828 215.0001,-974.6811"/>
<text text-anchor="middle" x="217.8973" y="-986.695" font-family="Times,serif" font-size="14.00" fill="#000000">1</text>
</g>
<!-- d5&#45;&gt;fa -->
<g id="edge20" class="edge">
<title>d5&#45;&gt;fa</title>
<path fill="none" stroke="#ff0000" d="M209.4829,-928.8686C209.2121,-917.0868 208.8528,-901.4557 208.5447,-888.0531"/>
<polygon fill="#ff0000" stroke="#ff0000" points="212.0402,-887.8153 208.3112,-877.8984 205.0421,-887.9762 212.0402,-887.8153"/>
</g>
<!-- x2i_o2&#45;&gt;f_ret -->
<g id="edge26" class="edge">
<title>x2i_o2&#45;&gt;f_ret</title>
<path fill="none" stroke="#0000ff" d="M123.3844,-658.5969C143.4384,-644.0578 175.628,-620.7203 198.3754,-604.2284"/>
<polygon fill="#0000ff" stroke="#0000ff" points="200.5445,-606.9789 206.5862,-598.2755 196.4357,-601.3116 200.5445,-606.9789"/>
</g>
<!-- x2i_o2&#45;&gt;hi_retpa -->
<g id="edge25" class="edge">
<title>x2i_o2&#45;&gt;hi_retpa</title>
<path fill="none" stroke="#ff0000" d="M99.2311,-654.3943C95.3855,-642.4453 90.2208,-626.3978 85.8267,-612.7446"/>
<polygon fill="#ff0000" stroke="#ff0000" points="89.0466,-611.325 82.6512,-602.8782 82.3832,-613.4696 89.0466,-611.325"/>
<text text-anchor="middle" x="97.8973" y="-624.8" font-family="Times,serif" font-size="14.00" fill="#000000">1</text>
</g>
<!-- ha -->
<g id="node22" class="node">
<title>ha</title>
<ellipse fill="none" stroke="#000000" cx="105.8973" cy="-411" rx="27" ry="18"/>
<text text-anchor="middle" x="105.8973" y="-407.3" font-family="Times,serif" font-size="14.00" fill="#000000">PiL</text>
</g>
<!-- h_dia&#45;&gt;ha -->
<g id="edge30" class="edge">
<title>h_dia&#45;&gt;ha</title>
<path fill="none" stroke="#0000ff" d="M105.8973,-479.9735C105.8973,-468.1918 105.8973,-452.5607 105.8973,-439.1581"/>
<polygon fill="#0000ff" stroke="#0000ff" points="109.3974,-439.0033 105.8973,-429.0034 102.3974,-439.0034 109.3974,-439.0033"/>
<text text-anchor="middle" x="110.8973" y="-450.8" font-family="Times,serif" font-size="14.00" fill="#000000">2</text>
</g>
<!-- d4a -->
<g id="node20" class="node">
<title>d4a</title>
<ellipse fill="none" stroke="#000000" cx="204.8973" cy="-338" rx="29.795" ry="18"/>
<text text-anchor="middle" x="204.8973" y="-334.3" font-family="Times,serif" font-size="14.00" fill="#000000">Dup</text>
</g>
<!-- i -->
<g id="node21" class="node">
<title>i</title>
<ellipse fill="none" stroke="#000000" cx="204.8973" cy="-251" rx="27" ry="18"/>
<text text-anchor="middle" x="204.8973" y="-247.3" font-family="Times,serif" font-size="14.00" fill="#000000">!p</text>
</g>
<!-- d4a&#45;&gt;i -->
<g id="edge29" class="edge">
<title>d4a&#45;&gt;i</title>
<path fill="none" stroke="#ff0000" d="M204.8973,-319.9735C204.8973,-308.1918 204.8973,-292.5607 204.8973,-279.1581"/>
<polygon fill="#ff0000" stroke="#ff0000" points="208.3974,-279.0033 204.8973,-269.0034 201.3974,-279.0034 208.3974,-279.0033"/>
<text text-anchor="middle" x="209.8973" y="-290.8" font-family="Times,serif" font-size="14.00" fill="#000000">2</text>
</g>
<!-- i_i -->
<g id="node24" class="node">
<title>i_i</title>
<ellipse fill="none" stroke="#000000" cx="204.8973" cy="-164" rx="27" ry="18"/>
<text text-anchor="middle" x="204.8973" y="-160.3" font-family="Times,serif" font-size="14.00" fill="#000000">PiR</text>
</g>
<!-- i&#45;&gt;i_i -->
<g id="edge32" class="edge">
<title>i&#45;&gt;i_i</title>
<path fill="none" stroke="#ff0000" d="M204.8973,-232.9735C204.8973,-221.1918 204.8973,-205.5607 204.8973,-192.1581"/>
<polygon fill="#ff0000" stroke="#ff0000" points="208.3974,-192.0033 204.8973,-182.0034 201.3974,-192.0034 208.3974,-192.0033"/>
<text text-anchor="middle" x="209.8973" y="-203.8" font-family="Times,serif" font-size="14.00" fill="#000000">3</text>
</g>
<!-- ha&#45;&gt;hi_reta -->
<g id="edge37" class="edge">
<title>ha&#45;&gt;hi_reta</title>
<path fill="none" stroke="#0000ff" d="M97.6028,-393.7C93.4184,-384.9724 88.2523,-374.1974 83.5822,-364.4571"/>
<polygon fill="#0000ff" stroke="#0000ff" points="86.6117,-362.6798 79.1323,-355.1758 80.2997,-365.7061 86.6117,-362.6798"/>
</g>
<!-- ha&#45;&gt;d4a -->
<g id="edge36" class="edge">
<title>ha&#45;&gt;d4a</title>
<path fill="none" stroke="#ff0000" d="M124.0555,-397.6107C139.5293,-386.2007 161.9446,-369.6722 179.2493,-356.9122"/>
<ellipse fill="none" stroke="#ff0000" cx="182.6227" cy="-354.4247" rx="4" ry="4"/>
</g>
<!-- hb&#45;&gt;hi_retb -->
<g id="edge39" class="edge">
<title>hb&#45;&gt;hi_retb</title>
<path fill="none" stroke="#0000ff" d="M222.2928,-481.2255C214.2275,-468.4677 202.9965,-450.7024 193.8489,-436.2325"/>
<polygon fill="#0000ff" stroke="#0000ff" points="196.7714,-434.3053 188.4693,-427.723 190.8546,-438.0458 196.7714,-434.3053"/>
</g>
<!-- hb&#45;&gt;d4a -->
<g id="edge38" class="edge">
<title>hb&#45;&gt;d4a</title>
<path fill="none" stroke="#ff0000" d="M229.7398,-479.957C224.8874,-452.2286 215.5572,-398.9135 209.8145,-366.0982"/>
<polygon fill="#ff0000" stroke="#ff0000" points="213.2578,-365.4695 208.0863,-356.2226 206.3626,-366.6762 213.2578,-365.4695"/>
</g>
<!-- il -->
<g id="node25" class="node">
<title>il</title>
<ellipse fill="none" stroke="#000000" cx="177.8973" cy="-91" rx="27" ry="18"/>
<text text-anchor="middle" x="177.8973" y="-87.3" font-family="Times,serif" font-size="14.00" fill="#000000">!d</text>
</g>
<!-- i_i&#45;&gt;il -->
<g id="edge33" class="edge">
<title>i_i&#45;&gt;il</title>
<path fill="none" stroke="#0000ff" d="M198.3614,-146.3287C195.2108,-137.8103 191.3632,-127.4078 187.8582,-117.9312"/>
<polygon fill="#0000ff" stroke="#0000ff" points="191.1248,-116.6734 184.3731,-108.5085 184.5595,-119.1017 191.1248,-116.6734"/>
</g>
<!-- i_ret -->
<g id="node26" class="node">
<title>i_ret</title>
<ellipse fill="none" stroke="#000000" cx="204.8973" cy="-18" rx="27" ry="18"/>
<text text-anchor="middle" x="204.8973" y="-14.3" font-family="Times,serif" font-size="14.00" fill="#000000">I</text>
</g>
<!-- i_i&#45;&gt;i_ret -->
<g id="edge34" class="edge">
<title>i_i&#45;&gt;i_ret</title>
<path fill="none" stroke="#ff0000" d="M208.6449,-145.7581C210.644,-135.0941 212.894,-121.3441 213.8973,-109 215.1935,-93.0526 215.1935,-88.9474 213.8973,-73 213.1841,-64.2241 211.8407,-54.7377 210.4052,-46.1547"/>
<polygon fill="#ff0000" stroke="#ff0000" points="213.8395,-45.4759 208.6449,-36.2419 206.9474,-46.6999 213.8395,-45.4759"/>
</g>
<!-- il&#45;&gt;i_ret -->
<g id="edge35" class="edge">
<title>il&#45;&gt;i_ret</title>
<path fill="none" stroke="#0000ff" d="M184.4333,-73.3287C187.5839,-64.8103 191.4314,-54.4078 194.9365,-44.9312"/>
<polygon fill="#0000ff" stroke="#0000ff" points="198.2352,-46.1017 198.4216,-35.5085 191.6699,-43.6734 198.2352,-46.1017"/>
</g>
</g>
</svg>
