<?xml version="1.0" encoding="UTF-8" standalone="no"?>
<!DOCTYPE svg PUBLIC "-//W3C//DTD SVG 1.1//EN"
 "http://www.w3.org/Graphics/SVG/1.1/DTD/svg11.dtd">
<!-- Generated by graphviz version 2.40.1 (20161225.0304)
 -->
<!-- Title: %3 Pages: 1 -->
<svg width="382pt" height="1051pt"
 viewBox="0.00 0.00 382.00 1050.80" xmlns="http://www.w3.org/2000/svg" xmlns:xlink="http://www.w3.org/1999/xlink">
<g id="graph0" class="graph" transform="scale(1 1) rotate(0) translate(4 1046.7958)">
<title>%3</title>
<polygon fill="#ffffff" stroke="transparent" points="-4,4 -4,-1046.7958 378,-1046.7958 378,4 -4,4"/>
<!-- Root -->
<g id="node1" class="node">
<title>Root</title>
<ellipse fill="none" stroke="#000000" cx="291" cy="-768.3979" rx="27.8951" ry="18"/>
<text text-anchor="middle" x="291" y="-764.6979" font-family="Times,serif" font-size="14.00" fill="#000000">Root</text>
</g>
<!-- d1 -->
<g id="node2" class="node">
<title>d1</title>
<ellipse fill="none" stroke="#000000" cx="347" cy="-672" rx="27" ry="18"/>
<text text-anchor="middle" x="347" y="-668.3" font-family="Times,serif" font-size="14.00" fill="#000000">Dup</text>
</g>
<!-- Root&#45;&gt;d1 -->
<g id="edge1" class="edge">
<title>Root&#45;&gt;d1</title>
<path fill="none" stroke="#ff0000" stroke-width="2" d="M292.6036,-750.3917C294.386,-737.7723 298.1347,-720.9202 306,-708 309.7065,-701.9114 314.7766,-696.2916 320.0883,-691.3912"/>
<polygon fill="#ff0000" stroke="#ff0000" stroke-width="2" points="322.5499,-693.8928 327.9128,-684.7555 318.0223,-688.5541 322.5499,-693.8928"/>
<text text-anchor="middle" x="319.5" y="-711.8" font-family="Times,serif" font-size="14.00" fill="#000000">0&#45;&gt;1</text>
</g>
<!-- d2 -->
<g id="node6" class="node">
<title>d2</title>
<ellipse fill="none" stroke="#000000" cx="128" cy="-768.3979" rx="27" ry="18"/>
<text text-anchor="middle" x="128" y="-764.6979" font-family="Times,serif" font-size="14.00" fill="#000000">Dup</text>
</g>
<!-- d1&#45;&gt;d2 -->
<g id="edge4" class="edge">
<title>d1&#45;&gt;d2</title>
<path fill="none" stroke="#000000" stroke-dasharray="5,2" d="M325.3474,-682.9515C320.6305,-685.3021 315.6576,-687.7538 311,-690 279.6571,-705.1158 272.7024,-711.1082 240,-723 211.0227,-733.5372 201.3432,-728.8601 173,-741 164.0877,-744.8173 154.8408,-750.1707 147.0643,-755.1337"/>
</g>
<!-- f_ret -->
<g id="node7" class="node">
<title>f_ret</title>
<ellipse fill="none" stroke="#000000" cx="347" cy="-585" rx="27" ry="18"/>
<text text-anchor="middle" x="347" y="-581.3" font-family="Times,serif" font-size="14.00" fill="#000000">I</text>
</g>
<!-- d1&#45;&gt;f_ret -->
<g id="edge5" class="edge">
<title>d1&#45;&gt;f_ret</title>
<path fill="none" stroke="#ff0000" stroke-width="2" d="M347,-653.9735C347,-642.1918 347,-626.5607 347,-613.1581"/>
<polygon fill="#ff0000" stroke="#ff0000" stroke-width="2" points="350.5001,-613.0033 347,-603.0034 343.5001,-613.0034 350.5001,-613.0033"/>
</g>
<!-- c1a -->
<g id="node3" class="node">
<title>c1a</title>
<ellipse fill="none" stroke="#000000" cx="212" cy="-1024.7958" rx="27" ry="18"/>
<text text-anchor="middle" x="212" y="-1021.0958" font-family="Times,serif" font-size="14.00" fill="#000000">Cut</text>
</g>
<!-- fp1 -->
<g id="node4" class="node">
<title>fp1</title>
<ellipse fill="none" stroke="#000000" cx="255" cy="-937.7958" rx="27" ry="18"/>
<text text-anchor="middle" x="255" y="-934.0958" font-family="Times,serif" font-size="14.00" fill="#000000">!p</text>
</g>
<!-- c1a&#45;&gt;fp1 -->
<g id="edge2" class="edge">
<title>c1a&#45;&gt;fp1</title>
<path fill="none" stroke="#ff0000" d="M220.4954,-1007.6074C226.6204,-995.215 235.001,-978.2589 241.969,-964.1609"/>
<polygon fill="#ff0000" stroke="#ff0000" points="245.229,-965.4642 246.5222,-954.9485 238.9536,-962.3625 245.229,-965.4642"/>
<text text-anchor="middle" x="239.5" y="-977.5958" font-family="Times,serif" font-size="14.00" fill="#000000">0</text>
</g>
<!-- x1_o1 -->
<g id="node5" class="node">
<title>x1_o1</title>
<ellipse fill="none" stroke="#000000" cx="183" cy="-937.7958" rx="27" ry="18"/>
<text text-anchor="middle" x="183" y="-934.0958" font-family="Times,serif" font-size="14.00" fill="#000000">I</text>
</g>
<!-- c1a&#45;&gt;x1_o1 -->
<g id="edge3" class="edge">
<title>c1a&#45;&gt;x1_o1</title>
<path fill="none" stroke="#0000ff" d="M206.1314,-1007.1901C202.0827,-995.0441 196.6225,-978.6633 192.0237,-964.867"/>
<polygon fill="#0000ff" stroke="#0000ff" points="195.3426,-963.7554 188.8599,-955.3754 188.7018,-965.9691 195.3426,-963.7554"/>
</g>
<!-- f2 -->
<g id="node10" class="node">
<title>f2</title>
<ellipse fill="none" stroke="#000000" cx="255" cy="-850.7958" rx="27" ry="18"/>
<text text-anchor="middle" x="255" y="-847.0958" font-family="Times,serif" font-size="14.00" fill="#000000">PiR</text>
</g>
<!-- fp1&#45;&gt;f2 -->
<g id="edge11" class="edge">
<title>fp1&#45;&gt;f2</title>
<path fill="none" stroke="#ff0000" d="M255,-919.7694C255,-907.9876 255,-892.3565 255,-878.9539"/>
<polygon fill="#ff0000" stroke="#ff0000" points="258.5001,-878.7992 255,-868.7992 251.5001,-878.7992 258.5001,-878.7992"/>
<text text-anchor="middle" x="258.5" y="-890.5958" font-family="Times,serif" font-size="14.00" fill="#000000">1</text>
</g>
<!-- xdic -->
<g id="node9" class="node">
<title>xdic</title>
<ellipse fill="none" stroke="#000000" cx="89" cy="-672" rx="27" ry="18"/>
<text text-anchor="middle" x="89" y="-668.3" font-family="Times,serif" font-size="14.00" fill="#000000">!c</text>
</g>
<!-- d2&#45;&gt;xdic -->
<g id="edge8" class="edge">
<title>d2&#45;&gt;xdic</title>
<path fill="none" stroke="#0000ff" d="M120.8468,-750.7171C115.0194,-736.3132 106.6929,-715.7323 100.0154,-699.2272"/>
<polygon fill="#0000ff" stroke="#0000ff" points="103.1029,-697.5262 96.1079,-689.5688 96.6138,-700.1515 103.1029,-697.5262"/>
</g>
<!-- c1bb -->
<g id="node8" class="node">
<title>c1bb</title>
<ellipse fill="none" stroke="#000000" cx="136" cy="-1024.7958" rx="27" ry="18"/>
<text text-anchor="middle" x="136" y="-1021.0958" font-family="Times,serif" font-size="14.00" fill="#000000">Cut</text>
</g>
<!-- c1bb&#45;&gt;x1_o1 -->
<g id="edge6" class="edge">
<title>c1bb&#45;&gt;x1_o1</title>
<path fill="none" stroke="#ff0000" d="M145.2857,-1007.6074C152.0449,-995.0958 161.317,-977.9324 168.9761,-963.755"/>
<polygon fill="#ff0000" stroke="#ff0000" points="172.0599,-965.4103 173.7336,-954.9485 165.9011,-962.0832 172.0599,-965.4103"/>
<text text-anchor="middle" x="166.5" y="-977.5958" font-family="Times,serif" font-size="14.00" fill="#000000">0</text>
</g>
<!-- c1bb&#45;&gt;d2 -->
<g id="edge7" class="edge">
<title>c1bb&#45;&gt;d2</title>
<path fill="none" stroke="#0000ff" d="M135.4375,-1006.7664C134.0633,-962.7238 130.5275,-849.4046 128.8753,-796.4501"/>
<polygon fill="#0000ff" stroke="#0000ff" points="132.3722,-796.2934 128.5619,-786.4074 125.3756,-796.5117 132.3722,-796.2934"/>
<text text-anchor="middle" x="136.5" y="-890.5958" font-family="Times,serif" font-size="14.00" fill="#000000">1</text>
</g>
<!-- h_di2 -->
<g id="node18" class="node">
<title>h_di2</title>
<ellipse fill="none" stroke="#000000" cx="81" cy="-585" rx="27" ry="18"/>
<text text-anchor="middle" x="81" y="-581.3" font-family="Times,serif" font-size="14.00" fill="#000000">!d</text>
</g>
<!-- xdic&#45;&gt;h_di2 -->
<g id="edge26" class="edge">
<title>xdic&#45;&gt;h_di2</title>
<path fill="none" stroke="#0000ff" d="M87.3424,-653.9735C86.259,-642.1918 84.8217,-626.5607 83.5892,-613.1581"/>
<polygon fill="#0000ff" stroke="#0000ff" points="87.0565,-612.6408 82.6555,-603.0034 80.086,-613.2819 87.0565,-612.6408"/>
<text text-anchor="middle" x="89.5" y="-624.8" font-family="Times,serif" font-size="14.00" fill="#000000">1</text>
</g>
<!-- hi_retpa -->
<g id="node20" class="node">
<title>hi_retpa</title>
<ellipse fill="none" stroke="#000000" cx="203" cy="-585" rx="27" ry="18"/>
<text text-anchor="middle" x="203" y="-581.3" font-family="Times,serif" font-size="14.00" fill="#000000">!p</text>
</g>
<!-- xdic&#45;&gt;hi_retpa -->
<g id="edge25" class="edge">
<title>xdic&#45;&gt;hi_retpa</title>
<path fill="none" stroke="#0000ff" d="M106.8125,-658.4063C125.6089,-644.0616 155.4246,-621.3076 176.8796,-604.934"/>
<polygon fill="#0000ff" stroke="#0000ff" points="179.1102,-607.6345 184.9364,-598.7854 174.8635,-602.0698 179.1102,-607.6345"/>
<text text-anchor="middle" x="156.5" y="-624.8" font-family="Times,serif" font-size="14.00" fill="#000000">1</text>
</g>
<!-- f2&#45;&gt;d1 -->
<g id="edge9" class="edge">
<title>f2&#45;&gt;d1</title>
<path fill="none" stroke="#ff0000" d="M276.9244,-840.2636C293.7395,-830.9813 316.0333,-815.8184 328,-795.7958 345.917,-765.8174 348.8306,-724.725 348.5145,-698.2655"/>
<ellipse fill="none" stroke="#ff0000" cx="348.4133" cy="-694.2204" rx="4" ry="4"/>
</g>
<!-- f2&#45;&gt;d2 -->
<g id="edge10" class="edge">
<title>f2&#45;&gt;d2</title>
<path fill="none" stroke="#0000ff" d="M235.4346,-838.1017C213.6498,-823.9677 178.3336,-801.0545 154.1815,-785.3845"/>
<ellipse fill="none" stroke="#0000ff" cx="150.7349" cy="-783.1484" rx="4" ry="4"/>
</g>
<!-- hi_ret1 -->
<g id="node11" class="node">
<title>hi_ret1</title>
<ellipse fill="none" stroke="#000000" cx="240" cy="-338" rx="27" ry="18"/>
<text text-anchor="middle" x="240" y="-334.3" font-family="Times,serif" font-size="14.00" fill="#000000">I</text>
</g>
<!-- hi_ret2 -->
<g id="node12" class="node">
<title>hi_ret2</title>
<ellipse fill="none" stroke="#000000" cx="131" cy="-411" rx="27" ry="18"/>
<text text-anchor="middle" x="131" y="-407.3" font-family="Times,serif" font-size="14.00" fill="#000000">I</text>
</g>
<!-- d4b -->
<g id="node13" class="node">
<title>d4b</title>
<ellipse fill="none" stroke="#000000" cx="126" cy="-338" rx="27" ry="18"/>
<text text-anchor="middle" x="126" y="-334.3" font-family="Times,serif" font-size="14.00" fill="#000000">Dup</text>
</g>
<!-- h_app -->
<g id="node14" class="node">
<title>h_app</title>
<ellipse fill="none" stroke="#000000" cx="126" cy="-251" rx="27" ry="18"/>
<text text-anchor="middle" x="126" y="-247.3" font-family="Times,serif" font-size="14.00" fill="#000000">I</text>
</g>
<!-- d4b&#45;&gt;h_app -->
<g id="edge12" class="edge">
<title>d4b&#45;&gt;h_app</title>
<path fill="none" stroke="#ff0000" d="M126,-319.9735C126,-308.1918 126,-292.5607 126,-279.1581"/>
<polygon fill="#ff0000" stroke="#ff0000" points="129.5001,-279.0033 126,-269.0034 122.5001,-279.0034 129.5001,-279.0033"/>
</g>
<!-- ha -->
<g id="node15" class="node">
<title>ha</title>
<ellipse fill="none" stroke="#000000" cx="203" cy="-411" rx="27" ry="18"/>
<text text-anchor="middle" x="203" y="-407.3" font-family="Times,serif" font-size="14.00" fill="#000000">PiL</text>
</g>
<!-- ha&#45;&gt;hi_ret1 -->
<g id="edge14" class="edge">
<title>ha&#45;&gt;hi_ret1</title>
<path fill="none" stroke="#0000ff" d="M211.7685,-393.7C216.2381,-384.8815 221.7673,-373.9727 226.7444,-364.153"/>
<polygon fill="#0000ff" stroke="#0000ff" points="229.8954,-365.6779 231.2945,-355.1758 223.6516,-362.5132 229.8954,-365.6779"/>
</g>
<!-- ha&#45;&gt;d4b -->
<g id="edge13" class="edge">
<title>ha&#45;&gt;d4b</title>
<path fill="none" stroke="#ff0000" d="M187.4179,-396.2274C176.3549,-385.739 161.3223,-371.4874 148.8985,-359.709"/>
<polygon fill="#ff0000" stroke="#ff0000" points="151.224,-357.0908 141.5589,-352.7507 146.408,-362.1707 151.224,-357.0908"/>
</g>
<!-- hb -->
<g id="node16" class="node">
<title>hb</title>
<ellipse fill="none" stroke="#000000" cx="81" cy="-498" rx="27" ry="18"/>
<text text-anchor="middle" x="81" y="-494.3" font-family="Times,serif" font-size="14.00" fill="#000000">PiL</text>
</g>
<!-- hb&#45;&gt;hi_ret2 -->
<g id="edge16" class="edge">
<title>hb&#45;&gt;hi_ret2</title>
<path fill="none" stroke="#0000ff" d="M90.8784,-480.8116C98.1157,-468.2187 108.0612,-450.9135 116.2394,-436.6834"/>
<polygon fill="#0000ff" stroke="#0000ff" points="119.3639,-438.2708 121.3123,-427.8567 113.2948,-434.7828 119.3639,-438.2708"/>
</g>
<!-- hb&#45;&gt;d4b -->
<g id="edge15" class="edge">
<title>hb&#45;&gt;d4b</title>
<path fill="none" stroke="#ff0000" d="M81.3501,-479.6947C82.2305,-458.363 85.1961,-422.2993 95,-393 98.6585,-382.0664 104.5443,-370.8321 110.2093,-361.3902"/>
<ellipse fill="none" stroke="#ff0000" cx="112.3464" cy="-357.9514" rx="4" ry="4"/>
</g>
<!-- h_di1 -->
<g id="node17" class="node">
<title>h_di1</title>
<ellipse fill="none" stroke="#000000" cx="203" cy="-498" rx="27" ry="18"/>
<text text-anchor="middle" x="203" y="-494.3" font-family="Times,serif" font-size="14.00" fill="#000000">!d</text>
</g>
<!-- h_di1&#45;&gt;ha -->
<g id="edge17" class="edge">
<title>h_di1&#45;&gt;ha</title>
<path fill="none" stroke="#0000ff" d="M203,-479.9735C203,-468.1918 203,-452.5607 203,-439.1581"/>
<polygon fill="#0000ff" stroke="#0000ff" points="206.5001,-439.0033 203,-429.0034 199.5001,-439.0034 206.5001,-439.0033"/>
<text text-anchor="middle" x="206.5" y="-450.8" font-family="Times,serif" font-size="14.00" fill="#000000">2</text>
</g>
<!-- h_di2&#45;&gt;hb -->
<g id="edge18" class="edge">
<title>h_di2&#45;&gt;hb</title>
<path fill="none" stroke="#0000ff" d="M81,-566.9735C81,-555.1918 81,-539.5607 81,-526.1581"/>
<polygon fill="#0000ff" stroke="#0000ff" points="84.5001,-526.0033 81,-516.0034 77.5001,-526.0034 84.5001,-526.0033"/>
<text text-anchor="middle" x="84.5" y="-537.8" font-family="Times,serif" font-size="14.00" fill="#000000">2</text>
</g>
<!-- c2a -->
<g id="node19" class="node">
<title>c2a</title>
<ellipse fill="none" stroke="#000000" cx="203" cy="-672" rx="27" ry="18"/>
<text text-anchor="middle" x="203" y="-668.3" font-family="Times,serif" font-size="14.00" fill="#000000">Cut</text>
</g>
<!-- c2a&#45;&gt;hi_retpa -->
<g id="edge19" class="edge">
<title>c2a&#45;&gt;hi_retpa</title>
<path fill="none" stroke="#ff0000" d="M203,-653.9735C203,-642.1918 203,-626.5607 203,-613.1581"/>
<polygon fill="#ff0000" stroke="#ff0000" points="206.5001,-613.0033 203,-603.0034 199.5001,-613.0034 206.5001,-613.0033"/>
<text text-anchor="middle" x="206.5" y="-624.8" font-family="Times,serif" font-size="14.00" fill="#000000">1</text>
</g>
<!-- x1_o2 -->
<g id="node21" class="node">
<title>x1_o2</title>
<ellipse fill="none" stroke="#000000" cx="275" cy="-585" rx="27" ry="18"/>
<text text-anchor="middle" x="275" y="-581.3" font-family="Times,serif" font-size="14.00" fill="#000000">I</text>
</g>
<!-- c2a&#45;&gt;x1_o2 -->
<g id="edge20" class="edge">
<title>c2a&#45;&gt;x1_o2</title>
<path fill="none" stroke="#0000ff" d="M216.2059,-656.0429C227.1672,-642.798 242.9179,-623.7659 255.3584,-608.7336"/>
<polygon fill="#0000ff" stroke="#0000ff" points="258.1985,-610.7914 261.8778,-600.856 252.8057,-606.3284 258.1985,-610.7914"/>
</g>
<!-- hi_retpa&#45;&gt;hi_ret1 -->
<g id="edge23" class="edge">
<title>hi_retpa&#45;&gt;hi_ret1</title>
<path fill="none" stroke="#ff0000" d="M214.4198,-568.6095C223.056,-555.167 234.216,-535.2773 239,-516 251.8166,-464.355 247.8445,-401.6563 243.8699,-366.1377"/>
<polygon fill="#ff0000" stroke="#ff0000" points="247.3234,-365.5405 242.6549,-356.0297 240.3734,-366.3759 247.3234,-365.5405"/>
<text text-anchor="middle" x="250.5" y="-450.8" font-family="Times,serif" font-size="14.00" fill="#000000">2</text>
</g>
<!-- hi_retpa&#45;&gt;h_di1 -->
<g id="edge24" class="edge">
<title>hi_retpa&#45;&gt;h_di1</title>
<path fill="none" stroke="#0000ff" d="M203,-566.9735C203,-555.1918 203,-539.5607 203,-526.1581"/>
<polygon fill="#0000ff" stroke="#0000ff" points="206.5001,-526.0033 203,-516.0034 199.5001,-526.0034 206.5001,-526.0033"/>
<text text-anchor="middle" x="206.5" y="-537.8" font-family="Times,serif" font-size="14.00" fill="#000000">1</text>
</g>
<!-- c2b -->
<g id="node22" class="node">
<title>c2b</title>
<ellipse fill="none" stroke="#000000" cx="209" cy="-768.3979" rx="23.3111" ry="23.3111"/>
<ellipse fill="none" stroke="#000000" cx="209" cy="-768.3979" rx="27.2962" ry="27.2962"/>
<text text-anchor="middle" x="209" y="-764.6979" font-family="Times,serif" font-size="14.00" fill="#000000">Cut</text>
</g>
<!-- c2b&#45;&gt;hi_ret2 -->
<g id="edge21" class="edge">
<title>c2b&#45;&gt;hi_ret2</title>
<path fill="none" stroke="#ff0000" d="M187.7166,-750.8546C168.7598,-733.1374 144,-703.8921 144,-672 144,-672 144,-672 144,-498 144,-478.0177 140.604,-455.7345 137.2834,-438.7224"/>
<polygon fill="#ff0000" stroke="#ff0000" points="140.7015,-437.9675 135.2567,-428.8788 133.8453,-439.3792 140.7015,-437.9675"/>
<text text-anchor="middle" x="147.5" y="-581.3" font-family="Times,serif" font-size="14.00" fill="#000000">2</text>
</g>
<!-- x2i_o2 -->
<g id="node23" class="node">
<title>x2i_o2</title>
<ellipse fill="none" stroke="#000000" cx="275" cy="-672" rx="27" ry="18"/>
<text text-anchor="middle" x="275" y="-668.3" font-family="Times,serif" font-size="14.00" fill="#000000">PiL</text>
</g>
<!-- c2b&#45;&gt;x2i_o2 -->
<g id="edge22" class="edge">
<title>c2b&#45;&gt;x2i_o2</title>
<path fill="none" stroke="#0000ff" stroke-width="2" d="M224.6411,-745.553C234.6468,-730.9389 247.629,-711.9774 257.906,-696.9671"/>
<polygon fill="#0000ff" stroke="#0000ff" stroke-width="2" points="260.8399,-698.8772 263.6014,-688.6486 255.064,-694.9226 260.8399,-698.8772"/>
<text text-anchor="middle" x="252.5" y="-711.8" font-family="Times,serif" font-size="14.00" fill="#000000">1</text>
</g>
<!-- x2i_o2&#45;&gt;f_ret -->
<g id="edge28" class="edge">
<title>x2i_o2&#45;&gt;f_ret</title>
<path fill="none" stroke="#0000ff" stroke-width="2" d="M288.2059,-656.0429C299.1672,-642.798 314.9179,-623.7659 327.3584,-608.7336"/>
<polygon fill="#0000ff" stroke="#0000ff" stroke-width="2" points="330.1985,-610.7914 333.8778,-600.856 324.8057,-606.3284 330.1985,-610.7914"/>
</g>
<!-- x2i_o2&#45;&gt;x1_o2 -->
<g id="edge27" class="edge">
<title>x2i_o2&#45;&gt;x1_o2</title>
<path fill="none" stroke="#ff0000" d="M275,-653.9735C275,-642.1918 275,-626.5607 275,-613.1581"/>
<polygon fill="#ff0000" stroke="#ff0000" points="278.5001,-613.0033 275,-603.0034 271.5001,-613.0034 278.5001,-613.0033"/>
</g>
<!-- c3 -->
<g id="node24" class="node">
<title>c3</title>
<ellipse fill="none" stroke="#000000" cx="54" cy="-338" rx="27" ry="18"/>
<text text-anchor="middle" x="54" y="-334.3" font-family="Times,serif" font-size="14.00" fill="#000000">Cut</text>
</g>
<!-- c3&#45;&gt;h_app -->
<g id="edge30" class="edge">
<title>c3&#45;&gt;h_app</title>
<path fill="none" stroke="#0000ff" d="M67.2059,-322.0429C78.1672,-308.798 93.9179,-289.7659 106.3584,-274.7336"/>
<polygon fill="#0000ff" stroke="#0000ff" points="109.1985,-276.7914 112.8778,-266.856 103.8057,-272.3284 109.1985,-276.7914"/>
</g>
<!-- i -->
<g id="node25" class="node">
<title>i</title>
<ellipse fill="none" stroke="#000000" cx="54" cy="-251" rx="27" ry="18"/>
<text text-anchor="middle" x="54" y="-247.3" font-family="Times,serif" font-size="14.00" fill="#000000">!p</text>
</g>
<!-- c3&#45;&gt;i -->
<g id="edge29" class="edge">
<title>c3&#45;&gt;i</title>
<path fill="none" stroke="#ff0000" d="M54,-319.9735C54,-308.1918 54,-292.5607 54,-279.1581"/>
<polygon fill="#ff0000" stroke="#ff0000" points="57.5001,-279.0033 54,-269.0034 50.5001,-279.0034 57.5001,-279.0033"/>
<text text-anchor="middle" x="57.5" y="-290.8" font-family="Times,serif" font-size="14.00" fill="#000000">2</text>
</g>
<!-- i_i -->
<g id="node26" class="node">
<title>i_i</title>
<ellipse fill="none" stroke="#000000" cx="54" cy="-164" rx="27" ry="18"/>
<text text-anchor="middle" x="54" y="-160.3" font-family="Times,serif" font-size="14.00" fill="#000000">PiR</text>
</g>
<!-- i&#45;&gt;i_i -->
<g id="edge31" class="edge">
<title>i&#45;&gt;i_i</title>
<path fill="none" stroke="#ff0000" d="M54,-232.9735C54,-221.1918 54,-205.5607 54,-192.1581"/>
<polygon fill="#ff0000" stroke="#ff0000" points="57.5001,-192.0033 54,-182.0034 50.5001,-192.0034 57.5001,-192.0033"/>
<text text-anchor="middle" x="57.5" y="-203.8" font-family="Times,serif" font-size="14.00" fill="#000000">3</text>
</g>
<!-- il -->
<g id="node27" class="node">
<title>il</title>
<ellipse fill="none" stroke="#000000" cx="27" cy="-91" rx="27" ry="18"/>
<text text-anchor="middle" x="27" y="-87.3" font-family="Times,serif" font-size="14.00" fill="#000000">!d</text>
</g>
<!-- i_i&#45;&gt;il -->
<g id="edge32" class="edge">
<title>i_i&#45;&gt;il</title>
<path fill="none" stroke="#0000ff" d="M47.4641,-146.3287C44.3134,-137.8103 40.4659,-127.4078 36.9608,-117.9312"/>
<polygon fill="#0000ff" stroke="#0000ff" points="40.2274,-116.6734 33.4758,-108.5085 33.6621,-119.1017 40.2274,-116.6734"/>
</g>
<!-- i_ret -->
<g id="node28" class="node">
<title>i_ret</title>
<ellipse fill="none" stroke="#000000" cx="54" cy="-18" rx="27" ry="18"/>
<text text-anchor="middle" x="54" y="-14.3" font-family="Times,serif" font-size="14.00" fill="#000000">I</text>
</g>
<!-- i_i&#45;&gt;i_ret -->
<g id="edge33" class="edge">
<title>i_i&#45;&gt;i_ret</title>
<path fill="none" stroke="#ff0000" d="M57.7475,-145.7581C59.7467,-135.0941 61.9967,-121.3441 63,-109 64.2962,-93.0526 64.2962,-88.9474 63,-73 62.2867,-64.2241 60.9433,-54.7377 59.5079,-46.1547"/>
<polygon fill="#ff0000" stroke="#ff0000" points="62.9422,-45.4759 57.7475,-36.2419 56.05,-46.6999 62.9422,-45.4759"/>
</g>
<!-- il&#45;&gt;i_ret -->
<g id="edge34" class="edge">
<title>il&#45;&gt;i_ret</title>
<path fill="none" stroke="#0000ff" d="M33.5359,-73.3287C36.6866,-64.8103 40.5341,-54.4078 44.0392,-44.9312"/>
<polygon fill="#0000ff" stroke="#0000ff" points="47.3379,-46.1017 47.5242,-35.5085 40.7726,-43.6734 47.3379,-46.1017"/>
</g>
</g>
</svg>
