<?xml version="1.0" encoding="UTF-8" standalone="no"?>
<!DOCTYPE svg PUBLIC "-//W3C//DTD SVG 1.1//EN"
 "http://www.w3.org/Graphics/SVG/1.1/DTD/svg11.dtd">
<!-- Generated by graphviz version 2.43.0 (0)
 -->
<!-- Title: %3 Pages: 1 -->
<svg width="178pt" height="866pt"
 viewBox="0.00 0.00 178.25 866.49" xmlns="http://www.w3.org/2000/svg" xmlns:xlink="http://www.w3.org/1999/xlink">
<g id="graph0" class="graph" transform="scale(1 1) rotate(0) translate(4 862.49)">
<title>%3</title>
<polygon fill="white" stroke="transparent" points="-4,4 -4,-862.49 174.25,-862.49 174.25,4 -4,4"/>
<!-- Root0 -->
<g id="node1" class="node">
<title>Root0</title>
<ellipse fill="none" stroke="black" cx="139.25" cy="-840.49" rx="30.59" ry="18"/>
<text text-anchor="middle" x="139.25" y="-836.79" font-family="Times-Roman" font-size="14.00">Root</text>
</g>
<!-- Dup0_0 -->
<g id="node13" class="node">
<title>Dup0_0</title>
<ellipse fill="none" stroke="black" cx="139.25" cy="-768.49" rx="29.5" ry="18"/>
<text text-anchor="middle" x="139.25" y="-764.79" font-family="Times-Roman" font-size="14.00">Dup</text>
</g>
<!-- Root0&#45;&gt;Dup0_0 -->
<g id="edge10" class="edge">
<title>Root0&#45;&gt;Dup0_0</title>
<g id="a_edge10"><a xlink:title="ret">
<path fill="none" stroke="red" stroke-width="2" d="M139.25,-822.19C139.25,-813.88 139.25,-803.77 139.25,-794.64"/>
<ellipse fill="none" stroke="red" stroke-width="2" cx="139.25" cy="-790.6" rx="4" ry="4"/>
</a>
</g>
</g>
<!-- I0 -->
<g id="node2" class="node">
<title>I0</title>
<ellipse fill="none" stroke="black" cx="109.25" cy="-234" rx="27" ry="18"/>
<text text-anchor="middle" x="109.25" y="-230.3" font-family="Times-Roman" font-size="14.00">I</text>
</g>
<!-- Cut0 -->
<g id="node8" class="node">
<title>Cut0</title>
<ellipse fill="none" stroke="black" cx="109.25" cy="-162" rx="27" ry="18"/>
<text text-anchor="middle" x="109.25" y="-158.3" font-family="Times-Roman" font-size="14.00">Cut</text>
</g>
<!-- I0&#45;&gt;Cut0 -->
<g id="edge13" class="edge">
<title>I0&#45;&gt;Cut0</title>
<g id="a_edge13"><a xlink:title="x1_o1">
<path fill="none" stroke="blue" d="M109.25,-205.67C109.25,-197.05 109.25,-187.79 109.25,-180.1"/>
<polygon fill="blue" stroke="blue" points="105.75,-205.7 109.25,-215.7 112.75,-205.7 105.75,-205.7"/>
</a>
</g>
</g>
<!-- !d0 -->
<g id="node3" class="node">
<title>!d0</title>
<ellipse fill="none" stroke="black" cx="109.25" cy="-552.49" rx="27" ry="18"/>
<text text-anchor="middle" x="109.25" y="-548.79" font-family="Times-Roman" font-size="14.00">!d</text>
</g>
<!-- Dup0_2 -->
<g id="node15" class="node">
<title>Dup0_2</title>
<ellipse fill="none" stroke="black" cx="109.25" cy="-465.25" rx="29.47" ry="29.47"/>
<ellipse fill="none" stroke="black" cx="109.25" cy="-465.25" rx="33.5" ry="33.5"/>
<text text-anchor="middle" x="109.25" y="-461.55" font-family="Times-Roman" font-size="14.00">Dup</text>
</g>
<!-- !d0&#45;&gt;Dup0_2 -->
<g id="edge17" class="edge">
<title>!d0&#45;&gt;Dup0_2</title>
<g id="a_edge17"><a xlink:title="x2_o2">
<path fill="none" stroke="blue" stroke-width="2" d="M109.25,-524.17C109.25,-516.05 109.25,-507.06 109.25,-498.65"/>
<polygon fill="blue" stroke="blue" stroke-width="2" points="105.75,-524.24 109.25,-534.24 112.75,-524.24 105.75,-524.24"/>
</a>
</g>
</g>
<!-- PiL0 -->
<g id="node4" class="node">
<title>PiL0</title>
<ellipse fill="none" stroke="black" cx="109.25" cy="-624.49" rx="27" ry="18"/>
<text text-anchor="middle" x="109.25" y="-620.79" font-family="Times-Roman" font-size="14.00">PiL</text>
</g>
<!-- PiL0&#45;&gt;!d0 -->
<g id="edge18" class="edge">
<title>PiL0&#45;&gt;!d0</title>
<g id="a_edge18"><a xlink:title="x2i_o2">
<path fill="none" stroke="blue" stroke-width="2" d="M109.25,-596.16C109.25,-587.55 109.25,-578.29 109.25,-570.6"/>
<polygon fill="blue" stroke="blue" stroke-width="2" points="105.75,-596.19 109.25,-606.19 112.75,-596.19 105.75,-596.19"/>
</a>
</g>
</g>
<!-- I1 -->
<g id="node5" class="node">
<title>I1</title>
<ellipse fill="none" stroke="black" cx="33.25" cy="-552.49" rx="27" ry="18"/>
<text text-anchor="middle" x="33.25" y="-548.79" font-family="Times-Roman" font-size="14.00">I</text>
</g>
<!-- PiL0&#45;&gt;I1 -->
<g id="edge16" class="edge">
<title>PiL0&#45;&gt;I1</title>
<g id="a_edge16"><a xlink:title="x1_o2r">
<path fill="none" stroke="red" d="M93.87,-609.33C83.05,-599.37 68.39,-585.86 56.2,-574.63"/>
<polygon fill="red" stroke="red" points="58.33,-571.84 48.6,-567.64 53.59,-576.99 58.33,-571.84"/>
</a>
</g>
</g>
<!-- Dup0_1 -->
<g id="node14" class="node">
<title>Dup0_1</title>
<ellipse fill="none" stroke="black" cx="29.25" cy="-465.25" rx="29.5" ry="18"/>
<text text-anchor="middle" x="29.25" y="-461.55" font-family="Times-Roman" font-size="14.00">Dup</text>
</g>
<!-- I1&#45;&gt;Dup0_1 -->
<g id="edge15" class="edge">
<title>I1&#45;&gt;Dup0_1</title>
<g id="a_edge15"><a xlink:title="x1_o2">
<path fill="none" stroke="blue" d="M31.96,-524.15C31.34,-510.8 30.6,-495.14 30.06,-483.47"/>
<polygon fill="blue" stroke="blue" points="28.47,-524.42 32.44,-534.24 35.47,-524.09 28.47,-524.42"/>
</a>
</g>
</g>
<!-- I2 -->
<g id="node6" class="node">
<title>I2</title>
<ellipse fill="none" stroke="black" cx="112.25" cy="-696.49" rx="27" ry="18"/>
<text text-anchor="middle" x="112.25" y="-692.79" font-family="Times-Roman" font-size="14.00">I</text>
</g>
<!-- I2&#45;&gt;PiL0 -->
<g id="edge12" class="edge">
<title>I2&#45;&gt;PiL0</title>
<g id="a_edge12"><a xlink:title="ret_o2l">
<path fill="none" stroke="blue" stroke-width="2" d="M111.08,-668.16C110.71,-659.55 110.31,-650.29 109.98,-642.6"/>
<polygon fill="blue" stroke="blue" stroke-width="2" points="107.58,-668.35 111.51,-678.19 114.57,-668.05 107.58,-668.35"/>
</a>
</g>
</g>
<!-- !p0 -->
<g id="node7" class="node">
<title>!p0</title>
<ellipse fill="none" stroke="black" cx="109.25" cy="-90" rx="27" ry="18"/>
<text text-anchor="middle" x="109.25" y="-86.3" font-family="Times-Roman" font-size="14.00">!p</text>
</g>
<!-- PiR0 -->
<g id="node9" class="node">
<title>PiR0</title>
<ellipse fill="none" stroke="black" cx="109.25" cy="-18" rx="27" ry="18"/>
<text text-anchor="middle" x="109.25" y="-14.3" font-family="Times-Roman" font-size="14.00">PiR</text>
</g>
<!-- !p0&#45;&gt;PiR0 -->
<g id="edge4" class="edge">
<title>!p0&#45;&gt;PiR0</title>
<g id="a_edge4"><a xlink:title="e2">
<path fill="none" stroke="red" d="M109.25,-71.7C109.25,-63.98 109.25,-54.71 109.25,-46.11"/>
<polygon fill="red" stroke="red" points="112.75,-46.1 109.25,-36.1 105.75,-46.1 112.75,-46.1"/>
</a>
</g>
</g>
<!-- Cut0&#45;&gt;!p0 -->
<g id="edge1" class="edge">
<title>Cut0&#45;&gt;!p0</title>
<g id="a_edge1"><a xlink:title="e0">
<path fill="none" stroke="red" d="M109.25,-143.7C109.25,-135.98 109.25,-126.71 109.25,-118.11"/>
<polygon fill="red" stroke="red" points="112.75,-118.1 109.25,-108.1 105.75,-118.1 112.75,-118.1"/>
</a>
</g>
</g>
<!-- PiR0&#45;&gt;Dup0_0 -->
<g id="edge7" class="edge">
<title>PiR0&#45;&gt;Dup0_0</title>
<g id="a_edge7"><a xlink:title="e6">
<path fill="none" stroke="red" d="M121.7,-34.43C129.39,-44.6 138.96,-58.48 145.25,-72 162.57,-109.26 170.25,-119.91 170.25,-161 170.25,-625.49 170.25,-625.49 170.25,-625.49 170.25,-667.52 157.12,-714.97 147.96,-743"/>
<ellipse fill="red" stroke="red" cx="146.64" cy="-746.91" rx="4" ry="4"/>
</a>
</g>
</g>
<!-- Cut1 -->
<g id="node10" class="node">
<title>Cut1</title>
<ellipse fill="none" stroke="black" cx="109.25" cy="-306" rx="27" ry="18"/>
<text text-anchor="middle" x="109.25" y="-302.3" font-family="Times-Roman" font-size="14.00">Cut</text>
</g>
<!-- Cut1&#45;&gt;I0 -->
<g id="edge14" class="edge">
<title>Cut1&#45;&gt;I0</title>
<g id="a_edge14"><a xlink:title="x1_o1r">
<path fill="none" stroke="red" d="M109.25,-287.7C109.25,-279.98 109.25,-270.71 109.25,-262.11"/>
<polygon fill="red" stroke="red" points="112.75,-262.1 109.25,-252.1 105.75,-262.1 112.75,-262.1"/>
</a>
</g>
</g>
<!-- !c0 -->
<g id="node11" class="node">
<title>!c0</title>
<ellipse fill="none" stroke="black" cx="37.25" cy="-378" rx="27" ry="18"/>
<text text-anchor="middle" x="37.25" y="-374.3" font-family="Times-Roman" font-size="14.00">!c</text>
</g>
<!-- !c0&#45;&gt;PiR0 -->
<g id="edge5" class="edge">
<title>!c0&#45;&gt;PiR0</title>
<g id="a_edge5"><a xlink:title="e4">
<path fill="none" stroke="blue" d="M39.98,-349.95C42.63,-321.41 46.25,-275.08 46.25,-235 46.25,-235 46.25,-235 46.25,-161 46.25,-119.66 55.43,-109.3 73.25,-72 79.67,-58.55 89.23,-44.66 96.89,-34.47"/>
<polygon fill="blue" stroke="blue" points="36.49,-349.69 39.03,-359.97 43.46,-350.35 36.49,-349.69"/>
</a>
</g>
</g>
<!-- !c1 -->
<g id="node12" class="node">
<title>!c1</title>
<ellipse fill="none" stroke="black" cx="109.25" cy="-378" rx="27" ry="18"/>
<text text-anchor="middle" x="109.25" y="-374.3" font-family="Times-Roman" font-size="14.00">!c</text>
</g>
<!-- !c1&#45;&gt;Cut1 -->
<g id="edge6" class="edge">
<title>!c1&#45;&gt;Cut1</title>
<g id="a_edge6"><a xlink:title="e5">
<path fill="none" stroke="blue" d="M109.25,-349.67C109.25,-341.05 109.25,-331.79 109.25,-324.1"/>
<polygon fill="blue" stroke="blue" points="105.75,-349.7 109.25,-359.7 112.75,-349.7 105.75,-349.7"/>
</a>
</g>
</g>
<!-- Dup0_0&#45;&gt;I2 -->
<g id="edge11" class="edge">
<title>Dup0_0&#45;&gt;I2</title>
<g id="a_edge11"><a xlink:title="ret_o2">
<path fill="none" stroke="red" stroke-width="2" d="M132.85,-750.91C129.73,-742.83 125.91,-732.93 122.41,-723.85"/>
<polygon fill="red" stroke="red" stroke-width="2" points="125.65,-722.52 118.79,-714.45 119.12,-725.04 125.65,-722.52"/>
</a>
</g>
</g>
<!-- Dup0_1&#45;&gt;!c0 -->
<g id="edge8" class="edge">
<title>Dup0_1&#45;&gt;!c0</title>
<g id="a_edge8"><a xlink:title="e8">
<path fill="none" stroke="blue" d="M31.63,-438.87C32.92,-425.11 34.48,-408.47 35.63,-396.23"/>
<ellipse fill="blue" stroke="blue" cx="31.24" cy="-443.01" rx="4" ry="4"/>
</a>
</g>
</g>
<!-- Dup0_1&#45;&gt;!c1 -->
<g id="edge2" class="edge">
<title>Dup0_1&#45;&gt;!c1</title>
<g id="a_edge2"><a xlink:title="e10">
<path fill="none" stroke="blue" d="M48.66,-443.56C63.14,-428.13 82.56,-407.43 95.47,-393.68"/>
<ellipse fill="none" stroke="blue" cx="45.92" cy="-446.48" rx="4" ry="4"/>
</a>
</g>
</g>
<!-- Dup0_2&#45;&gt;!c0 -->
<g id="edge9" class="edge">
<title>Dup0_2&#45;&gt;!c0</title>
<g id="a_edge9"><a xlink:title="e9">
<path fill="none" stroke="blue" d="M82.67,-432.78C71.5,-419.55 59.02,-404.77 49.97,-394.06"/>
<ellipse fill="blue" stroke="blue" cx="85.45" cy="-436.08" rx="4" ry="4"/>
</a>
</g>
</g>
<!-- Dup0_2&#45;&gt;!c1 -->
<g id="edge3" class="edge">
<title>Dup0_2&#45;&gt;!c1</title>
<g id="a_edge3"><a xlink:title="e11">
<path fill="none" stroke="blue" d="M109.25,-423.53C109.25,-413.91 109.25,-404.16 109.25,-396.25"/>
<ellipse fill="none" stroke="blue" cx="109.25" cy="-427.53" rx="4" ry="4"/>
</a>
</g>
</g>
</g>
</svg>
