<?xml version="1.0" encoding="UTF-8" standalone="no"?>
<!DOCTYPE svg PUBLIC "-//W3C//DTD SVG 1.1//EN"
 "http://www.w3.org/Graphics/SVG/1.1/DTD/svg11.dtd">
<!-- Generated by graphviz version 2.43.0 (0)
 -->
<!-- Title: %3 Pages: 1 -->
<svg width="223pt" height="1010pt"
 viewBox="0.00 0.00 222.55 1010.49" xmlns="http://www.w3.org/2000/svg" xmlns:xlink="http://www.w3.org/1999/xlink">
<g id="graph0" class="graph" transform="scale(1 1) rotate(0) translate(4 1006.49)">
<title>%3</title>
<polygon fill="white" stroke="transparent" points="-4,4 -4,-1006.49 218.55,-1006.49 218.55,4 -4,4"/>
<!-- Root0 -->
<g id="node1" class="node">
<title>Root0</title>
<ellipse fill="none" stroke="black" cx="30.55" cy="-984.49" rx="30.59" ry="18"/>
<text text-anchor="middle" x="30.55" y="-980.79" font-family="Times-Roman" font-size="14.00">Root</text>
</g>
<!-- Dup0_0 -->
<g id="node15" class="node">
<title>Dup0_0</title>
<ellipse fill="none" stroke="black" cx="30.55" cy="-912.49" rx="29.5" ry="18"/>
<text text-anchor="middle" x="30.55" y="-908.79" font-family="Times-Roman" font-size="14.00">Dup</text>
</g>
<!-- Root0&#45;&gt;Dup0_0 -->
<g id="edge16" class="edge">
<title>Root0&#45;&gt;Dup0_0</title>
<g id="a_edge16"><a xlink:title="ret">
<path fill="none" stroke="red" stroke-width="2" d="M30.55,-966.19C30.55,-957.88 30.55,-947.77 30.55,-938.64"/>
<ellipse fill="none" stroke="red" stroke-width="2" cx="30.55" cy="-934.6" rx="4" ry="4"/>
</a>
</g>
</g>
<!-- I0 -->
<g id="node2" class="node">
<title>I0</title>
<ellipse fill="none" stroke="black" cx="115.55" cy="-234" rx="27" ry="18"/>
<text text-anchor="middle" x="115.55" y="-230.3" font-family="Times-Roman" font-size="14.00">I</text>
</g>
<!-- Cut0 -->
<g id="node6" class="node">
<title>Cut0</title>
<ellipse fill="none" stroke="black" cx="113.55" cy="-162" rx="27" ry="18"/>
<text text-anchor="middle" x="113.55" y="-158.3" font-family="Times-Roman" font-size="14.00">Cut</text>
</g>
<!-- I0&#45;&gt;Cut0 -->
<g id="edge19" class="edge">
<title>I0&#45;&gt;Cut0</title>
<g id="a_edge19"><a xlink:title="x1_o1">
<path fill="none" stroke="blue" d="M114.77,-205.67C114.52,-197.05 114.26,-187.79 114.04,-180.1"/>
<polygon fill="blue" stroke="blue" points="111.27,-205.8 115.05,-215.7 118.27,-205.6 111.27,-205.8"/>
</a>
</g>
</g>
<!-- I1 -->
<g id="node3" class="node">
<title>I1</title>
<ellipse fill="none" stroke="black" cx="128.55" cy="-522" rx="27" ry="18"/>
<text text-anchor="middle" x="128.55" y="-518.3" font-family="Times-Roman" font-size="14.00">I</text>
</g>
<!-- Dup0_1 -->
<g id="node16" class="node">
<title>Dup0_1</title>
<ellipse fill="none" stroke="black" cx="113.55" cy="-450" rx="29.5" ry="18"/>
<text text-anchor="middle" x="113.55" y="-446.3" font-family="Times-Roman" font-size="14.00">Dup</text>
</g>
<!-- I1&#45;&gt;Dup0_1 -->
<g id="edge21" class="edge">
<title>I1&#45;&gt;Dup0_1</title>
<g id="a_edge21"><a xlink:title="x1_o2">
<path fill="none" stroke="blue" d="M122.76,-494.01C120.91,-485.36 118.91,-476.03 117.25,-468.28"/>
<polygon fill="blue" stroke="blue" points="119.4,-495.01 124.92,-504.05 126.24,-493.54 119.4,-495.01"/>
</a>
</g>
</g>
<!-- I2 -->
<g id="node4" class="node">
<title>I2</title>
<ellipse fill="none" stroke="black" cx="59.55" cy="-840.49" rx="27" ry="18"/>
<text text-anchor="middle" x="59.55" y="-836.79" font-family="Times-Roman" font-size="14.00">I</text>
</g>
<!-- Dup0_2 -->
<g id="node17" class="node">
<title>Dup0_2</title>
<ellipse fill="none" stroke="black" cx="62.55" cy="-753.25" rx="29.47" ry="29.47"/>
<ellipse fill="none" stroke="black" cx="62.55" cy="-753.25" rx="33.5" ry="33.5"/>
<text text-anchor="middle" x="62.55" y="-749.55" font-family="Times-Roman" font-size="14.00">Dup</text>
</g>
<!-- I2&#45;&gt;Dup0_2 -->
<g id="edge18" class="edge">
<title>I2&#45;&gt;Dup0_2</title>
<g id="a_edge18"><a xlink:title="ret_o2l">
<path fill="none" stroke="blue" stroke-width="2" d="M60.51,-812.17C60.79,-804.05 61.11,-795.06 61.41,-786.65"/>
<polygon fill="blue" stroke="blue" stroke-width="2" points="57.01,-812.13 60.15,-822.24 64,-812.37 57.01,-812.13"/>
</a>
</g>
</g>
<!-- !p0 -->
<g id="node5" class="node">
<title>!p0</title>
<ellipse fill="none" stroke="black" cx="112.55" cy="-90" rx="27" ry="18"/>
<text text-anchor="middle" x="112.55" y="-86.3" font-family="Times-Roman" font-size="14.00">!p</text>
</g>
<!-- PiR0 -->
<g id="node7" class="node">
<title>PiR0</title>
<ellipse fill="none" stroke="black" cx="56.55" cy="-18" rx="27" ry="18"/>
<text text-anchor="middle" x="56.55" y="-14.3" font-family="Times-Roman" font-size="14.00">PiR</text>
</g>
<!-- !p0&#45;&gt;PiR0 -->
<g id="edge10" class="edge">
<title>!p0&#45;&gt;PiR0</title>
<g id="a_edge10"><a xlink:title="e2">
<path fill="none" stroke="red" d="M100.4,-73.81C92.98,-64.55 83.36,-52.52 75.02,-42.09"/>
<polygon fill="red" stroke="red" points="77.65,-39.78 68.67,-34.16 72.19,-44.15 77.65,-39.78"/>
</a>
</g>
</g>
<!-- Cut0&#45;&gt;!p0 -->
<g id="edge1" class="edge">
<title>Cut0&#45;&gt;!p0</title>
<g id="a_edge1"><a xlink:title="e0">
<path fill="none" stroke="red" d="M113.3,-143.7C113.19,-135.98 113.06,-126.71 112.93,-118.11"/>
<polygon fill="red" stroke="red" points="116.43,-118.05 112.79,-108.1 109.43,-118.15 116.43,-118.05"/>
</a>
</g>
</g>
<!-- PiR0&#45;&gt;Dup0_0 -->
<g id="edge13" class="edge">
<title>PiR0&#45;&gt;Dup0_0</title>
<g id="a_edge13"><a xlink:title="e6">
<path fill="none" stroke="red" d="M45.94,-34.84C29.96,-60.28 1.55,-112.36 1.55,-161 1.55,-754.25 1.55,-754.25 1.55,-754.25 1.55,-801.7 14.48,-855.89 23.07,-886.66"/>
<ellipse fill="red" stroke="red" cx="24.26" cy="-890.85" rx="4" ry="4"/>
</a>
</g>
</g>
<!-- Cut1 -->
<g id="node8" class="node">
<title>Cut1</title>
<ellipse fill="none" stroke="black" cx="119.55" cy="-306" rx="27" ry="18"/>
<text text-anchor="middle" x="119.55" y="-302.3" font-family="Times-Roman" font-size="14.00">Cut</text>
</g>
<!-- Cut1&#45;&gt;I0 -->
<g id="edge20" class="edge">
<title>Cut1&#45;&gt;I0</title>
<g id="a_edge20"><a xlink:title="x1_o1r">
<path fill="none" stroke="red" d="M118.56,-287.7C118.12,-279.98 117.59,-270.71 117.1,-262.11"/>
<polygon fill="red" stroke="red" points="120.59,-261.89 116.52,-252.1 113.6,-262.29 120.59,-261.89"/>
</a>
</g>
</g>
<!-- !c0 -->
<g id="node9" class="node">
<title>!c0</title>
<ellipse fill="none" stroke="black" cx="56.55" cy="-378" rx="27" ry="18"/>
<text text-anchor="middle" x="56.55" y="-374.3" font-family="Times-Roman" font-size="14.00">!c</text>
</g>
<!-- !c0&#45;&gt;PiR0 -->
<g id="edge11" class="edge">
<title>!c0&#45;&gt;PiR0</title>
<g id="a_edge11"><a xlink:title="e4">
<path fill="none" stroke="blue" d="M56.55,-349.92C56.55,-321.35 56.55,-275 56.55,-235 56.55,-235 56.55,-235 56.55,-161 56.55,-115.89 56.55,-62.71 56.55,-36.05"/>
<polygon fill="blue" stroke="blue" points="53.05,-349.95 56.55,-359.95 60.05,-349.95 53.05,-349.95"/>
</a>
</g>
</g>
<!-- !c1 -->
<g id="node10" class="node">
<title>!c1</title>
<ellipse fill="none" stroke="black" cx="128.55" cy="-378" rx="27" ry="18"/>
<text text-anchor="middle" x="128.55" y="-374.3" font-family="Times-Roman" font-size="14.00">!c</text>
</g>
<!-- !c1&#45;&gt;Cut1 -->
<g id="edge12" class="edge">
<title>!c1&#45;&gt;Cut1</title>
<g id="a_edge12"><a xlink:title="e5">
<path fill="none" stroke="blue" d="M125.08,-350.01C123.97,-341.36 122.77,-332.03 121.77,-324.28"/>
<polygon fill="blue" stroke="blue" points="121.62,-350.58 126.37,-360.05 128.56,-349.69 121.62,-350.58"/>
</a>
</g>
</g>
<!-- !d0 -->
<g id="node11" class="node">
<title>!d0</title>
<ellipse fill="none" stroke="black" cx="56.55" cy="-522" rx="27" ry="18"/>
<text text-anchor="middle" x="56.55" y="-518.3" font-family="Times-Roman" font-size="14.00">!d</text>
</g>
<!-- !d0&#45;&gt;!c0 -->
<g id="edge15" class="edge">
<title>!d0&#45;&gt;!c0</title>
<g id="a_edge15"><a xlink:title="e9">
<path fill="none" stroke="blue" d="M56.55,-493.68C56.55,-464.89 56.55,-420.42 56.55,-396.19"/>
<polygon fill="blue" stroke="blue" points="53.05,-493.87 56.55,-503.87 60.05,-493.87 53.05,-493.87"/>
</a>
</g>
</g>
<!-- !d1 -->
<g id="node12" class="node">
<title>!d1</title>
<ellipse fill="none" stroke="black" cx="187.55" cy="-450" rx="27" ry="18"/>
<text text-anchor="middle" x="187.55" y="-446.3" font-family="Times-Roman" font-size="14.00">!d</text>
</g>
<!-- !d1&#45;&gt;!c1 -->
<g id="edge3" class="edge">
<title>!d1&#45;&gt;!c1</title>
<g id="a_edge3"><a xlink:title="e11">
<path fill="none" stroke="blue" d="M168.05,-425.87C159.26,-415.44 149.13,-403.42 141.32,-394.16"/>
<polygon fill="blue" stroke="blue" points="165.62,-428.42 174.75,-433.81 170.98,-423.91 165.62,-428.42"/>
</a>
</g>
</g>
<!-- PiL0 -->
<g id="node13" class="node">
<title>PiL0</title>
<ellipse fill="none" stroke="black" cx="59.55" cy="-666" rx="27" ry="18"/>
<text text-anchor="middle" x="59.55" y="-662.3" font-family="Times-Roman" font-size="14.00">PiL</text>
</g>
<!-- PiL0&#45;&gt;!d0 -->
<g id="edge4" class="edge">
<title>PiL0&#45;&gt;!d0</title>
<g id="a_edge4"><a xlink:title="e12">
<path fill="none" stroke="blue" d="M58.97,-637.68C58.36,-608.89 57.42,-564.42 56.91,-540.19"/>
<polygon fill="blue" stroke="blue" points="55.47,-637.95 59.19,-647.87 62.47,-637.8 55.47,-637.95"/>
</a>
</g>
</g>
<!-- Dup0_3 -->
<g id="node18" class="node">
<title>Dup0_3</title>
<ellipse fill="none" stroke="black" cx="128.55" cy="-594" rx="29.5" ry="18"/>
<text text-anchor="middle" x="128.55" y="-590.3" font-family="Times-Roman" font-size="14.00">Dup</text>
</g>
<!-- PiL0&#45;&gt;Dup0_3 -->
<g id="edge8" class="edge">
<title>PiL0&#45;&gt;Dup0_3</title>
<g id="a_edge8"><a xlink:title="e16">
<path fill="none" stroke="red" d="M73.84,-650.5C83.7,-640.49 96.96,-627.05 107.95,-615.89"/>
<ellipse fill="red" stroke="red" cx="110.98" cy="-612.82" rx="4" ry="4"/>
</a>
</g>
</g>
<!-- PiL1 -->
<g id="node14" class="node">
<title>PiL1</title>
<ellipse fill="none" stroke="black" cx="131.55" cy="-666" rx="27" ry="18"/>
<text text-anchor="middle" x="131.55" y="-662.3" font-family="Times-Roman" font-size="14.00">PiL</text>
</g>
<!-- PiL1&#45;&gt;!d1 -->
<g id="edge5" class="edge">
<title>PiL1&#45;&gt;!d1</title>
<g id="a_edge5"><a xlink:title="e13">
<path fill="none" stroke="blue" d="M150.32,-641.59C156.45,-632.78 162.68,-622.38 166.55,-612 185.15,-562.08 187.73,-498.11 187.81,-468.05"/>
<polygon fill="blue" stroke="blue" points="147.39,-639.66 144.3,-649.8 153.04,-643.8 147.39,-639.66"/>
</a>
</g>
</g>
<!-- PiL1&#45;&gt;Dup0_3 -->
<g id="edge9" class="edge">
<title>PiL1&#45;&gt;Dup0_3</title>
<g id="a_edge9"><a xlink:title="e17">
<path fill="none" stroke="red" d="M130.81,-647.7C130.45,-639.39 130.02,-629.28 129.62,-620.14"/>
<ellipse fill="none" stroke="red" cx="129.45" cy="-616.1" rx="4" ry="4"/>
</a>
</g>
</g>
<!-- Dup0_0&#45;&gt;I2 -->
<g id="edge17" class="edge">
<title>Dup0_0&#45;&gt;I2</title>
<g id="a_edge17"><a xlink:title="ret_o2">
<path fill="none" stroke="red" stroke-width="2" d="M37.42,-894.91C40.81,-886.71 44.99,-876.63 48.79,-867.45"/>
<polygon fill="red" stroke="red" stroke-width="2" points="52.13,-868.54 52.72,-857.96 45.66,-865.86 52.13,-868.54"/>
</a>
</g>
</g>
<!-- Dup0_1&#45;&gt;!c0 -->
<g id="edge14" class="edge">
<title>Dup0_1&#45;&gt;!c0</title>
<g id="a_edge14"><a xlink:title="e8">
<path fill="none" stroke="blue" d="M95.76,-427.16C87.13,-416.56 76.98,-404.09 69.16,-394.49"/>
<ellipse fill="blue" stroke="blue" cx="98.37" cy="-430.36" rx="4" ry="4"/>
</a>
</g>
</g>
<!-- Dup0_1&#45;&gt;!c1 -->
<g id="edge2" class="edge">
<title>Dup0_1&#45;&gt;!c1</title>
<g id="a_edge2"><a xlink:title="e10">
<path fill="none" stroke="blue" d="M118.91,-423.99C120.87,-414.81 123.06,-404.63 124.85,-396.28"/>
<ellipse fill="none" stroke="blue" cx="118.02" cy="-428.14" rx="4" ry="4"/>
</a>
</g>
</g>
<!-- Dup0_2&#45;&gt;PiL0 -->
<g id="edge6" class="edge">
<title>Dup0_2&#45;&gt;PiL0</title>
<g id="a_edge6"><a xlink:title="e14">
<path fill="none" stroke="blue" d="M61.13,-711.97C60.79,-702.29 60.44,-692.45 60.16,-684.46"/>
<ellipse fill="blue" stroke="blue" cx="61.27" cy="-716.02" rx="4" ry="4"/>
</a>
</g>
</g>
<!-- Dup0_2&#45;&gt;PiL1 -->
<g id="edge7" class="edge">
<title>Dup0_2&#45;&gt;PiL1</title>
<g id="a_edge7"><a xlink:title="e15">
<path fill="none" stroke="blue" d="M88.34,-720.38C98.94,-707.29 110.71,-692.74 119.29,-682.15"/>
<ellipse fill="none" stroke="blue" cx="85.77" cy="-723.56" rx="4" ry="4"/>
</a>
</g>
</g>
<!-- Dup0_3&#45;&gt;I1 -->
<g id="edge22" class="edge">
<title>Dup0_3&#45;&gt;I1</title>
<g id="a_edge22"><a xlink:title="x1_o2r">
<path fill="none" stroke="red" d="M128.55,-575.7C128.55,-567.98 128.55,-558.71 128.55,-550.11"/>
<polygon fill="red" stroke="red" points="132.05,-550.1 128.55,-540.1 125.05,-550.1 132.05,-550.1"/>
</a>
</g>
</g>
</g>
</svg>
