<?xml version="1.0" encoding="UTF-8" standalone="no"?>
<!DOCTYPE svg PUBLIC "-//W3C//DTD SVG 1.1//EN"
 "http://www.w3.org/Graphics/SVG/1.1/DTD/svg11.dtd">
<!-- Generated by graphviz version 2.43.0 (0)
 -->
<!-- Title: %3 Pages: 1 -->
<svg width="198pt" height="866pt"
 viewBox="0.00 0.00 198.00 866.49" xmlns="http://www.w3.org/2000/svg" xmlns:xlink="http://www.w3.org/1999/xlink">
<g id="graph0" class="graph" transform="scale(1 1) rotate(0) translate(4 862.49)">
<title>%3</title>
<polygon fill="white" stroke="transparent" points="-4,4 -4,-862.49 194,-862.49 194,4 -4,4"/>
<!-- Root0 -->
<g id="node1" class="node">
<title>Root0</title>
<ellipse fill="none" stroke="black" cx="126" cy="-840.49" rx="30.59" ry="18"/>
<text text-anchor="middle" x="126" y="-836.79" font-family="Times-Roman" font-size="14.00">Root</text>
</g>
<!-- I3 -->
<g id="node10" class="node">
<title>I3</title>
<ellipse fill="none" stroke="black" cx="126" cy="-768.49" rx="27" ry="18"/>
<text text-anchor="middle" x="126" y="-764.79" font-family="Times-Roman" font-size="14.00">I</text>
</g>
<!-- Root0&#45;&gt;I3 -->
<g id="edge5" class="edge">
<title>Root0&#45;&gt;I3</title>
<g id="a_edge5"><a xlink:title="ret">
<path fill="none" stroke="red" stroke-width="2" d="M126,-822.19C126,-814.48 126,-805.21 126,-796.61"/>
<polygon fill="red" stroke="red" stroke-width="2" points="129.5,-796.6 126,-786.6 122.5,-796.6 129.5,-796.6"/>
</a>
</g>
</g>
<!-- PiL0 -->
<g id="node2" class="node">
<title>PiL0</title>
<ellipse fill="none" stroke="black" cx="126" cy="-696.49" rx="27" ry="18"/>
<text text-anchor="middle" x="126" y="-692.79" font-family="Times-Roman" font-size="14.00">PiL</text>
</g>
<!-- I0 -->
<g id="node3" class="node">
<title>I0</title>
<ellipse fill="none" stroke="black" cx="95" cy="-624.49" rx="27" ry="18"/>
<text text-anchor="middle" x="95" y="-620.79" font-family="Times-Roman" font-size="14.00">I</text>
</g>
<!-- PiL0&#45;&gt;I0 -->
<g id="edge10" class="edge">
<title>PiL0&#45;&gt;I0</title>
<g id="a_edge10"><a xlink:title="x1_o1r">
<path fill="none" stroke="red" d="M118.65,-678.91C114.99,-670.62 110.47,-660.42 106.36,-651.16"/>
<polygon fill="red" stroke="red" points="109.54,-649.69 102.29,-641.96 103.14,-652.53 109.54,-649.69"/>
</a>
</g>
</g>
<!-- Cut1 -->
<g id="node14" class="node">
<title>Cut1</title>
<ellipse fill="none" stroke="black" cx="163" cy="-552.49" rx="27" ry="18"/>
<text text-anchor="middle" x="163" y="-548.79" font-family="Times-Roman" font-size="14.00">Cut</text>
</g>
<!-- PiL0&#45;&gt;Cut1 -->
<g id="edge14" class="edge">
<title>PiL0&#45;&gt;Cut1</title>
<g id="a_edge14"><a xlink:title="x2i_o1">
<path fill="none" stroke="blue" stroke-width="2" d="M132.95,-668.8C140.49,-639.89 152.28,-594.65 158.62,-570.32"/>
<polygon fill="blue" stroke="blue" stroke-width="2" points="129.52,-668.09 130.39,-678.65 136.3,-669.85 129.52,-668.09"/>
</a>
</g>
</g>
<!-- Cut0 -->
<g id="node13" class="node">
<title>Cut0</title>
<ellipse fill="none" stroke="black" cx="91" cy="-552.49" rx="27" ry="18"/>
<text text-anchor="middle" x="91" y="-548.79" font-family="Times-Roman" font-size="14.00">Cut</text>
</g>
<!-- I0&#45;&gt;Cut0 -->
<g id="edge9" class="edge">
<title>I0&#45;&gt;Cut0</title>
<g id="a_edge9"><a xlink:title="x1_o1">
<path fill="none" stroke="blue" d="M93.44,-596.16C92.95,-587.55 92.42,-578.29 91.98,-570.6"/>
<polygon fill="blue" stroke="blue" points="89.95,-596.41 94.01,-606.19 96.93,-596.01 89.95,-596.41"/>
</a>
</g>
</g>
<!-- PiR0 -->
<g id="node4" class="node">
<title>PiR0</title>
<ellipse fill="none" stroke="black" cx="126" cy="-306" rx="27" ry="18"/>
<text text-anchor="middle" x="126" y="-302.3" font-family="Times-Roman" font-size="14.00">PiR</text>
</g>
<!-- I2 -->
<g id="node9" class="node">
<title>I2</title>
<ellipse fill="none" stroke="black" cx="99" cy="-234" rx="27" ry="18"/>
<text text-anchor="middle" x="99" y="-230.3" font-family="Times-Roman" font-size="14.00">I</text>
</g>
<!-- PiR0&#45;&gt;I2 -->
<g id="edge7" class="edge">
<title>PiR0&#45;&gt;I2</title>
<g id="a_edge7"><a xlink:title="ret_o2">
<path fill="none" stroke="red" d="M119.6,-288.41C116.49,-280.34 112.67,-270.43 109.17,-261.35"/>
<polygon fill="red" stroke="red" points="112.4,-260.03 105.54,-251.96 105.87,-262.55 112.4,-260.03"/>
</a>
</g>
</g>
<!-- !c0 -->
<g id="node5" class="node">
<title>!c0</title>
<ellipse fill="none" stroke="black" cx="99" cy="-18" rx="27" ry="18"/>
<text text-anchor="middle" x="99" y="-14.3" font-family="Times-Roman" font-size="14.00">!c</text>
</g>
<!-- !c0&#45;&gt;PiR0 -->
<g id="edge16" class="edge">
<title>!c0&#45;&gt;PiR0</title>
<g id="a_edge16"><a xlink:title="x_o2">
<path fill="none" stroke="blue" d="M119.07,-42.08C125.46,-50.85 131.71,-61.31 135,-72 158.92,-149.77 139.73,-249.06 130.38,-288.13"/>
<polygon fill="blue" stroke="blue" points="121.65,-39.69 112.75,-33.93 116.12,-43.98 121.65,-39.69"/>
</a>
</g>
</g>
<!-- !d0 -->
<g id="node6" class="node">
<title>!d0</title>
<ellipse fill="none" stroke="black" cx="27" cy="-90" rx="27" ry="18"/>
<text text-anchor="middle" x="27" y="-86.3" font-family="Times-Roman" font-size="14.00">!d</text>
</g>
<!-- !d0&#45;&gt;!c0 -->
<g id="edge13" class="edge">
<title>!d0&#45;&gt;!c0</title>
<g id="a_edge13"><a xlink:title="x2_o2">
<path fill="none" stroke="blue" d="M49.04,-67.57C60.45,-56.48 74.07,-43.24 84.2,-33.38"/>
<polygon fill="blue" stroke="blue" points="46.3,-65.35 41.57,-74.83 51.18,-70.37 46.3,-65.35"/>
</a>
</g>
</g>
<!-- PiL1 -->
<g id="node7" class="node">
<title>PiL1</title>
<ellipse fill="none" stroke="black" cx="99" cy="-162" rx="27" ry="18"/>
<text text-anchor="middle" x="99" y="-158.3" font-family="Times-Roman" font-size="14.00">PiL</text>
</g>
<!-- PiL1&#45;&gt;!d0 -->
<g id="edge15" class="edge">
<title>PiL1&#45;&gt;!d0</title>
<g id="a_edge15"><a xlink:title="x2i_o2">
<path fill="none" stroke="blue" d="M76.96,-139.57C65.55,-128.48 51.93,-115.24 41.8,-105.38"/>
<polygon fill="blue" stroke="blue" points="74.82,-142.37 84.43,-146.83 79.7,-137.35 74.82,-142.37"/>
</a>
</g>
</g>
<!-- I1 -->
<g id="node8" class="node">
<title>I1</title>
<ellipse fill="none" stroke="black" cx="99" cy="-90" rx="27" ry="18"/>
<text text-anchor="middle" x="99" y="-86.3" font-family="Times-Roman" font-size="14.00">I</text>
</g>
<!-- PiL1&#45;&gt;I1 -->
<g id="edge12" class="edge">
<title>PiL1&#45;&gt;I1</title>
<g id="a_edge12"><a xlink:title="x1_o2r">
<path fill="none" stroke="red" d="M99,-143.7C99,-135.98 99,-126.71 99,-118.11"/>
<polygon fill="red" stroke="red" points="102.5,-118.1 99,-108.1 95.5,-118.1 102.5,-118.1"/>
</a>
</g>
</g>
<!-- I1&#45;&gt;!c0 -->
<g id="edge11" class="edge">
<title>I1&#45;&gt;!c0</title>
<g id="a_edge11"><a xlink:title="x1_o2">
<path fill="none" stroke="blue" d="M99,-61.67C99,-53.05 99,-43.79 99,-36.1"/>
<polygon fill="blue" stroke="blue" points="95.5,-61.7 99,-71.7 102.5,-61.7 95.5,-61.7"/>
</a>
</g>
</g>
<!-- I2&#45;&gt;PiL1 -->
<g id="edge8" class="edge">
<title>I2&#45;&gt;PiL1</title>
<g id="a_edge8"><a xlink:title="ret_o2l">
<path fill="none" stroke="blue" d="M99,-205.67C99,-197.05 99,-187.79 99,-180.1"/>
<polygon fill="blue" stroke="blue" points="95.5,-205.7 99,-215.7 102.5,-205.7 95.5,-205.7"/>
</a>
</g>
</g>
<!-- I3&#45;&gt;PiL0 -->
<g id="edge6" class="edge">
<title>I3&#45;&gt;PiL0</title>
<g id="a_edge6"><a xlink:title="ret_o1l">
<path fill="none" stroke="blue" stroke-width="2" d="M126,-740.16C126,-731.55 126,-722.29 126,-714.6"/>
<polygon fill="blue" stroke="blue" stroke-width="2" points="122.5,-740.19 126,-750.19 129.5,-740.19 122.5,-740.19"/>
</a>
</g>
</g>
<!-- Dup0_0 -->
<g id="node11" class="node">
<title>Dup0_0</title>
<ellipse fill="none" stroke="black" cx="126" cy="-393.25" rx="29.47" ry="29.47"/>
<ellipse fill="none" stroke="black" cx="126" cy="-393.25" rx="33.5" ry="33.5"/>
<text text-anchor="middle" x="126" y="-389.55" font-family="Times-Roman" font-size="14.00">Dup</text>
</g>
<!-- Dup0_0&#45;&gt;PiR0 -->
<g id="edge4" class="edge">
<title>Dup0_0&#45;&gt;PiR0</title>
<g id="a_edge4"><a xlink:title="o2">
<path fill="none" stroke="red" d="M126,-359.53C126,-351.27 126,-342.48 126,-334.5"/>
<polygon fill="red" stroke="red" points="129.5,-334.25 126,-324.25 122.5,-334.25 129.5,-334.25"/>
</a>
</g>
</g>
<!-- !p0 -->
<g id="node12" class="node">
<title>!p0</title>
<ellipse fill="none" stroke="black" cx="99" cy="-480.49" rx="27" ry="18"/>
<text text-anchor="middle" x="99" y="-476.79" font-family="Times-Roman" font-size="14.00">!p</text>
</g>
<!-- !p0&#45;&gt;Dup0_0 -->
<g id="edge2" class="edge">
<title>!p0&#45;&gt;Dup0_0</title>
<g id="a_edge2"><a xlink:title="e2">
<path fill="none" stroke="red" d="M104.33,-462.65C107.03,-454.15 110.42,-443.44 113.71,-433.05"/>
<ellipse fill="red" stroke="red" cx="114.99" cy="-429.01" rx="4" ry="4"/>
</a>
</g>
</g>
<!-- Cut0&#45;&gt;!p0 -->
<g id="edge1" class="edge">
<title>Cut0&#45;&gt;!p0</title>
<g id="a_edge1"><a xlink:title="e0">
<path fill="none" stroke="red" d="M92.98,-534.19C93.86,-526.48 94.92,-517.21 95.9,-508.61"/>
<polygon fill="red" stroke="red" points="99.39,-508.93 97.05,-498.6 92.43,-508.14 99.39,-508.93"/>
</a>
</g>
</g>
<!-- Cut1&#45;&gt;Dup0_0 -->
<g id="edge3" class="edge">
<title>Cut1&#45;&gt;Dup0_0</title>
<g id="a_edge3"><a xlink:title="e3">
<path fill="none" stroke="red" stroke-width="2" d="M159.04,-534.67C153.42,-510.78 142.96,-466.35 135.32,-433.84"/>
<ellipse fill="none" stroke="red" stroke-width="2" cx="134.35" cy="-429.74" rx="4" ry="4"/>
</a>
</g>
</g>
</g>
</svg>
