<?xml version="1.0" encoding="UTF-8" standalone="no"?>
<!DOCTYPE svg PUBLIC "-//W3C//DTD SVG 1.1//EN"
 "http://www.w3.org/Graphics/SVG/1.1/DTD/svg11.dtd">
<!-- Generated by graphviz version 2.43.0 (0)
 -->
<!-- Title: %3 Pages: 1 -->
<svg width="415pt" height="1658pt"
 viewBox="0.00 0.00 415.00 1658.49" xmlns="http://www.w3.org/2000/svg" xmlns:xlink="http://www.w3.org/1999/xlink">
<g id="graph0" class="graph" transform="scale(1 1) rotate(0) translate(4 1654.49)">
<title>%3</title>
<polygon fill="white" stroke="transparent" points="-4,4 -4,-1654.49 411,-1654.49 411,4 -4,4"/>
<!-- Root0 -->
<g id="node1" class="node">
<title>Root0</title>
<ellipse fill="none" stroke="black" cx="173" cy="-1632.49" rx="30.59" ry="18"/>
<text text-anchor="middle" x="173" y="-1628.79" font-family="Times-Roman" font-size="14.00">Root</text>
</g>
<!-- I0 -->
<g id="node2" class="node">
<title>I0</title>
<ellipse fill="none" stroke="black" cx="173" cy="-1560.49" rx="27" ry="18"/>
<text text-anchor="middle" x="173" y="-1556.79" font-family="Times-Roman" font-size="14.00">I</text>
</g>
<!-- Root0&#45;&gt;I0 -->
<g id="edge39" class="edge">
<title>Root0&#45;&gt;I0</title>
<g id="a_edge39"><a xlink:title="rettop">
<path fill="none" stroke="red" stroke-width="2" d="M173,-1614.19C173,-1606.48 173,-1597.21 173,-1588.61"/>
<polygon fill="red" stroke="red" stroke-width="2" points="176.5,-1588.6 173,-1578.6 169.5,-1588.6 176.5,-1588.6"/>
</a>
</g>
</g>
<!-- PiL4 -->
<g id="node25" class="node">
<title>PiL4</title>
<ellipse fill="none" stroke="black" cx="173" cy="-1488.49" rx="27" ry="18"/>
<text text-anchor="middle" x="173" y="-1484.79" font-family="Times-Roman" font-size="14.00">PiL</text>
</g>
<!-- I0&#45;&gt;PiL4 -->
<g id="edge14" class="edge">
<title>I0&#45;&gt;PiL4</title>
<g id="a_edge14"><a xlink:title="e32">
<path fill="none" stroke="blue" stroke-width="2" d="M173,-1532.16C173,-1523.55 173,-1514.29 173,-1506.6"/>
<polygon fill="blue" stroke="blue" stroke-width="2" points="169.5,-1532.19 173,-1542.19 176.5,-1532.19 169.5,-1532.19"/>
</a>
</g>
</g>
<!-- !p0 -->
<g id="node3" class="node">
<title>!p0</title>
<ellipse fill="none" stroke="black" cx="109" cy="-1056.49" rx="27" ry="18"/>
<text text-anchor="middle" x="109" y="-1052.79" font-family="Times-Roman" font-size="14.00">!p</text>
</g>
<!-- PiR0 -->
<g id="node5" class="node">
<title>PiR0</title>
<ellipse fill="none" stroke="black" cx="109" cy="-984.49" rx="27" ry="18"/>
<text text-anchor="middle" x="109" y="-980.79" font-family="Times-Roman" font-size="14.00">PiR</text>
</g>
<!-- !p0&#45;&gt;PiR0 -->
<g id="edge17" class="edge">
<title>!p0&#45;&gt;PiR0</title>
<g id="a_edge17"><a xlink:title="e39">
<path fill="none" stroke="red" d="M109,-1038.19C109,-1030.48 109,-1021.21 109,-1012.61"/>
<polygon fill="red" stroke="red" points="112.5,-1012.6 109,-1002.6 105.5,-1012.6 112.5,-1012.6"/>
</a>
</g>
</g>
<!-- Cut0 -->
<g id="node4" class="node">
<title>Cut0</title>
<ellipse fill="none" stroke="black" cx="109" cy="-1128.49" rx="27" ry="18"/>
<text text-anchor="middle" x="109" y="-1124.79" font-family="Times-Roman" font-size="14.00">Cut</text>
</g>
<!-- Cut0&#45;&gt;!p0 -->
<g id="edge16" class="edge">
<title>Cut0&#45;&gt;!p0</title>
<g id="a_edge16"><a xlink:title="e37">
<path fill="none" stroke="red" d="M109,-1110.19C109,-1102.48 109,-1093.21 109,-1084.61"/>
<polygon fill="red" stroke="red" points="112.5,-1084.6 109,-1074.6 105.5,-1084.6 112.5,-1084.6"/>
</a>
</g>
</g>
<!-- I1 -->
<g id="node10" class="node">
<title>I1</title>
<ellipse fill="none" stroke="black" cx="114" cy="-912.49" rx="27" ry="18"/>
<text text-anchor="middle" x="114" y="-908.79" font-family="Times-Roman" font-size="14.00">I</text>
</g>
<!-- PiR0&#45;&gt;I1 -->
<g id="edge19" class="edge">
<title>PiR0&#45;&gt;I1</title>
<g id="a_edge19"><a xlink:title="e43">
<path fill="none" stroke="red" d="M110.24,-966.19C110.79,-958.48 111.45,-949.21 112.06,-940.61"/>
<polygon fill="red" stroke="red" points="115.56,-940.82 112.78,-930.6 108.57,-940.32 115.56,-940.82"/>
</a>
</g>
</g>
<!-- !c0 -->
<g id="node6" class="node">
<title>!c0</title>
<ellipse fill="none" stroke="black" cx="111" cy="-465.25" rx="27" ry="18"/>
<text text-anchor="middle" x="111" y="-461.55" font-family="Times-Roman" font-size="14.00">!c</text>
</g>
<!-- !c0&#45;&gt;PiR0 -->
<g id="edge18" class="edge">
<title>!c0&#45;&gt;PiR0</title>
<g id="a_edge18"><a xlink:title="e41">
<path fill="none" stroke="blue" d="M96.99,-491.69C81.59,-522.1 59,-574.98 59,-623.49 59,-841.49 59,-841.49 59,-841.49 59,-881.94 63.38,-892.78 78,-930.49 83.16,-943.81 91.41,-957.71 98.11,-967.93"/>
<polygon fill="blue" stroke="blue" points="100.19,-493.13 101.7,-482.64 93.98,-489.9 100.19,-493.13"/>
</a>
</g>
</g>
<!-- !d0 -->
<g id="node7" class="node">
<title>!d0</title>
<ellipse fill="none" stroke="black" cx="205" cy="-624.49" rx="27" ry="18"/>
<text text-anchor="middle" x="205" y="-620.79" font-family="Times-Roman" font-size="14.00">!d</text>
</g>
<!-- !d0&#45;&gt;!c0 -->
<g id="edge20" class="edge">
<title>!d0&#45;&gt;!c0</title>
<g id="a_edge20"><a xlink:title="e46">
<path fill="none" stroke="blue" d="M218.86,-598.27C227.19,-579.4 234.06,-553.66 222,-534.49 202.31,-503.2 177.74,-519.04 147,-498.49 139.33,-493.37 131.6,-486.69 125.28,-480.75"/>
<polygon fill="blue" stroke="blue" points="215.63,-596.91 214.46,-607.44 221.94,-599.94 215.63,-596.91"/>
</a>
</g>
</g>
<!-- PiL0 -->
<g id="node8" class="node">
<title>PiL0</title>
<ellipse fill="none" stroke="black" cx="186" cy="-768.49" rx="27" ry="18"/>
<text text-anchor="middle" x="186" y="-764.79" font-family="Times-Roman" font-size="14.00">PiL</text>
</g>
<!-- PiL0&#45;&gt;!d0 -->
<g id="edge22" class="edge">
<title>PiL0&#45;&gt;!d0</title>
<g id="a_edge22"><a xlink:title="e49">
<path fill="none" stroke="blue" d="M184.59,-740.1C184.18,-722.4 184.57,-698.94 188,-678.49 190.08,-666.11 194.43,-652.63 198.21,-642.37"/>
<polygon fill="blue" stroke="blue" points="181.1,-740.42 184.93,-750.3 188.1,-740.18 181.1,-740.42"/>
</a>
</g>
</g>
<!-- !p1 -->
<g id="node13" class="node">
<title>!p1</title>
<ellipse fill="none" stroke="black" cx="224" cy="-696.49" rx="27" ry="18"/>
<text text-anchor="middle" x="224" y="-692.79" font-family="Times-Roman" font-size="14.00">!p</text>
</g>
<!-- PiL0&#45;&gt;!p1 -->
<g id="edge24" class="edge">
<title>PiL0&#45;&gt;!p1</title>
<g id="a_edge24"><a xlink:title="e53">
<path fill="none" stroke="red" d="M194.81,-751.26C199.42,-742.78 205.16,-732.21 210.32,-722.69"/>
<polygon fill="red" stroke="red" points="213.54,-724.1 215.23,-713.64 207.39,-720.76 213.54,-724.1"/>
</a>
</g>
</g>
<!-- PiL1 -->
<g id="node9" class="node">
<title>PiL1</title>
<ellipse fill="none" stroke="black" cx="114" cy="-840.49" rx="27" ry="18"/>
<text text-anchor="middle" x="114" y="-836.79" font-family="Times-Roman" font-size="14.00">PiL</text>
</g>
<!-- PiL1&#45;&gt;PiL0 -->
<g id="edge23" class="edge">
<title>PiL1&#45;&gt;PiL0</title>
<g id="a_edge23"><a xlink:title="e51">
<path fill="none" stroke="blue" d="M136.04,-818.06C147.45,-806.97 161.07,-793.73 171.2,-783.88"/>
<polygon fill="blue" stroke="blue" points="133.3,-815.85 128.57,-825.33 138.18,-820.87 133.3,-815.85"/>
</a>
</g>
</g>
<!-- !p3 -->
<g id="node18" class="node">
<title>!p3</title>
<ellipse fill="none" stroke="black" cx="114" cy="-768.49" rx="27" ry="18"/>
<text text-anchor="middle" x="114" y="-764.79" font-family="Times-Roman" font-size="14.00">!p</text>
</g>
<!-- PiL1&#45;&gt;!p3 -->
<g id="edge26" class="edge">
<title>PiL1&#45;&gt;!p3</title>
<g id="a_edge26"><a xlink:title="e57">
<path fill="none" stroke="red" d="M114,-822.19C114,-814.48 114,-805.21 114,-796.61"/>
<polygon fill="red" stroke="red" points="117.5,-796.6 114,-786.6 110.5,-796.6 117.5,-796.6"/>
</a>
</g>
</g>
<!-- I1&#45;&gt;PiL1 -->
<g id="edge25" class="edge">
<title>I1&#45;&gt;PiL1</title>
<g id="a_edge25"><a xlink:title="e55">
<path fill="none" stroke="blue" d="M114,-884.16C114,-875.55 114,-866.29 114,-858.6"/>
<polygon fill="blue" stroke="blue" points="110.5,-884.19 114,-894.19 117.5,-884.19 110.5,-884.19"/>
</a>
</g>
</g>
<!-- !d1 -->
<g id="node11" class="node">
<title>!d1</title>
<ellipse fill="none" stroke="black" cx="126" cy="-162" rx="27" ry="18"/>
<text text-anchor="middle" x="126" y="-158.3" font-family="Times-Roman" font-size="14.00">!d</text>
</g>
<!-- Dup3_0 -->
<g id="node32" class="node">
<title>Dup3_0</title>
<ellipse fill="none" stroke="black" cx="127" cy="-90" rx="29.5" ry="18"/>
<text text-anchor="middle" x="127" y="-86.3" font-family="Times-Roman" font-size="14.00">Dup</text>
</g>
<!-- !d1&#45;&gt;Dup3_0 -->
<g id="edge27" class="edge">
<title>!d1&#45;&gt;Dup3_0</title>
<g id="a_edge27"><a xlink:title="e67">
<path fill="none" stroke="blue" d="M126.39,-133.67C126.51,-125.05 126.65,-115.79 126.76,-108.1"/>
<polygon fill="blue" stroke="blue" points="122.89,-133.65 126.25,-143.7 129.89,-133.75 122.89,-133.65"/>
</a>
</g>
</g>
<!-- I2 -->
<g id="node12" class="node">
<title>I2</title>
<ellipse fill="none" stroke="black" cx="126" cy="-234" rx="27" ry="18"/>
<text text-anchor="middle" x="126" y="-230.3" font-family="Times-Roman" font-size="14.00">I</text>
</g>
<!-- I2&#45;&gt;!d1 -->
<g id="edge29" class="edge">
<title>I2&#45;&gt;!d1</title>
<g id="a_edge29"><a xlink:title="e79">
<path fill="none" stroke="blue" d="M126,-205.67C126,-197.05 126,-187.79 126,-180.1"/>
<polygon fill="blue" stroke="blue" points="122.5,-205.7 126,-215.7 129.5,-205.7 122.5,-205.7"/>
</a>
</g>
</g>
<!-- PiR1 -->
<g id="node14" class="node">
<title>PiR1</title>
<ellipse fill="none" stroke="black" cx="334" cy="-624.49" rx="27" ry="18"/>
<text text-anchor="middle" x="334" y="-620.79" font-family="Times-Roman" font-size="14.00">PiR</text>
</g>
<!-- !p1&#45;&gt;PiR1 -->
<g id="edge31" class="edge">
<title>!p1&#45;&gt;PiR1</title>
<g id="a_edge31"><a xlink:title="e85">
<path fill="none" stroke="red" d="M243.16,-683.3C260.67,-672.16 286.76,-655.56 306.49,-643"/>
<polygon fill="red" stroke="red" points="308.5,-645.87 315.06,-637.55 304.74,-639.96 308.5,-645.87"/>
</a>
</g>
</g>
<!-- I3 -->
<g id="node16" class="node">
<title>I3</title>
<ellipse fill="none" stroke="black" cx="380" cy="-552.49" rx="27" ry="18"/>
<text text-anchor="middle" x="380" y="-548.79" font-family="Times-Roman" font-size="14.00">I</text>
</g>
<!-- PiR1&#45;&gt;I3 -->
<g id="edge33" class="edge">
<title>PiR1&#45;&gt;I3</title>
<g id="a_edge33"><a xlink:title="e89">
<path fill="none" stroke="red" d="M344.44,-607.61C350.2,-598.84 357.48,-587.76 363.96,-577.91"/>
<polygon fill="red" stroke="red" points="367.04,-579.6 369.6,-569.32 361.19,-575.75 367.04,-579.6"/>
</a>
</g>
</g>
<!-- !d2 -->
<g id="node15" class="node">
<title>!d2</title>
<ellipse fill="none" stroke="black" cx="352" cy="-465.25" rx="27" ry="18"/>
<text text-anchor="middle" x="352" y="-461.55" font-family="Times-Roman" font-size="14.00">!d</text>
</g>
<!-- !d2&#45;&gt;PiR1 -->
<g id="edge32" class="edge">
<title>!d2&#45;&gt;PiR1</title>
<g id="a_edge32"><a xlink:title="e87">
<path fill="none" stroke="blue" d="M348.77,-493.58C347.3,-506.05 345.55,-521.02 344,-534.49 341.13,-559.52 337.89,-588.51 335.89,-606.43"/>
<polygon fill="blue" stroke="blue" points="352.28,-493.69 349.97,-483.35 345.32,-492.87 352.28,-493.69"/>
</a>
</g>
</g>
<!-- I3&#45;&gt;!d2 -->
<g id="edge34" class="edge">
<title>I3&#45;&gt;!d2</title>
<g id="a_edge34"><a xlink:title="e91">
<path fill="none" stroke="blue" d="M371.24,-524.82C366.75,-511.16 361.43,-494.96 357.52,-483.05"/>
<polygon fill="blue" stroke="blue" points="368.02,-526.24 374.47,-534.65 374.67,-524.06 368.02,-526.24"/>
</a>
</g>
</g>
<!-- !p2 -->
<g id="node17" class="node">
<title>!p2</title>
<ellipse fill="none" stroke="black" cx="146" cy="-1416.49" rx="27" ry="18"/>
<text text-anchor="middle" x="146" y="-1412.79" font-family="Times-Roman" font-size="14.00">!p</text>
</g>
<!-- I4 -->
<g id="node21" class="node">
<title>I4</title>
<ellipse fill="none" stroke="black" cx="138" cy="-1344.49" rx="27" ry="18"/>
<text text-anchor="middle" x="138" y="-1340.79" font-family="Times-Roman" font-size="14.00">I</text>
</g>
<!-- !p2&#45;&gt;I4 -->
<g id="edge35" class="edge">
<title>!p2&#45;&gt;I4</title>
<g id="a_edge35"><a xlink:title="e92">
<path fill="none" stroke="red" d="M144.02,-1398.19C143.14,-1390.48 142.08,-1381.21 141.1,-1372.61"/>
<polygon fill="red" stroke="red" points="144.57,-1372.14 139.95,-1362.6 137.61,-1372.93 144.57,-1372.14"/>
</a>
</g>
</g>
<!-- I5 -->
<g id="node24" class="node">
<title>I5</title>
<ellipse fill="none" stroke="black" cx="114" cy="-696.49" rx="27" ry="18"/>
<text text-anchor="middle" x="114" y="-692.79" font-family="Times-Roman" font-size="14.00">I</text>
</g>
<!-- !p3&#45;&gt;I5 -->
<g id="edge36" class="edge">
<title>!p3&#45;&gt;I5</title>
<g id="a_edge36"><a xlink:title="e95">
<path fill="none" stroke="red" d="M114,-750.19C114,-742.48 114,-733.21 114,-724.61"/>
<polygon fill="red" stroke="red" points="117.5,-724.6 114,-714.6 110.5,-724.6 117.5,-724.6"/>
</a>
</g>
</g>
<!-- !d3 -->
<g id="node19" class="node">
<title>!d3</title>
<ellipse fill="none" stroke="black" cx="109" cy="-1200.49" rx="27" ry="18"/>
<text text-anchor="middle" x="109" y="-1196.79" font-family="Times-Roman" font-size="14.00">!d</text>
</g>
<!-- !d3&#45;&gt;Cut0 -->
<g id="edge13" class="edge">
<title>!d3&#45;&gt;Cut0</title>
<g id="a_edge13"><a xlink:title="e23">
<path fill="none" stroke="blue" d="M109,-1172.16C109,-1163.55 109,-1154.29 109,-1146.6"/>
<polygon fill="blue" stroke="blue" points="105.5,-1172.19 109,-1182.19 112.5,-1172.19 105.5,-1172.19"/>
</a>
</g>
</g>
<!-- PiL2 -->
<g id="node20" class="node">
<title>PiL2</title>
<ellipse fill="none" stroke="black" cx="109" cy="-1272.49" rx="27" ry="18"/>
<text text-anchor="middle" x="109" y="-1268.79" font-family="Times-Roman" font-size="14.00">PiL</text>
</g>
<!-- PiL2&#45;&gt;!d3 -->
<g id="edge37" class="edge">
<title>PiL2&#45;&gt;!d3</title>
<g id="a_edge37"><a xlink:title="e96">
<path fill="none" stroke="blue" d="M109,-1244.16C109,-1235.55 109,-1226.29 109,-1218.6"/>
<polygon fill="blue" stroke="blue" points="105.5,-1244.19 109,-1254.19 112.5,-1244.19 105.5,-1244.19"/>
</a>
</g>
</g>
<!-- !p4 -->
<g id="node26" class="node">
<title>!p4</title>
<ellipse fill="none" stroke="black" cx="27" cy="-1128.49" rx="27" ry="18"/>
<text text-anchor="middle" x="27" y="-1124.79" font-family="Times-Roman" font-size="14.00">!p</text>
</g>
<!-- PiL2&#45;&gt;!p4 -->
<g id="edge1" class="edge">
<title>PiL2&#45;&gt;!p4</title>
<g id="a_edge1"><a xlink:title="e100">
<path fill="none" stroke="red" d="M97.79,-1256.05C90.41,-1245.64 80.74,-1231.49 73,-1218.49 60.62,-1197.69 48.1,-1173.19 39.25,-1155.17"/>
<polygon fill="red" stroke="red" points="42.26,-1153.35 34.74,-1145.89 35.97,-1156.41 42.26,-1153.35"/>
</a>
</g>
</g>
<!-- I4&#45;&gt;PiL2 -->
<g id="edge38" class="edge">
<title>I4&#45;&gt;PiL2</title>
<g id="a_edge38"><a xlink:title="e98">
<path fill="none" stroke="blue" d="M127.19,-1317.41C123.38,-1308.21 119.21,-1298.14 115.82,-1289.96"/>
<polygon fill="blue" stroke="blue" points="124.07,-1319.01 131.13,-1326.91 130.53,-1316.33 124.07,-1319.01"/>
</a>
</g>
</g>
<!-- !d4 -->
<g id="node22" class="node">
<title>!d4</title>
<ellipse fill="none" stroke="black" cx="114" cy="-552.49" rx="27" ry="18"/>
<text text-anchor="middle" x="114" y="-548.79" font-family="Times-Roman" font-size="14.00">!d</text>
</g>
<!-- !d4&#45;&gt;!c0 -->
<g id="edge21" class="edge">
<title>!d4&#45;&gt;!c0</title>
<g id="a_edge21"><a xlink:title="e47">
<path fill="none" stroke="blue" d="M113.04,-524.15C112.57,-510.8 112.02,-495.14 111.61,-483.47"/>
<polygon fill="blue" stroke="blue" points="109.54,-524.37 113.39,-534.24 116.54,-524.13 109.54,-524.37"/>
</a>
</g>
</g>
<!-- PiL3 -->
<g id="node23" class="node">
<title>PiL3</title>
<ellipse fill="none" stroke="black" cx="114" cy="-624.49" rx="27" ry="18"/>
<text text-anchor="middle" x="114" y="-620.79" font-family="Times-Roman" font-size="14.00">PiL</text>
</g>
<!-- PiL3&#45;&gt;!d4 -->
<g id="edge2" class="edge">
<title>PiL3&#45;&gt;!d4</title>
<g id="a_edge2"><a xlink:title="e103">
<path fill="none" stroke="blue" d="M114,-596.16C114,-587.55 114,-578.29 114,-570.6"/>
<polygon fill="blue" stroke="blue" points="110.5,-596.19 114,-606.19 117.5,-596.19 110.5,-596.19"/>
</a>
</g>
</g>
<!-- !p5 -->
<g id="node27" class="node">
<title>!p5</title>
<ellipse fill="none" stroke="black" cx="186" cy="-552.49" rx="27" ry="18"/>
<text text-anchor="middle" x="186" y="-548.79" font-family="Times-Roman" font-size="14.00">!p</text>
</g>
<!-- PiL3&#45;&gt;!p5 -->
<g id="edge4" class="edge">
<title>PiL3&#45;&gt;!p5</title>
<g id="a_edge4"><a xlink:title="e107">
<path fill="none" stroke="red" d="M128.57,-609.33C138.75,-599.43 152.52,-586.04 164.03,-574.85"/>
<polygon fill="red" stroke="red" points="166.47,-577.36 171.2,-567.88 161.59,-572.34 166.47,-577.36"/>
</a>
</g>
</g>
<!-- I5&#45;&gt;PiL3 -->
<g id="edge3" class="edge">
<title>I5&#45;&gt;PiL3</title>
<g id="a_edge3"><a xlink:title="e105">
<path fill="none" stroke="blue" d="M114,-668.16C114,-659.55 114,-650.29 114,-642.6"/>
<polygon fill="blue" stroke="blue" points="110.5,-668.19 114,-678.19 117.5,-668.19 110.5,-668.19"/>
</a>
</g>
</g>
<!-- PiL4&#45;&gt;!p2 -->
<g id="edge15" class="edge">
<title>PiL4&#45;&gt;!p2</title>
<g id="a_edge15"><a xlink:title="e34">
<path fill="none" stroke="red" d="M166.6,-1470.91C163.49,-1462.83 159.67,-1452.93 156.17,-1443.85"/>
<polygon fill="red" stroke="red" points="159.4,-1442.52 152.54,-1434.45 152.87,-1445.04 159.4,-1442.52"/>
</a>
</g>
</g>
<!-- Cut1 -->
<g id="node29" class="node">
<title>Cut1</title>
<ellipse fill="none" stroke="black" cx="256" cy="-1344.49" rx="27" ry="18"/>
<text text-anchor="middle" x="256" y="-1340.79" font-family="Times-Roman" font-size="14.00">Cut</text>
</g>
<!-- PiL4&#45;&gt;Cut1 -->
<g id="edge30" class="edge">
<title>PiL4&#45;&gt;Cut1</title>
<g id="a_edge30"><a xlink:title="e83">
<path fill="none" stroke="blue" stroke-width="2" d="M187.47,-1462.75C204.44,-1433.7 232.11,-1386.37 246.55,-1361.67"/>
<polygon fill="blue" stroke="blue" stroke-width="2" points="184.38,-1461.08 182.36,-1471.48 190.43,-1464.61 184.38,-1461.08"/>
</a>
</g>
</g>
<!-- PiR2 -->
<g id="node30" class="node">
<title>PiR2</title>
<ellipse fill="none" stroke="black" cx="70" cy="-18" rx="27" ry="18"/>
<text text-anchor="middle" x="70" y="-14.3" font-family="Times-Roman" font-size="14.00">PiR</text>
</g>
<!-- !p4&#45;&gt;PiR2 -->
<g id="edge5" class="edge">
<title>!p4&#45;&gt;PiR2</title>
<g id="a_edge5"><a xlink:title="e108">
<path fill="none" stroke="red" d="M25.81,-1110.46C24.07,-1083.81 21,-1030.65 21,-985.49 21,-985.49 21,-985.49 21,-161 21,-118.08 41.26,-71.65 55.72,-43.97"/>
<polygon fill="red" stroke="red" points="58.89,-45.46 60.55,-34.99 52.73,-42.14 58.89,-45.46"/>
</a>
</g>
</g>
<!-- Dup2_0 -->
<g id="node28" class="node">
<title>Dup2_0</title>
<ellipse fill="none" stroke="black" cx="189" cy="-465.25" rx="29.47" ry="29.47"/>
<ellipse fill="none" stroke="black" cx="189" cy="-465.25" rx="33.5" ry="33.5"/>
<text text-anchor="middle" x="189" y="-461.55" font-family="Times-Roman" font-size="14.00">Dup</text>
</g>
<!-- !p5&#45;&gt;Dup2_0 -->
<g id="edge8" class="edge">
<title>!p5&#45;&gt;Dup2_0</title>
<g id="a_edge8"><a xlink:title="e111">
<path fill="none" stroke="red" d="M186.61,-534.24C186.89,-526.26 187.23,-516.41 187.58,-506.71"/>
<ellipse fill="none" stroke="red" cx="187.72" cy="-502.64" rx="4" ry="4"/>
</a>
</g>
</g>
<!-- PiR3 -->
<g id="node31" class="node">
<title>PiR3</title>
<ellipse fill="none" stroke="black" cx="182" cy="-378" rx="27" ry="18"/>
<text text-anchor="middle" x="182" y="-374.3" font-family="Times-Roman" font-size="14.00">PiR</text>
</g>
<!-- Dup2_0&#45;&gt;PiR3 -->
<g id="edge6" class="edge">
<title>Dup2_0&#45;&gt;PiR3</title>
<g id="a_edge6"><a xlink:title="e109">
<path fill="none" stroke="red" d="M186.35,-432.02C185.65,-423.5 184.91,-414.38 184.23,-406.16"/>
<polygon fill="red" stroke="red" points="187.7,-405.66 183.39,-395.98 180.72,-406.23 187.7,-405.66"/>
</a>
</g>
</g>
<!-- Cut1&#45;&gt;Dup2_0 -->
<g id="edge7" class="edge">
<title>Cut1&#45;&gt;Dup2_0</title>
<g id="a_edge7"><a xlink:title="e110">
<path fill="none" stroke="red" stroke-width="2" d="M260.54,-1326.59C267.25,-1300.12 279,-1247.2 279,-1201.49 279,-1201.49 279,-1201.49 279,-623.49 279,-573.43 244.2,-524.83 217.88,-495.23"/>
<ellipse fill="red" stroke="red" stroke-width="2" cx="215.1" cy="-492.17" rx="4" ry="4"/>
</a>
</g>
</g>
<!-- Dup3_1 -->
<g id="node33" class="node">
<title>Dup3_1</title>
<ellipse fill="none" stroke="black" cx="125" cy="-306" rx="29.5" ry="18"/>
<text text-anchor="middle" x="125" y="-302.3" font-family="Times-Roman" font-size="14.00">Dup</text>
</g>
<!-- PiR2&#45;&gt;Dup3_1 -->
<g id="edge11" class="edge">
<title>PiR2&#45;&gt;Dup3_1</title>
<g id="a_edge11"><a xlink:title="e114">
<path fill="none" stroke="red" d="M68.64,-36.26C66.14,-75.74 63.27,-175.11 90,-252 93.81,-262.96 100.4,-273.86 106.84,-282.9"/>
<ellipse fill="red" stroke="red" cx="109.3" cy="-286.21" rx="4" ry="4"/>
</a>
</g>
</g>
<!-- PiR3&#45;&gt;Dup3_1 -->
<g id="edge12" class="edge">
<title>PiR3&#45;&gt;Dup3_1</title>
<g id="a_edge12"><a xlink:title="e115">
<path fill="none" stroke="red" d="M169.63,-361.81C161.82,-352.22 151.6,-339.67 142.92,-329"/>
<ellipse fill="none" stroke="red" cx="140.26" cy="-325.75" rx="4" ry="4"/>
</a>
</g>
</g>
<!-- Dup3_0&#45;&gt;PiR2 -->
<g id="edge9" class="edge">
<title>Dup3_0&#45;&gt;PiR2</title>
<g id="a_edge9"><a xlink:title="e112">
<path fill="none" stroke="blue" d="M109.21,-67.16C100.59,-56.56 90.43,-44.09 82.61,-34.49"/>
<ellipse fill="blue" stroke="blue" cx="111.82" cy="-70.36" rx="4" ry="4"/>
</a>
</g>
</g>
<!-- Dup3_0&#45;&gt;PiR3 -->
<g id="edge10" class="edge">
<title>Dup3_0&#45;&gt;PiR3</title>
<g id="a_edge10"><a xlink:title="e113">
<path fill="none" stroke="blue" d="M145.16,-113.1C151.6,-122.14 158.19,-133.04 162,-144 188.73,-220.89 185.86,-320.26 183.36,-359.74"/>
<ellipse fill="none" stroke="blue" cx="142.7" cy="-109.79" rx="4" ry="4"/>
</a>
</g>
</g>
<!-- Dup3_1&#45;&gt;I2 -->
<g id="edge28" class="edge">
<title>Dup3_1&#45;&gt;I2</title>
<g id="a_edge28"><a xlink:title="e69">
<path fill="none" stroke="red" d="M125.25,-287.7C125.36,-279.98 125.49,-270.71 125.61,-262.11"/>
<polygon fill="red" stroke="red" points="129.11,-262.15 125.76,-252.1 122.11,-262.05 129.11,-262.15"/>
</a>
</g>
</g>
</g>
</svg>
