<?xml version="1.0" encoding="UTF-8" standalone="no"?>
<!DOCTYPE svg PUBLIC "-//W3C//DTD SVG 1.1//EN"
 "http://www.w3.org/Graphics/SVG/1.1/DTD/svg11.dtd">
<!-- Generated by graphviz version 2.43.0 (0)
 -->
<!-- Title: %3 Pages: 1 -->
<svg width="364pt" height="1653pt"
 viewBox="0.00 0.00 363.65 1653.30" xmlns="http://www.w3.org/2000/svg" xmlns:xlink="http://www.w3.org/1999/xlink">
<g id="graph0" class="graph" transform="scale(1 1) rotate(0) translate(4 1649.3)">
<title>%3</title>
<polygon fill="white" stroke="transparent" points="-4,4 -4,-1649.3 359.65,-1649.3 359.65,4 -4,4"/>
<!-- Root0 -->
<g id="node1" class="node">
<title>Root0</title>
<ellipse fill="none" stroke="black" cx="199" cy="-1627.3" rx="30.59" ry="18"/>
<text text-anchor="middle" x="199" y="-1623.6" font-family="Times-Roman" font-size="14.00">Root</text>
</g>
<!-- I3 -->
<g id="node13" class="node">
<title>I3</title>
<ellipse fill="none" stroke="black" cx="199" cy="-1555.3" rx="27" ry="18"/>
<text text-anchor="middle" x="199" y="-1551.6" font-family="Times-Roman" font-size="14.00">I</text>
</g>
<!-- Root0&#45;&gt;I3 -->
<g id="edge42" class="edge">
<title>Root0&#45;&gt;I3</title>
<g id="a_edge42"><a xlink:title="rettop">
<path fill="none" stroke="red" stroke-width="2" d="M199,-1608.99C199,-1601.28 199,-1592.01 199,-1583.41"/>
<polygon fill="red" stroke="red" stroke-width="2" points="202.5,-1583.4 199,-1573.4 195.5,-1583.4 202.5,-1583.4"/>
</a>
</g>
</g>
<!-- !p0 -->
<g id="node2" class="node">
<title>!p0</title>
<ellipse fill="none" stroke="black" cx="162" cy="-1195.3" rx="27" ry="18"/>
<text text-anchor="middle" x="162" y="-1191.6" font-family="Times-Roman" font-size="14.00">!p</text>
</g>
<!-- I0 -->
<g id="node3" class="node">
<title>I0</title>
<ellipse fill="none" stroke="black" cx="154" cy="-1123.3" rx="27" ry="18"/>
<text text-anchor="middle" x="154" y="-1119.6" font-family="Times-Roman" font-size="14.00">I</text>
</g>
<!-- !p0&#45;&gt;I0 -->
<g id="edge46" class="edge">
<title>!p0&#45;&gt;I0</title>
<g id="a_edge46"><a xlink:title="yli">
<path fill="none" stroke="red" d="M160.02,-1176.99C159.14,-1169.28 158.08,-1160.01 157.1,-1151.41"/>
<polygon fill="red" stroke="red" points="160.57,-1150.94 155.95,-1141.4 153.61,-1151.73 160.57,-1150.94"/>
</a>
</g>
</g>
<!-- Cut0 -->
<g id="node9" class="node">
<title>Cut0</title>
<ellipse fill="none" stroke="black" cx="82" cy="-1123.3" rx="27" ry="18"/>
<text text-anchor="middle" x="82" y="-1119.6" font-family="Times-Roman" font-size="14.00">Cut</text>
</g>
<!-- !p0&#45;&gt;Cut0 -->
<g id="edge43" class="edge">
<title>!p0&#45;&gt;Cut0</title>
<g id="a_edge43"><a xlink:title="y2">
<path fill="none" stroke="blue" d="M138.46,-1173.7C125.35,-1162.23 109.38,-1148.25 97.77,-1138.1"/>
<polygon fill="blue" stroke="blue" points="136.36,-1176.51 146.19,-1180.47 140.97,-1171.25 136.36,-1176.51"/>
</a>
</g>
</g>
<!-- !d0 -->
<g id="node4" class="node">
<title>!d0</title>
<ellipse fill="none" stroke="black" cx="173" cy="-1051.3" rx="27" ry="18"/>
<text text-anchor="middle" x="173" y="-1047.6" font-family="Times-Roman" font-size="14.00">!d</text>
</g>
<!-- I0&#45;&gt;!d0 -->
<g id="edge45" class="edge">
<title>I0&#45;&gt;!d0</title>
<g id="a_edge45"><a xlink:title="yl2">
<path fill="none" stroke="blue" d="M161.29,-1095.43C163.7,-1086.57 166.3,-1076.97 168.44,-1069.08"/>
<polygon fill="blue" stroke="blue" points="157.84,-1094.78 158.6,-1105.35 164.6,-1096.62 157.84,-1094.78"/>
</a>
</g>
</g>
<!-- !d0&#45;&gt;!p0 -->
<g id="edge44" class="edge">
<title>!d0&#45;&gt;!p0</title>
<g id="a_edge44"><a xlink:title="yj">
<path fill="none" stroke="blue" d="M183.87,-1078.26C189.9,-1096.1 195.21,-1120.27 190,-1141.3 186.69,-1154.63 179.35,-1168.3 173.02,-1178.42"/>
<polygon fill="blue" stroke="blue" points="187.14,-1077 180.41,-1068.81 180.56,-1079.41 187.14,-1077"/>
</a>
</g>
</g>
<!-- I1 -->
<g id="node5" class="node">
<title>I1</title>
<ellipse fill="none" stroke="black" cx="113" cy="-90" rx="27" ry="18"/>
<text text-anchor="middle" x="113" y="-86.3" font-family="Times-Roman" font-size="14.00">I</text>
</g>
<!-- !d1 -->
<g id="node6" class="node">
<title>!d1</title>
<ellipse fill="none" stroke="black" cx="140" cy="-18" rx="27" ry="18"/>
<text text-anchor="middle" x="140" y="-14.3" font-family="Times-Roman" font-size="14.00">!d</text>
</g>
<!-- I1&#45;&gt;!d1 -->
<g id="edge40" class="edge">
<title>I1&#45;&gt;!d1</title>
<g id="a_edge40"><a xlink:title="il">
<path fill="none" stroke="blue" d="M123.01,-63.06C126.5,-54.01 130.32,-44.09 133.46,-35.96"/>
<polygon fill="blue" stroke="blue" points="119.73,-61.82 119.4,-72.41 126.26,-64.34 119.73,-61.82"/>
</a>
</g>
</g>
<!-- PiR0 -->
<g id="node7" class="node">
<title>PiR0</title>
<ellipse fill="none" stroke="black" cx="140" cy="-162" rx="27" ry="18"/>
<text text-anchor="middle" x="140" y="-158.3" font-family="Times-Roman" font-size="14.00">PiR</text>
</g>
<!-- !d1&#45;&gt;PiR0 -->
<g id="edge39" class="edge">
<title>!d1&#45;&gt;PiR0</title>
<g id="a_edge39"><a xlink:title="i">
<path fill="none" stroke="blue" d="M145.49,-46.01C146.93,-54.31 148.28,-63.5 149,-72 150.34,-87.94 150.34,-92.06 149,-108 147.98,-120.09 145.68,-133.57 143.65,-143.91"/>
<polygon fill="blue" stroke="blue" points="148.91,-45.29 143.65,-36.09 142.03,-46.56 148.91,-45.29"/>
</a>
</g>
</g>
<!-- PiR0&#45;&gt;I1 -->
<g id="edge41" class="edge">
<title>PiR0&#45;&gt;I1</title>
<g id="a_edge41"><a xlink:title="ir">
<path fill="none" stroke="red" d="M133.6,-144.41C130.49,-136.34 126.67,-126.43 123.17,-117.35"/>
<polygon fill="red" stroke="red" points="126.4,-116.03 119.54,-107.96 119.87,-118.55 126.4,-116.03"/>
</a>
</g>
</g>
<!-- !p1 -->
<g id="node8" class="node">
<title>!p1</title>
<ellipse fill="none" stroke="black" cx="82" cy="-1051.3" rx="27" ry="18"/>
<text text-anchor="middle" x="82" y="-1047.6" font-family="Times-Roman" font-size="14.00">!p</text>
</g>
<!-- I2 -->
<g id="node12" class="node">
<title>I2</title>
<ellipse fill="none" stroke="black" cx="27" cy="-979.3" rx="27" ry="18"/>
<text text-anchor="middle" x="27" y="-975.6" font-family="Times-Roman" font-size="14.00">I</text>
</g>
<!-- !p1&#45;&gt;I2 -->
<g id="edge1" class="edge">
<title>!p1&#45;&gt;I2</title>
<g id="a_edge1"><a xlink:title="e11">
<path fill="none" stroke="red" d="M70.07,-1035.11C62.79,-1025.84 53.34,-1013.82 45.15,-1003.39"/>
<polygon fill="red" stroke="red" points="47.84,-1001.16 38.91,-995.45 42.34,-1005.48 47.84,-1001.16"/>
</a>
</g>
</g>
<!-- Dup2_0 -->
<g id="node35" class="node">
<title>Dup2_0</title>
<ellipse fill="none" stroke="black" cx="154" cy="-979.3" rx="29.5" ry="18"/>
<text text-anchor="middle" x="154" y="-975.6" font-family="Times-Roman" font-size="14.00">Dup</text>
</g>
<!-- !p1&#45;&gt;Dup2_0 -->
<g id="edge3" class="edge">
<title>!p1&#45;&gt;Dup2_0</title>
<g id="a_edge3"><a xlink:title="e15">
<path fill="none" stroke="blue" d="M103.99,-1028.91C115.32,-1017.9 128.83,-1004.76 138.96,-994.92"/>
<polygon fill="blue" stroke="blue" points="101.3,-1026.65 96.57,-1036.13 106.18,-1031.67 101.3,-1026.65"/>
</a>
</g>
</g>
<!-- Cut0&#45;&gt;!p1 -->
<g id="edge37" class="edge">
<title>Cut0&#45;&gt;!p1</title>
<g id="a_edge37"><a xlink:title="e9">
<path fill="none" stroke="red" d="M82,-1104.99C82,-1097.28 82,-1088.01 82,-1079.41"/>
<polygon fill="red" stroke="red" points="85.5,-1079.4 82,-1069.4 78.5,-1079.4 85.5,-1079.4"/>
</a>
</g>
</g>
<!-- !d2 -->
<g id="node10" class="node">
<title>!d2</title>
<ellipse fill="none" stroke="black" cx="82" cy="-835.3" rx="27" ry="18"/>
<text text-anchor="middle" x="82" y="-831.6" font-family="Times-Roman" font-size="14.00">!d</text>
</g>
<!-- !d2&#45;&gt;!p1 -->
<g id="edge2" class="edge">
<title>!d2&#45;&gt;!p1</title>
<g id="a_edge2"><a xlink:title="e13">
<path fill="none" stroke="blue" d="M82,-863.68C82,-908.48 82,-996.13 82,-1033.14"/>
<polygon fill="blue" stroke="blue" points="85.5,-863.53 82,-853.53 78.5,-863.53 85.5,-863.53"/>
</a>
</g>
</g>
<!-- PiL0 -->
<g id="node11" class="node">
<title>PiL0</title>
<ellipse fill="none" stroke="black" cx="27" cy="-907.3" rx="27" ry="18"/>
<text text-anchor="middle" x="27" y="-903.6" font-family="Times-Roman" font-size="14.00">PiL</text>
</g>
<!-- PiL0&#45;&gt;!d2 -->
<g id="edge4" class="edge">
<title>PiL0&#45;&gt;!d2</title>
<g id="a_edge4"><a xlink:title="e17">
<path fill="none" stroke="blue" d="M45.17,-883.17C53.37,-872.74 62.81,-860.71 70.09,-851.45"/>
<polygon fill="blue" stroke="blue" points="42.36,-881.08 38.93,-891.11 47.86,-885.41 42.36,-881.08"/>
</a>
</g>
</g>
<!-- !p3 -->
<g id="node31" class="node">
<title>!p3</title>
<ellipse fill="none" stroke="black" cx="30" cy="-763.3" rx="27" ry="18"/>
<text text-anchor="middle" x="30" y="-759.6" font-family="Times-Roman" font-size="14.00">!p</text>
</g>
<!-- PiL0&#45;&gt;!p3 -->
<g id="edge6" class="edge">
<title>PiL0&#45;&gt;!p3</title>
<g id="a_edge6"><a xlink:title="e21">
<path fill="none" stroke="red" d="M27.36,-889.17C27.87,-864.97 28.81,-820.51 29.42,-791.69"/>
<polygon fill="red" stroke="red" points="32.92,-791.56 29.64,-781.48 25.93,-791.41 32.92,-791.56"/>
</a>
</g>
</g>
<!-- I2&#45;&gt;PiL0 -->
<g id="edge5" class="edge">
<title>I2&#45;&gt;PiL0</title>
<g id="a_edge5"><a xlink:title="e19">
<path fill="none" stroke="blue" d="M27,-950.96C27,-942.35 27,-933.09 27,-925.4"/>
<polygon fill="blue" stroke="blue" points="23.5,-950.99 27,-960.99 30.5,-950.99 23.5,-950.99"/>
</a>
</g>
</g>
<!-- PiL5 -->
<g id="node30" class="node">
<title>PiL5</title>
<ellipse fill="none" stroke="black" cx="199" cy="-1483.3" rx="27" ry="18"/>
<text text-anchor="middle" x="199" y="-1479.6" font-family="Times-Roman" font-size="14.00">PiL</text>
</g>
<!-- I3&#45;&gt;PiL5 -->
<g id="edge11" class="edge">
<title>I3&#45;&gt;PiL5</title>
<g id="a_edge11"><a xlink:title="e32">
<path fill="none" stroke="blue" stroke-width="2" d="M199,-1526.96C199,-1518.35 199,-1509.09 199,-1501.4"/>
<polygon fill="blue" stroke="blue" stroke-width="2" points="195.5,-1526.99 199,-1536.99 202.5,-1526.99 195.5,-1526.99"/>
</a>
</g>
</g>
<!-- !p2 -->
<g id="node14" class="node">
<title>!p2</title>
<ellipse fill="none" stroke="black" cx="154" cy="-835.3" rx="27" ry="18"/>
<text text-anchor="middle" x="154" y="-831.6" font-family="Times-Roman" font-size="14.00">!p</text>
</g>
<!-- PiR1 -->
<g id="node16" class="node">
<title>PiR1</title>
<ellipse fill="none" stroke="black" cx="135" cy="-763.3" rx="27" ry="18"/>
<text text-anchor="middle" x="135" y="-759.6" font-family="Times-Roman" font-size="14.00">PiR</text>
</g>
<!-- !p2&#45;&gt;PiR1 -->
<g id="edge15" class="edge">
<title>!p2&#45;&gt;PiR1</title>
<g id="a_edge15"><a xlink:title="e39">
<path fill="none" stroke="red" d="M149.4,-817.35C147.25,-809.44 144.65,-799.84 142.24,-790.98"/>
<polygon fill="red" stroke="red" points="145.55,-789.82 139.56,-781.08 138.8,-791.65 145.55,-789.82"/>
</a>
</g>
</g>
<!-- Cut1 -->
<g id="node15" class="node">
<title>Cut1</title>
<ellipse fill="none" stroke="black" cx="154" cy="-907.3" rx="27" ry="18"/>
<text text-anchor="middle" x="154" y="-903.6" font-family="Times-Roman" font-size="14.00">Cut</text>
</g>
<!-- Cut1&#45;&gt;!p2 -->
<g id="edge14" class="edge">
<title>Cut1&#45;&gt;!p2</title>
<g id="a_edge14"><a xlink:title="e37">
<path fill="none" stroke="red" d="M154,-888.99C154,-881.28 154,-872.01 154,-863.41"/>
<polygon fill="red" stroke="red" points="157.5,-863.4 154,-853.4 150.5,-863.4 157.5,-863.4"/>
</a>
</g>
</g>
<!-- I4 -->
<g id="node26" class="node">
<title>I4</title>
<ellipse fill="none" stroke="black" cx="135" cy="-691.3" rx="27" ry="18"/>
<text text-anchor="middle" x="135" y="-687.6" font-family="Times-Roman" font-size="14.00">I</text>
</g>
<!-- PiR1&#45;&gt;I4 -->
<g id="edge18" class="edge">
<title>PiR1&#45;&gt;I4</title>
<g id="a_edge18"><a xlink:title="e43">
<path fill="none" stroke="red" d="M135,-744.99C135,-737.28 135,-728.01 135,-719.41"/>
<polygon fill="red" stroke="red" points="138.5,-719.4 135,-709.4 131.5,-719.4 138.5,-719.4"/>
</a>
</g>
</g>
<!-- Cut2 -->
<g id="node17" class="node">
<title>Cut2</title>
<ellipse fill="none" stroke="black" cx="325" cy="-462.65" rx="26.78" ry="26.78"/>
<ellipse fill="none" stroke="black" cx="325" cy="-462.65" rx="30.8" ry="30.8"/>
<text text-anchor="middle" x="325" y="-458.95" font-family="Times-Roman" font-size="14.00">Cut</text>
</g>
<!-- !p4 -->
<g id="node33" class="node">
<title>!p4</title>
<ellipse fill="none" stroke="black" cx="322" cy="-378" rx="27" ry="18"/>
<text text-anchor="middle" x="322" y="-374.3" font-family="Times-Roman" font-size="14.00">!p</text>
</g>
<!-- Cut2&#45;&gt;!p4 -->
<g id="edge9" class="edge">
<title>Cut2&#45;&gt;!p4</title>
<g id="a_edge9"><a xlink:title="e30">
<path fill="none" stroke="red" d="M323.92,-431.81C323.61,-423.45 323.29,-414.41 322.99,-406.21"/>
<polygon fill="red" stroke="red" points="326.48,-405.92 322.62,-396.05 319.48,-406.17 326.48,-405.92"/>
</a>
</g>
</g>
<!-- !c0 -->
<g id="node18" class="node">
<title>!c0</title>
<ellipse fill="none" stroke="black" cx="323" cy="-547.3" rx="27" ry="18"/>
<text text-anchor="middle" x="323" y="-543.6" font-family="Times-Roman" font-size="14.00">!c</text>
</g>
<!-- !c0&#45;&gt;Cut2 -->
<g id="edge16" class="edge">
<title>!c0&#45;&gt;Cut2</title>
<g id="a_edge16"><a xlink:title="e40">
<path fill="none" stroke="blue" stroke-width="2" d="M323.66,-519.01C323.86,-510.82 324.08,-501.8 324.28,-493.45"/>
<polygon fill="blue" stroke="blue" stroke-width="2" points="320.16,-519.09 323.41,-529.17 327.16,-519.26 320.16,-519.09"/>
</a>
</g>
</g>
<!-- !c1 -->
<g id="node19" class="node">
<title>!c1</title>
<ellipse fill="none" stroke="black" cx="135" cy="-378" rx="27" ry="18"/>
<text text-anchor="middle" x="135" y="-374.3" font-family="Times-Roman" font-size="14.00">!c</text>
</g>
<!-- !c1&#45;&gt;PiR1 -->
<g id="edge17" class="edge">
<title>!c1&#45;&gt;PiR1</title>
<g id="a_edge17"><a xlink:title="e41">
<path fill="none" stroke="blue" d="M115.89,-402.42C109.59,-411.22 103.15,-421.62 99,-432 79.87,-479.81 80,-494.8 80,-546.3 80,-620.3 80,-620.3 80,-620.3 80,-660.74 83.12,-672.1 99,-709.3 104.85,-723 114.44,-736.88 122.25,-747"/>
<polygon fill="blue" stroke="blue" points="118.84,-404.31 122.04,-394.21 113.24,-400.11 118.84,-404.31"/>
</a>
</g>
</g>
<!-- !d3 -->
<g id="node20" class="node">
<title>!d3</title>
<ellipse fill="none" stroke="black" cx="323" cy="-619.3" rx="27" ry="18"/>
<text text-anchor="middle" x="323" y="-615.6" font-family="Times-Roman" font-size="14.00">!d</text>
</g>
<!-- !d3&#45;&gt;!c0 -->
<g id="edge19" class="edge">
<title>!d3&#45;&gt;!c0</title>
<g id="a_edge19"><a xlink:title="e44">
<path fill="none" stroke="blue" stroke-width="2" d="M323,-590.96C323,-582.35 323,-573.09 323,-565.4"/>
<polygon fill="blue" stroke="blue" stroke-width="2" points="319.5,-590.99 323,-600.99 326.5,-590.99 319.5,-590.99"/>
</a>
</g>
</g>
<!-- !d4 -->
<g id="node21" class="node">
<title>!d4</title>
<ellipse fill="none" stroke="black" cx="135" cy="-462.65" rx="27" ry="18"/>
<text text-anchor="middle" x="135" y="-458.95" font-family="Times-Roman" font-size="14.00">!d</text>
</g>
<!-- !d4&#45;&gt;!c1 -->
<g id="edge21" class="edge">
<title>!d4&#45;&gt;!c1</title>
<g id="a_edge21"><a xlink:title="e46">
<path fill="none" stroke="blue" d="M135,-434.49C135,-421.84 135,-407.18 135,-396.1"/>
<polygon fill="blue" stroke="blue" points="131.5,-434.52 135,-444.52 138.5,-434.52 131.5,-434.52"/>
</a>
</g>
</g>
<!-- PiL1 -->
<g id="node22" class="node">
<title>PiL1</title>
<ellipse fill="none" stroke="black" cx="285" cy="-691.3" rx="27" ry="18"/>
<text text-anchor="middle" x="285" y="-687.6" font-family="Times-Roman" font-size="14.00">PiL</text>
</g>
<!-- PiL1&#45;&gt;!d3 -->
<g id="edge23" class="edge">
<title>PiL1&#45;&gt;!d3</title>
<g id="a_edge23"><a xlink:title="e48">
<path fill="none" stroke="blue" stroke-width="2" d="M298.73,-665C303.9,-655.47 309.64,-644.91 314.23,-636.44"/>
<polygon fill="blue" stroke="blue" stroke-width="2" points="295.51,-663.6 293.81,-674.06 301.66,-666.94 295.51,-663.6"/>
</a>
</g>
</g>
<!-- Dup0_1 -->
<g id="node28" class="node">
<title>Dup0_1</title>
<ellipse fill="none" stroke="black" cx="247" cy="-462.65" rx="29.5" ry="18"/>
<text text-anchor="middle" x="247" y="-458.95" font-family="Times-Roman" font-size="14.00">Dup</text>
</g>
<!-- PiL1&#45;&gt;Dup0_1 -->
<g id="edge27" class="edge">
<title>PiL1&#45;&gt;Dup0_1</title>
<g id="a_edge27"><a xlink:title="e52">
<path fill="none" stroke="red" d="M282.14,-673.26C275.5,-633.62 258.97,-535.06 251.19,-488.61"/>
<ellipse fill="red" stroke="red" cx="250.5" cy="-484.52" rx="4" ry="4"/>
</a>
</g>
</g>
<!-- PiL2 -->
<g id="node23" class="node">
<title>PiL2</title>
<ellipse fill="none" stroke="black" cx="135" cy="-547.3" rx="27" ry="18"/>
<text text-anchor="middle" x="135" y="-543.6" font-family="Times-Roman" font-size="14.00">PiL</text>
</g>
<!-- PiL2&#45;&gt;!d4 -->
<g id="edge24" class="edge">
<title>PiL2&#45;&gt;!d4</title>
<g id="a_edge24"><a xlink:title="e49">
<path fill="none" stroke="blue" d="M135,-519.14C135,-506.49 135,-491.83 135,-480.75"/>
<polygon fill="blue" stroke="blue" points="131.5,-519.17 135,-529.17 138.5,-519.17 131.5,-519.17"/>
</a>
</g>
</g>
<!-- PiL2&#45;&gt;Dup0_1 -->
<g id="edge28" class="edge">
<title>PiL2&#45;&gt;Dup0_1</title>
<g id="a_edge28"><a xlink:title="e53">
<path fill="none" stroke="red" d="M152.5,-533.38C171.26,-519.54 201.21,-497.44 222.35,-481.84"/>
<ellipse fill="none" stroke="red" cx="225.66" cy="-479.39" rx="4" ry="4"/>
</a>
</g>
</g>
<!-- PiL3 -->
<g id="node24" class="node">
<title>PiL3</title>
<ellipse fill="none" stroke="black" cx="228" cy="-1411.3" rx="27" ry="18"/>
<text text-anchor="middle" x="228" y="-1407.6" font-family="Times-Roman" font-size="14.00">PiL</text>
</g>
<!-- PiL3&#45;&gt;PiL1 -->
<g id="edge25" class="edge">
<title>PiL3&#45;&gt;PiL1</title>
<g id="a_edge25"><a xlink:title="e50">
<path fill="none" stroke="blue" stroke-width="2" d="M247.43,-1387.58C254.2,-1378.64 261.28,-1367.97 266,-1357.3 282.35,-1320.3 285,-1308.74 285,-1268.3 285,-1268.3 285,-1268.3 285,-834.3 285,-789.18 285,-736 285,-709.34"/>
<polygon fill="blue" stroke="blue" stroke-width="2" points="244.58,-1385.55 241.12,-1395.56 250.07,-1389.89 244.58,-1385.55"/>
</a>
</g>
</g>
<!-- Dup0_2 -->
<g id="node29" class="node">
<title>Dup0_2</title>
<ellipse fill="none" stroke="black" cx="228" cy="-1339.3" rx="29.5" ry="18"/>
<text text-anchor="middle" x="228" y="-1335.6" font-family="Times-Roman" font-size="14.00">Dup</text>
</g>
<!-- PiL3&#45;&gt;Dup0_2 -->
<g id="edge31" class="edge">
<title>PiL3&#45;&gt;Dup0_2</title>
<g id="a_edge31"><a xlink:title="e56">
<path fill="none" stroke="red" d="M228,-1392.99C228,-1384.68 228,-1374.57 228,-1365.44"/>
<ellipse fill="red" stroke="red" cx="228" cy="-1361.4" rx="4" ry="4"/>
</a>
</g>
</g>
<!-- PiL4 -->
<g id="node25" class="node">
<title>PiL4</title>
<ellipse fill="none" stroke="black" cx="135" cy="-619.3" rx="27" ry="18"/>
<text text-anchor="middle" x="135" y="-615.6" font-family="Times-Roman" font-size="14.00">PiL</text>
</g>
<!-- PiL4&#45;&gt;PiL2 -->
<g id="edge26" class="edge">
<title>PiL4&#45;&gt;PiL2</title>
<g id="a_edge26"><a xlink:title="e51">
<path fill="none" stroke="blue" d="M135,-590.96C135,-582.35 135,-573.09 135,-565.4"/>
<polygon fill="blue" stroke="blue" points="131.5,-590.99 135,-600.99 138.5,-590.99 131.5,-590.99"/>
</a>
</g>
</g>
<!-- PiL4&#45;&gt;Dup0_2 -->
<g id="edge32" class="edge">
<title>PiL4&#45;&gt;Dup0_2</title>
<g id="a_edge32"><a xlink:title="e57">
<path fill="none" stroke="red" d="M149.18,-634.99C179.32,-667.82 247,-750.85 247,-834.3 247,-1196.3 247,-1196.3 247,-1196.3 247,-1237.54 239.03,-1284.94 233.41,-1313.21"/>
<ellipse fill="none" stroke="red" cx="232.55" cy="-1317.42" rx="4" ry="4"/>
</a>
</g>
</g>
<!-- I4&#45;&gt;PiL4 -->
<g id="edge30" class="edge">
<title>I4&#45;&gt;PiL4</title>
<g id="a_edge30"><a xlink:title="e55">
<path fill="none" stroke="blue" d="M135,-662.96C135,-654.35 135,-645.09 135,-637.4"/>
<polygon fill="blue" stroke="blue" points="131.5,-662.99 135,-672.99 138.5,-662.99 131.5,-662.99"/>
</a>
</g>
</g>
<!-- Dup0_0 -->
<g id="node27" class="node">
<title>Dup0_0</title>
<ellipse fill="none" stroke="black" cx="211" cy="-619.3" rx="29.5" ry="18"/>
<text text-anchor="middle" x="211" y="-615.6" font-family="Times-Roman" font-size="14.00">Dup</text>
</g>
<!-- Dup0_0&#45;&gt;!c0 -->
<g id="edge20" class="edge">
<title>Dup0_0&#45;&gt;!c0</title>
<g id="a_edge20"><a xlink:title="e45">
<path fill="none" stroke="blue" d="M237.64,-601.65C258,-588.92 285.57,-571.69 303.81,-560.29"/>
<ellipse fill="blue" stroke="blue" cx="234.16" cy="-603.82" rx="4" ry="4"/>
</a>
</g>
</g>
<!-- Dup0_0&#45;&gt;!c1 -->
<g id="edge22" class="edge">
<title>Dup0_0&#45;&gt;!c1</title>
<g id="a_edge22"><a xlink:title="e47">
<path fill="none" stroke="blue" d="M208.68,-593.02C204.63,-556.3 194.36,-486.63 171,-432 165.14,-418.3 155.55,-404.42 147.74,-394.3"/>
<ellipse fill="none" stroke="blue" cx="209.12" cy="-597.21" rx="4" ry="4"/>
</a>
</g>
</g>
<!-- !p5 -->
<g id="node34" class="node">
<title>!p5</title>
<ellipse fill="none" stroke="black" cx="247" cy="-378" rx="27" ry="18"/>
<text text-anchor="middle" x="247" y="-374.3" font-family="Times-Roman" font-size="14.00">!p</text>
</g>
<!-- Dup0_1&#45;&gt;!p5 -->
<g id="edge10" class="edge">
<title>Dup0_1&#45;&gt;!p5</title>
<g id="a_edge10"><a xlink:title="e31">
<path fill="none" stroke="red" d="M247,-444.52C247,-433.44 247,-418.78 247,-406.13"/>
<polygon fill="red" stroke="red" points="250.5,-406.1 247,-396.1 243.5,-406.1 250.5,-406.1"/>
</a>
</g>
</g>
<!-- Dup2_1 -->
<g id="node36" class="node">
<title>Dup2_1</title>
<ellipse fill="none" stroke="black" cx="171" cy="-1267.3" rx="29.5" ry="18"/>
<text text-anchor="middle" x="171" y="-1263.6" font-family="Times-Roman" font-size="14.00">Dup</text>
</g>
<!-- Dup0_2&#45;&gt;Dup2_1 -->
<g id="edge13" class="edge">
<title>Dup0_2&#45;&gt;Dup2_1</title>
<g id="a_edge13"><a xlink:title="e35">
<path fill="none" stroke="red" d="M215.35,-1322.76C207.53,-1313.15 197.37,-1300.68 188.75,-1290.09"/>
<ellipse fill="none" stroke="red" cx="186.14" cy="-1286.89" rx="4" ry="4"/>
</a>
</g>
</g>
<!-- PiL5&#45;&gt;PiL3 -->
<g id="edge29" class="edge">
<title>PiL5&#45;&gt;PiL3</title>
<g id="a_edge29"><a xlink:title="e54">
<path fill="none" stroke="blue" stroke-width="2" d="M209.81,-1456.21C213.62,-1447.01 217.79,-1436.94 221.18,-1428.77"/>
<polygon fill="blue" stroke="blue" stroke-width="2" points="206.47,-1455.13 205.87,-1465.71 212.93,-1457.81 206.47,-1455.13"/>
</a>
</g>
</g>
<!-- PiL5&#45;&gt;Dup2_1 -->
<g id="edge12" class="edge">
<title>PiL5&#45;&gt;Dup2_1</title>
<g id="a_edge12"><a xlink:title="e34">
<path fill="none" stroke="red" d="M196.72,-1465.11C195.35,-1454.74 193.57,-1441.26 192,-1429.3 185.73,-1381.52 178.47,-1325.77 174.34,-1293.99"/>
<ellipse fill="red" stroke="red" cx="173.78" cy="-1289.66" rx="4" ry="4"/>
</a>
</g>
</g>
<!-- Dup1_0 -->
<g id="node32" class="node">
<title>Dup1_0</title>
<ellipse fill="none" stroke="black" cx="140" cy="-234" rx="29.5" ry="18"/>
<text text-anchor="middle" x="140" y="-230.3" font-family="Times-Roman" font-size="14.00">Dup</text>
</g>
<!-- !p3&#45;&gt;Dup1_0 -->
<g id="edge34" class="edge">
<title>!p3&#45;&gt;Dup1_0</title>
<g id="a_edge34"><a xlink:title="e59">
<path fill="none" stroke="red" d="M31.58,-745.26C33.91,-718.63 38,-665.48 38,-620.3 38,-620.3 38,-620.3 38,-377 38,-324.51 84.54,-278.14 114.75,-253.57"/>
<ellipse fill="none" stroke="red" cx="118.16" cy="-250.87" rx="4" ry="4"/>
</a>
</g>
</g>
<!-- Dup1_0&#45;&gt;PiR0 -->
<g id="edge38" class="edge">
<title>Dup1_0&#45;&gt;PiR0</title>
<g id="a_edge38"><a xlink:title="hl2i">
<path fill="none" stroke="red" d="M140,-215.7C140,-207.98 140,-198.71 140,-190.11"/>
<polygon fill="red" stroke="red" points="143.5,-190.1 140,-180.1 136.5,-190.1 143.5,-190.1"/>
</a>
</g>
</g>
<!-- Dup2_2 -->
<g id="node37" class="node">
<title>Dup2_2</title>
<ellipse fill="none" stroke="black" cx="247" cy="-306" rx="29.5" ry="18"/>
<text text-anchor="middle" x="247" y="-302.3" font-family="Times-Roman" font-size="14.00">Dup</text>
</g>
<!-- !p4&#45;&gt;Dup2_2 -->
<g id="edge35" class="edge">
<title>!p4&#45;&gt;Dup2_2</title>
<g id="a_edge35"><a xlink:title="e60">
<path fill="none" stroke="red" d="M306.82,-362.83C295.81,-352.56 280.77,-338.52 268.53,-327.09"/>
<ellipse fill="red" stroke="red" cx="265.34" cy="-324.11" rx="4" ry="4"/>
</a>
</g>
</g>
<!-- !p5&#45;&gt;Dup2_2 -->
<g id="edge36" class="edge">
<title>!p5&#45;&gt;Dup2_2</title>
<g id="a_edge36"><a xlink:title="e61">
<path fill="none" stroke="red" d="M247,-359.7C247,-351.39 247,-341.28 247,-332.14"/>
<ellipse fill="none" stroke="red" cx="247" cy="-328.1" rx="4" ry="4"/>
</a>
</g>
</g>
<!-- Dup2_0&#45;&gt;Cut1 -->
<g id="edge7" class="edge">
<title>Dup2_0&#45;&gt;Cut1</title>
<g id="a_edge7"><a xlink:title="e23">
<path fill="none" stroke="blue" d="M154,-952.94C154,-943.78 154,-933.68 154,-925.4"/>
<ellipse fill="blue" stroke="blue" cx="154" cy="-956.99" rx="4" ry="4"/>
</a>
</g>
</g>
<!-- Dup2_0&#45;&gt;Dup0_0 -->
<g id="edge8" class="edge">
<title>Dup2_0&#45;&gt;Dup0_0</title>
<g id="a_edge8"><a xlink:title="e25">
<path fill="none" stroke="blue" d="M172.48,-956.71C179.21,-947.6 186.12,-936.52 190,-925.3 226.06,-820.95 217.38,-684.82 212.86,-637.44"/>
<ellipse fill="none" stroke="blue" cx="169.87" cy="-960.09" rx="4" ry="4"/>
</a>
</g>
</g>
<!-- Dup2_1&#45;&gt;!p0 -->
<g id="edge47" class="edge">
<title>Dup2_1&#45;&gt;!p0</title>
<g id="a_edge47"><a xlink:title="ylp">
<path fill="none" stroke="red" d="M168.78,-1248.99C167.78,-1241.28 166.59,-1232.01 165.49,-1223.41"/>
<polygon fill="red" stroke="red" points="168.95,-1222.87 164.2,-1213.4 162,-1223.76 168.95,-1222.87"/>
</a>
</g>
</g>
<!-- Dup2_2&#45;&gt;Dup1_0 -->
<g id="edge33" class="edge">
<title>Dup2_2&#45;&gt;Dup1_0</title>
<g id="a_edge33"><a xlink:title="e58">
<path fill="none" stroke="red" d="M227.37,-292.16C210.33,-281.01 185.5,-264.76 166.65,-252.44"/>
<ellipse fill="red" stroke="red" cx="162.85" cy="-249.95" rx="4" ry="4"/>
</a>
</g>
</g>
</g>
</svg>
