<?xml version="1.0" encoding="UTF-8" standalone="no"?>
<!DOCTYPE svg PUBLIC "-//W3C//DTD SVG 1.1//EN"
 "http://www.w3.org/Graphics/SVG/1.1/DTD/svg11.dtd">
<!-- Generated by graphviz version 2.43.0 (0)
 -->
<!-- Title: %3 Pages: 1 -->
<svg width="381pt" height="2013pt"
 viewBox="0.00 0.00 380.90 2013.30" xmlns="http://www.w3.org/2000/svg" xmlns:xlink="http://www.w3.org/1999/xlink">
<g id="graph0" class="graph" transform="scale(1 1) rotate(0) translate(4 2009.3)">
<title>%3</title>
<polygon fill="white" stroke="transparent" points="-4,4 -4,-2009.3 376.9,-2009.3 376.9,4 -4,4"/>
<!-- Root0 -->
<g id="node1" class="node">
<title>Root0</title>
<ellipse fill="none" stroke="black" cx="206.25" cy="-1987.3" rx="30.59" ry="18"/>
<text text-anchor="middle" x="206.25" y="-1983.6" font-family="Times-Roman" font-size="14.00">Root</text>
</g>
<!-- I3 -->
<g id="node12" class="node">
<title>I3</title>
<ellipse fill="none" stroke="black" cx="206.25" cy="-1915.3" rx="27" ry="18"/>
<text text-anchor="middle" x="206.25" y="-1911.6" font-family="Times-Roman" font-size="14.00">I</text>
</g>
<!-- Root0&#45;&gt;I3 -->
<g id="edge51" class="edge">
<title>Root0&#45;&gt;I3</title>
<g id="a_edge51"><a xlink:title="rettop">
<path fill="none" stroke="red" stroke-width="2" d="M206.25,-1968.99C206.25,-1961.28 206.25,-1952.01 206.25,-1943.41"/>
<polygon fill="red" stroke="red" stroke-width="2" points="209.75,-1943.4 206.25,-1933.4 202.75,-1943.4 209.75,-1943.4"/>
</a>
</g>
</g>
<!-- !p0 -->
<g id="node2" class="node">
<title>!p0</title>
<ellipse fill="none" stroke="black" cx="130.25" cy="-1555.3" rx="27" ry="18"/>
<text text-anchor="middle" x="130.25" y="-1551.6" font-family="Times-Roman" font-size="14.00">!p</text>
</g>
<!-- I0 -->
<g id="node3" class="node">
<title>I0</title>
<ellipse fill="none" stroke="black" cx="48.25" cy="-1483.3" rx="27" ry="18"/>
<text text-anchor="middle" x="48.25" y="-1479.6" font-family="Times-Roman" font-size="14.00">I</text>
</g>
<!-- !p0&#45;&gt;I0 -->
<g id="edge55" class="edge">
<title>!p0&#45;&gt;I0</title>
<g id="a_edge55"><a xlink:title="yli">
<path fill="none" stroke="red" d="M114.05,-1540.47C102.06,-1530.24 85.56,-1516.14 72.07,-1504.63"/>
<polygon fill="red" stroke="red" points="74.01,-1501.69 64.14,-1497.86 69.47,-1507.01 74.01,-1501.69"/>
</a>
</g>
</g>
<!-- Cut0 -->
<g id="node8" class="node">
<title>Cut0</title>
<ellipse fill="none" stroke="black" cx="158.25" cy="-1483.3" rx="27" ry="18"/>
<text text-anchor="middle" x="158.25" y="-1479.6" font-family="Times-Roman" font-size="14.00">Cut</text>
</g>
<!-- !p0&#45;&gt;Cut0 -->
<g id="edge52" class="edge">
<title>!p0&#45;&gt;Cut0</title>
<g id="a_edge52"><a xlink:title="y2">
<path fill="none" stroke="blue" d="M140.68,-1528.21C144.36,-1519.01 148.39,-1508.94 151.66,-1500.77"/>
<polygon fill="blue" stroke="blue" points="137.35,-1527.12 136.88,-1537.71 143.85,-1529.72 137.35,-1527.12"/>
</a>
</g>
</g>
<!-- !d0 -->
<g id="node4" class="node">
<title>!d0</title>
<ellipse fill="none" stroke="black" cx="67.25" cy="-1411.3" rx="27" ry="18"/>
<text text-anchor="middle" x="67.25" y="-1407.6" font-family="Times-Roman" font-size="14.00">!d</text>
</g>
<!-- I0&#45;&gt;!d0 -->
<g id="edge54" class="edge">
<title>I0&#45;&gt;!d0</title>
<g id="a_edge54"><a xlink:title="yl2">
<path fill="none" stroke="blue" d="M55.54,-1455.43C57.94,-1446.57 60.55,-1436.97 62.69,-1429.08"/>
<polygon fill="blue" stroke="blue" points="52.09,-1454.78 52.85,-1465.35 58.84,-1456.62 52.09,-1454.78"/>
</a>
</g>
</g>
<!-- !d0&#45;&gt;!p0 -->
<g id="edge53" class="edge">
<title>!d0&#45;&gt;!p0</title>
<g id="a_edge53"><a xlink:title="yj">
<path fill="none" stroke="blue" d="M78.75,-1438.23C91.61,-1467.21 112.04,-1513.25 122.9,-1537.73"/>
<polygon fill="blue" stroke="blue" points="81.81,-1436.48 74.55,-1428.76 75.41,-1439.32 81.81,-1436.48"/>
</a>
</g>
</g>
<!-- I1 -->
<g id="node5" class="node">
<title>I1</title>
<ellipse fill="none" stroke="black" cx="188.25" cy="-450" rx="27" ry="18"/>
<text text-anchor="middle" x="188.25" y="-446.3" font-family="Times-Roman" font-size="14.00">I</text>
</g>
<!-- !d1 -->
<g id="node6" class="node">
<title>!d1</title>
<ellipse fill="none" stroke="black" cx="188.25" cy="-378" rx="27" ry="18"/>
<text text-anchor="middle" x="188.25" y="-374.3" font-family="Times-Roman" font-size="14.00">!d</text>
</g>
<!-- I1&#45;&gt;!d1 -->
<g id="edge49" class="edge">
<title>I1&#45;&gt;!d1</title>
<g id="a_edge49"><a xlink:title="il">
<path fill="none" stroke="blue" d="M188.25,-421.67C188.25,-413.05 188.25,-403.79 188.25,-396.1"/>
<polygon fill="blue" stroke="blue" points="184.75,-421.7 188.25,-431.7 191.75,-421.7 184.75,-421.7"/>
</a>
</g>
</g>
<!-- Dup1_0 -->
<g id="node33" class="node">
<title>Dup1_0</title>
<ellipse fill="none" stroke="black" cx="188.25" cy="-306" rx="29.5" ry="18"/>
<text text-anchor="middle" x="188.25" y="-302.3" font-family="Times-Roman" font-size="14.00">Dup</text>
</g>
<!-- !d1&#45;&gt;Dup1_0 -->
<g id="edge48" class="edge">
<title>!d1&#45;&gt;Dup1_0</title>
<g id="a_edge48"><a xlink:title="i">
<path fill="none" stroke="blue" d="M188.25,-349.67C188.25,-341.05 188.25,-331.79 188.25,-324.1"/>
<polygon fill="blue" stroke="blue" points="184.75,-349.7 188.25,-359.7 191.75,-349.7 184.75,-349.7"/>
</a>
</g>
</g>
<!-- !p1 -->
<g id="node7" class="node">
<title>!p1</title>
<ellipse fill="none" stroke="black" cx="148.25" cy="-1411.3" rx="27" ry="18"/>
<text text-anchor="middle" x="148.25" y="-1407.6" font-family="Times-Roman" font-size="14.00">!p</text>
</g>
<!-- I2 -->
<g id="node11" class="node">
<title>I2</title>
<ellipse fill="none" stroke="black" cx="180.25" cy="-1339.3" rx="27" ry="18"/>
<text text-anchor="middle" x="180.25" y="-1335.6" font-family="Times-Roman" font-size="14.00">I</text>
</g>
<!-- !p1&#45;&gt;I2 -->
<g id="edge1" class="edge">
<title>!p1&#45;&gt;I2</title>
<g id="a_edge1"><a xlink:title="e11">
<path fill="none" stroke="red" d="M155.83,-1393.71C159.62,-1385.42 164.28,-1375.22 168.52,-1365.96"/>
<polygon fill="red" stroke="red" points="171.74,-1367.32 172.72,-1356.77 165.38,-1364.4 171.74,-1367.32"/>
</a>
</g>
</g>
<!-- Dup2_0 -->
<g id="node36" class="node">
<title>Dup2_0</title>
<ellipse fill="none" stroke="black" cx="68.25" cy="-1339.3" rx="29.5" ry="18"/>
<text text-anchor="middle" x="68.25" y="-1335.6" font-family="Times-Roman" font-size="14.00">Dup</text>
</g>
<!-- !p1&#45;&gt;Dup2_0 -->
<g id="edge3" class="edge">
<title>!p1&#45;&gt;Dup2_0</title>
<g id="a_edge3"><a xlink:title="e15">
<path fill="none" stroke="blue" d="M124.82,-1389.79C111.89,-1378.48 96.16,-1364.72 84.57,-1354.58"/>
<polygon fill="blue" stroke="blue" points="122.61,-1392.51 132.44,-1396.47 127.22,-1387.25 122.61,-1392.51"/>
</a>
</g>
</g>
<!-- Cut0&#45;&gt;!p1 -->
<g id="edge47" class="edge">
<title>Cut0&#45;&gt;!p1</title>
<g id="a_edge47"><a xlink:title="e9">
<path fill="none" stroke="red" d="M155.83,-1465.35C154.73,-1457.64 153.39,-1448.32 152.16,-1439.66"/>
<polygon fill="red" stroke="red" points="155.59,-1438.98 150.72,-1429.57 148.66,-1439.97 155.59,-1438.98"/>
</a>
</g>
</g>
<!-- !d2 -->
<g id="node9" class="node">
<title>!d2</title>
<ellipse fill="none" stroke="black" cx="142.25" cy="-1195.3" rx="27" ry="18"/>
<text text-anchor="middle" x="142.25" y="-1191.6" font-family="Times-Roman" font-size="14.00">!d</text>
</g>
<!-- !d2&#45;&gt;!p1 -->
<g id="edge2" class="edge">
<title>!d2&#45;&gt;!p1</title>
<g id="a_edge2"><a xlink:title="e13">
<path fill="none" stroke="blue" d="M142.06,-1224.07C141.97,-1256.17 142.2,-1310.58 144.25,-1357.3 144.77,-1369.28 145.8,-1382.76 146.68,-1393.13"/>
<polygon fill="blue" stroke="blue" points="145.56,-1223.71 142.11,-1213.7 138.56,-1223.68 145.56,-1223.71"/>
</a>
</g>
</g>
<!-- PiL0 -->
<g id="node10" class="node">
<title>PiL0</title>
<ellipse fill="none" stroke="black" cx="180.25" cy="-1267.3" rx="27" ry="18"/>
<text text-anchor="middle" x="180.25" y="-1263.6" font-family="Times-Roman" font-size="14.00">PiL</text>
</g>
<!-- PiL0&#45;&gt;!d2 -->
<g id="edge4" class="edge">
<title>PiL0&#45;&gt;!d2</title>
<g id="a_edge4"><a xlink:title="e17">
<path fill="none" stroke="blue" d="M166.52,-1241C161.34,-1231.47 155.61,-1220.91 151.01,-1212.44"/>
<polygon fill="blue" stroke="blue" points="163.59,-1242.94 171.43,-1250.06 169.74,-1239.6 163.59,-1242.94"/>
</a>
</g>
</g>
<!-- !p3 -->
<g id="node27" class="node">
<title>!p3</title>
<ellipse fill="none" stroke="black" cx="283.25" cy="-1123.3" rx="27" ry="18"/>
<text text-anchor="middle" x="283.25" y="-1119.6" font-family="Times-Roman" font-size="14.00">!p</text>
</g>
<!-- PiL0&#45;&gt;!p3 -->
<g id="edge6" class="edge">
<title>PiL0&#45;&gt;!p3</title>
<g id="a_edge6"><a xlink:title="e21">
<path fill="none" stroke="red" d="M191.47,-1250.83C209.42,-1226.07 244.75,-1177.38 265.95,-1148.14"/>
<polygon fill="red" stroke="red" points="269,-1149.89 272.04,-1139.74 263.34,-1145.78 269,-1149.89"/>
</a>
</g>
</g>
<!-- I2&#45;&gt;PiL0 -->
<g id="edge5" class="edge">
<title>I2&#45;&gt;PiL0</title>
<g id="a_edge5"><a xlink:title="e19">
<path fill="none" stroke="blue" d="M180.25,-1310.96C180.25,-1302.35 180.25,-1293.09 180.25,-1285.4"/>
<polygon fill="blue" stroke="blue" points="176.75,-1310.99 180.25,-1320.99 183.75,-1310.99 176.75,-1310.99"/>
</a>
</g>
</g>
<!-- PiL5 -->
<g id="node26" class="node">
<title>PiL5</title>
<ellipse fill="none" stroke="black" cx="206.25" cy="-1843.3" rx="27" ry="18"/>
<text text-anchor="middle" x="206.25" y="-1839.6" font-family="Times-Roman" font-size="14.00">PiL</text>
</g>
<!-- I3&#45;&gt;PiL5 -->
<g id="edge10" class="edge">
<title>I3&#45;&gt;PiL5</title>
<g id="a_edge10"><a xlink:title="e32">
<path fill="none" stroke="blue" stroke-width="2" d="M206.25,-1886.96C206.25,-1878.35 206.25,-1869.09 206.25,-1861.4"/>
<polygon fill="blue" stroke="blue" stroke-width="2" points="202.75,-1886.99 206.25,-1896.99 209.75,-1886.99 202.75,-1886.99"/>
</a>
</g>
</g>
<!-- !p2 -->
<g id="node13" class="node">
<title>!p2</title>
<ellipse fill="none" stroke="black" cx="70.25" cy="-1195.3" rx="27" ry="18"/>
<text text-anchor="middle" x="70.25" y="-1191.6" font-family="Times-Roman" font-size="14.00">!p</text>
</g>
<!-- PiR0 -->
<g id="node15" class="node">
<title>PiR0</title>
<ellipse fill="none" stroke="black" cx="91.25" cy="-1123.3" rx="27" ry="18"/>
<text text-anchor="middle" x="91.25" y="-1119.6" font-family="Times-Roman" font-size="14.00">PiR</text>
</g>
<!-- !p2&#45;&gt;PiR0 -->
<g id="edge14" class="edge">
<title>!p2&#45;&gt;PiR0</title>
<g id="a_edge14"><a xlink:title="e39">
<path fill="none" stroke="red" d="M75.33,-1177.35C77.73,-1169.35 80.65,-1159.63 83.33,-1150.69"/>
<polygon fill="red" stroke="red" points="86.69,-1151.67 86.21,-1141.08 79.98,-1149.66 86.69,-1151.67"/>
</a>
</g>
</g>
<!-- Cut1 -->
<g id="node14" class="node">
<title>Cut1</title>
<ellipse fill="none" stroke="black" cx="70.25" cy="-1267.3" rx="27" ry="18"/>
<text text-anchor="middle" x="70.25" y="-1263.6" font-family="Times-Roman" font-size="14.00">Cut</text>
</g>
<!-- Cut1&#45;&gt;!p2 -->
<g id="edge13" class="edge">
<title>Cut1&#45;&gt;!p2</title>
<g id="a_edge13"><a xlink:title="e37">
<path fill="none" stroke="red" d="M70.25,-1248.99C70.25,-1241.28 70.25,-1232.01 70.25,-1223.41"/>
<polygon fill="red" stroke="red" points="73.75,-1223.4 70.25,-1213.4 66.75,-1223.4 73.75,-1223.4"/>
</a>
</g>
</g>
<!-- I4 -->
<g id="node22" class="node">
<title>I4</title>
<ellipse fill="none" stroke="black" cx="160.25" cy="-1051.3" rx="27" ry="18"/>
<text text-anchor="middle" x="160.25" y="-1047.6" font-family="Times-Roman" font-size="14.00">I</text>
</g>
<!-- PiR0&#45;&gt;I4 -->
<g id="edge16" class="edge">
<title>PiR0&#45;&gt;I4</title>
<g id="a_edge16"><a xlink:title="e43">
<path fill="none" stroke="red" d="M105.54,-1107.79C115.17,-1098.03 128.02,-1084.99 138.86,-1074"/>
<polygon fill="red" stroke="red" points="141.44,-1076.36 145.97,-1066.78 136.46,-1071.45 141.44,-1076.36"/>
</a>
</g>
</g>
<!-- !c0 -->
<g id="node16" class="node">
<title>!c0</title>
<ellipse fill="none" stroke="black" cx="101.25" cy="-763.3" rx="27" ry="18"/>
<text text-anchor="middle" x="101.25" y="-759.6" font-family="Times-Roman" font-size="14.00">!c</text>
</g>
<!-- !c0&#45;&gt;PiR0 -->
<g id="edge15" class="edge">
<title>!c0&#45;&gt;PiR0</title>
<g id="a_edge15"><a xlink:title="e41">
<path fill="none" stroke="blue" d="M98.21,-791.34C95.27,-819.88 91.25,-866.19 91.25,-906.3 91.25,-980.3 91.25,-980.3 91.25,-980.3 91.25,-1025.41 91.25,-1078.59 91.25,-1105.25"/>
<polygon fill="blue" stroke="blue" points="101.7,-791.63 99.27,-781.32 94.73,-790.89 101.7,-791.63"/>
</a>
</g>
</g>
<!-- !d3 -->
<g id="node17" class="node">
<title>!d3</title>
<ellipse fill="none" stroke="black" cx="146.25" cy="-835.3" rx="27" ry="18"/>
<text text-anchor="middle" x="146.25" y="-831.6" font-family="Times-Roman" font-size="14.00">!d</text>
</g>
<!-- !d3&#45;&gt;!c0 -->
<g id="edge18" class="edge">
<title>!d3&#45;&gt;!c0</title>
<g id="a_edge18"><a xlink:title="e46">
<path fill="none" stroke="blue" d="M130.51,-809.81C124.17,-799.96 117.05,-788.88 111.42,-780.12"/>
<polygon fill="blue" stroke="blue" points="127.68,-811.89 136.04,-818.41 133.57,-808.11 127.68,-811.89"/>
</a>
</g>
</g>
<!-- PiL1 -->
<g id="node18" class="node">
<title>PiL1</title>
<ellipse fill="none" stroke="black" cx="338.25" cy="-907.3" rx="27" ry="18"/>
<text text-anchor="middle" x="338.25" y="-903.6" font-family="Times-Roman" font-size="14.00">PiL</text>
</g>
<!-- Dup0_1 -->
<g id="node24" class="node">
<title>Dup0_1</title>
<ellipse fill="none" stroke="black" cx="220.25" cy="-835.3" rx="29.5" ry="18"/>
<text text-anchor="middle" x="220.25" y="-831.6" font-family="Times-Roman" font-size="14.00">Dup</text>
</g>
<!-- PiL1&#45;&gt;Dup0_1 -->
<g id="edge24" class="edge">
<title>PiL1&#45;&gt;Dup0_1</title>
<g id="a_edge24"><a xlink:title="e52">
<path fill="none" stroke="red" d="M318.76,-894.74C299.35,-883.22 269.39,-865.45 247.6,-852.52"/>
<ellipse fill="red" stroke="red" cx="243.99" cy="-850.38" rx="4" ry="4"/>
</a>
</g>
</g>
<!-- Cut3 -->
<g id="node31" class="node">
<title>Cut3</title>
<ellipse fill="none" stroke="black" cx="342.25" cy="-606.65" rx="26.78" ry="26.78"/>
<ellipse fill="none" stroke="black" cx="342.25" cy="-606.65" rx="30.8" ry="30.8"/>
<text text-anchor="middle" x="342.25" y="-602.95" font-family="Times-Roman" font-size="14.00">Cut</text>
</g>
<!-- PiL1&#45;&gt;Cut3 -->
<g id="edge20" class="edge">
<title>PiL1&#45;&gt;Cut3</title>
<g id="a_edge20"><a xlink:title="e48">
<path fill="none" stroke="blue" stroke-width="2" d="M338.62,-878.7C339.37,-822.49 341.07,-695.19 341.85,-637.3"/>
<polygon fill="blue" stroke="blue" stroke-width="2" points="335.11,-878.9 338.48,-888.95 342.11,-879 335.11,-878.9"/>
</a>
</g>
</g>
<!-- PiL2 -->
<g id="node19" class="node">
<title>PiL2</title>
<ellipse fill="none" stroke="black" cx="197.25" cy="-907.3" rx="27" ry="18"/>
<text text-anchor="middle" x="197.25" y="-903.6" font-family="Times-Roman" font-size="14.00">PiL</text>
</g>
<!-- PiL2&#45;&gt;!d3 -->
<g id="edge21" class="edge">
<title>PiL2&#45;&gt;!d3</title>
<g id="a_edge21"><a xlink:title="e49">
<path fill="none" stroke="blue" d="M180.01,-882.63C172.59,-872.46 164.13,-860.84 157.53,-851.79"/>
<polygon fill="blue" stroke="blue" points="177.21,-884.74 185.93,-890.76 182.87,-880.62 177.21,-884.74"/>
</a>
</g>
</g>
<!-- PiL2&#45;&gt;Dup0_1 -->
<g id="edge25" class="edge">
<title>PiL2&#45;&gt;Dup0_1</title>
<g id="a_edge25"><a xlink:title="e53">
<path fill="none" stroke="red" d="M202.82,-889.35C205.64,-880.75 209.12,-870.15 212.23,-860.69"/>
<ellipse fill="none" stroke="red" cx="213.48" cy="-856.88" rx="4" ry="4"/>
</a>
</g>
</g>
<!-- PiL3 -->
<g id="node20" class="node">
<title>PiL3</title>
<ellipse fill="none" stroke="black" cx="235.25" cy="-1771.3" rx="27" ry="18"/>
<text text-anchor="middle" x="235.25" y="-1767.6" font-family="Times-Roman" font-size="14.00">PiL</text>
</g>
<!-- PiL3&#45;&gt;PiL1 -->
<g id="edge22" class="edge">
<title>PiL3&#45;&gt;PiL1</title>
<g id="a_edge22"><a xlink:title="e50">
<path fill="none" stroke="blue" stroke-width="2" d="M261.32,-1751.32C291.84,-1726.69 338.25,-1680.63 338.25,-1628.3 338.25,-1628.3 338.25,-1628.3 338.25,-1050.3 338.25,-1005.18 338.25,-952 338.25,-925.34"/>
<polygon fill="blue" stroke="blue" stroke-width="2" points="258.91,-1748.76 253.19,-1757.68 263.22,-1754.27 258.91,-1748.76"/>
</a>
</g>
</g>
<!-- Dup0_2 -->
<g id="node25" class="node">
<title>Dup0_2</title>
<ellipse fill="none" stroke="black" cx="235.25" cy="-1699.3" rx="29.5" ry="18"/>
<text text-anchor="middle" x="235.25" y="-1695.6" font-family="Times-Roman" font-size="14.00">Dup</text>
</g>
<!-- PiL3&#45;&gt;Dup0_2 -->
<g id="edge28" class="edge">
<title>PiL3&#45;&gt;Dup0_2</title>
<g id="a_edge28"><a xlink:title="e56">
<path fill="none" stroke="red" d="M235.25,-1752.99C235.25,-1744.68 235.25,-1734.57 235.25,-1725.44"/>
<ellipse fill="red" stroke="red" cx="235.25" cy="-1721.4" rx="4" ry="4"/>
</a>
</g>
</g>
<!-- PiL4 -->
<g id="node21" class="node">
<title>PiL4</title>
<ellipse fill="none" stroke="black" cx="197.25" cy="-979.3" rx="27" ry="18"/>
<text text-anchor="middle" x="197.25" y="-975.6" font-family="Times-Roman" font-size="14.00">PiL</text>
</g>
<!-- PiL4&#45;&gt;PiL2 -->
<g id="edge23" class="edge">
<title>PiL4&#45;&gt;PiL2</title>
<g id="a_edge23"><a xlink:title="e51">
<path fill="none" stroke="blue" d="M197.25,-950.96C197.25,-942.35 197.25,-933.09 197.25,-925.4"/>
<polygon fill="blue" stroke="blue" points="193.75,-950.99 197.25,-960.99 200.75,-950.99 193.75,-950.99"/>
</a>
</g>
</g>
<!-- PiL4&#45;&gt;Dup0_2 -->
<g id="edge29" class="edge">
<title>PiL4&#45;&gt;Dup0_2</title>
<g id="a_edge29"><a xlink:title="e57">
<path fill="none" stroke="red" d="M201.1,-997.28C210.76,-1041.39 235.25,-1163.36 235.25,-1266.3 235.25,-1556.3 235.25,-1556.3 235.25,-1556.3 235.25,-1597.18 235.25,-1644.69 235.25,-1673.08"/>
<ellipse fill="none" stroke="red" cx="235.25" cy="-1677.25" rx="4" ry="4"/>
</a>
</g>
</g>
<!-- I4&#45;&gt;PiL4 -->
<g id="edge27" class="edge">
<title>I4&#45;&gt;PiL4</title>
<g id="a_edge27"><a xlink:title="e55">
<path fill="none" stroke="blue" d="M173.62,-1025C178.65,-1015.47 184.24,-1004.91 188.71,-996.44"/>
<polygon fill="blue" stroke="blue" points="170.41,-1023.58 168.83,-1034.06 176.6,-1026.85 170.41,-1023.58"/>
</a>
</g>
</g>
<!-- Dup0_0 -->
<g id="node23" class="node">
<title>Dup0_0</title>
<ellipse fill="none" stroke="black" cx="29.25" cy="-835.3" rx="29.5" ry="18"/>
<text text-anchor="middle" x="29.25" y="-831.6" font-family="Times-Roman" font-size="14.00">Dup</text>
</g>
<!-- Dup0_0&#45;&gt;!c0 -->
<g id="edge19" class="edge">
<title>Dup0_0&#45;&gt;!c0</title>
<g id="a_edge19"><a xlink:title="e47">
<path fill="none" stroke="blue" d="M49.97,-814.15C61.6,-802.84 75.83,-789.01 86.35,-778.78"/>
<ellipse fill="none" stroke="blue" cx="47.03" cy="-817" rx="4" ry="4"/>
</a>
</g>
</g>
<!-- Cut2 -->
<g id="node30" class="node">
<title>Cut2</title>
<ellipse fill="none" stroke="black" cx="29.25" cy="-763.3" rx="27" ry="18"/>
<text text-anchor="middle" x="29.25" y="-759.6" font-family="Times-Roman" font-size="14.00">Cut</text>
</g>
<!-- Dup0_0&#45;&gt;Cut2 -->
<g id="edge17" class="edge">
<title>Dup0_0&#45;&gt;Cut2</title>
<g id="a_edge17"><a xlink:title="e45">
<path fill="none" stroke="blue" d="M29.25,-808.94C29.25,-799.78 29.25,-789.68 29.25,-781.4"/>
<ellipse fill="blue" stroke="blue" cx="29.25" cy="-812.99" rx="4" ry="4"/>
</a>
</g>
</g>
<!-- !p4 -->
<g id="node28" class="node">
<title>!p4</title>
<ellipse fill="none" stroke="black" cx="198.25" cy="-763.3" rx="27" ry="18"/>
<text text-anchor="middle" x="198.25" y="-759.6" font-family="Times-Roman" font-size="14.00">!p</text>
</g>
<!-- Dup0_1&#45;&gt;!p4 -->
<g id="edge9" class="edge">
<title>Dup0_1&#45;&gt;!p4</title>
<g id="a_edge9"><a xlink:title="e31">
<path fill="none" stroke="red" d="M214.92,-817.35C212.41,-809.35 209.35,-799.63 206.54,-790.69"/>
<polygon fill="red" stroke="red" points="209.86,-789.57 203.52,-781.08 203.18,-791.67 209.86,-789.57"/>
</a>
</g>
</g>
<!-- Dup2_1 -->
<g id="node37" class="node">
<title>Dup2_1</title>
<ellipse fill="none" stroke="black" cx="178.25" cy="-1627.3" rx="29.5" ry="18"/>
<text text-anchor="middle" x="178.25" y="-1623.6" font-family="Times-Roman" font-size="14.00">Dup</text>
</g>
<!-- Dup0_2&#45;&gt;Dup2_1 -->
<g id="edge12" class="edge">
<title>Dup0_2&#45;&gt;Dup2_1</title>
<g id="a_edge12"><a xlink:title="e35">
<path fill="none" stroke="red" d="M222.6,-1682.76C214.77,-1673.15 204.62,-1660.68 196,-1650.09"/>
<ellipse fill="none" stroke="red" cx="193.39" cy="-1646.89" rx="4" ry="4"/>
</a>
</g>
</g>
<!-- PiL5&#45;&gt;PiL3 -->
<g id="edge26" class="edge">
<title>PiL5&#45;&gt;PiL3</title>
<g id="a_edge26"><a xlink:title="e54">
<path fill="none" stroke="blue" stroke-width="2" d="M217.06,-1816.21C220.86,-1807.01 225.04,-1796.94 228.42,-1788.77"/>
<polygon fill="blue" stroke="blue" stroke-width="2" points="213.71,-1815.13 213.12,-1825.71 220.18,-1817.81 213.71,-1815.13"/>
</a>
</g>
</g>
<!-- PiL5&#45;&gt;Dup2_1 -->
<g id="edge11" class="edge">
<title>PiL5&#45;&gt;Dup2_1</title>
<g id="a_edge11"><a xlink:title="e34">
<path fill="none" stroke="red" d="M203.97,-1825.11C202.6,-1814.74 200.82,-1801.26 199.25,-1789.3 192.98,-1741.52 185.72,-1685.77 181.59,-1653.99"/>
<ellipse fill="red" stroke="red" cx="181.02" cy="-1649.66" rx="4" ry="4"/>
</a>
</g>
</g>
<!-- PiR1 -->
<g id="node32" class="node">
<title>PiR1</title>
<ellipse fill="none" stroke="black" cx="245.25" cy="-234" rx="27" ry="18"/>
<text text-anchor="middle" x="245.25" y="-230.3" font-family="Times-Roman" font-size="14.00">PiR</text>
</g>
<!-- !p3&#45;&gt;PiR1 -->
<g id="edge30" class="edge">
<title>!p3&#45;&gt;PiR1</title>
<g id="a_edge30"><a xlink:title="e59">
<path fill="none" stroke="red" d="M283.25,-1105.25C283.25,-1078.59 283.25,-1025.41 283.25,-980.3 283.25,-980.3 283.25,-980.3 283.25,-377 283.25,-335.41 267.84,-289.22 256.65,-261.14"/>
<polygon fill="red" stroke="red" points="259.79,-259.58 252.75,-251.66 253.32,-262.24 259.79,-259.58"/>
</a>
</g>
</g>
<!-- PiR2 -->
<g id="node35" class="node">
<title>PiR2</title>
<ellipse fill="none" stroke="black" cx="181.25" cy="-691.3" rx="27" ry="18"/>
<text text-anchor="middle" x="181.25" y="-687.6" font-family="Times-Roman" font-size="14.00">PiR</text>
</g>
<!-- !p4&#45;&gt;PiR2 -->
<g id="edge31" class="edge">
<title>!p4&#45;&gt;PiR2</title>
<g id="a_edge31"><a xlink:title="e61">
<path fill="none" stroke="red" d="M194.13,-745.35C192.24,-737.56 189.95,-728.12 187.82,-719.37"/>
<polygon fill="red" stroke="red" points="191.2,-718.46 185.44,-709.57 184.4,-720.11 191.2,-718.46"/>
</a>
</g>
</g>
<!-- !p5 -->
<g id="node29" class="node">
<title>!p5</title>
<ellipse fill="none" stroke="black" cx="33.25" cy="-522" rx="27" ry="18"/>
<text text-anchor="middle" x="33.25" y="-518.3" font-family="Times-Roman" font-size="14.00">!p</text>
</g>
<!-- PiR4 -->
<g id="node41" class="node">
<title>PiR4</title>
<ellipse fill="none" stroke="black" cx="61.25" cy="-90" rx="27" ry="18"/>
<text text-anchor="middle" x="61.25" y="-86.3" font-family="Times-Roman" font-size="14.00">PiR</text>
</g>
<!-- !p5&#45;&gt;PiR4 -->
<g id="edge34" class="edge">
<title>!p5&#45;&gt;PiR4</title>
<g id="a_edge34"><a xlink:title="e65">
<path fill="none" stroke="red" d="M33.44,-503.95C33.74,-477.29 34.25,-424.12 34.25,-379 34.25,-379 34.25,-379 34.25,-233 34.25,-192.28 45.1,-146.13 53.04,-117.79"/>
<polygon fill="red" stroke="red" points="56.5,-118.43 55.91,-107.85 49.77,-116.49 56.5,-118.43"/>
</a>
</g>
</g>
<!-- Cut2&#45;&gt;!p5 -->
<g id="edge32" class="edge">
<title>Cut2&#45;&gt;!p5</title>
<g id="a_edge32"><a xlink:title="e63">
<path fill="none" stroke="red" d="M29.54,-745.09C30.22,-704.04 31.96,-600.11 32.79,-550.36"/>
<polygon fill="red" stroke="red" points="36.29,-550.11 32.96,-540.05 29.3,-549.99 36.29,-550.11"/>
</a>
</g>
</g>
<!-- PiR3 -->
<g id="node40" class="node">
<title>PiR3</title>
<ellipse fill="none" stroke="black" cx="133.25" cy="-90" rx="27" ry="18"/>
<text text-anchor="middle" x="133.25" y="-86.3" font-family="Times-Roman" font-size="14.00">PiR</text>
</g>
<!-- Cut3&#45;&gt;PiR3 -->
<g id="edge33" class="edge">
<title>Cut3&#45;&gt;PiR3</title>
<g id="a_edge33"><a xlink:title="e64">
<path fill="none" stroke="red" d="M335.89,-576.45C329.71,-545.47 321.25,-495.03 321.25,-451 321.25,-451 321.25,-451 321.25,-377 321.25,-303.27 320.19,-278.61 281.25,-216 251.13,-167.58 195.98,-128.46 162.17,-107.57"/>
<polygon fill="red" stroke="red" points="163.61,-104.35 153.24,-102.17 159.99,-110.34 163.61,-104.35"/>
</a>
</g>
</g>
<!-- Dup1_1 -->
<g id="node34" class="node">
<title>Dup1_1</title>
<ellipse fill="none" stroke="black" cx="188.25" cy="-522" rx="29.5" ry="18"/>
<text text-anchor="middle" x="188.25" y="-518.3" font-family="Times-Roman" font-size="14.00">Dup</text>
</g>
<!-- PiR1&#45;&gt;Dup1_1 -->
<g id="edge38" class="edge">
<title>PiR1&#45;&gt;Dup1_1</title>
<g id="a_edge38"><a xlink:title="e69">
<path fill="none" stroke="red" d="M246.56,-252C249,-291.33 251.72,-391.13 224.25,-468 220.25,-479.18 213.32,-490.26 206.61,-499.37"/>
<ellipse fill="none" stroke="red" cx="204" cy="-502.75" rx="4" ry="4"/>
</a>
</g>
</g>
<!-- Dup1_0&#45;&gt;PiR1 -->
<g id="edge36" class="edge">
<title>Dup1_0&#45;&gt;PiR1</title>
<g id="a_edge36"><a xlink:title="e67">
<path fill="none" stroke="blue" d="M206.04,-283.16C214.66,-272.56 224.82,-260.09 232.63,-250.49"/>
<ellipse fill="none" stroke="blue" cx="203.42" cy="-286.36" rx="4" ry="4"/>
</a>
</g>
</g>
<!-- Dup2_2 -->
<g id="node38" class="node">
<title>Dup2_2</title>
<ellipse fill="none" stroke="black" cx="93.25" cy="-234" rx="29.5" ry="18"/>
<text text-anchor="middle" x="93.25" y="-230.3" font-family="Times-Roman" font-size="14.00">Dup</text>
</g>
<!-- Dup1_0&#45;&gt;Dup2_2 -->
<g id="edge35" class="edge">
<title>Dup1_0&#45;&gt;Dup2_2</title>
<g id="a_edge35"><a xlink:title="e66">
<path fill="none" stroke="blue" d="M163.23,-286.57C146.88,-274.52 125.89,-259.05 111.19,-248.22"/>
<ellipse fill="blue" stroke="blue" cx="166.71" cy="-289.13" rx="4" ry="4"/>
</a>
</g>
</g>
<!-- Dup1_1&#45;&gt;I1 -->
<g id="edge50" class="edge">
<title>Dup1_1&#45;&gt;I1</title>
<g id="a_edge50"><a xlink:title="ir">
<path fill="none" stroke="red" d="M188.25,-503.7C188.25,-495.98 188.25,-486.71 188.25,-478.11"/>
<polygon fill="red" stroke="red" points="191.75,-478.1 188.25,-468.1 184.75,-478.1 191.75,-478.1"/>
</a>
</g>
</g>
<!-- Dup2_3 -->
<g id="node39" class="node">
<title>Dup2_3</title>
<ellipse fill="none" stroke="black" cx="181.25" cy="-606.65" rx="29.5" ry="18"/>
<text text-anchor="middle" x="181.25" y="-602.95" font-family="Times-Roman" font-size="14.00">Dup</text>
</g>
<!-- PiR2&#45;&gt;Dup2_3 -->
<g id="edge42" class="edge">
<title>PiR2&#45;&gt;Dup2_3</title>
<g id="a_edge42"><a xlink:title="e73">
<path fill="none" stroke="red" d="M181.25,-673.17C181.25,-661.54 181.25,-645.95 181.25,-632.89"/>
<ellipse fill="none" stroke="red" cx="181.25" cy="-628.75" rx="4" ry="4"/>
</a>
</g>
</g>
<!-- Dup2_0&#45;&gt;Cut1 -->
<g id="edge7" class="edge">
<title>Dup2_0&#45;&gt;Cut1</title>
<g id="a_edge7"><a xlink:title="e23">
<path fill="none" stroke="blue" d="M68.97,-1312.94C69.23,-1303.78 69.52,-1293.68 69.76,-1285.4"/>
<ellipse fill="blue" stroke="blue" cx="68.86" cy="-1316.99" rx="4" ry="4"/>
</a>
</g>
</g>
<!-- Dup2_0&#45;&gt;Dup0_0 -->
<g id="edge8" class="edge">
<title>Dup2_0&#45;&gt;Dup0_0</title>
<g id="a_edge8"><a xlink:title="e25">
<path fill="none" stroke="blue" d="M51.31,-1315.86C45.14,-1306.77 38.62,-1295.93 34.25,-1285.3 18.86,-1247.89 15.25,-1236.74 15.25,-1196.3 15.25,-1196.3 15.25,-1196.3 15.25,-978.3 15.25,-932.96 22.4,-879.88 26.48,-853.29"/>
<ellipse fill="none" stroke="blue" cx="53.61" cy="-1319.15" rx="4" ry="4"/>
</a>
</g>
</g>
<!-- Dup2_1&#45;&gt;!p0 -->
<g id="edge56" class="edge">
<title>Dup2_1&#45;&gt;!p0</title>
<g id="a_edge56"><a xlink:title="ylp">
<path fill="none" stroke="red" d="M167.36,-1610.41C161.28,-1601.55 153.59,-1590.33 146.78,-1580.41"/>
<polygon fill="red" stroke="red" points="149.64,-1578.38 141.1,-1572.12 143.87,-1582.34 149.64,-1578.38"/>
</a>
</g>
</g>
<!-- Dup2_2&#45;&gt;PiR2 -->
<g id="edge40" class="edge">
<title>Dup2_2&#45;&gt;PiR2</title>
<g id="a_edge40"><a xlink:title="e71">
<path fill="none" stroke="blue" d="M93.25,-260.22C93.25,-288.61 93.25,-336.11 93.25,-377 93.25,-523 93.25,-523 93.25,-523 93.25,-585.68 142.23,-647.96 167.11,-675.54"/>
<ellipse fill="none" stroke="blue" cx="93.25" cy="-256.05" rx="4" ry="4"/>
</a>
</g>
</g>
<!-- Dup3_0 -->
<g id="node42" class="node">
<title>Dup3_0</title>
<ellipse fill="none" stroke="black" cx="93.25" cy="-162" rx="29.5" ry="18"/>
<text text-anchor="middle" x="93.25" y="-158.3" font-family="Times-Roman" font-size="14.00">Dup</text>
</g>
<!-- Dup2_2&#45;&gt;Dup3_0 -->
<g id="edge39" class="edge">
<title>Dup2_2&#45;&gt;Dup3_0</title>
<g id="a_edge39"><a xlink:title="e70">
<path fill="none" stroke="blue" d="M93.25,-207.64C93.25,-198.49 93.25,-188.38 93.25,-180.1"/>
<ellipse fill="blue" stroke="blue" cx="93.25" cy="-211.7" rx="4" ry="4"/>
</a>
</g>
</g>
<!-- Dup2_3&#45;&gt;Dup1_1 -->
<g id="edge37" class="edge">
<title>Dup2_3&#45;&gt;Dup1_1</title>
<g id="a_edge37"><a xlink:title="e68">
<path fill="none" stroke="red" d="M182.7,-588.52C183.68,-576.89 185,-561.3 186.11,-548.25"/>
<ellipse fill="red" stroke="red" cx="186.46" cy="-544.09" rx="4" ry="4"/>
</a>
</g>
</g>
<!-- Dup3_1 -->
<g id="node43" class="node">
<title>Dup3_1</title>
<ellipse fill="none" stroke="black" cx="133.25" cy="-18" rx="29.5" ry="18"/>
<text text-anchor="middle" x="133.25" y="-14.3" font-family="Times-Roman" font-size="14.00">Dup</text>
</g>
<!-- PiR3&#45;&gt;Dup3_1 -->
<g id="edge45" class="edge">
<title>PiR3&#45;&gt;Dup3_1</title>
<g id="a_edge45"><a xlink:title="e76">
<path fill="none" stroke="red" d="M133.25,-71.7C133.25,-63.39 133.25,-53.28 133.25,-44.14"/>
<ellipse fill="red" stroke="red" cx="133.25" cy="-40.1" rx="4" ry="4"/>
</a>
</g>
</g>
<!-- PiR4&#45;&gt;Dup3_1 -->
<g id="edge46" class="edge">
<title>PiR4&#45;&gt;Dup3_1</title>
<g id="a_edge46"><a xlink:title="e77">
<path fill="none" stroke="red" d="M75.82,-74.83C86.32,-64.63 100.63,-50.71 112.35,-39.32"/>
<ellipse fill="none" stroke="red" cx="115.34" cy="-36.41" rx="4" ry="4"/>
</a>
</g>
</g>
<!-- Dup3_0&#45;&gt;PiR3 -->
<g id="edge43" class="edge">
<title>Dup3_0&#45;&gt;PiR3</title>
<g id="a_edge43"><a xlink:title="e74">
<path fill="none" stroke="blue" d="M106.52,-137.77C112.26,-127.73 118.83,-116.23 124.02,-107.15"/>
<ellipse fill="blue" stroke="blue" cx="104.51" cy="-141.29" rx="4" ry="4"/>
</a>
</g>
</g>
<!-- Dup3_0&#45;&gt;PiR4 -->
<g id="edge44" class="edge">
<title>Dup3_0&#45;&gt;PiR4</title>
<g id="a_edge44"><a xlink:title="e75">
<path fill="none" stroke="blue" d="M82.25,-136.95C77.81,-127.23 72.79,-116.26 68.78,-107.47"/>
<ellipse fill="none" stroke="blue" cx="84" cy="-140.77" rx="4" ry="4"/>
</a>
</g>
</g>
<!-- Dup3_1&#45;&gt;Dup2_3 -->
<g id="edge41" class="edge">
<title>Dup3_1&#45;&gt;Dup2_3</title>
<g id="a_edge41"><a xlink:title="e72">
<path fill="none" stroke="red" d="M147,-33.93C155.21,-43.9 164.87,-57.75 169.25,-72 173.95,-87.29 170.37,-92.04 169.25,-108 160.78,-228.45 131.25,-256.26 131.25,-377 131.25,-451 131.25,-451 131.25,-451 131.25,-499.44 153.73,-552.45 168.54,-582.12"/>
<ellipse fill="red" stroke="red" cx="170.49" cy="-585.94" rx="4" ry="4"/>
</a>
</g>
</g>
</g>
</svg>
