<?xml version="1.0" encoding="UTF-8" standalone="no"?>
<!DOCTYPE svg PUBLIC "-//W3C//DTD SVG 1.1//EN"
 "http://www.w3.org/Graphics/SVG/1.1/DTD/svg11.dtd">
<!-- Generated by graphviz version 2.43.0 (0)
 -->
<!-- Title: %3 Pages: 1 -->
<svg width="233pt" height="1581pt"
 viewBox="0.00 0.00 233.00 1581.30" xmlns="http://www.w3.org/2000/svg" xmlns:xlink="http://www.w3.org/1999/xlink">
<g id="graph0" class="graph" transform="scale(1 1) rotate(0) translate(4 1577.3)">
<title>%3</title>
<polygon fill="white" stroke="transparent" points="-4,4 -4,-1577.3 229,-1577.3 229,4 -4,4"/>
<!-- Root0 -->
<g id="node1" class="node">
<title>Root0</title>
<ellipse fill="none" stroke="black" cx="73" cy="-1555.3" rx="30.59" ry="18"/>
<text text-anchor="middle" x="73" y="-1551.6" font-family="Times-Roman" font-size="14.00">Root</text>
</g>
<!-- I4 -->
<g id="node18" class="node">
<title>I4</title>
<ellipse fill="none" stroke="black" cx="73" cy="-1483.3" rx="27" ry="18"/>
<text text-anchor="middle" x="73" y="-1479.6" font-family="Times-Roman" font-size="14.00">I</text>
</g>
<!-- Root0&#45;&gt;I4 -->
<g id="edge17" class="edge">
<title>Root0&#45;&gt;I4</title>
<g id="a_edge17"><a xlink:title="rettop">
<path fill="none" stroke="red" d="M73,-1536.99C73,-1529.28 73,-1520.01 73,-1511.41"/>
<polygon fill="red" stroke="red" points="76.5,-1511.4 73,-1501.4 69.5,-1511.4 76.5,-1511.4"/>
</a>
</g>
</g>
<!-- PiL0 -->
<g id="node2" class="node">
<title>PiL0</title>
<ellipse fill="none" stroke="black" cx="73" cy="-1411.3" rx="27" ry="18"/>
<text text-anchor="middle" x="73" y="-1407.6" font-family="Times-Roman" font-size="14.00">PiL</text>
</g>
<!-- Cut0 -->
<g id="node21" class="node">
<title>Cut0</title>
<ellipse fill="none" stroke="black" cx="38" cy="-1267.3" rx="27" ry="18"/>
<text text-anchor="middle" x="38" y="-1263.6" font-family="Times-Roman" font-size="14.00">Cut</text>
</g>
<!-- PiL0&#45;&gt;Cut0 -->
<g id="edge20" class="edge">
<title>PiL0&#45;&gt;Cut0</title>
<g id="a_edge20"><a xlink:title="xl1">
<path fill="none" stroke="blue" d="M66.42,-1383.6C59.29,-1354.69 48.14,-1309.45 42.15,-1285.12"/>
<polygon fill="blue" stroke="blue" points="63.06,-1384.58 68.85,-1393.45 69.85,-1382.9 63.06,-1384.58"/>
</a>
</g>
</g>
<!-- !p4 -->
<g id="node27" class="node">
<title>!p4</title>
<ellipse fill="none" stroke="black" cx="105" cy="-1339.3" rx="27" ry="18"/>
<text text-anchor="middle" x="105" y="-1335.6" font-family="Times-Roman" font-size="14.00">!p</text>
</g>
<!-- PiL0&#45;&gt;!p4 -->
<g id="edge23" class="edge">
<title>PiL0&#45;&gt;!p4</title>
<g id="a_edge23"><a xlink:title="xlp">
<path fill="none" stroke="red" d="M80.58,-1393.71C84.37,-1385.42 89.03,-1375.22 93.27,-1365.96"/>
<polygon fill="red" stroke="red" points="96.5,-1367.32 97.47,-1356.77 90.13,-1364.4 96.5,-1367.32"/>
</a>
</g>
</g>
<!-- I0 -->
<g id="node3" class="node">
<title>I0</title>
<ellipse fill="none" stroke="black" cx="110" cy="-1267.3" rx="27" ry="18"/>
<text text-anchor="middle" x="110" y="-1263.6" font-family="Times-Roman" font-size="14.00">I</text>
</g>
<!-- !d0 -->
<g id="node4" class="node">
<title>!d0</title>
<ellipse fill="none" stroke="black" cx="108" cy="-1195.3" rx="27" ry="18"/>
<text text-anchor="middle" x="108" y="-1191.6" font-family="Times-Roman" font-size="14.00">!d</text>
</g>
<!-- I0&#45;&gt;!d0 -->
<g id="edge21" class="edge">
<title>I0&#45;&gt;!d0</title>
<g id="a_edge21"><a xlink:title="xl2">
<path fill="none" stroke="blue" d="M109.22,-1238.96C108.97,-1230.35 108.71,-1221.09 108.49,-1213.4"/>
<polygon fill="blue" stroke="blue" points="105.72,-1239.1 109.51,-1248.99 112.72,-1238.9 105.72,-1239.1"/>
</a>
</g>
</g>
<!-- Cut2 -->
<g id="node26" class="node">
<title>Cut2</title>
<ellipse fill="none" stroke="black" cx="106" cy="-1110.65" rx="26.78" ry="26.78"/>
<ellipse fill="none" stroke="black" cx="106" cy="-1110.65" rx="30.8" ry="30.8"/>
<text text-anchor="middle" x="106" y="-1106.95" font-family="Times-Roman" font-size="14.00">Cut</text>
</g>
<!-- !d0&#45;&gt;Cut2 -->
<g id="edge18" class="edge">
<title>!d0&#45;&gt;Cut2</title>
<g id="a_edge18"><a xlink:title="xj">
<path fill="none" stroke="blue" stroke-width="2" d="M107.34,-1167.01C107.14,-1158.82 106.92,-1149.8 106.72,-1141.45"/>
<polygon fill="blue" stroke="blue" stroke-width="2" points="103.84,-1167.26 107.59,-1177.17 110.84,-1167.09 103.84,-1167.26"/>
</a>
</g>
</g>
<!-- PiL1 -->
<g id="node5" class="node">
<title>PiL1</title>
<ellipse fill="none" stroke="black" cx="99" cy="-738" rx="27" ry="18"/>
<text text-anchor="middle" x="99" y="-734.3" font-family="Times-Roman" font-size="14.00">PiL</text>
</g>
<!-- !d1 -->
<g id="node6" class="node">
<title>!d1</title>
<ellipse fill="none" stroke="black" cx="99" cy="-666" rx="27" ry="18"/>
<text text-anchor="middle" x="99" y="-662.3" font-family="Times-Roman" font-size="14.00">!d</text>
</g>
<!-- PiL1&#45;&gt;!d1 -->
<g id="edge29" class="edge">
<title>PiL1&#45;&gt;!d1</title>
<g id="a_edge29"><a xlink:title="yl1">
<path fill="none" stroke="blue" d="M99,-709.67C99,-701.05 99,-691.79 99,-684.1"/>
<polygon fill="blue" stroke="blue" points="95.5,-709.7 99,-719.7 102.5,-709.7 95.5,-709.7"/>
</a>
</g>
</g>
<!-- !p0 -->
<g id="node8" class="node">
<title>!p0</title>
<ellipse fill="none" stroke="black" cx="171" cy="-666" rx="27" ry="18"/>
<text text-anchor="middle" x="171" y="-662.3" font-family="Times-Roman" font-size="14.00">!p</text>
</g>
<!-- PiL1&#45;&gt;!p0 -->
<g id="edge32" class="edge">
<title>PiL1&#45;&gt;!p0</title>
<g id="a_edge32"><a xlink:title="ylp">
<path fill="none" stroke="red" d="M113.57,-722.83C123.75,-712.94 137.52,-699.55 149.03,-688.36"/>
<polygon fill="red" stroke="red" points="151.47,-690.87 156.2,-681.38 146.59,-685.85 151.47,-690.87"/>
</a>
</g>
</g>
<!-- !c0 -->
<g id="node7" class="node">
<title>!c0</title>
<ellipse fill="none" stroke="black" cx="99" cy="-594" rx="27" ry="18"/>
<text text-anchor="middle" x="99" y="-590.3" font-family="Times-Roman" font-size="14.00">!c</text>
</g>
<!-- !d1&#45;&gt;!c0 -->
<g id="edge25" class="edge">
<title>!d1&#45;&gt;!c0</title>
<g id="a_edge25"><a xlink:title="y1">
<path fill="none" stroke="blue" d="M99,-637.67C99,-629.05 99,-619.79 99,-612.1"/>
<polygon fill="blue" stroke="blue" points="95.5,-637.7 99,-647.7 102.5,-637.7 95.5,-637.7"/>
</a>
</g>
</g>
<!-- Cut1 -->
<g id="node24" class="node">
<title>Cut1</title>
<ellipse fill="none" stroke="black" cx="99" cy="-522" rx="27" ry="18"/>
<text text-anchor="middle" x="99" y="-518.3" font-family="Times-Roman" font-size="14.00">Cut</text>
</g>
<!-- !c0&#45;&gt;Cut1 -->
<g id="edge24" class="edge">
<title>!c0&#45;&gt;Cut1</title>
<g id="a_edge24"><a xlink:title="y">
<path fill="none" stroke="blue" d="M99,-565.67C99,-557.05 99,-547.79 99,-540.1"/>
<polygon fill="blue" stroke="blue" points="95.5,-565.7 99,-575.7 102.5,-565.7 95.5,-565.7"/>
</a>
</g>
</g>
<!-- !p0&#45;&gt;!c0 -->
<g id="edge26" class="edge">
<title>!p0&#45;&gt;!c0</title>
<g id="a_edge26"><a xlink:title="y2">
<path fill="none" stroke="blue" d="M148.96,-643.57C137.55,-632.48 123.93,-619.24 113.8,-609.38"/>
<polygon fill="blue" stroke="blue" points="146.82,-646.37 156.43,-650.83 151.7,-641.35 146.82,-646.37"/>
</a>
</g>
</g>
<!-- I1 -->
<g id="node9" class="node">
<title>I1</title>
<ellipse fill="none" stroke="black" cx="171" cy="-594" rx="27" ry="18"/>
<text text-anchor="middle" x="171" y="-590.3" font-family="Times-Roman" font-size="14.00">I</text>
</g>
<!-- !p0&#45;&gt;I1 -->
<g id="edge31" class="edge">
<title>!p0&#45;&gt;I1</title>
<g id="a_edge31"><a xlink:title="yli">
<path fill="none" stroke="red" d="M171,-647.7C171,-639.98 171,-630.71 171,-622.11"/>
<polygon fill="red" stroke="red" points="174.5,-622.1 171,-612.1 167.5,-622.1 174.5,-622.1"/>
</a>
</g>
</g>
<!-- !d2 -->
<g id="node10" class="node">
<title>!d2</title>
<ellipse fill="none" stroke="black" cx="198" cy="-522" rx="27" ry="18"/>
<text text-anchor="middle" x="198" y="-518.3" font-family="Times-Roman" font-size="14.00">!d</text>
</g>
<!-- I1&#45;&gt;!d2 -->
<g id="edge30" class="edge">
<title>I1&#45;&gt;!d2</title>
<g id="a_edge30"><a xlink:title="yl2">
<path fill="none" stroke="blue" d="M181.01,-567.06C184.5,-558.01 188.32,-548.09 191.46,-539.96"/>
<polygon fill="blue" stroke="blue" points="177.73,-565.82 177.4,-576.41 184.26,-568.34 177.73,-565.82"/>
</a>
</g>
</g>
<!-- !d2&#45;&gt;!p0 -->
<g id="edge27" class="edge">
<title>!d2&#45;&gt;!p0</title>
<g id="a_edge27"><a xlink:title="yj">
<path fill="none" stroke="blue" d="M206.07,-549.59C210.23,-567.57 213.26,-591.65 207,-612 202.62,-626.25 192.96,-640.1 184.75,-650.07"/>
<polygon fill="blue" stroke="blue" points="209.43,-548.6 203.55,-539.79 202.65,-550.35 209.43,-548.6"/>
</a>
</g>
</g>
<!-- !p1 -->
<g id="node11" class="node">
<title>!p1</title>
<ellipse fill="none" stroke="black" cx="71" cy="-450" rx="27" ry="18"/>
<text text-anchor="middle" x="71" y="-446.3" font-family="Times-Roman" font-size="14.00">!p</text>
</g>
<!-- I2 -->
<g id="node12" class="node">
<title>I2</title>
<ellipse fill="none" stroke="black" cx="44" cy="-378" rx="27" ry="18"/>
<text text-anchor="middle" x="44" y="-374.3" font-family="Times-Roman" font-size="14.00">I</text>
</g>
<!-- !p1&#45;&gt;I2 -->
<g id="edge10" class="edge">
<title>!p1&#45;&gt;I2</title>
<g id="a_edge10"><a xlink:title="hli">
<path fill="none" stroke="red" d="M64.6,-432.41C61.49,-424.34 57.67,-414.43 54.17,-405.35"/>
<polygon fill="red" stroke="red" points="57.4,-404.03 50.54,-395.96 50.87,-406.55 57.4,-404.03"/>
</a>
</g>
</g>
<!-- PiR0 -->
<g id="node22" class="node">
<title>PiR0</title>
<ellipse fill="none" stroke="black" cx="71" cy="-882" rx="27" ry="18"/>
<text text-anchor="middle" x="71" y="-878.3" font-family="Times-Roman" font-size="14.00">PiR</text>
</g>
<!-- !p1&#45;&gt;PiR0 -->
<g id="edge4" class="edge">
<title>!p1&#45;&gt;PiR0</title>
<g id="a_edge4"><a xlink:title="h">
<path fill="none" stroke="blue" d="M62.79,-477.79C54.85,-506.13 44,-552.28 44,-593 44,-739 44,-739 44,-739 44,-784.92 57.8,-837.75 65.67,-864.15"/>
<polygon fill="blue" stroke="blue" points="66.25,-478.43 65.67,-467.85 59.53,-476.49 66.25,-478.43"/>
</a>
</g>
</g>
<!-- PiL2 -->
<g id="node13" class="node">
<title>PiL2</title>
<ellipse fill="none" stroke="black" cx="44" cy="-306" rx="27" ry="18"/>
<text text-anchor="middle" x="44" y="-302.3" font-family="Times-Roman" font-size="14.00">PiL</text>
</g>
<!-- I2&#45;&gt;PiL2 -->
<g id="edge6" class="edge">
<title>I2&#45;&gt;PiL2</title>
<g id="a_edge6"><a xlink:title="hl2">
<path fill="none" stroke="blue" d="M44,-349.67C44,-341.05 44,-331.79 44,-324.1"/>
<polygon fill="blue" stroke="blue" points="40.5,-349.7 44,-359.7 47.5,-349.7 40.5,-349.7"/>
</a>
</g>
</g>
<!-- !d3 -->
<g id="node14" class="node">
<title>!d3</title>
<ellipse fill="none" stroke="black" cx="99" cy="-234" rx="27" ry="18"/>
<text text-anchor="middle" x="99" y="-230.3" font-family="Times-Roman" font-size="14.00">!d</text>
</g>
<!-- PiL2&#45;&gt;!d3 -->
<g id="edge7" class="edge">
<title>PiL2&#45;&gt;!d3</title>
<g id="a_edge7"><a xlink:title="hl21">
<path fill="none" stroke="blue" d="M62.17,-281.87C70.37,-271.44 79.81,-259.42 87.09,-250.16"/>
<polygon fill="blue" stroke="blue" points="59.36,-279.79 55.93,-289.81 64.86,-284.11 59.36,-279.79"/>
</a>
</g>
</g>
<!-- !p2 -->
<g id="node15" class="node">
<title>!p2</title>
<ellipse fill="none" stroke="black" cx="27" cy="-234" rx="27" ry="18"/>
<text text-anchor="middle" x="27" y="-230.3" font-family="Times-Roman" font-size="14.00">!p</text>
</g>
<!-- PiL2&#45;&gt;!p2 -->
<g id="edge9" class="edge">
<title>PiL2&#45;&gt;!p2</title>
<g id="a_edge9"><a xlink:title="hl2p">
<path fill="none" stroke="red" d="M39.88,-288.05C37.99,-280.26 35.7,-270.82 33.58,-262.08"/>
<polygon fill="red" stroke="red" points="36.96,-261.17 31.2,-252.28 30.15,-262.82 36.96,-261.17"/>
</a>
</g>
</g>
<!-- !d3&#45;&gt;!p1 -->
<g id="edge5" class="edge">
<title>!d3&#45;&gt;!p1</title>
<g id="a_edge5"><a xlink:title="hj">
<path fill="none" stroke="blue" d="M96.19,-262.4C92.81,-294.48 86.73,-349.2 80,-396 78.27,-408.01 75.98,-421.49 74.14,-431.85"/>
<polygon fill="blue" stroke="blue" points="99.68,-262.74 97.24,-252.43 92.72,-262.01 99.68,-262.74"/>
</a>
</g>
</g>
<!-- PiR1 -->
<g id="node23" class="node">
<title>PiR1</title>
<ellipse fill="none" stroke="black" cx="27" cy="-162" rx="27" ry="18"/>
<text text-anchor="middle" x="27" y="-158.3" font-family="Times-Roman" font-size="14.00">PiR</text>
</g>
<!-- !p2&#45;&gt;PiR1 -->
<g id="edge8" class="edge">
<title>!p2&#45;&gt;PiR1</title>
<g id="a_edge8"><a xlink:title="hl2i">
<path fill="none" stroke="red" d="M27,-215.7C27,-207.98 27,-198.71 27,-190.11"/>
<polygon fill="red" stroke="red" points="30.5,-190.1 27,-180.1 23.5,-190.1 30.5,-190.1"/>
</a>
</g>
</g>
<!-- I3 -->
<g id="node16" class="node">
<title>I3</title>
<ellipse fill="none" stroke="black" cx="55" cy="-90" rx="27" ry="18"/>
<text text-anchor="middle" x="55" y="-86.3" font-family="Times-Roman" font-size="14.00">I</text>
</g>
<!-- !d4 -->
<g id="node17" class="node">
<title>!d4</title>
<ellipse fill="none" stroke="black" cx="27" cy="-18" rx="27" ry="18"/>
<text text-anchor="middle" x="27" y="-14.3" font-family="Times-Roman" font-size="14.00">!d</text>
</g>
<!-- I3&#45;&gt;!d4 -->
<g id="edge14" class="edge">
<title>I3&#45;&gt;!d4</title>
<g id="a_edge14"><a xlink:title="il">
<path fill="none" stroke="blue" d="M44.56,-62.91C40.89,-53.72 36.86,-43.65 33.59,-35.47"/>
<polygon fill="blue" stroke="blue" points="41.4,-64.43 48.36,-72.41 47.9,-61.83 41.4,-64.43"/>
</a>
</g>
</g>
<!-- !d4&#45;&gt;PiR1 -->
<g id="edge13" class="edge">
<title>!d4&#45;&gt;PiR1</title>
<g id="a_edge13"><a xlink:title="i">
<path fill="none" stroke="blue" d="M22.12,-46.04C20.84,-54.34 19.64,-63.52 19,-72 17.8,-87.96 17.8,-92.04 19,-108 19.91,-120.06 21.95,-133.54 23.75,-143.89"/>
<polygon fill="blue" stroke="blue" points="25.58,-46.55 23.75,-36.11 18.68,-45.41 25.58,-46.55"/>
</a>
</g>
</g>
<!-- I4&#45;&gt;PiL0 -->
<g id="edge19" class="edge">
<title>I4&#45;&gt;PiL0</title>
<g id="a_edge19"><a xlink:title="xl">
<path fill="none" stroke="blue" d="M73,-1454.96C73,-1446.35 73,-1437.09 73,-1429.4"/>
<polygon fill="blue" stroke="blue" points="69.5,-1454.99 73,-1464.99 76.5,-1454.99 69.5,-1454.99"/>
</a>
</g>
</g>
<!-- Dup0_0 -->
<g id="node19" class="node">
<title>Dup0_0</title>
<ellipse fill="none" stroke="black" cx="71" cy="-954" rx="29.5" ry="18"/>
<text text-anchor="middle" x="71" y="-950.3" font-family="Times-Roman" font-size="14.00">Dup</text>
</g>
<!-- Dup0_0&#45;&gt;PiR0 -->
<g id="edge16" class="edge">
<title>Dup0_0&#45;&gt;PiR0</title>
<g id="a_edge16"><a xlink:title="reti">
<path fill="none" stroke="red" d="M71,-935.7C71,-927.98 71,-918.71 71,-910.11"/>
<polygon fill="red" stroke="red" points="74.5,-910.1 71,-900.1 67.5,-910.1 74.5,-910.1"/>
</a>
</g>
</g>
<!-- !p3 -->
<g id="node20" class="node">
<title>!p3</title>
<ellipse fill="none" stroke="black" cx="102" cy="-1026" rx="27" ry="18"/>
<text text-anchor="middle" x="102" y="-1022.3" font-family="Times-Roman" font-size="14.00">!p</text>
</g>
<!-- !p3&#45;&gt;Dup0_0 -->
<g id="edge3" class="edge">
<title>!p3&#45;&gt;Dup0_0</title>
<g id="a_edge3"><a xlink:title="e3">
<path fill="none" stroke="red" d="M94.65,-1008.41C90.75,-999.61 85.89,-988.63 81.59,-978.92"/>
<ellipse fill="none" stroke="red" cx="79.91" cy="-975.13" rx="4" ry="4"/>
</a>
</g>
</g>
<!-- Cut0&#45;&gt;Dup0_0 -->
<g id="edge2" class="edge">
<title>Cut0&#45;&gt;Dup0_0</title>
<g id="a_edge2"><a xlink:title="e2">
<path fill="none" stroke="red" d="M39.82,-1249.12C45.33,-1197.13 61.84,-1041.36 68.34,-980.12"/>
<ellipse fill="red" stroke="red" cx="68.76" cy="-976.1" rx="4" ry="4"/>
</a>
</g>
</g>
<!-- I5 -->
<g id="node25" class="node">
<title>I5</title>
<ellipse fill="none" stroke="black" cx="99" cy="-810" rx="27" ry="18"/>
<text text-anchor="middle" x="99" y="-806.3" font-family="Times-Roman" font-size="14.00">I</text>
</g>
<!-- PiR0&#45;&gt;I5 -->
<g id="edge12" class="edge">
<title>PiR0&#45;&gt;I5</title>
<g id="a_edge12"><a xlink:title="hr">
<path fill="none" stroke="red" d="M77.64,-864.41C80.91,-856.22 84.94,-846.14 88.62,-836.95"/>
<polygon fill="red" stroke="red" points="91.95,-838.05 92.41,-827.47 85.45,-835.45 91.95,-838.05"/>
</a>
</g>
</g>
<!-- PiR1&#45;&gt;I3 -->
<g id="edge15" class="edge">
<title>PiR1&#45;&gt;I3</title>
<g id="a_edge15"><a xlink:title="ir">
<path fill="none" stroke="red" d="M33.64,-144.41C36.91,-136.22 40.94,-126.14 44.62,-116.95"/>
<polygon fill="red" stroke="red" points="47.95,-118.05 48.41,-107.47 41.45,-115.45 47.95,-118.05"/>
</a>
</g>
</g>
<!-- Cut1&#45;&gt;!p1 -->
<g id="edge11" class="edge">
<title>Cut1&#45;&gt;!p1</title>
<g id="a_edge11"><a xlink:title="hlp">
<path fill="none" stroke="red" d="M92.36,-504.41C89.09,-496.22 85.06,-486.14 81.38,-476.95"/>
<polygon fill="red" stroke="red" points="84.55,-475.45 77.59,-467.47 78.05,-478.05 84.55,-475.45"/>
</a>
</g>
</g>
<!-- I5&#45;&gt;PiL1 -->
<g id="edge28" class="edge">
<title>I5&#45;&gt;PiL1</title>
<g id="a_edge28"><a xlink:title="yl">
<path fill="none" stroke="blue" d="M99,-781.67C99,-773.05 99,-763.79 99,-756.1"/>
<polygon fill="blue" stroke="blue" points="95.5,-781.7 99,-791.7 102.5,-781.7 95.5,-781.7"/>
</a>
</g>
</g>
<!-- Cut2&#45;&gt;!p3 -->
<g id="edge1" class="edge">
<title>Cut2&#45;&gt;!p3</title>
<g id="a_edge1"><a xlink:title="e1">
<path fill="none" stroke="red" d="M104.56,-1079.81C104.15,-1071.45 103.71,-1062.41 103.32,-1054.21"/>
<polygon fill="red" stroke="red" points="106.8,-1053.87 102.83,-1044.05 99.81,-1054.21 106.8,-1053.87"/>
</a>
</g>
</g>
<!-- !p4&#45;&gt;I0 -->
<g id="edge22" class="edge">
<title>!p4&#45;&gt;I0</title>
<g id="a_edge22"><a xlink:title="xli">
<path fill="none" stroke="red" d="M106.24,-1320.99C106.79,-1313.28 107.45,-1304.01 108.06,-1295.41"/>
<polygon fill="red" stroke="red" points="111.56,-1295.62 108.78,-1285.4 104.57,-1295.12 111.56,-1295.62"/>
</a>
</g>
</g>
</g>
</svg>
