<?xml version="1.0" encoding="UTF-8" standalone="no"?>
<!DOCTYPE svg PUBLIC "-//W3C//DTD SVG 1.1//EN"
 "http://www.w3.org/Graphics/SVG/1.1/DTD/svg11.dtd">
<!-- Generated by graphviz version 2.43.0 (0)
 -->
<!-- Title: %3 Pages: 1 -->
<svg width="485pt" height="1509pt"
 viewBox="0.00 0.00 485.00 1509.30" xmlns="http://www.w3.org/2000/svg" xmlns:xlink="http://www.w3.org/1999/xlink">
<g id="graph0" class="graph" transform="scale(1 1) rotate(0) translate(4 1505.3)">
<title>%3</title>
<polygon fill="white" stroke="transparent" points="-4,4 -4,-1505.3 481,-1505.3 481,4 -4,4"/>
<!-- Root0 -->
<g id="node1" class="node">
<title>Root0</title>
<ellipse fill="none" stroke="black" cx="412" cy="-1483.3" rx="30.59" ry="18"/>
<text text-anchor="middle" x="412" y="-1479.6" font-family="Times-Roman" font-size="14.00">Root</text>
</g>
<!-- I2 -->
<g id="node5" class="node">
<title>I2</title>
<ellipse fill="none" stroke="black" cx="412" cy="-1411.3" rx="27" ry="18"/>
<text text-anchor="middle" x="412" y="-1407.6" font-family="Times-Roman" font-size="14.00">I</text>
</g>
<!-- Root0&#45;&gt;I2 -->
<g id="edge40" class="edge">
<title>Root0&#45;&gt;I2</title>
<g id="a_edge40"><a xlink:title="rettop">
<path fill="none" stroke="red" stroke-width="2" d="M412,-1464.99C412,-1457.28 412,-1448.01 412,-1439.41"/>
<polygon fill="red" stroke="red" stroke-width="2" points="415.5,-1439.4 412,-1429.4 408.5,-1439.4 415.5,-1439.4"/>
</a>
</g>
</g>
<!-- I0 -->
<g id="node2" class="node">
<title>I0</title>
<ellipse fill="none" stroke="black" cx="355" cy="-1123.3" rx="27" ry="18"/>
<text text-anchor="middle" x="355" y="-1119.6" font-family="Times-Roman" font-size="14.00">I</text>
</g>
<!-- Cut3 -->
<g id="node35" class="node">
<title>Cut3</title>
<ellipse fill="none" stroke="black" cx="304" cy="-1038.65" rx="26.78" ry="26.78"/>
<ellipse fill="none" stroke="black" cx="304" cy="-1038.65" rx="30.8" ry="30.8"/>
<text text-anchor="middle" x="304" y="-1034.95" font-family="Times-Roman" font-size="14.00">Cut</text>
</g>
<!-- I0&#45;&gt;Cut3 -->
<g id="edge41" class="edge">
<title>I0&#45;&gt;Cut3</title>
<g id="a_edge41"><a xlink:title="yl2">
<path fill="none" stroke="blue" stroke-width="2" d="M339.73,-1097.55C333.44,-1087.36 326.16,-1075.57 319.82,-1065.29"/>
<polygon fill="blue" stroke="blue" stroke-width="2" points="336.94,-1099.69 345.17,-1106.36 342.89,-1096.01 336.94,-1099.69"/>
</a>
</g>
</g>
<!-- PiL0 -->
<g id="node3" class="node">
<title>PiL0</title>
<ellipse fill="none" stroke="black" cx="181" cy="-882" rx="27" ry="18"/>
<text text-anchor="middle" x="181" y="-878.3" font-family="Times-Roman" font-size="14.00">PiL</text>
</g>
<!-- !p1 -->
<g id="node14" class="node">
<title>!p1</title>
<ellipse fill="none" stroke="black" cx="108" cy="-810" rx="27" ry="18"/>
<text text-anchor="middle" x="108" y="-806.3" font-family="Times-Roman" font-size="14.00">!p</text>
</g>
<!-- PiL0&#45;&gt;!p1 -->
<g id="edge5" class="edge">
<title>PiL0&#45;&gt;!p1</title>
<g id="a_edge5"><a xlink:title="e21">
<path fill="none" stroke="red" d="M166.23,-866.83C155.84,-856.87 141.76,-843.37 130.04,-832.14"/>
<polygon fill="red" stroke="red" points="132.39,-829.54 122.75,-825.14 127.55,-834.59 132.39,-829.54"/>
</a>
</g>
</g>
<!-- !d4 -->
<g id="node36" class="node">
<title>!d4</title>
<ellipse fill="none" stroke="black" cx="181" cy="-810" rx="27" ry="18"/>
<text text-anchor="middle" x="181" y="-806.3" font-family="Times-Roman" font-size="14.00">!d</text>
</g>
<!-- PiL0&#45;&gt;!d4 -->
<g id="edge3" class="edge">
<title>PiL0&#45;&gt;!d4</title>
<g id="a_edge3"><a xlink:title="e17">
<path fill="none" stroke="blue" d="M181,-853.67C181,-845.05 181,-835.79 181,-828.1"/>
<polygon fill="blue" stroke="blue" points="177.5,-853.7 181,-863.7 184.5,-853.7 177.5,-853.7"/>
</a>
</g>
</g>
<!-- I1 -->
<g id="node4" class="node">
<title>I1</title>
<ellipse fill="none" stroke="black" cx="206" cy="-954" rx="27" ry="18"/>
<text text-anchor="middle" x="206" y="-950.3" font-family="Times-Roman" font-size="14.00">I</text>
</g>
<!-- I1&#45;&gt;PiL0 -->
<g id="edge4" class="edge">
<title>I1&#45;&gt;PiL0</title>
<g id="a_edge4"><a xlink:title="e19">
<path fill="none" stroke="blue" d="M196.63,-926.77C193.43,-917.79 189.93,-908 187.06,-899.96"/>
<polygon fill="blue" stroke="blue" points="193.42,-928.17 200.08,-936.41 200.01,-925.82 193.42,-928.17"/>
</a>
</g>
</g>
<!-- PiL3 -->
<g id="node27" class="node">
<title>PiL3</title>
<ellipse fill="none" stroke="black" cx="412" cy="-1339.3" rx="27" ry="18"/>
<text text-anchor="middle" x="412" y="-1335.6" font-family="Times-Roman" font-size="14.00">PiL</text>
</g>
<!-- I2&#45;&gt;PiL3 -->
<g id="edge8" class="edge">
<title>I2&#45;&gt;PiL3</title>
<g id="a_edge8"><a xlink:title="e32">
<path fill="none" stroke="blue" stroke-width="2" d="M412,-1382.96C412,-1374.35 412,-1365.09 412,-1357.4"/>
<polygon fill="blue" stroke="blue" stroke-width="2" points="408.5,-1382.99 412,-1392.99 415.5,-1382.99 408.5,-1382.99"/>
</a>
</g>
</g>
<!-- !p0 -->
<g id="node6" class="node">
<title>!p0</title>
<ellipse fill="none" stroke="black" cx="226" cy="-594" rx="27" ry="18"/>
<text text-anchor="middle" x="226" y="-590.3" font-family="Times-Roman" font-size="14.00">!p</text>
</g>
<!-- PiR0 -->
<g id="node8" class="node">
<title>PiR0</title>
<ellipse fill="none" stroke="black" cx="230" cy="-522" rx="27" ry="18"/>
<text text-anchor="middle" x="230" y="-518.3" font-family="Times-Roman" font-size="14.00">PiR</text>
</g>
<!-- !p0&#45;&gt;PiR0 -->
<g id="edge11" class="edge">
<title>!p0&#45;&gt;PiR0</title>
<g id="a_edge11"><a xlink:title="e39">
<path fill="none" stroke="red" d="M226.99,-575.7C227.43,-567.98 227.96,-558.71 228.45,-550.11"/>
<polygon fill="red" stroke="red" points="231.95,-550.29 229.02,-540.1 224.96,-549.89 231.95,-550.29"/>
</a>
</g>
</g>
<!-- Cut0 -->
<g id="node7" class="node">
<title>Cut0</title>
<ellipse fill="none" stroke="black" cx="224" cy="-666" rx="27" ry="18"/>
<text text-anchor="middle" x="224" y="-662.3" font-family="Times-Roman" font-size="14.00">Cut</text>
</g>
<!-- Cut0&#45;&gt;!p0 -->
<g id="edge10" class="edge">
<title>Cut0&#45;&gt;!p0</title>
<g id="a_edge10"><a xlink:title="e37">
<path fill="none" stroke="red" d="M224.49,-647.7C224.71,-639.98 224.98,-630.71 225.23,-622.11"/>
<polygon fill="red" stroke="red" points="228.72,-622.2 225.51,-612.1 221.73,-622 228.72,-622.2"/>
</a>
</g>
</g>
<!-- I3 -->
<g id="node13" class="node">
<title>I3</title>
<ellipse fill="none" stroke="black" cx="285" cy="-450" rx="27" ry="18"/>
<text text-anchor="middle" x="285" y="-446.3" font-family="Times-Roman" font-size="14.00">I</text>
</g>
<!-- PiR0&#45;&gt;I3 -->
<g id="edge13" class="edge">
<title>PiR0&#45;&gt;I3</title>
<g id="a_edge13"><a xlink:title="e43">
<path fill="none" stroke="red" d="M241.93,-505.81C249.21,-496.55 258.66,-484.52 266.85,-474.09"/>
<polygon fill="red" stroke="red" points="269.66,-476.18 273.09,-466.16 264.16,-471.86 269.66,-476.18"/>
</a>
</g>
</g>
<!-- !c0 -->
<g id="node9" class="node">
<title>!c0</title>
<ellipse fill="none" stroke="black" cx="230" cy="-162" rx="27" ry="18"/>
<text text-anchor="middle" x="230" y="-158.3" font-family="Times-Roman" font-size="14.00">!c</text>
</g>
<!-- !c0&#45;&gt;PiR0 -->
<g id="edge12" class="edge">
<title>!c0&#45;&gt;PiR0</title>
<g id="a_edge12"><a xlink:title="e41">
<path fill="none" stroke="blue" d="M230,-190.08C230,-218.65 230,-265 230,-305 230,-379 230,-379 230,-379 230,-424.11 230,-477.29 230,-503.95"/>
<polygon fill="blue" stroke="blue" points="233.5,-190.05 230,-180.05 226.5,-190.05 233.5,-190.05"/>
</a>
</g>
</g>
<!-- !d0 -->
<g id="node10" class="node">
<title>!d0</title>
<ellipse fill="none" stroke="black" cx="285" cy="-234" rx="27" ry="18"/>
<text text-anchor="middle" x="285" y="-230.3" font-family="Times-Roman" font-size="14.00">!d</text>
</g>
<!-- !d0&#45;&gt;!c0 -->
<g id="edge15" class="edge">
<title>!d0&#45;&gt;!c0</title>
<g id="a_edge15"><a xlink:title="e46">
<path fill="none" stroke="blue" d="M266.83,-209.87C258.63,-199.44 249.19,-187.42 241.91,-178.16"/>
<polygon fill="blue" stroke="blue" points="264.14,-212.11 273.07,-217.81 269.64,-207.79 264.14,-212.11"/>
</a>
</g>
</g>
<!-- PiL1 -->
<g id="node11" class="node">
<title>PiL1</title>
<ellipse fill="none" stroke="black" cx="285" cy="-306" rx="27" ry="18"/>
<text text-anchor="middle" x="285" y="-302.3" font-family="Times-Roman" font-size="14.00">PiL</text>
</g>
<!-- PiL1&#45;&gt;!d0 -->
<g id="edge17" class="edge">
<title>PiL1&#45;&gt;!d0</title>
<g id="a_edge17"><a xlink:title="e49">
<path fill="none" stroke="blue" d="M285,-277.67C285,-269.05 285,-259.79 285,-252.1"/>
<polygon fill="blue" stroke="blue" points="281.5,-277.7 285,-287.7 288.5,-277.7 281.5,-277.7"/>
</a>
</g>
</g>
<!-- !p3 -->
<g id="node23" class="node">
<title>!p3</title>
<ellipse fill="none" stroke="black" cx="357" cy="-234" rx="27" ry="18"/>
<text text-anchor="middle" x="357" y="-230.3" font-family="Times-Roman" font-size="14.00">!p</text>
</g>
<!-- PiL1&#45;&gt;!p3 -->
<g id="edge19" class="edge">
<title>PiL1&#45;&gt;!p3</title>
<g id="a_edge19"><a xlink:title="e53">
<path fill="none" stroke="red" d="M299.57,-290.83C309.75,-280.94 323.52,-267.55 335.03,-256.36"/>
<polygon fill="red" stroke="red" points="337.47,-258.87 342.2,-249.38 332.59,-253.85 337.47,-258.87"/>
</a>
</g>
</g>
<!-- PiL2 -->
<g id="node12" class="node">
<title>PiL2</title>
<ellipse fill="none" stroke="black" cx="285" cy="-378" rx="27" ry="18"/>
<text text-anchor="middle" x="285" y="-374.3" font-family="Times-Roman" font-size="14.00">PiL</text>
</g>
<!-- PiL2&#45;&gt;PiL1 -->
<g id="edge18" class="edge">
<title>PiL2&#45;&gt;PiL1</title>
<g id="a_edge18"><a xlink:title="e51">
<path fill="none" stroke="blue" d="M285,-349.67C285,-341.05 285,-331.79 285,-324.1"/>
<polygon fill="blue" stroke="blue" points="281.5,-349.7 285,-359.7 288.5,-349.7 281.5,-349.7"/>
</a>
</g>
</g>
<!-- !p5 -->
<g id="node31" class="node">
<title>!p5</title>
<ellipse fill="none" stroke="black" cx="357" cy="-306" rx="27" ry="18"/>
<text text-anchor="middle" x="357" y="-302.3" font-family="Times-Roman" font-size="14.00">!p</text>
</g>
<!-- PiL2&#45;&gt;!p5 -->
<g id="edge21" class="edge">
<title>PiL2&#45;&gt;!p5</title>
<g id="a_edge21"><a xlink:title="e57">
<path fill="none" stroke="red" d="M299.57,-362.83C309.75,-352.94 323.52,-339.55 335.03,-328.36"/>
<polygon fill="red" stroke="red" points="337.47,-330.87 342.2,-321.38 332.59,-325.85 337.47,-330.87"/>
</a>
</g>
</g>
<!-- I3&#45;&gt;PiL2 -->
<g id="edge20" class="edge">
<title>I3&#45;&gt;PiL2</title>
<g id="a_edge20"><a xlink:title="e55">
<path fill="none" stroke="blue" d="M285,-421.67C285,-413.05 285,-403.79 285,-396.1"/>
<polygon fill="blue" stroke="blue" points="281.5,-421.7 285,-431.7 288.5,-421.7 281.5,-421.7"/>
</a>
</g>
</g>
<!-- PiR1 -->
<g id="node17" class="node">
<title>PiR1</title>
<ellipse fill="none" stroke="black" cx="82" cy="-738" rx="27" ry="18"/>
<text text-anchor="middle" x="82" y="-734.3" font-family="Times-Roman" font-size="14.00">PiR</text>
</g>
<!-- !p1&#45;&gt;PiR1 -->
<g id="edge22" class="edge">
<title>!p1&#45;&gt;PiR1</title>
<g id="a_edge22"><a xlink:title="e59">
<path fill="none" stroke="red" d="M101.84,-792.41C98.84,-784.34 95.16,-774.43 91.79,-765.35"/>
<polygon fill="red" stroke="red" points="95.06,-764.11 88.3,-755.96 88.5,-766.55 95.06,-764.11"/>
</a>
</g>
</g>
<!-- !p2 -->
<g id="node15" class="node">
<title>!p2</title>
<ellipse fill="none" stroke="black" cx="142" cy="-522" rx="27" ry="18"/>
<text text-anchor="middle" x="142" y="-518.3" font-family="Times-Roman" font-size="14.00">!p</text>
</g>
<!-- PiR2 -->
<g id="node18" class="node">
<title>PiR2</title>
<ellipse fill="none" stroke="black" cx="142" cy="-450" rx="27" ry="18"/>
<text text-anchor="middle" x="142" y="-446.3" font-family="Times-Roman" font-size="14.00">PiR</text>
</g>
<!-- !p2&#45;&gt;PiR2 -->
<g id="edge24" class="edge">
<title>!p2&#45;&gt;PiR2</title>
<g id="a_edge24"><a xlink:title="e65">
<path fill="none" stroke="red" d="M142,-503.7C142,-495.98 142,-486.71 142,-478.11"/>
<polygon fill="red" stroke="red" points="145.5,-478.1 142,-468.1 138.5,-478.1 145.5,-478.1"/>
</a>
</g>
</g>
<!-- Cut1 -->
<g id="node16" class="node">
<title>Cut1</title>
<ellipse fill="none" stroke="black" cx="142" cy="-594" rx="27" ry="18"/>
<text text-anchor="middle" x="142" y="-590.3" font-family="Times-Roman" font-size="14.00">Cut</text>
</g>
<!-- Cut1&#45;&gt;!p2 -->
<g id="edge23" class="edge">
<title>Cut1&#45;&gt;!p2</title>
<g id="a_edge23"><a xlink:title="e63">
<path fill="none" stroke="red" d="M142,-575.7C142,-567.98 142,-558.71 142,-550.11"/>
<polygon fill="red" stroke="red" points="145.5,-550.1 142,-540.1 138.5,-550.1 145.5,-550.1"/>
</a>
</g>
</g>
<!-- I4 -->
<g id="node20" class="node">
<title>I4</title>
<ellipse fill="none" stroke="black" cx="27" cy="-666" rx="27" ry="18"/>
<text text-anchor="middle" x="27" y="-662.3" font-family="Times-Roman" font-size="14.00">I</text>
</g>
<!-- PiR1&#45;&gt;I4 -->
<g id="edge26" class="edge">
<title>PiR1&#45;&gt;I4</title>
<g id="a_edge26"><a xlink:title="e69">
<path fill="none" stroke="red" d="M70.07,-721.81C62.79,-712.55 53.34,-700.52 45.15,-690.09"/>
<polygon fill="red" stroke="red" points="47.84,-687.86 38.91,-682.16 42.34,-692.18 47.84,-687.86"/>
</a>
</g>
</g>
<!-- I5 -->
<g id="node22" class="node">
<title>I5</title>
<ellipse fill="none" stroke="black" cx="137" cy="-378" rx="27" ry="18"/>
<text text-anchor="middle" x="137" y="-374.3" font-family="Times-Roman" font-size="14.00">I</text>
</g>
<!-- PiR2&#45;&gt;I5 -->
<g id="edge28" class="edge">
<title>PiR2&#45;&gt;I5</title>
<g id="a_edge28"><a xlink:title="e77">
<path fill="none" stroke="red" d="M140.76,-431.7C140.21,-423.98 139.55,-414.71 138.94,-406.11"/>
<polygon fill="red" stroke="red" points="142.43,-405.83 138.22,-396.1 135.44,-406.33 142.43,-405.83"/>
</a>
</g>
</g>
<!-- !d1 -->
<g id="node19" class="node">
<title>!d1</title>
<ellipse fill="none" stroke="black" cx="27" cy="-594" rx="27" ry="18"/>
<text text-anchor="middle" x="27" y="-590.3" font-family="Times-Roman" font-size="14.00">!d</text>
</g>
<!-- !d1&#45;&gt;PiR1 -->
<g id="edge25" class="edge">
<title>!d1&#45;&gt;PiR1</title>
<g id="a_edge25"><a xlink:title="e67">
<path fill="none" stroke="blue" d="M45.85,-618.53C52.12,-627.34 58.61,-637.72 63,-648 73.17,-671.83 78.11,-701.65 80.34,-720.01"/>
<polygon fill="blue" stroke="blue" points="48.52,-616.24 39.75,-610.3 42.89,-620.41 48.52,-616.24"/>
</a>
</g>
</g>
<!-- I4&#45;&gt;!d1 -->
<g id="edge29" class="edge">
<title>I4&#45;&gt;!d1</title>
<g id="a_edge29"><a xlink:title="e79">
<path fill="none" stroke="blue" d="M27,-637.67C27,-629.05 27,-619.79 27,-612.1"/>
<polygon fill="blue" stroke="blue" points="23.5,-637.7 27,-647.7 30.5,-637.7 23.5,-637.7"/>
</a>
</g>
</g>
<!-- !d2 -->
<g id="node21" class="node">
<title>!d2</title>
<ellipse fill="none" stroke="black" cx="156" cy="-306" rx="27" ry="18"/>
<text text-anchor="middle" x="156" y="-302.3" font-family="Times-Roman" font-size="14.00">!d</text>
</g>
<!-- !d2&#45;&gt;PiR2 -->
<g id="edge27" class="edge">
<title>!d2&#45;&gt;PiR2</title>
<g id="a_edge27"><a xlink:title="e75">
<path fill="none" stroke="blue" d="M167.16,-333.04C173.31,-350.92 178.67,-375.09 173,-396 169.26,-409.79 160.95,-423.66 153.87,-433.76"/>
<polygon fill="blue" stroke="blue" points="170.4,-331.72 163.62,-323.57 163.84,-334.17 170.4,-331.72"/>
</a>
</g>
</g>
<!-- I5&#45;&gt;!d2 -->
<g id="edge30" class="edge">
<title>I5&#45;&gt;!d2</title>
<g id="a_edge30"><a xlink:title="e83">
<path fill="none" stroke="blue" d="M144.29,-350.14C146.7,-341.28 149.3,-331.68 151.44,-323.79"/>
<polygon fill="blue" stroke="blue" points="140.84,-349.49 141.6,-360.05 147.6,-351.32 140.84,-349.49"/>
</a>
</g>
</g>
<!-- PiR3 -->
<g id="node24" class="node">
<title>PiR3</title>
<ellipse fill="none" stroke="black" cx="357" cy="-162" rx="27" ry="18"/>
<text text-anchor="middle" x="357" y="-158.3" font-family="Times-Roman" font-size="14.00">PiR</text>
</g>
<!-- !p3&#45;&gt;PiR3 -->
<g id="edge31" class="edge">
<title>!p3&#45;&gt;PiR3</title>
<g id="a_edge31"><a xlink:title="e85">
<path fill="none" stroke="red" d="M357,-215.7C357,-207.98 357,-198.71 357,-190.11"/>
<polygon fill="red" stroke="red" points="360.5,-190.1 357,-180.1 353.5,-190.1 360.5,-190.1"/>
</a>
</g>
</g>
<!-- I6 -->
<g id="node26" class="node">
<title>I6</title>
<ellipse fill="none" stroke="black" cx="384" cy="-90" rx="27" ry="18"/>
<text text-anchor="middle" x="384" y="-86.3" font-family="Times-Roman" font-size="14.00">I</text>
</g>
<!-- PiR3&#45;&gt;I6 -->
<g id="edge33" class="edge">
<title>PiR3&#45;&gt;I6</title>
<g id="a_edge33"><a xlink:title="e89">
<path fill="none" stroke="red" d="M363.4,-144.41C366.51,-136.34 370.33,-126.43 373.83,-117.35"/>
<polygon fill="red" stroke="red" points="377.13,-118.55 377.46,-107.96 370.6,-116.03 377.13,-118.55"/>
</a>
</g>
</g>
<!-- !d3 -->
<g id="node25" class="node">
<title>!d3</title>
<ellipse fill="none" stroke="black" cx="356" cy="-18" rx="27" ry="18"/>
<text text-anchor="middle" x="356" y="-14.3" font-family="Times-Roman" font-size="14.00">!d</text>
</g>
<!-- !d3&#45;&gt;PiR3 -->
<g id="edge32" class="edge">
<title>!d3&#45;&gt;PiR3</title>
<g id="a_edge32"><a xlink:title="e87">
<path fill="none" stroke="blue" d="M351.12,-46.04C349.84,-54.34 348.64,-63.52 348,-72 346.8,-87.96 346.66,-92.06 348,-108 349.02,-120.09 351.32,-133.57 353.35,-143.91"/>
<polygon fill="blue" stroke="blue" points="354.58,-46.55 352.75,-36.11 347.68,-45.41 354.58,-46.55"/>
</a>
</g>
</g>
<!-- I6&#45;&gt;!d3 -->
<g id="edge35" class="edge">
<title>I6&#45;&gt;!d3</title>
<g id="a_edge35"><a xlink:title="e91">
<path fill="none" stroke="blue" d="M373.56,-62.91C369.89,-53.72 365.86,-43.65 362.59,-35.47"/>
<polygon fill="blue" stroke="blue" points="370.4,-64.43 377.36,-72.41 376.9,-61.83 370.4,-64.43"/>
</a>
</g>
</g>
<!-- !p4 -->
<g id="node28" class="node">
<title>!p4</title>
<ellipse fill="none" stroke="black" cx="385" cy="-1267.3" rx="27" ry="18"/>
<text text-anchor="middle" x="385" y="-1263.6" font-family="Times-Roman" font-size="14.00">!p</text>
</g>
<!-- PiL3&#45;&gt;!p4 -->
<g id="edge9" class="edge">
<title>PiL3&#45;&gt;!p4</title>
<g id="a_edge9"><a xlink:title="e34">
<path fill="none" stroke="red" d="M405.6,-1321.71C402.49,-1313.63 398.67,-1303.73 395.17,-1294.65"/>
<polygon fill="red" stroke="red" points="398.4,-1293.32 391.54,-1285.25 391.87,-1295.84 398.4,-1293.32"/>
</a>
</g>
</g>
<!-- Cut2 -->
<g id="node34" class="node">
<title>Cut2</title>
<ellipse fill="none" stroke="black" cx="450" cy="-1195.3" rx="27" ry="18"/>
<text text-anchor="middle" x="450" y="-1191.6" font-family="Times-Roman" font-size="14.00">Cut</text>
</g>
<!-- PiL3&#45;&gt;Cut2 -->
<g id="edge34" class="edge">
<title>PiL3&#45;&gt;Cut2</title>
<g id="a_edge34"><a xlink:title="e90">
<path fill="none" stroke="blue" stroke-width="2" d="M419.14,-1311.6C426.88,-1282.69 438.99,-1237.45 445.5,-1213.12"/>
<polygon fill="blue" stroke="blue" stroke-width="2" points="415.71,-1310.88 416.51,-1321.45 422.47,-1312.69 415.71,-1310.88"/>
</a>
</g>
</g>
<!-- Dup2_1 -->
<g id="node30" class="node">
<title>Dup2_1</title>
<ellipse fill="none" stroke="black" cx="376" cy="-1195.3" rx="29.5" ry="18"/>
<text text-anchor="middle" x="376" y="-1191.6" font-family="Times-Roman" font-size="14.00">Dup</text>
</g>
<!-- !p4&#45;&gt;Dup2_1 -->
<g id="edge36" class="edge">
<title>!p4&#45;&gt;Dup2_1</title>
<g id="a_edge36"><a xlink:title="e92">
<path fill="none" stroke="red" d="M382.82,-1249.35C381.75,-1241.05 380.45,-1230.88 379.26,-1221.67"/>
<ellipse fill="red" stroke="red" cx="378.73" cy="-1217.54" rx="4" ry="4"/>
</a>
</g>
</g>
<!-- Dup2_0 -->
<g id="node29" class="node">
<title>Dup2_0</title>
<ellipse fill="none" stroke="black" cx="181" cy="-738" rx="29.5" ry="18"/>
<text text-anchor="middle" x="181" y="-734.3" font-family="Times-Roman" font-size="14.00">Dup</text>
</g>
<!-- Dup2_0&#45;&gt;Cut0 -->
<g id="edge6" class="edge">
<title>Dup2_0&#45;&gt;Cut0</title>
<g id="a_edge6"><a xlink:title="e23">
<path fill="none" stroke="blue" d="M195.27,-713.77C201.44,-703.73 208.5,-692.23 214.08,-683.15"/>
<ellipse fill="blue" stroke="blue" cx="193.07" cy="-717.36" rx="4" ry="4"/>
</a>
</g>
</g>
<!-- Dup3_0 -->
<g id="node32" class="node">
<title>Dup3_0</title>
<ellipse fill="none" stroke="black" cx="142" cy="-666" rx="29.5" ry="18"/>
<text text-anchor="middle" x="142" y="-662.3" font-family="Times-Roman" font-size="14.00">Dup</text>
</g>
<!-- Dup2_0&#45;&gt;Dup3_0 -->
<g id="edge7" class="edge">
<title>Dup2_0&#45;&gt;Dup3_0</title>
<g id="a_edge7"><a xlink:title="e25">
<path fill="none" stroke="blue" d="M168.06,-713.77C162.46,-703.73 156.06,-692.23 151,-683.15"/>
<ellipse fill="none" stroke="blue" cx="170.01" cy="-717.27" rx="4" ry="4"/>
</a>
</g>
</g>
<!-- Dup2_1&#45;&gt;I0 -->
<g id="edge42" class="edge">
<title>Dup2_1&#45;&gt;I0</title>
<g id="a_edge42"><a xlink:title="yli">
<path fill="none" stroke="red" stroke-width="2" d="M370.92,-1177.35C368.52,-1169.35 365.6,-1159.63 362.92,-1150.69"/>
<polygon fill="red" stroke="red" stroke-width="2" points="366.26,-1149.66 360.04,-1141.08 359.56,-1151.67 366.26,-1149.66"/>
</a>
</g>
</g>
<!-- Dup3_1 -->
<g id="node33" class="node">
<title>Dup3_1</title>
<ellipse fill="none" stroke="black" cx="431" cy="-234" rx="29.5" ry="18"/>
<text text-anchor="middle" x="431" y="-230.3" font-family="Times-Roman" font-size="14.00">Dup</text>
</g>
<!-- !p5&#45;&gt;Dup3_1 -->
<g id="edge39" class="edge">
<title>!p5&#45;&gt;Dup3_1</title>
<g id="a_edge39"><a xlink:title="e95">
<path fill="none" stroke="red" d="M371.98,-290.83C382.84,-280.56 397.68,-266.52 409.76,-255.09"/>
<ellipse fill="none" stroke="red" cx="412.89" cy="-252.13" rx="4" ry="4"/>
</a>
</g>
</g>
<!-- Dup3_0&#45;&gt;!c0 -->
<g id="edge16" class="edge">
<title>Dup3_0&#45;&gt;!c0</title>
<g id="a_edge16"><a xlink:title="e47">
<path fill="none" stroke="blue" d="M124.61,-642.98C118.04,-633.81 110.95,-622.8 106,-612 88.92,-574.76 82,-563.97 82,-523 82,-523 82,-523 82,-305 82,-236.28 166.12,-190.47 207.52,-172.08"/>
<ellipse fill="none" stroke="blue" cx="127.12" cy="-646.37" rx="4" ry="4"/>
</a>
</g>
</g>
<!-- Dup3_0&#45;&gt;Cut1 -->
<g id="edge14" class="edge">
<title>Dup3_0&#45;&gt;Cut1</title>
<g id="a_edge14"><a xlink:title="e45">
<path fill="none" stroke="blue" d="M142,-639.64C142,-630.49 142,-620.38 142,-612.1"/>
<ellipse fill="blue" stroke="blue" cx="142" cy="-643.7" rx="4" ry="4"/>
</a>
</g>
</g>
<!-- Dup3_1&#45;&gt;Dup2_1 -->
<g id="edge37" class="edge">
<title>Dup3_1&#45;&gt;Dup2_1</title>
<g id="a_edge37"><a xlink:title="e93">
<path fill="none" stroke="red" stroke-width="2" d="M427.25,-251.95C421.71,-278.48 412,-331.48 412,-377 412,-1039.65 412,-1039.65 412,-1039.65 412,-1086.51 396.12,-1139.34 385.46,-1169.54"/>
<ellipse fill="none" stroke="red" stroke-width="2" cx="383.96" cy="-1173.67" rx="4" ry="4"/>
</a>
</g>
</g>
<!-- Cut2&#45;&gt;Dup3_1 -->
<g id="edge38" class="edge">
<title>Cut2&#45;&gt;Dup3_1</title>
<g id="a_edge38"><a xlink:title="e94">
<path fill="none" stroke="red" stroke-width="2" d="M450,-1177.13C450,-1148.6 450,-1089.59 450,-1039.65 450,-1039.65 450,-1039.65 450,-377 450,-335.75 442.03,-288.35 436.41,-260.08"/>
<ellipse fill="red" stroke="red" stroke-width="2" cx="435.55" cy="-255.87" rx="4" ry="4"/>
</a>
</g>
</g>
<!-- Cut3&#45;&gt;I1 -->
<g id="edge1" class="edge">
<title>Cut3&#45;&gt;I1</title>
<g id="a_edge1"><a xlink:title="e11">
<path fill="none" stroke="red" d="M280.78,-1018.06C265.49,-1005.17 245.53,-988.34 230.08,-975.31"/>
<polygon fill="red" stroke="red" points="231.92,-972.28 222.02,-968.51 227.41,-977.63 231.92,-972.28"/>
</a>
</g>
</g>
<!-- !d4&#45;&gt;Dup2_0 -->
<g id="edge2" class="edge">
<title>!d4&#45;&gt;Dup2_0</title>
<g id="a_edge2"><a xlink:title="e15">
<path fill="none" stroke="blue" d="M181,-781.67C181,-773.05 181,-763.79 181,-756.1"/>
<polygon fill="blue" stroke="blue" points="177.5,-781.7 181,-791.7 184.5,-781.7 177.5,-781.7"/>
</a>
</g>
</g>
</g>
</svg>
