<?xml version="1.0" encoding="UTF-8" standalone="no"?>
<!DOCTYPE svg PUBLIC "-//W3C//DTD SVG 1.1//EN"
 "http://www.w3.org/Graphics/SVG/1.1/DTD/svg11.dtd">
<!-- Generated by graphviz version 2.43.0 (0)
 -->
<!-- Title: %3 Pages: 1 -->
<svg width="303pt" height="1005pt"
 viewBox="0.00 0.00 302.55 1005.30" xmlns="http://www.w3.org/2000/svg" xmlns:xlink="http://www.w3.org/1999/xlink">
<g id="graph0" class="graph" transform="scale(1 1) rotate(0) translate(4 1001.3)">
<title>%3</title>
<polygon fill="white" stroke="transparent" points="-4,4 -4,-1001.3 298.55,-1001.3 298.55,4 -4,4"/>
<!-- Root0 -->
<g id="node1" class="node">
<title>Root0</title>
<ellipse fill="none" stroke="black" cx="30.55" cy="-979.3" rx="30.59" ry="18"/>
<text text-anchor="middle" x="30.55" y="-975.6" font-family="Times-Roman" font-size="14.00">Root</text>
</g>
<!-- Dup0_1 -->
<g id="node22" class="node">
<title>Dup0_1</title>
<ellipse fill="none" stroke="black" cx="30.55" cy="-907.3" rx="29.5" ry="18"/>
<text text-anchor="middle" x="30.55" y="-903.6" font-family="Times-Roman" font-size="14.00">Dup</text>
</g>
<!-- Root0&#45;&gt;Dup0_1 -->
<g id="edge16" class="edge">
<title>Root0&#45;&gt;Dup0_1</title>
<g id="a_edge16"><a xlink:title="rettop">
<path fill="none" stroke="red" stroke-width="2" d="M30.55,-960.99C30.55,-952.68 30.55,-942.57 30.55,-933.44"/>
<ellipse fill="red" stroke="red" stroke-width="2" cx="30.55" cy="-929.4" rx="4" ry="4"/>
</a>
</g>
</g>
<!-- PiL0 -->
<g id="node2" class="node">
<title>PiL0</title>
<ellipse fill="none" stroke="black" cx="96.55" cy="-763.3" rx="27" ry="18"/>
<text text-anchor="middle" x="96.55" y="-759.6" font-family="Times-Roman" font-size="14.00">PiL</text>
</g>
<!-- !d0 -->
<g id="node3" class="node">
<title>!d0</title>
<ellipse fill="none" stroke="black" cx="168.55" cy="-691.3" rx="27" ry="18"/>
<text text-anchor="middle" x="168.55" y="-687.6" font-family="Times-Roman" font-size="14.00">!d</text>
</g>
<!-- PiL0&#45;&gt;!d0 -->
<g id="edge24" class="edge">
<title>PiL0&#45;&gt;!d0</title>
<g id="a_edge24"><a xlink:title="yl1">
<path fill="none" stroke="blue" stroke-width="2" d="M118.59,-740.86C130,-729.77 143.62,-716.53 153.75,-706.68"/>
<polygon fill="blue" stroke="blue" stroke-width="2" points="115.85,-738.65 111.12,-748.13 120.73,-743.67 115.85,-738.65"/>
</a>
</g>
</g>
<!-- !p0 -->
<g id="node5" class="node">
<title>!p0</title>
<ellipse fill="none" stroke="black" cx="96.55" cy="-691.3" rx="27" ry="18"/>
<text text-anchor="middle" x="96.55" y="-687.6" font-family="Times-Roman" font-size="14.00">!p</text>
</g>
<!-- PiL0&#45;&gt;!p0 -->
<g id="edge27" class="edge">
<title>PiL0&#45;&gt;!p0</title>
<g id="a_edge27"><a xlink:title="ylp">
<path fill="none" stroke="red" d="M96.55,-744.99C96.55,-737.28 96.55,-728.01 96.55,-719.41"/>
<polygon fill="red" stroke="red" points="100.05,-719.4 96.55,-709.4 93.05,-719.4 100.05,-719.4"/>
</a>
</g>
</g>
<!-- !c0 -->
<g id="node4" class="node">
<title>!c0</title>
<ellipse fill="none" stroke="black" cx="168.55" cy="-619.3" rx="27" ry="18"/>
<text text-anchor="middle" x="168.55" y="-615.6" font-family="Times-Roman" font-size="14.00">!c</text>
</g>
<!-- !d0&#45;&gt;!c0 -->
<g id="edge20" class="edge">
<title>!d0&#45;&gt;!c0</title>
<g id="a_edge20"><a xlink:title="y1">
<path fill="none" stroke="blue" stroke-width="2" d="M168.55,-662.96C168.55,-654.35 168.55,-645.09 168.55,-637.4"/>
<polygon fill="blue" stroke="blue" stroke-width="2" points="165.05,-662.99 168.55,-672.99 172.05,-662.99 165.05,-662.99"/>
</a>
</g>
</g>
<!-- Cut0 -->
<g id="node16" class="node">
<title>Cut0</title>
<ellipse fill="none" stroke="black" cx="168.55" cy="-534.65" rx="26.78" ry="26.78"/>
<ellipse fill="none" stroke="black" cx="168.55" cy="-534.65" rx="30.8" ry="30.8"/>
<text text-anchor="middle" x="168.55" y="-530.95" font-family="Times-Roman" font-size="14.00">Cut</text>
</g>
<!-- !c0&#45;&gt;Cut0 -->
<g id="edge19" class="edge">
<title>!c0&#45;&gt;Cut0</title>
<g id="a_edge19"><a xlink:title="y">
<path fill="none" stroke="blue" stroke-width="2" d="M168.55,-591.01C168.55,-582.82 168.55,-573.8 168.55,-565.45"/>
<polygon fill="blue" stroke="blue" stroke-width="2" points="165.05,-591.17 168.55,-601.17 172.05,-591.17 165.05,-591.17"/>
</a>
</g>
</g>
<!-- !p0&#45;&gt;!c0 -->
<g id="edge21" class="edge">
<title>!p0&#45;&gt;!c0</title>
<g id="a_edge21"><a xlink:title="y2">
<path fill="none" stroke="blue" d="M118.59,-668.86C130,-657.77 143.62,-644.53 153.75,-634.68"/>
<polygon fill="blue" stroke="blue" points="115.85,-666.65 111.12,-676.13 120.73,-671.67 115.85,-666.65"/>
</a>
</g>
</g>
<!-- I0 -->
<g id="node6" class="node">
<title>I0</title>
<ellipse fill="none" stroke="black" cx="96.55" cy="-619.3" rx="27" ry="18"/>
<text text-anchor="middle" x="96.55" y="-615.6" font-family="Times-Roman" font-size="14.00">I</text>
</g>
<!-- !p0&#45;&gt;I0 -->
<g id="edge26" class="edge">
<title>!p0&#45;&gt;I0</title>
<g id="a_edge26"><a xlink:title="yli">
<path fill="none" stroke="red" d="M96.55,-672.99C96.55,-665.28 96.55,-656.01 96.55,-647.41"/>
<polygon fill="red" stroke="red" points="100.05,-647.4 96.55,-637.4 93.05,-647.4 100.05,-647.4"/>
</a>
</g>
</g>
<!-- !d1 -->
<g id="node7" class="node">
<title>!d1</title>
<ellipse fill="none" stroke="black" cx="75.55" cy="-534.65" rx="27" ry="18"/>
<text text-anchor="middle" x="75.55" y="-530.95" font-family="Times-Roman" font-size="14.00">!d</text>
</g>
<!-- I0&#45;&gt;!d1 -->
<g id="edge25" class="edge">
<title>I0&#45;&gt;!d1</title>
<g id="a_edge25"><a xlink:title="yl2">
<path fill="none" stroke="blue" d="M89.73,-591.45C86.47,-578.63 82.67,-563.67 79.82,-552.47"/>
<polygon fill="blue" stroke="blue" points="86.34,-592.34 92.2,-601.17 93.13,-590.62 86.34,-592.34"/>
</a>
</g>
</g>
<!-- !d1&#45;&gt;!p0 -->
<g id="edge22" class="edge">
<title>!d1&#45;&gt;!p0</title>
<g id="a_edge22"><a xlink:title="yj">
<path fill="none" stroke="blue" d="M65.42,-561.91C58.87,-582.73 52.88,-612.35 60.55,-637.3 64.93,-651.54 74.59,-665.4 82.8,-675.36"/>
<polygon fill="blue" stroke="blue" points="68.82,-562.78 68.72,-552.18 62.19,-560.53 68.82,-562.78"/>
</a>
</g>
</g>
<!-- !p1 -->
<g id="node8" class="node">
<title>!p1</title>
<ellipse fill="none" stroke="black" cx="168.55" cy="-450" rx="27" ry="18"/>
<text text-anchor="middle" x="168.55" y="-446.3" font-family="Times-Roman" font-size="14.00">!p</text>
</g>
<!-- I1 -->
<g id="node9" class="node">
<title>I1</title>
<ellipse fill="none" stroke="black" cx="223.55" cy="-378" rx="27" ry="18"/>
<text text-anchor="middle" x="223.55" y="-374.3" font-family="Times-Roman" font-size="14.00">I</text>
</g>
<!-- !p1&#45;&gt;I1 -->
<g id="edge10" class="edge">
<title>!p1&#45;&gt;I1</title>
<g id="a_edge10"><a xlink:title="hli">
<path fill="none" stroke="red" d="M180.48,-433.81C187.76,-424.55 197.21,-412.52 205.4,-402.09"/>
<polygon fill="red" stroke="red" points="208.21,-404.18 211.64,-394.16 202.71,-399.86 208.21,-404.18"/>
</a>
</g>
</g>
<!-- Dup0_0 -->
<g id="node21" class="node">
<title>Dup0_0</title>
<ellipse fill="none" stroke="black" cx="96.55" cy="-378" rx="29.5" ry="18"/>
<text text-anchor="middle" x="96.55" y="-374.3" font-family="Times-Roman" font-size="14.00">Dup</text>
</g>
<!-- !p1&#45;&gt;Dup0_0 -->
<g id="edge4" class="edge">
<title>!p1&#45;&gt;Dup0_0</title>
<g id="a_edge4"><a xlink:title="h">
<path fill="none" stroke="blue" d="M146.56,-427.62C135.23,-416.61 121.72,-403.47 111.59,-393.63"/>
<polygon fill="blue" stroke="blue" points="144.37,-430.37 153.98,-434.83 149.25,-425.35 144.37,-430.37"/>
</a>
</g>
</g>
<!-- PiL1 -->
<g id="node10" class="node">
<title>PiL1</title>
<ellipse fill="none" stroke="black" cx="223.55" cy="-306" rx="27" ry="18"/>
<text text-anchor="middle" x="223.55" y="-302.3" font-family="Times-Roman" font-size="14.00">PiL</text>
</g>
<!-- I1&#45;&gt;PiL1 -->
<g id="edge6" class="edge">
<title>I1&#45;&gt;PiL1</title>
<g id="a_edge6"><a xlink:title="hl2">
<path fill="none" stroke="blue" d="M223.55,-349.67C223.55,-341.05 223.55,-331.79 223.55,-324.1"/>
<polygon fill="blue" stroke="blue" points="220.05,-349.7 223.55,-359.7 227.05,-349.7 220.05,-349.7"/>
</a>
</g>
</g>
<!-- !d2 -->
<g id="node11" class="node">
<title>!d2</title>
<ellipse fill="none" stroke="black" cx="168.55" cy="-234" rx="27" ry="18"/>
<text text-anchor="middle" x="168.55" y="-230.3" font-family="Times-Roman" font-size="14.00">!d</text>
</g>
<!-- PiL1&#45;&gt;!d2 -->
<g id="edge7" class="edge">
<title>PiL1&#45;&gt;!d2</title>
<g id="a_edge7"><a xlink:title="hl21">
<path fill="none" stroke="blue" d="M205.38,-281.87C197.18,-271.44 187.73,-259.42 180.46,-250.16"/>
<polygon fill="blue" stroke="blue" points="202.68,-284.11 211.61,-289.81 208.19,-279.79 202.68,-284.11"/>
</a>
</g>
</g>
<!-- !p2 -->
<g id="node12" class="node">
<title>!p2</title>
<ellipse fill="none" stroke="black" cx="240.55" cy="-234" rx="27" ry="18"/>
<text text-anchor="middle" x="240.55" y="-230.3" font-family="Times-Roman" font-size="14.00">!p</text>
</g>
<!-- PiL1&#45;&gt;!p2 -->
<g id="edge9" class="edge">
<title>PiL1&#45;&gt;!p2</title>
<g id="a_edge9"><a xlink:title="hl2p">
<path fill="none" stroke="red" d="M227.66,-288.05C229.56,-280.26 231.85,-270.82 233.97,-262.08"/>
<polygon fill="red" stroke="red" points="237.39,-262.82 236.35,-252.28 230.59,-261.17 237.39,-262.82"/>
</a>
</g>
</g>
<!-- !d2&#45;&gt;!p1 -->
<g id="edge5" class="edge">
<title>!d2&#45;&gt;!p1</title>
<g id="a_edge5"><a xlink:title="hj">
<path fill="none" stroke="blue" d="M168.55,-262.39C168.55,-307.18 168.55,-394.83 168.55,-431.85"/>
<polygon fill="blue" stroke="blue" points="172.05,-262.23 168.55,-252.23 165.05,-262.23 172.05,-262.23"/>
</a>
</g>
</g>
<!-- PiR0 -->
<g id="node15" class="node">
<title>PiR0</title>
<ellipse fill="none" stroke="black" cx="240.55" cy="-162" rx="27" ry="18"/>
<text text-anchor="middle" x="240.55" y="-158.3" font-family="Times-Roman" font-size="14.00">PiR</text>
</g>
<!-- !p2&#45;&gt;PiR0 -->
<g id="edge8" class="edge">
<title>!p2&#45;&gt;PiR0</title>
<g id="a_edge8"><a xlink:title="hl2i">
<path fill="none" stroke="red" d="M240.55,-215.7C240.55,-207.98 240.55,-198.71 240.55,-190.11"/>
<polygon fill="red" stroke="red" points="244.05,-190.1 240.55,-180.1 237.05,-190.1 244.05,-190.1"/>
</a>
</g>
</g>
<!-- I2 -->
<g id="node13" class="node">
<title>I2</title>
<ellipse fill="none" stroke="black" cx="267.55" cy="-90" rx="27" ry="18"/>
<text text-anchor="middle" x="267.55" y="-86.3" font-family="Times-Roman" font-size="14.00">I</text>
</g>
<!-- !d3 -->
<g id="node14" class="node">
<title>!d3</title>
<ellipse fill="none" stroke="black" cx="239.55" cy="-18" rx="27" ry="18"/>
<text text-anchor="middle" x="239.55" y="-14.3" font-family="Times-Roman" font-size="14.00">!d</text>
</g>
<!-- I2&#45;&gt;!d3 -->
<g id="edge14" class="edge">
<title>I2&#45;&gt;!d3</title>
<g id="a_edge14"><a xlink:title="il">
<path fill="none" stroke="blue" d="M257.11,-62.91C253.43,-53.72 249.41,-43.65 246.14,-35.47"/>
<polygon fill="blue" stroke="blue" points="253.95,-64.43 260.91,-72.41 260.45,-61.83 253.95,-64.43"/>
</a>
</g>
</g>
<!-- !d3&#45;&gt;PiR0 -->
<g id="edge13" class="edge">
<title>!d3&#45;&gt;PiR0</title>
<g id="a_edge13"><a xlink:title="i">
<path fill="none" stroke="blue" d="M234.67,-46.04C233.39,-54.34 232.18,-63.52 231.55,-72 230.35,-87.96 230.2,-92.06 231.55,-108 232.57,-120.09 234.87,-133.57 236.89,-143.91"/>
<polygon fill="blue" stroke="blue" points="238.13,-46.55 236.3,-36.11 231.22,-45.41 238.13,-46.55"/>
</a>
</g>
</g>
<!-- PiR0&#45;&gt;I2 -->
<g id="edge15" class="edge">
<title>PiR0&#45;&gt;I2</title>
<g id="a_edge15"><a xlink:title="ir">
<path fill="none" stroke="red" d="M246.95,-144.41C250.06,-136.34 253.88,-126.43 257.38,-117.35"/>
<polygon fill="red" stroke="red" points="260.67,-118.55 261.01,-107.96 254.14,-116.03 260.67,-118.55"/>
</a>
</g>
</g>
<!-- Cut0&#45;&gt;!p1 -->
<g id="edge11" class="edge">
<title>Cut0&#45;&gt;!p1</title>
<g id="a_edge11"><a xlink:title="hlp">
<path fill="none" stroke="red" d="M168.55,-503.81C168.55,-495.45 168.55,-486.41 168.55,-478.21"/>
<polygon fill="red" stroke="red" points="172.05,-478.05 168.55,-468.05 165.05,-478.05 172.05,-478.05"/>
</a>
</g>
</g>
<!-- I3 -->
<g id="node17" class="node">
<title>I3</title>
<ellipse fill="none" stroke="black" cx="77.55" cy="-835.3" rx="27" ry="18"/>
<text text-anchor="middle" x="77.55" y="-831.6" font-family="Times-Roman" font-size="14.00">I</text>
</g>
<!-- I3&#45;&gt;PiL0 -->
<g id="edge23" class="edge">
<title>I3&#45;&gt;PiL0</title>
<g id="a_edge23"><a xlink:title="yl">
<path fill="none" stroke="blue" stroke-width="2" d="M84.84,-807.43C87.24,-798.57 89.85,-788.97 91.99,-781.08"/>
<polygon fill="blue" stroke="blue" stroke-width="2" points="81.39,-806.78 82.15,-817.35 88.14,-808.62 81.39,-806.78"/>
</a>
</g>
</g>
<!-- !p3 -->
<g id="node18" class="node">
<title>!p3</title>
<ellipse fill="none" stroke="black" cx="96.55" cy="-234" rx="27" ry="18"/>
<text text-anchor="middle" x="96.55" y="-230.3" font-family="Times-Roman" font-size="14.00">!p</text>
</g>
<!-- PiR1 -->
<g id="node19" class="node">
<title>PiR1</title>
<ellipse fill="none" stroke="black" cx="41.55" cy="-162" rx="27" ry="18"/>
<text text-anchor="middle" x="41.55" y="-158.3" font-family="Times-Roman" font-size="14.00">PiR</text>
</g>
<!-- !p3&#45;&gt;PiR1 -->
<g id="edge17" class="edge">
<title>!p3&#45;&gt;PiR1</title>
<g id="a_edge17"><a xlink:title="xli">
<path fill="none" stroke="red" d="M84.61,-217.81C77.33,-208.55 67.88,-196.52 59.69,-186.09"/>
<polygon fill="red" stroke="red" points="62.39,-183.86 53.46,-178.16 56.88,-188.18 62.39,-183.86"/>
</a>
</g>
</g>
<!-- PiR1&#45;&gt;Dup0_1 -->
<g id="edge3" class="edge">
<title>PiR1&#45;&gt;Dup0_1</title>
<g id="a_edge3"><a xlink:title="e7">
<path fill="none" stroke="red" d="M34.04,-179.66C22.97,-205.8 3.55,-258.3 3.55,-305 3.55,-764.3 3.55,-764.3 3.55,-764.3 3.55,-806.09 14.98,-853.61 22.96,-881.71"/>
<ellipse fill="none" stroke="red" cx="24.1" cy="-885.6" rx="4" ry="4"/>
</a>
</g>
</g>
<!-- Cut1 -->
<g id="node20" class="node">
<title>Cut1</title>
<ellipse fill="none" stroke="black" cx="96.55" cy="-306" rx="27" ry="18"/>
<text text-anchor="middle" x="96.55" y="-302.3" font-family="Times-Roman" font-size="14.00">Cut</text>
</g>
<!-- Cut1&#45;&gt;!p3 -->
<g id="edge18" class="edge">
<title>Cut1&#45;&gt;!p3</title>
<g id="a_edge18"><a xlink:title="xlp">
<path fill="none" stroke="red" d="M96.55,-287.7C96.55,-279.98 96.55,-270.71 96.55,-262.11"/>
<polygon fill="red" stroke="red" points="100.05,-262.1 96.55,-252.1 93.05,-262.1 100.05,-262.1"/>
</a>
</g>
</g>
<!-- Dup0_0&#45;&gt;PiR1 -->
<g id="edge2" class="edge">
<title>Dup0_0&#45;&gt;PiR1</title>
<g id="a_edge2"><a xlink:title="e5">
<path fill="none" stroke="blue" d="M78.34,-355.31C71.65,-346.19 64.7,-335.13 60.55,-324 41.95,-274.16 40.46,-210.16 40.95,-180.07"/>
<ellipse fill="none" stroke="blue" cx="80.93" cy="-358.7" rx="4" ry="4"/>
</a>
</g>
</g>
<!-- Dup0_0&#45;&gt;Cut1 -->
<g id="edge1" class="edge">
<title>Dup0_0&#45;&gt;Cut1</title>
<g id="a_edge1"><a xlink:title="e4">
<path fill="none" stroke="blue" d="M96.55,-351.64C96.55,-342.49 96.55,-332.38 96.55,-324.1"/>
<ellipse fill="blue" stroke="blue" cx="96.55" cy="-355.7" rx="4" ry="4"/>
</a>
</g>
</g>
<!-- Dup0_1&#45;&gt;I3 -->
<g id="edge12" class="edge">
<title>Dup0_1&#45;&gt;I3</title>
<g id="a_edge12"><a xlink:title="hr">
<path fill="none" stroke="red" stroke-width="2" d="M41.21,-890.41C47.1,-881.64 54.54,-870.56 61.15,-860.71"/>
<polygon fill="red" stroke="red" stroke-width="2" points="64.26,-862.37 66.92,-852.12 58.44,-858.47 64.26,-862.37"/>
</a>
</g>
</g>
</g>
</svg>
