<?xml version="1.0" encoding="UTF-8" standalone="no"?>
<!DOCTYPE svg PUBLIC "-//W3C//DTD SVG 1.1//EN"
 "http://www.w3.org/Graphics/SVG/1.1/DTD/svg11.dtd">
<!-- Generated by graphviz version 2.43.0 (0)
 -->
<!-- Title: %3 Pages: 1 -->
<svg width="190pt" height="645pt"
 viewBox="0.00 0.00 190.00 645.30" xmlns="http://www.w3.org/2000/svg" xmlns:xlink="http://www.w3.org/1999/xlink">
<g id="graph0" class="graph" transform="scale(1 1) rotate(0) translate(4 641.3)">
<title>%3</title>
<polygon fill="white" stroke="transparent" points="-4,4 -4,-641.3 186,-641.3 186,4 -4,4"/>
<!-- Root0 -->
<g id="node1" class="node">
<title>Root0</title>
<ellipse fill="none" stroke="black" cx="92" cy="-619.3" rx="30.59" ry="18"/>
<text text-anchor="middle" x="92" y="-615.6" font-family="Times-Roman" font-size="14.00">Root</text>
</g>
<!-- I2 -->
<g id="node13" class="node">
<title>I2</title>
<ellipse fill="none" stroke="black" cx="92" cy="-547.3" rx="27" ry="18"/>
<text text-anchor="middle" x="92" y="-543.6" font-family="Times-Roman" font-size="14.00">I</text>
</g>
<!-- Root0&#45;&gt;I2 -->
<g id="edge14" class="edge">
<title>Root0&#45;&gt;I2</title>
<g id="a_edge14"><a xlink:title="rettop">
<path fill="none" stroke="red" stroke-width="2" d="M92,-600.99C92,-593.28 92,-584.01 92,-575.41"/>
<polygon fill="red" stroke="red" stroke-width="2" points="95.5,-575.4 92,-565.4 88.5,-575.4 95.5,-575.4"/>
</a>
</g>
</g>
<!-- !d0 -->
<g id="node2" class="node">
<title>!d0</title>
<ellipse fill="none" stroke="black" cx="56" cy="-403.3" rx="27" ry="18"/>
<text text-anchor="middle" x="56" y="-399.6" font-family="Times-Roman" font-size="14.00">!d</text>
</g>
<!-- Cut0 -->
<g id="node9" class="node">
<title>Cut0</title>
<ellipse fill="none" stroke="black" cx="54" cy="-318.65" rx="26.78" ry="26.78"/>
<ellipse fill="none" stroke="black" cx="54" cy="-318.65" rx="30.8" ry="30.8"/>
<text text-anchor="middle" x="54" y="-314.95" font-family="Times-Roman" font-size="14.00">Cut</text>
</g>
<!-- !d0&#45;&gt;Cut0 -->
<g id="edge13" class="edge">
<title>!d0&#45;&gt;Cut0</title>
<g id="a_edge13"><a xlink:title="e47">
<path fill="none" stroke="blue" stroke-width="2" d="M55.34,-375.01C55.14,-366.82 54.92,-357.8 54.72,-349.45"/>
<polygon fill="blue" stroke="blue" stroke-width="2" points="51.84,-375.26 55.59,-385.17 58.84,-375.09 51.84,-375.26"/>
</a>
</g>
</g>
<!-- PiL0 -->
<g id="node3" class="node">
<title>PiL0</title>
<ellipse fill="none" stroke="black" cx="92" cy="-475.3" rx="27" ry="18"/>
<text text-anchor="middle" x="92" y="-471.6" font-family="Times-Roman" font-size="14.00">PiL</text>
</g>
<!-- PiL0&#45;&gt;!d0 -->
<g id="edge1" class="edge">
<title>PiL0&#45;&gt;!d0</title>
<g id="a_edge1"><a xlink:title="e103">
<path fill="none" stroke="blue" stroke-width="2" d="M78.99,-449C74.09,-439.47 68.66,-428.91 64.3,-420.44"/>
<polygon fill="blue" stroke="blue" stroke-width="2" points="75.96,-450.77 83.65,-458.06 82.19,-447.57 75.96,-450.77"/>
</a>
</g>
</g>
<!-- !p0 -->
<g id="node4" class="node">
<title>!p0</title>
<ellipse fill="none" stroke="black" cx="129" cy="-403.3" rx="27" ry="18"/>
<text text-anchor="middle" x="129" y="-399.6" font-family="Times-Roman" font-size="14.00">!p</text>
</g>
<!-- PiL0&#45;&gt;!p0 -->
<g id="edge3" class="edge">
<title>PiL0&#45;&gt;!p0</title>
<g id="a_edge3"><a xlink:title="e107">
<path fill="none" stroke="red" d="M100.58,-458.06C105.06,-449.58 110.65,-439.01 115.68,-429.49"/>
<polygon fill="red" stroke="red" points="118.89,-430.92 120.46,-420.44 112.7,-427.65 118.89,-430.92"/>
</a>
</g>
</g>
<!-- PiR0 -->
<g id="node5" class="node">
<title>PiR0</title>
<ellipse fill="none" stroke="black" cx="130" cy="-318.65" rx="27" ry="18"/>
<text text-anchor="middle" x="130" y="-314.95" font-family="Times-Roman" font-size="14.00">PiR</text>
</g>
<!-- !p0&#45;&gt;PiR0 -->
<g id="edge4" class="edge">
<title>!p0&#45;&gt;PiR0</title>
<g id="a_edge4"><a xlink:title="e111">
<path fill="none" stroke="red" d="M129.21,-385.17C129.34,-374.09 129.52,-359.42 129.67,-346.78"/>
<polygon fill="red" stroke="red" points="133.17,-346.79 129.79,-336.75 126.17,-346.71 133.17,-346.79"/>
</a>
</g>
</g>
<!-- I0 -->
<g id="node7" class="node">
<title>I0</title>
<ellipse fill="none" stroke="black" cx="128" cy="-234" rx="27" ry="18"/>
<text text-anchor="middle" x="128" y="-230.3" font-family="Times-Roman" font-size="14.00">I</text>
</g>
<!-- PiR0&#45;&gt;I0 -->
<g id="edge6" class="edge">
<title>PiR0&#45;&gt;I0</title>
<g id="a_edge6"><a xlink:title="e119">
<path fill="none" stroke="red" d="M129.59,-300.52C129.32,-289.44 128.96,-274.78 128.66,-262.13"/>
<polygon fill="red" stroke="red" points="132.15,-262.02 128.41,-252.1 125.16,-262.18 132.15,-262.02"/>
</a>
</g>
</g>
<!-- !d1 -->
<g id="node6" class="node">
<title>!d1</title>
<ellipse fill="none" stroke="black" cx="155" cy="-162" rx="27" ry="18"/>
<text text-anchor="middle" x="155" y="-158.3" font-family="Times-Roman" font-size="14.00">!d</text>
</g>
<!-- !d1&#45;&gt;PiR0 -->
<g id="edge5" class="edge">
<title>!d1&#45;&gt;PiR0</title>
<g id="a_edge5"><a xlink:title="e117">
<path fill="none" stroke="blue" d="M162.35,-189.71C166.14,-207.55 169.01,-231.44 164,-252 159.53,-270.33 148.99,-289.26 140.81,-302.05"/>
<polygon fill="blue" stroke="blue" points="165.76,-188.9 160.07,-179.97 158.94,-190.5 165.76,-188.9"/>
</a>
</g>
</g>
<!-- I0&#45;&gt;!d1 -->
<g id="edge7" class="edge">
<title>I0&#45;&gt;!d1</title>
<g id="a_edge7"><a xlink:title="e123">
<path fill="none" stroke="blue" d="M138.01,-207.06C141.5,-198.01 145.32,-188.09 148.46,-179.96"/>
<polygon fill="blue" stroke="blue" points="134.73,-205.82 134.4,-216.41 141.26,-208.34 134.73,-205.82"/>
</a>
</g>
</g>
<!-- !p1 -->
<g id="node8" class="node">
<title>!p1</title>
<ellipse fill="none" stroke="black" cx="54" cy="-234" rx="27" ry="18"/>
<text text-anchor="middle" x="54" y="-230.3" font-family="Times-Roman" font-size="14.00">!p</text>
</g>
<!-- PiR1 -->
<g id="node10" class="node">
<title>PiR1</title>
<ellipse fill="none" stroke="black" cx="54" cy="-162" rx="27" ry="18"/>
<text text-anchor="middle" x="54" y="-158.3" font-family="Times-Roman" font-size="14.00">PiR</text>
</g>
<!-- !p1&#45;&gt;PiR1 -->
<g id="edge9" class="edge">
<title>!p1&#45;&gt;PiR1</title>
<g id="a_edge9"><a xlink:title="e127">
<path fill="none" stroke="red" d="M54,-215.7C54,-207.98 54,-198.71 54,-190.11"/>
<polygon fill="red" stroke="red" points="57.5,-190.1 54,-180.1 50.5,-190.1 57.5,-190.1"/>
</a>
</g>
</g>
<!-- Cut0&#45;&gt;!p1 -->
<g id="edge8" class="edge">
<title>Cut0&#45;&gt;!p1</title>
<g id="a_edge8"><a xlink:title="e125">
<path fill="none" stroke="red" d="M54,-287.81C54,-279.45 54,-270.41 54,-262.21"/>
<polygon fill="red" stroke="red" points="57.5,-262.05 54,-252.05 50.5,-262.05 57.5,-262.05"/>
</a>
</g>
</g>
<!-- I1 -->
<g id="node12" class="node">
<title>I1</title>
<ellipse fill="none" stroke="black" cx="27" cy="-90" rx="27" ry="18"/>
<text text-anchor="middle" x="27" y="-86.3" font-family="Times-Roman" font-size="14.00">I</text>
</g>
<!-- PiR1&#45;&gt;I1 -->
<g id="edge11" class="edge">
<title>PiR1&#45;&gt;I1</title>
<g id="a_edge11"><a xlink:title="e131">
<path fill="none" stroke="red" d="M47.6,-144.41C44.49,-136.34 40.67,-126.43 37.17,-117.35"/>
<polygon fill="red" stroke="red" points="40.4,-116.03 33.54,-107.96 33.87,-118.55 40.4,-116.03"/>
</a>
</g>
</g>
<!-- !d2 -->
<g id="node11" class="node">
<title>!d2</title>
<ellipse fill="none" stroke="black" cx="54" cy="-18" rx="27" ry="18"/>
<text text-anchor="middle" x="54" y="-14.3" font-family="Times-Roman" font-size="14.00">!d</text>
</g>
<!-- !d2&#45;&gt;PiR1 -->
<g id="edge10" class="edge">
<title>!d2&#45;&gt;PiR1</title>
<g id="a_edge10"><a xlink:title="e129">
<path fill="none" stroke="blue" d="M59.49,-46.01C60.93,-54.31 62.28,-63.5 63,-72 64.34,-87.94 64.34,-92.06 63,-108 61.98,-120.09 59.68,-133.57 57.65,-143.91"/>
<polygon fill="blue" stroke="blue" points="62.91,-45.29 57.65,-36.09 56.03,-46.56 62.91,-45.29"/>
</a>
</g>
</g>
<!-- I1&#45;&gt;!d2 -->
<g id="edge12" class="edge">
<title>I1&#45;&gt;!d2</title>
<g id="a_edge12"><a xlink:title="e133">
<path fill="none" stroke="blue" d="M37.01,-63.06C40.5,-54.01 44.32,-44.09 47.46,-35.96"/>
<polygon fill="blue" stroke="blue" points="33.73,-61.82 33.4,-72.41 40.26,-64.34 33.73,-61.82"/>
</a>
</g>
</g>
<!-- I2&#45;&gt;PiL0 -->
<g id="edge2" class="edge">
<title>I2&#45;&gt;PiL0</title>
<g id="a_edge2"><a xlink:title="e105">
<path fill="none" stroke="blue" stroke-width="2" d="M92,-518.96C92,-510.35 92,-501.09 92,-493.4"/>
<polygon fill="blue" stroke="blue" stroke-width="2" points="88.5,-518.99 92,-528.99 95.5,-518.99 88.5,-518.99"/>
</a>
</g>
</g>
</g>
</svg>
