<?xml version="1.0" encoding="UTF-8" standalone="no"?>
<!DOCTYPE svg PUBLIC "-//W3C//DTD SVG 1.1//EN"
 "http://www.w3.org/Graphics/SVG/1.1/DTD/svg11.dtd">
<!-- Generated by graphviz version 2.43.0 (0)
 -->
<!-- Title: %3 Pages: 1 -->
<svg width="370pt" height="1509pt"
 viewBox="0.00 0.00 370.00 1509.30" xmlns="http://www.w3.org/2000/svg" xmlns:xlink="http://www.w3.org/1999/xlink">
<g id="graph0" class="graph" transform="scale(1 1) rotate(0) translate(4 1505.3)">
<title>%3</title>
<polygon fill="white" stroke="transparent" points="-4,4 -4,-1505.3 366,-1505.3 366,4 -4,4"/>
<!-- Root0 -->
<g id="node1" class="node">
<title>Root0</title>
<ellipse fill="none" stroke="black" cx="249" cy="-1483.3" rx="30.59" ry="18"/>
<text text-anchor="middle" x="249" y="-1479.6" font-family="Times-Roman" font-size="14.00">Root</text>
</g>
<!-- I8 -->
<g id="node34" class="node">
<title>I8</title>
<ellipse fill="none" stroke="black" cx="249" cy="-1411.3" rx="27" ry="18"/>
<text text-anchor="middle" x="249" y="-1407.6" font-family="Times-Roman" font-size="14.00">I</text>
</g>
<!-- Root0&#45;&gt;I8 -->
<g id="edge22" class="edge">
<title>Root0&#45;&gt;I8</title>
<g id="a_edge22"><a xlink:title="rettop">
<path fill="none" stroke="red" stroke-width="2" d="M249,-1464.99C249,-1457.28 249,-1448.01 249,-1439.41"/>
<polygon fill="red" stroke="red" stroke-width="2" points="252.5,-1439.4 249,-1429.4 245.5,-1439.4 252.5,-1439.4"/>
</a>
</g>
</g>
<!-- PiL0 -->
<g id="node2" class="node">
<title>PiL0</title>
<ellipse fill="none" stroke="black" cx="249" cy="-1339.3" rx="27" ry="18"/>
<text text-anchor="middle" x="249" y="-1335.6" font-family="Times-Roman" font-size="14.00">PiL</text>
</g>
<!-- !d0 -->
<g id="node3" class="node">
<title>!d0</title>
<ellipse fill="none" stroke="black" cx="213" cy="-1267.3" rx="27" ry="18"/>
<text text-anchor="middle" x="213" y="-1263.6" font-family="Times-Roman" font-size="14.00">!d</text>
</g>
<!-- PiL0&#45;&gt;!d0 -->
<g id="edge28" class="edge">
<title>PiL0&#45;&gt;!d0</title>
<g id="a_edge28"><a xlink:title="xl1">
<path fill="none" stroke="blue" stroke-width="2" d="M235.99,-1313C231.09,-1303.47 225.66,-1292.91 221.3,-1284.44"/>
<polygon fill="blue" stroke="blue" stroke-width="2" points="232.96,-1314.77 240.65,-1322.06 239.19,-1311.57 232.96,-1314.77"/>
</a>
</g>
</g>
<!-- !p0 -->
<g id="node5" class="node">
<title>!p0</title>
<ellipse fill="none" stroke="black" cx="285" cy="-1267.3" rx="27" ry="18"/>
<text text-anchor="middle" x="285" y="-1263.6" font-family="Times-Roman" font-size="14.00">!p</text>
</g>
<!-- PiL0&#45;&gt;!p0 -->
<g id="edge31" class="edge">
<title>PiL0&#45;&gt;!p0</title>
<g id="a_edge31"><a xlink:title="xlp">
<path fill="none" stroke="red" d="M257.35,-1322.06C261.71,-1313.58 267.15,-1303.01 272.04,-1293.49"/>
<polygon fill="red" stroke="red" points="275.23,-1294.94 276.7,-1284.44 269.01,-1291.73 275.23,-1294.94"/>
</a>
</g>
</g>
<!-- !c0 -->
<g id="node4" class="node">
<title>!c0</title>
<ellipse fill="none" stroke="black" cx="221" cy="-1195.3" rx="27" ry="18"/>
<text text-anchor="middle" x="221" y="-1191.6" font-family="Times-Roman" font-size="14.00">!c</text>
</g>
<!-- !d0&#45;&gt;!c0 -->
<g id="edge24" class="edge">
<title>!d0&#45;&gt;!c0</title>
<g id="a_edge24"><a xlink:title="x1">
<path fill="none" stroke="blue" stroke-width="2" d="M216.12,-1238.96C217.11,-1230.35 218.17,-1221.09 219.05,-1213.4"/>
<polygon fill="blue" stroke="blue" stroke-width="2" points="212.64,-1238.66 214.98,-1248.99 219.59,-1239.45 212.64,-1238.66"/>
</a>
</g>
</g>
<!-- Cut3 -->
<g id="node33" class="node">
<title>Cut3</title>
<ellipse fill="none" stroke="black" cx="221" cy="-1110.65" rx="26.78" ry="26.78"/>
<ellipse fill="none" stroke="black" cx="221" cy="-1110.65" rx="30.8" ry="30.8"/>
<text text-anchor="middle" x="221" y="-1106.95" font-family="Times-Roman" font-size="14.00">Cut</text>
</g>
<!-- !c0&#45;&gt;Cut3 -->
<g id="edge23" class="edge">
<title>!c0&#45;&gt;Cut3</title>
<g id="a_edge23"><a xlink:title="x">
<path fill="none" stroke="blue" stroke-width="2" d="M221,-1167.01C221,-1158.82 221,-1149.8 221,-1141.45"/>
<polygon fill="blue" stroke="blue" stroke-width="2" points="217.5,-1167.17 221,-1177.17 224.5,-1167.17 217.5,-1167.17"/>
</a>
</g>
</g>
<!-- !p0&#45;&gt;!c0 -->
<g id="edge25" class="edge">
<title>!p0&#45;&gt;!c0</title>
<g id="a_edge25"><a xlink:title="x2">
<path fill="none" stroke="blue" d="M264.64,-1244.02C254.81,-1233.27 243.29,-1220.67 234.55,-1211.12"/>
<polygon fill="blue" stroke="blue" points="262.1,-1246.43 271.43,-1251.45 267.26,-1241.71 262.1,-1246.43"/>
</a>
</g>
</g>
<!-- I0 -->
<g id="node6" class="node">
<title>I0</title>
<ellipse fill="none" stroke="black" cx="335" cy="-1195.3" rx="27" ry="18"/>
<text text-anchor="middle" x="335" y="-1191.6" font-family="Times-Roman" font-size="14.00">I</text>
</g>
<!-- !p0&#45;&gt;I0 -->
<g id="edge30" class="edge">
<title>!p0&#45;&gt;I0</title>
<g id="a_edge30"><a xlink:title="xli">
<path fill="none" stroke="red" d="M296.1,-1250.76C302.51,-1241.79 310.7,-1230.31 317.92,-1220.21"/>
<polygon fill="red" stroke="red" points="320.97,-1221.96 323.93,-1211.79 315.27,-1217.89 320.97,-1221.96"/>
</a>
</g>
</g>
<!-- !d1 -->
<g id="node7" class="node">
<title>!d1</title>
<ellipse fill="none" stroke="black" cx="314" cy="-1110.65" rx="27" ry="18"/>
<text text-anchor="middle" x="314" y="-1106.95" font-family="Times-Roman" font-size="14.00">!d</text>
</g>
<!-- I0&#45;&gt;!d1 -->
<g id="edge29" class="edge">
<title>I0&#45;&gt;!d1</title>
<g id="a_edge29"><a xlink:title="xl2">
<path fill="none" stroke="blue" d="M328.18,-1167.45C324.92,-1154.63 321.12,-1139.67 318.27,-1128.47"/>
<polygon fill="blue" stroke="blue" points="324.79,-1168.34 330.65,-1177.17 331.58,-1166.62 324.79,-1168.34"/>
</a>
</g>
</g>
<!-- !d1&#45;&gt;!p0 -->
<g id="edge26" class="edge">
<title>!d1&#45;&gt;!p0</title>
<g id="a_edge26"><a xlink:title="xj">
<path fill="none" stroke="blue" d="M307.46,-1138.34C304.67,-1150.23 301.48,-1164.42 299,-1177.3 294.21,-1202.18 289.87,-1231.21 287.34,-1249.17"/>
<polygon fill="blue" stroke="blue" points="310.88,-1139.12 309.79,-1128.58 304.07,-1137.5 310.88,-1139.12"/>
</a>
</g>
</g>
<!-- !p1 -->
<g id="node8" class="node">
<title>!p1</title>
<ellipse fill="none" stroke="black" cx="221" cy="-1026" rx="27" ry="18"/>
<text text-anchor="middle" x="221" y="-1022.3" font-family="Times-Roman" font-size="14.00">!p</text>
</g>
<!-- I1 -->
<g id="node9" class="node">
<title>I1</title>
<ellipse fill="none" stroke="black" cx="221" cy="-954" rx="27" ry="18"/>
<text text-anchor="middle" x="221" y="-950.3" font-family="Times-Roman" font-size="14.00">I</text>
</g>
<!-- !p1&#45;&gt;I1 -->
<g id="edge20" class="edge">
<title>!p1&#45;&gt;I1</title>
<g id="a_edge20"><a xlink:title="reti">
<path fill="none" stroke="red" d="M221,-1007.7C221,-999.98 221,-990.71 221,-982.11"/>
<polygon fill="red" stroke="red" points="224.5,-982.1 221,-972.1 217.5,-982.1 224.5,-982.1"/>
</a>
</g>
</g>
<!-- Cut0 -->
<g id="node10" class="node">
<title>Cut0</title>
<ellipse fill="none" stroke="black" cx="221" cy="-882" rx="27" ry="18"/>
<text text-anchor="middle" x="221" y="-878.3" font-family="Times-Roman" font-size="14.00">Cut</text>
</g>
<!-- I1&#45;&gt;Cut0 -->
<g id="edge18" class="edge">
<title>I1&#45;&gt;Cut0</title>
<g id="a_edge18"><a xlink:title="ret2">
<path fill="none" stroke="blue" d="M221,-925.67C221,-917.05 221,-907.79 221,-900.1"/>
<polygon fill="blue" stroke="blue" points="217.5,-925.7 221,-935.7 224.5,-925.7 217.5,-925.7"/>
</a>
</g>
</g>
<!-- PiR0 -->
<g id="node11" class="node">
<title>PiR0</title>
<ellipse fill="none" stroke="black" cx="221" cy="-810" rx="27" ry="18"/>
<text text-anchor="middle" x="221" y="-806.3" font-family="Times-Roman" font-size="14.00">PiR</text>
</g>
<!-- Cut0&#45;&gt;PiR0 -->
<g id="edge19" class="edge">
<title>Cut0&#45;&gt;PiR0</title>
<g id="a_edge19"><a xlink:title="ret2r">
<path fill="none" stroke="red" d="M221,-863.7C221,-855.98 221,-846.71 221,-838.11"/>
<polygon fill="red" stroke="red" points="224.5,-838.1 221,-828.1 217.5,-838.1 224.5,-838.1"/>
</a>
</g>
</g>
<!-- I2 -->
<g id="node12" class="node">
<title>I2</title>
<ellipse fill="none" stroke="black" cx="194" cy="-738" rx="27" ry="18"/>
<text text-anchor="middle" x="194" y="-734.3" font-family="Times-Roman" font-size="14.00">I</text>
</g>
<!-- PiR0&#45;&gt;I2 -->
<g id="edge14" class="edge">
<title>PiR0&#45;&gt;I2</title>
<g id="a_edge14"><a xlink:title="hr">
<path fill="none" stroke="red" d="M214.6,-792.41C211.49,-784.34 207.67,-774.43 204.17,-765.35"/>
<polygon fill="red" stroke="red" points="207.4,-764.03 200.54,-755.96 200.87,-766.55 207.4,-764.03"/>
</a>
</g>
</g>
<!-- PiL1 -->
<g id="node13" class="node">
<title>PiL1</title>
<ellipse fill="none" stroke="black" cx="194" cy="-666" rx="27" ry="18"/>
<text text-anchor="middle" x="194" y="-662.3" font-family="Times-Roman" font-size="14.00">PiL</text>
</g>
<!-- I2&#45;&gt;PiL1 -->
<g id="edge3" class="edge">
<title>I2&#45;&gt;PiL1</title>
<g id="a_edge3"><a xlink:title="hl">
<path fill="none" stroke="blue" d="M194,-709.67C194,-701.05 194,-691.79 194,-684.1"/>
<polygon fill="blue" stroke="blue" points="190.5,-709.7 194,-719.7 197.5,-709.7 190.5,-709.7"/>
</a>
</g>
</g>
<!-- Cut1 -->
<g id="node14" class="node">
<title>Cut1</title>
<ellipse fill="none" stroke="black" cx="177" cy="-594" rx="27" ry="18"/>
<text text-anchor="middle" x="177" y="-590.3" font-family="Times-Roman" font-size="14.00">Cut</text>
</g>
<!-- PiL1&#45;&gt;Cut1 -->
<g id="edge4" class="edge">
<title>PiL1&#45;&gt;Cut1</title>
<g id="a_edge4"><a xlink:title="hl1">
<path fill="none" stroke="blue" d="M187.51,-638.29C185.39,-629.57 183.1,-620.12 181.2,-612.28"/>
<polygon fill="blue" stroke="blue" points="184.12,-639.16 189.88,-648.05 190.93,-637.51 184.12,-639.16"/>
</a>
</g>
</g>
<!-- !p3 -->
<g id="node23" class="node">
<title>!p3</title>
<ellipse fill="none" stroke="black" cx="249" cy="-594" rx="27" ry="18"/>
<text text-anchor="middle" x="249" y="-590.3" font-family="Times-Roman" font-size="14.00">!p</text>
</g>
<!-- PiL1&#45;&gt;!p3 -->
<g id="edge13" class="edge">
<title>PiL1&#45;&gt;!p3</title>
<g id="a_edge13"><a xlink:title="hlp">
<path fill="none" stroke="red" d="M205.93,-649.81C213.21,-640.55 222.66,-628.52 230.85,-618.09"/>
<polygon fill="red" stroke="red" points="233.66,-620.18 237.09,-610.16 228.16,-615.86 233.66,-620.18"/>
</a>
</g>
</g>
<!-- PiR1 -->
<g id="node15" class="node">
<title>PiR1</title>
<ellipse fill="none" stroke="black" cx="177" cy="-522" rx="27" ry="18"/>
<text text-anchor="middle" x="177" y="-518.3" font-family="Times-Roman" font-size="14.00">PiR</text>
</g>
<!-- Cut1&#45;&gt;PiR1 -->
<g id="edge5" class="edge">
<title>Cut1&#45;&gt;PiR1</title>
<g id="a_edge5"><a xlink:title="hl1r">
<path fill="none" stroke="red" d="M177,-575.7C177,-567.98 177,-558.71 177,-550.11"/>
<polygon fill="red" stroke="red" points="180.5,-550.1 177,-540.1 173.5,-550.1 180.5,-550.1"/>
</a>
</g>
</g>
<!-- I3 -->
<g id="node16" class="node">
<title>I3</title>
<ellipse fill="none" stroke="black" cx="126" cy="-450" rx="27" ry="18"/>
<text text-anchor="middle" x="126" y="-446.3" font-family="Times-Roman" font-size="14.00">I</text>
</g>
<!-- PiR1&#45;&gt;I3 -->
<g id="edge41" class="edge">
<title>PiR1&#45;&gt;I3</title>
<g id="a_edge41"><a xlink:title="yr">
<path fill="none" stroke="red" d="M165.68,-505.46C159.08,-496.4 150.62,-484.79 143.2,-474.61"/>
<polygon fill="red" stroke="red" points="146,-472.51 137.29,-466.49 140.35,-476.64 146,-472.51"/>
</a>
</g>
</g>
<!-- PiL2 -->
<g id="node17" class="node">
<title>PiL2</title>
<ellipse fill="none" stroke="black" cx="126" cy="-378" rx="27" ry="18"/>
<text text-anchor="middle" x="126" y="-374.3" font-family="Times-Roman" font-size="14.00">PiL</text>
</g>
<!-- I3&#45;&gt;PiL2 -->
<g id="edge36" class="edge">
<title>I3&#45;&gt;PiL2</title>
<g id="a_edge36"><a xlink:title="yl">
<path fill="none" stroke="blue" d="M126,-421.67C126,-413.05 126,-403.79 126,-396.1"/>
<polygon fill="blue" stroke="blue" points="122.5,-421.7 126,-431.7 129.5,-421.7 122.5,-421.7"/>
</a>
</g>
</g>
<!-- !d2 -->
<g id="node18" class="node">
<title>!d2</title>
<ellipse fill="none" stroke="black" cx="126" cy="-306" rx="27" ry="18"/>
<text text-anchor="middle" x="126" y="-302.3" font-family="Times-Roman" font-size="14.00">!d</text>
</g>
<!-- PiL2&#45;&gt;!d2 -->
<g id="edge37" class="edge">
<title>PiL2&#45;&gt;!d2</title>
<g id="a_edge37"><a xlink:title="yl1">
<path fill="none" stroke="blue" d="M126,-349.67C126,-341.05 126,-331.79 126,-324.1"/>
<polygon fill="blue" stroke="blue" points="122.5,-349.7 126,-359.7 129.5,-349.7 122.5,-349.7"/>
</a>
</g>
</g>
<!-- !p2 -->
<g id="node20" class="node">
<title>!p2</title>
<ellipse fill="none" stroke="black" cx="54" cy="-306" rx="27" ry="18"/>
<text text-anchor="middle" x="54" y="-302.3" font-family="Times-Roman" font-size="14.00">!p</text>
</g>
<!-- PiL2&#45;&gt;!p2 -->
<g id="edge40" class="edge">
<title>PiL2&#45;&gt;!p2</title>
<g id="a_edge40"><a xlink:title="ylp">
<path fill="none" stroke="red" d="M111.43,-362.83C101.25,-352.94 87.48,-339.55 75.97,-328.36"/>
<polygon fill="red" stroke="red" points="78.41,-325.85 68.8,-321.38 73.53,-330.87 78.41,-325.85"/>
</a>
</g>
</g>
<!-- !c1 -->
<g id="node19" class="node">
<title>!c1</title>
<ellipse fill="none" stroke="black" cx="126" cy="-234" rx="27" ry="18"/>
<text text-anchor="middle" x="126" y="-230.3" font-family="Times-Roman" font-size="14.00">!c</text>
</g>
<!-- !d2&#45;&gt;!c1 -->
<g id="edge33" class="edge">
<title>!d2&#45;&gt;!c1</title>
<g id="a_edge33"><a xlink:title="y1">
<path fill="none" stroke="blue" d="M126,-277.67C126,-269.05 126,-259.79 126,-252.1"/>
<polygon fill="blue" stroke="blue" points="122.5,-277.7 126,-287.7 129.5,-277.7 122.5,-277.7"/>
</a>
</g>
</g>
<!-- !c1&#45;&gt;PiR1 -->
<g id="edge32" class="edge">
<title>!c1&#45;&gt;PiR1</title>
<g id="a_edge32"><a xlink:title="y">
<path fill="none" stroke="blue" d="M145.7,-258.2C152.04,-266.99 158.37,-277.43 162,-288 188.44,-365.07 182.61,-464.75 178.88,-504.03"/>
<polygon fill="blue" stroke="blue" points="148.3,-255.84 139.44,-250.03 142.74,-260.1 148.3,-255.84"/>
</a>
</g>
</g>
<!-- !p2&#45;&gt;!c1 -->
<g id="edge34" class="edge">
<title>!p2&#45;&gt;!c1</title>
<g id="a_edge34"><a xlink:title="y2">
<path fill="none" stroke="blue" d="M76.04,-283.57C87.45,-272.48 101.07,-259.24 111.2,-249.38"/>
<polygon fill="blue" stroke="blue" points="73.3,-281.35 68.57,-290.83 78.18,-286.37 73.3,-281.35"/>
</a>
</g>
</g>
<!-- I4 -->
<g id="node21" class="node">
<title>I4</title>
<ellipse fill="none" stroke="black" cx="54" cy="-234" rx="27" ry="18"/>
<text text-anchor="middle" x="54" y="-230.3" font-family="Times-Roman" font-size="14.00">I</text>
</g>
<!-- !p2&#45;&gt;I4 -->
<g id="edge39" class="edge">
<title>!p2&#45;&gt;I4</title>
<g id="a_edge39"><a xlink:title="yli">
<path fill="none" stroke="red" d="M54,-287.7C54,-279.98 54,-270.71 54,-262.11"/>
<polygon fill="red" stroke="red" points="57.5,-262.1 54,-252.1 50.5,-262.1 57.5,-262.1"/>
</a>
</g>
</g>
<!-- !d3 -->
<g id="node22" class="node">
<title>!d3</title>
<ellipse fill="none" stroke="black" cx="27" cy="-162" rx="27" ry="18"/>
<text text-anchor="middle" x="27" y="-158.3" font-family="Times-Roman" font-size="14.00">!d</text>
</g>
<!-- I4&#45;&gt;!d3 -->
<g id="edge38" class="edge">
<title>I4&#45;&gt;!d3</title>
<g id="a_edge38"><a xlink:title="yl2">
<path fill="none" stroke="blue" d="M43.99,-207.06C40.5,-198.01 36.68,-188.09 33.54,-179.96"/>
<polygon fill="blue" stroke="blue" points="40.74,-208.34 47.6,-216.41 47.27,-205.82 40.74,-208.34"/>
</a>
</g>
</g>
<!-- !d3&#45;&gt;!p2 -->
<g id="edge35" class="edge">
<title>!d3&#45;&gt;!p2</title>
<g id="a_edge35"><a xlink:title="yj">
<path fill="none" stroke="blue" d="M18.93,-189.59C14.77,-207.57 11.74,-231.65 18,-252 22.38,-266.25 32.04,-280.1 40.25,-290.07"/>
<polygon fill="blue" stroke="blue" points="22.35,-190.35 21.45,-179.79 15.57,-188.6 22.35,-190.35"/>
</a>
</g>
</g>
<!-- !p3&#45;&gt;PiR0 -->
<g id="edge1" class="edge">
<title>!p3&#45;&gt;PiR0</title>
<g id="a_edge1"><a xlink:title="h">
<path fill="none" stroke="blue" d="M246.19,-622.4C242.81,-654.48 236.73,-709.2 230,-756 228.27,-768.01 225.98,-781.49 224.14,-791.85"/>
<polygon fill="blue" stroke="blue" points="249.68,-622.74 247.24,-612.43 242.72,-622.01 249.68,-622.74"/>
</a>
</g>
</g>
<!-- I5 -->
<g id="node24" class="node">
<title>I5</title>
<ellipse fill="none" stroke="black" cx="299" cy="-522" rx="27" ry="18"/>
<text text-anchor="middle" x="299" y="-518.3" font-family="Times-Roman" font-size="14.00">I</text>
</g>
<!-- !p3&#45;&gt;I5 -->
<g id="edge12" class="edge">
<title>!p3&#45;&gt;I5</title>
<g id="a_edge12"><a xlink:title="hli">
<path fill="none" stroke="red" d="M260.1,-577.46C266.51,-568.49 274.7,-557.02 281.92,-546.92"/>
<polygon fill="red" stroke="red" points="284.97,-548.66 287.93,-538.49 279.27,-544.59 284.97,-548.66"/>
</a>
</g>
</g>
<!-- PiL3 -->
<g id="node25" class="node">
<title>PiL3</title>
<ellipse fill="none" stroke="black" cx="299" cy="-450" rx="27" ry="18"/>
<text text-anchor="middle" x="299" y="-446.3" font-family="Times-Roman" font-size="14.00">PiL</text>
</g>
<!-- I5&#45;&gt;PiL3 -->
<g id="edge6" class="edge">
<title>I5&#45;&gt;PiL3</title>
<g id="a_edge6"><a xlink:title="hl2">
<path fill="none" stroke="blue" d="M299,-493.67C299,-485.05 299,-475.79 299,-468.1"/>
<polygon fill="blue" stroke="blue" points="295.5,-493.7 299,-503.7 302.5,-493.7 295.5,-493.7"/>
</a>
</g>
</g>
<!-- !d4 -->
<g id="node26" class="node">
<title>!d4</title>
<ellipse fill="none" stroke="black" cx="244" cy="-378" rx="27" ry="18"/>
<text text-anchor="middle" x="244" y="-374.3" font-family="Times-Roman" font-size="14.00">!d</text>
</g>
<!-- PiL3&#45;&gt;!d4 -->
<g id="edge7" class="edge">
<title>PiL3&#45;&gt;!d4</title>
<g id="a_edge7"><a xlink:title="hl21">
<path fill="none" stroke="blue" d="M280.83,-425.87C272.63,-415.44 263.19,-403.42 255.91,-394.16"/>
<polygon fill="blue" stroke="blue" points="278.14,-428.11 287.07,-433.81 283.64,-423.79 278.14,-428.11"/>
</a>
</g>
</g>
<!-- !p4 -->
<g id="node27" class="node">
<title>!p4</title>
<ellipse fill="none" stroke="black" cx="316" cy="-378" rx="27" ry="18"/>
<text text-anchor="middle" x="316" y="-374.3" font-family="Times-Roman" font-size="14.00">!p</text>
</g>
<!-- PiL3&#45;&gt;!p4 -->
<g id="edge11" class="edge">
<title>PiL3&#45;&gt;!p4</title>
<g id="a_edge11"><a xlink:title="hl2p">
<path fill="none" stroke="red" d="M303.12,-432.05C305.01,-424.26 307.3,-414.82 309.42,-406.08"/>
<polygon fill="red" stroke="red" points="312.85,-406.82 311.8,-396.28 306.04,-405.17 312.85,-406.82"/>
</a>
</g>
</g>
<!-- !d4&#45;&gt;!p3 -->
<g id="edge2" class="edge">
<title>!d4&#45;&gt;!p3</title>
<g id="a_edge2"><a xlink:title="hj">
<path fill="none" stroke="blue" d="M244.64,-406.39C245.69,-451.18 247.73,-538.83 248.6,-575.85"/>
<polygon fill="blue" stroke="blue" points="248.14,-406.15 244.4,-396.23 241.14,-406.31 248.14,-406.15"/>
</a>
</g>
</g>
<!-- I6 -->
<g id="node28" class="node">
<title>I6</title>
<ellipse fill="none" stroke="black" cx="316" cy="-306" rx="27" ry="18"/>
<text text-anchor="middle" x="316" y="-302.3" font-family="Times-Roman" font-size="14.00">I</text>
</g>
<!-- !p4&#45;&gt;I6 -->
<g id="edge10" class="edge">
<title>!p4&#45;&gt;I6</title>
<g id="a_edge10"><a xlink:title="hl2i">
<path fill="none" stroke="red" d="M316,-359.7C316,-351.98 316,-342.71 316,-334.11"/>
<polygon fill="red" stroke="red" points="319.5,-334.1 316,-324.1 312.5,-334.1 319.5,-334.1"/>
</a>
</g>
</g>
<!-- Cut2 -->
<g id="node29" class="node">
<title>Cut2</title>
<ellipse fill="none" stroke="black" cx="316" cy="-234" rx="27" ry="18"/>
<text text-anchor="middle" x="316" y="-230.3" font-family="Times-Roman" font-size="14.00">Cut</text>
</g>
<!-- I6&#45;&gt;Cut2 -->
<g id="edge8" class="edge">
<title>I6&#45;&gt;Cut2</title>
<g id="a_edge8"><a xlink:title="hl22">
<path fill="none" stroke="blue" d="M316,-277.67C316,-269.05 316,-259.79 316,-252.1"/>
<polygon fill="blue" stroke="blue" points="312.5,-277.7 316,-287.7 319.5,-277.7 312.5,-277.7"/>
</a>
</g>
</g>
<!-- PiR2 -->
<g id="node30" class="node">
<title>PiR2</title>
<ellipse fill="none" stroke="black" cx="316" cy="-162" rx="27" ry="18"/>
<text text-anchor="middle" x="316" y="-158.3" font-family="Times-Roman" font-size="14.00">PiR</text>
</g>
<!-- Cut2&#45;&gt;PiR2 -->
<g id="edge9" class="edge">
<title>Cut2&#45;&gt;PiR2</title>
<g id="a_edge9"><a xlink:title="hl22r">
<path fill="none" stroke="red" d="M316,-215.7C316,-207.98 316,-198.71 316,-190.11"/>
<polygon fill="red" stroke="red" points="319.5,-190.1 316,-180.1 312.5,-190.1 319.5,-190.1"/>
</a>
</g>
</g>
<!-- I7 -->
<g id="node31" class="node">
<title>I7</title>
<ellipse fill="none" stroke="black" cx="288" cy="-90" rx="27" ry="18"/>
<text text-anchor="middle" x="288" y="-86.3" font-family="Times-Roman" font-size="14.00">I</text>
</g>
<!-- PiR2&#45;&gt;I7 -->
<g id="edge17" class="edge">
<title>PiR2&#45;&gt;I7</title>
<g id="a_edge17"><a xlink:title="ir">
<path fill="none" stroke="red" d="M309.36,-144.41C306.09,-136.22 302.06,-126.14 298.38,-116.95"/>
<polygon fill="red" stroke="red" points="301.55,-115.45 294.59,-107.47 295.05,-118.05 301.55,-115.45"/>
</a>
</g>
</g>
<!-- !d5 -->
<g id="node32" class="node">
<title>!d5</title>
<ellipse fill="none" stroke="black" cx="315" cy="-18" rx="27" ry="18"/>
<text text-anchor="middle" x="315" y="-14.3" font-family="Times-Roman" font-size="14.00">!d</text>
</g>
<!-- I7&#45;&gt;!d5 -->
<g id="edge16" class="edge">
<title>I7&#45;&gt;!d5</title>
<g id="a_edge16"><a xlink:title="il">
<path fill="none" stroke="blue" d="M298.01,-63.06C301.5,-54.01 305.32,-44.09 308.46,-35.96"/>
<polygon fill="blue" stroke="blue" points="294.73,-61.82 294.4,-72.41 301.26,-64.34 294.73,-61.82"/>
</a>
</g>
</g>
<!-- !d5&#45;&gt;PiR2 -->
<g id="edge15" class="edge">
<title>!d5&#45;&gt;PiR2</title>
<g id="a_edge15"><a xlink:title="i">
<path fill="none" stroke="blue" d="M320.49,-46.01C321.93,-54.31 323.28,-63.5 324,-72 325.34,-87.94 325.2,-92.04 324,-108 323.09,-120.06 321.05,-133.54 319.25,-143.89"/>
<polygon fill="blue" stroke="blue" points="323.91,-45.29 318.65,-36.09 317.03,-46.56 323.91,-45.29"/>
</a>
</g>
</g>
<!-- Cut3&#45;&gt;!p1 -->
<g id="edge21" class="edge">
<title>Cut3&#45;&gt;!p1</title>
<g id="a_edge21"><a xlink:title="retp">
<path fill="none" stroke="red" d="M221,-1079.81C221,-1071.45 221,-1062.41 221,-1054.21"/>
<polygon fill="red" stroke="red" points="224.5,-1054.05 221,-1044.05 217.5,-1054.05 224.5,-1054.05"/>
</a>
</g>
</g>
<!-- I8&#45;&gt;PiL0 -->
<g id="edge27" class="edge">
<title>I8&#45;&gt;PiL0</title>
<g id="a_edge27"><a xlink:title="xl">
<path fill="none" stroke="blue" stroke-width="2" d="M249,-1382.96C249,-1374.35 249,-1365.09 249,-1357.4"/>
<polygon fill="blue" stroke="blue" stroke-width="2" points="245.5,-1382.99 249,-1392.99 252.5,-1382.99 245.5,-1382.99"/>
</a>
</g>
</g>
</g>
</svg>
