<?xml version="1.0" encoding="UTF-8" standalone="no"?>
<!DOCTYPE svg PUBLIC "-//W3C//DTD SVG 1.1//EN"
 "http://www.w3.org/Graphics/SVG/1.1/DTD/svg11.dtd">
<!-- Generated by graphviz version 2.43.0 (0)
 -->
<!-- Title: %3 Pages: 1 -->
<svg width="377pt" height="1658pt"
 viewBox="0.00 0.00 377.00 1658.49" xmlns="http://www.w3.org/2000/svg" xmlns:xlink="http://www.w3.org/1999/xlink">
<g id="graph0" class="graph" transform="scale(1 1) rotate(0) translate(4 1654.49)">
<title>%3</title>
<polygon fill="white" stroke="transparent" points="-4,4 -4,-1654.49 373,-1654.49 373,4 -4,4"/>
<!-- Root0 -->
<g id="node1" class="node">
<title>Root0</title>
<ellipse fill="none" stroke="black" cx="297" cy="-1632.49" rx="30.59" ry="18"/>
<text text-anchor="middle" x="297" y="-1628.79" font-family="Times-Roman" font-size="14.00">Root</text>
</g>
<!-- I0 -->
<g id="node2" class="node">
<title>I0</title>
<ellipse fill="none" stroke="black" cx="297" cy="-1560.49" rx="27" ry="18"/>
<text text-anchor="middle" x="297" y="-1556.79" font-family="Times-Roman" font-size="14.00">I</text>
</g>
<!-- Root0&#45;&gt;I0 -->
<g id="edge46" class="edge">
<title>Root0&#45;&gt;I0</title>
<g id="a_edge46"><a xlink:title="rettop">
<path fill="none" stroke="red" stroke-width="2" d="M297,-1614.19C297,-1606.48 297,-1597.21 297,-1588.61"/>
<polygon fill="red" stroke="red" stroke-width="2" points="300.5,-1588.6 297,-1578.6 293.5,-1588.6 300.5,-1588.6"/>
</a>
</g>
</g>
<!-- PiL2 -->
<g id="node24" class="node">
<title>PiL2</title>
<ellipse fill="none" stroke="black" cx="297" cy="-1488.49" rx="27" ry="18"/>
<text text-anchor="middle" x="297" y="-1484.79" font-family="Times-Roman" font-size="14.00">PiL</text>
</g>
<!-- I0&#45;&gt;PiL2 -->
<g id="edge11" class="edge">
<title>I0&#45;&gt;PiL2</title>
<g id="a_edge11"><a xlink:title="e32">
<path fill="none" stroke="blue" stroke-width="2" d="M297,-1532.16C297,-1523.55 297,-1514.29 297,-1506.6"/>
<polygon fill="blue" stroke="blue" stroke-width="2" points="293.5,-1532.19 297,-1542.19 300.5,-1532.19 293.5,-1532.19"/>
</a>
</g>
</g>
<!-- !p0 -->
<g id="node3" class="node">
<title>!p0</title>
<ellipse fill="none" stroke="black" cx="161" cy="-1056.49" rx="27" ry="18"/>
<text text-anchor="middle" x="161" y="-1052.79" font-family="Times-Roman" font-size="14.00">!p</text>
</g>
<!-- PiR0 -->
<g id="node5" class="node">
<title>PiR0</title>
<ellipse fill="none" stroke="black" cx="150" cy="-984.49" rx="27" ry="18"/>
<text text-anchor="middle" x="150" y="-980.79" font-family="Times-Roman" font-size="14.00">PiR</text>
</g>
<!-- !p0&#45;&gt;PiR0 -->
<g id="edge14" class="edge">
<title>!p0&#45;&gt;PiR0</title>
<g id="a_edge14"><a xlink:title="e39">
<path fill="none" stroke="red" d="M158.34,-1038.55C157.13,-1030.84 155.66,-1021.52 154.3,-1012.86"/>
<polygon fill="red" stroke="red" points="157.72,-1012.11 152.71,-1002.77 150.81,-1013.19 157.72,-1012.11"/>
</a>
</g>
</g>
<!-- Cut0 -->
<g id="node4" class="node">
<title>Cut0</title>
<ellipse fill="none" stroke="black" cx="207" cy="-1128.49" rx="27" ry="18"/>
<text text-anchor="middle" x="207" y="-1124.79" font-family="Times-Roman" font-size="14.00">Cut</text>
</g>
<!-- Cut0&#45;&gt;!p0 -->
<g id="edge13" class="edge">
<title>Cut0&#45;&gt;!p0</title>
<g id="a_edge13"><a xlink:title="e37">
<path fill="none" stroke="red" d="M196.56,-1111.61C190.8,-1102.84 183.52,-1091.76 177.04,-1081.91"/>
<polygon fill="red" stroke="red" points="179.81,-1079.75 171.4,-1073.32 173.96,-1083.6 179.81,-1079.75"/>
</a>
</g>
</g>
<!-- I1 -->
<g id="node10" class="node">
<title>I1</title>
<ellipse fill="none" stroke="black" cx="150" cy="-912.49" rx="27" ry="18"/>
<text text-anchor="middle" x="150" y="-908.79" font-family="Times-Roman" font-size="14.00">I</text>
</g>
<!-- PiR0&#45;&gt;I1 -->
<g id="edge16" class="edge">
<title>PiR0&#45;&gt;I1</title>
<g id="a_edge16"><a xlink:title="e43">
<path fill="none" stroke="red" d="M150,-966.19C150,-958.48 150,-949.21 150,-940.61"/>
<polygon fill="red" stroke="red" points="153.5,-940.6 150,-930.6 146.5,-940.6 153.5,-940.6"/>
</a>
</g>
</g>
<!-- !c0 -->
<g id="node6" class="node">
<title>!c0</title>
<ellipse fill="none" stroke="black" cx="38" cy="-306" rx="27" ry="18"/>
<text text-anchor="middle" x="38" y="-302.3" font-family="Times-Roman" font-size="14.00">!c</text>
</g>
<!-- !c0&#45;&gt;PiR0 -->
<g id="edge15" class="edge">
<title>!c0&#45;&gt;PiR0</title>
<g id="a_edge15"><a xlink:title="e41">
<path fill="none" stroke="blue" d="M26.6,-333.14C15.4,-361.22 0,-407.41 0,-449 0,-841.49 0,-841.49 0,-841.49 0,-910.7 85.26,-956.27 127.22,-974.5"/>
<polygon fill="blue" stroke="blue" points="29.93,-334.24 30.49,-323.66 23.45,-331.58 29.93,-334.24"/>
</a>
</g>
</g>
<!-- !d0 -->
<g id="node7" class="node">
<title>!d0</title>
<ellipse fill="none" stroke="black" cx="61" cy="-624.49" rx="27" ry="18"/>
<text text-anchor="middle" x="61" y="-620.79" font-family="Times-Roman" font-size="14.00">!d</text>
</g>
<!-- !d0&#45;&gt;!c0 -->
<g id="edge18" class="edge">
<title>!d0&#45;&gt;!c0</title>
<g id="a_edge18"><a xlink:title="e46">
<path fill="none" stroke="blue" d="M59.03,-596.45C54.43,-533.02 43.03,-376.16 39.24,-324.1"/>
<polygon fill="blue" stroke="blue" points="55.55,-596.76 59.76,-606.48 62.53,-596.25 55.55,-596.76"/>
</a>
</g>
</g>
<!-- PiL0 -->
<g id="node8" class="node">
<title>PiL0</title>
<ellipse fill="none" stroke="black" cx="144" cy="-768.49" rx="27" ry="18"/>
<text text-anchor="middle" x="144" y="-764.79" font-family="Times-Roman" font-size="14.00">PiL</text>
</g>
<!-- PiL0&#45;&gt;!d0 -->
<g id="edge20" class="edge">
<title>PiL0&#45;&gt;!d0</title>
<g id="a_edge20"><a xlink:title="e49">
<path fill="none" stroke="blue" d="M126.94,-743.59C120.75,-734.61 113.85,-724.22 108,-714.49 93.15,-689.78 77.91,-659.95 68.96,-641.87"/>
<polygon fill="blue" stroke="blue" points="124.23,-745.82 132.82,-752.02 129.97,-741.82 124.23,-745.82"/>
</a>
</g>
</g>
<!-- !p3 -->
<g id="node20" class="node">
<title>!p3</title>
<ellipse fill="none" stroke="black" cx="144" cy="-696.49" rx="27" ry="18"/>
<text text-anchor="middle" x="144" y="-692.79" font-family="Times-Roman" font-size="14.00">!p</text>
</g>
<!-- PiL0&#45;&gt;!p3 -->
<g id="edge22" class="edge">
<title>PiL0&#45;&gt;!p3</title>
<g id="a_edge22"><a xlink:title="e53">
<path fill="none" stroke="red" d="M144,-750.19C144,-742.48 144,-733.21 144,-724.61"/>
<polygon fill="red" stroke="red" points="147.5,-724.6 144,-714.6 140.5,-724.6 147.5,-724.6"/>
</a>
</g>
</g>
<!-- PiL1 -->
<g id="node9" class="node">
<title>PiL1</title>
<ellipse fill="none" stroke="black" cx="150" cy="-840.49" rx="27" ry="18"/>
<text text-anchor="middle" x="150" y="-836.79" font-family="Times-Roman" font-size="14.00">PiL</text>
</g>
<!-- PiL1&#45;&gt;PiL0 -->
<g id="edge21" class="edge">
<title>PiL1&#45;&gt;PiL0</title>
<g id="a_edge21"><a xlink:title="e51">
<path fill="none" stroke="blue" d="M147.66,-812.16C146.92,-803.55 146.12,-794.29 145.47,-786.6"/>
<polygon fill="blue" stroke="blue" points="144.18,-812.53 148.52,-822.19 151.15,-811.93 144.18,-812.53"/>
</a>
</g>
</g>
<!-- !p5 -->
<g id="node26" class="node">
<title>!p5</title>
<ellipse fill="none" stroke="black" cx="222" cy="-768.49" rx="27" ry="18"/>
<text text-anchor="middle" x="222" y="-764.79" font-family="Times-Roman" font-size="14.00">!p</text>
</g>
<!-- PiL1&#45;&gt;!p5 -->
<g id="edge24" class="edge">
<title>PiL1&#45;&gt;!p5</title>
<g id="a_edge24"><a xlink:title="e57">
<path fill="none" stroke="red" d="M164.57,-825.33C174.75,-815.43 188.52,-802.04 200.03,-790.85"/>
<polygon fill="red" stroke="red" points="202.47,-793.36 207.2,-783.88 197.59,-788.34 202.47,-793.36"/>
</a>
</g>
</g>
<!-- I1&#45;&gt;PiL1 -->
<g id="edge23" class="edge">
<title>I1&#45;&gt;PiL1</title>
<g id="a_edge23"><a xlink:title="e55">
<path fill="none" stroke="blue" d="M150,-884.16C150,-875.55 150,-866.29 150,-858.6"/>
<polygon fill="blue" stroke="blue" points="146.5,-884.19 150,-894.19 153.5,-884.19 146.5,-884.19"/>
</a>
</g>
</g>
<!-- !p1 -->
<g id="node11" class="node">
<title>!p1</title>
<ellipse fill="none" stroke="black" cx="296" cy="-234" rx="27" ry="18"/>
<text text-anchor="middle" x="296" y="-230.3" font-family="Times-Roman" font-size="14.00">!p</text>
</g>
<!-- PiR1 -->
<g id="node14" class="node">
<title>PiR1</title>
<ellipse fill="none" stroke="black" cx="296" cy="-162" rx="27" ry="18"/>
<text text-anchor="middle" x="296" y="-158.3" font-family="Times-Roman" font-size="14.00">PiR</text>
</g>
<!-- !p1&#45;&gt;PiR1 -->
<g id="edge25" class="edge">
<title>!p1&#45;&gt;PiR1</title>
<g id="a_edge25"><a xlink:title="e59">
<path fill="none" stroke="red" d="M296,-215.7C296,-207.98 296,-198.71 296,-190.11"/>
<polygon fill="red" stroke="red" points="299.5,-190.1 296,-180.1 292.5,-190.1 299.5,-190.1"/>
</a>
</g>
</g>
<!-- !p2 -->
<g id="node12" class="node">
<title>!p2</title>
<ellipse fill="none" stroke="black" cx="222" cy="-234" rx="27" ry="18"/>
<text text-anchor="middle" x="222" y="-230.3" font-family="Times-Roman" font-size="14.00">!p</text>
</g>
<!-- PiR2 -->
<g id="node15" class="node">
<title>PiR2</title>
<ellipse fill="none" stroke="black" cx="222" cy="-162" rx="27" ry="18"/>
<text text-anchor="middle" x="222" y="-158.3" font-family="Times-Roman" font-size="14.00">PiR</text>
</g>
<!-- !p2&#45;&gt;PiR2 -->
<g id="edge27" class="edge">
<title>!p2&#45;&gt;PiR2</title>
<g id="a_edge27"><a xlink:title="e65">
<path fill="none" stroke="red" d="M222,-215.7C222,-207.98 222,-198.71 222,-190.11"/>
<polygon fill="red" stroke="red" points="225.5,-190.1 222,-180.1 218.5,-190.1 225.5,-190.1"/>
</a>
</g>
</g>
<!-- Cut1 -->
<g id="node13" class="node">
<title>Cut1</title>
<ellipse fill="none" stroke="black" cx="222" cy="-306" rx="27" ry="18"/>
<text text-anchor="middle" x="222" y="-302.3" font-family="Times-Roman" font-size="14.00">Cut</text>
</g>
<!-- Cut1&#45;&gt;!p2 -->
<g id="edge26" class="edge">
<title>Cut1&#45;&gt;!p2</title>
<g id="a_edge26"><a xlink:title="e63">
<path fill="none" stroke="red" d="M222,-287.7C222,-279.98 222,-270.71 222,-262.11"/>
<polygon fill="red" stroke="red" points="225.5,-262.1 222,-252.1 218.5,-262.1 225.5,-262.1"/>
</a>
</g>
</g>
<!-- I2 -->
<g id="node17" class="node">
<title>I2</title>
<ellipse fill="none" stroke="black" cx="342" cy="-90" rx="27" ry="18"/>
<text text-anchor="middle" x="342" y="-86.3" font-family="Times-Roman" font-size="14.00">I</text>
</g>
<!-- PiR1&#45;&gt;I2 -->
<g id="edge29" class="edge">
<title>PiR1&#45;&gt;I2</title>
<g id="a_edge29"><a xlink:title="e69">
<path fill="none" stroke="red" d="M306.44,-145.12C312.2,-136.34 319.48,-125.26 325.96,-115.42"/>
<polygon fill="red" stroke="red" points="329.04,-117.1 331.6,-106.82 323.19,-113.26 329.04,-117.1"/>
</a>
</g>
</g>
<!-- I3 -->
<g id="node19" class="node">
<title>I3</title>
<ellipse fill="none" stroke="black" cx="227" cy="-90" rx="27" ry="18"/>
<text text-anchor="middle" x="227" y="-86.3" font-family="Times-Roman" font-size="14.00">I</text>
</g>
<!-- PiR2&#45;&gt;I3 -->
<g id="edge31" class="edge">
<title>PiR2&#45;&gt;I3</title>
<g id="a_edge31"><a xlink:title="e77">
<path fill="none" stroke="red" d="M223.24,-143.7C223.79,-135.98 224.45,-126.71 225.06,-118.11"/>
<polygon fill="red" stroke="red" points="228.56,-118.33 225.78,-108.1 221.57,-117.83 228.56,-118.33"/>
</a>
</g>
</g>
<!-- !d1 -->
<g id="node16" class="node">
<title>!d1</title>
<ellipse fill="none" stroke="black" cx="303" cy="-18" rx="27" ry="18"/>
<text text-anchor="middle" x="303" y="-14.3" font-family="Times-Roman" font-size="14.00">!d</text>
</g>
<!-- !d1&#45;&gt;PiR1 -->
<g id="edge28" class="edge">
<title>!d1&#45;&gt;PiR1</title>
<g id="a_edge28"><a xlink:title="e67">
<path fill="none" stroke="blue" d="M301.65,-46.39C300.23,-75.21 298.04,-119.67 296.84,-143.87"/>
<polygon fill="blue" stroke="blue" points="305.16,-46.35 302.15,-36.19 298.16,-46 305.16,-46.35"/>
</a>
</g>
</g>
<!-- I2&#45;&gt;!d1 -->
<g id="edge32" class="edge">
<title>I2&#45;&gt;!d1</title>
<g id="a_edge32"><a xlink:title="e79">
<path fill="none" stroke="blue" d="M328.07,-64C322.72,-54.4 316.76,-43.7 312,-35.15"/>
<polygon fill="blue" stroke="blue" points="325.03,-65.73 332.95,-72.76 331.15,-62.33 325.03,-65.73"/>
</a>
</g>
</g>
<!-- !d2 -->
<g id="node18" class="node">
<title>!d2</title>
<ellipse fill="none" stroke="black" cx="210" cy="-18" rx="27" ry="18"/>
<text text-anchor="middle" x="210" y="-14.3" font-family="Times-Roman" font-size="14.00">!d</text>
</g>
<!-- !d2&#45;&gt;PiR2 -->
<g id="edge30" class="edge">
<title>!d2&#45;&gt;PiR2</title>
<g id="a_edge30"><a xlink:title="e75">
<path fill="none" stroke="blue" d="M198.06,-44.66C191.31,-62.54 185.27,-86.87 191,-108 194.74,-121.79 203.05,-135.66 210.13,-145.76"/>
<polygon fill="blue" stroke="blue" points="201.38,-45.79 201.92,-35.2 194.9,-43.14 201.38,-45.79"/>
</a>
</g>
</g>
<!-- I3&#45;&gt;!d2 -->
<g id="edge33" class="edge">
<title>I3&#45;&gt;!d2</title>
<g id="a_edge33"><a xlink:title="e83">
<path fill="none" stroke="blue" d="M220.51,-62.29C218.39,-53.57 216.1,-44.12 214.2,-36.28"/>
<polygon fill="blue" stroke="blue" points="217.12,-63.16 222.88,-72.05 223.93,-61.51 217.12,-63.16"/>
</a>
</g>
</g>
<!-- PiR3 -->
<g id="node21" class="node">
<title>PiR3</title>
<ellipse fill="none" stroke="black" cx="144" cy="-624.49" rx="27" ry="18"/>
<text text-anchor="middle" x="144" y="-620.79" font-family="Times-Roman" font-size="14.00">PiR</text>
</g>
<!-- !p3&#45;&gt;PiR3 -->
<g id="edge34" class="edge">
<title>!p3&#45;&gt;PiR3</title>
<g id="a_edge34"><a xlink:title="e85">
<path fill="none" stroke="red" d="M144,-678.19C144,-670.48 144,-661.21 144,-652.61"/>
<polygon fill="red" stroke="red" points="147.5,-652.6 144,-642.6 140.5,-652.6 147.5,-652.6"/>
</a>
</g>
</g>
<!-- I4 -->
<g id="node23" class="node">
<title>I4</title>
<ellipse fill="none" stroke="black" cx="94" cy="-537.25" rx="27" ry="18"/>
<text text-anchor="middle" x="94" y="-533.55" font-family="Times-Roman" font-size="14.00">I</text>
</g>
<!-- PiR3&#45;&gt;I4 -->
<g id="edge36" class="edge">
<title>PiR3&#45;&gt;I4</title>
<g id="a_edge36"><a xlink:title="e89">
<path fill="none" stroke="red" d="M134.6,-607.46C127.26,-594.96 116.95,-577.37 108.55,-563.06"/>
<polygon fill="red" stroke="red" points="111.44,-561.06 103.36,-554.21 105.4,-564.61 111.44,-561.06"/>
</a>
</g>
</g>
<!-- !d3 -->
<g id="node22" class="node">
<title>!d3</title>
<ellipse fill="none" stroke="black" cx="95" cy="-450" rx="27" ry="18"/>
<text text-anchor="middle" x="95" y="-446.3" font-family="Times-Roman" font-size="14.00">!d</text>
</g>
<!-- !d3&#45;&gt;PiR3 -->
<g id="edge35" class="edge">
<title>!d3&#45;&gt;PiR3</title>
<g id="a_edge35"><a xlink:title="e87">
<path fill="none" stroke="blue" d="M113.85,-474.39C119.99,-483.19 126.2,-493.59 130,-504 142.68,-538.73 144.52,-582.56 144.45,-606.3"/>
<polygon fill="blue" stroke="blue" points="116.56,-472.17 107.82,-466.18 110.92,-476.31 116.56,-472.17"/>
</a>
</g>
</g>
<!-- I4&#45;&gt;!d3 -->
<g id="edge38" class="edge">
<title>I4&#45;&gt;!d3</title>
<g id="a_edge38"><a xlink:title="e91">
<path fill="none" stroke="blue" d="M94.32,-508.9C94.48,-495.55 94.66,-479.89 94.8,-468.23"/>
<polygon fill="blue" stroke="blue" points="90.82,-508.96 94.2,-519 97.82,-509.04 90.82,-508.96"/>
</a>
</g>
</g>
<!-- !p4 -->
<g id="node25" class="node">
<title>!p4</title>
<ellipse fill="none" stroke="black" cx="270" cy="-1416.49" rx="27" ry="18"/>
<text text-anchor="middle" x="270" y="-1412.79" font-family="Times-Roman" font-size="14.00">!p</text>
</g>
<!-- PiL2&#45;&gt;!p4 -->
<g id="edge12" class="edge">
<title>PiL2&#45;&gt;!p4</title>
<g id="a_edge12"><a xlink:title="e34">
<path fill="none" stroke="red" d="M290.6,-1470.91C287.49,-1462.83 283.67,-1452.93 280.17,-1443.85"/>
<polygon fill="red" stroke="red" points="283.4,-1442.52 276.54,-1434.45 276.87,-1445.04 283.4,-1442.52"/>
</a>
</g>
</g>
<!-- Cut2 -->
<g id="node27" class="node">
<title>Cut2</title>
<ellipse fill="none" stroke="black" cx="334" cy="-1344.49" rx="27" ry="18"/>
<text text-anchor="middle" x="334" y="-1340.79" font-family="Times-Roman" font-size="14.00">Cut</text>
</g>
<!-- PiL2&#45;&gt;Cut2 -->
<g id="edge37" class="edge">
<title>PiL2&#45;&gt;Cut2</title>
<g id="a_edge37"><a xlink:title="e90">
<path fill="none" stroke="blue" stroke-width="2" d="M303.95,-1460.8C311.49,-1431.89 323.28,-1386.65 329.62,-1362.32"/>
<polygon fill="blue" stroke="blue" stroke-width="2" points="300.52,-1460.09 301.39,-1470.65 307.3,-1461.85 300.52,-1460.09"/>
</a>
</g>
</g>
<!-- I5 -->
<g id="node30" class="node">
<title>I5</title>
<ellipse fill="none" stroke="black" cx="262" cy="-1344.49" rx="27" ry="18"/>
<text text-anchor="middle" x="262" y="-1340.79" font-family="Times-Roman" font-size="14.00">I</text>
</g>
<!-- !p4&#45;&gt;I5 -->
<g id="edge39" class="edge">
<title>!p4&#45;&gt;I5</title>
<g id="a_edge39"><a xlink:title="e92">
<path fill="none" stroke="red" d="M268.02,-1398.19C267.14,-1390.48 266.08,-1381.21 265.1,-1372.61"/>
<polygon fill="red" stroke="red" points="268.57,-1372.14 263.95,-1362.6 261.61,-1372.93 268.57,-1372.14"/>
</a>
</g>
</g>
<!-- Dup3_0 -->
<g id="node37" class="node">
<title>Dup3_0</title>
<ellipse fill="none" stroke="black" cx="229" cy="-696.49" rx="29.5" ry="18"/>
<text text-anchor="middle" x="229" y="-692.79" font-family="Times-Roman" font-size="14.00">Dup</text>
</g>
<!-- !p5&#45;&gt;Dup3_0 -->
<g id="edge42" class="edge">
<title>!p5&#45;&gt;Dup3_0</title>
<g id="a_edge42"><a xlink:title="e95">
<path fill="none" stroke="red" d="M223.73,-750.19C224.56,-741.88 225.57,-731.77 226.49,-722.64"/>
<ellipse fill="none" stroke="red" cx="226.89" cy="-718.58" rx="4" ry="4"/>
</a>
</g>
</g>
<!-- Cut2&#45;&gt;Dup3_0 -->
<g id="edge41" class="edge">
<title>Cut2&#45;&gt;Dup3_0</title>
<g id="a_edge41"><a xlink:title="e94">
<path fill="none" stroke="red" stroke-width="2" d="M334,-1326.45C334,-1299.79 334,-1246.61 334,-1201.49 334,-1201.49 334,-1201.49 334,-839.49 334,-786.19 285.58,-739.8 254.5,-715.51"/>
<ellipse fill="red" stroke="red" stroke-width="2" cx="250.95" cy="-712.81" rx="4" ry="4"/>
</a>
</g>
</g>
<!-- !d4 -->
<g id="node28" class="node">
<title>!d4</title>
<ellipse fill="none" stroke="black" cx="230" cy="-1200.49" rx="27" ry="18"/>
<text text-anchor="middle" x="230" y="-1196.79" font-family="Times-Roman" font-size="14.00">!d</text>
</g>
<!-- !d4&#45;&gt;Cut0 -->
<g id="edge10" class="edge">
<title>!d4&#45;&gt;Cut0</title>
<g id="a_edge10"><a xlink:title="e23">
<path fill="none" stroke="blue" d="M221.27,-1172.92C218.33,-1163.98 215.14,-1154.26 212.52,-1146.28"/>
<polygon fill="blue" stroke="blue" points="217.99,-1174.14 224.43,-1182.55 224.64,-1171.96 217.99,-1174.14"/>
</a>
</g>
</g>
<!-- PiL3 -->
<g id="node29" class="node">
<title>PiL3</title>
<ellipse fill="none" stroke="black" cx="262" cy="-1272.49" rx="27" ry="18"/>
<text text-anchor="middle" x="262" y="-1268.79" font-family="Times-Roman" font-size="14.00">PiL</text>
</g>
<!-- PiL3&#45;&gt;!d4 -->
<g id="edge43" class="edge">
<title>PiL3&#45;&gt;!d4</title>
<g id="a_edge43"><a xlink:title="e96">
<path fill="none" stroke="blue" d="M250.21,-1245.7C245.97,-1236.43 241.31,-1226.23 237.53,-1217.96"/>
<polygon fill="blue" stroke="blue" points="247.08,-1247.27 254.42,-1254.91 253.44,-1244.36 247.08,-1247.27"/>
</a>
</g>
</g>
<!-- Dup2_0 -->
<g id="node32" class="node">
<title>Dup2_0</title>
<ellipse fill="none" stroke="black" cx="296" cy="-306" rx="29.5" ry="18"/>
<text text-anchor="middle" x="296" y="-302.3" font-family="Times-Roman" font-size="14.00">Dup</text>
</g>
<!-- PiL3&#45;&gt;Dup2_0 -->
<g id="edge1" class="edge">
<title>PiL3&#45;&gt;Dup2_0</title>
<g id="a_edge1"><a xlink:title="e100">
<path fill="none" stroke="red" d="M268.72,-1254.76C278.63,-1228.51 296,-1175.88 296,-1129.49 296,-1129.49 296,-1129.49 296,-449 296,-408.11 296,-360.61 296,-332.22"/>
<ellipse fill="red" stroke="red" cx="296" cy="-328.05" rx="4" ry="4"/>
</a>
</g>
</g>
<!-- I5&#45;&gt;PiL3 -->
<g id="edge44" class="edge">
<title>I5&#45;&gt;PiL3</title>
<g id="a_edge44"><a xlink:title="e98">
<path fill="none" stroke="blue" d="M262,-1316.16C262,-1307.55 262,-1298.29 262,-1290.6"/>
<polygon fill="blue" stroke="blue" points="258.5,-1316.19 262,-1326.19 265.5,-1316.19 258.5,-1316.19"/>
</a>
</g>
</g>
<!-- I6 -->
<g id="node31" class="node">
<title>I6</title>
<ellipse fill="none" stroke="black" cx="229" cy="-624.49" rx="27" ry="18"/>
<text text-anchor="middle" x="229" y="-620.79" font-family="Times-Roman" font-size="14.00">I</text>
</g>
<!-- Dup3_1 -->
<g id="node38" class="node">
<title>Dup3_1</title>
<ellipse fill="none" stroke="black" cx="229" cy="-537.25" rx="29.47" ry="29.47"/>
<ellipse fill="none" stroke="black" cx="229" cy="-537.25" rx="33.5" ry="33.5"/>
<text text-anchor="middle" x="229" y="-533.55" font-family="Times-Roman" font-size="14.00">Dup</text>
</g>
<!-- I6&#45;&gt;Dup3_1 -->
<g id="edge45" class="edge">
<title>I6&#45;&gt;Dup3_1</title>
<g id="a_edge45"><a xlink:title="e99">
<path fill="none" stroke="blue" stroke-width="2" d="M229,-596.17C229,-588.05 229,-579.06 229,-570.65"/>
<polygon fill="blue" stroke="blue" stroke-width="2" points="225.5,-596.24 229,-606.24 232.5,-596.24 225.5,-596.24"/>
</a>
</g>
</g>
<!-- Dup2_0&#45;&gt;!p1 -->
<g id="edge9" class="edge">
<title>Dup2_0&#45;&gt;!p1</title>
<g id="a_edge9"><a xlink:title="e21">
<path fill="none" stroke="red" d="M296,-287.7C296,-279.98 296,-270.71 296,-262.11"/>
<polygon fill="red" stroke="red" points="299.5,-262.1 296,-252.1 292.5,-262.1 299.5,-262.1"/>
</a>
</g>
</g>
<!-- !d5 -->
<g id="node33" class="node">
<title>!d5</title>
<ellipse fill="none" stroke="black" cx="241" cy="-378" rx="27" ry="18"/>
<text text-anchor="middle" x="241" y="-374.3" font-family="Times-Roman" font-size="14.00">!d</text>
</g>
<!-- !d5&#45;&gt;Cut1 -->
<g id="edge17" class="edge">
<title>!d5&#45;&gt;Cut1</title>
<g id="a_edge17"><a xlink:title="e45">
<path fill="none" stroke="blue" d="M233.71,-350.14C231.3,-341.28 228.7,-331.68 226.56,-323.79"/>
<polygon fill="blue" stroke="blue" points="230.4,-351.32 236.4,-360.05 237.16,-349.49 230.4,-351.32"/>
</a>
</g>
</g>
<!-- !d6 -->
<g id="node34" class="node">
<title>!d6</title>
<ellipse fill="none" stroke="black" cx="93" cy="-378" rx="27" ry="18"/>
<text text-anchor="middle" x="93" y="-374.3" font-family="Times-Roman" font-size="14.00">!d</text>
</g>
<!-- !d6&#45;&gt;!c0 -->
<g id="edge19" class="edge">
<title>!d6&#45;&gt;!c0</title>
<g id="a_edge19"><a xlink:title="e47">
<path fill="none" stroke="blue" d="M74.83,-353.87C66.63,-343.44 57.19,-331.42 49.91,-322.16"/>
<polygon fill="blue" stroke="blue" points="72.14,-356.11 81.07,-361.81 77.64,-351.79 72.14,-356.11"/>
</a>
</g>
</g>
<!-- PiL4 -->
<g id="node35" class="node">
<title>PiL4</title>
<ellipse fill="none" stroke="black" cx="239" cy="-450" rx="27" ry="18"/>
<text text-anchor="middle" x="239" y="-446.3" font-family="Times-Roman" font-size="14.00">PiL</text>
</g>
<!-- PiL4&#45;&gt;!d5 -->
<g id="edge3" class="edge">
<title>PiL4&#45;&gt;!d5</title>
<g id="a_edge3"><a xlink:title="e102">
<path fill="none" stroke="blue" d="M239.78,-421.67C240.03,-413.05 240.29,-403.79 240.51,-396.1"/>
<polygon fill="blue" stroke="blue" points="236.28,-421.6 239.49,-431.7 243.28,-421.8 236.28,-421.6"/>
</a>
</g>
</g>
<!-- Dup3_2 -->
<g id="node39" class="node">
<title>Dup3_2</title>
<ellipse fill="none" stroke="black" cx="167" cy="-378" rx="29.5" ry="18"/>
<text text-anchor="middle" x="167" y="-374.3" font-family="Times-Roman" font-size="14.00">Dup</text>
</g>
<!-- PiL4&#45;&gt;Dup3_2 -->
<g id="edge7" class="edge">
<title>PiL4&#45;&gt;Dup3_2</title>
<g id="a_edge7"><a xlink:title="e106">
<path fill="none" stroke="red" d="M224.43,-434.83C213.93,-424.63 199.61,-410.71 187.9,-399.32"/>
<ellipse fill="red" stroke="red" cx="184.91" cy="-396.41" rx="4" ry="4"/>
</a>
</g>
</g>
<!-- PiL5 -->
<g id="node36" class="node">
<title>PiL5</title>
<ellipse fill="none" stroke="black" cx="167" cy="-450" rx="27" ry="18"/>
<text text-anchor="middle" x="167" y="-446.3" font-family="Times-Roman" font-size="14.00">PiL</text>
</g>
<!-- PiL5&#45;&gt;!d6 -->
<g id="edge4" class="edge">
<title>PiL5&#45;&gt;!d6</title>
<g id="a_edge4"><a xlink:title="e103">
<path fill="none" stroke="blue" d="M144.63,-427.84C132.75,-416.6 118.48,-403.1 107.95,-393.14"/>
<polygon fill="blue" stroke="blue" points="142.36,-430.51 152.02,-434.83 147.17,-425.42 142.36,-430.51"/>
</a>
</g>
</g>
<!-- PiL5&#45;&gt;Dup3_2 -->
<g id="edge8" class="edge">
<title>PiL5&#45;&gt;Dup3_2</title>
<g id="a_edge8"><a xlink:title="e107">
<path fill="none" stroke="red" d="M167,-431.7C167,-423.39 167,-413.28 167,-404.14"/>
<ellipse fill="none" stroke="red" cx="167" cy="-400.1" rx="4" ry="4"/>
</a>
</g>
</g>
<!-- Dup3_0&#45;&gt;I6 -->
<g id="edge40" class="edge">
<title>Dup3_0&#45;&gt;I6</title>
<g id="a_edge40"><a xlink:title="e93">
<path fill="none" stroke="red" stroke-width="2" d="M229,-678.19C229,-670.48 229,-661.21 229,-652.61"/>
<polygon fill="red" stroke="red" stroke-width="2" points="232.5,-652.6 229,-642.6 225.5,-652.6 232.5,-652.6"/>
</a>
</g>
</g>
<!-- Dup3_1&#45;&gt;PiL4 -->
<g id="edge5" class="edge">
<title>Dup3_1&#45;&gt;PiL4</title>
<g id="a_edge5"><a xlink:title="e104">
<path fill="none" stroke="blue" d="M233.74,-495.84C234.89,-486.01 236.06,-476.03 237.01,-467.98"/>
<ellipse fill="blue" stroke="blue" cx="233.25" cy="-500.05" rx="4" ry="4"/>
</a>
</g>
</g>
<!-- Dup3_1&#45;&gt;PiL5 -->
<g id="edge6" class="edge">
<title>Dup3_1&#45;&gt;PiL5</title>
<g id="a_edge6"><a xlink:title="e105">
<path fill="none" stroke="blue" d="M204.8,-502.97C195.75,-490.52 185.88,-476.96 178.5,-466.81"/>
<ellipse fill="none" stroke="blue" cx="207.37" cy="-506.51" rx="4" ry="4"/>
</a>
</g>
</g>
<!-- Dup3_2&#45;&gt;Dup2_0 -->
<g id="edge2" class="edge">
<title>Dup3_2&#45;&gt;Dup2_0</title>
<g id="a_edge2"><a xlink:title="e101">
<path fill="none" stroke="red" d="M188.3,-365.44C209.96,-353.69 243.65,-335.41 267.58,-322.42"/>
<ellipse fill="none" stroke="red" cx="271.15" cy="-320.48" rx="4" ry="4"/>
</a>
</g>
</g>
</g>
</svg>
