<?xml version="1.0" encoding="UTF-8" standalone="no"?>
<!DOCTYPE svg PUBLIC "-//W3C//DTD SVG 1.1//EN"
 "http://www.w3.org/Graphics/SVG/1.1/DTD/svg11.dtd">
<!-- Generated by graphviz version 2.43.0 (0)
 -->
<!-- Title: %3 Pages: 1 -->
<svg width="219pt" height="1370pt"
 viewBox="0.00 0.00 219.25 1370.49" xmlns="http://www.w3.org/2000/svg" xmlns:xlink="http://www.w3.org/1999/xlink">
<g id="graph0" class="graph" transform="scale(1 1) rotate(0) translate(4 1366.49)">
<title>%3</title>
<polygon fill="white" stroke="transparent" points="-4,4 -4,-1366.49 215.25,-1366.49 215.25,4 -4,4"/>
<!-- Root0 -->
<g id="node1" class="node">
<title>Root0</title>
<ellipse fill="none" stroke="black" cx="145" cy="-1344.49" rx="30.59" ry="18"/>
<text text-anchor="middle" x="145" y="-1340.79" font-family="Times-Roman" font-size="14.00">Root</text>
</g>
<!-- I4 -->
<g id="node17" class="node">
<title>I4</title>
<ellipse fill="none" stroke="black" cx="145" cy="-1272.49" rx="27" ry="18"/>
<text text-anchor="middle" x="145" y="-1268.79" font-family="Times-Roman" font-size="14.00">I</text>
</g>
<!-- Root0&#45;&gt;I4 -->
<g id="edge27" class="edge">
<title>Root0&#45;&gt;I4</title>
<g id="a_edge27"><a xlink:title="rettop">
<path fill="none" stroke="red" stroke-width="2" d="M145,-1326.19C145,-1318.48 145,-1309.21 145,-1300.61"/>
<polygon fill="red" stroke="red" stroke-width="2" points="148.5,-1300.6 145,-1290.6 141.5,-1300.6 148.5,-1300.6"/>
</a>
</g>
</g>
<!-- PiL0 -->
<g id="node2" class="node">
<title>PiL0</title>
<ellipse fill="none" stroke="black" cx="145" cy="-1200.49" rx="27" ry="18"/>
<text text-anchor="middle" x="145" y="-1196.79" font-family="Times-Roman" font-size="14.00">PiL</text>
</g>
<!-- !p1 -->
<g id="node7" class="node">
<title>!p1</title>
<ellipse fill="none" stroke="black" cx="118" cy="-1128.49" rx="27" ry="18"/>
<text text-anchor="middle" x="118" y="-1124.79" font-family="Times-Roman" font-size="14.00">!p</text>
</g>
<!-- PiL0&#45;&gt;!p1 -->
<g id="edge21" class="edge">
<title>PiL0&#45;&gt;!p1</title>
<g id="a_edge21"><a xlink:title="e57">
<path fill="none" stroke="red" d="M138.6,-1182.91C135.49,-1174.83 131.67,-1164.93 128.17,-1155.85"/>
<polygon fill="red" stroke="red" points="131.4,-1154.52 124.54,-1146.45 124.87,-1157.04 131.4,-1154.52"/>
</a>
</g>
</g>
<!-- Cut2 -->
<g id="node24" class="node">
<title>Cut2</title>
<ellipse fill="none" stroke="black" cx="182" cy="-1056.49" rx="27" ry="18"/>
<text text-anchor="middle" x="182" y="-1052.79" font-family="Times-Roman" font-size="14.00">Cut</text>
</g>
<!-- PiL0&#45;&gt;Cut2 -->
<g id="edge18" class="edge">
<title>PiL0&#45;&gt;Cut2</title>
<g id="a_edge18"><a xlink:title="e51">
<path fill="none" stroke="blue" stroke-width="2" d="M151.95,-1172.8C159.49,-1143.89 171.28,-1098.65 177.62,-1074.32"/>
<polygon fill="blue" stroke="blue" stroke-width="2" points="148.52,-1172.09 149.39,-1182.65 155.3,-1173.85 148.52,-1172.09"/>
</a>
</g>
</g>
<!-- !p0 -->
<g id="node3" class="node">
<title>!p0</title>
<ellipse fill="none" stroke="black" cx="152" cy="-234" rx="27" ry="18"/>
<text text-anchor="middle" x="152" y="-230.3" font-family="Times-Roman" font-size="14.00">!p</text>
</g>
<!-- PiR0 -->
<g id="node4" class="node">
<title>PiR0</title>
<ellipse fill="none" stroke="black" cx="152" cy="-162" rx="27" ry="18"/>
<text text-anchor="middle" x="152" y="-158.3" font-family="Times-Roman" font-size="14.00">PiR</text>
</g>
<!-- !p0&#45;&gt;PiR0 -->
<g id="edge22" class="edge">
<title>!p0&#45;&gt;PiR0</title>
<g id="a_edge22"><a xlink:title="e85">
<path fill="none" stroke="red" d="M152,-215.7C152,-207.98 152,-198.71 152,-190.11"/>
<polygon fill="red" stroke="red" points="155.5,-190.1 152,-180.1 148.5,-190.1 155.5,-190.1"/>
</a>
</g>
</g>
<!-- I0 -->
<g id="node6" class="node">
<title>I0</title>
<ellipse fill="none" stroke="black" cx="125" cy="-90" rx="27" ry="18"/>
<text text-anchor="middle" x="125" y="-86.3" font-family="Times-Roman" font-size="14.00">I</text>
</g>
<!-- PiR0&#45;&gt;I0 -->
<g id="edge24" class="edge">
<title>PiR0&#45;&gt;I0</title>
<g id="a_edge24"><a xlink:title="e89">
<path fill="none" stroke="red" d="M145.6,-144.41C142.49,-136.34 138.67,-126.43 135.17,-117.35"/>
<polygon fill="red" stroke="red" points="138.4,-116.03 131.54,-107.96 131.87,-118.55 138.4,-116.03"/>
</a>
</g>
</g>
<!-- !d0 -->
<g id="node5" class="node">
<title>!d0</title>
<ellipse fill="none" stroke="black" cx="152" cy="-18" rx="27" ry="18"/>
<text text-anchor="middle" x="152" y="-14.3" font-family="Times-Roman" font-size="14.00">!d</text>
</g>
<!-- !d0&#45;&gt;PiR0 -->
<g id="edge23" class="edge">
<title>!d0&#45;&gt;PiR0</title>
<g id="a_edge23"><a xlink:title="e87">
<path fill="none" stroke="blue" d="M157.49,-46.01C158.93,-54.31 160.28,-63.5 161,-72 162.34,-87.94 162.34,-92.06 161,-108 159.98,-120.09 157.68,-133.57 155.65,-143.91"/>
<polygon fill="blue" stroke="blue" points="160.91,-45.29 155.65,-36.09 154.03,-46.56 160.91,-45.29"/>
</a>
</g>
</g>
<!-- I0&#45;&gt;!d0 -->
<g id="edge25" class="edge">
<title>I0&#45;&gt;!d0</title>
<g id="a_edge25"><a xlink:title="e91">
<path fill="none" stroke="blue" d="M135.01,-63.06C138.5,-54.01 142.32,-44.09 145.46,-35.96"/>
<polygon fill="blue" stroke="blue" points="131.73,-61.82 131.4,-72.41 138.26,-64.34 131.73,-61.82"/>
</a>
</g>
</g>
<!-- I1 -->
<g id="node10" class="node">
<title>I1</title>
<ellipse fill="none" stroke="black" cx="110" cy="-1056.49" rx="27" ry="18"/>
<text text-anchor="middle" x="110" y="-1052.79" font-family="Times-Roman" font-size="14.00">I</text>
</g>
<!-- !p1&#45;&gt;I1 -->
<g id="edge26" class="edge">
<title>!p1&#45;&gt;I1</title>
<g id="a_edge26"><a xlink:title="e95">
<path fill="none" stroke="red" d="M116.02,-1110.19C115.14,-1102.48 114.08,-1093.21 113.1,-1084.61"/>
<polygon fill="red" stroke="red" points="116.57,-1084.14 111.95,-1074.6 109.61,-1084.93 116.57,-1084.14"/>
</a>
</g>
</g>
<!-- !d1 -->
<g id="node8" class="node">
<title>!d1</title>
<ellipse fill="none" stroke="black" cx="126" cy="-912.49" rx="27" ry="18"/>
<text text-anchor="middle" x="126" y="-908.79" font-family="Times-Roman" font-size="14.00">!d</text>
</g>
<!-- Cut0 -->
<g id="node19" class="node">
<title>Cut0</title>
<ellipse fill="none" stroke="black" cx="126" cy="-840.49" rx="27" ry="18"/>
<text text-anchor="middle" x="126" y="-836.79" font-family="Times-Roman" font-size="14.00">Cut</text>
</g>
<!-- !d1&#45;&gt;Cut0 -->
<g id="edge17" class="edge">
<title>!d1&#45;&gt;Cut0</title>
<g id="a_edge17"><a xlink:title="e47">
<path fill="none" stroke="blue" d="M126,-884.16C126,-875.55 126,-866.29 126,-858.6"/>
<polygon fill="blue" stroke="blue" points="122.5,-884.19 126,-894.19 129.5,-884.19 122.5,-884.19"/>
</a>
</g>
</g>
<!-- PiL1 -->
<g id="node9" class="node">
<title>PiL1</title>
<ellipse fill="none" stroke="black" cx="110" cy="-984.49" rx="27" ry="18"/>
<text text-anchor="middle" x="110" y="-980.79" font-family="Times-Roman" font-size="14.00">PiL</text>
</g>
<!-- PiL1&#45;&gt;!d1 -->
<g id="edge1" class="edge">
<title>PiL1&#45;&gt;!d1</title>
<g id="a_edge1"><a xlink:title="e103">
<path fill="none" stroke="blue" d="M116.11,-956.78C118.1,-948.06 120.26,-938.61 122.05,-930.77"/>
<polygon fill="blue" stroke="blue" points="112.69,-956.02 113.87,-966.55 119.51,-957.58 112.69,-956.02"/>
</a>
</g>
</g>
<!-- !p2 -->
<g id="node11" class="node">
<title>!p2</title>
<ellipse fill="none" stroke="black" cx="54" cy="-912.49" rx="27" ry="18"/>
<text text-anchor="middle" x="54" y="-908.79" font-family="Times-Roman" font-size="14.00">!p</text>
</g>
<!-- PiL1&#45;&gt;!p2 -->
<g id="edge3" class="edge">
<title>PiL1&#45;&gt;!p2</title>
<g id="a_edge3"><a xlink:title="e107">
<path fill="none" stroke="red" d="M97.85,-968.31C90.44,-959.04 80.82,-947.02 72.48,-936.59"/>
<polygon fill="red" stroke="red" points="75.11,-934.28 66.13,-928.65 69.64,-938.65 75.11,-934.28"/>
</a>
</g>
</g>
<!-- I1&#45;&gt;PiL1 -->
<g id="edge2" class="edge">
<title>I1&#45;&gt;PiL1</title>
<g id="a_edge2"><a xlink:title="e105">
<path fill="none" stroke="blue" d="M110,-1028.16C110,-1019.55 110,-1010.29 110,-1002.6"/>
<polygon fill="blue" stroke="blue" points="106.5,-1028.19 110,-1038.19 113.5,-1028.19 106.5,-1028.19"/>
</a>
</g>
</g>
<!-- PiR1 -->
<g id="node12" class="node">
<title>PiR1</title>
<ellipse fill="none" stroke="black" cx="54" cy="-840.49" rx="27" ry="18"/>
<text text-anchor="middle" x="54" y="-836.79" font-family="Times-Roman" font-size="14.00">PiR</text>
</g>
<!-- !p2&#45;&gt;PiR1 -->
<g id="edge4" class="edge">
<title>!p2&#45;&gt;PiR1</title>
<g id="a_edge4"><a xlink:title="e111">
<path fill="none" stroke="red" d="M54,-894.19C54,-886.48 54,-877.21 54,-868.61"/>
<polygon fill="red" stroke="red" points="57.5,-868.6 54,-858.6 50.5,-868.6 57.5,-868.6"/>
</a>
</g>
</g>
<!-- I3 -->
<g id="node16" class="node">
<title>I3</title>
<ellipse fill="none" stroke="black" cx="54" cy="-768.49" rx="27" ry="18"/>
<text text-anchor="middle" x="54" y="-764.79" font-family="Times-Roman" font-size="14.00">I</text>
</g>
<!-- PiR1&#45;&gt;I3 -->
<g id="edge8" class="edge">
<title>PiR1&#45;&gt;I3</title>
<g id="a_edge8"><a xlink:title="e119">
<path fill="none" stroke="red" d="M54,-822.19C54,-814.48 54,-805.21 54,-796.61"/>
<polygon fill="red" stroke="red" points="57.5,-796.6 54,-786.6 50.5,-796.6 57.5,-796.6"/>
</a>
</g>
</g>
<!-- !d2 -->
<g id="node13" class="node">
<title>!d2</title>
<ellipse fill="none" stroke="black" cx="181" cy="-480.49" rx="27" ry="18"/>
<text text-anchor="middle" x="181" y="-476.79" font-family="Times-Roman" font-size="14.00">!d</text>
</g>
<!-- Dup4_0 -->
<g id="node21" class="node">
<title>Dup4_0</title>
<ellipse fill="none" stroke="black" cx="152" cy="-393.25" rx="29.47" ry="29.47"/>
<ellipse fill="none" stroke="black" cx="152" cy="-393.25" rx="33.5" ry="33.5"/>
<text text-anchor="middle" x="152" y="-389.55" font-family="Times-Roman" font-size="14.00">Dup</text>
</g>
<!-- !d2&#45;&gt;Dup4_0 -->
<g id="edge5" class="edge">
<title>!d2&#45;&gt;Dup4_0</title>
<g id="a_edge5"><a xlink:title="e112">
<path fill="none" stroke="blue" stroke-width="2" d="M172.03,-453.13C168.99,-444.18 165.56,-434.11 162.41,-424.86"/>
<polygon fill="blue" stroke="blue" stroke-width="2" points="168.74,-454.31 175.27,-462.65 175.36,-452.06 168.74,-454.31"/>
</a>
</g>
</g>
<!-- I2 -->
<g id="node14" class="node">
<title>I2</title>
<ellipse fill="none" stroke="black" cx="181" cy="-552.49" rx="27" ry="18"/>
<text text-anchor="middle" x="181" y="-548.79" font-family="Times-Roman" font-size="14.00">I</text>
</g>
<!-- I2&#45;&gt;!d2 -->
<g id="edge9" class="edge">
<title>I2&#45;&gt;!d2</title>
<g id="a_edge9"><a xlink:title="e120">
<path fill="none" stroke="blue" stroke-width="2" d="M181,-524.16C181,-515.55 181,-506.29 181,-498.6"/>
<polygon fill="blue" stroke="blue" stroke-width="2" points="177.5,-524.19 181,-534.19 184.5,-524.19 177.5,-524.19"/>
</a>
</g>
</g>
<!-- !d3 -->
<g id="node15" class="node">
<title>!d3</title>
<ellipse fill="none" stroke="black" cx="27" cy="-696.49" rx="27" ry="18"/>
<text text-anchor="middle" x="27" y="-692.79" font-family="Times-Roman" font-size="14.00">!d</text>
</g>
<!-- !d3&#45;&gt;PiR1 -->
<g id="edge7" class="edge">
<title>!d3&#45;&gt;PiR1</title>
<g id="a_edge7"><a xlink:title="e117">
<path fill="none" stroke="blue" d="M18.93,-724.09C14.77,-742.07 11.74,-766.14 18,-786.49 22.38,-800.74 32.04,-814.6 40.25,-824.56"/>
<polygon fill="blue" stroke="blue" points="22.35,-724.84 21.45,-714.28 15.57,-723.1 22.35,-724.84"/>
</a>
</g>
</g>
<!-- I3&#45;&gt;!d3 -->
<g id="edge10" class="edge">
<title>I3&#45;&gt;!d3</title>
<g id="a_edge10"><a xlink:title="e123">
<path fill="none" stroke="blue" d="M43.99,-741.55C40.5,-732.5 36.68,-722.58 33.54,-714.45"/>
<polygon fill="blue" stroke="blue" points="40.74,-742.84 47.6,-750.91 47.27,-740.32 40.74,-742.84"/>
</a>
</g>
</g>
<!-- I4&#45;&gt;PiL0 -->
<g id="edge20" class="edge">
<title>I4&#45;&gt;PiL0</title>
<g id="a_edge20"><a xlink:title="e55">
<path fill="none" stroke="blue" stroke-width="2" d="M145,-1244.16C145,-1235.55 145,-1226.29 145,-1218.6"/>
<polygon fill="blue" stroke="blue" stroke-width="2" points="141.5,-1244.19 145,-1254.19 148.5,-1244.19 141.5,-1244.19"/>
</a>
</g>
</g>
<!-- !p3 -->
<g id="node18" class="node">
<title>!p3</title>
<ellipse fill="none" stroke="black" cx="126" cy="-768.49" rx="27" ry="18"/>
<text text-anchor="middle" x="126" y="-764.79" font-family="Times-Roman" font-size="14.00">!p</text>
</g>
<!-- PiR2 -->
<g id="node20" class="node">
<title>PiR2</title>
<ellipse fill="none" stroke="black" cx="126" cy="-696.49" rx="27" ry="18"/>
<text text-anchor="middle" x="126" y="-692.79" font-family="Times-Roman" font-size="14.00">PiR</text>
</g>
<!-- !p3&#45;&gt;PiR2 -->
<g id="edge12" class="edge">
<title>!p3&#45;&gt;PiR2</title>
<g id="a_edge12"><a xlink:title="e127">
<path fill="none" stroke="red" d="M126,-750.19C126,-742.48 126,-733.21 126,-724.61"/>
<polygon fill="red" stroke="red" points="129.5,-724.6 126,-714.6 122.5,-724.6 129.5,-724.6"/>
</a>
</g>
</g>
<!-- Cut0&#45;&gt;!p3 -->
<g id="edge11" class="edge">
<title>Cut0&#45;&gt;!p3</title>
<g id="a_edge11"><a xlink:title="e125">
<path fill="none" stroke="red" d="M126,-822.19C126,-814.48 126,-805.21 126,-796.61"/>
<polygon fill="red" stroke="red" points="129.5,-796.6 126,-786.6 122.5,-796.6 129.5,-796.6"/>
</a>
</g>
</g>
<!-- Dup4_1 -->
<g id="node22" class="node">
<title>Dup4_1</title>
<ellipse fill="none" stroke="black" cx="182" cy="-624.49" rx="29.5" ry="18"/>
<text text-anchor="middle" x="182" y="-620.79" font-family="Times-Roman" font-size="14.00">Dup</text>
</g>
<!-- PiR2&#45;&gt;Dup4_1 -->
<g id="edge16" class="edge">
<title>PiR2&#45;&gt;Dup4_1</title>
<g id="a_edge16"><a xlink:title="e131">
<path fill="none" stroke="red" d="M138.15,-680.31C145.82,-670.72 155.86,-658.17 164.4,-647.5"/>
<ellipse fill="none" stroke="red" cx="166.99" cy="-644.26" rx="4" ry="4"/>
</a>
</g>
</g>
<!-- Dup4_0&#45;&gt;PiR2 -->
<g id="edge14" class="edge">
<title>Dup4_0&#45;&gt;PiR2</title>
<g id="a_edge14"><a xlink:title="e129">
<path fill="none" stroke="blue" d="M147.71,-434.73C146.78,-443.86 145.83,-453.5 145,-462.49 137.58,-543.12 130.19,-639.59 127.28,-678.24"/>
<ellipse fill="none" stroke="blue" cx="148.14" cy="-430.5" rx="4" ry="4"/>
</a>
</g>
</g>
<!-- Cut1 -->
<g id="node23" class="node">
<title>Cut1</title>
<ellipse fill="none" stroke="black" cx="152" cy="-306" rx="27" ry="18"/>
<text text-anchor="middle" x="152" y="-302.3" font-family="Times-Roman" font-size="14.00">Cut</text>
</g>
<!-- Dup4_0&#45;&gt;Cut1 -->
<g id="edge13" class="edge">
<title>Dup4_0&#45;&gt;Cut1</title>
<g id="a_edge13"><a xlink:title="e128">
<path fill="none" stroke="blue" d="M152,-351.53C152,-341.91 152,-332.16 152,-324.25"/>
<ellipse fill="blue" stroke="blue" cx="152" cy="-355.53" rx="4" ry="4"/>
</a>
</g>
</g>
<!-- Dup4_1&#45;&gt;I2 -->
<g id="edge6" class="edge">
<title>Dup4_1&#45;&gt;I2</title>
<g id="a_edge6"><a xlink:title="e114">
<path fill="none" stroke="red" stroke-width="2" d="M181.75,-606.19C181.64,-598.48 181.51,-589.21 181.39,-580.61"/>
<polygon fill="red" stroke="red" stroke-width="2" points="184.89,-580.55 181.24,-570.6 177.89,-580.65 184.89,-580.55"/>
</a>
</g>
</g>
<!-- Cut1&#45;&gt;!p0 -->
<g id="edge19" class="edge">
<title>Cut1&#45;&gt;!p0</title>
<g id="a_edge19"><a xlink:title="e53">
<path fill="none" stroke="red" d="M152,-287.7C152,-279.98 152,-270.71 152,-262.11"/>
<polygon fill="red" stroke="red" points="155.5,-262.1 152,-252.1 148.5,-262.1 155.5,-262.1"/>
</a>
</g>
</g>
<!-- Cut2&#45;&gt;Dup4_1 -->
<g id="edge15" class="edge">
<title>Cut2&#45;&gt;Dup4_1</title>
<g id="a_edge15"><a xlink:title="e130">
<path fill="none" stroke="red" stroke-width="2" d="M182,-1038.45C182,-1011.79 182,-958.61 182,-913.49 182,-913.49 182,-913.49 182,-767.49 182,-726.61 182,-679.1 182,-650.71"/>
<ellipse fill="red" stroke="red" stroke-width="2" cx="182" cy="-646.54" rx="4" ry="4"/>
</a>
</g>
</g>
</g>
</svg>
