<?xml version="1.0" encoding="UTF-8" standalone="no"?>
<!DOCTYPE svg PUBLIC "-//W3C//DTD SVG 1.1//EN"
 "http://www.w3.org/Graphics/SVG/1.1/DTD/svg11.dtd">
<!-- Generated by graphviz version 2.43.0 (0)
 -->
<!-- Title: %3 Pages: 1 -->
<svg width="495pt" height="1365pt"
 viewBox="0.00 0.00 495.00 1365.30" xmlns="http://www.w3.org/2000/svg" xmlns:xlink="http://www.w3.org/1999/xlink">
<g id="graph0" class="graph" transform="scale(1 1) rotate(0) translate(4 1361.3)">
<title>%3</title>
<polygon fill="white" stroke="transparent" points="-4,4 -4,-1361.3 491,-1361.3 491,4 -4,4"/>
<!-- Root0 -->
<g id="node1" class="node">
<title>Root0</title>
<ellipse fill="none" stroke="black" cx="394" cy="-1339.3" rx="30.59" ry="18"/>
<text text-anchor="middle" x="394" y="-1335.6" font-family="Times-Roman" font-size="14.00">Root</text>
</g>
<!-- I2 -->
<g id="node10" class="node">
<title>I2</title>
<ellipse fill="none" stroke="black" cx="394" cy="-1267.3" rx="27" ry="18"/>
<text text-anchor="middle" x="394" y="-1263.6" font-family="Times-Roman" font-size="14.00">I</text>
</g>
<!-- Root0&#45;&gt;I2 -->
<g id="edge45" class="edge">
<title>Root0&#45;&gt;I2</title>
<g id="a_edge45"><a xlink:title="rettop">
<path fill="none" stroke="red" stroke-width="2" d="M394,-1320.99C394,-1313.28 394,-1304.01 394,-1295.41"/>
<polygon fill="red" stroke="red" stroke-width="2" points="397.5,-1295.4 394,-1285.4 390.5,-1295.4 397.5,-1295.4"/>
</a>
</g>
</g>
<!-- !p0 -->
<g id="node2" class="node">
<title>!p0</title>
<ellipse fill="none" stroke="black" cx="276" cy="-1051.3" rx="27" ry="18"/>
<text text-anchor="middle" x="276" y="-1047.6" font-family="Times-Roman" font-size="14.00">!p</text>
</g>
<!-- I0 -->
<g id="node3" class="node">
<title>I0</title>
<ellipse fill="none" stroke="black" cx="240" cy="-979.3" rx="27" ry="18"/>
<text text-anchor="middle" x="240" y="-975.6" font-family="Times-Roman" font-size="14.00">I</text>
</g>
<!-- !p0&#45;&gt;I0 -->
<g id="edge49" class="edge">
<title>!p0&#45;&gt;I0</title>
<g id="a_edge49"><a xlink:title="yli">
<path fill="none" stroke="red" d="M267.65,-1034.06C263.29,-1025.58 257.85,-1015.01 252.96,-1005.49"/>
<polygon fill="red" stroke="red" points="255.99,-1003.73 248.3,-996.44 249.77,-1006.94 255.99,-1003.73"/>
</a>
</g>
</g>
<!-- Cut0 -->
<g id="node6" class="node">
<title>Cut0</title>
<ellipse fill="none" stroke="black" cx="312" cy="-979.3" rx="27" ry="18"/>
<text text-anchor="middle" x="312" y="-975.6" font-family="Times-Roman" font-size="14.00">Cut</text>
</g>
<!-- !p0&#45;&gt;Cut0 -->
<g id="edge46" class="edge">
<title>!p0&#45;&gt;Cut0</title>
<g id="a_edge46"><a xlink:title="y2">
<path fill="none" stroke="blue" d="M289.01,-1025C293.91,-1015.47 299.34,-1004.91 303.7,-996.44"/>
<polygon fill="blue" stroke="blue" points="285.81,-1023.57 284.35,-1034.06 292.04,-1026.77 285.81,-1023.57"/>
</a>
</g>
</g>
<!-- !d0 -->
<g id="node4" class="node">
<title>!d0</title>
<ellipse fill="none" stroke="black" cx="212" cy="-907.3" rx="27" ry="18"/>
<text text-anchor="middle" x="212" y="-903.6" font-family="Times-Roman" font-size="14.00">!d</text>
</g>
<!-- I0&#45;&gt;!d0 -->
<g id="edge48" class="edge">
<title>I0&#45;&gt;!d0</title>
<g id="a_edge48"><a xlink:title="yl2">
<path fill="none" stroke="blue" d="M229.56,-952.21C225.89,-943.01 221.86,-932.94 218.59,-924.77"/>
<polygon fill="blue" stroke="blue" points="226.4,-953.72 233.36,-961.71 232.9,-951.12 226.4,-953.72"/>
</a>
</g>
</g>
<!-- !d0&#45;&gt;!p0 -->
<g id="edge47" class="edge">
<title>!d0&#45;&gt;!p0</title>
<g id="a_edge47"><a xlink:title="yj">
<path fill="none" stroke="blue" d="M202.46,-934.85C197.48,-953.32 194.24,-977.99 204,-997.3 214.37,-1017.8 236.81,-1032.31 253.9,-1040.9"/>
<polygon fill="blue" stroke="blue" points="205.88,-935.62 205.42,-925.04 199.18,-933.6 205.88,-935.62"/>
</a>
</g>
</g>
<!-- !p1 -->
<g id="node5" class="node">
<title>!p1</title>
<ellipse fill="none" stroke="black" cx="298" cy="-907.3" rx="27" ry="18"/>
<text text-anchor="middle" x="298" y="-903.6" font-family="Times-Roman" font-size="14.00">!p</text>
</g>
<!-- I1 -->
<g id="node9" class="node">
<title>I1</title>
<ellipse fill="none" stroke="black" cx="257" cy="-835.3" rx="27" ry="18"/>
<text text-anchor="middle" x="257" y="-831.6" font-family="Times-Roman" font-size="14.00">I</text>
</g>
<!-- !p1&#45;&gt;I1 -->
<g id="edge1" class="edge">
<title>!p1&#45;&gt;I1</title>
<g id="a_edge1"><a xlink:title="e11">
<path fill="none" stroke="red" d="M288.49,-890.06C283.47,-881.49 277.2,-870.79 271.58,-861.2"/>
<polygon fill="red" stroke="red" points="274.53,-859.3 266.46,-852.44 268.49,-862.84 274.53,-859.3"/>
</a>
</g>
</g>
<!-- Dup1_0 -->
<g id="node31" class="node">
<title>Dup1_0</title>
<ellipse fill="none" stroke="black" cx="176" cy="-835.3" rx="29.5" ry="18"/>
<text text-anchor="middle" x="176" y="-831.6" font-family="Times-Roman" font-size="14.00">Dup</text>
</g>
<!-- !p1&#45;&gt;Dup1_0 -->
<g id="edge3" class="edge">
<title>!p1&#45;&gt;Dup1_0</title>
<g id="a_edge3"><a xlink:title="e15">
<path fill="none" stroke="blue" d="M269.42,-889.9C247.12,-877.1 216.67,-859.63 196.68,-848.16"/>
<polygon fill="blue" stroke="blue" points="267.71,-892.95 278.13,-894.89 271.2,-886.88 267.71,-892.95"/>
</a>
</g>
</g>
<!-- Cut0&#45;&gt;!p1 -->
<g id="edge44" class="edge">
<title>Cut0&#45;&gt;!p1</title>
<g id="a_edge44"><a xlink:title="e9">
<path fill="none" stroke="red" d="M308.61,-961.35C307.07,-953.64 305.21,-944.32 303.47,-935.66"/>
<polygon fill="red" stroke="red" points="306.85,-934.69 301.46,-925.57 299.98,-936.06 306.85,-934.69"/>
</a>
</g>
</g>
<!-- !d1 -->
<g id="node7" class="node">
<title>!d1</title>
<ellipse fill="none" stroke="black" cx="312" cy="-691.3" rx="27" ry="18"/>
<text text-anchor="middle" x="312" y="-687.6" font-family="Times-Roman" font-size="14.00">!d</text>
</g>
<!-- !d1&#45;&gt;!p1 -->
<g id="edge2" class="edge">
<title>!d1&#45;&gt;!p1</title>
<g id="a_edge2"><a xlink:title="e13">
<path fill="none" stroke="blue" d="M310.21,-719.68C307.28,-764.48 301.54,-852.13 299.12,-889.14"/>
<polygon fill="blue" stroke="blue" points="313.71,-719.73 310.87,-709.53 306.73,-719.28 313.71,-719.73"/>
</a>
</g>
</g>
<!-- PiL0 -->
<g id="node8" class="node">
<title>PiL0</title>
<ellipse fill="none" stroke="black" cx="257" cy="-763.3" rx="27" ry="18"/>
<text text-anchor="middle" x="257" y="-759.6" font-family="Times-Roman" font-size="14.00">PiL</text>
</g>
<!-- PiL0&#45;&gt;!d1 -->
<g id="edge4" class="edge">
<title>PiL0&#45;&gt;!d1</title>
<g id="a_edge4"><a xlink:title="e17">
<path fill="none" stroke="blue" d="M275.17,-739.17C283.37,-728.74 292.81,-716.71 300.09,-707.45"/>
<polygon fill="blue" stroke="blue" points="272.36,-737.08 268.93,-747.11 277.86,-741.41 272.36,-737.08"/>
</a>
</g>
</g>
<!-- !p3 -->
<g id="node20" class="node">
<title>!p3</title>
<ellipse fill="none" stroke="black" cx="240" cy="-691.3" rx="27" ry="18"/>
<text text-anchor="middle" x="240" y="-687.6" font-family="Times-Roman" font-size="14.00">!p</text>
</g>
<!-- PiL0&#45;&gt;!p3 -->
<g id="edge6" class="edge">
<title>PiL0&#45;&gt;!p3</title>
<g id="a_edge6"><a xlink:title="e21">
<path fill="none" stroke="red" d="M252.88,-745.35C250.99,-737.56 248.7,-728.12 246.58,-719.37"/>
<polygon fill="red" stroke="red" points="249.96,-718.46 244.2,-709.57 243.15,-720.11 249.96,-718.46"/>
</a>
</g>
</g>
<!-- I1&#45;&gt;PiL0 -->
<g id="edge5" class="edge">
<title>I1&#45;&gt;PiL0</title>
<g id="a_edge5"><a xlink:title="e19">
<path fill="none" stroke="blue" d="M257,-806.96C257,-798.35 257,-789.09 257,-781.4"/>
<polygon fill="blue" stroke="blue" points="253.5,-806.99 257,-816.99 260.5,-806.99 253.5,-806.99"/>
</a>
</g>
</g>
<!-- PiL3 -->
<g id="node19" class="node">
<title>PiL3</title>
<ellipse fill="none" stroke="black" cx="394" cy="-1195.3" rx="27" ry="18"/>
<text text-anchor="middle" x="394" y="-1191.6" font-family="Times-Roman" font-size="14.00">PiL</text>
</g>
<!-- I2&#45;&gt;PiL3 -->
<g id="edge9" class="edge">
<title>I2&#45;&gt;PiL3</title>
<g id="a_edge9"><a xlink:title="e32">
<path fill="none" stroke="blue" stroke-width="2" d="M394,-1238.96C394,-1230.35 394,-1221.09 394,-1213.4"/>
<polygon fill="blue" stroke="blue" stroke-width="2" points="390.5,-1238.99 394,-1248.99 397.5,-1238.99 390.5,-1238.99"/>
</a>
</g>
</g>
<!-- !p2 -->
<g id="node11" class="node">
<title>!p2</title>
<ellipse fill="none" stroke="black" cx="168" cy="-691.3" rx="27" ry="18"/>
<text text-anchor="middle" x="168" y="-687.6" font-family="Times-Roman" font-size="14.00">!p</text>
</g>
<!-- PiR0 -->
<g id="node13" class="node">
<title>PiR0</title>
<ellipse fill="none" stroke="black" cx="168" cy="-619.3" rx="27" ry="18"/>
<text text-anchor="middle" x="168" y="-615.6" font-family="Times-Roman" font-size="14.00">PiR</text>
</g>
<!-- !p2&#45;&gt;PiR0 -->
<g id="edge13" class="edge">
<title>!p2&#45;&gt;PiR0</title>
<g id="a_edge13"><a xlink:title="e39">
<path fill="none" stroke="red" d="M168,-672.99C168,-665.28 168,-656.01 168,-647.41"/>
<polygon fill="red" stroke="red" points="171.5,-647.4 168,-637.4 164.5,-647.4 171.5,-647.4"/>
</a>
</g>
</g>
<!-- Cut1 -->
<g id="node12" class="node">
<title>Cut1</title>
<ellipse fill="none" stroke="black" cx="176" cy="-763.3" rx="27" ry="18"/>
<text text-anchor="middle" x="176" y="-759.6" font-family="Times-Roman" font-size="14.00">Cut</text>
</g>
<!-- Cut1&#45;&gt;!p2 -->
<g id="edge12" class="edge">
<title>Cut1&#45;&gt;!p2</title>
<g id="a_edge12"><a xlink:title="e37">
<path fill="none" stroke="red" d="M174.02,-744.99C173.14,-737.28 172.08,-728.01 171.1,-719.41"/>
<polygon fill="red" stroke="red" points="174.57,-718.94 169.95,-709.4 167.61,-719.73 174.57,-718.94"/>
</a>
</g>
</g>
<!-- I3 -->
<g id="node18" class="node">
<title>I3</title>
<ellipse fill="none" stroke="black" cx="202" cy="-547.3" rx="27" ry="18"/>
<text text-anchor="middle" x="202" y="-543.6" font-family="Times-Roman" font-size="14.00">I</text>
</g>
<!-- PiR0&#45;&gt;I3 -->
<g id="edge15" class="edge">
<title>PiR0&#45;&gt;I3</title>
<g id="a_edge15"><a xlink:title="e43">
<path fill="none" stroke="red" d="M175.89,-602.06C179.9,-593.79 184.89,-583.53 189.42,-574.2"/>
<polygon fill="red" stroke="red" points="192.7,-575.45 193.92,-564.93 186.4,-572.39 192.7,-575.45"/>
</a>
</g>
</g>
<!-- !c0 -->
<g id="node14" class="node">
<title>!c0</title>
<ellipse fill="none" stroke="black" cx="147" cy="-234" rx="27" ry="18"/>
<text text-anchor="middle" x="147" y="-230.3" font-family="Times-Roman" font-size="14.00">!c</text>
</g>
<!-- !c0&#45;&gt;PiR0 -->
<g id="edge14" class="edge">
<title>!c0&#45;&gt;PiR0</title>
<g id="a_edge14"><a xlink:title="e41">
<path fill="none" stroke="blue" d="M147,-262.57C147,-293.5 147,-345.17 147,-389.65 147,-476.3 147,-476.3 147,-476.3 147,-521.9 157.73,-574.87 163.85,-601.37"/>
<polygon fill="blue" stroke="blue" points="150.5,-262.16 147,-252.16 143.5,-262.16 150.5,-262.16"/>
</a>
</g>
</g>
<!-- !d2 -->
<g id="node15" class="node">
<title>!d2</title>
<ellipse fill="none" stroke="black" cx="207" cy="-306" rx="27" ry="18"/>
<text text-anchor="middle" x="207" y="-302.3" font-family="Times-Roman" font-size="14.00">!d</text>
</g>
<!-- !d2&#45;&gt;!c0 -->
<g id="edge17" class="edge">
<title>!d2&#45;&gt;!c0</title>
<g id="a_edge17"><a xlink:title="e46">
<path fill="none" stroke="blue" d="M187.44,-282.18C178.44,-271.68 168.01,-259.51 159.99,-250.16"/>
<polygon fill="blue" stroke="blue" points="184.82,-284.5 193.98,-289.81 190.13,-279.94 184.82,-284.5"/>
</a>
</g>
</g>
<!-- PiL1 -->
<g id="node16" class="node">
<title>PiL1</title>
<ellipse fill="none" stroke="black" cx="212" cy="-390.65" rx="27" ry="18"/>
<text text-anchor="middle" x="212" y="-386.95" font-family="Times-Roman" font-size="14.00">PiL</text>
</g>
<!-- PiL1&#45;&gt;!d2 -->
<g id="edge19" class="edge">
<title>PiL1&#45;&gt;!d2</title>
<g id="a_edge19"><a xlink:title="e49">
<path fill="none" stroke="blue" d="M210.36,-362.49C209.59,-349.84 208.7,-335.18 208.03,-324.1"/>
<polygon fill="blue" stroke="blue" points="206.87,-362.75 210.96,-372.52 213.85,-362.33 206.87,-362.75"/>
</a>
</g>
</g>
<!-- !p6 -->
<g id="node38" class="node">
<title>!p6</title>
<ellipse fill="none" stroke="black" cx="329" cy="-306" rx="27" ry="18"/>
<text text-anchor="middle" x="329" y="-302.3" font-family="Times-Roman" font-size="14.00">!p</text>
</g>
<!-- PiL1&#45;&gt;!p6 -->
<g id="edge22" class="edge">
<title>PiL1&#45;&gt;!p6</title>
<g id="a_edge22"><a xlink:title="e53">
<path fill="none" stroke="red" d="M229.77,-377.1C249.18,-363.38 280.48,-341.28 302.73,-325.56"/>
<polygon fill="red" stroke="red" points="304.91,-328.3 311.06,-319.67 300.88,-322.58 304.91,-328.3"/>
</a>
</g>
</g>
<!-- PiL2 -->
<g id="node17" class="node">
<title>PiL2</title>
<ellipse fill="none" stroke="black" cx="212" cy="-475.3" rx="27" ry="18"/>
<text text-anchor="middle" x="212" y="-471.6" font-family="Times-Roman" font-size="14.00">PiL</text>
</g>
<!-- PiL2&#45;&gt;PiL1 -->
<g id="edge20" class="edge">
<title>PiL2&#45;&gt;PiL1</title>
<g id="a_edge20"><a xlink:title="e51">
<path fill="none" stroke="blue" d="M212,-447.14C212,-434.49 212,-419.83 212,-408.75"/>
<polygon fill="blue" stroke="blue" points="208.5,-447.17 212,-457.17 215.5,-447.17 208.5,-447.17"/>
</a>
</g>
</g>
<!-- Dup3_1 -->
<g id="node40" class="node">
<title>Dup3_1</title>
<ellipse fill="none" stroke="black" cx="367" cy="-390.65" rx="29.5" ry="18"/>
<text text-anchor="middle" x="367" y="-386.95" font-family="Times-Roman" font-size="14.00">Dup</text>
</g>
<!-- PiL2&#45;&gt;Dup3_1 -->
<g id="edge26" class="edge">
<title>PiL2&#45;&gt;Dup3_1</title>
<g id="a_edge26"><a xlink:title="e57">
<path fill="none" stroke="red" d="M232.58,-463.32C259.68,-448.87 307.48,-423.38 338.17,-407.02"/>
<ellipse fill="none" stroke="red" cx="342.06" cy="-404.95" rx="4" ry="4"/>
</a>
</g>
</g>
<!-- I3&#45;&gt;PiL2 -->
<g id="edge24" class="edge">
<title>I3&#45;&gt;PiL2</title>
<g id="a_edge24"><a xlink:title="e55">
<path fill="none" stroke="blue" d="M205.86,-519.3C207.09,-510.66 208.42,-501.33 209.53,-493.57"/>
<polygon fill="blue" stroke="blue" points="202.37,-518.96 204.42,-529.35 209.3,-519.95 202.37,-518.96"/>
</a>
</g>
</g>
<!-- Dup1_1 -->
<g id="node32" class="node">
<title>Dup1_1</title>
<ellipse fill="none" stroke="black" cx="366" cy="-1123.3" rx="29.5" ry="18"/>
<text text-anchor="middle" x="366" y="-1119.6" font-family="Times-Roman" font-size="14.00">Dup</text>
</g>
<!-- PiL3&#45;&gt;Dup1_1 -->
<g id="edge10" class="edge">
<title>PiL3&#45;&gt;Dup1_1</title>
<g id="a_edge10"><a xlink:title="e34">
<path fill="none" stroke="red" d="M387.36,-1177.71C383.93,-1169.11 379.66,-1158.45 375.85,-1148.92"/>
<ellipse fill="red" stroke="red" cx="374.27" cy="-1144.97" rx="4" ry="4"/>
</a>
</g>
</g>
<!-- PiL4 -->
<g id="node36" class="node">
<title>PiL4</title>
<ellipse fill="none" stroke="black" cx="423" cy="-547.3" rx="27" ry="18"/>
<text text-anchor="middle" x="423" y="-543.6" font-family="Times-Roman" font-size="14.00">PiL</text>
</g>
<!-- PiL3&#45;&gt;PiL4 -->
<g id="edge23" class="edge">
<title>PiL3&#45;&gt;PiL4</title>
<g id="a_edge23"><a xlink:title="e54">
<path fill="none" stroke="blue" stroke-width="2" d="M402.7,-1167.92C411.25,-1139.65 423,-1093.3 423,-1052.3 423,-1052.3 423,-1052.3 423,-690.3 423,-645.18 423,-592 423,-565.34"/>
<polygon fill="blue" stroke="blue" stroke-width="2" points="399.36,-1166.88 399.73,-1177.47 406.04,-1168.97 399.36,-1166.88"/>
</a>
</g>
</g>
<!-- PiR1 -->
<g id="node23" class="node">
<title>PiR1</title>
<ellipse fill="none" stroke="black" cx="274" cy="-619.3" rx="27" ry="18"/>
<text text-anchor="middle" x="274" y="-615.6" font-family="Times-Roman" font-size="14.00">PiR</text>
</g>
<!-- !p3&#45;&gt;PiR1 -->
<g id="edge27" class="edge">
<title>!p3&#45;&gt;PiR1</title>
<g id="a_edge27"><a xlink:title="e59">
<path fill="none" stroke="red" d="M247.89,-674.06C251.9,-665.79 256.89,-655.53 261.42,-646.2"/>
<polygon fill="red" stroke="red" points="264.7,-647.45 265.92,-636.93 258.4,-644.39 264.7,-647.45"/>
</a>
</g>
</g>
<!-- !p4 -->
<g id="node21" class="node">
<title>!p4</title>
<ellipse fill="none" stroke="black" cx="54" cy="-619.3" rx="27" ry="18"/>
<text text-anchor="middle" x="54" y="-615.6" font-family="Times-Roman" font-size="14.00">!p</text>
</g>
<!-- PiR3 -->
<g id="node25" class="node">
<title>PiR3</title>
<ellipse fill="none" stroke="black" cx="54" cy="-547.3" rx="27" ry="18"/>
<text text-anchor="middle" x="54" y="-543.6" font-family="Times-Roman" font-size="14.00">PiR</text>
</g>
<!-- !p4&#45;&gt;PiR3 -->
<g id="edge30" class="edge">
<title>!p4&#45;&gt;PiR3</title>
<g id="a_edge30"><a xlink:title="e65">
<path fill="none" stroke="red" d="M54,-600.99C54,-593.28 54,-584.01 54,-575.41"/>
<polygon fill="red" stroke="red" points="57.5,-575.4 54,-565.4 50.5,-575.4 57.5,-575.4"/>
</a>
</g>
</g>
<!-- Cut2 -->
<g id="node22" class="node">
<title>Cut2</title>
<ellipse fill="none" stroke="black" cx="54" cy="-691.3" rx="27" ry="18"/>
<text text-anchor="middle" x="54" y="-687.6" font-family="Times-Roman" font-size="14.00">Cut</text>
</g>
<!-- Cut2&#45;&gt;!p4 -->
<g id="edge29" class="edge">
<title>Cut2&#45;&gt;!p4</title>
<g id="a_edge29"><a xlink:title="e63">
<path fill="none" stroke="red" d="M54,-672.99C54,-665.28 54,-656.01 54,-647.41"/>
<polygon fill="red" stroke="red" points="57.5,-647.4 54,-637.4 50.5,-647.4 57.5,-647.4"/>
</a>
</g>
</g>
<!-- I4 -->
<g id="node28" class="node">
<title>I4</title>
<ellipse fill="none" stroke="black" cx="274" cy="-547.3" rx="27" ry="18"/>
<text text-anchor="middle" x="274" y="-543.6" font-family="Times-Roman" font-size="14.00">I</text>
</g>
<!-- PiR1&#45;&gt;I4 -->
<g id="edge32" class="edge">
<title>PiR1&#45;&gt;I4</title>
<g id="a_edge32"><a xlink:title="e69">
<path fill="none" stroke="red" d="M274,-600.99C274,-593.28 274,-584.01 274,-575.41"/>
<polygon fill="red" stroke="red" points="277.5,-575.4 274,-565.4 270.5,-575.4 277.5,-575.4"/>
</a>
</g>
</g>
<!-- PiR2 -->
<g id="node24" class="node">
<title>PiR2</title>
<ellipse fill="none" stroke="black" cx="377" cy="-162" rx="27" ry="18"/>
<text text-anchor="middle" x="377" y="-158.3" font-family="Times-Roman" font-size="14.00">PiR</text>
</g>
<!-- I5 -->
<g id="node30" class="node">
<title>I5</title>
<ellipse fill="none" stroke="black" cx="405" cy="-90" rx="27" ry="18"/>
<text text-anchor="middle" x="405" y="-86.3" font-family="Times-Roman" font-size="14.00">I</text>
</g>
<!-- PiR2&#45;&gt;I5 -->
<g id="edge34" class="edge">
<title>PiR2&#45;&gt;I5</title>
<g id="a_edge34"><a xlink:title="e73">
<path fill="none" stroke="red" d="M383.64,-144.41C386.91,-136.22 390.94,-126.14 394.62,-116.95"/>
<polygon fill="red" stroke="red" points="397.95,-118.05 398.41,-107.47 391.45,-115.45 397.95,-118.05"/>
</a>
</g>
</g>
<!-- I6 -->
<g id="node35" class="node">
<title>I6</title>
<ellipse fill="none" stroke="black" cx="54" cy="-475.3" rx="27" ry="18"/>
<text text-anchor="middle" x="54" y="-471.6" font-family="Times-Roman" font-size="14.00">I</text>
</g>
<!-- PiR3&#45;&gt;I6 -->
<g id="edge37" class="edge">
<title>PiR3&#45;&gt;I6</title>
<g id="a_edge37"><a xlink:title="e77">
<path fill="none" stroke="red" d="M54,-528.99C54,-521.28 54,-512.01 54,-503.41"/>
<polygon fill="red" stroke="red" points="57.5,-503.4 54,-493.4 50.5,-503.4 57.5,-503.4"/>
</a>
</g>
</g>
<!-- Cut3 -->
<g id="node26" class="node">
<title>Cut3</title>
<ellipse fill="none" stroke="black" cx="452" cy="-390.65" rx="26.78" ry="26.78"/>
<ellipse fill="none" stroke="black" cx="452" cy="-390.65" rx="30.8" ry="30.8"/>
<text text-anchor="middle" x="452" y="-386.95" font-family="Times-Roman" font-size="14.00">Cut</text>
</g>
<!-- !p5 -->
<g id="node37" class="node">
<title>!p5</title>
<ellipse fill="none" stroke="black" cx="426" cy="-306" rx="27" ry="18"/>
<text text-anchor="middle" x="426" y="-302.3" font-family="Times-Roman" font-size="14.00">!p</text>
</g>
<!-- Cut3&#45;&gt;!p5 -->
<g id="edge21" class="edge">
<title>Cut3&#45;&gt;!p5</title>
<g id="a_edge21"><a xlink:title="e52">
<path fill="none" stroke="red" d="M443.05,-361.21C440.22,-352.21 437.11,-342.31 434.32,-333.46"/>
<polygon fill="red" stroke="red" points="437.58,-332.16 431.24,-323.67 430.91,-334.26 437.58,-332.16"/>
</a>
</g>
</g>
<!-- !d3 -->
<g id="node27" class="node">
<title>!d3</title>
<ellipse fill="none" stroke="black" cx="303" cy="-475.3" rx="27" ry="18"/>
<text text-anchor="middle" x="303" y="-471.6" font-family="Times-Roman" font-size="14.00">!d</text>
</g>
<!-- !d3&#45;&gt;PiR1 -->
<g id="edge31" class="edge">
<title>!d3&#45;&gt;PiR1</title>
<g id="a_edge31"><a xlink:title="e67">
<path fill="none" stroke="blue" d="M310.17,-502.92C313.79,-520.9 316.25,-544.99 310,-565.3 305.62,-579.54 295.96,-593.4 287.75,-603.36"/>
<polygon fill="blue" stroke="blue" points="313.57,-502.09 307.96,-493.1 306.74,-503.63 313.57,-502.09"/>
</a>
</g>
</g>
<!-- I4&#45;&gt;!d3 -->
<g id="edge38" class="edge">
<title>I4&#45;&gt;!d3</title>
<g id="a_edge38"><a xlink:title="e79">
<path fill="none" stroke="blue" d="M284.81,-520.21C288.62,-511.01 292.79,-500.94 296.18,-492.77"/>
<polygon fill="blue" stroke="blue" points="281.47,-519.13 280.87,-529.71 287.93,-521.81 281.47,-519.13"/>
</a>
</g>
</g>
<!-- !d4 -->
<g id="node29" class="node">
<title>!d4</title>
<ellipse fill="none" stroke="black" cx="377" cy="-18" rx="27" ry="18"/>
<text text-anchor="middle" x="377" y="-14.3" font-family="Times-Roman" font-size="14.00">!d</text>
</g>
<!-- !d4&#45;&gt;PiR2 -->
<g id="edge33" class="edge">
<title>!d4&#45;&gt;PiR2</title>
<g id="a_edge33"><a xlink:title="e71">
<path fill="none" stroke="blue" d="M372.12,-46.04C370.84,-54.34 369.64,-63.52 369,-72 367.8,-87.96 367.8,-92.04 369,-108 369.91,-120.06 371.95,-133.54 373.75,-143.89"/>
<polygon fill="blue" stroke="blue" points="375.58,-46.55 373.75,-36.11 368.68,-45.41 375.58,-46.55"/>
</a>
</g>
</g>
<!-- I5&#45;&gt;!d4 -->
<g id="edge39" class="edge">
<title>I5&#45;&gt;!d4</title>
<g id="a_edge39"><a xlink:title="e81">
<path fill="none" stroke="blue" d="M394.56,-62.91C390.89,-53.72 386.86,-43.65 383.59,-35.47"/>
<polygon fill="blue" stroke="blue" points="391.4,-64.43 398.36,-72.41 397.9,-61.83 391.4,-64.43"/>
</a>
</g>
</g>
<!-- Dup1_0&#45;&gt;Cut1 -->
<g id="edge7" class="edge">
<title>Dup1_0&#45;&gt;Cut1</title>
<g id="a_edge7"><a xlink:title="e23">
<path fill="none" stroke="blue" d="M176,-808.94C176,-799.78 176,-789.68 176,-781.4"/>
<ellipse fill="blue" stroke="blue" cx="176" cy="-812.99" rx="4" ry="4"/>
</a>
</g>
</g>
<!-- Dup3_0 -->
<g id="node39" class="node">
<title>Dup3_0</title>
<ellipse fill="none" stroke="black" cx="102" cy="-763.3" rx="29.5" ry="18"/>
<text text-anchor="middle" x="102" y="-759.6" font-family="Times-Roman" font-size="14.00">Dup</text>
</g>
<!-- Dup1_0&#45;&gt;Dup3_0 -->
<g id="edge8" class="edge">
<title>Dup1_0&#45;&gt;Dup3_0</title>
<g id="a_edge8"><a xlink:title="e25">
<path fill="none" stroke="blue" d="M154.7,-814.15C142.75,-802.84 128.12,-789.01 117.31,-778.78"/>
<ellipse fill="none" stroke="blue" cx="157.76" cy="-817.04" rx="4" ry="4"/>
</a>
</g>
</g>
<!-- Dup1_1&#45;&gt;!p0 -->
<g id="edge50" class="edge">
<title>Dup1_1&#45;&gt;!p0</title>
<g id="a_edge50"><a xlink:title="ylp">
<path fill="none" stroke="red" d="M348.65,-1108.8C335.11,-1098.27 316.13,-1083.51 300.97,-1071.72"/>
<polygon fill="red" stroke="red" points="303.04,-1068.89 292.99,-1065.51 298.74,-1074.42 303.04,-1068.89"/>
</a>
</g>
</g>
<!-- !d5 -->
<g id="node33" class="node">
<title>!d5</title>
<ellipse fill="none" stroke="black" cx="460" cy="-475.3" rx="27" ry="18"/>
<text text-anchor="middle" x="460" y="-471.6" font-family="Times-Roman" font-size="14.00">!d</text>
</g>
<!-- !d5&#45;&gt;Cut3 -->
<g id="edge35" class="edge">
<title>!d5&#45;&gt;Cut3</title>
<g id="a_edge35"><a xlink:title="e74">
<path fill="none" stroke="blue" stroke-width="2" d="M457.36,-447.01C456.57,-438.82 455.69,-429.8 454.89,-421.45"/>
<polygon fill="blue" stroke="blue" stroke-width="2" points="453.9,-447.55 458.34,-457.17 460.86,-446.88 453.9,-447.55"/>
</a>
</g>
</g>
<!-- !d6 -->
<g id="node34" class="node">
<title>!d6</title>
<ellipse fill="none" stroke="black" cx="27" cy="-390.65" rx="27" ry="18"/>
<text text-anchor="middle" x="27" y="-386.95" font-family="Times-Roman" font-size="14.00">!d</text>
</g>
<!-- !d6&#45;&gt;PiR3 -->
<g id="edge36" class="edge">
<title>!d6&#45;&gt;PiR3</title>
<g id="a_edge36"><a xlink:title="e75">
<path fill="none" stroke="blue" d="M19.18,-418.37C14.36,-439.22 10.43,-468.67 18,-493.3 22.38,-507.54 32.04,-521.4 40.25,-531.36"/>
<polygon fill="blue" stroke="blue" points="22.59,-419.16 21.64,-408.61 15.8,-417.45 22.59,-419.16"/>
</a>
</g>
</g>
<!-- I6&#45;&gt;!d6 -->
<g id="edge41" class="edge">
<title>I6&#45;&gt;!d6</title>
<g id="a_edge41"><a xlink:title="e83">
<path fill="none" stroke="blue" d="M45.34,-447.78C41.11,-434.84 36.15,-419.66 32.46,-408.35"/>
<polygon fill="blue" stroke="blue" points="42.1,-449.15 48.54,-457.57 48.76,-446.98 42.1,-449.15"/>
</a>
</g>
</g>
<!-- PiL4&#45;&gt;!d5 -->
<g id="edge40" class="edge">
<title>PiL4&#45;&gt;!d5</title>
<g id="a_edge40"><a xlink:title="e82">
<path fill="none" stroke="blue" stroke-width="2" d="M436.37,-521C441.41,-511.47 446.99,-500.91 451.46,-492.44"/>
<polygon fill="blue" stroke="blue" stroke-width="2" points="433.16,-519.58 431.58,-530.06 439.35,-522.85 433.16,-519.58"/>
</a>
</g>
</g>
<!-- PiL4&#45;&gt;Dup3_1 -->
<g id="edge25" class="edge">
<title>PiL4&#45;&gt;Dup3_1</title>
<g id="a_edge25"><a xlink:title="e56">
<path fill="none" stroke="red" d="M416.9,-529.45C407.01,-502.14 387.44,-448.08 375.96,-416.39"/>
<ellipse fill="red" stroke="red" cx="374.45" cy="-412.23" rx="4" ry="4"/>
</a>
</g>
</g>
<!-- Dup3_2 -->
<g id="node41" class="node">
<title>Dup3_2</title>
<ellipse fill="none" stroke="black" cx="377" cy="-234" rx="29.5" ry="18"/>
<text text-anchor="middle" x="377" y="-230.3" font-family="Times-Roman" font-size="14.00">Dup</text>
</g>
<!-- !p5&#45;&gt;Dup3_2 -->
<g id="edge42" class="edge">
<title>!p5&#45;&gt;Dup3_2</title>
<g id="a_edge42"><a xlink:title="e84">
<path fill="none" stroke="red" d="M415.13,-289.46C408.56,-280.08 400.07,-267.96 392.78,-257.54"/>
<ellipse fill="red" stroke="red" cx="390.48" cy="-254.25" rx="4" ry="4"/>
</a>
</g>
</g>
<!-- !p6&#45;&gt;Dup3_2 -->
<g id="edge43" class="edge">
<title>!p6&#45;&gt;Dup3_2</title>
<g id="a_edge43"><a xlink:title="e85">
<path fill="none" stroke="red" d="M339.89,-289.12C346.27,-279.81 354.44,-267.9 361.49,-257.62"/>
<ellipse fill="none" stroke="red" cx="363.89" cy="-254.12" rx="4" ry="4"/>
</a>
</g>
</g>
<!-- Dup3_0&#45;&gt;!c0 -->
<g id="edge18" class="edge">
<title>Dup3_0&#45;&gt;!c0</title>
<g id="a_edge18"><a xlink:title="e47">
<path fill="none" stroke="blue" d="M103.99,-737.1C106.06,-708.72 109,-661.23 109,-620.3 109,-620.3 109,-620.3 109,-389.65 109,-338.22 129.06,-279.89 140.03,-251.83"/>
<ellipse fill="none" stroke="blue" cx="103.68" cy="-741.27" rx="4" ry="4"/>
</a>
</g>
</g>
<!-- Dup3_0&#45;&gt;Cut2 -->
<g id="edge16" class="edge">
<title>Dup3_0&#45;&gt;Cut2</title>
<g id="a_edge16"><a xlink:title="e45">
<path fill="none" stroke="blue" d="M86.44,-739.6C79.39,-729.32 71.22,-717.41 64.85,-708.12"/>
<ellipse fill="blue" stroke="blue" cx="88.85" cy="-743.11" rx="4" ry="4"/>
</a>
</g>
</g>
<!-- Dup3_1&#45;&gt;Dup1_1 -->
<g id="edge11" class="edge">
<title>Dup3_1&#45;&gt;Dup1_1</title>
<g id="a_edge11"><a xlink:title="e35">
<path fill="none" stroke="red" d="M367,-408.81C367,-437.35 367,-496.36 367,-546.3 367,-980.3 367,-980.3 367,-980.3 367,-1021.18 366.58,-1068.69 366.28,-1097.08"/>
<ellipse fill="none" stroke="red" cx="366.24" cy="-1101.25" rx="4" ry="4"/>
</a>
</g>
</g>
<!-- Dup3_2&#45;&gt;PiR2 -->
<g id="edge28" class="edge">
<title>Dup3_2&#45;&gt;PiR2</title>
<g id="a_edge28"><a xlink:title="e61">
<path fill="none" stroke="red" d="M377,-215.7C377,-207.98 377,-198.71 377,-190.11"/>
<polygon fill="red" stroke="red" points="380.5,-190.1 377,-180.1 373.5,-190.1 380.5,-190.1"/>
</a>
</g>
</g>
</g>
</svg>
