<?xml version="1.0" encoding="UTF-8" standalone="no"?>
<!DOCTYPE svg PUBLIC "-//W3C//DTD SVG 1.1//EN"
 "http://www.w3.org/Graphics/SVG/1.1/DTD/svg11.dtd">
<!-- Generated by graphviz version 2.43.0 (0)
 -->
<!-- Title: %3 Pages: 1 -->
<svg width="415pt" height="1514pt"
 viewBox="0.00 0.00 415.00 1514.49" xmlns="http://www.w3.org/2000/svg" xmlns:xlink="http://www.w3.org/1999/xlink">
<g id="graph0" class="graph" transform="scale(1 1) rotate(0) translate(4 1510.49)">
<title>%3</title>
<polygon fill="white" stroke="transparent" points="-4,4 -4,-1510.49 411,-1510.49 411,4 -4,4"/>
<!-- Root0 -->
<g id="node1" class="node">
<title>Root0</title>
<ellipse fill="none" stroke="black" cx="173" cy="-1488.49" rx="30.59" ry="18"/>
<text text-anchor="middle" x="173" y="-1484.79" font-family="Times-Roman" font-size="14.00">Root</text>
</g>
<!-- I0 -->
<g id="node2" class="node">
<title>I0</title>
<ellipse fill="none" stroke="black" cx="173" cy="-1416.49" rx="27" ry="18"/>
<text text-anchor="middle" x="173" y="-1412.79" font-family="Times-Roman" font-size="14.00">I</text>
</g>
<!-- Root0&#45;&gt;I0 -->
<g id="edge36" class="edge">
<title>Root0&#45;&gt;I0</title>
<g id="a_edge36"><a xlink:title="rettop">
<path fill="none" stroke="red" stroke-width="2" d="M173,-1470.19C173,-1462.48 173,-1453.21 173,-1444.61"/>
<polygon fill="red" stroke="red" stroke-width="2" points="176.5,-1444.6 173,-1434.6 169.5,-1444.6 176.5,-1444.6"/>
</a>
</g>
</g>
<!-- PiL4 -->
<g id="node26" class="node">
<title>PiL4</title>
<ellipse fill="none" stroke="black" cx="173" cy="-1344.49" rx="27" ry="18"/>
<text text-anchor="middle" x="173" y="-1340.79" font-family="Times-Roman" font-size="14.00">PiL</text>
</g>
<!-- I0&#45;&gt;PiL4 -->
<g id="edge10" class="edge">
<title>I0&#45;&gt;PiL4</title>
<g id="a_edge10"><a xlink:title="e32">
<path fill="none" stroke="blue" stroke-width="2" d="M173,-1388.16C173,-1379.55 173,-1370.29 173,-1362.6"/>
<polygon fill="blue" stroke="blue" stroke-width="2" points="169.5,-1388.19 173,-1398.19 176.5,-1388.19 169.5,-1388.19"/>
</a>
</g>
</g>
<!-- !p0 -->
<g id="node3" class="node">
<title>!p0</title>
<ellipse fill="none" stroke="black" cx="109" cy="-912.49" rx="27" ry="18"/>
<text text-anchor="middle" x="109" y="-908.79" font-family="Times-Roman" font-size="14.00">!p</text>
</g>
<!-- PiR0 -->
<g id="node5" class="node">
<title>PiR0</title>
<ellipse fill="none" stroke="black" cx="109" cy="-840.49" rx="27" ry="18"/>
<text text-anchor="middle" x="109" y="-836.79" font-family="Times-Roman" font-size="14.00">PiR</text>
</g>
<!-- !p0&#45;&gt;PiR0 -->
<g id="edge13" class="edge">
<title>!p0&#45;&gt;PiR0</title>
<g id="a_edge13"><a xlink:title="e39">
<path fill="none" stroke="red" d="M109,-894.19C109,-886.48 109,-877.21 109,-868.61"/>
<polygon fill="red" stroke="red" points="112.5,-868.6 109,-858.6 105.5,-868.6 112.5,-868.6"/>
</a>
</g>
</g>
<!-- Cut0 -->
<g id="node4" class="node">
<title>Cut0</title>
<ellipse fill="none" stroke="black" cx="109" cy="-984.49" rx="27" ry="18"/>
<text text-anchor="middle" x="109" y="-980.79" font-family="Times-Roman" font-size="14.00">Cut</text>
</g>
<!-- Cut0&#45;&gt;!p0 -->
<g id="edge12" class="edge">
<title>Cut0&#45;&gt;!p0</title>
<g id="a_edge12"><a xlink:title="e37">
<path fill="none" stroke="red" d="M109,-966.19C109,-958.48 109,-949.21 109,-940.61"/>
<polygon fill="red" stroke="red" points="112.5,-940.6 109,-930.6 105.5,-940.6 112.5,-940.6"/>
</a>
</g>
</g>
<!-- I1 -->
<g id="node10" class="node">
<title>I1</title>
<ellipse fill="none" stroke="black" cx="114" cy="-768.49" rx="27" ry="18"/>
<text text-anchor="middle" x="114" y="-764.79" font-family="Times-Roman" font-size="14.00">I</text>
</g>
<!-- PiR0&#45;&gt;I1 -->
<g id="edge15" class="edge">
<title>PiR0&#45;&gt;I1</title>
<g id="a_edge15"><a xlink:title="e43">
<path fill="none" stroke="red" d="M110.24,-822.19C110.79,-814.48 111.45,-805.21 112.06,-796.61"/>
<polygon fill="red" stroke="red" points="115.56,-796.82 112.78,-786.6 108.57,-796.32 115.56,-796.82"/>
</a>
</g>
</g>
<!-- !c0 -->
<g id="node6" class="node">
<title>!c0</title>
<ellipse fill="none" stroke="black" cx="113" cy="-336.49" rx="27" ry="18"/>
<text text-anchor="middle" x="113" y="-332.79" font-family="Times-Roman" font-size="14.00">!c</text>
</g>
<!-- !c0&#45;&gt;PiR0 -->
<g id="edge14" class="edge">
<title>!c0&#45;&gt;PiR0</title>
<g id="a_edge14"><a xlink:title="e41">
<path fill="none" stroke="blue" d="M94.69,-361.09C88.6,-369.91 82.28,-380.27 78,-390.49 62.36,-427.8 59,-439.05 59,-479.49 59,-697.49 59,-697.49 59,-697.49 59,-737.94 63.38,-748.78 78,-786.49 83.16,-799.81 91.41,-813.71 98.11,-823.93"/>
<polygon fill="blue" stroke="blue" points="97.62,-363.01 100.62,-352.85 91.94,-358.92 97.62,-363.01"/>
</a>
</g>
</g>
<!-- !d0 -->
<g id="node7" class="node">
<title>!d0</title>
<ellipse fill="none" stroke="black" cx="205" cy="-480.49" rx="27" ry="18"/>
<text text-anchor="middle" x="205" y="-476.79" font-family="Times-Roman" font-size="14.00">!d</text>
</g>
<!-- !d0&#45;&gt;!c0 -->
<g id="edge16" class="edge">
<title>!d0&#45;&gt;!c0</title>
<g id="a_edge16"><a xlink:title="e46">
<path fill="none" stroke="blue" d="M218.83,-454.29C227.14,-435.43 234.01,-409.69 222,-390.49 221.36,-389.47 165.94,-362.83 134.38,-347.72"/>
<polygon fill="blue" stroke="blue" points="215.6,-452.92 214.44,-463.45 221.92,-455.94 215.6,-452.92"/>
</a>
</g>
</g>
<!-- PiL0 -->
<g id="node8" class="node">
<title>PiL0</title>
<ellipse fill="none" stroke="black" cx="186" cy="-624.49" rx="27" ry="18"/>
<text text-anchor="middle" x="186" y="-620.79" font-family="Times-Roman" font-size="14.00">PiL</text>
</g>
<!-- PiL0&#45;&gt;!d0 -->
<g id="edge18" class="edge">
<title>PiL0&#45;&gt;!d0</title>
<g id="a_edge18"><a xlink:title="e49">
<path fill="none" stroke="blue" d="M184.59,-596.1C184.18,-578.4 184.57,-554.94 188,-534.49 190.08,-522.11 194.43,-508.63 198.21,-498.37"/>
<polygon fill="blue" stroke="blue" points="181.1,-596.42 184.93,-606.3 188.1,-596.18 181.1,-596.42"/>
</a>
</g>
</g>
<!-- !p1 -->
<g id="node14" class="node">
<title>!p1</title>
<ellipse fill="none" stroke="black" cx="224" cy="-552.49" rx="27" ry="18"/>
<text text-anchor="middle" x="224" y="-548.79" font-family="Times-Roman" font-size="14.00">!p</text>
</g>
<!-- PiL0&#45;&gt;!p1 -->
<g id="edge20" class="edge">
<title>PiL0&#45;&gt;!p1</title>
<g id="a_edge20"><a xlink:title="e53">
<path fill="none" stroke="red" d="M194.81,-607.26C199.42,-598.78 205.16,-588.21 210.32,-578.69"/>
<polygon fill="red" stroke="red" points="213.54,-580.1 215.23,-569.64 207.39,-576.76 213.54,-580.1"/>
</a>
</g>
</g>
<!-- PiL1 -->
<g id="node9" class="node">
<title>PiL1</title>
<ellipse fill="none" stroke="black" cx="114" cy="-696.49" rx="27" ry="18"/>
<text text-anchor="middle" x="114" y="-692.79" font-family="Times-Roman" font-size="14.00">PiL</text>
</g>
<!-- PiL1&#45;&gt;PiL0 -->
<g id="edge19" class="edge">
<title>PiL1&#45;&gt;PiL0</title>
<g id="a_edge19"><a xlink:title="e51">
<path fill="none" stroke="blue" d="M136.04,-674.06C147.45,-662.97 161.07,-649.73 171.2,-639.88"/>
<polygon fill="blue" stroke="blue" points="133.3,-671.85 128.57,-681.33 138.18,-676.87 133.3,-671.85"/>
</a>
</g>
</g>
<!-- !p3 -->
<g id="node19" class="node">
<title>!p3</title>
<ellipse fill="none" stroke="black" cx="114" cy="-624.49" rx="27" ry="18"/>
<text text-anchor="middle" x="114" y="-620.79" font-family="Times-Roman" font-size="14.00">!p</text>
</g>
<!-- PiL1&#45;&gt;!p3 -->
<g id="edge22" class="edge">
<title>PiL1&#45;&gt;!p3</title>
<g id="a_edge22"><a xlink:title="e57">
<path fill="none" stroke="red" d="M114,-678.19C114,-670.48 114,-661.21 114,-652.61"/>
<polygon fill="red" stroke="red" points="117.5,-652.6 114,-642.6 110.5,-652.6 117.5,-652.6"/>
</a>
</g>
</g>
<!-- I1&#45;&gt;PiL1 -->
<g id="edge21" class="edge">
<title>I1&#45;&gt;PiL1</title>
<g id="a_edge21"><a xlink:title="e55">
<path fill="none" stroke="blue" d="M114,-740.16C114,-731.55 114,-722.29 114,-714.6"/>
<polygon fill="blue" stroke="blue" points="110.5,-740.19 114,-750.19 117.5,-740.19 110.5,-740.19"/>
</a>
</g>
</g>
<!-- PiR1 -->
<g id="node11" class="node">
<title>PiR1</title>
<ellipse fill="none" stroke="black" cx="103" cy="-162" rx="27" ry="18"/>
<text text-anchor="middle" x="103" y="-158.3" font-family="Times-Roman" font-size="14.00">PiR</text>
</g>
<!-- I2 -->
<g id="node13" class="node">
<title>I2</title>
<ellipse fill="none" stroke="black" cx="131" cy="-90" rx="27" ry="18"/>
<text text-anchor="middle" x="131" y="-86.3" font-family="Times-Roman" font-size="14.00">I</text>
</g>
<!-- PiR1&#45;&gt;I2 -->
<g id="edge25" class="edge">
<title>PiR1&#45;&gt;I2</title>
<g id="a_edge25"><a xlink:title="e69">
<path fill="none" stroke="red" d="M109.64,-144.41C112.91,-136.22 116.94,-126.14 120.62,-116.95"/>
<polygon fill="red" stroke="red" points="123.95,-118.05 124.41,-107.47 117.45,-115.45 123.95,-118.05"/>
</a>
</g>
</g>
<!-- !d1 -->
<g id="node12" class="node">
<title>!d1</title>
<ellipse fill="none" stroke="black" cx="103" cy="-18" rx="27" ry="18"/>
<text text-anchor="middle" x="103" y="-14.3" font-family="Times-Roman" font-size="14.00">!d</text>
</g>
<!-- !d1&#45;&gt;PiR1 -->
<g id="edge24" class="edge">
<title>!d1&#45;&gt;PiR1</title>
<g id="a_edge24"><a xlink:title="e67">
<path fill="none" stroke="blue" d="M98.12,-46.04C96.84,-54.34 95.64,-63.52 95,-72 93.8,-87.96 93.8,-92.04 95,-108 95.91,-120.06 97.95,-133.54 99.75,-143.89"/>
<polygon fill="blue" stroke="blue" points="101.58,-46.55 99.75,-36.11 94.68,-45.41 101.58,-46.55"/>
</a>
</g>
</g>
<!-- I2&#45;&gt;!d1 -->
<g id="edge26" class="edge">
<title>I2&#45;&gt;!d1</title>
<g id="a_edge26"><a xlink:title="e79">
<path fill="none" stroke="blue" d="M120.56,-62.91C116.89,-53.72 112.86,-43.65 109.59,-35.47"/>
<polygon fill="blue" stroke="blue" points="117.4,-64.43 124.36,-72.41 123.9,-61.83 117.4,-64.43"/>
</a>
</g>
</g>
<!-- PiR2 -->
<g id="node15" class="node">
<title>PiR2</title>
<ellipse fill="none" stroke="black" cx="334" cy="-480.49" rx="27" ry="18"/>
<text text-anchor="middle" x="334" y="-476.79" font-family="Times-Roman" font-size="14.00">PiR</text>
</g>
<!-- !p1&#45;&gt;PiR2 -->
<g id="edge28" class="edge">
<title>!p1&#45;&gt;PiR2</title>
<g id="a_edge28"><a xlink:title="e85">
<path fill="none" stroke="red" d="M243.16,-539.3C260.67,-528.16 286.76,-511.56 306.49,-499"/>
<polygon fill="red" stroke="red" points="308.5,-501.87 315.06,-493.55 304.74,-495.96 308.5,-501.87"/>
</a>
</g>
</g>
<!-- I3 -->
<g id="node17" class="node">
<title>I3</title>
<ellipse fill="none" stroke="black" cx="380" cy="-408.49" rx="27" ry="18"/>
<text text-anchor="middle" x="380" y="-404.79" font-family="Times-Roman" font-size="14.00">I</text>
</g>
<!-- PiR2&#45;&gt;I3 -->
<g id="edge30" class="edge">
<title>PiR2&#45;&gt;I3</title>
<g id="a_edge30"><a xlink:title="e89">
<path fill="none" stroke="red" d="M344.44,-463.61C350.2,-454.84 357.48,-443.76 363.96,-433.91"/>
<polygon fill="red" stroke="red" points="367.04,-435.6 369.6,-425.32 361.19,-431.75 367.04,-435.6"/>
</a>
</g>
</g>
<!-- !d2 -->
<g id="node16" class="node">
<title>!d2</title>
<ellipse fill="none" stroke="black" cx="352" cy="-336.49" rx="27" ry="18"/>
<text text-anchor="middle" x="352" y="-332.79" font-family="Times-Roman" font-size="14.00">!d</text>
</g>
<!-- !d2&#45;&gt;PiR2 -->
<g id="edge29" class="edge">
<title>!d2&#45;&gt;PiR2</title>
<g id="a_edge29"><a xlink:title="e87">
<path fill="none" stroke="blue" d="M347.71,-364.59C346.45,-372.89 345.11,-382.06 344,-390.49 340.71,-415.47 337.58,-444.47 335.73,-462.41"/>
<polygon fill="blue" stroke="blue" points="351.17,-365.07 349.24,-354.66 344.26,-364.01 351.17,-365.07"/>
</a>
</g>
</g>
<!-- I3&#45;&gt;!d2 -->
<g id="edge31" class="edge">
<title>I3&#45;&gt;!d2</title>
<g id="a_edge31"><a xlink:title="e91">
<path fill="none" stroke="blue" d="M369.56,-381.41C365.89,-372.21 361.86,-362.14 358.59,-353.96"/>
<polygon fill="blue" stroke="blue" points="366.4,-382.92 373.36,-390.91 372.9,-380.32 366.4,-382.92"/>
</a>
</g>
</g>
<!-- !p2 -->
<g id="node18" class="node">
<title>!p2</title>
<ellipse fill="none" stroke="black" cx="146" cy="-1272.49" rx="27" ry="18"/>
<text text-anchor="middle" x="146" y="-1268.79" font-family="Times-Roman" font-size="14.00">!p</text>
</g>
<!-- I4 -->
<g id="node22" class="node">
<title>I4</title>
<ellipse fill="none" stroke="black" cx="138" cy="-1200.49" rx="27" ry="18"/>
<text text-anchor="middle" x="138" y="-1196.79" font-family="Times-Roman" font-size="14.00">I</text>
</g>
<!-- !p2&#45;&gt;I4 -->
<g id="edge32" class="edge">
<title>!p2&#45;&gt;I4</title>
<g id="a_edge32"><a xlink:title="e92">
<path fill="none" stroke="red" d="M144.02,-1254.19C143.14,-1246.48 142.08,-1237.21 141.1,-1228.61"/>
<polygon fill="red" stroke="red" points="144.57,-1228.14 139.95,-1218.6 137.61,-1228.93 144.57,-1228.14"/>
</a>
</g>
</g>
<!-- I5 -->
<g id="node25" class="node">
<title>I5</title>
<ellipse fill="none" stroke="black" cx="114" cy="-552.49" rx="27" ry="18"/>
<text text-anchor="middle" x="114" y="-548.79" font-family="Times-Roman" font-size="14.00">I</text>
</g>
<!-- !p3&#45;&gt;I5 -->
<g id="edge33" class="edge">
<title>!p3&#45;&gt;I5</title>
<g id="a_edge33"><a xlink:title="e95">
<path fill="none" stroke="red" d="M114,-606.19C114,-598.48 114,-589.21 114,-580.61"/>
<polygon fill="red" stroke="red" points="117.5,-580.6 114,-570.6 110.5,-580.6 117.5,-580.6"/>
</a>
</g>
</g>
<!-- !d3 -->
<g id="node20" class="node">
<title>!d3</title>
<ellipse fill="none" stroke="black" cx="109" cy="-1056.49" rx="27" ry="18"/>
<text text-anchor="middle" x="109" y="-1052.79" font-family="Times-Roman" font-size="14.00">!d</text>
</g>
<!-- !d3&#45;&gt;Cut0 -->
<g id="edge9" class="edge">
<title>!d3&#45;&gt;Cut0</title>
<g id="a_edge9"><a xlink:title="e23">
<path fill="none" stroke="blue" d="M109,-1028.16C109,-1019.55 109,-1010.29 109,-1002.6"/>
<polygon fill="blue" stroke="blue" points="105.5,-1028.19 109,-1038.19 112.5,-1028.19 105.5,-1028.19"/>
</a>
</g>
</g>
<!-- PiL2 -->
<g id="node21" class="node">
<title>PiL2</title>
<ellipse fill="none" stroke="black" cx="109" cy="-1128.49" rx="27" ry="18"/>
<text text-anchor="middle" x="109" y="-1124.79" font-family="Times-Roman" font-size="14.00">PiL</text>
</g>
<!-- PiL2&#45;&gt;!d3 -->
<g id="edge34" class="edge">
<title>PiL2&#45;&gt;!d3</title>
<g id="a_edge34"><a xlink:title="e96">
<path fill="none" stroke="blue" d="M109,-1100.16C109,-1091.55 109,-1082.29 109,-1074.6"/>
<polygon fill="blue" stroke="blue" points="105.5,-1100.19 109,-1110.19 112.5,-1100.19 105.5,-1100.19"/>
</a>
</g>
</g>
<!-- !p4 -->
<g id="node27" class="node">
<title>!p4</title>
<ellipse fill="none" stroke="black" cx="27" cy="-984.49" rx="27" ry="18"/>
<text text-anchor="middle" x="27" y="-980.79" font-family="Times-Roman" font-size="14.00">!p</text>
</g>
<!-- PiL2&#45;&gt;!p4 -->
<g id="edge1" class="edge">
<title>PiL2&#45;&gt;!p4</title>
<g id="a_edge1"><a xlink:title="e100">
<path fill="none" stroke="red" d="M97.79,-1112.05C90.41,-1101.64 80.74,-1087.49 73,-1074.49 60.62,-1053.69 48.1,-1029.19 39.25,-1011.17"/>
<polygon fill="red" stroke="red" points="42.26,-1009.35 34.74,-1001.89 35.97,-1012.41 42.26,-1009.35"/>
</a>
</g>
</g>
<!-- I4&#45;&gt;PiL2 -->
<g id="edge35" class="edge">
<title>I4&#45;&gt;PiL2</title>
<g id="a_edge35"><a xlink:title="e98">
<path fill="none" stroke="blue" d="M127.19,-1173.41C123.38,-1164.21 119.21,-1154.14 115.82,-1145.96"/>
<polygon fill="blue" stroke="blue" points="124.07,-1175.01 131.13,-1182.91 130.53,-1172.33 124.07,-1175.01"/>
</a>
</g>
</g>
<!-- !d4 -->
<g id="node23" class="node">
<title>!d4</title>
<ellipse fill="none" stroke="black" cx="114" cy="-408.49" rx="27" ry="18"/>
<text text-anchor="middle" x="114" y="-404.79" font-family="Times-Roman" font-size="14.00">!d</text>
</g>
<!-- !d4&#45;&gt;!c0 -->
<g id="edge17" class="edge">
<title>!d4&#45;&gt;!c0</title>
<g id="a_edge17"><a xlink:title="e47">
<path fill="none" stroke="blue" d="M113.61,-380.16C113.49,-371.55 113.35,-362.29 113.24,-354.6"/>
<polygon fill="blue" stroke="blue" points="110.11,-380.24 113.75,-390.19 117.11,-380.14 110.11,-380.24"/>
</a>
</g>
</g>
<!-- PiL3 -->
<g id="node24" class="node">
<title>PiL3</title>
<ellipse fill="none" stroke="black" cx="114" cy="-480.49" rx="27" ry="18"/>
<text text-anchor="middle" x="114" y="-476.79" font-family="Times-Roman" font-size="14.00">PiL</text>
</g>
<!-- PiL3&#45;&gt;!d4 -->
<g id="edge2" class="edge">
<title>PiL3&#45;&gt;!d4</title>
<g id="a_edge2"><a xlink:title="e103">
<path fill="none" stroke="blue" d="M114,-452.16C114,-443.55 114,-434.29 114,-426.6"/>
<polygon fill="blue" stroke="blue" points="110.5,-452.19 114,-462.19 117.5,-452.19 110.5,-452.19"/>
</a>
</g>
</g>
<!-- !p5 -->
<g id="node29" class="node">
<title>!p5</title>
<ellipse fill="none" stroke="black" cx="186" cy="-408.49" rx="27" ry="18"/>
<text text-anchor="middle" x="186" y="-404.79" font-family="Times-Roman" font-size="14.00">!p</text>
</g>
<!-- PiL3&#45;&gt;!p5 -->
<g id="edge4" class="edge">
<title>PiL3&#45;&gt;!p5</title>
<g id="a_edge4"><a xlink:title="e107">
<path fill="none" stroke="red" d="M128.57,-465.33C138.75,-455.43 152.52,-442.04 164.03,-430.85"/>
<polygon fill="red" stroke="red" points="166.47,-433.36 171.2,-423.88 161.59,-428.34 166.47,-433.36"/>
</a>
</g>
</g>
<!-- I5&#45;&gt;PiL3 -->
<g id="edge3" class="edge">
<title>I5&#45;&gt;PiL3</title>
<g id="a_edge3"><a xlink:title="e105">
<path fill="none" stroke="blue" d="M114,-524.16C114,-515.55 114,-506.29 114,-498.6"/>
<polygon fill="blue" stroke="blue" points="110.5,-524.19 114,-534.19 117.5,-524.19 110.5,-524.19"/>
</a>
</g>
</g>
<!-- PiL4&#45;&gt;!p2 -->
<g id="edge11" class="edge">
<title>PiL4&#45;&gt;!p2</title>
<g id="a_edge11"><a xlink:title="e34">
<path fill="none" stroke="red" d="M166.6,-1326.91C163.49,-1318.83 159.67,-1308.93 156.17,-1299.85"/>
<polygon fill="red" stroke="red" points="159.4,-1298.52 152.54,-1290.45 152.87,-1301.04 159.4,-1298.52"/>
</a>
</g>
</g>
<!-- Cut1 -->
<g id="node31" class="node">
<title>Cut1</title>
<ellipse fill="none" stroke="black" cx="256" cy="-1200.49" rx="27" ry="18"/>
<text text-anchor="middle" x="256" y="-1196.79" font-family="Times-Roman" font-size="14.00">Cut</text>
</g>
<!-- PiL4&#45;&gt;Cut1 -->
<g id="edge27" class="edge">
<title>PiL4&#45;&gt;Cut1</title>
<g id="a_edge27"><a xlink:title="e83">
<path fill="none" stroke="blue" stroke-width="2" d="M187.47,-1318.75C204.44,-1289.7 232.11,-1242.37 246.55,-1217.67"/>
<polygon fill="blue" stroke="blue" stroke-width="2" points="184.38,-1317.08 182.36,-1327.48 190.43,-1320.61 184.38,-1317.08"/>
</a>
</g>
</g>
<!-- Dup2_0 -->
<g id="node28" class="node">
<title>Dup2_0</title>
<ellipse fill="none" stroke="black" cx="103" cy="-249.25" rx="29.47" ry="29.47"/>
<ellipse fill="none" stroke="black" cx="103" cy="-249.25" rx="33.5" ry="33.5"/>
<text text-anchor="middle" x="103" y="-245.55" font-family="Times-Roman" font-size="14.00">Dup</text>
</g>
<!-- !p4&#45;&gt;Dup2_0 -->
<g id="edge5" class="edge">
<title>!p4&#45;&gt;Dup2_0</title>
<g id="a_edge5"><a xlink:title="e108">
<path fill="none" stroke="red" d="M25.81,-966.46C24.07,-939.81 21,-886.65 21,-841.49 21,-841.49 21,-841.49 21,-407.49 21,-359.12 51.89,-310.89 75.75,-280.85"/>
<ellipse fill="red" stroke="red" cx="78.5" cy="-277.46" rx="4" ry="4"/>
</a>
</g>
</g>
<!-- Dup2_0&#45;&gt;PiR1 -->
<g id="edge23" class="edge">
<title>Dup2_0&#45;&gt;PiR1</title>
<g id="a_edge23"><a xlink:title="e59">
<path fill="none" stroke="red" d="M103,-215.53C103,-207.27 103,-198.48 103,-190.5"/>
<polygon fill="red" stroke="red" points="106.5,-190.25 103,-180.25 99.5,-190.25 106.5,-190.25"/>
</a>
</g>
</g>
<!-- Dup3_0 -->
<g id="node30" class="node">
<title>Dup3_0</title>
<ellipse fill="none" stroke="black" cx="187" cy="-336.49" rx="29.5" ry="18"/>
<text text-anchor="middle" x="187" y="-332.79" font-family="Times-Roman" font-size="14.00">Dup</text>
</g>
<!-- !p5&#45;&gt;Dup3_0 -->
<g id="edge8" class="edge">
<title>!p5&#45;&gt;Dup3_0</title>
<g id="a_edge8"><a xlink:title="e111">
<path fill="none" stroke="red" d="M186.25,-390.19C186.37,-381.88 186.51,-371.77 186.64,-362.64"/>
<ellipse fill="none" stroke="red" cx="186.7" cy="-358.6" rx="4" ry="4"/>
</a>
</g>
</g>
<!-- Dup3_0&#45;&gt;Dup2_0 -->
<g id="edge6" class="edge">
<title>Dup3_0&#45;&gt;Dup2_0</title>
<g id="a_edge6"><a xlink:title="e109">
<path fill="none" stroke="red" stroke-width="2" d="M172.37,-320.65C161.18,-309.29 145.41,-293.28 131.72,-279.4"/>
<ellipse fill="none" stroke="red" stroke-width="2" cx="128.82" cy="-276.45" rx="4" ry="4"/>
</a>
</g>
</g>
<!-- Cut1&#45;&gt;Dup3_0 -->
<g id="edge7" class="edge">
<title>Cut1&#45;&gt;Dup3_0</title>
<g id="a_edge7"><a xlink:title="e110">
<path fill="none" stroke="red" stroke-width="2" d="M260.54,-1182.59C267.25,-1156.12 279,-1103.2 279,-1057.49 279,-1057.49 279,-1057.49 279,-479.49 279,-428.91 237.38,-382.13 210.12,-356.92"/>
<ellipse fill="red" stroke="red" stroke-width="2" cx="206.84" cy="-353.96" rx="4" ry="4"/>
</a>
</g>
</g>
</g>
</svg>
