<?xml version="1.0" encoding="UTF-8" standalone="no"?>
<!DOCTYPE svg PUBLIC "-//W3C//DTD SVG 1.1//EN"
 "http://www.w3.org/Graphics/SVG/1.1/DTD/svg11.dtd">
<!-- Generated by graphviz version 2.43.0 (0)
 -->
<!-- Title: %3 Pages: 1 -->
<svg width="475pt" height="1509pt"
 viewBox="0.00 0.00 475.00 1509.30" xmlns="http://www.w3.org/2000/svg" xmlns:xlink="http://www.w3.org/1999/xlink">
<g id="graph0" class="graph" transform="scale(1 1) rotate(0) translate(4 1505.3)">
<title>%3</title>
<polygon fill="white" stroke="transparent" points="-4,4 -4,-1505.3 471,-1505.3 471,4 -4,4"/>
<!-- Root0 -->
<g id="node1" class="node">
<title>Root0</title>
<ellipse fill="none" stroke="black" cx="169" cy="-1483.3" rx="30.59" ry="18"/>
<text text-anchor="middle" x="169" y="-1479.6" font-family="Times-Roman" font-size="14.00">Root</text>
</g>
<!-- I2 -->
<g id="node10" class="node">
<title>I2</title>
<ellipse fill="none" stroke="black" cx="169" cy="-1411.3" rx="27" ry="18"/>
<text text-anchor="middle" x="169" y="-1407.6" font-family="Times-Roman" font-size="14.00">I</text>
</g>
<!-- Root0&#45;&gt;I2 -->
<g id="edge46" class="edge">
<title>Root0&#45;&gt;I2</title>
<g id="a_edge46"><a xlink:title="rettop">
<path fill="none" stroke="red" stroke-width="2" d="M169,-1464.99C169,-1457.28 169,-1448.01 169,-1439.41"/>
<polygon fill="red" stroke="red" stroke-width="2" points="172.5,-1439.4 169,-1429.4 165.5,-1439.4 172.5,-1439.4"/>
</a>
</g>
</g>
<!-- !p0 -->
<g id="node2" class="node">
<title>!p0</title>
<ellipse fill="none" stroke="black" cx="216" cy="-1026" rx="27" ry="18"/>
<text text-anchor="middle" x="216" y="-1022.3" font-family="Times-Roman" font-size="14.00">!p</text>
</g>
<!-- I0 -->
<g id="node3" class="node">
<title>I0</title>
<ellipse fill="none" stroke="black" cx="287" cy="-954" rx="27" ry="18"/>
<text text-anchor="middle" x="287" y="-950.3" font-family="Times-Roman" font-size="14.00">I</text>
</g>
<!-- !p0&#45;&gt;I0 -->
<g id="edge50" class="edge">
<title>!p0&#45;&gt;I0</title>
<g id="a_edge50"><a xlink:title="yli">
<path fill="none" stroke="red" d="M230.71,-1010.5C240.61,-1000.73 253.84,-987.69 264.99,-976.7"/>
<polygon fill="red" stroke="red" points="267.64,-979 272.31,-969.49 262.73,-974.01 267.64,-979"/>
</a>
</g>
</g>
<!-- Cut0 -->
<g id="node6" class="node">
<title>Cut0</title>
<ellipse fill="none" stroke="black" cx="215" cy="-954" rx="27" ry="18"/>
<text text-anchor="middle" x="215" y="-950.3" font-family="Times-Roman" font-size="14.00">Cut</text>
</g>
<!-- !p0&#45;&gt;Cut0 -->
<g id="edge47" class="edge">
<title>!p0&#45;&gt;Cut0</title>
<g id="a_edge47"><a xlink:title="y2">
<path fill="none" stroke="blue" d="M215.61,-997.67C215.49,-989.05 215.35,-979.79 215.24,-972.1"/>
<polygon fill="blue" stroke="blue" points="212.11,-997.75 215.75,-1007.7 219.11,-997.65 212.11,-997.75"/>
</a>
</g>
</g>
<!-- !d0 -->
<g id="node4" class="node">
<title>!d0</title>
<ellipse fill="none" stroke="black" cx="314" cy="-882" rx="27" ry="18"/>
<text text-anchor="middle" x="314" y="-878.3" font-family="Times-Roman" font-size="14.00">!d</text>
</g>
<!-- I0&#45;&gt;!d0 -->
<g id="edge49" class="edge">
<title>I0&#45;&gt;!d0</title>
<g id="a_edge49"><a xlink:title="yl2">
<path fill="none" stroke="blue" d="M297.01,-927.06C300.5,-918.01 304.32,-908.09 307.46,-899.96"/>
<polygon fill="blue" stroke="blue" points="293.73,-925.82 293.4,-936.41 300.26,-928.34 293.73,-925.82"/>
</a>
</g>
</g>
<!-- !d0&#45;&gt;!p0 -->
<g id="edge48" class="edge">
<title>!d0&#45;&gt;!p0</title>
<g id="a_edge48"><a xlink:title="yj">
<path fill="none" stroke="blue" d="M324.63,-908.92C330.56,-927.78 334.66,-953.21 323,-972 305.4,-1000.36 267.62,-1014.01 242,-1020.24"/>
<polygon fill="blue" stroke="blue" points="327.93,-907.75 321.34,-899.46 321.32,-910.06 327.93,-907.75"/>
</a>
</g>
</g>
<!-- !p1 -->
<g id="node5" class="node">
<title>!p1</title>
<ellipse fill="none" stroke="black" cx="233" cy="-882" rx="27" ry="18"/>
<text text-anchor="middle" x="233" y="-878.3" font-family="Times-Roman" font-size="14.00">!p</text>
</g>
<!-- I1 -->
<g id="node9" class="node">
<title>I1</title>
<ellipse fill="none" stroke="black" cx="213" cy="-810" rx="27" ry="18"/>
<text text-anchor="middle" x="213" y="-806.3" font-family="Times-Roman" font-size="14.00">I</text>
</g>
<!-- !p1&#45;&gt;I1 -->
<g id="edge1" class="edge">
<title>!p1&#45;&gt;I1</title>
<g id="a_edge1"><a xlink:title="e11">
<path fill="none" stroke="red" d="M228.16,-864.05C225.9,-856.14 223.15,-846.54 220.63,-837.69"/>
<polygon fill="red" stroke="red" points="223.91,-836.44 217.8,-827.79 217.18,-838.37 223.91,-836.44"/>
</a>
</g>
</g>
<!-- Dup2_0 -->
<g id="node37" class="node">
<title>Dup2_0</title>
<ellipse fill="none" stroke="black" cx="339" cy="-810" rx="29.5" ry="18"/>
<text text-anchor="middle" x="339" y="-806.3" font-family="Times-Roman" font-size="14.00">Dup</text>
</g>
<!-- !p1&#45;&gt;Dup2_0 -->
<g id="edge3" class="edge">
<title>!p1&#45;&gt;Dup2_0</title>
<g id="a_edge3"><a xlink:title="e15">
<path fill="none" stroke="blue" d="M259.84,-863.28C278.49,-850.96 302.92,-834.83 319.67,-823.76"/>
<polygon fill="blue" stroke="blue" points="257.88,-860.38 251.46,-868.81 261.74,-866.22 257.88,-860.38"/>
</a>
</g>
</g>
<!-- Cut0&#45;&gt;!p1 -->
<g id="edge45" class="edge">
<title>Cut0&#45;&gt;!p1</title>
<g id="a_edge45"><a xlink:title="e9">
<path fill="none" stroke="red" d="M219.36,-936.05C221.39,-928.14 223.86,-918.54 226.14,-909.69"/>
<polygon fill="red" stroke="red" points="229.58,-910.35 228.68,-899.79 222.8,-908.6 229.58,-910.35"/>
</a>
</g>
</g>
<!-- !d1 -->
<g id="node7" class="node">
<title>!d1</title>
<ellipse fill="none" stroke="black" cx="268" cy="-666" rx="27" ry="18"/>
<text text-anchor="middle" x="268" y="-662.3" font-family="Times-Roman" font-size="14.00">!d</text>
</g>
<!-- !d1&#45;&gt;!p1 -->
<g id="edge2" class="edge">
<title>!d1&#45;&gt;!p1</title>
<g id="a_edge2"><a xlink:title="e13">
<path fill="none" stroke="blue" d="M266.26,-694.06C263.87,-726.25 258.69,-781.46 249,-828 246.45,-840.23 242.37,-853.71 238.96,-864.01"/>
<polygon fill="blue" stroke="blue" points="269.76,-694.3 266.97,-684.08 262.77,-693.81 269.76,-694.3"/>
</a>
</g>
</g>
<!-- PiL0 -->
<g id="node8" class="node">
<title>PiL0</title>
<ellipse fill="none" stroke="black" cx="213" cy="-738" rx="27" ry="18"/>
<text text-anchor="middle" x="213" y="-734.3" font-family="Times-Roman" font-size="14.00">PiL</text>
</g>
<!-- PiL0&#45;&gt;!d1 -->
<g id="edge4" class="edge">
<title>PiL0&#45;&gt;!d1</title>
<g id="a_edge4"><a xlink:title="e17">
<path fill="none" stroke="blue" d="M231.17,-713.87C239.37,-703.44 248.81,-691.42 256.09,-682.16"/>
<polygon fill="blue" stroke="blue" points="228.36,-711.79 224.93,-721.81 233.86,-716.11 228.36,-711.79"/>
</a>
</g>
</g>
<!-- !p3 -->
<g id="node24" class="node">
<title>!p3</title>
<ellipse fill="none" stroke="black" cx="196" cy="-666" rx="27" ry="18"/>
<text text-anchor="middle" x="196" y="-662.3" font-family="Times-Roman" font-size="14.00">!p</text>
</g>
<!-- PiL0&#45;&gt;!p3 -->
<g id="edge6" class="edge">
<title>PiL0&#45;&gt;!p3</title>
<g id="a_edge6"><a xlink:title="e21">
<path fill="none" stroke="red" d="M208.88,-720.05C206.99,-712.26 204.7,-702.82 202.58,-694.08"/>
<polygon fill="red" stroke="red" points="205.96,-693.17 200.2,-684.28 199.15,-694.82 205.96,-693.17"/>
</a>
</g>
</g>
<!-- I1&#45;&gt;PiL0 -->
<g id="edge5" class="edge">
<title>I1&#45;&gt;PiL0</title>
<g id="a_edge5"><a xlink:title="e19">
<path fill="none" stroke="blue" d="M213,-781.67C213,-773.05 213,-763.79 213,-756.1"/>
<polygon fill="blue" stroke="blue" points="209.5,-781.7 213,-791.7 216.5,-781.7 209.5,-781.7"/>
</a>
</g>
</g>
<!-- PiL4 -->
<g id="node23" class="node">
<title>PiL4</title>
<ellipse fill="none" stroke="black" cx="169" cy="-1339.3" rx="27" ry="18"/>
<text text-anchor="middle" x="169" y="-1335.6" font-family="Times-Roman" font-size="14.00">PiL</text>
</g>
<!-- I2&#45;&gt;PiL4 -->
<g id="edge10" class="edge">
<title>I2&#45;&gt;PiL4</title>
<g id="a_edge10"><a xlink:title="e32">
<path fill="none" stroke="blue" stroke-width="2" d="M169,-1382.96C169,-1374.35 169,-1365.09 169,-1357.4"/>
<polygon fill="blue" stroke="blue" stroke-width="2" points="165.5,-1382.99 169,-1392.99 172.5,-1382.99 165.5,-1382.99"/>
</a>
</g>
</g>
<!-- !p2 -->
<g id="node11" class="node">
<title>!p2</title>
<ellipse fill="none" stroke="black" cx="340" cy="-666" rx="27" ry="18"/>
<text text-anchor="middle" x="340" y="-662.3" font-family="Times-Roman" font-size="14.00">!p</text>
</g>
<!-- PiR0 -->
<g id="node13" class="node">
<title>PiR0</title>
<ellipse fill="none" stroke="black" cx="277" cy="-594" rx="27" ry="18"/>
<text text-anchor="middle" x="277" y="-590.3" font-family="Times-Roman" font-size="14.00">PiR</text>
</g>
<!-- !p2&#45;&gt;PiR0 -->
<g id="edge14" class="edge">
<title>!p2&#45;&gt;PiR0</title>
<g id="a_edge14"><a xlink:title="e39">
<path fill="none" stroke="red" d="M326.64,-650.15C318.12,-640.69 306.91,-628.24 297.31,-617.56"/>
<polygon fill="red" stroke="red" points="299.63,-614.92 290.34,-609.82 294.43,-619.6 299.63,-614.92"/>
</a>
</g>
</g>
<!-- Cut1 -->
<g id="node12" class="node">
<title>Cut1</title>
<ellipse fill="none" stroke="black" cx="339" cy="-738" rx="27" ry="18"/>
<text text-anchor="middle" x="339" y="-734.3" font-family="Times-Roman" font-size="14.00">Cut</text>
</g>
<!-- Cut1&#45;&gt;!p2 -->
<g id="edge13" class="edge">
<title>Cut1&#45;&gt;!p2</title>
<g id="a_edge13"><a xlink:title="e37">
<path fill="none" stroke="red" d="M339.25,-719.7C339.36,-711.98 339.49,-702.71 339.61,-694.11"/>
<polygon fill="red" stroke="red" points="343.11,-694.15 339.76,-684.1 336.11,-694.05 343.11,-694.15"/>
</a>
</g>
</g>
<!-- I3 -->
<g id="node19" class="node">
<title>I3</title>
<ellipse fill="none" stroke="black" cx="216" cy="-522" rx="27" ry="18"/>
<text text-anchor="middle" x="216" y="-518.3" font-family="Times-Roman" font-size="14.00">I</text>
</g>
<!-- PiR0&#45;&gt;I3 -->
<g id="edge16" class="edge">
<title>PiR0&#45;&gt;I3</title>
<g id="a_edge16"><a xlink:title="e43">
<path fill="none" stroke="red" d="M264.06,-578.15C255.81,-568.69 244.96,-556.24 235.66,-545.56"/>
<polygon fill="red" stroke="red" points="238.13,-543.06 228.92,-537.82 232.85,-547.66 238.13,-543.06"/>
</a>
</g>
</g>
<!-- !c0 -->
<g id="node14" class="node">
<title>!c0</title>
<ellipse fill="none" stroke="black" cx="277" cy="-234" rx="27" ry="18"/>
<text text-anchor="middle" x="277" y="-230.3" font-family="Times-Roman" font-size="14.00">!c</text>
</g>
<!-- !c0&#45;&gt;PiR0 -->
<g id="edge15" class="edge">
<title>!c0&#45;&gt;PiR0</title>
<g id="a_edge15"><a xlink:title="e41">
<path fill="none" stroke="blue" d="M277,-262.08C277,-290.65 277,-337 277,-377 277,-451 277,-451 277,-451 277,-496.11 277,-549.29 277,-575.95"/>
<polygon fill="blue" stroke="blue" points="280.5,-262.05 277,-252.05 273.5,-262.05 280.5,-262.05"/>
</a>
</g>
</g>
<!-- !d2 -->
<g id="node15" class="node">
<title>!d2</title>
<ellipse fill="none" stroke="black" cx="209" cy="-306" rx="27" ry="18"/>
<text text-anchor="middle" x="209" y="-302.3" font-family="Times-Roman" font-size="14.00">!d</text>
</g>
<!-- !d2&#45;&gt;!c0 -->
<g id="edge18" class="edge">
<title>!d2&#45;&gt;!c0</title>
<g id="a_edge18"><a xlink:title="e46">
<path fill="none" stroke="blue" d="M230.1,-283.28C240.78,-272.29 253.45,-259.24 262.93,-249.49"/>
<polygon fill="blue" stroke="blue" points="227.55,-280.88 223.09,-290.5 232.57,-285.76 227.55,-280.88"/>
</a>
</g>
</g>
<!-- PiL1 -->
<g id="node16" class="node">
<title>PiL1</title>
<ellipse fill="none" stroke="black" cx="189" cy="-378" rx="27" ry="18"/>
<text text-anchor="middle" x="189" y="-374.3" font-family="Times-Roman" font-size="14.00">PiL</text>
</g>
<!-- PiL1&#45;&gt;!d2 -->
<g id="edge20" class="edge">
<title>PiL1&#45;&gt;!d2</title>
<g id="a_edge20"><a xlink:title="e49">
<path fill="none" stroke="blue" d="M196.59,-350.43C199.15,-341.48 201.92,-331.76 204.2,-323.79"/>
<polygon fill="blue" stroke="blue" points="193.22,-349.48 193.84,-360.05 199.95,-351.4 193.22,-349.48"/>
</a>
</g>
</g>
<!-- Dup0_1 -->
<g id="node21" class="node">
<title>Dup0_1</title>
<ellipse fill="none" stroke="black" cx="71" cy="-306" rx="29.5" ry="18"/>
<text text-anchor="middle" x="71" y="-302.3" font-family="Times-Roman" font-size="14.00">Dup</text>
</g>
<!-- PiL1&#45;&gt;Dup0_1 -->
<g id="edge24" class="edge">
<title>PiL1&#45;&gt;Dup0_1</title>
<g id="a_edge24"><a xlink:title="e53">
<path fill="none" stroke="red" d="M169.51,-365.44C150.11,-353.93 120.14,-336.15 98.35,-323.23"/>
<ellipse fill="none" stroke="red" cx="94.75" cy="-321.09" rx="4" ry="4"/>
</a>
</g>
</g>
<!-- PiL2 -->
<g id="node17" class="node">
<title>PiL2</title>
<ellipse fill="none" stroke="black" cx="141" cy="-1267.3" rx="27" ry="18"/>
<text text-anchor="middle" x="141" y="-1263.6" font-family="Times-Roman" font-size="14.00">PiL</text>
</g>
<!-- Dup0_2 -->
<g id="node22" class="node">
<title>Dup0_2</title>
<ellipse fill="none" stroke="black" cx="141" cy="-1182.65" rx="29.5" ry="18"/>
<text text-anchor="middle" x="141" y="-1178.95" font-family="Times-Roman" font-size="14.00">Dup</text>
</g>
<!-- PiL2&#45;&gt;Dup0_2 -->
<g id="edge27" class="edge">
<title>PiL2&#45;&gt;Dup0_2</title>
<g id="a_edge27"><a xlink:title="e56">
<path fill="none" stroke="red" d="M141,-1249.17C141,-1237.54 141,-1221.95 141,-1208.89"/>
<ellipse fill="red" stroke="red" cx="141" cy="-1204.75" rx="4" ry="4"/>
</a>
</g>
</g>
<!-- Cut4 -->
<g id="node32" class="node">
<title>Cut4</title>
<ellipse fill="none" stroke="black" cx="63" cy="-1182.65" rx="26.78" ry="26.78"/>
<ellipse fill="none" stroke="black" cx="63" cy="-1182.65" rx="30.8" ry="30.8"/>
<text text-anchor="middle" x="63" y="-1178.95" font-family="Times-Roman" font-size="14.00">Cut</text>
</g>
<!-- PiL2&#45;&gt;Cut4 -->
<g id="edge21" class="edge">
<title>PiL2&#45;&gt;Cut4</title>
<g id="a_edge21"><a xlink:title="e50">
<path fill="none" stroke="blue" stroke-width="2" d="M120.05,-1244.1C108.74,-1232.11 94.83,-1217.37 83.57,-1205.45"/>
<polygon fill="blue" stroke="blue" stroke-width="2" points="117.65,-1246.65 127.06,-1251.52 122.74,-1241.84 117.65,-1246.65"/>
</a>
</g>
</g>
<!-- PiL3 -->
<g id="node18" class="node">
<title>PiL3</title>
<ellipse fill="none" stroke="black" cx="189" cy="-450" rx="27" ry="18"/>
<text text-anchor="middle" x="189" y="-446.3" font-family="Times-Roman" font-size="14.00">PiL</text>
</g>
<!-- PiL3&#45;&gt;PiL1 -->
<g id="edge22" class="edge">
<title>PiL3&#45;&gt;PiL1</title>
<g id="a_edge22"><a xlink:title="e51">
<path fill="none" stroke="blue" d="M189,-421.67C189,-413.05 189,-403.79 189,-396.1"/>
<polygon fill="blue" stroke="blue" points="185.5,-421.7 189,-431.7 192.5,-421.7 185.5,-421.7"/>
</a>
</g>
</g>
<!-- PiL3&#45;&gt;Dup0_2 -->
<g id="edge28" class="edge">
<title>PiL3&#45;&gt;Dup0_2</title>
<g id="a_edge28"><a xlink:title="e57">
<path fill="none" stroke="red" d="M184.13,-467.92C171.93,-511.89 141,-633.54 141,-737 141,-1027 141,-1027 141,-1027 141,-1072.65 141,-1125.87 141,-1156.48"/>
<ellipse fill="none" stroke="red" cx="141" cy="-1160.48" rx="4" ry="4"/>
</a>
</g>
</g>
<!-- I3&#45;&gt;PiL3 -->
<g id="edge26" class="edge">
<title>I3&#45;&gt;PiL3</title>
<g id="a_edge26"><a xlink:title="e55">
<path fill="none" stroke="blue" d="M205.99,-495.06C202.5,-486.01 198.68,-476.09 195.54,-467.96"/>
<polygon fill="blue" stroke="blue" points="202.74,-496.34 209.6,-504.41 209.27,-493.82 202.74,-496.34"/>
</a>
</g>
</g>
<!-- Dup0_0 -->
<g id="node20" class="node">
<title>Dup0_0</title>
<ellipse fill="none" stroke="black" cx="413" cy="-738" rx="29.5" ry="18"/>
<text text-anchor="middle" x="413" y="-734.3" font-family="Times-Roman" font-size="14.00">Dup</text>
</g>
<!-- Dup0_0&#45;&gt;!c0 -->
<g id="edge19" class="edge">
<title>Dup0_0&#45;&gt;!c0</title>
<g id="a_edge19"><a xlink:title="e47">
<path fill="none" stroke="blue" d="M430.17,-715.04C436.6,-705.88 443.45,-694.86 448,-684 463.64,-646.7 467,-635.45 467,-595 467,-595 467,-595 467,-377 467,-295.67 353.91,-255.31 302.23,-241.12"/>
<ellipse fill="none" stroke="blue" cx="427.73" cy="-718.41" rx="4" ry="4"/>
</a>
</g>
</g>
<!-- Cut2 -->
<g id="node27" class="node">
<title>Cut2</title>
<ellipse fill="none" stroke="black" cx="412" cy="-666" rx="27" ry="18"/>
<text text-anchor="middle" x="412" y="-662.3" font-family="Times-Roman" font-size="14.00">Cut</text>
</g>
<!-- Dup0_0&#45;&gt;Cut2 -->
<g id="edge17" class="edge">
<title>Dup0_0&#45;&gt;Cut2</title>
<g id="a_edge17"><a xlink:title="e45">
<path fill="none" stroke="blue" d="M412.64,-711.64C412.51,-702.49 412.36,-692.38 412.24,-684.1"/>
<ellipse fill="blue" stroke="blue" cx="412.7" cy="-715.7" rx="4" ry="4"/>
</a>
</g>
</g>
<!-- !p4 -->
<g id="node25" class="node">
<title>!p4</title>
<ellipse fill="none" stroke="black" cx="71" cy="-234" rx="27" ry="18"/>
<text text-anchor="middle" x="71" y="-230.3" font-family="Times-Roman" font-size="14.00">!p</text>
</g>
<!-- Dup0_1&#45;&gt;!p4 -->
<g id="edge9" class="edge">
<title>Dup0_1&#45;&gt;!p4</title>
<g id="a_edge9"><a xlink:title="e31">
<path fill="none" stroke="red" d="M71,-287.7C71,-279.98 71,-270.71 71,-262.11"/>
<polygon fill="red" stroke="red" points="74.5,-262.1 71,-252.1 67.5,-262.1 74.5,-262.1"/>
</a>
</g>
</g>
<!-- Dup2_1 -->
<g id="node38" class="node">
<title>Dup2_1</title>
<ellipse fill="none" stroke="black" cx="198" cy="-1098" rx="29.5" ry="18"/>
<text text-anchor="middle" x="198" y="-1094.3" font-family="Times-Roman" font-size="14.00">Dup</text>
</g>
<!-- Dup0_2&#45;&gt;Dup2_1 -->
<g id="edge12" class="edge">
<title>Dup0_2&#45;&gt;Dup2_1</title>
<g id="a_edge12"><a xlink:title="e35">
<path fill="none" stroke="red" d="M151.99,-1165.71C160.59,-1153.25 172.65,-1135.76 182.27,-1121.81"/>
<ellipse fill="none" stroke="red" cx="184.77" cy="-1118.18" rx="4" ry="4"/>
</a>
</g>
</g>
<!-- PiL4&#45;&gt;PiL2 -->
<g id="edge25" class="edge">
<title>PiL4&#45;&gt;PiL2</title>
<g id="a_edge25"><a xlink:title="e54">
<path fill="none" stroke="blue" stroke-width="2" d="M158.56,-1312.21C154.89,-1303.01 150.86,-1292.94 147.59,-1284.77"/>
<polygon fill="blue" stroke="blue" stroke-width="2" points="155.4,-1313.72 162.36,-1321.71 161.9,-1311.12 155.4,-1313.72"/>
</a>
</g>
</g>
<!-- PiL4&#45;&gt;Dup2_1 -->
<g id="edge11" class="edge">
<title>PiL4&#45;&gt;Dup2_1</title>
<g id="a_edge11"><a xlink:title="e34">
<path fill="none" stroke="red" d="M171.76,-1321.13C173.38,-1310.77 175.42,-1297.29 177,-1285.3 184.6,-1227.64 191.82,-1159.71 195.49,-1123.94"/>
<ellipse fill="red" stroke="red" cx="195.9" cy="-1119.96" rx="4" ry="4"/>
</a>
</g>
</g>
<!-- PiR1 -->
<g id="node28" class="node">
<title>PiR1</title>
<ellipse fill="none" stroke="black" cx="93" cy="-594" rx="27" ry="18"/>
<text text-anchor="middle" x="93" y="-590.3" font-family="Times-Roman" font-size="14.00">PiR</text>
</g>
<!-- !p3&#45;&gt;PiR1 -->
<g id="edge29" class="edge">
<title>!p3&#45;&gt;PiR1</title>
<g id="a_edge29"><a xlink:title="e59">
<path fill="none" stroke="red" d="M177.59,-652.49C161.47,-641.54 137.87,-625.49 119.69,-613.14"/>
<polygon fill="red" stroke="red" points="121.49,-610.13 111.25,-607.41 117.56,-615.92 121.49,-610.13"/>
</a>
</g>
</g>
<!-- PiR2 -->
<g id="node29" class="node">
<title>PiR2</title>
<ellipse fill="none" stroke="black" cx="71" cy="-162" rx="27" ry="18"/>
<text text-anchor="middle" x="71" y="-158.3" font-family="Times-Roman" font-size="14.00">PiR</text>
</g>
<!-- !p4&#45;&gt;PiR2 -->
<g id="edge30" class="edge">
<title>!p4&#45;&gt;PiR2</title>
<g id="a_edge30"><a xlink:title="e61">
<path fill="none" stroke="red" d="M71,-215.7C71,-207.98 71,-198.71 71,-190.11"/>
<polygon fill="red" stroke="red" points="74.5,-190.1 71,-180.1 67.5,-190.1 74.5,-190.1"/>
</a>
</g>
</g>
<!-- !p5 -->
<g id="node26" class="node">
<title>!p5</title>
<ellipse fill="none" stroke="black" cx="412" cy="-594" rx="27" ry="18"/>
<text text-anchor="middle" x="412" y="-590.3" font-family="Times-Roman" font-size="14.00">!p</text>
</g>
<!-- PiR3 -->
<g id="node30" class="node">
<title>PiR3</title>
<ellipse fill="none" stroke="black" cx="412" cy="-522" rx="27" ry="18"/>
<text text-anchor="middle" x="412" y="-518.3" font-family="Times-Roman" font-size="14.00">PiR</text>
</g>
<!-- !p5&#45;&gt;PiR3 -->
<g id="edge32" class="edge">
<title>!p5&#45;&gt;PiR3</title>
<g id="a_edge32"><a xlink:title="e65">
<path fill="none" stroke="red" d="M412,-575.7C412,-567.98 412,-558.71 412,-550.11"/>
<polygon fill="red" stroke="red" points="415.5,-550.1 412,-540.1 408.5,-550.1 415.5,-550.1"/>
</a>
</g>
</g>
<!-- Cut2&#45;&gt;!p5 -->
<g id="edge31" class="edge">
<title>Cut2&#45;&gt;!p5</title>
<g id="a_edge31"><a xlink:title="e63">
<path fill="none" stroke="red" d="M412,-647.7C412,-639.98 412,-630.71 412,-622.11"/>
<polygon fill="red" stroke="red" points="415.5,-622.1 412,-612.1 408.5,-622.1 415.5,-622.1"/>
</a>
</g>
</g>
<!-- I4 -->
<g id="node34" class="node">
<title>I4</title>
<ellipse fill="none" stroke="black" cx="55" cy="-522" rx="27" ry="18"/>
<text text-anchor="middle" x="55" y="-518.3" font-family="Times-Roman" font-size="14.00">I</text>
</g>
<!-- PiR1&#45;&gt;I4 -->
<g id="edge34" class="edge">
<title>PiR1&#45;&gt;I4</title>
<g id="a_edge34"><a xlink:title="e69">
<path fill="none" stroke="red" d="M84.19,-576.76C79.58,-568.28 73.84,-557.71 68.68,-548.2"/>
<polygon fill="red" stroke="red" points="71.61,-546.27 63.77,-539.15 65.46,-549.61 71.61,-546.27"/>
</a>
</g>
</g>
<!-- I5 -->
<g id="node36" class="node">
<title>I5</title>
<ellipse fill="none" stroke="black" cx="99" cy="-90" rx="27" ry="18"/>
<text text-anchor="middle" x="99" y="-86.3" font-family="Times-Roman" font-size="14.00">I</text>
</g>
<!-- PiR2&#45;&gt;I5 -->
<g id="edge36" class="edge">
<title>PiR2&#45;&gt;I5</title>
<g id="a_edge36"><a xlink:title="e73">
<path fill="none" stroke="red" d="M77.64,-144.41C80.91,-136.22 84.94,-126.14 88.62,-116.95"/>
<polygon fill="red" stroke="red" points="91.95,-118.05 92.41,-107.47 85.45,-115.45 91.95,-118.05"/>
</a>
</g>
</g>
<!-- I7 -->
<g id="node42" class="node">
<title>I7</title>
<ellipse fill="none" stroke="black" cx="366" cy="-450" rx="27" ry="18"/>
<text text-anchor="middle" x="366" y="-446.3" font-family="Times-Roman" font-size="14.00">I</text>
</g>
<!-- PiR3&#45;&gt;I7 -->
<g id="edge40" class="edge">
<title>PiR3&#45;&gt;I7</title>
<g id="a_edge40"><a xlink:title="e77">
<path fill="none" stroke="red" d="M401.56,-505.12C395.8,-496.34 388.52,-485.26 382.04,-475.42"/>
<polygon fill="red" stroke="red" points="384.81,-473.26 376.4,-466.82 378.96,-477.1 384.81,-473.26"/>
</a>
</g>
</g>
<!-- Cut3 -->
<g id="node31" class="node">
<title>Cut3</title>
<ellipse fill="none" stroke="black" cx="62" cy="-882" rx="27" ry="18"/>
<text text-anchor="middle" x="62" y="-878.3" font-family="Times-Roman" font-size="14.00">Cut</text>
</g>
<!-- Cut3&#45;&gt;Dup0_1 -->
<g id="edge23" class="edge">
<title>Cut3&#45;&gt;Dup0_1</title>
<g id="a_edge23"><a xlink:title="e52">
<path fill="none" stroke="red" d="M50.05,-865.37C32.03,-840.2 0,-788.5 0,-739 0,-739 0,-739 0,-449 0,-402.25 31.17,-355.11 52.21,-328.62"/>
<ellipse fill="red" stroke="red" cx="54.79" cy="-325.45" rx="4" ry="4"/>
</a>
</g>
</g>
<!-- I6 -->
<g id="node41" class="node">
<title>I6</title>
<ellipse fill="none" stroke="black" cx="62" cy="-1098" rx="27" ry="18"/>
<text text-anchor="middle" x="62" y="-1094.3" font-family="Times-Roman" font-size="14.00">I</text>
</g>
<!-- Cut4&#45;&gt;I6 -->
<g id="edge39" class="edge">
<title>Cut4&#45;&gt;I6</title>
<g id="a_edge39"><a xlink:title="e76">
<path fill="none" stroke="red" d="M62.64,-1151.81C62.54,-1143.45 62.43,-1134.41 62.33,-1126.21"/>
<polygon fill="red" stroke="red" points="65.83,-1126.01 62.21,-1116.05 58.83,-1126.09 65.83,-1126.01"/>
</a>
</g>
</g>
<!-- !d3 -->
<g id="node33" class="node">
<title>!d3</title>
<ellipse fill="none" stroke="black" cx="82" cy="-450" rx="27" ry="18"/>
<text text-anchor="middle" x="82" y="-446.3" font-family="Times-Roman" font-size="14.00">!d</text>
</g>
<!-- !d3&#45;&gt;PiR1 -->
<g id="edge33" class="edge">
<title>!d3&#45;&gt;PiR1</title>
<g id="a_edge33"><a xlink:title="e67">
<path fill="none" stroke="blue" d="M87.37,-478.02C88.81,-486.32 90.19,-495.51 91,-504 93.38,-528.92 93.55,-557.94 93.35,-575.89"/>
<polygon fill="blue" stroke="blue" points="90.8,-477.31 85.56,-468.1 83.91,-478.57 90.8,-477.31"/>
</a>
</g>
</g>
<!-- I4&#45;&gt;!d3 -->
<g id="edge41" class="edge">
<title>I4&#45;&gt;!d3</title>
<g id="a_edge41"><a xlink:title="e79">
<path fill="none" stroke="blue" d="M65.01,-495.06C68.5,-486.01 72.32,-476.09 75.46,-467.96"/>
<polygon fill="blue" stroke="blue" points="61.73,-493.82 61.4,-504.41 68.26,-496.34 61.73,-493.82"/>
</a>
</g>
</g>
<!-- !d4 -->
<g id="node35" class="node">
<title>!d4</title>
<ellipse fill="none" stroke="black" cx="71" cy="-18" rx="27" ry="18"/>
<text text-anchor="middle" x="71" y="-14.3" font-family="Times-Roman" font-size="14.00">!d</text>
</g>
<!-- !d4&#45;&gt;PiR2 -->
<g id="edge35" class="edge">
<title>!d4&#45;&gt;PiR2</title>
<g id="a_edge35"><a xlink:title="e71">
<path fill="none" stroke="blue" d="M66.12,-46.04C64.84,-54.34 63.64,-63.52 63,-72 61.8,-87.96 61.8,-92.04 63,-108 63.91,-120.06 65.95,-133.54 67.75,-143.89"/>
<polygon fill="blue" stroke="blue" points="69.58,-46.55 67.75,-36.11 62.68,-45.41 69.58,-46.55"/>
</a>
</g>
</g>
<!-- I5&#45;&gt;!d4 -->
<g id="edge42" class="edge">
<title>I5&#45;&gt;!d4</title>
<g id="a_edge42"><a xlink:title="e81">
<path fill="none" stroke="blue" d="M88.56,-62.91C84.89,-53.72 80.86,-43.65 77.59,-35.47"/>
<polygon fill="blue" stroke="blue" points="85.4,-64.43 92.36,-72.41 91.9,-61.83 85.4,-64.43"/>
</a>
</g>
</g>
<!-- Dup2_0&#45;&gt;Cut1 -->
<g id="edge7" class="edge">
<title>Dup2_0&#45;&gt;Cut1</title>
<g id="a_edge7"><a xlink:title="e23">
<path fill="none" stroke="blue" d="M339,-783.64C339,-774.49 339,-764.38 339,-756.1"/>
<ellipse fill="blue" stroke="blue" cx="339" cy="-787.7" rx="4" ry="4"/>
</a>
</g>
</g>
<!-- Dup2_0&#45;&gt;Dup0_0 -->
<g id="edge8" class="edge">
<title>Dup2_0&#45;&gt;Dup0_0</title>
<g id="a_edge8"><a xlink:title="e25">
<path fill="none" stroke="blue" d="M360.3,-788.85C372.25,-777.55 386.88,-763.71 397.69,-753.49"/>
<ellipse fill="none" stroke="blue" cx="357.24" cy="-791.75" rx="4" ry="4"/>
</a>
</g>
</g>
<!-- Dup2_1&#45;&gt;!p0 -->
<g id="edge51" class="edge">
<title>Dup2_1&#45;&gt;!p0</title>
<g id="a_edge51"><a xlink:title="ylp">
<path fill="none" stroke="red" d="M202.36,-1080.05C204.39,-1072.14 206.86,-1062.54 209.14,-1053.69"/>
<polygon fill="red" stroke="red" points="212.58,-1054.35 211.68,-1043.79 205.8,-1052.6 212.58,-1054.35"/>
</a>
</g>
</g>
<!-- !d5 -->
<g id="node39" class="node">
<title>!d5</title>
<ellipse fill="none" stroke="black" cx="62" cy="-1026" rx="27" ry="18"/>
<text text-anchor="middle" x="62" y="-1022.3" font-family="Times-Roman" font-size="14.00">!d</text>
</g>
<!-- !d5&#45;&gt;Cut3 -->
<g id="edge37" class="edge">
<title>!d5&#45;&gt;Cut3</title>
<g id="a_edge37"><a xlink:title="e74">
<path fill="none" stroke="blue" d="M62,-997.68C62,-968.89 62,-924.42 62,-900.19"/>
<polygon fill="blue" stroke="blue" points="58.5,-997.87 62,-1007.87 65.5,-997.87 58.5,-997.87"/>
</a>
</g>
</g>
<!-- !d6 -->
<g id="node40" class="node">
<title>!d6</title>
<ellipse fill="none" stroke="black" cx="393" cy="-378" rx="27" ry="18"/>
<text text-anchor="middle" x="393" y="-374.3" font-family="Times-Roman" font-size="14.00">!d</text>
</g>
<!-- !d6&#45;&gt;PiR3 -->
<g id="edge38" class="edge">
<title>!d6&#45;&gt;PiR3</title>
<g id="a_edge38"><a xlink:title="e75">
<path fill="none" stroke="blue" d="M397.9,-406.08C399.32,-414.38 400.81,-423.55 402,-432 405.52,-456.94 408.59,-485.96 410.37,-503.9"/>
<polygon fill="blue" stroke="blue" points="401.33,-405.4 396.16,-396.15 394.44,-406.6 401.33,-405.4"/>
</a>
</g>
</g>
<!-- I6&#45;&gt;!d5 -->
<g id="edge43" class="edge">
<title>I6&#45;&gt;!d5</title>
<g id="a_edge43"><a xlink:title="e82">
<path fill="none" stroke="blue" d="M62,-1069.67C62,-1061.05 62,-1051.79 62,-1044.1"/>
<polygon fill="blue" stroke="blue" points="58.5,-1069.7 62,-1079.7 65.5,-1069.7 58.5,-1069.7"/>
</a>
</g>
</g>
<!-- I7&#45;&gt;!d6 -->
<g id="edge44" class="edge">
<title>I7&#45;&gt;!d6</title>
<g id="a_edge44"><a xlink:title="e83">
<path fill="none" stroke="blue" d="M376.01,-423.06C379.5,-414.01 383.32,-404.09 386.46,-395.96"/>
<polygon fill="blue" stroke="blue" points="372.73,-421.82 372.4,-432.41 379.26,-424.34 372.73,-421.82"/>
</a>
</g>
</g>
</g>
</svg>
