<?xml version="1.0" encoding="UTF-8" standalone="no"?>
<!DOCTYPE svg PUBLIC "-//W3C//DTD SVG 1.1//EN"
 "http://www.w3.org/Graphics/SVG/1.1/DTD/svg11.dtd">
<!-- Generated by graphviz version 2.43.0 (0)
 -->
<!-- Title: %3 Pages: 1 -->
<svg width="282pt" height="1365pt"
 viewBox="0.00 0.00 281.52 1365.30" xmlns="http://www.w3.org/2000/svg" xmlns:xlink="http://www.w3.org/1999/xlink">
<g id="graph0" class="graph" transform="scale(1 1) rotate(0) translate(4 1361.3)">
<title>%3</title>
<polygon fill="white" stroke="transparent" points="-4,4 -4,-1361.3 277.52,-1361.3 277.52,4 -4,4"/>
<!-- Root0 -->
<g id="node1" class="node">
<title>Root0</title>
<ellipse fill="none" stroke="black" cx="159" cy="-1339.3" rx="30.59" ry="18"/>
<text text-anchor="middle" x="159" y="-1335.6" font-family="Times-Roman" font-size="14.00">Root</text>
</g>
<!-- I7 -->
<g id="node27" class="node">
<title>I7</title>
<ellipse fill="none" stroke="black" cx="159" cy="-1267.3" rx="27" ry="18"/>
<text text-anchor="middle" x="159" y="-1263.6" font-family="Times-Roman" font-size="14.00">I</text>
</g>
<!-- Root0&#45;&gt;I7 -->
<g id="edge22" class="edge">
<title>Root0&#45;&gt;I7</title>
<g id="a_edge22"><a xlink:title="rettop">
<path fill="none" stroke="red" d="M159,-1320.99C159,-1313.28 159,-1304.01 159,-1295.41"/>
<polygon fill="red" stroke="red" points="162.5,-1295.4 159,-1285.4 155.5,-1295.4 162.5,-1295.4"/>
</a>
</g>
</g>
<!-- PiL0 -->
<g id="node2" class="node">
<title>PiL0</title>
<ellipse fill="none" stroke="black" cx="159" cy="-1195.3" rx="27" ry="18"/>
<text text-anchor="middle" x="159" y="-1191.6" font-family="Times-Roman" font-size="14.00">PiL</text>
</g>
<!-- !p0 -->
<g id="node3" class="node">
<title>!p0</title>
<ellipse fill="none" stroke="black" cx="123" cy="-1123.3" rx="27" ry="18"/>
<text text-anchor="middle" x="123" y="-1119.6" font-family="Times-Roman" font-size="14.00">!p</text>
</g>
<!-- PiL0&#45;&gt;!p0 -->
<g id="edge29" class="edge">
<title>PiL0&#45;&gt;!p0</title>
<g id="a_edge29"><a xlink:title="xlp">
<path fill="none" stroke="red" d="M150.65,-1178.06C146.29,-1169.58 140.85,-1159.01 135.96,-1149.49"/>
<polygon fill="red" stroke="red" points="138.99,-1147.73 131.3,-1140.44 132.77,-1150.94 138.99,-1147.73"/>
</a>
</g>
</g>
<!-- Cut3 -->
<g id="node31" class="node">
<title>Cut3</title>
<ellipse fill="none" stroke="black" cx="204" cy="-1123.3" rx="27" ry="18"/>
<text text-anchor="middle" x="204" y="-1119.6" font-family="Times-Roman" font-size="14.00">Cut</text>
</g>
<!-- PiL0&#45;&gt;Cut3 -->
<g id="edge26" class="edge">
<title>PiL0&#45;&gt;Cut3</title>
<g id="a_edge26"><a xlink:title="xl1">
<path fill="none" stroke="blue" d="M174.74,-1169.81C181.08,-1159.96 188.2,-1148.88 193.83,-1140.12"/>
<polygon fill="blue" stroke="blue" points="171.67,-1168.11 169.21,-1178.41 177.56,-1171.89 171.67,-1168.11"/>
</a>
</g>
</g>
<!-- I0 -->
<g id="node4" class="node">
<title>I0</title>
<ellipse fill="none" stroke="black" cx="159" cy="-1051.3" rx="27" ry="18"/>
<text text-anchor="middle" x="159" y="-1047.6" font-family="Times-Roman" font-size="14.00">I</text>
</g>
<!-- !p0&#45;&gt;I0 -->
<g id="edge28" class="edge">
<title>!p0&#45;&gt;I0</title>
<g id="a_edge28"><a xlink:title="xli">
<path fill="none" stroke="red" d="M131.35,-1106.06C135.71,-1097.58 141.15,-1087.01 146.04,-1077.49"/>
<polygon fill="red" stroke="red" points="149.23,-1078.94 150.7,-1068.44 143.01,-1075.73 149.23,-1078.94"/>
</a>
</g>
</g>
<!-- Cut2 -->
<g id="node30" class="node">
<title>Cut2</title>
<ellipse fill="none" stroke="black" cx="49" cy="-1051.3" rx="27" ry="18"/>
<text text-anchor="middle" x="49" y="-1047.6" font-family="Times-Roman" font-size="14.00">Cut</text>
</g>
<!-- !p0&#45;&gt;Cut2 -->
<g id="edge23" class="edge">
<title>!p0&#45;&gt;Cut2</title>
<g id="a_edge23"><a xlink:title="x2">
<path fill="none" stroke="blue" d="M100.63,-1101.13C88.75,-1089.9 74.48,-1076.4 63.95,-1066.44"/>
<polygon fill="blue" stroke="blue" points="98.36,-1103.8 108.02,-1108.13 103.17,-1098.72 98.36,-1103.8"/>
</a>
</g>
</g>
<!-- !d0 -->
<g id="node5" class="node">
<title>!d0</title>
<ellipse fill="none" stroke="black" cx="150" cy="-979.3" rx="27" ry="18"/>
<text text-anchor="middle" x="150" y="-975.6" font-family="Times-Roman" font-size="14.00">!d</text>
</g>
<!-- I0&#45;&gt;!d0 -->
<g id="edge27" class="edge">
<title>I0&#45;&gt;!d0</title>
<g id="a_edge27"><a xlink:title="xl2">
<path fill="none" stroke="blue" d="M155.53,-1023.3C154.42,-1014.66 153.22,-1005.33 152.22,-997.57"/>
<polygon fill="blue" stroke="blue" points="152.07,-1023.88 156.82,-1033.35 159.02,-1022.99 152.07,-1023.88"/>
</a>
</g>
</g>
<!-- !d0&#45;&gt;!p0 -->
<g id="edge24" class="edge">
<title>!d0&#45;&gt;!p0</title>
<g id="a_edge24"><a xlink:title="xj">
<path fill="none" stroke="blue" d="M134.39,-1004.98C129.77,-1013.6 125.34,-1023.56 123,-1033.3 117.12,-1057.79 118.73,-1087.17 120.67,-1105.29"/>
<polygon fill="blue" stroke="blue" points="137.47,-1006.65 139.37,-996.22 131.38,-1003.18 137.47,-1006.65"/>
</a>
</g>
</g>
<!-- I1 -->
<g id="node6" class="node">
<title>I1</title>
<ellipse fill="none" stroke="black" cx="150" cy="-763.3" rx="27" ry="18"/>
<text text-anchor="middle" x="150" y="-759.6" font-family="Times-Roman" font-size="14.00">I</text>
</g>
<!-- PiL1 -->
<g id="node7" class="node">
<title>PiL1</title>
<ellipse fill="none" stroke="black" cx="150" cy="-691.3" rx="27" ry="18"/>
<text text-anchor="middle" x="150" y="-687.6" font-family="Times-Roman" font-size="14.00">PiL</text>
</g>
<!-- I1&#45;&gt;PiL1 -->
<g id="edge6" class="edge">
<title>I1&#45;&gt;PiL1</title>
<g id="a_edge6"><a xlink:title="hl">
<path fill="none" stroke="blue" d="M150,-734.96C150,-726.35 150,-717.09 150,-709.4"/>
<polygon fill="blue" stroke="blue" points="146.5,-734.99 150,-744.99 153.5,-734.99 146.5,-734.99"/>
</a>
</g>
</g>
<!-- Cut0 -->
<g id="node8" class="node">
<title>Cut0</title>
<ellipse fill="none" stroke="black" cx="189" cy="-619.3" rx="27" ry="18"/>
<text text-anchor="middle" x="189" y="-615.6" font-family="Times-Roman" font-size="14.00">Cut</text>
</g>
<!-- PiL1&#45;&gt;Cut0 -->
<g id="edge7" class="edge">
<title>PiL1&#45;&gt;Cut0</title>
<g id="a_edge7"><a xlink:title="hl1">
<path fill="none" stroke="blue" d="M163.93,-665.3C169.28,-655.7 175.24,-645 180,-636.44"/>
<polygon fill="blue" stroke="blue" points="160.85,-663.62 159.05,-674.06 166.97,-667.03 160.85,-663.62"/>
</a>
</g>
</g>
<!-- !p2 -->
<g id="node17" class="node">
<title>!p2</title>
<ellipse fill="none" stroke="black" cx="95" cy="-619.3" rx="27" ry="18"/>
<text text-anchor="middle" x="95" y="-615.6" font-family="Times-Roman" font-size="14.00">!p</text>
</g>
<!-- PiL1&#45;&gt;!p2 -->
<g id="edge16" class="edge">
<title>PiL1&#45;&gt;!p2</title>
<g id="a_edge16"><a xlink:title="hlp">
<path fill="none" stroke="red" d="M138.07,-675.11C130.79,-665.84 121.34,-653.82 113.15,-643.39"/>
<polygon fill="red" stroke="red" points="115.84,-641.16 106.91,-635.45 110.34,-645.48 115.84,-641.16"/>
</a>
</g>
</g>
<!-- PiR0 -->
<g id="node9" class="node">
<title>PiR0</title>
<ellipse fill="none" stroke="black" cx="211" cy="-547.3" rx="27" ry="18"/>
<text text-anchor="middle" x="211" y="-543.6" font-family="Times-Roman" font-size="14.00">PiR</text>
</g>
<!-- Cut0&#45;&gt;PiR0 -->
<g id="edge8" class="edge">
<title>Cut0&#45;&gt;PiR0</title>
<g id="a_edge8"><a xlink:title="hl1r">
<path fill="none" stroke="red" d="M194.33,-601.35C196.84,-593.35 199.9,-583.63 202.7,-574.69"/>
<polygon fill="red" stroke="red" points="206.06,-575.67 205.72,-565.08 199.39,-573.57 206.06,-575.67"/>
</a>
</g>
</g>
<!-- I2 -->
<g id="node10" class="node">
<title>I2</title>
<ellipse fill="none" stroke="black" cx="211" cy="-475.3" rx="27" ry="18"/>
<text text-anchor="middle" x="211" y="-471.6" font-family="Times-Roman" font-size="14.00">I</text>
</g>
<!-- PiR0&#45;&gt;I2 -->
<g id="edge39" class="edge">
<title>PiR0&#45;&gt;I2</title>
<g id="a_edge39"><a xlink:title="yr">
<path fill="none" stroke="red" d="M211,-528.99C211,-521.28 211,-512.01 211,-503.41"/>
<polygon fill="red" stroke="red" points="214.5,-503.4 211,-493.4 207.5,-503.4 214.5,-503.4"/>
</a>
</g>
</g>
<!-- PiL2 -->
<g id="node11" class="node">
<title>PiL2</title>
<ellipse fill="none" stroke="black" cx="211" cy="-403.3" rx="27" ry="18"/>
<text text-anchor="middle" x="211" y="-399.6" font-family="Times-Roman" font-size="14.00">PiL</text>
</g>
<!-- I2&#45;&gt;PiL2 -->
<g id="edge34" class="edge">
<title>I2&#45;&gt;PiL2</title>
<g id="a_edge34"><a xlink:title="yl">
<path fill="none" stroke="blue" d="M211,-446.96C211,-438.35 211,-429.09 211,-421.4"/>
<polygon fill="blue" stroke="blue" points="207.5,-446.99 211,-456.99 214.5,-446.99 207.5,-446.99"/>
</a>
</g>
</g>
<!-- !d1 -->
<g id="node12" class="node">
<title>!d1</title>
<ellipse fill="none" stroke="black" cx="229" cy="-331.3" rx="27" ry="18"/>
<text text-anchor="middle" x="229" y="-327.6" font-family="Times-Roman" font-size="14.00">!d</text>
</g>
<!-- PiL2&#45;&gt;!d1 -->
<g id="edge35" class="edge">
<title>PiL2&#45;&gt;!d1</title>
<g id="a_edge35"><a xlink:title="yl1">
<path fill="none" stroke="blue" d="M217.91,-375.43C220.19,-366.57 222.65,-356.97 224.68,-349.08"/>
<polygon fill="blue" stroke="blue" points="214.46,-374.79 215.36,-385.35 221.24,-376.54 214.46,-374.79"/>
</a>
</g>
</g>
<!-- !p1 -->
<g id="node14" class="node">
<title>!p1</title>
<ellipse fill="none" stroke="black" cx="157" cy="-331.3" rx="27" ry="18"/>
<text text-anchor="middle" x="157" y="-327.6" font-family="Times-Roman" font-size="14.00">!p</text>
</g>
<!-- PiL2&#45;&gt;!p1 -->
<g id="edge38" class="edge">
<title>PiL2&#45;&gt;!p1</title>
<g id="a_edge38"><a xlink:title="ylp">
<path fill="none" stroke="red" d="M199.02,-386.76C192.02,-377.7 183.06,-366.08 175.21,-355.91"/>
<polygon fill="red" stroke="red" points="177.83,-353.57 168.95,-347.79 172.29,-357.84 177.83,-353.57"/>
</a>
</g>
</g>
<!-- !c0 -->
<g id="node13" class="node">
<title>!c0</title>
<ellipse fill="none" stroke="black" cx="240" cy="-246.65" rx="27" ry="18"/>
<text text-anchor="middle" x="240" y="-242.95" font-family="Times-Roman" font-size="14.00">!c</text>
</g>
<!-- !d1&#45;&gt;!c0 -->
<g id="edge31" class="edge">
<title>!d1&#45;&gt;!c0</title>
<g id="a_edge31"><a xlink:title="y1">
<path fill="none" stroke="blue" d="M232.61,-303.14C234.3,-290.49 236.25,-275.83 237.72,-264.75"/>
<polygon fill="blue" stroke="blue" points="229.13,-302.8 231.28,-313.17 236.07,-303.72 229.13,-302.8"/>
</a>
</g>
</g>
<!-- !c0&#45;&gt;PiR0 -->
<g id="edge30" class="edge">
<title>!c0&#45;&gt;PiR0</title>
<g id="a_edge30"><a xlink:title="y">
<path fill="none" stroke="blue" d="M252.21,-273.19C257.25,-285.09 262.48,-299.61 265,-313.3 279.55,-392.37 275.36,-418.06 247,-493.3 241.74,-507.24 232.13,-521.11 224.15,-531.16"/>
<polygon fill="blue" stroke="blue" points="255.34,-271.62 248.1,-263.89 248.94,-274.45 255.34,-271.62"/>
</a>
</g>
</g>
<!-- !p1&#45;&gt;!c0 -->
<g id="edge32" class="edge">
<title>!p1&#45;&gt;!c0</title>
<g id="a_edge32"><a xlink:title="y2">
<path fill="none" stroke="blue" d="M178.71,-308.68C193.43,-294.02 212.5,-275.03 225.43,-262.16"/>
<polygon fill="blue" stroke="blue" points="176.07,-306.36 171.46,-315.9 181.01,-311.32 176.07,-306.36"/>
</a>
</g>
</g>
<!-- I3 -->
<g id="node15" class="node">
<title>I3</title>
<ellipse fill="none" stroke="black" cx="168" cy="-246.65" rx="27" ry="18"/>
<text text-anchor="middle" x="168" y="-242.95" font-family="Times-Roman" font-size="14.00">I</text>
</g>
<!-- !p1&#45;&gt;I3 -->
<g id="edge37" class="edge">
<title>!p1&#45;&gt;I3</title>
<g id="a_edge37"><a xlink:title="yli">
<path fill="none" stroke="red" d="M159.28,-313.17C160.75,-302.09 162.71,-287.42 164.39,-274.78"/>
<polygon fill="red" stroke="red" points="167.87,-275.12 165.72,-264.75 160.93,-274.2 167.87,-275.12"/>
</a>
</g>
</g>
<!-- !d2 -->
<g id="node16" class="node">
<title>!d2</title>
<ellipse fill="none" stroke="black" cx="147" cy="-162" rx="27" ry="18"/>
<text text-anchor="middle" x="147" y="-158.3" font-family="Times-Roman" font-size="14.00">!d</text>
</g>
<!-- I3&#45;&gt;!d2 -->
<g id="edge36" class="edge">
<title>I3&#45;&gt;!d2</title>
<g id="a_edge36"><a xlink:title="yl2">
<path fill="none" stroke="blue" d="M161.18,-218.81C157.92,-205.98 154.12,-191.02 151.27,-179.82"/>
<polygon fill="blue" stroke="blue" points="157.79,-219.69 163.65,-228.52 164.58,-217.97 157.79,-219.69"/>
</a>
</g>
</g>
<!-- !d2&#45;&gt;!p1 -->
<g id="edge33" class="edge">
<title>!d2&#45;&gt;!p1</title>
<g id="a_edge33"><a xlink:title="yj">
<path fill="none" stroke="blue" d="M137.94,-189.54C135.51,-197.9 133.21,-207.25 132,-216 128.26,-242.98 126.04,-250.71 132,-277.3 134.94,-290.4 141.49,-304.08 147.15,-314.26"/>
<polygon fill="blue" stroke="blue" points="141.3,-190.52 140.92,-179.93 134.62,-188.45 141.3,-190.52"/>
</a>
</g>
</g>
<!-- I4 -->
<g id="node18" class="node">
<title>I4</title>
<ellipse fill="none" stroke="black" cx="95" cy="-547.3" rx="27" ry="18"/>
<text text-anchor="middle" x="95" y="-543.6" font-family="Times-Roman" font-size="14.00">I</text>
</g>
<!-- !p2&#45;&gt;I4 -->
<g id="edge15" class="edge">
<title>!p2&#45;&gt;I4</title>
<g id="a_edge15"><a xlink:title="hli">
<path fill="none" stroke="red" d="M95,-600.99C95,-593.28 95,-584.01 95,-575.41"/>
<polygon fill="red" stroke="red" points="98.5,-575.4 95,-565.4 91.5,-575.4 98.5,-575.4"/>
</a>
</g>
</g>
<!-- PiR2 -->
<g id="node32" class="node">
<title>PiR2</title>
<ellipse fill="none" stroke="black" cx="122" cy="-835.3" rx="27" ry="18"/>
<text text-anchor="middle" x="122" y="-831.6" font-family="Times-Roman" font-size="14.00">PiR</text>
</g>
<!-- !p2&#45;&gt;PiR2 -->
<g id="edge4" class="edge">
<title>!p2&#45;&gt;PiR2</title>
<g id="a_edge4"><a xlink:title="h">
<path fill="none" stroke="blue" d="M97.96,-647.67C101.49,-679.74 107.7,-734.43 114,-781.3 115.61,-793.28 117.65,-806.76 119.27,-817.13"/>
<polygon fill="blue" stroke="blue" points="101.43,-647.27 96.87,-637.71 94.48,-648.03 101.43,-647.27"/>
</a>
</g>
</g>
<!-- PiL3 -->
<g id="node19" class="node">
<title>PiL3</title>
<ellipse fill="none" stroke="black" cx="95" cy="-475.3" rx="27" ry="18"/>
<text text-anchor="middle" x="95" y="-471.6" font-family="Times-Roman" font-size="14.00">PiL</text>
</g>
<!-- I4&#45;&gt;PiL3 -->
<g id="edge9" class="edge">
<title>I4&#45;&gt;PiL3</title>
<g id="a_edge9"><a xlink:title="hl2">
<path fill="none" stroke="blue" d="M95,-518.96C95,-510.35 95,-501.09 95,-493.4"/>
<polygon fill="blue" stroke="blue" points="91.5,-518.99 95,-528.99 98.5,-518.99 91.5,-518.99"/>
</a>
</g>
</g>
<!-- !d3 -->
<g id="node20" class="node">
<title>!d3</title>
<ellipse fill="none" stroke="black" cx="31" cy="-403.3" rx="27" ry="18"/>
<text text-anchor="middle" x="31" y="-399.6" font-family="Times-Roman" font-size="14.00">!d</text>
</g>
<!-- PiL3&#45;&gt;!d3 -->
<g id="edge10" class="edge">
<title>PiL3&#45;&gt;!d3</title>
<g id="a_edge10"><a xlink:title="hl21">
<path fill="none" stroke="blue" d="M74.64,-452.02C64.81,-441.27 53.29,-428.67 44.55,-419.12"/>
<polygon fill="blue" stroke="blue" points="72.1,-454.43 81.43,-459.45 77.26,-449.71 72.1,-454.43"/>
</a>
</g>
</g>
<!-- !p3 -->
<g id="node21" class="node">
<title>!p3</title>
<ellipse fill="none" stroke="black" cx="103" cy="-403.3" rx="27" ry="18"/>
<text text-anchor="middle" x="103" y="-399.6" font-family="Times-Roman" font-size="14.00">!p</text>
</g>
<!-- PiL3&#45;&gt;!p3 -->
<g id="edge14" class="edge">
<title>PiL3&#45;&gt;!p3</title>
<g id="a_edge14"><a xlink:title="hl2p">
<path fill="none" stroke="red" d="M96.98,-456.99C97.86,-449.28 98.92,-440.01 99.9,-431.41"/>
<polygon fill="red" stroke="red" points="103.39,-431.73 101.05,-421.4 96.43,-430.94 103.39,-431.73"/>
</a>
</g>
</g>
<!-- !d3&#45;&gt;!p2 -->
<g id="edge5" class="edge">
<title>!d3&#45;&gt;!p2</title>
<g id="a_edge5"><a xlink:title="hj">
<path fill="none" stroke="blue" d="M32.24,-431.57C34.51,-464.39 40.93,-520.64 59,-565.3 64.59,-579.11 74.19,-592.99 82.07,-603.07"/>
<polygon fill="blue" stroke="blue" points="35.72,-431.16 31.62,-421.39 28.74,-431.59 35.72,-431.16"/>
</a>
</g>
</g>
<!-- I5 -->
<g id="node22" class="node">
<title>I5</title>
<ellipse fill="none" stroke="black" cx="75" cy="-331.3" rx="27" ry="18"/>
<text text-anchor="middle" x="75" y="-327.6" font-family="Times-Roman" font-size="14.00">I</text>
</g>
<!-- !p3&#45;&gt;I5 -->
<g id="edge13" class="edge">
<title>!p3&#45;&gt;I5</title>
<g id="a_edge13"><a xlink:title="hl2i">
<path fill="none" stroke="red" stroke-width="2" d="M96.36,-385.71C93.09,-377.51 89.06,-367.43 85.38,-358.25"/>
<polygon fill="red" stroke="red" stroke-width="2" points="88.55,-356.75 81.59,-348.77 82.05,-359.35 88.55,-356.75"/>
</a>
</g>
</g>
<!-- Cut1 -->
<g id="node23" class="node">
<title>Cut1</title>
<ellipse fill="none" stroke="black" cx="54" cy="-246.65" rx="26.78" ry="26.78"/>
<ellipse fill="none" stroke="black" cx="54" cy="-246.65" rx="30.8" ry="30.8"/>
<text text-anchor="middle" x="54" y="-242.95" font-family="Times-Roman" font-size="14.00">Cut</text>
</g>
<!-- I5&#45;&gt;Cut1 -->
<g id="edge11" class="edge">
<title>I5&#45;&gt;Cut1</title>
<g id="a_edge11"><a xlink:title="hl22">
<path fill="none" stroke="blue" stroke-width="2" d="M68.14,-303.28C65.96,-294.7 63.54,-285.17 61.32,-276.47"/>
<polygon fill="blue" stroke="blue" stroke-width="2" points="64.79,-304.34 70.65,-313.17 71.58,-302.62 64.79,-304.34"/>
</a>
</g>
</g>
<!-- PiR1 -->
<g id="node24" class="node">
<title>PiR1</title>
<ellipse fill="none" stroke="black" cx="54" cy="-162" rx="27" ry="18"/>
<text text-anchor="middle" x="54" y="-158.3" font-family="Times-Roman" font-size="14.00">PiR</text>
</g>
<!-- Cut1&#45;&gt;PiR1 -->
<g id="edge12" class="edge">
<title>Cut1&#45;&gt;PiR1</title>
<g id="a_edge12"><a xlink:title="hl22r">
<path fill="none" stroke="red" d="M54,-215.81C54,-207.45 54,-198.41 54,-190.21"/>
<polygon fill="red" stroke="red" points="57.5,-190.05 54,-180.05 50.5,-190.05 57.5,-190.05"/>
</a>
</g>
</g>
<!-- I6 -->
<g id="node25" class="node">
<title>I6</title>
<ellipse fill="none" stroke="black" cx="27" cy="-90" rx="27" ry="18"/>
<text text-anchor="middle" x="27" y="-86.3" font-family="Times-Roman" font-size="14.00">I</text>
</g>
<!-- PiR1&#45;&gt;I6 -->
<g id="edge20" class="edge">
<title>PiR1&#45;&gt;I6</title>
<g id="a_edge20"><a xlink:title="ir">
<path fill="none" stroke="red" d="M47.6,-144.41C44.49,-136.34 40.67,-126.43 37.17,-117.35"/>
<polygon fill="red" stroke="red" points="40.4,-116.03 33.54,-107.96 33.87,-118.55 40.4,-116.03"/>
</a>
</g>
</g>
<!-- !d4 -->
<g id="node26" class="node">
<title>!d4</title>
<ellipse fill="none" stroke="black" cx="54" cy="-18" rx="27" ry="18"/>
<text text-anchor="middle" x="54" y="-14.3" font-family="Times-Roman" font-size="14.00">!d</text>
</g>
<!-- I6&#45;&gt;!d4 -->
<g id="edge19" class="edge">
<title>I6&#45;&gt;!d4</title>
<g id="a_edge19"><a xlink:title="il">
<path fill="none" stroke="blue" d="M37.01,-63.06C40.5,-54.01 44.32,-44.09 47.46,-35.96"/>
<polygon fill="blue" stroke="blue" points="33.73,-61.82 33.4,-72.41 40.26,-64.34 33.73,-61.82"/>
</a>
</g>
</g>
<!-- !d4&#45;&gt;PiR1 -->
<g id="edge18" class="edge">
<title>!d4&#45;&gt;PiR1</title>
<g id="a_edge18"><a xlink:title="i">
<path fill="none" stroke="blue" d="M59.49,-46.01C60.93,-54.31 62.28,-63.5 63,-72 64.34,-87.94 64.34,-92.06 63,-108 61.98,-120.09 59.68,-133.57 57.65,-143.91"/>
<polygon fill="blue" stroke="blue" points="62.91,-45.29 57.65,-36.09 56.03,-46.56 62.91,-45.29"/>
</a>
</g>
</g>
<!-- I7&#45;&gt;PiL0 -->
<g id="edge25" class="edge">
<title>I7&#45;&gt;PiL0</title>
<g id="a_edge25"><a xlink:title="xl">
<path fill="none" stroke="blue" d="M159,-1238.96C159,-1230.35 159,-1221.09 159,-1213.4"/>
<polygon fill="blue" stroke="blue" points="155.5,-1238.99 159,-1248.99 162.5,-1238.99 155.5,-1238.99"/>
</a>
</g>
</g>
<!-- Dup0_0 -->
<g id="node28" class="node">
<title>Dup0_0</title>
<ellipse fill="none" stroke="black" cx="122" cy="-907.3" rx="29.5" ry="18"/>
<text text-anchor="middle" x="122" y="-903.6" font-family="Times-Roman" font-size="14.00">Dup</text>
</g>
<!-- Dup0_0&#45;&gt;PiR2 -->
<g id="edge21" class="edge">
<title>Dup0_0&#45;&gt;PiR2</title>
<g id="a_edge21"><a xlink:title="reti">
<path fill="none" stroke="red" d="M122,-888.99C122,-881.28 122,-872.01 122,-863.41"/>
<polygon fill="red" stroke="red" points="125.5,-863.4 122,-853.4 118.5,-863.4 125.5,-863.4"/>
</a>
</g>
</g>
<!-- !p4 -->
<g id="node29" class="node">
<title>!p4</title>
<ellipse fill="none" stroke="black" cx="59" cy="-979.3" rx="27" ry="18"/>
<text text-anchor="middle" x="59" y="-975.6" font-family="Times-Roman" font-size="14.00">!p</text>
</g>
<!-- !p4&#45;&gt;Dup0_0 -->
<g id="edge3" class="edge">
<title>!p4&#45;&gt;Dup0_0</title>
<g id="a_edge3"><a xlink:title="e3">
<path fill="none" stroke="red" d="M72.36,-963.45C81.18,-953.65 92.87,-940.66 102.69,-929.75"/>
<ellipse fill="none" stroke="red" cx="105.55" cy="-926.58" rx="4" ry="4"/>
</a>
</g>
</g>
<!-- Cut2&#45;&gt;!p4 -->
<g id="edge1" class="edge">
<title>Cut2&#45;&gt;!p4</title>
<g id="a_edge1"><a xlink:title="e1">
<path fill="none" stroke="red" d="M51.42,-1033.35C52.52,-1025.64 53.85,-1016.32 55.09,-1007.66"/>
<polygon fill="red" stroke="red" points="58.58,-1007.97 56.53,-997.57 51.65,-1006.98 58.58,-1007.97"/>
</a>
</g>
</g>
<!-- Cut3&#45;&gt;Dup0_0 -->
<g id="edge2" class="edge">
<title>Cut3&#45;&gt;Dup0_0</title>
<g id="a_edge2"><a xlink:title="e2">
<path fill="none" stroke="red" d="M206.15,-1105.05C209.17,-1074.14 211.7,-1008.15 186,-961.3 177.67,-946.11 163.07,-933.51 149.92,-924.41"/>
<ellipse fill="red" stroke="red" cx="146.56" cy="-922.18" rx="4" ry="4"/>
</a>
</g>
</g>
<!-- PiR2&#45;&gt;I1 -->
<g id="edge17" class="edge">
<title>PiR2&#45;&gt;I1</title>
<g id="a_edge17"><a xlink:title="hr">
<path fill="none" stroke="red" d="M128.64,-817.71C131.91,-809.51 135.94,-799.43 139.62,-790.25"/>
<polygon fill="red" stroke="red" points="142.95,-791.35 143.41,-780.77 136.45,-788.75 142.95,-791.35"/>
</a>
</g>
</g>
</g>
</svg>
