<?xml version="1.0" encoding="UTF-8" standalone="no"?>
<!DOCTYPE svg PUBLIC "-//W3C//DTD SVG 1.1//EN"
 "http://www.w3.org/Graphics/SVG/1.1/DTD/svg11.dtd">
<!-- Generated by graphviz version 2.43.0 (0)
 -->
<!-- Title: %3 Pages: 1 -->
<svg width="333pt" height="1010pt"
 viewBox="0.00 0.00 333.00 1010.49" xmlns="http://www.w3.org/2000/svg" xmlns:xlink="http://www.w3.org/1999/xlink">
<g id="graph0" class="graph" transform="scale(1 1) rotate(0) translate(4 1006.49)">
<title>%3</title>
<polygon fill="white" stroke="transparent" points="-4,4 -4,-1006.49 329,-1006.49 329,4 -4,4"/>
<!-- Root0 -->
<g id="node1" class="node">
<title>Root0</title>
<ellipse fill="none" stroke="black" cx="278" cy="-984.49" rx="30.59" ry="18"/>
<text text-anchor="middle" x="278" y="-980.79" font-family="Times-Roman" font-size="14.00">Root</text>
</g>
<!-- Dup0_1 -->
<g id="node14" class="node">
<title>Dup0_1</title>
<ellipse fill="none" stroke="black" cx="278" cy="-912.49" rx="29.5" ry="18"/>
<text text-anchor="middle" x="278" y="-908.79" font-family="Times-Roman" font-size="14.00">Dup</text>
</g>
<!-- Root0&#45;&gt;Dup0_1 -->
<g id="edge22" class="edge">
<title>Root0&#45;&gt;Dup0_1</title>
<g id="a_edge22"><a xlink:title="rettop">
<path fill="none" stroke="red" stroke-width="2" d="M278,-966.19C278,-957.88 278,-947.77 278,-938.64"/>
<ellipse fill="red" stroke="red" stroke-width="2" cx="278" cy="-934.6" rx="4" ry="4"/>
</a>
</g>
</g>
<!-- !p0 -->
<g id="node2" class="node">
<title>!p0</title>
<ellipse fill="none" stroke="black" cx="224" cy="-696.49" rx="27" ry="18"/>
<text text-anchor="middle" x="224" y="-692.79" font-family="Times-Roman" font-size="14.00">!p</text>
</g>
<!-- I0 -->
<g id="node3" class="node">
<title>I0</title>
<ellipse fill="none" stroke="black" cx="224" cy="-624.49" rx="27" ry="18"/>
<text text-anchor="middle" x="224" y="-620.79" font-family="Times-Roman" font-size="14.00">I</text>
</g>
<!-- !p0&#45;&gt;I0 -->
<g id="edge29" class="edge">
<title>!p0&#45;&gt;I0</title>
<g id="a_edge29"><a xlink:title="yli">
<path fill="none" stroke="red" d="M224,-678.19C224,-670.48 224,-661.21 224,-652.61"/>
<polygon fill="red" stroke="red" points="227.5,-652.6 224,-642.6 220.5,-652.6 227.5,-652.6"/>
</a>
</g>
</g>
<!-- Cut1 -->
<g id="node16" class="node">
<title>Cut1</title>
<ellipse fill="none" stroke="black" cx="152" cy="-624.49" rx="27" ry="18"/>
<text text-anchor="middle" x="152" y="-620.79" font-family="Times-Roman" font-size="14.00">Cut</text>
</g>
<!-- !p0&#45;&gt;Cut1 -->
<g id="edge25" class="edge">
<title>!p0&#45;&gt;Cut1</title>
<g id="a_edge25"><a xlink:title="y2">
<path fill="none" stroke="blue" d="M201.96,-674.06C190.55,-662.97 176.93,-649.73 166.8,-639.88"/>
<polygon fill="blue" stroke="blue" points="199.82,-676.87 209.43,-681.33 204.7,-671.85 199.82,-676.87"/>
</a>
</g>
</g>
<!-- !d0 -->
<g id="node4" class="node">
<title>!d0</title>
<ellipse fill="none" stroke="black" cx="270" cy="-552.49" rx="27" ry="18"/>
<text text-anchor="middle" x="270" y="-548.79" font-family="Times-Roman" font-size="14.00">!d</text>
</g>
<!-- I0&#45;&gt;!d0 -->
<g id="edge28" class="edge">
<title>I0&#45;&gt;!d0</title>
<g id="a_edge28"><a xlink:title="yl2">
<path fill="none" stroke="blue" d="M240.09,-599.01C246.57,-589.15 253.85,-578.08 259.6,-569.32"/>
<polygon fill="blue" stroke="blue" points="237,-597.33 234.44,-607.61 242.85,-601.18 237,-597.33"/>
</a>
</g>
</g>
<!-- !d0&#45;&gt;!p0 -->
<g id="edge26" class="edge">
<title>!d0&#45;&gt;!p0</title>
<g id="a_edge26"><a xlink:title="yj">
<path fill="none" stroke="blue" d="M270.3,-580.91C269.69,-598.92 267.32,-622.72 260,-642.49 254.83,-656.47 245.21,-670.34 237.21,-680.38"/>
<polygon fill="blue" stroke="blue" points="273.8,-580.85 270.48,-570.79 266.8,-580.72 273.8,-580.85"/>
</a>
</g>
</g>
<!-- !p1 -->
<g id="node5" class="node">
<title>!p1</title>
<ellipse fill="none" stroke="black" cx="54" cy="-234" rx="27" ry="18"/>
<text text-anchor="middle" x="54" y="-230.3" font-family="Times-Roman" font-size="14.00">!p</text>
</g>
<!-- PiR0 -->
<g id="node8" class="node">
<title>PiR0</title>
<ellipse fill="none" stroke="black" cx="54" cy="-162" rx="27" ry="18"/>
<text text-anchor="middle" x="54" y="-158.3" font-family="Times-Roman" font-size="14.00">PiR</text>
</g>
<!-- !p1&#45;&gt;PiR0 -->
<g id="edge16" class="edge">
<title>!p1&#45;&gt;PiR0</title>
<g id="a_edge16"><a xlink:title="hl2i">
<path fill="none" stroke="red" d="M54,-215.7C54,-207.98 54,-198.71 54,-190.11"/>
<polygon fill="red" stroke="red" points="57.5,-190.1 54,-180.1 50.5,-190.1 57.5,-190.1"/>
</a>
</g>
</g>
<!-- I1 -->
<g id="node6" class="node">
<title>I1</title>
<ellipse fill="none" stroke="black" cx="27" cy="-90" rx="27" ry="18"/>
<text text-anchor="middle" x="27" y="-86.3" font-family="Times-Roman" font-size="14.00">I</text>
</g>
<!-- !d1 -->
<g id="node7" class="node">
<title>!d1</title>
<ellipse fill="none" stroke="black" cx="54" cy="-18" rx="27" ry="18"/>
<text text-anchor="middle" x="54" y="-14.3" font-family="Times-Roman" font-size="14.00">!d</text>
</g>
<!-- I1&#45;&gt;!d1 -->
<g id="edge20" class="edge">
<title>I1&#45;&gt;!d1</title>
<g id="a_edge20"><a xlink:title="il">
<path fill="none" stroke="blue" d="M37.01,-63.06C40.5,-54.01 44.32,-44.09 47.46,-35.96"/>
<polygon fill="blue" stroke="blue" points="33.73,-61.82 33.4,-72.41 40.26,-64.34 33.73,-61.82"/>
</a>
</g>
</g>
<!-- !d1&#45;&gt;PiR0 -->
<g id="edge19" class="edge">
<title>!d1&#45;&gt;PiR0</title>
<g id="a_edge19"><a xlink:title="i">
<path fill="none" stroke="blue" d="M59.49,-46.01C60.93,-54.31 62.28,-63.5 63,-72 64.34,-87.94 64.34,-92.06 63,-108 61.98,-120.09 59.68,-133.57 57.65,-143.91"/>
<polygon fill="blue" stroke="blue" points="62.91,-45.29 57.65,-36.09 56.03,-46.56 62.91,-45.29"/>
</a>
</g>
</g>
<!-- PiR0&#45;&gt;I1 -->
<g id="edge21" class="edge">
<title>PiR0&#45;&gt;I1</title>
<g id="a_edge21"><a xlink:title="ir">
<path fill="none" stroke="red" d="M47.6,-144.41C44.49,-136.34 40.67,-126.43 37.17,-117.35"/>
<polygon fill="red" stroke="red" points="40.4,-116.03 33.54,-107.96 33.87,-118.55 40.4,-116.03"/>
</a>
</g>
</g>
<!-- I2 -->
<g id="node9" class="node">
<title>I2</title>
<ellipse fill="none" stroke="black" cx="251" cy="-840.49" rx="27" ry="18"/>
<text text-anchor="middle" x="251" y="-836.79" font-family="Times-Roman" font-size="14.00">I</text>
</g>
<!-- PiL2 -->
<g id="node24" class="node">
<title>PiL2</title>
<ellipse fill="none" stroke="black" cx="224" cy="-768.49" rx="27" ry="18"/>
<text text-anchor="middle" x="224" y="-764.79" font-family="Times-Roman" font-size="14.00">PiL</text>
</g>
<!-- I2&#45;&gt;PiL2 -->
<g id="edge27" class="edge">
<title>I2&#45;&gt;PiL2</title>
<g id="a_edge27"><a xlink:title="yl">
<path fill="none" stroke="blue" stroke-width="2" d="M240.99,-813.55C237.5,-804.5 233.68,-794.58 230.54,-786.45"/>
<polygon fill="blue" stroke="blue" stroke-width="2" points="237.74,-814.84 244.6,-822.91 244.27,-812.32 237.74,-814.84"/>
</a>
</g>
</g>
<!-- !p2 -->
<g id="node10" class="node">
<title>!p2</title>
<ellipse fill="none" stroke="black" cx="218" cy="-234" rx="27" ry="18"/>
<text text-anchor="middle" x="218" y="-230.3" font-family="Times-Roman" font-size="14.00">!p</text>
</g>
<!-- PiR1 -->
<g id="node11" class="node">
<title>PiR1</title>
<ellipse fill="none" stroke="black" cx="273" cy="-162" rx="27" ry="18"/>
<text text-anchor="middle" x="273" y="-158.3" font-family="Times-Roman" font-size="14.00">PiR</text>
</g>
<!-- !p2&#45;&gt;PiR1 -->
<g id="edge23" class="edge">
<title>!p2&#45;&gt;PiR1</title>
<g id="a_edge23"><a xlink:title="xli">
<path fill="none" stroke="red" d="M229.93,-217.81C237.21,-208.55 246.66,-196.52 254.85,-186.09"/>
<polygon fill="red" stroke="red" points="257.66,-188.18 261.09,-178.16 252.16,-183.86 257.66,-188.18"/>
</a>
</g>
</g>
<!-- PiR1&#45;&gt;Dup0_1 -->
<g id="edge13" class="edge">
<title>PiR1&#45;&gt;Dup0_1</title>
<g id="a_edge13"><a xlink:title="e7">
<path fill="none" stroke="red" d="M283.03,-178.92C298.14,-204.47 325,-256.69 325,-305 325,-769.49 325,-769.49 325,-769.49 325,-812.93 304.93,-860.23 291.02,-887.8"/>
<ellipse fill="none" stroke="red" cx="289.12" cy="-891.48" rx="4" ry="4"/>
</a>
</g>
</g>
<!-- Cut0 -->
<g id="node12" class="node">
<title>Cut0</title>
<ellipse fill="none" stroke="black" cx="218" cy="-306" rx="27" ry="18"/>
<text text-anchor="middle" x="218" y="-302.3" font-family="Times-Roman" font-size="14.00">Cut</text>
</g>
<!-- Cut0&#45;&gt;!p2 -->
<g id="edge24" class="edge">
<title>Cut0&#45;&gt;!p2</title>
<g id="a_edge24"><a xlink:title="xlp">
<path fill="none" stroke="red" d="M218,-287.7C218,-279.98 218,-270.71 218,-262.11"/>
<polygon fill="red" stroke="red" points="221.5,-262.1 218,-252.1 214.5,-262.1 221.5,-262.1"/>
</a>
</g>
</g>
<!-- Dup0_0 -->
<g id="node13" class="node">
<title>Dup0_0</title>
<ellipse fill="none" stroke="black" cx="218" cy="-393.25" rx="29.47" ry="29.47"/>
<ellipse fill="none" stroke="black" cx="218" cy="-393.25" rx="33.5" ry="33.5"/>
<text text-anchor="middle" x="218" y="-389.55" font-family="Times-Roman" font-size="14.00">Dup</text>
</g>
<!-- Dup0_0&#45;&gt;PiR1 -->
<g id="edge12" class="edge">
<title>Dup0_0&#45;&gt;PiR1</title>
<g id="a_edge12"><a xlink:title="e5">
<path fill="none" stroke="blue" d="M239.38,-357.68C244.98,-347.2 250.45,-335.43 254,-324 269.71,-273.47 272.59,-210.33 273.02,-180.35"/>
<ellipse fill="none" stroke="blue" cx="237.44" cy="-361.2" rx="4" ry="4"/>
</a>
</g>
</g>
<!-- Dup0_0&#45;&gt;Cut0 -->
<g id="edge11" class="edge">
<title>Dup0_0&#45;&gt;Cut0</title>
<g id="a_edge11"><a xlink:title="e4">
<path fill="none" stroke="blue" d="M218,-351.53C218,-341.91 218,-332.16 218,-324.25"/>
<ellipse fill="blue" stroke="blue" cx="218" cy="-355.53" rx="4" ry="4"/>
</a>
</g>
</g>
<!-- Dup0_1&#45;&gt;I2 -->
<g id="edge18" class="edge">
<title>Dup0_1&#45;&gt;I2</title>
<g id="a_edge18"><a xlink:title="hr">
<path fill="none" stroke="red" stroke-width="2" d="M271.6,-894.91C268.49,-886.83 264.67,-876.93 261.17,-867.85"/>
<polygon fill="red" stroke="red" stroke-width="2" points="264.4,-866.52 257.54,-858.45 257.87,-869.04 264.4,-866.52"/>
</a>
</g>
</g>
<!-- !p3 -->
<g id="node15" class="node">
<title>!p3</title>
<ellipse fill="none" stroke="black" cx="126" cy="-552.49" rx="27" ry="18"/>
<text text-anchor="middle" x="126" y="-548.79" font-family="Times-Roman" font-size="14.00">!p</text>
</g>
<!-- !c0 -->
<g id="node17" class="node">
<title>!c0</title>
<ellipse fill="none" stroke="black" cx="205" cy="-480.49" rx="27" ry="18"/>
<text text-anchor="middle" x="205" y="-476.79" font-family="Times-Roman" font-size="14.00">!c</text>
</g>
<!-- !p3&#45;&gt;!c0 -->
<g id="edge4" class="edge">
<title>!p3&#45;&gt;!c0</title>
<g id="a_edge4"><a xlink:title="e15">
<path fill="none" stroke="blue" d="M149.24,-530.9C162.19,-519.43 177.96,-505.45 189.42,-495.3"/>
<polygon fill="blue" stroke="blue" points="146.77,-528.41 141.61,-537.67 151.41,-533.65 146.77,-528.41"/>
</a>
</g>
</g>
<!-- I3 -->
<g id="node22" class="node">
<title>I3</title>
<ellipse fill="none" stroke="black" cx="95" cy="-480.49" rx="27" ry="18"/>
<text text-anchor="middle" x="95" y="-476.79" font-family="Times-Roman" font-size="14.00">I</text>
</g>
<!-- !p3&#45;&gt;I3 -->
<g id="edge1" class="edge">
<title>!p3&#45;&gt;I3</title>
<g id="a_edge1"><a xlink:title="e11">
<path fill="none" stroke="red" d="M118.65,-534.91C114.99,-526.62 110.47,-516.42 106.36,-507.16"/>
<polygon fill="red" stroke="red" points="109.54,-505.69 102.29,-497.96 103.14,-508.53 109.54,-505.69"/>
</a>
</g>
</g>
<!-- Cut1&#45;&gt;!p3 -->
<g id="edge14" class="edge">
<title>Cut1&#45;&gt;!p3</title>
<g id="a_edge14"><a xlink:title="e9">
<path fill="none" stroke="red" d="M145.84,-606.91C142.84,-598.83 139.16,-588.93 135.79,-579.85"/>
<polygon fill="red" stroke="red" points="139.06,-578.61 132.3,-570.45 132.5,-581.04 139.06,-578.61"/>
</a>
</g>
</g>
<!-- !c0&#45;&gt;Dup0_0 -->
<g id="edge15" class="edge">
<title>!c0&#45;&gt;Dup0_0</title>
<g id="a_edge15"><a xlink:title="h">
<path fill="none" stroke="blue" stroke-width="2" d="M209.14,-452.35C210.4,-444.06 211.8,-434.88 213.11,-426.3"/>
<polygon fill="blue" stroke="blue" stroke-width="2" points="205.68,-451.83 207.63,-462.24 212.6,-452.89 205.68,-451.83"/>
</a>
</g>
</g>
<!-- !d2 -->
<g id="node18" class="node">
<title>!d2</title>
<ellipse fill="none" stroke="black" cx="198" cy="-552.49" rx="27" ry="18"/>
<text text-anchor="middle" x="198" y="-548.79" font-family="Times-Roman" font-size="14.00">!d</text>
</g>
<!-- !d2&#45;&gt;!c0 -->
<g id="edge3" class="edge">
<title>!d2&#45;&gt;!c0</title>
<g id="a_edge3"><a xlink:title="e14">
<path fill="none" stroke="blue" stroke-width="2" d="M200.73,-524.16C201.59,-515.55 202.52,-506.29 203.29,-498.6"/>
<polygon fill="blue" stroke="blue" stroke-width="2" points="197.24,-523.89 199.73,-534.19 204.21,-524.59 197.24,-523.89"/>
</a>
</g>
</g>
<!-- !d3 -->
<g id="node19" class="node">
<title>!d3</title>
<ellipse fill="none" stroke="black" cx="140" cy="-306" rx="27" ry="18"/>
<text text-anchor="middle" x="140" y="-302.3" font-family="Times-Roman" font-size="14.00">!d</text>
</g>
<!-- !d3&#45;&gt;!p3 -->
<g id="edge2" class="edge">
<title>!d3&#45;&gt;!p3</title>
<g id="a_edge2"><a xlink:title="e13">
<path fill="none" stroke="blue" d="M139.12,-334.22C137.84,-371.37 135.13,-440.03 131,-498.49 130.15,-510.48 128.88,-523.96 127.83,-534.33"/>
<polygon fill="blue" stroke="blue" points="142.62,-334.29 139.46,-324.18 135.63,-334.06 142.62,-334.29"/>
</a>
</g>
</g>
<!-- PiL0 -->
<g id="node20" class="node">
<title>PiL0</title>
<ellipse fill="none" stroke="black" cx="80" cy="-624.49" rx="27" ry="18"/>
<text text-anchor="middle" x="80" y="-620.79" font-family="Times-Roman" font-size="14.00">PiL</text>
</g>
<!-- PiL0&#45;&gt;!d2 -->
<g id="edge5" class="edge">
<title>PiL0&#45;&gt;!d2</title>
<g id="a_edge5"><a xlink:title="e16">
<path fill="none" stroke="blue" stroke-width="2" d="M108.26,-606.73C129.96,-593.86 159.34,-576.43 178.49,-565.07"/>
<polygon fill="blue" stroke="blue" stroke-width="2" points="106.3,-603.82 99.49,-611.94 109.87,-609.84 106.3,-603.82"/>
</a>
</g>
</g>
<!-- Dup1_0 -->
<g id="node23" class="node">
<title>Dup1_0</title>
<ellipse fill="none" stroke="black" cx="54" cy="-306" rx="29.5" ry="18"/>
<text text-anchor="middle" x="54" y="-302.3" font-family="Times-Roman" font-size="14.00">Dup</text>
</g>
<!-- PiL0&#45;&gt;Dup1_0 -->
<g id="edge9" class="edge">
<title>PiL0&#45;&gt;Dup1_0</title>
<g id="a_edge9"><a xlink:title="e20">
<path fill="none" stroke="red" d="M76.39,-606.61C71.45,-582.69 62.77,-537.48 59,-498.49 53.27,-439.19 53.11,-369.12 53.53,-332.38"/>
<ellipse fill="red" stroke="red" cx="53.59" cy="-328.21" rx="4" ry="4"/>
</a>
</g>
</g>
<!-- PiL1 -->
<g id="node21" class="node">
<title>PiL1</title>
<ellipse fill="none" stroke="black" cx="95" cy="-393.25" rx="27" ry="18"/>
<text text-anchor="middle" x="95" y="-389.55" font-family="Times-Roman" font-size="14.00">PiL</text>
</g>
<!-- PiL1&#45;&gt;!d3 -->
<g id="edge6" class="edge">
<title>PiL1&#45;&gt;!d3</title>
<g id="a_edge6"><a xlink:title="e17">
<path fill="none" stroke="blue" d="M108.54,-366.6C116,-352.46 125.03,-335.35 131.5,-323.1"/>
<polygon fill="blue" stroke="blue" points="105.25,-365.33 103.68,-375.81 111.44,-368.6 105.25,-365.33"/>
</a>
</g>
</g>
<!-- PiL1&#45;&gt;Dup1_0 -->
<g id="edge10" class="edge">
<title>PiL1&#45;&gt;Dup1_0</title>
<g id="a_edge10"><a xlink:title="e21">
<path fill="none" stroke="red" d="M87.09,-375.81C80.97,-363.07 72.39,-345.24 65.51,-330.93"/>
<ellipse fill="none" stroke="red" cx="63.61" cy="-326.99" rx="4" ry="4"/>
</a>
</g>
</g>
<!-- I3&#45;&gt;PiL1 -->
<g id="edge8" class="edge">
<title>I3&#45;&gt;PiL1</title>
<g id="a_edge8"><a xlink:title="e19">
<path fill="none" stroke="blue" d="M95,-452.15C95,-438.8 95,-423.14 95,-411.47"/>
<polygon fill="blue" stroke="blue" points="91.5,-452.24 95,-462.24 98.5,-452.24 91.5,-452.24"/>
</a>
</g>
</g>
<!-- Dup1_0&#45;&gt;!p1 -->
<g id="edge17" class="edge">
<title>Dup1_0&#45;&gt;!p1</title>
<g id="a_edge17"><a xlink:title="hl2p">
<path fill="none" stroke="red" d="M54,-287.7C54,-279.98 54,-270.71 54,-262.11"/>
<polygon fill="red" stroke="red" points="57.5,-262.1 54,-252.1 50.5,-262.1 57.5,-262.1"/>
</a>
</g>
</g>
<!-- PiL2&#45;&gt;!p0 -->
<g id="edge30" class="edge">
<title>PiL2&#45;&gt;!p0</title>
<g id="a_edge30"><a xlink:title="ylp">
<path fill="none" stroke="red" d="M224,-750.19C224,-742.48 224,-733.21 224,-724.61"/>
<polygon fill="red" stroke="red" points="227.5,-724.6 224,-714.6 220.5,-724.6 227.5,-724.6"/>
</a>
</g>
</g>
<!-- PiL2&#45;&gt;PiL0 -->
<g id="edge7" class="edge">
<title>PiL2&#45;&gt;PiL0</title>
<g id="a_edge7"><a xlink:title="e18">
<path fill="none" stroke="blue" stroke-width="2" d="M202,-745.8C172.25,-716.46 120,-664.94 94.64,-639.93"/>
<polygon fill="blue" stroke="blue" stroke-width="2" points="199.82,-748.57 209.4,-753.1 204.74,-743.58 199.82,-748.57"/>
</a>
</g>
</g>
</g>
</svg>
