<?xml version="1.0" encoding="UTF-8" standalone="no"?>
<!DOCTYPE svg PUBLIC "-//W3C//DTD SVG 1.1//EN"
 "http://www.w3.org/Graphics/SVG/1.1/DTD/svg11.dtd">
<!-- Generated by graphviz version 2.43.0 (0)
 -->
<!-- Title: %3 Pages: 1 -->
<svg width="93pt" height="717pt"
 viewBox="0.00 0.00 92.65 717.30" xmlns="http://www.w3.org/2000/svg" xmlns:xlink="http://www.w3.org/1999/xlink">
<g id="graph0" class="graph" transform="scale(1 1) rotate(0) translate(4 713.3)">
<title>%3</title>
<polygon fill="white" stroke="transparent" points="-4,4 -4,-713.3 88.65,-713.3 88.65,4 -4,4"/>
<!-- Root0 -->
<g id="node1" class="node">
<title>Root0</title>
<ellipse fill="none" stroke="black" cx="54" cy="-691.3" rx="30.59" ry="18"/>
<text text-anchor="middle" x="54" y="-687.6" font-family="Times-Roman" font-size="14.00">Root</text>
</g>
<!-- I2 -->
<g id="node8" class="node">
<title>I2</title>
<ellipse fill="none" stroke="black" cx="54" cy="-619.3" rx="27" ry="18"/>
<text text-anchor="middle" x="54" y="-615.6" font-family="Times-Roman" font-size="14.00">I</text>
</g>
<!-- Root0&#45;&gt;I2 -->
<g id="edge10" class="edge">
<title>Root0&#45;&gt;I2</title>
<g id="a_edge10"><a xlink:title="rettop">
<path fill="none" stroke="red" stroke-width="2" d="M54,-672.99C54,-665.28 54,-656.01 54,-647.41"/>
<polygon fill="red" stroke="red" stroke-width="2" points="57.5,-647.4 54,-637.4 50.5,-647.4 57.5,-647.4"/>
</a>
</g>
</g>
<!-- !p0 -->
<g id="node2" class="node">
<title>!p0</title>
<ellipse fill="none" stroke="black" cx="54" cy="-234" rx="27" ry="18"/>
<text text-anchor="middle" x="54" y="-230.3" font-family="Times-Roman" font-size="14.00">!p</text>
</g>
<!-- PiR0 -->
<g id="node3" class="node">
<title>PiR0</title>
<ellipse fill="none" stroke="black" cx="54" cy="-162" rx="27" ry="18"/>
<text text-anchor="middle" x="54" y="-158.3" font-family="Times-Roman" font-size="14.00">PiR</text>
</g>
<!-- !p0&#45;&gt;PiR0 -->
<g id="edge3" class="edge">
<title>!p0&#45;&gt;PiR0</title>
<g id="a_edge3"><a xlink:title="e111">
<path fill="none" stroke="red" d="M54,-215.7C54,-207.98 54,-198.71 54,-190.11"/>
<polygon fill="red" stroke="red" points="57.5,-190.1 54,-180.1 50.5,-190.1 57.5,-190.1"/>
</a>
</g>
</g>
<!-- I0 -->
<g id="node5" class="node">
<title>I0</title>
<ellipse fill="none" stroke="black" cx="27" cy="-90" rx="27" ry="18"/>
<text text-anchor="middle" x="27" y="-86.3" font-family="Times-Roman" font-size="14.00">I</text>
</g>
<!-- PiR0&#45;&gt;I0 -->
<g id="edge5" class="edge">
<title>PiR0&#45;&gt;I0</title>
<g id="a_edge5"><a xlink:title="e119">
<path fill="none" stroke="red" d="M47.6,-144.41C44.49,-136.34 40.67,-126.43 37.17,-117.35"/>
<polygon fill="red" stroke="red" points="40.4,-116.03 33.54,-107.96 33.87,-118.55 40.4,-116.03"/>
</a>
</g>
</g>
<!-- !d0 -->
<g id="node4" class="node">
<title>!d0</title>
<ellipse fill="none" stroke="black" cx="54" cy="-18" rx="27" ry="18"/>
<text text-anchor="middle" x="54" y="-14.3" font-family="Times-Roman" font-size="14.00">!d</text>
</g>
<!-- !d0&#45;&gt;PiR0 -->
<g id="edge4" class="edge">
<title>!d0&#45;&gt;PiR0</title>
<g id="a_edge4"><a xlink:title="e117">
<path fill="none" stroke="blue" d="M59.49,-46.01C60.93,-54.31 62.28,-63.5 63,-72 64.34,-87.94 64.34,-92.06 63,-108 61.98,-120.09 59.68,-133.57 57.65,-143.91"/>
<polygon fill="blue" stroke="blue" points="62.91,-45.29 57.65,-36.09 56.03,-46.56 62.91,-45.29"/>
</a>
</g>
</g>
<!-- I0&#45;&gt;!d0 -->
<g id="edge6" class="edge">
<title>I0&#45;&gt;!d0</title>
<g id="a_edge6"><a xlink:title="e123">
<path fill="none" stroke="blue" d="M37.01,-63.06C40.5,-54.01 44.32,-44.09 47.46,-35.96"/>
<polygon fill="blue" stroke="blue" points="33.73,-61.82 33.4,-72.41 40.26,-64.34 33.73,-61.82"/>
</a>
</g>
</g>
<!-- !d1 -->
<g id="node6" class="node">
<title>!d1</title>
<ellipse fill="none" stroke="black" cx="54" cy="-378" rx="27" ry="18"/>
<text text-anchor="middle" x="54" y="-374.3" font-family="Times-Roman" font-size="14.00">!d</text>
</g>
<!-- Cut0 -->
<g id="node9" class="node">
<title>Cut0</title>
<ellipse fill="none" stroke="black" cx="54" cy="-306" rx="27" ry="18"/>
<text text-anchor="middle" x="54" y="-302.3" font-family="Times-Roman" font-size="14.00">Cut</text>
</g>
<!-- !d1&#45;&gt;Cut0 -->
<g id="edge7" class="edge">
<title>!d1&#45;&gt;Cut0</title>
<g id="a_edge7"><a xlink:title="e129">
<path fill="none" stroke="blue" d="M54,-349.67C54,-341.05 54,-331.79 54,-324.1"/>
<polygon fill="blue" stroke="blue" points="50.5,-349.7 54,-359.7 57.5,-349.7 50.5,-349.7"/>
</a>
</g>
</g>
<!-- I1 -->
<g id="node7" class="node">
<title>I1</title>
<ellipse fill="none" stroke="black" cx="54" cy="-450" rx="27" ry="18"/>
<text text-anchor="middle" x="54" y="-446.3" font-family="Times-Roman" font-size="14.00">I</text>
</g>
<!-- I1&#45;&gt;!d1 -->
<g id="edge9" class="edge">
<title>I1&#45;&gt;!d1</title>
<g id="a_edge9"><a xlink:title="e133">
<path fill="none" stroke="blue" d="M54,-421.67C54,-413.05 54,-403.79 54,-396.1"/>
<polygon fill="blue" stroke="blue" points="50.5,-421.7 54,-431.7 57.5,-421.7 50.5,-421.7"/>
</a>
</g>
</g>
<!-- Cut1 -->
<g id="node10" class="node">
<title>Cut1</title>
<ellipse fill="none" stroke="black" cx="54" cy="-534.65" rx="26.78" ry="26.78"/>
<ellipse fill="none" stroke="black" cx="54" cy="-534.65" rx="30.8" ry="30.8"/>
<text text-anchor="middle" x="54" y="-530.95" font-family="Times-Roman" font-size="14.00">Cut</text>
</g>
<!-- I2&#45;&gt;Cut1 -->
<g id="edge1" class="edge">
<title>I2&#45;&gt;Cut1</title>
<g id="a_edge1"><a xlink:title="e105">
<path fill="none" stroke="blue" stroke-width="2" d="M54,-591.01C54,-582.82 54,-573.8 54,-565.45"/>
<polygon fill="blue" stroke="blue" stroke-width="2" points="50.5,-591.17 54,-601.17 57.5,-591.17 50.5,-591.17"/>
</a>
</g>
</g>
<!-- Cut0&#45;&gt;!p0 -->
<g id="edge2" class="edge">
<title>Cut0&#45;&gt;!p0</title>
<g id="a_edge2"><a xlink:title="e107">
<path fill="none" stroke="red" d="M54,-287.7C54,-279.98 54,-270.71 54,-262.11"/>
<polygon fill="red" stroke="red" points="57.5,-262.1 54,-252.1 50.5,-262.1 57.5,-262.1"/>
</a>
</g>
</g>
<!-- Cut1&#45;&gt;I1 -->
<g id="edge8" class="edge">
<title>Cut1&#45;&gt;I1</title>
<g id="a_edge8"><a xlink:title="e131">
<path fill="none" stroke="red" d="M54,-503.81C54,-495.45 54,-486.41 54,-478.21"/>
<polygon fill="red" stroke="red" points="57.5,-478.05 54,-468.05 50.5,-478.05 57.5,-478.05"/>
</a>
</g>
</g>
</g>
</svg>
