<?xml version="1.0" encoding="UTF-8" standalone="no"?>
<!DOCTYPE svg PUBLIC "-//W3C//DTD SVG 1.1//EN"
 "http://www.w3.org/Graphics/SVG/1.1/DTD/svg11.dtd">
<!-- Generated by graphviz version 2.43.0 (0)
 -->
<!-- Title: %3 Pages: 1 -->
<svg width="489pt" height="1802pt"
 viewBox="0.00 0.00 489.00 1802.49" xmlns="http://www.w3.org/2000/svg" xmlns:xlink="http://www.w3.org/1999/xlink">
<g id="graph0" class="graph" transform="scale(1 1) rotate(0) translate(4 1798.49)">
<title>%3</title>
<polygon fill="white" stroke="transparent" points="-4,4 -4,-1798.49 485,-1798.49 485,4 -4,4"/>
<!-- Root0 -->
<g id="node1" class="node">
<title>Root0</title>
<ellipse fill="none" stroke="black" cx="283" cy="-1776.49" rx="30.59" ry="18"/>
<text text-anchor="middle" x="283" y="-1772.79" font-family="Times-Roman" font-size="14.00">Root</text>
</g>
<!-- I3 -->
<g id="node12" class="node">
<title>I3</title>
<ellipse fill="none" stroke="black" cx="283" cy="-1704.49" rx="27" ry="18"/>
<text text-anchor="middle" x="283" y="-1700.79" font-family="Times-Roman" font-size="14.00">I</text>
</g>
<!-- Root0&#45;&gt;I3 -->
<g id="edge45" class="edge">
<title>Root0&#45;&gt;I3</title>
<g id="a_edge45"><a xlink:title="rettop">
<path fill="none" stroke="red" stroke-width="2" d="M283,-1758.19C283,-1750.48 283,-1741.21 283,-1732.61"/>
<polygon fill="red" stroke="red" stroke-width="2" points="286.5,-1732.6 283,-1722.6 279.5,-1732.6 286.5,-1732.6"/>
</a>
</g>
</g>
<!-- !p0 -->
<g id="node2" class="node">
<title>!p0</title>
<ellipse fill="none" stroke="black" cx="97" cy="-1344.49" rx="27" ry="18"/>
<text text-anchor="middle" x="97" y="-1340.79" font-family="Times-Roman" font-size="14.00">!p</text>
</g>
<!-- I0 -->
<g id="node3" class="node">
<title>I0</title>
<ellipse fill="none" stroke="black" cx="61" cy="-1272.49" rx="27" ry="18"/>
<text text-anchor="middle" x="61" y="-1268.79" font-family="Times-Roman" font-size="14.00">I</text>
</g>
<!-- !p0&#45;&gt;I0 -->
<g id="edge49" class="edge">
<title>!p0&#45;&gt;I0</title>
<g id="a_edge49"><a xlink:title="yli">
<path fill="none" stroke="red" d="M88.65,-1327.26C84.29,-1318.78 78.85,-1308.21 73.96,-1298.69"/>
<polygon fill="red" stroke="red" points="76.99,-1296.93 69.3,-1289.64 70.77,-1300.14 76.99,-1296.93"/>
</a>
</g>
</g>
<!-- Cut0 -->
<g id="node8" class="node">
<title>Cut0</title>
<ellipse fill="none" stroke="black" cx="133" cy="-1272.49" rx="27" ry="18"/>
<text text-anchor="middle" x="133" y="-1268.79" font-family="Times-Roman" font-size="14.00">Cut</text>
</g>
<!-- !p0&#45;&gt;Cut0 -->
<g id="edge46" class="edge">
<title>!p0&#45;&gt;Cut0</title>
<g id="a_edge46"><a xlink:title="y2">
<path fill="none" stroke="blue" d="M110.01,-1318.2C114.91,-1308.67 120.34,-1298.11 124.7,-1289.64"/>
<polygon fill="blue" stroke="blue" points="106.81,-1316.77 105.35,-1327.26 113.04,-1319.97 106.81,-1316.77"/>
</a>
</g>
</g>
<!-- !d0 -->
<g id="node4" class="node">
<title>!d0</title>
<ellipse fill="none" stroke="black" cx="33" cy="-1200.49" rx="27" ry="18"/>
<text text-anchor="middle" x="33" y="-1196.79" font-family="Times-Roman" font-size="14.00">!d</text>
</g>
<!-- I0&#45;&gt;!d0 -->
<g id="edge48" class="edge">
<title>I0&#45;&gt;!d0</title>
<g id="a_edge48"><a xlink:title="yl2">
<path fill="none" stroke="blue" d="M50.56,-1245.41C46.89,-1236.21 42.86,-1226.14 39.59,-1217.96"/>
<polygon fill="blue" stroke="blue" points="47.4,-1246.92 54.36,-1254.91 53.9,-1244.32 47.4,-1246.92"/>
</a>
</g>
</g>
<!-- !d0&#45;&gt;!p0 -->
<g id="edge47" class="edge">
<title>!d0&#45;&gt;!p0</title>
<g id="a_edge47"><a xlink:title="yj">
<path fill="none" stroke="blue" d="M23.46,-1228.05C18.48,-1246.52 15.24,-1271.19 25,-1290.49 35.37,-1311 57.81,-1325.51 74.9,-1334.1"/>
<polygon fill="blue" stroke="blue" points="26.88,-1228.82 26.42,-1218.24 20.18,-1226.8 26.88,-1228.82"/>
</a>
</g>
</g>
<!-- I1 -->
<g id="node5" class="node">
<title>I1</title>
<ellipse fill="none" stroke="black" cx="167" cy="-234" rx="27" ry="18"/>
<text text-anchor="middle" x="167" y="-230.3" font-family="Times-Roman" font-size="14.00">I</text>
</g>
<!-- !d1 -->
<g id="node6" class="node">
<title>!d1</title>
<ellipse fill="none" stroke="black" cx="167" cy="-162" rx="27" ry="18"/>
<text text-anchor="middle" x="167" y="-158.3" font-family="Times-Roman" font-size="14.00">!d</text>
</g>
<!-- I1&#45;&gt;!d1 -->
<g id="edge43" class="edge">
<title>I1&#45;&gt;!d1</title>
<g id="a_edge43"><a xlink:title="il">
<path fill="none" stroke="blue" d="M167,-205.67C167,-197.05 167,-187.79 167,-180.1"/>
<polygon fill="blue" stroke="blue" points="163.5,-205.7 167,-215.7 170.5,-205.7 163.5,-205.7"/>
</a>
</g>
</g>
<!-- Dup3_0 -->
<g id="node38" class="node">
<title>Dup3_0</title>
<ellipse fill="none" stroke="black" cx="168" cy="-90" rx="29.5" ry="18"/>
<text text-anchor="middle" x="168" y="-86.3" font-family="Times-Roman" font-size="14.00">Dup</text>
</g>
<!-- !d1&#45;&gt;Dup3_0 -->
<g id="edge42" class="edge">
<title>!d1&#45;&gt;Dup3_0</title>
<g id="a_edge42"><a xlink:title="i">
<path fill="none" stroke="blue" d="M167.39,-133.67C167.51,-125.05 167.65,-115.79 167.76,-108.1"/>
<polygon fill="blue" stroke="blue" points="163.89,-133.65 167.25,-143.7 170.89,-133.75 163.89,-133.65"/>
</a>
</g>
</g>
<!-- !p1 -->
<g id="node7" class="node">
<title>!p1</title>
<ellipse fill="none" stroke="black" cx="119" cy="-1200.49" rx="27" ry="18"/>
<text text-anchor="middle" x="119" y="-1196.79" font-family="Times-Roman" font-size="14.00">!p</text>
</g>
<!-- I2 -->
<g id="node11" class="node">
<title>I2</title>
<ellipse fill="none" stroke="black" cx="82" cy="-1128.49" rx="27" ry="18"/>
<text text-anchor="middle" x="82" y="-1124.79" font-family="Times-Roman" font-size="14.00">I</text>
</g>
<!-- !p1&#45;&gt;I2 -->
<g id="edge1" class="edge">
<title>!p1&#45;&gt;I2</title>
<g id="a_edge1"><a xlink:title="e11">
<path fill="none" stroke="red" d="M110.42,-1183.26C105.94,-1174.78 100.35,-1164.21 95.32,-1154.69"/>
<polygon fill="red" stroke="red" points="98.3,-1152.85 90.54,-1145.64 92.11,-1156.12 98.3,-1152.85"/>
</a>
</g>
</g>
<!-- Dup1_0 -->
<g id="node29" class="node">
<title>Dup1_0</title>
<ellipse fill="none" stroke="black" cx="156" cy="-1128.49" rx="29.5" ry="18"/>
<text text-anchor="middle" x="156" y="-1124.79" font-family="Times-Roman" font-size="14.00">Dup</text>
</g>
<!-- !p1&#45;&gt;Dup1_0 -->
<g id="edge3" class="edge">
<title>!p1&#45;&gt;Dup1_0</title>
<g id="a_edge3"><a xlink:title="e15">
<path fill="none" stroke="blue" d="M132.3,-1174.33C137.26,-1164.96 142.76,-1154.55 147.21,-1146.13"/>
<polygon fill="blue" stroke="blue" points="129.16,-1172.78 127.58,-1183.26 135.35,-1176.05 129.16,-1172.78"/>
</a>
</g>
</g>
<!-- Cut0&#45;&gt;!p1 -->
<g id="edge41" class="edge">
<title>Cut0&#45;&gt;!p1</title>
<g id="a_edge41"><a xlink:title="e9">
<path fill="none" stroke="red" d="M129.61,-1254.55C128.07,-1246.84 126.21,-1237.52 124.47,-1228.86"/>
<polygon fill="red" stroke="red" points="127.85,-1227.89 122.46,-1218.77 120.98,-1229.26 127.85,-1227.89"/>
</a>
</g>
</g>
<!-- !d2 -->
<g id="node9" class="node">
<title>!d2</title>
<ellipse fill="none" stroke="black" cx="27" cy="-984.49" rx="27" ry="18"/>
<text text-anchor="middle" x="27" y="-980.79" font-family="Times-Roman" font-size="14.00">!d</text>
</g>
<!-- !d2&#45;&gt;!p1 -->
<g id="edge2" class="edge">
<title>!d2&#45;&gt;!p1</title>
<g id="a_edge2"><a xlink:title="e13">
<path fill="none" stroke="blue" d="M23.86,-1012.96C21.36,-1046.78 21.6,-1104.86 46,-1146.49 57.72,-1166.49 80.29,-1181.08 97.24,-1189.83"/>
<polygon fill="blue" stroke="blue" points="27.36,-1013.15 24.75,-1002.88 20.39,-1012.54 27.36,-1013.15"/>
</a>
</g>
</g>
<!-- PiL0 -->
<g id="node10" class="node">
<title>PiL0</title>
<ellipse fill="none" stroke="black" cx="82" cy="-1056.49" rx="27" ry="18"/>
<text text-anchor="middle" x="82" y="-1052.79" font-family="Times-Roman" font-size="14.00">PiL</text>
</g>
<!-- PiL0&#45;&gt;!d2 -->
<g id="edge4" class="edge">
<title>PiL0&#45;&gt;!d2</title>
<g id="a_edge4"><a xlink:title="e17">
<path fill="none" stroke="blue" d="M63.83,-1032.37C55.63,-1021.94 46.19,-1009.91 38.91,-1000.65"/>
<polygon fill="blue" stroke="blue" points="61.14,-1034.61 70.07,-1040.31 66.64,-1030.28 61.14,-1034.61"/>
</a>
</g>
</g>
<!-- !p3 -->
<g id="node27" class="node">
<title>!p3</title>
<ellipse fill="none" stroke="black" cx="64" cy="-912.49" rx="27" ry="18"/>
<text text-anchor="middle" x="64" y="-908.79" font-family="Times-Roman" font-size="14.00">!p</text>
</g>
<!-- PiL0&#45;&gt;!p3 -->
<g id="edge6" class="edge">
<title>PiL0&#45;&gt;!p3</title>
<g id="a_edge6"><a xlink:title="e21">
<path fill="none" stroke="red" d="M79.83,-1038.37C76.76,-1014.17 71.13,-969.71 67.47,-940.89"/>
<polygon fill="red" stroke="red" points="70.91,-940.16 66.18,-930.68 63.96,-941.04 70.91,-940.16"/>
</a>
</g>
</g>
<!-- I2&#45;&gt;PiL0 -->
<g id="edge5" class="edge">
<title>I2&#45;&gt;PiL0</title>
<g id="a_edge5"><a xlink:title="e19">
<path fill="none" stroke="blue" d="M82,-1100.16C82,-1091.55 82,-1082.29 82,-1074.6"/>
<polygon fill="blue" stroke="blue" points="78.5,-1100.19 82,-1110.19 85.5,-1100.19 78.5,-1100.19"/>
</a>
</g>
</g>
<!-- PiL5 -->
<g id="node26" class="node">
<title>PiL5</title>
<ellipse fill="none" stroke="black" cx="283" cy="-1632.49" rx="27" ry="18"/>
<text text-anchor="middle" x="283" y="-1628.79" font-family="Times-Roman" font-size="14.00">PiL</text>
</g>
<!-- I3&#45;&gt;PiL5 -->
<g id="edge10" class="edge">
<title>I3&#45;&gt;PiL5</title>
<g id="a_edge10"><a xlink:title="e32">
<path fill="none" stroke="blue" stroke-width="2" d="M283,-1676.16C283,-1667.55 283,-1658.29 283,-1650.6"/>
<polygon fill="blue" stroke="blue" stroke-width="2" points="279.5,-1676.19 283,-1686.19 286.5,-1676.19 279.5,-1676.19"/>
</a>
</g>
</g>
<!-- !p2 -->
<g id="node13" class="node">
<title>!p2</title>
<ellipse fill="none" stroke="black" cx="201" cy="-984.49" rx="27" ry="18"/>
<text text-anchor="middle" x="201" y="-980.79" font-family="Times-Roman" font-size="14.00">!p</text>
</g>
<!-- PiR0 -->
<g id="node15" class="node">
<title>PiR0</title>
<ellipse fill="none" stroke="black" cx="202" cy="-912.49" rx="27" ry="18"/>
<text text-anchor="middle" x="202" y="-908.79" font-family="Times-Roman" font-size="14.00">PiR</text>
</g>
<!-- !p2&#45;&gt;PiR0 -->
<g id="edge14" class="edge">
<title>!p2&#45;&gt;PiR0</title>
<g id="a_edge14"><a xlink:title="e39">
<path fill="none" stroke="red" d="M201.25,-966.19C201.36,-958.48 201.49,-949.21 201.61,-940.61"/>
<polygon fill="red" stroke="red" points="205.11,-940.65 201.76,-930.6 198.11,-940.55 205.11,-940.65"/>
</a>
</g>
</g>
<!-- Cut1 -->
<g id="node14" class="node">
<title>Cut1</title>
<ellipse fill="none" stroke="black" cx="201" cy="-1056.49" rx="27" ry="18"/>
<text text-anchor="middle" x="201" y="-1052.79" font-family="Times-Roman" font-size="14.00">Cut</text>
</g>
<!-- Cut1&#45;&gt;!p2 -->
<g id="edge13" class="edge">
<title>Cut1&#45;&gt;!p2</title>
<g id="a_edge13"><a xlink:title="e37">
<path fill="none" stroke="red" d="M201,-1038.19C201,-1030.48 201,-1021.21 201,-1012.61"/>
<polygon fill="red" stroke="red" points="204.5,-1012.6 201,-1002.6 197.5,-1012.6 204.5,-1012.6"/>
</a>
</g>
</g>
<!-- I4 -->
<g id="node22" class="node">
<title>I4</title>
<ellipse fill="none" stroke="black" cx="257" cy="-840.49" rx="27" ry="18"/>
<text text-anchor="middle" x="257" y="-836.79" font-family="Times-Roman" font-size="14.00">I</text>
</g>
<!-- PiR0&#45;&gt;I4 -->
<g id="edge16" class="edge">
<title>PiR0&#45;&gt;I4</title>
<g id="a_edge16"><a xlink:title="e43">
<path fill="none" stroke="red" d="M213.93,-896.31C221.21,-887.04 230.66,-875.02 238.85,-864.59"/>
<polygon fill="red" stroke="red" points="241.66,-866.68 245.09,-856.65 236.16,-862.35 241.66,-866.68"/>
</a>
</g>
</g>
<!-- !c0 -->
<g id="node16" class="node">
<title>!c0</title>
<ellipse fill="none" stroke="black" cx="179" cy="-552.49" rx="27" ry="18"/>
<text text-anchor="middle" x="179" y="-548.79" font-family="Times-Roman" font-size="14.00">!c</text>
</g>
<!-- !c0&#45;&gt;PiR0 -->
<g id="edge15" class="edge">
<title>!c0&#45;&gt;PiR0</title>
<g id="a_edge15"><a xlink:title="e41">
<path fill="none" stroke="blue" d="M180.76,-580.85C185.27,-651.15 197.19,-836.69 200.89,-894.23"/>
<polygon fill="blue" stroke="blue" points="184.23,-580.34 180.1,-570.59 177.25,-580.79 184.23,-580.34"/>
</a>
</g>
</g>
<!-- !d3 -->
<g id="node17" class="node">
<title>!d3</title>
<ellipse fill="none" stroke="black" cx="306" cy="-624.49" rx="27" ry="18"/>
<text text-anchor="middle" x="306" y="-620.79" font-family="Times-Roman" font-size="14.00">!d</text>
</g>
<!-- !d3&#45;&gt;!c0 -->
<g id="edge18" class="edge">
<title>!d3&#45;&gt;!c0</title>
<g id="a_edge18"><a xlink:title="e46">
<path fill="none" stroke="blue" d="M276.98,-607.5C253.3,-594.45 220.44,-576.34 199.45,-564.77"/>
<polygon fill="blue" stroke="blue" points="275.43,-610.64 285.88,-612.4 278.81,-604.51 275.43,-610.64"/>
</a>
</g>
</g>
<!-- PiL1 -->
<g id="node18" class="node">
<title>PiL1</title>
<ellipse fill="none" stroke="black" cx="380" cy="-696.49" rx="27" ry="18"/>
<text text-anchor="middle" x="380" y="-692.79" font-family="Times-Roman" font-size="14.00">PiL</text>
</g>
<!-- Dup0_1 -->
<g id="node24" class="node">
<title>Dup0_1</title>
<ellipse fill="none" stroke="black" cx="380" cy="-624.49" rx="29.5" ry="18"/>
<text text-anchor="middle" x="380" y="-620.79" font-family="Times-Roman" font-size="14.00">Dup</text>
</g>
<!-- PiL1&#45;&gt;Dup0_1 -->
<g id="edge24" class="edge">
<title>PiL1&#45;&gt;Dup0_1</title>
<g id="a_edge24"><a xlink:title="e52">
<path fill="none" stroke="red" d="M380,-678.19C380,-669.88 380,-659.77 380,-650.64"/>
<ellipse fill="red" stroke="red" cx="380" cy="-646.6" rx="4" ry="4"/>
</a>
</g>
</g>
<!-- Cut3 -->
<g id="node35" class="node">
<title>Cut3</title>
<ellipse fill="none" stroke="black" cx="454" cy="-624.49" rx="27" ry="18"/>
<text text-anchor="middle" x="454" y="-620.79" font-family="Times-Roman" font-size="14.00">Cut</text>
</g>
<!-- PiL1&#45;&gt;Cut3 -->
<g id="edge20" class="edge">
<title>PiL1&#45;&gt;Cut3</title>
<g id="a_edge20"><a xlink:title="e48">
<path fill="none" stroke="blue" stroke-width="2" d="M402.37,-674.33C414.25,-663.1 428.52,-649.6 439.05,-639.64"/>
<polygon fill="blue" stroke="blue" stroke-width="2" points="399.83,-671.91 394.98,-681.33 404.64,-677 399.83,-671.91"/>
</a>
</g>
</g>
<!-- PiL2 -->
<g id="node19" class="node">
<title>PiL2</title>
<ellipse fill="none" stroke="black" cx="307" cy="-696.49" rx="27" ry="18"/>
<text text-anchor="middle" x="307" y="-692.79" font-family="Times-Roman" font-size="14.00">PiL</text>
</g>
<!-- PiL2&#45;&gt;!d3 -->
<g id="edge21" class="edge">
<title>PiL2&#45;&gt;!d3</title>
<g id="a_edge21"><a xlink:title="e49">
<path fill="none" stroke="blue" d="M306.61,-668.16C306.49,-659.55 306.35,-650.29 306.24,-642.6"/>
<polygon fill="blue" stroke="blue" points="303.11,-668.24 306.75,-678.19 310.11,-668.14 303.11,-668.24"/>
</a>
</g>
</g>
<!-- PiL2&#45;&gt;Dup0_1 -->
<g id="edge25" class="edge">
<title>PiL2&#45;&gt;Dup0_1</title>
<g id="a_edge25"><a xlink:title="e53">
<path fill="none" stroke="red" d="M321.77,-681.33C332.42,-671.12 346.93,-657.2 358.81,-645.81"/>
<ellipse fill="none" stroke="red" cx="361.86" cy="-642.89" rx="4" ry="4"/>
</a>
</g>
</g>
<!-- PiL3 -->
<g id="node20" class="node">
<title>PiL3</title>
<ellipse fill="none" stroke="black" cx="312" cy="-1560.49" rx="27" ry="18"/>
<text text-anchor="middle" x="312" y="-1556.79" font-family="Times-Roman" font-size="14.00">PiL</text>
</g>
<!-- PiL3&#45;&gt;PiL1 -->
<g id="edge22" class="edge">
<title>PiL3&#45;&gt;PiL1</title>
<g id="a_edge22"><a xlink:title="e50">
<path fill="none" stroke="blue" stroke-width="2" d="M331.19,-1536.67C337.93,-1527.71 345.06,-1517.06 350,-1506.49 367.31,-1469.49 373,-1458.35 373,-1417.49 373,-1417.49 373,-1417.49 373,-839.49 373,-794.33 376.58,-741.17 378.62,-714.53"/>
<polygon fill="blue" stroke="blue" stroke-width="2" points="328.33,-1534.64 324.92,-1544.67 333.84,-1538.95 328.33,-1534.64"/>
</a>
</g>
</g>
<!-- Dup0_2 -->
<g id="node25" class="node">
<title>Dup0_2</title>
<ellipse fill="none" stroke="black" cx="312" cy="-1488.49" rx="29.5" ry="18"/>
<text text-anchor="middle" x="312" y="-1484.79" font-family="Times-Roman" font-size="14.00">Dup</text>
</g>
<!-- PiL3&#45;&gt;Dup0_2 -->
<g id="edge28" class="edge">
<title>PiL3&#45;&gt;Dup0_2</title>
<g id="a_edge28"><a xlink:title="e56">
<path fill="none" stroke="red" d="M312,-1542.19C312,-1533.88 312,-1523.77 312,-1514.64"/>
<ellipse fill="red" stroke="red" cx="312" cy="-1510.6" rx="4" ry="4"/>
</a>
</g>
</g>
<!-- PiL4 -->
<g id="node21" class="node">
<title>PiL4</title>
<ellipse fill="none" stroke="black" cx="307" cy="-768.49" rx="27" ry="18"/>
<text text-anchor="middle" x="307" y="-764.79" font-family="Times-Roman" font-size="14.00">PiL</text>
</g>
<!-- PiL4&#45;&gt;PiL2 -->
<g id="edge23" class="edge">
<title>PiL4&#45;&gt;PiL2</title>
<g id="a_edge23"><a xlink:title="e51">
<path fill="none" stroke="blue" d="M307,-740.16C307,-731.55 307,-722.29 307,-714.6"/>
<polygon fill="blue" stroke="blue" points="303.5,-740.19 307,-750.19 310.5,-740.19 303.5,-740.19"/>
</a>
</g>
</g>
<!-- PiL4&#45;&gt;Dup0_2 -->
<g id="edge29" class="edge">
<title>PiL4&#45;&gt;Dup0_2</title>
<g id="a_edge29"><a xlink:title="e57">
<path fill="none" stroke="red" d="M307.99,-786.54C309.44,-813.19 312,-866.35 312,-911.49 312,-1345.49 312,-1345.49 312,-1345.49 312,-1386.38 312,-1433.89 312,-1462.28"/>
<ellipse fill="none" stroke="red" cx="312" cy="-1466.45" rx="4" ry="4"/>
</a>
</g>
</g>
<!-- I4&#45;&gt;PiL4 -->
<g id="edge27" class="edge">
<title>I4&#45;&gt;PiL4</title>
<g id="a_edge27"><a xlink:title="e55">
<path fill="none" stroke="blue" d="M274.12,-815.53C281.34,-805.42 289.53,-793.95 295.93,-784.99"/>
<polygon fill="blue" stroke="blue" points="271.06,-813.79 268.1,-823.96 276.76,-817.86 271.06,-813.79"/>
</a>
</g>
</g>
<!-- Dup0_0 -->
<g id="node23" class="node">
<title>Dup0_0</title>
<ellipse fill="none" stroke="black" cx="145" cy="-768.49" rx="29.5" ry="18"/>
<text text-anchor="middle" x="145" y="-764.79" font-family="Times-Roman" font-size="14.00">Dup</text>
</g>
<!-- Dup0_0&#45;&gt;!c0 -->
<g id="edge19" class="edge">
<title>Dup0_0&#45;&gt;!c0</title>
<g id="a_edge19"><a xlink:title="e47">
<path fill="none" stroke="blue" d="M126.87,-745.47C120.55,-736.44 114.24,-725.53 111,-714.49 106.5,-699.14 107.06,-694 111,-678.49 121.9,-635.64 150.8,-591.6 167.2,-568.99"/>
<ellipse fill="none" stroke="blue" cx="129.29" cy="-748.76" rx="4" ry="4"/>
</a>
</g>
</g>
<!-- Cut2 -->
<g id="node34" class="node">
<title>Cut2</title>
<ellipse fill="none" stroke="black" cx="147" cy="-696.49" rx="27" ry="18"/>
<text text-anchor="middle" x="147" y="-692.79" font-family="Times-Roman" font-size="14.00">Cut</text>
</g>
<!-- Dup0_0&#45;&gt;Cut2 -->
<g id="edge17" class="edge">
<title>Dup0_0&#45;&gt;Cut2</title>
<g id="a_edge17"><a xlink:title="e45">
<path fill="none" stroke="blue" d="M145.72,-742.13C145.99,-732.98 146.27,-722.88 146.51,-714.6"/>
<ellipse fill="blue" stroke="blue" cx="145.61" cy="-746.19" rx="4" ry="4"/>
</a>
</g>
</g>
<!-- !p4 -->
<g id="node28" class="node">
<title>!p4</title>
<ellipse fill="none" stroke="black" cx="315" cy="-552.49" rx="27" ry="18"/>
<text text-anchor="middle" x="315" y="-548.79" font-family="Times-Roman" font-size="14.00">!p</text>
</g>
<!-- Dup0_1&#45;&gt;!p4 -->
<g id="edge9" class="edge">
<title>Dup0_1&#45;&gt;!p4</title>
<g id="a_edge9"><a xlink:title="e31">
<path fill="none" stroke="red" d="M365.9,-608.31C357,-598.73 345.37,-586.2 335.47,-575.54"/>
<polygon fill="red" stroke="red" points="338,-573.12 328.63,-568.17 332.87,-577.88 338,-573.12"/>
</a>
</g>
</g>
<!-- Dup1_1 -->
<g id="node30" class="node">
<title>Dup1_1</title>
<ellipse fill="none" stroke="black" cx="255" cy="-1416.49" rx="29.5" ry="18"/>
<text text-anchor="middle" x="255" y="-1412.79" font-family="Times-Roman" font-size="14.00">Dup</text>
</g>
<!-- Dup0_2&#45;&gt;Dup1_1 -->
<g id="edge12" class="edge">
<title>Dup0_2&#45;&gt;Dup1_1</title>
<g id="a_edge12"><a xlink:title="e35">
<path fill="none" stroke="red" d="M299.35,-1471.96C291.53,-1462.35 281.37,-1449.88 272.75,-1439.29"/>
<ellipse fill="none" stroke="red" cx="270.14" cy="-1436.09" rx="4" ry="4"/>
</a>
</g>
</g>
<!-- PiL5&#45;&gt;PiL3 -->
<g id="edge26" class="edge">
<title>PiL5&#45;&gt;PiL3</title>
<g id="a_edge26"><a xlink:title="e54">
<path fill="none" stroke="blue" stroke-width="2" d="M293.81,-1605.41C297.62,-1596.21 301.79,-1586.14 305.18,-1577.96"/>
<polygon fill="blue" stroke="blue" stroke-width="2" points="290.47,-1604.33 289.87,-1614.91 296.93,-1607.01 290.47,-1604.33"/>
</a>
</g>
</g>
<!-- PiL5&#45;&gt;Dup1_1 -->
<g id="edge11" class="edge">
<title>PiL5&#45;&gt;Dup1_1</title>
<g id="a_edge11"><a xlink:title="e34">
<path fill="none" stroke="red" d="M280.72,-1614.31C279.35,-1603.94 277.57,-1590.46 276,-1578.49 269.73,-1530.72 262.47,-1474.97 258.34,-1443.19"/>
<ellipse fill="red" stroke="red" cx="257.78" cy="-1438.85" rx="4" ry="4"/>
</a>
</g>
</g>
<!-- PiR2 -->
<g id="node37" class="node">
<title>PiR2</title>
<ellipse fill="none" stroke="black" cx="111" cy="-18" rx="27" ry="18"/>
<text text-anchor="middle" x="111" y="-14.3" font-family="Times-Roman" font-size="14.00">PiR</text>
</g>
<!-- !p3&#45;&gt;PiR2 -->
<g id="edge31" class="edge">
<title>!p3&#45;&gt;PiR2</title>
<g id="a_edge31"><a xlink:title="e59">
<path fill="none" stroke="red" d="M62.02,-894.47C59.11,-867.85 54,-814.72 54,-769.49 54,-769.49 54,-769.49 54,-161 54,-117.09 77.77,-70.67 94.61,-43.3"/>
<polygon fill="red" stroke="red" points="97.61,-45.1 100.01,-34.78 91.7,-41.35 97.61,-45.1"/>
</a>
</g>
</g>
<!-- Dup1_2 -->
<g id="node31" class="node">
<title>Dup1_2</title>
<ellipse fill="none" stroke="black" cx="315" cy="-465.25" rx="29.47" ry="29.47"/>
<ellipse fill="none" stroke="black" cx="315" cy="-465.25" rx="33.5" ry="33.5"/>
<text text-anchor="middle" x="315" y="-461.55" font-family="Times-Roman" font-size="14.00">Dup</text>
</g>
<!-- !p4&#45;&gt;Dup1_2 -->
<g id="edge33" class="edge">
<title>!p4&#45;&gt;Dup1_2</title>
<g id="a_edge33"><a xlink:title="e61">
<path fill="none" stroke="red" d="M315,-534.24C315,-526.26 315,-516.41 315,-506.71"/>
<ellipse fill="none" stroke="red" cx="315" cy="-502.65" rx="4" ry="4"/>
</a>
</g>
</g>
<!-- Dup1_0&#45;&gt;Cut1 -->
<g id="edge7" class="edge">
<title>Dup1_0&#45;&gt;Cut1</title>
<g id="a_edge7"><a xlink:title="e23">
<path fill="none" stroke="blue" d="M170.59,-1104.8C177.2,-1094.52 184.85,-1082.61 190.83,-1073.32"/>
<ellipse fill="blue" stroke="blue" cx="168.37" cy="-1108.25" rx="4" ry="4"/>
</a>
</g>
</g>
<!-- Dup1_0&#45;&gt;Dup0_0 -->
<g id="edge8" class="edge">
<title>Dup1_0&#45;&gt;Dup0_0</title>
<g id="a_edge8"><a xlink:title="e25">
<path fill="none" stroke="blue" d="M153.15,-1102.31C150.2,-1073.96 146,-1026.48 146,-985.49 146,-985.49 146,-985.49 146,-911.49 146,-866.38 145.49,-813.2 145.2,-786.54"/>
<ellipse fill="none" stroke="blue" cx="153.6" cy="-1106.5" rx="4" ry="4"/>
</a>
</g>
</g>
<!-- Dup1_1&#45;&gt;!p0 -->
<g id="edge50" class="edge">
<title>Dup1_1&#45;&gt;!p0</title>
<g id="a_edge50"><a xlink:title="ylp">
<path fill="none" stroke="red" d="M232.03,-1405.32C204.69,-1393.2 158.9,-1372.92 128.33,-1359.38"/>
<polygon fill="red" stroke="red" points="129.54,-1356.09 118.98,-1355.23 126.71,-1362.49 129.54,-1356.09"/>
</a>
</g>
</g>
<!-- PiR1 -->
<g id="node36" class="node">
<title>PiR1</title>
<ellipse fill="none" stroke="black" cx="223" cy="-378" rx="27" ry="18"/>
<text text-anchor="middle" x="223" y="-374.3" font-family="Times-Roman" font-size="14.00">PiR</text>
</g>
<!-- Dup1_2&#45;&gt;PiR1 -->
<g id="edge30" class="edge">
<title>Dup1_2&#45;&gt;PiR1</title>
<g id="a_edge30"><a xlink:title="e58">
<path fill="none" stroke="red" d="M290.83,-441.85C276.85,-428.9 259.38,-412.71 245.67,-400.01"/>
<polygon fill="red" stroke="red" points="247.8,-397.21 238.09,-392.98 243.04,-402.34 247.8,-397.21"/>
</a>
</g>
</g>
<!-- Dup2_0 -->
<g id="node32" class="node">
<title>Dup2_0</title>
<ellipse fill="none" stroke="black" cx="389" cy="-552.49" rx="29.5" ry="18"/>
<text text-anchor="middle" x="389" y="-548.79" font-family="Times-Roman" font-size="14.00">Dup</text>
</g>
<!-- Dup2_0&#45;&gt;Dup1_2 -->
<g id="edge32" class="edge">
<title>Dup2_0&#45;&gt;Dup1_2</title>
<g id="a_edge32"><a xlink:title="e60">
<path fill="none" stroke="red" stroke-width="2" d="M375.77,-536.25C366.41,-525.47 353.53,-510.63 342.04,-497.39"/>
<ellipse fill="red" stroke="red" stroke-width="2" cx="339.15" cy="-494.07" rx="4" ry="4"/>
</a>
</g>
</g>
<!-- !p5 -->
<g id="node33" class="node">
<title>!p5</title>
<ellipse fill="none" stroke="black" cx="234" cy="-624.49" rx="27" ry="18"/>
<text text-anchor="middle" x="234" y="-620.79" font-family="Times-Roman" font-size="14.00">!p</text>
</g>
<!-- !p5&#45;&gt;Dup2_0 -->
<g id="edge36" class="edge">
<title>!p5&#45;&gt;Dup2_0</title>
<g id="a_edge36"><a xlink:title="e65">
<path fill="none" stroke="red" d="M255.28,-613.35C260.11,-611.07 265.22,-608.68 270,-606.49 305.81,-590.08 315.02,-586.54 351,-570.49 353.44,-569.41 355.97,-568.28 358.51,-567.14"/>
<ellipse fill="none" stroke="red" cx="362.44" cy="-565.38" rx="4" ry="4"/>
</a>
</g>
</g>
<!-- Cut2&#45;&gt;!p5 -->
<g id="edge34" class="edge">
<title>Cut2&#45;&gt;!p5</title>
<g id="a_edge34"><a xlink:title="e63">
<path fill="none" stroke="red" d="M163.77,-682C176.65,-671.64 194.63,-657.17 209.18,-645.47"/>
<polygon fill="red" stroke="red" points="211.68,-647.95 217.28,-638.95 207.29,-642.49 211.68,-647.95"/>
</a>
</g>
</g>
<!-- Cut3&#45;&gt;Dup2_0 -->
<g id="edge35" class="edge">
<title>Cut3&#45;&gt;Dup2_0</title>
<g id="a_edge35"><a xlink:title="e64">
<path fill="none" stroke="red" stroke-width="2" d="M440.22,-608.65C431.12,-598.85 419.06,-585.86 408.92,-574.95"/>
<ellipse fill="red" stroke="red" stroke-width="2" cx="405.94" cy="-571.73" rx="4" ry="4"/>
</a>
</g>
</g>
<!-- Dup3_1 -->
<g id="node39" class="node">
<title>Dup3_1</title>
<ellipse fill="none" stroke="black" cx="166" cy="-306" rx="29.5" ry="18"/>
<text text-anchor="middle" x="166" y="-302.3" font-family="Times-Roman" font-size="14.00">Dup</text>
</g>
<!-- PiR1&#45;&gt;Dup3_1 -->
<g id="edge39" class="edge">
<title>PiR1&#45;&gt;Dup3_1</title>
<g id="a_edge39"><a xlink:title="e68">
<path fill="none" stroke="red" d="M210.63,-361.81C202.82,-352.22 192.6,-339.67 183.92,-329"/>
<ellipse fill="red" stroke="red" cx="181.26" cy="-325.75" rx="4" ry="4"/>
</a>
</g>
</g>
<!-- PiR2&#45;&gt;Dup3_1 -->
<g id="edge40" class="edge">
<title>PiR2&#45;&gt;Dup3_1</title>
<g id="a_edge40"><a xlink:title="e69">
<path fill="none" stroke="red" d="M109.64,-36.26C107.14,-75.74 104.27,-175.11 131,-252 134.81,-262.96 141.4,-273.86 147.84,-282.9"/>
<ellipse fill="none" stroke="red" cx="150.3" cy="-286.21" rx="4" ry="4"/>
</a>
</g>
</g>
<!-- Dup3_0&#45;&gt;PiR1 -->
<g id="edge37" class="edge">
<title>Dup3_0&#45;&gt;PiR1</title>
<g id="a_edge37"><a xlink:title="e66">
<path fill="none" stroke="blue" d="M186.16,-113.1C192.6,-122.14 199.19,-133.04 203,-144 229.73,-220.89 226.86,-320.26 224.36,-359.74"/>
<ellipse fill="blue" stroke="blue" cx="183.7" cy="-109.79" rx="4" ry="4"/>
</a>
</g>
</g>
<!-- Dup3_0&#45;&gt;PiR2 -->
<g id="edge38" class="edge">
<title>Dup3_0&#45;&gt;PiR2</title>
<g id="a_edge38"><a xlink:title="e67">
<path fill="none" stroke="blue" d="M150.21,-67.16C141.59,-56.56 131.43,-44.09 123.61,-34.49"/>
<ellipse fill="none" stroke="blue" cx="152.82" cy="-70.36" rx="4" ry="4"/>
</a>
</g>
</g>
<!-- Dup3_1&#45;&gt;I1 -->
<g id="edge44" class="edge">
<title>Dup3_1&#45;&gt;I1</title>
<g id="a_edge44"><a xlink:title="ir">
<path fill="none" stroke="red" d="M166.25,-287.7C166.36,-279.98 166.49,-270.71 166.61,-262.11"/>
<polygon fill="red" stroke="red" points="170.11,-262.15 166.76,-252.1 163.11,-262.05 170.11,-262.15"/>
</a>
</g>
</g>
</g>
</svg>
