<?xml version="1.0" encoding="UTF-8" standalone="no"?>
<!DOCTYPE svg PUBLIC "-//W3C//DTD SVG 1.1//EN"
 "http://www.w3.org/Graphics/SVG/1.1/DTD/svg11.dtd">
<!-- Generated by graphviz version 2.43.0 (0)
 -->
<!-- Title: %3 Pages: 1 -->
<svg width="464pt" height="1442pt"
 viewBox="0.00 0.00 464.00 1442.49" xmlns="http://www.w3.org/2000/svg" xmlns:xlink="http://www.w3.org/1999/xlink">
<g id="graph0" class="graph" transform="scale(1 1) rotate(0) translate(4 1438.49)">
<title>%3</title>
<polygon fill="white" stroke="transparent" points="-4,4 -4,-1438.49 460,-1438.49 460,4 -4,4"/>
<!-- Root0 -->
<g id="node1" class="node">
<title>Root0</title>
<ellipse fill="none" stroke="black" cx="390" cy="-1416.49" rx="30.59" ry="18"/>
<text text-anchor="middle" x="390" y="-1412.79" font-family="Times-Roman" font-size="14.00">Root</text>
</g>
<!-- I2 -->
<g id="node8" class="node">
<title>I2</title>
<ellipse fill="none" stroke="black" cx="390" cy="-1344.49" rx="27" ry="18"/>
<text text-anchor="middle" x="390" y="-1340.79" font-family="Times-Roman" font-size="14.00">I</text>
</g>
<!-- Root0&#45;&gt;I2 -->
<g id="edge41" class="edge">
<title>Root0&#45;&gt;I2</title>
<g id="a_edge41"><a xlink:title="rettop">
<path fill="none" stroke="red" stroke-width="2" d="M390,-1398.19C390,-1390.48 390,-1381.21 390,-1372.61"/>
<polygon fill="red" stroke="red" stroke-width="2" points="393.5,-1372.6 390,-1362.6 386.5,-1372.6 393.5,-1372.6"/>
</a>
</g>
</g>
<!-- I0 -->
<g id="node2" class="node">
<title>I0</title>
<ellipse fill="none" stroke="black" cx="265" cy="-1026" rx="27" ry="18"/>
<text text-anchor="middle" x="265" y="-1022.3" font-family="Times-Roman" font-size="14.00">I</text>
</g>
<!-- !d0 -->
<g id="node3" class="node">
<title>!d0</title>
<ellipse fill="none" stroke="black" cx="221" cy="-954" rx="27" ry="18"/>
<text text-anchor="middle" x="221" y="-950.3" font-family="Times-Roman" font-size="14.00">!d</text>
</g>
<!-- I0&#45;&gt;!d0 -->
<g id="edge43" class="edge">
<title>I0&#45;&gt;!d0</title>
<g id="a_edge43"><a xlink:title="yl2">
<path fill="none" stroke="blue" d="M249.61,-1000.51C243.41,-990.66 236.45,-979.58 230.94,-970.82"/>
<polygon fill="blue" stroke="blue" points="246.73,-1002.51 255.02,-1009.12 252.66,-998.79 246.73,-1002.51"/>
</a>
</g>
</g>
<!-- Cut3 -->
<g id="node37" class="node">
<title>Cut3</title>
<ellipse fill="none" stroke="black" cx="194" cy="-882" rx="27" ry="18"/>
<text text-anchor="middle" x="194" y="-878.3" font-family="Times-Roman" font-size="14.00">Cut</text>
</g>
<!-- !d0&#45;&gt;Cut3 -->
<g id="edge42" class="edge">
<title>!d0&#45;&gt;Cut3</title>
<g id="a_edge42"><a xlink:title="yj">
<path fill="none" stroke="blue" d="M210.99,-927.06C207.5,-918.01 203.68,-908.09 200.54,-899.96"/>
<polygon fill="blue" stroke="blue" points="207.74,-928.34 214.6,-936.41 214.27,-925.82 207.74,-928.34"/>
</a>
</g>
</g>
<!-- !p0 -->
<g id="node4" class="node">
<title>!p0</title>
<ellipse fill="none" stroke="black" cx="181" cy="-810" rx="27" ry="18"/>
<text text-anchor="middle" x="181" y="-806.3" font-family="Times-Roman" font-size="14.00">!p</text>
</g>
<!-- I1 -->
<g id="node7" class="node">
<title>I1</title>
<ellipse fill="none" stroke="black" cx="97" cy="-738" rx="27" ry="18"/>
<text text-anchor="middle" x="97" y="-734.3" font-family="Times-Roman" font-size="14.00">I</text>
</g>
<!-- !p0&#45;&gt;I1 -->
<g id="edge1" class="edge">
<title>!p0&#45;&gt;I1</title>
<g id="a_edge1"><a xlink:title="e11">
<path fill="none" stroke="red" d="M164.8,-795.5C152.37,-785.14 135.01,-770.67 120.97,-758.97"/>
<polygon fill="red" stroke="red" points="123.07,-756.17 113.15,-752.46 118.59,-761.55 123.07,-756.17"/>
</a>
</g>
</g>
<!-- Dup1_0 -->
<g id="node24" class="node">
<title>Dup1_0</title>
<ellipse fill="none" stroke="black" cx="209" cy="-738" rx="29.5" ry="18"/>
<text text-anchor="middle" x="209" y="-734.3" font-family="Times-Roman" font-size="14.00">Dup</text>
</g>
<!-- !p0&#45;&gt;Dup1_0 -->
<g id="edge3" class="edge">
<title>!p0&#45;&gt;Dup1_0</title>
<g id="a_edge3"><a xlink:title="e15">
<path fill="none" stroke="blue" d="M191.38,-783.06C195,-774.01 198.97,-764.09 202.22,-755.96"/>
<polygon fill="blue" stroke="blue" points="188.1,-781.83 187.64,-792.41 194.6,-784.43 188.1,-781.83"/>
</a>
</g>
</g>
<!-- !d1 -->
<g id="node5" class="node">
<title>!d1</title>
<ellipse fill="none" stroke="black" cx="99" cy="-594" rx="27" ry="18"/>
<text text-anchor="middle" x="99" y="-590.3" font-family="Times-Roman" font-size="14.00">!d</text>
</g>
<!-- !d1&#45;&gt;!p0 -->
<g id="edge2" class="edge">
<title>!d1&#45;&gt;!p0</title>
<g id="a_edge2"><a xlink:title="e13">
<path fill="none" stroke="blue" d="M116.32,-618.86C122.2,-627.7 128.42,-638.01 133,-648 155.98,-698.11 171.19,-761.98 177.58,-791.98"/>
<polygon fill="blue" stroke="blue" points="119.18,-616.84 110.64,-610.57 113.41,-620.79 119.18,-616.84"/>
</a>
</g>
</g>
<!-- PiL0 -->
<g id="node6" class="node">
<title>PiL0</title>
<ellipse fill="none" stroke="black" cx="97" cy="-666" rx="27" ry="18"/>
<text text-anchor="middle" x="97" y="-662.3" font-family="Times-Roman" font-size="14.00">PiL</text>
</g>
<!-- PiL0&#45;&gt;!d1 -->
<g id="edge4" class="edge">
<title>PiL0&#45;&gt;!d1</title>
<g id="a_edge4"><a xlink:title="e17">
<path fill="none" stroke="blue" d="M97.78,-637.67C98.03,-629.05 98.29,-619.79 98.51,-612.1"/>
<polygon fill="blue" stroke="blue" points="94.28,-637.6 97.49,-647.7 101.28,-637.8 94.28,-637.6"/>
</a>
</g>
</g>
<!-- !p2 -->
<g id="node17" class="node">
<title>!p2</title>
<ellipse fill="none" stroke="black" cx="27" cy="-594" rx="27" ry="18"/>
<text text-anchor="middle" x="27" y="-590.3" font-family="Times-Roman" font-size="14.00">!p</text>
</g>
<!-- PiL0&#45;&gt;!p2 -->
<g id="edge6" class="edge">
<title>PiL0&#45;&gt;!p2</title>
<g id="a_edge6"><a xlink:title="e21">
<path fill="none" stroke="red" d="M82.5,-650.5C72.73,-640.73 59.69,-627.69 48.7,-616.7"/>
<polygon fill="red" stroke="red" points="51.03,-614.08 41.49,-609.49 46.08,-619.03 51.03,-614.08"/>
</a>
</g>
</g>
<!-- I1&#45;&gt;PiL0 -->
<g id="edge5" class="edge">
<title>I1&#45;&gt;PiL0</title>
<g id="a_edge5"><a xlink:title="e19">
<path fill="none" stroke="blue" d="M97,-709.67C97,-701.05 97,-691.79 97,-684.1"/>
<polygon fill="blue" stroke="blue" points="93.5,-709.7 97,-719.7 100.5,-709.7 93.5,-709.7"/>
</a>
</g>
</g>
<!-- PiL3 -->
<g id="node36" class="node">
<title>PiL3</title>
<ellipse fill="none" stroke="black" cx="390" cy="-1272.49" rx="27" ry="18"/>
<text text-anchor="middle" x="390" y="-1268.79" font-family="Times-Roman" font-size="14.00">PiL</text>
</g>
<!-- I2&#45;&gt;PiL3 -->
<g id="edge9" class="edge">
<title>I2&#45;&gt;PiL3</title>
<g id="a_edge9"><a xlink:title="e32">
<path fill="none" stroke="blue" stroke-width="2" d="M390,-1316.16C390,-1307.55 390,-1298.29 390,-1290.6"/>
<polygon fill="blue" stroke="blue" stroke-width="2" points="386.5,-1316.19 390,-1326.19 393.5,-1316.19 386.5,-1316.19"/>
</a>
</g>
</g>
<!-- !p1 -->
<g id="node9" class="node">
<title>!p1</title>
<ellipse fill="none" stroke="black" cx="283" cy="-594" rx="27" ry="18"/>
<text text-anchor="middle" x="283" y="-590.3" font-family="Times-Roman" font-size="14.00">!p</text>
</g>
<!-- PiR0 -->
<g id="node11" class="node">
<title>PiR0</title>
<ellipse fill="none" stroke="black" cx="283" cy="-522" rx="27" ry="18"/>
<text text-anchor="middle" x="283" y="-518.3" font-family="Times-Roman" font-size="14.00">PiR</text>
</g>
<!-- !p1&#45;&gt;PiR0 -->
<g id="edge13" class="edge">
<title>!p1&#45;&gt;PiR0</title>
<g id="a_edge13"><a xlink:title="e39">
<path fill="none" stroke="red" d="M283,-575.7C283,-567.98 283,-558.71 283,-550.11"/>
<polygon fill="red" stroke="red" points="286.5,-550.1 283,-540.1 279.5,-550.1 286.5,-550.1"/>
</a>
</g>
</g>
<!-- Cut0 -->
<g id="node10" class="node">
<title>Cut0</title>
<ellipse fill="none" stroke="black" cx="283" cy="-666" rx="27" ry="18"/>
<text text-anchor="middle" x="283" y="-662.3" font-family="Times-Roman" font-size="14.00">Cut</text>
</g>
<!-- Cut0&#45;&gt;!p1 -->
<g id="edge12" class="edge">
<title>Cut0&#45;&gt;!p1</title>
<g id="a_edge12"><a xlink:title="e37">
<path fill="none" stroke="red" d="M283,-647.7C283,-639.98 283,-630.71 283,-622.11"/>
<polygon fill="red" stroke="red" points="286.5,-622.1 283,-612.1 279.5,-622.1 286.5,-622.1"/>
</a>
</g>
</g>
<!-- I3 -->
<g id="node16" class="node">
<title>I3</title>
<ellipse fill="none" stroke="black" cx="319" cy="-450" rx="27" ry="18"/>
<text text-anchor="middle" x="319" y="-446.3" font-family="Times-Roman" font-size="14.00">I</text>
</g>
<!-- PiR0&#45;&gt;I3 -->
<g id="edge15" class="edge">
<title>PiR0&#45;&gt;I3</title>
<g id="a_edge15"><a xlink:title="e43">
<path fill="none" stroke="red" d="M291.35,-504.76C295.71,-496.28 301.15,-485.71 306.04,-476.2"/>
<polygon fill="red" stroke="red" points="309.23,-477.64 310.7,-467.15 303.01,-474.44 309.23,-477.64"/>
</a>
</g>
</g>
<!-- !c0 -->
<g id="node12" class="node">
<title>!c0</title>
<ellipse fill="none" stroke="black" cx="264" cy="-162" rx="27" ry="18"/>
<text text-anchor="middle" x="264" y="-158.3" font-family="Times-Roman" font-size="14.00">!c</text>
</g>
<!-- !c0&#45;&gt;PiR0 -->
<g id="edge14" class="edge">
<title>!c0&#45;&gt;PiR0</title>
<g id="a_edge14"><a xlink:title="e41">
<path fill="none" stroke="blue" d="M264,-190.08C264,-218.65 264,-265 264,-305 264,-379 264,-379 264,-379 264,-424.52 273.71,-477.52 279.25,-504.05"/>
<polygon fill="blue" stroke="blue" points="267.5,-190.05 264,-180.05 260.5,-190.05 267.5,-190.05"/>
</a>
</g>
</g>
<!-- !d2 -->
<g id="node13" class="node">
<title>!d2</title>
<ellipse fill="none" stroke="black" cx="319" cy="-234" rx="27" ry="18"/>
<text text-anchor="middle" x="319" y="-230.3" font-family="Times-Roman" font-size="14.00">!d</text>
</g>
<!-- !d2&#45;&gt;!c0 -->
<g id="edge17" class="edge">
<title>!d2&#45;&gt;!c0</title>
<g id="a_edge17"><a xlink:title="e46">
<path fill="none" stroke="blue" d="M300.83,-209.87C292.63,-199.44 283.19,-187.42 275.91,-178.16"/>
<polygon fill="blue" stroke="blue" points="298.14,-212.11 307.07,-217.81 303.64,-207.79 298.14,-212.11"/>
</a>
</g>
</g>
<!-- PiL1 -->
<g id="node14" class="node">
<title>PiL1</title>
<ellipse fill="none" stroke="black" cx="319" cy="-306" rx="27" ry="18"/>
<text text-anchor="middle" x="319" y="-302.3" font-family="Times-Roman" font-size="14.00">PiL</text>
</g>
<!-- PiL1&#45;&gt;!d2 -->
<g id="edge19" class="edge">
<title>PiL1&#45;&gt;!d2</title>
<g id="a_edge19"><a xlink:title="e49">
<path fill="none" stroke="blue" d="M319,-277.67C319,-269.05 319,-259.79 319,-252.1"/>
<polygon fill="blue" stroke="blue" points="315.5,-277.7 319,-287.7 322.5,-277.7 315.5,-277.7"/>
</a>
</g>
</g>
<!-- !p4 -->
<g id="node28" class="node">
<title>!p4</title>
<ellipse fill="none" stroke="black" cx="391" cy="-234" rx="27" ry="18"/>
<text text-anchor="middle" x="391" y="-230.3" font-family="Times-Roman" font-size="14.00">!p</text>
</g>
<!-- PiL1&#45;&gt;!p4 -->
<g id="edge21" class="edge">
<title>PiL1&#45;&gt;!p4</title>
<g id="a_edge21"><a xlink:title="e53">
<path fill="none" stroke="red" d="M333.57,-290.83C343.75,-280.94 357.52,-267.55 369.03,-256.36"/>
<polygon fill="red" stroke="red" points="371.47,-258.87 376.2,-249.38 366.59,-253.85 371.47,-258.87"/>
</a>
</g>
</g>
<!-- PiL2 -->
<g id="node15" class="node">
<title>PiL2</title>
<ellipse fill="none" stroke="black" cx="319" cy="-378" rx="27" ry="18"/>
<text text-anchor="middle" x="319" y="-374.3" font-family="Times-Roman" font-size="14.00">PiL</text>
</g>
<!-- PiL2&#45;&gt;PiL1 -->
<g id="edge20" class="edge">
<title>PiL2&#45;&gt;PiL1</title>
<g id="a_edge20"><a xlink:title="e51">
<path fill="none" stroke="blue" d="M319,-349.67C319,-341.05 319,-331.79 319,-324.1"/>
<polygon fill="blue" stroke="blue" points="315.5,-349.7 319,-359.7 322.5,-349.7 315.5,-349.7"/>
</a>
</g>
</g>
<!-- Dup3_1 -->
<g id="node35" class="node">
<title>Dup3_1</title>
<ellipse fill="none" stroke="black" cx="393" cy="-306" rx="29.5" ry="18"/>
<text text-anchor="middle" x="393" y="-302.3" font-family="Times-Roman" font-size="14.00">Dup</text>
</g>
<!-- PiL2&#45;&gt;Dup3_1 -->
<g id="edge24" class="edge">
<title>PiL2&#45;&gt;Dup3_1</title>
<g id="a_edge24"><a xlink:title="e57">
<path fill="none" stroke="red" d="M333.98,-362.83C344.84,-352.56 359.68,-338.52 371.76,-327.09"/>
<ellipse fill="none" stroke="red" cx="374.89" cy="-324.13" rx="4" ry="4"/>
</a>
</g>
</g>
<!-- I3&#45;&gt;PiL2 -->
<g id="edge22" class="edge">
<title>I3&#45;&gt;PiL2</title>
<g id="a_edge22"><a xlink:title="e55">
<path fill="none" stroke="blue" d="M319,-421.67C319,-413.05 319,-403.79 319,-396.1"/>
<polygon fill="blue" stroke="blue" points="315.5,-421.7 319,-431.7 322.5,-421.7 315.5,-421.7"/>
</a>
</g>
</g>
<!-- PiR1 -->
<g id="node20" class="node">
<title>PiR1</title>
<ellipse fill="none" stroke="black" cx="27" cy="-522" rx="27" ry="18"/>
<text text-anchor="middle" x="27" y="-518.3" font-family="Times-Roman" font-size="14.00">PiR</text>
</g>
<!-- !p2&#45;&gt;PiR1 -->
<g id="edge25" class="edge">
<title>!p2&#45;&gt;PiR1</title>
<g id="a_edge25"><a xlink:title="e59">
<path fill="none" stroke="red" d="M27,-575.7C27,-567.98 27,-558.71 27,-550.11"/>
<polygon fill="red" stroke="red" points="30.5,-550.1 27,-540.1 23.5,-550.1 30.5,-550.1"/>
</a>
</g>
</g>
<!-- !p3 -->
<g id="node18" class="node">
<title>!p3</title>
<ellipse fill="none" stroke="black" cx="171" cy="-522" rx="27" ry="18"/>
<text text-anchor="middle" x="171" y="-518.3" font-family="Times-Roman" font-size="14.00">!p</text>
</g>
<!-- PiR2 -->
<g id="node21" class="node">
<title>PiR2</title>
<ellipse fill="none" stroke="black" cx="171" cy="-450" rx="27" ry="18"/>
<text text-anchor="middle" x="171" y="-446.3" font-family="Times-Roman" font-size="14.00">PiR</text>
</g>
<!-- !p3&#45;&gt;PiR2 -->
<g id="edge27" class="edge">
<title>!p3&#45;&gt;PiR2</title>
<g id="a_edge27"><a xlink:title="e65">
<path fill="none" stroke="red" d="M171,-503.7C171,-495.98 171,-486.71 171,-478.11"/>
<polygon fill="red" stroke="red" points="174.5,-478.1 171,-468.1 167.5,-478.1 174.5,-478.1"/>
</a>
</g>
</g>
<!-- Cut1 -->
<g id="node19" class="node">
<title>Cut1</title>
<ellipse fill="none" stroke="black" cx="171" cy="-594" rx="27" ry="18"/>
<text text-anchor="middle" x="171" y="-590.3" font-family="Times-Roman" font-size="14.00">Cut</text>
</g>
<!-- Cut1&#45;&gt;!p3 -->
<g id="edge26" class="edge">
<title>Cut1&#45;&gt;!p3</title>
<g id="a_edge26"><a xlink:title="e63">
<path fill="none" stroke="red" d="M171,-575.7C171,-567.98 171,-558.71 171,-550.11"/>
<polygon fill="red" stroke="red" points="174.5,-550.1 171,-540.1 167.5,-550.1 174.5,-550.1"/>
</a>
</g>
</g>
<!-- I4 -->
<g id="node23" class="node">
<title>I4</title>
<ellipse fill="none" stroke="black" cx="72" cy="-450" rx="27" ry="18"/>
<text text-anchor="middle" x="72" y="-446.3" font-family="Times-Roman" font-size="14.00">I</text>
</g>
<!-- PiR1&#45;&gt;I4 -->
<g id="edge29" class="edge">
<title>PiR1&#45;&gt;I4</title>
<g id="a_edge29"><a xlink:title="e69">
<path fill="none" stroke="red" d="M37.21,-505.12C42.85,-496.34 49.97,-485.26 56.3,-475.42"/>
<polygon fill="red" stroke="red" points="59.37,-477.13 61.83,-466.82 53.48,-473.34 59.37,-477.13"/>
</a>
</g>
</g>
<!-- I5 -->
<g id="node27" class="node">
<title>I5</title>
<ellipse fill="none" stroke="black" cx="171" cy="-378" rx="27" ry="18"/>
<text text-anchor="middle" x="171" y="-374.3" font-family="Times-Roman" font-size="14.00">I</text>
</g>
<!-- PiR2&#45;&gt;I5 -->
<g id="edge31" class="edge">
<title>PiR2&#45;&gt;I5</title>
<g id="a_edge31"><a xlink:title="e77">
<path fill="none" stroke="red" d="M171,-431.7C171,-423.98 171,-414.71 171,-406.11"/>
<polygon fill="red" stroke="red" points="174.5,-406.1 171,-396.1 167.5,-406.1 174.5,-406.1"/>
</a>
</g>
</g>
<!-- !d3 -->
<g id="node22" class="node">
<title>!d3</title>
<ellipse fill="none" stroke="black" cx="39" cy="-378" rx="27" ry="18"/>
<text text-anchor="middle" x="39" y="-374.3" font-family="Times-Roman" font-size="14.00">!d</text>
</g>
<!-- !d3&#45;&gt;PiR1 -->
<g id="edge28" class="edge">
<title>!d3&#45;&gt;PiR1</title>
<g id="a_edge28"><a xlink:title="e67">
<path fill="none" stroke="blue" d="M36.69,-406.39C34.25,-435.21 30.49,-479.67 28.45,-503.87"/>
<polygon fill="blue" stroke="blue" points="40.19,-406.45 37.55,-396.19 33.22,-405.86 40.19,-406.45"/>
</a>
</g>
</g>
<!-- I4&#45;&gt;!d3 -->
<g id="edge32" class="edge">
<title>I4&#45;&gt;!d3</title>
<g id="a_edge32"><a xlink:title="e79">
<path fill="none" stroke="blue" d="M59.84,-423.2C55.47,-413.93 50.66,-403.73 46.76,-395.47"/>
<polygon fill="blue" stroke="blue" points="56.75,-424.86 64.18,-432.41 63.08,-421.87 56.75,-424.86"/>
</a>
</g>
</g>
<!-- Dup1_0&#45;&gt;Cut0 -->
<g id="edge7" class="edge">
<title>Dup1_0&#45;&gt;Cut0</title>
<g id="a_edge7"><a xlink:title="e23">
<path fill="none" stroke="blue" d="M230.34,-716.81C242.38,-705.43 257.12,-691.48 267.94,-681.25"/>
<ellipse fill="blue" stroke="blue" cx="227.24" cy="-719.75" rx="4" ry="4"/>
</a>
</g>
</g>
<!-- Dup3_0 -->
<g id="node34" class="node">
<title>Dup3_0</title>
<ellipse fill="none" stroke="black" cx="209" cy="-666" rx="29.5" ry="18"/>
<text text-anchor="middle" x="209" y="-662.3" font-family="Times-Roman" font-size="14.00">Dup</text>
</g>
<!-- Dup1_0&#45;&gt;Dup3_0 -->
<g id="edge8" class="edge">
<title>Dup1_0&#45;&gt;Dup3_0</title>
<g id="a_edge8"><a xlink:title="e25">
<path fill="none" stroke="blue" d="M209,-711.64C209,-702.49 209,-692.38 209,-684.1"/>
<ellipse fill="none" stroke="blue" cx="209" cy="-715.7" rx="4" ry="4"/>
</a>
</g>
</g>
<!-- Dup1_1 -->
<g id="node25" class="node">
<title>Dup1_1</title>
<ellipse fill="none" stroke="black" cx="351" cy="-1185.25" rx="29.47" ry="29.47"/>
<ellipse fill="none" stroke="black" cx="351" cy="-1185.25" rx="33.5" ry="33.5"/>
<text text-anchor="middle" x="351" y="-1181.55" font-family="Times-Roman" font-size="14.00">Dup</text>
</g>
<!-- !p5 -->
<g id="node38" class="node">
<title>!p5</title>
<ellipse fill="none" stroke="black" cx="319" cy="-1098" rx="27" ry="18"/>
<text text-anchor="middle" x="319" y="-1094.3" font-family="Times-Roman" font-size="14.00">!p</text>
</g>
<!-- Dup1_1&#45;&gt;!p5 -->
<g id="edge45" class="edge">
<title>Dup1_1&#45;&gt;!p5</title>
<g id="a_edge45"><a xlink:title="ylp">
<path fill="none" stroke="red" d="M339.63,-1153.95C336.13,-1144.63 332.31,-1134.46 328.92,-1125.42"/>
<polygon fill="red" stroke="red" points="332.1,-1123.94 325.31,-1115.81 325.55,-1126.4 332.1,-1123.94"/>
</a>
</g>
</g>
<!-- !d4 -->
<g id="node26" class="node">
<title>!d4</title>
<ellipse fill="none" stroke="black" cx="143" cy="-306" rx="27" ry="18"/>
<text text-anchor="middle" x="143" y="-302.3" font-family="Times-Roman" font-size="14.00">!d</text>
</g>
<!-- !d4&#45;&gt;PiR2 -->
<g id="edge30" class="edge">
<title>!d4&#45;&gt;PiR2</title>
<g id="a_edge30"><a xlink:title="e75">
<path fill="none" stroke="blue" d="M135.38,-333.61C131.49,-351.59 128.75,-375.67 135,-396 139.38,-410.25 149.04,-424.1 157.25,-434.07"/>
<polygon fill="blue" stroke="blue" points="138.8,-334.34 137.75,-323.8 132,-332.7 138.8,-334.34"/>
</a>
</g>
</g>
<!-- I5&#45;&gt;!d4 -->
<g id="edge33" class="edge">
<title>I5&#45;&gt;!d4</title>
<g id="a_edge33"><a xlink:title="e83">
<path fill="none" stroke="blue" d="M160.56,-350.91C156.89,-341.72 152.86,-331.65 149.59,-323.47"/>
<polygon fill="blue" stroke="blue" points="157.4,-352.43 164.36,-360.41 163.9,-349.83 157.4,-352.43"/>
</a>
</g>
</g>
<!-- PiR3 -->
<g id="node29" class="node">
<title>PiR3</title>
<ellipse fill="none" stroke="black" cx="391" cy="-162" rx="27" ry="18"/>
<text text-anchor="middle" x="391" y="-158.3" font-family="Times-Roman" font-size="14.00">PiR</text>
</g>
<!-- !p4&#45;&gt;PiR3 -->
<g id="edge34" class="edge">
<title>!p4&#45;&gt;PiR3</title>
<g id="a_edge34"><a xlink:title="e85">
<path fill="none" stroke="red" d="M391,-215.7C391,-207.98 391,-198.71 391,-190.11"/>
<polygon fill="red" stroke="red" points="394.5,-190.1 391,-180.1 387.5,-190.1 394.5,-190.1"/>
</a>
</g>
</g>
<!-- I6 -->
<g id="node33" class="node">
<title>I6</title>
<ellipse fill="none" stroke="black" cx="418" cy="-90" rx="27" ry="18"/>
<text text-anchor="middle" x="418" y="-86.3" font-family="Times-Roman" font-size="14.00">I</text>
</g>
<!-- PiR3&#45;&gt;I6 -->
<g id="edge37" class="edge">
<title>PiR3&#45;&gt;I6</title>
<g id="a_edge37"><a xlink:title="e89">
<path fill="none" stroke="red" d="M397.4,-144.41C400.51,-136.34 404.33,-126.43 407.83,-117.35"/>
<polygon fill="red" stroke="red" points="411.13,-118.55 411.46,-107.96 404.6,-116.03 411.13,-118.55"/>
</a>
</g>
</g>
<!-- Cut2 -->
<g id="node30" class="node">
<title>Cut2</title>
<ellipse fill="none" stroke="black" cx="429" cy="-1026" rx="27" ry="18"/>
<text text-anchor="middle" x="429" y="-1022.3" font-family="Times-Roman" font-size="14.00">Cut</text>
</g>
<!-- Cut2&#45;&gt;Dup3_1 -->
<g id="edge23" class="edge">
<title>Cut2&#45;&gt;Dup3_1</title>
<g id="a_edge23"><a xlink:title="e56">
<path fill="none" stroke="red" stroke-width="2" d="M427.22,-1007.97C424.6,-981.34 420,-928.21 420,-883 420,-883 420,-883 420,-449 420,-407.2 408.57,-359.68 400.58,-331.58"/>
<ellipse fill="red" stroke="red" stroke-width="2" cx="399.45" cy="-327.69" rx="4" ry="4"/>
</a>
</g>
</g>
<!-- !d5 -->
<g id="node31" class="node">
<title>!d5</title>
<ellipse fill="none" stroke="black" cx="429" cy="-1185.25" rx="27" ry="18"/>
<text text-anchor="middle" x="429" y="-1181.55" font-family="Times-Roman" font-size="14.00">!d</text>
</g>
<!-- !d5&#45;&gt;Cut2 -->
<g id="edge35" class="edge">
<title>!d5&#45;&gt;Cut2</title>
<g id="a_edge35"><a xlink:title="e86">
<path fill="none" stroke="blue" stroke-width="2" d="M429,-1156.97C429,-1124.5 429,-1071.27 429,-1044.11"/>
<polygon fill="blue" stroke="blue" stroke-width="2" points="425.5,-1157.12 429,-1167.12 432.5,-1157.12 425.5,-1157.12"/>
</a>
</g>
</g>
<!-- !d6 -->
<g id="node32" class="node">
<title>!d6</title>
<ellipse fill="none" stroke="black" cx="390" cy="-18" rx="27" ry="18"/>
<text text-anchor="middle" x="390" y="-14.3" font-family="Times-Roman" font-size="14.00">!d</text>
</g>
<!-- !d6&#45;&gt;PiR3 -->
<g id="edge36" class="edge">
<title>!d6&#45;&gt;PiR3</title>
<g id="a_edge36"><a xlink:title="e87">
<path fill="none" stroke="blue" d="M385.12,-46.04C383.84,-54.34 382.64,-63.52 382,-72 380.8,-87.96 380.66,-92.06 382,-108 383.02,-120.09 385.32,-133.57 387.35,-143.91"/>
<polygon fill="blue" stroke="blue" points="388.58,-46.55 386.75,-36.11 381.68,-45.41 388.58,-46.55"/>
</a>
</g>
</g>
<!-- I6&#45;&gt;!d6 -->
<g id="edge40" class="edge">
<title>I6&#45;&gt;!d6</title>
<g id="a_edge40"><a xlink:title="e91">
<path fill="none" stroke="blue" d="M407.56,-62.91C403.89,-53.72 399.86,-43.65 396.59,-35.47"/>
<polygon fill="blue" stroke="blue" points="404.4,-64.43 411.36,-72.41 410.9,-61.83 404.4,-64.43"/>
</a>
</g>
</g>
<!-- Dup3_0&#45;&gt;!c0 -->
<g id="edge18" class="edge">
<title>Dup3_0&#45;&gt;!c0</title>
<g id="a_edge18"><a xlink:title="e47">
<path fill="none" stroke="blue" d="M213.84,-639.89C218.87,-611.6 226,-564.18 226,-523 226,-523 226,-523 226,-305 226,-258.3 245.42,-205.8 256.49,-179.66"/>
<ellipse fill="none" stroke="blue" cx="213.08" cy="-644.09" rx="4" ry="4"/>
</a>
</g>
</g>
<!-- Dup3_0&#45;&gt;Cut1 -->
<g id="edge16" class="edge">
<title>Dup3_0&#45;&gt;Cut1</title>
<g id="a_edge16"><a xlink:title="e45">
<path fill="none" stroke="blue" d="M196.23,-641.48C190.82,-631.51 184.65,-620.14 179.77,-611.15"/>
<ellipse fill="blue" stroke="blue" cx="198.28" cy="-645.25" rx="4" ry="4"/>
</a>
</g>
</g>
<!-- Dup3_1&#45;&gt;Dup1_1 -->
<g id="edge11" class="edge">
<title>Dup3_1&#45;&gt;Dup1_1</title>
<g id="a_edge11"><a xlink:title="e35">
<path fill="none" stroke="red" stroke-width="2" d="M389.25,-323.95C383.71,-350.48 374,-403.48 374,-449 374,-1027 374,-1027 374,-1027 374,-1067.4 366.48,-1113.02 360.04,-1144.68"/>
<ellipse fill="none" stroke="red" stroke-width="2" cx="359.16" cy="-1148.9" rx="4" ry="4"/>
</a>
</g>
</g>
<!-- PiL3&#45;&gt;Dup1_1 -->
<g id="edge10" class="edge">
<title>PiL3&#45;&gt;Dup1_1</title>
<g id="a_edge10"><a xlink:title="e34">
<path fill="none" stroke="red" d="M382.48,-1255.06C378.34,-1246.02 373.03,-1234.41 367.96,-1223.31"/>
<ellipse fill="red" stroke="red" cx="366.16" cy="-1219.39" rx="4" ry="4"/>
</a>
</g>
</g>
<!-- PiL3&#45;&gt;!d5 -->
<g id="edge39" class="edge">
<title>PiL3&#45;&gt;!d5</title>
<g id="a_edge39"><a xlink:title="e90">
<path fill="none" stroke="blue" stroke-width="2" d="M401.71,-1245.91C408.13,-1231.87 415.9,-1214.89 421.5,-1202.63"/>
<polygon fill="blue" stroke="blue" stroke-width="2" points="398.5,-1244.51 397.52,-1255.06 404.86,-1247.42 398.5,-1244.51"/>
</a>
</g>
</g>
<!-- Cut3&#45;&gt;!p0 -->
<g id="edge38" class="edge">
<title>Cut3&#45;&gt;!p0</title>
<g id="a_edge38"><a xlink:title="e9">
<path fill="none" stroke="red" d="M190.85,-864.05C189.42,-856.35 187.69,-847.03 186.08,-838.36"/>
<polygon fill="red" stroke="red" points="189.48,-837.47 184.21,-828.28 182.59,-838.75 189.48,-837.47"/>
</a>
</g>
</g>
<!-- !p5&#45;&gt;I0 -->
<g id="edge44" class="edge">
<title>!p5&#45;&gt;I0</title>
<g id="a_edge44"><a xlink:title="yli">
<path fill="none" stroke="red" d="M307.02,-1081.46C300.02,-1072.4 291.06,-1060.79 283.21,-1050.61"/>
<polygon fill="red" stroke="red" points="285.83,-1048.27 276.95,-1042.49 280.29,-1052.55 285.83,-1048.27"/>
</a>
</g>
</g>
</g>
</svg>
