<?xml version="1.0" encoding="UTF-8" standalone="no"?>
<!DOCTYPE svg PUBLIC "-//W3C//DTD SVG 1.1//EN"
 "http://www.w3.org/Graphics/SVG/1.1/DTD/svg11.dtd">
<!-- Generated by graphviz version 2.43.0 (0)
 -->
<!-- Title: %3 Pages: 1 -->
<svg width="336pt" height="1149pt"
 viewBox="0.00 0.00 336.00 1149.30" xmlns="http://www.w3.org/2000/svg" xmlns:xlink="http://www.w3.org/1999/xlink">
<g id="graph0" class="graph" transform="scale(1 1) rotate(0) translate(4 1145.3)">
<title>%3</title>
<polygon fill="white" stroke="transparent" points="-4,4 -4,-1145.3 332,-1145.3 332,4 -4,4"/>
<!-- Root0 -->
<g id="node1" class="node">
<title>Root0</title>
<ellipse fill="none" stroke="black" cx="201" cy="-1123.3" rx="30.59" ry="18"/>
<text text-anchor="middle" x="201" y="-1119.6" font-family="Times-Roman" font-size="14.00">Root</text>
</g>
<!-- I5 -->
<g id="node28" class="node">
<title>I5</title>
<ellipse fill="none" stroke="black" cx="201" cy="-1051.3" rx="27" ry="18"/>
<text text-anchor="middle" x="201" y="-1047.6" font-family="Times-Roman" font-size="14.00">I</text>
</g>
<!-- Root0&#45;&gt;I5 -->
<g id="edge32" class="edge">
<title>Root0&#45;&gt;I5</title>
<g id="a_edge32"><a xlink:title="rettop">
<path fill="none" stroke="red" stroke-width="2" d="M201,-1104.99C201,-1097.28 201,-1088.01 201,-1079.41"/>
<polygon fill="red" stroke="red" stroke-width="2" points="204.5,-1079.4 201,-1069.4 197.5,-1079.4 204.5,-1079.4"/>
</a>
</g>
</g>
<!-- !p0 -->
<g id="node2" class="node">
<title>!p0</title>
<ellipse fill="none" stroke="black" cx="163" cy="-738" rx="27" ry="18"/>
<text text-anchor="middle" x="163" y="-734.3" font-family="Times-Roman" font-size="14.00">!p</text>
</g>
<!-- PiR0 -->
<g id="node4" class="node">
<title>PiR0</title>
<ellipse fill="none" stroke="black" cx="163" cy="-666" rx="27" ry="18"/>
<text text-anchor="middle" x="163" y="-662.3" font-family="Times-Roman" font-size="14.00">PiR</text>
</g>
<!-- !p0&#45;&gt;PiR0 -->
<g id="edge15" class="edge">
<title>!p0&#45;&gt;PiR0</title>
<g id="a_edge15"><a xlink:title="e39">
<path fill="none" stroke="red" d="M163,-719.7C163,-711.98 163,-702.71 163,-694.11"/>
<polygon fill="red" stroke="red" points="166.5,-694.1 163,-684.1 159.5,-694.1 166.5,-694.1"/>
</a>
</g>
</g>
<!-- Cut0 -->
<g id="node3" class="node">
<title>Cut0</title>
<ellipse fill="none" stroke="black" cx="163" cy="-822.65" rx="26.78" ry="26.78"/>
<ellipse fill="none" stroke="black" cx="163" cy="-822.65" rx="30.8" ry="30.8"/>
<text text-anchor="middle" x="163" y="-818.95" font-family="Times-Roman" font-size="14.00">Cut</text>
</g>
<!-- Cut0&#45;&gt;!p0 -->
<g id="edge14" class="edge">
<title>Cut0&#45;&gt;!p0</title>
<g id="a_edge14"><a xlink:title="e37">
<path fill="none" stroke="red" d="M163,-791.81C163,-783.45 163,-774.41 163,-766.21"/>
<polygon fill="red" stroke="red" points="166.5,-766.05 163,-756.05 159.5,-766.05 166.5,-766.05"/>
</a>
</g>
</g>
<!-- I0 -->
<g id="node9" class="node">
<title>I0</title>
<ellipse fill="none" stroke="black" cx="136" cy="-594" rx="27" ry="18"/>
<text text-anchor="middle" x="136" y="-590.3" font-family="Times-Roman" font-size="14.00">I</text>
</g>
<!-- PiR0&#45;&gt;I0 -->
<g id="edge17" class="edge">
<title>PiR0&#45;&gt;I0</title>
<g id="a_edge17"><a xlink:title="e43">
<path fill="none" stroke="red" d="M156.6,-648.41C153.49,-640.34 149.67,-630.43 146.17,-621.35"/>
<polygon fill="red" stroke="red" points="149.4,-620.03 142.54,-611.96 142.87,-622.55 149.4,-620.03"/>
</a>
</g>
</g>
<!-- !c0 -->
<g id="node5" class="node">
<title>!c0</title>
<ellipse fill="none" stroke="black" cx="154" cy="-162" rx="27" ry="18"/>
<text text-anchor="middle" x="154" y="-158.3" font-family="Times-Roman" font-size="14.00">!c</text>
</g>
<!-- !c0&#45;&gt;PiR0 -->
<g id="edge16" class="edge">
<title>!c0&#45;&gt;PiR0</title>
<g id="a_edge16"><a xlink:title="e41">
<path fill="none" stroke="blue" d="M167.41,-188.07C180.98,-215.84 200,-262.35 200,-305 200,-523 200,-523 200,-523 200,-569.62 181.09,-622.15 170.31,-648.32"/>
<polygon fill="blue" stroke="blue" points="170.49,-186.42 162.87,-179.06 164.24,-189.57 170.49,-186.42"/>
</a>
</g>
</g>
<!-- !d0 -->
<g id="node6" class="node">
<title>!d0</title>
<ellipse fill="none" stroke="black" cx="126" cy="-306" rx="27" ry="18"/>
<text text-anchor="middle" x="126" y="-302.3" font-family="Times-Roman" font-size="14.00">!d</text>
</g>
<!-- !d0&#45;&gt;!c0 -->
<g id="edge18" class="edge">
<title>!d0&#45;&gt;!c0</title>
<g id="a_edge18"><a xlink:title="e46">
<path fill="none" stroke="blue" d="M131.31,-278.06C136.99,-249.28 145.81,-204.53 150.61,-180.19"/>
<polygon fill="blue" stroke="blue" points="127.88,-277.38 129.38,-287.87 134.75,-278.74 127.88,-277.38"/>
</a>
</g>
</g>
<!-- PiL0 -->
<g id="node7" class="node">
<title>PiL0</title>
<ellipse fill="none" stroke="black" cx="126" cy="-450" rx="27" ry="18"/>
<text text-anchor="middle" x="126" y="-446.3" font-family="Times-Roman" font-size="14.00">PiL</text>
</g>
<!-- PiL0&#45;&gt;!d0 -->
<g id="edge20" class="edge">
<title>PiL0&#45;&gt;!d0</title>
<g id="a_edge20"><a xlink:title="e49">
<path fill="none" stroke="blue" d="M115.74,-422.54C112.98,-414.18 110.38,-404.82 109,-396 106.53,-380.19 106.53,-375.81 109,-360 110.94,-347.59 115.3,-334.12 119.11,-323.86"/>
<polygon fill="blue" stroke="blue" points="112.49,-423.87 119.11,-432.14 119.1,-421.55 112.49,-423.87"/>
</a>
</g>
</g>
<!-- !p1 -->
<g id="node10" class="node">
<title>!p1</title>
<ellipse fill="none" stroke="black" cx="145" cy="-378" rx="27" ry="18"/>
<text text-anchor="middle" x="145" y="-374.3" font-family="Times-Roman" font-size="14.00">!p</text>
</g>
<!-- PiL0&#45;&gt;!p1 -->
<g id="edge22" class="edge">
<title>PiL0&#45;&gt;!p1</title>
<g id="a_edge22"><a xlink:title="e53">
<path fill="none" stroke="red" d="M130.6,-432.05C132.75,-424.14 135.35,-414.54 137.76,-405.69"/>
<polygon fill="red" stroke="red" points="141.2,-406.36 140.44,-395.79 134.45,-404.52 141.2,-406.36"/>
</a>
</g>
</g>
<!-- PiL1 -->
<g id="node8" class="node">
<title>PiL1</title>
<ellipse fill="none" stroke="black" cx="126" cy="-522" rx="27" ry="18"/>
<text text-anchor="middle" x="126" y="-518.3" font-family="Times-Roman" font-size="14.00">PiL</text>
</g>
<!-- PiL1&#45;&gt;PiL0 -->
<g id="edge21" class="edge">
<title>PiL1&#45;&gt;PiL0</title>
<g id="a_edge21"><a xlink:title="e51">
<path fill="none" stroke="blue" d="M126,-493.67C126,-485.05 126,-475.79 126,-468.1"/>
<polygon fill="blue" stroke="blue" points="122.5,-493.7 126,-503.7 129.5,-493.7 122.5,-493.7"/>
</a>
</g>
</g>
<!-- !p2 -->
<g id="node14" class="node">
<title>!p2</title>
<ellipse fill="none" stroke="black" cx="45" cy="-450" rx="27" ry="18"/>
<text text-anchor="middle" x="45" y="-446.3" font-family="Times-Roman" font-size="14.00">!p</text>
</g>
<!-- PiL1&#45;&gt;!p2 -->
<g id="edge24" class="edge">
<title>PiL1&#45;&gt;!p2</title>
<g id="a_edge24"><a xlink:title="e57">
<path fill="none" stroke="red" d="M110,-507.17C98.24,-497.01 82.06,-483.03 68.79,-471.56"/>
<polygon fill="red" stroke="red" points="70.82,-468.69 60.97,-464.8 66.25,-473.99 70.82,-468.69"/>
</a>
</g>
</g>
<!-- I0&#45;&gt;PiL1 -->
<g id="edge23" class="edge">
<title>I0&#45;&gt;PiL1</title>
<g id="a_edge23"><a xlink:title="e55">
<path fill="none" stroke="blue" d="M132.14,-566.01C130.91,-557.36 129.58,-548.03 128.47,-540.28"/>
<polygon fill="blue" stroke="blue" points="128.7,-566.65 133.58,-576.05 135.63,-565.66 128.7,-566.65"/>
</a>
</g>
</g>
<!-- PiR1 -->
<g id="node11" class="node">
<title>PiR1</title>
<ellipse fill="none" stroke="black" cx="255" cy="-306" rx="27" ry="18"/>
<text text-anchor="middle" x="255" y="-302.3" font-family="Times-Roman" font-size="14.00">PiR</text>
</g>
<!-- !p1&#45;&gt;PiR1 -->
<g id="edge25" class="edge">
<title>!p1&#45;&gt;PiR1</title>
<g id="a_edge25"><a xlink:title="e85">
<path fill="none" stroke="red" d="M164.16,-364.81C181.67,-353.67 207.76,-337.06 227.49,-324.5"/>
<polygon fill="red" stroke="red" points="229.5,-327.37 236.06,-319.05 225.74,-321.47 229.5,-327.37"/>
</a>
</g>
</g>
<!-- I1 -->
<g id="node13" class="node">
<title>I1</title>
<ellipse fill="none" stroke="black" cx="301" cy="-234" rx="27" ry="18"/>
<text text-anchor="middle" x="301" y="-230.3" font-family="Times-Roman" font-size="14.00">I</text>
</g>
<!-- PiR1&#45;&gt;I1 -->
<g id="edge27" class="edge">
<title>PiR1&#45;&gt;I1</title>
<g id="a_edge27"><a xlink:title="e89">
<path fill="none" stroke="red" d="M265.44,-289.12C271.2,-280.34 278.48,-269.26 284.96,-259.42"/>
<polygon fill="red" stroke="red" points="288.04,-261.1 290.6,-250.82 282.19,-257.26 288.04,-261.1"/>
</a>
</g>
</g>
<!-- !d1 -->
<g id="node12" class="node">
<title>!d1</title>
<ellipse fill="none" stroke="black" cx="273" cy="-162" rx="27" ry="18"/>
<text text-anchor="middle" x="273" y="-158.3" font-family="Times-Roman" font-size="14.00">!d</text>
</g>
<!-- !d1&#45;&gt;PiR1 -->
<g id="edge26" class="edge">
<title>!d1&#45;&gt;PiR1</title>
<g id="a_edge26"><a xlink:title="e87">
<path fill="none" stroke="blue" d="M268.71,-190.1C267.45,-198.4 266.11,-207.57 265,-216 261.71,-240.97 258.58,-269.98 256.73,-287.91"/>
<polygon fill="blue" stroke="blue" points="272.17,-190.58 270.24,-180.16 265.26,-189.51 272.17,-190.58"/>
</a>
</g>
</g>
<!-- I1&#45;&gt;!d1 -->
<g id="edge28" class="edge">
<title>I1&#45;&gt;!d1</title>
<g id="a_edge28"><a xlink:title="e91">
<path fill="none" stroke="blue" d="M290.56,-206.91C286.89,-197.72 282.86,-187.65 279.59,-179.47"/>
<polygon fill="blue" stroke="blue" points="287.4,-208.43 294.36,-216.41 293.9,-205.83 287.4,-208.43"/>
</a>
</g>
</g>
<!-- I2 -->
<g id="node19" class="node">
<title>I2</title>
<ellipse fill="none" stroke="black" cx="35" cy="-378" rx="27" ry="18"/>
<text text-anchor="middle" x="35" y="-374.3" font-family="Times-Roman" font-size="14.00">I</text>
</g>
<!-- !p2&#45;&gt;I2 -->
<g id="edge29" class="edge">
<title>!p2&#45;&gt;I2</title>
<g id="a_edge29"><a xlink:title="e95">
<path fill="none" stroke="red" d="M42.58,-432.05C41.48,-424.35 40.15,-415.03 38.91,-406.36"/>
<polygon fill="red" stroke="red" points="42.35,-405.68 37.47,-396.28 35.42,-406.67 42.35,-405.68"/>
</a>
</g>
</g>
<!-- !d2 -->
<g id="node15" class="node">
<title>!d2</title>
<ellipse fill="none" stroke="black" cx="165" cy="-907.3" rx="27" ry="18"/>
<text text-anchor="middle" x="165" y="-903.6" font-family="Times-Roman" font-size="14.00">!d</text>
</g>
<!-- !d2&#45;&gt;Cut0 -->
<g id="edge13" class="edge">
<title>!d2&#45;&gt;Cut0</title>
<g id="a_edge13"><a xlink:title="e23">
<path fill="none" stroke="blue" stroke-width="2" d="M164.34,-879.01C164.14,-870.82 163.92,-861.8 163.72,-853.45"/>
<polygon fill="blue" stroke="blue" stroke-width="2" points="160.84,-879.26 164.59,-889.17 167.84,-879.09 160.84,-879.26"/>
</a>
</g>
</g>
<!-- PiL2 -->
<g id="node16" class="node">
<title>PiL2</title>
<ellipse fill="none" stroke="black" cx="201" cy="-979.3" rx="27" ry="18"/>
<text text-anchor="middle" x="201" y="-975.6" font-family="Times-Roman" font-size="14.00">PiL</text>
</g>
<!-- PiL2&#45;&gt;!d2 -->
<g id="edge30" class="edge">
<title>PiL2&#45;&gt;!d2</title>
<g id="a_edge30"><a xlink:title="e96">
<path fill="none" stroke="blue" stroke-width="2" d="M187.99,-953C183.09,-943.47 177.66,-932.91 173.3,-924.44"/>
<polygon fill="blue" stroke="blue" stroke-width="2" points="184.96,-954.77 192.65,-962.06 191.19,-951.57 184.96,-954.77"/>
</a>
</g>
</g>
<!-- !p3 -->
<g id="node20" class="node">
<title>!p3</title>
<ellipse fill="none" stroke="black" cx="238" cy="-907.3" rx="27" ry="18"/>
<text text-anchor="middle" x="238" y="-903.6" font-family="Times-Roman" font-size="14.00">!p</text>
</g>
<!-- PiL2&#45;&gt;!p3 -->
<g id="edge1" class="edge">
<title>PiL2&#45;&gt;!p3</title>
<g id="a_edge1"><a xlink:title="e100">
<path fill="none" stroke="red" d="M209.58,-962.06C214.06,-953.58 219.65,-943.01 224.68,-933.49"/>
<polygon fill="red" stroke="red" points="227.89,-934.92 229.46,-924.44 221.7,-931.65 227.89,-934.92"/>
</a>
</g>
</g>
<!-- !d3 -->
<g id="node17" class="node">
<title>!d3</title>
<ellipse fill="none" stroke="black" cx="99" cy="-234" rx="27" ry="18"/>
<text text-anchor="middle" x="99" y="-230.3" font-family="Times-Roman" font-size="14.00">!d</text>
</g>
<!-- !d3&#45;&gt;!c0 -->
<g id="edge19" class="edge">
<title>!d3&#45;&gt;!c0</title>
<g id="a_edge19"><a xlink:title="e47">
<path fill="none" stroke="blue" d="M117.17,-209.87C125.37,-199.44 134.81,-187.42 142.09,-178.16"/>
<polygon fill="blue" stroke="blue" points="114.36,-207.79 110.93,-217.81 119.86,-212.11 114.36,-207.79"/>
</a>
</g>
</g>
<!-- PiL3 -->
<g id="node18" class="node">
<title>PiL3</title>
<ellipse fill="none" stroke="black" cx="35" cy="-306" rx="27" ry="18"/>
<text text-anchor="middle" x="35" y="-302.3" font-family="Times-Roman" font-size="14.00">PiL</text>
</g>
<!-- PiL3&#45;&gt;!d3 -->
<g id="edge2" class="edge">
<title>PiL3&#45;&gt;!d3</title>
<g id="a_edge2"><a xlink:title="e103">
<path fill="none" stroke="blue" d="M55.36,-282.73C65.19,-271.98 76.71,-259.38 85.45,-249.82"/>
<polygon fill="blue" stroke="blue" points="52.74,-280.41 48.57,-290.15 57.9,-285.14 52.74,-280.41"/>
</a>
</g>
</g>
<!-- !p4 -->
<g id="node21" class="node">
<title>!p4</title>
<ellipse fill="none" stroke="black" cx="27" cy="-234" rx="27" ry="18"/>
<text text-anchor="middle" x="27" y="-230.3" font-family="Times-Roman" font-size="14.00">!p</text>
</g>
<!-- PiL3&#45;&gt;!p4 -->
<g id="edge4" class="edge">
<title>PiL3&#45;&gt;!p4</title>
<g id="a_edge4"><a xlink:title="e107">
<path fill="none" stroke="red" d="M33.02,-287.7C32.14,-279.98 31.08,-270.71 30.1,-262.11"/>
<polygon fill="red" stroke="red" points="33.57,-261.64 28.95,-252.1 26.61,-262.44 33.57,-261.64"/>
</a>
</g>
</g>
<!-- I2&#45;&gt;PiL3 -->
<g id="edge3" class="edge">
<title>I2&#45;&gt;PiL3</title>
<g id="a_edge3"><a xlink:title="e105">
<path fill="none" stroke="blue" d="M35,-349.67C35,-341.05 35,-331.79 35,-324.1"/>
<polygon fill="blue" stroke="blue" points="31.5,-349.7 35,-359.7 38.5,-349.7 31.5,-349.7"/>
</a>
</g>
</g>
<!-- PiR2 -->
<g id="node22" class="node">
<title>PiR2</title>
<ellipse fill="none" stroke="black" cx="239" cy="-822.65" rx="27" ry="18"/>
<text text-anchor="middle" x="239" y="-818.95" font-family="Times-Roman" font-size="14.00">PiR</text>
</g>
<!-- !p3&#45;&gt;PiR2 -->
<g id="edge5" class="edge">
<title>!p3&#45;&gt;PiR2</title>
<g id="a_edge5"><a xlink:title="e108">
<path fill="none" stroke="red" d="M238.21,-889.17C238.34,-878.09 238.52,-863.42 238.67,-850.78"/>
<polygon fill="red" stroke="red" points="242.17,-850.79 238.79,-840.75 235.17,-850.71 242.17,-850.79"/>
</a>
</g>
</g>
<!-- PiR3 -->
<g id="node23" class="node">
<title>PiR3</title>
<ellipse fill="none" stroke="black" cx="27" cy="-162" rx="27" ry="18"/>
<text text-anchor="middle" x="27" y="-158.3" font-family="Times-Roman" font-size="14.00">PiR</text>
</g>
<!-- !p4&#45;&gt;PiR3 -->
<g id="edge6" class="edge">
<title>!p4&#45;&gt;PiR3</title>
<g id="a_edge6"><a xlink:title="e111">
<path fill="none" stroke="red" d="M27,-215.7C27,-207.98 27,-198.71 27,-190.11"/>
<polygon fill="red" stroke="red" points="30.5,-190.1 27,-180.1 23.5,-190.1 30.5,-190.1"/>
</a>
</g>
</g>
<!-- I3 -->
<g id="node25" class="node">
<title>I3</title>
<ellipse fill="none" stroke="black" cx="281" cy="-738" rx="27" ry="18"/>
<text text-anchor="middle" x="281" y="-734.3" font-family="Times-Roman" font-size="14.00">I</text>
</g>
<!-- PiR2&#45;&gt;I3 -->
<g id="edge8" class="edge">
<title>PiR2&#45;&gt;I3</title>
<g id="a_edge8"><a xlink:title="e114">
<path fill="none" stroke="red" d="M247.3,-805.32C253.22,-793.66 261.31,-777.75 268.08,-764.43"/>
<polygon fill="red" stroke="red" points="271.31,-765.8 272.72,-755.29 265.07,-762.62 271.31,-765.8"/>
</a>
</g>
</g>
<!-- I4 -->
<g id="node27" class="node">
<title>I4</title>
<ellipse fill="none" stroke="black" cx="55" cy="-90" rx="27" ry="18"/>
<text text-anchor="middle" x="55" y="-86.3" font-family="Times-Roman" font-size="14.00">I</text>
</g>
<!-- PiR3&#45;&gt;I4 -->
<g id="edge10" class="edge">
<title>PiR3&#45;&gt;I4</title>
<g id="a_edge10"><a xlink:title="e119">
<path fill="none" stroke="red" d="M33.64,-144.41C36.91,-136.22 40.94,-126.14 44.62,-116.95"/>
<polygon fill="red" stroke="red" points="47.95,-118.05 48.41,-107.47 41.45,-115.45 47.95,-118.05"/>
</a>
</g>
</g>
<!-- !d4 -->
<g id="node24" class="node">
<title>!d4</title>
<ellipse fill="none" stroke="black" cx="258" cy="-666" rx="27" ry="18"/>
<text text-anchor="middle" x="258" y="-662.3" font-family="Times-Roman" font-size="14.00">!d</text>
</g>
<!-- !d4&#45;&gt;PiR2 -->
<g id="edge7" class="edge">
<title>!d4&#45;&gt;PiR2</title>
<g id="a_edge7"><a xlink:title="e112">
<path fill="none" stroke="blue" d="M250.39,-693.94C248.32,-702.23 246.29,-711.44 245,-720 240.54,-749.54 239.36,-784.38 239.06,-804.64"/>
<polygon fill="blue" stroke="blue" points="253.84,-694.59 252.99,-684.03 247.07,-692.81 253.84,-694.59"/>
</a>
</g>
</g>
<!-- I3&#45;&gt;!d4 -->
<g id="edge11" class="edge">
<title>I3&#45;&gt;!d4</title>
<g id="a_edge11"><a xlink:title="e120">
<path fill="none" stroke="blue" d="M272.27,-710.43C269.33,-701.48 266.14,-691.76 263.52,-683.79"/>
<polygon fill="blue" stroke="blue" points="268.99,-711.65 275.43,-720.05 275.64,-709.46 268.99,-711.65"/>
</a>
</g>
</g>
<!-- !d5 -->
<g id="node26" class="node">
<title>!d5</title>
<ellipse fill="none" stroke="black" cx="27" cy="-18" rx="27" ry="18"/>
<text text-anchor="middle" x="27" y="-14.3" font-family="Times-Roman" font-size="14.00">!d</text>
</g>
<!-- !d5&#45;&gt;PiR3 -->
<g id="edge9" class="edge">
<title>!d5&#45;&gt;PiR3</title>
<g id="a_edge9"><a xlink:title="e117">
<path fill="none" stroke="blue" d="M22.12,-46.04C20.84,-54.34 19.64,-63.52 19,-72 17.8,-87.96 17.8,-92.04 19,-108 19.91,-120.06 21.95,-133.54 23.75,-143.89"/>
<polygon fill="blue" stroke="blue" points="25.58,-46.55 23.75,-36.11 18.68,-45.41 25.58,-46.55"/>
</a>
</g>
</g>
<!-- I4&#45;&gt;!d5 -->
<g id="edge12" class="edge">
<title>I4&#45;&gt;!d5</title>
<g id="a_edge12"><a xlink:title="e123">
<path fill="none" stroke="blue" d="M44.56,-62.91C40.89,-53.72 36.86,-43.65 33.59,-35.47"/>
<polygon fill="blue" stroke="blue" points="41.4,-64.43 48.36,-72.41 47.9,-61.83 41.4,-64.43"/>
</a>
</g>
</g>
<!-- I5&#45;&gt;PiL2 -->
<g id="edge31" class="edge">
<title>I5&#45;&gt;PiL2</title>
<g id="a_edge31"><a xlink:title="e98">
<path fill="none" stroke="blue" stroke-width="2" d="M201,-1022.96C201,-1014.35 201,-1005.09 201,-997.4"/>
<polygon fill="blue" stroke="blue" stroke-width="2" points="197.5,-1022.99 201,-1032.99 204.5,-1022.99 197.5,-1022.99"/>
</a>
</g>
</g>
</g>
</svg>
