<?xml version="1.0" encoding="UTF-8" standalone="no"?>
<!DOCTYPE svg PUBLIC "-//W3C//DTD SVG 1.1//EN"
 "http://www.w3.org/Graphics/SVG/1.1/DTD/svg11.dtd">
<!-- Generated by graphviz version 2.43.0 (0)
 -->
<!-- Title: %3 Pages: 1 -->
<svg width="308pt" height="1005pt"
 viewBox="0.00 0.00 308.47 1005.30" xmlns="http://www.w3.org/2000/svg" xmlns:xlink="http://www.w3.org/1999/xlink">
<g id="graph0" class="graph" transform="scale(1 1) rotate(0) translate(4 1001.3)">
<title>%3</title>
<polygon fill="white" stroke="transparent" points="-4,4 -4,-1001.3 304.47,-1001.3 304.47,4 -4,4"/>
<!-- Root0 -->
<g id="node1" class="node">
<title>Root0</title>
<ellipse fill="none" stroke="black" cx="208" cy="-979.3" rx="30.59" ry="18"/>
<text text-anchor="middle" x="208" y="-975.6" font-family="Times-Roman" font-size="14.00">Root</text>
</g>
<!-- I5 -->
<g id="node25" class="node">
<title>I5</title>
<ellipse fill="none" stroke="black" cx="208" cy="-907.3" rx="27" ry="18"/>
<text text-anchor="middle" x="208" y="-903.6" font-family="Times-Roman" font-size="14.00">I</text>
</g>
<!-- Root0&#45;&gt;I5 -->
<g id="edge30" class="edge">
<title>Root0&#45;&gt;I5</title>
<g id="a_edge30"><a xlink:title="rettop">
<path fill="none" stroke="red" stroke-width="2" d="M208,-960.99C208,-953.28 208,-944.01 208,-935.41"/>
<polygon fill="red" stroke="red" stroke-width="2" points="211.5,-935.4 208,-925.4 204.5,-935.4 211.5,-935.4"/>
</a>
</g>
</g>
<!-- PiR0 -->
<g id="node2" class="node">
<title>PiR0</title>
<ellipse fill="none" stroke="black" cx="246" cy="-666" rx="27" ry="18"/>
<text text-anchor="middle" x="246" y="-662.3" font-family="Times-Roman" font-size="14.00">PiR</text>
</g>
<!-- I0 -->
<g id="node7" class="node">
<title>I0</title>
<ellipse fill="none" stroke="black" cx="244" cy="-594" rx="27" ry="18"/>
<text text-anchor="middle" x="244" y="-590.3" font-family="Times-Roman" font-size="14.00">I</text>
</g>
<!-- PiR0&#45;&gt;I0 -->
<g id="edge15" class="edge">
<title>PiR0&#45;&gt;I0</title>
<g id="a_edge15"><a xlink:title="e43">
<path fill="none" stroke="red" d="M245.51,-647.7C245.29,-639.98 245.02,-630.71 244.77,-622.11"/>
<polygon fill="red" stroke="red" points="248.27,-622 244.49,-612.1 241.28,-622.2 248.27,-622"/>
</a>
</g>
</g>
<!-- !c0 -->
<g id="node3" class="node">
<title>!c0</title>
<ellipse fill="none" stroke="black" cx="172" cy="-162" rx="27" ry="18"/>
<text text-anchor="middle" x="172" y="-158.3" font-family="Times-Roman" font-size="14.00">!c</text>
</g>
<!-- !c0&#45;&gt;PiR0 -->
<g id="edge14" class="edge">
<title>!c0&#45;&gt;PiR0</title>
<g id="a_edge14"><a xlink:title="e41">
<path fill="none" stroke="blue" d="M202.51,-177.58C233.98,-192.67 278.67,-214.3 280,-216 304.88,-247.89 299,-264.55 299,-305 299,-523 299,-523 299,-523 299,-563.45 295.39,-574.6 280,-612 274.43,-625.55 265.37,-639.43 258.01,-649.59"/>
<polygon fill="blue" stroke="blue" points="203.76,-174.3 193.23,-173.13 200.74,-180.61 203.76,-174.3"/>
</a>
</g>
</g>
<!-- !d0 -->
<g id="node4" class="node">
<title>!d0</title>
<ellipse fill="none" stroke="black" cx="121" cy="-306" rx="27" ry="18"/>
<text text-anchor="middle" x="121" y="-302.3" font-family="Times-Roman" font-size="14.00">!d</text>
</g>
<!-- !d0&#45;&gt;!c0 -->
<g id="edge16" class="edge">
<title>!d0&#45;&gt;!c0</title>
<g id="a_edge16"><a xlink:title="e46">
<path fill="none" stroke="blue" d="M122.58,-277.55C124.34,-259.52 128.08,-235.72 136,-216 141.55,-202.17 151.16,-188.3 159.05,-178.21"/>
<polygon fill="blue" stroke="blue" points="119.08,-277.42 121.73,-287.68 126.05,-278.01 119.08,-277.42"/>
</a>
</g>
</g>
<!-- PiL0 -->
<g id="node5" class="node">
<title>PiL0</title>
<ellipse fill="none" stroke="black" cx="121" cy="-450" rx="27" ry="18"/>
<text text-anchor="middle" x="121" y="-446.3" font-family="Times-Roman" font-size="14.00">PiL</text>
</g>
<!-- PiL0&#45;&gt;!d0 -->
<g id="edge18" class="edge">
<title>PiL0&#45;&gt;!d0</title>
<g id="a_edge18"><a xlink:title="e49">
<path fill="none" stroke="blue" d="M121,-421.68C121,-392.89 121,-348.42 121,-324.19"/>
<polygon fill="blue" stroke="blue" points="117.5,-421.87 121,-431.87 124.5,-421.87 117.5,-421.87"/>
</a>
</g>
</g>
<!-- !p0 -->
<g id="node8" class="node">
<title>!p0</title>
<ellipse fill="none" stroke="black" cx="58" cy="-378" rx="27" ry="18"/>
<text text-anchor="middle" x="58" y="-374.3" font-family="Times-Roman" font-size="14.00">!p</text>
</g>
<!-- PiL0&#45;&gt;!p0 -->
<g id="edge20" class="edge">
<title>PiL0&#45;&gt;!p0</title>
<g id="a_edge20"><a xlink:title="e53">
<path fill="none" stroke="red" d="M107.64,-434.15C99.12,-424.69 87.91,-412.24 78.31,-401.56"/>
<polygon fill="red" stroke="red" points="80.63,-398.92 71.34,-393.82 75.43,-403.6 80.63,-398.92"/>
</a>
</g>
</g>
<!-- PiL1 -->
<g id="node6" class="node">
<title>PiL1</title>
<ellipse fill="none" stroke="black" cx="230" cy="-522" rx="27" ry="18"/>
<text text-anchor="middle" x="230" y="-518.3" font-family="Times-Roman" font-size="14.00">PiL</text>
</g>
<!-- PiL1&#45;&gt;PiL0 -->
<g id="edge19" class="edge">
<title>PiL1&#45;&gt;PiL0</title>
<g id="a_edge19"><a xlink:title="e51">
<path fill="none" stroke="blue" d="M202.5,-503.34C182.89,-490.75 157.05,-474.15 139.77,-463.05"/>
<polygon fill="blue" stroke="blue" points="200.71,-506.35 211.01,-508.81 204.49,-500.46 200.71,-506.35"/>
</a>
</g>
</g>
<!-- !p1 -->
<g id="node12" class="node">
<title>!p1</title>
<ellipse fill="none" stroke="black" cx="230" cy="-450" rx="27" ry="18"/>
<text text-anchor="middle" x="230" y="-446.3" font-family="Times-Roman" font-size="14.00">!p</text>
</g>
<!-- PiL1&#45;&gt;!p1 -->
<g id="edge22" class="edge">
<title>PiL1&#45;&gt;!p1</title>
<g id="a_edge22"><a xlink:title="e57">
<path fill="none" stroke="red" d="M230,-503.7C230,-495.98 230,-486.71 230,-478.11"/>
<polygon fill="red" stroke="red" points="233.5,-478.1 230,-468.1 226.5,-478.1 233.5,-478.1"/>
</a>
</g>
</g>
<!-- I0&#45;&gt;PiL1 -->
<g id="edge21" class="edge">
<title>I0&#45;&gt;PiL1</title>
<g id="a_edge21"><a xlink:title="e55">
<path fill="none" stroke="blue" d="M238.6,-566.01C236.87,-557.36 235.01,-548.03 233.46,-540.28"/>
<polygon fill="blue" stroke="blue" points="235.22,-566.94 240.61,-576.05 242.08,-565.56 235.22,-566.94"/>
</a>
</g>
</g>
<!-- PiR1 -->
<g id="node9" class="node">
<title>PiR1</title>
<ellipse fill="none" stroke="black" cx="49" cy="-306" rx="27" ry="18"/>
<text text-anchor="middle" x="49" y="-302.3" font-family="Times-Roman" font-size="14.00">PiR</text>
</g>
<!-- !p0&#45;&gt;PiR1 -->
<g id="edge23" class="edge">
<title>!p0&#45;&gt;PiR1</title>
<g id="a_edge23"><a xlink:title="e85">
<path fill="none" stroke="red" d="M55.82,-360.05C54.83,-352.35 53.63,-343.03 52.52,-334.36"/>
<polygon fill="red" stroke="red" points="55.97,-333.75 51.22,-324.28 49.02,-334.64 55.97,-333.75"/>
</a>
</g>
</g>
<!-- I1 -->
<g id="node11" class="node">
<title>I1</title>
<ellipse fill="none" stroke="black" cx="54" cy="-234" rx="27" ry="18"/>
<text text-anchor="middle" x="54" y="-230.3" font-family="Times-Roman" font-size="14.00">I</text>
</g>
<!-- PiR1&#45;&gt;I1 -->
<g id="edge25" class="edge">
<title>PiR1&#45;&gt;I1</title>
<g id="a_edge25"><a xlink:title="e89">
<path fill="none" stroke="red" d="M50.24,-287.7C50.79,-279.98 51.45,-270.71 52.06,-262.11"/>
<polygon fill="red" stroke="red" points="55.56,-262.33 52.78,-252.1 48.57,-261.83 55.56,-262.33"/>
</a>
</g>
</g>
<!-- !d1 -->
<g id="node10" class="node">
<title>!d1</title>
<ellipse fill="none" stroke="black" cx="27" cy="-162" rx="27" ry="18"/>
<text text-anchor="middle" x="27" y="-158.3" font-family="Times-Roman" font-size="14.00">!d</text>
</g>
<!-- !d1&#45;&gt;PiR1 -->
<g id="edge24" class="edge">
<title>!d1&#45;&gt;PiR1</title>
<g id="a_edge24"><a xlink:title="e87">
<path fill="none" stroke="blue" d="M19.37,-189.47C15.41,-207.39 12.43,-231.45 18,-252 21.74,-265.79 30.05,-279.66 37.13,-289.76"/>
<polygon fill="blue" stroke="blue" points="22.79,-190.24 21.77,-179.7 15.99,-188.58 22.79,-190.24"/>
</a>
</g>
</g>
<!-- I1&#45;&gt;!d1 -->
<g id="edge26" class="edge">
<title>I1&#45;&gt;!d1</title>
<g id="a_edge26"><a xlink:title="e91">
<path fill="none" stroke="blue" d="M43.99,-207.06C40.5,-198.01 36.68,-188.09 33.54,-179.96"/>
<polygon fill="blue" stroke="blue" points="40.74,-208.34 47.6,-216.41 47.27,-205.82 40.74,-208.34"/>
</a>
</g>
</g>
<!-- I2 -->
<g id="node16" class="node">
<title>I2</title>
<ellipse fill="none" stroke="black" cx="230" cy="-378" rx="27" ry="18"/>
<text text-anchor="middle" x="230" y="-374.3" font-family="Times-Roman" font-size="14.00">I</text>
</g>
<!-- !p1&#45;&gt;I2 -->
<g id="edge27" class="edge">
<title>!p1&#45;&gt;I2</title>
<g id="a_edge27"><a xlink:title="e95">
<path fill="none" stroke="red" d="M230,-431.7C230,-423.98 230,-414.71 230,-406.11"/>
<polygon fill="red" stroke="red" points="233.5,-406.1 230,-396.1 226.5,-406.1 233.5,-406.1"/>
</a>
</g>
</g>
<!-- PiL2 -->
<g id="node13" class="node">
<title>PiL2</title>
<ellipse fill="none" stroke="black" cx="208" cy="-835.3" rx="27" ry="18"/>
<text text-anchor="middle" x="208" y="-831.6" font-family="Times-Roman" font-size="14.00">PiL</text>
</g>
<!-- !p2 -->
<g id="node17" class="node">
<title>!p2</title>
<ellipse fill="none" stroke="black" cx="170" cy="-750.65" rx="27" ry="18"/>
<text text-anchor="middle" x="170" y="-746.95" font-family="Times-Roman" font-size="14.00">!p</text>
</g>
<!-- PiL2&#45;&gt;!p2 -->
<g id="edge1" class="edge">
<title>PiL2&#45;&gt;!p2</title>
<g id="a_edge1"><a xlink:title="e100">
<path fill="none" stroke="red" d="M200.49,-817.97C195.13,-806.31 187.82,-790.4 181.69,-777.08"/>
<polygon fill="red" stroke="red" points="184.85,-775.57 177.49,-767.94 178.49,-778.49 184.85,-775.57"/>
</a>
</g>
</g>
<!-- Cut0 -->
<g id="node26" class="node">
<title>Cut0</title>
<ellipse fill="none" stroke="black" cx="246" cy="-750.65" rx="26.78" ry="26.78"/>
<ellipse fill="none" stroke="black" cx="246" cy="-750.65" rx="30.8" ry="30.8"/>
<text text-anchor="middle" x="246" y="-746.95" font-family="Times-Roman" font-size="14.00">Cut</text>
</g>
<!-- PiL2&#45;&gt;Cut0 -->
<g id="edge28" class="edge">
<title>PiL2&#45;&gt;Cut0</title>
<g id="a_edge28"><a xlink:title="e96">
<path fill="none" stroke="blue" stroke-width="2" d="M219.8,-808.63C224.17,-799.12 229.14,-788.31 233.57,-778.68"/>
<polygon fill="blue" stroke="blue" stroke-width="2" points="216.51,-807.42 215.51,-817.97 222.87,-810.34 216.51,-807.42"/>
</a>
</g>
</g>
<!-- !d2 -->
<g id="node14" class="node">
<title>!d2</title>
<ellipse fill="none" stroke="black" cx="172" cy="-234" rx="27" ry="18"/>
<text text-anchor="middle" x="172" y="-230.3" font-family="Times-Roman" font-size="14.00">!d</text>
</g>
<!-- !d2&#45;&gt;!c0 -->
<g id="edge17" class="edge">
<title>!d2&#45;&gt;!c0</title>
<g id="a_edge17"><a xlink:title="e47">
<path fill="none" stroke="blue" d="M172,-205.67C172,-197.05 172,-187.79 172,-180.1"/>
<polygon fill="blue" stroke="blue" points="168.5,-205.7 172,-215.7 175.5,-205.7 168.5,-205.7"/>
</a>
</g>
</g>
<!-- PiL3 -->
<g id="node15" class="node">
<title>PiL3</title>
<ellipse fill="none" stroke="black" cx="230" cy="-306" rx="27" ry="18"/>
<text text-anchor="middle" x="230" y="-302.3" font-family="Times-Roman" font-size="14.00">PiL</text>
</g>
<!-- PiL3&#45;&gt;!d2 -->
<g id="edge2" class="edge">
<title>PiL3&#45;&gt;!d2</title>
<g id="a_edge2"><a xlink:title="e103">
<path fill="none" stroke="blue" d="M210.84,-281.87C202.2,-271.44 192.23,-259.42 184.56,-250.16"/>
<polygon fill="blue" stroke="blue" points="208.34,-284.34 217.41,-289.81 213.73,-279.88 208.34,-284.34"/>
</a>
</g>
</g>
<!-- !p3 -->
<g id="node18" class="node">
<title>!p3</title>
<ellipse fill="none" stroke="black" cx="244" cy="-234" rx="27" ry="18"/>
<text text-anchor="middle" x="244" y="-230.3" font-family="Times-Roman" font-size="14.00">!p</text>
</g>
<!-- PiL3&#45;&gt;!p3 -->
<g id="edge4" class="edge">
<title>PiL3&#45;&gt;!p3</title>
<g id="a_edge4"><a xlink:title="e107">
<path fill="none" stroke="red" d="M233.39,-288.05C234.93,-280.35 236.79,-271.03 238.53,-262.36"/>
<polygon fill="red" stroke="red" points="242.02,-262.77 240.54,-252.28 235.15,-261.39 242.02,-262.77"/>
</a>
</g>
</g>
<!-- I2&#45;&gt;PiL3 -->
<g id="edge3" class="edge">
<title>I2&#45;&gt;PiL3</title>
<g id="a_edge3"><a xlink:title="e105">
<path fill="none" stroke="blue" d="M230,-349.67C230,-341.05 230,-331.79 230,-324.1"/>
<polygon fill="blue" stroke="blue" points="226.5,-349.7 230,-359.7 233.5,-349.7 226.5,-349.7"/>
</a>
</g>
</g>
<!-- PiR2 -->
<g id="node19" class="node">
<title>PiR2</title>
<ellipse fill="none" stroke="black" cx="170" cy="-666" rx="27" ry="18"/>
<text text-anchor="middle" x="170" y="-662.3" font-family="Times-Roman" font-size="14.00">PiR</text>
</g>
<!-- !p2&#45;&gt;PiR2 -->
<g id="edge5" class="edge">
<title>!p2&#45;&gt;PiR2</title>
<g id="a_edge5"><a xlink:title="e108">
<path fill="none" stroke="red" d="M170,-732.52C170,-721.44 170,-706.78 170,-694.13"/>
<polygon fill="red" stroke="red" points="173.5,-694.1 170,-684.1 166.5,-694.1 173.5,-694.1"/>
</a>
</g>
</g>
<!-- PiR3 -->
<g id="node20" class="node">
<title>PiR3</title>
<ellipse fill="none" stroke="black" cx="244" cy="-162" rx="27" ry="18"/>
<text text-anchor="middle" x="244" y="-158.3" font-family="Times-Roman" font-size="14.00">PiR</text>
</g>
<!-- !p3&#45;&gt;PiR3 -->
<g id="edge6" class="edge">
<title>!p3&#45;&gt;PiR3</title>
<g id="a_edge6"><a xlink:title="e111">
<path fill="none" stroke="red" d="M244,-215.7C244,-207.98 244,-198.71 244,-190.11"/>
<polygon fill="red" stroke="red" points="247.5,-190.1 244,-180.1 240.5,-190.1 247.5,-190.1"/>
</a>
</g>
</g>
<!-- I3 -->
<g id="node22" class="node">
<title>I3</title>
<ellipse fill="none" stroke="black" cx="172" cy="-594" rx="27" ry="18"/>
<text text-anchor="middle" x="172" y="-590.3" font-family="Times-Roman" font-size="14.00">I</text>
</g>
<!-- PiR2&#45;&gt;I3 -->
<g id="edge8" class="edge">
<title>PiR2&#45;&gt;I3</title>
<g id="a_edge8"><a xlink:title="e114">
<path fill="none" stroke="red" d="M170.49,-647.7C170.71,-639.98 170.98,-630.71 171.23,-622.11"/>
<polygon fill="red" stroke="red" points="174.72,-622.2 171.51,-612.1 167.73,-622 174.72,-622.2"/>
</a>
</g>
</g>
<!-- I4 -->
<g id="node24" class="node">
<title>I4</title>
<ellipse fill="none" stroke="black" cx="272" cy="-90" rx="27" ry="18"/>
<text text-anchor="middle" x="272" y="-86.3" font-family="Times-Roman" font-size="14.00">I</text>
</g>
<!-- PiR3&#45;&gt;I4 -->
<g id="edge10" class="edge">
<title>PiR3&#45;&gt;I4</title>
<g id="a_edge10"><a xlink:title="e119">
<path fill="none" stroke="red" d="M250.64,-144.41C253.91,-136.22 257.94,-126.14 261.62,-116.95"/>
<polygon fill="red" stroke="red" points="264.95,-118.05 265.41,-107.47 258.45,-115.45 264.95,-118.05"/>
</a>
</g>
</g>
<!-- !d3 -->
<g id="node21" class="node">
<title>!d3</title>
<ellipse fill="none" stroke="black" cx="144" cy="-522" rx="27" ry="18"/>
<text text-anchor="middle" x="144" y="-518.3" font-family="Times-Roman" font-size="14.00">!d</text>
</g>
<!-- !d3&#45;&gt;PiR2 -->
<g id="edge7" class="edge">
<title>!d3&#45;&gt;PiR2</title>
<g id="a_edge7"><a xlink:title="e112">
<path fill="none" stroke="blue" d="M136.55,-549.56C132.74,-567.52 130.02,-591.59 136,-612 140.12,-626.06 149.24,-639.92 157,-649.94"/>
<polygon fill="blue" stroke="blue" points="139.97,-550.3 138.87,-539.76 133.16,-548.69 139.97,-550.3"/>
</a>
</g>
</g>
<!-- I3&#45;&gt;!d3 -->
<g id="edge11" class="edge">
<title>I3&#45;&gt;!d3</title>
<g id="a_edge11"><a xlink:title="e120">
<path fill="none" stroke="blue" d="M161.56,-566.91C157.89,-557.72 153.86,-547.65 150.59,-539.47"/>
<polygon fill="blue" stroke="blue" points="158.4,-568.43 165.36,-576.41 164.9,-565.83 158.4,-568.43"/>
</a>
</g>
</g>
<!-- !d4 -->
<g id="node23" class="node">
<title>!d4</title>
<ellipse fill="none" stroke="black" cx="244" cy="-18" rx="27" ry="18"/>
<text text-anchor="middle" x="244" y="-14.3" font-family="Times-Roman" font-size="14.00">!d</text>
</g>
<!-- !d4&#45;&gt;PiR3 -->
<g id="edge9" class="edge">
<title>!d4&#45;&gt;PiR3</title>
<g id="a_edge9"><a xlink:title="e117">
<path fill="none" stroke="blue" d="M239.12,-46.04C237.84,-54.34 236.64,-63.52 236,-72 234.8,-87.96 234.8,-92.04 236,-108 236.91,-120.06 238.95,-133.54 240.75,-143.89"/>
<polygon fill="blue" stroke="blue" points="242.58,-46.55 240.75,-36.11 235.68,-45.41 242.58,-46.55"/>
</a>
</g>
</g>
<!-- I4&#45;&gt;!d4 -->
<g id="edge12" class="edge">
<title>I4&#45;&gt;!d4</title>
<g id="a_edge12"><a xlink:title="e123">
<path fill="none" stroke="blue" d="M261.56,-62.91C257.89,-53.72 253.86,-43.65 250.59,-35.47"/>
<polygon fill="blue" stroke="blue" points="258.4,-64.43 265.36,-72.41 264.9,-61.83 258.4,-64.43"/>
</a>
</g>
</g>
<!-- I5&#45;&gt;PiL2 -->
<g id="edge29" class="edge">
<title>I5&#45;&gt;PiL2</title>
<g id="a_edge29"><a xlink:title="e98">
<path fill="none" stroke="blue" stroke-width="2" d="M208,-878.96C208,-870.35 208,-861.09 208,-853.4"/>
<polygon fill="blue" stroke="blue" stroke-width="2" points="204.5,-878.99 208,-888.99 211.5,-878.99 204.5,-878.99"/>
</a>
</g>
</g>
<!-- Cut0&#45;&gt;PiR0 -->
<g id="edge13" class="edge">
<title>Cut0&#45;&gt;PiR0</title>
<g id="a_edge13"><a xlink:title="e39">
<path fill="none" stroke="red" d="M246,-719.81C246,-711.45 246,-702.41 246,-694.21"/>
<polygon fill="red" stroke="red" points="249.5,-694.05 246,-684.05 242.5,-694.05 249.5,-694.05"/>
</a>
</g>
</g>
</g>
</svg>
