<?xml version="1.0" encoding="UTF-8" standalone="no"?>
<!DOCTYPE svg PUBLIC "-//W3C//DTD SVG 1.1//EN"
 "http://www.w3.org/Graphics/SVG/1.1/DTD/svg11.dtd">
<!-- Generated by graphviz version 2.43.0 (0)
 -->
<!-- Title: %3 Pages: 1 -->
<svg width="460pt" height="1293pt"
 viewBox="0.00 0.00 460.00 1293.30" xmlns="http://www.w3.org/2000/svg" xmlns:xlink="http://www.w3.org/1999/xlink">
<g id="graph0" class="graph" transform="scale(1 1) rotate(0) translate(4 1289.3)">
<title>%3</title>
<polygon fill="white" stroke="transparent" points="-4,4 -4,-1289.3 456,-1289.3 456,4 -4,4"/>
<!-- Root0 -->
<g id="node1" class="node">
<title>Root0</title>
<ellipse fill="none" stroke="black" cx="323" cy="-1267.3" rx="30.59" ry="18"/>
<text text-anchor="middle" x="323" y="-1263.6" font-family="Times-Roman" font-size="14.00">Root</text>
</g>
<!-- Dup0_1 -->
<g id="node19" class="node">
<title>Dup0_1</title>
<ellipse fill="none" stroke="black" cx="323" cy="-1195.3" rx="29.5" ry="18"/>
<text text-anchor="middle" x="323" y="-1191.6" font-family="Times-Roman" font-size="14.00">Dup</text>
</g>
<!-- Root0&#45;&gt;Dup0_1 -->
<g id="edge23" class="edge">
<title>Root0&#45;&gt;Dup0_1</title>
<g id="a_edge23"><a xlink:title="rettop">
<path fill="none" stroke="red" stroke-width="2" d="M323,-1248.99C323,-1240.68 323,-1230.57 323,-1221.44"/>
<ellipse fill="red" stroke="red" stroke-width="2" cx="323" cy="-1217.4" rx="4" ry="4"/>
</a>
</g>
</g>
<!-- PiL0 -->
<g id="node2" class="node">
<title>PiL0</title>
<ellipse fill="none" stroke="black" cx="185" cy="-1051.3" rx="27" ry="18"/>
<text text-anchor="middle" x="185" y="-1047.6" font-family="Times-Roman" font-size="14.00">PiL</text>
</g>
<!-- !d0 -->
<g id="node3" class="node">
<title>!d0</title>
<ellipse fill="none" stroke="black" cx="185" cy="-979.3" rx="27" ry="18"/>
<text text-anchor="middle" x="185" y="-975.6" font-family="Times-Roman" font-size="14.00">!d</text>
</g>
<!-- PiL0&#45;&gt;!d0 -->
<g id="edge30" class="edge">
<title>PiL0&#45;&gt;!d0</title>
<g id="a_edge30"><a xlink:title="yl1">
<path fill="none" stroke="blue" stroke-width="2" d="M185,-1022.96C185,-1014.35 185,-1005.09 185,-997.4"/>
<polygon fill="blue" stroke="blue" stroke-width="2" points="181.5,-1022.99 185,-1032.99 188.5,-1022.99 181.5,-1022.99"/>
</a>
</g>
</g>
<!-- !p0 -->
<g id="node4" class="node">
<title>!p0</title>
<ellipse fill="none" stroke="black" cx="98" cy="-979.3" rx="27" ry="18"/>
<text text-anchor="middle" x="98" y="-975.6" font-family="Times-Roman" font-size="14.00">!p</text>
</g>
<!-- PiL0&#45;&gt;!p0 -->
<g id="edge33" class="edge">
<title>PiL0&#45;&gt;!p0</title>
<g id="a_edge33"><a xlink:title="ylp">
<path fill="none" stroke="red" d="M168.23,-1036.8C155.35,-1026.44 137.37,-1011.97 122.82,-1000.27"/>
<polygon fill="red" stroke="red" points="124.71,-997.29 114.72,-993.75 120.32,-1002.75 124.71,-997.29"/>
</a>
</g>
</g>
<!-- Cut1 -->
<g id="node24" class="node">
<title>Cut1</title>
<ellipse fill="none" stroke="black" cx="185" cy="-894.65" rx="26.78" ry="26.78"/>
<ellipse fill="none" stroke="black" cx="185" cy="-894.65" rx="30.8" ry="30.8"/>
<text text-anchor="middle" x="185" y="-890.95" font-family="Times-Roman" font-size="14.00">Cut</text>
</g>
<!-- !d0&#45;&gt;Cut1 -->
<g id="edge26" class="edge">
<title>!d0&#45;&gt;Cut1</title>
<g id="a_edge26"><a xlink:title="y1">
<path fill="none" stroke="blue" stroke-width="2" d="M185,-951.01C185,-942.82 185,-933.8 185,-925.45"/>
<polygon fill="blue" stroke="blue" stroke-width="2" points="181.5,-951.17 185,-961.17 188.5,-951.17 181.5,-951.17"/>
</a>
</g>
</g>
<!-- I0 -->
<g id="node5" class="node">
<title>I0</title>
<ellipse fill="none" stroke="black" cx="27" cy="-894.65" rx="27" ry="18"/>
<text text-anchor="middle" x="27" y="-890.95" font-family="Times-Roman" font-size="14.00">I</text>
</g>
<!-- !p0&#45;&gt;I0 -->
<g id="edge32" class="edge">
<title>!p0&#45;&gt;I0</title>
<g id="a_edge32"><a xlink:title="yli">
<path fill="none" stroke="red" d="M84.98,-963.14C74.27,-950.67 58.92,-932.81 46.71,-918.59"/>
<polygon fill="red" stroke="red" points="49.11,-916.02 39.94,-910.71 43.8,-920.58 49.11,-916.02"/>
</a>
</g>
</g>
<!-- Cut2 -->
<g id="node25" class="node">
<title>Cut2</title>
<ellipse fill="none" stroke="black" cx="45" cy="-738" rx="27" ry="18"/>
<text text-anchor="middle" x="45" y="-734.3" font-family="Times-Roman" font-size="14.00">Cut</text>
</g>
<!-- !p0&#45;&gt;Cut2 -->
<g id="edge27" class="edge">
<title>!p0&#45;&gt;Cut2</title>
<g id="a_edge27"><a xlink:title="y2">
<path fill="none" stroke="blue" d="M99.97,-951.19C101.73,-914.07 101.52,-845.89 82,-792 76.88,-777.86 66.98,-764 58.71,-754.01"/>
<polygon fill="blue" stroke="blue" points="96.48,-951.05 99.41,-961.23 103.46,-951.44 96.48,-951.05"/>
</a>
</g>
</g>
<!-- !d1 -->
<g id="node6" class="node">
<title>!d1</title>
<ellipse fill="none" stroke="black" cx="46" cy="-810" rx="27" ry="18"/>
<text text-anchor="middle" x="46" y="-806.3" font-family="Times-Roman" font-size="14.00">!d</text>
</g>
<!-- I0&#45;&gt;!d1 -->
<g id="edge31" class="edge">
<title>I0&#45;&gt;!d1</title>
<g id="a_edge31"><a xlink:title="yl2">
<path fill="none" stroke="blue" d="M33.26,-866.42C36.19,-853.68 39.58,-838.91 42.13,-827.82"/>
<polygon fill="blue" stroke="blue" points="29.77,-865.99 30.94,-876.52 36.59,-867.56 29.77,-865.99"/>
</a>
</g>
</g>
<!-- !d1&#45;&gt;!p0 -->
<g id="edge28" class="edge">
<title>!d1&#45;&gt;!p0</title>
<g id="a_edge28"><a xlink:title="yj">
<path fill="none" stroke="blue" d="M54.56,-837.44C57.28,-845.92 60.29,-855.35 63,-864 73.8,-898.46 86.09,-938.87 92.85,-961.23"/>
<polygon fill="blue" stroke="blue" points="57.81,-836.14 51.42,-827.69 51.15,-838.28 57.81,-836.14"/>
</a>
</g>
</g>
<!-- I1 -->
<g id="node7" class="node">
<title>I1</title>
<ellipse fill="none" stroke="black" cx="130" cy="-666" rx="27" ry="18"/>
<text text-anchor="middle" x="130" y="-662.3" font-family="Times-Roman" font-size="14.00">I</text>
</g>
<!-- PiL1 -->
<g id="node8" class="node">
<title>PiL1</title>
<ellipse fill="none" stroke="black" cx="177" cy="-594" rx="27" ry="18"/>
<text text-anchor="middle" x="177" y="-590.3" font-family="Times-Roman" font-size="14.00">PiL</text>
</g>
<!-- I1&#45;&gt;PiL1 -->
<g id="edge14" class="edge">
<title>I1&#45;&gt;PiL1</title>
<g id="a_edge14"><a xlink:title="hl2">
<path fill="none" stroke="blue" d="M146.44,-640.51C153.06,-630.66 160.5,-619.58 166.38,-610.82"/>
<polygon fill="blue" stroke="blue" points="143.33,-638.86 140.67,-649.12 149.15,-642.76 143.33,-638.86"/>
</a>
</g>
</g>
<!-- !d2 -->
<g id="node9" class="node">
<title>!d2</title>
<ellipse fill="none" stroke="black" cx="177" cy="-522" rx="27" ry="18"/>
<text text-anchor="middle" x="177" y="-518.3" font-family="Times-Roman" font-size="14.00">!d</text>
</g>
<!-- PiL1&#45;&gt;!d2 -->
<g id="edge15" class="edge">
<title>PiL1&#45;&gt;!d2</title>
<g id="a_edge15"><a xlink:title="hl21">
<path fill="none" stroke="blue" d="M177,-565.67C177,-557.05 177,-547.79 177,-540.1"/>
<polygon fill="blue" stroke="blue" points="173.5,-565.7 177,-575.7 180.5,-565.7 173.5,-565.7"/>
</a>
</g>
</g>
<!-- !p1 -->
<g id="node10" class="node">
<title>!p1</title>
<ellipse fill="none" stroke="black" cx="249" cy="-522" rx="27" ry="18"/>
<text text-anchor="middle" x="249" y="-518.3" font-family="Times-Roman" font-size="14.00">!p</text>
</g>
<!-- PiL1&#45;&gt;!p1 -->
<g id="edge17" class="edge">
<title>PiL1&#45;&gt;!p1</title>
<g id="a_edge17"><a xlink:title="hl2p">
<path fill="none" stroke="red" d="M191.57,-578.83C201.75,-568.94 215.52,-555.55 227.03,-544.36"/>
<polygon fill="red" stroke="red" points="229.47,-546.87 234.2,-537.38 224.59,-541.85 229.47,-546.87"/>
</a>
</g>
</g>
<!-- Dup1_1 -->
<g id="node21" class="node">
<title>Dup1_1</title>
<ellipse fill="none" stroke="black" cx="132" cy="-450" rx="29.5" ry="18"/>
<text text-anchor="middle" x="132" y="-446.3" font-family="Times-Roman" font-size="14.00">Dup</text>
</g>
<!-- !d2&#45;&gt;Dup1_1 -->
<g id="edge13" class="edge">
<title>!d2&#45;&gt;Dup1_1</title>
<g id="a_edge13"><a xlink:title="hj">
<path fill="none" stroke="blue" d="M161.34,-496.64C155.1,-486.94 148.09,-476.03 142.48,-467.31"/>
<polygon fill="blue" stroke="blue" points="158.44,-498.6 166.79,-505.12 164.33,-494.81 158.44,-498.6"/>
</a>
</g>
</g>
<!-- PiR0 -->
<g id="node13" class="node">
<title>PiR0</title>
<ellipse fill="none" stroke="black" cx="359" cy="-450" rx="27" ry="18"/>
<text text-anchor="middle" x="359" y="-446.3" font-family="Times-Roman" font-size="14.00">PiR</text>
</g>
<!-- !p1&#45;&gt;PiR0 -->
<g id="edge16" class="edge">
<title>!p1&#45;&gt;PiR0</title>
<g id="a_edge16"><a xlink:title="hl2i">
<path fill="none" stroke="red" d="M268.16,-508.81C285.67,-497.67 311.76,-481.06 331.49,-468.5"/>
<polygon fill="red" stroke="red" points="333.5,-471.37 340.06,-463.05 329.74,-465.47 333.5,-471.37"/>
</a>
</g>
</g>
<!-- I2 -->
<g id="node11" class="node">
<title>I2</title>
<ellipse fill="none" stroke="black" cx="397" cy="-378" rx="27" ry="18"/>
<text text-anchor="middle" x="397" y="-374.3" font-family="Times-Roman" font-size="14.00">I</text>
</g>
<!-- !d3 -->
<g id="node12" class="node">
<title>!d3</title>
<ellipse fill="none" stroke="black" cx="387" cy="-306" rx="27" ry="18"/>
<text text-anchor="middle" x="387" y="-302.3" font-family="Times-Roman" font-size="14.00">!d</text>
</g>
<!-- I2&#45;&gt;!d3 -->
<g id="edge21" class="edge">
<title>I2&#45;&gt;!d3</title>
<g id="a_edge21"><a xlink:title="il">
<path fill="none" stroke="blue" d="M393.14,-350.01C391.91,-341.36 390.58,-332.03 389.47,-324.28"/>
<polygon fill="blue" stroke="blue" points="389.7,-350.65 394.58,-360.05 396.63,-349.66 389.7,-350.65"/>
</a>
</g>
</g>
<!-- !d3&#45;&gt;PiR0 -->
<g id="edge20" class="edge">
<title>!d3&#45;&gt;PiR0</title>
<g id="a_edge20"><a xlink:title="i">
<path fill="none" stroke="blue" d="M371.95,-332.05C367.56,-340.62 363.33,-350.45 361,-360 355.03,-384.47 355.85,-413.86 357.24,-431.99"/>
<polygon fill="blue" stroke="blue" points="375.16,-333.46 376.87,-323.01 369.01,-330.12 375.16,-333.46"/>
</a>
</g>
</g>
<!-- PiR0&#45;&gt;I2 -->
<g id="edge22" class="edge">
<title>PiR0&#45;&gt;I2</title>
<g id="a_edge22"><a xlink:title="ir">
<path fill="none" stroke="red" d="M367.81,-432.76C372.42,-424.28 378.16,-413.71 383.32,-404.2"/>
<polygon fill="red" stroke="red" points="386.54,-405.61 388.23,-395.15 380.39,-402.27 386.54,-405.61"/>
</a>
</g>
</g>
<!-- I3 -->
<g id="node14" class="node">
<title>I3</title>
<ellipse fill="none" stroke="black" cx="296" cy="-1123.3" rx="27" ry="18"/>
<text text-anchor="middle" x="296" y="-1119.6" font-family="Times-Roman" font-size="14.00">I</text>
</g>
<!-- I3&#45;&gt;PiL0 -->
<g id="edge29" class="edge">
<title>I3&#45;&gt;PiL0</title>
<g id="a_edge29"><a xlink:title="yl">
<path fill="none" stroke="blue" stroke-width="2" d="M268.25,-1104.8C248.29,-1092.21 221.88,-1075.55 204.2,-1064.41"/>
<polygon fill="blue" stroke="blue" stroke-width="2" points="266.59,-1107.89 276.92,-1110.26 270.33,-1101.97 266.59,-1107.89"/>
</a>
</g>
</g>
<!-- !p2 -->
<g id="node15" class="node">
<title>!p2</title>
<ellipse fill="none" stroke="black" cx="332" cy="-90" rx="27" ry="18"/>
<text text-anchor="middle" x="332" y="-86.3" font-family="Times-Roman" font-size="14.00">!p</text>
</g>
<!-- PiR1 -->
<g id="node16" class="node">
<title>PiR1</title>
<ellipse fill="none" stroke="black" cx="387" cy="-18" rx="27" ry="18"/>
<text text-anchor="middle" x="387" y="-14.3" font-family="Times-Roman" font-size="14.00">PiR</text>
</g>
<!-- !p2&#45;&gt;PiR1 -->
<g id="edge24" class="edge">
<title>!p2&#45;&gt;PiR1</title>
<g id="a_edge24"><a xlink:title="xli">
<path fill="none" stroke="red" d="M343.93,-73.81C351.21,-64.55 360.66,-52.52 368.85,-42.09"/>
<polygon fill="red" stroke="red" points="371.66,-44.18 375.09,-34.16 366.16,-39.86 371.66,-44.18"/>
</a>
</g>
</g>
<!-- PiR1&#45;&gt;Dup0_1 -->
<g id="edge9" class="edge">
<title>PiR1&#45;&gt;Dup0_1</title>
<g id="a_edge9"><a xlink:title="e7">
<path fill="none" stroke="red" d="M399.23,-34.13C418.05,-59.02 452,-110.84 452,-161 452,-1052.3 452,-1052.3 452,-1052.3 452,-1111.31 390.2,-1156.66 352.15,-1178.99"/>
<ellipse fill="none" stroke="red" cx="348.36" cy="-1181.16" rx="4" ry="4"/>
</a>
</g>
</g>
<!-- Cut0 -->
<g id="node17" class="node">
<title>Cut0</title>
<ellipse fill="none" stroke="black" cx="332" cy="-162" rx="27" ry="18"/>
<text text-anchor="middle" x="332" y="-158.3" font-family="Times-Roman" font-size="14.00">Cut</text>
</g>
<!-- Cut0&#45;&gt;!p2 -->
<g id="edge25" class="edge">
<title>Cut0&#45;&gt;!p2</title>
<g id="a_edge25"><a xlink:title="xlp">
<path fill="none" stroke="red" d="M332,-143.7C332,-135.98 332,-126.71 332,-118.11"/>
<polygon fill="red" stroke="red" points="335.5,-118.1 332,-108.1 328.5,-118.1 335.5,-118.1"/>
</a>
</g>
</g>
<!-- Dup0_0 -->
<g id="node18" class="node">
<title>Dup0_0</title>
<ellipse fill="none" stroke="black" cx="332" cy="-234" rx="29.5" ry="18"/>
<text text-anchor="middle" x="332" y="-230.3" font-family="Times-Roman" font-size="14.00">Dup</text>
</g>
<!-- Dup0_0&#45;&gt;PiR1 -->
<g id="edge8" class="edge">
<title>Dup0_0&#45;&gt;PiR1</title>
<g id="a_edge8"><a xlink:title="e5">
<path fill="none" stroke="blue" d="M350.2,-211.31C356.9,-202.19 363.85,-191.13 368,-180 386.59,-130.16 388.09,-66.16 387.6,-36.07"/>
<ellipse fill="none" stroke="blue" cx="347.62" cy="-214.7" rx="4" ry="4"/>
</a>
</g>
</g>
<!-- Dup0_0&#45;&gt;Cut0 -->
<g id="edge7" class="edge">
<title>Dup0_0&#45;&gt;Cut0</title>
<g id="a_edge7"><a xlink:title="e4">
<path fill="none" stroke="blue" d="M332,-207.64C332,-198.49 332,-188.38 332,-180.1"/>
<ellipse fill="blue" stroke="blue" cx="332" cy="-211.7" rx="4" ry="4"/>
</a>
</g>
</g>
<!-- Dup0_1&#45;&gt;I3 -->
<g id="edge19" class="edge">
<title>Dup0_1&#45;&gt;I3</title>
<g id="a_edge19"><a xlink:title="hr">
<path fill="none" stroke="red" stroke-width="2" d="M316.6,-1177.71C313.49,-1169.63 309.67,-1159.73 306.17,-1150.65"/>
<polygon fill="red" stroke="red" stroke-width="2" points="309.4,-1149.32 302.54,-1141.25 302.87,-1151.84 309.4,-1149.32"/>
</a>
</g>
</g>
<!-- Dup1_0 -->
<g id="node20" class="node">
<title>Dup1_0</title>
<ellipse fill="none" stroke="black" cx="128" cy="-738" rx="29.5" ry="18"/>
<text text-anchor="middle" x="128" y="-734.3" font-family="Times-Roman" font-size="14.00">Dup</text>
</g>
<!-- Dup1_0&#45;&gt;I1 -->
<g id="edge18" class="edge">
<title>Dup1_0&#45;&gt;I1</title>
<g id="a_edge18"><a xlink:title="hli">
<path fill="none" stroke="red" d="M128.49,-719.7C128.71,-711.98 128.98,-702.71 129.23,-694.11"/>
<polygon fill="red" stroke="red" points="132.72,-694.2 129.51,-684.1 125.73,-694 132.72,-694.2"/>
</a>
</g>
</g>
<!-- !p3 -->
<g id="node22" class="node">
<title>!p3</title>
<ellipse fill="none" stroke="black" cx="185" cy="-810" rx="27" ry="18"/>
<text text-anchor="middle" x="185" y="-806.3" font-family="Times-Roman" font-size="14.00">!p</text>
</g>
<!-- Dup1_1&#45;&gt;!p3 -->
<g id="edge3" class="edge">
<title>Dup1_1&#45;&gt;!p3</title>
<g id="a_edge3"><a xlink:title="e12">
<path fill="none" stroke="blue" d="M129.28,-476.08C126.68,-508.45 125.2,-566.07 141,-612 147.34,-630.42 159.1,-629.78 166,-648 184.85,-697.74 186.22,-761.79 185.65,-791.91"/>
<ellipse fill="blue" stroke="blue" cx="129.64" cy="-472.01" rx="4" ry="4"/>
</a>
</g>
</g>
<!-- !p4 -->
<g id="node23" class="node">
<title>!p4</title>
<ellipse fill="none" stroke="black" cx="104" cy="-378" rx="27" ry="18"/>
<text text-anchor="middle" x="104" y="-374.3" font-family="Times-Roman" font-size="14.00">!p</text>
</g>
<!-- Dup1_1&#45;&gt;!p4 -->
<g id="edge4" class="edge">
<title>Dup1_1&#45;&gt;!p4</title>
<g id="a_edge4"><a xlink:title="e13">
<path fill="none" stroke="blue" d="M122.38,-424.95C118.49,-415.23 114.1,-404.26 110.59,-395.47"/>
<ellipse fill="none" stroke="blue" cx="123.88" cy="-428.7" rx="4" ry="4"/>
</a>
</g>
</g>
<!-- !p3&#45;&gt;Dup1_0 -->
<g id="edge1" class="edge">
<title>!p3&#45;&gt;Dup1_0</title>
<g id="a_edge1"><a xlink:title="e10">
<path fill="none" stroke="red" d="M172.63,-793.81C164.82,-784.22 154.6,-771.67 145.92,-761"/>
<ellipse fill="red" stroke="red" cx="143.26" cy="-757.75" rx="4" ry="4"/>
</a>
</g>
</g>
<!-- !c0 -->
<g id="node26" class="node">
<title>!c0</title>
<ellipse fill="none" stroke="black" cx="304" cy="-306" rx="27" ry="18"/>
<text text-anchor="middle" x="304" y="-302.3" font-family="Times-Roman" font-size="14.00">!c</text>
</g>
<!-- !p3&#45;&gt;!c0 -->
<g id="edge5" class="edge">
<title>!p3&#45;&gt;!c0</title>
<g id="a_edge5"><a xlink:title="e14">
<path fill="none" stroke="blue" d="M213.39,-792.13C248.58,-768.82 304,-723.19 304,-667 304,-667 304,-667 304,-449 304,-403.89 304,-350.71 304,-324.05"/>
<polygon fill="blue" stroke="blue" points="211.44,-789.22 204.92,-797.57 215.22,-795.11 211.44,-789.22"/>
</a>
</g>
</g>
<!-- !p4&#45;&gt;Dup1_0 -->
<g id="edge2" class="edge">
<title>!p4&#45;&gt;Dup1_0</title>
<g id="a_edge2"><a xlink:title="e11">
<path fill="none" stroke="red" d="M98.27,-395.82C89.82,-422.18 75,-474.95 75,-521 75,-595 75,-595 75,-595 75,-635.45 78.61,-646.6 94,-684 98.38,-694.63 104.9,-705.48 111.06,-714.56"/>
<ellipse fill="none" stroke="red" cx="113.37" cy="-717.86" rx="4" ry="4"/>
</a>
</g>
</g>
<!-- !p4&#45;&gt;!c0 -->
<g id="edge6" class="edge">
<title>!p4&#45;&gt;!c0</title>
<g id="a_edge6"><a xlink:title="e15">
<path fill="none" stroke="blue" d="M137,-365.45C177.44,-351.29 244.98,-327.66 280.51,-315.22"/>
<polygon fill="blue" stroke="blue" points="135.62,-362.23 127.33,-368.83 137.93,-368.83 135.62,-362.23"/>
</a>
</g>
</g>
<!-- Cut1&#45;&gt;!p3 -->
<g id="edge10" class="edge">
<title>Cut1&#45;&gt;!p3</title>
<g id="a_edge10"><a xlink:title="e8">
<path fill="none" stroke="red" d="M185,-863.81C185,-855.45 185,-846.41 185,-838.21"/>
<polygon fill="red" stroke="red" points="188.5,-838.05 185,-828.05 181.5,-838.05 188.5,-838.05"/>
</a>
</g>
</g>
<!-- Cut2&#45;&gt;!p4 -->
<g id="edge11" class="edge">
<title>Cut2&#45;&gt;!p4</title>
<g id="a_edge11"><a xlink:title="e9">
<path fill="none" stroke="red" d="M43.42,-719.97C41.09,-693.33 37,-640.19 37,-595 37,-595 37,-595 37,-521 37,-475.5 65.49,-428.96 85.31,-402.08"/>
<polygon fill="red" stroke="red" points="88.13,-404.15 91.4,-394.07 82.56,-399.92 88.13,-404.15"/>
</a>
</g>
</g>
<!-- !c0&#45;&gt;Dup0_0 -->
<g id="edge12" class="edge">
<title>!c0&#45;&gt;Dup0_0</title>
<g id="a_edge12"><a xlink:title="h">
<path fill="none" stroke="blue" d="M314.38,-279.06C318,-270.01 321.97,-260.09 325.22,-251.96"/>
<polygon fill="blue" stroke="blue" points="311.1,-277.83 310.64,-288.41 317.6,-280.43 311.1,-277.83"/>
</a>
</g>
</g>
</g>
</svg>
