<?xml version="1.0" encoding="UTF-8" standalone="no"?>
<!DOCTYPE svg PUBLIC "-//W3C//DTD SVG 1.1//EN"
 "http://www.w3.org/Graphics/SVG/1.1/DTD/svg11.dtd">
<!-- Generated by graphviz version 2.43.0 (0)
 -->
<!-- Title: %3 Pages: 1 -->
<svg width="503pt" height="1730pt"
 viewBox="0.00 0.00 503.25 1730.49" xmlns="http://www.w3.org/2000/svg" xmlns:xlink="http://www.w3.org/1999/xlink">
<g id="graph0" class="graph" transform="scale(1 1) rotate(0) translate(4 1726.49)">
<title>%3</title>
<polygon fill="white" stroke="transparent" points="-4,4 -4,-1726.49 499.25,-1726.49 499.25,4 -4,4"/>
<!-- Root0 -->
<g id="node1" class="node">
<title>Root0</title>
<ellipse fill="none" stroke="black" cx="314" cy="-1704.49" rx="30.59" ry="18"/>
<text text-anchor="middle" x="314" y="-1700.79" font-family="Times-Roman" font-size="14.00">Root</text>
</g>
<!-- I2 -->
<g id="node10" class="node">
<title>I2</title>
<ellipse fill="none" stroke="black" cx="314" cy="-1632.49" rx="27" ry="18"/>
<text text-anchor="middle" x="314" y="-1628.79" font-family="Times-Roman" font-size="14.00">I</text>
</g>
<!-- Root0&#45;&gt;I2 -->
<g id="edge47" class="edge">
<title>Root0&#45;&gt;I2</title>
<g id="a_edge47"><a xlink:title="rettop">
<path fill="none" stroke="red" stroke-width="2" d="M314,-1686.19C314,-1678.48 314,-1669.21 314,-1660.61"/>
<polygon fill="red" stroke="red" stroke-width="2" points="317.5,-1660.6 314,-1650.6 310.5,-1660.6 317.5,-1660.6"/>
</a>
</g>
</g>
<!-- !p0 -->
<g id="node2" class="node">
<title>!p0</title>
<ellipse fill="none" stroke="black" cx="295" cy="-1272.49" rx="27" ry="18"/>
<text text-anchor="middle" x="295" y="-1268.79" font-family="Times-Roman" font-size="14.00">!p</text>
</g>
<!-- I0 -->
<g id="node3" class="node">
<title>I0</title>
<ellipse fill="none" stroke="black" cx="350" cy="-1200.49" rx="27" ry="18"/>
<text text-anchor="middle" x="350" y="-1196.79" font-family="Times-Roman" font-size="14.00">I</text>
</g>
<!-- !p0&#45;&gt;I0 -->
<g id="edge51" class="edge">
<title>!p0&#45;&gt;I0</title>
<g id="a_edge51"><a xlink:title="yli">
<path fill="none" stroke="red" d="M306.93,-1256.31C314.21,-1247.04 323.66,-1235.02 331.85,-1224.59"/>
<polygon fill="red" stroke="red" points="334.66,-1226.68 338.09,-1216.65 329.16,-1222.35 334.66,-1226.68"/>
</a>
</g>
</g>
<!-- Cut0 -->
<g id="node6" class="node">
<title>Cut0</title>
<ellipse fill="none" stroke="black" cx="240" cy="-1200.49" rx="27" ry="18"/>
<text text-anchor="middle" x="240" y="-1196.79" font-family="Times-Roman" font-size="14.00">Cut</text>
</g>
<!-- !p0&#45;&gt;Cut0 -->
<g id="edge48" class="edge">
<title>!p0&#45;&gt;Cut0</title>
<g id="a_edge48"><a xlink:title="y2">
<path fill="none" stroke="blue" d="M276.83,-1248.37C268.63,-1237.94 259.19,-1225.91 251.91,-1216.65"/>
<polygon fill="blue" stroke="blue" points="274.14,-1250.61 283.07,-1256.31 279.64,-1246.28 274.14,-1250.61"/>
</a>
</g>
</g>
<!-- !d0 -->
<g id="node4" class="node">
<title>!d0</title>
<ellipse fill="none" stroke="black" cx="331" cy="-1128.49" rx="27" ry="18"/>
<text text-anchor="middle" x="331" y="-1124.79" font-family="Times-Roman" font-size="14.00">!d</text>
</g>
<!-- I0&#45;&gt;!d0 -->
<g id="edge50" class="edge">
<title>I0&#45;&gt;!d0</title>
<g id="a_edge50"><a xlink:title="yl2">
<path fill="none" stroke="blue" d="M342.71,-1172.63C340.3,-1163.77 337.7,-1154.17 335.56,-1146.28"/>
<polygon fill="blue" stroke="blue" points="339.4,-1173.82 345.4,-1182.55 346.16,-1171.98 339.4,-1173.82"/>
</a>
</g>
</g>
<!-- !d0&#45;&gt;!p0 -->
<g id="edge49" class="edge">
<title>!d0&#45;&gt;!p0</title>
<g id="a_edge49"><a xlink:title="yj">
<path fill="none" stroke="blue" d="M321.99,-1155.8C319.24,-1164.27 316.33,-1173.73 314,-1182.49 307.41,-1207.23 301.55,-1236.3 298.14,-1254.31"/>
<polygon fill="blue" stroke="blue" points="325.39,-1156.67 325.21,-1146.08 318.74,-1154.47 325.39,-1156.67"/>
</a>
</g>
</g>
<!-- !p1 -->
<g id="node5" class="node">
<title>!p1</title>
<ellipse fill="none" stroke="black" cx="240" cy="-1128.49" rx="27" ry="18"/>
<text text-anchor="middle" x="240" y="-1124.79" font-family="Times-Roman" font-size="14.00">!p</text>
</g>
<!-- I1 -->
<g id="node9" class="node">
<title>I1</title>
<ellipse fill="none" stroke="black" cx="185" cy="-1056.49" rx="27" ry="18"/>
<text text-anchor="middle" x="185" y="-1052.79" font-family="Times-Roman" font-size="14.00">I</text>
</g>
<!-- !p1&#45;&gt;I1 -->
<g id="edge1" class="edge">
<title>!p1&#45;&gt;I1</title>
<g id="a_edge1"><a xlink:title="e11">
<path fill="none" stroke="red" d="M228.07,-1112.31C220.79,-1103.04 211.34,-1091.02 203.15,-1080.59"/>
<polygon fill="red" stroke="red" points="205.84,-1078.35 196.91,-1072.65 200.34,-1082.68 205.84,-1078.35"/>
</a>
</g>
</g>
<!-- Dup3_0 -->
<g id="node41" class="node">
<title>Dup3_0</title>
<ellipse fill="none" stroke="black" cx="301" cy="-1056.49" rx="29.5" ry="18"/>
<text text-anchor="middle" x="301" y="-1052.79" font-family="Times-Roman" font-size="14.00">Dup</text>
</g>
<!-- !p1&#45;&gt;Dup3_0 -->
<g id="edge3" class="edge">
<title>!p1&#45;&gt;Dup3_0</title>
<g id="a_edge3"><a xlink:title="e15">
<path fill="none" stroke="blue" d="M259.59,-1105.02C268.76,-1094.5 279.44,-1082.24 287.66,-1072.8"/>
<polygon fill="blue" stroke="blue" points="256.87,-1102.81 252.94,-1112.65 262.15,-1107.41 256.87,-1102.81"/>
</a>
</g>
</g>
<!-- Cut0&#45;&gt;!p1 -->
<g id="edge46" class="edge">
<title>Cut0&#45;&gt;!p1</title>
<g id="a_edge46"><a xlink:title="e9">
<path fill="none" stroke="red" d="M240,-1182.19C240,-1174.48 240,-1165.21 240,-1156.61"/>
<polygon fill="red" stroke="red" points="243.5,-1156.6 240,-1146.6 236.5,-1156.6 243.5,-1156.6"/>
</a>
</g>
</g>
<!-- !d1 -->
<g id="node7" class="node">
<title>!d1</title>
<ellipse fill="none" stroke="black" cx="236" cy="-912.49" rx="27" ry="18"/>
<text text-anchor="middle" x="236" y="-908.79" font-family="Times-Roman" font-size="14.00">!d</text>
</g>
<!-- !d1&#45;&gt;!p1 -->
<g id="edge2" class="edge">
<title>!d1&#45;&gt;!p1</title>
<g id="a_edge2"><a xlink:title="e13">
<path fill="none" stroke="blue" d="M236.51,-940.88C237.35,-985.68 238.99,-1073.33 239.68,-1110.34"/>
<polygon fill="blue" stroke="blue" points="240.01,-940.66 236.32,-930.73 233.01,-940.79 240.01,-940.66"/>
</a>
</g>
</g>
<!-- PiL0 -->
<g id="node8" class="node">
<title>PiL0</title>
<ellipse fill="none" stroke="black" cx="185" cy="-984.49" rx="27" ry="18"/>
<text text-anchor="middle" x="185" y="-980.79" font-family="Times-Roman" font-size="14.00">PiL</text>
</g>
<!-- PiL0&#45;&gt;!d1 -->
<g id="edge4" class="edge">
<title>PiL0&#45;&gt;!d1</title>
<g id="a_edge4"><a xlink:title="e17">
<path fill="none" stroke="blue" d="M202.24,-959.83C209.65,-949.65 218.12,-938.04 224.71,-928.99"/>
<polygon fill="blue" stroke="blue" points="199.38,-957.82 196.32,-967.96 205.04,-961.94 199.38,-957.82"/>
</a>
</g>
</g>
<!-- !p3 -->
<g id="node24" class="node">
<title>!p3</title>
<ellipse fill="none" stroke="black" cx="164" cy="-912.49" rx="27" ry="18"/>
<text text-anchor="middle" x="164" y="-908.79" font-family="Times-Roman" font-size="14.00">!p</text>
</g>
<!-- PiL0&#45;&gt;!p3 -->
<g id="edge6" class="edge">
<title>PiL0&#45;&gt;!p3</title>
<g id="a_edge6"><a xlink:title="e21">
<path fill="none" stroke="red" d="M179.92,-966.55C177.52,-958.55 174.6,-948.83 171.92,-939.89"/>
<polygon fill="red" stroke="red" points="175.26,-938.86 169.04,-930.28 168.56,-940.87 175.26,-938.86"/>
</a>
</g>
</g>
<!-- I1&#45;&gt;PiL0 -->
<g id="edge5" class="edge">
<title>I1&#45;&gt;PiL0</title>
<g id="a_edge5"><a xlink:title="e19">
<path fill="none" stroke="blue" d="M185,-1028.16C185,-1019.55 185,-1010.29 185,-1002.6"/>
<polygon fill="blue" stroke="blue" points="181.5,-1028.19 185,-1038.19 188.5,-1028.19 181.5,-1028.19"/>
</a>
</g>
</g>
<!-- PiL4 -->
<g id="node23" class="node">
<title>PiL4</title>
<ellipse fill="none" stroke="black" cx="314" cy="-1560.49" rx="27" ry="18"/>
<text text-anchor="middle" x="314" y="-1556.79" font-family="Times-Roman" font-size="14.00">PiL</text>
</g>
<!-- I2&#45;&gt;PiL4 -->
<g id="edge10" class="edge">
<title>I2&#45;&gt;PiL4</title>
<g id="a_edge10"><a xlink:title="e32">
<path fill="none" stroke="blue" stroke-width="2" d="M314,-1604.16C314,-1595.55 314,-1586.29 314,-1578.6"/>
<polygon fill="blue" stroke="blue" stroke-width="2" points="310.5,-1604.19 314,-1614.19 317.5,-1604.19 310.5,-1604.19"/>
</a>
</g>
</g>
<!-- !p2 -->
<g id="node11" class="node">
<title>!p2</title>
<ellipse fill="none" stroke="black" cx="308" cy="-912.49" rx="27" ry="18"/>
<text text-anchor="middle" x="308" y="-908.79" font-family="Times-Roman" font-size="14.00">!p</text>
</g>
<!-- PiR0 -->
<g id="node13" class="node">
<title>PiR0</title>
<ellipse fill="none" stroke="black" cx="308" cy="-840.49" rx="27" ry="18"/>
<text text-anchor="middle" x="308" y="-836.79" font-family="Times-Roman" font-size="14.00">PiR</text>
</g>
<!-- !p2&#45;&gt;PiR0 -->
<g id="edge14" class="edge">
<title>!p2&#45;&gt;PiR0</title>
<g id="a_edge14"><a xlink:title="e39">
<path fill="none" stroke="red" d="M308,-894.19C308,-886.48 308,-877.21 308,-868.61"/>
<polygon fill="red" stroke="red" points="311.5,-868.6 308,-858.6 304.5,-868.6 311.5,-868.6"/>
</a>
</g>
</g>
<!-- Cut1 -->
<g id="node12" class="node">
<title>Cut1</title>
<ellipse fill="none" stroke="black" cx="301" cy="-984.49" rx="27" ry="18"/>
<text text-anchor="middle" x="301" y="-980.79" font-family="Times-Roman" font-size="14.00">Cut</text>
</g>
<!-- Cut1&#45;&gt;!p2 -->
<g id="edge13" class="edge">
<title>Cut1&#45;&gt;!p2</title>
<g id="a_edge13"><a xlink:title="e37">
<path fill="none" stroke="red" d="M302.73,-966.19C303.5,-958.48 304.43,-949.21 305.29,-940.61"/>
<polygon fill="red" stroke="red" points="308.78,-940.9 306.29,-930.6 301.81,-940.2 308.78,-940.9"/>
</a>
</g>
</g>
<!-- I3 -->
<g id="node19" class="node">
<title>I3</title>
<ellipse fill="none" stroke="black" cx="256" cy="-768.49" rx="27" ry="18"/>
<text text-anchor="middle" x="256" y="-764.79" font-family="Times-Roman" font-size="14.00">I</text>
</g>
<!-- PiR0&#45;&gt;I3 -->
<g id="edge16" class="edge">
<title>PiR0&#45;&gt;I3</title>
<g id="a_edge16"><a xlink:title="e43">
<path fill="none" stroke="red" d="M296.46,-823.96C289.73,-814.9 281.1,-803.28 273.54,-793.11"/>
<polygon fill="red" stroke="red" points="276.28,-790.93 267.51,-784.99 270.66,-795.1 276.28,-790.93"/>
</a>
</g>
</g>
<!-- !c0 -->
<g id="node14" class="node">
<title>!c0</title>
<ellipse fill="none" stroke="black" cx="325" cy="-465.25" rx="27" ry="18"/>
<text text-anchor="middle" x="325" y="-461.55" font-family="Times-Roman" font-size="14.00">!c</text>
</g>
<!-- !c0&#45;&gt;PiR0 -->
<g id="edge15" class="edge">
<title>!c0&#45;&gt;PiR0</title>
<g id="a_edge15"><a xlink:title="e41">
<path fill="none" stroke="blue" d="M325,-493.87C325,-525.27 325,-578.07 325,-623.49 325,-697.49 325,-697.49 325,-697.49 325,-742.93 316.31,-795.97 311.36,-822.52"/>
<polygon fill="blue" stroke="blue" points="328.5,-493.7 325,-483.7 321.5,-493.7 328.5,-493.7"/>
</a>
</g>
</g>
<!-- !d2 -->
<g id="node15" class="node">
<title>!d2</title>
<ellipse fill="none" stroke="black" cx="270" cy="-552.49" rx="27" ry="18"/>
<text text-anchor="middle" x="270" y="-548.79" font-family="Times-Roman" font-size="14.00">!d</text>
</g>
<!-- !d2&#45;&gt;!c0 -->
<g id="edge18" class="edge">
<title>!d2&#45;&gt;!c0</title>
<g id="a_edge18"><a xlink:title="e46">
<path fill="none" stroke="blue" d="M285.8,-527.01C295.09,-512.61 306.57,-494.81 314.7,-482.21"/>
<polygon fill="blue" stroke="blue" points="282.83,-525.16 280.35,-535.46 288.71,-528.96 282.83,-525.16"/>
</a>
</g>
</g>
<!-- PiL1 -->
<g id="node16" class="node">
<title>PiL1</title>
<ellipse fill="none" stroke="black" cx="242" cy="-624.49" rx="27" ry="18"/>
<text text-anchor="middle" x="242" y="-620.79" font-family="Times-Roman" font-size="14.00">PiL</text>
</g>
<!-- PiL1&#45;&gt;!d2 -->
<g id="edge20" class="edge">
<title>PiL1&#45;&gt;!d2</title>
<g id="a_edge20"><a xlink:title="e49">
<path fill="none" stroke="blue" d="M252.44,-597.41C256.11,-588.21 260.14,-578.14 263.41,-569.96"/>
<polygon fill="blue" stroke="blue" points="249.1,-596.32 248.64,-606.91 255.6,-598.92 249.1,-596.32"/>
</a>
</g>
</g>
<!-- Dup0_1 -->
<g id="node21" class="node">
<title>Dup0_1</title>
<ellipse fill="none" stroke="black" cx="242" cy="-306" rx="29.5" ry="18"/>
<text text-anchor="middle" x="242" y="-302.3" font-family="Times-Roman" font-size="14.00">Dup</text>
</g>
<!-- PiL1&#45;&gt;Dup0_1 -->
<g id="edge24" class="edge">
<title>PiL1&#45;&gt;Dup0_1</title>
<g id="a_edge24"><a xlink:title="e53">
<path fill="none" stroke="red" d="M238.75,-606.38C236.95,-596.04 234.91,-582.56 234,-570.49 227.44,-483.06 235.18,-378.93 239.49,-332.05"/>
<ellipse fill="none" stroke="red" cx="239.87" cy="-327.96" rx="4" ry="4"/>
</a>
</g>
</g>
<!-- PiL2 -->
<g id="node17" class="node">
<title>PiL2</title>
<ellipse fill="none" stroke="black" cx="287" cy="-1488.49" rx="27" ry="18"/>
<text text-anchor="middle" x="287" y="-1484.79" font-family="Times-Roman" font-size="14.00">PiL</text>
</g>
<!-- Dup0_2 -->
<g id="node22" class="node">
<title>Dup0_2</title>
<ellipse fill="none" stroke="black" cx="247" cy="-1416.49" rx="29.5" ry="18"/>
<text text-anchor="middle" x="247" y="-1412.79" font-family="Times-Roman" font-size="14.00">Dup</text>
</g>
<!-- PiL2&#45;&gt;Dup0_2 -->
<g id="edge27" class="edge">
<title>PiL2&#45;&gt;Dup0_2</title>
<g id="a_edge27"><a xlink:title="e56">
<path fill="none" stroke="red" d="M277.72,-1471.26C272.52,-1462.16 265.95,-1450.66 260.22,-1440.63"/>
<ellipse fill="red" stroke="red" cx="258.21" cy="-1437.12" rx="4" ry="4"/>
</a>
</g>
</g>
<!-- Cut4 -->
<g id="node34" class="node">
<title>Cut4</title>
<ellipse fill="none" stroke="black" cx="421" cy="-1344.49" rx="27" ry="18"/>
<text text-anchor="middle" x="421" y="-1340.79" font-family="Times-Roman" font-size="14.00">Cut</text>
</g>
<!-- PiL2&#45;&gt;Cut4 -->
<g id="edge21" class="edge">
<title>PiL2&#45;&gt;Cut4</title>
<g id="a_edge21"><a xlink:title="e50">
<path fill="none" stroke="blue" stroke-width="2" d="M307.71,-1465.55C335.3,-1436.31 383.38,-1385.36 407.04,-1360.29"/>
<polygon fill="blue" stroke="blue" stroke-width="2" points="305.15,-1463.16 300.84,-1472.83 310.24,-1467.96 305.15,-1463.16"/>
</a>
</g>
</g>
<!-- PiL3 -->
<g id="node18" class="node">
<title>PiL3</title>
<ellipse fill="none" stroke="black" cx="242" cy="-696.49" rx="27" ry="18"/>
<text text-anchor="middle" x="242" y="-692.79" font-family="Times-Roman" font-size="14.00">PiL</text>
</g>
<!-- PiL3&#45;&gt;PiL1 -->
<g id="edge22" class="edge">
<title>PiL3&#45;&gt;PiL1</title>
<g id="a_edge22"><a xlink:title="e51">
<path fill="none" stroke="blue" d="M242,-668.16C242,-659.55 242,-650.29 242,-642.6"/>
<polygon fill="blue" stroke="blue" points="238.5,-668.19 242,-678.19 245.5,-668.19 238.5,-668.19"/>
</a>
</g>
</g>
<!-- PiL3&#45;&gt;Dup0_2 -->
<g id="edge28" class="edge">
<title>PiL3&#45;&gt;Dup0_2</title>
<g id="a_edge28"><a xlink:title="e57">
<path fill="none" stroke="red" d="M220.63,-707.83C183.04,-727.69 109,-774.98 109,-839.49 109,-1273.49 109,-1273.49 109,-1273.49 109,-1334.98 176.37,-1379.87 216.97,-1401.34"/>
<ellipse fill="none" stroke="red" cx="220.66" cy="-1403.24" rx="4" ry="4"/>
</a>
</g>
</g>
<!-- I3&#45;&gt;PiL3 -->
<g id="edge26" class="edge">
<title>I3&#45;&gt;PiL3</title>
<g id="a_edge26"><a xlink:title="e55">
<path fill="none" stroke="blue" d="M250.6,-740.5C248.87,-731.86 247.01,-722.52 245.46,-714.77"/>
<polygon fill="blue" stroke="blue" points="247.22,-741.43 252.61,-750.55 254.08,-740.06 247.22,-741.43"/>
</a>
</g>
</g>
<!-- Dup0_0 -->
<g id="node20" class="node">
<title>Dup0_0</title>
<ellipse fill="none" stroke="black" cx="375" cy="-984.49" rx="29.5" ry="18"/>
<text text-anchor="middle" x="375" y="-980.79" font-family="Times-Roman" font-size="14.00">Dup</text>
</g>
<!-- Dup0_0&#45;&gt;!c0 -->
<g id="edge19" class="edge">
<title>Dup0_0&#45;&gt;!c0</title>
<g id="a_edge19"><a xlink:title="e47">
<path fill="none" stroke="blue" d="M371.58,-958.33C368.04,-929.99 363,-882.53 363,-841.49 363,-841.49 363,-841.49 363,-623.49 363,-570.97 342.72,-511.28 331.79,-482.91"/>
<ellipse fill="none" stroke="blue" cx="372.12" cy="-962.52" rx="4" ry="4"/>
</a>
</g>
</g>
<!-- Cut2 -->
<g id="node27" class="node">
<title>Cut2</title>
<ellipse fill="none" stroke="black" cx="418" cy="-912.49" rx="27" ry="18"/>
<text text-anchor="middle" x="418" y="-908.79" font-family="Times-Roman" font-size="14.00">Cut</text>
</g>
<!-- Dup0_0&#45;&gt;Cut2 -->
<g id="edge17" class="edge">
<title>Dup0_0&#45;&gt;Cut2</title>
<g id="a_edge17"><a xlink:title="e45">
<path fill="none" stroke="blue" d="M389.27,-960.26C395.44,-950.23 402.5,-938.73 408.08,-929.64"/>
<ellipse fill="blue" stroke="blue" cx="387.07" cy="-963.85" rx="4" ry="4"/>
</a>
</g>
</g>
<!-- !p4 -->
<g id="node25" class="node">
<title>!p4</title>
<ellipse fill="none" stroke="black" cx="242" cy="-234" rx="27" ry="18"/>
<text text-anchor="middle" x="242" y="-230.3" font-family="Times-Roman" font-size="14.00">!p</text>
</g>
<!-- Dup0_1&#45;&gt;!p4 -->
<g id="edge9" class="edge">
<title>Dup0_1&#45;&gt;!p4</title>
<g id="a_edge9"><a xlink:title="e31">
<path fill="none" stroke="red" d="M242,-287.7C242,-279.98 242,-270.71 242,-262.11"/>
<polygon fill="red" stroke="red" points="245.5,-262.1 242,-252.1 238.5,-262.1 245.5,-262.1"/>
</a>
</g>
</g>
<!-- Dup3_1 -->
<g id="node42" class="node">
<title>Dup3_1</title>
<ellipse fill="none" stroke="black" cx="295" cy="-1344.49" rx="29.5" ry="18"/>
<text text-anchor="middle" x="295" y="-1340.79" font-family="Times-Roman" font-size="14.00">Dup</text>
</g>
<!-- Dup0_2&#45;&gt;Dup3_1 -->
<g id="edge12" class="edge">
<title>Dup0_2&#45;&gt;Dup3_1</title>
<g id="a_edge12"><a xlink:title="e35">
<path fill="none" stroke="red" d="M257.89,-1399.61C264.27,-1390.3 272.44,-1378.39 279.49,-1368.12"/>
<ellipse fill="none" stroke="red" cx="281.89" cy="-1364.61" rx="4" ry="4"/>
</a>
</g>
</g>
<!-- PiL4&#45;&gt;PiL2 -->
<g id="edge25" class="edge">
<title>PiL4&#45;&gt;PiL2</title>
<g id="a_edge25"><a xlink:title="e54">
<path fill="none" stroke="blue" stroke-width="2" d="M303.99,-1533.55C300.5,-1524.5 296.68,-1514.58 293.54,-1506.45"/>
<polygon fill="blue" stroke="blue" stroke-width="2" points="300.74,-1534.84 307.6,-1542.91 307.27,-1532.32 300.74,-1534.84"/>
</a>
</g>
</g>
<!-- PiL4&#45;&gt;Dup3_1 -->
<g id="edge11" class="edge">
<title>PiL4&#45;&gt;Dup3_1</title>
<g id="a_edge11"><a xlink:title="e34">
<path fill="none" stroke="red" d="M317.65,-1542.4C319.68,-1532.06 321.98,-1518.58 323,-1506.49 327.11,-1457.71 312.96,-1401.53 303.29,-1370.1"/>
<ellipse fill="red" stroke="red" cx="302.03" cy="-1366.1" rx="4" ry="4"/>
</a>
</g>
</g>
<!-- PiR1 -->
<g id="node28" class="node">
<title>PiR1</title>
<ellipse fill="none" stroke="black" cx="54" cy="-840.49" rx="27" ry="18"/>
<text text-anchor="middle" x="54" y="-836.79" font-family="Times-Roman" font-size="14.00">PiR</text>
</g>
<!-- !p3&#45;&gt;PiR1 -->
<g id="edge29" class="edge">
<title>!p3&#45;&gt;PiR1</title>
<g id="a_edge29"><a xlink:title="e59">
<path fill="none" stroke="red" d="M144.84,-899.3C127.33,-888.16 101.24,-871.56 81.51,-859"/>
<polygon fill="red" stroke="red" points="83.26,-855.96 72.94,-853.55 79.5,-861.87 83.26,-855.96"/>
</a>
</g>
</g>
<!-- PiR2 -->
<g id="node29" class="node">
<title>PiR2</title>
<ellipse fill="none" stroke="black" cx="242" cy="-162" rx="27" ry="18"/>
<text text-anchor="middle" x="242" y="-158.3" font-family="Times-Roman" font-size="14.00">PiR</text>
</g>
<!-- !p4&#45;&gt;PiR2 -->
<g id="edge30" class="edge">
<title>!p4&#45;&gt;PiR2</title>
<g id="a_edge30"><a xlink:title="e61">
<path fill="none" stroke="red" d="M242,-215.7C242,-207.98 242,-198.71 242,-190.11"/>
<polygon fill="red" stroke="red" points="245.5,-190.1 242,-180.1 238.5,-190.1 245.5,-190.1"/>
</a>
</g>
</g>
<!-- !p5 -->
<g id="node26" class="node">
<title>!p5</title>
<ellipse fill="none" stroke="black" cx="418" cy="-840.49" rx="27" ry="18"/>
<text text-anchor="middle" x="418" y="-836.79" font-family="Times-Roman" font-size="14.00">!p</text>
</g>
<!-- PiR3 -->
<g id="node30" class="node">
<title>PiR3</title>
<ellipse fill="none" stroke="black" cx="418" cy="-768.49" rx="27" ry="18"/>
<text text-anchor="middle" x="418" y="-764.79" font-family="Times-Roman" font-size="14.00">PiR</text>
</g>
<!-- !p5&#45;&gt;PiR3 -->
<g id="edge32" class="edge">
<title>!p5&#45;&gt;PiR3</title>
<g id="a_edge32"><a xlink:title="e65">
<path fill="none" stroke="red" d="M418,-822.19C418,-814.48 418,-805.21 418,-796.61"/>
<polygon fill="red" stroke="red" points="421.5,-796.6 418,-786.6 414.5,-796.6 421.5,-796.6"/>
</a>
</g>
</g>
<!-- Cut2&#45;&gt;!p5 -->
<g id="edge31" class="edge">
<title>Cut2&#45;&gt;!p5</title>
<g id="a_edge31"><a xlink:title="e63">
<path fill="none" stroke="red" d="M418,-894.19C418,-886.48 418,-877.21 418,-868.61"/>
<polygon fill="red" stroke="red" points="421.5,-868.6 418,-858.6 414.5,-868.6 421.5,-868.6"/>
</a>
</g>
</g>
<!-- I4 -->
<g id="node36" class="node">
<title>I4</title>
<ellipse fill="none" stroke="black" cx="54" cy="-768.49" rx="27" ry="18"/>
<text text-anchor="middle" x="54" y="-764.79" font-family="Times-Roman" font-size="14.00">I</text>
</g>
<!-- PiR1&#45;&gt;I4 -->
<g id="edge34" class="edge">
<title>PiR1&#45;&gt;I4</title>
<g id="a_edge34"><a xlink:title="e69">
<path fill="none" stroke="red" d="M54,-822.19C54,-814.48 54,-805.21 54,-796.61"/>
<polygon fill="red" stroke="red" points="57.5,-796.6 54,-786.6 50.5,-796.6 57.5,-796.6"/>
</a>
</g>
</g>
<!-- I6 -->
<g id="node40" class="node">
<title>I6</title>
<ellipse fill="none" stroke="black" cx="215" cy="-90" rx="27" ry="18"/>
<text text-anchor="middle" x="215" y="-86.3" font-family="Times-Roman" font-size="14.00">I</text>
</g>
<!-- PiR2&#45;&gt;I6 -->
<g id="edge38" class="edge">
<title>PiR2&#45;&gt;I6</title>
<g id="a_edge38"><a xlink:title="e73">
<path fill="none" stroke="red" d="M235.6,-144.41C232.49,-136.34 228.67,-126.43 225.17,-117.35"/>
<polygon fill="red" stroke="red" points="228.4,-116.03 221.54,-107.96 221.87,-118.55 228.4,-116.03"/>
</a>
</g>
</g>
<!-- Dup1_1 -->
<g id="node32" class="node">
<title>Dup1_1</title>
<ellipse fill="none" stroke="black" cx="466" cy="-696.49" rx="29.5" ry="18"/>
<text text-anchor="middle" x="466" y="-692.79" font-family="Times-Roman" font-size="14.00">Dup</text>
</g>
<!-- PiR3&#45;&gt;Dup1_1 -->
<g id="edge42" class="edge">
<title>PiR3&#45;&gt;Dup1_1</title>
<g id="a_edge42"><a xlink:title="e77">
<path fill="none" stroke="red" d="M428.89,-751.61C435.27,-742.3 443.44,-730.39 450.49,-720.12"/>
<ellipse fill="none" stroke="red" cx="452.89" cy="-716.61" rx="4" ry="4"/>
</a>
</g>
</g>
<!-- Dup1_0 -->
<g id="node31" class="node">
<title>Dup1_0</title>
<ellipse fill="none" stroke="black" cx="409" cy="-465.25" rx="29.47" ry="29.47"/>
<ellipse fill="none" stroke="black" cx="409" cy="-465.25" rx="33.5" ry="33.5"/>
<text text-anchor="middle" x="409" y="-461.55" font-family="Times-Roman" font-size="14.00">Dup</text>
</g>
<!-- Dup1_0&#45;&gt;PiR3 -->
<g id="edge40" class="edge">
<title>Dup1_0&#45;&gt;PiR3</title>
<g id="a_edge40"><a xlink:title="e75">
<path fill="none" stroke="blue" d="M410.21,-506.91C412.21,-573.7 416.1,-703.88 417.49,-750.44"/>
<ellipse fill="none" stroke="blue" cx="410.09" cy="-502.69" rx="4" ry="4"/>
</a>
</g>
</g>
<!-- Cut3 -->
<g id="node33" class="node">
<title>Cut3</title>
<ellipse fill="none" stroke="black" cx="336" cy="-378" rx="27" ry="18"/>
<text text-anchor="middle" x="336" y="-374.3" font-family="Times-Roman" font-size="14.00">Cut</text>
</g>
<!-- Dup1_0&#45;&gt;Cut3 -->
<g id="edge39" class="edge">
<title>Dup1_0&#45;&gt;Cut3</title>
<g id="a_edge39"><a xlink:title="e74">
<path fill="none" stroke="blue" d="M382.06,-432.78C370.72,-419.55 358.07,-404.77 348.9,-394.06"/>
<ellipse fill="blue" stroke="blue" cx="384.89" cy="-436.09" rx="4" ry="4"/>
</a>
</g>
</g>
<!-- I5 -->
<g id="node39" class="node">
<title>I5</title>
<ellipse fill="none" stroke="black" cx="465" cy="-624.49" rx="27" ry="18"/>
<text text-anchor="middle" x="465" y="-620.79" font-family="Times-Roman" font-size="14.00">I</text>
</g>
<!-- Dup1_1&#45;&gt;I5 -->
<g id="edge37" class="edge">
<title>Dup1_1&#45;&gt;I5</title>
<g id="a_edge37"><a xlink:title="e72">
<path fill="none" stroke="red" stroke-width="2" d="M465.75,-678.19C465.64,-670.48 465.51,-661.21 465.39,-652.61"/>
<polygon fill="red" stroke="red" stroke-width="2" points="468.89,-652.55 465.24,-642.6 461.89,-652.65 468.89,-652.55"/>
</a>
</g>
</g>
<!-- Cut3&#45;&gt;Dup0_1 -->
<g id="edge23" class="edge">
<title>Cut3&#45;&gt;Dup0_1</title>
<g id="a_edge23"><a xlink:title="e52">
<path fill="none" stroke="red" d="M318.32,-363.83C303.71,-352.95 282.8,-337.38 266.56,-325.29"/>
<ellipse fill="red" stroke="red" cx="263.13" cy="-322.73" rx="4" ry="4"/>
</a>
</g>
</g>
<!-- Cut4&#45;&gt;Dup1_1 -->
<g id="edge41" class="edge">
<title>Cut4&#45;&gt;Dup1_1</title>
<g id="a_edge41"><a xlink:title="e76">
<path fill="none" stroke="red" stroke-width="2" d="M431.03,-1327.58C446.14,-1302.02 473,-1249.8 473,-1201.49 473,-1201.49 473,-1201.49 473,-839.49 473,-798.56 470.06,-751.07 467.99,-722.69"/>
<ellipse fill="red" stroke="red" stroke-width="2" cx="467.68" cy="-718.52" rx="4" ry="4"/>
</a>
</g>
</g>
<!-- !d3 -->
<g id="node35" class="node">
<title>!d3</title>
<ellipse fill="none" stroke="black" cx="27" cy="-696.49" rx="27" ry="18"/>
<text text-anchor="middle" x="27" y="-692.79" font-family="Times-Roman" font-size="14.00">!d</text>
</g>
<!-- !d3&#45;&gt;PiR1 -->
<g id="edge33" class="edge">
<title>!d3&#45;&gt;PiR1</title>
<g id="a_edge33"><a xlink:title="e67">
<path fill="none" stroke="blue" d="M18.93,-724.09C14.77,-742.07 11.74,-766.14 18,-786.49 22.38,-800.74 32.04,-814.6 40.25,-824.56"/>
<polygon fill="blue" stroke="blue" points="22.35,-724.84 21.45,-714.28 15.57,-723.1 22.35,-724.84"/>
</a>
</g>
</g>
<!-- I4&#45;&gt;!d3 -->
<g id="edge43" class="edge">
<title>I4&#45;&gt;!d3</title>
<g id="a_edge43"><a xlink:title="e79">
<path fill="none" stroke="blue" d="M43.99,-741.55C40.5,-732.5 36.68,-722.58 33.54,-714.45"/>
<polygon fill="blue" stroke="blue" points="40.74,-742.84 47.6,-750.91 47.27,-740.32 40.74,-742.84"/>
</a>
</g>
</g>
<!-- !d4 -->
<g id="node37" class="node">
<title>!d4</title>
<ellipse fill="none" stroke="black" cx="465" cy="-552.49" rx="27" ry="18"/>
<text text-anchor="middle" x="465" y="-548.79" font-family="Times-Roman" font-size="14.00">!d</text>
</g>
<!-- !d4&#45;&gt;Dup1_0 -->
<g id="edge35" class="edge">
<title>!d4&#45;&gt;Dup1_0</title>
<g id="a_edge35"><a xlink:title="e70">
<path fill="none" stroke="blue" stroke-width="2" d="M448.81,-526.85C441.98,-516.45 433.99,-504.29 426.98,-493.61"/>
<polygon fill="blue" stroke="blue" stroke-width="2" points="446.05,-529.02 454.47,-535.46 451.9,-525.18 446.05,-529.02"/>
</a>
</g>
</g>
<!-- !d5 -->
<g id="node38" class="node">
<title>!d5</title>
<ellipse fill="none" stroke="black" cx="242" cy="-18" rx="27" ry="18"/>
<text text-anchor="middle" x="242" y="-14.3" font-family="Times-Roman" font-size="14.00">!d</text>
</g>
<!-- !d5&#45;&gt;PiR2 -->
<g id="edge36" class="edge">
<title>!d5&#45;&gt;PiR2</title>
<g id="a_edge36"><a xlink:title="e71">
<path fill="none" stroke="blue" d="M247.49,-46.01C248.93,-54.31 250.28,-63.5 251,-72 252.34,-87.94 252.34,-92.06 251,-108 249.98,-120.09 247.68,-133.57 245.65,-143.91"/>
<polygon fill="blue" stroke="blue" points="250.91,-45.29 245.65,-36.09 244.03,-46.56 250.91,-45.29"/>
</a>
</g>
</g>
<!-- I5&#45;&gt;!d4 -->
<g id="edge44" class="edge">
<title>I5&#45;&gt;!d4</title>
<g id="a_edge44"><a xlink:title="e80">
<path fill="none" stroke="blue" stroke-width="2" d="M465,-596.16C465,-587.55 465,-578.29 465,-570.6"/>
<polygon fill="blue" stroke="blue" stroke-width="2" points="461.5,-596.19 465,-606.19 468.5,-596.19 461.5,-596.19"/>
</a>
</g>
</g>
<!-- I6&#45;&gt;!d5 -->
<g id="edge45" class="edge">
<title>I6&#45;&gt;!d5</title>
<g id="a_edge45"><a xlink:title="e81">
<path fill="none" stroke="blue" d="M225.01,-63.06C228.5,-54.01 232.32,-44.09 235.46,-35.96"/>
<polygon fill="blue" stroke="blue" points="221.73,-61.82 221.4,-72.41 228.26,-64.34 221.73,-61.82"/>
</a>
</g>
</g>
<!-- Dup3_0&#45;&gt;Cut1 -->
<g id="edge7" class="edge">
<title>Dup3_0&#45;&gt;Cut1</title>
<g id="a_edge7"><a xlink:title="e23">
<path fill="none" stroke="blue" d="M301,-1030.13C301,-1020.98 301,-1010.88 301,-1002.6"/>
<ellipse fill="blue" stroke="blue" cx="301" cy="-1034.19" rx="4" ry="4"/>
</a>
</g>
</g>
<!-- Dup3_0&#45;&gt;Dup0_0 -->
<g id="edge8" class="edge">
<title>Dup3_0&#45;&gt;Dup0_0</title>
<g id="a_edge8"><a xlink:title="e25">
<path fill="none" stroke="blue" d="M322.3,-1035.34C334.25,-1024.04 348.88,-1010.21 359.69,-999.98"/>
<ellipse fill="none" stroke="blue" cx="319.24" cy="-1038.24" rx="4" ry="4"/>
</a>
</g>
</g>
<!-- Dup3_1&#45;&gt;!p0 -->
<g id="edge52" class="edge">
<title>Dup3_1&#45;&gt;!p0</title>
<g id="a_edge52"><a xlink:title="ylp">
<path fill="none" stroke="red" d="M295,-1326.19C295,-1318.48 295,-1309.21 295,-1300.61"/>
<polygon fill="red" stroke="red" points="298.5,-1300.6 295,-1290.6 291.5,-1300.6 298.5,-1300.6"/>
</a>
</g>
</g>
</g>
</svg>
