<?xml version="1.0" encoding="UTF-8" standalone="no"?>
<!DOCTYPE svg PUBLIC "-//W3C//DTD SVG 1.1//EN"
 "http://www.w3.org/Graphics/SVG/1.1/DTD/svg11.dtd">
<!-- Generated by graphviz version 2.43.0 (0)
 -->
<!-- Title: %3 Pages: 1 -->
<svg width="338pt" height="722pt"
 viewBox="0.00 0.00 338.00 722.49" xmlns="http://www.w3.org/2000/svg" xmlns:xlink="http://www.w3.org/1999/xlink">
<g id="graph0" class="graph" transform="scale(1 1) rotate(0) translate(4 718.49)">
<title>%3</title>
<polygon fill="white" stroke="transparent" points="-4,4 -4,-718.49 334,-718.49 334,4 -4,4"/>
<!-- Root0 -->
<g id="node1" class="node">
<title>Root0</title>
<ellipse fill="none" stroke="black" cx="228" cy="-696.49" rx="30.59" ry="18"/>
<text text-anchor="middle" x="228" y="-692.79" font-family="Times-Roman" font-size="14.00">Root</text>
</g>
<!-- Dup1_0 -->
<g id="node15" class="node">
<title>Dup1_0</title>
<ellipse fill="none" stroke="black" cx="228" cy="-624.49" rx="29.5" ry="18"/>
<text text-anchor="middle" x="228" y="-620.79" font-family="Times-Roman" font-size="14.00">Dup</text>
</g>
<!-- Root0&#45;&gt;Dup1_0 -->
<g id="edge19" class="edge">
<title>Root0&#45;&gt;Dup1_0</title>
<g id="a_edge19"><a xlink:title="ret">
<path fill="none" stroke="red" stroke-width="2" d="M228,-678.19C228,-669.88 228,-659.77 228,-650.64"/>
<ellipse fill="none" stroke="red" stroke-width="2" cx="228" cy="-646.6" rx="4" ry="4"/>
</a>
</g>
</g>
<!-- I0 -->
<g id="node2" class="node">
<title>I0</title>
<ellipse fill="none" stroke="black" cx="105" cy="-336.49" rx="27" ry="18"/>
<text text-anchor="middle" x="105" y="-332.79" font-family="Times-Roman" font-size="14.00">I</text>
</g>
<!-- Dup0_0 -->
<g id="node5" class="node">
<title>Dup0_0</title>
<ellipse fill="none" stroke="black" cx="204" cy="-249.25" rx="29.5" ry="18"/>
<text text-anchor="middle" x="204" y="-245.55" font-family="Times-Roman" font-size="14.00">Dup</text>
</g>
<!-- I0&#45;&gt;Dup0_0 -->
<g id="edge20" class="edge">
<title>I0&#45;&gt;Dup0_0</title>
<g id="a_edge20"><a xlink:title="x1_o2">
<path fill="none" stroke="blue" d="M128.74,-315.06C146.88,-299.43 171.42,-278.3 187.47,-264.48"/>
<polygon fill="blue" stroke="blue" points="126.2,-312.62 120.91,-321.8 130.77,-317.93 126.2,-312.62"/>
</a>
</g>
</g>
<!-- PiL0 -->
<g id="node3" class="node">
<title>PiL0</title>
<ellipse fill="none" stroke="black" cx="161" cy="-480.49" rx="27" ry="18"/>
<text text-anchor="middle" x="161" y="-476.79" font-family="Times-Roman" font-size="14.00">PiL</text>
</g>
<!-- Dup0_1 -->
<g id="node6" class="node">
<title>Dup0_1</title>
<ellipse fill="none" stroke="black" cx="104" cy="-408.49" rx="29.5" ry="18"/>
<text text-anchor="middle" x="104" y="-404.79" font-family="Times-Roman" font-size="14.00">Dup</text>
</g>
<!-- PiL0&#45;&gt;Dup0_1 -->
<g id="edge4" class="edge">
<title>PiL0&#45;&gt;Dup0_1</title>
<g id="a_edge4"><a xlink:title="e16">
<path fill="none" stroke="red" d="M148.63,-464.31C140.82,-454.72 130.6,-442.17 121.92,-431.5"/>
<ellipse fill="red" stroke="red" cx="119.26" cy="-428.24" rx="4" ry="4"/>
</a>
</g>
</g>
<!-- Dup1_2 -->
<g id="node17" class="node">
<title>Dup1_2</title>
<ellipse fill="none" stroke="black" cx="124" cy="-249.25" rx="29.47" ry="29.47"/>
<ellipse fill="none" stroke="black" cx="124" cy="-249.25" rx="33.5" ry="33.5"/>
<text text-anchor="middle" x="124" y="-245.55" font-family="Times-Roman" font-size="14.00">Dup</text>
</g>
<!-- PiL0&#45;&gt;Dup1_2 -->
<g id="edge2" class="edge">
<title>PiL0&#45;&gt;Dup1_2</title>
<g id="a_edge2"><a xlink:title="e12">
<path fill="none" stroke="blue" stroke-width="2" d="M158.65,-452.51C155.62,-420.41 149.7,-365.27 141,-318.49 138.75,-306.37 135.62,-293.19 132.67,-281.67"/>
<polygon fill="blue" stroke="blue" stroke-width="2" points="155.17,-452.83 159.57,-462.47 162.14,-452.19 155.17,-452.83"/>
</a>
</g>
</g>
<!-- I1 -->
<g id="node4" class="node">
<title>I1</title>
<ellipse fill="none" stroke="black" cx="201" cy="-552.49" rx="27" ry="18"/>
<text text-anchor="middle" x="201" y="-548.79" font-family="Times-Roman" font-size="14.00">I</text>
</g>
<!-- I1&#45;&gt;PiL0 -->
<g id="edge3" class="edge">
<title>I1&#45;&gt;PiL0</title>
<g id="a_edge3"><a xlink:title="e14">
<path fill="none" stroke="blue" stroke-width="2" d="M186.71,-526.5C181.23,-516.89 175.12,-506.2 170.23,-497.64"/>
<polygon fill="blue" stroke="blue" stroke-width="2" points="183.72,-528.31 191.72,-535.26 189.8,-524.84 183.72,-528.31"/>
</a>
</g>
</g>
<!-- Cut0 -->
<g id="node8" class="node">
<title>Cut0</title>
<ellipse fill="none" stroke="black" cx="275" cy="-162" rx="27" ry="18"/>
<text text-anchor="middle" x="275" y="-158.3" font-family="Times-Roman" font-size="14.00">Cut</text>
</g>
<!-- Dup0_0&#45;&gt;Cut0 -->
<g id="edge1" class="edge">
<title>Dup0_0&#45;&gt;Cut0</title>
<g id="a_edge1"><a xlink:title="e10">
<path fill="none" stroke="blue" d="M221.84,-226.83C234.49,-211.64 251.14,-191.64 262.42,-178.11"/>
<ellipse fill="none" stroke="blue" cx="219.25" cy="-229.93" rx="4" ry="4"/>
</a>
</g>
</g>
<!-- Dup1_1 -->
<g id="node16" class="node">
<title>Dup1_1</title>
<ellipse fill="none" stroke="black" cx="201" cy="-162" rx="29.5" ry="18"/>
<text text-anchor="middle" x="201" y="-158.3" font-family="Times-Roman" font-size="14.00">Dup</text>
</g>
<!-- Dup0_0&#45;&gt;Dup1_1 -->
<g id="edge18" class="edge">
<title>Dup0_0&#45;&gt;Dup1_1</title>
<g id="a_edge18"><a xlink:title="e8">
<path fill="none" stroke="blue" d="M203.11,-222.87C202.62,-209.11 202.04,-192.47 201.61,-180.23"/>
<ellipse fill="blue" stroke="blue" cx="203.25" cy="-227" rx="4" ry="4"/>
</a>
</g>
</g>
<!-- Dup0_1&#45;&gt;I0 -->
<g id="edge21" class="edge">
<title>Dup0_1&#45;&gt;I0</title>
<g id="a_edge21"><a xlink:title="x1_o2r">
<path fill="none" stroke="red" d="M104.25,-390.19C104.36,-382.48 104.49,-373.21 104.61,-364.61"/>
<polygon fill="red" stroke="red" points="108.11,-364.65 104.76,-354.6 101.11,-364.55 108.11,-364.65"/>
</a>
</g>
</g>
<!-- !p0 -->
<g id="node7" class="node">
<title>!p0</title>
<ellipse fill="none" stroke="black" cx="275" cy="-90" rx="27" ry="18"/>
<text text-anchor="middle" x="275" y="-86.3" font-family="Times-Roman" font-size="14.00">!p</text>
</g>
<!-- PiR0 -->
<g id="node9" class="node">
<title>PiR0</title>
<ellipse fill="none" stroke="black" cx="275" cy="-18" rx="27" ry="18"/>
<text text-anchor="middle" x="275" y="-14.3" font-family="Times-Roman" font-size="14.00">PiR</text>
</g>
<!-- !p0&#45;&gt;PiR0 -->
<g id="edge7" class="edge">
<title>!p0&#45;&gt;PiR0</title>
<g id="a_edge7"><a xlink:title="e20">
<path fill="none" stroke="red" d="M275,-71.7C275,-63.98 275,-54.71 275,-46.11"/>
<polygon fill="red" stroke="red" points="278.5,-46.1 275,-36.1 271.5,-46.1 278.5,-46.1"/>
</a>
</g>
</g>
<!-- Cut0&#45;&gt;!p0 -->
<g id="edge6" class="edge">
<title>Cut0&#45;&gt;!p0</title>
<g id="a_edge6"><a xlink:title="e18">
<path fill="none" stroke="red" d="M275,-143.7C275,-135.98 275,-126.71 275,-118.11"/>
<polygon fill="red" stroke="red" points="278.5,-118.1 275,-108.1 271.5,-118.1 278.5,-118.1"/>
</a>
</g>
</g>
<!-- PiR0&#45;&gt;Dup1_0 -->
<g id="edge10" class="edge">
<title>PiR0&#45;&gt;Dup1_0</title>
<g id="a_edge10"><a xlink:title="e24">
<path fill="none" stroke="red" d="M287.75,-34.3C295.56,-44.41 305.15,-58.29 311,-72 326.88,-109.2 330,-120.55 330,-161 330,-481.49 330,-481.49 330,-481.49 330,-533.98 283.46,-580.35 253.25,-604.92"/>
<ellipse fill="red" stroke="red" cx="249.84" cy="-607.63" rx="4" ry="4"/>
</a>
</g>
</g>
<!-- Cut1 -->
<g id="node10" class="node">
<title>Cut1</title>
<ellipse fill="none" stroke="black" cx="28" cy="-18" rx="27" ry="18"/>
<text text-anchor="middle" x="28" y="-14.3" font-family="Times-Roman" font-size="14.00">Cut</text>
</g>
<!-- Cut1&#45;&gt;Dup0_1 -->
<g id="edge5" class="edge">
<title>Cut1&#45;&gt;Dup0_1</title>
<g id="a_edge5"><a xlink:title="e17">
<path fill="none" stroke="red" d="M22.47,-35.84C14.31,-62.21 0,-115.02 0,-161 0,-250.25 0,-250.25 0,-250.25 0,-308 49.41,-360.84 80.11,-388.11"/>
<ellipse fill="none" stroke="red" cx="83.34" cy="-390.91" rx="4" ry="4"/>
</a>
</g>
</g>
<!-- !c0 -->
<g id="node11" class="node">
<title>!c0</title>
<ellipse fill="none" stroke="black" cx="201" cy="-90" rx="27" ry="18"/>
<text text-anchor="middle" x="201" y="-86.3" font-family="Times-Roman" font-size="14.00">!c</text>
</g>
<!-- !c0&#45;&gt;PiR0 -->
<g id="edge8" class="edge">
<title>!c0&#45;&gt;PiR0</title>
<g id="a_edge8"><a xlink:title="e22">
<path fill="none" stroke="blue" d="M223.37,-67.84C235.25,-56.6 249.52,-43.1 260.05,-33.14"/>
<polygon fill="blue" stroke="blue" points="220.83,-65.42 215.98,-74.83 225.64,-70.51 220.83,-65.42"/>
</a>
</g>
</g>
<!-- !c1 -->
<g id="node12" class="node">
<title>!c1</title>
<ellipse fill="none" stroke="black" cx="55" cy="-90" rx="27" ry="18"/>
<text text-anchor="middle" x="55" y="-86.3" font-family="Times-Roman" font-size="14.00">!c</text>
</g>
<!-- !c1&#45;&gt;Cut1 -->
<g id="edge9" class="edge">
<title>!c1&#45;&gt;Cut1</title>
<g id="a_edge9"><a xlink:title="e23">
<path fill="none" stroke="blue" d="M44.99,-63.06C41.5,-54.01 37.68,-44.09 34.54,-35.96"/>
<polygon fill="blue" stroke="blue" points="41.74,-64.34 48.6,-72.41 48.27,-61.82 41.74,-64.34"/>
</a>
</g>
</g>
<!-- !d0 -->
<g id="node13" class="node">
<title>!d0</title>
<ellipse fill="none" stroke="black" cx="127" cy="-162" rx="27" ry="18"/>
<text text-anchor="middle" x="127" y="-158.3" font-family="Times-Roman" font-size="14.00">!d</text>
</g>
<!-- !d0&#45;&gt;!c0 -->
<g id="edge12" class="edge">
<title>!d0&#45;&gt;!c0</title>
<g id="a_edge12"><a xlink:title="e27">
<path fill="none" stroke="blue" d="M149.37,-139.84C161.25,-128.6 175.52,-115.1 186.05,-105.14"/>
<polygon fill="blue" stroke="blue" points="146.83,-137.42 141.98,-146.83 151.64,-142.51 146.83,-137.42"/>
</a>
</g>
</g>
<!-- !d1 -->
<g id="node14" class="node">
<title>!d1</title>
<ellipse fill="none" stroke="black" cx="55" cy="-162" rx="27" ry="18"/>
<text text-anchor="middle" x="55" y="-158.3" font-family="Times-Roman" font-size="14.00">!d</text>
</g>
<!-- !d1&#45;&gt;!c1 -->
<g id="edge14" class="edge">
<title>!d1&#45;&gt;!c1</title>
<g id="a_edge14"><a xlink:title="e29">
<path fill="none" stroke="blue" d="M55,-133.67C55,-125.05 55,-115.79 55,-108.1"/>
<polygon fill="blue" stroke="blue" points="51.5,-133.7 55,-143.7 58.5,-133.7 51.5,-133.7"/>
</a>
</g>
</g>
<!-- Dup1_0&#45;&gt;I1 -->
<g id="edge17" class="edge">
<title>Dup1_0&#45;&gt;I1</title>
<g id="a_edge17"><a xlink:title="e6">
<path fill="none" stroke="red" stroke-width="2" d="M221.6,-606.91C218.49,-598.83 214.67,-588.93 211.17,-579.85"/>
<polygon fill="red" stroke="red" stroke-width="2" points="214.4,-578.52 207.54,-570.45 207.87,-581.04 214.4,-578.52"/>
</a>
</g>
</g>
<!-- Dup1_1&#45;&gt;!c0 -->
<g id="edge11" class="edge">
<title>Dup1_1&#45;&gt;!c0</title>
<g id="a_edge11"><a xlink:title="e26">
<path fill="none" stroke="blue" d="M201,-135.64C201,-126.49 201,-116.38 201,-108.1"/>
<ellipse fill="blue" stroke="blue" cx="201" cy="-139.7" rx="4" ry="4"/>
</a>
</g>
</g>
<!-- Dup1_1&#45;&gt;!c1 -->
<g id="edge13" class="edge">
<title>Dup1_1&#45;&gt;!c1</title>
<g id="a_edge13"><a xlink:title="e28">
<path fill="none" stroke="blue" d="M171.29,-146.76C143.08,-133.23 101.38,-113.24 76.33,-101.23"/>
<ellipse fill="none" stroke="blue" cx="174.9" cy="-148.49" rx="4" ry="4"/>
</a>
</g>
</g>
<!-- Dup1_2&#45;&gt;!d0 -->
<g id="edge15" class="edge">
<title>Dup1_2&#45;&gt;!d0</title>
<g id="a_edge15"><a xlink:title="e30">
<path fill="none" stroke="blue" d="M125.42,-207.97C125.76,-198.29 126.1,-188.45 126.39,-180.46"/>
<ellipse fill="blue" stroke="blue" cx="125.27" cy="-212.02" rx="4" ry="4"/>
</a>
</g>
</g>
<!-- Dup1_2&#45;&gt;!d1 -->
<g id="edge16" class="edge">
<title>Dup1_2&#45;&gt;!d1</title>
<g id="a_edge16"><a xlink:title="e31">
<path fill="none" stroke="blue" d="M98.21,-216.38C87.61,-203.29 75.84,-188.74 67.26,-178.15"/>
<ellipse fill="none" stroke="blue" cx="100.78" cy="-219.56" rx="4" ry="4"/>
</a>
</g>
</g>
</g>
</svg>
