<?xml version="1.0" encoding="UTF-8" standalone="no"?>
<!DOCTYPE svg PUBLIC "-//W3C//DTD SVG 1.1//EN"
 "http://www.w3.org/Graphics/SVG/1.1/DTD/svg11.dtd">
<!-- Generated by graphviz version 2.43.0 (0)
 -->
<!-- Title: %3 Pages: 1 -->
<svg width="231pt" height="1149pt"
 viewBox="0.00 0.00 230.55 1149.30" xmlns="http://www.w3.org/2000/svg" xmlns:xlink="http://www.w3.org/1999/xlink">
<g id="graph0" class="graph" transform="scale(1 1) rotate(0) translate(4 1145.3)">
<title>%3</title>
<polygon fill="white" stroke="transparent" points="-4,4 -4,-1145.3 226.55,-1145.3 226.55,4 -4,4"/>
<!-- Root0 -->
<g id="node1" class="node">
<title>Root0</title>
<ellipse fill="none" stroke="black" cx="192" cy="-1123.3" rx="30.59" ry="18"/>
<text text-anchor="middle" x="192" y="-1119.6" font-family="Times-Roman" font-size="14.00">Root</text>
</g>
<!-- I3 -->
<g id="node15" class="node">
<title>I3</title>
<ellipse fill="none" stroke="black" cx="192" cy="-1051.3" rx="27" ry="18"/>
<text text-anchor="middle" x="192" y="-1047.6" font-family="Times-Roman" font-size="14.00">I</text>
</g>
<!-- Root0&#45;&gt;I3 -->
<g id="edge16" class="edge">
<title>Root0&#45;&gt;I3</title>
<g id="a_edge16"><a xlink:title="ret">
<path fill="none" stroke="red" stroke-width="2" d="M192,-1104.99C192,-1097.28 192,-1088.01 192,-1079.41"/>
<polygon fill="red" stroke="red" stroke-width="2" points="195.5,-1079.4 192,-1069.4 188.5,-1079.4 195.5,-1079.4"/>
</a>
</g>
</g>
<!-- I0 -->
<g id="node2" class="node">
<title>I0</title>
<ellipse fill="none" stroke="black" cx="113" cy="-666" rx="27" ry="18"/>
<text text-anchor="middle" x="113" y="-662.3" font-family="Times-Roman" font-size="14.00">I</text>
</g>
<!-- Cut0 -->
<g id="node5" class="node">
<title>Cut0</title>
<ellipse fill="none" stroke="black" cx="99" cy="-594" rx="27" ry="18"/>
<text text-anchor="middle" x="99" y="-590.3" font-family="Times-Roman" font-size="14.00">Cut</text>
</g>
<!-- I0&#45;&gt;Cut0 -->
<g id="edge17" class="edge">
<title>I0&#45;&gt;Cut0</title>
<g id="a_edge17"><a xlink:title="x1_o1">
<path fill="none" stroke="blue" d="M107.6,-638.01C105.87,-629.36 104.01,-620.03 102.46,-612.28"/>
<polygon fill="blue" stroke="blue" points="104.22,-638.94 109.61,-648.05 111.08,-637.56 104.22,-638.94"/>
</a>
</g>
</g>
<!-- I1 -->
<g id="node3" class="node">
<title>I1</title>
<ellipse fill="none" stroke="black" cx="127" cy="-162" rx="27" ry="18"/>
<text text-anchor="middle" x="127" y="-158.3" font-family="Times-Roman" font-size="14.00">I</text>
</g>
<!-- Dup0_0 -->
<g id="node16" class="node">
<title>Dup0_0</title>
<ellipse fill="none" stroke="black" cx="127" cy="-90" rx="29.5" ry="18"/>
<text text-anchor="middle" x="127" y="-86.3" font-family="Times-Roman" font-size="14.00">Dup</text>
</g>
<!-- I1&#45;&gt;Dup0_0 -->
<g id="edge19" class="edge">
<title>I1&#45;&gt;Dup0_0</title>
<g id="a_edge19"><a xlink:title="x1_o2">
<path fill="none" stroke="blue" d="M127,-133.67C127,-125.05 127,-115.79 127,-108.1"/>
<polygon fill="blue" stroke="blue" points="123.5,-133.7 127,-143.7 130.5,-133.7 123.5,-133.7"/>
</a>
</g>
</g>
<!-- !p0 -->
<g id="node4" class="node">
<title>!p0</title>
<ellipse fill="none" stroke="black" cx="72" cy="-522" rx="27" ry="18"/>
<text text-anchor="middle" x="72" y="-518.3" font-family="Times-Roman" font-size="14.00">!p</text>
</g>
<!-- PiR0 -->
<g id="node6" class="node">
<title>PiR0</title>
<ellipse fill="none" stroke="black" cx="64" cy="-450" rx="27" ry="18"/>
<text text-anchor="middle" x="64" y="-446.3" font-family="Times-Roman" font-size="14.00">PiR</text>
</g>
<!-- !p0&#45;&gt;PiR0 -->
<g id="edge10" class="edge">
<title>!p0&#45;&gt;PiR0</title>
<g id="a_edge10"><a xlink:title="e2">
<path fill="none" stroke="red" d="M70.02,-503.7C69.14,-495.98 68.08,-486.71 67.1,-478.11"/>
<polygon fill="red" stroke="red" points="70.57,-477.64 65.95,-468.1 63.61,-478.44 70.57,-477.64"/>
</a>
</g>
</g>
<!-- Cut0&#45;&gt;!p0 -->
<g id="edge1" class="edge">
<title>Cut0&#45;&gt;!p0</title>
<g id="a_edge1"><a xlink:title="e0">
<path fill="none" stroke="red" d="M92.6,-576.41C89.49,-568.34 85.67,-558.43 82.17,-549.35"/>
<polygon fill="red" stroke="red" points="85.4,-548.03 78.54,-539.96 78.87,-550.55 85.4,-548.03"/>
</a>
</g>
</g>
<!-- I2 -->
<g id="node14" class="node">
<title>I2</title>
<ellipse fill="none" stroke="black" cx="64" cy="-378" rx="27" ry="18"/>
<text text-anchor="middle" x="64" y="-374.3" font-family="Times-Roman" font-size="14.00">I</text>
</g>
<!-- PiR0&#45;&gt;I2 -->
<g id="edge13" class="edge">
<title>PiR0&#45;&gt;I2</title>
<g id="a_edge13"><a xlink:title="e6">
<path fill="none" stroke="red" d="M64,-431.7C64,-423.98 64,-414.71 64,-406.11"/>
<polygon fill="red" stroke="red" points="67.5,-406.1 64,-396.1 60.5,-406.1 67.5,-406.1"/>
</a>
</g>
</g>
<!-- Cut1 -->
<g id="node7" class="node">
<title>Cut1</title>
<ellipse fill="none" stroke="black" cx="120" cy="-750.65" rx="26.78" ry="26.78"/>
<ellipse fill="none" stroke="black" cx="120" cy="-750.65" rx="30.8" ry="30.8"/>
<text text-anchor="middle" x="120" y="-746.95" font-family="Times-Roman" font-size="14.00">Cut</text>
</g>
<!-- Cut1&#45;&gt;I0 -->
<g id="edge18" class="edge">
<title>Cut1&#45;&gt;I0</title>
<g id="a_edge18"><a xlink:title="x1_o1r">
<path fill="none" stroke="red" d="M117.47,-719.81C116.76,-711.45 116,-702.41 115.3,-694.21"/>
<polygon fill="red" stroke="red" points="118.78,-693.72 114.44,-684.05 111.8,-694.31 118.78,-693.72"/>
</a>
</g>
</g>
<!-- !c0 -->
<g id="node8" class="node">
<title>!c0</title>
<ellipse fill="none" stroke="black" cx="55" cy="-18" rx="27" ry="18"/>
<text text-anchor="middle" x="55" y="-14.3" font-family="Times-Roman" font-size="14.00">!c</text>
</g>
<!-- !c0&#45;&gt;PiR0 -->
<g id="edge11" class="edge">
<title>!c0&#45;&gt;PiR0</title>
<g id="a_edge11"><a xlink:title="e4">
<path fill="none" stroke="blue" d="M39.18,-43.38C22.93,-70.82 0,-117.3 0,-161 0,-307 0,-307 0,-307 0,-357.03 33.42,-408.91 51.96,-433.83"/>
<polygon fill="blue" stroke="blue" points="42.18,-45.2 44.4,-34.84 36.2,-41.55 42.18,-45.2"/>
</a>
</g>
</g>
<!-- !c1 -->
<g id="node9" class="node">
<title>!c1</title>
<ellipse fill="none" stroke="black" cx="165" cy="-835.3" rx="27" ry="18"/>
<text text-anchor="middle" x="165" y="-831.6" font-family="Times-Roman" font-size="14.00">!c</text>
</g>
<!-- !c1&#45;&gt;Cut1 -->
<g id="edge12" class="edge">
<title>!c1&#45;&gt;Cut1</title>
<g id="a_edge12"><a xlink:title="e5">
<path fill="none" stroke="blue" stroke-width="2" d="M151.27,-809.07C145.91,-799.24 139.78,-787.97 134.36,-778.03"/>
<polygon fill="blue" stroke="blue" stroke-width="2" points="148.25,-810.86 156.11,-817.97 154.4,-807.51 148.25,-810.86"/>
</a>
</g>
</g>
<!-- !d0 -->
<g id="node10" class="node">
<title>!d0</title>
<ellipse fill="none" stroke="black" cx="55" cy="-162" rx="27" ry="18"/>
<text text-anchor="middle" x="55" y="-158.3" font-family="Times-Roman" font-size="14.00">!d</text>
</g>
<!-- !d0&#45;&gt;!c0 -->
<g id="edge15" class="edge">
<title>!d0&#45;&gt;!c0</title>
<g id="a_edge15"><a xlink:title="e9">
<path fill="none" stroke="blue" d="M55,-133.68C55,-104.89 55,-60.42 55,-36.19"/>
<polygon fill="blue" stroke="blue" points="51.5,-133.87 55,-143.87 58.5,-133.87 51.5,-133.87"/>
</a>
</g>
</g>
<!-- !d1 -->
<g id="node11" class="node">
<title>!d1</title>
<ellipse fill="none" stroke="black" cx="165" cy="-907.3" rx="27" ry="18"/>
<text text-anchor="middle" x="165" y="-903.6" font-family="Times-Roman" font-size="14.00">!d</text>
</g>
<!-- !d1&#45;&gt;!c1 -->
<g id="edge3" class="edge">
<title>!d1&#45;&gt;!c1</title>
<g id="a_edge3"><a xlink:title="e11">
<path fill="none" stroke="blue" stroke-width="2" d="M165,-878.96C165,-870.35 165,-861.09 165,-853.4"/>
<polygon fill="blue" stroke="blue" stroke-width="2" points="161.5,-878.99 165,-888.99 168.5,-878.99 161.5,-878.99"/>
</a>
</g>
</g>
<!-- PiL0 -->
<g id="node12" class="node">
<title>PiL0</title>
<ellipse fill="none" stroke="black" cx="64" cy="-306" rx="27" ry="18"/>
<text text-anchor="middle" x="64" y="-302.3" font-family="Times-Roman" font-size="14.00">PiL</text>
</g>
<!-- PiL0&#45;&gt;!d0 -->
<g id="edge4" class="edge">
<title>PiL0&#45;&gt;!d0</title>
<g id="a_edge4"><a xlink:title="e12">
<path fill="none" stroke="blue" d="M62.27,-277.68C60.44,-248.89 57.63,-204.42 56.09,-180.19"/>
<polygon fill="blue" stroke="blue" points="58.79,-278.11 62.91,-287.87 65.77,-277.67 58.79,-278.11"/>
</a>
</g>
</g>
<!-- Dup0_1 -->
<g id="node17" class="node">
<title>Dup0_1</title>
<ellipse fill="none" stroke="black" cx="125" cy="-234" rx="29.5" ry="18"/>
<text text-anchor="middle" x="125" y="-230.3" font-family="Times-Roman" font-size="14.00">Dup</text>
</g>
<!-- PiL0&#45;&gt;Dup0_1 -->
<g id="edge8" class="edge">
<title>PiL0&#45;&gt;Dup0_1</title>
<g id="a_edge8"><a xlink:title="e16">
<path fill="none" stroke="red" d="M76.94,-290.15C85.47,-280.36 96.79,-267.37 106.3,-256.45"/>
<ellipse fill="red" stroke="red" cx="109.03" cy="-253.32" rx="4" ry="4"/>
</a>
</g>
</g>
<!-- PiL1 -->
<g id="node13" class="node">
<title>PiL1</title>
<ellipse fill="none" stroke="black" cx="192" cy="-979.3" rx="27" ry="18"/>
<text text-anchor="middle" x="192" y="-975.6" font-family="Times-Roman" font-size="14.00">PiL</text>
</g>
<!-- PiL1&#45;&gt;!d1 -->
<g id="edge5" class="edge">
<title>PiL1&#45;&gt;!d1</title>
<g id="a_edge5"><a xlink:title="e13">
<path fill="none" stroke="blue" stroke-width="2" d="M181.99,-952.35C178.5,-943.3 174.68,-933.38 171.54,-925.25"/>
<polygon fill="blue" stroke="blue" stroke-width="2" points="178.74,-953.64 185.6,-961.71 185.27,-951.12 178.74,-953.64"/>
</a>
</g>
</g>
<!-- PiL1&#45;&gt;Dup0_1 -->
<g id="edge9" class="edge">
<title>PiL1&#45;&gt;Dup0_1</title>
<g id="a_edge9"><a xlink:title="e17">
<path fill="none" stroke="red" d="M197.53,-961.46C205.69,-935.08 220,-882.28 220,-836.3 220,-836.3 220,-836.3 220,-377 220,-325.71 176.65,-278.92 148.52,-253.95"/>
<ellipse fill="none" stroke="red" cx="145.45" cy="-251.29" rx="4" ry="4"/>
</a>
</g>
</g>
<!-- I2&#45;&gt;PiL0 -->
<g id="edge6" class="edge">
<title>I2&#45;&gt;PiL0</title>
<g id="a_edge6"><a xlink:title="e14">
<path fill="none" stroke="blue" d="M64,-349.67C64,-341.05 64,-331.79 64,-324.1"/>
<polygon fill="blue" stroke="blue" points="60.5,-349.7 64,-359.7 67.5,-349.7 60.5,-349.7"/>
</a>
</g>
</g>
<!-- I3&#45;&gt;PiL1 -->
<g id="edge7" class="edge">
<title>I3&#45;&gt;PiL1</title>
<g id="a_edge7"><a xlink:title="e15">
<path fill="none" stroke="blue" stroke-width="2" d="M192,-1022.96C192,-1014.35 192,-1005.09 192,-997.4"/>
<polygon fill="blue" stroke="blue" stroke-width="2" points="188.5,-1022.99 192,-1032.99 195.5,-1022.99 188.5,-1022.99"/>
</a>
</g>
</g>
<!-- Dup0_0&#45;&gt;!c0 -->
<g id="edge14" class="edge">
<title>Dup0_0&#45;&gt;!c0</title>
<g id="a_edge14"><a xlink:title="e8">
<path fill="none" stroke="blue" d="M106.27,-68.85C94.65,-57.55 80.42,-43.71 69.9,-33.49"/>
<ellipse fill="blue" stroke="blue" cx="109.21" cy="-71.71" rx="4" ry="4"/>
</a>
</g>
</g>
<!-- Dup0_0&#45;&gt;!c1 -->
<g id="edge2" class="edge">
<title>Dup0_0&#45;&gt;!c1</title>
<g id="a_edge2"><a xlink:title="e10">
<path fill="none" stroke="blue" d="M144.68,-112.89C151.3,-122.04 158.34,-133.08 163,-144 178.88,-181.2 182,-192.55 182,-233 182,-667 182,-667 182,-667 182,-722.18 172.73,-787.07 167.88,-817.25"/>
<ellipse fill="none" stroke="blue" cx="142.14" cy="-109.5" rx="4" ry="4"/>
</a>
</g>
</g>
<!-- Dup0_1&#45;&gt;I1 -->
<g id="edge20" class="edge">
<title>Dup0_1&#45;&gt;I1</title>
<g id="a_edge20"><a xlink:title="x1_o2r">
<path fill="none" stroke="red" d="M125.49,-215.7C125.71,-207.98 125.98,-198.71 126.23,-190.11"/>
<polygon fill="red" stroke="red" points="129.72,-190.2 126.51,-180.1 122.73,-190 129.72,-190.2"/>
</a>
</g>
</g>
</g>
</svg>
