<?xml version="1.0" encoding="UTF-8" standalone="no"?>
<!DOCTYPE svg PUBLIC "-//W3C//DTD SVG 1.1//EN"
 "http://www.w3.org/Graphics/SVG/1.1/DTD/svg11.dtd">
<!-- Generated by graphviz version 2.43.0 (0)
 -->
<!-- Title: %3 Pages: 1 -->
<svg width="166pt" height="866pt"
 viewBox="0.00 0.00 165.55 866.49" xmlns="http://www.w3.org/2000/svg" xmlns:xlink="http://www.w3.org/1999/xlink">
<g id="graph0" class="graph" transform="scale(1 1) rotate(0) translate(4 862.49)">
<title>%3</title>
<polygon fill="white" stroke="transparent" points="-4,4 -4,-862.49 161.55,-862.49 161.55,4 -4,4"/>
<!-- Root0 -->
<g id="node1" class="node">
<title>Root0</title>
<ellipse fill="none" stroke="black" cx="30.55" cy="-840.49" rx="30.59" ry="18"/>
<text text-anchor="middle" x="30.55" y="-836.79" font-family="Times-Roman" font-size="14.00">Root</text>
</g>
<!-- Dup0_1 -->
<g id="node13" class="node">
<title>Dup0_1</title>
<ellipse fill="none" stroke="black" cx="30.55" cy="-768.49" rx="29.5" ry="18"/>
<text text-anchor="middle" x="30.55" y="-764.79" font-family="Times-Roman" font-size="14.00">Dup</text>
</g>
<!-- Root0&#45;&gt;Dup0_1 -->
<g id="edge6" class="edge">
<title>Root0&#45;&gt;Dup0_1</title>
<g id="a_edge6"><a xlink:title="ret">
<path fill="none" stroke="red" stroke-width="2" d="M30.55,-822.19C30.55,-813.88 30.55,-803.77 30.55,-794.64"/>
<ellipse fill="none" stroke="red" stroke-width="2" cx="30.55" cy="-790.6" rx="4" ry="4"/>
</a>
</g>
</g>
<!-- I0 -->
<g id="node2" class="node">
<title>I0</title>
<ellipse fill="none" stroke="black" cx="96.55" cy="-234" rx="27" ry="18"/>
<text text-anchor="middle" x="96.55" y="-230.3" font-family="Times-Roman" font-size="14.00">I</text>
</g>
<!-- Cut0 -->
<g id="node9" class="node">
<title>Cut0</title>
<ellipse fill="none" stroke="black" cx="96.55" cy="-162" rx="27" ry="18"/>
<text text-anchor="middle" x="96.55" y="-158.3" font-family="Times-Roman" font-size="14.00">Cut</text>
</g>
<!-- I0&#45;&gt;Cut0 -->
<g id="edge9" class="edge">
<title>I0&#45;&gt;Cut0</title>
<g id="a_edge9"><a xlink:title="x1_o1">
<path fill="none" stroke="blue" d="M96.55,-205.67C96.55,-197.05 96.55,-187.79 96.55,-180.1"/>
<polygon fill="blue" stroke="blue" points="93.05,-205.7 96.55,-215.7 100.05,-205.7 93.05,-205.7"/>
</a>
</g>
</g>
<!-- !c0 -->
<g id="node3" class="node">
<title>!c0</title>
<ellipse fill="none" stroke="black" cx="80.55" cy="-480.49" rx="27" ry="18"/>
<text text-anchor="middle" x="80.55" y="-476.79" font-family="Times-Roman" font-size="14.00">!c</text>
</g>
<!-- Dup0_0 -->
<g id="node12" class="node">
<title>Dup0_0</title>
<ellipse fill="none" stroke="black" cx="80.55" cy="-393.25" rx="29.47" ry="29.47"/>
<ellipse fill="none" stroke="black" cx="80.55" cy="-393.25" rx="33.5" ry="33.5"/>
<text text-anchor="middle" x="80.55" y="-389.55" font-family="Times-Roman" font-size="14.00">Dup</text>
</g>
<!-- !c0&#45;&gt;Dup0_0 -->
<g id="edge15" class="edge">
<title>!c0&#45;&gt;Dup0_0</title>
<g id="a_edge15"><a xlink:title="x_o2">
<path fill="none" stroke="blue" stroke-width="2" d="M80.55,-452.17C80.55,-444.05 80.55,-435.06 80.55,-426.65"/>
<polygon fill="blue" stroke="blue" stroke-width="2" points="77.05,-452.24 80.55,-462.24 84.05,-452.24 77.05,-452.24"/>
</a>
</g>
</g>
<!-- !d0 -->
<g id="node4" class="node">
<title>!d0</title>
<ellipse fill="none" stroke="black" cx="58.55" cy="-552.49" rx="27" ry="18"/>
<text text-anchor="middle" x="58.55" y="-548.79" font-family="Times-Roman" font-size="14.00">!d</text>
</g>
<!-- !d0&#45;&gt;!c0 -->
<g id="edge13" class="edge">
<title>!d0&#45;&gt;!c0</title>
<g id="a_edge13"><a xlink:title="x2_o2">
<path fill="none" stroke="blue" stroke-width="2" d="M66.9,-524.92C69.71,-515.98 72.76,-506.26 75.27,-498.28"/>
<polygon fill="blue" stroke="blue" stroke-width="2" points="63.53,-523.96 63.87,-534.55 70.21,-526.06 63.53,-523.96"/>
</a>
</g>
</g>
<!-- PiL0 -->
<g id="node5" class="node">
<title>PiL0</title>
<ellipse fill="none" stroke="black" cx="58.55" cy="-624.49" rx="27" ry="18"/>
<text text-anchor="middle" x="58.55" y="-620.79" font-family="Times-Roman" font-size="14.00">PiL</text>
</g>
<!-- PiL0&#45;&gt;!d0 -->
<g id="edge14" class="edge">
<title>PiL0&#45;&gt;!d0</title>
<g id="a_edge14"><a xlink:title="x2i_o2">
<path fill="none" stroke="blue" stroke-width="2" d="M58.55,-596.16C58.55,-587.55 58.55,-578.29 58.55,-570.6"/>
<polygon fill="blue" stroke="blue" stroke-width="2" points="55.05,-596.19 58.55,-606.19 62.05,-596.19 55.05,-596.19"/>
</a>
</g>
</g>
<!-- I1 -->
<g id="node6" class="node">
<title>I1</title>
<ellipse fill="none" stroke="black" cx="130.55" cy="-552.49" rx="27" ry="18"/>
<text text-anchor="middle" x="130.55" y="-548.79" font-family="Times-Roman" font-size="14.00">I</text>
</g>
<!-- PiL0&#45;&gt;I1 -->
<g id="edge12" class="edge">
<title>PiL0&#45;&gt;I1</title>
<g id="a_edge12"><a xlink:title="x1_o2r">
<path fill="none" stroke="red" d="M73.12,-609.33C83.3,-599.43 97.07,-586.04 108.58,-574.85"/>
<polygon fill="red" stroke="red" points="111.02,-577.36 115.75,-567.88 106.14,-572.34 111.02,-577.36"/>
</a>
</g>
</g>
<!-- I1&#45;&gt;!c0 -->
<g id="edge11" class="edge">
<title>I1&#45;&gt;!c0</title>
<g id="a_edge11"><a xlink:title="x1_o2">
<path fill="none" stroke="blue" d="M113.43,-527.53C106.21,-517.42 98.02,-505.95 91.61,-496.99"/>
<polygon fill="blue" stroke="blue" points="110.79,-529.86 119.45,-535.96 116.49,-525.79 110.79,-529.86"/>
</a>
</g>
</g>
<!-- I2 -->
<g id="node7" class="node">
<title>I2</title>
<ellipse fill="none" stroke="black" cx="58.55" cy="-696.49" rx="27" ry="18"/>
<text text-anchor="middle" x="58.55" y="-692.79" font-family="Times-Roman" font-size="14.00">I</text>
</g>
<!-- I2&#45;&gt;PiL0 -->
<g id="edge8" class="edge">
<title>I2&#45;&gt;PiL0</title>
<g id="a_edge8"><a xlink:title="ret_o2l">
<path fill="none" stroke="blue" stroke-width="2" d="M58.55,-668.16C58.55,-659.55 58.55,-650.29 58.55,-642.6"/>
<polygon fill="blue" stroke="blue" stroke-width="2" points="55.05,-668.19 58.55,-678.19 62.05,-668.19 55.05,-668.19"/>
</a>
</g>
</g>
<!-- !p0 -->
<g id="node8" class="node">
<title>!p0</title>
<ellipse fill="none" stroke="black" cx="96.55" cy="-90" rx="27" ry="18"/>
<text text-anchor="middle" x="96.55" y="-86.3" font-family="Times-Roman" font-size="14.00">!p</text>
</g>
<!-- PiR0 -->
<g id="node10" class="node">
<title>PiR0</title>
<ellipse fill="none" stroke="black" cx="41.55" cy="-18" rx="27" ry="18"/>
<text text-anchor="middle" x="41.55" y="-14.3" font-family="Times-Roman" font-size="14.00">PiR</text>
</g>
<!-- !p0&#45;&gt;PiR0 -->
<g id="edge2" class="edge">
<title>!p0&#45;&gt;PiR0</title>
<g id="a_edge2"><a xlink:title="e2">
<path fill="none" stroke="red" d="M84.61,-73.81C77.33,-64.55 67.88,-52.52 59.69,-42.09"/>
<polygon fill="red" stroke="red" points="62.39,-39.86 53.46,-34.16 56.88,-44.18 62.39,-39.86"/>
</a>
</g>
</g>
<!-- Cut0&#45;&gt;!p0 -->
<g id="edge1" class="edge">
<title>Cut0&#45;&gt;!p0</title>
<g id="a_edge1"><a xlink:title="e0">
<path fill="none" stroke="red" d="M96.55,-143.7C96.55,-135.98 96.55,-126.71 96.55,-118.11"/>
<polygon fill="red" stroke="red" points="100.05,-118.1 96.55,-108.1 93.05,-118.1 100.05,-118.1"/>
</a>
</g>
</g>
<!-- PiR0&#45;&gt;Dup0_1 -->
<g id="edge5" class="edge">
<title>PiR0&#45;&gt;Dup0_1</title>
<g id="a_edge5"><a xlink:title="e6">
<path fill="none" stroke="red" d="M34.04,-35.66C22.97,-61.8 3.55,-114.3 3.55,-161 3.55,-625.49 3.55,-625.49 3.55,-625.49 3.55,-667.29 14.98,-714.81 22.96,-742.91"/>
<ellipse fill="red" stroke="red" cx="24.1" cy="-746.8" rx="4" ry="4"/>
</a>
</g>
</g>
<!-- Cut1 -->
<g id="node11" class="node">
<title>Cut1</title>
<ellipse fill="none" stroke="black" cx="96.55" cy="-306" rx="27" ry="18"/>
<text text-anchor="middle" x="96.55" y="-302.3" font-family="Times-Roman" font-size="14.00">Cut</text>
</g>
<!-- Cut1&#45;&gt;I0 -->
<g id="edge10" class="edge">
<title>Cut1&#45;&gt;I0</title>
<g id="a_edge10"><a xlink:title="x1_o1r">
<path fill="none" stroke="red" d="M96.55,-287.7C96.55,-279.98 96.55,-270.71 96.55,-262.11"/>
<polygon fill="red" stroke="red" points="100.05,-262.1 96.55,-252.1 93.05,-262.1 100.05,-262.1"/>
</a>
</g>
</g>
<!-- Dup0_0&#45;&gt;PiR0 -->
<g id="edge3" class="edge">
<title>Dup0_0&#45;&gt;PiR0</title>
<g id="a_edge3"><a xlink:title="e4">
<path fill="none" stroke="blue" d="M65.67,-354.4C54.66,-322.94 41.55,-276.75 41.55,-235 41.55,-235 41.55,-235 41.55,-161 41.55,-115.89 41.55,-62.71 41.55,-36.05"/>
<ellipse fill="blue" stroke="blue" cx="67.07" cy="-358.3" rx="4" ry="4"/>
</a>
</g>
</g>
<!-- Dup0_0&#45;&gt;Cut1 -->
<g id="edge4" class="edge">
<title>Dup0_0&#45;&gt;Cut1</title>
<g id="a_edge4"><a xlink:title="e5">
<path fill="none" stroke="blue" d="M87.99,-352.58C89.87,-342.6 91.78,-332.4 93.32,-324.18"/>
<ellipse fill="none" stroke="blue" cx="87.24" cy="-356.57" rx="4" ry="4"/>
</a>
</g>
</g>
<!-- Dup0_1&#45;&gt;I2 -->
<g id="edge7" class="edge">
<title>Dup0_1&#45;&gt;I2</title>
<g id="a_edge7"><a xlink:title="ret_o2">
<path fill="none" stroke="red" stroke-width="2" d="M37.18,-750.91C40.46,-742.71 44.49,-732.63 48.17,-723.45"/>
<polygon fill="red" stroke="red" stroke-width="2" points="51.5,-724.55 51.96,-713.96 45,-721.95 51.5,-724.55"/>
</a>
</g>
</g>
</g>
</svg>
