<?xml version="1.0" encoding="UTF-8" standalone="no"?>
<!DOCTYPE svg PUBLIC "-//W3C//DTD SVG 1.1//EN"
 "http://www.w3.org/Graphics/SVG/1.1/DTD/svg11.dtd">
<!-- Generated by graphviz version 2.49.3 (0)
 -->
<!-- Pages: 1 -->
<svg width="336pt" height="1292pt"
 viewBox="0.00 0.00 336.25 1292.00" xmlns="http://www.w3.org/2000/svg" xmlns:xlink="http://www.w3.org/1999/xlink">
<g id="graph0" class="graph" transform="scale(1 1) rotate(0) translate(4 1288)">
<polygon fill="white" stroke="transparent" points="-4,4 -4,-1288 332.25,-1288 332.25,4 -4,4"/>
<!-- Identity0 -->
<g id="node1" class="node">
<title>Identity0</title>
<ellipse fill="none" stroke="black" cx="103.25" cy="-1266" rx="38.19" ry="18"/>
<text text-anchor="middle" x="103.25" y="-1262.3" font-family="Times,serif" font-size="14.00">Identity</text>
</g>
<!-- BangD1 -->
<g id="node2" class="node">
<title>BangD1</title>
<ellipse fill="none" stroke="black" cx="103.25" cy="-1194" rx="36" ry="18"/>
<text text-anchor="middle" x="103.25" y="-1190.3" font-family="Times,serif" font-size="14.00">BangD</text>
</g>
<!-- BangD1&#45;&gt;Identity0 -->
<g id="edge25" class="edge">
<title>BangD1&#45;&gt;Identity0</title>
<g id="a_edge25"><a xlink:title="iret84">
<path fill="none" stroke="blue" d="M97.37,-1211.94C96.54,-1219.76 96.3,-1229.25 96.66,-1238.02"/>
<polygon fill="blue" stroke="blue" points="93.18,-1238.48 97.39,-1248.21 100.16,-1237.98 93.18,-1238.48"/>
</a>
</g>
</g>
<!-- BangD1&#45;&gt;Identity0 -->
<g id="edge26" class="edge">
<title>BangD1&#45;&gt;Identity0</title>
<g id="a_edge26"><a xlink:title="iseq83">
<path fill="none" stroke="black" d="M109.13,-1211.94C109.96,-1219.76 110.19,-1229.25 109.84,-1238.02"/>
<polygon fill="black" stroke="black" points="106.33,-1237.98 109.11,-1248.21 113.31,-1238.48 106.33,-1237.98"/>
</a>
</g>
</g>
<!-- PiR2 -->
<g id="node3" class="node">
<title>PiR2</title>
<ellipse fill="none" stroke="black" cx="103.25" cy="-1122" rx="27" ry="18"/>
<text text-anchor="middle" x="103.25" y="-1118.3" font-family="Times,serif" font-size="14.00">PiR</text>
</g>
<!-- PiR2&#45;&gt;Identity0 -->
<g id="edge50" class="edge">
<title>PiR2&#45;&gt;Identity0</title>
<g id="a_edge50"><a xlink:title="ret82">
<path fill="none" stroke="red" d="M87.04,-1136.43C76.62,-1146.18 63.99,-1160.36 58.25,-1176 52.73,-1191.01 52.73,-1196.98 58.25,-1212 62.39,-1223.27 70.11,-1233.79 78.01,-1242.44"/>
<polygon fill="red" stroke="red" points="75.72,-1245.11 85.21,-1249.82 80.73,-1240.22 75.72,-1245.11"/>
</a>
</g>
</g>
<!-- PiR2&#45;&gt;BangD1 -->
<g id="edge20" class="edge">
<title>PiR2&#45;&gt;BangD1</title>
<g id="a_edge20"><a xlink:title="i81">
<path fill="none" stroke="blue" d="M97.41,-1139.58C96.54,-1147.49 96.3,-1157.14 96.66,-1166.06"/>
<polygon fill="blue" stroke="blue" points="93.17,-1166.31 97.37,-1176.04 100.15,-1165.82 93.17,-1166.31"/>
</a>
</g>
</g>
<!-- PiR2&#45;&gt;BangD1 -->
<g id="edge54" class="edge">
<title>PiR2&#45;&gt;BangD1</title>
<g id="a_edge54"><a xlink:title="seq80">
<path fill="none" stroke="black" d="M109.09,-1139.58C109.95,-1147.49 110.2,-1157.14 109.84,-1166.06"/>
<polygon fill="black" stroke="black" points="106.34,-1165.82 109.13,-1176.04 113.33,-1166.31 106.34,-1165.82"/>
</a>
</g>
</g>
<!-- Identity3 -->
<g id="node4" class="node">
<title>Identity3</title>
<ellipse fill="none" stroke="black" cx="194.25" cy="-906" rx="38.19" ry="18"/>
<text text-anchor="middle" x="194.25" y="-902.3" font-family="Times,serif" font-size="14.00">Identity</text>
</g>
<!-- Identity4 -->
<g id="node5" class="node">
<title>Identity4</title>
<ellipse fill="none" stroke="black" cx="261.25" cy="-594" rx="38.19" ry="18"/>
<text text-anchor="middle" x="261.25" y="-590.3" font-family="Times,serif" font-size="14.00">Identity</text>
</g>
<!-- PiL5 -->
<g id="node6" class="node">
<title>PiL5</title>
<ellipse fill="none" stroke="black" cx="221.25" cy="-522" rx="27" ry="18"/>
<text text-anchor="middle" x="221.25" y="-518.3" font-family="Times,serif" font-size="14.00">PiL</text>
</g>
<!-- PiL5&#45;&gt;Identity4 -->
<g id="edge23" class="edge">
<title>PiL5&#45;&gt;Identity4</title>
<g id="a_edge23"><a xlink:title="idseq55">
<path fill="none" stroke="black" d="M229.55,-548.98C232.89,-555.34 236.79,-562.12 240.72,-568.41"/>
<polygon fill="black" stroke="black" points="228.19,-538.39 229.51,-548.9 221.92,-541.5 228.19,-538.39"/>
<polygon fill="black" stroke="black" points="238.05,-570.72 246.45,-577.17 243.9,-566.89 238.05,-570.72"/>
</a>
</g>
</g>
<!-- PiL5&#45;&gt;Identity4 -->
<g id="edge29" class="edge">
<title>PiL5&#45;&gt;Identity4</title>
<g id="a_edge29"><a xlink:title="lret53">
<path fill="none" stroke="blue" d="M235.13,-537.5C241.08,-546 247.67,-556.99 252.91,-566.94"/>
<polygon fill="blue" stroke="blue" points="249.85,-568.66 257.44,-576.05 256.12,-565.54 249.85,-568.66"/>
</a>
</g>
</g>
<!-- Bang11 -->
<g id="node12" class="node">
<title>Bang11</title>
<ellipse fill="none" stroke="black" cx="175.25" cy="-594" rx="29.5" ry="18"/>
<text text-anchor="middle" x="175.25" y="-590.3" font-family="Times,serif" font-size="14.00">Bang</text>
</g>
<!-- PiL5&#45;&gt;Bang11 -->
<g id="edge10" class="edge">
<title>PiL5&#45;&gt;Bang11</title>
<g id="a_edge10"><a xlink:title="dseq54">
<path fill="none" stroke="black" d="M206.39,-537.17C199.58,-545.79 191.84,-557.07 185.64,-567.23"/>
<polygon fill="black" stroke="black" points="182.46,-565.74 180.46,-576.14 188.51,-569.26 182.46,-565.74"/>
</a>
</g>
</g>
<!-- PiL5&#45;&gt;Bang11 -->
<g id="edge39" class="edge">
<title>PiL5&#45;&gt;Bang11</title>
<g id="a_edge39"><a xlink:title="newrret52">
<path fill="none" stroke="red" d="M215.99,-539.95C211.02,-548.96 203.83,-560.17 196.77,-569.96"/>
<polygon fill="red" stroke="red" points="193.86,-568.01 190.67,-578.11 199.47,-572.2 193.86,-568.01"/>
</a>
</g>
</g>
<!-- Assign6 -->
<g id="node7" class="node">
<title>Assign6</title>
<ellipse fill="none" stroke="black" cx="206.25" cy="-18" rx="35.19" ry="18"/>
<text text-anchor="middle" x="206.25" y="-14.3" font-family="Times,serif" font-size="14.00">Assign</text>
</g>
<!-- Dup15 -->
<g id="node16" class="node">
<title>Dup15</title>
<ellipse fill="none" stroke="black" cx="301.25" cy="-306" rx="27" ry="18"/>
<text text-anchor="middle" x="301.25" y="-302.3" font-family="Times,serif" font-size="14.00">Dup</text>
</g>
<!-- Assign6&#45;&gt;Dup15 -->
<g id="edge47" class="edge">
<title>Assign6&#45;&gt;Dup15</title>
<g id="a_edge47"><a xlink:title="ret133">
<path fill="none" stroke="red" d="M219.17,-34.83C226.85,-44.93 236.23,-58.61 242.25,-72 274.01,-142.68 290.74,-233.41 297.53,-277.92"/>
<polygon fill="red" stroke="red" points="294.09,-278.57 299.01,-287.95 301.01,-277.55 294.09,-278.57"/>
</a>
</g>
</g>
<!-- Cut16 -->
<g id="node17" class="node">
<title>Cut16</title>
<ellipse fill="none" stroke="black" cx="206.25" cy="-90" rx="27" ry="18"/>
<text text-anchor="middle" x="206.25" y="-86.3" font-family="Times,serif" font-size="14.00">Cut</text>
</g>
<!-- Assign6&#45;&gt;Cut16 -->
<g id="edge56" class="edge">
<title>Assign6&#45;&gt;Cut16</title>
<g id="a_edge56"><a xlink:title="seqBC94">
<path fill="none" stroke="black" d="M206.25,-36.3C206.25,-44.02 206.25,-53.29 206.25,-61.89"/>
<polygon fill="black" stroke="black" points="202.75,-61.9 206.25,-71.9 209.75,-61.9 202.75,-61.9"/>
</a>
</g>
</g>
<!-- Bang7 -->
<g id="node8" class="node">
<title>Bang7</title>
<ellipse fill="none" stroke="black" cx="206.25" cy="-162" rx="29.5" ry="18"/>
<text text-anchor="middle" x="206.25" y="-158.3" font-family="Times,serif" font-size="14.00">Bang</text>
</g>
<!-- PiR12 -->
<g id="node13" class="node">
<title>PiR12</title>
<ellipse fill="none" stroke="black" cx="206.25" cy="-234" rx="27" ry="18"/>
<text text-anchor="middle" x="206.25" y="-230.3" font-family="Times,serif" font-size="14.00">PiR</text>
</g>
<!-- Bang7&#45;&gt;PiR12 -->
<g id="edge34" class="edge">
<title>Bang7&#45;&gt;PiR12</title>
<g id="a_edge34"><a xlink:title="newcut_bseq100">
<path fill="none" stroke="black" d="M200.37,-179.95C199.54,-187.77 199.3,-197.25 199.66,-206.02"/>
<polygon fill="black" stroke="black" points="196.18,-206.49 200.39,-216.21 203.16,-205.99 196.18,-206.49"/>
</a>
</g>
</g>
<!-- Bang7&#45;&gt;PiR12 -->
<g id="edge46" class="edge">
<title>Bang7&#45;&gt;PiR12</title>
<g id="a_edge46"><a xlink:title="newrretf91">
<path fill="none" stroke="red" d="M212.13,-179.95C212.96,-187.77 213.19,-197.25 212.84,-206.02"/>
<polygon fill="red" stroke="red" points="209.33,-205.99 212.11,-216.21 216.31,-206.49 209.33,-205.99"/>
</a>
</g>
</g>
<!-- Dup8 -->
<g id="node9" class="node">
<title>Dup8</title>
<ellipse fill="none" stroke="black" cx="298.25" cy="-666" rx="27" ry="18"/>
<text text-anchor="middle" x="298.25" y="-662.3" font-family="Times,serif" font-size="14.00">Dup</text>
</g>
<!-- Dup8&#45;&gt;Identity3 -->
<g id="edge44" class="edge">
<title>Dup8&#45;&gt;Identity3</title>
<g id="a_edge44"><a xlink:title="newrretf66">
<path fill="none" stroke="red" d="M295.51,-684.03C289.54,-717.83 273.28,-795.02 241.25,-852 235.09,-862.94 226.37,-873.58 218.11,-882.43"/>
<polygon fill="red" stroke="red" points="215.51,-880.09 211.05,-889.7 220.53,-884.97 215.51,-880.09"/>
</a>
</g>
</g>
<!-- BangC9 -->
<g id="node10" class="node">
<title>BangC9</title>
<ellipse fill="none" stroke="black" cx="221.25" cy="-378" rx="35.19" ry="18"/>
<text text-anchor="middle" x="221.25" y="-374.3" font-family="Times,serif" font-size="14.00">BangC</text>
</g>
<!-- Cut10 -->
<g id="node11" class="node">
<title>Cut10</title>
<ellipse fill="none" stroke="black" cx="221.25" cy="-450" rx="27" ry="18"/>
<text text-anchor="middle" x="221.25" y="-446.3" font-family="Times,serif" font-size="14.00">Cut</text>
</g>
<!-- BangC9&#45;&gt;Cut10 -->
<g id="edge55" class="edge">
<title>BangC9&#45;&gt;Cut10</title>
<g id="a_edge55"><a xlink:title="seqBC118">
<path fill="none" stroke="black" d="M221.25,-396.3C221.25,-404.02 221.25,-413.29 221.25,-421.89"/>
<polygon fill="black" stroke="black" points="217.75,-421.9 221.25,-431.9 224.75,-421.9 217.75,-421.9"/>
</a>
</g>
</g>
<!-- BangC9&#45;&gt;Bang11 -->
<g id="edge12" class="edge">
<title>BangC9&#45;&gt;Bang11</title>
<g id="a_edge12"><a xlink:title="h116">
<path fill="none" stroke="blue" d="M200.97,-402.99C194.81,-411.6 188.76,-421.74 185.25,-432 169.87,-477 170.49,-533.14 172.65,-565.84"/>
<polygon fill="blue" stroke="blue" points="209.86,-397.05 201.03,-402.91 204.28,-392.82 209.86,-397.05"/>
<polygon fill="blue" stroke="blue" points="169.18,-566.28 173.43,-575.98 176.16,-565.74 169.18,-566.28"/>
</a>
</g>
</g>
<!-- BangD17 -->
<g id="node18" class="node">
<title>BangD17</title>
<ellipse fill="none" stroke="black" cx="102.25" cy="-522" rx="36" ry="18"/>
<text text-anchor="middle" x="102.25" y="-518.3" font-family="Times,serif" font-size="14.00">BangD</text>
</g>
<!-- BangC9&#45;&gt;BangD17 -->
<g id="edge16" class="edge">
<title>BangC9&#45;&gt;BangD17</title>
<g id="a_edge16"><a xlink:title="hf107">
<path fill="none" stroke="blue" d="M199.48,-392.36C184.88,-402.07 165.9,-416.24 152.25,-432 135.75,-451.05 122.15,-476.4 113.32,-495.17"/>
<polygon fill="blue" stroke="blue" points="110.11,-493.77 109.15,-504.32 116.48,-496.67 110.11,-493.77"/>
</a>
</g>
</g>
<!-- Cut10&#45;&gt;PiL5 -->
<g id="edge33" class="edge">
<title>Cut10&#45;&gt;PiL5</title>
<g id="a_edge33"><a xlink:title="lval48">
<path fill="none" stroke="blue" d="M215.41,-467.59C214.54,-475.49 214.3,-485.15 214.66,-494.06"/>
<polygon fill="blue" stroke="blue" points="211.17,-494.32 215.37,-504.04 218.15,-493.82 211.17,-494.32"/>
</a>
</g>
</g>
<!-- Cut10&#45;&gt;PiL5 -->
<g id="edge57" class="edge">
<title>Cut10&#45;&gt;PiL5</title>
<g id="a_edge57"><a xlink:title="yseq50">
<path fill="none" stroke="black" d="M227.83,-477.81C228.05,-483.05 228.05,-488.54 227.85,-493.78"/>
<polygon fill="black" stroke="black" points="230.58,-467.34 227.81,-477.56 223.6,-467.84 230.58,-467.34"/>
<polygon fill="black" stroke="black" points="224.34,-493.82 227.13,-504.04 231.32,-494.31 224.34,-493.82"/>
</a>
</g>
</g>
<!-- Cut10&#45;&gt;Dup8 -->
<g id="edge40" class="edge">
<title>Cut10&#45;&gt;Dup8</title>
<g id="a_edge40"><a xlink:title="newrretf108">
<path fill="none" stroke="red" d="M235.93,-465.5C256.78,-487.24 294,-530.59 308.25,-576 314.63,-596.34 311.31,-620.42 306.85,-638.4"/>
<polygon fill="red" stroke="red" points="303.43,-637.64 304.15,-648.21 310.18,-639.49 303.43,-637.64"/>
</a>
</g>
</g>
<!-- Cut10&#45;&gt;BangD17 -->
<g id="edge1" class="edge">
<title>Cut10&#45;&gt;BangD17</title>
<g id="a_edge1"><a xlink:title="c_bseq106">
<path fill="none" stroke="black" d="M201.6,-462.56C183.11,-473.43 155.13,-489.89 133.57,-502.57"/>
<polygon fill="black" stroke="black" points="131.62,-499.66 124.77,-507.75 135.16,-505.7 131.62,-499.66"/>
</a>
</g>
</g>
<!-- Bang11&#45;&gt;Dup8 -->
<g id="edge41" class="edge">
<title>Bang11&#45;&gt;Dup8</title>
<g id="a_edge41"><a xlink:title="newrretf114">
<path fill="none" stroke="red" d="M196.11,-606.87C216.23,-618.33 246.86,-635.75 269.32,-648.54"/>
<polygon fill="none" stroke="red" points="267.68,-651.63 278.1,-653.53 271.14,-645.54 267.68,-651.63"/>
</a>
</g>
</g>
<!-- BangD18 -->
<g id="node19" class="node">
<title>BangD18</title>
<ellipse fill="none" stroke="black" cx="175.25" cy="-666" rx="36" ry="18"/>
<text text-anchor="middle" x="175.25" y="-662.3" font-family="Times,serif" font-size="14.00">BangD</text>
</g>
<!-- Bang11&#45;&gt;BangD18 -->
<g id="edge17" class="edge">
<title>Bang11&#45;&gt;BangD18</title>
<g id="a_edge17"><a xlink:title="hf113">
<path fill="none" stroke="blue" d="M169.37,-611.95C168.54,-619.77 168.3,-629.25 168.66,-638.02"/>
<polygon fill="blue" stroke="blue" points="165.18,-638.49 169.39,-648.21 172.16,-637.99 165.18,-638.49"/>
</a>
</g>
</g>
<!-- Bang11&#45;&gt;BangD18 -->
<g id="edge35" class="edge">
<title>Bang11&#45;&gt;BangD18</title>
<g id="a_edge35"><a xlink:title="newcut_bseq125">
<path fill="none" stroke="black" d="M181.13,-611.95C181.96,-619.77 182.19,-629.25 181.84,-638.02"/>
<polygon fill="black" stroke="black" points="178.33,-637.99 181.11,-648.21 185.31,-638.49 178.33,-637.99"/>
</a>
</g>
</g>
<!-- Dup13 -->
<g id="node14" class="node">
<title>Dup13</title>
<ellipse fill="none" stroke="black" cx="221.25" cy="-306" rx="27" ry="18"/>
<text text-anchor="middle" x="221.25" y="-302.3" font-family="Times,serif" font-size="14.00">Dup</text>
</g>
<!-- PiR12&#45;&gt;Dup13 -->
<g id="edge52" class="edge">
<title>PiR12&#45;&gt;Dup13</title>
<g id="a_edge52"><a xlink:title="seq135">
<path fill="none" stroke="black" d="M209.88,-251.95C211.55,-259.74 213.57,-269.18 215.44,-277.92"/>
<polygon fill="none" stroke="black" points="212.03,-278.68 217.55,-287.72 218.87,-277.21 212.03,-278.68"/>
</a>
</g>
</g>
<!-- Dup14 -->
<g id="node15" class="node">
<title>Dup14</title>
<ellipse fill="none" stroke="black" cx="149.25" cy="-306" rx="27" ry="18"/>
<text text-anchor="middle" x="149.25" y="-302.3" font-family="Times,serif" font-size="14.00">Dup</text>
</g>
<!-- PiR12&#45;&gt;Dup14 -->
<g id="edge14" class="edge">
<title>PiR12&#45;&gt;Dup14</title>
<g id="a_edge14"><a xlink:title="h136">
<path fill="none" stroke="blue" d="M193.88,-250.19C186.34,-259.45 176.54,-271.48 168.05,-281.91"/>
<polygon fill="none" stroke="blue" points="165.19,-279.88 161.59,-289.84 170.62,-284.3 165.19,-279.88"/>
</a>
</g>
</g>
<!-- PiR12&#45;&gt;Dup15 -->
<g id="edge48" class="edge">
<title>PiR12&#45;&gt;Dup15</title>
<g id="a_edge48"><a xlink:title="ret137">
<path fill="none" stroke="red" d="M223.67,-247.84C238.18,-258.53 259.04,-273.9 275.48,-286.01"/>
<polygon fill="none" stroke="red" points="273.48,-288.89 283.61,-292.01 277.64,-283.26 273.48,-288.89"/>
</a>
</g>
</g>
<!-- Dup13&#45;&gt;BangC9 -->
<g id="edge53" class="edge">
<title>Dup13&#45;&gt;BangC9</title>
<g id="a_edge53"><a xlink:title="seq33">
<path fill="none" stroke="black" d="M221.25,-324.3C221.25,-332.02 221.25,-341.29 221.25,-349.89"/>
<polygon fill="black" stroke="black" points="217.75,-349.9 221.25,-359.9 224.75,-349.9 217.75,-349.9"/>
</a>
</g>
</g>
<!-- Dup14&#45;&gt;BangC9 -->
<g id="edge15" class="edge">
<title>Dup14&#45;&gt;BangC9</title>
<g id="a_edge15"><a xlink:title="h34">
<path fill="none" stroke="blue" d="M163.82,-321.17C173.63,-330.71 186.79,-343.5 198.04,-354.43"/>
<polygon fill="blue" stroke="blue" points="195.84,-357.18 205.45,-361.64 200.72,-352.16 195.84,-357.18"/>
</a>
</g>
</g>
<!-- Dup15&#45;&gt;Identity4 -->
<g id="edge49" class="edge">
<title>Dup15&#45;&gt;Identity4</title>
<g id="a_edge49"><a xlink:title="ret42">
<path fill="none" stroke="red" d="M298.87,-324.03C292.18,-371.81 273.22,-507.38 265.06,-565.73"/>
<polygon fill="red" stroke="red" points="261.59,-565.31 263.67,-575.69 268.52,-566.27 261.59,-565.31"/>
</a>
</g>
</g>
<!-- Cut16&#45;&gt;Bang7 -->
<g id="edge9" class="edge">
<title>Cut16&#45;&gt;Bang7</title>
<g id="a_edge9"><a xlink:title="dseq20">
<path fill="none" stroke="black" d="M200.41,-107.59C199.54,-115.49 199.3,-125.15 199.66,-134.06"/>
<polygon fill="black" stroke="black" points="196.17,-134.32 200.37,-144.04 203.15,-133.82 196.17,-134.32"/>
</a>
</g>
</g>
<!-- Cut16&#45;&gt;Bang7 -->
<g id="edge38" class="edge">
<title>Cut16&#45;&gt;Bang7</title>
<g id="a_edge38"><a xlink:title="newrret18">
<path fill="none" stroke="red" d="M212.09,-107.59C212.95,-115.49 213.2,-125.15 212.84,-134.06"/>
<polygon fill="red" stroke="red" points="209.34,-133.82 212.13,-144.04 216.33,-134.32 209.34,-133.82"/>
</a>
</g>
</g>
<!-- Cut16&#45;&gt;Dup13 -->
<g id="edge51" class="edge">
<title>Cut16&#45;&gt;Dup13</title>
<g id="a_edge51"><a xlink:title="seq131">
<path fill="none" stroke="black" d="M226.91,-113.25C233.82,-122.14 240.68,-132.89 244.25,-144 248.21,-156.32 247.06,-228.56 242.25,-252 240.36,-261.2 236.99,-270.86 233.49,-279.37"/>
<polygon fill="black" stroke="black" points="223.06,-103.12 226.74,-113.06 217.67,-107.59 223.06,-103.12"/>
<polygon fill="black" stroke="black" points="230.19,-278.18 229.41,-288.75 236.61,-280.98 230.19,-278.18"/>
</a>
</g>
</g>
<!-- Cut16&#45;&gt;Dup14 -->
<g id="edge13" class="edge">
<title>Cut16&#45;&gt;Dup14</title>
<g id="a_edge13"><a xlink:title="h132">
<path fill="none" stroke="blue" d="M192.32,-106C183.88,-116 173.73,-129.85 168.25,-144 150.98,-188.56 148.26,-244.84 148.38,-277.69"/>
<polygon fill="blue" stroke="blue" points="144.89,-277.93 148.52,-287.88 151.89,-277.84 144.89,-277.93"/>
</a>
</g>
</g>
<!-- PiL19 -->
<g id="node20" class="node">
<title>PiL19</title>
<ellipse fill="none" stroke="black" cx="102.25" cy="-738" rx="27" ry="18"/>
<text text-anchor="middle" x="102.25" y="-734.3" font-family="Times,serif" font-size="14.00">PiL</text>
</g>
<!-- BangD17&#45;&gt;PiL19 -->
<g id="edge18" class="edge">
<title>BangD17&#45;&gt;PiL19</title>
<g id="a_edge18"><a xlink:title="hseq140">
<path fill="none" stroke="black" d="M98.37,-540.15C94.83,-577.26 94.56,-665.25 97.58,-709.95"/>
<polygon fill="black" stroke="black" points="94.1,-710.38 98.39,-720.06 101.08,-709.82 94.1,-710.38"/>
</a>
</g>
</g>
<!-- BangD17&#45;&gt;PiL19 -->
<g id="edge31" class="edge">
<title>BangD17&#45;&gt;PiL19</title>
<g id="a_edge31"><a xlink:title="lval141">
<path fill="none" stroke="blue" d="M106.12,-540.15C109.67,-577.26 109.93,-665.25 106.92,-709.95"/>
<polygon fill="blue" stroke="blue" points="103.42,-709.82 106.1,-720.06 110.39,-710.38 103.42,-709.82"/>
</a>
</g>
</g>
<!-- PiL20 -->
<g id="node21" class="node">
<title>PiL20</title>
<ellipse fill="none" stroke="black" cx="175.25" cy="-738" rx="27" ry="18"/>
<text text-anchor="middle" x="175.25" y="-734.3" font-family="Times,serif" font-size="14.00">PiL</text>
</g>
<!-- BangD18&#45;&gt;PiL20 -->
<g id="edge19" class="edge">
<title>BangD18&#45;&gt;PiL20</title>
<g id="a_edge19"><a xlink:title="hseq143">
<path fill="none" stroke="black" d="M169.37,-683.95C168.54,-691.77 168.3,-701.25 168.66,-710.02"/>
<polygon fill="black" stroke="black" points="165.18,-710.49 169.39,-720.21 172.16,-709.99 165.18,-710.49"/>
</a>
</g>
</g>
<!-- BangD18&#45;&gt;PiL20 -->
<g id="edge32" class="edge">
<title>BangD18&#45;&gt;PiL20</title>
<g id="a_edge32"><a xlink:title="lval144">
<path fill="none" stroke="blue" d="M181.13,-683.95C181.96,-691.77 182.19,-701.25 181.84,-710.02"/>
<polygon fill="blue" stroke="blue" points="178.33,-709.99 181.11,-720.21 185.31,-710.49 178.33,-709.99"/>
</a>
</g>
</g>
<!-- Dup21 -->
<g id="node22" class="node">
<title>Dup21</title>
<ellipse fill="none" stroke="black" cx="58.25" cy="-822" rx="26" ry="26"/>
<ellipse fill="none" stroke="black" cx="58.25" cy="-822" rx="30" ry="30"/>
<text text-anchor="middle" x="58.25" y="-818.3" font-family="Times,serif" font-size="14.00">Dup</text>
</g>
<!-- PiL19&#45;&gt;Dup21 -->
<g id="edge5" class="edge">
<title>PiL19&#45;&gt;Dup21</title>
<g id="a_edge5"><a xlink:title="dseq146">
<path fill="none" stroke="black" d="M93.55,-755.2C88.78,-764.1 82.67,-775.49 76.87,-786.29"/>
<polygon fill="black" stroke="black" points="73.76,-784.68 72.12,-795.15 79.93,-787.99 73.76,-784.68"/>
</a>
</g>
</g>
<!-- Dup22 -->
<g id="node23" class="node">
<title>Dup22</title>
<ellipse fill="none" stroke="black" cx="205.25" cy="-822" rx="27" ry="18"/>
<text text-anchor="middle" x="205.25" y="-818.3" font-family="Times,serif" font-size="14.00">Dup</text>
</g>
<!-- PiL19&#45;&gt;Dup22 -->
<g id="edge21" class="edge">
<title>PiL19&#45;&gt;Dup22</title>
<g id="a_edge21"><a xlink:title="idseq148">
<path fill="none" stroke="black" d="M127.29,-758.72C139.89,-768.67 155.4,-780.95 169.25,-792 173.05,-795.03 177.06,-798.25 180.98,-801.4"/>
<polygon fill="black" stroke="black" points="121.24,-749.5 126.93,-758.44 116.91,-754.99 121.24,-749.5"/>
<polygon fill="black" stroke="black" points="178.8,-804.14 188.78,-807.69 183.19,-798.69 178.8,-804.14"/>
</a>
</g>
</g>
<!-- Dup23 -->
<g id="node24" class="node">
<title>Dup23</title>
<ellipse fill="none" stroke="black" cx="133.25" cy="-822" rx="27" ry="18"/>
<text text-anchor="middle" x="133.25" y="-818.3" font-family="Times,serif" font-size="14.00">Dup</text>
</g>
<!-- PiL19&#45;&gt;Dup23 -->
<g id="edge27" class="edge">
<title>PiL19&#45;&gt;Dup23</title>
<g id="a_edge27"><a xlink:title="lret149">
<path fill="none" stroke="blue" d="M108.52,-755.59C112.76,-766.82 118.46,-781.88 123.31,-794.72"/>
<polygon fill="blue" stroke="blue" points="120.17,-796.31 126.98,-804.43 126.72,-793.84 120.17,-796.31"/>
</a>
</g>
</g>
<!-- Bang24 -->
<g id="node25" class="node">
<title>Bang24</title>
<ellipse fill="none" stroke="black" cx="29.25" cy="-978" rx="29.5" ry="18"/>
<text text-anchor="middle" x="29.25" y="-974.3" font-family="Times,serif" font-size="14.00">Bang</text>
</g>
<!-- PiL19&#45;&gt;Bang24 -->
<g id="edge36" class="edge">
<title>PiL19&#45;&gt;Bang24</title>
<g id="a_edge36"><a xlink:title="newrret147">
<path fill="none" stroke="red" d="M78.47,-746.85C58.65,-754.8 31.74,-769.21 19.25,-792 -8.44,-842.54 7.52,-912.94 19.6,-950.66"/>
<polygon fill="red" stroke="red" points="16.36,-952.02 22.86,-960.38 23,-949.79 16.36,-952.02"/>
</a>
</g>
</g>
<!-- PiL20&#45;&gt;Dup21 -->
<g id="edge6" class="edge">
<title>PiL20&#45;&gt;Dup21</title>
<g id="a_edge6"><a xlink:title="dseq151">
<path fill="none" stroke="black" d="M156.81,-751.2C140.91,-761.81 117.4,-777.67 97.25,-792 94.93,-793.65 92.54,-795.37 90.15,-797.11"/>
<polygon fill="none" stroke="black" points="88.05,-794.31 82.05,-803.05 92.19,-799.95 88.05,-794.31"/>
</a>
</g>
</g>
<!-- PiL20&#45;&gt;Dup22 -->
<g id="edge22" class="edge">
<title>PiL20&#45;&gt;Dup22</title>
<g id="a_edge22"><a xlink:title="idseq153">
<path fill="none" stroke="black" d="M184.87,-765.3C188.32,-774.74 192.21,-785.36 195.66,-794.79"/>
<polygon fill="black" stroke="black" points="184.61,-754.39 184.75,-764.98 178.03,-756.8 184.61,-754.39"/>
<polygon fill="none" stroke="black" points="192.46,-796.24 199.19,-804.43 199.04,-793.84 192.46,-796.24"/>
</a>
</g>
</g>
<!-- PiL20&#45;&gt;Dup23 -->
<g id="edge28" class="edge">
<title>PiL20&#45;&gt;Dup23</title>
<g id="a_edge28"><a xlink:title="lret154">
<path fill="none" stroke="blue" d="M166.95,-755.2C161.02,-766.77 152.94,-782.55 146.17,-795.76"/>
<polygon fill="none" stroke="blue" points="142.97,-794.34 141.53,-804.83 149.2,-797.53 142.97,-794.34"/>
</a>
</g>
</g>
<!-- Bang25 -->
<g id="node26" class="node">
<title>Bang25</title>
<ellipse fill="none" stroke="black" cx="105.25" cy="-978" rx="29.5" ry="18"/>
<text text-anchor="middle" x="105.25" y="-974.3" font-family="Times,serif" font-size="14.00">Bang</text>
</g>
<!-- PiL20&#45;&gt;Bang25 -->
<g id="edge37" class="edge">
<title>PiL20&#45;&gt;Bang25</title>
<g id="a_edge37"><a xlink:title="newrret152">
<path fill="none" stroke="red" d="M196.52,-749.41C212.08,-758.33 232.03,-772.79 241.25,-792 266.61,-844.9 274.35,-875.56 241.25,-924 219.63,-955.61 176.14,-968.37 144.13,-973.52"/>
<polygon fill="red" stroke="red" points="143.59,-970.06 134.18,-974.94 144.58,-976.99 143.59,-970.06"/>
</a>
</g>
</g>
<!-- DupI28 -->
<g id="node29" class="node">
<title>DupI28</title>
<ellipse fill="none" stroke="black" cx="58.25" cy="-906" rx="28.7" ry="18"/>
<text text-anchor="middle" x="58.25" y="-902.3" font-family="Times,serif" font-size="14.00">DupI</text>
</g>
<!-- Dup21&#45;&gt;DupI28 -->
<g id="edge11" class="edge">
<title>Dup21&#45;&gt;DupI28</title>
<g id="a_edge11"><a xlink:title="dseq76">
<path fill="none" stroke="black" stroke-width="2" d="M58.25,-852.14C58.25,-860.46 58.25,-869.49 58.25,-877.7"/>
<polygon fill="black" stroke="black" stroke-width="2" points="54.75,-877.88 58.25,-887.88 61.75,-877.88 54.75,-877.88"/>
</a>
</g>
</g>
<!-- Dup22&#45;&gt;Identity3 -->
<g id="edge24" class="edge">
<title>Dup22&#45;&gt;Identity3</title>
<g id="a_edge24"><a xlink:title="idseq77">
<path fill="none" stroke="black" d="M202.97,-839.99C201.5,-850.91 199.57,-865.34 197.89,-877.83"/>
<polygon fill="black" stroke="black" points="194.42,-877.37 196.56,-887.75 201.36,-878.3 194.42,-877.37"/>
</a>
</g>
</g>
<!-- Dup23&#45;&gt;Identity3 -->
<g id="edge30" class="edge">
<title>Dup23&#45;&gt;Identity3</title>
<g id="a_edge30"><a xlink:title="lret75">
<path fill="none" stroke="blue" d="M144.72,-838.42C153.58,-850.33 166.01,-867.03 176.2,-880.73"/>
<polygon fill="blue" stroke="blue" points="173.42,-882.87 182.2,-888.8 179.04,-878.69 173.42,-882.87"/>
</a>
</g>
</g>
<!-- Dup26 -->
<g id="node27" class="node">
<title>Dup26</title>
<ellipse fill="none" stroke="black" cx="103.25" cy="-1050" rx="27" ry="18"/>
<text text-anchor="middle" x="103.25" y="-1046.3" font-family="Times,serif" font-size="14.00">Dup</text>
</g>
<!-- Bang24&#45;&gt;Dup26 -->
<g id="edge2" class="edge">
<title>Bang24&#45;&gt;Dup26</title>
<g id="a_edge2"><a xlink:title="c_bseq156">
<path fill="none" stroke="black" d="M44.58,-993.5C55.07,-1003.42 69.14,-1016.73 80.88,-1027.83"/>
<polygon fill="black" stroke="black" points="78.52,-1030.42 88.19,-1034.75 83.33,-1025.33 78.52,-1030.42"/>
</a>
</g>
</g>
<!-- Dup27 -->
<g id="node28" class="node">
<title>Dup27</title>
<ellipse fill="none" stroke="black" cx="31.25" cy="-1050" rx="27" ry="18"/>
<text text-anchor="middle" x="31.25" y="-1046.3" font-family="Times,serif" font-size="14.00">Dup</text>
</g>
<!-- Bang24&#45;&gt;Dup27 -->
<g id="edge42" class="edge">
<title>Bang24&#45;&gt;Dup27</title>
<g id="a_edge42"><a xlink:title="newrretf157">
<path fill="none" stroke="red" d="M29.74,-996.3C29.96,-1004.01 30.23,-1013.28 30.47,-1021.88"/>
<polygon fill="red" stroke="red" points="26.97,-1022 30.76,-1031.89 33.97,-1021.8 26.97,-1022"/>
</a>
</g>
</g>
<!-- Bang25&#45;&gt;Dup26 -->
<g id="edge3" class="edge">
<title>Bang25&#45;&gt;Dup26</title>
<g id="a_edge3"><a xlink:title="c_bseq159">
<path fill="none" stroke="black" d="M104.75,-996.3C104.53,-1004.01 104.27,-1013.28 104.02,-1021.88"/>
<polygon fill="none" stroke="black" points="100.52,-1021.8 103.74,-1031.89 107.52,-1022 100.52,-1021.8"/>
</a>
</g>
</g>
<!-- Bang25&#45;&gt;Dup27 -->
<g id="edge43" class="edge">
<title>Bang25&#45;&gt;Dup27</title>
<g id="a_edge43"><a xlink:title="newrretf160">
<path fill="none" stroke="red" d="M89.91,-993.5C79.43,-1003.42 65.35,-1016.73 53.62,-1027.83"/>
<polygon fill="none" stroke="red" points="51.17,-1025.33 46.31,-1034.75 55.98,-1030.42 51.17,-1025.33"/>
</a>
</g>
</g>
<!-- Dup26&#45;&gt;PiR2 -->
<g id="edge4" class="edge">
<title>Dup26&#45;&gt;PiR2</title>
<g id="a_edge4"><a xlink:title="c_bseq79">
<path fill="none" stroke="black" d="M103.25,-1068.3C103.25,-1076.01 103.25,-1085.28 103.25,-1093.88"/>
<polygon fill="black" stroke="black" points="99.75,-1093.89 103.25,-1103.89 106.75,-1093.89 99.75,-1093.89"/>
</a>
</g>
</g>
<!-- Dup27&#45;&gt;PiR2 -->
<g id="edge45" class="edge">
<title>Dup27&#45;&gt;PiR2</title>
<g id="a_edge45"><a xlink:title="newrretf78">
<path fill="none" stroke="red" d="M45.82,-1065.16C56,-1075.06 69.77,-1088.45 81.28,-1099.64"/>
<polygon fill="red" stroke="red" points="78.84,-1102.15 88.45,-1106.61 83.72,-1097.13 78.84,-1102.15"/>
</a>
</g>
</g>
<!-- DupI28&#45;&gt;Bang24 -->
<g id="edge7" class="edge">
<title>DupI28&#45;&gt;Bang24</title>
<g id="a_edge7"><a xlink:title="dseq158">
<path fill="none" stroke="black" d="M51.37,-923.58C48.03,-931.66 43.93,-941.56 40.17,-950.64"/>
<polygon fill="black" stroke="black" points="36.87,-949.46 36.27,-960.04 43.33,-952.14 36.87,-949.46"/>
</a>
</g>
</g>
<!-- DupI28&#45;&gt;Bang25 -->
<g id="edge8" class="edge">
<title>DupI28&#45;&gt;Bang25</title>
<g id="a_edge8"><a xlink:title="dseq161">
<path fill="none" stroke="black" d="M74.69,-931.48C79.34,-938.41 84.4,-945.94 89.04,-952.85"/>
<polygon fill="black" stroke="black" points="71.82,-920.93 74.49,-931.18 66.01,-924.83 71.82,-920.93"/>
<polygon fill="black" stroke="black" points="86.14,-954.82 94.62,-961.17 91.96,-950.92 86.14,-954.82"/>
</a>
</g>
</g>
</g>
</svg>
