<?xml version="1.0" encoding="UTF-8" standalone="no"?>
<!DOCTYPE svg PUBLIC "-//W3C//DTD SVG 1.1//EN"
 "http://www.w3.org/Graphics/SVG/1.1/DTD/svg11.dtd">
<!-- Generated by graphviz version 2.49.3 (0)
 -->
<!-- Pages: 1 -->
<svg width="391pt" height="1215pt"
 viewBox="0.00 0.00 391.35 1214.80" xmlns="http://www.w3.org/2000/svg" xmlns:xlink="http://www.w3.org/1999/xlink">
<g id="graph0" class="graph" transform="scale(1 1) rotate(0) translate(4 1210.8)">
<polygon fill="white" stroke="transparent" points="-4,4 -4,-1210.8 387.35,-1210.8 387.35,4 -4,4"/>
<!-- Identity0 -->
<g id="node1" class="node">
<title>Identity0</title>
<ellipse fill="none" stroke="black" cx="291.35" cy="-1188.8" rx="38.19" ry="18"/>
<text text-anchor="middle" x="291.35" y="-1185.1" font-family="Times,serif" font-size="14.00">Identity</text>
</g>
<!-- BangD1 -->
<g id="node2" class="node">
<title>BangD1</title>
<ellipse fill="none" stroke="black" cx="291.35" cy="-1116.8" rx="36" ry="18"/>
<text text-anchor="middle" x="291.35" y="-1113.1" font-family="Times,serif" font-size="14.00">BangD</text>
</g>
<!-- BangD1&#45;&gt;Identity0 -->
<g id="edge19" class="edge">
<title>BangD1&#45;&gt;Identity0</title>
<g id="a_edge19"><a xlink:title="iret84">
<path fill="none" stroke="blue" d="M285.47,-1134.74C284.64,-1142.57 284.4,-1152.05 284.76,-1160.82"/>
<polygon fill="blue" stroke="blue" points="281.28,-1161.28 285.49,-1171.01 288.26,-1160.78 281.28,-1161.28"/>
</a>
</g>
</g>
<!-- BangD1&#45;&gt;Identity0 -->
<g id="edge20" class="edge">
<title>BangD1&#45;&gt;Identity0</title>
<g id="a_edge20"><a xlink:title="iseq83">
<path fill="none" stroke="black" d="M297.22,-1134.74C298.06,-1142.57 298.29,-1152.05 297.94,-1160.82"/>
<polygon fill="black" stroke="black" points="294.43,-1160.78 297.21,-1171.01 301.41,-1161.28 294.43,-1160.78"/>
</a>
</g>
</g>
<!-- PiR2 -->
<g id="node3" class="node">
<title>PiR2</title>
<ellipse fill="none" stroke="black" cx="291.35" cy="-1044.8" rx="27" ry="18"/>
<text text-anchor="middle" x="291.35" y="-1041.1" font-family="Times,serif" font-size="14.00">PiR</text>
</g>
<!-- PiR2&#45;&gt;Identity0 -->
<g id="edge40" class="edge">
<title>PiR2&#45;&gt;Identity0</title>
<g id="a_edge40"><a xlink:title="ret82">
<path fill="none" stroke="red" d="M275.14,-1059.23C264.72,-1068.98 252.09,-1083.16 246.35,-1098.8 240.83,-1113.81 240.83,-1119.78 246.35,-1134.8 250.49,-1146.07 258.21,-1156.59 266.11,-1165.24"/>
<polygon fill="red" stroke="red" points="263.82,-1167.91 273.31,-1172.62 268.83,-1163.02 263.82,-1167.91"/>
</a>
</g>
</g>
<!-- PiR2&#45;&gt;BangD1 -->
<g id="edge15" class="edge">
<title>PiR2&#45;&gt;BangD1</title>
<g id="a_edge15"><a xlink:title="i81">
<path fill="none" stroke="blue" d="M285.51,-1062.38C284.64,-1070.29 284.39,-1079.94 284.76,-1088.86"/>
<polygon fill="blue" stroke="blue" points="281.27,-1089.11 285.47,-1098.84 288.25,-1088.62 281.27,-1089.11"/>
</a>
</g>
</g>
<!-- PiR2&#45;&gt;BangD1 -->
<g id="edge44" class="edge">
<title>PiR2&#45;&gt;BangD1</title>
<g id="a_edge44"><a xlink:title="seq80">
<path fill="none" stroke="black" d="M297.19,-1062.38C298.05,-1070.29 298.3,-1079.94 297.93,-1088.86"/>
<polygon fill="black" stroke="black" points="294.44,-1088.62 297.23,-1098.84 301.43,-1089.11 294.44,-1088.62"/>
</a>
</g>
</g>
<!-- Bang3 -->
<g id="node4" class="node">
<title>Bang3</title>
<ellipse fill="none" stroke="black" cx="291.35" cy="-972.8" rx="29.5" ry="18"/>
<text text-anchor="middle" x="291.35" y="-969.1" font-family="Times,serif" font-size="14.00">Bang</text>
</g>
<!-- Bang3&#45;&gt;PiR2 -->
<g id="edge3" class="edge">
<title>Bang3&#45;&gt;PiR2</title>
<g id="a_edge3"><a xlink:title="c_bseq79">
<path fill="none" stroke="black" d="M285.47,-990.74C284.64,-998.57 284.4,-1008.05 284.76,-1016.82"/>
<polygon fill="black" stroke="black" points="281.28,-1017.28 285.49,-1027.01 288.26,-1016.78 281.28,-1017.28"/>
</a>
</g>
</g>
<!-- Bang3&#45;&gt;PiR2 -->
<g id="edge34" class="edge">
<title>Bang3&#45;&gt;PiR2</title>
<g id="a_edge34"><a xlink:title="newrretf78">
<path fill="none" stroke="red" d="M297.22,-990.74C298.06,-998.57 298.29,-1008.05 297.94,-1016.82"/>
<polygon fill="red" stroke="red" points="294.43,-1016.78 297.21,-1027.01 301.41,-1017.28 294.43,-1016.78"/>
</a>
</g>
</g>
<!-- Identity4 -->
<g id="node5" class="node">
<title>Identity4</title>
<ellipse fill="none" stroke="black" cx="205.35" cy="-972.8" rx="38.19" ry="18"/>
<text text-anchor="middle" x="205.35" y="-969.1" font-family="Times,serif" font-size="14.00">Identity</text>
</g>
<!-- PiL5 -->
<g id="node6" class="node">
<title>PiL5</title>
<ellipse fill="none" stroke="black" cx="284.35" cy="-900.8" rx="27" ry="18"/>
<text text-anchor="middle" x="284.35" y="-897.1" font-family="Times,serif" font-size="14.00">PiL</text>
</g>
<!-- PiL5&#45;&gt;Bang3 -->
<g id="edge6" class="edge">
<title>PiL5&#45;&gt;Bang3</title>
<g id="a_edge6"><a xlink:title="dseq76">
<path fill="none" stroke="black" d="M280.16,-918.74C280.11,-926.65 280.84,-936.26 282.1,-945.11"/>
<polygon fill="black" stroke="black" points="278.66,-945.75 283.81,-955.01 285.56,-944.56 278.66,-945.75"/>
</a>
</g>
</g>
<!-- PiL5&#45;&gt;Bang3 -->
<g id="edge30" class="edge">
<title>PiL5&#45;&gt;Bang3</title>
<g id="a_edge30"><a xlink:title="newrret74">
<path fill="none" stroke="red" d="M291.85,-918.38C293.48,-926.2 294.69,-935.73 295.22,-944.57"/>
<polygon fill="red" stroke="red" points="291.73,-944.95 295.53,-954.84 298.73,-944.74 291.73,-944.95"/>
</a>
</g>
</g>
<!-- PiL5&#45;&gt;Identity4 -->
<g id="edge18" class="edge">
<title>PiL5&#45;&gt;Identity4</title>
<g id="a_edge18"><a xlink:title="idseq77">
<path fill="none" stroke="black" d="M257.32,-920.39C246.77,-929.02 234.97,-939.38 225.21,-948.52"/>
<polygon fill="black" stroke="black" points="267.51,-916.72 257.51,-920.24 263.13,-911.26 267.51,-916.72"/>
<polygon fill="black" stroke="black" points="222.68,-946.1 217.89,-955.54 227.53,-951.15 222.68,-946.1"/>
</a>
</g>
</g>
<!-- PiL5&#45;&gt;Identity4 -->
<g id="edge23" class="edge">
<title>PiL5&#45;&gt;Identity4</title>
<g id="a_edge23"><a xlink:title="lret75">
<path fill="none" stroke="blue" d="M272.53,-917.33C262.43,-927.34 247.78,-940.46 234.67,-951.31"/>
<polygon fill="blue" stroke="blue" points="232.32,-948.71 226.76,-957.73 236.73,-954.15 232.32,-948.71"/>
</a>
</g>
</g>
<!-- BangD6 -->
<g id="node7" class="node">
<title>BangD6</title>
<ellipse fill="none" stroke="black" cx="284.35" cy="-828.8" rx="36" ry="18"/>
<text text-anchor="middle" x="284.35" y="-825.1" font-family="Times,serif" font-size="14.00">BangD</text>
</g>
<!-- BangD6&#45;&gt;PiL5 -->
<g id="edge14" class="edge">
<title>BangD6&#45;&gt;PiL5</title>
<g id="a_edge14"><a xlink:title="hseq72">
<path fill="none" stroke="black" d="M278.47,-846.74C277.64,-854.57 277.4,-864.05 277.76,-872.82"/>
<polygon fill="black" stroke="black" points="274.28,-873.28 278.49,-883.01 281.26,-872.78 274.28,-873.28"/>
</a>
</g>
</g>
<!-- BangD6&#45;&gt;PiL5 -->
<g id="edge25" class="edge">
<title>BangD6&#45;&gt;PiL5</title>
<g id="a_edge25"><a xlink:title="lval70">
<path fill="none" stroke="blue" d="M290.22,-846.74C291.06,-854.57 291.29,-864.05 290.94,-872.82"/>
<polygon fill="blue" stroke="blue" points="287.43,-872.78 290.21,-883.01 294.41,-873.28 287.43,-872.78"/>
</a>
</g>
</g>
<!-- Identity7 -->
<g id="node8" class="node">
<title>Identity7</title>
<ellipse fill="none" stroke="black" cx="170.35" cy="-684.8" rx="38.19" ry="18"/>
<text text-anchor="middle" x="170.35" y="-681.1" font-family="Times,serif" font-size="14.00">Identity</text>
</g>
<!-- PiL8 -->
<g id="node9" class="node">
<title>PiL8</title>
<ellipse fill="none" stroke="black" cx="256.35" cy="-612.8" rx="27" ry="18"/>
<text text-anchor="middle" x="256.35" y="-609.1" font-family="Times,serif" font-size="14.00">PiL</text>
</g>
<!-- PiL8&#45;&gt;Identity7 -->
<g id="edge17" class="edge">
<title>PiL8&#45;&gt;Identity7</title>
<g id="a_edge17"><a xlink:title="idseq55">
<path fill="none" stroke="black" d="M228.62,-631.51C216.7,-640.49 203.05,-651.49 191.89,-661.08"/>
<polygon fill="black" stroke="black" points="239.06,-628.17 228.93,-631.29 234.9,-622.54 239.06,-628.17"/>
<polygon fill="black" stroke="black" points="189.47,-658.54 184.26,-667.77 194.09,-663.81 189.47,-658.54"/>
</a>
</g>
</g>
<!-- PiL8&#45;&gt;Identity7 -->
<g id="edge22" class="edge">
<title>PiL8&#45;&gt;Identity7</title>
<g id="a_edge22"><a xlink:title="lret53">
<path fill="none" stroke="blue" d="M243.36,-628.98C232.05,-639.2 215.53,-652.78 200.99,-663.87"/>
<polygon fill="blue" stroke="blue" points="198.62,-661.27 192.71,-670.06 202.82,-666.87 198.62,-661.27"/>
</a>
</g>
</g>
<!-- Bang17 -->
<g id="node18" class="node">
<title>Bang17</title>
<ellipse fill="none" stroke="black" cx="256.35" cy="-684.8" rx="29.5" ry="18"/>
<text text-anchor="middle" x="256.35" y="-681.1" font-family="Times,serif" font-size="14.00">Bang</text>
</g>
<!-- PiL8&#45;&gt;Bang17 -->
<g id="edge5" class="edge">
<title>PiL8&#45;&gt;Bang17</title>
<g id="a_edge5"><a xlink:title="dseq54">
<path fill="none" stroke="black" d="M250.51,-630.38C249.64,-638.29 249.39,-647.94 249.76,-656.86"/>
<polygon fill="black" stroke="black" points="246.27,-657.11 250.47,-666.84 253.25,-656.62 246.27,-657.11"/>
</a>
</g>
</g>
<!-- PiL8&#45;&gt;Bang17 -->
<g id="edge29" class="edge">
<title>PiL8&#45;&gt;Bang17</title>
<g id="a_edge29"><a xlink:title="newrret52">
<path fill="none" stroke="red" d="M262.19,-630.38C263.05,-638.29 263.3,-647.94 262.93,-656.86"/>
<polygon fill="red" stroke="red" points="259.44,-656.62 262.23,-666.84 266.43,-657.11 259.44,-656.62"/>
</a>
</g>
</g>
<!-- Identity9 -->
<g id="node10" class="node">
<title>Identity9</title>
<ellipse fill="none" stroke="black" cx="38.35" cy="-180.8" rx="38.19" ry="18"/>
<text text-anchor="middle" x="38.35" y="-177.1" font-family="Times,serif" font-size="14.00">Identity</text>
</g>
<!-- Assign10 -->
<g id="node11" class="node">
<title>Assign10</title>
<ellipse fill="none" stroke="black" cx="93.35" cy="-18" rx="35.19" ry="18"/>
<text text-anchor="middle" x="93.35" y="-14.3" font-family="Times,serif" font-size="14.00">Assign</text>
</g>
<!-- Assign10&#45;&gt;Identity9 -->
<g id="edge39" class="edge">
<title>Assign10&#45;&gt;Identity9</title>
<g id="a_edge39"><a xlink:title="ret8">
<path fill="none" stroke="red" d="M80.08,-34.68C72.27,-44.73 62.87,-58.4 57.35,-72 46.72,-98.18 42.03,-130.31 39.96,-152.65"/>
<polygon fill="red" stroke="red" points="36.46,-152.51 39.14,-162.76 43.44,-153.07 36.46,-152.51"/>
</a>
</g>
</g>
<!-- Cut23 -->
<g id="node24" class="node">
<title>Cut23</title>
<ellipse fill="none" stroke="black" cx="93.35" cy="-99.4" rx="23.31" ry="23.31"/>
<ellipse fill="none" stroke="black" cx="93.35" cy="-99.4" rx="27.3" ry="27.3"/>
<text text-anchor="middle" x="93.35" y="-95.7" font-family="Times,serif" font-size="14.00">Cut</text>
</g>
<!-- Assign10&#45;&gt;Cut23 -->
<g id="edge46" class="edge">
<title>Assign10&#45;&gt;Cut23</title>
<g id="a_edge46"><a xlink:title="seqBC94">
<path fill="none" stroke="black" d="M93.35,-36.23C93.35,-43.7 93.35,-52.76 93.35,-61.62"/>
<polygon fill="black" stroke="black" points="89.85,-61.83 93.35,-71.83 96.85,-61.83 89.85,-61.83"/>
</a>
</g>
</g>
<!-- Bang11 -->
<g id="node12" class="node">
<title>Bang11</title>
<ellipse fill="none" stroke="black" cx="199.35" cy="-252.8" rx="29.5" ry="18"/>
<text text-anchor="middle" x="199.35" y="-249.1" font-family="Times,serif" font-size="14.00">Bang</text>
</g>
<!-- PiR18 -->
<g id="node19" class="node">
<title>PiR18</title>
<ellipse fill="none" stroke="black" cx="199.35" cy="-324.8" rx="27" ry="18"/>
<text text-anchor="middle" x="199.35" y="-321.1" font-family="Times,serif" font-size="14.00">PiR</text>
</g>
<!-- Bang11&#45;&gt;PiR18 -->
<g id="edge26" class="edge">
<title>Bang11&#45;&gt;PiR18</title>
<g id="a_edge26"><a xlink:title="newcut_bseq100">
<path fill="none" stroke="black" d="M193.47,-270.74C192.64,-278.57 192.4,-288.05 192.76,-296.82"/>
<polygon fill="black" stroke="black" points="189.28,-297.28 193.49,-307.01 196.26,-296.78 189.28,-297.28"/>
</a>
</g>
</g>
<!-- Bang11&#45;&gt;PiR18 -->
<g id="edge35" class="edge">
<title>Bang11&#45;&gt;PiR18</title>
<g id="a_edge35"><a xlink:title="newrretf91">
<path fill="none" stroke="red" d="M205.22,-270.74C206.06,-278.57 206.29,-288.05 205.94,-296.82"/>
<polygon fill="red" stroke="red" points="202.43,-296.78 205.21,-307.01 209.41,-297.28 202.43,-296.78"/>
</a>
</g>
</g>
<!-- Dup12 -->
<g id="node13" class="node">
<title>Dup12</title>
<ellipse fill="none" stroke="black" cx="284.35" cy="-756.8" rx="27" ry="18"/>
<text text-anchor="middle" x="284.35" y="-753.1" font-family="Times,serif" font-size="14.00">Dup</text>
</g>
<!-- Dup12&#45;&gt;BangD6 -->
<g id="edge2" class="edge">
<title>Dup12&#45;&gt;BangD6</title>
<g id="a_edge2"><a xlink:title="c_bseq67">
<path fill="none" stroke="black" d="M284.35,-775.1C284.35,-782.81 284.35,-792.08 284.35,-800.68"/>
<polygon fill="black" stroke="black" points="280.85,-800.69 284.35,-810.69 287.85,-800.69 280.85,-800.69"/>
</a>
</g>
</g>
<!-- Dup13 -->
<g id="node14" class="node">
<title>Dup13</title>
<ellipse fill="none" stroke="black" cx="205.35" cy="-756.8" rx="27" ry="18"/>
<text text-anchor="middle" x="205.35" y="-753.1" font-family="Times,serif" font-size="14.00">Dup</text>
</g>
<!-- Dup13&#45;&gt;Identity4 -->
<g id="edge33" class="edge">
<title>Dup13&#45;&gt;Identity4</title>
<g id="a_edge33"><a xlink:title="newrretf66">
<path fill="none" stroke="red" d="M205.35,-774.95C205.35,-811.96 205.35,-899.61 205.35,-944.41"/>
<polygon fill="red" stroke="red" points="201.85,-944.56 205.35,-954.56 208.85,-944.56 201.85,-944.56"/>
</a>
</g>
</g>
<!-- Dup14 -->
<g id="node15" class="node">
<title>Dup14</title>
<ellipse fill="none" stroke="black" cx="356.35" cy="-756.8" rx="27" ry="18"/>
<text text-anchor="middle" x="356.35" y="-753.1" font-family="Times,serif" font-size="14.00">Dup</text>
</g>
<!-- Dup14&#45;&gt;BangD6 -->
<g id="edge13" class="edge">
<title>Dup14&#45;&gt;BangD6</title>
<g id="a_edge13"><a xlink:title="hf65">
<path fill="none" stroke="blue" d="M341.78,-771.96C331.96,-781.5 318.8,-794.3 307.56,-805.23"/>
<polygon fill="blue" stroke="blue" points="304.87,-802.96 300.14,-812.44 309.75,-807.98 304.87,-802.96"/>
</a>
</g>
</g>
<!-- BangC15 -->
<g id="node16" class="node">
<title>BangC15</title>
<ellipse fill="none" stroke="black" cx="256.35" cy="-468.8" rx="35.19" ry="18"/>
<text text-anchor="middle" x="256.35" y="-465.1" font-family="Times,serif" font-size="14.00">BangC</text>
</g>
<!-- BangC15&#45;&gt;Dup14 -->
<g id="edge11" class="edge">
<title>BangC15&#45;&gt;Dup14</title>
<g id="a_edge11"><a xlink:title="hf107">
<path fill="none" stroke="blue" d="M275.75,-483.88C287.58,-493.51 301.99,-507.3 310.35,-522.8 346.8,-590.34 354.56,-682.86 356.08,-728.31"/>
<polygon fill="blue" stroke="blue" points="352.59,-728.65 356.34,-738.55 359.59,-728.47 352.59,-728.65"/>
</a>
</g>
</g>
<!-- Cut16 -->
<g id="node17" class="node">
<title>Cut16</title>
<ellipse fill="none" stroke="black" cx="256.35" cy="-540.8" rx="27" ry="18"/>
<text text-anchor="middle" x="256.35" y="-537.1" font-family="Times,serif" font-size="14.00">Cut</text>
</g>
<!-- BangC15&#45;&gt;Cut16 -->
<g id="edge45" class="edge">
<title>BangC15&#45;&gt;Cut16</title>
<g id="a_edge45"><a xlink:title="seqBC118">
<path fill="none" stroke="black" d="M256.35,-487.1C256.35,-494.81 256.35,-504.08 256.35,-512.68"/>
<polygon fill="black" stroke="black" points="252.85,-512.69 256.35,-522.69 259.85,-512.69 252.85,-512.69"/>
</a>
</g>
</g>
<!-- BangC15&#45;&gt;Bang17 -->
<g id="edge7" class="edge">
<title>BangC15&#45;&gt;Bang17</title>
<g id="a_edge7"><a xlink:title="h116">
<path fill="none" stroke="blue" d="M276.99,-493.67C283.18,-502.27 289.16,-512.43 292.35,-522.8 306.45,-568.68 306.45,-584.92 292.35,-630.8 289.06,-641.48 282.81,-651.94 276.42,-660.71"/>
<polygon fill="blue" stroke="blue" points="273.61,-483.5 276.92,-493.57 268.06,-487.76 273.61,-483.5"/>
<polygon fill="blue" stroke="blue" points="273.46,-658.82 270.1,-668.86 278.99,-663.11 273.46,-658.82"/>
</a>
</g>
</g>
<!-- Cut16&#45;&gt;PiL8 -->
<g id="edge24" class="edge">
<title>Cut16&#45;&gt;PiL8</title>
<g id="a_edge24"><a xlink:title="lval48">
<path fill="none" stroke="blue" d="M250.51,-558.38C249.64,-566.29 249.39,-575.94 249.76,-584.86"/>
<polygon fill="blue" stroke="blue" points="246.27,-585.11 250.47,-594.84 253.25,-584.62 246.27,-585.11"/>
</a>
</g>
</g>
<!-- Cut16&#45;&gt;PiL8 -->
<g id="edge48" class="edge">
<title>Cut16&#45;&gt;PiL8</title>
<g id="a_edge48"><a xlink:title="yseq50">
<path fill="none" stroke="black" d="M262.93,-568.61C263.15,-573.84 263.15,-579.33 262.95,-584.58"/>
<polygon fill="black" stroke="black" points="265.68,-558.13 262.91,-568.36 258.7,-558.64 265.68,-558.13"/>
<polygon fill="black" stroke="black" points="259.43,-584.62 262.23,-594.84 266.42,-585.11 259.43,-584.62"/>
</a>
</g>
</g>
<!-- Cut16&#45;&gt;Dup12 -->
<g id="edge1" class="edge">
<title>Cut16&#45;&gt;Dup12</title>
<g id="a_edge1"><a xlink:title="c_bseq106">
<path fill="none" stroke="black" d="M269.96,-556.77C278.12,-566.75 287.77,-580.61 292.35,-594.8 306.94,-640.02 298.66,-696.08 291.42,-728.71"/>
<polygon fill="black" stroke="black" points="287.92,-728.29 289.04,-738.83 294.74,-729.89 287.92,-728.29"/>
</a>
</g>
</g>
<!-- Cut16&#45;&gt;Dup13 -->
<g id="edge31" class="edge">
<title>Cut16&#45;&gt;Dup13</title>
<g id="a_edge31"><a xlink:title="newrretf108">
<path fill="none" stroke="red" d="M236.45,-553.04C205.39,-571.89 146.55,-613.14 123.35,-666.8 117,-681.48 115.7,-688.74 123.35,-702.8 133.74,-721.89 154.3,-735.15 172.23,-743.64"/>
<polygon fill="red" stroke="red" points="171.28,-747.04 181.84,-747.87 174.1,-740.64 171.28,-747.04"/>
</a>
</g>
</g>
<!-- Bang17&#45;&gt;Dup12 -->
<g id="edge27" class="edge">
<title>Bang17&#45;&gt;Dup12</title>
<g id="a_edge27"><a xlink:title="newcut_bseq125">
<path fill="none" stroke="black" d="M262.98,-702.38C266.26,-710.58 270.29,-720.66 273.96,-729.84"/>
<polygon fill="none" stroke="black" points="270.79,-731.34 277.76,-739.33 277.29,-728.74 270.79,-731.34"/>
</a>
</g>
</g>
<!-- Bang17&#45;&gt;Dup13 -->
<g id="edge32" class="edge">
<title>Bang17&#45;&gt;Dup13</title>
<g id="a_edge32"><a xlink:title="newrretf114">
<path fill="none" stroke="red" d="M244.77,-701.68C238.32,-710.54 230.15,-721.76 222.92,-731.68"/>
<polygon fill="none" stroke="red" points="219.93,-729.83 216.87,-739.97 225.59,-733.95 219.93,-729.83"/>
</a>
</g>
</g>
<!-- Bang17&#45;&gt;Dup14 -->
<g id="edge12" class="edge">
<title>Bang17&#45;&gt;Dup14</title>
<g id="a_edge12"><a xlink:title="hf113">
<path fill="none" stroke="blue" d="M275.16,-698.96C290.57,-709.75 312.58,-725.16 329.79,-737.21"/>
<polygon fill="none" stroke="blue" points="328.1,-740.29 338.3,-743.16 332.11,-734.56 328.1,-740.29"/>
</a>
</g>
</g>
<!-- Dup19 -->
<g id="node20" class="node">
<title>Dup19</title>
<ellipse fill="none" stroke="black" cx="256.35" cy="-396.8" rx="27" ry="18"/>
<text text-anchor="middle" x="256.35" y="-393.1" font-family="Times,serif" font-size="14.00">Dup</text>
</g>
<!-- PiR18&#45;&gt;Dup19 -->
<g id="edge42" class="edge">
<title>PiR18&#45;&gt;Dup19</title>
<g id="a_edge42"><a xlink:title="seq135">
<path fill="none" stroke="black" d="M211.71,-340.98C219.26,-350.25 229.05,-362.28 237.54,-372.7"/>
<polygon fill="none" stroke="black" points="234.97,-375.09 244,-380.64 240.4,-370.67 234.97,-375.09"/>
</a>
</g>
</g>
<!-- Dup20 -->
<g id="node21" class="node">
<title>Dup20</title>
<ellipse fill="none" stroke="black" cx="184.35" cy="-396.8" rx="27" ry="18"/>
<text text-anchor="middle" x="184.35" y="-393.1" font-family="Times,serif" font-size="14.00">Dup</text>
</g>
<!-- PiR18&#45;&gt;Dup20 -->
<g id="edge9" class="edge">
<title>PiR18&#45;&gt;Dup20</title>
<g id="a_edge9"><a xlink:title="h136">
<path fill="none" stroke="blue" d="M195.72,-342.74C194.05,-350.53 192.02,-359.97 190.15,-368.72"/>
<polygon fill="none" stroke="blue" points="186.72,-368.01 188.05,-378.52 193.57,-369.48 186.72,-368.01"/>
</a>
</g>
</g>
<!-- Dup21 -->
<g id="node22" class="node">
<title>Dup21</title>
<ellipse fill="none" stroke="black" cx="104.35" cy="-396.8" rx="27" ry="18"/>
<text text-anchor="middle" x="104.35" y="-393.1" font-family="Times,serif" font-size="14.00">Dup</text>
</g>
<!-- PiR18&#45;&gt;Dup21 -->
<g id="edge37" class="edge">
<title>PiR18&#45;&gt;Dup21</title>
<g id="a_edge37"><a xlink:title="ret137">
<path fill="none" stroke="red" d="M181.92,-338.63C167.42,-349.32 146.55,-364.7 130.12,-376.81"/>
<polygon fill="none" stroke="red" points="127.96,-374.05 121.98,-382.8 132.11,-379.69 127.96,-374.05"/>
</a>
</g>
</g>
<!-- Dup19&#45;&gt;BangC15 -->
<g id="edge43" class="edge">
<title>Dup19&#45;&gt;BangC15</title>
<g id="a_edge43"><a xlink:title="seq33">
<path fill="none" stroke="black" d="M256.35,-415.1C256.35,-422.81 256.35,-432.08 256.35,-440.68"/>
<polygon fill="black" stroke="black" points="252.85,-440.69 256.35,-450.69 259.85,-440.69 252.85,-440.69"/>
</a>
</g>
</g>
<!-- Dup20&#45;&gt;BangC15 -->
<g id="edge10" class="edge">
<title>Dup20&#45;&gt;BangC15</title>
<g id="a_edge10"><a xlink:title="h34">
<path fill="none" stroke="blue" d="M198.92,-411.96C208.73,-421.5 221.89,-434.3 233.13,-445.23"/>
<polygon fill="blue" stroke="blue" points="230.94,-447.98 240.55,-452.44 235.82,-442.96 230.94,-447.98"/>
</a>
</g>
</g>
<!-- Dup21&#45;&gt;Identity7 -->
<g id="edge38" class="edge">
<title>Dup21&#45;&gt;Identity7</title>
<g id="a_edge38"><a xlink:title="ret42">
<path fill="none" stroke="red" d="M108.28,-414.83C119.33,-462.72 150.74,-598.82 164.15,-656.94"/>
<polygon fill="red" stroke="red" points="160.78,-657.89 166.44,-666.85 167.6,-656.32 160.78,-657.89"/>
</a>
</g>
</g>
<!-- Cut22 -->
<g id="node23" class="node">
<title>Cut22</title>
<ellipse fill="none" stroke="black" cx="199.35" cy="-180.8" rx="27" ry="18"/>
<text text-anchor="middle" x="199.35" y="-177.1" font-family="Times,serif" font-size="14.00">Cut</text>
</g>
<!-- Cut22&#45;&gt;Bang11 -->
<g id="edge4" class="edge">
<title>Cut22&#45;&gt;Bang11</title>
<g id="a_edge4"><a xlink:title="dseq20">
<path fill="none" stroke="black" d="M193.51,-198.38C192.64,-206.29 192.39,-215.94 192.76,-224.86"/>
<polygon fill="black" stroke="black" points="189.27,-225.11 193.47,-234.84 196.25,-224.62 189.27,-225.11"/>
</a>
</g>
</g>
<!-- Cut22&#45;&gt;Bang11 -->
<g id="edge28" class="edge">
<title>Cut22&#45;&gt;Bang11</title>
<g id="a_edge28"><a xlink:title="newrret18">
<path fill="none" stroke="red" d="M205.19,-198.38C206.05,-206.29 206.3,-215.94 205.93,-224.86"/>
<polygon fill="red" stroke="red" points="202.44,-224.62 205.23,-234.84 209.43,-225.11 202.44,-224.62"/>
</a>
</g>
</g>
<!-- Cut22&#45;&gt;Dup19 -->
<g id="edge41" class="edge">
<title>Cut22&#45;&gt;Dup19</title>
<g id="a_edge41"><a xlink:title="seq131">
<path fill="none" stroke="black" d="M219.62,-204.69C226.35,-213.52 233.19,-224.08 237.35,-234.8 254.62,-279.36 257.34,-335.64 257.21,-368.49"/>
<polygon fill="black" stroke="black" points="216,-194.6 219.54,-204.59 210.55,-198.99 216,-194.6"/>
<polygon fill="black" stroke="black" points="253.71,-368.63 257.07,-378.68 260.71,-368.72 253.71,-368.63"/>
</a>
</g>
</g>
<!-- Cut22&#45;&gt;Dup20 -->
<g id="edge8" class="edge">
<title>Cut22&#45;&gt;Dup20</title>
<g id="a_edge8"><a xlink:title="h132">
<path fill="none" stroke="blue" d="M185.23,-196.15C176.49,-206.09 166.06,-220.14 161.35,-234.8 157.39,-247.12 158.53,-319.35 163.35,-342.8 165.24,-351.99 168.61,-361.65 172.11,-370.17"/>
<polygon fill="blue" stroke="blue" points="168.99,-371.77 176.19,-379.55 175.41,-368.98 168.99,-371.77"/>
</a>
</g>
</g>
<!-- Cut23&#45;&gt;Identity9 -->
<g id="edge16" class="edge">
<title>Cut23&#45;&gt;Identity9</title>
<g id="a_edge16"><a xlink:title="idseq21">
<path fill="none" stroke="black" d="M67.93,-127.77C61.56,-136.35 55.07,-145.77 49.71,-154.22"/>
<polygon fill="black" stroke="black" points="76.94,-121.74 68.09,-127.57 71.37,-117.49 76.94,-121.74"/>
<polygon fill="black" stroke="black" points="46.63,-152.55 44.4,-162.91 52.6,-156.2 46.63,-152.55"/>
</a>
</g>
</g>
<!-- Cut23&#45;&gt;Identity9 -->
<g id="edge21" class="edge">
<title>Cut23&#45;&gt;Identity9</title>
<g id="a_edge21"><a xlink:title="lret19">
<path fill="none" stroke="blue" stroke-width="2" d="M82.55,-125.08C76.34,-134.94 68.48,-146.25 61.06,-156.02"/>
<polygon fill="blue" stroke="blue" stroke-width="2" points="58.12,-154.1 54.7,-164.13 63.63,-158.42 58.12,-154.1"/>
</a>
</g>
</g>
<!-- Cut23&#45;&gt;Dup21 -->
<g id="edge36" class="edge">
<title>Cut23&#45;&gt;Dup21</title>
<g id="a_edge36"><a xlink:title="ret133">
<path fill="none" stroke="red" d="M94.33,-126.87C96.41,-182.63 101.21,-311.68 103.32,-368.31"/>
<polygon fill="red" stroke="red" points="99.84,-368.77 103.71,-378.63 106.83,-368.51 99.84,-368.77"/>
</a>
</g>
</g>
<!-- Cut23&#45;&gt;Cut22 -->
<g id="edge47" class="edge">
<title>Cut23&#45;&gt;Cut22</title>
<g id="a_edge47"><a xlink:title="seqP139">
<path fill="none" stroke="black" d="M114.8,-116.47C131.85,-129.24 155.75,-147.14 173.79,-160.66"/>
<polygon fill="black" stroke="black" points="172.02,-163.7 182.12,-166.9 176.22,-158.1 172.02,-163.7"/>
</a>
</g>
</g>
</g>
</svg>
