<?xml version="1.0" encoding="UTF-8" standalone="no"?>
<!DOCTYPE svg PUBLIC "-//W3C//DTD SVG 1.1//EN"
 "http://www.w3.org/Graphics/SVG/1.1/DTD/svg11.dtd">
<!-- Generated by graphviz version 2.49.3 (0)
 -->
<!-- Pages: 1 -->
<svg width="506pt" height="927pt"
 viewBox="0.00 0.00 506.00 926.80" xmlns="http://www.w3.org/2000/svg" xmlns:xlink="http://www.w3.org/1999/xlink">
<g id="graph0" class="graph" transform="scale(1 1) rotate(0) translate(4 922.8)">
<polygon fill="white" stroke="transparent" points="-4,4 -4,-922.8 502,-922.8 502,4 -4,4"/>
<!-- I0 -->
<g id="node1" class="node">
<title>I0</title>
<ellipse fill="none" stroke="black" cx="82" cy="-828.8" rx="27" ry="18"/>
<text text-anchor="middle" x="82" y="-825.1" font-family="Times,serif" font-size="14.00">I</text>
</g>
<!-- !d1 -->
<g id="node2" class="node">
<title>!d1</title>
<ellipse fill="none" stroke="black" cx="27" cy="-756.8" rx="27" ry="18"/>
<text text-anchor="middle" x="27" y="-753.1" font-family="Times,serif" font-size="14.00">!d</text>
</g>
<!-- I0&#45;&gt;!d1 -->
<g id="edge7" class="edge">
<title>I0&#45;&gt;!d1</title>
<g id="a_edge7"><a xlink:title="iret84">
<path fill="none" stroke="blue" d="M63.83,-804.67C55.63,-794.24 46.19,-782.21 38.91,-772.96"/>
<polygon fill="blue" stroke="blue" points="61.14,-806.91 70.07,-812.61 66.64,-802.58 61.14,-806.91"/>
</a>
</g>
</g>
<!-- λ2 -->
<g id="node3" class="node">
<title>λ2</title>
<ellipse fill="none" stroke="black" cx="82" cy="-684.8" rx="27" ry="18"/>
<text text-anchor="middle" x="82" y="-681.1" font-family="Times,serif" font-size="14.00">λ</text>
</g>
<!-- !d1&#45;&gt;λ2 -->
<g id="edge6" class="edge">
<title>!d1&#45;&gt;λ2</title>
<g id="a_edge6"><a xlink:title="i81">
<path fill="none" stroke="blue" d="M45.17,-732.67C53.37,-722.24 62.81,-710.21 70.09,-700.96"/>
<polygon fill="blue" stroke="blue" points="42.36,-730.58 38.93,-740.61 47.86,-734.91 42.36,-730.58"/>
</a>
</g>
</g>
<!-- λ2&#45;&gt;I0 -->
<g id="edge27" class="edge">
<title>λ2&#45;&gt;I0</title>
<g id="a_edge27"><a xlink:title="ret82">
<path fill="none" stroke="red" d="M82,-702.99C82,-727.22 82,-771.68 82,-800.47"/>
<polygon fill="red" stroke="red" points="78.5,-800.67 82,-810.67 85.5,-800.67 78.5,-800.67"/>
</a>
</g>
</g>
<!-- !p3 -->
<g id="node4" class="node">
<title>!p3</title>
<ellipse fill="none" stroke="black" cx="137" cy="-756.8" rx="27" ry="18"/>
<text text-anchor="middle" x="137" y="-753.1" font-family="Times,serif" font-size="14.00">!p</text>
</g>
<!-- !p3&#45;&gt;λ2 -->
<g id="edge22" class="edge">
<title>!p3&#45;&gt;λ2</title>
<g id="a_edge22"><a xlink:title="newrretf78">
<path fill="none" stroke="red" d="M125.07,-740.61C117.79,-731.34 108.34,-719.32 100.15,-708.89"/>
<polygon fill="red" stroke="red" points="102.84,-706.66 93.91,-700.96 97.34,-710.98 102.84,-706.66"/>
</a>
</g>
</g>
<!-- I4 -->
<g id="node5" class="node">
<title>I4</title>
<ellipse fill="none" stroke="black" cx="259" cy="-18" rx="27" ry="18"/>
<text text-anchor="middle" x="259" y="-14.3" font-family="Times,serif" font-size="14.00">I</text>
</g>
<!-- @5 -->
<g id="node6" class="node">
<title>@5</title>
<ellipse fill="none" stroke="black" cx="173" cy="-828.8" rx="27" ry="18"/>
<text text-anchor="middle" x="173" y="-825.1" font-family="Times,serif" font-size="14.00">@</text>
</g>
<!-- I4&#45;&gt;@5 -->
<g id="edge10" class="edge">
<title>I4&#45;&gt;@5</title>
<g id="a_edge10"><a xlink:title="lret75">
<path fill="none" stroke="blue" d="M241.21,-42.5C221.36,-71.12 192,-121.69 192,-170.4 192,-685.8 192,-685.8 192,-685.8 192,-731.31 182.29,-784.32 176.75,-810.84"/>
<polygon fill="blue" stroke="blue" points="244.07,-44.53 247.02,-34.35 238.37,-40.46 244.07,-44.53"/>
</a>
</g>
</g>
<!-- @5&#45;&gt;!p3 -->
<g id="edge16" class="edge">
<title>@5&#45;&gt;!p3</title>
<g id="a_edge16"><a xlink:title="newrret74">
<path fill="none" stroke="red" d="M164.65,-811.56C160.29,-803.08 154.85,-792.51 149.96,-782.99"/>
<polygon fill="red" stroke="red" points="152.99,-781.24 145.3,-773.94 146.77,-784.44 152.99,-781.24"/>
</a>
</g>
</g>
<!-- !d6 -->
<g id="node7" class="node">
<title>!d6</title>
<ellipse fill="none" stroke="black" cx="247" cy="-756.8" rx="27" ry="18"/>
<text text-anchor="middle" x="247" y="-753.1" font-family="Times,serif" font-size="14.00">!d</text>
</g>
<!-- @5&#45;&gt;!d6 -->
<g id="edge13" class="edge">
<title>@5&#45;&gt;!d6</title>
<g id="a_edge13"><a xlink:title="lval70">
<path fill="none" stroke="blue" d="M195.37,-806.63C207.25,-795.4 221.52,-781.9 232.05,-771.94"/>
<polygon fill="blue" stroke="blue" points="192.83,-804.22 187.98,-813.63 197.64,-809.3 192.83,-804.22"/>
</a>
</g>
</g>
<!-- Dup20 -->
<g id="node21" class="node">
<title>Dup20</title>
<ellipse fill="none" stroke="black" cx="247" cy="-684.8" rx="27" ry="18"/>
<text text-anchor="middle" x="247" y="-681.1" font-family="Times,serif" font-size="14.00">Dup</text>
</g>
<!-- !d6&#45;&gt;Dup20 -->
<g id="edge5" class="edge">
<title>!d6&#45;&gt;Dup20</title>
<g id="a_edge5"><a xlink:title="hf65">
<path fill="none" stroke="blue" d="M247,-728.46C247,-719.85 247,-710.59 247,-702.9"/>
<polygon fill="blue" stroke="blue" points="243.5,-728.49 247,-738.49 250.5,-728.49 243.5,-728.49"/>
</a>
</g>
</g>
<!-- I7 -->
<g id="node8" class="node">
<title>I7</title>
<ellipse fill="none" stroke="black" cx="276" cy="-252.8" rx="27" ry="18"/>
<text text-anchor="middle" x="276" y="-249.1" font-family="Times,serif" font-size="14.00">I</text>
</g>
<!-- Cut24 -->
<g id="node25" class="node">
<title>Cut24</title>
<ellipse fill="none" stroke="black" cx="259" cy="-171.4" rx="23.31" ry="23.31"/>
<ellipse fill="none" stroke="black" cx="259" cy="-171.4" rx="27.3" ry="27.3"/>
<text text-anchor="middle" x="259" y="-167.7" font-family="Times,serif" font-size="14.00">Cut</text>
</g>
<!-- I7&#45;&gt;Cut24 -->
<g id="edge28" class="edge">
<title>I7&#45;&gt;Cut24</title>
<g id="a_edge28"><a xlink:title="yret60">
<path fill="none" stroke="blue" stroke-width="2" d="M270.2,-224.72C268.38,-216.19 266.36,-206.8 264.56,-198.35"/>
<polygon fill="blue" stroke="blue" stroke-width="2" points="266.8,-225.52 272.31,-234.57 273.64,-224.06 266.8,-225.52"/>
</a>
</g>
</g>
<!-- I8 -->
<g id="node9" class="node">
<title>I8</title>
<ellipse fill="none" stroke="black" cx="344" cy="-468.8" rx="27" ry="18"/>
<text text-anchor="middle" x="344" y="-465.1" font-family="Times,serif" font-size="14.00">I</text>
</g>
<!-- @9 -->
<g id="node10" class="node">
<title>@9</title>
<ellipse fill="none" stroke="black" cx="331" cy="-396.8" rx="27" ry="18"/>
<text text-anchor="middle" x="331" y="-393.1" font-family="Times,serif" font-size="14.00">@</text>
</g>
<!-- I8&#45;&gt;@9 -->
<g id="edge9" class="edge">
<title>I8&#45;&gt;@9</title>
<g id="a_edge9"><a xlink:title="lret53">
<path fill="none" stroke="blue" d="M338.99,-440.8C337.38,-432.16 335.65,-422.83 334.21,-415.07"/>
<polygon fill="blue" stroke="blue" points="335.59,-441.66 340.85,-450.85 342.47,-440.38 335.59,-441.66"/>
</a>
</g>
</g>
<!-- Cut22 -->
<g id="node23" class="node">
<title>Cut22</title>
<ellipse fill="none" stroke="black" cx="331" cy="-171.4" rx="27" ry="18"/>
<text text-anchor="middle" x="331" y="-167.7" font-family="Times,serif" font-size="14.00">Cut</text>
</g>
<!-- @9&#45;&gt;Cut22 -->
<g id="edge12" class="edge">
<title>@9&#45;&gt;Cut22</title>
<g id="a_edge12"><a xlink:title="lval48">
<path fill="none" stroke="blue" d="M331,-368.37C331,-321.7 331,-228.17 331,-189.62"/>
<polygon fill="blue" stroke="blue" points="327.5,-368.64 331,-378.64 334.5,-368.64 327.5,-368.64"/>
</a>
</g>
</g>
<!-- !p23 -->
<g id="node24" class="node">
<title>!p23</title>
<ellipse fill="none" stroke="black" cx="276" cy="-324.8" rx="27" ry="18"/>
<text text-anchor="middle" x="276" y="-321.1" font-family="Times,serif" font-size="14.00">!p</text>
</g>
<!-- @9&#45;&gt;!p23 -->
<g id="edge15" class="edge">
<title>@9&#45;&gt;!p23</title>
<g id="a_edge15"><a xlink:title="newrret52">
<path fill="none" stroke="red" d="M319.07,-380.61C311.79,-371.34 302.34,-359.32 294.15,-348.89"/>
<polygon fill="red" stroke="red" points="296.84,-346.66 287.91,-340.96 291.34,-350.98 296.84,-346.66"/>
</a>
</g>
</g>
<!-- λ10 -->
<g id="node11" class="node">
<title>λ10</title>
<ellipse fill="none" stroke="black" cx="344" cy="-540.8" rx="27" ry="18"/>
<text text-anchor="middle" x="344" y="-537.1" font-family="Times,serif" font-size="14.00">λ</text>
</g>
<!-- λ10&#45;&gt;I8 -->
<g id="edge25" class="edge">
<title>λ10&#45;&gt;I8</title>
<g id="a_edge25"><a xlink:title="ret42">
<path fill="none" stroke="red" d="M344,-522.49C344,-514.78 344,-505.51 344,-496.91"/>
<polygon fill="red" stroke="red" points="347.5,-496.9 344,-486.9 340.5,-496.9 347.5,-496.9"/>
</a>
</g>
</g>
<!-- I11 -->
<g id="node12" class="node">
<title>I11</title>
<ellipse fill="none" stroke="black" cx="319" cy="-828.8" rx="27" ry="18"/>
<text text-anchor="middle" x="319" y="-825.1" font-family="Times,serif" font-size="14.00">I</text>
</g>
<!-- @12 -->
<g id="node13" class="node">
<title>@12</title>
<ellipse fill="none" stroke="black" cx="319" cy="-756.8" rx="27" ry="18"/>
<text text-anchor="middle" x="319" y="-753.1" font-family="Times,serif" font-size="14.00">@</text>
</g>
<!-- I11&#45;&gt;@12 -->
<g id="edge8" class="edge">
<title>I11&#45;&gt;@12</title>
<g id="a_edge8"><a xlink:title="lret19">
<path fill="none" stroke="blue" d="M319,-800.46C319,-791.85 319,-782.59 319,-774.9"/>
<polygon fill="blue" stroke="blue" points="315.5,-800.49 319,-810.49 322.5,-800.49 315.5,-800.49"/>
</a>
</g>
</g>
<!-- Cut16 -->
<g id="node17" class="node">
<title>Cut16</title>
<ellipse fill="none" stroke="black" cx="391" cy="-684.8" rx="27" ry="18"/>
<text text-anchor="middle" x="391" y="-681.1" font-family="Times,serif" font-size="14.00">Cut</text>
</g>
<!-- @12&#45;&gt;Cut16 -->
<g id="edge11" class="edge">
<title>@12&#45;&gt;Cut16</title>
<g id="a_edge11"><a xlink:title="lval14">
<path fill="none" stroke="blue" d="M341.04,-734.36C352.45,-723.27 366.07,-710.03 376.2,-700.18"/>
<polygon fill="blue" stroke="blue" points="338.3,-732.15 333.57,-741.63 343.18,-737.17 338.3,-732.15"/>
</a>
</g>
</g>
<!-- !p17 -->
<g id="node18" class="node">
<title>!p17</title>
<ellipse fill="none" stroke="black" cx="319" cy="-684.8" rx="27" ry="18"/>
<text text-anchor="middle" x="319" y="-681.1" font-family="Times,serif" font-size="14.00">!p</text>
</g>
<!-- @12&#45;&gt;!p17 -->
<g id="edge14" class="edge">
<title>@12&#45;&gt;!p17</title>
<g id="a_edge14"><a xlink:title="newrret18">
<path fill="none" stroke="red" d="M319,-738.49C319,-730.78 319,-721.51 319,-712.91"/>
<polygon fill="red" stroke="red" points="322.5,-712.9 319,-702.9 315.5,-712.9 322.5,-712.9"/>
</a>
</g>
</g>
<!-- Assign13 -->
<g id="node14" class="node">
<title>Assign13</title>
<ellipse fill="none" stroke="black" cx="319" cy="-900.8" rx="35.19" ry="18"/>
<text text-anchor="middle" x="319" y="-897.1" font-family="Times,serif" font-size="14.00">Assign</text>
</g>
<!-- Assign13&#45;&gt;I11 -->
<g id="edge26" class="edge">
<title>Assign13&#45;&gt;I11</title>
<g id="a_edge26"><a xlink:title="ret8">
<path fill="none" stroke="red" d="M319,-882.49C319,-874.78 319,-865.51 319,-856.91"/>
<polygon fill="red" stroke="red" points="322.5,-856.9 319,-846.9 315.5,-856.9 322.5,-856.9"/>
</a>
</g>
</g>
<!-- Dup14 -->
<g id="node15" class="node">
<title>Dup14</title>
<ellipse fill="none" stroke="black" cx="399" cy="-900.8" rx="27" ry="18"/>
<text text-anchor="middle" x="399" y="-897.1" font-family="Times,serif" font-size="14.00">Dup</text>
</g>
<!-- Dup15 -->
<g id="node16" class="node">
<title>Dup15</title>
<ellipse fill="none" stroke="black" cx="357" cy="-612.8" rx="27" ry="18"/>
<text text-anchor="middle" x="357" y="-609.1" font-family="Times,serif" font-size="14.00">Dup</text>
</g>
<!-- Dup15&#45;&gt;λ10 -->
<g id="edge19" class="edge">
<title>Dup15&#45;&gt;λ10</title>
<g id="a_edge19"><a xlink:title="newrretf31">
<path fill="none" stroke="red" d="M353.85,-594.85C352.42,-587.14 350.69,-577.82 349.08,-569.16"/>
<polygon fill="red" stroke="red" points="352.48,-568.26 347.21,-559.07 345.59,-569.54 352.48,-568.26"/>
</a>
</g>
</g>
<!-- Cut16&#45;&gt;Dup15 -->
<g id="edge23" class="edge">
<title>Cut16&#45;&gt;Dup15</title>
<g id="a_edge23"><a xlink:title="newrretf87">
<path fill="none" stroke="red" d="M383.11,-667.56C379.1,-659.29 374.11,-649.03 369.58,-639.7"/>
<polygon fill="red" stroke="red" points="372.6,-637.9 365.08,-630.43 366.3,-640.95 372.6,-637.9"/>
</a>
</g>
</g>
<!-- !p17&#45;&gt;Dup15 -->
<g id="edge24" class="edge">
<title>!p17&#45;&gt;Dup15</title>
<g id="a_edge24"><a xlink:title="newrretf91">
<path fill="none" stroke="red" d="M327.81,-667.56C332.42,-659.08 338.16,-648.51 343.32,-638.99"/>
<polygon fill="none" stroke="red" points="346.54,-640.4 348.23,-629.94 340.39,-637.06 346.54,-640.4"/>
</a>
</g>
</g>
<!-- Dup18 -->
<g id="node19" class="node">
<title>Dup18</title>
<ellipse fill="none" stroke="black" cx="471" cy="-900.8" rx="27" ry="18"/>
<text text-anchor="middle" x="471" y="-897.1" font-family="Times,serif" font-size="14.00">Dup</text>
</g>
<!-- Dup19 -->
<g id="node20" class="node">
<title>Dup19</title>
<ellipse fill="none" stroke="black" cx="259" cy="-90" rx="27" ry="18"/>
<text text-anchor="middle" x="259" y="-86.3" font-family="Times,serif" font-size="14.00">Dup</text>
</g>
<!-- Dup19&#45;&gt;I4 -->
<g id="edge21" class="edge">
<title>Dup19&#45;&gt;I4</title>
<g id="a_edge21"><a xlink:title="newrretf66">
<path fill="none" stroke="red" d="M259,-71.7C259,-63.98 259,-54.71 259,-46.11"/>
<polygon fill="red" stroke="red" points="262.5,-46.1 259,-36.1 255.5,-46.1 262.5,-46.1"/>
</a>
</g>
</g>
<!-- !c21 -->
<g id="node22" class="node">
<title>!c21</title>
<ellipse fill="none" stroke="black" cx="285" cy="-612.8" rx="27" ry="18"/>
<text text-anchor="middle" x="285" y="-609.1" font-family="Times,serif" font-size="14.00">!c</text>
</g>
<!-- Dup20&#45;&gt;!c21 -->
<g id="edge3" class="edge">
<title>Dup20&#45;&gt;!c21</title>
<g id="a_edge3"><a xlink:title="hf107">
<path fill="none" stroke="blue" d="M260.73,-658.5C265.9,-648.98 271.64,-638.41 276.23,-629.94"/>
<polygon fill="blue" stroke="blue" points="257.51,-657.1 255.81,-667.56 263.66,-660.44 257.51,-657.1"/>
</a>
</g>
</g>
<!-- Dup20&#45;&gt;!p23 -->
<g id="edge4" class="edge">
<title>Dup20&#45;&gt;!p23</title>
<g id="a_edge4"><a xlink:title="hf113">
<path fill="none" stroke="blue" d="M241.83,-656.83C236.83,-628.35 230,-582.09 230,-541.8 230,-541.8 230,-541.8 230,-467.8 230,-420.11 253.76,-367.62 267.13,-341.86"/>
<polygon fill="none" stroke="blue" points="238.42,-657.61 243.64,-666.83 245.3,-656.36 238.42,-657.61"/>
</a>
</g>
</g>
<!-- !c21&#45;&gt;λ10 -->
<g id="edge2" class="edge">
<title>!c21&#45;&gt;λ10</title>
<g id="a_edge2"><a xlink:title="h34">
<path fill="none" stroke="blue" d="M304.49,-588.67C313.28,-578.24 323.42,-566.21 331.22,-556.96"/>
<polygon fill="blue" stroke="blue" points="301.57,-586.7 297.8,-596.61 306.92,-591.22 301.57,-586.7"/>
</a>
</g>
</g>
<!-- Cut22&#45;&gt;Dup19 -->
<g id="edge17" class="edge">
<title>Cut22&#45;&gt;Dup19</title>
<g id="a_edge17"><a xlink:title="newrretf108">
<path fill="none" stroke="red" d="M317.46,-155.46C306.7,-143.6 291.48,-126.82 279.27,-113.35"/>
<polygon fill="red" stroke="red" points="281.79,-110.92 272.48,-105.87 276.61,-115.63 281.79,-110.92"/>
</a>
</g>
</g>
<!-- !p23&#45;&gt;I7 -->
<g id="edge20" class="edge">
<title>!p23&#45;&gt;I7</title>
<g id="a_edge20"><a xlink:title="newrretf57">
<path fill="none" stroke="red" d="M276,-306.49C276,-298.78 276,-289.51 276,-280.91"/>
<polygon fill="red" stroke="red" points="279.5,-280.9 276,-270.9 272.5,-280.9 279.5,-280.9"/>
</a>
</g>
</g>
<!-- !p23&#45;&gt;!c21 -->
<g id="edge1" class="edge">
<title>!p23&#45;&gt;!c21</title>
<g id="a_edge1"><a xlink:title="h116">
<path fill="none" stroke="blue" d="M276.87,-353.43C278.59,-408.21 282.43,-529.99 284.14,-584.5"/>
<polygon fill="blue" stroke="blue" points="280.36,-352.99 276.54,-343.1 273.36,-353.21 280.36,-352.99"/>
<polygon fill="blue" stroke="blue" points="280.97,-594.87 284.15,-584.77 287.96,-594.65 280.97,-594.87"/>
</a>
</g>
</g>
<!-- Cut24&#45;&gt;Dup19 -->
<g id="edge18" class="edge">
<title>Cut24&#45;&gt;Dup19</title>
<g id="a_edge18"><a xlink:title="newrretf114">
<path fill="none" stroke="red" d="M259,-143.96C259,-135.8 259,-126.81 259,-118.58"/>
<polygon fill="none" stroke="red" points="262.5,-118.34 259,-108.34 255.5,-118.34 262.5,-118.34"/>
</a>
</g>
</g>
</g>
</svg>
