<?xml version="1.0" encoding="UTF-8" standalone="no"?>
<!DOCTYPE svg PUBLIC "-//W3C//DTD SVG 1.1//EN"
 "http://www.w3.org/Graphics/SVG/1.1/DTD/svg11.dtd">
<!-- Generated by graphviz version 2.49.3 (0)
 -->
<!-- Pages: 1 -->
<svg width="757pt" height="1220pt"
 viewBox="0.00 0.00 756.60 1220.00" xmlns="http://www.w3.org/2000/svg" xmlns:xlink="http://www.w3.org/1999/xlink">
<g id="graph0" class="graph" transform="scale(1 1) rotate(0) translate(4 1216)">
<polygon fill="white" stroke="transparent" points="-4,4 -4,-1216 752.6,-1216 752.6,4 -4,4"/>
<!-- I0 -->
<g id="node1" class="node">
<title>I0</title>
<ellipse fill="none" stroke="black" cx="490" cy="-810" rx="27" ry="18"/>
<text text-anchor="middle" x="490" y="-806.3" font-family="Times,serif" font-size="14.00">I</text>
</g>
<!-- !d1 -->
<g id="node2" class="node">
<title>!d1</title>
<ellipse fill="none" stroke="black" cx="435" cy="-738" rx="27" ry="18"/>
<text text-anchor="middle" x="435" y="-734.3" font-family="Times,serif" font-size="14.00">!d</text>
</g>
<!-- I0&#45;&gt;!d1 -->
<g id="edge10" class="edge">
<title>I0&#45;&gt;!d1</title>
<g id="a_edge10"><a xlink:title="iret84">
<path fill="none" stroke="blue" d="M471.83,-785.87C463.63,-775.44 454.19,-763.42 446.91,-754.16"/>
<polygon fill="blue" stroke="blue" points="469.14,-788.11 478.07,-793.81 474.64,-783.79 469.14,-788.11"/>
</a>
</g>
</g>
<!-- Dup28 -->
<g id="node29" class="node">
<title>Dup28</title>
<ellipse fill="none" stroke="black" cx="435" cy="-666" rx="27" ry="18"/>
<text text-anchor="middle" x="435" y="-662.3" font-family="Times,serif" font-size="14.00">Dup</text>
</g>
<!-- !d1&#45;&gt;Dup28 -->
<g id="edge9" class="edge">
<title>!d1&#45;&gt;Dup28</title>
<g id="a_edge9"><a xlink:title="i81">
<path fill="none" stroke="blue" d="M435,-709.67C435,-701.05 435,-691.79 435,-684.1"/>
<polygon fill="blue" stroke="blue" points="431.5,-709.7 435,-719.7 438.5,-709.7 431.5,-709.7"/>
</a>
</g>
</g>
<!-- I2 -->
<g id="node3" class="node">
<title>I2</title>
<ellipse fill="none" stroke="black" cx="253" cy="-882" rx="27" ry="18"/>
<text text-anchor="middle" x="253" y="-878.3" font-family="Times,serif" font-size="14.00">I</text>
</g>
<!-- Dup21 -->
<g id="node22" class="node">
<title>Dup21</title>
<ellipse fill="none" stroke="black" cx="325" cy="-810" rx="27" ry="18"/>
<text text-anchor="middle" x="325" y="-806.3" font-family="Times,serif" font-size="14.00">Dup</text>
</g>
<!-- I2&#45;&gt;Dup21 -->
<g id="edge14" class="edge">
<title>I2&#45;&gt;Dup21</title>
<g id="a_edge14"><a xlink:title="lret75">
<path fill="none" stroke="blue" d="M275.04,-859.57C286.45,-848.48 300.07,-835.24 310.2,-825.38"/>
<polygon fill="blue" stroke="blue" points="272.3,-857.35 267.57,-866.83 277.18,-862.37 272.3,-857.35"/>
</a>
</g>
</g>
<!-- I3 -->
<g id="node4" class="node">
<title>I3</title>
<ellipse fill="none" stroke="black" cx="63" cy="-162" rx="27" ry="18"/>
<text text-anchor="middle" x="63" y="-158.3" font-family="Times,serif" font-size="14.00">I</text>
</g>
<!-- @4 -->
<g id="node5" class="node">
<title>@4</title>
<ellipse fill="none" stroke="black" cx="32" cy="-90" rx="27" ry="18"/>
<text text-anchor="middle" x="32" y="-86.3" font-family="Times,serif" font-size="14.00">@</text>
</g>
<!-- I3&#45;&gt;@4 -->
<g id="edge13" class="edge">
<title>I3&#45;&gt;@4</title>
<g id="a_edge13"><a xlink:title="lret53">
<path fill="none" stroke="blue" d="M51.58,-135.2C47.47,-125.93 42.95,-115.73 39.29,-107.47"/>
<polygon fill="blue" stroke="blue" points="48.4,-136.68 55.65,-144.41 54.8,-133.85 48.4,-136.68"/>
</a>
</g>
</g>
<!-- Cut9 -->
<g id="node10" class="node">
<title>Cut9</title>
<ellipse fill="none" stroke="black" cx="198" cy="-18" rx="27" ry="18"/>
<text text-anchor="middle" x="198" y="-14.3" font-family="Times,serif" font-size="14.00">Cut</text>
</g>
<!-- @4&#45;&gt;Cut9 -->
<g id="edge17" class="edge">
<title>@4&#45;&gt;Cut9</title>
<g id="a_edge17"><a xlink:title="lval48">
<path fill="none" stroke="blue" d="M63.97,-75.52C96.77,-61.69 146.96,-40.52 175.7,-28.4"/>
<polygon fill="blue" stroke="blue" points="62.24,-72.45 54.39,-79.56 64.96,-78.9 62.24,-72.45"/>
</a>
</g>
</g>
<!-- !p10 -->
<g id="node11" class="node">
<title>!p10</title>
<ellipse fill="none" stroke="black" cx="171" cy="-1026" rx="27" ry="18"/>
<text text-anchor="middle" x="171" y="-1022.3" font-family="Times,serif" font-size="14.00">!p</text>
</g>
<!-- @4&#45;&gt;!p10 -->
<g id="edge21" class="edge">
<title>@4&#45;&gt;!p10</title>
<g id="a_edge21"><a xlink:title="newrret52">
<path fill="none" stroke="red" d="M25.68,-107.77C16.35,-134.06 0,-186.75 0,-233 0,-883 0,-883 0,-883 0,-953.58 87.29,-995.79 137.13,-1014.14"/>
<polygon fill="red" stroke="red" points="136.27,-1017.55 146.86,-1017.6 138.61,-1010.95 136.27,-1017.55"/>
</a>
</g>
</g>
<!-- Assign5 -->
<g id="node6" class="node">
<title>Assign5</title>
<ellipse fill="none" stroke="black" cx="63" cy="-306" rx="35.19" ry="18"/>
<text text-anchor="middle" x="63" y="-302.3" font-family="Times,serif" font-size="14.00">Assign</text>
</g>
<!-- Dup14 -->
<g id="node15" class="node">
<title>Dup14</title>
<ellipse fill="none" stroke="black" cx="63" cy="-234" rx="27" ry="18"/>
<text text-anchor="middle" x="63" y="-230.3" font-family="Times,serif" font-size="14.00">Dup</text>
</g>
<!-- Assign5&#45;&gt;Dup14 -->
<g id="edge28" class="edge">
<title>Assign5&#45;&gt;Dup14</title>
<g id="a_edge28"><a xlink:title="ret133">
<path fill="none" stroke="red" d="M63,-287.7C63,-279.98 63,-270.71 63,-262.11"/>
<polygon fill="red" stroke="red" points="66.5,-262.1 63,-252.1 59.5,-262.1 66.5,-262.1"/>
</a>
</g>
</g>
<!-- !p6 -->
<g id="node7" class="node">
<title>!p6</title>
<ellipse fill="none" stroke="black" cx="143" cy="-378" rx="27" ry="18"/>
<text text-anchor="middle" x="143" y="-374.3" font-family="Times,serif" font-size="14.00">!p</text>
</g>
<!-- λ11 -->
<g id="node12" class="node">
<title>λ11</title>
<ellipse fill="none" stroke="black" cx="143" cy="-306" rx="27" ry="18"/>
<text text-anchor="middle" x="143" y="-302.3" font-family="Times,serif" font-size="14.00">λ</text>
</g>
<!-- !p6&#45;&gt;λ11 -->
<g id="edge27" class="edge">
<title>!p6&#45;&gt;λ11</title>
<g id="a_edge27"><a xlink:title="newrretf91">
<path fill="none" stroke="red" d="M143,-359.7C143,-351.98 143,-342.71 143,-334.11"/>
<polygon fill="red" stroke="red" points="146.5,-334.1 143,-324.1 139.5,-334.1 146.5,-334.1"/>
</a>
</g>
</g>
<!-- Dup7 -->
<g id="node8" class="node">
<title>Dup7</title>
<ellipse fill="none" stroke="black" cx="198" cy="-954" rx="27" ry="18"/>
<text text-anchor="middle" x="198" y="-950.3" font-family="Times,serif" font-size="14.00">Dup</text>
</g>
<!-- Dup7&#45;&gt;I2 -->
<g id="edge26" class="edge">
<title>Dup7&#45;&gt;I2</title>
<g id="a_edge26"><a xlink:title="newrretf66">
<path fill="none" stroke="red" d="M209.93,-937.81C217.21,-928.55 226.66,-916.52 234.85,-906.09"/>
<polygon fill="red" stroke="red" points="237.66,-908.18 241.09,-898.16 232.16,-903.86 237.66,-908.18"/>
</a>
</g>
</g>
<!-- !c8 -->
<g id="node9" class="node">
<title>!c8</title>
<ellipse fill="none" stroke="black" cx="143" cy="-594" rx="27" ry="18"/>
<text text-anchor="middle" x="143" y="-590.3" font-family="Times,serif" font-size="14.00">!c</text>
</g>
<!-- Dup13 -->
<g id="node14" class="node">
<title>Dup13</title>
<ellipse fill="none" stroke="black" cx="143" cy="-522" rx="27" ry="18"/>
<text text-anchor="middle" x="143" y="-518.3" font-family="Times,serif" font-size="14.00">Dup</text>
</g>
<!-- !c8&#45;&gt;Dup13 -->
<g id="edge4" class="edge">
<title>!c8&#45;&gt;Dup13</title>
<g id="a_edge4"><a xlink:title="h34">
<path fill="none" stroke="blue" d="M143,-565.67C143,-557.05 143,-547.79 143,-540.1"/>
<polygon fill="blue" stroke="blue" points="139.5,-565.7 143,-575.7 146.5,-565.7 139.5,-565.7"/>
</a>
</g>
</g>
<!-- Cut9&#45;&gt;Dup7 -->
<g id="edge22" class="edge">
<title>Cut9&#45;&gt;Dup7</title>
<g id="a_edge22"><a xlink:title="newrretf108">
<path fill="none" stroke="red" d="M198,-36.05C198,-62.71 198,-115.89 198,-161 198,-811 198,-811 198,-811 198,-851 198,-897.35 198,-925.92"/>
<polygon fill="red" stroke="red" points="194.5,-925.95 198,-935.95 201.5,-925.95 194.5,-925.95"/>
</a>
</g>
</g>
<!-- !p10&#45;&gt;Dup7 -->
<g id="edge23" class="edge">
<title>!p10&#45;&gt;Dup7</title>
<g id="a_edge23"><a xlink:title="newrretf114">
<path fill="none" stroke="red" d="M177.4,-1008.41C180.51,-1000.34 184.33,-990.43 187.83,-981.35"/>
<polygon fill="none" stroke="red" points="191.13,-982.55 191.46,-971.96 184.6,-980.03 191.13,-982.55"/>
</a>
</g>
</g>
<!-- !p10&#45;&gt;!c8 -->
<g id="edge1" class="edge">
<title>!p10&#45;&gt;!c8</title>
<g id="a_edge1"><a xlink:title="h116">
<path fill="none" stroke="blue" d="M162.49,-998.23C154.25,-969.91 143,-923.77 143,-883 143,-883 143,-883 143,-737 143,-697 143,-650.65 143,-622.08"/>
<polygon fill="blue" stroke="blue" points="159.24,-999.59 165.47,-1008.16 165.95,-997.58 159.24,-999.59"/>
<polygon fill="blue" stroke="blue" points="146.5,-612.05 143,-622.05 139.5,-612.05 146.5,-612.05"/>
</a>
</g>
</g>
<!-- λ11&#45;&gt;Dup14 -->
<g id="edge29" class="edge">
<title>λ11&#45;&gt;Dup14</title>
<g id="a_edge29"><a xlink:title="ret137">
<path fill="none" stroke="red" d="M127.19,-291.17C115.58,-281.01 99.61,-267.03 86.5,-255.56"/>
<polygon fill="none" stroke="red" points="88.6,-252.75 78.77,-248.8 83.99,-258.02 88.6,-252.75"/>
</a>
</g>
</g>
<!-- Dup12 -->
<g id="node13" class="node">
<title>Dup12</title>
<ellipse fill="none" stroke="black" cx="424" cy="-1182" rx="27" ry="18"/>
<text text-anchor="middle" x="424" y="-1178.3" font-family="Times,serif" font-size="14.00">Dup</text>
</g>
<!-- Dup13&#45;&gt;λ11 -->
<g id="edge3" class="edge">
<title>Dup13&#45;&gt;λ11</title>
<g id="a_edge3"><a xlink:title="h136">
<path fill="none" stroke="blue" d="M122.93,-497.92C116.54,-489.15 110.29,-478.69 107,-468 92.89,-422.12 92.89,-405.88 107,-360 111.38,-345.75 121.04,-331.9 129.25,-321.93"/>
<polygon fill="none" stroke="blue" points="120.35,-500.31 129.25,-506.07 125.88,-496.02 120.35,-500.31"/>
</a>
</g>
</g>
<!-- Cut15 -->
<g id="node16" class="node">
<title>Cut15</title>
<ellipse fill="none" stroke="black" cx="143" cy="-450" rx="27" ry="18"/>
<text text-anchor="middle" x="143" y="-446.3" font-family="Times,serif" font-size="14.00">Cut</text>
</g>
<!-- Dup13&#45;&gt;Cut15 -->
<g id="edge2" class="edge">
<title>Dup13&#45;&gt;Cut15</title>
<g id="a_edge2"><a xlink:title="h132">
<path fill="none" stroke="blue" d="M143,-493.67C143,-485.05 143,-475.79 143,-468.1"/>
<polygon fill="blue" stroke="blue" points="139.5,-493.7 143,-503.7 146.5,-493.7 139.5,-493.7"/>
</a>
</g>
</g>
<!-- Dup14&#45;&gt;I3 -->
<g id="edge32" class="edge">
<title>Dup14&#45;&gt;I3</title>
<g id="a_edge32"><a xlink:title="ret42">
<path fill="none" stroke="red" d="M63,-215.7C63,-207.98 63,-198.71 63,-190.11"/>
<polygon fill="red" stroke="red" points="66.5,-190.1 63,-180.1 59.5,-190.1 66.5,-190.1"/>
</a>
</g>
</g>
<!-- Cut15&#45;&gt;!p6 -->
<g id="edge20" class="edge">
<title>Cut15&#45;&gt;!p6</title>
<g id="a_edge20"><a xlink:title="newrret18">
<path fill="none" stroke="red" d="M143,-431.7C143,-423.98 143,-414.71 143,-406.11"/>
<polygon fill="red" stroke="red" points="146.5,-406.1 143,-396.1 139.5,-406.1 146.5,-406.1"/>
</a>
</g>
</g>
<!-- !d16 -->
<g id="node17" class="node">
<title>!d16</title>
<ellipse fill="none" stroke="black" cx="253" cy="-666" rx="27" ry="18"/>
<text text-anchor="middle" x="253" y="-662.3" font-family="Times,serif" font-size="14.00">!d</text>
</g>
<!-- !d16&#45;&gt;!c8 -->
<g id="edge5" class="edge">
<title>!d16&#45;&gt;!c8</title>
<g id="a_edge5"><a xlink:title="hf107">
<path fill="none" stroke="blue" d="M225.24,-647.34C205.46,-634.75 179.38,-618.15 161.94,-607.05"/>
<polygon fill="blue" stroke="blue" points="223.52,-650.39 233.84,-652.81 227.28,-644.49 223.52,-650.39"/>
</a>
</g>
</g>
<!-- !d17 -->
<g id="node18" class="node">
<title>!d17</title>
<ellipse fill="none" stroke="black" cx="234" cy="-1098" rx="27" ry="18"/>
<text text-anchor="middle" x="234" y="-1094.3" font-family="Times,serif" font-size="14.00">!d</text>
</g>
<!-- !d17&#45;&gt;!p10 -->
<g id="edge6" class="edge">
<title>!d17&#45;&gt;!p10</title>
<g id="a_edge6"><a xlink:title="hf113">
<path fill="none" stroke="blue" d="M213.67,-1074.41C204.06,-1063.73 192.86,-1051.29 184.34,-1041.82"/>
<polygon fill="blue" stroke="blue" points="211.35,-1077.06 220.64,-1082.15 216.55,-1072.38 211.35,-1077.06"/>
</a>
</g>
</g>
<!-- @18 -->
<g id="node19" class="node">
<title>@18</title>
<ellipse fill="none" stroke="black" cx="325" cy="-738" rx="27" ry="18"/>
<text text-anchor="middle" x="325" y="-734.3" font-family="Times,serif" font-size="14.00">@</text>
</g>
<!-- @18&#45;&gt;!d16 -->
<g id="edge15" class="edge">
<title>@18&#45;&gt;!d16</title>
<g id="a_edge15"><a xlink:title="lval141">
<path fill="none" stroke="blue" d="M302.96,-715.57C291.55,-704.48 277.93,-691.24 267.8,-681.38"/>
<polygon fill="blue" stroke="blue" points="300.82,-718.37 310.43,-722.83 305.7,-713.35 300.82,-718.37"/>
</a>
</g>
</g>
<!-- !p22 -->
<g id="node23" class="node">
<title>!p22</title>
<ellipse fill="none" stroke="black" cx="325" cy="-666" rx="27" ry="18"/>
<text text-anchor="middle" x="325" y="-662.3" font-family="Times,serif" font-size="14.00">!p</text>
</g>
<!-- @18&#45;&gt;!p22 -->
<g id="edge18" class="edge">
<title>@18&#45;&gt;!p22</title>
<g id="a_edge18"><a xlink:title="newrret147">
<path fill="none" stroke="red" d="M325,-719.7C325,-711.98 325,-702.71 325,-694.11"/>
<polygon fill="red" stroke="red" points="328.5,-694.1 325,-684.1 321.5,-694.1 328.5,-694.1"/>
</a>
</g>
</g>
<!-- @19 -->
<g id="node20" class="node">
<title>@19</title>
<ellipse fill="none" stroke="black" cx="352" cy="-1182" rx="27" ry="18"/>
<text text-anchor="middle" x="352" y="-1178.3" font-family="Times,serif" font-size="14.00">@</text>
</g>
<!-- @19&#45;&gt;!d17 -->
<g id="edge16" class="edge">
<title>@19&#45;&gt;!d17</title>
<g id="a_edge16"><a xlink:title="lval144">
<path fill="none" stroke="blue" d="M325.43,-1162.53C303.02,-1146.96 271.57,-1125.11 252.01,-1111.51"/>
<polygon fill="blue" stroke="blue" points="323.61,-1165.53 333.82,-1168.37 327.61,-1159.78 323.61,-1165.53"/>
</a>
</g>
</g>
<!-- !p23 -->
<g id="node24" class="node">
<title>!p23</title>
<ellipse fill="none" stroke="black" cx="380" cy="-1098" rx="27" ry="18"/>
<text text-anchor="middle" x="380" y="-1094.3" font-family="Times,serif" font-size="14.00">!p</text>
</g>
<!-- @19&#45;&gt;!p23 -->
<g id="edge19" class="edge">
<title>@19&#45;&gt;!p23</title>
<g id="a_edge19"><a xlink:title="newrret152">
<path fill="none" stroke="red" d="M357.8,-1164.01C361.62,-1152.83 366.69,-1137.97 371.02,-1125.29"/>
<polygon fill="red" stroke="red" points="374.38,-1126.28 374.3,-1115.69 367.76,-1124.02 374.38,-1126.28"/>
</a>
</g>
</g>
<!-- Dup20 -->
<g id="node21" class="node">
<title>Dup20</title>
<ellipse fill="none" stroke="black" cx="496" cy="-1182" rx="27" ry="18"/>
<text text-anchor="middle" x="496" y="-1178.3" font-family="Times,serif" font-size="14.00">Dup</text>
</g>
<!-- Dup21&#45;&gt;@18 -->
<g id="edge11" class="edge">
<title>Dup21&#45;&gt;@18</title>
<g id="a_edge11"><a xlink:title="lret149">
<path fill="none" stroke="blue" d="M325,-781.67C325,-773.05 325,-763.79 325,-756.1"/>
<polygon fill="blue" stroke="blue" points="321.5,-781.7 325,-791.7 328.5,-781.7 321.5,-781.7"/>
</a>
</g>
</g>
<!-- Dup21&#45;&gt;@19 -->
<g id="edge12" class="edge">
<title>Dup21&#45;&gt;@19</title>
<g id="a_edge12"><a xlink:title="lret154">
<path fill="none" stroke="blue" d="M325,-838.08C325,-866.65 325,-913 325,-953 325,-1027 325,-1027 325,-1027 325,-1077.49 339.25,-1135.9 347.05,-1164.08"/>
<polygon fill="none" stroke="blue" points="328.5,-838.05 325,-828.05 321.5,-838.05 328.5,-838.05"/>
</a>
</g>
</g>
<!-- λ25 -->
<g id="node26" class="node">
<title>λ25</title>
<ellipse fill="none" stroke="black" cx="344" cy="-594" rx="27" ry="18"/>
<text text-anchor="middle" x="344" y="-590.3" font-family="Times,serif" font-size="14.00">λ</text>
</g>
<!-- !p22&#45;&gt;λ25 -->
<g id="edge24" class="edge">
<title>!p22&#45;&gt;λ25</title>
<g id="a_edge24"><a xlink:title="newrretf157">
<path fill="none" stroke="red" d="M329.6,-648.05C331.75,-640.14 334.35,-630.54 336.76,-621.69"/>
<polygon fill="red" stroke="red" points="340.2,-622.36 339.44,-611.79 333.45,-620.52 340.2,-622.36"/>
</a>
</g>
</g>
<!-- λ26 -->
<g id="node27" class="node">
<title>λ26</title>
<ellipse fill="none" stroke="black" cx="416" cy="-594" rx="27" ry="18"/>
<text text-anchor="middle" x="416" y="-590.3" font-family="Times,serif" font-size="14.00">λ</text>
</g>
<!-- !p23&#45;&gt;λ26 -->
<g id="edge25" class="edge">
<title>!p23&#45;&gt;λ26</title>
<g id="a_edge25"><a xlink:title="newrretf160">
<path fill="none" stroke="red" d="M380,-1079.95C380,-1053.29 380,-1000.11 380,-955 380,-955 380,-955 380,-737 380,-695.55 394.59,-649.32 405.2,-621.2"/>
<polygon fill="red" stroke="red" points="408.53,-622.29 408.89,-611.7 402,-619.75 408.53,-622.29"/>
</a>
</g>
</g>
<!-- Dup24 -->
<g id="node25" class="node">
<title>Dup24</title>
<ellipse fill="none" stroke="black" cx="571" cy="-1182" rx="26" ry="26"/>
<ellipse fill="none" stroke="black" cx="571" cy="-1182" rx="30" ry="30"/>
<text text-anchor="middle" x="571" y="-1178.3" font-family="Times,serif" font-size="14.00">Dup</text>
</g>
<!-- Dup29 -->
<g id="node30" class="node">
<title>Dup29</title>
<ellipse fill="none" stroke="black" cx="416" cy="-522" rx="27" ry="18"/>
<text text-anchor="middle" x="416" y="-518.3" font-family="Times,serif" font-size="14.00">Dup</text>
</g>
<!-- λ25&#45;&gt;Dup29 -->
<g id="edge30" class="edge">
<title>λ25&#45;&gt;Dup29</title>
<g id="a_edge30"><a xlink:title="ret164">
<path fill="none" stroke="red" d="M358.57,-578.83C368.75,-568.94 382.52,-555.55 394.03,-544.36"/>
<polygon fill="red" stroke="red" points="396.47,-546.87 401.2,-537.38 391.59,-541.85 396.47,-546.87"/>
</a>
</g>
</g>
<!-- λ26&#45;&gt;Dup29 -->
<g id="edge31" class="edge">
<title>λ26&#45;&gt;Dup29</title>
<g id="a_edge31"><a xlink:title="ret168">
<path fill="none" stroke="red" d="M416,-575.7C416,-567.98 416,-558.71 416,-550.11"/>
<polygon fill="none" stroke="red" points="419.5,-550.1 416,-540.1 412.5,-550.1 419.5,-550.1"/>
</a>
</g>
</g>
<!-- Dup27 -->
<g id="node28" class="node">
<title>Dup27</title>
<ellipse fill="none" stroke="black" cx="646" cy="-1182" rx="27" ry="18"/>
<text text-anchor="middle" x="646" y="-1178.3" font-family="Times,serif" font-size="14.00">Dup</text>
</g>
<!-- Dup28&#45;&gt;λ25 -->
<g id="edge7" class="edge">
<title>Dup28&#45;&gt;λ25</title>
<g id="a_edge7"><a xlink:title="i163">
<path fill="none" stroke="blue" d="M409.73,-645.56C394.21,-633.62 374.75,-618.65 361.04,-608.11"/>
<polygon fill="blue" stroke="blue" points="407.82,-648.51 417.88,-651.83 412.09,-642.96 407.82,-648.51"/>
</a>
</g>
</g>
<!-- Dup28&#45;&gt;λ26 -->
<g id="edge8" class="edge">
<title>Dup28&#45;&gt;λ26</title>
<g id="a_edge8"><a xlink:title="i167">
<path fill="none" stroke="blue" d="M427.71,-638.14C425.3,-629.28 422.7,-619.68 420.56,-611.79"/>
<polygon fill="none" stroke="blue" points="424.4,-639.32 430.4,-648.05 431.16,-637.49 424.4,-639.32"/>
</a>
</g>
</g>
<!-- Dup29&#45;&gt;I0 -->
<g id="edge33" class="edge">
<title>Dup29&#45;&gt;I0</title>
<g id="a_edge33"><a xlink:title="ret82">
<path fill="none" stroke="red" d="M428.53,-538.4C436.25,-548.55 445.82,-562.44 452,-576 483.54,-645.26 489.32,-736.63 490.11,-781.6"/>
<polygon fill="red" stroke="red" points="486.61,-781.78 490.22,-791.74 493.61,-781.7 486.61,-781.78"/>
</a>
</g>
</g>
<!-- DupI30 -->
<g id="node31" class="node">
<title>DupI30</title>
<ellipse fill="none" stroke="black" cx="720" cy="-1182" rx="28.7" ry="18"/>
<text text-anchor="middle" x="720" y="-1178.3" font-family="Times,serif" font-size="14.00">DupI</text>
</g>
</g>
</svg>
