<?xml version="1.0" encoding="UTF-8" standalone="no"?>
<!DOCTYPE svg PUBLIC "-//W3C//DTD SVG 1.1//EN"
 "http://www.w3.org/Graphics/SVG/1.1/DTD/svg11.dtd">
<!-- Generated by graphviz version 2.49.3 (0)
 -->
<!-- Pages: 1 -->
<svg width="320pt" height="1148pt"
 viewBox="0.00 0.00 320.00 1148.00" xmlns="http://www.w3.org/2000/svg" xmlns:xlink="http://www.w3.org/1999/xlink">
<g id="graph0" class="graph" transform="scale(1 1) rotate(0) translate(4 1144)">
<polygon fill="white" stroke="transparent" points="-4,4 -4,-1144 316,-1144 316,4 -4,4"/>
<!-- Identity0 -->
<g id="node1" class="node">
<title>Identity0</title>
<ellipse fill="none" stroke="black" cx="214" cy="-1122" rx="38.19" ry="18"/>
<text text-anchor="middle" x="214" y="-1118.3" font-family="Times,serif" font-size="14.00">Identity</text>
</g>
<!-- BangD1 -->
<g id="node2" class="node">
<title>BangD1</title>
<ellipse fill="none" stroke="black" cx="214" cy="-1050" rx="36" ry="18"/>
<text text-anchor="middle" x="214" y="-1046.3" font-family="Times,serif" font-size="14.00">BangD</text>
</g>
<!-- BangD1&#45;&gt;Identity0 -->
<g id="edge18" class="edge">
<title>BangD1&#45;&gt;Identity0</title>
<g id="a_edge18"><a xlink:title="iret84">
<path fill="none" stroke="blue" d="M208.12,-1067.94C207.29,-1075.76 207.05,-1085.25 207.41,-1094.02"/>
<polygon fill="blue" stroke="blue" points="203.93,-1094.48 208.14,-1104.21 210.92,-1093.98 203.93,-1094.48"/>
</a>
</g>
</g>
<!-- BangD1&#45;&gt;Identity0 -->
<g id="edge19" class="edge">
<title>BangD1&#45;&gt;Identity0</title>
<g id="a_edge19"><a xlink:title="iseq83">
<path fill="none" stroke="black" d="M219.88,-1067.94C220.71,-1075.76 220.95,-1085.25 220.59,-1094.02"/>
<polygon fill="black" stroke="black" points="217.08,-1093.98 219.86,-1104.21 224.07,-1094.48 217.08,-1093.98"/>
</a>
</g>
</g>
<!-- PiR2 -->
<g id="node3" class="node">
<title>PiR2</title>
<ellipse fill="none" stroke="black" cx="214" cy="-978" rx="27" ry="18"/>
<text text-anchor="middle" x="214" y="-974.3" font-family="Times,serif" font-size="14.00">PiR</text>
</g>
<!-- PiR2&#45;&gt;Identity0 -->
<g id="edge37" class="edge">
<title>PiR2&#45;&gt;Identity0</title>
<g id="a_edge37"><a xlink:title="ret82">
<path fill="none" stroke="red" d="M230.21,-992.43C240.63,-1002.18 253.26,-1016.36 259,-1032 264.52,-1047.01 264.52,-1052.98 259,-1068 254.86,-1079.27 247.13,-1089.79 239.24,-1098.44"/>
<polygon fill="red" stroke="red" points="236.52,-1096.22 232.04,-1105.82 241.53,-1101.11 236.52,-1096.22"/>
</a>
</g>
</g>
<!-- PiR2&#45;&gt;BangD1 -->
<g id="edge15" class="edge">
<title>PiR2&#45;&gt;BangD1</title>
<g id="a_edge15"><a xlink:title="i81">
<path fill="none" stroke="blue" d="M208.16,-995.58C207.3,-1003.49 207.05,-1013.14 207.41,-1022.06"/>
<polygon fill="blue" stroke="blue" points="203.92,-1022.31 208.12,-1032.04 210.9,-1021.82 203.92,-1022.31"/>
</a>
</g>
</g>
<!-- PiR2&#45;&gt;BangD1 -->
<g id="edge41" class="edge">
<title>PiR2&#45;&gt;BangD1</title>
<g id="a_edge41"><a xlink:title="seq80">
<path fill="none" stroke="black" d="M219.84,-995.58C220.7,-1003.49 220.95,-1013.14 220.59,-1022.06"/>
<polygon fill="black" stroke="black" points="217.1,-1021.82 219.88,-1032.04 224.08,-1022.31 217.1,-1021.82"/>
</a>
</g>
</g>
<!-- Bang3 -->
<g id="node4" class="node">
<title>Bang3</title>
<ellipse fill="none" stroke="black" cx="214" cy="-906" rx="29.5" ry="18"/>
<text text-anchor="middle" x="214" y="-902.3" font-family="Times,serif" font-size="14.00">Bang</text>
</g>
<!-- Bang3&#45;&gt;PiR2 -->
<g id="edge3" class="edge">
<title>Bang3&#45;&gt;PiR2</title>
<g id="a_edge3"><a xlink:title="c_bseq79">
<path fill="none" stroke="black" d="M208.12,-923.94C207.29,-931.76 207.05,-941.25 207.41,-950.02"/>
<polygon fill="black" stroke="black" points="203.93,-950.48 208.14,-960.21 210.92,-949.98 203.93,-950.48"/>
</a>
</g>
</g>
<!-- Bang3&#45;&gt;PiR2 -->
<g id="edge32" class="edge">
<title>Bang3&#45;&gt;PiR2</title>
<g id="a_edge32"><a xlink:title="newrretf78">
<path fill="none" stroke="red" d="M219.88,-923.94C220.71,-931.76 220.95,-941.25 220.59,-950.02"/>
<polygon fill="red" stroke="red" points="217.08,-949.98 219.86,-960.21 224.07,-950.48 217.08,-949.98"/>
</a>
</g>
</g>
<!-- Identity4 -->
<g id="node5" class="node">
<title>Identity4</title>
<ellipse fill="none" stroke="black" cx="128" cy="-906" rx="38.19" ry="18"/>
<text text-anchor="middle" x="128" y="-902.3" font-family="Times,serif" font-size="14.00">Identity</text>
</g>
<!-- PiL5 -->
<g id="node6" class="node">
<title>PiL5</title>
<ellipse fill="none" stroke="black" cx="207" cy="-834" rx="27" ry="18"/>
<text text-anchor="middle" x="207" y="-830.3" font-family="Times,serif" font-size="14.00">PiL</text>
</g>
<!-- PiL5&#45;&gt;Bang3 -->
<g id="edge6" class="edge">
<title>PiL5&#45;&gt;Bang3</title>
<g id="a_edge6"><a xlink:title="dseq76">
<path fill="none" stroke="black" d="M202.82,-851.94C202.77,-859.85 203.5,-869.46 204.75,-878.31"/>
<polygon fill="black" stroke="black" points="201.31,-878.95 206.46,-888.21 208.21,-877.76 201.31,-878.95"/>
</a>
</g>
</g>
<!-- PiL5&#45;&gt;Bang3 -->
<g id="edge28" class="edge">
<title>PiL5&#45;&gt;Bang3</title>
<g id="a_edge28"><a xlink:title="newrret74">
<path fill="none" stroke="red" d="M214.5,-851.58C216.13,-859.4 217.34,-868.93 217.88,-877.77"/>
<polygon fill="red" stroke="red" points="214.39,-878.15 218.18,-888.04 221.38,-877.94 214.39,-878.15"/>
</a>
</g>
</g>
<!-- PiL5&#45;&gt;Identity4 -->
<g id="edge17" class="edge">
<title>PiL5&#45;&gt;Identity4</title>
<g id="a_edge17"><a xlink:title="idseq77">
<path fill="none" stroke="black" d="M179.97,-853.59C169.43,-862.22 157.62,-872.58 147.86,-881.72"/>
<polygon fill="black" stroke="black" points="190.16,-849.92 180.16,-853.44 185.79,-844.46 190.16,-849.92"/>
<polygon fill="black" stroke="black" points="145.34,-879.3 140.54,-888.74 150.18,-884.35 145.34,-879.3"/>
</a>
</g>
</g>
<!-- PiL5&#45;&gt;Identity4 -->
<g id="edge21" class="edge">
<title>PiL5&#45;&gt;Identity4</title>
<g id="a_edge21"><a xlink:title="lret75">
<path fill="none" stroke="blue" d="M195.19,-850.53C185.08,-860.54 170.44,-873.66 157.32,-884.51"/>
<polygon fill="blue" stroke="blue" points="154.97,-881.91 149.41,-890.93 159.38,-887.35 154.97,-881.91"/>
</a>
</g>
</g>
<!-- BangD6 -->
<g id="node7" class="node">
<title>BangD6</title>
<ellipse fill="none" stroke="black" cx="207" cy="-762" rx="36" ry="18"/>
<text text-anchor="middle" x="207" y="-758.3" font-family="Times,serif" font-size="14.00">BangD</text>
</g>
<!-- BangD6&#45;&gt;PiL5 -->
<g id="edge14" class="edge">
<title>BangD6&#45;&gt;PiL5</title>
<g id="a_edge14"><a xlink:title="hseq72">
<path fill="none" stroke="black" d="M201.12,-779.94C200.29,-787.76 200.05,-797.25 200.41,-806.02"/>
<polygon fill="black" stroke="black" points="196.93,-806.48 201.14,-816.21 203.92,-805.98 196.93,-806.48"/>
</a>
</g>
</g>
<!-- BangD6&#45;&gt;PiL5 -->
<g id="edge23" class="edge">
<title>BangD6&#45;&gt;PiL5</title>
<g id="a_edge23"><a xlink:title="lval70">
<path fill="none" stroke="blue" d="M212.88,-779.94C213.71,-787.76 213.95,-797.25 213.59,-806.02"/>
<polygon fill="blue" stroke="blue" points="210.08,-805.98 212.86,-816.21 217.07,-806.48 210.08,-805.98"/>
</a>
</g>
</g>
<!-- Identity7 -->
<g id="node8" class="node">
<title>Identity7</title>
<ellipse fill="none" stroke="black" cx="93" cy="-594" rx="38.19" ry="18"/>
<text text-anchor="middle" x="93" y="-590.3" font-family="Times,serif" font-size="14.00">Identity</text>
</g>
<!-- PiL8 -->
<g id="node9" class="node">
<title>PiL8</title>
<ellipse fill="none" stroke="black" cx="179" cy="-522" rx="27" ry="18"/>
<text text-anchor="middle" x="179" y="-518.3" font-family="Times,serif" font-size="14.00">PiL</text>
</g>
<!-- PiL8&#45;&gt;Identity7 -->
<g id="edge16" class="edge">
<title>PiL8&#45;&gt;Identity7</title>
<g id="a_edge16"><a xlink:title="idseq55">
<path fill="none" stroke="black" d="M151.28,-540.72C139.35,-549.69 125.7,-560.69 114.54,-570.28"/>
<polygon fill="black" stroke="black" points="161.71,-537.38 151.58,-540.49 157.56,-531.74 161.71,-537.38"/>
<polygon fill="black" stroke="black" points="112.13,-567.75 106.92,-576.97 116.74,-573.01 112.13,-567.75"/>
</a>
</g>
</g>
<!-- PiL8&#45;&gt;Identity7 -->
<g id="edge20" class="edge">
<title>PiL8&#45;&gt;Identity7</title>
<g id="a_edge20"><a xlink:title="lret53">
<path fill="none" stroke="blue" d="M166.02,-538.19C154.71,-548.41 138.19,-561.98 123.65,-573.07"/>
<polygon fill="blue" stroke="blue" points="121.28,-570.47 115.37,-579.26 125.47,-576.08 121.28,-570.47"/>
</a>
</g>
</g>
<!-- Bang16 -->
<g id="node17" class="node">
<title>Bang16</title>
<ellipse fill="none" stroke="black" cx="179" cy="-594" rx="29.5" ry="18"/>
<text text-anchor="middle" x="179" y="-590.3" font-family="Times,serif" font-size="14.00">Bang</text>
</g>
<!-- PiL8&#45;&gt;Bang16 -->
<g id="edge5" class="edge">
<title>PiL8&#45;&gt;Bang16</title>
<g id="a_edge5"><a xlink:title="dseq54">
<path fill="none" stroke="black" d="M173.16,-539.59C172.3,-547.49 172.05,-557.15 172.41,-566.06"/>
<polygon fill="black" stroke="black" points="168.92,-566.32 173.12,-576.04 175.9,-565.82 168.92,-566.32"/>
</a>
</g>
</g>
<!-- PiL8&#45;&gt;Bang16 -->
<g id="edge27" class="edge">
<title>PiL8&#45;&gt;Bang16</title>
<g id="a_edge27"><a xlink:title="newrret52">
<path fill="none" stroke="red" d="M184.84,-539.59C185.7,-547.49 185.95,-557.15 185.59,-566.06"/>
<polygon fill="red" stroke="red" points="182.1,-565.82 184.88,-576.04 189.08,-566.32 182.1,-565.82"/>
</a>
</g>
</g>
<!-- Assign9 -->
<g id="node10" class="node">
<title>Assign9</title>
<ellipse fill="none" stroke="black" cx="122" cy="-18" rx="35.19" ry="18"/>
<text text-anchor="middle" x="122" y="-14.3" font-family="Times,serif" font-size="14.00">Assign</text>
</g>
<!-- Dup20 -->
<g id="node21" class="node">
<title>Dup20</title>
<ellipse fill="none" stroke="black" cx="27" cy="-306" rx="27" ry="18"/>
<text text-anchor="middle" x="27" y="-302.3" font-family="Times,serif" font-size="14.00">Dup</text>
</g>
<!-- Assign9&#45;&gt;Dup20 -->
<g id="edge34" class="edge">
<title>Assign9&#45;&gt;Dup20</title>
<g id="a_edge34"><a xlink:title="ret133">
<path fill="none" stroke="red" d="M109.08,-34.83C101.4,-44.93 92.02,-58.61 86,-72 54.24,-142.68 37.51,-233.41 30.72,-277.92"/>
<polygon fill="red" stroke="red" points="27.24,-277.55 29.24,-287.95 34.16,-278.57 27.24,-277.55"/>
</a>
</g>
</g>
<!-- Cut21 -->
<g id="node22" class="node">
<title>Cut21</title>
<ellipse fill="none" stroke="black" cx="122" cy="-90" rx="27" ry="18"/>
<text text-anchor="middle" x="122" y="-86.3" font-family="Times,serif" font-size="14.00">Cut</text>
</g>
<!-- Assign9&#45;&gt;Cut21 -->
<g id="edge43" class="edge">
<title>Assign9&#45;&gt;Cut21</title>
<g id="a_edge43"><a xlink:title="seqBC94">
<path fill="none" stroke="black" d="M122,-36.3C122,-44.02 122,-53.29 122,-61.89"/>
<polygon fill="black" stroke="black" points="118.5,-61.9 122,-71.9 125.5,-61.9 118.5,-61.9"/>
</a>
</g>
</g>
<!-- Bang10 -->
<g id="node11" class="node">
<title>Bang10</title>
<ellipse fill="none" stroke="black" cx="122" cy="-162" rx="29.5" ry="18"/>
<text text-anchor="middle" x="122" y="-158.3" font-family="Times,serif" font-size="14.00">Bang</text>
</g>
<!-- PiR17 -->
<g id="node18" class="node">
<title>PiR17</title>
<ellipse fill="none" stroke="black" cx="122" cy="-234" rx="27" ry="18"/>
<text text-anchor="middle" x="122" y="-230.3" font-family="Times,serif" font-size="14.00">PiR</text>
</g>
<!-- Bang10&#45;&gt;PiR17 -->
<g id="edge24" class="edge">
<title>Bang10&#45;&gt;PiR17</title>
<g id="a_edge24"><a xlink:title="newcut_bseq100">
<path fill="none" stroke="black" d="M116.12,-179.95C115.29,-187.77 115.05,-197.25 115.41,-206.02"/>
<polygon fill="black" stroke="black" points="111.93,-206.49 116.14,-216.21 118.92,-205.99 111.93,-206.49"/>
</a>
</g>
</g>
<!-- Bang10&#45;&gt;PiR17 -->
<g id="edge33" class="edge">
<title>Bang10&#45;&gt;PiR17</title>
<g id="a_edge33"><a xlink:title="newrretf91">
<path fill="none" stroke="red" d="M127.88,-179.95C128.71,-187.77 128.95,-197.25 128.59,-206.02"/>
<polygon fill="red" stroke="red" points="125.08,-205.99 127.86,-216.21 132.07,-206.49 125.08,-205.99"/>
</a>
</g>
</g>
<!-- Dup11 -->
<g id="node12" class="node">
<title>Dup11</title>
<ellipse fill="none" stroke="black" cx="207" cy="-678" rx="27" ry="18"/>
<text text-anchor="middle" x="207" y="-674.3" font-family="Times,serif" font-size="14.00">Dup</text>
</g>
<!-- Dup11&#45;&gt;BangD6 -->
<g id="edge2" class="edge">
<title>Dup11&#45;&gt;BangD6</title>
<g id="a_edge2"><a xlink:title="c_bseq67">
<path fill="none" stroke="black" d="M207,-696.39C207,-707.22 207,-721.4 207,-733.7"/>
<polygon fill="black" stroke="black" points="203.5,-733.91 207,-743.91 210.5,-733.91 203.5,-733.91"/>
</a>
</g>
</g>
<!-- Dup12 -->
<g id="node13" class="node">
<title>Dup12</title>
<ellipse fill="none" stroke="black" cx="128" cy="-678" rx="27" ry="18"/>
<text text-anchor="middle" x="128" y="-674.3" font-family="Times,serif" font-size="14.00">Dup</text>
</g>
<!-- Dup12&#45;&gt;Identity4 -->
<g id="edge31" class="edge">
<title>Dup12&#45;&gt;Identity4</title>
<g id="a_edge31"><a xlink:title="newrretf66">
<path fill="none" stroke="red" d="M128,-696.36C128,-735.48 128,-830.79 128,-877.82"/>
<polygon fill="red" stroke="red" points="124.5,-877.89 128,-887.89 131.5,-877.89 124.5,-877.89"/>
</a>
</g>
</g>
<!-- Dup13 -->
<g id="node14" class="node">
<title>Dup13</title>
<ellipse fill="none" stroke="black" cx="282" cy="-678" rx="26" ry="26"/>
<ellipse fill="none" stroke="black" cx="282" cy="-678" rx="30" ry="30"/>
<text text-anchor="middle" x="282" y="-674.3" font-family="Times,serif" font-size="14.00">Dup</text>
</g>
<!-- Dup13&#45;&gt;BangD6 -->
<g id="edge13" class="edge">
<title>Dup13&#45;&gt;BangD6</title>
<g id="a_edge13"><a xlink:title="hf65">
<path fill="none" stroke="blue" stroke-width="2" d="M261.9,-700.97C251.47,-712.38 238.72,-726.32 228.14,-737.89"/>
<polygon fill="blue" stroke="blue" stroke-width="2" points="225.38,-735.72 221.21,-745.46 230.54,-740.44 225.38,-735.72"/>
</a>
</g>
</g>
<!-- BangC14 -->
<g id="node15" class="node">
<title>BangC14</title>
<ellipse fill="none" stroke="black" cx="179" cy="-378" rx="35.19" ry="18"/>
<text text-anchor="middle" x="179" y="-374.3" font-family="Times,serif" font-size="14.00">BangC</text>
</g>
<!-- BangC14&#45;&gt;Dup13 -->
<g id="edge11" class="edge">
<title>BangC14&#45;&gt;Dup13</title>
<g id="a_edge11"><a xlink:title="hf107">
<path fill="none" stroke="blue" d="M198.39,-393.09C210.22,-402.72 224.62,-416.52 233,-432 268.85,-498.24 278.61,-587.35 281.18,-637.82"/>
<polygon fill="blue" stroke="blue" points="277.69,-638.14 281.63,-647.98 284.68,-637.83 277.69,-638.14"/>
</a>
</g>
</g>
<!-- Cut15 -->
<g id="node16" class="node">
<title>Cut15</title>
<ellipse fill="none" stroke="black" cx="179" cy="-450" rx="27" ry="18"/>
<text text-anchor="middle" x="179" y="-446.3" font-family="Times,serif" font-size="14.00">Cut</text>
</g>
<!-- BangC14&#45;&gt;Cut15 -->
<g id="edge42" class="edge">
<title>BangC14&#45;&gt;Cut15</title>
<g id="a_edge42"><a xlink:title="seqBC118">
<path fill="none" stroke="black" d="M179,-396.3C179,-404.02 179,-413.29 179,-421.89"/>
<polygon fill="black" stroke="black" points="175.5,-421.9 179,-431.9 182.5,-421.9 175.5,-421.9"/>
</a>
</g>
</g>
<!-- BangC14&#45;&gt;Bang16 -->
<g id="edge7" class="edge">
<title>BangC14&#45;&gt;Bang16</title>
<g id="a_edge7"><a xlink:title="h116">
<path fill="none" stroke="blue" d="M199.65,-402.87C205.83,-411.48 211.81,-421.63 215,-432 229.11,-477.88 229.11,-494.12 215,-540 211.71,-550.69 205.46,-561.15 199.07,-569.92"/>
<polygon fill="blue" stroke="blue" points="196.27,-392.71 199.57,-402.77 190.71,-396.96 196.27,-392.71"/>
<polygon fill="blue" stroke="blue" points="196.12,-568.02 192.75,-578.07 201.65,-572.31 196.12,-568.02"/>
</a>
</g>
</g>
<!-- Cut15&#45;&gt;PiL8 -->
<g id="edge22" class="edge">
<title>Cut15&#45;&gt;PiL8</title>
<g id="a_edge22"><a xlink:title="lval48">
<path fill="none" stroke="blue" d="M173.16,-467.59C172.3,-475.49 172.05,-485.15 172.41,-494.06"/>
<polygon fill="blue" stroke="blue" points="168.92,-494.32 173.12,-504.04 175.9,-493.82 168.92,-494.32"/>
</a>
</g>
</g>
<!-- Cut15&#45;&gt;PiL8 -->
<g id="edge44" class="edge">
<title>Cut15&#45;&gt;PiL8</title>
<g id="a_edge44"><a xlink:title="yseq50">
<path fill="none" stroke="black" d="M185.58,-477.81C185.8,-483.05 185.81,-488.54 185.6,-493.78"/>
<polygon fill="black" stroke="black" points="188.33,-467.34 185.57,-477.56 181.35,-467.84 188.33,-467.34"/>
<polygon fill="black" stroke="black" points="182.09,-493.82 184.88,-504.04 189.07,-494.31 182.09,-493.82"/>
</a>
</g>
</g>
<!-- Cut15&#45;&gt;Dup11 -->
<g id="edge1" class="edge">
<title>Cut15&#45;&gt;Dup11</title>
<g id="a_edge1"><a xlink:title="c_bseq106">
<path fill="none" stroke="black" d="M192.62,-465.97C200.77,-475.96 210.42,-489.82 215,-504 231.03,-553.66 221.65,-615.49 213.94,-650.17"/>
<polygon fill="black" stroke="black" points="210.51,-649.49 211.64,-660.02 217.32,-651.08 210.51,-649.49"/>
</a>
</g>
</g>
<!-- Cut15&#45;&gt;Dup12 -->
<g id="edge29" class="edge">
<title>Cut15&#45;&gt;Dup12</title>
<g id="a_edge29"><a xlink:title="newrretf108">
<path fill="none" stroke="red" d="M159.1,-462.25C128.05,-481.1 69.21,-522.34 46,-576 39.65,-590.69 39.04,-597.59 46,-612 56.67,-634.07 78.87,-650.93 97.48,-661.94"/>
<polygon fill="red" stroke="red" points="95.83,-665.03 106.26,-666.87 99.26,-658.93 95.83,-665.03"/>
</a>
</g>
</g>
<!-- Bang16&#45;&gt;Dup11 -->
<g id="edge25" class="edge">
<title>Bang16&#45;&gt;Dup11</title>
<g id="a_edge25"><a xlink:title="newcut_bseq125">
<path fill="none" stroke="black" d="M184.8,-611.99C188.62,-623.17 193.69,-638.02 198.02,-650.71"/>
<polygon fill="none" stroke="black" points="194.76,-651.98 201.3,-660.31 201.38,-649.72 194.76,-651.98"/>
</a>
</g>
</g>
<!-- Bang16&#45;&gt;Dup12 -->
<g id="edge30" class="edge">
<title>Bang16&#45;&gt;Dup12</title>
<g id="a_edge30"><a xlink:title="newrretf114">
<path fill="none" stroke="red" d="M168.92,-611.2C161.61,-622.96 151.59,-639.07 143.29,-652.41"/>
<polygon fill="none" stroke="red" points="140.19,-650.77 137.88,-661.11 146.14,-654.47 140.19,-650.77"/>
</a>
</g>
</g>
<!-- Bang16&#45;&gt;Dup13 -->
<g id="edge12" class="edge">
<title>Bang16&#45;&gt;Dup13</title>
<g id="a_edge12"><a xlink:title="hf113">
<path fill="none" stroke="blue" d="M196.47,-608.91C211.4,-620.8 233.24,-638.18 251.12,-652.41"/>
<polygon fill="none" stroke="blue" points="249.01,-655.2 259.01,-658.69 253.37,-649.73 249.01,-655.2"/>
</a>
</g>
</g>
<!-- Dup18 -->
<g id="node19" class="node">
<title>Dup18</title>
<ellipse fill="none" stroke="black" cx="179" cy="-306" rx="27" ry="18"/>
<text text-anchor="middle" x="179" y="-302.3" font-family="Times,serif" font-size="14.00">Dup</text>
</g>
<!-- PiR17&#45;&gt;Dup18 -->
<g id="edge39" class="edge">
<title>PiR17&#45;&gt;Dup18</title>
<g id="a_edge39"><a xlink:title="seq135">
<path fill="none" stroke="black" d="M134.37,-250.19C141.91,-259.45 151.7,-271.48 160.19,-281.91"/>
<polygon fill="none" stroke="black" points="157.63,-284.3 166.66,-289.84 163.06,-279.88 157.63,-284.3"/>
</a>
</g>
</g>
<!-- Dup19 -->
<g id="node20" class="node">
<title>Dup19</title>
<ellipse fill="none" stroke="black" cx="107" cy="-306" rx="27" ry="18"/>
<text text-anchor="middle" x="107" y="-302.3" font-family="Times,serif" font-size="14.00">Dup</text>
</g>
<!-- PiR17&#45;&gt;Dup19 -->
<g id="edge9" class="edge">
<title>PiR17&#45;&gt;Dup19</title>
<g id="a_edge9"><a xlink:title="h136">
<path fill="none" stroke="blue" d="M118.37,-251.95C116.7,-259.74 114.68,-269.18 112.8,-277.92"/>
<polygon fill="none" stroke="blue" points="109.37,-277.21 110.7,-287.72 116.22,-278.68 109.37,-277.21"/>
</a>
</g>
</g>
<!-- PiR17&#45;&gt;Dup20 -->
<g id="edge35" class="edge">
<title>PiR17&#45;&gt;Dup20</title>
<g id="a_edge35"><a xlink:title="ret137">
<path fill="none" stroke="red" d="M104.58,-247.84C90.07,-258.53 69.21,-273.9 52.77,-286.01"/>
<polygon fill="none" stroke="red" points="50.61,-283.26 44.64,-292.01 54.76,-288.89 50.61,-283.26"/>
</a>
</g>
</g>
<!-- Dup18&#45;&gt;BangC14 -->
<g id="edge40" class="edge">
<title>Dup18&#45;&gt;BangC14</title>
<g id="a_edge40"><a xlink:title="seq33">
<path fill="none" stroke="black" d="M179,-324.3C179,-332.02 179,-341.29 179,-349.89"/>
<polygon fill="black" stroke="black" points="175.5,-349.9 179,-359.9 182.5,-349.9 175.5,-349.9"/>
</a>
</g>
</g>
<!-- Dup19&#45;&gt;BangC14 -->
<g id="edge10" class="edge">
<title>Dup19&#45;&gt;BangC14</title>
<g id="a_edge10"><a xlink:title="h34">
<path fill="none" stroke="blue" d="M121.57,-321.17C131.39,-330.71 144.54,-343.5 155.79,-354.43"/>
<polygon fill="blue" stroke="blue" points="153.59,-357.18 163.2,-361.64 158.47,-352.16 153.59,-357.18"/>
</a>
</g>
</g>
<!-- Dup20&#45;&gt;Identity7 -->
<g id="edge36" class="edge">
<title>Dup20&#45;&gt;Identity7</title>
<g id="a_edge36"><a xlink:title="ret42">
<path fill="none" stroke="red" d="M30.93,-324.03C41.98,-371.92 73.39,-508.02 86.8,-566.15"/>
<polygon fill="red" stroke="red" points="83.43,-567.1 89.09,-576.06 90.25,-565.52 83.43,-567.1"/>
</a>
</g>
</g>
<!-- Cut21&#45;&gt;Bang10 -->
<g id="edge4" class="edge">
<title>Cut21&#45;&gt;Bang10</title>
<g id="a_edge4"><a xlink:title="dseq20">
<path fill="none" stroke="black" d="M116.16,-107.59C115.3,-115.49 115.05,-125.15 115.41,-134.06"/>
<polygon fill="black" stroke="black" points="111.92,-134.32 116.12,-144.04 118.9,-133.82 111.92,-134.32"/>
</a>
</g>
</g>
<!-- Cut21&#45;&gt;Bang10 -->
<g id="edge26" class="edge">
<title>Cut21&#45;&gt;Bang10</title>
<g id="a_edge26"><a xlink:title="newrret18">
<path fill="none" stroke="red" d="M127.84,-107.59C128.7,-115.49 128.95,-125.15 128.59,-134.06"/>
<polygon fill="red" stroke="red" points="125.1,-133.82 127.88,-144.04 132.08,-134.32 125.1,-133.82"/>
</a>
</g>
</g>
<!-- Cut21&#45;&gt;Dup18 -->
<g id="edge38" class="edge">
<title>Cut21&#45;&gt;Dup18</title>
<g id="a_edge38"><a xlink:title="seq131">
<path fill="none" stroke="black" d="M142.27,-113.89C149.01,-122.73 155.85,-133.28 160,-144 177.27,-188.56 179.99,-244.84 179.86,-277.69"/>
<polygon fill="black" stroke="black" points="138.66,-103.81 142.19,-113.8 133.2,-108.19 138.66,-103.81"/>
<polygon fill="black" stroke="black" points="176.36,-277.84 179.73,-287.88 183.36,-277.93 176.36,-277.84"/>
</a>
</g>
</g>
<!-- Cut21&#45;&gt;Dup19 -->
<g id="edge8" class="edge">
<title>Cut21&#45;&gt;Dup19</title>
<g id="a_edge8"><a xlink:title="h132">
<path fill="none" stroke="blue" d="M107.89,-105.36C99.14,-115.3 88.71,-129.34 84,-144 80.04,-156.32 81.19,-228.56 86,-252 87.89,-261.2 91.26,-270.86 94.76,-279.37"/>
<polygon fill="blue" stroke="blue" points="91.64,-280.98 98.84,-288.75 98.06,-278.18 91.64,-280.98"/>
</a>
</g>
</g>
</g>
</svg>
