<?xml version="1.0" encoding="UTF-8" standalone="no"?>
<!DOCTYPE svg PUBLIC "-//W3C//DTD SVG 1.1//EN"
 "http://www.w3.org/Graphics/SVG/1.1/DTD/svg11.dtd">
<!-- Generated by graphviz version 2.49.3 (0)
 -->
<!-- Pages: 1 -->
<svg width="442pt" height="1292pt"
 viewBox="0.00 0.00 442.00 1292.00" xmlns="http://www.w3.org/2000/svg" xmlns:xlink="http://www.w3.org/1999/xlink">
<g id="graph0" class="graph" transform="scale(1 1) rotate(0) translate(4 1288)">
<polygon fill="white" stroke="transparent" points="-4,4 -4,-1288 438,-1288 438,4 -4,4"/>
<!-- Identity0 -->
<g id="node1" class="node">
<title>Identity0</title>
<ellipse fill="none" stroke="black" cx="263" cy="-1266" rx="38.19" ry="18"/>
<text text-anchor="middle" x="263" y="-1262.3" font-family="Times,serif" font-size="14.00">Identity</text>
</g>
<!-- BangD1 -->
<g id="node2" class="node">
<title>BangD1</title>
<ellipse fill="none" stroke="black" cx="263" cy="-1194" rx="36" ry="18"/>
<text text-anchor="middle" x="263" y="-1190.3" font-family="Times,serif" font-size="14.00">BangD</text>
</g>
<!-- BangD1&#45;&gt;Identity0 -->
<g id="edge26" class="edge">
<title>BangD1&#45;&gt;Identity0</title>
<g id="a_edge26"><a xlink:title="iret84">
<path fill="none" stroke="blue" d="M257.12,-1211.94C256.29,-1219.76 256.05,-1229.25 256.41,-1238.02"/>
<polygon fill="blue" stroke="blue" points="252.93,-1238.48 257.14,-1248.21 259.92,-1237.98 252.93,-1238.48"/>
</a>
</g>
</g>
<!-- BangD1&#45;&gt;Identity0 -->
<g id="edge27" class="edge">
<title>BangD1&#45;&gt;Identity0</title>
<g id="a_edge27"><a xlink:title="iseq83">
<path fill="none" stroke="black" d="M268.88,-1211.94C269.71,-1219.76 269.95,-1229.25 269.59,-1238.02"/>
<polygon fill="black" stroke="black" points="266.08,-1237.98 268.86,-1248.21 273.07,-1238.48 266.08,-1237.98"/>
</a>
</g>
</g>
<!-- Identity2 -->
<g id="node3" class="node">
<title>Identity2</title>
<ellipse fill="none" stroke="black" cx="220" cy="-894" rx="38.19" ry="18"/>
<text text-anchor="middle" x="220" y="-890.3" font-family="Times,serif" font-size="14.00">Identity</text>
</g>
<!-- Identity3 -->
<g id="node4" class="node">
<title>Identity3</title>
<ellipse fill="none" stroke="black" cx="131" cy="-594" rx="38.19" ry="18"/>
<text text-anchor="middle" x="131" y="-590.3" font-family="Times,serif" font-size="14.00">Identity</text>
</g>
<!-- PiL4 -->
<g id="node5" class="node">
<title>PiL4</title>
<ellipse fill="none" stroke="black" cx="171" cy="-522" rx="27" ry="18"/>
<text text-anchor="middle" x="171" y="-518.3" font-family="Times,serif" font-size="14.00">PiL</text>
</g>
<!-- PiL4&#45;&gt;Identity3 -->
<g id="edge24" class="edge">
<title>PiL4&#45;&gt;Identity3</title>
<g id="a_edge24"><a xlink:title="idseq55">
<path fill="none" stroke="black" d="M151.47,-546C147.2,-552.74 142.91,-560.15 139.28,-567.05"/>
<polygon fill="black" stroke="black" points="160.03,-539.44 151.58,-545.83 154.2,-535.57 160.03,-539.44"/>
<polygon fill="black" stroke="black" points="136.13,-565.54 134.81,-576.05 142.39,-568.65 136.13,-565.54"/>
</a>
</g>
</g>
<!-- PiL4&#45;&gt;Identity3 -->
<g id="edge30" class="edge">
<title>PiL4&#45;&gt;Identity3</title>
<g id="a_edge30"><a xlink:title="lret53">
<path fill="none" stroke="blue" d="M167.2,-539.95C163.2,-548.53 157.35,-559.11 151.43,-568.56"/>
<polygon fill="blue" stroke="blue" points="148.35,-566.89 145.8,-577.17 154.2,-570.72 148.35,-566.89"/>
</a>
</g>
</g>
<!-- Bang10 -->
<g id="node11" class="node">
<title>Bang10</title>
<ellipse fill="none" stroke="black" cx="217" cy="-594" rx="29.5" ry="18"/>
<text text-anchor="middle" x="217" y="-590.3" font-family="Times,serif" font-size="14.00">Bang</text>
</g>
<!-- PiL4&#45;&gt;Bang10 -->
<g id="edge10" class="edge">
<title>PiL4&#45;&gt;Bang10</title>
<g id="a_edge10"><a xlink:title="dseq54">
<path fill="none" stroke="black" d="M176.26,-539.95C181.22,-548.96 188.42,-560.17 195.47,-569.96"/>
<polygon fill="black" stroke="black" points="192.78,-572.2 201.58,-578.11 198.38,-568.01 192.78,-572.2"/>
</a>
</g>
</g>
<!-- PiL4&#45;&gt;Bang10 -->
<g id="edge40" class="edge">
<title>PiL4&#45;&gt;Bang10</title>
<g id="a_edge40"><a xlink:title="newrret52">
<path fill="none" stroke="red" d="M185.86,-537.17C192.66,-545.79 200.41,-557.07 206.6,-567.23"/>
<polygon fill="red" stroke="red" points="203.73,-569.26 211.79,-576.14 209.78,-565.74 203.73,-569.26"/>
</a>
</g>
</g>
<!-- Assign5 -->
<g id="node6" class="node">
<title>Assign5</title>
<ellipse fill="none" stroke="black" cx="118" cy="-18" rx="35.19" ry="18"/>
<text text-anchor="middle" x="118" y="-14.3" font-family="Times,serif" font-size="14.00">Assign</text>
</g>
<!-- Dup14 -->
<g id="node15" class="node">
<title>Dup14</title>
<ellipse fill="none" stroke="black" cx="27" cy="-306" rx="27" ry="18"/>
<text text-anchor="middle" x="27" y="-302.3" font-family="Times,serif" font-size="14.00">Dup</text>
</g>
<!-- Assign5&#45;&gt;Dup14 -->
<g id="edge47" class="edge">
<title>Assign5&#45;&gt;Dup14</title>
<g id="a_edge47"><a xlink:title="ret133">
<path fill="none" stroke="red" d="M105,-34.8C97.3,-44.89 87.91,-58.56 82,-72 50.94,-142.65 36,-233.4 30.14,-277.92"/>
<polygon fill="red" stroke="red" points="26.65,-277.59 28.87,-287.95 33.6,-278.47 26.65,-277.59"/>
</a>
</g>
</g>
<!-- Cut15 -->
<g id="node16" class="node">
<title>Cut15</title>
<ellipse fill="none" stroke="black" cx="118" cy="-90" rx="27" ry="18"/>
<text text-anchor="middle" x="118" y="-86.3" font-family="Times,serif" font-size="14.00">Cut</text>
</g>
<!-- Assign5&#45;&gt;Cut15 -->
<g id="edge60" class="edge">
<title>Assign5&#45;&gt;Cut15</title>
<g id="a_edge60"><a xlink:title="seqBC94">
<path fill="none" stroke="black" d="M118,-36.3C118,-44.02 118,-53.29 118,-61.89"/>
<polygon fill="black" stroke="black" points="114.5,-61.9 118,-71.9 121.5,-61.9 114.5,-61.9"/>
</a>
</g>
</g>
<!-- Bang6 -->
<g id="node7" class="node">
<title>Bang6</title>
<ellipse fill="none" stroke="black" cx="118" cy="-162" rx="29.5" ry="18"/>
<text text-anchor="middle" x="118" y="-158.3" font-family="Times,serif" font-size="14.00">Bang</text>
</g>
<!-- PiR11 -->
<g id="node12" class="node">
<title>PiR11</title>
<ellipse fill="none" stroke="black" cx="118" cy="-234" rx="27" ry="18"/>
<text text-anchor="middle" x="118" y="-230.3" font-family="Times,serif" font-size="14.00">PiR</text>
</g>
<!-- Bang6&#45;&gt;PiR11 -->
<g id="edge35" class="edge">
<title>Bang6&#45;&gt;PiR11</title>
<g id="a_edge35"><a xlink:title="newcut_bseq100">
<path fill="none" stroke="black" d="M112.12,-179.95C111.29,-187.77 111.05,-197.25 111.41,-206.02"/>
<polygon fill="black" stroke="black" points="107.93,-206.49 112.14,-216.21 114.92,-205.99 107.93,-206.49"/>
</a>
</g>
</g>
<!-- Bang6&#45;&gt;PiR11 -->
<g id="edge46" class="edge">
<title>Bang6&#45;&gt;PiR11</title>
<g id="a_edge46"><a xlink:title="newrretf91">
<path fill="none" stroke="red" d="M123.88,-179.95C124.71,-187.77 124.95,-197.25 124.59,-206.02"/>
<polygon fill="red" stroke="red" points="121.08,-205.99 123.86,-216.21 128.07,-206.49 121.08,-205.99"/>
</a>
</g>
</g>
<!-- Dup7 -->
<g id="node8" class="node">
<title>Dup7</title>
<ellipse fill="none" stroke="black" cx="87" cy="-666" rx="27" ry="18"/>
<text text-anchor="middle" x="87" y="-662.3" font-family="Times,serif" font-size="14.00">Dup</text>
</g>
<!-- Dup7&#45;&gt;Identity2 -->
<g id="edge45" class="edge">
<title>Dup7&#45;&gt;Identity2</title>
<g id="a_edge45"><a xlink:title="newrretf66">
<path fill="none" stroke="red" d="M84.31,-684.2C80.35,-715.62 76.31,-783.18 106,-828 122.96,-853.6 153.66,-870.26 178.93,-880.3"/>
<polygon fill="red" stroke="red" points="177.72,-883.58 188.31,-883.83 180.18,-877.03 177.72,-883.58"/>
</a>
</g>
</g>
<!-- BangC8 -->
<g id="node9" class="node">
<title>BangC8</title>
<ellipse fill="none" stroke="black" cx="171" cy="-378" rx="35.19" ry="18"/>
<text text-anchor="middle" x="171" y="-374.3" font-family="Times,serif" font-size="14.00">BangC</text>
</g>
<!-- Cut9 -->
<g id="node10" class="node">
<title>Cut9</title>
<ellipse fill="none" stroke="black" cx="171" cy="-450" rx="27" ry="18"/>
<text text-anchor="middle" x="171" y="-446.3" font-family="Times,serif" font-size="14.00">Cut</text>
</g>
<!-- BangC8&#45;&gt;Cut9 -->
<g id="edge59" class="edge">
<title>BangC8&#45;&gt;Cut9</title>
<g id="a_edge59"><a xlink:title="seqBC118">
<path fill="none" stroke="black" d="M171,-396.3C171,-404.02 171,-413.29 171,-421.89"/>
<polygon fill="black" stroke="black" points="167.5,-421.9 171,-431.9 174.5,-421.9 167.5,-421.9"/>
</a>
</g>
</g>
<!-- BangC8&#45;&gt;Bang10 -->
<g id="edge11" class="edge">
<title>BangC8&#45;&gt;Bang10</title>
<g id="a_edge11"><a xlink:title="h116">
<path fill="none" stroke="blue" d="M191.28,-402.99C197.43,-411.6 203.49,-421.74 207,-432 222.38,-477 221.76,-533.14 219.59,-565.84"/>
<polygon fill="blue" stroke="blue" points="187.97,-392.82 191.22,-402.91 182.39,-397.05 187.97,-392.82"/>
<polygon fill="blue" stroke="blue" points="216.09,-565.74 218.82,-575.98 223.07,-566.28 216.09,-565.74"/>
</a>
</g>
</g>
<!-- BangD16 -->
<g id="node17" class="node">
<title>BangD16</title>
<ellipse fill="none" stroke="black" cx="290" cy="-522" rx="36" ry="18"/>
<text text-anchor="middle" x="290" y="-518.3" font-family="Times,serif" font-size="14.00">BangD</text>
</g>
<!-- BangC8&#45;&gt;BangD16 -->
<g id="edge15" class="edge">
<title>BangC8&#45;&gt;BangD16</title>
<g id="a_edge15"><a xlink:title="hf107">
<path fill="none" stroke="blue" d="M192.77,-392.36C207.37,-402.07 226.35,-416.24 240,-432 256.5,-451.05 270.1,-476.4 278.93,-495.17"/>
<polygon fill="blue" stroke="blue" points="275.77,-496.67 283.1,-504.32 282.13,-493.77 275.77,-496.67"/>
</a>
</g>
</g>
<!-- Cut9&#45;&gt;PiL4 -->
<g id="edge34" class="edge">
<title>Cut9&#45;&gt;PiL4</title>
<g id="a_edge34"><a xlink:title="lval48">
<path fill="none" stroke="blue" d="M165.16,-467.59C164.3,-475.49 164.05,-485.15 164.41,-494.06"/>
<polygon fill="blue" stroke="blue" points="160.92,-494.32 165.12,-504.04 167.9,-493.82 160.92,-494.32"/>
</a>
</g>
</g>
<!-- Cut9&#45;&gt;PiL4 -->
<g id="edge61" class="edge">
<title>Cut9&#45;&gt;PiL4</title>
<g id="a_edge61"><a xlink:title="yseq50">
<path fill="none" stroke="black" d="M177.58,-477.81C177.8,-483.05 177.81,-488.54 177.6,-493.78"/>
<polygon fill="black" stroke="black" points="180.33,-467.34 177.57,-477.56 173.35,-467.84 180.33,-467.34"/>
<polygon fill="black" stroke="black" points="174.09,-493.82 176.88,-504.04 181.07,-494.31 174.09,-493.82"/>
</a>
</g>
</g>
<!-- Cut9&#45;&gt;Dup7 -->
<g id="edge41" class="edge">
<title>Cut9&#45;&gt;Dup7</title>
<g id="a_edge41"><a xlink:title="newrretf108">
<path fill="none" stroke="red" d="M156.32,-465.5C135.47,-487.24 98.25,-530.59 84,-576 77.68,-596.13 78.95,-620.08 81.52,-638.07"/>
<polygon fill="red" stroke="red" points="78.1,-638.85 83.18,-648.15 85.01,-637.72 78.1,-638.85"/>
</a>
</g>
</g>
<!-- Cut9&#45;&gt;BangD16 -->
<g id="edge1" class="edge">
<title>Cut9&#45;&gt;BangD16</title>
<g id="a_edge1"><a xlink:title="c_bseq106">
<path fill="none" stroke="black" d="M190.65,-462.56C209.13,-473.43 237.11,-489.89 258.68,-502.57"/>
<polygon fill="black" stroke="black" points="257.08,-505.7 267.48,-507.75 260.63,-499.66 257.08,-505.7"/>
</a>
</g>
</g>
<!-- Bang10&#45;&gt;Dup7 -->
<g id="edge42" class="edge">
<title>Bang10&#45;&gt;Dup7</title>
<g id="a_edge42"><a xlink:title="newrretf114">
<path fill="none" stroke="red" d="M195.53,-606.56C174.01,-618.15 140.71,-636.08 116.67,-649.02"/>
<polygon fill="none" stroke="red" points="114.78,-646.06 107.64,-653.89 118.1,-652.23 114.78,-646.06"/>
</a>
</g>
</g>
<!-- BangD17 -->
<g id="node18" class="node">
<title>BangD17</title>
<ellipse fill="none" stroke="black" cx="217" cy="-666" rx="36" ry="18"/>
<text text-anchor="middle" x="217" y="-662.3" font-family="Times,serif" font-size="14.00">BangD</text>
</g>
<!-- Bang10&#45;&gt;BangD17 -->
<g id="edge16" class="edge">
<title>Bang10&#45;&gt;BangD17</title>
<g id="a_edge16"><a xlink:title="hf113">
<path fill="none" stroke="blue" d="M211.12,-611.95C210.29,-619.77 210.05,-629.25 210.41,-638.02"/>
<polygon fill="blue" stroke="blue" points="206.93,-638.49 211.14,-648.21 213.92,-637.99 206.93,-638.49"/>
</a>
</g>
</g>
<!-- Bang10&#45;&gt;BangD17 -->
<g id="edge36" class="edge">
<title>Bang10&#45;&gt;BangD17</title>
<g id="a_edge36"><a xlink:title="newcut_bseq125">
<path fill="none" stroke="black" d="M222.88,-611.95C223.71,-619.77 223.95,-629.25 223.59,-638.02"/>
<polygon fill="black" stroke="black" points="220.08,-637.99 222.86,-648.21 227.07,-638.49 220.08,-637.99"/>
</a>
</g>
</g>
<!-- Dup12 -->
<g id="node13" class="node">
<title>Dup12</title>
<ellipse fill="none" stroke="black" cx="171" cy="-306" rx="27" ry="18"/>
<text text-anchor="middle" x="171" y="-302.3" font-family="Times,serif" font-size="14.00">Dup</text>
</g>
<!-- PiR11&#45;&gt;Dup12 -->
<g id="edge54" class="edge">
<title>PiR11&#45;&gt;Dup12</title>
<g id="a_edge54"><a xlink:title="seq135">
<path fill="none" stroke="black" d="M129.76,-250.54C136.62,-259.6 145.42,-271.21 153.12,-281.39"/>
<polygon fill="none" stroke="black" points="150.44,-283.65 159.27,-289.51 156.02,-279.42 150.44,-283.65"/>
</a>
</g>
</g>
<!-- Dup13 -->
<g id="node14" class="node">
<title>Dup13</title>
<ellipse fill="none" stroke="black" cx="99" cy="-306" rx="27" ry="18"/>
<text text-anchor="middle" x="99" y="-302.3" font-family="Times,serif" font-size="14.00">Dup</text>
</g>
<!-- PiR11&#45;&gt;Dup13 -->
<g id="edge13" class="edge">
<title>PiR11&#45;&gt;Dup13</title>
<g id="a_edge13"><a xlink:title="h136">
<path fill="none" stroke="blue" d="M113.4,-251.95C111.25,-259.86 108.65,-269.46 106.24,-278.31"/>
<polygon fill="none" stroke="blue" points="102.8,-277.64 103.56,-288.21 109.55,-279.48 102.8,-277.64"/>
</a>
</g>
</g>
<!-- PiR11&#45;&gt;Dup14 -->
<g id="edge48" class="edge">
<title>PiR11&#45;&gt;Dup14</title>
<g id="a_edge48"><a xlink:title="ret137">
<path fill="none" stroke="red" d="M100.88,-248.17C87.16,-258.73 67.69,-273.7 52.18,-285.63"/>
<polygon fill="none" stroke="red" points="49.83,-283.02 44.04,-291.89 54.1,-288.57 49.83,-283.02"/>
</a>
</g>
</g>
<!-- Dup12&#45;&gt;BangC8 -->
<g id="edge57" class="edge">
<title>Dup12&#45;&gt;BangC8</title>
<g id="a_edge57"><a xlink:title="seq33">
<path fill="none" stroke="black" d="M171,-324.3C171,-332.02 171,-341.29 171,-349.89"/>
<polygon fill="black" stroke="black" points="167.5,-349.9 171,-359.9 174.5,-349.9 167.5,-349.9"/>
</a>
</g>
</g>
<!-- Dup13&#45;&gt;BangC8 -->
<g id="edge14" class="edge">
<title>Dup13&#45;&gt;BangC8</title>
<g id="a_edge14"><a xlink:title="h34">
<path fill="none" stroke="blue" d="M113.57,-321.17C123.39,-330.71 136.54,-343.5 147.79,-354.43"/>
<polygon fill="blue" stroke="blue" points="145.59,-357.18 155.2,-361.64 150.47,-352.16 145.59,-357.18"/>
</a>
</g>
</g>
<!-- Dup14&#45;&gt;Identity3 -->
<g id="edge51" class="edge">
<title>Dup14&#45;&gt;Identity3</title>
<g id="a_edge51"><a xlink:title="ret42">
<path fill="none" stroke="red" d="M33.04,-323.61C50.34,-371.19 100.18,-508.24 121.33,-566.4"/>
<polygon fill="red" stroke="red" points="118.1,-567.78 124.81,-575.98 124.68,-565.39 118.1,-567.78"/>
</a>
</g>
</g>
<!-- Cut15&#45;&gt;Bang6 -->
<g id="edge9" class="edge">
<title>Cut15&#45;&gt;Bang6</title>
<g id="a_edge9"><a xlink:title="dseq20">
<path fill="none" stroke="black" d="M112.16,-107.59C111.3,-115.49 111.05,-125.15 111.41,-134.06"/>
<polygon fill="black" stroke="black" points="107.92,-134.32 112.12,-144.04 114.9,-133.82 107.92,-134.32"/>
</a>
</g>
</g>
<!-- Cut15&#45;&gt;Bang6 -->
<g id="edge39" class="edge">
<title>Cut15&#45;&gt;Bang6</title>
<g id="a_edge39"><a xlink:title="newrret18">
<path fill="none" stroke="red" d="M123.84,-107.59C124.7,-115.49 124.95,-125.15 124.59,-134.06"/>
<polygon fill="red" stroke="red" points="121.1,-133.82 123.88,-144.04 128.08,-134.32 121.1,-133.82"/>
</a>
</g>
</g>
<!-- Cut15&#45;&gt;Dup12 -->
<g id="edge53" class="edge">
<title>Cut15&#45;&gt;Dup12</title>
<g id="a_edge53"><a xlink:title="seq131">
<path fill="none" stroke="black" d="M138.41,-113.84C145.17,-122.66 151.98,-133.23 156,-144 172.68,-188.66 173.83,-244.91 172.72,-277.72"/>
<polygon fill="black" stroke="black" points="134.77,-103.76 138.33,-113.73 129.33,-108.15 134.77,-103.76"/>
<polygon fill="black" stroke="black" points="169.21,-277.76 172.27,-287.9 176.2,-278.06 169.21,-277.76"/>
</a>
</g>
</g>
<!-- Cut15&#45;&gt;Dup13 -->
<g id="edge12" class="edge">
<title>Cut15&#45;&gt;Dup13</title>
<g id="a_edge12"><a xlink:title="h132">
<path fill="none" stroke="blue" d="M103.89,-105.36C95.14,-115.3 84.71,-129.34 80,-144 65.31,-189.7 78.63,-245.96 89.15,-278.43"/>
<polygon fill="blue" stroke="blue" points="85.9,-279.75 92.43,-288.1 92.53,-277.5 85.9,-279.75"/>
</a>
</g>
</g>
<!-- PiL18 -->
<g id="node19" class="node">
<title>PiL18</title>
<ellipse fill="none" stroke="black" cx="290" cy="-738" rx="27" ry="18"/>
<text text-anchor="middle" x="290" y="-734.3" font-family="Times,serif" font-size="14.00">PiL</text>
</g>
<!-- BangD16&#45;&gt;PiL18 -->
<g id="edge17" class="edge">
<title>BangD16&#45;&gt;PiL18</title>
<g id="a_edge17"><a xlink:title="hseq140">
<path fill="none" stroke="black" d="M286.12,-540.15C282.58,-577.26 282.31,-665.25 285.33,-709.95"/>
<polygon fill="black" stroke="black" points="281.85,-710.38 286.14,-720.06 288.83,-709.82 281.85,-710.38"/>
</a>
</g>
</g>
<!-- BangD16&#45;&gt;PiL18 -->
<g id="edge32" class="edge">
<title>BangD16&#45;&gt;PiL18</title>
<g id="a_edge32"><a xlink:title="lval141">
<path fill="none" stroke="blue" d="M293.88,-540.15C297.42,-577.26 297.69,-665.25 294.67,-709.95"/>
<polygon fill="blue" stroke="blue" points="291.17,-709.82 293.86,-720.06 298.15,-710.38 291.17,-709.82"/>
</a>
</g>
</g>
<!-- PiL19 -->
<g id="node20" class="node">
<title>PiL19</title>
<ellipse fill="none" stroke="black" cx="217" cy="-738" rx="27" ry="18"/>
<text text-anchor="middle" x="217" y="-734.3" font-family="Times,serif" font-size="14.00">PiL</text>
</g>
<!-- BangD17&#45;&gt;PiL19 -->
<g id="edge18" class="edge">
<title>BangD17&#45;&gt;PiL19</title>
<g id="a_edge18"><a xlink:title="hseq143">
<path fill="none" stroke="black" d="M211.12,-683.95C210.29,-691.77 210.05,-701.25 210.41,-710.02"/>
<polygon fill="black" stroke="black" points="206.93,-710.49 211.14,-720.21 213.92,-709.99 206.93,-710.49"/>
</a>
</g>
</g>
<!-- BangD17&#45;&gt;PiL19 -->
<g id="edge33" class="edge">
<title>BangD17&#45;&gt;PiL19</title>
<g id="a_edge33"><a xlink:title="lval144">
<path fill="none" stroke="blue" d="M222.88,-683.95C223.71,-691.77 223.95,-701.25 223.59,-710.02"/>
<polygon fill="blue" stroke="blue" points="220.08,-709.99 222.86,-720.21 227.07,-710.49 220.08,-709.99"/>
</a>
</g>
</g>
<!-- Dup20 -->
<g id="node21" class="node">
<title>Dup20</title>
<ellipse fill="none" stroke="black" cx="290" cy="-810" rx="27" ry="18"/>
<text text-anchor="middle" x="290" y="-806.3" font-family="Times,serif" font-size="14.00">Dup</text>
</g>
<!-- PiL18&#45;&gt;Dup20 -->
<g id="edge22" class="edge">
<title>PiL18&#45;&gt;Dup20</title>
<g id="a_edge22"><a xlink:title="idseq148">
<path fill="none" stroke="black" d="M290,-766.33C290,-771.31 290,-776.51 290,-781.49"/>
<polygon fill="black" stroke="black" points="293.5,-756.3 290,-766.3 286.5,-756.3 293.5,-756.3"/>
<polygon fill="black" stroke="black" points="286.5,-781.9 290,-791.9 293.5,-781.9 286.5,-781.9"/>
</a>
</g>
</g>
<!-- Dup21 -->
<g id="node22" class="node">
<title>Dup21</title>
<ellipse fill="none" stroke="black" cx="218" cy="-810" rx="27" ry="18"/>
<text text-anchor="middle" x="218" y="-806.3" font-family="Times,serif" font-size="14.00">Dup</text>
</g>
<!-- PiL18&#45;&gt;Dup21 -->
<g id="edge28" class="edge">
<title>PiL18&#45;&gt;Dup21</title>
<g id="a_edge28"><a xlink:title="lret149">
<path fill="none" stroke="blue" d="M275.43,-753.17C265.25,-763.06 251.48,-776.45 239.97,-787.64"/>
<polygon fill="blue" stroke="blue" points="237.53,-785.13 232.8,-794.62 242.41,-790.15 237.53,-785.13"/>
</a>
</g>
</g>
<!-- Bang22 -->
<g id="node23" class="node">
<title>Bang22</title>
<ellipse fill="none" stroke="black" cx="364" cy="-810" rx="29.5" ry="18"/>
<text text-anchor="middle" x="364" y="-806.3" font-family="Times,serif" font-size="14.00">Bang</text>
</g>
<!-- PiL18&#45;&gt;Bang22 -->
<g id="edge7" class="edge">
<title>PiL18&#45;&gt;Bang22</title>
<g id="a_edge7"><a xlink:title="dseq146">
<path fill="none" stroke="black" d="M300.7,-754.54C310.32,-764.78 324.45,-778.28 337.01,-789.28"/>
<polygon fill="black" stroke="black" points="335.1,-792.25 344.97,-796.09 339.65,-786.93 335.1,-792.25"/>
</a>
</g>
</g>
<!-- PiL18&#45;&gt;Bang22 -->
<g id="edge37" class="edge">
<title>PiL18&#45;&gt;Bang22</title>
<g id="a_edge37"><a xlink:title="newrret147">
<path fill="none" stroke="red" d="M308.55,-751.51C320.08,-761.06 334.62,-774.48 346.03,-785.96"/>
<polygon fill="red" stroke="red" points="343.53,-788.41 353.01,-793.15 348.56,-783.54 343.53,-788.41"/>
</a>
</g>
</g>
<!-- PiL19&#45;&gt;Dup20 -->
<g id="edge23" class="edge">
<title>PiL19&#45;&gt;Dup20</title>
<g id="a_edge23"><a xlink:title="idseq153">
<path fill="none" stroke="black" d="M239.07,-760.16C248.22,-768.94 258.82,-779.1 267.97,-787.87"/>
<polygon fill="black" stroke="black" points="234.2,-750.64 238.99,-760.09 229.35,-755.69 234.2,-750.64"/>
<polygon fill="none" stroke="black" points="265.61,-790.46 275.25,-794.86 270.45,-785.41 265.61,-790.46"/>
</a>
</g>
</g>
<!-- PiL19&#45;&gt;Dup21 -->
<g id="edge29" class="edge">
<title>PiL19&#45;&gt;Dup21</title>
<g id="a_edge29"><a xlink:title="lret154">
<path fill="none" stroke="blue" d="M217.25,-756.3C217.36,-764.02 217.49,-773.29 217.61,-781.89"/>
<polygon fill="none" stroke="blue" points="214.11,-781.95 217.76,-791.9 221.11,-781.85 214.11,-781.95"/>
</a>
</g>
</g>
<!-- Bang23 -->
<g id="node24" class="node">
<title>Bang23</title>
<ellipse fill="none" stroke="black" cx="144" cy="-810" rx="29.5" ry="18"/>
<text text-anchor="middle" x="144" y="-806.3" font-family="Times,serif" font-size="14.00">Bang</text>
</g>
<!-- PiL19&#45;&gt;Bang23 -->
<g id="edge8" class="edge">
<title>PiL19&#45;&gt;Bang23</title>
<g id="a_edge8"><a xlink:title="dseq151">
<path fill="none" stroke="black" d="M198.63,-751.51C187.35,-760.97 173.16,-774.23 161.97,-785.63"/>
<polygon fill="black" stroke="black" points="159.15,-783.51 154.77,-793.15 164.21,-788.35 159.15,-783.51"/>
</a>
</g>
</g>
<!-- PiL19&#45;&gt;Bang23 -->
<g id="edge38" class="edge">
<title>PiL19&#45;&gt;Bang23</title>
<g id="a_edge38"><a xlink:title="newrret152">
<path fill="none" stroke="red" d="M206.2,-754.88C196.74,-765.08 182.99,-778.39 170.73,-789.26"/>
<polygon fill="red" stroke="red" points="168.23,-786.8 162.96,-795.99 172.81,-792.09 168.23,-786.8"/>
</a>
</g>
</g>
<!-- Dup20&#45;&gt;Identity2 -->
<g id="edge25" class="edge">
<title>Dup20&#45;&gt;Identity2</title>
<g id="a_edge25"><a xlink:title="idseq77">
<path fill="none" stroke="black" d="M277.16,-826.04C266.87,-838.1 252.23,-855.25 240.34,-869.17"/>
<polygon fill="black" stroke="black" points="237.55,-867.05 233.71,-876.93 242.87,-871.6 237.55,-867.05"/>
</a>
</g>
</g>
<!-- Dup21&#45;&gt;Identity2 -->
<g id="edge31" class="edge">
<title>Dup21&#45;&gt;Identity2</title>
<g id="a_edge31"><a xlink:title="lret75">
<path fill="none" stroke="blue" d="M218.42,-828.39C218.69,-839.22 219.03,-853.4 219.33,-865.71"/>
<polygon fill="blue" stroke="blue" points="215.84,-866 219.58,-875.91 222.84,-865.83 215.84,-866"/>
</a>
</g>
</g>
<!-- Dup24 -->
<g id="node25" class="node">
<title>Dup24</title>
<ellipse fill="none" stroke="black" cx="306" cy="-894" rx="26" ry="26"/>
<ellipse fill="none" stroke="black" cx="306" cy="-894" rx="30" ry="30"/>
<text text-anchor="middle" x="306" y="-890.3" font-family="Times,serif" font-size="14.00">Dup</text>
</g>
<!-- Bang22&#45;&gt;Dup24 -->
<g id="edge2" class="edge">
<title>Bang22&#45;&gt;Dup24</title>
<g id="a_edge2"><a xlink:title="c_bseq156">
<path fill="none" stroke="black" d="M352.82,-826.81C345.98,-836.47 336.99,-849.18 328.72,-860.88"/>
<polygon fill="black" stroke="black" points="325.78,-858.97 322.86,-869.16 331.5,-863.01 325.78,-858.97"/>
</a>
</g>
</g>
<!-- PiR25 -->
<g id="node26" class="node">
<title>PiR25</title>
<ellipse fill="none" stroke="black" cx="335" cy="-1050" rx="27" ry="18"/>
<text text-anchor="middle" x="335" y="-1046.3" font-family="Times,serif" font-size="14.00">PiR</text>
</g>
<!-- Bang22&#45;&gt;PiR25 -->
<g id="edge43" class="edge">
<title>Bang22&#45;&gt;PiR25</title>
<g id="a_edge43"><a xlink:title="newrretf157">
<path fill="none" stroke="red" d="M362.5,-828.13C359.55,-860.84 352.55,-934.4 344,-996 342.83,-1004.45 341.34,-1013.62 339.92,-1021.92"/>
<polygon fill="red" stroke="red" points="336.46,-1021.4 338.18,-1031.85 343.36,-1022.6 336.46,-1021.4"/>
</a>
</g>
</g>
<!-- Bang23&#45;&gt;Dup24 -->
<g id="edge3" class="edge">
<title>Bang23&#45;&gt;Dup24</title>
<g id="a_edge3"><a xlink:title="c_bseq159">
<path fill="none" stroke="black" d="M166.87,-821.32C171.85,-823.54 177.1,-825.86 182,-828 219.62,-844.38 231.4,-843.62 267,-864 269.54,-865.45 272.11,-867.05 274.65,-868.71"/>
<polygon fill="none" stroke="black" points="272.89,-871.76 283.11,-874.57 276.88,-866 272.89,-871.76"/>
</a>
</g>
</g>
<!-- PiR26 -->
<g id="node27" class="node">
<title>PiR26</title>
<ellipse fill="none" stroke="black" cx="263" cy="-1050" rx="27" ry="18"/>
<text text-anchor="middle" x="263" y="-1046.3" font-family="Times,serif" font-size="14.00">PiR</text>
</g>
<!-- Bang23&#45;&gt;PiR26 -->
<g id="edge44" class="edge">
<title>Bang23&#45;&gt;PiR26</title>
<g id="a_edge44"><a xlink:title="newrretf160">
<path fill="none" stroke="red" d="M146.36,-828.14C149.94,-850.88 157.98,-891.89 173,-924 191.25,-963 222.14,-1002.39 242.56,-1026.25"/>
<polygon fill="red" stroke="red" points="240.11,-1028.76 249.31,-1034.01 245.39,-1024.17 240.11,-1028.76"/>
</a>
</g>
</g>
<!-- DupI30 -->
<g id="node31" class="node">
<title>DupI30</title>
<ellipse fill="none" stroke="black" cx="306" cy="-978" rx="28.7" ry="18"/>
<text text-anchor="middle" x="306" y="-974.3" font-family="Times,serif" font-size="14.00">DupI</text>
</g>
<!-- Dup24&#45;&gt;DupI30 -->
<g id="edge6" class="edge">
<title>Dup24&#45;&gt;DupI30</title>
<g id="a_edge6"><a xlink:title="c_bseq79">
<path fill="none" stroke="black" stroke-width="2" d="M306,-924.14C306,-932.46 306,-941.49 306,-949.7"/>
<polygon fill="black" stroke="black" stroke-width="2" points="302.5,-949.88 306,-959.88 309.5,-949.88 302.5,-949.88"/>
</a>
</g>
</g>
<!-- Dup27 -->
<g id="node28" class="node">
<title>Dup27</title>
<ellipse fill="none" stroke="black" cx="263" cy="-1122" rx="27" ry="18"/>
<text text-anchor="middle" x="263" y="-1118.3" font-family="Times,serif" font-size="14.00">Dup</text>
</g>
<!-- PiR25&#45;&gt;Dup27 -->
<g id="edge55" class="edge">
<title>PiR25&#45;&gt;Dup27</title>
<g id="a_edge55"><a xlink:title="seq162">
<path fill="none" stroke="black" d="M320.43,-1065.16C310.25,-1075.06 296.48,-1088.45 284.97,-1099.64"/>
<polygon fill="black" stroke="black" points="282.53,-1097.13 277.8,-1106.61 287.41,-1102.15 282.53,-1097.13"/>
</a>
</g>
</g>
<!-- Dup28 -->
<g id="node29" class="node">
<title>Dup28</title>
<ellipse fill="none" stroke="black" cx="335" cy="-1122" rx="27" ry="18"/>
<text text-anchor="middle" x="335" y="-1118.3" font-family="Times,serif" font-size="14.00">Dup</text>
</g>
<!-- PiR25&#45;&gt;Dup28 -->
<g id="edge19" class="edge">
<title>PiR25&#45;&gt;Dup28</title>
<g id="a_edge19"><a xlink:title="i163">
<path fill="none" stroke="blue" d="M335,-1068.3C335,-1076.01 335,-1085.28 335,-1093.88"/>
<polygon fill="blue" stroke="blue" points="331.5,-1093.89 335,-1103.89 338.5,-1093.89 331.5,-1093.89"/>
</a>
</g>
</g>
<!-- Dup29 -->
<g id="node30" class="node">
<title>Dup29</title>
<ellipse fill="none" stroke="black" cx="407" cy="-1122" rx="27" ry="18"/>
<text text-anchor="middle" x="407" y="-1118.3" font-family="Times,serif" font-size="14.00">Dup</text>
</g>
<!-- PiR25&#45;&gt;Dup29 -->
<g id="edge49" class="edge">
<title>PiR25&#45;&gt;Dup29</title>
<g id="a_edge49"><a xlink:title="ret164">
<path fill="none" stroke="red" d="M349.57,-1065.16C359.75,-1075.06 373.52,-1088.45 385.03,-1099.64"/>
<polygon fill="red" stroke="red" points="382.59,-1102.15 392.2,-1106.61 387.47,-1097.13 382.59,-1102.15"/>
</a>
</g>
</g>
<!-- PiR26&#45;&gt;Dup27 -->
<g id="edge56" class="edge">
<title>PiR26&#45;&gt;Dup27</title>
<g id="a_edge56"><a xlink:title="seq166">
<path fill="none" stroke="black" d="M263,-1068.3C263,-1076.01 263,-1085.28 263,-1093.88"/>
<polygon fill="none" stroke="black" points="259.5,-1093.89 263,-1103.89 266.5,-1093.89 259.5,-1093.89"/>
</a>
</g>
</g>
<!-- PiR26&#45;&gt;Dup28 -->
<g id="edge20" class="edge">
<title>PiR26&#45;&gt;Dup28</title>
<g id="a_edge20"><a xlink:title="i167">
<path fill="none" stroke="blue" d="M277.57,-1065.16C287.75,-1075.06 301.52,-1088.45 313.03,-1099.64"/>
<polygon fill="none" stroke="blue" points="310.59,-1102.15 320.2,-1106.61 315.47,-1097.13 310.59,-1102.15"/>
</a>
</g>
</g>
<!-- PiR26&#45;&gt;Dup29 -->
<g id="edge50" class="edge">
<title>PiR26&#45;&gt;Dup29</title>
<g id="a_edge50"><a xlink:title="ret168">
<path fill="none" stroke="red" d="M284.25,-1061.32C308.6,-1073.16 348.72,-1092.66 376.43,-1106.13"/>
<polygon fill="none" stroke="red" points="375.14,-1109.4 385.67,-1110.62 378.2,-1103.1 375.14,-1109.4"/>
</a>
</g>
</g>
<!-- Dup27&#45;&gt;BangD1 -->
<g id="edge58" class="edge">
<title>Dup27&#45;&gt;BangD1</title>
<g id="a_edge58"><a xlink:title="seq80">
<path fill="none" stroke="black" d="M263,-1140.3C263,-1148.01 263,-1157.28 263,-1165.88"/>
<polygon fill="black" stroke="black" points="259.5,-1165.89 263,-1175.89 266.5,-1165.89 259.5,-1165.89"/>
</a>
</g>
</g>
<!-- Dup28&#45;&gt;BangD1 -->
<g id="edge21" class="edge">
<title>Dup28&#45;&gt;BangD1</title>
<g id="a_edge21"><a xlink:title="i81">
<path fill="none" stroke="blue" d="M320.43,-1137.16C310.61,-1146.7 297.46,-1159.5 286.21,-1170.43"/>
<polygon fill="blue" stroke="blue" points="283.53,-1168.16 278.8,-1177.64 288.41,-1173.17 283.53,-1168.16"/>
</a>
</g>
</g>
<!-- Dup29&#45;&gt;Identity0 -->
<g id="edge52" class="edge">
<title>Dup29&#45;&gt;Identity0</title>
<g id="a_edge52"><a xlink:title="ret82">
<path fill="none" stroke="red" d="M392.4,-1137.39C367.46,-1161.99 316.44,-1212.3 286.45,-1241.87"/>
<polygon fill="red" stroke="red" points="283.61,-1239.75 278.95,-1249.27 288.53,-1244.74 283.61,-1239.75"/>
</a>
</g>
</g>
<!-- DupI30&#45;&gt;PiR25 -->
<g id="edge4" class="edge">
<title>DupI30&#45;&gt;PiR25</title>
<g id="a_edge4"><a xlink:title="c_bseq165">
<path fill="none" stroke="black" d="M312.87,-995.58C316.27,-1003.78 320.44,-1013.86 324.25,-1023.04"/>
<polygon fill="black" stroke="black" points="321.12,-1024.63 328.18,-1032.53 327.58,-1021.95 321.12,-1024.63"/>
</a>
</g>
</g>
<!-- DupI30&#45;&gt;PiR26 -->
<g id="edge5" class="edge">
<title>DupI30&#45;&gt;PiR26</title>
<g id="a_edge5"><a xlink:title="c_bseq169">
<path fill="none" stroke="black" d="M290.64,-1003.99C286.59,-1010.6 282.22,-1017.71 278.17,-1024.3"/>
<polygon fill="black" stroke="black" points="299.01,-997.06 290.79,-1003.75 293.04,-993.4 299.01,-997.06"/>
<polygon fill="black" stroke="black" points="275.17,-1022.5 272.92,-1032.85 281.14,-1026.16 275.17,-1022.5"/>
</a>
</g>
</g>
</g>
</svg>
