<?xml version="1.0" encoding="UTF-8" standalone="no"?>
<!DOCTYPE svg PUBLIC "-//W3C//DTD SVG 1.1//EN"
 "http://www.w3.org/Graphics/SVG/1.1/DTD/svg11.dtd">
<!-- Generated by graphviz version 2.49.3 (0)
 -->
<!-- Pages: 1 -->
<svg width="355pt" height="1364pt"
 viewBox="0.00 0.00 355.35 1364.00" xmlns="http://www.w3.org/2000/svg" xmlns:xlink="http://www.w3.org/1999/xlink">
<g id="graph0" class="graph" transform="scale(1 1) rotate(0) translate(4 1360)">
<polygon fill="white" stroke="transparent" points="-4,4 -4,-1360 351.35,-1360 351.35,4 -4,4"/>
<!-- Identity0 -->
<g id="node1" class="node">
<title>Identity0</title>
<ellipse fill="none" stroke="black" cx="185" cy="-1338" rx="38.19" ry="18"/>
<text text-anchor="middle" x="185" y="-1334.3" font-family="Times,serif" font-size="14.00">Identity</text>
</g>
<!-- BangD1 -->
<g id="node2" class="node">
<title>BangD1</title>
<ellipse fill="none" stroke="black" cx="185" cy="-1266" rx="36" ry="18"/>
<text text-anchor="middle" x="185" y="-1262.3" font-family="Times,serif" font-size="14.00">BangD</text>
</g>
<!-- BangD1&#45;&gt;Identity0 -->
<g id="edge23" class="edge">
<title>BangD1&#45;&gt;Identity0</title>
<g id="a_edge23"><a xlink:title="iret84">
<path fill="none" stroke="blue" d="M179.12,-1283.94C178.29,-1291.76 178.05,-1301.25 178.41,-1310.02"/>
<polygon fill="blue" stroke="blue" points="174.93,-1310.48 179.14,-1320.21 181.92,-1309.98 174.93,-1310.48"/>
</a>
</g>
</g>
<!-- BangD1&#45;&gt;Identity0 -->
<g id="edge24" class="edge">
<title>BangD1&#45;&gt;Identity0</title>
<g id="a_edge24"><a xlink:title="iseq83">
<path fill="none" stroke="black" d="M190.88,-1283.94C191.71,-1291.76 191.95,-1301.25 191.59,-1310.02"/>
<polygon fill="black" stroke="black" points="188.08,-1309.98 190.86,-1320.21 195.07,-1310.48 188.08,-1309.98"/>
</a>
</g>
</g>
<!-- PiR2 -->
<g id="node3" class="node">
<title>PiR2</title>
<ellipse fill="none" stroke="black" cx="185" cy="-1194" rx="27" ry="18"/>
<text text-anchor="middle" x="185" y="-1190.3" font-family="Times,serif" font-size="14.00">PiR</text>
</g>
<!-- PiR2&#45;&gt;Identity0 -->
<g id="edge46" class="edge">
<title>PiR2&#45;&gt;Identity0</title>
<g id="a_edge46"><a xlink:title="ret82">
<path fill="none" stroke="red" d="M168.79,-1208.43C158.37,-1218.18 145.74,-1232.36 140,-1248 134.48,-1263.01 134.48,-1268.98 140,-1284 144.14,-1295.27 151.87,-1305.79 159.76,-1314.44"/>
<polygon fill="red" stroke="red" points="157.47,-1317.11 166.96,-1321.82 162.48,-1312.22 157.47,-1317.11"/>
</a>
</g>
</g>
<!-- PiR2&#45;&gt;BangD1 -->
<g id="edge19" class="edge">
<title>PiR2&#45;&gt;BangD1</title>
<g id="a_edge19"><a xlink:title="i81">
<path fill="none" stroke="blue" d="M179.16,-1211.58C178.3,-1219.49 178.05,-1229.14 178.41,-1238.06"/>
<polygon fill="blue" stroke="blue" points="174.92,-1238.31 179.12,-1248.04 181.9,-1237.82 174.92,-1238.31"/>
</a>
</g>
</g>
<!-- PiR2&#45;&gt;BangD1 -->
<g id="edge50" class="edge">
<title>PiR2&#45;&gt;BangD1</title>
<g id="a_edge50"><a xlink:title="seq80">
<path fill="none" stroke="black" d="M190.84,-1211.58C191.7,-1219.49 191.95,-1229.14 191.59,-1238.06"/>
<polygon fill="black" stroke="black" points="188.1,-1237.82 190.88,-1248.04 195.08,-1238.31 188.1,-1237.82"/>
</a>
</g>
</g>
<!-- Bang3 -->
<g id="node4" class="node">
<title>Bang3</title>
<ellipse fill="none" stroke="black" cx="185" cy="-1122" rx="29.5" ry="18"/>
<text text-anchor="middle" x="185" y="-1118.3" font-family="Times,serif" font-size="14.00">Bang</text>
</g>
<!-- Bang3&#45;&gt;PiR2 -->
<g id="edge6" class="edge">
<title>Bang3&#45;&gt;PiR2</title>
<g id="a_edge6"><a xlink:title="c_bseq79">
<path fill="none" stroke="black" d="M179.12,-1139.94C178.29,-1147.76 178.05,-1157.25 178.41,-1166.02"/>
<polygon fill="black" stroke="black" points="174.93,-1166.48 179.14,-1176.21 181.92,-1165.98 174.93,-1166.48"/>
</a>
</g>
</g>
<!-- Bang3&#45;&gt;PiR2 -->
<g id="edge39" class="edge">
<title>Bang3&#45;&gt;PiR2</title>
<g id="a_edge39"><a xlink:title="newrretf78">
<path fill="none" stroke="red" d="M190.88,-1139.94C191.71,-1147.76 191.95,-1157.25 191.59,-1166.02"/>
<polygon fill="red" stroke="red" points="188.08,-1165.98 190.86,-1176.21 195.07,-1166.48 188.08,-1165.98"/>
</a>
</g>
</g>
<!-- Identity4 -->
<g id="node5" class="node">
<title>Identity4</title>
<ellipse fill="none" stroke="black" cx="99" cy="-1122" rx="38.19" ry="18"/>
<text text-anchor="middle" x="99" y="-1118.3" font-family="Times,serif" font-size="14.00">Identity</text>
</g>
<!-- PiL5 -->
<g id="node6" class="node">
<title>PiL5</title>
<ellipse fill="none" stroke="black" cx="171" cy="-1050" rx="27" ry="18"/>
<text text-anchor="middle" x="171" y="-1046.3" font-family="Times,serif" font-size="14.00">PiL</text>
</g>
<!-- PiL5&#45;&gt;Bang3 -->
<g id="edge10" class="edge">
<title>PiL5&#45;&gt;Bang3</title>
<g id="a_edge10"><a xlink:title="dseq76">
<path fill="none" stroke="black" d="M168.51,-1067.94C169.27,-1076.05 171.03,-1085.95 173.25,-1094.99"/>
<polygon fill="black" stroke="black" points="169.89,-1095.98 175.93,-1104.69 176.64,-1094.12 169.89,-1095.98"/>
</a>
</g>
</g>
<!-- PiL5&#45;&gt;Bang3 -->
<g id="edge35" class="edge">
<title>PiL5&#45;&gt;Bang3</title>
<g id="a_edge35"><a xlink:title="newrret74">
<path fill="none" stroke="red" d="M180.05,-1067.23C182.51,-1075.13 184.72,-1084.83 186.16,-1093.81"/>
<polygon fill="red" stroke="red" points="182.71,-1094.41 187.47,-1103.87 189.65,-1093.5 182.71,-1094.41"/>
</a>
</g>
</g>
<!-- PiL5&#45;&gt;Identity4 -->
<g id="edge22" class="edge">
<title>PiL5&#45;&gt;Identity4</title>
<g id="a_edge22"><a xlink:title="idseq77">
<path fill="none" stroke="black" d="M145.17,-1070.18C135.83,-1078.54 125.56,-1088.42 117.01,-1097.23"/>
<polygon fill="black" stroke="black" points="155.11,-1066.15 145.28,-1070.09 150.51,-1060.87 155.11,-1066.15"/>
<polygon fill="black" stroke="black" points="114.34,-1094.96 110.01,-1104.64 119.43,-1099.77 114.34,-1094.96"/>
</a>
</g>
</g>
<!-- PiL5&#45;&gt;Identity4 -->
<g id="edge27" class="edge">
<title>PiL5&#45;&gt;Identity4</title>
<g id="a_edge27"><a xlink:title="lret75">
<path fill="none" stroke="blue" d="M160.42,-1066.88C151.48,-1076.67 138.6,-1089.35 126.87,-1099.97"/>
<polygon fill="blue" stroke="blue" points="124.55,-1097.35 119.38,-1106.6 129.19,-1102.59 124.55,-1097.35"/>
</a>
</g>
</g>
<!-- BangD6 -->
<g id="node7" class="node">
<title>BangD6</title>
<ellipse fill="none" stroke="black" cx="171" cy="-978" rx="36" ry="18"/>
<text text-anchor="middle" x="171" y="-974.3" font-family="Times,serif" font-size="14.00">BangD</text>
</g>
<!-- BangD6&#45;&gt;PiL5 -->
<g id="edge18" class="edge">
<title>BangD6&#45;&gt;PiL5</title>
<g id="a_edge18"><a xlink:title="hseq72">
<path fill="none" stroke="black" d="M165.12,-995.94C164.29,-1003.76 164.05,-1013.25 164.41,-1022.02"/>
<polygon fill="black" stroke="black" points="160.93,-1022.48 165.14,-1032.21 167.92,-1021.98 160.93,-1022.48"/>
</a>
</g>
</g>
<!-- BangD6&#45;&gt;PiL5 -->
<g id="edge30" class="edge">
<title>BangD6&#45;&gt;PiL5</title>
<g id="a_edge30"><a xlink:title="lval70">
<path fill="none" stroke="blue" d="M176.88,-995.94C177.71,-1003.76 177.95,-1013.25 177.59,-1022.02"/>
<polygon fill="blue" stroke="blue" points="174.08,-1021.98 176.86,-1032.21 181.07,-1022.48 174.08,-1021.98"/>
</a>
</g>
</g>
<!-- Identity7 -->
<g id="node8" class="node">
<title>Identity7</title>
<ellipse fill="none" stroke="black" cx="142" cy="-834" rx="38.19" ry="18"/>
<text text-anchor="middle" x="142" y="-830.3" font-family="Times,serif" font-size="14.00">Identity</text>
</g>
<!-- PiL8 -->
<g id="node9" class="node">
<title>PiL8</title>
<ellipse fill="none" stroke="black" cx="142" cy="-762" rx="27" ry="18"/>
<text text-anchor="middle" x="142" y="-758.3" font-family="Times,serif" font-size="14.00">PiL</text>
</g>
<!-- PiL8&#45;&gt;Identity7 -->
<g id="edge21" class="edge">
<title>PiL8&#45;&gt;Identity7</title>
<g id="a_edge21"><a xlink:title="idseq55">
<path fill="none" stroke="black" d="M135.42,-789.81C135.2,-795.04 135.19,-800.53 135.4,-805.78"/>
<polygon fill="black" stroke="black" points="139.65,-779.84 135.43,-789.56 132.67,-779.33 139.65,-779.84"/>
<polygon fill="black" stroke="black" points="131.93,-806.31 136.12,-816.04 138.91,-805.82 131.93,-806.31"/>
</a>
</g>
</g>
<!-- PiL8&#45;&gt;Identity7 -->
<g id="edge26" class="edge">
<title>PiL8&#45;&gt;Identity7</title>
<g id="a_edge26"><a xlink:title="lret53">
<path fill="none" stroke="blue" d="M147.84,-779.58C148.7,-787.49 148.95,-797.14 148.59,-806.06"/>
<polygon fill="blue" stroke="blue" points="145.1,-805.82 147.88,-816.04 152.08,-806.31 145.1,-805.82"/>
</a>
</g>
</g>
<!-- Bang20 -->
<g id="node21" class="node">
<title>Bang20</title>
<ellipse fill="none" stroke="black" cx="56" cy="-834" rx="29.5" ry="18"/>
<text text-anchor="middle" x="56" y="-830.3" font-family="Times,serif" font-size="14.00">Bang</text>
</g>
<!-- PiL8&#45;&gt;Bang20 -->
<g id="edge9" class="edge">
<title>PiL8&#45;&gt;Bang20</title>
<g id="a_edge9"><a xlink:title="dseq54">
<path fill="none" stroke="black" d="M122.63,-774.55C108.9,-784.42 90.74,-798.89 76.75,-810.96"/>
<polygon fill="black" stroke="black" points="74.24,-808.5 69.05,-817.74 78.87,-813.76 74.24,-808.5"/>
</a>
</g>
</g>
<!-- PiL8&#45;&gt;Bang20 -->
<g id="edge34" class="edge">
<title>PiL8&#45;&gt;Bang20</title>
<g id="a_edge34"><a xlink:title="newrret52">
<path fill="none" stroke="red" d="M129.02,-778.18C117.08,-788.97 99.33,-803.51 84.23,-814.9"/>
<polygon fill="red" stroke="red" points="82.13,-812.1 76.17,-820.86 86.29,-817.73 82.13,-812.1"/>
</a>
</g>
</g>
<!-- Identity9 -->
<g id="node10" class="node">
<title>Identity9</title>
<ellipse fill="none" stroke="black" cx="309" cy="-234" rx="38.19" ry="18"/>
<text text-anchor="middle" x="309" y="-230.3" font-family="Times,serif" font-size="14.00">Identity</text>
</g>
<!-- PiL10 -->
<g id="node11" class="node">
<title>PiL10</title>
<ellipse fill="none" stroke="black" cx="223" cy="-162" rx="27" ry="18"/>
<text text-anchor="middle" x="223" y="-158.3" font-family="Times,serif" font-size="14.00">PiL</text>
</g>
<!-- PiL10&#45;&gt;Identity9 -->
<g id="edge20" class="edge">
<title>PiL10&#45;&gt;Identity9</title>
<g id="a_edge20"><a xlink:title="idseq21">
<path fill="none" stroke="black" d="M243.56,-184.87C254.04,-193.92 266.89,-204.34 278.48,-213.16"/>
<polygon fill="black" stroke="black" points="238.3,-175.56 243.48,-184.8 233.67,-180.81 238.3,-175.56"/>
<polygon fill="black" stroke="black" points="276.53,-216.08 286.63,-219.26 280.72,-210.47 276.53,-216.08"/>
</a>
</g>
</g>
<!-- PiL10&#45;&gt;Identity9 -->
<g id="edge25" class="edge">
<title>PiL10&#45;&gt;Identity9</title>
<g id="a_edge25"><a xlink:title="lret19">
<path fill="none" stroke="blue" d="M242.37,-174.56C255.83,-184.23 273.54,-198.33 287.42,-210.25"/>
<polygon fill="blue" stroke="blue" points="285.26,-213.01 295.08,-216.97 289.87,-207.75 285.26,-213.01"/>
</a>
</g>
</g>
<!-- Bang14 -->
<g id="node15" class="node">
<title>Bang14</title>
<ellipse fill="none" stroke="black" cx="223" cy="-234" rx="29.5" ry="18"/>
<text text-anchor="middle" x="223" y="-230.3" font-family="Times,serif" font-size="14.00">Bang</text>
</g>
<!-- PiL10&#45;&gt;Bang14 -->
<g id="edge8" class="edge">
<title>PiL10&#45;&gt;Bang14</title>
<g id="a_edge8"><a xlink:title="dseq20">
<path fill="none" stroke="black" d="M217.16,-179.59C216.3,-187.49 216.05,-197.15 216.41,-206.06"/>
<polygon fill="black" stroke="black" points="212.92,-206.32 217.12,-216.04 219.9,-205.82 212.92,-206.32"/>
</a>
</g>
</g>
<!-- PiL10&#45;&gt;Bang14 -->
<g id="edge33" class="edge">
<title>PiL10&#45;&gt;Bang14</title>
<g id="a_edge33"><a xlink:title="newrret18">
<path fill="none" stroke="red" d="M228.84,-179.59C229.7,-187.49 229.95,-197.15 229.59,-206.06"/>
<polygon fill="red" stroke="red" points="226.1,-205.82 228.88,-216.04 233.08,-206.32 226.1,-205.82"/>
</a>
</g>
</g>
<!-- Assign11 -->
<g id="node12" class="node">
<title>Assign11</title>
<ellipse fill="none" stroke="black" cx="223" cy="-18" rx="35.19" ry="18"/>
<text text-anchor="middle" x="223" y="-14.3" font-family="Times,serif" font-size="14.00">Assign</text>
</g>
<!-- Assign11&#45;&gt;Identity9 -->
<g id="edge45" class="edge">
<title>Assign11&#45;&gt;Identity9</title>
<g id="a_edge45"><a xlink:title="ret8">
<path fill="none" stroke="red" d="M235.67,-34.95C243.26,-45.09 252.63,-58.77 259,-72 280.57,-116.78 295.52,-172.99 303.15,-205.76"/>
<polygon fill="red" stroke="red" points="299.83,-206.95 305.45,-215.93 306.65,-205.4 299.83,-206.95"/>
</a>
</g>
</g>
<!-- Cut13 -->
<g id="node14" class="node">
<title>Cut13</title>
<ellipse fill="none" stroke="black" cx="223" cy="-90" rx="27" ry="18"/>
<text text-anchor="middle" x="223" y="-86.3" font-family="Times,serif" font-size="14.00">Cut</text>
</g>
<!-- Assign11&#45;&gt;Cut13 -->
<g id="edge52" class="edge">
<title>Assign11&#45;&gt;Cut13</title>
<g id="a_edge52"><a xlink:title="seqBC94">
<path fill="none" stroke="black" d="M223,-36.3C223,-44.02 223,-53.29 223,-61.89"/>
<polygon fill="black" stroke="black" points="219.5,-61.9 223,-71.9 226.5,-61.9 219.5,-61.9"/>
</a>
</g>
</g>
<!-- Dup12 -->
<g id="node13" class="node">
<title>Dup12</title>
<ellipse fill="none" stroke="black" cx="176" cy="-318" rx="26" ry="26"/>
<ellipse fill="none" stroke="black" cx="176" cy="-318" rx="30" ry="30"/>
<text text-anchor="middle" x="176" y="-314.3" font-family="Times,serif" font-size="14.00">Dup</text>
</g>
<!-- DupI26 -->
<g id="node27" class="node">
<title>DupI26</title>
<ellipse fill="none" stroke="black" cx="176" cy="-402" rx="28.7" ry="18"/>
<text text-anchor="middle" x="176" y="-398.3" font-family="Times,serif" font-size="14.00">DupI</text>
</g>
<!-- Dup12&#45;&gt;DupI26 -->
<g id="edge4" class="edge">
<title>Dup12&#45;&gt;DupI26</title>
<g id="a_edge4"><a xlink:title="c_bseq32">
<path fill="none" stroke="black" stroke-width="2" d="M176,-348.14C176,-356.46 176,-365.49 176,-373.7"/>
<polygon fill="black" stroke="black" stroke-width="2" points="172.5,-373.88 176,-383.88 179.5,-373.88 172.5,-373.88"/>
</a>
</g>
</g>
<!-- Cut13&#45;&gt;PiL10 -->
<g id="edge28" class="edge">
<title>Cut13&#45;&gt;PiL10</title>
<g id="a_edge28"><a xlink:title="lval14">
<path fill="none" stroke="blue" d="M217.16,-107.59C216.3,-115.49 216.05,-125.15 216.41,-134.06"/>
<polygon fill="blue" stroke="blue" points="212.92,-134.32 217.12,-144.04 219.9,-133.82 212.92,-134.32"/>
</a>
</g>
</g>
<!-- Cut13&#45;&gt;PiL10 -->
<g id="edge53" class="edge">
<title>Cut13&#45;&gt;PiL10</title>
<g id="a_edge53"><a xlink:title="xseq16">
<path fill="none" stroke="black" d="M229.58,-117.81C229.8,-123.05 229.81,-128.54 229.6,-133.78"/>
<polygon fill="black" stroke="black" points="232.33,-107.34 229.57,-117.56 225.35,-107.84 232.33,-107.34"/>
<polygon fill="black" stroke="black" points="226.09,-133.82 228.88,-144.04 233.07,-134.31 226.09,-133.82"/>
</a>
</g>
</g>
<!-- Cut13&#45;&gt;Dup12 -->
<g id="edge7" class="edge">
<title>Cut13&#45;&gt;Dup12</title>
<g id="a_edge7"><a xlink:title="c_bseq86">
<path fill="none" stroke="black" d="M209.56,-106.03C201.47,-116.04 191.83,-129.9 187,-144 171.91,-188.05 171.04,-242.05 172.72,-277.88"/>
<polygon fill="black" stroke="black" points="169.23,-278.14 173.28,-287.93 176.21,-277.75 169.23,-278.14"/>
</a>
</g>
</g>
<!-- PiR21 -->
<g id="node22" class="node">
<title>PiR21</title>
<ellipse fill="none" stroke="black" cx="140" cy="-474" rx="27" ry="18"/>
<text text-anchor="middle" x="140" y="-470.3" font-family="Times,serif" font-size="14.00">PiR</text>
</g>
<!-- Cut13&#45;&gt;PiR21 -->
<g id="edge40" class="edge">
<title>Cut13&#45;&gt;PiR21</title>
<g id="a_edge40"><a xlink:title="newrretf87">
<path fill="none" stroke="red" d="M204.71,-103.53C174.63,-125.8 118,-175.36 118,-233 118,-233 118,-233 118,-319 118,-363.93 127.29,-415.51 133.8,-446.11"/>
<polygon fill="red" stroke="red" points="130.41,-447 135.96,-456.02 137.25,-445.5 130.41,-447"/>
</a>
</g>
</g>
<!-- Bang14&#45;&gt;Dup12 -->
<g id="edge31" class="edge">
<title>Bang14&#45;&gt;Dup12</title>
<g id="a_edge31"><a xlink:title="newcut_bseq100">
<path fill="none" stroke="black" d="M213.71,-251.2C208.57,-260.17 201.98,-271.68 195.74,-282.55"/>
<polygon fill="none" stroke="black" points="192.57,-281.05 190.63,-291.47 198.64,-284.53 192.57,-281.05"/>
</a>
</g>
</g>
<!-- PiR22 -->
<g id="node23" class="node">
<title>PiR22</title>
<ellipse fill="none" stroke="black" cx="212" cy="-474" rx="27" ry="18"/>
<text text-anchor="middle" x="212" y="-470.3" font-family="Times,serif" font-size="14.00">PiR</text>
</g>
<!-- Bang14&#45;&gt;PiR22 -->
<g id="edge41" class="edge">
<title>Bang14&#45;&gt;PiR22</title>
<g id="a_edge41"><a xlink:title="newrretf91">
<path fill="none" stroke="red" d="M222.21,-252.12C220.33,-292.84 215.57,-395.8 213.27,-445.42"/>
<polygon fill="red" stroke="red" points="209.76,-445.56 212.8,-455.71 216.76,-445.89 209.76,-445.56"/>
</a>
</g>
</g>
<!-- Dup15 -->
<g id="node16" class="node">
<title>Dup15</title>
<ellipse fill="none" stroke="black" cx="171" cy="-906" rx="27" ry="18"/>
<text text-anchor="middle" x="171" y="-902.3" font-family="Times,serif" font-size="14.00">Dup</text>
</g>
<!-- Dup15&#45;&gt;BangD6 -->
<g id="edge5" class="edge">
<title>Dup15&#45;&gt;BangD6</title>
<g id="a_edge5"><a xlink:title="c_bseq67">
<path fill="none" stroke="black" d="M171,-924.3C171,-932.01 171,-941.28 171,-949.88"/>
<polygon fill="black" stroke="black" points="167.5,-949.89 171,-959.89 174.5,-949.89 167.5,-949.89"/>
</a>
</g>
</g>
<!-- Dup16 -->
<g id="node17" class="node">
<title>Dup16</title>
<ellipse fill="none" stroke="black" cx="99" cy="-906" rx="27" ry="18"/>
<text text-anchor="middle" x="99" y="-902.3" font-family="Times,serif" font-size="14.00">Dup</text>
</g>
<!-- Dup16&#45;&gt;Identity4 -->
<g id="edge38" class="edge">
<title>Dup16&#45;&gt;Identity4</title>
<g id="a_edge38"><a xlink:title="newrretf66">
<path fill="none" stroke="red" d="M99,-924.15C99,-961.16 99,-1048.81 99,-1093.61"/>
<polygon fill="red" stroke="red" points="95.5,-1093.76 99,-1103.76 102.5,-1093.76 95.5,-1093.76"/>
</a>
</g>
</g>
<!-- Dup17 -->
<g id="node18" class="node">
<title>Dup17</title>
<ellipse fill="none" stroke="black" cx="27" cy="-906" rx="27" ry="18"/>
<text text-anchor="middle" x="27" y="-902.3" font-family="Times,serif" font-size="14.00">Dup</text>
</g>
<!-- Dup17&#45;&gt;BangD6 -->
<g id="edge17" class="edge">
<title>Dup17&#45;&gt;BangD6</title>
<g id="a_edge17"><a xlink:title="hf65">
<path fill="none" stroke="blue" d="M48.25,-917.32C71.62,-928.69 109.52,-947.11 137.03,-960.48"/>
<polygon fill="blue" stroke="blue" points="135.76,-963.76 146.28,-964.98 138.82,-957.46 135.76,-963.76"/>
</a>
</g>
</g>
<!-- BangC18 -->
<g id="node19" class="node">
<title>BangC18</title>
<ellipse fill="none" stroke="black" cx="140" cy="-618" rx="35.19" ry="18"/>
<text text-anchor="middle" x="140" y="-614.3" font-family="Times,serif" font-size="14.00">BangC</text>
</g>
<!-- BangC18&#45;&gt;Dup17 -->
<g id="edge15" class="edge">
<title>BangC18&#45;&gt;Dup17</title>
<g id="a_edge15"><a xlink:title="hf107">
<path fill="none" stroke="blue" d="M122.99,-634.09C112.34,-644.13 98.83,-657.99 89,-672 48,-730.4 34.2,-746.5 18,-816 13.22,-836.51 16.03,-860.26 19.73,-878.07"/>
<polygon fill="blue" stroke="blue" points="16.37,-879.09 22.02,-888.05 23.19,-877.52 16.37,-879.09"/>
</a>
</g>
</g>
<!-- Cut19 -->
<g id="node20" class="node">
<title>Cut19</title>
<ellipse fill="none" stroke="black" cx="142" cy="-690" rx="27" ry="18"/>
<text text-anchor="middle" x="142" y="-686.3" font-family="Times,serif" font-size="14.00">Cut</text>
</g>
<!-- BangC18&#45;&gt;Cut19 -->
<g id="edge51" class="edge">
<title>BangC18&#45;&gt;Cut19</title>
<g id="a_edge51"><a xlink:title="seqBC118">
<path fill="none" stroke="black" d="M140.49,-636.3C140.71,-644.01 140.98,-653.28 141.23,-661.88"/>
<polygon fill="black" stroke="black" points="137.73,-662 141.51,-671.89 144.72,-661.8 137.73,-662"/>
</a>
</g>
</g>
<!-- BangC18&#45;&gt;Bang20 -->
<g id="edge11" class="edge">
<title>BangC18&#45;&gt;Bang20</title>
<g id="a_edge11"><a xlink:title="h116">
<path fill="none" stroke="blue" d="M122.29,-643.55C116.56,-652.25 110.52,-662.29 106,-672 85.02,-717.05 69.88,-773.17 62.05,-805.85"/>
<polygon fill="blue" stroke="blue" points="130.98,-637.02 122.46,-643.31 125.19,-633.08 130.98,-637.02"/>
<polygon fill="blue" stroke="blue" points="58.55,-805.45 59.68,-815.99 65.37,-807.05 58.55,-805.45"/>
</a>
</g>
</g>
<!-- Cut19&#45;&gt;PiL8 -->
<g id="edge29" class="edge">
<title>Cut19&#45;&gt;PiL8</title>
<g id="a_edge29"><a xlink:title="lval48">
<path fill="none" stroke="blue" d="M136.16,-707.58C135.3,-715.49 135.05,-725.14 135.41,-734.06"/>
<polygon fill="blue" stroke="blue" points="131.92,-734.31 136.12,-744.04 138.9,-733.82 131.92,-734.31"/>
</a>
</g>
</g>
<!-- Cut19&#45;&gt;PiL8 -->
<g id="edge54" class="edge">
<title>Cut19&#45;&gt;PiL8</title>
<g id="a_edge54"><a xlink:title="yseq50">
<path fill="none" stroke="black" d="M148.58,-717.81C148.8,-723.04 148.81,-728.53 148.6,-733.78"/>
<polygon fill="black" stroke="black" points="151.33,-707.33 148.57,-717.56 144.35,-707.84 151.33,-707.33"/>
<polygon fill="black" stroke="black" points="145.09,-733.82 147.88,-744.04 152.07,-734.31 145.09,-733.82"/>
</a>
</g>
</g>
<!-- Cut19&#45;&gt;Dup15 -->
<g id="edge1" class="edge">
<title>Cut19&#45;&gt;Dup15</title>
<g id="a_edge1"><a xlink:title="c_bseq106">
<path fill="none" stroke="black" d="M165.33,-699.24C184.4,-707.38 210.1,-721.83 222,-744 244.71,-786.28 239.94,-807.47 222,-852 216.73,-865.08 206.51,-876.74 196.59,-885.77"/>
<polygon fill="black" stroke="black" points="194.14,-883.27 188.81,-892.42 198.68,-888.59 194.14,-883.27"/>
</a>
</g>
</g>
<!-- Cut19&#45;&gt;Dup16 -->
<g id="edge36" class="edge">
<title>Cut19&#45;&gt;Dup16</title>
<g id="a_edge36"><a xlink:title="newrretf108">
<path fill="none" stroke="red" d="M155.02,-706.18C162.94,-716.25 172.55,-730.12 178,-744 195.63,-788.91 212.94,-810.11 189,-852 185.53,-858.07 153.55,-876.07 128.69,-889.42"/>
<polygon fill="red" stroke="red" points="126.76,-886.48 119.58,-894.27 130.05,-892.66 126.76,-886.48"/>
</a>
</g>
</g>
<!-- Bang20&#45;&gt;Dup15 -->
<g id="edge32" class="edge">
<title>Bang20&#45;&gt;Dup15</title>
<g id="a_edge32"><a xlink:title="newcut_bseq125">
<path fill="none" stroke="black" d="M76.03,-847.19C94.53,-858.45 122.19,-875.29 142.9,-887.89"/>
<polygon fill="none" stroke="black" points="141.22,-890.97 151.58,-893.18 144.86,-884.99 141.22,-890.97"/>
</a>
</g>
</g>
<!-- Bang20&#45;&gt;Dup16 -->
<g id="edge37" class="edge">
<title>Bang20&#45;&gt;Dup16</title>
<g id="a_edge37"><a xlink:title="newrretf114">
<path fill="none" stroke="red" d="M65.97,-851.23C71.24,-859.8 77.81,-870.5 83.7,-880.1"/>
<polygon fill="none" stroke="red" points="80.86,-882.16 89.08,-888.85 86.83,-878.5 80.86,-882.16"/>
</a>
</g>
</g>
<!-- Bang20&#45;&gt;Dup17 -->
<g id="edge16" class="edge">
<title>Bang20&#45;&gt;Dup17</title>
<g id="a_edge16"><a xlink:title="hf113">
<path fill="none" stroke="blue" d="M49.13,-851.58C45.73,-859.78 41.56,-869.86 37.75,-879.04"/>
<polygon fill="none" stroke="blue" points="34.42,-877.95 33.82,-888.53 40.88,-880.63 34.42,-877.95"/>
</a>
</g>
</g>
<!-- Dup23 -->
<g id="node24" class="node">
<title>Dup23</title>
<ellipse fill="none" stroke="black" cx="140" cy="-546" rx="27" ry="18"/>
<text text-anchor="middle" x="140" y="-542.3" font-family="Times,serif" font-size="14.00">Dup</text>
</g>
<!-- PiR21&#45;&gt;Dup23 -->
<g id="edge47" class="edge">
<title>PiR21&#45;&gt;Dup23</title>
<g id="a_edge47"><a xlink:title="seq131">
<path fill="none" stroke="black" d="M140,-492.3C140,-500.01 140,-509.28 140,-517.88"/>
<polygon fill="black" stroke="black" points="136.5,-517.89 140,-527.89 143.5,-517.89 136.5,-517.89"/>
</a>
</g>
</g>
<!-- Dup24 -->
<g id="node25" class="node">
<title>Dup24</title>
<ellipse fill="none" stroke="black" cx="212" cy="-546" rx="27" ry="18"/>
<text text-anchor="middle" x="212" y="-542.3" font-family="Times,serif" font-size="14.00">Dup</text>
</g>
<!-- PiR21&#45;&gt;Dup24 -->
<g id="edge12" class="edge">
<title>PiR21&#45;&gt;Dup24</title>
<g id="a_edge12"><a xlink:title="h132">
<path fill="none" stroke="blue" d="M154.57,-489.16C164.75,-499.06 178.52,-512.45 190.03,-523.64"/>
<polygon fill="blue" stroke="blue" points="187.59,-526.15 197.2,-530.61 192.47,-521.13 187.59,-526.15"/>
</a>
</g>
</g>
<!-- Dup25 -->
<g id="node26" class="node">
<title>Dup25</title>
<ellipse fill="none" stroke="black" cx="284" cy="-546" rx="27" ry="18"/>
<text text-anchor="middle" x="284" y="-542.3" font-family="Times,serif" font-size="14.00">Dup</text>
</g>
<!-- PiR21&#45;&gt;Dup25 -->
<g id="edge42" class="edge">
<title>PiR21&#45;&gt;Dup25</title>
<g id="a_edge42"><a xlink:title="ret133">
<path fill="none" stroke="red" d="M161.25,-485.32C185.6,-497.16 225.72,-516.66 253.43,-530.13"/>
<polygon fill="red" stroke="red" points="252.14,-533.4 262.67,-534.62 255.2,-527.1 252.14,-533.4"/>
</a>
</g>
</g>
<!-- PiR22&#45;&gt;Dup23 -->
<g id="edge48" class="edge">
<title>PiR22&#45;&gt;Dup23</title>
<g id="a_edge48"><a xlink:title="seq135">
<path fill="none" stroke="black" d="M197.43,-489.16C187.25,-499.06 173.48,-512.45 161.97,-523.64"/>
<polygon fill="none" stroke="black" points="159.53,-521.13 154.8,-530.61 164.41,-526.15 159.53,-521.13"/>
</a>
</g>
</g>
<!-- PiR22&#45;&gt;Dup24 -->
<g id="edge13" class="edge">
<title>PiR22&#45;&gt;Dup24</title>
<g id="a_edge13"><a xlink:title="h136">
<path fill="none" stroke="blue" d="M212,-492.3C212,-500.01 212,-509.28 212,-517.88"/>
<polygon fill="none" stroke="blue" points="208.5,-517.89 212,-527.89 215.5,-517.89 208.5,-517.89"/>
</a>
</g>
</g>
<!-- PiR22&#45;&gt;Dup25 -->
<g id="edge43" class="edge">
<title>PiR22&#45;&gt;Dup25</title>
<g id="a_edge43"><a xlink:title="ret137">
<path fill="none" stroke="red" d="M226.57,-489.16C236.75,-499.06 250.52,-512.45 262.03,-523.64"/>
<polygon fill="none" stroke="red" points="259.59,-526.15 269.2,-530.61 264.47,-521.13 259.59,-526.15"/>
</a>
</g>
</g>
<!-- Dup23&#45;&gt;BangC18 -->
<g id="edge49" class="edge">
<title>Dup23&#45;&gt;BangC18</title>
<g id="a_edge49"><a xlink:title="seq33">
<path fill="none" stroke="black" d="M140,-564.3C140,-572.01 140,-581.28 140,-589.88"/>
<polygon fill="black" stroke="black" points="136.5,-589.89 140,-599.89 143.5,-589.89 136.5,-589.89"/>
</a>
</g>
</g>
<!-- Dup24&#45;&gt;BangC18 -->
<g id="edge14" class="edge">
<title>Dup24&#45;&gt;BangC18</title>
<g id="a_edge14"><a xlink:title="h34">
<path fill="none" stroke="blue" d="M197.43,-561.16C187.61,-570.7 174.46,-583.5 163.21,-594.43"/>
<polygon fill="blue" stroke="blue" points="160.53,-592.16 155.8,-601.64 165.41,-597.17 160.53,-592.16"/>
</a>
</g>
</g>
<!-- Dup25&#45;&gt;Identity7 -->
<g id="edge44" class="edge">
<title>Dup25&#45;&gt;Identity7</title>
<g id="a_edge44"><a xlink:title="ret42">
<path fill="none" stroke="red" d="M277.6,-563.56C262.34,-602.4 221.86,-701.92 178,-780 172.61,-789.6 166,-799.7 159.93,-808.48"/>
<polygon fill="red" stroke="red" points="157,-806.56 154.1,-816.75 162.72,-810.59 157,-806.56"/>
</a>
</g>
</g>
<!-- DupI26&#45;&gt;PiR21 -->
<g id="edge2" class="edge">
<title>DupI26&#45;&gt;PiR21</title>
<g id="a_edge2"><a xlink:title="c_bseq134">
<path fill="none" stroke="black" d="M167.65,-419.23C163.29,-427.71 157.85,-438.28 152.96,-447.8"/>
<polygon fill="black" stroke="black" points="149.77,-446.35 148.3,-456.85 155.99,-449.56 149.77,-446.35"/>
</a>
</g>
</g>
<!-- DupI26&#45;&gt;PiR22 -->
<g id="edge3" class="edge">
<title>DupI26&#45;&gt;PiR22</title>
<g id="a_edge3"><a xlink:title="c_bseq138">
<path fill="none" stroke="black" d="M189.01,-428.29C192.3,-434.69 195.83,-441.56 199.12,-447.95"/>
<polygon fill="black" stroke="black" points="187.46,-417.63 188.92,-428.12 181.24,-420.83 187.46,-417.63"/>
<polygon fill="black" stroke="black" points="196.01,-449.56 203.7,-456.85 202.23,-446.35 196.01,-449.56"/>
</a>
</g>
</g>
</g>
</svg>
