<?xml version="1.0" encoding="UTF-8" standalone="no"?>
<!DOCTYPE svg PUBLIC "-//W3C//DTD SVG 1.1//EN"
 "http://www.w3.org/Graphics/SVG/1.1/DTD/svg11.dtd">
<!-- Generated by graphviz version 2.49.3 (0)
 -->
<!-- Pages: 1 -->
<svg width="453pt" height="716pt"
 viewBox="0.00 0.00 453.00 716.00" xmlns="http://www.w3.org/2000/svg" xmlns:xlink="http://www.w3.org/1999/xlink">
<g id="graph0" class="graph" transform="scale(1 1) rotate(0) translate(4 712)">
<polygon fill="white" stroke="transparent" points="-4,4 -4,-712 449,-712 449,4 -4,4"/>
<!-- I0 -->
<g id="node1" class="node">
<title>I0</title>
<ellipse fill="none" stroke="black" cx="346" cy="-690" rx="27" ry="18"/>
<text text-anchor="middle" x="346" y="-686.3" font-family="Times,serif" font-size="14.00">I</text>
</g>
<!-- @1 -->
<g id="node2" class="node">
<title>@1</title>
<ellipse fill="none" stroke="black" cx="236" cy="-618" rx="27" ry="18"/>
<text text-anchor="middle" x="236" y="-614.3" font-family="Times,serif" font-size="14.00">@</text>
</g>
<!-- I0&#45;&gt;@1 -->
<g id="edge12" class="edge">
<title>I0&#45;&gt;@1</title>
<g id="a_edge12"><a xlink:title="lret53">
<path fill="none" stroke="blue" d="M318.24,-671.33C298.46,-658.74 272.38,-642.14 254.94,-631.05"/>
<polygon fill="blue" stroke="blue" points="316.52,-674.39 326.84,-676.8 320.28,-668.48 316.52,-674.39"/>
</a>
</g>
</g>
<!-- !p5 -->
<g id="node6" class="node">
<title>!p5</title>
<ellipse fill="none" stroke="black" cx="236" cy="-546" rx="27" ry="18"/>
<text text-anchor="middle" x="236" y="-542.3" font-family="Times,serif" font-size="14.00">!p</text>
</g>
<!-- @1&#45;&gt;!p5 -->
<g id="edge19" class="edge">
<title>@1&#45;&gt;!p5</title>
<g id="a_edge19"><a xlink:title="newrret52">
<path fill="none" stroke="red" d="M236,-599.69C236,-591.98 236,-582.71 236,-574.11"/>
<polygon fill="red" stroke="red" points="239.5,-574.1 236,-564.1 232.5,-574.1 239.5,-574.1"/>
</a>
</g>
</g>
<!-- @13 -->
<g id="node14" class="node">
<title>@13</title>
<ellipse fill="none" stroke="black" cx="90" cy="-546" rx="27" ry="18"/>
<text text-anchor="middle" x="90" y="-542.3" font-family="Times,serif" font-size="14.00">@</text>
</g>
<!-- @1&#45;&gt;@13 -->
<g id="edge15" class="edge">
<title>@1&#45;&gt;@13</title>
<g id="a_edge15"><a xlink:title="lval48">
<path fill="none" stroke="blue" d="M205.75,-602.49C177.52,-588.96 136.14,-569.12 111.26,-557.19"/>
<polygon fill="blue" stroke="blue" points="204.24,-605.65 214.77,-606.82 207.27,-599.34 204.24,-605.65"/>
</a>
</g>
</g>
<!-- Assign2 -->
<g id="node3" class="node">
<title>Assign2</title>
<ellipse fill="none" stroke="black" cx="409" cy="-90" rx="35.19" ry="18"/>
<text text-anchor="middle" x="409" y="-86.3" font-family="Times,serif" font-size="14.00">Assign</text>
</g>
<!-- Dup9 -->
<g id="node10" class="node">
<title>Dup9</title>
<ellipse fill="none" stroke="black" cx="346" cy="-18" rx="27" ry="18"/>
<text text-anchor="middle" x="346" y="-14.3" font-family="Times,serif" font-size="14.00">Dup</text>
</g>
<!-- Assign2&#45;&gt;Dup9 -->
<g id="edge24" class="edge">
<title>Assign2&#45;&gt;Dup9</title>
<g id="a_edge24"><a xlink:title="ret133">
<path fill="none" stroke="red" d="M395.02,-73.46C386.58,-64.09 375.69,-51.99 366.32,-41.57"/>
<polygon fill="red" stroke="red" points="368.8,-39.1 359.51,-34.01 363.6,-43.79 368.8,-39.1"/>
</a>
</g>
</g>
<!-- !p3 -->
<g id="node4" class="node">
<title>!p3</title>
<ellipse fill="none" stroke="black" cx="138" cy="-162" rx="27" ry="18"/>
<text text-anchor="middle" x="138" y="-158.3" font-family="Times,serif" font-size="14.00">!p</text>
</g>
<!-- λ6 -->
<g id="node7" class="node">
<title>λ6</title>
<ellipse fill="none" stroke="black" cx="193" cy="-90" rx="27" ry="18"/>
<text text-anchor="middle" x="193" y="-86.3" font-family="Times,serif" font-size="14.00">λ</text>
</g>
<!-- !p3&#45;&gt;λ6 -->
<g id="edge23" class="edge">
<title>!p3&#45;&gt;λ6</title>
<g id="a_edge23"><a xlink:title="newrretf91">
<path fill="none" stroke="red" d="M149.93,-145.81C157.21,-136.55 166.66,-124.52 174.85,-114.09"/>
<polygon fill="red" stroke="red" points="177.66,-116.18 181.09,-106.16 172.16,-111.86 177.66,-116.18"/>
</a>
</g>
</g>
<!-- !c4 -->
<g id="node5" class="node">
<title>!c4</title>
<ellipse fill="none" stroke="black" cx="144" cy="-402" rx="27" ry="18"/>
<text text-anchor="middle" x="144" y="-398.3" font-family="Times,serif" font-size="14.00">!c</text>
</g>
<!-- Dup8 -->
<g id="node9" class="node">
<title>Dup8</title>
<ellipse fill="none" stroke="black" cx="144" cy="-318" rx="26" ry="26"/>
<ellipse fill="none" stroke="black" cx="144" cy="-318" rx="30" ry="30"/>
<text text-anchor="middle" x="144" y="-314.3" font-family="Times,serif" font-size="14.00">Dup</text>
</g>
<!-- !c4&#45;&gt;Dup8 -->
<g id="edge4" class="edge">
<title>!c4&#45;&gt;Dup8</title>
<g id="a_edge4"><a xlink:title="h34">
<path fill="none" stroke="blue" stroke-width="2" d="M144,-373.53C144,-365.42 144,-356.52 144,-348.3"/>
<polygon fill="blue" stroke="blue" stroke-width="2" points="140.5,-373.61 144,-383.61 147.5,-373.61 140.5,-373.61"/>
</a>
</g>
</g>
<!-- !p5&#45;&gt;!c4 -->
<g id="edge1" class="edge">
<title>!p5&#45;&gt;!c4</title>
<g id="a_edge1"><a xlink:title="h116">
<path fill="none" stroke="blue" d="M219.33,-520.84C213.19,-511.83 206.21,-501.49 200,-492 185.88,-470.4 170.28,-445.51 159.14,-427.56"/>
<polygon fill="blue" stroke="blue" points="216.6,-523.05 225.14,-529.32 222.38,-519.09 216.6,-523.05"/>
<polygon fill="blue" stroke="blue" points="156.72,-417.01 159.01,-427.36 150.77,-420.7 156.72,-417.01"/>
</a>
</g>
</g>
<!-- I23 -->
<g id="node24" class="node">
<title>I23</title>
<ellipse fill="none" stroke="black" cx="236" cy="-474" rx="27" ry="18"/>
<text text-anchor="middle" x="236" y="-470.3" font-family="Times,serif" font-size="14.00">I</text>
</g>
<!-- !p5&#45;&gt;I23 -->
<g id="edge20" class="edge">
<title>!p5&#45;&gt;I23</title>
<g id="a_edge20"><a xlink:title="newrretf114">
<path fill="none" stroke="red" d="M236,-527.69C236,-519.98 236,-510.71 236,-502.11"/>
<polygon fill="red" stroke="red" points="239.5,-502.1 236,-492.1 232.5,-502.1 239.5,-502.1"/>
</a>
</g>
</g>
<!-- λ6&#45;&gt;Dup9 -->
<g id="edge25" class="edge">
<title>λ6&#45;&gt;Dup9</title>
<g id="a_edge25"><a xlink:title="ret137">
<path fill="none" stroke="red" d="M214.6,-79.12C240.76,-67.15 285.03,-46.89 314.88,-33.24"/>
<polygon fill="none" stroke="red" points="316.38,-36.4 324.02,-29.06 313.47,-30.03 316.38,-36.4"/>
</a>
</g>
</g>
<!-- Dup7 -->
<g id="node8" class="node">
<title>Dup7</title>
<ellipse fill="none" stroke="black" cx="418" cy="-690" rx="27" ry="18"/>
<text text-anchor="middle" x="418" y="-686.3" font-family="Times,serif" font-size="14.00">Dup</text>
</g>
<!-- Dup8&#45;&gt;λ6 -->
<g id="edge3" class="edge">
<title>Dup8&#45;&gt;λ6</title>
<g id="a_edge3"><a xlink:title="h136">
<path fill="none" stroke="blue" d="M162.47,-282.26C166.89,-272.69 171.14,-262.14 174,-252 188.37,-201.07 191.88,-138.12 192.73,-108.26"/>
<polygon fill="none" stroke="blue" points="159.23,-280.94 158.06,-291.46 165.54,-283.97 159.23,-280.94"/>
</a>
</g>
</g>
<!-- Cut10 -->
<g id="node11" class="node">
<title>Cut10</title>
<ellipse fill="none" stroke="black" cx="138" cy="-234" rx="27" ry="18"/>
<text text-anchor="middle" x="138" y="-230.3" font-family="Times,serif" font-size="14.00">Cut</text>
</g>
<!-- Dup8&#45;&gt;Cut10 -->
<g id="edge2" class="edge">
<title>Dup8&#45;&gt;Cut10</title>
<g id="a_edge2"><a xlink:title="h132">
<path fill="none" stroke="blue" d="M141.13,-277.8C140.47,-268.77 139.8,-259.62 139.25,-252.11"/>
<polygon fill="blue" stroke="blue" points="137.65,-278.14 141.87,-287.86 144.63,-277.63 137.65,-278.14"/>
</a>
</g>
</g>
<!-- Dup9&#45;&gt;I0 -->
<g id="edge28" class="edge">
<title>Dup9&#45;&gt;I0</title>
<g id="a_edge28"><a xlink:title="ret42">
<path fill="none" stroke="red" d="M346,-36.05C346,-62.71 346,-115.89 346,-161 346,-547 346,-547 346,-547 346,-587 346,-633.34 346,-661.92"/>
<polygon fill="red" stroke="red" points="342.5,-661.95 346,-671.95 349.5,-661.95 342.5,-661.95"/>
</a>
</g>
</g>
<!-- Cut10&#45;&gt;!p3 -->
<g id="edge18" class="edge">
<title>Cut10&#45;&gt;!p3</title>
<g id="a_edge18"><a xlink:title="newrret18">
<path fill="none" stroke="red" d="M138,-215.7C138,-207.98 138,-198.71 138,-190.11"/>
<polygon fill="red" stroke="red" points="141.5,-190.1 138,-180.1 134.5,-190.1 141.5,-190.1"/>
</a>
</g>
</g>
<!-- !d11 -->
<g id="node12" class="node">
<title>!d11</title>
<ellipse fill="none" stroke="black" cx="126" cy="-474" rx="27" ry="18"/>
<text text-anchor="middle" x="126" y="-470.3" font-family="Times,serif" font-size="14.00">!d</text>
</g>
<!-- !d11&#45;&gt;!c4 -->
<g id="edge5" class="edge">
<title>!d11&#45;&gt;!c4</title>
<g id="a_edge5"><a xlink:title="hf107">
<path fill="none" stroke="blue" d="M132.91,-446.13C135.19,-437.27 137.65,-427.67 139.68,-419.78"/>
<polygon fill="blue" stroke="blue" points="129.46,-445.49 130.36,-456.05 136.24,-447.24 129.46,-445.49"/>
</a>
</g>
</g>
<!-- !d12 -->
<g id="node13" class="node">
<title>!d12</title>
<ellipse fill="none" stroke="black" cx="291" cy="-318" rx="27" ry="18"/>
<text text-anchor="middle" x="291" y="-314.3" font-family="Times,serif" font-size="14.00">!d</text>
</g>
<!-- !d12&#45;&gt;!p5 -->
<g id="edge6" class="edge">
<title>!d12&#45;&gt;!p5</title>
<g id="a_edge6"><a xlink:title="hf113">
<path fill="none" stroke="blue" d="M292,-346.42C292.39,-381.33 290.05,-443 272,-492 266.85,-505.98 257.22,-519.85 249.22,-529.89"/>
<polygon fill="blue" stroke="blue" points="295.5,-346 291.8,-336.07 288.5,-346.14 295.5,-346"/>
</a>
</g>
</g>
<!-- @13&#45;&gt;!d11 -->
<g id="edge13" class="edge">
<title>@13&#45;&gt;!d11</title>
<g id="a_edge13"><a xlink:title="lval141">
<path fill="none" stroke="blue" d="M103.01,-519.7C107.91,-510.17 113.34,-499.61 117.7,-491.14"/>
<polygon fill="blue" stroke="blue" points="99.81,-518.27 98.35,-528.76 106.04,-521.47 99.81,-518.27"/>
</a>
</g>
</g>
<!-- !p15 -->
<g id="node16" class="node">
<title>!p15</title>
<ellipse fill="none" stroke="black" cx="54" cy="-474" rx="27" ry="18"/>
<text text-anchor="middle" x="54" y="-470.3" font-family="Times,serif" font-size="14.00">!p</text>
</g>
<!-- @13&#45;&gt;!p15 -->
<g id="edge16" class="edge">
<title>@13&#45;&gt;!p15</title>
<g id="a_edge16"><a xlink:title="newrret147">
<path fill="none" stroke="red" d="M81.65,-528.76C77.29,-520.28 71.85,-509.71 66.96,-500.19"/>
<polygon fill="red" stroke="red" points="69.99,-498.43 62.3,-491.14 63.77,-501.64 69.99,-498.43"/>
</a>
</g>
</g>
<!-- @14 -->
<g id="node15" class="node">
<title>@14</title>
<ellipse fill="none" stroke="black" cx="227" cy="-402" rx="27" ry="18"/>
<text text-anchor="middle" x="227" y="-398.3" font-family="Times,serif" font-size="14.00">@</text>
</g>
<!-- @14&#45;&gt;!d12 -->
<g id="edge14" class="edge">
<title>@14&#45;&gt;!d12</title>
<g id="a_edge14"><a xlink:title="lval144">
<path fill="none" stroke="blue" d="M245.38,-377.44C256.19,-363.59 269.56,-346.47 279.02,-334.35"/>
<polygon fill="blue" stroke="blue" points="242.43,-375.54 239.04,-385.57 247.95,-379.84 242.43,-375.54"/>
</a>
</g>
</g>
<!-- !p16 -->
<g id="node17" class="node">
<title>!p16</title>
<ellipse fill="none" stroke="black" cx="219" cy="-318" rx="27" ry="18"/>
<text text-anchor="middle" x="219" y="-314.3" font-family="Times,serif" font-size="14.00">!p</text>
</g>
<!-- @14&#45;&gt;!p16 -->
<g id="edge17" class="edge">
<title>@14&#45;&gt;!p16</title>
<g id="a_edge17"><a xlink:title="newrret152">
<path fill="none" stroke="red" d="M225.34,-384.01C224.28,-373.12 222.88,-358.75 221.66,-346.29"/>
<polygon fill="red" stroke="red" points="225.11,-345.58 220.66,-335.97 218.14,-346.26 225.11,-345.58"/>
</a>
</g>
</g>
<!-- λ17 -->
<g id="node18" class="node">
<title>λ17</title>
<ellipse fill="none" stroke="black" cx="54" cy="-402" rx="27" ry="18"/>
<text text-anchor="middle" x="54" y="-398.3" font-family="Times,serif" font-size="14.00">λ</text>
</g>
<!-- !p15&#45;&gt;λ17 -->
<g id="edge21" class="edge">
<title>!p15&#45;&gt;λ17</title>
<g id="a_edge21"><a xlink:title="newrretf157">
<path fill="none" stroke="red" d="M54,-455.69C54,-447.98 54,-438.71 54,-430.11"/>
<polygon fill="red" stroke="red" points="57.5,-430.1 54,-420.1 50.5,-430.1 57.5,-430.1"/>
</a>
</g>
</g>
<!-- λ18 -->
<g id="node19" class="node">
<title>λ18</title>
<ellipse fill="none" stroke="black" cx="248" cy="-234" rx="27" ry="18"/>
<text text-anchor="middle" x="248" y="-230.3" font-family="Times,serif" font-size="14.00">λ</text>
</g>
<!-- !p16&#45;&gt;λ18 -->
<g id="edge22" class="edge">
<title>!p16&#45;&gt;λ18</title>
<g id="a_edge22"><a xlink:title="newrretf160">
<path fill="none" stroke="red" d="M224.87,-300.4C228.81,-289.25 234.1,-274.31 238.62,-261.53"/>
<polygon fill="red" stroke="red" points="242.01,-262.44 242.04,-251.85 235.41,-260.11 242.01,-262.44"/>
</a>
</g>
</g>
<!-- I21 -->
<g id="node22" class="node">
<title>I21</title>
<ellipse fill="none" stroke="black" cx="54" cy="-318" rx="27" ry="18"/>
<text text-anchor="middle" x="54" y="-314.3" font-family="Times,serif" font-size="14.00">I</text>
</g>
<!-- λ17&#45;&gt;I21 -->
<g id="edge26" class="edge">
<title>λ17&#45;&gt;I21</title>
<g id="a_edge26"><a xlink:title="ret164">
<path fill="none" stroke="red" d="M54,-383.61C54,-372.77 54,-358.6 54,-346.29"/>
<polygon fill="red" stroke="red" points="57.5,-346.08 54,-336.08 50.5,-346.08 57.5,-346.08"/>
</a>
</g>
</g>
<!-- I22 -->
<g id="node23" class="node">
<title>I22</title>
<ellipse fill="none" stroke="black" cx="286" cy="-162" rx="27" ry="18"/>
<text text-anchor="middle" x="286" y="-158.3" font-family="Times,serif" font-size="14.00">I</text>
</g>
<!-- λ18&#45;&gt;I22 -->
<g id="edge27" class="edge">
<title>λ18&#45;&gt;I22</title>
<g id="a_edge27"><a xlink:title="ret168">
<path fill="none" stroke="red" d="M256.81,-216.76C261.42,-208.28 267.16,-197.71 272.32,-188.2"/>
<polygon fill="red" stroke="red" points="275.54,-189.61 277.23,-179.15 269.39,-186.27 275.54,-189.61"/>
</a>
</g>
</g>
<!-- !d19 -->
<g id="node20" class="node">
<title>!d19</title>
<ellipse fill="none" stroke="black" cx="27" cy="-234" rx="27" ry="18"/>
<text text-anchor="middle" x="27" y="-230.3" font-family="Times,serif" font-size="14.00">!d</text>
</g>
<!-- !d19&#45;&gt;λ17 -->
<g id="edge7" class="edge">
<title>!d19&#45;&gt;λ17</title>
<g id="a_edge7"><a xlink:title="i163">
<path fill="none" stroke="blue" d="M19.37,-261.75C14.01,-285.04 9.22,-319.45 18,-348 22.38,-362.24 32.04,-376.1 40.25,-386.06"/>
<polygon fill="blue" stroke="blue" points="22.81,-262.44 21.83,-251.89 16.01,-260.75 22.81,-262.44"/>
</a>
</g>
</g>
<!-- !d20 -->
<g id="node21" class="node">
<title>!d20</title>
<ellipse fill="none" stroke="black" cx="281" cy="-90" rx="27" ry="18"/>
<text text-anchor="middle" x="281" y="-86.3" font-family="Times,serif" font-size="14.00">!d</text>
</g>
<!-- !d20&#45;&gt;λ18 -->
<g id="edge8" class="edge">
<title>!d20&#45;&gt;λ18</title>
<g id="a_edge8"><a xlink:title="i167">
<path fill="none" stroke="blue" d="M263.64,-114.77C258.21,-123.53 252.89,-133.8 250,-144 243.14,-168.24 244.2,-197.69 245.88,-215.89"/>
<polygon fill="blue" stroke="blue" points="266.66,-116.55 269.24,-106.27 260.82,-112.7 266.66,-116.55"/>
</a>
</g>
</g>
<!-- I21&#45;&gt;!d19 -->
<g id="edge9" class="edge">
<title>I21&#45;&gt;!d19</title>
<g id="a_edge9"><a xlink:title="iret171">
<path fill="none" stroke="blue" d="M45.23,-290.37C41.04,-277.64 36.15,-262.8 32.49,-251.69"/>
<polygon fill="blue" stroke="blue" points="41.95,-291.6 48.41,-300.01 48.6,-289.41 41.95,-291.6"/>
</a>
</g>
</g>
<!-- I22&#45;&gt;!d20 -->
<g id="edge10" class="edge">
<title>I22&#45;&gt;!d20</title>
<g id="a_edge10"><a xlink:title="iret174">
<path fill="none" stroke="blue" d="M284.05,-133.67C283.43,-125.05 282.77,-115.79 282.22,-108.1"/>
<polygon fill="blue" stroke="blue" points="280.56,-133.97 284.76,-143.7 287.54,-133.47 280.56,-133.97"/>
</a>
</g>
</g>
<!-- I23&#45;&gt;@14 -->
<g id="edge11" class="edge">
<title>I23&#45;&gt;@14</title>
<g id="a_edge11"><a xlink:title="lret154">
<path fill="none" stroke="blue" d="M232.53,-446C231.42,-437.36 230.22,-428.03 229.22,-420.27"/>
<polygon fill="blue" stroke="blue" points="229.07,-446.58 233.82,-456.05 236.02,-445.69 229.07,-446.58"/>
</a>
</g>
</g>
</g>
</svg>
