<?xml version="1.0" encoding="UTF-8" standalone="no"?>
<!DOCTYPE svg PUBLIC "-//W3C//DTD SVG 1.1//EN"
 "http://www.w3.org/Graphics/SVG/1.1/DTD/svg11.dtd">
<!-- Generated by graphviz version 2.49.3 (0)
 -->
<!-- Pages: 1 -->
<svg width="300pt" height="1148pt"
 viewBox="0.00 0.00 300.35 1148.00" xmlns="http://www.w3.org/2000/svg" xmlns:xlink="http://www.w3.org/1999/xlink">
<g id="graph0" class="graph" transform="scale(1 1) rotate(0) translate(4 1144)">
<polygon fill="white" stroke="transparent" points="-4,4 -4,-1144 296.35,-1144 296.35,4 -4,4"/>
<!-- Identity0 -->
<g id="node1" class="node">
<title>Identity0</title>
<ellipse fill="none" stroke="black" cx="38.35" cy="-690" rx="38.19" ry="18"/>
<text text-anchor="middle" x="38.35" y="-686.3" font-family="Times,serif" font-size="14.00">Identity</text>
</g>
<!-- PiL1 -->
<g id="node2" class="node">
<title>PiL1</title>
<ellipse fill="none" stroke="black" cx="124.35" cy="-618" rx="27" ry="18"/>
<text text-anchor="middle" x="124.35" y="-614.3" font-family="Times,serif" font-size="14.00">PiL</text>
</g>
<!-- PiL1&#45;&gt;Identity0 -->
<g id="edge22" class="edge">
<title>PiL1&#45;&gt;Identity0</title>
<g id="a_edge22"><a xlink:title="idseq55">
<path fill="none" stroke="black" d="M96.62,-636.71C84.7,-645.69 71.05,-656.69 59.89,-666.28"/>
<polygon fill="black" stroke="black" points="107.06,-633.37 96.93,-636.49 102.9,-627.74 107.06,-633.37"/>
<polygon fill="black" stroke="black" points="57.47,-663.74 52.26,-672.97 62.09,-669.01 57.47,-663.74"/>
</a>
</g>
</g>
<!-- PiL1&#45;&gt;Identity0 -->
<g id="edge28" class="edge">
<title>PiL1&#45;&gt;Identity0</title>
<g id="a_edge28"><a xlink:title="lret53">
<path fill="none" stroke="blue" d="M111.36,-634.18C100.05,-644.4 83.53,-657.98 68.99,-669.07"/>
<polygon fill="blue" stroke="blue" points="66.62,-666.47 60.71,-675.26 70.82,-672.07 66.62,-666.47"/>
</a>
</g>
</g>
<!-- Bang4 -->
<g id="node5" class="node">
<title>Bang4</title>
<ellipse fill="none" stroke="black" cx="124.35" cy="-690" rx="29.5" ry="18"/>
<text text-anchor="middle" x="124.35" y="-686.3" font-family="Times,serif" font-size="14.00">Bang</text>
</g>
<!-- PiL1&#45;&gt;Bang4 -->
<g id="edge6" class="edge">
<title>PiL1&#45;&gt;Bang4</title>
<g id="a_edge6"><a xlink:title="dseq54">
<path fill="none" stroke="black" d="M118.51,-635.58C117.64,-643.49 117.39,-653.14 117.76,-662.06"/>
<polygon fill="black" stroke="black" points="114.27,-662.31 118.47,-672.04 121.25,-661.82 114.27,-662.31"/>
</a>
</g>
</g>
<!-- PiL1&#45;&gt;Bang4 -->
<g id="edge37" class="edge">
<title>PiL1&#45;&gt;Bang4</title>
<g id="a_edge37"><a xlink:title="newrret52">
<path fill="none" stroke="red" d="M130.19,-635.58C131.05,-643.49 131.3,-653.14 130.93,-662.06"/>
<polygon fill="red" stroke="red" points="127.44,-661.82 130.23,-672.04 134.43,-662.31 127.44,-661.82"/>
</a>
</g>
</g>
<!-- Assign2 -->
<g id="node3" class="node">
<title>Assign2</title>
<ellipse fill="none" stroke="black" cx="121.35" cy="-18" rx="35.19" ry="18"/>
<text text-anchor="middle" x="121.35" y="-14.3" font-family="Times,serif" font-size="14.00">Assign</text>
</g>
<!-- Dup6 -->
<g id="node7" class="node">
<title>Dup6</title>
<ellipse fill="none" stroke="black" cx="38.35" cy="-318" rx="26" ry="26"/>
<ellipse fill="none" stroke="black" cx="38.35" cy="-318" rx="30" ry="30"/>
<text text-anchor="middle" x="38.35" y="-314.3" font-family="Times,serif" font-size="14.00">Dup</text>
</g>
<!-- Assign2&#45;&gt;Dup6 -->
<g id="edge42" class="edge">
<title>Assign2&#45;&gt;Dup6</title>
<g id="a_edge42"><a xlink:title="ret133">
<path fill="none" stroke="red" stroke-width="2" d="M108.15,-34.71C100.37,-44.77 90.97,-58.44 85.35,-72 56.69,-141.1 45.31,-228.48 40.94,-278.02"/>
<polygon fill="red" stroke="red" stroke-width="2" points="37.45,-277.74 40.1,-287.99 44.42,-278.32 37.45,-277.74"/>
</a>
</g>
</g>
<!-- Cut7 -->
<g id="node8" class="node">
<title>Cut7</title>
<ellipse fill="none" stroke="black" cx="121.35" cy="-90" rx="27" ry="18"/>
<text text-anchor="middle" x="121.35" y="-86.3" font-family="Times,serif" font-size="14.00">Cut</text>
</g>
<!-- Assign2&#45;&gt;Cut7 -->
<g id="edge54" class="edge">
<title>Assign2&#45;&gt;Cut7</title>
<g id="a_edge54"><a xlink:title="seqBC94">
<path fill="none" stroke="black" d="M121.35,-36.3C121.35,-44.02 121.35,-53.29 121.35,-61.89"/>
<polygon fill="black" stroke="black" points="117.85,-61.9 121.35,-71.9 124.85,-61.9 117.85,-61.9"/>
</a>
</g>
</g>
<!-- Bang3 -->
<g id="node4" class="node">
<title>Bang3</title>
<ellipse fill="none" stroke="black" cx="121.35" cy="-162" rx="29.5" ry="18"/>
<text text-anchor="middle" x="121.35" y="-158.3" font-family="Times,serif" font-size="14.00">Bang</text>
</g>
<!-- PiR5 -->
<g id="node6" class="node">
<title>PiR5</title>
<ellipse fill="none" stroke="black" cx="121.35" cy="-234" rx="27" ry="18"/>
<text text-anchor="middle" x="121.35" y="-230.3" font-family="Times,serif" font-size="14.00">PiR</text>
</g>
<!-- Bang3&#45;&gt;PiR5 -->
<g id="edge32" class="edge">
<title>Bang3&#45;&gt;PiR5</title>
<g id="a_edge32"><a xlink:title="newcut_bseq100">
<path fill="none" stroke="black" d="M115.47,-179.95C114.64,-187.77 114.4,-197.25 114.76,-206.02"/>
<polygon fill="black" stroke="black" points="111.28,-206.49 115.49,-216.21 118.26,-205.99 111.28,-206.49"/>
</a>
</g>
</g>
<!-- Bang3&#45;&gt;PiR5 -->
<g id="edge41" class="edge">
<title>Bang3&#45;&gt;PiR5</title>
<g id="a_edge41"><a xlink:title="newrretf91">
<path fill="none" stroke="red" d="M127.22,-179.95C128.06,-187.77 128.29,-197.25 127.94,-206.02"/>
<polygon fill="red" stroke="red" points="124.43,-205.99 127.21,-216.21 131.41,-206.49 124.43,-205.99"/>
</a>
</g>
</g>
<!-- BangD9 -->
<g id="node10" class="node">
<title>BangD9</title>
<ellipse fill="none" stroke="black" cx="69.35" cy="-762" rx="36" ry="18"/>
<text text-anchor="middle" x="69.35" y="-758.3" font-family="Times,serif" font-size="14.00">BangD</text>
</g>
<!-- Bang4&#45;&gt;BangD9 -->
<g id="edge13" class="edge">
<title>Bang4&#45;&gt;BangD9</title>
<g id="a_edge13"><a xlink:title="hf113">
<path fill="none" stroke="blue" d="M107.67,-705.16C99.59,-713.96 90.18,-725.53 82.6,-735.85"/>
<polygon fill="blue" stroke="blue" points="79.65,-733.95 76.72,-744.14 85.36,-738 79.65,-733.95"/>
</a>
</g>
</g>
<!-- Bang4&#45;&gt;BangD9 -->
<g id="edge33" class="edge">
<title>Bang4&#45;&gt;BangD9</title>
<g id="a_edge33"><a xlink:title="newcut_bseq125">
<path fill="none" stroke="black" d="M117.15,-707.58C110.94,-716.77 102.03,-728.33 93.51,-738.34"/>
<polygon fill="black" stroke="black" points="90.79,-736.13 86.82,-745.96 96.05,-740.75 90.79,-736.13"/>
</a>
</g>
</g>
<!-- Identity20 -->
<g id="node21" class="node">
<title>Identity20</title>
<ellipse fill="none" stroke="black" cx="133.35" cy="-906" rx="38.19" ry="18"/>
<text text-anchor="middle" x="133.35" y="-902.3" font-family="Times,serif" font-size="14.00">Identity</text>
</g>
<!-- Bang4&#45;&gt;Identity20 -->
<g id="edge38" class="edge">
<title>Bang4&#45;&gt;Identity20</title>
<g id="a_edge38"><a xlink:title="newrretf114">
<path fill="none" stroke="red" d="M125.07,-708.15C126.62,-745.16 130.31,-832.81 132.19,-877.61"/>
<polygon fill="red" stroke="red" points="128.7,-877.92 132.62,-887.76 135.7,-877.62 128.7,-877.92"/>
</a>
</g>
</g>
<!-- PiR5&#45;&gt;Dup6 -->
<g id="edge43" class="edge">
<title>PiR5&#45;&gt;Dup6</title>
<g id="a_edge43"><a xlink:title="ret137">
<path fill="none" stroke="red" d="M106.89,-249.28C95.84,-260.2 80.26,-275.59 66.74,-288.95"/>
<polygon fill="none" stroke="red" points="64.14,-286.6 59.49,-296.11 69.06,-291.58 64.14,-286.6"/>
</a>
</g>
</g>
<!-- BangC22 -->
<g id="node23" class="node">
<title>BangC22</title>
<ellipse fill="none" stroke="black" cx="121.35" cy="-318" rx="35.19" ry="18"/>
<text text-anchor="middle" x="121.35" y="-314.3" font-family="Times,serif" font-size="14.00">BangC</text>
</g>
<!-- PiR5&#45;&gt;BangC22 -->
<g id="edge9" class="edge">
<title>PiR5&#45;&gt;BangC22</title>
<g id="a_edge9"><a xlink:title="h136">
<path fill="none" stroke="blue" d="M115.75,-251.99C114.56,-262.87 114.29,-277.24 114.94,-289.71"/>
<polygon fill="blue" stroke="blue" points="111.48,-290.33 115.76,-300.03 118.46,-289.79 111.48,-290.33"/>
</a>
</g>
</g>
<!-- PiR5&#45;&gt;BangC22 -->
<g id="edge48" class="edge">
<title>PiR5&#45;&gt;BangC22</title>
<g id="a_edge48"><a xlink:title="seq135">
<path fill="none" stroke="black" d="M126.94,-251.99C128.13,-262.87 128.4,-277.24 127.75,-289.71"/>
<polygon fill="black" stroke="black" points="124.23,-289.79 126.94,-300.03 131.21,-290.33 124.23,-289.79"/>
</a>
</g>
</g>
<!-- Dup6&#45;&gt;Identity0 -->
<g id="edge46" class="edge">
<title>Dup6&#45;&gt;Identity0</title>
<g id="a_edge46"><a xlink:title="ret42">
<path fill="none" stroke="red" d="M38.35,-348.23C38.35,-379.21 38.35,-429.55 38.35,-473 38.35,-473 38.35,-473 38.35,-547 38.35,-587 38.35,-633.34 38.35,-661.92"/>
<polygon fill="red" stroke="red" points="34.85,-661.95 38.35,-671.95 41.85,-661.95 34.85,-661.95"/>
</a>
</g>
</g>
<!-- Cut7&#45;&gt;Bang3 -->
<g id="edge5" class="edge">
<title>Cut7&#45;&gt;Bang3</title>
<g id="a_edge5"><a xlink:title="dseq20">
<path fill="none" stroke="black" d="M115.51,-107.59C114.64,-115.49 114.39,-125.15 114.76,-134.06"/>
<polygon fill="black" stroke="black" points="111.27,-134.32 115.47,-144.04 118.25,-133.82 111.27,-134.32"/>
</a>
</g>
</g>
<!-- Cut7&#45;&gt;Bang3 -->
<g id="edge36" class="edge">
<title>Cut7&#45;&gt;Bang3</title>
<g id="a_edge36"><a xlink:title="newrret18">
<path fill="none" stroke="red" d="M127.19,-107.59C128.05,-115.49 128.3,-125.15 127.93,-134.06"/>
<polygon fill="red" stroke="red" points="124.44,-133.82 127.23,-144.04 131.43,-134.32 124.44,-133.82"/>
</a>
</g>
</g>
<!-- BangC21 -->
<g id="node22" class="node">
<title>BangC21</title>
<ellipse fill="none" stroke="black" cx="209.35" cy="-318" rx="35.19" ry="18"/>
<text text-anchor="middle" x="209.35" y="-314.3" font-family="Times,serif" font-size="14.00">BangC</text>
</g>
<!-- Cut7&#45;&gt;BangC21 -->
<g id="edge8" class="edge">
<title>Cut7&#45;&gt;BangC21</title>
<g id="a_edge8"><a xlink:title="h132">
<path fill="none" stroke="blue" d="M127.73,-107.72C134.52,-117.71 144.02,-130.96 150.35,-144 174.09,-192.94 188.66,-255.27 198.38,-290.18"/>
<polygon fill="blue" stroke="blue" points="195.1,-291.46 201.24,-300.09 201.83,-289.51 195.1,-291.46"/>
</a>
</g>
</g>
<!-- Cut7&#45;&gt;BangC21 -->
<g id="edge47" class="edge">
<title>Cut7&#45;&gt;BangC21</title>
<g id="a_edge47"><a xlink:title="seq131">
<path fill="none" stroke="black" d="M146.44,-111.1C154.55,-120.59 162.71,-132.38 168.35,-144 191.93,-192.61 206.46,-254.41 210.64,-289.46"/>
<polygon fill="black" stroke="black" points="142.28,-101.35 146.44,-111.09 137.11,-106.07 142.28,-101.35"/>
<polygon fill="black" stroke="black" points="207.2,-290.22 211.63,-299.84 214.17,-289.56 207.2,-290.22"/>
</a>
</g>
</g>
<!-- BangD8 -->
<g id="node9" class="node">
<title>BangD8</title>
<ellipse fill="none" stroke="black" cx="124.35" cy="-474" rx="36" ry="18"/>
<text text-anchor="middle" x="124.35" y="-470.3" font-family="Times,serif" font-size="14.00">BangD</text>
</g>
<!-- PiL10 -->
<g id="node11" class="node">
<title>PiL10</title>
<ellipse fill="none" stroke="black" cx="124.35" cy="-546" rx="27" ry="18"/>
<text text-anchor="middle" x="124.35" y="-542.3" font-family="Times,serif" font-size="14.00">PiL</text>
</g>
<!-- BangD8&#45;&gt;PiL10 -->
<g id="edge16" class="edge">
<title>BangD8&#45;&gt;PiL10</title>
<g id="a_edge16"><a xlink:title="hseq140">
<path fill="none" stroke="black" d="M118.47,-491.94C117.64,-499.76 117.4,-509.25 117.76,-518.02"/>
<polygon fill="black" stroke="black" points="114.28,-518.48 118.49,-528.21 121.26,-517.98 114.28,-518.48"/>
</a>
</g>
</g>
<!-- BangD8&#45;&gt;PiL10 -->
<g id="edge29" class="edge">
<title>BangD8&#45;&gt;PiL10</title>
<g id="a_edge29"><a xlink:title="lval141">
<path fill="none" stroke="blue" d="M130.22,-491.94C131.06,-499.76 131.29,-509.25 130.94,-518.02"/>
<polygon fill="blue" stroke="blue" points="127.43,-517.98 130.21,-528.21 134.41,-518.48 127.43,-517.98"/>
</a>
</g>
</g>
<!-- PiL11 -->
<g id="node12" class="node">
<title>PiL11</title>
<ellipse fill="none" stroke="black" cx="69.35" cy="-834" rx="27" ry="18"/>
<text text-anchor="middle" x="69.35" y="-830.3" font-family="Times,serif" font-size="14.00">PiL</text>
</g>
<!-- BangD9&#45;&gt;PiL11 -->
<g id="edge17" class="edge">
<title>BangD9&#45;&gt;PiL11</title>
<g id="a_edge17"><a xlink:title="hseq143">
<path fill="none" stroke="black" d="M63.47,-779.94C62.64,-787.76 62.4,-797.25 62.76,-806.02"/>
<polygon fill="black" stroke="black" points="59.28,-806.48 63.49,-816.21 66.26,-805.98 59.28,-806.48"/>
</a>
</g>
</g>
<!-- BangD9&#45;&gt;PiL11 -->
<g id="edge30" class="edge">
<title>BangD9&#45;&gt;PiL11</title>
<g id="a_edge30"><a xlink:title="lval144">
<path fill="none" stroke="blue" d="M75.22,-779.94C76.06,-787.76 76.29,-797.25 75.94,-806.02"/>
<polygon fill="blue" stroke="blue" points="72.43,-805.98 75.21,-816.21 79.41,-806.48 72.43,-805.98"/>
</a>
</g>
</g>
<!-- PiL10&#45;&gt;PiL1 -->
<g id="edge20" class="edge">
<title>PiL10&#45;&gt;PiL1</title>
<g id="a_edge20"><a xlink:title="idseq148">
<path fill="none" stroke="black" d="M117.76,-573.81C117.55,-579.04 117.54,-584.53 117.75,-589.78"/>
<polygon fill="black" stroke="black" points="122,-563.84 117.78,-573.56 115.02,-563.33 122,-563.84"/>
<polygon fill="black" stroke="black" points="114.28,-590.31 118.47,-600.04 121.26,-589.82 114.28,-590.31"/>
</a>
</g>
</g>
<!-- PiL10&#45;&gt;PiL1 -->
<g id="edge31" class="edge">
<title>PiL10&#45;&gt;PiL1</title>
<g id="a_edge31"><a xlink:title="lval48">
<path fill="none" stroke="blue" d="M130.19,-563.58C131.05,-571.49 131.3,-581.14 130.93,-590.06"/>
<polygon fill="blue" stroke="blue" points="127.44,-589.82 130.23,-600.04 134.43,-590.31 127.44,-589.82"/>
</a>
</g>
</g>
<!-- Bang12 -->
<g id="node13" class="node">
<title>Bang12</title>
<ellipse fill="none" stroke="black" cx="198.35" cy="-618" rx="29.5" ry="18"/>
<text text-anchor="middle" x="198.35" y="-614.3" font-family="Times,serif" font-size="14.00">Bang</text>
</g>
<!-- PiL10&#45;&gt;Bang12 -->
<g id="edge3" class="edge">
<title>PiL10&#45;&gt;Bang12</title>
<g id="a_edge3"><a xlink:title="dseq146">
<path fill="none" stroke="black" d="M135.05,-562.53C144.66,-572.77 158.8,-586.28 171.36,-597.28"/>
<polygon fill="black" stroke="black" points="169.45,-600.25 179.32,-604.08 173.99,-594.92 169.45,-600.25"/>
</a>
</g>
</g>
<!-- PiL10&#45;&gt;Bang12 -->
<g id="edge34" class="edge">
<title>PiL10&#45;&gt;Bang12</title>
<g id="a_edge34"><a xlink:title="newrret147">
<path fill="none" stroke="red" d="M142.89,-559.51C154.42,-569.06 168.97,-582.48 180.37,-593.95"/>
<polygon fill="red" stroke="red" points="177.88,-596.41 187.35,-601.15 182.9,-591.53 177.88,-596.41"/>
</a>
</g>
</g>
<!-- Bang13 -->
<g id="node14" class="node">
<title>Bang13</title>
<ellipse fill="none" stroke="black" cx="47.35" cy="-906" rx="29.5" ry="18"/>
<text text-anchor="middle" x="47.35" y="-902.3" font-family="Times,serif" font-size="14.00">Bang</text>
</g>
<!-- PiL11&#45;&gt;Bang13 -->
<g id="edge4" class="edge">
<title>PiL11&#45;&gt;Bang13</title>
<g id="a_edge4"><a xlink:title="dseq151">
<path fill="none" stroke="black" d="M58.59,-850.88C55.17,-858.85 51.79,-868.73 49.28,-877.86"/>
<polygon fill="black" stroke="black" points="45.85,-877.16 46.87,-887.7 52.65,-878.82 45.85,-877.16"/>
</a>
</g>
</g>
<!-- PiL11&#45;&gt;Bang13 -->
<g id="edge35" class="edge">
<title>PiL11&#45;&gt;Bang13</title>
<g id="a_edge35"><a xlink:title="newrret152">
<path fill="none" stroke="red" d="M69.82,-852.3C68.09,-860.5 65.16,-870.47 61.88,-879.52"/>
<polygon fill="red" stroke="red" points="58.61,-878.26 58.21,-888.85 65.12,-880.82 58.61,-878.26"/>
</a>
</g>
</g>
<!-- PiL11&#45;&gt;Identity20 -->
<g id="edge21" class="edge">
<title>PiL11&#45;&gt;Identity20</title>
<g id="a_edge21"><a xlink:title="idseq153">
<path fill="none" stroke="black" d="M84.98,-859.15C91.64,-866.92 99.51,-875.47 106.99,-883.07"/>
<polygon fill="black" stroke="black" points="81.08,-848.99 84.78,-858.92 75.7,-853.47 81.08,-848.99"/>
<polygon fill="black" stroke="black" points="104.7,-885.73 114.27,-890.28 109.63,-880.76 104.7,-885.73"/>
</a>
</g>
</g>
<!-- PiL11&#45;&gt;Identity20 -->
<g id="edge27" class="edge">
<title>PiL11&#45;&gt;Identity20</title>
<g id="a_edge27"><a xlink:title="lret154">
<path fill="none" stroke="blue" d="M86.8,-848.16C96.4,-857.25 108.06,-869.61 117.41,-880.48"/>
<polygon fill="blue" stroke="blue" points="114.94,-882.99 124.04,-888.43 120.32,-878.51 114.94,-882.99"/>
</a>
</g>
</g>
<!-- PiR14 -->
<g id="node15" class="node">
<title>PiR14</title>
<ellipse fill="none" stroke="black" cx="198.35" cy="-690" rx="27" ry="18"/>
<text text-anchor="middle" x="198.35" y="-686.3" font-family="Times,serif" font-size="14.00">PiR</text>
</g>
<!-- Bang12&#45;&gt;PiR14 -->
<g id="edge1" class="edge">
<title>Bang12&#45;&gt;PiR14</title>
<g id="a_edge1"><a xlink:title="c_bseq156">
<path fill="none" stroke="black" d="M192.47,-635.94C191.64,-643.76 191.4,-653.25 191.76,-662.02"/>
<polygon fill="black" stroke="black" points="188.28,-662.48 192.49,-672.21 195.26,-661.98 188.28,-662.48"/>
</a>
</g>
</g>
<!-- Bang12&#45;&gt;PiR14 -->
<g id="edge39" class="edge">
<title>Bang12&#45;&gt;PiR14</title>
<g id="a_edge39"><a xlink:title="newrretf157">
<path fill="none" stroke="red" d="M204.22,-635.94C205.06,-643.76 205.29,-653.25 204.94,-662.02"/>
<polygon fill="red" stroke="red" points="201.43,-661.98 204.21,-672.21 208.41,-662.48 201.43,-661.98"/>
</a>
</g>
</g>
<!-- PiR15 -->
<g id="node16" class="node">
<title>PiR15</title>
<ellipse fill="none" stroke="black" cx="47.35" cy="-978" rx="27" ry="18"/>
<text text-anchor="middle" x="47.35" y="-974.3" font-family="Times,serif" font-size="14.00">PiR</text>
</g>
<!-- Bang13&#45;&gt;PiR15 -->
<g id="edge2" class="edge">
<title>Bang13&#45;&gt;PiR15</title>
<g id="a_edge2"><a xlink:title="c_bseq159">
<path fill="none" stroke="black" d="M41.47,-923.94C40.64,-931.76 40.4,-941.25 40.76,-950.02"/>
<polygon fill="black" stroke="black" points="37.28,-950.48 41.49,-960.21 44.26,-949.98 37.28,-950.48"/>
</a>
</g>
</g>
<!-- Bang13&#45;&gt;PiR15 -->
<g id="edge40" class="edge">
<title>Bang13&#45;&gt;PiR15</title>
<g id="a_edge40"><a xlink:title="newrretf160">
<path fill="none" stroke="red" d="M53.22,-923.94C54.06,-931.76 54.29,-941.25 53.94,-950.02"/>
<polygon fill="red" stroke="red" points="50.43,-949.98 53.21,-960.21 57.41,-950.48 50.43,-949.98"/>
</a>
</g>
</g>
<!-- BangD16 -->
<g id="node17" class="node">
<title>BangD16</title>
<ellipse fill="none" stroke="black" cx="198.35" cy="-762" rx="36" ry="18"/>
<text text-anchor="middle" x="198.35" y="-758.3" font-family="Times,serif" font-size="14.00">BangD</text>
</g>
<!-- PiR14&#45;&gt;BangD16 -->
<g id="edge18" class="edge">
<title>PiR14&#45;&gt;BangD16</title>
<g id="a_edge18"><a xlink:title="i163">
<path fill="none" stroke="blue" d="M192.51,-707.58C191.64,-715.49 191.39,-725.14 191.76,-734.06"/>
<polygon fill="blue" stroke="blue" points="188.27,-734.31 192.47,-744.04 195.25,-733.82 188.27,-734.31"/>
</a>
</g>
</g>
<!-- PiR14&#45;&gt;BangD16 -->
<g id="edge49" class="edge">
<title>PiR14&#45;&gt;BangD16</title>
<g id="a_edge49"><a xlink:title="seq162">
<path fill="none" stroke="black" d="M204.19,-707.58C205.05,-715.49 205.3,-725.14 204.93,-734.06"/>
<polygon fill="black" stroke="black" points="201.44,-733.82 204.23,-744.04 208.43,-734.31 201.44,-733.82"/>
</a>
</g>
</g>
<!-- Identity18 -->
<g id="node19" class="node">
<title>Identity18</title>
<ellipse fill="none" stroke="black" cx="199.35" cy="-834" rx="38.19" ry="18"/>
<text text-anchor="middle" x="199.35" y="-830.3" font-family="Times,serif" font-size="14.00">Identity</text>
</g>
<!-- PiR14&#45;&gt;Identity18 -->
<g id="edge44" class="edge">
<title>PiR14&#45;&gt;Identity18</title>
<g id="a_edge44"><a xlink:title="ret164">
<path fill="none" stroke="red" d="M214.55,-704.43C224.98,-714.18 237.6,-728.36 243.35,-744 248.86,-759.01 248.78,-764.95 243.35,-780 239.3,-791.19 231.75,-801.69 224.04,-810.35"/>
<polygon fill="red" stroke="red" points="221.35,-808.09 216.99,-817.74 226.42,-812.91 221.35,-808.09"/>
</a>
</g>
</g>
<!-- BangD17 -->
<g id="node18" class="node">
<title>BangD17</title>
<ellipse fill="none" stroke="black" cx="47.35" cy="-1050" rx="36" ry="18"/>
<text text-anchor="middle" x="47.35" y="-1046.3" font-family="Times,serif" font-size="14.00">BangD</text>
</g>
<!-- PiR15&#45;&gt;BangD17 -->
<g id="edge19" class="edge">
<title>PiR15&#45;&gt;BangD17</title>
<g id="a_edge19"><a xlink:title="i167">
<path fill="none" stroke="blue" d="M41.51,-995.58C40.64,-1003.49 40.39,-1013.14 40.76,-1022.06"/>
<polygon fill="blue" stroke="blue" points="37.27,-1022.31 41.47,-1032.04 44.25,-1021.82 37.27,-1022.31"/>
</a>
</g>
</g>
<!-- PiR15&#45;&gt;BangD17 -->
<g id="edge50" class="edge">
<title>PiR15&#45;&gt;BangD17</title>
<g id="a_edge50"><a xlink:title="seq166">
<path fill="none" stroke="black" d="M53.19,-995.58C54.05,-1003.49 54.3,-1013.14 53.93,-1022.06"/>
<polygon fill="black" stroke="black" points="50.44,-1021.82 53.23,-1032.04 57.43,-1022.31 50.44,-1021.82"/>
</a>
</g>
</g>
<!-- Identity19 -->
<g id="node20" class="node">
<title>Identity19</title>
<ellipse fill="none" stroke="black" cx="47.35" cy="-1122" rx="38.19" ry="18"/>
<text text-anchor="middle" x="47.35" y="-1118.3" font-family="Times,serif" font-size="14.00">Identity</text>
</g>
<!-- PiR15&#45;&gt;Identity19 -->
<g id="edge45" class="edge">
<title>PiR15&#45;&gt;Identity19</title>
<g id="a_edge45"><a xlink:title="ret168">
<path fill="none" stroke="red" d="M63.55,-992.43C73.98,-1002.18 86.6,-1016.36 92.35,-1032 97.86,-1047.01 97.86,-1052.98 92.35,-1068 88.2,-1079.27 80.48,-1089.79 72.59,-1098.44"/>
<polygon fill="red" stroke="red" points="69.86,-1096.22 65.39,-1105.82 74.88,-1101.11 69.86,-1096.22"/>
</a>
</g>
</g>
<!-- BangD16&#45;&gt;Identity18 -->
<g id="edge23" class="edge">
<title>BangD16&#45;&gt;Identity18</title>
<g id="a_edge23"><a xlink:title="iret171">
<path fill="none" stroke="blue" d="M192.71,-779.94C191.99,-787.76 191.89,-797.25 192.37,-806.02"/>
<polygon fill="blue" stroke="blue" points="188.9,-806.54 193.25,-816.21 195.88,-805.94 188.9,-806.54"/>
</a>
</g>
</g>
<!-- BangD16&#45;&gt;Identity18 -->
<g id="edge25" class="edge">
<title>BangD16&#45;&gt;Identity18</title>
<g id="a_edge25"><a xlink:title="iseq170">
<path fill="none" stroke="black" d="M204.47,-779.94C205.4,-787.65 205.77,-796.97 205.56,-805.63"/>
<polygon fill="black" stroke="black" points="202.06,-805.54 205.01,-815.72 209.05,-805.92 202.06,-805.54"/>
</a>
</g>
</g>
<!-- BangD17&#45;&gt;Identity19 -->
<g id="edge24" class="edge">
<title>BangD17&#45;&gt;Identity19</title>
<g id="a_edge24"><a xlink:title="iret174">
<path fill="none" stroke="blue" d="M41.47,-1067.94C40.64,-1075.76 40.4,-1085.25 40.76,-1094.02"/>
<polygon fill="blue" stroke="blue" points="37.28,-1094.48 41.49,-1104.21 44.26,-1093.98 37.28,-1094.48"/>
</a>
</g>
</g>
<!-- BangD17&#45;&gt;Identity19 -->
<g id="edge26" class="edge">
<title>BangD17&#45;&gt;Identity19</title>
<g id="a_edge26"><a xlink:title="iseq173">
<path fill="none" stroke="black" d="M53.22,-1067.94C54.06,-1075.76 54.29,-1085.25 53.94,-1094.02"/>
<polygon fill="black" stroke="black" points="50.43,-1093.98 53.21,-1104.21 57.41,-1094.48 50.43,-1093.98"/>
</a>
</g>
</g>
<!-- Dup23 -->
<g id="node24" class="node">
<title>Dup23</title>
<ellipse fill="none" stroke="black" cx="121.35" cy="-402" rx="27" ry="18"/>
<text text-anchor="middle" x="121.35" y="-398.3" font-family="Times,serif" font-size="14.00">Dup</text>
</g>
<!-- BangC21&#45;&gt;Dup23 -->
<g id="edge52" class="edge">
<title>BangC21&#45;&gt;Dup23</title>
<g id="a_edge52"><a xlink:title="seqBC184">
<path fill="none" stroke="black" d="M193.21,-334.04C179.43,-346.87 159.47,-365.47 144.08,-379.82"/>
<polygon fill="black" stroke="black" points="141.43,-377.5 136.5,-386.87 146.2,-382.62 141.43,-377.5"/>
</a>
</g>
</g>
<!-- Dup24 -->
<g id="node25" class="node">
<title>Dup24</title>
<ellipse fill="none" stroke="black" cx="193.35" cy="-402" rx="27" ry="18"/>
<text text-anchor="middle" x="193.35" y="-398.3" font-family="Times,serif" font-size="14.00">Dup</text>
</g>
<!-- BangC21&#45;&gt;Dup24 -->
<g id="edge14" class="edge">
<title>BangC21&#45;&gt;Dup24</title>
<g id="a_edge14"><a xlink:title="hf185">
<path fill="none" stroke="blue" d="M206.03,-335.99C203.89,-346.98 201.05,-361.53 198.6,-374.08"/>
<polygon fill="blue" stroke="blue" points="195.14,-373.54 196.66,-384.03 202.01,-374.88 195.14,-373.54"/>
</a>
</g>
</g>
<!-- Dup25 -->
<g id="node26" class="node">
<title>Dup25</title>
<ellipse fill="none" stroke="black" cx="265.35" cy="-402" rx="27" ry="18"/>
<text text-anchor="middle" x="265.35" y="-398.3" font-family="Times,serif" font-size="14.00">Dup</text>
</g>
<!-- BangC21&#45;&gt;Dup25 -->
<g id="edge10" class="edge">
<title>BangC21&#45;&gt;Dup25</title>
<g id="a_edge10"><a xlink:title="h186">
<path fill="none" stroke="blue" d="M226.16,-343.62C233.39,-354.21 241.82,-366.55 249,-377.06"/>
<polygon fill="blue" stroke="blue" points="223.3,-333.22 226.05,-343.46 217.52,-337.17 223.3,-333.22"/>
<polygon fill="blue" stroke="blue" points="246.16,-379.1 254.69,-385.39 251.94,-375.15 246.16,-379.1"/>
</a>
</g>
</g>
<!-- BangC22&#45;&gt;Dup23 -->
<g id="edge53" class="edge">
<title>BangC22&#45;&gt;Dup23</title>
<g id="a_edge53"><a xlink:title="seqBC188">
<path fill="none" stroke="black" d="M121.35,-336.39C121.35,-347.22 121.35,-361.4 121.35,-373.7"/>
<polygon fill="none" stroke="black" points="117.85,-373.91 121.35,-383.91 124.85,-373.91 117.85,-373.91"/>
</a>
</g>
</g>
<!-- BangC22&#45;&gt;Dup24 -->
<g id="edge15" class="edge">
<title>BangC22&#45;&gt;Dup24</title>
<g id="a_edge15"><a xlink:title="hf189">
<path fill="none" stroke="blue" d="M135.23,-334.81C146.09,-347.18 161.34,-364.55 173.49,-378.39"/>
<polygon fill="none" stroke="blue" points="171.01,-380.86 180.23,-386.06 176.27,-376.24 171.01,-380.86"/>
</a>
</g>
</g>
<!-- BangC22&#45;&gt;Dup25 -->
<g id="edge11" class="edge">
<title>BangC22&#45;&gt;Dup25</title>
<g id="a_edge11"><a xlink:title="h190">
<path fill="none" stroke="blue" d="M150.33,-338.66C155.29,-341.86 160.43,-345.08 165.35,-348 188.4,-361.66 215.28,-375.81 235.36,-386.05"/>
<polygon fill="blue" stroke="blue" points="143.6,-330.06 150.04,-338.47 139.76,-335.91 143.6,-330.06"/>
<polygon fill="none" stroke="blue" points="233.84,-389.2 244.34,-390.6 237.01,-382.96 233.84,-389.2"/>
</a>
</g>
</g>
<!-- Dup23&#45;&gt;BangD8 -->
<g id="edge51" class="edge">
<title>Dup23&#45;&gt;BangD8</title>
<g id="a_edge51"><a xlink:title="seqBC118">
<path fill="none" stroke="black" d="M122.09,-420.3C122.42,-428.01 122.82,-437.28 123.18,-445.88"/>
<polygon fill="black" stroke="black" points="119.69,-446.05 123.61,-455.89 126.68,-445.75 119.69,-446.05"/>
</a>
</g>
</g>
<!-- Dup24&#45;&gt;BangD8 -->
<g id="edge12" class="edge">
<title>Dup24&#45;&gt;BangD8</title>
<g id="a_edge12"><a xlink:title="hf107">
<path fill="none" stroke="blue" d="M179.05,-417.5C169.68,-427 157.25,-439.61 146.61,-450.41"/>
<polygon fill="blue" stroke="blue" points="144.11,-447.96 139.58,-457.54 149.1,-452.87 144.11,-447.96"/>
</a>
</g>
</g>
<!-- Dup25&#45;&gt;Bang4 -->
<g id="edge7" class="edge">
<title>Dup25&#45;&gt;Bang4</title>
<g id="a_edge7"><a xlink:title="h116">
<path fill="none" stroke="blue" d="M268.32,-419.89C274.62,-461.2 284.97,-568.79 236.35,-636 235.05,-637.79 189.04,-659.22 156.4,-674.28"/>
<polygon fill="blue" stroke="blue" points="154.8,-671.16 147.19,-678.52 157.73,-677.52 154.8,-671.16"/>
</a>
</g>
</g>
</g>
</svg>
