<?xml version="1.0" encoding="UTF-8" standalone="no"?>
<!DOCTYPE svg PUBLIC "-//W3C//DTD SVG 1.1//EN"
 "http://www.w3.org/Graphics/SVG/1.1/DTD/svg11.dtd">
<!-- Generated by graphviz version 2.49.3 (0)
 -->
<!-- Pages: 1 -->
<svg width="379pt" height="1143pt"
 viewBox="0.00 0.00 379.48 1142.80" xmlns="http://www.w3.org/2000/svg" xmlns:xlink="http://www.w3.org/1999/xlink">
<g id="graph0" class="graph" transform="scale(1 1) rotate(0) translate(4 1138.8)">
<polygon fill="white" stroke="transparent" points="-4,4 -4,-1138.8 375.48,-1138.8 375.48,4 -4,4"/>
<!-- Identity0 -->
<g id="node1" class="node">
<title>Identity0</title>
<ellipse fill="none" stroke="black" cx="49.14" cy="-1116.8" rx="38.19" ry="18"/>
<text text-anchor="middle" x="49.14" y="-1113.1" font-family="Times,serif" font-size="14.00">Identity</text>
</g>
<!-- BangD1 -->
<g id="node2" class="node">
<title>BangD1</title>
<ellipse fill="none" stroke="black" cx="49.14" cy="-1044.8" rx="36" ry="18"/>
<text text-anchor="middle" x="49.14" y="-1041.1" font-family="Times,serif" font-size="14.00">BangD</text>
</g>
<!-- BangD1&#45;&gt;Identity0 -->
<g id="edge21" class="edge">
<title>BangD1&#45;&gt;Identity0</title>
<g id="a_edge21"><a xlink:title="iret84">
<path fill="none" stroke="blue" d="M43.26,-1062.74C42.43,-1070.57 42.19,-1080.05 42.55,-1088.82"/>
<polygon fill="blue" stroke="blue" points="39.07,-1089.28 43.28,-1099.01 46.05,-1088.78 39.07,-1089.28"/>
</a>
</g>
</g>
<!-- BangD1&#45;&gt;Identity0 -->
<g id="edge22" class="edge">
<title>BangD1&#45;&gt;Identity0</title>
<g id="a_edge22"><a xlink:title="iseq83">
<path fill="none" stroke="black" d="M55.02,-1062.74C55.85,-1070.57 56.08,-1080.05 55.73,-1088.82"/>
<polygon fill="black" stroke="black" points="52.22,-1088.78 55,-1099.01 59.2,-1089.28 52.22,-1088.78"/>
</a>
</g>
</g>
<!-- PiR2 -->
<g id="node3" class="node">
<title>PiR2</title>
<ellipse fill="none" stroke="black" cx="49.14" cy="-972.8" rx="27" ry="18"/>
<text text-anchor="middle" x="49.14" y="-969.1" font-family="Times,serif" font-size="14.00">PiR</text>
</g>
<!-- PiR2&#45;&gt;Identity0 -->
<g id="edge46" class="edge">
<title>PiR2&#45;&gt;Identity0</title>
<g id="a_edge46"><a xlink:title="ret82">
<path fill="none" stroke="red" d="M32.93,-987.23C22.51,-996.98 9.88,-1011.16 4.14,-1026.8 -1.38,-1041.81 -1.38,-1047.78 4.14,-1062.8 8.28,-1074.07 16,-1084.59 23.9,-1093.24"/>
<polygon fill="red" stroke="red" points="21.61,-1095.91 31.1,-1100.62 26.62,-1091.02 21.61,-1095.91"/>
</a>
</g>
</g>
<!-- PiR2&#45;&gt;BangD1 -->
<g id="edge16" class="edge">
<title>PiR2&#45;&gt;BangD1</title>
<g id="a_edge16"><a xlink:title="i81">
<path fill="none" stroke="blue" d="M43.3,-990.38C42.43,-998.29 42.19,-1007.94 42.55,-1016.86"/>
<polygon fill="blue" stroke="blue" points="39.06,-1017.11 43.26,-1026.84 46.04,-1016.62 39.06,-1017.11"/>
</a>
</g>
</g>
<!-- PiR2&#45;&gt;BangD1 -->
<g id="edge51" class="edge">
<title>PiR2&#45;&gt;BangD1</title>
<g id="a_edge51"><a xlink:title="seq80">
<path fill="none" stroke="black" d="M54.98,-990.38C55.84,-998.29 56.09,-1007.94 55.73,-1016.86"/>
<polygon fill="black" stroke="black" points="52.23,-1016.62 55.02,-1026.84 59.22,-1017.11 52.23,-1016.62"/>
</a>
</g>
</g>
<!-- Bang3 -->
<g id="node4" class="node">
<title>Bang3</title>
<ellipse fill="none" stroke="black" cx="49.14" cy="-900.8" rx="29.5" ry="18"/>
<text text-anchor="middle" x="49.14" y="-897.1" font-family="Times,serif" font-size="14.00">Bang</text>
</g>
<!-- Bang3&#45;&gt;PiR2 -->
<g id="edge4" class="edge">
<title>Bang3&#45;&gt;PiR2</title>
<g id="a_edge4"><a xlink:title="c_bseq79">
<path fill="none" stroke="black" d="M43.26,-918.74C42.43,-926.57 42.19,-936.05 42.55,-944.82"/>
<polygon fill="black" stroke="black" points="39.07,-945.28 43.28,-955.01 46.05,-944.78 39.07,-945.28"/>
</a>
</g>
</g>
<!-- Bang3&#45;&gt;PiR2 -->
<g id="edge40" class="edge">
<title>Bang3&#45;&gt;PiR2</title>
<g id="a_edge40"><a xlink:title="newrretf78">
<path fill="none" stroke="red" d="M55.02,-918.74C55.85,-926.57 56.08,-936.05 55.73,-944.82"/>
<polygon fill="red" stroke="red" points="52.22,-944.78 55,-955.01 59.2,-945.28 52.22,-944.78"/>
</a>
</g>
</g>
<!-- Identity4 -->
<g id="node5" class="node">
<title>Identity4</title>
<ellipse fill="none" stroke="black" cx="135.14" cy="-900.8" rx="38.19" ry="18"/>
<text text-anchor="middle" x="135.14" y="-897.1" font-family="Times,serif" font-size="14.00">Identity</text>
</g>
<!-- PiL5 -->
<g id="node6" class="node">
<title>PiL5</title>
<ellipse fill="none" stroke="black" cx="71.14" cy="-828.8" rx="27" ry="18"/>
<text text-anchor="middle" x="71.14" y="-825.1" font-family="Times,serif" font-size="14.00">PiL</text>
</g>
<!-- PiL5&#45;&gt;Bang3 -->
<g id="edge12" class="edge">
<title>PiL5&#45;&gt;Bang3</title>
<g id="a_edge12"><a xlink:title="dseq76">
<path fill="none" stroke="black" d="M60.38,-845.68C56.96,-853.65 53.58,-863.53 51.07,-872.66"/>
<polygon fill="black" stroke="black" points="47.64,-871.96 48.66,-882.5 54.44,-873.62 47.64,-871.96"/>
</a>
</g>
</g>
<!-- PiL5&#45;&gt;Bang3 -->
<g id="edge35" class="edge">
<title>PiL5&#45;&gt;Bang3</title>
<g id="a_edge35"><a xlink:title="newrret74">
<path fill="none" stroke="red" d="M71.61,-847.1C69.88,-855.31 66.95,-865.27 63.67,-874.32"/>
<polygon fill="red" stroke="red" points="60.4,-873.06 60,-883.65 66.92,-875.62 60.4,-873.06"/>
</a>
</g>
</g>
<!-- PiL5&#45;&gt;Identity4 -->
<g id="edge20" class="edge">
<title>PiL5&#45;&gt;Identity4</title>
<g id="a_edge20"><a xlink:title="idseq77">
<path fill="none" stroke="black" d="M86.77,-853.95C93.43,-861.72 101.3,-870.27 108.78,-877.87"/>
<polygon fill="black" stroke="black" points="82.87,-843.79 86.58,-853.72 77.49,-848.27 82.87,-843.79"/>
<polygon fill="black" stroke="black" points="106.49,-880.53 116.06,-885.08 111.42,-875.56 106.49,-880.53"/>
</a>
</g>
</g>
<!-- PiL5&#45;&gt;Identity4 -->
<g id="edge26" class="edge">
<title>PiL5&#45;&gt;Identity4</title>
<g id="a_edge26"><a xlink:title="lret75">
<path fill="none" stroke="blue" d="M88.59,-842.96C98.19,-852.05 109.85,-864.41 119.2,-875.28"/>
<polygon fill="blue" stroke="blue" points="116.73,-877.79 125.83,-883.23 122.11,-873.31 116.73,-877.79"/>
</a>
</g>
</g>
<!-- BangD6 -->
<g id="node7" class="node">
<title>BangD6</title>
<ellipse fill="none" stroke="black" cx="71.14" cy="-756.8" rx="36" ry="18"/>
<text text-anchor="middle" x="71.14" y="-753.1" font-family="Times,serif" font-size="14.00">BangD</text>
</g>
<!-- BangD6&#45;&gt;PiL5 -->
<g id="edge15" class="edge">
<title>BangD6&#45;&gt;PiL5</title>
<g id="a_edge15"><a xlink:title="hseq72">
<path fill="none" stroke="black" d="M65.26,-774.74C64.43,-782.57 64.19,-792.05 64.55,-800.82"/>
<polygon fill="black" stroke="black" points="61.07,-801.28 65.28,-811.01 68.05,-800.78 61.07,-801.28"/>
</a>
</g>
</g>
<!-- BangD6&#45;&gt;PiL5 -->
<g id="edge30" class="edge">
<title>BangD6&#45;&gt;PiL5</title>
<g id="a_edge30"><a xlink:title="lval70">
<path fill="none" stroke="blue" d="M77.02,-774.74C77.85,-782.57 78.08,-792.05 77.73,-800.82"/>
<polygon fill="blue" stroke="blue" points="74.22,-800.78 77,-811.01 81.2,-801.28 74.22,-800.78"/>
</a>
</g>
</g>
<!-- Bang7 -->
<g id="node8" class="node">
<title>Bang7</title>
<ellipse fill="none" stroke="black" cx="71.14" cy="-684.8" rx="29.5" ry="18"/>
<text text-anchor="middle" x="71.14" y="-681.1" font-family="Times,serif" font-size="14.00">Bang</text>
</g>
<!-- Bang7&#45;&gt;Identity4 -->
<g id="edge39" class="edge">
<title>Bang7&#45;&gt;Identity4</title>
<g id="a_edge39"><a xlink:title="newrretf66">
<path fill="none" stroke="red" d="M87.21,-699.89C97.29,-709.73 109.58,-723.74 116.14,-738.8 135.22,-782.61 137.35,-839.14 136.62,-872.23"/>
<polygon fill="red" stroke="red" points="133.11,-872.4 136.28,-882.51 140.1,-872.63 133.11,-872.4"/>
</a>
</g>
</g>
<!-- Bang7&#45;&gt;BangD6 -->
<g id="edge3" class="edge">
<title>Bang7&#45;&gt;BangD6</title>
<g id="a_edge3"><a xlink:title="c_bseq67">
<path fill="none" stroke="black" d="M65.26,-702.74C64.43,-710.57 64.19,-720.05 64.55,-728.82"/>
<polygon fill="black" stroke="black" points="61.07,-729.28 65.28,-739.01 68.05,-728.78 61.07,-729.28"/>
</a>
</g>
</g>
<!-- Bang7&#45;&gt;BangD6 -->
<g id="edge14" class="edge">
<title>Bang7&#45;&gt;BangD6</title>
<g id="a_edge14"><a xlink:title="hf65">
<path fill="none" stroke="blue" d="M77.02,-702.74C77.85,-710.57 78.08,-720.05 77.73,-728.82"/>
<polygon fill="blue" stroke="blue" points="74.22,-728.78 77,-739.01 81.2,-729.28 74.22,-728.78"/>
</a>
</g>
</g>
<!-- Identity8 -->
<g id="node9" class="node">
<title>Identity8</title>
<ellipse fill="none" stroke="black" cx="157.14" cy="-684.8" rx="38.19" ry="18"/>
<text text-anchor="middle" x="157.14" y="-681.1" font-family="Times,serif" font-size="14.00">Identity</text>
</g>
<!-- PiL9 -->
<g id="node10" class="node">
<title>PiL9</title>
<ellipse fill="none" stroke="black" cx="157.14" cy="-612.8" rx="27" ry="18"/>
<text text-anchor="middle" x="157.14" y="-609.1" font-family="Times,serif" font-size="14.00">PiL</text>
</g>
<!-- PiL9&#45;&gt;Bang7 -->
<g id="edge11" class="edge">
<title>PiL9&#45;&gt;Bang7</title>
<g id="a_edge11"><a xlink:title="dseq63">
<path fill="none" stroke="black" d="M137.77,-625.35C124.04,-635.22 105.88,-649.69 91.88,-661.76"/>
<polygon fill="black" stroke="black" points="89.38,-659.31 84.19,-668.54 94.01,-664.56 89.38,-659.31"/>
</a>
</g>
</g>
<!-- PiL9&#45;&gt;Bang7 -->
<g id="edge34" class="edge">
<title>PiL9&#45;&gt;Bang7</title>
<g id="a_edge34"><a xlink:title="newrret61">
<path fill="none" stroke="red" d="M144.15,-628.98C132.21,-639.77 114.46,-654.31 99.37,-665.7"/>
<polygon fill="red" stroke="red" points="97.27,-662.9 91.31,-671.66 101.43,-668.53 97.27,-662.9"/>
</a>
</g>
</g>
<!-- PiL9&#45;&gt;Identity8 -->
<g id="edge19" class="edge">
<title>PiL9&#45;&gt;Identity8</title>
<g id="a_edge19"><a xlink:title="idseq64">
<path fill="none" stroke="black" d="M150.55,-640.61C150.34,-645.84 150.33,-651.33 150.54,-656.58"/>
<polygon fill="black" stroke="black" points="154.79,-630.64 150.57,-640.36 147.81,-630.13 154.79,-630.64"/>
<polygon fill="black" stroke="black" points="147.07,-657.11 151.26,-666.84 154.05,-656.62 147.07,-657.11"/>
</a>
</g>
</g>
<!-- PiL9&#45;&gt;Identity8 -->
<g id="edge25" class="edge">
<title>PiL9&#45;&gt;Identity8</title>
<g id="a_edge25"><a xlink:title="lret62">
<path fill="none" stroke="blue" d="M162.98,-630.38C163.84,-638.29 164.09,-647.94 163.73,-656.86"/>
<polygon fill="blue" stroke="blue" points="160.23,-656.62 163.02,-666.84 167.22,-657.11 160.23,-656.62"/>
</a>
</g>
</g>
<!-- Identity10 -->
<g id="node11" class="node">
<title>Identity10</title>
<ellipse fill="none" stroke="black" cx="333.14" cy="-1044.8" rx="38.19" ry="18"/>
<text text-anchor="middle" x="333.14" y="-1041.1" font-family="Times,serif" font-size="14.00">Identity</text>
</g>
<!-- BangD11 -->
<g id="node12" class="node">
<title>BangD11</title>
<ellipse fill="none" stroke="black" cx="333.14" cy="-972.8" rx="36" ry="18"/>
<text text-anchor="middle" x="333.14" y="-969.1" font-family="Times,serif" font-size="14.00">BangD</text>
</g>
<!-- BangD11&#45;&gt;Identity10 -->
<g id="edge60" class="edge">
<title>BangD11&#45;&gt;Identity10</title>
<g id="a_edge60"><a xlink:title="yret60">
<path fill="none" stroke="blue" d="M327.26,-990.74C326.43,-998.57 326.19,-1008.05 326.55,-1016.82"/>
<polygon fill="blue" stroke="blue" points="323.07,-1017.28 327.28,-1027.01 330.05,-1016.78 323.07,-1017.28"/>
</a>
</g>
</g>
<!-- BangD11&#45;&gt;Identity10 -->
<g id="edge62" class="edge">
<title>BangD11&#45;&gt;Identity10</title>
<g id="a_edge62"><a xlink:title="yseq59">
<path fill="none" stroke="black" d="M339.02,-990.74C339.85,-998.57 340.08,-1008.05 339.73,-1016.82"/>
<polygon fill="black" stroke="black" points="336.22,-1016.78 339,-1027.01 343.2,-1017.28 336.22,-1016.78"/>
</a>
</g>
</g>
<!-- Bang12 -->
<g id="node13" class="node">
<title>Bang12</title>
<ellipse fill="none" stroke="black" cx="333.14" cy="-900.8" rx="29.5" ry="18"/>
<text text-anchor="middle" x="333.14" y="-897.1" font-family="Times,serif" font-size="14.00">Bang</text>
</g>
<!-- Bang12&#45;&gt;Identity10 -->
<g id="edge38" class="edge">
<title>Bang12&#45;&gt;Identity10</title>
<g id="a_edge38"><a xlink:title="newrretf57">
<path fill="none" stroke="red" d="M316.47,-915.66C306.14,-925.39 293.8,-939.39 288.14,-954.8 282.62,-969.81 282.62,-975.78 288.14,-990.8 292.28,-1002.07 300,-1012.59 307.9,-1021.24"/>
<polygon fill="red" stroke="red" points="305.61,-1023.91 315.1,-1028.62 310.62,-1019.02 305.61,-1023.91"/>
</a>
</g>
</g>
<!-- Bang12&#45;&gt;BangD11 -->
<g id="edge2" class="edge">
<title>Bang12&#45;&gt;BangD11</title>
<g id="a_edge2"><a xlink:title="c_bseq58">
<path fill="none" stroke="black" d="M327.26,-918.74C326.43,-926.57 326.19,-936.05 326.55,-944.82"/>
<polygon fill="black" stroke="black" points="323.07,-945.28 327.28,-955.01 330.05,-944.78 323.07,-945.28"/>
</a>
</g>
</g>
<!-- Bang12&#45;&gt;BangD11 -->
<g id="edge59" class="edge">
<title>Bang12&#45;&gt;BangD11</title>
<g id="a_edge59"><a xlink:title="yBf56">
<path fill="none" stroke="blue" d="M339.02,-918.74C339.85,-926.57 340.08,-936.05 339.73,-944.82"/>
<polygon fill="blue" stroke="blue" points="336.22,-944.78 339,-955.01 343.2,-945.28 336.22,-944.78"/>
</a>
</g>
</g>
<!-- Identity13 -->
<g id="node14" class="node">
<title>Identity13</title>
<ellipse fill="none" stroke="black" cx="247.14" cy="-900.8" rx="38.19" ry="18"/>
<text text-anchor="middle" x="247.14" y="-897.1" font-family="Times,serif" font-size="14.00">Identity</text>
</g>
<!-- PiL14 -->
<g id="node15" class="node">
<title>PiL14</title>
<ellipse fill="none" stroke="black" cx="287.14" cy="-828.8" rx="27" ry="18"/>
<text text-anchor="middle" x="287.14" y="-825.1" font-family="Times,serif" font-size="14.00">PiL</text>
</g>
<!-- PiL14&#45;&gt;Bang12 -->
<g id="edge10" class="edge">
<title>PiL14&#45;&gt;Bang12</title>
<g id="a_edge10"><a xlink:title="dseq54">
<path fill="none" stroke="black" d="M292.39,-846.74C297.36,-855.75 304.56,-866.97 311.61,-876.76"/>
<polygon fill="black" stroke="black" points="308.92,-879 317.71,-884.91 314.52,-874.8 308.92,-879"/>
</a>
</g>
</g>
<!-- PiL14&#45;&gt;Bang12 -->
<g id="edge33" class="edge">
<title>PiL14&#45;&gt;Bang12</title>
<g id="a_edge33"><a xlink:title="newrret52">
<path fill="none" stroke="red" d="M301.99,-843.96C308.8,-852.59 316.54,-863.87 322.74,-874.03"/>
<polygon fill="red" stroke="red" points="319.87,-876.06 327.93,-882.94 325.92,-872.53 319.87,-876.06"/>
</a>
</g>
</g>
<!-- PiL14&#45;&gt;Identity13 -->
<g id="edge18" class="edge">
<title>PiL14&#45;&gt;Identity13</title>
<g id="a_edge18"><a xlink:title="idseq55">
<path fill="none" stroke="black" d="M267.61,-852.79C263.33,-859.53 259.05,-866.94 255.42,-873.85"/>
<polygon fill="black" stroke="black" points="276.17,-846.24 267.72,-852.63 270.34,-842.36 276.17,-846.24"/>
<polygon fill="black" stroke="black" points="252.26,-872.33 250.94,-882.85 258.53,-875.45 252.26,-872.33"/>
</a>
</g>
</g>
<!-- PiL14&#45;&gt;Identity13 -->
<g id="edge24" class="edge">
<title>PiL14&#45;&gt;Identity13</title>
<g id="a_edge24"><a xlink:title="lret53">
<path fill="none" stroke="blue" d="M283.33,-846.74C279.34,-855.33 273.49,-865.91 267.57,-875.36"/>
<polygon fill="blue" stroke="blue" points="264.48,-873.68 261.94,-883.97 270.34,-877.52 264.48,-873.68"/>
</a>
</g>
</g>
<!-- BangD15 -->
<g id="node16" class="node">
<title>BangD15</title>
<ellipse fill="none" stroke="black" cx="287.14" cy="-756.8" rx="36" ry="18"/>
<text text-anchor="middle" x="287.14" y="-753.1" font-family="Times,serif" font-size="14.00">BangD</text>
</g>
<!-- BangD15&#45;&gt;PiL14 -->
<g id="edge29" class="edge">
<title>BangD15&#45;&gt;PiL14</title>
<g id="a_edge29"><a xlink:title="lval48">
<path fill="none" stroke="blue" d="M281.26,-774.74C280.43,-782.57 280.19,-792.05 280.55,-800.82"/>
<polygon fill="blue" stroke="blue" points="277.07,-801.28 281.28,-811.01 284.05,-800.78 277.07,-801.28"/>
</a>
</g>
</g>
<!-- BangD15&#45;&gt;PiL14 -->
<g id="edge61" class="edge">
<title>BangD15&#45;&gt;PiL14</title>
<g id="a_edge61"><a xlink:title="yseq50">
<path fill="none" stroke="black" d="M293.02,-774.74C293.85,-782.57 294.08,-792.05 293.73,-800.82"/>
<polygon fill="black" stroke="black" points="290.22,-800.78 293,-811.01 297.2,-801.28 290.22,-800.78"/>
</a>
</g>
</g>
<!-- BangC16 -->
<g id="node17" class="node">
<title>BangC16</title>
<ellipse fill="none" stroke="black" cx="287.14" cy="-684.8" rx="35.19" ry="18"/>
<text text-anchor="middle" x="287.14" y="-681.1" font-family="Times,serif" font-size="14.00">BangC</text>
</g>
<!-- BangC16&#45;&gt;Bang12 -->
<g id="edge58" class="edge">
<title>BangC16&#45;&gt;Bang12</title>
<g id="a_edge58"><a xlink:title="yB44">
<path fill="none" stroke="blue" d="M311.73,-707.7C319.83,-716.47 327.85,-727.24 332.14,-738.8 348.64,-783.3 343.69,-839.6 338.49,-872.47"/>
<polygon fill="blue" stroke="blue" points="307.18,-698.08 311.7,-707.67 302.19,-702.99 307.18,-698.08"/>
<polygon fill="blue" stroke="blue" points="334.98,-872.22 336.74,-882.66 341.88,-873.4 334.98,-872.22"/>
</a>
</g>
</g>
<!-- BangC16&#45;&gt;BangD15 -->
<g id="edge50" class="edge">
<title>BangC16&#45;&gt;BangD15</title>
<g id="a_edge50"><a xlink:title="seq45">
<path fill="none" stroke="black" d="M281.26,-702.74C280.43,-710.57 280.19,-720.05 280.55,-728.82"/>
<polygon fill="black" stroke="black" points="277.07,-729.28 281.28,-739.01 284.05,-728.78 277.07,-729.28"/>
</a>
</g>
</g>
<!-- BangC16&#45;&gt;BangD15 -->
<g id="edge57" class="edge">
<title>BangC16&#45;&gt;BangD15</title>
<g id="a_edge57"><a xlink:title="yA43">
<path fill="none" stroke="blue" d="M293.02,-702.74C293.85,-710.57 294.08,-720.05 293.73,-728.82"/>
<polygon fill="blue" stroke="blue" points="290.22,-728.78 293,-739.01 297.2,-729.28 290.22,-728.78"/>
</a>
</g>
</g>
<!-- PiR17 -->
<g id="node18" class="node">
<title>PiR17</title>
<ellipse fill="none" stroke="black" cx="267.14" cy="-612.8" rx="27" ry="18"/>
<text text-anchor="middle" x="267.14" y="-609.1" font-family="Times,serif" font-size="14.00">PiR</text>
</g>
<!-- PiR17&#45;&gt;Identity13 -->
<g id="edge44" class="edge">
<title>PiR17&#45;&gt;Identity13</title>
<g id="a_edge44"><a xlink:title="ret42">
<path fill="none" stroke="red" d="M257.74,-629.89C252.33,-640.1 246.04,-653.78 243.14,-666.8 226.86,-739.75 236.16,-828.77 242.6,-872.66"/>
<polygon fill="red" stroke="red" points="239.14,-873.21 244.12,-882.56 246.06,-872.15 239.14,-873.21"/>
</a>
</g>
</g>
<!-- PiR17&#45;&gt;BangC16 -->
<g id="edge49" class="edge">
<title>PiR17&#45;&gt;BangC16</title>
<g id="a_edge49"><a xlink:title="seq40">
<path fill="none" stroke="black" d="M266.17,-631.1C267.63,-639.1 270.18,-648.78 273.11,-657.64"/>
<polygon fill="black" stroke="black" points="269.86,-658.95 276.54,-667.17 276.45,-656.58 269.86,-658.95"/>
</a>
</g>
</g>
<!-- PiR17&#45;&gt;BangC16 -->
<g id="edge56" class="edge">
<title>PiR17&#45;&gt;BangC16</title>
<g id="a_edge56"><a xlink:title="y41">
<path fill="none" stroke="blue" d="M277.44,-629.68C280.63,-637.65 283.73,-647.53 285.98,-656.66"/>
<polygon fill="blue" stroke="blue" points="282.57,-657.47 288.11,-666.5 289.42,-655.99 282.57,-657.47"/>
</a>
</g>
</g>
<!-- Cut18 -->
<g id="node19" class="node">
<title>Cut18</title>
<ellipse fill="none" stroke="black" cx="157.14" cy="-540.8" rx="27" ry="18"/>
<text text-anchor="middle" x="157.14" y="-537.1" font-family="Times,serif" font-size="14.00">Cut</text>
</g>
<!-- Cut18&#45;&gt;PiL9 -->
<g id="edge7" class="edge">
<title>Cut18&#45;&gt;PiL9</title>
<g id="a_edge7"><a xlink:title="c_lseq36">
<path fill="none" stroke="black" d="M150.55,-568.61C150.34,-573.84 150.33,-579.33 150.54,-584.58"/>
<polygon fill="black" stroke="black" points="154.79,-558.64 150.57,-568.36 147.81,-558.13 154.79,-558.64"/>
<polygon fill="black" stroke="black" points="147.07,-585.11 151.26,-594.84 154.05,-584.62 147.07,-585.11"/>
</a>
</g>
</g>
<!-- Cut18&#45;&gt;PiL9 -->
<g id="edge28" class="edge">
<title>Cut18&#45;&gt;PiL9</title>
<g id="a_edge28"><a xlink:title="lval38">
<path fill="none" stroke="blue" d="M162.98,-558.38C163.84,-566.29 164.09,-575.94 163.73,-584.86"/>
<polygon fill="blue" stroke="blue" points="160.23,-584.62 163.02,-594.84 167.22,-585.11 160.23,-584.62"/>
</a>
</g>
</g>
<!-- Cut18&#45;&gt;PiR17 -->
<g id="edge8" class="edge">
<title>Cut18&#45;&gt;PiR17</title>
<g id="a_edge8"><a xlink:title="c_rseq37">
<path fill="none" stroke="black" d="M173.37,-555.63C190.21,-567.36 216.56,-584.17 237.14,-596.34"/>
<polygon fill="black" stroke="black" points="235.45,-599.4 245.85,-601.41 238.97,-593.35 235.45,-599.4"/>
</a>
</g>
</g>
<!-- Cut18&#45;&gt;PiR17 -->
<g id="edge47" class="edge">
<title>Cut18&#45;&gt;PiR17</title>
<g id="a_edge47"><a xlink:title="rval39">
<path fill="none" stroke="red" d="M178.32,-552.12C196.81,-562.68 223.35,-579.32 242.7,-592.35"/>
<polygon fill="red" stroke="red" points="240.8,-595.29 251.03,-598.05 244.75,-589.51 240.8,-595.29"/>
</a>
</g>
</g>
<!-- PiR19 -->
<g id="node20" class="node">
<title>PiR19</title>
<ellipse fill="none" stroke="black" cx="157.14" cy="-468.8" rx="27" ry="18"/>
<text text-anchor="middle" x="157.14" y="-465.1" font-family="Times,serif" font-size="14.00">PiR</text>
</g>
<!-- PiR19&#45;&gt;Bang7 -->
<g id="edge13" class="edge">
<title>PiR19&#45;&gt;Bang7</title>
<g id="a_edge13"><a xlink:title="h34">
<path fill="none" stroke="blue" d="M144.81,-485.28C137.17,-495.48 127.61,-509.37 121.14,-522.8 99.57,-567.57 84.62,-623.78 76.99,-656.56"/>
<polygon fill="blue" stroke="blue" points="73.48,-656.2 74.69,-666.73 80.31,-657.75 73.48,-656.2"/>
</a>
</g>
</g>
<!-- PiR19&#45;&gt;Identity8 -->
<g id="edge43" class="edge">
<title>PiR19&#45;&gt;Identity8</title>
<g id="a_edge43"><a xlink:title="ret35">
<path fill="none" stroke="red" d="M170.89,-484.73C179.1,-494.7 188.76,-508.55 193.14,-522.8 207.25,-568.68 207.25,-584.92 193.14,-630.8 189.95,-641.16 183.97,-651.32 177.78,-659.92"/>
<polygon fill="red" stroke="red" points="174.93,-657.89 171.63,-667.96 180.49,-662.15 174.93,-657.89"/>
</a>
</g>
</g>
<!-- PiR19&#45;&gt;Cut18 -->
<g id="edge48" class="edge">
<title>PiR19&#45;&gt;Cut18</title>
<g id="a_edge48"><a xlink:title="seq33">
<path fill="none" stroke="black" d="M157.14,-487.1C157.14,-494.81 157.14,-504.08 157.14,-512.68"/>
<polygon fill="black" stroke="black" points="153.64,-512.69 157.14,-522.69 160.64,-512.69 153.64,-512.69"/>
</a>
</g>
</g>
<!-- Identity20 -->
<g id="node21" class="node">
<title>Identity20</title>
<ellipse fill="none" stroke="black" cx="240.14" cy="-396.8" rx="38.19" ry="18"/>
<text text-anchor="middle" x="240.14" y="-393.1" font-family="Times,serif" font-size="14.00">Identity</text>
</g>
<!-- Identity21 -->
<g id="node22" class="node">
<title>Identity21</title>
<ellipse fill="none" stroke="black" cx="300.14" cy="-234" rx="38.19" ry="18"/>
<text text-anchor="middle" x="300.14" y="-230.3" font-family="Times,serif" font-size="14.00">Identity</text>
</g>
<!-- PiL22 -->
<g id="node23" class="node">
<title>PiL22</title>
<ellipse fill="none" stroke="black" cx="214.14" cy="-162" rx="27" ry="18"/>
<text text-anchor="middle" x="214.14" y="-158.3" font-family="Times,serif" font-size="14.00">PiL</text>
</g>
<!-- PiL22&#45;&gt;Identity21 -->
<g id="edge17" class="edge">
<title>PiL22&#45;&gt;Identity21</title>
<g id="a_edge17"><a xlink:title="idseq21">
<path fill="none" stroke="black" d="M234.69,-184.87C245.18,-193.92 258.03,-204.34 269.61,-213.16"/>
<polygon fill="black" stroke="black" points="229.43,-175.56 234.62,-184.8 224.8,-180.81 229.43,-175.56"/>
<polygon fill="black" stroke="black" points="267.67,-216.08 277.77,-219.26 271.86,-210.47 267.67,-216.08"/>
</a>
</g>
</g>
<!-- PiL22&#45;&gt;Identity21 -->
<g id="edge23" class="edge">
<title>PiL22&#45;&gt;Identity21</title>
<g id="a_edge23"><a xlink:title="lret19">
<path fill="none" stroke="blue" d="M233.5,-174.56C246.96,-184.23 264.68,-198.33 278.56,-210.25"/>
<polygon fill="blue" stroke="blue" points="276.39,-213.01 286.22,-216.97 281.01,-207.75 276.39,-213.01"/>
</a>
</g>
</g>
<!-- Bang27 -->
<g id="node28" class="node">
<title>Bang27</title>
<ellipse fill="none" stroke="black" cx="214.14" cy="-234" rx="29.5" ry="18"/>
<text text-anchor="middle" x="214.14" y="-230.3" font-family="Times,serif" font-size="14.00">Bang</text>
</g>
<!-- PiL22&#45;&gt;Bang27 -->
<g id="edge9" class="edge">
<title>PiL22&#45;&gt;Bang27</title>
<g id="a_edge9"><a xlink:title="dseq20">
<path fill="none" stroke="black" d="M208.3,-179.59C207.43,-187.49 207.19,-197.15 207.55,-206.06"/>
<polygon fill="black" stroke="black" points="204.06,-206.32 208.26,-216.04 211.04,-205.82 204.06,-206.32"/>
</a>
</g>
</g>
<!-- PiL22&#45;&gt;Bang27 -->
<g id="edge32" class="edge">
<title>PiL22&#45;&gt;Bang27</title>
<g id="a_edge32"><a xlink:title="newrret18">
<path fill="none" stroke="red" d="M219.98,-179.59C220.84,-187.49 221.09,-197.15 220.73,-206.06"/>
<polygon fill="red" stroke="red" points="217.23,-205.82 220.02,-216.04 224.22,-206.32 217.23,-205.82"/>
</a>
</g>
</g>
<!-- Assign23 -->
<g id="node24" class="node">
<title>Assign23</title>
<ellipse fill="none" stroke="black" cx="214.14" cy="-18" rx="35.19" ry="18"/>
<text text-anchor="middle" x="214.14" y="-14.3" font-family="Times,serif" font-size="14.00">Assign</text>
</g>
<!-- Assign23&#45;&gt;Identity21 -->
<g id="edge45" class="edge">
<title>Assign23&#45;&gt;Identity21</title>
<g id="a_edge45"><a xlink:title="ret8">
<path fill="none" stroke="red" d="M226.81,-34.95C234.39,-45.09 243.77,-58.77 250.14,-72 271.7,-116.78 286.66,-172.99 294.28,-205.76"/>
<polygon fill="red" stroke="red" points="290.96,-206.95 296.59,-215.93 297.79,-205.4 290.96,-206.95"/>
</a>
</g>
</g>
<!-- Cut26 -->
<g id="node27" class="node">
<title>Cut26</title>
<ellipse fill="none" stroke="black" cx="214.14" cy="-90" rx="27" ry="18"/>
<text text-anchor="middle" x="214.14" y="-86.3" font-family="Times,serif" font-size="14.00">Cut</text>
</g>
<!-- Assign23&#45;&gt;Cut26 -->
<g id="edge52" class="edge">
<title>Assign23&#45;&gt;Cut26</title>
<g id="a_edge52"><a xlink:title="seqBC94">
<path fill="none" stroke="black" d="M214.14,-36.3C214.14,-44.02 214.14,-53.29 214.14,-61.89"/>
<polygon fill="black" stroke="black" points="210.64,-61.9 214.14,-71.9 217.64,-61.9 210.64,-61.9"/>
</a>
</g>
</g>
<!-- Dup24 -->
<g id="node25" class="node">
<title>Dup24</title>
<ellipse fill="none" stroke="black" cx="157.14" cy="-396.8" rx="27" ry="18"/>
<text text-anchor="middle" x="157.14" y="-393.1" font-family="Times,serif" font-size="14.00">Dup</text>
</g>
<!-- Dup24&#45;&gt;PiR19 -->
<g id="edge1" class="edge">
<title>Dup24&#45;&gt;PiR19</title>
<g id="a_edge1"><a xlink:title="c_bseq32">
<path fill="none" stroke="black" d="M157.14,-415.1C157.14,-422.81 157.14,-432.08 157.14,-440.68"/>
<polygon fill="black" stroke="black" points="153.64,-440.69 157.14,-450.69 160.64,-440.69 153.64,-440.69"/>
</a>
</g>
</g>
<!-- Dup25 -->
<g id="node26" class="node">
<title>Dup25</title>
<ellipse fill="none" stroke="black" cx="85.14" cy="-396.8" rx="27" ry="18"/>
<text text-anchor="middle" x="85.14" y="-393.1" font-family="Times,serif" font-size="14.00">Dup</text>
</g>
<!-- Dup25&#45;&gt;PiR19 -->
<g id="edge37" class="edge">
<title>Dup25&#45;&gt;PiR19</title>
<g id="a_edge37"><a xlink:title="newrretf31">
<path fill="none" stroke="red" d="M99.71,-411.96C109.89,-421.86 123.66,-435.25 135.17,-446.44"/>
<polygon fill="red" stroke="red" points="132.73,-448.95 142.34,-453.41 137.61,-443.93 132.73,-448.95"/>
</a>
</g>
</g>
<!-- Cut26&#45;&gt;PiL22 -->
<g id="edge27" class="edge">
<title>Cut26&#45;&gt;PiL22</title>
<g id="a_edge27"><a xlink:title="lval14">
<path fill="none" stroke="blue" d="M208.3,-107.59C207.43,-115.49 207.19,-125.15 207.55,-134.06"/>
<polygon fill="blue" stroke="blue" points="204.06,-134.32 208.26,-144.04 211.04,-133.82 204.06,-134.32"/>
</a>
</g>
</g>
<!-- Cut26&#45;&gt;PiL22 -->
<g id="edge54" class="edge">
<title>Cut26&#45;&gt;PiL22</title>
<g id="a_edge54"><a xlink:title="xseq16">
<path fill="none" stroke="black" d="M220.72,-117.81C220.94,-123.05 220.94,-128.54 220.74,-133.78"/>
<polygon fill="black" stroke="black" points="223.47,-107.34 220.7,-117.56 216.49,-107.84 223.47,-107.34"/>
<polygon fill="black" stroke="black" points="217.23,-133.82 220.02,-144.04 224.21,-134.31 217.23,-133.82"/>
</a>
</g>
</g>
<!-- Cut26&#45;&gt;Dup24 -->
<g id="edge5" class="edge">
<title>Cut26&#45;&gt;Dup24</title>
<g id="a_edge5"><a xlink:title="c_bseq86">
<path fill="none" stroke="black" d="M200.79,-106.06C192.74,-116.09 183.11,-129.95 178.14,-144 150.59,-221.89 152.21,-321.45 154.99,-368.64"/>
<polygon fill="black" stroke="black" points="151.5,-368.93 155.65,-378.68 158.49,-368.48 151.5,-368.93"/>
</a>
</g>
</g>
<!-- Cut26&#45;&gt;Dup25 -->
<g id="edge41" class="edge">
<title>Cut26&#45;&gt;Dup25</title>
<g id="a_edge41"><a xlink:title="newrretf87">
<path fill="none" stroke="red" d="M198.05,-104.87C187.39,-114.82 173.83,-129.05 165.14,-144 121.39,-219.19 98.56,-321.17 89.66,-368.98"/>
<polygon fill="red" stroke="red" points="86.21,-368.4 87.87,-378.86 93.09,-369.64 86.21,-368.4"/>
</a>
</g>
</g>
<!-- Bang27&#45;&gt;Identity20 -->
<g id="edge36" class="edge">
<title>Bang27&#45;&gt;Identity20</title>
<g id="a_edge36"><a xlink:title="newrretf23">
<path fill="none" stroke="red" d="M227.89,-249.93C236.1,-259.9 245.76,-273.75 250.14,-288 258.39,-314.83 253.61,-347.04 248.19,-369.23"/>
<polygon fill="red" stroke="red" points="244.8,-368.39 245.62,-378.95 251.56,-370.18 244.8,-368.39"/>
</a>
</g>
</g>
<!-- Cut28 -->
<g id="node29" class="node">
<title>Cut28</title>
<ellipse fill="none" stroke="black" cx="214.14" cy="-315.4" rx="23.31" ry="23.31"/>
<ellipse fill="none" stroke="black" cx="214.14" cy="-315.4" rx="27.3" ry="27.3"/>
<text text-anchor="middle" x="214.14" y="-311.7" font-family="Times,serif" font-size="14.00">Cut</text>
</g>
<!-- Bang27&#45;&gt;Cut28 -->
<g id="edge31" class="edge">
<title>Bang27&#45;&gt;Cut28</title>
<g id="a_edge31"><a xlink:title="newcut_bseq100">
<path fill="none" stroke="black" d="M214.14,-252.23C214.14,-259.7 214.14,-268.76 214.14,-277.62"/>
<polygon fill="black" stroke="black" points="210.64,-277.83 214.14,-287.83 217.64,-277.83 210.64,-277.83"/>
</a>
</g>
</g>
<!-- Cut28&#45;&gt;Identity20 -->
<g id="edge53" class="edge">
<title>Cut28&#45;&gt;Identity20</title>
<g id="a_edge53"><a xlink:title="xret26">
<path fill="none" stroke="blue" stroke-width="2" d="M216.39,-342.84C218.79,-351.62 222,-361.38 225.36,-370.11"/>
<polygon fill="blue" stroke="blue" stroke-width="2" points="222.15,-371.49 229.19,-379.41 228.62,-368.83 222.15,-371.49"/>
</a>
</g>
</g>
<!-- Cut28&#45;&gt;Identity20 -->
<g id="edge55" class="edge">
<title>Cut28&#45;&gt;Identity20</title>
<g id="a_edge55"><a xlink:title="xseq25">
<path fill="none" stroke="black" d="M231.39,-348.8C233.71,-355.3 235.86,-362.07 237.61,-368.38"/>
<polygon fill="black" stroke="black" points="231.12,-338.13 231.37,-348.72 224.57,-340.6 231.12,-338.13"/>
<polygon fill="black" stroke="black" points="234.31,-369.59 240.14,-378.43 241.1,-367.88 234.31,-369.59"/>
</a>
</g>
</g>
<!-- Cut28&#45;&gt;Dup24 -->
<g id="edge6" class="edge">
<title>Cut28&#45;&gt;Dup24</title>
<g id="a_edge6"><a xlink:title="c_bseq90">
<path fill="none" stroke="black" d="M198.56,-338.09C191.07,-348.53 182.07,-361.07 174.37,-371.79"/>
<polygon fill="none" stroke="black" points="171.52,-369.75 168.53,-379.92 177.21,-373.84 171.52,-369.75"/>
</a>
</g>
</g>
<!-- Cut28&#45;&gt;Dup25 -->
<g id="edge42" class="edge">
<title>Cut28&#45;&gt;Dup25</title>
<g id="a_edge42"><a xlink:title="newrretf91">
<path fill="none" stroke="red" d="M191.07,-330.59C169.19,-344.06 136.28,-364.32 112.96,-378.67"/>
<polygon fill="none" stroke="red" points="110.9,-375.83 104.22,-384.05 114.57,-381.79 110.9,-375.83"/>
</a>
</g>
</g>
</g>
</svg>
