<?xml version="1.0" encoding="UTF-8" standalone="no"?>
<!DOCTYPE svg PUBLIC "-//W3C//DTD SVG 1.1//EN"
 "http://www.w3.org/Graphics/SVG/1.1/DTD/svg11.dtd">
<!-- Generated by graphviz version 2.49.3 (0)
 -->
<!-- Pages: 1 -->
<svg width="419pt" height="1292pt"
 viewBox="0.00 0.00 419.00 1292.00" xmlns="http://www.w3.org/2000/svg" xmlns:xlink="http://www.w3.org/1999/xlink">
<g id="graph0" class="graph" transform="scale(1 1) rotate(0) translate(4 1288)">
<polygon fill="white" stroke="transparent" points="-4,4 -4,-1288 415,-1288 415,4 -4,4"/>
<!-- I0 -->
<g id="node1" class="node">
<title>I0</title>
<ellipse fill="none" stroke="black" cx="27" cy="-174" rx="27" ry="18"/>
<text text-anchor="middle" x="27" y="-170.3" font-family="Times,serif" font-size="14.00">I</text>
</g>
<!-- !d1 -->
<g id="node2" class="node">
<title>!d1</title>
<ellipse fill="none" stroke="black" cx="82" cy="-90" rx="27" ry="18"/>
<text text-anchor="middle" x="82" y="-86.3" font-family="Times,serif" font-size="14.00">!d</text>
</g>
<!-- I0&#45;&gt;!d1 -->
<g id="edge8" class="edge">
<title>I0&#45;&gt;!d1</title>
<g id="a_edge8"><a xlink:title="iret84">
<path fill="none" stroke="blue" d="M43.25,-148.77C52.35,-135.2 63.45,-118.66 71.43,-106.76"/>
<polygon fill="blue" stroke="blue" points="40.27,-146.93 37.6,-157.19 46.08,-150.83 40.27,-146.93"/>
</a>
</g>
</g>
<!-- λ2 -->
<g id="node3" class="node">
<title>λ2</title>
<ellipse fill="none" stroke="black" cx="82" cy="-18" rx="27" ry="18"/>
<text text-anchor="middle" x="82" y="-14.3" font-family="Times,serif" font-size="14.00">λ</text>
</g>
<!-- !d1&#45;&gt;λ2 -->
<g id="edge7" class="edge">
<title>!d1&#45;&gt;λ2</title>
<g id="a_edge7"><a xlink:title="i81">
<path fill="none" stroke="blue" d="M82,-61.67C82,-53.05 82,-43.79 82,-36.1"/>
<polygon fill="blue" stroke="blue" points="78.5,-61.7 82,-71.7 85.5,-61.7 78.5,-61.7"/>
</a>
</g>
</g>
<!-- λ2&#45;&gt;I0 -->
<g id="edge29" class="edge">
<title>λ2&#45;&gt;I0</title>
<g id="a_edge29"><a xlink:title="ret82">
<path fill="none" stroke="red" d="M69.14,-34.25C61.28,-44.35 51.68,-58.22 46,-72 36.15,-95.88 31.36,-125.05 29.06,-145.89"/>
<polygon fill="red" stroke="red" points="25.57,-145.66 28.08,-155.95 32.54,-146.34 25.57,-145.66"/>
</a>
</g>
</g>
<!-- !p3 -->
<g id="node4" class="node">
<title>!p3</title>
<ellipse fill="none" stroke="black" cx="154" cy="-90" rx="27" ry="18"/>
<text text-anchor="middle" x="154" y="-86.3" font-family="Times,serif" font-size="14.00">!p</text>
</g>
<!-- !p3&#45;&gt;λ2 -->
<g id="edge24" class="edge">
<title>!p3&#45;&gt;λ2</title>
<g id="a_edge24"><a xlink:title="newrretf78">
<path fill="none" stroke="red" d="M139.43,-74.83C129.25,-64.94 115.48,-51.55 103.97,-40.36"/>
<polygon fill="red" stroke="red" points="106.41,-37.85 96.8,-33.38 101.53,-42.87 106.41,-37.85"/>
</a>
</g>
</g>
<!-- I4 -->
<g id="node5" class="node">
<title>I4</title>
<ellipse fill="none" stroke="black" cx="242" cy="-402" rx="27" ry="18"/>
<text text-anchor="middle" x="242" y="-398.3" font-family="Times,serif" font-size="14.00">I</text>
</g>
<!-- Dup25 -->
<g id="node26" class="node">
<title>Dup25</title>
<ellipse fill="none" stroke="black" cx="204" cy="-330" rx="27" ry="18"/>
<text text-anchor="middle" x="204" y="-326.3" font-family="Times,serif" font-size="14.00">Dup</text>
</g>
<!-- I4&#45;&gt;Dup25 -->
<g id="edge12" class="edge">
<title>I4&#45;&gt;Dup25</title>
<g id="a_edge12"><a xlink:title="lret75">
<path fill="none" stroke="blue" d="M228.27,-375.7C223.1,-366.17 217.36,-355.61 212.77,-347.14"/>
<polygon fill="blue" stroke="blue" points="225.34,-377.64 233.19,-384.76 231.49,-374.3 225.34,-377.64"/>
</a>
</g>
</g>
<!-- I5 -->
<g id="node6" class="node">
<title>I5</title>
<ellipse fill="none" stroke="black" cx="330" cy="-690" rx="27" ry="18"/>
<text text-anchor="middle" x="330" y="-686.3" font-family="Times,serif" font-size="14.00">I</text>
</g>
<!-- @6 -->
<g id="node7" class="node">
<title>@6</title>
<ellipse fill="none" stroke="black" cx="330" cy="-618" rx="27" ry="18"/>
<text text-anchor="middle" x="330" y="-614.3" font-family="Times,serif" font-size="14.00">@</text>
</g>
<!-- I5&#45;&gt;@6 -->
<g id="edge11" class="edge">
<title>I5&#45;&gt;@6</title>
<g id="a_edge11"><a xlink:title="lret53">
<path fill="none" stroke="blue" d="M330,-661.66C330,-653.05 330,-643.79 330,-636.1"/>
<polygon fill="blue" stroke="blue" points="326.5,-661.69 330,-671.69 333.5,-661.69 326.5,-661.69"/>
</a>
</g>
</g>
<!-- Cut11 -->
<g id="node12" class="node">
<title>Cut11</title>
<ellipse fill="none" stroke="black" cx="280" cy="-546" rx="27" ry="18"/>
<text text-anchor="middle" x="280" y="-542.3" font-family="Times,serif" font-size="14.00">Cut</text>
</g>
<!-- @6&#45;&gt;Cut11 -->
<g id="edge15" class="edge">
<title>@6&#45;&gt;Cut11</title>
<g id="a_edge15"><a xlink:title="lval48">
<path fill="none" stroke="blue" d="M312.88,-593.03C305.66,-582.92 297.47,-571.45 291.07,-562.49"/>
<polygon fill="blue" stroke="blue" points="310.24,-595.36 318.9,-601.46 315.94,-591.29 310.24,-595.36"/>
</a>
</g>
</g>
<!-- !p12 -->
<g id="node13" class="node">
<title>!p12</title>
<ellipse fill="none" stroke="black" cx="316" cy="-90" rx="27" ry="18"/>
<text text-anchor="middle" x="316" y="-86.3" font-family="Times,serif" font-size="14.00">!p</text>
</g>
<!-- @6&#45;&gt;!p12 -->
<g id="edge19" class="edge">
<title>@6&#45;&gt;!p12</title>
<g id="a_edge19"><a xlink:title="newrret52">
<path fill="none" stroke="red" d="M330.99,-599.95C332.44,-573.3 335,-520.14 335,-475 335,-475 335,-475 335,-257 335,-207.74 326.64,-150.79 321.01,-118.03"/>
<polygon fill="red" stroke="red" points="324.41,-117.13 319.22,-107.89 317.51,-118.35 324.41,-117.13"/>
</a>
</g>
</g>
<!-- Assign7 -->
<g id="node8" class="node">
<title>Assign7</title>
<ellipse fill="none" stroke="black" cx="250" cy="-834" rx="35.19" ry="18"/>
<text text-anchor="middle" x="250" y="-830.3" font-family="Times,serif" font-size="14.00">Assign</text>
</g>
<!-- Dup16 -->
<g id="node17" class="node">
<title>Dup16</title>
<ellipse fill="none" stroke="black" cx="330" cy="-762" rx="27" ry="18"/>
<text text-anchor="middle" x="330" y="-758.3" font-family="Times,serif" font-size="14.00">Dup</text>
</g>
<!-- Assign7&#45;&gt;Dup16 -->
<g id="edge26" class="edge">
<title>Assign7&#45;&gt;Dup16</title>
<g id="a_edge26"><a xlink:title="ret133">
<path fill="none" stroke="red" d="M266.97,-818.15C278.4,-808.14 293.65,-794.8 306.29,-783.74"/>
<polygon fill="red" stroke="red" points="308.93,-786.09 314.15,-776.87 304.32,-780.82 308.93,-786.09"/>
</a>
</g>
</g>
<!-- !p8 -->
<g id="node9" class="node">
<title>!p8</title>
<ellipse fill="none" stroke="black" cx="292" cy="-906" rx="27" ry="18"/>
<text text-anchor="middle" x="292" y="-902.3" font-family="Times,serif" font-size="14.00">!p</text>
</g>
<!-- λ13 -->
<g id="node14" class="node">
<title>λ13</title>
<ellipse fill="none" stroke="black" cx="330" cy="-834" rx="27" ry="18"/>
<text text-anchor="middle" x="330" y="-830.3" font-family="Times,serif" font-size="14.00">λ</text>
</g>
<!-- !p8&#45;&gt;λ13 -->
<g id="edge25" class="edge">
<title>!p8&#45;&gt;λ13</title>
<g id="a_edge25"><a xlink:title="newrretf91">
<path fill="none" stroke="red" d="M300.81,-888.76C305.42,-880.28 311.16,-869.71 316.32,-860.19"/>
<polygon fill="red" stroke="red" points="319.54,-861.6 321.23,-851.14 313.39,-858.26 319.54,-861.6"/>
</a>
</g>
</g>
<!-- Dup9 -->
<g id="node10" class="node">
<title>Dup9</title>
<ellipse fill="none" stroke="black" cx="280" cy="-474" rx="27" ry="18"/>
<text text-anchor="middle" x="280" y="-470.3" font-family="Times,serif" font-size="14.00">Dup</text>
</g>
<!-- Dup9&#45;&gt;I4 -->
<g id="edge23" class="edge">
<title>Dup9&#45;&gt;I4</title>
<g id="a_edge23"><a xlink:title="newrretf66">
<path fill="none" stroke="red" d="M271.19,-456.76C266.58,-448.28 260.84,-437.71 255.68,-428.19"/>
<polygon fill="red" stroke="red" points="258.61,-426.26 250.77,-419.14 252.46,-429.6 258.61,-426.26"/>
</a>
</g>
</g>
<!-- !c10 -->
<g id="node11" class="node">
<title>!c10</title>
<ellipse fill="none" stroke="black" cx="311" cy="-1122" rx="27" ry="18"/>
<text text-anchor="middle" x="311" y="-1118.3" font-family="Times,serif" font-size="14.00">!c</text>
</g>
<!-- Dup15 -->
<g id="node16" class="node">
<title>Dup15</title>
<ellipse fill="none" stroke="black" cx="311" cy="-1050" rx="27" ry="18"/>
<text text-anchor="middle" x="311" y="-1046.3" font-family="Times,serif" font-size="14.00">Dup</text>
</g>
<!-- !c10&#45;&gt;Dup15 -->
<g id="edge4" class="edge">
<title>!c10&#45;&gt;Dup15</title>
<g id="a_edge4"><a xlink:title="h34">
<path fill="none" stroke="blue" d="M311,-1093.66C311,-1085.05 311,-1075.79 311,-1068.1"/>
<polygon fill="blue" stroke="blue" points="307.5,-1093.69 311,-1103.69 314.5,-1093.69 307.5,-1093.69"/>
</a>
</g>
</g>
<!-- Cut11&#45;&gt;Dup9 -->
<g id="edge21" class="edge">
<title>Cut11&#45;&gt;Dup9</title>
<g id="a_edge21"><a xlink:title="newrretf108">
<path fill="none" stroke="red" d="M280,-527.69C280,-519.98 280,-510.71 280,-502.11"/>
<polygon fill="red" stroke="red" points="283.5,-502.1 280,-492.1 276.5,-502.1 283.5,-502.1"/>
</a>
</g>
</g>
<!-- !p12&#45;&gt;Dup9 -->
<g id="edge22" class="edge">
<title>!p12&#45;&gt;Dup9</title>
<g id="a_edge22"><a xlink:title="newrretf114">
<path fill="none" stroke="red" d="M312.78,-107.89C307.36,-137.82 297,-202.17 297,-257 297,-331 297,-331 297,-331 297,-371.28 290.17,-417.55 285.17,-446.03"/>
<polygon fill="none" stroke="red" points="281.7,-445.56 283.36,-456.02 288.58,-446.81 281.7,-445.56"/>
</a>
</g>
</g>
<!-- !p12&#45;&gt;!c10 -->
<g id="edge1" class="edge">
<title>!p12&#45;&gt;!c10</title>
<g id="a_edge1"><a xlink:title="h116">
<path fill="none" stroke="blue" d="M333.08,-115.04C353.51,-146.22 385,-203.03 385,-257 385,-979 385,-979 385,-979 385,-1025.4 353.53,-1071.67 331.64,-1098.24"/>
<polygon fill="blue" stroke="blue" points="335.88,-112.93 327.39,-106.59 330.07,-116.84 335.88,-112.93"/>
<polygon fill="blue" stroke="blue" points="322.25,-1103.89 331.39,-1098.53 327.59,-1108.42 322.25,-1103.89"/>
</a>
</g>
</g>
<!-- λ13&#45;&gt;Dup16 -->
<g id="edge27" class="edge">
<title>λ13&#45;&gt;Dup16</title>
<g id="a_edge27"><a xlink:title="ret137">
<path fill="none" stroke="red" d="M330,-815.69C330,-807.98 330,-798.71 330,-790.11"/>
<polygon fill="none" stroke="red" points="333.5,-790.1 330,-780.1 326.5,-790.1 333.5,-790.1"/>
</a>
</g>
</g>
<!-- Dup14 -->
<g id="node15" class="node">
<title>Dup14</title>
<ellipse fill="none" stroke="black" cx="240" cy="-1266" rx="27" ry="18"/>
<text text-anchor="middle" x="240" y="-1262.3" font-family="Times,serif" font-size="14.00">Dup</text>
</g>
<!-- Dup15&#45;&gt;λ13 -->
<g id="edge3" class="edge">
<title>Dup15&#45;&gt;λ13</title>
<g id="a_edge3"><a xlink:title="h136">
<path fill="none" stroke="blue" d="M321.19,-1022.53C323.95,-1014.17 326.56,-1004.81 328,-996 336.45,-944.13 333.57,-881.61 331.44,-852.06"/>
<polygon fill="none" stroke="blue" points="317.84,-1021.53 317.83,-1032.13 324.44,-1023.85 317.84,-1021.53"/>
</a>
</g>
</g>
<!-- Cut17 -->
<g id="node18" class="node">
<title>Cut17</title>
<ellipse fill="none" stroke="black" cx="292" cy="-978" rx="27" ry="18"/>
<text text-anchor="middle" x="292" y="-974.3" font-family="Times,serif" font-size="14.00">Cut</text>
</g>
<!-- Dup15&#45;&gt;Cut17 -->
<g id="edge2" class="edge">
<title>Dup15&#45;&gt;Cut17</title>
<g id="a_edge2"><a xlink:title="h132">
<path fill="none" stroke="blue" d="M303.71,-1022.13C301.3,-1013.27 298.7,-1003.67 296.56,-995.78"/>
<polygon fill="blue" stroke="blue" points="300.4,-1023.32 306.4,-1032.05 307.16,-1021.48 300.4,-1023.32"/>
</a>
</g>
</g>
<!-- Dup16&#45;&gt;I5 -->
<g id="edge28" class="edge">
<title>Dup16&#45;&gt;I5</title>
<g id="a_edge28"><a xlink:title="ret42">
<path fill="none" stroke="red" d="M330,-743.69C330,-735.98 330,-726.71 330,-718.11"/>
<polygon fill="red" stroke="red" points="333.5,-718.1 330,-708.1 326.5,-718.1 333.5,-718.1"/>
</a>
</g>
</g>
<!-- Cut17&#45;&gt;!p8 -->
<g id="edge18" class="edge">
<title>Cut17&#45;&gt;!p8</title>
<g id="a_edge18"><a xlink:title="newrret18">
<path fill="none" stroke="red" d="M292,-959.69C292,-951.98 292,-942.71 292,-934.11"/>
<polygon fill="red" stroke="red" points="295.5,-934.1 292,-924.1 288.5,-934.1 295.5,-934.1"/>
</a>
</g>
</g>
<!-- !d18 -->
<g id="node19" class="node">
<title>!d18</title>
<ellipse fill="none" stroke="black" cx="267" cy="-1194" rx="27" ry="18"/>
<text text-anchor="middle" x="267" y="-1190.3" font-family="Times,serif" font-size="14.00">!d</text>
</g>
<!-- !d18&#45;&gt;!c10 -->
<g id="edge5" class="edge">
<title>!d18&#45;&gt;!c10</title>
<g id="a_edge5"><a xlink:title="hf107">
<path fill="none" stroke="blue" d="M282.39,-1168.51C288.59,-1158.66 295.55,-1147.58 301.06,-1138.82"/>
<polygon fill="blue" stroke="blue" points="279.34,-1166.78 276.98,-1177.11 285.27,-1170.51 279.34,-1166.78"/>
</a>
</g>
</g>
<!-- !d19 -->
<g id="node20" class="node">
<title>!d19</title>
<ellipse fill="none" stroke="black" cx="238" cy="-174" rx="27" ry="18"/>
<text text-anchor="middle" x="238" y="-170.3" font-family="Times,serif" font-size="14.00">!d</text>
</g>
<!-- !d19&#45;&gt;!p12 -->
<g id="edge6" class="edge">
<title>!d19&#45;&gt;!p12</title>
<g id="a_edge6"><a xlink:title="hf113">
<path fill="none" stroke="blue" d="M259.1,-150.81C272.79,-136.42 290.23,-118.09 302.18,-105.53"/>
<polygon fill="blue" stroke="blue" points="256.3,-148.68 251.94,-158.34 261.37,-153.5 256.3,-148.68"/>
</a>
</g>
</g>
<!-- @20 -->
<g id="node21" class="node">
<title>@20</title>
<ellipse fill="none" stroke="black" cx="168" cy="-1266" rx="27" ry="18"/>
<text text-anchor="middle" x="168" y="-1262.3" font-family="Times,serif" font-size="14.00">@</text>
</g>
<!-- @20&#45;&gt;!d18 -->
<g id="edge13" class="edge">
<title>@20&#45;&gt;!d18</title>
<g id="a_edge13"><a xlink:title="lval141">
<path fill="none" stroke="blue" d="M194.66,-1246.14C211.87,-1233.98 233.78,-1218.48 248.96,-1207.75"/>
<polygon fill="blue" stroke="blue" points="192.3,-1243.53 186.16,-1252.16 196.34,-1249.24 192.3,-1243.53"/>
</a>
</g>
</g>
<!-- Dup23 -->
<g id="node24" class="node">
<title>Dup23</title>
<ellipse fill="none" stroke="black" cx="154" cy="-174" rx="26" ry="26"/>
<ellipse fill="none" stroke="black" cx="154" cy="-174" rx="30" ry="30"/>
<text text-anchor="middle" x="154" y="-170.3" font-family="Times,serif" font-size="14.00">Dup</text>
</g>
<!-- @20&#45;&gt;Dup23 -->
<g id="edge16" class="edge">
<title>@20&#45;&gt;Dup23</title>
<g id="a_edge16"><a xlink:title="newrret147">
<path fill="none" stroke="red" d="M164.25,-1248.04C158.71,-1221.52 149,-1168.51 149,-1123 149,-1123 149,-1123 149,-329 149,-289.94 150.63,-245.35 152.02,-214.23"/>
<polygon fill="red" stroke="red" points="155.52,-214.38 152.49,-204.22 148.53,-214.05 155.52,-214.38"/>
</a>
</g>
</g>
<!-- @21 -->
<g id="node22" class="node">
<title>@21</title>
<ellipse fill="none" stroke="black" cx="204" cy="-258" rx="27" ry="18"/>
<text text-anchor="middle" x="204" y="-254.3" font-family="Times,serif" font-size="14.00">@</text>
</g>
<!-- @21&#45;&gt;!d19 -->
<g id="edge14" class="edge">
<title>@21&#45;&gt;!d19</title>
<g id="a_edge14"><a xlink:title="lval144">
<path fill="none" stroke="blue" d="M214.75,-231.07C220.11,-218.15 226.43,-202.9 231.13,-191.57"/>
<polygon fill="blue" stroke="blue" points="211.48,-229.82 210.88,-240.4 217.94,-232.51 211.48,-229.82"/>
</a>
</g>
</g>
<!-- @21&#45;&gt;Dup23 -->
<g id="edge17" class="edge">
<title>@21&#45;&gt;Dup23</title>
<g id="a_edge17"><a xlink:title="newrret152">
<path fill="none" stroke="red" d="M194.12,-240.8C188.51,-231.59 181.26,-219.71 174.48,-208.58"/>
<polygon fill="none" stroke="red" points="177.37,-206.6 169.18,-199.89 171.39,-210.25 177.37,-206.6"/>
</a>
</g>
</g>
<!-- Dup22 -->
<g id="node23" class="node">
<title>Dup22</title>
<ellipse fill="none" stroke="black" cx="312" cy="-1266" rx="27" ry="18"/>
<text text-anchor="middle" x="312" y="-1262.3" font-family="Times,serif" font-size="14.00">Dup</text>
</g>
<!-- Dup23&#45;&gt;!p3 -->
<g id="edge20" class="edge">
<title>Dup23&#45;&gt;!p3</title>
<g id="a_edge20"><a xlink:title="newrret74">
<path fill="none" stroke="red" stroke-width="2" d="M154,-143.86C154,-135.54 154,-126.5 154,-118.29"/>
<polygon fill="red" stroke="red" stroke-width="2" points="157.5,-118.11 154,-108.11 150.5,-118.11 157.5,-118.11"/>
</a>
</g>
</g>
<!-- Dup24 -->
<g id="node25" class="node">
<title>Dup24</title>
<ellipse fill="none" stroke="black" cx="384" cy="-1266" rx="27" ry="18"/>
<text text-anchor="middle" x="384" y="-1262.3" font-family="Times,serif" font-size="14.00">Dup</text>
</g>
<!-- Dup25&#45;&gt;@20 -->
<g id="edge9" class="edge">
<title>Dup25&#45;&gt;@20</title>
<g id="a_edge9"><a xlink:title="lret149">
<path fill="none" stroke="blue" d="M198.83,-357.96C193.83,-386.44 187,-432.71 187,-473 187,-1123 187,-1123 187,-1123 187,-1168.51 177.29,-1221.52 171.75,-1248.04"/>
<polygon fill="blue" stroke="blue" points="202.3,-358.43 200.64,-347.97 195.42,-357.18 202.3,-358.43"/>
</a>
</g>
</g>
<!-- Dup25&#45;&gt;@21 -->
<g id="edge10" class="edge">
<title>Dup25&#45;&gt;@21</title>
<g id="a_edge10"><a xlink:title="lret154">
<path fill="none" stroke="blue" d="M204,-301.66C204,-293.05 204,-283.79 204,-276.1"/>
<polygon fill="none" stroke="blue" points="200.5,-301.69 204,-311.69 207.5,-301.69 200.5,-301.69"/>
</a>
</g>
</g>
</g>
</svg>
