<?xml version="1.0" encoding="UTF-8" standalone="no"?>
<!DOCTYPE svg PUBLIC "-//W3C//DTD SVG 1.1//EN"
 "http://www.w3.org/Graphics/SVG/1.1/DTD/svg11.dtd">
<!-- Generated by graphviz version 2.49.3 (0)
 -->
<!-- Pages: 1 -->
<svg width="349pt" height="1287pt"
 viewBox="0.00 0.00 348.89 1286.80" xmlns="http://www.w3.org/2000/svg" xmlns:xlink="http://www.w3.org/1999/xlink">
<g id="graph0" class="graph" transform="scale(1 1) rotate(0) translate(4 1282.8)">
<polygon fill="white" stroke="transparent" points="-4,4 -4,-1282.8 344.89,-1282.8 344.89,4 -4,4"/>
<!-- Identity0 -->
<g id="node1" class="node">
<title>Identity0</title>
<ellipse fill="none" stroke="black" cx="216.54" cy="-1260.8" rx="38.19" ry="18"/>
<text text-anchor="middle" x="216.54" y="-1257.1" font-family="Times,serif" font-size="14.00">Identity</text>
</g>
<!-- BangD1 -->
<g id="node2" class="node">
<title>BangD1</title>
<ellipse fill="none" stroke="black" cx="216.54" cy="-1188.8" rx="36" ry="18"/>
<text text-anchor="middle" x="216.54" y="-1185.1" font-family="Times,serif" font-size="14.00">BangD</text>
</g>
<!-- BangD1&#45;&gt;Identity0 -->
<g id="edge20" class="edge">
<title>BangD1&#45;&gt;Identity0</title>
<g id="a_edge20"><a xlink:title="iret84">
<path fill="none" stroke="blue" d="M210.66,-1206.74C209.83,-1214.57 209.6,-1224.05 209.95,-1232.82"/>
<polygon fill="blue" stroke="blue" points="206.48,-1233.28 210.68,-1243.01 213.46,-1232.78 206.48,-1233.28"/>
</a>
</g>
</g>
<!-- BangD1&#45;&gt;Identity0 -->
<g id="edge21" class="edge">
<title>BangD1&#45;&gt;Identity0</title>
<g id="a_edge21"><a xlink:title="iseq83">
<path fill="none" stroke="black" d="M222.42,-1206.74C223.25,-1214.57 223.49,-1224.05 223.13,-1232.82"/>
<polygon fill="black" stroke="black" points="219.62,-1232.78 222.4,-1243.01 226.61,-1233.28 219.62,-1232.78"/>
</a>
</g>
</g>
<!-- PiR2 -->
<g id="node3" class="node">
<title>PiR2</title>
<ellipse fill="none" stroke="black" cx="216.54" cy="-1116.8" rx="27" ry="18"/>
<text text-anchor="middle" x="216.54" y="-1113.1" font-family="Times,serif" font-size="14.00">PiR</text>
</g>
<!-- PiR2&#45;&gt;Identity0 -->
<g id="edge43" class="edge">
<title>PiR2&#45;&gt;Identity0</title>
<g id="a_edge43"><a xlink:title="ret82">
<path fill="none" stroke="red" d="M232.75,-1131.23C243.17,-1140.98 255.8,-1155.16 261.54,-1170.8 267.06,-1185.81 267.06,-1191.78 261.54,-1206.8 257.4,-1218.07 249.68,-1228.59 241.78,-1237.24"/>
<polygon fill="red" stroke="red" points="239.06,-1235.02 234.58,-1244.62 244.07,-1239.91 239.06,-1235.02"/>
</a>
</g>
</g>
<!-- PiR2&#45;&gt;BangD1 -->
<g id="edge16" class="edge">
<title>PiR2&#45;&gt;BangD1</title>
<g id="a_edge16"><a xlink:title="i81">
<path fill="none" stroke="blue" d="M210.7,-1134.38C209.84,-1142.29 209.59,-1151.94 209.95,-1160.86"/>
<polygon fill="blue" stroke="blue" points="206.46,-1161.11 210.66,-1170.84 213.44,-1160.62 206.46,-1161.11"/>
</a>
</g>
</g>
<!-- PiR2&#45;&gt;BangD1 -->
<g id="edge45" class="edge">
<title>PiR2&#45;&gt;BangD1</title>
<g id="a_edge45"><a xlink:title="seq80">
<path fill="none" stroke="black" d="M222.38,-1134.38C223.24,-1142.29 223.49,-1151.94 223.13,-1160.86"/>
<polygon fill="black" stroke="black" points="219.64,-1160.62 222.42,-1170.84 226.62,-1161.11 219.64,-1160.62"/>
</a>
</g>
</g>
<!-- Bang3 -->
<g id="node4" class="node">
<title>Bang3</title>
<ellipse fill="none" stroke="black" cx="216.54" cy="-1044.8" rx="29.5" ry="18"/>
<text text-anchor="middle" x="216.54" y="-1041.1" font-family="Times,serif" font-size="14.00">Bang</text>
</g>
<!-- Bang3&#45;&gt;PiR2 -->
<g id="edge5" class="edge">
<title>Bang3&#45;&gt;PiR2</title>
<g id="a_edge5"><a xlink:title="c_bseq79">
<path fill="none" stroke="black" d="M210.66,-1062.74C209.83,-1070.57 209.6,-1080.05 209.95,-1088.82"/>
<polygon fill="black" stroke="black" points="206.48,-1089.28 210.68,-1099.01 213.46,-1088.78 206.48,-1089.28"/>
</a>
</g>
</g>
<!-- Bang3&#45;&gt;PiR2 -->
<g id="edge38" class="edge">
<title>Bang3&#45;&gt;PiR2</title>
<g id="a_edge38"><a xlink:title="newrretf78">
<path fill="none" stroke="red" d="M222.42,-1062.74C223.25,-1070.57 223.49,-1080.05 223.13,-1088.82"/>
<polygon fill="red" stroke="red" points="219.62,-1088.78 222.4,-1099.01 226.61,-1089.28 219.62,-1088.78"/>
</a>
</g>
</g>
<!-- Identity4 -->
<g id="node5" class="node">
<title>Identity4</title>
<ellipse fill="none" stroke="black" cx="302.54" cy="-1044.8" rx="38.19" ry="18"/>
<text text-anchor="middle" x="302.54" y="-1041.1" font-family="Times,serif" font-size="14.00">Identity</text>
</g>
<!-- PiL5 -->
<g id="node6" class="node">
<title>PiL5</title>
<ellipse fill="none" stroke="black" cx="223.54" cy="-972.8" rx="27" ry="18"/>
<text text-anchor="middle" x="223.54" y="-969.1" font-family="Times,serif" font-size="14.00">PiL</text>
</g>
<!-- PiL5&#45;&gt;Bang3 -->
<g id="edge9" class="edge">
<title>PiL5&#45;&gt;Bang3</title>
<g id="a_edge9"><a xlink:title="dseq76">
<path fill="none" stroke="black" d="M216.04,-990.38C214.41,-998.2 213.2,-1007.73 212.66,-1016.57"/>
<polygon fill="black" stroke="black" points="209.16,-1016.74 212.36,-1026.84 216.15,-1016.95 209.16,-1016.74"/>
</a>
</g>
</g>
<!-- PiL5&#45;&gt;Bang3 -->
<g id="edge32" class="edge">
<title>PiL5&#45;&gt;Bang3</title>
<g id="a_edge32"><a xlink:title="newrret74">
<path fill="none" stroke="red" d="M227.72,-990.74C227.77,-998.65 227.05,-1008.26 225.79,-1017.11"/>
<polygon fill="red" stroke="red" points="222.33,-1016.56 224.08,-1027.01 229.23,-1017.75 222.33,-1016.56"/>
</a>
</g>
</g>
<!-- PiL5&#45;&gt;Identity4 -->
<g id="edge19" class="edge">
<title>PiL5&#45;&gt;Identity4</title>
<g id="a_edge19"><a xlink:title="idseq77">
<path fill="none" stroke="black" d="M242.85,-996.54C252.02,-1005.17 263.09,-1014.93 273.24,-1023.33"/>
<polygon fill="black" stroke="black" points="237.78,-986.81 242.56,-996.27 232.93,-991.85 237.78,-986.81"/>
<polygon fill="black" stroke="black" points="271.16,-1026.15 281.13,-1029.73 275.57,-1020.71 271.16,-1026.15"/>
</a>
</g>
</g>
<!-- PiL5&#45;&gt;Identity4 -->
<g id="edge24" class="edge">
<title>PiL5&#45;&gt;Identity4</title>
<g id="a_edge24"><a xlink:title="lret75">
<path fill="none" stroke="blue" d="M242.57,-985.99C254.69,-995.44 270.16,-1008.81 282.45,-1020.31"/>
<polygon fill="blue" stroke="blue" points="280.36,-1023.15 290,-1027.54 285.2,-1018.1 280.36,-1023.15"/>
</a>
</g>
</g>
<!-- BangD6 -->
<g id="node7" class="node">
<title>BangD6</title>
<ellipse fill="none" stroke="black" cx="223.54" cy="-900.8" rx="36" ry="18"/>
<text text-anchor="middle" x="223.54" y="-897.1" font-family="Times,serif" font-size="14.00">BangD</text>
</g>
<!-- BangD6&#45;&gt;PiL5 -->
<g id="edge15" class="edge">
<title>BangD6&#45;&gt;PiL5</title>
<g id="a_edge15"><a xlink:title="hseq72">
<path fill="none" stroke="black" d="M217.66,-918.74C216.83,-926.57 216.6,-936.05 216.95,-944.82"/>
<polygon fill="black" stroke="black" points="213.48,-945.28 217.68,-955.01 220.46,-944.78 213.48,-945.28"/>
</a>
</g>
</g>
<!-- BangD6&#45;&gt;PiL5 -->
<g id="edge27" class="edge">
<title>BangD6&#45;&gt;PiL5</title>
<g id="a_edge27"><a xlink:title="lval70">
<path fill="none" stroke="blue" d="M229.42,-918.74C230.25,-926.57 230.49,-936.05 230.13,-944.82"/>
<polygon fill="blue" stroke="blue" points="226.62,-944.78 229.4,-955.01 233.61,-945.28 226.62,-944.78"/>
</a>
</g>
</g>
<!-- Identity7 -->
<g id="node8" class="node">
<title>Identity7</title>
<ellipse fill="none" stroke="black" cx="140.54" cy="-828.8" rx="38.19" ry="18"/>
<text text-anchor="middle" x="140.54" y="-825.1" font-family="Times,serif" font-size="14.00">Identity</text>
</g>
<!-- Identity8 -->
<g id="node9" class="node">
<title>Identity8</title>
<ellipse fill="none" stroke="black" cx="166.54" cy="-666" rx="38.19" ry="18"/>
<text text-anchor="middle" x="166.54" y="-662.3" font-family="Times,serif" font-size="14.00">Identity</text>
</g>
<!-- PiL9 -->
<g id="node10" class="node">
<title>PiL9</title>
<ellipse fill="none" stroke="black" cx="166.54" cy="-594" rx="27" ry="18"/>
<text text-anchor="middle" x="166.54" y="-590.3" font-family="Times,serif" font-size="14.00">PiL</text>
</g>
<!-- PiL9&#45;&gt;Identity8 -->
<g id="edge18" class="edge">
<title>PiL9&#45;&gt;Identity8</title>
<g id="a_edge18"><a xlink:title="idseq55">
<path fill="none" stroke="black" d="M159.96,-621.81C159.74,-627.05 159.74,-632.54 159.94,-637.78"/>
<polygon fill="black" stroke="black" points="164.19,-611.84 159.98,-621.56 157.21,-611.34 164.19,-611.84"/>
<polygon fill="black" stroke="black" points="156.47,-638.31 160.66,-648.04 163.45,-637.82 156.47,-638.31"/>
</a>
</g>
</g>
<!-- PiL9&#45;&gt;Identity8 -->
<g id="edge23" class="edge">
<title>PiL9&#45;&gt;Identity8</title>
<g id="a_edge23"><a xlink:title="lret53">
<path fill="none" stroke="blue" d="M172.38,-611.59C173.24,-619.49 173.49,-629.15 173.13,-638.06"/>
<polygon fill="blue" stroke="blue" points="169.64,-637.82 172.42,-648.04 176.62,-638.32 169.64,-637.82"/>
</a>
</g>
</g>
<!-- Bang23 -->
<g id="node24" class="node">
<title>Bang23</title>
<ellipse fill="none" stroke="black" cx="80.54" cy="-666" rx="29.5" ry="18"/>
<text text-anchor="middle" x="80.54" y="-662.3" font-family="Times,serif" font-size="14.00">Bang</text>
</g>
<!-- PiL9&#45;&gt;Bang23 -->
<g id="edge8" class="edge">
<title>PiL9&#45;&gt;Bang23</title>
<g id="a_edge8"><a xlink:title="dseq54">
<path fill="none" stroke="black" d="M147.17,-606.56C133.44,-616.43 115.28,-630.9 101.29,-642.97"/>
<polygon fill="black" stroke="black" points="98.78,-640.51 93.59,-649.75 103.41,-645.76 98.78,-640.51"/>
</a>
</g>
</g>
<!-- PiL9&#45;&gt;Bang23 -->
<g id="edge31" class="edge">
<title>PiL9&#45;&gt;Bang23</title>
<g id="a_edge31"><a xlink:title="newrret52">
<path fill="none" stroke="red" d="M153.56,-610.19C141.62,-620.98 123.87,-635.51 108.77,-646.9"/>
<polygon fill="red" stroke="red" points="106.67,-644.1 100.71,-652.86 110.83,-649.73 106.67,-644.1"/>
</a>
</g>
</g>
<!-- PiR10 -->
<g id="node11" class="node">
<title>PiR10</title>
<ellipse fill="none" stroke="black" cx="166.54" cy="-378" rx="27" ry="18"/>
<text text-anchor="middle" x="166.54" y="-374.3" font-family="Times,serif" font-size="14.00">PiR</text>
</g>
<!-- PiR10&#45;&gt;Identity8 -->
<g id="edge41" class="edge">
<title>PiR10&#45;&gt;Identity8</title>
<g id="a_edge41"><a xlink:title="ret42">
<path fill="none" stroke="red" d="M182.84,-392.93C192.95,-402.7 205.02,-416.7 210.54,-432 222.54,-465.23 239.05,-504.03 202.54,-612 199.07,-622.27 193.02,-632.41 186.86,-641.02"/>
<polygon fill="red" stroke="red" points="184,-638.99 180.75,-649.08 189.58,-643.22 184,-638.99"/>
</a>
</g>
</g>
<!-- BangC21 -->
<g id="node22" class="node">
<title>BangC21</title>
<ellipse fill="none" stroke="black" cx="166.54" cy="-450" rx="35.19" ry="18"/>
<text text-anchor="middle" x="166.54" y="-446.3" font-family="Times,serif" font-size="14.00">BangC</text>
</g>
<!-- PiR10&#45;&gt;BangC21 -->
<g id="edge11" class="edge">
<title>PiR10&#45;&gt;BangC21</title>
<g id="a_edge11"><a xlink:title="h34">
<path fill="none" stroke="blue" d="M160.7,-395.59C159.84,-403.49 159.59,-413.15 159.95,-422.06"/>
<polygon fill="blue" stroke="blue" points="156.46,-422.32 160.66,-432.04 163.44,-421.82 156.46,-422.32"/>
</a>
</g>
</g>
<!-- PiR10&#45;&gt;BangC21 -->
<g id="edge44" class="edge">
<title>PiR10&#45;&gt;BangC21</title>
<g id="a_edge44"><a xlink:title="seq33">
<path fill="none" stroke="black" d="M172.38,-395.59C173.24,-403.49 173.49,-413.15 173.13,-422.06"/>
<polygon fill="black" stroke="black" points="169.64,-421.82 172.42,-432.04 176.62,-422.32 169.64,-421.82"/>
</a>
</g>
</g>
<!-- Identity11 -->
<g id="node12" class="node">
<title>Identity11</title>
<ellipse fill="none" stroke="black" cx="52.54" cy="-234" rx="38.19" ry="18"/>
<text text-anchor="middle" x="52.54" y="-230.3" font-family="Times,serif" font-size="14.00">Identity</text>
</g>
<!-- PiL12 -->
<g id="node13" class="node">
<title>PiL12</title>
<ellipse fill="none" stroke="black" cx="138.54" cy="-162" rx="27" ry="18"/>
<text text-anchor="middle" x="138.54" y="-158.3" font-family="Times,serif" font-size="14.00">PiL</text>
</g>
<!-- PiL12&#45;&gt;Identity11 -->
<g id="edge17" class="edge">
<title>PiL12&#45;&gt;Identity11</title>
<g id="a_edge17"><a xlink:title="idseq21">
<path fill="none" stroke="black" d="M110.82,-180.72C98.89,-189.69 85.24,-200.69 74.08,-210.28"/>
<polygon fill="black" stroke="black" points="121.25,-177.38 111.12,-180.49 117.1,-171.74 121.25,-177.38"/>
<polygon fill="black" stroke="black" points="71.67,-207.75 66.46,-216.97 76.28,-213.01 71.67,-207.75"/>
</a>
</g>
</g>
<!-- PiL12&#45;&gt;Identity11 -->
<g id="edge22" class="edge">
<title>PiL12&#45;&gt;Identity11</title>
<g id="a_edge22"><a xlink:title="lret19">
<path fill="none" stroke="blue" d="M125.56,-178.19C114.25,-188.41 97.73,-201.98 83.19,-213.07"/>
<polygon fill="blue" stroke="blue" points="80.82,-210.47 74.91,-219.26 85.01,-216.08 80.82,-210.47"/>
</a>
</g>
</g>
<!-- Bang17 -->
<g id="node18" class="node">
<title>Bang17</title>
<ellipse fill="none" stroke="black" cx="138.54" cy="-234" rx="29.5" ry="18"/>
<text text-anchor="middle" x="138.54" y="-230.3" font-family="Times,serif" font-size="14.00">Bang</text>
</g>
<!-- PiL12&#45;&gt;Bang17 -->
<g id="edge7" class="edge">
<title>PiL12&#45;&gt;Bang17</title>
<g id="a_edge7"><a xlink:title="dseq20">
<path fill="none" stroke="black" d="M132.7,-179.59C131.84,-187.49 131.59,-197.15 131.95,-206.06"/>
<polygon fill="black" stroke="black" points="128.46,-206.32 132.66,-216.04 135.44,-205.82 128.46,-206.32"/>
</a>
</g>
</g>
<!-- PiL12&#45;&gt;Bang17 -->
<g id="edge30" class="edge">
<title>PiL12&#45;&gt;Bang17</title>
<g id="a_edge30"><a xlink:title="newrret18">
<path fill="none" stroke="red" d="M144.38,-179.59C145.24,-187.49 145.49,-197.15 145.13,-206.06"/>
<polygon fill="red" stroke="red" points="141.64,-205.82 144.42,-216.04 148.62,-206.32 141.64,-205.82"/>
</a>
</g>
</g>
<!-- Assign13 -->
<g id="node14" class="node">
<title>Assign13</title>
<ellipse fill="none" stroke="black" cx="138.54" cy="-18" rx="35.19" ry="18"/>
<text text-anchor="middle" x="138.54" y="-14.3" font-family="Times,serif" font-size="14.00">Assign</text>
</g>
<!-- Assign13&#45;&gt;Identity11 -->
<g id="edge42" class="edge">
<title>Assign13&#45;&gt;Identity11</title>
<g id="a_edge42"><a xlink:title="ret8">
<path fill="none" stroke="red" d="M125.87,-34.95C118.28,-45.09 108.91,-58.77 102.54,-72 80.97,-116.78 66.02,-172.99 58.39,-205.76"/>
<polygon fill="red" stroke="red" points="54.89,-205.4 56.09,-215.93 61.71,-206.95 54.89,-205.4"/>
</a>
</g>
</g>
<!-- Cut16 -->
<g id="node17" class="node">
<title>Cut16</title>
<ellipse fill="none" stroke="black" cx="138.54" cy="-90" rx="27" ry="18"/>
<text text-anchor="middle" x="138.54" y="-86.3" font-family="Times,serif" font-size="14.00">Cut</text>
</g>
<!-- Assign13&#45;&gt;Cut16 -->
<g id="edge47" class="edge">
<title>Assign13&#45;&gt;Cut16</title>
<g id="a_edge47"><a xlink:title="seqBC94">
<path fill="none" stroke="black" d="M138.54,-36.3C138.54,-44.02 138.54,-53.29 138.54,-61.89"/>
<polygon fill="black" stroke="black" points="135.04,-61.9 138.54,-71.9 142.04,-61.9 135.04,-61.9"/>
</a>
</g>
</g>
<!-- Dup14 -->
<g id="node15" class="node">
<title>Dup14</title>
<ellipse fill="none" stroke="black" cx="166.54" cy="-306" rx="27" ry="18"/>
<text text-anchor="middle" x="166.54" y="-302.3" font-family="Times,serif" font-size="14.00">Dup</text>
</g>
<!-- Dup14&#45;&gt;PiR10 -->
<g id="edge3" class="edge">
<title>Dup14&#45;&gt;PiR10</title>
<g id="a_edge3"><a xlink:title="c_bseq32">
<path fill="none" stroke="black" d="M166.54,-324.3C166.54,-332.02 166.54,-341.29 166.54,-349.89"/>
<polygon fill="black" stroke="black" points="163.04,-349.9 166.54,-359.9 170.04,-349.9 163.04,-349.9"/>
</a>
</g>
</g>
<!-- Dup15 -->
<g id="node16" class="node">
<title>Dup15</title>
<ellipse fill="none" stroke="black" cx="94.54" cy="-306" rx="27" ry="18"/>
<text text-anchor="middle" x="94.54" y="-302.3" font-family="Times,serif" font-size="14.00">Dup</text>
</g>
<!-- Dup15&#45;&gt;PiR10 -->
<g id="edge35" class="edge">
<title>Dup15&#45;&gt;PiR10</title>
<g id="a_edge35"><a xlink:title="newrretf31">
<path fill="none" stroke="red" d="M109.11,-321.17C119.29,-331.06 133.06,-344.45 144.57,-355.64"/>
<polygon fill="red" stroke="red" points="142.14,-358.15 151.75,-362.62 147.02,-353.13 142.14,-358.15"/>
</a>
</g>
</g>
<!-- Cut16&#45;&gt;PiL12 -->
<g id="edge25" class="edge">
<title>Cut16&#45;&gt;PiL12</title>
<g id="a_edge25"><a xlink:title="lval14">
<path fill="none" stroke="blue" d="M132.7,-107.59C131.84,-115.49 131.59,-125.15 131.95,-134.06"/>
<polygon fill="blue" stroke="blue" points="128.46,-134.32 132.66,-144.04 135.44,-133.82 128.46,-134.32"/>
</a>
</g>
</g>
<!-- Cut16&#45;&gt;PiL12 -->
<g id="edge48" class="edge">
<title>Cut16&#45;&gt;PiL12</title>
<g id="a_edge48"><a xlink:title="xseq16">
<path fill="none" stroke="black" d="M145.12,-117.81C145.34,-123.05 145.35,-128.54 145.14,-133.78"/>
<polygon fill="black" stroke="black" points="147.87,-107.34 145.11,-117.56 140.89,-107.84 147.87,-107.34"/>
<polygon fill="black" stroke="black" points="141.63,-133.82 144.42,-144.04 148.61,-134.31 141.63,-133.82"/>
</a>
</g>
</g>
<!-- Cut16&#45;&gt;Dup14 -->
<g id="edge6" class="edge">
<title>Cut16&#45;&gt;Dup14</title>
<g id="a_edge6"><a xlink:title="c_bseq86">
<path fill="none" stroke="black" d="M152.16,-105.97C160.31,-115.96 169.96,-129.82 174.54,-144 189.14,-189.22 180.85,-245.29 173.62,-277.92"/>
<polygon fill="black" stroke="black" points="170.12,-277.5 171.24,-288.03 176.93,-279.1 170.12,-277.5"/>
</a>
</g>
</g>
<!-- Cut16&#45;&gt;Dup15 -->
<g id="edge39" class="edge">
<title>Cut16&#45;&gt;Dup15</title>
<g id="a_edge39"><a xlink:title="newrretf87">
<path fill="none" stroke="red" d="M118.64,-102.25C87.59,-121.1 28.75,-162.34 5.54,-216 -0.81,-230.69 -2.37,-238.09 5.54,-252 17.3,-272.69 40.69,-286.15 60.54,-294.33"/>
<polygon fill="red" stroke="red" points="59.34,-297.62 69.93,-297.93 61.84,-291.08 59.34,-297.62"/>
</a>
</g>
</g>
<!-- Bang17&#45;&gt;Dup14 -->
<g id="edge28" class="edge">
<title>Bang17&#45;&gt;Dup14</title>
<g id="a_edge28"><a xlink:title="newcut_bseq100">
<path fill="none" stroke="black" d="M145.18,-251.59C148.45,-259.78 152.49,-269.86 156.16,-279.05"/>
<polygon fill="none" stroke="black" points="152.99,-280.55 159.95,-288.53 159.49,-277.95 152.99,-280.55"/>
</a>
</g>
</g>
<!-- Bang17&#45;&gt;Dup15 -->
<g id="edge40" class="edge">
<title>Bang17&#45;&gt;Dup15</title>
<g id="a_edge40"><a xlink:title="newrretf91">
<path fill="none" stroke="red" d="M128.34,-251.24C122.95,-259.81 116.22,-270.51 110.19,-280.1"/>
<polygon fill="none" stroke="red" points="107.05,-278.52 104.69,-288.85 112.98,-282.25 107.05,-278.52"/>
</a>
</g>
</g>
<!-- Dup18 -->
<g id="node19" class="node">
<title>Dup18</title>
<ellipse fill="none" stroke="black" cx="223.54" cy="-828.8" rx="27" ry="18"/>
<text text-anchor="middle" x="223.54" y="-825.1" font-family="Times,serif" font-size="14.00">Dup</text>
</g>
<!-- Dup18&#45;&gt;BangD6 -->
<g id="edge4" class="edge">
<title>Dup18&#45;&gt;BangD6</title>
<g id="a_edge4"><a xlink:title="c_bseq67">
<path fill="none" stroke="black" d="M223.54,-847.1C223.54,-854.81 223.54,-864.08 223.54,-872.68"/>
<polygon fill="black" stroke="black" points="220.04,-872.69 223.54,-882.69 227.04,-872.69 220.04,-872.69"/>
</a>
</g>
</g>
<!-- Dup19 -->
<g id="node20" class="node">
<title>Dup19</title>
<ellipse fill="none" stroke="black" cx="302.54" cy="-828.8" rx="27" ry="18"/>
<text text-anchor="middle" x="302.54" y="-825.1" font-family="Times,serif" font-size="14.00">Dup</text>
</g>
<!-- Dup19&#45;&gt;Identity4 -->
<g id="edge37" class="edge">
<title>Dup19&#45;&gt;Identity4</title>
<g id="a_edge37"><a xlink:title="newrretf66">
<path fill="none" stroke="red" d="M302.54,-846.95C302.54,-883.96 302.54,-971.61 302.54,-1016.41"/>
<polygon fill="red" stroke="red" points="299.04,-1016.56 302.54,-1026.56 306.04,-1016.56 299.04,-1016.56"/>
</a>
</g>
</g>
<!-- Dup20 -->
<g id="node21" class="node">
<title>Dup20</title>
<ellipse fill="none" stroke="black" cx="30.54" cy="-747.4" rx="27" ry="18"/>
<text text-anchor="middle" x="30.54" y="-743.7" font-family="Times,serif" font-size="14.00">Dup</text>
</g>
<!-- Dup20&#45;&gt;BangD6 -->
<g id="edge14" class="edge">
<title>Dup20&#45;&gt;BangD6</title>
<g id="a_edge14"><a xlink:title="hf65">
<path fill="none" stroke="blue" d="M37.28,-764.9C46.84,-786.44 66.26,-824.09 93.54,-846.8 119.15,-868.11 154.48,-881.78 181.85,-889.88"/>
<polygon fill="blue" stroke="blue" points="180.96,-893.27 191.54,-892.62 182.87,-886.53 180.96,-893.27"/>
</a>
</g>
</g>
<!-- BangC21&#45;&gt;Dup20 -->
<g id="edge12" class="edge">
<title>BangC21&#45;&gt;Dup20</title>
<g id="a_edge12"><a xlink:title="hf107">
<path fill="none" stroke="blue" d="M148.32,-465.6C136.74,-475.54 122.02,-489.49 111.54,-504 70,-561.54 62.43,-579.88 42.54,-648 35.7,-671.42 32.76,-699.07 31.49,-719.09"/>
<polygon fill="blue" stroke="blue" points="27.98,-719.18 30.95,-729.35 34.97,-719.55 27.98,-719.18"/>
</a>
</g>
</g>
<!-- Cut22 -->
<g id="node23" class="node">
<title>Cut22</title>
<ellipse fill="none" stroke="black" cx="166.54" cy="-522" rx="27" ry="18"/>
<text text-anchor="middle" x="166.54" y="-518.3" font-family="Times,serif" font-size="14.00">Cut</text>
</g>
<!-- BangC21&#45;&gt;Cut22 -->
<g id="edge46" class="edge">
<title>BangC21&#45;&gt;Cut22</title>
<g id="a_edge46"><a xlink:title="seqBC118">
<path fill="none" stroke="black" d="M166.54,-468.3C166.54,-476.02 166.54,-485.29 166.54,-493.89"/>
<polygon fill="black" stroke="black" points="163.04,-493.9 166.54,-503.9 170.04,-493.9 163.04,-493.9"/>
</a>
</g>
</g>
<!-- BangC21&#45;&gt;Bang23 -->
<g id="edge10" class="edge">
<title>BangC21&#45;&gt;Bang23</title>
<g id="a_edge10"><a xlink:title="h116">
<path fill="none" stroke="blue" d="M147.92,-475.16C141.79,-483.9 135.32,-494.08 130.54,-504 108.97,-548.78 94.02,-604.99 86.39,-637.76"/>
<polygon fill="blue" stroke="blue" points="156.7,-469 148,-475.05 151.04,-464.89 156.7,-469"/>
<polygon fill="blue" stroke="blue" points="82.89,-637.4 84.09,-647.93 89.71,-638.95 82.89,-637.4"/>
</a>
</g>
</g>
<!-- Cut22&#45;&gt;PiL9 -->
<g id="edge26" class="edge">
<title>Cut22&#45;&gt;PiL9</title>
<g id="a_edge26"><a xlink:title="lval48">
<path fill="none" stroke="blue" d="M160.7,-539.59C159.84,-547.49 159.59,-557.15 159.95,-566.06"/>
<polygon fill="blue" stroke="blue" points="156.46,-566.32 160.66,-576.04 163.44,-565.82 156.46,-566.32"/>
</a>
</g>
</g>
<!-- Cut22&#45;&gt;PiL9 -->
<g id="edge50" class="edge">
<title>Cut22&#45;&gt;PiL9</title>
<g id="a_edge50"><a xlink:title="yseq50">
<path fill="none" stroke="black" d="M173.12,-549.81C173.34,-555.05 173.35,-560.54 173.14,-565.78"/>
<polygon fill="black" stroke="black" points="175.87,-539.34 173.11,-549.56 168.89,-539.84 175.87,-539.34"/>
<polygon fill="black" stroke="black" points="169.63,-565.82 172.42,-576.04 176.61,-566.31 169.63,-565.82"/>
</a>
</g>
</g>
<!-- Cut22&#45;&gt;Dup18 -->
<g id="edge1" class="edge">
<title>Cut22&#45;&gt;Dup18</title>
<g id="a_edge1"><a xlink:title="c_bseq106">
<path fill="none" stroke="black" d="M179.56,-538.19C187.49,-548.25 197.09,-562.13 202.54,-576 232.73,-652.9 229.87,-752.93 226.24,-800.44"/>
<polygon fill="black" stroke="black" points="222.74,-800.29 225.4,-810.55 229.72,-800.87 222.74,-800.29"/>
</a>
</g>
</g>
<!-- Cut22&#45;&gt;Dup19 -->
<g id="edge33" class="edge">
<title>Cut22&#45;&gt;Dup19</title>
<g id="a_edge33"><a xlink:title="newrretf108">
<path fill="none" stroke="red" d="M183.88,-535.87C195.97,-545.67 211.65,-560.13 221.54,-576 267.62,-649.9 289.88,-752.5 298.33,-800.72"/>
<polygon fill="red" stroke="red" points="294.89,-801.41 300.01,-810.69 301.79,-800.25 294.89,-801.41"/>
</a>
</g>
</g>
<!-- Bang23&#45;&gt;Identity7 -->
<g id="edge36" class="edge">
<title>Bang23&#45;&gt;Identity7</title>
<g id="a_edge36"><a xlink:title="newrretf57">
<path fill="none" stroke="red" d="M82.32,-684.04C85.05,-705.82 91.38,-744.35 104.54,-774.8 108.84,-784.75 115.09,-794.81 121.18,-803.45"/>
<polygon fill="red" stroke="red" points="118.39,-805.57 127.13,-811.56 124.03,-801.43 118.39,-805.57"/>
</a>
</g>
</g>
<!-- Bang23&#45;&gt;Dup20 -->
<g id="edge13" class="edge">
<title>Bang23&#45;&gt;Dup20</title>
<g id="a_edge13"><a xlink:title="hf113">
<path fill="none" stroke="blue" d="M70.42,-683.07C63.4,-694.22 53.9,-709.3 45.94,-721.94"/>
<polygon fill="none" stroke="blue" points="42.84,-720.3 40.47,-730.63 48.76,-724.03 42.84,-720.3"/>
</a>
</g>
</g>
<!-- Cut24 -->
<g id="node25" class="node">
<title>Cut24</title>
<ellipse fill="none" stroke="black" cx="140.54" cy="-747.4" rx="23.31" ry="23.31"/>
<ellipse fill="none" stroke="black" cx="140.54" cy="-747.4" rx="27.3" ry="27.3"/>
<text text-anchor="middle" x="140.54" y="-743.7" font-family="Times,serif" font-size="14.00">Cut</text>
</g>
<!-- Bang23&#45;&gt;Cut24 -->
<g id="edge29" class="edge">
<title>Bang23&#45;&gt;Cut24</title>
<g id="a_edge29"><a xlink:title="newcut_bseq125">
<path fill="none" stroke="black" d="M92.4,-682.69C99.76,-692.43 109.46,-705.27 118.23,-716.87"/>
<polygon fill="black" stroke="black" points="115.57,-719.16 124.4,-725.03 121.16,-714.94 115.57,-719.16"/>
</a>
</g>
</g>
<!-- Cut24&#45;&gt;Identity7 -->
<g id="edge49" class="edge">
<title>Cut24&#45;&gt;Identity7</title>
<g id="a_edge49"><a xlink:title="yret60">
<path fill="none" stroke="blue" stroke-width="2" d="M134.16,-774.4C133.69,-782.79 133.67,-792.12 134.1,-800.6"/>
<polygon fill="blue" stroke="blue" stroke-width="2" points="130.62,-801.05 134.88,-810.75 137.6,-800.51 130.62,-801.05"/>
</a>
</g>
</g>
<!-- Cut24&#45;&gt;Identity7 -->
<g id="edge51" class="edge">
<title>Cut24&#45;&gt;Identity7</title>
<g id="a_edge51"><a xlink:title="yseq59">
<path fill="none" stroke="black" d="M147.27,-784.51C147.34,-789.94 147.25,-795.46 146.98,-800.66"/>
<polygon fill="black" stroke="black" points="150.42,-774.28 147.26,-784.39 143.42,-774.52 150.42,-774.28"/>
<polygon fill="black" stroke="black" points="143.48,-800.51 146.2,-810.75 150.46,-801.05 143.48,-800.51"/>
</a>
</g>
</g>
<!-- Cut24&#45;&gt;Dup18 -->
<g id="edge2" class="edge">
<title>Cut24&#45;&gt;Dup18</title>
<g id="a_edge2"><a xlink:title="c_bseq112">
<path fill="none" stroke="black" d="M160.21,-767.21C172.52,-778.99 188.4,-794.18 201.19,-806.41"/>
<polygon fill="none" stroke="black" points="199.04,-809.2 208.69,-813.59 203.88,-804.14 199.04,-809.2"/>
</a>
</g>
</g>
<!-- Cut24&#45;&gt;Dup19 -->
<g id="edge34" class="edge">
<title>Cut24&#45;&gt;Dup19</title>
<g id="a_edge34"><a xlink:title="newrretf114">
<path fill="none" stroke="red" d="M164.79,-760.28C193.51,-774.36 241.35,-797.81 272.42,-813.03"/>
<polygon fill="none" stroke="red" points="270.96,-816.22 281.48,-817.47 274.04,-809.93 270.96,-816.22"/>
</a>
</g>
</g>
</g>
</svg>
