<?xml version="1.0" encoding="UTF-8" standalone="no"?>
<!DOCTYPE svg PUBLIC "-//W3C//DTD SVG 1.1//EN"
 "http://www.w3.org/Graphics/SVG/1.1/DTD/svg11.dtd">
<!-- Generated by graphviz version 2.49.3 (0)
 -->
<!-- Pages: 1 -->
<svg width="350pt" height="1148pt"
 viewBox="0.00 0.00 350.35 1148.00" xmlns="http://www.w3.org/2000/svg" xmlns:xlink="http://www.w3.org/1999/xlink">
<g id="graph0" class="graph" transform="scale(1 1) rotate(0) translate(4 1144)">
<polygon fill="white" stroke="transparent" points="-4,4 -4,-1144 346.35,-1144 346.35,4 -4,4"/>
<!-- Identity0 -->
<g id="node1" class="node">
<title>Identity0</title>
<ellipse fill="none" stroke="black" cx="38.35" cy="-1122" rx="38.19" ry="18"/>
<text text-anchor="middle" x="38.35" y="-1118.3" font-family="Times,serif" font-size="14.00">Identity</text>
</g>
<!-- BangD1 -->
<g id="node2" class="node">
<title>BangD1</title>
<ellipse fill="none" stroke="black" cx="38.35" cy="-1050" rx="36" ry="18"/>
<text text-anchor="middle" x="38.35" y="-1046.3" font-family="Times,serif" font-size="14.00">BangD</text>
</g>
<!-- BangD1&#45;&gt;Identity0 -->
<g id="edge22" class="edge">
<title>BangD1&#45;&gt;Identity0</title>
<g id="a_edge22"><a xlink:title="iret84">
<path fill="none" stroke="blue" d="M32.47,-1067.94C31.64,-1075.76 31.4,-1085.25 31.76,-1094.02"/>
<polygon fill="blue" stroke="blue" points="28.28,-1094.48 32.49,-1104.21 35.26,-1093.98 28.28,-1094.48"/>
</a>
</g>
</g>
<!-- BangD1&#45;&gt;Identity0 -->
<g id="edge23" class="edge">
<title>BangD1&#45;&gt;Identity0</title>
<g id="a_edge23"><a xlink:title="iseq83">
<path fill="none" stroke="black" d="M44.22,-1067.94C45.06,-1075.76 45.29,-1085.25 44.94,-1094.02"/>
<polygon fill="black" stroke="black" points="41.43,-1093.98 44.21,-1104.21 48.41,-1094.48 41.43,-1093.98"/>
</a>
</g>
</g>
<!-- PiR2 -->
<g id="node3" class="node">
<title>PiR2</title>
<ellipse fill="none" stroke="black" cx="38.35" cy="-978" rx="27" ry="18"/>
<text text-anchor="middle" x="38.35" y="-974.3" font-family="Times,serif" font-size="14.00">PiR</text>
</g>
<!-- PiR2&#45;&gt;Identity0 -->
<g id="edge47" class="edge">
<title>PiR2&#45;&gt;Identity0</title>
<g id="a_edge47"><a xlink:title="ret82">
<path fill="none" stroke="red" d="M54.55,-992.43C64.98,-1002.18 77.6,-1016.36 83.35,-1032 88.86,-1047.01 88.86,-1052.98 83.35,-1068 79.2,-1079.27 71.48,-1089.79 63.59,-1098.44"/>
<polygon fill="red" stroke="red" points="60.86,-1096.22 56.39,-1105.82 65.88,-1101.11 60.86,-1096.22"/>
</a>
</g>
</g>
<!-- PiR2&#45;&gt;BangD1 -->
<g id="edge17" class="edge">
<title>PiR2&#45;&gt;BangD1</title>
<g id="a_edge17"><a xlink:title="i81">
<path fill="none" stroke="blue" d="M32.51,-995.58C31.64,-1003.49 31.39,-1013.14 31.76,-1022.06"/>
<polygon fill="blue" stroke="blue" points="28.27,-1022.31 32.47,-1032.04 35.25,-1021.82 28.27,-1022.31"/>
</a>
</g>
</g>
<!-- PiR2&#45;&gt;BangD1 -->
<g id="edge51" class="edge">
<title>PiR2&#45;&gt;BangD1</title>
<g id="a_edge51"><a xlink:title="seq80">
<path fill="none" stroke="black" d="M44.19,-995.58C45.05,-1003.49 45.3,-1013.14 44.93,-1022.06"/>
<polygon fill="black" stroke="black" points="41.44,-1021.82 44.23,-1032.04 48.43,-1022.31 41.44,-1021.82"/>
</a>
</g>
</g>
<!-- Identity3 -->
<g id="node4" class="node">
<title>Identity3</title>
<ellipse fill="none" stroke="black" cx="199.35" cy="-894" rx="38.19" ry="18"/>
<text text-anchor="middle" x="199.35" y="-890.3" font-family="Times,serif" font-size="14.00">Identity</text>
</g>
<!-- Identity4 -->
<g id="node5" class="node">
<title>Identity4</title>
<ellipse fill="none" stroke="black" cx="270.35" cy="-594" rx="38.19" ry="18"/>
<text text-anchor="middle" x="270.35" y="-590.3" font-family="Times,serif" font-size="14.00">Identity</text>
</g>
<!-- PiL5 -->
<g id="node6" class="node">
<title>PiL5</title>
<ellipse fill="none" stroke="black" cx="230.35" cy="-522" rx="27" ry="18"/>
<text text-anchor="middle" x="230.35" y="-518.3" font-family="Times,serif" font-size="14.00">PiL</text>
</g>
<!-- PiL5&#45;&gt;Identity4 -->
<g id="edge20" class="edge">
<title>PiL5&#45;&gt;Identity4</title>
<g id="a_edge20"><a xlink:title="idseq55">
<path fill="none" stroke="black" d="M238.65,-548.98C241.99,-555.34 245.89,-562.12 249.82,-568.41"/>
<polygon fill="black" stroke="black" points="237.28,-538.39 238.61,-548.9 231.02,-541.5 237.28,-538.39"/>
<polygon fill="black" stroke="black" points="247.14,-570.72 255.55,-577.17 253,-566.89 247.14,-570.72"/>
</a>
</g>
</g>
<!-- PiL5&#45;&gt;Identity4 -->
<g id="edge26" class="edge">
<title>PiL5&#45;&gt;Identity4</title>
<g id="a_edge26"><a xlink:title="lret53">
<path fill="none" stroke="blue" d="M244.23,-537.5C250.17,-546 256.77,-556.99 262.01,-566.94"/>
<polygon fill="blue" stroke="blue" points="258.95,-568.66 266.54,-576.05 265.22,-565.54 258.95,-568.66"/>
</a>
</g>
</g>
<!-- Bang11 -->
<g id="node12" class="node">
<title>Bang11</title>
<ellipse fill="none" stroke="black" cx="184.35" cy="-594" rx="29.5" ry="18"/>
<text text-anchor="middle" x="184.35" y="-590.3" font-family="Times,serif" font-size="14.00">Bang</text>
</g>
<!-- PiL5&#45;&gt;Bang11 -->
<g id="edge8" class="edge">
<title>PiL5&#45;&gt;Bang11</title>
<g id="a_edge8"><a xlink:title="dseq54">
<path fill="none" stroke="black" d="M215.49,-537.17C208.68,-545.79 200.94,-557.07 194.74,-567.23"/>
<polygon fill="black" stroke="black" points="191.56,-565.74 189.56,-576.14 197.61,-569.26 191.56,-565.74"/>
</a>
</g>
</g>
<!-- PiL5&#45;&gt;Bang11 -->
<g id="edge36" class="edge">
<title>PiL5&#45;&gt;Bang11</title>
<g id="a_edge36"><a xlink:title="newrret52">
<path fill="none" stroke="red" d="M225.09,-539.95C220.12,-548.96 212.92,-560.17 205.87,-569.96"/>
<polygon fill="red" stroke="red" points="202.96,-568.01 199.77,-578.11 208.57,-572.2 202.96,-568.01"/>
</a>
</g>
</g>
<!-- Assign6 -->
<g id="node7" class="node">
<title>Assign6</title>
<ellipse fill="none" stroke="black" cx="253.35" cy="-18" rx="35.19" ry="18"/>
<text text-anchor="middle" x="253.35" y="-14.3" font-family="Times,serif" font-size="14.00">Assign</text>
</g>
<!-- Dup15 -->
<g id="node16" class="node">
<title>Dup15</title>
<ellipse fill="none" stroke="black" cx="310.35" cy="-306" rx="27" ry="18"/>
<text text-anchor="middle" x="310.35" y="-302.3" font-family="Times,serif" font-size="14.00">Dup</text>
</g>
<!-- Assign6&#45;&gt;Dup15 -->
<g id="edge44" class="edge">
<title>Assign6&#45;&gt;Dup15</title>
<g id="a_edge44"><a xlink:title="ret133">
<path fill="none" stroke="red" d="M267.39,-34.98C275.27,-44.93 284.48,-58.38 289.35,-72 314.73,-143.02 314.34,-233.6 312.21,-278"/>
<polygon fill="red" stroke="red" points="308.71,-277.83 311.66,-288 315.7,-278.21 308.71,-277.83"/>
</a>
</g>
</g>
<!-- Cut16 -->
<g id="node17" class="node">
<title>Cut16</title>
<ellipse fill="none" stroke="black" cx="253.35" cy="-90" rx="27" ry="18"/>
<text text-anchor="middle" x="253.35" y="-86.3" font-family="Times,serif" font-size="14.00">Cut</text>
</g>
<!-- Assign6&#45;&gt;Cut16 -->
<g id="edge53" class="edge">
<title>Assign6&#45;&gt;Cut16</title>
<g id="a_edge53"><a xlink:title="seqBC94">
<path fill="none" stroke="black" d="M253.35,-36.3C253.35,-44.02 253.35,-53.29 253.35,-61.89"/>
<polygon fill="black" stroke="black" points="249.85,-61.9 253.35,-71.9 256.85,-61.9 249.85,-61.9"/>
</a>
</g>
</g>
<!-- Bang7 -->
<g id="node8" class="node">
<title>Bang7</title>
<ellipse fill="none" stroke="black" cx="253.35" cy="-162" rx="29.5" ry="18"/>
<text text-anchor="middle" x="253.35" y="-158.3" font-family="Times,serif" font-size="14.00">Bang</text>
</g>
<!-- PiR12 -->
<g id="node13" class="node">
<title>PiR12</title>
<ellipse fill="none" stroke="black" cx="253.35" cy="-234" rx="27" ry="18"/>
<text text-anchor="middle" x="253.35" y="-230.3" font-family="Times,serif" font-size="14.00">PiR</text>
</g>
<!-- Bang7&#45;&gt;PiR12 -->
<g id="edge31" class="edge">
<title>Bang7&#45;&gt;PiR12</title>
<g id="a_edge31"><a xlink:title="newcut_bseq100">
<path fill="none" stroke="black" d="M247.47,-179.95C246.64,-187.77 246.4,-197.25 246.76,-206.02"/>
<polygon fill="black" stroke="black" points="243.28,-206.49 247.49,-216.21 250.26,-205.99 243.28,-206.49"/>
</a>
</g>
</g>
<!-- Bang7&#45;&gt;PiR12 -->
<g id="edge43" class="edge">
<title>Bang7&#45;&gt;PiR12</title>
<g id="a_edge43"><a xlink:title="newrretf91">
<path fill="none" stroke="red" d="M259.22,-179.95C260.06,-187.77 260.29,-197.25 259.94,-206.02"/>
<polygon fill="red" stroke="red" points="256.43,-205.99 259.21,-216.21 263.41,-206.49 256.43,-205.99"/>
</a>
</g>
</g>
<!-- Dup8 -->
<g id="node9" class="node">
<title>Dup8</title>
<ellipse fill="none" stroke="black" cx="315.35" cy="-666" rx="27" ry="18"/>
<text text-anchor="middle" x="315.35" y="-662.3" font-family="Times,serif" font-size="14.00">Dup</text>
</g>
<!-- Dup8&#45;&gt;Identity3 -->
<g id="edge41" class="edge">
<title>Dup8&#45;&gt;Identity3</title>
<g id="a_edge41"><a xlink:title="newrretf66">
<path fill="none" stroke="red" d="M317.72,-684C321.17,-715.09 324.4,-782.14 296.35,-828 282.71,-850.29 258.21,-866.62 237.24,-877.33"/>
<polygon fill="red" stroke="red" points="235.68,-874.2 228.21,-881.72 238.74,-880.5 235.68,-874.2"/>
</a>
</g>
</g>
<!-- BangC9 -->
<g id="node10" class="node">
<title>BangC9</title>
<ellipse fill="none" stroke="black" cx="230.35" cy="-378" rx="35.19" ry="18"/>
<text text-anchor="middle" x="230.35" y="-374.3" font-family="Times,serif" font-size="14.00">BangC</text>
</g>
<!-- Cut10 -->
<g id="node11" class="node">
<title>Cut10</title>
<ellipse fill="none" stroke="black" cx="230.35" cy="-450" rx="27" ry="18"/>
<text text-anchor="middle" x="230.35" y="-446.3" font-family="Times,serif" font-size="14.00">Cut</text>
</g>
<!-- BangC9&#45;&gt;Cut10 -->
<g id="edge52" class="edge">
<title>BangC9&#45;&gt;Cut10</title>
<g id="a_edge52"><a xlink:title="seqBC118">
<path fill="none" stroke="black" d="M230.35,-396.3C230.35,-404.02 230.35,-413.29 230.35,-421.89"/>
<polygon fill="black" stroke="black" points="226.85,-421.9 230.35,-431.9 233.85,-421.9 226.85,-421.9"/>
</a>
</g>
</g>
<!-- BangC9&#45;&gt;Bang11 -->
<g id="edge9" class="edge">
<title>BangC9&#45;&gt;Bang11</title>
<g id="a_edge9"><a xlink:title="h116">
<path fill="none" stroke="blue" d="M210.07,-402.99C203.91,-411.6 197.85,-421.74 194.35,-432 178.97,-477 179.59,-533.14 181.75,-565.84"/>
<polygon fill="blue" stroke="blue" points="218.96,-397.05 210.13,-402.91 213.38,-392.82 218.96,-397.05"/>
<polygon fill="blue" stroke="blue" points="178.28,-566.28 182.53,-575.98 185.26,-565.74 178.28,-566.28"/>
</a>
</g>
</g>
<!-- BangD17 -->
<g id="node18" class="node">
<title>BangD17</title>
<ellipse fill="none" stroke="black" cx="111.35" cy="-522" rx="36" ry="18"/>
<text text-anchor="middle" x="111.35" y="-518.3" font-family="Times,serif" font-size="14.00">BangD</text>
</g>
<!-- BangC9&#45;&gt;BangD17 -->
<g id="edge13" class="edge">
<title>BangC9&#45;&gt;BangD17</title>
<g id="a_edge13"><a xlink:title="hf107">
<path fill="none" stroke="blue" d="M208.58,-392.36C193.98,-402.07 174.99,-416.24 161.35,-432 144.84,-451.05 131.25,-476.4 122.42,-495.17"/>
<polygon fill="blue" stroke="blue" points="119.21,-493.77 118.25,-504.32 125.58,-496.67 119.21,-493.77"/>
</a>
</g>
</g>
<!-- Cut10&#45;&gt;PiL5 -->
<g id="edge30" class="edge">
<title>Cut10&#45;&gt;PiL5</title>
<g id="a_edge30"><a xlink:title="lval48">
<path fill="none" stroke="blue" d="M224.51,-467.59C223.64,-475.49 223.39,-485.15 223.76,-494.06"/>
<polygon fill="blue" stroke="blue" points="220.27,-494.32 224.47,-504.04 227.25,-493.82 220.27,-494.32"/>
</a>
</g>
</g>
<!-- Cut10&#45;&gt;PiL5 -->
<g id="edge54" class="edge">
<title>Cut10&#45;&gt;PiL5</title>
<g id="a_edge54"><a xlink:title="yseq50">
<path fill="none" stroke="black" d="M236.93,-477.81C237.15,-483.05 237.15,-488.54 236.95,-493.78"/>
<polygon fill="black" stroke="black" points="239.68,-467.34 236.91,-477.56 232.7,-467.84 239.68,-467.34"/>
<polygon fill="black" stroke="black" points="233.43,-493.82 236.23,-504.04 240.42,-494.31 233.43,-493.82"/>
</a>
</g>
</g>
<!-- Cut10&#45;&gt;Dup8 -->
<g id="edge37" class="edge">
<title>Cut10&#45;&gt;Dup8</title>
<g id="a_edge37"><a xlink:title="newrretf108">
<path fill="none" stroke="red" d="M245.03,-465.5C265.88,-487.24 303.1,-530.59 317.35,-576 323.66,-596.12 322.67,-620.08 320.38,-638.07"/>
<polygon fill="red" stroke="red" points="316.89,-637.74 318.88,-648.15 323.81,-638.77 316.89,-637.74"/>
</a>
</g>
</g>
<!-- Cut10&#45;&gt;BangD17 -->
<g id="edge1" class="edge">
<title>Cut10&#45;&gt;BangD17</title>
<g id="a_edge1"><a xlink:title="c_bseq106">
<path fill="none" stroke="black" d="M210.7,-462.56C192.21,-473.43 164.23,-489.89 142.67,-502.57"/>
<polygon fill="black" stroke="black" points="140.71,-499.66 133.87,-507.75 144.26,-505.7 140.71,-499.66"/>
</a>
</g>
</g>
<!-- Bang11&#45;&gt;Dup8 -->
<g id="edge38" class="edge">
<title>Bang11&#45;&gt;Dup8</title>
<g id="a_edge38"><a xlink:title="newrretf114">
<path fill="none" stroke="red" d="M205.69,-606.4C227.45,-618.03 261.38,-636.16 285.74,-649.18"/>
<polygon fill="none" stroke="red" points="284.41,-652.44 294.88,-654.06 287.71,-646.26 284.41,-652.44"/>
</a>
</g>
</g>
<!-- BangD18 -->
<g id="node19" class="node">
<title>BangD18</title>
<ellipse fill="none" stroke="black" cx="184.35" cy="-666" rx="36" ry="18"/>
<text text-anchor="middle" x="184.35" y="-662.3" font-family="Times,serif" font-size="14.00">BangD</text>
</g>
<!-- Bang11&#45;&gt;BangD18 -->
<g id="edge14" class="edge">
<title>Bang11&#45;&gt;BangD18</title>
<g id="a_edge14"><a xlink:title="hf113">
<path fill="none" stroke="blue" d="M178.47,-611.95C177.64,-619.77 177.4,-629.25 177.76,-638.02"/>
<polygon fill="blue" stroke="blue" points="174.28,-638.49 178.49,-648.21 181.26,-637.99 174.28,-638.49"/>
</a>
</g>
</g>
<!-- Bang11&#45;&gt;BangD18 -->
<g id="edge32" class="edge">
<title>Bang11&#45;&gt;BangD18</title>
<g id="a_edge32"><a xlink:title="newcut_bseq125">
<path fill="none" stroke="black" d="M190.22,-611.95C191.06,-619.77 191.29,-629.25 190.94,-638.02"/>
<polygon fill="black" stroke="black" points="187.43,-637.99 190.21,-648.21 194.41,-638.49 187.43,-637.99"/>
</a>
</g>
</g>
<!-- Dup13 -->
<g id="node14" class="node">
<title>Dup13</title>
<ellipse fill="none" stroke="black" cx="230.35" cy="-306" rx="27" ry="18"/>
<text text-anchor="middle" x="230.35" y="-302.3" font-family="Times,serif" font-size="14.00">Dup</text>
</g>
<!-- PiR12&#45;&gt;Dup13 -->
<g id="edge49" class="edge">
<title>PiR12&#45;&gt;Dup13</title>
<g id="a_edge49"><a xlink:title="seq135">
<path fill="none" stroke="black" d="M247.78,-251.95C245.15,-259.94 241.96,-269.67 239.02,-278.6"/>
<polygon fill="none" stroke="black" points="235.66,-277.62 235.86,-288.21 242.31,-279.8 235.66,-277.62"/>
</a>
</g>
</g>
<!-- Dup14 -->
<g id="node15" class="node">
<title>Dup14</title>
<ellipse fill="none" stroke="black" cx="158.35" cy="-306" rx="27" ry="18"/>
<text text-anchor="middle" x="158.35" y="-302.3" font-family="Times,serif" font-size="14.00">Dup</text>
</g>
<!-- PiR12&#45;&gt;Dup14 -->
<g id="edge11" class="edge">
<title>PiR12&#45;&gt;Dup14</title>
<g id="a_edge11"><a xlink:title="h136">
<path fill="none" stroke="blue" d="M235.92,-247.84C221.42,-258.53 200.55,-273.9 184.12,-286.01"/>
<polygon fill="none" stroke="blue" points="181.96,-283.26 175.98,-292.01 186.11,-288.89 181.96,-283.26"/>
</a>
</g>
</g>
<!-- PiR12&#45;&gt;Dup15 -->
<g id="edge45" class="edge">
<title>PiR12&#45;&gt;Dup15</title>
<g id="a_edge45"><a xlink:title="ret137">
<path fill="none" stroke="red" d="M265.71,-250.19C273.26,-259.45 283.05,-271.48 291.54,-281.91"/>
<polygon fill="none" stroke="red" points="288.97,-284.3 298,-289.84 294.4,-279.88 288.97,-284.3"/>
</a>
</g>
</g>
<!-- Dup13&#45;&gt;BangC9 -->
<g id="edge50" class="edge">
<title>Dup13&#45;&gt;BangC9</title>
<g id="a_edge50"><a xlink:title="seq33">
<path fill="none" stroke="black" d="M230.35,-324.3C230.35,-332.02 230.35,-341.29 230.35,-349.89"/>
<polygon fill="black" stroke="black" points="226.85,-349.9 230.35,-359.9 233.85,-349.9 226.85,-349.9"/>
</a>
</g>
</g>
<!-- Dup14&#45;&gt;BangC9 -->
<g id="edge12" class="edge">
<title>Dup14&#45;&gt;BangC9</title>
<g id="a_edge12"><a xlink:title="h34">
<path fill="none" stroke="blue" d="M172.92,-321.17C182.73,-330.71 195.89,-343.5 207.13,-354.43"/>
<polygon fill="blue" stroke="blue" points="204.94,-357.18 214.55,-361.64 209.82,-352.16 204.94,-357.18"/>
</a>
</g>
</g>
<!-- Dup15&#45;&gt;Identity4 -->
<g id="edge46" class="edge">
<title>Dup15&#45;&gt;Identity4</title>
<g id="a_edge46"><a xlink:title="ret42">
<path fill="none" stroke="red" d="M307.96,-324.03C301.28,-371.81 282.32,-507.38 274.16,-565.73"/>
<polygon fill="red" stroke="red" points="270.69,-565.31 272.77,-575.69 277.62,-566.27 270.69,-565.31"/>
</a>
</g>
</g>
<!-- Cut16&#45;&gt;Bang7 -->
<g id="edge7" class="edge">
<title>Cut16&#45;&gt;Bang7</title>
<g id="a_edge7"><a xlink:title="dseq20">
<path fill="none" stroke="black" d="M247.51,-107.59C246.64,-115.49 246.39,-125.15 246.76,-134.06"/>
<polygon fill="black" stroke="black" points="243.27,-134.32 247.47,-144.04 250.25,-133.82 243.27,-134.32"/>
</a>
</g>
</g>
<!-- Cut16&#45;&gt;Bang7 -->
<g id="edge35" class="edge">
<title>Cut16&#45;&gt;Bang7</title>
<g id="a_edge35"><a xlink:title="newrret18">
<path fill="none" stroke="red" d="M259.19,-107.59C260.05,-115.49 260.3,-125.15 259.93,-134.06"/>
<polygon fill="red" stroke="red" points="256.44,-133.82 259.23,-144.04 263.43,-134.32 256.44,-133.82"/>
</a>
</g>
</g>
<!-- Cut16&#45;&gt;Dup13 -->
<g id="edge48" class="edge">
<title>Cut16&#45;&gt;Dup13</title>
<g id="a_edge48"><a xlink:title="seq131">
<path fill="none" stroke="black" d="M232.69,-113.25C225.77,-122.14 218.92,-132.89 215.35,-144 200.7,-189.58 212.22,-245.88 221.55,-278.39"/>
<polygon fill="black" stroke="black" points="241.93,-107.59 232.85,-113.06 236.54,-103.12 241.93,-107.59"/>
<polygon fill="black" stroke="black" points="218.23,-279.5 224.47,-288.07 224.93,-277.48 218.23,-279.5"/>
</a>
</g>
</g>
<!-- Cut16&#45;&gt;Dup14 -->
<g id="edge10" class="edge">
<title>Cut16&#45;&gt;Dup14</title>
<g id="a_edge10"><a xlink:title="h132">
<path fill="none" stroke="blue" d="M237.11,-104.79C226.4,-114.7 212.82,-128.93 204.35,-144 179.92,-187.44 167.58,-244.91 162.09,-278.13"/>
<polygon fill="blue" stroke="blue" points="158.63,-277.59 160.54,-288.01 165.55,-278.68 158.63,-277.59"/>
</a>
</g>
</g>
<!-- PiL19 -->
<g id="node20" class="node">
<title>PiL19</title>
<ellipse fill="none" stroke="black" cx="111.35" cy="-738" rx="27" ry="18"/>
<text text-anchor="middle" x="111.35" y="-734.3" font-family="Times,serif" font-size="14.00">PiL</text>
</g>
<!-- BangD17&#45;&gt;PiL19 -->
<g id="edge15" class="edge">
<title>BangD17&#45;&gt;PiL19</title>
<g id="a_edge15"><a xlink:title="hseq140">
<path fill="none" stroke="black" d="M107.47,-540.15C103.92,-577.26 103.66,-665.25 106.68,-709.95"/>
<polygon fill="black" stroke="black" points="103.2,-710.38 107.49,-720.06 110.18,-709.82 103.2,-710.38"/>
</a>
</g>
</g>
<!-- BangD17&#45;&gt;PiL19 -->
<g id="edge28" class="edge">
<title>BangD17&#45;&gt;PiL19</title>
<g id="a_edge28"><a xlink:title="lval141">
<path fill="none" stroke="blue" d="M115.22,-540.15C118.77,-577.26 119.03,-665.25 116.02,-709.95"/>
<polygon fill="blue" stroke="blue" points="112.52,-709.82 115.2,-720.06 119.49,-710.38 112.52,-709.82"/>
</a>
</g>
</g>
<!-- PiL20 -->
<g id="node21" class="node">
<title>PiL20</title>
<ellipse fill="none" stroke="black" cx="184.35" cy="-738" rx="27" ry="18"/>
<text text-anchor="middle" x="184.35" y="-734.3" font-family="Times,serif" font-size="14.00">PiL</text>
</g>
<!-- BangD18&#45;&gt;PiL20 -->
<g id="edge16" class="edge">
<title>BangD18&#45;&gt;PiL20</title>
<g id="a_edge16"><a xlink:title="hseq143">
<path fill="none" stroke="black" d="M178.47,-683.95C177.64,-691.77 177.4,-701.25 177.76,-710.02"/>
<polygon fill="black" stroke="black" points="174.28,-710.49 178.49,-720.21 181.26,-709.99 174.28,-710.49"/>
</a>
</g>
</g>
<!-- BangD18&#45;&gt;PiL20 -->
<g id="edge29" class="edge">
<title>BangD18&#45;&gt;PiL20</title>
<g id="a_edge29"><a xlink:title="lval144">
<path fill="none" stroke="blue" d="M190.22,-683.95C191.06,-691.77 191.29,-701.25 190.94,-710.02"/>
<polygon fill="blue" stroke="blue" points="187.43,-709.99 190.21,-720.21 194.41,-710.49 187.43,-709.99"/>
</a>
</g>
</g>
<!-- Dup21 -->
<g id="node22" class="node">
<title>Dup21</title>
<ellipse fill="none" stroke="black" cx="184.35" cy="-810" rx="27" ry="18"/>
<text text-anchor="middle" x="184.35" y="-806.3" font-family="Times,serif" font-size="14.00">Dup</text>
</g>
<!-- PiL19&#45;&gt;Dup21 -->
<g id="edge18" class="edge">
<title>PiL19&#45;&gt;Dup21</title>
<g id="a_edge18"><a xlink:title="idseq148">
<path fill="none" stroke="black" d="M133.41,-760.16C142.57,-768.94 153.16,-779.1 162.31,-787.87"/>
<polygon fill="black" stroke="black" points="128.54,-750.64 133.34,-760.09 123.7,-755.69 128.54,-750.64"/>
<polygon fill="black" stroke="black" points="159.96,-790.46 169.6,-794.86 164.8,-785.41 159.96,-790.46"/>
</a>
</g>
</g>
<!-- Dup22 -->
<g id="node23" class="node">
<title>Dup22</title>
<ellipse fill="none" stroke="black" cx="112.35" cy="-810" rx="27" ry="18"/>
<text text-anchor="middle" x="112.35" y="-806.3" font-family="Times,serif" font-size="14.00">Dup</text>
</g>
<!-- PiL19&#45;&gt;Dup22 -->
<g id="edge24" class="edge">
<title>PiL19&#45;&gt;Dup22</title>
<g id="a_edge24"><a xlink:title="lret149">
<path fill="none" stroke="blue" d="M111.59,-756.3C111.7,-764.02 111.84,-773.29 111.96,-781.89"/>
<polygon fill="blue" stroke="blue" points="108.46,-781.95 112.1,-791.9 115.46,-781.85 108.46,-781.95"/>
</a>
</g>
</g>
<!-- Bang23 -->
<g id="node24" class="node">
<title>Bang23</title>
<ellipse fill="none" stroke="black" cx="38.35" cy="-810" rx="29.5" ry="18"/>
<text text-anchor="middle" x="38.35" y="-806.3" font-family="Times,serif" font-size="14.00">Bang</text>
</g>
<!-- PiL19&#45;&gt;Bang23 -->
<g id="edge5" class="edge">
<title>PiL19&#45;&gt;Bang23</title>
<g id="a_edge5"><a xlink:title="dseq146">
<path fill="none" stroke="black" d="M92.98,-751.51C81.69,-760.97 67.5,-774.23 56.31,-785.63"/>
<polygon fill="black" stroke="black" points="53.5,-783.51 49.12,-793.15 58.56,-788.35 53.5,-783.51"/>
</a>
</g>
</g>
<!-- PiL19&#45;&gt;Bang23 -->
<g id="edge33" class="edge">
<title>PiL19&#45;&gt;Bang23</title>
<g id="a_edge33"><a xlink:title="newrret147">
<path fill="none" stroke="red" d="M100.54,-754.88C91.09,-765.08 77.34,-778.39 65.08,-789.26"/>
<polygon fill="red" stroke="red" points="62.57,-786.8 57.3,-795.99 67.15,-792.09 62.57,-786.8"/>
</a>
</g>
</g>
<!-- PiL20&#45;&gt;Dup21 -->
<g id="edge19" class="edge">
<title>PiL20&#45;&gt;Dup21</title>
<g id="a_edge19"><a xlink:title="idseq153">
<path fill="none" stroke="black" d="M184.35,-766.33C184.35,-771.31 184.35,-776.51 184.35,-781.49"/>
<polygon fill="black" stroke="black" points="187.85,-756.3 184.35,-766.3 180.85,-756.3 187.85,-756.3"/>
<polygon fill="none" stroke="black" points="180.85,-781.9 184.35,-791.9 187.85,-781.9 180.85,-781.9"/>
</a>
</g>
</g>
<!-- PiL20&#45;&gt;Dup22 -->
<g id="edge25" class="edge">
<title>PiL20&#45;&gt;Dup22</title>
<g id="a_edge25"><a xlink:title="lret154">
<path fill="none" stroke="blue" d="M169.78,-753.17C159.6,-763.06 145.82,-776.45 134.32,-787.64"/>
<polygon fill="none" stroke="blue" points="131.87,-785.13 127.14,-794.62 136.75,-790.15 131.87,-785.13"/>
</a>
</g>
</g>
<!-- Bang24 -->
<g id="node25" class="node">
<title>Bang24</title>
<ellipse fill="none" stroke="black" cx="258.35" cy="-810" rx="29.5" ry="18"/>
<text text-anchor="middle" x="258.35" y="-806.3" font-family="Times,serif" font-size="14.00">Bang</text>
</g>
<!-- PiL20&#45;&gt;Bang24 -->
<g id="edge6" class="edge">
<title>PiL20&#45;&gt;Bang24</title>
<g id="a_edge6"><a xlink:title="dseq151">
<path fill="none" stroke="black" d="M195.05,-754.54C204.66,-764.78 218.8,-778.28 231.36,-789.28"/>
<polygon fill="black" stroke="black" points="229.45,-792.25 239.32,-796.09 233.99,-786.93 229.45,-792.25"/>
</a>
</g>
</g>
<!-- PiL20&#45;&gt;Bang24 -->
<g id="edge34" class="edge">
<title>PiL20&#45;&gt;Bang24</title>
<g id="a_edge34"><a xlink:title="newrret152">
<path fill="none" stroke="red" d="M202.89,-751.51C214.42,-761.06 228.97,-774.48 240.37,-785.96"/>
<polygon fill="red" stroke="red" points="237.88,-788.41 247.35,-793.15 242.9,-783.54 237.88,-788.41"/>
</a>
</g>
</g>
<!-- Dup21&#45;&gt;Identity3 -->
<g id="edge21" class="edge">
<title>Dup21&#45;&gt;Identity3</title>
<g id="a_edge21"><a xlink:title="idseq77">
<path fill="none" stroke="black" d="M187.45,-827.99C189.47,-838.98 192.13,-853.54 194.42,-866.08"/>
<polygon fill="black" stroke="black" points="191,-866.82 196.24,-876.03 197.89,-865.56 191,-866.82"/>
</a>
</g>
</g>
<!-- Dup22&#45;&gt;Identity3 -->
<g id="edge27" class="edge">
<title>Dup22&#45;&gt;Identity3</title>
<g id="a_edge27"><a xlink:title="lret75">
<path fill="none" stroke="blue" d="M127.5,-825.28C140.68,-837.71 160.02,-855.93 175.31,-870.35"/>
<polygon fill="blue" stroke="blue" points="173.21,-873.17 182.89,-877.48 178.01,-868.08 173.21,-873.17"/>
</a>
</g>
</g>
<!-- Dup25 -->
<g id="node26" class="node">
<title>Dup25</title>
<ellipse fill="none" stroke="black" cx="38.35" cy="-894" rx="27" ry="18"/>
<text text-anchor="middle" x="38.35" y="-890.3" font-family="Times,serif" font-size="14.00">Dup</text>
</g>
<!-- Bang23&#45;&gt;Dup25 -->
<g id="edge2" class="edge">
<title>Bang23&#45;&gt;Dup25</title>
<g id="a_edge2"><a xlink:title="c_bseq156">
<path fill="none" stroke="black" d="M38.35,-828.39C38.35,-839.22 38.35,-853.4 38.35,-865.71"/>
<polygon fill="black" stroke="black" points="34.85,-865.91 38.35,-875.91 41.85,-865.91 34.85,-865.91"/>
</a>
</g>
</g>
<!-- Dup26 -->
<g id="node27" class="node">
<title>Dup26</title>
<ellipse fill="none" stroke="black" cx="113.35" cy="-894" rx="26" ry="26"/>
<ellipse fill="none" stroke="black" cx="113.35" cy="-894" rx="30" ry="30"/>
<text text-anchor="middle" x="113.35" y="-890.3" font-family="Times,serif" font-size="14.00">Dup</text>
</g>
<!-- Bang23&#45;&gt;Dup26 -->
<g id="edge39" class="edge">
<title>Bang23&#45;&gt;Dup26</title>
<g id="a_edge39"><a xlink:title="newrretf157">
<path fill="none" stroke="red" d="M52.1,-826.04C61.7,-836.53 74.82,-850.87 86.45,-863.59"/>
<polygon fill="red" stroke="red" points="84.13,-866.24 93.46,-871.26 89.29,-861.51 84.13,-866.24"/>
</a>
</g>
</g>
<!-- Bang24&#45;&gt;Dup25 -->
<g id="edge3" class="edge">
<title>Bang24&#45;&gt;Dup25</title>
<g id="a_edge3"><a xlink:title="c_bseq159">
<path fill="none" stroke="black" d="M236.11,-821.75C231,-823.99 225.54,-826.21 220.35,-828 157.15,-849.73 134.23,-834.33 74.35,-864 69.82,-866.24 65.34,-869.13 61.17,-872.22"/>
<polygon fill="none" stroke="black" points="58.71,-869.7 53.09,-878.69 63.08,-875.17 58.71,-869.7"/>
</a>
</g>
</g>
<!-- Bang24&#45;&gt;Dup26 -->
<g id="edge40" class="edge">
<title>Bang24&#45;&gt;Dup26</title>
<g id="a_edge40"><a xlink:title="newrretf160">
<path fill="none" stroke="red" d="M234.97,-821.24C213.07,-831.18 179.68,-847.18 152.35,-864 149.92,-865.49 147.46,-867.09 145.01,-868.75"/>
<polygon fill="none" stroke="red" points="142.97,-865.91 136.81,-874.52 147,-871.63 142.97,-865.91"/>
</a>
</g>
</g>
<!-- Dup25&#45;&gt;PiR2 -->
<g id="edge4" class="edge">
<title>Dup25&#45;&gt;PiR2</title>
<g id="a_edge4"><a xlink:title="c_bseq79">
<path fill="none" stroke="black" d="M38.35,-912.39C38.35,-923.22 38.35,-937.4 38.35,-949.7"/>
<polygon fill="black" stroke="black" points="34.85,-949.91 38.35,-959.91 41.85,-949.91 34.85,-949.91"/>
</a>
</g>
</g>
<!-- Dup26&#45;&gt;PiR2 -->
<g id="edge42" class="edge">
<title>Dup26&#45;&gt;PiR2</title>
<g id="a_edge42"><a xlink:title="newrretf78">
<path fill="none" stroke="red" stroke-width="2" d="M93.25,-916.97C82.6,-928.61 69.55,-942.88 58.84,-954.59"/>
<polygon fill="red" stroke="red" stroke-width="2" points="56.03,-952.47 51.86,-962.22 61.2,-957.2 56.03,-952.47"/>
</a>
</g>
</g>
</g>
</svg>
