<?xml version="1.0" encoding="UTF-8" standalone="no"?>
<!DOCTYPE svg PUBLIC "-//W3C//DTD SVG 1.1//EN"
 "http://www.w3.org/Graphics/SVG/1.1/DTD/svg11.dtd">
<!-- Generated by graphviz version 2.49.3 (0)
 -->
<!-- Pages: 1 -->
<svg width="754pt" height="1004pt"
 viewBox="0.00 0.00 753.93 1004.00" xmlns="http://www.w3.org/2000/svg" xmlns:xlink="http://www.w3.org/1999/xlink">
<g id="graph0" class="graph" transform="scale(1 1) rotate(0) translate(4 1000)">
<polygon fill="white" stroke="transparent" points="-4,4 -4,-1000 749.93,-1000 749.93,4 -4,4"/>
<!-- I0 -->
<g id="node1" class="node">
<title>I0</title>
<ellipse fill="none" stroke="black" cx="421.34" cy="-966" rx="27" ry="18"/>
<text text-anchor="middle" x="421.34" y="-962.3" font-family="Times,serif" font-size="14.00">I</text>
</g>
<!-- Dup19 -->
<g id="node20" class="node">
<title>Dup19</title>
<ellipse fill="none" stroke="black" cx="328.34" cy="-882" rx="27" ry="18"/>
<text text-anchor="middle" x="328.34" y="-878.3" font-family="Times,serif" font-size="14.00">Dup</text>
</g>
<!-- I0&#45;&gt;Dup19 -->
<g id="edge14" class="edge">
<title>I0&#45;&gt;Dup19</title>
<g id="a_edge14"><a xlink:title="lret75">
<path fill="none" stroke="blue" d="M397.81,-944.25C381.03,-929.45 358.91,-909.96 344.19,-896.98"/>
<polygon fill="blue" stroke="blue" points="395.75,-947.1 405.56,-951.09 400.38,-941.85 395.75,-947.1"/>
</a>
</g>
</g>
<!-- I1 -->
<g id="node2" class="node">
<title>I1</title>
<ellipse fill="none" stroke="black" cx="113.34" cy="-234" rx="27" ry="18"/>
<text text-anchor="middle" x="113.34" y="-230.3" font-family="Times,serif" font-size="14.00">I</text>
</g>
<!-- @2 -->
<g id="node3" class="node">
<title>@2</title>
<ellipse fill="none" stroke="black" cx="121.34" cy="-162" rx="27" ry="18"/>
<text text-anchor="middle" x="121.34" y="-158.3" font-family="Times,serif" font-size="14.00">@</text>
</g>
<!-- I1&#45;&gt;@2 -->
<g id="edge13" class="edge">
<title>I1&#45;&gt;@2</title>
<g id="a_edge13"><a xlink:title="lret53">
<path fill="none" stroke="blue" d="M116.46,-205.67C117.45,-197.05 118.5,-187.79 119.38,-180.1"/>
<polygon fill="blue" stroke="blue" points="112.97,-205.36 115.32,-215.7 119.93,-206.16 112.97,-205.36"/>
</a>
</g>
</g>
<!-- Cut7 -->
<g id="node8" class="node">
<title>Cut7</title>
<ellipse fill="none" stroke="black" cx="121.34" cy="-90" rx="27" ry="18"/>
<text text-anchor="middle" x="121.34" y="-86.3" font-family="Times,serif" font-size="14.00">Cut</text>
</g>
<!-- @2&#45;&gt;Cut7 -->
<g id="edge17" class="edge">
<title>@2&#45;&gt;Cut7</title>
<g id="a_edge17"><a xlink:title="lval48">
<path fill="none" stroke="blue" d="M121.34,-133.67C121.34,-125.05 121.34,-115.79 121.34,-108.1"/>
<polygon fill="blue" stroke="blue" points="117.84,-133.7 121.34,-143.7 124.84,-133.7 117.84,-133.7"/>
</a>
</g>
</g>
<!-- !p8 -->
<g id="node9" class="node">
<title>!p8</title>
<ellipse fill="none" stroke="black" cx="193.34" cy="-90" rx="27" ry="18"/>
<text text-anchor="middle" x="193.34" y="-86.3" font-family="Times,serif" font-size="14.00">!p</text>
</g>
<!-- @2&#45;&gt;!p8 -->
<g id="edge21" class="edge">
<title>@2&#45;&gt;!p8</title>
<g id="a_edge21"><a xlink:title="newrret52">
<path fill="none" stroke="red" d="M135.91,-146.83C146.09,-136.94 159.86,-123.55 171.37,-112.36"/>
<polygon fill="red" stroke="red" points="173.81,-114.87 178.54,-105.38 168.93,-109.85 173.81,-114.87"/>
</a>
</g>
</g>
<!-- Assign3 -->
<g id="node4" class="node">
<title>Assign3</title>
<ellipse fill="none" stroke="black" cx="113.34" cy="-378" rx="35.19" ry="18"/>
<text text-anchor="middle" x="113.34" y="-374.3" font-family="Times,serif" font-size="14.00">Assign</text>
</g>
<!-- Dup12 -->
<g id="node13" class="node">
<title>Dup12</title>
<ellipse fill="none" stroke="black" cx="113.34" cy="-306" rx="27" ry="18"/>
<text text-anchor="middle" x="113.34" y="-302.3" font-family="Times,serif" font-size="14.00">Dup</text>
</g>
<!-- Assign3&#45;&gt;Dup12 -->
<g id="edge28" class="edge">
<title>Assign3&#45;&gt;Dup12</title>
<g id="a_edge28"><a xlink:title="ret133">
<path fill="none" stroke="red" d="M113.34,-359.7C113.34,-351.98 113.34,-342.71 113.34,-334.11"/>
<polygon fill="red" stroke="red" points="116.84,-334.1 113.34,-324.1 109.84,-334.1 116.84,-334.1"/>
</a>
</g>
</g>
<!-- !p4 -->
<g id="node5" class="node">
<title>!p4</title>
<ellipse fill="none" stroke="black" cx="45.34" cy="-450" rx="27" ry="18"/>
<text text-anchor="middle" x="45.34" y="-446.3" font-family="Times,serif" font-size="14.00">!p</text>
</g>
<!-- λ9 -->
<g id="node10" class="node">
<title>λ9</title>
<ellipse fill="none" stroke="black" cx="33.34" cy="-378" rx="27" ry="18"/>
<text text-anchor="middle" x="33.34" y="-374.3" font-family="Times,serif" font-size="14.00">λ</text>
</g>
<!-- !p4&#45;&gt;λ9 -->
<g id="edge27" class="edge">
<title>!p4&#45;&gt;λ9</title>
<g id="a_edge27"><a xlink:title="newrretf91">
<path fill="none" stroke="red" d="M42.43,-432.05C41.11,-424.35 39.51,-415.03 38.03,-406.36"/>
<polygon fill="red" stroke="red" points="41.44,-405.54 36.3,-396.28 34.54,-406.72 41.44,-405.54"/>
</a>
</g>
</g>
<!-- Dup5 -->
<g id="node6" class="node">
<title>Dup5</title>
<ellipse fill="none" stroke="black" cx="193.34" cy="-18" rx="27" ry="18"/>
<text text-anchor="middle" x="193.34" y="-14.3" font-family="Times,serif" font-size="14.00">Dup</text>
</g>
<!-- Dup5&#45;&gt;I0 -->
<g id="edge26" class="edge">
<title>Dup5&#45;&gt;I0</title>
<g id="a_edge26"><a xlink:title="newrretf66">
<path fill="none" stroke="red" d="M219.49,-22.72C279.38,-32.85 421.34,-66.8 421.34,-161 421.34,-811 421.34,-811 421.34,-811 421.34,-855.29 421.34,-906.74 421.34,-937.54"/>
<polygon fill="red" stroke="red" points="417.84,-937.91 421.34,-947.91 424.84,-937.91 417.84,-937.91"/>
</a>
</g>
</g>
<!-- !c6 -->
<g id="node7" class="node">
<title>!c6</title>
<ellipse fill="none" stroke="black" cx="117.34" cy="-666" rx="27" ry="18"/>
<text text-anchor="middle" x="117.34" y="-662.3" font-family="Times,serif" font-size="14.00">!c</text>
</g>
<!-- Dup11 -->
<g id="node12" class="node">
<title>Dup11</title>
<ellipse fill="none" stroke="black" cx="45.34" cy="-594" rx="27" ry="18"/>
<text text-anchor="middle" x="45.34" y="-590.3" font-family="Times,serif" font-size="14.00">Dup</text>
</g>
<!-- !c6&#45;&gt;Dup11 -->
<g id="edge4" class="edge">
<title>!c6&#45;&gt;Dup11</title>
<g id="a_edge4"><a xlink:title="h34">
<path fill="none" stroke="blue" d="M95.29,-643.57C83.89,-632.48 70.27,-619.24 60.13,-609.38"/>
<polygon fill="blue" stroke="blue" points="93.16,-646.37 102.77,-650.83 98.04,-641.35 93.16,-646.37"/>
</a>
</g>
</g>
<!-- Cut7&#45;&gt;Dup5 -->
<g id="edge22" class="edge">
<title>Cut7&#45;&gt;Dup5</title>
<g id="a_edge22"><a xlink:title="newrretf108">
<path fill="none" stroke="red" d="M135.91,-74.83C146.09,-64.94 159.86,-51.55 171.37,-40.36"/>
<polygon fill="red" stroke="red" points="173.81,-42.87 178.54,-33.38 168.93,-37.85 173.81,-42.87"/>
</a>
</g>
</g>
<!-- !p8&#45;&gt;Dup5 -->
<g id="edge23" class="edge">
<title>!p8&#45;&gt;Dup5</title>
<g id="a_edge23"><a xlink:title="newrretf114">
<path fill="none" stroke="red" d="M193.34,-71.7C193.34,-63.98 193.34,-54.71 193.34,-46.11"/>
<polygon fill="none" stroke="red" points="196.84,-46.1 193.34,-36.1 189.84,-46.1 196.84,-46.1"/>
</a>
</g>
</g>
<!-- !p8&#45;&gt;!c6 -->
<g id="edge1" class="edge">
<title>!p8&#45;&gt;!c6</title>
<g id="a_edge1"><a xlink:title="h116">
<path fill="none" stroke="blue" d="M188.17,-117.96C183.17,-146.44 176.34,-192.71 176.34,-233 176.34,-307 176.34,-307 176.34,-307 176.34,-432.38 140.67,-579.22 124.8,-638.35"/>
<polygon fill="blue" stroke="blue" points="191.64,-118.43 189.98,-107.97 184.75,-117.19 191.64,-118.43"/>
<polygon fill="blue" stroke="blue" points="118.79,-647.11 124.79,-638.37 125.54,-648.94 118.79,-647.11"/>
</a>
</g>
</g>
<!-- λ9&#45;&gt;Dup12 -->
<g id="edge29" class="edge">
<title>λ9&#45;&gt;Dup12</title>
<g id="a_edge29"><a xlink:title="ret137">
<path fill="none" stroke="red" d="M49.14,-363.17C60.76,-353.01 76.73,-339.03 89.84,-327.56"/>
<polygon fill="none" stroke="red" points="92.34,-330.02 97.56,-320.8 87.73,-324.75 92.34,-330.02"/>
</a>
</g>
</g>
<!-- Dup10 -->
<g id="node11" class="node">
<title>Dup10</title>
<ellipse fill="none" stroke="black" cx="493.34" cy="-966" rx="27" ry="18"/>
<text text-anchor="middle" x="493.34" y="-962.3" font-family="Times,serif" font-size="14.00">Dup</text>
</g>
<!-- Dup11&#45;&gt;λ9 -->
<g id="edge3" class="edge">
<title>Dup11&#45;&gt;λ9</title>
<g id="a_edge3"><a xlink:title="h136">
<path fill="none" stroke="blue" d="M25.26,-569.92C18.88,-561.15 12.62,-550.69 9.34,-540 -4.77,-494.12 -0.79,-478.92 9.34,-432 12.15,-418.97 18.44,-405.28 23.88,-395.08"/>
<polygon fill="none" stroke="blue" points="22.69,-572.31 31.59,-578.07 28.22,-568.02 22.69,-572.31"/>
</a>
</g>
</g>
<!-- Cut13 -->
<g id="node14" class="node">
<title>Cut13</title>
<ellipse fill="none" stroke="black" cx="45.34" cy="-522" rx="27" ry="18"/>
<text text-anchor="middle" x="45.34" y="-518.3" font-family="Times,serif" font-size="14.00">Cut</text>
</g>
<!-- Dup11&#45;&gt;Cut13 -->
<g id="edge2" class="edge">
<title>Dup11&#45;&gt;Cut13</title>
<g id="a_edge2"><a xlink:title="h132">
<path fill="none" stroke="blue" d="M45.34,-565.67C45.34,-557.05 45.34,-547.79 45.34,-540.1"/>
<polygon fill="blue" stroke="blue" points="41.84,-565.7 45.34,-575.7 48.84,-565.7 41.84,-565.7"/>
</a>
</g>
</g>
<!-- Dup12&#45;&gt;I1 -->
<g id="edge32" class="edge">
<title>Dup12&#45;&gt;I1</title>
<g id="a_edge32"><a xlink:title="ret42">
<path fill="none" stroke="red" d="M113.34,-287.7C113.34,-279.98 113.34,-270.71 113.34,-262.11"/>
<polygon fill="red" stroke="red" points="116.84,-262.1 113.34,-252.1 109.84,-262.1 116.84,-262.1"/>
</a>
</g>
</g>
<!-- Cut13&#45;&gt;!p4 -->
<g id="edge20" class="edge">
<title>Cut13&#45;&gt;!p4</title>
<g id="a_edge20"><a xlink:title="newrret18">
<path fill="none" stroke="red" d="M45.34,-503.7C45.34,-495.98 45.34,-486.71 45.34,-478.11"/>
<polygon fill="red" stroke="red" points="48.84,-478.1 45.34,-468.1 41.84,-478.1 48.84,-478.1"/>
</a>
</g>
</g>
<!-- !d14 -->
<g id="node15" class="node">
<title>!d14</title>
<ellipse fill="none" stroke="black" cx="117.34" cy="-738" rx="27" ry="18"/>
<text text-anchor="middle" x="117.34" y="-734.3" font-family="Times,serif" font-size="14.00">!d</text>
</g>
<!-- !d14&#45;&gt;!c6 -->
<g id="edge5" class="edge">
<title>!d14&#45;&gt;!c6</title>
<g id="a_edge5"><a xlink:title="hf107">
<path fill="none" stroke="blue" d="M117.34,-709.67C117.34,-701.05 117.34,-691.79 117.34,-684.1"/>
<polygon fill="blue" stroke="blue" points="113.84,-709.7 117.34,-719.7 120.84,-709.7 113.84,-709.7"/>
</a>
</g>
</g>
<!-- !d15 -->
<g id="node16" class="node">
<title>!d15</title>
<ellipse fill="none" stroke="black" cx="243.34" cy="-450" rx="27" ry="18"/>
<text text-anchor="middle" x="243.34" y="-446.3" font-family="Times,serif" font-size="14.00">!d</text>
</g>
<!-- !d15&#45;&gt;!p8 -->
<g id="edge6" class="edge">
<title>!d15&#45;&gt;!p8</title>
<g id="a_edge6"><a xlink:title="hf113">
<path fill="none" stroke="blue" d="M240.3,-421.96C237.36,-393.42 233.34,-347.1 233.34,-307 233.34,-307 233.34,-307 233.34,-233 233.34,-186.13 212.9,-133.71 201.24,-107.62"/>
<polygon fill="blue" stroke="blue" points="236.82,-422.4 241.36,-431.98 243.79,-421.66 236.82,-422.4"/>
</a>
</g>
</g>
<!-- @16 -->
<g id="node17" class="node">
<title>@16</title>
<ellipse fill="none" stroke="black" cx="189.34" cy="-810" rx="27" ry="18"/>
<text text-anchor="middle" x="189.34" y="-806.3" font-family="Times,serif" font-size="14.00">@</text>
</g>
<!-- @16&#45;&gt;!d14 -->
<g id="edge15" class="edge">
<title>@16&#45;&gt;!d14</title>
<g id="a_edge15"><a xlink:title="lval141">
<path fill="none" stroke="blue" d="M167.29,-787.57C155.89,-776.48 142.27,-763.24 132.13,-753.38"/>
<polygon fill="blue" stroke="blue" points="165.16,-790.37 174.77,-794.83 170.04,-785.35 165.16,-790.37"/>
</a>
</g>
</g>
<!-- !p20 -->
<g id="node21" class="node">
<title>!p20</title>
<ellipse fill="none" stroke="black" cx="189.34" cy="-738" rx="27" ry="18"/>
<text text-anchor="middle" x="189.34" y="-734.3" font-family="Times,serif" font-size="14.00">!p</text>
</g>
<!-- @16&#45;&gt;!p20 -->
<g id="edge18" class="edge">
<title>@16&#45;&gt;!p20</title>
<g id="a_edge18"><a xlink:title="newrret147">
<path fill="none" stroke="red" d="M189.34,-791.7C189.34,-783.98 189.34,-774.71 189.34,-766.11"/>
<polygon fill="red" stroke="red" points="192.84,-766.1 189.34,-756.1 185.84,-766.1 192.84,-766.1"/>
</a>
</g>
</g>
<!-- @17 -->
<g id="node18" class="node">
<title>@17</title>
<ellipse fill="none" stroke="black" cx="328.34" cy="-810" rx="27" ry="18"/>
<text text-anchor="middle" x="328.34" y="-806.3" font-family="Times,serif" font-size="14.00">@</text>
</g>
<!-- @17&#45;&gt;!d15 -->
<g id="edge16" class="edge">
<title>@17&#45;&gt;!d15</title>
<g id="a_edge16"><a xlink:title="lval144">
<path fill="none" stroke="blue" d="M309.48,-785.47C303.22,-776.66 296.73,-766.28 292.34,-756 276.46,-718.8 273.34,-707.45 273.34,-667 273.34,-667 273.34,-667 273.34,-593 273.34,-546.89 258.01,-494.14 249.26,-467.81"/>
<polygon fill="blue" stroke="blue" points="306.82,-787.76 315.59,-793.7 312.44,-783.59 306.82,-787.76"/>
</a>
</g>
</g>
<!-- !p21 -->
<g id="node22" class="node">
<title>!p21</title>
<ellipse fill="none" stroke="black" cx="328.34" cy="-738" rx="27" ry="18"/>
<text text-anchor="middle" x="328.34" y="-734.3" font-family="Times,serif" font-size="14.00">!p</text>
</g>
<!-- @17&#45;&gt;!p21 -->
<g id="edge19" class="edge">
<title>@17&#45;&gt;!p21</title>
<g id="a_edge19"><a xlink:title="newrret152">
<path fill="none" stroke="red" d="M328.34,-791.7C328.34,-783.98 328.34,-774.71 328.34,-766.11"/>
<polygon fill="red" stroke="red" points="331.84,-766.1 328.34,-756.1 324.84,-766.1 331.84,-766.1"/>
</a>
</g>
</g>
<!-- Dup18 -->
<g id="node19" class="node">
<title>Dup18</title>
<ellipse fill="none" stroke="black" cx="565.34" cy="-966" rx="27" ry="18"/>
<text text-anchor="middle" x="565.34" y="-962.3" font-family="Times,serif" font-size="14.00">Dup</text>
</g>
<!-- Dup19&#45;&gt;@16 -->
<g id="edge11" class="edge">
<title>Dup19&#45;&gt;@16</title>
<g id="a_edge11"><a xlink:title="lret149">
<path fill="none" stroke="blue" d="M298.31,-865.88C271.75,-852.5 233.69,-833.33 210.29,-821.55"/>
<polygon fill="blue" stroke="blue" points="297.02,-869.15 307.53,-870.52 300.17,-862.9 297.02,-869.15"/>
</a>
</g>
</g>
<!-- Dup19&#45;&gt;@17 -->
<g id="edge12" class="edge">
<title>Dup19&#45;&gt;@17</title>
<g id="a_edge12"><a xlink:title="lret154">
<path fill="none" stroke="blue" d="M328.34,-853.67C328.34,-845.05 328.34,-835.79 328.34,-828.1"/>
<polygon fill="none" stroke="blue" points="324.84,-853.7 328.34,-863.7 331.84,-853.7 324.84,-853.7"/>
</a>
</g>
</g>
<!-- λ22 -->
<g id="node23" class="node">
<title>λ22</title>
<ellipse fill="none" stroke="black" cx="189.34" cy="-666" rx="27" ry="18"/>
<text text-anchor="middle" x="189.34" y="-662.3" font-family="Times,serif" font-size="14.00">λ</text>
</g>
<!-- !p20&#45;&gt;λ22 -->
<g id="edge24" class="edge">
<title>!p20&#45;&gt;λ22</title>
<g id="a_edge24"><a xlink:title="newrretf157">
<path fill="none" stroke="red" d="M189.34,-719.7C189.34,-711.98 189.34,-702.71 189.34,-694.11"/>
<polygon fill="red" stroke="red" points="192.84,-694.1 189.34,-684.1 185.84,-694.1 192.84,-694.1"/>
</a>
</g>
</g>
<!-- λ23 -->
<g id="node24" class="node">
<title>λ23</title>
<ellipse fill="none" stroke="black" cx="328.34" cy="-666" rx="27" ry="18"/>
<text text-anchor="middle" x="328.34" y="-662.3" font-family="Times,serif" font-size="14.00">λ</text>
</g>
<!-- !p21&#45;&gt;λ23 -->
<g id="edge25" class="edge">
<title>!p21&#45;&gt;λ23</title>
<g id="a_edge25"><a xlink:title="newrretf160">
<path fill="none" stroke="red" d="M328.34,-719.7C328.34,-711.98 328.34,-702.71 328.34,-694.11"/>
<polygon fill="red" stroke="red" points="331.84,-694.1 328.34,-684.1 324.84,-694.1 331.84,-694.1"/>
</a>
</g>
</g>
<!-- I27 -->
<g id="node28" class="node">
<title>I27</title>
<ellipse fill="none" stroke="black" cx="180.34" cy="-594" rx="27" ry="18"/>
<text text-anchor="middle" x="180.34" y="-590.3" font-family="Times,serif" font-size="14.00">I</text>
</g>
<!-- λ22&#45;&gt;I27 -->
<g id="edge30" class="edge">
<title>λ22&#45;&gt;I27</title>
<g id="a_edge30"><a xlink:title="ret164">
<path fill="none" stroke="red" d="M187.16,-648.05C186.17,-640.35 184.97,-631.03 183.86,-622.36"/>
<polygon fill="red" stroke="red" points="187.31,-621.75 182.56,-612.28 180.36,-622.64 187.31,-621.75"/>
</a>
</g>
</g>
<!-- I28 -->
<g id="node29" class="node">
<title>I28</title>
<ellipse fill="none" stroke="black" cx="328.34" cy="-594" rx="27" ry="18"/>
<text text-anchor="middle" x="328.34" y="-590.3" font-family="Times,serif" font-size="14.00">I</text>
</g>
<!-- λ23&#45;&gt;I28 -->
<g id="edge31" class="edge">
<title>λ23&#45;&gt;I28</title>
<g id="a_edge31"><a xlink:title="ret168">
<path fill="none" stroke="red" d="M328.34,-647.7C328.34,-639.98 328.34,-630.71 328.34,-622.11"/>
<polygon fill="red" stroke="red" points="331.84,-622.1 328.34,-612.1 324.84,-622.1 331.84,-622.1"/>
</a>
</g>
</g>
<!-- !d24 -->
<g id="node25" class="node">
<title>!d24</title>
<ellipse fill="none" stroke="black" cx="209.34" cy="-522" rx="27" ry="18"/>
<text text-anchor="middle" x="209.34" y="-518.3" font-family="Times,serif" font-size="14.00">!d</text>
</g>
<!-- !d24&#45;&gt;λ22 -->
<g id="edge7" class="edge">
<title>!d24&#45;&gt;λ22</title>
<g id="a_edge7"><a xlink:title="i163">
<path fill="none" stroke="blue" d="M215.78,-549.97C218.99,-567.8 221.24,-591.56 216.34,-612 213.16,-625.25 206.08,-638.93 199.97,-649.07"/>
<polygon fill="blue" stroke="blue" points="219.17,-549.09 213.77,-539.98 212.31,-550.47 219.17,-549.09"/>
</a>
</g>
</g>
<!-- !d25 -->
<g id="node26" class="node">
<title>!d25</title>
<ellipse fill="none" stroke="black" cx="347.34" cy="-522" rx="27" ry="18"/>
<text text-anchor="middle" x="347.34" y="-518.3" font-family="Times,serif" font-size="14.00">!d</text>
</g>
<!-- !d25&#45;&gt;λ23 -->
<g id="edge8" class="edge">
<title>!d25&#45;&gt;λ23</title>
<g id="a_edge8"><a xlink:title="i167">
<path fill="none" stroke="blue" d="M358.83,-548.85C365.23,-566.81 370.74,-591.16 364.34,-612 359.96,-626.25 350.3,-640.1 342.09,-650.07"/>
<polygon fill="blue" stroke="blue" points="362.02,-547.4 355.15,-539.34 355.5,-549.93 362.02,-547.4"/>
</a>
</g>
</g>
<!-- Dup26 -->
<g id="node27" class="node">
<title>Dup26</title>
<ellipse fill="none" stroke="black" cx="640.34" cy="-966" rx="26" ry="26"/>
<ellipse fill="none" stroke="black" cx="640.34" cy="-966" rx="30" ry="30"/>
<text text-anchor="middle" x="640.34" y="-962.3" font-family="Times,serif" font-size="14.00">Dup</text>
</g>
<!-- I27&#45;&gt;!d24 -->
<g id="edge9" class="edge">
<title>I27&#45;&gt;!d24</title>
<g id="a_edge9"><a xlink:title="iret171">
<path fill="none" stroke="blue" d="M191.15,-566.91C194.95,-557.72 199.13,-547.65 202.51,-539.47"/>
<polygon fill="blue" stroke="blue" points="187.8,-565.83 187.21,-576.41 194.27,-568.51 187.8,-565.83"/>
</a>
</g>
</g>
<!-- I28&#45;&gt;!d25 -->
<g id="edge10" class="edge">
<title>I28&#45;&gt;!d25</title>
<g id="a_edge10"><a xlink:title="iret174">
<path fill="none" stroke="blue" d="M335.63,-566.14C338.03,-557.28 340.64,-547.68 342.78,-539.79"/>
<polygon fill="blue" stroke="blue" points="332.18,-565.49 332.94,-576.05 338.93,-567.32 332.18,-565.49"/>
</a>
</g>
</g>
<!-- DupI29 -->
<g id="node30" class="node">
<title>DupI29</title>
<ellipse fill="none" stroke="black" cx="717.34" cy="-966" rx="28.7" ry="18"/>
<text text-anchor="middle" x="717.34" y="-962.3" font-family="Times,serif" font-size="14.00">DupI</text>
</g>
</g>
</svg>
