<?xml version="1.0" encoding="UTF-8" standalone="no"?>
<!DOCTYPE svg PUBLIC "-//W3C//DTD SVG 1.1//EN"
 "http://www.w3.org/Graphics/SVG/1.1/DTD/svg11.dtd">
<!-- Generated by graphviz version 2.49.3 (0)
 -->
<!-- Pages: 1 -->
<svg width="276pt" height="1148pt"
 viewBox="0.00 0.00 276.18 1148.00" xmlns="http://www.w3.org/2000/svg" xmlns:xlink="http://www.w3.org/1999/xlink">
<g id="graph0" class="graph" transform="scale(1 1) rotate(0) translate(4 1144)">
<polygon fill="white" stroke="transparent" points="-4,4 -4,-1144 272.18,-1144 272.18,4 -4,4"/>
<!-- Identity0 -->
<g id="node1" class="node">
<title>Identity0</title>
<ellipse fill="none" stroke="black" cx="55.75" cy="-1122" rx="38.19" ry="18"/>
<text text-anchor="middle" x="55.75" y="-1118.3" font-family="Times,serif" font-size="14.00">Identity</text>
</g>
<!-- BangD1 -->
<g id="node2" class="node">
<title>BangD1</title>
<ellipse fill="none" stroke="black" cx="55.75" cy="-1050" rx="36" ry="18"/>
<text text-anchor="middle" x="55.75" y="-1046.3" font-family="Times,serif" font-size="14.00">BangD</text>
</g>
<!-- BangD1&#45;&gt;Identity0 -->
<g id="edge18" class="edge">
<title>BangD1&#45;&gt;Identity0</title>
<g id="a_edge18"><a xlink:title="iret84">
<path fill="none" stroke="blue" d="M49.87,-1067.94C49.04,-1075.76 48.8,-1085.25 49.16,-1094.02"/>
<polygon fill="blue" stroke="blue" points="45.68,-1094.48 49.89,-1104.21 52.66,-1093.98 45.68,-1094.48"/>
</a>
</g>
</g>
<!-- BangD1&#45;&gt;Identity0 -->
<g id="edge19" class="edge">
<title>BangD1&#45;&gt;Identity0</title>
<g id="a_edge19"><a xlink:title="iseq83">
<path fill="none" stroke="black" d="M61.63,-1067.94C62.46,-1075.76 62.69,-1085.25 62.34,-1094.02"/>
<polygon fill="black" stroke="black" points="58.83,-1093.98 61.61,-1104.21 65.81,-1094.48 58.83,-1093.98"/>
</a>
</g>
</g>
<!-- PiR2 -->
<g id="node3" class="node">
<title>PiR2</title>
<ellipse fill="none" stroke="black" cx="55.75" cy="-978" rx="27" ry="18"/>
<text text-anchor="middle" x="55.75" y="-974.3" font-family="Times,serif" font-size="14.00">PiR</text>
</g>
<!-- PiR2&#45;&gt;Identity0 -->
<g id="edge39" class="edge">
<title>PiR2&#45;&gt;Identity0</title>
<g id="a_edge39"><a xlink:title="ret82">
<path fill="none" stroke="red" d="M39.54,-992.43C29.12,-1002.18 16.49,-1016.36 10.75,-1032 5.23,-1047.01 5.23,-1052.98 10.75,-1068 14.89,-1079.27 22.61,-1089.79 30.51,-1098.44"/>
<polygon fill="red" stroke="red" points="28.22,-1101.11 37.71,-1105.82 33.23,-1096.22 28.22,-1101.11"/>
</a>
</g>
</g>
<!-- PiR2&#45;&gt;BangD1 -->
<g id="edge15" class="edge">
<title>PiR2&#45;&gt;BangD1</title>
<g id="a_edge15"><a xlink:title="i81">
<path fill="none" stroke="blue" d="M49.91,-995.58C49.04,-1003.49 48.79,-1013.14 49.16,-1022.06"/>
<polygon fill="blue" stroke="blue" points="45.67,-1022.31 49.87,-1032.04 52.65,-1021.82 45.67,-1022.31"/>
</a>
</g>
</g>
<!-- PiR2&#45;&gt;BangD1 -->
<g id="edge43" class="edge">
<title>PiR2&#45;&gt;BangD1</title>
<g id="a_edge43"><a xlink:title="seq80">
<path fill="none" stroke="black" d="M61.59,-995.58C62.45,-1003.49 62.7,-1013.14 62.33,-1022.06"/>
<polygon fill="black" stroke="black" points="58.84,-1021.82 61.63,-1032.04 65.83,-1022.31 58.84,-1021.82"/>
</a>
</g>
</g>
<!-- Bang3 -->
<g id="node4" class="node">
<title>Bang3</title>
<ellipse fill="none" stroke="black" cx="55.75" cy="-906" rx="29.5" ry="18"/>
<text text-anchor="middle" x="55.75" y="-902.3" font-family="Times,serif" font-size="14.00">Bang</text>
</g>
<!-- Bang3&#45;&gt;PiR2 -->
<g id="edge2" class="edge">
<title>Bang3&#45;&gt;PiR2</title>
<g id="a_edge2"><a xlink:title="c_bseq79">
<path fill="none" stroke="black" d="M49.87,-923.94C49.04,-931.76 48.8,-941.25 49.16,-950.02"/>
<polygon fill="black" stroke="black" points="45.68,-950.48 49.89,-960.21 52.66,-949.98 45.68,-950.48"/>
</a>
</g>
</g>
<!-- Bang3&#45;&gt;PiR2 -->
<g id="edge34" class="edge">
<title>Bang3&#45;&gt;PiR2</title>
<g id="a_edge34"><a xlink:title="newrretf78">
<path fill="none" stroke="red" d="M61.63,-923.94C62.46,-931.76 62.69,-941.25 62.34,-950.02"/>
<polygon fill="red" stroke="red" points="58.83,-949.98 61.61,-960.21 65.81,-950.48 58.83,-949.98"/>
</a>
</g>
</g>
<!-- Identity4 -->
<g id="node5" class="node">
<title>Identity4</title>
<ellipse fill="none" stroke="black" cx="141.75" cy="-906" rx="38.19" ry="18"/>
<text text-anchor="middle" x="141.75" y="-902.3" font-family="Times,serif" font-size="14.00">Identity</text>
</g>
<!-- PiL5 -->
<g id="node6" class="node">
<title>PiL5</title>
<ellipse fill="none" stroke="black" cx="55.75" cy="-834" rx="27" ry="18"/>
<text text-anchor="middle" x="55.75" y="-830.3" font-family="Times,serif" font-size="14.00">PiL</text>
</g>
<!-- PiL5&#45;&gt;Bang3 -->
<g id="edge5" class="edge">
<title>PiL5&#45;&gt;Bang3</title>
<g id="a_edge5"><a xlink:title="dseq76">
<path fill="none" stroke="black" d="M49.91,-851.58C49.04,-859.49 48.79,-869.14 49.16,-878.06"/>
<polygon fill="black" stroke="black" points="45.67,-878.31 49.87,-888.04 52.65,-877.82 45.67,-878.31"/>
</a>
</g>
</g>
<!-- PiL5&#45;&gt;Bang3 -->
<g id="edge30" class="edge">
<title>PiL5&#45;&gt;Bang3</title>
<g id="a_edge30"><a xlink:title="newrret74">
<path fill="none" stroke="red" d="M61.59,-851.58C62.45,-859.49 62.7,-869.14 62.33,-878.06"/>
<polygon fill="red" stroke="red" points="58.84,-877.82 61.63,-888.04 65.83,-878.31 58.84,-877.82"/>
</a>
</g>
</g>
<!-- PiL5&#45;&gt;Identity4 -->
<g id="edge17" class="edge">
<title>PiL5&#45;&gt;Identity4</title>
<g id="a_edge17"><a xlink:title="idseq77">
<path fill="none" stroke="black" d="M76.3,-856.86C86.78,-865.91 99.64,-876.33 111.22,-885.16"/>
<polygon fill="black" stroke="black" points="71.04,-847.56 76.23,-856.8 66.41,-852.81 71.04,-847.56"/>
<polygon fill="black" stroke="black" points="109.28,-888.07 119.38,-891.26 113.47,-882.47 109.28,-888.07"/>
</a>
</g>
</g>
<!-- PiL5&#45;&gt;Identity4 -->
<g id="edge21" class="edge">
<title>PiL5&#45;&gt;Identity4</title>
<g id="a_edge21"><a xlink:title="lret75">
<path fill="none" stroke="blue" d="M75.11,-846.55C88.57,-856.23 106.29,-870.32 120.17,-882.25"/>
<polygon fill="blue" stroke="blue" points="118,-885.01 127.83,-888.97 122.62,-879.74 118,-885.01"/>
</a>
</g>
</g>
<!-- Identity6 -->
<g id="node7" class="node">
<title>Identity6</title>
<ellipse fill="none" stroke="black" cx="216.75" cy="-594" rx="38.19" ry="18"/>
<text text-anchor="middle" x="216.75" y="-590.3" font-family="Times,serif" font-size="14.00">Identity</text>
</g>
<!-- PiL7 -->
<g id="node8" class="node">
<title>PiL7</title>
<ellipse fill="none" stroke="black" cx="154.75" cy="-522" rx="27" ry="18"/>
<text text-anchor="middle" x="154.75" y="-518.3" font-family="Times,serif" font-size="14.00">PiL</text>
</g>
<!-- PiL7&#45;&gt;Identity6 -->
<g id="edge16" class="edge">
<title>PiL7&#45;&gt;Identity6</title>
<g id="a_edge16"><a xlink:title="idseq55">
<path fill="none" stroke="black" d="M169.6,-547.04C175.94,-554.69 183.44,-563.12 190.61,-570.65"/>
<polygon fill="black" stroke="black" points="166.06,-537.04 169.59,-547.03 160.6,-541.43 166.06,-537.04"/>
<polygon fill="black" stroke="black" points="188.12,-573.11 197.62,-577.81 193.12,-568.22 188.12,-573.11"/>
</a>
</g>
</g>
<!-- PiL7&#45;&gt;Identity6 -->
<g id="edge20" class="edge">
<title>PiL7&#45;&gt;Identity6</title>
<g id="a_edge20"><a xlink:title="lret53">
<path fill="none" stroke="blue" d="M171.82,-536.17C181.17,-545.26 192.47,-557.62 201.51,-568.49"/>
<polygon fill="blue" stroke="blue" points="198.91,-570.84 207.91,-576.43 204.36,-566.45 198.91,-570.84"/>
</a>
</g>
</g>
<!-- Bang13 -->
<g id="node14" class="node">
<title>Bang13</title>
<ellipse fill="none" stroke="black" cx="130.75" cy="-594" rx="29.5" ry="18"/>
<text text-anchor="middle" x="130.75" y="-590.3" font-family="Times,serif" font-size="14.00">Bang</text>
</g>
<!-- PiL7&#45;&gt;Bang13 -->
<g id="edge4" class="edge">
<title>PiL7&#45;&gt;Bang13</title>
<g id="a_edge4"><a xlink:title="dseq54">
<path fill="none" stroke="black" d="M143.7,-538.54C140.03,-546.5 136.33,-556.42 133.53,-565.62"/>
<polygon fill="black" stroke="black" points="130.08,-564.97 130.8,-575.54 136.83,-566.82 130.08,-564.97"/>
</a>
</g>
</g>
<!-- PiL7&#45;&gt;Bang13 -->
<g id="edge29" class="edge">
<title>PiL7&#45;&gt;Bang13</title>
<g id="a_edge29"><a xlink:title="newrret52">
<path fill="none" stroke="red" d="M154.73,-540.3C152.73,-548.63 149.45,-558.77 145.85,-567.92"/>
<polygon fill="red" stroke="red" points="142.54,-566.76 141.86,-577.33 148.98,-569.49 142.54,-566.76"/>
</a>
</g>
</g>
<!-- Assign8 -->
<g id="node9" class="node">
<title>Assign8</title>
<ellipse fill="none" stroke="black" cx="163.75" cy="-18" rx="35.19" ry="18"/>
<text text-anchor="middle" x="163.75" y="-14.3" font-family="Times,serif" font-size="14.00">Assign</text>
</g>
<!-- Dup17 -->
<g id="node18" class="node">
<title>Dup17</title>
<ellipse fill="none" stroke="black" cx="216.75" cy="-306" rx="27" ry="18"/>
<text text-anchor="middle" x="216.75" y="-302.3" font-family="Times,serif" font-size="14.00">Dup</text>
</g>
<!-- Assign8&#45;&gt;Dup17 -->
<g id="edge36" class="edge">
<title>Assign8&#45;&gt;Dup17</title>
<g id="a_edge36"><a xlink:title="ret133">
<path fill="none" stroke="red" d="M177.87,-34.95C185.79,-44.89 195,-58.34 199.75,-72 224.49,-143.13 222.28,-233.66 219.2,-278.02"/>
<polygon fill="red" stroke="red" points="215.71,-277.78 218.44,-288.02 222.69,-278.32 215.71,-277.78"/>
</a>
</g>
</g>
<!-- Cut18 -->
<g id="node19" class="node">
<title>Cut18</title>
<ellipse fill="none" stroke="black" cx="163.75" cy="-90" rx="27" ry="18"/>
<text text-anchor="middle" x="163.75" y="-86.3" font-family="Times,serif" font-size="14.00">Cut</text>
</g>
<!-- Assign8&#45;&gt;Cut18 -->
<g id="edge45" class="edge">
<title>Assign8&#45;&gt;Cut18</title>
<g id="a_edge45"><a xlink:title="seqBC94">
<path fill="none" stroke="black" d="M163.75,-36.3C163.75,-44.02 163.75,-53.29 163.75,-61.89"/>
<polygon fill="black" stroke="black" points="160.25,-61.9 163.75,-71.9 167.25,-61.9 160.25,-61.9"/>
</a>
</g>
</g>
<!-- Bang9 -->
<g id="node10" class="node">
<title>Bang9</title>
<ellipse fill="none" stroke="black" cx="163.75" cy="-162" rx="29.5" ry="18"/>
<text text-anchor="middle" x="163.75" y="-158.3" font-family="Times,serif" font-size="14.00">Bang</text>
</g>
<!-- PiR14 -->
<g id="node15" class="node">
<title>PiR14</title>
<ellipse fill="none" stroke="black" cx="163.75" cy="-234" rx="27" ry="18"/>
<text text-anchor="middle" x="163.75" y="-230.3" font-family="Times,serif" font-size="14.00">PiR</text>
</g>
<!-- Bang9&#45;&gt;PiR14 -->
<g id="edge26" class="edge">
<title>Bang9&#45;&gt;PiR14</title>
<g id="a_edge26"><a xlink:title="newcut_bseq100">
<path fill="none" stroke="black" d="M157.87,-179.95C157.04,-187.77 156.8,-197.25 157.16,-206.02"/>
<polygon fill="black" stroke="black" points="153.68,-206.49 157.89,-216.21 160.66,-205.99 153.68,-206.49"/>
</a>
</g>
</g>
<!-- Bang9&#45;&gt;PiR14 -->
<g id="edge35" class="edge">
<title>Bang9&#45;&gt;PiR14</title>
<g id="a_edge35"><a xlink:title="newrretf91">
<path fill="none" stroke="red" d="M169.63,-179.95C170.46,-187.77 170.69,-197.25 170.34,-206.02"/>
<polygon fill="red" stroke="red" points="166.83,-205.99 169.61,-216.21 173.81,-206.49 166.83,-205.99"/>
</a>
</g>
</g>
<!-- Dup10 -->
<g id="node11" class="node">
<title>Dup10</title>
<ellipse fill="none" stroke="black" cx="211.75" cy="-666" rx="27" ry="18"/>
<text text-anchor="middle" x="211.75" y="-662.3" font-family="Times,serif" font-size="14.00">Dup</text>
</g>
<!-- Dup10&#45;&gt;Identity4 -->
<g id="edge33" class="edge">
<title>Dup10&#45;&gt;Identity4</title>
<g id="a_edge33"><a xlink:title="newrretf66">
<path fill="none" stroke="red" d="M206.82,-683.74C194.85,-724.43 164.14,-828.86 149.6,-878.29"/>
<polygon fill="red" stroke="red" points="146.22,-877.38 146.76,-887.96 152.94,-879.35 146.22,-877.38"/>
</a>
</g>
</g>
<!-- BangC11 -->
<g id="node12" class="node">
<title>BangC11</title>
<ellipse fill="none" stroke="black" cx="144.75" cy="-378" rx="35.19" ry="18"/>
<text text-anchor="middle" x="144.75" y="-374.3" font-family="Times,serif" font-size="14.00">BangC</text>
</g>
<!-- Cut12 -->
<g id="node13" class="node">
<title>Cut12</title>
<ellipse fill="none" stroke="black" cx="154.75" cy="-450" rx="27" ry="18"/>
<text text-anchor="middle" x="154.75" y="-446.3" font-family="Times,serif" font-size="14.00">Cut</text>
</g>
<!-- BangC11&#45;&gt;Cut12 -->
<g id="edge44" class="edge">
<title>BangC11&#45;&gt;Cut12</title>
<g id="a_edge44"><a xlink:title="seqBC118">
<path fill="none" stroke="black" d="M147.22,-396.3C148.32,-404.02 149.65,-413.29 150.87,-421.89"/>
<polygon fill="black" stroke="black" points="147.42,-422.49 152.3,-431.9 154.35,-421.5 147.42,-422.49"/>
</a>
</g>
</g>
<!-- BangC11&#45;&gt;Bang13 -->
<g id="edge6" class="edge">
<title>BangC11&#45;&gt;Bang13</title>
<g id="a_edge6"><a xlink:title="h116">
<path fill="none" stroke="blue" d="M129.37,-404.41C125.05,-412.88 120.94,-422.57 118.75,-432 107.9,-478.76 113.41,-492.3 118.75,-540 119.7,-548.57 121.51,-557.78 123.43,-566.07"/>
<polygon fill="blue" stroke="blue" points="137.32,-397.12 129.47,-404.23 131.17,-393.78 137.32,-397.12"/>
<polygon fill="blue" stroke="blue" points="120.08,-567.11 125.88,-575.98 126.88,-565.43 120.08,-567.11"/>
</a>
</g>
</g>
<!-- BangD19 -->
<g id="node20" class="node">
<title>BangD19</title>
<ellipse fill="none" stroke="black" cx="35.75" cy="-522" rx="36" ry="18"/>
<text text-anchor="middle" x="35.75" y="-518.3" font-family="Times,serif" font-size="14.00">BangD</text>
</g>
<!-- BangC11&#45;&gt;BangD19 -->
<g id="edge10" class="edge">
<title>BangC11&#45;&gt;BangD19</title>
<g id="a_edge10"><a xlink:title="hf107">
<path fill="none" stroke="blue" d="M125.73,-393.39C113.37,-403.34 97.45,-417.39 85.75,-432 70.08,-451.55 56.47,-476.65 47.42,-495.2"/>
<polygon fill="blue" stroke="blue" points="44.26,-493.71 43.12,-504.25 50.58,-496.72 44.26,-493.71"/>
</a>
</g>
</g>
<!-- Cut12&#45;&gt;PiL7 -->
<g id="edge24" class="edge">
<title>Cut12&#45;&gt;PiL7</title>
<g id="a_edge24"><a xlink:title="lval48">
<path fill="none" stroke="blue" d="M148.91,-467.59C148.04,-475.49 147.79,-485.15 148.16,-494.06"/>
<polygon fill="blue" stroke="blue" points="144.67,-494.32 148.87,-504.04 151.65,-493.82 144.67,-494.32"/>
</a>
</g>
</g>
<!-- Cut12&#45;&gt;PiL7 -->
<g id="edge46" class="edge">
<title>Cut12&#45;&gt;PiL7</title>
<g id="a_edge46"><a xlink:title="yseq50">
<path fill="none" stroke="black" d="M161.33,-477.81C161.55,-483.05 161.55,-488.54 161.35,-493.78"/>
<polygon fill="black" stroke="black" points="164.08,-467.34 161.31,-477.56 157.1,-467.84 164.08,-467.34"/>
<polygon fill="black" stroke="black" points="157.83,-493.82 160.63,-504.04 164.82,-494.31 157.83,-493.82"/>
</a>
</g>
</g>
<!-- Cut12&#45;&gt;Dup10 -->
<g id="edge31" class="edge">
<title>Cut12&#45;&gt;Dup10</title>
<g id="a_edge31"><a xlink:title="newrretf108">
<path fill="none" stroke="red" d="M172.19,-463.99C198.02,-484.45 245.36,-526.93 263.75,-576 269.36,-590.98 269.8,-597.19 263.75,-612 258.36,-625.18 247.94,-636.86 237.83,-645.87"/>
<polygon fill="red" stroke="red" points="235.32,-643.41 229.9,-652.51 239.81,-648.78 235.32,-643.41"/>
</a>
</g>
</g>
<!-- Cut12&#45;&gt;BangD19 -->
<g id="edge1" class="edge">
<title>Cut12&#45;&gt;BangD19</title>
<g id="a_edge1"><a xlink:title="c_bseq106">
<path fill="none" stroke="black" d="M135.1,-462.56C116.61,-473.43 88.63,-489.89 67.07,-502.57"/>
<polygon fill="black" stroke="black" points="65.11,-499.66 58.27,-507.75 68.66,-505.7 65.11,-499.66"/>
</a>
</g>
</g>
<!-- Bang13&#45;&gt;Dup10 -->
<g id="edge32" class="edge">
<title>Bang13&#45;&gt;Dup10</title>
<g id="a_edge32"><a xlink:title="newrretf114">
<path fill="none" stroke="red" d="M147.14,-609.17C158.93,-619.36 175.01,-633.25 188.17,-644.63"/>
<polygon fill="none" stroke="red" points="186.08,-647.44 195.93,-651.33 190.65,-642.15 186.08,-647.44"/>
</a>
</g>
</g>
<!-- BangD20 -->
<g id="node21" class="node">
<title>BangD20</title>
<ellipse fill="none" stroke="black" cx="130.75" cy="-666" rx="36" ry="18"/>
<text text-anchor="middle" x="130.75" y="-662.3" font-family="Times,serif" font-size="14.00">BangD</text>
</g>
<!-- Bang13&#45;&gt;BangD20 -->
<g id="edge11" class="edge">
<title>Bang13&#45;&gt;BangD20</title>
<g id="a_edge11"><a xlink:title="hf113">
<path fill="none" stroke="blue" d="M124.87,-611.95C124.04,-619.77 123.8,-629.25 124.16,-638.02"/>
<polygon fill="blue" stroke="blue" points="120.68,-638.49 124.89,-648.21 127.66,-637.99 120.68,-638.49"/>
</a>
</g>
</g>
<!-- Bang13&#45;&gt;BangD20 -->
<g id="edge27" class="edge">
<title>Bang13&#45;&gt;BangD20</title>
<g id="a_edge27"><a xlink:title="newcut_bseq125">
<path fill="none" stroke="black" d="M136.63,-611.95C137.46,-619.77 137.69,-629.25 137.34,-638.02"/>
<polygon fill="black" stroke="black" points="133.83,-637.99 136.61,-648.21 140.81,-638.49 133.83,-637.99"/>
</a>
</g>
</g>
<!-- Dup15 -->
<g id="node16" class="node">
<title>Dup15</title>
<ellipse fill="none" stroke="black" cx="144.75" cy="-306" rx="27" ry="18"/>
<text text-anchor="middle" x="144.75" y="-302.3" font-family="Times,serif" font-size="14.00">Dup</text>
</g>
<!-- PiR14&#45;&gt;Dup15 -->
<g id="edge41" class="edge">
<title>PiR14&#45;&gt;Dup15</title>
<g id="a_edge41"><a xlink:title="seq135">
<path fill="none" stroke="black" d="M159.15,-251.95C157,-259.86 154.39,-269.46 151.99,-278.31"/>
<polygon fill="none" stroke="black" points="148.55,-277.64 149.3,-288.21 155.3,-279.48 148.55,-277.64"/>
</a>
</g>
</g>
<!-- Dup16 -->
<g id="node17" class="node">
<title>Dup16</title>
<ellipse fill="none" stroke="black" cx="72.75" cy="-306" rx="27" ry="18"/>
<text text-anchor="middle" x="72.75" y="-302.3" font-family="Times,serif" font-size="14.00">Dup</text>
</g>
<!-- PiR14&#45;&gt;Dup16 -->
<g id="edge8" class="edge">
<title>PiR14&#45;&gt;Dup16</title>
<g id="a_edge8"><a xlink:title="h136">
<path fill="none" stroke="blue" d="M146.63,-248.17C132.9,-258.73 113.44,-273.7 97.93,-285.63"/>
<polygon fill="none" stroke="blue" points="95.58,-283.02 89.79,-291.89 99.85,-288.57 95.58,-283.02"/>
</a>
</g>
</g>
<!-- PiR14&#45;&gt;Dup17 -->
<g id="edge37" class="edge">
<title>PiR14&#45;&gt;Dup17</title>
<g id="a_edge37"><a xlink:title="ret137">
<path fill="none" stroke="red" d="M175.51,-250.54C182.37,-259.6 191.17,-271.21 198.87,-281.39"/>
<polygon fill="none" stroke="red" points="196.19,-283.65 205.02,-289.51 201.77,-279.42 196.19,-283.65"/>
</a>
</g>
</g>
<!-- Dup15&#45;&gt;BangC11 -->
<g id="edge42" class="edge">
<title>Dup15&#45;&gt;BangC11</title>
<g id="a_edge42"><a xlink:title="seq33">
<path fill="none" stroke="black" d="M144.75,-324.3C144.75,-332.02 144.75,-341.29 144.75,-349.89"/>
<polygon fill="black" stroke="black" points="141.25,-349.9 144.75,-359.9 148.25,-349.9 141.25,-349.9"/>
</a>
</g>
</g>
<!-- Dup16&#45;&gt;BangC11 -->
<g id="edge9" class="edge">
<title>Dup16&#45;&gt;BangC11</title>
<g id="a_edge9"><a xlink:title="h34">
<path fill="none" stroke="blue" d="M87.32,-321.17C97.13,-330.71 110.29,-343.5 121.53,-354.43"/>
<polygon fill="blue" stroke="blue" points="119.34,-357.18 128.95,-361.64 124.22,-352.16 119.34,-357.18"/>
</a>
</g>
</g>
<!-- Dup17&#45;&gt;Identity6 -->
<g id="edge38" class="edge">
<title>Dup17&#45;&gt;Identity6</title>
<g id="a_edge38"><a xlink:title="ret42">
<path fill="none" stroke="red" d="M216.75,-324.03C216.75,-371.71 216.75,-506.82 216.75,-565.37"/>
<polygon fill="red" stroke="red" points="213.25,-565.69 216.75,-575.69 220.25,-565.69 213.25,-565.69"/>
</a>
</g>
</g>
<!-- Cut18&#45;&gt;Bang9 -->
<g id="edge3" class="edge">
<title>Cut18&#45;&gt;Bang9</title>
<g id="a_edge3"><a xlink:title="dseq20">
<path fill="none" stroke="black" d="M157.91,-107.59C157.04,-115.49 156.79,-125.15 157.16,-134.06"/>
<polygon fill="black" stroke="black" points="153.67,-134.32 157.87,-144.04 160.65,-133.82 153.67,-134.32"/>
</a>
</g>
</g>
<!-- Cut18&#45;&gt;Bang9 -->
<g id="edge28" class="edge">
<title>Cut18&#45;&gt;Bang9</title>
<g id="a_edge28"><a xlink:title="newrret18">
<path fill="none" stroke="red" d="M169.59,-107.59C170.45,-115.49 170.7,-125.15 170.33,-134.06"/>
<polygon fill="red" stroke="red" points="166.84,-133.82 169.63,-144.04 173.83,-134.32 166.84,-133.82"/>
</a>
</g>
</g>
<!-- Cut18&#45;&gt;Dup15 -->
<g id="edge40" class="edge">
<title>Cut18&#45;&gt;Dup15</title>
<g id="a_edge40"><a xlink:title="seq131">
<path fill="none" stroke="black" d="M143.09,-113.25C136.17,-122.14 129.32,-132.89 125.75,-144 111.06,-189.7 124.37,-245.96 134.9,-278.43"/>
<polygon fill="black" stroke="black" points="152.33,-107.59 143.25,-113.06 146.94,-103.12 152.33,-107.59"/>
<polygon fill="black" stroke="black" points="131.65,-279.75 138.18,-288.1 138.28,-277.5 131.65,-279.75"/>
</a>
</g>
</g>
<!-- Cut18&#45;&gt;Dup16 -->
<g id="edge7" class="edge">
<title>Cut18&#45;&gt;Dup16</title>
<g id="a_edge7"><a xlink:title="h132">
<path fill="none" stroke="blue" d="M147.4,-104.73C136.64,-114.61 123.05,-128.83 114.75,-144 91.08,-187.26 80.3,-244.41 75.74,-277.7"/>
<polygon fill="blue" stroke="blue" points="72.22,-277.65 74.43,-288.01 79.17,-278.54 72.22,-277.65"/>
</a>
</g>
</g>
<!-- Dup21 -->
<g id="node22" class="node">
<title>Dup21</title>
<ellipse fill="none" stroke="black" cx="55.75" cy="-750" rx="27" ry="18"/>
<text text-anchor="middle" x="55.75" y="-746.3" font-family="Times,serif" font-size="14.00">Dup</text>
</g>
<!-- BangD19&#45;&gt;Dup21 -->
<g id="edge12" class="edge">
<title>BangD19&#45;&gt;Dup21</title>
<g id="a_edge12"><a xlink:title="hseq140">
<path fill="none" stroke="black" d="M37.25,-539.99C40.69,-578.84 49.15,-674.48 53.33,-721.71"/>
<polygon fill="black" stroke="black" points="49.86,-722.16 54.23,-731.81 56.83,-721.54 49.86,-722.16"/>
</a>
</g>
</g>
<!-- Dup22 -->
<g id="node23" class="node">
<title>Dup22</title>
<ellipse fill="none" stroke="black" cx="130.75" cy="-750" rx="26" ry="26"/>
<ellipse fill="none" stroke="black" cx="130.75" cy="-750" rx="30" ry="30"/>
<text text-anchor="middle" x="130.75" y="-746.3" font-family="Times,serif" font-size="14.00">Dup</text>
</g>
<!-- BangD19&#45;&gt;Dup22 -->
<g id="edge22" class="edge">
<title>BangD19&#45;&gt;Dup22</title>
<g id="a_edge22"><a xlink:title="lval141">
<path fill="none" stroke="blue" d="M41.32,-540.17C44.67,-550.53 48.99,-564.01 52.75,-576 67.75,-623.9 63.87,-638.83 85.75,-684 91.36,-695.58 98.89,-707.4 106.19,-717.72"/>
<polygon fill="blue" stroke="blue" points="103.51,-719.98 112.22,-726.01 109.17,-715.86 103.51,-719.98"/>
</a>
</g>
</g>
<!-- BangD20&#45;&gt;Dup21 -->
<g id="edge13" class="edge">
<title>BangD20&#45;&gt;Dup21</title>
<g id="a_edge13"><a xlink:title="hseq143">
<path fill="none" stroke="black" d="M116.29,-682.81C104.9,-695.26 88.89,-712.77 76.19,-726.65"/>
<polygon fill="none" stroke="black" points="73.32,-724.6 69.16,-734.34 78.49,-729.32 73.32,-724.6"/>
</a>
</g>
</g>
<!-- BangD20&#45;&gt;Dup22 -->
<g id="edge23" class="edge">
<title>BangD20&#45;&gt;Dup22</title>
<g id="a_edge23"><a xlink:title="lval144">
<path fill="none" stroke="blue" d="M130.75,-684.39C130.75,-691.76 130.75,-700.66 130.75,-709.48"/>
<polygon fill="none" stroke="blue" points="127.25,-709.69 130.75,-719.69 134.25,-709.69 127.25,-709.69"/>
</a>
</g>
</g>
<!-- Dup21&#45;&gt;PiL5 -->
<g id="edge14" class="edge">
<title>Dup21&#45;&gt;PiL5</title>
<g id="a_edge14"><a xlink:title="hseq72">
<path fill="none" stroke="black" d="M55.75,-768.39C55.75,-779.22 55.75,-793.4 55.75,-805.7"/>
<polygon fill="black" stroke="black" points="52.25,-805.91 55.75,-815.91 59.25,-805.91 52.25,-805.91"/>
</a>
</g>
</g>
<!-- Dup22&#45;&gt;PiL5 -->
<g id="edge25" class="edge">
<title>Dup22&#45;&gt;PiL5</title>
<g id="a_edge25"><a xlink:title="lval70">
<path fill="none" stroke="blue" stroke-width="2" d="M110.65,-772.97C100,-784.61 86.95,-798.88 76.24,-810.59"/>
<polygon fill="blue" stroke="blue" stroke-width="2" points="73.43,-808.47 69.26,-818.22 78.6,-813.2 73.43,-808.47"/>
</a>
</g>
</g>
</g>
</svg>
