<?xml version="1.0" encoding="UTF-8" standalone="no"?>
<!DOCTYPE svg PUBLIC "-//W3C//DTD SVG 1.1//EN"
 "http://www.w3.org/Graphics/SVG/1.1/DTD/svg11.dtd">
<!-- Generated by graphviz version 2.49.3 (0)
 -->
<!-- Pages: 1 -->
<svg width="504pt" height="716pt"
 viewBox="0.00 0.00 504.00 716.00" xmlns="http://www.w3.org/2000/svg" xmlns:xlink="http://www.w3.org/1999/xlink">
<g id="graph0" class="graph" transform="scale(1 1) rotate(0) translate(4 712)">
<polygon fill="white" stroke="transparent" points="-4,4 -4,-712 500,-712 500,4 -4,4"/>
<!-- I0 -->
<g id="node1" class="node">
<title>I0</title>
<ellipse fill="none" stroke="black" cx="397" cy="-690" rx="27" ry="18"/>
<text text-anchor="middle" x="397" y="-686.3" font-family="Times,serif" font-size="14.00">I</text>
</g>
<!-- @1 -->
<g id="node2" class="node">
<title>@1</title>
<ellipse fill="none" stroke="black" cx="298" cy="-618" rx="27" ry="18"/>
<text text-anchor="middle" x="298" y="-614.3" font-family="Times,serif" font-size="14.00">@</text>
</g>
<!-- I0&#45;&gt;@1 -->
<g id="edge15" class="edge">
<title>I0&#45;&gt;@1</title>
<g id="a_edge15"><a xlink:title="lret53">
<path fill="none" stroke="blue" d="M370.34,-670.14C353.13,-657.98 331.22,-642.48 316.04,-631.75"/>
<polygon fill="blue" stroke="blue" points="368.66,-673.24 378.84,-676.16 372.7,-667.53 368.66,-673.24"/>
</a>
</g>
</g>
<!-- !p4 -->
<g id="node5" class="node">
<title>!p4</title>
<ellipse fill="none" stroke="black" cx="298" cy="-546" rx="27" ry="18"/>
<text text-anchor="middle" x="298" y="-542.3" font-family="Times,serif" font-size="14.00">!p</text>
</g>
<!-- @1&#45;&gt;!p4 -->
<g id="edge22" class="edge">
<title>@1&#45;&gt;!p4</title>
<g id="a_edge22"><a xlink:title="newrret52">
<path fill="none" stroke="red" d="M298,-599.69C298,-591.98 298,-582.71 298,-574.11"/>
<polygon fill="red" stroke="red" points="301.5,-574.1 298,-564.1 294.5,-574.1 301.5,-574.1"/>
</a>
</g>
</g>
<!-- @10 -->
<g id="node11" class="node">
<title>@10</title>
<ellipse fill="none" stroke="black" cx="90" cy="-546" rx="27" ry="18"/>
<text text-anchor="middle" x="90" y="-542.3" font-family="Times,serif" font-size="14.00">@</text>
</g>
<!-- @1&#45;&gt;@10 -->
<g id="edge18" class="edge">
<title>@1&#45;&gt;@10</title>
<g id="a_edge18"><a xlink:title="lval48">
<path fill="none" stroke="blue" d="M264.57,-605.75C222.29,-591.52 150.55,-567.37 113.58,-554.93"/>
<polygon fill="blue" stroke="blue" points="263.55,-609.09 274.14,-608.97 265.78,-602.46 263.55,-609.09"/>
</a>
</g>
</g>
<!-- Assign2 -->
<g id="node3" class="node">
<title>Assign2</title>
<ellipse fill="none" stroke="black" cx="460" cy="-114" rx="35.19" ry="18"/>
<text text-anchor="middle" x="460" y="-110.3" font-family="Times,serif" font-size="14.00">Assign</text>
</g>
<!-- Dup6 -->
<g id="node7" class="node">
<title>Dup6</title>
<ellipse fill="none" stroke="black" cx="397" cy="-30" rx="26" ry="26"/>
<ellipse fill="none" stroke="black" cx="397" cy="-30" rx="30" ry="30"/>
<text text-anchor="middle" x="397" y="-26.3" font-family="Times,serif" font-size="14.00">Dup</text>
</g>
<!-- Assign2&#45;&gt;Dup6 -->
<g id="edge27" class="edge">
<title>Assign2&#45;&gt;Dup6</title>
<g id="a_edge27"><a xlink:title="ret133">
<path fill="none" stroke="red" stroke-width="2" d="M447.55,-96.8C440.05,-87.03 430.24,-74.26 421.26,-62.57"/>
<polygon fill="red" stroke="red" stroke-width="2" points="423.78,-60.1 414.91,-54.31 418.23,-64.37 423.78,-60.1"/>
</a>
</g>
</g>
<!-- !p3 -->
<g id="node4" class="node">
<title>!p3</title>
<ellipse fill="none" stroke="black" cx="169" cy="-186" rx="27" ry="18"/>
<text text-anchor="middle" x="169" y="-182.3" font-family="Times,serif" font-size="14.00">!p</text>
</g>
<!-- λ5 -->
<g id="node6" class="node">
<title>λ5</title>
<ellipse fill="none" stroke="black" cx="224" cy="-114" rx="27" ry="18"/>
<text text-anchor="middle" x="224" y="-110.3" font-family="Times,serif" font-size="14.00">λ</text>
</g>
<!-- !p3&#45;&gt;λ5 -->
<g id="edge26" class="edge">
<title>!p3&#45;&gt;λ5</title>
<g id="a_edge26"><a xlink:title="newrretf91">
<path fill="none" stroke="red" d="M180.93,-169.81C188.21,-160.54 197.66,-148.52 205.85,-138.09"/>
<polygon fill="red" stroke="red" points="208.66,-140.18 212.09,-130.15 203.16,-135.86 208.66,-140.18"/>
</a>
</g>
</g>
<!-- I20 -->
<g id="node21" class="node">
<title>I20</title>
<ellipse fill="none" stroke="black" cx="325" cy="-474" rx="27" ry="18"/>
<text text-anchor="middle" x="325" y="-470.3" font-family="Times,serif" font-size="14.00">I</text>
</g>
<!-- !p4&#45;&gt;I20 -->
<g id="edge23" class="edge">
<title>!p4&#45;&gt;I20</title>
<g id="a_edge23"><a xlink:title="newrretf114">
<path fill="none" stroke="red" d="M304.4,-528.41C307.51,-520.33 311.33,-510.43 314.83,-501.35"/>
<polygon fill="red" stroke="red" points="318.13,-502.54 318.46,-491.95 311.6,-500.02 318.13,-502.54"/>
</a>
</g>
</g>
<!-- Dup25 -->
<g id="node26" class="node">
<title>Dup25</title>
<ellipse fill="none" stroke="black" cx="198" cy="-402" rx="27" ry="18"/>
<text text-anchor="middle" x="198" y="-398.3" font-family="Times,serif" font-size="14.00">Dup</text>
</g>
<!-- !p4&#45;&gt;Dup25 -->
<g id="edge1" class="edge">
<title>!p4&#45;&gt;Dup25</title>
<g id="a_edge1"><a xlink:title="h116">
<path fill="none" stroke="blue" d="M279.05,-522.04C271.67,-512.85 263.25,-502.06 256,-492 238.12,-467.15 219.04,-437.1 207.83,-419.05"/>
<polygon fill="blue" stroke="blue" points="276.47,-524.41 285.49,-529.98 281.91,-520 276.47,-524.41"/>
</a>
</g>
</g>
<!-- λ5&#45;&gt;Dup6 -->
<g id="edge28" class="edge">
<title>λ5&#45;&gt;Dup6</title>
<g id="a_edge28"><a xlink:title="ret137">
<path fill="none" stroke="red" d="M245.56,-102.78C274.37,-89.12 325.84,-64.73 360.69,-48.21"/>
<polygon fill="none" stroke="red" points="362.51,-51.22 370.04,-43.77 359.51,-44.89 362.51,-51.22"/>
</a>
</g>
</g>
<!-- Dup6&#45;&gt;I0 -->
<g id="edge31" class="edge">
<title>Dup6&#45;&gt;I0</title>
<g id="a_edge31"><a xlink:title="ret42">
<path fill="none" stroke="red" d="M397,-60.23C397,-91.21 397,-141.55 397,-185 397,-547 397,-547 397,-547 397,-587 397,-633.34 397,-661.92"/>
<polygon fill="red" stroke="red" points="393.5,-661.95 397,-671.95 400.5,-661.95 393.5,-661.95"/>
</a>
</g>
</g>
<!-- Cut7 -->
<g id="node8" class="node">
<title>Cut7</title>
<ellipse fill="none" stroke="black" cx="169" cy="-258" rx="27" ry="18"/>
<text text-anchor="middle" x="169" y="-254.3" font-family="Times,serif" font-size="14.00">Cut</text>
</g>
<!-- Cut7&#45;&gt;!p3 -->
<g id="edge21" class="edge">
<title>Cut7&#45;&gt;!p3</title>
<g id="a_edge21"><a xlink:title="newrret18">
<path fill="none" stroke="red" d="M169,-239.69C169,-231.98 169,-222.71 169,-214.11"/>
<polygon fill="red" stroke="red" points="172.5,-214.1 169,-204.1 165.5,-214.1 172.5,-214.1"/>
</a>
</g>
</g>
<!-- !d8 -->
<g id="node9" class="node">
<title>!d8</title>
<ellipse fill="none" stroke="black" cx="126" cy="-474" rx="27" ry="18"/>
<text text-anchor="middle" x="126" y="-470.3" font-family="Times,serif" font-size="14.00">!d</text>
</g>
<!-- Dup24 -->
<g id="node25" class="node">
<title>Dup24</title>
<ellipse fill="none" stroke="black" cx="126" cy="-402" rx="27" ry="18"/>
<text text-anchor="middle" x="126" y="-398.3" font-family="Times,serif" font-size="14.00">Dup</text>
</g>
<!-- !d8&#45;&gt;Dup24 -->
<g id="edge6" class="edge">
<title>!d8&#45;&gt;Dup24</title>
<g id="a_edge6"><a xlink:title="hf107">
<path fill="none" stroke="blue" d="M126,-445.66C126,-437.05 126,-427.79 126,-420.1"/>
<polygon fill="blue" stroke="blue" points="122.5,-445.69 126,-455.69 129.5,-445.69 122.5,-445.69"/>
</a>
</g>
</g>
<!-- !d9 -->
<g id="node10" class="node">
<title>!d9</title>
<ellipse fill="none" stroke="black" cx="270" cy="-330" rx="27" ry="18"/>
<text text-anchor="middle" x="270" y="-326.3" font-family="Times,serif" font-size="14.00">!d</text>
</g>
<!-- !d9&#45;&gt;!p4 -->
<g id="edge7" class="edge">
<title>!d9&#45;&gt;!p4</title>
<g id="a_edge7"><a xlink:title="hf113">
<path fill="none" stroke="blue" d="M272.81,-358.39C276.19,-390.48 282.27,-445.19 289,-492 290.73,-504 293.02,-517.48 294.86,-527.84"/>
<polygon fill="blue" stroke="blue" points="276.28,-358.01 271.76,-348.43 269.32,-358.73 276.28,-358.01"/>
</a>
</g>
</g>
<!-- @10&#45;&gt;!d8 -->
<g id="edge16" class="edge">
<title>@10&#45;&gt;!d8</title>
<g id="a_edge16"><a xlink:title="lval141">
<path fill="none" stroke="blue" d="M103.01,-519.7C107.91,-510.17 113.34,-499.61 117.7,-491.14"/>
<polygon fill="blue" stroke="blue" points="99.81,-518.27 98.35,-528.76 106.04,-521.47 99.81,-518.27"/>
</a>
</g>
</g>
<!-- !p12 -->
<g id="node13" class="node">
<title>!p12</title>
<ellipse fill="none" stroke="black" cx="54" cy="-474" rx="27" ry="18"/>
<text text-anchor="middle" x="54" y="-470.3" font-family="Times,serif" font-size="14.00">!p</text>
</g>
<!-- @10&#45;&gt;!p12 -->
<g id="edge19" class="edge">
<title>@10&#45;&gt;!p12</title>
<g id="a_edge19"><a xlink:title="newrret147">
<path fill="none" stroke="red" d="M81.65,-528.76C77.29,-520.28 71.85,-509.71 66.96,-500.19"/>
<polygon fill="red" stroke="red" points="69.99,-498.43 62.3,-491.14 63.77,-501.64 69.99,-498.43"/>
</a>
</g>
</g>
<!-- @11 -->
<g id="node12" class="node">
<title>@11</title>
<ellipse fill="none" stroke="black" cx="334" cy="-402" rx="27" ry="18"/>
<text text-anchor="middle" x="334" y="-398.3" font-family="Times,serif" font-size="14.00">@</text>
</g>
<!-- @11&#45;&gt;!d9 -->
<g id="edge17" class="edge">
<title>@11&#45;&gt;!d9</title>
<g id="a_edge17"><a xlink:title="lval144">
<path fill="none" stroke="blue" d="M313.64,-378.72C303.81,-367.97 292.29,-355.37 283.55,-345.82"/>
<polygon fill="blue" stroke="blue" points="311.1,-381.13 320.43,-386.15 316.26,-376.41 311.1,-381.13"/>
</a>
</g>
</g>
<!-- !p13 -->
<g id="node14" class="node">
<title>!p13</title>
<ellipse fill="none" stroke="black" cx="342" cy="-330" rx="27" ry="18"/>
<text text-anchor="middle" x="342" y="-326.3" font-family="Times,serif" font-size="14.00">!p</text>
</g>
<!-- @11&#45;&gt;!p13 -->
<g id="edge20" class="edge">
<title>@11&#45;&gt;!p13</title>
<g id="a_edge20"><a xlink:title="newrret152">
<path fill="none" stroke="red" d="M335.98,-383.69C336.86,-375.98 337.92,-366.71 338.9,-358.11"/>
<polygon fill="red" stroke="red" points="342.39,-358.43 340.05,-348.1 335.43,-357.64 342.39,-358.43"/>
</a>
</g>
</g>
<!-- λ14 -->
<g id="node15" class="node">
<title>λ14</title>
<ellipse fill="none" stroke="black" cx="54" cy="-402" rx="27" ry="18"/>
<text text-anchor="middle" x="54" y="-398.3" font-family="Times,serif" font-size="14.00">λ</text>
</g>
<!-- !p12&#45;&gt;λ14 -->
<g id="edge24" class="edge">
<title>!p12&#45;&gt;λ14</title>
<g id="a_edge24"><a xlink:title="newrretf157">
<path fill="none" stroke="red" d="M54,-455.69C54,-447.98 54,-438.71 54,-430.11"/>
<polygon fill="red" stroke="red" points="57.5,-430.1 54,-420.1 50.5,-430.1 57.5,-430.1"/>
</a>
</g>
</g>
<!-- λ15 -->
<g id="node16" class="node">
<title>λ15</title>
<ellipse fill="none" stroke="black" cx="342" cy="-258" rx="27" ry="18"/>
<text text-anchor="middle" x="342" y="-254.3" font-family="Times,serif" font-size="14.00">λ</text>
</g>
<!-- !p13&#45;&gt;λ15 -->
<g id="edge25" class="edge">
<title>!p13&#45;&gt;λ15</title>
<g id="a_edge25"><a xlink:title="newrretf160">
<path fill="none" stroke="red" d="M342,-311.69C342,-303.98 342,-294.71 342,-286.11"/>
<polygon fill="red" stroke="red" points="345.5,-286.1 342,-276.1 338.5,-286.1 345.5,-286.1"/>
</a>
</g>
</g>
<!-- I18 -->
<g id="node19" class="node">
<title>I18</title>
<ellipse fill="none" stroke="black" cx="54" cy="-330" rx="27" ry="18"/>
<text text-anchor="middle" x="54" y="-326.3" font-family="Times,serif" font-size="14.00">I</text>
</g>
<!-- λ14&#45;&gt;I18 -->
<g id="edge29" class="edge">
<title>λ14&#45;&gt;I18</title>
<g id="a_edge29"><a xlink:title="ret164">
<path fill="none" stroke="red" d="M54,-383.69C54,-375.98 54,-366.71 54,-358.11"/>
<polygon fill="red" stroke="red" points="57.5,-358.1 54,-348.1 50.5,-358.1 57.5,-358.1"/>
</a>
</g>
</g>
<!-- I19 -->
<g id="node20" class="node">
<title>I19</title>
<ellipse fill="none" stroke="black" cx="342" cy="-186" rx="27" ry="18"/>
<text text-anchor="middle" x="342" y="-182.3" font-family="Times,serif" font-size="14.00">I</text>
</g>
<!-- λ15&#45;&gt;I19 -->
<g id="edge30" class="edge">
<title>λ15&#45;&gt;I19</title>
<g id="a_edge30"><a xlink:title="ret168">
<path fill="none" stroke="red" d="M342,-239.69C342,-231.98 342,-222.71 342,-214.11"/>
<polygon fill="red" stroke="red" points="345.5,-214.1 342,-204.1 338.5,-214.1 345.5,-214.1"/>
</a>
</g>
</g>
<!-- !d16 -->
<g id="node17" class="node">
<title>!d16</title>
<ellipse fill="none" stroke="black" cx="27" cy="-258" rx="27" ry="18"/>
<text text-anchor="middle" x="27" y="-254.3" font-family="Times,serif" font-size="14.00">!d</text>
</g>
<!-- !d16&#45;&gt;λ14 -->
<g id="edge10" class="edge">
<title>!d16&#45;&gt;λ14</title>
<g id="a_edge10"><a xlink:title="i163">
<path fill="none" stroke="blue" d="M18.93,-285.59C14.77,-303.57 11.74,-327.64 18,-348 22.38,-362.24 32.04,-376.1 40.25,-386.06"/>
<polygon fill="blue" stroke="blue" points="22.35,-286.34 21.45,-275.78 15.57,-284.6 22.35,-286.34"/>
</a>
</g>
</g>
<!-- !d17 -->
<g id="node18" class="node">
<title>!d17</title>
<ellipse fill="none" stroke="black" cx="319" cy="-114" rx="27" ry="18"/>
<text text-anchor="middle" x="319" y="-110.3" font-family="Times,serif" font-size="14.00">!d</text>
</g>
<!-- !d17&#45;&gt;λ15 -->
<g id="edge11" class="edge">
<title>!d17&#45;&gt;λ15</title>
<g id="a_edge11"><a xlink:title="i167">
<path fill="none" stroke="blue" d="M309.19,-141.27C303.92,-159.24 299.68,-183.44 306,-204 310.38,-218.24 320.04,-232.1 328.25,-242.06"/>
<polygon fill="blue" stroke="blue" points="312.53,-142.32 312.25,-131.73 305.86,-140.18 312.53,-142.32"/>
</a>
</g>
</g>
<!-- I18&#45;&gt;!d16 -->
<g id="edge12" class="edge">
<title>I18&#45;&gt;!d16</title>
<g id="a_edge12"><a xlink:title="iret171">
<path fill="none" stroke="blue" d="M43.99,-303.05C40.5,-294 36.68,-284.08 33.54,-275.95"/>
<polygon fill="blue" stroke="blue" points="40.74,-304.34 47.6,-312.41 47.27,-301.82 40.74,-304.34"/>
</a>
</g>
</g>
<!-- I19&#45;&gt;!d17 -->
<g id="edge13" class="edge">
<title>I19&#45;&gt;!d17</title>
<g id="a_edge13"><a xlink:title="iret174">
<path fill="none" stroke="blue" d="M333.27,-158.42C330.33,-149.48 327.14,-139.76 324.52,-131.78"/>
<polygon fill="blue" stroke="blue" points="329.99,-159.64 336.43,-168.05 336.64,-157.46 329.99,-159.64"/>
</a>
</g>
</g>
<!-- I20&#45;&gt;@11 -->
<g id="edge14" class="edge">
<title>I20&#45;&gt;@11</title>
<g id="a_edge14"><a xlink:title="lret154">
<path fill="none" stroke="blue" d="M328.47,-446C329.58,-437.36 330.78,-428.03 331.78,-420.27"/>
<polygon fill="blue" stroke="blue" points="324.98,-445.69 327.18,-456.05 331.93,-446.58 324.98,-445.69"/>
</a>
</g>
</g>
<!-- !c21 -->
<g id="node22" class="node">
<title>!c21</title>
<ellipse fill="none" stroke="black" cx="126" cy="-330" rx="27" ry="18"/>
<text text-anchor="middle" x="126" y="-326.3" font-family="Times,serif" font-size="14.00">!c</text>
</g>
<!-- !c21&#45;&gt;Cut7 -->
<g id="edge2" class="edge">
<title>!c21&#45;&gt;Cut7</title>
<g id="a_edge2"><a xlink:title="h132">
<path fill="none" stroke="blue" d="M141.04,-304.51C147.09,-294.66 153.9,-283.58 159.28,-274.82"/>
<polygon fill="blue" stroke="blue" points="138.01,-302.76 135.76,-313.11 143.97,-306.42 138.01,-302.76"/>
</a>
</g>
</g>
<!-- !c22 -->
<g id="node23" class="node">
<title>!c22</title>
<ellipse fill="none" stroke="black" cx="198" cy="-330" rx="27" ry="18"/>
<text text-anchor="middle" x="198" y="-326.3" font-family="Times,serif" font-size="14.00">!c</text>
</g>
<!-- !c22&#45;&gt;λ5 -->
<g id="edge3" class="edge">
<title>!c22&#45;&gt;λ5</title>
<g id="a_edge3"><a xlink:title="h136">
<path fill="none" stroke="blue" d="M201.65,-301.88C202.75,-293.58 203.95,-284.41 205,-276 211.53,-223.77 218.66,-161.94 222.03,-132.4"/>
<polygon fill="blue" stroke="blue" points="198.18,-301.44 200.33,-311.82 205.12,-302.37 198.18,-301.44"/>
</a>
</g>
</g>
<!-- Dup23 -->
<g id="node24" class="node">
<title>Dup23</title>
<ellipse fill="none" stroke="black" cx="469" cy="-690" rx="27" ry="18"/>
<text text-anchor="middle" x="469" y="-686.3" font-family="Times,serif" font-size="14.00">Dup</text>
</g>
<!-- Dup24&#45;&gt;!c21 -->
<g id="edge8" class="edge">
<title>Dup24&#45;&gt;!c21</title>
<g id="a_edge8"><a xlink:title="hf185">
<path fill="none" stroke="blue" d="M126,-373.66C126,-365.05 126,-355.79 126,-348.1"/>
<polygon fill="blue" stroke="blue" points="122.5,-373.69 126,-383.69 129.5,-373.69 122.5,-373.69"/>
</a>
</g>
</g>
<!-- Dup24&#45;&gt;!c22 -->
<g id="edge9" class="edge">
<title>Dup24&#45;&gt;!c22</title>
<g id="a_edge9"><a xlink:title="hf189">
<path fill="none" stroke="blue" d="M148.04,-379.56C159.45,-368.47 173.07,-355.23 183.2,-345.38"/>
<polygon fill="none" stroke="blue" points="145.3,-377.35 140.57,-386.83 150.18,-382.37 145.3,-377.35"/>
</a>
</g>
</g>
<!-- Dup25&#45;&gt;!c21 -->
<g id="edge4" class="edge">
<title>Dup25&#45;&gt;!c21</title>
<g id="a_edge4"><a xlink:title="h186">
<path fill="none" stroke="blue" d="M175.96,-379.56C167.13,-370.99 156.99,-361.12 148.15,-352.53"/>
<polygon fill="blue" stroke="blue" points="173.82,-382.37 183.43,-386.83 178.7,-377.35 173.82,-382.37"/>
<polygon fill="blue" stroke="blue" points="143.24,-342.87 147.97,-352.35 138.36,-347.89 143.24,-342.87"/>
</a>
</g>
</g>
<!-- Dup25&#45;&gt;!c22 -->
<g id="edge5" class="edge">
<title>Dup25&#45;&gt;!c22</title>
<g id="a_edge5"><a xlink:title="h190">
<path fill="none" stroke="blue" d="M198,-373.66C198,-368.68 198,-363.49 198,-358.5"/>
<polygon fill="none" stroke="blue" points="194.5,-373.69 198,-383.69 201.5,-373.69 194.5,-373.69"/>
<polygon fill="blue" stroke="blue" points="201.5,-348.1 198,-358.1 194.5,-348.1 201.5,-348.1"/>
</a>
</g>
</g>
</g>
</svg>
