<?xml version="1.0" encoding="UTF-8" standalone="no"?>
<!DOCTYPE svg PUBLIC "-//W3C//DTD SVG 1.1//EN"
 "http://www.w3.org/Graphics/SVG/1.1/DTD/svg11.dtd">
<!-- Generated by graphviz version 2.49.3 (0)
 -->
<!-- Pages: 1 -->
<svg width="298pt" height="1148pt"
 viewBox="0.00 0.00 297.66 1148.00" xmlns="http://www.w3.org/2000/svg" xmlns:xlink="http://www.w3.org/1999/xlink">
<g id="graph0" class="graph" transform="scale(1 1) rotate(0) translate(4 1144)">
<polygon fill="white" stroke="transparent" points="-4,4 -4,-1144 293.66,-1144 293.66,4 -4,4"/>
<!-- Identity0 -->
<g id="node1" class="node">
<title>Identity0</title>
<ellipse fill="none" stroke="black" cx="157.14" cy="-690" rx="38.19" ry="18"/>
<text text-anchor="middle" x="157.14" y="-686.3" font-family="Times,serif" font-size="14.00">Identity</text>
</g>
<!-- PiL1 -->
<g id="node2" class="node">
<title>PiL1</title>
<ellipse fill="none" stroke="black" cx="157.14" cy="-618" rx="27" ry="18"/>
<text text-anchor="middle" x="157.14" y="-614.3" font-family="Times,serif" font-size="14.00">PiL</text>
</g>
<!-- PiL1&#45;&gt;Identity0 -->
<g id="edge19" class="edge">
<title>PiL1&#45;&gt;Identity0</title>
<g id="a_edge19"><a xlink:title="idseq55">
<path fill="none" stroke="black" d="M150.55,-645.81C150.34,-651.04 150.33,-656.53 150.54,-661.78"/>
<polygon fill="black" stroke="black" points="154.79,-635.84 150.57,-645.56 147.81,-635.33 154.79,-635.84"/>
<polygon fill="black" stroke="black" points="147.07,-662.31 151.26,-672.04 154.05,-661.82 147.07,-662.31"/>
</a>
</g>
</g>
<!-- PiL1&#45;&gt;Identity0 -->
<g id="edge25" class="edge">
<title>PiL1&#45;&gt;Identity0</title>
<g id="a_edge25"><a xlink:title="lret53">
<path fill="none" stroke="blue" d="M162.98,-635.58C163.84,-643.49 164.09,-653.14 163.73,-662.06"/>
<polygon fill="blue" stroke="blue" points="160.23,-661.82 163.02,-672.04 167.22,-662.31 160.23,-661.82"/>
</a>
</g>
</g>
<!-- Bang5 -->
<g id="node6" class="node">
<title>Bang5</title>
<ellipse fill="none" stroke="black" cx="71.14" cy="-690" rx="29.5" ry="18"/>
<text text-anchor="middle" x="71.14" y="-686.3" font-family="Times,serif" font-size="14.00">Bang</text>
</g>
<!-- PiL1&#45;&gt;Bang5 -->
<g id="edge6" class="edge">
<title>PiL1&#45;&gt;Bang5</title>
<g id="a_edge6"><a xlink:title="dseq54">
<path fill="none" stroke="black" d="M137.77,-630.55C124.04,-640.42 105.88,-654.89 91.88,-666.96"/>
<polygon fill="black" stroke="black" points="89.38,-664.5 84.19,-673.74 94.01,-669.76 89.38,-664.5"/>
</a>
</g>
</g>
<!-- PiL1&#45;&gt;Bang5 -->
<g id="edge34" class="edge">
<title>PiL1&#45;&gt;Bang5</title>
<g id="a_edge34"><a xlink:title="newrret52">
<path fill="none" stroke="red" d="M144.15,-634.18C132.21,-644.97 114.46,-659.51 99.37,-670.9"/>
<polygon fill="red" stroke="red" points="97.27,-668.1 91.31,-676.86 101.43,-673.73 97.27,-668.1"/>
</a>
</g>
</g>
<!-- Assign2 -->
<g id="node3" class="node">
<title>Assign2</title>
<ellipse fill="none" stroke="black" cx="204.14" cy="-18" rx="35.19" ry="18"/>
<text text-anchor="middle" x="204.14" y="-14.3" font-family="Times,serif" font-size="14.00">Assign</text>
</g>
<!-- Dup9 -->
<g id="node10" class="node">
<title>Dup9</title>
<ellipse fill="none" stroke="black" cx="261.14" cy="-318" rx="27" ry="18"/>
<text text-anchor="middle" x="261.14" y="-314.3" font-family="Times,serif" font-size="14.00">Dup</text>
</g>
<!-- Assign2&#45;&gt;Dup9 -->
<g id="edge39" class="edge">
<title>Assign2&#45;&gt;Dup9</title>
<g id="a_edge39"><a xlink:title="ret133">
<path fill="none" stroke="red" d="M218.2,-34.98C226.09,-44.92 235.3,-58.37 240.14,-72 266.84,-147.24 265.74,-243.29 263.2,-289.6"/>
<polygon fill="red" stroke="red" points="259.7,-289.55 262.58,-299.74 266.69,-289.97 259.7,-289.55"/>
</a>
</g>
</g>
<!-- Cut10 -->
<g id="node11" class="node">
<title>Cut10</title>
<ellipse fill="none" stroke="black" cx="204.14" cy="-90" rx="27" ry="18"/>
<text text-anchor="middle" x="204.14" y="-86.3" font-family="Times,serif" font-size="14.00">Cut</text>
</g>
<!-- Assign2&#45;&gt;Cut10 -->
<g id="edge50" class="edge">
<title>Assign2&#45;&gt;Cut10</title>
<g id="a_edge50"><a xlink:title="seqBC94">
<path fill="none" stroke="black" d="M204.14,-36.3C204.14,-44.02 204.14,-53.29 204.14,-61.89"/>
<polygon fill="black" stroke="black" points="200.64,-61.9 204.14,-71.9 207.64,-61.9 200.64,-61.9"/>
</a>
</g>
</g>
<!-- Bang3 -->
<g id="node4" class="node">
<title>Bang3</title>
<ellipse fill="none" stroke="black" cx="204.14" cy="-162" rx="29.5" ry="18"/>
<text text-anchor="middle" x="204.14" y="-158.3" font-family="Times,serif" font-size="14.00">Bang</text>
</g>
<!-- PiR6 -->
<g id="node7" class="node">
<title>PiR6</title>
<ellipse fill="none" stroke="black" cx="204.14" cy="-234" rx="27" ry="18"/>
<text text-anchor="middle" x="204.14" y="-230.3" font-family="Times,serif" font-size="14.00">PiR</text>
</g>
<!-- Bang3&#45;&gt;PiR6 -->
<g id="edge29" class="edge">
<title>Bang3&#45;&gt;PiR6</title>
<g id="a_edge29"><a xlink:title="newcut_bseq100">
<path fill="none" stroke="black" d="M198.26,-179.95C197.43,-187.77 197.19,-197.25 197.55,-206.02"/>
<polygon fill="black" stroke="black" points="194.07,-206.49 198.28,-216.21 201.05,-205.99 194.07,-206.49"/>
</a>
</g>
</g>
<!-- Bang3&#45;&gt;PiR6 -->
<g id="edge38" class="edge">
<title>Bang3&#45;&gt;PiR6</title>
<g id="a_edge38"><a xlink:title="newrretf91">
<path fill="none" stroke="red" d="M210.02,-179.95C210.85,-187.77 211.08,-197.25 210.73,-206.02"/>
<polygon fill="red" stroke="red" points="207.22,-205.99 210,-216.21 214.2,-206.49 207.22,-205.99"/>
</a>
</g>
</g>
<!-- BangC4 -->
<g id="node5" class="node">
<title>BangC4</title>
<ellipse fill="none" stroke="black" cx="184.14" cy="-402" rx="35.19" ry="18"/>
<text text-anchor="middle" x="184.14" y="-398.3" font-family="Times,serif" font-size="14.00">BangC</text>
</g>
<!-- BangC4&#45;&gt;Bang5 -->
<g id="edge7" class="edge">
<title>BangC4&#45;&gt;Bang5</title>
<g id="a_edge7"><a xlink:title="h116">
<path fill="none" stroke="blue" d="M160.99,-425.93C153.15,-434.73 144.92,-445.25 139.14,-456 101.95,-525.06 82.89,-616.88 75.26,-661.85"/>
<polygon fill="blue" stroke="blue" points="170.57,-420.76 161.2,-425.71 165.44,-416 170.57,-420.76"/>
<polygon fill="blue" stroke="blue" points="71.76,-661.54 73.6,-671.98 78.67,-662.67 71.76,-661.54"/>
</a>
</g>
</g>
<!-- BangD11 -->
<g id="node12" class="node">
<title>BangD11</title>
<ellipse fill="none" stroke="black" cx="184.14" cy="-474" rx="36" ry="18"/>
<text text-anchor="middle" x="184.14" y="-470.3" font-family="Times,serif" font-size="14.00">BangD</text>
</g>
<!-- BangC4&#45;&gt;BangD11 -->
<g id="edge11" class="edge">
<title>BangC4&#45;&gt;BangD11</title>
<g id="a_edge11"><a xlink:title="hf107">
<path fill="none" stroke="blue" d="M178.26,-419.94C177.43,-427.76 177.19,-437.25 177.55,-446.02"/>
<polygon fill="blue" stroke="blue" points="174.07,-446.48 178.28,-456.21 181.05,-445.98 174.07,-446.48"/>
</a>
</g>
</g>
<!-- BangC4&#45;&gt;BangD11 -->
<g id="edge49" class="edge">
<title>BangC4&#45;&gt;BangD11</title>
<g id="a_edge49"><a xlink:title="seqBC118">
<path fill="none" stroke="black" d="M190.02,-419.94C190.85,-427.76 191.08,-437.25 190.73,-446.02"/>
<polygon fill="black" stroke="black" points="187.22,-445.98 190,-456.21 194.2,-446.48 187.22,-445.98"/>
</a>
</g>
</g>
<!-- BangD12 -->
<g id="node13" class="node">
<title>BangD12</title>
<ellipse fill="none" stroke="black" cx="71.14" cy="-762" rx="36" ry="18"/>
<text text-anchor="middle" x="71.14" y="-758.3" font-family="Times,serif" font-size="14.00">BangD</text>
</g>
<!-- Bang5&#45;&gt;BangD12 -->
<g id="edge12" class="edge">
<title>Bang5&#45;&gt;BangD12</title>
<g id="a_edge12"><a xlink:title="hf113">
<path fill="none" stroke="blue" d="M65.26,-707.94C64.43,-715.76 64.19,-725.25 64.55,-734.02"/>
<polygon fill="blue" stroke="blue" points="61.07,-734.48 65.28,-744.21 68.05,-733.98 61.07,-734.48"/>
</a>
</g>
</g>
<!-- Bang5&#45;&gt;BangD12 -->
<g id="edge30" class="edge">
<title>Bang5&#45;&gt;BangD12</title>
<g id="a_edge30"><a xlink:title="newcut_bseq125">
<path fill="none" stroke="black" d="M77.02,-707.94C77.85,-715.76 78.08,-725.25 77.73,-734.02"/>
<polygon fill="black" stroke="black" points="74.22,-733.98 77,-744.21 81.2,-734.48 74.22,-733.98"/>
</a>
</g>
</g>
<!-- Identity23 -->
<g id="node24" class="node">
<title>Identity23</title>
<ellipse fill="none" stroke="black" cx="135.14" cy="-906" rx="38.19" ry="18"/>
<text text-anchor="middle" x="135.14" y="-902.3" font-family="Times,serif" font-size="14.00">Identity</text>
</g>
<!-- Bang5&#45;&gt;Identity23 -->
<g id="edge35" class="edge">
<title>Bang5&#45;&gt;Identity23</title>
<g id="a_edge35"><a xlink:title="newrretf114">
<path fill="none" stroke="red" d="M87.21,-705.09C97.29,-714.93 109.58,-728.94 116.14,-744 135.22,-787.81 137.35,-844.34 136.62,-877.43"/>
<polygon fill="red" stroke="red" points="133.11,-877.6 136.28,-887.71 140.1,-877.83 133.11,-877.6"/>
</a>
</g>
</g>
<!-- Dup7 -->
<g id="node8" class="node">
<title>Dup7</title>
<ellipse fill="none" stroke="black" cx="184.14" cy="-318" rx="27" ry="18"/>
<text text-anchor="middle" x="184.14" y="-314.3" font-family="Times,serif" font-size="14.00">Dup</text>
</g>
<!-- PiR6&#45;&gt;Dup7 -->
<g id="edge45" class="edge">
<title>PiR6&#45;&gt;Dup7</title>
<g id="a_edge45"><a xlink:title="seq135">
<path fill="none" stroke="black" d="M199.99,-251.99C197.31,-262.98 193.76,-277.54 190.7,-290.08"/>
<polygon fill="none" stroke="black" points="187.25,-289.48 188.28,-300.03 194.05,-291.14 187.25,-289.48"/>
</a>
</g>
</g>
<!-- Dup8 -->
<g id="node9" class="node">
<title>Dup8</title>
<ellipse fill="none" stroke="black" cx="109.14" cy="-318" rx="26" ry="26"/>
<ellipse fill="none" stroke="black" cx="109.14" cy="-318" rx="30" ry="30"/>
<text text-anchor="middle" x="109.14" y="-314.3" font-family="Times,serif" font-size="14.00">Dup</text>
</g>
<!-- PiR6&#45;&gt;Dup8 -->
<g id="edge9" class="edge">
<title>PiR6&#45;&gt;Dup8</title>
<g id="a_edge9"><a xlink:title="h136">
<path fill="none" stroke="blue" d="M188.02,-248.91C174.65,-260.45 155.26,-277.19 139.06,-291.17"/>
<polygon fill="none" stroke="blue" points="136.68,-288.6 131.4,-297.78 141.25,-293.9 136.68,-288.6"/>
</a>
</g>
</g>
<!-- PiR6&#45;&gt;Dup9 -->
<g id="edge40" class="edge">
<title>PiR6&#45;&gt;Dup9</title>
<g id="a_edge40"><a xlink:title="ret137">
<path fill="none" stroke="red" d="M215.13,-250.81C223.41,-262.72 234.91,-279.26 244.34,-292.83"/>
<polygon fill="none" stroke="red" points="241.6,-295.02 250.18,-301.24 247.35,-291.03 241.6,-295.02"/>
</a>
</g>
</g>
<!-- Dup7&#45;&gt;BangC4 -->
<g id="edge48" class="edge">
<title>Dup7&#45;&gt;BangC4</title>
<g id="a_edge48"><a xlink:title="seq33">
<path fill="none" stroke="black" d="M184.14,-336.39C184.14,-347.22 184.14,-361.4 184.14,-373.7"/>
<polygon fill="black" stroke="black" points="180.64,-373.91 184.14,-383.91 187.64,-373.91 180.64,-373.91"/>
</a>
</g>
</g>
<!-- Dup8&#45;&gt;BangC4 -->
<g id="edge10" class="edge">
<title>Dup8&#45;&gt;BangC4</title>
<g id="a_edge10"><a xlink:title="h34">
<path fill="none" stroke="blue" stroke-width="2" d="M129.24,-340.97C139.67,-352.38 152.42,-366.32 163,-377.89"/>
<polygon fill="blue" stroke="blue" stroke-width="2" points="160.59,-380.44 169.93,-385.46 165.76,-375.72 160.59,-380.44"/>
</a>
</g>
</g>
<!-- Dup9&#45;&gt;Identity0 -->
<g id="edge43" class="edge">
<title>Dup9&#45;&gt;Identity0</title>
<g id="a_edge43"><a xlink:title="ret42">
<path fill="none" stroke="red" d="M266.09,-335.92C273.88,-364.09 288.14,-422.51 288.14,-473 288.14,-473 288.14,-473 288.14,-547 288.14,-587.44 294.24,-604.28 269.14,-636 259.43,-648.25 224.64,-663.68 196.38,-674.72"/>
<polygon fill="red" stroke="red" points="194.79,-671.58 186.7,-678.43 197.29,-678.12 194.79,-671.58"/>
</a>
</g>
</g>
<!-- Cut10&#45;&gt;Bang3 -->
<g id="edge5" class="edge">
<title>Cut10&#45;&gt;Bang3</title>
<g id="a_edge5"><a xlink:title="dseq20">
<path fill="none" stroke="black" d="M198.3,-107.59C197.43,-115.49 197.19,-125.15 197.55,-134.06"/>
<polygon fill="black" stroke="black" points="194.06,-134.32 198.26,-144.04 201.04,-133.82 194.06,-134.32"/>
</a>
</g>
</g>
<!-- Cut10&#45;&gt;Bang3 -->
<g id="edge33" class="edge">
<title>Cut10&#45;&gt;Bang3</title>
<g id="a_edge33"><a xlink:title="newrret18">
<path fill="none" stroke="red" d="M209.98,-107.59C210.84,-115.49 211.09,-125.15 210.73,-134.06"/>
<polygon fill="red" stroke="red" points="207.23,-133.82 210.02,-144.04 214.22,-134.32 207.23,-133.82"/>
</a>
</g>
</g>
<!-- Cut10&#45;&gt;Dup7 -->
<g id="edge44" class="edge">
<title>Cut10&#45;&gt;Dup7</title>
<g id="a_edge44"><a xlink:title="seq131">
<path fill="none" stroke="black" d="M183.48,-113.25C176.56,-122.14 169.71,-132.89 166.14,-144 150.06,-194.02 164.15,-255.97 174.83,-290.52"/>
<polygon fill="black" stroke="black" points="192.72,-107.59 183.64,-113.06 187.33,-103.12 192.72,-107.59"/>
<polygon fill="black" stroke="black" points="171.59,-291.88 178,-300.32 178.25,-289.72 171.59,-291.88"/>
</a>
</g>
</g>
<!-- Cut10&#45;&gt;Dup8 -->
<g id="edge8" class="edge">
<title>Cut10&#45;&gt;Dup8</title>
<g id="a_edge8"><a xlink:title="h132">
<path fill="none" stroke="blue" d="M188.18,-104.82C177.67,-114.74 164.36,-128.97 156.14,-144 132.82,-186.62 120.46,-241.58 114.37,-277.99"/>
<polygon fill="blue" stroke="blue" points="110.86,-277.77 112.75,-288.2 117.77,-278.88 110.86,-277.77"/>
</a>
</g>
</g>
<!-- PiL13 -->
<g id="node14" class="node">
<title>PiL13</title>
<ellipse fill="none" stroke="black" cx="184.14" cy="-546" rx="27" ry="18"/>
<text text-anchor="middle" x="184.14" y="-542.3" font-family="Times,serif" font-size="14.00">PiL</text>
</g>
<!-- BangD11&#45;&gt;PiL13 -->
<g id="edge13" class="edge">
<title>BangD11&#45;&gt;PiL13</title>
<g id="a_edge13"><a xlink:title="hseq140">
<path fill="none" stroke="black" d="M178.26,-491.94C177.43,-499.76 177.19,-509.25 177.55,-518.02"/>
<polygon fill="black" stroke="black" points="174.07,-518.48 178.28,-528.21 181.05,-517.98 174.07,-518.48"/>
</a>
</g>
</g>
<!-- BangD11&#45;&gt;PiL13 -->
<g id="edge26" class="edge">
<title>BangD11&#45;&gt;PiL13</title>
<g id="a_edge26"><a xlink:title="lval141">
<path fill="none" stroke="blue" d="M190.02,-491.94C190.85,-499.76 191.08,-509.25 190.73,-518.02"/>
<polygon fill="blue" stroke="blue" points="187.22,-517.98 190,-528.21 194.2,-518.48 187.22,-517.98"/>
</a>
</g>
</g>
<!-- PiL14 -->
<g id="node15" class="node">
<title>PiL14</title>
<ellipse fill="none" stroke="black" cx="71.14" cy="-834" rx="27" ry="18"/>
<text text-anchor="middle" x="71.14" y="-830.3" font-family="Times,serif" font-size="14.00">PiL</text>
</g>
<!-- BangD12&#45;&gt;PiL14 -->
<g id="edge14" class="edge">
<title>BangD12&#45;&gt;PiL14</title>
<g id="a_edge14"><a xlink:title="hseq143">
<path fill="none" stroke="black" d="M65.26,-779.94C64.43,-787.76 64.19,-797.25 64.55,-806.02"/>
<polygon fill="black" stroke="black" points="61.07,-806.48 65.28,-816.21 68.05,-805.98 61.07,-806.48"/>
</a>
</g>
</g>
<!-- BangD12&#45;&gt;PiL14 -->
<g id="edge27" class="edge">
<title>BangD12&#45;&gt;PiL14</title>
<g id="a_edge27"><a xlink:title="lval144">
<path fill="none" stroke="blue" d="M77.02,-779.94C77.85,-787.76 78.08,-797.25 77.73,-806.02"/>
<polygon fill="blue" stroke="blue" points="74.22,-805.98 77,-816.21 81.2,-806.48 74.22,-805.98"/>
</a>
</g>
</g>
<!-- PiL13&#45;&gt;PiL1 -->
<g id="edge17" class="edge">
<title>PiL13&#45;&gt;PiL1</title>
<g id="a_edge17"><a xlink:title="idseq148">
<path fill="none" stroke="black" d="M168.16,-571.63C165.56,-577.53 163.08,-583.86 161,-589.87"/>
<polygon fill="black" stroke="black" points="175.59,-564.02 168.18,-571.58 169.26,-561.04 175.59,-564.02"/>
<polygon fill="black" stroke="black" points="157.63,-588.94 157.94,-599.53 164.3,-591.06 157.63,-588.94"/>
</a>
</g>
</g>
<!-- PiL13&#45;&gt;PiL1 -->
<g id="edge28" class="edge">
<title>PiL13&#45;&gt;PiL1</title>
<g id="a_edge28"><a xlink:title="lval48">
<path fill="none" stroke="blue" d="M183.38,-564.3C181,-572.71 177.23,-582.98 173.19,-592.2"/>
<polygon fill="blue" stroke="blue" points="169.99,-590.78 168.92,-601.32 176.33,-593.75 169.99,-590.78"/>
</a>
</g>
</g>
<!-- Bang15 -->
<g id="node16" class="node">
<title>Bang15</title>
<ellipse fill="none" stroke="black" cx="231.14" cy="-618" rx="29.5" ry="18"/>
<text text-anchor="middle" x="231.14" y="-614.3" font-family="Times,serif" font-size="14.00">Bang</text>
</g>
<!-- PiL13&#45;&gt;Bang15 -->
<g id="edge3" class="edge">
<title>PiL13&#45;&gt;Bang15</title>
<g id="a_edge3"><a xlink:title="dseq146">
<path fill="none" stroke="black" d="M189.64,-563.94C194.8,-573.08 202.3,-584.48 209.58,-594.37"/>
<polygon fill="black" stroke="black" points="207.01,-596.76 215.87,-602.57 212.57,-592.5 207.01,-596.76"/>
</a>
</g>
</g>
<!-- PiL13&#45;&gt;Bang15 -->
<g id="edge31" class="edge">
<title>PiL13&#45;&gt;Bang15</title>
<g id="a_edge31"><a xlink:title="newrret147">
<path fill="none" stroke="red" d="M199.2,-561.16C206.2,-569.87 214.19,-581.3 220.57,-591.54"/>
<polygon fill="red" stroke="red" points="217.56,-593.34 225.69,-600.14 223.58,-589.75 217.56,-593.34"/>
</a>
</g>
</g>
<!-- Bang16 -->
<g id="node17" class="node">
<title>Bang16</title>
<ellipse fill="none" stroke="black" cx="49.14" cy="-906" rx="29.5" ry="18"/>
<text text-anchor="middle" x="49.14" y="-902.3" font-family="Times,serif" font-size="14.00">Bang</text>
</g>
<!-- PiL14&#45;&gt;Bang16 -->
<g id="edge4" class="edge">
<title>PiL14&#45;&gt;Bang16</title>
<g id="a_edge4"><a xlink:title="dseq151">
<path fill="none" stroke="black" d="M60.38,-850.88C56.96,-858.85 53.58,-868.73 51.07,-877.86"/>
<polygon fill="black" stroke="black" points="47.64,-877.16 48.66,-887.7 54.44,-878.82 47.64,-877.16"/>
</a>
</g>
</g>
<!-- PiL14&#45;&gt;Bang16 -->
<g id="edge32" class="edge">
<title>PiL14&#45;&gt;Bang16</title>
<g id="a_edge32"><a xlink:title="newrret152">
<path fill="none" stroke="red" d="M71.61,-852.3C69.88,-860.5 66.95,-870.47 63.67,-879.52"/>
<polygon fill="red" stroke="red" points="60.4,-878.26 60,-888.85 66.92,-880.82 60.4,-878.26"/>
</a>
</g>
</g>
<!-- PiL14&#45;&gt;Identity23 -->
<g id="edge18" class="edge">
<title>PiL14&#45;&gt;Identity23</title>
<g id="a_edge18"><a xlink:title="idseq153">
<path fill="none" stroke="black" d="M86.77,-859.15C93.43,-866.92 101.3,-875.47 108.78,-883.07"/>
<polygon fill="black" stroke="black" points="82.87,-848.99 86.58,-858.92 77.49,-853.47 82.87,-848.99"/>
<polygon fill="black" stroke="black" points="106.49,-885.73 116.06,-890.28 111.42,-880.76 106.49,-885.73"/>
</a>
</g>
</g>
<!-- PiL14&#45;&gt;Identity23 -->
<g id="edge24" class="edge">
<title>PiL14&#45;&gt;Identity23</title>
<g id="a_edge24"><a xlink:title="lret154">
<path fill="none" stroke="blue" d="M88.59,-848.16C98.19,-857.25 109.85,-869.61 119.2,-880.48"/>
<polygon fill="blue" stroke="blue" points="116.73,-882.99 125.83,-888.43 122.11,-878.51 116.73,-882.99"/>
</a>
</g>
</g>
<!-- PiR17 -->
<g id="node18" class="node">
<title>PiR17</title>
<ellipse fill="none" stroke="black" cx="240.14" cy="-690" rx="27" ry="18"/>
<text text-anchor="middle" x="240.14" y="-686.3" font-family="Times,serif" font-size="14.00">PiR</text>
</g>
<!-- Bang15&#45;&gt;PiR17 -->
<g id="edge1" class="edge">
<title>Bang15&#45;&gt;PiR17</title>
<g id="a_edge1"><a xlink:title="c_bseq156">
<path fill="none" stroke="black" d="M227.44,-635.94C227.62,-643.97 228.65,-653.74 230.19,-662.7"/>
<polygon fill="black" stroke="black" points="226.8,-663.59 232.23,-672.69 233.66,-662.19 226.8,-663.59"/>
</a>
</g>
</g>
<!-- Bang15&#45;&gt;PiR17 -->
<g id="edge36" class="edge">
<title>Bang15&#45;&gt;PiR17</title>
<g id="a_edge36"><a xlink:title="newrretf157">
<path fill="none" stroke="red" d="M239.11,-635.58C240.97,-643.4 242.45,-652.93 243.24,-661.77"/>
<polygon fill="red" stroke="red" points="239.76,-662.26 243.84,-672.04 246.75,-661.85 239.76,-662.26"/>
</a>
</g>
</g>
<!-- PiR18 -->
<g id="node19" class="node">
<title>PiR18</title>
<ellipse fill="none" stroke="black" cx="49.14" cy="-978" rx="27" ry="18"/>
<text text-anchor="middle" x="49.14" y="-974.3" font-family="Times,serif" font-size="14.00">PiR</text>
</g>
<!-- Bang16&#45;&gt;PiR18 -->
<g id="edge2" class="edge">
<title>Bang16&#45;&gt;PiR18</title>
<g id="a_edge2"><a xlink:title="c_bseq159">
<path fill="none" stroke="black" d="M43.26,-923.94C42.43,-931.76 42.19,-941.25 42.55,-950.02"/>
<polygon fill="black" stroke="black" points="39.07,-950.48 43.28,-960.21 46.05,-949.98 39.07,-950.48"/>
</a>
</g>
</g>
<!-- Bang16&#45;&gt;PiR18 -->
<g id="edge37" class="edge">
<title>Bang16&#45;&gt;PiR18</title>
<g id="a_edge37"><a xlink:title="newrretf160">
<path fill="none" stroke="red" d="M55.02,-923.94C55.85,-931.76 56.08,-941.25 55.73,-950.02"/>
<polygon fill="red" stroke="red" points="52.22,-949.98 55,-960.21 59.2,-950.48 52.22,-949.98"/>
</a>
</g>
</g>
<!-- BangD19 -->
<g id="node20" class="node">
<title>BangD19</title>
<ellipse fill="none" stroke="black" cx="240.14" cy="-762" rx="36" ry="18"/>
<text text-anchor="middle" x="240.14" y="-758.3" font-family="Times,serif" font-size="14.00">BangD</text>
</g>
<!-- PiR17&#45;&gt;BangD19 -->
<g id="edge15" class="edge">
<title>PiR17&#45;&gt;BangD19</title>
<g id="a_edge15"><a xlink:title="i163">
<path fill="none" stroke="blue" d="M234.3,-707.58C233.43,-715.49 233.19,-725.14 233.55,-734.06"/>
<polygon fill="blue" stroke="blue" points="230.06,-734.31 234.26,-744.04 237.04,-733.82 230.06,-734.31"/>
</a>
</g>
</g>
<!-- PiR17&#45;&gt;BangD19 -->
<g id="edge46" class="edge">
<title>PiR17&#45;&gt;BangD19</title>
<g id="a_edge46"><a xlink:title="seq162">
<path fill="none" stroke="black" d="M245.98,-707.58C246.84,-715.49 247.09,-725.14 246.73,-734.06"/>
<polygon fill="black" stroke="black" points="243.23,-733.82 246.02,-744.04 250.22,-734.31 243.23,-733.82"/>
</a>
</g>
</g>
<!-- Identity21 -->
<g id="node22" class="node">
<title>Identity21</title>
<ellipse fill="none" stroke="black" cx="240.14" cy="-834" rx="38.19" ry="18"/>
<text text-anchor="middle" x="240.14" y="-830.3" font-family="Times,serif" font-size="14.00">Identity</text>
</g>
<!-- PiR17&#45;&gt;Identity21 -->
<g id="edge41" class="edge">
<title>PiR17&#45;&gt;Identity21</title>
<g id="a_edge41"><a xlink:title="ret164">
<path fill="none" stroke="red" d="M223.93,-704.43C213.51,-714.18 200.88,-728.36 195.14,-744 189.62,-759.01 189.62,-764.98 195.14,-780 199.28,-791.27 207,-801.79 214.9,-810.44"/>
<polygon fill="red" stroke="red" points="212.61,-813.11 222.1,-817.82 217.62,-808.22 212.61,-813.11"/>
</a>
</g>
</g>
<!-- BangD20 -->
<g id="node21" class="node">
<title>BangD20</title>
<ellipse fill="none" stroke="black" cx="49.14" cy="-1050" rx="36" ry="18"/>
<text text-anchor="middle" x="49.14" y="-1046.3" font-family="Times,serif" font-size="14.00">BangD</text>
</g>
<!-- PiR18&#45;&gt;BangD20 -->
<g id="edge16" class="edge">
<title>PiR18&#45;&gt;BangD20</title>
<g id="a_edge16"><a xlink:title="i167">
<path fill="none" stroke="blue" d="M43.3,-995.58C42.43,-1003.49 42.19,-1013.14 42.55,-1022.06"/>
<polygon fill="blue" stroke="blue" points="39.06,-1022.31 43.26,-1032.04 46.04,-1021.82 39.06,-1022.31"/>
</a>
</g>
</g>
<!-- PiR18&#45;&gt;BangD20 -->
<g id="edge47" class="edge">
<title>PiR18&#45;&gt;BangD20</title>
<g id="a_edge47"><a xlink:title="seq166">
<path fill="none" stroke="black" d="M54.98,-995.58C55.84,-1003.49 56.09,-1013.14 55.73,-1022.06"/>
<polygon fill="black" stroke="black" points="52.23,-1021.82 55.02,-1032.04 59.22,-1022.31 52.23,-1021.82"/>
</a>
</g>
</g>
<!-- Identity22 -->
<g id="node23" class="node">
<title>Identity22</title>
<ellipse fill="none" stroke="black" cx="49.14" cy="-1122" rx="38.19" ry="18"/>
<text text-anchor="middle" x="49.14" y="-1118.3" font-family="Times,serif" font-size="14.00">Identity</text>
</g>
<!-- PiR18&#45;&gt;Identity22 -->
<g id="edge42" class="edge">
<title>PiR18&#45;&gt;Identity22</title>
<g id="a_edge42"><a xlink:title="ret168">
<path fill="none" stroke="red" d="M32.93,-992.43C22.51,-1002.18 9.88,-1016.36 4.14,-1032 -1.38,-1047.01 -1.38,-1052.98 4.14,-1068 8.28,-1079.27 16,-1089.79 23.9,-1098.44"/>
<polygon fill="red" stroke="red" points="21.61,-1101.11 31.1,-1105.82 26.62,-1096.22 21.61,-1101.11"/>
</a>
</g>
</g>
<!-- BangD19&#45;&gt;Identity21 -->
<g id="edge20" class="edge">
<title>BangD19&#45;&gt;Identity21</title>
<g id="a_edge20"><a xlink:title="iret171">
<path fill="none" stroke="blue" d="M234.26,-779.94C233.43,-787.76 233.19,-797.25 233.55,-806.02"/>
<polygon fill="blue" stroke="blue" points="230.07,-806.48 234.28,-816.21 237.05,-805.98 230.07,-806.48"/>
</a>
</g>
</g>
<!-- BangD19&#45;&gt;Identity21 -->
<g id="edge22" class="edge">
<title>BangD19&#45;&gt;Identity21</title>
<g id="a_edge22"><a xlink:title="iseq170">
<path fill="none" stroke="black" d="M246.02,-779.94C246.85,-787.76 247.08,-797.25 246.73,-806.02"/>
<polygon fill="black" stroke="black" points="243.22,-805.98 246,-816.21 250.2,-806.48 243.22,-805.98"/>
</a>
</g>
</g>
<!-- BangD20&#45;&gt;Identity22 -->
<g id="edge21" class="edge">
<title>BangD20&#45;&gt;Identity22</title>
<g id="a_edge21"><a xlink:title="iret174">
<path fill="none" stroke="blue" d="M43.26,-1067.94C42.43,-1075.76 42.19,-1085.25 42.55,-1094.02"/>
<polygon fill="blue" stroke="blue" points="39.07,-1094.48 43.28,-1104.21 46.05,-1093.98 39.07,-1094.48"/>
</a>
</g>
</g>
<!-- BangD20&#45;&gt;Identity22 -->
<g id="edge23" class="edge">
<title>BangD20&#45;&gt;Identity22</title>
<g id="a_edge23"><a xlink:title="iseq173">
<path fill="none" stroke="black" d="M55.02,-1067.94C55.85,-1075.76 56.08,-1085.25 55.73,-1094.02"/>
<polygon fill="black" stroke="black" points="52.22,-1093.98 55,-1104.21 59.2,-1094.48 52.22,-1093.98"/>
</a>
</g>
</g>
</g>
</svg>
