<?xml version="1.0" encoding="UTF-8" standalone="no"?>
<!DOCTYPE svg PUBLIC "-//W3C//DTD SVG 1.1//EN"
 "http://www.w3.org/Graphics/SVG/1.1/DTD/svg11.dtd">
<!-- Generated by graphviz version 2.49.3 (0)
 -->
<!-- Pages: 1 -->
<svg width="365pt" height="1292pt"
 viewBox="0.00 0.00 365.00 1292.00" xmlns="http://www.w3.org/2000/svg" xmlns:xlink="http://www.w3.org/1999/xlink">
<g id="graph0" class="graph" transform="scale(1 1) rotate(0) translate(4 1288)">
<polygon fill="white" stroke="transparent" points="-4,4 -4,-1288 361,-1288 361,4 -4,4"/>
<!-- I0 -->
<g id="node1" class="node">
<title>I0</title>
<ellipse fill="none" stroke="black" cx="154" cy="-186" rx="27" ry="18"/>
<text text-anchor="middle" x="154" y="-182.3" font-family="Times,serif" font-size="14.00">I</text>
</g>
<!-- !d1 -->
<g id="node2" class="node">
<title>!d1</title>
<ellipse fill="none" stroke="black" cx="195" cy="-102" rx="27" ry="18"/>
<text text-anchor="middle" x="195" y="-98.3" font-family="Times,serif" font-size="14.00">!d</text>
</g>
<!-- I0&#45;&gt;!d1 -->
<g id="edge8" class="edge">
<title>I0&#45;&gt;!d1</title>
<g id="a_edge8"><a xlink:title="iret84">
<path fill="none" stroke="blue" d="M166.6,-159.79C173.17,-146.66 181,-131 186.78,-119.44"/>
<polygon fill="blue" stroke="blue" points="163.44,-158.29 162.1,-168.8 169.7,-161.42 163.44,-158.29"/>
</a>
</g>
</g>
<!-- λ2 -->
<g id="node3" class="node">
<title>λ2</title>
<ellipse fill="none" stroke="black" cx="140" cy="-18" rx="27" ry="18"/>
<text text-anchor="middle" x="140" y="-14.3" font-family="Times,serif" font-size="14.00">λ</text>
</g>
<!-- !d1&#45;&gt;λ2 -->
<g id="edge7" class="edge">
<title>!d1&#45;&gt;λ2</title>
<g id="a_edge7"><a xlink:title="i81">
<path fill="none" stroke="blue" d="M178.75,-76.77C169.65,-63.2 158.55,-46.66 150.57,-34.76"/>
<polygon fill="blue" stroke="blue" points="175.92,-78.83 184.4,-85.19 181.73,-74.93 175.92,-78.83"/>
</a>
</g>
</g>
<!-- λ2&#45;&gt;I0 -->
<g id="edge30" class="edge">
<title>λ2&#45;&gt;I0</title>
<g id="a_edge30"><a xlink:title="ret82">
<path fill="none" stroke="red" d="M141.46,-36.29C143.89,-65.1 148.78,-123.14 151.69,-157.57"/>
<polygon fill="red" stroke="red" points="148.23,-158.19 152.55,-167.86 155.2,-157.6 148.23,-158.19"/>
</a>
</g>
</g>
<!-- I3 -->
<g id="node4" class="node">
<title>I3</title>
<ellipse fill="none" stroke="black" cx="226" cy="-402" rx="27" ry="18"/>
<text text-anchor="middle" x="226" y="-398.3" font-family="Times,serif" font-size="14.00">I</text>
</g>
<!-- Dup22 -->
<g id="node23" class="node">
<title>Dup22</title>
<ellipse fill="none" stroke="black" cx="82" cy="-330" rx="27" ry="18"/>
<text text-anchor="middle" x="82" y="-326.3" font-family="Times,serif" font-size="14.00">Dup</text>
</g>
<!-- I3&#45;&gt;Dup22 -->
<g id="edge12" class="edge">
<title>I3&#45;&gt;Dup22</title>
<g id="a_edge12"><a xlink:title="lret75">
<path fill="none" stroke="blue" d="M195.53,-386.18C167.85,-372.73 127.73,-353.22 103.33,-341.37"/>
<polygon fill="blue" stroke="blue" points="194.23,-389.44 204.75,-390.67 197.29,-383.15 194.23,-389.44"/>
</a>
</g>
</g>
<!-- I4 -->
<g id="node5" class="node">
<title>I4</title>
<ellipse fill="none" stroke="black" cx="302" cy="-690" rx="27" ry="18"/>
<text text-anchor="middle" x="302" y="-686.3" font-family="Times,serif" font-size="14.00">I</text>
</g>
<!-- @5 -->
<g id="node6" class="node">
<title>@5</title>
<ellipse fill="none" stroke="black" cx="302" cy="-618" rx="27" ry="18"/>
<text text-anchor="middle" x="302" y="-614.3" font-family="Times,serif" font-size="14.00">@</text>
</g>
<!-- I4&#45;&gt;@5 -->
<g id="edge11" class="edge">
<title>I4&#45;&gt;@5</title>
<g id="a_edge11"><a xlink:title="lret53">
<path fill="none" stroke="blue" d="M302,-661.66C302,-653.05 302,-643.79 302,-636.1"/>
<polygon fill="blue" stroke="blue" points="298.5,-661.69 302,-671.69 305.5,-661.69 298.5,-661.69"/>
</a>
</g>
</g>
<!-- Cut10 -->
<g id="node11" class="node">
<title>Cut10</title>
<ellipse fill="none" stroke="black" cx="264" cy="-546" rx="27" ry="18"/>
<text text-anchor="middle" x="264" y="-542.3" font-family="Times,serif" font-size="14.00">Cut</text>
</g>
<!-- @5&#45;&gt;Cut10 -->
<g id="edge15" class="edge">
<title>@5&#45;&gt;Cut10</title>
<g id="a_edge15"><a xlink:title="lval48">
<path fill="none" stroke="blue" d="M288.27,-591.7C283.1,-582.17 277.36,-571.61 272.77,-563.14"/>
<polygon fill="blue" stroke="blue" points="285.34,-593.64 293.19,-600.76 291.49,-590.3 285.34,-593.64"/>
</a>
</g>
</g>
<!-- !p11 -->
<g id="node12" class="node">
<title>!p11</title>
<ellipse fill="none" stroke="black" cx="300" cy="-102" rx="27" ry="18"/>
<text text-anchor="middle" x="300" y="-98.3" font-family="Times,serif" font-size="14.00">!p</text>
</g>
<!-- @5&#45;&gt;!p11 -->
<g id="edge19" class="edge">
<title>@5&#45;&gt;!p11</title>
<g id="a_edge19"><a xlink:title="newrret52">
<path fill="none" stroke="red" d="M305.36,-600.02C310.31,-573.47 319,-520.43 319,-475 319,-475 319,-475 319,-257 319,-212.17 310.97,-160.56 305.35,-129.92"/>
<polygon fill="red" stroke="red" points="308.78,-129.18 303.48,-120 301.9,-130.48 308.78,-129.18"/>
</a>
</g>
</g>
<!-- Assign6 -->
<g id="node7" class="node">
<title>Assign6</title>
<ellipse fill="none" stroke="black" cx="222" cy="-834" rx="35.19" ry="18"/>
<text text-anchor="middle" x="222" y="-830.3" font-family="Times,serif" font-size="14.00">Assign</text>
</g>
<!-- Dup15 -->
<g id="node16" class="node">
<title>Dup15</title>
<ellipse fill="none" stroke="black" cx="302" cy="-762" rx="27" ry="18"/>
<text text-anchor="middle" x="302" y="-758.3" font-family="Times,serif" font-size="14.00">Dup</text>
</g>
<!-- Assign6&#45;&gt;Dup15 -->
<g id="edge27" class="edge">
<title>Assign6&#45;&gt;Dup15</title>
<g id="a_edge27"><a xlink:title="ret133">
<path fill="none" stroke="red" d="M238.97,-818.15C250.4,-808.14 265.65,-794.8 278.29,-783.74"/>
<polygon fill="red" stroke="red" points="280.93,-786.09 286.15,-776.87 276.32,-780.82 280.93,-786.09"/>
</a>
</g>
</g>
<!-- !p7 -->
<g id="node8" class="node">
<title>!p7</title>
<ellipse fill="none" stroke="black" cx="302" cy="-906" rx="27" ry="18"/>
<text text-anchor="middle" x="302" y="-902.3" font-family="Times,serif" font-size="14.00">!p</text>
</g>
<!-- λ12 -->
<g id="node13" class="node">
<title>λ12</title>
<ellipse fill="none" stroke="black" cx="302" cy="-834" rx="27" ry="18"/>
<text text-anchor="middle" x="302" y="-830.3" font-family="Times,serif" font-size="14.00">λ</text>
</g>
<!-- !p7&#45;&gt;λ12 -->
<g id="edge26" class="edge">
<title>!p7&#45;&gt;λ12</title>
<g id="a_edge26"><a xlink:title="newrretf91">
<path fill="none" stroke="red" d="M302,-887.69C302,-879.98 302,-870.71 302,-862.11"/>
<polygon fill="red" stroke="red" points="305.5,-862.1 302,-852.1 298.5,-862.1 305.5,-862.1"/>
</a>
</g>
</g>
<!-- Dup8 -->
<g id="node9" class="node">
<title>Dup8</title>
<ellipse fill="none" stroke="black" cx="264" cy="-474" rx="27" ry="18"/>
<text text-anchor="middle" x="264" y="-470.3" font-family="Times,serif" font-size="14.00">Dup</text>
</g>
<!-- Dup8&#45;&gt;I3 -->
<g id="edge24" class="edge">
<title>Dup8&#45;&gt;I3</title>
<g id="a_edge24"><a xlink:title="newrretf66">
<path fill="none" stroke="red" d="M255.19,-456.76C250.58,-448.28 244.84,-437.71 239.68,-428.19"/>
<polygon fill="red" stroke="red" points="242.61,-426.26 234.77,-419.14 236.46,-429.6 242.61,-426.26"/>
</a>
</g>
</g>
<!-- !c9 -->
<g id="node10" class="node">
<title>!c9</title>
<ellipse fill="none" stroke="black" cx="275" cy="-1122" rx="27" ry="18"/>
<text text-anchor="middle" x="275" y="-1118.3" font-family="Times,serif" font-size="14.00">!c</text>
</g>
<!-- Dup14 -->
<g id="node15" class="node">
<title>Dup14</title>
<ellipse fill="none" stroke="black" cx="275" cy="-1050" rx="27" ry="18"/>
<text text-anchor="middle" x="275" y="-1046.3" font-family="Times,serif" font-size="14.00">Dup</text>
</g>
<!-- !c9&#45;&gt;Dup14 -->
<g id="edge4" class="edge">
<title>!c9&#45;&gt;Dup14</title>
<g id="a_edge4"><a xlink:title="h34">
<path fill="none" stroke="blue" d="M275,-1093.66C275,-1085.05 275,-1075.79 275,-1068.1"/>
<polygon fill="blue" stroke="blue" points="271.5,-1093.69 275,-1103.69 278.5,-1093.69 271.5,-1093.69"/>
</a>
</g>
</g>
<!-- Cut10&#45;&gt;Dup8 -->
<g id="edge20" class="edge">
<title>Cut10&#45;&gt;Dup8</title>
<g id="a_edge20"><a xlink:title="newrretf108">
<path fill="none" stroke="red" d="M264,-527.69C264,-519.98 264,-510.71 264,-502.11"/>
<polygon fill="red" stroke="red" points="267.5,-502.1 264,-492.1 260.5,-502.1 267.5,-502.1"/>
</a>
</g>
</g>
<!-- !p11&#45;&gt;Dup8 -->
<g id="edge21" class="edge">
<title>!p11&#45;&gt;Dup8</title>
<g id="a_edge21"><a xlink:title="newrretf114">
<path fill="none" stroke="red" d="M296.52,-120C291.03,-148.3 281,-206.89 281,-257 281,-331 281,-331 281,-331 281,-371.28 274.17,-417.55 269.17,-446.03"/>
<polygon fill="none" stroke="red" points="265.7,-445.56 267.36,-456.02 272.58,-446.81 265.7,-445.56"/>
</a>
</g>
</g>
<!-- !p11&#45;&gt;!c9 -->
<g id="edge1" class="edge">
<title>!p11&#45;&gt;!c9</title>
<g id="a_edge1"><a xlink:title="h116">
<path fill="none" stroke="blue" d="M315.35,-127.71C332.24,-157.3 357,-208.89 357,-257 357,-979 357,-979 357,-979 357,-1026.98 321.45,-1073.34 297.16,-1099.41"/>
<polygon fill="blue" stroke="blue" points="318.27,-125.76 310.19,-118.91 312.23,-129.31 318.27,-125.76"/>
<polygon fill="blue" stroke="blue" points="287.52,-1104.4 296.97,-1099.61 292.56,-1109.25 287.52,-1104.4"/>
</a>
</g>
</g>
<!-- λ12&#45;&gt;Dup15 -->
<g id="edge28" class="edge">
<title>λ12&#45;&gt;Dup15</title>
<g id="a_edge28"><a xlink:title="ret137">
<path fill="none" stroke="red" d="M302,-815.69C302,-807.98 302,-798.71 302,-790.11"/>
<polygon fill="none" stroke="red" points="305.5,-790.1 302,-780.1 298.5,-790.1 305.5,-790.1"/>
</a>
</g>
</g>
<!-- Dup13 -->
<g id="node14" class="node">
<title>Dup13</title>
<ellipse fill="none" stroke="black" cx="127" cy="-1266" rx="27" ry="18"/>
<text text-anchor="middle" x="127" y="-1262.3" font-family="Times,serif" font-size="14.00">Dup</text>
</g>
<!-- Dup14&#45;&gt;λ12 -->
<g id="edge3" class="edge">
<title>Dup14&#45;&gt;λ12</title>
<g id="a_edge3"><a xlink:title="h136">
<path fill="none" stroke="blue" d="M267.87,-1021.98C260.55,-989.43 252.03,-933.43 266,-888 270.38,-873.75 280.04,-859.9 288.25,-849.93"/>
<polygon fill="none" stroke="blue" points="264.56,-1023.16 270.28,-1032.08 271.37,-1021.54 264.56,-1023.16"/>
</a>
</g>
</g>
<!-- Cut16 -->
<g id="node17" class="node">
<title>Cut16</title>
<ellipse fill="none" stroke="black" cx="302" cy="-978" rx="27" ry="18"/>
<text text-anchor="middle" x="302" y="-974.3" font-family="Times,serif" font-size="14.00">Cut</text>
</g>
<!-- Dup14&#45;&gt;Cut16 -->
<g id="edge2" class="edge">
<title>Dup14&#45;&gt;Cut16</title>
<g id="a_edge2"><a xlink:title="h132">
<path fill="none" stroke="blue" d="M285.01,-1023.05C288.5,-1014 292.32,-1004.08 295.46,-995.95"/>
<polygon fill="blue" stroke="blue" points="281.73,-1021.82 281.4,-1032.41 288.26,-1024.34 281.73,-1021.82"/>
</a>
</g>
</g>
<!-- Dup15&#45;&gt;I4 -->
<g id="edge29" class="edge">
<title>Dup15&#45;&gt;I4</title>
<g id="a_edge29"><a xlink:title="ret42">
<path fill="none" stroke="red" d="M302,-743.69C302,-735.98 302,-726.71 302,-718.11"/>
<polygon fill="red" stroke="red" points="305.5,-718.1 302,-708.1 298.5,-718.1 305.5,-718.1"/>
</a>
</g>
</g>
<!-- Cut16&#45;&gt;!p7 -->
<g id="edge18" class="edge">
<title>Cut16&#45;&gt;!p7</title>
<g id="a_edge18"><a xlink:title="newrret18">
<path fill="none" stroke="red" d="M302,-959.69C302,-951.98 302,-942.71 302,-934.11"/>
<polygon fill="red" stroke="red" points="305.5,-934.1 302,-924.1 298.5,-934.1 305.5,-934.1"/>
</a>
</g>
</g>
<!-- !d17 -->
<g id="node18" class="node">
<title>!d17</title>
<ellipse fill="none" stroke="black" cx="219" cy="-1194" rx="27" ry="18"/>
<text text-anchor="middle" x="219" y="-1190.3" font-family="Times,serif" font-size="14.00">!d</text>
</g>
<!-- !d17&#45;&gt;!c9 -->
<g id="edge5" class="edge">
<title>!d17&#45;&gt;!c9</title>
<g id="a_edge5"><a xlink:title="hf107">
<path fill="none" stroke="blue" d="M237.5,-1169.87C245.85,-1159.44 255.47,-1147.41 262.87,-1138.15"/>
<polygon fill="blue" stroke="blue" points="234.67,-1167.81 231.15,-1177.81 240.13,-1172.18 234.67,-1167.81"/>
</a>
</g>
</g>
<!-- !d18 -->
<g id="node19" class="node">
<title>!d18</title>
<ellipse fill="none" stroke="black" cx="226" cy="-186" rx="27" ry="18"/>
<text text-anchor="middle" x="226" y="-182.3" font-family="Times,serif" font-size="14.00">!d</text>
</g>
<!-- !d18&#45;&gt;!p11 -->
<g id="edge6" class="edge">
<title>!d18&#45;&gt;!p11</title>
<g id="a_edge6"><a xlink:title="hf113">
<path fill="none" stroke="blue" d="M246.29,-162.52C259.09,-148.33 275.27,-130.4 286.51,-117.94"/>
<polygon fill="blue" stroke="blue" points="243.67,-160.19 239.57,-169.96 248.87,-164.88 243.67,-160.19"/>
</a>
</g>
</g>
<!-- @19 -->
<g id="node20" class="node">
<title>@19</title>
<ellipse fill="none" stroke="black" cx="55" cy="-1266" rx="27" ry="18"/>
<text text-anchor="middle" x="55" y="-1262.3" font-family="Times,serif" font-size="14.00">@</text>
</g>
<!-- @19&#45;&gt;!d17 -->
<g id="edge13" class="edge">
<title>@19&#45;&gt;!d17</title>
<g id="a_edge13"><a xlink:title="lval141">
<path fill="none" stroke="blue" d="M85.49,-1250.47C87.35,-1249.62 89.2,-1248.79 91,-1248 127.51,-1231.83 170.49,-1214.34 196.2,-1204.05"/>
<polygon fill="blue" stroke="blue" points="83.84,-1247.38 76.24,-1254.76 86.79,-1253.73 83.84,-1247.38"/>
</a>
</g>
</g>
<!-- !p23 -->
<g id="node24" class="node">
<title>!p23</title>
<ellipse fill="none" stroke="black" cx="27" cy="-1122" rx="27" ry="18"/>
<text text-anchor="middle" x="27" y="-1118.3" font-family="Times,serif" font-size="14.00">!p</text>
</g>
<!-- @19&#45;&gt;!p23 -->
<g id="edge16" class="edge">
<title>@19&#45;&gt;!p23</title>
<g id="a_edge16"><a xlink:title="newrret147">
<path fill="none" stroke="red" d="M51.62,-1247.87C46.83,-1223.56 38.01,-1178.81 32.33,-1150.01"/>
<polygon fill="red" stroke="red" points="35.76,-1149.32 30.39,-1140.18 28.89,-1150.67 35.76,-1149.32"/>
</a>
</g>
</g>
<!-- @20 -->
<g id="node21" class="node">
<title>@20</title>
<ellipse fill="none" stroke="black" cx="82" cy="-258" rx="27" ry="18"/>
<text text-anchor="middle" x="82" y="-254.3" font-family="Times,serif" font-size="14.00">@</text>
</g>
<!-- @20&#45;&gt;!d18 -->
<g id="edge14" class="edge">
<title>@20&#45;&gt;!d18</title>
<g id="a_edge14"><a xlink:title="lval144">
<path fill="none" stroke="blue" d="M112.47,-242.18C140.15,-228.73 180.27,-209.22 204.67,-197.37"/>
<polygon fill="blue" stroke="blue" points="110.71,-239.15 103.25,-246.67 113.77,-245.44 110.71,-239.15"/>
</a>
</g>
</g>
<!-- !p24 -->
<g id="node25" class="node">
<title>!p24</title>
<ellipse fill="none" stroke="black" cx="82" cy="-186" rx="27" ry="18"/>
<text text-anchor="middle" x="82" y="-182.3" font-family="Times,serif" font-size="14.00">!p</text>
</g>
<!-- @20&#45;&gt;!p24 -->
<g id="edge17" class="edge">
<title>@20&#45;&gt;!p24</title>
<g id="a_edge17"><a xlink:title="newrret152">
<path fill="none" stroke="red" d="M82,-239.69C82,-231.98 82,-222.71 82,-214.11"/>
<polygon fill="red" stroke="red" points="85.5,-214.1 82,-204.1 78.5,-214.1 85.5,-214.1"/>
</a>
</g>
</g>
<!-- Dup21 -->
<g id="node22" class="node">
<title>Dup21</title>
<ellipse fill="none" stroke="black" cx="199" cy="-1266" rx="27" ry="18"/>
<text text-anchor="middle" x="199" y="-1262.3" font-family="Times,serif" font-size="14.00">Dup</text>
</g>
<!-- Dup22&#45;&gt;@19 -->
<g id="edge9" class="edge">
<title>Dup22&#45;&gt;@19</title>
<g id="a_edge9"><a xlink:title="lret149">
<path fill="none" stroke="blue" d="M82,-358.08C82,-386.65 82,-432.99 82,-473 82,-1123 82,-1123 82,-1123 82,-1168.92 68.2,-1221.75 60.33,-1248.14"/>
<polygon fill="blue" stroke="blue" points="85.5,-358.04 82,-348.04 78.5,-358.04 85.5,-358.04"/>
</a>
</g>
</g>
<!-- Dup22&#45;&gt;@20 -->
<g id="edge10" class="edge">
<title>Dup22&#45;&gt;@20</title>
<g id="a_edge10"><a xlink:title="lret154">
<path fill="none" stroke="blue" d="M82,-301.66C82,-293.05 82,-283.79 82,-276.1"/>
<polygon fill="none" stroke="blue" points="78.5,-301.69 82,-311.69 85.5,-301.69 78.5,-301.69"/>
</a>
</g>
</g>
<!-- Dup26 -->
<g id="node27" class="node">
<title>Dup26</title>
<ellipse fill="none" stroke="black" cx="82" cy="-102" rx="26" ry="26"/>
<ellipse fill="none" stroke="black" cx="82" cy="-102" rx="30" ry="30"/>
<text text-anchor="middle" x="82" y="-98.3" font-family="Times,serif" font-size="14.00">Dup</text>
</g>
<!-- !p23&#45;&gt;Dup26 -->
<g id="edge22" class="edge">
<title>!p23&#45;&gt;Dup26</title>
<g id="a_edge22"><a xlink:title="newrretf157">
<path fill="none" stroke="red" d="M27,-1103.95C27,-1077.29 27,-1024.11 27,-979 27,-979 27,-979 27,-257 27,-216.55 31.82,-205.88 46,-168 49.98,-157.36 55.48,-146.35 60.99,-136.48"/>
<polygon fill="red" stroke="red" points="64.04,-138.2 66,-127.79 57.97,-134.7 64.04,-138.2"/>
</a>
</g>
</g>
<!-- !p24&#45;&gt;Dup26 -->
<g id="edge23" class="edge">
<title>!p24&#45;&gt;Dup26</title>
<g id="a_edge23"><a xlink:title="newrretf160">
<path fill="none" stroke="red" d="M82,-167.61C82,-160.24 82,-151.33 82,-142.51"/>
<polygon fill="none" stroke="red" points="85.5,-142.3 82,-132.3 78.5,-142.3 85.5,-142.3"/>
</a>
</g>
</g>
<!-- Dup25 -->
<g id="node26" class="node">
<title>Dup25</title>
<ellipse fill="none" stroke="black" cx="271" cy="-1266" rx="27" ry="18"/>
<text text-anchor="middle" x="271" y="-1262.3" font-family="Times,serif" font-size="14.00">Dup</text>
</g>
<!-- Dup26&#45;&gt;λ2 -->
<g id="edge25" class="edge">
<title>Dup26&#45;&gt;λ2</title>
<g id="a_edge25"><a xlink:title="newrretf78">
<path fill="none" stroke="red" stroke-width="2" d="M99.09,-76.84C106.61,-66.21 115.42,-53.75 122.93,-43.13"/>
<polygon fill="red" stroke="red" stroke-width="2" points="125.97,-44.9 128.89,-34.71 120.25,-40.86 125.97,-44.9"/>
</a>
</g>
</g>
</g>
</svg>
