<?xml version="1.0" encoding="UTF-8" standalone="no"?>
<!DOCTYPE svg PUBLIC "-//W3C//DTD SVG 1.1//EN"
 "http://www.w3.org/Graphics/SVG/1.1/DTD/svg11.dtd">
<!-- Generated by graphviz version 2.49.3 (0)
 -->
<!-- Pages: 1 -->
<svg width="301pt" height="1292pt"
 viewBox="0.00 0.00 301.35 1292.00" xmlns="http://www.w3.org/2000/svg" xmlns:xlink="http://www.w3.org/1999/xlink">
<g id="graph0" class="graph" transform="scale(1 1) rotate(0) translate(4 1288)">
<polygon fill="white" stroke="transparent" points="-4,4 -4,-1288 297.35,-1288 297.35,4 -4,4"/>
<!-- Identity0 -->
<g id="node1" class="node">
<title>Identity0</title>
<ellipse fill="none" stroke="black" cx="38.35" cy="-834" rx="38.19" ry="18"/>
<text text-anchor="middle" x="38.35" y="-830.3" font-family="Times,serif" font-size="14.00">Identity</text>
</g>
<!-- PiL1 -->
<g id="node2" class="node">
<title>PiL1</title>
<ellipse fill="none" stroke="black" cx="124.35" cy="-762" rx="27" ry="18"/>
<text text-anchor="middle" x="124.35" y="-758.3" font-family="Times,serif" font-size="14.00">PiL</text>
</g>
<!-- PiL1&#45;&gt;Identity0 -->
<g id="edge22" class="edge">
<title>PiL1&#45;&gt;Identity0</title>
<g id="a_edge22"><a xlink:title="idseq55">
<path fill="none" stroke="black" d="M96.62,-780.71C84.7,-789.69 71.05,-800.69 59.89,-810.28"/>
<polygon fill="black" stroke="black" points="107.06,-777.37 96.93,-780.49 102.9,-771.74 107.06,-777.37"/>
<polygon fill="black" stroke="black" points="57.47,-807.74 52.26,-816.97 62.09,-813.01 57.47,-807.74"/>
</a>
</g>
</g>
<!-- PiL1&#45;&gt;Identity0 -->
<g id="edge28" class="edge">
<title>PiL1&#45;&gt;Identity0</title>
<g id="a_edge28"><a xlink:title="lret53">
<path fill="none" stroke="blue" d="M111.36,-778.18C100.05,-788.4 83.53,-801.98 68.99,-813.07"/>
<polygon fill="blue" stroke="blue" points="66.62,-810.47 60.71,-819.26 70.82,-816.07 66.62,-810.47"/>
</a>
</g>
</g>
<!-- Bang4 -->
<g id="node5" class="node">
<title>Bang4</title>
<ellipse fill="none" stroke="black" cx="124.35" cy="-834" rx="29.5" ry="18"/>
<text text-anchor="middle" x="124.35" y="-830.3" font-family="Times,serif" font-size="14.00">Bang</text>
</g>
<!-- PiL1&#45;&gt;Bang4 -->
<g id="edge6" class="edge">
<title>PiL1&#45;&gt;Bang4</title>
<g id="a_edge6"><a xlink:title="dseq54">
<path fill="none" stroke="black" d="M118.51,-779.58C117.64,-787.49 117.39,-797.14 117.76,-806.06"/>
<polygon fill="black" stroke="black" points="114.27,-806.31 118.47,-816.04 121.25,-805.82 114.27,-806.31"/>
</a>
</g>
</g>
<!-- PiL1&#45;&gt;Bang4 -->
<g id="edge37" class="edge">
<title>PiL1&#45;&gt;Bang4</title>
<g id="a_edge37"><a xlink:title="newrret52">
<path fill="none" stroke="red" d="M130.19,-779.58C131.05,-787.49 131.3,-797.14 130.93,-806.06"/>
<polygon fill="red" stroke="red" points="127.44,-805.82 130.23,-816.04 134.43,-806.31 127.44,-805.82"/>
</a>
</g>
</g>
<!-- Assign2 -->
<g id="node3" class="node">
<title>Assign2</title>
<ellipse fill="none" stroke="black" cx="95.35" cy="-18" rx="35.19" ry="18"/>
<text text-anchor="middle" x="95.35" y="-14.3" font-family="Times,serif" font-size="14.00">Assign</text>
</g>
<!-- Dup7 -->
<g id="node8" class="node">
<title>Dup7</title>
<ellipse fill="none" stroke="black" cx="38.35" cy="-318" rx="27" ry="18"/>
<text text-anchor="middle" x="38.35" y="-314.3" font-family="Times,serif" font-size="14.00">Dup</text>
</g>
<!-- Assign2&#45;&gt;Dup7 -->
<g id="edge42" class="edge">
<title>Assign2&#45;&gt;Dup7</title>
<g id="a_edge42"><a xlink:title="ret133">
<path fill="none" stroke="red" d="M81.28,-34.98C73.39,-44.92 64.18,-58.37 59.35,-72 32.64,-147.24 33.75,-243.29 36.28,-289.6"/>
<polygon fill="red" stroke="red" points="32.8,-289.97 36.91,-299.74 39.78,-289.55 32.8,-289.97"/>
</a>
</g>
</g>
<!-- Cut8 -->
<g id="node9" class="node">
<title>Cut8</title>
<ellipse fill="none" stroke="black" cx="95.35" cy="-90" rx="27" ry="18"/>
<text text-anchor="middle" x="95.35" y="-86.3" font-family="Times,serif" font-size="14.00">Cut</text>
</g>
<!-- Assign2&#45;&gt;Cut8 -->
<g id="edge57" class="edge">
<title>Assign2&#45;&gt;Cut8</title>
<g id="a_edge57"><a xlink:title="seqBC94">
<path fill="none" stroke="black" d="M95.35,-36.3C95.35,-44.02 95.35,-53.29 95.35,-61.89"/>
<polygon fill="black" stroke="black" points="91.85,-61.9 95.35,-71.9 98.85,-61.9 91.85,-61.9"/>
</a>
</g>
</g>
<!-- Bang3 -->
<g id="node4" class="node">
<title>Bang3</title>
<ellipse fill="none" stroke="black" cx="95.35" cy="-162" rx="29.5" ry="18"/>
<text text-anchor="middle" x="95.35" y="-158.3" font-family="Times,serif" font-size="14.00">Bang</text>
</g>
<!-- PiR5 -->
<g id="node6" class="node">
<title>PiR5</title>
<ellipse fill="none" stroke="black" cx="95.35" cy="-234" rx="27" ry="18"/>
<text text-anchor="middle" x="95.35" y="-230.3" font-family="Times,serif" font-size="14.00">PiR</text>
</g>
<!-- Bang3&#45;&gt;PiR5 -->
<g id="edge32" class="edge">
<title>Bang3&#45;&gt;PiR5</title>
<g id="a_edge32"><a xlink:title="newcut_bseq100">
<path fill="none" stroke="black" d="M89.47,-179.95C88.64,-187.77 88.4,-197.25 88.76,-206.02"/>
<polygon fill="black" stroke="black" points="85.28,-206.49 89.49,-216.21 92.26,-205.99 85.28,-206.49"/>
</a>
</g>
</g>
<!-- Bang3&#45;&gt;PiR5 -->
<g id="edge41" class="edge">
<title>Bang3&#45;&gt;PiR5</title>
<g id="a_edge41"><a xlink:title="newrretf91">
<path fill="none" stroke="red" d="M101.22,-179.95C102.06,-187.77 102.29,-197.25 101.94,-206.02"/>
<polygon fill="red" stroke="red" points="98.43,-205.99 101.21,-216.21 105.41,-206.49 98.43,-205.99"/>
</a>
</g>
</g>
<!-- BangD10 -->
<g id="node11" class="node">
<title>BangD10</title>
<ellipse fill="none" stroke="black" cx="69.35" cy="-906" rx="36" ry="18"/>
<text text-anchor="middle" x="69.35" y="-902.3" font-family="Times,serif" font-size="14.00">BangD</text>
</g>
<!-- Bang4&#45;&gt;BangD10 -->
<g id="edge13" class="edge">
<title>Bang4&#45;&gt;BangD10</title>
<g id="a_edge13"><a xlink:title="hf113">
<path fill="none" stroke="blue" d="M107.67,-849.16C99.59,-857.96 90.18,-869.53 82.6,-879.85"/>
<polygon fill="blue" stroke="blue" points="79.65,-877.95 76.72,-888.14 85.36,-882 79.65,-877.95"/>
</a>
</g>
</g>
<!-- Bang4&#45;&gt;BangD10 -->
<g id="edge33" class="edge">
<title>Bang4&#45;&gt;BangD10</title>
<g id="a_edge33"><a xlink:title="newcut_bseq125">
<path fill="none" stroke="black" d="M117.15,-851.58C110.94,-860.77 102.03,-872.33 93.51,-882.34"/>
<polygon fill="black" stroke="black" points="90.79,-880.13 86.82,-889.96 96.05,-884.75 90.79,-880.13"/>
</a>
</g>
</g>
<!-- Identity21 -->
<g id="node22" class="node">
<title>Identity21</title>
<ellipse fill="none" stroke="black" cx="133.35" cy="-1050" rx="38.19" ry="18"/>
<text text-anchor="middle" x="133.35" y="-1046.3" font-family="Times,serif" font-size="14.00">Identity</text>
</g>
<!-- Bang4&#45;&gt;Identity21 -->
<g id="edge38" class="edge">
<title>Bang4&#45;&gt;Identity21</title>
<g id="a_edge38"><a xlink:title="newrretf114">
<path fill="none" stroke="red" d="M125.07,-852.15C126.62,-889.16 130.31,-976.81 132.19,-1021.61"/>
<polygon fill="red" stroke="red" points="128.7,-1021.92 132.62,-1031.76 135.7,-1021.62 128.7,-1021.92"/>
</a>
</g>
</g>
<!-- Dup6 -->
<g id="node7" class="node">
<title>Dup6</title>
<ellipse fill="none" stroke="black" cx="152.35" cy="-318" rx="26" ry="26"/>
<ellipse fill="none" stroke="black" cx="152.35" cy="-318" rx="30" ry="30"/>
<text text-anchor="middle" x="152.35" y="-314.3" font-family="Times,serif" font-size="14.00">Dup</text>
</g>
<!-- PiR5&#45;&gt;Dup6 -->
<g id="edge48" class="edge">
<title>PiR5&#45;&gt;Dup6</title>
<g id="a_edge48"><a xlink:title="seq135">
<path fill="none" stroke="black" d="M106.34,-250.81C113,-260.4 121.75,-272.98 129.83,-284.6"/>
<polygon fill="none" stroke="black" points="126.97,-286.63 135.55,-292.84 132.72,-282.63 126.97,-286.63"/>
</a>
</g>
</g>
<!-- PiR5&#45;&gt;Dup7 -->
<g id="edge43" class="edge">
<title>PiR5&#45;&gt;Dup7</title>
<g id="a_edge43"><a xlink:title="ret137">
<path fill="none" stroke="red" d="M84.36,-250.81C76.08,-262.72 64.58,-279.26 55.15,-292.83"/>
<polygon fill="none" stroke="red" points="52.14,-291.03 49.3,-301.24 57.88,-295.02 52.14,-291.03"/>
</a>
</g>
</g>
<!-- BangC23 -->
<g id="node24" class="node">
<title>BangC23</title>
<ellipse fill="none" stroke="black" cx="122.35" cy="-474" rx="35.19" ry="18"/>
<text text-anchor="middle" x="122.35" y="-470.3" font-family="Times,serif" font-size="14.00">BangC</text>
</g>
<!-- PiR5&#45;&gt;BangC23 -->
<g id="edge9" class="edge">
<title>PiR5&#45;&gt;BangC23</title>
<g id="a_edge9"><a xlink:title="h136">
<path fill="none" stroke="blue" d="M96.83,-252.12C99.73,-284.8 106.53,-358.34 114.35,-420 115.42,-428.43 116.74,-437.6 118,-445.91"/>
<polygon fill="blue" stroke="blue" points="114.55,-446.49 119.55,-455.84 121.47,-445.42 114.55,-446.49"/>
</a>
</g>
</g>
<!-- DupI27 -->
<g id="node28" class="node">
<title>DupI27</title>
<ellipse fill="none" stroke="black" cx="152.35" cy="-402" rx="28.7" ry="18"/>
<text text-anchor="middle" x="152.35" y="-398.3" font-family="Times,serif" font-size="14.00">DupI</text>
</g>
<!-- Dup6&#45;&gt;DupI27 -->
<g id="edge53" class="edge">
<title>Dup6&#45;&gt;DupI27</title>
<g id="a_edge53"><a xlink:title="seq33">
<path fill="none" stroke="black" stroke-width="2" d="M152.35,-348.14C152.35,-356.46 152.35,-365.49 152.35,-373.7"/>
<polygon fill="black" stroke="black" stroke-width="2" points="148.85,-373.88 152.35,-383.88 155.85,-373.88 148.85,-373.88"/>
</a>
</g>
</g>
<!-- Dup7&#45;&gt;Identity0 -->
<g id="edge46" class="edge">
<title>Dup7&#45;&gt;Identity0</title>
<g id="a_edge46"><a xlink:title="ret42">
<path fill="none" stroke="red" d="M38.35,-336.09C38.35,-364.51 38.35,-423.27 38.35,-473 38.35,-473 38.35,-473 38.35,-691 38.35,-731 38.35,-777.34 38.35,-805.92"/>
<polygon fill="red" stroke="red" points="34.85,-805.95 38.35,-815.95 41.85,-805.95 34.85,-805.95"/>
</a>
</g>
</g>
<!-- Cut8&#45;&gt;Bang3 -->
<g id="edge5" class="edge">
<title>Cut8&#45;&gt;Bang3</title>
<g id="a_edge5"><a xlink:title="dseq20">
<path fill="none" stroke="black" d="M89.51,-107.59C88.64,-115.49 88.39,-125.15 88.76,-134.06"/>
<polygon fill="black" stroke="black" points="85.27,-134.32 89.47,-144.04 92.25,-133.82 85.27,-134.32"/>
</a>
</g>
</g>
<!-- Cut8&#45;&gt;Bang3 -->
<g id="edge36" class="edge">
<title>Cut8&#45;&gt;Bang3</title>
<g id="a_edge36"><a xlink:title="newrret18">
<path fill="none" stroke="red" d="M101.19,-107.59C102.05,-115.49 102.3,-125.15 101.93,-134.06"/>
<polygon fill="red" stroke="red" points="98.44,-133.82 101.23,-144.04 105.43,-134.32 98.44,-133.82"/>
</a>
</g>
</g>
<!-- Cut8&#45;&gt;Dup6 -->
<g id="edge47" class="edge">
<title>Cut8&#45;&gt;Dup6</title>
<g id="a_edge47"><a xlink:title="seq131">
<path fill="none" stroke="black" d="M115.66,-113.87C122.41,-122.7 129.24,-133.26 133.35,-144 150.07,-187.66 153.52,-241.74 153.63,-277.69"/>
<polygon fill="black" stroke="black" points="112.04,-103.79 115.58,-113.78 106.59,-108.18 112.04,-103.79"/>
<polygon fill="black" stroke="black" points="150.13,-277.77 153.57,-287.78 157.13,-277.8 150.13,-277.77"/>
</a>
</g>
</g>
<!-- BangC22 -->
<g id="node23" class="node">
<title>BangC22</title>
<ellipse fill="none" stroke="black" cx="210.35" cy="-474" rx="35.19" ry="18"/>
<text text-anchor="middle" x="210.35" y="-470.3" font-family="Times,serif" font-size="14.00">BangC</text>
</g>
<!-- Cut8&#45;&gt;BangC22 -->
<g id="edge8" class="edge">
<title>Cut8&#45;&gt;BangC22</title>
<g id="a_edge8"><a xlink:title="h132">
<path fill="none" stroke="blue" d="M114.85,-102.77C147.66,-124.22 210.35,-173.04 210.35,-233 210.35,-233 210.35,-233 210.35,-319 210.35,-363.29 210.35,-414.74 210.35,-445.54"/>
<polygon fill="blue" stroke="blue" points="206.85,-445.9 210.35,-455.9 213.85,-445.9 206.85,-445.9"/>
</a>
</g>
</g>
<!-- BangD9 -->
<g id="node10" class="node">
<title>BangD9</title>
<ellipse fill="none" stroke="black" cx="124.35" cy="-618" rx="36" ry="18"/>
<text text-anchor="middle" x="124.35" y="-614.3" font-family="Times,serif" font-size="14.00">BangD</text>
</g>
<!-- PiL11 -->
<g id="node12" class="node">
<title>PiL11</title>
<ellipse fill="none" stroke="black" cx="124.35" cy="-690" rx="27" ry="18"/>
<text text-anchor="middle" x="124.35" y="-686.3" font-family="Times,serif" font-size="14.00">PiL</text>
</g>
<!-- BangD9&#45;&gt;PiL11 -->
<g id="edge16" class="edge">
<title>BangD9&#45;&gt;PiL11</title>
<g id="a_edge16"><a xlink:title="hseq140">
<path fill="none" stroke="black" d="M118.47,-635.94C117.64,-643.76 117.4,-653.25 117.76,-662.02"/>
<polygon fill="black" stroke="black" points="114.28,-662.48 118.49,-672.21 121.26,-661.98 114.28,-662.48"/>
</a>
</g>
</g>
<!-- BangD9&#45;&gt;PiL11 -->
<g id="edge29" class="edge">
<title>BangD9&#45;&gt;PiL11</title>
<g id="a_edge29"><a xlink:title="lval141">
<path fill="none" stroke="blue" d="M130.22,-635.94C131.06,-643.76 131.29,-653.25 130.94,-662.02"/>
<polygon fill="blue" stroke="blue" points="127.43,-661.98 130.21,-672.21 134.41,-662.48 127.43,-661.98"/>
</a>
</g>
</g>
<!-- PiL12 -->
<g id="node13" class="node">
<title>PiL12</title>
<ellipse fill="none" stroke="black" cx="69.35" cy="-978" rx="27" ry="18"/>
<text text-anchor="middle" x="69.35" y="-974.3" font-family="Times,serif" font-size="14.00">PiL</text>
</g>
<!-- BangD10&#45;&gt;PiL12 -->
<g id="edge17" class="edge">
<title>BangD10&#45;&gt;PiL12</title>
<g id="a_edge17"><a xlink:title="hseq143">
<path fill="none" stroke="black" d="M63.47,-923.94C62.64,-931.76 62.4,-941.25 62.76,-950.02"/>
<polygon fill="black" stroke="black" points="59.28,-950.48 63.49,-960.21 66.26,-949.98 59.28,-950.48"/>
</a>
</g>
</g>
<!-- BangD10&#45;&gt;PiL12 -->
<g id="edge30" class="edge">
<title>BangD10&#45;&gt;PiL12</title>
<g id="a_edge30"><a xlink:title="lval144">
<path fill="none" stroke="blue" d="M75.22,-923.94C76.06,-931.76 76.29,-941.25 75.94,-950.02"/>
<polygon fill="blue" stroke="blue" points="72.43,-949.98 75.21,-960.21 79.41,-950.48 72.43,-949.98"/>
</a>
</g>
</g>
<!-- PiL11&#45;&gt;PiL1 -->
<g id="edge20" class="edge">
<title>PiL11&#45;&gt;PiL1</title>
<g id="a_edge20"><a xlink:title="idseq148">
<path fill="none" stroke="black" d="M117.76,-717.81C117.55,-723.04 117.54,-728.53 117.75,-733.78"/>
<polygon fill="black" stroke="black" points="122,-707.84 117.78,-717.56 115.02,-707.33 122,-707.84"/>
<polygon fill="black" stroke="black" points="114.28,-734.31 118.47,-744.04 121.26,-733.82 114.28,-734.31"/>
</a>
</g>
</g>
<!-- PiL11&#45;&gt;PiL1 -->
<g id="edge31" class="edge">
<title>PiL11&#45;&gt;PiL1</title>
<g id="a_edge31"><a xlink:title="lval48">
<path fill="none" stroke="blue" d="M130.19,-707.58C131.05,-715.49 131.3,-725.14 130.93,-734.06"/>
<polygon fill="blue" stroke="blue" points="127.44,-733.82 130.23,-744.04 134.43,-734.31 127.44,-733.82"/>
</a>
</g>
</g>
<!-- Bang13 -->
<g id="node14" class="node">
<title>Bang13</title>
<ellipse fill="none" stroke="black" cx="198.35" cy="-762" rx="29.5" ry="18"/>
<text text-anchor="middle" x="198.35" y="-758.3" font-family="Times,serif" font-size="14.00">Bang</text>
</g>
<!-- PiL11&#45;&gt;Bang13 -->
<g id="edge3" class="edge">
<title>PiL11&#45;&gt;Bang13</title>
<g id="a_edge3"><a xlink:title="dseq146">
<path fill="none" stroke="black" d="M135.05,-706.53C144.66,-716.77 158.8,-730.28 171.36,-741.28"/>
<polygon fill="black" stroke="black" points="169.45,-744.25 179.32,-748.08 173.99,-738.92 169.45,-744.25"/>
</a>
</g>
</g>
<!-- PiL11&#45;&gt;Bang13 -->
<g id="edge34" class="edge">
<title>PiL11&#45;&gt;Bang13</title>
<g id="a_edge34"><a xlink:title="newrret147">
<path fill="none" stroke="red" d="M142.89,-703.51C154.42,-713.06 168.97,-726.48 180.37,-737.95"/>
<polygon fill="red" stroke="red" points="177.88,-740.41 187.35,-745.15 182.9,-735.53 177.88,-740.41"/>
</a>
</g>
</g>
<!-- Bang14 -->
<g id="node15" class="node">
<title>Bang14</title>
<ellipse fill="none" stroke="black" cx="47.35" cy="-1050" rx="29.5" ry="18"/>
<text text-anchor="middle" x="47.35" y="-1046.3" font-family="Times,serif" font-size="14.00">Bang</text>
</g>
<!-- PiL12&#45;&gt;Bang14 -->
<g id="edge4" class="edge">
<title>PiL12&#45;&gt;Bang14</title>
<g id="a_edge4"><a xlink:title="dseq151">
<path fill="none" stroke="black" d="M58.59,-994.88C55.17,-1002.85 51.79,-1012.73 49.28,-1021.86"/>
<polygon fill="black" stroke="black" points="45.85,-1021.16 46.87,-1031.7 52.65,-1022.82 45.85,-1021.16"/>
</a>
</g>
</g>
<!-- PiL12&#45;&gt;Bang14 -->
<g id="edge35" class="edge">
<title>PiL12&#45;&gt;Bang14</title>
<g id="a_edge35"><a xlink:title="newrret152">
<path fill="none" stroke="red" d="M69.82,-996.3C68.09,-1004.5 65.16,-1014.47 61.88,-1023.52"/>
<polygon fill="red" stroke="red" points="58.61,-1022.26 58.21,-1032.85 65.12,-1024.82 58.61,-1022.26"/>
</a>
</g>
</g>
<!-- PiL12&#45;&gt;Identity21 -->
<g id="edge21" class="edge">
<title>PiL12&#45;&gt;Identity21</title>
<g id="a_edge21"><a xlink:title="idseq153">
<path fill="none" stroke="black" d="M84.98,-1003.15C91.64,-1010.92 99.51,-1019.47 106.99,-1027.07"/>
<polygon fill="black" stroke="black" points="81.08,-992.99 84.78,-1002.92 75.7,-997.47 81.08,-992.99"/>
<polygon fill="black" stroke="black" points="104.7,-1029.73 114.27,-1034.28 109.63,-1024.76 104.7,-1029.73"/>
</a>
</g>
</g>
<!-- PiL12&#45;&gt;Identity21 -->
<g id="edge27" class="edge">
<title>PiL12&#45;&gt;Identity21</title>
<g id="a_edge27"><a xlink:title="lret154">
<path fill="none" stroke="blue" d="M86.8,-992.16C96.4,-1001.25 108.06,-1013.61 117.41,-1024.48"/>
<polygon fill="blue" stroke="blue" points="114.94,-1026.99 124.04,-1032.43 120.32,-1022.51 114.94,-1026.99"/>
</a>
</g>
</g>
<!-- PiR15 -->
<g id="node16" class="node">
<title>PiR15</title>
<ellipse fill="none" stroke="black" cx="198.35" cy="-834" rx="27" ry="18"/>
<text text-anchor="middle" x="198.35" y="-830.3" font-family="Times,serif" font-size="14.00">PiR</text>
</g>
<!-- Bang13&#45;&gt;PiR15 -->
<g id="edge1" class="edge">
<title>Bang13&#45;&gt;PiR15</title>
<g id="a_edge1"><a xlink:title="c_bseq156">
<path fill="none" stroke="black" d="M192.47,-779.94C191.64,-787.76 191.4,-797.25 191.76,-806.02"/>
<polygon fill="black" stroke="black" points="188.28,-806.48 192.49,-816.21 195.26,-805.98 188.28,-806.48"/>
</a>
</g>
</g>
<!-- Bang13&#45;&gt;PiR15 -->
<g id="edge39" class="edge">
<title>Bang13&#45;&gt;PiR15</title>
<g id="a_edge39"><a xlink:title="newrretf157">
<path fill="none" stroke="red" d="M204.22,-779.94C205.06,-787.76 205.29,-797.25 204.94,-806.02"/>
<polygon fill="red" stroke="red" points="201.43,-805.98 204.21,-816.21 208.41,-806.48 201.43,-805.98"/>
</a>
</g>
</g>
<!-- PiR16 -->
<g id="node17" class="node">
<title>PiR16</title>
<ellipse fill="none" stroke="black" cx="47.35" cy="-1122" rx="27" ry="18"/>
<text text-anchor="middle" x="47.35" y="-1118.3" font-family="Times,serif" font-size="14.00">PiR</text>
</g>
<!-- Bang14&#45;&gt;PiR16 -->
<g id="edge2" class="edge">
<title>Bang14&#45;&gt;PiR16</title>
<g id="a_edge2"><a xlink:title="c_bseq159">
<path fill="none" stroke="black" d="M41.47,-1067.94C40.64,-1075.76 40.4,-1085.25 40.76,-1094.02"/>
<polygon fill="black" stroke="black" points="37.28,-1094.48 41.49,-1104.21 44.26,-1093.98 37.28,-1094.48"/>
</a>
</g>
</g>
<!-- Bang14&#45;&gt;PiR16 -->
<g id="edge40" class="edge">
<title>Bang14&#45;&gt;PiR16</title>
<g id="a_edge40"><a xlink:title="newrretf160">
<path fill="none" stroke="red" d="M53.22,-1067.94C54.06,-1075.76 54.29,-1085.25 53.94,-1094.02"/>
<polygon fill="red" stroke="red" points="50.43,-1093.98 53.21,-1104.21 57.41,-1094.48 50.43,-1093.98"/>
</a>
</g>
</g>
<!-- BangD17 -->
<g id="node18" class="node">
<title>BangD17</title>
<ellipse fill="none" stroke="black" cx="198.35" cy="-906" rx="36" ry="18"/>
<text text-anchor="middle" x="198.35" y="-902.3" font-family="Times,serif" font-size="14.00">BangD</text>
</g>
<!-- PiR15&#45;&gt;BangD17 -->
<g id="edge18" class="edge">
<title>PiR15&#45;&gt;BangD17</title>
<g id="a_edge18"><a xlink:title="i163">
<path fill="none" stroke="blue" d="M192.51,-851.58C191.64,-859.49 191.39,-869.14 191.76,-878.06"/>
<polygon fill="blue" stroke="blue" points="188.27,-878.31 192.47,-888.04 195.25,-877.82 188.27,-878.31"/>
</a>
</g>
</g>
<!-- PiR15&#45;&gt;BangD17 -->
<g id="edge49" class="edge">
<title>PiR15&#45;&gt;BangD17</title>
<g id="a_edge49"><a xlink:title="seq162">
<path fill="none" stroke="black" d="M204.19,-851.58C205.05,-859.49 205.3,-869.14 204.93,-878.06"/>
<polygon fill="black" stroke="black" points="201.44,-877.82 204.23,-888.04 208.43,-878.31 201.44,-877.82"/>
</a>
</g>
</g>
<!-- Identity19 -->
<g id="node20" class="node">
<title>Identity19</title>
<ellipse fill="none" stroke="black" cx="199.35" cy="-978" rx="38.19" ry="18"/>
<text text-anchor="middle" x="199.35" y="-974.3" font-family="Times,serif" font-size="14.00">Identity</text>
</g>
<!-- PiR15&#45;&gt;Identity19 -->
<g id="edge44" class="edge">
<title>PiR15&#45;&gt;Identity19</title>
<g id="a_edge44"><a xlink:title="ret164">
<path fill="none" stroke="red" d="M214.55,-848.43C224.98,-858.18 237.6,-872.36 243.35,-888 248.86,-903.01 248.78,-908.95 243.35,-924 239.3,-935.19 231.75,-945.69 224.04,-954.35"/>
<polygon fill="red" stroke="red" points="221.35,-952.09 216.99,-961.74 226.42,-956.91 221.35,-952.09"/>
</a>
</g>
</g>
<!-- BangD18 -->
<g id="node19" class="node">
<title>BangD18</title>
<ellipse fill="none" stroke="black" cx="47.35" cy="-1194" rx="36" ry="18"/>
<text text-anchor="middle" x="47.35" y="-1190.3" font-family="Times,serif" font-size="14.00">BangD</text>
</g>
<!-- PiR16&#45;&gt;BangD18 -->
<g id="edge19" class="edge">
<title>PiR16&#45;&gt;BangD18</title>
<g id="a_edge19"><a xlink:title="i167">
<path fill="none" stroke="blue" d="M41.51,-1139.58C40.64,-1147.49 40.39,-1157.14 40.76,-1166.06"/>
<polygon fill="blue" stroke="blue" points="37.27,-1166.31 41.47,-1176.04 44.25,-1165.82 37.27,-1166.31"/>
</a>
</g>
</g>
<!-- PiR16&#45;&gt;BangD18 -->
<g id="edge50" class="edge">
<title>PiR16&#45;&gt;BangD18</title>
<g id="a_edge50"><a xlink:title="seq166">
<path fill="none" stroke="black" d="M53.19,-1139.58C54.05,-1147.49 54.3,-1157.14 53.93,-1166.06"/>
<polygon fill="black" stroke="black" points="50.44,-1165.82 53.23,-1176.04 57.43,-1166.31 50.44,-1165.82"/>
</a>
</g>
</g>
<!-- Identity20 -->
<g id="node21" class="node">
<title>Identity20</title>
<ellipse fill="none" stroke="black" cx="47.35" cy="-1266" rx="38.19" ry="18"/>
<text text-anchor="middle" x="47.35" y="-1262.3" font-family="Times,serif" font-size="14.00">Identity</text>
</g>
<!-- PiR16&#45;&gt;Identity20 -->
<g id="edge45" class="edge">
<title>PiR16&#45;&gt;Identity20</title>
<g id="a_edge45"><a xlink:title="ret168">
<path fill="none" stroke="red" d="M63.55,-1136.43C73.98,-1146.18 86.6,-1160.36 92.35,-1176 97.86,-1191.01 97.86,-1196.98 92.35,-1212 88.2,-1223.27 80.48,-1233.79 72.59,-1242.44"/>
<polygon fill="red" stroke="red" points="69.86,-1240.22 65.39,-1249.82 74.88,-1245.11 69.86,-1240.22"/>
</a>
</g>
</g>
<!-- BangD17&#45;&gt;Identity19 -->
<g id="edge23" class="edge">
<title>BangD17&#45;&gt;Identity19</title>
<g id="a_edge23"><a xlink:title="iret171">
<path fill="none" stroke="blue" d="M192.71,-923.94C191.99,-931.76 191.89,-941.25 192.37,-950.02"/>
<polygon fill="blue" stroke="blue" points="188.9,-950.54 193.25,-960.21 195.88,-949.94 188.9,-950.54"/>
</a>
</g>
</g>
<!-- BangD17&#45;&gt;Identity19 -->
<g id="edge25" class="edge">
<title>BangD17&#45;&gt;Identity19</title>
<g id="a_edge25"><a xlink:title="iseq170">
<path fill="none" stroke="black" d="M204.47,-923.94C205.4,-931.65 205.77,-940.97 205.56,-949.63"/>
<polygon fill="black" stroke="black" points="202.06,-949.54 205.01,-959.72 209.05,-949.92 202.06,-949.54"/>
</a>
</g>
</g>
<!-- BangD18&#45;&gt;Identity20 -->
<g id="edge24" class="edge">
<title>BangD18&#45;&gt;Identity20</title>
<g id="a_edge24"><a xlink:title="iret174">
<path fill="none" stroke="blue" d="M41.47,-1211.94C40.64,-1219.76 40.4,-1229.25 40.76,-1238.02"/>
<polygon fill="blue" stroke="blue" points="37.28,-1238.48 41.49,-1248.21 44.26,-1237.98 37.28,-1238.48"/>
</a>
</g>
</g>
<!-- BangD18&#45;&gt;Identity20 -->
<g id="edge26" class="edge">
<title>BangD18&#45;&gt;Identity20</title>
<g id="a_edge26"><a xlink:title="iseq173">
<path fill="none" stroke="black" d="M53.22,-1211.94C54.06,-1219.76 54.29,-1229.25 53.94,-1238.02"/>
<polygon fill="black" stroke="black" points="50.43,-1237.98 53.21,-1248.21 57.41,-1238.48 50.43,-1237.98"/>
</a>
</g>
</g>
<!-- Dup24 -->
<g id="node25" class="node">
<title>Dup24</title>
<ellipse fill="none" stroke="black" cx="122.35" cy="-546" rx="27" ry="18"/>
<text text-anchor="middle" x="122.35" y="-542.3" font-family="Times,serif" font-size="14.00">Dup</text>
</g>
<!-- BangC22&#45;&gt;Dup24 -->
<g id="edge55" class="edge">
<title>BangC22&#45;&gt;Dup24</title>
<g id="a_edge55"><a xlink:title="seqBC184">
<path fill="none" stroke="black" d="M192.11,-489.5C179.07,-499.88 161.35,-513.97 147.04,-525.35"/>
<polygon fill="black" stroke="black" points="144.72,-522.73 139.07,-531.69 149.07,-528.21 144.72,-522.73"/>
</a>
</g>
</g>
<!-- Dup25 -->
<g id="node26" class="node">
<title>Dup25</title>
<ellipse fill="none" stroke="black" cx="194.35" cy="-546" rx="27" ry="18"/>
<text text-anchor="middle" x="194.35" y="-542.3" font-family="Times,serif" font-size="14.00">Dup</text>
</g>
<!-- BangC22&#45;&gt;Dup25 -->
<g id="edge14" class="edge">
<title>BangC22&#45;&gt;Dup25</title>
<g id="a_edge14"><a xlink:title="hf185">
<path fill="none" stroke="blue" d="M206.47,-491.94C204.69,-499.73 202.53,-509.17 200.54,-517.92"/>
<polygon fill="blue" stroke="blue" points="197.11,-517.19 198.3,-527.72 203.94,-518.75 197.11,-517.19"/>
</a>
</g>
</g>
<!-- Dup26 -->
<g id="node27" class="node">
<title>Dup26</title>
<ellipse fill="none" stroke="black" cx="266.35" cy="-546" rx="27" ry="18"/>
<text text-anchor="middle" x="266.35" y="-542.3" font-family="Times,serif" font-size="14.00">Dup</text>
</g>
<!-- BangC22&#45;&gt;Dup26 -->
<g id="edge10" class="edge">
<title>BangC22&#45;&gt;Dup26</title>
<g id="a_edge10"><a xlink:title="h186">
<path fill="none" stroke="blue" d="M229.31,-498.69C235.19,-506.05 241.66,-514.14 247.53,-521.48"/>
<polygon fill="blue" stroke="blue" points="225.79,-488.69 229.3,-498.69 220.32,-493.07 225.79,-488.69"/>
<polygon fill="blue" stroke="blue" points="245.09,-524.03 254.07,-529.66 250.56,-519.66 245.09,-524.03"/>
</a>
</g>
</g>
<!-- BangC23&#45;&gt;Dup24 -->
<g id="edge56" class="edge">
<title>BangC23&#45;&gt;Dup24</title>
<g id="a_edge56"><a xlink:title="seqBC188">
<path fill="none" stroke="black" d="M122.35,-492.3C122.35,-500.01 122.35,-509.28 122.35,-517.88"/>
<polygon fill="none" stroke="black" points="118.85,-517.89 122.35,-527.89 125.85,-517.89 118.85,-517.89"/>
</a>
</g>
</g>
<!-- BangC23&#45;&gt;Dup25 -->
<g id="edge15" class="edge">
<title>BangC23&#45;&gt;Dup25</title>
<g id="a_edge15"><a xlink:title="hf189">
<path fill="none" stroke="blue" d="M137.97,-490.18C148.05,-499.99 161.31,-512.88 172.44,-523.7"/>
<polygon fill="none" stroke="blue" points="170.13,-526.33 179.74,-530.79 175.01,-521.31 170.13,-526.33"/>
</a>
</g>
</g>
<!-- BangC23&#45;&gt;Dup26 -->
<g id="edge11" class="edge">
<title>BangC23&#45;&gt;Dup26</title>
<g id="a_edge11"><a xlink:title="h190">
<path fill="none" stroke="blue" d="M156.37,-491.53C180.57,-503.3 212.8,-518.97 236.11,-530.3"/>
<polygon fill="blue" stroke="blue" points="148.63,-483.88 156.09,-491.4 145.57,-490.18 148.63,-483.88"/>
<polygon fill="none" stroke="blue" points="234.67,-533.49 245.19,-534.71 237.73,-527.19 234.67,-533.49"/>
</a>
</g>
</g>
<!-- Dup24&#45;&gt;BangD9 -->
<g id="edge54" class="edge">
<title>Dup24&#45;&gt;BangD9</title>
<g id="a_edge54"><a xlink:title="seqBC118">
<path fill="none" stroke="black" d="M122.84,-564.3C123.06,-572.01 123.33,-581.28 123.57,-589.88"/>
<polygon fill="black" stroke="black" points="120.07,-590 123.86,-599.89 127.07,-589.8 120.07,-590"/>
</a>
</g>
</g>
<!-- Dup25&#45;&gt;BangD9 -->
<g id="edge12" class="edge">
<title>Dup25&#45;&gt;BangD9</title>
<g id="a_edge12"><a xlink:title="hf107">
<path fill="none" stroke="blue" d="M179.84,-561.5C170.34,-571 157.73,-583.61 146.93,-594.41"/>
<polygon fill="blue" stroke="blue" points="144.4,-591.99 139.8,-601.54 149.35,-596.94 144.4,-591.99"/>
</a>
</g>
</g>
<!-- Dup26&#45;&gt;Bang4 -->
<g id="edge7" class="edge">
<title>Dup26&#45;&gt;Bang4</title>
<g id="a_edge7"><a xlink:title="h116">
<path fill="none" stroke="blue" d="M269.24,-563.9C275.32,-605.22 285.14,-712.85 236.35,-780 235.04,-781.79 189.04,-803.22 156.4,-818.27"/>
<polygon fill="blue" stroke="blue" points="154.8,-815.16 147.18,-822.52 157.73,-821.52 154.8,-815.16"/>
</a>
</g>
</g>
<!-- DupI27&#45;&gt;BangC22 -->
<g id="edge51" class="edge">
<title>DupI27&#45;&gt;BangC22</title>
<g id="a_edge51"><a xlink:title="seq187">
<path fill="none" stroke="black" d="M164.93,-418.18C172.4,-427.2 182.03,-438.82 190.5,-449.04"/>
<polygon fill="black" stroke="black" points="187.9,-451.39 196.98,-456.86 193.29,-446.93 187.9,-451.39"/>
</a>
</g>
</g>
<!-- DupI27&#45;&gt;BangC23 -->
<g id="edge52" class="edge">
<title>DupI27&#45;&gt;BangC23</title>
<g id="a_edge52"><a xlink:title="seq191">
<path fill="none" stroke="black" d="M141.23,-428.94C138.74,-434.74 136.11,-440.89 133.61,-446.7"/>
<polygon fill="black" stroke="black" points="148.45,-420.96 141.3,-428.78 142.02,-418.21 148.45,-420.96"/>
<polygon fill="black" stroke="black" points="130.34,-445.47 129.61,-456.04 136.77,-448.23 130.34,-445.47"/>
</a>
</g>
</g>
</g>
</svg>
