<?xml version="1.0" encoding="UTF-8" standalone="no"?>
<!DOCTYPE svg PUBLIC "-//W3C//DTD SVG 1.1//EN"
 "http://www.w3.org/Graphics/SVG/1.1/DTD/svg11.dtd">
<!-- Generated by graphviz version 2.49.3 (0)
 -->
<!-- Pages: 1 -->
<svg width="595pt" height="1071pt"
 viewBox="0.00 0.00 595.40 1070.80" xmlns="http://www.w3.org/2000/svg" xmlns:xlink="http://www.w3.org/1999/xlink">
<g id="graph0" class="graph" transform="scale(1 1) rotate(0) translate(4 1066.8)">
<polygon fill="white" stroke="transparent" points="-4,4 -4,-1066.8 591.4,-1066.8 591.4,4 -4,4"/>
<!-- I0 -->
<g id="node1" class="node">
<title>I0</title>
<ellipse fill="none" stroke="black" cx="82" cy="-972.8" rx="27" ry="18"/>
<text text-anchor="middle" x="82" y="-969.1" font-family="Times,serif" font-size="14.00">I</text>
</g>
<!-- !d1 -->
<g id="node2" class="node">
<title>!d1</title>
<ellipse fill="none" stroke="black" cx="27" cy="-900.8" rx="27" ry="18"/>
<text text-anchor="middle" x="27" y="-897.1" font-family="Times,serif" font-size="14.00">!d</text>
</g>
<!-- I0&#45;&gt;!d1 -->
<g id="edge4" class="edge">
<title>I0&#45;&gt;!d1</title>
<g id="a_edge4"><a xlink:title="iret84">
<path fill="none" stroke="blue" d="M63.83,-948.67C55.63,-938.24 46.19,-926.21 38.91,-916.96"/>
<polygon fill="blue" stroke="blue" points="61.14,-950.91 70.07,-956.61 66.64,-946.58 61.14,-950.91"/>
</a>
</g>
</g>
<!-- λ2 -->
<g id="node3" class="node">
<title>λ2</title>
<ellipse fill="none" stroke="black" cx="82" cy="-828.8" rx="27" ry="18"/>
<text text-anchor="middle" x="82" y="-825.1" font-family="Times,serif" font-size="14.00">λ</text>
</g>
<!-- !d1&#45;&gt;λ2 -->
<g id="edge3" class="edge">
<title>!d1&#45;&gt;λ2</title>
<g id="a_edge3"><a xlink:title="i81">
<path fill="none" stroke="blue" d="M45.17,-876.67C53.37,-866.24 62.81,-854.21 70.09,-844.96"/>
<polygon fill="blue" stroke="blue" points="42.36,-874.58 38.93,-884.61 47.86,-878.91 42.36,-874.58"/>
</a>
</g>
</g>
<!-- λ2&#45;&gt;I0 -->
<g id="edge29" class="edge">
<title>λ2&#45;&gt;I0</title>
<g id="a_edge29"><a xlink:title="ret82">
<path fill="none" stroke="red" d="M82,-846.99C82,-871.22 82,-915.68 82,-944.47"/>
<polygon fill="red" stroke="red" points="78.5,-944.67 82,-954.67 85.5,-944.67 78.5,-944.67"/>
</a>
</g>
</g>
<!-- !p3 -->
<g id="node4" class="node">
<title>!p3</title>
<ellipse fill="none" stroke="black" cx="137" cy="-900.8" rx="27" ry="18"/>
<text text-anchor="middle" x="137" y="-897.1" font-family="Times,serif" font-size="14.00">!p</text>
</g>
<!-- !p3&#45;&gt;λ2 -->
<g id="edge24" class="edge">
<title>!p3&#45;&gt;λ2</title>
<g id="a_edge24"><a xlink:title="newrretf78">
<path fill="none" stroke="red" d="M125.07,-884.61C117.79,-875.34 108.34,-863.32 100.15,-852.89"/>
<polygon fill="red" stroke="red" points="102.84,-850.66 93.91,-844.96 97.34,-854.98 102.84,-850.66"/>
</a>
</g>
</g>
<!-- I4 -->
<g id="node5" class="node">
<title>I4</title>
<ellipse fill="none" stroke="black" cx="192" cy="-756.8" rx="27" ry="18"/>
<text text-anchor="middle" x="192" y="-753.1" font-family="Times,serif" font-size="14.00">I</text>
</g>
<!-- @5 -->
<g id="node6" class="node">
<title>@5</title>
<ellipse fill="none" stroke="black" cx="173" cy="-972.8" rx="27" ry="18"/>
<text text-anchor="middle" x="173" y="-969.1" font-family="Times,serif" font-size="14.00">@</text>
</g>
<!-- I4&#45;&gt;@5 -->
<g id="edge9" class="edge">
<title>I4&#45;&gt;@5</title>
<g id="a_edge9"><a xlink:title="lret75">
<path fill="none" stroke="blue" d="M189.57,-785.18C185.59,-829.98 177.81,-917.63 174.52,-954.65"/>
<polygon fill="blue" stroke="blue" points="193.07,-785.3 190.47,-775.03 186.1,-784.68 193.07,-785.3"/>
</a>
</g>
</g>
<!-- @5&#45;&gt;!p3 -->
<g id="edge19" class="edge">
<title>@5&#45;&gt;!p3</title>
<g id="a_edge19"><a xlink:title="newrret74">
<path fill="none" stroke="red" d="M164.65,-955.56C160.29,-947.08 154.85,-936.51 149.96,-926.99"/>
<polygon fill="red" stroke="red" points="152.99,-925.24 145.3,-917.94 146.77,-928.44 152.99,-925.24"/>
</a>
</g>
</g>
<!-- !d6 -->
<g id="node7" class="node">
<title>!d6</title>
<ellipse fill="none" stroke="black" cx="247" cy="-900.8" rx="27" ry="18"/>
<text text-anchor="middle" x="247" y="-897.1" font-family="Times,serif" font-size="14.00">!d</text>
</g>
<!-- @5&#45;&gt;!d6 -->
<g id="edge14" class="edge">
<title>@5&#45;&gt;!d6</title>
<g id="a_edge14"><a xlink:title="lval70">
<path fill="none" stroke="blue" d="M195.37,-950.63C207.25,-939.4 221.52,-925.9 232.05,-915.94"/>
<polygon fill="blue" stroke="blue" points="192.83,-948.22 187.98,-957.63 197.64,-953.3 192.83,-948.22"/>
</a>
</g>
</g>
<!-- !p7 -->
<g id="node8" class="node">
<title>!p7</title>
<ellipse fill="none" stroke="black" cx="247" cy="-828.8" rx="27" ry="18"/>
<text text-anchor="middle" x="247" y="-825.1" font-family="Times,serif" font-size="14.00">!p</text>
</g>
<!-- !d6&#45;&gt;!p7 -->
<g id="edge2" class="edge">
<title>!d6&#45;&gt;!p7</title>
<g id="a_edge2"><a xlink:title="hf65">
<path fill="none" stroke="blue" d="M247,-872.46C247,-863.85 247,-854.59 247,-846.9"/>
<polygon fill="blue" stroke="blue" points="243.5,-872.49 247,-882.49 250.5,-872.49 243.5,-872.49"/>
</a>
</g>
</g>
<!-- !p7&#45;&gt;I4 -->
<g id="edge23" class="edge">
<title>!p7&#45;&gt;I4</title>
<g id="a_edge23"><a xlink:title="newrretf66">
<path fill="none" stroke="red" d="M235.07,-812.61C227.79,-803.34 218.34,-791.32 210.15,-780.89"/>
<polygon fill="red" stroke="red" points="212.84,-778.66 203.91,-772.96 207.34,-782.98 212.84,-778.66"/>
</a>
</g>
</g>
<!-- λ21 -->
<g id="node22" class="node">
<title>λ21</title>
<ellipse fill="none" stroke="black" cx="302" cy="-756.8" rx="27" ry="18"/>
<text text-anchor="middle" x="302" y="-753.1" font-family="Times,serif" font-size="14.00">λ</text>
</g>
<!-- !p7&#45;&gt;λ21 -->
<g id="edge1" class="edge">
<title>!p7&#45;&gt;λ21</title>
<g id="a_edge1"><a xlink:title="h34">
<path fill="none" stroke="blue" d="M265.17,-804.67C273.37,-794.24 282.81,-782.21 290.09,-772.96"/>
<polygon fill="blue" stroke="blue" points="262.36,-802.58 258.93,-812.61 267.86,-806.91 262.36,-802.58"/>
</a>
</g>
</g>
<!-- I8 -->
<g id="node9" class="node">
<title>I8</title>
<ellipse fill="none" stroke="black" cx="302" cy="-684.8" rx="27" ry="18"/>
<text text-anchor="middle" x="302" y="-681.1" font-family="Times,serif" font-size="14.00">I</text>
</g>
<!-- @9 -->
<g id="node10" class="node">
<title>@9</title>
<ellipse fill="none" stroke="black" cx="247" cy="-612.8" rx="27" ry="18"/>
<text text-anchor="middle" x="247" y="-609.1" font-family="Times,serif" font-size="14.00">@</text>
</g>
<!-- I8&#45;&gt;@9 -->
<g id="edge8" class="edge">
<title>I8&#45;&gt;@9</title>
<g id="a_edge8"><a xlink:title="lret62">
<path fill="none" stroke="blue" d="M283.83,-660.67C275.63,-650.24 266.19,-638.21 258.91,-628.96"/>
<polygon fill="blue" stroke="blue" points="281.14,-662.91 290.07,-668.61 286.64,-658.58 281.14,-662.91"/>
</a>
</g>
</g>
<!-- @9&#45;&gt;!p7 -->
<g id="edge18" class="edge">
<title>@9&#45;&gt;!p7</title>
<g id="a_edge18"><a xlink:title="newrret61">
<path fill="none" stroke="red" d="M247,-631.03C247,-668.12 247,-755.78 247,-800.51"/>
<polygon fill="red" stroke="red" points="243.5,-800.65 247,-810.65 250.5,-800.65 243.5,-800.65"/>
</a>
</g>
</g>
<!-- Cut20 -->
<g id="node21" class="node">
<title>Cut20</title>
<ellipse fill="none" stroke="black" cx="247" cy="-531.4" rx="27" ry="18"/>
<text text-anchor="middle" x="247" y="-527.7" font-family="Times,serif" font-size="14.00">Cut</text>
</g>
<!-- @9&#45;&gt;Cut20 -->
<g id="edge11" class="edge">
<title>@9&#45;&gt;Cut20</title>
<g id="a_edge11"><a xlink:title="lval38">
<path fill="none" stroke="blue" d="M247,-584.5C247,-572.93 247,-559.78 247,-549.59"/>
<polygon fill="blue" stroke="blue" points="243.5,-584.57 247,-594.57 250.5,-584.57 243.5,-584.57"/>
</a>
</g>
</g>
<!-- I10 -->
<g id="node11" class="node">
<title>I10</title>
<ellipse fill="none" stroke="black" cx="377" cy="-162" rx="27" ry="18"/>
<text text-anchor="middle" x="377" y="-158.3" font-family="Times,serif" font-size="14.00">I</text>
</g>
<!-- !d11 -->
<g id="node12" class="node">
<title>!d11</title>
<ellipse fill="none" stroke="black" cx="358" cy="-90" rx="27" ry="18"/>
<text text-anchor="middle" x="358" y="-86.3" font-family="Times,serif" font-size="14.00">!d</text>
</g>
<!-- I10&#45;&gt;!d11 -->
<g id="edge45" class="edge">
<title>I10&#45;&gt;!d11</title>
<g id="a_edge45"><a xlink:title="yret60">
<path fill="none" stroke="blue" d="M369.71,-134.14C367.3,-125.28 364.7,-115.68 362.56,-107.79"/>
<polygon fill="blue" stroke="blue" points="366.4,-135.32 372.4,-144.05 373.16,-133.49 366.4,-135.32"/>
</a>
</g>
</g>
<!-- !p12 -->
<g id="node13" class="node">
<title>!p12</title>
<ellipse fill="none" stroke="black" cx="311" cy="-234" rx="27" ry="18"/>
<text text-anchor="middle" x="311" y="-230.3" font-family="Times,serif" font-size="14.00">!p</text>
</g>
<!-- !d11&#45;&gt;!p12 -->
<g id="edge43" class="edge">
<title>!d11&#45;&gt;!p12</title>
<g id="a_edge43"><a xlink:title="yBf56">
<path fill="none" stroke="blue" d="M349.17,-117.67C339.61,-146.57 324.63,-191.81 316.58,-216.15"/>
<polygon fill="blue" stroke="blue" points="352.61,-118.42 352.43,-107.82 345.97,-116.22 352.61,-118.42"/>
</a>
</g>
</g>
<!-- !p12&#45;&gt;I10 -->
<g id="edge22" class="edge">
<title>!p12&#45;&gt;I10</title>
<g id="a_edge22"><a xlink:title="newrretf57">
<path fill="none" stroke="red" d="M325,-218.15C334.01,-208.6 345.89,-195.99 356.02,-185.25"/>
<polygon fill="red" stroke="red" points="358.71,-187.5 363.02,-177.82 353.62,-182.7 358.71,-187.5"/>
</a>
</g>
</g>
<!-- !c18 -->
<g id="node19" class="node">
<title>!c18</title>
<ellipse fill="none" stroke="black" cx="229" cy="-18" rx="27" ry="18"/>
<text text-anchor="middle" x="229" y="-14.3" font-family="Times,serif" font-size="14.00">!c</text>
</g>
<!-- !p12&#45;&gt;!c18 -->
<g id="edge42" class="edge">
<title>!p12&#45;&gt;!c18</title>
<g id="a_edge42"><a xlink:title="yB44">
<path fill="none" stroke="blue" d="M305.98,-205.74C299.32,-172.94 285.91,-116.71 265,-72 260.26,-61.87 253.7,-51.53 247.47,-42.7"/>
<polygon fill="blue" stroke="blue" points="302.62,-206.78 307.98,-215.92 309.48,-205.43 302.62,-206.78"/>
<polygon fill="blue" stroke="blue" points="244.26,-32.37 247.33,-42.51 238.61,-36.5 244.26,-32.37"/>
</a>
</g>
</g>
<!-- I13 -->
<g id="node14" class="node">
<title>I13</title>
<ellipse fill="none" stroke="black" cx="247" cy="-378" rx="27" ry="18"/>
<text text-anchor="middle" x="247" y="-374.3" font-family="Times,serif" font-size="14.00">I</text>
</g>
<!-- @14 -->
<g id="node15" class="node">
<title>@14</title>
<ellipse fill="none" stroke="black" cx="275" cy="-306" rx="27" ry="18"/>
<text text-anchor="middle" x="275" y="-302.3" font-family="Times,serif" font-size="14.00">@</text>
</g>
<!-- I13&#45;&gt;@14 -->
<g id="edge7" class="edge">
<title>I13&#45;&gt;@14</title>
<g id="a_edge7"><a xlink:title="lret53">
<path fill="none" stroke="blue" d="M257.44,-350.91C261.11,-341.72 265.14,-331.65 268.41,-323.47"/>
<polygon fill="blue" stroke="blue" points="254.1,-349.83 253.64,-360.41 260.6,-352.43 254.1,-349.83"/>
</a>
</g>
</g>
<!-- @14&#45;&gt;!p12 -->
<g id="edge17" class="edge">
<title>@14&#45;&gt;!p12</title>
<g id="a_edge17"><a xlink:title="newrret52">
<path fill="none" stroke="red" d="M283.35,-288.76C287.71,-280.28 293.15,-269.71 298.04,-260.2"/>
<polygon fill="red" stroke="red" points="301.23,-261.64 302.7,-251.15 295.01,-258.44 301.23,-261.64"/>
</a>
</g>
</g>
<!-- Cut17 -->
<g id="node18" class="node">
<title>Cut17</title>
<ellipse fill="none" stroke="black" cx="229" cy="-234" rx="27" ry="18"/>
<text text-anchor="middle" x="229" y="-230.3" font-family="Times,serif" font-size="14.00">Cut</text>
</g>
<!-- @14&#45;&gt;Cut17 -->
<g id="edge13" class="edge">
<title>@14&#45;&gt;Cut17</title>
<g id="a_edge13"><a xlink:title="lval48">
<path fill="none" stroke="blue" d="M258.91,-280.51C252.43,-270.66 245.15,-259.58 239.4,-250.82"/>
<polygon fill="blue" stroke="blue" points="256.15,-282.68 264.56,-289.12 262,-278.84 256.15,-282.68"/>
</a>
</g>
</g>
<!-- I15 -->
<g id="node16" class="node">
<title>I15</title>
<ellipse fill="none" stroke="black" cx="229" cy="-162" rx="27" ry="18"/>
<text text-anchor="middle" x="229" y="-158.3" font-family="Times,serif" font-size="14.00">I</text>
</g>
<!-- !d16 -->
<g id="node17" class="node">
<title>!d16</title>
<ellipse fill="none" stroke="black" cx="229" cy="-90" rx="27" ry="18"/>
<text text-anchor="middle" x="229" y="-86.3" font-family="Times,serif" font-size="14.00">!d</text>
</g>
<!-- I15&#45;&gt;!d16 -->
<g id="edge44" class="edge">
<title>I15&#45;&gt;!d16</title>
<g id="a_edge44"><a xlink:title="yret51">
<path fill="none" stroke="blue" d="M229,-133.67C229,-125.05 229,-115.79 229,-108.1"/>
<polygon fill="blue" stroke="blue" points="225.5,-133.7 229,-143.7 232.5,-133.7 225.5,-133.7"/>
</a>
</g>
</g>
<!-- !d16&#45;&gt;!c18 -->
<g id="edge41" class="edge">
<title>!d16&#45;&gt;!c18</title>
<g id="a_edge41"><a xlink:title="yA43">
<path fill="none" stroke="blue" d="M229,-61.67C229,-53.05 229,-43.79 229,-36.1"/>
<polygon fill="blue" stroke="blue" points="225.5,-61.7 229,-71.7 232.5,-61.7 225.5,-61.7"/>
</a>
</g>
</g>
<!-- Cut17&#45;&gt;I15 -->
<g id="edge32" class="edge">
<title>Cut17&#45;&gt;I15</title>
<g id="a_edge32"><a xlink:title="rval49">
<path fill="none" stroke="red" d="M229,-215.7C229,-207.98 229,-198.71 229,-190.11"/>
<polygon fill="red" stroke="red" points="232.5,-190.1 229,-180.1 225.5,-190.1 232.5,-190.1"/>
</a>
</g>
</g>
<!-- λ19 -->
<g id="node20" class="node">
<title>λ19</title>
<ellipse fill="none" stroke="black" cx="247" cy="-450" rx="27" ry="18"/>
<text text-anchor="middle" x="247" y="-446.3" font-family="Times,serif" font-size="14.00">λ</text>
</g>
<!-- !c18&#45;&gt;λ19 -->
<g id="edge40" class="edge">
<title>!c18&#45;&gt;λ19</title>
<g id="a_edge40"><a xlink:title="y41">
<path fill="none" stroke="blue" d="M210.15,-42.53C203.88,-51.34 197.39,-61.72 193,-72 177.12,-109.2 174,-120.55 174,-161 174,-307 174,-307 174,-307 174,-358.28 212.12,-409.6 233.27,-434.12"/>
<polygon fill="blue" stroke="blue" points="213.11,-44.41 216.25,-34.3 207.48,-40.24 213.11,-44.41"/>
</a>
</g>
</g>
<!-- λ19&#45;&gt;I13 -->
<g id="edge27" class="edge">
<title>λ19&#45;&gt;I13</title>
<g id="a_edge27"><a xlink:title="ret42">
<path fill="none" stroke="red" d="M247,-431.7C247,-423.98 247,-414.71 247,-406.11"/>
<polygon fill="red" stroke="red" points="250.5,-406.1 247,-396.1 243.5,-406.1 250.5,-406.1"/>
</a>
</g>
</g>
<!-- Cut20&#45;&gt;λ19 -->
<g id="edge31" class="edge">
<title>Cut20&#45;&gt;λ19</title>
<g id="a_edge31"><a xlink:title="rval39">
<path fill="none" stroke="red" d="M247,-513.17C247,-502.97 247,-489.83 247,-478.25"/>
<polygon fill="red" stroke="red" points="250.5,-478.19 247,-468.19 243.5,-478.19 250.5,-478.19"/>
</a>
</g>
</g>
<!-- λ21&#45;&gt;I8 -->
<g id="edge26" class="edge">
<title>λ21&#45;&gt;I8</title>
<g id="a_edge26"><a xlink:title="ret35">
<path fill="none" stroke="red" d="M302,-738.49C302,-730.78 302,-721.51 302,-712.91"/>
<polygon fill="red" stroke="red" points="305.5,-712.9 302,-702.9 298.5,-712.9 305.5,-712.9"/>
</a>
</g>
</g>
<!-- !p22 -->
<g id="node23" class="node">
<title>!p22</title>
<ellipse fill="none" stroke="black" cx="319" cy="-828.8" rx="27" ry="18"/>
<text text-anchor="middle" x="319" y="-825.1" font-family="Times,serif" font-size="14.00">!p</text>
</g>
<!-- !p22&#45;&gt;λ21 -->
<g id="edge21" class="edge">
<title>!p22&#45;&gt;λ21</title>
<g id="a_edge21"><a xlink:title="newrretf31">
<path fill="none" stroke="red" d="M314.88,-810.85C312.99,-803.06 310.7,-793.62 308.58,-784.87"/>
<polygon fill="red" stroke="red" points="311.96,-783.96 306.2,-775.07 305.15,-785.61 311.96,-783.96"/>
</a>
</g>
</g>
<!-- I23 -->
<g id="node24" class="node">
<title>I23</title>
<ellipse fill="none" stroke="black" cx="319" cy="-972.8" rx="27" ry="18"/>
<text text-anchor="middle" x="319" y="-969.1" font-family="Times,serif" font-size="14.00">I</text>
</g>
<!-- @24 -->
<g id="node25" class="node">
<title>@24</title>
<ellipse fill="none" stroke="black" cx="319" cy="-900.8" rx="27" ry="18"/>
<text text-anchor="middle" x="319" y="-897.1" font-family="Times,serif" font-size="14.00">@</text>
</g>
<!-- I23&#45;&gt;@24 -->
<g id="edge6" class="edge">
<title>I23&#45;&gt;@24</title>
<g id="a_edge6"><a xlink:title="lret28">
<path fill="none" stroke="blue" d="M319,-944.46C319,-935.85 319,-926.59 319,-918.9"/>
<polygon fill="blue" stroke="blue" points="315.5,-944.49 319,-954.49 322.5,-944.49 315.5,-944.49"/>
</a>
</g>
</g>
<!-- @24&#45;&gt;!p22 -->
<g id="edge16" class="edge">
<title>@24&#45;&gt;!p22</title>
<g id="a_edge16"><a xlink:title="newrret27">
<path fill="none" stroke="red" d="M319,-882.49C319,-874.78 319,-865.51 319,-856.91"/>
<polygon fill="red" stroke="red" points="322.5,-856.9 319,-846.9 315.5,-856.9 322.5,-856.9"/>
</a>
</g>
</g>
<!-- Cut35 -->
<g id="node36" class="node">
<title>Cut35</title>
<ellipse fill="none" stroke="black" cx="401" cy="-828.8" rx="27" ry="18"/>
<text text-anchor="middle" x="401" y="-825.1" font-family="Times,serif" font-size="14.00">Cut</text>
</g>
<!-- @24&#45;&gt;Cut35 -->
<g id="edge12" class="edge">
<title>@24&#45;&gt;Cut35</title>
<g id="a_edge12"><a xlink:title="lval4">
<path fill="none" stroke="blue" d="M343.18,-879.16C356.71,-867.6 373.21,-853.52 385.11,-843.36"/>
<polygon fill="blue" stroke="blue" points="340.53,-876.81 335.2,-885.97 345.08,-882.14 340.53,-876.81"/>
</a>
</g>
</g>
<!-- I25 -->
<g id="node26" class="node">
<title>I25</title>
<ellipse fill="none" stroke="black" cx="450" cy="-450" rx="27" ry="18"/>
<text text-anchor="middle" x="450" y="-446.3" font-family="Times,serif" font-size="14.00">I</text>
</g>
<!-- !d26 -->
<g id="node27" class="node">
<title>!d26</title>
<ellipse fill="none" stroke="black" cx="431" cy="-378" rx="27" ry="18"/>
<text text-anchor="middle" x="431" y="-374.3" font-family="Times,serif" font-size="14.00">!d</text>
</g>
<!-- I25&#45;&gt;!d26 -->
<g id="edge39" class="edge">
<title>I25&#45;&gt;!d26</title>
<g id="a_edge39"><a xlink:title="xret26">
<path fill="none" stroke="blue" d="M442.71,-422.14C440.3,-413.28 437.7,-403.68 435.56,-395.79"/>
<polygon fill="blue" stroke="blue" points="439.4,-423.32 445.4,-432.05 446.16,-421.49 439.4,-423.32"/>
</a>
</g>
</g>
<!-- !p27 -->
<g id="node28" class="node">
<title>!p27</title>
<ellipse fill="none" stroke="black" cx="450" cy="-531.4" rx="27" ry="18"/>
<text text-anchor="middle" x="450" y="-527.7" font-family="Times,serif" font-size="14.00">!p</text>
</g>
<!-- !d26&#45;&gt;!p27 -->
<g id="edge37" class="edge">
<title>!d26&#45;&gt;!p27</title>
<g id="a_edge37"><a xlink:title="xBf22">
<path fill="none" stroke="blue" d="M419.88,-405.03C413.74,-422.9 408.4,-447.07 414,-468 418.66,-485.4 429.47,-502.97 438.03,-515.01"/>
<polygon fill="blue" stroke="blue" points="423.19,-406.16 423.41,-395.57 416.64,-403.72 423.19,-406.16"/>
</a>
</g>
</g>
<!-- !p27&#45;&gt;I25 -->
<g id="edge20" class="edge">
<title>!p27&#45;&gt;I25</title>
<g id="a_edge20"><a xlink:title="newrretf23">
<path fill="none" stroke="red" d="M450,-513.17C450,-502.97 450,-489.83 450,-478.25"/>
<polygon fill="red" stroke="red" points="453.5,-478.19 450,-468.19 446.5,-478.19 453.5,-478.19"/>
</a>
</g>
</g>
<!-- !c33 -->
<g id="node34" class="node">
<title>!c33</title>
<ellipse fill="none" stroke="black" cx="505" cy="-306" rx="27" ry="18"/>
<text text-anchor="middle" x="505" y="-302.3" font-family="Times,serif" font-size="14.00">!c</text>
</g>
<!-- !p27&#45;&gt;!c33 -->
<g id="edge36" class="edge">
<title>!p27&#45;&gt;!c33</title>
<g id="a_edge36"><a xlink:title="xB10">
<path fill="none" stroke="blue" d="M467.08,-506.15C474.08,-495.02 481.57,-481.35 486,-468 500.97,-422.88 504.46,-367.21 505.1,-334.56"/>
<polygon fill="blue" stroke="blue" points="463.94,-504.55 461.39,-514.83 469.79,-508.39 463.94,-504.55"/>
<polygon fill="blue" stroke="blue" points="508.72,-324.46 505.1,-334.41 501.72,-324.37 508.72,-324.46"/>
</a>
</g>
</g>
<!-- I28 -->
<g id="node29" class="node">
<title>I28</title>
<ellipse fill="none" stroke="black" cx="412" cy="-684.8" rx="27" ry="18"/>
<text text-anchor="middle" x="412" y="-681.1" font-family="Times,serif" font-size="14.00">I</text>
</g>
<!-- @29 -->
<g id="node30" class="node">
<title>@29</title>
<ellipse fill="none" stroke="black" cx="450" cy="-612.8" rx="27" ry="18"/>
<text text-anchor="middle" x="450" y="-609.1" font-family="Times,serif" font-size="14.00">@</text>
</g>
<!-- I28&#45;&gt;@29 -->
<g id="edge5" class="edge">
<title>I28&#45;&gt;@29</title>
<g id="a_edge5"><a xlink:title="lret19">
<path fill="none" stroke="blue" d="M425.73,-658.5C430.9,-648.98 436.64,-638.41 441.23,-629.94"/>
<polygon fill="blue" stroke="blue" points="422.51,-657.1 420.81,-667.56 428.66,-660.44 422.51,-657.1"/>
</a>
</g>
</g>
<!-- @29&#45;&gt;!p27 -->
<g id="edge15" class="edge">
<title>@29&#45;&gt;!p27</title>
<g id="a_edge15"><a xlink:title="newrret18">
<path fill="none" stroke="red" d="M450,-594.57C450,-584.37 450,-571.23 450,-559.65"/>
<polygon fill="red" stroke="red" points="453.5,-559.59 450,-549.59 446.5,-559.59 453.5,-559.59"/>
</a>
</g>
</g>
<!-- Cut32 -->
<g id="node33" class="node">
<title>Cut32</title>
<ellipse fill="none" stroke="black" cx="560" cy="-531.4" rx="23.31" ry="23.31"/>
<ellipse fill="none" stroke="black" cx="560" cy="-531.4" rx="27.3" ry="27.3"/>
<text text-anchor="middle" x="560" y="-527.7" font-family="Times,serif" font-size="14.00">Cut</text>
</g>
<!-- @29&#45;&gt;Cut32 -->
<g id="edge10" class="edge">
<title>@29&#45;&gt;Cut32</title>
<g id="a_edge10"><a xlink:title="lval14">
<path fill="none" stroke="blue" d="M475.88,-593.12C494.84,-579.43 520.28,-561.07 538.21,-548.13"/>
<polygon fill="blue" stroke="blue" points="473.73,-590.35 467.67,-599.04 477.83,-596.02 473.73,-590.35"/>
</a>
</g>
</g>
<!-- I30 -->
<g id="node31" class="node">
<title>I30</title>
<ellipse fill="none" stroke="black" cx="560" cy="-450" rx="27" ry="18"/>
<text text-anchor="middle" x="560" y="-446.3" font-family="Times,serif" font-size="14.00">I</text>
</g>
<!-- !d31 -->
<g id="node32" class="node">
<title>!d31</title>
<ellipse fill="none" stroke="black" cx="560" cy="-378" rx="27" ry="18"/>
<text text-anchor="middle" x="560" y="-374.3" font-family="Times,serif" font-size="14.00">!d</text>
</g>
<!-- I30&#45;&gt;!d31 -->
<g id="edge38" class="edge">
<title>I30&#45;&gt;!d31</title>
<g id="a_edge38"><a xlink:title="xret17">
<path fill="none" stroke="blue" d="M560,-421.67C560,-413.05 560,-403.79 560,-396.1"/>
<polygon fill="blue" stroke="blue" points="556.5,-421.7 560,-431.7 563.5,-421.7 556.5,-421.7"/>
</a>
</g>
</g>
<!-- !d31&#45;&gt;!c33 -->
<g id="edge35" class="edge">
<title>!d31&#45;&gt;!c33</title>
<g id="a_edge35"><a xlink:title="xA9">
<path fill="none" stroke="blue" d="M541.83,-353.87C533.63,-343.44 524.19,-331.42 516.91,-322.16"/>
<polygon fill="blue" stroke="blue" points="539.14,-356.11 548.07,-361.81 544.64,-351.79 539.14,-356.11"/>
</a>
</g>
</g>
<!-- Cut32&#45;&gt;I30 -->
<g id="edge30" class="edge">
<title>Cut32&#45;&gt;I30</title>
<g id="a_edge30"><a xlink:title="rval15">
<path fill="none" stroke="red" stroke-width="2" d="M560,-503.96C560,-495.8 560,-486.81 560,-478.58"/>
<polygon fill="red" stroke="red" stroke-width="2" points="563.5,-478.34 560,-468.34 556.5,-478.34 563.5,-478.34"/>
</a>
</g>
</g>
<!-- λ34 -->
<g id="node35" class="node">
<title>λ34</title>
<ellipse fill="none" stroke="black" cx="401" cy="-756.8" rx="27" ry="18"/>
<text text-anchor="middle" x="401" y="-753.1" font-family="Times,serif" font-size="14.00">λ</text>
</g>
<!-- !c33&#45;&gt;λ34 -->
<g id="edge34" class="edge">
<title>!c33&#45;&gt;λ34</title>
<g id="a_edge34"><a xlink:title="x7">
<path fill="none" stroke="blue" d="M470.34,-316.57C446.48,-324.7 415.5,-338.54 395,-360 365.29,-391.1 357,-405.99 357,-449 357,-613.8 357,-613.8 357,-613.8 357,-654.24 363.06,-664.47 376,-702.8 380.29,-715.52 386.81,-729.21 392.11,-739.49"/>
<polygon fill="blue" stroke="blue" points="471.64,-319.83 480.08,-313.42 469.49,-313.16 471.64,-319.83"/>
</a>
</g>
</g>
<!-- λ34&#45;&gt;I28 -->
<g id="edge28" class="edge">
<title>λ34&#45;&gt;I28</title>
<g id="a_edge28"><a xlink:title="ret8">
<path fill="none" stroke="red" d="M403.66,-738.85C404.87,-731.14 406.34,-721.82 407.7,-713.16"/>
<polygon fill="red" stroke="red" points="411.19,-713.49 409.29,-703.07 404.28,-712.41 411.19,-713.49"/>
</a>
</g>
</g>
<!-- Cut35&#45;&gt;λ34 -->
<g id="edge33" class="edge">
<title>Cut35&#45;&gt;λ34</title>
<g id="a_edge33"><a xlink:title="rval5">
<path fill="none" stroke="red" d="M401,-810.49C401,-802.78 401,-793.51 401,-784.91"/>
<polygon fill="red" stroke="red" points="404.5,-784.9 401,-774.9 397.5,-784.9 404.5,-784.9"/>
</a>
</g>
</g>
<!-- Assign36 -->
<g id="node37" class="node">
<title>Assign36</title>
<ellipse fill="none" stroke="black" cx="319" cy="-1044.8" rx="35.19" ry="18"/>
<text text-anchor="middle" x="319" y="-1041.1" font-family="Times,serif" font-size="14.00">Assign</text>
</g>
<!-- Assign36&#45;&gt;I23 -->
<g id="edge25" class="edge">
<title>Assign36&#45;&gt;I23</title>
<g id="a_edge25"><a xlink:title="ret1">
<path fill="none" stroke="red" d="M319,-1026.49C319,-1018.78 319,-1009.51 319,-1000.91"/>
<polygon fill="red" stroke="red" points="322.5,-1000.9 319,-990.9 315.5,-1000.9 322.5,-1000.9"/>
</a>
</g>
</g>
</g>
</svg>
