<?xml version="1.0" encoding="UTF-8" standalone="no"?>
<!DOCTYPE svg PUBLIC "-//W3C//DTD SVG 1.1//EN"
 "http://www.w3.org/Graphics/SVG/1.1/DTD/svg11.dtd">
<!-- Generated by graphviz version 2.49.3 (0)
 -->
<!-- Pages: 1 -->
<svg width="279pt" height="1292pt"
 viewBox="0.00 0.00 278.79 1292.00" xmlns="http://www.w3.org/2000/svg" xmlns:xlink="http://www.w3.org/1999/xlink">
<g id="graph0" class="graph" transform="scale(1 1) rotate(0) translate(4 1288)">
<polygon fill="white" stroke="transparent" points="-4,4 -4,-1288 274.79,-1288 274.79,4 -4,4"/>
<!-- Identity0 -->
<g id="node1" class="node">
<title>Identity0</title>
<ellipse fill="none" stroke="black" cx="110" cy="-1266" rx="38.19" ry="18"/>
<text text-anchor="middle" x="110" y="-1262.3" font-family="Times,serif" font-size="14.00">Identity</text>
</g>
<!-- BangD1 -->
<g id="node2" class="node">
<title>BangD1</title>
<ellipse fill="none" stroke="black" cx="110" cy="-1194" rx="36" ry="18"/>
<text text-anchor="middle" x="110" y="-1190.3" font-family="Times,serif" font-size="14.00">BangD</text>
</g>
<!-- BangD1&#45;&gt;Identity0 -->
<g id="edge21" class="edge">
<title>BangD1&#45;&gt;Identity0</title>
<g id="a_edge21"><a xlink:title="iret84">
<path fill="none" stroke="blue" d="M104.12,-1211.94C103.29,-1219.76 103.05,-1229.25 103.41,-1238.02"/>
<polygon fill="blue" stroke="blue" points="99.93,-1238.48 104.14,-1248.21 106.92,-1237.98 99.93,-1238.48"/>
</a>
</g>
</g>
<!-- BangD1&#45;&gt;Identity0 -->
<g id="edge22" class="edge">
<title>BangD1&#45;&gt;Identity0</title>
<g id="a_edge22"><a xlink:title="iseq83">
<path fill="none" stroke="black" d="M115.88,-1211.94C116.71,-1219.76 116.95,-1229.25 116.59,-1238.02"/>
<polygon fill="black" stroke="black" points="113.08,-1237.98 115.86,-1248.21 120.07,-1238.48 113.08,-1237.98"/>
</a>
</g>
</g>
<!-- PiR2 -->
<g id="node3" class="node">
<title>PiR2</title>
<ellipse fill="none" stroke="black" cx="110" cy="-1122" rx="27" ry="18"/>
<text text-anchor="middle" x="110" y="-1118.3" font-family="Times,serif" font-size="14.00">PiR</text>
</g>
<!-- PiR2&#45;&gt;Identity0 -->
<g id="edge42" class="edge">
<title>PiR2&#45;&gt;Identity0</title>
<g id="a_edge42"><a xlink:title="ret82">
<path fill="none" stroke="red" d="M126.21,-1136.43C136.63,-1146.18 149.26,-1160.36 155,-1176 160.52,-1191.01 160.52,-1196.98 155,-1212 150.86,-1223.27 143.13,-1233.79 135.24,-1242.44"/>
<polygon fill="red" stroke="red" points="132.52,-1240.22 128.04,-1249.82 137.53,-1245.11 132.52,-1240.22"/>
</a>
</g>
</g>
<!-- PiR2&#45;&gt;BangD1 -->
<g id="edge18" class="edge">
<title>PiR2&#45;&gt;BangD1</title>
<g id="a_edge18"><a xlink:title="i81">
<path fill="none" stroke="blue" d="M104.16,-1139.58C103.3,-1147.49 103.05,-1157.14 103.41,-1166.06"/>
<polygon fill="blue" stroke="blue" points="99.92,-1166.31 104.12,-1176.04 106.9,-1165.82 99.92,-1166.31"/>
</a>
</g>
</g>
<!-- PiR2&#45;&gt;BangD1 -->
<g id="edge46" class="edge">
<title>PiR2&#45;&gt;BangD1</title>
<g id="a_edge46"><a xlink:title="seq80">
<path fill="none" stroke="black" d="M115.84,-1139.58C116.7,-1147.49 116.95,-1157.14 116.59,-1166.06"/>
<polygon fill="black" stroke="black" points="113.1,-1165.82 115.88,-1176.04 120.08,-1166.31 113.1,-1165.82"/>
</a>
</g>
</g>
<!-- Bang3 -->
<g id="node4" class="node">
<title>Bang3</title>
<ellipse fill="none" stroke="black" cx="110" cy="-1050" rx="29.5" ry="18"/>
<text text-anchor="middle" x="110" y="-1046.3" font-family="Times,serif" font-size="14.00">Bang</text>
</g>
<!-- Bang3&#45;&gt;PiR2 -->
<g id="edge5" class="edge">
<title>Bang3&#45;&gt;PiR2</title>
<g id="a_edge5"><a xlink:title="c_bseq79">
<path fill="none" stroke="black" d="M104.12,-1067.94C103.29,-1075.76 103.05,-1085.25 103.41,-1094.02"/>
<polygon fill="black" stroke="black" points="99.93,-1094.48 104.14,-1104.21 106.92,-1093.98 99.93,-1094.48"/>
</a>
</g>
</g>
<!-- Bang3&#45;&gt;PiR2 -->
<g id="edge37" class="edge">
<title>Bang3&#45;&gt;PiR2</title>
<g id="a_edge37"><a xlink:title="newrretf78">
<path fill="none" stroke="red" d="M115.88,-1067.94C116.71,-1075.76 116.95,-1085.25 116.59,-1094.02"/>
<polygon fill="red" stroke="red" points="113.08,-1093.98 115.86,-1104.21 120.07,-1094.48 113.08,-1093.98"/>
</a>
</g>
</g>
<!-- Identity4 -->
<g id="node5" class="node">
<title>Identity4</title>
<ellipse fill="none" stroke="black" cx="196" cy="-1050" rx="38.19" ry="18"/>
<text text-anchor="middle" x="196" y="-1046.3" font-family="Times,serif" font-size="14.00">Identity</text>
</g>
<!-- PiL5 -->
<g id="node6" class="node">
<title>PiL5</title>
<ellipse fill="none" stroke="black" cx="117" cy="-978" rx="27" ry="18"/>
<text text-anchor="middle" x="117" y="-974.3" font-family="Times,serif" font-size="14.00">PiL</text>
</g>
<!-- PiL5&#45;&gt;Bang3 -->
<g id="edge8" class="edge">
<title>PiL5&#45;&gt;Bang3</title>
<g id="a_edge8"><a xlink:title="dseq76">
<path fill="none" stroke="black" d="M109.5,-995.58C107.87,-1003.4 106.66,-1012.93 106.12,-1021.77"/>
<polygon fill="black" stroke="black" points="102.62,-1021.94 105.82,-1032.04 109.61,-1022.15 102.62,-1021.94"/>
</a>
</g>
</g>
<!-- PiL5&#45;&gt;Bang3 -->
<g id="edge33" class="edge">
<title>PiL5&#45;&gt;Bang3</title>
<g id="a_edge33"><a xlink:title="newrret74">
<path fill="none" stroke="red" d="M121.18,-995.94C121.23,-1003.85 120.5,-1013.46 119.25,-1022.31"/>
<polygon fill="red" stroke="red" points="115.79,-1021.76 117.54,-1032.21 122.69,-1022.95 115.79,-1021.76"/>
</a>
</g>
</g>
<!-- PiL5&#45;&gt;Identity4 -->
<g id="edge20" class="edge">
<title>PiL5&#45;&gt;Identity4</title>
<g id="a_edge20"><a xlink:title="idseq77">
<path fill="none" stroke="black" d="M136.31,-1001.74C145.48,-1010.37 156.55,-1020.13 166.7,-1028.53"/>
<polygon fill="black" stroke="black" points="131.24,-992.01 136.02,-1001.47 126.39,-997.05 131.24,-992.01"/>
<polygon fill="black" stroke="black" points="164.62,-1031.35 174.59,-1034.93 169.03,-1025.91 164.62,-1031.35"/>
</a>
</g>
</g>
<!-- PiL5&#45;&gt;Identity4 -->
<g id="edge24" class="edge">
<title>PiL5&#45;&gt;Identity4</title>
<g id="a_edge24"><a xlink:title="lret75">
<path fill="none" stroke="blue" d="M136.03,-991.19C148.15,-1000.64 163.62,-1014.01 175.91,-1025.51"/>
<polygon fill="blue" stroke="blue" points="173.82,-1028.35 183.46,-1032.74 178.66,-1023.3 173.82,-1028.35"/>
</a>
</g>
</g>
<!-- Identity6 -->
<g id="node7" class="node">
<title>Identity6</title>
<ellipse fill="none" stroke="black" cx="219" cy="-594" rx="38.19" ry="18"/>
<text text-anchor="middle" x="219" y="-590.3" font-family="Times,serif" font-size="14.00">Identity</text>
</g>
<!-- PiL7 -->
<g id="node8" class="node">
<title>PiL7</title>
<ellipse fill="none" stroke="black" cx="133" cy="-522" rx="27" ry="18"/>
<text text-anchor="middle" x="133" y="-518.3" font-family="Times,serif" font-size="14.00">PiL</text>
</g>
<!-- PiL7&#45;&gt;Identity6 -->
<g id="edge19" class="edge">
<title>PiL7&#45;&gt;Identity6</title>
<g id="a_edge19"><a xlink:title="idseq55">
<path fill="none" stroke="black" d="M153.56,-544.87C164.04,-553.92 176.89,-564.34 188.48,-573.16"/>
<polygon fill="black" stroke="black" points="148.3,-535.56 153.48,-544.8 143.67,-540.81 148.3,-535.56"/>
<polygon fill="black" stroke="black" points="186.53,-576.08 196.63,-579.26 190.72,-570.47 186.53,-576.08"/>
</a>
</g>
</g>
<!-- PiL7&#45;&gt;Identity6 -->
<g id="edge23" class="edge">
<title>PiL7&#45;&gt;Identity6</title>
<g id="a_edge23"><a xlink:title="lret53">
<path fill="none" stroke="blue" d="M152.37,-534.56C165.83,-544.23 183.54,-558.33 197.42,-570.25"/>
<polygon fill="blue" stroke="blue" points="195.26,-573.01 205.08,-576.97 199.87,-567.75 195.26,-573.01"/>
</a>
</g>
</g>
<!-- Bang14 -->
<g id="node15" class="node">
<title>Bang14</title>
<ellipse fill="none" stroke="black" cx="133" cy="-594" rx="29.5" ry="18"/>
<text text-anchor="middle" x="133" y="-590.3" font-family="Times,serif" font-size="14.00">Bang</text>
</g>
<!-- PiL7&#45;&gt;Bang14 -->
<g id="edge7" class="edge">
<title>PiL7&#45;&gt;Bang14</title>
<g id="a_edge7"><a xlink:title="dseq54">
<path fill="none" stroke="black" d="M127.16,-539.59C126.3,-547.49 126.05,-557.15 126.41,-566.06"/>
<polygon fill="black" stroke="black" points="122.92,-566.32 127.12,-576.04 129.9,-565.82 122.92,-566.32"/>
</a>
</g>
</g>
<!-- PiL7&#45;&gt;Bang14 -->
<g id="edge32" class="edge">
<title>PiL7&#45;&gt;Bang14</title>
<g id="a_edge32"><a xlink:title="newrret52">
<path fill="none" stroke="red" d="M138.84,-539.59C139.7,-547.49 139.95,-557.15 139.59,-566.06"/>
<polygon fill="red" stroke="red" points="136.1,-565.82 138.88,-576.04 143.08,-566.32 136.1,-565.82"/>
</a>
</g>
</g>
<!-- Assign8 -->
<g id="node9" class="node">
<title>Assign8</title>
<ellipse fill="none" stroke="black" cx="156" cy="-18" rx="35.19" ry="18"/>
<text text-anchor="middle" x="156" y="-14.3" font-family="Times,serif" font-size="14.00">Assign</text>
</g>
<!-- Dup18 -->
<g id="node19" class="node">
<title>Dup18</title>
<ellipse fill="none" stroke="black" cx="213" cy="-306" rx="27" ry="18"/>
<text text-anchor="middle" x="213" y="-302.3" font-family="Times,serif" font-size="14.00">Dup</text>
</g>
<!-- Assign8&#45;&gt;Dup18 -->
<g id="edge39" class="edge">
<title>Assign8&#45;&gt;Dup18</title>
<g id="a_edge39"><a xlink:title="ret133">
<path fill="none" stroke="red" d="M170.04,-34.98C177.93,-44.93 187.13,-58.38 192,-72 217.38,-143.02 216.99,-233.6 214.86,-278"/>
<polygon fill="red" stroke="red" points="211.37,-277.83 214.31,-288 218.36,-278.21 211.37,-277.83"/>
</a>
</g>
</g>
<!-- Cut19 -->
<g id="node20" class="node">
<title>Cut19</title>
<ellipse fill="none" stroke="black" cx="156" cy="-90" rx="27" ry="18"/>
<text text-anchor="middle" x="156" y="-86.3" font-family="Times,serif" font-size="14.00">Cut</text>
</g>
<!-- Assign8&#45;&gt;Cut19 -->
<g id="edge48" class="edge">
<title>Assign8&#45;&gt;Cut19</title>
<g id="a_edge48"><a xlink:title="seqBC94">
<path fill="none" stroke="black" d="M156,-36.3C156,-44.02 156,-53.29 156,-61.89"/>
<polygon fill="black" stroke="black" points="152.5,-61.9 156,-71.9 159.5,-61.9 152.5,-61.9"/>
</a>
</g>
</g>
<!-- Bang9 -->
<g id="node10" class="node">
<title>Bang9</title>
<ellipse fill="none" stroke="black" cx="156" cy="-162" rx="29.5" ry="18"/>
<text text-anchor="middle" x="156" y="-158.3" font-family="Times,serif" font-size="14.00">Bang</text>
</g>
<!-- PiR15 -->
<g id="node16" class="node">
<title>PiR15</title>
<ellipse fill="none" stroke="black" cx="156" cy="-234" rx="27" ry="18"/>
<text text-anchor="middle" x="156" y="-230.3" font-family="Times,serif" font-size="14.00">PiR</text>
</g>
<!-- Bang9&#45;&gt;PiR15 -->
<g id="edge29" class="edge">
<title>Bang9&#45;&gt;PiR15</title>
<g id="a_edge29"><a xlink:title="newcut_bseq100">
<path fill="none" stroke="black" d="M150.12,-179.95C149.29,-187.77 149.05,-197.25 149.41,-206.02"/>
<polygon fill="black" stroke="black" points="145.93,-206.49 150.14,-216.21 152.92,-205.99 145.93,-206.49"/>
</a>
</g>
</g>
<!-- Bang9&#45;&gt;PiR15 -->
<g id="edge38" class="edge">
<title>Bang9&#45;&gt;PiR15</title>
<g id="a_edge38"><a xlink:title="newrretf91">
<path fill="none" stroke="red" d="M161.88,-179.95C162.71,-187.77 162.95,-197.25 162.59,-206.02"/>
<polygon fill="red" stroke="red" points="159.08,-205.99 161.86,-216.21 166.07,-206.49 159.08,-205.99"/>
</a>
</g>
</g>
<!-- Dup10 -->
<g id="node11" class="node">
<title>Dup10</title>
<ellipse fill="none" stroke="black" cx="76" cy="-678" rx="26" ry="26"/>
<ellipse fill="none" stroke="black" cx="76" cy="-678" rx="30" ry="30"/>
<text text-anchor="middle" x="76" y="-674.3" font-family="Times,serif" font-size="14.00">Dup</text>
</g>
<!-- DupI24 -->
<g id="node25" class="node">
<title>DupI24</title>
<ellipse fill="none" stroke="black" cx="76" cy="-762" rx="28.7" ry="18"/>
<text text-anchor="middle" x="76" y="-758.3" font-family="Times,serif" font-size="14.00">DupI</text>
</g>
<!-- Dup10&#45;&gt;DupI24 -->
<g id="edge4" class="edge">
<title>Dup10&#45;&gt;DupI24</title>
<g id="a_edge4"><a xlink:title="c_bseq67">
<path fill="none" stroke="black" stroke-width="2" d="M76,-708.14C76,-716.46 76,-725.49 76,-733.7"/>
<polygon fill="black" stroke="black" stroke-width="2" points="72.5,-733.88 76,-743.88 79.5,-733.88 72.5,-733.88"/>
</a>
</g>
</g>
<!-- Dup11 -->
<g id="node12" class="node">
<title>Dup11</title>
<ellipse fill="none" stroke="black" cx="196" cy="-678" rx="27" ry="18"/>
<text text-anchor="middle" x="196" y="-674.3" font-family="Times,serif" font-size="14.00">Dup</text>
</g>
<!-- Dup11&#45;&gt;Identity4 -->
<g id="edge36" class="edge">
<title>Dup11&#45;&gt;Identity4</title>
<g id="a_edge36"><a xlink:title="newrretf66">
<path fill="none" stroke="red" d="M196,-696.09C196,-724.51 196,-783.27 196,-833 196,-833 196,-833 196,-907 196,-947 196,-993.34 196,-1021.92"/>
<polygon fill="red" stroke="red" points="192.5,-1021.95 196,-1031.95 199.5,-1021.95 192.5,-1021.95"/>
</a>
</g>
</g>
<!-- BangC12 -->
<g id="node13" class="node">
<title>BangC12</title>
<ellipse fill="none" stroke="black" cx="133" cy="-378" rx="35.19" ry="18"/>
<text text-anchor="middle" x="133" y="-374.3" font-family="Times,serif" font-size="14.00">BangC</text>
</g>
<!-- Cut13 -->
<g id="node14" class="node">
<title>Cut13</title>
<ellipse fill="none" stroke="black" cx="133" cy="-450" rx="27" ry="18"/>
<text text-anchor="middle" x="133" y="-446.3" font-family="Times,serif" font-size="14.00">Cut</text>
</g>
<!-- BangC12&#45;&gt;Cut13 -->
<g id="edge47" class="edge">
<title>BangC12&#45;&gt;Cut13</title>
<g id="a_edge47"><a xlink:title="seqBC118">
<path fill="none" stroke="black" d="M133,-396.3C133,-404.02 133,-413.29 133,-421.89"/>
<polygon fill="black" stroke="black" points="129.5,-421.9 133,-431.9 136.5,-421.9 129.5,-421.9"/>
</a>
</g>
</g>
<!-- BangC12&#45;&gt;Bang14 -->
<g id="edge9" class="edge">
<title>BangC12&#45;&gt;Bang14</title>
<g id="a_edge9"><a xlink:title="h116">
<path fill="none" stroke="blue" d="M112.35,-402.87C106.17,-411.48 100.19,-421.63 97,-432 82.89,-477.88 82.89,-494.12 97,-540 100.29,-550.69 106.54,-561.15 112.93,-569.92"/>
<polygon fill="blue" stroke="blue" points="121.29,-396.96 112.43,-402.77 115.73,-392.71 121.29,-396.96"/>
<polygon fill="blue" stroke="blue" points="110.35,-572.31 119.25,-578.07 115.88,-568.02 110.35,-572.31"/>
</a>
</g>
</g>
<!-- BangD20 -->
<g id="node21" class="node">
<title>BangD20</title>
<ellipse fill="none" stroke="black" cx="37" cy="-834" rx="36" ry="18"/>
<text text-anchor="middle" x="37" y="-830.3" font-family="Times,serif" font-size="14.00">BangD</text>
</g>
<!-- BangC12&#45;&gt;BangD20 -->
<g id="edge13" class="edge">
<title>BangC12&#45;&gt;BangD20</title>
<g id="a_edge13"><a xlink:title="hf107">
<path fill="none" stroke="blue" d="M108.61,-390.95C70.21,-411.68 0,-458.17 0,-521 0,-521 0,-521 0,-679 0,-724.95 15.77,-776.53 26.71,-806.81"/>
<polygon fill="blue" stroke="blue" points="23.45,-808.07 30.21,-816.22 30.01,-805.63 23.45,-808.07"/>
</a>
</g>
</g>
<!-- Cut13&#45;&gt;PiL7 -->
<g id="edge27" class="edge">
<title>Cut13&#45;&gt;PiL7</title>
<g id="a_edge27"><a xlink:title="lval48">
<path fill="none" stroke="blue" d="M127.16,-467.59C126.3,-475.49 126.05,-485.15 126.41,-494.06"/>
<polygon fill="blue" stroke="blue" points="122.92,-494.32 127.12,-504.04 129.9,-493.82 122.92,-494.32"/>
</a>
</g>
</g>
<!-- Cut13&#45;&gt;PiL7 -->
<g id="edge49" class="edge">
<title>Cut13&#45;&gt;PiL7</title>
<g id="a_edge49"><a xlink:title="yseq50">
<path fill="none" stroke="black" d="M139.58,-477.81C139.8,-483.05 139.81,-488.54 139.6,-493.78"/>
<polygon fill="black" stroke="black" points="142.33,-467.34 139.57,-477.56 135.35,-467.84 142.33,-467.34"/>
<polygon fill="black" stroke="black" points="136.09,-493.82 138.88,-504.04 143.07,-494.31 136.09,-493.82"/>
</a>
</g>
</g>
<!-- Cut13&#45;&gt;Dup10 -->
<g id="edge1" class="edge">
<title>Cut13&#45;&gt;Dup10</title>
<g id="a_edge1"><a xlink:title="c_bseq106">
<path fill="none" stroke="black" d="M119.83,-466.13C111.85,-476.18 102.23,-490.04 97,-504 80.56,-547.83 76.33,-601.88 75.54,-637.78"/>
<polygon fill="black" stroke="black" points="72.04,-637.8 75.4,-647.85 79.04,-637.9 72.04,-637.8"/>
</a>
</g>
</g>
<!-- Cut13&#45;&gt;Dup11 -->
<g id="edge34" class="edge">
<title>Cut13&#45;&gt;Dup11</title>
<g id="a_edge34"><a xlink:title="newrretf108">
<path fill="none" stroke="red" d="M152.9,-462.25C183.95,-481.1 242.79,-522.34 266,-576 272.35,-590.69 272.4,-597.33 266,-612 257.39,-631.75 239.48,-648.2 223.94,-659.61"/>
<polygon fill="red" stroke="red" points="221.82,-656.82 215.62,-665.41 225.82,-662.56 221.82,-656.82"/>
</a>
</g>
</g>
<!-- Bang14&#45;&gt;Dup10 -->
<g id="edge30" class="edge">
<title>Bang14&#45;&gt;Dup10</title>
<g id="a_edge30"><a xlink:title="newcut_bseq125">
<path fill="none" stroke="black" d="M122.01,-610.81C115.35,-620.4 106.6,-632.98 98.52,-644.6"/>
<polygon fill="none" stroke="black" points="95.63,-642.63 92.79,-652.84 101.38,-646.63 95.63,-642.63"/>
</a>
</g>
</g>
<!-- Bang14&#45;&gt;Dup11 -->
<g id="edge35" class="edge">
<title>Bang14&#45;&gt;Dup11</title>
<g id="a_edge35"><a xlink:title="newrretf114">
<path fill="none" stroke="red" d="M145.15,-610.81C154.44,-622.91 167.42,-639.79 177.93,-653.48"/>
<polygon fill="none" stroke="red" points="175.24,-655.72 184.1,-661.51 180.79,-651.45 175.24,-655.72"/>
</a>
</g>
</g>
<!-- BangD21 -->
<g id="node22" class="node">
<title>BangD21</title>
<ellipse fill="none" stroke="black" cx="126" cy="-834" rx="36" ry="18"/>
<text text-anchor="middle" x="126" y="-830.3" font-family="Times,serif" font-size="14.00">BangD</text>
</g>
<!-- Bang14&#45;&gt;BangD21 -->
<g id="edge14" class="edge">
<title>Bang14&#45;&gt;BangD21</title>
<g id="a_edge14"><a xlink:title="hf113">
<path fill="none" stroke="blue" d="M132.5,-612.12C131.3,-652.84 128.27,-755.8 126.81,-805.42"/>
<polygon fill="blue" stroke="blue" points="123.3,-805.62 126.51,-815.71 130.3,-805.82 123.3,-805.62"/>
</a>
</g>
</g>
<!-- Dup16 -->
<g id="node17" class="node">
<title>Dup16</title>
<ellipse fill="none" stroke="black" cx="133" cy="-306" rx="27" ry="18"/>
<text text-anchor="middle" x="133" y="-302.3" font-family="Times,serif" font-size="14.00">Dup</text>
</g>
<!-- PiR15&#45;&gt;Dup16 -->
<g id="edge44" class="edge">
<title>PiR15&#45;&gt;Dup16</title>
<g id="a_edge44"><a xlink:title="seq135">
<path fill="none" stroke="black" d="M150.43,-251.95C147.8,-259.94 144.61,-269.67 141.67,-278.6"/>
<polygon fill="none" stroke="black" points="138.31,-277.62 138.52,-288.21 144.96,-279.8 138.31,-277.62"/>
</a>
</g>
</g>
<!-- Dup17 -->
<g id="node18" class="node">
<title>Dup17</title>
<ellipse fill="none" stroke="black" cx="61" cy="-306" rx="27" ry="18"/>
<text text-anchor="middle" x="61" y="-302.3" font-family="Times,serif" font-size="14.00">Dup</text>
</g>
<!-- PiR15&#45;&gt;Dup17 -->
<g id="edge11" class="edge">
<title>PiR15&#45;&gt;Dup17</title>
<g id="a_edge11"><a xlink:title="h136">
<path fill="none" stroke="blue" d="M138.58,-247.84C124.07,-258.53 103.21,-273.9 86.77,-286.01"/>
<polygon fill="none" stroke="blue" points="84.61,-283.26 78.64,-292.01 88.76,-288.89 84.61,-283.26"/>
</a>
</g>
</g>
<!-- PiR15&#45;&gt;Dup18 -->
<g id="edge40" class="edge">
<title>PiR15&#45;&gt;Dup18</title>
<g id="a_edge40"><a xlink:title="ret137">
<path fill="none" stroke="red" d="M168.37,-250.19C175.91,-259.45 185.7,-271.48 194.19,-281.91"/>
<polygon fill="none" stroke="red" points="191.63,-284.3 200.66,-289.84 197.06,-279.88 191.63,-284.3"/>
</a>
</g>
</g>
<!-- Dup16&#45;&gt;BangC12 -->
<g id="edge45" class="edge">
<title>Dup16&#45;&gt;BangC12</title>
<g id="a_edge45"><a xlink:title="seq33">
<path fill="none" stroke="black" d="M133,-324.3C133,-332.02 133,-341.29 133,-349.89"/>
<polygon fill="black" stroke="black" points="129.5,-349.9 133,-359.9 136.5,-349.9 129.5,-349.9"/>
</a>
</g>
</g>
<!-- Dup17&#45;&gt;BangC12 -->
<g id="edge12" class="edge">
<title>Dup17&#45;&gt;BangC12</title>
<g id="a_edge12"><a xlink:title="h34">
<path fill="none" stroke="blue" d="M75.57,-321.17C85.39,-330.71 98.54,-343.5 109.79,-354.43"/>
<polygon fill="blue" stroke="blue" points="107.59,-357.18 117.2,-361.64 112.47,-352.16 107.59,-357.18"/>
</a>
</g>
</g>
<!-- Dup18&#45;&gt;Identity6 -->
<g id="edge41" class="edge">
<title>Dup18&#45;&gt;Identity6</title>
<g id="a_edge41"><a xlink:title="ret42">
<path fill="none" stroke="red" d="M213.36,-324.03C214.36,-371.71 217.19,-506.82 218.42,-565.37"/>
<polygon fill="red" stroke="red" points="214.93,-565.77 218.64,-575.69 221.93,-565.62 214.93,-565.77"/>
</a>
</g>
</g>
<!-- Cut19&#45;&gt;Bang9 -->
<g id="edge6" class="edge">
<title>Cut19&#45;&gt;Bang9</title>
<g id="a_edge6"><a xlink:title="dseq20">
<path fill="none" stroke="black" d="M150.16,-107.59C149.3,-115.49 149.05,-125.15 149.41,-134.06"/>
<polygon fill="black" stroke="black" points="145.92,-134.32 150.12,-144.04 152.9,-133.82 145.92,-134.32"/>
</a>
</g>
</g>
<!-- Cut19&#45;&gt;Bang9 -->
<g id="edge31" class="edge">
<title>Cut19&#45;&gt;Bang9</title>
<g id="a_edge31"><a xlink:title="newrret18">
<path fill="none" stroke="red" d="M161.84,-107.59C162.7,-115.49 162.95,-125.15 162.59,-134.06"/>
<polygon fill="red" stroke="red" points="159.1,-133.82 161.88,-144.04 166.08,-134.32 159.1,-133.82"/>
</a>
</g>
</g>
<!-- Cut19&#45;&gt;Dup16 -->
<g id="edge43" class="edge">
<title>Cut19&#45;&gt;Dup16</title>
<g id="a_edge43"><a xlink:title="seq131">
<path fill="none" stroke="black" d="M135.34,-113.25C128.43,-122.14 121.57,-132.89 118,-144 103.35,-189.58 114.88,-245.88 124.2,-278.39"/>
<polygon fill="black" stroke="black" points="144.58,-107.59 135.5,-113.06 139.19,-103.12 144.58,-107.59"/>
<polygon fill="black" stroke="black" points="120.88,-279.5 127.12,-288.07 127.59,-277.48 120.88,-279.5"/>
</a>
</g>
</g>
<!-- Cut19&#45;&gt;Dup17 -->
<g id="edge10" class="edge">
<title>Cut19&#45;&gt;Dup17</title>
<g id="a_edge10"><a xlink:title="h132">
<path fill="none" stroke="blue" d="M139.77,-104.79C129.05,-114.7 115.48,-128.93 107,-144 82.57,-187.44 70.23,-244.91 64.75,-278.13"/>
<polygon fill="blue" stroke="blue" points="61.29,-277.59 63.2,-288.01 68.2,-278.68 61.29,-277.59"/>
</a>
</g>
</g>
<!-- Dup22 -->
<g id="node23" class="node">
<title>Dup22</title>
<ellipse fill="none" stroke="black" cx="117" cy="-906" rx="27" ry="18"/>
<text text-anchor="middle" x="117" y="-902.3" font-family="Times,serif" font-size="14.00">Dup</text>
</g>
<!-- BangD20&#45;&gt;Dup22 -->
<g id="edge15" class="edge">
<title>BangD20&#45;&gt;Dup22</title>
<g id="a_edge15"><a xlink:title="hseq140">
<path fill="none" stroke="black" d="M53.97,-849.84C65.4,-859.85 80.65,-873.19 93.29,-884.25"/>
<polygon fill="black" stroke="black" points="91.32,-887.17 101.15,-891.12 95.93,-881.9 91.32,-887.17"/>
</a>
</g>
</g>
<!-- Dup23 -->
<g id="node24" class="node">
<title>Dup23</title>
<ellipse fill="none" stroke="black" cx="45" cy="-906" rx="27" ry="18"/>
<text text-anchor="middle" x="45" y="-902.3" font-family="Times,serif" font-size="14.00">Dup</text>
</g>
<!-- BangD20&#45;&gt;Dup23 -->
<g id="edge25" class="edge">
<title>BangD20&#45;&gt;Dup23</title>
<g id="a_edge25"><a xlink:title="lval141">
<path fill="none" stroke="blue" d="M38.98,-852.3C39.86,-860.01 40.92,-869.28 41.9,-877.88"/>
<polygon fill="blue" stroke="blue" points="38.43,-878.35 43.05,-887.89 45.39,-877.56 38.43,-878.35"/>
</a>
</g>
</g>
<!-- BangD21&#45;&gt;Dup22 -->
<g id="edge16" class="edge">
<title>BangD21&#45;&gt;Dup22</title>
<g id="a_edge16"><a xlink:title="hseq143">
<path fill="none" stroke="black" d="M123.78,-852.3C122.78,-860.01 121.59,-869.28 120.49,-877.88"/>
<polygon fill="none" stroke="black" points="117,-877.53 119.2,-887.89 123.95,-878.42 117,-877.53"/>
</a>
</g>
</g>
<!-- BangD21&#45;&gt;Dup23 -->
<g id="edge26" class="edge">
<title>BangD21&#45;&gt;Dup23</title>
<g id="a_edge26"><a xlink:title="lval144">
<path fill="none" stroke="blue" d="M108.82,-849.84C97.05,-860.01 81.3,-873.62 68.39,-884.78"/>
<polygon fill="none" stroke="blue" points="66.06,-882.17 60.78,-891.36 70.63,-887.47 66.06,-882.17"/>
</a>
</g>
</g>
<!-- Dup22&#45;&gt;PiL5 -->
<g id="edge17" class="edge">
<title>Dup22&#45;&gt;PiL5</title>
<g id="a_edge17"><a xlink:title="hseq72">
<path fill="none" stroke="black" d="M117,-924.3C117,-932.01 117,-941.28 117,-949.88"/>
<polygon fill="black" stroke="black" points="113.5,-949.89 117,-959.89 120.5,-949.89 113.5,-949.89"/>
</a>
</g>
</g>
<!-- Dup23&#45;&gt;PiL5 -->
<g id="edge28" class="edge">
<title>Dup23&#45;&gt;PiL5</title>
<g id="a_edge28"><a xlink:title="lval70">
<path fill="none" stroke="blue" d="M59.57,-921.16C69.75,-931.06 83.52,-944.45 95.03,-955.64"/>
<polygon fill="blue" stroke="blue" points="92.59,-958.15 102.2,-962.61 97.47,-953.13 92.59,-958.15"/>
</a>
</g>
</g>
<!-- DupI24&#45;&gt;BangD20 -->
<g id="edge2" class="edge">
<title>DupI24&#45;&gt;BangD20</title>
<g id="a_edge2"><a xlink:title="c_bseq142">
<path fill="none" stroke="black" d="M66.95,-779.23C62.3,-787.59 56.51,-797.98 51.27,-807.39"/>
<polygon fill="black" stroke="black" points="48.08,-805.92 46.27,-816.36 54.19,-809.33 48.08,-805.92"/>
</a>
</g>
</g>
<!-- DupI24&#45;&gt;BangD21 -->
<g id="edge3" class="edge">
<title>DupI24&#45;&gt;BangD21</title>
<g id="a_edge3"><a xlink:title="c_bseq145">
<path fill="none" stroke="black" d="M93.19,-787.06C98.1,-793.93 103.46,-801.43 108.39,-808.34"/>
<polygon fill="black" stroke="black" points="90.19,-776.85 93.16,-787.02 84.5,-780.91 90.19,-776.85"/>
<polygon fill="black" stroke="black" points="105.69,-810.59 114.35,-816.69 111.39,-806.52 105.69,-810.59"/>
</a>
</g>
</g>
</g>
</svg>
