<?xml version="1.0" encoding="UTF-8" standalone="no"?>
<!DOCTYPE svg PUBLIC "-//W3C//DTD SVG 1.1//EN"
 "http://www.w3.org/Graphics/SVG/1.1/DTD/svg11.dtd">
<!-- Generated by graphviz version 2.49.3 (0)
 -->
<!-- Pages: 1 -->
<svg width="345pt" height="1215pt"
 viewBox="0.00 0.00 344.69 1214.80" xmlns="http://www.w3.org/2000/svg" xmlns:xlink="http://www.w3.org/1999/xlink">
<g id="graph0" class="graph" transform="scale(1 1) rotate(0) translate(4 1210.8)">
<polygon fill="white" stroke="transparent" points="-4,4 -4,-1210.8 340.69,-1210.8 340.69,4 -4,4"/>
<!-- Identity0 -->
<g id="node1" class="node">
<title>Identity0</title>
<ellipse fill="none" stroke="black" cx="38.35" cy="-1188.8" rx="38.19" ry="18"/>
<text text-anchor="middle" x="38.35" y="-1185.1" font-family="Times,serif" font-size="14.00">Identity</text>
</g>
<!-- BangD1 -->
<g id="node2" class="node">
<title>BangD1</title>
<ellipse fill="none" stroke="black" cx="38.35" cy="-1116.8" rx="36" ry="18"/>
<text text-anchor="middle" x="38.35" y="-1113.1" font-family="Times,serif" font-size="14.00">BangD</text>
</g>
<!-- BangD1&#45;&gt;Identity0 -->
<g id="edge22" class="edge">
<title>BangD1&#45;&gt;Identity0</title>
<g id="a_edge22"><a xlink:title="iret84">
<path fill="none" stroke="blue" d="M32.47,-1134.74C31.64,-1142.57 31.4,-1152.05 31.76,-1160.82"/>
<polygon fill="blue" stroke="blue" points="28.28,-1161.28 32.49,-1171.01 35.26,-1160.78 28.28,-1161.28"/>
</a>
</g>
</g>
<!-- BangD1&#45;&gt;Identity0 -->
<g id="edge23" class="edge">
<title>BangD1&#45;&gt;Identity0</title>
<g id="a_edge23"><a xlink:title="iseq83">
<path fill="none" stroke="black" d="M44.22,-1134.74C45.06,-1142.57 45.29,-1152.05 44.94,-1160.82"/>
<polygon fill="black" stroke="black" points="41.43,-1160.78 44.21,-1171.01 48.41,-1161.28 41.43,-1160.78"/>
</a>
</g>
</g>
<!-- PiR2 -->
<g id="node3" class="node">
<title>PiR2</title>
<ellipse fill="none" stroke="black" cx="38.35" cy="-1044.8" rx="27" ry="18"/>
<text text-anchor="middle" x="38.35" y="-1041.1" font-family="Times,serif" font-size="14.00">PiR</text>
</g>
<!-- PiR2&#45;&gt;Identity0 -->
<g id="edge49" class="edge">
<title>PiR2&#45;&gt;Identity0</title>
<g id="a_edge49"><a xlink:title="ret82">
<path fill="none" stroke="red" d="M54.55,-1059.23C64.98,-1068.98 77.6,-1083.16 83.35,-1098.8 88.86,-1113.81 88.86,-1119.78 83.35,-1134.8 79.2,-1146.07 71.48,-1156.59 63.59,-1165.24"/>
<polygon fill="red" stroke="red" points="60.86,-1163.02 56.39,-1172.62 65.88,-1167.91 60.86,-1163.02"/>
</a>
</g>
</g>
<!-- PiR2&#45;&gt;BangD1 -->
<g id="edge17" class="edge">
<title>PiR2&#45;&gt;BangD1</title>
<g id="a_edge17"><a xlink:title="i81">
<path fill="none" stroke="blue" d="M32.51,-1062.38C31.64,-1070.29 31.39,-1079.94 31.76,-1088.86"/>
<polygon fill="blue" stroke="blue" points="28.27,-1089.11 32.47,-1098.84 35.25,-1088.62 28.27,-1089.11"/>
</a>
</g>
</g>
<!-- PiR2&#45;&gt;BangD1 -->
<g id="edge54" class="edge">
<title>PiR2&#45;&gt;BangD1</title>
<g id="a_edge54"><a xlink:title="seq80">
<path fill="none" stroke="black" d="M44.19,-1062.38C45.05,-1070.29 45.3,-1079.94 44.93,-1088.86"/>
<polygon fill="black" stroke="black" points="41.44,-1088.62 44.23,-1098.84 48.43,-1089.11 41.44,-1088.62"/>
</a>
</g>
</g>
<!-- Bang3 -->
<g id="node4" class="node">
<title>Bang3</title>
<ellipse fill="none" stroke="black" cx="38.35" cy="-972.8" rx="29.5" ry="18"/>
<text text-anchor="middle" x="38.35" y="-969.1" font-family="Times,serif" font-size="14.00">Bang</text>
</g>
<!-- Bang3&#45;&gt;PiR2 -->
<g id="edge5" class="edge">
<title>Bang3&#45;&gt;PiR2</title>
<g id="a_edge5"><a xlink:title="c_bseq79">
<path fill="none" stroke="black" d="M32.47,-990.74C31.64,-998.57 31.4,-1008.05 31.76,-1016.82"/>
<polygon fill="black" stroke="black" points="28.28,-1017.28 32.49,-1027.01 35.26,-1016.78 28.28,-1017.28"/>
</a>
</g>
</g>
<!-- Bang3&#45;&gt;PiR2 -->
<g id="edge43" class="edge">
<title>Bang3&#45;&gt;PiR2</title>
<g id="a_edge43"><a xlink:title="newrretf78">
<path fill="none" stroke="red" d="M44.22,-990.74C45.06,-998.57 45.29,-1008.05 44.94,-1016.82"/>
<polygon fill="red" stroke="red" points="41.43,-1016.78 44.21,-1027.01 48.41,-1017.28 41.43,-1016.78"/>
</a>
</g>
</g>
<!-- Identity4 -->
<g id="node5" class="node">
<title>Identity4</title>
<ellipse fill="none" stroke="black" cx="124.35" cy="-972.8" rx="38.19" ry="18"/>
<text text-anchor="middle" x="124.35" y="-969.1" font-family="Times,serif" font-size="14.00">Identity</text>
</g>
<!-- PiL5 -->
<g id="node6" class="node">
<title>PiL5</title>
<ellipse fill="none" stroke="black" cx="60.35" cy="-900.8" rx="27" ry="18"/>
<text text-anchor="middle" x="60.35" y="-897.1" font-family="Times,serif" font-size="14.00">PiL</text>
</g>
<!-- PiL5&#45;&gt;Bang3 -->
<g id="edge13" class="edge">
<title>PiL5&#45;&gt;Bang3</title>
<g id="a_edge13"><a xlink:title="dseq76">
<path fill="none" stroke="black" d="M49.59,-917.68C46.17,-925.65 42.79,-935.53 40.28,-944.66"/>
<polygon fill="black" stroke="black" points="36.85,-943.96 37.87,-954.5 43.65,-945.62 36.85,-943.96"/>
</a>
</g>
</g>
<!-- PiL5&#45;&gt;Bang3 -->
<g id="edge37" class="edge">
<title>PiL5&#45;&gt;Bang3</title>
<g id="a_edge37"><a xlink:title="newrret74">
<path fill="none" stroke="red" d="M60.82,-919.1C59.09,-927.31 56.16,-937.27 52.88,-946.32"/>
<polygon fill="red" stroke="red" points="49.61,-945.06 49.21,-955.65 56.12,-947.62 49.61,-945.06"/>
</a>
</g>
</g>
<!-- PiL5&#45;&gt;Identity4 -->
<g id="edge21" class="edge">
<title>PiL5&#45;&gt;Identity4</title>
<g id="a_edge21"><a xlink:title="idseq77">
<path fill="none" stroke="black" d="M75.98,-925.95C82.64,-933.72 90.51,-942.27 97.99,-949.87"/>
<polygon fill="black" stroke="black" points="72.08,-915.79 75.78,-925.72 66.7,-920.27 72.08,-915.79"/>
<polygon fill="black" stroke="black" points="95.7,-952.53 105.27,-957.08 100.63,-947.56 95.7,-952.53"/>
</a>
</g>
</g>
<!-- PiL5&#45;&gt;Identity4 -->
<g id="edge27" class="edge">
<title>PiL5&#45;&gt;Identity4</title>
<g id="a_edge27"><a xlink:title="lret75">
<path fill="none" stroke="blue" d="M77.8,-914.96C87.4,-924.05 99.06,-936.41 108.41,-947.28"/>
<polygon fill="blue" stroke="blue" points="105.94,-949.79 115.04,-955.23 111.32,-945.31 105.94,-949.79"/>
</a>
</g>
</g>
<!-- BangD6 -->
<g id="node7" class="node">
<title>BangD6</title>
<ellipse fill="none" stroke="black" cx="60.35" cy="-828.8" rx="36" ry="18"/>
<text text-anchor="middle" x="60.35" y="-825.1" font-family="Times,serif" font-size="14.00">BangD</text>
</g>
<!-- BangD6&#45;&gt;PiL5 -->
<g id="edge16" class="edge">
<title>BangD6&#45;&gt;PiL5</title>
<g id="a_edge16"><a xlink:title="hseq72">
<path fill="none" stroke="black" d="M54.47,-846.74C53.64,-854.57 53.4,-864.05 53.76,-872.82"/>
<polygon fill="black" stroke="black" points="50.28,-873.28 54.49,-883.01 57.26,-872.78 50.28,-873.28"/>
</a>
</g>
</g>
<!-- BangD6&#45;&gt;PiL5 -->
<g id="edge31" class="edge">
<title>BangD6&#45;&gt;PiL5</title>
<g id="a_edge31"><a xlink:title="lval70">
<path fill="none" stroke="blue" d="M66.22,-846.74C67.06,-854.57 67.29,-864.05 66.94,-872.82"/>
<polygon fill="blue" stroke="blue" points="63.43,-872.78 66.21,-883.01 70.41,-873.28 63.43,-872.78"/>
</a>
</g>
</g>
<!-- Bang7 -->
<g id="node8" class="node">
<title>Bang7</title>
<ellipse fill="none" stroke="black" cx="60.35" cy="-756.8" rx="29.5" ry="18"/>
<text text-anchor="middle" x="60.35" y="-753.1" font-family="Times,serif" font-size="14.00">Bang</text>
</g>
<!-- Bang7&#45;&gt;Identity4 -->
<g id="edge42" class="edge">
<title>Bang7&#45;&gt;Identity4</title>
<g id="a_edge42"><a xlink:title="newrretf66">
<path fill="none" stroke="red" d="M76.42,-771.89C86.5,-781.73 98.79,-795.74 105.35,-810.8 124.43,-854.61 126.56,-911.14 125.82,-944.23"/>
<polygon fill="red" stroke="red" points="122.32,-944.4 125.49,-954.51 129.31,-944.63 122.32,-944.4"/>
</a>
</g>
</g>
<!-- Bang7&#45;&gt;BangD6 -->
<g id="edge4" class="edge">
<title>Bang7&#45;&gt;BangD6</title>
<g id="a_edge4"><a xlink:title="c_bseq67">
<path fill="none" stroke="black" d="M54.47,-774.74C53.64,-782.57 53.4,-792.05 53.76,-800.82"/>
<polygon fill="black" stroke="black" points="50.28,-801.28 54.49,-811.01 57.26,-800.78 50.28,-801.28"/>
</a>
</g>
</g>
<!-- Bang7&#45;&gt;BangD6 -->
<g id="edge15" class="edge">
<title>Bang7&#45;&gt;BangD6</title>
<g id="a_edge15"><a xlink:title="hf65">
<path fill="none" stroke="blue" d="M66.22,-774.74C67.06,-782.57 67.29,-792.05 66.94,-800.82"/>
<polygon fill="blue" stroke="blue" points="63.43,-800.78 66.21,-811.01 70.41,-801.28 63.43,-800.78"/>
</a>
</g>
</g>
<!-- Identity8 -->
<g id="node9" class="node">
<title>Identity8</title>
<ellipse fill="none" stroke="black" cx="146.35" cy="-756.8" rx="38.19" ry="18"/>
<text text-anchor="middle" x="146.35" y="-753.1" font-family="Times,serif" font-size="14.00">Identity</text>
</g>
<!-- PiL9 -->
<g id="node10" class="node">
<title>PiL9</title>
<ellipse fill="none" stroke="black" cx="146.35" cy="-684.8" rx="27" ry="18"/>
<text text-anchor="middle" x="146.35" y="-681.1" font-family="Times,serif" font-size="14.00">PiL</text>
</g>
<!-- PiL9&#45;&gt;Bang7 -->
<g id="edge12" class="edge">
<title>PiL9&#45;&gt;Bang7</title>
<g id="a_edge12"><a xlink:title="dseq63">
<path fill="none" stroke="black" d="M126.98,-697.35C113.25,-707.22 95.09,-721.69 81.09,-733.76"/>
<polygon fill="black" stroke="black" points="78.59,-731.31 73.4,-740.54 83.22,-736.56 78.59,-731.31"/>
</a>
</g>
</g>
<!-- PiL9&#45;&gt;Bang7 -->
<g id="edge36" class="edge">
<title>PiL9&#45;&gt;Bang7</title>
<g id="a_edge36"><a xlink:title="newrret61">
<path fill="none" stroke="red" d="M133.36,-700.98C121.42,-711.77 103.67,-726.31 88.58,-737.7"/>
<polygon fill="red" stroke="red" points="86.47,-734.9 80.52,-743.66 90.64,-740.53 86.47,-734.9"/>
</a>
</g>
</g>
<!-- PiL9&#45;&gt;Identity8 -->
<g id="edge20" class="edge">
<title>PiL9&#45;&gt;Identity8</title>
<g id="a_edge20"><a xlink:title="idseq64">
<path fill="none" stroke="black" d="M139.76,-712.61C139.55,-717.84 139.54,-723.33 139.75,-728.58"/>
<polygon fill="black" stroke="black" points="144,-702.64 139.78,-712.36 137.02,-702.13 144,-702.64"/>
<polygon fill="black" stroke="black" points="136.28,-729.11 140.47,-738.84 143.26,-728.62 136.28,-729.11"/>
</a>
</g>
</g>
<!-- PiL9&#45;&gt;Identity8 -->
<g id="edge26" class="edge">
<title>PiL9&#45;&gt;Identity8</title>
<g id="a_edge26"><a xlink:title="lret62">
<path fill="none" stroke="blue" d="M152.19,-702.38C153.05,-710.29 153.3,-719.94 152.93,-728.86"/>
<polygon fill="blue" stroke="blue" points="149.44,-728.62 152.23,-738.84 156.43,-729.11 149.44,-728.62"/>
</a>
</g>
</g>
<!-- Identity10 -->
<g id="node11" class="node">
<title>Identity10</title>
<ellipse fill="none" stroke="black" cx="212.35" cy="-1116.8" rx="38.19" ry="18"/>
<text text-anchor="middle" x="212.35" y="-1113.1" font-family="Times,serif" font-size="14.00">Identity</text>
</g>
<!-- BangD11 -->
<g id="node12" class="node">
<title>BangD11</title>
<ellipse fill="none" stroke="black" cx="212.35" cy="-1044.8" rx="36" ry="18"/>
<text text-anchor="middle" x="212.35" y="-1041.1" font-family="Times,serif" font-size="14.00">BangD</text>
</g>
<!-- BangD11&#45;&gt;Identity10 -->
<g id="edge64" class="edge">
<title>BangD11&#45;&gt;Identity10</title>
<g id="a_edge64"><a xlink:title="yret60">
<path fill="none" stroke="blue" d="M206.47,-1062.74C205.64,-1070.57 205.4,-1080.05 205.76,-1088.82"/>
<polygon fill="blue" stroke="blue" points="202.28,-1089.28 206.49,-1099.01 209.26,-1088.78 202.28,-1089.28"/>
</a>
</g>
</g>
<!-- BangD11&#45;&gt;Identity10 -->
<g id="edge66" class="edge">
<title>BangD11&#45;&gt;Identity10</title>
<g id="a_edge66"><a xlink:title="yseq59">
<path fill="none" stroke="black" d="M218.22,-1062.74C219.06,-1070.57 219.29,-1080.05 218.94,-1088.82"/>
<polygon fill="black" stroke="black" points="215.43,-1088.78 218.21,-1099.01 222.41,-1089.28 215.43,-1088.78"/>
</a>
</g>
</g>
<!-- Bang12 -->
<g id="node13" class="node">
<title>Bang12</title>
<ellipse fill="none" stroke="black" cx="212.35" cy="-972.8" rx="29.5" ry="18"/>
<text text-anchor="middle" x="212.35" y="-969.1" font-family="Times,serif" font-size="14.00">Bang</text>
</g>
<!-- Bang12&#45;&gt;Identity10 -->
<g id="edge41" class="edge">
<title>Bang12&#45;&gt;Identity10</title>
<g id="a_edge41"><a xlink:title="newrretf57">
<path fill="none" stroke="red" d="M229.01,-987.66C239.34,-997.39 251.69,-1011.39 257.35,-1026.8 262.86,-1041.81 262.86,-1047.78 257.35,-1062.8 253.2,-1074.07 245.48,-1084.59 237.59,-1093.24"/>
<polygon fill="red" stroke="red" points="234.86,-1091.02 230.39,-1100.62 239.88,-1095.91 234.86,-1091.02"/>
</a>
</g>
</g>
<!-- Bang12&#45;&gt;BangD11 -->
<g id="edge3" class="edge">
<title>Bang12&#45;&gt;BangD11</title>
<g id="a_edge3"><a xlink:title="c_bseq58">
<path fill="none" stroke="black" d="M206.47,-990.74C205.64,-998.57 205.4,-1008.05 205.76,-1016.82"/>
<polygon fill="black" stroke="black" points="202.28,-1017.28 206.49,-1027.01 209.26,-1016.78 202.28,-1017.28"/>
</a>
</g>
</g>
<!-- Bang12&#45;&gt;BangD11 -->
<g id="edge63" class="edge">
<title>Bang12&#45;&gt;BangD11</title>
<g id="a_edge63"><a xlink:title="yBf56">
<path fill="none" stroke="blue" d="M218.22,-990.74C219.06,-998.57 219.29,-1008.05 218.94,-1016.82"/>
<polygon fill="blue" stroke="blue" points="215.43,-1016.78 218.21,-1027.01 222.41,-1017.28 215.43,-1016.78"/>
</a>
</g>
</g>
<!-- Identity13 -->
<g id="node14" class="node">
<title>Identity13</title>
<ellipse fill="none" stroke="black" cx="298.35" cy="-972.8" rx="38.19" ry="18"/>
<text text-anchor="middle" x="298.35" y="-969.1" font-family="Times,serif" font-size="14.00">Identity</text>
</g>
<!-- PiL14 -->
<g id="node15" class="node">
<title>PiL14</title>
<ellipse fill="none" stroke="black" cx="237.35" cy="-900.8" rx="27" ry="18"/>
<text text-anchor="middle" x="237.35" y="-897.1" font-family="Times,serif" font-size="14.00">PiL</text>
</g>
<!-- PiL14&#45;&gt;Bang12 -->
<g id="edge11" class="edge">
<title>PiL14&#45;&gt;Bang12</title>
<g id="a_edge11"><a xlink:title="dseq54">
<path fill="none" stroke="black" d="M226.08,-917.33C222.25,-925.38 218.37,-935.43 215.43,-944.71"/>
<polygon fill="black" stroke="black" points="212.06,-943.76 212.65,-954.33 218.78,-945.7 212.06,-943.76"/>
</a>
</g>
</g>
<!-- PiL14&#45;&gt;Bang12 -->
<g id="edge35" class="edge">
<title>PiL14&#45;&gt;Bang12</title>
<g id="a_edge35"><a xlink:title="newrret52">
<path fill="none" stroke="red" d="M237.08,-919.1C234.97,-927.42 231.54,-937.56 227.81,-946.71"/>
<polygon fill="red" stroke="red" points="224.49,-945.56 223.68,-956.12 230.9,-948.37 224.49,-945.56"/>
</a>
</g>
</g>
<!-- PiL14&#45;&gt;Identity13 -->
<g id="edge19" class="edge">
<title>PiL14&#45;&gt;Identity13</title>
<g id="a_edge19"><a xlink:title="idseq55">
<path fill="none" stroke="black" d="M252.1,-926.14C258.17,-933.58 265.3,-941.73 272.16,-949.05"/>
<polygon fill="black" stroke="black" points="248.44,-915.86 251.89,-925.88 242.95,-920.2 248.44,-915.86"/>
<polygon fill="black" stroke="black" points="269.98,-951.83 279.43,-956.61 275.02,-946.98 269.98,-951.83"/>
</a>
</g>
</g>
<!-- PiL14&#45;&gt;Identity13 -->
<g id="edge25" class="edge">
<title>PiL14&#45;&gt;Identity13</title>
<g id="a_edge25"><a xlink:title="lret53">
<path fill="none" stroke="blue" d="M254.23,-914.96C263.45,-924.05 274.58,-936.41 283.46,-947.28"/>
<polygon fill="blue" stroke="blue" points="280.8,-949.56 289.75,-955.23 286.29,-945.22 280.8,-949.56"/>
</a>
</g>
</g>
<!-- BangD15 -->
<g id="node16" class="node">
<title>BangD15</title>
<ellipse fill="none" stroke="black" cx="237.35" cy="-828.8" rx="36" ry="18"/>
<text text-anchor="middle" x="237.35" y="-825.1" font-family="Times,serif" font-size="14.00">BangD</text>
</g>
<!-- BangD15&#45;&gt;PiL14 -->
<g id="edge30" class="edge">
<title>BangD15&#45;&gt;PiL14</title>
<g id="a_edge30"><a xlink:title="lval48">
<path fill="none" stroke="blue" d="M231.47,-846.74C230.64,-854.57 230.4,-864.05 230.76,-872.82"/>
<polygon fill="blue" stroke="blue" points="227.28,-873.28 231.49,-883.01 234.26,-872.78 227.28,-873.28"/>
</a>
</g>
</g>
<!-- BangD15&#45;&gt;PiL14 -->
<g id="edge65" class="edge">
<title>BangD15&#45;&gt;PiL14</title>
<g id="a_edge65"><a xlink:title="yseq50">
<path fill="none" stroke="black" d="M243.22,-846.74C244.06,-854.57 244.29,-864.05 243.94,-872.82"/>
<polygon fill="black" stroke="black" points="240.43,-872.78 243.21,-883.01 247.41,-873.28 240.43,-872.78"/>
</a>
</g>
</g>
<!-- BangC16 -->
<g id="node17" class="node">
<title>BangC16</title>
<ellipse fill="none" stroke="black" cx="237.35" cy="-756.8" rx="35.19" ry="18"/>
<text text-anchor="middle" x="237.35" y="-753.1" font-family="Times,serif" font-size="14.00">BangC</text>
</g>
<!-- BangC16&#45;&gt;Bang12 -->
<g id="edge62" class="edge">
<title>BangC16&#45;&gt;Bang12</title>
<g id="a_edge62"><a xlink:title="yB44">
<path fill="none" stroke="blue" d="M212.72,-779.69C204.61,-788.46 196.6,-799.23 192.35,-810.8 175.7,-856.13 190.32,-912.95 201.79,-945.54"/>
<polygon fill="blue" stroke="blue" points="222.26,-774.98 212.75,-779.65 217.27,-770.07 222.26,-774.98"/>
<polygon fill="blue" stroke="blue" points="198.62,-947.06 205.37,-955.23 205.19,-944.63 198.62,-947.06"/>
</a>
</g>
</g>
<!-- BangC16&#45;&gt;BangD15 -->
<g id="edge53" class="edge">
<title>BangC16&#45;&gt;BangD15</title>
<g id="a_edge53"><a xlink:title="seq45">
<path fill="none" stroke="black" d="M231.47,-774.74C230.64,-782.57 230.4,-792.05 230.76,-800.82"/>
<polygon fill="black" stroke="black" points="227.28,-801.28 231.49,-811.01 234.26,-800.78 227.28,-801.28"/>
</a>
</g>
</g>
<!-- BangC16&#45;&gt;BangD15 -->
<g id="edge61" class="edge">
<title>BangC16&#45;&gt;BangD15</title>
<g id="a_edge61"><a xlink:title="yA43">
<path fill="none" stroke="blue" d="M243.22,-774.74C244.06,-782.57 244.29,-792.05 243.94,-800.82"/>
<polygon fill="blue" stroke="blue" points="240.43,-800.78 243.21,-811.01 247.41,-801.28 240.43,-800.78"/>
</a>
</g>
</g>
<!-- PiR17 -->
<g id="node18" class="node">
<title>PiR17</title>
<ellipse fill="none" stroke="black" cx="237.35" cy="-684.8" rx="27" ry="18"/>
<text text-anchor="middle" x="237.35" y="-681.1" font-family="Times,serif" font-size="14.00">PiR</text>
</g>
<!-- PiR17&#45;&gt;Identity13 -->
<g id="edge47" class="edge">
<title>PiR17&#45;&gt;Identity13</title>
<g id="a_edge47"><a xlink:title="ret42">
<path fill="none" stroke="red" d="M253.28,-699.87C263.23,-709.69 275.27,-723.71 281.35,-738.8 309.48,-808.66 305.75,-899.76 301.57,-944.53"/>
<polygon fill="red" stroke="red" points="298.07,-944.32 300.55,-954.62 305.04,-945.03 298.07,-944.32"/>
</a>
</g>
</g>
<!-- PiR17&#45;&gt;BangC16 -->
<g id="edge52" class="edge">
<title>PiR17&#45;&gt;BangC16</title>
<g id="a_edge52"><a xlink:title="seq40">
<path fill="none" stroke="black" d="M231.51,-702.38C230.64,-710.29 230.39,-719.94 230.76,-728.86"/>
<polygon fill="black" stroke="black" points="227.27,-729.11 231.47,-738.84 234.25,-728.62 227.27,-729.11"/>
</a>
</g>
</g>
<!-- PiR17&#45;&gt;BangC16 -->
<g id="edge60" class="edge">
<title>PiR17&#45;&gt;BangC16</title>
<g id="a_edge60"><a xlink:title="y41">
<path fill="none" stroke="blue" d="M243.19,-702.38C244.05,-710.29 244.3,-719.94 243.93,-728.86"/>
<polygon fill="blue" stroke="blue" points="240.44,-728.62 243.23,-738.84 247.43,-729.11 240.44,-728.62"/>
</a>
</g>
</g>
<!-- Cut18 -->
<g id="node19" class="node">
<title>Cut18</title>
<ellipse fill="none" stroke="black" cx="146.35" cy="-612.8" rx="27" ry="18"/>
<text text-anchor="middle" x="146.35" y="-609.1" font-family="Times,serif" font-size="14.00">Cut</text>
</g>
<!-- Cut18&#45;&gt;PiL9 -->
<g id="edge8" class="edge">
<title>Cut18&#45;&gt;PiL9</title>
<g id="a_edge8"><a xlink:title="c_lseq36">
<path fill="none" stroke="black" d="M139.76,-640.61C139.55,-645.84 139.54,-651.33 139.75,-656.58"/>
<polygon fill="black" stroke="black" points="144,-630.64 139.78,-640.36 137.02,-630.13 144,-630.64"/>
<polygon fill="black" stroke="black" points="136.28,-657.11 140.47,-666.84 143.26,-656.62 136.28,-657.11"/>
</a>
</g>
</g>
<!-- Cut18&#45;&gt;PiL9 -->
<g id="edge29" class="edge">
<title>Cut18&#45;&gt;PiL9</title>
<g id="a_edge29"><a xlink:title="lval38">
<path fill="none" stroke="blue" d="M152.19,-630.38C153.05,-638.29 153.3,-647.94 152.93,-656.86"/>
<polygon fill="blue" stroke="blue" points="149.44,-656.62 152.23,-666.84 156.43,-657.11 149.44,-656.62"/>
</a>
</g>
</g>
<!-- Cut18&#45;&gt;PiR17 -->
<g id="edge9" class="edge">
<title>Cut18&#45;&gt;PiR17</title>
<g id="a_edge9"><a xlink:title="c_rseq37">
<path fill="none" stroke="black" d="M160.01,-628.64C172.98,-639.68 192.51,-654.78 208.79,-666.39"/>
<polygon fill="black" stroke="black" points="207.23,-669.57 217.43,-672.43 211.24,-663.83 207.23,-669.57"/>
</a>
</g>
</g>
<!-- Cut18&#45;&gt;PiR17 -->
<g id="edge50" class="edge">
<title>Cut18&#45;&gt;PiR17</title>
<g id="a_edge50"><a xlink:title="rval39">
<path fill="none" stroke="red" d="M166.54,-625.35C181.3,-635.45 201.04,-650.35 216.03,-662.58"/>
<polygon fill="red" stroke="red" points="213.88,-665.34 223.8,-669.05 218.36,-659.96 213.88,-665.34"/>
</a>
</g>
</g>
<!-- PiR19 -->
<g id="node20" class="node">
<title>PiR19</title>
<ellipse fill="none" stroke="black" cx="146.35" cy="-540.8" rx="27" ry="18"/>
<text text-anchor="middle" x="146.35" y="-537.1" font-family="Times,serif" font-size="14.00">PiR</text>
</g>
<!-- PiR19&#45;&gt;Bang7 -->
<g id="edge14" class="edge">
<title>PiR19&#45;&gt;Bang7</title>
<g id="a_edge14"><a xlink:title="h34">
<path fill="none" stroke="blue" d="M130.23,-555.53C119.64,-565.41 106.32,-579.63 98.35,-594.8 75.66,-637.96 66.35,-694.7 62.65,-728.01"/>
<polygon fill="blue" stroke="blue" points="59.13,-728.06 61.6,-738.36 66.1,-728.76 59.13,-728.06"/>
</a>
</g>
</g>
<!-- PiR19&#45;&gt;Identity8 -->
<g id="edge46" class="edge">
<title>PiR19&#45;&gt;Identity8</title>
<g id="a_edge46"><a xlink:title="ret35">
<path fill="none" stroke="red" d="M132.6,-556.73C124.39,-566.7 114.73,-580.55 110.35,-594.8 96.24,-640.68 96.24,-656.92 110.35,-702.8 113.53,-713.16 119.52,-723.32 125.7,-731.92"/>
<polygon fill="red" stroke="red" points="123,-734.15 131.86,-739.96 128.55,-729.89 123,-734.15"/>
</a>
</g>
</g>
<!-- PiR19&#45;&gt;Cut18 -->
<g id="edge51" class="edge">
<title>PiR19&#45;&gt;Cut18</title>
<g id="a_edge51"><a xlink:title="seq33">
<path fill="none" stroke="black" d="M146.35,-559.1C146.35,-566.81 146.35,-576.08 146.35,-584.68"/>
<polygon fill="black" stroke="black" points="142.85,-584.69 146.35,-594.69 149.85,-584.69 142.85,-584.69"/>
</a>
</g>
</g>
<!-- Identity20 -->
<g id="node21" class="node">
<title>Identity20</title>
<ellipse fill="none" stroke="black" cx="241.35" cy="-468.8" rx="38.19" ry="18"/>
<text text-anchor="middle" x="241.35" y="-465.1" font-family="Times,serif" font-size="14.00">Identity</text>
</g>
<!-- BangD21 -->
<g id="node22" class="node">
<title>BangD21</title>
<ellipse fill="none" stroke="black" cx="241.35" cy="-396.8" rx="36" ry="18"/>
<text text-anchor="middle" x="241.35" y="-393.1" font-family="Times,serif" font-size="14.00">BangD</text>
</g>
<!-- BangD21&#45;&gt;Identity20 -->
<g id="edge57" class="edge">
<title>BangD21&#45;&gt;Identity20</title>
<g id="a_edge57"><a xlink:title="xret26">
<path fill="none" stroke="blue" d="M235.47,-414.74C234.64,-422.57 234.4,-432.05 234.76,-440.82"/>
<polygon fill="blue" stroke="blue" points="231.28,-441.28 235.49,-451.01 238.26,-440.78 231.28,-441.28"/>
</a>
</g>
</g>
<!-- BangD21&#45;&gt;Identity20 -->
<g id="edge59" class="edge">
<title>BangD21&#45;&gt;Identity20</title>
<g id="a_edge59"><a xlink:title="xseq25">
<path fill="none" stroke="black" d="M247.22,-414.74C248.06,-422.57 248.29,-432.05 247.94,-440.82"/>
<polygon fill="black" stroke="black" points="244.43,-440.78 247.21,-451.01 251.41,-441.28 244.43,-440.78"/>
</a>
</g>
</g>
<!-- Identity22 -->
<g id="node23" class="node">
<title>Identity22</title>
<ellipse fill="none" stroke="black" cx="244.35" cy="-234" rx="38.19" ry="18"/>
<text text-anchor="middle" x="244.35" y="-230.3" font-family="Times,serif" font-size="14.00">Identity</text>
</g>
<!-- PiL23 -->
<g id="node24" class="node">
<title>PiL23</title>
<ellipse fill="none" stroke="black" cx="158.35" cy="-162" rx="27" ry="18"/>
<text text-anchor="middle" x="158.35" y="-158.3" font-family="Times,serif" font-size="14.00">PiL</text>
</g>
<!-- PiL23&#45;&gt;Identity22 -->
<g id="edge18" class="edge">
<title>PiL23&#45;&gt;Identity22</title>
<g id="a_edge18"><a xlink:title="idseq21">
<path fill="none" stroke="black" d="M178.9,-184.87C189.38,-193.92 202.24,-204.34 213.82,-213.16"/>
<polygon fill="black" stroke="black" points="173.64,-175.56 178.83,-184.8 169.01,-180.81 173.64,-175.56"/>
<polygon fill="black" stroke="black" points="211.88,-216.08 221.98,-219.26 216.07,-210.47 211.88,-216.08"/>
</a>
</g>
</g>
<!-- PiL23&#45;&gt;Identity22 -->
<g id="edge24" class="edge">
<title>PiL23&#45;&gt;Identity22</title>
<g id="a_edge24"><a xlink:title="lret19">
<path fill="none" stroke="blue" d="M177.71,-174.56C191.17,-184.23 208.89,-198.33 222.77,-210.25"/>
<polygon fill="blue" stroke="blue" points="220.6,-213.01 230.43,-216.97 225.22,-207.75 220.6,-213.01"/>
</a>
</g>
</g>
<!-- Bang30 -->
<g id="node31" class="node">
<title>Bang30</title>
<ellipse fill="none" stroke="black" cx="158.35" cy="-234" rx="29.5" ry="18"/>
<text text-anchor="middle" x="158.35" y="-230.3" font-family="Times,serif" font-size="14.00">Bang</text>
</g>
<!-- PiL23&#45;&gt;Bang30 -->
<g id="edge10" class="edge">
<title>PiL23&#45;&gt;Bang30</title>
<g id="a_edge10"><a xlink:title="dseq20">
<path fill="none" stroke="black" d="M152.51,-179.59C151.64,-187.49 151.39,-197.15 151.76,-206.06"/>
<polygon fill="black" stroke="black" points="148.27,-206.32 152.47,-216.04 155.25,-205.82 148.27,-206.32"/>
</a>
</g>
</g>
<!-- PiL23&#45;&gt;Bang30 -->
<g id="edge34" class="edge">
<title>PiL23&#45;&gt;Bang30</title>
<g id="a_edge34"><a xlink:title="newrret18">
<path fill="none" stroke="red" d="M164.19,-179.59C165.05,-187.49 165.3,-197.15 164.93,-206.06"/>
<polygon fill="red" stroke="red" points="161.44,-205.82 164.23,-216.04 168.43,-206.32 161.44,-205.82"/>
</a>
</g>
</g>
<!-- Assign24 -->
<g id="node25" class="node">
<title>Assign24</title>
<ellipse fill="none" stroke="black" cx="158.35" cy="-18" rx="35.19" ry="18"/>
<text text-anchor="middle" x="158.35" y="-14.3" font-family="Times,serif" font-size="14.00">Assign</text>
</g>
<!-- Assign24&#45;&gt;Identity22 -->
<g id="edge48" class="edge">
<title>Assign24&#45;&gt;Identity22</title>
<g id="a_edge48"><a xlink:title="ret8">
<path fill="none" stroke="red" d="M171.02,-34.95C178.6,-45.09 187.97,-58.77 194.35,-72 215.91,-116.78 230.87,-172.99 238.49,-205.76"/>
<polygon fill="red" stroke="red" points="235.17,-206.95 240.8,-215.93 242,-205.4 235.17,-206.95"/>
</a>
</g>
</g>
<!-- Cut27 -->
<g id="node28" class="node">
<title>Cut27</title>
<ellipse fill="none" stroke="black" cx="158.35" cy="-90" rx="27" ry="18"/>
<text text-anchor="middle" x="158.35" y="-86.3" font-family="Times,serif" font-size="14.00">Cut</text>
</g>
<!-- Assign24&#45;&gt;Cut27 -->
<g id="edge55" class="edge">
<title>Assign24&#45;&gt;Cut27</title>
<g id="a_edge55"><a xlink:title="seqBC94">
<path fill="none" stroke="black" d="M158.35,-36.3C158.35,-44.02 158.35,-53.29 158.35,-61.89"/>
<polygon fill="black" stroke="black" points="154.85,-61.9 158.35,-71.9 161.85,-61.9 154.85,-61.9"/>
</a>
</g>
</g>
<!-- Dup25 -->
<g id="node26" class="node">
<title>Dup25</title>
<ellipse fill="none" stroke="black" cx="146.35" cy="-468.8" rx="27" ry="18"/>
<text text-anchor="middle" x="146.35" y="-465.1" font-family="Times,serif" font-size="14.00">Dup</text>
</g>
<!-- Dup25&#45;&gt;PiR19 -->
<g id="edge2" class="edge">
<title>Dup25&#45;&gt;PiR19</title>
<g id="a_edge2"><a xlink:title="c_bseq32">
<path fill="none" stroke="black" d="M146.35,-487.1C146.35,-494.81 146.35,-504.08 146.35,-512.68"/>
<polygon fill="black" stroke="black" points="142.85,-512.69 146.35,-522.69 149.85,-512.69 142.85,-512.69"/>
</a>
</g>
</g>
<!-- Dup26 -->
<g id="node27" class="node">
<title>Dup26</title>
<ellipse fill="none" stroke="black" cx="74.35" cy="-468.8" rx="27" ry="18"/>
<text text-anchor="middle" x="74.35" y="-465.1" font-family="Times,serif" font-size="14.00">Dup</text>
</g>
<!-- Dup26&#45;&gt;PiR19 -->
<g id="edge40" class="edge">
<title>Dup26&#45;&gt;PiR19</title>
<g id="a_edge40"><a xlink:title="newrretf31">
<path fill="none" stroke="red" d="M88.92,-483.96C99.1,-493.86 112.87,-507.25 124.38,-518.44"/>
<polygon fill="red" stroke="red" points="121.94,-520.95 131.55,-525.41 126.82,-515.93 121.94,-520.95"/>
</a>
</g>
</g>
<!-- Cut27&#45;&gt;PiL23 -->
<g id="edge28" class="edge">
<title>Cut27&#45;&gt;PiL23</title>
<g id="a_edge28"><a xlink:title="lval14">
<path fill="none" stroke="blue" d="M152.51,-107.59C151.64,-115.49 151.39,-125.15 151.76,-134.06"/>
<polygon fill="blue" stroke="blue" points="148.27,-134.32 152.47,-144.04 155.25,-133.82 148.27,-134.32"/>
</a>
</g>
</g>
<!-- Cut27&#45;&gt;PiL23 -->
<g id="edge58" class="edge">
<title>Cut27&#45;&gt;PiL23</title>
<g id="a_edge58"><a xlink:title="xseq16">
<path fill="none" stroke="black" d="M164.93,-117.81C165.15,-123.05 165.15,-128.54 164.95,-133.78"/>
<polygon fill="black" stroke="black" points="167.68,-107.34 164.91,-117.56 160.7,-107.84 167.68,-107.34"/>
<polygon fill="black" stroke="black" points="161.43,-133.82 164.23,-144.04 168.42,-134.31 161.43,-133.82"/>
</a>
</g>
</g>
<!-- Cut27&#45;&gt;Dup25 -->
<g id="edge6" class="edge">
<title>Cut27&#45;&gt;Dup25</title>
<g id="a_edge6"><a xlink:title="c_bseq86">
<path fill="none" stroke="black" d="M145.7,-106.34C137.93,-116.47 128.35,-130.36 122.35,-144 105.99,-181.21 101.35,-192.36 101.35,-233 101.35,-233 101.35,-233 101.35,-316.4 101.35,-360.94 106.19,-372.56 120.35,-414.8 123.47,-424.12 127.9,-433.89 132.22,-442.47"/>
<polygon fill="black" stroke="black" points="129.25,-444.33 136.98,-451.57 135.45,-441.08 129.25,-444.33"/>
</a>
</g>
</g>
<!-- Cut27&#45;&gt;Dup26 -->
<g id="edge44" class="edge">
<title>Cut27&#45;&gt;Dup26</title>
<g id="a_edge44"><a xlink:title="newrretf87">
<path fill="none" stroke="red" d="M141.36,-104.3C114.04,-127.33 63.35,-177.53 63.35,-233 63.35,-233 63.35,-233 63.35,-316.4 63.35,-359.82 67.9,-410.06 71.15,-440.36"/>
<polygon fill="red" stroke="red" points="67.7,-441.01 72.28,-450.57 74.66,-440.25 67.7,-441.01"/>
</a>
</g>
</g>
<!-- Bang28 -->
<g id="node29" class="node">
<title>Bang28</title>
<ellipse fill="none" stroke="black" cx="158.35" cy="-396.8" rx="29.5" ry="18"/>
<text text-anchor="middle" x="158.35" y="-393.1" font-family="Times,serif" font-size="14.00">Bang</text>
</g>
<!-- Bang28&#45;&gt;Dup25 -->
<g id="edge7" class="edge">
<title>Bang28&#45;&gt;Dup25</title>
<g id="a_edge7"><a xlink:title="c_bseq90">
<path fill="none" stroke="black" d="M155.44,-414.74C154.12,-422.45 152.52,-431.77 151.04,-440.43"/>
<polygon fill="none" stroke="black" points="147.55,-440.07 149.31,-450.52 154.45,-441.26 147.55,-440.07"/>
</a>
</g>
</g>
<!-- Bang28&#45;&gt;Dup26 -->
<g id="edge45" class="edge">
<title>Bang28&#45;&gt;Dup26</title>
<g id="a_edge45"><a xlink:title="newrretf91">
<path fill="none" stroke="red" d="M141.75,-411.63C129.36,-421.95 112.25,-436.21 98.36,-447.78"/>
<polygon fill="none" stroke="red" points="96.06,-445.14 90.62,-454.23 100.54,-450.52 96.06,-445.14"/>
</a>
</g>
</g>
<!-- Cut29 -->
<g id="node30" class="node">
<title>Cut29</title>
<ellipse fill="none" stroke="black" cx="158.35" cy="-315.4" rx="23.31" ry="23.31"/>
<ellipse fill="none" stroke="black" cx="158.35" cy="-315.4" rx="27.3" ry="27.3"/>
<text text-anchor="middle" x="158.35" y="-311.7" font-family="Times,serif" font-size="14.00">Cut</text>
</g>
<!-- Cut29&#45;&gt;BangD21 -->
<g id="edge1" class="edge">
<title>Cut29&#45;&gt;BangD21</title>
<g id="a_edge1"><a xlink:title="c_bseq24">
<path fill="none" stroke="black" d="M181.56,-344.82C191.54,-354.81 203.23,-365.83 213.66,-375.06"/>
<polygon fill="black" stroke="black" points="177.03,-335.22 181.54,-344.81 172.04,-340.13 177.03,-335.22"/>
<polygon fill="black" stroke="black" points="211.49,-377.82 221.34,-381.73 216.08,-372.53 211.49,-377.82"/>
</a>
</g>
</g>
<!-- Cut29&#45;&gt;BangD21 -->
<g id="edge56" class="edge">
<title>Cut29&#45;&gt;BangD21</title>
<g id="a_edge56"><a xlink:title="xBf22">
<path fill="none" stroke="blue" stroke-width="2" d="M180.25,-332.08C193.63,-343.57 210.36,-359.35 223.04,-372.33"/>
<polygon fill="blue" stroke="blue" stroke-width="2" points="220.54,-374.78 229.98,-379.6 225.6,-369.95 220.54,-374.78"/>
</a>
</g>
</g>
<!-- Cut29&#45;&gt;Bang28 -->
<g id="edge33" class="edge">
<title>Cut29&#45;&gt;Bang28</title>
<g id="a_edge33"><a xlink:title="newcut_rseq99">
<path fill="none" stroke="black" d="M151.97,-342.4C151.5,-350.79 151.47,-360.12 151.9,-368.6"/>
<polygon fill="black" stroke="black" points="148.43,-369.05 152.69,-378.75 155.41,-368.51 148.43,-369.05"/>
</a>
</g>
</g>
<!-- Cut29&#45;&gt;Bang28 -->
<g id="edge38" class="edge">
<title>Cut29&#45;&gt;Bang28</title>
<g id="a_edge38"><a xlink:title="newrret93">
<path fill="none" stroke="red" d="M164.73,-342.4C165.2,-350.79 165.22,-360.12 164.79,-368.6"/>
<polygon fill="red" stroke="red" points="161.29,-368.51 164.01,-378.75 168.27,-369.05 161.29,-368.51"/>
</a>
</g>
</g>
<!-- Bang30&#45;&gt;Identity20 -->
<g id="edge39" class="edge">
<title>Bang30&#45;&gt;Identity20</title>
<g id="a_edge39"><a xlink:title="newrretf23">
<path fill="none" stroke="red" d="M176.86,-248.34C206.68,-271.11 264.23,-320.7 286.35,-378.8 292.04,-393.75 291.86,-399.78 286.35,-414.8 282.2,-426.07 274.48,-436.59 266.59,-445.24"/>
<polygon fill="red" stroke="red" points="263.86,-443.02 259.39,-452.62 268.88,-447.91 263.86,-443.02"/>
</a>
</g>
</g>
<!-- Bang30&#45;&gt;Cut29 -->
<g id="edge32" class="edge">
<title>Bang30&#45;&gt;Cut29</title>
<g id="a_edge32"><a xlink:title="newcut_bseq100">
<path fill="none" stroke="black" d="M158.35,-252.23C158.35,-259.7 158.35,-268.76 158.35,-277.62"/>
<polygon fill="black" stroke="black" points="154.85,-277.83 158.35,-287.83 161.85,-277.83 154.85,-277.83"/>
</a>
</g>
</g>
</g>
</svg>
