<?xml version="1.0" encoding="UTF-8" standalone="no"?>
<!DOCTYPE svg PUBLIC "-//W3C//DTD SVG 1.1//EN"
 "http://www.w3.org/Graphics/SVG/1.1/DTD/svg11.dtd">
<!-- Generated by graphviz version 2.49.3 (0)
 -->
<!-- Pages: 1 -->
<svg width="411pt" height="1292pt"
 viewBox="0.00 0.00 411.00 1292.00" xmlns="http://www.w3.org/2000/svg" xmlns:xlink="http://www.w3.org/1999/xlink">
<g id="graph0" class="graph" transform="scale(1 1) rotate(0) translate(4 1288)">
<polygon fill="white" stroke="transparent" points="-4,4 -4,-1288 407,-1288 407,4 -4,4"/>
<!-- Identity0 -->
<g id="node1" class="node">
<title>Identity0</title>
<ellipse fill="none" stroke="black" cx="304" cy="-1266" rx="38.19" ry="18"/>
<text text-anchor="middle" x="304" y="-1262.3" font-family="Times,serif" font-size="14.00">Identity</text>
</g>
<!-- BangD1 -->
<g id="node2" class="node">
<title>BangD1</title>
<ellipse fill="none" stroke="black" cx="304" cy="-1194" rx="36" ry="18"/>
<text text-anchor="middle" x="304" y="-1190.3" font-family="Times,serif" font-size="14.00">BangD</text>
</g>
<!-- BangD1&#45;&gt;Identity0 -->
<g id="edge24" class="edge">
<title>BangD1&#45;&gt;Identity0</title>
<g id="a_edge24"><a xlink:title="iret84">
<path fill="none" stroke="blue" d="M298.12,-1211.94C297.29,-1219.76 297.05,-1229.25 297.41,-1238.02"/>
<polygon fill="blue" stroke="blue" points="293.93,-1238.48 298.14,-1248.21 300.92,-1237.98 293.93,-1238.48"/>
</a>
</g>
</g>
<!-- BangD1&#45;&gt;Identity0 -->
<g id="edge25" class="edge">
<title>BangD1&#45;&gt;Identity0</title>
<g id="a_edge25"><a xlink:title="iseq83">
<path fill="none" stroke="black" d="M309.88,-1211.94C310.71,-1219.76 310.95,-1229.25 310.59,-1238.02"/>
<polygon fill="black" stroke="black" points="307.08,-1237.98 309.86,-1248.21 314.07,-1238.48 307.08,-1237.98"/>
</a>
</g>
</g>
<!-- PiR2 -->
<g id="node3" class="node">
<title>PiR2</title>
<ellipse fill="none" stroke="black" cx="304" cy="-1122" rx="27" ry="18"/>
<text text-anchor="middle" x="304" y="-1118.3" font-family="Times,serif" font-size="14.00">PiR</text>
</g>
<!-- PiR2&#45;&gt;Identity0 -->
<g id="edge48" class="edge">
<title>PiR2&#45;&gt;Identity0</title>
<g id="a_edge48"><a xlink:title="ret82">
<path fill="none" stroke="red" d="M320.21,-1136.43C330.63,-1146.18 343.26,-1160.36 349,-1176 354.52,-1191.01 354.52,-1196.98 349,-1212 344.86,-1223.27 337.13,-1233.79 329.24,-1242.44"/>
<polygon fill="red" stroke="red" points="326.52,-1240.22 322.04,-1249.82 331.53,-1245.11 326.52,-1240.22"/>
</a>
</g>
</g>
<!-- PiR2&#45;&gt;BangD1 -->
<g id="edge19" class="edge">
<title>PiR2&#45;&gt;BangD1</title>
<g id="a_edge19"><a xlink:title="i81">
<path fill="none" stroke="blue" d="M298.16,-1139.58C297.3,-1147.49 297.05,-1157.14 297.41,-1166.06"/>
<polygon fill="blue" stroke="blue" points="293.92,-1166.31 298.12,-1176.04 300.9,-1165.82 293.92,-1166.31"/>
</a>
</g>
</g>
<!-- PiR2&#45;&gt;BangD1 -->
<g id="edge52" class="edge">
<title>PiR2&#45;&gt;BangD1</title>
<g id="a_edge52"><a xlink:title="seq80">
<path fill="none" stroke="black" d="M309.84,-1139.58C310.7,-1147.49 310.95,-1157.14 310.59,-1166.06"/>
<polygon fill="black" stroke="black" points="307.1,-1165.82 309.88,-1176.04 314.08,-1166.31 307.1,-1165.82"/>
</a>
</g>
</g>
<!-- Bang3 -->
<g id="node4" class="node">
<title>Bang3</title>
<ellipse fill="none" stroke="black" cx="304" cy="-1050" rx="29.5" ry="18"/>
<text text-anchor="middle" x="304" y="-1046.3" font-family="Times,serif" font-size="14.00">Bang</text>
</g>
<!-- Bang3&#45;&gt;PiR2 -->
<g id="edge2" class="edge">
<title>Bang3&#45;&gt;PiR2</title>
<g id="a_edge2"><a xlink:title="c_bseq79">
<path fill="none" stroke="black" d="M298.12,-1067.94C297.29,-1075.76 297.05,-1085.25 297.41,-1094.02"/>
<polygon fill="black" stroke="black" points="293.93,-1094.48 298.14,-1104.21 300.92,-1093.98 293.93,-1094.48"/>
</a>
</g>
</g>
<!-- Bang3&#45;&gt;PiR2 -->
<g id="edge43" class="edge">
<title>Bang3&#45;&gt;PiR2</title>
<g id="a_edge43"><a xlink:title="newrretf78">
<path fill="none" stroke="red" d="M309.88,-1067.94C310.71,-1075.76 310.95,-1085.25 310.59,-1094.02"/>
<polygon fill="red" stroke="red" points="307.08,-1093.98 309.86,-1104.21 314.07,-1094.48 307.08,-1093.98"/>
</a>
</g>
</g>
<!-- Identity4 -->
<g id="node5" class="node">
<title>Identity4</title>
<ellipse fill="none" stroke="black" cx="160" cy="-1050" rx="38.19" ry="18"/>
<text text-anchor="middle" x="160" y="-1046.3" font-family="Times,serif" font-size="14.00">Identity</text>
</g>
<!-- Identity5 -->
<g id="node6" class="node">
<title>Identity5</title>
<ellipse fill="none" stroke="black" cx="131" cy="-594" rx="38.19" ry="18"/>
<text text-anchor="middle" x="131" y="-590.3" font-family="Times,serif" font-size="14.00">Identity</text>
</g>
<!-- PiL6 -->
<g id="node7" class="node">
<title>PiL6</title>
<ellipse fill="none" stroke="black" cx="162" cy="-522" rx="27" ry="18"/>
<text text-anchor="middle" x="162" y="-518.3" font-family="Times,serif" font-size="14.00">PiL</text>
</g>
<!-- PiL6&#45;&gt;Identity5 -->
<g id="edge22" class="edge">
<title>PiL6&#45;&gt;Identity5</title>
<g id="a_edge22"><a xlink:title="idseq55">
<path fill="none" stroke="black" d="M144.86,-547.14C141.76,-553.35 138.74,-560.06 136.21,-566.38"/>
<polygon fill="black" stroke="black" points="152.69,-539.83 144.92,-547.03 146.5,-536.55 152.69,-539.83"/>
<polygon fill="black" stroke="black" points="132.89,-565.28 132.69,-575.87 139.45,-567.72 132.89,-565.28"/>
</a>
</g>
</g>
<!-- PiL6&#45;&gt;Identity5 -->
<g id="edge28" class="edge">
<title>PiL6&#45;&gt;Identity5</title>
<g id="a_edge28"><a xlink:title="lret53">
<path fill="none" stroke="blue" d="M160.25,-540.3C157.44,-548.6 153.16,-558.69 148.66,-567.81"/>
<polygon fill="blue" stroke="blue" points="145.47,-566.37 143.94,-576.86 151.67,-569.61 145.47,-566.37"/>
</a>
</g>
</g>
<!-- Bang12 -->
<g id="node13" class="node">
<title>Bang12</title>
<ellipse fill="none" stroke="black" cx="217" cy="-594" rx="29.5" ry="18"/>
<text text-anchor="middle" x="217" y="-590.3" font-family="Times,serif" font-size="14.00">Bang</text>
</g>
<!-- PiL6&#45;&gt;Bang12 -->
<g id="edge6" class="edge">
<title>PiL6&#45;&gt;Bang12</title>
<g id="a_edge6"><a xlink:title="dseq54">
<path fill="none" stroke="black" d="M169.19,-539.59C175.58,-549.03 184.81,-560.97 193.54,-571.17"/>
<polygon fill="black" stroke="black" points="191.13,-573.72 200.37,-578.89 196.37,-569.08 191.13,-573.72"/>
</a>
</g>
</g>
<!-- PiL6&#45;&gt;Bang12 -->
<g id="edge38" class="edge">
<title>PiL6&#45;&gt;Bang12</title>
<g id="a_edge38"><a xlink:title="newrret52">
<path fill="none" stroke="red" d="M178.06,-536.5C186.35,-545.46 196.16,-557.5 203.98,-568.16"/>
<polygon fill="red" stroke="red" points="201.12,-570.19 209.75,-576.33 206.84,-566.15 201.12,-570.19"/>
</a>
</g>
</g>
<!-- Assign7 -->
<g id="node8" class="node">
<title>Assign7</title>
<ellipse fill="none" stroke="black" cx="80" cy="-18" rx="35.19" ry="18"/>
<text text-anchor="middle" x="80" y="-14.3" font-family="Times,serif" font-size="14.00">Assign</text>
</g>
<!-- Dup16 -->
<g id="node17" class="node">
<title>Dup16</title>
<ellipse fill="none" stroke="black" cx="27" cy="-306" rx="27" ry="18"/>
<text text-anchor="middle" x="27" y="-302.3" font-family="Times,serif" font-size="14.00">Dup</text>
</g>
<!-- Assign7&#45;&gt;Dup16 -->
<g id="edge45" class="edge">
<title>Assign7&#45;&gt;Dup16</title>
<g id="a_edge45"><a xlink:title="ret133">
<path fill="none" stroke="red" d="M65.87,-34.95C57.96,-44.89 48.75,-58.34 44,-72 19.26,-143.13 21.46,-233.66 24.54,-278.02"/>
<polygon fill="red" stroke="red" points="21.06,-278.32 25.31,-288.02 28.03,-277.78 21.06,-278.32"/>
</a>
</g>
</g>
<!-- Cut17 -->
<g id="node18" class="node">
<title>Cut17</title>
<ellipse fill="none" stroke="black" cx="80" cy="-90" rx="27" ry="18"/>
<text text-anchor="middle" x="80" y="-86.3" font-family="Times,serif" font-size="14.00">Cut</text>
</g>
<!-- Assign7&#45;&gt;Cut17 -->
<g id="edge54" class="edge">
<title>Assign7&#45;&gt;Cut17</title>
<g id="a_edge54"><a xlink:title="seqBC94">
<path fill="none" stroke="black" d="M80,-36.3C80,-44.02 80,-53.29 80,-61.89"/>
<polygon fill="black" stroke="black" points="76.5,-61.9 80,-71.9 83.5,-61.9 76.5,-61.9"/>
</a>
</g>
</g>
<!-- Bang8 -->
<g id="node9" class="node">
<title>Bang8</title>
<ellipse fill="none" stroke="black" cx="80" cy="-162" rx="29.5" ry="18"/>
<text text-anchor="middle" x="80" y="-158.3" font-family="Times,serif" font-size="14.00">Bang</text>
</g>
<!-- PiR13 -->
<g id="node14" class="node">
<title>PiR13</title>
<ellipse fill="none" stroke="black" cx="80" cy="-234" rx="27" ry="18"/>
<text text-anchor="middle" x="80" y="-230.3" font-family="Times,serif" font-size="14.00">PiR</text>
</g>
<!-- Bang8&#45;&gt;PiR13 -->
<g id="edge33" class="edge">
<title>Bang8&#45;&gt;PiR13</title>
<g id="a_edge33"><a xlink:title="newcut_bseq100">
<path fill="none" stroke="black" d="M74.12,-179.95C73.29,-187.77 73.05,-197.25 73.41,-206.02"/>
<polygon fill="black" stroke="black" points="69.93,-206.49 74.14,-216.21 76.92,-205.99 69.93,-206.49"/>
</a>
</g>
</g>
<!-- Bang8&#45;&gt;PiR13 -->
<g id="edge44" class="edge">
<title>Bang8&#45;&gt;PiR13</title>
<g id="a_edge44"><a xlink:title="newrretf91">
<path fill="none" stroke="red" d="M85.88,-179.95C86.71,-187.77 86.95,-197.25 86.59,-206.02"/>
<polygon fill="red" stroke="red" points="83.08,-205.99 85.86,-216.21 90.07,-206.49 83.08,-205.99"/>
</a>
</g>
</g>
<!-- Dup9 -->
<g id="node10" class="node">
<title>Dup9</title>
<ellipse fill="none" stroke="black" cx="105" cy="-666" rx="27" ry="18"/>
<text text-anchor="middle" x="105" y="-662.3" font-family="Times,serif" font-size="14.00">Dup</text>
</g>
<!-- Dup9&#45;&gt;Identity4 -->
<g id="edge42" class="edge">
<title>Dup9&#45;&gt;Identity4</title>
<g id="a_edge42"><a xlink:title="newrretf66">
<path fill="none" stroke="red" d="M105,-684.45C105,-714.69 105,-778.82 105,-833 105,-833 105,-833 105,-907 105,-947.44 108.12,-958.8 124,-996 128.26,-1005.97 134.49,-1016.03 140.59,-1024.67"/>
<polygon fill="red" stroke="red" points="137.8,-1026.8 146.55,-1032.78 143.44,-1022.65 137.8,-1026.8"/>
</a>
</g>
</g>
<!-- BangC10 -->
<g id="node11" class="node">
<title>BangC10</title>
<ellipse fill="none" stroke="black" cx="171" cy="-378" rx="35.19" ry="18"/>
<text text-anchor="middle" x="171" y="-374.3" font-family="Times,serif" font-size="14.00">BangC</text>
</g>
<!-- Cut11 -->
<g id="node12" class="node">
<title>Cut11</title>
<ellipse fill="none" stroke="black" cx="162" cy="-450" rx="27" ry="18"/>
<text text-anchor="middle" x="162" y="-446.3" font-family="Times,serif" font-size="14.00">Cut</text>
</g>
<!-- BangC10&#45;&gt;Cut11 -->
<g id="edge53" class="edge">
<title>BangC10&#45;&gt;Cut11</title>
<g id="a_edge53"><a xlink:title="seqBC118">
<path fill="none" stroke="black" d="M168.78,-396.3C167.78,-404.02 166.59,-413.29 165.49,-421.89"/>
<polygon fill="black" stroke="black" points="162,-421.53 164.2,-431.9 168.95,-422.42 162,-421.53"/>
</a>
</g>
</g>
<!-- BangC10&#45;&gt;Bang12 -->
<g id="edge8" class="edge">
<title>BangC10&#45;&gt;Bang12</title>
<g id="a_edge8"><a xlink:title="h116">
<path fill="none" stroke="blue" d="M186.31,-404.53C190.75,-413 195.17,-422.67 198,-432 211.79,-477.5 215.65,-533.04 216.69,-565.57"/>
<polygon fill="blue" stroke="blue" points="184.42,-393.85 186.18,-404.3 178.29,-397.23 184.42,-393.85"/>
<polygon fill="blue" stroke="blue" points="213.19,-565.76 216.94,-575.67 220.19,-565.59 213.19,-565.76"/>
</a>
</g>
</g>
<!-- BangD18 -->
<g id="node19" class="node">
<title>BangD18</title>
<ellipse fill="none" stroke="black" cx="281" cy="-522" rx="36" ry="18"/>
<text text-anchor="middle" x="281" y="-518.3" font-family="Times,serif" font-size="14.00">BangD</text>
</g>
<!-- BangC10&#45;&gt;BangD18 -->
<g id="edge12" class="edge">
<title>BangC10&#45;&gt;BangD18</title>
<g id="a_edge12"><a xlink:title="hf107">
<path fill="none" stroke="blue" d="M190.08,-393.11C202.69,-403.05 219.03,-417.19 231,-432 246.74,-451.49 260.35,-476.59 269.37,-495.17"/>
<polygon fill="blue" stroke="blue" points="266.22,-496.68 273.66,-504.22 272.54,-493.68 266.22,-496.68"/>
</a>
</g>
</g>
<!-- Cut11&#45;&gt;PiL6 -->
<g id="edge32" class="edge">
<title>Cut11&#45;&gt;PiL6</title>
<g id="a_edge32"><a xlink:title="lval48">
<path fill="none" stroke="blue" d="M156.16,-467.59C155.3,-475.49 155.05,-485.15 155.41,-494.06"/>
<polygon fill="blue" stroke="blue" points="151.92,-494.32 156.12,-504.04 158.9,-493.82 151.92,-494.32"/>
</a>
</g>
</g>
<!-- Cut11&#45;&gt;PiL6 -->
<g id="edge55" class="edge">
<title>Cut11&#45;&gt;PiL6</title>
<g id="a_edge55"><a xlink:title="yseq50">
<path fill="none" stroke="black" d="M168.58,-477.81C168.8,-483.05 168.81,-488.54 168.6,-493.78"/>
<polygon fill="black" stroke="black" points="171.33,-467.34 168.57,-477.56 164.35,-467.84 171.33,-467.34"/>
<polygon fill="black" stroke="black" points="165.09,-493.82 167.88,-504.04 172.07,-494.31 165.09,-493.82"/>
</a>
</g>
</g>
<!-- Cut11&#45;&gt;Dup9 -->
<g id="edge40" class="edge">
<title>Cut11&#45;&gt;Dup9</title>
<g id="a_edge40"><a xlink:title="newrretf108">
<path fill="none" stroke="red" d="M148.64,-465.76C129.7,-487.81 96.02,-531.55 84,-576 78.23,-597.34 84.95,-621.79 92.28,-639.66"/>
<polygon fill="red" stroke="red" points="89.09,-641.11 96.33,-648.84 95.5,-638.28 89.09,-641.11"/>
</a>
</g>
</g>
<!-- Cut11&#45;&gt;BangD18 -->
<g id="edge1" class="edge">
<title>Cut11&#45;&gt;BangD18</title>
<g id="a_edge1"><a xlink:title="c_bseq106">
<path fill="none" stroke="black" d="M181.65,-462.56C200.13,-473.43 228.11,-489.89 249.68,-502.57"/>
<polygon fill="black" stroke="black" points="248.08,-505.7 258.48,-507.75 251.63,-499.66 248.08,-505.7"/>
</a>
</g>
</g>
<!-- Bang12&#45;&gt;Dup9 -->
<g id="edge41" class="edge">
<title>Bang12&#45;&gt;Dup9</title>
<g id="a_edge41"><a xlink:title="newrretf114">
<path fill="none" stroke="red" d="M197.23,-607.35C179.37,-618.52 152.89,-635.07 132.88,-647.58"/>
<polygon fill="none" stroke="red" points="130.82,-644.74 124.19,-653 134.53,-650.67 130.82,-644.74"/>
</a>
</g>
</g>
<!-- BangD19 -->
<g id="node20" class="node">
<title>BangD19</title>
<ellipse fill="none" stroke="black" cx="217" cy="-666" rx="36" ry="18"/>
<text text-anchor="middle" x="217" y="-662.3" font-family="Times,serif" font-size="14.00">BangD</text>
</g>
<!-- Bang12&#45;&gt;BangD19 -->
<g id="edge13" class="edge">
<title>Bang12&#45;&gt;BangD19</title>
<g id="a_edge13"><a xlink:title="hf113">
<path fill="none" stroke="blue" d="M211.12,-611.95C210.29,-619.77 210.05,-629.25 210.41,-638.02"/>
<polygon fill="blue" stroke="blue" points="206.93,-638.49 211.14,-648.21 213.92,-637.99 206.93,-638.49"/>
</a>
</g>
</g>
<!-- Bang12&#45;&gt;BangD19 -->
<g id="edge34" class="edge">
<title>Bang12&#45;&gt;BangD19</title>
<g id="a_edge34"><a xlink:title="newcut_bseq125">
<path fill="none" stroke="black" d="M222.88,-611.95C223.71,-619.77 223.95,-629.25 223.59,-638.02"/>
<polygon fill="black" stroke="black" points="220.08,-637.99 222.86,-648.21 227.07,-638.49 220.08,-637.99"/>
</a>
</g>
</g>
<!-- Dup14 -->
<g id="node15" class="node">
<title>Dup14</title>
<ellipse fill="none" stroke="black" cx="171" cy="-306" rx="27" ry="18"/>
<text text-anchor="middle" x="171" y="-302.3" font-family="Times,serif" font-size="14.00">Dup</text>
</g>
<!-- PiR13&#45;&gt;Dup14 -->
<g id="edge50" class="edge">
<title>PiR13&#45;&gt;Dup14</title>
<g id="a_edge50"><a xlink:title="seq135">
<path fill="none" stroke="black" d="M97.12,-248.17C110.84,-258.73 130.31,-273.7 145.82,-285.63"/>
<polygon fill="none" stroke="black" points="143.9,-288.57 153.96,-291.89 148.17,-283.02 143.9,-288.57"/>
</a>
</g>
</g>
<!-- Dup15 -->
<g id="node16" class="node">
<title>Dup15</title>
<ellipse fill="none" stroke="black" cx="99" cy="-306" rx="27" ry="18"/>
<text text-anchor="middle" x="99" y="-302.3" font-family="Times,serif" font-size="14.00">Dup</text>
</g>
<!-- PiR13&#45;&gt;Dup15 -->
<g id="edge10" class="edge">
<title>PiR13&#45;&gt;Dup15</title>
<g id="a_edge10"><a xlink:title="h136">
<path fill="none" stroke="blue" d="M84.6,-251.95C86.75,-259.86 89.35,-269.46 91.76,-278.31"/>
<polygon fill="none" stroke="blue" points="88.45,-279.48 94.44,-288.21 95.2,-277.64 88.45,-279.48"/>
</a>
</g>
</g>
<!-- PiR13&#45;&gt;Dup16 -->
<g id="edge46" class="edge">
<title>PiR13&#45;&gt;Dup16</title>
<g id="a_edge46"><a xlink:title="ret137">
<path fill="none" stroke="red" d="M68.24,-250.54C61.38,-259.6 52.58,-271.21 44.88,-281.39"/>
<polygon fill="none" stroke="red" points="41.98,-279.42 38.73,-289.51 47.56,-283.65 41.98,-279.42"/>
</a>
</g>
</g>
<!-- Dup14&#45;&gt;BangC10 -->
<g id="edge51" class="edge">
<title>Dup14&#45;&gt;BangC10</title>
<g id="a_edge51"><a xlink:title="seq33">
<path fill="none" stroke="black" d="M171,-324.3C171,-332.02 171,-341.29 171,-349.89"/>
<polygon fill="black" stroke="black" points="167.5,-349.9 171,-359.9 174.5,-349.9 167.5,-349.9"/>
</a>
</g>
</g>
<!-- Dup15&#45;&gt;BangC10 -->
<g id="edge11" class="edge">
<title>Dup15&#45;&gt;BangC10</title>
<g id="a_edge11"><a xlink:title="h34">
<path fill="none" stroke="blue" d="M113.57,-321.17C123.39,-330.71 136.54,-343.5 147.79,-354.43"/>
<polygon fill="blue" stroke="blue" points="145.59,-357.18 155.2,-361.64 150.47,-352.16 145.59,-357.18"/>
</a>
</g>
</g>
<!-- Dup16&#45;&gt;Identity5 -->
<g id="edge47" class="edge">
<title>Dup16&#45;&gt;Identity5</title>
<g id="a_edge47"><a xlink:title="ret42">
<path fill="none" stroke="red" d="M33.04,-323.61C50.34,-371.19 100.18,-508.24 121.33,-566.4"/>
<polygon fill="red" stroke="red" points="118.1,-567.78 124.81,-575.98 124.68,-565.39 118.1,-567.78"/>
</a>
</g>
</g>
<!-- Cut17&#45;&gt;Bang8 -->
<g id="edge5" class="edge">
<title>Cut17&#45;&gt;Bang8</title>
<g id="a_edge5"><a xlink:title="dseq20">
<path fill="none" stroke="black" d="M74.16,-107.59C73.3,-115.49 73.05,-125.15 73.41,-134.06"/>
<polygon fill="black" stroke="black" points="69.92,-134.32 74.12,-144.04 76.9,-133.82 69.92,-134.32"/>
</a>
</g>
</g>
<!-- Cut17&#45;&gt;Bang8 -->
<g id="edge37" class="edge">
<title>Cut17&#45;&gt;Bang8</title>
<g id="a_edge37"><a xlink:title="newrret18">
<path fill="none" stroke="red" d="M85.84,-107.59C86.7,-115.49 86.95,-125.15 86.59,-134.06"/>
<polygon fill="red" stroke="red" points="83.1,-133.82 85.88,-144.04 90.08,-134.32 83.1,-133.82"/>
</a>
</g>
</g>
<!-- Cut17&#45;&gt;Dup14 -->
<g id="edge49" class="edge">
<title>Cut17&#45;&gt;Dup14</title>
<g id="a_edge49"><a xlink:title="seq131">
<path fill="none" stroke="black" d="M106.13,-109.96C116.92,-119.09 128.61,-130.9 136,-144 159.99,-186.53 167.55,-243.93 169.92,-277.45"/>
<polygon fill="black" stroke="black" points="100.33,-100.8 105.93,-109.8 95.94,-106.25 100.33,-100.8"/>
<polygon fill="black" stroke="black" points="166.45,-278.08 170.54,-287.85 173.44,-277.66 166.45,-278.08"/>
</a>
</g>
</g>
<!-- Cut17&#45;&gt;Dup15 -->
<g id="edge9" class="edge">
<title>Cut17&#45;&gt;Dup15</title>
<g id="a_edge9"><a xlink:title="h132">
<path fill="none" stroke="blue" d="M94.11,-105.36C102.86,-115.3 113.29,-129.34 118,-144 132.69,-189.7 119.37,-245.96 108.85,-278.43"/>
<polygon fill="blue" stroke="blue" points="105.47,-277.5 105.57,-288.1 112.1,-279.75 105.47,-277.5"/>
</a>
</g>
</g>
<!-- Dup20 -->
<g id="node21" class="node">
<title>Dup20</title>
<ellipse fill="none" stroke="black" cx="268" cy="-750" rx="26" ry="26"/>
<ellipse fill="none" stroke="black" cx="268" cy="-750" rx="30" ry="30"/>
<text text-anchor="middle" x="268" y="-746.3" font-family="Times,serif" font-size="14.00">Dup</text>
</g>
<!-- BangD18&#45;&gt;Dup20 -->
<g id="edge14" class="edge">
<title>BangD18&#45;&gt;Dup20</title>
<g id="a_edge14"><a xlink:title="hseq140">
<path fill="none" stroke="black" d="M280,-540.36C277.93,-576.35 273.13,-659.9 270.26,-709.66"/>
<polygon fill="black" stroke="black" points="266.76,-709.55 269.68,-719.74 273.75,-709.96 266.76,-709.55"/>
</a>
</g>
</g>
<!-- PiL21 -->
<g id="node22" class="node">
<title>PiL21</title>
<ellipse fill="none" stroke="black" cx="304" cy="-906" rx="27" ry="18"/>
<text text-anchor="middle" x="304" y="-902.3" font-family="Times,serif" font-size="14.00">PiL</text>
</g>
<!-- BangD18&#45;&gt;PiL21 -->
<g id="edge30" class="edge">
<title>BangD18&#45;&gt;PiL21</title>
<g id="a_edge30"><a xlink:title="lval141">
<path fill="none" stroke="blue" d="M289.89,-539.51C303,-565.45 326,-617.67 326,-665 326,-665 326,-665 326,-751 326,-795.93 316.71,-847.51 310.2,-878.11"/>
<polygon fill="blue" stroke="blue" points="306.75,-877.5 308.04,-888.02 313.59,-879 306.75,-877.5"/>
</a>
</g>
</g>
<!-- BangD19&#45;&gt;Dup20 -->
<g id="edge15" class="edge">
<title>BangD19&#45;&gt;Dup20</title>
<g id="a_edge15"><a xlink:title="hseq143">
<path fill="none" stroke="black" d="M227.32,-683.59C233.02,-692.75 240.3,-704.46 247.13,-715.44"/>
<polygon fill="none" stroke="black" points="244.21,-717.38 252.46,-724.02 250.16,-713.68 244.21,-717.38"/>
</a>
</g>
</g>
<!-- PiL22 -->
<g id="node23" class="node">
<title>PiL22</title>
<ellipse fill="none" stroke="black" cx="232" cy="-906" rx="27" ry="18"/>
<text text-anchor="middle" x="232" y="-902.3" font-family="Times,serif" font-size="14.00">PiL</text>
</g>
<!-- BangD19&#45;&gt;PiL22 -->
<g id="edge31" class="edge">
<title>BangD19&#45;&gt;PiL22</title>
<g id="a_edge31"><a xlink:title="lval144">
<path fill="none" stroke="blue" d="M218.08,-684.12C220.65,-724.93 227.16,-828.23 230.28,-877.73"/>
<polygon fill="blue" stroke="blue" points="226.79,-877.95 230.91,-887.71 233.77,-877.51 226.79,-877.95"/>
</a>
</g>
</g>
<!-- DupI27 -->
<g id="node28" class="node">
<title>DupI27</title>
<ellipse fill="none" stroke="black" cx="268" cy="-834" rx="28.7" ry="18"/>
<text text-anchor="middle" x="268" y="-830.3" font-family="Times,serif" font-size="14.00">DupI</text>
</g>
<!-- Dup20&#45;&gt;DupI27 -->
<g id="edge18" class="edge">
<title>Dup20&#45;&gt;DupI27</title>
<g id="a_edge18"><a xlink:title="hseq72">
<path fill="none" stroke="black" stroke-width="2" d="M268,-780.14C268,-788.46 268,-797.49 268,-805.7"/>
<polygon fill="black" stroke="black" stroke-width="2" points="264.5,-805.88 268,-815.88 271.5,-805.88 264.5,-805.88"/>
</a>
</g>
</g>
<!-- Dup23 -->
<g id="node24" class="node">
<title>Dup23</title>
<ellipse fill="none" stroke="black" cx="304" cy="-978" rx="27" ry="18"/>
<text text-anchor="middle" x="304" y="-974.3" font-family="Times,serif" font-size="14.00">Dup</text>
</g>
<!-- PiL21&#45;&gt;Dup23 -->
<g id="edge3" class="edge">
<title>PiL21&#45;&gt;Dup23</title>
<g id="a_edge3"><a xlink:title="dseq146">
<path fill="none" stroke="black" d="M304,-924.3C304,-932.01 304,-941.28 304,-949.88"/>
<polygon fill="black" stroke="black" points="300.5,-949.89 304,-959.89 307.5,-949.89 300.5,-949.89"/>
</a>
</g>
</g>
<!-- Dup24 -->
<g id="node25" class="node">
<title>Dup24</title>
<ellipse fill="none" stroke="black" cx="376" cy="-978" rx="27" ry="18"/>
<text text-anchor="middle" x="376" y="-974.3" font-family="Times,serif" font-size="14.00">Dup</text>
</g>
<!-- PiL21&#45;&gt;Dup24 -->
<g id="edge35" class="edge">
<title>PiL21&#45;&gt;Dup24</title>
<g id="a_edge35"><a xlink:title="newrret147">
<path fill="none" stroke="red" d="M318.57,-921.16C328.75,-931.06 342.52,-944.45 354.03,-955.64"/>
<polygon fill="red" stroke="red" points="351.59,-958.15 361.2,-962.61 356.47,-953.13 351.59,-958.15"/>
</a>
</g>
</g>
<!-- Dup25 -->
<g id="node26" class="node">
<title>Dup25</title>
<ellipse fill="none" stroke="black" cx="160" cy="-978" rx="27" ry="18"/>
<text text-anchor="middle" x="160" y="-974.3" font-family="Times,serif" font-size="14.00">Dup</text>
</g>
<!-- PiL21&#45;&gt;Dup25 -->
<g id="edge20" class="edge">
<title>PiL21&#45;&gt;Dup25</title>
<g id="a_edge20"><a xlink:title="idseq148">
<path fill="none" stroke="black" d="M273.53,-921.81C249.09,-933.69 214.96,-950.28 190.51,-962.16"/>
<polygon fill="black" stroke="black" points="284.28,-920.47 273.76,-921.7 281.22,-914.18 284.28,-920.47"/>
<polygon fill="black" stroke="black" points="188.8,-959.1 181.33,-966.62 191.86,-965.4 188.8,-959.1"/>
</a>
</g>
</g>
<!-- Dup26 -->
<g id="node27" class="node">
<title>Dup26</title>
<ellipse fill="none" stroke="black" cx="232" cy="-978" rx="27" ry="18"/>
<text text-anchor="middle" x="232" y="-974.3" font-family="Times,serif" font-size="14.00">Dup</text>
</g>
<!-- PiL21&#45;&gt;Dup26 -->
<g id="edge26" class="edge">
<title>PiL21&#45;&gt;Dup26</title>
<g id="a_edge26"><a xlink:title="lret149">
<path fill="none" stroke="blue" d="M289.43,-921.16C279.25,-931.06 265.48,-944.45 253.97,-955.64"/>
<polygon fill="blue" stroke="blue" points="251.53,-953.13 246.8,-962.61 256.41,-958.15 251.53,-953.13"/>
</a>
</g>
</g>
<!-- PiL22&#45;&gt;Dup23 -->
<g id="edge4" class="edge">
<title>PiL22&#45;&gt;Dup23</title>
<g id="a_edge4"><a xlink:title="dseq151">
<path fill="none" stroke="black" d="M246.57,-921.16C256.75,-931.06 270.52,-944.45 282.03,-955.64"/>
<polygon fill="none" stroke="black" points="279.59,-958.15 289.2,-962.61 284.47,-953.13 279.59,-958.15"/>
</a>
</g>
</g>
<!-- PiL22&#45;&gt;Dup24 -->
<g id="edge36" class="edge">
<title>PiL22&#45;&gt;Dup24</title>
<g id="a_edge36"><a xlink:title="newrret152">
<path fill="none" stroke="red" d="M253.25,-917.32C277.6,-929.16 317.72,-948.66 345.43,-962.13"/>
<polygon fill="none" stroke="red" points="344.14,-965.4 354.67,-966.62 347.2,-959.1 344.14,-965.4"/>
</a>
</g>
</g>
<!-- PiL22&#45;&gt;Dup25 -->
<g id="edge21" class="edge">
<title>PiL22&#45;&gt;Dup25</title>
<g id="a_edge21"><a xlink:title="idseq153">
<path fill="none" stroke="black" d="M209.96,-928.43C201.13,-937 190.99,-946.87 182.15,-955.46"/>
<polygon fill="black" stroke="black" points="219.87,-923.67 210.26,-928.13 214.99,-918.65 219.87,-923.67"/>
<polygon fill="none" stroke="black" points="179.53,-953.13 174.8,-962.61 184.41,-958.15 179.53,-953.13"/>
</a>
</g>
</g>
<!-- PiL22&#45;&gt;Dup26 -->
<g id="edge27" class="edge">
<title>PiL22&#45;&gt;Dup26</title>
<g id="a_edge27"><a xlink:title="lret154">
<path fill="none" stroke="blue" d="M232,-924.3C232,-932.01 232,-941.28 232,-949.88"/>
<polygon fill="none" stroke="blue" points="228.5,-949.89 232,-959.89 235.5,-949.89 228.5,-949.89"/>
</a>
</g>
</g>
<!-- Dup23&#45;&gt;Bang3 -->
<g id="edge7" class="edge">
<title>Dup23&#45;&gt;Bang3</title>
<g id="a_edge7"><a xlink:title="dseq76">
<path fill="none" stroke="black" d="M304,-996.3C304,-1004.01 304,-1013.28 304,-1021.88"/>
<polygon fill="black" stroke="black" points="300.5,-1021.89 304,-1031.89 307.5,-1021.89 300.5,-1021.89"/>
</a>
</g>
</g>
<!-- Dup24&#45;&gt;Bang3 -->
<g id="edge39" class="edge">
<title>Dup24&#45;&gt;Bang3</title>
<g id="a_edge39"><a xlink:title="newrret74">
<path fill="none" stroke="red" d="M361.43,-993.16C351.41,-1002.9 337.92,-1016.02 326.53,-1027.09"/>
<polygon fill="red" stroke="red" points="323.77,-1024.89 319.04,-1034.37 328.65,-1029.91 323.77,-1024.89"/>
</a>
</g>
</g>
<!-- Dup25&#45;&gt;Identity4 -->
<g id="edge23" class="edge">
<title>Dup25&#45;&gt;Identity4</title>
<g id="a_edge23"><a xlink:title="idseq77">
<path fill="none" stroke="black" d="M160,-996.3C160,-1004.01 160,-1013.28 160,-1021.88"/>
<polygon fill="black" stroke="black" points="156.5,-1021.89 160,-1031.89 163.5,-1021.89 156.5,-1021.89"/>
</a>
</g>
</g>
<!-- Dup26&#45;&gt;Identity4 -->
<g id="edge29" class="edge">
<title>Dup26&#45;&gt;Identity4</title>
<g id="a_edge29"><a xlink:title="lret75">
<path fill="none" stroke="blue" d="M217.43,-993.16C207.68,-1002.64 194.64,-1015.32 183.44,-1026.2"/>
<polygon fill="blue" stroke="blue" points="180.78,-1023.91 176.05,-1033.39 185.66,-1028.93 180.78,-1023.91"/>
</a>
</g>
</g>
<!-- DupI27&#45;&gt;PiL21 -->
<g id="edge16" class="edge">
<title>DupI27&#45;&gt;PiL21</title>
<g id="a_edge16"><a xlink:title="hseq150">
<path fill="none" stroke="black" d="M276.35,-851.23C280.71,-859.71 286.15,-870.28 291.04,-879.8"/>
<polygon fill="black" stroke="black" points="288.01,-881.56 295.7,-888.85 294.23,-878.35 288.01,-881.56"/>
</a>
</g>
</g>
<!-- DupI27&#45;&gt;PiL22 -->
<g id="edge17" class="edge">
<title>DupI27&#45;&gt;PiL22</title>
<g id="a_edge17"><a xlink:title="hseq155">
<path fill="none" stroke="black" d="M254.99,-860.29C251.7,-866.69 248.17,-873.56 244.88,-879.95"/>
<polygon fill="black" stroke="black" points="262.76,-852.83 255.08,-860.12 256.54,-849.63 262.76,-852.83"/>
<polygon fill="black" stroke="black" points="241.77,-878.35 240.3,-888.85 247.99,-881.56 241.77,-878.35"/>
</a>
</g>
</g>
</g>
</svg>
