<?xml version="1.0" encoding="UTF-8" standalone="no"?>
<!DOCTYPE svg PUBLIC "-//W3C//DTD SVG 1.1//EN"
 "http://www.w3.org/Graphics/SVG/1.1/DTD/svg11.dtd">
<!-- Generated by graphviz version 2.49.3 (0)
 -->
<!-- Pages: 1 -->
<svg width="506pt" height="1004pt"
 viewBox="0.00 0.00 505.60 1004.00" xmlns="http://www.w3.org/2000/svg" xmlns:xlink="http://www.w3.org/1999/xlink">
<g id="graph0" class="graph" transform="scale(1 1) rotate(0) translate(4 1000)">
<polygon fill="white" stroke="transparent" points="-4,4 -4,-1000 501.6,-1000 501.6,4 -4,4"/>
<!-- I0 -->
<g id="node1" class="node">
<title>I0</title>
<ellipse fill="none" stroke="black" cx="82" cy="-966" rx="27" ry="18"/>
<text text-anchor="middle" x="82" y="-962.3" font-family="Times,serif" font-size="14.00">I</text>
</g>
<!-- !d1 -->
<g id="node2" class="node">
<title>!d1</title>
<ellipse fill="none" stroke="black" cx="27" cy="-882" rx="27" ry="18"/>
<text text-anchor="middle" x="27" y="-878.3" font-family="Times,serif" font-size="14.00">!d</text>
</g>
<!-- I0&#45;&gt;!d1 -->
<g id="edge8" class="edge">
<title>I0&#45;&gt;!d1</title>
<g id="a_edge8"><a xlink:title="iret84">
<path fill="none" stroke="blue" d="M65.75,-940.77C56.65,-927.2 45.55,-910.66 37.57,-898.76"/>
<polygon fill="blue" stroke="blue" points="62.92,-942.83 71.4,-949.19 68.73,-938.93 62.92,-942.83"/>
</a>
</g>
</g>
<!-- λ2 -->
<g id="node3" class="node">
<title>λ2</title>
<ellipse fill="none" stroke="black" cx="82" cy="-810" rx="27" ry="18"/>
<text text-anchor="middle" x="82" y="-806.3" font-family="Times,serif" font-size="14.00">λ</text>
</g>
<!-- !d1&#45;&gt;λ2 -->
<g id="edge7" class="edge">
<title>!d1&#45;&gt;λ2</title>
<g id="a_edge7"><a xlink:title="i81">
<path fill="none" stroke="blue" d="M45.17,-857.87C53.37,-847.44 62.81,-835.42 70.09,-826.16"/>
<polygon fill="blue" stroke="blue" points="42.36,-855.79 38.93,-865.81 47.86,-860.11 42.36,-855.79"/>
</a>
</g>
</g>
<!-- λ2&#45;&gt;I0 -->
<g id="edge26" class="edge">
<title>λ2&#45;&gt;I0</title>
<g id="a_edge26"><a xlink:title="ret82">
<path fill="none" stroke="red" d="M82,-828.15C82,-854.67 82,-905.9 82,-937.6"/>
<polygon fill="red" stroke="red" points="78.5,-937.93 82,-947.93 85.5,-937.93 78.5,-937.93"/>
</a>
</g>
</g>
<!-- !p3 -->
<g id="node4" class="node">
<title>!p3</title>
<ellipse fill="none" stroke="black" cx="137" cy="-882" rx="27" ry="18"/>
<text text-anchor="middle" x="137" y="-878.3" font-family="Times,serif" font-size="14.00">!p</text>
</g>
<!-- !p3&#45;&gt;λ2 -->
<g id="edge21" class="edge">
<title>!p3&#45;&gt;λ2</title>
<g id="a_edge21"><a xlink:title="newrretf78">
<path fill="none" stroke="red" d="M125.07,-865.81C117.79,-856.55 108.34,-844.52 100.15,-834.09"/>
<polygon fill="red" stroke="red" points="102.84,-831.86 93.91,-826.16 97.34,-836.18 102.84,-831.86"/>
</a>
</g>
</g>
<!-- I4 -->
<g id="node5" class="node">
<title>I4</title>
<ellipse fill="none" stroke="black" cx="288" cy="-18" rx="27" ry="18"/>
<text text-anchor="middle" x="288" y="-14.3" font-family="Times,serif" font-size="14.00">I</text>
</g>
<!-- @5 -->
<g id="node6" class="node">
<title>@5</title>
<ellipse fill="none" stroke="black" cx="173" cy="-966" rx="27" ry="18"/>
<text text-anchor="middle" x="173" y="-962.3" font-family="Times,serif" font-size="14.00">@</text>
</g>
<!-- I4&#45;&gt;@5 -->
<g id="edge10" class="edge">
<title>I4&#45;&gt;@5</title>
<g id="a_edge10"><a xlink:title="lret75">
<path fill="none" stroke="blue" d="M263.24,-38.77C234.8,-63.89 192,-110.13 192,-161 192,-811 192,-811 192,-811 192,-861.11 181.97,-919.7 176.48,-947.99"/>
<polygon fill="blue" stroke="blue" points="265.52,-41.42 270.84,-32.26 260.97,-36.11 265.52,-41.42"/>
</a>
</g>
</g>
<!-- @5&#45;&gt;!p3 -->
<g id="edge17" class="edge">
<title>@5&#45;&gt;!p3</title>
<g id="a_edge17"><a xlink:title="newrret74">
<path fill="none" stroke="red" d="M165.71,-948.4C160.74,-937.07 154.04,-921.82 148.37,-908.89"/>
<polygon fill="red" stroke="red" points="151.5,-907.32 144.27,-899.57 145.09,-910.13 151.5,-907.32"/>
</a>
</g>
</g>
<!-- Dup23 -->
<g id="node24" class="node">
<title>Dup23</title>
<ellipse fill="none" stroke="black" cx="307" cy="-882" rx="27" ry="18"/>
<text text-anchor="middle" x="307" y="-878.3" font-family="Times,serif" font-size="14.00">Dup</text>
</g>
<!-- @5&#45;&gt;Dup23 -->
<g id="edge14" class="edge">
<title>@5&#45;&gt;Dup23</title>
<g id="a_edge14"><a xlink:title="lval70">
<path fill="none" stroke="blue" d="M196.83,-944.81C200.81,-941.73 204.95,-938.69 209,-936 234.29,-919.18 265.42,-903.06 285.71,-893.1"/>
<polygon fill="blue" stroke="blue" points="194.63,-942.08 189.01,-951.06 199.01,-947.55 194.63,-942.08"/>
</a>
</g>
</g>
<!-- I6 -->
<g id="node7" class="node">
<title>I6</title>
<ellipse fill="none" stroke="black" cx="327" cy="-306" rx="27" ry="18"/>
<text text-anchor="middle" x="327" y="-302.3" font-family="Times,serif" font-size="14.00">I</text>
</g>
<!-- @7 -->
<g id="node8" class="node">
<title>@7</title>
<ellipse fill="none" stroke="black" cx="331" cy="-234" rx="27" ry="18"/>
<text text-anchor="middle" x="331" y="-230.3" font-family="Times,serif" font-size="14.00">@</text>
</g>
<!-- I6&#45;&gt;@7 -->
<g id="edge9" class="edge">
<title>I6&#45;&gt;@7</title>
<g id="a_edge9"><a xlink:title="lret53">
<path fill="none" stroke="blue" d="M328.56,-277.67C329.05,-269.05 329.58,-259.79 330.02,-252.1"/>
<polygon fill="blue" stroke="blue" points="325.07,-277.51 327.99,-287.7 332.05,-277.91 325.07,-277.51"/>
</a>
</g>
</g>
<!-- Cut13 -->
<g id="node14" class="node">
<title>Cut13</title>
<ellipse fill="none" stroke="black" cx="288" cy="-162" rx="27" ry="18"/>
<text text-anchor="middle" x="288" y="-158.3" font-family="Times,serif" font-size="14.00">Cut</text>
</g>
<!-- @7&#45;&gt;Cut13 -->
<g id="edge13" class="edge">
<title>@7&#45;&gt;Cut13</title>
<g id="a_edge13"><a xlink:title="lval48">
<path fill="none" stroke="blue" d="M315.96,-208.51C309.91,-198.66 303.1,-187.58 297.72,-178.82"/>
<polygon fill="blue" stroke="blue" points="313.03,-210.43 321.24,-217.12 318.99,-206.76 313.03,-210.43"/>
</a>
</g>
</g>
<!-- !p14 -->
<g id="node15" class="node">
<title>!p14</title>
<ellipse fill="none" stroke="black" cx="360" cy="-162" rx="27" ry="18"/>
<text text-anchor="middle" x="360" y="-158.3" font-family="Times,serif" font-size="14.00">!p</text>
</g>
<!-- @7&#45;&gt;!p14 -->
<g id="edge16" class="edge">
<title>@7&#45;&gt;!p14</title>
<g id="a_edge16"><a xlink:title="newrret52">
<path fill="none" stroke="red" d="M337.87,-216.41C341.27,-208.22 345.44,-198.14 349.25,-188.95"/>
<polygon fill="red" stroke="red" points="352.58,-190.05 353.18,-179.47 346.12,-187.37 352.58,-190.05"/>
</a>
</g>
</g>
<!-- Assign8 -->
<g id="node9" class="node">
<title>Assign8</title>
<ellipse fill="none" stroke="black" cx="327" cy="-450" rx="35.19" ry="18"/>
<text text-anchor="middle" x="327" y="-446.3" font-family="Times,serif" font-size="14.00">Assign</text>
</g>
<!-- Dup18 -->
<g id="node19" class="node">
<title>Dup18</title>
<ellipse fill="none" stroke="black" cx="327" cy="-378" rx="27" ry="18"/>
<text text-anchor="middle" x="327" y="-374.3" font-family="Times,serif" font-size="14.00">Dup</text>
</g>
<!-- Assign8&#45;&gt;Dup18 -->
<g id="edge23" class="edge">
<title>Assign8&#45;&gt;Dup18</title>
<g id="a_edge23"><a xlink:title="ret133">
<path fill="none" stroke="red" d="M327,-431.7C327,-423.98 327,-414.71 327,-406.11"/>
<polygon fill="red" stroke="red" points="330.5,-406.1 327,-396.1 323.5,-406.1 330.5,-406.1"/>
</a>
</g>
</g>
<!-- !p9 -->
<g id="node10" class="node">
<title>!p9</title>
<ellipse fill="none" stroke="black" cx="293" cy="-522" rx="27" ry="18"/>
<text text-anchor="middle" x="293" y="-518.3" font-family="Times,serif" font-size="14.00">!p</text>
</g>
<!-- λ15 -->
<g id="node16" class="node">
<title>λ15</title>
<ellipse fill="none" stroke="black" cx="247" cy="-450" rx="27" ry="18"/>
<text text-anchor="middle" x="247" y="-446.3" font-family="Times,serif" font-size="14.00">λ</text>
</g>
<!-- !p9&#45;&gt;λ15 -->
<g id="edge22" class="edge">
<title>!p9&#45;&gt;λ15</title>
<g id="a_edge22"><a xlink:title="newrretf91">
<path fill="none" stroke="red" d="M282.56,-505.12C276.8,-496.34 269.52,-485.26 263.04,-475.42"/>
<polygon fill="red" stroke="red" points="265.81,-473.26 257.4,-466.82 259.96,-477.1 265.81,-473.26"/>
</a>
</g>
</g>
<!-- Dup10 -->
<g id="node11" class="node">
<title>Dup10</title>
<ellipse fill="none" stroke="black" cx="248" cy="-966" rx="26" ry="26"/>
<ellipse fill="none" stroke="black" cx="248" cy="-966" rx="30" ry="30"/>
<text text-anchor="middle" x="248" y="-962.3" font-family="Times,serif" font-size="14.00">Dup</text>
</g>
<!-- Dup11 -->
<g id="node12" class="node">
<title>Dup11</title>
<ellipse fill="none" stroke="black" cx="288" cy="-90" rx="27" ry="18"/>
<text text-anchor="middle" x="288" y="-86.3" font-family="Times,serif" font-size="14.00">Dup</text>
</g>
<!-- Dup11&#45;&gt;I4 -->
<g id="edge20" class="edge">
<title>Dup11&#45;&gt;I4</title>
<g id="a_edge20"><a xlink:title="newrretf66">
<path fill="none" stroke="red" d="M288,-71.7C288,-63.98 288,-54.71 288,-46.11"/>
<polygon fill="red" stroke="red" points="291.5,-46.1 288,-36.1 284.5,-46.1 291.5,-46.1"/>
</a>
</g>
</g>
<!-- !c12 -->
<g id="node13" class="node">
<title>!c12</title>
<ellipse fill="none" stroke="black" cx="307" cy="-738" rx="27" ry="18"/>
<text text-anchor="middle" x="307" y="-734.3" font-family="Times,serif" font-size="14.00">!c</text>
</g>
<!-- Dup17 -->
<g id="node18" class="node">
<title>Dup17</title>
<ellipse fill="none" stroke="black" cx="293" cy="-666" rx="27" ry="18"/>
<text text-anchor="middle" x="293" y="-662.3" font-family="Times,serif" font-size="14.00">Dup</text>
</g>
<!-- !c12&#45;&gt;Dup17 -->
<g id="edge4" class="edge">
<title>!c12&#45;&gt;Dup17</title>
<g id="a_edge4"><a xlink:title="h34">
<path fill="none" stroke="blue" d="M301.6,-710.01C299.87,-701.36 298.01,-692.03 296.46,-684.28"/>
<polygon fill="blue" stroke="blue" points="298.22,-710.94 303.61,-720.05 305.08,-709.56 298.22,-710.94"/>
</a>
</g>
</g>
<!-- Cut13&#45;&gt;Dup11 -->
<g id="edge18" class="edge">
<title>Cut13&#45;&gt;Dup11</title>
<g id="a_edge18"><a xlink:title="newrretf108">
<path fill="none" stroke="red" d="M288,-143.7C288,-135.98 288,-126.71 288,-118.11"/>
<polygon fill="red" stroke="red" points="291.5,-118.1 288,-108.1 284.5,-118.1 291.5,-118.1"/>
</a>
</g>
</g>
<!-- !p14&#45;&gt;Dup11 -->
<g id="edge19" class="edge">
<title>!p14&#45;&gt;Dup11</title>
<g id="a_edge19"><a xlink:title="newrretf114">
<path fill="none" stroke="red" d="M345.43,-146.83C335.25,-136.94 321.48,-123.55 309.97,-112.36"/>
<polygon fill="none" stroke="red" points="312.41,-109.85 302.8,-105.38 307.53,-114.87 312.41,-109.85"/>
</a>
</g>
</g>
<!-- !p14&#45;&gt;!c12 -->
<g id="edge1" class="edge">
<title>!p14&#45;&gt;!c12</title>
<g id="a_edge1"><a xlink:title="h116">
<path fill="none" stroke="blue" d="M369,-189.35C377.84,-217.6 390,-263.93 390,-305 390,-595 390,-595 390,-595 390,-643.13 354.02,-689.44 329.43,-715.47"/>
<polygon fill="blue" stroke="blue" points="372.33,-188.25 365.93,-179.81 365.66,-190.4 372.33,-188.25"/>
<polygon fill="blue" stroke="blue" points="319.72,-720.43 329.2,-715.7 324.73,-725.31 319.72,-720.43"/>
</a>
</g>
</g>
<!-- λ15&#45;&gt;Dup18 -->
<g id="edge24" class="edge">
<title>λ15&#45;&gt;Dup18</title>
<g id="a_edge24"><a xlink:title="ret137">
<path fill="none" stroke="red" d="M262.81,-435.17C274.42,-425.01 290.39,-411.03 303.5,-399.56"/>
<polygon fill="none" stroke="red" points="306.01,-402.02 311.23,-392.8 301.4,-396.75 306.01,-402.02"/>
</a>
</g>
</g>
<!-- Dup16 -->
<g id="node17" class="node">
<title>Dup16</title>
<ellipse fill="none" stroke="black" cx="323" cy="-966" rx="27" ry="18"/>
<text text-anchor="middle" x="323" y="-962.3" font-family="Times,serif" font-size="14.00">Dup</text>
</g>
<!-- Dup17&#45;&gt;λ15 -->
<g id="edge3" class="edge">
<title>Dup17&#45;&gt;λ15</title>
<g id="a_edge3"><a xlink:title="h136">
<path fill="none" stroke="blue" d="M273.29,-641.8C266.94,-633.02 260.62,-622.58 257,-612 239.88,-561.91 242.59,-498.03 245.18,-468.02"/>
<polygon fill="none" stroke="blue" points="270.69,-644.16 279.55,-649.97 276.25,-639.9 270.69,-644.16"/>
</a>
</g>
</g>
<!-- Cut19 -->
<g id="node20" class="node">
<title>Cut19</title>
<ellipse fill="none" stroke="black" cx="293" cy="-594" rx="27" ry="18"/>
<text text-anchor="middle" x="293" y="-590.3" font-family="Times,serif" font-size="14.00">Cut</text>
</g>
<!-- Dup17&#45;&gt;Cut19 -->
<g id="edge2" class="edge">
<title>Dup17&#45;&gt;Cut19</title>
<g id="a_edge2"><a xlink:title="h132">
<path fill="none" stroke="blue" d="M293,-637.67C293,-629.05 293,-619.79 293,-612.1"/>
<polygon fill="blue" stroke="blue" points="289.5,-637.7 293,-647.7 296.5,-637.7 289.5,-637.7"/>
</a>
</g>
</g>
<!-- Dup18&#45;&gt;I6 -->
<g id="edge25" class="edge">
<title>Dup18&#45;&gt;I6</title>
<g id="a_edge25"><a xlink:title="ret42">
<path fill="none" stroke="red" d="M327,-359.7C327,-351.98 327,-342.71 327,-334.11"/>
<polygon fill="red" stroke="red" points="330.5,-334.1 327,-324.1 323.5,-334.1 330.5,-334.1"/>
</a>
</g>
</g>
<!-- Cut19&#45;&gt;!p9 -->
<g id="edge15" class="edge">
<title>Cut19&#45;&gt;!p9</title>
<g id="a_edge15"><a xlink:title="newrret18">
<path fill="none" stroke="red" d="M293,-575.7C293,-567.98 293,-558.71 293,-550.11"/>
<polygon fill="red" stroke="red" points="296.5,-550.1 293,-540.1 289.5,-550.1 296.5,-550.1"/>
</a>
</g>
</g>
<!-- !d20 -->
<g id="node21" class="node">
<title>!d20</title>
<ellipse fill="none" stroke="black" cx="307" cy="-810" rx="27" ry="18"/>
<text text-anchor="middle" x="307" y="-806.3" font-family="Times,serif" font-size="14.00">!d</text>
</g>
<!-- !d20&#45;&gt;!c12 -->
<g id="edge5" class="edge">
<title>!d20&#45;&gt;!c12</title>
<g id="a_edge5"><a xlink:title="hf107">
<path fill="none" stroke="blue" d="M307,-781.67C307,-773.05 307,-763.79 307,-756.1"/>
<polygon fill="blue" stroke="blue" points="303.5,-781.7 307,-791.7 310.5,-781.7 303.5,-781.7"/>
</a>
</g>
</g>
<!-- !d21 -->
<g id="node22" class="node">
<title>!d21</title>
<ellipse fill="none" stroke="black" cx="414" cy="-738" rx="27" ry="18"/>
<text text-anchor="middle" x="414" y="-734.3" font-family="Times,serif" font-size="14.00">!d</text>
</g>
<!-- !d21&#45;&gt;!p14 -->
<g id="edge6" class="edge">
<title>!d21&#45;&gt;!p14</title>
<g id="a_edge6"><a xlink:title="hf113">
<path fill="none" stroke="blue" d="M418.26,-710C422.38,-681.49 428,-635.2 428,-595 428,-595 428,-595 428,-305 428,-254.43 392.49,-202.79 372.79,-178.04"/>
<polygon fill="blue" stroke="blue" points="414.78,-709.6 416.77,-720 421.7,-710.63 414.78,-709.6"/>
</a>
</g>
</g>
<!-- Dup22 -->
<g id="node23" class="node">
<title>Dup22</title>
<ellipse fill="none" stroke="black" cx="395" cy="-966" rx="27" ry="18"/>
<text text-anchor="middle" x="395" y="-962.3" font-family="Times,serif" font-size="14.00">Dup</text>
</g>
<!-- Dup23&#45;&gt;!d20 -->
<g id="edge11" class="edge">
<title>Dup23&#45;&gt;!d20</title>
<g id="a_edge11"><a xlink:title="lval141">
<path fill="none" stroke="blue" d="M307,-853.67C307,-845.05 307,-835.79 307,-828.1"/>
<polygon fill="blue" stroke="blue" points="303.5,-853.7 307,-863.7 310.5,-853.7 303.5,-853.7"/>
</a>
</g>
</g>
<!-- Dup23&#45;&gt;!d21 -->
<g id="edge12" class="edge">
<title>Dup23&#45;&gt;!d21</title>
<g id="a_edge12"><a xlink:title="lval144">
<path fill="none" stroke="blue" d="M324.7,-857.51C346.71,-828.31 383.64,-779.3 402.36,-754.45"/>
<polygon fill="none" stroke="blue" points="321.88,-855.44 318.65,-865.53 327.47,-859.65 321.88,-855.44"/>
</a>
</g>
</g>
<!-- DupI24 -->
<g id="node25" class="node">
<title>DupI24</title>
<ellipse fill="none" stroke="black" cx="469" cy="-966" rx="28.7" ry="18"/>
<text text-anchor="middle" x="469" y="-962.3" font-family="Times,serif" font-size="14.00">DupI</text>
</g>
</g>
</svg>
