<?xml version="1.0" encoding="UTF-8" standalone="no"?>
<!DOCTYPE svg PUBLIC "-//W3C//DTD SVG 1.1//EN"
 "http://www.w3.org/Graphics/SVG/1.1/DTD/svg11.dtd">
<!-- Generated by graphviz version 2.49.3 (0)
 -->
<!-- Pages: 1 -->
<svg width="670pt" height="1220pt"
 viewBox="0.00 0.00 670.10 1220.00" xmlns="http://www.w3.org/2000/svg" xmlns:xlink="http://www.w3.org/1999/xlink">
<g id="graph0" class="graph" transform="scale(1 1) rotate(0) translate(4 1216)">
<polygon fill="white" stroke="transparent" points="-4,4 -4,-1216 666.1,-1216 666.1,4 -4,4"/>
<!-- I0 -->
<g id="node1" class="node">
<title>I0</title>
<ellipse fill="none" stroke="black" cx="27" cy="-834" rx="27" ry="18"/>
<text text-anchor="middle" x="27" y="-830.3" font-family="Times,serif" font-size="14.00">I</text>
</g>
<!-- Dup29 -->
<g id="node30" class="node">
<title>Dup29</title>
<ellipse fill="none" stroke="black" cx="85" cy="-750" rx="26" ry="26"/>
<ellipse fill="none" stroke="black" cx="85" cy="-750" rx="30" ry="30"/>
<text text-anchor="middle" x="85" y="-746.3" font-family="Times,serif" font-size="14.00">Dup</text>
</g>
<!-- I0&#45;&gt;Dup29 -->
<g id="edge11" class="edge">
<title>I0&#45;&gt;Dup29</title>
<g id="a_edge11"><a xlink:title="iret84">
<path fill="none" stroke="blue" stroke-width="2" d="M44.18,-808.71C51.74,-798.01 60.61,-785.48 68.14,-774.84"/>
<polygon fill="blue" stroke="blue" stroke-width="2" points="41.1,-807 38.18,-817.19 46.82,-811.04 41.1,-807"/>
</a>
</g>
</g>
<!-- I1 -->
<g id="node2" class="node">
<title>I1</title>
<ellipse fill="none" stroke="black" cx="380" cy="-906" rx="27" ry="18"/>
<text text-anchor="middle" x="380" y="-902.3" font-family="Times,serif" font-size="14.00">I</text>
</g>
<!-- Dup20 -->
<g id="node21" class="node">
<title>Dup20</title>
<ellipse fill="none" stroke="black" cx="380" cy="-834" rx="27" ry="18"/>
<text text-anchor="middle" x="380" y="-830.3" font-family="Times,serif" font-size="14.00">Dup</text>
</g>
<!-- I1&#45;&gt;Dup20 -->
<g id="edge15" class="edge">
<title>I1&#45;&gt;Dup20</title>
<g id="a_edge15"><a xlink:title="lret75">
<path fill="none" stroke="blue" d="M380,-877.66C380,-869.05 380,-859.79 380,-852.1"/>
<polygon fill="blue" stroke="blue" points="376.5,-877.69 380,-887.69 383.5,-877.69 376.5,-877.69"/>
</a>
</g>
</g>
<!-- I2 -->
<g id="node3" class="node">
<title>I2</title>
<ellipse fill="none" stroke="black" cx="547" cy="-162" rx="27" ry="18"/>
<text text-anchor="middle" x="547" y="-158.3" font-family="Times,serif" font-size="14.00">I</text>
</g>
<!-- @3 -->
<g id="node4" class="node">
<title>@3</title>
<ellipse fill="none" stroke="black" cx="473" cy="-90" rx="27" ry="18"/>
<text text-anchor="middle" x="473" y="-86.3" font-family="Times,serif" font-size="14.00">@</text>
</g>
<!-- I2&#45;&gt;@3 -->
<g id="edge14" class="edge">
<title>I2&#45;&gt;@3</title>
<g id="a_edge14"><a xlink:title="lret53">
<path fill="none" stroke="blue" d="M524.63,-139.84C512.75,-128.6 498.48,-115.1 487.95,-105.14"/>
<polygon fill="blue" stroke="blue" points="522.36,-142.51 532.02,-146.83 527.17,-137.42 522.36,-142.51"/>
</a>
</g>
</g>
<!-- Cut8 -->
<g id="node9" class="node">
<title>Cut8</title>
<ellipse fill="none" stroke="black" cx="325" cy="-18" rx="27" ry="18"/>
<text text-anchor="middle" x="325" y="-14.3" font-family="Times,serif" font-size="14.00">Cut</text>
</g>
<!-- @3&#45;&gt;Cut8 -->
<g id="edge18" class="edge">
<title>@3&#45;&gt;Cut8</title>
<g id="a_edge18"><a xlink:title="lval48">
<path fill="none" stroke="blue" d="M442.33,-74.49C413.72,-60.96 371.77,-41.12 346.55,-29.19"/>
<polygon fill="blue" stroke="blue" points="440.94,-77.71 451.48,-78.82 443.94,-71.38 440.94,-77.71"/>
</a>
</g>
</g>
<!-- !p9 -->
<g id="node10" class="node">
<title>!p9</title>
<ellipse fill="none" stroke="black" cx="473" cy="-1050" rx="27" ry="18"/>
<text text-anchor="middle" x="473" y="-1046.3" font-family="Times,serif" font-size="14.00">!p</text>
</g>
<!-- @3&#45;&gt;!p9 -->
<g id="edge22" class="edge">
<title>@3&#45;&gt;!p9</title>
<g id="a_edge22"><a xlink:title="newrret52">
<path fill="none" stroke="red" d="M473,-108.05C473,-134.71 473,-187.89 473,-233 473,-907 473,-907 473,-907 473,-947 473,-993.34 473,-1021.92"/>
<polygon fill="red" stroke="red" points="469.5,-1021.95 473,-1031.95 476.5,-1021.95 469.5,-1021.95"/>
</a>
</g>
</g>
<!-- Assign4 -->
<g id="node5" class="node">
<title>Assign4</title>
<ellipse fill="none" stroke="black" cx="627" cy="-306" rx="35.19" ry="18"/>
<text text-anchor="middle" x="627" y="-302.3" font-family="Times,serif" font-size="14.00">Assign</text>
</g>
<!-- Dup13 -->
<g id="node14" class="node">
<title>Dup13</title>
<ellipse fill="none" stroke="black" cx="547" cy="-234" rx="27" ry="18"/>
<text text-anchor="middle" x="547" y="-230.3" font-family="Times,serif" font-size="14.00">Dup</text>
</g>
<!-- Assign4&#45;&gt;Dup13 -->
<g id="edge29" class="edge">
<title>Assign4&#45;&gt;Dup13</title>
<g id="a_edge29"><a xlink:title="ret133">
<path fill="none" stroke="red" d="M610.03,-290.15C598.6,-280.15 583.35,-266.8 570.71,-255.75"/>
<polygon fill="red" stroke="red" points="572.68,-252.82 562.85,-248.87 568.07,-258.09 572.68,-252.82"/>
</a>
</g>
</g>
<!-- !p5 -->
<g id="node6" class="node">
<title>!p5</title>
<ellipse fill="none" stroke="black" cx="566" cy="-378" rx="27" ry="18"/>
<text text-anchor="middle" x="566" y="-374.3" font-family="Times,serif" font-size="14.00">!p</text>
</g>
<!-- λ10 -->
<g id="node11" class="node">
<title>λ10</title>
<ellipse fill="none" stroke="black" cx="547" cy="-306" rx="27" ry="18"/>
<text text-anchor="middle" x="547" y="-302.3" font-family="Times,serif" font-size="14.00">λ</text>
</g>
<!-- !p5&#45;&gt;λ10 -->
<g id="edge28" class="edge">
<title>!p5&#45;&gt;λ10</title>
<g id="a_edge28"><a xlink:title="newrretf91">
<path fill="none" stroke="red" d="M561.4,-360.05C559.25,-352.14 556.65,-342.54 554.24,-333.69"/>
<polygon fill="red" stroke="red" points="557.55,-332.52 551.56,-323.79 550.8,-334.36 557.55,-332.52"/>
</a>
</g>
</g>
<!-- Dup6 -->
<g id="node7" class="node">
<title>Dup6</title>
<ellipse fill="none" stroke="black" cx="380" cy="-978" rx="27" ry="18"/>
<text text-anchor="middle" x="380" y="-974.3" font-family="Times,serif" font-size="14.00">Dup</text>
</g>
<!-- Dup6&#45;&gt;I1 -->
<g id="edge27" class="edge">
<title>Dup6&#45;&gt;I1</title>
<g id="a_edge27"><a xlink:title="newrretf66">
<path fill="none" stroke="red" d="M380,-959.69C380,-951.98 380,-942.71 380,-934.11"/>
<polygon fill="red" stroke="red" points="383.5,-934.1 380,-924.1 376.5,-934.1 383.5,-934.1"/>
</a>
</g>
</g>
<!-- !c7 -->
<g id="node8" class="node">
<title>!c7</title>
<ellipse fill="none" stroke="black" cx="547" cy="-594" rx="27" ry="18"/>
<text text-anchor="middle" x="547" y="-590.3" font-family="Times,serif" font-size="14.00">!c</text>
</g>
<!-- Dup12 -->
<g id="node13" class="node">
<title>Dup12</title>
<ellipse fill="none" stroke="black" cx="547" cy="-522" rx="27" ry="18"/>
<text text-anchor="middle" x="547" y="-518.3" font-family="Times,serif" font-size="14.00">Dup</text>
</g>
<!-- !c7&#45;&gt;Dup12 -->
<g id="edge4" class="edge">
<title>!c7&#45;&gt;Dup12</title>
<g id="a_edge4"><a xlink:title="h34">
<path fill="none" stroke="blue" d="M547,-565.67C547,-557.05 547,-547.79 547,-540.1"/>
<polygon fill="blue" stroke="blue" points="543.5,-565.7 547,-575.7 550.5,-565.7 543.5,-565.7"/>
</a>
</g>
</g>
<!-- Cut8&#45;&gt;Dup6 -->
<g id="edge23" class="edge">
<title>Cut8&#45;&gt;Dup6</title>
<g id="a_edge23"><a xlink:title="newrretf108">
<path fill="none" stroke="red" d="M325,-36.05C325,-62.71 325,-115.89 325,-161 325,-835 325,-835 325,-835 325,-875.44 328.12,-886.8 344,-924 348.39,-934.28 354.88,-944.65 361.15,-953.47"/>
<polygon fill="red" stroke="red" points="358.48,-955.75 367.25,-961.7 364.11,-951.58 358.48,-955.75"/>
</a>
</g>
</g>
<!-- !p9&#45;&gt;Dup6 -->
<g id="edge24" class="edge">
<title>!p9&#45;&gt;Dup6</title>
<g id="a_edge24"><a xlink:title="newrretf114">
<path fill="none" stroke="red" d="M455.51,-1035.83C441.48,-1025.27 421.58,-1010.3 405.74,-998.37"/>
<polygon fill="none" stroke="red" points="407.51,-995.32 397.41,-992.1 403.3,-1000.91 407.51,-995.32"/>
</a>
</g>
</g>
<!-- !p9&#45;&gt;!c7 -->
<g id="edge1" class="edge">
<title>!p9&#45;&gt;!c7</title>
<g id="a_edge1"><a xlink:title="h116">
<path fill="none" stroke="blue" d="M500.43,-1030.73C533.01,-1006.6 583,-960.81 583,-907 583,-907 583,-907 583,-749 583,-703.12 567.66,-651.51 557.01,-621.21"/>
<polygon fill="blue" stroke="blue" points="498.24,-1027.99 492.16,-1036.67 502.32,-1033.68 498.24,-1027.99"/>
<polygon fill="blue" stroke="blue" points="556.89,-610.6 557,-621.2 550.31,-612.98 556.89,-610.6"/>
</a>
</g>
</g>
<!-- λ10&#45;&gt;Dup13 -->
<g id="edge30" class="edge">
<title>λ10&#45;&gt;Dup13</title>
<g id="a_edge30"><a xlink:title="ret137">
<path fill="none" stroke="red" d="M547,-287.7C547,-279.98 547,-270.71 547,-262.11"/>
<polygon fill="none" stroke="red" points="550.5,-262.1 547,-252.1 543.5,-262.1 550.5,-262.1"/>
</a>
</g>
</g>
<!-- Dup11 -->
<g id="node12" class="node">
<title>Dup11</title>
<ellipse fill="none" stroke="black" cx="352" cy="-1194" rx="27" ry="18"/>
<text text-anchor="middle" x="352" y="-1190.3" font-family="Times,serif" font-size="14.00">Dup</text>
</g>
<!-- Dup12&#45;&gt;λ10 -->
<g id="edge3" class="edge">
<title>Dup12&#45;&gt;λ10</title>
<g id="a_edge3"><a xlink:title="h136">
<path fill="none" stroke="blue" d="M536.74,-494.54C533.98,-486.18 531.38,-476.82 530,-468 522.58,-420.58 522.58,-407.42 530,-360 531.94,-347.59 536.3,-334.12 540.11,-323.86"/>
<polygon fill="none" stroke="blue" points="533.49,-495.87 540.11,-504.14 540.1,-493.55 533.49,-495.87"/>
</a>
</g>
</g>
<!-- Cut14 -->
<g id="node15" class="node">
<title>Cut14</title>
<ellipse fill="none" stroke="black" cx="566" cy="-450" rx="27" ry="18"/>
<text text-anchor="middle" x="566" y="-446.3" font-family="Times,serif" font-size="14.00">Cut</text>
</g>
<!-- Dup12&#45;&gt;Cut14 -->
<g id="edge2" class="edge">
<title>Dup12&#45;&gt;Cut14</title>
<g id="a_edge2"><a xlink:title="h132">
<path fill="none" stroke="blue" d="M554.29,-494.14C556.7,-485.28 559.3,-475.68 561.44,-467.79"/>
<polygon fill="blue" stroke="blue" points="550.84,-493.49 551.6,-504.05 557.6,-495.32 550.84,-493.49"/>
</a>
</g>
</g>
<!-- Dup13&#45;&gt;I2 -->
<g id="edge33" class="edge">
<title>Dup13&#45;&gt;I2</title>
<g id="a_edge33"><a xlink:title="ret42">
<path fill="none" stroke="red" d="M547,-215.7C547,-207.98 547,-198.71 547,-190.11"/>
<polygon fill="red" stroke="red" points="550.5,-190.1 547,-180.1 543.5,-190.1 550.5,-190.1"/>
</a>
</g>
</g>
<!-- Cut14&#45;&gt;!p5 -->
<g id="edge21" class="edge">
<title>Cut14&#45;&gt;!p5</title>
<g id="a_edge21"><a xlink:title="newrret18">
<path fill="none" stroke="red" d="M566,-431.7C566,-423.98 566,-414.71 566,-406.11"/>
<polygon fill="red" stroke="red" points="569.5,-406.1 566,-396.1 562.5,-406.1 569.5,-406.1"/>
</a>
</g>
</g>
<!-- !d15 -->
<g id="node16" class="node">
<title>!d15</title>
<ellipse fill="none" stroke="black" cx="528" cy="-666" rx="27" ry="18"/>
<text text-anchor="middle" x="528" y="-662.3" font-family="Times,serif" font-size="14.00">!d</text>
</g>
<!-- !d15&#45;&gt;!c7 -->
<g id="edge5" class="edge">
<title>!d15&#45;&gt;!c7</title>
<g id="a_edge5"><a xlink:title="hf107">
<path fill="none" stroke="blue" d="M535.29,-638.14C537.7,-629.28 540.3,-619.68 542.44,-611.79"/>
<polygon fill="blue" stroke="blue" points="531.84,-637.49 532.6,-648.05 538.6,-639.32 531.84,-637.49"/>
</a>
</g>
</g>
<!-- !d16 -->
<g id="node17" class="node">
<title>!d16</title>
<ellipse fill="none" stroke="black" cx="473" cy="-1122" rx="27" ry="18"/>
<text text-anchor="middle" x="473" y="-1118.3" font-family="Times,serif" font-size="14.00">!d</text>
</g>
<!-- !d16&#45;&gt;!p9 -->
<g id="edge6" class="edge">
<title>!d16&#45;&gt;!p9</title>
<g id="a_edge6"><a xlink:title="hf113">
<path fill="none" stroke="blue" d="M473,-1093.66C473,-1085.05 473,-1075.79 473,-1068.1"/>
<polygon fill="blue" stroke="blue" points="469.5,-1093.69 473,-1103.69 476.5,-1093.69 469.5,-1093.69"/>
</a>
</g>
</g>
<!-- @17 -->
<g id="node18" class="node">
<title>@17</title>
<ellipse fill="none" stroke="black" cx="380" cy="-750" rx="27" ry="18"/>
<text text-anchor="middle" x="380" y="-746.3" font-family="Times,serif" font-size="14.00">@</text>
</g>
<!-- @17&#45;&gt;!d15 -->
<g id="edge16" class="edge">
<title>@17&#45;&gt;!d15</title>
<g id="a_edge16"><a xlink:title="lval141">
<path fill="none" stroke="blue" d="M409.18,-732.83C438.38,-716.65 482.52,-692.2 507.98,-678.09"/>
<polygon fill="blue" stroke="blue" points="407.32,-729.86 400.27,-737.77 410.71,-735.98 407.32,-729.86"/>
</a>
</g>
</g>
<!-- !p21 -->
<g id="node22" class="node">
<title>!p21</title>
<ellipse fill="none" stroke="black" cx="270" cy="-666" rx="27" ry="18"/>
<text text-anchor="middle" x="270" y="-662.3" font-family="Times,serif" font-size="14.00">!p</text>
</g>
<!-- @17&#45;&gt;!p21 -->
<g id="edge19" class="edge">
<title>@17&#45;&gt;!p21</title>
<g id="a_edge19"><a xlink:title="newrret147">
<path fill="none" stroke="red" d="M362.33,-735.82C344.26,-722.36 316.02,-701.3 295.52,-686.03"/>
<polygon fill="red" stroke="red" points="297.38,-683.04 287.27,-679.87 293.19,-688.65 297.38,-683.04"/>
</a>
</g>
</g>
<!-- @18 -->
<g id="node19" class="node">
<title>@18</title>
<ellipse fill="none" stroke="black" cx="280" cy="-1194" rx="27" ry="18"/>
<text text-anchor="middle" x="280" y="-1190.3" font-family="Times,serif" font-size="14.00">@</text>
</g>
<!-- @18&#45;&gt;!d16 -->
<g id="edge17" class="edge">
<title>@18&#45;&gt;!d16</title>
<g id="a_edge17"><a xlink:title="lval144">
<path fill="none" stroke="blue" d="M310.41,-1178.27C312.29,-1177.48 314.16,-1176.71 316,-1176 366.31,-1156.42 381.24,-1158.35 432,-1140 438.23,-1137.74 444.9,-1135.08 451.02,-1132.55"/>
<polygon fill="blue" stroke="blue" points="308.81,-1175.15 301.1,-1182.43 311.66,-1181.55 308.81,-1175.15"/>
</a>
</g>
</g>
<!-- !p22 -->
<g id="node23" class="node">
<title>!p22</title>
<ellipse fill="none" stroke="black" cx="253" cy="-1122" rx="27" ry="18"/>
<text text-anchor="middle" x="253" y="-1118.3" font-family="Times,serif" font-size="14.00">!p</text>
</g>
<!-- @18&#45;&gt;!p22 -->
<g id="edge20" class="edge">
<title>@18&#45;&gt;!p22</title>
<g id="a_edge20"><a xlink:title="newrret152">
<path fill="none" stroke="red" d="M273.6,-1176.41C270.49,-1168.33 266.67,-1158.43 263.17,-1149.35"/>
<polygon fill="red" stroke="red" points="266.4,-1148.02 259.54,-1139.95 259.87,-1150.54 266.4,-1148.02"/>
</a>
</g>
</g>
<!-- Dup19 -->
<g id="node20" class="node">
<title>Dup19</title>
<ellipse fill="none" stroke="black" cx="424" cy="-1194" rx="27" ry="18"/>
<text text-anchor="middle" x="424" y="-1190.3" font-family="Times,serif" font-size="14.00">Dup</text>
</g>
<!-- Dup20&#45;&gt;@17 -->
<g id="edge12" class="edge">
<title>Dup20&#45;&gt;@17</title>
<g id="a_edge12"><a xlink:title="lret149">
<path fill="none" stroke="blue" d="M380,-805.36C380,-793.01 380,-778.85 380,-768.08"/>
<polygon fill="blue" stroke="blue" points="376.5,-805.61 380,-815.61 383.5,-805.61 376.5,-805.61"/>
</a>
</g>
</g>
<!-- Dup20&#45;&gt;@18 -->
<g id="edge13" class="edge">
<title>Dup20&#45;&gt;@18</title>
<g id="a_edge13"><a xlink:title="lret154">
<path fill="none" stroke="blue" d="M400.07,-858.08C406.46,-866.85 412.71,-877.31 416,-888 430.11,-933.88 430.28,-950.17 416,-996 391.76,-1073.76 324.92,-1147.93 294.92,-1178.42"/>
<polygon fill="none" stroke="blue" points="402.65,-855.68 393.75,-849.93 397.12,-859.97 402.65,-855.68"/>
</a>
</g>
</g>
<!-- λ23 -->
<g id="node24" class="node">
<title>λ23</title>
<ellipse fill="none" stroke="black" cx="207" cy="-594" rx="27" ry="18"/>
<text text-anchor="middle" x="207" y="-590.3" font-family="Times,serif" font-size="14.00">λ</text>
</g>
<!-- !p21&#45;&gt;λ23 -->
<g id="edge25" class="edge">
<title>!p21&#45;&gt;λ23</title>
<g id="a_edge25"><a xlink:title="newrretf157">
<path fill="none" stroke="red" d="M256.64,-650.15C248.12,-640.69 236.91,-628.24 227.31,-617.56"/>
<polygon fill="red" stroke="red" points="229.63,-614.92 220.34,-609.82 224.43,-619.6 229.63,-614.92"/>
</a>
</g>
</g>
<!-- λ24 -->
<g id="node25" class="node">
<title>λ24</title>
<ellipse fill="none" stroke="black" cx="135" cy="-594" rx="27" ry="18"/>
<text text-anchor="middle" x="135" y="-590.3" font-family="Times,serif" font-size="14.00">λ</text>
</g>
<!-- !p22&#45;&gt;λ24 -->
<g id="edge26" class="edge">
<title>!p22&#45;&gt;λ24</title>
<g id="a_edge26"><a xlink:title="newrretf160">
<path fill="none" stroke="red" d="M233.84,-1108.67C202.32,-1086.72 143,-1037.62 143,-979 143,-979 143,-979 143,-749 143,-704.65 139.65,-653.21 137.29,-622.43"/>
<polygon fill="red" stroke="red" points="140.74,-621.77 136.47,-612.08 133.77,-622.32 140.74,-621.77"/>
</a>
</g>
</g>
<!-- Dup25 -->
<g id="node26" class="node">
<title>Dup25</title>
<ellipse fill="none" stroke="black" cx="135" cy="-522" rx="27" ry="18"/>
<text text-anchor="middle" x="135" y="-518.3" font-family="Times,serif" font-size="14.00">Dup</text>
</g>
<!-- λ23&#45;&gt;Dup25 -->
<g id="edge31" class="edge">
<title>λ23&#45;&gt;Dup25</title>
<g id="a_edge31"><a xlink:title="ret164">
<path fill="none" stroke="red" d="M192.43,-578.83C182.25,-568.94 168.48,-555.55 156.97,-544.36"/>
<polygon fill="red" stroke="red" points="159.41,-541.85 149.8,-537.38 154.53,-546.87 159.41,-541.85"/>
</a>
</g>
</g>
<!-- λ24&#45;&gt;Dup25 -->
<g id="edge32" class="edge">
<title>λ24&#45;&gt;Dup25</title>
<g id="a_edge32"><a xlink:title="ret168">
<path fill="none" stroke="red" d="M135,-575.7C135,-567.98 135,-558.71 135,-550.11"/>
<polygon fill="none" stroke="red" points="138.5,-550.1 135,-540.1 131.5,-550.1 138.5,-550.1"/>
</a>
</g>
</g>
<!-- Dup25&#45;&gt;I0 -->
<g id="edge34" class="edge">
<title>Dup25&#45;&gt;I0</title>
<g id="a_edge34"><a xlink:title="ret82">
<path fill="none" stroke="red" d="M121.55,-537.86C102.33,-560.03 67.51,-603.93 51,-648 31.07,-701.18 27.18,-768.31 26.71,-805.32"/>
<polygon fill="red" stroke="red" points="23.21,-805.78 26.66,-815.79 30.21,-805.81 23.21,-805.78"/>
</a>
</g>
</g>
<!-- !d26 -->
<g id="node27" class="node">
<title>!d26</title>
<ellipse fill="none" stroke="black" cx="198" cy="-666" rx="27" ry="18"/>
<text text-anchor="middle" x="198" y="-662.3" font-family="Times,serif" font-size="14.00">!d</text>
</g>
<!-- !d26&#45;&gt;λ23 -->
<g id="edge7" class="edge">
<title>!d26&#45;&gt;λ23</title>
<g id="a_edge7"><a xlink:title="i163">
<path fill="none" stroke="blue" d="M201.47,-638.01C202.58,-629.36 203.78,-620.03 204.78,-612.28"/>
<polygon fill="blue" stroke="blue" points="197.98,-637.69 200.18,-648.05 204.93,-638.58 197.98,-637.69"/>
</a>
</g>
</g>
<!-- !d27 -->
<g id="node28" class="node">
<title>!d27</title>
<ellipse fill="none" stroke="black" cx="87" cy="-666" rx="27" ry="18"/>
<text text-anchor="middle" x="87" y="-662.3" font-family="Times,serif" font-size="14.00">!d</text>
</g>
<!-- !d27&#45;&gt;λ24 -->
<g id="edge8" class="edge">
<title>!d27&#45;&gt;λ24</title>
<g id="a_edge8"><a xlink:title="i167">
<path fill="none" stroke="blue" d="M103.58,-640.81C110.39,-630.89 118.08,-619.67 124.15,-610.82"/>
<polygon fill="blue" stroke="blue" points="100.66,-638.89 97.89,-649.12 106.43,-642.85 100.66,-638.89"/>
</a>
</g>
</g>
<!-- Dup28 -->
<g id="node29" class="node">
<title>Dup28</title>
<ellipse fill="none" stroke="black" cx="496" cy="-1194" rx="27" ry="18"/>
<text text-anchor="middle" x="496" y="-1190.3" font-family="Times,serif" font-size="14.00">Dup</text>
</g>
<!-- Dup29&#45;&gt;!d26 -->
<g id="edge9" class="edge">
<title>Dup29&#45;&gt;!d26</title>
<g id="a_edge9"><a xlink:title="iret171">
<path fill="none" stroke="blue" d="M117.11,-725.7C137.63,-710.8 163.48,-692.05 180.35,-679.81"/>
<polygon fill="blue" stroke="blue" points="115,-722.9 108.96,-731.61 119.11,-728.57 115,-722.9"/>
</a>
</g>
</g>
<!-- Dup29&#45;&gt;!d27 -->
<g id="edge10" class="edge">
<title>Dup29&#45;&gt;!d27</title>
<g id="a_edge10"><a xlink:title="iret174">
<path fill="none" stroke="blue" d="M85.96,-709.8C86.18,-700.77 86.4,-691.62 86.58,-684.11"/>
<polygon fill="none" stroke="blue" points="82.46,-709.78 85.71,-719.86 89.45,-709.95 82.46,-709.78"/>
</a>
</g>
</g>
</g>
</svg>
