<?xml version="1.0" encoding="UTF-8" standalone="no"?>
<!DOCTYPE svg PUBLIC "-//W3C//DTD SVG 1.1//EN"
 "http://www.w3.org/Graphics/SVG/1.1/DTD/svg11.dtd">
<!-- Generated by graphviz version 2.49.3 (0)
 -->
<!-- Pages: 1 -->
<svg width="375pt" height="1143pt"
 viewBox="0.00 0.00 375.35 1142.80" xmlns="http://www.w3.org/2000/svg" xmlns:xlink="http://www.w3.org/1999/xlink">
<g id="graph0" class="graph" transform="scale(1 1) rotate(0) translate(4 1138.8)">
<polygon fill="white" stroke="transparent" points="-4,4 -4,-1138.8 371.35,-1138.8 371.35,4 -4,4"/>
<!-- Identity0 -->
<g id="node1" class="node">
<title>Identity0</title>
<ellipse fill="none" stroke="black" cx="62" cy="-1116.8" rx="38.19" ry="18"/>
<text text-anchor="middle" x="62" y="-1113.1" font-family="Times,serif" font-size="14.00">Identity</text>
</g>
<!-- BangD1 -->
<g id="node2" class="node">
<title>BangD1</title>
<ellipse fill="none" stroke="black" cx="62" cy="-1044.8" rx="36" ry="18"/>
<text text-anchor="middle" x="62" y="-1041.1" font-family="Times,serif" font-size="14.00">BangD</text>
</g>
<!-- BangD1&#45;&gt;Identity0 -->
<g id="edge22" class="edge">
<title>BangD1&#45;&gt;Identity0</title>
<g id="a_edge22"><a xlink:title="iret84">
<path fill="none" stroke="blue" d="M56.12,-1062.74C55.29,-1070.57 55.05,-1080.05 55.41,-1088.82"/>
<polygon fill="blue" stroke="blue" points="51.93,-1089.28 56.14,-1099.01 58.92,-1088.78 51.93,-1089.28"/>
</a>
</g>
</g>
<!-- BangD1&#45;&gt;Identity0 -->
<g id="edge23" class="edge">
<title>BangD1&#45;&gt;Identity0</title>
<g id="a_edge23"><a xlink:title="iseq83">
<path fill="none" stroke="black" d="M67.88,-1062.74C68.71,-1070.57 68.95,-1080.05 68.59,-1088.82"/>
<polygon fill="black" stroke="black" points="65.08,-1088.78 67.86,-1099.01 72.07,-1089.28 65.08,-1088.78"/>
</a>
</g>
</g>
<!-- PiR2 -->
<g id="node3" class="node">
<title>PiR2</title>
<ellipse fill="none" stroke="black" cx="62" cy="-972.8" rx="27" ry="18"/>
<text text-anchor="middle" x="62" y="-969.1" font-family="Times,serif" font-size="14.00">PiR</text>
</g>
<!-- PiR2&#45;&gt;Identity0 -->
<g id="edge45" class="edge">
<title>PiR2&#45;&gt;Identity0</title>
<g id="a_edge45"><a xlink:title="ret82">
<path fill="none" stroke="red" d="M78.21,-987.23C88.63,-996.98 101.26,-1011.16 107,-1026.8 112.52,-1041.81 112.52,-1047.78 107,-1062.8 102.86,-1074.07 95.13,-1084.59 87.24,-1093.24"/>
<polygon fill="red" stroke="red" points="84.52,-1091.02 80.04,-1100.62 89.53,-1095.91 84.52,-1091.02"/>
</a>
</g>
</g>
<!-- PiR2&#45;&gt;BangD1 -->
<g id="edge18" class="edge">
<title>PiR2&#45;&gt;BangD1</title>
<g id="a_edge18"><a xlink:title="i81">
<path fill="none" stroke="blue" d="M56.16,-990.38C55.3,-998.29 55.05,-1007.94 55.41,-1016.86"/>
<polygon fill="blue" stroke="blue" points="51.92,-1017.11 56.12,-1026.84 58.9,-1016.62 51.92,-1017.11"/>
</a>
</g>
</g>
<!-- PiR2&#45;&gt;BangD1 -->
<g id="edge47" class="edge">
<title>PiR2&#45;&gt;BangD1</title>
<g id="a_edge47"><a xlink:title="seq80">
<path fill="none" stroke="black" d="M67.84,-990.38C68.7,-998.29 68.95,-1007.94 68.59,-1016.86"/>
<polygon fill="black" stroke="black" points="65.1,-1016.62 67.88,-1026.84 72.08,-1017.11 65.1,-1016.62"/>
</a>
</g>
</g>
<!-- Bang3 -->
<g id="node4" class="node">
<title>Bang3</title>
<ellipse fill="none" stroke="black" cx="62" cy="-900.8" rx="29.5" ry="18"/>
<text text-anchor="middle" x="62" y="-897.1" font-family="Times,serif" font-size="14.00">Bang</text>
</g>
<!-- Bang3&#45;&gt;PiR2 -->
<g id="edge6" class="edge">
<title>Bang3&#45;&gt;PiR2</title>
<g id="a_edge6"><a xlink:title="c_bseq79">
<path fill="none" stroke="black" d="M56.12,-918.74C55.29,-926.57 55.05,-936.05 55.41,-944.82"/>
<polygon fill="black" stroke="black" points="51.93,-945.28 56.14,-955.01 58.92,-944.78 51.93,-945.28"/>
</a>
</g>
</g>
<!-- Bang3&#45;&gt;PiR2 -->
<g id="edge40" class="edge">
<title>Bang3&#45;&gt;PiR2</title>
<g id="a_edge40"><a xlink:title="newrretf78">
<path fill="none" stroke="red" d="M67.88,-918.74C68.71,-926.57 68.95,-936.05 68.59,-944.82"/>
<polygon fill="red" stroke="red" points="65.08,-944.78 67.86,-955.01 72.07,-945.28 65.08,-944.78"/>
</a>
</g>
</g>
<!-- Identity4 -->
<g id="node5" class="node">
<title>Identity4</title>
<ellipse fill="none" stroke="black" cx="148" cy="-900.8" rx="38.19" ry="18"/>
<text text-anchor="middle" x="148" y="-897.1" font-family="Times,serif" font-size="14.00">Identity</text>
</g>
<!-- PiL5 -->
<g id="node6" class="node">
<title>PiL5</title>
<ellipse fill="none" stroke="black" cx="99" cy="-828.8" rx="27" ry="18"/>
<text text-anchor="middle" x="99" y="-825.1" font-family="Times,serif" font-size="14.00">PiL</text>
</g>
<!-- PiL5&#45;&gt;Bang3 -->
<g id="edge11" class="edge">
<title>PiL5&#45;&gt;Bang3</title>
<g id="a_edge11"><a xlink:title="dseq76">
<path fill="none" stroke="black" d="M85.52,-844.64C80.05,-853.01 74.08,-863.71 69.36,-873.45"/>
<polygon fill="black" stroke="black" points="66.08,-872.21 65.12,-882.76 72.45,-875.11 66.08,-872.21"/>
</a>
</g>
</g>
<!-- PiL5&#45;&gt;Bang3 -->
<g id="edge34" class="edge">
<title>PiL5&#45;&gt;Bang3</title>
<g id="a_edge34"><a xlink:title="newrret74">
<path fill="none" stroke="red" d="M95.92,-846.74C92.24,-855.45 86.74,-866.21 81.15,-875.76"/>
<polygon fill="red" stroke="red" points="78.07,-874.09 75.82,-884.44 84.03,-877.75 78.07,-874.09"/>
</a>
</g>
</g>
<!-- PiL5&#45;&gt;Identity4 -->
<g id="edge21" class="edge">
<title>PiL5&#45;&gt;Identity4</title>
<g id="a_edge21"><a xlink:title="idseq77">
<path fill="none" stroke="black" d="M110.11,-854.97C114.59,-861.86 119.82,-869.3 124.99,-876.1"/>
<polygon fill="black" stroke="black" points="107.74,-844.54 110.06,-854.88 101.8,-848.23 107.74,-844.54"/>
<polygon fill="black" stroke="black" points="122.49,-878.59 131.43,-884.29 127.99,-874.26 122.49,-878.59"/>
</a>
</g>
</g>
<!-- PiL5&#45;&gt;Identity4 -->
<g id="edge26" class="edge">
<title>PiL5&#45;&gt;Identity4</title>
<g id="a_edge26"><a xlink:title="lret75">
<path fill="none" stroke="blue" d="M114.46,-843.96C121.71,-852.67 130.03,-864.1 136.7,-874.34"/>
<polygon fill="blue" stroke="blue" points="133.8,-876.31 142.07,-882.94 139.74,-872.6 133.8,-876.31"/>
</a>
</g>
</g>
<!-- BangD6 -->
<g id="node7" class="node">
<title>BangD6</title>
<ellipse fill="none" stroke="black" cx="99" cy="-756.8" rx="36" ry="18"/>
<text text-anchor="middle" x="99" y="-753.1" font-family="Times,serif" font-size="14.00">BangD</text>
</g>
<!-- BangD6&#45;&gt;PiL5 -->
<g id="edge17" class="edge">
<title>BangD6&#45;&gt;PiL5</title>
<g id="a_edge17"><a xlink:title="hseq72">
<path fill="none" stroke="black" d="M93.12,-774.74C92.29,-782.57 92.05,-792.05 92.41,-800.82"/>
<polygon fill="black" stroke="black" points="88.93,-801.28 93.14,-811.01 95.92,-800.78 88.93,-801.28"/>
</a>
</g>
</g>
<!-- BangD6&#45;&gt;PiL5 -->
<g id="edge29" class="edge">
<title>BangD6&#45;&gt;PiL5</title>
<g id="a_edge29"><a xlink:title="lval70">
<path fill="none" stroke="blue" d="M104.88,-774.74C105.71,-782.57 105.95,-792.05 105.59,-800.82"/>
<polygon fill="blue" stroke="blue" points="102.08,-800.78 104.86,-811.01 109.07,-801.28 102.08,-800.78"/>
</a>
</g>
</g>
<!-- Identity7 -->
<g id="node8" class="node">
<title>Identity7</title>
<ellipse fill="none" stroke="black" cx="243" cy="-900.8" rx="38.19" ry="18"/>
<text text-anchor="middle" x="243" y="-897.1" font-family="Times,serif" font-size="14.00">Identity</text>
</g>
<!-- BangD8 -->
<g id="node9" class="node">
<title>BangD8</title>
<ellipse fill="none" stroke="black" cx="243" cy="-828.8" rx="36" ry="18"/>
<text text-anchor="middle" x="243" y="-825.1" font-family="Times,serif" font-size="14.00">BangD</text>
</g>
<!-- BangD8&#45;&gt;Identity7 -->
<g id="edge54" class="edge">
<title>BangD8&#45;&gt;Identity7</title>
<g id="a_edge54"><a xlink:title="yret60">
<path fill="none" stroke="blue" d="M237.12,-846.74C236.29,-854.57 236.05,-864.05 236.41,-872.82"/>
<polygon fill="blue" stroke="blue" points="232.93,-873.28 237.14,-883.01 239.92,-872.78 232.93,-873.28"/>
</a>
</g>
</g>
<!-- BangD8&#45;&gt;Identity7 -->
<g id="edge56" class="edge">
<title>BangD8&#45;&gt;Identity7</title>
<g id="a_edge56"><a xlink:title="yseq59">
<path fill="none" stroke="black" d="M248.88,-846.74C249.71,-854.57 249.95,-864.05 249.59,-872.82"/>
<polygon fill="black" stroke="black" points="246.08,-872.78 248.86,-883.01 253.07,-873.28 246.08,-872.78"/>
</a>
</g>
</g>
<!-- Bang9 -->
<g id="node10" class="node">
<title>Bang9</title>
<ellipse fill="none" stroke="black" cx="243" cy="-756.8" rx="29.5" ry="18"/>
<text text-anchor="middle" x="243" y="-753.1" font-family="Times,serif" font-size="14.00">Bang</text>
</g>
<!-- Bang9&#45;&gt;Identity7 -->
<g id="edge38" class="edge">
<title>Bang9&#45;&gt;Identity7</title>
<g id="a_edge38"><a xlink:title="newrretf57">
<path fill="none" stroke="red" d="M259.66,-771.66C269.99,-781.39 282.34,-795.39 288,-810.8 293.52,-825.81 293.52,-831.78 288,-846.8 283.86,-858.07 276.13,-868.59 268.24,-877.24"/>
<polygon fill="red" stroke="red" points="265.52,-875.02 261.04,-884.62 270.53,-879.91 265.52,-875.02"/>
</a>
</g>
</g>
<!-- Bang9&#45;&gt;BangD8 -->
<g id="edge4" class="edge">
<title>Bang9&#45;&gt;BangD8</title>
<g id="a_edge4"><a xlink:title="c_bseq58">
<path fill="none" stroke="black" d="M237.12,-774.74C236.29,-782.57 236.05,-792.05 236.41,-800.82"/>
<polygon fill="black" stroke="black" points="232.93,-801.28 237.14,-811.01 239.92,-800.78 232.93,-801.28"/>
</a>
</g>
</g>
<!-- Bang9&#45;&gt;BangD8 -->
<g id="edge53" class="edge">
<title>Bang9&#45;&gt;BangD8</title>
<g id="a_edge53"><a xlink:title="yBf56">
<path fill="none" stroke="blue" d="M248.88,-774.74C249.71,-782.57 249.95,-792.05 249.59,-800.82"/>
<polygon fill="blue" stroke="blue" points="246.08,-800.78 248.86,-811.01 253.07,-801.28 246.08,-800.78"/>
</a>
</g>
</g>
<!-- Identity10 -->
<g id="node11" class="node">
<title>Identity10</title>
<ellipse fill="none" stroke="black" cx="329" cy="-756.8" rx="38.19" ry="18"/>
<text text-anchor="middle" x="329" y="-753.1" font-family="Times,serif" font-size="14.00">Identity</text>
</g>
<!-- PiL11 -->
<g id="node12" class="node">
<title>PiL11</title>
<ellipse fill="none" stroke="black" cx="243" cy="-684.8" rx="27" ry="18"/>
<text text-anchor="middle" x="243" y="-681.1" font-family="Times,serif" font-size="14.00">PiL</text>
</g>
<!-- PiL11&#45;&gt;Bang9 -->
<g id="edge10" class="edge">
<title>PiL11&#45;&gt;Bang9</title>
<g id="a_edge10"><a xlink:title="dseq54">
<path fill="none" stroke="black" d="M237.16,-702.38C236.3,-710.29 236.05,-719.94 236.41,-728.86"/>
<polygon fill="black" stroke="black" points="232.92,-729.11 237.12,-738.84 239.9,-728.62 232.92,-729.11"/>
</a>
</g>
</g>
<!-- PiL11&#45;&gt;Bang9 -->
<g id="edge33" class="edge">
<title>PiL11&#45;&gt;Bang9</title>
<g id="a_edge33"><a xlink:title="newrret52">
<path fill="none" stroke="red" d="M248.84,-702.38C249.7,-710.29 249.95,-719.94 249.59,-728.86"/>
<polygon fill="red" stroke="red" points="246.1,-728.62 248.88,-738.84 253.08,-729.11 246.1,-728.62"/>
</a>
</g>
</g>
<!-- PiL11&#45;&gt;Identity10 -->
<g id="edge20" class="edge">
<title>PiL11&#45;&gt;Identity10</title>
<g id="a_edge20"><a xlink:title="idseq55">
<path fill="none" stroke="black" d="M263.56,-707.66C274.04,-716.71 286.89,-727.13 298.48,-735.96"/>
<polygon fill="black" stroke="black" points="258.3,-698.36 263.48,-707.6 253.67,-703.61 258.3,-698.36"/>
<polygon fill="black" stroke="black" points="296.53,-738.87 306.63,-742.06 300.72,-733.27 296.53,-738.87"/>
</a>
</g>
</g>
<!-- PiL11&#45;&gt;Identity10 -->
<g id="edge25" class="edge">
<title>PiL11&#45;&gt;Identity10</title>
<g id="a_edge25"><a xlink:title="lret53">
<path fill="none" stroke="blue" d="M262.37,-697.35C275.83,-707.03 293.54,-721.12 307.42,-733.05"/>
<polygon fill="blue" stroke="blue" points="305.26,-735.81 315.08,-739.77 309.87,-730.54 305.26,-735.81"/>
</a>
</g>
</g>
<!-- PiR12 -->
<g id="node13" class="node">
<title>PiR12</title>
<ellipse fill="none" stroke="black" cx="154" cy="-378" rx="27" ry="18"/>
<text text-anchor="middle" x="154" y="-374.3" font-family="Times,serif" font-size="14.00">PiR</text>
</g>
<!-- PiR12&#45;&gt;Identity10 -->
<g id="edge43" class="edge">
<title>PiR12&#45;&gt;Identity10</title>
<g id="a_edge43"><a xlink:title="ret42">
<path fill="none" stroke="red" d="M178.17,-386.39C227.68,-403.19 336,-449.22 336,-530.4 336,-530.4 336,-530.4 336,-613.8 336,-653.85 333.19,-700.18 331.13,-728.74"/>
<polygon fill="red" stroke="red" points="327.63,-728.53 330.38,-738.76 334.61,-729.05 327.63,-728.53"/>
</a>
</g>
</g>
<!-- BangC25 -->
<g id="node26" class="node">
<title>BangC25</title>
<ellipse fill="none" stroke="black" cx="154" cy="-450" rx="35.19" ry="18"/>
<text text-anchor="middle" x="154" y="-446.3" font-family="Times,serif" font-size="14.00">BangC</text>
</g>
<!-- PiR12&#45;&gt;BangC25 -->
<g id="edge13" class="edge">
<title>PiR12&#45;&gt;BangC25</title>
<g id="a_edge13"><a xlink:title="h34">
<path fill="none" stroke="blue" d="M148.16,-395.59C147.3,-403.49 147.05,-413.15 147.41,-422.06"/>
<polygon fill="blue" stroke="blue" points="143.92,-422.32 148.12,-432.04 150.9,-421.82 143.92,-422.32"/>
</a>
</g>
</g>
<!-- PiR12&#45;&gt;BangC25 -->
<g id="edge46" class="edge">
<title>PiR12&#45;&gt;BangC25</title>
<g id="a_edge46"><a xlink:title="seq33">
<path fill="none" stroke="black" d="M159.84,-395.59C160.7,-403.49 160.95,-413.15 160.59,-422.06"/>
<polygon fill="black" stroke="black" points="157.1,-421.82 159.88,-432.04 164.08,-422.32 157.1,-421.82"/>
</a>
</g>
</g>
<!-- Identity13 -->
<g id="node14" class="node">
<title>Identity13</title>
<ellipse fill="none" stroke="black" cx="112" cy="-234" rx="38.19" ry="18"/>
<text text-anchor="middle" x="112" y="-230.3" font-family="Times,serif" font-size="14.00">Identity</text>
</g>
<!-- PiL14 -->
<g id="node15" class="node">
<title>PiL14</title>
<ellipse fill="none" stroke="black" cx="139" cy="-162" rx="27" ry="18"/>
<text text-anchor="middle" x="139" y="-158.3" font-family="Times,serif" font-size="14.00">PiL</text>
</g>
<!-- PiL14&#45;&gt;Identity13 -->
<g id="edge19" class="edge">
<title>PiL14&#45;&gt;Identity13</title>
<g id="a_edge19"><a xlink:title="idseq21">
<path fill="none" stroke="black" d="M123.02,-187.63C120.43,-193.53 117.95,-199.87 115.87,-205.87"/>
<polygon fill="black" stroke="black" points="130.46,-180.02 123.04,-187.59 124.12,-177.05 130.46,-180.02"/>
<polygon fill="black" stroke="black" points="112.49,-204.95 112.8,-215.54 119.16,-207.06 112.49,-204.95"/>
</a>
</g>
</g>
<!-- PiL14&#45;&gt;Identity13 -->
<g id="edge24" class="edge">
<title>PiL14&#45;&gt;Identity13</title>
<g id="a_edge24"><a xlink:title="lret19">
<path fill="none" stroke="blue" d="M138.24,-180.3C135.92,-188.51 132.28,-198.48 128.35,-207.52"/>
<polygon fill="blue" stroke="blue" points="125.05,-206.31 124.02,-216.86 131.4,-209.26 125.05,-206.31"/>
</a>
</g>
</g>
<!-- Bang19 -->
<g id="node20" class="node">
<title>Bang19</title>
<ellipse fill="none" stroke="black" cx="198" cy="-234" rx="29.5" ry="18"/>
<text text-anchor="middle" x="198" y="-230.3" font-family="Times,serif" font-size="14.00">Bang</text>
</g>
<!-- PiL14&#45;&gt;Bang19 -->
<g id="edge9" class="edge">
<title>PiL14&#45;&gt;Bang19</title>
<g id="a_edge9"><a xlink:title="dseq20">
<path fill="none" stroke="black" d="M146.88,-179.24C153.94,-188.89 164.2,-201.25 173.77,-211.69"/>
<polygon fill="black" stroke="black" points="171.47,-214.35 180.88,-219.21 176.55,-209.54 171.47,-214.35"/>
</a>
</g>
</g>
<!-- PiL14&#45;&gt;Bang19 -->
<g id="edge32" class="edge">
<title>PiL14&#45;&gt;Bang19</title>
<g id="a_edge32"><a xlink:title="newrret18">
<path fill="none" stroke="red" d="M155.83,-176.5C164.7,-185.53 175.28,-197.67 183.73,-208.39"/>
<polygon fill="red" stroke="red" points="181.14,-210.76 189.99,-216.59 186.71,-206.51 181.14,-210.76"/>
</a>
</g>
</g>
<!-- Assign15 -->
<g id="node16" class="node">
<title>Assign15</title>
<ellipse fill="none" stroke="black" cx="139" cy="-18" rx="35.19" ry="18"/>
<text text-anchor="middle" x="139" y="-14.3" font-family="Times,serif" font-size="14.00">Assign</text>
</g>
<!-- Assign15&#45;&gt;Identity13 -->
<g id="edge44" class="edge">
<title>Assign15&#45;&gt;Identity13</title>
<g id="a_edge44"><a xlink:title="ret8">
<path fill="none" stroke="red" d="M124.51,-34.83C116.47,-44.73 107.25,-58.18 103,-72 89.03,-117.44 97.55,-173.43 104.87,-205.99"/>
<polygon fill="red" stroke="red" points="101.56,-207.16 107.28,-216.08 108.37,-205.54 101.56,-207.16"/>
</a>
</g>
</g>
<!-- Cut18 -->
<g id="node19" class="node">
<title>Cut18</title>
<ellipse fill="none" stroke="black" cx="139" cy="-90" rx="27" ry="18"/>
<text text-anchor="middle" x="139" y="-86.3" font-family="Times,serif" font-size="14.00">Cut</text>
</g>
<!-- Assign15&#45;&gt;Cut18 -->
<g id="edge50" class="edge">
<title>Assign15&#45;&gt;Cut18</title>
<g id="a_edge50"><a xlink:title="seqBC94">
<path fill="none" stroke="black" d="M139,-36.3C139,-44.02 139,-53.29 139,-61.89"/>
<polygon fill="black" stroke="black" points="135.5,-61.9 139,-71.9 142.5,-61.9 135.5,-61.9"/>
</a>
</g>
</g>
<!-- Dup16 -->
<g id="node17" class="node">
<title>Dup16</title>
<ellipse fill="none" stroke="black" cx="154" cy="-306" rx="27" ry="18"/>
<text text-anchor="middle" x="154" y="-302.3" font-family="Times,serif" font-size="14.00">Dup</text>
</g>
<!-- Dup16&#45;&gt;PiR12 -->
<g id="edge3" class="edge">
<title>Dup16&#45;&gt;PiR12</title>
<g id="a_edge3"><a xlink:title="c_bseq32">
<path fill="none" stroke="black" d="M154,-324.3C154,-332.02 154,-341.29 154,-349.89"/>
<polygon fill="black" stroke="black" points="150.5,-349.9 154,-359.9 157.5,-349.9 150.5,-349.9"/>
</a>
</g>
</g>
<!-- Dup17 -->
<g id="node18" class="node">
<title>Dup17</title>
<ellipse fill="none" stroke="black" cx="226" cy="-306" rx="27" ry="18"/>
<text text-anchor="middle" x="226" y="-302.3" font-family="Times,serif" font-size="14.00">Dup</text>
</g>
<!-- Dup17&#45;&gt;PiR12 -->
<g id="edge37" class="edge">
<title>Dup17&#45;&gt;PiR12</title>
<g id="a_edge37"><a xlink:title="newrretf31">
<path fill="none" stroke="red" d="M211.43,-321.17C201.25,-331.06 187.48,-344.45 175.97,-355.64"/>
<polygon fill="red" stroke="red" points="173.53,-353.13 168.8,-362.62 178.41,-358.15 173.53,-353.13"/>
</a>
</g>
</g>
<!-- Cut18&#45;&gt;PiL14 -->
<g id="edge27" class="edge">
<title>Cut18&#45;&gt;PiL14</title>
<g id="a_edge27"><a xlink:title="lval14">
<path fill="none" stroke="blue" d="M133.16,-107.59C132.3,-115.49 132.05,-125.15 132.41,-134.06"/>
<polygon fill="blue" stroke="blue" points="128.92,-134.32 133.12,-144.04 135.9,-133.82 128.92,-134.32"/>
</a>
</g>
</g>
<!-- Cut18&#45;&gt;PiL14 -->
<g id="edge51" class="edge">
<title>Cut18&#45;&gt;PiL14</title>
<g id="a_edge51"><a xlink:title="xseq16">
<path fill="none" stroke="black" d="M145.58,-117.81C145.8,-123.05 145.81,-128.54 145.6,-133.78"/>
<polygon fill="black" stroke="black" points="148.33,-107.34 145.57,-117.56 141.35,-107.84 148.33,-107.34"/>
<polygon fill="black" stroke="black" points="142.09,-133.82 144.88,-144.04 149.07,-134.31 142.09,-133.82"/>
</a>
</g>
</g>
<!-- Cut18&#45;&gt;Dup16 -->
<g id="edge7" class="edge">
<title>Cut18&#45;&gt;Dup16</title>
<g id="a_edge7"><a xlink:title="c_bseq86">
<path fill="none" stroke="black" d="M123.35,-105.18C93.81,-133.73 35.36,-199.85 65,-252 76.76,-272.69 100.15,-286.15 120,-294.33"/>
<polygon fill="black" stroke="black" points="118.8,-297.62 129.39,-297.93 121.3,-291.08 118.8,-297.62"/>
</a>
</g>
</g>
<!-- Cut18&#45;&gt;Dup17 -->
<g id="edge41" class="edge">
<title>Cut18&#45;&gt;Dup17</title>
<g id="a_edge41"><a xlink:title="newrretf87">
<path fill="none" stroke="red" d="M154.95,-104.79C178.07,-125.95 219.89,-168.96 236,-216 242.91,-236.17 239.55,-260.26 234.94,-278.29"/>
<polygon fill="red" stroke="red" points="231.51,-277.55 232.15,-288.13 238.24,-279.46 231.51,-277.55"/>
</a>
</g>
</g>
<!-- Bang19&#45;&gt;Dup16 -->
<g id="edge30" class="edge">
<title>Bang19&#45;&gt;Dup16</title>
<g id="a_edge30"><a xlink:title="newcut_bseq100">
<path fill="none" stroke="black" d="M187.79,-251.24C182.41,-259.81 175.68,-270.51 169.65,-280.1"/>
<polygon fill="none" stroke="black" points="166.51,-278.52 164.15,-288.85 172.43,-282.25 166.51,-278.52"/>
</a>
</g>
</g>
<!-- Bang19&#45;&gt;Dup17 -->
<g id="edge42" class="edge">
<title>Bang19&#45;&gt;Dup17</title>
<g id="a_edge42"><a xlink:title="newrretf91">
<path fill="none" stroke="red" d="M204.64,-251.59C207.91,-259.78 211.94,-269.86 215.62,-279.05"/>
<polygon fill="none" stroke="red" points="212.45,-280.55 219.41,-288.53 218.95,-277.95 212.45,-280.55"/>
</a>
</g>
</g>
<!-- Dup20 -->
<g id="node21" class="node">
<title>Dup20</title>
<ellipse fill="none" stroke="black" cx="99" cy="-684.8" rx="27" ry="18"/>
<text text-anchor="middle" x="99" y="-681.1" font-family="Times,serif" font-size="14.00">Dup</text>
</g>
<!-- Dup20&#45;&gt;BangD6 -->
<g id="edge5" class="edge">
<title>Dup20&#45;&gt;BangD6</title>
<g id="a_edge5"><a xlink:title="c_bseq67">
<path fill="none" stroke="black" d="M99,-703.1C99,-710.81 99,-720.08 99,-728.68"/>
<polygon fill="black" stroke="black" points="95.5,-728.69 99,-738.69 102.5,-728.69 95.5,-728.69"/>
</a>
</g>
</g>
<!-- Dup21 -->
<g id="node22" class="node">
<title>Dup21</title>
<ellipse fill="none" stroke="black" cx="171" cy="-684.8" rx="27" ry="18"/>
<text text-anchor="middle" x="171" y="-681.1" font-family="Times,serif" font-size="14.00">Dup</text>
</g>
<!-- Dup21&#45;&gt;Identity4 -->
<g id="edge39" class="edge">
<title>Dup21&#45;&gt;Identity4</title>
<g id="a_edge39"><a xlink:title="newrretf66">
<path fill="none" stroke="red" d="M169.16,-702.95C165.18,-739.96 155.76,-827.61 150.94,-872.41"/>
<polygon fill="red" stroke="red" points="147.44,-872.25 149.85,-882.56 154.4,-872.99 147.44,-872.25"/>
</a>
</g>
</g>
<!-- Dup22 -->
<g id="node23" class="node">
<title>Dup22</title>
<ellipse fill="none" stroke="black" cx="27" cy="-684.8" rx="27" ry="18"/>
<text text-anchor="middle" x="27" y="-681.1" font-family="Times,serif" font-size="14.00">Dup</text>
</g>
<!-- Dup22&#45;&gt;BangD6 -->
<g id="edge16" class="edge">
<title>Dup22&#45;&gt;BangD6</title>
<g id="a_edge16"><a xlink:title="hf65">
<path fill="none" stroke="blue" d="M41.57,-699.96C51.39,-709.5 64.54,-722.3 75.79,-733.23"/>
<polygon fill="blue" stroke="blue" points="73.59,-735.98 83.2,-740.44 78.47,-730.96 73.59,-735.98"/>
</a>
</g>
</g>
<!-- Bang23 -->
<g id="node24" class="node">
<title>Bang23</title>
<ellipse fill="none" stroke="black" cx="99" cy="-612.8" rx="29.5" ry="18"/>
<text text-anchor="middle" x="99" y="-609.1" font-family="Times,serif" font-size="14.00">Bang</text>
</g>
<!-- Bang23&#45;&gt;Dup20 -->
<g id="edge2" class="edge">
<title>Bang23&#45;&gt;Dup20</title>
<g id="a_edge2"><a xlink:title="c_bseq112">
<path fill="none" stroke="black" d="M99,-631.1C99,-638.81 99,-648.08 99,-656.68"/>
<polygon fill="none" stroke="black" points="95.5,-656.69 99,-666.69 102.5,-656.69 95.5,-656.69"/>
</a>
</g>
</g>
<!-- Bang23&#45;&gt;Dup21 -->
<g id="edge36" class="edge">
<title>Bang23&#45;&gt;Dup21</title>
<g id="a_edge36"><a xlink:title="newrretf114">
<path fill="none" stroke="red" d="M113.92,-628.3C123.96,-638.06 137.38,-651.11 148.68,-662.1"/>
<polygon fill="none" stroke="red" points="146.49,-664.85 156.1,-669.31 151.37,-659.83 146.49,-664.85"/>
</a>
</g>
</g>
<!-- Bang23&#45;&gt;Dup22 -->
<g id="edge15" class="edge">
<title>Bang23&#45;&gt;Dup22</title>
<g id="a_edge15"><a xlink:title="hf113">
<path fill="none" stroke="blue" d="M84.08,-628.3C74.04,-638.06 60.62,-651.11 49.32,-662.1"/>
<polygon fill="none" stroke="blue" points="46.63,-659.83 41.9,-669.31 51.51,-664.85 46.63,-659.83"/>
</a>
</g>
</g>
<!-- Cut24 -->
<g id="node25" class="node">
<title>Cut24</title>
<ellipse fill="none" stroke="black" cx="154" cy="-531.4" rx="23.31" ry="23.31"/>
<ellipse fill="none" stroke="black" cx="154" cy="-531.4" rx="27.3" ry="27.3"/>
<text text-anchor="middle" x="154" y="-527.7" font-family="Times,serif" font-size="14.00">Cut</text>
</g>
<!-- Cut24&#45;&gt;Bang9 -->
<g id="edge52" class="edge">
<title>Cut24&#45;&gt;Bang9</title>
<g id="a_edge52"><a xlink:title="yB44">
<path fill="none" stroke="blue" d="M176.21,-547.71C206.21,-569.9 258.3,-614.16 279,-666.8 284.85,-681.69 283.7,-687.5 279,-702.8 275.71,-713.48 269.46,-723.94 263.07,-732.71"/>
<polygon fill="blue" stroke="blue" points="260.12,-730.82 256.75,-740.86 265.65,-735.11 260.12,-730.82"/>
</a>
</g>
</g>
<!-- Cut24&#45;&gt;Bang23 -->
<g id="edge8" class="edge">
<title>Cut24&#45;&gt;Bang23</title>
<g id="a_edge8"><a xlink:title="dseq115">
<path fill="none" stroke="black" d="M134.81,-551.62C126.61,-562.05 117.43,-575.07 110.29,-586.34"/>
<polygon fill="black" stroke="black" points="107.28,-584.55 105.06,-594.91 113.25,-588.2 107.28,-584.55"/>
</a>
</g>
</g>
<!-- Cut24&#45;&gt;Bang23 -->
<g id="edge31" class="edge">
<title>Cut24&#45;&gt;Bang23</title>
<g id="a_edge31"><a xlink:title="newrret117">
<path fill="none" stroke="red" stroke-width="2" d="M143.2,-557.08C136.75,-567.33 128.52,-579.13 120.85,-589.15"/>
<polygon fill="red" stroke="red" stroke-width="2" points="118.04,-587.06 114.59,-597.07 123.53,-591.4 118.04,-587.06"/>
</a>
</g>
</g>
<!-- Cut26 -->
<g id="node27" class="node">
<title>Cut26</title>
<ellipse fill="none" stroke="black" cx="173" cy="-612.8" rx="27" ry="18"/>
<text text-anchor="middle" x="173" y="-609.1" font-family="Times,serif" font-size="14.00">Cut</text>
</g>
<!-- Cut24&#45;&gt;Cut26 -->
<g id="edge49" class="edge">
<title>Cut24&#45;&gt;Cut26</title>
<g id="a_edge49"><a xlink:title="seqBC118">
<path fill="none" stroke="black" d="M162.57,-568.21C163.92,-573.84 165.29,-579.58 166.58,-584.96"/>
<polygon fill="black" stroke="black" points="163.63,-557.58 162.55,-568.12 156.82,-559.21 163.63,-557.58"/>
<polygon fill="black" stroke="black" points="163.19,-585.84 168.92,-594.75 170,-584.21 163.19,-585.84"/>
</a>
</g>
</g>
<!-- BangC25&#45;&gt;Dup22 -->
<g id="edge14" class="edge">
<title>BangC25&#45;&gt;Dup22</title>
<g id="a_edge14"><a xlink:title="hf107">
<path fill="none" stroke="blue" d="M135.93,-465.52C124.49,-475.43 110.02,-489.37 100,-504 66.31,-553.21 44.31,-620.34 33.94,-657.07"/>
<polygon fill="blue" stroke="blue" points="30.48,-656.44 31.21,-667.01 37.23,-658.3 30.48,-656.44"/>
</a>
</g>
</g>
<!-- BangC25&#45;&gt;Bang23 -->
<g id="edge12" class="edge">
<title>BangC25&#45;&gt;Bang23</title>
<g id="a_edge12"><a xlink:title="h116">
<path fill="none" stroke="blue" d="M134.66,-474.84C128.46,-483.56 122.14,-493.8 118,-504 107.37,-530.18 102.68,-562.31 100.62,-584.65"/>
<polygon fill="blue" stroke="blue" points="143.54,-468.77 134.76,-474.7 137.92,-464.59 143.54,-468.77"/>
<polygon fill="blue" stroke="blue" points="97.12,-584.51 99.8,-594.76 104.09,-585.07 97.12,-584.51"/>
</a>
</g>
</g>
<!-- BangC25&#45;&gt;Cut24 -->
<g id="edge48" class="edge">
<title>BangC25&#45;&gt;Cut24</title>
<g id="a_edge48"><a xlink:title="seqBB119">
<path fill="none" stroke="black" d="M154,-468.23C154,-475.7 154,-484.76 154,-493.62"/>
<polygon fill="black" stroke="black" points="150.5,-493.83 154,-503.83 157.5,-493.83 150.5,-493.83"/>
</a>
</g>
</g>
<!-- Cut26&#45;&gt;PiL11 -->
<g id="edge28" class="edge">
<title>Cut26&#45;&gt;PiL11</title>
<g id="a_edge28"><a xlink:title="lval48">
<path fill="none" stroke="blue" d="M183.12,-629.68C192.26,-640 205.67,-653.53 217.57,-664.47"/>
<polygon fill="blue" stroke="blue" points="215.33,-667.17 225.12,-671.24 220,-661.96 215.33,-667.17"/>
</a>
</g>
</g>
<!-- Cut26&#45;&gt;PiL11 -->
<g id="edge55" class="edge">
<title>Cut26&#45;&gt;PiL11</title>
<g id="a_edge55"><a xlink:title="yseq50">
<path fill="none" stroke="black" d="M198.7,-633.37C207.74,-641.69 217.62,-651.48 225.83,-660.2"/>
<polygon fill="black" stroke="black" points="193.54,-624.03 198.64,-633.32 188.86,-629.24 193.54,-624.03"/>
<polygon fill="black" stroke="black" points="223.48,-662.83 232.82,-667.84 228.65,-658.1 223.48,-662.83"/>
</a>
</g>
</g>
<!-- Cut26&#45;&gt;Dup20 -->
<g id="edge1" class="edge">
<title>Cut26&#45;&gt;Dup20</title>
<g id="a_edge1"><a xlink:title="c_bseq106">
<path fill="none" stroke="black" d="M158.02,-627.96C147.49,-637.92 133.22,-651.43 121.34,-662.66"/>
<polygon fill="black" stroke="black" points="118.81,-660.24 113.95,-669.65 123.62,-665.32 118.81,-660.24"/>
</a>
</g>
</g>
<!-- Cut26&#45;&gt;Dup21 -->
<g id="edge35" class="edge">
<title>Cut26&#45;&gt;Dup21</title>
<g id="a_edge35"><a xlink:title="newrretf108">
<path fill="none" stroke="red" d="M172.51,-631.1C172.29,-638.81 172.02,-648.08 171.77,-656.68"/>
<polygon fill="red" stroke="red" points="168.28,-656.6 171.49,-666.69 175.27,-656.8 168.28,-656.6"/>
</a>
</g>
</g>
</g>
</svg>
