<?xml version="1.0" encoding="UTF-8" standalone="no"?>
<!DOCTYPE svg PUBLIC "-//W3C//DTD SVG 1.1//EN"
 "http://www.w3.org/Graphics/SVG/1.1/DTD/svg11.dtd">
<!-- Generated by graphviz version 2.49.3 (0)
 -->
<!-- Pages: 1 -->
<svg width="658pt" height="716pt"
 viewBox="0.00 0.00 657.60 716.00" xmlns="http://www.w3.org/2000/svg" xmlns:xlink="http://www.w3.org/1999/xlink">
<g id="graph0" class="graph" transform="scale(1 1) rotate(0) translate(4 712)">
<polygon fill="white" stroke="transparent" points="-4,4 -4,-712 653.6,-712 653.6,4 -4,4"/>
<!-- I0 -->
<g id="node1" class="node">
<title>I0</title>
<ellipse fill="none" stroke="black" cx="397" cy="-678" rx="27" ry="18"/>
<text text-anchor="middle" x="397" y="-674.3" font-family="Times,serif" font-size="14.00">I</text>
</g>
<!-- @1 -->
<g id="node2" class="node">
<title>@1</title>
<ellipse fill="none" stroke="black" cx="298" cy="-594" rx="27" ry="18"/>
<text text-anchor="middle" x="298" y="-590.3" font-family="Times,serif" font-size="14.00">@</text>
</g>
<!-- I0&#45;&gt;@1 -->
<g id="edge15" class="edge">
<title>I0&#45;&gt;@1</title>
<g id="a_edge15"><a xlink:title="lret53">
<path fill="none" stroke="blue" d="M372.8,-656.95C354.65,-641.92 330.29,-621.74 314.37,-608.56"/>
<polygon fill="blue" stroke="blue" points="370.72,-659.77 380.65,-663.46 375.18,-654.38 370.72,-659.77"/>
</a>
</g>
</g>
<!-- !p4 -->
<g id="node5" class="node">
<title>!p4</title>
<ellipse fill="none" stroke="black" cx="298" cy="-522" rx="27" ry="18"/>
<text text-anchor="middle" x="298" y="-518.3" font-family="Times,serif" font-size="14.00">!p</text>
</g>
<!-- @1&#45;&gt;!p4 -->
<g id="edge22" class="edge">
<title>@1&#45;&gt;!p4</title>
<g id="a_edge22"><a xlink:title="newrret52">
<path fill="none" stroke="red" d="M298,-575.7C298,-567.98 298,-558.71 298,-550.11"/>
<polygon fill="red" stroke="red" points="301.5,-550.1 298,-540.1 294.5,-550.1 301.5,-550.1"/>
</a>
</g>
</g>
<!-- @11 -->
<g id="node12" class="node">
<title>@11</title>
<ellipse fill="none" stroke="black" cx="90" cy="-522" rx="27" ry="18"/>
<text text-anchor="middle" x="90" y="-518.3" font-family="Times,serif" font-size="14.00">@</text>
</g>
<!-- @1&#45;&gt;@11 -->
<g id="edge18" class="edge">
<title>@1&#45;&gt;@11</title>
<g id="a_edge18"><a xlink:title="lval48">
<path fill="none" stroke="blue" d="M264.57,-581.75C222.29,-567.52 150.55,-543.38 113.58,-530.94"/>
<polygon fill="blue" stroke="blue" points="263.55,-585.1 274.14,-584.97 265.78,-578.46 263.55,-585.1"/>
</a>
</g>
</g>
<!-- Assign2 -->
<g id="node3" class="node">
<title>Assign2</title>
<ellipse fill="none" stroke="black" cx="460" cy="-90" rx="35.19" ry="18"/>
<text text-anchor="middle" x="460" y="-86.3" font-family="Times,serif" font-size="14.00">Assign</text>
</g>
<!-- Dup7 -->
<g id="node8" class="node">
<title>Dup7</title>
<ellipse fill="none" stroke="black" cx="397" cy="-18" rx="27" ry="18"/>
<text text-anchor="middle" x="397" y="-14.3" font-family="Times,serif" font-size="14.00">Dup</text>
</g>
<!-- Assign2&#45;&gt;Dup7 -->
<g id="edge27" class="edge">
<title>Assign2&#45;&gt;Dup7</title>
<g id="a_edge27"><a xlink:title="ret133">
<path fill="none" stroke="red" d="M446.02,-73.46C437.58,-64.09 426.69,-51.99 417.32,-41.57"/>
<polygon fill="red" stroke="red" points="419.8,-39.1 410.51,-34.01 414.6,-43.79 419.8,-39.1"/>
</a>
</g>
</g>
<!-- !p3 -->
<g id="node4" class="node">
<title>!p3</title>
<ellipse fill="none" stroke="black" cx="169" cy="-162" rx="27" ry="18"/>
<text text-anchor="middle" x="169" y="-158.3" font-family="Times,serif" font-size="14.00">!p</text>
</g>
<!-- λ5 -->
<g id="node6" class="node">
<title>λ5</title>
<ellipse fill="none" stroke="black" cx="224" cy="-90" rx="27" ry="18"/>
<text text-anchor="middle" x="224" y="-86.3" font-family="Times,serif" font-size="14.00">λ</text>
</g>
<!-- !p3&#45;&gt;λ5 -->
<g id="edge26" class="edge">
<title>!p3&#45;&gt;λ5</title>
<g id="a_edge26"><a xlink:title="newrretf91">
<path fill="none" stroke="red" d="M180.93,-145.81C188.21,-136.55 197.66,-124.52 205.85,-114.09"/>
<polygon fill="red" stroke="red" points="208.66,-116.18 212.09,-106.16 203.16,-111.86 208.66,-116.18"/>
</a>
</g>
</g>
<!-- I21 -->
<g id="node22" class="node">
<title>I21</title>
<ellipse fill="none" stroke="black" cx="325" cy="-450" rx="27" ry="18"/>
<text text-anchor="middle" x="325" y="-446.3" font-family="Times,serif" font-size="14.00">I</text>
</g>
<!-- !p4&#45;&gt;I21 -->
<g id="edge23" class="edge">
<title>!p4&#45;&gt;I21</title>
<g id="a_edge23"><a xlink:title="newrretf114">
<path fill="none" stroke="red" d="M304.4,-504.41C307.51,-496.34 311.33,-486.43 314.83,-477.35"/>
<polygon fill="red" stroke="red" points="318.13,-478.55 318.46,-467.96 311.6,-476.03 318.13,-478.55"/>
</a>
</g>
</g>
<!-- Dup26 -->
<g id="node27" class="node">
<title>Dup26</title>
<ellipse fill="none" stroke="black" cx="198" cy="-378" rx="27" ry="18"/>
<text text-anchor="middle" x="198" y="-374.3" font-family="Times,serif" font-size="14.00">Dup</text>
</g>
<!-- !p4&#45;&gt;Dup26 -->
<g id="edge1" class="edge">
<title>!p4&#45;&gt;Dup26</title>
<g id="a_edge1"><a xlink:title="h116">
<path fill="none" stroke="blue" d="M279.05,-498.05C271.67,-488.85 263.25,-478.07 256,-468 238.12,-443.15 219.04,-413.11 207.83,-395.05"/>
<polygon fill="blue" stroke="blue" points="276.47,-500.42 285.49,-505.98 281.91,-496.01 276.47,-500.42"/>
</a>
</g>
</g>
<!-- λ5&#45;&gt;Dup7 -->
<g id="edge28" class="edge">
<title>λ5&#45;&gt;Dup7</title>
<g id="a_edge28"><a xlink:title="ret137">
<path fill="none" stroke="red" d="M246.62,-79.85C276.79,-67.64 330.41,-45.95 364.8,-32.03"/>
<polygon fill="none" stroke="red" points="366.42,-35.15 374.38,-28.15 363.79,-28.66 366.42,-35.15"/>
</a>
</g>
</g>
<!-- Dup6 -->
<g id="node7" class="node">
<title>Dup6</title>
<ellipse fill="none" stroke="black" cx="472" cy="-678" rx="26" ry="26"/>
<ellipse fill="none" stroke="black" cx="472" cy="-678" rx="30" ry="30"/>
<text text-anchor="middle" x="472" y="-674.3" font-family="Times,serif" font-size="14.00">Dup</text>
</g>
<!-- Dup7&#45;&gt;I0 -->
<g id="edge31" class="edge">
<title>Dup7&#45;&gt;I0</title>
<g id="a_edge31"><a xlink:title="ret42">
<path fill="none" stroke="red" d="M397,-36.05C397,-62.71 397,-115.89 397,-161 397,-523 397,-523 397,-523 397,-567.29 397,-618.74 397,-649.54"/>
<polygon fill="red" stroke="red" points="393.5,-649.91 397,-659.91 400.5,-649.91 393.5,-649.91"/>
</a>
</g>
</g>
<!-- Cut8 -->
<g id="node9" class="node">
<title>Cut8</title>
<ellipse fill="none" stroke="black" cx="169" cy="-234" rx="27" ry="18"/>
<text text-anchor="middle" x="169" y="-230.3" font-family="Times,serif" font-size="14.00">Cut</text>
</g>
<!-- Cut8&#45;&gt;!p3 -->
<g id="edge21" class="edge">
<title>Cut8&#45;&gt;!p3</title>
<g id="a_edge21"><a xlink:title="newrret18">
<path fill="none" stroke="red" d="M169,-215.7C169,-207.98 169,-198.71 169,-190.11"/>
<polygon fill="red" stroke="red" points="172.5,-190.1 169,-180.1 165.5,-190.1 172.5,-190.1"/>
</a>
</g>
</g>
<!-- !d9 -->
<g id="node10" class="node">
<title>!d9</title>
<ellipse fill="none" stroke="black" cx="126" cy="-450" rx="27" ry="18"/>
<text text-anchor="middle" x="126" y="-446.3" font-family="Times,serif" font-size="14.00">!d</text>
</g>
<!-- Dup25 -->
<g id="node26" class="node">
<title>Dup25</title>
<ellipse fill="none" stroke="black" cx="126" cy="-378" rx="27" ry="18"/>
<text text-anchor="middle" x="126" y="-374.3" font-family="Times,serif" font-size="14.00">Dup</text>
</g>
<!-- !d9&#45;&gt;Dup25 -->
<g id="edge6" class="edge">
<title>!d9&#45;&gt;Dup25</title>
<g id="a_edge6"><a xlink:title="hf107">
<path fill="none" stroke="blue" d="M126,-421.67C126,-413.05 126,-403.79 126,-396.1"/>
<polygon fill="blue" stroke="blue" points="122.5,-421.7 126,-431.7 129.5,-421.7 122.5,-421.7"/>
</a>
</g>
</g>
<!-- !d10 -->
<g id="node11" class="node">
<title>!d10</title>
<ellipse fill="none" stroke="black" cx="270" cy="-306" rx="27" ry="18"/>
<text text-anchor="middle" x="270" y="-302.3" font-family="Times,serif" font-size="14.00">!d</text>
</g>
<!-- !d10&#45;&gt;!p4 -->
<g id="edge7" class="edge">
<title>!d10&#45;&gt;!p4</title>
<g id="a_edge7"><a xlink:title="hf113">
<path fill="none" stroke="blue" d="M272.81,-334.4C276.19,-366.48 282.27,-421.2 289,-468 290.73,-480.01 293.02,-493.49 294.86,-503.85"/>
<polygon fill="blue" stroke="blue" points="276.28,-334.01 271.76,-324.43 269.32,-334.74 276.28,-334.01"/>
</a>
</g>
</g>
<!-- @11&#45;&gt;!d9 -->
<g id="edge16" class="edge">
<title>@11&#45;&gt;!d9</title>
<g id="a_edge16"><a xlink:title="lval141">
<path fill="none" stroke="blue" d="M103.01,-495.7C107.91,-486.18 113.34,-475.61 117.7,-467.15"/>
<polygon fill="blue" stroke="blue" points="99.81,-494.27 98.35,-504.76 106.04,-497.47 99.81,-494.27"/>
</a>
</g>
</g>
<!-- !p13 -->
<g id="node14" class="node">
<title>!p13</title>
<ellipse fill="none" stroke="black" cx="54" cy="-450" rx="27" ry="18"/>
<text text-anchor="middle" x="54" y="-446.3" font-family="Times,serif" font-size="14.00">!p</text>
</g>
<!-- @11&#45;&gt;!p13 -->
<g id="edge19" class="edge">
<title>@11&#45;&gt;!p13</title>
<g id="a_edge19"><a xlink:title="newrret147">
<path fill="none" stroke="red" d="M81.65,-504.76C77.29,-496.28 71.85,-485.71 66.96,-476.2"/>
<polygon fill="red" stroke="red" points="69.99,-474.44 62.3,-467.15 63.77,-477.64 69.99,-474.44"/>
</a>
</g>
</g>
<!-- @12 -->
<g id="node13" class="node">
<title>@12</title>
<ellipse fill="none" stroke="black" cx="334" cy="-378" rx="27" ry="18"/>
<text text-anchor="middle" x="334" y="-374.3" font-family="Times,serif" font-size="14.00">@</text>
</g>
<!-- @12&#45;&gt;!d10 -->
<g id="edge17" class="edge">
<title>@12&#45;&gt;!d10</title>
<g id="a_edge17"><a xlink:title="lval144">
<path fill="none" stroke="blue" d="M313.64,-354.73C303.81,-343.98 292.29,-331.38 283.55,-321.82"/>
<polygon fill="blue" stroke="blue" points="311.1,-357.14 320.43,-362.15 316.26,-352.41 311.1,-357.14"/>
</a>
</g>
</g>
<!-- !p14 -->
<g id="node15" class="node">
<title>!p14</title>
<ellipse fill="none" stroke="black" cx="342" cy="-306" rx="27" ry="18"/>
<text text-anchor="middle" x="342" y="-302.3" font-family="Times,serif" font-size="14.00">!p</text>
</g>
<!-- @12&#45;&gt;!p14 -->
<g id="edge20" class="edge">
<title>@12&#45;&gt;!p14</title>
<g id="a_edge20"><a xlink:title="newrret152">
<path fill="none" stroke="red" d="M335.98,-359.7C336.86,-351.98 337.92,-342.71 338.9,-334.11"/>
<polygon fill="red" stroke="red" points="342.39,-334.44 340.05,-324.1 335.43,-333.64 342.39,-334.44"/>
</a>
</g>
</g>
<!-- λ15 -->
<g id="node16" class="node">
<title>λ15</title>
<ellipse fill="none" stroke="black" cx="54" cy="-378" rx="27" ry="18"/>
<text text-anchor="middle" x="54" y="-374.3" font-family="Times,serif" font-size="14.00">λ</text>
</g>
<!-- !p13&#45;&gt;λ15 -->
<g id="edge24" class="edge">
<title>!p13&#45;&gt;λ15</title>
<g id="a_edge24"><a xlink:title="newrretf157">
<path fill="none" stroke="red" d="M54,-431.7C54,-423.98 54,-414.71 54,-406.11"/>
<polygon fill="red" stroke="red" points="57.5,-406.1 54,-396.1 50.5,-406.1 57.5,-406.1"/>
</a>
</g>
</g>
<!-- λ16 -->
<g id="node17" class="node">
<title>λ16</title>
<ellipse fill="none" stroke="black" cx="342" cy="-234" rx="27" ry="18"/>
<text text-anchor="middle" x="342" y="-230.3" font-family="Times,serif" font-size="14.00">λ</text>
</g>
<!-- !p14&#45;&gt;λ16 -->
<g id="edge25" class="edge">
<title>!p14&#45;&gt;λ16</title>
<g id="a_edge25"><a xlink:title="newrretf160">
<path fill="none" stroke="red" d="M342,-287.7C342,-279.98 342,-270.71 342,-262.11"/>
<polygon fill="red" stroke="red" points="345.5,-262.1 342,-252.1 338.5,-262.1 345.5,-262.1"/>
</a>
</g>
</g>
<!-- I19 -->
<g id="node20" class="node">
<title>I19</title>
<ellipse fill="none" stroke="black" cx="54" cy="-306" rx="27" ry="18"/>
<text text-anchor="middle" x="54" y="-302.3" font-family="Times,serif" font-size="14.00">I</text>
</g>
<!-- λ15&#45;&gt;I19 -->
<g id="edge29" class="edge">
<title>λ15&#45;&gt;I19</title>
<g id="a_edge29"><a xlink:title="ret164">
<path fill="none" stroke="red" d="M54,-359.7C54,-351.98 54,-342.71 54,-334.11"/>
<polygon fill="red" stroke="red" points="57.5,-334.1 54,-324.1 50.5,-334.1 57.5,-334.1"/>
</a>
</g>
</g>
<!-- I20 -->
<g id="node21" class="node">
<title>I20</title>
<ellipse fill="none" stroke="black" cx="342" cy="-162" rx="27" ry="18"/>
<text text-anchor="middle" x="342" y="-158.3" font-family="Times,serif" font-size="14.00">I</text>
</g>
<!-- λ16&#45;&gt;I20 -->
<g id="edge30" class="edge">
<title>λ16&#45;&gt;I20</title>
<g id="a_edge30"><a xlink:title="ret168">
<path fill="none" stroke="red" d="M342,-215.7C342,-207.98 342,-198.71 342,-190.11"/>
<polygon fill="red" stroke="red" points="345.5,-190.1 342,-180.1 338.5,-190.1 345.5,-190.1"/>
</a>
</g>
</g>
<!-- !d17 -->
<g id="node18" class="node">
<title>!d17</title>
<ellipse fill="none" stroke="black" cx="27" cy="-234" rx="27" ry="18"/>
<text text-anchor="middle" x="27" y="-230.3" font-family="Times,serif" font-size="14.00">!d</text>
</g>
<!-- !d17&#45;&gt;λ15 -->
<g id="edge10" class="edge">
<title>!d17&#45;&gt;λ15</title>
<g id="a_edge10"><a xlink:title="i163">
<path fill="none" stroke="blue" d="M18.93,-261.59C14.77,-279.57 11.74,-303.65 18,-324 22.38,-338.25 32.04,-352.1 40.25,-362.07"/>
<polygon fill="blue" stroke="blue" points="22.35,-262.35 21.45,-251.79 15.57,-260.6 22.35,-262.35"/>
</a>
</g>
</g>
<!-- !d18 -->
<g id="node19" class="node">
<title>!d18</title>
<ellipse fill="none" stroke="black" cx="332" cy="-90" rx="27" ry="18"/>
<text text-anchor="middle" x="332" y="-86.3" font-family="Times,serif" font-size="14.00">!d</text>
</g>
<!-- !d18&#45;&gt;λ16 -->
<g id="edge11" class="edge">
<title>!d18&#45;&gt;λ16</title>
<g id="a_edge11"><a xlink:title="i167">
<path fill="none" stroke="blue" d="M316.82,-116.02C312.43,-124.59 308.22,-134.43 306,-144 302.38,-159.59 301.3,-164.71 306,-180 310.38,-194.25 320.04,-208.1 328.25,-218.07"/>
<polygon fill="blue" stroke="blue" points="320.04,-117.44 321.76,-106.98 313.89,-114.08 320.04,-117.44"/>
</a>
</g>
</g>
<!-- I19&#45;&gt;!d17 -->
<g id="edge12" class="edge">
<title>I19&#45;&gt;!d17</title>
<g id="a_edge12"><a xlink:title="iret171">
<path fill="none" stroke="blue" d="M43.99,-279.06C40.5,-270.01 36.68,-260.09 33.54,-251.96"/>
<polygon fill="blue" stroke="blue" points="40.74,-280.34 47.6,-288.41 47.27,-277.82 40.74,-280.34"/>
</a>
</g>
</g>
<!-- I20&#45;&gt;!d18 -->
<g id="edge13" class="edge">
<title>I20&#45;&gt;!d18</title>
<g id="a_edge13"><a xlink:title="iret174">
<path fill="none" stroke="blue" d="M338.14,-134.01C336.91,-125.36 335.58,-116.03 334.47,-108.28"/>
<polygon fill="blue" stroke="blue" points="334.7,-134.65 339.58,-144.05 341.63,-133.66 334.7,-134.65"/>
</a>
</g>
</g>
<!-- I21&#45;&gt;@12 -->
<g id="edge14" class="edge">
<title>I21&#45;&gt;@12</title>
<g id="a_edge14"><a xlink:title="lret154">
<path fill="none" stroke="blue" d="M328.47,-422.01C329.58,-413.36 330.78,-404.03 331.78,-396.28"/>
<polygon fill="blue" stroke="blue" points="324.98,-421.69 327.18,-432.05 331.93,-422.58 324.98,-421.69"/>
</a>
</g>
</g>
<!-- !c22 -->
<g id="node23" class="node">
<title>!c22</title>
<ellipse fill="none" stroke="black" cx="126" cy="-306" rx="27" ry="18"/>
<text text-anchor="middle" x="126" y="-302.3" font-family="Times,serif" font-size="14.00">!c</text>
</g>
<!-- !c22&#45;&gt;Cut8 -->
<g id="edge2" class="edge">
<title>!c22&#45;&gt;Cut8</title>
<g id="a_edge2"><a xlink:title="h132">
<path fill="none" stroke="blue" d="M141.04,-280.51C147.09,-270.66 153.9,-259.58 159.28,-250.82"/>
<polygon fill="blue" stroke="blue" points="138.01,-278.76 135.76,-289.12 143.97,-282.43 138.01,-278.76"/>
</a>
</g>
</g>
<!-- !c23 -->
<g id="node24" class="node">
<title>!c23</title>
<ellipse fill="none" stroke="black" cx="198" cy="-306" rx="27" ry="18"/>
<text text-anchor="middle" x="198" y="-302.3" font-family="Times,serif" font-size="14.00">!c</text>
</g>
<!-- !c23&#45;&gt;λ5 -->
<g id="edge3" class="edge">
<title>!c23&#45;&gt;λ5</title>
<g id="a_edge3"><a xlink:title="h136">
<path fill="none" stroke="blue" d="M201.65,-277.89C202.75,-269.58 203.95,-260.42 205,-252 211.53,-199.77 218.66,-137.94 222.03,-108.4"/>
<polygon fill="blue" stroke="blue" points="198.18,-277.45 200.33,-287.82 205.12,-278.37 198.18,-277.45"/>
</a>
</g>
</g>
<!-- Dup24 -->
<g id="node25" class="node">
<title>Dup24</title>
<ellipse fill="none" stroke="black" cx="547" cy="-678" rx="27" ry="18"/>
<text text-anchor="middle" x="547" y="-674.3" font-family="Times,serif" font-size="14.00">Dup</text>
</g>
<!-- Dup25&#45;&gt;!c22 -->
<g id="edge8" class="edge">
<title>Dup25&#45;&gt;!c22</title>
<g id="a_edge8"><a xlink:title="hf185">
<path fill="none" stroke="blue" d="M126,-349.67C126,-341.05 126,-331.79 126,-324.1"/>
<polygon fill="blue" stroke="blue" points="122.5,-349.7 126,-359.7 129.5,-349.7 122.5,-349.7"/>
</a>
</g>
</g>
<!-- Dup25&#45;&gt;!c23 -->
<g id="edge9" class="edge">
<title>Dup25&#45;&gt;!c23</title>
<g id="a_edge9"><a xlink:title="hf189">
<path fill="none" stroke="blue" d="M148.04,-355.57C159.45,-344.48 173.07,-331.24 183.2,-321.38"/>
<polygon fill="none" stroke="blue" points="145.3,-353.35 140.57,-362.83 150.18,-358.37 145.3,-353.35"/>
</a>
</g>
</g>
<!-- Dup26&#45;&gt;!c22 -->
<g id="edge4" class="edge">
<title>Dup26&#45;&gt;!c22</title>
<g id="a_edge4"><a xlink:title="h186">
<path fill="none" stroke="blue" d="M175.96,-355.57C167.13,-346.99 156.99,-337.13 148.15,-328.54"/>
<polygon fill="blue" stroke="blue" points="173.82,-358.37 183.43,-362.83 178.7,-353.35 173.82,-358.37"/>
<polygon fill="blue" stroke="blue" points="143.24,-318.88 147.97,-328.36 138.36,-323.89 143.24,-318.88"/>
</a>
</g>
</g>
<!-- Dup26&#45;&gt;!c23 -->
<g id="edge5" class="edge">
<title>Dup26&#45;&gt;!c23</title>
<g id="a_edge5"><a xlink:title="h190">
<path fill="none" stroke="blue" d="M198,-349.67C198,-344.69 198,-339.49 198,-334.51"/>
<polygon fill="none" stroke="blue" points="194.5,-349.7 198,-359.7 201.5,-349.7 194.5,-349.7"/>
<polygon fill="blue" stroke="blue" points="201.5,-324.1 198,-334.1 194.5,-324.1 201.5,-324.1"/>
</a>
</g>
</g>
<!-- DupI27 -->
<g id="node28" class="node">
<title>DupI27</title>
<ellipse fill="none" stroke="black" cx="621" cy="-678" rx="28.7" ry="18"/>
<text text-anchor="middle" x="621" y="-674.3" font-family="Times,serif" font-size="14.00">DupI</text>
</g>
</g>
</svg>
