<?xml version="1.0" encoding="UTF-8" standalone="no"?>
<!DOCTYPE svg PUBLIC "-//W3C//DTD SVG 1.1//EN"
 "http://www.w3.org/Graphics/SVG/1.1/DTD/svg11.dtd">
<!-- Generated by graphviz version 2.49.3 (0)
 -->
<!-- Pages: 1 -->
<svg width="526pt" height="788pt"
 viewBox="0.00 0.00 526.00 788.00" xmlns="http://www.w3.org/2000/svg" xmlns:xlink="http://www.w3.org/1999/xlink">
<g id="graph0" class="graph" transform="scale(1 1) rotate(0) translate(4 784)">
<polygon fill="white" stroke="transparent" points="-4,4 -4,-784 522,-784 522,4 -4,4"/>
<!-- I0 -->
<g id="node1" class="node">
<title>I0</title>
<ellipse fill="none" stroke="black" cx="82" cy="-690" rx="27" ry="18"/>
<text text-anchor="middle" x="82" y="-686.3" font-family="Times,serif" font-size="14.00">I</text>
</g>
<!-- !d1 -->
<g id="node2" class="node">
<title>!d1</title>
<ellipse fill="none" stroke="black" cx="27" cy="-618" rx="27" ry="18"/>
<text text-anchor="middle" x="27" y="-614.3" font-family="Times,serif" font-size="14.00">!d</text>
</g>
<!-- I0&#45;&gt;!d1 -->
<g id="edge7" class="edge">
<title>I0&#45;&gt;!d1</title>
<g id="a_edge7"><a xlink:title="iret84">
<path fill="none" stroke="blue" d="M63.83,-665.87C55.63,-655.44 46.19,-643.41 38.91,-634.15"/>
<polygon fill="blue" stroke="blue" points="61.14,-668.11 70.07,-673.81 66.64,-663.78 61.14,-668.11"/>
</a>
</g>
</g>
<!-- λ2 -->
<g id="node3" class="node">
<title>λ2</title>
<ellipse fill="none" stroke="black" cx="82" cy="-546" rx="27" ry="18"/>
<text text-anchor="middle" x="82" y="-542.3" font-family="Times,serif" font-size="14.00">λ</text>
</g>
<!-- !d1&#45;&gt;λ2 -->
<g id="edge6" class="edge">
<title>!d1&#45;&gt;λ2</title>
<g id="a_edge6"><a xlink:title="i81">
<path fill="none" stroke="blue" d="M45.17,-593.87C53.37,-583.44 62.81,-571.41 70.09,-562.15"/>
<polygon fill="blue" stroke="blue" points="42.36,-591.78 38.93,-601.81 47.86,-596.11 42.36,-591.78"/>
</a>
</g>
</g>
<!-- λ2&#45;&gt;I0 -->
<g id="edge26" class="edge">
<title>λ2&#45;&gt;I0</title>
<g id="a_edge26"><a xlink:title="ret82">
<path fill="none" stroke="red" d="M82,-564.18C82,-588.42 82,-632.88 82,-661.67"/>
<polygon fill="red" stroke="red" points="78.5,-661.87 82,-671.87 85.5,-661.87 78.5,-661.87"/>
</a>
</g>
</g>
<!-- !p3 -->
<g id="node4" class="node">
<title>!p3</title>
<ellipse fill="none" stroke="black" cx="137" cy="-618" rx="27" ry="18"/>
<text text-anchor="middle" x="137" y="-614.3" font-family="Times,serif" font-size="14.00">!p</text>
</g>
<!-- !p3&#45;&gt;λ2 -->
<g id="edge21" class="edge">
<title>!p3&#45;&gt;λ2</title>
<g id="a_edge21"><a xlink:title="newrretf78">
<path fill="none" stroke="red" d="M125.07,-601.81C117.79,-592.54 108.34,-580.52 100.15,-570.09"/>
<polygon fill="red" stroke="red" points="102.84,-567.86 93.91,-562.15 97.34,-572.18 102.84,-567.86"/>
</a>
</g>
</g>
<!-- I4 -->
<g id="node5" class="node">
<title>I4</title>
<ellipse fill="none" stroke="black" cx="271" cy="-18" rx="27" ry="18"/>
<text text-anchor="middle" x="271" y="-14.3" font-family="Times,serif" font-size="14.00">I</text>
</g>
<!-- @5 -->
<g id="node6" class="node">
<title>@5</title>
<ellipse fill="none" stroke="black" cx="173" cy="-690" rx="27" ry="18"/>
<text text-anchor="middle" x="173" y="-686.3" font-family="Times,serif" font-size="14.00">@</text>
</g>
<!-- I4&#45;&gt;@5 -->
<g id="edge10" class="edge">
<title>I4&#45;&gt;@5</title>
<g id="a_edge10"><a xlink:title="lret75">
<path fill="none" stroke="blue" d="M249.65,-40.74C226.25,-66.95 192,-113.45 192,-161 192,-547 192,-547 192,-547 192,-592.51 182.29,-645.52 176.75,-672.04"/>
<polygon fill="blue" stroke="blue" points="252.32,-43.01 256.51,-33.28 247.16,-38.27 252.32,-43.01"/>
</a>
</g>
</g>
<!-- @5&#45;&gt;!p3 -->
<g id="edge16" class="edge">
<title>@5&#45;&gt;!p3</title>
<g id="a_edge16"><a xlink:title="newrret74">
<path fill="none" stroke="red" d="M164.65,-672.76C160.29,-664.28 154.85,-653.71 149.96,-644.19"/>
<polygon fill="red" stroke="red" points="152.99,-642.43 145.3,-635.14 146.77,-645.64 152.99,-642.43"/>
</a>
</g>
</g>
<!-- !d6 -->
<g id="node7" class="node">
<title>!d6</title>
<ellipse fill="none" stroke="black" cx="247" cy="-618" rx="27" ry="18"/>
<text text-anchor="middle" x="247" y="-614.3" font-family="Times,serif" font-size="14.00">!d</text>
</g>
<!-- @5&#45;&gt;!d6 -->
<g id="edge13" class="edge">
<title>@5&#45;&gt;!d6</title>
<g id="a_edge13"><a xlink:title="lval70">
<path fill="none" stroke="blue" d="M195.37,-667.83C207.25,-656.6 221.52,-643.1 232.05,-633.14"/>
<polygon fill="blue" stroke="blue" points="192.83,-665.42 187.98,-674.83 197.64,-670.5 192.83,-665.42"/>
</a>
</g>
</g>
<!-- Dup19 -->
<g id="node20" class="node">
<title>Dup19</title>
<ellipse fill="none" stroke="black" cx="247" cy="-546" rx="27" ry="18"/>
<text text-anchor="middle" x="247" y="-542.3" font-family="Times,serif" font-size="14.00">Dup</text>
</g>
<!-- !d6&#45;&gt;Dup19 -->
<g id="edge5" class="edge">
<title>!d6&#45;&gt;Dup19</title>
<g id="a_edge5"><a xlink:title="hf65">
<path fill="none" stroke="blue" d="M247,-589.66C247,-581.05 247,-571.79 247,-564.1"/>
<polygon fill="blue" stroke="blue" points="243.5,-589.69 247,-599.69 250.5,-589.69 243.5,-589.69"/>
</a>
</g>
</g>
<!-- I7 -->
<g id="node8" class="node">
<title>I7</title>
<ellipse fill="none" stroke="black" cx="349" cy="-306" rx="27" ry="18"/>
<text text-anchor="middle" x="349" y="-302.3" font-family="Times,serif" font-size="14.00">I</text>
</g>
<!-- @8 -->
<g id="node9" class="node">
<title>@8</title>
<ellipse fill="none" stroke="black" cx="339" cy="-234" rx="27" ry="18"/>
<text text-anchor="middle" x="339" y="-230.3" font-family="Times,serif" font-size="14.00">@</text>
</g>
<!-- I7&#45;&gt;@8 -->
<g id="edge9" class="edge">
<title>I7&#45;&gt;@8</title>
<g id="a_edge9"><a xlink:title="lret53">
<path fill="none" stroke="blue" d="M345.14,-278.01C343.91,-269.36 342.58,-260.03 341.47,-252.28"/>
<polygon fill="blue" stroke="blue" points="341.7,-278.65 346.58,-288.05 348.63,-277.66 341.7,-278.65"/>
</a>
</g>
</g>
<!-- Cut21 -->
<g id="node22" class="node">
<title>Cut21</title>
<ellipse fill="none" stroke="black" cx="343" cy="-162" rx="27" ry="18"/>
<text text-anchor="middle" x="343" y="-158.3" font-family="Times,serif" font-size="14.00">Cut</text>
</g>
<!-- @8&#45;&gt;Cut21 -->
<g id="edge12" class="edge">
<title>@8&#45;&gt;Cut21</title>
<g id="a_edge12"><a xlink:title="lval48">
<path fill="none" stroke="blue" d="M340.56,-205.67C341.05,-197.05 341.58,-187.79 342.02,-180.1"/>
<polygon fill="blue" stroke="blue" points="337.07,-205.51 339.99,-215.7 344.05,-205.91 337.07,-205.51"/>
</a>
</g>
</g>
<!-- !p22 -->
<g id="node23" class="node">
<title>!p22</title>
<ellipse fill="none" stroke="black" cx="271" cy="-162" rx="27" ry="18"/>
<text text-anchor="middle" x="271" y="-158.3" font-family="Times,serif" font-size="14.00">!p</text>
</g>
<!-- @8&#45;&gt;!p22 -->
<g id="edge15" class="edge">
<title>@8&#45;&gt;!p22</title>
<g id="a_edge15"><a xlink:title="newrret52">
<path fill="none" stroke="red" d="M324.91,-218.5C315.43,-208.73 302.76,-195.69 292.08,-184.7"/>
<polygon fill="red" stroke="red" points="294.55,-182.22 285.07,-177.49 289.53,-187.1 294.55,-182.22"/>
</a>
</g>
</g>
<!-- λ9 -->
<g id="node10" class="node">
<title>λ9</title>
<ellipse fill="none" stroke="black" cx="349" cy="-378" rx="27" ry="18"/>
<text text-anchor="middle" x="349" y="-374.3" font-family="Times,serif" font-size="14.00">λ</text>
</g>
<!-- λ9&#45;&gt;I7 -->
<g id="edge24" class="edge">
<title>λ9&#45;&gt;I7</title>
<g id="a_edge24"><a xlink:title="ret42">
<path fill="none" stroke="red" d="M349,-359.7C349,-351.98 349,-342.71 349,-334.11"/>
<polygon fill="red" stroke="red" points="352.5,-334.1 349,-324.1 345.5,-334.1 352.5,-334.1"/>
</a>
</g>
</g>
<!-- I10 -->
<g id="node11" class="node">
<title>I10</title>
<ellipse fill="none" stroke="black" cx="339" cy="-690" rx="27" ry="18"/>
<text text-anchor="middle" x="339" y="-686.3" font-family="Times,serif" font-size="14.00">I</text>
</g>
<!-- @11 -->
<g id="node12" class="node">
<title>@11</title>
<ellipse fill="none" stroke="black" cx="339" cy="-618" rx="27" ry="18"/>
<text text-anchor="middle" x="339" y="-614.3" font-family="Times,serif" font-size="14.00">@</text>
</g>
<!-- I10&#45;&gt;@11 -->
<g id="edge8" class="edge">
<title>I10&#45;&gt;@11</title>
<g id="a_edge8"><a xlink:title="lret19">
<path fill="none" stroke="blue" d="M339,-661.66C339,-653.05 339,-643.79 339,-636.1"/>
<polygon fill="blue" stroke="blue" points="335.5,-661.69 339,-671.69 342.5,-661.69 335.5,-661.69"/>
</a>
</g>
</g>
<!-- Cut15 -->
<g id="node16" class="node">
<title>Cut15</title>
<ellipse fill="none" stroke="black" cx="411" cy="-546" rx="27" ry="18"/>
<text text-anchor="middle" x="411" y="-542.3" font-family="Times,serif" font-size="14.00">Cut</text>
</g>
<!-- @11&#45;&gt;Cut15 -->
<g id="edge11" class="edge">
<title>@11&#45;&gt;Cut15</title>
<g id="a_edge11"><a xlink:title="lval14">
<path fill="none" stroke="blue" d="M361.04,-595.56C372.45,-584.47 386.07,-571.23 396.2,-561.38"/>
<polygon fill="blue" stroke="blue" points="358.3,-593.35 353.57,-602.83 363.18,-598.37 358.3,-593.35"/>
</a>
</g>
</g>
<!-- !p16 -->
<g id="node17" class="node">
<title>!p16</title>
<ellipse fill="none" stroke="black" cx="339" cy="-546" rx="27" ry="18"/>
<text text-anchor="middle" x="339" y="-542.3" font-family="Times,serif" font-size="14.00">!p</text>
</g>
<!-- @11&#45;&gt;!p16 -->
<g id="edge14" class="edge">
<title>@11&#45;&gt;!p16</title>
<g id="a_edge14"><a xlink:title="newrret18">
<path fill="none" stroke="red" d="M339,-599.69C339,-591.98 339,-582.71 339,-574.11"/>
<polygon fill="red" stroke="red" points="342.5,-574.1 339,-564.1 335.5,-574.1 342.5,-574.1"/>
</a>
</g>
</g>
<!-- Assign12 -->
<g id="node13" class="node">
<title>Assign12</title>
<ellipse fill="none" stroke="black" cx="339" cy="-762" rx="35.19" ry="18"/>
<text text-anchor="middle" x="339" y="-758.3" font-family="Times,serif" font-size="14.00">Assign</text>
</g>
<!-- Assign12&#45;&gt;I10 -->
<g id="edge25" class="edge">
<title>Assign12&#45;&gt;I10</title>
<g id="a_edge25"><a xlink:title="ret8">
<path fill="none" stroke="red" d="M339,-743.69C339,-735.98 339,-726.71 339,-718.11"/>
<polygon fill="red" stroke="red" points="342.5,-718.1 339,-708.1 335.5,-718.1 342.5,-718.1"/>
</a>
</g>
</g>
<!-- Dup13 -->
<g id="node14" class="node">
<title>Dup13</title>
<ellipse fill="none" stroke="black" cx="419" cy="-762" rx="27" ry="18"/>
<text text-anchor="middle" x="419" y="-758.3" font-family="Times,serif" font-size="14.00">Dup</text>
</g>
<!-- Dup14 -->
<g id="node15" class="node">
<title>Dup14</title>
<ellipse fill="none" stroke="black" cx="360" cy="-462" rx="26" ry="26"/>
<ellipse fill="none" stroke="black" cx="360" cy="-462" rx="30" ry="30"/>
<text text-anchor="middle" x="360" y="-458.3" font-family="Times,serif" font-size="14.00">Dup</text>
</g>
<!-- Dup14&#45;&gt;λ9 -->
<g id="edge19" class="edge">
<title>Dup14&#45;&gt;λ9</title>
<g id="a_edge19"><a xlink:title="newrretf31">
<path fill="none" stroke="red" stroke-width="2" d="M356.09,-431.86C354.97,-423.54 353.76,-414.5 352.66,-406.29"/>
<polygon fill="red" stroke="red" stroke-width="2" points="356.09,-405.56 351.3,-396.11 349.16,-406.49 356.09,-405.56"/>
</a>
</g>
</g>
<!-- Cut15&#45;&gt;Dup14 -->
<g id="edge22" class="edge">
<title>Cut15&#45;&gt;Dup14</title>
<g id="a_edge22"><a xlink:title="newrretf87">
<path fill="none" stroke="red" d="M401.17,-529.19C395.41,-519.93 387.92,-507.88 380.9,-496.61"/>
<polygon fill="red" stroke="red" points="383.68,-494.44 375.42,-487.79 377.73,-498.13 383.68,-494.44"/>
</a>
</g>
</g>
<!-- !p16&#45;&gt;Dup14 -->
<g id="edge23" class="edge">
<title>!p16&#45;&gt;Dup14</title>
<g id="a_edge23"><a xlink:title="newrretf91">
<path fill="none" stroke="red" d="M343.35,-528.01C345.37,-520.14 347.85,-510.45 350.27,-500.97"/>
<polygon fill="none" stroke="red" points="353.67,-501.82 352.76,-491.27 346.89,-500.08 353.67,-501.82"/>
</a>
</g>
</g>
<!-- Dup17 -->
<g id="node18" class="node">
<title>Dup17</title>
<ellipse fill="none" stroke="black" cx="491" cy="-762" rx="27" ry="18"/>
<text text-anchor="middle" x="491" y="-758.3" font-family="Times,serif" font-size="14.00">Dup</text>
</g>
<!-- Dup18 -->
<g id="node19" class="node">
<title>Dup18</title>
<ellipse fill="none" stroke="black" cx="271" cy="-90" rx="27" ry="18"/>
<text text-anchor="middle" x="271" y="-86.3" font-family="Times,serif" font-size="14.00">Dup</text>
</g>
<!-- Dup18&#45;&gt;I4 -->
<g id="edge20" class="edge">
<title>Dup18&#45;&gt;I4</title>
<g id="a_edge20"><a xlink:title="newrretf66">
<path fill="none" stroke="red" d="M271,-71.7C271,-63.98 271,-54.71 271,-46.11"/>
<polygon fill="red" stroke="red" points="274.5,-46.1 271,-36.1 267.5,-46.1 274.5,-46.1"/>
</a>
</g>
</g>
<!-- !c20 -->
<g id="node21" class="node">
<title>!c20</title>
<ellipse fill="none" stroke="black" cx="285" cy="-462" rx="27" ry="18"/>
<text text-anchor="middle" x="285" y="-458.3" font-family="Times,serif" font-size="14.00">!c</text>
</g>
<!-- Dup19&#45;&gt;!c20 -->
<g id="edge3" class="edge">
<title>Dup19&#45;&gt;!c20</title>
<g id="a_edge3"><a xlink:title="hf107">
<path fill="none" stroke="blue" d="M259.04,-519.01C265.08,-505.99 272.2,-490.63 277.45,-479.29"/>
<polygon fill="blue" stroke="blue" points="255.72,-517.86 254.69,-528.4 262.07,-520.8 255.72,-517.86"/>
</a>
</g>
</g>
<!-- Dup19&#45;&gt;!p22 -->
<g id="edge4" class="edge">
<title>Dup19&#45;&gt;!p22</title>
<g id="a_edge4"><a xlink:title="hf113">
<path fill="none" stroke="blue" d="M242.52,-517.94C237.48,-485.16 230,-428.19 230,-379 230,-379 230,-379 230,-305 230,-258.04 250.95,-205.66 262.9,-179.6"/>
<polygon fill="none" stroke="blue" points="239.1,-518.75 244.12,-528.09 246.02,-517.66 239.1,-518.75"/>
</a>
</g>
</g>
<!-- !c20&#45;&gt;λ9 -->
<g id="edge2" class="edge">
<title>!c20&#45;&gt;λ9</title>
<g id="a_edge2"><a xlink:title="h34">
<path fill="none" stroke="blue" d="M303.38,-437.45C314.19,-423.59 327.56,-406.48 337.02,-394.35"/>
<polygon fill="blue" stroke="blue" points="300.43,-435.54 297.04,-445.57 305.95,-439.84 300.43,-435.54"/>
</a>
</g>
</g>
<!-- Cut21&#45;&gt;Dup18 -->
<g id="edge17" class="edge">
<title>Cut21&#45;&gt;Dup18</title>
<g id="a_edge17"><a xlink:title="newrretf108">
<path fill="none" stroke="red" d="M328.43,-146.83C318.25,-136.94 304.48,-123.55 292.97,-112.36"/>
<polygon fill="red" stroke="red" points="295.41,-109.85 285.8,-105.38 290.53,-114.87 295.41,-109.85"/>
</a>
</g>
</g>
<!-- !p22&#45;&gt;Dup18 -->
<g id="edge18" class="edge">
<title>!p22&#45;&gt;Dup18</title>
<g id="a_edge18"><a xlink:title="newrretf114">
<path fill="none" stroke="red" d="M271,-143.7C271,-135.98 271,-126.71 271,-118.11"/>
<polygon fill="none" stroke="red" points="274.5,-118.1 271,-108.1 267.5,-118.1 274.5,-118.1"/>
</a>
</g>
</g>
<!-- !p22&#45;&gt;!c20 -->
<g id="edge1" class="edge">
<title>!p22&#45;&gt;!c20</title>
<g id="a_edge1"><a xlink:title="h116">
<path fill="none" stroke="blue" d="M272.29,-190.36C274.95,-247 281.03,-376.54 283.7,-433.39"/>
<polygon fill="blue" stroke="blue" points="275.78,-190.18 271.82,-180.36 268.79,-190.51 275.78,-190.18"/>
<polygon fill="blue" stroke="blue" points="280.69,-443.85 283.72,-433.7 287.68,-443.52 280.69,-443.85"/>
</a>
</g>
</g>
</g>
</svg>
