<?xml version="1.0" encoding="UTF-8" standalone="no"?>
<!DOCTYPE svg PUBLIC "-//W3C//DTD SVG 1.1//EN"
 "http://www.w3.org/Graphics/SVG/1.1/DTD/svg11.dtd">
<!-- Generated by graphviz version 2.49.3 (0)
 -->
<!-- Pages: 1 -->
<svg width="530pt" height="1071pt"
 viewBox="0.00 0.00 530.00 1070.80" xmlns="http://www.w3.org/2000/svg" xmlns:xlink="http://www.w3.org/1999/xlink">
<g id="graph0" class="graph" transform="scale(1 1) rotate(0) translate(4 1066.8)">
<polygon fill="white" stroke="transparent" points="-4,4 -4,-1066.8 526,-1066.8 526,4 -4,4"/>
<!-- I0 -->
<g id="node1" class="node">
<title>I0</title>
<ellipse fill="none" stroke="black" cx="82" cy="-972.8" rx="27" ry="18"/>
<text text-anchor="middle" x="82" y="-969.1" font-family="Times,serif" font-size="14.00">I</text>
</g>
<!-- !d1 -->
<g id="node2" class="node">
<title>!d1</title>
<ellipse fill="none" stroke="black" cx="27" cy="-900.8" rx="27" ry="18"/>
<text text-anchor="middle" x="27" y="-897.1" font-family="Times,serif" font-size="14.00">!d</text>
</g>
<!-- I0&#45;&gt;!d1 -->
<g id="edge4" class="edge">
<title>I0&#45;&gt;!d1</title>
<g id="a_edge4"><a xlink:title="iret84">
<path fill="none" stroke="blue" d="M63.83,-948.67C55.63,-938.24 46.19,-926.21 38.91,-916.96"/>
<polygon fill="blue" stroke="blue" points="61.14,-950.91 70.07,-956.61 66.64,-946.58 61.14,-950.91"/>
</a>
</g>
</g>
<!-- λ2 -->
<g id="node3" class="node">
<title>λ2</title>
<ellipse fill="none" stroke="black" cx="82" cy="-828.8" rx="27" ry="18"/>
<text text-anchor="middle" x="82" y="-825.1" font-family="Times,serif" font-size="14.00">λ</text>
</g>
<!-- !d1&#45;&gt;λ2 -->
<g id="edge3" class="edge">
<title>!d1&#45;&gt;λ2</title>
<g id="a_edge3"><a xlink:title="i81">
<path fill="none" stroke="blue" d="M45.17,-876.67C53.37,-866.24 62.81,-854.21 70.09,-844.96"/>
<polygon fill="blue" stroke="blue" points="42.36,-874.58 38.93,-884.61 47.86,-878.91 42.36,-874.58"/>
</a>
</g>
</g>
<!-- λ2&#45;&gt;I0 -->
<g id="edge29" class="edge">
<title>λ2&#45;&gt;I0</title>
<g id="a_edge29"><a xlink:title="ret82">
<path fill="none" stroke="red" d="M82,-846.99C82,-871.22 82,-915.68 82,-944.47"/>
<polygon fill="red" stroke="red" points="78.5,-944.67 82,-954.67 85.5,-944.67 78.5,-944.67"/>
</a>
</g>
</g>
<!-- !p3 -->
<g id="node4" class="node">
<title>!p3</title>
<ellipse fill="none" stroke="black" cx="137" cy="-900.8" rx="27" ry="18"/>
<text text-anchor="middle" x="137" y="-897.1" font-family="Times,serif" font-size="14.00">!p</text>
</g>
<!-- !p3&#45;&gt;λ2 -->
<g id="edge24" class="edge">
<title>!p3&#45;&gt;λ2</title>
<g id="a_edge24"><a xlink:title="newrretf78">
<path fill="none" stroke="red" d="M125.07,-884.61C117.79,-875.34 108.34,-863.32 100.15,-852.89"/>
<polygon fill="red" stroke="red" points="102.84,-850.66 93.91,-844.96 97.34,-854.98 102.84,-850.66"/>
</a>
</g>
</g>
<!-- I4 -->
<g id="node5" class="node">
<title>I4</title>
<ellipse fill="none" stroke="black" cx="192" cy="-756.8" rx="27" ry="18"/>
<text text-anchor="middle" x="192" y="-753.1" font-family="Times,serif" font-size="14.00">I</text>
</g>
<!-- @5 -->
<g id="node6" class="node">
<title>@5</title>
<ellipse fill="none" stroke="black" cx="173" cy="-972.8" rx="27" ry="18"/>
<text text-anchor="middle" x="173" y="-969.1" font-family="Times,serif" font-size="14.00">@</text>
</g>
<!-- I4&#45;&gt;@5 -->
<g id="edge9" class="edge">
<title>I4&#45;&gt;@5</title>
<g id="a_edge9"><a xlink:title="lret75">
<path fill="none" stroke="blue" d="M189.57,-785.18C185.59,-829.98 177.81,-917.63 174.52,-954.65"/>
<polygon fill="blue" stroke="blue" points="193.07,-785.3 190.47,-775.03 186.1,-784.68 193.07,-785.3"/>
</a>
</g>
</g>
<!-- @5&#45;&gt;!p3 -->
<g id="edge19" class="edge">
<title>@5&#45;&gt;!p3</title>
<g id="a_edge19"><a xlink:title="newrret74">
<path fill="none" stroke="red" d="M164.65,-955.56C160.29,-947.08 154.85,-936.51 149.96,-926.99"/>
<polygon fill="red" stroke="red" points="152.99,-925.24 145.3,-917.94 146.77,-928.44 152.99,-925.24"/>
</a>
</g>
</g>
<!-- !d6 -->
<g id="node7" class="node">
<title>!d6</title>
<ellipse fill="none" stroke="black" cx="247" cy="-900.8" rx="27" ry="18"/>
<text text-anchor="middle" x="247" y="-897.1" font-family="Times,serif" font-size="14.00">!d</text>
</g>
<!-- @5&#45;&gt;!d6 -->
<g id="edge14" class="edge">
<title>@5&#45;&gt;!d6</title>
<g id="a_edge14"><a xlink:title="lval70">
<path fill="none" stroke="blue" d="M195.37,-950.63C207.25,-939.4 221.52,-925.9 232.05,-915.94"/>
<polygon fill="blue" stroke="blue" points="192.83,-948.22 187.98,-957.63 197.64,-953.3 192.83,-948.22"/>
</a>
</g>
</g>
<!-- !p7 -->
<g id="node8" class="node">
<title>!p7</title>
<ellipse fill="none" stroke="black" cx="247" cy="-828.8" rx="27" ry="18"/>
<text text-anchor="middle" x="247" y="-825.1" font-family="Times,serif" font-size="14.00">!p</text>
</g>
<!-- !d6&#45;&gt;!p7 -->
<g id="edge2" class="edge">
<title>!d6&#45;&gt;!p7</title>
<g id="a_edge2"><a xlink:title="hf65">
<path fill="none" stroke="blue" d="M247,-872.46C247,-863.85 247,-854.59 247,-846.9"/>
<polygon fill="blue" stroke="blue" points="243.5,-872.49 247,-882.49 250.5,-872.49 243.5,-872.49"/>
</a>
</g>
</g>
<!-- !p7&#45;&gt;I4 -->
<g id="edge23" class="edge">
<title>!p7&#45;&gt;I4</title>
<g id="a_edge23"><a xlink:title="newrretf66">
<path fill="none" stroke="red" d="M235.07,-812.61C227.79,-803.34 218.34,-791.32 210.15,-780.89"/>
<polygon fill="red" stroke="red" points="212.84,-778.66 203.91,-772.96 207.34,-782.98 212.84,-778.66"/>
</a>
</g>
</g>
<!-- λ21 -->
<g id="node22" class="node">
<title>λ21</title>
<ellipse fill="none" stroke="black" cx="302" cy="-756.8" rx="27" ry="18"/>
<text text-anchor="middle" x="302" y="-753.1" font-family="Times,serif" font-size="14.00">λ</text>
</g>
<!-- !p7&#45;&gt;λ21 -->
<g id="edge1" class="edge">
<title>!p7&#45;&gt;λ21</title>
<g id="a_edge1"><a xlink:title="h34">
<path fill="none" stroke="blue" d="M265.17,-804.67C273.37,-794.24 282.81,-782.21 290.09,-772.96"/>
<polygon fill="blue" stroke="blue" points="262.36,-802.58 258.93,-812.61 267.86,-806.91 262.36,-802.58"/>
</a>
</g>
</g>
<!-- I8 -->
<g id="node9" class="node">
<title>I8</title>
<ellipse fill="none" stroke="black" cx="302" cy="-684.8" rx="27" ry="18"/>
<text text-anchor="middle" x="302" y="-681.1" font-family="Times,serif" font-size="14.00">I</text>
</g>
<!-- @9 -->
<g id="node10" class="node">
<title>@9</title>
<ellipse fill="none" stroke="black" cx="247" cy="-612.8" rx="27" ry="18"/>
<text text-anchor="middle" x="247" y="-609.1" font-family="Times,serif" font-size="14.00">@</text>
</g>
<!-- I8&#45;&gt;@9 -->
<g id="edge8" class="edge">
<title>I8&#45;&gt;@9</title>
<g id="a_edge8"><a xlink:title="lret62">
<path fill="none" stroke="blue" d="M283.83,-660.67C275.63,-650.24 266.19,-638.21 258.91,-628.96"/>
<polygon fill="blue" stroke="blue" points="281.14,-662.91 290.07,-668.61 286.64,-658.58 281.14,-662.91"/>
</a>
</g>
</g>
<!-- @9&#45;&gt;!p7 -->
<g id="edge18" class="edge">
<title>@9&#45;&gt;!p7</title>
<g id="a_edge18"><a xlink:title="newrret61">
<path fill="none" stroke="red" d="M247,-631.03C247,-668.12 247,-755.78 247,-800.51"/>
<polygon fill="red" stroke="red" points="243.5,-800.65 247,-810.65 250.5,-800.65 243.5,-800.65"/>
</a>
</g>
</g>
<!-- Cut20 -->
<g id="node21" class="node">
<title>Cut20</title>
<ellipse fill="none" stroke="black" cx="247" cy="-540.8" rx="27" ry="18"/>
<text text-anchor="middle" x="247" y="-537.1" font-family="Times,serif" font-size="14.00">Cut</text>
</g>
<!-- @9&#45;&gt;Cut20 -->
<g id="edge11" class="edge">
<title>@9&#45;&gt;Cut20</title>
<g id="a_edge11"><a xlink:title="lval38">
<path fill="none" stroke="blue" d="M247,-584.46C247,-575.85 247,-566.59 247,-558.9"/>
<polygon fill="blue" stroke="blue" points="243.5,-584.49 247,-594.49 250.5,-584.49 243.5,-584.49"/>
</a>
</g>
</g>
<!-- I10 -->
<g id="node11" class="node">
<title>I10</title>
<ellipse fill="none" stroke="black" cx="207" cy="-162" rx="27" ry="18"/>
<text text-anchor="middle" x="207" y="-158.3" font-family="Times,serif" font-size="14.00">I</text>
</g>
<!-- !d11 -->
<g id="node12" class="node">
<title>!d11</title>
<ellipse fill="none" stroke="black" cx="226" cy="-90" rx="27" ry="18"/>
<text text-anchor="middle" x="226" y="-86.3" font-family="Times,serif" font-size="14.00">!d</text>
</g>
<!-- I10&#45;&gt;!d11 -->
<g id="edge43" class="edge">
<title>I10&#45;&gt;!d11</title>
<g id="a_edge43"><a xlink:title="yret60">
<path fill="none" stroke="blue" d="M214.29,-134.14C216.7,-125.28 219.3,-115.68 221.44,-107.79"/>
<polygon fill="blue" stroke="blue" points="210.84,-133.49 211.6,-144.05 217.6,-135.32 210.84,-133.49"/>
</a>
</g>
</g>
<!-- !p12 -->
<g id="node13" class="node">
<title>!p12</title>
<ellipse fill="none" stroke="black" cx="216" cy="-243.4" rx="27" ry="18"/>
<text text-anchor="middle" x="216" y="-239.7" font-family="Times,serif" font-size="14.00">!p</text>
</g>
<!-- !d11&#45;&gt;!p12 -->
<g id="edge41" class="edge">
<title>!d11&#45;&gt;!p12</title>
<g id="a_edge41"><a xlink:title="yBf56">
<path fill="none" stroke="blue" d="M236.43,-117.1C242.19,-134.86 247.37,-158.88 243,-180 239.58,-196.53 231.55,-214.06 225.14,-226.32"/>
<polygon fill="blue" stroke="blue" points="239.65,-115.71 233.04,-107.43 233.04,-118.03 239.65,-115.71"/>
</a>
</g>
</g>
<!-- !p12&#45;&gt;I10 -->
<g id="edge22" class="edge">
<title>!p12&#45;&gt;I10</title>
<g id="a_edge22"><a xlink:title="newrretf57">
<path fill="none" stroke="red" d="M214.05,-225.17C212.89,-214.97 211.4,-201.83 210.09,-190.25"/>
<polygon fill="red" stroke="red" points="213.55,-189.74 208.95,-180.19 206.6,-190.53 213.55,-189.74"/>
</a>
</g>
</g>
<!-- !c18 -->
<g id="node19" class="node">
<title>!c18</title>
<ellipse fill="none" stroke="black" cx="317" cy="-18" rx="27" ry="18"/>
<text text-anchor="middle" x="317" y="-14.3" font-family="Times,serif" font-size="14.00">!c</text>
</g>
<!-- !p12&#45;&gt;!c18 -->
<g id="edge40" class="edge">
<title>!p12&#45;&gt;!c18</title>
<g id="a_edge40"><a xlink:title="yB44">
<path fill="none" stroke="blue" d="M194.7,-220.15C185.51,-209.02 175.78,-194.79 171,-180 156.02,-133.62 157.98,-108.75 190,-72 213.27,-45.29 252.2,-31.74 280.83,-25.07"/>
<polygon fill="blue" stroke="blue" points="192.33,-222.76 201.53,-228.01 197.62,-218.17 192.33,-222.76"/>
<polygon fill="blue" stroke="blue" points="291.6,-26.33 281.09,-25.01 290.13,-19.49 291.6,-26.33"/>
</a>
</g>
</g>
<!-- I13 -->
<g id="node14" class="node">
<title>I13</title>
<ellipse fill="none" stroke="black" cx="247" cy="-396.8" rx="27" ry="18"/>
<text text-anchor="middle" x="247" y="-393.1" font-family="Times,serif" font-size="14.00">I</text>
</g>
<!-- @14 -->
<g id="node15" class="node">
<title>@14</title>
<ellipse fill="none" stroke="black" cx="235" cy="-324.8" rx="27" ry="18"/>
<text text-anchor="middle" x="235" y="-321.1" font-family="Times,serif" font-size="14.00">@</text>
</g>
<!-- I13&#45;&gt;@14 -->
<g id="edge7" class="edge">
<title>I13&#45;&gt;@14</title>
<g id="a_edge7"><a xlink:title="lret53">
<path fill="none" stroke="blue" d="M242.37,-368.8C240.89,-360.16 239.29,-350.83 237.96,-343.07"/>
<polygon fill="blue" stroke="blue" points="238.96,-369.59 244.1,-378.85 245.86,-368.4 238.96,-369.59"/>
</a>
</g>
</g>
<!-- @14&#45;&gt;!p12 -->
<g id="edge17" class="edge">
<title>@14&#45;&gt;!p12</title>
<g id="a_edge17"><a xlink:title="newrret52">
<path fill="none" stroke="red" d="M230.97,-306.96C228.48,-296.54 225.22,-282.93 222.38,-271.06"/>
<polygon fill="red" stroke="red" points="225.75,-270.12 220.02,-261.21 218.95,-271.75 225.75,-270.12"/>
</a>
</g>
</g>
<!-- Cut17 -->
<g id="node18" class="node">
<title>Cut17</title>
<ellipse fill="none" stroke="black" cx="317" cy="-243.4" rx="23.31" ry="23.31"/>
<ellipse fill="none" stroke="black" cx="317" cy="-243.4" rx="27.3" ry="27.3"/>
<text text-anchor="middle" x="317" y="-239.7" font-family="Times,serif" font-size="14.00">Cut</text>
</g>
<!-- @14&#45;&gt;Cut17 -->
<g id="edge13" class="edge">
<title>@14&#45;&gt;Cut17</title>
<g id="a_edge13"><a xlink:title="lval48">
<path fill="none" stroke="blue" d="M257.06,-302.43C269.68,-290.21 285.37,-275.02 297.53,-263.25"/>
<polygon fill="blue" stroke="blue" points="254.41,-300.13 249.66,-309.6 259.28,-305.16 254.41,-300.13"/>
</a>
</g>
</g>
<!-- I15 -->
<g id="node16" class="node">
<title>I15</title>
<ellipse fill="none" stroke="black" cx="317" cy="-162" rx="27" ry="18"/>
<text text-anchor="middle" x="317" y="-158.3" font-family="Times,serif" font-size="14.00">I</text>
</g>
<!-- !d16 -->
<g id="node17" class="node">
<title>!d16</title>
<ellipse fill="none" stroke="black" cx="317" cy="-90" rx="27" ry="18"/>
<text text-anchor="middle" x="317" y="-86.3" font-family="Times,serif" font-size="14.00">!d</text>
</g>
<!-- I15&#45;&gt;!d16 -->
<g id="edge42" class="edge">
<title>I15&#45;&gt;!d16</title>
<g id="a_edge42"><a xlink:title="yret51">
<path fill="none" stroke="blue" d="M317,-133.67C317,-125.05 317,-115.79 317,-108.1"/>
<polygon fill="blue" stroke="blue" points="313.5,-133.7 317,-143.7 320.5,-133.7 313.5,-133.7"/>
</a>
</g>
</g>
<!-- !d16&#45;&gt;!c18 -->
<g id="edge39" class="edge">
<title>!d16&#45;&gt;!c18</title>
<g id="a_edge39"><a xlink:title="yA43">
<path fill="none" stroke="blue" d="M317,-61.67C317,-53.05 317,-43.79 317,-36.1"/>
<polygon fill="blue" stroke="blue" points="313.5,-61.7 317,-71.7 320.5,-61.7 313.5,-61.7"/>
</a>
</g>
</g>
<!-- Cut17&#45;&gt;I15 -->
<g id="edge31" class="edge">
<title>Cut17&#45;&gt;I15</title>
<g id="a_edge31"><a xlink:title="rval49">
<path fill="none" stroke="red" stroke-width="2" d="M317,-215.96C317,-207.8 317,-198.81 317,-190.58"/>
<polygon fill="red" stroke="red" stroke-width="2" points="320.5,-190.34 317,-180.34 313.5,-190.34 320.5,-190.34"/>
</a>
</g>
</g>
<!-- λ19 -->
<g id="node20" class="node">
<title>λ19</title>
<ellipse fill="none" stroke="black" cx="247" cy="-468.8" rx="27" ry="18"/>
<text text-anchor="middle" x="247" y="-465.1" font-family="Times,serif" font-size="14.00">λ</text>
</g>
<!-- !c18&#45;&gt;λ19 -->
<g id="edge38" class="edge">
<title>!c18&#45;&gt;λ19</title>
<g id="a_edge38"><a xlink:title="y41">
<path fill="none" stroke="blue" d="M335.85,-42.53C342.12,-51.34 348.61,-61.72 353,-72 368.88,-109.2 372,-120.55 372,-161 372,-325.8 372,-325.8 372,-325.8 372,-388.36 302.78,-436.44 267.36,-456.95"/>
<polygon fill="blue" stroke="blue" points="338.52,-40.24 329.75,-34.3 332.89,-44.41 338.52,-40.24"/>
</a>
</g>
</g>
<!-- λ19&#45;&gt;I13 -->
<g id="edge27" class="edge">
<title>λ19&#45;&gt;I13</title>
<g id="a_edge27"><a xlink:title="ret42">
<path fill="none" stroke="red" d="M247,-450.49C247,-442.78 247,-433.51 247,-424.91"/>
<polygon fill="red" stroke="red" points="250.5,-424.9 247,-414.9 243.5,-424.9 250.5,-424.9"/>
</a>
</g>
</g>
<!-- Cut20&#45;&gt;λ19 -->
<g id="edge30" class="edge">
<title>Cut20&#45;&gt;λ19</title>
<g id="a_edge30"><a xlink:title="rval39">
<path fill="none" stroke="red" d="M247,-522.49C247,-514.78 247,-505.51 247,-496.91"/>
<polygon fill="red" stroke="red" points="250.5,-496.9 247,-486.9 243.5,-496.9 250.5,-496.9"/>
</a>
</g>
</g>
<!-- λ21&#45;&gt;I8 -->
<g id="edge26" class="edge">
<title>λ21&#45;&gt;I8</title>
<g id="a_edge26"><a xlink:title="ret35">
<path fill="none" stroke="red" d="M302,-738.49C302,-730.78 302,-721.51 302,-712.91"/>
<polygon fill="red" stroke="red" points="305.5,-712.9 302,-702.9 298.5,-712.9 305.5,-712.9"/>
</a>
</g>
</g>
<!-- !p22 -->
<g id="node23" class="node">
<title>!p22</title>
<ellipse fill="none" stroke="black" cx="319" cy="-828.8" rx="27" ry="18"/>
<text text-anchor="middle" x="319" y="-825.1" font-family="Times,serif" font-size="14.00">!p</text>
</g>
<!-- !p22&#45;&gt;λ21 -->
<g id="edge21" class="edge">
<title>!p22&#45;&gt;λ21</title>
<g id="a_edge21"><a xlink:title="newrretf31">
<path fill="none" stroke="red" d="M314.88,-810.85C312.99,-803.06 310.7,-793.62 308.58,-784.87"/>
<polygon fill="red" stroke="red" points="311.96,-783.96 306.2,-775.07 305.15,-785.61 311.96,-783.96"/>
</a>
</g>
</g>
<!-- I23 -->
<g id="node24" class="node">
<title>I23</title>
<ellipse fill="none" stroke="black" cx="319" cy="-972.8" rx="27" ry="18"/>
<text text-anchor="middle" x="319" y="-969.1" font-family="Times,serif" font-size="14.00">I</text>
</g>
<!-- @24 -->
<g id="node25" class="node">
<title>@24</title>
<ellipse fill="none" stroke="black" cx="319" cy="-900.8" rx="27" ry="18"/>
<text text-anchor="middle" x="319" y="-897.1" font-family="Times,serif" font-size="14.00">@</text>
</g>
<!-- I23&#45;&gt;@24 -->
<g id="edge6" class="edge">
<title>I23&#45;&gt;@24</title>
<g id="a_edge6"><a xlink:title="lret28">
<path fill="none" stroke="blue" d="M319,-944.46C319,-935.85 319,-926.59 319,-918.9"/>
<polygon fill="blue" stroke="blue" points="315.5,-944.49 319,-954.49 322.5,-944.49 315.5,-944.49"/>
</a>
</g>
</g>
<!-- @24&#45;&gt;!p22 -->
<g id="edge16" class="edge">
<title>@24&#45;&gt;!p22</title>
<g id="a_edge16"><a xlink:title="newrret27">
<path fill="none" stroke="red" d="M319,-882.49C319,-874.78 319,-865.51 319,-856.91"/>
<polygon fill="red" stroke="red" points="322.5,-856.9 319,-846.9 315.5,-856.9 322.5,-856.9"/>
</a>
</g>
</g>
<!-- Cut33 -->
<g id="node34" class="node">
<title>Cut33</title>
<ellipse fill="none" stroke="black" cx="402" cy="-828.8" rx="27" ry="18"/>
<text text-anchor="middle" x="402" y="-825.1" font-family="Times,serif" font-size="14.00">Cut</text>
</g>
<!-- @24&#45;&gt;Cut33 -->
<g id="edge12" class="edge">
<title>@24&#45;&gt;Cut33</title>
<g id="a_edge12"><a xlink:title="lval4">
<path fill="none" stroke="blue" d="M343.09,-879.48C356.86,-867.87 373.76,-853.62 385.92,-843.36"/>
<polygon fill="blue" stroke="blue" points="340.79,-876.84 335.4,-885.97 345.3,-882.19 340.79,-876.84"/>
</a>
</g>
</g>
<!-- I25 -->
<g id="node26" class="node">
<title>I25</title>
<ellipse fill="none" stroke="black" cx="495" cy="-468.8" rx="27" ry="18"/>
<text text-anchor="middle" x="495" y="-465.1" font-family="Times,serif" font-size="14.00">I</text>
</g>
<!-- !d26 -->
<g id="node27" class="node">
<title>!d26</title>
<ellipse fill="none" stroke="black" cx="463" cy="-396.8" rx="27" ry="18"/>
<text text-anchor="middle" x="463" y="-393.1" font-family="Times,serif" font-size="14.00">!d</text>
</g>
<!-- I25&#45;&gt;!d26 -->
<g id="edge37" class="edge">
<title>I25&#45;&gt;!d26</title>
<g id="a_edge37"><a xlink:title="xret26">
<path fill="none" stroke="blue" d="M483.21,-442C478.97,-432.73 474.31,-422.53 470.53,-414.27"/>
<polygon fill="blue" stroke="blue" points="480.08,-443.57 487.42,-451.21 486.44,-440.66 480.08,-443.57"/>
</a>
</g>
</g>
<!-- !p27 -->
<g id="node28" class="node">
<title>!p27</title>
<ellipse fill="none" stroke="black" cx="484" cy="-540.8" rx="27" ry="18"/>
<text text-anchor="middle" x="484" y="-537.1" font-family="Times,serif" font-size="14.00">!p</text>
</g>
<!-- !d26&#45;&gt;!p27 -->
<g id="edge36" class="edge">
<title>!d26&#45;&gt;!p27</title>
<g id="a_edge36"><a xlink:title="xBf22">
<path fill="none" stroke="blue" d="M458.14,-424.75C455.81,-442.57 454.41,-466.33 459,-486.8 461.94,-499.9 468.49,-513.58 474.15,-523.76"/>
<polygon fill="blue" stroke="blue" points="461.61,-425.16 459.62,-414.76 454.69,-424.14 461.61,-425.16"/>
</a>
</g>
</g>
<!-- !p27&#45;&gt;I25 -->
<g id="edge20" class="edge">
<title>!p27&#45;&gt;I25</title>
<g id="a_edge20"><a xlink:title="newrretf23">
<path fill="none" stroke="red" d="M486.66,-522.85C487.87,-515.14 489.34,-505.82 490.7,-497.16"/>
<polygon fill="red" stroke="red" points="494.19,-497.49 492.29,-487.07 487.28,-496.41 494.19,-497.49"/>
</a>
</g>
</g>
<!-- !c31 -->
<g id="node32" class="node">
<title>!c31</title>
<ellipse fill="none" stroke="black" cx="385" cy="-468.8" rx="27" ry="18"/>
<text text-anchor="middle" x="385" y="-465.1" font-family="Times,serif" font-size="14.00">!c</text>
</g>
<!-- !p27&#45;&gt;!c31 -->
<g id="edge35" class="edge">
<title>!p27&#45;&gt;!c31</title>
<g id="a_edge35"><a xlink:title="xB10">
<path fill="none" stroke="blue" d="M457.34,-520.94C443.09,-510.87 425.61,-498.51 411.41,-488.47"/>
<polygon fill="blue" stroke="blue" points="455.66,-524.04 465.84,-526.96 459.7,-518.33 455.66,-524.04"/>
<polygon fill="blue" stroke="blue" points="405.06,-479.7 411.21,-488.33 401.02,-485.41 405.06,-479.7"/>
</a>
</g>
</g>
<!-- I28 -->
<g id="node29" class="node">
<title>I28</title>
<ellipse fill="none" stroke="black" cx="412" cy="-684.8" rx="27" ry="18"/>
<text text-anchor="middle" x="412" y="-681.1" font-family="Times,serif" font-size="14.00">I</text>
</g>
<!-- @29 -->
<g id="node30" class="node">
<title>@29</title>
<ellipse fill="none" stroke="black" cx="448" cy="-612.8" rx="27" ry="18"/>
<text text-anchor="middle" x="448" y="-609.1" font-family="Times,serif" font-size="14.00">@</text>
</g>
<!-- I28&#45;&gt;@29 -->
<g id="edge5" class="edge">
<title>I28&#45;&gt;@29</title>
<g id="a_edge5"><a xlink:title="lret19">
<path fill="none" stroke="blue" d="M425.01,-658.5C429.91,-648.98 435.34,-638.41 439.7,-629.94"/>
<polygon fill="blue" stroke="blue" points="421.81,-657.07 420.35,-667.56 428.04,-660.27 421.81,-657.07"/>
</a>
</g>
</g>
<!-- @29&#45;&gt;!p27 -->
<g id="edge15" class="edge">
<title>@29&#45;&gt;!p27</title>
<g id="a_edge15"><a xlink:title="newrret18">
<path fill="none" stroke="red" d="M456.35,-595.56C460.71,-587.08 466.15,-576.51 471.04,-566.99"/>
<polygon fill="red" stroke="red" points="474.23,-568.44 475.7,-557.94 468.01,-565.24 474.23,-568.44"/>
</a>
</g>
</g>
<!-- !d30 -->
<g id="node31" class="node">
<title>!d30</title>
<ellipse fill="none" stroke="black" cx="412" cy="-540.8" rx="27" ry="18"/>
<text text-anchor="middle" x="412" y="-537.1" font-family="Times,serif" font-size="14.00">!d</text>
</g>
<!-- @29&#45;&gt;!d30 -->
<g id="edge10" class="edge">
<title>@29&#45;&gt;!d30</title>
<g id="a_edge10"><a xlink:title="lval14">
<path fill="none" stroke="blue" d="M434.99,-586.5C430.09,-576.98 424.66,-566.41 420.3,-557.94"/>
<polygon fill="blue" stroke="blue" points="431.96,-588.27 439.65,-595.56 438.19,-585.07 431.96,-588.27"/>
</a>
</g>
</g>
<!-- !d30&#45;&gt;!c31 -->
<g id="edge34" class="edge">
<title>!d30&#45;&gt;!c31</title>
<g id="a_edge34"><a xlink:title="xA9">
<path fill="none" stroke="blue" d="M401.99,-513.85C398.5,-504.8 394.68,-494.88 391.54,-486.75"/>
<polygon fill="blue" stroke="blue" points="398.74,-515.14 405.6,-523.21 405.27,-512.62 398.74,-515.14"/>
</a>
</g>
</g>
<!-- λ32 -->
<g id="node33" class="node">
<title>λ32</title>
<ellipse fill="none" stroke="black" cx="402" cy="-756.8" rx="27" ry="18"/>
<text text-anchor="middle" x="402" y="-753.1" font-family="Times,serif" font-size="14.00">λ</text>
</g>
<!-- !c31&#45;&gt;λ32 -->
<g id="edge33" class="edge">
<title>!c31&#45;&gt;λ32</title>
<g id="a_edge33"><a xlink:title="x7">
<path fill="none" stroke="blue" d="M379.43,-496.63C371.34,-540.43 359.05,-629.75 376,-702.8 379.06,-715.97 385.88,-729.65 391.76,-739.81"/>
<polygon fill="blue" stroke="blue" points="382.88,-497.23 381.33,-486.75 376,-495.91 382.88,-497.23"/>
</a>
</g>
</g>
<!-- λ32&#45;&gt;I28 -->
<g id="edge28" class="edge">
<title>λ32&#45;&gt;I28</title>
<g id="a_edge28"><a xlink:title="ret8">
<path fill="none" stroke="red" d="M404.42,-738.85C405.52,-731.14 406.85,-721.82 408.09,-713.16"/>
<polygon fill="red" stroke="red" points="411.58,-713.47 409.53,-703.07 404.65,-712.48 411.58,-713.47"/>
</a>
</g>
</g>
<!-- Cut33&#45;&gt;λ32 -->
<g id="edge32" class="edge">
<title>Cut33&#45;&gt;λ32</title>
<g id="a_edge32"><a xlink:title="rval5">
<path fill="none" stroke="red" d="M402,-810.49C402,-802.78 402,-793.51 402,-784.91"/>
<polygon fill="red" stroke="red" points="405.5,-784.9 402,-774.9 398.5,-784.9 405.5,-784.9"/>
</a>
</g>
</g>
<!-- Assign34 -->
<g id="node35" class="node">
<title>Assign34</title>
<ellipse fill="none" stroke="black" cx="319" cy="-1044.8" rx="35.19" ry="18"/>
<text text-anchor="middle" x="319" y="-1041.1" font-family="Times,serif" font-size="14.00">Assign</text>
</g>
<!-- Assign34&#45;&gt;I23 -->
<g id="edge25" class="edge">
<title>Assign34&#45;&gt;I23</title>
<g id="a_edge25"><a xlink:title="ret1">
<path fill="none" stroke="red" d="M319,-1026.49C319,-1018.78 319,-1009.51 319,-1000.91"/>
<polygon fill="red" stroke="red" points="322.5,-1000.9 319,-990.9 315.5,-1000.9 322.5,-1000.9"/>
</a>
</g>
</g>
</g>
</svg>
