<?xml version="1.0" encoding="UTF-8" standalone="no"?>
<!DOCTYPE svg PUBLIC "-//W3C//DTD SVG 1.1//EN"
 "http://www.w3.org/Graphics/SVG/1.1/DTD/svg11.dtd">
<!-- Generated by graphviz version 2.49.3 (0)
 -->
<!-- Pages: 1 -->
<svg width="339pt" height="1148pt"
 viewBox="0.00 0.00 339.00 1148.00" xmlns="http://www.w3.org/2000/svg" xmlns:xlink="http://www.w3.org/1999/xlink">
<g id="graph0" class="graph" transform="scale(1 1) rotate(0) translate(4 1144)">
<polygon fill="white" stroke="transparent" points="-4,4 -4,-1144 335,-1144 335,4 -4,4"/>
<!-- Identity0 -->
<g id="node1" class="node">
<title>Identity0</title>
<ellipse fill="none" stroke="black" cx="226" cy="-1122" rx="38.19" ry="18"/>
<text text-anchor="middle" x="226" y="-1118.3" font-family="Times,serif" font-size="14.00">Identity</text>
</g>
<!-- BangD1 -->
<g id="node2" class="node">
<title>BangD1</title>
<ellipse fill="none" stroke="black" cx="226" cy="-1050" rx="36" ry="18"/>
<text text-anchor="middle" x="226" y="-1046.3" font-family="Times,serif" font-size="14.00">BangD</text>
</g>
<!-- BangD1&#45;&gt;Identity0 -->
<g id="edge21" class="edge">
<title>BangD1&#45;&gt;Identity0</title>
<g id="a_edge21"><a xlink:title="iret84">
<path fill="none" stroke="blue" d="M220.12,-1067.94C219.29,-1075.76 219.05,-1085.25 219.41,-1094.02"/>
<polygon fill="blue" stroke="blue" points="215.93,-1094.48 220.14,-1104.21 222.92,-1093.98 215.93,-1094.48"/>
</a>
</g>
</g>
<!-- BangD1&#45;&gt;Identity0 -->
<g id="edge22" class="edge">
<title>BangD1&#45;&gt;Identity0</title>
<g id="a_edge22"><a xlink:title="iseq83">
<path fill="none" stroke="black" d="M231.88,-1067.94C232.71,-1075.76 232.95,-1085.25 232.59,-1094.02"/>
<polygon fill="black" stroke="black" points="229.08,-1093.98 231.86,-1104.21 236.07,-1094.48 229.08,-1093.98"/>
</a>
</g>
</g>
<!-- PiR2 -->
<g id="node3" class="node">
<title>PiR2</title>
<ellipse fill="none" stroke="black" cx="226" cy="-978" rx="27" ry="18"/>
<text text-anchor="middle" x="226" y="-974.3" font-family="Times,serif" font-size="14.00">PiR</text>
</g>
<!-- PiR2&#45;&gt;Identity0 -->
<g id="edge45" class="edge">
<title>PiR2&#45;&gt;Identity0</title>
<g id="a_edge45"><a xlink:title="ret82">
<path fill="none" stroke="red" d="M242.21,-992.43C252.63,-1002.18 265.26,-1016.36 271,-1032 276.52,-1047.01 276.52,-1052.98 271,-1068 266.86,-1079.27 259.13,-1089.79 251.24,-1098.44"/>
<polygon fill="red" stroke="red" points="248.52,-1096.22 244.04,-1105.82 253.53,-1101.11 248.52,-1096.22"/>
</a>
</g>
</g>
<!-- PiR2&#45;&gt;BangD1 -->
<g id="edge16" class="edge">
<title>PiR2&#45;&gt;BangD1</title>
<g id="a_edge16"><a xlink:title="i81">
<path fill="none" stroke="blue" d="M220.16,-995.58C219.3,-1003.49 219.05,-1013.14 219.41,-1022.06"/>
<polygon fill="blue" stroke="blue" points="215.92,-1022.31 220.12,-1032.04 222.9,-1021.82 215.92,-1022.31"/>
</a>
</g>
</g>
<!-- PiR2&#45;&gt;BangD1 -->
<g id="edge49" class="edge">
<title>PiR2&#45;&gt;BangD1</title>
<g id="a_edge49"><a xlink:title="seq80">
<path fill="none" stroke="black" d="M231.84,-995.58C232.7,-1003.49 232.95,-1013.14 232.59,-1022.06"/>
<polygon fill="black" stroke="black" points="229.1,-1021.82 231.88,-1032.04 236.08,-1022.31 229.1,-1021.82"/>
</a>
</g>
</g>
<!-- Bang3 -->
<g id="node4" class="node">
<title>Bang3</title>
<ellipse fill="none" stroke="black" cx="226" cy="-906" rx="29.5" ry="18"/>
<text text-anchor="middle" x="226" y="-902.3" font-family="Times,serif" font-size="14.00">Bang</text>
</g>
<!-- Bang3&#45;&gt;PiR2 -->
<g id="edge2" class="edge">
<title>Bang3&#45;&gt;PiR2</title>
<g id="a_edge2"><a xlink:title="c_bseq79">
<path fill="none" stroke="black" d="M220.12,-923.94C219.29,-931.76 219.05,-941.25 219.41,-950.02"/>
<polygon fill="black" stroke="black" points="215.93,-950.48 220.14,-960.21 222.92,-949.98 215.93,-950.48"/>
</a>
</g>
</g>
<!-- Bang3&#45;&gt;PiR2 -->
<g id="edge40" class="edge">
<title>Bang3&#45;&gt;PiR2</title>
<g id="a_edge40"><a xlink:title="newrretf78">
<path fill="none" stroke="red" d="M231.88,-923.94C232.71,-931.76 232.95,-941.25 232.59,-950.02"/>
<polygon fill="red" stroke="red" points="229.08,-949.98 231.86,-960.21 236.07,-950.48 229.08,-949.98"/>
</a>
</g>
</g>
<!-- Identity4 -->
<g id="node5" class="node">
<title>Identity4</title>
<ellipse fill="none" stroke="black" cx="140" cy="-906" rx="38.19" ry="18"/>
<text text-anchor="middle" x="140" y="-902.3" font-family="Times,serif" font-size="14.00">Identity</text>
</g>
<!-- Identity5 -->
<g id="node6" class="node">
<title>Identity5</title>
<ellipse fill="none" stroke="black" cx="156" cy="-594" rx="38.19" ry="18"/>
<text text-anchor="middle" x="156" y="-590.3" font-family="Times,serif" font-size="14.00">Identity</text>
</g>
<!-- PiL6 -->
<g id="node7" class="node">
<title>PiL6</title>
<ellipse fill="none" stroke="black" cx="150" cy="-522" rx="27" ry="18"/>
<text text-anchor="middle" x="150" y="-518.3" font-family="Times,serif" font-size="14.00">PiL</text>
</g>
<!-- PiL6&#45;&gt;Identity5 -->
<g id="edge19" class="edge">
<title>PiL6&#45;&gt;Identity5</title>
<g id="a_edge19"><a xlink:title="idseq55">
<path fill="none" stroke="black" d="M145.73,-550.15C145.97,-555.37 146.44,-560.82 147.1,-566.03"/>
<polygon fill="black" stroke="black" points="149.07,-539.89 145.73,-549.94 142.07,-540 149.07,-539.89"/>
<polygon fill="black" stroke="black" points="143.69,-566.88 148.7,-576.21 150.6,-565.79 143.69,-566.88"/>
</a>
</g>
</g>
<!-- PiL6&#45;&gt;Identity5 -->
<g id="edge25" class="edge">
<title>PiL6&#45;&gt;Identity5</title>
<g id="a_edge25"><a xlink:title="lret53">
<path fill="none" stroke="blue" d="M157.26,-539.59C158.79,-547.41 159.86,-556.94 160.27,-565.77"/>
<polygon fill="blue" stroke="blue" points="156.77,-566.1 160.43,-576.04 163.77,-565.99 156.77,-566.1"/>
</a>
</g>
</g>
<!-- Bang12 -->
<g id="node13" class="node">
<title>Bang12</title>
<ellipse fill="none" stroke="black" cx="70" cy="-594" rx="29.5" ry="18"/>
<text text-anchor="middle" x="70" y="-590.3" font-family="Times,serif" font-size="14.00">Bang</text>
</g>
<!-- PiL6&#45;&gt;Bang12 -->
<g id="edge6" class="edge">
<title>PiL6&#45;&gt;Bang12</title>
<g id="a_edge6"><a xlink:title="dseq54">
<path fill="none" stroke="black" d="M130.8,-535.19C118.17,-544.92 101.93,-558.82 89.31,-570.55"/>
<polygon fill="black" stroke="black" points="86.81,-568.09 81.98,-577.52 91.64,-573.16 86.81,-568.09"/>
</a>
</g>
</g>
<!-- PiL6&#45;&gt;Bang12 -->
<g id="edge35" class="edge">
<title>PiL6&#45;&gt;Bang12</title>
<g id="a_edge35"><a xlink:title="newrret52">
<path fill="none" stroke="red" d="M137.97,-538.54C127.24,-549.01 111.49,-562.89 97.77,-574.02"/>
<polygon fill="red" stroke="red" points="95.21,-571.58 89.55,-580.54 99.56,-577.07 95.21,-571.58"/>
</a>
</g>
</g>
<!-- Assign7 -->
<g id="node8" class="node">
<title>Assign7</title>
<ellipse fill="none" stroke="black" cx="173" cy="-18" rx="35.19" ry="18"/>
<text text-anchor="middle" x="173" y="-14.3" font-family="Times,serif" font-size="14.00">Assign</text>
</g>
<!-- Dup16 -->
<g id="node17" class="node">
<title>Dup16</title>
<ellipse fill="none" stroke="black" cx="230" cy="-306" rx="27" ry="18"/>
<text text-anchor="middle" x="230" y="-302.3" font-family="Times,serif" font-size="14.00">Dup</text>
</g>
<!-- Assign7&#45;&gt;Dup16 -->
<g id="edge42" class="edge">
<title>Assign7&#45;&gt;Dup16</title>
<g id="a_edge42"><a xlink:title="ret133">
<path fill="none" stroke="red" d="M187.04,-34.98C194.93,-44.93 204.13,-58.38 209,-72 234.38,-143.02 233.99,-233.6 231.86,-278"/>
<polygon fill="red" stroke="red" points="228.37,-277.83 231.31,-288 235.36,-278.21 228.37,-277.83"/>
</a>
</g>
</g>
<!-- Cut17 -->
<g id="node18" class="node">
<title>Cut17</title>
<ellipse fill="none" stroke="black" cx="173" cy="-90" rx="27" ry="18"/>
<text text-anchor="middle" x="173" y="-86.3" font-family="Times,serif" font-size="14.00">Cut</text>
</g>
<!-- Assign7&#45;&gt;Cut17 -->
<g id="edge51" class="edge">
<title>Assign7&#45;&gt;Cut17</title>
<g id="a_edge51"><a xlink:title="seqBC94">
<path fill="none" stroke="black" d="M173,-36.3C173,-44.02 173,-53.29 173,-61.89"/>
<polygon fill="black" stroke="black" points="169.5,-61.9 173,-71.9 176.5,-61.9 169.5,-61.9"/>
</a>
</g>
</g>
<!-- Bang8 -->
<g id="node9" class="node">
<title>Bang8</title>
<ellipse fill="none" stroke="black" cx="173" cy="-162" rx="29.5" ry="18"/>
<text text-anchor="middle" x="173" y="-158.3" font-family="Times,serif" font-size="14.00">Bang</text>
</g>
<!-- PiR13 -->
<g id="node14" class="node">
<title>PiR13</title>
<ellipse fill="none" stroke="black" cx="173" cy="-234" rx="27" ry="18"/>
<text text-anchor="middle" x="173" y="-230.3" font-family="Times,serif" font-size="14.00">PiR</text>
</g>
<!-- Bang8&#45;&gt;PiR13 -->
<g id="edge30" class="edge">
<title>Bang8&#45;&gt;PiR13</title>
<g id="a_edge30"><a xlink:title="newcut_bseq100">
<path fill="none" stroke="black" d="M167.12,-179.95C166.29,-187.77 166.05,-197.25 166.41,-206.02"/>
<polygon fill="black" stroke="black" points="162.93,-206.49 167.14,-216.21 169.92,-205.99 162.93,-206.49"/>
</a>
</g>
</g>
<!-- Bang8&#45;&gt;PiR13 -->
<g id="edge41" class="edge">
<title>Bang8&#45;&gt;PiR13</title>
<g id="a_edge41"><a xlink:title="newrretf91">
<path fill="none" stroke="red" d="M178.88,-179.95C179.71,-187.77 179.95,-197.25 179.59,-206.02"/>
<polygon fill="red" stroke="red" points="176.08,-205.99 178.86,-216.21 183.07,-206.49 176.08,-205.99"/>
</a>
</g>
</g>
<!-- Dup9 -->
<g id="node10" class="node">
<title>Dup9</title>
<ellipse fill="none" stroke="black" cx="27" cy="-666" rx="27" ry="18"/>
<text text-anchor="middle" x="27" y="-662.3" font-family="Times,serif" font-size="14.00">Dup</text>
</g>
<!-- Dup9&#45;&gt;Identity4 -->
<g id="edge39" class="edge">
<title>Dup9&#45;&gt;Identity4</title>
<g id="a_edge39"><a xlink:title="newrretf66">
<path fill="none" stroke="red" d="M23.93,-684C18.61,-718.74 11.33,-799.06 46,-852 58.29,-870.77 79.66,-883.57 98.92,-891.89"/>
<polygon fill="red" stroke="red" points="97.86,-895.24 108.44,-895.73 100.47,-888.74 97.86,-895.24"/>
</a>
</g>
</g>
<!-- BangC10 -->
<g id="node11" class="node">
<title>BangC10</title>
<ellipse fill="none" stroke="black" cx="150" cy="-378" rx="35.19" ry="18"/>
<text text-anchor="middle" x="150" y="-374.3" font-family="Times,serif" font-size="14.00">BangC</text>
</g>
<!-- Cut11 -->
<g id="node12" class="node">
<title>Cut11</title>
<ellipse fill="none" stroke="black" cx="150" cy="-450" rx="27" ry="18"/>
<text text-anchor="middle" x="150" y="-446.3" font-family="Times,serif" font-size="14.00">Cut</text>
</g>
<!-- BangC10&#45;&gt;Cut11 -->
<g id="edge50" class="edge">
<title>BangC10&#45;&gt;Cut11</title>
<g id="a_edge50"><a xlink:title="seqBC118">
<path fill="none" stroke="black" d="M150,-396.3C150,-404.02 150,-413.29 150,-421.89"/>
<polygon fill="black" stroke="black" points="146.5,-421.9 150,-431.9 153.5,-421.9 146.5,-421.9"/>
</a>
</g>
</g>
<!-- BangC10&#45;&gt;Bang12 -->
<g id="edge8" class="edge">
<title>BangC10&#45;&gt;Bang12</title>
<g id="a_edge8"><a xlink:title="h116">
<path fill="none" stroke="blue" d="M131.19,-403.07C125.04,-411.81 118.61,-422 114,-432 93.41,-476.69 80.78,-532.93 74.6,-565.73"/>
<polygon fill="blue" stroke="blue" points="139.99,-396.94 131.27,-402.95 134.34,-392.81 139.99,-396.94"/>
<polygon fill="blue" stroke="blue" points="71.1,-565.45 72.76,-575.91 77.99,-566.7 71.1,-565.45"/>
</a>
</g>
</g>
<!-- BangD18 -->
<g id="node19" class="node">
<title>BangD18</title>
<ellipse fill="none" stroke="black" cx="231" cy="-522" rx="36" ry="18"/>
<text text-anchor="middle" x="231" y="-518.3" font-family="Times,serif" font-size="14.00">BangD</text>
</g>
<!-- BangC10&#45;&gt;BangD18 -->
<g id="edge12" class="edge">
<title>BangC10&#45;&gt;BangD18</title>
<g id="a_edge12"><a xlink:title="hf107">
<path fill="none" stroke="blue" d="M161.91,-395.35C169.21,-405.65 178.55,-419.35 186,-432 198.16,-452.64 210.32,-476.97 218.93,-494.97"/>
<polygon fill="blue" stroke="blue" points="215.88,-496.72 223.33,-504.26 222.21,-493.72 215.88,-496.72"/>
</a>
</g>
</g>
<!-- Cut11&#45;&gt;PiL6 -->
<g id="edge29" class="edge">
<title>Cut11&#45;&gt;PiL6</title>
<g id="a_edge29"><a xlink:title="lval48">
<path fill="none" stroke="blue" d="M144.16,-467.59C143.3,-475.49 143.05,-485.15 143.41,-494.06"/>
<polygon fill="blue" stroke="blue" points="139.92,-494.32 144.12,-504.04 146.9,-493.82 139.92,-494.32"/>
</a>
</g>
</g>
<!-- Cut11&#45;&gt;PiL6 -->
<g id="edge52" class="edge">
<title>Cut11&#45;&gt;PiL6</title>
<g id="a_edge52"><a xlink:title="yseq50">
<path fill="none" stroke="black" d="M156.58,-477.81C156.8,-483.05 156.81,-488.54 156.6,-493.78"/>
<polygon fill="black" stroke="black" points="159.33,-467.34 156.57,-477.56 152.35,-467.84 159.33,-467.34"/>
<polygon fill="black" stroke="black" points="153.09,-493.82 155.88,-504.04 160.07,-494.31 153.09,-493.82"/>
</a>
</g>
</g>
<!-- Cut11&#45;&gt;Dup9 -->
<g id="edge37" class="edge">
<title>Cut11&#45;&gt;Dup9</title>
<g id="a_edge37"><a xlink:title="newrretf108">
<path fill="none" stroke="red" d="M131.95,-463.46C104.61,-483.51 53.59,-525.83 32,-576 23.65,-595.4 22.78,-619.4 23.79,-637.59"/>
<polygon fill="red" stroke="red" points="20.32,-638.11 24.59,-647.81 27.3,-637.57 20.32,-638.11"/>
</a>
</g>
</g>
<!-- Cut11&#45;&gt;BangD18 -->
<g id="edge1" class="edge">
<title>Cut11&#45;&gt;BangD18</title>
<g id="a_edge1"><a xlink:title="c_bseq106">
<path fill="none" stroke="black" d="M166,-464.83C177.38,-474.66 192.89,-488.07 205.91,-499.31"/>
<polygon fill="black" stroke="black" points="203.77,-502.1 213.63,-505.99 208.35,-496.8 203.77,-502.1"/>
</a>
</g>
</g>
<!-- Bang12&#45;&gt;Dup9 -->
<g id="edge38" class="edge">
<title>Bang12&#45;&gt;Dup9</title>
<g id="a_edge38"><a xlink:title="newrretf114">
<path fill="none" stroke="red" d="M60.03,-611.24C54.76,-619.81 48.19,-630.51 42.3,-640.1"/>
<polygon fill="none" stroke="red" points="39.17,-638.5 36.92,-648.85 45.14,-642.16 39.17,-638.5"/>
</a>
</g>
</g>
<!-- BangD19 -->
<g id="node20" class="node">
<title>BangD19</title>
<ellipse fill="none" stroke="black" cx="149" cy="-666" rx="36" ry="18"/>
<text text-anchor="middle" x="149" y="-662.3" font-family="Times,serif" font-size="14.00">BangD</text>
</g>
<!-- Bang12&#45;&gt;BangD19 -->
<g id="edge13" class="edge">
<title>Bang12&#45;&gt;BangD19</title>
<g id="a_edge13"><a xlink:title="hf113">
<path fill="none" stroke="blue" d="M81.81,-610.54C91.99,-620.61 106.76,-633.84 119.94,-644.73"/>
<polygon fill="blue" stroke="blue" points="117.91,-647.59 127.89,-651.17 122.32,-642.15 117.91,-647.59"/>
</a>
</g>
</g>
<!-- Bang12&#45;&gt;BangD19 -->
<g id="edge31" class="edge">
<title>Bang12&#45;&gt;BangD19</title>
<g id="a_edge31"><a xlink:title="newcut_bseq125">
<path fill="none" stroke="black" d="M89.44,-607.51C101.57,-617 116.95,-630.3 129.13,-641.72"/>
<polygon fill="black" stroke="black" points="126.97,-644.5 136.61,-648.9 131.82,-639.45 126.97,-644.5"/>
</a>
</g>
</g>
<!-- Dup14 -->
<g id="node15" class="node">
<title>Dup14</title>
<ellipse fill="none" stroke="black" cx="150" cy="-306" rx="27" ry="18"/>
<text text-anchor="middle" x="150" y="-302.3" font-family="Times,serif" font-size="14.00">Dup</text>
</g>
<!-- PiR13&#45;&gt;Dup14 -->
<g id="edge47" class="edge">
<title>PiR13&#45;&gt;Dup14</title>
<g id="a_edge47"><a xlink:title="seq135">
<path fill="none" stroke="black" d="M167.43,-251.95C164.8,-259.94 161.61,-269.67 158.67,-278.6"/>
<polygon fill="none" stroke="black" points="155.31,-277.62 155.52,-288.21 161.96,-279.8 155.31,-277.62"/>
</a>
</g>
</g>
<!-- Dup15 -->
<g id="node16" class="node">
<title>Dup15</title>
<ellipse fill="none" stroke="black" cx="78" cy="-306" rx="27" ry="18"/>
<text text-anchor="middle" x="78" y="-302.3" font-family="Times,serif" font-size="14.00">Dup</text>
</g>
<!-- PiR13&#45;&gt;Dup15 -->
<g id="edge10" class="edge">
<title>PiR13&#45;&gt;Dup15</title>
<g id="a_edge10"><a xlink:title="h136">
<path fill="none" stroke="blue" d="M155.58,-247.84C141.07,-258.53 120.21,-273.9 103.77,-286.01"/>
<polygon fill="none" stroke="blue" points="101.61,-283.26 95.64,-292.01 105.76,-288.89 101.61,-283.26"/>
</a>
</g>
</g>
<!-- PiR13&#45;&gt;Dup16 -->
<g id="edge43" class="edge">
<title>PiR13&#45;&gt;Dup16</title>
<g id="a_edge43"><a xlink:title="ret137">
<path fill="none" stroke="red" d="M185.37,-250.19C192.91,-259.45 202.7,-271.48 211.19,-281.91"/>
<polygon fill="none" stroke="red" points="208.63,-284.3 217.66,-289.84 214.06,-279.88 208.63,-284.3"/>
</a>
</g>
</g>
<!-- Dup14&#45;&gt;BangC10 -->
<g id="edge48" class="edge">
<title>Dup14&#45;&gt;BangC10</title>
<g id="a_edge48"><a xlink:title="seq33">
<path fill="none" stroke="black" d="M150,-324.3C150,-332.02 150,-341.29 150,-349.89"/>
<polygon fill="black" stroke="black" points="146.5,-349.9 150,-359.9 153.5,-349.9 146.5,-349.9"/>
</a>
</g>
</g>
<!-- Dup15&#45;&gt;BangC10 -->
<g id="edge11" class="edge">
<title>Dup15&#45;&gt;BangC10</title>
<g id="a_edge11"><a xlink:title="h34">
<path fill="none" stroke="blue" d="M92.57,-321.17C102.39,-330.71 115.54,-343.5 126.79,-354.43"/>
<polygon fill="blue" stroke="blue" points="124.59,-357.18 134.2,-361.64 129.47,-352.16 124.59,-357.18"/>
</a>
</g>
</g>
<!-- Dup16&#45;&gt;Identity5 -->
<g id="edge44" class="edge">
<title>Dup16&#45;&gt;Identity5</title>
<g id="a_edge44"><a xlink:title="ret42">
<path fill="none" stroke="red" d="M240.42,-322.92C265.17,-362.89 322.03,-469.35 276,-540 259.68,-565.04 228.56,-578.34 202.1,-585.35"/>
<polygon fill="red" stroke="red" points="201.12,-581.98 192.23,-587.74 202.77,-588.79 201.12,-581.98"/>
</a>
</g>
</g>
<!-- Cut17&#45;&gt;Bang8 -->
<g id="edge5" class="edge">
<title>Cut17&#45;&gt;Bang8</title>
<g id="a_edge5"><a xlink:title="dseq20">
<path fill="none" stroke="black" d="M167.16,-107.59C166.3,-115.49 166.05,-125.15 166.41,-134.06"/>
<polygon fill="black" stroke="black" points="162.92,-134.32 167.12,-144.04 169.9,-133.82 162.92,-134.32"/>
</a>
</g>
</g>
<!-- Cut17&#45;&gt;Bang8 -->
<g id="edge34" class="edge">
<title>Cut17&#45;&gt;Bang8</title>
<g id="a_edge34"><a xlink:title="newrret18">
<path fill="none" stroke="red" d="M178.84,-107.59C179.7,-115.49 179.95,-125.15 179.59,-134.06"/>
<polygon fill="red" stroke="red" points="176.1,-133.82 178.88,-144.04 183.08,-134.32 176.1,-133.82"/>
</a>
</g>
</g>
<!-- Cut17&#45;&gt;Dup14 -->
<g id="edge46" class="edge">
<title>Cut17&#45;&gt;Dup14</title>
<g id="a_edge46"><a xlink:title="seq131">
<path fill="none" stroke="black" d="M152.34,-113.25C145.43,-122.14 138.57,-132.89 135,-144 120.35,-189.58 131.88,-245.88 141.2,-278.39"/>
<polygon fill="black" stroke="black" points="161.58,-107.59 152.5,-113.06 156.19,-103.12 161.58,-107.59"/>
<polygon fill="black" stroke="black" points="137.88,-279.5 144.12,-288.07 144.59,-277.48 137.88,-279.5"/>
</a>
</g>
</g>
<!-- Cut17&#45;&gt;Dup15 -->
<g id="edge9" class="edge">
<title>Cut17&#45;&gt;Dup15</title>
<g id="a_edge9"><a xlink:title="h132">
<path fill="none" stroke="blue" d="M156.77,-104.79C146.05,-114.7 132.48,-128.93 124,-144 99.57,-187.44 87.23,-244.91 81.75,-278.13"/>
<polygon fill="blue" stroke="blue" points="78.29,-277.59 80.2,-288.01 85.2,-278.68 78.29,-277.59"/>
</a>
</g>
</g>
<!-- PiL20 -->
<g id="node21" class="node">
<title>PiL20</title>
<ellipse fill="none" stroke="black" cx="226" cy="-738" rx="27" ry="18"/>
<text text-anchor="middle" x="226" y="-734.3" font-family="Times,serif" font-size="14.00">PiL</text>
</g>
<!-- BangD18&#45;&gt;PiL20 -->
<g id="edge14" class="edge">
<title>BangD18&#45;&gt;PiL20</title>
<g id="a_edge14"><a xlink:title="hseq140">
<path fill="none" stroke="black" d="M226.72,-540.15C222.31,-577.26 219.99,-665.25 221.96,-709.95"/>
<polygon fill="black" stroke="black" points="218.48,-710.28 222.54,-720.06 225.46,-709.88 218.48,-710.28"/>
</a>
</g>
</g>
<!-- BangD18&#45;&gt;PiL20 -->
<g id="edge27" class="edge">
<title>BangD18&#45;&gt;PiL20</title>
<g id="a_edge27"><a xlink:title="lval141">
<path fill="none" stroke="blue" d="M234.48,-540.15C237.15,-577.26 235.36,-665.25 231.3,-709.95"/>
<polygon fill="blue" stroke="blue" points="227.8,-709.76 230.25,-720.06 234.77,-710.48 227.8,-709.76"/>
</a>
</g>
</g>
<!-- PiL21 -->
<g id="node22" class="node">
<title>PiL21</title>
<ellipse fill="none" stroke="black" cx="154" cy="-738" rx="27" ry="18"/>
<text text-anchor="middle" x="154" y="-734.3" font-family="Times,serif" font-size="14.00">PiL</text>
</g>
<!-- BangD19&#45;&gt;PiL21 -->
<g id="edge15" class="edge">
<title>BangD19&#45;&gt;PiL21</title>
<g id="a_edge15"><a xlink:title="hseq143">
<path fill="none" stroke="black" d="M144.33,-683.95C144.06,-691.86 144.51,-701.46 145.52,-710.31"/>
<polygon fill="black" stroke="black" points="142.05,-710.81 146.94,-720.21 148.98,-709.81 142.05,-710.81"/>
</a>
</g>
</g>
<!-- BangD19&#45;&gt;PiL21 -->
<g id="edge28" class="edge">
<title>BangD19&#45;&gt;PiL21</title>
<g id="a_edge28"><a xlink:title="lval144">
<path fill="none" stroke="blue" d="M156.09,-683.95C157.48,-691.77 158.39,-701.25 158.66,-710.02"/>
<polygon fill="blue" stroke="blue" points="155.16,-710.21 158.66,-720.21 162.16,-710.21 155.16,-710.21"/>
</a>
</g>
</g>
<!-- Dup22 -->
<g id="node23" class="node">
<title>Dup22</title>
<ellipse fill="none" stroke="black" cx="226" cy="-822" rx="27" ry="18"/>
<text text-anchor="middle" x="226" y="-818.3" font-family="Times,serif" font-size="14.00">Dup</text>
</g>
<!-- PiL20&#45;&gt;Dup22 -->
<g id="edge3" class="edge">
<title>PiL20&#45;&gt;Dup22</title>
<g id="a_edge3"><a xlink:title="dseq146">
<path fill="none" stroke="black" d="M226,-756.39C226,-767.22 226,-781.4 226,-793.71"/>
<polygon fill="black" stroke="black" points="222.5,-793.91 226,-803.91 229.5,-793.91 222.5,-793.91"/>
</a>
</g>
</g>
<!-- Dup23 -->
<g id="node24" class="node">
<title>Dup23</title>
<ellipse fill="none" stroke="black" cx="301" cy="-822" rx="26" ry="26"/>
<ellipse fill="none" stroke="black" cx="301" cy="-822" rx="30" ry="30"/>
<text text-anchor="middle" x="301" y="-818.3" font-family="Times,serif" font-size="14.00">Dup</text>
</g>
<!-- PiL20&#45;&gt;Dup23 -->
<g id="edge32" class="edge">
<title>PiL20&#45;&gt;Dup23</title>
<g id="a_edge32"><a xlink:title="newrret147">
<path fill="none" stroke="red" d="M239.41,-753.66C249.13,-764.29 262.6,-779.01 274.46,-791.98"/>
<polygon fill="red" stroke="red" points="271.89,-794.35 281.22,-799.37 277.05,-789.63 271.89,-794.35"/>
</a>
</g>
</g>
<!-- Dup24 -->
<g id="node25" class="node">
<title>Dup24</title>
<ellipse fill="none" stroke="black" cx="154" cy="-822" rx="27" ry="18"/>
<text text-anchor="middle" x="154" y="-818.3" font-family="Times,serif" font-size="14.00">Dup</text>
</g>
<!-- PiL20&#45;&gt;Dup24 -->
<g id="edge17" class="edge">
<title>PiL20&#45;&gt;Dup24</title>
<g id="a_edge17"><a xlink:title="idseq148">
<path fill="none" stroke="black" d="M205.92,-761.87C195.94,-773.24 183.91,-786.93 173.95,-798.27"/>
<polygon fill="black" stroke="black" points="215.42,-756.35 206.2,-761.55 210.16,-751.73 215.42,-756.35"/>
<polygon fill="black" stroke="black" points="171.09,-796.23 167.12,-806.05 176.35,-800.85 171.09,-796.23"/>
</a>
</g>
</g>
<!-- Dup25 -->
<g id="node26" class="node">
<title>Dup25</title>
<ellipse fill="none" stroke="black" cx="82" cy="-822" rx="27" ry="18"/>
<text text-anchor="middle" x="82" y="-818.3" font-family="Times,serif" font-size="14.00">Dup</text>
</g>
<!-- PiL20&#45;&gt;Dup25 -->
<g id="edge23" class="edge">
<title>PiL20&#45;&gt;Dup25</title>
<g id="a_edge23"><a xlink:title="lret149">
<path fill="none" stroke="blue" d="M204.71,-749.14C175.54,-763.07 125.88,-786.98 118,-792 113.82,-794.66 109.56,-797.73 105.51,-800.85"/>
<polygon fill="blue" stroke="blue" points="103.18,-798.23 97.56,-807.21 107.55,-803.69 103.18,-798.23"/>
</a>
</g>
</g>
<!-- PiL21&#45;&gt;Dup22 -->
<g id="edge4" class="edge">
<title>PiL21&#45;&gt;Dup22</title>
<g id="a_edge4"><a xlink:title="dseq151">
<path fill="none" stroke="black" d="M167.21,-754.04C178.07,-766.41 193.63,-784.13 206.01,-798.23"/>
<polygon fill="none" stroke="black" points="203.65,-800.85 212.88,-806.05 208.91,-796.23 203.65,-800.85"/>
</a>
</g>
</g>
<!-- PiL21&#45;&gt;Dup23 -->
<g id="edge33" class="edge">
<title>PiL21&#45;&gt;Dup23</title>
<g id="a_edge33"><a xlink:title="newrret152">
<path fill="none" stroke="red" d="M175.27,-749.18C204.4,-763.16 254.02,-787.13 262,-792 264.43,-793.48 266.9,-795.08 269.35,-796.73"/>
<polygon fill="none" stroke="red" points="267.36,-799.61 277.56,-802.49 271.38,-793.88 267.36,-799.61"/>
</a>
</g>
</g>
<!-- PiL21&#45;&gt;Dup24 -->
<g id="edge18" class="edge">
<title>PiL21&#45;&gt;Dup24</title>
<g id="a_edge18"><a xlink:title="idseq153">
<path fill="none" stroke="black" d="M154,-766.64C154,-775.42 154,-785.11 154,-793.85"/>
<polygon fill="black" stroke="black" points="157.5,-756.39 154,-766.39 150.5,-756.39 157.5,-756.39"/>
<polygon fill="none" stroke="black" points="150.5,-793.91 154,-803.91 157.5,-793.91 150.5,-793.91"/>
</a>
</g>
</g>
<!-- PiL21&#45;&gt;Dup25 -->
<g id="edge24" class="edge">
<title>PiL21&#45;&gt;Dup25</title>
<g id="a_edge24"><a xlink:title="lret154">
<path fill="none" stroke="blue" d="M140.79,-754.04C129.93,-766.41 114.37,-784.13 101.99,-798.23"/>
<polygon fill="none" stroke="blue" points="99.09,-796.23 95.12,-806.05 104.35,-800.85 99.09,-796.23"/>
</a>
</g>
</g>
<!-- Dup22&#45;&gt;Bang3 -->
<g id="edge7" class="edge">
<title>Dup22&#45;&gt;Bang3</title>
<g id="a_edge7"><a xlink:title="dseq76">
<path fill="none" stroke="black" d="M226,-840.39C226,-851.22 226,-865.4 226,-877.7"/>
<polygon fill="black" stroke="black" points="222.5,-877.91 226,-887.91 229.5,-877.91 222.5,-877.91"/>
</a>
</g>
</g>
<!-- Dup23&#45;&gt;Bang3 -->
<g id="edge36" class="edge">
<title>Dup23&#45;&gt;Bang3</title>
<g id="a_edge36"><a xlink:title="newrret74">
<path fill="none" stroke="red" stroke-width="2" d="M280.9,-844.97C270.32,-856.53 257.38,-870.69 246.71,-882.35"/>
<polygon fill="red" stroke="red" stroke-width="2" points="243.91,-880.22 239.75,-889.96 249.08,-884.95 243.91,-880.22"/>
</a>
</g>
</g>
<!-- Dup24&#45;&gt;Identity4 -->
<g id="edge20" class="edge">
<title>Dup24&#45;&gt;Identity4</title>
<g id="a_edge20"><a xlink:title="idseq77">
<path fill="none" stroke="black" d="M151.1,-839.99C149.22,-850.98 146.74,-865.53 144.6,-878.08"/>
<polygon fill="black" stroke="black" points="141.13,-877.58 142.9,-888.03 148.03,-878.76 141.13,-877.58"/>
</a>
</g>
</g>
<!-- Dup25&#45;&gt;Identity4 -->
<g id="edge26" class="edge">
<title>Dup25&#45;&gt;Identity4</title>
<g id="a_edge26"><a xlink:title="lret75">
<path fill="none" stroke="blue" d="M93.18,-838.81C101.5,-850.57 113.01,-866.84 122.53,-880.3"/>
<polygon fill="blue" stroke="blue" points="119.82,-882.53 128.45,-888.67 125.54,-878.49 119.82,-882.53"/>
</a>
</g>
</g>
</g>
</svg>
