<?xml version="1.0" encoding="UTF-8" standalone="no"?>
<!DOCTYPE svg PUBLIC "-//W3C//DTD SVG 1.1//EN"
 "http://www.w3.org/Graphics/SVG/1.1/DTD/svg11.dtd">
<!-- Generated by graphviz version 2.49.3 (0)
 -->
<!-- Pages: 1 -->
<svg width="510pt" height="855pt"
 viewBox="0.00 0.00 510.10 854.80" xmlns="http://www.w3.org/2000/svg" xmlns:xlink="http://www.w3.org/1999/xlink">
<g id="graph0" class="graph" transform="scale(1 1) rotate(0) translate(4 850.8)">
<polygon fill="white" stroke="transparent" points="-4,4 -4,-850.8 506.1,-850.8 506.1,4 -4,4"/>
<!-- I0 -->
<g id="node1" class="node">
<title>I0</title>
<ellipse fill="none" stroke="black" cx="82" cy="-828.8" rx="27" ry="18"/>
<text text-anchor="middle" x="82" y="-825.1" font-family="Times,serif" font-size="14.00">I</text>
</g>
<!-- !d1 -->
<g id="node2" class="node">
<title>!d1</title>
<ellipse fill="none" stroke="black" cx="27" cy="-756.8" rx="27" ry="18"/>
<text text-anchor="middle" x="27" y="-753.1" font-family="Times,serif" font-size="14.00">!d</text>
</g>
<!-- I0&#45;&gt;!d1 -->
<g id="edge9" class="edge">
<title>I0&#45;&gt;!d1</title>
<g id="a_edge9"><a xlink:title="iret84">
<path fill="none" stroke="blue" d="M63.83,-804.67C55.63,-794.24 46.19,-782.21 38.91,-772.96"/>
<polygon fill="blue" stroke="blue" points="61.14,-806.91 70.07,-812.61 66.64,-802.58 61.14,-806.91"/>
</a>
</g>
</g>
<!-- λ2 -->
<g id="node3" class="node">
<title>λ2</title>
<ellipse fill="none" stroke="black" cx="82" cy="-684.8" rx="27" ry="18"/>
<text text-anchor="middle" x="82" y="-681.1" font-family="Times,serif" font-size="14.00">λ</text>
</g>
<!-- !d1&#45;&gt;λ2 -->
<g id="edge8" class="edge">
<title>!d1&#45;&gt;λ2</title>
<g id="a_edge8"><a xlink:title="i81">
<path fill="none" stroke="blue" d="M45.17,-732.67C53.37,-722.24 62.81,-710.21 70.09,-700.96"/>
<polygon fill="blue" stroke="blue" points="42.36,-730.58 38.93,-740.61 47.86,-734.91 42.36,-730.58"/>
</a>
</g>
</g>
<!-- λ2&#45;&gt;I0 -->
<g id="edge29" class="edge">
<title>λ2&#45;&gt;I0</title>
<g id="a_edge29"><a xlink:title="ret82">
<path fill="none" stroke="red" d="M82,-702.99C82,-727.22 82,-771.68 82,-800.47"/>
<polygon fill="red" stroke="red" points="78.5,-800.67 82,-810.67 85.5,-800.67 78.5,-800.67"/>
</a>
</g>
</g>
<!-- !p3 -->
<g id="node4" class="node">
<title>!p3</title>
<ellipse fill="none" stroke="black" cx="137" cy="-756.8" rx="27" ry="18"/>
<text text-anchor="middle" x="137" y="-753.1" font-family="Times,serif" font-size="14.00">!p</text>
</g>
<!-- !p3&#45;&gt;λ2 -->
<g id="edge22" class="edge">
<title>!p3&#45;&gt;λ2</title>
<g id="a_edge22"><a xlink:title="newrretf78">
<path fill="none" stroke="red" d="M125.07,-740.61C117.79,-731.34 108.34,-719.32 100.15,-708.89"/>
<polygon fill="red" stroke="red" points="102.84,-706.66 93.91,-700.96 97.34,-710.98 102.84,-706.66"/>
</a>
</g>
</g>
<!-- I4 -->
<g id="node5" class="node">
<title>I4</title>
<ellipse fill="none" stroke="black" cx="263" cy="-18" rx="27" ry="18"/>
<text text-anchor="middle" x="263" y="-14.3" font-family="Times,serif" font-size="14.00">I</text>
</g>
<!-- @5 -->
<g id="node6" class="node">
<title>@5</title>
<ellipse fill="none" stroke="black" cx="173" cy="-828.8" rx="27" ry="18"/>
<text text-anchor="middle" x="173" y="-825.1" font-family="Times,serif" font-size="14.00">@</text>
</g>
<!-- I4&#45;&gt;@5 -->
<g id="edge12" class="edge">
<title>I4&#45;&gt;@5</title>
<g id="a_edge12"><a xlink:title="lret75">
<path fill="none" stroke="blue" d="M243.2,-41.9C222.19,-68.6 192,-114.99 192,-161 192,-685.8 192,-685.8 192,-685.8 192,-731.31 182.29,-784.32 176.75,-810.84"/>
<polygon fill="blue" stroke="blue" points="246.07,-43.91 249.65,-33.94 240.63,-39.51 246.07,-43.91"/>
</a>
</g>
</g>
<!-- @5&#45;&gt;!p3 -->
<g id="edge18" class="edge">
<title>@5&#45;&gt;!p3</title>
<g id="a_edge18"><a xlink:title="newrret74">
<path fill="none" stroke="red" d="M164.65,-811.56C160.29,-803.08 154.85,-792.51 149.96,-782.99"/>
<polygon fill="red" stroke="red" points="152.99,-781.24 145.3,-773.94 146.77,-784.44 152.99,-781.24"/>
</a>
</g>
</g>
<!-- !d6 -->
<g id="node7" class="node">
<title>!d6</title>
<ellipse fill="none" stroke="black" cx="247" cy="-756.8" rx="27" ry="18"/>
<text text-anchor="middle" x="247" y="-753.1" font-family="Times,serif" font-size="14.00">!d</text>
</g>
<!-- @5&#45;&gt;!d6 -->
<g id="edge15" class="edge">
<title>@5&#45;&gt;!d6</title>
<g id="a_edge15"><a xlink:title="lval70">
<path fill="none" stroke="blue" d="M195.37,-806.63C207.25,-795.4 221.52,-781.9 232.05,-771.94"/>
<polygon fill="blue" stroke="blue" points="192.83,-804.22 187.98,-813.63 197.64,-809.3 192.83,-804.22"/>
</a>
</g>
</g>
<!-- Dup16 -->
<g id="node17" class="node">
<title>Dup16</title>
<ellipse fill="none" stroke="black" cx="247" cy="-684.8" rx="27" ry="18"/>
<text text-anchor="middle" x="247" y="-681.1" font-family="Times,serif" font-size="14.00">Dup</text>
</g>
<!-- !d6&#45;&gt;Dup16 -->
<g id="edge7" class="edge">
<title>!d6&#45;&gt;Dup16</title>
<g id="a_edge7"><a xlink:title="hf65">
<path fill="none" stroke="blue" d="M247,-728.46C247,-719.85 247,-710.59 247,-702.9"/>
<polygon fill="blue" stroke="blue" points="243.5,-728.49 247,-738.49 250.5,-728.49 243.5,-728.49"/>
</a>
</g>
</g>
<!-- I7 -->
<g id="node8" class="node">
<title>I7</title>
<ellipse fill="none" stroke="black" cx="395" cy="-306" rx="27" ry="18"/>
<text text-anchor="middle" x="395" y="-302.3" font-family="Times,serif" font-size="14.00">I</text>
</g>
<!-- @8 -->
<g id="node9" class="node">
<title>@8</title>
<ellipse fill="none" stroke="black" cx="331" cy="-234" rx="27" ry="18"/>
<text text-anchor="middle" x="331" y="-230.3" font-family="Times,serif" font-size="14.00">@</text>
</g>
<!-- I7&#45;&gt;@8 -->
<g id="edge11" class="edge">
<title>I7&#45;&gt;@8</title>
<g id="a_edge11"><a xlink:title="lret53">
<path fill="none" stroke="blue" d="M374.64,-282.73C364.81,-271.98 353.29,-259.38 344.55,-249.82"/>
<polygon fill="blue" stroke="blue" points="372.1,-285.14 381.43,-290.15 377.26,-280.41 372.1,-285.14"/>
</a>
</g>
</g>
<!-- Cut18 -->
<g id="node19" class="node">
<title>Cut18</title>
<ellipse fill="none" stroke="black" cx="335" cy="-162" rx="27" ry="18"/>
<text text-anchor="middle" x="335" y="-158.3" font-family="Times,serif" font-size="14.00">Cut</text>
</g>
<!-- @8&#45;&gt;Cut18 -->
<g id="edge14" class="edge">
<title>@8&#45;&gt;Cut18</title>
<g id="a_edge14"><a xlink:title="lval48">
<path fill="none" stroke="blue" d="M332.56,-205.67C333.05,-197.05 333.58,-187.79 334.02,-180.1"/>
<polygon fill="blue" stroke="blue" points="329.07,-205.51 331.99,-215.7 336.05,-205.91 329.07,-205.51"/>
</a>
</g>
</g>
<!-- !p19 -->
<g id="node20" class="node">
<title>!p19</title>
<ellipse fill="none" stroke="black" cx="263" cy="-162" rx="27" ry="18"/>
<text text-anchor="middle" x="263" y="-158.3" font-family="Times,serif" font-size="14.00">!p</text>
</g>
<!-- @8&#45;&gt;!p19 -->
<g id="edge17" class="edge">
<title>@8&#45;&gt;!p19</title>
<g id="a_edge17"><a xlink:title="newrret52">
<path fill="none" stroke="red" d="M316.91,-218.5C307.43,-208.73 294.76,-195.69 284.08,-184.7"/>
<polygon fill="red" stroke="red" points="286.55,-182.22 277.07,-177.49 281.53,-187.1 286.55,-182.22"/>
</a>
</g>
</g>
<!-- I9 -->
<g id="node10" class="node">
<title>I9</title>
<ellipse fill="none" stroke="black" cx="467" cy="-684.8" rx="27" ry="18"/>
<text text-anchor="middle" x="467" y="-681.1" font-family="Times,serif" font-size="14.00">I</text>
</g>
<!-- @10 -->
<g id="node11" class="node">
<title>@10</title>
<ellipse fill="none" stroke="black" cx="467" cy="-612.8" rx="27" ry="18"/>
<text text-anchor="middle" x="467" y="-609.1" font-family="Times,serif" font-size="14.00">@</text>
</g>
<!-- I9&#45;&gt;@10 -->
<g id="edge10" class="edge">
<title>I9&#45;&gt;@10</title>
<g id="a_edge10"><a xlink:title="lret19">
<path fill="none" stroke="blue" d="M467,-656.46C467,-647.85 467,-638.59 467,-630.9"/>
<polygon fill="blue" stroke="blue" points="463.5,-656.49 467,-666.49 470.5,-656.49 463.5,-656.49"/>
</a>
</g>
</g>
<!-- Cut12 -->
<g id="node13" class="node">
<title>Cut12</title>
<ellipse fill="none" stroke="black" cx="395" cy="-531.4" rx="23.31" ry="23.31"/>
<ellipse fill="none" stroke="black" cx="395" cy="-531.4" rx="27.3" ry="27.3"/>
<text text-anchor="middle" x="395" y="-527.7" font-family="Times,serif" font-size="14.00">Cut</text>
</g>
<!-- @10&#45;&gt;Cut12 -->
<g id="edge13" class="edge">
<title>@10&#45;&gt;Cut12</title>
<g id="a_edge13"><a xlink:title="lval14">
<path fill="none" stroke="blue" stroke-width="2" d="M446.57,-589.27C436.03,-577.65 423.29,-563.59 413.1,-552.36"/>
<polygon fill="blue" stroke="blue" stroke-width="2" points="444.15,-591.81 453.46,-596.86 449.33,-587.1 444.15,-591.81"/>
</a>
</g>
</g>
<!-- !p13 -->
<g id="node14" class="node">
<title>!p13</title>
<ellipse fill="none" stroke="black" cx="467" cy="-531.4" rx="27" ry="18"/>
<text text-anchor="middle" x="467" y="-527.7" font-family="Times,serif" font-size="14.00">!p</text>
</g>
<!-- @10&#45;&gt;!p13 -->
<g id="edge16" class="edge">
<title>@10&#45;&gt;!p13</title>
<g id="a_edge16"><a xlink:title="newrret18">
<path fill="none" stroke="red" d="M467,-594.57C467,-584.37 467,-571.23 467,-559.65"/>
<polygon fill="red" stroke="red" points="470.5,-559.59 467,-549.59 463.5,-559.59 470.5,-559.59"/>
</a>
</g>
</g>
<!-- Assign11 -->
<g id="node12" class="node">
<title>Assign11</title>
<ellipse fill="none" stroke="black" cx="467" cy="-756.8" rx="35.19" ry="18"/>
<text text-anchor="middle" x="467" y="-753.1" font-family="Times,serif" font-size="14.00">Assign</text>
</g>
<!-- Assign11&#45;&gt;I9 -->
<g id="edge28" class="edge">
<title>Assign11&#45;&gt;I9</title>
<g id="a_edge28"><a xlink:title="ret8">
<path fill="none" stroke="red" d="M467,-738.49C467,-730.78 467,-721.51 467,-712.91"/>
<polygon fill="red" stroke="red" points="470.5,-712.9 467,-702.9 463.5,-712.9 470.5,-712.9"/>
</a>
</g>
</g>
<!-- λ20 -->
<g id="node21" class="node">
<title>λ20</title>
<ellipse fill="none" stroke="black" cx="395" cy="-450" rx="27" ry="18"/>
<text text-anchor="middle" x="395" y="-446.3" font-family="Times,serif" font-size="14.00">λ</text>
</g>
<!-- Cut12&#45;&gt;λ20 -->
<g id="edge23" class="edge">
<title>Cut12&#45;&gt;λ20</title>
<g id="a_edge23"><a xlink:title="newrretf87">
<path fill="none" stroke="red" d="M395,-503.96C395,-495.8 395,-486.81 395,-478.58"/>
<polygon fill="red" stroke="red" points="398.5,-478.34 395,-468.34 391.5,-478.34 398.5,-478.34"/>
</a>
</g>
</g>
<!-- λ21 -->
<g id="node22" class="node">
<title>λ21</title>
<ellipse fill="none" stroke="black" cx="467" cy="-450" rx="27" ry="18"/>
<text text-anchor="middle" x="467" y="-446.3" font-family="Times,serif" font-size="14.00">λ</text>
</g>
<!-- !p13&#45;&gt;λ21 -->
<g id="edge24" class="edge">
<title>!p13&#45;&gt;λ21</title>
<g id="a_edge24"><a xlink:title="newrretf91">
<path fill="none" stroke="red" d="M467,-513.17C467,-502.97 467,-489.83 467,-478.25"/>
<polygon fill="red" stroke="red" points="470.5,-478.19 467,-468.19 463.5,-478.19 470.5,-478.19"/>
</a>
</g>
</g>
<!-- Dup14 -->
<g id="node15" class="node">
<title>Dup14</title>
<ellipse fill="none" stroke="black" cx="245" cy="-828.8" rx="27" ry="18"/>
<text text-anchor="middle" x="245" y="-825.1" font-family="Times,serif" font-size="14.00">Dup</text>
</g>
<!-- Dup15 -->
<g id="node16" class="node">
<title>Dup15</title>
<ellipse fill="none" stroke="black" cx="263" cy="-90" rx="27" ry="18"/>
<text text-anchor="middle" x="263" y="-86.3" font-family="Times,serif" font-size="14.00">Dup</text>
</g>
<!-- Dup15&#45;&gt;I4 -->
<g id="edge21" class="edge">
<title>Dup15&#45;&gt;I4</title>
<g id="a_edge21"><a xlink:title="newrretf66">
<path fill="none" stroke="red" d="M263,-71.7C263,-63.98 263,-54.71 263,-46.11"/>
<polygon fill="red" stroke="red" points="266.5,-46.1 263,-36.1 259.5,-46.1 266.5,-46.1"/>
</a>
</g>
</g>
<!-- !c17 -->
<g id="node18" class="node">
<title>!c17</title>
<ellipse fill="none" stroke="black" cx="285" cy="-612.8" rx="27" ry="18"/>
<text text-anchor="middle" x="285" y="-609.1" font-family="Times,serif" font-size="14.00">!c</text>
</g>
<!-- Dup16&#45;&gt;!c17 -->
<g id="edge5" class="edge">
<title>Dup16&#45;&gt;!c17</title>
<g id="a_edge5"><a xlink:title="hf107">
<path fill="none" stroke="blue" d="M260.73,-658.5C265.9,-648.98 271.64,-638.41 276.23,-629.94"/>
<polygon fill="blue" stroke="blue" points="257.51,-657.1 255.81,-667.56 263.66,-660.44 257.51,-657.1"/>
</a>
</g>
</g>
<!-- Dup16&#45;&gt;!p19 -->
<g id="edge6" class="edge">
<title>Dup16&#45;&gt;!p19</title>
<g id="a_edge6"><a xlink:title="hf113">
<path fill="none" stroke="blue" d="M242.06,-656.42C237.04,-626.18 230,-575.98 230,-532.4 230,-532.4 230,-532.4 230,-305 230,-258.68 246.86,-206.02 256.48,-179.76"/>
<polygon fill="none" stroke="blue" points="238.67,-657.34 243.8,-666.61 245.57,-656.16 238.67,-657.34"/>
</a>
</g>
</g>
<!-- Dup23 -->
<g id="node24" class="node">
<title>Dup23</title>
<ellipse fill="none" stroke="black" cx="323" cy="-531.4" rx="27" ry="18"/>
<text text-anchor="middle" x="323" y="-527.7" font-family="Times,serif" font-size="14.00">Dup</text>
</g>
<!-- !c17&#45;&gt;Dup23 -->
<g id="edge4" class="edge">
<title>!c17&#45;&gt;Dup23</title>
<g id="a_edge4"><a xlink:title="h34">
<path fill="none" stroke="blue" d="M297.31,-586.07C303.17,-573.84 309.99,-559.58 315.14,-548.83"/>
<polygon fill="blue" stroke="blue" points="294.03,-584.81 292.87,-595.34 300.35,-587.84 294.03,-584.81"/>
</a>
</g>
</g>
<!-- Cut18&#45;&gt;Dup15 -->
<g id="edge19" class="edge">
<title>Cut18&#45;&gt;Dup15</title>
<g id="a_edge19"><a xlink:title="newrretf108">
<path fill="none" stroke="red" d="M320.43,-146.83C310.25,-136.94 296.48,-123.55 284.97,-112.36"/>
<polygon fill="red" stroke="red" points="287.41,-109.85 277.8,-105.38 282.53,-114.87 287.41,-109.85"/>
</a>
</g>
</g>
<!-- !p19&#45;&gt;Dup15 -->
<g id="edge20" class="edge">
<title>!p19&#45;&gt;Dup15</title>
<g id="a_edge20"><a xlink:title="newrretf114">
<path fill="none" stroke="red" d="M263,-143.7C263,-135.98 263,-126.71 263,-118.11"/>
<polygon fill="none" stroke="red" points="266.5,-118.1 263,-108.1 259.5,-118.1 266.5,-118.1"/>
</a>
</g>
</g>
<!-- !p19&#45;&gt;!c17 -->
<g id="edge1" class="edge">
<title>!p19&#45;&gt;!c17</title>
<g id="a_edge1"><a xlink:title="h116">
<path fill="none" stroke="blue" d="M264.52,-190.07C265.99,-218.63 268,-264.97 268,-305 268,-451 268,-451 268,-451 268,-498.16 275.32,-552.68 280.36,-584.58"/>
<polygon fill="blue" stroke="blue" points="268.01,-189.84 263.99,-180.04 261.02,-190.21 268.01,-189.84"/>
<polygon fill="blue" stroke="blue" points="278.51,-595.05 280.36,-584.62 285.42,-593.93 278.51,-595.05"/>
</a>
</g>
</g>
<!-- Dup24 -->
<g id="node25" class="node">
<title>Dup24</title>
<ellipse fill="none" stroke="black" cx="395" cy="-378" rx="27" ry="18"/>
<text text-anchor="middle" x="395" y="-374.3" font-family="Times,serif" font-size="14.00">Dup</text>
</g>
<!-- λ20&#45;&gt;Dup24 -->
<g id="edge25" class="edge">
<title>λ20&#45;&gt;Dup24</title>
<g id="a_edge25"><a xlink:title="ret133">
<path fill="none" stroke="red" d="M395,-431.7C395,-423.98 395,-414.71 395,-406.11"/>
<polygon fill="red" stroke="red" points="398.5,-406.1 395,-396.1 391.5,-406.1 398.5,-406.1"/>
</a>
</g>
</g>
<!-- λ21&#45;&gt;Dup24 -->
<g id="edge26" class="edge">
<title>λ21&#45;&gt;Dup24</title>
<g id="a_edge26"><a xlink:title="ret137">
<path fill="none" stroke="red" d="M452.43,-434.83C442.25,-424.94 428.48,-411.55 416.97,-400.36"/>
<polygon fill="none" stroke="red" points="419.41,-397.85 409.8,-393.38 414.53,-402.87 419.41,-397.85"/>
</a>
</g>
</g>
<!-- Dup22 -->
<g id="node23" class="node">
<title>Dup22</title>
<ellipse fill="none" stroke="black" cx="317" cy="-828.8" rx="27" ry="18"/>
<text text-anchor="middle" x="317" y="-825.1" font-family="Times,serif" font-size="14.00">Dup</text>
</g>
<!-- Dup23&#45;&gt;λ20 -->
<g id="edge2" class="edge">
<title>Dup23&#45;&gt;λ20</title>
<g id="a_edge2"><a xlink:title="h132">
<path fill="none" stroke="blue" d="M343.34,-507.97C355.56,-494.49 370.77,-477.71 381.52,-465.87"/>
<polygon fill="blue" stroke="blue" points="340.67,-505.7 336.54,-515.46 345.85,-510.41 340.67,-505.7"/>
</a>
</g>
</g>
<!-- Dup23&#45;&gt;λ21 -->
<g id="edge3" class="edge">
<title>Dup23&#45;&gt;λ21</title>
<g id="a_edge3"><a xlink:title="h136">
<path fill="none" stroke="blue" d="M347.96,-511.23C351.6,-508.7 355.35,-506.21 359,-504 367,-499.16 416.61,-475.18 445.74,-461.19"/>
<polygon fill="none" stroke="blue" points="345.84,-508.44 339.79,-517.14 349.94,-514.12 345.84,-508.44"/>
</a>
</g>
</g>
<!-- Dup24&#45;&gt;I7 -->
<g id="edge27" class="edge">
<title>Dup24&#45;&gt;I7</title>
<g id="a_edge27"><a xlink:title="ret42">
<path fill="none" stroke="red" d="M395,-359.7C395,-351.98 395,-342.71 395,-334.11"/>
<polygon fill="red" stroke="red" points="398.5,-334.1 395,-324.1 391.5,-334.1 398.5,-334.1"/>
</a>
</g>
</g>
</g>
</svg>
