<?xml version="1.0" encoding="UTF-8" standalone="no"?>
<!DOCTYPE svg PUBLIC "-//W3C//DTD SVG 1.1//EN"
 "http://www.w3.org/Graphics/SVG/1.1/DTD/svg11.dtd">
<!-- Generated by graphviz version 2.49.3 (0)
 -->
<!-- Pages: 1 -->
<svg width="535pt" height="1004pt"
 viewBox="0.00 0.00 535.00 1004.00" xmlns="http://www.w3.org/2000/svg" xmlns:xlink="http://www.w3.org/1999/xlink">
<g id="graph0" class="graph" transform="scale(1 1) rotate(0) translate(4 1000)">
<polygon fill="white" stroke="transparent" points="-4,4 -4,-1000 531,-1000 531,4 -4,4"/>
<!-- I0 -->
<g id="node1" class="node">
<title>I0</title>
<ellipse fill="none" stroke="black" cx="27" cy="-978" rx="27" ry="18"/>
<text text-anchor="middle" x="27" y="-974.3" font-family="Times,serif" font-size="14.00">I</text>
</g>
<!-- Dup19 -->
<g id="node20" class="node">
<title>Dup19</title>
<ellipse fill="none" stroke="black" cx="314" cy="-906" rx="27" ry="18"/>
<text text-anchor="middle" x="314" y="-902.3" font-family="Times,serif" font-size="14.00">Dup</text>
</g>
<!-- I0&#45;&gt;Dup19 -->
<g id="edge14" class="edge">
<title>I0&#45;&gt;Dup19</title>
<g id="a_edge14"><a xlink:title="lret75">
<path fill="none" stroke="blue" d="M57.19,-962.13C59.14,-961.36 61.08,-960.64 63,-960 142.78,-933.15 241.57,-917.05 287.81,-910.47"/>
<polygon fill="blue" stroke="blue" points="55.4,-959.09 47.6,-966.26 58.17,-965.52 55.4,-959.09"/>
</a>
</g>
</g>
<!-- I1 -->
<g id="node2" class="node">
<title>I1</title>
<ellipse fill="none" stroke="black" cx="158" cy="-234" rx="27" ry="18"/>
<text text-anchor="middle" x="158" y="-230.3" font-family="Times,serif" font-size="14.00">I</text>
</g>
<!-- @2 -->
<g id="node3" class="node">
<title>@2</title>
<ellipse fill="none" stroke="black" cx="158" cy="-162" rx="27" ry="18"/>
<text text-anchor="middle" x="158" y="-158.3" font-family="Times,serif" font-size="14.00">@</text>
</g>
<!-- I1&#45;&gt;@2 -->
<g id="edge13" class="edge">
<title>I1&#45;&gt;@2</title>
<g id="a_edge13"><a xlink:title="lret53">
<path fill="none" stroke="blue" d="M158,-205.67C158,-197.05 158,-187.79 158,-180.1"/>
<polygon fill="blue" stroke="blue" points="154.5,-205.7 158,-215.7 161.5,-205.7 154.5,-205.7"/>
</a>
</g>
</g>
<!-- Cut7 -->
<g id="node8" class="node">
<title>Cut7</title>
<ellipse fill="none" stroke="black" cx="86" cy="-90" rx="27" ry="18"/>
<text text-anchor="middle" x="86" y="-86.3" font-family="Times,serif" font-size="14.00">Cut</text>
</g>
<!-- @2&#45;&gt;Cut7 -->
<g id="edge17" class="edge">
<title>@2&#45;&gt;Cut7</title>
<g id="a_edge17"><a xlink:title="lval48">
<path fill="none" stroke="blue" d="M135.96,-139.57C124.55,-128.48 110.93,-115.24 100.8,-105.38"/>
<polygon fill="blue" stroke="blue" points="133.82,-142.37 143.43,-146.83 138.7,-137.35 133.82,-142.37"/>
</a>
</g>
</g>
<!-- !p8 -->
<g id="node9" class="node">
<title>!p8</title>
<ellipse fill="none" stroke="black" cx="158" cy="-90" rx="27" ry="18"/>
<text text-anchor="middle" x="158" y="-86.3" font-family="Times,serif" font-size="14.00">!p</text>
</g>
<!-- @2&#45;&gt;!p8 -->
<g id="edge21" class="edge">
<title>@2&#45;&gt;!p8</title>
<g id="a_edge21"><a xlink:title="newrret52">
<path fill="none" stroke="red" d="M158,-143.7C158,-135.98 158,-126.71 158,-118.11"/>
<polygon fill="red" stroke="red" points="161.5,-118.1 158,-108.1 154.5,-118.1 161.5,-118.1"/>
</a>
</g>
</g>
<!-- Assign3 -->
<g id="node4" class="node">
<title>Assign3</title>
<ellipse fill="none" stroke="black" cx="162" cy="-378" rx="35.19" ry="18"/>
<text text-anchor="middle" x="162" y="-374.3" font-family="Times,serif" font-size="14.00">Assign</text>
</g>
<!-- Dup12 -->
<g id="node13" class="node">
<title>Dup12</title>
<ellipse fill="none" stroke="black" cx="158" cy="-306" rx="27" ry="18"/>
<text text-anchor="middle" x="158" y="-302.3" font-family="Times,serif" font-size="14.00">Dup</text>
</g>
<!-- Assign3&#45;&gt;Dup12 -->
<g id="edge28" class="edge">
<title>Assign3&#45;&gt;Dup12</title>
<g id="a_edge28"><a xlink:title="ret133">
<path fill="none" stroke="red" d="M161.01,-359.7C160.57,-351.98 160.04,-342.71 159.55,-334.11"/>
<polygon fill="red" stroke="red" points="163.04,-333.89 158.98,-324.1 156.05,-334.29 163.04,-333.89"/>
</a>
</g>
</g>
<!-- !p4 -->
<g id="node5" class="node">
<title>!p4</title>
<ellipse fill="none" stroke="black" cx="82" cy="-450" rx="27" ry="18"/>
<text text-anchor="middle" x="82" y="-446.3" font-family="Times,serif" font-size="14.00">!p</text>
</g>
<!-- λ9 -->
<g id="node10" class="node">
<title>λ9</title>
<ellipse fill="none" stroke="black" cx="82" cy="-378" rx="27" ry="18"/>
<text text-anchor="middle" x="82" y="-374.3" font-family="Times,serif" font-size="14.00">λ</text>
</g>
<!-- !p4&#45;&gt;λ9 -->
<g id="edge27" class="edge">
<title>!p4&#45;&gt;λ9</title>
<g id="a_edge27"><a xlink:title="newrretf91">
<path fill="none" stroke="red" d="M82,-431.7C82,-423.98 82,-414.71 82,-406.11"/>
<polygon fill="red" stroke="red" points="85.5,-406.1 82,-396.1 78.5,-406.1 85.5,-406.1"/>
</a>
</g>
</g>
<!-- Dup5 -->
<g id="node6" class="node">
<title>Dup5</title>
<ellipse fill="none" stroke="black" cx="86" cy="-18" rx="27" ry="18"/>
<text text-anchor="middle" x="86" y="-14.3" font-family="Times,serif" font-size="14.00">Dup</text>
</g>
<!-- Dup5&#45;&gt;I0 -->
<g id="edge26" class="edge">
<title>Dup5&#45;&gt;I0</title>
<g id="a_edge26"><a xlink:title="newrretf66">
<path fill="none" stroke="red" d="M73.45,-34.39C65.72,-44.53 56.14,-58.42 50,-72 33.16,-109.22 27,-120.14 27,-161 27,-835 27,-835 27,-835 27,-875 27,-921.34 27,-949.92"/>
<polygon fill="red" stroke="red" points="23.5,-949.95 27,-959.95 30.5,-949.95 23.5,-949.95"/>
</a>
</g>
</g>
<!-- !c6 -->
<g id="node7" class="node">
<title>!c6</title>
<ellipse fill="none" stroke="black" cx="225" cy="-690" rx="27" ry="18"/>
<text text-anchor="middle" x="225" y="-686.3" font-family="Times,serif" font-size="14.00">!c</text>
</g>
<!-- Dup11 -->
<g id="node12" class="node">
<title>Dup11</title>
<ellipse fill="none" stroke="black" cx="137" cy="-606" rx="27" ry="18"/>
<text text-anchor="middle" x="137" y="-602.3" font-family="Times,serif" font-size="14.00">Dup</text>
</g>
<!-- !c6&#45;&gt;Dup11 -->
<g id="edge4" class="edge">
<title>!c6&#45;&gt;Dup11</title>
<g id="a_edge4"><a xlink:title="h34">
<path fill="none" stroke="blue" d="M201.94,-667.5C186.22,-652.86 165.85,-633.88 152.15,-621.12"/>
<polygon fill="blue" stroke="blue" points="199.97,-670.46 209.67,-674.71 204.74,-665.33 199.97,-670.46"/>
</a>
</g>
</g>
<!-- Cut7&#45;&gt;Dup5 -->
<g id="edge22" class="edge">
<title>Cut7&#45;&gt;Dup5</title>
<g id="a_edge22"><a xlink:title="newrretf108">
<path fill="none" stroke="red" d="M86,-71.7C86,-63.98 86,-54.71 86,-46.11"/>
<polygon fill="red" stroke="red" points="89.5,-46.1 86,-36.1 82.5,-46.1 89.5,-46.1"/>
</a>
</g>
</g>
<!-- !p8&#45;&gt;Dup5 -->
<g id="edge23" class="edge">
<title>!p8&#45;&gt;Dup5</title>
<g id="a_edge23"><a xlink:title="newrretf114">
<path fill="none" stroke="red" d="M143.43,-74.83C133.25,-64.94 119.48,-51.55 107.97,-40.36"/>
<polygon fill="none" stroke="red" points="110.41,-37.85 100.8,-33.38 105.53,-42.87 110.41,-37.85"/>
</a>
</g>
</g>
<!-- !p8&#45;&gt;!c6 -->
<g id="edge1" class="edge">
<title>!p8&#45;&gt;!c6</title>
<g id="a_edge1"><a xlink:title="h116">
<path fill="none" stroke="blue" d="M176.69,-114.08C196.51,-140.96 225,-187.5 225,-233 225,-523 225,-523 225,-523 225,-571.68 225,-628.38 225,-661.33"/>
<polygon fill="blue" stroke="blue" points="179.44,-111.92 170.6,-106.07 173.87,-116.15 179.44,-111.92"/>
<polygon fill="blue" stroke="blue" points="221.5,-671.55 225,-661.55 228.5,-671.55 221.5,-671.55"/>
</a>
</g>
</g>
<!-- λ9&#45;&gt;Dup12 -->
<g id="edge29" class="edge">
<title>λ9&#45;&gt;Dup12</title>
<g id="a_edge29"><a xlink:title="ret137">
<path fill="none" stroke="red" d="M97.38,-362.83C108.2,-352.87 122.86,-339.37 135.05,-328.14"/>
<polygon fill="none" stroke="red" points="137.66,-330.49 142.64,-321.14 132.92,-325.34 137.66,-330.49"/>
</a>
</g>
</g>
<!-- Dup10 -->
<g id="node11" class="node">
<title>Dup10</title>
<ellipse fill="none" stroke="black" cx="99" cy="-978" rx="27" ry="18"/>
<text text-anchor="middle" x="99" y="-974.3" font-family="Times,serif" font-size="14.00">Dup</text>
</g>
<!-- Dup11&#45;&gt;λ9 -->
<g id="edge3" class="edge">
<title>Dup11&#45;&gt;λ9</title>
<g id="a_edge3"><a xlink:title="h136">
<path fill="none" stroke="blue" d="M138,-577.58C138.39,-542.67 136.05,-480.99 118,-432 112.85,-418.01 103.22,-404.15 95.22,-394.11"/>
<polygon fill="none" stroke="blue" points="134.5,-577.86 137.8,-587.93 141.5,-578 134.5,-577.86"/>
</a>
</g>
</g>
<!-- Cut13 -->
<g id="node14" class="node">
<title>Cut13</title>
<ellipse fill="none" stroke="black" cx="82" cy="-522" rx="27" ry="18"/>
<text text-anchor="middle" x="82" y="-518.3" font-family="Times,serif" font-size="14.00">Cut</text>
</g>
<!-- Dup11&#45;&gt;Cut13 -->
<g id="edge2" class="edge">
<title>Dup11&#45;&gt;Cut13</title>
<g id="a_edge2"><a xlink:title="h132">
<path fill="none" stroke="blue" d="M120.75,-580.77C111.65,-567.2 100.55,-550.66 92.57,-538.76"/>
<polygon fill="blue" stroke="blue" points="117.92,-582.83 126.4,-589.19 123.73,-578.93 117.92,-582.83"/>
</a>
</g>
</g>
<!-- Dup12&#45;&gt;I1 -->
<g id="edge34" class="edge">
<title>Dup12&#45;&gt;I1</title>
<g id="a_edge34"><a xlink:title="ret42">
<path fill="none" stroke="red" d="M158,-287.7C158,-279.98 158,-270.71 158,-262.11"/>
<polygon fill="red" stroke="red" points="161.5,-262.1 158,-252.1 154.5,-262.1 161.5,-262.1"/>
</a>
</g>
</g>
<!-- Cut13&#45;&gt;!p4 -->
<g id="edge20" class="edge">
<title>Cut13&#45;&gt;!p4</title>
<g id="a_edge20"><a xlink:title="newrret18">
<path fill="none" stroke="red" d="M82,-503.7C82,-495.98 82,-486.71 82,-478.11"/>
<polygon fill="red" stroke="red" points="85.5,-478.1 82,-468.1 78.5,-478.1 85.5,-478.1"/>
</a>
</g>
</g>
<!-- !d14 -->
<g id="node15" class="node">
<title>!d14</title>
<ellipse fill="none" stroke="black" cx="231" cy="-762" rx="27" ry="18"/>
<text text-anchor="middle" x="231" y="-758.3" font-family="Times,serif" font-size="14.00">!d</text>
</g>
<!-- !d14&#45;&gt;!c6 -->
<g id="edge5" class="edge">
<title>!d14&#45;&gt;!c6</title>
<g id="a_edge5"><a xlink:title="hf107">
<path fill="none" stroke="blue" d="M228.66,-733.66C227.92,-725.05 227.12,-715.79 226.47,-708.1"/>
<polygon fill="blue" stroke="blue" points="225.18,-734.03 229.52,-743.69 232.15,-733.43 225.18,-734.03"/>
</a>
</g>
</g>
<!-- !d15 -->
<g id="node16" class="node">
<title>!d15</title>
<ellipse fill="none" stroke="black" cx="398" cy="-234" rx="27" ry="18"/>
<text text-anchor="middle" x="398" y="-230.3" font-family="Times,serif" font-size="14.00">!d</text>
</g>
<!-- !d15&#45;&gt;!p8 -->
<g id="edge6" class="edge">
<title>!d15&#45;&gt;!p8</title>
<g id="a_edge6"><a xlink:title="hf113">
<path fill="none" stroke="blue" d="M369.47,-216.12C320.09,-186.9 219.9,-127.62 177.57,-102.58"/>
<polygon fill="blue" stroke="blue" points="367.97,-219.3 378.36,-221.38 371.54,-213.28 367.97,-219.3"/>
</a>
</g>
</g>
<!-- @16 -->
<g id="node17" class="node">
<title>@16</title>
<ellipse fill="none" stroke="black" cx="314" cy="-834" rx="27" ry="18"/>
<text text-anchor="middle" x="314" y="-830.3" font-family="Times,serif" font-size="14.00">@</text>
</g>
<!-- @16&#45;&gt;!d14 -->
<g id="edge15" class="edge">
<title>@16&#45;&gt;!d14</title>
<g id="a_edge15"><a xlink:title="lval141">
<path fill="none" stroke="blue" d="M289.91,-812.68C276.14,-801.07 259.24,-786.81 247.08,-776.56"/>
<polygon fill="blue" stroke="blue" points="287.7,-815.39 297.6,-819.17 292.21,-810.04 287.7,-815.39"/>
</a>
</g>
</g>
<!-- !p20 -->
<g id="node21" class="node">
<title>!p20</title>
<ellipse fill="none" stroke="black" cx="314" cy="-762" rx="27" ry="18"/>
<text text-anchor="middle" x="314" y="-758.3" font-family="Times,serif" font-size="14.00">!p</text>
</g>
<!-- @16&#45;&gt;!p20 -->
<g id="edge18" class="edge">
<title>@16&#45;&gt;!p20</title>
<g id="a_edge18"><a xlink:title="newrret147">
<path fill="none" stroke="red" d="M314,-815.69C314,-807.98 314,-798.71 314,-790.11"/>
<polygon fill="red" stroke="red" points="317.5,-790.1 314,-780.1 310.5,-790.1 317.5,-790.1"/>
</a>
</g>
</g>
<!-- @17 -->
<g id="node18" class="node">
<title>@17</title>
<ellipse fill="none" stroke="black" cx="500" cy="-450" rx="27" ry="18"/>
<text text-anchor="middle" x="500" y="-446.3" font-family="Times,serif" font-size="14.00">@</text>
</g>
<!-- @17&#45;&gt;!d15 -->
<g id="edge16" class="edge">
<title>@17&#45;&gt;!d15</title>
<g id="a_edge16"><a xlink:title="lval144">
<path fill="none" stroke="blue" d="M503.81,-421.87C505.3,-403.8 505.2,-379.82 498,-360 480.82,-312.72 437.94,-269.81 414.3,-248.73"/>
<polygon fill="blue" stroke="blue" points="500.31,-421.7 502.77,-432.01 507.27,-422.42 500.31,-421.7"/>
</a>
</g>
</g>
<!-- !p21 -->
<g id="node22" class="node">
<title>!p21</title>
<ellipse fill="none" stroke="black" cx="462" cy="-378" rx="27" ry="18"/>
<text text-anchor="middle" x="462" y="-374.3" font-family="Times,serif" font-size="14.00">!p</text>
</g>
<!-- @17&#45;&gt;!p21 -->
<g id="edge19" class="edge">
<title>@17&#45;&gt;!p21</title>
<g id="a_edge19"><a xlink:title="newrret152">
<path fill="none" stroke="red" d="M491.19,-432.76C486.58,-424.28 480.84,-413.71 475.68,-404.2"/>
<polygon fill="red" stroke="red" points="478.61,-402.27 470.77,-395.15 472.46,-405.61 478.61,-402.27"/>
</a>
</g>
</g>
<!-- Dup18 -->
<g id="node19" class="node">
<title>Dup18</title>
<ellipse fill="none" stroke="black" cx="171" cy="-978" rx="27" ry="18"/>
<text text-anchor="middle" x="171" y="-974.3" font-family="Times,serif" font-size="14.00">Dup</text>
</g>
<!-- Dup19&#45;&gt;@16 -->
<g id="edge11" class="edge">
<title>Dup19&#45;&gt;@16</title>
<g id="a_edge11"><a xlink:title="lret149">
<path fill="none" stroke="blue" d="M314,-877.66C314,-869.05 314,-859.79 314,-852.1"/>
<polygon fill="blue" stroke="blue" points="310.5,-877.69 314,-887.69 317.5,-877.69 310.5,-877.69"/>
</a>
</g>
</g>
<!-- Dup19&#45;&gt;@17 -->
<g id="edge12" class="edge">
<title>Dup19&#45;&gt;@17</title>
<g id="a_edge12"><a xlink:title="lret154">
<path fill="none" stroke="blue" d="M348.34,-894.75C399.81,-877.01 491,-835.39 491,-763 491,-763 491,-763 491,-605 491,-555.18 495.75,-496.46 498.35,-468.07"/>
<polygon fill="none" stroke="blue" points="347,-891.5 338.61,-897.98 349.2,-898.15 347,-891.5"/>
</a>
</g>
</g>
<!-- λ22 -->
<g id="node23" class="node">
<title>λ22</title>
<ellipse fill="none" stroke="black" cx="314" cy="-690" rx="27" ry="18"/>
<text text-anchor="middle" x="314" y="-686.3" font-family="Times,serif" font-size="14.00">λ</text>
</g>
<!-- !p20&#45;&gt;λ22 -->
<g id="edge24" class="edge">
<title>!p20&#45;&gt;λ22</title>
<g id="a_edge24"><a xlink:title="newrretf157">
<path fill="none" stroke="red" d="M314,-743.69C314,-735.98 314,-726.71 314,-718.11"/>
<polygon fill="red" stroke="red" points="317.5,-718.1 314,-708.1 310.5,-718.1 317.5,-718.1"/>
</a>
</g>
</g>
<!-- λ23 -->
<g id="node24" class="node">
<title>λ23</title>
<ellipse fill="none" stroke="black" cx="318" cy="-306" rx="27" ry="18"/>
<text text-anchor="middle" x="318" y="-302.3" font-family="Times,serif" font-size="14.00">λ</text>
</g>
<!-- !p21&#45;&gt;λ23 -->
<g id="edge25" class="edge">
<title>!p21&#45;&gt;λ23</title>
<g id="a_edge25"><a xlink:title="newrretf160">
<path fill="none" stroke="red" d="M440.75,-366.67C416.4,-354.83 376.28,-335.33 348.57,-321.86"/>
<polygon fill="red" stroke="red" points="349.86,-318.6 339.33,-317.37 346.8,-324.89 349.86,-318.6"/>
</a>
</g>
</g>
<!-- Dup24 -->
<g id="node25" class="node">
<title>Dup24</title>
<ellipse fill="none" stroke="black" cx="314" cy="-606" rx="26" ry="26"/>
<ellipse fill="none" stroke="black" cx="314" cy="-606" rx="30" ry="30"/>
<text text-anchor="middle" x="314" y="-602.3" font-family="Times,serif" font-size="14.00">Dup</text>
</g>
<!-- λ22&#45;&gt;Dup24 -->
<g id="edge30" class="edge">
<title>λ22&#45;&gt;Dup24</title>
<g id="a_edge30"><a xlink:title="ret164">
<path fill="none" stroke="red" d="M314,-671.61C314,-664.24 314,-655.33 314,-646.51"/>
<polygon fill="red" stroke="red" points="317.5,-646.3 314,-636.3 310.5,-646.3 317.5,-646.3"/>
</a>
</g>
</g>
<!-- λ23&#45;&gt;Dup24 -->
<g id="edge31" class="edge">
<title>λ23&#45;&gt;Dup24</title>
<g id="a_edge31"><a xlink:title="ret168">
<path fill="none" stroke="red" d="M304.25,-321.93C296.04,-331.9 286.38,-345.75 282,-360 258.49,-436.47 263.86,-462.08 282,-540 284.46,-550.58 288.91,-561.43 293.72,-571.15"/>
<polygon fill="none" stroke="red" points="290.65,-572.84 298.39,-580.08 296.86,-569.59 290.65,-572.84"/>
</a>
</g>
</g>
<!-- DupI31 -->
<g id="node32" class="node">
<title>DupI31</title>
<ellipse fill="none" stroke="black" cx="320" cy="-522" rx="28.7" ry="18"/>
<text text-anchor="middle" x="320" y="-518.3" font-family="Times,serif" font-size="14.00">DupI</text>
</g>
<!-- Dup24&#45;&gt;DupI31 -->
<g id="edge35" class="edge">
<title>Dup24&#45;&gt;DupI31</title>
<g id="a_edge35"><a xlink:title="ret82">
<path fill="none" stroke="red" stroke-width="2" d="M316.13,-575.86C316.74,-567.54 317.4,-558.5 318,-550.29"/>
<polygon fill="red" stroke="red" stroke-width="2" points="321.51,-550.34 318.75,-540.11 314.53,-549.83 321.51,-550.34"/>
</a>
</g>
</g>
<!-- !d25 -->
<g id="node26" class="node">
<title>!d25</title>
<ellipse fill="none" stroke="black" cx="390" cy="-378" rx="27" ry="18"/>
<text text-anchor="middle" x="390" y="-374.3" font-family="Times,serif" font-size="14.00">!d</text>
</g>
<!-- !d25&#45;&gt;λ22 -->
<g id="edge7" class="edge">
<title>!d25&#45;&gt;λ22</title>
<g id="a_edge7"><a xlink:title="i163">
<path fill="none" stroke="blue" d="M410.07,-402.08C416.46,-410.85 422.71,-421.31 426,-432 430.7,-447.29 429.26,-452.33 426,-468 409.43,-547.71 393.6,-565.43 353,-636 345.25,-649.46 334.73,-663.58 326.57,-673.85"/>
<polygon fill="blue" stroke="blue" points="412.65,-399.69 403.75,-393.93 407.12,-403.98 412.65,-399.69"/>
</a>
</g>
</g>
<!-- !d26 -->
<g id="node27" class="node">
<title>!d26</title>
<ellipse fill="none" stroke="black" cx="318" cy="-378" rx="27" ry="18"/>
<text text-anchor="middle" x="318" y="-374.3" font-family="Times,serif" font-size="14.00">!d</text>
</g>
<!-- !d26&#45;&gt;λ23 -->
<g id="edge8" class="edge">
<title>!d26&#45;&gt;λ23</title>
<g id="a_edge8"><a xlink:title="i167">
<path fill="none" stroke="blue" d="M318,-349.67C318,-341.05 318,-331.79 318,-324.1"/>
<polygon fill="blue" stroke="blue" points="314.5,-349.7 318,-359.7 321.5,-349.7 314.5,-349.7"/>
</a>
</g>
</g>
<!-- Dup27 -->
<g id="node28" class="node">
<title>Dup27</title>
<ellipse fill="none" stroke="black" cx="243" cy="-978" rx="27" ry="18"/>
<text text-anchor="middle" x="243" y="-974.3" font-family="Times,serif" font-size="14.00">Dup</text>
</g>
<!-- I28 -->
<g id="node29" class="node">
<title>I28</title>
<ellipse fill="none" stroke="black" cx="390" cy="-450" rx="27" ry="18"/>
<text text-anchor="middle" x="390" y="-446.3" font-family="Times,serif" font-size="14.00">I</text>
</g>
<!-- I28&#45;&gt;!d25 -->
<g id="edge9" class="edge">
<title>I28&#45;&gt;!d25</title>
<g id="a_edge9"><a xlink:title="iret171">
<path fill="none" stroke="blue" d="M390,-421.67C390,-413.05 390,-403.79 390,-396.1"/>
<polygon fill="blue" stroke="blue" points="386.5,-421.7 390,-431.7 393.5,-421.7 386.5,-421.7"/>
</a>
</g>
</g>
<!-- I29 -->
<g id="node30" class="node">
<title>I29</title>
<ellipse fill="none" stroke="black" cx="318" cy="-450" rx="27" ry="18"/>
<text text-anchor="middle" x="318" y="-446.3" font-family="Times,serif" font-size="14.00">I</text>
</g>
<!-- I29&#45;&gt;!d26 -->
<g id="edge10" class="edge">
<title>I29&#45;&gt;!d26</title>
<g id="a_edge10"><a xlink:title="iret174">
<path fill="none" stroke="blue" d="M318,-421.67C318,-413.05 318,-403.79 318,-396.1"/>
<polygon fill="blue" stroke="blue" points="314.5,-421.7 318,-431.7 321.5,-421.7 314.5,-421.7"/>
</a>
</g>
</g>
<!-- DupI30 -->
<g id="node31" class="node">
<title>DupI30</title>
<ellipse fill="none" stroke="black" cx="317" cy="-978" rx="28.7" ry="18"/>
<text text-anchor="middle" x="317" y="-974.3" font-family="Times,serif" font-size="14.00">DupI</text>
</g>
<!-- DupI31&#45;&gt;I28 -->
<g id="edge32" class="edge">
<title>DupI31&#45;&gt;I28</title>
<g id="a_edge32"><a xlink:title="ret177">
<path fill="none" stroke="red" d="M334.85,-506.15C344.63,-496.37 357.6,-483.4 368.5,-472.5"/>
<polygon fill="red" stroke="red" points="371.06,-474.89 375.65,-465.35 366.11,-469.94 371.06,-474.89"/>
</a>
</g>
</g>
<!-- DupI31&#45;&gt;I29 -->
<g id="edge33" class="edge">
<title>DupI31&#45;&gt;I29</title>
<g id="a_edge33"><a xlink:title="ret179">
<path fill="none" stroke="red" d="M319.22,-493.67C319.07,-488.55 318.92,-483.21 318.77,-478.1"/>
<polygon fill="red" stroke="red" points="316.01,-503.8 319.22,-493.7 323,-503.6 316.01,-503.8"/>
<polygon fill="red" stroke="red" points="322.27,-478 318.49,-468.1 315.28,-478.2 322.27,-478"/>
</a>
</g>
</g>
</g>
</svg>
