<?xml version="1.0" encoding="UTF-8" standalone="no"?>
<!DOCTYPE svg PUBLIC "-//W3C//DTD SVG 1.1//EN"
 "http://www.w3.org/Graphics/SVG/1.1/DTD/svg11.dtd">
<!-- Generated by graphviz version 2.49.3 (0)
 -->
<!-- Pages: 1 -->
<svg width="447pt" height="1076pt"
 viewBox="0.00 0.00 446.69 1076.00" xmlns="http://www.w3.org/2000/svg" xmlns:xlink="http://www.w3.org/1999/xlink">
<g id="graph0" class="graph" transform="scale(1 1) rotate(0) translate(4 1072)">
<polygon fill="white" stroke="transparent" points="-4,4 -4,-1072 442.69,-1072 442.69,4 -4,4"/>
<!-- Identity0 -->
<g id="node1" class="node">
<title>Identity0</title>
<ellipse fill="none" stroke="black" cx="264.35" cy="-906" rx="38.19" ry="18"/>
<text text-anchor="middle" x="264.35" y="-902.3" font-family="Times,serif" font-size="14.00">Identity</text>
</g>
<!-- Identity1 -->
<g id="node2" class="node">
<title>Identity1</title>
<ellipse fill="none" stroke="black" cx="400.35" cy="-594" rx="38.19" ry="18"/>
<text text-anchor="middle" x="400.35" y="-590.3" font-family="Times,serif" font-size="14.00">Identity</text>
</g>
<!-- PiL2 -->
<g id="node3" class="node">
<title>PiL2</title>
<ellipse fill="none" stroke="black" cx="334.35" cy="-522" rx="27" ry="18"/>
<text text-anchor="middle" x="334.35" y="-518.3" font-family="Times,serif" font-size="14.00">PiL</text>
</g>
<!-- PiL2&#45;&gt;Identity1 -->
<g id="edge20" class="edge">
<title>PiL2&#45;&gt;Identity1</title>
<g id="a_edge20"><a xlink:title="idseq55">
<path fill="none" stroke="black" d="M350.4,-546.85C357.32,-554.67 365.51,-563.32 373.28,-571"/>
<polygon fill="black" stroke="black" points="346.51,-536.95 350.37,-546.82 341.2,-541.52 346.51,-536.95"/>
<polygon fill="black" stroke="black" points="371.22,-573.87 380.85,-578.28 376.07,-568.83 371.22,-573.87"/>
</a>
</g>
</g>
<!-- PiL2&#45;&gt;Identity1 -->
<g id="edge28" class="edge">
<title>PiL2&#45;&gt;Identity1</title>
<g id="a_edge28"><a xlink:title="lret53">
<path fill="none" stroke="blue" d="M351.82,-535.84C361.85,-545.05 374.18,-557.74 384,-568.82"/>
<polygon fill="blue" stroke="blue" points="381.47,-571.24 390.65,-576.54 386.77,-566.67 381.47,-571.24"/>
</a>
</g>
</g>
<!-- Bang8 -->
<g id="node9" class="node">
<title>Bang8</title>
<ellipse fill="none" stroke="black" cx="314.35" cy="-594" rx="29.5" ry="18"/>
<text text-anchor="middle" x="314.35" y="-590.3" font-family="Times,serif" font-size="14.00">Bang</text>
</g>
<!-- PiL2&#45;&gt;Bang8 -->
<g id="edge7" class="edge">
<title>PiL2&#45;&gt;Bang8</title>
<g id="a_edge7"><a xlink:title="dseq54">
<path fill="none" stroke="black" d="M324.05,-538.88C320.85,-546.86 317.75,-556.74 315.5,-565.86"/>
<polygon fill="black" stroke="black" points="312.07,-565.19 313.37,-575.71 318.91,-566.67 312.07,-565.19"/>
</a>
</g>
</g>
<!-- PiL2&#45;&gt;Bang8 -->
<g id="edge38" class="edge">
<title>PiL2&#45;&gt;Bang8</title>
<g id="a_edge38"><a xlink:title="newrret52">
<path fill="none" stroke="red" d="M335.32,-540.3C333.84,-548.42 331.23,-558.26 328.24,-567.24"/>
<polygon fill="red" stroke="red" points="324.87,-566.26 324.75,-576.86 331.45,-568.65 324.87,-566.26"/>
</a>
</g>
</g>
<!-- Assign3 -->
<g id="node4" class="node">
<title>Assign3</title>
<ellipse fill="none" stroke="black" cx="247.35" cy="-18" rx="35.19" ry="18"/>
<text text-anchor="middle" x="247.35" y="-14.3" font-family="Times,serif" font-size="14.00">Assign</text>
</g>
<!-- Dup12 -->
<g id="node13" class="node">
<title>Dup12</title>
<ellipse fill="none" stroke="black" cx="304.35" cy="-306" rx="27" ry="18"/>
<text text-anchor="middle" x="304.35" y="-302.3" font-family="Times,serif" font-size="14.00">Dup</text>
</g>
<!-- Assign3&#45;&gt;Dup12 -->
<g id="edge45" class="edge">
<title>Assign3&#45;&gt;Dup12</title>
<g id="a_edge45"><a xlink:title="ret133">
<path fill="none" stroke="red" d="M261.39,-34.98C269.27,-44.93 278.48,-58.38 283.35,-72 308.73,-143.02 308.34,-233.6 306.21,-278"/>
<polygon fill="red" stroke="red" points="302.71,-277.83 305.66,-288 309.7,-278.21 302.71,-277.83"/>
</a>
</g>
</g>
<!-- Cut13 -->
<g id="node14" class="node">
<title>Cut13</title>
<ellipse fill="none" stroke="black" cx="247.35" cy="-90" rx="27" ry="18"/>
<text text-anchor="middle" x="247.35" y="-86.3" font-family="Times,serif" font-size="14.00">Cut</text>
</g>
<!-- Assign3&#45;&gt;Cut13 -->
<g id="edge56" class="edge">
<title>Assign3&#45;&gt;Cut13</title>
<g id="a_edge56"><a xlink:title="seqBC94">
<path fill="none" stroke="black" d="M247.35,-36.3C247.35,-44.02 247.35,-53.29 247.35,-61.89"/>
<polygon fill="black" stroke="black" points="243.85,-61.9 247.35,-71.9 250.85,-61.9 243.85,-61.9"/>
</a>
</g>
</g>
<!-- Bang4 -->
<g id="node5" class="node">
<title>Bang4</title>
<ellipse fill="none" stroke="black" cx="247.35" cy="-162" rx="29.5" ry="18"/>
<text text-anchor="middle" x="247.35" y="-158.3" font-family="Times,serif" font-size="14.00">Bang</text>
</g>
<!-- PiR9 -->
<g id="node10" class="node">
<title>PiR9</title>
<ellipse fill="none" stroke="black" cx="247.35" cy="-234" rx="27" ry="18"/>
<text text-anchor="middle" x="247.35" y="-230.3" font-family="Times,serif" font-size="14.00">PiR</text>
</g>
<!-- Bang4&#45;&gt;PiR9 -->
<g id="edge33" class="edge">
<title>Bang4&#45;&gt;PiR9</title>
<g id="a_edge33"><a xlink:title="newcut_bseq100">
<path fill="none" stroke="black" d="M241.47,-179.95C240.64,-187.77 240.4,-197.25 240.76,-206.02"/>
<polygon fill="black" stroke="black" points="237.28,-206.49 241.49,-216.21 244.26,-205.99 237.28,-206.49"/>
</a>
</g>
</g>
<!-- Bang4&#45;&gt;PiR9 -->
<g id="edge44" class="edge">
<title>Bang4&#45;&gt;PiR9</title>
<g id="a_edge44"><a xlink:title="newrretf91">
<path fill="none" stroke="red" d="M253.22,-179.95C254.06,-187.77 254.29,-197.25 253.94,-206.02"/>
<polygon fill="red" stroke="red" points="250.43,-205.99 253.21,-216.21 257.41,-206.49 250.43,-205.99"/>
</a>
</g>
</g>
<!-- Dup5 -->
<g id="node6" class="node">
<title>Dup5</title>
<ellipse fill="none" stroke="black" cx="233.35" cy="-666" rx="27" ry="18"/>
<text text-anchor="middle" x="233.35" y="-662.3" font-family="Times,serif" font-size="14.00">Dup</text>
</g>
<!-- Dup5&#45;&gt;Identity0 -->
<g id="edge43" class="edge">
<title>Dup5&#45;&gt;Identity0</title>
<g id="a_edge43"><a xlink:title="newrretf66">
<path fill="none" stroke="red" d="M218.61,-681.71C188,-714.1 123.27,-793.37 159.35,-852 172.72,-873.73 198.07,-886.88 220.51,-894.64"/>
<polygon fill="red" stroke="red" points="219.64,-898.04 230.23,-897.74 221.77,-891.37 219.64,-898.04"/>
</a>
</g>
</g>
<!-- BangC6 -->
<g id="node7" class="node">
<title>BangC6</title>
<ellipse fill="none" stroke="black" cx="224.35" cy="-378" rx="35.19" ry="18"/>
<text text-anchor="middle" x="224.35" y="-374.3" font-family="Times,serif" font-size="14.00">BangC</text>
</g>
<!-- Cut7 -->
<g id="node8" class="node">
<title>Cut7</title>
<ellipse fill="none" stroke="black" cx="224.35" cy="-450" rx="27" ry="18"/>
<text text-anchor="middle" x="224.35" y="-446.3" font-family="Times,serif" font-size="14.00">Cut</text>
</g>
<!-- BangC6&#45;&gt;Cut7 -->
<g id="edge55" class="edge">
<title>BangC6&#45;&gt;Cut7</title>
<g id="a_edge55"><a xlink:title="seqBC118">
<path fill="none" stroke="black" d="M224.35,-396.3C224.35,-404.02 224.35,-413.29 224.35,-421.89"/>
<polygon fill="black" stroke="black" points="220.85,-421.9 224.35,-431.9 227.85,-421.9 220.85,-421.9"/>
</a>
</g>
</g>
<!-- BangC6&#45;&gt;Bang8 -->
<g id="edge8" class="edge">
<title>BangC6&#45;&gt;Bang8</title>
<g id="a_edge8"><a xlink:title="h116">
<path fill="none" stroke="blue" d="M242.84,-403.22C248.96,-411.97 255.46,-422.13 260.35,-432 272.27,-456.07 294.58,-527.44 306.45,-566.58"/>
<polygon fill="blue" stroke="blue" points="239.75,-392.95 242.76,-403.11 234.07,-397.05 239.75,-392.95"/>
<polygon fill="blue" stroke="blue" points="303.12,-567.69 309.36,-576.25 309.83,-565.66 303.12,-567.69"/>
</a>
</g>
</g>
<!-- BangD14 -->
<g id="node15" class="node">
<title>BangD14</title>
<ellipse fill="none" stroke="black" cx="169.35" cy="-522" rx="36" ry="18"/>
<text text-anchor="middle" x="169.35" y="-518.3" font-family="Times,serif" font-size="14.00">BangD</text>
</g>
<!-- BangC6&#45;&gt;BangD14 -->
<g id="edge12" class="edge">
<title>BangC6&#45;&gt;BangD14</title>
<g id="a_edge12"><a xlink:title="hf107">
<path fill="none" stroke="blue" d="M211.25,-394.75C203.5,-404.83 194.11,-418.5 188.35,-432 179.88,-451.83 175.04,-475.8 172.37,-493.87"/>
<polygon fill="blue" stroke="blue" points="168.87,-493.63 171,-504.01 175.81,-494.57 168.87,-493.63"/>
</a>
</g>
</g>
<!-- Cut7&#45;&gt;PiL2 -->
<g id="edge32" class="edge">
<title>Cut7&#45;&gt;PiL2</title>
<g id="a_edge32"><a xlink:title="lval48">
<path fill="none" stroke="blue" d="M240.58,-464.83C257.42,-476.56 283.77,-493.37 304.35,-505.55"/>
<polygon fill="blue" stroke="blue" points="302.66,-508.61 313.06,-510.61 306.18,-502.56 302.66,-508.61"/>
</a>
</g>
</g>
<!-- Cut7&#45;&gt;PiL2 -->
<g id="edge57" class="edge">
<title>Cut7&#45;&gt;PiL2</title>
<g id="a_edge57"><a xlink:title="yseq50">
<path fill="none" stroke="black" d="M254.26,-466.41C271.68,-476.7 293.25,-490.34 309.69,-501.41"/>
<polygon fill="black" stroke="black" points="247.29,-458.3 254.18,-466.36 243.77,-464.35 247.29,-458.3"/>
<polygon fill="black" stroke="black" points="308.01,-504.5 318.24,-507.25 311.96,-498.72 308.01,-504.5"/>
</a>
</g>
</g>
<!-- Cut7&#45;&gt;Dup5 -->
<g id="edge39" class="edge">
<title>Cut7&#45;&gt;Dup5</title>
<g id="a_edge39"><a xlink:title="newrretf108">
<path fill="none" stroke="red" d="M225.07,-468.15C226.62,-505.17 230.31,-592.82 232.19,-637.61"/>
<polygon fill="red" stroke="red" points="228.7,-637.92 232.62,-647.77 235.7,-637.63 228.7,-637.92"/>
</a>
</g>
</g>
<!-- Cut7&#45;&gt;BangD14 -->
<g id="edge1" class="edge">
<title>Cut7&#45;&gt;BangD14</title>
<g id="a_edge1"><a xlink:title="c_bseq106">
<path fill="none" stroke="black" d="M212.41,-466.19C205.4,-475.11 196.38,-486.59 188.41,-496.74"/>
<polygon fill="black" stroke="black" points="185.45,-494.84 182.02,-504.87 190.95,-499.17 185.45,-494.84"/>
</a>
</g>
</g>
<!-- Bang8&#45;&gt;Dup5 -->
<g id="edge40" class="edge">
<title>Bang8&#45;&gt;Dup5</title>
<g id="a_edge40"><a xlink:title="newrretf114">
<path fill="none" stroke="red" d="M297.96,-609.17C286.16,-619.36 270.09,-633.25 256.92,-644.63"/>
<polygon fill="none" stroke="red" points="254.44,-642.15 249.16,-651.33 259.02,-647.44 254.44,-642.15"/>
</a>
</g>
</g>
<!-- BangD15 -->
<g id="node16" class="node">
<title>BangD15</title>
<ellipse fill="none" stroke="black" cx="314.35" cy="-666" rx="36" ry="18"/>
<text text-anchor="middle" x="314.35" y="-662.3" font-family="Times,serif" font-size="14.00">BangD</text>
</g>
<!-- Bang8&#45;&gt;BangD15 -->
<g id="edge13" class="edge">
<title>Bang8&#45;&gt;BangD15</title>
<g id="a_edge13"><a xlink:title="hf113">
<path fill="none" stroke="blue" d="M308.47,-611.95C307.64,-619.77 307.4,-629.25 307.76,-638.02"/>
<polygon fill="blue" stroke="blue" points="304.28,-638.49 308.49,-648.21 311.26,-637.99 304.28,-638.49"/>
</a>
</g>
</g>
<!-- Bang8&#45;&gt;BangD15 -->
<g id="edge34" class="edge">
<title>Bang8&#45;&gt;BangD15</title>
<g id="a_edge34"><a xlink:title="newcut_bseq125">
<path fill="none" stroke="black" d="M320.22,-611.95C321.06,-619.77 321.29,-629.25 320.94,-638.02"/>
<polygon fill="black" stroke="black" points="317.43,-637.99 320.21,-648.21 324.41,-638.49 317.43,-637.99"/>
</a>
</g>
</g>
<!-- Dup10 -->
<g id="node11" class="node">
<title>Dup10</title>
<ellipse fill="none" stroke="black" cx="224.35" cy="-306" rx="27" ry="18"/>
<text text-anchor="middle" x="224.35" y="-302.3" font-family="Times,serif" font-size="14.00">Dup</text>
</g>
<!-- PiR9&#45;&gt;Dup10 -->
<g id="edge51" class="edge">
<title>PiR9&#45;&gt;Dup10</title>
<g id="a_edge51"><a xlink:title="seq135">
<path fill="none" stroke="black" d="M241.78,-251.95C239.15,-259.94 235.96,-269.67 233.02,-278.6"/>
<polygon fill="none" stroke="black" points="229.66,-277.62 229.86,-288.21 236.31,-279.8 229.66,-277.62"/>
</a>
</g>
</g>
<!-- Dup11 -->
<g id="node12" class="node">
<title>Dup11</title>
<ellipse fill="none" stroke="black" cx="152.35" cy="-306" rx="27" ry="18"/>
<text text-anchor="middle" x="152.35" y="-302.3" font-family="Times,serif" font-size="14.00">Dup</text>
</g>
<!-- PiR9&#45;&gt;Dup11 -->
<g id="edge10" class="edge">
<title>PiR9&#45;&gt;Dup11</title>
<g id="a_edge10"><a xlink:title="h136">
<path fill="none" stroke="blue" d="M229.92,-247.84C215.42,-258.53 194.55,-273.9 178.12,-286.01"/>
<polygon fill="none" stroke="blue" points="175.96,-283.26 169.98,-292.01 180.11,-288.89 175.96,-283.26"/>
</a>
</g>
</g>
<!-- PiR9&#45;&gt;Dup12 -->
<g id="edge46" class="edge">
<title>PiR9&#45;&gt;Dup12</title>
<g id="a_edge46"><a xlink:title="ret137">
<path fill="none" stroke="red" d="M259.71,-250.19C267.26,-259.45 277.05,-271.48 285.54,-281.91"/>
<polygon fill="none" stroke="red" points="282.97,-284.3 292,-289.84 288.4,-279.88 282.97,-284.3"/>
</a>
</g>
</g>
<!-- Dup10&#45;&gt;BangC6 -->
<g id="edge54" class="edge">
<title>Dup10&#45;&gt;BangC6</title>
<g id="a_edge54"><a xlink:title="seq33">
<path fill="none" stroke="black" d="M224.35,-324.3C224.35,-332.02 224.35,-341.29 224.35,-349.89"/>
<polygon fill="black" stroke="black" points="220.85,-349.9 224.35,-359.9 227.85,-349.9 220.85,-349.9"/>
</a>
</g>
</g>
<!-- Dup11&#45;&gt;BangC6 -->
<g id="edge11" class="edge">
<title>Dup11&#45;&gt;BangC6</title>
<g id="a_edge11"><a xlink:title="h34">
<path fill="none" stroke="blue" d="M166.92,-321.17C176.73,-330.71 189.89,-343.5 201.13,-354.43"/>
<polygon fill="blue" stroke="blue" points="198.94,-357.18 208.55,-361.64 203.82,-352.16 198.94,-357.18"/>
</a>
</g>
</g>
<!-- Dup12&#45;&gt;Identity1 -->
<g id="edge49" class="edge">
<title>Dup12&#45;&gt;Identity1</title>
<g id="a_edge49"><a xlink:title="ret42">
<path fill="none" stroke="red" d="M309.92,-323.61C325.89,-371.19 371.89,-508.24 391.42,-566.4"/>
<polygon fill="red" stroke="red" points="388.13,-567.62 394.63,-575.98 394.77,-565.39 388.13,-567.62"/>
</a>
</g>
</g>
<!-- Cut13&#45;&gt;Bang4 -->
<g id="edge6" class="edge">
<title>Cut13&#45;&gt;Bang4</title>
<g id="a_edge6"><a xlink:title="dseq20">
<path fill="none" stroke="black" d="M241.51,-107.59C240.64,-115.49 240.39,-125.15 240.76,-134.06"/>
<polygon fill="black" stroke="black" points="237.27,-134.32 241.47,-144.04 244.25,-133.82 237.27,-134.32"/>
</a>
</g>
</g>
<!-- Cut13&#45;&gt;Bang4 -->
<g id="edge37" class="edge">
<title>Cut13&#45;&gt;Bang4</title>
<g id="a_edge37"><a xlink:title="newrret18">
<path fill="none" stroke="red" d="M253.19,-107.59C254.05,-115.49 254.3,-125.15 253.93,-134.06"/>
<polygon fill="red" stroke="red" points="250.44,-133.82 253.23,-144.04 257.43,-134.32 250.44,-133.82"/>
</a>
</g>
</g>
<!-- Cut13&#45;&gt;Dup10 -->
<g id="edge50" class="edge">
<title>Cut13&#45;&gt;Dup10</title>
<g id="a_edge50"><a xlink:title="seq131">
<path fill="none" stroke="black" d="M226.69,-113.25C219.77,-122.14 212.92,-132.89 209.35,-144 194.7,-189.58 206.22,-245.88 215.55,-278.39"/>
<polygon fill="black" stroke="black" points="235.93,-107.59 226.85,-113.06 230.54,-103.12 235.93,-107.59"/>
<polygon fill="black" stroke="black" points="212.23,-279.5 218.47,-288.07 218.93,-277.48 212.23,-279.5"/>
</a>
</g>
</g>
<!-- Cut13&#45;&gt;Dup11 -->
<g id="edge9" class="edge">
<title>Cut13&#45;&gt;Dup11</title>
<g id="a_edge9"><a xlink:title="h132">
<path fill="none" stroke="blue" d="M231.11,-104.79C220.4,-114.7 206.82,-128.93 198.35,-144 173.92,-187.44 161.58,-244.91 156.09,-278.13"/>
<polygon fill="blue" stroke="blue" points="152.63,-277.59 154.54,-288.01 159.55,-278.68 152.63,-277.59"/>
</a>
</g>
</g>
<!-- PiL16 -->
<g id="node17" class="node">
<title>PiL16</title>
<ellipse fill="none" stroke="black" cx="169.35" cy="-594" rx="27" ry="18"/>
<text text-anchor="middle" x="169.35" y="-590.3" font-family="Times,serif" font-size="14.00">PiL</text>
</g>
<!-- BangD14&#45;&gt;PiL16 -->
<g id="edge14" class="edge">
<title>BangD14&#45;&gt;PiL16</title>
<g id="a_edge14"><a xlink:title="hseq140">
<path fill="none" stroke="black" d="M163.47,-539.95C162.64,-547.77 162.4,-557.25 162.76,-566.02"/>
<polygon fill="black" stroke="black" points="159.28,-566.49 163.49,-576.21 166.26,-565.99 159.28,-566.49"/>
</a>
</g>
</g>
<!-- BangD14&#45;&gt;PiL16 -->
<g id="edge30" class="edge">
<title>BangD14&#45;&gt;PiL16</title>
<g id="a_edge30"><a xlink:title="lval141">
<path fill="none" stroke="blue" d="M175.22,-539.95C176.06,-547.77 176.29,-557.25 175.94,-566.02"/>
<polygon fill="blue" stroke="blue" points="172.43,-565.99 175.21,-576.21 179.41,-566.49 172.43,-565.99"/>
</a>
</g>
</g>
<!-- PiL17 -->
<g id="node18" class="node">
<title>PiL17</title>
<ellipse fill="none" stroke="black" cx="314.35" cy="-738" rx="27" ry="18"/>
<text text-anchor="middle" x="314.35" y="-734.3" font-family="Times,serif" font-size="14.00">PiL</text>
</g>
<!-- BangD15&#45;&gt;PiL17 -->
<g id="edge15" class="edge">
<title>BangD15&#45;&gt;PiL17</title>
<g id="a_edge15"><a xlink:title="hseq143">
<path fill="none" stroke="black" d="M308.47,-683.95C307.64,-691.77 307.4,-701.25 307.76,-710.02"/>
<polygon fill="black" stroke="black" points="304.28,-710.49 308.49,-720.21 311.26,-709.99 304.28,-710.49"/>
</a>
</g>
</g>
<!-- BangD15&#45;&gt;PiL17 -->
<g id="edge31" class="edge">
<title>BangD15&#45;&gt;PiL17</title>
<g id="a_edge31"><a xlink:title="lval144">
<path fill="none" stroke="blue" d="M320.22,-683.95C321.06,-691.77 321.29,-701.25 320.94,-710.02"/>
<polygon fill="blue" stroke="blue" points="317.43,-709.99 320.21,-720.21 324.41,-710.49 317.43,-709.99"/>
</a>
</g>
</g>
<!-- Dup18 -->
<g id="node19" class="node">
<title>Dup18</title>
<ellipse fill="none" stroke="black" cx="273.35" cy="-822" rx="27" ry="18"/>
<text text-anchor="middle" x="273.35" y="-818.3" font-family="Times,serif" font-size="14.00">Dup</text>
</g>
<!-- PiL16&#45;&gt;Dup18 -->
<g id="edge18" class="edge">
<title>PiL16&#45;&gt;Dup18</title>
<g id="a_edge18"><a xlink:title="idseq148">
<path fill="none" stroke="black" d="M176.28,-621.89C181.27,-639.81 188.64,-663.72 197.35,-684 214.92,-724.91 241.09,-769.52 257.68,-796.37"/>
<polygon fill="black" stroke="black" points="177,-611.18 176.24,-621.75 170.24,-613.01 177,-611.18"/>
<polygon fill="black" stroke="black" points="254.86,-798.46 263.12,-805.09 260.8,-794.75 254.86,-798.46"/>
</a>
</g>
</g>
<!-- Dup19 -->
<g id="node20" class="node">
<title>Dup19</title>
<ellipse fill="none" stroke="black" cx="198.35" cy="-822" rx="26" ry="26"/>
<ellipse fill="none" stroke="black" cx="198.35" cy="-822" rx="30" ry="30"/>
<text text-anchor="middle" x="198.35" y="-818.3" font-family="Times,serif" font-size="14.00">Dup</text>
</g>
<!-- PiL16&#45;&gt;Dup19 -->
<g id="edge26" class="edge">
<title>PiL16&#45;&gt;Dup19</title>
<g id="a_edge26"><a xlink:title="lret149">
<path fill="none" stroke="blue" d="M165.82,-612.24C160.38,-642.05 151.8,-704.95 164.35,-756 167,-766.78 171.78,-777.75 176.94,-787.54"/>
<polygon fill="blue" stroke="blue" points="174.02,-789.48 181.95,-796.51 180.13,-786.07 174.02,-789.48"/>
</a>
</g>
</g>
<!-- Bang20 -->
<g id="node21" class="node">
<title>Bang20</title>
<ellipse fill="none" stroke="black" cx="45.35" cy="-666" rx="29.5" ry="18"/>
<text text-anchor="middle" x="45.35" y="-662.3" font-family="Times,serif" font-size="14.00">Bang</text>
</g>
<!-- PiL16&#45;&gt;Bang20 -->
<g id="edge4" class="edge">
<title>PiL16&#45;&gt;Bang20</title>
<g id="a_edge4"><a xlink:title="dseq146">
<path fill="none" stroke="black" d="M147.26,-604.73C126.14,-615.5 94.59,-633.09 72.1,-646.49"/>
<polygon fill="black" stroke="black" points="70.12,-643.6 63.37,-651.77 73.74,-649.59 70.12,-643.6"/>
</a>
</g>
</g>
<!-- PiL16&#45;&gt;Bang20 -->
<g id="edge35" class="edge">
<title>PiL16&#45;&gt;Bang20</title>
<g id="a_edge35"><a xlink:title="newrret147">
<path fill="none" stroke="red" d="M151.97,-607.84C132.6,-619.76 101.28,-637.5 77.49,-650.05"/>
<polygon fill="red" stroke="red" points="75.71,-647.02 68.46,-654.74 78.94,-653.23 75.71,-647.02"/>
</a>
</g>
</g>
<!-- PiL17&#45;&gt;Dup18 -->
<g id="edge19" class="edge">
<title>PiL17&#45;&gt;Dup18</title>
<g id="a_edge19"><a xlink:title="idseq153">
<path fill="none" stroke="black" d="M301.74,-764.21C296.77,-774.15 291.07,-785.56 286.08,-795.53"/>
<polygon fill="black" stroke="black" points="309.38,-756.77 301.77,-764.14 303.12,-753.63 309.38,-756.77"/>
<polygon fill="none" stroke="black" points="282.91,-794.04 281.57,-804.55 289.17,-797.17 282.91,-794.04"/>
</a>
</g>
</g>
<!-- PiL17&#45;&gt;Dup19 -->
<g id="edge27" class="edge">
<title>PiL17&#45;&gt;Dup19</title>
<g id="a_edge27"><a xlink:title="lret154">
<path fill="none" stroke="blue" d="M295.86,-751.45C280.18,-762.07 257.14,-777.83 237.35,-792 235.03,-793.66 232.65,-795.38 230.26,-797.13"/>
<polygon fill="none" stroke="blue" points="228.15,-794.33 222.17,-803.07 232.3,-799.97 228.15,-794.33"/>
</a>
</g>
</g>
<!-- Bang21 -->
<g id="node22" class="node">
<title>Bang21</title>
<ellipse fill="none" stroke="black" cx="347.35" cy="-822" rx="29.5" ry="18"/>
<text text-anchor="middle" x="347.35" y="-818.3" font-family="Times,serif" font-size="14.00">Bang</text>
</g>
<!-- PiL17&#45;&gt;Bang21 -->
<g id="edge5" class="edge">
<title>PiL17&#45;&gt;Bang21</title>
<g id="a_edge5"><a xlink:title="dseq151">
<path fill="none" stroke="black" d="M315.59,-755.99C318.98,-767.58 325.01,-783.12 331.06,-796.1"/>
<polygon fill="black" stroke="black" points="328.09,-797.99 335.65,-805.42 334.37,-794.9 328.09,-797.99"/>
</a>
</g>
</g>
<!-- PiL17&#45;&gt;Bang21 -->
<g id="edge36" class="edge">
<title>PiL17&#45;&gt;Bang21</title>
<g id="a_edge36"><a xlink:title="newrret152">
<path fill="none" stroke="red" d="M325.97,-754.42C331.86,-765.66 338.42,-781.17 343,-794.39"/>
<polygon fill="red" stroke="red" points="339.68,-795.5 346.08,-803.95 346.35,-793.35 339.68,-795.5"/>
</a>
</g>
</g>
<!-- Dup18&#45;&gt;Identity0 -->
<g id="edge21" class="edge">
<title>Dup18&#45;&gt;Identity0</title>
<g id="a_edge21"><a xlink:title="idseq77">
<path fill="none" stroke="black" d="M271.48,-839.99C270.3,-850.8 268.73,-865.05 267.37,-877.45"/>
<polygon fill="black" stroke="black" points="263.85,-877.42 266.24,-887.75 270.81,-878.19 263.85,-877.42"/>
</a>
</g>
</g>
<!-- Dup19&#45;&gt;Identity0 -->
<g id="edge29" class="edge">
<title>Dup19&#45;&gt;Identity0</title>
<g id="a_edge29"><a xlink:title="lret75">
<path fill="none" stroke="blue" stroke-width="2" d="M216.73,-845.84C225.55,-856.79 236.1,-869.91 245.04,-881"/>
<polygon fill="blue" stroke="blue" stroke-width="2" points="242.5,-883.43 251.49,-889.03 247.95,-879.04 242.5,-883.43"/>
</a>
</g>
</g>
<!-- PiR22 -->
<g id="node23" class="node">
<title>PiR22</title>
<ellipse fill="none" stroke="black" cx="45.35" cy="-738" rx="27" ry="18"/>
<text text-anchor="middle" x="45.35" y="-734.3" font-family="Times,serif" font-size="14.00">PiR</text>
</g>
<!-- Bang20&#45;&gt;PiR22 -->
<g id="edge2" class="edge">
<title>Bang20&#45;&gt;PiR22</title>
<g id="a_edge2"><a xlink:title="c_bseq156">
<path fill="none" stroke="black" d="M39.47,-683.95C38.64,-691.77 38.4,-701.25 38.76,-710.02"/>
<polygon fill="black" stroke="black" points="35.28,-710.49 39.49,-720.21 42.26,-709.99 35.28,-710.49"/>
</a>
</g>
</g>
<!-- Bang20&#45;&gt;PiR22 -->
<g id="edge41" class="edge">
<title>Bang20&#45;&gt;PiR22</title>
<g id="a_edge41"><a xlink:title="newrretf157">
<path fill="none" stroke="red" d="M51.22,-683.95C52.06,-691.77 52.29,-701.25 51.94,-710.02"/>
<polygon fill="red" stroke="red" points="48.43,-709.99 51.21,-720.21 55.41,-710.49 48.43,-709.99"/>
</a>
</g>
</g>
<!-- PiR23 -->
<g id="node24" class="node">
<title>PiR23</title>
<ellipse fill="none" stroke="black" cx="347.35" cy="-906" rx="27" ry="18"/>
<text text-anchor="middle" x="347.35" y="-902.3" font-family="Times,serif" font-size="14.00">PiR</text>
</g>
<!-- Bang21&#45;&gt;PiR23 -->
<g id="edge3" class="edge">
<title>Bang21&#45;&gt;PiR23</title>
<g id="a_edge3"><a xlink:title="c_bseq159">
<path fill="none" stroke="black" d="M341.75,-839.99C340.54,-851.06 340.28,-865.73 340.98,-878.33"/>
<polygon fill="black" stroke="black" points="337.49,-878.62 341.79,-888.31 344.47,-878.06 337.49,-878.62"/>
</a>
</g>
</g>
<!-- Bang21&#45;&gt;PiR23 -->
<g id="edge42" class="edge">
<title>Bang21&#45;&gt;PiR23</title>
<g id="a_edge42"><a xlink:title="newrretf160">
<path fill="none" stroke="red" d="M352.94,-839.99C354.15,-851.06 354.41,-865.73 353.72,-878.33"/>
<polygon fill="red" stroke="red" points="350.23,-878.06 352.91,-888.31 357.2,-878.62 350.23,-878.06"/>
</a>
</g>
</g>
<!-- BangD24 -->
<g id="node25" class="node">
<title>BangD24</title>
<ellipse fill="none" stroke="black" cx="38.35" cy="-822" rx="36" ry="18"/>
<text text-anchor="middle" x="38.35" y="-818.3" font-family="Times,serif" font-size="14.00">BangD</text>
</g>
<!-- PiR22&#45;&gt;BangD24 -->
<g id="edge16" class="edge">
<title>PiR22&#45;&gt;BangD24</title>
<g id="a_edge16"><a xlink:title="i163">
<path fill="none" stroke="blue" d="M38.38,-755.59C36.21,-766.56 34.68,-781.19 34.27,-793.84"/>
<polygon fill="blue" stroke="blue" points="30.77,-793.84 34.2,-803.86 37.77,-793.89 30.77,-793.84"/>
</a>
</g>
</g>
<!-- PiR22&#45;&gt;BangD24 -->
<g id="edge52" class="edge">
<title>PiR22&#45;&gt;BangD24</title>
<g id="a_edge52"><a xlink:title="seq162">
<path fill="none" stroke="black" d="M49.49,-755.99C49.76,-767.06 48.76,-781.73 46.99,-794.33"/>
<polygon fill="black" stroke="black" points="43.52,-793.87 45.33,-804.31 50.43,-795.02 43.52,-793.87"/>
</a>
</g>
</g>
<!-- Identity26 -->
<g id="node27" class="node">
<title>Identity26</title>
<ellipse fill="none" stroke="black" cx="38.35" cy="-906" rx="38.19" ry="18"/>
<text text-anchor="middle" x="38.35" y="-902.3" font-family="Times,serif" font-size="14.00">Identity</text>
</g>
<!-- PiR22&#45;&gt;Identity26 -->
<g id="edge47" class="edge">
<title>PiR22&#45;&gt;Identity26</title>
<g id="a_edge47"><a xlink:title="ret164">
<path fill="none" stroke="red" d="M59.46,-753.36C68.2,-763.3 78.63,-777.34 83.35,-792 91.51,-817.39 92.54,-826.97 83.35,-852 79.2,-863.27 71.48,-873.79 63.59,-882.44"/>
<polygon fill="red" stroke="red" points="60.86,-880.22 56.39,-889.82 65.88,-885.11 60.86,-880.22"/>
</a>
</g>
</g>
<!-- BangD25 -->
<g id="node26" class="node">
<title>BangD25</title>
<ellipse fill="none" stroke="black" cx="347.35" cy="-978" rx="36" ry="18"/>
<text text-anchor="middle" x="347.35" y="-974.3" font-family="Times,serif" font-size="14.00">BangD</text>
</g>
<!-- PiR23&#45;&gt;BangD25 -->
<g id="edge17" class="edge">
<title>PiR23&#45;&gt;BangD25</title>
<g id="a_edge17"><a xlink:title="i167">
<path fill="none" stroke="blue" d="M341.51,-923.58C340.64,-931.49 340.39,-941.14 340.76,-950.06"/>
<polygon fill="blue" stroke="blue" points="337.27,-950.31 341.47,-960.04 344.25,-949.82 337.27,-950.31"/>
</a>
</g>
</g>
<!-- PiR23&#45;&gt;BangD25 -->
<g id="edge53" class="edge">
<title>PiR23&#45;&gt;BangD25</title>
<g id="a_edge53"><a xlink:title="seq166">
<path fill="none" stroke="black" d="M353.19,-923.58C354.05,-931.49 354.3,-941.14 353.93,-950.06"/>
<polygon fill="black" stroke="black" points="350.44,-949.82 353.23,-960.04 357.43,-950.31 350.44,-949.82"/>
</a>
</g>
</g>
<!-- Identity27 -->
<g id="node28" class="node">
<title>Identity27</title>
<ellipse fill="none" stroke="black" cx="347.35" cy="-1050" rx="38.19" ry="18"/>
<text text-anchor="middle" x="347.35" y="-1046.3" font-family="Times,serif" font-size="14.00">Identity</text>
</g>
<!-- PiR23&#45;&gt;Identity27 -->
<g id="edge48" class="edge">
<title>PiR23&#45;&gt;Identity27</title>
<g id="a_edge48"><a xlink:title="ret168">
<path fill="none" stroke="red" d="M331.14,-920.43C320.72,-930.18 308.09,-944.36 302.35,-960 296.83,-975.01 296.83,-980.98 302.35,-996 306.49,-1007.27 314.21,-1017.79 322.11,-1026.44"/>
<polygon fill="red" stroke="red" points="319.82,-1029.11 329.31,-1033.82 324.83,-1024.22 319.82,-1029.11"/>
</a>
</g>
</g>
<!-- BangD24&#45;&gt;Identity26 -->
<g id="edge22" class="edge">
<title>BangD24&#45;&gt;Identity26</title>
<g id="a_edge22"><a xlink:title="iret171">
<path fill="none" stroke="blue" d="M32.75,-839.99C31.56,-850.87 31.29,-865.24 31.94,-877.7"/>
<polygon fill="blue" stroke="blue" points="28.48,-878.33 32.76,-888.03 35.46,-877.78 28.48,-878.33"/>
</a>
</g>
</g>
<!-- BangD24&#45;&gt;Identity26 -->
<g id="edge24" class="edge">
<title>BangD24&#45;&gt;Identity26</title>
<g id="a_edge24"><a xlink:title="iseq170">
<path fill="none" stroke="black" d="M43.94,-839.99C45.13,-850.87 45.4,-865.24 44.75,-877.7"/>
<polygon fill="black" stroke="black" points="41.23,-877.78 43.94,-888.03 48.21,-878.33 41.23,-877.78"/>
</a>
</g>
</g>
<!-- BangD25&#45;&gt;Identity27 -->
<g id="edge23" class="edge">
<title>BangD25&#45;&gt;Identity27</title>
<g id="a_edge23"><a xlink:title="iret174">
<path fill="none" stroke="blue" d="M341.47,-995.94C340.64,-1003.76 340.4,-1013.25 340.76,-1022.02"/>
<polygon fill="blue" stroke="blue" points="337.28,-1022.48 341.49,-1032.21 344.26,-1021.98 337.28,-1022.48"/>
</a>
</g>
</g>
<!-- BangD25&#45;&gt;Identity27 -->
<g id="edge25" class="edge">
<title>BangD25&#45;&gt;Identity27</title>
<g id="a_edge25"><a xlink:title="iseq173">
<path fill="none" stroke="black" d="M353.22,-995.94C354.06,-1003.76 354.29,-1013.25 353.94,-1022.02"/>
<polygon fill="black" stroke="black" points="350.43,-1021.98 353.21,-1032.21 357.41,-1022.48 350.43,-1021.98"/>
</a>
</g>
</g>
</g>
</svg>
