<?xml version="1.0" encoding="UTF-8" standalone="no"?>
<!DOCTYPE svg PUBLIC "-//W3C//DTD SVG 1.1//EN"
 "http://www.w3.org/Graphics/SVG/1.1/DTD/svg11.dtd">
<!-- Generated by graphviz version 2.49.3 (0)
 -->
<!-- Pages: 1 -->
<svg width="345pt" height="1292pt"
 viewBox="0.00 0.00 345.25 1292.00" xmlns="http://www.w3.org/2000/svg" xmlns:xlink="http://www.w3.org/1999/xlink">
<g id="graph0" class="graph" transform="scale(1 1) rotate(0) translate(4 1288)">
<polygon fill="white" stroke="transparent" points="-4,4 -4,-1288 341.25,-1288 341.25,4 -4,4"/>
<!-- Identity0 -->
<g id="node1" class="node">
<title>Identity0</title>
<ellipse fill="none" stroke="black" cx="215" cy="-1266" rx="38.19" ry="18"/>
<text text-anchor="middle" x="215" y="-1262.3" font-family="Times,serif" font-size="14.00">Identity</text>
</g>
<!-- Identity1 -->
<g id="node2" class="node">
<title>Identity1</title>
<ellipse fill="none" stroke="black" cx="162" cy="-882" rx="38.19" ry="18"/>
<text text-anchor="middle" x="162" y="-878.3" font-family="Times,serif" font-size="14.00">Identity</text>
</g>
<!-- Identity2 -->
<g id="node3" class="node">
<title>Identity2</title>
<ellipse fill="none" stroke="black" cx="76" cy="-594" rx="38.19" ry="18"/>
<text text-anchor="middle" x="76" y="-590.3" font-family="Times,serif" font-size="14.00">Identity</text>
</g>
<!-- PiL3 -->
<g id="node4" class="node">
<title>PiL3</title>
<ellipse fill="none" stroke="black" cx="116" cy="-522" rx="27" ry="18"/>
<text text-anchor="middle" x="116" y="-518.3" font-family="Times,serif" font-size="14.00">PiL</text>
</g>
<!-- PiL3&#45;&gt;Identity2 -->
<g id="edge20" class="edge">
<title>PiL3&#45;&gt;Identity2</title>
<g id="a_edge20"><a xlink:title="idseq55">
<path fill="none" stroke="black" d="M96.47,-546C92.2,-552.74 87.91,-560.15 84.28,-567.05"/>
<polygon fill="black" stroke="black" points="105.03,-539.44 96.58,-545.83 99.2,-535.57 105.03,-539.44"/>
<polygon fill="black" stroke="black" points="81.13,-565.54 79.81,-576.05 87.39,-568.65 81.13,-565.54"/>
</a>
</g>
</g>
<!-- PiL3&#45;&gt;Identity2 -->
<g id="edge30" class="edge">
<title>PiL3&#45;&gt;Identity2</title>
<g id="a_edge30"><a xlink:title="lret53">
<path fill="none" stroke="blue" d="M112.2,-539.95C108.2,-548.53 102.35,-559.11 96.43,-568.56"/>
<polygon fill="blue" stroke="blue" points="93.35,-566.89 90.8,-577.17 99.2,-570.72 93.35,-566.89"/>
</a>
</g>
</g>
<!-- Bang9 -->
<g id="node10" class="node">
<title>Bang9</title>
<ellipse fill="none" stroke="black" cx="162" cy="-594" rx="29.5" ry="18"/>
<text text-anchor="middle" x="162" y="-590.3" font-family="Times,serif" font-size="14.00">Bang</text>
</g>
<!-- PiL3&#45;&gt;Bang9 -->
<g id="edge7" class="edge">
<title>PiL3&#45;&gt;Bang9</title>
<g id="a_edge7"><a xlink:title="dseq54">
<path fill="none" stroke="black" d="M121.26,-539.95C126.22,-548.96 133.42,-560.17 140.47,-569.96"/>
<polygon fill="black" stroke="black" points="137.78,-572.2 146.58,-578.11 143.38,-568.01 137.78,-572.2"/>
</a>
</g>
</g>
<!-- PiL3&#45;&gt;Bang9 -->
<g id="edge40" class="edge">
<title>PiL3&#45;&gt;Bang9</title>
<g id="a_edge40"><a xlink:title="newrret52">
<path fill="none" stroke="red" d="M130.86,-537.17C137.66,-545.79 145.41,-557.07 151.6,-567.23"/>
<polygon fill="red" stroke="red" points="148.73,-569.26 156.79,-576.14 154.78,-565.74 148.73,-569.26"/>
</a>
</g>
</g>
<!-- Assign4 -->
<g id="node5" class="node">
<title>Assign4</title>
<ellipse fill="none" stroke="black" cx="118" cy="-18" rx="35.19" ry="18"/>
<text text-anchor="middle" x="118" y="-14.3" font-family="Times,serif" font-size="14.00">Assign</text>
</g>
<!-- Dup13 -->
<g id="node14" class="node">
<title>Dup13</title>
<ellipse fill="none" stroke="black" cx="27" cy="-306" rx="27" ry="18"/>
<text text-anchor="middle" x="27" y="-302.3" font-family="Times,serif" font-size="14.00">Dup</text>
</g>
<!-- Assign4&#45;&gt;Dup13 -->
<g id="edge47" class="edge">
<title>Assign4&#45;&gt;Dup13</title>
<g id="a_edge47"><a xlink:title="ret133">
<path fill="none" stroke="red" d="M105,-34.8C97.3,-44.89 87.91,-58.56 82,-72 50.94,-142.65 36,-233.4 30.14,-277.92"/>
<polygon fill="red" stroke="red" points="26.65,-277.59 28.87,-287.95 33.6,-278.47 26.65,-277.59"/>
</a>
</g>
</g>
<!-- Cut14 -->
<g id="node15" class="node">
<title>Cut14</title>
<ellipse fill="none" stroke="black" cx="118" cy="-90" rx="27" ry="18"/>
<text text-anchor="middle" x="118" y="-86.3" font-family="Times,serif" font-size="14.00">Cut</text>
</g>
<!-- Assign4&#45;&gt;Cut14 -->
<g id="edge62" class="edge">
<title>Assign4&#45;&gt;Cut14</title>
<g id="a_edge62"><a xlink:title="seqBC94">
<path fill="none" stroke="black" d="M118,-36.3C118,-44.02 118,-53.29 118,-61.89"/>
<polygon fill="black" stroke="black" points="114.5,-61.9 118,-71.9 121.5,-61.9 114.5,-61.9"/>
</a>
</g>
</g>
<!-- Bang5 -->
<g id="node6" class="node">
<title>Bang5</title>
<ellipse fill="none" stroke="black" cx="118" cy="-162" rx="29.5" ry="18"/>
<text text-anchor="middle" x="118" y="-158.3" font-family="Times,serif" font-size="14.00">Bang</text>
</g>
<!-- PiR10 -->
<g id="node11" class="node">
<title>PiR10</title>
<ellipse fill="none" stroke="black" cx="118" cy="-234" rx="27" ry="18"/>
<text text-anchor="middle" x="118" y="-230.3" font-family="Times,serif" font-size="14.00">PiR</text>
</g>
<!-- Bang5&#45;&gt;PiR10 -->
<g id="edge35" class="edge">
<title>Bang5&#45;&gt;PiR10</title>
<g id="a_edge35"><a xlink:title="newcut_bseq100">
<path fill="none" stroke="black" d="M112.12,-179.95C111.29,-187.77 111.05,-197.25 111.41,-206.02"/>
<polygon fill="black" stroke="black" points="107.93,-206.49 112.14,-216.21 114.92,-205.99 107.93,-206.49"/>
</a>
</g>
</g>
<!-- Bang5&#45;&gt;PiR10 -->
<g id="edge46" class="edge">
<title>Bang5&#45;&gt;PiR10</title>
<g id="a_edge46"><a xlink:title="newrretf91">
<path fill="none" stroke="red" d="M123.88,-179.95C124.71,-187.77 124.95,-197.25 124.59,-206.02"/>
<polygon fill="red" stroke="red" points="121.08,-205.99 123.86,-216.21 128.07,-206.49 121.08,-205.99"/>
</a>
</g>
</g>
<!-- Dup6 -->
<g id="node7" class="node">
<title>Dup6</title>
<ellipse fill="none" stroke="black" cx="81" cy="-666" rx="27" ry="18"/>
<text text-anchor="middle" x="81" y="-662.3" font-family="Times,serif" font-size="14.00">Dup</text>
</g>
<!-- Dup6&#45;&gt;Identity1 -->
<g id="edge45" class="edge">
<title>Dup6&#45;&gt;Identity1</title>
<g id="a_edge45"><a xlink:title="newrretf66">
<path fill="none" stroke="red" d="M83.89,-684.09C89.38,-714.2 102.9,-778.25 126,-828 130.57,-837.84 136.88,-847.87 142.94,-856.52"/>
<polygon fill="red" stroke="red" points="140.14,-858.62 148.85,-864.65 145.8,-854.51 140.14,-858.62"/>
</a>
</g>
</g>
<!-- BangC7 -->
<g id="node8" class="node">
<title>BangC7</title>
<ellipse fill="none" stroke="black" cx="171" cy="-378" rx="35.19" ry="18"/>
<text text-anchor="middle" x="171" y="-374.3" font-family="Times,serif" font-size="14.00">BangC</text>
</g>
<!-- Cut8 -->
<g id="node9" class="node">
<title>Cut8</title>
<ellipse fill="none" stroke="black" cx="116" cy="-450" rx="27" ry="18"/>
<text text-anchor="middle" x="116" y="-446.3" font-family="Times,serif" font-size="14.00">Cut</text>
</g>
<!-- BangC7&#45;&gt;Cut8 -->
<g id="edge61" class="edge">
<title>BangC7&#45;&gt;Cut8</title>
<g id="a_edge61"><a xlink:title="seqBC118">
<path fill="none" stroke="black" d="M158.52,-394.88C151.39,-403.96 142.31,-415.51 134.38,-425.61"/>
<polygon fill="black" stroke="black" points="131.48,-423.63 128.05,-433.66 136.98,-427.96 131.48,-423.63"/>
</a>
</g>
</g>
<!-- BangC7&#45;&gt;Bang9 -->
<g id="edge8" class="edge">
<title>BangC7&#45;&gt;Bang9</title>
<g id="a_edge8"><a xlink:title="h116">
<path fill="none" stroke="blue" d="M169.85,-406.29C168.13,-447.35 164.88,-524.58 163.15,-565.67"/>
<polygon fill="blue" stroke="blue" points="173.78,-396.3 169.86,-406.14 166.78,-396 173.78,-396.3"/>
<polygon fill="blue" stroke="blue" points="159.65,-565.63 162.72,-575.77 166.64,-565.92 159.65,-565.63"/>
</a>
</g>
</g>
<!-- BangD15 -->
<g id="node16" class="node">
<title>BangD15</title>
<ellipse fill="none" stroke="black" cx="235" cy="-522" rx="36" ry="18"/>
<text text-anchor="middle" x="235" y="-518.3" font-family="Times,serif" font-size="14.00">BangD</text>
</g>
<!-- BangC7&#45;&gt;BangD15 -->
<g id="edge12" class="edge">
<title>BangC7&#45;&gt;BangD15</title>
<g id="a_edge12"><a xlink:title="hf107">
<path fill="none" stroke="blue" d="M178.59,-395.85C189.61,-420.29 210.13,-465.83 223.15,-494.71"/>
<polygon fill="blue" stroke="blue" points="220.12,-496.5 227.42,-504.18 226.5,-493.62 220.12,-496.5"/>
</a>
</g>
</g>
<!-- Cut8&#45;&gt;PiL3 -->
<g id="edge34" class="edge">
<title>Cut8&#45;&gt;PiL3</title>
<g id="a_edge34"><a xlink:title="lval48">
<path fill="none" stroke="blue" d="M110.16,-467.59C109.3,-475.49 109.05,-485.15 109.41,-494.06"/>
<polygon fill="blue" stroke="blue" points="105.92,-494.32 110.12,-504.04 112.9,-493.82 105.92,-494.32"/>
</a>
</g>
</g>
<!-- Cut8&#45;&gt;PiL3 -->
<g id="edge63" class="edge">
<title>Cut8&#45;&gt;PiL3</title>
<g id="a_edge63"><a xlink:title="yseq50">
<path fill="none" stroke="black" d="M122.58,-477.81C122.8,-483.05 122.81,-488.54 122.6,-493.78"/>
<polygon fill="black" stroke="black" points="125.33,-467.34 122.57,-477.56 118.35,-467.84 125.33,-467.34"/>
<polygon fill="black" stroke="black" points="119.09,-493.82 121.88,-504.04 126.07,-494.31 119.09,-493.82"/>
</a>
</g>
</g>
<!-- Cut8&#45;&gt;Dup6 -->
<g id="edge41" class="edge">
<title>Cut8&#45;&gt;Dup6</title>
<g id="a_edge41"><a xlink:title="newrretf108">
<path fill="none" stroke="red" d="M101.32,-465.5C80.47,-487.24 43.25,-530.59 29,-576 24.21,-591.27 22.95,-597.19 29,-612 34.39,-625.18 44.81,-636.86 54.91,-645.87"/>
<polygon fill="red" stroke="red" points="52.93,-648.78 62.85,-652.51 57.42,-643.41 52.93,-648.78"/>
</a>
</g>
</g>
<!-- Cut8&#45;&gt;BangD15 -->
<g id="edge1" class="edge">
<title>Cut8&#45;&gt;BangD15</title>
<g id="a_edge1"><a xlink:title="c_bseq106">
<path fill="none" stroke="black" d="M135.65,-462.56C154.13,-473.43 182.11,-489.89 203.68,-502.57"/>
<polygon fill="black" stroke="black" points="202.08,-505.7 212.48,-507.75 205.63,-499.66 202.08,-505.7"/>
</a>
</g>
</g>
<!-- Bang9&#45;&gt;Dup6 -->
<g id="edge42" class="edge">
<title>Bang9&#45;&gt;Dup6</title>
<g id="a_edge42"><a xlink:title="newrretf114">
<path fill="none" stroke="red" d="M145.61,-609.17C133.82,-619.36 117.74,-633.25 104.57,-644.63"/>
<polygon fill="none" stroke="red" points="102.09,-642.15 96.82,-651.33 106.67,-647.44 102.09,-642.15"/>
</a>
</g>
</g>
<!-- BangD16 -->
<g id="node17" class="node">
<title>BangD16</title>
<ellipse fill="none" stroke="black" cx="162" cy="-666" rx="36" ry="18"/>
<text text-anchor="middle" x="162" y="-662.3" font-family="Times,serif" font-size="14.00">BangD</text>
</g>
<!-- Bang9&#45;&gt;BangD16 -->
<g id="edge13" class="edge">
<title>Bang9&#45;&gt;BangD16</title>
<g id="a_edge13"><a xlink:title="hf113">
<path fill="none" stroke="blue" d="M156.12,-611.95C155.29,-619.77 155.05,-629.25 155.41,-638.02"/>
<polygon fill="blue" stroke="blue" points="151.93,-638.49 156.14,-648.21 158.92,-637.99 151.93,-638.49"/>
</a>
</g>
</g>
<!-- Bang9&#45;&gt;BangD16 -->
<g id="edge36" class="edge">
<title>Bang9&#45;&gt;BangD16</title>
<g id="a_edge36"><a xlink:title="newcut_bseq125">
<path fill="none" stroke="black" d="M167.88,-611.95C168.71,-619.77 168.95,-629.25 168.59,-638.02"/>
<polygon fill="black" stroke="black" points="165.08,-637.99 167.86,-648.21 172.07,-638.49 165.08,-637.99"/>
</a>
</g>
</g>
<!-- Dup11 -->
<g id="node12" class="node">
<title>Dup11</title>
<ellipse fill="none" stroke="black" cx="171" cy="-306" rx="27" ry="18"/>
<text text-anchor="middle" x="171" y="-302.3" font-family="Times,serif" font-size="14.00">Dup</text>
</g>
<!-- PiR10&#45;&gt;Dup11 -->
<g id="edge54" class="edge">
<title>PiR10&#45;&gt;Dup11</title>
<g id="a_edge54"><a xlink:title="seq135">
<path fill="none" stroke="black" d="M129.76,-250.54C136.62,-259.6 145.42,-271.21 153.12,-281.39"/>
<polygon fill="none" stroke="black" points="150.44,-283.65 159.27,-289.51 156.02,-279.42 150.44,-283.65"/>
</a>
</g>
</g>
<!-- Dup12 -->
<g id="node13" class="node">
<title>Dup12</title>
<ellipse fill="none" stroke="black" cx="99" cy="-306" rx="27" ry="18"/>
<text text-anchor="middle" x="99" y="-302.3" font-family="Times,serif" font-size="14.00">Dup</text>
</g>
<!-- PiR10&#45;&gt;Dup12 -->
<g id="edge10" class="edge">
<title>PiR10&#45;&gt;Dup12</title>
<g id="a_edge10"><a xlink:title="h136">
<path fill="none" stroke="blue" d="M113.4,-251.95C111.25,-259.86 108.65,-269.46 106.24,-278.31"/>
<polygon fill="none" stroke="blue" points="102.8,-277.64 103.56,-288.21 109.55,-279.48 102.8,-277.64"/>
</a>
</g>
</g>
<!-- PiR10&#45;&gt;Dup13 -->
<g id="edge48" class="edge">
<title>PiR10&#45;&gt;Dup13</title>
<g id="a_edge48"><a xlink:title="ret137">
<path fill="none" stroke="red" d="M100.88,-248.17C87.16,-258.73 67.69,-273.7 52.18,-285.63"/>
<polygon fill="none" stroke="red" points="49.83,-283.02 44.04,-291.89 54.1,-288.57 49.83,-283.02"/>
</a>
</g>
</g>
<!-- Dup11&#45;&gt;BangC7 -->
<g id="edge59" class="edge">
<title>Dup11&#45;&gt;BangC7</title>
<g id="a_edge59"><a xlink:title="seq33">
<path fill="none" stroke="black" d="M171,-324.3C171,-332.02 171,-341.29 171,-349.89"/>
<polygon fill="black" stroke="black" points="167.5,-349.9 171,-359.9 174.5,-349.9 167.5,-349.9"/>
</a>
</g>
</g>
<!-- Dup12&#45;&gt;BangC7 -->
<g id="edge11" class="edge">
<title>Dup12&#45;&gt;BangC7</title>
<g id="a_edge11"><a xlink:title="h34">
<path fill="none" stroke="blue" d="M113.57,-321.17C123.39,-330.71 136.54,-343.5 147.79,-354.43"/>
<polygon fill="blue" stroke="blue" points="145.59,-357.18 155.2,-361.64 150.47,-352.16 145.59,-357.18"/>
</a>
</g>
</g>
<!-- Dup13&#45;&gt;Identity2 -->
<g id="edge51" class="edge">
<title>Dup13&#45;&gt;Identity2</title>
<g id="a_edge51"><a xlink:title="ret42">
<path fill="none" stroke="red" d="M29.92,-324.03C38.1,-371.81 61.33,-507.38 71.33,-565.73"/>
<polygon fill="red" stroke="red" points="67.9,-566.43 73.03,-575.69 74.8,-565.25 67.9,-566.43"/>
</a>
</g>
</g>
<!-- Cut14&#45;&gt;Bang5 -->
<g id="edge6" class="edge">
<title>Cut14&#45;&gt;Bang5</title>
<g id="a_edge6"><a xlink:title="dseq20">
<path fill="none" stroke="black" d="M112.16,-107.59C111.3,-115.49 111.05,-125.15 111.41,-134.06"/>
<polygon fill="black" stroke="black" points="107.92,-134.32 112.12,-144.04 114.9,-133.82 107.92,-134.32"/>
</a>
</g>
</g>
<!-- Cut14&#45;&gt;Bang5 -->
<g id="edge39" class="edge">
<title>Cut14&#45;&gt;Bang5</title>
<g id="a_edge39"><a xlink:title="newrret18">
<path fill="none" stroke="red" d="M123.84,-107.59C124.7,-115.49 124.95,-125.15 124.59,-134.06"/>
<polygon fill="red" stroke="red" points="121.1,-133.82 123.88,-144.04 128.08,-134.32 121.1,-133.82"/>
</a>
</g>
</g>
<!-- Cut14&#45;&gt;Dup11 -->
<g id="edge53" class="edge">
<title>Cut14&#45;&gt;Dup11</title>
<g id="a_edge53"><a xlink:title="seq131">
<path fill="none" stroke="black" d="M138.41,-113.84C145.17,-122.66 151.98,-133.23 156,-144 172.68,-188.66 173.83,-244.91 172.72,-277.72"/>
<polygon fill="black" stroke="black" points="134.77,-103.76 138.33,-113.73 129.33,-108.15 134.77,-103.76"/>
<polygon fill="black" stroke="black" points="169.21,-277.76 172.27,-287.9 176.2,-278.06 169.21,-277.76"/>
</a>
</g>
</g>
<!-- Cut14&#45;&gt;Dup12 -->
<g id="edge9" class="edge">
<title>Cut14&#45;&gt;Dup12</title>
<g id="a_edge9"><a xlink:title="h132">
<path fill="none" stroke="blue" d="M103.89,-105.36C95.14,-115.3 84.71,-129.34 80,-144 65.31,-189.7 78.63,-245.96 89.15,-278.43"/>
<polygon fill="blue" stroke="blue" points="85.9,-279.75 92.43,-288.1 92.53,-277.5 85.9,-279.75"/>
</a>
</g>
</g>
<!-- PiL17 -->
<g id="node18" class="node">
<title>PiL17</title>
<ellipse fill="none" stroke="black" cx="235" cy="-738" rx="27" ry="18"/>
<text text-anchor="middle" x="235" y="-734.3" font-family="Times,serif" font-size="14.00">PiL</text>
</g>
<!-- BangD15&#45;&gt;PiL17 -->
<g id="edge14" class="edge">
<title>BangD15&#45;&gt;PiL17</title>
<g id="a_edge14"><a xlink:title="hseq140">
<path fill="none" stroke="black" d="M231.12,-540.15C227.58,-577.26 227.31,-665.25 230.33,-709.95"/>
<polygon fill="black" stroke="black" points="226.85,-710.38 231.14,-720.06 233.83,-709.82 226.85,-710.38"/>
</a>
</g>
</g>
<!-- BangD15&#45;&gt;PiL17 -->
<g id="edge32" class="edge">
<title>BangD15&#45;&gt;PiL17</title>
<g id="a_edge32"><a xlink:title="lval141">
<path fill="none" stroke="blue" d="M238.88,-540.15C242.42,-577.26 242.69,-665.25 239.67,-709.95"/>
<polygon fill="blue" stroke="blue" points="236.17,-709.82 238.86,-720.06 243.15,-710.38 236.17,-709.82"/>
</a>
</g>
</g>
<!-- PiL18 -->
<g id="node19" class="node">
<title>PiL18</title>
<ellipse fill="none" stroke="black" cx="162" cy="-738" rx="27" ry="18"/>
<text text-anchor="middle" x="162" y="-734.3" font-family="Times,serif" font-size="14.00">PiL</text>
</g>
<!-- BangD16&#45;&gt;PiL18 -->
<g id="edge15" class="edge">
<title>BangD16&#45;&gt;PiL18</title>
<g id="a_edge15"><a xlink:title="hseq143">
<path fill="none" stroke="black" d="M156.12,-683.95C155.29,-691.77 155.05,-701.25 155.41,-710.02"/>
<polygon fill="black" stroke="black" points="151.93,-710.49 156.14,-720.21 158.92,-709.99 151.93,-710.49"/>
</a>
</g>
</g>
<!-- BangD16&#45;&gt;PiL18 -->
<g id="edge33" class="edge">
<title>BangD16&#45;&gt;PiL18</title>
<g id="a_edge33"><a xlink:title="lval144">
<path fill="none" stroke="blue" d="M167.88,-683.95C168.71,-691.77 168.95,-701.25 168.59,-710.02"/>
<polygon fill="blue" stroke="blue" points="165.08,-709.99 167.86,-720.21 172.07,-710.49 165.08,-709.99"/>
</a>
</g>
</g>
<!-- Dup19 -->
<g id="node20" class="node">
<title>Dup19</title>
<ellipse fill="none" stroke="black" cx="162" cy="-810" rx="27" ry="18"/>
<text text-anchor="middle" x="162" y="-806.3" font-family="Times,serif" font-size="14.00">Dup</text>
</g>
<!-- PiL17&#45;&gt;Dup19 -->
<g id="edge18" class="edge">
<title>PiL17&#45;&gt;Dup19</title>
<g id="a_edge18"><a xlink:title="idseq148">
<path fill="none" stroke="black" d="M212.93,-760.16C203.78,-768.94 193.18,-779.1 184.03,-787.87"/>
<polygon fill="black" stroke="black" points="222.65,-755.69 213.01,-760.09 217.8,-750.64 222.65,-755.69"/>
<polygon fill="black" stroke="black" points="181.55,-785.41 176.75,-794.86 186.39,-790.46 181.55,-785.41"/>
</a>
</g>
</g>
<!-- Dup20 -->
<g id="node21" class="node">
<title>Dup20</title>
<ellipse fill="none" stroke="black" cx="234" cy="-810" rx="27" ry="18"/>
<text text-anchor="middle" x="234" y="-806.3" font-family="Times,serif" font-size="14.00">Dup</text>
</g>
<!-- PiL17&#45;&gt;Dup20 -->
<g id="edge28" class="edge">
<title>PiL17&#45;&gt;Dup20</title>
<g id="a_edge28"><a xlink:title="lret149">
<path fill="none" stroke="blue" d="M234.75,-756.3C234.64,-764.02 234.51,-773.29 234.39,-781.89"/>
<polygon fill="blue" stroke="blue" points="230.89,-781.85 234.24,-791.9 237.89,-781.95 230.89,-781.85"/>
</a>
</g>
</g>
<!-- Bang21 -->
<g id="node22" class="node">
<title>Bang21</title>
<ellipse fill="none" stroke="black" cx="308" cy="-810" rx="29.5" ry="18"/>
<text text-anchor="middle" x="308" y="-806.3" font-family="Times,serif" font-size="14.00">Bang</text>
</g>
<!-- PiL17&#45;&gt;Bang21 -->
<g id="edge4" class="edge">
<title>PiL17&#45;&gt;Bang21</title>
<g id="a_edge4"><a xlink:title="dseq146">
<path fill="none" stroke="black" d="M245.8,-754.88C255.26,-765.08 269.01,-778.39 281.27,-789.26"/>
<polygon fill="black" stroke="black" points="279.19,-792.09 289.04,-795.99 283.77,-786.8 279.19,-792.09"/>
</a>
</g>
</g>
<!-- PiL17&#45;&gt;Bang21 -->
<g id="edge37" class="edge">
<title>PiL17&#45;&gt;Bang21</title>
<g id="a_edge37"><a xlink:title="newrret147">
<path fill="none" stroke="red" d="M253.37,-751.51C264.65,-760.97 278.84,-774.23 290.03,-785.63"/>
<polygon fill="red" stroke="red" points="287.79,-788.35 297.23,-793.15 292.85,-783.51 287.79,-788.35"/>
</a>
</g>
</g>
<!-- PiL18&#45;&gt;Dup19 -->
<g id="edge19" class="edge">
<title>PiL18&#45;&gt;Dup19</title>
<g id="a_edge19"><a xlink:title="idseq153">
<path fill="none" stroke="black" d="M162,-766.33C162,-771.31 162,-776.51 162,-781.49"/>
<polygon fill="black" stroke="black" points="165.5,-756.3 162,-766.3 158.5,-756.3 165.5,-756.3"/>
<polygon fill="none" stroke="black" points="158.5,-781.9 162,-791.9 165.5,-781.9 158.5,-781.9"/>
</a>
</g>
</g>
<!-- PiL18&#45;&gt;Dup20 -->
<g id="edge29" class="edge">
<title>PiL18&#45;&gt;Dup20</title>
<g id="a_edge29"><a xlink:title="lret154">
<path fill="none" stroke="blue" d="M176.57,-753.17C186.75,-763.06 200.52,-776.45 212.03,-787.64"/>
<polygon fill="none" stroke="blue" points="209.59,-790.15 219.2,-794.62 214.47,-785.13 209.59,-790.15"/>
</a>
</g>
</g>
<!-- Bang22 -->
<g id="node23" class="node">
<title>Bang22</title>
<ellipse fill="none" stroke="black" cx="50" cy="-810" rx="29.5" ry="18"/>
<text text-anchor="middle" x="50" y="-806.3" font-family="Times,serif" font-size="14.00">Bang</text>
</g>
<!-- PiL18&#45;&gt;Bang22 -->
<g id="edge5" class="edge">
<title>PiL18&#45;&gt;Bang22</title>
<g id="a_edge5"><a xlink:title="dseq151">
<path fill="none" stroke="black" d="M140.79,-749.18C122.14,-759.64 95.26,-776.18 75.49,-789.22"/>
<polygon fill="black" stroke="black" points="73.33,-786.46 66.97,-794.94 77.22,-792.28 73.33,-786.46"/>
</a>
</g>
</g>
<!-- PiL18&#45;&gt;Bang22 -->
<g id="edge38" class="edge">
<title>PiL18&#45;&gt;Bang22</title>
<g id="a_edge38"><a xlink:title="newrret152">
<path fill="none" stroke="red" d="M145.86,-752.5C128.98,-764.06 102.42,-780.72 81.44,-792.96"/>
<polygon fill="red" stroke="red" points="79.47,-790.06 72.55,-798.07 82.96,-796.12 79.47,-790.06"/>
</a>
</g>
</g>
<!-- Dup19&#45;&gt;Identity1 -->
<g id="edge21" class="edge">
<title>Dup19&#45;&gt;Identity1</title>
<g id="a_edge21"><a xlink:title="idseq77">
<path fill="none" stroke="black" d="M162,-828.3C162,-836.02 162,-845.29 162,-853.89"/>
<polygon fill="black" stroke="black" points="158.5,-853.9 162,-863.9 165.5,-853.9 158.5,-853.9"/>
</a>
</g>
</g>
<!-- Dup20&#45;&gt;Identity1 -->
<g id="edge31" class="edge">
<title>Dup20&#45;&gt;Identity1</title>
<g id="a_edge31"><a xlink:title="lret75">
<path fill="none" stroke="blue" d="M219.43,-825.17C209.68,-834.64 196.64,-847.33 185.44,-858.21"/>
<polygon fill="blue" stroke="blue" points="182.78,-855.91 178.05,-865.39 187.66,-860.93 182.78,-855.91"/>
</a>
</g>
</g>
<!-- PiR23 -->
<g id="node24" class="node">
<title>PiR23</title>
<ellipse fill="none" stroke="black" cx="256" cy="-882" rx="27" ry="18"/>
<text text-anchor="middle" x="256" y="-878.3" font-family="Times,serif" font-size="14.00">PiR</text>
</g>
<!-- Bang21&#45;&gt;PiR23 -->
<g id="edge2" class="edge">
<title>Bang21&#45;&gt;PiR23</title>
<g id="a_edge2"><a xlink:title="c_bseq156">
<path fill="none" stroke="black" d="M291.93,-825.17C284.25,-833.94 275.37,-845.46 268.24,-855.76"/>
<polygon fill="black" stroke="black" points="265.12,-854.13 262.49,-864.39 270.95,-858.01 265.12,-854.13"/>
</a>
</g>
</g>
<!-- Bang21&#45;&gt;PiR23 -->
<g id="edge43" class="edge">
<title>Bang21&#45;&gt;PiR23</title>
<g id="a_edge43"><a xlink:title="newrretf157">
<path fill="none" stroke="red" d="M301.52,-827.59C295.53,-837.03 286.82,-848.97 278.52,-859.17"/>
<polygon fill="red" stroke="red" points="275.78,-856.99 272.02,-866.89 281.14,-861.5 275.78,-856.99"/>
</a>
</g>
</g>
<!-- PiR24 -->
<g id="node25" class="node">
<title>PiR24</title>
<ellipse fill="none" stroke="black" cx="68" cy="-882" rx="27" ry="18"/>
<text text-anchor="middle" x="68" y="-878.3" font-family="Times,serif" font-size="14.00">PiR</text>
</g>
<!-- Bang22&#45;&gt;PiR24 -->
<g id="edge3" class="edge">
<title>Bang22&#45;&gt;PiR24</title>
<g id="a_edge3"><a xlink:title="c_bseq159">
<path fill="none" stroke="black" d="M48.53,-828.3C49.78,-836.42 52.11,-846.26 54.84,-855.24"/>
<polygon fill="black" stroke="black" points="51.56,-856.48 58.06,-864.86 58.2,-854.26 51.56,-856.48"/>
</a>
</g>
</g>
<!-- Bang22&#45;&gt;PiR24 -->
<g id="edge44" class="edge">
<title>Bang22&#45;&gt;PiR24</title>
<g id="a_edge44"><a xlink:title="newrretf160">
<path fill="none" stroke="red" d="M59.98,-827.24C62.89,-835.13 65.65,-844.84 67.61,-853.82"/>
<polygon fill="red" stroke="red" points="64.21,-854.69 69.49,-863.88 71.09,-853.4 64.21,-854.69"/>
</a>
</g>
</g>
<!-- Dup25 -->
<g id="node26" class="node">
<title>Dup25</title>
<ellipse fill="none" stroke="black" cx="126" cy="-966" rx="26" ry="26"/>
<ellipse fill="none" stroke="black" cx="126" cy="-966" rx="30" ry="30"/>
<text text-anchor="middle" x="126" y="-962.3" font-family="Times,serif" font-size="14.00">Dup</text>
</g>
<!-- PiR23&#45;&gt;Dup25 -->
<g id="edge55" class="edge">
<title>PiR23&#45;&gt;Dup25</title>
<g id="a_edge55"><a xlink:title="seq162">
<path fill="none" stroke="black" d="M235.73,-893.95C217.02,-904.25 188.65,-920.39 165,-936 162.62,-937.57 160.2,-939.23 157.77,-940.93"/>
<polygon fill="black" stroke="black" points="155.7,-938.1 149.62,-946.78 159.79,-943.79 155.7,-938.1"/>
</a>
</g>
</g>
<!-- Dup26 -->
<g id="node27" class="node">
<title>Dup26</title>
<ellipse fill="none" stroke="black" cx="201" cy="-966" rx="27" ry="18"/>
<text text-anchor="middle" x="201" y="-962.3" font-family="Times,serif" font-size="14.00">Dup</text>
</g>
<!-- PiR23&#45;&gt;Dup26 -->
<g id="edge49" class="edge">
<title>PiR23&#45;&gt;Dup26</title>
<g id="a_edge49"><a xlink:title="ret164">
<path fill="none" stroke="red" d="M245.4,-898.81C237.41,-910.72 226.31,-927.26 217.21,-940.83"/>
<polygon fill="red" stroke="red" points="214.24,-938.98 211.57,-949.24 220.05,-942.88 214.24,-938.98"/>
</a>
</g>
</g>
<!-- BangD27 -->
<g id="node28" class="node">
<title>BangD27</title>
<ellipse fill="none" stroke="black" cx="215" cy="-1122" rx="36" ry="18"/>
<text text-anchor="middle" x="215" y="-1118.3" font-family="Times,serif" font-size="14.00">BangD</text>
</g>
<!-- PiR23&#45;&gt;BangD27 -->
<g id="edge16" class="edge">
<title>PiR23&#45;&gt;BangD27</title>
<g id="a_edge16"><a xlink:title="i163">
<path fill="none" stroke="blue" d="M253.14,-900.24C249.46,-922.4 242.84,-962.08 237,-996 231.18,-1029.82 224.3,-1068.75 219.8,-1094.06"/>
<polygon fill="blue" stroke="blue" points="216.34,-1093.56 218.03,-1104.02 223.23,-1094.79 216.34,-1093.56"/>
</a>
</g>
</g>
<!-- PiR24&#45;&gt;Dup25 -->
<g id="edge56" class="edge">
<title>PiR24&#45;&gt;Dup25</title>
<g id="a_edge56"><a xlink:title="seq166">
<path fill="none" stroke="black" d="M79.18,-898.81C86.02,-908.47 95.01,-921.18 103.28,-932.88"/>
<polygon fill="none" stroke="black" points="100.5,-935.01 109.14,-941.16 106.22,-930.97 100.5,-935.01"/>
</a>
</g>
</g>
<!-- PiR24&#45;&gt;Dup26 -->
<g id="edge50" class="edge">
<title>PiR24&#45;&gt;Dup26</title>
<g id="a_edge50"><a xlink:title="ret168">
<path fill="none" stroke="red" d="M89.45,-893.33C109.53,-903.32 140.11,-919.37 165,-936 169.04,-938.7 173.19,-941.75 177.16,-944.82"/>
<polygon fill="none" stroke="red" points="174.98,-947.57 184.98,-951.08 179.36,-942.1 174.98,-947.57"/>
</a>
</g>
</g>
<!-- BangD28 -->
<g id="node29" class="node">
<title>BangD28</title>
<ellipse fill="none" stroke="black" cx="126" cy="-1122" rx="36" ry="18"/>
<text text-anchor="middle" x="126" y="-1118.3" font-family="Times,serif" font-size="14.00">BangD</text>
</g>
<!-- PiR24&#45;&gt;BangD28 -->
<g id="edge17" class="edge">
<title>PiR24&#45;&gt;BangD28</title>
<g id="a_edge17"><a xlink:title="i167">
<path fill="none" stroke="blue" d="M67.02,-899.99C65.68,-933.4 65.64,-1009.45 88,-1068 91.94,-1078.31 98.39,-1088.45 104.87,-1097.06"/>
<polygon fill="blue" stroke="blue" points="102.3,-1099.46 111.26,-1105.11 107.78,-1095.1 102.3,-1099.46"/>
</a>
</g>
</g>
<!-- DupI31 -->
<g id="node32" class="node">
<title>DupI31</title>
<ellipse fill="none" stroke="black" cx="126" cy="-1050" rx="28.7" ry="18"/>
<text text-anchor="middle" x="126" y="-1046.3" font-family="Times,serif" font-size="14.00">DupI</text>
</g>
<!-- Dup25&#45;&gt;DupI31 -->
<g id="edge60" class="edge">
<title>Dup25&#45;&gt;DupI31</title>
<g id="a_edge60"><a xlink:title="seq80">
<path fill="none" stroke="black" stroke-width="2" d="M126,-996.14C126,-1004.46 126,-1013.49 126,-1021.7"/>
<polygon fill="black" stroke="black" stroke-width="2" points="122.5,-1021.88 126,-1031.88 129.5,-1021.88 122.5,-1021.88"/>
</a>
</g>
</g>
<!-- Dup26&#45;&gt;Identity0 -->
<g id="edge52" class="edge">
<title>Dup26&#45;&gt;Identity0</title>
<g id="a_edge52"><a xlink:title="ret82">
<path fill="none" stroke="red" d="M210.55,-983.15C224.68,-1008.07 250.48,-1057.84 260,-1104 269.73,-1151.17 267.99,-1166.93 251,-1212 247.17,-1222.14 241.04,-1232.25 234.91,-1240.87"/>
<polygon fill="red" stroke="red" points="232.06,-1238.85 228.87,-1248.95 237.66,-1243.04 232.06,-1238.85"/>
</a>
</g>
</g>
<!-- Dup29 -->
<g id="node30" class="node">
<title>Dup29</title>
<ellipse fill="none" stroke="black" cx="215" cy="-1194" rx="27" ry="18"/>
<text text-anchor="middle" x="215" y="-1190.3" font-family="Times,serif" font-size="14.00">Dup</text>
</g>
<!-- BangD27&#45;&gt;Dup29 -->
<g id="edge25" class="edge">
<title>BangD27&#45;&gt;Dup29</title>
<g id="a_edge25"><a xlink:title="iseq170">
<path fill="none" stroke="black" d="M215,-1140.3C215,-1148.01 215,-1157.28 215,-1165.88"/>
<polygon fill="black" stroke="black" points="211.5,-1165.89 215,-1175.89 218.5,-1165.89 211.5,-1165.89"/>
</a>
</g>
</g>
<!-- Dup30 -->
<g id="node31" class="node">
<title>Dup30</title>
<ellipse fill="none" stroke="black" cx="143" cy="-1194" rx="27" ry="18"/>
<text text-anchor="middle" x="143" y="-1190.3" font-family="Times,serif" font-size="14.00">Dup</text>
</g>
<!-- BangD27&#45;&gt;Dup30 -->
<g id="edge22" class="edge">
<title>BangD27&#45;&gt;Dup30</title>
<g id="a_edge22"><a xlink:title="iret171">
<path fill="none" stroke="blue" d="M199.02,-1138.53C189.06,-1148.22 176.09,-1160.82 165.15,-1171.46"/>
<polygon fill="blue" stroke="blue" points="162.68,-1168.98 157.95,-1178.46 167.56,-1174 162.68,-1168.98"/>
</a>
</g>
</g>
<!-- BangD28&#45;&gt;Dup29 -->
<g id="edge26" class="edge">
<title>BangD28&#45;&gt;Dup29</title>
<g id="a_edge26"><a xlink:title="iseq173">
<path fill="none" stroke="black" d="M144.44,-1137.5C157.64,-1147.88 175.55,-1161.97 190.02,-1173.35"/>
<polygon fill="none" stroke="black" points="188.06,-1176.26 198.09,-1179.69 192.39,-1170.76 188.06,-1176.26"/>
</a>
</g>
</g>
<!-- BangD28&#45;&gt;Dup30 -->
<g id="edge23" class="edge">
<title>BangD28&#45;&gt;Dup30</title>
<g id="a_edge23"><a xlink:title="iret174">
<path fill="none" stroke="blue" d="M130.12,-1139.94C132.01,-1147.73 134.3,-1157.17 136.42,-1165.92"/>
<polygon fill="none" stroke="blue" points="133.04,-1166.83 138.8,-1175.72 139.85,-1165.18 133.04,-1166.83"/>
</a>
</g>
</g>
<!-- Dup29&#45;&gt;Identity0 -->
<g id="edge27" class="edge">
<title>Dup29&#45;&gt;Identity0</title>
<g id="a_edge27"><a xlink:title="iseq83">
<path fill="none" stroke="black" d="M215,-1212.3C215,-1220.01 215,-1229.28 215,-1237.88"/>
<polygon fill="black" stroke="black" points="211.5,-1237.89 215,-1247.89 218.5,-1237.89 211.5,-1237.89"/>
</a>
</g>
</g>
<!-- Dup30&#45;&gt;Identity0 -->
<g id="edge24" class="edge">
<title>Dup30&#45;&gt;Identity0</title>
<g id="a_edge24"><a xlink:title="iret84">
<path fill="none" stroke="blue" d="M157.57,-1209.16C167.32,-1218.64 180.36,-1231.32 191.56,-1242.2"/>
<polygon fill="blue" stroke="blue" points="189.34,-1244.93 198.95,-1249.39 194.22,-1239.91 189.34,-1244.93"/>
</a>
</g>
</g>
<!-- DupI31&#45;&gt;BangD27 -->
<g id="edge57" class="edge">
<title>DupI31&#45;&gt;BangD27</title>
<g id="a_edge57"><a xlink:title="seq172">
<path fill="none" stroke="black" d="M143.16,-1064.49C155.91,-1074.52 173.55,-1088.4 188.16,-1099.89"/>
<polygon fill="black" stroke="black" points="186.33,-1102.9 196.36,-1106.33 190.66,-1097.4 186.33,-1102.9"/>
</a>
</g>
</g>
<!-- DupI31&#45;&gt;BangD28 -->
<g id="edge58" class="edge">
<title>DupI31&#45;&gt;BangD28</title>
<g id="a_edge58"><a xlink:title="seq175">
<path fill="none" stroke="black" d="M126,-1078.33C126,-1083.31 126,-1088.5 126,-1093.49"/>
<polygon fill="black" stroke="black" points="129.5,-1068.3 126,-1078.3 122.5,-1068.3 129.5,-1068.3"/>
<polygon fill="black" stroke="black" points="122.5,-1093.89 126,-1103.89 129.5,-1093.89 122.5,-1093.89"/>
</a>
</g>
</g>
</g>
</svg>
