<?xml version="1.0" encoding="UTF-8" standalone="no"?>
<!DOCTYPE svg PUBLIC "-//W3C//DTD SVG 1.1//EN"
 "http://www.w3.org/Graphics/SVG/1.1/DTD/svg11.dtd">
<!-- Generated by graphviz version 2.49.3 (0)
 -->
<!-- Pages: 1 -->
<svg width="515pt" height="1359pt"
 viewBox="0.00 0.00 515.00 1358.80" xmlns="http://www.w3.org/2000/svg" xmlns:xlink="http://www.w3.org/1999/xlink">
<g id="graph0" class="graph" transform="scale(1 1) rotate(0) translate(4 1354.8)">
<polygon fill="white" stroke="transparent" points="-4,4 -4,-1354.8 511,-1354.8 511,4 -4,4"/>
<!-- I0 -->
<g id="node1" class="node">
<title>I0</title>
<ellipse fill="none" stroke="black" cx="27" cy="-891.4" rx="27" ry="18"/>
<text text-anchor="middle" x="27" y="-887.7" font-family="Times,serif" font-size="14.00">I</text>
</g>
<!-- !d1 -->
<g id="node2" class="node">
<title>!d1</title>
<ellipse fill="none" stroke="black" cx="82" cy="-810" rx="27" ry="18"/>
<text text-anchor="middle" x="82" y="-806.3" font-family="Times,serif" font-size="14.00">!d</text>
</g>
<!-- I0&#45;&gt;!d1 -->
<g id="edge4" class="edge">
<title>I0&#45;&gt;!d1</title>
<g id="a_edge4"><a xlink:title="iret84">
<path fill="none" stroke="blue" d="M43.69,-866.3C52.61,-853.43 63.33,-837.96 71.16,-826.65"/>
<polygon fill="blue" stroke="blue" points="40.68,-864.5 37.87,-874.71 46.44,-868.48 40.68,-864.5"/>
</a>
</g>
</g>
<!-- λ2 -->
<g id="node3" class="node">
<title>λ2</title>
<ellipse fill="none" stroke="black" cx="82" cy="-738" rx="27" ry="18"/>
<text text-anchor="middle" x="82" y="-734.3" font-family="Times,serif" font-size="14.00">λ</text>
</g>
<!-- !d1&#45;&gt;λ2 -->
<g id="edge3" class="edge">
<title>!d1&#45;&gt;λ2</title>
<g id="a_edge3"><a xlink:title="i81">
<path fill="none" stroke="blue" d="M82,-781.67C82,-773.05 82,-763.79 82,-756.1"/>
<polygon fill="blue" stroke="blue" points="78.5,-781.7 82,-791.7 85.5,-781.7 78.5,-781.7"/>
</a>
</g>
</g>
<!-- λ2&#45;&gt;I0 -->
<g id="edge28" class="edge">
<title>λ2&#45;&gt;I0</title>
<g id="a_edge28"><a xlink:title="ret82">
<path fill="none" stroke="red" d="M69.16,-754.26C61.31,-764.36 51.72,-778.24 46,-792 36.5,-814.88 31.69,-842.75 29.29,-862.99"/>
<polygon fill="red" stroke="red" points="25.79,-862.77 28.22,-873.08 32.75,-863.5 25.79,-862.77"/>
</a>
</g>
</g>
<!-- !p3 -->
<g id="node4" class="node">
<title>!p3</title>
<ellipse fill="none" stroke="black" cx="154" cy="-810" rx="27" ry="18"/>
<text text-anchor="middle" x="154" y="-806.3" font-family="Times,serif" font-size="14.00">!p</text>
</g>
<!-- !p3&#45;&gt;λ2 -->
<g id="edge22" class="edge">
<title>!p3&#45;&gt;λ2</title>
<g id="a_edge22"><a xlink:title="newrretf78">
<path fill="none" stroke="red" d="M139.43,-794.83C129.25,-784.94 115.48,-771.55 103.97,-760.36"/>
<polygon fill="red" stroke="red" points="106.41,-757.85 96.8,-753.38 101.53,-762.87 106.41,-757.85"/>
</a>
</g>
</g>
<!-- I4 -->
<g id="node5" class="node">
<title>I4</title>
<ellipse fill="none" stroke="black" cx="213" cy="-666" rx="27" ry="18"/>
<text text-anchor="middle" x="213" y="-662.3" font-family="Times,serif" font-size="14.00">I</text>
</g>
<!-- @5 -->
<g id="node6" class="node">
<title>@5</title>
<ellipse fill="none" stroke="black" cx="182" cy="-891.4" rx="27" ry="18"/>
<text text-anchor="middle" x="182" y="-887.7" font-family="Times,serif" font-size="14.00">@</text>
</g>
<!-- I4&#45;&gt;@5 -->
<g id="edge8" class="edge">
<title>I4&#45;&gt;@5</title>
<g id="a_edge8"><a xlink:title="lret75">
<path fill="none" stroke="blue" d="M209.23,-694.2C202.76,-740.82 189.73,-834.66 184.38,-873.24"/>
<polygon fill="blue" stroke="blue" points="212.7,-694.6 210.61,-684.22 205.77,-693.64 212.7,-694.6"/>
</a>
</g>
</g>
<!-- @5&#45;&gt;!p3 -->
<g id="edge16" class="edge">
<title>@5&#45;&gt;!p3</title>
<g id="a_edge16"><a xlink:title="newrret74">
<path fill="none" stroke="red" d="M176.06,-873.56C172.35,-863.03 167.49,-849.25 163.28,-837.31"/>
<polygon fill="red" stroke="red" points="166.56,-836.08 159.93,-827.81 159.95,-838.41 166.56,-836.08"/>
</a>
</g>
</g>
<!-- !d6 -->
<g id="node7" class="node">
<title>!d6</title>
<ellipse fill="none" stroke="black" cx="264" cy="-810" rx="27" ry="18"/>
<text text-anchor="middle" x="264" y="-806.3" font-family="Times,serif" font-size="14.00">!d</text>
</g>
<!-- @5&#45;&gt;!d6 -->
<g id="edge12" class="edge">
<title>@5&#45;&gt;!d6</title>
<g id="a_edge12"><a xlink:title="lval70">
<path fill="none" stroke="blue" d="M204.14,-868.96C218.43,-855.13 236.63,-837.5 249.19,-825.34"/>
<polygon fill="blue" stroke="blue" points="201.41,-866.73 196.66,-876.2 206.28,-871.76 201.41,-866.73"/>
</a>
</g>
</g>
<!-- !p7 -->
<g id="node8" class="node">
<title>!p7</title>
<ellipse fill="none" stroke="black" cx="264" cy="-738" rx="27" ry="18"/>
<text text-anchor="middle" x="264" y="-734.3" font-family="Times,serif" font-size="14.00">!p</text>
</g>
<!-- !d6&#45;&gt;!p7 -->
<g id="edge2" class="edge">
<title>!d6&#45;&gt;!p7</title>
<g id="a_edge2"><a xlink:title="hf65">
<path fill="none" stroke="blue" d="M264,-781.67C264,-773.05 264,-763.79 264,-756.1"/>
<polygon fill="blue" stroke="blue" points="260.5,-781.7 264,-791.7 267.5,-781.7 260.5,-781.7"/>
</a>
</g>
</g>
<!-- !p7&#45;&gt;I4 -->
<g id="edge21" class="edge">
<title>!p7&#45;&gt;I4</title>
<g id="a_edge21"><a xlink:title="newrretf66">
<path fill="none" stroke="red" d="M252.68,-721.46C246.08,-712.4 237.62,-700.79 230.2,-690.61"/>
<polygon fill="red" stroke="red" points="233,-688.51 224.29,-682.49 227.35,-692.64 233,-688.51"/>
</a>
</g>
</g>
<!-- λ19 -->
<g id="node20" class="node">
<title>λ19</title>
<ellipse fill="none" stroke="black" cx="331" cy="-666" rx="27" ry="18"/>
<text text-anchor="middle" x="331" y="-662.3" font-family="Times,serif" font-size="14.00">λ</text>
</g>
<!-- !p7&#45;&gt;λ19 -->
<g id="edge1" class="edge">
<title>!p7&#45;&gt;λ19</title>
<g id="a_edge1"><a xlink:title="h34">
<path fill="none" stroke="blue" d="M285.09,-714.96C295.55,-704.04 307.89,-691.15 317.14,-681.49"/>
<polygon fill="blue" stroke="blue" points="282.27,-712.85 277.88,-722.5 287.33,-717.69 282.27,-712.85"/>
</a>
</g>
</g>
<!-- I8 -->
<g id="node9" class="node">
<title>I8</title>
<ellipse fill="none" stroke="black" cx="331" cy="-594" rx="27" ry="18"/>
<text text-anchor="middle" x="331" y="-590.3" font-family="Times,serif" font-size="14.00">I</text>
</g>
<!-- @9 -->
<g id="node10" class="node">
<title>@9</title>
<ellipse fill="none" stroke="black" cx="268" cy="-522" rx="27" ry="18"/>
<text text-anchor="middle" x="268" y="-518.3" font-family="Times,serif" font-size="14.00">@</text>
</g>
<!-- I8&#45;&gt;@9 -->
<g id="edge7" class="edge">
<title>I8&#45;&gt;@9</title>
<g id="a_edge7"><a xlink:title="lret62">
<path fill="none" stroke="blue" d="M310.67,-570.41C301.06,-559.73 289.86,-547.29 281.34,-537.82"/>
<polygon fill="blue" stroke="blue" points="308.35,-573.06 317.64,-578.15 313.55,-568.38 308.35,-573.06"/>
</a>
</g>
</g>
<!-- @9&#45;&gt;!p7 -->
<g id="edge15" class="edge">
<title>@9&#45;&gt;!p7</title>
<g id="a_edge15"><a xlink:title="newrret61">
<path fill="none" stroke="red" d="M267.68,-540.23C266.98,-577.32 265.35,-664.98 264.51,-709.71"/>
<polygon fill="red" stroke="red" points="261.01,-709.79 264.32,-719.85 268.01,-709.92 261.01,-709.79"/>
</a>
</g>
</g>
<!-- Cut18 -->
<g id="node19" class="node">
<title>Cut18</title>
<ellipse fill="none" stroke="black" cx="268" cy="-450" rx="27" ry="18"/>
<text text-anchor="middle" x="268" y="-446.3" font-family="Times,serif" font-size="14.00">Cut</text>
</g>
<!-- @9&#45;&gt;Cut18 -->
<g id="edge10" class="edge">
<title>@9&#45;&gt;Cut18</title>
<g id="a_edge10"><a xlink:title="lval38">
<path fill="none" stroke="blue" d="M268,-493.67C268,-485.05 268,-475.79 268,-468.1"/>
<polygon fill="blue" stroke="blue" points="264.5,-493.7 268,-503.7 271.5,-493.7 264.5,-493.7"/>
</a>
</g>
</g>
<!-- I10 -->
<g id="node11" class="node">
<title>I10</title>
<ellipse fill="none" stroke="black" cx="341" cy="-90" rx="27" ry="18"/>
<text text-anchor="middle" x="341" y="-86.3" font-family="Times,serif" font-size="14.00">I</text>
</g>
<!-- !d11 -->
<g id="node12" class="node">
<title>!d11</title>
<ellipse fill="none" stroke="black" cx="313" cy="-18" rx="27" ry="18"/>
<text text-anchor="middle" x="313" y="-14.3" font-family="Times,serif" font-size="14.00">!d</text>
</g>
<!-- I10&#45;&gt;!d11 -->
<g id="edge36" class="edge">
<title>I10&#45;&gt;!d11</title>
<g id="a_edge36"><a xlink:title="yret60">
<path fill="none" stroke="blue" d="M330.56,-62.91C326.89,-53.72 322.86,-43.65 319.59,-35.47"/>
<polygon fill="blue" stroke="blue" points="327.4,-64.43 334.36,-72.41 333.9,-61.83 327.4,-64.43"/>
</a>
</g>
</g>
<!-- !p12 -->
<g id="node13" class="node">
<title>!p12</title>
<ellipse fill="none" stroke="black" cx="322" cy="-162" rx="27" ry="18"/>
<text text-anchor="middle" x="322" y="-158.3" font-family="Times,serif" font-size="14.00">!p</text>
</g>
<!-- !d11&#45;&gt;!p12 -->
<g id="edge35" class="edge">
<title>!d11&#45;&gt;!p12</title>
<g id="a_edge35"><a xlink:title="yBf56">
<path fill="none" stroke="blue" d="M307.16,-45.99C304.16,-63.7 301.76,-87.31 305,-108 306.94,-120.41 311.3,-133.88 315.11,-144.14"/>
<polygon fill="blue" stroke="blue" points="310.66,-46.28 309.05,-35.81 303.78,-45 310.66,-46.28"/>
</a>
</g>
</g>
<!-- !p12&#45;&gt;I10 -->
<g id="edge20" class="edge">
<title>!p12&#45;&gt;I10</title>
<g id="a_edge20"><a xlink:title="newrretf57">
<path fill="none" stroke="red" d="M326.6,-144.05C328.75,-136.14 331.35,-126.54 333.76,-117.69"/>
<polygon fill="red" stroke="red" points="337.2,-118.36 336.44,-107.79 330.45,-116.52 337.2,-118.36"/>
</a>
</g>
</g>
<!-- !c16 -->
<g id="node17" class="node">
<title>!c16</title>
<ellipse fill="none" stroke="black" cx="231" cy="-90" rx="27" ry="18"/>
<text text-anchor="middle" x="231" y="-86.3" font-family="Times,serif" font-size="14.00">!c</text>
</g>
<!-- !p12&#45;&gt;!c16 -->
<g id="edge34" class="edge">
<title>!p12&#45;&gt;!c16</title>
<g id="a_edge34"><a xlink:title="yB44">
<path fill="none" stroke="blue" d="M296.73,-141.56C284.12,-131.86 268.91,-120.16 256.29,-110.46"/>
<polygon fill="blue" stroke="blue" points="294.82,-144.51 304.88,-147.83 299.09,-138.96 294.82,-144.51"/>
<polygon fill="blue" stroke="blue" points="250.17,-101.33 255.97,-110.2 245.91,-106.88 250.17,-101.33"/>
</a>
</g>
</g>
<!-- I13 -->
<g id="node14" class="node">
<title>I13</title>
<ellipse fill="none" stroke="black" cx="268" cy="-306" rx="27" ry="18"/>
<text text-anchor="middle" x="268" y="-302.3" font-family="Times,serif" font-size="14.00">I</text>
</g>
<!-- @14 -->
<g id="node15" class="node">
<title>@14</title>
<ellipse fill="none" stroke="black" cx="286" cy="-234" rx="27" ry="18"/>
<text text-anchor="middle" x="286" y="-230.3" font-family="Times,serif" font-size="14.00">@</text>
</g>
<!-- I13&#45;&gt;@14 -->
<g id="edge6" class="edge">
<title>I13&#45;&gt;@14</title>
<g id="a_edge6"><a xlink:title="lret53">
<path fill="none" stroke="blue" d="M274.91,-278.14C277.19,-269.28 279.65,-259.68 281.68,-251.79"/>
<polygon fill="blue" stroke="blue" points="271.46,-277.5 272.36,-288.05 278.24,-279.24 271.46,-277.5"/>
</a>
</g>
</g>
<!-- @14&#45;&gt;!p12 -->
<g id="edge14" class="edge">
<title>@14&#45;&gt;!p12</title>
<g id="a_edge14"><a xlink:title="newrret52">
<path fill="none" stroke="red" d="M294.35,-216.76C298.71,-208.28 304.15,-197.71 309.04,-188.2"/>
<polygon fill="red" stroke="red" points="312.23,-189.64 313.7,-179.15 306.01,-186.44 312.23,-189.64"/>
</a>
</g>
</g>
<!-- !d15 -->
<g id="node16" class="node">
<title>!d15</title>
<ellipse fill="none" stroke="black" cx="250" cy="-162" rx="27" ry="18"/>
<text text-anchor="middle" x="250" y="-158.3" font-family="Times,serif" font-size="14.00">!d</text>
</g>
<!-- @14&#45;&gt;!d15 -->
<g id="edge11" class="edge">
<title>@14&#45;&gt;!d15</title>
<g id="a_edge11"><a xlink:title="lval48">
<path fill="none" stroke="blue" d="M272.99,-207.7C268.09,-198.18 262.66,-187.61 258.3,-179.15"/>
<polygon fill="blue" stroke="blue" points="269.96,-209.47 277.65,-216.76 276.19,-206.27 269.96,-209.47"/>
</a>
</g>
</g>
<!-- !d15&#45;&gt;!c16 -->
<g id="edge33" class="edge">
<title>!d15&#45;&gt;!c16</title>
<g id="a_edge33"><a xlink:title="yA43">
<path fill="none" stroke="blue" d="M242.71,-134.14C240.3,-125.28 237.7,-115.68 235.56,-107.79"/>
<polygon fill="blue" stroke="blue" points="239.4,-135.32 245.4,-144.05 246.16,-133.49 239.4,-135.32"/>
</a>
</g>
</g>
<!-- λ17 -->
<g id="node18" class="node">
<title>λ17</title>
<ellipse fill="none" stroke="black" cx="268" cy="-378" rx="27" ry="18"/>
<text text-anchor="middle" x="268" y="-374.3" font-family="Times,serif" font-size="14.00">λ</text>
</g>
<!-- !c16&#45;&gt;λ17 -->
<g id="edge32" class="edge">
<title>!c16&#45;&gt;λ17</title>
<g id="a_edge32"><a xlink:title="y41">
<path fill="none" stroke="blue" d="M220.74,-117.46C217.98,-125.82 215.38,-135.18 214,-144 201.57,-223.43 203.64,-248.77 232,-324 237.26,-337.95 246.87,-351.81 254.85,-361.86"/>
<polygon fill="blue" stroke="blue" points="224.1,-118.45 224.11,-107.86 217.49,-116.13 224.1,-118.45"/>
</a>
</g>
</g>
<!-- λ17&#45;&gt;I13 -->
<g id="edge26" class="edge">
<title>λ17&#45;&gt;I13</title>
<g id="a_edge26"><a xlink:title="ret42">
<path fill="none" stroke="red" d="M268,-359.7C268,-351.98 268,-342.71 268,-334.11"/>
<polygon fill="red" stroke="red" points="271.5,-334.1 268,-324.1 264.5,-334.1 271.5,-334.1"/>
</a>
</g>
</g>
<!-- Cut18&#45;&gt;λ17 -->
<g id="edge29" class="edge">
<title>Cut18&#45;&gt;λ17</title>
<g id="a_edge29"><a xlink:title="rval39">
<path fill="none" stroke="red" d="M268,-431.7C268,-423.98 268,-414.71 268,-406.11"/>
<polygon fill="red" stroke="red" points="271.5,-406.1 268,-396.1 264.5,-406.1 271.5,-406.1"/>
</a>
</g>
</g>
<!-- λ19&#45;&gt;I8 -->
<g id="edge25" class="edge">
<title>λ19&#45;&gt;I8</title>
<g id="a_edge25"><a xlink:title="ret35">
<path fill="none" stroke="red" d="M331,-647.7C331,-639.98 331,-630.71 331,-622.11"/>
<polygon fill="red" stroke="red" points="334.5,-622.1 331,-612.1 327.5,-622.1 334.5,-622.1"/>
</a>
</g>
</g>
<!-- I20 -->
<g id="node21" class="node">
<title>I20</title>
<ellipse fill="none" stroke="black" cx="400" cy="-1044.8" rx="27" ry="18"/>
<text text-anchor="middle" x="400" y="-1041.1" font-family="Times,serif" font-size="14.00">I</text>
</g>
<!-- !d21 -->
<g id="node22" class="node">
<title>!d21</title>
<ellipse fill="none" stroke="black" cx="404" cy="-972.8" rx="27" ry="18"/>
<text text-anchor="middle" x="404" y="-969.1" font-family="Times,serif" font-size="14.00">!d</text>
</g>
<!-- I20&#45;&gt;!d21 -->
<g id="edge31" class="edge">
<title>I20&#45;&gt;!d21</title>
<g id="a_edge31"><a xlink:title="xret26">
<path fill="none" stroke="blue" d="M401.56,-1016.46C402.05,-1007.85 402.58,-998.59 403.02,-990.9"/>
<polygon fill="blue" stroke="blue" points="398.07,-1016.31 400.99,-1026.49 405.05,-1016.71 398.07,-1016.31"/>
</a>
</g>
</g>
<!-- Cut29 -->
<g id="node30" class="node">
<title>Cut29</title>
<ellipse fill="none" stroke="black" cx="408" cy="-891.4" rx="23.31" ry="23.31"/>
<ellipse fill="none" stroke="black" cx="408" cy="-891.4" rx="27.3" ry="27.3"/>
<text text-anchor="middle" x="408" y="-887.7" font-family="Times,serif" font-size="14.00">Cut</text>
</g>
<!-- !d21&#45;&gt;Cut29 -->
<g id="edge30" class="edge">
<title>!d21&#45;&gt;Cut29</title>
<g id="a_edge30"><a xlink:title="xBf22">
<path fill="none" stroke="blue" stroke-width="2" d="M405.38,-944.34C405.8,-936.12 406.25,-927.13 406.66,-918.96"/>
<polygon fill="blue" stroke="blue" stroke-width="2" points="401.88,-944.4 404.87,-954.57 408.87,-944.76 401.88,-944.4"/>
</a>
</g>
</g>
<!-- I22 -->
<g id="node23" class="node">
<title>I22</title>
<ellipse fill="none" stroke="black" cx="400" cy="-1260.8" rx="27" ry="18"/>
<text text-anchor="middle" x="400" y="-1257.1" font-family="Times,serif" font-size="14.00">I</text>
</g>
<!-- @23 -->
<g id="node24" class="node">
<title>@23</title>
<ellipse fill="none" stroke="black" cx="400" cy="-1188.8" rx="27" ry="18"/>
<text text-anchor="middle" x="400" y="-1185.1" font-family="Times,serif" font-size="14.00">@</text>
</g>
<!-- I22&#45;&gt;@23 -->
<g id="edge5" class="edge">
<title>I22&#45;&gt;@23</title>
<g id="a_edge5"><a xlink:title="lret19">
<path fill="none" stroke="blue" d="M400,-1232.46C400,-1223.85 400,-1214.59 400,-1206.9"/>
<polygon fill="blue" stroke="blue" points="396.5,-1232.49 400,-1242.49 403.5,-1232.49 396.5,-1232.49"/>
</a>
</g>
</g>
<!-- Cut27 -->
<g id="node28" class="node">
<title>Cut27</title>
<ellipse fill="none" stroke="black" cx="336" cy="-810" rx="27" ry="18"/>
<text text-anchor="middle" x="336" y="-806.3" font-family="Times,serif" font-size="14.00">Cut</text>
</g>
<!-- @23&#45;&gt;Cut27 -->
<g id="edge9" class="edge">
<title>@23&#45;&gt;Cut27</title>
<g id="a_edge9"><a xlink:title="lval14">
<path fill="none" stroke="blue" d="M381.39,-1164.16C375.15,-1155.34 368.61,-1144.98 364,-1134.8 347.16,-1097.57 341,-1086.65 341,-1045.8 341,-1045.8 341,-1045.8 341,-971.8 341,-919.57 338.33,-857.84 336.89,-828.36"/>
<polygon fill="blue" stroke="blue" points="378.71,-1166.43 387.45,-1172.41 384.35,-1162.28 378.71,-1166.43"/>
</a>
</g>
</g>
<!-- !p30 -->
<g id="node31" class="node">
<title>!p30</title>
<ellipse fill="none" stroke="black" cx="400" cy="-1116.8" rx="27" ry="18"/>
<text text-anchor="middle" x="400" y="-1113.1" font-family="Times,serif" font-size="14.00">!p</text>
</g>
<!-- @23&#45;&gt;!p30 -->
<g id="edge13" class="edge">
<title>@23&#45;&gt;!p30</title>
<g id="a_edge13"><a xlink:title="newrret18">
<path fill="none" stroke="red" d="M400,-1170.49C400,-1162.78 400,-1153.51 400,-1144.91"/>
<polygon fill="red" stroke="red" points="403.5,-1144.9 400,-1134.9 396.5,-1144.9 403.5,-1144.9"/>
</a>
</g>
</g>
<!-- Assign24 -->
<g id="node25" class="node">
<title>Assign24</title>
<ellipse fill="none" stroke="black" cx="400" cy="-1332.8" rx="35.19" ry="18"/>
<text text-anchor="middle" x="400" y="-1329.1" font-family="Times,serif" font-size="14.00">Assign</text>
</g>
<!-- Assign24&#45;&gt;I22 -->
<g id="edge27" class="edge">
<title>Assign24&#45;&gt;I22</title>
<g id="a_edge27"><a xlink:title="ret8">
<path fill="none" stroke="red" d="M400,-1314.49C400,-1306.78 400,-1297.51 400,-1288.91"/>
<polygon fill="red" stroke="red" points="403.5,-1288.9 400,-1278.9 396.5,-1288.9 403.5,-1288.9"/>
</a>
</g>
</g>
<!-- Dup25 -->
<g id="node26" class="node">
<title>Dup25</title>
<ellipse fill="none" stroke="black" cx="480" cy="-1332.8" rx="27" ry="18"/>
<text text-anchor="middle" x="480" y="-1329.1" font-family="Times,serif" font-size="14.00">Dup</text>
</g>
<!-- Dup26 -->
<g id="node27" class="node">
<title>Dup26</title>
<ellipse fill="none" stroke="black" cx="336" cy="-738" rx="27" ry="18"/>
<text text-anchor="middle" x="336" y="-734.3" font-family="Times,serif" font-size="14.00">Dup</text>
</g>
<!-- Dup26&#45;&gt;λ19 -->
<g id="edge19" class="edge">
<title>Dup26&#45;&gt;λ19</title>
<g id="a_edge19"><a xlink:title="newrretf31">
<path fill="none" stroke="red" d="M334.76,-719.7C334.21,-711.98 333.55,-702.71 332.94,-694.11"/>
<polygon fill="red" stroke="red" points="336.43,-693.83 332.22,-684.1 329.44,-694.33 336.43,-693.83"/>
</a>
</g>
</g>
<!-- Cut27&#45;&gt;Dup26 -->
<g id="edge23" class="edge">
<title>Cut27&#45;&gt;Dup26</title>
<g id="a_edge23"><a xlink:title="newrretf87">
<path fill="none" stroke="red" d="M336,-791.7C336,-783.98 336,-774.71 336,-766.11"/>
<polygon fill="red" stroke="red" points="339.5,-766.1 336,-756.1 332.5,-766.1 339.5,-766.1"/>
</a>
</g>
</g>
<!-- !p28 -->
<g id="node29" class="node">
<title>!p28</title>
<ellipse fill="none" stroke="black" cx="408" cy="-810" rx="27" ry="18"/>
<text text-anchor="middle" x="408" y="-806.3" font-family="Times,serif" font-size="14.00">!p</text>
</g>
<!-- !p28&#45;&gt;Dup26 -->
<g id="edge24" class="edge">
<title>!p28&#45;&gt;Dup26</title>
<g id="a_edge24"><a xlink:title="newrretf91">
<path fill="none" stroke="red" d="M393.43,-794.83C383.25,-784.94 369.48,-771.55 357.97,-760.36"/>
<polygon fill="none" stroke="red" points="360.41,-757.85 350.8,-753.38 355.53,-762.87 360.41,-757.85"/>
</a>
</g>
</g>
<!-- Cut29&#45;&gt;!p28 -->
<g id="edge17" class="edge">
<title>Cut29&#45;&gt;!p28</title>
<g id="a_edge17"><a xlink:title="newrret93">
<path fill="none" stroke="red" d="M408,-863.96C408,-855.8 408,-846.81 408,-838.58"/>
<polygon fill="red" stroke="red" points="411.5,-838.34 408,-828.34 404.5,-838.34 411.5,-838.34"/>
</a>
</g>
</g>
<!-- !p30&#45;&gt;I20 -->
<g id="edge18" class="edge">
<title>!p30&#45;&gt;I20</title>
<g id="a_edge18"><a xlink:title="newrretf23">
<path fill="none" stroke="red" d="M400,-1098.49C400,-1090.78 400,-1081.51 400,-1072.91"/>
<polygon fill="red" stroke="red" points="403.5,-1072.9 400,-1062.9 396.5,-1072.9 403.5,-1072.9"/>
</a>
</g>
</g>
</g>
</svg>
