<?xml version="1.0" encoding="UTF-8" standalone="no"?>
<!DOCTYPE svg PUBLIC "-//W3C//DTD SVG 1.1//EN"
 "http://www.w3.org/Graphics/SVG/1.1/DTD/svg11.dtd">
<!-- Generated by graphviz version 2.49.3 (0)
 -->
<!-- Pages: 1 -->
<svg width="655pt" height="1076pt"
 viewBox="0.00 0.00 654.60 1076.00" xmlns="http://www.w3.org/2000/svg" xmlns:xlink="http://www.w3.org/1999/xlink">
<g id="graph0" class="graph" transform="scale(1 1) rotate(0) translate(4 1072)">
<polygon fill="white" stroke="transparent" points="-4,4 -4,-1072 650.6,-1072 650.6,4 -4,4"/>
<!-- I0 -->
<g id="node1" class="node">
<title>I0</title>
<ellipse fill="none" stroke="black" cx="400" cy="-1050" rx="27" ry="18"/>
<text text-anchor="middle" x="400" y="-1046.3" font-family="Times,serif" font-size="14.00">I</text>
</g>
<!-- @1 -->
<g id="node2" class="node">
<title>@1</title>
<ellipse fill="none" stroke="black" cx="345" cy="-978" rx="27" ry="18"/>
<text text-anchor="middle" x="345" y="-974.3" font-family="Times,serif" font-size="14.00">@</text>
</g>
<!-- I0&#45;&gt;@1 -->
<g id="edge13" class="edge">
<title>I0&#45;&gt;@1</title>
<g id="a_edge13"><a xlink:title="lret53">
<path fill="none" stroke="blue" d="M381.83,-1025.87C373.63,-1015.44 364.19,-1003.41 356.91,-994.15"/>
<polygon fill="blue" stroke="blue" points="379.14,-1028.11 388.07,-1033.81 384.64,-1023.78 379.14,-1028.11"/>
</a>
</g>
</g>
<!-- Cut6 -->
<g id="node7" class="node">
<title>Cut6</title>
<ellipse fill="none" stroke="black" cx="172" cy="-906" rx="27" ry="18"/>
<text text-anchor="middle" x="172" y="-902.3" font-family="Times,serif" font-size="14.00">Cut</text>
</g>
<!-- @1&#45;&gt;Cut6 -->
<g id="edge16" class="edge">
<title>@1&#45;&gt;Cut6</title>
<g id="a_edge16"><a xlink:title="lval48">
<path fill="none" stroke="blue" d="M312.8,-963.97C278.42,-950.05 224.8,-928.36 194.62,-916.15"/>
<polygon fill="blue" stroke="blue" points="311.8,-967.34 322.38,-967.84 314.43,-960.85 311.8,-967.34"/>
</a>
</g>
</g>
<!-- !p7 -->
<g id="node8" class="node">
<title>!p7</title>
<ellipse fill="none" stroke="black" cx="227" cy="-450" rx="27" ry="18"/>
<text text-anchor="middle" x="227" y="-446.3" font-family="Times,serif" font-size="14.00">!p</text>
</g>
<!-- @1&#45;&gt;!p7 -->
<g id="edge20" class="edge">
<title>@1&#45;&gt;!p7</title>
<g id="a_edge20"><a xlink:title="newrret52">
<path fill="none" stroke="red" d="M346.65,-959.92C349.25,-931.53 354,-872.81 354,-823 354,-823 354,-823 354,-593 354,-552.55 359.88,-535.89 335,-504 333.67,-502.3 288.98,-480.67 257.51,-465.58"/>
<polygon fill="red" stroke="red" points="258.76,-462.3 248.23,-461.13 255.74,-468.61 258.76,-462.3"/>
</a>
</g>
</g>
<!-- Assign2 -->
<g id="node3" class="node">
<title>Assign2</title>
<ellipse fill="none" stroke="black" cx="257" cy="-90" rx="35.19" ry="18"/>
<text text-anchor="middle" x="257" y="-86.3" font-family="Times,serif" font-size="14.00">Assign</text>
</g>
<!-- Dup11 -->
<g id="node12" class="node">
<title>Dup11</title>
<ellipse fill="none" stroke="black" cx="337" cy="-18" rx="27" ry="18"/>
<text text-anchor="middle" x="337" y="-14.3" font-family="Times,serif" font-size="14.00">Dup</text>
</g>
<!-- Assign2&#45;&gt;Dup11 -->
<g id="edge29" class="edge">
<title>Assign2&#45;&gt;Dup11</title>
<g id="a_edge29"><a xlink:title="ret133">
<path fill="none" stroke="red" d="M273.97,-74.15C285.4,-64.15 300.65,-50.8 313.29,-39.75"/>
<polygon fill="red" stroke="red" points="315.93,-42.09 321.15,-32.87 311.32,-36.82 315.93,-42.09"/>
</a>
</g>
</g>
<!-- !p3 -->
<g id="node4" class="node">
<title>!p3</title>
<ellipse fill="none" stroke="black" cx="282" cy="-162" rx="27" ry="18"/>
<text text-anchor="middle" x="282" y="-158.3" font-family="Times,serif" font-size="14.00">!p</text>
</g>
<!-- λ8 -->
<g id="node9" class="node">
<title>λ8</title>
<ellipse fill="none" stroke="black" cx="337" cy="-90" rx="27" ry="18"/>
<text text-anchor="middle" x="337" y="-86.3" font-family="Times,serif" font-size="14.00">λ</text>
</g>
<!-- !p3&#45;&gt;λ8 -->
<g id="edge28" class="edge">
<title>!p3&#45;&gt;λ8</title>
<g id="a_edge28"><a xlink:title="newrretf91">
<path fill="none" stroke="red" d="M293.93,-145.81C301.21,-136.55 310.66,-124.52 318.85,-114.09"/>
<polygon fill="red" stroke="red" points="321.66,-116.18 325.09,-106.16 316.16,-111.86 321.66,-116.18"/>
</a>
</g>
</g>
<!-- Dup4 -->
<g id="node5" class="node">
<title>Dup4</title>
<ellipse fill="none" stroke="black" cx="172" cy="-822" rx="26" ry="26"/>
<ellipse fill="none" stroke="black" cx="172" cy="-822" rx="30" ry="30"/>
<text text-anchor="middle" x="172" y="-818.3" font-family="Times,serif" font-size="14.00">Dup</text>
</g>
<!-- DupI29 -->
<g id="node30" class="node">
<title>DupI29</title>
<ellipse fill="none" stroke="black" cx="115" cy="-738" rx="28.7" ry="18"/>
<text text-anchor="middle" x="115" y="-734.3" font-family="Times,serif" font-size="14.00">DupI</text>
</g>
<!-- Dup4&#45;&gt;DupI29 -->
<g id="edge27" class="edge">
<title>Dup4&#45;&gt;DupI29</title>
<g id="a_edge27"><a xlink:title="newrretf66">
<path fill="none" stroke="red" stroke-width="2" d="M155.21,-796.84C147.82,-786.21 139.16,-773.75 131.77,-763.13"/>
<polygon fill="red" stroke="red" stroke-width="2" points="134.5,-760.93 125.92,-754.71 128.76,-764.92 134.5,-760.93"/>
</a>
</g>
</g>
<!-- !c5 -->
<g id="node6" class="node">
<title>!c5</title>
<ellipse fill="none" stroke="black" cx="227" cy="-378" rx="27" ry="18"/>
<text text-anchor="middle" x="227" y="-374.3" font-family="Times,serif" font-size="14.00">!c</text>
</g>
<!-- Dup10 -->
<g id="node11" class="node">
<title>Dup10</title>
<ellipse fill="none" stroke="black" cx="273" cy="-306" rx="27" ry="18"/>
<text text-anchor="middle" x="273" y="-302.3" font-family="Times,serif" font-size="14.00">Dup</text>
</g>
<!-- !c5&#45;&gt;Dup10 -->
<g id="edge4" class="edge">
<title>!c5&#45;&gt;Dup10</title>
<g id="a_edge4"><a xlink:title="h34">
<path fill="none" stroke="blue" d="M243.09,-352.51C249.57,-342.66 256.85,-331.58 262.6,-322.82"/>
<polygon fill="blue" stroke="blue" points="240,-350.84 237.44,-361.12 245.85,-354.68 240,-350.84"/>
</a>
</g>
</g>
<!-- Cut6&#45;&gt;Dup4 -->
<g id="edge21" class="edge">
<title>Cut6&#45;&gt;Dup4</title>
<g id="a_edge21"><a xlink:title="newrretf108">
<path fill="none" stroke="red" d="M172,-887.61C172,-880.24 172,-871.33 172,-862.51"/>
<polygon fill="red" stroke="red" points="175.5,-862.3 172,-852.3 168.5,-862.3 175.5,-862.3"/>
</a>
</g>
</g>
<!-- !p7&#45;&gt;Dup4 -->
<g id="edge22" class="edge">
<title>!p7&#45;&gt;Dup4</title>
<g id="a_edge22"><a xlink:title="newrretf114">
<path fill="none" stroke="red" d="M214.25,-466.3C206.44,-476.41 196.85,-490.29 191,-504 175.12,-541.2 172,-552.55 172,-593 172,-667 172,-667 172,-667 172,-706.03 172,-750.63 172,-781.75"/>
<polygon fill="none" stroke="red" points="168.5,-781.76 172,-791.76 175.5,-781.76 168.5,-781.76"/>
</a>
</g>
</g>
<!-- !p7&#45;&gt;!c5 -->
<g id="edge1" class="edge">
<title>!p7&#45;&gt;!c5</title>
<g id="a_edge1"><a xlink:title="h116">
<path fill="none" stroke="blue" d="M227,-421.67C227,-416.69 227,-411.49 227,-406.51"/>
<polygon fill="blue" stroke="blue" points="223.5,-421.7 227,-431.7 230.5,-421.7 223.5,-421.7"/>
<polygon fill="blue" stroke="blue" points="230.5,-396.1 227,-406.1 223.5,-396.1 230.5,-396.1"/>
</a>
</g>
</g>
<!-- λ8&#45;&gt;Dup11 -->
<g id="edge30" class="edge">
<title>λ8&#45;&gt;Dup11</title>
<g id="a_edge30"><a xlink:title="ret137">
<path fill="none" stroke="red" d="M337,-71.7C337,-63.98 337,-54.71 337,-46.11"/>
<polygon fill="none" stroke="red" points="340.5,-46.1 337,-36.1 333.5,-46.1 340.5,-46.1"/>
</a>
</g>
</g>
<!-- Dup9 -->
<g id="node10" class="node">
<title>Dup9</title>
<ellipse fill="none" stroke="black" cx="472" cy="-1050" rx="27" ry="18"/>
<text text-anchor="middle" x="472" y="-1046.3" font-family="Times,serif" font-size="14.00">Dup</text>
</g>
<!-- Dup10&#45;&gt;λ8 -->
<g id="edge3" class="edge">
<title>Dup10&#45;&gt;λ8</title>
<g id="a_edge3"><a xlink:title="h136">
<path fill="none" stroke="blue" d="M296.17,-283.61C304.43,-274.66 312.93,-263.64 318,-252 339.24,-203.23 339.47,-138.72 338.14,-108.29"/>
<polygon fill="none" stroke="blue" points="293.54,-281.3 289.07,-290.9 298.56,-286.18 293.54,-281.3"/>
</a>
</g>
</g>
<!-- Cut12 -->
<g id="node13" class="node">
<title>Cut12</title>
<ellipse fill="none" stroke="black" cx="282" cy="-234" rx="27" ry="18"/>
<text text-anchor="middle" x="282" y="-230.3" font-family="Times,serif" font-size="14.00">Cut</text>
</g>
<!-- Dup10&#45;&gt;Cut12 -->
<g id="edge2" class="edge">
<title>Dup10&#45;&gt;Cut12</title>
<g id="a_edge2"><a xlink:title="h132">
<path fill="none" stroke="blue" d="M276.47,-278.01C277.58,-269.36 278.78,-260.03 279.78,-252.28"/>
<polygon fill="blue" stroke="blue" points="272.98,-277.69 275.18,-288.05 279.93,-278.58 272.98,-277.69"/>
</a>
</g>
</g>
<!-- Dup11&#45;&gt;I0 -->
<g id="edge33" class="edge">
<title>Dup11&#45;&gt;I0</title>
<g id="a_edge33"><a xlink:title="ret42">
<path fill="none" stroke="red" d="M349.36,-34.47C357.01,-44.66 366.58,-58.55 373,-72 390.82,-109.3 400,-119.66 400,-161 400,-907 400,-907 400,-907 400,-947 400,-993.34 400,-1021.92"/>
<polygon fill="red" stroke="red" points="396.5,-1021.95 400,-1031.95 403.5,-1021.95 396.5,-1021.95"/>
</a>
</g>
</g>
<!-- Cut12&#45;&gt;!p3 -->
<g id="edge19" class="edge">
<title>Cut12&#45;&gt;!p3</title>
<g id="a_edge19"><a xlink:title="newrret18">
<path fill="none" stroke="red" d="M282,-215.7C282,-207.98 282,-198.71 282,-190.11"/>
<polygon fill="red" stroke="red" points="285.5,-190.1 282,-180.1 278.5,-190.1 285.5,-190.1"/>
</a>
</g>
</g>
<!-- !d13 -->
<g id="node14" class="node">
<title>!d13</title>
<ellipse fill="none" stroke="black" cx="141" cy="-450" rx="27" ry="18"/>
<text text-anchor="middle" x="141" y="-446.3" font-family="Times,serif" font-size="14.00">!d</text>
</g>
<!-- !d13&#45;&gt;!c5 -->
<g id="edge5" class="edge">
<title>!d13&#45;&gt;!c5</title>
<g id="a_edge5"><a xlink:title="hf107">
<path fill="none" stroke="blue" d="M165.6,-428.98C179.98,-417.27 197.75,-402.81 210.47,-392.46"/>
<polygon fill="blue" stroke="blue" points="163.13,-426.48 157.58,-435.5 167.55,-431.91 163.13,-426.48"/>
</a>
</g>
</g>
<!-- !d14 -->
<g id="node15" class="node">
<title>!d14</title>
<ellipse fill="none" stroke="black" cx="227" cy="-522" rx="27" ry="18"/>
<text text-anchor="middle" x="227" y="-518.3" font-family="Times,serif" font-size="14.00">!d</text>
</g>
<!-- !d14&#45;&gt;!p7 -->
<g id="edge6" class="edge">
<title>!d14&#45;&gt;!p7</title>
<g id="a_edge6"><a xlink:title="hf113">
<path fill="none" stroke="blue" d="M227,-493.67C227,-485.05 227,-475.79 227,-468.1"/>
<polygon fill="blue" stroke="blue" points="223.5,-493.7 227,-503.7 230.5,-493.7 223.5,-493.7"/>
</a>
</g>
</g>
<!-- @15 -->
<g id="node16" class="node">
<title>@15</title>
<ellipse fill="none" stroke="black" cx="54" cy="-594" rx="27" ry="18"/>
<text text-anchor="middle" x="54" y="-590.3" font-family="Times,serif" font-size="14.00">@</text>
</g>
<!-- @15&#45;&gt;!d13 -->
<g id="edge14" class="edge">
<title>@15&#45;&gt;!d13</title>
<g id="a_edge14"><a xlink:title="lval141">
<path fill="none" stroke="blue" d="M70.88,-568.98C77.05,-559.99 83.99,-549.62 90,-540 105.57,-515.08 122.26,-485.31 132.15,-467.3"/>
<polygon fill="blue" stroke="blue" points="67.84,-567.22 65.03,-577.44 73.6,-571.21 67.84,-567.22"/>
</a>
</g>
</g>
<!-- !p18 -->
<g id="node19" class="node">
<title>!p18</title>
<ellipse fill="none" stroke="black" cx="54" cy="-522" rx="27" ry="18"/>
<text text-anchor="middle" x="54" y="-518.3" font-family="Times,serif" font-size="14.00">!p</text>
</g>
<!-- @15&#45;&gt;!p18 -->
<g id="edge17" class="edge">
<title>@15&#45;&gt;!p18</title>
<g id="a_edge17"><a xlink:title="newrret147">
<path fill="none" stroke="red" d="M54,-575.7C54,-567.98 54,-558.71 54,-550.11"/>
<polygon fill="red" stroke="red" points="57.5,-550.1 54,-540.1 50.5,-550.1 57.5,-550.1"/>
</a>
</g>
</g>
<!-- @16 -->
<g id="node17" class="node">
<title>@16</title>
<ellipse fill="none" stroke="black" cx="263" cy="-594" rx="27" ry="18"/>
<text text-anchor="middle" x="263" y="-590.3" font-family="Times,serif" font-size="14.00">@</text>
</g>
<!-- @16&#45;&gt;!d14 -->
<g id="edge15" class="edge">
<title>@16&#45;&gt;!d14</title>
<g id="a_edge15"><a xlink:title="lval144">
<path fill="none" stroke="blue" d="M249.99,-567.7C245.09,-558.18 239.66,-547.61 235.3,-539.15"/>
<polygon fill="blue" stroke="blue" points="246.96,-569.47 254.65,-576.76 253.19,-566.27 246.96,-569.47"/>
</a>
</g>
</g>
<!-- !p19 -->
<g id="node20" class="node">
<title>!p19</title>
<ellipse fill="none" stroke="black" cx="299" cy="-522" rx="27" ry="18"/>
<text text-anchor="middle" x="299" y="-518.3" font-family="Times,serif" font-size="14.00">!p</text>
</g>
<!-- @16&#45;&gt;!p19 -->
<g id="edge18" class="edge">
<title>@16&#45;&gt;!p19</title>
<g id="a_edge18"><a xlink:title="newrret152">
<path fill="none" stroke="red" d="M271.35,-576.76C275.71,-568.28 281.15,-557.71 286.04,-548.2"/>
<polygon fill="red" stroke="red" points="289.23,-549.64 290.7,-539.15 283.01,-546.44 289.23,-549.64"/>
</a>
</g>
</g>
<!-- Dup17 -->
<g id="node18" class="node">
<title>Dup17</title>
<ellipse fill="none" stroke="black" cx="544" cy="-1050" rx="27" ry="18"/>
<text text-anchor="middle" x="544" y="-1046.3" font-family="Times,serif" font-size="14.00">Dup</text>
</g>
<!-- λ20 -->
<g id="node21" class="node">
<title>λ20</title>
<ellipse fill="none" stroke="black" cx="54" cy="-450" rx="27" ry="18"/>
<text text-anchor="middle" x="54" y="-446.3" font-family="Times,serif" font-size="14.00">λ</text>
</g>
<!-- !p18&#45;&gt;λ20 -->
<g id="edge23" class="edge">
<title>!p18&#45;&gt;λ20</title>
<g id="a_edge23"><a xlink:title="newrretf157">
<path fill="none" stroke="red" d="M54,-503.7C54,-495.98 54,-486.71 54,-478.11"/>
<polygon fill="red" stroke="red" points="57.5,-478.1 54,-468.1 50.5,-478.1 57.5,-478.1"/>
</a>
</g>
</g>
<!-- λ21 -->
<g id="node22" class="node">
<title>λ21</title>
<ellipse fill="none" stroke="black" cx="299" cy="-450" rx="27" ry="18"/>
<text text-anchor="middle" x="299" y="-446.3" font-family="Times,serif" font-size="14.00">λ</text>
</g>
<!-- !p19&#45;&gt;λ21 -->
<g id="edge24" class="edge">
<title>!p19&#45;&gt;λ21</title>
<g id="a_edge24"><a xlink:title="newrretf160">
<path fill="none" stroke="red" d="M299,-503.7C299,-495.98 299,-486.71 299,-478.11"/>
<polygon fill="red" stroke="red" points="302.5,-478.1 299,-468.1 295.5,-478.1 302.5,-478.1"/>
</a>
</g>
</g>
<!-- I24 -->
<g id="node25" class="node">
<title>I24</title>
<ellipse fill="none" stroke="black" cx="54" cy="-378" rx="27" ry="18"/>
<text text-anchor="middle" x="54" y="-374.3" font-family="Times,serif" font-size="14.00">I</text>
</g>
<!-- λ20&#45;&gt;I24 -->
<g id="edge31" class="edge">
<title>λ20&#45;&gt;I24</title>
<g id="a_edge31"><a xlink:title="ret164">
<path fill="none" stroke="red" d="M54,-431.7C54,-423.98 54,-414.71 54,-406.11"/>
<polygon fill="red" stroke="red" points="57.5,-406.1 54,-396.1 50.5,-406.1 57.5,-406.1"/>
</a>
</g>
</g>
<!-- I25 -->
<g id="node26" class="node">
<title>I25</title>
<ellipse fill="none" stroke="black" cx="299" cy="-378" rx="27" ry="18"/>
<text text-anchor="middle" x="299" y="-374.3" font-family="Times,serif" font-size="14.00">I</text>
</g>
<!-- λ21&#45;&gt;I25 -->
<g id="edge32" class="edge">
<title>λ21&#45;&gt;I25</title>
<g id="a_edge32"><a xlink:title="ret168">
<path fill="none" stroke="red" d="M299,-431.7C299,-423.98 299,-414.71 299,-406.11"/>
<polygon fill="red" stroke="red" points="302.5,-406.1 299,-396.1 295.5,-406.1 302.5,-406.1"/>
</a>
</g>
</g>
<!-- !d22 -->
<g id="node23" class="node">
<title>!d22</title>
<ellipse fill="none" stroke="black" cx="27" cy="-306" rx="27" ry="18"/>
<text text-anchor="middle" x="27" y="-302.3" font-family="Times,serif" font-size="14.00">!d</text>
</g>
<!-- !d22&#45;&gt;λ20 -->
<g id="edge7" class="edge">
<title>!d22&#45;&gt;λ20</title>
<g id="a_edge7"><a xlink:title="i163">
<path fill="none" stroke="blue" d="M18.93,-333.59C14.77,-351.57 11.74,-375.65 18,-396 22.38,-410.25 32.04,-424.1 40.25,-434.07"/>
<polygon fill="blue" stroke="blue" points="22.35,-334.35 21.45,-323.79 15.57,-332.6 22.35,-334.35"/>
</a>
</g>
</g>
<!-- !d23 -->
<g id="node24" class="node">
<title>!d23</title>
<ellipse fill="none" stroke="black" cx="345" cy="-306" rx="27" ry="18"/>
<text text-anchor="middle" x="345" y="-302.3" font-family="Times,serif" font-size="14.00">!d</text>
</g>
<!-- !d23&#45;&gt;λ21 -->
<g id="edge8" class="edge">
<title>!d23&#45;&gt;λ21</title>
<g id="a_edge8"><a xlink:title="i167">
<path fill="none" stroke="blue" d="M345.3,-334.41C344.69,-352.42 342.32,-376.22 335,-396 329.83,-409.98 320.21,-423.85 312.21,-433.89"/>
<polygon fill="blue" stroke="blue" points="348.8,-334.35 345.48,-324.29 341.8,-334.23 348.8,-334.35"/>
</a>
</g>
</g>
<!-- I24&#45;&gt;!d22 -->
<g id="edge9" class="edge">
<title>I24&#45;&gt;!d22</title>
<g id="a_edge9"><a xlink:title="iret171">
<path fill="none" stroke="blue" d="M43.99,-351.06C40.5,-342.01 36.68,-332.09 33.54,-323.96"/>
<polygon fill="blue" stroke="blue" points="40.74,-352.34 47.6,-360.41 47.27,-349.82 40.74,-352.34"/>
</a>
</g>
</g>
<!-- I25&#45;&gt;!d23 -->
<g id="edge10" class="edge">
<title>I25&#45;&gt;!d23</title>
<g id="a_edge10"><a xlink:title="iret174">
<path fill="none" stroke="blue" d="M315.09,-352.51C321.57,-342.66 328.85,-331.58 334.6,-322.82"/>
<polygon fill="blue" stroke="blue" points="312,-350.84 309.44,-361.12 317.85,-354.68 312,-350.84"/>
</a>
</g>
</g>
<!-- I26 -->
<g id="node27" class="node">
<title>I26</title>
<ellipse fill="none" stroke="black" cx="45" cy="-666" rx="27" ry="18"/>
<text text-anchor="middle" x="45" y="-662.3" font-family="Times,serif" font-size="14.00">I</text>
</g>
<!-- I26&#45;&gt;@15 -->
<g id="edge11" class="edge">
<title>I26&#45;&gt;@15</title>
<g id="a_edge11"><a xlink:title="lret149">
<path fill="none" stroke="blue" d="M48.47,-638.01C49.58,-629.36 50.78,-620.03 51.78,-612.28"/>
<polygon fill="blue" stroke="blue" points="44.98,-637.69 47.18,-648.05 51.93,-638.58 44.98,-637.69"/>
</a>
</g>
</g>
<!-- I27 -->
<g id="node28" class="node">
<title>I27</title>
<ellipse fill="none" stroke="black" cx="117" cy="-666" rx="27" ry="18"/>
<text text-anchor="middle" x="117" y="-662.3" font-family="Times,serif" font-size="14.00">I</text>
</g>
<!-- I27&#45;&gt;@16 -->
<g id="edge12" class="edge">
<title>I27&#45;&gt;@16</title>
<g id="a_edge12"><a xlink:title="lret154">
<path fill="none" stroke="blue" d="M147.25,-650.49C175.48,-636.96 216.86,-617.12 241.74,-605.19"/>
<polygon fill="blue" stroke="blue" points="145.73,-647.34 138.23,-654.82 148.76,-653.65 145.73,-647.34"/>
</a>
</g>
</g>
<!-- DupI28 -->
<g id="node29" class="node">
<title>DupI28</title>
<ellipse fill="none" stroke="black" cx="618" cy="-1050" rx="28.7" ry="18"/>
<text text-anchor="middle" x="618" y="-1046.3" font-family="Times,serif" font-size="14.00">DupI</text>
</g>
<!-- DupI29&#45;&gt;I26 -->
<g id="edge25" class="edge">
<title>DupI29&#45;&gt;I26</title>
<g id="a_edge25"><a xlink:title="newrretf181">
<path fill="none" stroke="red" d="M100.15,-722.15C90.37,-712.37 77.4,-699.4 66.5,-688.5"/>
<polygon fill="red" stroke="red" points="68.89,-685.94 59.35,-681.35 63.94,-690.89 68.89,-685.94"/>
</a>
</g>
</g>
<!-- DupI29&#45;&gt;I27 -->
<g id="edge26" class="edge">
<title>DupI29&#45;&gt;I27</title>
<g id="a_edge26"><a xlink:title="newrretf183">
<path fill="none" stroke="red" d="M115.78,-709.67C115.93,-704.55 116.08,-699.21 116.23,-694.1"/>
<polygon fill="red" stroke="red" points="112,-719.6 115.78,-709.7 118.99,-719.8 112,-719.6"/>
<polygon fill="red" stroke="red" points="119.72,-694.2 116.51,-684.1 112.73,-694 119.72,-694.2"/>
</a>
</g>
</g>
</g>
</svg>
