<?xml version="1.0" encoding="UTF-8" standalone="no"?>
<!DOCTYPE svg PUBLIC "-//W3C//DTD SVG 1.1//EN"
 "http://www.w3.org/Graphics/SVG/1.1/DTD/svg11.dtd">
<!-- Generated by graphviz version 2.49.3 (0)
 -->
<!-- Pages: 1 -->
<svg width="643pt" height="860pt"
 viewBox="0.00 0.00 642.60 860.00" xmlns="http://www.w3.org/2000/svg" xmlns:xlink="http://www.w3.org/1999/xlink">
<g id="graph0" class="graph" transform="scale(1 1) rotate(0) translate(4 856)">
<polygon fill="white" stroke="transparent" points="-4,4 -4,-856 638.6,-856 638.6,4 -4,4"/>
<!-- I0 -->
<g id="node1" class="node">
<title>I0</title>
<ellipse fill="none" stroke="black" cx="382" cy="-822" rx="27" ry="18"/>
<text text-anchor="middle" x="382" y="-818.3" font-family="Times,serif" font-size="14.00">I</text>
</g>
<!-- @1 -->
<g id="node2" class="node">
<title>@1</title>
<ellipse fill="none" stroke="black" cx="217" cy="-738" rx="27" ry="18"/>
<text text-anchor="middle" x="217" y="-734.3" font-family="Times,serif" font-size="14.00">@</text>
</g>
<!-- I0&#45;&gt;@1 -->
<g id="edge13" class="edge">
<title>I0&#45;&gt;@1</title>
<g id="a_edge13"><a xlink:title="lret53">
<path fill="none" stroke="blue" d="M351.6,-805.89C318.65,-789.52 266.94,-763.82 238.15,-749.51"/>
<polygon fill="blue" stroke="blue" points="350.25,-809.13 360.77,-810.45 353.37,-802.86 350.25,-809.13"/>
</a>
</g>
</g>
<!-- Cut5 -->
<g id="node6" class="node">
<title>Cut5</title>
<ellipse fill="none" stroke="black" cx="267" cy="-666" rx="27" ry="18"/>
<text text-anchor="middle" x="267" y="-662.3" font-family="Times,serif" font-size="14.00">Cut</text>
</g>
<!-- @1&#45;&gt;Cut5 -->
<g id="edge16" class="edge">
<title>@1&#45;&gt;Cut5</title>
<g id="a_edge16"><a xlink:title="lval48">
<path fill="none" stroke="blue" d="M234.12,-713.03C241.34,-702.93 249.53,-691.46 255.93,-682.49"/>
<polygon fill="blue" stroke="blue" points="231.06,-711.29 228.1,-721.46 236.76,-715.36 231.06,-711.29"/>
</a>
</g>
</g>
<!-- !p6 -->
<g id="node7" class="node">
<title>!p6</title>
<ellipse fill="none" stroke="black" cx="162" cy="-666" rx="27" ry="18"/>
<text text-anchor="middle" x="162" y="-662.3" font-family="Times,serif" font-size="14.00">!p</text>
</g>
<!-- @1&#45;&gt;!p6 -->
<g id="edge20" class="edge">
<title>@1&#45;&gt;!p6</title>
<g id="a_edge20"><a xlink:title="newrret52">
<path fill="none" stroke="red" d="M205.07,-721.81C197.79,-712.55 188.34,-700.52 180.15,-690.09"/>
<polygon fill="red" stroke="red" points="182.84,-687.86 173.91,-682.16 177.34,-692.18 182.84,-687.86"/>
</a>
</g>
</g>
<!-- Assign2 -->
<g id="node3" class="node">
<title>Assign2</title>
<ellipse fill="none" stroke="black" cx="445" cy="-90" rx="35.19" ry="18"/>
<text text-anchor="middle" x="445" y="-86.3" font-family="Times,serif" font-size="14.00">Assign</text>
</g>
<!-- Dup10 -->
<g id="node11" class="node">
<title>Dup10</title>
<ellipse fill="none" stroke="black" cx="382" cy="-18" rx="27" ry="18"/>
<text text-anchor="middle" x="382" y="-14.3" font-family="Times,serif" font-size="14.00">Dup</text>
</g>
<!-- Assign2&#45;&gt;Dup10 -->
<g id="edge26" class="edge">
<title>Assign2&#45;&gt;Dup10</title>
<g id="a_edge26"><a xlink:title="ret133">
<path fill="none" stroke="red" d="M431.02,-73.46C422.58,-64.09 411.69,-51.99 402.32,-41.57"/>
<polygon fill="red" stroke="red" points="404.8,-39.1 395.51,-34.01 399.6,-43.79 404.8,-39.1"/>
</a>
</g>
</g>
<!-- !p3 -->
<g id="node4" class="node">
<title>!p3</title>
<ellipse fill="none" stroke="black" cx="217" cy="-162" rx="27" ry="18"/>
<text text-anchor="middle" x="217" y="-158.3" font-family="Times,serif" font-size="14.00">!p</text>
</g>
<!-- λ7 -->
<g id="node8" class="node">
<title>λ7</title>
<ellipse fill="none" stroke="black" cx="272" cy="-90" rx="27" ry="18"/>
<text text-anchor="middle" x="272" y="-86.3" font-family="Times,serif" font-size="14.00">λ</text>
</g>
<!-- !p3&#45;&gt;λ7 -->
<g id="edge25" class="edge">
<title>!p3&#45;&gt;λ7</title>
<g id="a_edge25"><a xlink:title="newrretf91">
<path fill="none" stroke="red" d="M228.93,-145.81C236.21,-136.55 245.66,-124.52 253.85,-114.09"/>
<polygon fill="red" stroke="red" points="256.66,-116.18 260.09,-106.16 251.16,-111.86 256.66,-116.18"/>
</a>
</g>
</g>
<!-- !c4 -->
<g id="node5" class="node">
<title>!c4</title>
<ellipse fill="none" stroke="black" cx="217" cy="-378" rx="27" ry="18"/>
<text text-anchor="middle" x="217" y="-374.3" font-family="Times,serif" font-size="14.00">!c</text>
</g>
<!-- Dup9 -->
<g id="node10" class="node">
<title>Dup9</title>
<ellipse fill="none" stroke="black" cx="217" cy="-306" rx="27" ry="18"/>
<text text-anchor="middle" x="217" y="-302.3" font-family="Times,serif" font-size="14.00">Dup</text>
</g>
<!-- !c4&#45;&gt;Dup9 -->
<g id="edge4" class="edge">
<title>!c4&#45;&gt;Dup9</title>
<g id="a_edge4"><a xlink:title="h34">
<path fill="none" stroke="blue" d="M217,-349.67C217,-341.05 217,-331.79 217,-324.1"/>
<polygon fill="blue" stroke="blue" points="213.5,-349.7 217,-359.7 220.5,-349.7 213.5,-349.7"/>
</a>
</g>
</g>
<!-- I25 -->
<g id="node26" class="node">
<title>I25</title>
<ellipse fill="none" stroke="black" cx="267" cy="-594" rx="27" ry="18"/>
<text text-anchor="middle" x="267" y="-590.3" font-family="Times,serif" font-size="14.00">I</text>
</g>
<!-- Cut5&#45;&gt;I25 -->
<g id="edge21" class="edge">
<title>Cut5&#45;&gt;I25</title>
<g id="a_edge21"><a xlink:title="newrretf108">
<path fill="none" stroke="red" d="M267,-647.7C267,-639.98 267,-630.71 267,-622.11"/>
<polygon fill="red" stroke="red" points="270.5,-622.1 267,-612.1 263.5,-622.1 270.5,-622.1"/>
</a>
</g>
</g>
<!-- !p6&#45;&gt;!c4 -->
<g id="edge1" class="edge">
<title>!p6&#45;&gt;!c4</title>
<g id="a_edge1"><a xlink:title="h116">
<path fill="none" stroke="blue" d="M165.11,-637.74C170.4,-593.97 182.33,-505.47 200,-432 202.09,-423.32 204.88,-414 207.61,-405.63"/>
<polygon fill="blue" stroke="blue" points="161.61,-637.53 163.91,-647.87 168.56,-638.35 161.61,-637.53"/>
<polygon fill="blue" stroke="blue" points="214.15,-397.12 207.65,-405.48 207.52,-394.89 214.15,-397.12"/>
</a>
</g>
</g>
<!-- I26 -->
<g id="node27" class="node">
<title>I26</title>
<ellipse fill="none" stroke="black" cx="88" cy="-594" rx="27" ry="18"/>
<text text-anchor="middle" x="88" y="-590.3" font-family="Times,serif" font-size="14.00">I</text>
</g>
<!-- !p6&#45;&gt;I26 -->
<g id="edge22" class="edge">
<title>!p6&#45;&gt;I26</title>
<g id="a_edge22"><a xlink:title="newrretf114">
<path fill="none" stroke="red" d="M147.02,-650.83C136.49,-640.87 122.22,-627.37 110.34,-616.14"/>
<polygon fill="red" stroke="red" points="112.62,-613.47 102.95,-609.14 107.81,-618.56 112.62,-613.47"/>
</a>
</g>
</g>
<!-- λ7&#45;&gt;Dup10 -->
<g id="edge27" class="edge">
<title>λ7&#45;&gt;Dup10</title>
<g id="a_edge27"><a xlink:title="ret137">
<path fill="none" stroke="red" d="M291.16,-76.81C308.67,-65.67 334.76,-49.06 354.49,-36.5"/>
<polygon fill="none" stroke="red" points="356.5,-39.37 363.06,-31.05 352.74,-33.47 356.5,-39.37"/>
</a>
</g>
</g>
<!-- Dup8 -->
<g id="node9" class="node">
<title>Dup8</title>
<ellipse fill="none" stroke="black" cx="454" cy="-822" rx="27" ry="18"/>
<text text-anchor="middle" x="454" y="-818.3" font-family="Times,serif" font-size="14.00">Dup</text>
</g>
<!-- Dup9&#45;&gt;λ7 -->
<g id="edge3" class="edge">
<title>Dup9&#45;&gt;λ7</title>
<g id="a_edge3"><a xlink:title="h136">
<path fill="none" stroke="blue" d="M236.39,-281.68C242.7,-272.89 249.09,-262.47 253,-252 271.59,-202.16 273.09,-138.16 272.6,-108.07"/>
<polygon fill="none" stroke="blue" points="233.43,-279.79 230.19,-289.88 239.01,-284.02 233.43,-279.79"/>
</a>
</g>
</g>
<!-- Cut11 -->
<g id="node12" class="node">
<title>Cut11</title>
<ellipse fill="none" stroke="black" cx="217" cy="-234" rx="27" ry="18"/>
<text text-anchor="middle" x="217" y="-230.3" font-family="Times,serif" font-size="14.00">Cut</text>
</g>
<!-- Dup9&#45;&gt;Cut11 -->
<g id="edge2" class="edge">
<title>Dup9&#45;&gt;Cut11</title>
<g id="a_edge2"><a xlink:title="h132">
<path fill="none" stroke="blue" d="M217,-277.67C217,-269.05 217,-259.79 217,-252.1"/>
<polygon fill="blue" stroke="blue" points="213.5,-277.7 217,-287.7 220.5,-277.7 213.5,-277.7"/>
</a>
</g>
</g>
<!-- Dup10&#45;&gt;I0 -->
<g id="edge30" class="edge">
<title>Dup10&#45;&gt;I0</title>
<g id="a_edge30"><a xlink:title="ret42">
<path fill="none" stroke="red" d="M382,-36.05C382,-62.71 382,-115.89 382,-161 382,-667 382,-667 382,-667 382,-711.29 382,-762.74 382,-793.54"/>
<polygon fill="red" stroke="red" points="378.5,-793.91 382,-803.91 385.5,-793.91 378.5,-793.91"/>
</a>
</g>
</g>
<!-- Cut11&#45;&gt;!p3 -->
<g id="edge19" class="edge">
<title>Cut11&#45;&gt;!p3</title>
<g id="a_edge19"><a xlink:title="newrret18">
<path fill="none" stroke="red" d="M217,-215.7C217,-207.98 217,-198.71 217,-190.11"/>
<polygon fill="red" stroke="red" points="220.5,-190.1 217,-180.1 213.5,-190.1 220.5,-190.1"/>
</a>
</g>
</g>
<!-- !d12 -->
<g id="node13" class="node">
<title>!d12</title>
<ellipse fill="none" stroke="black" cx="236" cy="-450" rx="27" ry="18"/>
<text text-anchor="middle" x="236" y="-446.3" font-family="Times,serif" font-size="14.00">!d</text>
</g>
<!-- !d12&#45;&gt;!c4 -->
<g id="edge5" class="edge">
<title>!d12&#45;&gt;!c4</title>
<g id="a_edge5"><a xlink:title="hf107">
<path fill="none" stroke="blue" d="M228.71,-422.14C226.3,-413.28 223.7,-403.68 221.56,-395.79"/>
<polygon fill="blue" stroke="blue" points="225.4,-423.32 231.4,-432.05 232.16,-421.49 225.4,-423.32"/>
</a>
</g>
</g>
<!-- !d13 -->
<g id="node14" class="node">
<title>!d13</title>
<ellipse fill="none" stroke="black" cx="126" cy="-450" rx="27" ry="18"/>
<text text-anchor="middle" x="126" y="-446.3" font-family="Times,serif" font-size="14.00">!d</text>
</g>
<!-- !d13&#45;&gt;!p6 -->
<g id="edge6" class="edge">
<title>!d13&#45;&gt;!p6</title>
<g id="a_edge6"><a xlink:title="hf113">
<path fill="none" stroke="blue" d="M130.55,-478.05C138.07,-522.75 152.87,-610.74 159.11,-647.85"/>
<polygon fill="blue" stroke="blue" points="133.96,-477.22 128.85,-467.94 127.06,-478.38 133.96,-477.22"/>
</a>
</g>
</g>
<!-- @14 -->
<g id="node15" class="node">
<title>@14</title>
<ellipse fill="none" stroke="black" cx="281" cy="-522" rx="27" ry="18"/>
<text text-anchor="middle" x="281" y="-518.3" font-family="Times,serif" font-size="14.00">@</text>
</g>
<!-- @14&#45;&gt;!d12 -->
<g id="edge14" class="edge">
<title>@14&#45;&gt;!d12</title>
<g id="a_edge14"><a xlink:title="lval141">
<path fill="none" stroke="blue" d="M265.26,-496.51C258.92,-486.66 251.8,-475.58 246.17,-466.82"/>
<polygon fill="blue" stroke="blue" points="262.44,-498.6 270.79,-505.12 268.33,-494.81 262.44,-498.6"/>
</a>
</g>
</g>
<!-- !p17 -->
<g id="node18" class="node">
<title>!p17</title>
<ellipse fill="none" stroke="black" cx="308" cy="-450" rx="27" ry="18"/>
<text text-anchor="middle" x="308" y="-446.3" font-family="Times,serif" font-size="14.00">!p</text>
</g>
<!-- @14&#45;&gt;!p17 -->
<g id="edge17" class="edge">
<title>@14&#45;&gt;!p17</title>
<g id="a_edge17"><a xlink:title="newrret147">
<path fill="none" stroke="red" d="M287.4,-504.41C290.51,-496.34 294.33,-486.43 297.83,-477.35"/>
<polygon fill="red" stroke="red" points="301.13,-478.55 301.46,-467.96 294.6,-476.03 301.13,-478.55"/>
</a>
</g>
</g>
<!-- @15 -->
<g id="node16" class="node">
<title>@15</title>
<ellipse fill="none" stroke="black" cx="71" cy="-522" rx="27" ry="18"/>
<text text-anchor="middle" x="71" y="-518.3" font-family="Times,serif" font-size="14.00">@</text>
</g>
<!-- @15&#45;&gt;!d13 -->
<g id="edge15" class="edge">
<title>@15&#45;&gt;!d13</title>
<g id="a_edge15"><a xlink:title="lval144">
<path fill="none" stroke="blue" d="M89.17,-497.87C97.37,-487.44 106.81,-475.42 114.09,-466.16"/>
<polygon fill="blue" stroke="blue" points="86.36,-495.79 82.93,-505.81 91.86,-500.11 86.36,-495.79"/>
</a>
</g>
</g>
<!-- !p18 -->
<g id="node19" class="node">
<title>!p18</title>
<ellipse fill="none" stroke="black" cx="54" cy="-450" rx="27" ry="18"/>
<text text-anchor="middle" x="54" y="-446.3" font-family="Times,serif" font-size="14.00">!p</text>
</g>
<!-- @15&#45;&gt;!p18 -->
<g id="edge18" class="edge">
<title>@15&#45;&gt;!p18</title>
<g id="a_edge18"><a xlink:title="newrret152">
<path fill="none" stroke="red" d="M66.88,-504.05C64.99,-496.26 62.7,-486.82 60.58,-478.08"/>
<polygon fill="red" stroke="red" points="63.96,-477.17 58.2,-468.28 57.15,-478.82 63.96,-477.17"/>
</a>
</g>
</g>
<!-- Dup16 -->
<g id="node17" class="node">
<title>Dup16</title>
<ellipse fill="none" stroke="black" cx="529" cy="-822" rx="26" ry="26"/>
<ellipse fill="none" stroke="black" cx="529" cy="-822" rx="30" ry="30"/>
<text text-anchor="middle" x="529" y="-818.3" font-family="Times,serif" font-size="14.00">Dup</text>
</g>
<!-- λ19 -->
<g id="node20" class="node">
<title>λ19</title>
<ellipse fill="none" stroke="black" cx="308" cy="-378" rx="27" ry="18"/>
<text text-anchor="middle" x="308" y="-374.3" font-family="Times,serif" font-size="14.00">λ</text>
</g>
<!-- !p17&#45;&gt;λ19 -->
<g id="edge23" class="edge">
<title>!p17&#45;&gt;λ19</title>
<g id="a_edge23"><a xlink:title="newrretf157">
<path fill="none" stroke="red" d="M308,-431.7C308,-423.98 308,-414.71 308,-406.11"/>
<polygon fill="red" stroke="red" points="311.5,-406.1 308,-396.1 304.5,-406.1 311.5,-406.1"/>
</a>
</g>
</g>
<!-- λ20 -->
<g id="node21" class="node">
<title>λ20</title>
<ellipse fill="none" stroke="black" cx="54" cy="-378" rx="27" ry="18"/>
<text text-anchor="middle" x="54" y="-374.3" font-family="Times,serif" font-size="14.00">λ</text>
</g>
<!-- !p18&#45;&gt;λ20 -->
<g id="edge24" class="edge">
<title>!p18&#45;&gt;λ20</title>
<g id="a_edge24"><a xlink:title="newrretf160">
<path fill="none" stroke="red" d="M54,-431.7C54,-423.98 54,-414.71 54,-406.11"/>
<polygon fill="red" stroke="red" points="57.5,-406.1 54,-396.1 50.5,-406.1 57.5,-406.1"/>
</a>
</g>
</g>
<!-- I23 -->
<g id="node24" class="node">
<title>I23</title>
<ellipse fill="none" stroke="black" cx="289" cy="-306" rx="27" ry="18"/>
<text text-anchor="middle" x="289" y="-302.3" font-family="Times,serif" font-size="14.00">I</text>
</g>
<!-- λ19&#45;&gt;I23 -->
<g id="edge28" class="edge">
<title>λ19&#45;&gt;I23</title>
<g id="a_edge28"><a xlink:title="ret164">
<path fill="none" stroke="red" d="M303.4,-360.05C301.25,-352.14 298.65,-342.54 296.24,-333.69"/>
<polygon fill="red" stroke="red" points="299.55,-332.52 293.56,-323.79 292.8,-334.36 299.55,-332.52"/>
</a>
</g>
</g>
<!-- I24 -->
<g id="node25" class="node">
<title>I24</title>
<ellipse fill="none" stroke="black" cx="54" cy="-306" rx="27" ry="18"/>
<text text-anchor="middle" x="54" y="-302.3" font-family="Times,serif" font-size="14.00">I</text>
</g>
<!-- λ20&#45;&gt;I24 -->
<g id="edge29" class="edge">
<title>λ20&#45;&gt;I24</title>
<g id="a_edge29"><a xlink:title="ret168">
<path fill="none" stroke="red" d="M54,-359.7C54,-351.98 54,-342.71 54,-334.11"/>
<polygon fill="red" stroke="red" points="57.5,-334.1 54,-324.1 50.5,-334.1 57.5,-334.1"/>
</a>
</g>
</g>
<!-- !d21 -->
<g id="node22" class="node">
<title>!d21</title>
<ellipse fill="none" stroke="black" cx="327" cy="-234" rx="27" ry="18"/>
<text text-anchor="middle" x="327" y="-230.3" font-family="Times,serif" font-size="14.00">!d</text>
</g>
<!-- !d21&#45;&gt;λ19 -->
<g id="edge7" class="edge">
<title>!d21&#45;&gt;λ19</title>
<g id="a_edge7"><a xlink:title="i163">
<path fill="none" stroke="blue" d="M328.41,-262.4C328.82,-280.09 328.43,-303.55 325,-324 322.92,-336.39 318.57,-349.86 314.79,-360.12"/>
<polygon fill="blue" stroke="blue" points="331.9,-262.08 328.07,-252.2 324.9,-262.31 331.9,-262.08"/>
</a>
</g>
</g>
<!-- !d22 -->
<g id="node23" class="node">
<title>!d22</title>
<ellipse fill="none" stroke="black" cx="27" cy="-234" rx="27" ry="18"/>
<text text-anchor="middle" x="27" y="-230.3" font-family="Times,serif" font-size="14.00">!d</text>
</g>
<!-- !d22&#45;&gt;λ20 -->
<g id="edge8" class="edge">
<title>!d22&#45;&gt;λ20</title>
<g id="a_edge8"><a xlink:title="i167">
<path fill="none" stroke="blue" d="M18.93,-261.59C14.77,-279.57 11.74,-303.65 18,-324 22.38,-338.25 32.04,-352.1 40.25,-362.07"/>
<polygon fill="blue" stroke="blue" points="22.35,-262.35 21.45,-251.79 15.57,-260.6 22.35,-262.35"/>
</a>
</g>
</g>
<!-- I23&#45;&gt;!d21 -->
<g id="edge9" class="edge">
<title>I23&#45;&gt;!d21</title>
<g id="a_edge9"><a xlink:title="iret171">
<path fill="none" stroke="blue" d="M302.73,-279.7C307.9,-270.18 313.64,-259.61 318.23,-251.15"/>
<polygon fill="blue" stroke="blue" points="299.51,-278.31 297.81,-288.76 305.66,-281.65 299.51,-278.31"/>
</a>
</g>
</g>
<!-- I24&#45;&gt;!d22 -->
<g id="edge10" class="edge">
<title>I24&#45;&gt;!d22</title>
<g id="a_edge10"><a xlink:title="iret174">
<path fill="none" stroke="blue" d="M43.99,-279.06C40.5,-270.01 36.68,-260.09 33.54,-251.96"/>
<polygon fill="blue" stroke="blue" points="40.74,-280.34 47.6,-288.41 47.27,-277.82 40.74,-280.34"/>
</a>
</g>
</g>
<!-- I25&#45;&gt;@14 -->
<g id="edge11" class="edge">
<title>I25&#45;&gt;@14</title>
<g id="a_edge11"><a xlink:title="lret149">
<path fill="none" stroke="blue" d="M272.4,-566.01C274.13,-557.36 275.99,-548.03 277.54,-540.28"/>
<polygon fill="blue" stroke="blue" points="268.92,-565.56 270.39,-576.05 275.78,-566.94 268.92,-565.56"/>
</a>
</g>
</g>
<!-- I26&#45;&gt;@15 -->
<g id="edge12" class="edge">
<title>I26&#45;&gt;@15</title>
<g id="a_edge12"><a xlink:title="lret154">
<path fill="none" stroke="blue" d="M81.51,-566.29C79.39,-557.57 77.1,-548.12 75.2,-540.28"/>
<polygon fill="blue" stroke="blue" points="78.12,-567.16 83.88,-576.05 84.93,-565.51 78.12,-567.16"/>
</a>
</g>
</g>
<!-- DupI27 -->
<g id="node28" class="node">
<title>DupI27</title>
<ellipse fill="none" stroke="black" cx="606" cy="-822" rx="28.7" ry="18"/>
<text text-anchor="middle" x="606" y="-818.3" font-family="Times,serif" font-size="14.00">DupI</text>
</g>
</g>
</svg>
