<?xml version="1.0" encoding="UTF-8" standalone="no"?>
<!DOCTYPE svg PUBLIC "-//W3C//DTD SVG 1.1//EN"
 "http://www.w3.org/Graphics/SVG/1.1/DTD/svg11.dtd">
<!-- Generated by graphviz version 2.49.3 (0)
 -->
<!-- Pages: 1 -->
<svg width="653pt" height="783pt"
 viewBox="0.00 0.00 653.00 782.80" xmlns="http://www.w3.org/2000/svg" xmlns:xlink="http://www.w3.org/1999/xlink">
<g id="graph0" class="graph" transform="scale(1 1) rotate(0) translate(4 778.8)">
<polygon fill="white" stroke="transparent" points="-4,4 -4,-778.8 649,-778.8 649,4 -4,4"/>
<!-- I0 -->
<g id="node1" class="node">
<title>I0</title>
<ellipse fill="none" stroke="black" cx="82" cy="-756.8" rx="27" ry="18"/>
<text text-anchor="middle" x="82" y="-753.1" font-family="Times,serif" font-size="14.00">I</text>
</g>
<!-- !d1 -->
<g id="node2" class="node">
<title>!d1</title>
<ellipse fill="none" stroke="black" cx="27" cy="-684.8" rx="27" ry="18"/>
<text text-anchor="middle" x="27" y="-681.1" font-family="Times,serif" font-size="14.00">!d</text>
</g>
<!-- I0&#45;&gt;!d1 -->
<g id="edge7" class="edge">
<title>I0&#45;&gt;!d1</title>
<g id="a_edge7"><a xlink:title="iret84">
<path fill="none" stroke="blue" d="M63.83,-732.67C55.63,-722.24 46.19,-710.21 38.91,-700.96"/>
<polygon fill="blue" stroke="blue" points="61.14,-734.91 70.07,-740.61 66.64,-730.58 61.14,-734.91"/>
</a>
</g>
</g>
<!-- λ2 -->
<g id="node3" class="node">
<title>λ2</title>
<ellipse fill="none" stroke="black" cx="82" cy="-612.8" rx="27" ry="18"/>
<text text-anchor="middle" x="82" y="-609.1" font-family="Times,serif" font-size="14.00">λ</text>
</g>
<!-- !d1&#45;&gt;λ2 -->
<g id="edge6" class="edge">
<title>!d1&#45;&gt;λ2</title>
<g id="a_edge6"><a xlink:title="i81">
<path fill="none" stroke="blue" d="M45.17,-660.67C53.37,-650.24 62.81,-638.21 70.09,-628.96"/>
<polygon fill="blue" stroke="blue" points="42.36,-658.58 38.93,-668.61 47.86,-662.91 42.36,-658.58"/>
</a>
</g>
</g>
<!-- λ2&#45;&gt;I0 -->
<g id="edge28" class="edge">
<title>λ2&#45;&gt;I0</title>
<g id="a_edge28"><a xlink:title="ret82">
<path fill="none" stroke="red" d="M82,-630.99C82,-655.22 82,-699.68 82,-728.47"/>
<polygon fill="red" stroke="red" points="78.5,-728.67 82,-738.67 85.5,-728.67 78.5,-728.67"/>
</a>
</g>
</g>
<!-- !p3 -->
<g id="node4" class="node">
<title>!p3</title>
<ellipse fill="none" stroke="black" cx="137" cy="-684.8" rx="27" ry="18"/>
<text text-anchor="middle" x="137" y="-681.1" font-family="Times,serif" font-size="14.00">!p</text>
</g>
<!-- !p3&#45;&gt;λ2 -->
<g id="edge23" class="edge">
<title>!p3&#45;&gt;λ2</title>
<g id="a_edge23"><a xlink:title="newrretf78">
<path fill="none" stroke="red" d="M125.07,-668.61C117.79,-659.34 108.34,-647.32 100.15,-636.89"/>
<polygon fill="red" stroke="red" points="102.84,-634.66 93.91,-628.96 97.34,-638.98 102.84,-634.66"/>
</a>
</g>
</g>
<!-- I4 -->
<g id="node5" class="node">
<title>I4</title>
<ellipse fill="none" stroke="black" cx="247" cy="-18" rx="27" ry="18"/>
<text text-anchor="middle" x="247" y="-14.3" font-family="Times,serif" font-size="14.00">I</text>
</g>
<!-- @5 -->
<g id="node6" class="node">
<title>@5</title>
<ellipse fill="none" stroke="black" cx="173" cy="-756.8" rx="27" ry="18"/>
<text text-anchor="middle" x="173" y="-753.1" font-family="Times,serif" font-size="14.00">@</text>
</g>
<!-- I4&#45;&gt;@5 -->
<g id="edge10" class="edge">
<title>I4&#45;&gt;@5</title>
<g id="a_edge10"><a xlink:title="lret75">
<path fill="none" stroke="blue" d="M227.94,-42.44C221.66,-51.25 215.2,-61.64 211,-72 192.7,-117.08 192,-131.15 192,-179.8 192,-613.8 192,-613.8 192,-613.8 192,-659.31 182.29,-712.32 176.75,-738.84"/>
<polygon fill="blue" stroke="blue" points="230.9,-44.33 234.08,-34.23 225.29,-40.14 230.9,-44.33"/>
</a>
</g>
</g>
<!-- @5&#45;&gt;!p3 -->
<g id="edge17" class="edge">
<title>@5&#45;&gt;!p3</title>
<g id="a_edge17"><a xlink:title="newrret74">
<path fill="none" stroke="red" d="M164.65,-739.56C160.29,-731.08 154.85,-720.51 149.96,-710.99"/>
<polygon fill="red" stroke="red" points="152.99,-709.24 145.3,-701.94 146.77,-712.44 152.99,-709.24"/>
</a>
</g>
</g>
<!-- !d6 -->
<g id="node7" class="node">
<title>!d6</title>
<ellipse fill="none" stroke="black" cx="262" cy="-684.8" rx="27" ry="18"/>
<text text-anchor="middle" x="262" y="-681.1" font-family="Times,serif" font-size="14.00">!d</text>
</g>
<!-- @5&#45;&gt;!d6 -->
<g id="edge13" class="edge">
<title>@5&#45;&gt;!d6</title>
<g id="a_edge13"><a xlink:title="lval70">
<path fill="none" stroke="blue" d="M197.66,-736.4C212.74,-724.54 231.63,-709.68 245.03,-699.14"/>
<polygon fill="blue" stroke="blue" points="195.44,-733.7 189.74,-742.63 199.76,-739.2 195.44,-733.7"/>
</a>
</g>
</g>
<!-- Dup22 -->
<g id="node23" class="node">
<title>Dup22</title>
<ellipse fill="none" stroke="black" cx="276" cy="-612.8" rx="27" ry="18"/>
<text text-anchor="middle" x="276" y="-609.1" font-family="Times,serif" font-size="14.00">Dup</text>
</g>
<!-- !d6&#45;&gt;Dup22 -->
<g id="edge5" class="edge">
<title>!d6&#45;&gt;Dup22</title>
<g id="a_edge5"><a xlink:title="hf65">
<path fill="none" stroke="blue" d="M267.4,-656.8C269.13,-648.16 270.99,-638.83 272.54,-631.07"/>
<polygon fill="blue" stroke="blue" points="263.92,-656.36 265.39,-666.85 270.78,-657.73 263.92,-656.36"/>
</a>
</g>
</g>
<!-- I7 -->
<g id="node8" class="node">
<title>I7</title>
<ellipse fill="none" stroke="black" cx="403" cy="-99.4" rx="27" ry="18"/>
<text text-anchor="middle" x="403" y="-95.7" font-family="Times,serif" font-size="14.00">I</text>
</g>
<!-- !d8 -->
<g id="node9" class="node">
<title>!d8</title>
<ellipse fill="none" stroke="black" cx="430" cy="-18" rx="27" ry="18"/>
<text text-anchor="middle" x="430" y="-14.3" font-family="Times,serif" font-size="14.00">!d</text>
</g>
<!-- I7&#45;&gt;!d8 -->
<g id="edge31" class="edge">
<title>I7&#45;&gt;!d8</title>
<g id="a_edge31"><a xlink:title="yret60">
<path fill="none" stroke="blue" d="M411.96,-72.06C416.02,-60.11 420.7,-46.34 424.28,-35.81"/>
<polygon fill="blue" stroke="blue" points="408.63,-70.97 408.73,-81.56 415.26,-73.22 408.63,-70.97"/>
</a>
</g>
</g>
<!-- !p9 -->
<g id="node10" class="node">
<title>!p9</title>
<ellipse fill="none" stroke="black" cx="403" cy="-180.8" rx="27" ry="18"/>
<text text-anchor="middle" x="403" y="-177.1" font-family="Times,serif" font-size="14.00">!p</text>
</g>
<!-- !d8&#45;&gt;!p9 -->
<g id="edge30" class="edge">
<title>!d8&#45;&gt;!p9</title>
<g id="a_edge30"><a xlink:title="yBf56">
<path fill="none" stroke="blue" d="M437.68,-45.58C442.81,-67.77 447.24,-99.99 439,-126.8 434.62,-141.04 424.96,-154.9 416.75,-164.86"/>
<polygon fill="blue" stroke="blue" points="441.06,-44.7 435.24,-35.85 434.28,-46.4 441.06,-44.7"/>
</a>
</g>
</g>
<!-- !p9&#45;&gt;I7 -->
<g id="edge21" class="edge">
<title>!p9&#45;&gt;I7</title>
<g id="a_edge21"><a xlink:title="newrretf57">
<path fill="none" stroke="red" d="M403,-162.57C403,-152.37 403,-139.23 403,-127.65"/>
<polygon fill="red" stroke="red" points="406.5,-127.59 403,-117.59 399.5,-127.59 406.5,-127.59"/>
</a>
</g>
</g>
<!-- Cut24 -->
<g id="node25" class="node">
<title>Cut24</title>
<ellipse fill="none" stroke="black" cx="319" cy="-99.4" rx="23.31" ry="23.31"/>
<ellipse fill="none" stroke="black" cx="319" cy="-99.4" rx="27.3" ry="27.3"/>
<text text-anchor="middle" x="319" y="-95.7" font-family="Times,serif" font-size="14.00">Cut</text>
</g>
<!-- !p9&#45;&gt;Cut24 -->
<g id="edge29" class="edge">
<title>!p9&#45;&gt;Cut24</title>
<g id="a_edge29"><a xlink:title="yB44">
<path fill="none" stroke="blue" d="M380.71,-158.73C367.62,-146.36 351.23,-130.86 338.63,-118.95"/>
<polygon fill="blue" stroke="blue" points="378.31,-161.28 387.98,-165.6 383.12,-156.19 378.31,-161.28"/>
</a>
</g>
</g>
<!-- I10 -->
<g id="node11" class="node">
<title>I10</title>
<ellipse fill="none" stroke="black" cx="403" cy="-324.8" rx="27" ry="18"/>
<text text-anchor="middle" x="403" y="-321.1" font-family="Times,serif" font-size="14.00">I</text>
</g>
<!-- @11 -->
<g id="node12" class="node">
<title>@11</title>
<ellipse fill="none" stroke="black" cx="403" cy="-252.8" rx="27" ry="18"/>
<text text-anchor="middle" x="403" y="-249.1" font-family="Times,serif" font-size="14.00">@</text>
</g>
<!-- I10&#45;&gt;@11 -->
<g id="edge9" class="edge">
<title>I10&#45;&gt;@11</title>
<g id="a_edge9"><a xlink:title="lret53">
<path fill="none" stroke="blue" d="M403,-296.46C403,-287.85 403,-278.59 403,-270.9"/>
<polygon fill="blue" stroke="blue" points="399.5,-296.49 403,-306.49 406.5,-296.49 399.5,-296.49"/>
</a>
</g>
</g>
<!-- @11&#45;&gt;!p9 -->
<g id="edge16" class="edge">
<title>@11&#45;&gt;!p9</title>
<g id="a_edge16"><a xlink:title="newrret52">
<path fill="none" stroke="red" d="M403,-234.49C403,-226.78 403,-217.51 403,-208.91"/>
<polygon fill="red" stroke="red" points="406.5,-208.9 403,-198.9 399.5,-208.9 406.5,-208.9"/>
</a>
</g>
</g>
<!-- Cut26 -->
<g id="node27" class="node">
<title>Cut26</title>
<ellipse fill="none" stroke="black" cx="331" cy="-180.8" rx="27" ry="18"/>
<text text-anchor="middle" x="331" y="-177.1" font-family="Times,serif" font-size="14.00">Cut</text>
</g>
<!-- @11&#45;&gt;Cut26 -->
<g id="edge12" class="edge">
<title>@11&#45;&gt;Cut26</title>
<g id="a_edge12"><a xlink:title="lval48">
<path fill="none" stroke="blue" d="M380.96,-230.36C369.55,-219.27 355.93,-206.03 345.8,-196.18"/>
<polygon fill="blue" stroke="blue" points="378.82,-233.17 388.43,-237.63 383.7,-228.15 378.82,-233.17"/>
</a>
</g>
</g>
<!-- λ12 -->
<g id="node13" class="node">
<title>λ12</title>
<ellipse fill="none" stroke="black" cx="403" cy="-396.8" rx="27" ry="18"/>
<text text-anchor="middle" x="403" y="-393.1" font-family="Times,serif" font-size="14.00">λ</text>
</g>
<!-- λ12&#45;&gt;I10 -->
<g id="edge26" class="edge">
<title>λ12&#45;&gt;I10</title>
<g id="a_edge26"><a xlink:title="ret42">
<path fill="none" stroke="red" d="M403,-378.49C403,-370.78 403,-361.51 403,-352.91"/>
<polygon fill="red" stroke="red" points="406.5,-352.9 403,-342.9 399.5,-352.9 406.5,-352.9"/>
</a>
</g>
</g>
<!-- I13 -->
<g id="node14" class="node">
<title>I13</title>
<ellipse fill="none" stroke="black" cx="466" cy="-684.8" rx="27" ry="18"/>
<text text-anchor="middle" x="466" y="-681.1" font-family="Times,serif" font-size="14.00">I</text>
</g>
<!-- @14 -->
<g id="node15" class="node">
<title>@14</title>
<ellipse fill="none" stroke="black" cx="466" cy="-612.8" rx="27" ry="18"/>
<text text-anchor="middle" x="466" y="-609.1" font-family="Times,serif" font-size="14.00">@</text>
</g>
<!-- I13&#45;&gt;@14 -->
<g id="edge8" class="edge">
<title>I13&#45;&gt;@14</title>
<g id="a_edge8"><a xlink:title="lret19">
<path fill="none" stroke="blue" d="M466,-656.46C466,-647.85 466,-638.59 466,-630.9"/>
<polygon fill="blue" stroke="blue" points="462.5,-656.49 466,-666.49 469.5,-656.49 462.5,-656.49"/>
</a>
</g>
</g>
<!-- Cut18 -->
<g id="node19" class="node">
<title>Cut18</title>
<ellipse fill="none" stroke="black" cx="394" cy="-540.8" rx="27" ry="18"/>
<text text-anchor="middle" x="394" y="-537.1" font-family="Times,serif" font-size="14.00">Cut</text>
</g>
<!-- @14&#45;&gt;Cut18 -->
<g id="edge11" class="edge">
<title>@14&#45;&gt;Cut18</title>
<g id="a_edge11"><a xlink:title="lval14">
<path fill="none" stroke="blue" d="M443.96,-590.36C432.55,-579.27 418.93,-566.03 408.8,-556.18"/>
<polygon fill="blue" stroke="blue" points="441.82,-593.17 451.43,-597.63 446.7,-588.15 441.82,-593.17"/>
</a>
</g>
</g>
<!-- !p19 -->
<g id="node20" class="node">
<title>!p19</title>
<ellipse fill="none" stroke="black" cx="466" cy="-540.8" rx="27" ry="18"/>
<text text-anchor="middle" x="466" y="-537.1" font-family="Times,serif" font-size="14.00">!p</text>
</g>
<!-- @14&#45;&gt;!p19 -->
<g id="edge15" class="edge">
<title>@14&#45;&gt;!p19</title>
<g id="a_edge15"><a xlink:title="newrret18">
<path fill="none" stroke="red" d="M466,-594.49C466,-586.78 466,-577.51 466,-568.91"/>
<polygon fill="red" stroke="red" points="469.5,-568.9 466,-558.9 462.5,-568.9 469.5,-568.9"/>
</a>
</g>
</g>
<!-- Assign15 -->
<g id="node16" class="node">
<title>Assign15</title>
<ellipse fill="none" stroke="black" cx="466" cy="-756.8" rx="35.19" ry="18"/>
<text text-anchor="middle" x="466" y="-753.1" font-family="Times,serif" font-size="14.00">Assign</text>
</g>
<!-- Assign15&#45;&gt;I13 -->
<g id="edge27" class="edge">
<title>Assign15&#45;&gt;I13</title>
<g id="a_edge27"><a xlink:title="ret8">
<path fill="none" stroke="red" d="M466,-738.49C466,-730.78 466,-721.51 466,-712.91"/>
<polygon fill="red" stroke="red" points="469.5,-712.9 466,-702.9 462.5,-712.9 469.5,-712.9"/>
</a>
</g>
</g>
<!-- Dup16 -->
<g id="node17" class="node">
<title>Dup16</title>
<ellipse fill="none" stroke="black" cx="546" cy="-756.8" rx="27" ry="18"/>
<text text-anchor="middle" x="546" y="-753.1" font-family="Times,serif" font-size="14.00">Dup</text>
</g>
<!-- Dup17 -->
<g id="node18" class="node">
<title>Dup17</title>
<ellipse fill="none" stroke="black" cx="403" cy="-468.8" rx="27" ry="18"/>
<text text-anchor="middle" x="403" y="-465.1" font-family="Times,serif" font-size="14.00">Dup</text>
</g>
<!-- Dup17&#45;&gt;λ12 -->
<g id="edge20" class="edge">
<title>Dup17&#45;&gt;λ12</title>
<g id="a_edge20"><a xlink:title="newrretf31">
<path fill="none" stroke="red" d="M403,-450.49C403,-442.78 403,-433.51 403,-424.91"/>
<polygon fill="red" stroke="red" points="406.5,-424.9 403,-414.9 399.5,-424.9 406.5,-424.9"/>
</a>
</g>
</g>
<!-- Cut18&#45;&gt;Dup17 -->
<g id="edge24" class="edge">
<title>Cut18&#45;&gt;Dup17</title>
<g id="a_edge24"><a xlink:title="newrretf87">
<path fill="none" stroke="red" d="M396.18,-522.85C397.17,-515.14 398.37,-505.82 399.48,-497.16"/>
<polygon fill="red" stroke="red" points="402.98,-497.44 400.78,-487.07 396.03,-496.54 402.98,-497.44"/>
</a>
</g>
</g>
<!-- !p19&#45;&gt;Dup17 -->
<g id="edge25" class="edge">
<title>!p19&#45;&gt;Dup17</title>
<g id="a_edge25"><a xlink:title="newrretf91">
<path fill="none" stroke="red" d="M452.64,-524.95C444.12,-515.48 432.91,-503.03 423.31,-492.36"/>
<polygon fill="none" stroke="red" points="425.63,-489.71 416.34,-484.62 420.43,-494.39 425.63,-489.71"/>
</a>
</g>
</g>
<!-- Dup20 -->
<g id="node21" class="node">
<title>Dup20</title>
<ellipse fill="none" stroke="black" cx="618" cy="-756.8" rx="27" ry="18"/>
<text text-anchor="middle" x="618" y="-753.1" font-family="Times,serif" font-size="14.00">Dup</text>
</g>
<!-- Dup21 -->
<g id="node22" class="node">
<title>Dup21</title>
<ellipse fill="none" stroke="black" cx="247" cy="-99.4" rx="27" ry="18"/>
<text text-anchor="middle" x="247" y="-95.7" font-family="Times,serif" font-size="14.00">Dup</text>
</g>
<!-- Dup21&#45;&gt;I4 -->
<g id="edge22" class="edge">
<title>Dup21&#45;&gt;I4</title>
<g id="a_edge22"><a xlink:title="newrretf66">
<path fill="none" stroke="red" d="M247,-81.17C247,-70.97 247,-57.83 247,-46.25"/>
<polygon fill="red" stroke="red" points="250.5,-46.19 247,-36.19 243.5,-46.19 250.5,-46.19"/>
</a>
</g>
</g>
<!-- !p23 -->
<g id="node24" class="node">
<title>!p23</title>
<ellipse fill="none" stroke="black" cx="276" cy="-540.8" rx="27" ry="18"/>
<text text-anchor="middle" x="276" y="-537.1" font-family="Times,serif" font-size="14.00">!p</text>
</g>
<!-- Dup22&#45;&gt;!p23 -->
<g id="edge4" class="edge">
<title>Dup22&#45;&gt;!p23</title>
<g id="a_edge4"><a xlink:title="hf113">
<path fill="none" stroke="blue" d="M276,-584.46C276,-575.85 276,-566.59 276,-558.9"/>
<polygon fill="none" stroke="blue" points="272.5,-584.49 276,-594.49 279.5,-584.49 272.5,-584.49"/>
</a>
</g>
</g>
<!-- !c25 -->
<g id="node26" class="node">
<title>!c25</title>
<ellipse fill="none" stroke="black" cx="331" cy="-468.8" rx="27" ry="18"/>
<text text-anchor="middle" x="331" y="-465.1" font-family="Times,serif" font-size="14.00">!c</text>
</g>
<!-- Dup22&#45;&gt;!c25 -->
<g id="edge3" class="edge">
<title>Dup22&#45;&gt;!c25</title>
<g id="a_edge3"><a xlink:title="hf107">
<path fill="none" stroke="blue" d="M294.85,-588.27C301.12,-579.45 307.61,-569.08 312,-558.8 322.17,-534.97 327.11,-505.14 329.34,-486.78"/>
<polygon fill="blue" stroke="blue" points="291.89,-586.38 288.75,-596.5 297.52,-590.55 291.89,-586.38"/>
</a>
</g>
</g>
<!-- !p23&#45;&gt;Dup21 -->
<g id="edge19" class="edge">
<title>!p23&#45;&gt;Dup21</title>
<g id="a_edge19"><a xlink:title="newrretf114">
<path fill="none" stroke="red" d="M268.49,-523.13C257.42,-496.99 238,-444.5 238,-397.8 238,-397.8 238,-397.8 238,-251.8 238,-208.41 241.73,-158.16 244.39,-127.85"/>
<polygon fill="none" stroke="red" points="247.89,-127.91 245.31,-117.63 240.92,-127.28 247.89,-127.91"/>
</a>
</g>
</g>
<!-- !p23&#45;&gt;!c25 -->
<g id="edge1" class="edge">
<title>!p23&#45;&gt;!c25</title>
<g id="a_edge1"><a xlink:title="h116">
<path fill="none" stroke="blue" d="M294.17,-516.67C300.19,-509.01 306.88,-500.49 312.9,-492.84"/>
<polygon fill="blue" stroke="blue" points="291.36,-514.58 287.93,-524.61 296.86,-518.91 291.36,-514.58"/>
<polygon fill="blue" stroke="blue" points="321.84,-487.12 312.91,-492.82 316.34,-482.79 321.84,-487.12"/>
</a>
</g>
</g>
<!-- Cut24&#45;&gt;!p23 -->
<g id="edge14" class="edge">
<title>Cut24&#45;&gt;!p23</title>
<g id="a_edge14"><a xlink:title="newrret117">
<path fill="none" stroke="red" stroke-width="2" d="M307.7,-124.45C294.96,-153.82 276,-205.35 276,-251.8 276,-397.8 276,-397.8 276,-397.8 276,-437.8 276,-484.14 276,-512.72"/>
<polygon fill="red" stroke="red" stroke-width="2" points="272.5,-512.75 276,-522.75 279.5,-512.75 272.5,-512.75"/>
</a>
</g>
</g>
<!-- !c25&#45;&gt;λ12 -->
<g id="edge2" class="edge">
<title>!c25&#45;&gt;λ12</title>
<g id="a_edge2"><a xlink:title="h34">
<path fill="none" stroke="blue" d="M353.04,-446.36C364.45,-435.27 378.07,-422.03 388.2,-412.18"/>
<polygon fill="blue" stroke="blue" points="350.3,-444.15 345.57,-453.63 355.18,-449.17 350.3,-444.15"/>
</a>
</g>
</g>
<!-- Cut26&#45;&gt;Dup21 -->
<g id="edge18" class="edge">
<title>Cut26&#45;&gt;Dup21</title>
<g id="a_edge18"><a xlink:title="newrretf108">
<path fill="none" stroke="red" d="M315.98,-165.6C302.96,-153.29 283.94,-135.32 269.17,-121.35"/>
<polygon fill="red" stroke="red" points="271.56,-118.8 261.89,-114.47 266.75,-123.88 271.56,-118.8"/>
</a>
</g>
</g>
</g>
</svg>
