<?xml version="1.0" encoding="UTF-8" standalone="no"?>
<!DOCTYPE svg PUBLIC "-//W3C//DTD SVG 1.1//EN"
 "http://www.w3.org/Graphics/SVG/1.1/DTD/svg11.dtd">
<!-- Generated by graphviz version 2.49.3 (0)
 -->
<!-- Pages: 1 -->
<svg width="748pt" height="1220pt"
 viewBox="0.00 0.00 747.60 1220.00" xmlns="http://www.w3.org/2000/svg" xmlns:xlink="http://www.w3.org/1999/xlink">
<g id="graph0" class="graph" transform="scale(1 1) rotate(0) translate(4 1216)">
<polygon fill="white" stroke="transparent" points="-4,4 -4,-1216 743.6,-1216 743.6,4 -4,4"/>
<!-- I0 -->
<g id="node1" class="node">
<title>I0</title>
<ellipse fill="none" stroke="black" cx="27" cy="-810" rx="27" ry="18"/>
<text text-anchor="middle" x="27" y="-806.3" font-family="Times,serif" font-size="14.00">I</text>
</g>
<!-- Dup30 -->
<g id="node31" class="node">
<title>Dup30</title>
<ellipse fill="none" stroke="black" cx="82" cy="-738" rx="27" ry="18"/>
<text text-anchor="middle" x="82" y="-734.3" font-family="Times,serif" font-size="14.00">Dup</text>
</g>
<!-- I0&#45;&gt;Dup30 -->
<g id="edge11" class="edge">
<title>I0&#45;&gt;Dup30</title>
<g id="a_edge11"><a xlink:title="iret84">
<path fill="none" stroke="blue" d="M45.17,-785.87C53.37,-775.44 62.81,-763.42 70.09,-754.16"/>
<polygon fill="blue" stroke="blue" points="42.36,-783.79 38.93,-793.81 47.86,-788.11 42.36,-783.79"/>
</a>
</g>
</g>
<!-- I1 -->
<g id="node2" class="node">
<title>I1</title>
<ellipse fill="none" stroke="black" cx="374" cy="-882" rx="27" ry="18"/>
<text text-anchor="middle" x="374" y="-878.3" font-family="Times,serif" font-size="14.00">I</text>
</g>
<!-- Dup20 -->
<g id="node21" class="node">
<title>Dup20</title>
<ellipse fill="none" stroke="black" cx="374" cy="-810" rx="27" ry="18"/>
<text text-anchor="middle" x="374" y="-806.3" font-family="Times,serif" font-size="14.00">Dup</text>
</g>
<!-- I1&#45;&gt;Dup20 -->
<g id="edge15" class="edge">
<title>I1&#45;&gt;Dup20</title>
<g id="a_edge15"><a xlink:title="lret75">
<path fill="none" stroke="blue" d="M374,-853.67C374,-845.05 374,-835.79 374,-828.1"/>
<polygon fill="blue" stroke="blue" points="370.5,-853.7 374,-863.7 377.5,-853.7 370.5,-853.7"/>
</a>
</g>
</g>
<!-- I2 -->
<g id="node3" class="node">
<title>I2</title>
<ellipse fill="none" stroke="black" cx="541" cy="-162" rx="27" ry="18"/>
<text text-anchor="middle" x="541" y="-158.3" font-family="Times,serif" font-size="14.00">I</text>
</g>
<!-- @3 -->
<g id="node4" class="node">
<title>@3</title>
<ellipse fill="none" stroke="black" cx="467" cy="-90" rx="27" ry="18"/>
<text text-anchor="middle" x="467" y="-86.3" font-family="Times,serif" font-size="14.00">@</text>
</g>
<!-- I2&#45;&gt;@3 -->
<g id="edge14" class="edge">
<title>I2&#45;&gt;@3</title>
<g id="a_edge14"><a xlink:title="lret53">
<path fill="none" stroke="blue" d="M518.63,-139.84C506.75,-128.6 492.48,-115.1 481.95,-105.14"/>
<polygon fill="blue" stroke="blue" points="516.36,-142.51 526.02,-146.83 521.17,-137.42 516.36,-142.51"/>
</a>
</g>
</g>
<!-- Cut8 -->
<g id="node9" class="node">
<title>Cut8</title>
<ellipse fill="none" stroke="black" cx="319" cy="-18" rx="27" ry="18"/>
<text text-anchor="middle" x="319" y="-14.3" font-family="Times,serif" font-size="14.00">Cut</text>
</g>
<!-- @3&#45;&gt;Cut8 -->
<g id="edge18" class="edge">
<title>@3&#45;&gt;Cut8</title>
<g id="a_edge18"><a xlink:title="lval48">
<path fill="none" stroke="blue" d="M436.33,-74.49C407.72,-60.96 365.77,-41.12 340.55,-29.19"/>
<polygon fill="blue" stroke="blue" points="434.94,-77.71 445.48,-78.82 437.94,-71.38 434.94,-77.71"/>
</a>
</g>
</g>
<!-- !p9 -->
<g id="node10" class="node">
<title>!p9</title>
<ellipse fill="none" stroke="black" cx="467" cy="-1026" rx="27" ry="18"/>
<text text-anchor="middle" x="467" y="-1022.3" font-family="Times,serif" font-size="14.00">!p</text>
</g>
<!-- @3&#45;&gt;!p9 -->
<g id="edge22" class="edge">
<title>@3&#45;&gt;!p9</title>
<g id="a_edge22"><a xlink:title="newrret52">
<path fill="none" stroke="red" d="M467,-108.05C467,-134.71 467,-187.89 467,-233 467,-883 467,-883 467,-883 467,-923 467,-969.35 467,-997.92"/>
<polygon fill="red" stroke="red" points="463.5,-997.95 467,-1007.95 470.5,-997.95 463.5,-997.95"/>
</a>
</g>
</g>
<!-- Assign4 -->
<g id="node5" class="node">
<title>Assign4</title>
<ellipse fill="none" stroke="black" cx="621" cy="-306" rx="35.19" ry="18"/>
<text text-anchor="middle" x="621" y="-302.3" font-family="Times,serif" font-size="14.00">Assign</text>
</g>
<!-- Dup13 -->
<g id="node14" class="node">
<title>Dup13</title>
<ellipse fill="none" stroke="black" cx="541" cy="-234" rx="27" ry="18"/>
<text text-anchor="middle" x="541" y="-230.3" font-family="Times,serif" font-size="14.00">Dup</text>
</g>
<!-- Assign4&#45;&gt;Dup13 -->
<g id="edge29" class="edge">
<title>Assign4&#45;&gt;Dup13</title>
<g id="a_edge29"><a xlink:title="ret133">
<path fill="none" stroke="red" d="M604.03,-290.15C592.6,-280.15 577.35,-266.8 564.71,-255.75"/>
<polygon fill="red" stroke="red" points="566.68,-252.82 556.85,-248.87 562.07,-258.09 566.68,-252.82"/>
</a>
</g>
</g>
<!-- !p5 -->
<g id="node6" class="node">
<title>!p5</title>
<ellipse fill="none" stroke="black" cx="560" cy="-378" rx="27" ry="18"/>
<text text-anchor="middle" x="560" y="-374.3" font-family="Times,serif" font-size="14.00">!p</text>
</g>
<!-- λ10 -->
<g id="node11" class="node">
<title>λ10</title>
<ellipse fill="none" stroke="black" cx="541" cy="-306" rx="27" ry="18"/>
<text text-anchor="middle" x="541" y="-302.3" font-family="Times,serif" font-size="14.00">λ</text>
</g>
<!-- !p5&#45;&gt;λ10 -->
<g id="edge28" class="edge">
<title>!p5&#45;&gt;λ10</title>
<g id="a_edge28"><a xlink:title="newrretf91">
<path fill="none" stroke="red" d="M555.4,-360.05C553.25,-352.14 550.65,-342.54 548.24,-333.69"/>
<polygon fill="red" stroke="red" points="551.55,-332.52 545.56,-323.79 544.8,-334.36 551.55,-332.52"/>
</a>
</g>
</g>
<!-- Dup6 -->
<g id="node7" class="node">
<title>Dup6</title>
<ellipse fill="none" stroke="black" cx="374" cy="-954" rx="27" ry="18"/>
<text text-anchor="middle" x="374" y="-950.3" font-family="Times,serif" font-size="14.00">Dup</text>
</g>
<!-- Dup6&#45;&gt;I1 -->
<g id="edge27" class="edge">
<title>Dup6&#45;&gt;I1</title>
<g id="a_edge27"><a xlink:title="newrretf66">
<path fill="none" stroke="red" d="M374,-935.7C374,-927.98 374,-918.71 374,-910.11"/>
<polygon fill="red" stroke="red" points="377.5,-910.1 374,-900.1 370.5,-910.1 377.5,-910.1"/>
</a>
</g>
</g>
<!-- !c7 -->
<g id="node8" class="node">
<title>!c7</title>
<ellipse fill="none" stroke="black" cx="541" cy="-594" rx="27" ry="18"/>
<text text-anchor="middle" x="541" y="-590.3" font-family="Times,serif" font-size="14.00">!c</text>
</g>
<!-- Dup12 -->
<g id="node13" class="node">
<title>Dup12</title>
<ellipse fill="none" stroke="black" cx="541" cy="-522" rx="27" ry="18"/>
<text text-anchor="middle" x="541" y="-518.3" font-family="Times,serif" font-size="14.00">Dup</text>
</g>
<!-- !c7&#45;&gt;Dup12 -->
<g id="edge4" class="edge">
<title>!c7&#45;&gt;Dup12</title>
<g id="a_edge4"><a xlink:title="h34">
<path fill="none" stroke="blue" d="M541,-565.67C541,-557.05 541,-547.79 541,-540.1"/>
<polygon fill="blue" stroke="blue" points="537.5,-565.7 541,-575.7 544.5,-565.7 537.5,-565.7"/>
</a>
</g>
</g>
<!-- Cut8&#45;&gt;Dup6 -->
<g id="edge23" class="edge">
<title>Cut8&#45;&gt;Dup6</title>
<g id="a_edge23"><a xlink:title="newrretf108">
<path fill="none" stroke="red" d="M319,-36.05C319,-62.71 319,-115.89 319,-161 319,-811 319,-811 319,-811 319,-851.45 322.12,-862.8 338,-900 342.39,-910.28 348.88,-920.66 355.15,-929.47"/>
<polygon fill="red" stroke="red" points="352.48,-931.76 361.25,-937.7 358.11,-927.59 352.48,-931.76"/>
</a>
</g>
</g>
<!-- !p9&#45;&gt;Dup6 -->
<g id="edge24" class="edge">
<title>!p9&#45;&gt;Dup6</title>
<g id="a_edge24"><a xlink:title="newrretf114">
<path fill="none" stroke="red" d="M449.51,-1011.83C435.48,-1001.27 415.58,-986.3 399.74,-974.37"/>
<polygon fill="none" stroke="red" points="401.51,-971.32 391.41,-968.11 397.3,-976.92 401.51,-971.32"/>
</a>
</g>
</g>
<!-- !p9&#45;&gt;!c7 -->
<g id="edge1" class="edge">
<title>!p9&#45;&gt;!c7</title>
<g id="a_edge1"><a xlink:title="h116">
<path fill="none" stroke="blue" d="M494.43,-1006.74C527.01,-982.61 577,-936.82 577,-883 577,-883 577,-883 577,-737 577,-695.55 562.41,-649.32 551.8,-621.2"/>
<polygon fill="blue" stroke="blue" points="492.24,-1004 486.16,-1012.67 496.32,-1009.68 492.24,-1004"/>
<polygon fill="blue" stroke="blue" points="551.37,-610.43 551.74,-621.02 544.85,-612.97 551.37,-610.43"/>
</a>
</g>
</g>
<!-- λ10&#45;&gt;Dup13 -->
<g id="edge30" class="edge">
<title>λ10&#45;&gt;Dup13</title>
<g id="a_edge30"><a xlink:title="ret137">
<path fill="none" stroke="red" d="M541,-287.7C541,-279.98 541,-270.71 541,-262.11"/>
<polygon fill="none" stroke="red" points="544.5,-262.1 541,-252.1 537.5,-262.1 544.5,-262.1"/>
</a>
</g>
</g>
<!-- Dup11 -->
<g id="node12" class="node">
<title>Dup11</title>
<ellipse fill="none" stroke="black" cx="415" cy="-1182" rx="27" ry="18"/>
<text text-anchor="middle" x="415" y="-1178.3" font-family="Times,serif" font-size="14.00">Dup</text>
</g>
<!-- Dup12&#45;&gt;λ10 -->
<g id="edge3" class="edge">
<title>Dup12&#45;&gt;λ10</title>
<g id="a_edge3"><a xlink:title="h136">
<path fill="none" stroke="blue" d="M530.74,-494.54C527.98,-486.18 525.38,-476.82 524,-468 516.58,-420.58 516.58,-407.42 524,-360 525.94,-347.59 530.3,-334.12 534.11,-323.86"/>
<polygon fill="none" stroke="blue" points="527.49,-495.87 534.11,-504.14 534.1,-493.55 527.49,-495.87"/>
</a>
</g>
</g>
<!-- Cut14 -->
<g id="node15" class="node">
<title>Cut14</title>
<ellipse fill="none" stroke="black" cx="560" cy="-450" rx="27" ry="18"/>
<text text-anchor="middle" x="560" y="-446.3" font-family="Times,serif" font-size="14.00">Cut</text>
</g>
<!-- Dup12&#45;&gt;Cut14 -->
<g id="edge2" class="edge">
<title>Dup12&#45;&gt;Cut14</title>
<g id="a_edge2"><a xlink:title="h132">
<path fill="none" stroke="blue" d="M548.29,-494.14C550.7,-485.28 553.3,-475.68 555.44,-467.79"/>
<polygon fill="blue" stroke="blue" points="544.84,-493.49 545.6,-504.05 551.6,-495.32 544.84,-493.49"/>
</a>
</g>
</g>
<!-- Dup13&#45;&gt;I2 -->
<g id="edge33" class="edge">
<title>Dup13&#45;&gt;I2</title>
<g id="a_edge33"><a xlink:title="ret42">
<path fill="none" stroke="red" d="M541,-215.7C541,-207.98 541,-198.71 541,-190.11"/>
<polygon fill="red" stroke="red" points="544.5,-190.1 541,-180.1 537.5,-190.1 544.5,-190.1"/>
</a>
</g>
</g>
<!-- Cut14&#45;&gt;!p5 -->
<g id="edge21" class="edge">
<title>Cut14&#45;&gt;!p5</title>
<g id="a_edge21"><a xlink:title="newrret18">
<path fill="none" stroke="red" d="M560,-431.7C560,-423.98 560,-414.71 560,-406.11"/>
<polygon fill="red" stroke="red" points="563.5,-406.1 560,-396.1 556.5,-406.1 563.5,-406.1"/>
</a>
</g>
</g>
<!-- !d15 -->
<g id="node16" class="node">
<title>!d15</title>
<ellipse fill="none" stroke="black" cx="522" cy="-666" rx="27" ry="18"/>
<text text-anchor="middle" x="522" y="-662.3" font-family="Times,serif" font-size="14.00">!d</text>
</g>
<!-- !d15&#45;&gt;!c7 -->
<g id="edge5" class="edge">
<title>!d15&#45;&gt;!c7</title>
<g id="a_edge5"><a xlink:title="hf107">
<path fill="none" stroke="blue" d="M529.29,-638.14C531.7,-629.28 534.3,-619.68 536.44,-611.79"/>
<polygon fill="blue" stroke="blue" points="525.84,-637.49 526.6,-648.05 532.6,-639.32 525.84,-637.49"/>
</a>
</g>
</g>
<!-- !d16 -->
<g id="node17" class="node">
<title>!d16</title>
<ellipse fill="none" stroke="black" cx="467" cy="-1098" rx="27" ry="18"/>
<text text-anchor="middle" x="467" y="-1094.3" font-family="Times,serif" font-size="14.00">!d</text>
</g>
<!-- !d16&#45;&gt;!p9 -->
<g id="edge6" class="edge">
<title>!d16&#45;&gt;!p9</title>
<g id="a_edge6"><a xlink:title="hf113">
<path fill="none" stroke="blue" d="M467,-1069.67C467,-1061.05 467,-1051.79 467,-1044.1"/>
<polygon fill="blue" stroke="blue" points="463.5,-1069.7 467,-1079.7 470.5,-1069.7 463.5,-1069.7"/>
</a>
</g>
</g>
<!-- @17 -->
<g id="node18" class="node">
<title>@17</title>
<ellipse fill="none" stroke="black" cx="374" cy="-738" rx="27" ry="18"/>
<text text-anchor="middle" x="374" y="-734.3" font-family="Times,serif" font-size="14.00">@</text>
</g>
<!-- @17&#45;&gt;!d15 -->
<g id="edge16" class="edge">
<title>@17&#45;&gt;!d15</title>
<g id="a_edge16"><a xlink:title="lval141">
<path fill="none" stroke="blue" d="M404.67,-722.49C433.28,-708.96 475.23,-689.12 500.45,-677.19"/>
<polygon fill="blue" stroke="blue" points="403.06,-719.38 395.52,-726.82 406.06,-725.71 403.06,-719.38"/>
</a>
</g>
</g>
<!-- !p21 -->
<g id="node22" class="node">
<title>!p21</title>
<ellipse fill="none" stroke="black" cx="264" cy="-666" rx="27" ry="18"/>
<text text-anchor="middle" x="264" y="-662.3" font-family="Times,serif" font-size="14.00">!p</text>
</g>
<!-- @17&#45;&gt;!p21 -->
<g id="edge19" class="edge">
<title>@17&#45;&gt;!p21</title>
<g id="a_edge19"><a xlink:title="newrret147">
<path fill="none" stroke="red" d="M354.84,-724.81C337.33,-713.67 311.24,-697.06 291.51,-684.5"/>
<polygon fill="red" stroke="red" points="293.26,-681.47 282.94,-679.05 289.5,-687.37 293.26,-681.47"/>
</a>
</g>
</g>
<!-- @18 -->
<g id="node19" class="node">
<title>@18</title>
<ellipse fill="none" stroke="black" cx="343" cy="-1182" rx="27" ry="18"/>
<text text-anchor="middle" x="343" y="-1178.3" font-family="Times,serif" font-size="14.00">@</text>
</g>
<!-- @18&#45;&gt;!d16 -->
<g id="edge17" class="edge">
<title>@18&#45;&gt;!d16</title>
<g id="a_edge17"><a xlink:title="lval144">
<path fill="none" stroke="blue" d="M366.94,-1160.97C370.9,-1157.87 375.02,-1154.78 379,-1152 401.36,-1136.37 428.43,-1120.49 446.59,-1110.24"/>
<polygon fill="blue" stroke="blue" points="364.74,-1158.25 359.13,-1167.23 369.12,-1163.71 364.74,-1158.25"/>
</a>
</g>
</g>
<!-- !p22 -->
<g id="node23" class="node">
<title>!p22</title>
<ellipse fill="none" stroke="black" cx="206" cy="-1098" rx="27" ry="18"/>
<text text-anchor="middle" x="206" y="-1094.3" font-family="Times,serif" font-size="14.00">!p</text>
</g>
<!-- @18&#45;&gt;!p22 -->
<g id="edge20" class="edge">
<title>@18&#45;&gt;!p22</title>
<g id="a_edge20"><a xlink:title="newrret152">
<path fill="none" stroke="red" d="M323.66,-1169.42C300.44,-1155.52 261.28,-1132.08 234.57,-1116.1"/>
<polygon fill="red" stroke="red" points="236.06,-1112.91 225.68,-1110.78 232.47,-1118.92 236.06,-1112.91"/>
</a>
</g>
</g>
<!-- Dup19 -->
<g id="node20" class="node">
<title>Dup19</title>
<ellipse fill="none" stroke="black" cx="487" cy="-1182" rx="27" ry="18"/>
<text text-anchor="middle" x="487" y="-1178.3" font-family="Times,serif" font-size="14.00">Dup</text>
</g>
<!-- Dup20&#45;&gt;@17 -->
<g id="edge12" class="edge">
<title>Dup20&#45;&gt;@17</title>
<g id="a_edge12"><a xlink:title="lret149">
<path fill="none" stroke="blue" d="M374,-781.67C374,-773.05 374,-763.79 374,-756.1"/>
<polygon fill="blue" stroke="blue" points="370.5,-781.7 374,-791.7 377.5,-781.7 370.5,-781.7"/>
</a>
</g>
</g>
<!-- Dup20&#45;&gt;@18 -->
<g id="edge13" class="edge">
<title>Dup20&#45;&gt;@18</title>
<g id="a_edge13"><a xlink:title="lret154">
<path fill="none" stroke="blue" d="M394.07,-834.08C400.46,-842.85 406.71,-853.31 410,-864 424.11,-909.88 417.42,-924.58 410,-972 398.4,-1046.16 364.98,-1129.95 350.19,-1164.63"/>
<polygon fill="none" stroke="blue" points="396.65,-831.69 387.75,-825.93 391.12,-835.98 396.65,-831.69"/>
</a>
</g>
</g>
<!-- λ23 -->
<g id="node24" class="node">
<title>λ23</title>
<ellipse fill="none" stroke="black" cx="201" cy="-594" rx="27" ry="18"/>
<text text-anchor="middle" x="201" y="-590.3" font-family="Times,serif" font-size="14.00">λ</text>
</g>
<!-- !p21&#45;&gt;λ23 -->
<g id="edge25" class="edge">
<title>!p21&#45;&gt;λ23</title>
<g id="a_edge25"><a xlink:title="newrretf157">
<path fill="none" stroke="red" d="M250.64,-650.15C242.12,-640.69 230.91,-628.24 221.31,-617.56"/>
<polygon fill="red" stroke="red" points="223.63,-614.92 214.34,-609.82 218.43,-619.6 223.63,-614.92"/>
</a>
</g>
</g>
<!-- λ24 -->
<g id="node25" class="node">
<title>λ24</title>
<ellipse fill="none" stroke="black" cx="129" cy="-594" rx="27" ry="18"/>
<text text-anchor="middle" x="129" y="-590.3" font-family="Times,serif" font-size="14.00">λ</text>
</g>
<!-- !p22&#45;&gt;λ24 -->
<g id="edge26" class="edge">
<title>!p22&#45;&gt;λ24</title>
<g id="a_edge26"><a xlink:title="newrretf160">
<path fill="none" stroke="red" d="M193.02,-1081.99C173.03,-1057.28 137,-1005.71 137,-955 137,-955 137,-955 137,-737 137,-696.93 133.79,-650.61 131.43,-622.05"/>
<polygon fill="red" stroke="red" points="134.91,-621.7 130.58,-612.03 127.94,-622.29 134.91,-621.7"/>
</a>
</g>
</g>
<!-- Dup26 -->
<g id="node27" class="node">
<title>Dup26</title>
<ellipse fill="none" stroke="black" cx="129" cy="-522" rx="27" ry="18"/>
<text text-anchor="middle" x="129" y="-518.3" font-family="Times,serif" font-size="14.00">Dup</text>
</g>
<!-- λ23&#45;&gt;Dup26 -->
<g id="edge31" class="edge">
<title>λ23&#45;&gt;Dup26</title>
<g id="a_edge31"><a xlink:title="ret164">
<path fill="none" stroke="red" d="M186.43,-578.83C176.25,-568.94 162.48,-555.55 150.97,-544.36"/>
<polygon fill="red" stroke="red" points="153.41,-541.85 143.8,-537.38 148.53,-546.87 153.41,-541.85"/>
</a>
</g>
</g>
<!-- λ24&#45;&gt;Dup26 -->
<g id="edge32" class="edge">
<title>λ24&#45;&gt;Dup26</title>
<g id="a_edge32"><a xlink:title="ret168">
<path fill="none" stroke="red" d="M129,-575.7C129,-567.98 129,-558.71 129,-550.11"/>
<polygon fill="none" stroke="red" points="132.5,-550.1 129,-540.1 125.5,-550.1 132.5,-550.1"/>
</a>
</g>
</g>
<!-- Dup25 -->
<g id="node26" class="node">
<title>Dup25</title>
<ellipse fill="none" stroke="black" cx="562" cy="-1182" rx="26" ry="26"/>
<ellipse fill="none" stroke="black" cx="562" cy="-1182" rx="30" ry="30"/>
<text text-anchor="middle" x="562" y="-1178.3" font-family="Times,serif" font-size="14.00">Dup</text>
</g>
<!-- Dup26&#45;&gt;I0 -->
<g id="edge34" class="edge">
<title>Dup26&#45;&gt;I0</title>
<g id="a_edge34"><a xlink:title="ret82">
<path fill="none" stroke="red" d="M115.62,-537.85C96.53,-560.03 61.99,-603.92 46,-648 29.71,-692.93 26.67,-749.09 26.47,-781.82"/>
<polygon fill="red" stroke="red" points="22.97,-781.97 26.5,-791.96 29.97,-781.96 22.97,-781.97"/>
</a>
</g>
</g>
<!-- !d27 -->
<g id="node28" class="node">
<title>!d27</title>
<ellipse fill="none" stroke="black" cx="192" cy="-666" rx="27" ry="18"/>
<text text-anchor="middle" x="192" y="-662.3" font-family="Times,serif" font-size="14.00">!d</text>
</g>
<!-- !d27&#45;&gt;λ23 -->
<g id="edge7" class="edge">
<title>!d27&#45;&gt;λ23</title>
<g id="a_edge7"><a xlink:title="i163">
<path fill="none" stroke="blue" d="M195.47,-638.01C196.58,-629.36 197.78,-620.03 198.78,-612.28"/>
<polygon fill="blue" stroke="blue" points="191.98,-637.69 194.18,-648.05 198.93,-638.58 191.98,-637.69"/>
</a>
</g>
</g>
<!-- !d28 -->
<g id="node29" class="node">
<title>!d28</title>
<ellipse fill="none" stroke="black" cx="82" cy="-666" rx="27" ry="18"/>
<text text-anchor="middle" x="82" y="-662.3" font-family="Times,serif" font-size="14.00">!d</text>
</g>
<!-- !d28&#45;&gt;λ24 -->
<g id="edge8" class="edge">
<title>!d28&#45;&gt;λ24</title>
<g id="a_edge8"><a xlink:title="i167">
<path fill="none" stroke="blue" d="M98.44,-640.51C105.06,-630.66 112.5,-619.58 118.38,-610.82"/>
<polygon fill="blue" stroke="blue" points="95.33,-638.86 92.67,-649.12 101.15,-642.76 95.33,-638.86"/>
</a>
</g>
</g>
<!-- Dup29 -->
<g id="node30" class="node">
<title>Dup29</title>
<ellipse fill="none" stroke="black" cx="637" cy="-1182" rx="27" ry="18"/>
<text text-anchor="middle" x="637" y="-1178.3" font-family="Times,serif" font-size="14.00">Dup</text>
</g>
<!-- Dup30&#45;&gt;!d27 -->
<g id="edge9" class="edge">
<title>Dup30&#45;&gt;!d27</title>
<g id="a_edge9"><a xlink:title="iret171">
<path fill="none" stroke="blue" d="M109.76,-719.34C129.54,-706.75 155.62,-690.15 173.06,-679.05"/>
<polygon fill="blue" stroke="blue" points="107.72,-716.49 101.16,-724.81 111.48,-722.39 107.72,-716.49"/>
</a>
</g>
</g>
<!-- Dup30&#45;&gt;!d28 -->
<g id="edge10" class="edge">
<title>Dup30&#45;&gt;!d28</title>
<g id="a_edge10"><a xlink:title="iret174">
<path fill="none" stroke="blue" d="M82,-709.67C82,-701.05 82,-691.79 82,-684.1"/>
<polygon fill="none" stroke="blue" points="78.5,-709.7 82,-719.7 85.5,-709.7 78.5,-709.7"/>
</a>
</g>
</g>
<!-- DupI31 -->
<g id="node32" class="node">
<title>DupI31</title>
<ellipse fill="none" stroke="black" cx="711" cy="-1182" rx="28.7" ry="18"/>
<text text-anchor="middle" x="711" y="-1178.3" font-family="Times,serif" font-size="14.00">DupI</text>
</g>
</g>
</svg>
