<?xml version="1.0" encoding="UTF-8" standalone="no"?>
<!DOCTYPE svg PUBLIC "-//W3C//DTD SVG 1.1//EN"
 "http://www.w3.org/Graphics/SVG/1.1/DTD/svg11.dtd">
<!-- Generated by graphviz version 2.49.3 (0)
 -->
<!-- Pages: 1 -->
<svg width="821pt" height="927pt"
 viewBox="0.00 0.00 821.00 926.80" xmlns="http://www.w3.org/2000/svg" xmlns:xlink="http://www.w3.org/1999/xlink">
<g id="graph0" class="graph" transform="scale(1 1) rotate(0) translate(4 922.8)">
<polygon fill="white" stroke="transparent" points="-4,4 -4,-922.8 817,-922.8 817,4 -4,4"/>
<!-- I0 -->
<g id="node1" class="node">
<title>I0</title>
<ellipse fill="none" stroke="black" cx="82" cy="-900.8" rx="27" ry="18"/>
<text text-anchor="middle" x="82" y="-897.1" font-family="Times,serif" font-size="14.00">I</text>
</g>
<!-- !d1 -->
<g id="node2" class="node">
<title>!d1</title>
<ellipse fill="none" stroke="black" cx="27" cy="-828.8" rx="27" ry="18"/>
<text text-anchor="middle" x="27" y="-825.1" font-family="Times,serif" font-size="14.00">!d</text>
</g>
<!-- I0&#45;&gt;!d1 -->
<g id="edge8" class="edge">
<title>I0&#45;&gt;!d1</title>
<g id="a_edge8"><a xlink:title="iret84">
<path fill="none" stroke="blue" d="M63.83,-876.67C55.63,-866.24 46.19,-854.21 38.91,-844.96"/>
<polygon fill="blue" stroke="blue" points="61.14,-878.91 70.07,-884.61 66.64,-874.58 61.14,-878.91"/>
</a>
</g>
</g>
<!-- λ2 -->
<g id="node3" class="node">
<title>λ2</title>
<ellipse fill="none" stroke="black" cx="82" cy="-756.8" rx="27" ry="18"/>
<text text-anchor="middle" x="82" y="-753.1" font-family="Times,serif" font-size="14.00">λ</text>
</g>
<!-- !d1&#45;&gt;λ2 -->
<g id="edge7" class="edge">
<title>!d1&#45;&gt;λ2</title>
<g id="a_edge7"><a xlink:title="i81">
<path fill="none" stroke="blue" d="M45.17,-804.67C53.37,-794.24 62.81,-782.21 70.09,-772.96"/>
<polygon fill="blue" stroke="blue" points="42.36,-802.58 38.93,-812.61 47.86,-806.91 42.36,-802.58"/>
</a>
</g>
</g>
<!-- λ2&#45;&gt;I0 -->
<g id="edge30" class="edge">
<title>λ2&#45;&gt;I0</title>
<g id="a_edge30"><a xlink:title="ret82">
<path fill="none" stroke="red" d="M82,-774.99C82,-799.22 82,-843.68 82,-872.47"/>
<polygon fill="red" stroke="red" points="78.5,-872.67 82,-882.67 85.5,-872.67 78.5,-872.67"/>
</a>
</g>
</g>
<!-- !p3 -->
<g id="node4" class="node">
<title>!p3</title>
<ellipse fill="none" stroke="black" cx="137" cy="-828.8" rx="27" ry="18"/>
<text text-anchor="middle" x="137" y="-825.1" font-family="Times,serif" font-size="14.00">!p</text>
</g>
<!-- !p3&#45;&gt;λ2 -->
<g id="edge25" class="edge">
<title>!p3&#45;&gt;λ2</title>
<g id="a_edge25"><a xlink:title="newrretf78">
<path fill="none" stroke="red" d="M125.07,-812.61C117.79,-803.34 108.34,-791.32 100.15,-780.89"/>
<polygon fill="red" stroke="red" points="102.84,-778.66 93.91,-772.96 97.34,-782.98 102.84,-778.66"/>
</a>
</g>
</g>
<!-- I4 -->
<g id="node5" class="node">
<title>I4</title>
<ellipse fill="none" stroke="black" cx="247" cy="-18" rx="27" ry="18"/>
<text text-anchor="middle" x="247" y="-14.3" font-family="Times,serif" font-size="14.00">I</text>
</g>
<!-- @5 -->
<g id="node6" class="node">
<title>@5</title>
<ellipse fill="none" stroke="black" cx="173" cy="-900.8" rx="27" ry="18"/>
<text text-anchor="middle" x="173" y="-897.1" font-family="Times,serif" font-size="14.00">@</text>
</g>
<!-- I4&#45;&gt;@5 -->
<g id="edge11" class="edge">
<title>I4&#45;&gt;@5</title>
<g id="a_edge11"><a xlink:title="lret75">
<path fill="none" stroke="blue" d="M228.15,-42.53C221.88,-51.34 215.39,-61.72 211,-72 195.12,-109.2 192,-120.55 192,-161 192,-757.8 192,-757.8 192,-757.8 192,-803.31 182.29,-856.32 176.75,-882.84"/>
<polygon fill="blue" stroke="blue" points="231.11,-44.41 234.25,-34.3 225.48,-40.24 231.11,-44.41"/>
</a>
</g>
</g>
<!-- @5&#45;&gt;!p3 -->
<g id="edge19" class="edge">
<title>@5&#45;&gt;!p3</title>
<g id="a_edge19"><a xlink:title="newrret74">
<path fill="none" stroke="red" d="M164.65,-883.56C160.29,-875.08 154.85,-864.51 149.96,-854.99"/>
<polygon fill="red" stroke="red" points="152.99,-853.24 145.3,-845.94 146.77,-856.44 152.99,-853.24"/>
</a>
</g>
</g>
<!-- !d6 -->
<g id="node7" class="node">
<title>!d6</title>
<ellipse fill="none" stroke="black" cx="258" cy="-828.8" rx="27" ry="18"/>
<text text-anchor="middle" x="258" y="-825.1" font-family="Times,serif" font-size="14.00">!d</text>
</g>
<!-- @5&#45;&gt;!d6 -->
<g id="edge14" class="edge">
<title>@5&#45;&gt;!d6</title>
<g id="a_edge14"><a xlink:title="lval70">
<path fill="none" stroke="blue" d="M197.31,-879.78C211.53,-868.07 229.09,-853.6 241.66,-843.25"/>
<polygon fill="blue" stroke="blue" points="194.88,-877.24 189.39,-886.3 199.33,-882.64 194.88,-877.24"/>
</a>
</g>
</g>
<!-- Dup23 -->
<g id="node24" class="node">
<title>Dup23</title>
<ellipse fill="none" stroke="black" cx="268" cy="-756.8" rx="27" ry="18"/>
<text text-anchor="middle" x="268" y="-753.1" font-family="Times,serif" font-size="14.00">Dup</text>
</g>
<!-- !d6&#45;&gt;Dup23 -->
<g id="edge6" class="edge">
<title>!d6&#45;&gt;Dup23</title>
<g id="a_edge6"><a xlink:title="hf65">
<path fill="none" stroke="blue" d="M261.86,-800.8C263.09,-792.16 264.42,-782.83 265.53,-775.07"/>
<polygon fill="blue" stroke="blue" points="258.37,-800.46 260.42,-810.85 265.3,-801.45 258.37,-800.46"/>
</a>
</g>
</g>
<!-- I7 -->
<g id="node8" class="node">
<title>I7</title>
<ellipse fill="none" stroke="black" cx="433" cy="-243.4" rx="27" ry="18"/>
<text text-anchor="middle" x="433" y="-239.7" font-family="Times,serif" font-size="14.00">I</text>
</g>
<!-- !d8 -->
<g id="node9" class="node">
<title>!d8</title>
<ellipse fill="none" stroke="black" cx="460" cy="-162" rx="27" ry="18"/>
<text text-anchor="middle" x="460" y="-158.3" font-family="Times,serif" font-size="14.00">!d</text>
</g>
<!-- I7&#45;&gt;!d8 -->
<g id="edge34" class="edge">
<title>I7&#45;&gt;!d8</title>
<g id="a_edge34"><a xlink:title="yret60">
<path fill="none" stroke="blue" d="M441.96,-216.06C446.02,-204.11 450.7,-190.34 454.28,-179.81"/>
<polygon fill="blue" stroke="blue" points="438.63,-214.97 438.73,-225.56 445.26,-217.22 438.63,-214.97"/>
</a>
</g>
</g>
<!-- !p9 -->
<g id="node10" class="node">
<title>!p9</title>
<ellipse fill="none" stroke="black" cx="416" cy="-324.8" rx="27" ry="18"/>
<text text-anchor="middle" x="416" y="-321.1" font-family="Times,serif" font-size="14.00">!p</text>
</g>
<!-- !d8&#45;&gt;!p9 -->
<g id="edge33" class="edge">
<title>!d8&#45;&gt;!p9</title>
<g id="a_edge33"><a xlink:title="yBf56">
<path fill="none" stroke="blue" d="M468.87,-189.66C474.82,-212.14 479.8,-244.73 469,-270.8 462.03,-287.63 446.83,-301.9 434.49,-311.38"/>
<polygon fill="blue" stroke="blue" points="472.16,-188.44 466.03,-179.8 465.44,-190.38 472.16,-188.44"/>
</a>
</g>
</g>
<!-- !p9&#45;&gt;I7 -->
<g id="edge23" class="edge">
<title>!p9&#45;&gt;I7</title>
<g id="a_edge23"><a xlink:title="newrretf57">
<path fill="none" stroke="red" d="M419.69,-306.57C421.89,-296.3 424.73,-283.05 427.22,-271.41"/>
<polygon fill="red" stroke="red" points="430.71,-271.83 429.38,-261.32 423.86,-270.37 430.71,-271.83"/>
</a>
</g>
</g>
<!-- Cut27 -->
<g id="node28" class="node">
<title>Cut27</title>
<ellipse fill="none" stroke="black" cx="361" cy="-243.4" rx="27" ry="18"/>
<text text-anchor="middle" x="361" y="-239.7" font-family="Times,serif" font-size="14.00">Cut</text>
</g>
<!-- !p9&#45;&gt;Cut27 -->
<g id="edge32" class="edge">
<title>!p9&#45;&gt;Cut27</title>
<g id="a_edge32"><a xlink:title="yB44">
<path fill="none" stroke="blue" d="M399.31,-299.7C390.39,-286.83 379.67,-271.35 371.84,-260.05"/>
<polygon fill="blue" stroke="blue" points="396.56,-301.88 405.13,-308.11 402.32,-297.9 396.56,-301.88"/>
</a>
</g>
</g>
<!-- I10 -->
<g id="node11" class="node">
<title>I10</title>
<ellipse fill="none" stroke="black" cx="452" cy="-468.8" rx="27" ry="18"/>
<text text-anchor="middle" x="452" y="-465.1" font-family="Times,serif" font-size="14.00">I</text>
</g>
<!-- @11 -->
<g id="node12" class="node">
<title>@11</title>
<ellipse fill="none" stroke="black" cx="452" cy="-396.8" rx="27" ry="18"/>
<text text-anchor="middle" x="452" y="-393.1" font-family="Times,serif" font-size="14.00">@</text>
</g>
<!-- I10&#45;&gt;@11 -->
<g id="edge10" class="edge">
<title>I10&#45;&gt;@11</title>
<g id="a_edge10"><a xlink:title="lret53">
<path fill="none" stroke="blue" d="M452,-440.46C452,-431.85 452,-422.59 452,-414.9"/>
<polygon fill="blue" stroke="blue" points="448.5,-440.49 452,-450.49 455.5,-440.49 448.5,-440.49"/>
</a>
</g>
</g>
<!-- @11&#45;&gt;!p9 -->
<g id="edge18" class="edge">
<title>@11&#45;&gt;!p9</title>
<g id="a_edge18"><a xlink:title="newrret52">
<path fill="none" stroke="red" d="M443.65,-379.56C439.29,-371.08 433.85,-360.51 428.96,-350.99"/>
<polygon fill="red" stroke="red" points="431.99,-349.24 424.3,-341.94 425.77,-352.44 431.99,-349.24"/>
</a>
</g>
</g>
<!-- !d12 -->
<g id="node13" class="node">
<title>!d12</title>
<ellipse fill="none" stroke="black" cx="488" cy="-324.8" rx="27" ry="18"/>
<text text-anchor="middle" x="488" y="-321.1" font-family="Times,serif" font-size="14.00">!d</text>
</g>
<!-- @11&#45;&gt;!d12 -->
<g id="edge13" class="edge">
<title>@11&#45;&gt;!d12</title>
<g id="a_edge13"><a xlink:title="lval48">
<path fill="none" stroke="blue" d="M465.01,-370.5C469.91,-360.98 475.34,-350.41 479.7,-341.94"/>
<polygon fill="blue" stroke="blue" points="461.81,-369.07 460.35,-379.56 468.04,-372.27 461.81,-369.07"/>
</a>
</g>
</g>
<!-- Cut26 -->
<g id="node27" class="node">
<title>Cut26</title>
<ellipse fill="none" stroke="black" cx="543" cy="-243.4" rx="23.31" ry="23.31"/>
<ellipse fill="none" stroke="black" cx="543" cy="-243.4" rx="27.3" ry="27.3"/>
<text text-anchor="middle" x="543" y="-239.7" font-family="Times,serif" font-size="14.00">Cut</text>
</g>
<!-- !d12&#45;&gt;Cut26 -->
<g id="edge31" class="edge">
<title>!d12&#45;&gt;Cut26</title>
<g id="a_edge31"><a xlink:title="yA43">
<path fill="none" stroke="blue" stroke-width="2" d="M504.69,-299.7C512.04,-289.09 520.61,-276.71 527.78,-266.36"/>
<polygon fill="blue" stroke="blue" stroke-width="2" points="501.68,-297.9 498.87,-308.11 507.44,-301.88 501.68,-297.9"/>
</a>
</g>
</g>
<!-- λ13 -->
<g id="node14" class="node">
<title>λ13</title>
<ellipse fill="none" stroke="black" cx="452" cy="-540.8" rx="27" ry="18"/>
<text text-anchor="middle" x="452" y="-537.1" font-family="Times,serif" font-size="14.00">λ</text>
</g>
<!-- λ13&#45;&gt;I10 -->
<g id="edge28" class="edge">
<title>λ13&#45;&gt;I10</title>
<g id="a_edge28"><a xlink:title="ret42">
<path fill="none" stroke="red" d="M452,-522.49C452,-514.78 452,-505.51 452,-496.91"/>
<polygon fill="red" stroke="red" points="455.5,-496.9 452,-486.9 448.5,-496.9 455.5,-496.9"/>
</a>
</g>
</g>
<!-- I14 -->
<g id="node15" class="node">
<title>I14</title>
<ellipse fill="none" stroke="black" cx="634" cy="-828.8" rx="27" ry="18"/>
<text text-anchor="middle" x="634" y="-825.1" font-family="Times,serif" font-size="14.00">I</text>
</g>
<!-- @15 -->
<g id="node16" class="node">
<title>@15</title>
<ellipse fill="none" stroke="black" cx="634" cy="-756.8" rx="27" ry="18"/>
<text text-anchor="middle" x="634" y="-753.1" font-family="Times,serif" font-size="14.00">@</text>
</g>
<!-- I14&#45;&gt;@15 -->
<g id="edge9" class="edge">
<title>I14&#45;&gt;@15</title>
<g id="a_edge9"><a xlink:title="lret19">
<path fill="none" stroke="blue" d="M634,-800.46C634,-791.85 634,-782.59 634,-774.9"/>
<polygon fill="blue" stroke="blue" points="630.5,-800.49 634,-810.49 637.5,-800.49 630.5,-800.49"/>
</a>
</g>
</g>
<!-- Cut19 -->
<g id="node20" class="node">
<title>Cut19</title>
<ellipse fill="none" stroke="black" cx="562" cy="-684.8" rx="27" ry="18"/>
<text text-anchor="middle" x="562" y="-681.1" font-family="Times,serif" font-size="14.00">Cut</text>
</g>
<!-- @15&#45;&gt;Cut19 -->
<g id="edge12" class="edge">
<title>@15&#45;&gt;Cut19</title>
<g id="a_edge12"><a xlink:title="lval14">
<path fill="none" stroke="blue" d="M611.96,-734.36C600.55,-723.27 586.93,-710.03 576.8,-700.18"/>
<polygon fill="blue" stroke="blue" points="609.82,-737.17 619.43,-741.63 614.7,-732.15 609.82,-737.17"/>
</a>
</g>
</g>
<!-- !p20 -->
<g id="node21" class="node">
<title>!p20</title>
<ellipse fill="none" stroke="black" cx="634" cy="-684.8" rx="27" ry="18"/>
<text text-anchor="middle" x="634" y="-681.1" font-family="Times,serif" font-size="14.00">!p</text>
</g>
<!-- @15&#45;&gt;!p20 -->
<g id="edge17" class="edge">
<title>@15&#45;&gt;!p20</title>
<g id="a_edge17"><a xlink:title="newrret18">
<path fill="none" stroke="red" d="M634,-738.49C634,-730.78 634,-721.51 634,-712.91"/>
<polygon fill="red" stroke="red" points="637.5,-712.9 634,-702.9 630.5,-712.9 637.5,-712.9"/>
</a>
</g>
</g>
<!-- Assign16 -->
<g id="node17" class="node">
<title>Assign16</title>
<ellipse fill="none" stroke="black" cx="634" cy="-900.8" rx="35.19" ry="18"/>
<text text-anchor="middle" x="634" y="-897.1" font-family="Times,serif" font-size="14.00">Assign</text>
</g>
<!-- Assign16&#45;&gt;I14 -->
<g id="edge29" class="edge">
<title>Assign16&#45;&gt;I14</title>
<g id="a_edge29"><a xlink:title="ret8">
<path fill="none" stroke="red" d="M634,-882.49C634,-874.78 634,-865.51 634,-856.91"/>
<polygon fill="red" stroke="red" points="637.5,-856.9 634,-846.9 630.5,-856.9 637.5,-856.9"/>
</a>
</g>
</g>
<!-- Dup17 -->
<g id="node18" class="node">
<title>Dup17</title>
<ellipse fill="none" stroke="black" cx="714" cy="-900.8" rx="27" ry="18"/>
<text text-anchor="middle" x="714" y="-897.1" font-family="Times,serif" font-size="14.00">Dup</text>
</g>
<!-- Dup18 -->
<g id="node19" class="node">
<title>Dup18</title>
<ellipse fill="none" stroke="black" cx="598" cy="-612.8" rx="27" ry="18"/>
<text text-anchor="middle" x="598" y="-609.1" font-family="Times,serif" font-size="14.00">Dup</text>
</g>
<!-- Dup18&#45;&gt;λ13 -->
<g id="edge22" class="edge">
<title>Dup18&#45;&gt;λ13</title>
<g id="a_edge22"><a xlink:title="newrretf31">
<path fill="none" stroke="red" d="M576.77,-601.62C551.9,-589.69 510.52,-569.85 482.28,-556.32"/>
<polygon fill="red" stroke="red" points="483.79,-553.15 473.26,-551.99 480.76,-559.47 483.79,-553.15"/>
</a>
</g>
</g>
<!-- Cut19&#45;&gt;Dup18 -->
<g id="edge26" class="edge">
<title>Cut19&#45;&gt;Dup18</title>
<g id="a_edge26"><a xlink:title="newrretf87">
<path fill="none" stroke="red" d="M570.35,-667.56C574.71,-659.08 580.15,-648.51 585.04,-638.99"/>
<polygon fill="red" stroke="red" points="588.23,-640.44 589.7,-629.94 582.01,-637.24 588.23,-640.44"/>
</a>
</g>
</g>
<!-- !p20&#45;&gt;Dup18 -->
<g id="edge27" class="edge">
<title>!p20&#45;&gt;Dup18</title>
<g id="a_edge27"><a xlink:title="newrretf91">
<path fill="none" stroke="red" d="M625.65,-667.56C621.29,-659.08 615.85,-648.51 610.96,-638.99"/>
<polygon fill="none" stroke="red" points="613.99,-637.24 606.3,-629.94 607.77,-640.44 613.99,-637.24"/>
</a>
</g>
</g>
<!-- Dup21 -->
<g id="node22" class="node">
<title>Dup21</title>
<ellipse fill="none" stroke="black" cx="786" cy="-900.8" rx="27" ry="18"/>
<text text-anchor="middle" x="786" y="-897.1" font-family="Times,serif" font-size="14.00">Dup</text>
</g>
<!-- Dup22 -->
<g id="node23" class="node">
<title>Dup22</title>
<ellipse fill="none" stroke="black" cx="247" cy="-90" rx="27" ry="18"/>
<text text-anchor="middle" x="247" y="-86.3" font-family="Times,serif" font-size="14.00">Dup</text>
</g>
<!-- Dup22&#45;&gt;I4 -->
<g id="edge24" class="edge">
<title>Dup22&#45;&gt;I4</title>
<g id="a_edge24"><a xlink:title="newrretf66">
<path fill="none" stroke="red" d="M247,-71.7C247,-63.98 247,-54.71 247,-46.11"/>
<polygon fill="red" stroke="red" points="250.5,-46.1 247,-36.1 243.5,-46.1 250.5,-46.1"/>
</a>
</g>
</g>
<!-- !p24 -->
<g id="node25" class="node">
<title>!p24</title>
<ellipse fill="none" stroke="black" cx="323" cy="-684.8" rx="27" ry="18"/>
<text text-anchor="middle" x="323" y="-681.1" font-family="Times,serif" font-size="14.00">!p</text>
</g>
<!-- Dup23&#45;&gt;!p24 -->
<g id="edge4" class="edge">
<title>Dup23&#45;&gt;!p24</title>
<g id="a_edge4"><a xlink:title="hf107">
<path fill="none" stroke="blue" d="M286.17,-732.67C294.37,-722.24 303.81,-710.21 311.09,-700.96"/>
<polygon fill="blue" stroke="blue" points="283.36,-730.58 279.93,-740.61 288.86,-734.91 283.36,-730.58"/>
</a>
</g>
</g>
<!-- !p25 -->
<g id="node26" class="node">
<title>!p25</title>
<ellipse fill="none" stroke="black" cx="296" cy="-162" rx="27" ry="18"/>
<text text-anchor="middle" x="296" y="-158.3" font-family="Times,serif" font-size="14.00">!p</text>
</g>
<!-- Dup23&#45;&gt;!p25 -->
<g id="edge5" class="edge">
<title>Dup23&#45;&gt;!p25</title>
<g id="a_edge5"><a xlink:title="hf113">
<path fill="none" stroke="blue" d="M268,-728.72C268,-700.14 268,-653.8 268,-613.8 268,-613.8 268,-613.8 268,-323.8 268,-270.52 283.1,-208.78 291.12,-179.73"/>
<polygon fill="none" stroke="blue" points="264.5,-728.75 268,-738.75 271.5,-728.75 264.5,-728.75"/>
</a>
</g>
</g>
<!-- !p24&#45;&gt;Dup22 -->
<g id="edge20" class="edge">
<title>!p24&#45;&gt;Dup22</title>
<g id="a_edge20"><a xlink:title="newrretf108">
<path fill="none" stroke="red" d="M306.37,-670.42C279.62,-647.27 230,-596.9 230,-541.8 230,-541.8 230,-541.8 230,-242.4 230,-198.82 237.04,-148.62 242.06,-118.38"/>
<polygon fill="red" stroke="red" points="245.57,-118.63 243.8,-108.19 238.67,-117.45 245.57,-118.63"/>
</a>
</g>
</g>
<!-- !c28 -->
<g id="node29" class="node">
<title>!c28</title>
<ellipse fill="none" stroke="black" cx="323" cy="-612.8" rx="27" ry="18"/>
<text text-anchor="middle" x="323" y="-609.1" font-family="Times,serif" font-size="14.00">!c</text>
</g>
<!-- !p24&#45;&gt;!c28 -->
<g id="edge1" class="edge">
<title>!p24&#45;&gt;!c28</title>
<g id="a_edge1"><a xlink:title="h110">
<path fill="none" stroke="blue" d="M323,-656.46C323,-647.85 323,-638.59 323,-630.9"/>
<polygon fill="blue" stroke="blue" points="319.5,-656.49 323,-666.49 326.5,-656.49 319.5,-656.49"/>
</a>
</g>
</g>
<!-- !p25&#45;&gt;Dup22 -->
<g id="edge21" class="edge">
<title>!p25&#45;&gt;Dup22</title>
<g id="a_edge21"><a xlink:title="newrretf114">
<path fill="none" stroke="red" d="M285.13,-145.46C278.84,-136.49 270.81,-125.02 263.74,-114.92"/>
<polygon fill="none" stroke="red" points="266.45,-112.68 257.84,-106.49 260.71,-116.69 266.45,-112.68"/>
</a>
</g>
</g>
<!-- !p25&#45;&gt;!c28 -->
<g id="edge2" class="edge">
<title>!p25&#45;&gt;!c28</title>
<g id="a_edge2"><a xlink:title="h116">
<path fill="none" stroke="blue" d="M298.77,-190.69C301.73,-222.71 306,-277.01 306,-323.8 306,-469.8 306,-469.8 306,-469.8 306,-510.09 312.83,-556.35 317.83,-584.83"/>
<polygon fill="blue" stroke="blue" points="302.22,-189.97 297.79,-180.35 295.25,-190.63 302.22,-189.97"/>
<polygon fill="blue" stroke="blue" points="316.2,-595.45 317.86,-584.99 323.09,-594.2 316.2,-595.45"/>
</a>
</g>
</g>
<!-- Cut26&#45;&gt;!p24 -->
<g id="edge15" class="edge">
<title>Cut26&#45;&gt;!p24</title>
<g id="a_edge15"><a xlink:title="newrret111">
<path fill="none" stroke="red" d="M543,-270.93C543,-301.15 543,-352.03 543,-395.8 543,-541.8 543,-541.8 543,-541.8 543,-628.35 421.3,-664.7 358.93,-677.65"/>
<polygon fill="red" stroke="red" points="358.23,-674.22 349.1,-679.6 359.59,-681.09 358.23,-674.22"/>
</a>
</g>
</g>
<!-- Cut27&#45;&gt;!p25 -->
<g id="edge16" class="edge">
<title>Cut27&#45;&gt;!p25</title>
<g id="a_edge16"><a xlink:title="newrret117">
<path fill="none" stroke="red" d="M348.47,-227.09C338.94,-215.45 325.66,-199.23 314.85,-186.03"/>
<polygon fill="red" stroke="red" points="317.54,-183.78 308.49,-178.26 312.12,-188.22 317.54,-183.78"/>
</a>
</g>
</g>
<!-- !c28&#45;&gt;λ13 -->
<g id="edge3" class="edge">
<title>!c28&#45;&gt;λ13</title>
<g id="a_edge3"><a xlink:title="h34">
<path fill="none" stroke="blue" d="M352.53,-595.77C376.74,-582.63 410.37,-564.39 431.66,-552.84"/>
<polygon fill="blue" stroke="blue" points="350.56,-592.86 343.44,-600.7 353.9,-599.01 350.56,-592.86"/>
</a>
</g>
</g>
</g>
</svg>
