<?xml version="1.0" encoding="UTF-8" standalone="no"?>
<!DOCTYPE svg PUBLIC "-//W3C//DTD SVG 1.1//EN"
 "http://www.w3.org/Graphics/SVG/1.1/DTD/svg11.dtd">
<!-- Generated by graphviz version 2.49.3 (0)
 -->
<!-- Pages: 1 -->
<svg width="491pt" height="1076pt"
 viewBox="0.00 0.00 490.69 1076.00" xmlns="http://www.w3.org/2000/svg" xmlns:xlink="http://www.w3.org/1999/xlink">
<g id="graph0" class="graph" transform="scale(1 1) rotate(0) translate(4 1072)">
<polygon fill="white" stroke="transparent" points="-4,4 -4,-1072 486.69,-1072 486.69,4 -4,4"/>
<!-- Identity0 -->
<g id="node1" class="node">
<title>Identity0</title>
<ellipse fill="none" stroke="black" cx="444.35" cy="-594" rx="38.19" ry="18"/>
<text text-anchor="middle" x="444.35" y="-590.3" font-family="Times,serif" font-size="14.00">Identity</text>
</g>
<!-- PiL1 -->
<g id="node2" class="node">
<title>PiL1</title>
<ellipse fill="none" stroke="black" cx="375.35" cy="-522" rx="27" ry="18"/>
<text text-anchor="middle" x="375.35" y="-518.3" font-family="Times,serif" font-size="14.00">PiL</text>
</g>
<!-- PiL1&#45;&gt;Identity0 -->
<g id="edge22" class="edge">
<title>PiL1&#45;&gt;Identity0</title>
<g id="a_edge22"><a xlink:title="idseq55">
<path fill="none" stroke="black" d="M392.15,-546.56C399.62,-554.62 408.5,-563.59 416.86,-571.49"/>
<polygon fill="black" stroke="black" points="387.84,-536.54 391.93,-546.32 382.64,-541.23 387.84,-536.54"/>
<polygon fill="black" stroke="black" points="414.6,-574.16 424.32,-578.37 419.34,-569.02 414.6,-574.16"/>
</a>
</g>
</g>
<!-- PiL1&#45;&gt;Identity0 -->
<g id="edge30" class="edge">
<title>PiL1&#45;&gt;Identity0</title>
<g id="a_edge30"><a xlink:title="lret53">
<path fill="none" stroke="blue" d="M393.37,-535.84C403.8,-545.05 416.67,-557.74 426.97,-568.82"/>
<polygon fill="blue" stroke="blue" points="424.64,-571.47 433.94,-576.54 429.83,-566.77 424.64,-571.47"/>
</a>
</g>
</g>
<!-- Bang7 -->
<g id="node8" class="node">
<title>Bang7</title>
<ellipse fill="none" stroke="black" cx="358.35" cy="-594" rx="29.5" ry="18"/>
<text text-anchor="middle" x="358.35" y="-590.3" font-family="Times,serif" font-size="14.00">Bang</text>
</g>
<!-- PiL1&#45;&gt;Bang7 -->
<g id="edge7" class="edge">
<title>PiL1&#45;&gt;Bang7</title>
<g id="a_edge7"><a xlink:title="dseq54">
<path fill="none" stroke="black" d="M365.73,-538.88C362.9,-546.77 360.25,-556.52 358.4,-565.57"/>
<polygon fill="black" stroke="black" points="354.9,-565.26 356.63,-575.71 361.8,-566.46 354.9,-565.26"/>
</a>
</g>
</g>
<!-- PiL1&#45;&gt;Bang7 -->
<g id="edge39" class="edge">
<title>PiL1&#45;&gt;Bang7</title>
<g id="a_edge39"><a xlink:title="newrret52">
<path fill="none" stroke="red" d="M377.06,-540.3C375.93,-548.42 373.74,-558.26 371.14,-567.24"/>
<polygon fill="red" stroke="red" points="367.78,-566.26 368.06,-576.86 374.44,-568.4 367.78,-566.26"/>
</a>
</g>
</g>
<!-- Assign2 -->
<g id="node3" class="node">
<title>Assign2</title>
<ellipse fill="none" stroke="black" cx="250.35" cy="-18" rx="35.19" ry="18"/>
<text text-anchor="middle" x="250.35" y="-14.3" font-family="Times,serif" font-size="14.00">Assign</text>
</g>
<!-- Dup11 -->
<g id="node12" class="node">
<title>Dup11</title>
<ellipse fill="none" stroke="black" cx="345.35" cy="-306" rx="27" ry="18"/>
<text text-anchor="middle" x="345.35" y="-302.3" font-family="Times,serif" font-size="14.00">Dup</text>
</g>
<!-- Assign2&#45;&gt;Dup11 -->
<g id="edge48" class="edge">
<title>Assign2&#45;&gt;Dup11</title>
<g id="a_edge48"><a xlink:title="ret133">
<path fill="none" stroke="red" d="M263.27,-34.83C270.95,-44.93 280.33,-58.61 286.35,-72 318.11,-142.68 334.83,-233.41 341.63,-277.92"/>
<polygon fill="red" stroke="red" points="338.18,-278.57 343.11,-287.95 345.11,-277.55 338.18,-278.57"/>
</a>
</g>
</g>
<!-- Cut12 -->
<g id="node13" class="node">
<title>Cut12</title>
<ellipse fill="none" stroke="black" cx="250.35" cy="-90" rx="27" ry="18"/>
<text text-anchor="middle" x="250.35" y="-86.3" font-family="Times,serif" font-size="14.00">Cut</text>
</g>
<!-- Assign2&#45;&gt;Cut12 -->
<g id="edge59" class="edge">
<title>Assign2&#45;&gt;Cut12</title>
<g id="a_edge59"><a xlink:title="seqBC94">
<path fill="none" stroke="black" d="M250.35,-36.3C250.35,-44.02 250.35,-53.29 250.35,-61.89"/>
<polygon fill="black" stroke="black" points="246.85,-61.9 250.35,-71.9 253.85,-61.9 246.85,-61.9"/>
</a>
</g>
</g>
<!-- Bang3 -->
<g id="node4" class="node">
<title>Bang3</title>
<ellipse fill="none" stroke="black" cx="250.35" cy="-162" rx="29.5" ry="18"/>
<text text-anchor="middle" x="250.35" y="-158.3" font-family="Times,serif" font-size="14.00">Bang</text>
</g>
<!-- PiR8 -->
<g id="node9" class="node">
<title>PiR8</title>
<ellipse fill="none" stroke="black" cx="250.35" cy="-234" rx="27" ry="18"/>
<text text-anchor="middle" x="250.35" y="-230.3" font-family="Times,serif" font-size="14.00">PiR</text>
</g>
<!-- Bang3&#45;&gt;PiR8 -->
<g id="edge34" class="edge">
<title>Bang3&#45;&gt;PiR8</title>
<g id="a_edge34"><a xlink:title="newcut_bseq100">
<path fill="none" stroke="black" d="M244.47,-179.95C243.64,-187.77 243.4,-197.25 243.76,-206.02"/>
<polygon fill="black" stroke="black" points="240.28,-206.49 244.49,-216.21 247.26,-205.99 240.28,-206.49"/>
</a>
</g>
</g>
<!-- Bang3&#45;&gt;PiR8 -->
<g id="edge47" class="edge">
<title>Bang3&#45;&gt;PiR8</title>
<g id="a_edge47"><a xlink:title="newrretf91">
<path fill="none" stroke="red" d="M256.22,-179.95C257.06,-187.77 257.29,-197.25 256.94,-206.02"/>
<polygon fill="red" stroke="red" points="253.43,-205.99 256.21,-216.21 260.41,-206.49 253.43,-205.99"/>
</a>
</g>
</g>
<!-- Dup4 -->
<g id="node5" class="node">
<title>Dup4</title>
<ellipse fill="none" stroke="black" cx="274.35" cy="-678" rx="26" ry="26"/>
<ellipse fill="none" stroke="black" cx="274.35" cy="-678" rx="30" ry="30"/>
<text text-anchor="middle" x="274.35" y="-674.3" font-family="Times,serif" font-size="14.00">Dup</text>
</g>
<!-- DupI29 -->
<g id="node30" class="node">
<title>DupI29</title>
<ellipse fill="none" stroke="black" cx="197.35" cy="-906" rx="28.7" ry="18"/>
<text text-anchor="middle" x="197.35" y="-902.3" font-family="Times,serif" font-size="14.00">DupI</text>
</g>
<!-- Dup4&#45;&gt;DupI29 -->
<g id="edge46" class="edge">
<title>Dup4&#45;&gt;DupI29</title>
<g id="a_edge46"><a xlink:title="newrretf66">
<path fill="none" stroke="red" stroke-width="2" d="M264.9,-706.71C249.92,-750.68 220.9,-835.86 206.26,-878.84"/>
<polygon fill="red" stroke="red" stroke-width="2" points="202.94,-877.73 203.03,-888.32 209.57,-879.98 202.94,-877.73"/>
</a>
</g>
</g>
<!-- BangC5 -->
<g id="node6" class="node">
<title>BangC5</title>
<ellipse fill="none" stroke="black" cx="265.35" cy="-378" rx="35.19" ry="18"/>
<text text-anchor="middle" x="265.35" y="-374.3" font-family="Times,serif" font-size="14.00">BangC</text>
</g>
<!-- Cut6 -->
<g id="node7" class="node">
<title>Cut6</title>
<ellipse fill="none" stroke="black" cx="265.35" cy="-450" rx="27" ry="18"/>
<text text-anchor="middle" x="265.35" y="-446.3" font-family="Times,serif" font-size="14.00">Cut</text>
</g>
<!-- BangC5&#45;&gt;Cut6 -->
<g id="edge58" class="edge">
<title>BangC5&#45;&gt;Cut6</title>
<g id="a_edge58"><a xlink:title="seqBC118">
<path fill="none" stroke="black" d="M265.35,-396.3C265.35,-404.02 265.35,-413.29 265.35,-421.89"/>
<polygon fill="black" stroke="black" points="261.85,-421.9 265.35,-431.9 268.85,-421.9 261.85,-421.9"/>
</a>
</g>
</g>
<!-- BangC5&#45;&gt;Bang7 -->
<g id="edge8" class="edge">
<title>BangC5&#45;&gt;Bang7</title>
<g id="a_edge8"><a xlink:title="h116">
<path fill="none" stroke="blue" d="M283.76,-403.26C289.88,-412.02 296.38,-422.17 301.35,-432 324.28,-477.42 322.32,-492.05 339.35,-540 342.45,-548.74 345.86,-558.28 348.93,-566.83"/>
<polygon fill="blue" stroke="blue" points="280.69,-392.99 283.68,-403.15 275,-397.08 280.69,-392.99"/>
<polygon fill="blue" stroke="blue" points="345.66,-568.07 352.33,-576.3 352.25,-565.71 345.66,-568.07"/>
</a>
</g>
</g>
<!-- BangD13 -->
<g id="node14" class="node">
<title>BangD13</title>
<ellipse fill="none" stroke="black" cx="210.35" cy="-522" rx="36" ry="18"/>
<text text-anchor="middle" x="210.35" y="-518.3" font-family="Times,serif" font-size="14.00">BangD</text>
</g>
<!-- BangC5&#45;&gt;BangD13 -->
<g id="edge12" class="edge">
<title>BangC5&#45;&gt;BangD13</title>
<g id="a_edge12"><a xlink:title="hf107">
<path fill="none" stroke="blue" d="M252.25,-394.75C244.5,-404.83 235.11,-418.5 229.35,-432 220.88,-451.83 216.04,-475.8 213.37,-493.87"/>
<polygon fill="blue" stroke="blue" points="209.87,-493.63 212,-504.01 216.81,-494.57 209.87,-493.63"/>
</a>
</g>
</g>
<!-- Cut6&#45;&gt;PiL1 -->
<g id="edge33" class="edge">
<title>Cut6&#45;&gt;PiL1</title>
<g id="a_edge33"><a xlink:title="lval48">
<path fill="none" stroke="blue" d="M281.58,-464.83C298.42,-476.56 324.77,-493.37 345.35,-505.55"/>
<polygon fill="blue" stroke="blue" points="343.66,-508.61 354.06,-510.61 347.18,-502.56 343.66,-508.61"/>
</a>
</g>
</g>
<!-- Cut6&#45;&gt;PiL1 -->
<g id="edge60" class="edge">
<title>Cut6&#45;&gt;PiL1</title>
<g id="a_edge60"><a xlink:title="yseq50">
<path fill="none" stroke="black" d="M295.26,-466.41C312.68,-476.7 334.25,-490.34 350.69,-501.41"/>
<polygon fill="black" stroke="black" points="288.29,-458.3 295.18,-466.36 284.77,-464.35 288.29,-458.3"/>
<polygon fill="black" stroke="black" points="349.01,-504.5 359.24,-507.25 352.96,-498.72 349.01,-504.5"/>
</a>
</g>
</g>
<!-- Cut6&#45;&gt;Dup4 -->
<g id="edge40" class="edge">
<title>Cut6&#45;&gt;Dup4</title>
<g id="a_edge40"><a xlink:title="newrretf108">
<path fill="none" stroke="red" d="M266.04,-468.36C267.47,-504.35 270.8,-587.9 272.78,-637.66"/>
<polygon fill="red" stroke="red" points="269.29,-637.89 273.18,-647.74 276.28,-637.61 269.29,-637.89"/>
</a>
</g>
</g>
<!-- Cut6&#45;&gt;BangD13 -->
<g id="edge1" class="edge">
<title>Cut6&#45;&gt;BangD13</title>
<g id="a_edge1"><a xlink:title="c_bseq106">
<path fill="none" stroke="black" d="M253.41,-466.19C246.4,-475.11 237.38,-486.59 229.41,-496.74"/>
<polygon fill="black" stroke="black" points="226.45,-494.84 223.02,-504.87 231.95,-499.17 226.45,-494.84"/>
</a>
</g>
</g>
<!-- Bang7&#45;&gt;Dup4 -->
<g id="edge41" class="edge">
<title>Bang7&#45;&gt;Dup4</title>
<g id="a_edge41"><a xlink:title="newrretf114">
<path fill="none" stroke="red" d="M343.33,-609.66C332.1,-620.62 316.41,-635.94 302.83,-649.19"/>
<polygon fill="none" stroke="red" points="300.26,-646.81 295.55,-656.3 305.15,-651.82 300.26,-646.81"/>
</a>
</g>
</g>
<!-- BangD14 -->
<g id="node15" class="node">
<title>BangD14</title>
<ellipse fill="none" stroke="black" cx="358.35" cy="-678" rx="36" ry="18"/>
<text text-anchor="middle" x="358.35" y="-674.3" font-family="Times,serif" font-size="14.00">BangD</text>
</g>
<!-- Bang7&#45;&gt;BangD14 -->
<g id="edge13" class="edge">
<title>Bang7&#45;&gt;BangD14</title>
<g id="a_edge13"><a xlink:title="hf113">
<path fill="none" stroke="blue" d="M352.75,-611.99C351.56,-622.87 351.29,-637.24 351.94,-649.71"/>
<polygon fill="blue" stroke="blue" points="348.48,-650.33 352.76,-660.03 355.46,-649.79 348.48,-650.33"/>
</a>
</g>
</g>
<!-- Bang7&#45;&gt;BangD14 -->
<g id="edge35" class="edge">
<title>Bang7&#45;&gt;BangD14</title>
<g id="a_edge35"><a xlink:title="newcut_bseq125">
<path fill="none" stroke="black" d="M363.94,-611.99C365.13,-622.87 365.4,-637.24 364.75,-649.71"/>
<polygon fill="black" stroke="black" points="361.23,-649.79 363.94,-660.03 368.21,-650.33 361.23,-649.79"/>
</a>
</g>
</g>
<!-- Dup9 -->
<g id="node10" class="node">
<title>Dup9</title>
<ellipse fill="none" stroke="black" cx="265.35" cy="-306" rx="27" ry="18"/>
<text text-anchor="middle" x="265.35" y="-302.3" font-family="Times,serif" font-size="14.00">Dup</text>
</g>
<!-- PiR8&#45;&gt;Dup9 -->
<g id="edge54" class="edge">
<title>PiR8&#45;&gt;Dup9</title>
<g id="a_edge54"><a xlink:title="seq135">
<path fill="none" stroke="black" d="M253.98,-251.95C255.65,-259.74 257.67,-269.18 259.54,-277.92"/>
<polygon fill="none" stroke="black" points="256.13,-278.68 261.64,-287.72 262.97,-277.21 256.13,-278.68"/>
</a>
</g>
</g>
<!-- Dup10 -->
<g id="node11" class="node">
<title>Dup10</title>
<ellipse fill="none" stroke="black" cx="193.35" cy="-306" rx="27" ry="18"/>
<text text-anchor="middle" x="193.35" y="-302.3" font-family="Times,serif" font-size="14.00">Dup</text>
</g>
<!-- PiR8&#45;&gt;Dup10 -->
<g id="edge10" class="edge">
<title>PiR8&#45;&gt;Dup10</title>
<g id="a_edge10"><a xlink:title="h136">
<path fill="none" stroke="blue" d="M237.98,-250.19C230.43,-259.45 220.64,-271.48 212.15,-281.91"/>
<polygon fill="none" stroke="blue" points="209.29,-279.88 205.69,-289.84 214.72,-284.3 209.29,-279.88"/>
</a>
</g>
</g>
<!-- PiR8&#45;&gt;Dup11 -->
<g id="edge49" class="edge">
<title>PiR8&#45;&gt;Dup11</title>
<g id="a_edge49"><a xlink:title="ret137">
<path fill="none" stroke="red" d="M267.77,-247.84C282.28,-258.53 303.14,-273.9 319.58,-286.01"/>
<polygon fill="none" stroke="red" points="317.58,-288.89 327.71,-292.01 321.74,-283.26 317.58,-288.89"/>
</a>
</g>
</g>
<!-- Dup9&#45;&gt;BangC5 -->
<g id="edge57" class="edge">
<title>Dup9&#45;&gt;BangC5</title>
<g id="a_edge57"><a xlink:title="seq33">
<path fill="none" stroke="black" d="M265.35,-324.3C265.35,-332.02 265.35,-341.29 265.35,-349.89"/>
<polygon fill="black" stroke="black" points="261.85,-349.9 265.35,-359.9 268.85,-349.9 261.85,-349.9"/>
</a>
</g>
</g>
<!-- Dup10&#45;&gt;BangC5 -->
<g id="edge11" class="edge">
<title>Dup10&#45;&gt;BangC5</title>
<g id="a_edge11"><a xlink:title="h34">
<path fill="none" stroke="blue" d="M207.92,-321.17C217.73,-330.71 230.89,-343.5 242.13,-354.43"/>
<polygon fill="blue" stroke="blue" points="239.94,-357.18 249.55,-361.64 244.82,-352.16 239.94,-357.18"/>
</a>
</g>
</g>
<!-- Dup11&#45;&gt;Identity0 -->
<g id="edge52" class="edge">
<title>Dup11&#45;&gt;Identity0</title>
<g id="a_edge52"><a xlink:title="ret42">
<path fill="none" stroke="red" d="M351.1,-323.61C367.56,-371.19 415.01,-508.24 435.14,-566.4"/>
<polygon fill="red" stroke="red" points="431.88,-567.68 438.46,-575.98 438.49,-565.39 431.88,-567.68"/>
</a>
</g>
</g>
<!-- Cut12&#45;&gt;Bang3 -->
<g id="edge6" class="edge">
<title>Cut12&#45;&gt;Bang3</title>
<g id="a_edge6"><a xlink:title="dseq20">
<path fill="none" stroke="black" d="M244.51,-107.59C243.64,-115.49 243.39,-125.15 243.76,-134.06"/>
<polygon fill="black" stroke="black" points="240.27,-134.32 244.47,-144.04 247.25,-133.82 240.27,-134.32"/>
</a>
</g>
</g>
<!-- Cut12&#45;&gt;Bang3 -->
<g id="edge38" class="edge">
<title>Cut12&#45;&gt;Bang3</title>
<g id="a_edge38"><a xlink:title="newrret18">
<path fill="none" stroke="red" d="M256.19,-107.59C257.05,-115.49 257.3,-125.15 256.93,-134.06"/>
<polygon fill="red" stroke="red" points="253.44,-133.82 256.23,-144.04 260.43,-134.32 253.44,-133.82"/>
</a>
</g>
</g>
<!-- Cut12&#45;&gt;Dup9 -->
<g id="edge53" class="edge">
<title>Cut12&#45;&gt;Dup9</title>
<g id="a_edge53"><a xlink:title="seq131">
<path fill="none" stroke="black" d="M271.01,-113.25C277.92,-122.14 284.78,-132.89 288.35,-144 292.31,-156.32 291.16,-228.56 286.35,-252 284.46,-261.2 281.08,-270.86 277.59,-279.37"/>
<polygon fill="black" stroke="black" points="267.16,-103.12 270.84,-113.06 261.77,-107.59 267.16,-103.12"/>
<polygon fill="black" stroke="black" points="274.29,-278.18 273.51,-288.75 280.71,-280.98 274.29,-278.18"/>
</a>
</g>
</g>
<!-- Cut12&#45;&gt;Dup10 -->
<g id="edge9" class="edge">
<title>Cut12&#45;&gt;Dup10</title>
<g id="a_edge9"><a xlink:title="h132">
<path fill="none" stroke="blue" d="M236.42,-106C227.98,-116 217.83,-129.85 212.35,-144 195.08,-188.56 192.36,-244.84 192.48,-277.69"/>
<polygon fill="blue" stroke="blue" points="188.99,-277.93 192.62,-287.88 195.99,-277.84 188.99,-277.93"/>
</a>
</g>
</g>
<!-- PiL15 -->
<g id="node16" class="node">
<title>PiL15</title>
<ellipse fill="none" stroke="black" cx="210.35" cy="-594" rx="27" ry="18"/>
<text text-anchor="middle" x="210.35" y="-590.3" font-family="Times,serif" font-size="14.00">PiL</text>
</g>
<!-- BangD13&#45;&gt;PiL15 -->
<g id="edge14" class="edge">
<title>BangD13&#45;&gt;PiL15</title>
<g id="a_edge14"><a xlink:title="hseq140">
<path fill="none" stroke="black" d="M204.47,-539.95C203.64,-547.77 203.4,-557.25 203.76,-566.02"/>
<polygon fill="black" stroke="black" points="200.28,-566.49 204.49,-576.21 207.26,-565.99 200.28,-566.49"/>
</a>
</g>
</g>
<!-- BangD13&#45;&gt;PiL15 -->
<g id="edge31" class="edge">
<title>BangD13&#45;&gt;PiL15</title>
<g id="a_edge31"><a xlink:title="lval141">
<path fill="none" stroke="blue" d="M216.22,-539.95C217.06,-547.77 217.29,-557.25 216.94,-566.02"/>
<polygon fill="blue" stroke="blue" points="213.43,-565.99 216.21,-576.21 220.41,-566.49 213.43,-565.99"/>
</a>
</g>
</g>
<!-- PiL16 -->
<g id="node17" class="node">
<title>PiL16</title>
<ellipse fill="none" stroke="black" cx="358.35" cy="-762" rx="27" ry="18"/>
<text text-anchor="middle" x="358.35" y="-758.3" font-family="Times,serif" font-size="14.00">PiL</text>
</g>
<!-- BangD14&#45;&gt;PiL16 -->
<g id="edge15" class="edge">
<title>BangD14&#45;&gt;PiL16</title>
<g id="a_edge15"><a xlink:title="hseq143">
<path fill="none" stroke="black" d="M352.75,-695.99C351.54,-707.06 351.28,-721.73 351.98,-734.33"/>
<polygon fill="black" stroke="black" points="348.49,-734.62 352.79,-744.31 355.47,-734.06 348.49,-734.62"/>
</a>
</g>
</g>
<!-- BangD14&#45;&gt;PiL16 -->
<g id="edge32" class="edge">
<title>BangD14&#45;&gt;PiL16</title>
<g id="a_edge32"><a xlink:title="lval144">
<path fill="none" stroke="blue" d="M363.94,-695.99C365.15,-707.06 365.41,-721.73 364.72,-734.33"/>
<polygon fill="blue" stroke="blue" points="361.23,-734.06 363.91,-744.31 368.2,-734.62 361.23,-734.06"/>
</a>
</g>
</g>
<!-- Dup17 -->
<g id="node18" class="node">
<title>Dup17</title>
<ellipse fill="none" stroke="black" cx="272.35" cy="-834" rx="27" ry="18"/>
<text text-anchor="middle" x="272.35" y="-830.3" font-family="Times,serif" font-size="14.00">Dup</text>
</g>
<!-- PiL15&#45;&gt;Dup17 -->
<g id="edge18" class="edge">
<title>PiL15&#45;&gt;Dup17</title>
<g id="a_edge18"><a xlink:title="idseq148">
<path fill="none" stroke="black" d="M215.76,-621.97C220.5,-644.94 227.8,-678.77 235.35,-708 244.2,-742.28 256.05,-781.34 263.93,-806.54"/>
<polygon fill="black" stroke="black" points="217.14,-611.23 215.71,-621.73 210.28,-612.64 217.14,-611.23"/>
<polygon fill="black" stroke="black" points="260.6,-807.63 266.94,-816.12 267.28,-805.53 260.6,-807.63"/>
</a>
</g>
</g>
<!-- Bang18 -->
<g id="node19" class="node">
<title>Bang18</title>
<ellipse fill="none" stroke="black" cx="83.35" cy="-678" rx="29.5" ry="18"/>
<text text-anchor="middle" x="83.35" y="-674.3" font-family="Times,serif" font-size="14.00">Bang</text>
</g>
<!-- PiL15&#45;&gt;Bang18 -->
<g id="edge4" class="edge">
<title>PiL15&#45;&gt;Bang18</title>
<g id="a_edge4"><a xlink:title="dseq146">
<path fill="none" stroke="black" d="M188.14,-604.63C168.84,-615.14 141.03,-632.55 117.35,-648 113.42,-650.56 109.32,-653.28 105.34,-655.98"/>
<polygon fill="black" stroke="black" points="103.17,-653.23 96.97,-661.82 107.17,-658.97 103.17,-653.23"/>
</a>
</g>
</g>
<!-- PiL15&#45;&gt;Bang18 -->
<g id="edge36" class="edge">
<title>PiL15&#45;&gt;Bang18</title>
<g id="a_edge36"><a xlink:title="newrret147">
<path fill="none" stroke="red" d="M195.2,-608.99C179.79,-619.57 156,-634.53 135.35,-648 128.92,-652.19 122,-656.81 115.3,-661.1"/>
<polygon fill="red" stroke="red" points="113,-658.42 106.37,-666.69 116.71,-664.35 113,-658.42"/>
</a>
</g>
</g>
<!-- Identity26 -->
<g id="node27" class="node">
<title>Identity26</title>
<ellipse fill="none" stroke="black" cx="187.35" cy="-978" rx="38.19" ry="18"/>
<text text-anchor="middle" x="187.35" y="-974.3" font-family="Times,serif" font-size="14.00">Identity</text>
</g>
<!-- PiL15&#45;&gt;Identity26 -->
<g id="edge28" class="edge">
<title>PiL15&#45;&gt;Identity26</title>
<g id="a_edge28"><a xlink:title="lret149">
<path fill="none" stroke="blue" d="M198.79,-610.56C178.91,-638.92 140.35,-701.57 140.35,-761 140.35,-761 140.35,-761 140.35,-835 140.35,-875.44 145.55,-885.98 159.35,-924 162.74,-933.33 167.49,-943.08 172.12,-951.63"/>
<polygon fill="blue" stroke="blue" points="169.08,-953.35 177.03,-960.36 175.18,-949.93 169.08,-953.35"/>
</a>
</g>
</g>
<!-- PiL16&#45;&gt;Dup17 -->
<g id="edge19" class="edge">
<title>PiL16&#45;&gt;Dup17</title>
<g id="a_edge19"><a xlink:title="idseq153">
<path fill="none" stroke="black" d="M333.75,-783.02C322.18,-792.44 308.41,-803.64 296.84,-813.06"/>
<polygon fill="black" stroke="black" points="343.97,-779.21 334.01,-782.8 339.56,-773.78 343.97,-779.21"/>
<polygon fill="none" stroke="black" points="294.42,-810.51 288.88,-819.54 298.84,-815.94 294.42,-810.51"/>
</a>
</g>
</g>
<!-- Bang19 -->
<g id="node20" class="node">
<title>Bang19</title>
<ellipse fill="none" stroke="black" cx="386.35" cy="-834" rx="29.5" ry="18"/>
<text text-anchor="middle" x="386.35" y="-830.3" font-family="Times,serif" font-size="14.00">Bang</text>
</g>
<!-- PiL16&#45;&gt;Bang19 -->
<g id="edge5" class="edge">
<title>PiL16&#45;&gt;Bang19</title>
<g id="a_edge5"><a xlink:title="dseq151">
<path fill="none" stroke="black" d="M359.35,-780.3C361.85,-788.71 365.77,-798.98 369.94,-808.2"/>
<polygon fill="black" stroke="black" points="366.84,-809.84 374.34,-817.32 373.15,-806.8 366.84,-809.84"/>
</a>
</g>
</g>
<!-- PiL16&#45;&gt;Bang19 -->
<g id="edge37" class="edge">
<title>PiL16&#45;&gt;Bang19</title>
<g id="a_edge37"><a xlink:title="newrret152">
<path fill="none" stroke="red" d="M370.28,-778.53C374.45,-786.58 378.77,-796.63 382.11,-805.91"/>
<polygon fill="red" stroke="red" points="378.83,-807.14 385.29,-815.53 385.47,-804.94 378.83,-807.14"/>
</a>
</g>
</g>
<!-- Identity27 -->
<g id="node28" class="node">
<title>Identity27</title>
<ellipse fill="none" stroke="black" cx="282.35" cy="-978" rx="38.19" ry="18"/>
<text text-anchor="middle" x="282.35" y="-974.3" font-family="Times,serif" font-size="14.00">Identity</text>
</g>
<!-- PiL16&#45;&gt;Identity27 -->
<g id="edge29" class="edge">
<title>PiL16&#45;&gt;Identity27</title>
<g id="a_edge29"><a xlink:title="lret154">
<path fill="none" stroke="blue" d="M354.49,-779.82C347.42,-809.53 331.2,-872.96 310.35,-924 306.59,-933.19 301.74,-942.9 297.14,-951.46"/>
<polygon fill="blue" stroke="blue" points="294.07,-949.77 292.3,-960.22 300.2,-953.16 294.07,-949.77"/>
</a>
</g>
</g>
<!-- DupI28 -->
<g id="node29" class="node">
<title>DupI28</title>
<ellipse fill="none" stroke="black" cx="272.35" cy="-906" rx="28.7" ry="18"/>
<text text-anchor="middle" x="272.35" y="-902.3" font-family="Times,serif" font-size="14.00">DupI</text>
</g>
<!-- Dup17&#45;&gt;DupI28 -->
<g id="edge23" class="edge">
<title>Dup17&#45;&gt;DupI28</title>
<g id="a_edge23"><a xlink:title="idseq77">
<path fill="none" stroke="black" d="M272.35,-852.3C272.35,-860.01 272.35,-869.28 272.35,-877.88"/>
<polygon fill="black" stroke="black" points="268.85,-877.89 272.35,-887.89 275.85,-877.89 268.85,-877.89"/>
</a>
</g>
</g>
<!-- PiR20 -->
<g id="node21" class="node">
<title>PiR20</title>
<ellipse fill="none" stroke="black" cx="83.35" cy="-762" rx="27" ry="18"/>
<text text-anchor="middle" x="83.35" y="-758.3" font-family="Times,serif" font-size="14.00">PiR</text>
</g>
<!-- Bang18&#45;&gt;PiR20 -->
<g id="edge2" class="edge">
<title>Bang18&#45;&gt;PiR20</title>
<g id="a_edge2"><a xlink:title="c_bseq156">
<path fill="none" stroke="black" d="M77.75,-695.99C76.54,-707.06 76.28,-721.73 76.98,-734.33"/>
<polygon fill="black" stroke="black" points="73.49,-734.62 77.79,-744.31 80.47,-734.06 73.49,-734.62"/>
</a>
</g>
</g>
<!-- Bang18&#45;&gt;PiR20 -->
<g id="edge42" class="edge">
<title>Bang18&#45;&gt;PiR20</title>
<g id="a_edge42"><a xlink:title="newrretf157">
<path fill="none" stroke="red" d="M88.94,-695.99C90.15,-707.06 90.41,-721.73 89.72,-734.33"/>
<polygon fill="red" stroke="red" points="86.23,-734.06 88.91,-744.31 93.2,-734.62 86.23,-734.06"/>
</a>
</g>
</g>
<!-- PiR21 -->
<g id="node22" class="node">
<title>PiR21</title>
<ellipse fill="none" stroke="black" cx="386.35" cy="-906" rx="27" ry="18"/>
<text text-anchor="middle" x="386.35" y="-902.3" font-family="Times,serif" font-size="14.00">PiR</text>
</g>
<!-- Bang19&#45;&gt;PiR21 -->
<g id="edge3" class="edge">
<title>Bang19&#45;&gt;PiR21</title>
<g id="a_edge3"><a xlink:title="c_bseq159">
<path fill="none" stroke="black" d="M380.47,-851.94C379.64,-859.76 379.4,-869.25 379.76,-878.02"/>
<polygon fill="black" stroke="black" points="376.28,-878.48 380.49,-888.21 383.26,-877.98 376.28,-878.48"/>
</a>
</g>
</g>
<!-- Bang19&#45;&gt;PiR21 -->
<g id="edge43" class="edge">
<title>Bang19&#45;&gt;PiR21</title>
<g id="a_edge43"><a xlink:title="newrretf160">
<path fill="none" stroke="red" d="M392.22,-851.94C393.06,-859.76 393.29,-869.25 392.94,-878.02"/>
<polygon fill="red" stroke="red" points="389.43,-877.98 392.21,-888.21 396.41,-878.48 389.43,-877.98"/>
</a>
</g>
</g>
<!-- BangD22 -->
<g id="node23" class="node">
<title>BangD22</title>
<ellipse fill="none" stroke="black" cx="38.35" cy="-834" rx="36" ry="18"/>
<text text-anchor="middle" x="38.35" y="-830.3" font-family="Times,serif" font-size="14.00">BangD</text>
</g>
<!-- PiR20&#45;&gt;BangD22 -->
<g id="edge16" class="edge">
<title>PiR20&#45;&gt;BangD22</title>
<g id="a_edge16"><a xlink:title="i163">
<path fill="none" stroke="blue" d="M68.69,-777.16C62.01,-785.79 54.43,-797.07 48.37,-807.23"/>
<polygon fill="blue" stroke="blue" points="45.21,-805.71 43.32,-816.14 51.3,-809.17 45.21,-805.71"/>
</a>
</g>
</g>
<!-- PiR20&#45;&gt;BangD22 -->
<g id="edge55" class="edge">
<title>PiR20&#45;&gt;BangD22</title>
<g id="a_edge55"><a xlink:title="seq162">
<path fill="none" stroke="black" d="M78.33,-779.94C73.56,-788.83 66.65,-799.86 59.83,-809.55"/>
<polygon fill="black" stroke="black" points="56.99,-807.5 53.92,-817.64 62.64,-811.63 56.99,-807.5"/>
</a>
</g>
</g>
<!-- Identity24 -->
<g id="node25" class="node">
<title>Identity24</title>
<ellipse fill="none" stroke="black" cx="38.35" cy="-906" rx="38.19" ry="18"/>
<text text-anchor="middle" x="38.35" y="-902.3" font-family="Times,serif" font-size="14.00">Identity</text>
</g>
<!-- PiR20&#45;&gt;Identity24 -->
<g id="edge50" class="edge">
<title>PiR20&#45;&gt;Identity24</title>
<g id="a_edge50"><a xlink:title="ret164">
<path fill="none" stroke="red" d="M86.73,-780C89.63,-798.37 92.08,-828.21 83.35,-852 79.2,-863.27 71.48,-873.79 63.59,-882.44"/>
<polygon fill="red" stroke="red" points="60.86,-880.22 56.39,-889.82 65.88,-885.11 60.86,-880.22"/>
</a>
</g>
</g>
<!-- BangD23 -->
<g id="node24" class="node">
<title>BangD23</title>
<ellipse fill="none" stroke="black" cx="386.35" cy="-978" rx="36" ry="18"/>
<text text-anchor="middle" x="386.35" y="-974.3" font-family="Times,serif" font-size="14.00">BangD</text>
</g>
<!-- PiR21&#45;&gt;BangD23 -->
<g id="edge17" class="edge">
<title>PiR21&#45;&gt;BangD23</title>
<g id="a_edge17"><a xlink:title="i167">
<path fill="none" stroke="blue" d="M380.51,-923.58C379.64,-931.49 379.39,-941.14 379.76,-950.06"/>
<polygon fill="blue" stroke="blue" points="376.27,-950.31 380.47,-960.04 383.25,-949.82 376.27,-950.31"/>
</a>
</g>
</g>
<!-- PiR21&#45;&gt;BangD23 -->
<g id="edge56" class="edge">
<title>PiR21&#45;&gt;BangD23</title>
<g id="a_edge56"><a xlink:title="seq166">
<path fill="none" stroke="black" d="M392.19,-923.58C393.05,-931.49 393.3,-941.14 392.93,-950.06"/>
<polygon fill="black" stroke="black" points="389.44,-949.82 392.23,-960.04 396.43,-950.31 389.44,-949.82"/>
</a>
</g>
</g>
<!-- Identity25 -->
<g id="node26" class="node">
<title>Identity25</title>
<ellipse fill="none" stroke="black" cx="386.35" cy="-1050" rx="38.19" ry="18"/>
<text text-anchor="middle" x="386.35" y="-1046.3" font-family="Times,serif" font-size="14.00">Identity</text>
</g>
<!-- PiR21&#45;&gt;Identity25 -->
<g id="edge51" class="edge">
<title>PiR21&#45;&gt;Identity25</title>
<g id="a_edge51"><a xlink:title="ret168">
<path fill="none" stroke="red" d="M402.55,-920.43C412.98,-930.18 425.6,-944.36 431.35,-960 436.86,-975.01 436.86,-980.98 431.35,-996 427.2,-1007.27 419.48,-1017.79 411.59,-1026.44"/>
<polygon fill="red" stroke="red" points="408.86,-1024.22 404.39,-1033.82 413.88,-1029.11 408.86,-1024.22"/>
</a>
</g>
</g>
<!-- BangD22&#45;&gt;Identity24 -->
<g id="edge24" class="edge">
<title>BangD22&#45;&gt;Identity24</title>
<g id="a_edge24"><a xlink:title="iret171">
<path fill="none" stroke="blue" d="M32.47,-851.94C31.64,-859.76 31.4,-869.25 31.76,-878.02"/>
<polygon fill="blue" stroke="blue" points="28.28,-878.48 32.49,-888.21 35.26,-877.98 28.28,-878.48"/>
</a>
</g>
</g>
<!-- BangD22&#45;&gt;Identity24 -->
<g id="edge26" class="edge">
<title>BangD22&#45;&gt;Identity24</title>
<g id="a_edge26"><a xlink:title="iseq170">
<path fill="none" stroke="black" d="M44.22,-851.94C45.06,-859.76 45.29,-869.25 44.94,-878.02"/>
<polygon fill="black" stroke="black" points="41.43,-877.98 44.21,-888.21 48.41,-878.48 41.43,-877.98"/>
</a>
</g>
</g>
<!-- BangD23&#45;&gt;Identity25 -->
<g id="edge25" class="edge">
<title>BangD23&#45;&gt;Identity25</title>
<g id="a_edge25"><a xlink:title="iret174">
<path fill="none" stroke="blue" d="M380.47,-995.94C379.64,-1003.76 379.4,-1013.25 379.76,-1022.02"/>
<polygon fill="blue" stroke="blue" points="376.28,-1022.48 380.49,-1032.21 383.26,-1021.98 376.28,-1022.48"/>
</a>
</g>
</g>
<!-- BangD23&#45;&gt;Identity25 -->
<g id="edge27" class="edge">
<title>BangD23&#45;&gt;Identity25</title>
<g id="a_edge27"><a xlink:title="iseq173">
<path fill="none" stroke="black" d="M392.22,-995.94C393.06,-1003.76 393.29,-1013.25 392.94,-1022.02"/>
<polygon fill="black" stroke="black" points="389.43,-1021.98 392.21,-1032.21 396.41,-1022.48 389.43,-1021.98"/>
</a>
</g>
</g>
<!-- DupI28&#45;&gt;Identity26 -->
<g id="edge20" class="edge">
<title>DupI28&#45;&gt;Identity26</title>
<g id="a_edge20"><a xlink:title="idseq180">
<path fill="none" stroke="black" d="M255.55,-920.83C243.61,-930.66 227.34,-944.06 213.68,-955.31"/>
<polygon fill="black" stroke="black" points="211.07,-952.92 205.58,-961.98 215.52,-958.33 211.07,-952.92"/>
</a>
</g>
</g>
<!-- DupI28&#45;&gt;Identity27 -->
<g id="edge21" class="edge">
<title>DupI28&#45;&gt;Identity27</title>
<g id="a_edge21"><a xlink:title="idseq182">
<path fill="none" stroke="black" d="M276.2,-933.99C276.94,-939.12 277.7,-944.5 278.44,-949.64"/>
<polygon fill="black" stroke="black" points="278.23,-923.45 276.18,-933.84 271.3,-924.44 278.23,-923.45"/>
<polygon fill="black" stroke="black" points="275,-950.32 279.88,-959.72 281.93,-949.33 275,-950.32"/>
</a>
</g>
</g>
<!-- DupI29&#45;&gt;Identity26 -->
<g id="edge44" class="edge">
<title>DupI29&#45;&gt;Identity26</title>
<g id="a_edge44"><a xlink:title="newrretf181">
<path fill="none" stroke="red" d="M194.93,-923.94C193.82,-931.65 192.49,-940.97 191.26,-949.63"/>
<polygon fill="red" stroke="red" points="187.76,-949.33 189.81,-959.72 194.69,-950.32 187.76,-949.33"/>
</a>
</g>
</g>
<!-- DupI29&#45;&gt;Identity27 -->
<g id="edge45" class="edge">
<title>DupI29&#45;&gt;Identity27</title>
<g id="a_edge45"><a xlink:title="newrretf183">
<path fill="none" stroke="red" d="M222.07,-927.36C232.78,-936.18 245.33,-946.51 256.19,-955.46"/>
<polygon fill="red" stroke="red" points="216.36,-918.12 221.86,-927.18 211.91,-923.53 216.36,-918.12"/>
<polygon fill="red" stroke="red" points="254.17,-958.33 264.12,-961.98 258.62,-952.92 254.17,-958.33"/>
</a>
</g>
</g>
</g>
</svg>
