<?xml version="1.0" encoding="UTF-8" standalone="no"?>
<!DOCTYPE svg PUBLIC "-//W3C//DTD SVG 1.1//EN"
 "http://www.w3.org/Graphics/SVG/1.1/DTD/svg11.dtd">
<!-- Generated by graphviz version 2.43.0 (0)
 -->
<!-- Title: %3 Pages: 1 -->
<svg width="322pt" height="866pt"
 viewBox="0.00 0.00 322.00 866.49" xmlns="http://www.w3.org/2000/svg" xmlns:xlink="http://www.w3.org/1999/xlink">
<g id="graph0" class="graph" transform="scale(1 1) rotate(0) translate(4 862.49)">
<title>%3</title>
<polygon fill="white" stroke="transparent" points="-4,4 -4,-862.49 318,-862.49 318,4 -4,4"/>
<!-- Root0 -->
<g id="node1" class="node">
<title>Root0</title>
<ellipse fill="none" stroke="black" cx="283" cy="-840.49" rx="30.59" ry="18"/>
<text text-anchor="middle" x="283" y="-836.79" font-family="Times-Roman" font-size="14.00">Root</text>
</g>
<!-- Dup1_0 -->
<g id="node16" class="node">
<title>Dup1_0</title>
<ellipse fill="none" stroke="black" cx="283" cy="-768.49" rx="29.5" ry="18"/>
<text text-anchor="middle" x="283" y="-764.79" font-family="Times-Roman" font-size="14.00">Dup</text>
</g>
<!-- Root0&#45;&gt;Dup1_0 -->
<g id="edge22" class="edge">
<title>Root0&#45;&gt;Dup1_0</title>
<g id="a_edge22"><a xlink:title="ret">
<path fill="none" stroke="red" stroke-width="2" d="M283,-822.19C283,-813.88 283,-803.77 283,-794.64"/>
<ellipse fill="none" stroke="red" stroke-width="2" cx="283" cy="-790.6" rx="4" ry="4"/>
</a>
</g>
</g>
<!-- I0 -->
<g id="node2" class="node">
<title>I0</title>
<ellipse fill="none" stroke="black" cx="145" cy="-306" rx="27" ry="18"/>
<text text-anchor="middle" x="145" y="-302.3" font-family="Times-Roman" font-size="14.00">I</text>
</g>
<!-- Dup0_0 -->
<g id="node4" class="node">
<title>Dup0_0</title>
<ellipse fill="none" stroke="black" cx="145" cy="-234" rx="29.5" ry="18"/>
<text text-anchor="middle" x="145" y="-230.3" font-family="Times-Roman" font-size="14.00">Dup</text>
</g>
<!-- I0&#45;&gt;Dup0_0 -->
<g id="edge23" class="edge">
<title>I0&#45;&gt;Dup0_0</title>
<g id="a_edge23"><a xlink:title="x1_o2">
<path fill="none" stroke="blue" d="M145,-277.67C145,-269.05 145,-259.79 145,-252.1"/>
<polygon fill="blue" stroke="blue" points="141.5,-277.7 145,-287.7 148.5,-277.7 141.5,-277.7"/>
</a>
</g>
</g>
<!-- I1 -->
<g id="node3" class="node">
<title>I1</title>
<ellipse fill="none" stroke="black" cx="256" cy="-696.49" rx="27" ry="18"/>
<text text-anchor="middle" x="256" y="-692.79" font-family="Times-Roman" font-size="14.00">I</text>
</g>
<!-- Dup1_2 -->
<g id="node18" class="node">
<title>Dup1_2</title>
<ellipse fill="none" stroke="black" cx="248" cy="-609.25" rx="29.47" ry="29.47"/>
<ellipse fill="none" stroke="black" cx="248" cy="-609.25" rx="33.5" ry="33.5"/>
<text text-anchor="middle" x="248" y="-605.55" font-family="Times-Roman" font-size="14.00">Dup</text>
</g>
<!-- I1&#45;&gt;Dup1_2 -->
<g id="edge2" class="edge">
<title>I1&#45;&gt;Dup1_2</title>
<g id="a_edge2"><a xlink:title="e14">
<path fill="none" stroke="blue" stroke-width="2" d="M253.44,-668.17C252.67,-660.05 251.83,-651.06 251.04,-642.65"/>
<polygon fill="blue" stroke="blue" stroke-width="2" points="249.96,-668.61 254.38,-678.24 256.93,-667.96 249.96,-668.61"/>
</a>
</g>
</g>
<!-- Cut0 -->
<g id="node7" class="node">
<title>Cut0</title>
<ellipse fill="none" stroke="black" cx="213" cy="-162" rx="27" ry="18"/>
<text text-anchor="middle" x="213" y="-158.3" font-family="Times-Roman" font-size="14.00">Cut</text>
</g>
<!-- Dup0_0&#45;&gt;Cut0 -->
<g id="edge1" class="edge">
<title>Dup0_0&#45;&gt;Cut0</title>
<g id="a_edge1"><a xlink:title="e10">
<path fill="none" stroke="blue" d="M165.13,-212.28C175.88,-201.21 188.87,-187.84 198.6,-177.82"/>
<ellipse fill="none" stroke="blue" cx="162.21" cy="-215.29" rx="4" ry="4"/>
</a>
</g>
</g>
<!-- Dup1_1 -->
<g id="node17" class="node">
<title>Dup1_1</title>
<ellipse fill="none" stroke="black" cx="139" cy="-162" rx="29.5" ry="18"/>
<text text-anchor="middle" x="139" y="-158.3" font-family="Times-Roman" font-size="14.00">Dup</text>
</g>
<!-- Dup0_0&#45;&gt;Dup1_1 -->
<g id="edge21" class="edge">
<title>Dup0_0&#45;&gt;Dup1_1</title>
<g id="a_edge21"><a xlink:title="e8">
<path fill="none" stroke="blue" d="M142.83,-207.64C142.04,-198.49 141.18,-188.38 140.47,-180.1"/>
<ellipse fill="blue" stroke="blue" cx="143.18" cy="-211.71" rx="4" ry="4"/>
</a>
</g>
</g>
<!-- Dup0_1 -->
<g id="node5" class="node">
<title>Dup0_1</title>
<ellipse fill="none" stroke="black" cx="145" cy="-378" rx="29.5" ry="18"/>
<text text-anchor="middle" x="145" y="-374.3" font-family="Times-Roman" font-size="14.00">Dup</text>
</g>
<!-- Dup0_1&#45;&gt;I0 -->
<g id="edge24" class="edge">
<title>Dup0_1&#45;&gt;I0</title>
<g id="a_edge24"><a xlink:title="x1_o2r">
<path fill="none" stroke="red" d="M145,-359.7C145,-351.98 145,-342.71 145,-334.11"/>
<polygon fill="red" stroke="red" points="148.5,-334.1 145,-324.1 141.5,-334.1 148.5,-334.1"/>
</a>
</g>
</g>
<!-- !p0 -->
<g id="node6" class="node">
<title>!p0</title>
<ellipse fill="none" stroke="black" cx="187" cy="-90" rx="27" ry="18"/>
<text text-anchor="middle" x="187" y="-86.3" font-family="Times-Roman" font-size="14.00">!p</text>
</g>
<!-- PiR0 -->
<g id="node8" class="node">
<title>PiR0</title>
<ellipse fill="none" stroke="black" cx="259" cy="-18" rx="27" ry="18"/>
<text text-anchor="middle" x="259" y="-14.3" font-family="Times-Roman" font-size="14.00">PiR</text>
</g>
<!-- !p0&#45;&gt;PiR0 -->
<g id="edge6" class="edge">
<title>!p0&#45;&gt;PiR0</title>
<g id="a_edge6"><a xlink:title="e20">
<path fill="none" stroke="red" d="M201.57,-74.83C211.75,-64.94 225.52,-51.55 237.03,-40.36"/>
<polygon fill="red" stroke="red" points="239.47,-42.87 244.2,-33.38 234.59,-37.85 239.47,-42.87"/>
</a>
</g>
</g>
<!-- Cut0&#45;&gt;!p0 -->
<g id="edge5" class="edge">
<title>Cut0&#45;&gt;!p0</title>
<g id="a_edge5"><a xlink:title="e18">
<path fill="none" stroke="red" d="M206.84,-144.41C203.84,-136.34 200.16,-126.43 196.79,-117.35"/>
<polygon fill="red" stroke="red" points="200.06,-116.11 193.3,-107.96 193.5,-118.55 200.06,-116.11"/>
</a>
</g>
</g>
<!-- PiR0&#45;&gt;Dup1_0 -->
<g id="edge9" class="edge">
<title>PiR0&#45;&gt;Dup1_0</title>
<g id="a_edge9"><a xlink:title="e24">
<path fill="none" stroke="red" d="M271.75,-34.3C279.56,-44.41 289.15,-58.29 295,-72 310.88,-109.2 314,-120.55 314,-161 314,-610.25 314,-610.25 314,-610.25 314,-657.81 300.18,-711.96 290.99,-742.7"/>
<ellipse fill="red" stroke="red" cx="289.71" cy="-746.9" rx="4" ry="4"/>
</a>
</g>
</g>
<!-- Cut1 -->
<g id="node9" class="node">
<title>Cut1</title>
<ellipse fill="none" stroke="black" cx="55" cy="-18" rx="27" ry="18"/>
<text text-anchor="middle" x="55" y="-14.3" font-family="Times-Roman" font-size="14.00">Cut</text>
</g>
<!-- Cut1&#45;&gt;Dup0_1 -->
<g id="edge4" class="edge">
<title>Cut1&#45;&gt;Dup0_1</title>
<g id="a_edge4"><a xlink:title="e17">
<path fill="none" stroke="red" d="M60.33,-35.85C68.2,-62.25 82,-115.08 82,-161 82,-235 82,-235 82,-235 82,-276.34 91.18,-286.7 109,-324 114.12,-334.72 121.23,-345.72 127.78,-354.9"/>
<ellipse fill="none" stroke="red" cx="130.28" cy="-358.3" rx="4" ry="4"/>
</a>
</g>
</g>
<!-- !c0 -->
<g id="node10" class="node">
<title>!c0</title>
<ellipse fill="none" stroke="black" cx="259" cy="-90" rx="27" ry="18"/>
<text text-anchor="middle" x="259" y="-86.3" font-family="Times-Roman" font-size="14.00">!c</text>
</g>
<!-- !c0&#45;&gt;PiR0 -->
<g id="edge7" class="edge">
<title>!c0&#45;&gt;PiR0</title>
<g id="a_edge7"><a xlink:title="e22">
<path fill="none" stroke="blue" d="M259,-61.67C259,-53.05 259,-43.79 259,-36.1"/>
<polygon fill="blue" stroke="blue" points="255.5,-61.7 259,-71.7 262.5,-61.7 255.5,-61.7"/>
</a>
</g>
</g>
<!-- !c1 -->
<g id="node11" class="node">
<title>!c1</title>
<ellipse fill="none" stroke="black" cx="27" cy="-90" rx="27" ry="18"/>
<text text-anchor="middle" x="27" y="-86.3" font-family="Times-Roman" font-size="14.00">!c</text>
</g>
<!-- !c1&#45;&gt;Cut1 -->
<g id="edge8" class="edge">
<title>!c1&#45;&gt;Cut1</title>
<g id="a_edge8"><a xlink:title="e23">
<path fill="none" stroke="blue" d="M37.44,-62.91C41.11,-53.72 45.14,-43.65 48.41,-35.47"/>
<polygon fill="blue" stroke="blue" points="34.1,-61.83 33.64,-72.41 40.6,-64.43 34.1,-61.83"/>
</a>
</g>
</g>
<!-- !d0 -->
<g id="node12" class="node">
<title>!d0</title>
<ellipse fill="none" stroke="black" cx="258" cy="-378" rx="27" ry="18"/>
<text text-anchor="middle" x="258" y="-374.3" font-family="Times-Roman" font-size="14.00">!d</text>
</g>
<!-- !d0&#45;&gt;!c0 -->
<g id="edge11" class="edge">
<title>!d0&#45;&gt;!c0</title>
<g id="a_edge11"><a xlink:title="e27">
<path fill="none" stroke="blue" d="M258.1,-349.7C258.3,-291.44 258.77,-156.31 258.94,-108.31"/>
<polygon fill="blue" stroke="blue" points="254.59,-349.95 258.06,-359.97 261.59,-349.98 254.59,-349.95"/>
</a>
</g>
</g>
<!-- !d1 -->
<g id="node13" class="node">
<title>!d1</title>
<ellipse fill="none" stroke="black" cx="27" cy="-306" rx="27" ry="18"/>
<text text-anchor="middle" x="27" y="-302.3" font-family="Times-Roman" font-size="14.00">!d</text>
</g>
<!-- !d1&#45;&gt;!c1 -->
<g id="edge13" class="edge">
<title>!d1&#45;&gt;!c1</title>
<g id="a_edge13"><a xlink:title="e29">
<path fill="none" stroke="blue" d="M27,-277.71C27,-232.98 27,-145.32 27,-108.23"/>
<polygon fill="blue" stroke="blue" points="23.5,-277.85 27,-287.85 30.5,-277.85 23.5,-277.85"/>
</a>
</g>
</g>
<!-- PiL0 -->
<g id="node14" class="node">
<title>PiL0</title>
<ellipse fill="none" stroke="black" cx="248" cy="-522" rx="27" ry="18"/>
<text text-anchor="middle" x="248" y="-518.3" font-family="Times-Roman" font-size="14.00">PiL</text>
</g>
<!-- PiL0&#45;&gt;!d0 -->
<g id="edge14" class="edge">
<title>PiL0&#45;&gt;!d0</title>
<g id="a_edge14"><a xlink:title="e30">
<path fill="none" stroke="blue" d="M249.92,-493.68C251.95,-464.89 255.08,-420.42 256.79,-396.19"/>
<polygon fill="blue" stroke="blue" points="246.42,-493.65 249.21,-503.87 253.4,-494.14 246.42,-493.65"/>
</a>
</g>
</g>
<!-- Dup1_3 -->
<g id="node19" class="node">
<title>Dup1_3</title>
<ellipse fill="none" stroke="black" cx="166" cy="-450" rx="29.5" ry="18"/>
<text text-anchor="middle" x="166" y="-446.3" font-family="Times-Roman" font-size="14.00">Dup</text>
</g>
<!-- PiL0&#45;&gt;Dup1_3 -->
<g id="edge18" class="edge">
<title>PiL0&#45;&gt;Dup1_3</title>
<g id="a_edge18"><a xlink:title="e34">
<path fill="none" stroke="red" d="M231.8,-507.17C219.53,-496.69 202.5,-482.16 188.85,-470.5"/>
<ellipse fill="red" stroke="red" cx="185.49" cy="-467.64" rx="4" ry="4"/>
</a>
</g>
</g>
<!-- PiL1 -->
<g id="node15" class="node">
<title>PiL1</title>
<ellipse fill="none" stroke="black" cx="166" cy="-522" rx="27" ry="18"/>
<text text-anchor="middle" x="166" y="-518.3" font-family="Times-Roman" font-size="14.00">PiL</text>
</g>
<!-- PiL1&#45;&gt;!d1 -->
<g id="edge15" class="edge">
<title>PiL1&#45;&gt;!d1</title>
<g id="a_edge15"><a xlink:title="e31">
<path fill="none" stroke="blue" d="M148.48,-497.23C141.93,-488.17 134.5,-477.69 128,-468 93.06,-415.95 54.35,-352.47 36.71,-323.21"/>
<polygon fill="blue" stroke="blue" points="145.72,-499.38 154.44,-505.41 151.38,-495.26 145.72,-499.38"/>
</a>
</g>
</g>
<!-- PiL1&#45;&gt;Dup1_3 -->
<g id="edge19" class="edge">
<title>PiL1&#45;&gt;Dup1_3</title>
<g id="a_edge19"><a xlink:title="e35">
<path fill="none" stroke="red" d="M166,-503.7C166,-495.39 166,-485.28 166,-476.14"/>
<ellipse fill="none" stroke="red" cx="166" cy="-472.1" rx="4" ry="4"/>
</a>
</g>
</g>
<!-- Dup1_0&#45;&gt;I1 -->
<g id="edge20" class="edge">
<title>Dup1_0&#45;&gt;I1</title>
<g id="a_edge20"><a xlink:title="e6">
<path fill="none" stroke="red" stroke-width="2" d="M276.6,-750.91C273.49,-742.83 269.67,-732.93 266.17,-723.85"/>
<polygon fill="red" stroke="red" stroke-width="2" points="269.4,-722.52 262.54,-714.45 262.87,-725.04 269.4,-722.52"/>
</a>
</g>
</g>
<!-- Dup1_1&#45;&gt;!c0 -->
<g id="edge10" class="edge">
<title>Dup1_1&#45;&gt;!c0</title>
<g id="a_edge10"><a xlink:title="e26">
<path fill="none" stroke="blue" d="M166.83,-144.77C189.08,-131.79 219.71,-113.92 239.44,-102.41"/>
<ellipse fill="blue" stroke="blue" cx="163.08" cy="-146.95" rx="4" ry="4"/>
</a>
</g>
</g>
<!-- Dup1_1&#45;&gt;!c1 -->
<g id="edge12" class="edge">
<title>Dup1_1&#45;&gt;!c1</title>
<g id="a_edge12"><a xlink:title="e28">
<path fill="none" stroke="blue" d="M112.36,-144.35C92,-131.63 64.43,-114.39 46.19,-103"/>
<ellipse fill="none" stroke="blue" cx="115.84" cy="-146.53" rx="4" ry="4"/>
</a>
</g>
</g>
<!-- Dup1_2&#45;&gt;PiL0 -->
<g id="edge16" class="edge">
<title>Dup1_2&#45;&gt;PiL0</title>
<g id="a_edge16"><a xlink:title="e32">
<path fill="none" stroke="blue" d="M248,-567.53C248,-557.91 248,-548.16 248,-540.25"/>
<ellipse fill="blue" stroke="blue" cx="248" cy="-571.53" rx="4" ry="4"/>
</a>
</g>
</g>
<!-- Dup1_2&#45;&gt;PiL1 -->
<g id="edge17" class="edge">
<title>Dup1_2&#45;&gt;PiL1</title>
<g id="a_edge17"><a xlink:title="e33">
<path fill="none" stroke="blue" d="M219.6,-578.72C206.3,-564.9 191.05,-549.04 180.22,-537.79"/>
<ellipse fill="none" stroke="blue" cx="222.39" cy="-581.62" rx="4" ry="4"/>
</a>
</g>
</g>
<!-- Dup1_3&#45;&gt;Dup0_1 -->
<g id="edge3" class="edge">
<title>Dup1_3&#45;&gt;Dup0_1</title>
<g id="a_edge3"><a xlink:title="e16">
<path fill="none" stroke="red" d="M160.92,-432.05C158.36,-423.54 155.22,-413.07 152.4,-403.68"/>
<ellipse fill="red" stroke="red" cx="151.19" cy="-399.62" rx="4" ry="4"/>
</a>
</g>
</g>
</g>
</svg>
