<?xml version="1.0" encoding="UTF-8" standalone="no"?>
<!DOCTYPE svg PUBLIC "-//W3C//DTD SVG 1.1//EN"
 "http://www.w3.org/Graphics/SVG/1.1/DTD/svg11.dtd">
<!-- Generated by graphviz version 2.43.0 (0)
 -->
<!-- Title: %3 Pages: 1 -->
<svg width="259pt" height="1005pt"
 viewBox="0.00 0.00 258.65 1005.30" xmlns="http://www.w3.org/2000/svg" xmlns:xlink="http://www.w3.org/1999/xlink">
<g id="graph0" class="graph" transform="scale(1 1) rotate(0) translate(4 1001.3)">
<title>%3</title>
<polygon fill="white" stroke="transparent" points="-4,4 -4,-1001.3 254.65,-1001.3 254.65,4 -4,4"/>
<!-- Root0 -->
<g id="node1" class="node">
<title>Root0</title>
<ellipse fill="none" stroke="black" cx="181" cy="-979.3" rx="30.59" ry="18"/>
<text text-anchor="middle" x="181" y="-975.6" font-family="Times-Roman" font-size="14.00">Root</text>
</g>
<!-- I3 -->
<g id="node9" class="node">
<title>I3</title>
<ellipse fill="none" stroke="black" cx="181" cy="-907.3" rx="27" ry="18"/>
<text text-anchor="middle" x="181" y="-903.6" font-family="Times-Roman" font-size="14.00">I</text>
</g>
<!-- Root0&#45;&gt;I3 -->
<g id="edge8" class="edge">
<title>Root0&#45;&gt;I3</title>
<g id="a_edge8"><a xlink:title="ret">
<path fill="none" stroke="red" stroke-width="2" d="M181,-960.99C181,-953.28 181,-944.01 181,-935.41"/>
<polygon fill="red" stroke="red" stroke-width="2" points="184.5,-935.4 181,-925.4 177.5,-935.4 184.5,-935.4"/>
</a>
</g>
</g>
<!-- PiL0 -->
<g id="node2" class="node">
<title>PiL0</title>
<ellipse fill="none" stroke="black" cx="181" cy="-835.3" rx="27" ry="18"/>
<text text-anchor="middle" x="181" y="-831.6" font-family="Times-Roman" font-size="14.00">PiL</text>
</g>
<!-- I0 -->
<g id="node3" class="node">
<title>I0</title>
<ellipse fill="none" stroke="black" cx="154" cy="-763.3" rx="27" ry="18"/>
<text text-anchor="middle" x="154" y="-759.6" font-family="Times-Roman" font-size="14.00">I</text>
</g>
<!-- PiL0&#45;&gt;I0 -->
<g id="edge13" class="edge">
<title>PiL0&#45;&gt;I0</title>
<g id="a_edge13"><a xlink:title="x1_o1r">
<path fill="none" stroke="red" d="M174.6,-817.71C171.49,-809.63 167.67,-799.73 164.17,-790.65"/>
<polygon fill="red" stroke="red" points="167.4,-789.32 160.54,-781.25 160.87,-791.84 167.4,-789.32"/>
</a>
</g>
</g>
<!-- Cut1 -->
<g id="node12" class="node">
<title>Cut1</title>
<ellipse fill="none" stroke="black" cx="220" cy="-678.65" rx="26.78" ry="26.78"/>
<ellipse fill="none" stroke="black" cx="220" cy="-678.65" rx="30.8" ry="30.8"/>
<text text-anchor="middle" x="220" y="-674.95" font-family="Times-Roman" font-size="14.00">Cut</text>
</g>
<!-- PiL0&#45;&gt;Cut1 -->
<g id="edge17" class="edge">
<title>PiL0&#45;&gt;Cut1</title>
<g id="a_edge17"><a xlink:title="x2i_o1">
<path fill="none" stroke="blue" stroke-width="2" d="M187.71,-807.68C194.68,-780.06 205.54,-736.99 212.71,-708.55"/>
<polygon fill="blue" stroke="blue" stroke-width="2" points="184.3,-806.9 185.25,-817.45 191.09,-808.61 184.3,-806.9"/>
</a>
</g>
</g>
<!-- Cut0 -->
<g id="node11" class="node">
<title>Cut0</title>
<ellipse fill="none" stroke="black" cx="144" cy="-678.65" rx="27" ry="18"/>
<text text-anchor="middle" x="144" y="-674.95" font-family="Times-Roman" font-size="14.00">Cut</text>
</g>
<!-- I0&#45;&gt;Cut0 -->
<g id="edge12" class="edge">
<title>I0&#45;&gt;Cut0</title>
<g id="a_edge12"><a xlink:title="x1_o1">
<path fill="none" stroke="blue" d="M150.71,-735.14C149.18,-722.49 147.41,-707.83 146.07,-696.75"/>
<polygon fill="blue" stroke="blue" points="147.25,-735.66 151.93,-745.17 154.2,-734.82 147.25,-735.66"/>
</a>
</g>
</g>
<!-- !c0 -->
<g id="node4" class="node">
<title>!c0</title>
<ellipse fill="none" stroke="black" cx="127" cy="-162" rx="27" ry="18"/>
<text text-anchor="middle" x="127" y="-158.3" font-family="Times-Roman" font-size="14.00">!c</text>
</g>
<!-- Dup0_0 -->
<g id="node15" class="node">
<title>Dup0_0</title>
<ellipse fill="none" stroke="black" cx="145" cy="-90" rx="29.5" ry="18"/>
<text text-anchor="middle" x="145" y="-86.3" font-family="Times-Roman" font-size="14.00">Dup</text>
</g>
<!-- !c0&#45;&gt;Dup0_0 -->
<g id="edge19" class="edge">
<title>!c0&#45;&gt;Dup0_0</title>
<g id="a_edge19"><a xlink:title="x_o2">
<path fill="none" stroke="blue" d="M133.87,-134.29C136.11,-125.57 138.54,-116.12 140.56,-108.28"/>
<polygon fill="blue" stroke="blue" points="130.46,-133.5 131.36,-144.05 137.24,-135.24 130.46,-133.5"/>
</a>
</g>
</g>
<!-- !d0 -->
<g id="node5" class="node">
<title>!d0</title>
<ellipse fill="none" stroke="black" cx="55" cy="-234" rx="27" ry="18"/>
<text text-anchor="middle" x="55" y="-230.3" font-family="Times-Roman" font-size="14.00">!d</text>
</g>
<!-- !d0&#45;&gt;!c0 -->
<g id="edge16" class="edge">
<title>!d0&#45;&gt;!c0</title>
<g id="a_edge16"><a xlink:title="x2_o2">
<path fill="none" stroke="blue" d="M77.04,-211.57C88.45,-200.48 102.07,-187.24 112.2,-177.38"/>
<polygon fill="blue" stroke="blue" points="74.3,-209.35 69.57,-218.83 79.18,-214.37 74.3,-209.35"/>
</a>
</g>
</g>
<!-- PiL1 -->
<g id="node6" class="node">
<title>PiL1</title>
<ellipse fill="none" stroke="black" cx="90" cy="-306" rx="27" ry="18"/>
<text text-anchor="middle" x="90" y="-302.3" font-family="Times-Roman" font-size="14.00">PiL</text>
</g>
<!-- PiL1&#45;&gt;!d0 -->
<g id="edge18" class="edge">
<title>PiL1&#45;&gt;!d0</title>
<g id="a_edge18"><a xlink:title="x2i_o2">
<path fill="none" stroke="blue" d="M77.27,-279.55C72.62,-270.24 67.48,-259.97 63.32,-251.63"/>
<polygon fill="blue" stroke="blue" points="74.28,-281.39 81.88,-288.76 80.54,-278.26 74.28,-281.39"/>
</a>
</g>
</g>
<!-- I1 -->
<g id="node7" class="node">
<title>I1</title>
<ellipse fill="none" stroke="black" cx="127" cy="-234" rx="27" ry="18"/>
<text text-anchor="middle" x="127" y="-230.3" font-family="Times-Roman" font-size="14.00">I</text>
</g>
<!-- PiL1&#45;&gt;I1 -->
<g id="edge15" class="edge">
<title>PiL1&#45;&gt;I1</title>
<g id="a_edge15"><a xlink:title="x1_o2r">
<path fill="none" stroke="red" d="M98.58,-288.76C103.06,-280.28 108.65,-269.71 113.68,-260.2"/>
<polygon fill="red" stroke="red" points="116.89,-261.62 118.46,-251.15 110.7,-258.35 116.89,-261.62"/>
</a>
</g>
</g>
<!-- I1&#45;&gt;!c0 -->
<g id="edge14" class="edge">
<title>I1&#45;&gt;!c0</title>
<g id="a_edge14"><a xlink:title="x1_o2">
<path fill="none" stroke="blue" d="M127,-205.67C127,-197.05 127,-187.79 127,-180.1"/>
<polygon fill="blue" stroke="blue" points="123.5,-205.7 127,-215.7 130.5,-205.7 123.5,-205.7"/>
</a>
</g>
</g>
<!-- I2 -->
<g id="node8" class="node">
<title>I2</title>
<ellipse fill="none" stroke="black" cx="90" cy="-378" rx="27" ry="18"/>
<text text-anchor="middle" x="90" y="-374.3" font-family="Times-Roman" font-size="14.00">I</text>
</g>
<!-- I2&#45;&gt;PiL1 -->
<g id="edge11" class="edge">
<title>I2&#45;&gt;PiL1</title>
<g id="a_edge11"><a xlink:title="ret_o2l">
<path fill="none" stroke="blue" d="M90,-349.67C90,-341.05 90,-331.79 90,-324.1"/>
<polygon fill="blue" stroke="blue" points="86.5,-349.7 90,-359.7 93.5,-349.7 86.5,-349.7"/>
</a>
</g>
</g>
<!-- I3&#45;&gt;PiL0 -->
<g id="edge9" class="edge">
<title>I3&#45;&gt;PiL0</title>
<g id="a_edge9"><a xlink:title="ret_o1l">
<path fill="none" stroke="blue" stroke-width="2" d="M181,-878.96C181,-870.35 181,-861.09 181,-853.4"/>
<polygon fill="blue" stroke="blue" stroke-width="2" points="177.5,-878.99 181,-888.99 184.5,-878.99 177.5,-878.99"/>
</a>
</g>
</g>
<!-- !p0 -->
<g id="node10" class="node">
<title>!p0</title>
<ellipse fill="none" stroke="black" cx="144" cy="-594" rx="27" ry="18"/>
<text text-anchor="middle" x="144" y="-590.3" font-family="Times-Roman" font-size="14.00">!p</text>
</g>
<!-- PiR0 -->
<g id="node13" class="node">
<title>PiR0</title>
<ellipse fill="none" stroke="black" cx="144" cy="-522" rx="27" ry="18"/>
<text text-anchor="middle" x="144" y="-518.3" font-family="Times-Roman" font-size="14.00">PiR</text>
</g>
<!-- !p0&#45;&gt;PiR0 -->
<g id="edge2" class="edge">
<title>!p0&#45;&gt;PiR0</title>
<g id="a_edge2"><a xlink:title="e2">
<path fill="none" stroke="red" d="M144,-575.7C144,-567.98 144,-558.71 144,-550.11"/>
<polygon fill="red" stroke="red" points="147.5,-550.1 144,-540.1 140.5,-550.1 147.5,-550.1"/>
</a>
</g>
</g>
<!-- Cut0&#45;&gt;!p0 -->
<g id="edge1" class="edge">
<title>Cut0&#45;&gt;!p0</title>
<g id="a_edge1"><a xlink:title="e0">
<path fill="none" stroke="red" d="M144,-660.52C144,-649.44 144,-634.78 144,-622.13"/>
<polygon fill="red" stroke="red" points="147.5,-622.1 144,-612.1 140.5,-622.1 147.5,-622.1"/>
</a>
</g>
</g>
<!-- PiR1 -->
<g id="node14" class="node">
<title>PiR1</title>
<ellipse fill="none" stroke="black" cx="145" cy="-18" rx="27" ry="18"/>
<text text-anchor="middle" x="145" y="-14.3" font-family="Times-Roman" font-size="14.00">PiR</text>
</g>
<!-- Cut1&#45;&gt;PiR1 -->
<g id="edge3" class="edge">
<title>Cut1&#45;&gt;PiR1</title>
<g id="a_edge3"><a xlink:title="e3">
<path fill="none" stroke="red" d="M220,-647.71C220,-616.56 220,-566.36 220,-523 220,-523 220,-523 220,-161 220,-114.46 188.11,-68.23 165.92,-41.7"/>
<polygon fill="red" stroke="red" points="168.29,-39.09 159.11,-33.81 162.99,-43.67 168.29,-39.09"/>
</a>
</g>
</g>
<!-- Dup0_1 -->
<g id="node16" class="node">
<title>Dup0_1</title>
<ellipse fill="none" stroke="black" cx="90" cy="-450" rx="29.5" ry="18"/>
<text text-anchor="middle" x="90" y="-446.3" font-family="Times-Roman" font-size="14.00">Dup</text>
</g>
<!-- PiR0&#45;&gt;Dup0_1 -->
<g id="edge6" class="edge">
<title>PiR0&#45;&gt;Dup0_1</title>
<g id="a_edge6"><a xlink:title="e6">
<path fill="none" stroke="red" d="M132.02,-505.46C124.67,-495.95 115.16,-483.62 107.05,-473.1"/>
<ellipse fill="red" stroke="red" cx="104.39" cy="-469.66" rx="4" ry="4"/>
</a>
</g>
</g>
<!-- PiR1&#45;&gt;Dup0_1 -->
<g id="edge7" class="edge">
<title>PiR1&#45;&gt;Dup0_1</title>
<g id="a_edge7"><a xlink:title="e7">
<path fill="none" stroke="red" d="M122.66,-28.36C81.99,-47.06 0,-93.17 0,-161 0,-307 0,-307 0,-307 0,-357.26 40.72,-404.15 67.38,-429.47"/>
<ellipse fill="none" stroke="red" cx="70.56" cy="-432.41" rx="4" ry="4"/>
</a>
</g>
</g>
<!-- Dup0_0&#45;&gt;PiR0 -->
<g id="edge4" class="edge">
<title>Dup0_0&#45;&gt;PiR0</title>
<g id="a_edge4"><a xlink:title="e4">
<path fill="none" stroke="blue" d="M155.39,-115.35C166.34,-143.24 182,-190.57 182,-233 182,-379 182,-379 182,-379 182,-425.7 162.58,-478.2 151.51,-504.34"/>
<ellipse fill="blue" stroke="blue" cx="153.8" cy="-111.39" rx="4" ry="4"/>
</a>
</g>
</g>
<!-- Dup0_0&#45;&gt;PiR1 -->
<g id="edge5" class="edge">
<title>Dup0_0&#45;&gt;PiR1</title>
<g id="a_edge5"><a xlink:title="e5">
<path fill="none" stroke="blue" d="M145,-63.64C145,-54.49 145,-44.38 145,-36.1"/>
<ellipse fill="none" stroke="blue" cx="145" cy="-67.7" rx="4" ry="4"/>
</a>
</g>
</g>
<!-- Dup0_1&#45;&gt;I2 -->
<g id="edge10" class="edge">
<title>Dup0_1&#45;&gt;I2</title>
<g id="a_edge10"><a xlink:title="ret_o2">
<path fill="none" stroke="red" d="M90,-431.7C90,-423.98 90,-414.71 90,-406.11"/>
<polygon fill="red" stroke="red" points="93.5,-406.1 90,-396.1 86.5,-406.1 93.5,-406.1"/>
</a>
</g>
</g>
</g>
</svg>
