<?xml version="1.0" encoding="UTF-8" standalone="no"?>
<!DOCTYPE svg PUBLIC "-//W3C//DTD SVG 1.1//EN"
 "http://www.w3.org/Graphics/SVG/1.1/DTD/svg11.dtd">
<!-- Generated by graphviz version 2.43.0 (0)
 -->
<!-- Title: %3 Pages: 1 -->
<svg width="200pt" height="1149pt"
 viewBox="0.00 0.00 199.65 1149.30" xmlns="http://www.w3.org/2000/svg" xmlns:xlink="http://www.w3.org/1999/xlink">
<g id="graph0" class="graph" transform="scale(1 1) rotate(0) translate(4 1145.3)">
<title>%3</title>
<polygon fill="white" stroke="transparent" points="-4,4 -4,-1145.3 195.65,-1145.3 195.65,4 -4,4"/>
<!-- Root0 -->
<g id="node1" class="node">
<title>Root0</title>
<ellipse fill="none" stroke="black" cx="161" cy="-1123.3" rx="30.59" ry="18"/>
<text text-anchor="middle" x="161" y="-1119.6" font-family="Times-Roman" font-size="14.00">Root</text>
</g>
<!-- I2 -->
<g id="node7" class="node">
<title>I2</title>
<ellipse fill="none" stroke="black" cx="161" cy="-1051.3" rx="27" ry="18"/>
<text text-anchor="middle" x="161" y="-1047.6" font-family="Times-Roman" font-size="14.00">I</text>
</g>
<!-- Root0&#45;&gt;I2 -->
<g id="edge17" class="edge">
<title>Root0&#45;&gt;I2</title>
<g id="a_edge17"><a xlink:title="ret">
<path fill="none" stroke="red" stroke-width="2" d="M161,-1104.99C161,-1097.28 161,-1088.01 161,-1079.41"/>
<polygon fill="red" stroke="red" stroke-width="2" points="164.5,-1079.4 161,-1069.4 157.5,-1079.4 164.5,-1079.4"/>
</a>
</g>
</g>
<!-- I0 -->
<g id="node2" class="node">
<title>I0</title>
<ellipse fill="none" stroke="black" cx="57" cy="-306" rx="27" ry="18"/>
<text text-anchor="middle" x="57" y="-302.3" font-family="Times-Roman" font-size="14.00">I</text>
</g>
<!-- Dup0_0 -->
<g id="node8" class="node">
<title>Dup0_0</title>
<ellipse fill="none" stroke="black" cx="57" cy="-234" rx="29.5" ry="18"/>
<text text-anchor="middle" x="57" y="-230.3" font-family="Times-Roman" font-size="14.00">Dup</text>
</g>
<!-- I0&#45;&gt;Dup0_0 -->
<g id="edge18" class="edge">
<title>I0&#45;&gt;Dup0_0</title>
<g id="a_edge18"><a xlink:title="x1_o2">
<path fill="none" stroke="blue" d="M57,-277.67C57,-269.05 57,-259.79 57,-252.1"/>
<polygon fill="blue" stroke="blue" points="53.5,-277.7 57,-287.7 60.5,-277.7 53.5,-277.7"/>
</a>
</g>
</g>
<!-- !c0 -->
<g id="node3" class="node">
<title>!c0</title>
<ellipse fill="none" stroke="black" cx="76" cy="-594" rx="27" ry="18"/>
<text text-anchor="middle" x="76" y="-590.3" font-family="Times-Roman" font-size="14.00">!c</text>
</g>
<!-- Dup1_0 -->
<g id="node13" class="node">
<title>Dup1_0</title>
<ellipse fill="none" stroke="black" cx="76" cy="-522" rx="29.5" ry="18"/>
<text text-anchor="middle" x="76" y="-518.3" font-family="Times-Roman" font-size="14.00">Dup</text>
</g>
<!-- !c0&#45;&gt;Dup1_0 -->
<g id="edge13" class="edge">
<title>!c0&#45;&gt;Dup1_0</title>
<g id="a_edge13"><a xlink:title="e4">
<path fill="none" stroke="blue" d="M76,-565.67C76,-557.05 76,-547.79 76,-540.1"/>
<polygon fill="blue" stroke="blue" points="72.5,-565.7 76,-575.7 79.5,-565.7 72.5,-565.7"/>
</a>
</g>
</g>
<!-- !d0 -->
<g id="node4" class="node">
<title>!d0</title>
<ellipse fill="none" stroke="black" cx="77" cy="-666" rx="27" ry="18"/>
<text text-anchor="middle" x="77" y="-662.3" font-family="Times-Roman" font-size="14.00">!d</text>
</g>
<!-- !d0&#45;&gt;!c0 -->
<g id="edge16" class="edge">
<title>!d0&#45;&gt;!c0</title>
<g id="a_edge16"><a xlink:title="e9">
<path fill="none" stroke="blue" d="M76.61,-637.67C76.49,-629.05 76.35,-619.79 76.24,-612.1"/>
<polygon fill="blue" stroke="blue" points="73.11,-637.75 76.75,-647.7 80.11,-637.65 73.11,-637.75"/>
</a>
</g>
</g>
<!-- PiL0 -->
<g id="node5" class="node">
<title>PiL0</title>
<ellipse fill="none" stroke="black" cx="134" cy="-738" rx="27" ry="18"/>
<text text-anchor="middle" x="134" y="-734.3" font-family="Times-Roman" font-size="14.00">PiL</text>
</g>
<!-- PiL0&#45;&gt;!d0 -->
<g id="edge2" class="edge">
<title>PiL0&#45;&gt;!d0</title>
<g id="a_edge2"><a xlink:title="e12">
<path fill="none" stroke="blue" d="M115.17,-713.87C106.67,-703.44 96.88,-691.42 89.34,-682.16"/>
<polygon fill="blue" stroke="blue" points="112.6,-716.27 121.63,-721.81 118.03,-711.85 112.6,-716.27"/>
</a>
</g>
</g>
<!-- Dup0_1 -->
<g id="node9" class="node">
<title>Dup0_1</title>
<ellipse fill="none" stroke="black" cx="57" cy="-378" rx="29.5" ry="18"/>
<text text-anchor="middle" x="57" y="-374.3" font-family="Times-Roman" font-size="14.00">Dup</text>
</g>
<!-- PiL0&#45;&gt;Dup0_1 -->
<g id="edge5" class="edge">
<title>PiL0&#45;&gt;Dup0_1</title>
<g id="a_edge5"><a xlink:title="e16">
<path fill="none" stroke="red" d="M137.36,-720.03C142.31,-693.48 151,-640.44 151,-595 151,-595 151,-595 151,-521 151,-469.88 108.11,-423.03 80.27,-398.01"/>
<ellipse fill="red" stroke="red" cx="77.25" cy="-395.35" rx="4" ry="4"/>
</a>
</g>
</g>
<!-- I1 -->
<g id="node6" class="node">
<title>I1</title>
<ellipse fill="none" stroke="black" cx="134" cy="-810" rx="27" ry="18"/>
<text text-anchor="middle" x="134" y="-806.3" font-family="Times-Roman" font-size="14.00">I</text>
</g>
<!-- I1&#45;&gt;PiL0 -->
<g id="edge3" class="edge">
<title>I1&#45;&gt;PiL0</title>
<g id="a_edge3"><a xlink:title="e14">
<path fill="none" stroke="blue" d="M134,-781.67C134,-773.05 134,-763.79 134,-756.1"/>
<polygon fill="blue" stroke="blue" points="130.5,-781.7 134,-791.7 137.5,-781.7 130.5,-781.7"/>
</a>
</g>
</g>
<!-- Cut2 -->
<g id="node16" class="node">
<title>Cut2</title>
<ellipse fill="none" stroke="black" cx="161" cy="-966.65" rx="26.78" ry="26.78"/>
<ellipse fill="none" stroke="black" cx="161" cy="-966.65" rx="30.8" ry="30.8"/>
<text text-anchor="middle" x="161" y="-962.95" font-family="Times-Roman" font-size="14.00">Cut</text>
</g>
<!-- I2&#45;&gt;Cut2 -->
<g id="edge4" class="edge">
<title>I2&#45;&gt;Cut2</title>
<g id="a_edge4"><a xlink:title="e15">
<path fill="none" stroke="blue" stroke-width="2" d="M161,-1023.01C161,-1014.82 161,-1005.8 161,-997.45"/>
<polygon fill="blue" stroke="blue" stroke-width="2" points="157.5,-1023.17 161,-1033.17 164.5,-1023.17 157.5,-1023.17"/>
</a>
</g>
</g>
<!-- Dup0_0&#45;&gt;!c0 -->
<g id="edge15" class="edge">
<title>Dup0_0&#45;&gt;!c0</title>
<g id="a_edge15"><a xlink:title="e8">
<path fill="none" stroke="blue" d="M39.44,-256.95C32.84,-266.1 25.78,-277.13 21,-288 4.64,-325.21 0,-336.36 0,-377 0,-451 0,-451 0,-451 0,-502.73 39.69,-553.85 61.7,-578.23"/>
<ellipse fill="blue" stroke="blue" cx="41.96" cy="-253.55" rx="4" ry="4"/>
</a>
</g>
</g>
<!-- Cut0 -->
<g id="node11" class="node">
<title>Cut0</title>
<ellipse fill="none" stroke="black" cx="58" cy="-162" rx="27" ry="18"/>
<text text-anchor="middle" x="58" y="-158.3" font-family="Times-Roman" font-size="14.00">Cut</text>
</g>
<!-- Dup0_0&#45;&gt;Cut0 -->
<g id="edge1" class="edge">
<title>Dup0_0&#45;&gt;Cut0</title>
<g id="a_edge1"><a xlink:title="e10">
<path fill="none" stroke="blue" d="M57.36,-207.64C57.49,-198.49 57.64,-188.38 57.76,-180.1"/>
<ellipse fill="none" stroke="blue" cx="57.3" cy="-211.7" rx="4" ry="4"/>
</a>
</g>
</g>
<!-- Dup0_1&#45;&gt;I0 -->
<g id="edge19" class="edge">
<title>Dup0_1&#45;&gt;I0</title>
<g id="a_edge19"><a xlink:title="x1_o2r">
<path fill="none" stroke="red" d="M57,-359.7C57,-351.98 57,-342.71 57,-334.11"/>
<polygon fill="red" stroke="red" points="60.5,-334.1 57,-324.1 53.5,-334.1 60.5,-334.1"/>
</a>
</g>
</g>
<!-- !p0 -->
<g id="node10" class="node">
<title>!p0</title>
<ellipse fill="none" stroke="black" cx="59" cy="-90" rx="27" ry="18"/>
<text text-anchor="middle" x="59" y="-86.3" font-family="Times-Roman" font-size="14.00">!p</text>
</g>
<!-- PiR0 -->
<g id="node12" class="node">
<title>PiR0</title>
<ellipse fill="none" stroke="black" cx="114" cy="-18" rx="27" ry="18"/>
<text text-anchor="middle" x="114" y="-14.3" font-family="Times-Roman" font-size="14.00">PiR</text>
</g>
<!-- !p0&#45;&gt;PiR0 -->
<g id="edge8" class="edge">
<title>!p0&#45;&gt;PiR0</title>
<g id="a_edge8"><a xlink:title="e20">
<path fill="none" stroke="red" d="M70.93,-73.81C78.21,-64.55 87.66,-52.52 95.85,-42.09"/>
<polygon fill="red" stroke="red" points="98.66,-44.18 102.09,-34.16 93.16,-39.86 98.66,-44.18"/>
</a>
</g>
</g>
<!-- Cut0&#45;&gt;!p0 -->
<g id="edge7" class="edge">
<title>Cut0&#45;&gt;!p0</title>
<g id="a_edge7"><a xlink:title="e18">
<path fill="none" stroke="red" d="M58.25,-143.7C58.36,-135.98 58.49,-126.71 58.61,-118.11"/>
<polygon fill="red" stroke="red" points="62.11,-118.15 58.76,-108.1 55.11,-118.05 62.11,-118.15"/>
</a>
</g>
</g>
<!-- Dup1_1 -->
<g id="node14" class="node">
<title>Dup1_1</title>
<ellipse fill="none" stroke="black" cx="161" cy="-882" rx="29.5" ry="18"/>
<text text-anchor="middle" x="161" y="-878.3" font-family="Times-Roman" font-size="14.00">Dup</text>
</g>
<!-- PiR0&#45;&gt;Dup1_1 -->
<g id="edge11" class="edge">
<title>PiR0&#45;&gt;Dup1_1</title>
<g id="a_edge11"><a xlink:title="e24">
<path fill="none" stroke="red" d="M128.11,-33.81C149.83,-58.23 189,-109.42 189,-161 189,-739 189,-739 189,-739 189,-780.85 177.15,-828.35 168.87,-856.44"/>
<ellipse fill="red" stroke="red" cx="167.69" cy="-860.33" rx="4" ry="4"/>
</a>
</g>
</g>
<!-- Dup1_0&#45;&gt;PiR0 -->
<g id="edge9" class="edge">
<title>Dup1_0&#45;&gt;PiR0</title>
<g id="a_edge9"><a xlink:title="e22">
<path fill="none" stroke="blue" d="M85.53,-496.37C88.64,-487.54 91.84,-477.43 94,-468 110.12,-397.72 114,-379.11 114,-307 114,-307 114,-307 114,-161 114,-115.89 114,-62.71 114,-36.05"/>
<ellipse fill="blue" stroke="blue" cx="84.1" cy="-500.31" rx="4" ry="4"/>
</a>
</g>
</g>
<!-- Cut1 -->
<g id="node15" class="node">
<title>Cut1</title>
<ellipse fill="none" stroke="black" cx="58" cy="-450" rx="27" ry="18"/>
<text text-anchor="middle" x="58" y="-446.3" font-family="Times-Roman" font-size="14.00">Cut</text>
</g>
<!-- Dup1_0&#45;&gt;Cut1 -->
<g id="edge10" class="edge">
<title>Dup1_0&#45;&gt;Cut1</title>
<g id="a_edge10"><a xlink:title="e23">
<path fill="none" stroke="blue" d="M69.61,-496.15C67.19,-486.75 64.5,-476.28 62.32,-467.79"/>
<ellipse fill="none" stroke="blue" cx="70.65" cy="-500.18" rx="4" ry="4"/>
</a>
</g>
</g>
<!-- Dup1_1&#45;&gt;I1 -->
<g id="edge14" class="edge">
<title>Dup1_1&#45;&gt;I1</title>
<g id="a_edge14"><a xlink:title="e6">
<path fill="none" stroke="red" d="M154.6,-864.41C151.49,-856.34 147.67,-846.43 144.17,-837.35"/>
<polygon fill="red" stroke="red" points="147.4,-836.03 140.54,-827.96 140.87,-838.55 147.4,-836.03"/>
</a>
</g>
</g>
<!-- Cut1&#45;&gt;Dup0_1 -->
<g id="edge6" class="edge">
<title>Cut1&#45;&gt;Dup0_1</title>
<g id="a_edge6"><a xlink:title="e17">
<path fill="none" stroke="red" d="M57.75,-431.7C57.63,-423.39 57.49,-413.28 57.36,-404.14"/>
<ellipse fill="none" stroke="red" cx="57.3" cy="-400.1" rx="4" ry="4"/>
</a>
</g>
</g>
<!-- Cut2&#45;&gt;Dup1_1 -->
<g id="edge12" class="edge">
<title>Cut2&#45;&gt;Dup1_1</title>
<g id="a_edge12"><a xlink:title="e25">
<path fill="none" stroke="red" d="M161,-935.81C161,-926.79 161,-916.99 161,-908.3"/>
<ellipse fill="none" stroke="red" cx="161" cy="-904.05" rx="4" ry="4"/>
</a>
</g>
</g>
</g>
</svg>
