<?xml version="1.0" encoding="UTF-8" standalone="no"?>
<!DOCTYPE svg PUBLIC "-//W3C//DTD SVG 1.1//EN"
 "http://www.w3.org/Graphics/SVG/1.1/DTD/svg11.dtd">
<!-- Generated by graphviz version 2.43.0 (0)
 -->
<!-- Title: %3 Pages: 1 -->
<svg width="643pt" height="1098pt"
 viewBox="0.00 0.00 643.22 1098.00" xmlns="http://www.w3.org/2000/svg" xmlns:xlink="http://www.w3.org/1999/xlink">
<g id="graph0" class="graph" transform="scale(1 1) rotate(0) translate(4 1094)">
<title>%3</title>
<polygon fill="white" stroke="transparent" points="-4,4 -4,-1094 639.22,-1094 639.22,4 -4,4"/>
<!-- Identity0 -->
<g id="node1" class="node">
<title>Identity0</title>
<ellipse fill="none" stroke="black" cx="54.03" cy="-1072" rx="44.39" ry="18"/>
<text text-anchor="middle" x="54.03" y="-1068.3" font-family="Times-Roman" font-size="14.00">Identity</text>
</g>
<!-- BangD1 -->
<g id="node2" class="node">
<title>BangD1</title>
<ellipse fill="none" stroke="black" cx="54.03" cy="-985" rx="39.79" ry="18"/>
<text text-anchor="middle" x="54.03" y="-981.3" font-family="Times-Roman" font-size="14.00">BangD</text>
</g>
<!-- BangD1&#45;&gt;Identity0 -->
<g id="edge26" class="edge">
<title>BangD1&#45;&gt;Identity0</title>
<g id="a_edge26"><a xlink:title="iret84">
<path fill="none" stroke="blue" d="M60.34,-1003.04C63.17,-1012.66 65.57,-1024.95 64.03,-1036 63.64,-1038.72 63.1,-1041.53 62.47,-1044.31"/>
<polygon fill="blue" stroke="blue" points="59.05,-1043.55 59.88,-1054.11 65.82,-1045.34 59.05,-1043.55"/>
</a>
</g>
<text text-anchor="middle" x="69.53" y="-1024.8" font-family="Times-Roman" font-size="14.00">3</text>
</g>
<!-- BangD1&#45;&gt;Identity0 -->
<g id="edge27" class="edge">
<title>BangD1&#45;&gt;Identity0</title>
<g id="a_edge27"><a xlink:title="iseq83">
<path fill="none" stroke="black" d="M54.03,-1003.2C54.03,-1014.83 54.03,-1030.45 54.03,-1043.76"/>
<polygon fill="black" stroke="black" points="50.53,-1043.82 54.03,-1053.82 57.53,-1043.82 50.53,-1043.82"/>
</a>
</g>
<text text-anchor="middle" x="58.53" y="-1024.8" font-family="Times-Roman" font-size="14.00">3</text>
</g>
<!-- PiR2 -->
<g id="node3" class="node">
<title>PiR2</title>
<ellipse fill="none" stroke="black" cx="54.03" cy="-898" rx="27" ry="18"/>
<text text-anchor="middle" x="54.03" y="-894.3" font-family="Times-Roman" font-size="14.00">PiR</text>
</g>
<!-- PiR2&#45;&gt;Identity0 -->
<g id="edge49" class="edge">
<title>PiR2&#45;&gt;Identity0</title>
<g id="a_edge49"><a xlink:title="ret82">
<path fill="none" stroke="red" d="M37.44,-912.37C30.73,-918.43 23.34,-926.01 18.03,-934 0.73,-959.97 -4.56,-973.3 5.03,-1003 10.29,-1019.31 21.09,-1035.01 31.21,-1047.21"/>
<polygon fill="red" stroke="red" points="28.83,-1049.8 38.03,-1055.05 34.11,-1045.21 28.83,-1049.8"/>
</a>
</g>
</g>
<!-- PiR2&#45;&gt;BangD1 -->
<g id="edge21" class="edge">
<title>PiR2&#45;&gt;BangD1</title>
<g id="a_edge21"><a xlink:title="i81">
<path fill="none" stroke="blue" d="M37.15,-912.67C27.43,-922.32 18.03,-935.82 23.03,-949 24.58,-953.09 26.86,-957.02 29.49,-960.67"/>
<polygon fill="blue" stroke="blue" points="26.99,-963.15 36.07,-968.61 32.38,-958.68 26.99,-963.15"/>
</a>
</g>
<text text-anchor="middle" x="27.53" y="-937.8" font-family="Times-Roman" font-size="14.00">3</text>
</g>
<!-- PiR2&#45;&gt;BangD1 -->
<g id="edge59" class="edge">
<title>PiR2&#45;&gt;BangD1</title>
<g id="a_edge59"><a xlink:title="seq80">
<path fill="none" stroke="black" d="M54.03,-916.2C54.03,-927.83 54.03,-943.45 54.03,-956.76"/>
<polygon fill="black" stroke="black" points="50.53,-956.82 54.03,-966.82 57.53,-956.82 50.53,-956.82"/>
</a>
</g>
<text text-anchor="middle" x="58.53" y="-937.8" font-family="Times-Roman" font-size="14.00">3</text>
</g>
<!-- Bang3 -->
<g id="node4" class="node">
<title>Bang3</title>
<ellipse fill="none" stroke="black" cx="54.03" cy="-811" rx="32.49" ry="18"/>
<text text-anchor="middle" x="54.03" y="-807.3" font-family="Times-Roman" font-size="14.00">Bang</text>
</g>
<!-- Bang3&#45;&gt;PiR2 -->
<g id="edge5" class="edge">
<title>Bang3&#45;&gt;PiR2</title>
<g id="a_edge5"><a xlink:title="c_bseq79">
<path fill="none" stroke="black" d="M54.03,-829.2C54.03,-840.83 54.03,-856.45 54.03,-869.76"/>
<polygon fill="black" stroke="black" points="50.53,-869.82 54.03,-879.82 57.53,-869.82 50.53,-869.82"/>
</a>
</g>
<text text-anchor="middle" x="58.53" y="-850.8" font-family="Times-Roman" font-size="14.00">3</text>
</g>
<!-- Bang3&#45;&gt;PiR2 -->
<g id="edge45" class="edge">
<title>Bang3&#45;&gt;PiR2</title>
<g id="a_edge45"><a xlink:title="newrretf78">
<path fill="none" stroke="red" d="M60.34,-829.04C63.17,-838.66 65.57,-850.95 64.03,-862 63.64,-864.72 63.1,-867.53 62.47,-870.31"/>
<polygon fill="red" stroke="red" points="59.05,-869.55 59.88,-880.11 65.82,-871.34 59.05,-869.55"/>
</a>
</g>
<text text-anchor="middle" x="69.53" y="-850.8" font-family="Times-Roman" font-size="14.00">3</text>
</g>
<!-- Identity4 -->
<g id="node5" class="node">
<title>Identity4</title>
<ellipse fill="none" stroke="black" cx="149.03" cy="-811" rx="44.39" ry="18"/>
<text text-anchor="middle" x="149.03" y="-807.3" font-family="Times-Roman" font-size="14.00">Identity</text>
</g>
<!-- PiL5 -->
<g id="node6" class="node">
<title>PiL5</title>
<ellipse fill="none" stroke="black" cx="146.03" cy="-724" rx="27" ry="18"/>
<text text-anchor="middle" x="146.03" y="-720.3" font-family="Times-Roman" font-size="14.00">PiL</text>
</g>
<!-- PiL5&#45;&gt;Bang3 -->
<g id="edge16" class="edge">
<title>PiL5&#45;&gt;Bang3</title>
<g id="a_edge16"><a xlink:title="dseq76">
<path fill="none" stroke="black" d="M131.18,-739.62C120.88,-749.7 106.76,-763.31 94.03,-775 89.12,-779.5 83.8,-784.24 78.69,-788.74"/>
<polygon fill="black" stroke="black" points="76.15,-786.31 70.92,-795.52 80.75,-791.58 76.15,-786.31"/>
</a>
</g>
<text text-anchor="middle" x="114.53" y="-763.8" font-family="Times-Roman" font-size="14.00">2</text>
</g>
<!-- PiL5&#45;&gt;Bang3 -->
<g id="edge40" class="edge">
<title>PiL5&#45;&gt;Bang3</title>
<g id="a_edge40"><a xlink:title="newrret74">
<path fill="none" stroke="red" d="M123.66,-734.49C111.28,-740.52 96.18,-749.22 85.03,-760 77.8,-766.98 71.55,-775.98 66.59,-784.42"/>
<polygon fill="red" stroke="red" points="63.49,-782.79 61.73,-793.23 69.62,-786.16 63.49,-782.79"/>
</a>
</g>
<text text-anchor="middle" x="89.53" y="-763.8" font-family="Times-Roman" font-size="14.00">2</text>
</g>
<!-- PiL5&#45;&gt;Identity4 -->
<g id="edge25" class="edge">
<title>PiL5&#45;&gt;Identity4</title>
<g id="a_edge25"><a xlink:title="idseq77">
<path fill="none" stroke="black" d="M140.65,-751.92C140.44,-761.79 140.83,-772.96 141.73,-782.84"/>
<polygon fill="black" stroke="black" points="144.61,-741.95 140.65,-751.78 137.62,-741.63 144.61,-741.95"/>
<polygon fill="black" stroke="black" points="138.27,-783.41 142.89,-792.95 145.22,-782.61 138.27,-783.41"/>
</a>
</g>
</g>
<!-- PiL5&#45;&gt;Identity4 -->
<g id="edge31" class="edge">
<title>PiL5&#45;&gt;Identity4</title>
<g id="a_edge31"><a xlink:title="lret75">
<path fill="none" stroke="blue" d="M152.12,-741.79C153.84,-753.47 154.68,-769.3 154.41,-782.77"/>
<polygon fill="blue" stroke="blue" points="150.91,-782.8 153.96,-792.95 157.9,-783.11 150.91,-782.8"/>
</a>
</g>
</g>
<!-- Identity6 -->
<g id="node7" class="node">
<title>Identity6</title>
<ellipse fill="none" stroke="black" cx="255.03" cy="-811" rx="44.39" ry="18"/>
<text text-anchor="middle" x="255.03" y="-807.3" font-family="Times-Roman" font-size="14.00">Identity</text>
</g>
<!-- BangD7 -->
<g id="node8" class="node">
<title>BangD7</title>
<ellipse fill="none" stroke="black" cx="231.03" cy="-724" rx="39.79" ry="18"/>
<text text-anchor="middle" x="231.03" y="-720.3" font-family="Times-Roman" font-size="14.00">BangD</text>
</g>
<!-- BangD7&#45;&gt;Identity6 -->
<g id="edge19" class="edge">
<title>BangD7&#45;&gt;Identity6</title>
<g id="a_edge19"><a xlink:title="hret73">
<path fill="none" stroke="blue" d="M224.54,-742.13C221.8,-752 220.05,-764.5 224.03,-775 225.55,-779.01 227.76,-782.86 230.32,-786.44"/>
<polygon fill="blue" stroke="blue" points="227.69,-788.75 236.75,-794.26 233.1,-784.31 227.69,-788.75"/>
</a>
</g>
<text text-anchor="middle" x="228.53" y="-763.8" font-family="Times-Roman" font-size="14.00">2</text>
</g>
<!-- BangD7&#45;&gt;Identity6 -->
<g id="edge20" class="edge">
<title>BangD7&#45;&gt;Identity6</title>
<g id="a_edge20"><a xlink:title="hseq72">
<path fill="none" stroke="black" d="M235.88,-742.2C239.2,-753.95 243.66,-769.76 247.45,-783.15"/>
<polygon fill="black" stroke="black" points="244.09,-784.15 250.18,-792.82 250.83,-782.25 244.09,-784.15"/>
</a>
</g>
<text text-anchor="middle" x="249.53" y="-763.8" font-family="Times-Roman" font-size="14.00">2</text>
</g>
<!-- Cut8 -->
<g id="node9" class="node">
<title>Cut8</title>
<ellipse fill="none" stroke="black" cx="170.03" cy="-637" rx="27" ry="18"/>
<text text-anchor="middle" x="170.03" y="-633.3" font-family="Times-Roman" font-size="14.00">Cut</text>
</g>
<!-- Cut8&#45;&gt;PiL5 -->
<g id="edge8" class="edge">
<title>Cut8&#45;&gt;PiL5</title>
<g id="a_edge8"><a xlink:title="c_lseq68">
<path fill="none" stroke="black" d="M156.62,-663.38C153.06,-673.68 149.67,-685.6 147.3,-696.05"/>
<polygon fill="black" stroke="black" points="163.38,-655.2 156.63,-663.36 156.82,-652.77 163.38,-655.2"/>
<polygon fill="black" stroke="black" points="143.86,-695.42 145.31,-705.91 150.72,-696.8 143.86,-695.42"/>
</a>
</g>
</g>
<!-- Cut8&#45;&gt;PiL5 -->
<g id="edge35" class="edge">
<title>Cut8&#45;&gt;PiL5</title>
<g id="a_edge35"><a xlink:title="lval70">
<path fill="none" stroke="blue" d="M170.72,-655.2C168.62,-667.26 164.25,-683.59 159.57,-697.21"/>
<polygon fill="blue" stroke="blue" points="156.15,-696.38 155.97,-706.97 162.71,-698.8 156.15,-696.38"/>
</a>
</g>
</g>
<!-- Cut8&#45;&gt;Identity6 -->
<g id="edge53" class="edge">
<title>Cut8&#45;&gt;Identity6</title>
<g id="a_edge53"><a xlink:title="rval71">
<path fill="none" stroke="red" d="M190.29,-649.1C220.67,-665.96 275.01,-697 280.03,-706 293.79,-730.69 282.34,-762.8 270.8,-784.76"/>
<polygon fill="red" stroke="red" points="267.74,-783.07 265.92,-793.51 273.85,-786.48 267.74,-783.07"/>
</a>
</g>
</g>
<!-- Cut8&#45;&gt;BangD7 -->
<g id="edge11" class="edge">
<title>Cut8&#45;&gt;BangD7</title>
<g id="a_edge11"><a xlink:title="c_rseq69">
<path fill="none" stroke="black" d="M181.21,-653.59C190.16,-666.05 202.87,-683.76 213.21,-698.17"/>
<polygon fill="black" stroke="black" points="210.61,-700.55 219.29,-706.63 216.3,-696.47 210.61,-700.55"/>
</a>
</g>
<text text-anchor="middle" x="209.53" y="-676.8" font-family="Times-Roman" font-size="14.00">2</text>
</g>
<!-- Bang9 -->
<g id="node10" class="node">
<title>Bang9</title>
<ellipse fill="none" stroke="black" cx="170.03" cy="-550" rx="32.49" ry="18"/>
<text text-anchor="middle" x="170.03" y="-546.3" font-family="Times-Roman" font-size="14.00">Bang</text>
</g>
<!-- Bang9&#45;&gt;Identity4 -->
<g id="edge44" class="edge">
<title>Bang9&#45;&gt;Identity4</title>
<g id="a_edge44"><a xlink:title="newrretf66">
<path fill="none" stroke="red" d="M158.94,-567.08C136.42,-600.9 86,-682.65 69.03,-760 67.6,-766.51 65.38,-769.42 69.03,-775 73.64,-782.05 89.33,-789.58 105.62,-795.84"/>
<polygon fill="red" stroke="red" points="104.6,-799.19 115.19,-799.36 107.02,-792.62 104.6,-799.19"/>
</a>
</g>
<text text-anchor="middle" x="103.53" y="-676.8" font-family="Times-Roman" font-size="14.00">2</text>
</g>
<!-- Bang9&#45;&gt;BangD7 -->
<g id="edge18" class="edge">
<title>Bang9&#45;&gt;BangD7</title>
<g id="a_edge18"><a xlink:title="hf65">
<path fill="none" stroke="blue" d="M180.11,-567.22C188.1,-580.66 199.04,-600.5 206.03,-619 215.63,-644.41 222.42,-674.73 226.48,-696.06"/>
<polygon fill="blue" stroke="blue" points="223.06,-696.83 228.3,-706.04 229.95,-695.57 223.06,-696.83"/>
</a>
</g>
<text text-anchor="middle" x="222.53" y="-633.3" font-family="Times-Roman" font-size="14.00">1</text>
</g>
<!-- Bang9&#45;&gt;Cut8 -->
<g id="edge4" class="edge">
<title>Bang9&#45;&gt;Cut8</title>
<g id="a_edge4"><a xlink:title="c_bseq67">
<path fill="none" stroke="black" d="M170.03,-568.2C170.03,-579.83 170.03,-595.45 170.03,-608.76"/>
<polygon fill="black" stroke="black" points="166.53,-608.82 170.03,-618.82 173.53,-608.82 166.53,-608.82"/>
</a>
</g>
<text text-anchor="middle" x="174.53" y="-589.8" font-family="Times-Roman" font-size="14.00">2</text>
</g>
<!-- Identity10 -->
<g id="node11" class="node">
<title>Identity10</title>
<ellipse fill="none" stroke="black" cx="265.03" cy="-550" rx="44.39" ry="18"/>
<text text-anchor="middle" x="265.03" y="-546.3" font-family="Times-Roman" font-size="14.00">Identity</text>
</g>
<!-- PiL11 -->
<g id="node12" class="node">
<title>PiL11</title>
<ellipse fill="none" stroke="black" cx="265.03" cy="-463" rx="27" ry="18"/>
<text text-anchor="middle" x="265.03" y="-459.3" font-family="Times-Roman" font-size="14.00">PiL</text>
</g>
<!-- PiL11&#45;&gt;Bang9 -->
<g id="edge15" class="edge">
<title>PiL11&#45;&gt;Bang9</title>
<g id="a_edge15"><a xlink:title="dseq63">
<path fill="none" stroke="black" d="M242.16,-473C229.05,-478.96 212.89,-487.76 201.03,-499 193.73,-505.91 187.46,-514.89 182.51,-523.34"/>
<polygon fill="black" stroke="black" points="179.41,-521.71 177.67,-532.16 185.54,-525.08 179.41,-521.71"/>
</a>
</g>
<text text-anchor="middle" x="205.53" y="-502.8" font-family="Times-Roman" font-size="14.00">1</text>
</g>
<!-- PiL11&#45;&gt;Bang9 -->
<g id="edge39" class="edge">
<title>PiL11&#45;&gt;Bang9</title>
<g id="a_edge39"><a xlink:title="newrret61">
<path fill="none" stroke="red" d="M249.69,-478.08C238.69,-488.14 223.51,-501.97 210.03,-514 205.05,-518.43 199.71,-523.15 194.59,-527.63"/>
<polygon fill="red" stroke="red" points="192.05,-525.2 186.83,-534.42 196.66,-530.47 192.05,-525.2"/>
</a>
</g>
<text text-anchor="middle" x="230.53" y="-502.8" font-family="Times-Roman" font-size="14.00">1</text>
</g>
<!-- PiL11&#45;&gt;Identity10 -->
<g id="edge24" class="edge">
<title>PiL11&#45;&gt;Identity10</title>
<g id="a_edge24"><a xlink:title="idseq64">
<path fill="none" stroke="black" d="M258.7,-490.92C258.14,-500.79 258.14,-511.96 258.68,-521.84"/>
<polygon fill="black" stroke="black" points="263.01,-481.07 258.71,-490.76 256.03,-480.5 263.01,-481.07"/>
<polygon fill="black" stroke="black" points="255.21,-522.26 259.49,-531.95 262.18,-521.7 255.21,-522.26"/>
</a>
</g>
</g>
<!-- PiL11&#45;&gt;Identity10 -->
<g id="edge30" class="edge">
<title>PiL11&#45;&gt;Identity10</title>
<g id="a_edge30"><a xlink:title="lret62">
<path fill="none" stroke="blue" d="M270.53,-480.79C271.83,-492.47 272.11,-508.3 271.37,-521.77"/>
<polygon fill="blue" stroke="blue" points="267.87,-521.7 270.56,-531.95 274.85,-522.26 267.87,-521.7"/>
</a>
</g>
</g>
<!-- Identity12 -->
<g id="node13" class="node">
<title>Identity12</title>
<ellipse fill="none" stroke="black" cx="456.03" cy="-985" rx="44.39" ry="18"/>
<text text-anchor="middle" x="456.03" y="-981.3" font-family="Times-Roman" font-size="14.00">Identity</text>
</g>
<!-- BangD13 -->
<g id="node14" class="node">
<title>BangD13</title>
<ellipse fill="none" stroke="black" cx="456.03" cy="-898" rx="39.79" ry="18"/>
<text text-anchor="middle" x="456.03" y="-894.3" font-family="Times-Roman" font-size="14.00">BangD</text>
</g>
<!-- BangD13&#45;&gt;Identity12 -->
<g id="edge72" class="edge">
<title>BangD13&#45;&gt;Identity12</title>
<g id="a_edge72"><a xlink:title="yret60">
<path fill="none" stroke="blue" d="M438.07,-914.38C432.84,-919.97 427.79,-926.71 425.03,-934 421.5,-943.31 425.15,-952.78 431.03,-960.94"/>
<polygon fill="blue" stroke="blue" points="428.36,-963.2 437.47,-968.6 433.72,-958.69 428.36,-963.2"/>
</a>
</g>
<text text-anchor="middle" x="429.53" y="-937.8" font-family="Times-Roman" font-size="14.00">2</text>
</g>
<!-- BangD13&#45;&gt;Identity12 -->
<g id="edge74" class="edge">
<title>BangD13&#45;&gt;Identity12</title>
<g id="a_edge74"><a xlink:title="yseq59">
<path fill="none" stroke="black" d="M456.03,-916.2C456.03,-927.83 456.03,-943.45 456.03,-956.76"/>
<polygon fill="black" stroke="black" points="452.53,-956.82 456.03,-966.82 459.53,-956.82 452.53,-956.82"/>
</a>
</g>
<text text-anchor="middle" x="460.53" y="-937.8" font-family="Times-Roman" font-size="14.00">2</text>
</g>
<!-- Bang14 -->
<g id="node15" class="node">
<title>Bang14</title>
<ellipse fill="none" stroke="black" cx="456.03" cy="-811" rx="32.49" ry="18"/>
<text text-anchor="middle" x="456.03" y="-807.3" font-family="Times-Roman" font-size="14.00">Bang</text>
</g>
<!-- Bang14&#45;&gt;Identity12 -->
<g id="edge43" class="edge">
<title>Bang14&#45;&gt;Identity12</title>
<g id="a_edge43"><a xlink:title="newrretf57">
<path fill="none" stroke="red" d="M471.3,-827.15C483.07,-839.98 498.41,-859.5 505.03,-880 509.94,-895.22 509.94,-900.77 505.03,-916 499.76,-932.31 488.96,-948.01 478.84,-960.21"/>
<polygon fill="red" stroke="red" points="475.94,-958.21 472.02,-968.05 481.22,-962.8 475.94,-958.21"/>
</a>
</g>
<text text-anchor="middle" x="512.53" y="-894.3" font-family="Times-Roman" font-size="14.00">2</text>
</g>
<!-- Bang14&#45;&gt;BangD13 -->
<g id="edge3" class="edge">
<title>Bang14&#45;&gt;BangD13</title>
<g id="a_edge3"><a xlink:title="c_bseq58">
<path fill="none" stroke="black" d="M456.03,-829.2C456.03,-840.83 456.03,-856.45 456.03,-869.76"/>
<polygon fill="black" stroke="black" points="452.53,-869.82 456.03,-879.82 459.53,-869.82 452.53,-869.82"/>
</a>
</g>
<text text-anchor="middle" x="460.53" y="-850.8" font-family="Times-Roman" font-size="14.00">2</text>
</g>
<!-- Bang14&#45;&gt;BangD13 -->
<g id="edge70" class="edge">
<title>Bang14&#45;&gt;BangD13</title>
<g id="a_edge70"><a xlink:title="yBf56">
<path fill="none" stroke="blue" d="M448,-828.52C444.25,-838.2 441,-850.7 443.03,-862 443.54,-864.87 444.28,-867.81 445.14,-870.71"/>
<polygon fill="blue" stroke="blue" points="441.86,-871.93 448.43,-880.25 448.48,-869.65 441.86,-871.93"/>
</a>
</g>
<text text-anchor="middle" x="447.53" y="-850.8" font-family="Times-Roman" font-size="14.00">1</text>
</g>
<!-- Identity15 -->
<g id="node16" class="node">
<title>Identity15</title>
<ellipse fill="none" stroke="black" cx="361.03" cy="-811" rx="44.39" ry="18"/>
<text text-anchor="middle" x="361.03" y="-807.3" font-family="Times-Roman" font-size="14.00">Identity</text>
</g>
<!-- PiL16 -->
<g id="node17" class="node">
<title>PiL16</title>
<ellipse fill="none" stroke="black" cx="430.03" cy="-724" rx="27" ry="18"/>
<text text-anchor="middle" x="430.03" y="-720.3" font-family="Times-Roman" font-size="14.00">PiL</text>
</g>
<!-- PiL16&#45;&gt;Bang14 -->
<g id="edge14" class="edge">
<title>PiL16&#45;&gt;Bang14</title>
<g id="a_edge14"><a xlink:title="dseq54">
<path fill="none" stroke="black" d="M435.16,-741.79C438.77,-753.59 443.68,-769.62 447.82,-783.17"/>
<polygon fill="black" stroke="black" points="444.54,-784.41 450.81,-792.95 451.23,-782.36 444.54,-784.41"/>
</a>
</g>
<text text-anchor="middle" x="449.53" y="-763.8" font-family="Times-Roman" font-size="14.00">1</text>
</g>
<!-- PiL16&#45;&gt;Bang14 -->
<g id="edge38" class="edge">
<title>PiL16&#45;&gt;Bang14</title>
<g id="a_edge38"><a xlink:title="newrret52">
<path fill="none" stroke="red" d="M426.84,-742.11C425.69,-751.98 425.44,-764.48 429.03,-775 430.42,-779.08 432.5,-783.06 434.91,-786.79"/>
<polygon fill="red" stroke="red" points="432.17,-788.97 440.93,-794.94 437.8,-784.81 432.17,-788.97"/>
</a>
</g>
<text text-anchor="middle" x="433.53" y="-763.8" font-family="Times-Roman" font-size="14.00">1</text>
</g>
<!-- PiL16&#45;&gt;Identity15 -->
<g id="edge23" class="edge">
<title>PiL16&#45;&gt;Identity15</title>
<g id="a_edge23"><a xlink:title="idseq55">
<path fill="none" stroke="black" d="M406.89,-746.19C396.33,-757.98 384.27,-772.72 375.06,-785.06"/>
<polygon fill="black" stroke="black" points="416.4,-741.02 407.05,-746.01 411.25,-736.28 416.4,-741.02"/>
<polygon fill="black" stroke="black" points="372.23,-783 369.19,-793.15 377.89,-787.11 372.23,-783"/>
</a>
</g>
</g>
<!-- PiL16&#45;&gt;Identity15 -->
<g id="edge29" class="edge">
<title>PiL16&#45;&gt;Identity15</title>
<g id="a_edge29"><a xlink:title="lret53">
<path fill="none" stroke="blue" d="M422.18,-741.38C413.16,-754.33 398.57,-772.55 385.8,-786.96"/>
<polygon fill="blue" stroke="blue" points="383.07,-784.76 378.94,-794.52 388.26,-789.46 383.07,-784.76"/>
</a>
</g>
</g>
<!-- Identity17 -->
<g id="node18" class="node">
<title>Identity17</title>
<ellipse fill="none" stroke="black" cx="551.03" cy="-811" rx="44.39" ry="18"/>
<text text-anchor="middle" x="551.03" y="-807.3" font-family="Times-Roman" font-size="14.00">Identity</text>
</g>
<!-- BangD18 -->
<g id="node19" class="node">
<title>BangD18</title>
<ellipse fill="none" stroke="black" cx="515.03" cy="-724" rx="39.79" ry="18"/>
<text text-anchor="middle" x="515.03" y="-720.3" font-family="Times-Roman" font-size="14.00">BangD</text>
</g>
<!-- BangD18&#45;&gt;Identity17 -->
<g id="edge71" class="edge">
<title>BangD18&#45;&gt;Identity17</title>
<g id="a_edge71"><a xlink:title="yret51">
<path fill="none" stroke="blue" d="M513.69,-742.33C513.58,-752.27 514.58,-764.77 519.03,-775 520.85,-779.19 523.38,-783.2 526.24,-786.93"/>
<polygon fill="blue" stroke="blue" points="523.66,-789.29 532.85,-794.56 528.95,-784.71 523.66,-789.29"/>
</a>
</g>
<text text-anchor="middle" x="523.53" y="-763.8" font-family="Times-Roman" font-size="14.00">1</text>
</g>
<!-- BangD18&#45;&gt;Identity17 -->
<g id="edge73" class="edge">
<title>BangD18&#45;&gt;Identity17</title>
<g id="a_edge73"><a xlink:title="yseq50">
<path fill="none" stroke="black" d="M522.14,-741.79C527.18,-753.7 534.06,-769.93 539.83,-783.57"/>
<polygon fill="black" stroke="black" points="536.68,-785.1 543.81,-792.95 543.13,-782.37 536.68,-785.1"/>
</a>
</g>
<text text-anchor="middle" x="539.53" y="-763.8" font-family="Times-Roman" font-size="14.00">1</text>
</g>
<!-- Cut19 -->
<g id="node20" class="node">
<title>Cut19</title>
<ellipse fill="none" stroke="black" cx="430.03" cy="-637" rx="27" ry="18"/>
<text text-anchor="middle" x="430.03" y="-633.3" font-family="Times-Roman" font-size="14.00">Cut</text>
</g>
<!-- Cut19&#45;&gt;PiL16 -->
<g id="edge7" class="edge">
<title>Cut19&#45;&gt;PiL16</title>
<g id="a_edge7"><a xlink:title="c_lseq46">
<path fill="none" stroke="black" d="M423.69,-664.99C423.14,-674.93 423.14,-686.18 423.7,-696.11"/>
<polygon fill="black" stroke="black" points="428.01,-655.07 423.71,-664.76 421.03,-654.5 428.01,-655.07"/>
<polygon fill="black" stroke="black" points="420.22,-696.56 424.53,-706.24 427.2,-695.99 420.22,-696.56"/>
</a>
</g>
</g>
<!-- Cut19&#45;&gt;PiL16 -->
<g id="edge34" class="edge">
<title>Cut19&#45;&gt;PiL16</title>
<g id="a_edge34"><a xlink:title="lval48">
<path fill="none" stroke="blue" d="M435.53,-654.79C436.84,-666.55 437.12,-682.51 436.36,-696.04"/>
<polygon fill="blue" stroke="blue" points="432.85,-695.99 435.53,-706.24 439.83,-696.55 432.85,-695.99"/>
</a>
</g>
</g>
<!-- Cut19&#45;&gt;Identity17 -->
<g id="edge52" class="edge">
<title>Cut19&#45;&gt;Identity17</title>
<g id="a_edge52"><a xlink:title="rval49">
<path fill="none" stroke="red" d="M450.64,-649.04C454.42,-651.04 458.34,-653.09 462.03,-655 507.08,-678.22 537.38,-662.88 564.03,-706 578.46,-729.35 571.36,-761.31 563.1,-783.61"/>
<polygon fill="red" stroke="red" points="559.76,-782.53 559.3,-793.11 566.26,-785.13 559.76,-782.53"/>
</a>
</g>
</g>
<!-- Cut19&#45;&gt;BangD18 -->
<g id="edge10" class="edge">
<title>Cut19&#45;&gt;BangD18</title>
<g id="a_edge10"><a xlink:title="c_rseq47">
<path fill="none" stroke="black" d="M442.2,-653.45C450.49,-663.64 461.93,-677.07 473.03,-688 477.64,-692.54 482.78,-697.15 487.84,-701.47"/>
<polygon fill="black" stroke="black" points="485.71,-704.24 495.63,-707.96 490.19,-698.87 485.71,-704.24"/>
</a>
</g>
<text text-anchor="middle" x="477.53" y="-676.8" font-family="Times-Roman" font-size="14.00">1</text>
</g>
<!-- BangC20 -->
<g id="node21" class="node">
<title>BangC20</title>
<ellipse fill="none" stroke="black" cx="426.03" cy="-550" rx="38.19" ry="18"/>
<text text-anchor="middle" x="426.03" y="-546.3" font-family="Times-Roman" font-size="14.00">BangC</text>
</g>
<!-- BangC20&#45;&gt;Bang14 -->
<g id="edge69" class="edge">
<title>BangC20&#45;&gt;Bang14</title>
<g id="a_edge69"><a xlink:title="yB44">
<path fill="none" stroke="blue" d="M410.8,-576.4C404.25,-588.79 397.34,-604.18 394.03,-619 382.1,-672.35 374.74,-690.84 394.03,-742 401.09,-760.74 416.11,-777.44 429.6,-789.59"/>
<polygon fill="blue" stroke="blue" points="418.74,-569.27 410.84,-576.33 412.62,-565.88 418.74,-569.27"/>
<polygon fill="blue" stroke="blue" points="427.42,-792.34 437.29,-796.21 431.99,-787.03 427.42,-792.34"/>
</a>
</g>
<text text-anchor="middle" x="387.53" y="-676.8" font-family="Times-Roman" font-size="14.00">1</text>
</g>
<!-- BangC20&#45;&gt;BangD18 -->
<g id="edge68" class="edge">
<title>BangC20&#45;&gt;BangD18</title>
<g id="a_edge68"><a xlink:title="yA43">
<path fill="none" stroke="blue" d="M436.32,-567.52C444.67,-581.14 456.56,-601.07 466.03,-619 479.79,-645.05 493.97,-675.64 503.52,-696.87"/>
<polygon fill="blue" stroke="blue" points="500.41,-698.49 507.68,-706.19 506.8,-695.64 500.41,-698.49"/>
</a>
</g>
<text text-anchor="middle" x="488.53" y="-633.3" font-family="Times-Roman" font-size="14.00">1</text>
</g>
<!-- BangC20&#45;&gt;Cut19 -->
<g id="edge57" class="edge">
<title>BangC20&#45;&gt;Cut19</title>
<g id="a_edge57"><a xlink:title="seq45">
<path fill="none" stroke="black" d="M426.84,-568.2C427.38,-579.83 428.12,-595.45 428.74,-608.76"/>
<polygon fill="black" stroke="black" points="425.25,-609 429.22,-618.82 432.24,-608.67 425.25,-609"/>
</a>
</g>
</g>
<!-- PiR21 -->
<g id="node22" class="node">
<title>PiR21</title>
<ellipse fill="none" stroke="black" cx="337.03" cy="-463" rx="27" ry="18"/>
<text text-anchor="middle" x="337.03" y="-459.3" font-family="Times-Roman" font-size="14.00">PiR</text>
</g>
<!-- PiR21&#45;&gt;Identity15 -->
<g id="edge47" class="edge">
<title>PiR21&#45;&gt;Identity15</title>
<g id="a_edge47"><a xlink:title="ret42">
<path fill="none" stroke="red" d="M337.03,-481.25C337.03,-498.43 337.03,-525.53 337.03,-549 337.03,-549 337.03,-549 337.03,-681.5 337.03,-717 345.99,-757.1 352.96,-782.92"/>
<polygon fill="red" stroke="red" points="349.64,-784.04 355.7,-792.73 356.38,-782.15 349.64,-784.04"/>
</a>
</g>
</g>
<!-- PiR21&#45;&gt;BangC20 -->
<g id="edge56" class="edge">
<title>PiR21&#45;&gt;BangC20</title>
<g id="a_edge56"><a xlink:title="seq40">
<path fill="none" stroke="black" d="M347.99,-479.59C360.5,-493.1 380.91,-512.77 397.81,-527.72"/>
<polygon fill="black" stroke="black" points="395.94,-530.73 405.78,-534.64 400.52,-525.44 395.94,-530.73"/>
</a>
</g>
</g>
<!-- PiR21&#45;&gt;BangC20 -->
<g id="edge67" class="edge">
<title>PiR21&#45;&gt;BangC20</title>
<g id="a_edge67"><a xlink:title="y41">
<path fill="none" stroke="blue" d="M355.11,-476.54C370.39,-489.32 391.86,-509.45 407.29,-525.25"/>
<polygon fill="blue" stroke="blue" points="404.89,-527.8 414.33,-532.61 409.95,-522.96 404.89,-527.8"/>
</a>
</g>
</g>
<!-- Cut22 -->
<g id="node23" class="node">
<title>Cut22</title>
<ellipse fill="none" stroke="black" cx="334.03" cy="-364" rx="26" ry="26"/>
<ellipse fill="none" stroke="black" cx="334.03" cy="-364" rx="30" ry="30"/>
<text text-anchor="middle" x="334.03" y="-360.3" font-family="Times-Roman" font-size="14.00">Cut</text>
</g>
<!-- Cut22&#45;&gt;PiL11 -->
<g id="edge6" class="edge">
<title>Cut22&#45;&gt;PiL11</title>
<g id="a_edge6"><a xlink:title="c_lseq36">
<path fill="none" stroke="black" d="M307.19,-393.96C296.7,-407.64 285.28,-423.8 276.86,-436.94"/>
<polygon fill="black" stroke="black" points="316.13,-388.2 307.22,-393.92 310.62,-383.89 316.13,-388.2"/>
<polygon fill="black" stroke="black" points="273.85,-435.14 271.55,-445.49 279.8,-438.84 273.85,-435.14"/>
</a>
</g>
</g>
<!-- Cut22&#45;&gt;PiL11 -->
<g id="edge33" class="edge">
<title>Cut22&#45;&gt;PiL11</title>
<g id="a_edge33"><a xlink:title="lval38">
<path fill="none" stroke="blue" stroke-width="2" d="M321.43,-391.25C311.61,-406.44 298.05,-425.36 286.58,-439.81"/>
<polygon fill="blue" stroke="blue" stroke-width="2" points="283.73,-437.78 280.12,-447.74 289.15,-442.2 283.73,-437.78"/>
</a>
</g>
</g>
<!-- Cut22&#45;&gt;PiR21 -->
<g id="edge9" class="edge">
<title>Cut22&#45;&gt;PiR21</title>
<g id="a_edge9"><a xlink:title="c_rseq37">
<path fill="none" stroke="black" d="M328.69,-393.58C328.36,-406.67 328.87,-422.12 330.07,-435.01"/>
<polygon fill="black" stroke="black" points="326.62,-435.61 331.24,-445.14 333.57,-434.81 326.62,-435.61"/>
</a>
</g>
</g>
<!-- Cut22&#45;&gt;PiR21 -->
<g id="edge51" class="edge">
<title>Cut22&#45;&gt;PiR21</title>
<g id="a_edge51"><a xlink:title="rval39">
<path fill="none" stroke="red" d="M341.1,-393.31C342.26,-406.42 342.72,-421.92 342.32,-434.87"/>
<polygon fill="red" stroke="red" points="338.81,-434.88 341.77,-445.05 345.8,-435.25 338.81,-434.88"/>
</a>
</g>
</g>
<!-- PiR23 -->
<g id="node24" class="node">
<title>PiR23</title>
<ellipse fill="none" stroke="black" cx="370.03" cy="-265" rx="27" ry="18"/>
<text text-anchor="middle" x="370.03" y="-261.3" font-family="Times-Roman" font-size="14.00">PiR</text>
</g>
<!-- PiR23&#45;&gt;Bang9 -->
<g id="edge17" class="edge">
<title>PiR23&#45;&gt;Bang9</title>
<g id="a_edge17"><a xlink:title="h34">
<path fill="none" stroke="blue" d="M353.13,-279.26C337.17,-292.26 313.04,-313.09 295.03,-334 237.5,-400.77 222.54,-419.25 185.03,-499 181.63,-506.21 178.8,-514.38 176.54,-521.98"/>
<polygon fill="blue" stroke="blue" points="173.1,-521.3 173.82,-531.87 179.85,-523.15 173.1,-521.3"/>
</a>
</g>
<text text-anchor="middle" x="236.53" y="-415.8" font-family="Times-Roman" font-size="14.00">1</text>
</g>
<!-- PiR23&#45;&gt;Identity10 -->
<g id="edge46" class="edge">
<title>PiR23&#45;&gt;Identity10</title>
<g id="a_edge46"><a xlink:title="ret35">
<path fill="none" stroke="red" d="M375.49,-282.69C386.87,-320.71 409.2,-415.47 373.03,-481 359.08,-506.25 331.38,-523.41 307.53,-534.17"/>
<polygon fill="red" stroke="red" points="306.09,-530.98 298.27,-538.12 308.84,-537.42 306.09,-530.98"/>
</a>
</g>
</g>
<!-- PiR23&#45;&gt;Cut22 -->
<g id="edge55" class="edge">
<title>PiR23&#45;&gt;Cut22</title>
<g id="a_edge55"><a xlink:title="seq33">
<path fill="none" stroke="black" d="M363.76,-282.9C359.33,-294.83 353.22,-311.28 347.69,-326.17"/>
<polygon fill="black" stroke="black" points="344.37,-325.08 344.17,-335.67 350.93,-327.51 344.37,-325.08"/>
</a>
</g>
</g>
<!-- Bang24 -->
<g id="node25" class="node">
<title>Bang24</title>
<ellipse fill="none" stroke="black" cx="402.03" cy="-178" rx="32.49" ry="18"/>
<text text-anchor="middle" x="402.03" y="-174.3" font-family="Times-Roman" font-size="14.00">Bang</text>
</g>
<!-- Bang24&#45;&gt;PiR23 -->
<g id="edge2" class="edge">
<title>Bang24&#45;&gt;PiR23</title>
<g id="a_edge2"><a xlink:title="c_bseq32">
<path fill="none" stroke="black" d="M385.14,-193.39C379.57,-199.17 374.04,-206.29 371.03,-214 368.28,-221.04 367.28,-229.06 367.16,-236.6"/>
<polygon fill="black" stroke="black" points="363.67,-236.88 367.49,-246.76 370.67,-236.66 363.67,-236.88"/>
</a>
</g>
<text text-anchor="middle" x="375.53" y="-217.8" font-family="Times-Roman" font-size="14.00">1</text>
</g>
<!-- Bang24&#45;&gt;PiR23 -->
<g id="edge42" class="edge">
<title>Bang24&#45;&gt;PiR23</title>
<g id="a_edge42"><a xlink:title="newrretf31">
<path fill="none" stroke="red" d="M395.7,-195.79C391.19,-207.78 385.03,-224.15 379.87,-237.84"/>
<polygon fill="red" stroke="red" points="376.58,-236.65 376.34,-247.24 383.13,-239.12 376.58,-236.65"/>
</a>
</g>
<text text-anchor="middle" x="392.53" y="-217.8" font-family="Times-Roman" font-size="14.00">1</text>
</g>
<!-- Identity25 -->
<g id="node26" class="node">
<title>Identity25</title>
<ellipse fill="none" stroke="black" cx="567.03" cy="-637" rx="44.39" ry="18"/>
<text text-anchor="middle" x="567.03" y="-633.3" font-family="Times-Roman" font-size="14.00">Identity</text>
</g>
<!-- BangD26 -->
<g id="node27" class="node">
<title>BangD26</title>
<ellipse fill="none" stroke="black" cx="524.03" cy="-550" rx="39.79" ry="18"/>
<text text-anchor="middle" x="524.03" y="-546.3" font-family="Times-Roman" font-size="14.00">BangD</text>
</g>
<!-- BangD26&#45;&gt;Identity25 -->
<g id="edge64" class="edge">
<title>BangD26&#45;&gt;Identity25</title>
<g id="a_edge64"><a xlink:title="xret26">
<path fill="none" stroke="blue" d="M533.28,-567.64C536.44,-573.42 539.94,-579.96 543.03,-586 547.01,-593.8 551.2,-602.37 554.94,-610.18"/>
<polygon fill="blue" stroke="blue" points="551.78,-611.69 559.23,-619.23 558.1,-608.69 551.78,-611.69"/>
</a>
</g>
<text text-anchor="middle" x="553.53" y="-589.8" font-family="Times-Roman" font-size="14.00">1</text>
</g>
<!-- BangD26&#45;&gt;Identity25 -->
<g id="edge66" class="edge">
<title>BangD26&#45;&gt;Identity25</title>
<g id="a_edge66"><a xlink:title="xseq25">
<path fill="none" stroke="black" d="M524.16,-568.01C524.85,-578.08 526.83,-590.82 532.03,-601 534.25,-605.36 537.22,-609.51 540.5,-613.34"/>
<polygon fill="black" stroke="black" points="538.06,-615.86 547.5,-620.68 543.13,-611.03 538.06,-615.86"/>
</a>
</g>
<text text-anchor="middle" x="536.53" y="-589.8" font-family="Times-Roman" font-size="14.00">1</text>
</g>
<!-- Bang27 -->
<g id="node28" class="node">
<title>Bang27</title>
<ellipse fill="none" stroke="black" cx="496.03" cy="-463" rx="32.49" ry="18"/>
<text text-anchor="middle" x="496.03" y="-459.3" font-family="Times-Roman" font-size="14.00">Bang</text>
</g>
<!-- Bang27&#45;&gt;Identity25 -->
<g id="edge41" class="edge">
<title>Bang27&#45;&gt;Identity25</title>
<g id="a_edge41"><a xlink:title="newrretf23">
<path fill="none" stroke="red" d="M518.31,-476.31C536.83,-487.94 561.88,-507.28 573.03,-532 584.02,-556.36 580.32,-587.26 575.22,-609.03"/>
<polygon fill="red" stroke="red" points="571.78,-608.35 572.67,-618.91 578.56,-610.1 571.78,-608.35"/>
</a>
</g>
<text text-anchor="middle" x="584.53" y="-546.3" font-family="Times-Roman" font-size="14.00">1</text>
</g>
<!-- Bang27&#45;&gt;BangD26 -->
<g id="edge1" class="edge">
<title>Bang27&#45;&gt;BangD26</title>
<g id="a_edge1"><a xlink:title="c_bseq24">
<path fill="none" stroke="black" d="M501.56,-480.79C505.44,-492.59 510.73,-508.62 515.19,-522.17"/>
<polygon fill="black" stroke="black" points="511.96,-523.54 518.41,-531.95 518.61,-521.35 511.96,-523.54"/>
</a>
</g>
<text text-anchor="middle" x="515.53" y="-502.8" font-family="Times-Roman" font-size="14.00">1</text>
</g>
<!-- Bang27&#45;&gt;BangD26 -->
<g id="edge63" class="edge">
<title>Bang27&#45;&gt;BangD26</title>
<g id="a_edge63"><a xlink:title="xBf22">
<path fill="none" stroke="blue" d="M492.7,-481.15C491.51,-491.04 491.26,-503.54 495.03,-514 496.47,-518 498.6,-521.88 501.05,-525.5"/>
<polygon fill="blue" stroke="blue" points="498.31,-527.68 507.21,-533.42 503.84,-523.38 498.31,-527.68"/>
</a>
</g>
<text text-anchor="middle" x="499.53" y="-502.8" font-family="Times-Roman" font-size="14.00">0</text>
</g>
<!-- Identity28 -->
<g id="node29" class="node">
<title>Identity28</title>
<ellipse fill="none" stroke="black" cx="591.03" cy="-463" rx="44.39" ry="18"/>
<text text-anchor="middle" x="591.03" y="-459.3" font-family="Times-Roman" font-size="14.00">Identity</text>
</g>
<!-- PiL29 -->
<g id="node30" class="node">
<title>PiL29</title>
<ellipse fill="none" stroke="black" cx="524.03" cy="-364" rx="27" ry="18"/>
<text text-anchor="middle" x="524.03" y="-360.3" font-family="Times-Roman" font-size="14.00">PiL</text>
</g>
<!-- PiL29&#45;&gt;Bang27 -->
<g id="edge12" class="edge">
<title>PiL29&#45;&gt;Bang27</title>
<g id="a_edge12"><a xlink:title="dseq20">
<path fill="none" stroke="black" d="M519.15,-381.89C514.92,-396.55 508.72,-418.02 503.81,-435.04"/>
<polygon fill="black" stroke="black" points="500.35,-434.39 500.94,-444.97 507.08,-436.33 500.35,-434.39"/>
</a>
</g>
<text text-anchor="middle" x="514.53" y="-415.8" font-family="Times-Roman" font-size="14.00">0</text>
</g>
<!-- PiL29&#45;&gt;Bang27 -->
<g id="edge36" class="edge">
<title>PiL29&#45;&gt;Bang27</title>
<g id="a_edge36"><a xlink:title="newrret18">
<path fill="none" stroke="red" d="M510.9,-379.92C504.13,-388.63 496.57,-400.2 493.03,-412 490.85,-419.24 490.5,-427.34 490.99,-434.87"/>
<polygon fill="red" stroke="red" points="487.53,-435.45 492.13,-444.99 494.49,-434.66 487.53,-435.45"/>
</a>
</g>
<text text-anchor="middle" x="497.53" y="-415.8" font-family="Times-Roman" font-size="14.00">0</text>
</g>
<!-- PiL29&#45;&gt;Identity28 -->
<g id="edge22" class="edge">
<title>PiL29&#45;&gt;Identity28</title>
<g id="a_edge22"><a xlink:title="idseq21">
<path fill="none" stroke="black" d="M535.64,-390.53C544.78,-405.21 557.47,-423.54 568.5,-437.96"/>
<polygon fill="black" stroke="black" points="533.43,-380.09 535.59,-390.46 527.43,-383.7 533.43,-380.09"/>
<polygon fill="black" stroke="black" points="565.84,-440.23 574.76,-445.94 571.34,-435.91 565.84,-440.23"/>
</a>
</g>
</g>
<!-- PiL29&#45;&gt;Identity28 -->
<g id="edge28" class="edge">
<title>PiL29&#45;&gt;Identity28</title>
<g id="a_edge28"><a xlink:title="lret19">
<path fill="none" stroke="blue" d="M538.87,-379.31C551.1,-394.21 567.81,-417.87 579.17,-436.06"/>
<polygon fill="blue" stroke="blue" points="576.4,-438.26 584.57,-445.01 582.4,-434.64 576.4,-438.26"/>
</a>
</g>
</g>
<!-- BangD30 -->
<g id="node31" class="node">
<title>BangD30</title>
<ellipse fill="none" stroke="black" cx="523.03" cy="-265" rx="39.79" ry="18"/>
<text text-anchor="middle" x="523.03" y="-261.3" font-family="Times-Roman" font-size="14.00">BangD</text>
</g>
<!-- BangD30&#45;&gt;PiL29 -->
<g id="edge32" class="edge">
<title>BangD30&#45;&gt;PiL29</title>
<g id="a_edge32"><a xlink:title="lval14">
<path fill="none" stroke="blue" d="M528.88,-282.89C530.57,-288.57 532.18,-294.99 533.03,-301 534.65,-312.59 533.32,-325.39 531.23,-336.34"/>
<polygon fill="blue" stroke="blue" points="527.8,-335.64 529.07,-346.16 534.63,-337.15 527.8,-335.64"/>
</a>
</g>
<text text-anchor="middle" x="537.53" y="-304.8" font-family="Times-Roman" font-size="14.00">0</text>
</g>
<!-- BangD30&#45;&gt;PiL29 -->
<g id="edge65" class="edge">
<title>BangD30&#45;&gt;PiL29</title>
<g id="a_edge65"><a xlink:title="xseq16">
<path fill="none" stroke="black" d="M523.2,-283.34C523.35,-297.82 523.57,-318.74 523.74,-335.5"/>
<polygon fill="black" stroke="black" points="520.25,-335.84 523.85,-345.81 527.25,-335.77 520.25,-335.84"/>
</a>
</g>
<text text-anchor="middle" x="527.53" y="-304.8" font-family="Times-Roman" font-size="14.00">0</text>
</g>
<!-- BangC31 -->
<g id="node32" class="node">
<title>BangC31</title>
<ellipse fill="none" stroke="black" cx="491.03" cy="-178" rx="38.19" ry="18"/>
<text text-anchor="middle" x="491.03" y="-174.3" font-family="Times-Roman" font-size="14.00">BangC</text>
</g>
<!-- BangC31&#45;&gt;Bang27 -->
<g id="edge62" class="edge">
<title>BangC31&#45;&gt;Bang27</title>
<g id="a_edge62"><a xlink:title="xB10">
<path fill="none" stroke="blue" d="M482.78,-205.57C479.33,-218.02 475.73,-233.13 474.03,-247 467.84,-297.21 478.54,-386.05 486.03,-427 486.52,-429.7 487.14,-432.5 487.82,-435.27"/>
<polygon fill="blue" stroke="blue" points="488.96,-196.8 482.82,-205.44 482.23,-194.86 488.96,-196.8"/>
<polygon fill="blue" stroke="blue" points="484.47,-436.33 490.47,-445.06 491.23,-434.5 484.47,-436.33"/>
</a>
</g>
<text text-anchor="middle" x="478.53" y="-304.8" font-family="Times-Roman" font-size="14.00">0</text>
</g>
<!-- BangC31&#45;&gt;BangD30 -->
<g id="edge54" class="edge">
<title>BangC31&#45;&gt;BangD30</title>
<g id="a_edge54"><a xlink:title="seq11">
<path fill="none" stroke="black" d="M488.49,-196.24C487.73,-206.15 487.98,-218.65 492.03,-229 493.62,-233.08 495.92,-237 498.56,-240.64"/>
<polygon fill="black" stroke="black" points="496.07,-243.13 505.16,-248.58 501.46,-238.65 496.07,-243.13"/>
</a>
</g>
<text text-anchor="middle" x="496.53" y="-217.8" font-family="Times-Roman" font-size="14.00">0</text>
</g>
<!-- BangC31&#45;&gt;BangD30 -->
<g id="edge61" class="edge">
<title>BangC31&#45;&gt;BangD30</title>
<g id="a_edge61"><a xlink:title="xA9">
<path fill="none" stroke="blue" d="M497.35,-195.79C501.83,-207.71 507.94,-223.94 513.08,-237.58"/>
<polygon fill="blue" stroke="blue" points="509.81,-238.83 516.61,-246.95 516.36,-236.36 509.81,-238.83"/>
</a>
</g>
<text text-anchor="middle" x="512.53" y="-217.8" font-family="Times-Roman" font-size="14.00">0</text>
</g>
<!-- Assign32 -->
<g id="node33" class="node">
<title>Assign32</title>
<ellipse fill="none" stroke="black" cx="491.03" cy="-18" rx="38.99" ry="18"/>
<text text-anchor="middle" x="491.03" y="-14.3" font-family="Times-Roman" font-size="14.00">Assign</text>
</g>
<!-- Assign32&#45;&gt;Identity28 -->
<g id="edge48" class="edge">
<title>Assign32&#45;&gt;Identity28</title>
<g id="a_edge48"><a xlink:title="ret8">
<path fill="none" stroke="red" d="M524.32,-27.64C553.41,-37.44 591.03,-56.57 591.03,-90 591.03,-90 591.03,-90 591.03,-365 591.03,-388.47 591.03,-415.15 591.03,-434.57"/>
<polygon fill="red" stroke="red" points="587.53,-434.82 591.03,-444.82 594.53,-434.82 587.53,-434.82"/>
</a>
</g>
</g>
<!-- Cut33 -->
<g id="node34" class="node">
<title>Cut33</title>
<ellipse fill="none" stroke="black" cx="491.03" cy="-91" rx="27" ry="18"/>
<text text-anchor="middle" x="491.03" y="-87.3" font-family="Times-Roman" font-size="14.00">Cut</text>
</g>
<!-- Assign32&#45;&gt;Cut33 -->
<g id="edge50" class="edge">
<title>Assign32&#45;&gt;Cut33</title>
<g id="a_edge50"><a xlink:title="retseq0">
<path fill="none" stroke="black" d="M491.03,-36.19C491.03,-44.21 491.03,-53.95 491.03,-62.93"/>
<polygon fill="black" stroke="black" points="487.53,-62.97 491.03,-72.97 494.53,-62.97 487.53,-62.97"/>
</a>
</g>
</g>
<!-- Cut33&#45;&gt;Bang24 -->
<g id="edge13" class="edge">
<title>Cut33&#45;&gt;Bang24</title>
<g id="a_edge13"><a xlink:title="dseq29">
<path fill="none" stroke="black" d="M475.93,-106.42C462.03,-119.69 441.22,-139.57 425.22,-154.85"/>
<polygon fill="black" stroke="black" points="422.61,-152.5 417.8,-161.94 427.45,-157.56 422.61,-152.5"/>
</a>
</g>
<text text-anchor="middle" x="456.53" y="-130.8" font-family="Times-Roman" font-size="14.00">0</text>
</g>
<!-- Cut33&#45;&gt;Bang24 -->
<g id="edge37" class="edge">
<title>Cut33&#45;&gt;Bang24</title>
<g id="a_edge37"><a xlink:title="newrret27">
<path fill="none" stroke="red" d="M468.34,-101.03C455.61,-106.96 440.11,-115.71 429.03,-127 422.3,-133.86 416.78,-142.73 412.53,-151.09"/>
<polygon fill="red" stroke="red" points="409.34,-149.64 408.27,-160.18 415.68,-152.62 409.34,-149.64"/>
</a>
</g>
<text text-anchor="middle" x="433.53" y="-130.8" font-family="Times-Roman" font-size="14.00">0</text>
</g>
<!-- Cut33&#45;&gt;BangC31 -->
<g id="edge58" class="edge">
<title>Cut33&#45;&gt;BangC31</title>
<g id="a_edge58"><a xlink:title="seq6">
<path fill="none" stroke="black" d="M484.7,-118.93C484.14,-128.79 484.14,-139.96 484.68,-149.85"/>
<polygon fill="black" stroke="black" points="489.01,-109.08 484.71,-118.76 482.03,-108.51 489.01,-109.08"/>
<polygon fill="black" stroke="black" points="481.21,-150.26 485.49,-159.95 488.18,-149.7 481.21,-150.26"/>
</a>
</g>
</g>
<!-- Cut33&#45;&gt;BangC31 -->
<g id="edge60" class="edge">
<title>Cut33&#45;&gt;BangC31</title>
<g id="a_edge60"><a xlink:title="x7">
<path fill="none" stroke="blue" d="M496.53,-108.79C497.83,-120.48 498.11,-136.31 497.37,-149.78"/>
<polygon fill="blue" stroke="blue" points="493.87,-149.7 496.56,-159.95 500.85,-150.26 493.87,-149.7"/>
</a>
</g>
</g>
</g>
</svg>
