<?xml version="1.0" encoding="UTF-8" standalone="no"?>
<!DOCTYPE svg PUBLIC "-//W3C//DTD SVG 1.1//EN"
 "http://www.w3.org/Graphics/SVG/1.1/DTD/svg11.dtd">
<!-- Generated by graphviz version 2.49.3 (0)
 -->
<!-- Pages: 1 -->
<svg width="504pt" height="999pt"
 viewBox="0.00 0.00 503.69 998.80" xmlns="http://www.w3.org/2000/svg" xmlns:xlink="http://www.w3.org/1999/xlink">
<g id="graph0" class="graph" transform="scale(1 1) rotate(0) translate(4 994.8)">
<polygon fill="white" stroke="transparent" points="-4,4 -4,-994.8 499.69,-994.8 499.69,4 -4,4"/>
<!-- Identity0 -->
<g id="node1" class="node">
<title>Identity0</title>
<ellipse fill="none" stroke="black" cx="173.35" cy="-972.8" rx="38.19" ry="18"/>
<text text-anchor="middle" x="173.35" y="-969.1" font-family="Times,serif" font-size="14.00">Identity</text>
</g>
<!-- BangD1 -->
<g id="node2" class="node">
<title>BangD1</title>
<ellipse fill="none" stroke="black" cx="173.35" cy="-900.8" rx="36" ry="18"/>
<text text-anchor="middle" x="173.35" y="-897.1" font-family="Times,serif" font-size="14.00">BangD</text>
</g>
<!-- BangD1&#45;&gt;Identity0 -->
<g id="edge23" class="edge">
<title>BangD1&#45;&gt;Identity0</title>
<g id="a_edge23"><a xlink:title="iret84">
<path fill="none" stroke="blue" d="M167.47,-918.74C166.64,-926.57 166.4,-936.05 166.76,-944.82"/>
<polygon fill="blue" stroke="blue" points="163.28,-945.28 167.49,-955.01 170.26,-944.78 163.28,-945.28"/>
</a>
</g>
</g>
<!-- BangD1&#45;&gt;Identity0 -->
<g id="edge24" class="edge">
<title>BangD1&#45;&gt;Identity0</title>
<g id="a_edge24"><a xlink:title="iseq83">
<path fill="none" stroke="black" d="M179.22,-918.74C180.06,-926.57 180.29,-936.05 179.94,-944.82"/>
<polygon fill="black" stroke="black" points="176.43,-944.78 179.21,-955.01 183.41,-945.28 176.43,-944.78"/>
</a>
</g>
</g>
<!-- PiR2 -->
<g id="node3" class="node">
<title>PiR2</title>
<ellipse fill="none" stroke="black" cx="173.35" cy="-828.8" rx="27" ry="18"/>
<text text-anchor="middle" x="173.35" y="-825.1" font-family="Times,serif" font-size="14.00">PiR</text>
</g>
<!-- PiR2&#45;&gt;Identity0 -->
<g id="edge48" class="edge">
<title>PiR2&#45;&gt;Identity0</title>
<g id="a_edge48"><a xlink:title="ret82">
<path fill="none" stroke="red" d="M157.14,-843.23C146.72,-852.98 134.09,-867.16 128.35,-882.8 122.83,-897.81 122.83,-903.78 128.35,-918.8 132.49,-930.07 140.21,-940.59 148.11,-949.24"/>
<polygon fill="red" stroke="red" points="145.82,-951.91 155.31,-956.62 150.83,-947.02 145.82,-951.91"/>
</a>
</g>
</g>
<!-- PiR2&#45;&gt;BangD1 -->
<g id="edge18" class="edge">
<title>PiR2&#45;&gt;BangD1</title>
<g id="a_edge18"><a xlink:title="i81">
<path fill="none" stroke="blue" d="M167.51,-846.38C166.64,-854.29 166.39,-863.94 166.76,-872.86"/>
<polygon fill="blue" stroke="blue" points="163.27,-873.11 167.47,-882.84 170.25,-872.62 163.27,-873.11"/>
</a>
</g>
</g>
<!-- PiR2&#45;&gt;BangD1 -->
<g id="edge54" class="edge">
<title>PiR2&#45;&gt;BangD1</title>
<g id="a_edge54"><a xlink:title="seq80">
<path fill="none" stroke="black" d="M179.19,-846.38C180.05,-854.29 180.3,-863.94 179.93,-872.86"/>
<polygon fill="black" stroke="black" points="176.44,-872.62 179.23,-882.84 183.43,-873.11 176.44,-872.62"/>
</a>
</g>
</g>
<!-- Bang3 -->
<g id="node4" class="node">
<title>Bang3</title>
<ellipse fill="none" stroke="black" cx="173.35" cy="-756.8" rx="29.5" ry="18"/>
<text text-anchor="middle" x="173.35" y="-753.1" font-family="Times,serif" font-size="14.00">Bang</text>
</g>
<!-- Bang3&#45;&gt;PiR2 -->
<g id="edge5" class="edge">
<title>Bang3&#45;&gt;PiR2</title>
<g id="a_edge5"><a xlink:title="c_bseq79">
<path fill="none" stroke="black" d="M167.47,-774.74C166.64,-782.57 166.4,-792.05 166.76,-800.82"/>
<polygon fill="black" stroke="black" points="163.28,-801.28 167.49,-811.01 170.26,-800.78 163.28,-801.28"/>
</a>
</g>
</g>
<!-- Bang3&#45;&gt;PiR2 -->
<g id="edge42" class="edge">
<title>Bang3&#45;&gt;PiR2</title>
<g id="a_edge42"><a xlink:title="newrretf78">
<path fill="none" stroke="red" d="M179.22,-774.74C180.06,-782.57 180.29,-792.05 179.94,-800.82"/>
<polygon fill="red" stroke="red" points="176.43,-800.78 179.21,-811.01 183.41,-801.28 176.43,-800.78"/>
</a>
</g>
</g>
<!-- Identity4 -->
<g id="node5" class="node">
<title>Identity4</title>
<ellipse fill="none" stroke="black" cx="259.35" cy="-756.8" rx="38.19" ry="18"/>
<text text-anchor="middle" x="259.35" y="-753.1" font-family="Times,serif" font-size="14.00">Identity</text>
</g>
<!-- PiL5 -->
<g id="node6" class="node">
<title>PiL5</title>
<ellipse fill="none" stroke="black" cx="195.35" cy="-684.8" rx="27" ry="18"/>
<text text-anchor="middle" x="195.35" y="-681.1" font-family="Times,serif" font-size="14.00">PiL</text>
</g>
<!-- PiL5&#45;&gt;Bang3 -->
<g id="edge13" class="edge">
<title>PiL5&#45;&gt;Bang3</title>
<g id="a_edge13"><a xlink:title="dseq76">
<path fill="none" stroke="black" d="M184.59,-701.68C181.17,-709.65 177.79,-719.53 175.28,-728.66"/>
<polygon fill="black" stroke="black" points="171.85,-727.96 172.87,-738.5 178.65,-729.62 171.85,-727.96"/>
</a>
</g>
</g>
<!-- PiL5&#45;&gt;Bang3 -->
<g id="edge36" class="edge">
<title>PiL5&#45;&gt;Bang3</title>
<g id="a_edge36"><a xlink:title="newrret74">
<path fill="none" stroke="red" d="M195.82,-703.1C194.09,-711.31 191.16,-721.27 187.88,-730.32"/>
<polygon fill="red" stroke="red" points="184.61,-729.06 184.21,-739.65 191.12,-731.62 184.61,-729.06"/>
</a>
</g>
</g>
<!-- PiL5&#45;&gt;Identity4 -->
<g id="edge22" class="edge">
<title>PiL5&#45;&gt;Identity4</title>
<g id="a_edge22"><a xlink:title="idseq77">
<path fill="none" stroke="black" d="M210.98,-709.95C217.64,-717.72 225.51,-726.27 232.99,-733.87"/>
<polygon fill="black" stroke="black" points="207.08,-699.79 210.78,-709.72 201.7,-704.27 207.08,-699.79"/>
<polygon fill="black" stroke="black" points="230.7,-736.53 240.27,-741.08 235.63,-731.56 230.7,-736.53"/>
</a>
</g>
</g>
<!-- PiL5&#45;&gt;Identity4 -->
<g id="edge28" class="edge">
<title>PiL5&#45;&gt;Identity4</title>
<g id="a_edge28"><a xlink:title="lret75">
<path fill="none" stroke="blue" d="M212.8,-698.96C222.4,-708.05 234.06,-720.41 243.41,-731.28"/>
<polygon fill="blue" stroke="blue" points="240.94,-733.79 250.04,-739.23 246.32,-729.31 240.94,-733.79"/>
</a>
</g>
</g>
<!-- BangD6 -->
<g id="node7" class="node">
<title>BangD6</title>
<ellipse fill="none" stroke="black" cx="195.35" cy="-612.8" rx="36" ry="18"/>
<text text-anchor="middle" x="195.35" y="-609.1" font-family="Times,serif" font-size="14.00">BangD</text>
</g>
<!-- BangD6&#45;&gt;PiL5 -->
<g id="edge17" class="edge">
<title>BangD6&#45;&gt;PiL5</title>
<g id="a_edge17"><a xlink:title="hseq72">
<path fill="none" stroke="black" d="M189.47,-630.74C188.64,-638.57 188.4,-648.05 188.76,-656.82"/>
<polygon fill="black" stroke="black" points="185.28,-657.28 189.49,-667.01 192.26,-656.78 185.28,-657.28"/>
</a>
</g>
</g>
<!-- BangD6&#45;&gt;PiL5 -->
<g id="edge32" class="edge">
<title>BangD6&#45;&gt;PiL5</title>
<g id="a_edge32"><a xlink:title="lval70">
<path fill="none" stroke="blue" d="M201.22,-630.74C202.06,-638.57 202.29,-648.05 201.94,-656.82"/>
<polygon fill="blue" stroke="blue" points="198.43,-656.78 201.21,-667.01 205.41,-657.28 198.43,-656.78"/>
</a>
</g>
</g>
<!-- Bang7 -->
<g id="node8" class="node">
<title>Bang7</title>
<ellipse fill="none" stroke="black" cx="195.35" cy="-540.8" rx="29.5" ry="18"/>
<text text-anchor="middle" x="195.35" y="-537.1" font-family="Times,serif" font-size="14.00">Bang</text>
</g>
<!-- Bang7&#45;&gt;Identity4 -->
<g id="edge41" class="edge">
<title>Bang7&#45;&gt;Identity4</title>
<g id="a_edge41"><a xlink:title="newrretf66">
<path fill="none" stroke="red" d="M211.42,-555.89C221.5,-565.73 233.79,-579.74 240.35,-594.8 259.43,-638.61 261.56,-695.14 260.82,-728.23"/>
<polygon fill="red" stroke="red" points="257.32,-728.4 260.49,-738.51 264.31,-728.63 257.32,-728.4"/>
</a>
</g>
</g>
<!-- Bang7&#45;&gt;BangD6 -->
<g id="edge4" class="edge">
<title>Bang7&#45;&gt;BangD6</title>
<g id="a_edge4"><a xlink:title="c_bseq67">
<path fill="none" stroke="black" d="M189.47,-558.74C188.64,-566.57 188.4,-576.05 188.76,-584.82"/>
<polygon fill="black" stroke="black" points="185.28,-585.28 189.49,-595.01 192.26,-584.78 185.28,-585.28"/>
</a>
</g>
</g>
<!-- Bang7&#45;&gt;BangD6 -->
<g id="edge16" class="edge">
<title>Bang7&#45;&gt;BangD6</title>
<g id="a_edge16"><a xlink:title="hf65">
<path fill="none" stroke="blue" d="M201.22,-558.74C202.06,-566.57 202.29,-576.05 201.94,-584.82"/>
<polygon fill="blue" stroke="blue" points="198.43,-584.78 201.21,-595.01 205.41,-585.28 198.43,-584.78"/>
</a>
</g>
</g>
<!-- Identity8 -->
<g id="node9" class="node">
<title>Identity8</title>
<ellipse fill="none" stroke="black" cx="281.35" cy="-540.8" rx="38.19" ry="18"/>
<text text-anchor="middle" x="281.35" y="-537.1" font-family="Times,serif" font-size="14.00">Identity</text>
</g>
<!-- PiL9 -->
<g id="node10" class="node">
<title>PiL9</title>
<ellipse fill="none" stroke="black" cx="281.35" cy="-468.8" rx="27" ry="18"/>
<text text-anchor="middle" x="281.35" y="-465.1" font-family="Times,serif" font-size="14.00">PiL</text>
</g>
<!-- PiL9&#45;&gt;Bang7 -->
<g id="edge12" class="edge">
<title>PiL9&#45;&gt;Bang7</title>
<g id="a_edge12"><a xlink:title="dseq63">
<path fill="none" stroke="black" d="M261.98,-481.35C248.25,-491.22 230.09,-505.69 216.09,-517.76"/>
<polygon fill="black" stroke="black" points="213.59,-515.31 208.4,-524.54 218.22,-520.56 213.59,-515.31"/>
</a>
</g>
</g>
<!-- PiL9&#45;&gt;Bang7 -->
<g id="edge35" class="edge">
<title>PiL9&#45;&gt;Bang7</title>
<g id="a_edge35"><a xlink:title="newrret61">
<path fill="none" stroke="red" d="M268.36,-484.98C256.42,-495.77 238.67,-510.31 223.58,-521.7"/>
<polygon fill="red" stroke="red" points="221.47,-518.9 215.52,-527.66 225.64,-524.53 221.47,-518.9"/>
</a>
</g>
</g>
<!-- PiL9&#45;&gt;Identity8 -->
<g id="edge21" class="edge">
<title>PiL9&#45;&gt;Identity8</title>
<g id="a_edge21"><a xlink:title="idseq64">
<path fill="none" stroke="black" d="M274.76,-496.61C274.55,-501.84 274.54,-507.33 274.75,-512.58"/>
<polygon fill="black" stroke="black" points="279,-486.64 274.78,-496.36 272.02,-486.13 279,-486.64"/>
<polygon fill="black" stroke="black" points="271.28,-513.11 275.47,-522.84 278.26,-512.62 271.28,-513.11"/>
</a>
</g>
</g>
<!-- PiL9&#45;&gt;Identity8 -->
<g id="edge27" class="edge">
<title>PiL9&#45;&gt;Identity8</title>
<g id="a_edge27"><a xlink:title="lret62">
<path fill="none" stroke="blue" d="M287.19,-486.38C288.05,-494.29 288.3,-503.94 287.93,-512.86"/>
<polygon fill="blue" stroke="blue" points="284.44,-512.62 287.23,-522.84 291.43,-513.11 284.44,-512.62"/>
</a>
</g>
</g>
<!-- Identity10 -->
<g id="node11" class="node">
<title>Identity10</title>
<ellipse fill="none" stroke="black" cx="457.35" cy="-900.8" rx="38.19" ry="18"/>
<text text-anchor="middle" x="457.35" y="-897.1" font-family="Times,serif" font-size="14.00">Identity</text>
</g>
<!-- BangD11 -->
<g id="node12" class="node">
<title>BangD11</title>
<ellipse fill="none" stroke="black" cx="457.35" cy="-828.8" rx="36" ry="18"/>
<text text-anchor="middle" x="457.35" y="-825.1" font-family="Times,serif" font-size="14.00">BangD</text>
</g>
<!-- BangD11&#45;&gt;Identity10 -->
<g id="edge65" class="edge">
<title>BangD11&#45;&gt;Identity10</title>
<g id="a_edge65"><a xlink:title="yret60">
<path fill="none" stroke="blue" d="M451.47,-846.74C450.64,-854.57 450.4,-864.05 450.76,-872.82"/>
<polygon fill="blue" stroke="blue" points="447.28,-873.28 451.49,-883.01 454.26,-872.78 447.28,-873.28"/>
</a>
</g>
</g>
<!-- BangD11&#45;&gt;Identity10 -->
<g id="edge67" class="edge">
<title>BangD11&#45;&gt;Identity10</title>
<g id="a_edge67"><a xlink:title="yseq59">
<path fill="none" stroke="black" d="M463.22,-846.74C464.06,-854.57 464.29,-864.05 463.94,-872.82"/>
<polygon fill="black" stroke="black" points="460.43,-872.78 463.21,-883.01 467.41,-873.28 460.43,-872.78"/>
</a>
</g>
</g>
<!-- Bang12 -->
<g id="node13" class="node">
<title>Bang12</title>
<ellipse fill="none" stroke="black" cx="457.35" cy="-756.8" rx="29.5" ry="18"/>
<text text-anchor="middle" x="457.35" y="-753.1" font-family="Times,serif" font-size="14.00">Bang</text>
</g>
<!-- Bang12&#45;&gt;Identity10 -->
<g id="edge40" class="edge">
<title>Bang12&#45;&gt;Identity10</title>
<g id="a_edge40"><a xlink:title="newrretf57">
<path fill="none" stroke="red" d="M440.68,-771.66C430.35,-781.39 418.01,-795.39 412.35,-810.8 406.83,-825.81 406.83,-831.78 412.35,-846.8 416.49,-858.07 424.21,-868.59 432.11,-877.24"/>
<polygon fill="red" stroke="red" points="429.82,-879.91 439.31,-884.62 434.83,-875.02 429.82,-879.91"/>
</a>
</g>
</g>
<!-- Bang12&#45;&gt;BangD11 -->
<g id="edge3" class="edge">
<title>Bang12&#45;&gt;BangD11</title>
<g id="a_edge3"><a xlink:title="c_bseq58">
<path fill="none" stroke="black" d="M451.47,-774.74C450.64,-782.57 450.4,-792.05 450.76,-800.82"/>
<polygon fill="black" stroke="black" points="447.28,-801.28 451.49,-811.01 454.26,-800.78 447.28,-801.28"/>
</a>
</g>
</g>
<!-- Bang12&#45;&gt;BangD11 -->
<g id="edge64" class="edge">
<title>Bang12&#45;&gt;BangD11</title>
<g id="a_edge64"><a xlink:title="yBf56">
<path fill="none" stroke="blue" d="M463.22,-774.74C464.06,-782.57 464.29,-792.05 463.94,-800.82"/>
<polygon fill="blue" stroke="blue" points="460.43,-800.78 463.21,-811.01 467.41,-801.28 460.43,-800.78"/>
</a>
</g>
</g>
<!-- Identity13 -->
<g id="node14" class="node">
<title>Identity13</title>
<ellipse fill="none" stroke="black" cx="371.35" cy="-756.8" rx="38.19" ry="18"/>
<text text-anchor="middle" x="371.35" y="-753.1" font-family="Times,serif" font-size="14.00">Identity</text>
</g>
<!-- PiL14 -->
<g id="node15" class="node">
<title>PiL14</title>
<ellipse fill="none" stroke="black" cx="411.35" cy="-684.8" rx="27" ry="18"/>
<text text-anchor="middle" x="411.35" y="-681.1" font-family="Times,serif" font-size="14.00">PiL</text>
</g>
<!-- PiL14&#45;&gt;Bang12 -->
<g id="edge11" class="edge">
<title>PiL14&#45;&gt;Bang12</title>
<g id="a_edge11"><a xlink:title="dseq54">
<path fill="none" stroke="black" d="M416.6,-702.74C421.57,-711.75 428.77,-722.97 435.82,-732.76"/>
<polygon fill="black" stroke="black" points="433.13,-735 441.92,-740.91 438.73,-730.8 433.13,-735"/>
</a>
</g>
</g>
<!-- PiL14&#45;&gt;Bang12 -->
<g id="edge34" class="edge">
<title>PiL14&#45;&gt;Bang12</title>
<g id="a_edge34"><a xlink:title="newrret52">
<path fill="none" stroke="red" d="M426.2,-699.96C433.01,-708.59 440.75,-719.87 446.95,-730.03"/>
<polygon fill="red" stroke="red" points="444.08,-732.06 452.14,-738.94 450.13,-728.53 444.08,-732.06"/>
</a>
</g>
</g>
<!-- PiL14&#45;&gt;Identity13 -->
<g id="edge20" class="edge">
<title>PiL14&#45;&gt;Identity13</title>
<g id="a_edge20"><a xlink:title="idseq55">
<path fill="none" stroke="black" d="M391.82,-708.79C387.54,-715.53 383.26,-722.94 379.63,-729.85"/>
<polygon fill="black" stroke="black" points="400.38,-702.24 391.93,-708.63 394.55,-698.36 400.38,-702.24"/>
<polygon fill="black" stroke="black" points="376.47,-728.33 375.15,-738.85 382.74,-731.45 376.47,-728.33"/>
</a>
</g>
</g>
<!-- PiL14&#45;&gt;Identity13 -->
<g id="edge26" class="edge">
<title>PiL14&#45;&gt;Identity13</title>
<g id="a_edge26"><a xlink:title="lret53">
<path fill="none" stroke="blue" d="M407.54,-702.74C403.55,-711.33 397.7,-721.91 391.78,-731.36"/>
<polygon fill="blue" stroke="blue" points="388.69,-729.68 386.15,-739.97 394.55,-733.52 388.69,-729.68"/>
</a>
</g>
</g>
<!-- BangD15 -->
<g id="node16" class="node">
<title>BangD15</title>
<ellipse fill="none" stroke="black" cx="411.35" cy="-612.8" rx="36" ry="18"/>
<text text-anchor="middle" x="411.35" y="-609.1" font-family="Times,serif" font-size="14.00">BangD</text>
</g>
<!-- BangD15&#45;&gt;PiL14 -->
<g id="edge31" class="edge">
<title>BangD15&#45;&gt;PiL14</title>
<g id="a_edge31"><a xlink:title="lval48">
<path fill="none" stroke="blue" d="M405.47,-630.74C404.64,-638.57 404.4,-648.05 404.76,-656.82"/>
<polygon fill="blue" stroke="blue" points="401.28,-657.28 405.49,-667.01 408.26,-656.78 401.28,-657.28"/>
</a>
</g>
</g>
<!-- BangD15&#45;&gt;PiL14 -->
<g id="edge66" class="edge">
<title>BangD15&#45;&gt;PiL14</title>
<g id="a_edge66"><a xlink:title="yseq50">
<path fill="none" stroke="black" d="M417.22,-630.74C418.06,-638.57 418.29,-648.05 417.94,-656.82"/>
<polygon fill="black" stroke="black" points="414.43,-656.78 417.21,-667.01 421.41,-657.28 414.43,-656.78"/>
</a>
</g>
</g>
<!-- BangC16 -->
<g id="node17" class="node">
<title>BangC16</title>
<ellipse fill="none" stroke="black" cx="411.35" cy="-540.8" rx="35.19" ry="18"/>
<text text-anchor="middle" x="411.35" y="-537.1" font-family="Times,serif" font-size="14.00">BangC</text>
</g>
<!-- BangC16&#45;&gt;Bang12 -->
<g id="edge63" class="edge">
<title>BangC16&#45;&gt;Bang12</title>
<g id="a_edge63"><a xlink:title="yB44">
<path fill="none" stroke="blue" d="M435.94,-563.7C444.04,-572.47 452.06,-583.24 456.35,-594.8 472.85,-639.3 467.9,-695.6 462.69,-728.47"/>
<polygon fill="blue" stroke="blue" points="431.39,-554.08 435.91,-563.67 426.4,-558.99 431.39,-554.08"/>
<polygon fill="blue" stroke="blue" points="459.19,-728.22 460.95,-738.66 466.09,-729.4 459.19,-728.22"/>
</a>
</g>
</g>
<!-- BangC16&#45;&gt;BangD15 -->
<g id="edge53" class="edge">
<title>BangC16&#45;&gt;BangD15</title>
<g id="a_edge53"><a xlink:title="seq45">
<path fill="none" stroke="black" d="M405.47,-558.74C404.64,-566.57 404.4,-576.05 404.76,-584.82"/>
<polygon fill="black" stroke="black" points="401.28,-585.28 405.49,-595.01 408.26,-584.78 401.28,-585.28"/>
</a>
</g>
</g>
<!-- BangC16&#45;&gt;BangD15 -->
<g id="edge62" class="edge">
<title>BangC16&#45;&gt;BangD15</title>
<g id="a_edge62"><a xlink:title="yA43">
<path fill="none" stroke="blue" d="M417.22,-558.74C418.06,-566.57 418.29,-576.05 417.94,-584.82"/>
<polygon fill="blue" stroke="blue" points="414.43,-584.78 417.21,-595.01 421.41,-585.28 414.43,-584.78"/>
</a>
</g>
</g>
<!-- PiR17 -->
<g id="node18" class="node">
<title>PiR17</title>
<ellipse fill="none" stroke="black" cx="391.35" cy="-468.8" rx="27" ry="18"/>
<text text-anchor="middle" x="391.35" y="-465.1" font-family="Times,serif" font-size="14.00">PiR</text>
</g>
<!-- PiR17&#45;&gt;Identity13 -->
<g id="edge46" class="edge">
<title>PiR17&#45;&gt;Identity13</title>
<g id="a_edge46"><a xlink:title="ret42">
<path fill="none" stroke="red" d="M381.95,-485.89C376.54,-496.1 370.25,-509.78 367.35,-522.8 351.07,-595.75 360.37,-684.77 366.81,-728.66"/>
<polygon fill="red" stroke="red" points="363.35,-729.21 368.33,-738.56 370.27,-728.15 363.35,-729.21"/>
</a>
</g>
</g>
<!-- PiR17&#45;&gt;BangC16 -->
<g id="edge52" class="edge">
<title>PiR17&#45;&gt;BangC16</title>
<g id="a_edge52"><a xlink:title="seq40">
<path fill="none" stroke="black" d="M390.37,-487.1C391.84,-495.1 394.39,-504.78 397.32,-513.64"/>
<polygon fill="black" stroke="black" points="394.07,-514.95 400.75,-523.17 400.66,-512.58 394.07,-514.95"/>
</a>
</g>
</g>
<!-- PiR17&#45;&gt;BangC16 -->
<g id="edge61" class="edge">
<title>PiR17&#45;&gt;BangC16</title>
<g id="a_edge61"><a xlink:title="y41">
<path fill="none" stroke="blue" d="M401.65,-485.68C404.84,-493.65 407.94,-503.53 410.19,-512.66"/>
<polygon fill="blue" stroke="blue" points="406.78,-513.47 412.32,-522.5 413.63,-511.99 406.78,-513.47"/>
</a>
</g>
</g>
<!-- Cut18 -->
<g id="node19" class="node">
<title>Cut18</title>
<ellipse fill="none" stroke="black" cx="281.35" cy="-396.8" rx="27" ry="18"/>
<text text-anchor="middle" x="281.35" y="-393.1" font-family="Times,serif" font-size="14.00">Cut</text>
</g>
<!-- Cut18&#45;&gt;PiL9 -->
<g id="edge8" class="edge">
<title>Cut18&#45;&gt;PiL9</title>
<g id="a_edge8"><a xlink:title="c_lseq36">
<path fill="none" stroke="black" d="M274.76,-424.61C274.55,-429.84 274.54,-435.33 274.75,-440.58"/>
<polygon fill="black" stroke="black" points="279,-414.64 274.78,-424.36 272.02,-414.13 279,-414.64"/>
<polygon fill="black" stroke="black" points="271.28,-441.11 275.47,-450.84 278.26,-440.62 271.28,-441.11"/>
</a>
</g>
</g>
<!-- Cut18&#45;&gt;PiL9 -->
<g id="edge30" class="edge">
<title>Cut18&#45;&gt;PiL9</title>
<g id="a_edge30"><a xlink:title="lval38">
<path fill="none" stroke="blue" d="M287.19,-414.38C288.05,-422.29 288.3,-431.94 287.93,-440.86"/>
<polygon fill="blue" stroke="blue" points="284.44,-440.62 287.23,-450.84 291.43,-441.11 284.44,-440.62"/>
</a>
</g>
</g>
<!-- Cut18&#45;&gt;PiR17 -->
<g id="edge9" class="edge">
<title>Cut18&#45;&gt;PiR17</title>
<g id="a_edge9"><a xlink:title="c_rseq37">
<path fill="none" stroke="black" d="M297.58,-411.63C314.42,-423.36 340.77,-440.17 361.35,-452.34"/>
<polygon fill="black" stroke="black" points="359.66,-455.4 370.06,-457.41 363.18,-449.35 359.66,-455.4"/>
</a>
</g>
</g>
<!-- Cut18&#45;&gt;PiR17 -->
<g id="edge50" class="edge">
<title>Cut18&#45;&gt;PiR17</title>
<g id="a_edge50"><a xlink:title="rval39">
<path fill="none" stroke="red" d="M302.53,-408.12C321.02,-418.68 347.56,-435.32 366.91,-448.35"/>
<polygon fill="red" stroke="red" points="365.01,-451.29 375.24,-454.05 368.96,-445.51 365.01,-451.29"/>
</a>
</g>
</g>
<!-- PiR19 -->
<g id="node20" class="node">
<title>PiR19</title>
<ellipse fill="none" stroke="black" cx="281.35" cy="-324.8" rx="27" ry="18"/>
<text text-anchor="middle" x="281.35" y="-321.1" font-family="Times,serif" font-size="14.00">PiR</text>
</g>
<!-- PiR19&#45;&gt;Bang7 -->
<g id="edge15" class="edge">
<title>PiR19&#45;&gt;Bang7</title>
<g id="a_edge15"><a xlink:title="h34">
<path fill="none" stroke="blue" d="M269.02,-341.28C261.38,-351.48 251.81,-365.37 245.35,-378.8 223.78,-423.57 208.82,-479.78 201.2,-512.56"/>
<polygon fill="blue" stroke="blue" points="197.69,-512.2 198.9,-522.73 204.52,-513.75 197.69,-512.2"/>
</a>
</g>
</g>
<!-- PiR19&#45;&gt;Identity8 -->
<g id="edge45" class="edge">
<title>PiR19&#45;&gt;Identity8</title>
<g id="a_edge45"><a xlink:title="ret35">
<path fill="none" stroke="red" d="M295.1,-340.73C303.31,-350.7 312.97,-364.55 317.35,-378.8 331.45,-424.68 331.45,-440.92 317.35,-486.8 314.16,-497.16 308.18,-507.32 301.99,-515.92"/>
<polygon fill="red" stroke="red" points="299.14,-513.89 295.84,-523.96 304.7,-518.15 299.14,-513.89"/>
</a>
</g>
</g>
<!-- PiR19&#45;&gt;Cut18 -->
<g id="edge51" class="edge">
<title>PiR19&#45;&gt;Cut18</title>
<g id="a_edge51"><a xlink:title="seq33">
<path fill="none" stroke="black" d="M281.35,-343.1C281.35,-350.81 281.35,-360.08 281.35,-368.68"/>
<polygon fill="black" stroke="black" points="277.85,-368.69 281.35,-378.69 284.85,-368.69 277.85,-368.69"/>
</a>
</g>
</g>
<!-- Identity20 -->
<g id="node21" class="node">
<title>Identity20</title>
<ellipse fill="none" stroke="black" cx="124.35" cy="-468.8" rx="38.19" ry="18"/>
<text text-anchor="middle" x="124.35" y="-465.1" font-family="Times,serif" font-size="14.00">Identity</text>
</g>
<!-- BangD21 -->
<g id="node22" class="node">
<title>BangD21</title>
<ellipse fill="none" stroke="black" cx="124.35" cy="-396.8" rx="36" ry="18"/>
<text text-anchor="middle" x="124.35" y="-393.1" font-family="Times,serif" font-size="14.00">BangD</text>
</g>
<!-- BangD21&#45;&gt;Identity20 -->
<g id="edge58" class="edge">
<title>BangD21&#45;&gt;Identity20</title>
<g id="a_edge58"><a xlink:title="xret26">
<path fill="none" stroke="blue" d="M118.47,-414.74C117.64,-422.57 117.4,-432.05 117.76,-440.82"/>
<polygon fill="blue" stroke="blue" points="114.28,-441.28 118.49,-451.01 121.26,-440.78 114.28,-441.28"/>
</a>
</g>
</g>
<!-- BangD21&#45;&gt;Identity20 -->
<g id="edge60" class="edge">
<title>BangD21&#45;&gt;Identity20</title>
<g id="a_edge60"><a xlink:title="xseq25">
<path fill="none" stroke="black" d="M130.22,-414.74C131.06,-422.57 131.29,-432.05 130.94,-440.82"/>
<polygon fill="black" stroke="black" points="127.43,-440.78 130.21,-451.01 134.41,-441.28 127.43,-440.78"/>
</a>
</g>
</g>
<!-- Bang22 -->
<g id="node23" class="node">
<title>Bang22</title>
<ellipse fill="none" stroke="black" cx="124.35" cy="-324.8" rx="29.5" ry="18"/>
<text text-anchor="middle" x="124.35" y="-321.1" font-family="Times,serif" font-size="14.00">Bang</text>
</g>
<!-- Bang22&#45;&gt;Identity20 -->
<g id="edge38" class="edge">
<title>Bang22&#45;&gt;Identity20</title>
<g id="a_edge38"><a xlink:title="newrretf23">
<path fill="none" stroke="red" d="M141.01,-339.66C151.34,-349.39 163.69,-363.39 169.35,-378.8 174.86,-393.81 174.86,-399.78 169.35,-414.8 165.2,-426.07 157.48,-436.59 149.59,-445.24"/>
<polygon fill="red" stroke="red" points="146.86,-443.02 142.39,-452.62 151.88,-447.91 146.86,-443.02"/>
</a>
</g>
</g>
<!-- Bang22&#45;&gt;BangD21 -->
<g id="edge1" class="edge">
<title>Bang22&#45;&gt;BangD21</title>
<g id="a_edge1"><a xlink:title="c_bseq24">
<path fill="none" stroke="black" d="M118.47,-342.74C117.64,-350.57 117.4,-360.05 117.76,-368.82"/>
<polygon fill="black" stroke="black" points="114.28,-369.28 118.49,-379.01 121.26,-368.78 114.28,-369.28"/>
</a>
</g>
</g>
<!-- Bang22&#45;&gt;BangD21 -->
<g id="edge57" class="edge">
<title>Bang22&#45;&gt;BangD21</title>
<g id="a_edge57"><a xlink:title="xBf22">
<path fill="none" stroke="blue" d="M130.22,-342.74C131.06,-350.57 131.29,-360.05 130.94,-368.82"/>
<polygon fill="blue" stroke="blue" points="127.43,-368.78 130.21,-379.01 134.41,-369.28 127.43,-368.78"/>
</a>
</g>
</g>
<!-- Identity23 -->
<g id="node24" class="node">
<title>Identity23</title>
<ellipse fill="none" stroke="black" cx="38.35" cy="-324.8" rx="38.19" ry="18"/>
<text text-anchor="middle" x="38.35" y="-321.1" font-family="Times,serif" font-size="14.00">Identity</text>
</g>
<!-- PiL24 -->
<g id="node25" class="node">
<title>PiL24</title>
<ellipse fill="none" stroke="black" cx="98.35" cy="-252.8" rx="27" ry="18"/>
<text text-anchor="middle" x="98.35" y="-249.1" font-family="Times,serif" font-size="14.00">PiL</text>
</g>
<!-- PiL24&#45;&gt;Bang22 -->
<g id="edge10" class="edge">
<title>PiL24&#45;&gt;Bang22</title>
<g id="a_edge10"><a xlink:title="dseq20">
<path fill="none" stroke="black" d="M98.86,-271.1C101.12,-279.51 104.74,-289.78 108.65,-299.01"/>
<polygon fill="black" stroke="black" points="105.47,-300.47 112.79,-308.12 111.84,-297.57 105.47,-300.47"/>
</a>
</g>
</g>
<!-- PiL24&#45;&gt;Bang22 -->
<g id="edge33" class="edge">
<title>PiL24&#45;&gt;Bang22</title>
<g id="a_edge33"><a xlink:title="newrret18">
<path fill="none" stroke="red" d="M109.84,-269.33C113.78,-277.38 117.81,-287.43 120.88,-296.71"/>
<polygon fill="red" stroke="red" points="117.55,-297.78 123.79,-306.33 124.25,-295.75 117.55,-297.78"/>
</a>
</g>
</g>
<!-- PiL24&#45;&gt;Identity23 -->
<g id="edge19" class="edge">
<title>PiL24&#45;&gt;Identity23</title>
<g id="a_edge19"><a xlink:title="idseq21">
<path fill="none" stroke="black" d="M74.69,-274.16C67.38,-281.96 59.59,-290.95 53.03,-299.11"/>
<polygon fill="black" stroke="black" points="84.17,-269.39 74.7,-274.15 79.13,-264.53 84.17,-269.39"/>
<polygon fill="black" stroke="black" points="50.09,-297.19 46.71,-307.23 55.61,-301.48 50.09,-297.19"/>
</a>
</g>
</g>
<!-- PiL24&#45;&gt;Identity23 -->
<g id="edge25" class="edge">
<title>PiL24&#45;&gt;Identity23</title>
<g id="a_edge25"><a xlink:title="lret19">
<path fill="none" stroke="blue" d="M90.23,-270.03C83.33,-279.3 73.43,-291.06 64.05,-301.22"/>
<polygon fill="blue" stroke="blue" points="61.39,-298.94 57.04,-308.61 66.47,-303.76 61.39,-298.94"/>
</a>
</g>
</g>
<!-- Assign25 -->
<g id="node26" class="node">
<title>Assign25</title>
<ellipse fill="none" stroke="black" cx="153.35" cy="-18" rx="35.19" ry="18"/>
<text text-anchor="middle" x="153.35" y="-14.3" font-family="Times,serif" font-size="14.00">Assign</text>
</g>
<!-- Assign25&#45;&gt;Identity23 -->
<g id="edge47" class="edge">
<title>Assign25&#45;&gt;Identity23</title>
<g id="a_edge47"><a xlink:title="ret8">
<path fill="none" stroke="red" d="M139.84,-35C119.31,-60.31 80.7,-111.94 62.35,-162.8 46.14,-207.7 40.87,-263.43 39.16,-296.16"/>
<polygon fill="red" stroke="red" points="35.66,-296.18 38.71,-306.33 42.65,-296.5 35.66,-296.18"/>
</a>
</g>
</g>
<!-- Cut29 -->
<g id="node30" class="node">
<title>Cut29</title>
<ellipse fill="none" stroke="black" cx="153.35" cy="-99.4" rx="23.31" ry="23.31"/>
<ellipse fill="none" stroke="black" cx="153.35" cy="-99.4" rx="27.3" ry="27.3"/>
<text text-anchor="middle" x="153.35" y="-95.7" font-family="Times,serif" font-size="14.00">Cut</text>
</g>
<!-- Assign25&#45;&gt;Cut29 -->
<g id="edge49" class="edge">
<title>Assign25&#45;&gt;Cut29</title>
<g id="a_edge49"><a xlink:title="retseq0">
<path fill="none" stroke="black" d="M153.35,-36.23C153.35,-43.7 153.35,-52.76 153.35,-61.62"/>
<polygon fill="black" stroke="black" points="149.85,-61.83 153.35,-71.83 156.85,-61.83 149.85,-61.83"/>
</a>
</g>
</g>
<!-- Dup26 -->
<g id="node27" class="node">
<title>Dup26</title>
<ellipse fill="none" stroke="black" cx="209.35" cy="-252.8" rx="27" ry="18"/>
<text text-anchor="middle" x="209.35" y="-249.1" font-family="Times,serif" font-size="14.00">Dup</text>
</g>
<!-- Dup26&#45;&gt;PiR19 -->
<g id="edge2" class="edge">
<title>Dup26&#45;&gt;PiR19</title>
<g id="a_edge2"><a xlink:title="c_bseq32">
<path fill="none" stroke="black" d="M223.92,-267.96C234.1,-277.86 247.87,-291.25 259.38,-302.44"/>
<polygon fill="black" stroke="black" points="256.94,-304.95 266.55,-309.41 261.82,-299.93 256.94,-304.95"/>
</a>
</g>
</g>
<!-- Dup27 -->
<g id="node28" class="node">
<title>Dup27</title>
<ellipse fill="none" stroke="black" cx="281.35" cy="-252.8" rx="27" ry="18"/>
<text text-anchor="middle" x="281.35" y="-249.1" font-family="Times,serif" font-size="14.00">Dup</text>
</g>
<!-- Dup27&#45;&gt;PiR19 -->
<g id="edge39" class="edge">
<title>Dup27&#45;&gt;PiR19</title>
<g id="a_edge39"><a xlink:title="newrretf31">
<path fill="none" stroke="red" d="M281.35,-271.1C281.35,-278.81 281.35,-288.08 281.35,-296.68"/>
<polygon fill="red" stroke="red" points="277.85,-296.69 281.35,-306.69 284.85,-296.69 277.85,-296.69"/>
</a>
</g>
</g>
<!-- Bang28 -->
<g id="node29" class="node">
<title>Bang28</title>
<ellipse fill="none" stroke="black" cx="210.35" cy="-180.8" rx="29.5" ry="18"/>
<text text-anchor="middle" x="210.35" y="-177.1" font-family="Times,serif" font-size="14.00">Bang</text>
</g>
<!-- Bang28&#45;&gt;Dup26 -->
<g id="edge7" class="edge">
<title>Bang28&#45;&gt;Dup26</title>
<g id="a_edge7"><a xlink:title="c_bseq90">
<path fill="none" stroke="black" d="M210.1,-199.1C209.99,-206.81 209.86,-216.08 209.73,-224.68"/>
<polygon fill="none" stroke="black" points="206.23,-224.64 209.59,-234.69 213.23,-224.74 206.23,-224.64"/>
</a>
</g>
</g>
<!-- Bang28&#45;&gt;Dup27 -->
<g id="edge44" class="edge">
<title>Bang28&#45;&gt;Dup27</title>
<g id="a_edge44"><a xlink:title="newrretf91">
<path fill="none" stroke="red" d="M225.4,-196.64C235.33,-206.42 248.48,-219.39 259.54,-230.3"/>
<polygon fill="none" stroke="red" points="257.22,-232.92 266.8,-237.45 262.13,-227.94 257.22,-232.92"/>
</a>
</g>
</g>
<!-- Cut29&#45;&gt;Bang22 -->
<g id="edge56" class="edge">
<title>Cut29&#45;&gt;Bang22</title>
<g id="a_edge56"><a xlink:title="xB10">
<path fill="none" stroke="blue" stroke-width="2" d="M151.03,-126.75C147.94,-160.3 141.96,-220.02 134.35,-270.8 133.08,-279.26 131.44,-288.44 129.86,-296.74"/>
<polygon fill="blue" stroke="blue" stroke-width="2" points="126.4,-296.18 127.92,-306.67 133.27,-297.52 126.4,-296.18"/>
</a>
</g>
</g>
<!-- Cut29&#45;&gt;Bang28 -->
<g id="edge14" class="edge">
<title>Cut29&#45;&gt;Bang28</title>
<g id="a_edge14"><a xlink:title="dseq92">
<path fill="none" stroke="black" d="M164.48,-124.65C171.35,-135.16 180.17,-147.38 188.31,-157.64"/>
<polygon fill="black" stroke="black" points="185.61,-159.86 194.65,-165.38 191.02,-155.42 185.61,-159.86"/>
</a>
</g>
</g>
<!-- Cut29&#45;&gt;Bang28 -->
<g id="edge37" class="edge">
<title>Cut29&#45;&gt;Bang28</title>
<g id="a_edge37"><a xlink:title="newrret93">
<path fill="none" stroke="red" d="M172.69,-119.21C181.24,-129.71 190.89,-142.92 198.41,-154.33"/>
<polygon fill="red" stroke="red" points="195.61,-156.44 203.92,-163 201.52,-152.69 195.61,-156.44"/>
</a>
</g>
</g>
<!-- Cut30 -->
<g id="node31" class="node">
<title>Cut30</title>
<ellipse fill="none" stroke="black" cx="98.35" cy="-180.8" rx="27" ry="18"/>
<text text-anchor="middle" x="98.35" y="-177.1" font-family="Times,serif" font-size="14.00">Cut</text>
</g>
<!-- Cut29&#45;&gt;Cut30 -->
<g id="edge55" class="edge">
<title>Cut29&#45;&gt;Cut30</title>
<g id="a_edge55"><a xlink:title="seqBC94">
<path fill="none" stroke="black" d="M132.21,-130.9C126.51,-139.13 120.43,-147.92 115.01,-155.74"/>
<polygon fill="black" stroke="black" points="140.9,-124.51 132.33,-130.74 135.15,-120.52 140.9,-124.51"/>
<polygon fill="black" stroke="black" points="112.05,-153.87 109.23,-164.09 117.8,-157.86 112.05,-153.87"/>
</a>
</g>
</g>
<!-- Cut30&#45;&gt;PiL24 -->
<g id="edge29" class="edge">
<title>Cut30&#45;&gt;PiL24</title>
<g id="a_edge29"><a xlink:title="lval14">
<path fill="none" stroke="blue" d="M92.51,-198.38C91.64,-206.29 91.39,-215.94 91.76,-224.86"/>
<polygon fill="blue" stroke="blue" points="88.27,-225.11 92.47,-234.84 95.25,-224.62 88.27,-225.11"/>
</a>
</g>
</g>
<!-- Cut30&#45;&gt;PiL24 -->
<g id="edge59" class="edge">
<title>Cut30&#45;&gt;PiL24</title>
<g id="a_edge59"><a xlink:title="xseq16">
<path fill="none" stroke="black" d="M104.93,-208.61C105.15,-213.84 105.15,-219.33 104.95,-224.58"/>
<polygon fill="black" stroke="black" points="107.68,-198.13 104.91,-208.36 100.7,-198.64 107.68,-198.13"/>
<polygon fill="black" stroke="black" points="101.43,-224.62 104.23,-234.84 108.42,-225.11 101.43,-224.62"/>
</a>
</g>
</g>
<!-- Cut30&#45;&gt;Dup26 -->
<g id="edge6" class="edge">
<title>Cut30&#45;&gt;Dup26</title>
<g id="a_edge6"><a xlink:title="c_bseq86">
<path fill="none" stroke="black" d="M117.43,-193.83C135.06,-204.95 161.47,-221.6 181.46,-234.21"/>
<polygon fill="black" stroke="black" points="179.82,-237.31 190.14,-239.69 183.55,-231.39 179.82,-237.31"/>
</a>
</g>
</g>
<!-- Cut30&#45;&gt;Dup27 -->
<g id="edge43" class="edge">
<title>Cut30&#45;&gt;Dup27</title>
<g id="a_edge43"><a xlink:title="newrretf87">
<path fill="none" stroke="red" d="M122.03,-189.56C151.31,-199.33 202.5,-217 245.35,-234.8 247.17,-235.55 249.03,-236.35 250.9,-237.17"/>
<polygon fill="red" stroke="red" points="249.62,-240.44 260.18,-241.39 252.52,-234.06 249.62,-240.44"/>
</a>
</g>
</g>
</g>
</svg>
