<?xml version="1.0" encoding="UTF-8" standalone="no"?>
<!DOCTYPE svg PUBLIC "-//W3C//DTD SVG 1.1//EN"
 "http://www.w3.org/Graphics/SVG/1.1/DTD/svg11.dtd">
<!-- Generated by graphviz version 2.43.0 (0)
 -->
<!-- Title: %3 Pages: 1 -->
<svg width="326pt" height="1581pt"
 viewBox="0.00 0.00 326.00 1581.30" xmlns="http://www.w3.org/2000/svg" xmlns:xlink="http://www.w3.org/1999/xlink">
<g id="graph0" class="graph" transform="scale(1 1) rotate(0) translate(4 1577.3)">
<title>%3</title>
<polygon fill="white" stroke="transparent" points="-4,4 -4,-1577.3 322,-1577.3 322,4 -4,4"/>
<!-- Root0 -->
<g id="node1" class="node">
<title>Root0</title>
<ellipse fill="none" stroke="black" cx="137" cy="-1555.3" rx="30.59" ry="18"/>
<text text-anchor="middle" x="137" y="-1551.6" font-family="Times-Roman" font-size="14.00">Root</text>
</g>
<!-- I6 -->
<g id="node21" class="node">
<title>I6</title>
<ellipse fill="none" stroke="black" cx="137" cy="-1483.3" rx="27" ry="18"/>
<text text-anchor="middle" x="137" y="-1479.6" font-family="Times-Roman" font-size="14.00">I</text>
</g>
<!-- Root0&#45;&gt;I6 -->
<g id="edge18" class="edge">
<title>Root0&#45;&gt;I6</title>
<g id="a_edge18"><a xlink:title="rettop">
<path fill="none" stroke="red" d="M137,-1536.99C137,-1529.28 137,-1520.01 137,-1511.41"/>
<polygon fill="red" stroke="red" points="140.5,-1511.4 137,-1501.4 133.5,-1511.4 140.5,-1511.4"/>
</a>
</g>
</g>
<!-- PiL0 -->
<g id="node2" class="node">
<title>PiL0</title>
<ellipse fill="none" stroke="black" cx="137" cy="-1411.3" rx="27" ry="18"/>
<text text-anchor="middle" x="137" y="-1407.6" font-family="Times-Roman" font-size="14.00">PiL</text>
</g>
<!-- !p0 -->
<g id="node3" class="node">
<title>!p0</title>
<ellipse fill="none" stroke="black" cx="101" cy="-1339.3" rx="27" ry="18"/>
<text text-anchor="middle" x="101" y="-1335.6" font-family="Times-Roman" font-size="14.00">!p</text>
</g>
<!-- PiL0&#45;&gt;!p0 -->
<g id="edge25" class="edge">
<title>PiL0&#45;&gt;!p0</title>
<g id="a_edge25"><a xlink:title="xlp">
<path fill="none" stroke="red" d="M128.65,-1394.06C124.29,-1385.58 118.85,-1375.01 113.96,-1365.49"/>
<polygon fill="red" stroke="red" points="116.99,-1363.73 109.3,-1356.44 110.77,-1366.94 116.99,-1363.73"/>
</a>
</g>
</g>
<!-- Cut1 -->
<g id="node25" class="node">
<title>Cut1</title>
<ellipse fill="none" stroke="black" cx="182" cy="-1339.3" rx="27" ry="18"/>
<text text-anchor="middle" x="182" y="-1335.6" font-family="Times-Roman" font-size="14.00">Cut</text>
</g>
<!-- PiL0&#45;&gt;Cut1 -->
<g id="edge22" class="edge">
<title>PiL0&#45;&gt;Cut1</title>
<g id="a_edge22"><a xlink:title="xl1">
<path fill="none" stroke="blue" d="M152.74,-1385.81C159.08,-1375.96 166.2,-1364.88 171.83,-1356.12"/>
<polygon fill="blue" stroke="blue" points="149.67,-1384.11 147.21,-1394.41 155.56,-1387.89 149.67,-1384.11"/>
</a>
</g>
</g>
<!-- I0 -->
<g id="node4" class="node">
<title>I0</title>
<ellipse fill="none" stroke="black" cx="27" cy="-1267.3" rx="27" ry="18"/>
<text text-anchor="middle" x="27" y="-1263.6" font-family="Times-Roman" font-size="14.00">I</text>
</g>
<!-- !p0&#45;&gt;I0 -->
<g id="edge24" class="edge">
<title>!p0&#45;&gt;I0</title>
<g id="a_edge24"><a xlink:title="xli">
<path fill="none" stroke="red" d="M86.02,-1324.13C75.49,-1314.17 61.22,-1300.66 49.34,-1289.43"/>
<polygon fill="red" stroke="red" points="51.62,-1286.77 41.95,-1282.44 46.81,-1291.85 51.62,-1286.77"/>
</a>
</g>
</g>
<!-- Cut0 -->
<g id="node24" class="node">
<title>Cut0</title>
<ellipse fill="none" stroke="black" cx="137" cy="-1267.3" rx="27" ry="18"/>
<text text-anchor="middle" x="137" y="-1263.6" font-family="Times-Roman" font-size="14.00">Cut</text>
</g>
<!-- !p0&#45;&gt;Cut0 -->
<g id="edge19" class="edge">
<title>!p0&#45;&gt;Cut0</title>
<g id="a_edge19"><a xlink:title="x2">
<path fill="none" stroke="blue" d="M114.01,-1313C118.91,-1303.47 124.34,-1292.91 128.7,-1284.44"/>
<polygon fill="blue" stroke="blue" points="110.81,-1311.57 109.35,-1322.06 117.04,-1314.77 110.81,-1311.57"/>
</a>
</g>
</g>
<!-- !d0 -->
<g id="node5" class="node">
<title>!d0</title>
<ellipse fill="none" stroke="black" cx="46" cy="-1195.3" rx="27" ry="18"/>
<text text-anchor="middle" x="46" y="-1191.6" font-family="Times-Roman" font-size="14.00">!d</text>
</g>
<!-- I0&#45;&gt;!d0 -->
<g id="edge23" class="edge">
<title>I0&#45;&gt;!d0</title>
<g id="a_edge23"><a xlink:title="xl2">
<path fill="none" stroke="blue" d="M34.29,-1239.43C36.7,-1230.57 39.3,-1220.97 41.44,-1213.08"/>
<polygon fill="blue" stroke="blue" points="30.84,-1238.78 31.6,-1249.35 37.6,-1240.62 30.84,-1238.78"/>
</a>
</g>
</g>
<!-- !d0&#45;&gt;!p0 -->
<g id="edge20" class="edge">
<title>!d0&#45;&gt;!p0</title>
<g id="a_edge20"><a xlink:title="xj">
<path fill="none" stroke="blue" d="M56.23,-1222.7C67.46,-1251.7 85.15,-1297.38 94.58,-1321.73"/>
<polygon fill="blue" stroke="blue" points="59.42,-1221.26 52.55,-1213.2 52.89,-1223.79 59.42,-1221.26"/>
</a>
</g>
</g>
<!-- I1 -->
<g id="node6" class="node">
<title>I1</title>
<ellipse fill="none" stroke="black" cx="194" cy="-979.3" rx="27" ry="18"/>
<text text-anchor="middle" x="194" y="-975.6" font-family="Times-Roman" font-size="14.00">I</text>
</g>
<!-- Cut3 -->
<g id="node29" class="node">
<title>Cut3</title>
<ellipse fill="none" stroke="black" cx="196" cy="-894.65" rx="26.78" ry="26.78"/>
<ellipse fill="none" stroke="black" cx="196" cy="-894.65" rx="30.8" ry="30.8"/>
<text text-anchor="middle" x="196" y="-890.95" font-family="Times-Roman" font-size="14.00">Cut</text>
</g>
<!-- I1&#45;&gt;Cut3 -->
<g id="edge6" class="edge">
<title>I1&#45;&gt;Cut3</title>
<g id="a_edge6"><a xlink:title="hl">
<path fill="none" stroke="blue" stroke-width="2" d="M194.66,-951.01C194.86,-942.82 195.08,-933.8 195.28,-925.45"/>
<polygon fill="blue" stroke="blue" stroke-width="2" points="191.16,-951.09 194.41,-961.17 198.16,-951.26 191.16,-951.09"/>
</a>
</g>
</g>
<!-- I2 -->
<g id="node7" class="node">
<title>I2</title>
<ellipse fill="none" stroke="black" cx="196" cy="-810" rx="27" ry="18"/>
<text text-anchor="middle" x="196" y="-806.3" font-family="Times-Roman" font-size="14.00">I</text>
</g>
<!-- PiL1 -->
<g id="node8" class="node">
<title>PiL1</title>
<ellipse fill="none" stroke="black" cx="196" cy="-738" rx="27" ry="18"/>
<text text-anchor="middle" x="196" y="-734.3" font-family="Times-Roman" font-size="14.00">PiL</text>
</g>
<!-- I2&#45;&gt;PiL1 -->
<g id="edge30" class="edge">
<title>I2&#45;&gt;PiL1</title>
<g id="a_edge30"><a xlink:title="yl">
<path fill="none" stroke="blue" d="M196,-781.67C196,-773.05 196,-763.79 196,-756.1"/>
<polygon fill="blue" stroke="blue" points="192.5,-781.7 196,-791.7 199.5,-781.7 192.5,-781.7"/>
</a>
</g>
</g>
<!-- !d1 -->
<g id="node9" class="node">
<title>!d1</title>
<ellipse fill="none" stroke="black" cx="192" cy="-666" rx="27" ry="18"/>
<text text-anchor="middle" x="192" y="-662.3" font-family="Times-Roman" font-size="14.00">!d</text>
</g>
<!-- PiL1&#45;&gt;!d1 -->
<g id="edge31" class="edge">
<title>PiL1&#45;&gt;!d1</title>
<g id="a_edge31"><a xlink:title="yl1">
<path fill="none" stroke="blue" d="M194.44,-709.67C193.95,-701.05 193.42,-691.79 192.98,-684.1"/>
<polygon fill="blue" stroke="blue" points="190.95,-709.91 195.01,-719.7 197.93,-709.51 190.95,-709.91"/>
</a>
</g>
</g>
<!-- !p1 -->
<g id="node11" class="node">
<title>!p1</title>
<ellipse fill="none" stroke="black" cx="264" cy="-666" rx="27" ry="18"/>
<text text-anchor="middle" x="264" y="-662.3" font-family="Times-Roman" font-size="14.00">!p</text>
</g>
<!-- PiL1&#45;&gt;!p1 -->
<g id="edge34" class="edge">
<title>PiL1&#45;&gt;!p1</title>
<g id="a_edge34"><a xlink:title="ylp">
<path fill="none" stroke="red" d="M210.09,-722.5C219.57,-712.73 232.24,-699.69 242.92,-688.7"/>
<polygon fill="red" stroke="red" points="245.47,-691.1 249.93,-681.49 240.45,-686.22 245.47,-691.1"/>
</a>
</g>
</g>
<!-- !c0 -->
<g id="node10" class="node">
<title>!c0</title>
<ellipse fill="none" stroke="black" cx="192" cy="-594" rx="27" ry="18"/>
<text text-anchor="middle" x="192" y="-590.3" font-family="Times-Roman" font-size="14.00">!c</text>
</g>
<!-- !d1&#45;&gt;!c0 -->
<g id="edge27" class="edge">
<title>!d1&#45;&gt;!c0</title>
<g id="a_edge27"><a xlink:title="y1">
<path fill="none" stroke="blue" d="M192,-637.67C192,-629.05 192,-619.79 192,-612.1"/>
<polygon fill="blue" stroke="blue" points="188.5,-637.7 192,-647.7 195.5,-637.7 188.5,-637.7"/>
</a>
</g>
</g>
<!-- Cut2 -->
<g id="node28" class="node">
<title>Cut2</title>
<ellipse fill="none" stroke="black" cx="192" cy="-522" rx="27" ry="18"/>
<text text-anchor="middle" x="192" y="-518.3" font-family="Times-Roman" font-size="14.00">Cut</text>
</g>
<!-- !c0&#45;&gt;Cut2 -->
<g id="edge26" class="edge">
<title>!c0&#45;&gt;Cut2</title>
<g id="a_edge26"><a xlink:title="y">
<path fill="none" stroke="blue" d="M192,-565.67C192,-557.05 192,-547.79 192,-540.1"/>
<polygon fill="blue" stroke="blue" points="188.5,-565.7 192,-575.7 195.5,-565.7 188.5,-565.7"/>
</a>
</g>
</g>
<!-- !p1&#45;&gt;!c0 -->
<g id="edge28" class="edge">
<title>!p1&#45;&gt;!c0</title>
<g id="a_edge28"><a xlink:title="y2">
<path fill="none" stroke="blue" d="M241.96,-643.57C230.55,-632.48 216.93,-619.24 206.8,-609.38"/>
<polygon fill="blue" stroke="blue" points="239.82,-646.37 249.43,-650.83 244.7,-641.35 239.82,-646.37"/>
</a>
</g>
</g>
<!-- I3 -->
<g id="node12" class="node">
<title>I3</title>
<ellipse fill="none" stroke="black" cx="264" cy="-594" rx="27" ry="18"/>
<text text-anchor="middle" x="264" y="-590.3" font-family="Times-Roman" font-size="14.00">I</text>
</g>
<!-- !p1&#45;&gt;I3 -->
<g id="edge33" class="edge">
<title>!p1&#45;&gt;I3</title>
<g id="a_edge33"><a xlink:title="yli">
<path fill="none" stroke="red" d="M264,-647.7C264,-639.98 264,-630.71 264,-622.11"/>
<polygon fill="red" stroke="red" points="267.5,-622.1 264,-612.1 260.5,-622.1 267.5,-622.1"/>
</a>
</g>
</g>
<!-- !d2 -->
<g id="node13" class="node">
<title>!d2</title>
<ellipse fill="none" stroke="black" cx="291" cy="-522" rx="27" ry="18"/>
<text text-anchor="middle" x="291" y="-518.3" font-family="Times-Roman" font-size="14.00">!d</text>
</g>
<!-- I3&#45;&gt;!d2 -->
<g id="edge32" class="edge">
<title>I3&#45;&gt;!d2</title>
<g id="a_edge32"><a xlink:title="yl2">
<path fill="none" stroke="blue" d="M274.01,-567.06C277.5,-558.01 281.32,-548.09 284.46,-539.96"/>
<polygon fill="blue" stroke="blue" points="270.73,-565.82 270.4,-576.41 277.26,-568.34 270.73,-565.82"/>
</a>
</g>
</g>
<!-- !d2&#45;&gt;!p1 -->
<g id="edge29" class="edge">
<title>!d2&#45;&gt;!p1</title>
<g id="a_edge29"><a xlink:title="yj">
<path fill="none" stroke="blue" d="M299.07,-549.59C303.23,-567.57 306.26,-591.65 300,-612 295.62,-626.25 285.96,-640.1 277.75,-650.07"/>
<polygon fill="blue" stroke="blue" points="302.43,-548.6 296.55,-539.79 295.65,-550.35 302.43,-548.6"/>
</a>
</g>
</g>
<!-- !p2 -->
<g id="node14" class="node">
<title>!p2</title>
<ellipse fill="none" stroke="black" cx="164" cy="-450" rx="27" ry="18"/>
<text text-anchor="middle" x="164" y="-446.3" font-family="Times-Roman" font-size="14.00">!p</text>
</g>
<!-- I4 -->
<g id="node15" class="node">
<title>I4</title>
<ellipse fill="none" stroke="black" cx="137" cy="-378" rx="27" ry="18"/>
<text text-anchor="middle" x="137" y="-374.3" font-family="Times-Roman" font-size="14.00">I</text>
</g>
<!-- !p2&#45;&gt;I4 -->
<g id="edge11" class="edge">
<title>!p2&#45;&gt;I4</title>
<g id="a_edge11"><a xlink:title="hli">
<path fill="none" stroke="red" d="M157.6,-432.41C154.49,-424.34 150.67,-414.43 147.17,-405.35"/>
<polygon fill="red" stroke="red" points="150.4,-404.03 143.54,-395.96 143.87,-406.55 150.4,-404.03"/>
</a>
</g>
</g>
<!-- PiR0 -->
<g id="node26" class="node">
<title>PiR0</title>
<ellipse fill="none" stroke="black" cx="164" cy="-1051.3" rx="27" ry="18"/>
<text text-anchor="middle" x="164" y="-1047.6" font-family="Times-Roman" font-size="14.00">PiR</text>
</g>
<!-- !p2&#45;&gt;PiR0 -->
<g id="edge4" class="edge">
<title>!p2&#45;&gt;PiR0</title>
<g id="a_edge4"><a xlink:title="h">
<path fill="none" stroke="blue" d="M155.79,-477.79C147.85,-506.13 137,-552.28 137,-593 137,-895.65 137,-895.65 137,-895.65 137,-946.34 151.25,-1005.01 159.05,-1033.3"/>
<polygon fill="blue" stroke="blue" points="159.25,-478.43 158.67,-467.85 152.53,-476.49 159.25,-478.43"/>
</a>
</g>
</g>
<!-- PiL2 -->
<g id="node16" class="node">
<title>PiL2</title>
<ellipse fill="none" stroke="black" cx="137" cy="-306" rx="27" ry="18"/>
<text text-anchor="middle" x="137" y="-302.3" font-family="Times-Roman" font-size="14.00">PiL</text>
</g>
<!-- I4&#45;&gt;PiL2 -->
<g id="edge7" class="edge">
<title>I4&#45;&gt;PiL2</title>
<g id="a_edge7"><a xlink:title="hl2">
<path fill="none" stroke="blue" d="M137,-349.67C137,-341.05 137,-331.79 137,-324.1"/>
<polygon fill="blue" stroke="blue" points="133.5,-349.7 137,-359.7 140.5,-349.7 133.5,-349.7"/>
</a>
</g>
</g>
<!-- !d3 -->
<g id="node17" class="node">
<title>!d3</title>
<ellipse fill="none" stroke="black" cx="192" cy="-234" rx="27" ry="18"/>
<text text-anchor="middle" x="192" y="-230.3" font-family="Times-Roman" font-size="14.00">!d</text>
</g>
<!-- PiL2&#45;&gt;!d3 -->
<g id="edge8" class="edge">
<title>PiL2&#45;&gt;!d3</title>
<g id="a_edge8"><a xlink:title="hl21">
<path fill="none" stroke="blue" d="M155.17,-281.87C163.37,-271.44 172.81,-259.42 180.09,-250.16"/>
<polygon fill="blue" stroke="blue" points="152.36,-279.79 148.93,-289.81 157.86,-284.11 152.36,-279.79"/>
</a>
</g>
</g>
<!-- !p3 -->
<g id="node18" class="node">
<title>!p3</title>
<ellipse fill="none" stroke="black" cx="120" cy="-234" rx="27" ry="18"/>
<text text-anchor="middle" x="120" y="-230.3" font-family="Times-Roman" font-size="14.00">!p</text>
</g>
<!-- PiL2&#45;&gt;!p3 -->
<g id="edge10" class="edge">
<title>PiL2&#45;&gt;!p3</title>
<g id="a_edge10"><a xlink:title="hl2p">
<path fill="none" stroke="red" d="M132.88,-288.05C130.99,-280.26 128.7,-270.82 126.58,-262.08"/>
<polygon fill="red" stroke="red" points="129.96,-261.17 124.2,-252.28 123.15,-262.82 129.96,-261.17"/>
</a>
</g>
</g>
<!-- !d3&#45;&gt;!p2 -->
<g id="edge5" class="edge">
<title>!d3&#45;&gt;!p2</title>
<g id="a_edge5"><a xlink:title="hj">
<path fill="none" stroke="blue" d="M189.19,-262.4C185.81,-294.48 179.73,-349.2 173,-396 171.27,-408.01 168.98,-421.49 167.14,-431.85"/>
<polygon fill="blue" stroke="blue" points="192.68,-262.74 190.24,-252.43 185.72,-262.01 192.68,-262.74"/>
</a>
</g>
</g>
<!-- PiR1 -->
<g id="node27" class="node">
<title>PiR1</title>
<ellipse fill="none" stroke="black" cx="120" cy="-162" rx="27" ry="18"/>
<text text-anchor="middle" x="120" y="-158.3" font-family="Times-Roman" font-size="14.00">PiR</text>
</g>
<!-- !p3&#45;&gt;PiR1 -->
<g id="edge9" class="edge">
<title>!p3&#45;&gt;PiR1</title>
<g id="a_edge9"><a xlink:title="hl2i">
<path fill="none" stroke="red" d="M120,-215.7C120,-207.98 120,-198.71 120,-190.11"/>
<polygon fill="red" stroke="red" points="123.5,-190.1 120,-180.1 116.5,-190.1 123.5,-190.1"/>
</a>
</g>
</g>
<!-- I5 -->
<g id="node19" class="node">
<title>I5</title>
<ellipse fill="none" stroke="black" cx="148" cy="-90" rx="27" ry="18"/>
<text text-anchor="middle" x="148" y="-86.3" font-family="Times-Roman" font-size="14.00">I</text>
</g>
<!-- !d4 -->
<g id="node20" class="node">
<title>!d4</title>
<ellipse fill="none" stroke="black" cx="120" cy="-18" rx="27" ry="18"/>
<text text-anchor="middle" x="120" y="-14.3" font-family="Times-Roman" font-size="14.00">!d</text>
</g>
<!-- I5&#45;&gt;!d4 -->
<g id="edge15" class="edge">
<title>I5&#45;&gt;!d4</title>
<g id="a_edge15"><a xlink:title="il">
<path fill="none" stroke="blue" d="M137.56,-62.91C133.89,-53.72 129.86,-43.65 126.59,-35.47"/>
<polygon fill="blue" stroke="blue" points="134.4,-64.43 141.36,-72.41 140.9,-61.83 134.4,-64.43"/>
</a>
</g>
</g>
<!-- !d4&#45;&gt;PiR1 -->
<g id="edge14" class="edge">
<title>!d4&#45;&gt;PiR1</title>
<g id="a_edge14"><a xlink:title="i">
<path fill="none" stroke="blue" d="M115.12,-46.04C113.84,-54.34 112.64,-63.52 112,-72 110.8,-87.96 110.8,-92.04 112,-108 112.91,-120.06 114.95,-133.54 116.75,-143.89"/>
<polygon fill="blue" stroke="blue" points="118.58,-46.55 116.75,-36.11 111.68,-45.41 118.58,-46.55"/>
</a>
</g>
</g>
<!-- I6&#45;&gt;PiL0 -->
<g id="edge21" class="edge">
<title>I6&#45;&gt;PiL0</title>
<g id="a_edge21"><a xlink:title="xl">
<path fill="none" stroke="blue" d="M137,-1454.96C137,-1446.35 137,-1437.09 137,-1429.4"/>
<polygon fill="blue" stroke="blue" points="133.5,-1454.99 137,-1464.99 140.5,-1454.99 133.5,-1454.99"/>
</a>
</g>
</g>
<!-- Dup0_0 -->
<g id="node22" class="node">
<title>Dup0_0</title>
<ellipse fill="none" stroke="black" cx="164" cy="-1123.3" rx="29.5" ry="18"/>
<text text-anchor="middle" x="164" y="-1119.6" font-family="Times-Roman" font-size="14.00">Dup</text>
</g>
<!-- Dup0_0&#45;&gt;PiR0 -->
<g id="edge17" class="edge">
<title>Dup0_0&#45;&gt;PiR0</title>
<g id="a_edge17"><a xlink:title="reti">
<path fill="none" stroke="red" d="M164,-1104.99C164,-1097.28 164,-1088.01 164,-1079.41"/>
<polygon fill="red" stroke="red" points="167.5,-1079.4 164,-1069.4 160.5,-1079.4 167.5,-1079.4"/>
</a>
</g>
</g>
<!-- !p4 -->
<g id="node23" class="node">
<title>!p4</title>
<ellipse fill="none" stroke="black" cx="137" cy="-1195.3" rx="27" ry="18"/>
<text text-anchor="middle" x="137" y="-1191.6" font-family="Times-Roman" font-size="14.00">!p</text>
</g>
<!-- !p4&#45;&gt;Dup0_0 -->
<g id="edge3" class="edge">
<title>!p4&#45;&gt;Dup0_0</title>
<g id="a_edge3"><a xlink:title="e3">
<path fill="none" stroke="red" d="M143.4,-1177.71C146.71,-1169.11 150.82,-1158.45 154.5,-1148.92"/>
<ellipse fill="none" stroke="red" cx="156.02" cy="-1144.98" rx="4" ry="4"/>
</a>
</g>
</g>
<!-- Cut0&#45;&gt;!p4 -->
<g id="edge1" class="edge">
<title>Cut0&#45;&gt;!p4</title>
<g id="a_edge1"><a xlink:title="e1">
<path fill="none" stroke="red" d="M137,-1248.99C137,-1241.28 137,-1232.01 137,-1223.41"/>
<polygon fill="red" stroke="red" points="140.5,-1223.4 137,-1213.4 133.5,-1223.4 140.5,-1223.4"/>
</a>
</g>
</g>
<!-- Cut1&#45;&gt;Dup0_0 -->
<g id="edge2" class="edge">
<title>Cut1&#45;&gt;Dup0_0</title>
<g id="a_edge2"><a xlink:title="e2">
<path fill="none" stroke="red" d="M181.67,-1320.85C180.96,-1291.25 178.85,-1229.32 173,-1177.3 171.97,-1168.16 170.4,-1158.2 168.86,-1149.42"/>
<ellipse fill="red" stroke="red" cx="168.12" cy="-1145.35" rx="4" ry="4"/>
</a>
</g>
</g>
<!-- PiR0&#45;&gt;I1 -->
<g id="edge13" class="edge">
<title>PiR0&#45;&gt;I1</title>
<g id="a_edge13"><a xlink:title="hr">
<path fill="none" stroke="red" stroke-width="2" d="M171.11,-1033.71C174.66,-1025.42 179.03,-1015.22 183,-1005.96"/>
<polygon fill="red" stroke="red" stroke-width="2" points="186.22,-1007.34 186.94,-996.77 179.79,-1004.58 186.22,-1007.34"/>
</a>
</g>
</g>
<!-- PiR1&#45;&gt;I5 -->
<g id="edge16" class="edge">
<title>PiR1&#45;&gt;I5</title>
<g id="a_edge16"><a xlink:title="ir">
<path fill="none" stroke="red" d="M126.64,-144.41C129.91,-136.22 133.94,-126.14 137.62,-116.95"/>
<polygon fill="red" stroke="red" points="140.95,-118.05 141.41,-107.47 134.45,-115.45 140.95,-118.05"/>
</a>
</g>
</g>
<!-- Cut2&#45;&gt;!p2 -->
<g id="edge12" class="edge">
<title>Cut2&#45;&gt;!p2</title>
<g id="a_edge12"><a xlink:title="hlp">
<path fill="none" stroke="red" d="M185.36,-504.41C182.09,-496.22 178.06,-486.14 174.38,-476.95"/>
<polygon fill="red" stroke="red" points="177.55,-475.45 170.59,-467.47 171.05,-478.05 177.55,-475.45"/>
</a>
</g>
</g>
<!-- Cut3&#45;&gt;I2 -->
<g id="edge35" class="edge">
<title>Cut3&#45;&gt;I2</title>
<g id="a_edge35"><a xlink:title="yr">
<path fill="none" stroke="red" d="M196,-863.81C196,-855.45 196,-846.41 196,-838.21"/>
<polygon fill="red" stroke="red" points="199.5,-838.05 196,-828.05 192.5,-838.05 199.5,-838.05"/>
</a>
</g>
</g>
</g>
</svg>
