<?xml version="1.0" encoding="UTF-8" standalone="no"?>
<!DOCTYPE svg PUBLIC "-//W3C//DTD SVG 1.1//EN"
 "http://www.w3.org/Graphics/SVG/1.1/DTD/svg11.dtd">
<!-- Generated by graphviz version 2.43.0 (0)
 -->
<!-- Title: %3 Pages: 1 -->
<svg width="440pt" height="1519pt"
 viewBox="0.00 0.00 440.00 1519.00" xmlns="http://www.w3.org/2000/svg" xmlns:xlink="http://www.w3.org/1999/xlink">
<g id="graph0" class="graph" transform="scale(1 1) rotate(0) translate(4 1515)">
<title>%3</title>
<polygon fill="white" stroke="transparent" points="-4,4 -4,-1515 436,-1515 436,4 -4,4"/>
<!-- I0 -->
<g id="node1" class="node">
<title>I0</title>
<ellipse fill="none" stroke="black" cx="171" cy="-1493" rx="27" ry="18"/>
<text text-anchor="middle" x="171" y="-1489.3" font-family="Times-Roman" font-size="14.00">I</text>
</g>
<!-- !d1 -->
<g id="node2" class="node">
<title>!d1</title>
<ellipse fill="none" stroke="black" cx="116" cy="-1406" rx="27" ry="18"/>
<text text-anchor="middle" x="116" y="-1402.3" font-family="Times-Roman" font-size="14.00">!d</text>
</g>
<!-- I0&#45;&gt;!d1 -->
<g id="edge7" class="edge">
<title>I0&#45;&gt;!d1</title>
<g id="a_edge7"><a xlink:title="iret84">
<path fill="none" stroke="blue" d="M154.98,-1467.71C152.63,-1464.12 150.25,-1460.46 148,-1457 140.59,-1445.58 132.32,-1432.64 126.04,-1422.79"/>
<polygon fill="blue" stroke="blue" points="152.24,-1469.9 160.65,-1476.34 158.09,-1466.06 152.24,-1469.9"/>
</a>
</g>
<text text-anchor="middle" x="152.5" y="-1445.8" font-family="Times-Roman" font-size="14.00">3</text>
</g>
<!-- λ2 -->
<g id="node3" class="node">
<title>λ2</title>
<ellipse fill="none" stroke="black" cx="171" cy="-1319" rx="27" ry="18"/>
<text text-anchor="middle" x="171" y="-1315.3" font-family="Times-Roman" font-size="14.00">λ</text>
</g>
<!-- !d1&#45;&gt;λ2 -->
<g id="edge6" class="edge">
<title>!d1&#45;&gt;λ2</title>
<g id="a_edge6"><a xlink:title="i81">
<path fill="none" stroke="blue" d="M131.58,-1380.52C136.78,-1372.39 142.62,-1363.29 148,-1355 152.11,-1348.65 156.68,-1341.69 160.65,-1335.65"/>
<polygon fill="blue" stroke="blue" points="128.47,-1378.89 126.04,-1389.2 134.37,-1382.65 128.47,-1378.89"/>
</a>
</g>
<text text-anchor="middle" x="152.5" y="-1358.8" font-family="Times-Roman" font-size="14.00">3</text>
</g>
<!-- λ2&#45;&gt;I0 -->
<g id="edge26" class="edge">
<title>λ2&#45;&gt;I0</title>
<g id="a_edge26"><a xlink:title="ret82">
<path fill="none" stroke="red" d="M171,-1337.05C171,-1366.88 171,-1428.76 171,-1464.64"/>
<polygon fill="red" stroke="red" points="167.5,-1464.87 171,-1474.87 174.5,-1464.87 167.5,-1464.87"/>
</a>
</g>
</g>
<!-- !p3 -->
<g id="node4" class="node">
<title>!p3</title>
<ellipse fill="none" stroke="black" cx="226" cy="-1406" rx="27" ry="18"/>
<text text-anchor="middle" x="226" y="-1402.3" font-family="Times-Roman" font-size="14.00">!p</text>
</g>
<!-- !p3&#45;&gt;λ2 -->
<g id="edge20" class="edge">
<title>!p3&#45;&gt;λ2</title>
<g id="a_edge20"><a xlink:title="newrretf78">
<path fill="none" stroke="red" d="M215.65,-1389.01C207.51,-1376.42 196.02,-1358.67 186.74,-1344.33"/>
<polygon fill="red" stroke="red" points="189.67,-1342.41 181.3,-1335.91 183.79,-1346.21 189.67,-1342.41"/>
</a>
</g>
<text text-anchor="middle" x="206.5" y="-1358.8" font-family="Times-Roman" font-size="14.00">3</text>
</g>
<!-- I4 -->
<g id="node5" class="node">
<title>I4</title>
<ellipse fill="none" stroke="black" cx="352" cy="-1232" rx="27" ry="18"/>
<text text-anchor="middle" x="352" y="-1228.3" font-family="Times-Roman" font-size="14.00">I</text>
</g>
<!-- @5 -->
<g id="node6" class="node">
<title>@5</title>
<ellipse fill="none" stroke="black" cx="257" cy="-1493" rx="27" ry="18"/>
<text text-anchor="middle" x="257" y="-1489.3" font-family="Times-Roman" font-size="14.00">@</text>
</g>
<!-- I4&#45;&gt;@5 -->
<g id="edge9" class="edge">
<title>I4&#45;&gt;@5</title>
<g id="a_edge9"><a xlink:title="lret75">
<path fill="none" stroke="blue" d="M355.42,-1259.92C359.06,-1298.52 361.06,-1370.81 334,-1424 321.3,-1448.95 295.21,-1468.87 276.94,-1480.55"/>
<polygon fill="blue" stroke="blue" points="358.9,-1259.54 354.37,-1249.96 351.94,-1260.28 358.9,-1259.54"/>
</a>
</g>
</g>
<!-- @5&#45;&gt;!p3 -->
<g id="edge15" class="edge">
<title>@5&#45;&gt;!p3</title>
<g id="a_edge15"><a xlink:title="newrret74">
<path fill="none" stroke="red" d="M250.87,-1475.2C246.5,-1463.21 240.53,-1446.85 235.54,-1433.15"/>
<polygon fill="red" stroke="red" points="238.82,-1431.95 232.11,-1423.75 232.25,-1434.35 238.82,-1431.95"/>
</a>
</g>
<text text-anchor="middle" x="248.5" y="-1445.8" font-family="Times-Roman" font-size="14.00">2</text>
</g>
<!-- !d6 -->
<g id="node7" class="node">
<title>!d6</title>
<ellipse fill="none" stroke="black" cx="298" cy="-1406" rx="27" ry="18"/>
<text text-anchor="middle" x="298" y="-1402.3" font-family="Times-Roman" font-size="14.00">!d</text>
</g>
<!-- @5&#45;&gt;!d6 -->
<g id="edge11" class="edge">
<title>@5&#45;&gt;!d6</title>
<g id="a_edge11"><a xlink:title="lval70">
<path fill="none" stroke="blue" d="M269.3,-1466.48C276.05,-1452.49 284.22,-1435.55 290.12,-1423.33"/>
<polygon fill="blue" stroke="blue" points="266.09,-1465.08 264.9,-1475.61 272.4,-1468.12 266.09,-1465.08"/>
</a>
</g>
<text text-anchor="middle" x="284.5" y="-1445.8" font-family="Times-Roman" font-size="14.00">2</text>
</g>
<!-- !p7 -->
<g id="node8" class="node">
<title>!p7</title>
<ellipse fill="none" stroke="black" cx="297" cy="-1319" rx="27" ry="18"/>
<text text-anchor="middle" x="297" y="-1315.3" font-family="Times-Roman" font-size="14.00">!p</text>
</g>
<!-- !d6&#45;&gt;!p7 -->
<g id="edge5" class="edge">
<title>!d6&#45;&gt;!p7</title>
<g id="a_edge5"><a xlink:title="hf65">
<path fill="none" stroke="blue" d="M297.68,-1377.73C297.52,-1364.41 297.34,-1348.8 297.2,-1337.17"/>
<polygon fill="blue" stroke="blue" points="294.18,-1377.84 297.79,-1387.79 301.18,-1377.75 294.18,-1377.84"/>
</a>
</g>
<text text-anchor="middle" x="301.5" y="-1358.8" font-family="Times-Roman" font-size="14.00">1</text>
</g>
<!-- !p7&#45;&gt;I4 -->
<g id="edge19" class="edge">
<title>!p7&#45;&gt;I4</title>
<g id="a_edge19"><a xlink:title="newrretf66">
<path fill="none" stroke="red" d="M307.34,-1302.01C315.48,-1289.42 326.97,-1271.67 336.25,-1257.33"/>
<polygon fill="red" stroke="red" points="339.2,-1259.21 341.7,-1248.91 333.33,-1255.41 339.2,-1259.21"/>
</a>
</g>
<text text-anchor="middle" x="331.5" y="-1271.8" font-family="Times-Roman" font-size="14.00">2</text>
</g>
<!-- Dup26 -->
<g id="node27" class="node">
<title>Dup26</title>
<ellipse fill="none" stroke="black" cx="240" cy="-1232" rx="28.7" ry="18"/>
<text text-anchor="middle" x="240" y="-1228.3" font-family="Times-Roman" font-size="14.00">Dup</text>
</g>
<!-- !p7&#45;&gt;Dup26 -->
<g id="edge4" class="edge">
<title>!p7&#45;&gt;Dup26</title>
<g id="a_edge4"><a xlink:title="h34">
<path fill="none" stroke="blue" d="M280.62,-1293.58C271,-1279.22 259.1,-1261.48 250.67,-1248.91"/>
<polygon fill="blue" stroke="blue" points="277.8,-1295.65 286.28,-1302.01 283.61,-1291.75 277.8,-1295.65"/>
</a>
</g>
<text text-anchor="middle" x="276.5" y="-1271.8" font-family="Times-Roman" font-size="14.00">1</text>
</g>
<!-- I8 -->
<g id="node9" class="node">
<title>I8</title>
<ellipse fill="none" stroke="black" cx="86" cy="-265" rx="27" ry="18"/>
<text text-anchor="middle" x="86" y="-261.3" font-family="Times-Roman" font-size="14.00">I</text>
</g>
<!-- !d9 -->
<g id="node10" class="node">
<title>!d9</title>
<ellipse fill="none" stroke="black" cx="128" cy="-178" rx="27" ry="18"/>
<text text-anchor="middle" x="128" y="-174.3" font-family="Times-Roman" font-size="14.00">!d</text>
</g>
<!-- I8&#45;&gt;!d9 -->
<g id="edge36" class="edge">
<title>I8&#45;&gt;!d9</title>
<g id="a_edge36"><a xlink:title="yret60">
<path fill="none" stroke="blue" d="M98.6,-238.49C105.52,-224.49 113.89,-207.56 119.92,-195.34"/>
<polygon fill="blue" stroke="blue" points="95.39,-237.1 94.09,-247.61 101.66,-240.2 95.39,-237.1"/>
</a>
</g>
<text text-anchor="middle" x="114.5" y="-217.8" font-family="Times-Roman" font-size="14.00">2</text>
</g>
<!-- !p10 -->
<g id="node11" class="node">
<title>!p10</title>
<ellipse fill="none" stroke="black" cx="149" cy="-364" rx="27" ry="18"/>
<text text-anchor="middle" x="149" y="-360.3" font-family="Times-Roman" font-size="14.00">!p</text>
</g>
<!-- !d9&#45;&gt;!p10 -->
<g id="edge34" class="edge">
<title>!d9&#45;&gt;!p10</title>
<g id="a_edge34"><a xlink:title="yBf56">
<path fill="none" stroke="blue" d="M131.1,-206.2C135.5,-244.73 143.41,-314.06 147.06,-346.02"/>
<polygon fill="blue" stroke="blue" points="134.57,-205.75 129.96,-196.21 127.62,-206.54 134.57,-205.75"/>
</a>
</g>
<text text-anchor="middle" x="144.5" y="-261.3" font-family="Times-Roman" font-size="14.00">1</text>
</g>
<!-- !p10&#45;&gt;I8 -->
<g id="edge18" class="edge">
<title>!p10&#45;&gt;I8</title>
<g id="a_edge18"><a xlink:title="newrretf57">
<path fill="none" stroke="red" d="M138.59,-346.98C128.59,-331.58 113.34,-308.11 101.84,-290.39"/>
<polygon fill="red" stroke="red" points="104.59,-288.2 96.21,-281.72 98.72,-292.01 104.59,-288.2"/>
</a>
</g>
<text text-anchor="middle" x="122.5" y="-304.8" font-family="Times-Roman" font-size="14.00">2</text>
</g>
<!-- !c16 -->
<g id="node17" class="node">
<title>!c16</title>
<ellipse fill="none" stroke="black" cx="241" cy="-91" rx="27" ry="18"/>
<text text-anchor="middle" x="241" y="-87.3" font-family="Times-Roman" font-size="14.00">!c</text>
</g>
<!-- !p10&#45;&gt;!c16 -->
<g id="edge33" class="edge">
<title>!p10&#45;&gt;!c16</title>
<g id="a_edge33"><a xlink:title="yB44">
<path fill="none" stroke="blue" d="M154.45,-336.12C162.89,-296.67 180.71,-221.16 205,-160 210.85,-145.26 219.02,-129.56 226.09,-116.97"/>
<polygon fill="blue" stroke="blue" points="151,-335.51 152.37,-346.02 157.85,-336.95 151,-335.51"/>
<polygon fill="blue" stroke="blue" points="234.27,-109.76 226.26,-116.69 228.2,-106.27 234.27,-109.76"/>
</a>
</g>
<text text-anchor="middle" x="190.5" y="-217.8" font-family="Times-Roman" font-size="14.00">1</text>
</g>
<!-- I11 -->
<g id="node12" class="node">
<title>I11</title>
<ellipse fill="none" stroke="black" cx="149" cy="-536" rx="27" ry="18"/>
<text text-anchor="middle" x="149" y="-532.3" font-family="Times-Roman" font-size="14.00">I</text>
</g>
<!-- @12 -->
<g id="node13" class="node">
<title>@12</title>
<ellipse fill="none" stroke="black" cx="149" cy="-463" rx="27" ry="18"/>
<text text-anchor="middle" x="149" y="-459.3" font-family="Times-Roman" font-size="14.00">@</text>
</g>
<!-- I11&#45;&gt;@12 -->
<g id="edge8" class="edge">
<title>I11&#45;&gt;@12</title>
<g id="a_edge8"><a xlink:title="lret53">
<path fill="none" stroke="blue" d="M149,-507.75C149,-498.76 149,-489.02 149,-481.02"/>
<polygon fill="blue" stroke="blue" points="145.5,-507.81 149,-517.81 152.5,-507.81 145.5,-507.81"/>
</a>
</g>
</g>
<!-- @12&#45;&gt;!p10 -->
<g id="edge13" class="edge">
<title>@12&#45;&gt;!p10</title>
<g id="a_edge13"><a xlink:title="newrret52">
<path fill="none" stroke="red" d="M149,-444.65C149,-430.17 149,-409.26 149,-392.5"/>
<polygon fill="red" stroke="red" points="152.5,-392.19 149,-382.19 145.5,-392.19 152.5,-392.19"/>
</a>
</g>
<text text-anchor="middle" x="153.5" y="-415.8" font-family="Times-Roman" font-size="14.00">1</text>
</g>
<!-- Cut15 -->
<g id="node16" class="node">
<title>Cut15</title>
<ellipse fill="none" stroke="black" cx="239" cy="-364" rx="26" ry="26"/>
<ellipse fill="none" stroke="black" cx="239" cy="-364" rx="30" ry="30"/>
<text text-anchor="middle" x="239" y="-360.3" font-family="Times-Roman" font-size="14.00">Cut</text>
</g>
<!-- @12&#45;&gt;Cut15 -->
<g id="edge10" class="edge">
<title>@12&#45;&gt;Cut15</title>
<g id="a_edge10"><a xlink:title="lval48">
<path fill="none" stroke="blue" d="M169.47,-439.93C184.26,-423.99 204.13,-402.58 218.84,-386.72"/>
<polygon fill="blue" stroke="blue" points="166.9,-437.55 162.67,-447.26 172.03,-442.31 166.9,-437.55"/>
</a>
</g>
</g>
<!-- I13 -->
<g id="node14" class="node">
<title>I13</title>
<ellipse fill="none" stroke="black" cx="241" cy="-265" rx="27" ry="18"/>
<text text-anchor="middle" x="241" y="-261.3" font-family="Times-Roman" font-size="14.00">I</text>
</g>
<!-- !d14 -->
<g id="node15" class="node">
<title>!d14</title>
<ellipse fill="none" stroke="black" cx="241" cy="-178" rx="27" ry="18"/>
<text text-anchor="middle" x="241" y="-174.3" font-family="Times-Roman" font-size="14.00">!d</text>
</g>
<!-- I13&#45;&gt;!d14 -->
<g id="edge35" class="edge">
<title>I13&#45;&gt;!d14</title>
<g id="a_edge35"><a xlink:title="yret51">
<path fill="none" stroke="blue" d="M241,-236.73C241,-223.42 241,-207.81 241,-196.18"/>
<polygon fill="blue" stroke="blue" points="237.5,-236.8 241,-246.8 244.5,-236.8 237.5,-236.8"/>
</a>
</g>
<text text-anchor="middle" x="245.5" y="-217.8" font-family="Times-Roman" font-size="14.00">1</text>
</g>
<!-- !d14&#45;&gt;!c16 -->
<g id="edge32" class="edge">
<title>!d14&#45;&gt;!c16</title>
<g id="a_edge32"><a xlink:title="yA43">
<path fill="none" stroke="blue" d="M241,-149.73C241,-136.42 241,-120.81 241,-109.18"/>
<polygon fill="blue" stroke="blue" points="237.5,-149.8 241,-159.8 244.5,-149.8 237.5,-149.8"/>
</a>
</g>
<text text-anchor="middle" x="245.5" y="-130.8" font-family="Times-Roman" font-size="14.00">1</text>
</g>
<!-- Cut15&#45;&gt;I13 -->
<g id="edge27" class="edge">
<title>Cut15&#45;&gt;I13</title>
<g id="a_edge27"><a xlink:title="rval49">
<path fill="none" stroke="red" stroke-width="2" d="M239.6,-333.9C239.86,-321.12 240.17,-306.19 240.43,-293.6"/>
<polygon fill="red" stroke="red" stroke-width="2" points="243.93,-293.31 240.64,-283.24 236.94,-293.16 243.93,-293.31"/>
</a>
</g>
</g>
<!-- Cut21 -->
<g id="node22" class="node">
<title>Cut21</title>
<ellipse fill="none" stroke="black" cx="297" cy="-18" rx="27" ry="18"/>
<text text-anchor="middle" x="297" y="-14.3" font-family="Times-Roman" font-size="14.00">Cut</text>
</g>
<!-- !c16&#45;&gt;Cut21 -->
<g id="edge31" class="edge">
<title>!c16&#45;&gt;Cut21</title>
<g id="a_edge31"><a xlink:title="y41">
<path fill="none" stroke="blue" d="M259.5,-66.54C267.84,-55.96 277.46,-43.77 284.87,-34.38"/>
<polygon fill="blue" stroke="blue" points="256.59,-64.57 253.15,-74.59 262.09,-68.91 256.59,-64.57"/>
</a>
</g>
</g>
<!-- I17 -->
<g id="node18" class="node">
<title>I17</title>
<ellipse fill="none" stroke="black" cx="78" cy="-884" rx="27" ry="18"/>
<text text-anchor="middle" x="78" y="-880.3" font-family="Times-Roman" font-size="14.00">I</text>
</g>
<!-- !d18 -->
<g id="node19" class="node">
<title>!d18</title>
<ellipse fill="none" stroke="black" cx="123" cy="-797" rx="27" ry="18"/>
<text text-anchor="middle" x="123" y="-793.3" font-family="Times-Roman" font-size="14.00">!d</text>
</g>
<!-- I17&#45;&gt;!d18 -->
<g id="edge30" class="edge">
<title>I17&#45;&gt;!d18</title>
<g id="a_edge30"><a xlink:title="xret26">
<path fill="none" stroke="blue" d="M91.5,-857.48C98.91,-843.49 107.88,-826.55 114.35,-814.33"/>
<polygon fill="blue" stroke="blue" points="88.26,-856.13 86.67,-866.61 94.45,-859.41 88.26,-856.13"/>
</a>
</g>
<text text-anchor="middle" x="108.5" y="-836.8" font-family="Times-Roman" font-size="14.00">1</text>
</g>
<!-- !p19 -->
<g id="node20" class="node">
<title>!p19</title>
<ellipse fill="none" stroke="black" cx="141" cy="-971" rx="27" ry="18"/>
<text text-anchor="middle" x="141" y="-967.3" font-family="Times-Roman" font-size="14.00">!p</text>
</g>
<!-- !d18&#45;&gt;!p19 -->
<g id="edge29" class="edge">
<title>!d18&#45;&gt;!p19</title>
<g id="a_edge29"><a xlink:title="xBf22">
<path fill="none" stroke="blue" d="M125.85,-825.27C129.6,-861.11 136.08,-923 139.2,-952.87"/>
<polygon fill="blue" stroke="blue" points="129.3,-824.63 124.78,-815.05 122.34,-825.36 129.3,-824.63"/>
</a>
</g>
<text text-anchor="middle" x="138.5" y="-880.3" font-family="Times-Roman" font-size="14.00">0</text>
</g>
<!-- !p19&#45;&gt;I17 -->
<g id="edge17" class="edge">
<title>!p19&#45;&gt;I17</title>
<g id="a_edge17"><a xlink:title="newrretf23">
<path fill="none" stroke="red" d="M129.44,-954.41C119.94,-941.58 106.32,-923.21 95.49,-908.59"/>
<polygon fill="red" stroke="red" points="98.24,-906.44 89.48,-900.49 92.62,-910.6 98.24,-906.44"/>
</a>
</g>
<text text-anchor="middle" x="118.5" y="-923.8" font-family="Times-Roman" font-size="14.00">1</text>
</g>
<!-- Cut23 -->
<g id="node24" class="node">
<title>Cut23</title>
<ellipse fill="none" stroke="black" cx="195" cy="-884" rx="27" ry="18"/>
<text text-anchor="middle" x="195" y="-880.3" font-family="Times-Roman" font-size="14.00">Cut</text>
</g>
<!-- !p19&#45;&gt;Cut23 -->
<g id="edge28" class="edge">
<title>!p19&#45;&gt;Cut23</title>
<g id="a_edge28"><a xlink:title="xB10">
<path fill="none" stroke="blue" d="M156.77,-945.17C165.84,-930.89 176.98,-913.36 184.89,-900.91"/>
<polygon fill="blue" stroke="blue" points="153.56,-943.69 151.15,-954.01 159.47,-947.44 153.56,-943.69"/>
</a>
</g>
<text text-anchor="middle" x="176.5" y="-923.8" font-family="Times-Roman" font-size="14.00">0</text>
</g>
<!-- Assign20 -->
<g id="node21" class="node">
<title>Assign20</title>
<ellipse fill="none" stroke="black" cx="39" cy="-797" rx="38.99" ry="18"/>
<text text-anchor="middle" x="39" y="-793.3" font-family="Times-Roman" font-size="14.00">Assign</text>
</g>
<!-- Lift30 -->
<g id="node31" class="node">
<title>Lift30</title>
<ellipse fill="none" stroke="black" cx="81" cy="-710" rx="27" ry="18"/>
<text text-anchor="middle" x="81" y="-706.3" font-family="Times-Roman" font-size="14.00">Lift</text>
</g>
<!-- Assign20&#45;&gt;Lift30 -->
<g id="edge24" class="edge">
<title>Assign20&#45;&gt;Lift30</title>
<g id="a_edge24"><a xlink:title="ret110">
<path fill="none" stroke="red" d="M47.29,-779.2C53.32,-767.02 61.57,-750.31 68.4,-736.49"/>
<polygon fill="red" stroke="red" points="71.57,-737.98 72.86,-727.46 65.29,-734.88 71.57,-737.98"/>
</a>
</g>
<text text-anchor="middle" x="67.5" y="-749.8" font-family="Times-Roman" font-size="14.00">0</text>
</g>
<!-- Cut21&#45;&gt;!p7 -->
<g id="edge14" class="edge">
<title>Cut21&#45;&gt;!p7</title>
<g id="a_edge14"><a xlink:title="newrret61">
<path fill="none" stroke="red" d="M297,-36.22C297,-50.59 297,-71.63 297,-90 297,-1233 297,-1233 297,-1233 297,-1252.24 297,-1273.94 297,-1290.6"/>
<polygon fill="red" stroke="red" points="293.5,-1290.74 297,-1300.74 300.5,-1290.74 293.5,-1290.74"/>
</a>
</g>
<text text-anchor="middle" x="301.5" y="-662.8" font-family="Times-Roman" font-size="14.00">1</text>
</g>
<!-- !p22 -->
<g id="node23" class="node">
<title>!p22</title>
<ellipse fill="none" stroke="black" cx="195" cy="-797" rx="27" ry="18"/>
<text text-anchor="middle" x="195" y="-793.3" font-family="Times-Roman" font-size="14.00">!p</text>
</g>
<!-- λ24 -->
<g id="node25" class="node">
<title>λ24</title>
<ellipse fill="none" stroke="black" cx="195" cy="-710" rx="27" ry="18"/>
<text text-anchor="middle" x="195" y="-706.3" font-family="Times-Roman" font-size="14.00">λ</text>
</g>
<!-- !p22&#45;&gt;λ24 -->
<g id="edge21" class="edge">
<title>!p22&#45;&gt;λ24</title>
<g id="a_edge21"><a xlink:title="newrretf92">
<path fill="none" stroke="red" d="M195,-778.79C195,-767.16 195,-751.54 195,-738.23"/>
<polygon fill="red" stroke="red" points="198.5,-738.17 195,-728.17 191.5,-738.17 198.5,-738.17"/>
</a>
</g>
<text text-anchor="middle" x="199.5" y="-749.8" font-family="Times-Roman" font-size="14.00">1</text>
</g>
<!-- Cut23&#45;&gt;!p22 -->
<g id="edge16" class="edge">
<title>Cut23&#45;&gt;!p22</title>
<g id="a_edge16"><a xlink:title="newrret94">
<path fill="none" stroke="red" d="M195,-865.79C195,-854.16 195,-838.54 195,-825.23"/>
<polygon fill="red" stroke="red" points="198.5,-825.17 195,-815.17 191.5,-825.17 198.5,-825.17"/>
</a>
</g>
<text text-anchor="middle" x="199.5" y="-836.8" font-family="Times-Roman" font-size="14.00">0</text>
</g>
<!-- Dup27 -->
<g id="node28" class="node">
<title>Dup27</title>
<ellipse fill="none" stroke="black" cx="149" cy="-623" rx="28.7" ry="18"/>
<text text-anchor="middle" x="149" y="-619.3" font-family="Times-Roman" font-size="14.00">Dup</text>
</g>
<!-- λ24&#45;&gt;Dup27 -->
<g id="edge23" class="edge">
<title>λ24&#45;&gt;Dup27</title>
<g id="a_edge23"><a xlink:title="ret106">
<path fill="none" stroke="red" d="M186.13,-692.61C179.51,-680.38 170.34,-663.44 162.77,-649.45"/>
<polygon fill="none" stroke="red" points="165.68,-647.46 157.84,-640.33 159.52,-650.79 165.68,-647.46"/>
</a>
</g>
<text text-anchor="middle" x="179.5" y="-662.8" font-family="Times-Roman" font-size="14.00">1</text>
</g>
<!-- Dup25 -->
<g id="node26" class="node">
<title>Dup25</title>
<ellipse fill="none" stroke="black" cx="331" cy="-1493" rx="28.7" ry="18"/>
<text text-anchor="middle" x="331" y="-1489.3" font-family="Times-Roman" font-size="14.00">Dup</text>
</g>
<!-- Dup26&#45;&gt;λ24 -->
<g id="edge2" class="edge">
<title>Dup26&#45;&gt;λ24</title>
<g id="a_edge2"><a xlink:title="h105">
<path fill="none" stroke="blue" d="M244.85,-1203.69C247.4,-1187.07 250,-1165.38 250,-1146 250,-1146 250,-1146 250,-796 250,-766.99 227.15,-740.07 210.9,-724.59"/>
<polygon fill="none" stroke="blue" points="241.36,-1203.38 243.22,-1213.81 248.27,-1204.5 241.36,-1203.38"/>
</a>
</g>
<text text-anchor="middle" x="254.5" y="-967.3" font-family="Times-Roman" font-size="14.00">1</text>
</g>
<!-- Lift29 -->
<g id="node30" class="node">
<title>Lift29</title>
<ellipse fill="none" stroke="black" cx="182" cy="-1145" rx="27" ry="18"/>
<text text-anchor="middle" x="182" y="-1141.3" font-family="Times-Roman" font-size="14.00">Lift</text>
</g>
<!-- Dup26&#45;&gt;Lift29 -->
<g id="edge1" class="edge">
<title>Dup26&#45;&gt;Lift29</title>
<g id="a_edge1"><a xlink:title="h101">
<path fill="none" stroke="blue" d="M223.3,-1206.52C213.43,-1192.07 201.23,-1174.19 192.66,-1161.62"/>
<polygon fill="blue" stroke="blue" points="220.56,-1208.72 229.09,-1215.01 226.34,-1204.77 220.56,-1208.72"/>
</a>
</g>
<text text-anchor="middle" x="219.5" y="-1184.8" font-family="Times-Roman" font-size="14.00">1</text>
</g>
<!-- Dup27&#45;&gt;I11 -->
<g id="edge25" class="edge">
<title>Dup27&#45;&gt;I11</title>
<g id="a_edge25"><a xlink:title="ret42">
<path fill="none" stroke="red" d="M149,-604.79C149,-593.16 149,-577.54 149,-564.23"/>
<polygon fill="red" stroke="red" points="152.5,-564.17 149,-554.17 145.5,-564.17 152.5,-564.17"/>
</a>
</g>
<text text-anchor="middle" x="153.5" y="-575.8" font-family="Times-Roman" font-size="14.00">1</text>
</g>
<!-- Lift28 -->
<g id="node29" class="node">
<title>Lift28</title>
<ellipse fill="none" stroke="black" cx="405" cy="-1493" rx="27" ry="18"/>
<text text-anchor="middle" x="405" y="-1489.3" font-family="Times-Roman" font-size="14.00">Lift</text>
</g>
<!-- Cut31 -->
<g id="node32" class="node">
<title>Cut31</title>
<ellipse fill="none" stroke="black" cx="141" cy="-1058" rx="27" ry="18"/>
<text text-anchor="middle" x="141" y="-1054.3" font-family="Times-Roman" font-size="14.00">Cut</text>
</g>
<!-- Lift29&#45;&gt;Cut31 -->
<g id="edge3" class="edge">
<title>Lift29&#45;&gt;Cut31</title>
<g id="a_edge3"><a xlink:title="h109">
<path fill="none" stroke="blue" d="M169.69,-1118.48C162.94,-1104.49 154.77,-1087.55 148.88,-1075.33"/>
<polygon fill="blue" stroke="blue" points="166.59,-1120.12 174.09,-1127.61 172.9,-1117.08 166.59,-1120.12"/>
</a>
</g>
<text text-anchor="middle" x="168.5" y="-1097.8" font-family="Times-Roman" font-size="14.00">0</text>
</g>
<!-- Lift30&#45;&gt;Dup27 -->
<g id="edge22" class="edge">
<title>Lift30&#45;&gt;Dup27</title>
<g id="a_edge22"><a xlink:title="ret102">
<path fill="none" stroke="red" d="M93.15,-693.8C103.44,-680.95 118.34,-662.31 130.17,-647.53"/>
<polygon fill="red" stroke="red" points="133.2,-649.34 136.72,-639.35 127.74,-644.97 133.2,-649.34"/>
</a>
</g>
<text text-anchor="middle" x="124.5" y="-662.8" font-family="Times-Roman" font-size="14.00">1</text>
</g>
<!-- Cut31&#45;&gt;!p19 -->
<g id="edge12" class="edge">
<title>Cut31&#45;&gt;!p19</title>
<g id="a_edge12"><a xlink:title="newrret18">
<path fill="none" stroke="red" d="M141,-1039.79C141,-1028.16 141,-1012.54 141,-999.23"/>
<polygon fill="red" stroke="red" points="144.5,-999.17 141,-989.17 137.5,-999.17 144.5,-999.17"/>
</a>
</g>
<text text-anchor="middle" x="145.5" y="-1010.8" font-family="Times-Roman" font-size="14.00">0</text>
</g>
</g>
</svg>
