<?xml version="1.0" encoding="UTF-8" standalone="no"?>
<!DOCTYPE svg PUBLIC "-//W3C//DTD SVG 1.1//EN"
 "http://www.w3.org/Graphics/SVG/1.1/DTD/svg11.dtd">
<!-- Generated by graphviz version 2.43.0 (0)
 -->
<!-- Title: %3 Pages: 1 -->
<svg width="464pt" height="1293pt"
 viewBox="0.00 0.00 464.00 1293.30" xmlns="http://www.w3.org/2000/svg" xmlns:xlink="http://www.w3.org/1999/xlink">
<g id="graph0" class="graph" transform="scale(1 1) rotate(0) translate(4 1289.3)">
<title>%3</title>
<polygon fill="white" stroke="transparent" points="-4,4 -4,-1289.3 460,-1289.3 460,4 -4,4"/>
<!-- Root0 -->
<g id="node1" class="node">
<title>Root0</title>
<ellipse fill="none" stroke="black" cx="64" cy="-1267.3" rx="30.59" ry="18"/>
<text text-anchor="middle" x="64" y="-1263.6" font-family="Times-Roman" font-size="14.00">Root</text>
</g>
<!-- I2 -->
<g id="node10" class="node">
<title>I2</title>
<ellipse fill="none" stroke="black" cx="64" cy="-1195.3" rx="27" ry="18"/>
<text text-anchor="middle" x="64" y="-1191.6" font-family="Times-Roman" font-size="14.00">I</text>
</g>
<!-- Root0&#45;&gt;I2 -->
<g id="edge41" class="edge">
<title>Root0&#45;&gt;I2</title>
<g id="a_edge41"><a xlink:title="rettop">
<path fill="none" stroke="red" stroke-width="2" d="M64,-1248.99C64,-1241.28 64,-1232.01 64,-1223.41"/>
<polygon fill="red" stroke="red" stroke-width="2" points="67.5,-1223.4 64,-1213.4 60.5,-1223.4 67.5,-1223.4"/>
</a>
</g>
</g>
<!-- !p0 -->
<g id="node2" class="node">
<title>!p0</title>
<ellipse fill="none" stroke="black" cx="329" cy="-979.3" rx="27" ry="18"/>
<text text-anchor="middle" x="329" y="-975.6" font-family="Times-Roman" font-size="14.00">!p</text>
</g>
<!-- I0 -->
<g id="node3" class="node">
<title>I0</title>
<ellipse fill="none" stroke="black" cx="414" cy="-894.65" rx="27" ry="18"/>
<text text-anchor="middle" x="414" y="-890.95" font-family="Times-Roman" font-size="14.00">I</text>
</g>
<!-- !p0&#45;&gt;I0 -->
<g id="edge45" class="edge">
<title>!p0&#45;&gt;I0</title>
<g id="a_edge45"><a xlink:title="yli">
<path fill="none" stroke="red" d="M343.81,-963.9C357.09,-950.98 376.77,-931.85 391.92,-917.12"/>
<polygon fill="red" stroke="red" points="394.63,-919.36 399.36,-909.88 389.75,-914.34 394.63,-919.36"/>
</a>
</g>
</g>
<!-- Cut0 -->
<g id="node6" class="node">
<title>Cut0</title>
<ellipse fill="none" stroke="black" cx="300" cy="-894.65" rx="26.78" ry="26.78"/>
<ellipse fill="none" stroke="black" cx="300" cy="-894.65" rx="30.8" ry="30.8"/>
<text text-anchor="middle" x="300" y="-890.95" font-family="Times-Roman" font-size="14.00">Cut</text>
</g>
<!-- !p0&#45;&gt;Cut0 -->
<g id="edge42" class="edge">
<title>!p0&#45;&gt;Cut0</title>
<g id="a_edge42"><a xlink:title="y2">
<path fill="none" stroke="blue" stroke-width="2" d="M319.77,-951.98C316.61,-942.98 313.06,-932.88 309.86,-923.74"/>
<polygon fill="blue" stroke="blue" stroke-width="2" points="316.52,-953.29 323.13,-961.57 323.12,-950.98 316.52,-953.29"/>
</a>
</g>
</g>
<!-- !d0 -->
<g id="node4" class="node">
<title>!d0</title>
<ellipse fill="none" stroke="black" cx="403" cy="-810" rx="27" ry="18"/>
<text text-anchor="middle" x="403" y="-806.3" font-family="Times-Roman" font-size="14.00">!d</text>
</g>
<!-- I0&#45;&gt;!d0 -->
<g id="edge44" class="edge">
<title>I0&#45;&gt;!d0</title>
<g id="a_edge44"><a xlink:title="yl2">
<path fill="none" stroke="blue" d="M410.39,-866.49C408.7,-853.84 406.75,-839.18 405.28,-828.1"/>
<polygon fill="blue" stroke="blue" points="406.93,-867.07 411.72,-876.52 413.87,-866.15 406.93,-867.07"/>
</a>
</g>
</g>
<!-- !d0&#45;&gt;!p0 -->
<g id="edge43" class="edge">
<title>!d0&#45;&gt;!p0</title>
<g id="a_edge43"><a xlink:title="yj">
<path fill="none" stroke="blue" d="M390.6,-836.82C386.52,-845.43 382,-855.1 378,-864 362.49,-898.45 345.29,-939.21 335.96,-961.56"/>
<polygon fill="blue" stroke="blue" points="393.83,-838.17 394.96,-827.64 387.51,-835.16 393.83,-838.17"/>
</a>
</g>
</g>
<!-- !p1 -->
<g id="node5" class="node">
<title>!p1</title>
<ellipse fill="none" stroke="black" cx="310" cy="-810" rx="27" ry="18"/>
<text text-anchor="middle" x="310" y="-806.3" font-family="Times-Roman" font-size="14.00">!p</text>
</g>
<!-- I1 -->
<g id="node9" class="node">
<title>I1</title>
<ellipse fill="none" stroke="black" cx="348" cy="-738" rx="27" ry="18"/>
<text text-anchor="middle" x="348" y="-734.3" font-family="Times-Roman" font-size="14.00">I</text>
</g>
<!-- !p1&#45;&gt;I1 -->
<g id="edge1" class="edge">
<title>!p1&#45;&gt;I1</title>
<g id="a_edge1"><a xlink:title="e11">
<path fill="none" stroke="red" d="M318.81,-792.76C323.42,-784.28 329.16,-773.71 334.32,-764.2"/>
<polygon fill="red" stroke="red" points="337.54,-765.61 339.23,-755.15 331.39,-762.27 337.54,-765.61"/>
</a>
</g>
</g>
<!-- Dup1_0 -->
<g id="node26" class="node">
<title>Dup1_0</title>
<ellipse fill="none" stroke="black" cx="265" cy="-738" rx="29.5" ry="18"/>
<text text-anchor="middle" x="265" y="-734.3" font-family="Times-Roman" font-size="14.00">Dup</text>
</g>
<!-- !p1&#45;&gt;Dup1_0 -->
<g id="edge3" class="edge">
<title>!p1&#45;&gt;Dup1_0</title>
<g id="a_edge3"><a xlink:title="e15">
<path fill="none" stroke="blue" d="M294.34,-784.64C288.1,-774.94 281.09,-764.03 275.48,-755.31"/>
<polygon fill="blue" stroke="blue" points="291.44,-786.6 299.79,-793.12 297.33,-782.81 291.44,-786.6"/>
</a>
</g>
</g>
<!-- Cut0&#45;&gt;!p1 -->
<g id="edge38" class="edge">
<title>Cut0&#45;&gt;!p1</title>
<g id="a_edge38"><a xlink:title="e9">
<path fill="none" stroke="red" d="M303.61,-863.81C304.62,-855.45 305.72,-846.41 306.71,-838.21"/>
<polygon fill="red" stroke="red" points="310.21,-838.4 307.94,-828.05 303.26,-837.56 310.21,-838.4"/>
</a>
</g>
</g>
<!-- !d1 -->
<g id="node7" class="node">
<title>!d1</title>
<ellipse fill="none" stroke="black" cx="429" cy="-594" rx="27" ry="18"/>
<text text-anchor="middle" x="429" y="-590.3" font-family="Times-Roman" font-size="14.00">!d</text>
</g>
<!-- !d1&#45;&gt;!p1 -->
<g id="edge2" class="edge">
<title>!d1&#45;&gt;!p1</title>
<g id="a_edge2"><a xlink:title="e13">
<path fill="none" stroke="blue" d="M426.92,-622.21C423.15,-656.25 412.69,-715.03 384,-756 370.68,-775.03 348.25,-789.68 331.58,-798.71"/>
<polygon fill="blue" stroke="blue" points="430.42,-622.38 427.92,-612.09 423.45,-621.69 430.42,-622.38"/>
</a>
</g>
</g>
<!-- PiL0 -->
<g id="node8" class="node">
<title>PiL0</title>
<ellipse fill="none" stroke="black" cx="357" cy="-666" rx="27" ry="18"/>
<text text-anchor="middle" x="357" y="-662.3" font-family="Times-Roman" font-size="14.00">PiL</text>
</g>
<!-- PiL0&#45;&gt;!d1 -->
<g id="edge4" class="edge">
<title>PiL0&#45;&gt;!d1</title>
<g id="a_edge4"><a xlink:title="e17">
<path fill="none" stroke="blue" d="M379.04,-643.57C390.45,-632.48 404.07,-619.24 414.2,-609.38"/>
<polygon fill="blue" stroke="blue" points="376.3,-641.35 371.57,-650.83 381.18,-646.37 376.3,-641.35"/>
</a>
</g>
</g>
<!-- !p3 -->
<g id="node19" class="node">
<title>!p3</title>
<ellipse fill="none" stroke="black" cx="357" cy="-594" rx="27" ry="18"/>
<text text-anchor="middle" x="357" y="-590.3" font-family="Times-Roman" font-size="14.00">!p</text>
</g>
<!-- PiL0&#45;&gt;!p3 -->
<g id="edge6" class="edge">
<title>PiL0&#45;&gt;!p3</title>
<g id="a_edge6"><a xlink:title="e21">
<path fill="none" stroke="red" d="M357,-647.7C357,-639.98 357,-630.71 357,-622.11"/>
<polygon fill="red" stroke="red" points="360.5,-622.1 357,-612.1 353.5,-622.1 360.5,-622.1"/>
</a>
</g>
</g>
<!-- I1&#45;&gt;PiL0 -->
<g id="edge5" class="edge">
<title>I1&#45;&gt;PiL0</title>
<g id="a_edge5"><a xlink:title="e19">
<path fill="none" stroke="blue" d="M351.47,-710.01C352.58,-701.36 353.78,-692.03 354.78,-684.28"/>
<polygon fill="blue" stroke="blue" points="347.98,-709.69 350.18,-720.05 354.93,-710.58 347.98,-709.69"/>
</a>
</g>
</g>
<!-- PiL3 -->
<g id="node38" class="node">
<title>PiL3</title>
<ellipse fill="none" stroke="black" cx="64" cy="-1123.3" rx="27" ry="18"/>
<text text-anchor="middle" x="64" y="-1119.6" font-family="Times-Roman" font-size="14.00">PiL</text>
</g>
<!-- I2&#45;&gt;PiL3 -->
<g id="edge9" class="edge">
<title>I2&#45;&gt;PiL3</title>
<g id="a_edge9"><a xlink:title="e32">
<path fill="none" stroke="blue" stroke-width="2" d="M64,-1166.96C64,-1158.35 64,-1149.09 64,-1141.4"/>
<polygon fill="blue" stroke="blue" stroke-width="2" points="60.5,-1166.99 64,-1176.99 67.5,-1166.99 60.5,-1166.99"/>
</a>
</g>
</g>
<!-- !p2 -->
<g id="node11" class="node">
<title>!p2</title>
<ellipse fill="none" stroke="black" cx="175" cy="-594" rx="27" ry="18"/>
<text text-anchor="middle" x="175" y="-590.3" font-family="Times-Roman" font-size="14.00">!p</text>
</g>
<!-- PiR0 -->
<g id="node13" class="node">
<title>PiR0</title>
<ellipse fill="none" stroke="black" cx="175" cy="-522" rx="27" ry="18"/>
<text text-anchor="middle" x="175" y="-518.3" font-family="Times-Roman" font-size="14.00">PiR</text>
</g>
<!-- !p2&#45;&gt;PiR0 -->
<g id="edge13" class="edge">
<title>!p2&#45;&gt;PiR0</title>
<g id="a_edge13"><a xlink:title="e39">
<path fill="none" stroke="red" d="M175,-575.7C175,-567.98 175,-558.71 175,-550.11"/>
<polygon fill="red" stroke="red" points="178.5,-550.1 175,-540.1 171.5,-550.1 178.5,-550.1"/>
</a>
</g>
</g>
<!-- Cut1 -->
<g id="node12" class="node">
<title>Cut1</title>
<ellipse fill="none" stroke="black" cx="183" cy="-666" rx="27" ry="18"/>
<text text-anchor="middle" x="183" y="-662.3" font-family="Times-Roman" font-size="14.00">Cut</text>
</g>
<!-- Cut1&#45;&gt;!p2 -->
<g id="edge12" class="edge">
<title>Cut1&#45;&gt;!p2</title>
<g id="a_edge12"><a xlink:title="e37">
<path fill="none" stroke="red" d="M181.02,-647.7C180.14,-639.98 179.08,-630.71 178.1,-622.11"/>
<polygon fill="red" stroke="red" points="181.57,-621.64 176.95,-612.1 174.61,-622.44 181.57,-621.64"/>
</a>
</g>
</g>
<!-- I3 -->
<g id="node18" class="node">
<title>I3</title>
<ellipse fill="none" stroke="black" cx="137" cy="-450" rx="27" ry="18"/>
<text text-anchor="middle" x="137" y="-446.3" font-family="Times-Roman" font-size="14.00">I</text>
</g>
<!-- PiR0&#45;&gt;I3 -->
<g id="edge15" class="edge">
<title>PiR0&#45;&gt;I3</title>
<g id="a_edge15"><a xlink:title="e43">
<path fill="none" stroke="red" d="M166.19,-504.76C161.58,-496.28 155.84,-485.71 150.68,-476.2"/>
<polygon fill="red" stroke="red" points="153.61,-474.27 145.77,-467.15 147.46,-477.61 153.61,-474.27"/>
</a>
</g>
</g>
<!-- !c0 -->
<g id="node14" class="node">
<title>!c0</title>
<ellipse fill="none" stroke="black" cx="192" cy="-162" rx="27" ry="18"/>
<text text-anchor="middle" x="192" y="-158.3" font-family="Times-Roman" font-size="14.00">!c</text>
</g>
<!-- !c0&#45;&gt;PiR0 -->
<g id="edge14" class="edge">
<title>!c0&#45;&gt;PiR0</title>
<g id="a_edge14"><a xlink:title="e41">
<path fill="none" stroke="blue" d="M192,-190.08C192,-218.65 192,-265 192,-305 192,-379 192,-379 192,-379 192,-424.44 183.31,-477.48 178.36,-504.03"/>
<polygon fill="blue" stroke="blue" points="195.5,-190.05 192,-180.05 188.5,-190.05 195.5,-190.05"/>
</a>
</g>
</g>
<!-- !d2 -->
<g id="node15" class="node">
<title>!d2</title>
<ellipse fill="none" stroke="black" cx="137" cy="-234" rx="27" ry="18"/>
<text text-anchor="middle" x="137" y="-230.3" font-family="Times-Roman" font-size="14.00">!d</text>
</g>
<!-- !d2&#45;&gt;!c0 -->
<g id="edge17" class="edge">
<title>!d2&#45;&gt;!c0</title>
<g id="a_edge17"><a xlink:title="e46">
<path fill="none" stroke="blue" d="M155.17,-209.87C163.37,-199.44 172.81,-187.42 180.09,-178.16"/>
<polygon fill="blue" stroke="blue" points="152.36,-207.79 148.93,-217.81 157.86,-212.11 152.36,-207.79"/>
</a>
</g>
</g>
<!-- PiL1 -->
<g id="node16" class="node">
<title>PiL1</title>
<ellipse fill="none" stroke="black" cx="137" cy="-306" rx="27" ry="18"/>
<text text-anchor="middle" x="137" y="-302.3" font-family="Times-Roman" font-size="14.00">PiL</text>
</g>
<!-- PiL1&#45;&gt;!d2 -->
<g id="edge19" class="edge">
<title>PiL1&#45;&gt;!d2</title>
<g id="a_edge19"><a xlink:title="e49">
<path fill="none" stroke="blue" d="M137,-277.67C137,-269.05 137,-259.79 137,-252.1"/>
<polygon fill="blue" stroke="blue" points="133.5,-277.7 137,-287.7 140.5,-277.7 133.5,-277.7"/>
</a>
</g>
</g>
<!-- !p5 -->
<g id="node30" class="node">
<title>!p5</title>
<ellipse fill="none" stroke="black" cx="65" cy="-234" rx="27" ry="18"/>
<text text-anchor="middle" x="65" y="-230.3" font-family="Times-Roman" font-size="14.00">!p</text>
</g>
<!-- PiL1&#45;&gt;!p5 -->
<g id="edge21" class="edge">
<title>PiL1&#45;&gt;!p5</title>
<g id="a_edge21"><a xlink:title="e53">
<path fill="none" stroke="red" d="M122.43,-290.83C112.25,-280.94 98.48,-267.55 86.97,-256.36"/>
<polygon fill="red" stroke="red" points="89.41,-253.85 79.8,-249.38 84.53,-258.87 89.41,-253.85"/>
</a>
</g>
</g>
<!-- PiL2 -->
<g id="node17" class="node">
<title>PiL2</title>
<ellipse fill="none" stroke="black" cx="137" cy="-378" rx="27" ry="18"/>
<text text-anchor="middle" x="137" y="-374.3" font-family="Times-Roman" font-size="14.00">PiL</text>
</g>
<!-- PiL2&#45;&gt;PiL1 -->
<g id="edge20" class="edge">
<title>PiL2&#45;&gt;PiL1</title>
<g id="a_edge20"><a xlink:title="e51">
<path fill="none" stroke="blue" d="M137,-349.67C137,-341.05 137,-331.79 137,-324.1"/>
<polygon fill="blue" stroke="blue" points="133.5,-349.7 137,-359.7 140.5,-349.7 133.5,-349.7"/>
</a>
</g>
</g>
<!-- Dup3_1 -->
<g id="node37" class="node">
<title>Dup3_1</title>
<ellipse fill="none" stroke="black" cx="63" cy="-306" rx="29.5" ry="18"/>
<text text-anchor="middle" x="63" y="-302.3" font-family="Times-Roman" font-size="14.00">Dup</text>
</g>
<!-- PiL2&#45;&gt;Dup3_1 -->
<g id="edge24" class="edge">
<title>PiL2&#45;&gt;Dup3_1</title>
<g id="a_edge24"><a xlink:title="e57">
<path fill="none" stroke="red" d="M122.02,-362.83C111.16,-352.56 96.32,-338.52 84.24,-327.09"/>
<ellipse fill="none" stroke="red" cx="81.11" cy="-324.13" rx="4" ry="4"/>
</a>
</g>
</g>
<!-- I3&#45;&gt;PiL2 -->
<g id="edge22" class="edge">
<title>I3&#45;&gt;PiL2</title>
<g id="a_edge22"><a xlink:title="e55">
<path fill="none" stroke="blue" d="M137,-421.67C137,-413.05 137,-403.79 137,-396.1"/>
<polygon fill="blue" stroke="blue" points="133.5,-421.7 137,-431.7 140.5,-421.7 133.5,-421.7"/>
</a>
</g>
</g>
<!-- PiR1 -->
<g id="node22" class="node">
<title>PiR1</title>
<ellipse fill="none" stroke="black" cx="357" cy="-522" rx="27" ry="18"/>
<text text-anchor="middle" x="357" y="-518.3" font-family="Times-Roman" font-size="14.00">PiR</text>
</g>
<!-- !p3&#45;&gt;PiR1 -->
<g id="edge25" class="edge">
<title>!p3&#45;&gt;PiR1</title>
<g id="a_edge25"><a xlink:title="e59">
<path fill="none" stroke="red" d="M357,-575.7C357,-567.98 357,-558.71 357,-550.11"/>
<polygon fill="red" stroke="red" points="360.5,-550.1 357,-540.1 353.5,-550.1 360.5,-550.1"/>
</a>
</g>
</g>
<!-- !p4 -->
<g id="node20" class="node">
<title>!p4</title>
<ellipse fill="none" stroke="black" cx="285" cy="-522" rx="27" ry="18"/>
<text text-anchor="middle" x="285" y="-518.3" font-family="Times-Roman" font-size="14.00">!p</text>
</g>
<!-- PiR2 -->
<g id="node23" class="node">
<title>PiR2</title>
<ellipse fill="none" stroke="black" cx="285" cy="-450" rx="27" ry="18"/>
<text text-anchor="middle" x="285" y="-446.3" font-family="Times-Roman" font-size="14.00">PiR</text>
</g>
<!-- !p4&#45;&gt;PiR2 -->
<g id="edge27" class="edge">
<title>!p4&#45;&gt;PiR2</title>
<g id="a_edge27"><a xlink:title="e65">
<path fill="none" stroke="red" d="M285,-503.7C285,-495.98 285,-486.71 285,-478.11"/>
<polygon fill="red" stroke="red" points="288.5,-478.1 285,-468.1 281.5,-478.1 288.5,-478.1"/>
</a>
</g>
</g>
<!-- Cut2 -->
<g id="node21" class="node">
<title>Cut2</title>
<ellipse fill="none" stroke="black" cx="285" cy="-594" rx="27" ry="18"/>
<text text-anchor="middle" x="285" y="-590.3" font-family="Times-Roman" font-size="14.00">Cut</text>
</g>
<!-- Cut2&#45;&gt;!p4 -->
<g id="edge26" class="edge">
<title>Cut2&#45;&gt;!p4</title>
<g id="a_edge26"><a xlink:title="e63">
<path fill="none" stroke="red" d="M285,-575.7C285,-567.98 285,-558.71 285,-550.11"/>
<polygon fill="red" stroke="red" points="288.5,-550.1 285,-540.1 281.5,-550.1 288.5,-550.1"/>
</a>
</g>
</g>
<!-- I4 -->
<g id="node25" class="node">
<title>I4</title>
<ellipse fill="none" stroke="black" cx="357" cy="-450" rx="27" ry="18"/>
<text text-anchor="middle" x="357" y="-446.3" font-family="Times-Roman" font-size="14.00">I</text>
</g>
<!-- PiR1&#45;&gt;I4 -->
<g id="edge29" class="edge">
<title>PiR1&#45;&gt;I4</title>
<g id="a_edge29"><a xlink:title="e69">
<path fill="none" stroke="red" d="M357,-503.7C357,-495.98 357,-486.71 357,-478.11"/>
<polygon fill="red" stroke="red" points="360.5,-478.1 357,-468.1 353.5,-478.1 360.5,-478.1"/>
</a>
</g>
</g>
<!-- I5 -->
<g id="node29" class="node">
<title>I5</title>
<ellipse fill="none" stroke="black" cx="285" cy="-378" rx="27" ry="18"/>
<text text-anchor="middle" x="285" y="-374.3" font-family="Times-Roman" font-size="14.00">I</text>
</g>
<!-- PiR2&#45;&gt;I5 -->
<g id="edge31" class="edge">
<title>PiR2&#45;&gt;I5</title>
<g id="a_edge31"><a xlink:title="e77">
<path fill="none" stroke="red" d="M285,-431.7C285,-423.98 285,-414.71 285,-406.11"/>
<polygon fill="red" stroke="red" points="288.5,-406.1 285,-396.1 281.5,-406.1 288.5,-406.1"/>
</a>
</g>
</g>
<!-- !d3 -->
<g id="node24" class="node">
<title>!d3</title>
<ellipse fill="none" stroke="black" cx="403" cy="-378" rx="27" ry="18"/>
<text text-anchor="middle" x="403" y="-374.3" font-family="Times-Roman" font-size="14.00">!d</text>
</g>
<!-- !d3&#45;&gt;PiR1 -->
<g id="edge28" class="edge">
<title>!d3&#45;&gt;PiR1</title>
<g id="a_edge28"><a xlink:title="e67">
<path fill="none" stroke="blue" d="M403.3,-406.41C402.69,-424.42 400.32,-448.22 393,-468 387.83,-481.98 378.21,-495.85 370.21,-505.89"/>
<polygon fill="blue" stroke="blue" points="406.8,-406.35 403.48,-396.29 399.8,-406.23 406.8,-406.35"/>
</a>
</g>
</g>
<!-- I4&#45;&gt;!d3 -->
<g id="edge32" class="edge">
<title>I4&#45;&gt;!d3</title>
<g id="a_edge32"><a xlink:title="e79">
<path fill="none" stroke="blue" d="M373.09,-424.51C379.57,-414.66 386.85,-403.58 392.6,-394.82"/>
<polygon fill="blue" stroke="blue" points="370,-422.84 367.44,-433.12 375.85,-426.68 370,-422.84"/>
</a>
</g>
</g>
<!-- Dup1_0&#45;&gt;Cut1 -->
<g id="edge7" class="edge">
<title>Dup1_0&#45;&gt;Cut1</title>
<g id="a_edge7"><a xlink:title="e23">
<path fill="none" stroke="blue" d="M241.99,-717.35C228.29,-705.66 211.25,-691.11 199.01,-680.67"/>
<ellipse fill="blue" stroke="blue" cx="245.36" cy="-720.24" rx="4" ry="4"/>
</a>
</g>
</g>
<!-- Dup3_0 -->
<g id="node36" class="node">
<title>Dup3_0</title>
<ellipse fill="none" stroke="black" cx="265" cy="-666" rx="29.5" ry="18"/>
<text text-anchor="middle" x="265" y="-662.3" font-family="Times-Roman" font-size="14.00">Dup</text>
</g>
<!-- Dup1_0&#45;&gt;Dup3_0 -->
<g id="edge8" class="edge">
<title>Dup1_0&#45;&gt;Dup3_0</title>
<g id="a_edge8"><a xlink:title="e25">
<path fill="none" stroke="blue" d="M265,-711.64C265,-702.49 265,-692.38 265,-684.1"/>
<ellipse fill="none" stroke="blue" cx="265" cy="-715.7" rx="4" ry="4"/>
</a>
</g>
</g>
<!-- Dup1_1 -->
<g id="node27" class="node">
<title>Dup1_1</title>
<ellipse fill="none" stroke="black" cx="101" cy="-1051.3" rx="29.5" ry="18"/>
<text text-anchor="middle" x="101" y="-1047.6" font-family="Times-Roman" font-size="14.00">Dup</text>
</g>
<!-- Dup1_1&#45;&gt;!p0 -->
<g id="edge46" class="edge">
<title>Dup1_1&#45;&gt;!p0</title>
<g id="a_edge46"><a xlink:title="ylp">
<path fill="none" stroke="red" d="M126.71,-1042.4C167.96,-1029.74 248.96,-1004.87 294.96,-990.75"/>
<polygon fill="red" stroke="red" points="296.23,-994.02 304.76,-987.74 294.18,-987.33 296.23,-994.02"/>
</a>
</g>
</g>
<!-- !d4 -->
<g id="node28" class="node">
<title>!d4</title>
<ellipse fill="none" stroke="black" cx="312" cy="-306" rx="27" ry="18"/>
<text text-anchor="middle" x="312" y="-302.3" font-family="Times-Roman" font-size="14.00">!d</text>
</g>
<!-- !d4&#45;&gt;PiR2 -->
<g id="edge30" class="edge">
<title>!d4&#45;&gt;PiR2</title>
<g id="a_edge30"><a xlink:title="e75">
<path fill="none" stroke="blue" d="M320.07,-333.59C324.23,-351.57 327.26,-375.65 321,-396 316.62,-410.25 306.96,-424.1 298.75,-434.07"/>
<polygon fill="blue" stroke="blue" points="323.43,-332.6 317.55,-323.79 316.65,-334.35 323.43,-332.6"/>
</a>
</g>
</g>
<!-- I5&#45;&gt;!d4 -->
<g id="edge33" class="edge">
<title>I5&#45;&gt;!d4</title>
<g id="a_edge33"><a xlink:title="e83">
<path fill="none" stroke="blue" d="M295.01,-351.06C298.5,-342.01 302.32,-332.09 305.46,-323.96"/>
<polygon fill="blue" stroke="blue" points="291.73,-349.82 291.4,-360.41 298.26,-352.34 291.73,-349.82"/>
</a>
</g>
</g>
<!-- PiR3 -->
<g id="node31" class="node">
<title>PiR3</title>
<ellipse fill="none" stroke="black" cx="65" cy="-162" rx="27" ry="18"/>
<text text-anchor="middle" x="65" y="-158.3" font-family="Times-Roman" font-size="14.00">PiR</text>
</g>
<!-- !p5&#45;&gt;PiR3 -->
<g id="edge34" class="edge">
<title>!p5&#45;&gt;PiR3</title>
<g id="a_edge34"><a xlink:title="e85">
<path fill="none" stroke="red" d="M65,-215.7C65,-207.98 65,-198.71 65,-190.11"/>
<polygon fill="red" stroke="red" points="68.5,-190.1 65,-180.1 61.5,-190.1 68.5,-190.1"/>
</a>
</g>
</g>
<!-- I6 -->
<g id="node35" class="node">
<title>I6</title>
<ellipse fill="none" stroke="black" cx="93" cy="-90" rx="27" ry="18"/>
<text text-anchor="middle" x="93" y="-86.3" font-family="Times-Roman" font-size="14.00">I</text>
</g>
<!-- PiR3&#45;&gt;I6 -->
<g id="edge37" class="edge">
<title>PiR3&#45;&gt;I6</title>
<g id="a_edge37"><a xlink:title="e89">
<path fill="none" stroke="red" d="M71.64,-144.41C74.91,-136.22 78.94,-126.14 82.62,-116.95"/>
<polygon fill="red" stroke="red" points="85.95,-118.05 86.41,-107.47 79.45,-115.45 85.95,-118.05"/>
</a>
</g>
</g>
<!-- Cut3 -->
<g id="node32" class="node">
<title>Cut3</title>
<ellipse fill="none" stroke="black" cx="27" cy="-979.3" rx="27" ry="18"/>
<text text-anchor="middle" x="27" y="-975.6" font-family="Times-Roman" font-size="14.00">Cut</text>
</g>
<!-- Cut3&#45;&gt;Dup3_1 -->
<g id="edge23" class="edge">
<title>Cut3&#45;&gt;Dup3_1</title>
<g id="a_edge23"><a xlink:title="e56">
<path fill="none" stroke="red" stroke-width="2" d="M28.53,-961.21C31.09,-930.96 36,-865.97 36,-811 36,-811 36,-811 36,-449 36,-407.2 47.43,-359.68 55.42,-331.58"/>
<ellipse fill="red" stroke="red" stroke-width="2" cx="56.55" cy="-327.69" rx="4" ry="4"/>
</a>
</g>
</g>
<!-- !d5 -->
<g id="node33" class="node">
<title>!d5</title>
<ellipse fill="none" stroke="black" cx="27" cy="-1051.3" rx="27" ry="18"/>
<text text-anchor="middle" x="27" y="-1047.6" font-family="Times-Roman" font-size="14.00">!d</text>
</g>
<!-- !d5&#45;&gt;Cut3 -->
<g id="edge35" class="edge">
<title>!d5&#45;&gt;Cut3</title>
<g id="a_edge35"><a xlink:title="e86">
<path fill="none" stroke="blue" stroke-width="2" d="M27,-1022.96C27,-1014.35 27,-1005.09 27,-997.4"/>
<polygon fill="blue" stroke="blue" stroke-width="2" points="23.5,-1022.99 27,-1032.99 30.5,-1022.99 23.5,-1022.99"/>
</a>
</g>
</g>
<!-- !d6 -->
<g id="node34" class="node">
<title>!d6</title>
<ellipse fill="none" stroke="black" cx="65" cy="-18" rx="27" ry="18"/>
<text text-anchor="middle" x="65" y="-14.3" font-family="Times-Roman" font-size="14.00">!d</text>
</g>
<!-- !d6&#45;&gt;PiR3 -->
<g id="edge36" class="edge">
<title>!d6&#45;&gt;PiR3</title>
<g id="a_edge36"><a xlink:title="e87">
<path fill="none" stroke="blue" d="M60.12,-46.04C58.84,-54.34 57.64,-63.52 57,-72 55.8,-87.96 55.8,-92.04 57,-108 57.91,-120.06 59.95,-133.54 61.75,-143.89"/>
<polygon fill="blue" stroke="blue" points="63.58,-46.55 61.75,-36.11 56.68,-45.41 63.58,-46.55"/>
</a>
</g>
</g>
<!-- I6&#45;&gt;!d6 -->
<g id="edge40" class="edge">
<title>I6&#45;&gt;!d6</title>
<g id="a_edge40"><a xlink:title="e91">
<path fill="none" stroke="blue" d="M82.56,-62.91C78.89,-53.72 74.86,-43.65 71.59,-35.47"/>
<polygon fill="blue" stroke="blue" points="79.4,-64.43 86.36,-72.41 85.9,-61.83 79.4,-64.43"/>
</a>
</g>
</g>
<!-- Dup3_0&#45;&gt;!c0 -->
<g id="edge18" class="edge">
<title>Dup3_0&#45;&gt;!c0</title>
<g id="a_edge18"><a xlink:title="e47">
<path fill="none" stroke="blue" d="M255.17,-640.6C244.82,-612.66 230,-565.29 230,-523 230,-523 230,-523 230,-305 230,-258.3 210.58,-205.8 199.51,-179.66"/>
<ellipse fill="none" stroke="blue" cx="256.67" cy="-644.54" rx="4" ry="4"/>
</a>
</g>
</g>
<!-- Dup3_0&#45;&gt;Cut2 -->
<g id="edge16" class="edge">
<title>Dup3_0&#45;&gt;Cut2</title>
<g id="a_edge16"><a xlink:title="e45">
<path fill="none" stroke="blue" d="M272.1,-640.15C274.79,-630.75 277.78,-620.28 280.2,-611.79"/>
<ellipse fill="blue" stroke="blue" cx="270.94" cy="-644.21" rx="4" ry="4"/>
</a>
</g>
</g>
<!-- Dup3_1&#45;&gt;Dup1_1 -->
<g id="edge11" class="edge">
<title>Dup3_1&#45;&gt;Dup1_1</title>
<g id="a_edge11"><a xlink:title="e35">
<path fill="none" stroke="red" stroke-width="2" d="M66.75,-323.95C72.29,-350.48 82,-403.48 82,-449 82,-895.65 82,-895.65 82,-895.65 82,-941.64 90.38,-994.75 96.01,-1025.24"/>
<ellipse fill="none" stroke="red" stroke-width="2" cx="96.77" cy="-1029.29" rx="4" ry="4"/>
</a>
</g>
</g>
<!-- PiL3&#45;&gt;Dup1_1 -->
<g id="edge10" class="edge">
<title>PiL3&#45;&gt;Dup1_1</title>
<g id="a_edge10"><a xlink:title="e34">
<path fill="none" stroke="red" d="M72.58,-1106.06C77.28,-1097.18 83.18,-1086 88.39,-1076.15"/>
<ellipse fill="red" stroke="red" cx="90.34" cy="-1072.47" rx="4" ry="4"/>
</a>
</g>
</g>
<!-- PiL3&#45;&gt;!d5 -->
<g id="edge39" class="edge">
<title>PiL3&#45;&gt;!d5</title>
<g id="a_edge39"><a xlink:title="e90">
<path fill="none" stroke="blue" stroke-width="2" d="M50.63,-1097C45.59,-1087.47 40.01,-1076.91 35.54,-1068.44"/>
<polygon fill="blue" stroke="blue" stroke-width="2" points="47.65,-1098.85 55.42,-1106.06 53.84,-1095.58 47.65,-1098.85"/>
</a>
</g>
</g>
</g>
</svg>
