<?xml version="1.0" encoding="UTF-8" standalone="no"?>
<!DOCTYPE svg PUBLIC "-//W3C//DTD SVG 1.1//EN"
 "http://www.w3.org/Graphics/SVG/1.1/DTD/svg11.dtd">
<!-- Generated by graphviz version 2.49.3 (0)
 -->
<!-- Pages: 1 -->
<svg width="475pt" height="1634pt"
 viewBox="0.00 0.00 475.09 1634.00" xmlns="http://www.w3.org/2000/svg" xmlns:xlink="http://www.w3.org/1999/xlink">
<g id="graph0" class="graph" transform="scale(1 1) rotate(0) translate(4 1630)">
<polygon fill="white" stroke="transparent" points="-4,4 -4,-1630 471.09,-1630 471.09,4 -4,4"/>
<!-- Identity0 -->
<g id="node1" class="node">
<title>Identity0</title>
<ellipse fill="none" stroke="black" cx="409.09" cy="-1608" rx="38.19" ry="18"/>
<text text-anchor="middle" x="409.09" y="-1604.3" font-family="Times,serif" font-size="14.00">Identity</text>
</g>
<!-- BangD1 -->
<g id="node2" class="node">
<title>BangD1</title>
<ellipse fill="none" stroke="black" cx="409.09" cy="-1521" rx="36" ry="18"/>
<text text-anchor="middle" x="409.09" y="-1517.3" font-family="Times,serif" font-size="14.00">BangD</text>
</g>
<!-- BangD1&#45;&gt;Identity0 -->
<g id="edge23" class="edge">
<title>BangD1&#45;&gt;Identity0</title>
<g id="a_edge23"><a xlink:title="iret84">
<path fill="none" stroke="blue" d="M393.71,-1537.4C389.04,-1543.08 384.52,-1549.88 382.09,-1557 379.05,-1565.91 382.04,-1575.13 386.97,-1583.19"/>
<polygon fill="blue" stroke="blue" points="384.21,-1585.34 392.9,-1591.4 389.89,-1581.25 384.21,-1585.34"/>
</a>
</g>
<text text-anchor="middle" x="385.59" y="-1560.8" font-family="Times,serif" font-size="14.00">3</text>
</g>
<!-- BangD1&#45;&gt;Identity0 -->
<g id="edge24" class="edge">
<title>BangD1&#45;&gt;Identity0</title>
<g id="a_edge24"><a xlink:title="iseq83">
<path fill="none" stroke="black" d="M409.09,-1539.2C409.09,-1550.83 409.09,-1566.45 409.09,-1579.76"/>
<polygon fill="black" stroke="black" points="405.59,-1579.82 409.09,-1589.82 412.59,-1579.82 405.59,-1579.82"/>
</a>
</g>
<text text-anchor="middle" x="412.59" y="-1560.8" font-family="Times,serif" font-size="14.00">3</text>
</g>
<!-- PiR2 -->
<g id="node3" class="node">
<title>PiR2</title>
<ellipse fill="none" stroke="black" cx="409.09" cy="-1434" rx="27" ry="18"/>
<text text-anchor="middle" x="409.09" y="-1430.3" font-family="Times,serif" font-size="14.00">PiR</text>
</g>
<!-- PiR2&#45;&gt;Identity0 -->
<g id="edge47" class="edge">
<title>PiR2&#45;&gt;Identity0</title>
<g id="a_edge47"><a xlink:title="ret82">
<path fill="none" stroke="red" d="M422.7,-1449.86C433.58,-1462.81 447.97,-1482.66 454.09,-1503 458.7,-1518.32 458.7,-1523.67 454.09,-1539 449.25,-1555.08 439.24,-1570.85 429.88,-1583.16"/>
<polygon fill="red" stroke="red" points="427.06,-1581.08 423.58,-1591.08 432.54,-1585.43 427.06,-1581.08"/>
</a>
</g>
</g>
<!-- PiR2&#45;&gt;BangD1 -->
<g id="edge19" class="edge">
<title>PiR2&#45;&gt;BangD1</title>
<g id="a_edge19"><a xlink:title="i81">
<path fill="none" stroke="blue" d="M394.56,-1449.37C389.61,-1455.25 384.67,-1462.44 382.09,-1470 379.01,-1479.05 382.13,-1488.41 387.2,-1496.56"/>
<polygon fill="blue" stroke="blue" points="384.54,-1498.84 393.27,-1504.84 390.18,-1494.71 384.54,-1498.84"/>
</a>
</g>
<text text-anchor="middle" x="385.59" y="-1473.8" font-family="Times,serif" font-size="14.00">3</text>
</g>
<!-- PiR2&#45;&gt;BangD1 -->
<g id="edge49" class="edge">
<title>PiR2&#45;&gt;BangD1</title>
<g id="a_edge49"><a xlink:title="seq80">
<path fill="none" stroke="black" d="M409.09,-1452.2C409.09,-1463.83 409.09,-1479.45 409.09,-1492.76"/>
<polygon fill="black" stroke="black" points="405.59,-1492.82 409.09,-1502.82 412.59,-1492.82 405.59,-1492.82"/>
</a>
</g>
<text text-anchor="middle" x="412.59" y="-1473.8" font-family="Times,serif" font-size="14.00">3</text>
</g>
<!-- Bang3 -->
<g id="node4" class="node">
<title>Bang3</title>
<ellipse fill="none" stroke="black" cx="409.09" cy="-1347" rx="29.5" ry="18"/>
<text text-anchor="middle" x="409.09" y="-1343.3" font-family="Times,serif" font-size="14.00">Bang</text>
</g>
<!-- Bang3&#45;&gt;PiR2 -->
<g id="edge6" class="edge">
<title>Bang3&#45;&gt;PiR2</title>
<g id="a_edge6"><a xlink:title="c_bseq79">
<path fill="none" stroke="black" d="M409.09,-1365.2C409.09,-1376.83 409.09,-1392.45 409.09,-1405.76"/>
<polygon fill="black" stroke="black" points="405.59,-1405.82 409.09,-1415.82 412.59,-1405.82 405.59,-1405.82"/>
</a>
</g>
<text text-anchor="middle" x="412.59" y="-1386.8" font-family="Times,serif" font-size="14.00">3</text>
</g>
<!-- Bang3&#45;&gt;PiR2 -->
<g id="edge42" class="edge">
<title>Bang3&#45;&gt;PiR2</title>
<g id="a_edge42"><a xlink:title="newrretf78">
<path fill="none" stroke="red" d="M413.77,-1364.95C415.13,-1370.64 416.42,-1377.05 417.09,-1383 417.94,-1390.48 417.32,-1398.55 416.13,-1405.98"/>
<polygon fill="red" stroke="red" points="412.67,-1405.43 414.15,-1415.92 419.53,-1406.8 412.67,-1405.43"/>
</a>
</g>
<text text-anchor="middle" x="420.59" y="-1386.8" font-family="Times,serif" font-size="14.00">3</text>
</g>
<!-- Identity4 -->
<g id="node5" class="node">
<title>Identity4</title>
<ellipse fill="none" stroke="black" cx="323.09" cy="-1347" rx="38.19" ry="18"/>
<text text-anchor="middle" x="323.09" y="-1343.3" font-family="Times,serif" font-size="14.00">Identity</text>
</g>
<!-- PiL5 -->
<g id="node6" class="node">
<title>PiL5</title>
<ellipse fill="none" stroke="black" cx="377.09" cy="-1260" rx="27" ry="18"/>
<text text-anchor="middle" x="377.09" y="-1256.3" font-family="Times,serif" font-size="14.00">PiL</text>
</g>
<!-- PiL5&#45;&gt;Bang3 -->
<g id="edge12" class="edge">
<title>PiL5&#45;&gt;Bang3</title>
<g id="a_edge12"><a xlink:title="dseq76">
<path fill="none" stroke="black" d="M376.5,-1278.21C376.72,-1288.12 377.97,-1300.62 382.09,-1311 383.72,-1315.09 385.97,-1319.1 388.49,-1322.87"/>
<polygon fill="black" stroke="black" points="385.88,-1325.23 394.67,-1331.13 391.48,-1321.03 385.88,-1325.23"/>
</a>
</g>
<text text-anchor="middle" x="385.59" y="-1299.8" font-family="Times,serif" font-size="14.00">2</text>
</g>
<!-- PiL5&#45;&gt;Bang3 -->
<g id="edge35" class="edge">
<title>PiL5&#45;&gt;Bang3</title>
<g id="a_edge35"><a xlink:title="newrret74">
<path fill="none" stroke="red" d="M383.41,-1277.79C387.93,-1289.78 394.09,-1306.14 399.24,-1319.84"/>
<polygon fill="red" stroke="red" points="395.98,-1321.11 402.78,-1329.24 402.54,-1318.65 395.98,-1321.11"/>
</a>
</g>
<text text-anchor="middle" x="397.59" y="-1299.8" font-family="Times,serif" font-size="14.00">2</text>
</g>
<!-- PiL5&#45;&gt;Identity4 -->
<g id="edge22" class="edge">
<title>PiL5&#45;&gt;Identity4</title>
<g id="a_edge22"><a xlink:title="idseq77">
<path fill="none" stroke="black" d="M356.63,-1283.68C348.66,-1294.88 339.97,-1308.45 333.3,-1320.06"/>
<polygon fill="black" stroke="black" points="365.53,-1277.49 356.79,-1283.47 359.9,-1273.34 365.53,-1277.49"/>
<polygon fill="black" stroke="black" points="330.2,-1318.42 328.43,-1328.86 336.33,-1321.8 330.2,-1318.42"/>
</a>
</g>
</g>
<!-- PiL5&#45;&gt;Identity4 -->
<g id="edge27" class="edge">
<title>PiL5&#45;&gt;Identity4</title>
<g id="a_edge27"><a xlink:title="lret75">
<path fill="none" stroke="blue" d="M371.93,-1277.79C365.3,-1290.45 354.37,-1307.99 344.41,-1322.11"/>
<polygon fill="blue" stroke="blue" points="341.44,-1320.24 338.38,-1330.38 347.09,-1324.36 341.44,-1320.24"/>
</a>
</g>
</g>
<!-- BangD6 -->
<g id="node7" class="node">
<title>BangD6</title>
<ellipse fill="none" stroke="black" cx="377.09" cy="-1173" rx="36" ry="18"/>
<text text-anchor="middle" x="377.09" y="-1169.3" font-family="Times,serif" font-size="14.00">BangD</text>
</g>
<!-- BangD6&#45;&gt;PiL5 -->
<g id="edge18" class="edge">
<title>BangD6&#45;&gt;PiL5</title>
<g id="a_edge18"><a xlink:title="hseq72">
<path fill="none" stroke="black" d="M377.09,-1191.2C377.09,-1202.83 377.09,-1218.45 377.09,-1231.76"/>
<polygon fill="black" stroke="black" points="373.59,-1231.82 377.09,-1241.82 380.59,-1231.82 373.59,-1231.82"/>
</a>
</g>
<text text-anchor="middle" x="380.59" y="-1212.8" font-family="Times,serif" font-size="14.00">2</text>
</g>
<!-- BangD6&#45;&gt;PiL5 -->
<g id="edge30" class="edge">
<title>BangD6&#45;&gt;PiL5</title>
<g id="a_edge30"><a xlink:title="lval70">
<path fill="none" stroke="blue" d="M381.77,-1190.95C383.13,-1196.64 384.42,-1203.05 385.09,-1209 385.94,-1216.48 385.32,-1224.55 384.13,-1231.98"/>
<polygon fill="blue" stroke="blue" points="380.67,-1231.43 382.15,-1241.92 387.53,-1232.8 380.67,-1231.43"/>
</a>
</g>
<text text-anchor="middle" x="388.59" y="-1212.8" font-family="Times,serif" font-size="14.00">2</text>
</g>
<!-- Identity7 -->
<g id="node8" class="node">
<title>Identity7</title>
<ellipse fill="none" stroke="black" cx="82.09" cy="-1260" rx="38.19" ry="18"/>
<text text-anchor="middle" x="82.09" y="-1256.3" font-family="Times,serif" font-size="14.00">Identity</text>
</g>
<!-- BangD8 -->
<g id="node9" class="node">
<title>BangD8</title>
<ellipse fill="none" stroke="black" cx="82.09" cy="-1173" rx="36" ry="18"/>
<text text-anchor="middle" x="82.09" y="-1169.3" font-family="Times,serif" font-size="14.00">BangD</text>
</g>
<!-- BangD8&#45;&gt;Identity7 -->
<g id="edge66" class="edge">
<title>BangD8&#45;&gt;Identity7</title>
<g id="a_edge66"><a xlink:title="yret60">
<path fill="none" stroke="blue" d="M86.77,-1190.95C88.13,-1196.64 89.42,-1203.05 90.09,-1209 90.94,-1216.48 90.32,-1224.55 89.13,-1231.98"/>
<polygon fill="blue" stroke="blue" points="85.67,-1231.43 87.15,-1241.92 92.53,-1232.8 85.67,-1231.43"/>
</a>
</g>
<text text-anchor="middle" x="94.59" y="-1212.8" font-family="Times,serif" font-size="14.00">2</text>
</g>
<!-- BangD8&#45;&gt;Identity7 -->
<g id="edge68" class="edge">
<title>BangD8&#45;&gt;Identity7</title>
<g id="a_edge68"><a xlink:title="yseq59">
<path fill="none" stroke="black" d="M82.09,-1191.2C82.09,-1202.83 82.09,-1218.45 82.09,-1231.76"/>
<polygon fill="black" stroke="black" points="78.59,-1231.82 82.09,-1241.82 85.59,-1231.82 78.59,-1231.82"/>
</a>
</g>
<text text-anchor="middle" x="85.59" y="-1212.8" font-family="Times,serif" font-size="14.00">2</text>
</g>
<!-- Bang9 -->
<g id="node10" class="node">
<title>Bang9</title>
<ellipse fill="none" stroke="black" cx="82.09" cy="-1086" rx="29.5" ry="18"/>
<text text-anchor="middle" x="82.09" y="-1082.3" font-family="Times,serif" font-size="14.00">Bang</text>
</g>
<!-- Bang9&#45;&gt;Identity7 -->
<g id="edge40" class="edge">
<title>Bang9&#45;&gt;Identity7</title>
<g id="a_edge40"><a xlink:title="newrretf57">
<path fill="none" stroke="red" d="M95.92,-1102.12C106.77,-1115.08 121.01,-1134.8 127.09,-1155 131.7,-1170.32 131.7,-1175.67 127.09,-1191 122.25,-1207.08 112.24,-1222.85 102.88,-1235.16"/>
<polygon fill="red" stroke="red" points="100.06,-1233.08 96.58,-1243.08 105.54,-1237.43 100.06,-1233.08"/>
</a>
</g>
<text text-anchor="middle" x="134.59" y="-1169.3" font-family="Times,serif" font-size="14.00">2</text>
</g>
<!-- Bang9&#45;&gt;BangD8 -->
<g id="edge4" class="edge">
<title>Bang9&#45;&gt;BangD8</title>
<g id="a_edge4"><a xlink:title="c_bseq58">
<path fill="none" stroke="black" d="M82.09,-1104.2C82.09,-1115.83 82.09,-1131.45 82.09,-1144.76"/>
<polygon fill="black" stroke="black" points="78.59,-1144.82 82.09,-1154.82 85.59,-1144.82 78.59,-1144.82"/>
</a>
</g>
<text text-anchor="middle" x="85.59" y="-1125.8" font-family="Times,serif" font-size="14.00">2</text>
</g>
<!-- Bang9&#45;&gt;BangD8 -->
<g id="edge65" class="edge">
<title>Bang9&#45;&gt;BangD8</title>
<g id="a_edge65"><a xlink:title="yBf56">
<path fill="none" stroke="blue" d="M86.77,-1103.95C88.13,-1109.64 89.42,-1116.05 90.09,-1122 90.94,-1129.48 90.32,-1137.55 89.13,-1144.98"/>
<polygon fill="blue" stroke="blue" points="85.67,-1144.43 87.15,-1154.92 92.53,-1145.8 85.67,-1144.43"/>
</a>
</g>
<text text-anchor="middle" x="94.59" y="-1125.8" font-family="Times,serif" font-size="14.00">1</text>
</g>
<!-- Identity10 -->
<g id="node11" class="node">
<title>Identity10</title>
<ellipse fill="none" stroke="black" cx="168.09" cy="-1086" rx="38.19" ry="18"/>
<text text-anchor="middle" x="168.09" y="-1082.3" font-family="Times,serif" font-size="14.00">Identity</text>
</g>
<!-- PiL11 -->
<g id="node12" class="node">
<title>PiL11</title>
<ellipse fill="none" stroke="black" cx="137.09" cy="-999" rx="27" ry="18"/>
<text text-anchor="middle" x="137.09" y="-995.3" font-family="Times,serif" font-size="14.00">PiL</text>
</g>
<!-- PiL11&#45;&gt;Bang9 -->
<g id="edge11" class="edge">
<title>PiL11&#45;&gt;Bang9</title>
<g id="a_edge11"><a xlink:title="dseq54">
<path fill="none" stroke="black" d="M131.3,-1016.94C127.47,-1026.99 121.9,-1039.72 115.09,-1050 112.11,-1054.49 108.54,-1058.95 104.85,-1063.1"/>
<polygon fill="black" stroke="black" points="102.07,-1060.95 97.77,-1070.63 107.17,-1065.74 102.07,-1060.95"/>
</a>
</g>
<text text-anchor="middle" x="127.59" y="-1038.8" font-family="Times,serif" font-size="14.00">1</text>
</g>
<!-- PiL11&#45;&gt;Bang9 -->
<g id="edge34" class="edge">
<title>PiL11&#45;&gt;Bang9</title>
<g id="a_edge34"><a xlink:title="newrret52">
<path fill="none" stroke="red" d="M124.49,-1015.32C119.77,-1021.31 114.49,-1028.34 110.09,-1035 104.97,-1042.75 99.85,-1051.51 95.43,-1059.5"/>
<polygon fill="red" stroke="red" points="92.28,-1057.97 90.58,-1068.42 98.43,-1061.3 92.28,-1057.97"/>
</a>
</g>
<text text-anchor="middle" x="113.59" y="-1038.8" font-family="Times,serif" font-size="14.00">1</text>
</g>
<!-- PiL11&#45;&gt;Identity10 -->
<g id="edge21" class="edge">
<title>PiL11&#45;&gt;Identity10</title>
<g id="a_edge21"><a xlink:title="idseq55">
<path fill="none" stroke="black" d="M140.63,-1027.07C143.83,-1037.44 148.16,-1049.23 152.53,-1059.46"/>
<polygon fill="black" stroke="black" points="141.18,-1016.24 140.56,-1026.81 134.45,-1018.15 141.18,-1016.24"/>
<polygon fill="black" stroke="black" points="149.39,-1061.01 156.69,-1068.69 155.77,-1058.13 149.39,-1061.01"/>
</a>
</g>
</g>
<!-- PiL11&#45;&gt;Identity10 -->
<g id="edge26" class="edge">
<title>PiL11&#45;&gt;Identity10</title>
<g id="a_edge26"><a xlink:title="lret53">
<path fill="none" stroke="blue" d="M148.14,-1015.59C153.91,-1027.46 160.3,-1044.11 164.62,-1058.12"/>
<polygon fill="blue" stroke="blue" points="161.25,-1059.09 167.36,-1067.75 167.99,-1057.17 161.25,-1059.09"/>
</a>
</g>
</g>
<!-- PiR12 -->
<g id="node13" class="node">
<title>PiR12</title>
<ellipse fill="none" stroke="black" cx="281.09" cy="-679" rx="27" ry="18"/>
<text text-anchor="middle" x="281.09" y="-675.3" font-family="Times,serif" font-size="14.00">PiR</text>
</g>
<!-- PiR12&#45;&gt;Identity10 -->
<g id="edge45" class="edge">
<title>PiR12&#45;&gt;Identity10</title>
<g id="a_edge45"><a xlink:title="ret42">
<path fill="none" stroke="red" d="M254.88,-683.37C199.17,-691.26 74.09,-713.19 74.09,-751 74.09,-751 74.09,-751 74.09,-1000 74.09,-1024.46 80.03,-1032.47 97.09,-1050 105.7,-1058.84 117.02,-1065.79 128.07,-1071.08"/>
<polygon fill="red" stroke="red" points="126.67,-1074.29 137.24,-1075.14 129.51,-1067.89 126.67,-1074.29"/>
</a>
</g>
</g>
<!-- BangC33 -->
<g id="node34" class="node">
<title>BangC33</title>
<ellipse fill="none" stroke="black" cx="281.09" cy="-752" rx="35.19" ry="18"/>
<text text-anchor="middle" x="281.09" y="-748.3" font-family="Times,serif" font-size="14.00">BangC</text>
</g>
<!-- PiR12&#45;&gt;BangC33 -->
<g id="edge14" class="edge">
<title>PiR12&#45;&gt;BangC33</title>
<g id="a_edge14"><a xlink:title="h34">
<path fill="none" stroke="blue" d="M275.25,-696.82C274.39,-704.84 274.14,-714.63 274.5,-723.68"/>
<polygon fill="blue" stroke="blue" points="271.02,-724.07 275.21,-733.8 278.01,-723.58 271.02,-724.07"/>
</a>
</g>
</g>
<!-- PiR12&#45;&gt;BangC33 -->
<g id="edge48" class="edge">
<title>PiR12&#45;&gt;BangC33</title>
<g id="a_edge48"><a xlink:title="seq33">
<path fill="none" stroke="black" d="M286.93,-696.82C287.79,-704.84 288.04,-714.63 287.68,-723.68"/>
<polygon fill="black" stroke="black" points="284.18,-723.58 286.97,-733.8 291.16,-724.07 284.18,-723.58"/>
</a>
</g>
</g>
<!-- Identity13 -->
<g id="node14" class="node">
<title>Identity13</title>
<ellipse fill="none" stroke="black" cx="41.09" cy="-580" rx="38.19" ry="18"/>
<text text-anchor="middle" x="41.09" y="-576.3" font-family="Times,serif" font-size="14.00">Identity</text>
</g>
<!-- Identity14 -->
<g id="node15" class="node">
<title>Identity14</title>
<ellipse fill="none" stroke="black" cx="116.09" cy="-286" rx="38.19" ry="18"/>
<text text-anchor="middle" x="116.09" y="-282.3" font-family="Times,serif" font-size="14.00">Identity</text>
</g>
<!-- PiL15 -->
<g id="node16" class="node">
<title>PiL15</title>
<ellipse fill="none" stroke="black" cx="202.09" cy="-178" rx="27" ry="18"/>
<text text-anchor="middle" x="202.09" y="-174.3" font-family="Times,serif" font-size="14.00">PiL</text>
</g>
<!-- PiL15&#45;&gt;Identity14 -->
<g id="edge20" class="edge">
<title>PiL15&#45;&gt;Identity14</title>
<g id="a_edge20"><a xlink:title="idseq21">
<path fill="none" stroke="black" d="M179.29,-200.29C163.79,-217.52 143.97,-241.82 130.56,-259.98"/>
<polygon fill="black" stroke="black" points="188.69,-195.23 179.35,-200.22 183.54,-190.49 188.69,-195.23"/>
<polygon fill="black" stroke="black" points="127.54,-258.19 124.53,-268.35 133.22,-262.28 127.54,-258.19"/>
</a>
</g>
</g>
<!-- PiL15&#45;&gt;Identity14 -->
<g id="edge25" class="edge">
<title>PiL15&#45;&gt;Identity14</title>
<g id="a_edge25"><a xlink:title="lret19">
<path fill="none" stroke="blue" stroke-width="2" d="M193.72,-195.56C181.23,-213.45 158.21,-242.07 140.33,-262.11"/>
<polygon fill="blue" stroke="blue" stroke-width="2" points="137.67,-259.84 133.53,-269.59 142.85,-264.55 137.67,-259.84"/>
</a>
</g>
</g>
<!-- Bang22 -->
<g id="node23" class="node">
<title>Bang22</title>
<ellipse fill="none" stroke="black" cx="202.09" cy="-286" rx="29.5" ry="18"/>
<text text-anchor="middle" x="202.09" y="-282.3" font-family="Times,serif" font-size="14.00">Bang</text>
</g>
<!-- PiL15&#45;&gt;Bang22 -->
<g id="edge10" class="edge">
<title>PiL15&#45;&gt;Bang22</title>
<g id="a_edge10"><a xlink:title="dseq20">
<path fill="none" stroke="black" d="M202.09,-196.03C202.09,-212.62 202.09,-238.12 202.09,-257.57"/>
<polygon fill="black" stroke="black" points="198.59,-257.66 202.09,-267.66 205.59,-257.66 198.59,-257.66"/>
</a>
</g>
<text text-anchor="middle" x="205.59" y="-228.3" font-family="Times,serif" font-size="14.00">0</text>
</g>
<!-- PiL15&#45;&gt;Bang22 -->
<g id="edge33" class="edge">
<title>PiL15&#45;&gt;Bang22</title>
<g id="a_edge33"><a xlink:title="newrret18">
<path fill="none" stroke="red" d="M195.66,-195.84C193.8,-201.52 192.02,-207.96 191.09,-214 188.67,-229.81 188.67,-234.19 191.09,-250 191.51,-252.74 192.11,-255.56 192.81,-258.35"/>
<polygon fill="red" stroke="red" points="189.5,-259.53 195.66,-268.16 196.23,-257.58 189.5,-259.53"/>
</a>
</g>
<text text-anchor="middle" x="194.59" y="-228.3" font-family="Times,serif" font-size="14.00">0</text>
</g>
<!-- Assign16 -->
<g id="node17" class="node">
<title>Assign16</title>
<ellipse fill="none" stroke="black" cx="202.09" cy="-18" rx="35.19" ry="18"/>
<text text-anchor="middle" x="202.09" y="-14.3" font-family="Times,serif" font-size="14.00">Assign</text>
</g>
<!-- Assign16&#45;&gt;Identity14 -->
<g id="edge46" class="edge">
<title>Assign16&#45;&gt;Identity14</title>
<g id="a_edge46"><a xlink:title="ret8">
<path fill="none" stroke="red" stroke-width="2" d="M189.11,-35.13C181.4,-45.43 172.02,-59.36 166.09,-73 138.71,-136.04 125,-216.43 119.36,-257.76"/>
<polygon fill="red" stroke="red" stroke-width="2" points="115.86,-257.49 118.03,-267.86 122.8,-258.4 115.86,-257.49"/>
</a>
</g>
</g>
<!-- Cut19 -->
<g id="node20" class="node">
<title>Cut19</title>
<ellipse fill="none" stroke="black" cx="202.09" cy="-91" rx="27" ry="18"/>
<text text-anchor="middle" x="202.09" y="-87.3" font-family="Times,serif" font-size="14.00">Cut</text>
</g>
<!-- Assign16&#45;&gt;Cut19 -->
<g id="edge52" class="edge">
<title>Assign16&#45;&gt;Cut19</title>
<g id="a_edge52"><a xlink:title="seqBC94">
<path fill="none" stroke="black" d="M202.09,-36.19C202.09,-44.21 202.09,-53.95 202.09,-62.93"/>
<polygon fill="black" stroke="black" points="198.59,-62.97 202.09,-72.97 205.59,-62.97 198.59,-62.97"/>
</a>
</g>
</g>
<!-- Dup17 -->
<g id="node18" class="node">
<title>Dup17</title>
<ellipse fill="none" stroke="black" cx="281.09" cy="-580" rx="27" ry="18"/>
<text text-anchor="middle" x="281.09" y="-576.3" font-family="Times,serif" font-size="14.00">Dup</text>
</g>
<!-- Dup17&#45;&gt;PiR12 -->
<g id="edge3" class="edge">
<title>Dup17&#45;&gt;PiR12</title>
<g id="a_edge3"><a xlink:title="c_bseq32">
<path fill="none" stroke="black" d="M281.09,-598.34C281.09,-612.82 281.09,-633.73 281.09,-650.5"/>
<polygon fill="black" stroke="black" points="277.59,-650.8 281.09,-660.8 284.59,-650.8 277.59,-650.8"/>
</a>
</g>
<text text-anchor="middle" x="284.59" y="-631.8" font-family="Times,serif" font-size="14.00">1</text>
</g>
<!-- Dup18 -->
<g id="node19" class="node">
<title>Dup18</title>
<ellipse fill="none" stroke="black" cx="356.09" cy="-580" rx="26" ry="26"/>
<ellipse fill="none" stroke="black" cx="356.09" cy="-580" rx="30" ry="30"/>
<text text-anchor="middle" x="356.09" y="-576.3" font-family="Times,serif" font-size="14.00">Dup</text>
</g>
<!-- Dup18&#45;&gt;PiR12 -->
<g id="edge39" class="edge">
<title>Dup18&#45;&gt;PiR12</title>
<g id="a_edge39"><a xlink:title="newrretf31">
<path fill="none" stroke="red" d="M337.94,-604.48C326.16,-619.71 310.87,-639.48 299.12,-654.68"/>
<polygon fill="red" stroke="red" points="296.35,-652.54 293,-662.6 301.89,-656.83 296.35,-652.54"/>
</a>
</g>
<text text-anchor="middle" x="321.59" y="-631.8" font-family="Times,serif" font-size="14.00">1</text>
</g>
<!-- Cut19&#45;&gt;PiL15 -->
<g id="edge28" class="edge">
<title>Cut19&#45;&gt;PiL15</title>
<g id="a_edge28"><a xlink:title="lval14">
<path fill="none" stroke="blue" stroke-width="2" d="M196.59,-108.79C195.28,-120.55 195,-136.52 195.76,-150.04"/>
<polygon fill="blue" stroke="blue" stroke-width="2" points="192.29,-150.56 196.59,-160.24 199.27,-149.99 192.29,-150.56"/>
</a>
</g>
</g>
<!-- Cut19&#45;&gt;PiL15 -->
<g id="edge62" class="edge">
<title>Cut19&#45;&gt;PiL15</title>
<g id="a_edge62"><a xlink:title="xseq16">
<path fill="none" stroke="black" d="M208.43,-119C208.98,-128.94 208.98,-140.18 208.42,-150.11"/>
<polygon fill="black" stroke="black" points="211.08,-108.51 208.41,-118.76 204.11,-109.08 211.08,-108.51"/>
<polygon fill="black" stroke="black" points="204.92,-149.99 207.59,-160.24 211.89,-150.56 204.92,-149.99"/>
</a>
</g>
</g>
<!-- Lift20 -->
<g id="node21" class="node">
<title>Lift20</title>
<ellipse fill="none" stroke="black" cx="308.09" cy="-232" rx="27" ry="18"/>
<text text-anchor="middle" x="308.09" y="-228.3" font-family="Times,serif" font-size="14.00">Lift</text>
</g>
<!-- Cut19&#45;&gt;Lift20 -->
<g id="edge60" class="edge">
<title>Cut19&#45;&gt;Lift20</title>
<g id="a_edge60"><a xlink:title="seqDS95">
<path fill="none" stroke="black" d="M213.84,-107.41C232.31,-131.62 268.25,-178.76 290.02,-207.31"/>
<polygon fill="black" stroke="black" points="287.44,-209.7 296.29,-215.52 293.01,-205.45 287.44,-209.7"/>
</a>
</g>
<text text-anchor="middle" x="243.59" y="-130.8" font-family="Times,serif" font-size="14.00">0</text>
</g>
<!-- Lift21 -->
<g id="node22" class="node">
<title>Lift21</title>
<ellipse fill="none" stroke="black" cx="360.09" cy="-340" rx="27" ry="18"/>
<text text-anchor="middle" x="360.09" y="-336.3" font-family="Times,serif" font-size="14.00">Lift</text>
</g>
<!-- Cut19&#45;&gt;Lift21 -->
<g id="edge57" class="edge">
<title>Cut19&#45;&gt;Lift21</title>
<g id="a_edge57"><a xlink:title="seqDM96">
<path fill="none" stroke="red" stroke-width="2" d="M221.92,-103.24C252.68,-121.85 311.15,-162.23 338.09,-214 354.18,-244.92 358.79,-285.36 359.96,-311.75"/>
<polygon fill="red" stroke="red" stroke-width="2" points="356.46,-311.91 360.27,-321.79 363.46,-311.69 356.46,-311.91"/>
</a>
</g>
<text text-anchor="middle" x="329.59" y="-174.3" font-family="Times,serif" font-size="14.00">0</text>
</g>
<!-- Lift20&#45;&gt;Dup17 -->
<g id="edge7" class="edge">
<title>Lift20&#45;&gt;Dup17</title>
<g id="a_edge7"><a xlink:title="c_bseq86">
<path fill="none" stroke="black" d="M309.14,-250.25C310.33,-271.22 312.09,-307.69 312.09,-339 312.09,-339 312.09,-339 312.09,-482 312.09,-507.14 302.53,-534.28 294.02,-553.44"/>
<polygon fill="black" stroke="black" points="290.77,-552.14 289.73,-562.68 297.12,-555.09 290.77,-552.14"/>
</a>
</g>
<text text-anchor="middle" x="315.59" y="-390.3" font-family="Times,serif" font-size="14.00">1</text>
</g>
<!-- Lift21&#45;&gt;Dup18 -->
<g id="edge43" class="edge">
<title>Lift21&#45;&gt;Dup18</title>
<g id="a_edge43"><a xlink:title="newrretf87">
<path fill="none" stroke="red" stroke-width="2" d="M359.8,-358.12C359.17,-395.81 357.64,-486.81 356.76,-539.49"/>
<polygon fill="red" stroke="red" stroke-width="2" points="353.25,-539.75 356.58,-549.81 360.25,-539.87 353.25,-539.75"/>
</a>
</g>
<text text-anchor="middle" x="361.59" y="-433.8" font-family="Times,serif" font-size="14.00">1</text>
</g>
<!-- Bang22&#45;&gt;Identity13 -->
<g id="edge38" class="edge">
<title>Bang22&#45;&gt;Identity13</title>
<g id="a_edge38"><a xlink:title="newrretf23">
<path fill="none" stroke="red" d="M180.42,-298.13C137.29,-321.68 41.72,-381.16 5.09,-463 -8.5,-493.38 8.35,-530.39 23.27,-554.31"/>
<polygon fill="red" stroke="red" points="20.43,-556.35 28.83,-562.8 26.28,-552.51 20.43,-556.35"/>
</a>
</g>
<text text-anchor="middle" x="26.59" y="-433.8" font-family="Times,serif" font-size="14.00">1</text>
</g>
<!-- Cut23 -->
<g id="node24" class="node">
<title>Cut23</title>
<ellipse fill="none" stroke="black" cx="185.09" cy="-394" rx="27" ry="18"/>
<text text-anchor="middle" x="185.09" y="-390.3" font-family="Times,serif" font-size="14.00">Cut</text>
</g>
<!-- Bang22&#45;&gt;Cut23 -->
<g id="edge31" class="edge">
<title>Bang22&#45;&gt;Cut23</title>
<g id="a_edge31"><a xlink:title="newcut_bseq100">
<path fill="none" stroke="black" d="M199.36,-304.03C196.68,-320.72 192.56,-346.42 189.44,-365.92"/>
<polygon fill="black" stroke="black" points="185.94,-365.58 187.82,-376.01 192.86,-366.69 185.94,-365.58"/>
</a>
</g>
<text text-anchor="middle" x="200.59" y="-336.3" font-family="Times,serif" font-size="14.00">1</text>
</g>
<!-- Lift24 -->
<g id="node25" class="node">
<title>Lift24</title>
<ellipse fill="none" stroke="black" cx="41.09" cy="-481" rx="27" ry="18"/>
<text text-anchor="middle" x="41.09" y="-477.3" font-family="Times,serif" font-size="14.00">Lift</text>
</g>
<!-- Cut23&#45;&gt;Lift24 -->
<g id="edge53" class="edge">
<title>Cut23&#45;&gt;Lift24</title>
<g id="a_edge53"><a xlink:title="seqDD103">
<path fill="none" stroke="black" d="M156.7,-411.76C131.39,-426.7 94.56,-448.44 69.31,-463.34"/>
<polygon fill="black" stroke="black" points="167.15,-409.65 156.76,-411.72 163.59,-403.63 167.15,-409.65"/>
<polygon fill="black" stroke="black" points="67.41,-460.4 60.57,-468.5 70.97,-466.43 67.41,-460.4"/>
</a>
</g>
<text text-anchor="middle" x="125.59" y="-433.8" font-family="Times,serif" font-size="14.00">0</text>
</g>
<!-- Lift25 -->
<g id="node26" class="node">
<title>Lift25</title>
<ellipse fill="none" stroke="black" cx="185.09" cy="-481" rx="27" ry="18"/>
<text text-anchor="middle" x="185.09" y="-477.3" font-family="Times,serif" font-size="14.00">Lift</text>
</g>
<!-- Cut23&#45;&gt;Lift25 -->
<g id="edge58" class="edge">
<title>Cut23&#45;&gt;Lift25</title>
<g id="a_edge58"><a xlink:title="seqDS101">
<path fill="none" stroke="black" d="M185.09,-412.2C185.09,-423.84 185.09,-439.45 185.09,-452.76"/>
<polygon fill="black" stroke="black" points="181.59,-452.82 185.09,-462.82 188.59,-452.82 181.59,-452.82"/>
</a>
</g>
<text text-anchor="middle" x="188.59" y="-433.8" font-family="Times,serif" font-size="14.00">0</text>
</g>
<!-- Lift26 -->
<g id="node27" class="node">
<title>Lift26</title>
<ellipse fill="none" stroke="black" cx="113.09" cy="-481" rx="27" ry="18"/>
<text text-anchor="middle" x="113.09" y="-477.3" font-family="Times,serif" font-size="14.00">Lift</text>
</g>
<!-- Cut23&#45;&gt;Lift26 -->
<g id="edge54" class="edge">
<title>Cut23&#45;&gt;Lift26</title>
<g id="a_edge54"><a xlink:title="seqDE104">
<path fill="none" stroke="blue" d="M172.22,-410.2C161.16,-423.25 145.06,-442.26 132.45,-457.15"/>
<polygon fill="blue" stroke="blue" points="129.65,-455.04 125.85,-464.94 134.99,-459.57 129.65,-455.04"/>
</a>
</g>
<text text-anchor="middle" x="157.59" y="-433.8" font-family="Times,serif" font-size="14.00">0</text>
</g>
<!-- Lift27 -->
<g id="node28" class="node">
<title>Lift27</title>
<ellipse fill="none" stroke="black" cx="257.09" cy="-481" rx="27" ry="18"/>
<text text-anchor="middle" x="257.09" y="-477.3" font-family="Times,serif" font-size="14.00">Lift</text>
</g>
<!-- Cut23&#45;&gt;Lift27 -->
<g id="edge55" class="edge">
<title>Cut23&#45;&gt;Lift27</title>
<g id="a_edge55"><a xlink:title="seqDM102">
<path fill="none" stroke="red" d="M197.96,-410.2C209.02,-423.25 225.13,-442.26 237.74,-457.15"/>
<polygon fill="red" stroke="red" points="235.2,-459.57 244.33,-464.94 240.54,-455.04 235.2,-459.57"/>
</a>
</g>
<text text-anchor="middle" x="229.59" y="-433.8" font-family="Times,serif" font-size="14.00">0</text>
</g>
<!-- Lift24&#45;&gt;Identity13 -->
<g id="edge63" class="edge">
<title>Lift24&#45;&gt;Identity13</title>
<g id="a_edge63"><a xlink:title="xseq25">
<path fill="none" stroke="black" d="M41.09,-499.34C41.09,-513.82 41.09,-534.74 41.09,-551.5"/>
<polygon fill="black" stroke="black" points="37.59,-551.81 41.09,-561.81 44.59,-551.81 37.59,-551.81"/>
</a>
</g>
<text text-anchor="middle" x="44.59" y="-520.8" font-family="Times,serif" font-size="14.00">1</text>
</g>
<!-- Lift25&#45;&gt;Dup17 -->
<g id="edge8" class="edge">
<title>Lift25&#45;&gt;Dup17</title>
<g id="a_edge8"><a xlink:title="c_bseq90">
<path fill="none" stroke="black" d="M199.67,-496.73C215.55,-512.78 241.12,-538.61 259.37,-557.05"/>
<polygon fill="none" stroke="black" points="257.17,-559.8 266.69,-564.45 262.14,-554.88 257.17,-559.8"/>
</a>
</g>
<text text-anchor="middle" x="236.59" y="-520.8" font-family="Times,serif" font-size="14.00">1</text>
</g>
<!-- Lift26&#45;&gt;Identity13 -->
<g id="edge61" class="edge">
<title>Lift26&#45;&gt;Identity13</title>
<g id="a_edge61"><a xlink:title="xret26">
<path fill="none" stroke="blue" d="M101.52,-497.58C90.11,-512.96 72.5,-536.68 59.23,-554.56"/>
<polygon fill="blue" stroke="blue" points="56.26,-552.69 53.11,-562.81 61.88,-556.86 56.26,-552.69"/>
</a>
</g>
<text text-anchor="middle" x="89.59" y="-520.8" font-family="Times,serif" font-size="14.00">1</text>
</g>
<!-- Lift27&#45;&gt;Dup18 -->
<g id="edge44" class="edge">
<title>Lift27&#45;&gt;Dup18</title>
<g id="a_edge44"><a xlink:title="newrretf91">
<path fill="none" stroke="red" d="M271.7,-496.31C286.29,-510.61 309.11,-532.96 327.34,-550.83"/>
<polygon fill="none" stroke="red" points="325.24,-553.67 334.84,-558.17 330.14,-548.67 325.24,-553.67"/>
</a>
</g>
<text text-anchor="middle" x="309.59" y="-520.8" font-family="Times,serif" font-size="14.00">1</text>
</g>
<!-- Dup28 -->
<g id="node29" class="node">
<title>Dup28</title>
<ellipse fill="none" stroke="black" cx="377.09" cy="-1086" rx="27" ry="18"/>
<text text-anchor="middle" x="377.09" y="-1082.3" font-family="Times,serif" font-size="14.00">Dup</text>
</g>
<!-- Dup28&#45;&gt;BangD6 -->
<g id="edge5" class="edge">
<title>Dup28&#45;&gt;BangD6</title>
<g id="a_edge5"><a xlink:title="c_bseq67">
<path fill="none" stroke="black" d="M377.09,-1104.2C377.09,-1115.83 377.09,-1131.45 377.09,-1144.76"/>
<polygon fill="black" stroke="black" points="373.59,-1144.82 377.09,-1154.82 380.59,-1144.82 373.59,-1144.82"/>
</a>
</g>
<text text-anchor="middle" x="380.59" y="-1125.8" font-family="Times,serif" font-size="14.00">2</text>
</g>
<!-- Dup29 -->
<g id="node30" class="node">
<title>Dup29</title>
<ellipse fill="none" stroke="black" cx="303.09" cy="-1086" rx="27" ry="18"/>
<text text-anchor="middle" x="303.09" y="-1082.3" font-family="Times,serif" font-size="14.00">Dup</text>
</g>
<!-- Dup29&#45;&gt;Identity4 -->
<g id="edge41" class="edge">
<title>Dup29&#45;&gt;Identity4</title>
<g id="a_edge41"><a xlink:title="newrretf66">
<path fill="none" stroke="red" d="M304.4,-1103.99C307.79,-1147.89 316.87,-1265.4 321,-1318.85"/>
<polygon fill="red" stroke="red" points="317.52,-1319.24 321.78,-1328.94 324.49,-1318.7 317.52,-1319.24"/>
</a>
</g>
<text text-anchor="middle" x="316.59" y="-1212.8" font-family="Times,serif" font-size="14.00">2</text>
</g>
<!-- Dup30 -->
<g id="node31" class="node">
<title>Dup30</title>
<ellipse fill="none" stroke="black" cx="440.09" cy="-999" rx="27" ry="18"/>
<text text-anchor="middle" x="440.09" y="-995.3" font-family="Times,serif" font-size="14.00">Dup</text>
</g>
<!-- Dup30&#45;&gt;BangD6 -->
<g id="edge17" class="edge">
<title>Dup30&#45;&gt;BangD6</title>
<g id="a_edge17"><a xlink:title="hf65">
<path fill="none" stroke="blue" d="M436.96,-1016.94C432.81,-1037.85 424.64,-1074.26 413.09,-1104 407.43,-1118.58 399.41,-1134.06 392.38,-1146.55"/>
<polygon fill="blue" stroke="blue" points="389.2,-1145.05 387.25,-1155.47 395.27,-1148.54 389.2,-1145.05"/>
</a>
</g>
<text text-anchor="middle" x="427.59" y="-1082.3" font-family="Times,serif" font-size="14.00">1</text>
</g>
<!-- Bang31 -->
<g id="node32" class="node">
<title>Bang31</title>
<ellipse fill="none" stroke="black" cx="344.09" cy="-912" rx="29.5" ry="18"/>
<text text-anchor="middle" x="344.09" y="-908.3" font-family="Times,serif" font-size="14.00">Bang</text>
</g>
<!-- Bang31&#45;&gt;Dup28 -->
<g id="edge2" class="edge">
<title>Bang31&#45;&gt;Dup28</title>
<g id="a_edge2"><a xlink:title="c_bseq112">
<path fill="none" stroke="black" d="M351.63,-929.45C354.01,-935.21 356.45,-941.8 358.09,-948 367.98,-985.29 372.94,-1029.74 375.26,-1057.67"/>
<polygon fill="none" stroke="black" points="371.79,-1058.16 376.05,-1067.86 378.77,-1057.62 371.79,-1058.16"/>
</a>
</g>
<text text-anchor="middle" x="373.59" y="-995.3" font-family="Times,serif" font-size="14.00">2</text>
</g>
<!-- Bang31&#45;&gt;Dup29 -->
<g id="edge37" class="edge">
<title>Bang31&#45;&gt;Dup29</title>
<g id="a_edge37"><a xlink:title="newrretf114">
<path fill="none" stroke="red" d="M340.01,-930.12C332.86,-960.12 318.01,-1022.42 309.48,-1058.18"/>
<polygon fill="none" stroke="red" points="306.07,-1057.4 307.16,-1067.94 312.88,-1059.03 306.07,-1057.4"/>
</a>
</g>
<text text-anchor="middle" x="330.59" y="-995.3" font-family="Times,serif" font-size="14.00">2</text>
</g>
<!-- Bang31&#45;&gt;Dup30 -->
<g id="edge16" class="edge">
<title>Bang31&#45;&gt;Dup30</title>
<g id="a_edge16"><a xlink:title="hf113">
<path fill="none" stroke="blue" d="M365.11,-924.62C375.55,-930.87 388.05,-939.12 398.09,-948 406.98,-955.84 415.61,-965.63 422.72,-974.45"/>
<polygon fill="none" stroke="blue" points="420.11,-976.79 429.02,-982.52 425.63,-972.49 420.11,-976.79"/>
</a>
</g>
<text text-anchor="middle" x="414.59" y="-951.8" font-family="Times,serif" font-size="14.00">1</text>
</g>
<!-- Cut32 -->
<g id="node33" class="node">
<title>Cut32</title>
<ellipse fill="none" stroke="black" cx="281.09" cy="-825" rx="27" ry="18"/>
<text text-anchor="middle" x="281.09" y="-821.3" font-family="Times,serif" font-size="14.00">Cut</text>
</g>
<!-- Cut32&#45;&gt;Bang9 -->
<g id="edge64" class="edge">
<title>Cut32&#45;&gt;Bang9</title>
<g id="a_edge64"><a xlink:title="yB44">
<path fill="none" stroke="blue" d="M257.35,-834.12C209.5,-851.94 102.47,-899.5 60.09,-981 45.94,-1008.2 51.6,-1020.53 60.09,-1050 61.15,-1053.66 62.71,-1057.31 64.53,-1060.79"/>
<polygon fill="blue" stroke="blue" points="61.62,-1062.74 69.75,-1069.53 67.62,-1059.15 61.62,-1062.74"/>
</a>
</g>
<text text-anchor="middle" x="85.59" y="-951.8" font-family="Times,serif" font-size="14.00">1</text>
</g>
<!-- Cut32&#45;&gt;Bang31 -->
<g id="edge9" class="edge">
<title>Cut32&#45;&gt;Bang31</title>
<g id="a_edge9"><a xlink:title="dseq115">
<path fill="none" stroke="black" d="M282.95,-842.97C284.75,-853.27 288.26,-866.25 295.09,-876 299.9,-882.86 306.51,-888.85 313.31,-893.85"/>
<polygon fill="black" stroke="black" points="311.66,-896.96 321.91,-899.64 315.57,-891.15 311.66,-896.96"/>
</a>
</g>
<text text-anchor="middle" x="298.59" y="-864.8" font-family="Times,serif" font-size="14.00">1</text>
</g>
<!-- Cut32&#45;&gt;Bang31 -->
<g id="edge32" class="edge">
<title>Cut32&#45;&gt;Bang31</title>
<g id="a_edge32"><a xlink:title="newrret117">
<path fill="none" stroke="red" d="M292.65,-841.59C302.09,-854.33 315.6,-872.55 326.4,-887.12"/>
<polygon fill="red" stroke="red" points="323.63,-889.27 332.4,-895.22 329.25,-885.1 323.63,-889.27"/>
</a>
</g>
<text text-anchor="middle" x="319.59" y="-864.8" font-family="Times,serif" font-size="14.00">1</text>
</g>
<!-- Cut34 -->
<g id="node35" class="node">
<title>Cut34</title>
<ellipse fill="none" stroke="black" cx="259.09" cy="-912" rx="27" ry="18"/>
<text text-anchor="middle" x="259.09" y="-908.3" font-family="Times,serif" font-size="14.00">Cut</text>
</g>
<!-- Cut32&#45;&gt;Cut34 -->
<g id="edge51" class="edge">
<title>Cut32&#45;&gt;Cut34</title>
<g id="a_edge51"><a xlink:title="seqBC118">
<path fill="none" stroke="black" d="M274.23,-852.52C271.63,-862.56 268.67,-873.98 266.06,-884.05"/>
<polygon fill="black" stroke="black" points="280.13,-843.67 274.24,-852.47 273.36,-841.91 280.13,-843.67"/>
<polygon fill="black" stroke="black" points="262.62,-883.39 263.5,-893.95 269.4,-885.14 262.62,-883.39"/>
</a>
</g>
</g>
<!-- BangC33&#45;&gt;Dup30 -->
<g id="edge15" class="edge">
<title>BangC33&#45;&gt;Dup30</title>
<g id="a_edge15"><a xlink:title="hf107">
<path fill="none" stroke="blue" d="M299.96,-767.38C312.41,-777.52 328.49,-791.92 340.09,-807 384.31,-864.44 391.47,-882.29 422.09,-948 425.56,-955.44 428.79,-963.75 431.53,-971.42"/>
<polygon fill="blue" stroke="blue" points="428.27,-972.7 434.83,-981.02 434.89,-970.43 428.27,-972.7"/>
</a>
</g>
<text text-anchor="middle" x="389.59" y="-864.8" font-family="Times,serif" font-size="14.00">1</text>
</g>
<!-- BangC33&#45;&gt;Bang31 -->
<g id="edge13" class="edge">
<title>BangC33&#45;&gt;Bang31</title>
<g id="a_edge13"><a xlink:title="h116">
<path fill="none" stroke="blue" d="M299.96,-777.53C306.12,-786.43 312.53,-796.81 317.09,-807 328.24,-831.9 335.47,-862.3 339.61,-883.79"/>
<polygon fill="blue" stroke="blue" points="296.81,-767.14 299.8,-777.3 291.13,-771.22 296.81,-767.14"/>
<polygon fill="blue" stroke="blue" points="336.21,-884.63 341.45,-893.84 343.09,-883.37 336.21,-884.63"/>
</a>
</g>
<text text-anchor="middle" x="332.59" y="-821.3" font-family="Times,serif" font-size="14.00">1</text>
</g>
<!-- BangC33&#45;&gt;Cut32 -->
<g id="edge50" class="edge">
<title>BangC33&#45;&gt;Cut32</title>
<g id="a_edge50"><a xlink:title="seqBB119">
<path fill="none" stroke="black" d="M281.09,-770.18C281.09,-778.21 281.09,-787.95 281.09,-796.93"/>
<polygon fill="black" stroke="black" points="277.59,-796.97 281.09,-806.97 284.59,-796.97 277.59,-796.97"/>
</a>
</g>
</g>
<!-- Cut34&#45;&gt;PiL11 -->
<g id="edge29" class="edge">
<title>Cut34&#45;&gt;PiL11</title>
<g id="a_edge29"><a xlink:title="lval48">
<path fill="none" stroke="blue" d="M238.69,-923.93C216.9,-937.53 182.83,-961 160.12,-977.88"/>
<polygon fill="blue" stroke="blue" points="157.9,-975.18 152.03,-983.99 162.12,-980.76 157.9,-975.18"/>
</a>
</g>
</g>
<!-- Cut34&#45;&gt;PiL11 -->
<g id="edge67" class="edge">
<title>Cut34&#45;&gt;PiL11</title>
<g id="a_edge67"><a xlink:title="yseq50">
<path fill="none" stroke="black" d="M236.04,-933.12C216.24,-947.84 187.81,-967.57 166.41,-981.39"/>
<polygon fill="black" stroke="black" points="246.22,-929.83 236.13,-933.06 242,-924.24 246.22,-929.83"/>
<polygon fill="black" stroke="black" points="164.27,-978.6 157.71,-986.92 168.03,-984.51 164.27,-978.6"/>
</a>
</g>
</g>
<!-- Lift35 -->
<g id="node36" class="node">
<title>Lift35</title>
<ellipse fill="none" stroke="black" cx="281.09" cy="-999" rx="27" ry="18"/>
<text text-anchor="middle" x="281.09" y="-995.3" font-family="Times,serif" font-size="14.00">Lift</text>
</g>
<!-- Cut34&#45;&gt;Lift35 -->
<g id="edge59" class="edge">
<title>Cut34&#45;&gt;Lift35</title>
<g id="a_edge59"><a xlink:title="seqDS120">
<path fill="none" stroke="black" d="M263.44,-929.79C266.49,-941.59 270.64,-957.62 274.15,-971.17"/>
<polygon fill="black" stroke="black" points="270.79,-972.14 276.68,-980.95 277.56,-970.39 270.79,-972.14"/>
</a>
</g>
<text text-anchor="middle" x="275.59" y="-951.8" font-family="Times,serif" font-size="14.00">1</text>
</g>
<!-- Lift36 -->
<g id="node37" class="node">
<title>Lift36</title>
<ellipse fill="none" stroke="black" cx="209.09" cy="-999" rx="27" ry="18"/>
<text text-anchor="middle" x="209.09" y="-995.3" font-family="Times,serif" font-size="14.00">Lift</text>
</g>
<!-- Cut34&#45;&gt;Lift36 -->
<g id="edge56" class="edge">
<title>Cut34&#45;&gt;Lift36</title>
<g id="a_edge56"><a xlink:title="seqDM121">
<path fill="none" stroke="red" d="M249.69,-928.98C242.35,-941.45 232.04,-958.98 223.64,-973.26"/>
<polygon fill="red" stroke="red" points="220.51,-971.69 218.45,-982.08 226.54,-975.23 220.51,-971.69"/>
</a>
</g>
<text text-anchor="middle" x="240.59" y="-951.8" font-family="Times,serif" font-size="14.00">1</text>
</g>
<!-- Lift35&#45;&gt;Dup28 -->
<g id="edge1" class="edge">
<title>Lift35&#45;&gt;Dup28</title>
<g id="a_edge1"><a xlink:title="c_bseq106">
<path fill="none" stroke="black" d="M296.94,-1014.03C312.46,-1027.77 336.27,-1048.85 353.92,-1064.47"/>
<polygon fill="black" stroke="black" points="351.73,-1067.21 361.53,-1071.22 356.37,-1061.97 351.73,-1067.21"/>
</a>
</g>
<text text-anchor="middle" x="337.59" y="-1038.8" font-family="Times,serif" font-size="14.00">2</text>
</g>
<!-- Lift36&#45;&gt;Dup29 -->
<g id="edge36" class="edge">
<title>Lift36&#45;&gt;Dup29</title>
<g id="a_edge36"><a xlink:title="newrretf108">
<path fill="none" stroke="red" d="M224.61,-1014.03C239.72,-1027.69 262.85,-1048.6 280.09,-1064.2"/>
<polygon fill="red" stroke="red" points="277.78,-1066.83 287.55,-1070.94 282.48,-1061.64 277.78,-1066.83"/>
</a>
</g>
<text text-anchor="middle" x="265.59" y="-1038.8" font-family="Times,serif" font-size="14.00">2</text>
</g>
</g>
</svg>
