<?xml version="1.0" encoding="UTF-8" standalone="no"?>
<!DOCTYPE svg PUBLIC "-//W3C//DTD SVG 1.1//EN"
 "http://www.w3.org/Graphics/SVG/1.1/DTD/svg11.dtd">
<!-- Generated by graphviz version 2.43.0 (0)
 -->
<!-- Title: %3 Pages: 1 -->
<svg width="380pt" height="1442pt"
 viewBox="0.00 0.00 380.00 1442.49" xmlns="http://www.w3.org/2000/svg" xmlns:xlink="http://www.w3.org/1999/xlink">
<g id="graph0" class="graph" transform="scale(1 1) rotate(0) translate(4 1438.49)">
<title>%3</title>
<polygon fill="white" stroke="transparent" points="-4,4 -4,-1438.49 376,-1438.49 376,4 -4,4"/>
<!-- Root0 -->
<g id="node1" class="node">
<title>Root0</title>
<ellipse fill="none" stroke="black" cx="341" cy="-1416.49" rx="30.59" ry="18"/>
<text text-anchor="middle" x="341" y="-1412.79" font-family="Times-Roman" font-size="14.00">Root</text>
</g>
<!-- Dup2_1 -->
<g id="node28" class="node">
<title>Dup2_1</title>
<ellipse fill="none" stroke="black" cx="341" cy="-1344.49" rx="29.5" ry="18"/>
<text text-anchor="middle" x="341" y="-1340.79" font-family="Times-Roman" font-size="14.00">Dup</text>
</g>
<!-- Root0&#45;&gt;Dup2_1 -->
<g id="edge37" class="edge">
<title>Root0&#45;&gt;Dup2_1</title>
<g id="a_edge37"><a xlink:title="rettop">
<path fill="none" stroke="red" stroke-width="2" d="M341,-1398.19C341,-1389.88 341,-1379.77 341,-1370.64"/>
<ellipse fill="red" stroke="red" stroke-width="2" cx="341" cy="-1366.6" rx="4" ry="4"/>
</a>
</g>
</g>
<!-- !p0 -->
<g id="node2" class="node">
<title>!p0</title>
<ellipse fill="none" stroke="black" cx="169" cy="-594" rx="27" ry="18"/>
<text text-anchor="middle" x="169" y="-590.3" font-family="Times-Roman" font-size="14.00">!p</text>
</g>
<!-- PiR0 -->
<g id="node4" class="node">
<title>PiR0</title>
<ellipse fill="none" stroke="black" cx="169" cy="-522" rx="27" ry="18"/>
<text text-anchor="middle" x="169" y="-518.3" font-family="Times-Roman" font-size="14.00">PiR</text>
</g>
<!-- !p0&#45;&gt;PiR0 -->
<g id="edge19" class="edge">
<title>!p0&#45;&gt;PiR0</title>
<g id="a_edge19"><a xlink:title="e39">
<path fill="none" stroke="red" d="M169,-575.7C169,-567.98 169,-558.71 169,-550.11"/>
<polygon fill="red" stroke="red" points="172.5,-550.1 169,-540.1 165.5,-550.1 172.5,-550.1"/>
</a>
</g>
</g>
<!-- Cut0 -->
<g id="node3" class="node">
<title>Cut0</title>
<ellipse fill="none" stroke="black" cx="178" cy="-666" rx="27" ry="18"/>
<text text-anchor="middle" x="178" y="-662.3" font-family="Times-Roman" font-size="14.00">Cut</text>
</g>
<!-- Cut0&#45;&gt;!p0 -->
<g id="edge18" class="edge">
<title>Cut0&#45;&gt;!p0</title>
<g id="a_edge18"><a xlink:title="e37">
<path fill="none" stroke="red" d="M175.82,-648.05C174.83,-640.35 173.63,-631.03 172.52,-622.36"/>
<polygon fill="red" stroke="red" points="175.97,-621.75 171.22,-612.28 169.02,-622.64 175.97,-621.75"/>
</a>
</g>
</g>
<!-- I0 -->
<g id="node9" class="node">
<title>I0</title>
<ellipse fill="none" stroke="black" cx="172" cy="-450" rx="27" ry="18"/>
<text text-anchor="middle" x="172" y="-446.3" font-family="Times-Roman" font-size="14.00">I</text>
</g>
<!-- PiR0&#45;&gt;I0 -->
<g id="edge21" class="edge">
<title>PiR0&#45;&gt;I0</title>
<g id="a_edge21"><a xlink:title="e43">
<path fill="none" stroke="red" d="M169.74,-503.7C170.07,-495.98 170.47,-486.71 170.84,-478.11"/>
<polygon fill="red" stroke="red" points="174.34,-478.25 171.27,-468.1 167.34,-477.95 174.34,-478.25"/>
</a>
</g>
</g>
<!-- !c0 -->
<g id="node5" class="node">
<title>!c0</title>
<ellipse fill="none" stroke="black" cx="152" cy="-18" rx="27" ry="18"/>
<text text-anchor="middle" x="152" y="-14.3" font-family="Times-Roman" font-size="14.00">!c</text>
</g>
<!-- !c0&#45;&gt;PiR0 -->
<g id="edge20" class="edge">
<title>!c0&#45;&gt;PiR0</title>
<g id="a_edge20"><a xlink:title="e41">
<path fill="none" stroke="blue" d="M139.3,-44.53C126.62,-72.43 109,-118.79 109,-161 109,-379 109,-379 109,-379 109,-428.24 140,-480.06 157.43,-505.31"/>
<polygon fill="blue" stroke="blue" points="142.63,-45.67 143.71,-35.13 136.3,-42.7 142.63,-45.67"/>
</a>
</g>
</g>
<!-- !d0 -->
<g id="node6" class="node">
<title>!d0</title>
<ellipse fill="none" stroke="black" cx="183" cy="-162" rx="27" ry="18"/>
<text text-anchor="middle" x="183" y="-158.3" font-family="Times-Roman" font-size="14.00">!d</text>
</g>
<!-- !d0&#45;&gt;!c0 -->
<g id="edge22" class="edge">
<title>!d0&#45;&gt;!c0</title>
<g id="a_edge22"><a xlink:title="e46">
<path fill="none" stroke="blue" d="M176.79,-133.89C174.91,-125.59 172.85,-116.42 171,-108 165.5,-83 159.35,-54 155.58,-36.08"/>
<polygon fill="blue" stroke="blue" points="173.42,-134.85 179.06,-143.83 180.25,-133.3 173.42,-134.85"/>
</a>
</g>
</g>
<!-- PiL0 -->
<g id="node7" class="node">
<title>PiL0</title>
<ellipse fill="none" stroke="black" cx="191" cy="-306" rx="27" ry="18"/>
<text text-anchor="middle" x="191" y="-302.3" font-family="Times-Roman" font-size="14.00">PiL</text>
</g>
<!-- PiL0&#45;&gt;!d0 -->
<g id="edge24" class="edge">
<title>PiL0&#45;&gt;!d0</title>
<g id="a_edge24"><a xlink:title="e49">
<path fill="none" stroke="blue" d="M197.3,-278.02C200.56,-260.33 203.24,-236.71 200,-216 198.06,-203.59 193.7,-190.12 189.89,-179.86"/>
<polygon fill="blue" stroke="blue" points="193.8,-277.7 195.25,-288.2 200.66,-279.09 193.8,-277.7"/>
</a>
</g>
</g>
<!-- !p1 -->
<g id="node10" class="node">
<title>!p1</title>
<ellipse fill="none" stroke="black" cx="164" cy="-234" rx="27" ry="18"/>
<text text-anchor="middle" x="164" y="-230.3" font-family="Times-Roman" font-size="14.00">!p</text>
</g>
<!-- PiL0&#45;&gt;!p1 -->
<g id="edge26" class="edge">
<title>PiL0&#45;&gt;!p1</title>
<g id="a_edge26"><a xlink:title="e53">
<path fill="none" stroke="red" d="M184.6,-288.41C181.49,-280.34 177.67,-270.43 174.17,-261.35"/>
<polygon fill="red" stroke="red" points="177.4,-260.03 170.54,-251.96 170.87,-262.55 177.4,-260.03"/>
</a>
</g>
</g>
<!-- PiL1 -->
<g id="node8" class="node">
<title>PiL1</title>
<ellipse fill="none" stroke="black" cx="191" cy="-378" rx="27" ry="18"/>
<text text-anchor="middle" x="191" y="-374.3" font-family="Times-Roman" font-size="14.00">PiL</text>
</g>
<!-- PiL1&#45;&gt;PiL0 -->
<g id="edge25" class="edge">
<title>PiL1&#45;&gt;PiL0</title>
<g id="a_edge25"><a xlink:title="e51">
<path fill="none" stroke="blue" d="M191,-349.67C191,-341.05 191,-331.79 191,-324.1"/>
<polygon fill="blue" stroke="blue" points="187.5,-349.7 191,-359.7 194.5,-349.7 187.5,-349.7"/>
</a>
</g>
</g>
<!-- !p3 -->
<g id="node15" class="node">
<title>!p3</title>
<ellipse fill="none" stroke="black" cx="272" cy="-306" rx="27" ry="18"/>
<text text-anchor="middle" x="272" y="-302.3" font-family="Times-Roman" font-size="14.00">!p</text>
</g>
<!-- PiL1&#45;&gt;!p3 -->
<g id="edge28" class="edge">
<title>PiL1&#45;&gt;!p3</title>
<g id="a_edge28"><a xlink:title="e57">
<path fill="none" stroke="red" d="M207,-363.17C218.76,-353.01 234.94,-339.03 248.21,-327.56"/>
<polygon fill="red" stroke="red" points="250.75,-329.99 256.03,-320.8 246.18,-324.69 250.75,-329.99"/>
</a>
</g>
</g>
<!-- I0&#45;&gt;PiL1 -->
<g id="edge27" class="edge">
<title>I0&#45;&gt;PiL1</title>
<g id="a_edge27"><a xlink:title="e55">
<path fill="none" stroke="blue" d="M179.29,-422.14C181.7,-413.28 184.3,-403.68 186.44,-395.79"/>
<polygon fill="blue" stroke="blue" points="175.84,-421.49 176.6,-432.05 182.6,-423.32 175.84,-421.49"/>
</a>
</g>
</g>
<!-- PiR1 -->
<g id="node11" class="node">
<title>PiR1</title>
<ellipse fill="none" stroke="black" cx="54" cy="-162" rx="27" ry="18"/>
<text text-anchor="middle" x="54" y="-158.3" font-family="Times-Roman" font-size="14.00">PiR</text>
</g>
<!-- !p1&#45;&gt;PiR1 -->
<g id="edge29" class="edge">
<title>!p1&#45;&gt;PiR1</title>
<g id="a_edge29"><a xlink:title="e85">
<path fill="none" stroke="red" d="M144.84,-220.81C127.33,-209.67 101.24,-193.06 81.51,-180.5"/>
<polygon fill="red" stroke="red" points="83.26,-177.47 72.94,-175.05 79.5,-183.37 83.26,-177.47"/>
</a>
</g>
</g>
<!-- I1 -->
<g id="node13" class="node">
<title>I1</title>
<ellipse fill="none" stroke="black" cx="54" cy="-90" rx="27" ry="18"/>
<text text-anchor="middle" x="54" y="-86.3" font-family="Times-Roman" font-size="14.00">I</text>
</g>
<!-- PiR1&#45;&gt;I1 -->
<g id="edge31" class="edge">
<title>PiR1&#45;&gt;I1</title>
<g id="a_edge31"><a xlink:title="e89">
<path fill="none" stroke="red" d="M54,-143.7C54,-135.98 54,-126.71 54,-118.11"/>
<polygon fill="red" stroke="red" points="57.5,-118.1 54,-108.1 50.5,-118.1 57.5,-118.1"/>
</a>
</g>
</g>
<!-- !d1 -->
<g id="node12" class="node">
<title>!d1</title>
<ellipse fill="none" stroke="black" cx="27" cy="-18" rx="27" ry="18"/>
<text text-anchor="middle" x="27" y="-14.3" font-family="Times-Roman" font-size="14.00">!d</text>
</g>
<!-- !d1&#45;&gt;PiR1 -->
<g id="edge30" class="edge">
<title>!d1&#45;&gt;PiR1</title>
<g id="a_edge30"><a xlink:title="e87">
<path fill="none" stroke="blue" d="M18.93,-45.59C14.77,-63.57 11.74,-87.65 18,-108 22.38,-122.25 32.04,-136.1 40.25,-146.07"/>
<polygon fill="blue" stroke="blue" points="22.35,-46.35 21.45,-35.79 15.57,-44.6 22.35,-46.35"/>
</a>
</g>
</g>
<!-- I1&#45;&gt;!d1 -->
<g id="edge32" class="edge">
<title>I1&#45;&gt;!d1</title>
<g id="a_edge32"><a xlink:title="e91">
<path fill="none" stroke="blue" d="M43.99,-63.06C40.5,-54.01 36.68,-44.09 33.54,-35.96"/>
<polygon fill="blue" stroke="blue" points="40.74,-64.34 47.6,-72.41 47.27,-61.82 40.74,-64.34"/>
</a>
</g>
</g>
<!-- !p2 -->
<g id="node14" class="node">
<title>!p2</title>
<ellipse fill="none" stroke="black" cx="274" cy="-954" rx="27" ry="18"/>
<text text-anchor="middle" x="274" y="-950.3" font-family="Times-Roman" font-size="14.00">!p</text>
</g>
<!-- I2 -->
<g id="node18" class="node">
<title>I2</title>
<ellipse fill="none" stroke="black" cx="274" cy="-882" rx="27" ry="18"/>
<text text-anchor="middle" x="274" y="-878.3" font-family="Times-Roman" font-size="14.00">I</text>
</g>
<!-- !p2&#45;&gt;I2 -->
<g id="edge33" class="edge">
<title>!p2&#45;&gt;I2</title>
<g id="a_edge33"><a xlink:title="e92">
<path fill="none" stroke="red" d="M274,-935.7C274,-927.98 274,-918.71 274,-910.11"/>
<polygon fill="red" stroke="red" points="277.5,-910.1 274,-900.1 270.5,-910.1 277.5,-910.1"/>
</a>
</g>
</g>
<!-- I3 -->
<g id="node21" class="node">
<title>I3</title>
<ellipse fill="none" stroke="black" cx="274" cy="-234" rx="27" ry="18"/>
<text text-anchor="middle" x="274" y="-230.3" font-family="Times-Roman" font-size="14.00">I</text>
</g>
<!-- !p3&#45;&gt;I3 -->
<g id="edge34" class="edge">
<title>!p3&#45;&gt;I3</title>
<g id="a_edge34"><a xlink:title="e95">
<path fill="none" stroke="red" d="M272.49,-287.7C272.71,-279.98 272.98,-270.71 273.23,-262.11"/>
<polygon fill="red" stroke="red" points="276.72,-262.2 273.51,-252.1 269.73,-262 276.72,-262.2"/>
</a>
</g>
</g>
<!-- !d2 -->
<g id="node16" class="node">
<title>!d2</title>
<ellipse fill="none" stroke="black" cx="197" cy="-738" rx="27" ry="18"/>
<text text-anchor="middle" x="197" y="-734.3" font-family="Times-Roman" font-size="14.00">!d</text>
</g>
<!-- !d2&#45;&gt;Cut0 -->
<g id="edge16" class="edge">
<title>!d2&#45;&gt;Cut0</title>
<g id="a_edge16"><a xlink:title="e23">
<path fill="none" stroke="blue" d="M189.71,-710.14C187.3,-701.28 184.7,-691.68 182.56,-683.79"/>
<polygon fill="blue" stroke="blue" points="186.4,-711.32 192.4,-720.05 193.16,-709.49 186.4,-711.32"/>
</a>
</g>
</g>
<!-- PiL2 -->
<g id="node17" class="node">
<title>PiL2</title>
<ellipse fill="none" stroke="black" cx="274" cy="-810" rx="27" ry="18"/>
<text text-anchor="middle" x="274" y="-806.3" font-family="Times-Roman" font-size="14.00">PiL</text>
</g>
<!-- PiL2&#45;&gt;!d2 -->
<g id="edge35" class="edge">
<title>PiL2&#45;&gt;!d2</title>
<g id="a_edge35"><a xlink:title="e96">
<path fill="none" stroke="blue" d="M250.67,-787.79C238.22,-776.48 223.26,-762.87 212.3,-752.91"/>
<polygon fill="blue" stroke="blue" points="248.66,-790.7 258.42,-794.83 253.37,-785.52 248.66,-790.7"/>
</a>
</g>
</g>
<!-- !p4 -->
<g id="node22" class="node">
<title>!p4</title>
<ellipse fill="none" stroke="black" cx="274" cy="-738" rx="27" ry="18"/>
<text text-anchor="middle" x="274" y="-734.3" font-family="Times-Roman" font-size="14.00">!p</text>
</g>
<!-- PiL2&#45;&gt;!p4 -->
<g id="edge1" class="edge">
<title>PiL2&#45;&gt;!p4</title>
<g id="a_edge1"><a xlink:title="e100">
<path fill="none" stroke="red" d="M274,-791.7C274,-783.98 274,-774.71 274,-766.11"/>
<polygon fill="red" stroke="red" points="277.5,-766.1 274,-756.1 270.5,-766.1 277.5,-766.1"/>
</a>
</g>
</g>
<!-- I2&#45;&gt;PiL2 -->
<g id="edge36" class="edge">
<title>I2&#45;&gt;PiL2</title>
<g id="a_edge36"><a xlink:title="e98">
<path fill="none" stroke="blue" d="M274,-853.67C274,-845.05 274,-835.79 274,-828.1"/>
<polygon fill="blue" stroke="blue" points="270.5,-853.7 274,-863.7 277.5,-853.7 270.5,-853.7"/>
</a>
</g>
</g>
<!-- !d3 -->
<g id="node19" class="node">
<title>!d3</title>
<ellipse fill="none" stroke="black" cx="207" cy="-90" rx="27" ry="18"/>
<text text-anchor="middle" x="207" y="-86.3" font-family="Times-Roman" font-size="14.00">!d</text>
</g>
<!-- !d3&#45;&gt;!c0 -->
<g id="edge23" class="edge">
<title>!d3&#45;&gt;!c0</title>
<g id="a_edge23"><a xlink:title="e47">
<path fill="none" stroke="blue" d="M188.83,-65.87C180.63,-55.44 171.19,-43.42 163.91,-34.16"/>
<polygon fill="blue" stroke="blue" points="186.14,-68.11 195.07,-73.81 191.64,-63.79 186.14,-68.11"/>
</a>
</g>
</g>
<!-- PiL3 -->
<g id="node20" class="node">
<title>PiL3</title>
<ellipse fill="none" stroke="black" cx="274" cy="-162" rx="27" ry="18"/>
<text text-anchor="middle" x="274" y="-158.3" font-family="Times-Roman" font-size="14.00">PiL</text>
</g>
<!-- PiL3&#45;&gt;!d3 -->
<g id="edge2" class="edge">
<title>PiL3&#45;&gt;!d3</title>
<g id="a_edge2"><a xlink:title="e103">
<path fill="none" stroke="blue" d="M252.91,-138.96C242.45,-128.04 230.11,-115.15 220.86,-105.49"/>
<polygon fill="blue" stroke="blue" points="250.67,-141.69 260.12,-146.5 255.73,-136.85 250.67,-141.69"/>
</a>
</g>
</g>
<!-- !p5 -->
<g id="node23" class="node">
<title>!p5</title>
<ellipse fill="none" stroke="black" cx="279" cy="-90" rx="27" ry="18"/>
<text text-anchor="middle" x="279" y="-86.3" font-family="Times-Roman" font-size="14.00">!p</text>
</g>
<!-- PiL3&#45;&gt;!p5 -->
<g id="edge4" class="edge">
<title>PiL3&#45;&gt;!p5</title>
<g id="a_edge4"><a xlink:title="e107">
<path fill="none" stroke="red" d="M275.24,-143.7C275.79,-135.98 276.45,-126.71 277.06,-118.11"/>
<polygon fill="red" stroke="red" points="280.56,-118.33 277.78,-108.1 273.57,-117.83 280.56,-118.33"/>
</a>
</g>
</g>
<!-- I3&#45;&gt;PiL3 -->
<g id="edge3" class="edge">
<title>I3&#45;&gt;PiL3</title>
<g id="a_edge3"><a xlink:title="e105">
<path fill="none" stroke="blue" d="M274,-205.67C274,-197.05 274,-187.79 274,-180.1"/>
<polygon fill="blue" stroke="blue" points="270.5,-205.7 274,-215.7 277.5,-205.7 270.5,-205.7"/>
</a>
</g>
</g>
<!-- PiR2 -->
<g id="node24" class="node">
<title>PiR2</title>
<ellipse fill="none" stroke="black" cx="274" cy="-666" rx="27" ry="18"/>
<text text-anchor="middle" x="274" y="-662.3" font-family="Times-Roman" font-size="14.00">PiR</text>
</g>
<!-- !p4&#45;&gt;PiR2 -->
<g id="edge5" class="edge">
<title>!p4&#45;&gt;PiR2</title>
<g id="a_edge5"><a xlink:title="e108">
<path fill="none" stroke="red" d="M274,-719.7C274,-711.98 274,-702.71 274,-694.11"/>
<polygon fill="red" stroke="red" points="277.5,-694.1 274,-684.1 270.5,-694.1 277.5,-694.1"/>
</a>
</g>
</g>
<!-- PiR3 -->
<g id="node25" class="node">
<title>PiR3</title>
<ellipse fill="none" stroke="black" cx="334" cy="-18" rx="27" ry="18"/>
<text text-anchor="middle" x="334" y="-14.3" font-family="Times-Roman" font-size="14.00">PiR</text>
</g>
<!-- !p5&#45;&gt;PiR3 -->
<g id="edge6" class="edge">
<title>!p5&#45;&gt;PiR3</title>
<g id="a_edge6"><a xlink:title="e111">
<path fill="none" stroke="red" d="M290.93,-73.81C298.21,-64.55 307.66,-52.52 315.85,-42.09"/>
<polygon fill="red" stroke="red" points="318.66,-44.18 322.09,-34.16 313.16,-39.86 318.66,-44.18"/>
</a>
</g>
</g>
<!-- I4 -->
<g id="node31" class="node">
<title>I4</title>
<ellipse fill="none" stroke="black" cx="279" cy="-594" rx="27" ry="18"/>
<text text-anchor="middle" x="279" y="-590.3" font-family="Times-Roman" font-size="14.00">I</text>
</g>
<!-- PiR2&#45;&gt;I4 -->
<g id="edge9" class="edge">
<title>PiR2&#45;&gt;I4</title>
<g id="a_edge9"><a xlink:title="e114">
<path fill="none" stroke="red" d="M275.24,-647.7C275.79,-639.98 276.45,-630.71 277.06,-622.11"/>
<polygon fill="red" stroke="red" points="280.56,-622.33 277.78,-612.1 273.57,-621.83 280.56,-622.33"/>
</a>
</g>
</g>
<!-- PiR3&#45;&gt;Dup2_1 -->
<g id="edge13" class="edge">
<title>PiR3&#45;&gt;Dup2_1</title>
<g id="a_edge13"><a xlink:title="e119">
<path fill="none" stroke="red" d="M341.51,-35.66C352.58,-61.8 372,-114.3 372,-161 372,-1201.49 372,-1201.49 372,-1201.49 372,-1243.52 358.88,-1290.97 349.71,-1319"/>
<ellipse fill="none" stroke="red" cx="348.4" cy="-1322.91" rx="4" ry="4"/>
</a>
</g>
</g>
<!-- Cut1 -->
<g id="node26" class="node">
<title>Cut1</title>
<ellipse fill="none" stroke="black" cx="274" cy="-1026" rx="27" ry="18"/>
<text text-anchor="middle" x="274" y="-1022.3" font-family="Times-Roman" font-size="14.00">Cut</text>
</g>
<!-- Cut1&#45;&gt;!p2 -->
<g id="edge17" class="edge">
<title>Cut1&#45;&gt;!p2</title>
<g id="a_edge17"><a xlink:title="e34">
<path fill="none" stroke="red" d="M274,-1007.7C274,-999.98 274,-990.71 274,-982.11"/>
<polygon fill="red" stroke="red" points="277.5,-982.1 274,-972.1 270.5,-982.1 277.5,-982.1"/>
</a>
</g>
</g>
<!-- Dup2_0 -->
<g id="node27" class="node">
<title>Dup2_0</title>
<ellipse fill="none" stroke="black" cx="311" cy="-1113.25" rx="29.47" ry="29.47"/>
<ellipse fill="none" stroke="black" cx="311" cy="-1113.25" rx="33.5" ry="33.5"/>
<text text-anchor="middle" x="311" y="-1109.55" font-family="Times-Roman" font-size="14.00">Dup</text>
</g>
<!-- Dup2_0&#45;&gt;PiR3 -->
<g id="edge12" class="edge">
<title>Dup2_0&#45;&gt;PiR3</title>
<g id="a_edge12"><a xlink:title="e117">
<path fill="none" stroke="blue" d="M320.04,-1072.68C326.48,-1041.02 334,-995.4 334,-955 334,-955 334,-955 334,-161 334,-115.89 334,-62.71 334,-36.05"/>
<ellipse fill="none" stroke="blue" cx="319.16" cy="-1076.9" rx="4" ry="4"/>
</a>
</g>
</g>
<!-- Dup2_0&#45;&gt;Cut1 -->
<g id="edge11" class="edge">
<title>Dup2_0&#45;&gt;Cut1</title>
<g id="a_edge11"><a xlink:title="e116">
<path fill="none" stroke="blue" d="M294.81,-1074.94C290.04,-1063.95 285.06,-1052.48 281.17,-1043.51"/>
<ellipse fill="blue" stroke="blue" cx="296.47" cy="-1078.76" rx="4" ry="4"/>
</a>
</g>
</g>
<!-- I5 -->
<g id="node32" class="node">
<title>I5</title>
<ellipse fill="none" stroke="black" cx="314" cy="-1272.49" rx="27" ry="18"/>
<text text-anchor="middle" x="314" y="-1268.79" font-family="Times-Roman" font-size="14.00">I</text>
</g>
<!-- Dup2_1&#45;&gt;I5 -->
<g id="edge10" class="edge">
<title>Dup2_1&#45;&gt;I5</title>
<g id="a_edge10"><a xlink:title="e115">
<path fill="none" stroke="red" stroke-width="2" d="M334.6,-1326.91C331.49,-1318.83 327.67,-1308.93 324.17,-1299.85"/>
<polygon fill="red" stroke="red" stroke-width="2" points="327.4,-1298.52 320.54,-1290.45 320.87,-1301.04 327.4,-1298.52"/>
</a>
</g>
</g>
<!-- !d4 -->
<g id="node29" class="node">
<title>!d4</title>
<ellipse fill="none" stroke="black" cx="260" cy="-522" rx="27" ry="18"/>
<text text-anchor="middle" x="260" y="-518.3" font-family="Times-Roman" font-size="14.00">!d</text>
</g>
<!-- !d4&#45;&gt;PiR2 -->
<g id="edge7" class="edge">
<title>!d4&#45;&gt;PiR2</title>
<g id="a_edge7"><a xlink:title="e112">
<path fill="none" stroke="blue" d="M248.84,-549.04C242.69,-566.92 237.33,-591.09 243,-612 246.74,-625.79 255.05,-639.66 262.13,-649.76"/>
<polygon fill="blue" stroke="blue" points="252.16,-550.17 252.38,-539.57 245.6,-547.72 252.16,-550.17"/>
</a>
</g>
</g>
<!-- !d5 -->
<g id="node30" class="node">
<title>!d5</title>
<ellipse fill="none" stroke="black" cx="312" cy="-1200.49" rx="27" ry="18"/>
<text text-anchor="middle" x="312" y="-1196.79" font-family="Times-Roman" font-size="14.00">!d</text>
</g>
<!-- !d5&#45;&gt;Dup2_0 -->
<g id="edge8" class="edge">
<title>!d5&#45;&gt;Dup2_0</title>
<g id="a_edge8"><a xlink:title="e113">
<path fill="none" stroke="blue" stroke-width="2" d="M311.68,-1172.17C311.58,-1164.05 311.48,-1155.06 311.38,-1146.65"/>
<polygon fill="blue" stroke="blue" stroke-width="2" points="308.18,-1172.29 311.8,-1182.24 315.18,-1172.2 308.18,-1172.29"/>
</a>
</g>
</g>
<!-- I4&#45;&gt;!d4 -->
<g id="edge14" class="edge">
<title>I4&#45;&gt;!d4</title>
<g id="a_edge14"><a xlink:title="e120">
<path fill="none" stroke="blue" d="M271.71,-566.14C269.3,-557.28 266.7,-547.68 264.56,-539.79"/>
<polygon fill="blue" stroke="blue" points="268.4,-567.32 274.4,-576.05 275.16,-565.49 268.4,-567.32"/>
</a>
</g>
</g>
<!-- I5&#45;&gt;!d5 -->
<g id="edge15" class="edge">
<title>I5&#45;&gt;!d5</title>
<g id="a_edge15"><a xlink:title="e121">
<path fill="none" stroke="blue" stroke-width="2" d="M313.22,-1244.16C312.97,-1235.55 312.71,-1226.29 312.49,-1218.6"/>
<polygon fill="blue" stroke="blue" stroke-width="2" points="309.72,-1244.3 313.51,-1254.19 316.72,-1244.1 309.72,-1244.3"/>
</a>
</g>
</g>
</g>
</svg>
