<?xml version="1.0" encoding="UTF-8" standalone="no"?>
<!DOCTYPE svg PUBLIC "-//W3C//DTD SVG 1.1//EN"
 "http://www.w3.org/Graphics/SVG/1.1/DTD/svg11.dtd">
<!-- Generated by graphviz version 2.43.0 (0)
 -->
<!-- Title: %3 Pages: 1 -->
<svg width="352pt" height="1226pt"
 viewBox="0.00 0.00 352.25 1226.49" xmlns="http://www.w3.org/2000/svg" xmlns:xlink="http://www.w3.org/1999/xlink">
<g id="graph0" class="graph" transform="scale(1 1) rotate(0) translate(4 1222.49)">
<title>%3</title>
<polygon fill="white" stroke="transparent" points="-4,4 -4,-1222.49 348.25,-1222.49 348.25,4 -4,4"/>
<!-- Root0 -->
<g id="node1" class="node">
<title>Root0</title>
<ellipse fill="none" stroke="black" cx="233.25" cy="-1200.49" rx="30.59" ry="18"/>
<text text-anchor="middle" x="233.25" y="-1196.79" font-family="Times-Roman" font-size="14.00">Root</text>
</g>
<!-- Dup0_1 -->
<g id="node16" class="node">
<title>Dup0_1</title>
<ellipse fill="none" stroke="black" cx="233.25" cy="-1128.49" rx="29.5" ry="18"/>
<text text-anchor="middle" x="233.25" y="-1124.79" font-family="Times-Roman" font-size="14.00">Dup</text>
</g>
<!-- Root0&#45;&gt;Dup0_1 -->
<g id="edge25" class="edge">
<title>Root0&#45;&gt;Dup0_1</title>
<g id="a_edge25"><a xlink:title="rettop">
<path fill="none" stroke="red" stroke-width="2" d="M233.25,-1182.19C233.25,-1173.88 233.25,-1163.77 233.25,-1154.64"/>
<ellipse fill="red" stroke="red" stroke-width="2" cx="233.25" cy="-1150.6" rx="4" ry="4"/>
</a>
</g>
</g>
<!-- PiL0 -->
<g id="node2" class="node">
<title>PiL0</title>
<ellipse fill="none" stroke="black" cx="122.25" cy="-984.49" rx="27" ry="18"/>
<text text-anchor="middle" x="122.25" y="-980.79" font-family="Times-Roman" font-size="14.00">PiL</text>
</g>
<!-- !p0 -->
<g id="node3" class="node">
<title>!p0</title>
<ellipse fill="none" stroke="black" cx="122.25" cy="-912.49" rx="27" ry="18"/>
<text text-anchor="middle" x="122.25" y="-908.79" font-family="Times-Roman" font-size="14.00">!p</text>
</g>
<!-- PiL0&#45;&gt;!p0 -->
<g id="edge34" class="edge">
<title>PiL0&#45;&gt;!p0</title>
<g id="a_edge34"><a xlink:title="ylp">
<path fill="none" stroke="red" d="M122.25,-966.19C122.25,-958.48 122.25,-949.21 122.25,-940.61"/>
<polygon fill="red" stroke="red" points="125.75,-940.6 122.25,-930.6 118.75,-940.6 125.75,-940.6"/>
</a>
</g>
</g>
<!-- Cut2 -->
<g id="node20" class="node">
<title>Cut2</title>
<ellipse fill="none" stroke="black" cx="40.25" cy="-912.49" rx="27" ry="18"/>
<text text-anchor="middle" x="40.25" y="-908.79" font-family="Times-Roman" font-size="14.00">Cut</text>
</g>
<!-- PiL0&#45;&gt;Cut2 -->
<g id="edge31" class="edge">
<title>PiL0&#45;&gt;Cut2</title>
<g id="a_edge31"><a xlink:title="yl1">
<path fill="none" stroke="blue" stroke-width="2" d="M98.07,-962.85C84.53,-951.3 68.04,-937.22 56.14,-927.06"/>
<polygon fill="blue" stroke="blue" stroke-width="2" points="96.17,-965.83 106.05,-969.67 100.71,-960.51 96.17,-965.83"/>
</a>
</g>
</g>
<!-- I0 -->
<g id="node4" class="node">
<title>I0</title>
<ellipse fill="none" stroke="black" cx="122.25" cy="-840.49" rx="27" ry="18"/>
<text text-anchor="middle" x="122.25" y="-836.79" font-family="Times-Roman" font-size="14.00">I</text>
</g>
<!-- !p0&#45;&gt;I0 -->
<g id="edge33" class="edge">
<title>!p0&#45;&gt;I0</title>
<g id="a_edge33"><a xlink:title="yli">
<path fill="none" stroke="red" d="M122.25,-894.19C122.25,-886.48 122.25,-877.21 122.25,-868.61"/>
<polygon fill="red" stroke="red" points="125.75,-868.6 122.25,-858.6 118.75,-868.6 125.75,-868.6"/>
</a>
</g>
</g>
<!-- Cut1 -->
<g id="node18" class="node">
<title>Cut1</title>
<ellipse fill="none" stroke="black" cx="194.25" cy="-840.49" rx="27" ry="18"/>
<text text-anchor="middle" x="194.25" y="-836.79" font-family="Times-Roman" font-size="14.00">Cut</text>
</g>
<!-- !p0&#45;&gt;Cut1 -->
<g id="edge28" class="edge">
<title>!p0&#45;&gt;Cut1</title>
<g id="a_edge28"><a xlink:title="y2">
<path fill="none" stroke="blue" d="M144.29,-890.06C155.7,-878.97 169.32,-865.73 179.45,-855.88"/>
<polygon fill="blue" stroke="blue" points="141.55,-887.85 136.82,-897.33 146.43,-892.87 141.55,-887.85"/>
</a>
</g>
</g>
<!-- !d0 -->
<g id="node5" class="node">
<title>!d0</title>
<ellipse fill="none" stroke="black" cx="103.25" cy="-768.49" rx="27" ry="18"/>
<text text-anchor="middle" x="103.25" y="-764.79" font-family="Times-Roman" font-size="14.00">!d</text>
</g>
<!-- I0&#45;&gt;!d0 -->
<g id="edge32" class="edge">
<title>I0&#45;&gt;!d0</title>
<g id="a_edge32"><a xlink:title="yl2">
<path fill="none" stroke="blue" d="M114.96,-812.63C112.55,-803.77 109.95,-794.17 107.8,-786.28"/>
<polygon fill="blue" stroke="blue" points="111.65,-813.82 117.65,-822.55 118.41,-811.98 111.65,-813.82"/>
</a>
</g>
</g>
<!-- !d0&#45;&gt;!p0 -->
<g id="edge29" class="edge">
<title>!d0&#45;&gt;!p0</title>
<g id="a_edge29"><a xlink:title="yj">
<path fill="none" stroke="blue" d="M91.75,-795.34C85.35,-813.3 79.84,-837.66 86.25,-858.49 90.63,-872.74 100.29,-886.6 108.5,-896.56"/>
<polygon fill="blue" stroke="blue" points="95.09,-796.42 95.44,-785.83 88.56,-793.89 95.09,-796.42"/>
</a>
</g>
</g>
<!-- I1 -->
<g id="node6" class="node">
<title>I1</title>
<ellipse fill="none" stroke="black" cx="144.25" cy="-624.49" rx="27" ry="18"/>
<text text-anchor="middle" x="144.25" y="-620.79" font-family="Times-Roman" font-size="14.00">I</text>
</g>
<!-- Dup1_1 -->
<g id="node26" class="node">
<title>Dup1_1</title>
<ellipse fill="none" stroke="black" cx="147.25" cy="-537.25" rx="29.47" ry="29.47"/>
<ellipse fill="none" stroke="black" cx="147.25" cy="-537.25" rx="33.5" ry="33.5"/>
<text text-anchor="middle" x="147.25" y="-533.55" font-family="Times-Roman" font-size="14.00">Dup</text>
</g>
<!-- I1&#45;&gt;Dup1_1 -->
<g id="edge17" class="edge">
<title>I1&#45;&gt;Dup1_1</title>
<g id="a_edge17"><a xlink:title="hl2">
<path fill="none" stroke="blue" stroke-width="2" d="M145.21,-596.17C145.49,-588.05 145.81,-579.06 146.11,-570.65"/>
<polygon fill="blue" stroke="blue" stroke-width="2" points="141.71,-596.13 144.85,-606.24 148.7,-596.37 141.71,-596.13"/>
</a>
</g>
</g>
<!-- !p1 -->
<g id="node7" class="node">
<title>!p1</title>
<ellipse fill="none" stroke="black" cx="219.25" cy="-306" rx="27" ry="18"/>
<text text-anchor="middle" x="219.25" y="-302.3" font-family="Times-Roman" font-size="14.00">!p</text>
</g>
<!-- PiR0 -->
<g id="node10" class="node">
<title>PiR0</title>
<ellipse fill="none" stroke="black" cx="228.25" cy="-234" rx="27" ry="18"/>
<text text-anchor="middle" x="228.25" y="-230.3" font-family="Times-Roman" font-size="14.00">PiR</text>
</g>
<!-- !p1&#45;&gt;PiR0 -->
<g id="edge18" class="edge">
<title>!p1&#45;&gt;PiR0</title>
<g id="a_edge18"><a xlink:title="hl2i">
<path fill="none" stroke="red" d="M221.43,-288.05C222.42,-280.35 223.62,-271.03 224.73,-262.36"/>
<polygon fill="red" stroke="red" points="228.22,-262.64 226.03,-252.28 221.28,-261.75 228.22,-262.64"/>
</a>
</g>
</g>
<!-- I2 -->
<g id="node8" class="node">
<title>I2</title>
<ellipse fill="none" stroke="black" cx="283.25" cy="-162" rx="27" ry="18"/>
<text text-anchor="middle" x="283.25" y="-158.3" font-family="Times-Roman" font-size="14.00">I</text>
</g>
<!-- !d1 -->
<g id="node9" class="node">
<title>!d1</title>
<ellipse fill="none" stroke="black" cx="264.25" cy="-90" rx="27" ry="18"/>
<text text-anchor="middle" x="264.25" y="-86.3" font-family="Times-Roman" font-size="14.00">!d</text>
</g>
<!-- I2&#45;&gt;!d1 -->
<g id="edge23" class="edge">
<title>I2&#45;&gt;!d1</title>
<g id="a_edge23"><a xlink:title="il">
<path fill="none" stroke="blue" d="M275.96,-134.14C273.55,-125.28 270.95,-115.68 268.8,-107.79"/>
<polygon fill="blue" stroke="blue" points="272.65,-135.32 278.65,-144.05 279.41,-133.49 272.65,-135.32"/>
</a>
</g>
</g>
<!-- !d1&#45;&gt;PiR0 -->
<g id="edge22" class="edge">
<title>!d1&#45;&gt;PiR0</title>
<g id="a_edge22"><a xlink:title="i">
<path fill="none" stroke="blue" d="M255.24,-117.31C252.49,-125.78 249.58,-135.24 247.25,-144 240.66,-168.73 234.8,-197.8 231.39,-215.82"/>
<polygon fill="blue" stroke="blue" points="258.64,-118.18 258.46,-107.58 251.99,-115.98 258.64,-118.18"/>
</a>
</g>
</g>
<!-- PiR0&#45;&gt;I2 -->
<g id="edge24" class="edge">
<title>PiR0&#45;&gt;I2</title>
<g id="a_edge24"><a xlink:title="ir">
<path fill="none" stroke="red" d="M240.18,-217.81C247.46,-208.55 256.91,-196.52 265.1,-186.09"/>
<polygon fill="red" stroke="red" points="267.91,-188.18 271.34,-178.16 262.41,-183.86 267.91,-188.18"/>
</a>
</g>
</g>
<!-- I3 -->
<g id="node11" class="node">
<title>I3</title>
<ellipse fill="none" stroke="black" cx="206.25" cy="-1056.49" rx="27" ry="18"/>
<text text-anchor="middle" x="206.25" y="-1052.79" font-family="Times-Roman" font-size="14.00">I</text>
</g>
<!-- I3&#45;&gt;PiL0 -->
<g id="edge30" class="edge">
<title>I3&#45;&gt;PiL0</title>
<g id="a_edge30"><a xlink:title="yl">
<path fill="none" stroke="blue" stroke-width="2" d="M182.22,-1035.47C168.17,-1023.77 150.81,-1009.3 138.39,-998.95"/>
<polygon fill="blue" stroke="blue" stroke-width="2" points="180.13,-1038.29 190.05,-1042 184.61,-1032.91 180.13,-1038.29"/>
</a>
</g>
</g>
<!-- !p2 -->
<g id="node12" class="node">
<title>!p2</title>
<ellipse fill="none" stroke="black" cx="173.25" cy="-90" rx="27" ry="18"/>
<text text-anchor="middle" x="173.25" y="-86.3" font-family="Times-Roman" font-size="14.00">!p</text>
</g>
<!-- PiR1 -->
<g id="node13" class="node">
<title>PiR1</title>
<ellipse fill="none" stroke="black" cx="173.25" cy="-18" rx="27" ry="18"/>
<text text-anchor="middle" x="173.25" y="-14.3" font-family="Times-Roman" font-size="14.00">PiR</text>
</g>
<!-- !p2&#45;&gt;PiR1 -->
<g id="edge26" class="edge">
<title>!p2&#45;&gt;PiR1</title>
<g id="a_edge26"><a xlink:title="xli">
<path fill="none" stroke="red" d="M173.25,-71.7C173.25,-63.98 173.25,-54.71 173.25,-46.11"/>
<polygon fill="red" stroke="red" points="176.75,-46.1 173.25,-36.1 169.75,-46.1 176.75,-46.1"/>
</a>
</g>
</g>
<!-- PiR1&#45;&gt;Dup0_1 -->
<g id="edge14" class="edge">
<title>PiR1&#45;&gt;Dup0_1</title>
<g id="a_edge14"><a xlink:title="e7">
<path fill="none" stroke="red" d="M198.83,-24.04C226.78,-30.72 271.41,-44.95 300.25,-72 332.43,-102.19 344.25,-116.87 344.25,-161 344.25,-985.49 344.25,-985.49 344.25,-985.49 344.25,-1040.27 292.35,-1086.53 259.53,-1110.31"/>
<ellipse fill="none" stroke="red" cx="256.1" cy="-1112.73" rx="4" ry="4"/>
</a>
</g>
</g>
<!-- Cut0 -->
<g id="node14" class="node">
<title>Cut0</title>
<ellipse fill="none" stroke="black" cx="173.25" cy="-162" rx="27" ry="18"/>
<text text-anchor="middle" x="173.25" y="-158.3" font-family="Times-Roman" font-size="14.00">Cut</text>
</g>
<!-- Cut0&#45;&gt;!p2 -->
<g id="edge27" class="edge">
<title>Cut0&#45;&gt;!p2</title>
<g id="a_edge27"><a xlink:title="xlp">
<path fill="none" stroke="red" d="M173.25,-143.7C173.25,-135.98 173.25,-126.71 173.25,-118.11"/>
<polygon fill="red" stroke="red" points="176.75,-118.1 173.25,-108.1 169.75,-118.1 176.75,-118.1"/>
</a>
</g>
</g>
<!-- Dup0_0 -->
<g id="node15" class="node">
<title>Dup0_0</title>
<ellipse fill="none" stroke="black" cx="136.25" cy="-234" rx="29.5" ry="18"/>
<text text-anchor="middle" x="136.25" y="-230.3" font-family="Times-Roman" font-size="14.00">Dup</text>
</g>
<!-- Dup0_0&#45;&gt;PiR1 -->
<g id="edge13" class="edge">
<title>Dup0_0&#45;&gt;PiR1</title>
<g id="a_edge13"><a xlink:title="e5">
<path fill="none" stroke="blue" d="M132.01,-208.04C127.51,-175.8 122.85,-118.31 137.25,-72 141.67,-57.77 151.33,-43.91 159.53,-33.94"/>
<ellipse fill="none" stroke="blue" cx="132.61" cy="-212.1" rx="4" ry="4"/>
</a>
</g>
</g>
<!-- Dup0_0&#45;&gt;Cut0 -->
<g id="edge12" class="edge">
<title>Dup0_0&#45;&gt;Cut0</title>
<g id="a_edge12"><a xlink:title="e4">
<path fill="none" stroke="blue" d="M148.68,-209.48C153.95,-199.51 159.96,-188.14 164.71,-179.15"/>
<ellipse fill="blue" stroke="blue" cx="146.7" cy="-213.23" rx="4" ry="4"/>
</a>
</g>
</g>
<!-- Dup0_1&#45;&gt;I3 -->
<g id="edge21" class="edge">
<title>Dup0_1&#45;&gt;I3</title>
<g id="a_edge21"><a xlink:title="hr">
<path fill="none" stroke="red" stroke-width="2" d="M226.85,-1110.91C223.73,-1102.83 219.91,-1092.93 216.41,-1083.85"/>
<polygon fill="red" stroke="red" stroke-width="2" points="219.65,-1082.52 212.79,-1074.45 213.12,-1085.04 219.65,-1082.52"/>
</a>
</g>
</g>
<!-- !p3 -->
<g id="node17" class="node">
<title>!p3</title>
<ellipse fill="none" stroke="black" cx="175.25" cy="-768.49" rx="27" ry="18"/>
<text text-anchor="middle" x="175.25" y="-764.79" font-family="Times-Roman" font-size="14.00">!p</text>
</g>
<!-- !c0 -->
<g id="node19" class="node">
<title>!c0</title>
<ellipse fill="none" stroke="black" cx="136.25" cy="-306" rx="27" ry="18"/>
<text text-anchor="middle" x="136.25" y="-302.3" font-family="Times-Roman" font-size="14.00">!c</text>
</g>
<!-- !p3&#45;&gt;!c0 -->
<g id="edge5" class="edge">
<title>!p3&#45;&gt;!c0</title>
<g id="a_edge5"><a xlink:title="e15">
<path fill="none" stroke="blue" d="M151.53,-746.61C125.17,-720.96 86.25,-674.75 86.25,-625.49 86.25,-625.49 86.25,-625.49 86.25,-449 86.25,-408.55 90.63,-397.71 105.25,-360 110.41,-346.68 118.66,-332.78 125.35,-322.56"/>
<polygon fill="blue" stroke="blue" points="149.25,-749.27 158.92,-753.59 154.06,-744.18 149.25,-749.27"/>
</a>
</g>
</g>
<!-- Dup1_0 -->
<g id="node25" class="node">
<title>Dup1_0</title>
<ellipse fill="none" stroke="black" cx="29.25" cy="-696.49" rx="29.5" ry="18"/>
<text text-anchor="middle" x="29.25" y="-692.79" font-family="Times-Roman" font-size="14.00">Dup</text>
</g>
<!-- !p3&#45;&gt;Dup1_0 -->
<g id="edge2" class="edge">
<title>!p3&#45;&gt;Dup1_0</title>
<g id="a_edge2"><a xlink:title="e11">
<path fill="none" stroke="red" d="M154.02,-757.32C129.04,-745.34 87.41,-725.38 59.17,-711.84"/>
<ellipse fill="none" stroke="red" cx="55.55" cy="-710.11" rx="4" ry="4"/>
</a>
</g>
</g>
<!-- Cut1&#45;&gt;!p3 -->
<g id="edge15" class="edge">
<title>Cut1&#45;&gt;!p3</title>
<g id="a_edge15"><a xlink:title="e9">
<path fill="none" stroke="red" d="M189.65,-822.55C187.5,-814.64 184.89,-805.03 182.49,-796.18"/>
<polygon fill="red" stroke="red" points="185.8,-795.02 179.8,-786.28 179.05,-796.85 185.8,-795.02"/>
</a>
</g>
</g>
<!-- !c0&#45;&gt;Dup0_0 -->
<g id="edge16" class="edge">
<title>!c0&#45;&gt;Dup0_0</title>
<g id="a_edge16"><a xlink:title="h">
<path fill="none" stroke="blue" d="M136.25,-277.67C136.25,-269.05 136.25,-259.79 136.25,-252.1"/>
<polygon fill="blue" stroke="blue" points="132.75,-277.7 136.25,-287.7 139.75,-277.7 132.75,-277.7"/>
</a>
</g>
</g>
<!-- Cut2&#45;&gt;Dup1_0 -->
<g id="edge1" class="edge">
<title>Cut2&#45;&gt;Dup1_0</title>
<g id="a_edge1"><a xlink:title="e10">
<path fill="none" stroke="red" stroke-width="2" d="M39.37,-894.34C37.43,-856.78 32.82,-767.07 30.55,-722.92"/>
<ellipse fill="red" stroke="red" stroke-width="2" cx="30.34" cy="-718.72" rx="4" ry="4"/>
</a>
</g>
</g>
<!-- !d2 -->
<g id="node21" class="node">
<title>!d2</title>
<ellipse fill="none" stroke="black" cx="141.25" cy="-378" rx="27" ry="18"/>
<text text-anchor="middle" x="141.25" y="-374.3" font-family="Times-Roman" font-size="14.00">!d</text>
</g>
<!-- !d2&#45;&gt;!c0 -->
<g id="edge4" class="edge">
<title>!d2&#45;&gt;!c0</title>
<g id="a_edge4"><a xlink:title="e14">
<path fill="none" stroke="blue" d="M139.29,-349.67C138.68,-341.05 138.02,-331.79 137.47,-324.1"/>
<polygon fill="blue" stroke="blue" points="135.81,-349.97 140.01,-359.7 142.79,-349.47 135.81,-349.97"/>
</a>
</g>
</g>
<!-- !d3 -->
<g id="node22" class="node">
<title>!d3</title>
<ellipse fill="none" stroke="black" cx="289.25" cy="-378" rx="27" ry="18"/>
<text text-anchor="middle" x="289.25" y="-374.3" font-family="Times-Roman" font-size="14.00">!d</text>
</g>
<!-- !d3&#45;&gt;!p3 -->
<g id="edge3" class="edge">
<title>!d3&#45;&gt;!p3</title>
<g id="a_edge3"><a xlink:title="e13">
<path fill="none" stroke="blue" d="M286.75,-406.09C284.09,-437.4 280.25,-490.51 280.25,-536.25 280.25,-625.49 280.25,-625.49 280.25,-625.49 280.25,-683.14 223.62,-732.7 193.54,-754.96"/>
<polygon fill="blue" stroke="blue" points="290.25,-406.24 287.64,-395.97 283.28,-405.63 290.25,-406.24"/>
</a>
</g>
</g>
<!-- PiL1 -->
<g id="node23" class="node">
<title>PiL1</title>
<ellipse fill="none" stroke="black" cx="145.25" cy="-450" rx="27" ry="18"/>
<text text-anchor="middle" x="145.25" y="-446.3" font-family="Times-Roman" font-size="14.00">PiL</text>
</g>
<!-- PiL1&#45;&gt;!d2 -->
<g id="edge6" class="edge">
<title>PiL1&#45;&gt;!d2</title>
<g id="a_edge6"><a xlink:title="e16">
<path fill="none" stroke="blue" d="M143.69,-421.67C143.19,-413.05 142.66,-403.79 142.22,-396.1"/>
<polygon fill="blue" stroke="blue" points="140.19,-421.91 144.26,-431.7 147.18,-421.51 140.19,-421.91"/>
</a>
</g>
</g>
<!-- Dup1_2 -->
<g id="node27" class="node">
<title>Dup1_2</title>
<ellipse fill="none" stroke="black" cx="215.25" cy="-378" rx="29.5" ry="18"/>
<text text-anchor="middle" x="215.25" y="-374.3" font-family="Times-Roman" font-size="14.00">Dup</text>
</g>
<!-- PiL1&#45;&gt;Dup1_2 -->
<g id="edge10" class="edge">
<title>PiL1&#45;&gt;Dup1_2</title>
<g id="a_edge10"><a xlink:title="e20">
<path fill="none" stroke="red" d="M159.75,-434.5C169.75,-424.49 183.2,-411.05 194.36,-399.89"/>
<ellipse fill="red" stroke="red" cx="197.45" cy="-396.8" rx="4" ry="4"/>
</a>
</g>
</g>
<!-- PiL2 -->
<g id="node24" class="node">
<title>PiL2</title>
<ellipse fill="none" stroke="black" cx="217.25" cy="-450" rx="27" ry="18"/>
<text text-anchor="middle" x="217.25" y="-446.3" font-family="Times-Roman" font-size="14.00">PiL</text>
</g>
<!-- PiL2&#45;&gt;!d3 -->
<g id="edge7" class="edge">
<title>PiL2&#45;&gt;!d3</title>
<g id="a_edge7"><a xlink:title="e17">
<path fill="none" stroke="blue" d="M239.29,-427.57C250.7,-416.48 264.32,-403.24 274.45,-393.38"/>
<polygon fill="blue" stroke="blue" points="236.55,-425.35 231.82,-434.83 241.43,-430.37 236.55,-425.35"/>
</a>
</g>
</g>
<!-- PiL2&#45;&gt;Dup1_2 -->
<g id="edge11" class="edge">
<title>PiL2&#45;&gt;Dup1_2</title>
<g id="a_edge11"><a xlink:title="e21">
<path fill="none" stroke="red" d="M216.75,-431.7C216.52,-423.39 216.23,-413.28 215.97,-404.14"/>
<ellipse fill="none" stroke="red" cx="215.85" cy="-400.1" rx="4" ry="4"/>
</a>
</g>
</g>
<!-- Dup1_0&#45;&gt;I1 -->
<g id="edge20" class="edge">
<title>Dup1_0&#45;&gt;I1</title>
<g id="a_edge20"><a xlink:title="hli">
<path fill="none" stroke="red" stroke-width="2" d="M49.28,-683.3C67.78,-672.04 95.44,-655.2 116.15,-642.6"/>
<polygon fill="red" stroke="red" stroke-width="2" points="118.11,-645.5 124.83,-637.31 114.47,-639.52 118.11,-645.5"/>
</a>
</g>
</g>
<!-- Dup1_1&#45;&gt;PiL1 -->
<g id="edge8" class="edge">
<title>Dup1_1&#45;&gt;PiL1</title>
<g id="a_edge8"><a xlink:title="e18">
<path fill="none" stroke="blue" d="M146.29,-495.53C146.07,-485.91 145.84,-476.16 145.65,-468.25"/>
<ellipse fill="blue" stroke="blue" cx="146.39" cy="-499.53" rx="4" ry="4"/>
</a>
</g>
</g>
<!-- Dup1_1&#45;&gt;PiL2 -->
<g id="edge9" class="edge">
<title>Dup1_1&#45;&gt;PiL2</title>
<g id="a_edge9"><a xlink:title="e19">
<path fill="none" stroke="blue" d="M173.08,-504.78C183.95,-491.55 196.08,-476.77 204.88,-466.06"/>
<ellipse fill="none" stroke="blue" cx="170.41" cy="-508.04" rx="4" ry="4"/>
</a>
</g>
</g>
<!-- Dup1_2&#45;&gt;!p1 -->
<g id="edge19" class="edge">
<title>Dup1_2&#45;&gt;!p1</title>
<g id="a_edge19"><a xlink:title="hl2p">
<path fill="none" stroke="red" d="M216.24,-359.7C216.68,-351.98 217.21,-342.71 217.7,-334.11"/>
<polygon fill="red" stroke="red" points="221.19,-334.29 218.27,-324.1 214.21,-333.89 221.19,-334.29"/>
</a>
</g>
</g>
</g>
</svg>
