<?xml version="1.0" encoding="UTF-8" standalone="no"?>
<!DOCTYPE svg PUBLIC "-//W3C//DTD SVG 1.1//EN"
 "http://www.w3.org/Graphics/SVG/1.1/DTD/svg11.dtd">
<!-- Generated by graphviz version 2.43.0 (0)
 -->
<!-- Title: %3 Pages: 1 -->
<svg width="449pt" height="1010pt"
 viewBox="0.00 0.00 449.00 1010.49" xmlns="http://www.w3.org/2000/svg" xmlns:xlink="http://www.w3.org/1999/xlink">
<g id="graph0" class="graph" transform="scale(1 1) rotate(0) translate(4 1006.49)">
<title>%3</title>
<polygon fill="white" stroke="transparent" points="-4,4 -4,-1006.49 445,-1006.49 445,4 -4,4"/>
<!-- Root0 -->
<g id="node1" class="node">
<title>Root0</title>
<ellipse fill="none" stroke="black" cx="376" cy="-984.49" rx="30.59" ry="18"/>
<text text-anchor="middle" x="376" y="-980.79" font-family="Times-Roman" font-size="14.00">Root</text>
</g>
<!-- Dup1_0 -->
<g id="node26" class="node">
<title>Dup1_0</title>
<ellipse fill="none" stroke="black" cx="376" cy="-912.49" rx="29.5" ry="18"/>
<text text-anchor="middle" x="376" y="-908.79" font-family="Times-Roman" font-size="14.00">Dup</text>
</g>
<!-- Root0&#45;&gt;Dup1_0 -->
<g id="edge29" class="edge">
<title>Root0&#45;&gt;Dup1_0</title>
<g id="a_edge29"><a xlink:title="rettop">
<path fill="none" stroke="red" stroke-width="2" d="M376,-966.19C376,-957.88 376,-947.77 376,-938.64"/>
<ellipse fill="red" stroke="red" stroke-width="2" cx="376" cy="-934.6" rx="4" ry="4"/>
</a>
</g>
</g>
<!-- !p0 -->
<g id="node2" class="node">
<title>!p0</title>
<ellipse fill="none" stroke="black" cx="110" cy="-696.49" rx="27" ry="18"/>
<text text-anchor="middle" x="110" y="-692.79" font-family="Times-Roman" font-size="14.00">!p</text>
</g>
<!-- I0 -->
<g id="node3" class="node">
<title>I0</title>
<ellipse fill="none" stroke="black" cx="27" cy="-609.25" rx="27" ry="18"/>
<text text-anchor="middle" x="27" y="-605.55" font-family="Times-Roman" font-size="14.00">I</text>
</g>
<!-- !p0&#45;&gt;I0 -->
<g id="edge36" class="edge">
<title>!p0&#45;&gt;I0</title>
<g id="a_edge36"><a xlink:title="yli">
<path fill="none" stroke="red" d="M95.92,-681.03C82.92,-667.68 63.43,-647.67 48.49,-632.32"/>
<polygon fill="red" stroke="red" points="50.63,-629.5 41.15,-624.78 45.62,-634.39 50.63,-629.5"/>
</a>
</g>
</g>
<!-- Cut1 -->
<g id="node14" class="node">
<title>Cut1</title>
<ellipse fill="none" stroke="black" cx="137" cy="-609.25" rx="27" ry="18"/>
<text text-anchor="middle" x="137" y="-605.55" font-family="Times-Roman" font-size="14.00">Cut</text>
</g>
<!-- !p0&#45;&gt;Cut1 -->
<g id="edge32" class="edge">
<title>!p0&#45;&gt;Cut1</title>
<g id="a_edge32"><a xlink:title="y2">
<path fill="none" stroke="blue" d="M118.45,-668.82C122.77,-655.16 127.91,-638.96 131.68,-627.05"/>
<polygon fill="blue" stroke="blue" points="115.02,-668.06 115.33,-678.65 121.69,-670.18 115.02,-668.06"/>
</a>
</g>
</g>
<!-- !d0 -->
<g id="node4" class="node">
<title>!d0</title>
<ellipse fill="none" stroke="black" cx="46" cy="-522" rx="27" ry="18"/>
<text text-anchor="middle" x="46" y="-518.3" font-family="Times-Roman" font-size="14.00">!d</text>
</g>
<!-- I0&#45;&gt;!d0 -->
<g id="edge35" class="edge">
<title>I0&#45;&gt;!d0</title>
<g id="a_edge35"><a xlink:title="yl2">
<path fill="none" stroke="blue" d="M32.93,-581.64C35.95,-568.08 39.54,-551.99 42.19,-540.1"/>
<polygon fill="blue" stroke="blue" points="29.51,-580.88 30.75,-591.41 36.35,-582.41 29.51,-580.88"/>
</a>
</g>
</g>
<!-- !d0&#45;&gt;!p0 -->
<g id="edge33" class="edge">
<title>!d0&#45;&gt;!p0</title>
<g id="a_edge33"><a xlink:title="yj">
<path fill="none" stroke="blue" d="M55.86,-549.57C69.24,-585.64 92.76,-649.02 103.86,-678.96"/>
<polygon fill="blue" stroke="blue" points="58.97,-547.9 52.21,-539.74 52.41,-550.34 58.97,-547.9"/>
</a>
</g>
</g>
<!-- !p1 -->
<g id="node5" class="node">
<title>!p1</title>
<ellipse fill="none" stroke="black" cx="164" cy="-234" rx="27" ry="18"/>
<text text-anchor="middle" x="164" y="-230.3" font-family="Times-Roman" font-size="14.00">!p</text>
</g>
<!-- PiR0 -->
<g id="node8" class="node">
<title>PiR0</title>
<ellipse fill="none" stroke="black" cx="164" cy="-162" rx="27" ry="18"/>
<text text-anchor="middle" x="164" y="-158.3" font-family="Times-Roman" font-size="14.00">PiR</text>
</g>
<!-- !p1&#45;&gt;PiR0 -->
<g id="edge23" class="edge">
<title>!p1&#45;&gt;PiR0</title>
<g id="a_edge23"><a xlink:title="hl2i">
<path fill="none" stroke="red" d="M164,-215.7C164,-207.98 164,-198.71 164,-190.11"/>
<polygon fill="red" stroke="red" points="167.5,-190.1 164,-180.1 160.5,-190.1 167.5,-190.1"/>
</a>
</g>
</g>
<!-- I1 -->
<g id="node6" class="node">
<title>I1</title>
<ellipse fill="none" stroke="black" cx="137" cy="-90" rx="27" ry="18"/>
<text text-anchor="middle" x="137" y="-86.3" font-family="Times-Roman" font-size="14.00">I</text>
</g>
<!-- !d1 -->
<g id="node7" class="node">
<title>!d1</title>
<ellipse fill="none" stroke="black" cx="164" cy="-18" rx="27" ry="18"/>
<text text-anchor="middle" x="164" y="-14.3" font-family="Times-Roman" font-size="14.00">!d</text>
</g>
<!-- I1&#45;&gt;!d1 -->
<g id="edge27" class="edge">
<title>I1&#45;&gt;!d1</title>
<g id="a_edge27"><a xlink:title="il">
<path fill="none" stroke="blue" d="M147.01,-63.06C150.5,-54.01 154.32,-44.09 157.46,-35.96"/>
<polygon fill="blue" stroke="blue" points="143.73,-61.82 143.4,-72.41 150.26,-64.34 143.73,-61.82"/>
</a>
</g>
</g>
<!-- !d1&#45;&gt;PiR0 -->
<g id="edge26" class="edge">
<title>!d1&#45;&gt;PiR0</title>
<g id="a_edge26"><a xlink:title="i">
<path fill="none" stroke="blue" d="M169.49,-46.01C170.93,-54.31 172.28,-63.5 173,-72 174.34,-87.94 174.34,-92.06 173,-108 171.98,-120.09 169.68,-133.57 167.65,-143.91"/>
<polygon fill="blue" stroke="blue" points="172.91,-45.29 167.65,-36.09 166.03,-46.56 172.91,-45.29"/>
</a>
</g>
</g>
<!-- PiR0&#45;&gt;I1 -->
<g id="edge28" class="edge">
<title>PiR0&#45;&gt;I1</title>
<g id="a_edge28"><a xlink:title="ir">
<path fill="none" stroke="red" d="M157.6,-144.41C154.49,-136.34 150.67,-126.43 147.17,-117.35"/>
<polygon fill="red" stroke="red" points="150.4,-116.03 143.54,-107.96 143.87,-118.55 150.4,-116.03"/>
</a>
</g>
</g>
<!-- I2 -->
<g id="node9" class="node">
<title>I2</title>
<ellipse fill="none" stroke="black" cx="349" cy="-840.49" rx="27" ry="18"/>
<text text-anchor="middle" x="349" y="-836.79" font-family="Times-Roman" font-size="14.00">I</text>
</g>
<!-- PiL1 -->
<g id="node19" class="node">
<title>PiL1</title>
<ellipse fill="none" stroke="black" cx="294" cy="-768.49" rx="27" ry="18"/>
<text text-anchor="middle" x="294" y="-764.79" font-family="Times-Roman" font-size="14.00">PiL</text>
</g>
<!-- I2&#45;&gt;PiL1 -->
<g id="edge34" class="edge">
<title>I2&#45;&gt;PiL1</title>
<g id="a_edge34"><a xlink:title="yl">
<path fill="none" stroke="blue" stroke-width="2" d="M330.83,-816.37C322.63,-805.94 313.19,-793.91 305.91,-784.65"/>
<polygon fill="blue" stroke="blue" stroke-width="2" points="328.14,-818.61 337.07,-824.31 333.64,-814.28 328.14,-818.61"/>
</a>
</g>
</g>
<!-- !p2 -->
<g id="node10" class="node">
<title>!p2</title>
<ellipse fill="none" stroke="black" cx="372" cy="-234" rx="27" ry="18"/>
<text text-anchor="middle" x="372" y="-230.3" font-family="Times-Roman" font-size="14.00">!p</text>
</g>
<!-- PiR1 -->
<g id="node11" class="node">
<title>PiR1</title>
<ellipse fill="none" stroke="black" cx="372" cy="-162" rx="27" ry="18"/>
<text text-anchor="middle" x="372" y="-158.3" font-family="Times-Roman" font-size="14.00">PiR</text>
</g>
<!-- !p2&#45;&gt;PiR1 -->
<g id="edge30" class="edge">
<title>!p2&#45;&gt;PiR1</title>
<g id="a_edge30"><a xlink:title="xli">
<path fill="none" stroke="red" d="M372,-215.7C372,-207.98 372,-198.71 372,-190.11"/>
<polygon fill="red" stroke="red" points="375.5,-190.1 372,-180.1 368.5,-190.1 375.5,-190.1"/>
</a>
</g>
</g>
<!-- PiR1&#45;&gt;Dup1_0 -->
<g id="edge21" class="edge">
<title>PiR1&#45;&gt;Dup1_0</title>
<g id="a_edge21"><a xlink:title="e7">
<path fill="none" stroke="red" d="M384.98,-178.01C404.97,-202.72 441,-254.29 441,-305 441,-769.49 441,-769.49 441,-769.49 441,-815.29 412.7,-862.47 393.45,-889.27"/>
<ellipse fill="none" stroke="red" cx="390.9" cy="-892.73" rx="4" ry="4"/>
</a>
</g>
</g>
<!-- Cut0 -->
<g id="node12" class="node">
<title>Cut0</title>
<ellipse fill="none" stroke="black" cx="372" cy="-306" rx="27" ry="18"/>
<text text-anchor="middle" x="372" y="-302.3" font-family="Times-Roman" font-size="14.00">Cut</text>
</g>
<!-- Cut0&#45;&gt;!p2 -->
<g id="edge31" class="edge">
<title>Cut0&#45;&gt;!p2</title>
<g id="a_edge31"><a xlink:title="xlp">
<path fill="none" stroke="red" d="M372,-287.7C372,-279.98 372,-270.71 372,-262.11"/>
<polygon fill="red" stroke="red" points="375.5,-262.1 372,-252.1 368.5,-262.1 375.5,-262.1"/>
</a>
</g>
</g>
<!-- !p3 -->
<g id="node13" class="node">
<title>!p3</title>
<ellipse fill="none" stroke="black" cx="127" cy="-522" rx="27" ry="18"/>
<text text-anchor="middle" x="127" y="-518.3" font-family="Times-Roman" font-size="14.00">!p</text>
</g>
<!-- I3 -->
<g id="node17" class="node">
<title>I3</title>
<ellipse fill="none" stroke="black" cx="90" cy="-450" rx="27" ry="18"/>
<text text-anchor="middle" x="90" y="-446.3" font-family="Times-Roman" font-size="14.00">I</text>
</g>
<!-- !p3&#45;&gt;I3 -->
<g id="edge1" class="edge">
<title>!p3&#45;&gt;I3</title>
<g id="a_edge1"><a xlink:title="e11">
<path fill="none" stroke="red" d="M118.42,-504.76C113.94,-496.28 108.35,-485.71 103.32,-476.2"/>
<polygon fill="red" stroke="red" points="106.3,-474.35 98.54,-467.15 100.11,-477.62 106.3,-474.35"/>
</a>
</g>
</g>
<!-- Dup1_1 -->
<g id="node27" class="node">
<title>Dup1_1</title>
<ellipse fill="none" stroke="black" cx="164" cy="-450" rx="29.5" ry="18"/>
<text text-anchor="middle" x="164" y="-446.3" font-family="Times-Roman" font-size="14.00">Dup</text>
</g>
<!-- !p3&#45;&gt;Dup1_1 -->
<g id="edge3" class="edge">
<title>!p3&#45;&gt;Dup1_1</title>
<g id="a_edge3"><a xlink:title="e15">
<path fill="none" stroke="blue" d="M140.3,-495.84C145.26,-486.46 150.76,-476.06 155.21,-467.63"/>
<polygon fill="blue" stroke="blue" points="137.16,-494.29 135.58,-504.76 143.35,-497.56 137.16,-494.29"/>
</a>
</g>
</g>
<!-- Cut1&#45;&gt;!p3 -->
<g id="edge22" class="edge">
<title>Cut1&#45;&gt;!p3</title>
<g id="a_edge22"><a xlink:title="e9">
<path fill="none" stroke="red" d="M134.98,-591C133.61,-579.33 131.77,-563.67 130.2,-550.32"/>
<polygon fill="red" stroke="red" points="133.66,-549.75 129.02,-540.23 126.71,-550.57 133.66,-549.75"/>
</a>
</g>
</g>
<!-- !d2 -->
<g id="node15" class="node">
<title>!d2</title>
<ellipse fill="none" stroke="black" cx="63" cy="-306" rx="27" ry="18"/>
<text text-anchor="middle" x="63" y="-302.3" font-family="Times-Roman" font-size="14.00">!d</text>
</g>
<!-- !d2&#45;&gt;!p3 -->
<g id="edge2" class="edge">
<title>!d2&#45;&gt;!p3</title>
<g id="a_edge2"><a xlink:title="e13">
<path fill="none" stroke="blue" d="M53.73,-333.57C43.76,-366.93 32.09,-425.01 54,-468 64.53,-488.65 87.28,-503.14 104.61,-511.69"/>
<polygon fill="blue" stroke="blue" points="57.18,-334.24 56.86,-323.65 50.51,-332.14 57.18,-334.24"/>
</a>
</g>
</g>
<!-- PiL0 -->
<g id="node16" class="node">
<title>PiL0</title>
<ellipse fill="none" stroke="black" cx="90" cy="-378" rx="27" ry="18"/>
<text text-anchor="middle" x="90" y="-374.3" font-family="Times-Roman" font-size="14.00">PiL</text>
</g>
<!-- PiL0&#45;&gt;!d2 -->
<g id="edge4" class="edge">
<title>PiL0&#45;&gt;!d2</title>
<g id="a_edge4"><a xlink:title="e17">
<path fill="none" stroke="blue" d="M79.99,-351.06C76.5,-342.01 72.68,-332.09 69.54,-323.96"/>
<polygon fill="blue" stroke="blue" points="76.74,-352.34 83.6,-360.41 83.27,-349.82 76.74,-352.34"/>
</a>
</g>
</g>
<!-- Dup0_0 -->
<g id="node18" class="node">
<title>Dup0_0</title>
<ellipse fill="none" stroke="black" cx="164" cy="-306" rx="29.5" ry="18"/>
<text text-anchor="middle" x="164" y="-302.3" font-family="Times-Roman" font-size="14.00">Dup</text>
</g>
<!-- PiL0&#45;&gt;Dup0_0 -->
<g id="edge8" class="edge">
<title>PiL0&#45;&gt;Dup0_0</title>
<g id="a_edge8"><a xlink:title="e21">
<path fill="none" stroke="red" d="M104.98,-362.83C115.84,-352.56 130.68,-338.52 142.76,-327.09"/>
<ellipse fill="none" stroke="red" cx="145.89" cy="-324.13" rx="4" ry="4"/>
</a>
</g>
</g>
<!-- I3&#45;&gt;PiL0 -->
<g id="edge6" class="edge">
<title>I3&#45;&gt;PiL0</title>
<g id="a_edge6"><a xlink:title="e19">
<path fill="none" stroke="blue" d="M90,-421.67C90,-413.05 90,-403.79 90,-396.1"/>
<polygon fill="blue" stroke="blue" points="86.5,-421.7 90,-431.7 93.5,-421.7 86.5,-421.7"/>
</a>
</g>
</g>
<!-- Dup0_0&#45;&gt;!p1 -->
<g id="edge24" class="edge">
<title>Dup0_0&#45;&gt;!p1</title>
<g id="a_edge24"><a xlink:title="hl2p">
<path fill="none" stroke="red" d="M164,-287.7C164,-279.98 164,-270.71 164,-262.11"/>
<polygon fill="red" stroke="red" points="167.5,-262.1 164,-252.1 160.5,-262.1 167.5,-262.1"/>
</a>
</g>
</g>
<!-- PiL1&#45;&gt;!p0 -->
<g id="edge37" class="edge">
<title>PiL1&#45;&gt;!p0</title>
<g id="a_edge37"><a xlink:title="ylp">
<path fill="none" stroke="red" d="M271.07,-758.77C238.75,-746.48 179.64,-723.99 142.72,-709.94"/>
<polygon fill="red" stroke="red" points="143.52,-706.5 132.93,-706.22 141.03,-713.05 143.52,-706.5"/>
</a>
</g>
</g>
<!-- Dup1_2 -->
<g id="node28" class="node">
<title>Dup1_2</title>
<ellipse fill="none" stroke="black" cx="294" cy="-609.25" rx="29.47" ry="29.47"/>
<ellipse fill="none" stroke="black" cx="294" cy="-609.25" rx="33.5" ry="33.5"/>
<text text-anchor="middle" x="294" y="-605.55" font-family="Times-Roman" font-size="14.00">Dup</text>
</g>
<!-- PiL1&#45;&gt;Dup1_2 -->
<g id="edge5" class="edge">
<title>PiL1&#45;&gt;Dup1_2</title>
<g id="a_edge5"><a xlink:title="e18">
<path fill="none" stroke="blue" stroke-width="2" d="M294,-740.04C294,-712.89 294,-671.36 294,-642.62"/>
<polygon fill="blue" stroke="blue" stroke-width="2" points="290.5,-740.37 294,-750.37 297.5,-740.37 290.5,-740.37"/>
</a>
</g>
</g>
<!-- !c0 -->
<g id="node20" class="node">
<title>!c0</title>
<ellipse fill="none" stroke="black" cx="372" cy="-378" rx="27" ry="18"/>
<text text-anchor="middle" x="372" y="-374.3" font-family="Times-Roman" font-size="14.00">!c</text>
</g>
<!-- !c0&#45;&gt;Cut0 -->
<g id="edge19" class="edge">
<title>!c0&#45;&gt;Cut0</title>
<g id="a_edge19"><a xlink:title="e4">
<path fill="none" stroke="blue" d="M372,-349.67C372,-341.05 372,-331.79 372,-324.1"/>
<polygon fill="blue" stroke="blue" points="368.5,-349.7 372,-359.7 375.5,-349.7 368.5,-349.7"/>
</a>
</g>
</g>
<!-- !c1 -->
<g id="node21" class="node">
<title>!c1</title>
<ellipse fill="none" stroke="black" cx="238" cy="-378" rx="27" ry="18"/>
<text text-anchor="middle" x="238" y="-374.3" font-family="Times-Roman" font-size="14.00">!c</text>
</g>
<!-- !c1&#45;&gt;PiR1 -->
<g id="edge20" class="edge">
<title>!c1&#45;&gt;PiR1</title>
<g id="a_edge20"><a xlink:title="e5">
<path fill="none" stroke="blue" d="M252.59,-352.18C271.41,-320.35 305.38,-263.59 336,-216 344.19,-203.28 353.83,-189.12 361.08,-178.63"/>
<polygon fill="blue" stroke="blue" points="249.54,-350.45 247.47,-360.84 255.57,-354.01 249.54,-350.45"/>
</a>
</g>
</g>
<!-- !d3 -->
<g id="node22" class="node">
<title>!d3</title>
<ellipse fill="none" stroke="black" cx="386" cy="-450" rx="27" ry="18"/>
<text text-anchor="middle" x="386" y="-446.3" font-family="Times-Roman" font-size="14.00">!d</text>
</g>
<!-- !d3&#45;&gt;!c0 -->
<g id="edge9" class="edge">
<title>!d3&#45;&gt;!c0</title>
<g id="a_edge9"><a xlink:title="e22">
<path fill="none" stroke="blue" d="M380.6,-422.01C378.87,-413.36 377.01,-404.03 375.46,-396.28"/>
<polygon fill="blue" stroke="blue" points="377.22,-422.94 382.61,-432.05 384.08,-421.56 377.22,-422.94"/>
</a>
</g>
</g>
<!-- !d4 -->
<g id="node23" class="node">
<title>!d4</title>
<ellipse fill="none" stroke="black" cx="238" cy="-450" rx="27" ry="18"/>
<text text-anchor="middle" x="238" y="-446.3" font-family="Times-Roman" font-size="14.00">!d</text>
</g>
<!-- !d4&#45;&gt;!c1 -->
<g id="edge11" class="edge">
<title>!d4&#45;&gt;!c1</title>
<g id="a_edge11"><a xlink:title="e24">
<path fill="none" stroke="blue" d="M238,-421.67C238,-413.05 238,-403.79 238,-396.1"/>
<polygon fill="blue" stroke="blue" points="234.5,-421.7 238,-431.7 241.5,-421.7 234.5,-421.7"/>
</a>
</g>
</g>
<!-- PiL2 -->
<g id="node24" class="node">
<title>PiL2</title>
<ellipse fill="none" stroke="black" cx="330" cy="-522" rx="27" ry="18"/>
<text text-anchor="middle" x="330" y="-518.3" font-family="Times-Roman" font-size="14.00">PiL</text>
</g>
<!-- PiL2&#45;&gt;!d3 -->
<g id="edge13" class="edge">
<title>PiL2&#45;&gt;!d3</title>
<g id="a_edge13"><a xlink:title="e26">
<path fill="none" stroke="blue" d="M348.5,-497.87C356.85,-487.44 366.47,-475.42 373.87,-466.16"/>
<polygon fill="blue" stroke="blue" points="345.67,-495.82 342.15,-505.81 351.13,-500.19 345.67,-495.82"/>
</a>
</g>
</g>
<!-- Dup1_3 -->
<g id="node29" class="node">
<title>Dup1_3</title>
<ellipse fill="none" stroke="black" cx="312" cy="-450" rx="29.5" ry="18"/>
<text text-anchor="middle" x="312" y="-446.3" font-family="Times-Roman" font-size="14.00">Dup</text>
</g>
<!-- PiL2&#45;&gt;Dup1_3 -->
<g id="edge17" class="edge">
<title>PiL2&#45;&gt;Dup1_3</title>
<g id="a_edge17"><a xlink:title="e30">
<path fill="none" stroke="red" d="M325.64,-504.05C323.49,-495.67 320.84,-485.38 318.45,-476.1"/>
<ellipse fill="red" stroke="red" cx="317.44" cy="-472.15" rx="4" ry="4"/>
</a>
</g>
</g>
<!-- PiL3 -->
<g id="node25" class="node">
<title>PiL3</title>
<ellipse fill="none" stroke="black" cx="258" cy="-522" rx="27" ry="18"/>
<text text-anchor="middle" x="258" y="-518.3" font-family="Times-Roman" font-size="14.00">PiL</text>
</g>
<!-- PiL3&#45;&gt;!d4 -->
<g id="edge14" class="edge">
<title>PiL3&#45;&gt;!d4</title>
<g id="a_edge14"><a xlink:title="e27">
<path fill="none" stroke="blue" d="M250.41,-494.43C247.85,-485.48 245.08,-475.76 242.8,-467.79"/>
<polygon fill="blue" stroke="blue" points="247.05,-495.4 253.16,-504.05 253.78,-493.48 247.05,-495.4"/>
</a>
</g>
</g>
<!-- PiL3&#45;&gt;Dup1_3 -->
<g id="edge18" class="edge">
<title>PiL3&#45;&gt;Dup1_3</title>
<g id="a_edge18"><a xlink:title="e31">
<path fill="none" stroke="red" d="M269.98,-505.46C277.33,-495.95 286.84,-483.62 294.95,-473.1"/>
<ellipse fill="none" stroke="red" cx="297.61" cy="-469.66" rx="4" ry="4"/>
</a>
</g>
</g>
<!-- Dup1_0&#45;&gt;I2 -->
<g id="edge25" class="edge">
<title>Dup1_0&#45;&gt;I2</title>
<g id="a_edge25"><a xlink:title="hr">
<path fill="none" stroke="red" stroke-width="2" d="M369.6,-894.91C366.49,-886.83 362.67,-876.93 359.17,-867.85"/>
<polygon fill="red" stroke="red" stroke-width="2" points="362.4,-866.52 355.54,-858.45 355.87,-869.04 362.4,-866.52"/>
</a>
</g>
</g>
<!-- Dup1_1&#45;&gt;!c0 -->
<g id="edge10" class="edge">
<title>Dup1_1&#45;&gt;!c0</title>
<g id="a_edge10"><a xlink:title="e23">
<path fill="none" stroke="blue" d="M194.36,-435.04C196.93,-433.97 199.5,-432.95 202,-432 252.89,-412.76 314.16,-394.92 347.48,-385.66"/>
<ellipse fill="blue" stroke="blue" cx="190.4" cy="-436.73" rx="4" ry="4"/>
</a>
</g>
</g>
<!-- Dup1_1&#45;&gt;!c1 -->
<g id="edge12" class="edge">
<title>Dup1_1&#45;&gt;!c1</title>
<g id="a_edge12"><a xlink:title="e25">
<path fill="none" stroke="blue" d="M185.34,-428.81C197.38,-417.43 212.12,-403.48 222.94,-393.25"/>
<ellipse fill="none" stroke="blue" cx="182.24" cy="-431.75" rx="4" ry="4"/>
</a>
</g>
</g>
<!-- Dup1_2&#45;&gt;PiL2 -->
<g id="edge15" class="edge">
<title>Dup1_2&#45;&gt;PiL2</title>
<g id="a_edge15"><a xlink:title="e28">
<path fill="none" stroke="blue" d="M309.76,-570.94C314.4,-559.95 319.24,-548.48 323.03,-539.51"/>
<ellipse fill="blue" stroke="blue" cx="308.15" cy="-574.75" rx="4" ry="4"/>
</a>
</g>
</g>
<!-- Dup1_2&#45;&gt;PiL3 -->
<g id="edge16" class="edge">
<title>Dup1_2&#45;&gt;PiL3</title>
<g id="a_edge16"><a xlink:title="e29">
<path fill="none" stroke="blue" d="M278.24,-570.94C273.6,-559.95 268.76,-548.48 264.97,-539.51"/>
<ellipse fill="none" stroke="blue" cx="279.85" cy="-574.75" rx="4" ry="4"/>
</a>
</g>
</g>
<!-- Dup1_3&#45;&gt;Dup0_0 -->
<g id="edge7" class="edge">
<title>Dup1_3&#45;&gt;Dup0_0</title>
<g id="a_edge7"><a xlink:title="e20">
<path fill="none" stroke="red" d="M308.53,-431.91C303.77,-412.36 293.5,-380.41 274,-360 253.47,-338.52 222.45,-324.67 198.58,-316.54"/>
<ellipse fill="red" stroke="red" cx="194.59" cy="-315.24" rx="4" ry="4"/>
</a>
</g>
</g>
</g>
</svg>
