<?xml version="1.0" encoding="UTF-8" standalone="no"?>
<!DOCTYPE svg PUBLIC "-//W3C//DTD SVG 1.1//EN"
 "http://www.w3.org/Graphics/SVG/1.1/DTD/svg11.dtd">
<!-- Generated by graphviz version 2.43.0 (0)
 -->
<!-- Title: %3 Pages: 1 -->
<svg width="630pt" height="1578pt"
 viewBox="0.00 0.00 630.00 1578.00" xmlns="http://www.w3.org/2000/svg" xmlns:xlink="http://www.w3.org/1999/xlink">
<g id="graph0" class="graph" transform="scale(1 1) rotate(0) translate(4 1574)">
<title>%3</title>
<polygon fill="white" stroke="transparent" points="-4,4 -4,-1574 626,-1574 626,4 -4,4"/>
<!-- I0 -->
<g id="node1" class="node">
<title>I0</title>
<ellipse fill="none" stroke="black" cx="82" cy="-1552" rx="27" ry="18"/>
<text text-anchor="middle" x="82" y="-1548.3" font-family="Times-Roman" font-size="14.00">I</text>
</g>
<!-- !d1 -->
<g id="node2" class="node">
<title>!d1</title>
<ellipse fill="none" stroke="black" cx="27" cy="-1465" rx="27" ry="18"/>
<text text-anchor="middle" x="27" y="-1461.3" font-family="Times-Roman" font-size="14.00">!d</text>
</g>
<!-- I0&#45;&gt;!d1 -->
<g id="edge8" class="edge">
<title>I0&#45;&gt;!d1</title>
<g id="a_edge8"><a xlink:title="iret84">
<path fill="none" stroke="blue" d="M65.99,-1526.71C63.64,-1523.12 61.25,-1519.46 59,-1516 51.6,-1504.58 43.32,-1491.64 37.04,-1481.79"/>
<polygon fill="blue" stroke="blue" points="63.24,-1528.9 71.66,-1535.34 69.09,-1525.06 63.24,-1528.9"/>
</a>
</g>
<text text-anchor="middle" x="63.5" y="-1504.8" font-family="Times-Roman" font-size="14.00">3</text>
</g>
<!-- λ2 -->
<g id="node3" class="node">
<title>λ2</title>
<ellipse fill="none" stroke="black" cx="82" cy="-1378" rx="27" ry="18"/>
<text text-anchor="middle" x="82" y="-1374.3" font-family="Times-Roman" font-size="14.00">λ</text>
</g>
<!-- !d1&#45;&gt;λ2 -->
<g id="edge7" class="edge">
<title>!d1&#45;&gt;λ2</title>
<g id="a_edge7"><a xlink:title="i81">
<path fill="none" stroke="blue" d="M42.58,-1439.52C47.78,-1431.39 53.62,-1422.29 59,-1414 63.11,-1407.65 67.68,-1400.69 71.66,-1394.65"/>
<polygon fill="blue" stroke="blue" points="39.47,-1437.89 37.04,-1448.2 45.37,-1441.65 39.47,-1437.89"/>
</a>
</g>
<text text-anchor="middle" x="63.5" y="-1417.8" font-family="Times-Roman" font-size="14.00">3</text>
</g>
<!-- λ2&#45;&gt;I0 -->
<g id="edge32" class="edge">
<title>λ2&#45;&gt;I0</title>
<g id="a_edge32"><a xlink:title="ret82">
<path fill="none" stroke="red" d="M82,-1396.05C82,-1425.88 82,-1487.76 82,-1523.64"/>
<polygon fill="red" stroke="red" points="78.5,-1523.87 82,-1533.87 85.5,-1523.87 78.5,-1523.87"/>
</a>
</g>
</g>
<!-- !p3 -->
<g id="node4" class="node">
<title>!p3</title>
<ellipse fill="none" stroke="black" cx="137" cy="-1465" rx="27" ry="18"/>
<text text-anchor="middle" x="137" y="-1461.3" font-family="Times-Roman" font-size="14.00">!p</text>
</g>
<!-- !p3&#45;&gt;λ2 -->
<g id="edge24" class="edge">
<title>!p3&#45;&gt;λ2</title>
<g id="a_edge24"><a xlink:title="newrretf78">
<path fill="none" stroke="red" d="M126.65,-1448.01C118.51,-1435.42 107.03,-1417.67 97.74,-1403.33"/>
<polygon fill="red" stroke="red" points="100.67,-1401.41 92.3,-1394.91 94.79,-1405.21 100.67,-1401.41"/>
</a>
</g>
<text text-anchor="middle" x="117.5" y="-1417.8" font-family="Times-Roman" font-size="14.00">3</text>
</g>
<!-- I4 -->
<g id="node5" class="node">
<title>I4</title>
<ellipse fill="none" stroke="black" cx="194" cy="-1117" rx="27" ry="18"/>
<text text-anchor="middle" x="194" y="-1113.3" font-family="Times-Roman" font-size="14.00">I</text>
</g>
<!-- @5 -->
<g id="node6" class="node">
<title>@5</title>
<ellipse fill="none" stroke="black" cx="167" cy="-1552" rx="27" ry="18"/>
<text text-anchor="middle" x="167" y="-1548.3" font-family="Times-Roman" font-size="14.00">@</text>
</g>
<!-- I4&#45;&gt;@5 -->
<g id="edge12" class="edge">
<title>I4&#45;&gt;@5</title>
<g id="a_edge12"><a xlink:title="lret75">
<path fill="none" stroke="blue" d="M193.03,-1145.39C192.52,-1162.04 192,-1183.74 192,-1203 192,-1466 192,-1466 192,-1466 192,-1490.61 182.23,-1517.66 174.91,-1534.48"/>
<polygon fill="blue" stroke="blue" points="196.53,-1145.36 193.36,-1135.25 189.53,-1145.13 196.53,-1145.36"/>
</a>
</g>
</g>
<!-- @5&#45;&gt;!p3 -->
<g id="edge19" class="edge">
<title>@5&#45;&gt;!p3</title>
<g id="a_edge19"><a xlink:title="newrret74">
<path fill="none" stroke="red" d="M161.07,-1534.2C156.88,-1522.33 151.18,-1506.16 146.37,-1492.55"/>
<polygon fill="red" stroke="red" points="149.54,-1491.02 142.91,-1482.75 142.94,-1493.35 149.54,-1491.02"/>
</a>
</g>
<text text-anchor="middle" x="158.5" y="-1504.8" font-family="Times-Roman" font-size="14.00">2</text>
</g>
<!-- Cut8 -->
<g id="node9" class="node">
<title>Cut8</title>
<ellipse fill="none" stroke="black" cx="248" cy="-1465" rx="27" ry="18"/>
<text text-anchor="middle" x="248" y="-1461.3" font-family="Times-Roman" font-size="14.00">Cut</text>
</g>
<!-- @5&#45;&gt;Cut8 -->
<g id="edge15" class="edge">
<title>@5&#45;&gt;Cut8</title>
<g id="a_edge15"><a xlink:title="lval70">
<path fill="none" stroke="blue" d="M191.11,-1530.32C196.15,-1525.73 201.35,-1520.8 206,-1516 216.72,-1504.92 227.91,-1491.5 236.03,-1481.35"/>
<polygon fill="blue" stroke="blue" points="188.55,-1527.92 183.41,-1537.18 193.21,-1533.14 188.55,-1527.92"/>
</a>
</g>
</g>
<!-- I6 -->
<g id="node7" class="node">
<title>I6</title>
<ellipse fill="none" stroke="black" cx="248" cy="-1378" rx="27" ry="18"/>
<text text-anchor="middle" x="248" y="-1374.3" font-family="Times-Roman" font-size="14.00">I</text>
</g>
<!-- !d7 -->
<g id="node8" class="node">
<title>!d7</title>
<ellipse fill="none" stroke="black" cx="248" cy="-1291" rx="27" ry="18"/>
<text text-anchor="middle" x="248" y="-1287.3" font-family="Times-Roman" font-size="14.00">!d</text>
</g>
<!-- I6&#45;&gt;!d7 -->
<g id="edge6" class="edge">
<title>I6&#45;&gt;!d7</title>
<g id="a_edge6"><a xlink:title="hret73">
<path fill="none" stroke="blue" d="M248,-1349.73C248,-1336.41 248,-1320.8 248,-1309.17"/>
<polygon fill="blue" stroke="blue" points="244.5,-1349.79 248,-1359.79 251.5,-1349.79 244.5,-1349.79"/>
</a>
</g>
<text text-anchor="middle" x="252.5" y="-1330.8" font-family="Times-Roman" font-size="14.00">2</text>
</g>
<!-- !p9 -->
<g id="node10" class="node">
<title>!p9</title>
<ellipse fill="none" stroke="black" cx="249" cy="-1204" rx="27" ry="18"/>
<text text-anchor="middle" x="249" y="-1200.3" font-family="Times-Roman" font-size="14.00">!p</text>
</g>
<!-- !d7&#45;&gt;!p9 -->
<g id="edge5" class="edge">
<title>!d7&#45;&gt;!p9</title>
<g id="a_edge5"><a xlink:title="hf65">
<path fill="none" stroke="blue" d="M248.32,-1262.73C248.48,-1249.41 248.66,-1233.8 248.8,-1222.17"/>
<polygon fill="blue" stroke="blue" points="244.82,-1262.75 248.2,-1272.79 251.82,-1262.84 244.82,-1262.75"/>
</a>
</g>
<text text-anchor="middle" x="252.5" y="-1243.8" font-family="Times-Roman" font-size="14.00">1</text>
</g>
<!-- Cut8&#45;&gt;I6 -->
<g id="edge34" class="edge">
<title>Cut8&#45;&gt;I6</title>
<g id="a_edge34"><a xlink:title="rval71">
<path fill="none" stroke="red" d="M248,-1446.79C248,-1435.16 248,-1419.54 248,-1406.23"/>
<polygon fill="red" stroke="red" points="251.5,-1406.17 248,-1396.17 244.5,-1406.17 251.5,-1406.17"/>
</a>
</g>
</g>
<!-- !p9&#45;&gt;I4 -->
<g id="edge23" class="edge">
<title>!p9&#45;&gt;I4</title>
<g id="a_edge23"><a xlink:title="newrretf66">
<path fill="none" stroke="red" d="M238.66,-1187.34C234.68,-1181.31 230.11,-1174.34 226,-1168 220.62,-1159.7 214.78,-1150.61 209.58,-1142.47"/>
<polygon fill="red" stroke="red" points="212.37,-1140.34 204.04,-1133.79 206.47,-1144.1 212.37,-1140.34"/>
</a>
</g>
<text text-anchor="middle" x="230.5" y="-1156.8" font-family="Times-Roman" font-size="14.00">2</text>
</g>
<!-- Dup33 -->
<g id="node34" class="node">
<title>Dup33</title>
<ellipse fill="none" stroke="black" cx="306" cy="-1117" rx="28.7" ry="18"/>
<text text-anchor="middle" x="306" y="-1113.3" font-family="Times-Roman" font-size="14.00">Dup</text>
</g>
<!-- !p9&#45;&gt;Dup33 -->
<g id="edge4" class="edge">
<title>!p9&#45;&gt;Dup33</title>
<g id="a_edge4"><a xlink:title="h34">
<path fill="none" stroke="blue" d="M265.37,-1178.58C275,-1164.22 286.9,-1146.48 295.33,-1133.91"/>
<polygon fill="blue" stroke="blue" points="262.38,-1176.75 259.72,-1187.01 268.2,-1180.65 262.38,-1176.75"/>
</a>
</g>
<text text-anchor="middle" x="284.5" y="-1156.8" font-family="Times-Roman" font-size="14.00">1</text>
</g>
<!-- I10 -->
<g id="node11" class="node">
<title>I10</title>
<ellipse fill="none" stroke="black" cx="349" cy="-658" rx="27" ry="18"/>
<text text-anchor="middle" x="349" y="-654.3" font-family="Times-Roman" font-size="14.00">I</text>
</g>
<!-- Cut27 -->
<g id="node28" class="node">
<title>Cut27</title>
<ellipse fill="none" stroke="black" cx="349" cy="-585" rx="27" ry="18"/>
<text text-anchor="middle" x="349" y="-581.3" font-family="Times-Roman" font-size="14.00">Cut</text>
</g>
<!-- I10&#45;&gt;Cut27 -->
<g id="edge11" class="edge">
<title>I10&#45;&gt;Cut27</title>
<g id="a_edge11"><a xlink:title="lret62">
<path fill="none" stroke="blue" d="M349,-629.75C349,-620.77 349,-611.03 349,-603.03"/>
<polygon fill="blue" stroke="blue" points="345.5,-629.81 349,-639.81 352.5,-629.81 345.5,-629.81"/>
</a>
</g>
</g>
<!-- I11 -->
<g id="node12" class="node">
<title>I11</title>
<ellipse fill="none" stroke="black" cx="349" cy="-265" rx="27" ry="18"/>
<text text-anchor="middle" x="349" y="-261.3" font-family="Times-Roman" font-size="14.00">I</text>
</g>
<!-- !d12 -->
<g id="node13" class="node">
<title>!d12</title>
<ellipse fill="none" stroke="black" cx="327" cy="-178" rx="27" ry="18"/>
<text text-anchor="middle" x="327" y="-174.3" font-family="Times-Roman" font-size="14.00">!d</text>
</g>
<!-- I11&#45;&gt;!d12 -->
<g id="edge44" class="edge">
<title>I11&#45;&gt;!d12</title>
<g id="a_edge44"><a xlink:title="yret60">
<path fill="none" stroke="blue" d="M342.13,-237.47C338.63,-223.95 334.48,-207.91 331.41,-196.05"/>
<polygon fill="blue" stroke="blue" points="338.76,-238.4 344.65,-247.21 345.54,-236.65 338.76,-238.4"/>
</a>
</g>
<text text-anchor="middle" x="343.5" y="-217.8" font-family="Times-Roman" font-size="14.00">2</text>
</g>
<!-- !p13 -->
<g id="node14" class="node">
<title>!p13</title>
<ellipse fill="none" stroke="black" cx="349" cy="-352" rx="27" ry="18"/>
<text text-anchor="middle" x="349" y="-348.3" font-family="Times-Roman" font-size="14.00">!p</text>
</g>
<!-- !d12&#45;&gt;!p13 -->
<g id="edge42" class="edge">
<title>!d12&#45;&gt;!p13</title>
<g id="a_edge42"><a xlink:title="yBf56">
<path fill="none" stroke="blue" d="M314.05,-204.71C305.09,-225.93 296.09,-256.71 304,-283 310.12,-303.33 324.52,-323.19 335.39,-336.14"/>
<polygon fill="blue" stroke="blue" points="317.33,-205.96 318.24,-195.41 310.94,-203.09 317.33,-205.96"/>
</a>
</g>
<text text-anchor="middle" x="308.5" y="-261.3" font-family="Times-Roman" font-size="14.00">1</text>
</g>
<!-- !p13&#45;&gt;I11 -->
<g id="edge22" class="edge">
<title>!p13&#45;&gt;I11</title>
<g id="a_edge22"><a xlink:title="newrretf57">
<path fill="none" stroke="red" d="M349,-333.8C349,-322.16 349,-306.55 349,-293.24"/>
<polygon fill="red" stroke="red" points="352.5,-293.18 349,-283.18 345.5,-293.18 352.5,-293.18"/>
</a>
</g>
<text text-anchor="middle" x="353.5" y="-304.8" font-family="Times-Roman" font-size="14.00">2</text>
</g>
<!-- !c19 -->
<g id="node20" class="node">
<title>!c19</title>
<ellipse fill="none" stroke="black" cx="404" cy="-91" rx="27" ry="18"/>
<text text-anchor="middle" x="404" y="-87.3" font-family="Times-Roman" font-size="14.00">!c</text>
</g>
<!-- !p13&#45;&gt;!c19 -->
<g id="edge41" class="edge">
<title>!p13&#45;&gt;!c19</title>
<g id="a_edge41"><a xlink:title="yB44">
<path fill="none" stroke="blue" d="M365,-326.41C372.34,-313.91 380.42,-298.18 385,-283 402.04,-226.52 404.6,-156.82 404.56,-119.19"/>
<polygon fill="blue" stroke="blue" points="361.81,-324.92 359.6,-335.28 367.79,-328.56 361.81,-324.92"/>
<polygon fill="blue" stroke="blue" points="407.98,-109 404.55,-119.03 400.98,-109.06 407.98,-109"/>
</a>
</g>
<text text-anchor="middle" x="402.5" y="-217.8" font-family="Times-Roman" font-size="14.00">1</text>
</g>
<!-- I14 -->
<g id="node15" class="node">
<title>I14</title>
<ellipse fill="none" stroke="black" cx="349" cy="-512" rx="27" ry="18"/>
<text text-anchor="middle" x="349" y="-508.3" font-family="Times-Roman" font-size="14.00">I</text>
</g>
<!-- @15 -->
<g id="node16" class="node">
<title>@15</title>
<ellipse fill="none" stroke="black" cx="349" cy="-439" rx="27" ry="18"/>
<text text-anchor="middle" x="349" y="-435.3" font-family="Times-Roman" font-size="14.00">@</text>
</g>
<!-- I14&#45;&gt;@15 -->
<g id="edge10" class="edge">
<title>I14&#45;&gt;@15</title>
<g id="a_edge10"><a xlink:title="lret53">
<path fill="none" stroke="blue" d="M349,-483.75C349,-474.77 349,-465.03 349,-457.03"/>
<polygon fill="blue" stroke="blue" points="345.5,-483.81 349,-493.81 352.5,-483.81 345.5,-483.81"/>
</a>
</g>
</g>
<!-- @15&#45;&gt;!p13 -->
<g id="edge17" class="edge">
<title>@15&#45;&gt;!p13</title>
<g id="a_edge17"><a xlink:title="newrret52">
<path fill="none" stroke="red" d="M349,-420.8C349,-409.16 349,-393.55 349,-380.24"/>
<polygon fill="red" stroke="red" points="352.5,-380.18 349,-370.18 345.5,-380.18 352.5,-380.18"/>
</a>
</g>
<text text-anchor="middle" x="353.5" y="-391.8" font-family="Times-Roman" font-size="14.00">1</text>
</g>
<!-- Cut18 -->
<g id="node19" class="node">
<title>Cut18</title>
<ellipse fill="none" stroke="black" cx="459" cy="-352" rx="27" ry="18"/>
<text text-anchor="middle" x="459" y="-348.3" font-family="Times-Roman" font-size="14.00">Cut</text>
</g>
<!-- @15&#45;&gt;Cut18 -->
<g id="edge14" class="edge">
<title>@15&#45;&gt;Cut18</title>
<g id="a_edge14"><a xlink:title="lval48">
<path fill="none" stroke="blue" d="M374.25,-418.49C395,-402.46 423.82,-380.19 441.93,-366.19"/>
<polygon fill="blue" stroke="blue" points="371.96,-415.83 366.19,-424.72 376.24,-421.37 371.96,-415.83"/>
</a>
</g>
</g>
<!-- I16 -->
<g id="node17" class="node">
<title>I16</title>
<ellipse fill="none" stroke="black" cx="459" cy="-265" rx="27" ry="18"/>
<text text-anchor="middle" x="459" y="-261.3" font-family="Times-Roman" font-size="14.00">I</text>
</g>
<!-- !d17 -->
<g id="node18" class="node">
<title>!d17</title>
<ellipse fill="none" stroke="black" cx="459" cy="-178" rx="27" ry="18"/>
<text text-anchor="middle" x="459" y="-174.3" font-family="Times-Roman" font-size="14.00">!d</text>
</g>
<!-- I16&#45;&gt;!d17 -->
<g id="edge43" class="edge">
<title>I16&#45;&gt;!d17</title>
<g id="a_edge43"><a xlink:title="yret51">
<path fill="none" stroke="blue" d="M459,-236.73C459,-223.42 459,-207.81 459,-196.18"/>
<polygon fill="blue" stroke="blue" points="455.5,-236.8 459,-246.8 462.5,-236.8 455.5,-236.8"/>
</a>
</g>
<text text-anchor="middle" x="463.5" y="-217.8" font-family="Times-Roman" font-size="14.00">1</text>
</g>
<!-- !d17&#45;&gt;!c19 -->
<g id="edge40" class="edge">
<title>!d17&#45;&gt;!c19</title>
<g id="a_edge40"><a xlink:title="yA43">
<path fill="none" stroke="blue" d="M443.2,-152.59C433.91,-138.23 422.43,-120.48 414.3,-107.92"/>
<polygon fill="blue" stroke="blue" points="440.28,-154.52 448.65,-161.01 446.16,-150.72 440.28,-154.52"/>
</a>
</g>
<text text-anchor="middle" x="438.5" y="-130.8" font-family="Times-Roman" font-size="14.00">1</text>
</g>
<!-- Cut18&#45;&gt;I16 -->
<g id="edge33" class="edge">
<title>Cut18&#45;&gt;I16</title>
<g id="a_edge33"><a xlink:title="rval49">
<path fill="none" stroke="red" d="M459,-333.8C459,-322.16 459,-306.55 459,-293.24"/>
<polygon fill="red" stroke="red" points="462.5,-293.18 459,-283.18 455.5,-293.18 462.5,-293.18"/>
</a>
</g>
</g>
<!-- Cut26 -->
<g id="node27" class="node">
<title>Cut26</title>
<ellipse fill="none" stroke="black" cx="249" cy="-18" rx="27" ry="18"/>
<text text-anchor="middle" x="249" y="-14.3" font-family="Times-Roman" font-size="14.00">Cut</text>
</g>
<!-- !c19&#45;&gt;Cut26 -->
<g id="edge39" class="edge">
<title>!c19&#45;&gt;Cut26</title>
<g id="a_edge39"><a xlink:title="y41">
<path fill="none" stroke="blue" d="M373.2,-75.89C342.96,-62.04 297.59,-41.26 270.87,-29.02"/>
<polygon fill="blue" stroke="blue" points="371.9,-79.15 382.45,-80.13 374.81,-72.78 371.9,-79.15"/>
</a>
</g>
</g>
<!-- I20 -->
<g id="node21" class="node">
<title>I20</title>
<ellipse fill="none" stroke="black" cx="566" cy="-1018" rx="27" ry="18"/>
<text text-anchor="middle" x="566" y="-1014.3" font-family="Times-Roman" font-size="14.00">I</text>
</g>
<!-- !d21 -->
<g id="node22" class="node">
<title>!d21</title>
<ellipse fill="none" stroke="black" cx="595" cy="-919" rx="27" ry="18"/>
<text text-anchor="middle" x="595" y="-915.3" font-family="Times-Roman" font-size="14.00">!d</text>
</g>
<!-- I20&#45;&gt;!d21 -->
<g id="edge38" class="edge">
<title>I20&#45;&gt;!d21</title>
<g id="a_edge38"><a xlink:title="xret26">
<path fill="none" stroke="blue" d="M574.03,-990.13C579.15,-973.02 585.62,-951.38 590.01,-936.7"/>
<polygon fill="blue" stroke="blue" points="570.56,-989.52 571.05,-1000.1 577.27,-991.52 570.56,-989.52"/>
</a>
</g>
<text text-anchor="middle" x="587.5" y="-958.8" font-family="Times-Roman" font-size="14.00">1</text>
</g>
<!-- !p22 -->
<g id="node23" class="node">
<title>!p22</title>
<ellipse fill="none" stroke="black" cx="566" cy="-1117" rx="27" ry="18"/>
<text text-anchor="middle" x="566" y="-1113.3" font-family="Times-Roman" font-size="14.00">!p</text>
</g>
<!-- !d21&#45;&gt;!p22 -->
<g id="edge37" class="edge">
<title>!d21&#45;&gt;!p22</title>
<g id="a_edge37"><a xlink:title="xBf22">
<path fill="none" stroke="blue" d="M601,-946.81C605.81,-973.01 610.49,-1013.83 602,-1048 597.2,-1067.31 585.79,-1087.18 577.1,-1100.41"/>
<polygon fill="blue" stroke="blue" points="604.41,-946 599.04,-936.87 597.54,-947.35 604.41,-946"/>
</a>
</g>
<text text-anchor="middle" x="610.5" y="-1014.3" font-family="Times-Roman" font-size="14.00">0</text>
</g>
<!-- !p22&#45;&gt;I20 -->
<g id="edge21" class="edge">
<title>!p22&#45;&gt;I20</title>
<g id="a_edge21"><a xlink:title="newrretf23">
<path fill="none" stroke="red" d="M566,-1098.65C566,-1084.17 566,-1063.26 566,-1046.5"/>
<polygon fill="red" stroke="red" points="569.5,-1046.19 566,-1036.19 562.5,-1046.19 569.5,-1046.19"/>
</a>
</g>
<text text-anchor="middle" x="570.5" y="-1069.8" font-family="Times-Roman" font-size="14.00">1</text>
</g>
<!-- Cut29 -->
<g id="node30" class="node">
<title>Cut29</title>
<ellipse fill="none" stroke="black" cx="494" cy="-1018" rx="27" ry="18"/>
<text text-anchor="middle" x="494" y="-1014.3" font-family="Times-Roman" font-size="14.00">Cut</text>
</g>
<!-- !p22&#45;&gt;Cut29 -->
<g id="edge36" class="edge">
<title>!p22&#45;&gt;Cut29</title>
<g id="a_edge36"><a xlink:title="xB10">
<path fill="none" stroke="blue" d="M548.3,-1092.15C534.97,-1074.19 517.08,-1050.08 505.54,-1034.54"/>
<polygon fill="blue" stroke="blue" points="545.66,-1094.47 554.43,-1100.41 551.28,-1090.3 545.66,-1094.47"/>
</a>
</g>
<text text-anchor="middle" x="542.5" y="-1069.8" font-family="Times-Roman" font-size="14.00">0</text>
</g>
<!-- I23 -->
<g id="node24" class="node">
<title>I23</title>
<ellipse fill="none" stroke="black" cx="566" cy="-1291" rx="27" ry="18"/>
<text text-anchor="middle" x="566" y="-1287.3" font-family="Times-Roman" font-size="14.00">I</text>
</g>
<!-- @24 -->
<g id="node25" class="node">
<title>@24</title>
<ellipse fill="none" stroke="black" cx="566" cy="-1204" rx="27" ry="18"/>
<text text-anchor="middle" x="566" y="-1200.3" font-family="Times-Roman" font-size="14.00">@</text>
</g>
<!-- I23&#45;&gt;@24 -->
<g id="edge9" class="edge">
<title>I23&#45;&gt;@24</title>
<g id="a_edge9"><a xlink:title="lret19">
<path fill="none" stroke="blue" stroke-width="2" d="M566,-1262.73C566,-1249.41 566,-1233.8 566,-1222.17"/>
<polygon fill="blue" stroke="blue" stroke-width="2" points="562.5,-1262.79 566,-1272.79 569.5,-1262.79 562.5,-1262.79"/>
</a>
</g>
</g>
<!-- @24&#45;&gt;!p22 -->
<g id="edge16" class="edge">
<title>@24&#45;&gt;!p22</title>
<g id="a_edge16"><a xlink:title="newrret18">
<path fill="none" stroke="red" d="M566,-1185.79C566,-1174.16 566,-1158.54 566,-1145.23"/>
<polygon fill="red" stroke="red" points="569.5,-1145.17 566,-1135.17 562.5,-1145.17 569.5,-1145.17"/>
</a>
</g>
<text text-anchor="middle" x="570.5" y="-1156.8" font-family="Times-Roman" font-size="14.00">0</text>
</g>
<!-- Cut30 -->
<g id="node31" class="node">
<title>Cut30</title>
<ellipse fill="none" stroke="black" cx="419" cy="-1018" rx="26" ry="26"/>
<ellipse fill="none" stroke="black" cx="419" cy="-1018" rx="30" ry="30"/>
<text text-anchor="middle" x="419" y="-1014.3" font-family="Times-Roman" font-size="14.00">Cut</text>
</g>
<!-- @24&#45;&gt;Cut30 -->
<g id="edge13" class="edge">
<title>@24&#45;&gt;Cut30</title>
<g id="a_edge13"><a xlink:title="lval14">
<path fill="none" stroke="blue" stroke-width="2" d="M547.43,-1179.76C519.17,-1144.38 465.66,-1077.4 437.46,-1042.1"/>
<polygon fill="blue" stroke="blue" stroke-width="2" points="544.74,-1182 553.72,-1187.62 550.21,-1177.63 544.74,-1182"/>
</a>
</g>
</g>
<!-- Assign25 -->
<g id="node26" class="node">
<title>Assign25</title>
<ellipse fill="none" stroke="black" cx="566" cy="-1378" rx="38.99" ry="18"/>
<text text-anchor="middle" x="566" y="-1374.3" font-family="Times-Roman" font-size="14.00">Assign</text>
</g>
<!-- Assign25&#45;&gt;I23 -->
<g id="edge31" class="edge">
<title>Assign25&#45;&gt;I23</title>
<g id="a_edge31"><a xlink:title="ret8">
<path fill="none" stroke="red" stroke-width="2" d="M566,-1359.79C566,-1348.16 566,-1332.54 566,-1319.23"/>
<polygon fill="red" stroke="red" stroke-width="2" points="569.5,-1319.17 566,-1309.17 562.5,-1319.17 569.5,-1319.17"/>
</a>
</g>
</g>
<!-- Cut26&#45;&gt;!p9 -->
<g id="edge18" class="edge">
<title>Cut26&#45;&gt;!p9</title>
<g id="a_edge18"><a xlink:title="newrret61">
<path fill="none" stroke="red" d="M249,-36.22C249,-50.59 249,-71.63 249,-90 249,-1118 249,-1118 249,-1118 249,-1137.24 249,-1158.94 249,-1175.6"/>
<polygon fill="red" stroke="red" points="245.5,-1175.74 249,-1185.74 252.5,-1175.74 245.5,-1175.74"/>
</a>
</g>
<text text-anchor="middle" x="253.5" y="-581.3" font-family="Times-Roman" font-size="14.00">1</text>
</g>
<!-- Cut27&#45;&gt;I14 -->
<g id="edge30" class="edge">
<title>Cut27&#45;&gt;I14</title>
<g id="a_edge30"><a xlink:title="ret42">
<path fill="none" stroke="red" d="M349,-566.81C349,-558.79 349,-549.05 349,-540.07"/>
<polygon fill="red" stroke="red" points="352.5,-540.03 349,-530.03 345.5,-540.03 352.5,-540.03"/>
</a>
</g>
</g>
<!-- !p28 -->
<g id="node29" class="node">
<title>!p28</title>
<ellipse fill="none" stroke="black" cx="492" cy="-919" rx="27" ry="18"/>
<text text-anchor="middle" x="492" y="-915.3" font-family="Times-Roman" font-size="14.00">!p</text>
</g>
<!-- λ31 -->
<g id="node32" class="node">
<title>λ31</title>
<ellipse fill="none" stroke="black" cx="347" cy="-832" rx="27" ry="18"/>
<text text-anchor="middle" x="347" y="-828.3" font-family="Times-Roman" font-size="14.00">λ</text>
</g>
<!-- !p28&#45;&gt;λ31 -->
<g id="edge25" class="edge">
<title>!p28&#45;&gt;λ31</title>
<g id="a_edge25"><a xlink:title="newrretf92">
<path fill="none" stroke="red" d="M477.31,-903.27C465.78,-892.36 448.91,-877.76 432,-868 411.91,-856.4 404.4,-858.96 383,-850 381.18,-849.24 379.32,-848.44 377.46,-847.61"/>
<polygon fill="red" stroke="red" points="378.73,-844.35 368.18,-843.39 375.83,-850.72 378.73,-844.35"/>
</a>
</g>
<text text-anchor="middle" x="457.5" y="-871.8" font-family="Times-Roman" font-size="14.00">1</text>
</g>
<!-- Cut29&#45;&gt;!p28 -->
<g id="edge20" class="edge">
<title>Cut29&#45;&gt;!p28</title>
<g id="a_edge20"><a xlink:title="newrret94">
<path fill="none" stroke="red" d="M493.64,-999.66C493.34,-985.17 492.91,-964.26 492.57,-947.5"/>
<polygon fill="red" stroke="red" points="496.06,-947.12 492.35,-937.19 489.06,-947.26 496.06,-947.12"/>
</a>
</g>
<text text-anchor="middle" x="497.5" y="-958.8" font-family="Times-Roman" font-size="14.00">0</text>
</g>
<!-- λ35 -->
<g id="node36" class="node">
<title>λ35</title>
<ellipse fill="none" stroke="black" cx="419" cy="-919" rx="27" ry="18"/>
<text text-anchor="middle" x="419" y="-915.3" font-family="Times-Roman" font-size="14.00">λ</text>
</g>
<!-- Cut30&#45;&gt;λ35 -->
<g id="edge35" class="edge">
<title>Cut30&#45;&gt;λ35</title>
<g id="a_edge35"><a xlink:title="seqDM97">
<path fill="none" stroke="red" d="M419,-987.9C419,-975.12 419,-960.19 419,-947.6"/>
<polygon fill="red" stroke="red" points="422.5,-947.24 419,-937.24 415.5,-947.24 422.5,-947.24"/>
</a>
</g>
</g>
<!-- Dup34 -->
<g id="node35" class="node">
<title>Dup34</title>
<ellipse fill="none" stroke="black" cx="349" cy="-745" rx="28.7" ry="18"/>
<text text-anchor="middle" x="349" y="-741.3" font-family="Times-Roman" font-size="14.00">Dup</text>
</g>
<!-- λ31&#45;&gt;Dup34 -->
<g id="edge27" class="edge">
<title>λ31&#45;&gt;Dup34</title>
<g id="a_edge27"><a xlink:title="ret106">
<path fill="none" stroke="red" d="M347.4,-813.8C347.68,-802.16 348.05,-786.55 348.36,-773.24"/>
<polygon fill="none" stroke="red" points="351.86,-773.26 348.6,-763.18 344.86,-773.09 351.86,-773.26"/>
</a>
</g>
<text text-anchor="middle" x="352.5" y="-784.8" font-family="Times-Roman" font-size="14.00">1</text>
</g>
<!-- Dup32 -->
<g id="node33" class="node">
<title>Dup32</title>
<ellipse fill="none" stroke="black" cx="241" cy="-1552" rx="28.7" ry="18"/>
<text text-anchor="middle" x="241" y="-1548.3" font-family="Times-Roman" font-size="14.00">Dup</text>
</g>
<!-- Dup33&#45;&gt;λ31 -->
<g id="edge2" class="edge">
<title>Dup33&#45;&gt;λ31</title>
<g id="a_edge2"><a xlink:title="h105">
<path fill="none" stroke="blue" d="M304.61,-1088.71C303.72,-1062.7 303.45,-1022.51 308,-988 314.74,-936.83 332.28,-878.19 341.36,-849.95"/>
<polygon fill="none" stroke="blue" points="301.13,-1089.07 305.02,-1098.93 308.12,-1088.79 301.13,-1089.07"/>
</a>
</g>
<text text-anchor="middle" x="317.5" y="-958.8" font-family="Times-Roman" font-size="14.00">1</text>
</g>
<!-- Lift37 -->
<g id="node38" class="node">
<title>Lift37</title>
<ellipse fill="none" stroke="black" cx="344" cy="-1018" rx="27" ry="18"/>
<text text-anchor="middle" x="344" y="-1014.3" font-family="Times-Roman" font-size="14.00">Lift</text>
</g>
<!-- Dup33&#45;&gt;Lift37 -->
<g id="edge1" class="edge">
<title>Dup33&#45;&gt;Lift37</title>
<g id="a_edge1"><a xlink:title="h101">
<path fill="none" stroke="blue" d="M316.34,-1089.61C323.07,-1072.43 331.65,-1050.52 337.46,-1035.7"/>
<polygon fill="blue" stroke="blue" points="313.01,-1088.51 312.62,-1099.1 319.53,-1091.07 313.01,-1088.51"/>
</a>
</g>
<text text-anchor="middle" x="329.5" y="-1069.8" font-family="Times-Roman" font-size="14.00">1</text>
</g>
<!-- Dup34&#45;&gt;I10 -->
<g id="edge29" class="edge">
<title>Dup34&#45;&gt;I10</title>
<g id="a_edge29"><a xlink:title="ret35">
<path fill="none" stroke="red" d="M349,-726.8C349,-715.16 349,-699.55 349,-686.24"/>
<polygon fill="red" stroke="red" points="352.5,-686.18 349,-676.18 345.5,-686.18 352.5,-686.18"/>
</a>
</g>
<text text-anchor="middle" x="353.5" y="-697.8" font-family="Times-Roman" font-size="14.00">1</text>
</g>
<!-- Lift38 -->
<g id="node39" class="node">
<title>Lift38</title>
<ellipse fill="none" stroke="black" cx="419" cy="-832" rx="27" ry="18"/>
<text text-anchor="middle" x="419" y="-828.3" font-family="Times-Roman" font-size="14.00">Lift</text>
</g>
<!-- λ35&#45;&gt;Lift38 -->
<g id="edge28" class="edge">
<title>λ35&#45;&gt;Lift38</title>
<g id="a_edge28"><a xlink:title="ret110">
<path fill="none" stroke="red" d="M419,-900.8C419,-889.16 419,-873.55 419,-860.24"/>
<polygon fill="red" stroke="red" points="422.5,-860.18 419,-850.18 415.5,-860.18 422.5,-860.18"/>
</a>
</g>
<text text-anchor="middle" x="423.5" y="-871.8" font-family="Times-Roman" font-size="14.00">0</text>
</g>
<!-- Lift36 -->
<g id="node37" class="node">
<title>Lift36</title>
<ellipse fill="none" stroke="black" cx="315" cy="-1552" rx="27" ry="18"/>
<text text-anchor="middle" x="315" y="-1548.3" font-family="Times-Roman" font-size="14.00">Lift</text>
</g>
<!-- Lift37&#45;&gt;λ35 -->
<g id="edge3" class="edge">
<title>Lift37&#45;&gt;λ35</title>
<g id="a_edge3"><a xlink:title="h109">
<path fill="none" stroke="blue" d="M362.48,-993.1C376.46,-975.02 395.23,-950.74 407.23,-935.23"/>
<polygon fill="blue" stroke="blue" points="359.4,-991.36 356.05,-1001.41 364.94,-995.64 359.4,-991.36"/>
</a>
</g>
<text text-anchor="middle" x="394.5" y="-958.8" font-family="Times-Roman" font-size="14.00">0</text>
</g>
<!-- Lift38&#45;&gt;Dup34 -->
<g id="edge26" class="edge">
<title>Lift38&#45;&gt;Dup34</title>
<g id="a_edge26"><a xlink:title="ret102">
<path fill="none" stroke="red" d="M406.49,-815.8C395.8,-802.83 380.27,-783.97 368.04,-769.12"/>
<polygon fill="red" stroke="red" points="370.7,-766.85 361.64,-761.35 365.3,-771.3 370.7,-766.85"/>
</a>
</g>
<text text-anchor="middle" x="392.5" y="-784.8" font-family="Times-Roman" font-size="14.00">1</text>
</g>
</g>
</svg>
