<?xml version="1.0" encoding="UTF-8" standalone="no"?>
<!DOCTYPE svg PUBLIC "-//W3C//DTD SVG 1.1//EN"
 "http://www.w3.org/Graphics/SVG/1.1/DTD/svg11.dtd">
<!-- Generated by graphviz version 2.43.0 (0)
 -->
<!-- Title: %3 Pages: 1 -->
<svg width="467pt" height="1623pt"
 viewBox="0.00 0.00 467.00 1623.00" xmlns="http://www.w3.org/2000/svg" xmlns:xlink="http://www.w3.org/1999/xlink">
<g id="graph0" class="graph" transform="scale(1 1) rotate(0) translate(4 1619)">
<title>%3</title>
<polygon fill="white" stroke="transparent" points="-4,4 -4,-1619 463,-1619 463,4 -4,4"/>
<!-- I0 -->
<g id="node1" class="node">
<title>I0</title>
<ellipse fill="none" stroke="black" cx="82" cy="-1253" rx="27" ry="18"/>
<text text-anchor="middle" x="82" y="-1249.3" font-family="Times-Roman" font-size="14.00">I</text>
</g>
<!-- !d1 -->
<g id="node2" class="node">
<title>!d1</title>
<ellipse fill="none" stroke="black" cx="27" cy="-1166" rx="27" ry="18"/>
<text text-anchor="middle" x="27" y="-1162.3" font-family="Times-Roman" font-size="14.00">!d</text>
</g>
<!-- I0&#45;&gt;!d1 -->
<g id="edge5" class="edge">
<title>I0&#45;&gt;!d1</title>
<g id="a_edge5"><a xlink:title="iret84">
<path fill="none" stroke="blue" d="M65.99,-1227.71C63.64,-1224.13 61.25,-1220.47 59,-1217 51.6,-1205.59 43.32,-1192.65 37.04,-1182.79"/>
<polygon fill="blue" stroke="blue" points="63.24,-1229.91 71.66,-1236.35 69.09,-1226.07 63.24,-1229.91"/>
</a>
</g>
<text text-anchor="middle" x="63.5" y="-1205.8" font-family="Times-Roman" font-size="14.00">3</text>
</g>
<!-- λ2 -->
<g id="node3" class="node">
<title>λ2</title>
<ellipse fill="none" stroke="black" cx="82" cy="-1079" rx="27" ry="18"/>
<text text-anchor="middle" x="82" y="-1075.3" font-family="Times-Roman" font-size="14.00">λ</text>
</g>
<!-- !d1&#45;&gt;λ2 -->
<g id="edge4" class="edge">
<title>!d1&#45;&gt;λ2</title>
<g id="a_edge4"><a xlink:title="i81">
<path fill="none" stroke="blue" d="M42.58,-1140.52C47.78,-1132.39 53.62,-1123.29 59,-1115 63.11,-1108.66 67.68,-1101.69 71.66,-1095.65"/>
<polygon fill="blue" stroke="blue" points="39.47,-1138.89 37.04,-1149.21 45.37,-1142.66 39.47,-1138.89"/>
</a>
</g>
<text text-anchor="middle" x="63.5" y="-1118.8" font-family="Times-Roman" font-size="14.00">3</text>
</g>
<!-- λ2&#45;&gt;I0 -->
<g id="edge27" class="edge">
<title>λ2&#45;&gt;I0</title>
<g id="a_edge27"><a xlink:title="ret82">
<path fill="none" stroke="red" d="M82,-1097.05C82,-1126.88 82,-1188.76 82,-1224.64"/>
<polygon fill="red" stroke="red" points="78.5,-1224.88 82,-1234.88 85.5,-1224.88 78.5,-1224.88"/>
</a>
</g>
</g>
<!-- !p3 -->
<g id="node4" class="node">
<title>!p3</title>
<ellipse fill="none" stroke="black" cx="137" cy="-1166" rx="27" ry="18"/>
<text text-anchor="middle" x="137" y="-1162.3" font-family="Times-Roman" font-size="14.00">!p</text>
</g>
<!-- !p3&#45;&gt;λ2 -->
<g id="edge23" class="edge">
<title>!p3&#45;&gt;λ2</title>
<g id="a_edge23"><a xlink:title="newrretf78">
<path fill="none" stroke="red" d="M126.65,-1149.01C118.51,-1136.43 107.03,-1118.68 97.74,-1104.33"/>
<polygon fill="red" stroke="red" points="100.67,-1102.41 92.3,-1095.92 94.79,-1106.21 100.67,-1102.41"/>
</a>
</g>
<text text-anchor="middle" x="117.5" y="-1118.8" font-family="Times-Roman" font-size="14.00">3</text>
</g>
<!-- I4 -->
<g id="node5" class="node">
<title>I4</title>
<ellipse fill="none" stroke="black" cx="197" cy="-818" rx="27" ry="18"/>
<text text-anchor="middle" x="197" y="-814.3" font-family="Times-Roman" font-size="14.00">I</text>
</g>
<!-- @5 -->
<g id="node6" class="node">
<title>@5</title>
<ellipse fill="none" stroke="black" cx="173" cy="-1253" rx="27" ry="18"/>
<text text-anchor="middle" x="173" y="-1249.3" font-family="Times-Roman" font-size="14.00">@</text>
</g>
<!-- I4&#45;&gt;@5 -->
<g id="edge9" class="edge">
<title>I4&#45;&gt;@5</title>
<g id="a_edge9"><a xlink:title="lret75">
<path fill="none" stroke="blue" d="M194.57,-846.37C193.3,-863.02 192,-884.72 192,-904 192,-1167 192,-1167 192,-1167 192,-1191.19 184.58,-1218.35 179.01,-1235.31"/>
<polygon fill="blue" stroke="blue" points="198.07,-846.49 195.39,-836.24 191.1,-845.92 198.07,-846.49"/>
</a>
</g>
</g>
<!-- @5&#45;&gt;!p3 -->
<g id="edge18" class="edge">
<title>@5&#45;&gt;!p3</title>
<g id="a_edge18"><a xlink:title="newrret74">
<path fill="none" stroke="red" d="M165.89,-1235.21C160.78,-1223.14 153.79,-1206.64 147.97,-1192.89"/>
<polygon fill="red" stroke="red" points="151.1,-1191.31 143.98,-1183.47 144.65,-1194.04 151.1,-1191.31"/>
</a>
</g>
<text text-anchor="middle" x="162.5" y="-1205.8" font-family="Times-Roman" font-size="14.00">2</text>
</g>
<!-- Cut8 -->
<g id="node9" class="node">
<title>Cut8</title>
<ellipse fill="none" stroke="black" cx="247" cy="-1166" rx="27" ry="18"/>
<text text-anchor="middle" x="247" y="-1162.3" font-family="Times-Roman" font-size="14.00">Cut</text>
</g>
<!-- @5&#45;&gt;Cut8 -->
<g id="edge13" class="edge">
<title>@5&#45;&gt;Cut8</title>
<g id="a_edge13"><a xlink:title="lval70">
<path fill="none" stroke="blue" d="M194.05,-1230.14C198.07,-1225.83 202.21,-1221.31 206,-1217 215.93,-1205.7 226.7,-1192.53 234.71,-1182.55"/>
<polygon fill="blue" stroke="blue" points="191.36,-1227.89 187.04,-1237.56 196.45,-1232.7 191.36,-1227.89"/>
</a>
</g>
</g>
<!-- I6 -->
<g id="node7" class="node">
<title>I6</title>
<ellipse fill="none" stroke="black" cx="247" cy="-1079" rx="27" ry="18"/>
<text text-anchor="middle" x="247" y="-1075.3" font-family="Times-Roman" font-size="14.00">I</text>
</g>
<!-- !d7 -->
<g id="node8" class="node">
<title>!d7</title>
<ellipse fill="none" stroke="black" cx="247" cy="-992" rx="27" ry="18"/>
<text text-anchor="middle" x="247" y="-988.3" font-family="Times-Roman" font-size="14.00">!d</text>
</g>
<!-- I6&#45;&gt;!d7 -->
<g id="edge3" class="edge">
<title>I6&#45;&gt;!d7</title>
<g id="a_edge3"><a xlink:title="hret73">
<path fill="none" stroke="blue" d="M247,-1050.73C247,-1037.42 247,-1021.81 247,-1010.18"/>
<polygon fill="blue" stroke="blue" points="243.5,-1050.8 247,-1060.8 250.5,-1050.8 243.5,-1050.8"/>
</a>
</g>
<text text-anchor="middle" x="251.5" y="-1031.8" font-family="Times-Roman" font-size="14.00">2</text>
</g>
<!-- !p9 -->
<g id="node10" class="node">
<title>!p9</title>
<ellipse fill="none" stroke="black" cx="247" cy="-905" rx="27" ry="18"/>
<text text-anchor="middle" x="247" y="-901.3" font-family="Times-Roman" font-size="14.00">!p</text>
</g>
<!-- !d7&#45;&gt;!p9 -->
<g id="edge2" class="edge">
<title>!d7&#45;&gt;!p9</title>
<g id="a_edge2"><a xlink:title="hf65">
<path fill="none" stroke="blue" d="M247,-963.73C247,-950.42 247,-934.81 247,-923.18"/>
<polygon fill="blue" stroke="blue" points="243.5,-963.8 247,-973.8 250.5,-963.8 243.5,-963.8"/>
</a>
</g>
<text text-anchor="middle" x="251.5" y="-944.8" font-family="Times-Roman" font-size="14.00">1</text>
</g>
<!-- Cut8&#45;&gt;I6 -->
<g id="edge31" class="edge">
<title>Cut8&#45;&gt;I6</title>
<g id="a_edge31"><a xlink:title="rval71">
<path fill="none" stroke="red" d="M247,-1147.8C247,-1136.16 247,-1120.55 247,-1107.24"/>
<polygon fill="red" stroke="red" points="250.5,-1107.18 247,-1097.18 243.5,-1107.18 250.5,-1107.18"/>
</a>
</g>
</g>
<!-- !p9&#45;&gt;I4 -->
<g id="edge22" class="edge">
<title>!p9&#45;&gt;I4</title>
<g id="a_edge22"><a xlink:title="newrretf66">
<path fill="none" stroke="red" d="M237.6,-888.01C230.26,-875.55 219.95,-858.01 211.55,-843.74"/>
<polygon fill="red" stroke="red" points="214.45,-841.76 206.36,-834.92 208.42,-845.31 214.45,-841.76"/>
</a>
</g>
<text text-anchor="middle" x="229.5" y="-857.8" font-family="Times-Roman" font-size="14.00">2</text>
</g>
<!-- λ23 -->
<g id="node24" class="node">
<title>λ23</title>
<ellipse fill="none" stroke="black" cx="312" cy="-818" rx="27" ry="18"/>
<text text-anchor="middle" x="312" y="-814.3" font-family="Times-Roman" font-size="14.00">λ</text>
</g>
<!-- !p9&#45;&gt;λ23 -->
<g id="edge1" class="edge">
<title>!p9&#45;&gt;λ23</title>
<g id="a_edge1"><a xlink:title="h34">
<path fill="none" stroke="blue" d="M265.13,-880.29C276.33,-865.65 290.37,-847.28 300.15,-834.49"/>
<polygon fill="blue" stroke="blue" points="262.22,-878.34 258.92,-888.41 267.78,-882.59 262.22,-878.34"/>
</a>
</g>
<text text-anchor="middle" x="287.5" y="-857.8" font-family="Times-Roman" font-size="14.00">1</text>
</g>
<!-- I10 -->
<g id="node11" class="node">
<title>I10</title>
<ellipse fill="none" stroke="black" cx="312" cy="-731" rx="27" ry="18"/>
<text text-anchor="middle" x="312" y="-727.3" font-family="Times-Roman" font-size="14.00">I</text>
</g>
<!-- @11 -->
<g id="node12" class="node">
<title>@11</title>
<ellipse fill="none" stroke="black" cx="252" cy="-658" rx="27" ry="18"/>
<text text-anchor="middle" x="252" y="-654.3" font-family="Times-Roman" font-size="14.00">@</text>
</g>
<!-- I10&#45;&gt;@11 -->
<g id="edge8" class="edge">
<title>I10&#45;&gt;@11</title>
<g id="a_edge8"><a xlink:title="lret62">
<path fill="none" stroke="blue" d="M292.64,-707.09C283.49,-696.26 272.82,-683.63 264.71,-674.04"/>
<polygon fill="blue" stroke="blue" points="290.15,-709.56 299.28,-714.94 295.49,-705.05 290.15,-709.56"/>
</a>
</g>
</g>
<!-- @11&#45;&gt;!p9 -->
<g id="edge17" class="edge">
<title>@11&#45;&gt;!p9</title>
<g id="a_edge17"><a xlink:title="newrret61">
<path fill="none" stroke="red" d="M251.65,-676.21C250.79,-718.1 248.6,-825.65 247.56,-876.53"/>
<polygon fill="red" stroke="red" points="244.06,-876.7 247.35,-886.77 251.05,-876.85 244.06,-876.7"/>
</a>
</g>
<text text-anchor="middle" x="253.5" y="-770.8" font-family="Times-Roman" font-size="14.00">1</text>
</g>
<!-- Cut22 -->
<g id="node23" class="node">
<title>Cut22</title>
<ellipse fill="none" stroke="black" cx="252" cy="-585" rx="27" ry="18"/>
<text text-anchor="middle" x="252" y="-581.3" font-family="Times-Roman" font-size="14.00">Cut</text>
</g>
<!-- @11&#45;&gt;Cut22 -->
<g id="edge11" class="edge">
<title>@11&#45;&gt;Cut22</title>
<g id="a_edge11"><a xlink:title="lval38">
<path fill="none" stroke="blue" d="M252,-629.75C252,-620.77 252,-611.03 252,-603.03"/>
<polygon fill="blue" stroke="blue" points="248.5,-629.81 252,-639.81 255.5,-629.81 248.5,-629.81"/>
</a>
</g>
</g>
<!-- I12 -->
<g id="node13" class="node">
<title>I12</title>
<ellipse fill="none" stroke="black" cx="347" cy="-192" rx="27" ry="18"/>
<text text-anchor="middle" x="347" y="-188.3" font-family="Times-Roman" font-size="14.00">I</text>
</g>
<!-- !d13 -->
<g id="node14" class="node">
<title>!d13</title>
<ellipse fill="none" stroke="black" cx="379" cy="-105" rx="27" ry="18"/>
<text text-anchor="middle" x="379" y="-101.3" font-family="Times-Roman" font-size="14.00">!d</text>
</g>
<!-- I12&#45;&gt;!d13 -->
<g id="edge43" class="edge">
<title>I12&#45;&gt;!d13</title>
<g id="a_edge43"><a xlink:title="yret60">
<path fill="none" stroke="blue" d="M356.86,-164.8C362.02,-151.1 368.18,-134.74 372.69,-122.76"/>
<polygon fill="blue" stroke="blue" points="353.57,-163.61 353.32,-174.21 360.12,-166.08 353.57,-163.61"/>
</a>
</g>
<text text-anchor="middle" x="368.5" y="-144.8" font-family="Times-Roman" font-size="14.00">2</text>
</g>
<!-- !p14 -->
<g id="node15" class="node">
<title>!p14</title>
<ellipse fill="none" stroke="black" cx="322" cy="-279" rx="27" ry="18"/>
<text text-anchor="middle" x="322" y="-275.3" font-family="Times-Roman" font-size="14.00">!p</text>
</g>
<!-- !d13&#45;&gt;!p14 -->
<g id="edge41" class="edge">
<title>!d13&#45;&gt;!p14</title>
<g id="a_edge41"><a xlink:title="yBf56">
<path fill="none" stroke="blue" d="M385.66,-132.66C389.74,-154.25 392.55,-185.06 383,-210 374.27,-232.81 353.97,-252.78 339.18,-265.08"/>
<polygon fill="blue" stroke="blue" points="389.08,-131.94 383.6,-122.87 382.23,-133.37 389.08,-131.94"/>
</a>
</g>
<text text-anchor="middle" x="393.5" y="-188.3" font-family="Times-Roman" font-size="14.00">1</text>
</g>
<!-- !p14&#45;&gt;I12 -->
<g id="edge21" class="edge">
<title>!p14&#45;&gt;I12</title>
<g id="a_edge21"><a xlink:title="newrretf57">
<path fill="none" stroke="red" d="M326.94,-261.21C330.43,-249.33 335.19,-233.17 339.19,-219.56"/>
<polygon fill="red" stroke="red" points="342.61,-220.34 342.07,-209.76 335.89,-218.36 342.61,-220.34"/>
</a>
</g>
<text text-anchor="middle" x="339.5" y="-231.8" font-family="Times-Roman" font-size="14.00">2</text>
</g>
<!-- !c20 -->
<g id="node21" class="node">
<title>!c20</title>
<ellipse fill="none" stroke="black" cx="237" cy="-18" rx="27" ry="18"/>
<text text-anchor="middle" x="237" y="-14.3" font-family="Times-Roman" font-size="14.00">!c</text>
</g>
<!-- !p14&#45;&gt;!c20 -->
<g id="edge40" class="edge">
<title>!p14&#45;&gt;!c20</title>
<g id="a_edge40"><a xlink:title="yB44">
<path fill="none" stroke="blue" d="M317.13,-250.82C309.92,-213.21 294.86,-143.52 273,-87 267.28,-72.21 259.12,-56.51 252.02,-43.93"/>
<polygon fill="blue" stroke="blue" points="313.75,-251.8 319.03,-260.98 320.63,-250.51 313.75,-251.8"/>
<polygon fill="blue" stroke="blue" points="249.88,-33.23 251.85,-43.64 243.82,-36.73 249.88,-33.23"/>
</a>
</g>
<text text-anchor="middle" x="298.5" y="-144.8" font-family="Times-Roman" font-size="14.00">1</text>
</g>
<!-- I15 -->
<g id="node16" class="node">
<title>I15</title>
<ellipse fill="none" stroke="black" cx="252" cy="-439" rx="27" ry="18"/>
<text text-anchor="middle" x="252" y="-435.3" font-family="Times-Roman" font-size="14.00">I</text>
</g>
<!-- @16 -->
<g id="node17" class="node">
<title>@16</title>
<ellipse fill="none" stroke="black" cx="295" cy="-366" rx="27" ry="18"/>
<text text-anchor="middle" x="295" y="-362.3" font-family="Times-Roman" font-size="14.00">@</text>
</g>
<!-- I15&#45;&gt;@16 -->
<g id="edge7" class="edge">
<title>I15&#45;&gt;@16</title>
<g id="a_edge7"><a xlink:title="lret53">
<path fill="none" stroke="blue" d="M267.04,-413.16C273.09,-403.17 279.9,-391.93 285.28,-383.05"/>
<polygon fill="blue" stroke="blue" points="263.94,-411.52 261.76,-421.89 269.93,-415.15 263.94,-411.52"/>
</a>
</g>
</g>
<!-- @16&#45;&gt;!p14 -->
<g id="edge16" class="edge">
<title>@16&#45;&gt;!p14</title>
<g id="a_edge16"><a xlink:title="newrret52">
<path fill="none" stroke="red" d="M300.33,-348.21C304.11,-336.33 309.24,-320.17 313.56,-306.56"/>
<polygon fill="red" stroke="red" points="316.99,-307.35 316.68,-296.76 310.31,-305.23 316.99,-307.35"/>
</a>
</g>
<text text-anchor="middle" x="314.5" y="-318.8" font-family="Times-Roman" font-size="14.00">1</text>
</g>
<!-- Cut19 -->
<g id="node20" class="node">
<title>Cut19</title>
<ellipse fill="none" stroke="black" cx="237" cy="-279" rx="27" ry="18"/>
<text text-anchor="middle" x="237" y="-275.3" font-family="Times-Roman" font-size="14.00">Cut</text>
</g>
<!-- @16&#45;&gt;Cut19 -->
<g id="edge12" class="edge">
<title>@16&#45;&gt;Cut19</title>
<g id="a_edge12"><a xlink:title="lval48">
<path fill="none" stroke="blue" d="M278.58,-340.94C268.7,-326.46 256.42,-308.45 247.77,-295.78"/>
<polygon fill="blue" stroke="blue" points="275.83,-343.12 284.36,-349.41 281.62,-339.18 275.83,-343.12"/>
</a>
</g>
</g>
<!-- I17 -->
<g id="node18" class="node">
<title>I17</title>
<ellipse fill="none" stroke="black" cx="237" cy="-192" rx="27" ry="18"/>
<text text-anchor="middle" x="237" y="-188.3" font-family="Times-Roman" font-size="14.00">I</text>
</g>
<!-- !d18 -->
<g id="node19" class="node">
<title>!d18</title>
<ellipse fill="none" stroke="black" cx="237" cy="-105" rx="27" ry="18"/>
<text text-anchor="middle" x="237" y="-101.3" font-family="Times-Roman" font-size="14.00">!d</text>
</g>
<!-- I17&#45;&gt;!d18 -->
<g id="edge42" class="edge">
<title>I17&#45;&gt;!d18</title>
<g id="a_edge42"><a xlink:title="yret51">
<path fill="none" stroke="blue" d="M237,-163.73C237,-150.42 237,-134.81 237,-123.18"/>
<polygon fill="blue" stroke="blue" points="233.5,-163.8 237,-173.8 240.5,-163.8 233.5,-163.8"/>
</a>
</g>
<text text-anchor="middle" x="241.5" y="-144.8" font-family="Times-Roman" font-size="14.00">1</text>
</g>
<!-- !d18&#45;&gt;!c20 -->
<g id="edge39" class="edge">
<title>!d18&#45;&gt;!c20</title>
<g id="a_edge39"><a xlink:title="yA43">
<path fill="none" stroke="blue" d="M237,-76.73C237,-63.42 237,-47.81 237,-36.18"/>
<polygon fill="blue" stroke="blue" points="233.5,-76.8 237,-86.8 240.5,-76.8 233.5,-76.8"/>
</a>
</g>
<text text-anchor="middle" x="241.5" y="-57.8" font-family="Times-Roman" font-size="14.00">1</text>
</g>
<!-- Cut19&#45;&gt;I17 -->
<g id="edge30" class="edge">
<title>Cut19&#45;&gt;I17</title>
<g id="a_edge30"><a xlink:title="rval49">
<path fill="none" stroke="red" d="M237,-260.8C237,-249.16 237,-233.55 237,-220.24"/>
<polygon fill="red" stroke="red" points="240.5,-220.18 237,-210.18 233.5,-220.18 240.5,-220.18"/>
</a>
</g>
</g>
<!-- λ21 -->
<g id="node22" class="node">
<title>λ21</title>
<ellipse fill="none" stroke="black" cx="252" cy="-512" rx="27" ry="18"/>
<text text-anchor="middle" x="252" y="-508.3" font-family="Times-Roman" font-size="14.00">λ</text>
</g>
<!-- !c20&#45;&gt;λ21 -->
<g id="edge38" class="edge">
<title>!c20&#45;&gt;λ21</title>
<g id="a_edge38"><a xlink:title="y41">
<path fill="none" stroke="blue" d="M213.93,-39.78C198.87,-55.69 182,-79.08 182,-104 182,-440 182,-440 182,-440 182,-468.04 210.03,-489.03 230.62,-500.65"/>
<polygon fill="blue" stroke="blue" points="216.51,-42.14 221.09,-32.59 211.55,-37.2 216.51,-42.14"/>
</a>
</g>
</g>
<!-- λ21&#45;&gt;I15 -->
<g id="edge25" class="edge">
<title>λ21&#45;&gt;I15</title>
<g id="a_edge25"><a xlink:title="ret42">
<path fill="none" stroke="red" d="M252,-493.81C252,-485.79 252,-476.05 252,-467.07"/>
<polygon fill="red" stroke="red" points="255.5,-467.03 252,-457.03 248.5,-467.03 255.5,-467.03"/>
</a>
</g>
</g>
<!-- Cut22&#45;&gt;λ21 -->
<g id="edge29" class="edge">
<title>Cut22&#45;&gt;λ21</title>
<g id="a_edge29"><a xlink:title="rval39">
<path fill="none" stroke="red" d="M252,-566.81C252,-558.79 252,-549.05 252,-540.07"/>
<polygon fill="red" stroke="red" points="255.5,-540.03 252,-530.03 248.5,-540.03 255.5,-540.03"/>
</a>
</g>
</g>
<!-- λ23&#45;&gt;I10 -->
<g id="edge24" class="edge">
<title>λ23&#45;&gt;I10</title>
<g id="a_edge24"><a xlink:title="ret35">
<path fill="none" stroke="red" d="M312,-799.8C312,-788.16 312,-772.55 312,-759.24"/>
<polygon fill="red" stroke="red" points="315.5,-759.18 312,-749.18 308.5,-759.18 315.5,-759.18"/>
</a>
</g>
</g>
<!-- !p24 -->
<g id="node25" class="node">
<title>!p24</title>
<ellipse fill="none" stroke="black" cx="319" cy="-905" rx="27" ry="18"/>
<text text-anchor="middle" x="319" y="-901.3" font-family="Times-Roman" font-size="14.00">!p</text>
</g>
<!-- !p24&#45;&gt;λ23 -->
<g id="edge20" class="edge">
<title>!p24&#45;&gt;λ23</title>
<g id="a_edge20"><a xlink:title="newrretf31">
<path fill="none" stroke="red" d="M317.58,-886.8C316.63,-875.16 315.34,-859.55 314.24,-846.24"/>
<polygon fill="red" stroke="red" points="317.72,-845.85 313.41,-836.18 310.75,-846.43 317.72,-845.85"/>
</a>
</g>
<text text-anchor="middle" x="319.5" y="-857.8" font-family="Times-Roman" font-size="14.00">1</text>
</g>
<!-- I25 -->
<g id="node26" class="node">
<title>I25</title>
<ellipse fill="none" stroke="black" cx="274" cy="-1253" rx="27" ry="18"/>
<text text-anchor="middle" x="274" y="-1249.3" font-family="Times-Roman" font-size="14.00">I</text>
</g>
<!-- !d26 -->
<g id="node27" class="node">
<title>!d26</title>
<ellipse fill="none" stroke="black" cx="319" cy="-1166" rx="27" ry="18"/>
<text text-anchor="middle" x="319" y="-1162.3" font-family="Times-Roman" font-size="14.00">!d</text>
</g>
<!-- I25&#45;&gt;!d26 -->
<g id="edge37" class="edge">
<title>I25&#45;&gt;!d26</title>
<g id="a_edge37"><a xlink:title="xret26">
<path fill="none" stroke="blue" d="M287.51,-1226.49C294.92,-1212.49 303.88,-1195.56 310.35,-1183.34"/>
<polygon fill="blue" stroke="blue" points="284.26,-1225.14 282.68,-1235.61 290.45,-1228.41 284.26,-1225.14"/>
</a>
</g>
<text text-anchor="middle" x="303.5" y="-1205.8" font-family="Times-Roman" font-size="14.00">1</text>
</g>
<!-- !p27 -->
<g id="node28" class="node">
<title>!p27</title>
<ellipse fill="none" stroke="black" cx="337" cy="-1352" rx="27" ry="18"/>
<text text-anchor="middle" x="337" y="-1348.3" font-family="Times-Roman" font-size="14.00">!p</text>
</g>
<!-- !d26&#45;&gt;!p27 -->
<g id="edge35" class="edge">
<title>!d26&#45;&gt;!p27</title>
<g id="a_edge35"><a xlink:title="xBf22">
<path fill="none" stroke="blue" d="M321.66,-1194.2C325.43,-1232.73 332.21,-1302.06 335.34,-1334.02"/>
<polygon fill="blue" stroke="blue" points="325.14,-1193.82 320.68,-1184.21 318.17,-1194.5 325.14,-1193.82"/>
</a>
</g>
<text text-anchor="middle" x="332.5" y="-1249.3" font-family="Times-Roman" font-size="14.00">0</text>
</g>
<!-- !p27&#45;&gt;I25 -->
<g id="edge19" class="edge">
<title>!p27&#45;&gt;I25</title>
<g id="a_edge19"><a xlink:title="newrretf23">
<path fill="none" stroke="red" d="M326.6,-1334.98C316.6,-1319.58 301.35,-1296.11 289.84,-1278.39"/>
<polygon fill="red" stroke="red" points="292.59,-1276.2 284.21,-1269.72 286.72,-1280.01 292.59,-1276.2"/>
</a>
</g>
<text text-anchor="middle" x="309.5" y="-1292.8" font-family="Times-Roman" font-size="14.00">1</text>
</g>
<!-- !c33 -->
<g id="node34" class="node">
<title>!c33</title>
<ellipse fill="none" stroke="black" cx="374" cy="-1079" rx="27" ry="18"/>
<text text-anchor="middle" x="374" y="-1075.3" font-family="Times-Roman" font-size="14.00">!c</text>
</g>
<!-- !p27&#45;&gt;!c33 -->
<g id="edge34" class="edge">
<title>!p27&#45;&gt;!c33</title>
<g id="a_edge34"><a xlink:title="xB10">
<path fill="none" stroke="blue" d="M341.75,-1324.2C342.87,-1317.6 344.02,-1310.55 345,-1304 355.61,-1233.18 365.84,-1149.42 370.83,-1107.22"/>
<polygon fill="blue" stroke="blue" points="338.3,-1323.61 340.05,-1334.06 345.2,-1324.8 338.3,-1323.61"/>
<polygon fill="blue" stroke="blue" points="375.49,-1097.58 370.84,-1107.11 368.54,-1096.77 375.49,-1097.58"/>
</a>
</g>
<text text-anchor="middle" x="363.5" y="-1205.8" font-family="Times-Roman" font-size="14.00">0</text>
</g>
<!-- I28 -->
<g id="node29" class="node">
<title>I28</title>
<ellipse fill="none" stroke="black" cx="337" cy="-1524" rx="27" ry="18"/>
<text text-anchor="middle" x="337" y="-1520.3" font-family="Times-Roman" font-size="14.00">I</text>
</g>
<!-- @29 -->
<g id="node30" class="node">
<title>@29</title>
<ellipse fill="none" stroke="black" cx="337" cy="-1451" rx="27" ry="18"/>
<text text-anchor="middle" x="337" y="-1447.3" font-family="Times-Roman" font-size="14.00">@</text>
</g>
<!-- I28&#45;&gt;@29 -->
<g id="edge6" class="edge">
<title>I28&#45;&gt;@29</title>
<g id="a_edge6"><a xlink:title="lret19">
<path fill="none" stroke="blue" stroke-width="2" d="M337,-1495.75C337,-1486.76 337,-1477.02 337,-1469.02"/>
<polygon fill="blue" stroke="blue" stroke-width="2" points="333.5,-1495.81 337,-1505.81 340.5,-1495.81 333.5,-1495.81"/>
</a>
</g>
</g>
<!-- @29&#45;&gt;!p27 -->
<g id="edge14" class="edge">
<title>@29&#45;&gt;!p27</title>
<g id="a_edge14"><a xlink:title="newrret18">
<path fill="none" stroke="red" d="M337,-1432.65C337,-1418.17 337,-1397.26 337,-1380.5"/>
<polygon fill="red" stroke="red" points="340.5,-1380.19 337,-1370.19 333.5,-1380.19 340.5,-1380.19"/>
</a>
</g>
<text text-anchor="middle" x="341.5" y="-1403.8" font-family="Times-Roman" font-size="14.00">0</text>
</g>
<!-- Cut32 -->
<g id="node33" class="node">
<title>Cut32</title>
<ellipse fill="none" stroke="black" cx="429" cy="-1352" rx="26" ry="26"/>
<ellipse fill="none" stroke="black" cx="429" cy="-1352" rx="30" ry="30"/>
<text text-anchor="middle" x="429" y="-1348.3" font-family="Times-Roman" font-size="14.00">Cut</text>
</g>
<!-- @29&#45;&gt;Cut32 -->
<g id="edge10" class="edge">
<title>@29&#45;&gt;Cut32</title>
<g id="a_edge10"><a xlink:title="lval14">
<path fill="none" stroke="blue" stroke-width="2" d="M357.98,-1427.88C373.2,-1411.83 393.68,-1390.23 408.74,-1374.36"/>
<polygon fill="blue" stroke="blue" stroke-width="2" points="355.32,-1425.6 350.97,-1435.26 360.39,-1430.42 355.32,-1425.6"/>
</a>
</g>
</g>
<!-- I30 -->
<g id="node31" class="node">
<title>I30</title>
<ellipse fill="none" stroke="black" cx="429" cy="-1253" rx="27" ry="18"/>
<text text-anchor="middle" x="429" y="-1249.3" font-family="Times-Roman" font-size="14.00">I</text>
</g>
<!-- !d31 -->
<g id="node32" class="node">
<title>!d31</title>
<ellipse fill="none" stroke="black" cx="429" cy="-1166" rx="27" ry="18"/>
<text text-anchor="middle" x="429" y="-1162.3" font-family="Times-Roman" font-size="14.00">!d</text>
</g>
<!-- I30&#45;&gt;!d31 -->
<g id="edge36" class="edge">
<title>I30&#45;&gt;!d31</title>
<g id="a_edge36"><a xlink:title="xret17">
<path fill="none" stroke="blue" d="M429,-1224.73C429,-1211.42 429,-1195.81 429,-1184.18"/>
<polygon fill="blue" stroke="blue" points="425.5,-1224.8 429,-1234.8 432.5,-1224.8 425.5,-1224.8"/>
</a>
</g>
<text text-anchor="middle" x="433.5" y="-1205.8" font-family="Times-Roman" font-size="14.00">0</text>
</g>
<!-- !d31&#45;&gt;!c33 -->
<g id="edge33" class="edge">
<title>!d31&#45;&gt;!c33</title>
<g id="a_edge33"><a xlink:title="xA9">
<path fill="none" stroke="blue" d="M413.2,-1140.59C403.91,-1126.23 392.43,-1108.48 384.3,-1095.92"/>
<polygon fill="blue" stroke="blue" points="410.28,-1142.52 418.65,-1149.01 416.16,-1138.72 410.28,-1142.52"/>
</a>
</g>
<text text-anchor="middle" x="408.5" y="-1118.8" font-family="Times-Roman" font-size="14.00">0</text>
</g>
<!-- Cut32&#45;&gt;I30 -->
<g id="edge28" class="edge">
<title>Cut32&#45;&gt;I30</title>
<g id="a_edge28"><a xlink:title="rval15">
<path fill="none" stroke="red" d="M429,-1321.9C429,-1309.12 429,-1294.19 429,-1281.6"/>
<polygon fill="red" stroke="red" points="432.5,-1281.24 429,-1271.24 425.5,-1281.24 432.5,-1281.24"/>
</a>
</g>
</g>
<!-- Cut35 -->
<g id="node36" class="node">
<title>Cut35</title>
<ellipse fill="none" stroke="black" cx="319" cy="-992" rx="27" ry="18"/>
<text text-anchor="middle" x="319" y="-988.3" font-family="Times-Roman" font-size="14.00">Cut</text>
</g>
<!-- !c33&#45;&gt;Cut35 -->
<g id="edge32" class="edge">
<title>!c33&#45;&gt;Cut35</title>
<g id="a_edge32"><a xlink:title="x7">
<path fill="none" stroke="blue" d="M358.2,-1053.59C348.91,-1039.23 337.43,-1021.48 329.3,-1008.92"/>
<polygon fill="blue" stroke="blue" points="355.28,-1055.52 363.65,-1062.01 361.16,-1051.72 355.28,-1055.52"/>
</a>
</g>
</g>
<!-- Assign34 -->
<g id="node35" class="node">
<title>Assign34</title>
<ellipse fill="none" stroke="black" cx="337" cy="-1597" rx="38.99" ry="18"/>
<text text-anchor="middle" x="337" y="-1593.3" font-family="Times-Roman" font-size="14.00">Assign</text>
</g>
<!-- Assign34&#45;&gt;I28 -->
<g id="edge26" class="edge">
<title>Assign34&#45;&gt;I28</title>
<g id="a_edge26"><a xlink:title="ret8">
<path fill="none" stroke="red" stroke-width="2" d="M337,-1578.81C337,-1570.78 337,-1561.04 337,-1552.06"/>
<polygon fill="red" stroke="red" stroke-width="2" points="340.5,-1552.02 337,-1542.02 333.5,-1552.02 340.5,-1552.02"/>
</a>
</g>
</g>
<!-- Cut35&#45;&gt;!p24 -->
<g id="edge15" class="edge">
<title>Cut35&#45;&gt;!p24</title>
<g id="a_edge15"><a xlink:title="newrret27">
<path fill="none" stroke="red" d="M319,-973.8C319,-962.16 319,-946.55 319,-933.24"/>
<polygon fill="red" stroke="red" points="322.5,-933.18 319,-923.18 315.5,-933.18 322.5,-933.18"/>
</a>
</g>
<text text-anchor="middle" x="323.5" y="-944.8" font-family="Times-Roman" font-size="14.00">0</text>
</g>
</g>
</svg>
