<?xml version="1.0" encoding="UTF-8" standalone="no"?>
<!DOCTYPE svg PUBLIC "-//W3C//DTD SVG 1.1//EN"
 "http://www.w3.org/Graphics/SVG/1.1/DTD/svg11.dtd">
<!-- Generated by graphviz version 2.43.0 (0)
 -->
<!-- Title: %3 Pages: 1 -->
<svg width="626pt" height="1293pt"
 viewBox="0.00 0.00 625.88 1293.00" xmlns="http://www.w3.org/2000/svg" xmlns:xlink="http://www.w3.org/1999/xlink">
<g id="graph0" class="graph" transform="scale(1 1) rotate(0) translate(4 1289)">
<title>%3</title>
<polygon fill="white" stroke="transparent" points="-4,4 -4,-1289 621.88,-1289 621.88,4 -4,4"/>
<!-- Identity0 -->
<g id="node1" class="node">
<title>Identity0</title>
<ellipse fill="none" stroke="black" cx="565.2" cy="-1267" rx="44.39" ry="18"/>
<text text-anchor="middle" x="565.2" y="-1263.3" font-family="Times-Roman" font-size="14.00">Identity</text>
</g>
<!-- BangD1 -->
<g id="node2" class="node">
<title>BangD1</title>
<ellipse fill="none" stroke="black" cx="565.2" cy="-1180" rx="39.79" ry="18"/>
<text text-anchor="middle" x="565.2" y="-1176.3" font-family="Times-Roman" font-size="14.00">BangD</text>
</g>
<!-- BangD1&#45;&gt;Identity0 -->
<g id="edge27" class="edge">
<title>BangD1&#45;&gt;Identity0</title>
<g id="a_edge27"><a xlink:title="iret84">
<path fill="none" stroke="blue" d="M571.05,-1197.88C572.74,-1203.56 574.35,-1209.99 575.2,-1216 576.25,-1223.5 575.48,-1231.58 573.98,-1239.01"/>
<polygon fill="blue" stroke="blue" points="570.53,-1238.41 571.51,-1248.96 577.32,-1240.1 570.53,-1238.41"/>
</a>
</g>
<text text-anchor="middle" x="579.7" y="-1219.8" font-family="Times-Roman" font-size="14.00">3</text>
</g>
<!-- BangD1&#45;&gt;Identity0 -->
<g id="edge28" class="edge">
<title>BangD1&#45;&gt;Identity0</title>
<g id="a_edge28"><a xlink:title="iseq83">
<path fill="none" stroke="black" d="M565.2,-1198.2C565.2,-1209.83 565.2,-1225.45 565.2,-1238.76"/>
<polygon fill="black" stroke="black" points="561.7,-1238.82 565.2,-1248.82 568.7,-1238.82 561.7,-1238.82"/>
</a>
</g>
<text text-anchor="middle" x="569.7" y="-1219.8" font-family="Times-Roman" font-size="14.00">3</text>
</g>
<!-- PiR2 -->
<g id="node3" class="node">
<title>PiR2</title>
<ellipse fill="none" stroke="black" cx="565.2" cy="-1093" rx="27" ry="18"/>
<text text-anchor="middle" x="565.2" y="-1089.3" font-family="Times-Roman" font-size="14.00">PiR</text>
</g>
<!-- PiR2&#45;&gt;Identity0 -->
<g id="edge52" class="edge">
<title>PiR2&#45;&gt;Identity0</title>
<g id="a_edge52"><a xlink:title="ret82">
<path fill="none" stroke="red" d="M579.76,-1108.38C591.61,-1121.18 607.45,-1141.09 614.2,-1162 619.11,-1177.22 619.11,-1182.77 614.2,-1198 608.93,-1214.31 598.13,-1230.01 588.01,-1242.21"/>
<polygon fill="red" stroke="red" points="585.11,-1240.21 581.19,-1250.05 590.39,-1244.8 585.11,-1240.21"/>
</a>
</g>
</g>
<!-- PiR2&#45;&gt;BangD1 -->
<g id="edge22" class="edge">
<title>PiR2&#45;&gt;BangD1</title>
<g id="a_edge22"><a xlink:title="i81">
<path fill="none" stroke="blue" d="M548.88,-1107.68C543.09,-1113.57 537.25,-1120.95 534.2,-1129 530.67,-1138.31 534.32,-1147.78 540.2,-1155.94"/>
<polygon fill="blue" stroke="blue" points="537.53,-1158.2 546.64,-1163.6 542.89,-1153.69 537.53,-1158.2"/>
</a>
</g>
<text text-anchor="middle" x="538.7" y="-1132.8" font-family="Times-Roman" font-size="14.00">3</text>
</g>
<!-- PiR2&#45;&gt;BangD1 -->
<g id="edge60" class="edge">
<title>PiR2&#45;&gt;BangD1</title>
<g id="a_edge60"><a xlink:title="seq80">
<path fill="none" stroke="black" d="M565.2,-1111.2C565.2,-1122.83 565.2,-1138.45 565.2,-1151.76"/>
<polygon fill="black" stroke="black" points="561.7,-1151.82 565.2,-1161.82 568.7,-1151.82 561.7,-1151.82"/>
</a>
</g>
<text text-anchor="middle" x="569.7" y="-1132.8" font-family="Times-Roman" font-size="14.00">3</text>
</g>
<!-- Bang3 -->
<g id="node4" class="node">
<title>Bang3</title>
<ellipse fill="none" stroke="black" cx="565.2" cy="-1006" rx="32.49" ry="18"/>
<text text-anchor="middle" x="565.2" y="-1002.3" font-family="Times-Roman" font-size="14.00">Bang</text>
</g>
<!-- Bang3&#45;&gt;PiR2 -->
<g id="edge5" class="edge">
<title>Bang3&#45;&gt;PiR2</title>
<g id="a_edge5"><a xlink:title="c_bseq79">
<path fill="none" stroke="black" d="M565.2,-1024.2C565.2,-1035.83 565.2,-1051.45 565.2,-1064.76"/>
<polygon fill="black" stroke="black" points="561.7,-1064.82 565.2,-1074.82 568.7,-1064.82 561.7,-1064.82"/>
</a>
</g>
<text text-anchor="middle" x="569.7" y="-1045.8" font-family="Times-Roman" font-size="14.00">3</text>
</g>
<!-- Bang3&#45;&gt;PiR2 -->
<g id="edge46" class="edge">
<title>Bang3&#45;&gt;PiR2</title>
<g id="a_edge46"><a xlink:title="newrretf78">
<path fill="none" stroke="red" d="M571.05,-1023.88C572.74,-1029.56 574.35,-1035.99 575.2,-1042 576.28,-1049.71 575.43,-1058.03 573.86,-1065.63"/>
<polygon fill="red" stroke="red" points="570.44,-1064.86 571.37,-1075.41 577.23,-1066.58 570.44,-1064.86"/>
</a>
</g>
<text text-anchor="middle" x="579.7" y="-1045.8" font-family="Times-Roman" font-size="14.00">3</text>
</g>
<!-- Identity4 -->
<g id="node5" class="node">
<title>Identity4</title>
<ellipse fill="none" stroke="black" cx="466.2" cy="-1006" rx="44.39" ry="18"/>
<text text-anchor="middle" x="466.2" y="-1002.3" font-family="Times-Roman" font-size="14.00">Identity</text>
</g>
<!-- PiL5 -->
<g id="node6" class="node">
<title>PiL5</title>
<ellipse fill="none" stroke="black" cx="477.2" cy="-919" rx="27" ry="18"/>
<text text-anchor="middle" x="477.2" y="-915.3" font-family="Times-Roman" font-size="14.00">PiL</text>
</g>
<!-- PiL5&#45;&gt;Bang3 -->
<g id="edge15" class="edge">
<title>PiL5&#45;&gt;Bang3</title>
<g id="a_edge15"><a xlink:title="dseq76">
<path fill="none" stroke="black" d="M494.92,-932.95C503.19,-939.27 512.99,-947.19 521.2,-955 529.7,-963.09 538.38,-972.63 545.76,-981.19"/>
<polygon fill="black" stroke="black" points="543.26,-983.65 552.39,-989.03 548.6,-979.13 543.26,-983.65"/>
</a>
</g>
<text text-anchor="middle" x="539.7" y="-958.8" font-family="Times-Roman" font-size="14.00">2</text>
</g>
<!-- PiL5&#45;&gt;Bang3 -->
<g id="edge39" class="edge">
<title>PiL5&#45;&gt;Bang3</title>
<g id="a_edge39"><a xlink:title="newrret74">
<path fill="none" stroke="red" d="M485.38,-936.62C491.07,-947.04 499.38,-960.28 509.2,-970 516.14,-976.86 524.66,-983.04 532.95,-988.22"/>
<polygon fill="red" stroke="red" points="531.36,-991.35 541.75,-993.43 534.93,-985.33 531.36,-991.35"/>
</a>
</g>
<text text-anchor="middle" x="513.7" y="-958.8" font-family="Times-Roman" font-size="14.00">2</text>
</g>
<!-- PiL5&#45;&gt;Identity4 -->
<g id="edge26" class="edge">
<title>PiL5&#45;&gt;Identity4</title>
<g id="a_edge26"><a xlink:title="idseq77">
<path fill="none" stroke="black" d="M467.46,-946.52C465.6,-956.4 464.13,-967.63 463.39,-977.6"/>
<polygon fill="black" stroke="black" points="473.04,-937.11 467.53,-946.16 466.19,-935.65 473.04,-937.11"/>
<polygon fill="black" stroke="black" points="459.88,-977.62 462.87,-987.78 466.87,-977.97 459.88,-977.62"/>
</a>
</g>
</g>
<!-- PiL5&#45;&gt;Identity4 -->
<g id="edge32" class="edge">
<title>PiL5&#45;&gt;Identity4</title>
<g id="a_edge32"><a xlink:title="lret75">
<path fill="none" stroke="blue" d="M480.52,-937.2C480.28,-948.91 478.5,-964.65 476.02,-978.02"/>
<polygon fill="blue" stroke="blue" points="472.53,-977.6 473.9,-988.11 479.38,-979.05 472.53,-977.6"/>
</a>
</g>
</g>
<!-- Identity6 -->
<g id="node7" class="node">
<title>Identity6</title>
<ellipse fill="none" stroke="black" cx="360.2" cy="-1006" rx="44.39" ry="18"/>
<text text-anchor="middle" x="360.2" y="-1002.3" font-family="Times-Roman" font-size="14.00">Identity</text>
</g>
<!-- BangD7 -->
<g id="node8" class="node">
<title>BangD7</title>
<ellipse fill="none" stroke="black" cx="392.2" cy="-919" rx="39.79" ry="18"/>
<text text-anchor="middle" x="392.2" y="-915.3" font-family="Times-Roman" font-size="14.00">BangD</text>
</g>
<!-- BangD7&#45;&gt;Identity6 -->
<g id="edge20" class="edge">
<title>BangD7&#45;&gt;Identity6</title>
<g id="a_edge20"><a xlink:title="hret73">
<path fill="none" stroke="blue" d="M385.87,-936.79C381.39,-948.7 375.28,-964.93 370.14,-978.57"/>
<polygon fill="blue" stroke="blue" points="366.86,-977.35 366.61,-987.95 373.41,-979.82 366.86,-977.35"/>
</a>
</g>
<text text-anchor="middle" x="381.7" y="-958.8" font-family="Times-Roman" font-size="14.00">2</text>
</g>
<!-- BangD7&#45;&gt;Identity6 -->
<g id="edge21" class="edge">
<title>BangD7&#45;&gt;Identity6</title>
<g id="a_edge21"><a xlink:title="hseq72">
<path fill="none" stroke="black" d="M374.33,-935.42C369.1,-941 364.03,-947.74 361.2,-955 358.45,-962.03 357.45,-970.06 357.33,-977.59"/>
<polygon fill="black" stroke="black" points="353.84,-977.88 357.66,-987.76 360.84,-977.65 353.84,-977.88"/>
</a>
</g>
<text text-anchor="middle" x="365.7" y="-958.8" font-family="Times-Roman" font-size="14.00">2</text>
</g>
<!-- Cut8 -->
<g id="node9" class="node">
<title>Cut8</title>
<ellipse fill="none" stroke="black" cx="403.2" cy="-832" rx="27" ry="18"/>
<text text-anchor="middle" x="403.2" y="-828.3" font-family="Times-Roman" font-size="14.00">Cut</text>
</g>
<!-- Cut8&#45;&gt;PiL5 -->
<g id="edge9" class="edge">
<title>Cut8&#45;&gt;PiL5</title>
<g id="a_edge9"><a xlink:title="c_lseq68">
<path fill="none" stroke="black" d="M418.32,-857.47C428.47,-870.09 441.82,-885.32 453.34,-897.35"/>
<polygon fill="black" stroke="black" points="414.76,-847.23 418.16,-857.26 409.25,-851.54 414.76,-847.23"/>
<polygon fill="black" stroke="black" points="451.08,-900.04 460.58,-904.73 456.07,-895.14 451.08,-900.04"/>
</a>
</g>
</g>
<!-- Cut8&#45;&gt;PiL5 -->
<g id="edge35" class="edge">
<title>Cut8&#45;&gt;PiL5</title>
<g id="a_edge35"><a xlink:title="lval70">
<path fill="none" stroke="blue" d="M419.82,-846.28C432.66,-858.96 449.93,-878.38 462.3,-893.81"/>
<polygon fill="blue" stroke="blue" points="459.7,-896.17 468.61,-901.91 465.22,-891.87 459.7,-896.17"/>
</a>
</g>
</g>
<!-- Cut8&#45;&gt;Identity6 -->
<g id="edge55" class="edge">
<title>Cut8&#45;&gt;Identity6</title>
<g id="a_edge55"><a xlink:title="rval71">
<path fill="none" stroke="red" d="M386.01,-846.22C371.48,-858.58 351.72,-878.46 343.2,-901 333.59,-926.41 340.85,-957.33 348.64,-978.82"/>
<polygon fill="red" stroke="red" points="345.42,-980.21 352.31,-988.26 351.94,-977.67 345.42,-980.21"/>
</a>
</g>
</g>
<!-- Cut8&#45;&gt;BangD7 -->
<g id="edge11" class="edge">
<title>Cut8&#45;&gt;BangD7</title>
<g id="a_edge11"><a xlink:title="c_rseq69">
<path fill="none" stroke="black" d="M400.97,-850.2C399.46,-861.83 397.44,-877.45 395.72,-890.76"/>
<polygon fill="black" stroke="black" points="392.23,-890.45 394.42,-900.82 399.17,-891.35 392.23,-890.45"/>
</a>
</g>
<text text-anchor="middle" x="402.7" y="-871.8" font-family="Times-Roman" font-size="14.00">2</text>
</g>
<!-- Bang9 -->
<g id="node10" class="node">
<title>Bang9</title>
<ellipse fill="none" stroke="black" cx="349.2" cy="-745" rx="32.49" ry="18"/>
<text text-anchor="middle" x="349.2" y="-741.3" font-family="Times-Roman" font-size="14.00">Bang</text>
</g>
<!-- Bang9&#45;&gt;Identity4 -->
<g id="edge45" class="edge">
<title>Bang9&#45;&gt;Identity4</title>
<g id="a_edge45"><a xlink:title="newrretf66">
<path fill="none" stroke="red" d="M371.41,-758.45C409.16,-781.07 484.54,-832.94 513.2,-901 525.13,-929.33 532.64,-942.85 518.2,-970 514.72,-976.53 509.41,-982.07 503.5,-986.67"/>
<polygon fill="red" stroke="red" points="501.44,-983.84 495.17,-992.38 505.4,-989.61 501.44,-983.84"/>
</a>
</g>
<text text-anchor="middle" x="507.7" y="-871.8" font-family="Times-Roman" font-size="14.00">2</text>
</g>
<!-- Bang9&#45;&gt;BangD7 -->
<g id="edge19" class="edge">
<title>Bang9&#45;&gt;BangD7</title>
<g id="a_edge19"><a xlink:title="hf65">
<path fill="none" stroke="blue" d="M348.73,-763.28C348.61,-784.21 349.83,-820.34 358.2,-850 362.37,-864.77 369.77,-880.17 376.6,-892.56"/>
<polygon fill="blue" stroke="blue" points="373.65,-894.45 381.66,-901.39 379.73,-890.97 373.65,-894.45"/>
</a>
</g>
<text text-anchor="middle" x="362.7" y="-828.3" font-family="Times-Roman" font-size="14.00">1</text>
</g>
<!-- Bang9&#45;&gt;Cut8 -->
<g id="edge4" class="edge">
<title>Bang9&#45;&gt;Cut8</title>
<g id="a_edge4"><a xlink:title="c_bseq67">
<path fill="none" stroke="black" d="M359.61,-762.38C367.55,-774.89 378.63,-792.32 387.62,-806.48"/>
<polygon fill="black" stroke="black" points="384.86,-808.67 393.18,-815.23 390.77,-804.91 384.86,-808.67"/>
</a>
</g>
<text text-anchor="middle" x="383.7" y="-784.8" font-family="Times-Roman" font-size="14.00">2</text>
</g>
<!-- Identity10 -->
<g id="node11" class="node">
<title>Identity10</title>
<ellipse fill="none" stroke="black" cx="277.2" cy="-658" rx="44.39" ry="18"/>
<text text-anchor="middle" x="277.2" y="-654.3" font-family="Times-Roman" font-size="14.00">Identity</text>
</g>
<!-- Identity11 -->
<g id="node12" class="node">
<title>Identity11</title>
<ellipse fill="none" stroke="black" cx="141.2" cy="-1180" rx="44.39" ry="18"/>
<text text-anchor="middle" x="141.2" y="-1176.3" font-family="Times-Roman" font-size="14.00">Identity</text>
</g>
<!-- BangD12 -->
<g id="node13" class="node">
<title>BangD12</title>
<ellipse fill="none" stroke="black" cx="141.2" cy="-1093" rx="39.79" ry="18"/>
<text text-anchor="middle" x="141.2" y="-1089.3" font-family="Times-Roman" font-size="14.00">BangD</text>
</g>
<!-- BangD12&#45;&gt;Identity11 -->
<g id="edge74" class="edge">
<title>BangD12&#45;&gt;Identity11</title>
<g id="a_edge74"><a xlink:title="yret60">
<path fill="none" stroke="blue" d="M147.51,-1111.04C150.34,-1120.66 152.74,-1132.95 151.2,-1144 150.81,-1146.72 150.27,-1149.53 149.64,-1152.31"/>
<polygon fill="blue" stroke="blue" points="146.22,-1151.55 147.05,-1162.11 152.99,-1153.34 146.22,-1151.55"/>
</a>
</g>
<text text-anchor="middle" x="156.7" y="-1132.8" font-family="Times-Roman" font-size="14.00">2</text>
</g>
<!-- BangD12&#45;&gt;Identity11 -->
<g id="edge76" class="edge">
<title>BangD12&#45;&gt;Identity11</title>
<g id="a_edge76"><a xlink:title="yseq59">
<path fill="none" stroke="black" d="M141.2,-1111.2C141.2,-1122.83 141.2,-1138.45 141.2,-1151.76"/>
<polygon fill="black" stroke="black" points="137.7,-1151.82 141.2,-1161.82 144.7,-1151.82 137.7,-1151.82"/>
</a>
</g>
<text text-anchor="middle" x="145.7" y="-1132.8" font-family="Times-Roman" font-size="14.00">2</text>
</g>
<!-- Bang13 -->
<g id="node14" class="node">
<title>Bang13</title>
<ellipse fill="none" stroke="black" cx="141.2" cy="-1006" rx="32.49" ry="18"/>
<text text-anchor="middle" x="141.2" y="-1002.3" font-family="Times-Roman" font-size="14.00">Bang</text>
</g>
<!-- Bang13&#45;&gt;Identity11 -->
<g id="edge44" class="edge">
<title>Bang13&#45;&gt;Identity11</title>
<g id="a_edge44"><a xlink:title="newrretf57">
<path fill="none" stroke="red" d="M156.47,-1022.15C168.24,-1034.98 183.58,-1054.5 190.2,-1075 195.11,-1090.22 195.11,-1095.77 190.2,-1111 184.93,-1127.31 174.13,-1143.01 164.01,-1155.21"/>
<polygon fill="red" stroke="red" points="161.11,-1153.21 157.19,-1163.05 166.39,-1157.8 161.11,-1153.21"/>
</a>
</g>
<text text-anchor="middle" x="198.7" y="-1089.3" font-family="Times-Roman" font-size="14.00">2</text>
</g>
<!-- Bang13&#45;&gt;BangD12 -->
<g id="edge3" class="edge">
<title>Bang13&#45;&gt;BangD12</title>
<g id="a_edge3"><a xlink:title="c_bseq58">
<path fill="none" stroke="black" d="M141.2,-1024.2C141.2,-1035.83 141.2,-1051.45 141.2,-1064.76"/>
<polygon fill="black" stroke="black" points="137.7,-1064.82 141.2,-1074.82 144.7,-1064.82 137.7,-1064.82"/>
</a>
</g>
<text text-anchor="middle" x="145.7" y="-1045.8" font-family="Times-Roman" font-size="14.00">2</text>
</g>
<!-- Bang13&#45;&gt;BangD12 -->
<g id="edge72" class="edge">
<title>Bang13&#45;&gt;BangD12</title>
<g id="a_edge72"><a xlink:title="yBf56">
<path fill="none" stroke="blue" d="M133.6,-1023.74C131.4,-1029.42 129.3,-1035.87 128.2,-1042 126.82,-1049.64 127.87,-1057.84 129.85,-1065.34"/>
<polygon fill="blue" stroke="blue" points="126.58,-1066.59 133,-1075.01 133.23,-1064.42 126.58,-1066.59"/>
</a>
</g>
<text text-anchor="middle" x="132.7" y="-1045.8" font-family="Times-Roman" font-size="14.00">1</text>
</g>
<!-- Identity14 -->
<g id="node15" class="node">
<title>Identity14</title>
<ellipse fill="none" stroke="black" cx="44.2" cy="-1006" rx="44.39" ry="18"/>
<text text-anchor="middle" x="44.2" y="-1002.3" font-family="Times-Roman" font-size="14.00">Identity</text>
</g>
<!-- PiL15 -->
<g id="node16" class="node">
<title>PiL15</title>
<ellipse fill="none" stroke="black" cx="133.2" cy="-919" rx="27" ry="18"/>
<text text-anchor="middle" x="133.2" y="-915.3" font-family="Times-Roman" font-size="14.00">PiL</text>
</g>
<!-- PiL15&#45;&gt;Bang13 -->
<g id="edge13" class="edge">
<title>PiL15&#45;&gt;Bang13</title>
<g id="a_edge13"><a xlink:title="dseq54">
<path fill="none" stroke="black" d="M134.81,-937.2C135.91,-948.83 137.38,-964.45 138.63,-977.76"/>
<polygon fill="black" stroke="black" points="135.16,-978.19 139.58,-987.82 142.13,-977.54 135.16,-978.19"/>
</a>
</g>
<text text-anchor="middle" x="142.7" y="-958.8" font-family="Times-Roman" font-size="14.00">1</text>
</g>
<!-- PiL15&#45;&gt;Bang13 -->
<g id="edge37" class="edge">
<title>PiL15&#45;&gt;Bang13</title>
<g id="a_edge37"><a xlink:title="newrret52">
<path fill="none" stroke="red" d="M126.8,-936.74C123.92,-946.49 121.67,-958.99 124.2,-970 124.9,-973.06 125.91,-976.16 127.09,-979.19"/>
<polygon fill="red" stroke="red" points="123.98,-980.8 131.28,-988.48 130.36,-977.92 123.98,-980.8"/>
</a>
</g>
<text text-anchor="middle" x="128.7" y="-958.8" font-family="Times-Roman" font-size="14.00">1</text>
</g>
<!-- PiL15&#45;&gt;Identity14 -->
<g id="edge24" class="edge">
<title>PiL15&#45;&gt;Identity14</title>
<g id="a_edge24"><a xlink:title="idseq55">
<path fill="none" stroke="black" d="M107.16,-939.35C92.97,-951.78 75.85,-968.02 62.95,-981.23"/>
<polygon fill="black" stroke="black" points="117.39,-935.19 107.52,-939.05 112.83,-929.88 117.39,-935.19"/>
<polygon fill="black" stroke="black" points="60.28,-978.96 55.9,-988.61 65.34,-983.8 60.28,-978.96"/>
</a>
</g>
</g>
<!-- PiL15&#45;&gt;Identity14 -->
<g id="edge30" class="edge">
<title>PiL15&#45;&gt;Identity14</title>
<g id="a_edge30"><a xlink:title="lret53">
<path fill="none" stroke="blue" d="M122.24,-935.59C109.87,-948.93 89.81,-968.29 73.03,-983.17"/>
<polygon fill="blue" stroke="blue" points="70.35,-980.87 65.1,-990.07 74.94,-986.15 70.35,-980.87"/>
</a>
</g>
</g>
<!-- Identity16 -->
<g id="node17" class="node">
<title>Identity16</title>
<ellipse fill="none" stroke="black" cx="236.2" cy="-1006" rx="44.39" ry="18"/>
<text text-anchor="middle" x="236.2" y="-1002.3" font-family="Times-Roman" font-size="14.00">Identity</text>
</g>
<!-- BangD17 -->
<g id="node18" class="node">
<title>BangD17</title>
<ellipse fill="none" stroke="black" cx="218.2" cy="-919" rx="39.79" ry="18"/>
<text text-anchor="middle" x="218.2" y="-915.3" font-family="Times-Roman" font-size="14.00">BangD</text>
</g>
<!-- BangD17&#45;&gt;Identity16 -->
<g id="edge73" class="edge">
<title>BangD17&#45;&gt;Identity16</title>
<g id="a_edge73"><a xlink:title="yret51">
<path fill="none" stroke="blue" d="M223.49,-936.98C225.15,-942.67 226.88,-949.07 228.2,-955 229.83,-962.35 231.26,-970.37 232.45,-977.8"/>
<polygon fill="blue" stroke="blue" points="229,-978.41 233.96,-987.77 235.92,-977.36 229,-978.41"/>
</a>
</g>
<text text-anchor="middle" x="235.7" y="-958.8" font-family="Times-Roman" font-size="14.00">1</text>
</g>
<!-- BangD17&#45;&gt;Identity16 -->
<g id="edge75" class="edge">
<title>BangD17&#45;&gt;Identity16</title>
<g id="a_edge75"><a xlink:title="yseq50">
<path fill="none" stroke="black" d="M216.73,-937.35C216.36,-947.08 216.64,-959.36 219.2,-970 219.89,-972.89 220.85,-975.82 221.97,-978.7"/>
<polygon fill="black" stroke="black" points="218.89,-980.41 226.17,-988.1 225.28,-977.55 218.89,-980.41"/>
</a>
</g>
<text text-anchor="middle" x="223.7" y="-958.8" font-family="Times-Roman" font-size="14.00">1</text>
</g>
<!-- Cut18 -->
<g id="node19" class="node">
<title>Cut18</title>
<ellipse fill="none" stroke="black" cx="188.2" cy="-832" rx="27" ry="18"/>
<text text-anchor="middle" x="188.2" y="-828.3" font-family="Times-Roman" font-size="14.00">Cut</text>
</g>
<!-- Cut18&#45;&gt;PiL15 -->
<g id="edge8" class="edge">
<title>Cut18&#45;&gt;PiL15</title>
<g id="a_edge8"><a xlink:title="c_lseq46">
<path fill="none" stroke="black" d="M167.42,-855.74C159.27,-867.02 150.36,-880.69 143.54,-892.34"/>
<polygon fill="black" stroke="black" points="176.45,-849.51 167.66,-855.42 170.85,-845.32 176.45,-849.51"/>
<polygon fill="black" stroke="black" points="140.43,-890.73 138.58,-901.17 146.53,-894.17 140.43,-890.73"/>
</a>
</g>
</g>
<!-- Cut18&#45;&gt;PiL15 -->
<g id="edge34" class="edge">
<title>Cut18&#45;&gt;PiL15</title>
<g id="a_edge34"><a xlink:title="lval48">
<path fill="none" stroke="blue" d="M182.83,-849.79C175.88,-862.77 164.35,-880.88 154.02,-895.17"/>
<polygon fill="blue" stroke="blue" points="150.98,-893.4 147.8,-903.5 156.59,-897.59 150.98,-893.4"/>
</a>
</g>
</g>
<!-- Cut18&#45;&gt;Identity16 -->
<g id="edge54" class="edge">
<title>Cut18&#45;&gt;Identity16</title>
<g id="a_edge54"><a xlink:title="rval49">
<path fill="none" stroke="red" d="M208.82,-843.84C227.98,-855.2 255.28,-875.01 267.2,-901 279.09,-926.92 266.08,-958.55 253.46,-980.07"/>
<polygon fill="red" stroke="red" points="250.44,-978.29 248.14,-988.63 256.39,-981.98 250.44,-978.29"/>
</a>
</g>
</g>
<!-- Cut18&#45;&gt;BangD17 -->
<g id="edge10" class="edge">
<title>Cut18&#45;&gt;BangD17</title>
<g id="a_edge10"><a xlink:title="c_rseq47">
<path fill="none" stroke="black" d="M194.12,-849.79C198.29,-861.59 203.94,-877.62 208.73,-891.17"/>
<polygon fill="black" stroke="black" points="205.55,-892.68 212.18,-900.95 212.15,-890.35 205.55,-892.68"/>
</a>
</g>
<text text-anchor="middle" x="209.7" y="-871.8" font-family="Times-Roman" font-size="14.00">1</text>
</g>
<!-- BangC19 -->
<g id="node20" class="node">
<title>BangC19</title>
<ellipse fill="none" stroke="black" cx="188.2" cy="-745" rx="38.19" ry="18"/>
<text text-anchor="middle" x="188.2" y="-741.3" font-family="Times-Roman" font-size="14.00">BangC</text>
</g>
<!-- BangC19&#45;&gt;Bang13 -->
<g id="edge71" class="edge">
<title>BangC19&#45;&gt;Bang13</title>
<g id="a_edge71"><a xlink:title="yB44">
<path fill="none" stroke="blue" d="M168.36,-770.22C146,-799.23 110.98,-850.29 97.2,-901 93,-916.44 92.66,-921.65 97.2,-937 101.99,-953.21 111.98,-969.2 121.24,-981.59"/>
<polygon fill="blue" stroke="blue" points="177.33,-764.46 168.4,-770.16 171.82,-760.13 177.33,-764.46"/>
<polygon fill="blue" stroke="blue" points="118.55,-983.83 127.46,-989.56 124.06,-979.52 118.55,-983.83"/>
</a>
</g>
<text text-anchor="middle" x="113.7" y="-871.8" font-family="Times-Roman" font-size="14.00">1</text>
</g>
<!-- BangC19&#45;&gt;BangD17 -->
<g id="edge70" class="edge">
<title>BangC19&#45;&gt;BangD17</title>
<g id="a_edge70"><a xlink:title="yA43">
<path fill="none" stroke="blue" d="M199.82,-762.39C208.45,-775.61 219.49,-795.07 224.2,-814 230.54,-839.52 227.74,-869.61 224.14,-890.84"/>
<polygon fill="blue" stroke="blue" points="220.68,-890.3 222.28,-900.77 227.56,-891.58 220.68,-890.3"/>
</a>
</g>
<text text-anchor="middle" x="232.7" y="-828.3" font-family="Times-Roman" font-size="14.00">1</text>
</g>
<!-- BangC19&#45;&gt;Cut18 -->
<g id="edge59" class="edge">
<title>BangC19&#45;&gt;Cut18</title>
<g id="a_edge59"><a xlink:title="seq45">
<path fill="none" stroke="black" d="M188.2,-763.2C188.2,-774.83 188.2,-790.45 188.2,-803.76"/>
<polygon fill="black" stroke="black" points="184.7,-803.82 188.2,-813.82 191.7,-803.82 184.7,-803.82"/>
</a>
</g>
</g>
<!-- PiR20 -->
<g id="node21" class="node">
<title>PiR20</title>
<ellipse fill="none" stroke="black" cx="256.2" cy="-484" rx="27" ry="18"/>
<text text-anchor="middle" x="256.2" y="-480.3" font-family="Times-Roman" font-size="14.00">PiR</text>
</g>
<!-- PiR20&#45;&gt;Bang9 -->
<g id="edge18" class="edge">
<title>PiR20&#45;&gt;Bang9</title>
<g id="a_edge18"><a xlink:title="h34">
<path fill="none" stroke="blue" d="M274.85,-497.58C282.63,-503.61 291.22,-511.38 297.2,-520 339.56,-581.06 347.81,-671.76 349.16,-716.71"/>
<polygon fill="blue" stroke="blue" points="345.66,-716.92 349.36,-726.85 352.66,-716.78 345.66,-716.92"/>
</a>
</g>
<text text-anchor="middle" x="342.7" y="-610.8" font-family="Times-Roman" font-size="14.00">1</text>
</g>
<!-- PiR20&#45;&gt;Identity10 -->
<g id="edge49" class="edge">
<title>PiR20&#45;&gt;Identity10</title>
<g id="a_edge49"><a xlink:title="ret35">
<path fill="none" stroke="red" d="M267.29,-500.58C275.99,-513.81 287.4,-533.68 292.2,-553 299.59,-582.77 296.53,-591.98 290.2,-622 289.59,-624.85 288.8,-627.78 287.9,-630.68"/>
<polygon fill="red" stroke="red" points="284.57,-629.61 284.58,-640.2 291.18,-631.92 284.57,-629.61"/>
</a>
</g>
</g>
<!-- Cut29 -->
<g id="node30" class="node">
<title>Cut29</title>
<ellipse fill="none" stroke="black" cx="256.2" cy="-571" rx="27" ry="18"/>
<text text-anchor="middle" x="256.2" y="-567.3" font-family="Times-Roman" font-size="14.00">Cut</text>
</g>
<!-- PiR20&#45;&gt;Cut29 -->
<g id="edge57" class="edge">
<title>PiR20&#45;&gt;Cut29</title>
<g id="a_edge57"><a xlink:title="seq33">
<path fill="none" stroke="black" d="M256.2,-502.2C256.2,-513.83 256.2,-529.45 256.2,-542.76"/>
<polygon fill="black" stroke="black" points="252.7,-542.82 256.2,-552.82 259.7,-542.82 252.7,-542.82"/>
</a>
</g>
</g>
<!-- Identity21 -->
<g id="node22" class="node">
<title>Identity21</title>
<ellipse fill="none" stroke="black" cx="466.2" cy="-658" rx="44.39" ry="18"/>
<text text-anchor="middle" x="466.2" y="-654.3" font-family="Times-Roman" font-size="14.00">Identity</text>
</g>
<!-- BangD22 -->
<g id="node23" class="node">
<title>BangD22</title>
<ellipse fill="none" stroke="black" cx="466.2" cy="-571" rx="39.79" ry="18"/>
<text text-anchor="middle" x="466.2" y="-567.3" font-family="Times-Roman" font-size="14.00">BangD</text>
</g>
<!-- BangD22&#45;&gt;Identity21 -->
<g id="edge66" class="edge">
<title>BangD22&#45;&gt;Identity21</title>
<g id="a_edge66"><a xlink:title="xret26">
<path fill="none" stroke="blue" d="M447.64,-587.39C438.56,-596.88 430.49,-609.58 435.2,-622 436.72,-626.01 438.93,-629.86 441.49,-633.44"/>
<polygon fill="blue" stroke="blue" points="438.86,-635.75 447.92,-641.26 444.27,-631.31 438.86,-635.75"/>
</a>
</g>
<text text-anchor="middle" x="439.7" y="-610.8" font-family="Times-Roman" font-size="14.00">1</text>
</g>
<!-- BangD22&#45;&gt;Identity21 -->
<g id="edge68" class="edge">
<title>BangD22&#45;&gt;Identity21</title>
<g id="a_edge68"><a xlink:title="xseq25">
<path fill="none" stroke="black" d="M466.2,-589.2C466.2,-600.83 466.2,-616.45 466.2,-629.76"/>
<polygon fill="black" stroke="black" points="462.7,-629.82 466.2,-639.82 469.7,-629.82 462.7,-629.82"/>
</a>
</g>
<text text-anchor="middle" x="470.7" y="-610.8" font-family="Times-Roman" font-size="14.00">1</text>
</g>
<!-- Bang23 -->
<g id="node24" class="node">
<title>Bang23</title>
<ellipse fill="none" stroke="black" cx="466.2" cy="-484" rx="32.49" ry="18"/>
<text text-anchor="middle" x="466.2" y="-480.3" font-family="Times-Roman" font-size="14.00">Bang</text>
</g>
<!-- Bang23&#45;&gt;Identity21 -->
<g id="edge42" class="edge">
<title>Bang23&#45;&gt;Identity21</title>
<g id="a_edge42"><a xlink:title="newrretf23">
<path fill="none" stroke="red" d="M448.46,-499.33C434.53,-511.83 416.19,-531.3 408.2,-553 397.11,-583.07 408.79,-597.27 429.2,-622 432.63,-626.15 436.52,-630.31 440.46,-634.24"/>
<polygon fill="red" stroke="red" points="438.35,-637.06 447.99,-641.44 443.18,-632 438.35,-637.06"/>
</a>
</g>
<text text-anchor="middle" x="412.7" y="-567.3" font-family="Times-Roman" font-size="14.00">1</text>
</g>
<!-- Bang23&#45;&gt;BangD22 -->
<g id="edge1" class="edge">
<title>Bang23&#45;&gt;BangD22</title>
<g id="a_edge1"><a xlink:title="c_bseq24">
<path fill="none" stroke="black" d="M466.2,-502.2C466.2,-513.83 466.2,-529.45 466.2,-542.76"/>
<polygon fill="black" stroke="black" points="462.7,-542.82 466.2,-552.82 469.7,-542.82 462.7,-542.82"/>
</a>
</g>
<text text-anchor="middle" x="470.7" y="-523.8" font-family="Times-Roman" font-size="14.00">1</text>
</g>
<!-- Bang23&#45;&gt;BangD22 -->
<g id="edge65" class="edge">
<title>Bang23&#45;&gt;BangD22</title>
<g id="a_edge65"><a xlink:title="xBf22">
<path fill="none" stroke="blue" d="M472.05,-501.88C473.74,-507.56 475.35,-513.99 476.2,-520 477.25,-527.5 476.48,-535.58 474.98,-543.01"/>
<polygon fill="blue" stroke="blue" points="471.53,-542.41 472.51,-552.96 478.32,-544.1 471.53,-542.41"/>
</a>
</g>
<text text-anchor="middle" x="480.7" y="-523.8" font-family="Times-Roman" font-size="14.00">0</text>
</g>
<!-- Identity24 -->
<g id="node25" class="node">
<title>Identity24</title>
<ellipse fill="none" stroke="black" cx="561.2" cy="-484" rx="44.39" ry="18"/>
<text text-anchor="middle" x="561.2" y="-480.3" font-family="Times-Roman" font-size="14.00">Identity</text>
</g>
<!-- PiL25 -->
<g id="node26" class="node">
<title>PiL25</title>
<ellipse fill="none" stroke="black" cx="468.2" cy="-397" rx="27" ry="18"/>
<text text-anchor="middle" x="468.2" y="-393.3" font-family="Times-Roman" font-size="14.00">PiL</text>
</g>
<!-- PiL25&#45;&gt;Bang23 -->
<g id="edge12" class="edge">
<title>PiL25&#45;&gt;Bang23</title>
<g id="a_edge12"><a xlink:title="dseq20">
<path fill="none" stroke="black" d="M467.79,-415.2C467.52,-426.83 467.15,-442.45 466.84,-455.76"/>
<polygon fill="black" stroke="black" points="463.34,-455.74 466.6,-465.82 470.33,-455.91 463.34,-455.74"/>
</a>
</g>
<text text-anchor="middle" x="471.7" y="-436.8" font-family="Times-Roman" font-size="14.00">0</text>
</g>
<!-- PiL25&#45;&gt;Bang23 -->
<g id="edge36" class="edge">
<title>PiL25&#45;&gt;Bang23</title>
<g id="a_edge36"><a xlink:title="newrret18">
<path fill="none" stroke="red" d="M459.6,-414.28C457,-420.03 454.5,-426.65 453.2,-433 451.59,-440.81 452.67,-449.24 454.77,-456.91"/>
<polygon fill="red" stroke="red" points="451.46,-458.06 457.96,-466.43 458.1,-455.84 451.46,-458.06"/>
</a>
</g>
<text text-anchor="middle" x="457.7" y="-436.8" font-family="Times-Roman" font-size="14.00">0</text>
</g>
<!-- PiL25&#45;&gt;Identity24 -->
<g id="edge23" class="edge">
<title>PiL25&#45;&gt;Identity24</title>
<g id="a_edge23"><a xlink:title="idseq21">
<path fill="none" stroke="black" d="M487.28,-420.98C500.16,-433.62 517.23,-449.19 531.8,-461.56"/>
<polygon fill="black" stroke="black" points="482.37,-411.11 486.95,-420.66 477.41,-416.06 482.37,-411.11"/>
<polygon fill="black" stroke="black" points="529.67,-464.35 539.59,-468.07 534.16,-458.98 529.67,-464.35"/>
</a>
</g>
</g>
<!-- PiL25&#45;&gt;Identity24 -->
<g id="edge29" class="edge">
<title>PiL25&#45;&gt;Identity24</title>
<g id="a_edge29"><a xlink:title="lret19">
<path fill="none" stroke="blue" stroke-width="2" d="M486.87,-410.54C502.76,-423.32 525.17,-443.45 541.34,-459.25"/>
<polygon fill="blue" stroke="blue" stroke-width="2" points="539.17,-462.03 548.73,-466.61 544.12,-457.07 539.17,-462.03"/>
</a>
</g>
</g>
<!-- BangD26 -->
<g id="node27" class="node">
<title>BangD26</title>
<ellipse fill="none" stroke="black" cx="447.2" cy="-310" rx="39.79" ry="18"/>
<text text-anchor="middle" x="447.2" y="-306.3" font-family="Times-Roman" font-size="14.00">BangD</text>
</g>
<!-- BangD26&#45;&gt;PiL25 -->
<g id="edge33" class="edge">
<title>BangD26&#45;&gt;PiL25</title>
<g id="a_edge33"><a xlink:title="lval14">
<path fill="none" stroke="blue" stroke-width="2" d="M452.29,-328.03C453.93,-333.72 455.71,-340.11 457.2,-346 459.06,-353.38 460.91,-361.41 462.54,-368.84"/>
<polygon fill="blue" stroke="blue" stroke-width="2" points="459.16,-369.77 464.69,-378.81 466,-368.3 459.16,-369.77"/>
</a>
</g>
<text text-anchor="middle" x="464.7" y="-349.8" font-family="Times-Roman" font-size="14.00">0</text>
</g>
<!-- BangD26&#45;&gt;PiL25 -->
<g id="edge67" class="edge">
<title>BangD26&#45;&gt;PiL25</title>
<g id="a_edge67"><a xlink:title="xseq16">
<path fill="none" stroke="black" d="M445.45,-328.42C444.99,-338.17 445.28,-350.45 448.2,-361 449.16,-364.47 450.54,-367.97 452.14,-371.34"/>
<polygon fill="black" stroke="black" points="449.19,-373.24 457.04,-380.36 455.35,-369.9 449.19,-373.24"/>
</a>
</g>
<text text-anchor="middle" x="452.7" y="-349.8" font-family="Times-Roman" font-size="14.00">0</text>
</g>
<!-- Assign27 -->
<g id="node28" class="node">
<title>Assign27</title>
<ellipse fill="none" stroke="black" cx="394.2" cy="-18" rx="38.99" ry="18"/>
<text text-anchor="middle" x="394.2" y="-14.3" font-family="Times-Roman" font-size="14.00">Assign</text>
</g>
<!-- Assign27&#45;&gt;Identity24 -->
<g id="edge51" class="edge">
<title>Assign27&#45;&gt;Identity24</title>
<g id="a_edge51"><a xlink:title="ret8">
<path fill="none" stroke="red" stroke-width="2" d="M430.79,-24.52C487.76,-34.15 591.2,-56.28 591.2,-90 591.2,-90 591.2,-90 591.2,-398 591.2,-418.8 583.11,-440.91 575.33,-457.37"/>
<polygon fill="red" stroke="red" stroke-width="2" points="572.18,-455.84 570.85,-466.35 578.45,-458.96 572.18,-455.84"/>
</a>
</g>
</g>
<!-- Cut35 -->
<g id="node36" class="node">
<title>Cut35</title>
<ellipse fill="none" stroke="black" cx="394.2" cy="-91" rx="27" ry="18"/>
<text text-anchor="middle" x="394.2" y="-87.3" font-family="Times-Roman" font-size="14.00">Cut</text>
</g>
<!-- Assign27&#45;&gt;Cut35 -->
<g id="edge53" class="edge">
<title>Assign27&#45;&gt;Cut35</title>
<g id="a_edge53"><a xlink:title="retseq0">
<path fill="none" stroke="black" d="M394.2,-36.19C394.2,-44.21 394.2,-53.95 394.2,-62.93"/>
<polygon fill="black" stroke="black" points="390.7,-62.97 394.2,-72.97 397.7,-62.97 390.7,-62.97"/>
</a>
</g>
</g>
<!-- Cut28 -->
<g id="node29" class="node">
<title>Cut28</title>
<ellipse fill="none" stroke="black" cx="188.2" cy="-658" rx="27" ry="18"/>
<text text-anchor="middle" x="188.2" y="-654.3" font-family="Times-Roman" font-size="14.00">Cut</text>
</g>
<!-- Cut28&#45;&gt;Bang9 -->
<g id="edge14" class="edge">
<title>Cut28&#45;&gt;Bang9</title>
<g id="a_edge14"><a xlink:title="dseq63">
<path fill="none" stroke="black" d="M209.46,-669.14C223.64,-675.99 242.64,-685.32 259.2,-694 279.1,-704.42 301.16,-716.67 318.46,-726.43"/>
<polygon fill="black" stroke="black" points="317.11,-729.69 327.54,-731.57 320.56,-723.6 317.11,-729.69"/>
</a>
</g>
<text text-anchor="middle" x="291.7" y="-697.8" font-family="Times-Roman" font-size="14.00">1</text>
</g>
<!-- Cut28&#45;&gt;Bang9 -->
<g id="edge38" class="edge">
<title>Cut28&#45;&gt;Bang9</title>
<g id="a_edge38"><a xlink:title="newrret61">
<path fill="none" stroke="red" d="M202.54,-673.85C213.82,-684.82 230.39,-699.44 247.2,-709 266.74,-720.1 290.39,-728.49 309.99,-734.27"/>
<polygon fill="red" stroke="red" points="309.26,-737.69 319.83,-737.05 311.16,-730.96 309.26,-737.69"/>
</a>
</g>
<text text-anchor="middle" x="251.7" y="-697.8" font-family="Times-Roman" font-size="14.00">1</text>
</g>
<!-- Cut28&#45;&gt;BangC19 -->
<g id="edge58" class="edge">
<title>Cut28&#45;&gt;BangC19</title>
<g id="a_edge58"><a xlink:title="seq40">
<path fill="none" stroke="black" d="M181.87,-685.92C181.31,-695.79 181.31,-706.96 181.85,-716.84"/>
<polygon fill="black" stroke="black" points="186.18,-676.07 181.88,-685.76 179.2,-675.5 186.18,-676.07"/>
<polygon fill="black" stroke="black" points="178.38,-717.26 182.66,-726.95 185.35,-716.7 178.38,-717.26"/>
</a>
</g>
</g>
<!-- Cut28&#45;&gt;BangC19 -->
<g id="edge69" class="edge">
<title>Cut28&#45;&gt;BangC19</title>
<g id="a_edge69"><a xlink:title="y41">
<path fill="none" stroke="blue" d="M193.7,-675.79C195,-687.47 195.28,-703.3 194.54,-716.77"/>
<polygon fill="blue" stroke="blue" points="191.04,-716.7 193.73,-726.95 198.02,-717.26 191.04,-716.7"/>
</a>
</g>
</g>
<!-- Cut29&#45;&gt;Identity10 -->
<g id="edge25" class="edge">
<title>Cut29&#45;&gt;Identity10</title>
<g id="a_edge25"><a xlink:title="idseq64">
<path fill="none" stroke="black" d="M256.61,-599.4C258.54,-609.43 261.36,-620.74 264.4,-630.67"/>
<polygon fill="black" stroke="black" points="258.35,-588.62 256.55,-599.06 251.45,-589.78 258.35,-588.62"/>
<polygon fill="black" stroke="black" points="261.15,-632 267.61,-640.4 267.8,-629.81 261.15,-632"/>
</a>
</g>
</g>
<!-- Cut29&#45;&gt;Identity10 -->
<g id="edge31" class="edge">
<title>Cut29&#45;&gt;Identity10</title>
<g id="a_edge31"><a xlink:title="lret62">
<path fill="none" stroke="blue" d="M265.56,-587.98C269.86,-599.79 274.21,-616.13 276.85,-629.95"/>
<polygon fill="blue" stroke="blue" points="273.41,-630.62 278.51,-639.91 280.32,-629.47 273.41,-630.62"/>
</a>
</g>
</g>
<!-- Cut29&#45;&gt;Identity14 -->
<g id="edge50" class="edge">
<title>Cut29&#45;&gt;Identity14</title>
<g id="a_edge50"><a xlink:title="ret42">
<path fill="none" stroke="red" d="M229.87,-575.39C166.41,-584.3 10.2,-610.91 10.2,-657 10.2,-657 10.2,-657 10.2,-920 10.2,-941.12 19.36,-963.22 28.17,-979.59"/>
<polygon fill="red" stroke="red" points="25.26,-981.56 33.25,-988.52 31.35,-978.09 25.26,-981.56"/>
</a>
</g>
</g>
<!-- Cut29&#45;&gt;Cut28 -->
<g id="edge62" class="edge">
<title>Cut29&#45;&gt;Cut28</title>
<g id="a_edge62"><a xlink:title="seqP86">
<path fill="none" stroke="black" d="M244.04,-587.19C233.76,-600.05 218.85,-618.68 207.03,-633.46"/>
<polygon fill="black" stroke="black" points="203.99,-631.65 200.48,-641.64 209.46,-636.02 203.99,-631.65"/>
</a>
</g>
</g>
<!-- Dup30 -->
<g id="node31" class="node">
<title>Dup30</title>
<ellipse fill="none" stroke="black" cx="256.2" cy="-397" rx="28.7" ry="18"/>
<text text-anchor="middle" x="256.2" y="-393.3" font-family="Times-Roman" font-size="14.00">Dup</text>
</g>
<!-- Dup30&#45;&gt;PiR20 -->
<g id="edge2" class="edge">
<title>Dup30&#45;&gt;PiR20</title>
<g id="a_edge2"><a xlink:title="c_bseq32">
<path fill="none" stroke="black" d="M256.2,-415.2C256.2,-426.83 256.2,-442.45 256.2,-455.76"/>
<polygon fill="black" stroke="black" points="252.7,-455.82 256.2,-465.82 259.7,-455.82 252.7,-455.82"/>
</a>
</g>
<text text-anchor="middle" x="260.7" y="-436.8" font-family="Times-Roman" font-size="14.00">1</text>
</g>
<!-- Dup31 -->
<g id="node32" class="node">
<title>Dup31</title>
<ellipse fill="none" stroke="black" cx="331.2" cy="-397" rx="28.7" ry="18"/>
<text text-anchor="middle" x="331.2" y="-393.3" font-family="Times-Roman" font-size="14.00">Dup</text>
</g>
<!-- Dup31&#45;&gt;PiR20 -->
<g id="edge43" class="edge">
<title>Dup31&#45;&gt;PiR20</title>
<g id="a_edge43"><a xlink:title="newrretf31">
<path fill="none" stroke="red" d="M317.79,-413.19C306.2,-426.33 289.28,-445.49 276.11,-460.42"/>
<polygon fill="red" stroke="red" points="273.23,-458.4 269.24,-468.22 278.48,-463.03 273.23,-458.4"/>
</a>
</g>
<text text-anchor="middle" x="302.7" y="-436.8" font-family="Times-Roman" font-size="14.00">1</text>
</g>
<!-- Bang32 -->
<g id="node33" class="node">
<title>Bang32</title>
<ellipse fill="none" stroke="black" cx="357.2" cy="-310" rx="32.49" ry="18"/>
<text text-anchor="middle" x="357.2" y="-306.3" font-family="Times-Roman" font-size="14.00">Bang</text>
</g>
<!-- Bang32&#45;&gt;Dup30 -->
<g id="edge6" class="edge">
<title>Bang32&#45;&gt;Dup30</title>
<g id="a_edge6"><a xlink:title="c_bseq87">
<path fill="none" stroke="black" d="M340.06,-325.41C323.76,-339.13 299.06,-359.92 280.69,-375.38"/>
<polygon fill="black" stroke="black" points="278.14,-372.95 272.74,-382.07 282.65,-378.31 278.14,-372.95"/>
</a>
</g>
<text text-anchor="middle" x="317.7" y="-349.8" font-family="Times-Roman" font-size="14.00">1</text>
</g>
<!-- Bang32&#45;&gt;Dup31 -->
<g id="edge47" class="edge">
<title>Bang32&#45;&gt;Dup31</title>
<g id="a_edge47"><a xlink:title="newrretf88">
<path fill="none" stroke="red" d="M352.06,-327.79C348.43,-339.66 343.48,-355.83 339.32,-369.44"/>
<polygon fill="red" stroke="red" points="335.9,-368.65 336.32,-379.24 342.59,-370.7 335.9,-368.65"/>
</a>
</g>
<text text-anchor="middle" x="350.7" y="-349.8" font-family="Times-Roman" font-size="14.00">1</text>
</g>
<!-- Bang33 -->
<g id="node34" class="node">
<title>Bang33</title>
<ellipse fill="none" stroke="black" cx="298.2" cy="-256" rx="32.49" ry="18"/>
<text text-anchor="middle" x="298.2" y="-252.3" font-family="Times-Roman" font-size="14.00">Bang</text>
</g>
<!-- Bang33&#45;&gt;Dup30 -->
<g id="edge7" class="edge">
<title>Bang33&#45;&gt;Dup30</title>
<g id="a_edge7"><a xlink:title="c_bseq91">
<path fill="none" stroke="black" d="M293.05,-274.04C285.83,-297.93 272.64,-341.59 264.15,-369.67"/>
<polygon fill="none" stroke="black" points="260.8,-368.66 261.26,-379.25 267.5,-370.69 260.8,-368.66"/>
</a>
</g>
<text text-anchor="middle" x="292.7" y="-306.3" font-family="Times-Roman" font-size="14.00">1</text>
</g>
<!-- Bang33&#45;&gt;Dup31 -->
<g id="edge48" class="edge">
<title>Bang33&#45;&gt;Dup31</title>
<g id="a_edge48"><a xlink:title="newrretf92">
<path fill="none" stroke="red" d="M299.34,-274.11C300.55,-288.6 302.9,-309.86 307.2,-328 310.57,-342.22 315.86,-357.62 320.61,-370.16"/>
<polygon fill="none" stroke="red" points="317.37,-371.48 324.27,-379.53 323.89,-368.94 317.37,-371.48"/>
</a>
</g>
<text text-anchor="middle" x="311.7" y="-306.3" font-family="Times-Roman" font-size="14.00">1</text>
</g>
<!-- Cut34 -->
<g id="node35" class="node">
<title>Cut34</title>
<ellipse fill="none" stroke="black" cx="394.2" cy="-190" rx="26" ry="26"/>
<ellipse fill="none" stroke="black" cx="394.2" cy="-190" rx="30" ry="30"/>
<text text-anchor="middle" x="394.2" y="-186.3" font-family="Times-Roman" font-size="14.00">Cut</text>
</g>
<!-- Cut34&#45;&gt;BangD26 -->
<g id="edge56" class="edge">
<title>Cut34&#45;&gt;BangD26</title>
<g id="a_edge56"><a xlink:title="seq11">
<path fill="none" stroke="black" d="M419.68,-221.71C423.23,-226.93 426.56,-232.46 429.2,-238 435.75,-251.77 440.11,-268.22 442.9,-281.82"/>
<polygon fill="black" stroke="black" points="416.4,-211.21 419.43,-221.37 410.73,-215.32 416.4,-211.21"/>
<polygon fill="black" stroke="black" points="439.53,-282.82 444.81,-292 446.41,-281.53 439.53,-282.82"/>
</a>
</g>
<text text-anchor="middle" x="444.7" y="-252.3" font-family="Times-Roman" font-size="14.00">0</text>
</g>
<!-- Cut34&#45;&gt;BangD26 -->
<g id="edge63" class="edge">
<title>Cut34&#45;&gt;BangD26</title>
<g id="a_edge63"><a xlink:title="xA9">
<path fill="none" stroke="blue" stroke-width="2" d="M400.5,-219.64C404.77,-236.11 411.27,-256.85 420.2,-274 422.1,-277.64 424.38,-281.3 426.81,-284.8"/>
<polygon fill="blue" stroke="blue" stroke-width="2" points="424.22,-287.17 433.01,-293.08 429.82,-282.97 424.22,-287.17"/>
</a>
</g>
<text text-anchor="middle" x="424.7" y="-252.3" font-family="Times-Roman" font-size="14.00">0</text>
</g>
<!-- Cut34&#45;&gt;Bang32 -->
<g id="edge16" class="edge">
<title>Cut34&#45;&gt;Bang32</title>
<g id="a_edge16"><a xlink:title="dseq89">
<path fill="none" stroke="black" d="M372.56,-211.53C366,-219.14 359.62,-228.3 356.2,-238 351.3,-251.84 351.18,-268.18 352.45,-281.69"/>
<polygon fill="black" stroke="black" points="349,-282.32 353.7,-291.82 355.94,-281.46 349,-282.32"/>
</a>
</g>
<text text-anchor="middle" x="360.7" y="-252.3" font-family="Times-Roman" font-size="14.00">0</text>
</g>
<!-- Cut34&#45;&gt;Bang32 -->
<g id="edge40" class="edge">
<title>Cut34&#45;&gt;Bang32</title>
<g id="a_edge40"><a xlink:title="newrret90">
<path fill="none" stroke="red" d="M385.43,-218.96C379.41,-238.17 371.46,-263.51 365.53,-282.41"/>
<polygon fill="red" stroke="red" points="362.12,-281.58 362.47,-292.17 368.8,-283.67 362.12,-281.58"/>
</a>
</g>
<text text-anchor="middle" x="382.7" y="-252.3" font-family="Times-Roman" font-size="14.00">0</text>
</g>
<!-- Cut35&#45;&gt;Bang23 -->
<g id="edge64" class="edge">
<title>Cut35&#45;&gt;Bang23</title>
<g id="a_edge64"><a xlink:title="xB10">
<path fill="none" stroke="blue" d="M419.07,-98.47C456.55,-109.89 523.2,-137.44 523.2,-189 523.2,-189 523.2,-189 523.2,-398 523.2,-422.73 506.34,-445.7 490.96,-461.51"/>
<polygon fill="blue" stroke="blue" points="488.33,-459.19 483.61,-468.67 493.21,-464.2 488.33,-459.19"/>
</a>
</g>
<text text-anchor="middle" x="527.7" y="-306.3" font-family="Times-Roman" font-size="14.00">0</text>
</g>
<!-- Cut35&#45;&gt;Bang33 -->
<g id="edge17" class="edge">
<title>Cut35&#45;&gt;Bang33</title>
<g id="a_edge17"><a xlink:title="dseq93">
<path fill="none" stroke="black" d="M384.82,-107.93C368.08,-136.34 332.97,-195.95 312.97,-229.91"/>
<polygon fill="black" stroke="black" points="309.82,-228.37 307.76,-238.76 315.85,-231.92 309.82,-228.37"/>
</a>
</g>
<text text-anchor="middle" x="377.7" y="-130.8" font-family="Times-Roman" font-size="14.00">0</text>
</g>
<!-- Cut35&#45;&gt;Bang33 -->
<g id="edge41" class="edge">
<title>Cut35&#45;&gt;Bang33</title>
<g id="a_edge41"><a xlink:title="newrret94">
<path fill="none" stroke="red" d="M374.18,-103.56C355.76,-115.32 329.22,-135.29 315.2,-160 303.47,-180.65 299.52,-207.56 298.33,-227.46"/>
<polygon fill="red" stroke="red" points="294.82,-227.58 297.91,-237.71 301.81,-227.86 294.82,-227.58"/>
</a>
</g>
<text text-anchor="middle" x="347.7" y="-130.8" font-family="Times-Roman" font-size="14.00">0</text>
</g>
<!-- Cut35&#45;&gt;Cut34 -->
<g id="edge61" class="edge">
<title>Cut35&#45;&gt;Cut34</title>
<g id="a_edge61"><a xlink:title="seqBC95">
<path fill="none" stroke="black" d="M394.2,-119.63C394.2,-128.91 394.2,-139.45 394.2,-149.46"/>
<polygon fill="black" stroke="black" points="397.7,-109.34 394.2,-119.34 390.7,-109.34 397.7,-109.34"/>
<polygon fill="black" stroke="black" points="390.7,-149.63 394.2,-159.63 397.7,-149.63 390.7,-149.63"/>
</a>
</g>
</g>
</g>
</svg>
