<?xml version="1.0" encoding="UTF-8" standalone="no"?>
<!DOCTYPE svg PUBLIC "-//W3C//DTD SVG 1.1//EN"
 "http://www.w3.org/Graphics/SVG/1.1/DTD/svg11.dtd">
<!-- Generated by graphviz version 2.49.3 (0)
 -->
<!-- Pages: 1 -->
<svg width="538pt" height="1531pt"
 viewBox="0.00 0.00 538.00 1530.80" xmlns="http://www.w3.org/2000/svg" xmlns:xlink="http://www.w3.org/1999/xlink">
<g id="graph0" class="graph" transform="scale(1 1) rotate(0) translate(4 1526.8)">
<polygon fill="white" stroke="transparent" points="-4,4 -4,-1526.8 534,-1526.8 534,4 -4,4"/>
<!-- I0 -->
<g id="node1" class="node">
<title>I0</title>
<ellipse fill="none" stroke="black" cx="27" cy="-1001.4" rx="27" ry="18"/>
<text text-anchor="middle" x="27" y="-997.7" font-family="Times,serif" font-size="14.00">I</text>
</g>
<!-- !d1 -->
<g id="node2" class="node">
<title>!d1</title>
<ellipse fill="none" stroke="black" cx="82" cy="-905" rx="27" ry="18"/>
<text text-anchor="middle" x="82" y="-901.3" font-family="Times,serif" font-size="14.00">!d</text>
</g>
<!-- I0&#45;&gt;!d1 -->
<g id="edge4" class="edge">
<title>I0&#45;&gt;!d1</title>
<g id="a_edge4"><a xlink:title="iret84">
<path fill="none" stroke="blue" d="M41.46,-975.58C51.31,-958.67 64.08,-936.76 72.62,-922.09"/>
<polygon fill="blue" stroke="blue" points="38.34,-973.98 36.33,-984.38 44.39,-977.51 38.34,-973.98"/>
</a>
</g>
<text text-anchor="middle" x="65.5" y="-944.8" font-family="Times,serif" font-size="14.00">3</text>
</g>
<!-- λ2 -->
<g id="node3" class="node">
<title>λ2</title>
<ellipse fill="none" stroke="black" cx="82" cy="-818" rx="27" ry="18"/>
<text text-anchor="middle" x="82" y="-814.3" font-family="Times,serif" font-size="14.00">λ</text>
</g>
<!-- !d1&#45;&gt;λ2 -->
<g id="edge3" class="edge">
<title>!d1&#45;&gt;λ2</title>
<g id="a_edge3"><a xlink:title="i81">
<path fill="none" stroke="blue" d="M82,-876.73C82,-863.42 82,-847.81 82,-836.18"/>
<polygon fill="blue" stroke="blue" points="78.5,-876.8 82,-886.8 85.5,-876.8 78.5,-876.8"/>
</a>
</g>
<text text-anchor="middle" x="85.5" y="-857.8" font-family="Times,serif" font-size="14.00">3</text>
</g>
<!-- λ2&#45;&gt;I0 -->
<g id="edge28" class="edge">
<title>λ2&#45;&gt;I0</title>
<g id="a_edge28"><a xlink:title="ret82">
<path fill="none" stroke="red" d="M71.74,-834.83C63.53,-848.21 52.38,-868.15 46,-887 36.38,-915.4 31.51,-949.51 29.13,-972.86"/>
<polygon fill="red" stroke="red" points="25.62,-972.79 28.17,-983.07 32.59,-973.44 25.62,-972.79"/>
</a>
</g>
</g>
<!-- !p3 -->
<g id="node4" class="node">
<title>!p3</title>
<ellipse fill="none" stroke="black" cx="154" cy="-905" rx="27" ry="18"/>
<text text-anchor="middle" x="154" y="-901.3" font-family="Times,serif" font-size="14.00">!p</text>
</g>
<!-- !p3&#45;&gt;λ2 -->
<g id="edge22" class="edge">
<title>!p3&#45;&gt;λ2</title>
<g id="a_edge22"><a xlink:title="newrretf78">
<path fill="none" stroke="red" d="M141.13,-888.8C130.07,-875.75 113.96,-856.74 101.35,-841.85"/>
<polygon fill="red" stroke="red" points="103.89,-839.43 94.76,-834.06 98.55,-843.96 103.89,-839.43"/>
</a>
</g>
<text text-anchor="middle" x="126.5" y="-857.8" font-family="Times,serif" font-size="14.00">3</text>
</g>
<!-- I4 -->
<g id="node5" class="node">
<title>I4</title>
<ellipse fill="none" stroke="black" cx="210" cy="-731" rx="27" ry="18"/>
<text text-anchor="middle" x="210" y="-727.3" font-family="Times,serif" font-size="14.00">I</text>
</g>
<!-- @5 -->
<g id="node6" class="node">
<title>@5</title>
<ellipse fill="none" stroke="black" cx="190" cy="-1001.4" rx="27" ry="18"/>
<text text-anchor="middle" x="190" y="-997.7" font-family="Times,serif" font-size="14.00">@</text>
</g>
<!-- I4&#45;&gt;@5 -->
<g id="edge8" class="edge">
<title>I4&#45;&gt;@5</title>
<g id="a_edge8"><a xlink:title="lret75">
<path fill="none" stroke="blue" d="M207.98,-759.11C203.88,-814.18 194.67,-937.75 191.28,-983.2"/>
<polygon fill="blue" stroke="blue" points="211.48,-759.29 208.73,-749.05 204.5,-758.77 211.48,-759.29"/>
</a>
</g>
</g>
<!-- @5&#45;&gt;!p3 -->
<g id="edge16" class="edge">
<title>@5&#45;&gt;!p3</title>
<g id="a_edge16"><a xlink:title="newrret74">
<path fill="none" stroke="red" d="M183.56,-983.52C178.14,-969.29 170.28,-948.69 164.03,-932.3"/>
<polygon fill="red" stroke="red" points="167.21,-930.83 160.38,-922.73 160.67,-933.32 167.21,-930.83"/>
</a>
</g>
<text text-anchor="middle" x="175.5" y="-944.8" font-family="Times,serif" font-size="14.00">2</text>
</g>
<!-- !d6 -->
<g id="node7" class="node">
<title>!d6</title>
<ellipse fill="none" stroke="black" cx="264" cy="-905" rx="27" ry="18"/>
<text text-anchor="middle" x="264" y="-901.3" font-family="Times,serif" font-size="14.00">!d</text>
</g>
<!-- @5&#45;&gt;!d6 -->
<g id="edge12" class="edge">
<title>@5&#45;&gt;!d6</title>
<g id="a_edge12"><a xlink:title="lval70">
<path fill="none" stroke="blue" d="M208.15,-977.24C221.76,-959.88 240.02,-936.59 251.89,-921.44"/>
<polygon fill="blue" stroke="blue" points="205.3,-975.2 201.89,-985.23 210.81,-979.52 205.3,-975.2"/>
</a>
</g>
<text text-anchor="middle" x="239.5" y="-944.8" font-family="Times,serif" font-size="14.00">2</text>
</g>
<!-- !p7 -->
<g id="node8" class="node">
<title>!p7</title>
<ellipse fill="none" stroke="black" cx="264" cy="-818" rx="27" ry="18"/>
<text text-anchor="middle" x="264" y="-814.3" font-family="Times,serif" font-size="14.00">!p</text>
</g>
<!-- !d6&#45;&gt;!p7 -->
<g id="edge2" class="edge">
<title>!d6&#45;&gt;!p7</title>
<g id="a_edge2"><a xlink:title="hf65">
<path fill="none" stroke="blue" d="M264,-876.73C264,-863.42 264,-847.81 264,-836.18"/>
<polygon fill="blue" stroke="blue" points="260.5,-876.8 264,-886.8 267.5,-876.8 260.5,-876.8"/>
</a>
</g>
<text text-anchor="middle" x="267.5" y="-857.8" font-family="Times,serif" font-size="14.00">1</text>
</g>
<!-- !p7&#45;&gt;I4 -->
<g id="edge21" class="edge">
<title>!p7&#45;&gt;I4</title>
<g id="a_edge21"><a xlink:title="newrretf66">
<path fill="none" stroke="red" d="M253.84,-801.01C245.92,-788.55 234.78,-771.01 225.72,-756.74"/>
<polygon fill="red" stroke="red" points="228.43,-754.48 220.11,-747.92 222.52,-758.23 228.43,-754.48"/>
</a>
</g>
<text text-anchor="middle" x="244.5" y="-770.8" font-family="Times,serif" font-size="14.00">2</text>
</g>
<!-- λ19 -->
<g id="node20" class="node">
<title>λ19</title>
<ellipse fill="none" stroke="black" cx="327" cy="-731" rx="27" ry="18"/>
<text text-anchor="middle" x="327" y="-727.3" font-family="Times,serif" font-size="14.00">λ</text>
</g>
<!-- !p7&#45;&gt;λ19 -->
<g id="edge1" class="edge">
<title>!p7&#45;&gt;λ19</title>
<g id="a_edge1"><a xlink:title="h34">
<path fill="none" stroke="blue" d="M281.57,-793.29C292.42,-778.65 306.04,-760.28 315.52,-747.49"/>
<polygon fill="blue" stroke="blue" points="278.7,-791.29 275.56,-801.41 284.32,-795.46 278.7,-791.29"/>
</a>
</g>
<text text-anchor="middle" x="302.5" y="-770.8" font-family="Times,serif" font-size="14.00">1</text>
</g>
<!-- I8 -->
<g id="node9" class="node">
<title>I8</title>
<ellipse fill="none" stroke="black" cx="327" cy="-644" rx="27" ry="18"/>
<text text-anchor="middle" x="327" y="-640.3" font-family="Times,serif" font-size="14.00">I</text>
</g>
<!-- @9 -->
<g id="node10" class="node">
<title>@9</title>
<ellipse fill="none" stroke="black" cx="265" cy="-571" rx="27" ry="18"/>
<text text-anchor="middle" x="265" y="-567.3" font-family="Times,serif" font-size="14.00">@</text>
</g>
<!-- I8&#45;&gt;@9 -->
<g id="edge7" class="edge">
<title>I8&#45;&gt;@9</title>
<g id="a_edge7"><a xlink:title="lret62">
<path fill="none" stroke="blue" d="M307.27,-620.41C297.75,-609.51 286.59,-596.73 278.13,-587.04"/>
<polygon fill="blue" stroke="blue" points="304.64,-622.71 313.85,-627.94 309.91,-618.11 304.64,-622.71"/>
</a>
</g>
</g>
<!-- @9&#45;&gt;!p7 -->
<g id="edge15" class="edge">
<title>@9&#45;&gt;!p7</title>
<g id="a_edge15"><a xlink:title="newrret61">
<path fill="none" stroke="red" d="M264.93,-589.21C264.76,-631.1 264.32,-738.65 264.11,-789.53"/>
<polygon fill="red" stroke="red" points="260.61,-789.76 264.07,-799.77 267.61,-789.79 260.61,-789.76"/>
</a>
</g>
<text text-anchor="middle" x="268.5" y="-683.8" font-family="Times,serif" font-size="14.00">1</text>
</g>
<!-- Cut18 -->
<g id="node19" class="node">
<title>Cut18</title>
<ellipse fill="none" stroke="black" cx="265" cy="-498" rx="27" ry="18"/>
<text text-anchor="middle" x="265" y="-494.3" font-family="Times,serif" font-size="14.00">Cut</text>
</g>
<!-- @9&#45;&gt;Cut18 -->
<g id="edge10" class="edge">
<title>@9&#45;&gt;Cut18</title>
<g id="a_edge10"><a xlink:title="lval38">
<path fill="none" stroke="blue" d="M265,-542.75C265,-533.77 265,-524.03 265,-516.03"/>
<polygon fill="blue" stroke="blue" points="261.5,-542.81 265,-552.81 268.5,-542.81 261.5,-542.81"/>
</a>
</g>
</g>
<!-- I10 -->
<g id="node11" class="node">
<title>I10</title>
<ellipse fill="none" stroke="black" cx="176" cy="-105" rx="27" ry="18"/>
<text text-anchor="middle" x="176" y="-101.3" font-family="Times,serif" font-size="14.00">I</text>
</g>
<!-- !d11 -->
<g id="node12" class="node">
<title>!d11</title>
<ellipse fill="none" stroke="black" cx="208" cy="-18" rx="27" ry="18"/>
<text text-anchor="middle" x="208" y="-14.3" font-family="Times,serif" font-size="14.00">!d</text>
</g>
<!-- I10&#45;&gt;!d11 -->
<g id="edge37" class="edge">
<title>I10&#45;&gt;!d11</title>
<g id="a_edge37"><a xlink:title="yret60">
<path fill="none" stroke="blue" d="M185.86,-77.8C191.02,-64.1 197.18,-47.74 201.69,-35.76"/>
<polygon fill="blue" stroke="blue" points="182.57,-76.61 182.32,-87.21 189.12,-79.08 182.57,-76.61"/>
</a>
</g>
<text text-anchor="middle" x="197.5" y="-57.8" font-family="Times,serif" font-size="14.00">2</text>
</g>
<!-- !p12 -->
<g id="node13" class="node">
<title>!p12</title>
<ellipse fill="none" stroke="black" cx="213" cy="-192" rx="27" ry="18"/>
<text text-anchor="middle" x="213" y="-188.3" font-family="Times,serif" font-size="14.00">!p</text>
</g>
<!-- !d11&#45;&gt;!p12 -->
<g id="edge36" class="edge">
<title>!d11&#45;&gt;!p12</title>
<g id="a_edge36"><a xlink:title="yBf56">
<path fill="none" stroke="blue" d="M209.91,-46.22C210.7,-58.65 211.54,-73.56 212,-87 213.04,-117.5 213.14,-153.05 213.09,-173.7"/>
<polygon fill="blue" stroke="blue" points="213.39,-45.78 209.23,-36.04 206.4,-46.25 213.39,-45.78"/>
</a>
</g>
<text text-anchor="middle" x="216.5" y="-101.3" font-family="Times,serif" font-size="14.00">1</text>
</g>
<!-- !p12&#45;&gt;I10 -->
<g id="edge20" class="edge">
<title>!p12&#45;&gt;I10</title>
<g id="a_edge20"><a xlink:title="newrretf57">
<path fill="none" stroke="red" d="M205.87,-174.61C200.63,-162.58 193.4,-145.98 187.37,-132.13"/>
<polygon fill="red" stroke="red" points="190.44,-130.4 183.24,-122.63 184.02,-133.19 190.44,-130.4"/>
</a>
</g>
<text text-anchor="middle" x="200.5" y="-144.8" font-family="Times,serif" font-size="14.00">2</text>
</g>
<!-- !c16 -->
<g id="node17" class="node">
<title>!c16</title>
<ellipse fill="none" stroke="black" cx="302" cy="-105" rx="27" ry="18"/>
<text text-anchor="middle" x="302" y="-101.3" font-family="Times,serif" font-size="14.00">!c</text>
</g>
<!-- !p12&#45;&gt;!c16 -->
<g id="edge35" class="edge">
<title>!p12&#45;&gt;!c16</title>
<g id="a_edge35"><a xlink:title="yB44">
<path fill="none" stroke="blue" d="M235.43,-169.84C240.24,-165.28 245.3,-160.49 250,-156 259.77,-146.68 270.54,-136.34 279.72,-127.5"/>
<polygon fill="blue" stroke="blue" points="233.01,-167.31 228.15,-176.72 237.82,-172.4 233.01,-167.31"/>
<polygon fill="blue" stroke="blue" points="289.44,-122.99 279.81,-127.41 284.58,-117.95 289.44,-122.99"/>
</a>
</g>
<text text-anchor="middle" x="268.5" y="-144.8" font-family="Times,serif" font-size="14.00">1</text>
</g>
<!-- I13 -->
<g id="node14" class="node">
<title>I13</title>
<ellipse fill="none" stroke="black" cx="265" cy="-352" rx="27" ry="18"/>
<text text-anchor="middle" x="265" y="-348.3" font-family="Times,serif" font-size="14.00">I</text>
</g>
<!-- @14 -->
<g id="node15" class="node">
<title>@14</title>
<ellipse fill="none" stroke="black" cx="244" cy="-279" rx="27" ry="18"/>
<text text-anchor="middle" x="244" y="-275.3" font-family="Times,serif" font-size="14.00">@</text>
</g>
<!-- I13&#45;&gt;@14 -->
<g id="edge6" class="edge">
<title>I13&#45;&gt;@14</title>
<g id="a_edge6"><a xlink:title="lret53">
<path fill="none" stroke="blue" d="M257.17,-324.54C254.42,-315.21 251.39,-305 248.94,-296.71"/>
<polygon fill="blue" stroke="blue" points="253.83,-325.58 260.02,-334.17 260.54,-323.59 253.83,-325.58"/>
</a>
</g>
</g>
<!-- @14&#45;&gt;!p12 -->
<g id="edge14" class="edge">
<title>@14&#45;&gt;!p12</title>
<g id="a_edge14"><a xlink:title="newrret52">
<path fill="none" stroke="red" d="M237.88,-261.21C233.5,-249.22 227.53,-232.85 222.54,-219.16"/>
<polygon fill="red" stroke="red" points="225.83,-217.95 219.11,-209.76 219.25,-220.35 225.83,-217.95"/>
</a>
</g>
<text text-anchor="middle" x="234.5" y="-231.8" font-family="Times,serif" font-size="14.00">1</text>
</g>
<!-- !d15 -->
<g id="node16" class="node">
<title>!d15</title>
<ellipse fill="none" stroke="black" cx="285" cy="-192" rx="27" ry="18"/>
<text text-anchor="middle" x="285" y="-188.3" font-family="Times,serif" font-size="14.00">!d</text>
</g>
<!-- @14&#45;&gt;!d15 -->
<g id="edge11" class="edge">
<title>@14&#45;&gt;!d15</title>
<g id="a_edge11"><a xlink:title="lval48">
<path fill="none" stroke="blue" d="M256.31,-252.49C263.06,-238.49 271.23,-221.56 277.12,-209.34"/>
<polygon fill="blue" stroke="blue" points="253.1,-251.08 251.91,-261.61 259.4,-254.12 253.1,-251.08"/>
</a>
</g>
<text text-anchor="middle" x="270.5" y="-231.8" font-family="Times,serif" font-size="14.00">1</text>
</g>
<!-- !d15&#45;&gt;!c16 -->
<g id="edge34" class="edge">
<title>!d15&#45;&gt;!c16</title>
<g id="a_edge34"><a xlink:title="yA43">
<path fill="none" stroke="blue" d="M290.47,-163.66C293.15,-150.25 296.29,-134.53 298.62,-122.89"/>
<polygon fill="blue" stroke="blue" points="286.97,-163.31 288.44,-173.8 293.83,-164.68 286.97,-163.31"/>
</a>
</g>
<text text-anchor="middle" x="297.5" y="-144.8" font-family="Times,serif" font-size="14.00">1</text>
</g>
<!-- λ17 -->
<g id="node18" class="node">
<title>λ17</title>
<ellipse fill="none" stroke="black" cx="265" cy="-425" rx="27" ry="18"/>
<text text-anchor="middle" x="265" y="-421.3" font-family="Times,serif" font-size="14.00">λ</text>
</g>
<!-- !c16&#45;&gt;λ17 -->
<g id="edge33" class="edge">
<title>!c16&#45;&gt;λ17</title>
<g id="a_edge33"><a xlink:title="y41">
<path fill="none" stroke="blue" d="M319.07,-129.78C329.17,-146.17 340,-168.91 340,-191 340,-353 340,-353 340,-353 340,-382.41 309.22,-403.27 287.1,-414.47"/>
<polygon fill="blue" stroke="blue" points="321.99,-127.85 313.61,-121.37 316.12,-131.67 321.99,-127.85"/>
</a>
</g>
</g>
<!-- λ17&#45;&gt;I13 -->
<g id="edge26" class="edge">
<title>λ17&#45;&gt;I13</title>
<g id="a_edge26"><a xlink:title="ret42">
<path fill="none" stroke="red" d="M265,-406.81C265,-398.79 265,-389.05 265,-380.07"/>
<polygon fill="red" stroke="red" points="268.5,-380.03 265,-370.03 261.5,-380.03 268.5,-380.03"/>
</a>
</g>
</g>
<!-- Cut18&#45;&gt;λ17 -->
<g id="edge29" class="edge">
<title>Cut18&#45;&gt;λ17</title>
<g id="a_edge29"><a xlink:title="rval39">
<path fill="none" stroke="red" d="M265,-479.81C265,-471.79 265,-462.05 265,-453.07"/>
<polygon fill="red" stroke="red" points="268.5,-453.03 265,-443.03 261.5,-453.03 268.5,-453.03"/>
</a>
</g>
</g>
<!-- λ19&#45;&gt;I8 -->
<g id="edge25" class="edge">
<title>λ19&#45;&gt;I8</title>
<g id="a_edge25"><a xlink:title="ret35">
<path fill="none" stroke="red" d="M327,-712.8C327,-701.16 327,-685.55 327,-672.24"/>
<polygon fill="red" stroke="red" points="330.5,-672.18 327,-662.18 323.5,-672.18 330.5,-672.18"/>
</a>
</g>
</g>
<!-- I20 -->
<g id="node21" class="node">
<title>I20</title>
<ellipse fill="none" stroke="black" cx="351" cy="-1184.8" rx="27" ry="18"/>
<text text-anchor="middle" x="351" y="-1181.1" font-family="Times,serif" font-size="14.00">I</text>
</g>
<!-- !d21 -->
<g id="node22" class="node">
<title>!d21</title>
<ellipse fill="none" stroke="black" cx="339" cy="-1097.8" rx="27" ry="18"/>
<text text-anchor="middle" x="339" y="-1094.1" font-family="Times,serif" font-size="14.00">!d</text>
</g>
<!-- I20&#45;&gt;!d21 -->
<g id="edge32" class="edge">
<title>I20&#45;&gt;!d21</title>
<g id="a_edge32"><a xlink:title="xret26">
<path fill="none" stroke="blue" d="M347.15,-1156.53C345.27,-1143.22 343.07,-1127.6 341.42,-1115.97"/>
<polygon fill="blue" stroke="blue" points="343.71,-1157.18 348.57,-1166.59 350.64,-1156.2 343.71,-1157.18"/>
</a>
</g>
<text text-anchor="middle" x="348.5" y="-1137.6" font-family="Times,serif" font-size="14.00">1</text>
</g>
<!-- Cut31 -->
<g id="node32" class="node">
<title>Cut31</title>
<ellipse fill="none" stroke="black" cx="336" cy="-1001.4" rx="23.31" ry="23.31"/>
<ellipse fill="none" stroke="black" cx="336" cy="-1001.4" rx="27.3" ry="27.3"/>
<text text-anchor="middle" x="336" y="-997.7" font-family="Times,serif" font-size="14.00">Cut</text>
</g>
<!-- !d21&#45;&gt;Cut31 -->
<g id="edge31" class="edge">
<title>!d21&#45;&gt;Cut31</title>
<g id="a_edge31"><a xlink:title="xBf22">
<path fill="none" stroke="blue" stroke-width="2" d="M338.13,-1069.42C337.72,-1056.66 337.24,-1041.53 336.84,-1028.88"/>
<polygon fill="blue" stroke="blue" stroke-width="2" points="334.63,-1069.6 338.45,-1079.48 341.63,-1069.38 334.63,-1069.6"/>
</a>
</g>
<text text-anchor="middle" x="340.5" y="-1050.6" font-family="Times,serif" font-size="14.00">0</text>
</g>
<!-- I22 -->
<g id="node23" class="node">
<title>I22</title>
<ellipse fill="none" stroke="black" cx="351" cy="-1431.8" rx="27" ry="18"/>
<text text-anchor="middle" x="351" y="-1428.1" font-family="Times,serif" font-size="14.00">I</text>
</g>
<!-- @23 -->
<g id="node24" class="node">
<title>@23</title>
<ellipse fill="none" stroke="black" cx="351" cy="-1358.8" rx="27" ry="18"/>
<text text-anchor="middle" x="351" y="-1355.1" font-family="Times,serif" font-size="14.00">@</text>
</g>
<!-- I22&#45;&gt;@23 -->
<g id="edge5" class="edge">
<title>I22&#45;&gt;@23</title>
<g id="a_edge5"><a xlink:title="lret19">
<path fill="none" stroke="blue" d="M351,-1403.55C351,-1394.56 351,-1384.83 351,-1376.82"/>
<polygon fill="blue" stroke="blue" points="347.5,-1403.61 351,-1413.61 354.5,-1403.61 347.5,-1403.61"/>
</a>
</g>
</g>
<!-- Cut27 -->
<g id="node28" class="node">
<title>Cut27</title>
<ellipse fill="none" stroke="black" cx="408" cy="-1001.4" rx="27" ry="18"/>
<text text-anchor="middle" x="408" y="-997.7" font-family="Times,serif" font-size="14.00">Cut</text>
</g>
<!-- @23&#45;&gt;Cut27 -->
<g id="edge9" class="edge">
<title>@23&#45;&gt;Cut27</title>
<g id="a_edge9"><a xlink:title="lval14">
<path fill="none" stroke="blue" d="M374.49,-1337.1C389.82,-1321.23 407,-1297.85 407,-1272.8 407,-1272.8 407,-1272.8 407,-1096.8 407,-1069.75 407.42,-1038.36 407.71,-1019.45"/>
<polygon fill="blue" stroke="blue" points="371.88,-1334.76 367.2,-1344.26 376.78,-1339.75 371.88,-1334.76"/>
</a>
</g>
</g>
<!-- !p32 -->
<g id="node33" class="node">
<title>!p32</title>
<ellipse fill="none" stroke="black" cx="351" cy="-1271.8" rx="27" ry="18"/>
<text text-anchor="middle" x="351" y="-1268.1" font-family="Times,serif" font-size="14.00">!p</text>
</g>
<!-- @23&#45;&gt;!p32 -->
<g id="edge13" class="edge">
<title>@23&#45;&gt;!p32</title>
<g id="a_edge13"><a xlink:title="newrret18">
<path fill="none" stroke="red" d="M351,-1340.59C351,-1328.96 351,-1313.34 351,-1300.03"/>
<polygon fill="red" stroke="red" points="354.5,-1299.97 351,-1289.97 347.5,-1299.97 354.5,-1299.97"/>
</a>
</g>
<text text-anchor="middle" x="354.5" y="-1311.6" font-family="Times,serif" font-size="14.00">0</text>
</g>
<!-- Assign24 -->
<g id="node25" class="node">
<title>Assign24</title>
<ellipse fill="none" stroke="black" cx="351" cy="-1504.8" rx="35.19" ry="18"/>
<text text-anchor="middle" x="351" y="-1501.1" font-family="Times,serif" font-size="14.00">Assign</text>
</g>
<!-- Assign24&#45;&gt;I22 -->
<g id="edge27" class="edge">
<title>Assign24&#45;&gt;I22</title>
<g id="a_edge27"><a xlink:title="ret8">
<path fill="none" stroke="red" d="M351,-1486.61C351,-1478.59 351,-1468.84 351,-1459.86"/>
<polygon fill="red" stroke="red" points="354.5,-1459.82 351,-1449.82 347.5,-1459.82 354.5,-1459.82"/>
</a>
</g>
</g>
<!-- Dup25 -->
<g id="node26" class="node">
<title>Dup25</title>
<ellipse fill="none" stroke="black" cx="431" cy="-1504.8" rx="27" ry="18"/>
<text text-anchor="middle" x="431" y="-1501.1" font-family="Times,serif" font-size="14.00">Dup</text>
</g>
<!-- Dup26 -->
<g id="node27" class="node">
<title>Dup26</title>
<ellipse fill="none" stroke="black" cx="336" cy="-818" rx="27" ry="18"/>
<text text-anchor="middle" x="336" y="-814.3" font-family="Times,serif" font-size="14.00">Dup</text>
</g>
<!-- Dup26&#45;&gt;λ19 -->
<g id="edge19" class="edge">
<title>Dup26&#45;&gt;λ19</title>
<g id="a_edge19"><a xlink:title="newrretf31">
<path fill="none" stroke="red" d="M334.18,-799.8C332.95,-788.16 331.29,-772.55 329.88,-759.24"/>
<polygon fill="red" stroke="red" points="333.35,-758.75 328.82,-749.18 326.39,-759.49 333.35,-758.75"/>
</a>
</g>
<text text-anchor="middle" x="335.5" y="-770.8" font-family="Times,serif" font-size="14.00">1</text>
</g>
<!-- Lift29 -->
<g id="node30" class="node">
<title>Lift29</title>
<ellipse fill="none" stroke="black" cx="408" cy="-905" rx="27" ry="18"/>
<text text-anchor="middle" x="408" y="-901.3" font-family="Times,serif" font-size="14.00">Lift</text>
</g>
<!-- Cut27&#45;&gt;Lift29 -->
<g id="edge30" class="edge">
<title>Cut27&#45;&gt;Lift29</title>
<g id="a_edge30"><a xlink:title="seqDM96">
<path fill="none" stroke="red" d="M408,-983.08C408,-969.25 408,-949.58 408,-933.58"/>
<polygon fill="red" stroke="red" points="411.5,-933.2 408,-923.2 404.5,-933.2 411.5,-933.2"/>
</a>
</g>
<text text-anchor="middle" x="411.5" y="-944.8" font-family="Times,serif" font-size="14.00">0</text>
</g>
<!-- Lift28 -->
<g id="node29" class="node">
<title>Lift28</title>
<ellipse fill="none" stroke="black" cx="503" cy="-1504.8" rx="27" ry="18"/>
<text text-anchor="middle" x="503" y="-1501.1" font-family="Times,serif" font-size="14.00">Lift</text>
</g>
<!-- Lift29&#45;&gt;Dup26 -->
<g id="edge23" class="edge">
<title>Lift29&#45;&gt;Dup26</title>
<g id="a_edge23"><a xlink:title="newrretf87">
<path fill="none" stroke="red" d="M395.13,-888.8C384.07,-875.75 367.96,-856.74 355.35,-841.85"/>
<polygon fill="red" stroke="red" points="357.89,-839.43 348.76,-834.06 352.55,-843.96 357.89,-839.43"/>
</a>
</g>
<text text-anchor="middle" x="379.5" y="-857.8" font-family="Times,serif" font-size="14.00">1</text>
</g>
<!-- !p30 -->
<g id="node31" class="node">
<title>!p30</title>
<ellipse fill="none" stroke="black" cx="336" cy="-905" rx="27" ry="18"/>
<text text-anchor="middle" x="336" y="-901.3" font-family="Times,serif" font-size="14.00">!p</text>
</g>
<!-- !p30&#45;&gt;Dup26 -->
<g id="edge24" class="edge">
<title>!p30&#45;&gt;Dup26</title>
<g id="a_edge24"><a xlink:title="newrretf91">
<path fill="none" stroke="red" d="M336,-886.8C336,-875.16 336,-859.55 336,-846.24"/>
<polygon fill="none" stroke="red" points="339.5,-846.18 336,-836.18 332.5,-846.18 339.5,-846.18"/>
</a>
</g>
<text text-anchor="middle" x="339.5" y="-857.8" font-family="Times,serif" font-size="14.00">1</text>
</g>
<!-- Cut31&#45;&gt;!p30 -->
<g id="edge17" class="edge">
<title>Cut31&#45;&gt;!p30</title>
<g id="a_edge17"><a xlink:title="newrret93">
<path fill="none" stroke="red" d="M336,-973.85C336,-961.16 336,-945.98 336,-933.2"/>
<polygon fill="red" stroke="red" points="339.5,-933.13 336,-923.13 332.5,-933.13 339.5,-933.13"/>
</a>
</g>
<text text-anchor="middle" x="339.5" y="-944.8" font-family="Times,serif" font-size="14.00">0</text>
</g>
<!-- !p32&#45;&gt;I20 -->
<g id="edge18" class="edge">
<title>!p32&#45;&gt;I20</title>
<g id="a_edge18"><a xlink:title="newrretf23">
<path fill="none" stroke="red" d="M351,-1253.59C351,-1241.96 351,-1226.34 351,-1213.03"/>
<polygon fill="red" stroke="red" points="354.5,-1212.97 351,-1202.97 347.5,-1212.97 354.5,-1212.97"/>
</a>
</g>
<text text-anchor="middle" x="354.5" y="-1224.6" font-family="Times,serif" font-size="14.00">1</text>
</g>
</g>
</svg>
