<?xml version="1.0" encoding="UTF-8" standalone="no"?>
<!DOCTYPE svg PUBLIC "-//W3C//DTD SVG 1.1//EN"
 "http://www.w3.org/Graphics/SVG/1.1/DTD/svg11.dtd">
<!-- Generated by graphviz version 2.49.3 (0)
 -->
<!-- Pages: 1 -->
<svg width="526pt" height="1357pt"
 viewBox="0.00 0.00 526.00 1356.80" xmlns="http://www.w3.org/2000/svg" xmlns:xlink="http://www.w3.org/1999/xlink">
<g id="graph0" class="graph" transform="scale(1 1) rotate(0) translate(4 1352.8)">
<polygon fill="white" stroke="transparent" points="-4,4 -4,-1352.8 522,-1352.8 522,4 -4,4"/>
<!-- I0 -->
<g id="node1" class="node">
<title>I0</title>
<ellipse fill="none" stroke="black" cx="82" cy="-1001.4" rx="27" ry="18"/>
<text text-anchor="middle" x="82" y="-997.7" font-family="Times,serif" font-size="14.00">I</text>
</g>
<!-- !d1 -->
<g id="node2" class="node">
<title>!d1</title>
<ellipse fill="none" stroke="black" cx="27" cy="-905" rx="27" ry="18"/>
<text text-anchor="middle" x="27" y="-901.3" font-family="Times,serif" font-size="14.00">!d</text>
</g>
<!-- I0&#45;&gt;!d1 -->
<g id="edge4" class="edge">
<title>I0&#45;&gt;!d1</title>
<g id="a_edge4"><a xlink:title="iret84">
<path fill="none" stroke="blue" d="M67.54,-975.58C57.69,-958.67 44.92,-936.76 36.38,-922.09"/>
<polygon fill="blue" stroke="blue" points="64.61,-977.51 72.67,-984.38 70.66,-973.98 64.61,-977.51"/>
</a>
</g>
<text text-anchor="middle" x="58.5" y="-944.8" font-family="Times,serif" font-size="14.00">3</text>
</g>
<!-- λ2 -->
<g id="node3" class="node">
<title>λ2</title>
<ellipse fill="none" stroke="black" cx="82" cy="-818" rx="27" ry="18"/>
<text text-anchor="middle" x="82" y="-814.3" font-family="Times,serif" font-size="14.00">λ</text>
</g>
<!-- !d1&#45;&gt;λ2 -->
<g id="edge3" class="edge">
<title>!d1&#45;&gt;λ2</title>
<g id="a_edge3"><a xlink:title="i81">
<path fill="none" stroke="blue" d="M42.8,-879.59C52.09,-865.23 63.57,-847.48 71.7,-834.92"/>
<polygon fill="blue" stroke="blue" points="39.84,-877.72 37.35,-888.01 45.72,-881.52 39.84,-877.72"/>
</a>
</g>
<text text-anchor="middle" x="61.5" y="-857.8" font-family="Times,serif" font-size="14.00">3</text>
</g>
<!-- λ2&#45;&gt;I0 -->
<g id="edge28" class="edge">
<title>λ2&#45;&gt;I0</title>
<g id="a_edge28"><a xlink:title="ret82">
<path fill="none" stroke="red" d="M82,-836.15C82,-867.69 82,-935.1 82,-973.03"/>
<polygon fill="red" stroke="red" points="78.5,-973.33 82,-983.33 85.5,-973.33 78.5,-973.33"/>
</a>
</g>
</g>
<!-- !p3 -->
<g id="node4" class="node">
<title>!p3</title>
<ellipse fill="none" stroke="black" cx="137" cy="-905" rx="27" ry="18"/>
<text text-anchor="middle" x="137" y="-901.3" font-family="Times,serif" font-size="14.00">!p</text>
</g>
<!-- !p3&#45;&gt;λ2 -->
<g id="edge22" class="edge">
<title>!p3&#45;&gt;λ2</title>
<g id="a_edge22"><a xlink:title="newrretf78">
<path fill="none" stroke="red" d="M126.65,-888.01C118.51,-875.43 107.03,-857.68 97.74,-843.33"/>
<polygon fill="red" stroke="red" points="100.67,-841.41 92.3,-834.92 94.79,-845.21 100.67,-841.41"/>
</a>
</g>
<text text-anchor="middle" x="116.5" y="-857.8" font-family="Times,serif" font-size="14.00">3</text>
</g>
<!-- I4 -->
<g id="node5" class="node">
<title>I4</title>
<ellipse fill="none" stroke="black" cx="219" cy="-731" rx="27" ry="18"/>
<text text-anchor="middle" x="219" y="-727.3" font-family="Times,serif" font-size="14.00">I</text>
</g>
<!-- @5 -->
<g id="node6" class="node">
<title>@5</title>
<ellipse fill="none" stroke="black" cx="177" cy="-1001.4" rx="27" ry="18"/>
<text text-anchor="middle" x="177" y="-997.7" font-family="Times,serif" font-size="14.00">@</text>
</g>
<!-- I4&#45;&gt;@5 -->
<g id="edge8" class="edge">
<title>I4&#45;&gt;@5</title>
<g id="a_edge8"><a xlink:title="lret75">
<path fill="none" stroke="blue" d="M214.76,-759.11C206.14,-814.18 186.8,-937.75 179.69,-983.2"/>
<polygon fill="blue" stroke="blue" points="218.24,-759.48 216.33,-749.05 211.33,-758.39 218.24,-759.48"/>
</a>
</g>
</g>
<!-- @5&#45;&gt;!p3 -->
<g id="edge16" class="edge">
<title>@5&#45;&gt;!p3</title>
<g id="a_edge16"><a xlink:title="newrret74">
<path fill="none" stroke="red" d="M170.03,-983.96C163.99,-969.69 155.14,-948.8 148.11,-932.23"/>
<polygon fill="red" stroke="red" points="151.15,-930.41 144.02,-922.57 144.7,-933.14 151.15,-930.41"/>
</a>
</g>
<text text-anchor="middle" x="160.5" y="-944.8" font-family="Times,serif" font-size="14.00">2</text>
</g>
<!-- !d6 -->
<g id="node7" class="node">
<title>!d6</title>
<ellipse fill="none" stroke="black" cx="247" cy="-905" rx="27" ry="18"/>
<text text-anchor="middle" x="247" y="-901.3" font-family="Times,serif" font-size="14.00">!d</text>
</g>
<!-- @5&#45;&gt;!d6 -->
<g id="edge12" class="edge">
<title>@5&#45;&gt;!d6</title>
<g id="a_edge12"><a xlink:title="lval70">
<path fill="none" stroke="blue" d="M194.81,-976.38C207.56,-959.18 224.37,-936.51 235.42,-921.61"/>
<polygon fill="blue" stroke="blue" points="191.7,-974.69 188.56,-984.81 197.33,-978.86 191.7,-974.69"/>
</a>
</g>
<text text-anchor="middle" x="224.5" y="-944.8" font-family="Times,serif" font-size="14.00">2</text>
</g>
<!-- !p7 -->
<g id="node8" class="node">
<title>!p7</title>
<ellipse fill="none" stroke="black" cx="263" cy="-818" rx="27" ry="18"/>
<text text-anchor="middle" x="263" y="-814.3" font-family="Times,serif" font-size="14.00">!p</text>
</g>
<!-- !d6&#45;&gt;!p7 -->
<g id="edge2" class="edge">
<title>!d6&#45;&gt;!p7</title>
<g id="a_edge2"><a xlink:title="hf65">
<path fill="none" stroke="blue" d="M252.15,-876.66C254.67,-863.25 257.63,-847.53 259.82,-835.89"/>
<polygon fill="blue" stroke="blue" points="248.65,-876.32 250.24,-886.8 255.53,-877.62 248.65,-876.32"/>
</a>
</g>
<text text-anchor="middle" x="259.5" y="-857.8" font-family="Times,serif" font-size="14.00">1</text>
</g>
<!-- !p7&#45;&gt;I4 -->
<g id="edge21" class="edge">
<title>!p7&#45;&gt;I4</title>
<g id="a_edge21"><a xlink:title="newrretf66">
<path fill="none" stroke="red" d="M254.52,-800.61C248.19,-788.38 239.42,-771.44 232.18,-757.46"/>
<polygon fill="red" stroke="red" points="235.16,-755.61 227.46,-748.34 228.95,-758.83 235.16,-755.61"/>
</a>
</g>
<text text-anchor="middle" x="247.5" y="-770.8" font-family="Times,serif" font-size="14.00">2</text>
</g>
<!-- λ19 -->
<g id="node20" class="node">
<title>λ19</title>
<ellipse fill="none" stroke="black" cx="354" cy="-731" rx="27" ry="18"/>
<text text-anchor="middle" x="354" y="-727.3" font-family="Times,serif" font-size="14.00">λ</text>
</g>
<!-- !p7&#45;&gt;λ19 -->
<g id="edge1" class="edge">
<title>!p7&#45;&gt;λ19</title>
<g id="a_edge1"><a xlink:title="h34">
<path fill="none" stroke="blue" d="M285.7,-795.8C302.33,-780.26 324.45,-759.6 338.95,-746.06"/>
<polygon fill="blue" stroke="blue" points="282.95,-793.58 278.03,-802.96 287.72,-798.7 282.95,-793.58"/>
</a>
</g>
<text text-anchor="middle" x="316.5" y="-770.8" font-family="Times,serif" font-size="14.00">1</text>
</g>
<!-- I8 -->
<g id="node9" class="node">
<title>I8</title>
<ellipse fill="none" stroke="black" cx="354" cy="-644" rx="27" ry="18"/>
<text text-anchor="middle" x="354" y="-640.3" font-family="Times,serif" font-size="14.00">I</text>
</g>
<!-- @9 -->
<g id="node10" class="node">
<title>@9</title>
<ellipse fill="none" stroke="black" cx="274" cy="-571" rx="27" ry="18"/>
<text text-anchor="middle" x="274" y="-567.3" font-family="Times,serif" font-size="14.00">@</text>
</g>
<!-- I8&#45;&gt;@9 -->
<g id="edge7" class="edge">
<title>I8&#45;&gt;@9</title>
<g id="a_edge7"><a xlink:title="lret62">
<path fill="none" stroke="blue" d="M330.41,-622.06C317.21,-610.34 301.11,-596.06 289.5,-585.76"/>
<polygon fill="blue" stroke="blue" points="328.39,-624.95 338.19,-628.97 333.04,-619.72 328.39,-624.95"/>
</a>
</g>
</g>
<!-- @9&#45;&gt;!p7 -->
<g id="edge15" class="edge">
<title>@9&#45;&gt;!p7</title>
<g id="a_edge15"><a xlink:title="newrret61">
<path fill="none" stroke="red" d="M273.23,-589.21C271.35,-631.1 266.52,-738.65 264.23,-789.53"/>
<polygon fill="red" stroke="red" points="260.73,-789.63 263.77,-799.77 267.72,-789.94 260.73,-789.63"/>
</a>
</g>
<text text-anchor="middle" x="273.5" y="-683.8" font-family="Times,serif" font-size="14.00">1</text>
</g>
<!-- Cut18 -->
<g id="node19" class="node">
<title>Cut18</title>
<ellipse fill="none" stroke="black" cx="274" cy="-498" rx="27" ry="18"/>
<text text-anchor="middle" x="274" y="-494.3" font-family="Times,serif" font-size="14.00">Cut</text>
</g>
<!-- @9&#45;&gt;Cut18 -->
<g id="edge10" class="edge">
<title>@9&#45;&gt;Cut18</title>
<g id="a_edge10"><a xlink:title="lval38">
<path fill="none" stroke="blue" d="M274,-542.75C274,-533.77 274,-524.03 274,-516.03"/>
<polygon fill="blue" stroke="blue" points="270.5,-542.81 274,-552.81 277.5,-542.81 270.5,-542.81"/>
</a>
</g>
</g>
<!-- I10 -->
<g id="node11" class="node">
<title>I10</title>
<ellipse fill="none" stroke="black" cx="340" cy="-105" rx="27" ry="18"/>
<text text-anchor="middle" x="340" y="-101.3" font-family="Times,serif" font-size="14.00">I</text>
</g>
<!-- !d11 -->
<g id="node12" class="node">
<title>!d11</title>
<ellipse fill="none" stroke="black" cx="372" cy="-18" rx="27" ry="18"/>
<text text-anchor="middle" x="372" y="-14.3" font-family="Times,serif" font-size="14.00">!d</text>
</g>
<!-- I10&#45;&gt;!d11 -->
<g id="edge38" class="edge">
<title>I10&#45;&gt;!d11</title>
<g id="a_edge38"><a xlink:title="yret60">
<path fill="none" stroke="blue" d="M349.86,-77.8C355.02,-64.1 361.18,-47.74 365.69,-35.76"/>
<polygon fill="blue" stroke="blue" points="346.57,-76.61 346.32,-87.21 353.12,-79.08 346.57,-76.61"/>
</a>
</g>
<text text-anchor="middle" x="360.5" y="-57.8" font-family="Times,serif" font-size="14.00">2</text>
</g>
<!-- !p12 -->
<g id="node13" class="node">
<title>!p12</title>
<ellipse fill="none" stroke="black" cx="340" cy="-192" rx="27" ry="18"/>
<text text-anchor="middle" x="340" y="-188.3" font-family="Times,serif" font-size="14.00">!p</text>
</g>
<!-- !d11&#45;&gt;!p12 -->
<g id="edge37" class="edge">
<title>!d11&#45;&gt;!p12</title>
<g id="a_edge37"><a xlink:title="yBf56">
<path fill="none" stroke="blue" d="M377.09,-45.8C380.16,-67.05 382.37,-97.35 376,-123 371.2,-142.32 359.79,-162.18 351.1,-175.42"/>
<polygon fill="blue" stroke="blue" points="380.53,-45.19 375.49,-35.86 373.62,-46.29 380.53,-45.19"/>
</a>
</g>
<text text-anchor="middle" x="383.5" y="-101.3" font-family="Times,serif" font-size="14.00">1</text>
</g>
<!-- !p12&#45;&gt;I10 -->
<g id="edge20" class="edge">
<title>!p12&#45;&gt;I10</title>
<g id="a_edge20"><a xlink:title="newrretf57">
<path fill="none" stroke="red" d="M340,-173.8C340,-162.16 340,-146.55 340,-133.24"/>
<polygon fill="red" stroke="red" points="343.5,-133.18 340,-123.18 336.5,-133.18 343.5,-133.18"/>
</a>
</g>
<text text-anchor="middle" x="343.5" y="-144.8" font-family="Times,serif" font-size="14.00">2</text>
</g>
<!-- !c16 -->
<g id="node17" class="node">
<title>!c16</title>
<ellipse fill="none" stroke="black" cx="268" cy="-105" rx="27" ry="18"/>
<text text-anchor="middle" x="268" y="-101.3" font-family="Times,serif" font-size="14.00">!c</text>
</g>
<!-- !p12&#45;&gt;!c16 -->
<g id="edge36" class="edge">
<title>!p12&#45;&gt;!c16</title>
<g id="a_edge36"><a xlink:title="yB44">
<path fill="none" stroke="blue" d="M320.52,-168C310.25,-155.88 297.7,-141.06 287.44,-128.95"/>
<polygon fill="blue" stroke="blue" points="317.99,-170.44 327.13,-175.8 323.34,-165.91 317.99,-170.44"/>
<polygon fill="blue" stroke="blue" points="283.43,-118.8 287.22,-128.7 278.09,-123.33 283.43,-118.8"/>
</a>
</g>
<text text-anchor="middle" x="311.5" y="-144.8" font-family="Times,serif" font-size="14.00">1</text>
</g>
<!-- I13 -->
<g id="node14" class="node">
<title>I13</title>
<ellipse fill="none" stroke="black" cx="274" cy="-352" rx="27" ry="18"/>
<text text-anchor="middle" x="274" y="-348.3" font-family="Times,serif" font-size="14.00">I</text>
</g>
<!-- @14 -->
<g id="node15" class="node">
<title>@14</title>
<ellipse fill="none" stroke="black" cx="312" cy="-279" rx="27" ry="18"/>
<text text-anchor="middle" x="312" y="-275.3" font-family="Times,serif" font-size="14.00">@</text>
</g>
<!-- I13&#45;&gt;@14 -->
<g id="edge6" class="edge">
<title>I13&#45;&gt;@14</title>
<g id="a_edge6"><a xlink:title="lret53">
<path fill="none" stroke="blue" d="M287.39,-325.99C292.61,-316.22 298.46,-305.29 303.15,-296.54"/>
<polygon fill="blue" stroke="blue" points="284.26,-324.42 282.62,-334.89 290.43,-327.72 284.26,-324.42"/>
</a>
</g>
</g>
<!-- @14&#45;&gt;!p12 -->
<g id="edge14" class="edge">
<title>@14&#45;&gt;!p12</title>
<g id="a_edge14"><a xlink:title="newrret52">
<path fill="none" stroke="red" d="M317.53,-261.21C321.44,-249.33 326.77,-233.17 331.25,-219.56"/>
<polygon fill="red" stroke="red" points="334.68,-220.35 334.48,-209.76 328.03,-218.16 334.68,-220.35"/>
</a>
</g>
<text text-anchor="middle" x="330.5" y="-231.8" font-family="Times,serif" font-size="14.00">1</text>
</g>
<!-- !d15 -->
<g id="node16" class="node">
<title>!d15</title>
<ellipse fill="none" stroke="black" cx="268" cy="-192" rx="27" ry="18"/>
<text text-anchor="middle" x="268" y="-188.3" font-family="Times,serif" font-size="14.00">!d</text>
</g>
<!-- @14&#45;&gt;!d15 -->
<g id="edge11" class="edge">
<title>@14&#45;&gt;!d15</title>
<g id="a_edge11"><a xlink:title="lval48">
<path fill="none" stroke="blue" d="M298.79,-252.49C291.55,-238.49 282.78,-221.56 276.46,-209.34"/>
<polygon fill="blue" stroke="blue" points="295.81,-254.34 303.52,-261.61 302.03,-251.12 295.81,-254.34"/>
</a>
</g>
<text text-anchor="middle" x="295.5" y="-231.8" font-family="Times,serif" font-size="14.00">1</text>
</g>
<!-- !d15&#45;&gt;!c16 -->
<g id="edge35" class="edge">
<title>!d15&#45;&gt;!c16</title>
<g id="a_edge35"><a xlink:title="yA43">
<path fill="none" stroke="blue" d="M268,-163.73C268,-150.42 268,-134.81 268,-123.18"/>
<polygon fill="blue" stroke="blue" points="264.5,-163.8 268,-173.8 271.5,-163.8 264.5,-163.8"/>
</a>
</g>
<text text-anchor="middle" x="271.5" y="-144.8" font-family="Times,serif" font-size="14.00">1</text>
</g>
<!-- λ17 -->
<g id="node18" class="node">
<title>λ17</title>
<ellipse fill="none" stroke="black" cx="274" cy="-425" rx="27" ry="18"/>
<text text-anchor="middle" x="274" y="-421.3" font-family="Times,serif" font-size="14.00">λ</text>
</g>
<!-- !c16&#45;&gt;λ17 -->
<g id="edge34" class="edge">
<title>!c16&#45;&gt;λ17</title>
<g id="a_edge34"><a xlink:title="y41">
<path fill="none" stroke="blue" d="M244.93,-126.78C229.87,-142.69 213,-166.08 213,-191 213,-353 213,-353 213,-353 213,-378.84 236.53,-399.97 254.36,-412.27"/>
<polygon fill="blue" stroke="blue" points="247.51,-129.14 252.09,-119.59 242.55,-124.2 247.51,-129.14"/>
</a>
</g>
</g>
<!-- λ17&#45;&gt;I13 -->
<g id="edge26" class="edge">
<title>λ17&#45;&gt;I13</title>
<g id="a_edge26"><a xlink:title="ret42">
<path fill="none" stroke="red" d="M274,-406.81C274,-398.79 274,-389.05 274,-380.07"/>
<polygon fill="red" stroke="red" points="277.5,-380.03 274,-370.03 270.5,-380.03 277.5,-380.03"/>
</a>
</g>
</g>
<!-- Cut18&#45;&gt;λ17 -->
<g id="edge29" class="edge">
<title>Cut18&#45;&gt;λ17</title>
<g id="a_edge29"><a xlink:title="rval39">
<path fill="none" stroke="red" d="M274,-479.81C274,-471.79 274,-462.05 274,-453.07"/>
<polygon fill="red" stroke="red" points="277.5,-453.03 274,-443.03 270.5,-453.03 277.5,-453.03"/>
</a>
</g>
</g>
<!-- λ19&#45;&gt;I8 -->
<g id="edge25" class="edge">
<title>λ19&#45;&gt;I8</title>
<g id="a_edge25"><a xlink:title="ret35">
<path fill="none" stroke="red" d="M354,-712.8C354,-701.16 354,-685.55 354,-672.24"/>
<polygon fill="red" stroke="red" points="357.5,-672.18 354,-662.18 350.5,-672.18 357.5,-672.18"/>
</a>
</g>
</g>
<!-- I20 -->
<g id="node21" class="node">
<title>I20</title>
<ellipse fill="none" stroke="black" cx="276" cy="-1001.4" rx="27" ry="18"/>
<text text-anchor="middle" x="276" y="-997.7" font-family="Times,serif" font-size="14.00">I</text>
</g>
<!-- !d21 -->
<g id="node22" class="node">
<title>!d21</title>
<ellipse fill="none" stroke="black" cx="319" cy="-905" rx="27" ry="18"/>
<text text-anchor="middle" x="319" y="-901.3" font-family="Times,serif" font-size="14.00">!d</text>
</g>
<!-- I20&#45;&gt;!d21 -->
<g id="edge33" class="edge">
<title>I20&#45;&gt;!d21</title>
<g id="a_edge33"><a xlink:title="xret26">
<path fill="none" stroke="blue" d="M287.67,-974.78C295.24,-958.17 304.88,-937.01 311.45,-922.57"/>
<polygon fill="blue" stroke="blue" points="284.45,-973.4 283.49,-983.96 290.82,-976.31 284.45,-973.4"/>
</a>
</g>
<text text-anchor="middle" x="305.5" y="-944.8" font-family="Times,serif" font-size="14.00">1</text>
</g>
<!-- !p22 -->
<g id="node23" class="node">
<title>!p22</title>
<ellipse fill="none" stroke="black" cx="339" cy="-1097.8" rx="27" ry="18"/>
<text text-anchor="middle" x="339" y="-1094.1" font-family="Times,serif" font-size="14.00">!p</text>
</g>
<!-- !d21&#45;&gt;!p22 -->
<g id="edge32" class="edge">
<title>!d21&#45;&gt;!p22</title>
<g id="a_edge32"><a xlink:title="xBf22">
<path fill="none" stroke="blue" d="M321.85,-933.16C326.03,-973.03 333.7,-1046.25 337.19,-1079.53"/>
<polygon fill="blue" stroke="blue" points="325.32,-932.67 320.79,-923.09 318.35,-933.4 325.32,-932.67"/>
</a>
</g>
<text text-anchor="middle" x="334.5" y="-997.7" font-family="Times,serif" font-size="14.00">0</text>
</g>
<!-- !p22&#45;&gt;I20 -->
<g id="edge18" class="edge">
<title>!p22&#45;&gt;I20</title>
<g id="a_edge18"><a xlink:title="newrretf23">
<path fill="none" stroke="red" d="M328.31,-1080.78C318.39,-1065.91 303.47,-1043.56 292.11,-1026.53"/>
<polygon fill="red" stroke="red" points="294.99,-1024.55 286.53,-1018.17 289.17,-1028.44 294.99,-1024.55"/>
</a>
</g>
<text text-anchor="middle" x="317.5" y="-1050.6" font-family="Times,serif" font-size="14.00">1</text>
</g>
<!-- Cut29 -->
<g id="node30" class="node">
<title>Cut29</title>
<ellipse fill="none" stroke="black" cx="391" cy="-1001.4" rx="23.31" ry="23.31"/>
<ellipse fill="none" stroke="black" cx="391" cy="-1001.4" rx="27.3" ry="27.3"/>
<text text-anchor="middle" x="391" y="-997.7" font-family="Times,serif" font-size="14.00">Cut</text>
</g>
<!-- !p22&#45;&gt;Cut29 -->
<g id="edge31" class="edge">
<title>!p22&#45;&gt;Cut29</title>
<g id="a_edge31"><a xlink:title="xB10">
<path fill="none" stroke="blue" stroke-width="2" d="M352.65,-1072.01C360.5,-1057.76 370.3,-1039.97 378.03,-1025.94"/>
<polygon fill="blue" stroke="blue" stroke-width="2" points="349.58,-1070.33 347.82,-1080.78 355.71,-1073.71 349.58,-1070.33"/>
</a>
</g>
<text text-anchor="middle" x="368.5" y="-1050.6" font-family="Times,serif" font-size="14.00">0</text>
</g>
<!-- I23 -->
<g id="node24" class="node">
<title>I23</title>
<ellipse fill="none" stroke="black" cx="339" cy="-1257.8" rx="27" ry="18"/>
<text text-anchor="middle" x="339" y="-1254.1" font-family="Times,serif" font-size="14.00">I</text>
</g>
<!-- @24 -->
<g id="node25" class="node">
<title>@24</title>
<ellipse fill="none" stroke="black" cx="339" cy="-1184.8" rx="27" ry="18"/>
<text text-anchor="middle" x="339" y="-1181.1" font-family="Times,serif" font-size="14.00">@</text>
</g>
<!-- I23&#45;&gt;@24 -->
<g id="edge5" class="edge">
<title>I23&#45;&gt;@24</title>
<g id="a_edge5"><a xlink:title="lret19">
<path fill="none" stroke="blue" d="M339,-1229.55C339,-1220.56 339,-1210.83 339,-1202.82"/>
<polygon fill="blue" stroke="blue" points="335.5,-1229.61 339,-1239.61 342.5,-1229.61 335.5,-1229.61"/>
</a>
</g>
</g>
<!-- @24&#45;&gt;!p22 -->
<g id="edge13" class="edge">
<title>@24&#45;&gt;!p22</title>
<g id="a_edge13"><a xlink:title="newrret18">
<path fill="none" stroke="red" d="M339,-1166.59C339,-1154.96 339,-1139.34 339,-1126.03"/>
<polygon fill="red" stroke="red" points="342.5,-1125.97 339,-1115.97 335.5,-1125.97 342.5,-1125.97"/>
</a>
</g>
<text text-anchor="middle" x="342.5" y="-1137.6" font-family="Times,serif" font-size="14.00">0</text>
</g>
<!-- Cut30 -->
<g id="node31" class="node">
<title>Cut30</title>
<ellipse fill="none" stroke="black" cx="463" cy="-1001.4" rx="27" ry="18"/>
<text text-anchor="middle" x="463" y="-997.7" font-family="Times,serif" font-size="14.00">Cut</text>
</g>
<!-- @24&#45;&gt;Cut30 -->
<g id="edge9" class="edge">
<title>@24&#45;&gt;Cut30</title>
<g id="a_edge9"><a xlink:title="lval14">
<path fill="none" stroke="blue" d="M355.53,-1159.62C381.38,-1121.8 430.66,-1049.71 452.33,-1018.01"/>
<polygon fill="blue" stroke="blue" points="352.54,-1157.78 349.79,-1168.02 358.32,-1161.73 352.54,-1157.78"/>
</a>
</g>
</g>
<!-- Assign25 -->
<g id="node26" class="node">
<title>Assign25</title>
<ellipse fill="none" stroke="black" cx="339" cy="-1330.8" rx="35.19" ry="18"/>
<text text-anchor="middle" x="339" y="-1327.1" font-family="Times,serif" font-size="14.00">Assign</text>
</g>
<!-- Assign25&#45;&gt;I23 -->
<g id="edge27" class="edge">
<title>Assign25&#45;&gt;I23</title>
<g id="a_edge27"><a xlink:title="ret8">
<path fill="none" stroke="red" d="M339,-1312.61C339,-1304.59 339,-1294.84 339,-1285.86"/>
<polygon fill="red" stroke="red" points="342.5,-1285.82 339,-1275.82 335.5,-1285.82 342.5,-1285.82"/>
</a>
</g>
</g>
<!-- Dup26 -->
<g id="node27" class="node">
<title>Dup26</title>
<ellipse fill="none" stroke="black" cx="419" cy="-1330.8" rx="27" ry="18"/>
<text text-anchor="middle" x="419" y="-1327.1" font-family="Times,serif" font-size="14.00">Dup</text>
</g>
<!-- Dup27 -->
<g id="node28" class="node">
<title>Dup27</title>
<ellipse fill="none" stroke="black" cx="391" cy="-818" rx="27" ry="18"/>
<text text-anchor="middle" x="391" y="-814.3" font-family="Times,serif" font-size="14.00">Dup</text>
</g>
<!-- Dup27&#45;&gt;λ19 -->
<g id="edge19" class="edge">
<title>Dup27&#45;&gt;λ19</title>
<g id="a_edge19"><a xlink:title="newrretf31">
<path fill="none" stroke="red" d="M383.87,-800.61C378.63,-788.58 371.4,-771.98 365.37,-758.13"/>
<polygon fill="red" stroke="red" points="368.44,-756.4 361.24,-748.63 362.02,-759.19 368.44,-756.4"/>
</a>
</g>
<text text-anchor="middle" x="377.5" y="-770.8" font-family="Times,serif" font-size="14.00">1</text>
</g>
<!-- !p28 -->
<g id="node29" class="node">
<title>!p28</title>
<ellipse fill="none" stroke="black" cx="391" cy="-905" rx="27" ry="18"/>
<text text-anchor="middle" x="391" y="-901.3" font-family="Times,serif" font-size="14.00">!p</text>
</g>
<!-- !p28&#45;&gt;Dup27 -->
<g id="edge24" class="edge">
<title>!p28&#45;&gt;Dup27</title>
<g id="a_edge24"><a xlink:title="newrretf91">
<path fill="none" stroke="red" d="M391,-886.8C391,-875.16 391,-859.55 391,-846.24"/>
<polygon fill="none" stroke="red" points="394.5,-846.18 391,-836.18 387.5,-846.18 394.5,-846.18"/>
</a>
</g>
<text text-anchor="middle" x="394.5" y="-857.8" font-family="Times,serif" font-size="14.00">1</text>
</g>
<!-- Cut29&#45;&gt;!p28 -->
<g id="edge17" class="edge">
<title>Cut29&#45;&gt;!p28</title>
<g id="a_edge17"><a xlink:title="newrret93">
<path fill="none" stroke="red" d="M391,-973.85C391,-961.16 391,-945.98 391,-933.2"/>
<polygon fill="red" stroke="red" points="394.5,-933.13 391,-923.13 387.5,-933.13 394.5,-933.13"/>
</a>
</g>
<text text-anchor="middle" x="394.5" y="-944.8" font-family="Times,serif" font-size="14.00">0</text>
</g>
<!-- Lift32 -->
<g id="node33" class="node">
<title>Lift32</title>
<ellipse fill="none" stroke="black" cx="463" cy="-905" rx="27" ry="18"/>
<text text-anchor="middle" x="463" y="-901.3" font-family="Times,serif" font-size="14.00">Lift</text>
</g>
<!-- Cut30&#45;&gt;Lift32 -->
<g id="edge30" class="edge">
<title>Cut30&#45;&gt;Lift32</title>
<g id="a_edge30"><a xlink:title="seqDM96">
<path fill="none" stroke="red" d="M463,-983.08C463,-969.25 463,-949.58 463,-933.58"/>
<polygon fill="red" stroke="red" points="466.5,-933.2 463,-923.2 459.5,-933.2 466.5,-933.2"/>
</a>
</g>
<text text-anchor="middle" x="466.5" y="-944.8" font-family="Times,serif" font-size="14.00">0</text>
</g>
<!-- Lift31 -->
<g id="node32" class="node">
<title>Lift31</title>
<ellipse fill="none" stroke="black" cx="491" cy="-1330.8" rx="27" ry="18"/>
<text text-anchor="middle" x="491" y="-1327.1" font-family="Times,serif" font-size="14.00">Lift</text>
</g>
<!-- Lift32&#45;&gt;Dup27 -->
<g id="edge23" class="edge">
<title>Lift32&#45;&gt;Dup27</title>
<g id="a_edge23"><a xlink:title="newrretf87">
<path fill="none" stroke="red" d="M450.13,-888.8C439.07,-875.75 422.96,-856.74 410.35,-841.85"/>
<polygon fill="red" stroke="red" points="412.89,-839.43 403.76,-834.06 407.55,-843.96 412.89,-839.43"/>
</a>
</g>
<text text-anchor="middle" x="434.5" y="-857.8" font-family="Times,serif" font-size="14.00">1</text>
</g>
</g>
</svg>
