<?xml version="1.0" encoding="UTF-8" standalone="no"?>
<!DOCTYPE svg PUBLIC "-//W3C//DTD SVG 1.1//EN"
 "http://www.w3.org/Graphics/SVG/1.1/DTD/svg11.dtd">
<!-- Generated by graphviz version 2.43.0 (0)
 -->
<!-- Title: %3 Pages: 1 -->
<svg width="805pt" height="1409pt"
 viewBox="0.00 0.00 804.85 1409.19" xmlns="http://www.w3.org/2000/svg" xmlns:xlink="http://www.w3.org/1999/xlink">
<g id="graph0" class="graph" transform="scale(1 1) rotate(0) translate(4 1405.19)">
<title>%3</title>
<polygon fill="white" stroke="transparent" points="-4,4 -4,-1405.19 800.85,-1405.19 800.85,4 -4,4"/>
<!-- I0 -->
<g id="node1" class="node">
<title>I0</title>
<ellipse fill="none" stroke="black" cx="27" cy="-1368.6" rx="27" ry="18"/>
<text text-anchor="middle" x="27" y="-1364.9" font-family="Times-Roman" font-size="14.00">I</text>
</g>
<!-- !d1 -->
<g id="node2" class="node">
<title>!d1</title>
<ellipse fill="none" stroke="black" cx="82" cy="-1267" rx="27" ry="18"/>
<text text-anchor="middle" x="82" y="-1263.3" font-family="Times-Roman" font-size="14.00">!d</text>
</g>
<!-- I0&#45;&gt;!d1 -->
<g id="edge7" class="edge">
<title>I0&#45;&gt;!d1</title>
<g id="a_edge7"><a xlink:title="iret84">
<path fill="none" stroke="blue" d="M41.02,-1342.2C51.11,-1323.93 64.42,-1299.84 73.09,-1284.14"/>
<polygon fill="blue" stroke="blue" points="37.85,-1340.71 36.08,-1351.15 43.98,-1344.09 37.85,-1340.71"/>
</a>
</g>
<text text-anchor="middle" x="67.5" y="-1306.8" font-family="Times-Roman" font-size="14.00">3</text>
</g>
<!-- λ2 -->
<g id="node3" class="node">
<title>λ2</title>
<ellipse fill="none" stroke="black" cx="82" cy="-1180" rx="27" ry="18"/>
<text text-anchor="middle" x="82" y="-1176.3" font-family="Times-Roman" font-size="14.00">λ</text>
</g>
<!-- !d1&#45;&gt;λ2 -->
<g id="edge6" class="edge">
<title>!d1&#45;&gt;λ2</title>
<g id="a_edge6"><a xlink:title="i81">
<path fill="none" stroke="blue" d="M82,-1238.73C82,-1225.42 82,-1209.81 82,-1198.18"/>
<polygon fill="blue" stroke="blue" points="78.5,-1238.8 82,-1248.8 85.5,-1238.8 78.5,-1238.8"/>
</a>
</g>
<text text-anchor="middle" x="86.5" y="-1219.8" font-family="Times-Roman" font-size="14.00">3</text>
</g>
<!-- λ2&#45;&gt;I0 -->
<g id="edge31" class="edge">
<title>λ2&#45;&gt;I0</title>
<g id="a_edge31"><a xlink:title="ret82">
<path fill="none" stroke="red" d="M71.7,-1196.82C63.47,-1210.19 52.32,-1230.13 46,-1249 35.86,-1279.32 31.05,-1315.86 28.82,-1340.29"/>
<polygon fill="red" stroke="red" points="25.33,-1340.03 28,-1350.29 32.31,-1340.61 25.33,-1340.03"/>
</a>
</g>
</g>
<!-- !p3 -->
<g id="node4" class="node">
<title>!p3</title>
<ellipse fill="none" stroke="black" cx="154" cy="-1267" rx="27" ry="18"/>
<text text-anchor="middle" x="154" y="-1263.3" font-family="Times-Roman" font-size="14.00">!p</text>
</g>
<!-- !p3&#45;&gt;λ2 -->
<g id="edge23" class="edge">
<title>!p3&#45;&gt;λ2</title>
<g id="a_edge23"><a xlink:title="newrretf78">
<path fill="none" stroke="red" d="M141.13,-1250.8C130.07,-1237.75 113.96,-1218.74 101.35,-1203.85"/>
<polygon fill="red" stroke="red" points="103.89,-1201.43 94.76,-1196.06 98.55,-1205.96 103.89,-1201.43"/>
</a>
</g>
<text text-anchor="middle" x="127.5" y="-1219.8" font-family="Times-Roman" font-size="14.00">3</text>
</g>
<!-- I4 -->
<g id="node5" class="node">
<title>I4</title>
<ellipse fill="none" stroke="black" cx="211" cy="-919" rx="27" ry="18"/>
<text text-anchor="middle" x="211" y="-915.3" font-family="Times-Roman" font-size="14.00">I</text>
</g>
<!-- @5 -->
<g id="node6" class="node">
<title>@5</title>
<ellipse fill="none" stroke="black" cx="182" cy="-1368.6" rx="27" ry="18"/>
<text text-anchor="middle" x="182" y="-1364.9" font-family="Times-Roman" font-size="14.00">@</text>
</g>
<!-- I4&#45;&gt;@5 -->
<g id="edge11" class="edge">
<title>I4&#45;&gt;@5</title>
<g id="a_edge11"><a xlink:title="lret75">
<path fill="none" stroke="blue" d="M210.03,-947.39C209.52,-964.05 209,-985.75 209,-1005 209,-1268 209,-1268 209,-1268 209,-1298.1 197.37,-1331.59 189.38,-1351.05"/>
<polygon fill="blue" stroke="blue" points="213.53,-947.36 210.36,-937.25 206.53,-947.14 213.53,-947.36"/>
</a>
</g>
</g>
<!-- @5&#45;&gt;!p3 -->
<g id="edge18" class="edge">
<title>@5&#45;&gt;!p3</title>
<g id="a_edge18"><a xlink:title="newrret74">
<path fill="none" stroke="red" d="M177.25,-1350.7C172.95,-1335.39 166.53,-1312.57 161.53,-1294.78"/>
<polygon fill="red" stroke="red" points="164.85,-1293.66 158.77,-1284.98 158.11,-1295.55 164.85,-1293.66"/>
</a>
</g>
<text text-anchor="middle" x="172.5" y="-1306.8" font-family="Times-Roman" font-size="14.00">2</text>
</g>
<!-- Cut8 -->
<g id="node9" class="node">
<title>Cut8</title>
<ellipse fill="none" stroke="black" cx="265" cy="-1267" rx="27" ry="18"/>
<text text-anchor="middle" x="265" y="-1263.3" font-family="Times-Roman" font-size="14.00">Cut</text>
</g>
<!-- @5&#45;&gt;Cut8 -->
<g id="edge14" class="edge">
<title>@5&#45;&gt;Cut8</title>
<g id="a_edge14"><a xlink:title="lval70">
<path fill="none" stroke="blue" d="M201.13,-1344.64C216.84,-1325.79 238.64,-1299.63 252.28,-1283.27"/>
<polygon fill="blue" stroke="blue" points="198.32,-1342.55 194.61,-1352.47 203.7,-1347.03 198.32,-1342.55"/>
</a>
</g>
</g>
<!-- I6 -->
<g id="node7" class="node">
<title>I6</title>
<ellipse fill="none" stroke="black" cx="265" cy="-1180" rx="27" ry="18"/>
<text text-anchor="middle" x="265" y="-1176.3" font-family="Times-Roman" font-size="14.00">I</text>
</g>
<!-- !d7 -->
<g id="node8" class="node">
<title>!d7</title>
<ellipse fill="none" stroke="black" cx="266" cy="-1093" rx="27" ry="18"/>
<text text-anchor="middle" x="266" y="-1089.3" font-family="Times-Roman" font-size="14.00">!d</text>
</g>
<!-- I6&#45;&gt;!d7 -->
<g id="edge5" class="edge">
<title>I6&#45;&gt;!d7</title>
<g id="a_edge5"><a xlink:title="hret73">
<path fill="none" stroke="blue" d="M265.32,-1151.73C265.48,-1138.42 265.66,-1122.81 265.8,-1111.18"/>
<polygon fill="blue" stroke="blue" points="261.82,-1151.76 265.2,-1161.8 268.82,-1151.84 261.82,-1151.76"/>
</a>
</g>
<text text-anchor="middle" x="269.5" y="-1132.8" font-family="Times-Roman" font-size="14.00">2</text>
</g>
<!-- !p9 -->
<g id="node10" class="node">
<title>!p9</title>
<ellipse fill="none" stroke="black" cx="266" cy="-1006" rx="27" ry="18"/>
<text text-anchor="middle" x="266" y="-1002.3" font-family="Times-Roman" font-size="14.00">!p</text>
</g>
<!-- !d7&#45;&gt;!p9 -->
<g id="edge4" class="edge">
<title>!d7&#45;&gt;!p9</title>
<g id="a_edge4"><a xlink:title="hf65">
<path fill="none" stroke="blue" d="M266,-1064.73C266,-1051.42 266,-1035.81 266,-1024.18"/>
<polygon fill="blue" stroke="blue" points="262.5,-1064.8 266,-1074.8 269.5,-1064.8 262.5,-1064.8"/>
</a>
</g>
<text text-anchor="middle" x="270.5" y="-1045.8" font-family="Times-Roman" font-size="14.00">1</text>
</g>
<!-- Cut8&#45;&gt;I6 -->
<g id="edge33" class="edge">
<title>Cut8&#45;&gt;I6</title>
<g id="a_edge33"><a xlink:title="rval71">
<path fill="none" stroke="red" d="M265,-1248.8C265,-1237.16 265,-1221.55 265,-1208.24"/>
<polygon fill="red" stroke="red" points="268.5,-1208.18 265,-1198.18 261.5,-1208.18 268.5,-1208.18"/>
</a>
</g>
</g>
<!-- !p9&#45;&gt;I4 -->
<g id="edge22" class="edge">
<title>!p9&#45;&gt;I4</title>
<g id="a_edge22"><a xlink:title="newrretf66">
<path fill="none" stroke="red" d="M255.66,-989.35C251.68,-983.31 247.11,-976.34 243,-970 237.62,-961.71 231.78,-952.61 226.58,-944.48"/>
<polygon fill="red" stroke="red" points="229.37,-942.34 221.04,-935.79 223.47,-946.11 229.37,-942.34"/>
</a>
</g>
<text text-anchor="middle" x="247.5" y="-958.8" font-family="Times-Roman" font-size="14.00">2</text>
</g>
<!-- Dup37 -->
<g id="node38" class="node">
<title>Dup37</title>
<ellipse fill="none" stroke="black" cx="323" cy="-919" rx="28.7" ry="18"/>
<text text-anchor="middle" x="323" y="-915.3" font-family="Times-Roman" font-size="14.00">Dup</text>
</g>
<!-- !p9&#45;&gt;Dup37 -->
<g id="edge3" class="edge">
<title>!p9&#45;&gt;Dup37</title>
<g id="a_edge3"><a xlink:title="h34">
<path fill="none" stroke="blue" d="M282.37,-980.59C292,-966.23 303.9,-948.48 312.33,-935.92"/>
<polygon fill="blue" stroke="blue" points="279.38,-978.76 276.72,-989.01 285.2,-982.66 279.38,-978.76"/>
</a>
</g>
<text text-anchor="middle" x="301.5" y="-958.8" font-family="Times-Roman" font-size="14.00">1</text>
</g>
<!-- I10 -->
<g id="node11" class="node">
<title>I10</title>
<ellipse fill="none" stroke="black" cx="431" cy="-658" rx="27" ry="18"/>
<text text-anchor="middle" x="431" y="-654.3" font-family="Times-Roman" font-size="14.00">I</text>
</g>
<!-- Cut27 -->
<g id="node28" class="node">
<title>Cut27</title>
<ellipse fill="none" stroke="black" cx="431" cy="-585" rx="27" ry="18"/>
<text text-anchor="middle" x="431" y="-581.3" font-family="Times-Roman" font-size="14.00">Cut</text>
</g>
<!-- I10&#45;&gt;Cut27 -->
<g id="edge10" class="edge">
<title>I10&#45;&gt;Cut27</title>
<g id="a_edge10"><a xlink:title="lret62">
<path fill="none" stroke="blue" d="M431,-629.75C431,-620.77 431,-611.03 431,-603.03"/>
<polygon fill="blue" stroke="blue" points="427.5,-629.81 431,-639.81 434.5,-629.81 427.5,-629.81"/>
</a>
</g>
</g>
<!-- I11 -->
<g id="node12" class="node">
<title>I11</title>
<ellipse fill="none" stroke="black" cx="431" cy="-265" rx="27" ry="18"/>
<text text-anchor="middle" x="431" y="-261.3" font-family="Times-Roman" font-size="14.00">I</text>
</g>
<!-- !d12 -->
<g id="node13" class="node">
<title>!d12</title>
<ellipse fill="none" stroke="black" cx="473" cy="-178" rx="27" ry="18"/>
<text text-anchor="middle" x="473" y="-174.3" font-family="Times-Roman" font-size="14.00">!d</text>
</g>
<!-- I11&#45;&gt;!d12 -->
<g id="edge43" class="edge">
<title>I11&#45;&gt;!d12</title>
<g id="a_edge43"><a xlink:title="yret60">
<path fill="none" stroke="blue" d="M443.61,-238.49C450.52,-224.49 458.89,-207.56 464.93,-195.34"/>
<polygon fill="blue" stroke="blue" points="440.39,-237.1 439.1,-247.61 446.67,-240.2 440.39,-237.1"/>
</a>
</g>
<text text-anchor="middle" x="458.5" y="-217.8" font-family="Times-Roman" font-size="14.00">2</text>
</g>
<!-- !p13 -->
<g id="node14" class="node">
<title>!p13</title>
<ellipse fill="none" stroke="black" cx="431" cy="-352" rx="27" ry="18"/>
<text text-anchor="middle" x="431" y="-348.3" font-family="Times-Roman" font-size="14.00">!p</text>
</g>
<!-- !d12&#45;&gt;!p13 -->
<g id="edge41" class="edge">
<title>!d12&#45;&gt;!p13</title>
<g id="a_edge41"><a xlink:title="yBf56">
<path fill="none" stroke="blue" d="M474.57,-206.56C475.04,-227.83 474.04,-257.78 467,-283 461.65,-302.17 450.33,-322.06 441.8,-335.34"/>
<polygon fill="blue" stroke="blue" points="478.06,-206.17 474.22,-196.3 471.07,-206.41 478.06,-206.17"/>
</a>
</g>
<text text-anchor="middle" x="477.5" y="-261.3" font-family="Times-Roman" font-size="14.00">1</text>
</g>
<!-- !p13&#45;&gt;I11 -->
<g id="edge21" class="edge">
<title>!p13&#45;&gt;I11</title>
<g id="a_edge21"><a xlink:title="newrretf57">
<path fill="none" stroke="red" d="M431,-333.8C431,-322.16 431,-306.55 431,-293.24"/>
<polygon fill="red" stroke="red" points="434.5,-293.18 431,-283.18 427.5,-293.18 434.5,-293.18"/>
</a>
</g>
<text text-anchor="middle" x="435.5" y="-304.8" font-family="Times-Roman" font-size="14.00">2</text>
</g>
<!-- !c19 -->
<g id="node20" class="node">
<title>!c19</title>
<ellipse fill="none" stroke="black" cx="321" cy="-91" rx="27" ry="18"/>
<text text-anchor="middle" x="321" y="-87.3" font-family="Times-Roman" font-size="14.00">!c</text>
</g>
<!-- !p13&#45;&gt;!c19 -->
<g id="edge40" class="edge">
<title>!p13&#45;&gt;!c19</title>
<g id="a_edge40"><a xlink:title="yB44">
<path fill="none" stroke="blue" d="M416.29,-325.95C409.26,-313.34 401.08,-297.65 395,-283 373.07,-230.15 378.93,-212.85 357,-160 350.92,-145.35 342.74,-129.66 335.71,-117.05"/>
<polygon fill="blue" stroke="blue" points="413.41,-327.96 421.39,-334.93 419.49,-324.5 413.41,-327.96"/>
<polygon fill="blue" stroke="blue" points="333.66,-106.35 335.55,-116.77 327.57,-109.8 333.66,-106.35"/>
</a>
</g>
<text text-anchor="middle" x="381.5" y="-217.8" font-family="Times-Roman" font-size="14.00">1</text>
</g>
<!-- I14 -->
<g id="node15" class="node">
<title>I14</title>
<ellipse fill="none" stroke="black" cx="431" cy="-512" rx="27" ry="18"/>
<text text-anchor="middle" x="431" y="-508.3" font-family="Times-Roman" font-size="14.00">I</text>
</g>
<!-- @15 -->
<g id="node16" class="node">
<title>@15</title>
<ellipse fill="none" stroke="black" cx="431" cy="-439" rx="27" ry="18"/>
<text text-anchor="middle" x="431" y="-435.3" font-family="Times-Roman" font-size="14.00">@</text>
</g>
<!-- I14&#45;&gt;@15 -->
<g id="edge9" class="edge">
<title>I14&#45;&gt;@15</title>
<g id="a_edge9"><a xlink:title="lret53">
<path fill="none" stroke="blue" d="M431,-483.75C431,-474.77 431,-465.03 431,-457.03"/>
<polygon fill="blue" stroke="blue" points="427.5,-483.81 431,-493.81 434.5,-483.81 427.5,-483.81"/>
</a>
</g>
</g>
<!-- @15&#45;&gt;!p13 -->
<g id="edge16" class="edge">
<title>@15&#45;&gt;!p13</title>
<g id="a_edge16"><a xlink:title="newrret52">
<path fill="none" stroke="red" d="M431,-420.8C431,-409.16 431,-393.55 431,-380.24"/>
<polygon fill="red" stroke="red" points="434.5,-380.18 431,-370.18 427.5,-380.18 434.5,-380.18"/>
</a>
</g>
<text text-anchor="middle" x="435.5" y="-391.8" font-family="Times-Roman" font-size="14.00">1</text>
</g>
<!-- Cut18 -->
<g id="node19" class="node">
<title>Cut18</title>
<ellipse fill="none" stroke="black" cx="321" cy="-352" rx="27" ry="18"/>
<text text-anchor="middle" x="321" y="-348.3" font-family="Times-Roman" font-size="14.00">Cut</text>
</g>
<!-- @15&#45;&gt;Cut18 -->
<g id="edge13" class="edge">
<title>@15&#45;&gt;Cut18</title>
<g id="a_edge13"><a xlink:title="lval48">
<path fill="none" stroke="blue" d="M405.75,-418.49C385,-402.46 356.18,-380.19 338.07,-366.19"/>
<polygon fill="blue" stroke="blue" points="403.76,-421.37 413.81,-424.72 408.04,-415.83 403.76,-421.37"/>
</a>
</g>
</g>
<!-- I16 -->
<g id="node17" class="node">
<title>I16</title>
<ellipse fill="none" stroke="black" cx="321" cy="-265" rx="27" ry="18"/>
<text text-anchor="middle" x="321" y="-261.3" font-family="Times-Roman" font-size="14.00">I</text>
</g>
<!-- !d17 -->
<g id="node18" class="node">
<title>!d17</title>
<ellipse fill="none" stroke="black" cx="321" cy="-178" rx="27" ry="18"/>
<text text-anchor="middle" x="321" y="-174.3" font-family="Times-Roman" font-size="14.00">!d</text>
</g>
<!-- I16&#45;&gt;!d17 -->
<g id="edge42" class="edge">
<title>I16&#45;&gt;!d17</title>
<g id="a_edge42"><a xlink:title="yret51">
<path fill="none" stroke="blue" d="M321,-236.73C321,-223.42 321,-207.81 321,-196.18"/>
<polygon fill="blue" stroke="blue" points="317.5,-236.8 321,-246.8 324.5,-236.8 317.5,-236.8"/>
</a>
</g>
<text text-anchor="middle" x="325.5" y="-217.8" font-family="Times-Roman" font-size="14.00">1</text>
</g>
<!-- !d17&#45;&gt;!c19 -->
<g id="edge39" class="edge">
<title>!d17&#45;&gt;!c19</title>
<g id="a_edge39"><a xlink:title="yA43">
<path fill="none" stroke="blue" d="M321,-149.73C321,-136.42 321,-120.81 321,-109.18"/>
<polygon fill="blue" stroke="blue" points="317.5,-149.8 321,-159.8 324.5,-149.8 317.5,-149.8"/>
</a>
</g>
<text text-anchor="middle" x="325.5" y="-130.8" font-family="Times-Roman" font-size="14.00">1</text>
</g>
<!-- Cut18&#45;&gt;I16 -->
<g id="edge32" class="edge">
<title>Cut18&#45;&gt;I16</title>
<g id="a_edge32"><a xlink:title="rval49">
<path fill="none" stroke="red" d="M321,-333.8C321,-322.16 321,-306.55 321,-293.24"/>
<polygon fill="red" stroke="red" points="324.5,-293.18 321,-283.18 317.5,-293.18 324.5,-293.18"/>
</a>
</g>
</g>
<!-- Cut26 -->
<g id="node27" class="node">
<title>Cut26</title>
<ellipse fill="none" stroke="black" cx="266" cy="-18" rx="27" ry="18"/>
<text text-anchor="middle" x="266" y="-14.3" font-family="Times-Roman" font-size="14.00">Cut</text>
</g>
<!-- !c19&#45;&gt;Cut26 -->
<g id="edge38" class="edge">
<title>!c19&#45;&gt;Cut26</title>
<g id="a_edge38"><a xlink:title="y41">
<path fill="none" stroke="blue" d="M302.83,-66.54C294.63,-55.96 285.19,-43.77 277.91,-34.38"/>
<polygon fill="blue" stroke="blue" points="300.17,-68.83 309.07,-74.59 305.71,-64.55 300.17,-68.83"/>
</a>
</g>
</g>
<!-- I20 -->
<g id="node21" class="node">
<title>I20</title>
<ellipse fill="none" stroke="black" cx="445" cy="-1006" rx="27" ry="18"/>
<text text-anchor="middle" x="445" y="-1002.3" font-family="Times-Roman" font-size="14.00">I</text>
</g>
<!-- !d21 -->
<g id="node22" class="node">
<title>!d21</title>
<ellipse fill="none" stroke="black" cx="475" cy="-919" rx="27" ry="18"/>
<text text-anchor="middle" x="475" y="-915.3" font-family="Times-Roman" font-size="14.00">!d</text>
</g>
<!-- I20&#45;&gt;!d21 -->
<g id="edge37" class="edge">
<title>I20&#45;&gt;!d21</title>
<g id="a_edge37"><a xlink:title="xret26">
<path fill="none" stroke="blue" d="M454.39,-978.4C459.19,-964.79 464.9,-948.62 469.09,-936.76"/>
<polygon fill="blue" stroke="blue" points="450.95,-977.61 450.93,-988.21 457.56,-979.94 450.95,-977.61"/>
</a>
</g>
<text text-anchor="middle" x="465.5" y="-958.8" font-family="Times-Roman" font-size="14.00">1</text>
</g>
<!-- !p22 -->
<g id="node23" class="node">
<title>!p22</title>
<ellipse fill="none" stroke="black" cx="445" cy="-1093" rx="27" ry="18"/>
<text text-anchor="middle" x="445" y="-1089.3" font-family="Times-Roman" font-size="14.00">!p</text>
</g>
<!-- !d21&#45;&gt;!p22 -->
<g id="edge36" class="edge">
<title>!d21&#45;&gt;!p22</title>
<g id="a_edge36"><a xlink:title="xBf22">
<path fill="none" stroke="blue" d="M480.88,-946.78C484.51,-968.03 487.38,-998.32 481,-1024 476.2,-1043.32 464.79,-1063.18 456.1,-1076.42"/>
<polygon fill="blue" stroke="blue" points="484.3,-946.04 479.01,-936.86 477.42,-947.33 484.3,-946.04"/>
</a>
</g>
<text text-anchor="middle" x="488.5" y="-1002.3" font-family="Times-Roman" font-size="14.00">0</text>
</g>
<!-- !p22&#45;&gt;I20 -->
<g id="edge20" class="edge">
<title>!p22&#45;&gt;I20</title>
<g id="a_edge20"><a xlink:title="newrretf23">
<path fill="none" stroke="red" d="M445,-1074.8C445,-1063.16 445,-1047.55 445,-1034.24"/>
<polygon fill="red" stroke="red" points="448.5,-1034.18 445,-1024.18 441.5,-1034.18 448.5,-1034.18"/>
</a>
</g>
<text text-anchor="middle" x="449.5" y="-1045.8" font-family="Times-Roman" font-size="14.00">1</text>
</g>
<!-- Cut30 -->
<g id="node31" class="node">
<title>Cut30</title>
<ellipse fill="none" stroke="black" cx="562" cy="-1006" rx="27" ry="18"/>
<text text-anchor="middle" x="562" y="-1002.3" font-family="Times-Roman" font-size="14.00">Cut</text>
</g>
<!-- !p22&#45;&gt;Cut30 -->
<g id="edge35" class="edge">
<title>!p22&#45;&gt;Cut30</title>
<g id="a_edge35"><a xlink:title="xB10">
<path fill="none" stroke="blue" d="M478.31,-1080.84C492.62,-1075.08 509.01,-1067.11 522,-1057 534.11,-1047.58 544.78,-1033.78 552.06,-1023.07"/>
<polygon fill="blue" stroke="blue" points="476.89,-1077.64 468.8,-1084.48 479.39,-1084.18 476.89,-1077.64"/>
</a>
</g>
<text text-anchor="middle" x="541.5" y="-1045.8" font-family="Times-Roman" font-size="14.00">0</text>
</g>
<!-- I23 -->
<g id="node24" class="node">
<title>I23</title>
<ellipse fill="none" stroke="black" cx="445" cy="-1267" rx="27" ry="18"/>
<text text-anchor="middle" x="445" y="-1263.3" font-family="Times-Roman" font-size="14.00">I</text>
</g>
<!-- @24 -->
<g id="node25" class="node">
<title>@24</title>
<ellipse fill="none" stroke="black" cx="445" cy="-1180" rx="27" ry="18"/>
<text text-anchor="middle" x="445" y="-1176.3" font-family="Times-Roman" font-size="14.00">@</text>
</g>
<!-- I23&#45;&gt;@24 -->
<g id="edge8" class="edge">
<title>I23&#45;&gt;@24</title>
<g id="a_edge8"><a xlink:title="lret19">
<path fill="none" stroke="blue" d="M445,-1238.73C445,-1225.42 445,-1209.81 445,-1198.18"/>
<polygon fill="blue" stroke="blue" points="441.5,-1238.8 445,-1248.8 448.5,-1238.8 441.5,-1238.8"/>
</a>
</g>
</g>
<!-- @24&#45;&gt;!p22 -->
<g id="edge15" class="edge">
<title>@24&#45;&gt;!p22</title>
<g id="a_edge15"><a xlink:title="newrret18">
<path fill="none" stroke="red" d="M445,-1161.8C445,-1150.16 445,-1134.55 445,-1121.24"/>
<polygon fill="red" stroke="red" points="448.5,-1121.18 445,-1111.18 441.5,-1121.18 448.5,-1121.18"/>
</a>
</g>
<text text-anchor="middle" x="449.5" y="-1132.8" font-family="Times-Roman" font-size="14.00">0</text>
</g>
<!-- Cut31 -->
<g id="node32" class="node">
<title>Cut31</title>
<ellipse fill="none" stroke="black" cx="373" cy="-1006" rx="27" ry="18"/>
<text text-anchor="middle" x="373" y="-1002.3" font-family="Times-Roman" font-size="14.00">Cut</text>
</g>
<!-- @24&#45;&gt;Cut31 -->
<g id="edge12" class="edge">
<title>@24&#45;&gt;Cut31</title>
<g id="a_edge12"><a xlink:title="lval14">
<path fill="none" stroke="blue" d="M430.5,-1153.86C423.53,-1141.23 415.32,-1125.55 409,-1111 395.97,-1081.04 384.29,-1044.7 377.96,-1023.87"/>
<polygon fill="blue" stroke="blue" points="427.6,-1155.85 435.55,-1162.86 433.71,-1152.42 427.6,-1155.85"/>
</a>
</g>
</g>
<!-- Assign25 -->
<g id="node26" class="node">
<title>Assign25</title>
<ellipse fill="none" stroke="black" cx="445" cy="-1368.6" rx="38.99" ry="18"/>
<text text-anchor="middle" x="445" y="-1364.9" font-family="Times-Roman" font-size="14.00">Assign</text>
</g>
<!-- Assign25&#45;&gt;I23 -->
<g id="edge30" class="edge">
<title>Assign25&#45;&gt;I23</title>
<g id="a_edge30"><a xlink:title="ret8">
<path fill="none" stroke="red" d="M445,-1350.25C445,-1335.11 445,-1312.89 445,-1295.35"/>
<polygon fill="red" stroke="red" points="448.5,-1295.15 445,-1285.15 441.5,-1295.15 448.5,-1295.15"/>
</a>
</g>
</g>
<!-- Cut26&#45;&gt;!p9 -->
<g id="edge17" class="edge">
<title>Cut26&#45;&gt;!p9</title>
<g id="a_edge17"><a xlink:title="newrret61">
<path fill="none" stroke="red" d="M266,-36.22C266,-50.59 266,-71.63 266,-90 266,-920 266,-920 266,-920 266,-939.25 266,-960.95 266,-977.6"/>
<polygon fill="red" stroke="red" points="262.5,-977.74 266,-987.74 269.5,-977.74 262.5,-977.74"/>
</a>
</g>
<text text-anchor="middle" x="270.5" y="-508.3" font-family="Times-Roman" font-size="14.00">1</text>
</g>
<!-- Cut27&#45;&gt;I14 -->
<g id="edge29" class="edge">
<title>Cut27&#45;&gt;I14</title>
<g id="a_edge29"><a xlink:title="ret42">
<path fill="none" stroke="red" d="M431,-566.81C431,-558.79 431,-549.05 431,-540.07"/>
<polygon fill="red" stroke="red" points="434.5,-540.03 431,-530.03 427.5,-540.03 434.5,-540.03"/>
</a>
</g>
</g>
<!-- Dup28 -->
<g id="node29" class="node">
<title>Dup28</title>
<ellipse fill="none" stroke="black" cx="535" cy="-1368.6" rx="28.68" ry="28.68"/>
<ellipse fill="none" stroke="black" cx="535" cy="-1368.6" rx="32.7" ry="32.7"/>
<text text-anchor="middle" x="535" y="-1364.9" font-family="Times-Roman" font-size="14.00">Dup</text>
</g>
<!-- !p29 -->
<g id="node30" class="node">
<title>!p29</title>
<ellipse fill="none" stroke="black" cx="550" cy="-919" rx="27" ry="18"/>
<text text-anchor="middle" x="550" y="-915.3" font-family="Times-Roman" font-size="14.00">!p</text>
</g>
<!-- λ35 -->
<g id="node36" class="node">
<title>λ35</title>
<ellipse fill="none" stroke="black" cx="469" cy="-832" rx="27" ry="18"/>
<text text-anchor="middle" x="469" y="-828.3" font-family="Times-Roman" font-size="14.00">λ</text>
</g>
<!-- !p29&#45;&gt;λ35 -->
<g id="edge25" class="edge">
<title>!p29&#45;&gt;λ35</title>
<g id="a_edge25"><a xlink:title="newrretf92">
<path fill="none" stroke="red" d="M535.89,-903.19C523.23,-889.91 504.48,-870.23 490.04,-855.08"/>
<polygon fill="red" stroke="red" points="492.38,-852.46 482.95,-847.64 487.31,-857.29 492.38,-852.46"/>
</a>
</g>
<text text-anchor="middle" x="518.5" y="-871.8" font-family="Times-Roman" font-size="14.00">1</text>
</g>
<!-- Cut30&#45;&gt;!p29 -->
<g id="edge19" class="edge">
<title>Cut30&#45;&gt;!p29</title>
<g id="a_edge19"><a xlink:title="newrret94">
<path fill="none" stroke="red" d="M559.57,-987.8C557.93,-976.16 555.72,-960.55 553.85,-947.24"/>
<polygon fill="red" stroke="red" points="557.29,-946.59 552.42,-937.18 550.36,-947.57 557.29,-946.59"/>
</a>
</g>
<text text-anchor="middle" x="560.5" y="-958.8" font-family="Times-Roman" font-size="14.00">0</text>
</g>
<!-- Lift33 -->
<g id="node34" class="node">
<title>Lift33</title>
<ellipse fill="none" stroke="black" cx="397" cy="-919" rx="27" ry="18"/>
<text text-anchor="middle" x="397" y="-915.3" font-family="Times-Roman" font-size="14.00">Lift</text>
</g>
<!-- Cut31&#45;&gt;Lift33 -->
<g id="edge34" class="edge">
<title>Cut31&#45;&gt;Lift33</title>
<g id="a_edge34"><a xlink:title="seqDM97">
<path fill="none" stroke="red" d="M377.74,-988.21C381.09,-976.33 385.66,-960.17 389.5,-946.56"/>
<polygon fill="red" stroke="red" points="392.92,-947.33 392.27,-936.76 386.18,-945.43 392.92,-947.33"/>
</a>
</g>
<text text-anchor="middle" x="390.5" y="-958.8" font-family="Times-Roman" font-size="14.00">0</text>
</g>
<!-- Lift32 -->
<g id="node33" class="node">
<title>Lift32</title>
<ellipse fill="none" stroke="black" cx="613" cy="-1368.6" rx="27" ry="18"/>
<text text-anchor="middle" x="613" y="-1364.9" font-family="Times-Roman" font-size="14.00">Lift</text>
</g>
<!-- λ34 -->
<g id="node35" class="node">
<title>λ34</title>
<ellipse fill="none" stroke="black" cx="397" cy="-832" rx="27" ry="18"/>
<text text-anchor="middle" x="397" y="-828.3" font-family="Times-Roman" font-size="14.00">λ</text>
</g>
<!-- Lift33&#45;&gt;λ34 -->
<g id="edge24" class="edge">
<title>Lift33&#45;&gt;λ34</title>
<g id="a_edge24"><a xlink:title="newrretf88">
<path fill="none" stroke="red" d="M397,-900.8C397,-889.16 397,-873.55 397,-860.24"/>
<polygon fill="red" stroke="red" points="400.5,-860.18 397,-850.18 393.5,-860.18 400.5,-860.18"/>
</a>
</g>
<text text-anchor="middle" x="401.5" y="-871.8" font-family="Times-Roman" font-size="14.00">1</text>
</g>
<!-- Dup38 -->
<g id="node39" class="node">
<title>Dup38</title>
<ellipse fill="none" stroke="black" cx="431" cy="-745" rx="28.7" ry="18"/>
<text text-anchor="middle" x="431" y="-741.3" font-family="Times-Roman" font-size="14.00">Dup</text>
</g>
<!-- λ34&#45;&gt;Dup38 -->
<g id="edge26" class="edge">
<title>λ34&#45;&gt;Dup38</title>
<g id="a_edge26"><a xlink:title="ret102">
<path fill="none" stroke="red" d="M403.72,-814.21C408.51,-802.22 415.06,-785.85 420.54,-772.16"/>
<polygon fill="red" stroke="red" points="423.83,-773.34 424.3,-762.76 417.33,-770.74 423.83,-773.34"/>
</a>
</g>
<text text-anchor="middle" x="420.5" y="-784.8" font-family="Times-Roman" font-size="14.00">1</text>
</g>
<!-- λ35&#45;&gt;Dup38 -->
<g id="edge27" class="edge">
<title>λ35&#45;&gt;Dup38</title>
<g id="a_edge27"><a xlink:title="ret106">
<path fill="none" stroke="red" d="M461.67,-814.61C456.29,-802.58 448.87,-785.98 442.68,-772.13"/>
<polygon fill="none" stroke="red" points="445.71,-770.33 438.43,-762.63 439.32,-773.19 445.71,-770.33"/>
</a>
</g>
<text text-anchor="middle" x="456.5" y="-784.8" font-family="Times-Roman" font-size="14.00">1</text>
</g>
<!-- Dup36 -->
<g id="node37" class="node">
<title>Dup36</title>
<ellipse fill="none" stroke="black" cx="687" cy="-1368.6" rx="28.7" ry="18"/>
<text text-anchor="middle" x="687" y="-1364.9" font-family="Times-Roman" font-size="14.00">Dup</text>
</g>
<!-- Dup37&#45;&gt;λ34 -->
<g id="edge1" class="edge">
<title>Dup37&#45;&gt;λ34</title>
<g id="a_edge1"><a xlink:title="h101">
<path fill="none" stroke="blue" d="M323.49,-890.76C324.75,-882.83 327.25,-874.55 332,-868 341.86,-854.41 358.65,-845.56 372.69,-840.16"/>
<polygon fill="blue" stroke="blue" points="320,-890.5 322.48,-900.81 326.96,-891.21 320,-890.5"/>
</a>
</g>
<text text-anchor="middle" x="336.5" y="-871.8" font-family="Times-Roman" font-size="14.00">1</text>
</g>
<!-- Dup37&#45;&gt;λ35 -->
<g id="edge2" class="edge">
<title>Dup37&#45;&gt;λ35</title>
<g id="a_edge2"><a xlink:title="h105">
<path fill="none" stroke="blue" d="M345.44,-896.54C356.42,-886.86 370.22,-875.87 384,-868 404.14,-856.49 411.6,-858.96 433,-850 437.85,-847.97 442.99,-845.65 447.82,-843.39"/>
<polygon fill="none" stroke="blue" points="343.05,-893.98 337.98,-903.28 347.75,-899.17 343.05,-893.98"/>
</a>
</g>
<text text-anchor="middle" x="388.5" y="-871.8" font-family="Times-Roman" font-size="14.00">1</text>
</g>
<!-- Dup38&#45;&gt;I10 -->
<g id="edge28" class="edge">
<title>Dup38&#45;&gt;I10</title>
<g id="a_edge28"><a xlink:title="ret35">
<path fill="none" stroke="red" d="M431,-726.8C431,-715.16 431,-699.55 431,-686.24"/>
<polygon fill="red" stroke="red" points="434.5,-686.18 431,-676.18 427.5,-686.18 434.5,-686.18"/>
</a>
</g>
<text text-anchor="middle" x="435.5" y="-697.8" font-family="Times-Roman" font-size="14.00">1</text>
</g>
<!-- DupI39 -->
<g id="node40" class="node">
<title>DupI39</title>
<ellipse fill="none" stroke="black" cx="765" cy="-1368.6" rx="31.7" ry="18"/>
<text text-anchor="middle" x="765" y="-1364.9" font-family="Times-Roman" font-size="14.00">DupI</text>
</g>
</g>
</svg>
