<?xml version="1.0" encoding="UTF-8" standalone="no"?>
<!DOCTYPE svg PUBLIC "-//W3C//DTD SVG 1.1//EN"
 "http://www.w3.org/Graphics/SVG/1.1/DTD/svg11.dtd">
<!-- Generated by graphviz version 2.49.3 (0)
 -->
<!-- Pages: 1 -->
<svg width="600pt" height="1354pt"
 viewBox="0.00 0.00 600.00 1353.80" xmlns="http://www.w3.org/2000/svg" xmlns:xlink="http://www.w3.org/1999/xlink">
<g id="graph0" class="graph" transform="scale(1 1) rotate(0) translate(4 1349.8)">
<polygon fill="white" stroke="transparent" points="-4,4 -4,-1349.8 596,-1349.8 596,4 -4,4"/>
<!-- I0 -->
<g id="node1" class="node">
<title>I0</title>
<ellipse fill="none" stroke="black" cx="82" cy="-1327.8" rx="27" ry="18"/>
<text text-anchor="middle" x="82" y="-1324.1" font-family="Times,serif" font-size="14.00">I</text>
</g>
<!-- !d1 -->
<g id="node2" class="node">
<title>!d1</title>
<ellipse fill="none" stroke="black" cx="27" cy="-1231.4" rx="27" ry="18"/>
<text text-anchor="middle" x="27" y="-1227.7" font-family="Times,serif" font-size="14.00">!d</text>
</g>
<!-- I0&#45;&gt;!d1 -->
<g id="edge5" class="edge">
<title>I0&#45;&gt;!d1</title>
<g id="a_edge5"><a xlink:title="iret84">
<path fill="none" stroke="blue" d="M67.04,-1302.01C65,-1298.59 62.94,-1295.11 61,-1291.8 52.47,-1277.24 42.94,-1260.56 36.15,-1248.58"/>
<polygon fill="blue" stroke="blue" points="64.17,-1304.03 72.31,-1310.81 70.18,-1300.43 64.17,-1304.03"/>
</a>
</g>
<text text-anchor="middle" x="64.5" y="-1280.6" font-family="Times,serif" font-size="14.00">3</text>
</g>
<!-- λ2 -->
<g id="node3" class="node">
<title>λ2</title>
<ellipse fill="none" stroke="black" cx="82" cy="-1135" rx="27" ry="18"/>
<text text-anchor="middle" x="82" y="-1131.3" font-family="Times,serif" font-size="14.00">λ</text>
</g>
<!-- !d1&#45;&gt;λ2 -->
<g id="edge4" class="edge">
<title>!d1&#45;&gt;λ2</title>
<g id="a_edge4"><a xlink:title="i81">
<path fill="none" stroke="blue" d="M41.14,-1205.43C47.21,-1194.79 54.4,-1182.26 61,-1171 64.65,-1164.76 68.73,-1157.94 72.31,-1151.99"/>
<polygon fill="blue" stroke="blue" points="38.05,-1203.79 36.15,-1214.21 44.13,-1207.25 38.05,-1203.79"/>
</a>
</g>
<text text-anchor="middle" x="64.5" y="-1174.8" font-family="Times,serif" font-size="14.00">3</text>
</g>
<!-- λ2&#45;&gt;I0 -->
<g id="edge30" class="edge">
<title>λ2&#45;&gt;I0</title>
<g id="a_edge30"><a xlink:title="ret82">
<path fill="none" stroke="red" d="M82,-1153.09C82,-1186.22 82,-1259.44 82,-1299.42"/>
<polygon fill="red" stroke="red" points="78.5,-1299.53 82,-1309.53 85.5,-1299.53 78.5,-1299.53"/>
</a>
</g>
</g>
<!-- !p3 -->
<g id="node4" class="node">
<title>!p3</title>
<ellipse fill="none" stroke="black" cx="137" cy="-1231.4" rx="27" ry="18"/>
<text text-anchor="middle" x="137" y="-1227.7" font-family="Times,serif" font-size="14.00">!p</text>
</g>
<!-- !p3&#45;&gt;λ2 -->
<g id="edge25" class="edge">
<title>!p3&#45;&gt;λ2</title>
<g id="a_edge25"><a xlink:title="newrretf78">
<path fill="none" stroke="red" d="M127.67,-1214.38C119.14,-1199.74 106.38,-1177.84 96.51,-1160.91"/>
<polygon fill="red" stroke="red" points="99.43,-1158.97 91.38,-1152.09 93.39,-1162.49 99.43,-1158.97"/>
</a>
</g>
<text text-anchor="middle" x="113.5" y="-1174.8" font-family="Times,serif" font-size="14.00">3</text>
</g>
<!-- I4 -->
<g id="node5" class="node">
<title>I4</title>
<ellipse fill="none" stroke="black" cx="192" cy="-874" rx="27" ry="18"/>
<text text-anchor="middle" x="192" y="-870.3" font-family="Times,serif" font-size="14.00">I</text>
</g>
<!-- @5 -->
<g id="node6" class="node">
<title>@5</title>
<ellipse fill="none" stroke="black" cx="166" cy="-1327.8" rx="27" ry="18"/>
<text text-anchor="middle" x="166" y="-1324.1" font-family="Times,serif" font-size="14.00">@</text>
</g>
<!-- I4&#45;&gt;@5 -->
<g id="edge10" class="edge">
<title>I4&#45;&gt;@5</title>
<g id="a_edge10"><a xlink:title="lret75">
<path fill="none" stroke="blue" d="M192,-902.4C192,-919.05 192,-940.75 192,-960 192,-1232.4 192,-1232.4 192,-1232.4 192,-1260.62 181.07,-1291.93 173.38,-1310.46"/>
<polygon fill="blue" stroke="blue" points="195.5,-902.26 192,-892.26 188.5,-902.26 195.5,-902.26"/>
</a>
</g>
</g>
<!-- @5&#45;&gt;!p3 -->
<g id="edge20" class="edge">
<title>@5&#45;&gt;!p3</title>
<g id="a_edge20"><a xlink:title="newrret74">
<path fill="none" stroke="red" d="M160.82,-1309.92C156.44,-1295.69 150.11,-1275.09 145.08,-1258.69"/>
<polygon fill="red" stroke="red" points="148.42,-1257.66 142.14,-1249.13 141.73,-1259.72 148.42,-1257.66"/>
</a>
</g>
<text text-anchor="middle" x="158.5" y="-1280.6" font-family="Times,serif" font-size="14.00">2</text>
</g>
<!-- Cut8 -->
<g id="node9" class="node">
<title>Cut8</title>
<ellipse fill="none" stroke="black" cx="247" cy="-1231.4" rx="23.31" ry="23.31"/>
<ellipse fill="none" stroke="black" cx="247" cy="-1231.4" rx="27.3" ry="27.3"/>
<text text-anchor="middle" x="247" y="-1227.7" font-family="Times,serif" font-size="14.00">Cut</text>
</g>
<!-- @5&#45;&gt;Cut8 -->
<g id="edge15" class="edge">
<title>@5&#45;&gt;Cut8</title>
<g id="a_edge15"><a xlink:title="lval70">
<path fill="none" stroke="blue" d="M190.47,-1307.09C195.83,-1302.32 201.3,-1297.07 206,-1291.8 216.09,-1280.48 225.8,-1266.59 233.24,-1255.09"/>
<polygon fill="blue" stroke="blue" points="188.11,-1304.51 182.81,-1313.68 192.67,-1309.82 188.11,-1304.51"/>
</a>
</g>
</g>
<!-- I6 -->
<g id="node7" class="node">
<title>I6</title>
<ellipse fill="none" stroke="black" cx="247" cy="-1135" rx="27" ry="18"/>
<text text-anchor="middle" x="247" y="-1131.3" font-family="Times,serif" font-size="14.00">I</text>
</g>
<!-- !d7 -->
<g id="node8" class="node">
<title>!d7</title>
<ellipse fill="none" stroke="black" cx="247" cy="-1048" rx="27" ry="18"/>
<text text-anchor="middle" x="247" y="-1044.3" font-family="Times,serif" font-size="14.00">!d</text>
</g>
<!-- I6&#45;&gt;!d7 -->
<g id="edge3" class="edge">
<title>I6&#45;&gt;!d7</title>
<g id="a_edge3"><a xlink:title="hret73">
<path fill="none" stroke="blue" d="M247,-1106.73C247,-1093.42 247,-1077.81 247,-1066.18"/>
<polygon fill="blue" stroke="blue" points="243.5,-1106.8 247,-1116.8 250.5,-1106.8 243.5,-1106.8"/>
</a>
</g>
<text text-anchor="middle" x="250.5" y="-1087.8" font-family="Times,serif" font-size="14.00">2</text>
</g>
<!-- !p9 -->
<g id="node10" class="node">
<title>!p9</title>
<ellipse fill="none" stroke="black" cx="247" cy="-961" rx="27" ry="18"/>
<text text-anchor="middle" x="247" y="-957.3" font-family="Times,serif" font-size="14.00">!p</text>
</g>
<!-- !d7&#45;&gt;!p9 -->
<g id="edge2" class="edge">
<title>!d7&#45;&gt;!p9</title>
<g id="a_edge2"><a xlink:title="hf65">
<path fill="none" stroke="blue" d="M247,-1019.73C247,-1006.42 247,-990.81 247,-979.18"/>
<polygon fill="blue" stroke="blue" points="243.5,-1019.8 247,-1029.8 250.5,-1019.8 243.5,-1019.8"/>
</a>
</g>
<text text-anchor="middle" x="250.5" y="-1000.8" font-family="Times,serif" font-size="14.00">1</text>
</g>
<!-- Cut8&#45;&gt;I6 -->
<g id="edge35" class="edge">
<title>Cut8&#45;&gt;I6</title>
<g id="a_edge35"><a xlink:title="rval71">
<path fill="none" stroke="red" stroke-width="2" d="M247,-1203.85C247,-1191.16 247,-1175.98 247,-1163.2"/>
<polygon fill="red" stroke="red" stroke-width="2" points="250.5,-1163.13 247,-1153.13 243.5,-1163.13 250.5,-1163.13"/>
</a>
</g>
</g>
<!-- !p9&#45;&gt;I4 -->
<g id="edge24" class="edge">
<title>!p9&#45;&gt;I4</title>
<g id="a_edge24"><a xlink:title="newrretf66">
<path fill="none" stroke="red" d="M236.65,-944.01C228.51,-931.43 217.03,-913.68 207.74,-899.33"/>
<polygon fill="red" stroke="red" points="210.67,-897.41 202.3,-890.92 204.79,-901.21 210.67,-897.41"/>
</a>
</g>
<text text-anchor="middle" x="225.5" y="-913.8" font-family="Times,serif" font-size="14.00">2</text>
</g>
<!-- λ23 -->
<g id="node24" class="node">
<title>λ23</title>
<ellipse fill="none" stroke="black" cx="302" cy="-874" rx="27" ry="18"/>
<text text-anchor="middle" x="302" y="-870.3" font-family="Times,serif" font-size="14.00">λ</text>
</g>
<!-- !p9&#45;&gt;λ23 -->
<g id="edge1" class="edge">
<title>!p9&#45;&gt;λ23</title>
<g id="a_edge1"><a xlink:title="h34">
<path fill="none" stroke="blue" d="M262.8,-935.59C272.09,-921.23 283.57,-903.48 291.7,-890.92"/>
<polygon fill="blue" stroke="blue" points="259.84,-933.72 257.35,-944.01 265.72,-937.52 259.84,-933.72"/>
</a>
</g>
<text text-anchor="middle" x="280.5" y="-913.8" font-family="Times,serif" font-size="14.00">1</text>
</g>
<!-- I10 -->
<g id="node11" class="node">
<title>I10</title>
<ellipse fill="none" stroke="black" cx="302" cy="-787" rx="27" ry="18"/>
<text text-anchor="middle" x="302" y="-783.3" font-family="Times,serif" font-size="14.00">I</text>
</g>
<!-- @11 -->
<g id="node12" class="node">
<title>@11</title>
<ellipse fill="none" stroke="black" cx="247" cy="-714" rx="27" ry="18"/>
<text text-anchor="middle" x="247" y="-710.3" font-family="Times,serif" font-size="14.00">@</text>
</g>
<!-- I10&#45;&gt;@11 -->
<g id="edge9" class="edge">
<title>I10&#45;&gt;@11</title>
<g id="a_edge9"><a xlink:title="lret62">
<path fill="none" stroke="blue" d="M283.83,-762.54C275.63,-751.96 266.19,-739.77 258.91,-730.38"/>
<polygon fill="blue" stroke="blue" points="281.17,-764.83 290.07,-770.59 286.71,-760.55 281.17,-764.83"/>
</a>
</g>
</g>
<!-- @11&#45;&gt;!p9 -->
<g id="edge19" class="edge">
<title>@11&#45;&gt;!p9</title>
<g id="a_edge19"><a xlink:title="newrret61">
<path fill="none" stroke="red" d="M247,-732.21C247,-774.1 247,-881.65 247,-932.53"/>
<polygon fill="red" stroke="red" points="243.5,-932.77 247,-942.77 250.5,-932.77 243.5,-932.77"/>
</a>
</g>
<text text-anchor="middle" x="250.5" y="-826.8" font-family="Times,serif" font-size="14.00">1</text>
</g>
<!-- Cut22 -->
<g id="node23" class="node">
<title>Cut22</title>
<ellipse fill="none" stroke="black" cx="247" cy="-627" rx="27" ry="18"/>
<text text-anchor="middle" x="247" y="-623.3" font-family="Times,serif" font-size="14.00">Cut</text>
</g>
<!-- @11&#45;&gt;Cut22 -->
<g id="edge12" class="edge">
<title>@11&#45;&gt;Cut22</title>
<g id="a_edge12"><a xlink:title="lval38">
<path fill="none" stroke="blue" d="M247,-685.73C247,-672.42 247,-656.81 247,-645.18"/>
<polygon fill="blue" stroke="blue" points="243.5,-685.8 247,-695.8 250.5,-685.8 243.5,-685.8"/>
</a>
</g>
</g>
<!-- I12 -->
<g id="node13" class="node">
<title>I12</title>
<ellipse fill="none" stroke="black" cx="334" cy="-192" rx="27" ry="18"/>
<text text-anchor="middle" x="334" y="-188.3" font-family="Times,serif" font-size="14.00">I</text>
</g>
<!-- !d13 -->
<g id="node14" class="node">
<title>!d13</title>
<ellipse fill="none" stroke="black" cx="376" cy="-105" rx="27" ry="18"/>
<text text-anchor="middle" x="376" y="-101.3" font-family="Times,serif" font-size="14.00">!d</text>
</g>
<!-- I12&#45;&gt;!d13 -->
<g id="edge47" class="edge">
<title>I12&#45;&gt;!d13</title>
<g id="a_edge47"><a xlink:title="yret60">
<path fill="none" stroke="blue" d="M346.61,-165.49C353.52,-151.49 361.89,-134.56 367.93,-122.34"/>
<polygon fill="blue" stroke="blue" points="343.39,-164.1 342.1,-174.61 349.67,-167.2 343.39,-164.1"/>
</a>
</g>
<text text-anchor="middle" x="360.5" y="-144.8" font-family="Times,serif" font-size="14.00">2</text>
</g>
<!-- !p14 -->
<g id="node15" class="node">
<title>!p14</title>
<ellipse fill="none" stroke="black" cx="311" cy="-279" rx="27" ry="18"/>
<text text-anchor="middle" x="311" y="-275.3" font-family="Times,serif" font-size="14.00">!p</text>
</g>
<!-- !d13&#45;&gt;!p14 -->
<g id="edge45" class="edge">
<title>!d13&#45;&gt;!p14</title>
<g id="a_edge45"><a xlink:title="yBf56">
<path fill="none" stroke="blue" d="M379.13,-133.43C380.5,-155.03 379.96,-185.49 370,-210 360.99,-232.15 341.68,-252.12 327.59,-264.59"/>
<polygon fill="blue" stroke="blue" points="382.6,-132.99 378.31,-123.31 375.63,-133.56 382.6,-132.99"/>
</a>
</g>
<text text-anchor="middle" x="381.5" y="-188.3" font-family="Times,serif" font-size="14.00">1</text>
</g>
<!-- !p14&#45;&gt;I12 -->
<g id="edge23" class="edge">
<title>!p14&#45;&gt;I12</title>
<g id="a_edge23"><a xlink:title="newrretf57">
<path fill="none" stroke="red" d="M315.54,-261.21C318.76,-249.33 323.13,-233.17 326.81,-219.56"/>
<polygon fill="red" stroke="red" points="330.23,-220.33 329.47,-209.76 323.47,-218.5 330.23,-220.33"/>
</a>
</g>
<text text-anchor="middle" x="326.5" y="-231.8" font-family="Times,serif" font-size="14.00">2</text>
</g>
<!-- !c20 -->
<g id="node21" class="node">
<title>!c20</title>
<ellipse fill="none" stroke="black" cx="224" cy="-18" rx="27" ry="18"/>
<text text-anchor="middle" x="224" y="-14.3" font-family="Times,serif" font-size="14.00">!c</text>
</g>
<!-- !p14&#45;&gt;!c20 -->
<g id="edge44" class="edge">
<title>!p14&#45;&gt;!c20</title>
<g id="a_edge44"><a xlink:title="yB44">
<path fill="none" stroke="blue" d="M305.77,-250.83C298.08,-213.23 282.19,-143.56 260,-87 254.21,-72.24 246.04,-56.54 238.95,-43.95"/>
<polygon fill="blue" stroke="blue" points="302.41,-251.87 307.81,-260.99 309.27,-250.49 302.41,-251.87"/>
<polygon fill="blue" stroke="blue" points="236.83,-33.25 238.79,-43.66 230.77,-36.74 236.83,-33.25"/>
</a>
</g>
<text text-anchor="middle" x="285.5" y="-144.8" font-family="Times,serif" font-size="14.00">1</text>
</g>
<!-- I15 -->
<g id="node16" class="node">
<title>I15</title>
<ellipse fill="none" stroke="black" cx="247" cy="-453" rx="27" ry="18"/>
<text text-anchor="middle" x="247" y="-449.3" font-family="Times,serif" font-size="14.00">I</text>
</g>
<!-- @16 -->
<g id="node17" class="node">
<title>@16</title>
<ellipse fill="none" stroke="black" cx="302" cy="-366" rx="27" ry="18"/>
<text text-anchor="middle" x="302" y="-362.3" font-family="Times,serif" font-size="14.00">@</text>
</g>
<!-- I15&#45;&gt;@16 -->
<g id="edge8" class="edge">
<title>I15&#45;&gt;@16</title>
<g id="a_edge8"><a xlink:title="lret53">
<path fill="none" stroke="blue" d="M262.8,-427.59C272.09,-413.23 283.57,-395.48 291.7,-382.92"/>
<polygon fill="blue" stroke="blue" points="259.84,-425.72 257.35,-436.01 265.72,-429.52 259.84,-425.72"/>
</a>
</g>
</g>
<!-- @16&#45;&gt;!p14 -->
<g id="edge18" class="edge">
<title>@16&#45;&gt;!p14</title>
<g id="a_edge18"><a xlink:title="newrret52">
<path fill="none" stroke="red" d="M303.82,-347.8C305.05,-336.16 306.71,-320.55 308.12,-307.24"/>
<polygon fill="red" stroke="red" points="311.61,-307.49 309.18,-297.18 304.65,-306.75 311.61,-307.49"/>
</a>
</g>
<text text-anchor="middle" x="310.5" y="-318.8" font-family="Times,serif" font-size="14.00">1</text>
</g>
<!-- Cut19 -->
<g id="node20" class="node">
<title>Cut19</title>
<ellipse fill="none" stroke="black" cx="224" cy="-279" rx="27" ry="18"/>
<text text-anchor="middle" x="224" y="-275.3" font-family="Times,serif" font-size="14.00">Cut</text>
</g>
<!-- @16&#45;&gt;Cut19 -->
<g id="edge14" class="edge">
<title>@16&#45;&gt;Cut19</title>
<g id="a_edge14"><a xlink:title="lval48">
<path fill="none" stroke="blue" d="M281.56,-342.72C267.62,-327.54 249.57,-307.87 237.43,-294.64"/>
<polygon fill="blue" stroke="blue" points="279.07,-345.19 288.41,-350.19 284.23,-340.46 279.07,-345.19"/>
</a>
</g>
</g>
<!-- I17 -->
<g id="node18" class="node">
<title>I17</title>
<ellipse fill="none" stroke="black" cx="224" cy="-192" rx="27" ry="18"/>
<text text-anchor="middle" x="224" y="-188.3" font-family="Times,serif" font-size="14.00">I</text>
</g>
<!-- !d18 -->
<g id="node19" class="node">
<title>!d18</title>
<ellipse fill="none" stroke="black" cx="224" cy="-105" rx="27" ry="18"/>
<text text-anchor="middle" x="224" y="-101.3" font-family="Times,serif" font-size="14.00">!d</text>
</g>
<!-- I17&#45;&gt;!d18 -->
<g id="edge46" class="edge">
<title>I17&#45;&gt;!d18</title>
<g id="a_edge46"><a xlink:title="yret51">
<path fill="none" stroke="blue" d="M224,-163.73C224,-150.42 224,-134.81 224,-123.18"/>
<polygon fill="blue" stroke="blue" points="220.5,-163.8 224,-173.8 227.5,-163.8 220.5,-163.8"/>
</a>
</g>
<text text-anchor="middle" x="227.5" y="-144.8" font-family="Times,serif" font-size="14.00">1</text>
</g>
<!-- !d18&#45;&gt;!c20 -->
<g id="edge43" class="edge">
<title>!d18&#45;&gt;!c20</title>
<g id="a_edge43"><a xlink:title="yA43">
<path fill="none" stroke="blue" d="M224,-76.73C224,-63.42 224,-47.81 224,-36.18"/>
<polygon fill="blue" stroke="blue" points="220.5,-76.8 224,-86.8 227.5,-76.8 220.5,-76.8"/>
</a>
</g>
<text text-anchor="middle" x="227.5" y="-57.8" font-family="Times,serif" font-size="14.00">1</text>
</g>
<!-- Cut19&#45;&gt;I17 -->
<g id="edge33" class="edge">
<title>Cut19&#45;&gt;I17</title>
<g id="a_edge33"><a xlink:title="rval49">
<path fill="none" stroke="red" d="M224,-260.8C224,-249.16 224,-233.55 224,-220.24"/>
<polygon fill="red" stroke="red" points="227.5,-220.18 224,-210.18 220.5,-220.18 227.5,-220.18"/>
</a>
</g>
</g>
<!-- λ21 -->
<g id="node22" class="node">
<title>λ21</title>
<ellipse fill="none" stroke="black" cx="247" cy="-540" rx="27" ry="18"/>
<text text-anchor="middle" x="247" y="-536.3" font-family="Times,serif" font-size="14.00">λ</text>
</g>
<!-- !c20&#45;&gt;λ21 -->
<g id="edge42" class="edge">
<title>!c20&#45;&gt;λ21</title>
<g id="a_edge42"><a xlink:title="y41">
<path fill="none" stroke="blue" d="M200.93,-39.78C185.87,-55.69 169,-79.08 169,-104 169,-454 169,-454 169,-454 169,-488.05 203.4,-514.36 226.51,-528.19"/>
<polygon fill="blue" stroke="blue" points="203.51,-42.14 208.09,-32.59 198.55,-37.2 203.51,-42.14"/>
</a>
</g>
</g>
<!-- λ21&#45;&gt;I15 -->
<g id="edge28" class="edge">
<title>λ21&#45;&gt;I15</title>
<g id="a_edge28"><a xlink:title="ret42">
<path fill="none" stroke="red" d="M247,-521.8C247,-510.16 247,-494.55 247,-481.24"/>
<polygon fill="red" stroke="red" points="250.5,-481.18 247,-471.18 243.5,-481.18 250.5,-481.18"/>
</a>
</g>
</g>
<!-- Cut22&#45;&gt;λ21 -->
<g id="edge32" class="edge">
<title>Cut22&#45;&gt;λ21</title>
<g id="a_edge32"><a xlink:title="rval39">
<path fill="none" stroke="red" d="M247,-608.8C247,-597.16 247,-581.55 247,-568.24"/>
<polygon fill="red" stroke="red" points="250.5,-568.18 247,-558.18 243.5,-568.18 250.5,-568.18"/>
</a>
</g>
</g>
<!-- λ23&#45;&gt;I10 -->
<g id="edge27" class="edge">
<title>λ23&#45;&gt;I10</title>
<g id="a_edge27"><a xlink:title="ret35">
<path fill="none" stroke="red" d="M302,-855.8C302,-844.16 302,-828.55 302,-815.24"/>
<polygon fill="red" stroke="red" points="305.5,-815.18 302,-805.18 298.5,-815.18 305.5,-815.18"/>
</a>
</g>
</g>
<!-- !p24 -->
<g id="node25" class="node">
<title>!p24</title>
<ellipse fill="none" stroke="black" cx="323" cy="-961" rx="27" ry="18"/>
<text text-anchor="middle" x="323" y="-957.3" font-family="Times,serif" font-size="14.00">!p</text>
</g>
<!-- !p24&#45;&gt;λ23 -->
<g id="edge22" class="edge">
<title>!p24&#45;&gt;λ23</title>
<g id="a_edge22"><a xlink:title="newrretf31">
<path fill="none" stroke="red" d="M318.85,-943.21C315.94,-931.41 311.98,-915.38 308.63,-901.82"/>
<polygon fill="red" stroke="red" points="312.01,-900.92 306.21,-892.05 305.21,-902.6 312.01,-900.92"/>
</a>
</g>
<text text-anchor="middle" x="316.5" y="-913.8" font-family="Times,serif" font-size="14.00">1</text>
</g>
<!-- I25 -->
<g id="node26" class="node">
<title>I25</title>
<ellipse fill="none" stroke="black" cx="327" cy="-1135" rx="27" ry="18"/>
<text text-anchor="middle" x="327" y="-1131.3" font-family="Times,serif" font-size="14.00">I</text>
</g>
<!-- @26 -->
<g id="node27" class="node">
<title>@26</title>
<ellipse fill="none" stroke="black" cx="326" cy="-1048" rx="27" ry="18"/>
<text text-anchor="middle" x="326" y="-1044.3" font-family="Times,serif" font-size="14.00">@</text>
</g>
<!-- I25&#45;&gt;@26 -->
<g id="edge7" class="edge">
<title>I25&#45;&gt;@26</title>
<g id="a_edge7"><a xlink:title="lret28">
<path fill="none" stroke="blue" d="M326.68,-1106.73C326.52,-1093.42 326.34,-1077.81 326.2,-1066.18"/>
<polygon fill="blue" stroke="blue" points="323.18,-1106.84 326.8,-1116.8 330.18,-1106.76 323.18,-1106.84"/>
</a>
</g>
</g>
<!-- @26&#45;&gt;!p24 -->
<g id="edge17" class="edge">
<title>@26&#45;&gt;!p24</title>
<g id="a_edge17"><a xlink:title="newrret27">
<path fill="none" stroke="red" d="M325.39,-1029.8C324.98,-1018.16 324.43,-1002.55 323.96,-989.24"/>
<polygon fill="red" stroke="red" points="327.46,-989.05 323.61,-979.18 320.46,-989.29 327.46,-989.05"/>
</a>
</g>
<text text-anchor="middle" x="327.5" y="-1000.8" font-family="Times,serif" font-size="14.00">0</text>
</g>
<!-- Cut37 -->
<g id="node38" class="node">
<title>Cut37</title>
<ellipse fill="none" stroke="black" cx="403" cy="-961" rx="27" ry="18"/>
<text text-anchor="middle" x="403" y="-957.3" font-family="Times,serif" font-size="14.00">Cut</text>
</g>
<!-- @26&#45;&gt;Cut37 -->
<g id="edge13" class="edge">
<title>@26&#45;&gt;Cut37</title>
<g id="a_edge13"><a xlink:title="lval4">
<path fill="none" stroke="blue" d="M346.14,-1024.77C359.8,-1009.69 377.49,-990.16 389.48,-976.92"/>
<polygon fill="blue" stroke="blue" points="343.53,-1022.43 339.41,-1032.19 348.72,-1027.13 343.53,-1022.43"/>
</a>
</g>
</g>
<!-- I27 -->
<g id="node28" class="node">
<title>I27</title>
<ellipse fill="none" stroke="black" cx="455" cy="-540" rx="27" ry="18"/>
<text text-anchor="middle" x="455" y="-536.3" font-family="Times,serif" font-size="14.00">I</text>
</g>
<!-- !d28 -->
<g id="node29" class="node">
<title>!d28</title>
<ellipse fill="none" stroke="black" cx="429" cy="-453" rx="27" ry="18"/>
<text text-anchor="middle" x="429" y="-449.3" font-family="Times,serif" font-size="14.00">!d</text>
</g>
<!-- I27&#45;&gt;!d28 -->
<g id="edge41" class="edge">
<title>I27&#45;&gt;!d28</title>
<g id="a_edge41"><a xlink:title="xret26">
<path fill="none" stroke="blue" d="M446.86,-512.4C442.7,-498.79 437.76,-482.62 434.13,-470.76"/>
<polygon fill="blue" stroke="blue" points="443.59,-513.67 449.86,-522.21 450.29,-511.62 443.59,-513.67"/>
</a>
</g>
<text text-anchor="middle" x="446.5" y="-492.8" font-family="Times,serif" font-size="14.00">1</text>
</g>
<!-- !p29 -->
<g id="node30" class="node">
<title>!p29</title>
<ellipse fill="none" stroke="black" cx="455" cy="-627" rx="27" ry="18"/>
<text text-anchor="middle" x="455" y="-623.3" font-family="Times,serif" font-size="14.00">!p</text>
</g>
<!-- !d28&#45;&gt;!p29 -->
<g id="edge39" class="edge">
<title>!d28&#45;&gt;!p29</title>
<g id="a_edge39"><a xlink:title="xBf22">
<path fill="none" stroke="blue" d="M418.43,-480.11C411.31,-501.37 404.48,-532.03 412,-558 417.83,-578.12 431.59,-598.01 441.99,-611.03"/>
<polygon fill="blue" stroke="blue" points="421.8,-481.08 421.88,-470.48 415.21,-478.71 421.8,-481.08"/>
</a>
</g>
<text text-anchor="middle" x="415.5" y="-536.3" font-family="Times,serif" font-size="14.00">0</text>
</g>
<!-- !p29&#45;&gt;I27 -->
<g id="edge21" class="edge">
<title>!p29&#45;&gt;I27</title>
<g id="a_edge21"><a xlink:title="newrretf23">
<path fill="none" stroke="red" d="M455,-608.8C455,-597.16 455,-581.55 455,-568.24"/>
<polygon fill="red" stroke="red" points="458.5,-568.18 455,-558.18 451.5,-568.18 458.5,-568.18"/>
</a>
</g>
<text text-anchor="middle" x="458.5" y="-579.8" font-family="Times,serif" font-size="14.00">1</text>
</g>
<!-- !c35 -->
<g id="node36" class="node">
<title>!c35</title>
<ellipse fill="none" stroke="black" cx="510" cy="-366" rx="27" ry="18"/>
<text text-anchor="middle" x="510" y="-362.3" font-family="Times,serif" font-size="14.00">!c</text>
</g>
<!-- !p29&#45;&gt;!c35 -->
<g id="edge38" class="edge">
<title>!p29&#45;&gt;!c35</title>
<g id="a_edge38"><a xlink:title="xB10">
<path fill="none" stroke="blue" d="M471,-601.41C478.34,-588.91 486.42,-573.18 491,-558 508.04,-501.52 510.6,-431.82 510.56,-394.19"/>
<polygon fill="blue" stroke="blue" points="467.81,-599.92 465.6,-610.28 473.79,-603.56 467.81,-599.92"/>
<polygon fill="blue" stroke="blue" points="513.98,-384 510.55,-394.03 506.98,-384.06 513.98,-384"/>
</a>
</g>
<text text-anchor="middle" x="507.5" y="-492.8" font-family="Times,serif" font-size="14.00">0</text>
</g>
<!-- I30 -->
<g id="node31" class="node">
<title>I30</title>
<ellipse fill="none" stroke="black" cx="412" cy="-787" rx="27" ry="18"/>
<text text-anchor="middle" x="412" y="-783.3" font-family="Times,serif" font-size="14.00">I</text>
</g>
<!-- @31 -->
<g id="node32" class="node">
<title>@31</title>
<ellipse fill="none" stroke="black" cx="455" cy="-714" rx="27" ry="18"/>
<text text-anchor="middle" x="455" y="-710.3" font-family="Times,serif" font-size="14.00">@</text>
</g>
<!-- I30&#45;&gt;@31 -->
<g id="edge6" class="edge">
<title>I30&#45;&gt;@31</title>
<g id="a_edge6"><a xlink:title="lret19">
<path fill="none" stroke="blue" d="M427.04,-761.16C433.09,-751.17 439.9,-739.93 445.28,-731.05"/>
<polygon fill="blue" stroke="blue" points="423.94,-759.52 421.76,-769.89 429.93,-763.15 423.94,-759.52"/>
</a>
</g>
</g>
<!-- @31&#45;&gt;!p29 -->
<g id="edge16" class="edge">
<title>@31&#45;&gt;!p29</title>
<g id="a_edge16"><a xlink:title="newrret18">
<path fill="none" stroke="red" d="M455,-695.8C455,-684.16 455,-668.55 455,-655.24"/>
<polygon fill="red" stroke="red" points="458.5,-655.18 455,-645.18 451.5,-655.18 458.5,-655.18"/>
</a>
</g>
<text text-anchor="middle" x="458.5" y="-666.8" font-family="Times,serif" font-size="14.00">0</text>
</g>
<!-- Cut34 -->
<g id="node35" class="node">
<title>Cut34</title>
<ellipse fill="none" stroke="black" cx="565" cy="-627" rx="27" ry="18"/>
<text text-anchor="middle" x="565" y="-623.3" font-family="Times,serif" font-size="14.00">Cut</text>
</g>
<!-- @31&#45;&gt;Cut34 -->
<g id="edge11" class="edge">
<title>@31&#45;&gt;Cut34</title>
<g id="a_edge11"><a xlink:title="lval14">
<path fill="none" stroke="blue" d="M480.25,-693.49C501,-677.46 529.82,-655.19 547.93,-641.19"/>
<polygon fill="blue" stroke="blue" points="477.96,-690.83 472.19,-699.72 482.24,-696.37 477.96,-690.83"/>
</a>
</g>
</g>
<!-- I32 -->
<g id="node33" class="node">
<title>I32</title>
<ellipse fill="none" stroke="black" cx="565" cy="-540" rx="27" ry="18"/>
<text text-anchor="middle" x="565" y="-536.3" font-family="Times,serif" font-size="14.00">I</text>
</g>
<!-- !d33 -->
<g id="node34" class="node">
<title>!d33</title>
<ellipse fill="none" stroke="black" cx="565" cy="-453" rx="27" ry="18"/>
<text text-anchor="middle" x="565" y="-449.3" font-family="Times,serif" font-size="14.00">!d</text>
</g>
<!-- I32&#45;&gt;!d33 -->
<g id="edge40" class="edge">
<title>I32&#45;&gt;!d33</title>
<g id="a_edge40"><a xlink:title="xret17">
<path fill="none" stroke="blue" d="M565,-511.73C565,-498.42 565,-482.81 565,-471.18"/>
<polygon fill="blue" stroke="blue" points="561.5,-511.8 565,-521.8 568.5,-511.8 561.5,-511.8"/>
</a>
</g>
<text text-anchor="middle" x="568.5" y="-492.8" font-family="Times,serif" font-size="14.00">0</text>
</g>
<!-- !d33&#45;&gt;!c35 -->
<g id="edge37" class="edge">
<title>!d33&#45;&gt;!c35</title>
<g id="a_edge37"><a xlink:title="xA9">
<path fill="none" stroke="blue" d="M549.2,-427.59C539.91,-413.23 528.43,-395.48 520.3,-382.92"/>
<polygon fill="blue" stroke="blue" points="546.28,-429.52 554.65,-436.01 552.16,-425.72 546.28,-429.52"/>
</a>
</g>
<text text-anchor="middle" x="543.5" y="-405.8" font-family="Times,serif" font-size="14.00">0</text>
</g>
<!-- Cut34&#45;&gt;I32 -->
<g id="edge31" class="edge">
<title>Cut34&#45;&gt;I32</title>
<g id="a_edge31"><a xlink:title="rval15">
<path fill="none" stroke="red" d="M565,-608.8C565,-597.16 565,-581.55 565,-568.24"/>
<polygon fill="red" stroke="red" points="568.5,-568.18 565,-558.18 561.5,-568.18 568.5,-568.18"/>
</a>
</g>
</g>
<!-- λ36 -->
<g id="node37" class="node">
<title>λ36</title>
<ellipse fill="none" stroke="black" cx="403" cy="-874" rx="27" ry="18"/>
<text text-anchor="middle" x="403" y="-870.3" font-family="Times,serif" font-size="14.00">λ</text>
</g>
<!-- !c35&#45;&gt;λ36 -->
<g id="edge36" class="edge">
<title>!c35&#45;&gt;λ36</title>
<g id="a_edge36"><a xlink:title="x7">
<path fill="none" stroke="blue" d="M473.29,-371.25C428.02,-378.76 357,-399 357,-452 357,-788 357,-788 357,-788 357,-815.35 375.65,-842.33 389.2,-858.33"/>
<polygon fill="blue" stroke="blue" points="473.99,-374.68 483.35,-369.71 472.94,-367.76 473.99,-374.68"/>
</a>
</g>
</g>
<!-- λ36&#45;&gt;I30 -->
<g id="edge29" class="edge">
<title>λ36&#45;&gt;I30</title>
<g id="a_edge29"><a xlink:title="ret8">
<path fill="none" stroke="red" d="M404.82,-855.8C406.05,-844.16 407.71,-828.55 409.12,-815.24"/>
<polygon fill="red" stroke="red" points="412.61,-815.49 410.18,-805.18 405.65,-814.75 412.61,-815.49"/>
</a>
</g>
</g>
<!-- Cut37&#45;&gt;λ36 -->
<g id="edge34" class="edge">
<title>Cut37&#45;&gt;λ36</title>
<g id="a_edge34"><a xlink:title="rval5">
<path fill="none" stroke="red" d="M403,-942.8C403,-931.16 403,-915.55 403,-902.24"/>
<polygon fill="red" stroke="red" points="406.5,-902.18 403,-892.18 399.5,-902.18 406.5,-902.18"/>
</a>
</g>
</g>
<!-- Assign38 -->
<g id="node39" class="node">
<title>Assign38</title>
<ellipse fill="none" stroke="black" cx="327" cy="-1231.4" rx="35.19" ry="18"/>
<text text-anchor="middle" x="327" y="-1227.7" font-family="Times,serif" font-size="14.00">Assign</text>
</g>
<!-- Assign38&#45;&gt;I25 -->
<g id="edge26" class="edge">
<title>Assign38&#45;&gt;I25</title>
<g id="a_edge26"><a xlink:title="ret1">
<path fill="none" stroke="red" d="M327,-1213.08C327,-1199.25 327,-1179.58 327,-1163.58"/>
<polygon fill="red" stroke="red" points="330.5,-1163.2 327,-1153.2 323.5,-1163.2 330.5,-1163.2"/>
</a>
</g>
</g>
</g>
</svg>
