<?xml version="1.0" encoding="UTF-8" standalone="no"?>
<!DOCTYPE svg PUBLIC "-//W3C//DTD SVG 1.1//EN"
 "http://www.w3.org/Graphics/SVG/1.1/DTD/svg11.dtd">
<!-- Generated by graphviz version 2.43.0 (0)
 -->
<!-- Title: %3 Pages: 1 -->
<svg width="606pt" height="1272pt"
 viewBox="0.00 0.00 606.39 1272.00" xmlns="http://www.w3.org/2000/svg" xmlns:xlink="http://www.w3.org/1999/xlink">
<g id="graph0" class="graph" transform="scale(1 1) rotate(0) translate(4 1268)">
<title>%3</title>
<polygon fill="white" stroke="transparent" points="-4,4 -4,-1268 602.39,-1268 602.39,4 -4,4"/>
<!-- Identity0 -->
<g id="node1" class="node">
<title>Identity0</title>
<ellipse fill="none" stroke="black" cx="44.2" cy="-1246" rx="44.39" ry="18"/>
<text text-anchor="middle" x="44.2" y="-1242.3" font-family="Times-Roman" font-size="14.00">Identity</text>
</g>
<!-- BangD1 -->
<g id="node2" class="node">
<title>BangD1</title>
<ellipse fill="none" stroke="black" cx="44.2" cy="-1159" rx="39.79" ry="18"/>
<text text-anchor="middle" x="44.2" y="-1155.3" font-family="Times-Roman" font-size="14.00">BangD</text>
</g>
<!-- BangD1&#45;&gt;Identity0 -->
<g id="edge27" class="edge">
<title>BangD1&#45;&gt;Identity0</title>
<g id="a_edge27"><a xlink:title="iret84">
<path fill="none" stroke="blue" d="M26.24,-1175.38C21.01,-1180.97 15.96,-1187.71 13.2,-1195 9.67,-1204.31 13.32,-1213.78 19.2,-1221.94"/>
<polygon fill="blue" stroke="blue" points="16.53,-1224.2 25.64,-1229.6 21.89,-1219.69 16.53,-1224.2"/>
</a>
</g>
<text text-anchor="middle" x="17.7" y="-1198.8" font-family="Times-Roman" font-size="14.00">3</text>
</g>
<!-- BangD1&#45;&gt;Identity0 -->
<g id="edge28" class="edge">
<title>BangD1&#45;&gt;Identity0</title>
<g id="a_edge28"><a xlink:title="iseq83">
<path fill="none" stroke="black" d="M44.2,-1177.2C44.2,-1188.83 44.2,-1204.45 44.2,-1217.76"/>
<polygon fill="black" stroke="black" points="40.7,-1217.82 44.2,-1227.82 47.7,-1217.82 40.7,-1217.82"/>
</a>
</g>
<text text-anchor="middle" x="48.7" y="-1198.8" font-family="Times-Roman" font-size="14.00">3</text>
</g>
<!-- PiR2 -->
<g id="node3" class="node">
<title>PiR2</title>
<ellipse fill="none" stroke="black" cx="44.2" cy="-1072" rx="27" ry="18"/>
<text text-anchor="middle" x="44.2" y="-1068.3" font-family="Times-Roman" font-size="14.00">PiR</text>
</g>
<!-- PiR2&#45;&gt;Identity0 -->
<g id="edge51" class="edge">
<title>PiR2&#45;&gt;Identity0</title>
<g id="a_edge51"><a xlink:title="ret82">
<path fill="none" stroke="red" d="M58.76,-1087.38C70.61,-1100.18 86.45,-1120.09 93.2,-1141 98.11,-1156.22 98.11,-1161.77 93.2,-1177 87.93,-1193.31 77.13,-1209.01 67.01,-1221.21"/>
<polygon fill="red" stroke="red" points="64.11,-1219.21 60.19,-1229.05 69.39,-1223.8 64.11,-1219.21"/>
</a>
</g>
</g>
<!-- PiR2&#45;&gt;BangD1 -->
<g id="edge22" class="edge">
<title>PiR2&#45;&gt;BangD1</title>
<g id="a_edge22"><a xlink:title="i81">
<path fill="none" stroke="blue" d="M27.88,-1086.68C22.09,-1092.57 16.25,-1099.95 13.2,-1108 9.67,-1117.31 13.32,-1126.78 19.2,-1134.94"/>
<polygon fill="blue" stroke="blue" points="16.53,-1137.2 25.64,-1142.6 21.89,-1132.69 16.53,-1137.2"/>
</a>
</g>
<text text-anchor="middle" x="17.7" y="-1111.8" font-family="Times-Roman" font-size="14.00">3</text>
</g>
<!-- PiR2&#45;&gt;BangD1 -->
<g id="edge61" class="edge">
<title>PiR2&#45;&gt;BangD1</title>
<g id="a_edge61"><a xlink:title="seq80">
<path fill="none" stroke="black" d="M44.2,-1090.2C44.2,-1101.83 44.2,-1117.45 44.2,-1130.76"/>
<polygon fill="black" stroke="black" points="40.7,-1130.82 44.2,-1140.82 47.7,-1130.82 40.7,-1130.82"/>
</a>
</g>
<text text-anchor="middle" x="48.7" y="-1111.8" font-family="Times-Roman" font-size="14.00">3</text>
</g>
<!-- Bang3 -->
<g id="node4" class="node">
<title>Bang3</title>
<ellipse fill="none" stroke="black" cx="44.2" cy="-985" rx="32.49" ry="18"/>
<text text-anchor="middle" x="44.2" y="-981.3" font-family="Times-Roman" font-size="14.00">Bang</text>
</g>
<!-- Bang3&#45;&gt;PiR2 -->
<g id="edge4" class="edge">
<title>Bang3&#45;&gt;PiR2</title>
<g id="a_edge4"><a xlink:title="c_bseq79">
<path fill="none" stroke="black" d="M44.2,-1003.2C44.2,-1014.83 44.2,-1030.45 44.2,-1043.76"/>
<polygon fill="black" stroke="black" points="40.7,-1043.82 44.2,-1053.82 47.7,-1043.82 40.7,-1043.82"/>
</a>
</g>
<text text-anchor="middle" x="48.7" y="-1024.8" font-family="Times-Roman" font-size="14.00">3</text>
</g>
<!-- Bang3&#45;&gt;PiR2 -->
<g id="edge43" class="edge">
<title>Bang3&#45;&gt;PiR2</title>
<g id="a_edge43"><a xlink:title="newrretf78">
<path fill="none" stroke="red" d="M36.6,-1002.74C34.4,-1008.42 32.3,-1014.87 31.2,-1021 29.78,-1028.85 30.93,-1037.29 33.01,-1044.95"/>
<polygon fill="red" stroke="red" points="29.7,-1046.08 36.17,-1054.47 36.34,-1043.88 29.7,-1046.08"/>
</a>
</g>
<text text-anchor="middle" x="35.7" y="-1024.8" font-family="Times-Roman" font-size="14.00">3</text>
</g>
<!-- Identity4 -->
<g id="node5" class="node">
<title>Identity4</title>
<ellipse fill="none" stroke="black" cx="139.2" cy="-985" rx="44.39" ry="18"/>
<text text-anchor="middle" x="139.2" y="-981.3" font-family="Times-Roman" font-size="14.00">Identity</text>
</g>
<!-- PiL5 -->
<g id="node6" class="node">
<title>PiL5</title>
<ellipse fill="none" stroke="black" cx="122.2" cy="-898" rx="27" ry="18"/>
<text text-anchor="middle" x="122.2" y="-894.3" font-family="Times-Roman" font-size="14.00">PiL</text>
</g>
<!-- PiL5&#45;&gt;Bang3 -->
<g id="edge13" class="edge">
<title>PiL5&#45;&gt;Bang3</title>
<g id="a_edge13"><a xlink:title="dseq76">
<path fill="none" stroke="black" d="M111.32,-914.96C104.11,-925.12 94.16,-938.31 84.2,-949 79.73,-953.78 74.68,-958.59 69.7,-963.06"/>
<polygon fill="black" stroke="black" points="67.27,-960.53 62.03,-969.73 71.87,-965.81 67.27,-960.53"/>
</a>
</g>
<text text-anchor="middle" x="101.7" y="-937.8" font-family="Times-Roman" font-size="14.00">2</text>
</g>
<!-- PiL5&#45;&gt;Bang3 -->
<g id="edge38" class="edge">
<title>PiL5&#45;&gt;Bang3</title>
<g id="a_edge38"><a xlink:title="newrret74">
<path fill="none" stroke="red" d="M103.03,-910.83C93.94,-917.03 83.32,-925.15 75.2,-934 68.57,-941.21 62.56,-950.04 57.63,-958.25"/>
<polygon fill="red" stroke="red" points="54.47,-956.74 52.55,-967.16 60.55,-960.2 54.47,-956.74"/>
</a>
</g>
<text text-anchor="middle" x="79.7" y="-937.8" font-family="Times-Roman" font-size="14.00">2</text>
</g>
<!-- PiL5&#45;&gt;Identity4 -->
<g id="edge26" class="edge">
<title>PiL5&#45;&gt;Identity4</title>
<g id="a_edge26"><a xlink:title="idseq77">
<path fill="none" stroke="black" d="M121.31,-926.33C122.76,-936.28 125.02,-947.51 127.57,-957.4"/>
<polygon fill="black" stroke="black" points="123.56,-915.78 121.29,-926.12 116.61,-916.62 123.56,-915.78"/>
<polygon fill="black" stroke="black" points="124.22,-958.44 130.31,-967.11 130.96,-956.54 124.22,-958.44"/>
</a>
</g>
</g>
<!-- PiL5&#45;&gt;Identity4 -->
<g id="edge32" class="edge">
<title>PiL5&#45;&gt;Identity4</title>
<g id="a_edge32"><a xlink:title="lret75">
<path fill="none" stroke="blue" d="M130.93,-915.38C134.6,-927.03 138.08,-942.95 140.06,-956.53"/>
<polygon fill="blue" stroke="blue" points="136.63,-957.27 141.3,-966.78 143.58,-956.43 136.63,-957.27"/>
</a>
</g>
</g>
<!-- Identity6 -->
<g id="node7" class="node">
<title>Identity6</title>
<ellipse fill="none" stroke="black" cx="245.2" cy="-985" rx="44.39" ry="18"/>
<text text-anchor="middle" x="245.2" y="-981.3" font-family="Times-Roman" font-size="14.00">Identity</text>
</g>
<!-- BangD7 -->
<g id="node8" class="node">
<title>BangD7</title>
<ellipse fill="none" stroke="black" cx="245.2" cy="-898" rx="39.79" ry="18"/>
<text text-anchor="middle" x="245.2" y="-894.3" font-family="Times-Roman" font-size="14.00">BangD</text>
</g>
<!-- BangD7&#45;&gt;Identity6 -->
<g id="edge20" class="edge">
<title>BangD7&#45;&gt;Identity6</title>
<g id="a_edge20"><a xlink:title="hret73">
<path fill="none" stroke="blue" d="M227.24,-914.38C222.01,-919.97 216.96,-926.71 214.2,-934 210.67,-943.31 214.32,-952.78 220.2,-960.94"/>
<polygon fill="blue" stroke="blue" points="217.53,-963.2 226.64,-968.6 222.89,-958.69 217.53,-963.2"/>
</a>
</g>
<text text-anchor="middle" x="218.7" y="-937.8" font-family="Times-Roman" font-size="14.00">2</text>
</g>
<!-- BangD7&#45;&gt;Identity6 -->
<g id="edge21" class="edge">
<title>BangD7&#45;&gt;Identity6</title>
<g id="a_edge21"><a xlink:title="hseq72">
<path fill="none" stroke="black" d="M245.2,-916.2C245.2,-927.83 245.2,-943.45 245.2,-956.76"/>
<polygon fill="black" stroke="black" points="241.7,-956.82 245.2,-966.82 248.7,-956.82 241.7,-956.82"/>
</a>
</g>
<text text-anchor="middle" x="249.7" y="-937.8" font-family="Times-Roman" font-size="14.00">2</text>
</g>
<!-- Cut8 -->
<g id="node9" class="node">
<title>Cut8</title>
<ellipse fill="none" stroke="black" cx="182.2" cy="-811" rx="27" ry="18"/>
<text text-anchor="middle" x="182.2" y="-807.3" font-family="Times-Roman" font-size="14.00">Cut</text>
</g>
<!-- Cut8&#45;&gt;PiL5 -->
<g id="edge7" class="edge">
<title>Cut8&#45;&gt;PiL5</title>
<g id="a_edge7"><a xlink:title="c_lseq68">
<path fill="none" stroke="black" d="M160.67,-833.99C151.62,-845.51 141.55,-859.68 133.85,-871.66"/>
<polygon fill="black" stroke="black" points="169.84,-828.23 160.83,-833.8 164.4,-823.83 169.84,-828.23"/>
<polygon fill="black" stroke="black" points="130.78,-869.97 128.48,-880.31 136.73,-873.66 130.78,-869.97"/>
</a>
</g>
</g>
<!-- Cut8&#45;&gt;PiL5 -->
<g id="edge34" class="edge">
<title>Cut8&#45;&gt;PiL5</title>
<g id="a_edge34"><a xlink:title="lval70">
<path fill="none" stroke="blue" d="M175.85,-828.79C168.01,-841.97 155.14,-860.45 143.84,-874.84"/>
<polygon fill="blue" stroke="blue" points="140.99,-872.8 137.42,-882.78 146.43,-877.2 140.99,-872.8"/>
</a>
</g>
</g>
<!-- Cut8&#45;&gt;Identity6 -->
<g id="edge54" class="edge">
<title>Cut8&#45;&gt;Identity6</title>
<g id="a_edge54"><a xlink:title="rval71">
<path fill="none" stroke="red" d="M181.54,-829.15C181.31,-856.74 184.34,-911.66 209.2,-949 212.08,-953.33 215.58,-957.54 219.25,-961.46"/>
<polygon fill="red" stroke="red" points="216.84,-964 226.39,-968.58 221.78,-959.04 216.84,-964"/>
</a>
</g>
</g>
<!-- Cut8&#45;&gt;BangD7 -->
<g id="edge9" class="edge">
<title>Cut8&#45;&gt;BangD7</title>
<g id="a_edge9"><a xlink:title="c_rseq69">
<path fill="none" stroke="black" d="M193.75,-827.59C203.08,-840.17 216.36,-858.09 227.09,-872.57"/>
<polygon fill="black" stroke="black" points="224.3,-874.69 233.07,-880.63 229.93,-870.52 224.3,-874.69"/>
</a>
</g>
<text text-anchor="middle" x="222.7" y="-850.8" font-family="Times-Roman" font-size="14.00">2</text>
</g>
<!-- Bang9 -->
<g id="node10" class="node">
<title>Bang9</title>
<ellipse fill="none" stroke="black" cx="245.2" cy="-724" rx="32.49" ry="18"/>
<text text-anchor="middle" x="245.2" y="-720.3" font-family="Times-Roman" font-size="14.00">Bang</text>
</g>
<!-- Bang9&#45;&gt;Identity4 -->
<g id="edge42" class="edge">
<title>Bang9&#45;&gt;Identity4</title>
<g id="a_edge42"><a xlink:title="newrretf66">
<path fill="none" stroke="red" d="M222.63,-737.26C201.35,-749.53 169.37,-769.87 146.2,-793 94.41,-844.69 76.94,-862.54 61.2,-934 59.76,-940.51 57.57,-943.4 61.2,-949 65.6,-955.81 80.47,-963.18 96.06,-969.4"/>
<polygon fill="red" stroke="red" points="95.18,-972.81 105.77,-973.1 97.68,-966.27 95.18,-972.81"/>
</a>
</g>
<text text-anchor="middle" x="101.7" y="-850.8" font-family="Times-Roman" font-size="14.00">2</text>
</g>
<!-- Bang9&#45;&gt;BangD7 -->
<g id="edge19" class="edge">
<title>Bang9&#45;&gt;BangD7</title>
<g id="a_edge19"><a xlink:title="hf65">
<path fill="none" stroke="blue" d="M245.2,-742.12C245.2,-771.99 245.2,-833.88 245.2,-869.72"/>
<polygon fill="blue" stroke="blue" points="241.7,-869.94 245.2,-879.94 248.7,-869.94 241.7,-869.94"/>
</a>
</g>
<text text-anchor="middle" x="249.7" y="-807.3" font-family="Times-Roman" font-size="14.00">1</text>
</g>
<!-- Bang9&#45;&gt;Cut8 -->
<g id="edge3" class="edge">
<title>Bang9&#45;&gt;Cut8</title>
<g id="a_edge3"><a xlink:title="c_bseq67">
<path fill="none" stroke="black" d="M233.35,-740.98C223.81,-753.85 210.28,-772.11 199.53,-786.61"/>
<polygon fill="black" stroke="black" points="196.71,-784.53 193.57,-794.65 202.33,-788.7 196.71,-784.53"/>
</a>
</g>
<text text-anchor="middle" x="222.7" y="-763.8" font-family="Times-Roman" font-size="14.00">2</text>
</g>
<!-- Identity10 -->
<g id="node11" class="node">
<title>Identity10</title>
<ellipse fill="none" stroke="black" cx="428.2" cy="-637" rx="44.39" ry="18"/>
<text text-anchor="middle" x="428.2" y="-633.3" font-family="Times-Roman" font-size="14.00">Identity</text>
</g>
<!-- Identity11 -->
<g id="node12" class="node">
<title>Identity11</title>
<ellipse fill="none" stroke="black" cx="554.2" cy="-1159" rx="44.39" ry="18"/>
<text text-anchor="middle" x="554.2" y="-1155.3" font-family="Times-Roman" font-size="14.00">Identity</text>
</g>
<!-- BangD12 -->
<g id="node13" class="node">
<title>BangD12</title>
<ellipse fill="none" stroke="black" cx="554.2" cy="-1072" rx="39.79" ry="18"/>
<text text-anchor="middle" x="554.2" y="-1068.3" font-family="Times-Roman" font-size="14.00">BangD</text>
</g>
<!-- BangD12&#45;&gt;Identity11 -->
<g id="edge74" class="edge">
<title>BangD12&#45;&gt;Identity11</title>
<g id="a_edge74"><a xlink:title="yret60">
<path fill="none" stroke="blue" d="M560.05,-1089.88C561.74,-1095.56 563.35,-1101.99 564.2,-1108 565.25,-1115.5 564.48,-1123.58 562.98,-1131.01"/>
<polygon fill="blue" stroke="blue" points="559.53,-1130.41 560.51,-1140.96 566.32,-1132.1 559.53,-1130.41"/>
</a>
</g>
<text text-anchor="middle" x="568.7" y="-1111.8" font-family="Times-Roman" font-size="14.00">2</text>
</g>
<!-- BangD12&#45;&gt;Identity11 -->
<g id="edge76" class="edge">
<title>BangD12&#45;&gt;Identity11</title>
<g id="a_edge76"><a xlink:title="yseq59">
<path fill="none" stroke="black" d="M554.2,-1090.2C554.2,-1101.83 554.2,-1117.45 554.2,-1130.76"/>
<polygon fill="black" stroke="black" points="550.7,-1130.82 554.2,-1140.82 557.7,-1130.82 550.7,-1130.82"/>
</a>
</g>
<text text-anchor="middle" x="558.7" y="-1111.8" font-family="Times-Roman" font-size="14.00">2</text>
</g>
<!-- Bang13 -->
<g id="node14" class="node">
<title>Bang13</title>
<ellipse fill="none" stroke="black" cx="554.2" cy="-985" rx="32.49" ry="18"/>
<text text-anchor="middle" x="554.2" y="-981.3" font-family="Times-Roman" font-size="14.00">Bang</text>
</g>
<!-- Bang13&#45;&gt;Identity11 -->
<g id="edge41" class="edge">
<title>Bang13&#45;&gt;Identity11</title>
<g id="a_edge41"><a xlink:title="newrretf57">
<path fill="none" stroke="red" d="M536.46,-1000.33C522.53,-1012.83 504.19,-1032.3 496.2,-1054 490.66,-1069.01 490.66,-1074.98 496.2,-1090 502.64,-1107.48 515.8,-1123.52 527.96,-1135.63"/>
<polygon fill="red" stroke="red" points="525.67,-1138.28 535.33,-1142.64 530.49,-1133.21 525.67,-1138.28"/>
</a>
</g>
<text text-anchor="middle" x="500.7" y="-1068.3" font-family="Times-Roman" font-size="14.00">2</text>
</g>
<!-- Bang13&#45;&gt;BangD12 -->
<g id="edge2" class="edge">
<title>Bang13&#45;&gt;BangD12</title>
<g id="a_edge2"><a xlink:title="c_bseq58">
<path fill="none" stroke="black" d="M554.2,-1003.2C554.2,-1014.83 554.2,-1030.45 554.2,-1043.76"/>
<polygon fill="black" stroke="black" points="550.7,-1043.82 554.2,-1053.82 557.7,-1043.82 550.7,-1043.82"/>
</a>
</g>
<text text-anchor="middle" x="558.7" y="-1024.8" font-family="Times-Roman" font-size="14.00">2</text>
</g>
<!-- Bang13&#45;&gt;BangD12 -->
<g id="edge72" class="edge">
<title>Bang13&#45;&gt;BangD12</title>
<g id="a_edge72"><a xlink:title="yBf56">
<path fill="none" stroke="blue" d="M560.05,-1002.88C561.74,-1008.56 563.35,-1014.99 564.2,-1021 565.25,-1028.5 564.48,-1036.58 562.98,-1044.01"/>
<polygon fill="blue" stroke="blue" points="559.53,-1043.41 560.51,-1053.96 566.32,-1045.1 559.53,-1043.41"/>
</a>
</g>
<text text-anchor="middle" x="568.7" y="-1024.8" font-family="Times-Roman" font-size="14.00">1</text>
</g>
<!-- Identity14 -->
<g id="node15" class="node">
<title>Identity14</title>
<ellipse fill="none" stroke="black" cx="459.2" cy="-985" rx="44.39" ry="18"/>
<text text-anchor="middle" x="459.2" y="-981.3" font-family="Times-Roman" font-size="14.00">Identity</text>
</g>
<!-- PiL15 -->
<g id="node16" class="node">
<title>PiL15</title>
<ellipse fill="none" stroke="black" cx="465.2" cy="-898" rx="27" ry="18"/>
<text text-anchor="middle" x="465.2" y="-894.3" font-family="Times-Roman" font-size="14.00">PiL</text>
</g>
<!-- PiL15&#45;&gt;Bang13 -->
<g id="edge11" class="edge">
<title>PiL15&#45;&gt;Bang13</title>
<g id="a_edge11"><a xlink:title="dseq54">
<path fill="none" stroke="black" d="M474.97,-914.96C481.8,-925.37 491.58,-938.84 502.2,-949 508.64,-955.16 516.29,-960.96 523.7,-966"/>
<polygon fill="black" stroke="black" points="521.93,-969.03 532.22,-971.55 525.75,-963.16 521.93,-969.03"/>
</a>
</g>
<text text-anchor="middle" x="506.7" y="-937.8" font-family="Times-Roman" font-size="14.00">1</text>
</g>
<!-- PiL15&#45;&gt;Bang13 -->
<g id="edge36" class="edge">
<title>PiL15&#45;&gt;Bang13</title>
<g id="a_edge36"><a xlink:title="newrret52">
<path fill="none" stroke="red" d="M483.37,-911.46C492.13,-917.81 502.58,-925.88 511.2,-934 519.66,-941.97 528.17,-951.48 535.37,-960.06"/>
<polygon fill="red" stroke="red" points="532.77,-962.41 541.82,-967.92 538.18,-957.97 532.77,-962.41"/>
</a>
</g>
<text text-anchor="middle" x="528.7" y="-937.8" font-family="Times-Roman" font-size="14.00">1</text>
</g>
<!-- PiL15&#45;&gt;Identity14 -->
<g id="edge24" class="edge">
<title>PiL15&#45;&gt;Identity14</title>
<g id="a_edge24"><a xlink:title="idseq55">
<path fill="none" stroke="black" d="M456.97,-925.92C455.71,-935.79 454.92,-946.96 454.77,-956.84"/>
<polygon fill="black" stroke="black" points="461.97,-916.32 457,-925.67 455.05,-915.26 461.97,-916.32"/>
<polygon fill="black" stroke="black" points="451.27,-956.98 454.87,-966.95 458.27,-956.91 451.27,-956.98"/>
</a>
</g>
</g>
<!-- PiL15&#45;&gt;Identity14 -->
<g id="edge30" class="edge">
<title>PiL15&#45;&gt;Identity14</title>
<g id="a_edge30"><a xlink:title="lret53">
<path fill="none" stroke="blue" d="M469.51,-915.79C469.99,-927.47 469.16,-943.3 467.46,-956.77"/>
<polygon fill="blue" stroke="blue" points="463.96,-956.54 465.93,-966.95 470.88,-957.58 463.96,-956.54"/>
</a>
</g>
</g>
<!-- Identity16 -->
<g id="node17" class="node">
<title>Identity16</title>
<ellipse fill="none" stroke="black" cx="351.2" cy="-985" rx="44.39" ry="18"/>
<text text-anchor="middle" x="351.2" y="-981.3" font-family="Times-Roman" font-size="14.00">Identity</text>
</g>
<!-- BangD17 -->
<g id="node18" class="node">
<title>BangD17</title>
<ellipse fill="none" stroke="black" cx="342.2" cy="-898" rx="39.79" ry="18"/>
<text text-anchor="middle" x="342.2" y="-894.3" font-family="Times-Roman" font-size="14.00">BangD</text>
</g>
<!-- BangD17&#45;&gt;Identity16 -->
<g id="edge73" class="edge">
<title>BangD17&#45;&gt;Identity16</title>
<g id="a_edge73"><a xlink:title="yret51">
<path fill="none" stroke="blue" d="M348.05,-915.88C349.74,-921.56 351.35,-927.99 352.2,-934 353.22,-941.27 353.45,-949.21 353.31,-956.56"/>
<polygon fill="blue" stroke="blue" points="349.8,-956.65 352.88,-966.79 356.8,-956.95 349.8,-956.65"/>
</a>
</g>
<text text-anchor="middle" x="358.7" y="-937.8" font-family="Times-Roman" font-size="14.00">1</text>
</g>
<!-- BangD17&#45;&gt;Identity16 -->
<g id="edge75" class="edge">
<title>BangD17&#45;&gt;Identity16</title>
<g id="a_edge75"><a xlink:title="yseq50">
<path fill="none" stroke="black" d="M341.67,-916.18C341.6,-925.86 341.86,-938.14 343.2,-949 343.53,-951.69 343.98,-954.47 344.49,-957.25"/>
<polygon fill="black" stroke="black" points="341.07,-957.98 346.58,-967.03 347.92,-956.52 341.07,-957.98"/>
</a>
</g>
<text text-anchor="middle" x="347.7" y="-937.8" font-family="Times-Roman" font-size="14.00">1</text>
</g>
<!-- Cut18 -->
<g id="node19" class="node">
<title>Cut18</title>
<ellipse fill="none" stroke="black" cx="396.2" cy="-811" rx="27" ry="18"/>
<text text-anchor="middle" x="396.2" y="-807.3" font-family="Times-Roman" font-size="14.00">Cut</text>
</g>
<!-- Cut18&#45;&gt;PiL15 -->
<g id="edge6" class="edge">
<title>Cut18&#45;&gt;PiL15</title>
<g id="a_edge6"><a xlink:title="c_lseq46">
<path fill="none" stroke="black" d="M410.16,-836.84C419.39,-849.21 431.48,-864 442.07,-875.81"/>
<polygon fill="black" stroke="black" points="406.88,-826.33 409.9,-836.49 401.21,-830.44 406.88,-826.33"/>
<polygon fill="black" stroke="black" points="439.76,-878.47 449.11,-883.46 444.91,-873.73 439.76,-878.47"/>
</a>
</g>
</g>
<!-- Cut18&#45;&gt;PiL15 -->
<g id="edge33" class="edge">
<title>Cut18&#45;&gt;PiL15</title>
<g id="a_edge33"><a xlink:title="lval48">
<path fill="none" stroke="blue" d="M412.4,-825.65C424.24,-838.13 439.83,-856.88 451.14,-872.03"/>
<polygon fill="blue" stroke="blue" points="448.54,-874.41 457.25,-880.46 454.21,-870.31 448.54,-874.41"/>
</a>
</g>
</g>
<!-- Cut18&#45;&gt;Identity16 -->
<g id="edge53" class="edge">
<title>Cut18&#45;&gt;Identity16</title>
<g id="a_edge53"><a xlink:title="rval49">
<path fill="none" stroke="red" d="M397.83,-828.98C399.29,-849.92 400.03,-886.37 391.2,-916 386.6,-931.42 377.79,-947 369.62,-959.36"/>
<polygon fill="red" stroke="red" points="366.64,-957.51 363.84,-967.73 372.4,-961.49 366.64,-957.51"/>
</a>
</g>
</g>
<!-- Cut18&#45;&gt;BangD17 -->
<g id="edge8" class="edge">
<title>Cut18&#45;&gt;BangD17</title>
<g id="a_edge8"><a xlink:title="c_rseq47">
<path fill="none" stroke="black" d="M386.04,-827.98C378.22,-840.29 367.26,-857.54 358.26,-871.71"/>
<polygon fill="black" stroke="black" points="355.08,-870.18 352.68,-880.5 360.99,-873.94 355.08,-870.18"/>
</a>
</g>
<text text-anchor="middle" x="376.7" y="-850.8" font-family="Times-Roman" font-size="14.00">1</text>
</g>
<!-- BangC19 -->
<g id="node20" class="node">
<title>BangC19</title>
<ellipse fill="none" stroke="black" cx="343.2" cy="-724" rx="38.19" ry="18"/>
<text text-anchor="middle" x="343.2" y="-720.3" font-family="Times-Roman" font-size="14.00">BangC</text>
</g>
<!-- BangC19&#45;&gt;Bang13 -->
<g id="edge71" class="edge">
<title>BangC19&#45;&gt;Bang13</title>
<g id="a_edge71"><a xlink:title="yB44">
<path fill="none" stroke="blue" d="M372.93,-744.89C390.97,-757.63 413.95,-775.08 432.2,-793 487.94,-847.74 502.66,-863.91 537.2,-934 540.8,-941.31 543.96,-949.59 546.54,-957.27"/>
<polygon fill="blue" stroke="blue" points="366.52,-736.16 372.73,-744.75 362.52,-741.91 366.52,-736.16"/>
<polygon fill="blue" stroke="blue" points="543.23,-958.42 549.59,-966.89 549.9,-956.3 543.23,-958.42"/>
</a>
</g>
<text text-anchor="middle" x="499.7" y="-850.8" font-family="Times-Roman" font-size="14.00">1</text>
</g>
<!-- BangC19&#45;&gt;BangD17 -->
<g id="edge70" class="edge">
<title>BangC19&#45;&gt;BangD17</title>
<g id="a_edge70"><a xlink:title="yA43">
<path fill="none" stroke="blue" d="M343.1,-742.12C342.92,-771.99 342.56,-833.88 342.35,-869.72"/>
<polygon fill="blue" stroke="blue" points="338.85,-869.92 342.3,-879.94 345.85,-869.96 338.85,-869.92"/>
</a>
</g>
<text text-anchor="middle" x="347.7" y="-807.3" font-family="Times-Roman" font-size="14.00">1</text>
</g>
<!-- BangC19&#45;&gt;Cut18 -->
<g id="edge60" class="edge">
<title>BangC19&#45;&gt;Cut18</title>
<g id="a_edge60"><a xlink:title="seq45">
<path fill="none" stroke="black" d="M353.42,-741.38C361.16,-753.81 371.94,-771.1 380.74,-785.21"/>
<polygon fill="black" stroke="black" points="377.93,-787.31 386.19,-793.95 383.87,-783.61 377.93,-787.31"/>
</a>
</g>
</g>
<!-- Identity20 -->
<g id="node21" class="node">
<title>Identity20</title>
<ellipse fill="none" stroke="black" cx="161.2" cy="-550" rx="44.39" ry="18"/>
<text text-anchor="middle" x="161.2" y="-546.3" font-family="Times-Roman" font-size="14.00">Identity</text>
</g>
<!-- BangD21 -->
<g id="node22" class="node">
<title>BangD21</title>
<ellipse fill="none" stroke="black" cx="161.2" cy="-463" rx="39.79" ry="18"/>
<text text-anchor="middle" x="161.2" y="-459.3" font-family="Times-Roman" font-size="14.00">BangD</text>
</g>
<!-- BangD21&#45;&gt;Identity20 -->
<g id="edge67" class="edge">
<title>BangD21&#45;&gt;Identity20</title>
<g id="a_edge67"><a xlink:title="xret26">
<path fill="none" stroke="blue" d="M167.51,-481.04C170.34,-490.66 172.74,-502.95 171.2,-514 170.81,-516.72 170.27,-519.53 169.64,-522.31"/>
<polygon fill="blue" stroke="blue" points="166.22,-521.55 167.05,-532.11 172.99,-523.34 166.22,-521.55"/>
</a>
</g>
<text text-anchor="middle" x="176.7" y="-502.8" font-family="Times-Roman" font-size="14.00">1</text>
</g>
<!-- BangD21&#45;&gt;Identity20 -->
<g id="edge68" class="edge">
<title>BangD21&#45;&gt;Identity20</title>
<g id="a_edge68"><a xlink:title="xseq25">
<path fill="none" stroke="black" d="M161.2,-481.2C161.2,-492.83 161.2,-508.45 161.2,-521.76"/>
<polygon fill="black" stroke="black" points="157.7,-521.82 161.2,-531.82 164.7,-521.82 157.7,-521.82"/>
</a>
</g>
<text text-anchor="middle" x="165.7" y="-502.8" font-family="Times-Roman" font-size="14.00">1</text>
</g>
<!-- Bang22 -->
<g id="node23" class="node">
<title>Bang22</title>
<ellipse fill="none" stroke="black" cx="161.2" cy="-376" rx="32.49" ry="18"/>
<text text-anchor="middle" x="161.2" y="-372.3" font-family="Times-Roman" font-size="14.00">Bang</text>
</g>
<!-- Bang22&#45;&gt;Identity20 -->
<g id="edge40" class="edge">
<title>Bang22&#45;&gt;Identity20</title>
<g id="a_edge40"><a xlink:title="newrretf23">
<path fill="none" stroke="red" d="M143.46,-391.33C129.53,-403.83 111.19,-423.3 103.2,-445 97.66,-460.01 97.66,-465.98 103.2,-481 109.64,-498.48 122.8,-514.52 134.96,-526.63"/>
<polygon fill="red" stroke="red" points="132.67,-529.28 142.33,-533.64 137.49,-524.21 132.67,-529.28"/>
</a>
</g>
<text text-anchor="middle" x="107.7" y="-459.3" font-family="Times-Roman" font-size="14.00">1</text>
</g>
<!-- Bang22&#45;&gt;BangD21 -->
<g id="edge1" class="edge">
<title>Bang22&#45;&gt;BangD21</title>
<g id="a_edge1"><a xlink:title="c_bseq24">
<path fill="none" stroke="black" d="M161.2,-394.2C161.2,-405.83 161.2,-421.45 161.2,-434.76"/>
<polygon fill="black" stroke="black" points="157.7,-434.82 161.2,-444.82 164.7,-434.82 157.7,-434.82"/>
</a>
</g>
<text text-anchor="middle" x="165.7" y="-415.8" font-family="Times-Roman" font-size="14.00">1</text>
</g>
<!-- Bang22&#45;&gt;BangD21 -->
<g id="edge66" class="edge">
<title>Bang22&#45;&gt;BangD21</title>
<g id="a_edge66"><a xlink:title="xBf22">
<path fill="none" stroke="blue" d="M167.51,-394.04C170.34,-403.66 172.74,-415.95 171.2,-427 170.81,-429.72 170.27,-432.53 169.64,-435.31"/>
<polygon fill="blue" stroke="blue" points="166.22,-434.55 167.05,-445.11 172.99,-436.34 166.22,-434.55"/>
</a>
</g>
<text text-anchor="middle" x="176.7" y="-415.8" font-family="Times-Roman" font-size="14.00">0</text>
</g>
<!-- Identity23 -->
<g id="node24" class="node">
<title>Identity23</title>
<ellipse fill="none" stroke="black" cx="462.2" cy="-289" rx="44.39" ry="18"/>
<text text-anchor="middle" x="462.2" y="-285.3" font-family="Times-Roman" font-size="14.00">Identity</text>
</g>
<!-- Assign24 -->
<g id="node25" class="node">
<title>Assign24</title>
<ellipse fill="none" stroke="black" cx="405.2" cy="-18" rx="38.99" ry="18"/>
<text text-anchor="middle" x="405.2" y="-14.3" font-family="Times-Roman" font-size="14.00">Assign</text>
</g>
<!-- Assign24&#45;&gt;Identity23 -->
<g id="edge50" class="edge">
<title>Assign24&#45;&gt;Identity23</title>
<g id="a_edge50"><a xlink:title="ret8">
<path fill="none" stroke="red" stroke-width="2" d="M419.36,-34.87C440.29,-59.53 478.48,-109.48 492.2,-160 503.1,-200.17 497.77,-214.82 481.2,-253 479.87,-256.04 478.38,-259.17 476.83,-262.25"/>
<polygon fill="red" stroke="red" stroke-width="2" points="473.67,-260.73 472.09,-271.2 479.86,-264 473.67,-260.73"/>
</a>
</g>
</g>
<!-- Cut28 -->
<g id="node29" class="node">
<title>Cut28</title>
<ellipse fill="none" stroke="black" cx="405.2" cy="-91" rx="27" ry="18"/>
<text text-anchor="middle" x="405.2" y="-87.3" font-family="Times-Roman" font-size="14.00">Cut</text>
</g>
<!-- Assign24&#45;&gt;Cut28 -->
<g id="edge52" class="edge">
<title>Assign24&#45;&gt;Cut28</title>
<g id="a_edge52"><a xlink:title="retseq0">
<path fill="none" stroke="black" d="M405.2,-36.19C405.2,-44.21 405.2,-53.95 405.2,-62.93"/>
<polygon fill="black" stroke="black" points="401.7,-62.97 405.2,-72.97 408.7,-62.97 401.7,-62.97"/>
</a>
</g>
</g>
<!-- Cut25 -->
<g id="node26" class="node">
<title>Cut25</title>
<ellipse fill="none" stroke="black" cx="339.2" cy="-637" rx="27" ry="18"/>
<text text-anchor="middle" x="339.2" y="-633.3" font-family="Times-Roman" font-size="14.00">Cut</text>
</g>
<!-- Cut25&#45;&gt;Bang9 -->
<g id="edge12" class="edge">
<title>Cut25&#45;&gt;Bang9</title>
<g id="a_edge12"><a xlink:title="dseq63">
<path fill="none" stroke="black" d="M317.37,-647.74C305.25,-653.85 290.39,-662.55 279.2,-673 271.56,-680.12 264.73,-689.25 259.23,-697.76"/>
<polygon fill="black" stroke="black" points="256.24,-695.94 253.99,-706.29 262.21,-699.6 256.24,-695.94"/>
</a>
</g>
<text text-anchor="middle" x="283.7" y="-676.8" font-family="Times-Roman" font-size="14.00">1</text>
</g>
<!-- Cut25&#45;&gt;Bang9 -->
<g id="edge37" class="edge">
<title>Cut25&#45;&gt;Bang9</title>
<g id="a_edge37"><a xlink:title="newrret61">
<path fill="none" stroke="red" d="M324.81,-652.8C314.78,-662.95 300.95,-676.59 288.2,-688 282.89,-692.74 277.07,-697.66 271.46,-702.26"/>
<polygon fill="red" stroke="red" points="269.06,-699.7 263.5,-708.71 273.47,-705.14 269.06,-699.7"/>
</a>
</g>
<text text-anchor="middle" x="308.7" y="-676.8" font-family="Times-Roman" font-size="14.00">1</text>
</g>
<!-- Cut25&#45;&gt;BangC19 -->
<g id="edge59" class="edge">
<title>Cut25&#45;&gt;BangC19</title>
<g id="a_edge59"><a xlink:title="seq40">
<path fill="none" stroke="black" d="M334.13,-664.99C334.04,-674.93 334.57,-686.18 335.6,-696.11"/>
<polygon fill="black" stroke="black" points="337.98,-654.91 334.14,-664.78 330.98,-654.67 337.98,-654.91"/>
<polygon fill="black" stroke="black" points="332.16,-696.77 336.91,-706.24 339.1,-695.87 332.16,-696.77"/>
</a>
</g>
</g>
<!-- Cut25&#45;&gt;BangC19 -->
<g id="edge69" class="edge">
<title>Cut25&#45;&gt;BangC19</title>
<g id="a_edge69"><a xlink:title="y41">
<path fill="none" stroke="blue" d="M345.49,-654.79C347.34,-666.47 348.37,-682.3 348.26,-695.77"/>
<polygon fill="blue" stroke="blue" points="344.76,-695.84 347.93,-705.95 351.75,-696.07 344.76,-695.84"/>
</a>
</g>
</g>
<!-- Cut26 -->
<g id="node27" class="node">
<title>Cut26</title>
<ellipse fill="none" stroke="black" cx="418.2" cy="-550" rx="27" ry="18"/>
<text text-anchor="middle" x="418.2" y="-546.3" font-family="Times-Roman" font-size="14.00">Cut</text>
</g>
<!-- Cut26&#45;&gt;Identity10 -->
<g id="edge25" class="edge">
<title>Cut26&#45;&gt;Identity10</title>
<g id="a_edge25"><a xlink:title="idseq64">
<path fill="none" stroke="black" d="M415.06,-578.33C415.68,-588.18 416.99,-599.28 418.7,-609.09"/>
<polygon fill="black" stroke="black" points="418.17,-568.06 415.05,-578.19 411.17,-568.33 418.17,-568.06"/>
<polygon fill="black" stroke="black" points="415.31,-609.99 420.7,-619.11 422.18,-608.62 415.31,-609.99"/>
</a>
</g>
</g>
<!-- Cut26&#45;&gt;Identity10 -->
<g id="edge31" class="edge">
<title>Cut26&#45;&gt;Identity10</title>
<g id="a_edge31"><a xlink:title="lret62">
<path fill="none" stroke="blue" d="M425.58,-567.38C428.29,-579.03 430.46,-594.95 431.32,-608.53"/>
<polygon fill="blue" stroke="blue" points="427.84,-608.92 431.72,-618.78 434.83,-608.65 427.84,-608.92"/>
</a>
</g>
</g>
<!-- Cut26&#45;&gt;Identity14 -->
<g id="edge49" class="edge">
<title>Cut26&#45;&gt;Identity14</title>
<g id="a_edge49"><a xlink:title="ret42">
<path fill="none" stroke="red" d="M444.53,-554.84C485.08,-562.43 558.2,-583.39 558.2,-636 558.2,-636 558.2,-636 558.2,-855.5 558.2,-898.09 564.14,-916.01 537.2,-949 532.06,-955.28 517.09,-962.58 501.62,-968.88"/>
<polygon fill="red" stroke="red" points="500.03,-965.74 492.01,-972.66 502.59,-972.26 500.03,-965.74"/>
</a>
</g>
</g>
<!-- Cut26&#45;&gt;Cut25 -->
<g id="edge64" class="edge">
<title>Cut26&#45;&gt;Cut25</title>
<g id="a_edge64"><a xlink:title="seqP86">
<path fill="none" stroke="black" d="M404.44,-565.8C392.09,-579.09 373.8,-598.77 359.72,-613.91"/>
<polygon fill="black" stroke="black" points="357.04,-611.65 352.8,-621.36 362.17,-616.42 357.04,-611.65"/>
</a>
</g>
</g>
<!-- Bang27 -->
<g id="node28" class="node">
<title>Bang27</title>
<ellipse fill="none" stroke="black" cx="373.2" cy="-190" rx="32.49" ry="18"/>
<text text-anchor="middle" x="373.2" y="-186.3" font-family="Times-Roman" font-size="14.00">Bang</text>
</g>
<!-- PiR29 -->
<g id="node30" class="node">
<title>PiR29</title>
<ellipse fill="none" stroke="black" cx="373.2" cy="-289" rx="27" ry="18"/>
<text text-anchor="middle" x="373.2" y="-285.3" font-family="Times-Roman" font-size="14.00">PiR</text>
</g>
<!-- Bang27&#45;&gt;PiR29 -->
<g id="edge5" class="edge">
<title>Bang27&#45;&gt;PiR29</title>
<g id="a_edge5"><a xlink:title="c_bseq91">
<path fill="none" stroke="black" d="M373.2,-208.34C373.2,-222.82 373.2,-243.73 373.2,-260.5"/>
<polygon fill="black" stroke="black" points="369.7,-260.8 373.2,-270.8 376.7,-260.8 369.7,-260.8"/>
</a>
</g>
<text text-anchor="middle" x="377.7" y="-241.8" font-family="Times-Roman" font-size="14.00">1</text>
</g>
<!-- Bang27&#45;&gt;PiR29 -->
<g id="edge44" class="edge">
<title>Bang27&#45;&gt;PiR29</title>
<g id="a_edge44"><a xlink:title="newrretf92">
<path fill="none" stroke="red" d="M366.11,-207.79C361.74,-220.23 357.43,-237.63 360.2,-253 360.72,-255.93 361.48,-258.93 362.37,-261.89"/>
<polygon fill="red" stroke="red" points="359.15,-263.3 365.74,-271.6 365.76,-261.01 359.15,-263.3"/>
</a>
</g>
<text text-anchor="middle" x="364.7" y="-241.8" font-family="Times-Roman" font-size="14.00">1</text>
</g>
<!-- Cut28&#45;&gt;Bang22 -->
<g id="edge65" class="edge">
<title>Cut28&#45;&gt;Bang22</title>
<g id="a_edge65"><a xlink:title="xB10">
<path fill="none" stroke="blue" d="M389.36,-105.86C374.26,-119.29 351.08,-140.43 332.2,-160 264.82,-229.84 244.97,-245.58 189.2,-325 183.85,-332.6 178.68,-341.32 174.27,-349.32"/>
<polygon fill="blue" stroke="blue" points="171.1,-347.81 169.47,-358.27 177.27,-351.11 171.1,-347.81"/>
</a>
</g>
<text text-anchor="middle" x="261.7" y="-241.8" font-family="Times-Roman" font-size="14.00">0</text>
</g>
<!-- Cut28&#45;&gt;Bang27 -->
<g id="edge14" class="edge">
<title>Cut28&#45;&gt;Bang27</title>
<g id="a_edge14"><a xlink:title="dseq93">
<path fill="none" stroke="black" d="M399.62,-108.9C394.79,-123.55 387.7,-145.02 382.09,-162.04"/>
<polygon fill="black" stroke="black" points="378.62,-161.38 378.81,-171.97 385.27,-163.57 378.62,-161.38"/>
</a>
</g>
<text text-anchor="middle" x="396.7" y="-130.8" font-family="Times-Roman" font-size="14.00">0</text>
</g>
<!-- Cut28&#45;&gt;Bang27 -->
<g id="edge39" class="edge">
<title>Cut28&#45;&gt;Bang27</title>
<g id="a_edge39"><a xlink:title="newrret94">
<path fill="none" stroke="red" d="M390.11,-105.94C384.71,-111.86 379.22,-119.2 376.2,-127 371.97,-137.89 370.79,-150.67 370.82,-161.78"/>
<polygon fill="red" stroke="red" points="367.33,-161.95 371.18,-171.82 374.32,-161.7 367.33,-161.95"/>
</a>
</g>
<text text-anchor="middle" x="380.7" y="-130.8" font-family="Times-Roman" font-size="14.00">0</text>
</g>
<!-- Cut37 -->
<g id="node38" class="node">
<title>Cut37</title>
<ellipse fill="none" stroke="black" cx="453.2" cy="-190" rx="26" ry="26"/>
<ellipse fill="none" stroke="black" cx="453.2" cy="-190" rx="30" ry="30"/>
<text text-anchor="middle" x="453.2" y="-186.3" font-family="Times-Roman" font-size="14.00">Cut</text>
</g>
<!-- Cut28&#45;&gt;Cut37 -->
<g id="edge62" class="edge">
<title>Cut28&#45;&gt;Cut37</title>
<g id="a_edge62"><a xlink:title="seqBC95">
<path fill="none" stroke="black" d="M417.8,-117.47C423.22,-128.43 429.66,-141.43 435.54,-153.33"/>
<polygon fill="black" stroke="black" points="416.48,-106.9 417.77,-117.42 410.2,-110.01 416.48,-106.9"/>
<polygon fill="black" stroke="black" points="432.54,-155.16 440.12,-162.57 438.82,-152.05 432.54,-155.16"/>
</a>
</g>
</g>
<!-- Dup30 -->
<g id="node31" class="node">
<title>Dup30</title>
<ellipse fill="none" stroke="black" cx="418.2" cy="-463" rx="28.7" ry="18"/>
<text text-anchor="middle" x="418.2" y="-459.3" font-family="Times-Roman" font-size="14.00">Dup</text>
</g>
<!-- PiR29&#45;&gt;Dup30 -->
<g id="edge56" class="edge">
<title>PiR29&#45;&gt;Dup30</title>
<g id="a_edge56"><a xlink:title="seq104">
<path fill="none" stroke="black" d="M380.44,-306.54C382.79,-312.31 385.29,-318.87 387.2,-325 398.83,-362.41 408.07,-406.83 413.34,-434.72"/>
<polygon fill="none" stroke="black" points="409.96,-435.7 415.23,-444.89 416.85,-434.42 409.96,-435.7"/>
</a>
</g>
<text text-anchor="middle" x="408.7" y="-372.3" font-family="Times-Roman" font-size="14.00">1</text>
</g>
<!-- Dup31 -->
<g id="node32" class="node">
<title>Dup31</title>
<ellipse fill="none" stroke="black" cx="247.2" cy="-463" rx="28.7" ry="18"/>
<text text-anchor="middle" x="247.2" y="-459.3" font-family="Times-Roman" font-size="14.00">Dup</text>
</g>
<!-- PiR29&#45;&gt;Dup31 -->
<g id="edge16" class="edge">
<title>PiR29&#45;&gt;Dup31</title>
<g id="a_edge16"><a xlink:title="h105">
<path fill="none" stroke="blue" d="M372.4,-306.99C370.61,-328.92 364.83,-367.42 346.2,-394 329.44,-417.9 301.4,-435.99 279.43,-447.49"/>
<polygon fill="none" stroke="blue" points="277.8,-444.39 270.44,-452 280.95,-450.64 277.8,-444.39"/>
</a>
</g>
<text text-anchor="middle" x="366.7" y="-372.3" font-family="Times-Roman" font-size="14.00">1</text>
</g>
<!-- Dup32 -->
<g id="node33" class="node">
<title>Dup32</title>
<ellipse fill="none" stroke="black" cx="475.2" cy="-376" rx="28.7" ry="18"/>
<text text-anchor="middle" x="475.2" y="-372.3" font-family="Times-Roman" font-size="14.00">Dup</text>
</g>
<!-- PiR29&#45;&gt;Dup32 -->
<g id="edge46" class="edge">
<title>PiR29&#45;&gt;Dup32</title>
<g id="a_edge46"><a xlink:title="ret106">
<path fill="none" stroke="red" d="M394.21,-300.3C406,-306.59 420.61,-315.27 432.2,-325 441.37,-332.69 450.22,-342.44 457.49,-351.29"/>
<polygon fill="none" stroke="red" points="454.97,-353.74 463.93,-359.39 460.45,-349.38 454.97,-353.74"/>
</a>
</g>
<text text-anchor="middle" x="450.7" y="-328.8" font-family="Times-Roman" font-size="14.00">1</text>
</g>
<!-- Dup30&#45;&gt;Cut26 -->
<g id="edge58" class="edge">
<title>Dup30&#45;&gt;Cut26</title>
<g id="a_edge58"><a xlink:title="seq33">
<path fill="none" stroke="black" d="M418.2,-481.2C418.2,-492.83 418.2,-508.45 418.2,-521.76"/>
<polygon fill="black" stroke="black" points="414.7,-521.82 418.2,-531.82 421.7,-521.82 414.7,-521.82"/>
</a>
</g>
<text text-anchor="middle" x="422.7" y="-502.8" font-family="Times-Roman" font-size="14.00">1</text>
</g>
<!-- Dup31&#45;&gt;Bang9 -->
<g id="edge18" class="edge">
<title>Dup31&#45;&gt;Bang9</title>
<g id="a_edge18"><a xlink:title="h34">
<path fill="none" stroke="blue" d="M247.06,-481.39C246.72,-525.53 245.82,-642.17 245.41,-695.58"/>
<polygon fill="blue" stroke="blue" points="241.91,-695.65 245.33,-705.68 248.91,-695.7 241.91,-695.65"/>
</a>
</g>
<text text-anchor="middle" x="251.7" y="-589.8" font-family="Times-Roman" font-size="14.00">1</text>
</g>
<!-- Dup32&#45;&gt;Identity10 -->
<g id="edge48" class="edge">
<title>Dup32&#45;&gt;Identity10</title>
<g id="a_edge48"><a xlink:title="ret35">
<path fill="none" stroke="red" d="M474.05,-394.22C471.64,-427.83 465.35,-504.42 454.2,-568 451.59,-582.86 451.46,-586.85 446.2,-601 445.05,-604.07 443.7,-607.22 442.27,-610.31"/>
<polygon fill="red" stroke="red" points="439.13,-608.76 437.82,-619.27 445.4,-611.87 439.13,-608.76"/>
</a>
</g>
<text text-anchor="middle" x="467.7" y="-502.8" font-family="Times-Roman" font-size="14.00">1</text>
</g>
<!-- Lift33 -->
<g id="node34" class="node">
<title>Lift33</title>
<ellipse fill="none" stroke="black" cx="310.2" cy="-376" rx="27" ry="18"/>
<text text-anchor="middle" x="310.2" y="-372.3" font-family="Times-Roman" font-size="14.00">Lift</text>
</g>
<!-- Lift33&#45;&gt;Dup30 -->
<g id="edge55" class="edge">
<title>Lift33&#45;&gt;Dup30</title>
<g id="a_edge55"><a xlink:title="seq100">
<path fill="none" stroke="black" d="M327.07,-390.28C344.8,-404.23 372.87,-426.33 393.18,-442.31"/>
<polygon fill="black" stroke="black" points="391.06,-445.09 401.08,-448.53 395.39,-439.59 391.06,-445.09"/>
</a>
</g>
<text text-anchor="middle" x="374.7" y="-415.8" font-family="Times-Roman" font-size="14.00">1</text>
</g>
<!-- Lift34 -->
<g id="node35" class="node">
<title>Lift34</title>
<ellipse fill="none" stroke="black" cx="238.2" cy="-376" rx="27" ry="18"/>
<text text-anchor="middle" x="238.2" y="-372.3" font-family="Times-Roman" font-size="14.00">Lift</text>
</g>
<!-- Lift34&#45;&gt;Dup31 -->
<g id="edge15" class="edge">
<title>Lift34&#45;&gt;Dup31</title>
<g id="a_edge15"><a xlink:title="h101">
<path fill="none" stroke="blue" d="M240.02,-394.2C241.25,-405.83 242.9,-421.45 244.31,-434.76"/>
<polygon fill="blue" stroke="blue" points="240.84,-435.24 245.38,-444.82 247.81,-434.51 240.84,-435.24"/>
</a>
</g>
<text text-anchor="middle" x="248.7" y="-415.8" font-family="Times-Roman" font-size="14.00">1</text>
</g>
<!-- Lift35 -->
<g id="node36" class="node">
<title>Lift35</title>
<ellipse fill="none" stroke="black" cx="551.2" cy="-289" rx="27" ry="18"/>
<text text-anchor="middle" x="551.2" y="-285.3" font-family="Times-Roman" font-size="14.00">Lift</text>
</g>
<!-- Lift35&#45;&gt;Dup32 -->
<g id="edge45" class="edge">
<title>Lift35&#45;&gt;Dup32</title>
<g id="a_edge45"><a xlink:title="ret102">
<path fill="none" stroke="red" d="M537.96,-304.8C526.26,-317.88 509.02,-337.17 495.56,-352.22"/>
<polygon fill="red" stroke="red" points="492.59,-350.29 488.54,-360.07 497.81,-354.95 492.59,-350.29"/>
</a>
</g>
<text text-anchor="middle" x="521.7" y="-328.8" font-family="Times-Roman" font-size="14.00">1</text>
</g>
<!-- Cut36 -->
<g id="node37" class="node">
<title>Cut36</title>
<ellipse fill="none" stroke="black" cx="301.2" cy="-289" rx="27" ry="18"/>
<text text-anchor="middle" x="301.2" y="-285.3" font-family="Times-Roman" font-size="14.00">Cut</text>
</g>
<!-- Cut36&#45;&gt;Bang22 -->
<g id="edge10" class="edge">
<title>Cut36&#45;&gt;Bang22</title>
<g id="a_edge10"><a xlink:title="dseq20">
<path fill="none" stroke="black" d="M281.73,-301.81C258.24,-316.08 218.49,-340.21 191.1,-356.84"/>
<polygon fill="black" stroke="black" points="189.06,-353.98 182.33,-362.17 192.69,-359.97 189.06,-353.98"/>
</a>
</g>
<text text-anchor="middle" x="244.7" y="-328.8" font-family="Times-Roman" font-size="14.00">0</text>
</g>
<!-- Cut36&#45;&gt;Bang22 -->
<g id="edge35" class="edge">
<title>Cut36&#45;&gt;Bang22</title>
<g id="a_edge35"><a xlink:title="newrret18">
<path fill="none" stroke="red" d="M276.28,-296.43C257.18,-302.08 230.71,-311.52 210.2,-325 199.2,-332.22 188.74,-342.28 180.33,-351.48"/>
<polygon fill="red" stroke="red" points="177.47,-349.43 173.5,-359.26 182.73,-354.05 177.47,-349.43"/>
</a>
</g>
<text text-anchor="middle" x="214.7" y="-328.8" font-family="Times-Roman" font-size="14.00">0</text>
</g>
<!-- Cut36&#45;&gt;Lift33 -->
<g id="edge57" class="edge">
<title>Cut36&#45;&gt;Lift33</title>
<g id="a_edge57"><a xlink:title="seq108">
<path fill="none" stroke="black" d="M304.08,-317.26C305.12,-327.04 306.28,-338.06 307.32,-347.83"/>
<polygon fill="black" stroke="black" points="306.5,-306.83 304.07,-317.14 299.54,-307.56 306.5,-306.83"/>
<polygon fill="black" stroke="black" points="303.84,-348.24 308.38,-357.82 310.81,-347.51 303.84,-348.24"/>
</a>
</g>
<text text-anchor="middle" x="311.7" y="-328.8" font-family="Times-Roman" font-size="14.00">0</text>
</g>
<!-- Cut36&#45;&gt;Lift34 -->
<g id="edge17" class="edge">
<title>Cut36&#45;&gt;Lift34</title>
<g id="a_edge17"><a xlink:title="h109">
<path fill="none" stroke="blue" d="M289.64,-305.59C280.14,-318.41 266.52,-336.78 255.69,-351.4"/>
<polygon fill="blue" stroke="blue" points="252.82,-349.39 249.68,-359.5 258.44,-353.55 252.82,-349.39"/>
</a>
</g>
<text text-anchor="middle" x="278.7" y="-328.8" font-family="Times-Roman" font-size="14.00">0</text>
</g>
<!-- Cut37&#45;&gt;Identity23 -->
<g id="edge23" class="edge">
<title>Cut37&#45;&gt;Identity23</title>
<g id="a_edge23"><a xlink:title="idseq21">
<path fill="none" stroke="black" d="M450.18,-229.94C450.88,-240.3 452.06,-251.26 453.54,-260.83"/>
<polygon fill="black" stroke="black" points="453.14,-219.65 450.17,-229.82 446.15,-220.02 453.14,-219.65"/>
<polygon fill="black" stroke="black" points="450.14,-261.71 455.33,-270.95 457.04,-260.49 450.14,-261.71"/>
</a>
</g>
</g>
<!-- Cut37&#45;&gt;Identity23 -->
<g id="edge29" class="edge">
<title>Cut37&#45;&gt;Identity23</title>
<g id="a_edge29"><a xlink:title="lret19">
<path fill="none" stroke="blue" stroke-width="2" d="M461.95,-218.79C463.94,-231.91 465.38,-247.52 465.8,-260.59"/>
<polygon fill="blue" stroke="blue" stroke-width="2" points="462.3,-260.9 465.9,-270.87 469.3,-260.83 462.3,-260.9"/>
</a>
</g>
</g>
<!-- Cut37&#45;&gt;Lift35 -->
<g id="edge47" class="edge">
<title>Cut37&#45;&gt;Lift35</title>
<g id="a_edge47"><a xlink:title="ret110">
<path fill="none" stroke="red" d="M474.46,-212.04C490.62,-228.04 512.78,-249.97 529.13,-266.15"/>
<polygon fill="red" stroke="red" points="527.07,-269.04 536.64,-273.59 531.99,-264.06 527.07,-269.04"/>
</a>
</g>
<text text-anchor="middle" x="517.7" y="-241.8" font-family="Times-Roman" font-size="14.00">0</text>
</g>
<!-- Cut37&#45;&gt;Cut36 -->
<g id="edge63" class="edge">
<title>Cut37&#45;&gt;Cut36</title>
<g id="a_edge63"><a xlink:title="seqP112">
<path fill="none" stroke="black" d="M430.35,-209.51C425.2,-213.24 419.65,-216.95 414.2,-220 395.4,-230.51 388.02,-227.53 369.2,-238 353.79,-246.56 337.86,-258.11 325.29,-267.95"/>
<polygon fill="black" stroke="black" points="322.8,-265.46 317.17,-274.43 327.17,-270.93 322.8,-265.46"/>
</a>
</g>
</g>
</g>
</svg>
