<?xml version="1.0" encoding="UTF-8" standalone="no"?>
<!DOCTYPE svg PUBLIC "-//W3C//DTD SVG 1.1//EN"
 "http://www.w3.org/Graphics/SVG/1.1/DTD/svg11.dtd">
<!-- Generated by graphviz version 2.43.0 (0)
 -->
<!-- Title: %3 Pages: 1 -->
<svg width="414pt" height="1586pt"
 viewBox="0.00 0.00 414.00 1586.49" xmlns="http://www.w3.org/2000/svg" xmlns:xlink="http://www.w3.org/1999/xlink">
<g id="graph0" class="graph" transform="scale(1 1) rotate(0) translate(4 1582.49)">
<title>%3</title>
<polygon fill="white" stroke="transparent" points="-4,4 -4,-1582.49 410,-1582.49 410,4 -4,4"/>
<!-- Root0 -->
<g id="node1" class="node">
<title>Root0</title>
<ellipse fill="none" stroke="black" cx="236" cy="-1560.49" rx="30.59" ry="18"/>
<text text-anchor="middle" x="236" y="-1556.79" font-family="Times-Roman" font-size="14.00">Root</text>
</g>
<!-- I2 -->
<g id="node10" class="node">
<title>I2</title>
<ellipse fill="none" stroke="black" cx="236" cy="-1488.49" rx="27" ry="18"/>
<text text-anchor="middle" x="236" y="-1484.79" font-family="Times-Roman" font-size="14.00">I</text>
</g>
<!-- Root0&#45;&gt;I2 -->
<g id="edge45" class="edge">
<title>Root0&#45;&gt;I2</title>
<g id="a_edge45"><a xlink:title="rettop">
<path fill="none" stroke="red" stroke-width="2" d="M236,-1542.19C236,-1534.48 236,-1525.21 236,-1516.61"/>
<polygon fill="red" stroke="red" stroke-width="2" points="239.5,-1516.6 236,-1506.6 232.5,-1516.6 239.5,-1516.6"/>
</a>
</g>
</g>
<!-- !p0 -->
<g id="node2" class="node">
<title>!p0</title>
<ellipse fill="none" stroke="black" cx="204" cy="-1272.49" rx="27" ry="18"/>
<text text-anchor="middle" x="204" y="-1268.79" font-family="Times-Roman" font-size="14.00">!p</text>
</g>
<!-- I0 -->
<g id="node3" class="node">
<title>I0</title>
<ellipse fill="none" stroke="black" cx="204" cy="-1200.49" rx="27" ry="18"/>
<text text-anchor="middle" x="204" y="-1196.79" font-family="Times-Roman" font-size="14.00">I</text>
</g>
<!-- !p0&#45;&gt;I0 -->
<g id="edge49" class="edge">
<title>!p0&#45;&gt;I0</title>
<g id="a_edge49"><a xlink:title="yli">
<path fill="none" stroke="red" d="M204,-1254.19C204,-1246.48 204,-1237.21 204,-1228.61"/>
<polygon fill="red" stroke="red" points="207.5,-1228.6 204,-1218.6 200.5,-1228.6 207.5,-1228.6"/>
</a>
</g>
</g>
<!-- Cut0 -->
<g id="node6" class="node">
<title>Cut0</title>
<ellipse fill="none" stroke="black" cx="132" cy="-1200.49" rx="27" ry="18"/>
<text text-anchor="middle" x="132" y="-1196.79" font-family="Times-Roman" font-size="14.00">Cut</text>
</g>
<!-- !p0&#45;&gt;Cut0 -->
<g id="edge46" class="edge">
<title>!p0&#45;&gt;Cut0</title>
<g id="a_edge46"><a xlink:title="y2">
<path fill="none" stroke="blue" d="M181.96,-1250.06C170.55,-1238.97 156.93,-1225.73 146.8,-1215.88"/>
<polygon fill="blue" stroke="blue" points="179.82,-1252.87 189.43,-1257.33 184.7,-1247.85 179.82,-1252.87"/>
</a>
</g>
</g>
<!-- !d0 -->
<g id="node4" class="node">
<title>!d0</title>
<ellipse fill="none" stroke="black" cx="232" cy="-1128.49" rx="27" ry="18"/>
<text text-anchor="middle" x="232" y="-1124.79" font-family="Times-Roman" font-size="14.00">!d</text>
</g>
<!-- I0&#45;&gt;!d0 -->
<g id="edge48" class="edge">
<title>I0&#45;&gt;!d0</title>
<g id="a_edge48"><a xlink:title="yl2">
<path fill="none" stroke="blue" d="M214.44,-1173.41C218.11,-1164.21 222.14,-1154.14 225.41,-1145.96"/>
<polygon fill="blue" stroke="blue" points="211.1,-1172.32 210.64,-1182.91 217.6,-1174.92 211.1,-1172.32"/>
</a>
</g>
</g>
<!-- !d0&#45;&gt;!p0 -->
<g id="edge47" class="edge">
<title>!d0&#45;&gt;!p0</title>
<g id="a_edge47"><a xlink:title="yj">
<path fill="none" stroke="blue" d="M239.62,-1156.1C243.51,-1174.09 246.25,-1198.17 240,-1218.49 235.62,-1232.74 225.96,-1246.6 217.75,-1256.56"/>
<polygon fill="blue" stroke="blue" points="243,-1155.19 237.25,-1146.29 236.2,-1156.84 243,-1155.19"/>
</a>
</g>
</g>
<!-- !p1 -->
<g id="node5" class="node">
<title>!p1</title>
<ellipse fill="none" stroke="black" cx="132" cy="-1128.49" rx="27" ry="18"/>
<text text-anchor="middle" x="132" y="-1124.79" font-family="Times-Roman" font-size="14.00">!p</text>
</g>
<!-- I1 -->
<g id="node9" class="node">
<title>I1</title>
<ellipse fill="none" stroke="black" cx="132" cy="-1056.49" rx="27" ry="18"/>
<text text-anchor="middle" x="132" y="-1052.79" font-family="Times-Roman" font-size="14.00">I</text>
</g>
<!-- !p1&#45;&gt;I1 -->
<g id="edge1" class="edge">
<title>!p1&#45;&gt;I1</title>
<g id="a_edge1"><a xlink:title="e11">
<path fill="none" stroke="red" d="M132,-1110.19C132,-1102.48 132,-1093.21 132,-1084.61"/>
<polygon fill="red" stroke="red" points="135.5,-1084.6 132,-1074.6 128.5,-1084.6 135.5,-1084.6"/>
</a>
</g>
</g>
<!-- Dup1_0 -->
<g id="node28" class="node">
<title>Dup1_0</title>
<ellipse fill="none" stroke="black" cx="214" cy="-1056.49" rx="29.5" ry="18"/>
<text text-anchor="middle" x="214" y="-1052.79" font-family="Times-Roman" font-size="14.00">Dup</text>
</g>
<!-- !p1&#45;&gt;Dup1_0 -->
<g id="edge3" class="edge">
<title>!p1&#45;&gt;Dup1_0</title>
<g id="a_edge3"><a xlink:title="e15">
<path fill="none" stroke="blue" d="M156.07,-1106.95C169.42,-1095.55 185.66,-1081.68 197.55,-1071.54"/>
<polygon fill="blue" stroke="blue" points="153.53,-1104.51 148.2,-1113.67 158.08,-1109.83 153.53,-1104.51"/>
</a>
</g>
</g>
<!-- Cut0&#45;&gt;!p1 -->
<g id="edge42" class="edge">
<title>Cut0&#45;&gt;!p1</title>
<g id="a_edge42"><a xlink:title="e9">
<path fill="none" stroke="red" d="M132,-1182.19C132,-1174.48 132,-1165.21 132,-1156.61"/>
<polygon fill="red" stroke="red" points="135.5,-1156.6 132,-1146.6 128.5,-1156.6 135.5,-1156.6"/>
</a>
</g>
</g>
<!-- !d1 -->
<g id="node7" class="node">
<title>!d1</title>
<ellipse fill="none" stroke="black" cx="65" cy="-912.49" rx="27" ry="18"/>
<text text-anchor="middle" x="65" y="-908.79" font-family="Times-Roman" font-size="14.00">!d</text>
</g>
<!-- !d1&#45;&gt;!p1 -->
<g id="edge2" class="edge">
<title>!d1&#45;&gt;!p1</title>
<g id="a_edge2"><a xlink:title="e13">
<path fill="none" stroke="blue" d="M66.87,-940.78C69.88,-973.6 77.47,-1029.85 96,-1074.49 101.71,-1088.26 111.31,-1102.14 119.16,-1112.24"/>
<polygon fill="blue" stroke="blue" points="70.34,-940.27 66.02,-930.6 63.37,-940.85 70.34,-940.27"/>
</a>
</g>
</g>
<!-- PiL0 -->
<g id="node8" class="node">
<title>PiL0</title>
<ellipse fill="none" stroke="black" cx="132" cy="-984.49" rx="27" ry="18"/>
<text text-anchor="middle" x="132" y="-980.79" font-family="Times-Roman" font-size="14.00">PiL</text>
</g>
<!-- PiL0&#45;&gt;!d1 -->
<g id="edge4" class="edge">
<title>PiL0&#45;&gt;!d1</title>
<g id="a_edge4"><a xlink:title="e17">
<path fill="none" stroke="blue" d="M110.91,-961.46C100.45,-950.53 88.11,-937.64 78.86,-927.98"/>
<polygon fill="blue" stroke="blue" points="108.67,-964.19 118.12,-968.99 113.73,-959.35 108.67,-964.19"/>
</a>
</g>
</g>
<!-- !p3 -->
<g id="node20" class="node">
<title>!p3</title>
<ellipse fill="none" stroke="black" cx="137" cy="-912.49" rx="27" ry="18"/>
<text text-anchor="middle" x="137" y="-908.79" font-family="Times-Roman" font-size="14.00">!p</text>
</g>
<!-- PiL0&#45;&gt;!p3 -->
<g id="edge6" class="edge">
<title>PiL0&#45;&gt;!p3</title>
<g id="a_edge6"><a xlink:title="e21">
<path fill="none" stroke="red" d="M133.24,-966.19C133.79,-958.48 134.45,-949.21 135.06,-940.61"/>
<polygon fill="red" stroke="red" points="138.56,-940.82 135.78,-930.6 131.57,-940.32 138.56,-940.82"/>
</a>
</g>
</g>
<!-- I1&#45;&gt;PiL0 -->
<g id="edge5" class="edge">
<title>I1&#45;&gt;PiL0</title>
<g id="a_edge5"><a xlink:title="e19">
<path fill="none" stroke="blue" d="M132,-1028.16C132,-1019.55 132,-1010.29 132,-1002.6"/>
<polygon fill="blue" stroke="blue" points="128.5,-1028.19 132,-1038.19 135.5,-1028.19 128.5,-1028.19"/>
</a>
</g>
</g>
<!-- PiL3 -->
<g id="node19" class="node">
<title>PiL3</title>
<ellipse fill="none" stroke="black" cx="236" cy="-1416.49" rx="27" ry="18"/>
<text text-anchor="middle" x="236" y="-1412.79" font-family="Times-Roman" font-size="14.00">PiL</text>
</g>
<!-- I2&#45;&gt;PiL3 -->
<g id="edge9" class="edge">
<title>I2&#45;&gt;PiL3</title>
<g id="a_edge9"><a xlink:title="e32">
<path fill="none" stroke="blue" stroke-width="2" d="M236,-1460.16C236,-1451.55 236,-1442.29 236,-1434.6"/>
<polygon fill="blue" stroke="blue" stroke-width="2" points="232.5,-1460.19 236,-1470.19 239.5,-1460.19 232.5,-1460.19"/>
</a>
</g>
</g>
<!-- !p2 -->
<g id="node11" class="node">
<title>!p2</title>
<ellipse fill="none" stroke="black" cx="214" cy="-912.49" rx="27" ry="18"/>
<text text-anchor="middle" x="214" y="-908.79" font-family="Times-Roman" font-size="14.00">!p</text>
</g>
<!-- PiR0 -->
<g id="node13" class="node">
<title>PiR0</title>
<ellipse fill="none" stroke="black" cx="214" cy="-840.49" rx="27" ry="18"/>
<text text-anchor="middle" x="214" y="-836.79" font-family="Times-Roman" font-size="14.00">PiR</text>
</g>
<!-- !p2&#45;&gt;PiR0 -->
<g id="edge13" class="edge">
<title>!p2&#45;&gt;PiR0</title>
<g id="a_edge13"><a xlink:title="e39">
<path fill="none" stroke="red" d="M214,-894.19C214,-886.48 214,-877.21 214,-868.61"/>
<polygon fill="red" stroke="red" points="217.5,-868.6 214,-858.6 210.5,-868.6 217.5,-868.6"/>
</a>
</g>
</g>
<!-- Cut1 -->
<g id="node12" class="node">
<title>Cut1</title>
<ellipse fill="none" stroke="black" cx="214" cy="-984.49" rx="27" ry="18"/>
<text text-anchor="middle" x="214" y="-980.79" font-family="Times-Roman" font-size="14.00">Cut</text>
</g>
<!-- Cut1&#45;&gt;!p2 -->
<g id="edge12" class="edge">
<title>Cut1&#45;&gt;!p2</title>
<g id="a_edge12"><a xlink:title="e37">
<path fill="none" stroke="red" d="M214,-966.19C214,-958.48 214,-949.21 214,-940.61"/>
<polygon fill="red" stroke="red" points="217.5,-940.6 214,-930.6 210.5,-940.6 217.5,-940.6"/>
</a>
</g>
</g>
<!-- I3 -->
<g id="node18" class="node">
<title>I3</title>
<ellipse fill="none" stroke="black" cx="165" cy="-768.49" rx="27" ry="18"/>
<text text-anchor="middle" x="165" y="-764.79" font-family="Times-Roman" font-size="14.00">I</text>
</g>
<!-- PiR0&#45;&gt;I3 -->
<g id="edge15" class="edge">
<title>PiR0&#45;&gt;I3</title>
<g id="a_edge15"><a xlink:title="e43">
<path fill="none" stroke="red" d="M203.13,-823.96C196.84,-814.99 188.81,-803.51 181.74,-793.41"/>
<polygon fill="red" stroke="red" points="184.45,-791.17 175.84,-784.99 178.71,-795.19 184.45,-791.17"/>
</a>
</g>
</g>
<!-- !c0 -->
<g id="node14" class="node">
<title>!c0</title>
<ellipse fill="none" stroke="black" cx="220" cy="-480.49" rx="27" ry="18"/>
<text text-anchor="middle" x="220" y="-476.79" font-family="Times-Roman" font-size="14.00">!c</text>
</g>
<!-- !c0&#45;&gt;PiR0 -->
<g id="edge14" class="edge">
<title>!c0&#45;&gt;PiR0</title>
<g id="a_edge14"><a xlink:title="e41">
<path fill="none" stroke="blue" d="M220,-508.57C220,-537.15 220,-583.49 220,-623.49 220,-697.49 220,-697.49 220,-697.49 220,-742.65 216.93,-795.81 215.19,-822.46"/>
<polygon fill="blue" stroke="blue" points="223.5,-508.54 220,-498.54 216.5,-508.54 223.5,-508.54"/>
</a>
</g>
</g>
<!-- !d2 -->
<g id="node15" class="node">
<title>!d2</title>
<ellipse fill="none" stroke="black" cx="165" cy="-552.49" rx="27" ry="18"/>
<text text-anchor="middle" x="165" y="-548.79" font-family="Times-Roman" font-size="14.00">!d</text>
</g>
<!-- !d2&#45;&gt;!c0 -->
<g id="edge17" class="edge">
<title>!d2&#45;&gt;!c0</title>
<g id="a_edge17"><a xlink:title="e46">
<path fill="none" stroke="blue" d="M183.17,-528.37C191.37,-517.94 200.81,-505.91 208.09,-496.65"/>
<polygon fill="blue" stroke="blue" points="180.36,-526.28 176.93,-536.31 185.86,-530.61 180.36,-526.28"/>
</a>
</g>
</g>
<!-- PiL1 -->
<g id="node16" class="node">
<title>PiL1</title>
<ellipse fill="none" stroke="black" cx="156" cy="-624.49" rx="27" ry="18"/>
<text text-anchor="middle" x="156" y="-620.79" font-family="Times-Roman" font-size="14.00">PiL</text>
</g>
<!-- PiL1&#45;&gt;!d2 -->
<g id="edge19" class="edge">
<title>PiL1&#45;&gt;!d2</title>
<g id="a_edge19"><a xlink:title="e49">
<path fill="none" stroke="blue" d="M159.47,-596.5C160.58,-587.86 161.78,-578.52 162.78,-570.77"/>
<polygon fill="blue" stroke="blue" points="155.98,-596.19 158.18,-606.55 162.93,-597.08 155.98,-596.19"/>
</a>
</g>
</g>
<!-- !p5 -->
<g id="node32" class="node">
<title>!p5</title>
<ellipse fill="none" stroke="black" cx="93" cy="-552.49" rx="27" ry="18"/>
<text text-anchor="middle" x="93" y="-548.79" font-family="Times-Roman" font-size="14.00">!p</text>
</g>
<!-- PiL1&#45;&gt;!p5 -->
<g id="edge21" class="edge">
<title>PiL1&#45;&gt;!p5</title>
<g id="a_edge21"><a xlink:title="e53">
<path fill="none" stroke="red" d="M142.64,-608.65C134.12,-599.18 122.91,-586.73 113.31,-576.06"/>
<polygon fill="red" stroke="red" points="115.63,-573.41 106.34,-568.32 110.43,-578.09 115.63,-573.41"/>
</a>
</g>
</g>
<!-- PiL2 -->
<g id="node17" class="node">
<title>PiL2</title>
<ellipse fill="none" stroke="black" cx="156" cy="-696.49" rx="27" ry="18"/>
<text text-anchor="middle" x="156" y="-692.79" font-family="Times-Roman" font-size="14.00">PiL</text>
</g>
<!-- PiL2&#45;&gt;PiL1 -->
<g id="edge20" class="edge">
<title>PiL2&#45;&gt;PiL1</title>
<g id="a_edge20"><a xlink:title="e51">
<path fill="none" stroke="blue" d="M156,-668.16C156,-659.55 156,-650.29 156,-642.6"/>
<polygon fill="blue" stroke="blue" points="152.5,-668.19 156,-678.19 159.5,-668.19 152.5,-668.19"/>
</a>
</g>
</g>
<!-- Dup3_1 -->
<g id="node39" class="node">
<title>Dup3_1</title>
<ellipse fill="none" stroke="black" cx="38" cy="-18" rx="29.5" ry="18"/>
<text text-anchor="middle" x="38" y="-14.3" font-family="Times-Roman" font-size="14.00">Dup</text>
</g>
<!-- PiL2&#45;&gt;Dup3_1 -->
<g id="edge25" class="edge">
<title>PiL2&#45;&gt;Dup3_1</title>
<g id="a_edge25"><a xlink:title="e57">
<path fill="none" stroke="red" d="M136.25,-684.02C102.66,-662.86 38,-614.24 38,-553.49 38,-553.49 38,-553.49 38,-161 38,-120.11 38,-72.61 38,-44.22"/>
<ellipse fill="none" stroke="red" cx="38" cy="-40.05" rx="4" ry="4"/>
</a>
</g>
</g>
<!-- I3&#45;&gt;PiL2 -->
<g id="edge23" class="edge">
<title>I3&#45;&gt;PiL2</title>
<g id="a_edge23"><a xlink:title="e55">
<path fill="none" stroke="blue" d="M161.53,-740.5C160.42,-731.86 159.22,-722.52 158.22,-714.77"/>
<polygon fill="blue" stroke="blue" points="158.07,-741.08 162.82,-750.55 165.02,-740.19 158.07,-741.08"/>
</a>
</g>
</g>
<!-- Dup1_1 -->
<g id="node29" class="node">
<title>Dup1_1</title>
<ellipse fill="none" stroke="black" cx="204" cy="-1344.49" rx="29.5" ry="18"/>
<text text-anchor="middle" x="204" y="-1340.79" font-family="Times-Roman" font-size="14.00">Dup</text>
</g>
<!-- PiL3&#45;&gt;Dup1_1 -->
<g id="edge10" class="edge">
<title>PiL3&#45;&gt;Dup1_1</title>
<g id="a_edge10"><a xlink:title="e34">
<path fill="none" stroke="red" d="M228.42,-1398.91C224.39,-1390.1 219.37,-1379.12 214.93,-1369.41"/>
<ellipse fill="red" stroke="red" cx="213.19" cy="-1365.6" rx="4" ry="4"/>
</a>
</g>
</g>
<!-- Cut4 -->
<g id="node35" class="node">
<title>Cut4</title>
<ellipse fill="none" stroke="black" cx="341" cy="-1272.49" rx="27" ry="18"/>
<text text-anchor="middle" x="341" y="-1268.79" font-family="Times-Roman" font-size="14.00">Cut</text>
</g>
<!-- PiL3&#45;&gt;Cut4 -->
<g id="edge22" class="edge">
<title>PiL3&#45;&gt;Cut4</title>
<g id="a_edge22"><a xlink:title="e54">
<path fill="none" stroke="blue" stroke-width="2" d="M253.65,-1391.63C275.27,-1362.38 311.28,-1313.68 329.58,-1288.94"/>
<polygon fill="blue" stroke="blue" stroke-width="2" points="250.57,-1389.91 247.44,-1400.03 256.2,-1394.07 250.57,-1389.91"/>
</a>
</g>
</g>
<!-- PiR1 -->
<g id="node23" class="node">
<title>PiR1</title>
<ellipse fill="none" stroke="black" cx="110" cy="-840.49" rx="27" ry="18"/>
<text text-anchor="middle" x="110" y="-836.79" font-family="Times-Roman" font-size="14.00">PiR</text>
</g>
<!-- !p3&#45;&gt;PiR1 -->
<g id="edge26" class="edge">
<title>!p3&#45;&gt;PiR1</title>
<g id="a_edge26"><a xlink:title="e59">
<path fill="none" stroke="red" d="M130.6,-894.91C127.49,-886.83 123.67,-876.93 120.17,-867.85"/>
<polygon fill="red" stroke="red" points="123.4,-866.52 116.54,-858.45 116.87,-869.04 123.4,-866.52"/>
</a>
</g>
</g>
<!-- !p4 -->
<g id="node21" class="node">
<title>!p4</title>
<ellipse fill="none" stroke="black" cx="294" cy="-840.49" rx="27" ry="18"/>
<text text-anchor="middle" x="294" y="-836.79" font-family="Times-Roman" font-size="14.00">!p</text>
</g>
<!-- PiR2 -->
<g id="node24" class="node">
<title>PiR2</title>
<ellipse fill="none" stroke="black" cx="294" cy="-768.49" rx="27" ry="18"/>
<text text-anchor="middle" x="294" y="-764.79" font-family="Times-Roman" font-size="14.00">PiR</text>
</g>
<!-- !p4&#45;&gt;PiR2 -->
<g id="edge28" class="edge">
<title>!p4&#45;&gt;PiR2</title>
<g id="a_edge28"><a xlink:title="e65">
<path fill="none" stroke="red" d="M294,-822.19C294,-814.48 294,-805.21 294,-796.61"/>
<polygon fill="red" stroke="red" points="297.5,-796.6 294,-786.6 290.5,-796.6 297.5,-796.6"/>
</a>
</g>
</g>
<!-- Cut2 -->
<g id="node22" class="node">
<title>Cut2</title>
<ellipse fill="none" stroke="black" cx="294" cy="-912.49" rx="27" ry="18"/>
<text text-anchor="middle" x="294" y="-908.79" font-family="Times-Roman" font-size="14.00">Cut</text>
</g>
<!-- Cut2&#45;&gt;!p4 -->
<g id="edge27" class="edge">
<title>Cut2&#45;&gt;!p4</title>
<g id="a_edge27"><a xlink:title="e63">
<path fill="none" stroke="red" d="M294,-894.19C294,-886.48 294,-877.21 294,-868.61"/>
<polygon fill="red" stroke="red" points="297.5,-868.6 294,-858.6 290.5,-868.6 297.5,-868.6"/>
</a>
</g>
</g>
<!-- I4 -->
<g id="node26" class="node">
<title>I4</title>
<ellipse fill="none" stroke="black" cx="55" cy="-768.49" rx="27" ry="18"/>
<text text-anchor="middle" x="55" y="-764.79" font-family="Times-Roman" font-size="14.00">I</text>
</g>
<!-- PiR1&#45;&gt;I4 -->
<g id="edge30" class="edge">
<title>PiR1&#45;&gt;I4</title>
<g id="a_edge30"><a xlink:title="e69">
<path fill="none" stroke="red" d="M98.07,-824.31C90.79,-815.04 81.34,-803.02 73.15,-792.59"/>
<polygon fill="red" stroke="red" points="75.84,-790.35 66.91,-784.65 70.34,-794.68 75.84,-790.35"/>
</a>
</g>
</g>
<!-- I6 -->
<g id="node31" class="node">
<title>I6</title>
<ellipse fill="none" stroke="black" cx="313" cy="-696.49" rx="27" ry="18"/>
<text text-anchor="middle" x="313" y="-692.79" font-family="Times-Roman" font-size="14.00">I</text>
</g>
<!-- PiR2&#45;&gt;I6 -->
<g id="edge33" class="edge">
<title>PiR2&#45;&gt;I6</title>
<g id="a_edge33"><a xlink:title="e77">
<path fill="none" stroke="red" d="M298.6,-750.55C300.75,-742.64 303.35,-733.03 305.76,-724.18"/>
<polygon fill="red" stroke="red" points="309.2,-724.85 308.44,-714.28 302.45,-723.02 309.2,-724.85"/>
</a>
</g>
</g>
<!-- !d3 -->
<g id="node25" class="node">
<title>!d3</title>
<ellipse fill="none" stroke="black" cx="74" cy="-696.49" rx="27" ry="18"/>
<text text-anchor="middle" x="74" y="-692.79" font-family="Times-Roman" font-size="14.00">!d</text>
</g>
<!-- !d3&#45;&gt;PiR1 -->
<g id="edge29" class="edge">
<title>!d3&#45;&gt;PiR1</title>
<g id="a_edge29"><a xlink:title="e67">
<path fill="none" stroke="blue" d="M83.01,-723.8C85.76,-732.27 88.67,-741.73 91,-750.49 97.59,-775.23 103.45,-804.3 106.86,-822.31"/>
<polygon fill="blue" stroke="blue" points="86.26,-722.47 79.79,-714.08 79.61,-724.67 86.26,-722.47"/>
</a>
</g>
</g>
<!-- I4&#45;&gt;!d3 -->
<g id="edge34" class="edge">
<title>I4&#45;&gt;!d3</title>
<g id="a_edge34"><a xlink:title="e79">
<path fill="none" stroke="blue" d="M62.29,-740.63C64.7,-731.77 67.3,-722.17 69.44,-714.28"/>
<polygon fill="blue" stroke="blue" points="58.84,-739.98 59.6,-750.55 65.6,-741.82 58.84,-739.98"/>
</a>
</g>
</g>
<!-- I5 -->
<g id="node27" class="node">
<title>I5</title>
<ellipse fill="none" stroke="black" cx="159" cy="-336.49" rx="27" ry="18"/>
<text text-anchor="middle" x="159" y="-332.79" font-family="Times-Roman" font-size="14.00">I</text>
</g>
<!-- Dup3_3 -->
<g id="node41" class="node">
<title>Dup3_3</title>
<ellipse fill="none" stroke="black" cx="159" cy="-249.25" rx="29.47" ry="29.47"/>
<ellipse fill="none" stroke="black" cx="159" cy="-249.25" rx="33.5" ry="33.5"/>
<text text-anchor="middle" x="159" y="-245.55" font-family="Times-Roman" font-size="14.00">Dup</text>
</g>
<!-- I5&#45;&gt;Dup3_3 -->
<g id="edge35" class="edge">
<title>I5&#45;&gt;Dup3_3</title>
<g id="a_edge35"><a xlink:title="e81">
<path fill="none" stroke="blue" stroke-width="2" d="M159,-308.17C159,-300.05 159,-291.06 159,-282.65"/>
<polygon fill="blue" stroke="blue" stroke-width="2" points="155.5,-308.24 159,-318.24 162.5,-308.24 155.5,-308.24"/>
</a>
</g>
</g>
<!-- Dup1_0&#45;&gt;Cut1 -->
<g id="edge7" class="edge">
<title>Dup1_0&#45;&gt;Cut1</title>
<g id="a_edge7"><a xlink:title="e23">
<path fill="none" stroke="blue" d="M214,-1030.13C214,-1020.98 214,-1010.88 214,-1002.6"/>
<ellipse fill="blue" stroke="blue" cx="214" cy="-1034.19" rx="4" ry="4"/>
</a>
</g>
</g>
<!-- Dup3_0 -->
<g id="node38" class="node">
<title>Dup3_0</title>
<ellipse fill="none" stroke="black" cx="294" cy="-984.49" rx="29.5" ry="18"/>
<text text-anchor="middle" x="294" y="-980.79" font-family="Times-Roman" font-size="14.00">Dup</text>
</g>
<!-- Dup1_0&#45;&gt;Dup3_0 -->
<g id="edge8" class="edge">
<title>Dup1_0&#45;&gt;Dup3_0</title>
<g id="a_edge8"><a xlink:title="e25">
<path fill="none" stroke="blue" d="M236.37,-1035.92C249.54,-1024.39 265.91,-1010.07 277.83,-999.64"/>
<ellipse fill="none" stroke="blue" cx="233.2" cy="-1038.7" rx="4" ry="4"/>
</a>
</g>
</g>
<!-- Dup1_1&#45;&gt;!p0 -->
<g id="edge50" class="edge">
<title>Dup1_1&#45;&gt;!p0</title>
<g id="a_edge50"><a xlink:title="ylp">
<path fill="none" stroke="red" d="M204,-1326.19C204,-1318.48 204,-1309.21 204,-1300.61"/>
<polygon fill="red" stroke="red" points="207.5,-1300.6 204,-1290.6 200.5,-1300.6 207.5,-1300.6"/>
</a>
</g>
</g>
<!-- !d4 -->
<g id="node30" class="node">
<title>!d4</title>
<ellipse fill="none" stroke="black" cx="294" cy="-624.49" rx="27" ry="18"/>
<text text-anchor="middle" x="294" y="-620.79" font-family="Times-Roman" font-size="14.00">!d</text>
</g>
<!-- !d4&#45;&gt;PiR2 -->
<g id="edge32" class="edge">
<title>!d4&#45;&gt;PiR2</title>
<g id="a_edge32"><a xlink:title="e75">
<path fill="none" stroke="blue" d="M283.74,-651.95C280.98,-660.31 278.38,-669.67 277,-678.49 274.53,-694.3 274.53,-698.69 277,-714.49 278.94,-726.91 283.3,-740.38 287.11,-750.64"/>
<polygon fill="blue" stroke="blue" points="287.1,-652.95 287.11,-642.35 280.49,-650.63 287.1,-652.95"/>
</a>
</g>
</g>
<!-- I6&#45;&gt;!d4 -->
<g id="edge36" class="edge">
<title>I6&#45;&gt;!d4</title>
<g id="a_edge36"><a xlink:title="e83">
<path fill="none" stroke="blue" d="M305.71,-668.63C303.3,-659.77 300.7,-650.17 298.56,-642.28"/>
<polygon fill="blue" stroke="blue" points="302.4,-669.82 308.4,-678.55 309.16,-667.98 302.4,-669.82"/>
</a>
</g>
</g>
<!-- PiR3 -->
<g id="node33" class="node">
<title>PiR3</title>
<ellipse fill="none" stroke="black" cx="93" cy="-480.49" rx="27" ry="18"/>
<text text-anchor="middle" x="93" y="-476.79" font-family="Times-Roman" font-size="14.00">PiR</text>
</g>
<!-- !p5&#45;&gt;PiR3 -->
<g id="edge37" class="edge">
<title>!p5&#45;&gt;PiR3</title>
<g id="a_edge37"><a xlink:title="e85">
<path fill="none" stroke="red" d="M93,-534.19C93,-526.48 93,-517.21 93,-508.61"/>
<polygon fill="red" stroke="red" points="96.5,-508.6 93,-498.6 89.5,-508.6 96.5,-508.6"/>
</a>
</g>
</g>
<!-- Dup3_2 -->
<g id="node40" class="node">
<title>Dup3_2</title>
<ellipse fill="none" stroke="black" cx="159" cy="-408.49" rx="29.5" ry="18"/>
<text text-anchor="middle" x="159" y="-404.79" font-family="Times-Roman" font-size="14.00">Dup</text>
</g>
<!-- PiR3&#45;&gt;Dup3_2 -->
<g id="edge41" class="edge">
<title>PiR3&#45;&gt;Dup3_2</title>
<g id="a_edge41"><a xlink:title="e89">
<path fill="none" stroke="red" d="M107,-464.65C116.45,-454.63 129.05,-441.26 139.48,-430.19"/>
<ellipse fill="none" stroke="red" cx="142.28" cy="-427.23" rx="4" ry="4"/>
</a>
</g>
</g>
<!-- Cut3 -->
<g id="node34" class="node">
<title>Cut3</title>
<ellipse fill="none" stroke="black" cx="129" cy="-90" rx="27" ry="18"/>
<text text-anchor="middle" x="129" y="-86.3" font-family="Times-Roman" font-size="14.00">Cut</text>
</g>
<!-- Cut3&#45;&gt;Dup3_1 -->
<g id="edge24" class="edge">
<title>Cut3&#45;&gt;Dup3_1</title>
<g id="a_edge24"><a xlink:title="e56">
<path fill="none" stroke="red" d="M111.88,-75.83C97.83,-65.02 77.76,-49.58 62.08,-37.52"/>
<ellipse fill="red" stroke="red" cx="58.83" cy="-35.02" rx="4" ry="4"/>
</a>
</g>
</g>
<!-- Cut4&#45;&gt;Dup3_2 -->
<g id="edge40" class="edge">
<title>Cut4&#45;&gt;Dup3_2</title>
<g id="a_edge40"><a xlink:title="e88">
<path fill="none" stroke="red" stroke-width="2" d="M353.23,-1256.36C372.05,-1231.47 406,-1179.65 406,-1129.49 406,-1129.49 406,-1129.49 406,-551.49 406,-455.72 264.7,-423.59 195.84,-413.62"/>
<ellipse fill="red" stroke="red" stroke-width="2" cx="191.78" cy="-413.06" rx="4" ry="4"/>
</a>
</g>
</g>
<!-- !d5 -->
<g id="node36" class="node">
<title>!d5</title>
<ellipse fill="none" stroke="black" cx="165" cy="-162" rx="27" ry="18"/>
<text text-anchor="middle" x="165" y="-158.3" font-family="Times-Roman" font-size="14.00">!d</text>
</g>
<!-- !d5&#45;&gt;Cut3 -->
<g id="edge38" class="edge">
<title>!d5&#45;&gt;Cut3</title>
<g id="a_edge38"><a xlink:title="e86">
<path fill="none" stroke="blue" d="M151.99,-135.7C147.09,-126.18 141.66,-115.61 137.3,-107.15"/>
<polygon fill="blue" stroke="blue" points="148.96,-137.47 156.65,-144.76 155.19,-134.27 148.96,-137.47"/>
</a>
</g>
</g>
<!-- !d6 -->
<g id="node37" class="node">
<title>!d6</title>
<ellipse fill="none" stroke="black" cx="93" cy="-162" rx="27" ry="18"/>
<text text-anchor="middle" x="93" y="-158.3" font-family="Times-Roman" font-size="14.00">!d</text>
</g>
<!-- !d6&#45;&gt;PiR3 -->
<g id="edge39" class="edge">
<title>!d6&#45;&gt;PiR3</title>
<g id="a_edge39"><a xlink:title="e87">
<path fill="none" stroke="blue" d="M93,-190.15C93,-253.67 93,-410.53 93,-462.48"/>
<polygon fill="blue" stroke="blue" points="96.5,-190.1 93,-180.1 89.5,-190.1 96.5,-190.1"/>
</a>
</g>
</g>
<!-- Dup3_0&#45;&gt;!c0 -->
<g id="edge18" class="edge">
<title>Dup3_0&#45;&gt;!c0</title>
<g id="a_edge18"><a xlink:title="e47">
<path fill="none" stroke="blue" d="M313.23,-962.44C335.16,-936.17 368,-888.91 368,-841.49 368,-841.49 368,-841.49 368,-623.49 368,-554.77 283.88,-508.96 242.48,-490.58"/>
<ellipse fill="none" stroke="blue" cx="310.52" cy="-965.61" rx="4" ry="4"/>
</a>
</g>
</g>
<!-- Dup3_0&#45;&gt;Cut2 -->
<g id="edge16" class="edge">
<title>Dup3_0&#45;&gt;Cut2</title>
<g id="a_edge16"><a xlink:title="e45">
<path fill="none" stroke="blue" d="M294,-958.13C294,-948.98 294,-938.88 294,-930.6"/>
<ellipse fill="blue" stroke="blue" cx="294" cy="-962.19" rx="4" ry="4"/>
</a>
</g>
</g>
<!-- Dup3_1&#45;&gt;Dup1_1 -->
<g id="edge11" class="edge">
<title>Dup3_1&#45;&gt;Dup1_1</title>
<g id="a_edge11"><a xlink:title="e35">
<path fill="none" stroke="red" d="M30.49,-35.66C19.42,-61.8 0,-114.3 0,-161 0,-1201.49 0,-1201.49 0,-1201.49 0,-1282.69 110.19,-1321.24 168.61,-1335.97"/>
<ellipse fill="none" stroke="red" cx="172.6" cy="-1336.94" rx="4" ry="4"/>
</a>
</g>
</g>
<!-- Dup3_2&#45;&gt;I5 -->
<g id="edge31" class="edge">
<title>Dup3_2&#45;&gt;I5</title>
<g id="a_edge31"><a xlink:title="e73">
<path fill="none" stroke="red" stroke-width="2" d="M159,-390.19C159,-382.48 159,-373.21 159,-364.61"/>
<polygon fill="red" stroke="red" stroke-width="2" points="162.5,-364.6 159,-354.6 155.5,-364.6 162.5,-364.6"/>
</a>
</g>
</g>
<!-- Dup3_3&#45;&gt;!d5 -->
<g id="edge43" class="edge">
<title>Dup3_3&#45;&gt;!d5</title>
<g id="a_edge43"><a xlink:title="e90">
<path fill="none" stroke="blue" d="M161.83,-207.97C162.52,-198.29 163.21,-188.45 163.77,-180.46"/>
<ellipse fill="blue" stroke="blue" cx="161.55" cy="-212.03" rx="4" ry="4"/>
</a>
</g>
</g>
<!-- Dup3_3&#45;&gt;!d6 -->
<g id="edge44" class="edge">
<title>Dup3_3&#45;&gt;!d6</title>
<g id="a_edge44"><a xlink:title="e91">
<path fill="none" stroke="blue" d="M133.78,-215.67C123.89,-202.9 113.02,-188.85 104.99,-178.48"/>
<ellipse fill="none" stroke="blue" cx="136.39" cy="-219.04" rx="4" ry="4"/>
</a>
</g>
</g>
</g>
</svg>
