<?xml version="1.0" encoding="UTF-8" standalone="no"?>
<!DOCTYPE svg PUBLIC "-//W3C//DTD SVG 1.1//EN"
 "http://www.w3.org/Graphics/SVG/1.1/DTD/svg11.dtd">
<!-- Generated by graphviz version 2.49.3 (0)
 -->
<!-- Pages: 1 -->
<svg width="579pt" height="1650pt"
 viewBox="0.00 0.00 579.37 1649.80" xmlns="http://www.w3.org/2000/svg" xmlns:xlink="http://www.w3.org/1999/xlink">
<g id="graph0" class="graph" transform="scale(1 1) rotate(0) translate(4 1645.8)">
<polygon fill="white" stroke="transparent" points="-4,4 -4,-1645.8 575.37,-1645.8 575.37,4 -4,4"/>
<!-- Identity0 -->
<g id="node1" class="node">
<title>Identity0</title>
<ellipse fill="none" stroke="black" cx="252.37" cy="-1623.8" rx="38.19" ry="18"/>
<text text-anchor="middle" x="252.37" y="-1620.1" font-family="Times,serif" font-size="14.00">Identity</text>
</g>
<!-- BangD1 -->
<g id="node2" class="node">
<title>BangD1</title>
<ellipse fill="none" stroke="black" cx="252.37" cy="-1536.8" rx="36" ry="18"/>
<text text-anchor="middle" x="252.37" y="-1533.1" font-family="Times,serif" font-size="14.00">BangD</text>
</g>
<!-- BangD1&#45;&gt;Identity0 -->
<g id="edge25" class="edge">
<title>BangD1&#45;&gt;Identity0</title>
<g id="a_edge25"><a xlink:title="iret84">
<path fill="none" stroke="blue" d="M236.54,-1552.95C228.48,-1562.56 221.17,-1575.47 225.37,-1587.8 226.67,-1591.61 228.57,-1595.33 230.77,-1598.84"/>
<polygon fill="blue" stroke="blue" points="228,-1600.98 236.7,-1607.04 233.68,-1596.89 228,-1600.98"/>
</a>
</g>
<text text-anchor="middle" x="228.87" y="-1576.6" font-family="Times,serif" font-size="14.00">3</text>
</g>
<!-- BangD1&#45;&gt;Identity0 -->
<g id="edge26" class="edge">
<title>BangD1&#45;&gt;Identity0</title>
<g id="a_edge26"><a xlink:title="iseq83">
<path fill="none" stroke="black" d="M252.37,-1555C252.37,-1566.63 252.37,-1582.25 252.37,-1595.56"/>
<polygon fill="black" stroke="black" points="248.87,-1595.62 252.37,-1605.62 255.87,-1595.62 248.87,-1595.62"/>
</a>
</g>
<text text-anchor="middle" x="255.87" y="-1576.6" font-family="Times,serif" font-size="14.00">3</text>
</g>
<!-- PiR2 -->
<g id="node3" class="node">
<title>PiR2</title>
<ellipse fill="none" stroke="black" cx="252.37" cy="-1449.8" rx="27" ry="18"/>
<text text-anchor="middle" x="252.37" y="-1446.1" font-family="Times,serif" font-size="14.00">PiR</text>
</g>
<!-- PiR2&#45;&gt;Identity0 -->
<g id="edge50" class="edge">
<title>PiR2&#45;&gt;Identity0</title>
<g id="a_edge50"><a xlink:title="ret82">
<path fill="none" stroke="red" d="M265.98,-1465.66C276.85,-1478.61 291.25,-1498.46 297.37,-1518.8 301.98,-1534.12 301.98,-1539.47 297.37,-1554.8 292.53,-1570.88 282.51,-1586.66 273.15,-1598.96"/>
<polygon fill="red" stroke="red" points="270.34,-1596.88 266.85,-1606.88 275.82,-1601.23 270.34,-1596.88"/>
</a>
</g>
</g>
<!-- PiR2&#45;&gt;BangD1 -->
<g id="edge21" class="edge">
<title>PiR2&#45;&gt;BangD1</title>
<g id="a_edge21"><a xlink:title="i81">
<path fill="none" stroke="blue" d="M237.28,-1465.08C228.93,-1474.78 221.04,-1488.1 225.37,-1500.8 226.69,-1504.69 228.65,-1508.49 230.91,-1512.06"/>
<polygon fill="blue" stroke="blue" points="228.26,-1514.37 236.98,-1520.39 233.92,-1510.25 228.26,-1514.37"/>
</a>
</g>
<text text-anchor="middle" x="228.87" y="-1489.6" font-family="Times,serif" font-size="14.00">3</text>
</g>
<!-- PiR2&#45;&gt;BangD1 -->
<g id="edge53" class="edge">
<title>PiR2&#45;&gt;BangD1</title>
<g id="a_edge53"><a xlink:title="seq80">
<path fill="none" stroke="black" d="M252.37,-1468C252.37,-1479.63 252.37,-1495.25 252.37,-1508.56"/>
<polygon fill="black" stroke="black" points="248.87,-1508.62 252.37,-1518.62 255.87,-1508.62 248.87,-1508.62"/>
</a>
</g>
<text text-anchor="middle" x="255.87" y="-1489.6" font-family="Times,serif" font-size="14.00">3</text>
</g>
<!-- Bang3 -->
<g id="node4" class="node">
<title>Bang3</title>
<ellipse fill="none" stroke="black" cx="252.37" cy="-1362.8" rx="29.5" ry="18"/>
<text text-anchor="middle" x="252.37" y="-1359.1" font-family="Times,serif" font-size="14.00">Bang</text>
</g>
<!-- Bang3&#45;&gt;PiR2 -->
<g id="edge6" class="edge">
<title>Bang3&#45;&gt;PiR2</title>
<g id="a_edge6"><a xlink:title="c_bseq79">
<path fill="none" stroke="black" d="M252.37,-1381C252.37,-1392.63 252.37,-1408.25 252.37,-1421.56"/>
<polygon fill="black" stroke="black" points="248.87,-1421.62 252.37,-1431.62 255.87,-1421.62 248.87,-1421.62"/>
</a>
</g>
<text text-anchor="middle" x="255.87" y="-1402.6" font-family="Times,serif" font-size="14.00">3</text>
</g>
<!-- Bang3&#45;&gt;PiR2 -->
<g id="edge45" class="edge">
<title>Bang3&#45;&gt;PiR2</title>
<g id="a_edge45"><a xlink:title="newrretf78">
<path fill="none" stroke="red" d="M257.05,-1380.75C258.4,-1386.44 259.7,-1392.85 260.37,-1398.8 261.21,-1406.28 260.6,-1414.35 259.4,-1421.78"/>
<polygon fill="red" stroke="red" points="255.94,-1421.23 257.42,-1431.73 262.81,-1422.6 255.94,-1421.23"/>
</a>
</g>
<text text-anchor="middle" x="264.87" y="-1402.6" font-family="Times,serif" font-size="14.00">3</text>
</g>
<!-- Identity4 -->
<g id="node5" class="node">
<title>Identity4</title>
<ellipse fill="none" stroke="black" cx="338.37" cy="-1362.8" rx="38.19" ry="18"/>
<text text-anchor="middle" x="338.37" y="-1359.1" font-family="Times,serif" font-size="14.00">Identity</text>
</g>
<!-- PiL5 -->
<g id="node6" class="node">
<title>PiL5</title>
<ellipse fill="none" stroke="black" cx="282.37" cy="-1275.8" rx="27" ry="18"/>
<text text-anchor="middle" x="282.37" y="-1272.1" font-family="Times,serif" font-size="14.00">PiL</text>
</g>
<!-- PiL5&#45;&gt;Bang3 -->
<g id="edge13" class="edge">
<title>PiL5&#45;&gt;Bang3</title>
<g id="a_edge13"><a xlink:title="dseq76">
<path fill="none" stroke="black" d="M276.44,-1293.59C272.25,-1305.46 266.54,-1321.63 261.74,-1335.24"/>
<polygon fill="black" stroke="black" points="258.31,-1334.44 258.28,-1345.04 264.91,-1336.77 258.31,-1334.44"/>
</a>
</g>
<text text-anchor="middle" x="272.87" y="-1315.6" font-family="Times,serif" font-size="14.00">2</text>
</g>
<!-- PiL5&#45;&gt;Bang3 -->
<g id="edge38" class="edge">
<title>PiL5&#45;&gt;Bang3</title>
<g id="a_edge38"><a xlink:title="newrret74">
<path fill="none" stroke="red" d="M268.08,-1291.26C263.15,-1297.14 258.17,-1304.32 255.37,-1311.8 252.71,-1318.88 251.52,-1326.92 251.09,-1334.46"/>
<polygon fill="red" stroke="red" points="247.59,-1334.56 250.94,-1344.61 254.59,-1334.67 247.59,-1334.56"/>
</a>
</g>
<text text-anchor="middle" x="258.87" y="-1315.6" font-family="Times,serif" font-size="14.00">2</text>
</g>
<!-- PiL5&#45;&gt;Identity4 -->
<g id="edge24" class="edge">
<title>PiL5&#45;&gt;Identity4</title>
<g id="a_edge24"><a xlink:title="idseq77">
<path fill="none" stroke="black" d="M293.01,-1302.43C299.78,-1313.79 308.57,-1327.06 316.69,-1338.18"/>
<polygon fill="black" stroke="black" points="290.96,-1291.85 292.91,-1302.26 284.89,-1295.33 290.96,-1291.85"/>
<polygon fill="black" stroke="black" points="313.9,-1340.3 322.72,-1346.18 319.5,-1336.09 313.9,-1340.3"/>
</a>
</g>
</g>
<!-- PiL5&#45;&gt;Identity4 -->
<g id="edge29" class="edge">
<title>PiL5&#45;&gt;Identity4</title>
<g id="a_edge29"><a xlink:title="lret75">
<path fill="none" stroke="blue" d="M297.08,-1291.21C306.81,-1303.53 319.02,-1321.54 327.81,-1336.29"/>
<polygon fill="blue" stroke="blue" points="324.77,-1338.03 332.79,-1344.97 330.85,-1334.55 324.77,-1338.03"/>
</a>
</g>
</g>
<!-- BangD6 -->
<g id="node7" class="node">
<title>BangD6</title>
<ellipse fill="none" stroke="black" cx="282.37" cy="-1188.8" rx="36" ry="18"/>
<text text-anchor="middle" x="282.37" y="-1185.1" font-family="Times,serif" font-size="14.00">BangD</text>
</g>
<!-- BangD6&#45;&gt;PiL5 -->
<g id="edge20" class="edge">
<title>BangD6&#45;&gt;PiL5</title>
<g id="a_edge20"><a xlink:title="hseq72">
<path fill="none" stroke="black" d="M282.37,-1207C282.37,-1218.63 282.37,-1234.25 282.37,-1247.56"/>
<polygon fill="black" stroke="black" points="278.87,-1247.62 282.37,-1257.62 285.87,-1247.62 278.87,-1247.62"/>
</a>
</g>
<text text-anchor="middle" x="285.87" y="-1228.6" font-family="Times,serif" font-size="14.00">2</text>
</g>
<!-- BangD6&#45;&gt;PiL5 -->
<g id="edge32" class="edge">
<title>BangD6&#45;&gt;PiL5</title>
<g id="a_edge32"><a xlink:title="lval70">
<path fill="none" stroke="blue" d="M287.05,-1206.75C288.4,-1212.44 289.7,-1218.85 290.37,-1224.8 291.21,-1232.28 290.6,-1240.35 289.4,-1247.78"/>
<polygon fill="blue" stroke="blue" points="285.94,-1247.23 287.42,-1257.73 292.81,-1248.6 285.94,-1247.23"/>
</a>
</g>
<text text-anchor="middle" x="294.87" y="-1228.6" font-family="Times,serif" font-size="14.00">2</text>
</g>
<!-- Identity7 -->
<g id="node8" class="node">
<title>Identity7</title>
<ellipse fill="none" stroke="black" cx="516.37" cy="-1362.8" rx="38.19" ry="18"/>
<text text-anchor="middle" x="516.37" y="-1359.1" font-family="Times,serif" font-size="14.00">Identity</text>
</g>
<!-- BangD8 -->
<g id="node9" class="node">
<title>BangD8</title>
<ellipse fill="none" stroke="black" cx="516.37" cy="-1275.8" rx="36" ry="18"/>
<text text-anchor="middle" x="516.37" y="-1272.1" font-family="Times,serif" font-size="14.00">BangD</text>
</g>
<!-- BangD8&#45;&gt;Identity7 -->
<g id="edge69" class="edge">
<title>BangD8&#45;&gt;Identity7</title>
<g id="a_edge69"><a xlink:title="yret60">
<path fill="none" stroke="blue" d="M500.98,-1292.2C496.32,-1297.88 491.79,-1304.68 489.37,-1311.8 486.33,-1320.71 489.31,-1329.93 494.25,-1337.99"/>
<polygon fill="blue" stroke="blue" points="491.49,-1340.14 500.18,-1346.2 497.16,-1336.05 491.49,-1340.14"/>
</a>
</g>
<text text-anchor="middle" x="492.87" y="-1315.6" font-family="Times,serif" font-size="14.00">2</text>
</g>
<!-- BangD8&#45;&gt;Identity7 -->
<g id="edge71" class="edge">
<title>BangD8&#45;&gt;Identity7</title>
<g id="a_edge71"><a xlink:title="yseq59">
<path fill="none" stroke="black" d="M516.37,-1294C516.37,-1305.63 516.37,-1321.25 516.37,-1334.56"/>
<polygon fill="black" stroke="black" points="512.87,-1334.62 516.37,-1344.62 519.87,-1334.62 512.87,-1334.62"/>
</a>
</g>
<text text-anchor="middle" x="519.87" y="-1315.6" font-family="Times,serif" font-size="14.00">2</text>
</g>
<!-- Bang9 -->
<g id="node10" class="node">
<title>Bang9</title>
<ellipse fill="none" stroke="black" cx="516.37" cy="-1188.8" rx="29.5" ry="18"/>
<text text-anchor="middle" x="516.37" y="-1185.1" font-family="Times,serif" font-size="14.00">Bang</text>
</g>
<!-- Bang9&#45;&gt;Identity7 -->
<g id="edge43" class="edge">
<title>Bang9&#45;&gt;Identity7</title>
<g id="a_edge43"><a xlink:title="newrretf57">
<path fill="none" stroke="red" d="M530.19,-1204.92C541.04,-1217.88 555.29,-1237.6 561.37,-1257.8 565.98,-1273.12 565.98,-1278.47 561.37,-1293.8 556.53,-1309.88 546.51,-1325.66 537.15,-1337.96"/>
<polygon fill="red" stroke="red" points="534.34,-1335.88 530.85,-1345.88 539.82,-1340.23 534.34,-1335.88"/>
</a>
</g>
<text text-anchor="middle" x="567.87" y="-1272.1" font-family="Times,serif" font-size="14.00">2</text>
</g>
<!-- Bang9&#45;&gt;BangD8 -->
<g id="edge4" class="edge">
<title>Bang9&#45;&gt;BangD8</title>
<g id="a_edge4"><a xlink:title="c_bseq58">
<path fill="none" stroke="black" d="M516.37,-1207C516.37,-1218.63 516.37,-1234.25 516.37,-1247.56"/>
<polygon fill="black" stroke="black" points="512.87,-1247.62 516.37,-1257.62 519.87,-1247.62 512.87,-1247.62"/>
</a>
</g>
<text text-anchor="middle" x="519.87" y="-1228.6" font-family="Times,serif" font-size="14.00">2</text>
</g>
<!-- Bang9&#45;&gt;BangD8 -->
<g id="edge68" class="edge">
<title>Bang9&#45;&gt;BangD8</title>
<g id="a_edge68"><a xlink:title="yBf56">
<path fill="none" stroke="blue" d="M521.42,-1206.87C523.69,-1216.5 525.61,-1228.79 524.37,-1239.8 524.06,-1242.49 523.63,-1245.28 523.12,-1248.05"/>
<polygon fill="blue" stroke="blue" points="519.7,-1247.33 521.05,-1257.84 526.55,-1248.78 519.7,-1247.33"/>
</a>
</g>
<text text-anchor="middle" x="527.87" y="-1228.6" font-family="Times,serif" font-size="14.00">1</text>
</g>
<!-- Identity10 -->
<g id="node11" class="node">
<title>Identity10</title>
<ellipse fill="none" stroke="black" cx="430.37" cy="-1188.8" rx="38.19" ry="18"/>
<text text-anchor="middle" x="430.37" y="-1185.1" font-family="Times,serif" font-size="14.00">Identity</text>
</g>
<!-- PiL11 -->
<g id="node12" class="node">
<title>PiL11</title>
<ellipse fill="none" stroke="black" cx="443.37" cy="-1101.8" rx="27" ry="18"/>
<text text-anchor="middle" x="443.37" y="-1098.1" font-family="Times,serif" font-size="14.00">PiL</text>
</g>
<!-- PiL11&#45;&gt;Bang9 -->
<g id="edge12" class="edge">
<title>PiL11&#45;&gt;Bang9</title>
<g id="a_edge12"><a xlink:title="dseq54">
<path fill="none" stroke="black" d="M452.06,-1118.95C457.95,-1129.17 466.3,-1142.38 475.37,-1152.8 479.81,-1157.89 485,-1162.89 490.17,-1167.45"/>
<polygon fill="black" stroke="black" points="488.27,-1170.43 498.17,-1174.2 492.79,-1165.08 488.27,-1170.43"/>
</a>
</g>
<text text-anchor="middle" x="478.87" y="-1141.6" font-family="Times,serif" font-size="14.00">1</text>
</g>
<!-- PiL11&#45;&gt;Bang9 -->
<g id="edge37" class="edge">
<title>PiL11&#45;&gt;Bang9</title>
<g id="a_edge37"><a xlink:title="newrret52">
<path fill="none" stroke="red" d="M459.13,-1116.48C465.95,-1122.71 473.85,-1130.34 480.37,-1137.8 487.37,-1145.8 494.37,-1155.14 500.3,-1163.55"/>
<polygon fill="red" stroke="red" points="497.5,-1165.66 506.06,-1171.9 503.26,-1161.68 497.5,-1165.66"/>
</a>
</g>
<text text-anchor="middle" x="494.87" y="-1141.6" font-family="Times,serif" font-size="14.00">1</text>
</g>
<!-- PiL11&#45;&gt;Identity10 -->
<g id="edge23" class="edge">
<title>PiL11&#45;&gt;Identity10</title>
<g id="a_edge23"><a xlink:title="idseq55">
<path fill="none" stroke="black" d="M433.09,-1128.92C430.97,-1138.86 429.21,-1150.22 428.21,-1160.29"/>
<polygon fill="black" stroke="black" points="438.81,-1119.99 433.09,-1128.91 432,-1118.38 438.81,-1119.99"/>
<polygon fill="black" stroke="black" points="424.7,-1160.35 427.45,-1170.58 431.68,-1160.87 424.7,-1160.35"/>
</a>
</g>
</g>
<!-- PiL11&#45;&gt;Identity10 -->
<g id="edge28" class="edge">
<title>PiL11&#45;&gt;Identity10</title>
<g id="a_edge28"><a xlink:title="lret53">
<path fill="none" stroke="blue" d="M446.29,-1120C445.77,-1131.71 443.62,-1147.45 440.83,-1160.82"/>
<polygon fill="blue" stroke="blue" points="437.34,-1160.38 438.46,-1170.91 444.15,-1161.97 437.34,-1160.38"/>
</a>
</g>
</g>
<!-- BangD12 -->
<g id="node13" class="node">
<title>BangD12</title>
<ellipse fill="none" stroke="black" cx="443.37" cy="-1014.8" rx="36" ry="18"/>
<text text-anchor="middle" x="443.37" y="-1011.1" font-family="Times,serif" font-size="14.00">BangD</text>
</g>
<!-- BangD12&#45;&gt;PiL11 -->
<g id="edge31" class="edge">
<title>BangD12&#45;&gt;PiL11</title>
<g id="a_edge31"><a xlink:title="lval48">
<path fill="none" stroke="blue" d="M448.42,-1032.87C450.69,-1042.5 452.61,-1054.79 451.37,-1065.8 451.06,-1068.49 450.63,-1071.28 450.12,-1074.05"/>
<polygon fill="blue" stroke="blue" points="446.7,-1073.33 448.05,-1083.84 453.55,-1074.78 446.7,-1073.33"/>
</a>
</g>
<text text-anchor="middle" x="454.87" y="-1054.6" font-family="Times,serif" font-size="14.00">1</text>
</g>
<!-- BangD12&#45;&gt;PiL11 -->
<g id="edge70" class="edge">
<title>BangD12&#45;&gt;PiL11</title>
<g id="a_edge70"><a xlink:title="yseq50">
<path fill="none" stroke="black" d="M443.37,-1033C443.37,-1044.63 443.37,-1060.25 443.37,-1073.56"/>
<polygon fill="black" stroke="black" points="439.87,-1073.62 443.37,-1083.62 446.87,-1073.62 439.87,-1073.62"/>
</a>
</g>
<text text-anchor="middle" x="446.87" y="-1054.6" font-family="Times,serif" font-size="14.00">1</text>
</g>
<!-- PiR13 -->
<g id="node14" class="node">
<title>PiR13</title>
<ellipse fill="none" stroke="black" cx="280.37" cy="-655" rx="27" ry="18"/>
<text text-anchor="middle" x="280.37" y="-651.3" font-family="Times,serif" font-size="14.00">PiR</text>
</g>
<!-- PiR13&#45;&gt;Identity10 -->
<g id="edge48" class="edge">
<title>PiR13&#45;&gt;Identity10</title>
<g id="a_edge48"><a xlink:title="ret42">
<path fill="none" stroke="red" d="M307.54,-657.29C376.59,-661.32 553.37,-676.56 553.37,-727 553.37,-727 553.37,-727 553.37,-1059.3 553.37,-1106.63 536.61,-1120.12 502.37,-1152.8 493.25,-1161.49 481.57,-1168.42 470.28,-1173.73"/>
<polygon fill="red" stroke="red" points="468.7,-1170.6 460.95,-1177.83 471.51,-1177.02 468.7,-1170.6"/>
</a>
</g>
</g>
<!-- BangC36 -->
<g id="node37" class="node">
<title>BangC36</title>
<ellipse fill="none" stroke="black" cx="280.37" cy="-728" rx="35.19" ry="18"/>
<text text-anchor="middle" x="280.37" y="-724.3" font-family="Times,serif" font-size="14.00">BangC</text>
</g>
<!-- PiR13&#45;&gt;BangC36 -->
<g id="edge16" class="edge">
<title>PiR13&#45;&gt;BangC36</title>
<g id="a_edge16"><a xlink:title="h34">
<path fill="none" stroke="blue" d="M274.53,-672.83C273.67,-680.84 273.42,-690.64 273.78,-699.68"/>
<polygon fill="blue" stroke="blue" points="270.3,-700.07 274.49,-709.8 277.28,-699.58 270.3,-700.07"/>
</a>
</g>
</g>
<!-- PiR13&#45;&gt;BangC36 -->
<g id="edge51" class="edge">
<title>PiR13&#45;&gt;BangC36</title>
<g id="a_edge51"><a xlink:title="seq33">
<path fill="none" stroke="black" d="M286.21,-672.83C287.07,-680.84 287.32,-690.64 286.96,-699.68"/>
<polygon fill="black" stroke="black" points="283.45,-699.58 286.25,-709.8 290.44,-700.07 283.45,-699.58"/>
</a>
</g>
</g>
<!-- Identity14 -->
<g id="node15" class="node">
<title>Identity14</title>
<ellipse fill="none" stroke="black" cx="40.37" cy="-568" rx="38.19" ry="18"/>
<text text-anchor="middle" x="40.37" y="-564.3" font-family="Times,serif" font-size="14.00">Identity</text>
</g>
<!-- Identity15 -->
<g id="node16" class="node">
<title>Identity15</title>
<ellipse fill="none" stroke="black" cx="115.37" cy="-286" rx="38.19" ry="18"/>
<text text-anchor="middle" x="115.37" y="-282.3" font-family="Times,serif" font-size="14.00">Identity</text>
</g>
<!-- PiL16 -->
<g id="node17" class="node">
<title>PiL16</title>
<ellipse fill="none" stroke="black" cx="201.37" cy="-178" rx="27" ry="18"/>
<text text-anchor="middle" x="201.37" y="-174.3" font-family="Times,serif" font-size="14.00">PiL</text>
</g>
<!-- PiL16&#45;&gt;Identity15 -->
<g id="edge22" class="edge">
<title>PiL16&#45;&gt;Identity15</title>
<g id="a_edge22"><a xlink:title="idseq21">
<path fill="none" stroke="black" d="M178.56,-200.29C163.07,-217.52 143.25,-241.82 129.83,-259.98"/>
<polygon fill="black" stroke="black" points="187.97,-195.23 178.63,-200.22 182.82,-190.49 187.97,-195.23"/>
<polygon fill="black" stroke="black" points="126.81,-258.19 123.81,-268.35 132.49,-262.28 126.81,-258.19"/>
</a>
</g>
</g>
<!-- PiL16&#45;&gt;Identity15 -->
<g id="edge27" class="edge">
<title>PiL16&#45;&gt;Identity15</title>
<g id="a_edge27"><a xlink:title="lret19">
<path fill="none" stroke="blue" d="M192.99,-195.56C180.5,-213.45 157.48,-242.07 139.61,-262.11"/>
<polygon fill="blue" stroke="blue" points="136.95,-259.84 132.8,-269.59 142.12,-264.55 136.95,-259.84"/>
</a>
</g>
</g>
<!-- Bang23 -->
<g id="node24" class="node">
<title>Bang23</title>
<ellipse fill="none" stroke="black" cx="201.37" cy="-286" rx="29.5" ry="18"/>
<text text-anchor="middle" x="201.37" y="-282.3" font-family="Times,serif" font-size="14.00">Bang</text>
</g>
<!-- PiL16&#45;&gt;Bang23 -->
<g id="edge11" class="edge">
<title>PiL16&#45;&gt;Bang23</title>
<g id="a_edge11"><a xlink:title="dseq20">
<path fill="none" stroke="black" d="M201.37,-196.03C201.37,-212.62 201.37,-238.12 201.37,-257.57"/>
<polygon fill="black" stroke="black" points="197.87,-257.66 201.37,-267.66 204.87,-257.66 197.87,-257.66"/>
</a>
</g>
<text text-anchor="middle" x="204.87" y="-228.3" font-family="Times,serif" font-size="14.00">0</text>
</g>
<!-- PiL16&#45;&gt;Bang23 -->
<g id="edge36" class="edge">
<title>PiL16&#45;&gt;Bang23</title>
<g id="a_edge36"><a xlink:title="newrret18">
<path fill="none" stroke="red" d="M194.93,-195.84C193.07,-201.52 191.3,-207.96 190.37,-214 187.94,-229.81 187.94,-234.19 190.37,-250 190.79,-252.74 191.38,-255.56 192.08,-258.35"/>
<polygon fill="red" stroke="red" points="188.78,-259.53 194.93,-268.16 195.5,-257.58 188.78,-259.53"/>
</a>
</g>
<text text-anchor="middle" x="193.87" y="-228.3" font-family="Times,serif" font-size="14.00">0</text>
</g>
<!-- Assign17 -->
<g id="node18" class="node">
<title>Assign17</title>
<ellipse fill="none" stroke="black" cx="201.37" cy="-18" rx="35.19" ry="18"/>
<text text-anchor="middle" x="201.37" y="-14.3" font-family="Times,serif" font-size="14.00">Assign</text>
</g>
<!-- Assign17&#45;&gt;Identity15 -->
<g id="edge49" class="edge">
<title>Assign17&#45;&gt;Identity15</title>
<g id="a_edge49"><a xlink:title="ret8">
<path fill="none" stroke="red" d="M188.38,-35.13C180.68,-45.43 171.29,-59.36 165.37,-73 137.98,-136.04 124.28,-216.43 118.63,-257.76"/>
<polygon fill="red" stroke="red" points="115.14,-257.49 117.31,-267.86 122.08,-258.4 115.14,-257.49"/>
</a>
</g>
</g>
<!-- Cut20 -->
<g id="node21" class="node">
<title>Cut20</title>
<ellipse fill="none" stroke="black" cx="201.37" cy="-91" rx="27" ry="18"/>
<text text-anchor="middle" x="201.37" y="-87.3" font-family="Times,serif" font-size="14.00">Cut</text>
</g>
<!-- Assign17&#45;&gt;Cut20 -->
<g id="edge56" class="edge">
<title>Assign17&#45;&gt;Cut20</title>
<g id="a_edge56"><a xlink:title="seqBC94">
<path fill="none" stroke="black" d="M201.37,-36.19C201.37,-44.21 201.37,-53.95 201.37,-62.93"/>
<polygon fill="black" stroke="black" points="197.87,-62.97 201.37,-72.97 204.87,-62.97 197.87,-62.97"/>
</a>
</g>
</g>
<!-- Dup18 -->
<g id="node19" class="node">
<title>Dup18</title>
<ellipse fill="none" stroke="black" cx="280.37" cy="-568" rx="27" ry="18"/>
<text text-anchor="middle" x="280.37" y="-564.3" font-family="Times,serif" font-size="14.00">Dup</text>
</g>
<!-- Dup18&#45;&gt;PiR13 -->
<g id="edge3" class="edge">
<title>Dup18&#45;&gt;PiR13</title>
<g id="a_edge3"><a xlink:title="c_bseq32">
<path fill="none" stroke="black" d="M280.37,-586.2C280.37,-597.84 280.37,-613.45 280.37,-626.76"/>
<polygon fill="black" stroke="black" points="276.87,-626.82 280.37,-636.82 283.87,-626.82 276.87,-626.82"/>
</a>
</g>
<text text-anchor="middle" x="283.87" y="-607.8" font-family="Times,serif" font-size="14.00">1</text>
</g>
<!-- Dup19 -->
<g id="node20" class="node">
<title>Dup19</title>
<ellipse fill="none" stroke="black" cx="352.37" cy="-568" rx="27" ry="18"/>
<text text-anchor="middle" x="352.37" y="-564.3" font-family="Times,serif" font-size="14.00">Dup</text>
</g>
<!-- Dup19&#45;&gt;PiR13 -->
<g id="edge42" class="edge">
<title>Dup19&#45;&gt;PiR13</title>
<g id="a_edge42"><a xlink:title="newrretf31">
<path fill="none" stroke="red" d="M339.5,-584.2C328.44,-597.25 312.33,-616.26 299.72,-631.15"/>
<polygon fill="red" stroke="red" points="296.92,-629.04 293.13,-638.94 302.26,-633.57 296.92,-629.04"/>
</a>
</g>
<text text-anchor="middle" x="324.87" y="-607.8" font-family="Times,serif" font-size="14.00">1</text>
</g>
<!-- Cut20&#45;&gt;PiL16 -->
<g id="edge30" class="edge">
<title>Cut20&#45;&gt;PiL16</title>
<g id="a_edge30"><a xlink:title="lval14">
<path fill="none" stroke="blue" d="M195.86,-108.79C194.55,-120.55 194.28,-136.52 195.04,-150.04"/>
<polygon fill="blue" stroke="blue" points="191.57,-150.56 195.87,-160.24 198.54,-149.99 191.57,-150.56"/>
</a>
</g>
</g>
<!-- Cut20&#45;&gt;PiL16 -->
<g id="edge64" class="edge">
<title>Cut20&#45;&gt;PiL16</title>
<g id="a_edge64"><a xlink:title="xseq16">
<path fill="none" stroke="black" d="M207.7,-119C208.26,-128.94 208.26,-140.18 207.7,-150.11"/>
<polygon fill="black" stroke="black" points="210.36,-108.51 207.68,-118.76 203.38,-109.08 210.36,-108.51"/>
<polygon fill="black" stroke="black" points="204.19,-149.99 206.87,-160.24 211.17,-150.56 204.19,-149.99"/>
</a>
</g>
</g>
<!-- Lift21 -->
<g id="node22" class="node">
<title>Lift21</title>
<ellipse fill="none" stroke="black" cx="307.37" cy="-232" rx="27" ry="18"/>
<text text-anchor="middle" x="307.37" y="-228.3" font-family="Times,serif" font-size="14.00">Lift</text>
</g>
<!-- Cut20&#45;&gt;Lift21 -->
<g id="edge62" class="edge">
<title>Cut20&#45;&gt;Lift21</title>
<g id="a_edge62"><a xlink:title="seqDS95">
<path fill="none" stroke="black" d="M213.12,-107.41C231.58,-131.62 267.53,-178.76 289.3,-207.31"/>
<polygon fill="black" stroke="black" points="286.72,-209.7 295.57,-215.52 292.29,-205.45 286.72,-209.7"/>
</a>
</g>
<text text-anchor="middle" x="242.87" y="-130.8" font-family="Times,serif" font-size="14.00">0</text>
</g>
<!-- Lift22 -->
<g id="node23" class="node">
<title>Lift22</title>
<ellipse fill="none" stroke="black" cx="359.37" cy="-340" rx="27" ry="18"/>
<text text-anchor="middle" x="359.37" y="-336.3" font-family="Times,serif" font-size="14.00">Lift</text>
</g>
<!-- Cut20&#45;&gt;Lift22 -->
<g id="edge60" class="edge">
<title>Cut20&#45;&gt;Lift22</title>
<g id="a_edge60"><a xlink:title="seqDM96">
<path fill="none" stroke="red" d="M221.2,-103.24C251.96,-121.85 310.43,-162.23 337.37,-214 353.46,-244.92 358.06,-285.36 359.23,-311.75"/>
<polygon fill="red" stroke="red" points="355.74,-311.91 359.54,-321.79 362.73,-311.69 355.74,-311.91"/>
</a>
</g>
<text text-anchor="middle" x="328.87" y="-174.3" font-family="Times,serif" font-size="14.00">0</text>
</g>
<!-- Lift21&#45;&gt;Dup18 -->
<g id="edge7" class="edge">
<title>Lift21&#45;&gt;Dup18</title>
<g id="a_edge7"><a xlink:title="c_bseq86">
<path fill="none" stroke="black" d="M308.42,-250.25C309.6,-271.22 311.37,-307.69 311.37,-339 311.37,-339 311.37,-339 311.37,-482 311.37,-503.14 302.8,-525.55 294.67,-542.04"/>
<polygon fill="black" stroke="black" points="291.51,-540.53 290.01,-551.02 297.72,-543.76 291.51,-540.53"/>
</a>
</g>
<text text-anchor="middle" x="314.87" y="-390.3" font-family="Times,serif" font-size="14.00">1</text>
</g>
<!-- Lift22&#45;&gt;Dup19 -->
<g id="edge46" class="edge">
<title>Lift22&#45;&gt;Dup19</title>
<g id="a_edge46"><a xlink:title="newrretf87">
<path fill="none" stroke="red" d="M358.83,-358.36C357.62,-397.48 354.67,-492.79 353.21,-539.83"/>
<polygon fill="red" stroke="red" points="349.71,-539.79 352.9,-549.89 356.71,-540 349.71,-539.79"/>
</a>
</g>
<text text-anchor="middle" x="359.87" y="-433.8" font-family="Times,serif" font-size="14.00">1</text>
</g>
<!-- Bang23&#45;&gt;Identity14 -->
<g id="edge41" class="edge">
<title>Bang23&#45;&gt;Identity14</title>
<g id="a_edge41"><a xlink:title="newrretf23">
<path fill="none" stroke="red" d="M179.7,-298.13C136.57,-321.68 41,-381.16 4.37,-463 -7.45,-489.4 7.3,-520.94 21.32,-542.31"/>
<polygon fill="red" stroke="red" points="18.64,-544.58 27.21,-550.81 24.39,-540.59 18.64,-544.58"/>
</a>
</g>
<text text-anchor="middle" x="25.87" y="-433.8" font-family="Times,serif" font-size="14.00">1</text>
</g>
<!-- Cut24 -->
<g id="node25" class="node">
<title>Cut24</title>
<ellipse fill="none" stroke="black" cx="184.37" cy="-394" rx="27" ry="18"/>
<text text-anchor="middle" x="184.37" y="-390.3" font-family="Times,serif" font-size="14.00">Cut</text>
</g>
<!-- Bang23&#45;&gt;Cut24 -->
<g id="edge33" class="edge">
<title>Bang23&#45;&gt;Cut24</title>
<g id="a_edge33"><a xlink:title="newcut_bseq100">
<path fill="none" stroke="black" d="M198.64,-304.03C195.96,-320.72 191.84,-346.42 188.71,-365.92"/>
<polygon fill="black" stroke="black" points="185.22,-365.58 187.09,-376.01 192.13,-366.69 185.22,-365.58"/>
</a>
</g>
<text text-anchor="middle" x="199.87" y="-336.3" font-family="Times,serif" font-size="14.00">1</text>
</g>
<!-- Lift25 -->
<g id="node26" class="node">
<title>Lift25</title>
<ellipse fill="none" stroke="black" cx="40.37" cy="-481" rx="27" ry="18"/>
<text text-anchor="middle" x="40.37" y="-477.3" font-family="Times,serif" font-size="14.00">Lift</text>
</g>
<!-- Cut24&#45;&gt;Lift25 -->
<g id="edge57" class="edge">
<title>Cut24&#45;&gt;Lift25</title>
<g id="a_edge57"><a xlink:title="seqDD103">
<path fill="none" stroke="black" d="M155.97,-411.76C130.67,-426.7 93.84,-448.44 68.59,-463.34"/>
<polygon fill="black" stroke="black" points="166.43,-409.65 156.04,-411.72 162.87,-403.63 166.43,-409.65"/>
<polygon fill="black" stroke="black" points="66.68,-460.4 59.85,-468.5 70.24,-466.43 66.68,-460.4"/>
</a>
</g>
<text text-anchor="middle" x="124.87" y="-433.8" font-family="Times,serif" font-size="14.00">0</text>
</g>
<!-- Lift26 -->
<g id="node27" class="node">
<title>Lift26</title>
<ellipse fill="none" stroke="black" cx="184.37" cy="-481" rx="27" ry="18"/>
<text text-anchor="middle" x="184.37" y="-477.3" font-family="Times,serif" font-size="14.00">Lift</text>
</g>
<!-- Cut24&#45;&gt;Lift26 -->
<g id="edge61" class="edge">
<title>Cut24&#45;&gt;Lift26</title>
<g id="a_edge61"><a xlink:title="seqDS101">
<path fill="none" stroke="black" d="M184.37,-412.2C184.37,-423.84 184.37,-439.45 184.37,-452.76"/>
<polygon fill="black" stroke="black" points="180.87,-452.82 184.37,-462.82 187.87,-452.82 180.87,-452.82"/>
</a>
</g>
<text text-anchor="middle" x="187.87" y="-433.8" font-family="Times,serif" font-size="14.00">0</text>
</g>
<!-- Lift27 -->
<g id="node28" class="node">
<title>Lift27</title>
<ellipse fill="none" stroke="black" cx="112.37" cy="-481" rx="27" ry="18"/>
<text text-anchor="middle" x="112.37" y="-477.3" font-family="Times,serif" font-size="14.00">Lift</text>
</g>
<!-- Cut24&#45;&gt;Lift27 -->
<g id="edge58" class="edge">
<title>Cut24&#45;&gt;Lift27</title>
<g id="a_edge58"><a xlink:title="seqDE104">
<path fill="none" stroke="blue" d="M171.5,-410.2C160.44,-423.25 144.33,-442.26 131.72,-457.15"/>
<polygon fill="blue" stroke="blue" points="128.92,-455.04 125.13,-464.94 134.26,-459.57 128.92,-455.04"/>
</a>
</g>
<text text-anchor="middle" x="156.87" y="-433.8" font-family="Times,serif" font-size="14.00">0</text>
</g>
<!-- Lift28 -->
<g id="node29" class="node">
<title>Lift28</title>
<ellipse fill="none" stroke="black" cx="256.37" cy="-481" rx="27" ry="18"/>
<text text-anchor="middle" x="256.37" y="-477.3" font-family="Times,serif" font-size="14.00">Lift</text>
</g>
<!-- Cut24&#45;&gt;Lift28 -->
<g id="edge59" class="edge">
<title>Cut24&#45;&gt;Lift28</title>
<g id="a_edge59"><a xlink:title="seqDM102">
<path fill="none" stroke="red" d="M197.24,-410.2C208.3,-423.25 224.4,-442.26 237.01,-457.15"/>
<polygon fill="red" stroke="red" points="234.47,-459.57 243.61,-464.94 239.81,-455.04 234.47,-459.57"/>
</a>
</g>
<text text-anchor="middle" x="228.87" y="-433.8" font-family="Times,serif" font-size="14.00">0</text>
</g>
<!-- Lift25&#45;&gt;Identity14 -->
<g id="edge65" class="edge">
<title>Lift25&#45;&gt;Identity14</title>
<g id="a_edge65"><a xlink:title="xseq25">
<path fill="none" stroke="black" d="M40.37,-499.2C40.37,-510.84 40.37,-526.45 40.37,-539.76"/>
<polygon fill="black" stroke="black" points="36.87,-539.82 40.37,-549.82 43.87,-539.82 36.87,-539.82"/>
</a>
</g>
<text text-anchor="middle" x="43.87" y="-520.8" font-family="Times,serif" font-size="14.00">1</text>
</g>
<!-- Lift26&#45;&gt;Dup18 -->
<g id="edge8" class="edge">
<title>Lift26&#45;&gt;Dup18</title>
<g id="a_edge8"><a xlink:title="c_bseq90">
<path fill="none" stroke="black" d="M200.22,-496.04C215.74,-509.78 239.55,-530.86 257.19,-546.48"/>
<polygon fill="none" stroke="black" points="255,-549.22 264.81,-553.23 259.64,-543.98 255,-549.22"/>
</a>
</g>
<text text-anchor="middle" x="241.87" y="-520.8" font-family="Times,serif" font-size="14.00">1</text>
</g>
<!-- Lift27&#45;&gt;Identity14 -->
<g id="edge63" class="edge">
<title>Lift27&#45;&gt;Identity14</title>
<g id="a_edge63"><a xlink:title="xret26">
<path fill="none" stroke="blue" d="M99.5,-497.2C88.64,-510.01 72.93,-528.56 60.42,-543.32"/>
<polygon fill="blue" stroke="blue" points="57.65,-541.18 53.86,-551.07 63,-545.7 57.65,-541.18"/>
</a>
</g>
<text text-anchor="middle" x="84.87" y="-520.8" font-family="Times,serif" font-size="14.00">1</text>
</g>
<!-- Lift28&#45;&gt;Dup19 -->
<g id="edge47" class="edge">
<title>Lift28&#45;&gt;Dup19</title>
<g id="a_edge47"><a xlink:title="newrretf91">
<path fill="none" stroke="red" d="M272.22,-496.04C287.74,-509.78 311.55,-530.86 329.19,-546.48"/>
<polygon fill="none" stroke="red" points="327,-549.22 336.81,-553.23 331.64,-543.98 327,-549.22"/>
</a>
</g>
<text text-anchor="middle" x="313.87" y="-520.8" font-family="Times,serif" font-size="14.00">1</text>
</g>
<!-- Dup29 -->
<g id="node30" class="node">
<title>Dup29</title>
<ellipse fill="none" stroke="black" cx="282.37" cy="-1101.8" rx="27" ry="18"/>
<text text-anchor="middle" x="282.37" y="-1098.1" font-family="Times,serif" font-size="14.00">Dup</text>
</g>
<!-- Dup29&#45;&gt;BangD6 -->
<g id="edge5" class="edge">
<title>Dup29&#45;&gt;BangD6</title>
<g id="a_edge5"><a xlink:title="c_bseq67">
<path fill="none" stroke="black" d="M282.37,-1120C282.37,-1131.63 282.37,-1147.25 282.37,-1160.56"/>
<polygon fill="black" stroke="black" points="278.87,-1160.62 282.37,-1170.62 285.87,-1160.62 278.87,-1160.62"/>
</a>
</g>
<text text-anchor="middle" x="285.87" y="-1141.6" font-family="Times,serif" font-size="14.00">2</text>
</g>
<!-- Dup30 -->
<g id="node31" class="node">
<title>Dup30</title>
<ellipse fill="none" stroke="black" cx="354.37" cy="-1101.8" rx="27" ry="18"/>
<text text-anchor="middle" x="354.37" y="-1098.1" font-family="Times,serif" font-size="14.00">Dup</text>
</g>
<!-- Dup30&#45;&gt;Identity4 -->
<g id="edge44" class="edge">
<title>Dup30&#45;&gt;Identity4</title>
<g id="a_edge44"><a xlink:title="newrretf66">
<path fill="none" stroke="red" d="M353.32,-1119.79C350.61,-1163.69 343.35,-1281.2 340.04,-1334.65"/>
<polygon fill="red" stroke="red" points="336.54,-1334.54 339.42,-1344.74 343.53,-1334.97 336.54,-1334.54"/>
</a>
</g>
<text text-anchor="middle" x="349.87" y="-1228.6" font-family="Times,serif" font-size="14.00">2</text>
</g>
<!-- Dup31 -->
<g id="node32" class="node">
<title>Dup31</title>
<ellipse fill="none" stroke="black" cx="210.37" cy="-1101.8" rx="27" ry="18"/>
<text text-anchor="middle" x="210.37" y="-1098.1" font-family="Times,serif" font-size="14.00">Dup</text>
</g>
<!-- Dup31&#45;&gt;BangD6 -->
<g id="edge19" class="edge">
<title>Dup31&#45;&gt;BangD6</title>
<g id="a_edge19"><a xlink:title="hf65">
<path fill="none" stroke="blue" d="M223.24,-1117.99C234.09,-1130.8 249.81,-1149.36 262.31,-1164.12"/>
<polygon fill="blue" stroke="blue" points="259.74,-1166.5 268.87,-1171.87 265.08,-1161.97 259.74,-1166.5"/>
</a>
</g>
<text text-anchor="middle" x="254.87" y="-1141.6" font-family="Times,serif" font-size="14.00">1</text>
</g>
<!-- Bang32 -->
<g id="node33" class="node">
<title>Bang32</title>
<ellipse fill="none" stroke="black" cx="360.37" cy="-1014.8" rx="29.5" ry="18"/>
<text text-anchor="middle" x="360.37" y="-1011.1" font-family="Times,serif" font-size="14.00">Bang</text>
</g>
<!-- Bang32&#45;&gt;Dup29 -->
<g id="edge1" class="edge">
<title>Bang32&#45;&gt;Dup29</title>
<g id="a_edge1"><a xlink:title="c_bseq106">
<path fill="none" stroke="black" d="M346.42,-1030.99C334.26,-1044.25 316.45,-1063.65 302.7,-1078.64"/>
<polygon fill="black" stroke="black" points="300.11,-1076.28 295.93,-1086.02 305.27,-1081.01 300.11,-1076.28"/>
</a>
</g>
<text text-anchor="middle" x="328.87" y="-1054.6" font-family="Times,serif" font-size="14.00">2</text>
</g>
<!-- Bang32&#45;&gt;Dup30 -->
<g id="edge39" class="edge">
<title>Bang32&#45;&gt;Dup30</title>
<g id="a_edge39"><a xlink:title="newrretf108">
<path fill="none" stroke="red" d="M359.15,-1033C358.33,-1044.63 357.23,-1060.25 356.29,-1073.56"/>
<polygon fill="red" stroke="red" points="352.79,-1073.4 355.58,-1083.62 359.78,-1073.89 352.79,-1073.4"/>
</a>
</g>
<text text-anchor="middle" x="360.87" y="-1054.6" font-family="Times,serif" font-size="14.00">2</text>
</g>
<!-- Bang32&#45;&gt;Dup31 -->
<g id="edge17" class="edge">
<title>Bang32&#45;&gt;Dup31</title>
<g id="a_edge17"><a xlink:title="hf107">
<path fill="none" stroke="blue" d="M339.51,-1027.61C313.51,-1042.35 268.91,-1067.62 239.53,-1084.27"/>
<polygon fill="blue" stroke="blue" points="237.54,-1081.37 230.57,-1089.35 240.99,-1087.46 237.54,-1081.37"/>
</a>
</g>
<text text-anchor="middle" x="297.87" y="-1054.6" font-family="Times,serif" font-size="14.00">1</text>
</g>
<!-- Bang33 -->
<g id="node34" class="node">
<title>Bang33</title>
<ellipse fill="none" stroke="black" cx="259.37" cy="-960.8" rx="29.5" ry="18"/>
<text text-anchor="middle" x="259.37" y="-957.1" font-family="Times,serif" font-size="14.00">Bang</text>
</g>
<!-- Bang33&#45;&gt;Dup29 -->
<g id="edge2" class="edge">
<title>Bang33&#45;&gt;Dup29</title>
<g id="a_edge2"><a xlink:title="c_bseq112">
<path fill="none" stroke="black" d="M262.19,-978.84C266.1,-1002.5 273.22,-1045.54 277.87,-1073.64"/>
<polygon fill="none" stroke="black" points="274.44,-1074.32 279.52,-1083.61 281.34,-1073.18 274.44,-1074.32"/>
</a>
</g>
<text text-anchor="middle" x="274.87" y="-1011.1" font-family="Times,serif" font-size="14.00">2</text>
</g>
<!-- Bang33&#45;&gt;Dup30 -->
<g id="edge40" class="edge">
<title>Bang33&#45;&gt;Dup30</title>
<g id="a_edge40"><a xlink:title="newrretf114">
<path fill="none" stroke="red" d="M270.27,-977.74C286.8,-1001.94 318.35,-1048.1 337.76,-1076.49"/>
<polygon fill="none" stroke="red" points="335.06,-1078.76 343.6,-1085.04 340.84,-1074.81 335.06,-1078.76"/>
</a>
</g>
<text text-anchor="middle" x="310.87" y="-1011.1" font-family="Times,serif" font-size="14.00">2</text>
</g>
<!-- Bang33&#45;&gt;Dup31 -->
<g id="edge18" class="edge">
<title>Bang33&#45;&gt;Dup31</title>
<g id="a_edge18"><a xlink:title="hf113">
<path fill="none" stroke="blue" d="M253.46,-978.56C245.07,-1002.36 229.63,-1046.16 219.69,-1074.35"/>
<polygon fill="none" stroke="blue" points="216.32,-1073.37 216.3,-1083.97 222.92,-1075.7 216.32,-1073.37"/>
</a>
</g>
<text text-anchor="middle" x="250.87" y="-1011.1" font-family="Times,serif" font-size="14.00">1</text>
</g>
<!-- Cut34 -->
<g id="node35" class="node">
<title>Cut34</title>
<ellipse fill="none" stroke="black" cx="390.37" cy="-897.4" rx="23.31" ry="23.31"/>
<ellipse fill="none" stroke="black" cx="390.37" cy="-897.4" rx="27.3" ry="27.3"/>
<text text-anchor="middle" x="390.37" y="-893.7" font-family="Times,serif" font-size="14.00">Cut</text>
</g>
<!-- Cut34&#45;&gt;BangD12 -->
<g id="edge52" class="edge">
<title>Cut34&#45;&gt;BangD12</title>
<g id="a_edge52"><a xlink:title="seq45">
<path fill="none" stroke="black" d="M416.71,-924.92C421.14,-930.48 425.29,-936.56 428.37,-942.8 435.05,-956.35 438.76,-972.79 440.82,-986.43"/>
<polygon fill="black" stroke="black" points="412.77,-914.92 416.6,-924.8 407.45,-919.46 412.77,-914.92"/>
<polygon fill="black" stroke="black" points="437.39,-987.2 442.14,-996.67 444.33,-986.3 437.39,-987.2"/>
</a>
</g>
<text text-anchor="middle" x="442.87" y="-957.1" font-family="Times,serif" font-size="14.00">1</text>
</g>
<!-- Cut34&#45;&gt;BangD12 -->
<g id="edge66" class="edge">
<title>Cut34&#45;&gt;BangD12</title>
<g id="a_edge66"><a xlink:title="yA43">
<path fill="none" stroke="blue" stroke-width="2" d="M399.66,-923.39C405.87,-939.45 414.5,-960.63 423.37,-978.8 424.92,-981.97 426.64,-985.26 428.4,-988.49"/>
<polygon fill="blue" stroke="blue" stroke-width="2" points="425.4,-990.3 433.36,-997.3 431.5,-986.87 425.4,-990.3"/>
</a>
</g>
<text text-anchor="middle" x="426.87" y="-957.1" font-family="Times,serif" font-size="14.00">1</text>
</g>
<!-- Cut34&#45;&gt;Bang32 -->
<g id="edge9" class="edge">
<title>Cut34&#45;&gt;Bang32</title>
<g id="a_edge9"><a xlink:title="dseq109">
<path fill="none" stroke="black" d="M374.29,-919.94C369.94,-926.89 365.78,-934.85 363.37,-942.8 359.1,-956.86 358.16,-973.22 358.37,-986.68"/>
<polygon fill="black" stroke="black" points="354.87,-986.9 358.74,-996.76 361.87,-986.64 354.87,-986.9"/>
</a>
</g>
<text text-anchor="middle" x="366.87" y="-957.1" font-family="Times,serif" font-size="14.00">1</text>
</g>
<!-- Cut34&#45;&gt;Bang32 -->
<g id="edge34" class="edge">
<title>Cut34&#45;&gt;Bang32</title>
<g id="a_edge34"><a xlink:title="newrret111">
<path fill="none" stroke="red" d="M383.71,-924.01C378.84,-942.72 372.26,-968.04 367.33,-987.02"/>
<polygon fill="red" stroke="red" points="363.91,-986.27 364.78,-996.83 370.68,-988.03 363.91,-986.27"/>
</a>
</g>
<text text-anchor="middle" x="380.87" y="-957.1" font-family="Times,serif" font-size="14.00">1</text>
</g>
<!-- Cut35 -->
<g id="node36" class="node">
<title>Cut35</title>
<ellipse fill="none" stroke="black" cx="280.37" cy="-801" rx="27" ry="18"/>
<text text-anchor="middle" x="280.37" y="-797.3" font-family="Times,serif" font-size="14.00">Cut</text>
</g>
<!-- Cut35&#45;&gt;Bang9 -->
<g id="edge67" class="edge">
<title>Cut35&#45;&gt;Bang9</title>
<g id="a_edge67"><a xlink:title="yB44">
<path fill="none" stroke="blue" d="M306.41,-806.72C367.6,-818.56 515.37,-851.77 515.37,-896.4 515.37,-896.4 515.37,-896.4 515.37,-1059.3 515.37,-1094.24 515.74,-1134.52 516.03,-1160.54"/>
<polygon fill="blue" stroke="blue" points="512.54,-1160.79 516.15,-1170.75 519.53,-1160.71 512.54,-1160.79"/>
</a>
</g>
<text text-anchor="middle" x="518.87" y="-1011.1" font-family="Times,serif" font-size="14.00">1</text>
</g>
<!-- Cut35&#45;&gt;Bang33 -->
<g id="edge10" class="edge">
<title>Cut35&#45;&gt;Bang33</title>
<g id="a_edge10"><a xlink:title="dseq115">
<path fill="none" stroke="black" d="M273.74,-818.49C271.68,-824.26 269.63,-830.83 268.37,-837 261.76,-869.29 259.85,-907.23 259.37,-932.3"/>
<polygon fill="black" stroke="black" points="255.87,-932.48 259.24,-942.52 262.87,-932.57 255.87,-932.48"/>
</a>
</g>
<text text-anchor="middle" x="271.87" y="-840.8" font-family="Times,serif" font-size="14.00">1</text>
</g>
<!-- Cut35&#45;&gt;Bang33 -->
<g id="edge35" class="edge">
<title>Cut35&#45;&gt;Bang33</title>
<g id="a_edge35"><a xlink:title="newrret117">
<path fill="none" stroke="red" d="M282.02,-818.99C283.85,-842.97 285.48,-887.94 276.37,-924.8 275.57,-928.01 274.46,-931.27 273.18,-934.45"/>
<polygon fill="red" stroke="red" points="269.97,-933.05 268.99,-943.6 276.34,-935.97 269.97,-933.05"/>
</a>
</g>
<text text-anchor="middle" x="287.87" y="-840.8" font-family="Times,serif" font-size="14.00">1</text>
</g>
<!-- Cut35&#45;&gt;Cut34 -->
<g id="edge55" class="edge">
<title>Cut35&#45;&gt;Cut34</title>
<g id="a_edge55"><a xlink:title="seqBC118">
<path fill="none" stroke="black" d="M312.28,-815.34C323.74,-821.01 336.3,-828.34 346.37,-837 355.62,-844.96 364.08,-855.21 371.04,-864.94"/>
<polygon fill="black" stroke="black" points="304.49,-807.79 312.04,-815.22 301.5,-814.13 304.49,-807.79"/>
<polygon fill="black" stroke="black" points="368.23,-867.03 376.77,-873.3 374,-863.07 368.23,-867.03"/>
</a>
</g>
</g>
<!-- BangC36&#45;&gt;Bang32 -->
<g id="edge14" class="edge">
<title>BangC36&#45;&gt;Bang32</title>
<g id="a_edge14"><a xlink:title="h110">
<path fill="none" stroke="blue" d="M293.56,-745.05C301.34,-755.31 310.74,-769.23 316.37,-783 320.22,-792.42 344.81,-927.42 355.46,-986.48"/>
<polygon fill="blue" stroke="blue" points="352.06,-987.35 357.28,-996.57 358.95,-986.11 352.06,-987.35"/>
</a>
</g>
<text text-anchor="middle" x="332.87" y="-840.8" font-family="Times,serif" font-size="14.00">1</text>
</g>
<!-- BangC36&#45;&gt;Bang33 -->
<g id="edge15" class="edge">
<title>BangC36&#45;&gt;Bang33</title>
<g id="a_edge15"><a xlink:title="h116">
<path fill="none" stroke="blue" d="M256.57,-751.83C248.91,-760.74 241.36,-771.57 237.37,-783 219.44,-834.29 236.47,-898.43 248.93,-933.64"/>
<polygon fill="blue" stroke="blue" points="266.13,-746.59 256.79,-751.59 260.97,-741.86 266.13,-746.59"/>
<polygon fill="blue" stroke="blue" points="245.7,-935.01 252.45,-943.18 252.27,-932.59 245.7,-935.01"/>
</a>
</g>
<text text-anchor="middle" x="240.87" y="-797.3" font-family="Times,serif" font-size="14.00">1</text>
</g>
<!-- BangC36&#45;&gt;Cut35 -->
<g id="edge54" class="edge">
<title>BangC36&#45;&gt;Cut35</title>
<g id="a_edge54"><a xlink:title="seqBB119">
<path fill="none" stroke="black" d="M280.37,-746.19C280.37,-754.21 280.37,-763.95 280.37,-772.93"/>
<polygon fill="black" stroke="black" points="276.87,-772.97 280.37,-782.97 283.87,-772.97 276.87,-772.97"/>
</a>
</g>
</g>
</g>
</svg>
