<?xml version="1.0" encoding="UTF-8" standalone="no"?>
<!DOCTYPE svg PUBLIC "-//W3C//DTD SVG 1.1//EN"
 "http://www.w3.org/Graphics/SVG/1.1/DTD/svg11.dtd">
<!-- Generated by graphviz version 2.43.0 (0)
 -->
<!-- Title: %3 Pages: 1 -->
<svg width="358pt" height="789pt"
 viewBox="0.00 0.00 358.00 789.30" xmlns="http://www.w3.org/2000/svg" xmlns:xlink="http://www.w3.org/1999/xlink">
<g id="graph0" class="graph" transform="scale(1 1) rotate(0) translate(4 785.3)">
<title>%3</title>
<polygon fill="white" stroke="transparent" points="-4,4 -4,-785.3 354,-785.3 354,4 -4,4"/>
<!-- Root0 -->
<g id="node1" class="node">
<title>Root0</title>
<ellipse fill="none" stroke="black" cx="205" cy="-763.3" rx="30.59" ry="18"/>
<text text-anchor="middle" x="205" y="-759.6" font-family="Times-Roman" font-size="14.00">Root</text>
</g>
<!-- I4 -->
<g id="node18" class="node">
<title>I4</title>
<ellipse fill="none" stroke="black" cx="205" cy="-691.3" rx="27" ry="18"/>
<text text-anchor="middle" x="205" y="-687.6" font-family="Times-Roman" font-size="14.00">I</text>
</g>
<!-- Root0&#45;&gt;I4 -->
<g id="edge29" class="edge">
<title>Root0&#45;&gt;I4</title>
<g id="a_edge29"><a xlink:title="rettop">
<path fill="none" stroke="red" stroke-width="2" d="M205,-744.99C205,-737.28 205,-728.01 205,-719.41"/>
<polygon fill="red" stroke="red" stroke-width="2" points="208.5,-719.4 205,-709.4 201.5,-719.4 208.5,-719.4"/>
</a>
</g>
</g>
<!-- PiL0 -->
<g id="node2" class="node">
<title>PiL0</title>
<ellipse fill="none" stroke="black" cx="169" cy="-547.3" rx="27" ry="18"/>
<text text-anchor="middle" x="169" y="-543.6" font-family="Times-Roman" font-size="14.00">PiL</text>
</g>
<!-- !p0 -->
<g id="node4" class="node">
<title>!p0</title>
<ellipse fill="none" stroke="black" cx="85" cy="-462.65" rx="27" ry="18"/>
<text text-anchor="middle" x="85" y="-458.95" font-family="Times-Roman" font-size="14.00">!p</text>
</g>
<!-- PiL0&#45;&gt;!p0 -->
<g id="edge21" class="edge">
<title>PiL0&#45;&gt;!p0</title>
<g id="a_edge21"><a xlink:title="e53">
<path fill="none" stroke="red" d="M154.37,-531.9C141.24,-518.98 121.79,-499.85 106.82,-485.12"/>
<polygon fill="red" stroke="red" points="109.05,-482.4 99.46,-477.88 104.14,-487.39 109.05,-482.4"/>
</a>
</g>
</g>
<!-- Cut1 -->
<g id="node21" class="node">
<title>Cut1</title>
<ellipse fill="none" stroke="black" cx="169" cy="-462.65" rx="26.78" ry="26.78"/>
<ellipse fill="none" stroke="black" cx="169" cy="-462.65" rx="30.8" ry="30.8"/>
<text text-anchor="middle" x="169" y="-458.95" font-family="Times-Roman" font-size="14.00">Cut</text>
</g>
<!-- PiL0&#45;&gt;Cut1 -->
<g id="edge19" class="edge">
<title>PiL0&#45;&gt;Cut1</title>
<g id="a_edge19"><a xlink:title="e49">
<path fill="none" stroke="blue" stroke-width="2" d="M169,-519.01C169,-510.82 169,-501.8 169,-493.45"/>
<polygon fill="blue" stroke="blue" stroke-width="2" points="165.5,-519.17 169,-529.17 172.5,-519.17 165.5,-519.17"/>
</a>
</g>
</g>
<!-- PiL1 -->
<g id="node3" class="node">
<title>PiL1</title>
<ellipse fill="none" stroke="black" cx="205" cy="-619.3" rx="27" ry="18"/>
<text text-anchor="middle" x="205" y="-615.6" font-family="Times-Roman" font-size="14.00">PiL</text>
</g>
<!-- PiL1&#45;&gt;PiL0 -->
<g id="edge20" class="edge">
<title>PiL1&#45;&gt;PiL0</title>
<g id="a_edge20"><a xlink:title="e51">
<path fill="none" stroke="blue" stroke-width="2" d="M191.99,-593C187.09,-583.47 181.66,-572.91 177.3,-564.44"/>
<polygon fill="blue" stroke="blue" stroke-width="2" points="188.96,-594.77 196.65,-602.06 195.19,-591.57 188.96,-594.77"/>
</a>
</g>
</g>
<!-- !p1 -->
<g id="node8" class="node">
<title>!p1</title>
<ellipse fill="none" stroke="black" cx="243" cy="-547.3" rx="27" ry="18"/>
<text text-anchor="middle" x="243" y="-543.6" font-family="Times-Roman" font-size="14.00">!p</text>
</g>
<!-- PiL1&#45;&gt;!p1 -->
<g id="edge23" class="edge">
<title>PiL1&#45;&gt;!p1</title>
<g id="a_edge23"><a xlink:title="e57">
<path fill="none" stroke="red" d="M213.81,-602.06C218.42,-593.58 224.16,-583.01 229.32,-573.49"/>
<polygon fill="red" stroke="red" points="232.54,-574.9 234.23,-564.44 226.39,-571.56 232.54,-574.9"/>
</a>
</g>
</g>
<!-- PiR0 -->
<g id="node5" class="node">
<title>PiR0</title>
<ellipse fill="none" stroke="black" cx="82" cy="-378" rx="27" ry="18"/>
<text text-anchor="middle" x="82" y="-374.3" font-family="Times-Roman" font-size="14.00">PiR</text>
</g>
<!-- !p0&#45;&gt;PiR0 -->
<g id="edge24" class="edge">
<title>!p0&#45;&gt;PiR0</title>
<g id="a_edge24"><a xlink:title="e85">
<path fill="none" stroke="red" d="M84.38,-444.52C83.98,-433.44 83.44,-418.78 82.98,-406.13"/>
<polygon fill="red" stroke="red" points="86.48,-405.97 82.62,-396.1 79.49,-406.22 86.48,-405.97"/>
</a>
</g>
</g>
<!-- I0 -->
<g id="node7" class="node">
<title>I0</title>
<ellipse fill="none" stroke="black" cx="27" cy="-306" rx="27" ry="18"/>
<text text-anchor="middle" x="27" y="-302.3" font-family="Times-Roman" font-size="14.00">I</text>
</g>
<!-- PiR0&#45;&gt;I0 -->
<g id="edge26" class="edge">
<title>PiR0&#45;&gt;I0</title>
<g id="a_edge26"><a xlink:title="e89">
<path fill="none" stroke="red" d="M70.07,-361.81C62.79,-352.55 53.34,-340.52 45.15,-330.09"/>
<polygon fill="red" stroke="red" points="47.84,-327.86 38.91,-322.16 42.34,-332.18 47.84,-327.86"/>
</a>
</g>
</g>
<!-- !d0 -->
<g id="node6" class="node">
<title>!d0</title>
<ellipse fill="none" stroke="black" cx="29" cy="-234" rx="27" ry="18"/>
<text text-anchor="middle" x="29" y="-230.3" font-family="Times-Roman" font-size="14.00">!d</text>
</g>
<!-- !d0&#45;&gt;PiR0 -->
<g id="edge25" class="edge">
<title>!d0&#45;&gt;PiR0</title>
<g id="a_edge25"><a xlink:title="e87">
<path fill="none" stroke="blue" d="M46.77,-258.66C52.68,-267.49 58.82,-277.84 63,-288 72.8,-311.82 77.82,-341.39 80.18,-359.73"/>
<polygon fill="blue" stroke="blue" points="49.6,-256.61 41.01,-250.41 43.86,-260.61 49.6,-256.61"/>
</a>
</g>
</g>
<!-- I0&#45;&gt;!d0 -->
<g id="edge27" class="edge">
<title>I0&#45;&gt;!d0</title>
<g id="a_edge27"><a xlink:title="e91">
<path fill="none" stroke="blue" d="M27.78,-277.67C28.03,-269.05 28.29,-259.79 28.51,-252.1"/>
<polygon fill="blue" stroke="blue" points="24.28,-277.6 27.49,-287.7 31.28,-277.8 24.28,-277.6"/>
</a>
</g>
</g>
<!-- I1 -->
<g id="node11" class="node">
<title>I1</title>
<ellipse fill="none" stroke="black" cx="249" cy="-462.65" rx="27" ry="18"/>
<text text-anchor="middle" x="249" y="-458.95" font-family="Times-Roman" font-size="14.00">I</text>
</g>
<!-- !p1&#45;&gt;I1 -->
<g id="edge28" class="edge">
<title>!p1&#45;&gt;I1</title>
<g id="a_edge28"><a xlink:title="e95">
<path fill="none" stroke="red" d="M244.24,-529.17C245.05,-518.09 246.11,-503.42 247.03,-490.78"/>
<polygon fill="red" stroke="red" points="250.53,-490.98 247.76,-480.75 243.54,-490.47 250.53,-490.98"/>
</a>
</g>
</g>
<!-- !d1 -->
<g id="node9" class="node">
<title>!d1</title>
<ellipse fill="none" stroke="black" cx="251" cy="-306" rx="27" ry="18"/>
<text text-anchor="middle" x="251" y="-302.3" font-family="Times-Roman" font-size="14.00">!d</text>
</g>
<!-- Cut0 -->
<g id="node20" class="node">
<title>Cut0</title>
<ellipse fill="none" stroke="black" cx="251" cy="-234" rx="27" ry="18"/>
<text text-anchor="middle" x="251" y="-230.3" font-family="Times-Roman" font-size="14.00">Cut</text>
</g>
<!-- !d1&#45;&gt;Cut0 -->
<g id="edge18" class="edge">
<title>!d1&#45;&gt;Cut0</title>
<g id="a_edge18"><a xlink:title="e47">
<path fill="none" stroke="blue" d="M251,-277.67C251,-269.05 251,-259.79 251,-252.1"/>
<polygon fill="blue" stroke="blue" points="247.5,-277.7 251,-287.7 254.5,-277.7 247.5,-277.7"/>
</a>
</g>
</g>
<!-- PiL2 -->
<g id="node10" class="node">
<title>PiL2</title>
<ellipse fill="none" stroke="black" cx="251" cy="-378" rx="27" ry="18"/>
<text text-anchor="middle" x="251" y="-374.3" font-family="Times-Roman" font-size="14.00">PiL</text>
</g>
<!-- PiL2&#45;&gt;!d1 -->
<g id="edge1" class="edge">
<title>PiL2&#45;&gt;!d1</title>
<g id="a_edge1"><a xlink:title="e103">
<path fill="none" stroke="blue" d="M251,-349.67C251,-341.05 251,-331.79 251,-324.1"/>
<polygon fill="blue" stroke="blue" points="247.5,-349.7 251,-359.7 254.5,-349.7 247.5,-349.7"/>
</a>
</g>
</g>
<!-- !p2 -->
<g id="node12" class="node">
<title>!p2</title>
<ellipse fill="none" stroke="black" cx="323" cy="-306" rx="27" ry="18"/>
<text text-anchor="middle" x="323" y="-302.3" font-family="Times-Roman" font-size="14.00">!p</text>
</g>
<!-- PiL2&#45;&gt;!p2 -->
<g id="edge3" class="edge">
<title>PiL2&#45;&gt;!p2</title>
<g id="a_edge3"><a xlink:title="e107">
<path fill="none" stroke="red" d="M265.57,-362.83C275.75,-352.94 289.52,-339.55 301.03,-328.36"/>
<polygon fill="red" stroke="red" points="303.47,-330.87 308.2,-321.38 298.59,-325.85 303.47,-330.87"/>
</a>
</g>
</g>
<!-- I1&#45;&gt;PiL2 -->
<g id="edge2" class="edge">
<title>I1&#45;&gt;PiL2</title>
<g id="a_edge2"><a xlink:title="e105">
<path fill="none" stroke="blue" d="M249.66,-434.49C249.96,-421.84 250.32,-407.18 250.59,-396.1"/>
<polygon fill="blue" stroke="blue" points="246.16,-434.44 249.41,-444.52 253.16,-434.61 246.16,-434.44"/>
</a>
</g>
</g>
<!-- PiR1 -->
<g id="node13" class="node">
<title>PiR1</title>
<ellipse fill="none" stroke="black" cx="323" cy="-234" rx="27" ry="18"/>
<text text-anchor="middle" x="323" y="-230.3" font-family="Times-Roman" font-size="14.00">PiR</text>
</g>
<!-- !p2&#45;&gt;PiR1 -->
<g id="edge4" class="edge">
<title>!p2&#45;&gt;PiR1</title>
<g id="a_edge4"><a xlink:title="e111">
<path fill="none" stroke="red" d="M323,-287.7C323,-279.98 323,-270.71 323,-262.11"/>
<polygon fill="red" stroke="red" points="326.5,-262.1 323,-252.1 319.5,-262.1 326.5,-262.1"/>
</a>
</g>
</g>
<!-- I3 -->
<g id="node17" class="node">
<title>I3</title>
<ellipse fill="none" stroke="black" cx="301" cy="-162" rx="27" ry="18"/>
<text text-anchor="middle" x="301" y="-158.3" font-family="Times-Roman" font-size="14.00">I</text>
</g>
<!-- PiR1&#45;&gt;I3 -->
<g id="edge8" class="edge">
<title>PiR1&#45;&gt;I3</title>
<g id="a_edge8"><a xlink:title="e119">
<path fill="none" stroke="red" d="M317.67,-216.05C315.16,-208.06 312.1,-198.33 309.3,-189.4"/>
<polygon fill="red" stroke="red" points="312.61,-188.28 306.28,-179.79 305.94,-190.38 312.61,-188.28"/>
</a>
</g>
</g>
<!-- !d2 -->
<g id="node14" class="node">
<title>!d2</title>
<ellipse fill="none" stroke="black" cx="141" cy="-162" rx="27" ry="18"/>
<text text-anchor="middle" x="141" y="-158.3" font-family="Times-Roman" font-size="14.00">!d</text>
</g>
<!-- Dup4_0 -->
<g id="node24" class="node">
<title>Dup4_0</title>
<ellipse fill="none" stroke="black" cx="153" cy="-90" rx="29.5" ry="18"/>
<text text-anchor="middle" x="153" y="-86.3" font-family="Times-Roman" font-size="14.00">Dup</text>
</g>
<!-- !d2&#45;&gt;Dup4_0 -->
<g id="edge5" class="edge">
<title>!d2&#45;&gt;Dup4_0</title>
<g id="a_edge5"><a xlink:title="e112">
<path fill="none" stroke="blue" d="M145.63,-134.01C147.11,-125.36 148.71,-116.03 150.04,-108.28"/>
<polygon fill="blue" stroke="blue" points="142.14,-133.61 143.9,-144.05 149.04,-134.79 142.14,-133.61"/>
</a>
</g>
</g>
<!-- I2 -->
<g id="node15" class="node">
<title>I2</title>
<ellipse fill="none" stroke="black" cx="141" cy="-234" rx="27" ry="18"/>
<text text-anchor="middle" x="141" y="-230.3" font-family="Times-Roman" font-size="14.00">I</text>
</g>
<!-- I2&#45;&gt;!d2 -->
<g id="edge9" class="edge">
<title>I2&#45;&gt;!d2</title>
<g id="a_edge9"><a xlink:title="e120">
<path fill="none" stroke="blue" d="M141,-205.67C141,-197.05 141,-187.79 141,-180.1"/>
<polygon fill="blue" stroke="blue" points="137.5,-205.7 141,-215.7 144.5,-205.7 137.5,-205.7"/>
</a>
</g>
</g>
<!-- !d3 -->
<g id="node16" class="node">
<title>!d3</title>
<ellipse fill="none" stroke="black" cx="309" cy="-90" rx="27" ry="18"/>
<text text-anchor="middle" x="309" y="-86.3" font-family="Times-Roman" font-size="14.00">!d</text>
</g>
<!-- !d3&#45;&gt;PiR1 -->
<g id="edge7" class="edge">
<title>!d3&#45;&gt;PiR1</title>
<g id="a_edge7"><a xlink:title="e117">
<path fill="none" stroke="blue" d="M325.18,-115.62C329.97,-124.23 334.57,-134.21 337,-144 343.17,-168.9 335.69,-198.42 329.52,-216.43"/>
<polygon fill="blue" stroke="blue" points="328.12,-113.7 320.02,-106.87 322.09,-117.26 328.12,-113.7"/>
</a>
</g>
</g>
<!-- I3&#45;&gt;!d3 -->
<g id="edge10" class="edge">
<title>I3&#45;&gt;!d3</title>
<g id="a_edge10"><a xlink:title="e123">
<path fill="none" stroke="blue" d="M304.12,-133.67C305.11,-125.05 306.17,-115.79 307.05,-108.1"/>
<polygon fill="blue" stroke="blue" points="300.64,-133.36 302.98,-143.7 307.59,-134.16 300.64,-133.36"/>
</a>
</g>
</g>
<!-- I4&#45;&gt;PiL1 -->
<g id="edge22" class="edge">
<title>I4&#45;&gt;PiL1</title>
<g id="a_edge22"><a xlink:title="e55">
<path fill="none" stroke="blue" stroke-width="2" d="M205,-662.96C205,-654.35 205,-645.09 205,-637.4"/>
<polygon fill="blue" stroke="blue" stroke-width="2" points="201.5,-662.99 205,-672.99 208.5,-662.99 201.5,-662.99"/>
</a>
</g>
</g>
<!-- !p3 -->
<g id="node19" class="node">
<title>!p3</title>
<ellipse fill="none" stroke="black" cx="232" cy="-90" rx="27" ry="18"/>
<text text-anchor="middle" x="232" y="-86.3" font-family="Times-Roman" font-size="14.00">!p</text>
</g>
<!-- PiR3 -->
<g id="node23" class="node">
<title>PiR3</title>
<ellipse fill="none" stroke="black" cx="153" cy="-18" rx="27" ry="18"/>
<text text-anchor="middle" x="153" y="-14.3" font-family="Times-Roman" font-size="14.00">PiR</text>
</g>
<!-- !p3&#45;&gt;PiR3 -->
<g id="edge13" class="edge">
<title>!p3&#45;&gt;PiR3</title>
<g id="a_edge13"><a xlink:title="e127">
<path fill="none" stroke="red" d="M216.39,-75.17C204.92,-65.01 189.15,-51.03 176.21,-39.56"/>
<polygon fill="red" stroke="red" points="178.38,-36.81 168.58,-32.8 173.74,-42.05 178.38,-36.81"/>
</a>
</g>
</g>
<!-- Cut0&#45;&gt;!p3 -->
<g id="edge11" class="edge">
<title>Cut0&#45;&gt;!p3</title>
<g id="a_edge11"><a xlink:title="e125">
<path fill="none" stroke="red" d="M248.71,-215.87C245.47,-191.67 239.52,-147.21 235.67,-118.39"/>
<polygon fill="red" stroke="red" points="239.1,-117.64 234.3,-108.19 232.16,-118.57 239.1,-117.64"/>
</a>
</g>
</g>
<!-- PiR2 -->
<g id="node22" class="node">
<title>PiR2</title>
<ellipse fill="none" stroke="black" cx="169" cy="-378" rx="27" ry="18"/>
<text text-anchor="middle" x="169" y="-374.3" font-family="Times-Roman" font-size="14.00">PiR</text>
</g>
<!-- Cut1&#45;&gt;PiR2 -->
<g id="edge12" class="edge">
<title>Cut1&#45;&gt;PiR2</title>
<g id="a_edge12"><a xlink:title="e126">
<path fill="none" stroke="red" d="M169,-431.81C169,-423.45 169,-414.41 169,-406.21"/>
<polygon fill="red" stroke="red" points="172.5,-406.05 169,-396.05 165.5,-406.05 172.5,-406.05"/>
</a>
</g>
</g>
<!-- Dup4_1 -->
<g id="node25" class="node">
<title>Dup4_1</title>
<ellipse fill="none" stroke="black" cx="139" cy="-306" rx="29.5" ry="18"/>
<text text-anchor="middle" x="139" y="-302.3" font-family="Times-Roman" font-size="14.00">Dup</text>
</g>
<!-- PiR2&#45;&gt;Dup4_1 -->
<g id="edge16" class="edge">
<title>PiR2&#45;&gt;Dup4_1</title>
<g id="a_edge16"><a xlink:title="e130">
<path fill="none" stroke="red" d="M161.89,-360.41C158.12,-351.61 153.41,-340.63 149.25,-330.92"/>
<ellipse fill="red" stroke="red" cx="147.63" cy="-327.15" rx="4" ry="4"/>
</a>
</g>
</g>
<!-- PiR3&#45;&gt;Dup4_1 -->
<g id="edge17" class="edge">
<title>PiR3&#45;&gt;Dup4_1</title>
<g id="a_edge17"><a xlink:title="e131">
<path fill="none" stroke="red" d="M139.17,-34.04C130.78,-44.05 120.63,-57.91 115,-72 103.02,-102 107.23,-111.77 105,-144 101.69,-191.89 91.5,-205.94 105,-252 108.24,-263.03 114.55,-273.95 120.87,-282.98"/>
<ellipse fill="none" stroke="red" cx="123.29" cy="-286.26" rx="4" ry="4"/>
</a>
</g>
</g>
<!-- Dup4_0&#45;&gt;PiR2 -->
<g id="edge14" class="edge">
<title>Dup4_0&#45;&gt;PiR2</title>
<g id="a_edge14"><a xlink:title="e128">
<path fill="none" stroke="blue" d="M166.1,-114.23C170.48,-123.24 174.8,-133.82 177,-144 194.12,-223.33 179.52,-321.32 172.38,-360.08"/>
<ellipse fill="blue" stroke="blue" cx="164.27" cy="-110.65" rx="4" ry="4"/>
</a>
</g>
</g>
<!-- Dup4_0&#45;&gt;PiR3 -->
<g id="edge15" class="edge">
<title>Dup4_0&#45;&gt;PiR3</title>
<g id="a_edge15"><a xlink:title="e129">
<path fill="none" stroke="blue" d="M153,-63.64C153,-54.49 153,-44.38 153,-36.1"/>
<ellipse fill="none" stroke="blue" cx="153" cy="-67.7" rx="4" ry="4"/>
</a>
</g>
</g>
<!-- Dup4_1&#45;&gt;I2 -->
<g id="edge6" class="edge">
<title>Dup4_1&#45;&gt;I2</title>
<g id="a_edge6"><a xlink:title="e114">
<path fill="none" stroke="red" d="M139.49,-287.7C139.71,-279.98 139.98,-270.71 140.23,-262.11"/>
<polygon fill="red" stroke="red" points="143.72,-262.2 140.51,-252.1 136.73,-262 143.72,-262.2"/>
</a>
</g>
</g>
</g>
</svg>
