<?xml version="1.0" encoding="UTF-8" standalone="no"?>
<!DOCTYPE svg PUBLIC "-//W3C//DTD SVG 1.1//EN"
 "http://www.w3.org/Graphics/SVG/1.1/DTD/svg11.dtd">
<!-- Generated by graphviz version 2.49.3 (0)
 -->
<!-- Pages: 1 -->
<svg width="884pt" height="1331pt"
 viewBox="0.00 0.00 884.00 1331.00" xmlns="http://www.w3.org/2000/svg" xmlns:xlink="http://www.w3.org/1999/xlink">
<g id="graph0" class="graph" transform="scale(1 1) rotate(0) translate(4 1327)">
<polygon fill="white" stroke="transparent" points="-4,4 -4,-1327 880,-1327 880,4 -4,4"/>
<!-- I0 -->
<g id="node1" class="node">
<title>I0</title>
<ellipse fill="none" stroke="black" cx="82" cy="-985" rx="27" ry="18"/>
<text text-anchor="middle" x="82" y="-981.3" font-family="Times,serif" font-size="14.00">I</text>
</g>
<!-- !d1 -->
<g id="node2" class="node">
<title>!d1</title>
<ellipse fill="none" stroke="black" cx="27" cy="-898" rx="27" ry="18"/>
<text text-anchor="middle" x="27" y="-894.3" font-family="Times,serif" font-size="14.00">!d</text>
</g>
<!-- I0&#45;&gt;!d1 -->
<g id="edge7" class="edge">
<title>I0&#45;&gt;!d1</title>
<g id="a_edge7"><a xlink:title="iret84">
<path fill="none" stroke="blue" d="M66.2,-959.58C56.91,-945.22 45.43,-927.48 37.3,-914.91"/>
<polygon fill="blue" stroke="blue" points="63.28,-961.51 71.65,-968.01 69.16,-957.71 63.28,-961.51"/>
</a>
</g>
<text text-anchor="middle" x="61.5" y="-937.8" font-family="Times,serif" font-size="14.00">3</text>
</g>
<!-- λ2 -->
<g id="node3" class="node">
<title>λ2</title>
<ellipse fill="none" stroke="black" cx="82" cy="-811" rx="27" ry="18"/>
<text text-anchor="middle" x="82" y="-807.3" font-family="Times,serif" font-size="14.00">λ</text>
</g>
<!-- !d1&#45;&gt;λ2 -->
<g id="edge6" class="edge">
<title>!d1&#45;&gt;λ2</title>
<g id="a_edge6"><a xlink:title="i81">
<path fill="none" stroke="blue" d="M42.8,-872.58C52.09,-858.22 63.57,-840.48 71.7,-827.91"/>
<polygon fill="blue" stroke="blue" points="39.84,-870.71 37.35,-881.01 45.72,-874.51 39.84,-870.71"/>
</a>
</g>
<text text-anchor="middle" x="61.5" y="-850.8" font-family="Times,serif" font-size="14.00">3</text>
</g>
<!-- λ2&#45;&gt;I0 -->
<g id="edge29" class="edge">
<title>λ2&#45;&gt;I0</title>
<g id="a_edge29"><a xlink:title="ret82">
<path fill="none" stroke="red" d="M82,-829.05C82,-858.88 82,-920.76 82,-956.64"/>
<polygon fill="red" stroke="red" points="78.5,-956.87 82,-966.87 85.5,-956.87 78.5,-956.87"/>
</a>
</g>
</g>
<!-- !p3 -->
<g id="node4" class="node">
<title>!p3</title>
<ellipse fill="none" stroke="black" cx="137" cy="-898" rx="27" ry="18"/>
<text text-anchor="middle" x="137" y="-894.3" font-family="Times,serif" font-size="14.00">!p</text>
</g>
<!-- !p3&#45;&gt;λ2 -->
<g id="edge24" class="edge">
<title>!p3&#45;&gt;λ2</title>
<g id="a_edge24"><a xlink:title="newrretf78">
<path fill="none" stroke="red" d="M126.65,-881.01C118.51,-868.42 107.03,-850.67 97.74,-836.33"/>
<polygon fill="red" stroke="red" points="100.67,-834.41 92.3,-827.91 94.79,-838.21 100.67,-834.41"/>
</a>
</g>
<text text-anchor="middle" x="116.5" y="-850.8" font-family="Times,serif" font-size="14.00">3</text>
</g>
<!-- I4 -->
<g id="node5" class="node">
<title>I4</title>
<ellipse fill="none" stroke="black" cx="247" cy="-18" rx="27" ry="18"/>
<text text-anchor="middle" x="247" y="-14.3" font-family="Times,serif" font-size="14.00">I</text>
</g>
<!-- @5 -->
<g id="node6" class="node">
<title>@5</title>
<ellipse fill="none" stroke="black" cx="173" cy="-985" rx="27" ry="18"/>
<text text-anchor="middle" x="173" y="-981.3" font-family="Times,serif" font-size="14.00">@</text>
</g>
<!-- I4&#45;&gt;@5 -->
<g id="edge10" class="edge">
<title>I4&#45;&gt;@5</title>
<g id="a_edge10"><a xlink:title="lret75">
<path fill="none" stroke="blue" d="M223.93,-39.78C208.87,-55.69 192,-79.08 192,-104 192,-899 192,-899 192,-899 192,-923.19 184.58,-950.34 179.01,-967.31"/>
<polygon fill="blue" stroke="blue" points="226.51,-42.14 231.09,-32.59 221.55,-37.2 226.51,-42.14"/>
</a>
</g>
</g>
<!-- @5&#45;&gt;!p3 -->
<g id="edge17" class="edge">
<title>@5&#45;&gt;!p3</title>
<g id="a_edge17"><a xlink:title="newrret74">
<path fill="none" stroke="red" d="M165.89,-967.2C160.78,-955.13 153.79,-938.63 147.97,-924.89"/>
<polygon fill="red" stroke="red" points="151.1,-923.31 143.98,-915.46 144.65,-926.04 151.1,-923.31"/>
</a>
</g>
<text text-anchor="middle" x="161.5" y="-937.8" font-family="Times,serif" font-size="14.00">2</text>
</g>
<!-- !d6 -->
<g id="node7" class="node">
<title>!d6</title>
<ellipse fill="none" stroke="black" cx="249" cy="-898" rx="27" ry="18"/>
<text text-anchor="middle" x="249" y="-894.3" font-family="Times,serif" font-size="14.00">!d</text>
</g>
<!-- @5&#45;&gt;!d6 -->
<g id="edge13" class="edge">
<title>@5&#45;&gt;!d6</title>
<g id="a_edge13"><a xlink:title="lval70">
<path fill="none" stroke="blue" d="M193.97,-962.06C198,-957.76 202.16,-953.26 206,-949 216.42,-937.43 227.9,-924.04 236.38,-914.03"/>
<polygon fill="blue" stroke="blue" points="191.28,-959.81 186.96,-969.49 196.37,-964.62 191.28,-959.81"/>
</a>
</g>
<text text-anchor="middle" x="223.5" y="-937.8" font-family="Times,serif" font-size="14.00">2</text>
</g>
<!-- Dup30 -->
<g id="node31" class="node">
<title>Dup30</title>
<ellipse fill="none" stroke="black" cx="251" cy="-811" rx="27" ry="18"/>
<text text-anchor="middle" x="251" y="-807.3" font-family="Times,serif" font-size="14.00">Dup</text>
</g>
<!-- !d6&#45;&gt;Dup30 -->
<g id="edge5" class="edge">
<title>!d6&#45;&gt;Dup30</title>
<g id="a_edge5"><a xlink:title="hf65">
<path fill="none" stroke="blue" d="M249.64,-869.73C249.95,-856.41 250.32,-840.8 250.6,-829.17"/>
<polygon fill="blue" stroke="blue" points="246.14,-869.71 249.4,-879.79 253.14,-869.88 246.14,-869.71"/>
</a>
</g>
<text text-anchor="middle" x="253.5" y="-850.8" font-family="Times,serif" font-size="14.00">1</text>
</g>
<!-- I7 -->
<g id="node8" class="node">
<title>I7</title>
<ellipse fill="none" stroke="black" cx="400" cy="-192" rx="27" ry="18"/>
<text text-anchor="middle" x="400" y="-188.3" font-family="Times,serif" font-size="14.00">I</text>
</g>
<!-- !d8 -->
<g id="node9" class="node">
<title>!d8</title>
<ellipse fill="none" stroke="black" cx="369" cy="-105" rx="27" ry="18"/>
<text text-anchor="middle" x="369" y="-101.3" font-family="Times,serif" font-size="14.00">!d</text>
</g>
<!-- I7&#45;&gt;!d8 -->
<g id="edge37" class="edge">
<title>I7&#45;&gt;!d8</title>
<g id="a_edge37"><a xlink:title="yret60">
<path fill="none" stroke="blue" d="M390.45,-164.8C385.45,-151.1 379.48,-134.74 375.11,-122.76"/>
<polygon fill="blue" stroke="blue" points="387.16,-166.01 393.88,-174.21 393.74,-163.61 387.16,-166.01"/>
</a>
</g>
<text text-anchor="middle" x="389.5" y="-144.8" font-family="Times,serif" font-size="14.00">2</text>
</g>
<!-- !p9 -->
<g id="node10" class="node">
<title>!p9</title>
<ellipse fill="none" stroke="black" cx="395" cy="-279" rx="27" ry="18"/>
<text text-anchor="middle" x="395" y="-275.3" font-family="Times,serif" font-size="14.00">!p</text>
</g>
<!-- !d8&#45;&gt;!p9 -->
<g id="edge36" class="edge">
<title>!d8&#45;&gt;!p9</title>
<g id="a_edge36"><a xlink:title="yBf56">
<path fill="none" stroke="blue" d="M360.58,-132.76C355.17,-153.99 350.3,-184.27 357,-210 362.08,-229.5 374.12,-249.34 383.3,-262.51"/>
<polygon fill="blue" stroke="blue" points="364.04,-133.41 363.32,-122.84 357.29,-131.55 364.04,-133.41"/>
</a>
</g>
<text text-anchor="middle" x="360.5" y="-188.3" font-family="Times,serif" font-size="14.00">1</text>
</g>
<!-- !p9&#45;&gt;I7 -->
<g id="edge22" class="edge">
<title>!p9&#45;&gt;I7</title>
<g id="a_edge22"><a xlink:title="newrretf57">
<path fill="none" stroke="red" d="M396.01,-260.8C396.7,-249.16 397.61,-233.55 398.4,-220.24"/>
<polygon fill="red" stroke="red" points="401.9,-220.36 398.99,-210.18 394.91,-219.95 401.9,-220.36"/>
</a>
</g>
<text text-anchor="middle" x="400.5" y="-231.8" font-family="Times,serif" font-size="14.00">2</text>
</g>
<!-- Cut32 -->
<g id="node33" class="node">
<title>Cut32</title>
<ellipse fill="none" stroke="black" cx="472" cy="-192" rx="27" ry="18"/>
<text text-anchor="middle" x="472" y="-188.3" font-family="Times,serif" font-size="14.00">Cut</text>
</g>
<!-- !p9&#45;&gt;Cut32 -->
<g id="edge35" class="edge">
<title>!p9&#45;&gt;Cut32</title>
<g id="a_edge35"><a xlink:title="yB44">
<path fill="none" stroke="blue" d="M410.84,-253.56C416.75,-245.12 423.79,-235.83 431,-228 438.23,-220.15 447.15,-212.35 454.82,-206.11"/>
<polygon fill="blue" stroke="blue" points="407.86,-251.71 405.12,-261.94 413.65,-255.65 407.86,-251.71"/>
</a>
</g>
<text text-anchor="middle" x="434.5" y="-231.8" font-family="Times,serif" font-size="14.00">1</text>
</g>
<!-- I10 -->
<g id="node11" class="node">
<title>I10</title>
<ellipse fill="none" stroke="black" cx="388" cy="-453" rx="27" ry="18"/>
<text text-anchor="middle" x="388" y="-449.3" font-family="Times,serif" font-size="14.00">I</text>
</g>
<!-- @11 -->
<g id="node12" class="node">
<title>@11</title>
<ellipse fill="none" stroke="black" cx="389" cy="-366" rx="27" ry="18"/>
<text text-anchor="middle" x="389" y="-362.3" font-family="Times,serif" font-size="14.00">@</text>
</g>
<!-- I10&#45;&gt;@11 -->
<g id="edge9" class="edge">
<title>I10&#45;&gt;@11</title>
<g id="a_edge9"><a xlink:title="lret53">
<path fill="none" stroke="blue" d="M388.32,-424.73C388.48,-411.42 388.66,-395.81 388.8,-384.18"/>
<polygon fill="blue" stroke="blue" points="384.82,-424.76 388.2,-434.8 391.82,-424.84 384.82,-424.76"/>
</a>
</g>
</g>
<!-- @11&#45;&gt;!p9 -->
<g id="edge16" class="edge">
<title>@11&#45;&gt;!p9</title>
<g id="a_edge16"><a xlink:title="newrret52">
<path fill="none" stroke="red" d="M390.21,-347.8C391.04,-336.16 392.14,-320.55 393.08,-307.24"/>
<polygon fill="red" stroke="red" points="396.57,-307.4 393.79,-297.18 389.59,-306.9 396.57,-307.4"/>
</a>
</g>
<text text-anchor="middle" x="395.5" y="-318.8" font-family="Times,serif" font-size="14.00">1</text>
</g>
<!-- Cut34 -->
<g id="node35" class="node">
<title>Cut34</title>
<ellipse fill="none" stroke="black" cx="285" cy="-279" rx="27" ry="18"/>
<text text-anchor="middle" x="285" y="-275.3" font-family="Times,serif" font-size="14.00">Cut</text>
</g>
<!-- @11&#45;&gt;Cut34 -->
<g id="edge12" class="edge">
<title>@11&#45;&gt;Cut34</title>
<g id="a_edge12"><a xlink:title="lval48">
<path fill="none" stroke="blue" d="M364.43,-344.92C344.95,-328.99 318.26,-307.18 301.33,-293.34"/>
<polygon fill="blue" stroke="blue" points="362.33,-347.72 372.29,-351.34 366.76,-342.3 362.33,-347.72"/>
</a>
</g>
</g>
<!-- λ12 -->
<g id="node13" class="node">
<title>λ12</title>
<ellipse fill="none" stroke="black" cx="388" cy="-526" rx="27" ry="18"/>
<text text-anchor="middle" x="388" y="-522.3" font-family="Times,serif" font-size="14.00">λ</text>
</g>
<!-- λ12&#45;&gt;I10 -->
<g id="edge27" class="edge">
<title>λ12&#45;&gt;I10</title>
<g id="a_edge27"><a xlink:title="ret42">
<path fill="none" stroke="red" d="M388,-507.81C388,-499.79 388,-490.05 388,-481.07"/>
<polygon fill="red" stroke="red" points="391.5,-481.03 388,-471.03 384.5,-481.03 391.5,-481.03"/>
</a>
</g>
</g>
<!-- I13 -->
<g id="node14" class="node">
<title>I13</title>
<ellipse fill="none" stroke="black" cx="409" cy="-985" rx="27" ry="18"/>
<text text-anchor="middle" x="409" y="-981.3" font-family="Times,serif" font-size="14.00">I</text>
</g>
<!-- Lift26 -->
<g id="node27" class="node">
<title>Lift26</title>
<ellipse fill="none" stroke="black" cx="403" cy="-898" rx="27" ry="18"/>
<text text-anchor="middle" x="403" y="-894.3" font-family="Times,serif" font-size="14.00">Lift</text>
</g>
<!-- I13&#45;&gt;Lift26 -->
<g id="edge34" class="edge">
<title>I13&#45;&gt;Lift26</title>
<g id="a_edge34"><a xlink:title="xret26">
<path fill="none" stroke="blue" d="M407.08,-956.73C406.14,-943.41 405.03,-927.8 404.21,-916.17"/>
<polygon fill="blue" stroke="blue" points="403.59,-957.07 407.79,-966.79 410.57,-956.57 403.59,-957.07"/>
</a>
</g>
<text text-anchor="middle" x="409.5" y="-937.8" font-family="Times,serif" font-size="14.00">1</text>
</g>
<!-- I14 -->
<g id="node15" class="node">
<title>I14</title>
<ellipse fill="none" stroke="black" cx="409" cy="-1232" rx="27" ry="18"/>
<text text-anchor="middle" x="409" y="-1228.3" font-family="Times,serif" font-size="14.00">I</text>
</g>
<!-- @15 -->
<g id="node16" class="node">
<title>@15</title>
<ellipse fill="none" stroke="black" cx="409" cy="-1159" rx="27" ry="18"/>
<text text-anchor="middle" x="409" y="-1155.3" font-family="Times,serif" font-size="14.00">@</text>
</g>
<!-- I14&#45;&gt;@15 -->
<g id="edge8" class="edge">
<title>I14&#45;&gt;@15</title>
<g id="a_edge8"><a xlink:title="lret19">
<path fill="none" stroke="blue" stroke-width="2" d="M409,-1203.75C409,-1194.76 409,-1185.02 409,-1177.02"/>
<polygon fill="blue" stroke="blue" stroke-width="2" points="405.5,-1203.81 409,-1213.81 412.5,-1203.81 405.5,-1203.81"/>
</a>
</g>
</g>
<!-- Cut19 -->
<g id="node20" class="node">
<title>Cut19</title>
<ellipse fill="none" stroke="black" cx="484" cy="-811" rx="27" ry="18"/>
<text text-anchor="middle" x="484" y="-807.3" font-family="Times,serif" font-size="14.00">Cut</text>
</g>
<!-- @15&#45;&gt;Cut19 -->
<g id="edge11" class="edge">
<title>@15&#45;&gt;Cut19</title>
<g id="a_edge11"><a xlink:title="lval14">
<path fill="none" stroke="blue" stroke-width="2" d="M437.16,-1140.64C457.71,-1125.58 482,-1101.72 482,-1073 482,-1073 482,-1073 482,-897 482,-873.53 482.77,-846.42 483.36,-829.25"/>
<polygon fill="blue" stroke="blue" stroke-width="2" points="435.16,-1137.77 428.95,-1146.35 439.16,-1143.52 435.16,-1137.77"/>
</a>
</g>
</g>
<!-- !p22 -->
<g id="node23" class="node">
<title>!p22</title>
<ellipse fill="none" stroke="black" cx="409" cy="-1072" rx="27" ry="18"/>
<text text-anchor="middle" x="409" y="-1068.3" font-family="Times,serif" font-size="14.00">!p</text>
</g>
<!-- @15&#45;&gt;!p22 -->
<g id="edge15" class="edge">
<title>@15&#45;&gt;!p22</title>
<g id="a_edge15"><a xlink:title="newrret18">
<path fill="none" stroke="red" d="M409,-1140.79C409,-1129.16 409,-1113.54 409,-1100.23"/>
<polygon fill="red" stroke="red" points="412.5,-1100.17 409,-1090.17 405.5,-1100.17 412.5,-1100.17"/>
</a>
</g>
<text text-anchor="middle" x="412.5" y="-1111.8" font-family="Times,serif" font-size="14.00">0</text>
</g>
<!-- Assign16 -->
<g id="node17" class="node">
<title>Assign16</title>
<ellipse fill="none" stroke="black" cx="409" cy="-1305" rx="35.19" ry="18"/>
<text text-anchor="middle" x="409" y="-1301.3" font-family="Times,serif" font-size="14.00">Assign</text>
</g>
<!-- Assign16&#45;&gt;I14 -->
<g id="edge28" class="edge">
<title>Assign16&#45;&gt;I14</title>
<g id="a_edge28"><a xlink:title="ret8">
<path fill="none" stroke="red" stroke-width="2" d="M409,-1286.81C409,-1278.78 409,-1269.04 409,-1260.06"/>
<polygon fill="red" stroke="red" stroke-width="2" points="412.5,-1260.02 409,-1250.02 405.5,-1260.02 412.5,-1260.02"/>
</a>
</g>
</g>
<!-- Dup17 -->
<g id="node18" class="node">
<title>Dup17</title>
<ellipse fill="none" stroke="black" cx="489" cy="-1305" rx="27" ry="18"/>
<text text-anchor="middle" x="489" y="-1301.3" font-family="Times,serif" font-size="14.00">Dup</text>
</g>
<!-- Dup18 -->
<g id="node19" class="node">
<title>Dup18</title>
<ellipse fill="none" stroke="black" cx="393" cy="-625" rx="26" ry="26"/>
<ellipse fill="none" stroke="black" cx="393" cy="-625" rx="30" ry="30"/>
<text text-anchor="middle" x="393" y="-621.3" font-family="Times,serif" font-size="14.00">Dup</text>
</g>
<!-- Dup18&#45;&gt;λ12 -->
<g id="edge21" class="edge">
<title>Dup18&#45;&gt;λ12</title>
<g id="a_edge21"><a xlink:title="newrretf31">
<path fill="none" stroke="red" d="M391.5,-594.9C390.84,-582.12 390.07,-567.19 389.42,-554.6"/>
<polygon fill="red" stroke="red" points="392.9,-554.04 388.89,-544.24 385.91,-554.4 392.9,-554.04"/>
</a>
</g>
<text text-anchor="middle" x="393.5" y="-565.8" font-family="Times,serif" font-size="14.00">1</text>
</g>
<!-- Lift21 -->
<g id="node22" class="node">
<title>Lift21</title>
<ellipse fill="none" stroke="black" cx="484" cy="-724" rx="27" ry="18"/>
<text text-anchor="middle" x="484" y="-720.3" font-family="Times,serif" font-size="14.00">Lift</text>
</g>
<!-- Cut19&#45;&gt;Lift21 -->
<g id="edge33" class="edge">
<title>Cut19&#45;&gt;Lift21</title>
<g id="a_edge33"><a xlink:title="seqDM96">
<path fill="none" stroke="red" stroke-width="2" d="M484,-792.79C484,-781.16 484,-765.54 484,-752.23"/>
<polygon fill="red" stroke="red" stroke-width="2" points="487.5,-752.17 484,-742.17 480.5,-752.17 487.5,-752.17"/>
</a>
</g>
<text text-anchor="middle" x="487.5" y="-763.8" font-family="Times,serif" font-size="14.00">0</text>
</g>
<!-- Lift20 -->
<g id="node21" class="node">
<title>Lift20</title>
<ellipse fill="none" stroke="black" cx="561" cy="-1305" rx="27" ry="18"/>
<text text-anchor="middle" x="561" y="-1301.3" font-family="Times,serif" font-size="14.00">Lift</text>
</g>
<!-- Lift21&#45;&gt;Dup18 -->
<g id="edge25" class="edge">
<title>Lift21&#45;&gt;Dup18</title>
<g id="a_edge25"><a xlink:title="newrretf87">
<path fill="none" stroke="red" stroke-width="2" d="M470.18,-708.26C456.99,-694.2 436.74,-672.62 420.29,-655.09"/>
<polygon fill="red" stroke="red" stroke-width="2" points="422.43,-652.26 413.04,-647.36 417.33,-657.05 422.43,-652.26"/>
</a>
</g>
<text text-anchor="middle" x="452.5" y="-676.8" font-family="Times,serif" font-size="14.00">1</text>
</g>
<!-- !p22&#45;&gt;I13 -->
<g id="edge20" class="edge">
<title>!p22&#45;&gt;I13</title>
<g id="a_edge20"><a xlink:title="newrretf23">
<path fill="none" stroke="red" d="M409,-1053.79C409,-1042.16 409,-1026.54 409,-1013.23"/>
<polygon fill="red" stroke="red" points="412.5,-1013.17 409,-1003.17 405.5,-1013.17 412.5,-1013.17"/>
</a>
</g>
<text text-anchor="middle" x="412.5" y="-1024.8" font-family="Times,serif" font-size="14.00">1</text>
</g>
<!-- Cut23 -->
<g id="node24" class="node">
<title>Cut23</title>
<ellipse fill="none" stroke="black" cx="393" cy="-811" rx="27" ry="18"/>
<text text-anchor="middle" x="393" y="-807.3" font-family="Times,serif" font-size="14.00">Cut</text>
</g>
<!-- Lift27 -->
<g id="node28" class="node">
<title>Lift27</title>
<ellipse fill="none" stroke="black" cx="393" cy="-724" rx="27" ry="18"/>
<text text-anchor="middle" x="393" y="-720.3" font-family="Times,serif" font-size="14.00">Lift</text>
</g>
<!-- Cut23&#45;&gt;Lift27 -->
<g id="edge31" class="edge">
<title>Cut23&#45;&gt;Lift27</title>
<g id="a_edge31"><a xlink:title="seqDM102">
<path fill="none" stroke="red" d="M393,-792.79C393,-781.16 393,-765.54 393,-752.23"/>
<polygon fill="red" stroke="red" points="396.5,-752.17 393,-742.17 389.5,-752.17 396.5,-752.17"/>
</a>
</g>
<text text-anchor="middle" x="396.5" y="-763.8" font-family="Times,serif" font-size="14.00">0</text>
</g>
<!-- Lift24 -->
<g id="node25" class="node">
<title>Lift24</title>
<ellipse fill="none" stroke="black" cx="633" cy="-1305" rx="27" ry="18"/>
<text text-anchor="middle" x="633" y="-1301.3" font-family="Times,serif" font-size="14.00">Lift</text>
</g>
<!-- Lift25 -->
<g id="node26" class="node">
<title>Lift25</title>
<ellipse fill="none" stroke="black" cx="705" cy="-1305" rx="27" ry="18"/>
<text text-anchor="middle" x="705" y="-1301.3" font-family="Times,serif" font-size="14.00">Lift</text>
</g>
<!-- Lift26&#45;&gt;Cut23 -->
<g id="edge30" class="edge">
<title>Lift26&#45;&gt;Cut23</title>
<g id="a_edge30"><a xlink:title="seqDE104">
<path fill="none" stroke="blue" d="M399.79,-869.73C398.23,-856.41 396.39,-840.8 395.02,-829.17"/>
<polygon fill="blue" stroke="blue" points="396.33,-870.27 400.98,-879.79 403.28,-869.45 396.33,-870.27"/>
</a>
</g>
<text text-anchor="middle" x="401.5" y="-850.8" font-family="Times,serif" font-size="14.00">0</text>
</g>
<!-- Lift27&#45;&gt;Dup18 -->
<g id="edge26" class="edge">
<title>Lift27&#45;&gt;Dup18</title>
<g id="a_edge26"><a xlink:title="newrretf91">
<path fill="none" stroke="red" d="M393,-705.65C393,-694.54 393,-679.63 393,-665.73"/>
<polygon fill="none" stroke="red" points="396.5,-665.36 393,-655.36 389.5,-665.36 396.5,-665.36"/>
</a>
</g>
<text text-anchor="middle" x="396.5" y="-676.8" font-family="Times,serif" font-size="14.00">1</text>
</g>
<!-- Dup28 -->
<g id="node29" class="node">
<title>Dup28</title>
<ellipse fill="none" stroke="black" cx="777" cy="-1305" rx="27" ry="18"/>
<text text-anchor="middle" x="777" y="-1301.3" font-family="Times,serif" font-size="14.00">Dup</text>
</g>
<!-- Dup29 -->
<g id="node30" class="node">
<title>Dup29</title>
<ellipse fill="none" stroke="black" cx="247" cy="-105" rx="27" ry="18"/>
<text text-anchor="middle" x="247" y="-101.3" font-family="Times,serif" font-size="14.00">Dup</text>
</g>
<!-- Dup29&#45;&gt;I4 -->
<g id="edge23" class="edge">
<title>Dup29&#45;&gt;I4</title>
<g id="a_edge23"><a xlink:title="newrretf66">
<path fill="none" stroke="red" d="M247,-86.8C247,-75.16 247,-59.55 247,-46.24"/>
<polygon fill="red" stroke="red" points="250.5,-46.18 247,-36.18 243.5,-46.18 250.5,-46.18"/>
</a>
</g>
<text text-anchor="middle" x="250.5" y="-57.8" font-family="Times,serif" font-size="14.00">2</text>
</g>
<!-- !p31 -->
<g id="node32" class="node">
<title>!p31</title>
<ellipse fill="none" stroke="black" cx="251" cy="-724" rx="27" ry="18"/>
<text text-anchor="middle" x="251" y="-720.3" font-family="Times,serif" font-size="14.00">!p</text>
</g>
<!-- Dup30&#45;&gt;!p31 -->
<g id="edge4" class="edge">
<title>Dup30&#45;&gt;!p31</title>
<g id="a_edge4"><a xlink:title="hf113">
<path fill="none" stroke="blue" d="M251,-782.73C251,-769.41 251,-753.8 251,-742.17"/>
<polygon fill="none" stroke="blue" points="247.5,-782.79 251,-792.79 254.5,-782.79 247.5,-782.79"/>
</a>
</g>
<text text-anchor="middle" x="254.5" y="-763.8" font-family="Times,serif" font-size="14.00">1</text>
</g>
<!-- !c33 -->
<g id="node34" class="node">
<title>!c33</title>
<ellipse fill="none" stroke="black" cx="314" cy="-625" rx="27" ry="18"/>
<text text-anchor="middle" x="314" y="-621.3" font-family="Times,serif" font-size="14.00">!c</text>
</g>
<!-- Dup30&#45;&gt;!c33 -->
<g id="edge3" class="edge">
<title>Dup30&#45;&gt;!c33</title>
<g id="a_edge3"><a xlink:title="hf107">
<path fill="none" stroke="blue" d="M266.16,-785.12C273.3,-772.55 281.45,-756.85 287,-742 299.67,-708.1 307.64,-666.34 311.41,-643.31"/>
<polygon fill="blue" stroke="blue" points="262.97,-783.66 260.96,-794.06 269.01,-787.18 262.97,-783.66"/>
</a>
</g>
<text text-anchor="middle" x="300.5" y="-720.3" font-family="Times,serif" font-size="14.00">1</text>
</g>
<!-- !p31&#45;&gt;Dup29 -->
<g id="edge19" class="edge">
<title>!p31&#45;&gt;Dup29</title>
<g id="a_edge19"><a xlink:title="newrretf114">
<path fill="none" stroke="red" d="M245.15,-706.41C238.94,-687.28 230,-654.77 230,-626 230,-626 230,-626 230,-191 230,-171.25 234.47,-149.41 238.82,-132.81"/>
<polygon fill="none" stroke="red" points="242.32,-133.31 241.62,-122.74 235.57,-131.44 242.32,-133.31"/>
</a>
</g>
<text text-anchor="middle" x="233.5" y="-405.8" font-family="Times,serif" font-size="14.00">2</text>
</g>
<!-- !p31&#45;&gt;!c33 -->
<g id="edge1" class="edge">
<title>!p31&#45;&gt;!c33</title>
<g id="a_edge1"><a xlink:title="h116">
<path fill="none" stroke="blue" d="M267.06,-698.26C276.63,-683.53 288.73,-664.91 298.24,-650.26"/>
<polygon fill="blue" stroke="blue" points="263.91,-696.69 261.4,-706.98 269.79,-700.5 263.91,-696.69"/>
<polygon fill="blue" stroke="blue" points="306.73,-643.62 298.34,-650.1 300.86,-639.81 306.73,-643.62"/>
</a>
</g>
<text text-anchor="middle" x="285.5" y="-676.8" font-family="Times,serif" font-size="14.00">1</text>
</g>
<!-- Cut32&#45;&gt;!p31 -->
<g id="edge14" class="edge">
<title>Cut32&#45;&gt;!p31</title>
<g id="a_edge14"><a xlink:title="newrret117">
<path fill="none" stroke="red" d="M465.36,-209.63C459.2,-226.56 451,-253.68 451,-278 451,-626 451,-626 451,-626 451,-660.58 434.22,-671.19 404,-688 356.48,-714.42 334.64,-689 283,-706 281.95,-706.34 280.9,-706.72 279.85,-707.12"/>
<polygon fill="red" stroke="red" points="278.21,-704.02 270.51,-711.29 281.06,-710.41 278.21,-704.02"/>
</a>
</g>
<text text-anchor="middle" x="454.5" y="-449.3" font-family="Times,serif" font-size="14.00">1</text>
</g>
<!-- !c33&#45;&gt;λ12 -->
<g id="edge2" class="edge">
<title>!c33&#45;&gt;λ12</title>
<g id="a_edge2"><a xlink:title="h34">
<path fill="none" stroke="blue" d="M332.19,-600.15C345.89,-582.19 364.28,-558.09 376.14,-542.55"/>
<polygon fill="blue" stroke="blue" points="329.17,-598.34 325.89,-608.41 334.74,-602.59 329.17,-598.34"/>
</a>
</g>
</g>
<!-- Lift36 -->
<g id="node37" class="node">
<title>Lift36</title>
<ellipse fill="none" stroke="black" cx="285" cy="-192" rx="27" ry="18"/>
<text text-anchor="middle" x="285" y="-188.3" font-family="Times,serif" font-size="14.00">Lift</text>
</g>
<!-- Cut34&#45;&gt;Lift36 -->
<g id="edge32" class="edge">
<title>Cut34&#45;&gt;Lift36</title>
<g id="a_edge32"><a xlink:title="seqDM121">
<path fill="none" stroke="red" d="M285,-260.8C285,-249.16 285,-233.55 285,-220.24"/>
<polygon fill="red" stroke="red" points="288.5,-220.18 285,-210.18 281.5,-220.18 288.5,-220.18"/>
</a>
</g>
<text text-anchor="middle" x="288.5" y="-231.8" font-family="Times,serif" font-size="14.00">1</text>
</g>
<!-- Lift35 -->
<g id="node36" class="node">
<title>Lift35</title>
<ellipse fill="none" stroke="black" cx="849" cy="-1305" rx="27" ry="18"/>
<text text-anchor="middle" x="849" y="-1301.3" font-family="Times,serif" font-size="14.00">Lift</text>
</g>
<!-- Lift36&#45;&gt;Dup29 -->
<g id="edge18" class="edge">
<title>Lift36&#45;&gt;Dup29</title>
<g id="a_edge18"><a xlink:title="newrretf108">
<path fill="none" stroke="red" d="M277.67,-174.61C272.26,-162.5 264.78,-145.77 258.56,-131.86"/>
<polygon fill="red" stroke="red" points="261.58,-130.04 254.3,-122.34 255.19,-132.9 261.58,-130.04"/>
</a>
</g>
<text text-anchor="middle" x="271.5" y="-144.8" font-family="Times,serif" font-size="14.00">2</text>
</g>
</g>
</svg>
