<?xml version="1.0" encoding="UTF-8" standalone="no"?>
<!DOCTYPE svg PUBLIC "-//W3C//DTD SVG 1.1//EN"
 "http://www.w3.org/Graphics/SVG/1.1/DTD/svg11.dtd">
<!-- Generated by graphviz version 2.43.0 (0)
 -->
<!-- Title: %3 Pages: 1 -->
<svg width="693pt" height="1217pt"
 viewBox="0.00 0.00 693.20 1217.40" xmlns="http://www.w3.org/2000/svg" xmlns:xlink="http://www.w3.org/1999/xlink">
<g id="graph0" class="graph" transform="scale(1 1) rotate(0) translate(4 1213.4)">
<title>%3</title>
<polygon fill="white" stroke="transparent" points="-4,4 -4,-1213.4 689.2,-1213.4 689.2,4 -4,4"/>
<!-- Identity0 -->
<g id="node1" class="node">
<title>Identity0</title>
<ellipse fill="none" stroke="black" cx="139.2" cy="-1191.4" rx="44.39" ry="18"/>
<text text-anchor="middle" x="139.2" y="-1187.7" font-family="Times-Roman" font-size="14.00">Identity</text>
</g>
<!-- BangD1 -->
<g id="node2" class="node">
<title>BangD1</title>
<ellipse fill="none" stroke="black" cx="139.2" cy="-1104.4" rx="39.79" ry="18"/>
<text text-anchor="middle" x="139.2" y="-1100.7" font-family="Times-Roman" font-size="14.00">BangD</text>
</g>
<!-- BangD1&#45;&gt;Identity0 -->
<g id="edge28" class="edge">
<title>BangD1&#45;&gt;Identity0</title>
<g id="a_edge28"><a xlink:title="iret84">
<path fill="none" stroke="blue" d="M121.24,-1120.78C116.01,-1126.37 110.96,-1133.11 108.2,-1140.4 104.67,-1149.71 108.32,-1159.18 114.2,-1167.34"/>
<polygon fill="blue" stroke="blue" points="111.53,-1169.6 120.64,-1175 116.89,-1165.1 111.53,-1169.6"/>
</a>
</g>
<text text-anchor="middle" x="112.7" y="-1144.2" font-family="Times-Roman" font-size="14.00">3</text>
</g>
<!-- BangD1&#45;&gt;Identity0 -->
<g id="edge29" class="edge">
<title>BangD1&#45;&gt;Identity0</title>
<g id="a_edge29"><a xlink:title="iseq83">
<path fill="none" stroke="black" d="M139.2,-1122.6C139.2,-1134.23 139.2,-1149.85 139.2,-1163.16"/>
<polygon fill="black" stroke="black" points="135.7,-1163.22 139.2,-1173.22 142.7,-1163.22 135.7,-1163.22"/>
</a>
</g>
<text text-anchor="middle" x="143.7" y="-1144.2" font-family="Times-Roman" font-size="14.00">3</text>
</g>
<!-- PiR2 -->
<g id="node3" class="node">
<title>PiR2</title>
<ellipse fill="none" stroke="black" cx="139.2" cy="-1017.4" rx="27" ry="18"/>
<text text-anchor="middle" x="139.2" y="-1013.7" font-family="Times-Roman" font-size="14.00">PiR</text>
</g>
<!-- PiR2&#45;&gt;Identity0 -->
<g id="edge51" class="edge">
<title>PiR2&#45;&gt;Identity0</title>
<g id="a_edge51"><a xlink:title="ret82">
<path fill="none" stroke="red" d="M153.76,-1032.78C165.61,-1045.58 181.45,-1065.49 188.2,-1086.4 193.11,-1101.62 193.11,-1107.17 188.2,-1122.4 182.93,-1138.71 172.13,-1154.41 162.01,-1166.61"/>
<polygon fill="red" stroke="red" points="159.11,-1164.61 155.19,-1174.45 164.39,-1169.2 159.11,-1164.61"/>
</a>
</g>
</g>
<!-- PiR2&#45;&gt;BangD1 -->
<g id="edge22" class="edge">
<title>PiR2&#45;&gt;BangD1</title>
<g id="a_edge22"><a xlink:title="i81">
<path fill="none" stroke="blue" d="M122.88,-1032.08C117.09,-1037.97 111.25,-1045.35 108.2,-1053.4 104.67,-1062.71 108.32,-1072.18 114.2,-1080.34"/>
<polygon fill="blue" stroke="blue" points="111.53,-1082.6 120.64,-1088 116.89,-1078.1 111.53,-1082.6"/>
</a>
</g>
<text text-anchor="middle" x="112.7" y="-1057.2" font-family="Times-Roman" font-size="14.00">3</text>
</g>
<!-- PiR2&#45;&gt;BangD1 -->
<g id="edge61" class="edge">
<title>PiR2&#45;&gt;BangD1</title>
<g id="a_edge61"><a xlink:title="seq80">
<path fill="none" stroke="black" d="M139.2,-1035.6C139.2,-1047.23 139.2,-1062.85 139.2,-1076.16"/>
<polygon fill="black" stroke="black" points="135.7,-1076.22 139.2,-1086.22 142.7,-1076.22 135.7,-1076.22"/>
</a>
</g>
<text text-anchor="middle" x="143.7" y="-1057.2" font-family="Times-Roman" font-size="14.00">3</text>
</g>
<!-- Bang3 -->
<g id="node4" class="node">
<title>Bang3</title>
<ellipse fill="none" stroke="black" cx="139.2" cy="-930.4" rx="32.49" ry="18"/>
<text text-anchor="middle" x="139.2" y="-926.7" font-family="Times-Roman" font-size="14.00">Bang</text>
</g>
<!-- Bang3&#45;&gt;PiR2 -->
<g id="edge4" class="edge">
<title>Bang3&#45;&gt;PiR2</title>
<g id="a_edge4"><a xlink:title="c_bseq79">
<path fill="none" stroke="black" d="M139.2,-948.6C139.2,-960.23 139.2,-975.85 139.2,-989.16"/>
<polygon fill="black" stroke="black" points="135.7,-989.22 139.2,-999.22 142.7,-989.22 135.7,-989.22"/>
</a>
</g>
<text text-anchor="middle" x="143.7" y="-970.2" font-family="Times-Roman" font-size="14.00">3</text>
</g>
<!-- Bang3&#45;&gt;PiR2 -->
<g id="edge45" class="edge">
<title>Bang3&#45;&gt;PiR2</title>
<g id="a_edge45"><a xlink:title="newrretf78">
<path fill="none" stroke="red" d="M145.51,-948.44C148.34,-958.06 150.74,-970.35 149.2,-981.4 148.81,-984.12 148.27,-986.93 147.64,-989.71"/>
<polygon fill="red" stroke="red" points="144.22,-988.95 145.05,-999.51 150.99,-990.74 144.22,-988.95"/>
</a>
</g>
<text text-anchor="middle" x="154.7" y="-970.2" font-family="Times-Roman" font-size="14.00">3</text>
</g>
<!-- Identity4 -->
<g id="node5" class="node">
<title>Identity4</title>
<ellipse fill="none" stroke="black" cx="44.2" cy="-930.4" rx="44.39" ry="18"/>
<text text-anchor="middle" x="44.2" y="-926.7" font-family="Times-Roman" font-size="14.00">Identity</text>
</g>
<!-- PiL5 -->
<g id="node6" class="node">
<title>PiL5</title>
<ellipse fill="none" stroke="black" cx="120.2" cy="-843.4" rx="27" ry="18"/>
<text text-anchor="middle" x="120.2" y="-839.7" font-family="Times-Roman" font-size="14.00">PiL</text>
</g>
<!-- PiL5&#45;&gt;Bang3 -->
<g id="edge13" class="edge">
<title>PiL5&#45;&gt;Bang3</title>
<g id="a_edge13"><a xlink:title="dseq76">
<path fill="none" stroke="black" d="M118.63,-861.78C118.23,-871.51 118.52,-883.79 121.2,-894.4 122.02,-897.64 123.18,-900.93 124.53,-904.12"/>
<polygon fill="black" stroke="black" points="121.46,-905.8 128.96,-913.27 127.76,-902.75 121.46,-905.8"/>
</a>
</g>
<text text-anchor="middle" x="125.7" y="-883.2" font-family="Times-Roman" font-size="14.00">2</text>
</g>
<!-- PiL5&#45;&gt;Bang3 -->
<g id="edge40" class="edge">
<title>PiL5&#45;&gt;Bang3</title>
<g id="a_edge40"><a xlink:title="newrret74">
<path fill="none" stroke="red" d="M125.42,-861.4C127.07,-867.09 128.82,-873.49 130.2,-879.4 131.9,-886.75 133.48,-894.78 134.81,-902.21"/>
<polygon fill="red" stroke="red" points="131.39,-902.93 136.54,-912.18 138.28,-901.73 131.39,-902.93"/>
</a>
</g>
<text text-anchor="middle" x="137.7" y="-883.2" font-family="Times-Roman" font-size="14.00">2</text>
</g>
<!-- PiL5&#45;&gt;Identity4 -->
<g id="edge27" class="edge">
<title>PiL5&#45;&gt;Identity4</title>
<g id="a_edge27"><a xlink:title="idseq77">
<path fill="none" stroke="black" d="M96.05,-864.84C84.24,-876.86 70.48,-892.14 59.99,-904.81"/>
<polygon fill="black" stroke="black" points="105.73,-860.16 96.17,-864.73 100.79,-855.19 105.73,-860.16"/>
<polygon fill="black" stroke="black" points="57.18,-902.72 53.63,-912.7 62.63,-907.12 57.18,-902.72"/>
</a>
</g>
</g>
<!-- PiL5&#45;&gt;Identity4 -->
<g id="edge34" class="edge">
<title>PiL5&#45;&gt;Identity4</title>
<g id="a_edge34"><a xlink:title="lret75">
<path fill="none" stroke="blue" d="M111,-860.78C100.82,-873.85 84.53,-892.29 70.48,-906.76"/>
<polygon fill="blue" stroke="blue" points="67.94,-904.35 63.39,-913.92 72.91,-909.28 67.94,-904.35"/>
</a>
</g>
</g>
<!-- Identity6 -->
<g id="node7" class="node">
<title>Identity6</title>
<ellipse fill="none" stroke="black" cx="234.2" cy="-930.4" rx="44.39" ry="18"/>
<text text-anchor="middle" x="234.2" y="-926.7" font-family="Times-Roman" font-size="14.00">Identity</text>
</g>
<!-- BangD7 -->
<g id="node8" class="node">
<title>BangD7</title>
<ellipse fill="none" stroke="black" cx="244.2" cy="-843.4" rx="39.79" ry="18"/>
<text text-anchor="middle" x="244.2" y="-839.7" font-family="Times-Roman" font-size="14.00">BangD</text>
</g>
<!-- BangD7&#45;&gt;Identity6 -->
<g id="edge20" class="edge">
<title>BangD7&#45;&gt;Identity6</title>
<g id="a_edge20"><a xlink:title="hret73">
<path fill="none" stroke="blue" d="M226.24,-859.78C221.01,-865.37 215.96,-872.11 213.2,-879.4 210.13,-887.49 211.97,-896.23 215.6,-904.1"/>
<polygon fill="blue" stroke="blue" points="212.56,-905.83 220.49,-912.85 218.67,-902.41 212.56,-905.83"/>
</a>
</g>
<text text-anchor="middle" x="217.7" y="-883.2" font-family="Times-Roman" font-size="14.00">2</text>
</g>
<!-- BangD7&#45;&gt;Identity6 -->
<g id="edge21" class="edge">
<title>BangD7&#45;&gt;Identity6</title>
<g id="a_edge21"><a xlink:title="hseq72">
<path fill="none" stroke="black" d="M242.17,-861.6C240.8,-873.23 238.97,-888.85 237.4,-902.16"/>
<polygon fill="black" stroke="black" points="233.91,-901.88 236.22,-912.22 240.86,-902.7 233.91,-901.88"/>
</a>
</g>
<text text-anchor="middle" x="244.7" y="-883.2" font-family="Times-Roman" font-size="14.00">2</text>
</g>
<!-- Cut8 -->
<g id="node9" class="node">
<title>Cut8</title>
<ellipse fill="none" stroke="black" cx="209.2" cy="-756.4" rx="27" ry="18"/>
<text text-anchor="middle" x="209.2" y="-752.7" font-family="Times-Roman" font-size="14.00">Cut</text>
</g>
<!-- Cut8&#45;&gt;PiL5 -->
<g id="edge7" class="edge">
<title>Cut8&#45;&gt;PiL5</title>
<g id="a_edge7"><a xlink:title="c_lseq68">
<path fill="none" stroke="black" d="M178.4,-772.42C169.74,-778.27 160.75,-785.28 153.2,-792.4 145.24,-799.9 137.31,-808.85 131.01,-817.09"/>
<polygon fill="black" stroke="black" points="188.77,-769.95 178.46,-772.39 184.99,-764.05 188.77,-769.95"/>
<polygon fill="black" stroke="black" points="128.08,-815.17 125.09,-825.33 133.77,-819.25 128.08,-815.17"/>
</a>
</g>
</g>
<!-- Cut8&#45;&gt;PiL5 -->
<g id="edge36" class="edge">
<title>Cut8&#45;&gt;PiL5</title>
<g id="a_edge36"><a xlink:title="lval70">
<path fill="none" stroke="blue" d="M195.7,-772.08C188.09,-778 178.89,-785.14 171.2,-792.4 161.88,-801.18 152.61,-811.94 144.39,-821.23"/>
<polygon fill="blue" stroke="blue" points="141.55,-819.15 137.46,-828.92 146.75,-823.84 141.55,-819.15"/>
</a>
</g>
</g>
<!-- Cut8&#45;&gt;Identity6 -->
<g id="edge54" class="edge">
<title>Cut8&#45;&gt;Identity6</title>
<g id="a_edge54"><a xlink:title="rval71">
<path fill="none" stroke="red" d="M203.67,-774.06C197.58,-794.67 189.38,-830.79 195.2,-861.4 198.14,-876.88 200.54,-880.62 208.2,-894.4 210.13,-897.87 212.36,-901.39 214.69,-904.79"/>
<polygon fill="red" stroke="red" points="211.86,-906.86 220.56,-912.91 217.54,-902.76 211.86,-906.86"/>
</a>
</g>
</g>
<!-- Cut8&#45;&gt;BangD7 -->
<g id="edge9" class="edge">
<title>Cut8&#45;&gt;BangD7</title>
<g id="a_edge9"><a xlink:title="c_rseq69">
<path fill="none" stroke="black" d="M216.11,-774.19C221.05,-786.18 227.79,-802.54 233.43,-816.24"/>
<polygon fill="black" stroke="black" points="230.25,-817.72 237.3,-825.64 236.72,-815.06 230.25,-817.72"/>
</a>
</g>
<text text-anchor="middle" x="233.7" y="-796.2" font-family="Times-Roman" font-size="14.00">2</text>
</g>
<!-- Bang9 -->
<g id="node10" class="node">
<title>Bang9</title>
<ellipse fill="none" stroke="black" cx="272.2" cy="-669.4" rx="32.49" ry="18"/>
<text text-anchor="middle" x="272.2" y="-665.7" font-family="Times-Roman" font-size="14.00">Bang</text>
</g>
<!-- Bang9&#45;&gt;Identity4 -->
<g id="edge44" class="edge">
<title>Bang9&#45;&gt;Identity4</title>
<g id="a_edge44"><a xlink:title="newrretf66">
<path fill="none" stroke="red" d="M249.96,-682.6C210.53,-705.39 128.37,-758.25 84.2,-825.4 68.41,-849.39 57.48,-880.54 51.08,-902.47"/>
<polygon fill="red" stroke="red" points="47.7,-901.56 48.38,-912.13 54.44,-903.44 47.7,-901.56"/>
</a>
</g>
<text text-anchor="middle" x="113.7" y="-796.2" font-family="Times-Roman" font-size="14.00">2</text>
</g>
<!-- Bang9&#45;&gt;BangD7 -->
<g id="edge19" class="edge">
<title>Bang9&#45;&gt;BangD7</title>
<g id="a_edge19"><a xlink:title="hf65">
<path fill="none" stroke="blue" d="M269.41,-687.52C264.55,-717.39 254.47,-779.28 248.64,-815.12"/>
<polygon fill="blue" stroke="blue" points="245.12,-814.91 246.97,-825.34 252.03,-816.04 245.12,-814.91"/>
</a>
</g>
<text text-anchor="middle" x="265.7" y="-752.7" font-family="Times-Roman" font-size="14.00">1</text>
</g>
<!-- Bang9&#45;&gt;Cut8 -->
<g id="edge3" class="edge">
<title>Bang9&#45;&gt;Cut8</title>
<g id="a_edge3"><a xlink:title="c_bseq67">
<path fill="none" stroke="black" d="M260.35,-686.38C250.81,-699.25 237.28,-717.51 226.53,-732.01"/>
<polygon fill="black" stroke="black" points="223.71,-729.93 220.57,-740.05 229.33,-734.1 223.71,-729.93"/>
</a>
</g>
<text text-anchor="middle" x="249.7" y="-709.2" font-family="Times-Roman" font-size="14.00">2</text>
</g>
<!-- Identity10 -->
<g id="node11" class="node">
<title>Identity10</title>
<ellipse fill="none" stroke="black" cx="329.2" cy="-1104.4" rx="44.39" ry="18"/>
<text text-anchor="middle" x="329.2" y="-1100.7" font-family="Times-Roman" font-size="14.00">Identity</text>
</g>
<!-- BangD11 -->
<g id="node12" class="node">
<title>BangD11</title>
<ellipse fill="none" stroke="black" cx="329.2" cy="-1017.4" rx="39.79" ry="18"/>
<text text-anchor="middle" x="329.2" y="-1013.7" font-family="Times-Roman" font-size="14.00">BangD</text>
</g>
<!-- BangD11&#45;&gt;Identity10 -->
<g id="edge73" class="edge">
<title>BangD11&#45;&gt;Identity10</title>
<g id="a_edge73"><a xlink:title="yret60">
<path fill="none" stroke="blue" d="M335.51,-1035.44C338.34,-1045.06 340.74,-1057.35 339.2,-1068.4 338.81,-1071.12 338.27,-1073.93 337.64,-1076.71"/>
<polygon fill="blue" stroke="blue" points="334.22,-1075.95 335.05,-1086.51 340.99,-1077.74 334.22,-1075.95"/>
</a>
</g>
<text text-anchor="middle" x="344.7" y="-1057.2" font-family="Times-Roman" font-size="14.00">2</text>
</g>
<!-- BangD11&#45;&gt;Identity10 -->
<g id="edge75" class="edge">
<title>BangD11&#45;&gt;Identity10</title>
<g id="a_edge75"><a xlink:title="yseq59">
<path fill="none" stroke="black" d="M329.2,-1035.6C329.2,-1047.23 329.2,-1062.85 329.2,-1076.16"/>
<polygon fill="black" stroke="black" points="325.7,-1076.22 329.2,-1086.22 332.7,-1076.22 325.7,-1076.22"/>
</a>
</g>
<text text-anchor="middle" x="333.7" y="-1057.2" font-family="Times-Roman" font-size="14.00">2</text>
</g>
<!-- Bang12 -->
<g id="node13" class="node">
<title>Bang12</title>
<ellipse fill="none" stroke="black" cx="329.2" cy="-930.4" rx="32.49" ry="18"/>
<text text-anchor="middle" x="329.2" y="-926.7" font-family="Times-Roman" font-size="14.00">Bang</text>
</g>
<!-- Bang12&#45;&gt;Identity10 -->
<g id="edge43" class="edge">
<title>Bang12&#45;&gt;Identity10</title>
<g id="a_edge43"><a xlink:title="newrretf57">
<path fill="none" stroke="red" d="M344.47,-946.55C356.24,-959.38 371.58,-978.9 378.2,-999.4 383.11,-1014.62 383.11,-1020.17 378.2,-1035.4 372.93,-1051.71 362.13,-1067.41 352.01,-1079.61"/>
<polygon fill="red" stroke="red" points="349.11,-1077.61 345.19,-1087.45 354.39,-1082.2 349.11,-1077.61"/>
</a>
</g>
<text text-anchor="middle" x="386.7" y="-1013.7" font-family="Times-Roman" font-size="14.00">2</text>
</g>
<!-- Bang12&#45;&gt;BangD11 -->
<g id="edge2" class="edge">
<title>Bang12&#45;&gt;BangD11</title>
<g id="a_edge2"><a xlink:title="c_bseq58">
<path fill="none" stroke="black" d="M329.2,-948.6C329.2,-960.23 329.2,-975.85 329.2,-989.16"/>
<polygon fill="black" stroke="black" points="325.7,-989.22 329.2,-999.22 332.7,-989.22 325.7,-989.22"/>
</a>
</g>
<text text-anchor="middle" x="333.7" y="-970.2" font-family="Times-Roman" font-size="14.00">2</text>
</g>
<!-- Bang12&#45;&gt;BangD11 -->
<g id="edge71" class="edge">
<title>Bang12&#45;&gt;BangD11</title>
<g id="a_edge71"><a xlink:title="yBf56">
<path fill="none" stroke="blue" d="M321.6,-948.14C319.4,-953.82 317.3,-960.27 316.2,-966.4 314.82,-974.04 315.87,-982.24 317.85,-989.74"/>
<polygon fill="blue" stroke="blue" points="314.58,-990.99 321,-999.41 321.23,-988.82 314.58,-990.99"/>
</a>
</g>
<text text-anchor="middle" x="320.7" y="-970.2" font-family="Times-Roman" font-size="14.00">1</text>
</g>
<!-- Identity13 -->
<g id="node14" class="node">
<title>Identity13</title>
<ellipse fill="none" stroke="black" cx="424.2" cy="-930.4" rx="44.39" ry="18"/>
<text text-anchor="middle" x="424.2" y="-926.7" font-family="Times-Roman" font-size="14.00">Identity</text>
</g>
<!-- PiL14 -->
<g id="node15" class="node">
<title>PiL14</title>
<ellipse fill="none" stroke="black" cx="367.2" cy="-843.4" rx="27" ry="18"/>
<text text-anchor="middle" x="367.2" y="-839.7" font-family="Times-Roman" font-size="14.00">PiL</text>
</g>
<!-- PiL14&#45;&gt;Bang12 -->
<g id="edge11" class="edge">
<title>PiL14&#45;&gt;Bang12</title>
<g id="a_edge11"><a xlink:title="dseq54">
<path fill="none" stroke="black" d="M356.84,-860.04C353.19,-865.95 349.24,-872.84 346.2,-879.4 342.76,-886.8 339.66,-895.1 337.08,-902.77"/>
<polygon fill="black" stroke="black" points="333.72,-901.79 333.99,-912.38 340.38,-903.93 333.72,-901.79"/>
</a>
</g>
<text text-anchor="middle" x="350.7" y="-883.2" font-family="Times-Roman" font-size="14.00">1</text>
</g>
<!-- PiL14&#45;&gt;Bang12 -->
<g id="edge38" class="edge">
<title>PiL14&#45;&gt;Bang12</title>
<g id="a_edge38"><a xlink:title="newrret52">
<path fill="none" stroke="red" d="M364.82,-861.63C363.03,-871.54 360.03,-884.04 355.2,-894.4 353.39,-898.25 351.13,-902.1 348.69,-905.77"/>
<polygon fill="red" stroke="red" points="345.84,-903.73 342.82,-913.88 351.52,-907.83 345.84,-903.73"/>
</a>
</g>
<text text-anchor="middle" x="365.7" y="-883.2" font-family="Times-Roman" font-size="14.00">1</text>
</g>
<!-- PiL14&#45;&gt;Identity13 -->
<g id="edge25" class="edge">
<title>PiL14&#45;&gt;Identity13</title>
<g id="a_edge25"><a xlink:title="idseq55">
<path fill="none" stroke="black" d="M378.1,-869.98C384.96,-881.25 393.83,-894.43 402.04,-905.51"/>
<polygon fill="black" stroke="black" points="375.97,-859.42 378.01,-869.82 369.93,-862.96 375.97,-859.42"/>
<polygon fill="black" stroke="black" points="399.29,-907.67 408.14,-913.5 404.85,-903.43 399.29,-907.67"/>
</a>
</g>
</g>
<!-- PiL14&#45;&gt;Identity13 -->
<g id="edge32" class="edge">
<title>PiL14&#45;&gt;Identity13</title>
<g id="a_edge32"><a xlink:title="lret53">
<path fill="none" stroke="blue" d="M382.08,-858.81C391.89,-871.05 404.21,-888.91 413.16,-903.61"/>
<polygon fill="blue" stroke="blue" points="410.17,-905.41 418.25,-912.26 416.2,-901.87 410.17,-905.41"/>
</a>
</g>
</g>
<!-- Identity15 -->
<g id="node16" class="node">
<title>Identity15</title>
<ellipse fill="none" stroke="black" cx="530.2" cy="-930.4" rx="44.39" ry="18"/>
<text text-anchor="middle" x="530.2" y="-926.7" font-family="Times-Roman" font-size="14.00">Identity</text>
</g>
<!-- BangD16 -->
<g id="node17" class="node">
<title>BangD16</title>
<ellipse fill="none" stroke="black" cx="452.2" cy="-843.4" rx="39.79" ry="18"/>
<text text-anchor="middle" x="452.2" y="-839.7" font-family="Times-Roman" font-size="14.00">BangD</text>
</g>
<!-- BangD16&#45;&gt;Identity15 -->
<g id="edge72" class="edge">
<title>BangD16&#45;&gt;Identity15</title>
<g id="a_edge72"><a xlink:title="yret51">
<path fill="none" stroke="blue" d="M466.87,-860.38C478.56,-873.12 495.11,-891.16 508.36,-905.6"/>
<polygon fill="blue" stroke="blue" points="505.99,-908.19 515.33,-913.19 511.14,-903.46 505.99,-908.19"/>
</a>
</g>
<text text-anchor="middle" x="499.7" y="-883.2" font-family="Times-Roman" font-size="14.00">1</text>
</g>
<!-- BangD16&#45;&gt;Identity15 -->
<g id="edge74" class="edge">
<title>BangD16&#45;&gt;Identity15</title>
<g id="a_edge74"><a xlink:title="yseq50">
<path fill="none" stroke="black" d="M456.51,-861.58C459.78,-871.96 465.11,-884.96 473.2,-894.4 478.79,-900.92 485.92,-906.6 493.22,-911.38"/>
<polygon fill="black" stroke="black" points="491.43,-914.38 501.8,-916.56 495.05,-908.39 491.43,-914.38"/>
</a>
</g>
<text text-anchor="middle" x="477.7" y="-883.2" font-family="Times-Roman" font-size="14.00">1</text>
</g>
<!-- Cut17 -->
<g id="node18" class="node">
<title>Cut17</title>
<ellipse fill="none" stroke="black" cx="370.2" cy="-756.4" rx="27" ry="18"/>
<text text-anchor="middle" x="370.2" y="-752.7" font-family="Times-Roman" font-size="14.00">Cut</text>
</g>
<!-- Cut17&#45;&gt;PiL14 -->
<g id="edge6" class="edge">
<title>Cut17&#45;&gt;PiL14</title>
<g id="a_edge6"><a xlink:title="c_lseq46">
<path fill="none" stroke="black" d="M362.91,-784.39C362,-794.33 361.61,-805.58 361.82,-815.51"/>
<polygon fill="black" stroke="black" points="367.58,-774.59 362.94,-784.12 360.62,-773.78 367.58,-774.59"/>
<polygon fill="black" stroke="black" points="358.33,-815.81 362.29,-825.64 365.32,-815.49 358.33,-815.81"/>
</a>
</g>
</g>
<!-- Cut17&#45;&gt;PiL14 -->
<g id="edge35" class="edge">
<title>Cut17&#45;&gt;PiL14</title>
<g id="a_edge35"><a xlink:title="lval48">
<path fill="none" stroke="blue" d="M375.11,-774.19C376,-785.95 375.72,-801.91 374.48,-815.44"/>
<polygon fill="blue" stroke="blue" points="370.97,-815.3 373.29,-825.64 377.92,-816.11 370.97,-815.3"/>
</a>
</g>
</g>
<!-- Cut17&#45;&gt;Identity15 -->
<g id="edge53" class="edge">
<title>Cut17&#45;&gt;Identity15</title>
<g id="a_edge53"><a xlink:title="rval49">
<path fill="none" stroke="red" d="M390.83,-768.41C394.61,-770.41 398.52,-772.47 402.2,-774.4 446.05,-797.34 469.94,-787.02 501.2,-825.4 519.08,-847.35 525.96,-879.61 528.59,-902.37"/>
<polygon fill="red" stroke="red" points="525.11,-902.77 529.55,-912.39 532.08,-902.1 525.11,-902.77"/>
</a>
</g>
</g>
<!-- Cut17&#45;&gt;BangD16 -->
<g id="edge8" class="edge">
<title>Cut17&#45;&gt;BangD16</title>
<g id="a_edge8"><a xlink:title="c_rseq47">
<path fill="none" stroke="black" d="M384.48,-772.2C396.98,-785.16 415.36,-804.21 429.81,-819.2"/>
<polygon fill="black" stroke="black" points="427.5,-821.84 436.96,-826.61 432.54,-816.98 427.5,-821.84"/>
</a>
</g>
<text text-anchor="middle" x="419.7" y="-796.2" font-family="Times-Roman" font-size="14.00">1</text>
</g>
<!-- BangC18 -->
<g id="node19" class="node">
<title>BangC18</title>
<ellipse fill="none" stroke="black" cx="370.2" cy="-669.4" rx="38.19" ry="18"/>
<text text-anchor="middle" x="370.2" y="-665.7" font-family="Times-Roman" font-size="14.00">BangC</text>
</g>
<!-- BangC18&#45;&gt;Bang12 -->
<g id="edge70" class="edge">
<title>BangC18&#45;&gt;Bang12</title>
<g id="a_edge70"><a xlink:title="yB44">
<path fill="none" stroke="blue" d="M353.32,-695.62C346,-707.97 338.2,-723.38 334.2,-738.4 319.06,-795.13 322.47,-864.73 326.01,-902.28"/>
<polygon fill="blue" stroke="blue" points="361.73,-688.67 353.49,-695.34 355.78,-684.99 361.73,-688.67"/>
<polygon fill="blue" stroke="blue" points="322.55,-902.82 327.04,-912.42 329.51,-902.11 322.55,-902.82"/>
</a>
</g>
<text text-anchor="middle" x="329.7" y="-796.2" font-family="Times-Roman" font-size="14.00">1</text>
</g>
<!-- BangC18&#45;&gt;BangD16 -->
<g id="edge69" class="edge">
<title>BangC18&#45;&gt;BangD16</title>
<g id="a_edge69"><a xlink:title="yA43">
<path fill="none" stroke="blue" d="M379.4,-686.99C386.88,-700.66 397.57,-720.61 406.2,-738.4 418.92,-764.62 432.26,-795.18 441.28,-816.36"/>
<polygon fill="blue" stroke="blue" points="438.1,-817.82 445.22,-825.66 444.55,-815.09 438.1,-817.82"/>
</a>
</g>
<text text-anchor="middle" x="426.7" y="-752.7" font-family="Times-Roman" font-size="14.00">1</text>
</g>
<!-- BangC18&#45;&gt;Cut17 -->
<g id="edge60" class="edge">
<title>BangC18&#45;&gt;Cut17</title>
<g id="a_edge60"><a xlink:title="seq45">
<path fill="none" stroke="black" d="M370.2,-687.6C370.2,-699.23 370.2,-714.85 370.2,-728.16"/>
<polygon fill="black" stroke="black" points="366.7,-728.22 370.2,-738.22 373.7,-728.22 366.7,-728.22"/>
</a>
</g>
</g>
<!-- Identity19 -->
<g id="node20" class="node">
<title>Identity19</title>
<ellipse fill="none" stroke="black" cx="200.2" cy="-495.4" rx="44.39" ry="18"/>
<text text-anchor="middle" x="200.2" y="-491.7" font-family="Times-Roman" font-size="14.00">Identity</text>
</g>
<!-- BangD20 -->
<g id="node21" class="node">
<title>BangD20</title>
<ellipse fill="none" stroke="black" cx="232.2" cy="-408.4" rx="39.79" ry="18"/>
<text text-anchor="middle" x="232.2" y="-404.7" font-family="Times-Roman" font-size="14.00">BangD</text>
</g>
<!-- BangD20&#45;&gt;Identity19 -->
<g id="edge66" class="edge">
<title>BangD20&#45;&gt;Identity19</title>
<g id="a_edge66"><a xlink:title="xret26">
<path fill="none" stroke="blue" d="M214.33,-424.82C209.1,-430.4 204.03,-437.14 201.2,-444.4 198.45,-451.43 197.45,-459.46 197.33,-466.99"/>
<polygon fill="blue" stroke="blue" points="193.84,-467.28 197.66,-477.16 200.84,-467.05 193.84,-467.28"/>
</a>
</g>
<text text-anchor="middle" x="205.7" y="-448.2" font-family="Times-Roman" font-size="14.00">1</text>
</g>
<!-- BangD20&#45;&gt;Identity19 -->
<g id="edge67" class="edge">
<title>BangD20&#45;&gt;Identity19</title>
<g id="a_edge67"><a xlink:title="xseq25">
<path fill="none" stroke="black" d="M225.87,-426.19C221.39,-438.1 215.28,-454.33 210.14,-467.97"/>
<polygon fill="black" stroke="black" points="206.86,-466.75 206.61,-477.35 213.41,-469.22 206.86,-466.75"/>
</a>
</g>
<text text-anchor="middle" x="222.7" y="-448.2" font-family="Times-Roman" font-size="14.00">1</text>
</g>
<!-- Bang21 -->
<g id="node22" class="node">
<title>Bang21</title>
<ellipse fill="none" stroke="black" cx="232.2" cy="-321.4" rx="32.49" ry="18"/>
<text text-anchor="middle" x="232.2" y="-317.7" font-family="Times-Roman" font-size="14.00">Bang</text>
</g>
<!-- Bang21&#45;&gt;Identity19 -->
<g id="edge42" class="edge">
<title>Bang21&#45;&gt;Identity19</title>
<g id="a_edge42"><a xlink:title="newrretf23">
<path fill="none" stroke="red" d="M214.46,-336.73C200.53,-349.23 182.19,-368.7 174.2,-390.4 164.6,-416.44 175.01,-447.44 185.37,-468.78"/>
<polygon fill="red" stroke="red" points="182.36,-470.58 190.06,-477.85 188.58,-467.36 182.36,-470.58"/>
</a>
</g>
<text text-anchor="middle" x="178.7" y="-404.7" font-family="Times-Roman" font-size="14.00">1</text>
</g>
<!-- Bang21&#45;&gt;BangD20 -->
<g id="edge1" class="edge">
<title>Bang21&#45;&gt;BangD20</title>
<g id="a_edge1"><a xlink:title="c_bseq24">
<path fill="none" stroke="black" d="M232.2,-339.6C232.2,-351.23 232.2,-366.85 232.2,-380.16"/>
<polygon fill="black" stroke="black" points="228.7,-380.22 232.2,-390.22 235.7,-380.22 228.7,-380.22"/>
</a>
</g>
<text text-anchor="middle" x="236.7" y="-361.2" font-family="Times-Roman" font-size="14.00">1</text>
</g>
<!-- Bang21&#45;&gt;BangD20 -->
<g id="edge65" class="edge">
<title>Bang21&#45;&gt;BangD20</title>
<g id="a_edge65"><a xlink:title="xBf22">
<path fill="none" stroke="blue" d="M238.51,-339.44C241.34,-349.06 243.74,-361.35 242.2,-372.4 241.81,-375.12 241.27,-377.93 240.64,-380.71"/>
<polygon fill="blue" stroke="blue" points="237.22,-379.95 238.05,-390.51 243.99,-381.74 237.22,-379.95"/>
</a>
</g>
<text text-anchor="middle" x="247.7" y="-361.2" font-family="Times-Roman" font-size="14.00">0</text>
</g>
<!-- Assign22 -->
<g id="node23" class="node">
<title>Assign22</title>
<ellipse fill="none" stroke="black" cx="389.2" cy="-18" rx="38.99" ry="18"/>
<text text-anchor="middle" x="389.2" y="-14.3" font-family="Times-Roman" font-size="14.00">Assign</text>
</g>
<!-- Cut26 -->
<g id="node27" class="node">
<title>Cut26</title>
<ellipse fill="none" stroke="black" cx="389.2" cy="-105" rx="27" ry="18"/>
<text text-anchor="middle" x="389.2" y="-101.3" font-family="Times-Roman" font-size="14.00">Cut</text>
</g>
<!-- Assign22&#45;&gt;Cut26 -->
<g id="edge52" class="edge">
<title>Assign22&#45;&gt;Cut26</title>
<g id="a_edge52"><a xlink:title="retseq0">
<path fill="none" stroke="black" d="M389.2,-36.2C389.2,-47.84 389.2,-63.45 389.2,-76.76"/>
<polygon fill="black" stroke="black" points="385.7,-76.82 389.2,-86.82 392.7,-76.82 385.7,-76.82"/>
</a>
</g>
</g>
<!-- Lift32 -->
<g id="node33" class="node">
<title>Lift32</title>
<ellipse fill="none" stroke="black" cx="570.2" cy="-169.7" rx="24.87" ry="24.87"/>
<ellipse fill="none" stroke="black" cx="570.2" cy="-169.7" rx="28.9" ry="28.9"/>
<text text-anchor="middle" x="570.2" y="-166" font-family="Times-Roman" font-size="14.00">Lift</text>
</g>
<!-- Assign22&#45;&gt;Lift32 -->
<g id="edge49" class="edge">
<title>Assign22&#45;&gt;Lift32</title>
<g id="a_edge49"><a xlink:title="ret110">
<path fill="none" stroke="red" stroke-width="2" d="M407.55,-34.18C438.8,-60.02 502.61,-112.8 540.35,-144.02"/>
<polygon fill="red" stroke="red" stroke-width="2" points="538.51,-147.03 548.44,-150.71 542.97,-141.64 538.51,-147.03"/>
</a>
</g>
<text text-anchor="middle" x="453.7" y="-57.8" font-family="Times-Roman" font-size="14.00">0</text>
</g>
<!-- Cut23 -->
<g id="node24" class="node">
<title>Cut23</title>
<ellipse fill="none" stroke="black" cx="370.2" cy="-582.4" rx="27" ry="18"/>
<text text-anchor="middle" x="370.2" y="-578.7" font-family="Times-Roman" font-size="14.00">Cut</text>
</g>
<!-- Cut23&#45;&gt;Bang9 -->
<g id="edge12" class="edge">
<title>Cut23&#45;&gt;Bang9</title>
<g id="a_edge12"><a xlink:title="dseq63">
<path fill="none" stroke="black" d="M354.99,-597.63C344.06,-607.76 328.89,-621.61 315.2,-633.4 309.71,-638.12 303.73,-643.09 298.02,-647.76"/>
<polygon fill="black" stroke="black" points="295.51,-645.29 289.95,-654.31 299.92,-650.72 295.51,-645.29"/>
</a>
</g>
<text text-anchor="middle" x="336.7" y="-622.2" font-family="Times-Roman" font-size="14.00">1</text>
</g>
<!-- Cut23&#45;&gt;Bang9 -->
<g id="edge39" class="edge">
<title>Cut23&#45;&gt;Bang9</title>
<g id="a_edge39"><a xlink:title="newrret61">
<path fill="none" stroke="red" d="M347.5,-592.58C334.45,-598.61 318.29,-607.42 306.2,-618.4 298.47,-625.41 291.61,-634.52 286.12,-643.04"/>
<polygon fill="red" stroke="red" points="283.12,-641.23 280.91,-651.59 289.1,-644.88 283.12,-641.23"/>
</a>
</g>
<text text-anchor="middle" x="310.7" y="-622.2" font-family="Times-Roman" font-size="14.00">1</text>
</g>
<!-- Cut23&#45;&gt;BangC18 -->
<g id="edge59" class="edge">
<title>Cut23&#45;&gt;BangC18</title>
<g id="a_edge59"><a xlink:title="seq40">
<path fill="none" stroke="black" d="M363.87,-610.32C363.31,-620.19 363.31,-631.36 363.85,-641.24"/>
<polygon fill="black" stroke="black" points="368.18,-600.47 363.88,-610.16 361.2,-599.9 368.18,-600.47"/>
<polygon fill="black" stroke="black" points="360.38,-641.66 364.66,-651.35 367.35,-641.1 360.38,-641.66"/>
</a>
</g>
</g>
<!-- Cut23&#45;&gt;BangC18 -->
<g id="edge68" class="edge">
<title>Cut23&#45;&gt;BangC18</title>
<g id="a_edge68"><a xlink:title="y41">
<path fill="none" stroke="blue" d="M375.7,-600.19C377,-611.87 377.28,-627.7 376.54,-641.17"/>
<polygon fill="blue" stroke="blue" points="373.04,-641.1 375.73,-651.35 380.02,-641.66 373.04,-641.1"/>
</a>
</g>
</g>
<!-- Cut24 -->
<g id="node25" class="node">
<title>Cut24</title>
<ellipse fill="none" stroke="black" cx="444.2" cy="-495.4" rx="27" ry="18"/>
<text text-anchor="middle" x="444.2" y="-491.7" font-family="Times-Roman" font-size="14.00">Cut</text>
</g>
<!-- Cut24&#45;&gt;Identity13 -->
<g id="edge50" class="edge">
<title>Cut24&#45;&gt;Identity13</title>
<g id="a_edge50"><a xlink:title="ret42">
<path fill="none" stroke="red" d="M443.68,-513.44C443,-547.06 443.05,-624.11 455.2,-687.4 470.27,-765.95 509.54,-781.84 501.2,-861.4 499.63,-876.31 503.37,-882.53 494.2,-894.4 487.52,-903.03 478.14,-909.69 468.41,-914.77"/>
<polygon fill="red" stroke="red" points="466.62,-911.75 459.06,-919.16 469.6,-918.08 466.62,-911.75"/>
</a>
</g>
</g>
<!-- Cut24&#45;&gt;Cut23 -->
<g id="edge63" class="edge">
<title>Cut24&#45;&gt;Cut23</title>
<g id="a_edge63"><a xlink:title="seqP86">
<path fill="none" stroke="black" d="M430.97,-511.59C419.6,-524.65 403.05,-543.66 390.09,-558.55"/>
<polygon fill="black" stroke="black" points="387.24,-556.49 383.31,-566.33 392.52,-561.09 387.24,-556.49"/>
</a>
</g>
</g>
<!-- DupI36 -->
<g id="node37" class="node">
<title>DupI36</title>
<ellipse fill="none" stroke="black" cx="496.2" cy="-582.4" rx="31.7" ry="18"/>
<text text-anchor="middle" x="496.2" y="-578.7" font-family="Times-Roman" font-size="14.00">DupI</text>
</g>
<!-- Cut24&#45;&gt;DupI36 -->
<g id="edge26" class="edge">
<title>Cut24&#45;&gt;DupI36</title>
<g id="a_edge26"><a xlink:title="idseq64">
<path fill="none" stroke="black" d="M459.34,-521.16C466.13,-532.24 474.11,-545.29 480.9,-556.4"/>
<polygon fill="black" stroke="black" points="456.96,-510.56 459.2,-520.91 450.99,-514.21 456.96,-510.56"/>
<polygon fill="black" stroke="black" points="478.08,-558.49 486.28,-565.19 484.05,-554.83 478.08,-558.49"/>
</a>
</g>
<text text-anchor="middle" x="477.7" y="-535.2" font-family="Times-Roman" font-size="14.00">1</text>
</g>
<!-- DupI37 -->
<g id="node38" class="node">
<title>DupI37</title>
<ellipse fill="none" stroke="black" cx="578.2" cy="-582.4" rx="31.7" ry="18"/>
<text text-anchor="middle" x="578.2" y="-578.7" font-family="Times-Roman" font-size="14.00">DupI</text>
</g>
<!-- Cut24&#45;&gt;DupI37 -->
<g id="edge33" class="edge">
<title>Cut24&#45;&gt;DupI37</title>
<g id="a_edge33"><a xlink:title="lret62">
<path fill="none" stroke="blue" d="M463.11,-508.39C485.44,-522.56 522.83,-546.27 548.91,-562.82"/>
<polygon fill="blue" stroke="blue" points="547.3,-565.94 557.62,-568.34 551.05,-560.03 547.3,-565.94"/>
</a>
</g>
<text text-anchor="middle" x="523.7" y="-535.2" font-family="Times-Roman" font-size="14.00">1</text>
</g>
<!-- Bang25 -->
<g id="node26" class="node">
<title>Bang25</title>
<ellipse fill="none" stroke="black" cx="421.2" cy="-234.4" rx="32.49" ry="18"/>
<text text-anchor="middle" x="421.2" y="-230.7" font-family="Times-Roman" font-size="14.00">Bang</text>
</g>
<!-- PiR27 -->
<g id="node28" class="node">
<title>PiR27</title>
<ellipse fill="none" stroke="black" cx="453.2" cy="-321.4" rx="27" ry="18"/>
<text text-anchor="middle" x="453.2" y="-317.7" font-family="Times-Roman" font-size="14.00">PiR</text>
</g>
<!-- Bang25&#45;&gt;PiR27 -->
<g id="edge5" class="edge">
<title>Bang25&#45;&gt;PiR27</title>
<g id="a_edge5"><a xlink:title="c_bseq91">
<path fill="none" stroke="black" d="M418.66,-252.63C417.9,-262.54 418.15,-275.04 422.2,-285.4 424.1,-290.28 427.02,-294.93 430.32,-299.15"/>
<polygon fill="black" stroke="black" points="427.73,-301.5 436.96,-306.68 432.98,-296.87 427.73,-301.5"/>
</a>
</g>
<text text-anchor="middle" x="426.7" y="-274.2" font-family="Times-Roman" font-size="14.00">1</text>
</g>
<!-- Bang25&#45;&gt;PiR27 -->
<g id="edge46" class="edge">
<title>Bang25&#45;&gt;PiR27</title>
<g id="a_edge46"><a xlink:title="newrretf92">
<path fill="none" stroke="red" d="M427.52,-252.19C432.03,-264.18 438.19,-280.54 443.35,-294.24"/>
<polygon fill="red" stroke="red" points="440.09,-295.51 446.89,-303.64 446.64,-293.05 440.09,-295.51"/>
</a>
</g>
<text text-anchor="middle" x="442.7" y="-274.2" font-family="Times-Roman" font-size="14.00">1</text>
</g>
<!-- Cut26&#45;&gt;Bang21 -->
<g id="edge64" class="edge">
<title>Cut26&#45;&gt;Bang21</title>
<g id="a_edge64"><a xlink:title="xB10">
<path fill="none" stroke="blue" d="M374.05,-120.18C367.7,-126.37 360.37,-133.84 354.2,-141 307.42,-195.22 296.17,-209.68 258.2,-270.4 253.4,-278.06 248.68,-286.71 244.6,-294.63"/>
<polygon fill="blue" stroke="blue" points="241.35,-293.31 239.99,-303.82 247.61,-296.45 241.35,-293.31"/>
</a>
</g>
<text text-anchor="middle" x="297.7" y="-230.7" font-family="Times-Roman" font-size="14.00">0</text>
</g>
<!-- Cut26&#45;&gt;Bang25 -->
<g id="edge14" class="edge">
<title>Cut26&#45;&gt;Bang25</title>
<g id="a_edge14"><a xlink:title="dseq93">
<path fill="none" stroke="black" d="M385.93,-123.02C383.04,-142.07 380.62,-173.55 390.2,-198.4 391.96,-202.98 394.63,-207.36 397.67,-211.37"/>
<polygon fill="black" stroke="black" points="395.09,-213.73 404.27,-219.02 400.39,-209.16 395.09,-213.73"/>
</a>
</g>
<text text-anchor="middle" x="394.7" y="-166" font-family="Times-Roman" font-size="14.00">0</text>
</g>
<!-- Cut26&#45;&gt;Bang25 -->
<g id="edge41" class="edge">
<title>Cut26&#45;&gt;Bang25</title>
<g id="a_edge41"><a xlink:title="newrret94">
<path fill="none" stroke="red" d="M394.23,-123.05C395.87,-128.74 397.66,-135.13 399.2,-141 404.95,-162.97 410.88,-188.05 415.13,-206.52"/>
<polygon fill="red" stroke="red" points="411.73,-207.34 417.37,-216.31 418.55,-205.78 411.73,-207.34"/>
</a>
</g>
<text text-anchor="middle" x="416.7" y="-166" font-family="Times-Roman" font-size="14.00">0</text>
</g>
<!-- Cut33 -->
<g id="node34" class="node">
<title>Cut33</title>
<ellipse fill="none" stroke="black" cx="344.2" cy="-234.4" rx="27" ry="18"/>
<text text-anchor="middle" x="344.2" y="-230.7" font-family="Times-Roman" font-size="14.00">Cut</text>
</g>
<!-- Cut26&#45;&gt;Cut33 -->
<g id="edge62" class="edge">
<title>Cut26&#45;&gt;Cut33</title>
<g id="a_edge62"><a xlink:title="seqBC95">
<path fill="none" stroke="black" d="M379.88,-132.37C372.15,-154.26 361.21,-185.24 353.48,-207.1"/>
<polygon fill="black" stroke="black" points="386.61,-123.82 379.98,-132.08 380.01,-121.49 386.61,-123.82"/>
<polygon fill="black" stroke="black" points="350.11,-206.14 350.08,-216.74 356.71,-208.47 350.11,-206.14"/>
</a>
</g>
</g>
<!-- Dup28 -->
<g id="node29" class="node">
<title>Dup28</title>
<ellipse fill="none" stroke="black" cx="444.2" cy="-408.4" rx="28.7" ry="18"/>
<text text-anchor="middle" x="444.2" y="-404.7" font-family="Times-Roman" font-size="14.00">Dup</text>
</g>
<!-- PiR27&#45;&gt;Dup28 -->
<g id="edge56" class="edge">
<title>PiR27&#45;&gt;Dup28</title>
<g id="a_edge56"><a xlink:title="seq104">
<path fill="none" stroke="black" d="M451.37,-339.6C450.14,-351.23 448.49,-366.85 447.08,-380.16"/>
<polygon fill="none" stroke="black" points="443.59,-379.91 446.01,-390.22 450.55,-380.64 443.59,-379.91"/>
</a>
</g>
<text text-anchor="middle" x="453.7" y="-361.2" font-family="Times-Roman" font-size="14.00">1</text>
</g>
<!-- Dup29 -->
<g id="node30" class="node">
<title>Dup29</title>
<ellipse fill="none" stroke="black" cx="318.2" cy="-408.4" rx="28.7" ry="18"/>
<text text-anchor="middle" x="318.2" y="-404.7" font-family="Times-Roman" font-size="14.00">Dup</text>
</g>
<!-- PiR27&#45;&gt;Dup29 -->
<g id="edge16" class="edge">
<title>PiR27&#45;&gt;Dup29</title>
<g id="a_edge16"><a xlink:title="h105">
<path fill="none" stroke="blue" d="M433.77,-333.9C422.46,-340.66 407.96,-349.41 395.2,-357.4 378.75,-367.69 360.53,-379.5 345.95,-389.06"/>
<polygon fill="none" stroke="blue" points="343.82,-386.27 337.39,-394.68 347.67,-392.12 343.82,-386.27"/>
</a>
</g>
<text text-anchor="middle" x="399.7" y="-361.2" font-family="Times-Roman" font-size="14.00">1</text>
</g>
<!-- Identity35 -->
<g id="node36" class="node">
<title>Identity35</title>
<ellipse fill="none" stroke="black" cx="614.2" cy="-669.4" rx="44.39" ry="18"/>
<text text-anchor="middle" x="614.2" y="-665.7" font-family="Times-Roman" font-size="14.00">Identity</text>
</g>
<!-- PiR27&#45;&gt;Identity35 -->
<g id="edge48" class="edge">
<title>PiR27&#45;&gt;Identity35</title>
<g id="a_edge48"><a xlink:title="ret106">
<path fill="none" stroke="red" d="M467.91,-336.77C502.56,-371.79 588.65,-465.85 619.2,-564.4 627.03,-589.65 624.27,-620 620.48,-641.38"/>
<polygon fill="red" stroke="red" points="617.01,-640.89 618.51,-651.38 623.88,-642.24 617.01,-640.89"/>
</a>
</g>
</g>
<!-- Dup28&#45;&gt;Cut24 -->
<g id="edge58" class="edge">
<title>Dup28&#45;&gt;Cut24</title>
<g id="a_edge58"><a xlink:title="seq33">
<path fill="none" stroke="black" d="M444.2,-426.6C444.2,-438.23 444.2,-453.85 444.2,-467.16"/>
<polygon fill="black" stroke="black" points="440.7,-467.22 444.2,-477.22 447.7,-467.22 440.7,-467.22"/>
</a>
</g>
<text text-anchor="middle" x="448.7" y="-448.2" font-family="Times-Roman" font-size="14.00">1</text>
</g>
<!-- Dup29&#45;&gt;Bang9 -->
<g id="edge18" class="edge">
<title>Dup29&#45;&gt;Bang9</title>
<g id="a_edge18"><a xlink:title="h34">
<path fill="none" stroke="blue" d="M315.18,-426.39C307.38,-470.29 286.51,-587.8 277.02,-641.25"/>
<polygon fill="blue" stroke="blue" points="273.53,-640.88 275.23,-651.34 280.42,-642.11 273.53,-640.88"/>
</a>
</g>
<text text-anchor="middle" x="301.7" y="-535.2" font-family="Times-Roman" font-size="14.00">1</text>
</g>
<!-- Lift30 -->
<g id="node31" class="node">
<title>Lift30</title>
<ellipse fill="none" stroke="black" cx="381.2" cy="-321.4" rx="27" ry="18"/>
<text text-anchor="middle" x="381.2" y="-317.7" font-family="Times-Roman" font-size="14.00">Lift</text>
</g>
<!-- Lift30&#45;&gt;Dup28 -->
<g id="edge55" class="edge">
<title>Lift30&#45;&gt;Dup28</title>
<g id="a_edge55"><a xlink:title="seq100">
<path fill="none" stroke="black" d="M392.75,-337.99C402.25,-350.81 415.87,-369.18 426.71,-383.8"/>
<polygon fill="black" stroke="black" points="423.95,-385.95 432.71,-391.9 429.57,-381.79 423.95,-385.95"/>
</a>
</g>
<text text-anchor="middle" x="420.7" y="-361.2" font-family="Times-Roman" font-size="14.00">1</text>
</g>
<!-- Lift31 -->
<g id="node32" class="node">
<title>Lift31</title>
<ellipse fill="none" stroke="black" cx="309.2" cy="-321.4" rx="27" ry="18"/>
<text text-anchor="middle" x="309.2" y="-317.7" font-family="Times-Roman" font-size="14.00">Lift</text>
</g>
<!-- Lift31&#45;&gt;Dup29 -->
<g id="edge15" class="edge">
<title>Lift31&#45;&gt;Dup29</title>
<g id="a_edge15"><a xlink:title="h101">
<path fill="none" stroke="blue" d="M311.02,-339.6C312.25,-351.23 313.9,-366.85 315.31,-380.16"/>
<polygon fill="blue" stroke="blue" points="311.84,-380.64 316.38,-390.22 318.81,-379.91 311.84,-380.64"/>
</a>
</g>
<text text-anchor="middle" x="319.7" y="-361.2" font-family="Times-Roman" font-size="14.00">1</text>
</g>
<!-- Identity34 -->
<g id="node35" class="node">
<title>Identity34</title>
<ellipse fill="none" stroke="black" cx="508.2" cy="-669.4" rx="44.39" ry="18"/>
<text text-anchor="middle" x="508.2" y="-665.7" font-family="Times-Roman" font-size="14.00">Identity</text>
</g>
<!-- Lift32&#45;&gt;Identity34 -->
<g id="edge47" class="edge">
<title>Lift32&#45;&gt;Identity34</title>
<g id="a_edge47"><a xlink:title="ret102">
<path fill="none" stroke="red" d="M596.13,-182.6C627.51,-198.99 676.2,-231.7 676.2,-276.9 676.2,-276.9 676.2,-276.9 676.2,-539.9 676.2,-592.89 645.05,-602.22 602.2,-633.4 597.61,-636.73 573.31,-645.75 550.57,-653.79"/>
<polygon fill="red" stroke="red" points="549.26,-650.55 540.98,-657.16 551.58,-657.15 549.26,-650.55"/>
</a>
</g>
<text text-anchor="middle" x="680.7" y="-404.7" font-family="Times-Roman" font-size="14.00">1</text>
</g>
<!-- Cut33&#45;&gt;Bang21 -->
<g id="edge10" class="edge">
<title>Cut33&#45;&gt;Bang21</title>
<g id="a_edge10"><a xlink:title="dseq20">
<path fill="none" stroke="black" d="M321.98,-244.86C308.61,-251.09 291.65,-260.01 278.2,-270.4 268.33,-278.01 258.77,-287.86 250.95,-296.79"/>
<polygon fill="black" stroke="black" points="248.08,-294.76 244.29,-304.66 253.43,-299.29 248.08,-294.76"/>
</a>
</g>
<text text-anchor="middle" x="282.7" y="-274.2" font-family="Times-Roman" font-size="14.00">0</text>
</g>
<!-- Cut33&#45;&gt;Bang21 -->
<g id="edge37" class="edge">
<title>Cut33&#45;&gt;Bang21</title>
<g id="a_edge37"><a xlink:title="newrret18">
<path fill="none" stroke="red" d="M329.25,-249.64C318.05,-260.02 302.15,-274.18 287.2,-285.4 279.35,-291.28 270.51,-297.19 262.26,-302.44"/>
<polygon fill="red" stroke="red" points="260.23,-299.57 253.6,-307.83 263.93,-305.51 260.23,-299.57"/>
</a>
</g>
<text text-anchor="middle" x="309.7" y="-274.2" font-family="Times-Roman" font-size="14.00">0</text>
</g>
<!-- Cut33&#45;&gt;Lift30 -->
<g id="edge57" class="edge">
<title>Cut33&#45;&gt;Lift30</title>
<g id="a_edge57"><a xlink:title="seq108">
<path fill="none" stroke="black" d="M355.45,-261.25C360.01,-271.72 365.26,-283.79 369.83,-294.29"/>
<polygon fill="black" stroke="black" points="354.54,-250.39 355.32,-260.95 348.12,-253.18 354.54,-250.39"/>
<polygon fill="black" stroke="black" points="366.76,-295.99 373.96,-303.77 373.18,-293.2 366.76,-295.99"/>
</a>
</g>
<text text-anchor="middle" x="369.7" y="-274.2" font-family="Times-Roman" font-size="14.00">0</text>
</g>
<!-- Cut33&#45;&gt;Lift31 -->
<g id="edge17" class="edge">
<title>Cut33&#45;&gt;Lift31</title>
<g id="a_edge17"><a xlink:title="h109">
<path fill="none" stroke="blue" d="M337.28,-252.19C332.31,-264.26 325.52,-280.76 319.86,-294.5"/>
<polygon fill="blue" stroke="blue" points="316.55,-293.35 315.98,-303.93 323.02,-296.01 316.55,-293.35"/>
</a>
</g>
<text text-anchor="middle" x="333.7" y="-274.2" font-family="Times-Roman" font-size="14.00">0</text>
</g>
<!-- DupI36&#45;&gt;Identity34 -->
<g id="edge23" class="edge">
<title>DupI36&#45;&gt;Identity34</title>
<g id="a_edge23"><a xlink:title="idseq113">
<path fill="none" stroke="black" d="M495.34,-600.63C495.16,-610.32 495.43,-622.6 497.2,-633.4 497.64,-636.13 498.26,-638.95 498.97,-641.74"/>
<polygon fill="black" stroke="black" points="495.67,-642.93 501.83,-651.54 502.39,-640.96 495.67,-642.93"/>
</a>
</g>
<text text-anchor="middle" x="501.7" y="-622.2" font-family="Times-Roman" font-size="14.00">1</text>
</g>
<!-- DupI36&#45;&gt;Identity35 -->
<g id="edge24" class="edge">
<title>DupI36&#45;&gt;Identity35</title>
<g id="a_edge24"><a xlink:title="idseq115">
<path fill="none" stroke="black" d="M508.93,-608.86C514.25,-617.54 521.09,-626.72 529.2,-633.4 536.26,-639.22 554.07,-646.85 571.58,-653.5"/>
<polygon fill="black" stroke="black" points="506.99,-598.39 508.91,-608.81 500.91,-601.86 506.99,-598.39"/>
<polygon fill="black" stroke="black" points="570.6,-656.88 581.2,-657.08 573.04,-650.32 570.6,-656.88"/>
</a>
</g>
<text text-anchor="middle" x="533.7" y="-622.2" font-family="Times-Roman" font-size="14.00">1</text>
</g>
<!-- DupI37&#45;&gt;Identity34 -->
<g id="edge30" class="edge">
<title>DupI37&#45;&gt;Identity34</title>
<g id="a_edge30"><a xlink:title="lret114">
<path fill="none" stroke="blue" d="M565.72,-599.27C557.9,-609.15 547.56,-622.09 538.2,-633.4 535.24,-636.96 532.1,-640.7 528.99,-644.35"/>
<polygon fill="blue" stroke="blue" points="526.19,-642.24 522.35,-652.11 531.51,-646.79 526.19,-642.24"/>
</a>
</g>
<text text-anchor="middle" x="554.7" y="-622.2" font-family="Times-Roman" font-size="14.00">1</text>
</g>
<!-- DupI37&#45;&gt;Identity35 -->
<g id="edge31" class="edge">
<title>DupI37&#45;&gt;Identity35</title>
<g id="a_edge31"><a xlink:title="lret116">
<path fill="none" stroke="blue" d="M589.26,-609.53C593.63,-619.84 598.64,-631.66 603.01,-641.99"/>
<polygon fill="blue" stroke="blue" points="588.53,-598.82 589.21,-609.4 582.09,-601.55 588.53,-598.82"/>
<polygon fill="blue" stroke="blue" points="599.85,-643.5 606.98,-651.35 606.3,-640.77 599.85,-643.5"/>
</a>
</g>
<text text-anchor="middle" x="602.7" y="-622.2" font-family="Times-Roman" font-size="14.00">1</text>
</g>
</g>
</svg>
