<?xml version="1.0" encoding="UTF-8" standalone="no"?>
<!DOCTYPE svg PUBLIC "-//W3C//DTD SVG 1.1//EN"
 "http://www.w3.org/Graphics/SVG/1.1/DTD/svg11.dtd">
<!-- Generated by graphviz version 2.49.3 (0)
 -->
<!-- Pages: 1 -->
<svg width="513pt" height="999pt"
 viewBox="0.00 0.00 513.48 998.80" xmlns="http://www.w3.org/2000/svg" xmlns:xlink="http://www.w3.org/1999/xlink">
<g id="graph0" class="graph" transform="scale(1 1) rotate(0) translate(4 994.8)">
<polygon fill="white" stroke="transparent" points="-4,4 -4,-994.8 509.48,-994.8 509.48,4 -4,4"/>
<!-- Identity0 -->
<g id="node1" class="node">
<title>Identity0</title>
<ellipse fill="none" stroke="black" cx="49.14" cy="-972.8" rx="38.19" ry="18"/>
<text text-anchor="middle" x="49.14" y="-969.1" font-family="Times,serif" font-size="14.00">Identity</text>
</g>
<!-- BangD1 -->
<g id="node2" class="node">
<title>BangD1</title>
<ellipse fill="none" stroke="black" cx="49.14" cy="-900.8" rx="36" ry="18"/>
<text text-anchor="middle" x="49.14" y="-897.1" font-family="Times,serif" font-size="14.00">BangD</text>
</g>
<!-- BangD1&#45;&gt;Identity0 -->
<g id="edge26" class="edge">
<title>BangD1&#45;&gt;Identity0</title>
<g id="a_edge26"><a xlink:title="iret84">
<path fill="none" stroke="blue" d="M43.26,-918.74C42.43,-926.57 42.19,-936.05 42.55,-944.82"/>
<polygon fill="blue" stroke="blue" points="39.07,-945.28 43.28,-955.01 46.05,-944.78 39.07,-945.28"/>
</a>
</g>
</g>
<!-- BangD1&#45;&gt;Identity0 -->
<g id="edge27" class="edge">
<title>BangD1&#45;&gt;Identity0</title>
<g id="a_edge27"><a xlink:title="iseq83">
<path fill="none" stroke="black" d="M55.02,-918.74C55.85,-926.57 56.08,-936.05 55.73,-944.82"/>
<polygon fill="black" stroke="black" points="52.22,-944.78 55,-955.01 59.2,-945.28 52.22,-944.78"/>
</a>
</g>
</g>
<!-- PiR2 -->
<g id="node3" class="node">
<title>PiR2</title>
<ellipse fill="none" stroke="black" cx="49.14" cy="-828.8" rx="27" ry="18"/>
<text text-anchor="middle" x="49.14" y="-825.1" font-family="Times,serif" font-size="14.00">PiR</text>
</g>
<!-- PiR2&#45;&gt;Identity0 -->
<g id="edge52" class="edge">
<title>PiR2&#45;&gt;Identity0</title>
<g id="a_edge52"><a xlink:title="ret82">
<path fill="none" stroke="red" d="M32.93,-843.23C22.51,-852.98 9.88,-867.16 4.14,-882.8 -1.38,-897.81 -1.38,-903.78 4.14,-918.8 8.28,-930.07 16,-940.59 23.9,-949.24"/>
<polygon fill="red" stroke="red" points="21.61,-951.91 31.1,-956.62 26.62,-947.02 21.61,-951.91"/>
</a>
</g>
</g>
<!-- PiR2&#45;&gt;BangD1 -->
<g id="edge20" class="edge">
<title>PiR2&#45;&gt;BangD1</title>
<g id="a_edge20"><a xlink:title="i81">
<path fill="none" stroke="blue" d="M43.3,-846.38C42.43,-854.29 42.19,-863.94 42.55,-872.86"/>
<polygon fill="blue" stroke="blue" points="39.06,-873.11 43.26,-882.84 46.04,-872.62 39.06,-873.11"/>
</a>
</g>
</g>
<!-- PiR2&#45;&gt;BangD1 -->
<g id="edge62" class="edge">
<title>PiR2&#45;&gt;BangD1</title>
<g id="a_edge62"><a xlink:title="seq80">
<path fill="none" stroke="black" d="M54.98,-846.38C55.84,-854.29 56.09,-863.94 55.73,-872.86"/>
<polygon fill="black" stroke="black" points="52.23,-872.62 55.02,-882.84 59.22,-873.11 52.23,-872.62"/>
</a>
</g>
</g>
<!-- Bang3 -->
<g id="node4" class="node">
<title>Bang3</title>
<ellipse fill="none" stroke="black" cx="49.14" cy="-756.8" rx="29.5" ry="18"/>
<text text-anchor="middle" x="49.14" y="-753.1" font-family="Times,serif" font-size="14.00">Bang</text>
</g>
<!-- Bang3&#45;&gt;PiR2 -->
<g id="edge5" class="edge">
<title>Bang3&#45;&gt;PiR2</title>
<g id="a_edge5"><a xlink:title="c_bseq79">
<path fill="none" stroke="black" d="M43.26,-774.74C42.43,-782.57 42.19,-792.05 42.55,-800.82"/>
<polygon fill="black" stroke="black" points="39.07,-801.28 43.28,-811.01 46.05,-800.78 39.07,-801.28"/>
</a>
</g>
</g>
<!-- Bang3&#45;&gt;PiR2 -->
<g id="edge47" class="edge">
<title>Bang3&#45;&gt;PiR2</title>
<g id="a_edge47"><a xlink:title="newrretf78">
<path fill="none" stroke="red" d="M55.02,-774.74C55.85,-782.57 56.08,-792.05 55.73,-800.82"/>
<polygon fill="red" stroke="red" points="52.22,-800.78 55,-811.01 59.2,-801.28 52.22,-800.78"/>
</a>
</g>
</g>
<!-- Identity4 -->
<g id="node5" class="node">
<title>Identity4</title>
<ellipse fill="none" stroke="black" cx="135.14" cy="-756.8" rx="38.19" ry="18"/>
<text text-anchor="middle" x="135.14" y="-753.1" font-family="Times,serif" font-size="14.00">Identity</text>
</g>
<!-- PiL5 -->
<g id="node6" class="node">
<title>PiL5</title>
<ellipse fill="none" stroke="black" cx="71.14" cy="-684.8" rx="27" ry="18"/>
<text text-anchor="middle" x="71.14" y="-681.1" font-family="Times,serif" font-size="14.00">PiL</text>
</g>
<!-- PiL5&#45;&gt;Bang3 -->
<g id="edge16" class="edge">
<title>PiL5&#45;&gt;Bang3</title>
<g id="a_edge16"><a xlink:title="dseq76">
<path fill="none" stroke="black" d="M60.38,-701.68C56.96,-709.65 53.58,-719.53 51.07,-728.66"/>
<polygon fill="black" stroke="black" points="47.64,-727.96 48.66,-738.5 54.44,-729.62 47.64,-727.96"/>
</a>
</g>
</g>
<!-- PiL5&#45;&gt;Bang3 -->
<g id="edge42" class="edge">
<title>PiL5&#45;&gt;Bang3</title>
<g id="a_edge42"><a xlink:title="newrret74">
<path fill="none" stroke="red" d="M71.61,-703.1C69.88,-711.31 66.95,-721.27 63.67,-730.32"/>
<polygon fill="red" stroke="red" points="60.4,-729.06 60,-739.65 66.92,-731.62 60.4,-729.06"/>
</a>
</g>
</g>
<!-- PiL5&#45;&gt;Identity4 -->
<g id="edge25" class="edge">
<title>PiL5&#45;&gt;Identity4</title>
<g id="a_edge25"><a xlink:title="idseq77">
<path fill="none" stroke="black" d="M86.77,-709.95C93.43,-717.72 101.3,-726.27 108.78,-733.87"/>
<polygon fill="black" stroke="black" points="82.87,-699.79 86.58,-709.72 77.49,-704.27 82.87,-699.79"/>
<polygon fill="black" stroke="black" points="106.49,-736.53 116.06,-741.08 111.42,-731.56 106.49,-736.53"/>
</a>
</g>
</g>
<!-- PiL5&#45;&gt;Identity4 -->
<g id="edge32" class="edge">
<title>PiL5&#45;&gt;Identity4</title>
<g id="a_edge32"><a xlink:title="lret75">
<path fill="none" stroke="blue" d="M88.59,-698.96C98.19,-708.05 109.85,-720.41 119.2,-731.28"/>
<polygon fill="blue" stroke="blue" points="116.73,-733.79 125.83,-739.23 122.11,-729.31 116.73,-733.79"/>
</a>
</g>
</g>
<!-- BangD6 -->
<g id="node7" class="node">
<title>BangD6</title>
<ellipse fill="none" stroke="black" cx="71.14" cy="-603.4" rx="36" ry="18"/>
<text text-anchor="middle" x="71.14" y="-599.7" font-family="Times,serif" font-size="14.00">BangD</text>
</g>
<!-- BangD6&#45;&gt;PiL5 -->
<g id="edge19" class="edge">
<title>BangD6&#45;&gt;PiL5</title>
<g id="a_edge19"><a xlink:title="hseq72">
<path fill="none" stroke="black" d="M65.5,-621.24C64.36,-631.55 64.1,-644.99 64.7,-656.77"/>
<polygon fill="black" stroke="black" points="61.23,-657.29 65.5,-666.98 68.21,-656.74 61.23,-657.29"/>
</a>
</g>
</g>
<!-- BangD6&#45;&gt;PiL5 -->
<g id="edge37" class="edge">
<title>BangD6&#45;&gt;PiL5</title>
<g id="a_edge37"><a xlink:title="lval70">
<path fill="none" stroke="blue" d="M76.77,-621.24C77.91,-631.55 78.18,-644.99 77.57,-656.77"/>
<polygon fill="blue" stroke="blue" points="74.06,-656.74 76.77,-666.98 81.04,-657.29 74.06,-656.74"/>
</a>
</g>
</g>
<!-- Bang7 -->
<g id="node8" class="node">
<title>Bang7</title>
<ellipse fill="none" stroke="black" cx="71.14" cy="-522" rx="29.5" ry="18"/>
<text text-anchor="middle" x="71.14" y="-518.3" font-family="Times,serif" font-size="14.00">Bang</text>
</g>
<!-- Bang7&#45;&gt;Identity4 -->
<g id="edge46" class="edge">
<title>Bang7&#45;&gt;Identity4</title>
<g id="a_edge46"><a xlink:title="newrretf66">
<path fill="none" stroke="red" d="M87.27,-537.07C97.38,-546.89 109.67,-560.91 116.14,-576 137.75,-626.47 138.7,-691.9 137.13,-728.29"/>
<polygon fill="red" stroke="red" points="133.62,-728.44 136.58,-738.61 140.61,-728.81 133.62,-728.44"/>
</a>
</g>
</g>
<!-- Bang7&#45;&gt;BangD6 -->
<g id="edge4" class="edge">
<title>Bang7&#45;&gt;BangD6</title>
<g id="a_edge4"><a xlink:title="c_bseq67">
<path fill="none" stroke="black" d="M65.5,-539.84C64.36,-550.15 64.1,-563.59 64.7,-575.37"/>
<polygon fill="black" stroke="black" points="61.23,-575.89 65.5,-585.58 68.21,-575.34 61.23,-575.89"/>
</a>
</g>
</g>
<!-- Bang7&#45;&gt;BangD6 -->
<g id="edge18" class="edge">
<title>Bang7&#45;&gt;BangD6</title>
<g id="a_edge18"><a xlink:title="hf65">
<path fill="none" stroke="blue" d="M76.77,-539.84C77.91,-550.15 78.18,-563.59 77.57,-575.37"/>
<polygon fill="blue" stroke="blue" points="74.06,-575.34 76.77,-585.58 81.04,-575.89 74.06,-575.34"/>
</a>
</g>
</g>
<!-- Identity8 -->
<g id="node9" class="node">
<title>Identity8</title>
<ellipse fill="none" stroke="black" cx="157.14" cy="-522" rx="38.19" ry="18"/>
<text text-anchor="middle" x="157.14" y="-518.3" font-family="Times,serif" font-size="14.00">Identity</text>
</g>
<!-- PiL9 -->
<g id="node10" class="node">
<title>PiL9</title>
<ellipse fill="none" stroke="black" cx="157.14" cy="-450" rx="27" ry="18"/>
<text text-anchor="middle" x="157.14" y="-446.3" font-family="Times,serif" font-size="14.00">PiL</text>
</g>
<!-- PiL9&#45;&gt;Bang7 -->
<g id="edge15" class="edge">
<title>PiL9&#45;&gt;Bang7</title>
<g id="a_edge15"><a xlink:title="dseq63">
<path fill="none" stroke="black" d="M137.77,-462.56C124.04,-472.43 105.88,-486.9 91.88,-498.97"/>
<polygon fill="black" stroke="black" points="89.38,-496.51 84.19,-505.75 94.01,-501.76 89.38,-496.51"/>
</a>
</g>
</g>
<!-- PiL9&#45;&gt;Bang7 -->
<g id="edge41" class="edge">
<title>PiL9&#45;&gt;Bang7</title>
<g id="a_edge41"><a xlink:title="newrret61">
<path fill="none" stroke="red" d="M144.15,-466.19C132.21,-476.98 114.46,-491.51 99.37,-502.9"/>
<polygon fill="red" stroke="red" points="97.27,-500.1 91.31,-508.86 101.43,-505.73 97.27,-500.1"/>
</a>
</g>
</g>
<!-- PiL9&#45;&gt;Identity8 -->
<g id="edge24" class="edge">
<title>PiL9&#45;&gt;Identity8</title>
<g id="a_edge24"><a xlink:title="idseq64">
<path fill="none" stroke="black" d="M150.55,-477.81C150.34,-483.05 150.33,-488.54 150.54,-493.78"/>
<polygon fill="black" stroke="black" points="154.79,-467.84 150.57,-477.56 147.81,-467.34 154.79,-467.84"/>
<polygon fill="black" stroke="black" points="147.07,-494.31 151.26,-504.04 154.05,-493.82 147.07,-494.31"/>
</a>
</g>
</g>
<!-- PiL9&#45;&gt;Identity8 -->
<g id="edge31" class="edge">
<title>PiL9&#45;&gt;Identity8</title>
<g id="a_edge31"><a xlink:title="lret62">
<path fill="none" stroke="blue" d="M162.98,-467.59C163.84,-475.49 164.09,-485.15 163.73,-494.06"/>
<polygon fill="blue" stroke="blue" points="160.23,-493.82 163.02,-504.04 167.22,-494.32 160.23,-493.82"/>
</a>
</g>
</g>
<!-- Identity10 -->
<g id="node11" class="node">
<title>Identity10</title>
<ellipse fill="none" stroke="black" cx="318.14" cy="-900.8" rx="38.19" ry="18"/>
<text text-anchor="middle" x="318.14" y="-897.1" font-family="Times,serif" font-size="14.00">Identity</text>
</g>
<!-- BangD11 -->
<g id="node12" class="node">
<title>BangD11</title>
<ellipse fill="none" stroke="black" cx="318.14" cy="-828.8" rx="36" ry="18"/>
<text text-anchor="middle" x="318.14" y="-825.1" font-family="Times,serif" font-size="14.00">BangD</text>
</g>
<!-- BangD11&#45;&gt;Identity10 -->
<g id="edge75" class="edge">
<title>BangD11&#45;&gt;Identity10</title>
<g id="a_edge75"><a xlink:title="yret60">
<path fill="none" stroke="blue" d="M312.26,-846.74C311.43,-854.57 311.19,-864.05 311.55,-872.82"/>
<polygon fill="blue" stroke="blue" points="308.07,-873.28 312.28,-883.01 315.05,-872.78 308.07,-873.28"/>
</a>
</g>
</g>
<!-- BangD11&#45;&gt;Identity10 -->
<g id="edge77" class="edge">
<title>BangD11&#45;&gt;Identity10</title>
<g id="a_edge77"><a xlink:title="yseq59">
<path fill="none" stroke="black" d="M324.02,-846.74C324.85,-854.57 325.08,-864.05 324.73,-872.82"/>
<polygon fill="black" stroke="black" points="321.22,-872.78 324,-883.01 328.2,-873.28 321.22,-872.78"/>
</a>
</g>
</g>
<!-- Bang12 -->
<g id="node13" class="node">
<title>Bang12</title>
<ellipse fill="none" stroke="black" cx="318.14" cy="-756.8" rx="29.5" ry="18"/>
<text text-anchor="middle" x="318.14" y="-753.1" font-family="Times,serif" font-size="14.00">Bang</text>
</g>
<!-- Bang12&#45;&gt;Identity10 -->
<g id="edge45" class="edge">
<title>Bang12&#45;&gt;Identity10</title>
<g id="a_edge45"><a xlink:title="newrretf57">
<path fill="none" stroke="red" d="M301.47,-771.66C291.14,-781.39 278.8,-795.39 273.14,-810.8 267.62,-825.81 267.62,-831.78 273.14,-846.8 277.28,-858.07 285,-868.59 292.9,-877.24"/>
<polygon fill="red" stroke="red" points="290.61,-879.91 300.1,-884.62 295.62,-875.02 290.61,-879.91"/>
</a>
</g>
</g>
<!-- Bang12&#45;&gt;BangD11 -->
<g id="edge3" class="edge">
<title>Bang12&#45;&gt;BangD11</title>
<g id="a_edge3"><a xlink:title="c_bseq58">
<path fill="none" stroke="black" d="M312.26,-774.74C311.43,-782.57 311.19,-792.05 311.55,-800.82"/>
<polygon fill="black" stroke="black" points="308.07,-801.28 312.28,-811.01 315.05,-800.78 308.07,-801.28"/>
</a>
</g>
</g>
<!-- Bang12&#45;&gt;BangD11 -->
<g id="edge73" class="edge">
<title>Bang12&#45;&gt;BangD11</title>
<g id="a_edge73"><a xlink:title="yBf56">
<path fill="none" stroke="blue" d="M324.02,-774.74C324.85,-782.57 325.08,-792.05 324.73,-800.82"/>
<polygon fill="blue" stroke="blue" points="321.22,-800.78 324,-811.01 328.2,-801.28 321.22,-800.78"/>
</a>
</g>
</g>
<!-- Identity13 -->
<g id="node14" class="node">
<title>Identity13</title>
<ellipse fill="none" stroke="black" cx="232.14" cy="-756.8" rx="38.19" ry="18"/>
<text text-anchor="middle" x="232.14" y="-753.1" font-family="Times,serif" font-size="14.00">Identity</text>
</g>
<!-- PiL14 -->
<g id="node15" class="node">
<title>PiL14</title>
<ellipse fill="none" stroke="black" cx="248.14" cy="-684.8" rx="27" ry="18"/>
<text text-anchor="middle" x="248.14" y="-681.1" font-family="Times,serif" font-size="14.00">PiL</text>
</g>
<!-- PiL14&#45;&gt;Bang12 -->
<g id="edge14" class="edge">
<title>PiL14&#45;&gt;Bang12</title>
<g id="a_edge14"><a xlink:title="dseq54">
<path fill="none" stroke="black" d="M258.26,-701.68C267.28,-711.87 280.46,-725.18 292.25,-736.05"/>
<polygon fill="black" stroke="black" points="289.96,-738.7 299.74,-742.79 294.64,-733.5 289.96,-738.7"/>
</a>
</g>
</g>
<!-- PiL14&#45;&gt;Bang12 -->
<g id="edge40" class="edge">
<title>PiL14&#45;&gt;Bang12</title>
<g id="a_edge40"><a xlink:title="newrret52">
<path fill="none" stroke="red" d="M266.34,-698.63C277.15,-708.06 290.57,-721.14 301.15,-732.4"/>
<polygon fill="red" stroke="red" points="298.62,-734.82 307.95,-739.84 303.79,-730.1 298.62,-734.82"/>
</a>
</g>
</g>
<!-- PiL14&#45;&gt;Identity13 -->
<g id="edge23" class="edge">
<title>PiL14&#45;&gt;Identity13</title>
<g id="a_edge23"><a xlink:title="idseq55">
<path fill="none" stroke="black" d="M235.77,-711.35C234.25,-716.85 232.88,-722.69 231.82,-728.27"/>
<polygon fill="black" stroke="black" points="242.09,-702.71 235.8,-711.24 235.4,-700.65 242.09,-702.71"/>
<polygon fill="black" stroke="black" points="228.3,-728.08 230.17,-738.5 235.22,-729.18 228.3,-728.08"/>
</a>
</g>
</g>
<!-- PiL14&#45;&gt;Identity13 -->
<g id="edge30" class="edge">
<title>PiL14&#45;&gt;Identity13</title>
<g id="a_edge30"><a xlink:title="lret53">
<path fill="none" stroke="blue" d="M250.1,-703.1C249.1,-711.01 247.14,-720.57 244.75,-729.35"/>
<polygon fill="blue" stroke="blue" points="241.32,-728.59 241.78,-739.17 248.02,-730.61 241.32,-728.59"/>
</a>
</g>
</g>
<!-- Identity15 -->
<g id="node16" class="node">
<title>Identity15</title>
<ellipse fill="none" stroke="black" cx="405.14" cy="-756.8" rx="38.19" ry="18"/>
<text text-anchor="middle" x="405.14" y="-753.1" font-family="Times,serif" font-size="14.00">Identity</text>
</g>
<!-- BangD16 -->
<g id="node17" class="node">
<title>BangD16</title>
<ellipse fill="none" stroke="black" cx="405.14" cy="-684.8" rx="36" ry="18"/>
<text text-anchor="middle" x="405.14" y="-681.1" font-family="Times,serif" font-size="14.00">BangD</text>
</g>
<!-- BangD16&#45;&gt;Identity15 -->
<g id="edge74" class="edge">
<title>BangD16&#45;&gt;Identity15</title>
<g id="a_edge74"><a xlink:title="yret51">
<path fill="none" stroke="blue" d="M399.26,-702.74C398.43,-710.57 398.19,-720.05 398.55,-728.82"/>
<polygon fill="blue" stroke="blue" points="395.07,-729.28 399.28,-739.01 402.05,-728.78 395.07,-729.28"/>
</a>
</g>
</g>
<!-- BangD16&#45;&gt;Identity15 -->
<g id="edge76" class="edge">
<title>BangD16&#45;&gt;Identity15</title>
<g id="a_edge76"><a xlink:title="yseq50">
<path fill="none" stroke="black" d="M411.02,-702.74C411.85,-710.57 412.08,-720.05 411.73,-728.82"/>
<polygon fill="black" stroke="black" points="408.22,-728.78 411,-739.01 415.2,-729.28 408.22,-728.78"/>
</a>
</g>
</g>
<!-- Cut17 -->
<g id="node18" class="node">
<title>Cut17</title>
<ellipse fill="none" stroke="black" cx="286.14" cy="-603.4" rx="23.31" ry="23.31"/>
<ellipse fill="none" stroke="black" cx="286.14" cy="-603.4" rx="27.3" ry="27.3"/>
<text text-anchor="middle" x="286.14" y="-599.7" font-family="Times,serif" font-size="14.00">Cut</text>
</g>
<!-- Cut17&#45;&gt;PiL14 -->
<g id="edge8" class="edge">
<title>Cut17&#45;&gt;PiL14</title>
<g id="a_edge8"><a xlink:title="c_lseq46">
<path fill="none" stroke="black" d="M265.15,-634.51C261.28,-642.01 257.52,-649.99 254.41,-657.29"/>
<polygon fill="black" stroke="black" points="272.98,-627.33 265.17,-634.49 266.81,-624.02 272.98,-627.33"/>
<polygon fill="black" stroke="black" points="251.1,-656.15 250.64,-666.73 257.6,-658.74 251.1,-656.15"/>
</a>
</g>
</g>
<!-- Cut17&#45;&gt;PiL14 -->
<g id="edge36" class="edge">
<title>Cut17&#45;&gt;PiL14</title>
<g id="a_edge36"><a xlink:title="lval48">
<path fill="none" stroke="blue" d="M280.07,-630.4C276.06,-639.89 270.9,-650.58 265.83,-659.89"/>
<polygon fill="blue" stroke="blue" points="262.75,-658.22 260.83,-668.64 268.83,-661.69 262.75,-658.22"/>
</a>
</g>
</g>
<!-- Cut17&#45;&gt;Identity15 -->
<g id="edge55" class="edge">
<title>Cut17&#45;&gt;Identity15</title>
<g id="a_edge55"><a xlink:title="rval49">
<path fill="none" stroke="red" stroke-width="2" d="M301.94,-626.18C316.69,-646.3 339.45,-676.92 360.14,-702.8 367.87,-712.47 376.63,-722.9 384.36,-731.93"/>
<polygon fill="red" stroke="red" stroke-width="2" points="381.92,-734.47 391.1,-739.77 387.23,-729.9 381.92,-734.47"/>
</a>
</g>
</g>
<!-- Cut17&#45;&gt;BangD16 -->
<g id="edge11" class="edge">
<title>Cut17&#45;&gt;BangD16</title>
<g id="a_edge11"><a xlink:title="c_rseq47">
<path fill="none" stroke="black" d="M308.52,-619.33C327.61,-632.07 355.18,-650.46 375.99,-664.35"/>
<polygon fill="black" stroke="black" points="374.19,-667.35 384.45,-669.99 378.07,-661.53 374.19,-667.35"/>
</a>
</g>
</g>
<!-- BangC18 -->
<g id="node19" class="node">
<title>BangC18</title>
<ellipse fill="none" stroke="black" cx="286.14" cy="-522" rx="35.19" ry="18"/>
<text text-anchor="middle" x="286.14" y="-518.3" font-family="Times,serif" font-size="14.00">BangC</text>
</g>
<!-- BangC18&#45;&gt;Bang12 -->
<g id="edge72" class="edge">
<title>BangC18&#45;&gt;Bang12</title>
<g id="a_edge72"><a xlink:title="yB44">
<path fill="none" stroke="blue" d="M306.78,-546.87C312.97,-555.48 318.95,-565.63 322.14,-576 338.15,-628.06 330.48,-692.66 323.97,-728.54"/>
<polygon fill="blue" stroke="blue" points="303.4,-536.71 306.71,-546.77 297.85,-540.96 303.4,-536.71"/>
<polygon fill="blue" stroke="blue" points="320.47,-728.22 322.01,-738.7 327.34,-729.54 320.47,-728.22"/>
</a>
</g>
</g>
<!-- BangC18&#45;&gt;BangD16 -->
<g id="edge71" class="edge">
<title>BangC18&#45;&gt;BangD16</title>
<g id="a_edge71"><a xlink:title="yA43">
<path fill="none" stroke="blue" d="M308.3,-536.03C323.08,-545.6 342.11,-559.73 355.14,-576 374.79,-600.55 388.77,-634.09 396.86,-657.2"/>
<polygon fill="blue" stroke="blue" points="393.55,-658.36 400.06,-666.71 400.19,-656.12 393.55,-658.36"/>
</a>
</g>
</g>
<!-- BangC18&#45;&gt;Cut17 -->
<g id="edge60" class="edge">
<title>BangC18&#45;&gt;Cut17</title>
<g id="a_edge60"><a xlink:title="seq45">
<path fill="none" stroke="black" d="M286.14,-540.23C286.14,-547.7 286.14,-556.76 286.14,-565.62"/>
<polygon fill="black" stroke="black" points="282.64,-565.83 286.14,-575.83 289.64,-565.83 282.64,-565.83"/>
</a>
</g>
</g>
<!-- PiR19 -->
<g id="node20" class="node">
<title>PiR19</title>
<ellipse fill="none" stroke="black" cx="286.14" cy="-450" rx="27" ry="18"/>
<text text-anchor="middle" x="286.14" y="-446.3" font-family="Times,serif" font-size="14.00">PiR</text>
</g>
<!-- PiR19&#45;&gt;Identity13 -->
<g id="edge50" class="edge">
<title>PiR19&#45;&gt;Identity13</title>
<g id="a_edge50"><a xlink:title="ret42">
<path fill="none" stroke="red" d="M270.74,-465.31C261.02,-475.23 249.03,-489.27 242.14,-504 210.96,-570.64 218.83,-593.53 212.14,-666.8 210.68,-682.73 209.27,-687.06 212.14,-702.8 213.79,-711.84 216.9,-721.34 220.18,-729.76"/>
<polygon fill="red" stroke="red" points="216.97,-731.16 224.04,-739.06 223.44,-728.48 216.97,-731.16"/>
</a>
</g>
</g>
<!-- PiR19&#45;&gt;BangC18 -->
<g id="edge59" class="edge">
<title>PiR19&#45;&gt;BangC18</title>
<g id="a_edge59"><a xlink:title="seq40">
<path fill="none" stroke="black" d="M280.3,-467.59C279.43,-475.49 279.19,-485.15 279.55,-494.06"/>
<polygon fill="black" stroke="black" points="276.06,-494.32 280.26,-504.04 283.04,-493.82 276.06,-494.32"/>
</a>
</g>
</g>
<!-- PiR19&#45;&gt;BangC18 -->
<g id="edge70" class="edge">
<title>PiR19&#45;&gt;BangC18</title>
<g id="a_edge70"><a xlink:title="y41">
<path fill="none" stroke="blue" d="M291.98,-467.59C292.84,-475.49 293.09,-485.15 292.73,-494.06"/>
<polygon fill="blue" stroke="blue" points="289.23,-493.82 292.02,-504.04 296.22,-494.32 289.23,-493.82"/>
</a>
</g>
</g>
<!-- Cut20 -->
<g id="node21" class="node">
<title>Cut20</title>
<ellipse fill="none" stroke="black" cx="176.14" cy="-378" rx="27" ry="18"/>
<text text-anchor="middle" x="176.14" y="-374.3" font-family="Times,serif" font-size="14.00">Cut</text>
</g>
<!-- Cut20&#45;&gt;PiL9 -->
<g id="edge7" class="edge">
<title>Cut20&#45;&gt;PiL9</title>
<g id="a_edge7"><a xlink:title="c_lseq36">
<path fill="none" stroke="black" d="M162.67,-404.55C160.87,-410.2 159.22,-416.2 157.9,-421.9"/>
<polygon fill="black" stroke="black" points="169.37,-396.04 162.76,-404.32 162.76,-393.73 169.37,-396.04"/>
<polygon fill="black" stroke="black" points="154.47,-421.21 155.92,-431.71 161.33,-422.6 154.47,-421.21"/>
</a>
</g>
</g>
<!-- Cut20&#45;&gt;PiL9 -->
<g id="edge34" class="edge">
<title>Cut20&#45;&gt;PiL9</title>
<g id="a_edge34"><a xlink:title="lval38">
<path fill="none" stroke="blue" d="M177.36,-396.3C175.99,-404.42 173.53,-414.26 170.67,-423.24"/>
<polygon fill="blue" stroke="blue" points="167.3,-422.26 167.31,-432.86 173.91,-424.57 167.3,-422.26"/>
</a>
</g>
</g>
<!-- Cut20&#45;&gt;PiR19 -->
<g id="edge10" class="edge">
<title>Cut20&#45;&gt;PiR19</title>
<g id="a_edge10"><a xlink:title="c_rseq37">
<path fill="none" stroke="black" d="M192.37,-392.83C209.21,-404.56 235.56,-421.37 256.14,-433.55"/>
<polygon fill="black" stroke="black" points="254.45,-436.61 264.85,-438.61 257.97,-430.56 254.45,-436.61"/>
</a>
</g>
</g>
<!-- Cut20&#45;&gt;PiR19 -->
<g id="edge54" class="edge">
<title>Cut20&#45;&gt;PiR19</title>
<g id="a_edge54"><a xlink:title="rval39">
<path fill="none" stroke="red" d="M197.32,-389.33C215.81,-399.88 242.35,-416.52 261.7,-429.56"/>
<polygon fill="red" stroke="red" points="259.8,-432.5 270.03,-435.25 263.75,-426.72 259.8,-432.5"/>
</a>
</g>
</g>
<!-- PiR21 -->
<g id="node22" class="node">
<title>PiR21</title>
<ellipse fill="none" stroke="black" cx="231.14" cy="-306" rx="27" ry="18"/>
<text text-anchor="middle" x="231.14" y="-302.3" font-family="Times,serif" font-size="14.00">PiR</text>
</g>
<!-- PiR21&#45;&gt;Bang7 -->
<g id="edge17" class="edge">
<title>PiR21&#45;&gt;Bang7</title>
<g id="a_edge17"><a xlink:title="h34">
<path fill="none" stroke="blue" d="M208.19,-315.49C187.93,-324.01 158.79,-338.91 140.14,-360 105.08,-399.64 85.8,-459.77 77.05,-494.23"/>
<polygon fill="blue" stroke="blue" points="73.62,-493.5 74.67,-504.04 80.43,-495.15 73.62,-493.5"/>
</a>
</g>
</g>
<!-- PiR21&#45;&gt;Identity8 -->
<g id="edge49" class="edge">
<title>PiR21&#45;&gt;Identity8</title>
<g id="a_edge49"><a xlink:title="ret35">
<path fill="none" stroke="red" d="M229.31,-324.16C225.62,-354.39 215.63,-418.6 193.14,-468 188.64,-477.87 182.35,-487.91 176.28,-496.56"/>
<polygon fill="red" stroke="red" points="173.42,-494.54 170.36,-504.68 179.08,-498.66 173.42,-494.54"/>
</a>
</g>
</g>
<!-- PiR21&#45;&gt;Cut20 -->
<g id="edge58" class="edge">
<title>PiR21&#45;&gt;Cut20</title>
<g id="a_edge58"><a xlink:title="seq33">
<path fill="none" stroke="black" d="M219.2,-322.19C211.92,-331.45 202.47,-343.48 194.28,-353.91"/>
<polygon fill="black" stroke="black" points="191.47,-351.82 188.05,-361.84 196.98,-356.14 191.47,-351.82"/>
</a>
</g>
</g>
<!-- Bang22 -->
<g id="node23" class="node">
<title>Bang22</title>
<ellipse fill="none" stroke="black" cx="248.14" cy="-234" rx="29.5" ry="18"/>
<text text-anchor="middle" x="248.14" y="-230.3" font-family="Times,serif" font-size="14.00">Bang</text>
</g>
<!-- Bang22&#45;&gt;PiR21 -->
<g id="edge2" class="edge">
<title>Bang22&#45;&gt;PiR21</title>
<g id="a_edge2"><a xlink:title="c_bseq32">
<path fill="none" stroke="black" d="M238.39,-251.24C235.59,-259.13 232.97,-268.84 231.14,-277.82"/>
<polygon fill="black" stroke="black" points="227.66,-277.43 229.4,-287.88 234.55,-278.62 227.66,-277.43"/>
</a>
</g>
</g>
<!-- Bang22&#45;&gt;PiR21 -->
<g id="edge44" class="edge">
<title>Bang22&#45;&gt;PiR21</title>
<g id="a_edge44"><a xlink:title="newrretf31">
<path fill="none" stroke="red" d="M249.85,-252.3C248.72,-260.42 246.53,-270.26 243.93,-279.24"/>
<polygon fill="red" stroke="red" points="240.57,-278.26 240.85,-288.86 247.23,-280.4 240.57,-278.26"/>
</a>
</g>
</g>
<!-- Identity23 -->
<g id="node24" class="node">
<title>Identity23</title>
<ellipse fill="none" stroke="black" cx="162.14" cy="-234" rx="38.19" ry="18"/>
<text text-anchor="middle" x="162.14" y="-230.3" font-family="Times,serif" font-size="14.00">Identity</text>
</g>
<!-- PiL24 -->
<g id="node25" class="node">
<title>PiL24</title>
<ellipse fill="none" stroke="black" cx="248.14" cy="-162" rx="27" ry="18"/>
<text text-anchor="middle" x="248.14" y="-158.3" font-family="Times,serif" font-size="14.00">PiL</text>
</g>
<!-- PiL24&#45;&gt;Bang22 -->
<g id="edge13" class="edge">
<title>PiL24&#45;&gt;Bang22</title>
<g id="a_edge13"><a xlink:title="dseq29">
<path fill="none" stroke="black" d="M242.3,-179.59C241.43,-187.49 241.19,-197.15 241.55,-206.06"/>
<polygon fill="black" stroke="black" points="238.06,-206.32 242.26,-216.04 245.04,-205.82 238.06,-206.32"/>
</a>
</g>
</g>
<!-- PiL24&#45;&gt;Bang22 -->
<g id="edge39" class="edge">
<title>PiL24&#45;&gt;Bang22</title>
<g id="a_edge39"><a xlink:title="newrret27">
<path fill="none" stroke="red" d="M253.98,-179.59C254.84,-187.49 255.09,-197.15 254.73,-206.06"/>
<polygon fill="red" stroke="red" points="251.23,-205.82 254.02,-216.04 258.22,-206.32 251.23,-205.82"/>
</a>
</g>
</g>
<!-- PiL24&#45;&gt;Identity23 -->
<g id="edge22" class="edge">
<title>PiL24&#45;&gt;Identity23</title>
<g id="a_edge22"><a xlink:title="idseq30">
<path fill="none" stroke="black" d="M220.41,-180.72C208.49,-189.69 194.84,-200.69 183.68,-210.28"/>
<polygon fill="black" stroke="black" points="230.85,-177.38 220.72,-180.49 226.69,-171.74 230.85,-177.38"/>
<polygon fill="black" stroke="black" points="181.26,-207.75 176.05,-216.97 185.88,-213.01 181.26,-207.75"/>
</a>
</g>
</g>
<!-- PiL24&#45;&gt;Identity23 -->
<g id="edge29" class="edge">
<title>PiL24&#45;&gt;Identity23</title>
<g id="a_edge29"><a xlink:title="lret28">
<path fill="none" stroke="blue" d="M235.15,-178.19C223.85,-188.41 207.32,-201.98 192.78,-213.07"/>
<polygon fill="blue" stroke="blue" points="190.41,-210.47 184.5,-219.26 194.61,-216.08 190.41,-210.47"/>
</a>
</g>
</g>
<!-- Identity25 -->
<g id="node26" class="node">
<title>Identity25</title>
<ellipse fill="none" stroke="black" cx="445.14" cy="-603.4" rx="38.19" ry="18"/>
<text text-anchor="middle" x="445.14" y="-599.7" font-family="Times,serif" font-size="14.00">Identity</text>
</g>
<!-- BangD26 -->
<g id="node27" class="node">
<title>BangD26</title>
<ellipse fill="none" stroke="black" cx="445.14" cy="-522" rx="36" ry="18"/>
<text text-anchor="middle" x="445.14" y="-518.3" font-family="Times,serif" font-size="14.00">BangD</text>
</g>
<!-- BangD26&#45;&gt;Identity25 -->
<g id="edge67" class="edge">
<title>BangD26&#45;&gt;Identity25</title>
<g id="a_edge67"><a xlink:title="xret26">
<path fill="none" stroke="blue" d="M439.5,-539.84C438.36,-550.15 438.1,-563.59 438.7,-575.37"/>
<polygon fill="blue" stroke="blue" points="435.23,-575.89 439.5,-585.58 442.21,-575.34 435.23,-575.89"/>
</a>
</g>
</g>
<!-- BangD26&#45;&gt;Identity25 -->
<g id="edge69" class="edge">
<title>BangD26&#45;&gt;Identity25</title>
<g id="a_edge69"><a xlink:title="xseq25">
<path fill="none" stroke="black" d="M450.77,-539.84C451.91,-550.15 452.18,-563.59 451.57,-575.37"/>
<polygon fill="black" stroke="black" points="448.06,-575.34 450.77,-585.58 455.04,-575.89 448.06,-575.34"/>
</a>
</g>
</g>
<!-- Bang27 -->
<g id="node28" class="node">
<title>Bang27</title>
<ellipse fill="none" stroke="black" cx="381.14" cy="-450" rx="29.5" ry="18"/>
<text text-anchor="middle" x="381.14" y="-446.3" font-family="Times,serif" font-size="14.00">Bang</text>
</g>
<!-- Bang27&#45;&gt;Identity25 -->
<g id="edge43" class="edge">
<title>Bang27&#45;&gt;Identity25</title>
<g id="a_edge43"><a xlink:title="newrretf23">
<path fill="none" stroke="red" d="M382.66,-468.04C384.79,-486.45 389.63,-516.32 400.14,-540 406.27,-553.81 415.77,-567.61 424.47,-578.7"/>
<polygon fill="red" stroke="red" points="421.87,-581.05 430.89,-586.61 427.3,-576.64 421.87,-581.05"/>
</a>
</g>
</g>
<!-- Bang27&#45;&gt;BangD26 -->
<g id="edge1" class="edge">
<title>Bang27&#45;&gt;BangD26</title>
<g id="a_edge1"><a xlink:title="c_bseq24">
<path fill="none" stroke="black" d="M390.18,-467.24C397.79,-476.73 408.69,-488.83 418.85,-499.15"/>
<polygon fill="black" stroke="black" points="416.49,-501.74 426.06,-506.28 421.41,-496.76 416.49,-501.74"/>
</a>
</g>
</g>
<!-- Bang27&#45;&gt;BangD26 -->
<g id="edge66" class="edge">
<title>Bang27&#45;&gt;BangD26</title>
<g id="a_edge66"><a xlink:title="xBf22">
<path fill="none" stroke="blue" d="M398.93,-464.5C408.54,-473.61 420.12,-485.91 429.39,-496.7"/>
<polygon fill="blue" stroke="blue" points="426.86,-499.14 435.95,-504.59 432.24,-494.66 426.86,-499.14"/>
</a>
</g>
</g>
<!-- Identity28 -->
<g id="node29" class="node">
<title>Identity28</title>
<ellipse fill="none" stroke="black" cx="467.14" cy="-450" rx="38.19" ry="18"/>
<text text-anchor="middle" x="467.14" y="-446.3" font-family="Times,serif" font-size="14.00">Identity</text>
</g>
<!-- PiL29 -->
<g id="node30" class="node">
<title>PiL29</title>
<ellipse fill="none" stroke="black" cx="381.14" cy="-378" rx="27" ry="18"/>
<text text-anchor="middle" x="381.14" y="-374.3" font-family="Times,serif" font-size="14.00">PiL</text>
</g>
<!-- PiL29&#45;&gt;Bang27 -->
<g id="edge12" class="edge">
<title>PiL29&#45;&gt;Bang27</title>
<g id="a_edge12"><a xlink:title="dseq20">
<path fill="none" stroke="black" d="M375.3,-395.59C374.43,-403.49 374.19,-413.15 374.55,-422.06"/>
<polygon fill="black" stroke="black" points="371.06,-422.32 375.26,-432.04 378.04,-421.82 371.06,-422.32"/>
</a>
</g>
</g>
<!-- PiL29&#45;&gt;Bang27 -->
<g id="edge38" class="edge">
<title>PiL29&#45;&gt;Bang27</title>
<g id="a_edge38"><a xlink:title="newrret18">
<path fill="none" stroke="red" d="M386.98,-395.59C387.84,-403.49 388.09,-413.15 387.73,-422.06"/>
<polygon fill="red" stroke="red" points="384.23,-421.82 387.02,-432.04 391.22,-422.32 384.23,-421.82"/>
</a>
</g>
</g>
<!-- PiL29&#45;&gt;Identity28 -->
<g id="edge21" class="edge">
<title>PiL29&#45;&gt;Identity28</title>
<g id="a_edge21"><a xlink:title="idseq21">
<path fill="none" stroke="black" d="M401.69,-400.87C412.18,-409.92 425.03,-420.34 436.61,-429.16"/>
<polygon fill="black" stroke="black" points="396.43,-391.56 401.62,-400.8 391.8,-396.81 396.43,-391.56"/>
<polygon fill="black" stroke="black" points="434.67,-432.08 444.77,-435.26 438.86,-426.47 434.67,-432.08"/>
</a>
</g>
</g>
<!-- PiL29&#45;&gt;Identity28 -->
<g id="edge28" class="edge">
<title>PiL29&#45;&gt;Identity28</title>
<g id="a_edge28"><a xlink:title="lret19">
<path fill="none" stroke="blue" d="M400.5,-390.56C413.96,-400.23 431.68,-414.33 445.56,-426.25"/>
<polygon fill="blue" stroke="blue" points="443.39,-429.01 453.22,-432.97 448.01,-423.75 443.39,-429.01"/>
</a>
</g>
</g>
<!-- BangD30 -->
<g id="node31" class="node">
<title>BangD30</title>
<ellipse fill="none" stroke="black" cx="381.14" cy="-306" rx="36" ry="18"/>
<text text-anchor="middle" x="381.14" y="-302.3" font-family="Times,serif" font-size="14.00">BangD</text>
</g>
<!-- BangD30&#45;&gt;PiL29 -->
<g id="edge33" class="edge">
<title>BangD30&#45;&gt;PiL29</title>
<g id="a_edge33"><a xlink:title="lval14">
<path fill="none" stroke="blue" d="M375.26,-323.95C374.43,-331.77 374.19,-341.25 374.55,-350.02"/>
<polygon fill="blue" stroke="blue" points="371.07,-350.49 375.28,-360.21 378.05,-349.99 371.07,-350.49"/>
</a>
</g>
</g>
<!-- BangD30&#45;&gt;PiL29 -->
<g id="edge68" class="edge">
<title>BangD30&#45;&gt;PiL29</title>
<g id="a_edge68"><a xlink:title="xseq16">
<path fill="none" stroke="black" d="M387.02,-323.95C387.85,-331.77 388.08,-341.25 387.73,-350.02"/>
<polygon fill="black" stroke="black" points="384.22,-349.99 387,-360.21 391.2,-350.49 384.22,-349.99"/>
</a>
</g>
</g>
<!-- BangC31 -->
<g id="node32" class="node">
<title>BangC31</title>
<ellipse fill="none" stroke="black" cx="364.14" cy="-234" rx="35.19" ry="18"/>
<text text-anchor="middle" x="364.14" y="-230.3" font-family="Times,serif" font-size="14.00">BangC</text>
</g>
<!-- BangC31&#45;&gt;Bang27 -->
<g id="edge65" class="edge">
<title>BangC31&#45;&gt;Bang27</title>
<g id="a_edge65"><a xlink:title="xB10">
<path fill="none" stroke="blue" d="M347.73,-260.01C343.03,-268.54 338.53,-278.36 336.14,-288 332.29,-303.53 335.14,-308.03 336.14,-324 338.14,-356.19 333.76,-365.82 345.14,-396 349.08,-406.46 355.48,-416.88 361.79,-425.67"/>
<polygon fill="blue" stroke="blue" points="355.85,-253.11 347.77,-259.96 349.81,-249.56 355.85,-253.11"/>
<polygon fill="blue" stroke="blue" points="359.16,-428 367.98,-433.86 364.75,-423.78 359.16,-428"/>
</a>
</g>
</g>
<!-- BangC31&#45;&gt;BangD30 -->
<g id="edge57" class="edge">
<title>BangC31&#45;&gt;BangD30</title>
<g id="a_edge57"><a xlink:title="seq11">
<path fill="none" stroke="black" d="M362.42,-252.3C363.54,-260.3 365.68,-269.98 368.23,-278.85"/>
<polygon fill="black" stroke="black" points="364.89,-279.91 371.26,-288.38 371.57,-277.79 364.89,-279.91"/>
</a>
</g>
</g>
<!-- BangC31&#45;&gt;BangD30 -->
<g id="edge64" class="edge">
<title>BangC31&#45;&gt;BangD30</title>
<g id="a_edge64"><a xlink:title="xA9">
<path fill="none" stroke="blue" d="M374.01,-251.59C376.75,-259.38 379.31,-268.86 381.1,-277.67"/>
<polygon fill="blue" stroke="blue" points="377.66,-278.3 382.83,-287.55 384.56,-277.1 377.66,-278.3"/>
</a>
</g>
</g>
<!-- PiR32 -->
<g id="node33" class="node">
<title>PiR32</title>
<ellipse fill="none" stroke="black" cx="364.14" cy="-162" rx="27" ry="18"/>
<text text-anchor="middle" x="364.14" y="-158.3" font-family="Times,serif" font-size="14.00">PiR</text>
</g>
<!-- PiR32&#45;&gt;Identity28 -->
<g id="edge51" class="edge">
<title>PiR32&#45;&gt;Identity28</title>
<g id="a_edge51"><a xlink:title="ret8">
<path fill="none" stroke="red" d="M379.22,-177.46C388.81,-187.45 400.76,-201.5 408.14,-216 443.35,-285.24 458.55,-376.98 464.22,-421.89"/>
<polygon fill="red" stroke="red" points="460.77,-422.5 465.44,-432.01 467.72,-421.66 460.77,-422.5"/>
</a>
</g>
</g>
<!-- PiR32&#45;&gt;BangC31 -->
<g id="edge61" class="edge">
<title>PiR32&#45;&gt;BangC31</title>
<g id="a_edge61"><a xlink:title="seq6">
<path fill="none" stroke="black" d="M358.3,-179.59C357.43,-187.49 357.19,-197.15 357.55,-206.06"/>
<polygon fill="black" stroke="black" points="354.06,-206.32 358.26,-216.04 361.04,-205.82 354.06,-206.32"/>
</a>
</g>
</g>
<!-- PiR32&#45;&gt;BangC31 -->
<g id="edge63" class="edge">
<title>PiR32&#45;&gt;BangC31</title>
<g id="a_edge63"><a xlink:title="x7">
<path fill="none" stroke="blue" d="M369.98,-179.59C370.84,-187.49 371.09,-197.15 370.73,-206.06"/>
<polygon fill="blue" stroke="blue" points="367.23,-205.82 370.02,-216.04 374.22,-206.32 367.23,-205.82"/>
</a>
</g>
</g>
<!-- Cut33 -->
<g id="node34" class="node">
<title>Cut33</title>
<ellipse fill="none" stroke="black" cx="248.14" cy="-90" rx="27" ry="18"/>
<text text-anchor="middle" x="248.14" y="-86.3" font-family="Times,serif" font-size="14.00">Cut</text>
</g>
<!-- Cut33&#45;&gt;PiL24 -->
<g id="edge6" class="edge">
<title>Cut33&#45;&gt;PiL24</title>
<g id="a_edge6"><a xlink:title="c_lseq2">
<path fill="none" stroke="black" d="M241.55,-117.81C241.34,-123.05 241.33,-128.54 241.54,-133.78"/>
<polygon fill="black" stroke="black" points="245.79,-107.84 241.57,-117.56 238.81,-107.34 245.79,-107.84"/>
<polygon fill="black" stroke="black" points="238.07,-134.31 242.26,-144.04 245.05,-133.82 238.07,-134.31"/>
</a>
</g>
</g>
<!-- Cut33&#45;&gt;PiL24 -->
<g id="edge35" class="edge">
<title>Cut33&#45;&gt;PiL24</title>
<g id="a_edge35"><a xlink:title="lval4">
<path fill="none" stroke="blue" d="M253.98,-107.59C254.84,-115.49 255.09,-125.15 254.73,-134.06"/>
<polygon fill="blue" stroke="blue" points="251.23,-133.82 254.02,-144.04 258.22,-134.32 251.23,-133.82"/>
</a>
</g>
</g>
<!-- Cut33&#45;&gt;PiR32 -->
<g id="edge9" class="edge">
<title>Cut33&#45;&gt;PiR32</title>
<g id="a_edge9"><a xlink:title="c_rseq3">
<path fill="none" stroke="black" d="M265.04,-104.5C283.09,-116.39 311.68,-133.68 333.62,-146"/>
<polygon fill="black" stroke="black" points="332.12,-149.17 342.56,-150.94 335.51,-143.04 332.12,-149.17"/>
</a>
</g>
</g>
<!-- Cut33&#45;&gt;PiR32 -->
<g id="edge56" class="edge">
<title>Cut33&#45;&gt;PiR32</title>
<g id="a_edge56"><a xlink:title="rval5">
<path fill="none" stroke="red" d="M269.66,-101.03C289.32,-111.7 318.09,-128.83 338.82,-142.05"/>
<polygon fill="red" stroke="red" points="337.13,-145.13 347.43,-147.64 340.94,-139.26 337.13,-145.13"/>
</a>
</g>
</g>
<!-- Assign34 -->
<g id="node35" class="node">
<title>Assign34</title>
<ellipse fill="none" stroke="black" cx="248.14" cy="-18" rx="35.19" ry="18"/>
<text text-anchor="middle" x="248.14" y="-14.3" font-family="Times,serif" font-size="14.00">Assign</text>
</g>
<!-- Assign34&#45;&gt;Identity23 -->
<g id="edge48" class="edge">
<title>Assign34&#45;&gt;Identity23</title>
<g id="a_edge48"><a xlink:title="ret1">
<path fill="none" stroke="red" d="M235.47,-34.95C227.88,-45.09 218.51,-58.77 212.14,-72 190.57,-116.78 175.62,-172.99 167.99,-205.76"/>
<polygon fill="red" stroke="red" points="164.48,-205.4 165.69,-215.93 171.31,-206.95 164.48,-205.4"/>
</a>
</g>
</g>
<!-- Assign34&#45;&gt;Cut33 -->
<g id="edge53" class="edge">
<title>Assign34&#45;&gt;Cut33</title>
<g id="a_edge53"><a xlink:title="retseq0">
<path fill="none" stroke="black" d="M248.14,-36.3C248.14,-44.02 248.14,-53.29 248.14,-61.89"/>
<polygon fill="black" stroke="black" points="244.64,-61.9 248.14,-71.9 251.64,-61.9 244.64,-61.9"/>
</a>
</g>
</g>
</g>
</svg>
