<?xml version="1.0" encoding="UTF-8" standalone="no"?>
<!DOCTYPE svg PUBLIC "-//W3C//DTD SVG 1.1//EN"
 "http://www.w3.org/Graphics/SVG/1.1/DTD/svg11.dtd">
<!-- Generated by graphviz version 2.43.0 (0)
 -->
<!-- Title: %3 Pages: 1 -->
<svg width="450pt" height="1802pt"
 viewBox="0.00 0.00 450.00 1802.49" xmlns="http://www.w3.org/2000/svg" xmlns:xlink="http://www.w3.org/1999/xlink">
<g id="graph0" class="graph" transform="scale(1 1) rotate(0) translate(4 1798.49)">
<title>%3</title>
<polygon fill="white" stroke="transparent" points="-4,4 -4,-1798.49 446,-1798.49 446,4 -4,4"/>
<!-- Root0 -->
<g id="node1" class="node">
<title>Root0</title>
<ellipse fill="none" stroke="black" cx="278" cy="-1776.49" rx="30.59" ry="18"/>
<text text-anchor="middle" x="278" y="-1772.79" font-family="Times-Roman" font-size="14.00">Root</text>
</g>
<!-- I3 -->
<g id="node17" class="node">
<title>I3</title>
<ellipse fill="none" stroke="black" cx="278" cy="-1704.49" rx="27" ry="18"/>
<text text-anchor="middle" x="278" y="-1700.79" font-family="Times-Roman" font-size="14.00">I</text>
</g>
<!-- Root0&#45;&gt;I3 -->
<g id="edge41" class="edge">
<title>Root0&#45;&gt;I3</title>
<g id="a_edge41"><a xlink:title="rettop">
<path fill="none" stroke="red" stroke-width="2" d="M278,-1758.19C278,-1750.48 278,-1741.21 278,-1732.61"/>
<polygon fill="red" stroke="red" stroke-width="2" points="281.5,-1732.6 278,-1722.6 274.5,-1732.6 281.5,-1732.6"/>
</a>
</g>
</g>
<!-- !p0 -->
<g id="node2" class="node">
<title>!p0</title>
<ellipse fill="none" stroke="black" cx="159" cy="-1488.49" rx="27" ry="18"/>
<text text-anchor="middle" x="159" y="-1484.79" font-family="Times-Roman" font-size="14.00">!p</text>
</g>
<!-- I0 -->
<g id="node3" class="node">
<title>I0</title>
<ellipse fill="none" stroke="black" cx="194" cy="-1416.49" rx="27" ry="18"/>
<text text-anchor="middle" x="194" y="-1412.79" font-family="Times-Roman" font-size="14.00">I</text>
</g>
<!-- !p0&#45;&gt;I0 -->
<g id="edge45" class="edge">
<title>!p0&#45;&gt;I0</title>
<g id="a_edge45"><a xlink:title="yli">
<path fill="none" stroke="red" d="M167.12,-1471.26C171.3,-1462.9 176.49,-1452.51 181.2,-1443.1"/>
<polygon fill="red" stroke="red" points="184.34,-1444.64 185.68,-1434.13 178.08,-1441.51 184.34,-1444.64"/>
</a>
</g>
</g>
<!-- Cut0 -->
<g id="node10" class="node">
<title>Cut0</title>
<ellipse fill="none" stroke="black" cx="83" cy="-1416.49" rx="27" ry="18"/>
<text text-anchor="middle" x="83" y="-1412.79" font-family="Times-Roman" font-size="14.00">Cut</text>
</g>
<!-- !p0&#45;&gt;Cut0 -->
<g id="edge42" class="edge">
<title>!p0&#45;&gt;Cut0</title>
<g id="a_edge42"><a xlink:title="y2">
<path fill="none" stroke="blue" d="M136.03,-1466.33C123.83,-1455.1 109.17,-1441.6 98.36,-1431.64"/>
<polygon fill="blue" stroke="blue" points="133.89,-1469.13 143.62,-1473.33 138.64,-1463.98 133.89,-1469.13"/>
</a>
</g>
</g>
<!-- !d0 -->
<g id="node4" class="node">
<title>!d0</title>
<ellipse fill="none" stroke="black" cx="175" cy="-1344.49" rx="27" ry="18"/>
<text text-anchor="middle" x="175" y="-1340.79" font-family="Times-Roman" font-size="14.00">!d</text>
</g>
<!-- I0&#45;&gt;!d0 -->
<g id="edge44" class="edge">
<title>I0&#45;&gt;!d0</title>
<g id="a_edge44"><a xlink:title="yl2">
<path fill="none" stroke="blue" d="M186.71,-1388.63C184.3,-1379.77 181.7,-1370.17 179.56,-1362.28"/>
<polygon fill="blue" stroke="blue" points="183.4,-1389.82 189.4,-1398.55 190.16,-1387.98 183.4,-1389.82"/>
</a>
</g>
</g>
<!-- !d0&#45;&gt;!p0 -->
<g id="edge43" class="edge">
<title>!d0&#45;&gt;!p0</title>
<g id="a_edge43"><a xlink:title="yj">
<path fill="none" stroke="blue" d="M164.74,-1371.95C161.98,-1380.31 159.38,-1389.67 158,-1398.49 154.13,-1423.23 155.56,-1452.3 157.13,-1470.31"/>
<polygon fill="blue" stroke="blue" points="168.1,-1372.95 168.11,-1362.35 161.49,-1370.63 168.1,-1372.95"/>
</a>
</g>
</g>
<!-- !p1 -->
<g id="node5" class="node">
<title>!p1</title>
<ellipse fill="none" stroke="black" cx="138" cy="-234" rx="27" ry="18"/>
<text text-anchor="middle" x="138" y="-230.3" font-family="Times-Roman" font-size="14.00">!p</text>
</g>
<!-- PiR0 -->
<g id="node8" class="node">
<title>PiR0</title>
<ellipse fill="none" stroke="black" cx="138" cy="-162" rx="27" ry="18"/>
<text text-anchor="middle" x="138" y="-158.3" font-family="Times-Roman" font-size="14.00">PiR</text>
</g>
<!-- !p1&#45;&gt;PiR0 -->
<g id="edge36" class="edge">
<title>!p1&#45;&gt;PiR0</title>
<g id="a_edge36"><a xlink:title="hl2i">
<path fill="none" stroke="red" d="M138,-215.7C138,-207.98 138,-198.71 138,-190.11"/>
<polygon fill="red" stroke="red" points="141.5,-190.1 138,-180.1 134.5,-190.1 141.5,-190.1"/>
</a>
</g>
</g>
<!-- I1 -->
<g id="node6" class="node">
<title>I1</title>
<ellipse fill="none" stroke="black" cx="111" cy="-90" rx="27" ry="18"/>
<text text-anchor="middle" x="111" y="-86.3" font-family="Times-Roman" font-size="14.00">I</text>
</g>
<!-- !d1 -->
<g id="node7" class="node">
<title>!d1</title>
<ellipse fill="none" stroke="black" cx="138" cy="-18" rx="27" ry="18"/>
<text text-anchor="middle" x="138" y="-14.3" font-family="Times-Roman" font-size="14.00">!d</text>
</g>
<!-- I1&#45;&gt;!d1 -->
<g id="edge39" class="edge">
<title>I1&#45;&gt;!d1</title>
<g id="a_edge39"><a xlink:title="il">
<path fill="none" stroke="blue" d="M121.01,-63.06C124.5,-54.01 128.32,-44.09 131.46,-35.96"/>
<polygon fill="blue" stroke="blue" points="117.73,-61.82 117.4,-72.41 124.26,-64.34 117.73,-61.82"/>
</a>
</g>
</g>
<!-- !d1&#45;&gt;PiR0 -->
<g id="edge38" class="edge">
<title>!d1&#45;&gt;PiR0</title>
<g id="a_edge38"><a xlink:title="i">
<path fill="none" stroke="blue" d="M143.49,-46.01C144.93,-54.31 146.28,-63.5 147,-72 148.34,-87.94 148.34,-92.06 147,-108 145.98,-120.09 143.68,-133.57 141.65,-143.91"/>
<polygon fill="blue" stroke="blue" points="146.91,-45.29 141.65,-36.09 140.03,-46.56 146.91,-45.29"/>
</a>
</g>
</g>
<!-- PiR0&#45;&gt;I1 -->
<g id="edge40" class="edge">
<title>PiR0&#45;&gt;I1</title>
<g id="a_edge40"><a xlink:title="ir">
<path fill="none" stroke="red" d="M131.6,-144.41C128.49,-136.34 124.67,-126.43 121.17,-117.35"/>
<polygon fill="red" stroke="red" points="124.4,-116.03 117.54,-107.96 117.87,-118.55 124.4,-116.03"/>
</a>
</g>
</g>
<!-- !p2 -->
<g id="node9" class="node">
<title>!p2</title>
<ellipse fill="none" stroke="black" cx="83" cy="-1344.49" rx="27" ry="18"/>
<text text-anchor="middle" x="83" y="-1340.79" font-family="Times-Roman" font-size="14.00">!p</text>
</g>
<!-- I2 -->
<g id="node13" class="node">
<title>I2</title>
<ellipse fill="none" stroke="black" cx="27" cy="-1272.49" rx="27" ry="18"/>
<text text-anchor="middle" x="27" y="-1268.79" font-family="Times-Roman" font-size="14.00">I</text>
</g>
<!-- !p2&#45;&gt;I2 -->
<g id="edge1" class="edge">
<title>!p2&#45;&gt;I2</title>
<g id="a_edge1"><a xlink:title="e11">
<path fill="none" stroke="red" d="M70.85,-1328.31C63.44,-1319.04 53.82,-1307.02 45.48,-1296.59"/>
<polygon fill="red" stroke="red" points="48.11,-1294.28 39.13,-1288.65 42.64,-1298.65 48.11,-1294.28"/>
</a>
</g>
</g>
<!-- Dup1_0 -->
<g id="node19" class="node">
<title>Dup1_0</title>
<ellipse fill="none" stroke="black" cx="139" cy="-1272.49" rx="29.5" ry="18"/>
<text text-anchor="middle" x="139" y="-1268.79" font-family="Times-Roman" font-size="14.00">Dup</text>
</g>
<!-- !p2&#45;&gt;Dup1_0 -->
<g id="edge3" class="edge">
<title>!p2&#45;&gt;Dup1_0</title>
<g id="a_edge3"><a xlink:title="e15">
<path fill="none" stroke="blue" d="M101.41,-1320.48C109.63,-1310.21 119.1,-1298.36 126.48,-1289.14"/>
<polygon fill="blue" stroke="blue" points="98.67,-1318.31 95.15,-1328.31 104.13,-1322.68 98.67,-1318.31"/>
</a>
</g>
</g>
<!-- Cut0&#45;&gt;!p2 -->
<g id="edge35" class="edge">
<title>Cut0&#45;&gt;!p2</title>
<g id="a_edge35"><a xlink:title="e9">
<path fill="none" stroke="red" d="M83,-1398.19C83,-1390.48 83,-1381.21 83,-1372.61"/>
<polygon fill="red" stroke="red" points="86.5,-1372.6 83,-1362.6 79.5,-1372.6 86.5,-1372.6"/>
</a>
</g>
</g>
<!-- !d2 -->
<g id="node11" class="node">
<title>!d2</title>
<ellipse fill="none" stroke="black" cx="66" cy="-1128.49" rx="27" ry="18"/>
<text text-anchor="middle" x="66" y="-1124.79" font-family="Times-Roman" font-size="14.00">!d</text>
</g>
<!-- !d2&#45;&gt;!p2 -->
<g id="edge2" class="edge">
<title>!d2&#45;&gt;!p2</title>
<g id="a_edge2"><a xlink:title="e13">
<path fill="none" stroke="blue" d="M68.18,-1156.88C71.73,-1201.68 78.7,-1289.33 81.64,-1326.34"/>
<polygon fill="blue" stroke="blue" points="71.65,-1156.42 67.37,-1146.73 64.67,-1156.97 71.65,-1156.42"/>
</a>
</g>
</g>
<!-- PiL0 -->
<g id="node12" class="node">
<title>PiL0</title>
<ellipse fill="none" stroke="black" cx="27" cy="-1200.49" rx="27" ry="18"/>
<text text-anchor="middle" x="27" y="-1196.79" font-family="Times-Roman" font-size="14.00">PiL</text>
</g>
<!-- PiL0&#45;&gt;!d2 -->
<g id="edge4" class="edge">
<title>PiL0&#45;&gt;!d2</title>
<g id="a_edge4"><a xlink:title="e17">
<path fill="none" stroke="blue" d="M40.93,-1174.5C46.28,-1164.89 52.24,-1154.2 57,-1145.64"/>
<polygon fill="blue" stroke="blue" points="37.85,-1172.82 36.05,-1183.26 43.97,-1176.23 37.85,-1172.82"/>
</a>
</g>
</g>
<!-- Dup0_0 -->
<g id="node14" class="node">
<title>Dup0_0</title>
<ellipse fill="none" stroke="black" cx="138" cy="-306" rx="29.5" ry="18"/>
<text text-anchor="middle" x="138" y="-302.3" font-family="Times-Roman" font-size="14.00">Dup</text>
</g>
<!-- PiL0&#45;&gt;Dup0_0 -->
<g id="edge7" class="edge">
<title>PiL0&#45;&gt;Dup0_0</title>
<g id="a_edge7"><a xlink:title="e21">
<path fill="none" stroke="red" d="M23.84,-1182.52C19.18,-1155.95 11,-1102.89 11,-1057.49 11,-1057.49 11,-1057.49 11,-449 11,-390.4 71.84,-344.89 109.3,-322.43"/>
<ellipse fill="none" stroke="red" cx="113" cy="-320.26" rx="4" ry="4"/>
</a>
</g>
</g>
<!-- I2&#45;&gt;PiL0 -->
<g id="edge5" class="edge">
<title>I2&#45;&gt;PiL0</title>
<g id="a_edge5"><a xlink:title="e19">
<path fill="none" stroke="blue" d="M27,-1244.16C27,-1235.55 27,-1226.29 27,-1218.6"/>
<polygon fill="blue" stroke="blue" points="23.5,-1244.19 27,-1254.19 30.5,-1244.19 23.5,-1244.19"/>
</a>
</g>
</g>
<!-- Dup0_0&#45;&gt;!p1 -->
<g id="edge37" class="edge">
<title>Dup0_0&#45;&gt;!p1</title>
<g id="a_edge37"><a xlink:title="hl2p">
<path fill="none" stroke="red" d="M138,-287.7C138,-279.98 138,-270.71 138,-262.11"/>
<polygon fill="red" stroke="red" points="141.5,-262.1 138,-252.1 134.5,-262.1 141.5,-262.1"/>
</a>
</g>
</g>
<!-- PiL1 -->
<g id="node15" class="node">
<title>PiL1</title>
<ellipse fill="none" stroke="black" cx="278" cy="-1632.49" rx="27" ry="18"/>
<text text-anchor="middle" x="278" y="-1628.79" font-family="Times-Roman" font-size="14.00">PiL</text>
</g>
<!-- Dup1_2 -->
<g id="node21" class="node">
<title>Dup1_2</title>
<ellipse fill="none" stroke="black" cx="307" cy="-1560.49" rx="29.5" ry="18"/>
<text text-anchor="middle" x="307" y="-1556.79" font-family="Times-Roman" font-size="14.00">Dup</text>
</g>
<!-- PiL1&#45;&gt;Dup1_2 -->
<g id="edge16" class="edge">
<title>PiL1&#45;&gt;Dup1_2</title>
<g id="a_edge16"><a xlink:title="e34">
<path fill="none" stroke="red" d="M284.87,-1614.91C288.43,-1606.31 292.85,-1595.65 296.8,-1586.12"/>
<ellipse fill="red" stroke="red" cx="298.44" cy="-1582.15" rx="4" ry="4"/>
</a>
</g>
</g>
<!-- Cut3 -->
<g id="node26" class="node">
<title>Cut3</title>
<ellipse fill="none" stroke="black" cx="250" cy="-1488.49" rx="27" ry="18"/>
<text text-anchor="middle" x="250" y="-1484.79" font-family="Times-Roman" font-size="14.00">Cut</text>
</g>
<!-- PiL1&#45;&gt;Cut3 -->
<g id="edge10" class="edge">
<title>PiL1&#45;&gt;Cut3</title>
<g id="a_edge10"><a xlink:title="e28">
<path fill="none" stroke="blue" stroke-width="2" d="M272.69,-1604.55C267.01,-1575.77 258.19,-1531.03 253.39,-1506.68"/>
<polygon fill="blue" stroke="blue" stroke-width="2" points="269.25,-1605.23 274.62,-1614.37 276.12,-1603.88 269.25,-1605.23"/>
</a>
</g>
</g>
<!-- PiL2 -->
<g id="node16" class="node">
<title>PiL2</title>
<ellipse fill="none" stroke="black" cx="297" cy="-840.49" rx="27" ry="18"/>
<text text-anchor="middle" x="297" y="-836.79" font-family="Times-Roman" font-size="14.00">PiL</text>
</g>
<!-- PiL2&#45;&gt;Dup1_2 -->
<g id="edge17" class="edge">
<title>PiL2&#45;&gt;Dup1_2</title>
<g id="a_edge17"><a xlink:title="e35">
<path fill="none" stroke="red" d="M298.98,-858.52C301.89,-885.14 307,-938.27 307,-983.49 307,-1417.49 307,-1417.49 307,-1417.49 307,-1458.38 307,-1505.89 307,-1534.28"/>
<ellipse fill="none" stroke="red" cx="307" cy="-1538.45" rx="4" ry="4"/>
</a>
</g>
</g>
<!-- Dup2_2 -->
<g id="node35" class="node">
<title>Dup2_2</title>
<ellipse fill="none" stroke="black" cx="297" cy="-753.25" rx="29.47" ry="29.47"/>
<ellipse fill="none" stroke="black" cx="297" cy="-753.25" rx="33.5" ry="33.5"/>
<text text-anchor="middle" x="297" y="-749.55" font-family="Times-Roman" font-size="14.00">Dup</text>
</g>
<!-- PiL2&#45;&gt;Dup2_2 -->
<g id="edge11" class="edge">
<title>PiL2&#45;&gt;Dup2_2</title>
<g id="a_edge11"><a xlink:title="e29">
<path fill="none" stroke="blue" stroke-width="2" d="M297,-812.17C297,-804.05 297,-795.06 297,-786.65"/>
<polygon fill="blue" stroke="blue" stroke-width="2" points="293.5,-812.24 297,-822.24 300.5,-812.24 293.5,-812.24"/>
</a>
</g>
</g>
<!-- I3&#45;&gt;PiL1 -->
<g id="edge14" class="edge">
<title>I3&#45;&gt;PiL1</title>
<g id="a_edge14"><a xlink:title="e32">
<path fill="none" stroke="blue" stroke-width="2" d="M278,-1676.16C278,-1667.55 278,-1658.29 278,-1650.6"/>
<polygon fill="blue" stroke="blue" stroke-width="2" points="274.5,-1676.19 278,-1686.19 281.5,-1676.19 274.5,-1676.19"/>
</a>
</g>
</g>
<!-- I4 -->
<g id="node18" class="node">
<title>I4</title>
<ellipse fill="none" stroke="black" cx="251" cy="-912.49" rx="27" ry="18"/>
<text text-anchor="middle" x="251" y="-908.79" font-family="Times-Roman" font-size="14.00">I</text>
</g>
<!-- I4&#45;&gt;PiL2 -->
<g id="edge15" class="edge">
<title>I4&#45;&gt;PiL2</title>
<g id="a_edge15"><a xlink:title="e33">
<path fill="none" stroke="blue" stroke-width="2" d="M267.09,-887.01C273.57,-877.15 280.85,-866.08 286.6,-857.32"/>
<polygon fill="blue" stroke="blue" stroke-width="2" points="264,-885.33 261.44,-895.61 269.85,-889.18 264,-885.33"/>
</a>
</g>
</g>
<!-- Cut1 -->
<g id="node23" class="node">
<title>Cut1</title>
<ellipse fill="none" stroke="black" cx="138" cy="-1200.49" rx="27" ry="18"/>
<text text-anchor="middle" x="138" y="-1196.79" font-family="Times-Roman" font-size="14.00">Cut</text>
</g>
<!-- Dup1_0&#45;&gt;Cut1 -->
<g id="edge8" class="edge">
<title>Dup1_0&#45;&gt;Cut1</title>
<g id="a_edge8"><a xlink:title="e23">
<path fill="none" stroke="blue" d="M138.64,-1246.13C138.51,-1236.98 138.36,-1226.88 138.24,-1218.6"/>
<ellipse fill="blue" stroke="blue" cx="138.7" cy="-1250.19" rx="4" ry="4"/>
</a>
</g>
</g>
<!-- Dup2_1 -->
<g id="node34" class="node">
<title>Dup2_1</title>
<ellipse fill="none" stroke="black" cx="193" cy="-594" rx="29.5" ry="18"/>
<text text-anchor="middle" x="193" y="-590.3" font-family="Times-Roman" font-size="14.00">Dup</text>
</g>
<!-- Dup1_0&#45;&gt;Dup2_1 -->
<g id="edge9" class="edge">
<title>Dup1_0&#45;&gt;Dup2_1</title>
<g id="a_edge9"><a xlink:title="e25">
<path fill="none" stroke="blue" d="M156.17,-1249.53C162.6,-1240.37 169.45,-1229.35 174,-1218.49 189.64,-1181.19 193,-1169.94 193,-1129.49 193,-1129.49 193,-1129.49 193,-752.25 193,-701.47 193,-641.47 193,-612.45"/>
<ellipse fill="none" stroke="blue" cx="153.73" cy="-1252.9" rx="4" ry="4"/>
</a>
</g>
</g>
<!-- Dup1_1 -->
<g id="node20" class="node">
<title>Dup1_1</title>
<ellipse fill="none" stroke="black" cx="270" cy="-378" rx="29.5" ry="18"/>
<text text-anchor="middle" x="270" y="-374.3" font-family="Times-Roman" font-size="14.00">Dup</text>
</g>
<!-- Dup1_1&#45;&gt;Dup0_0 -->
<g id="edge6" class="edge">
<title>Dup1_1&#45;&gt;Dup0_0</title>
<g id="a_edge6"><a xlink:title="e20">
<path fill="none" stroke="red" d="M248.5,-365.6C226.25,-353.8 191.38,-335.31 166.78,-322.26"/>
<ellipse fill="red" stroke="red" cx="163.03" cy="-320.27" rx="4" ry="4"/>
</a>
</g>
</g>
<!-- Dup1_2&#45;&gt;!p0 -->
<g id="edge46" class="edge">
<title>Dup1_2&#45;&gt;!p0</title>
<g id="a_edge46"><a xlink:title="ylp">
<path fill="none" stroke="red" d="M284.52,-1548.86C259.24,-1536.91 218.03,-1517.41 189.77,-1504.05"/>
<polygon fill="red" stroke="red" points="191.26,-1500.88 180.72,-1499.77 188.27,-1507.21 191.26,-1500.88"/>
</a>
</g>
</g>
<!-- !p3 -->
<g id="node22" class="node">
<title>!p3</title>
<ellipse fill="none" stroke="black" cx="138" cy="-1128.49" rx="27" ry="18"/>
<text text-anchor="middle" x="138" y="-1124.79" font-family="Times-Roman" font-size="14.00">!p</text>
</g>
<!-- PiR1 -->
<g id="node24" class="node">
<title>PiR1</title>
<ellipse fill="none" stroke="black" cx="138" cy="-1056.49" rx="27" ry="18"/>
<text text-anchor="middle" x="138" y="-1052.79" font-family="Times-Roman" font-size="14.00">PiR</text>
</g>
<!-- !p3&#45;&gt;PiR1 -->
<g id="edge19" class="edge">
<title>!p3&#45;&gt;PiR1</title>
<g id="a_edge19"><a xlink:title="e39">
<path fill="none" stroke="red" d="M138,-1110.19C138,-1102.48 138,-1093.21 138,-1084.61"/>
<polygon fill="red" stroke="red" points="141.5,-1084.6 138,-1074.6 134.5,-1084.6 141.5,-1084.6"/>
</a>
</g>
</g>
<!-- Cut1&#45;&gt;!p3 -->
<g id="edge18" class="edge">
<title>Cut1&#45;&gt;!p3</title>
<g id="a_edge18"><a xlink:title="e37">
<path fill="none" stroke="red" d="M138,-1182.19C138,-1174.48 138,-1165.21 138,-1156.61"/>
<polygon fill="red" stroke="red" points="141.5,-1156.6 138,-1146.6 134.5,-1156.6 141.5,-1156.6"/>
</a>
</g>
</g>
<!-- Dup2_0 -->
<g id="node33" class="node">
<title>Dup2_0</title>
<ellipse fill="none" stroke="black" cx="250" cy="-984.49" rx="29.5" ry="18"/>
<text text-anchor="middle" x="250" y="-980.79" font-family="Times-Roman" font-size="14.00">Dup</text>
</g>
<!-- PiR1&#45;&gt;Dup2_0 -->
<g id="edge23" class="edge">
<title>PiR1&#45;&gt;Dup2_0</title>
<g id="a_edge23"><a xlink:title="e43">
<path fill="none" stroke="red" d="M157,-1043.62C175.2,-1032.25 202.84,-1014.97 223.26,-1002.21"/>
<ellipse fill="none" stroke="red" cx="226.76" cy="-1000.02" rx="4" ry="4"/>
</a>
</g>
</g>
<!-- Cut2 -->
<g id="node25" class="node">
<title>Cut2</title>
<ellipse fill="none" stroke="black" cx="270" cy="-450" rx="27" ry="18"/>
<text text-anchor="middle" x="270" y="-446.3" font-family="Times-Roman" font-size="14.00">Cut</text>
</g>
<!-- Cut2&#45;&gt;Dup1_1 -->
<g id="edge12" class="edge">
<title>Cut2&#45;&gt;Dup1_1</title>
<g id="a_edge12"><a xlink:title="e30">
<path fill="none" stroke="red" d="M270,-431.7C270,-423.39 270,-413.28 270,-404.14"/>
<ellipse fill="red" stroke="red" cx="270" cy="-400.1" rx="4" ry="4"/>
</a>
</g>
</g>
<!-- Cut3&#45;&gt;Dup2_0 -->
<g id="edge22" class="edge">
<title>Cut3&#45;&gt;Dup2_0</title>
<g id="a_edge22"><a xlink:title="e42">
<path fill="none" stroke="red" stroke-width="2" d="M250,-1470.45C250,-1443.79 250,-1390.61 250,-1345.49 250,-1345.49 250,-1345.49 250,-1127.49 250,-1086.61 250,-1039.1 250,-1010.71"/>
<ellipse fill="red" stroke="red" stroke-width="2" cx="250" cy="-1006.54" rx="4" ry="4"/>
</a>
</g>
</g>
<!-- !c0 -->
<g id="node27" class="node">
<title>!c0</title>
<ellipse fill="none" stroke="black" cx="270" cy="-522" rx="27" ry="18"/>
<text text-anchor="middle" x="270" y="-518.3" font-family="Times-Roman" font-size="14.00">!c</text>
</g>
<!-- !c0&#45;&gt;Cut2 -->
<g id="edge20" class="edge">
<title>!c0&#45;&gt;Cut2</title>
<g id="a_edge20"><a xlink:title="e40">
<path fill="none" stroke="blue" d="M270,-493.67C270,-485.05 270,-475.79 270,-468.1"/>
<polygon fill="blue" stroke="blue" points="266.5,-493.7 270,-503.7 273.5,-493.7 266.5,-493.7"/>
</a>
</g>
</g>
<!-- !c1 -->
<g id="node28" class="node">
<title>!c1</title>
<ellipse fill="none" stroke="black" cx="193" cy="-522" rx="27" ry="18"/>
<text text-anchor="middle" x="193" y="-518.3" font-family="Times-Roman" font-size="14.00">!c</text>
</g>
<!-- !c1&#45;&gt;PiR1 -->
<g id="edge21" class="edge">
<title>!c1&#45;&gt;PiR1</title>
<g id="a_edge21"><a xlink:title="e41">
<path fill="none" stroke="blue" d="M173.57,-545.72C166.8,-554.66 159.72,-565.33 155,-576 138.65,-612.99 136,-624.55 136,-665 136,-913.49 136,-913.49 136,-913.49 136,-958.61 137.02,-1011.79 137.6,-1038.45"/>
<polygon fill="blue" stroke="blue" points="176.42,-547.75 179.88,-537.74 170.93,-543.41 176.42,-547.75"/>
</a>
</g>
</g>
<!-- !d3 -->
<g id="node29" class="node">
<title>!d3</title>
<ellipse fill="none" stroke="black" cx="415" cy="-594" rx="27" ry="18"/>
<text text-anchor="middle" x="415" y="-590.3" font-family="Times-Roman" font-size="14.00">!d</text>
</g>
<!-- !d3&#45;&gt;!c0 -->
<g id="edge24" class="edge">
<title>!d3&#45;&gt;!c0</title>
<g id="a_edge24"><a xlink:title="e44">
<path fill="none" stroke="blue" d="M384.32,-578.19C356.44,-564.73 316.04,-545.23 291.48,-533.37"/>
<polygon fill="blue" stroke="blue" points="383.08,-581.48 393.6,-582.67 386.12,-575.17 383.08,-581.48"/>
</a>
</g>
</g>
<!-- !d4 -->
<g id="node30" class="node">
<title>!d4</title>
<ellipse fill="none" stroke="black" cx="267" cy="-594" rx="27" ry="18"/>
<text text-anchor="middle" x="267" y="-590.3" font-family="Times-Roman" font-size="14.00">!d</text>
</g>
<!-- !d4&#45;&gt;!c1 -->
<g id="edge26" class="edge">
<title>!d4&#45;&gt;!c1</title>
<g id="a_edge26"><a xlink:title="e46">
<path fill="none" stroke="blue" d="M244.63,-571.84C232.75,-560.6 218.48,-547.1 207.95,-537.14"/>
<polygon fill="blue" stroke="blue" points="242.36,-574.51 252.02,-578.83 247.17,-569.42 242.36,-574.51"/>
</a>
</g>
</g>
<!-- PiL3 -->
<g id="node31" class="node">
<title>PiL3</title>
<ellipse fill="none" stroke="black" cx="360" cy="-666" rx="27" ry="18"/>
<text text-anchor="middle" x="360" y="-662.3" font-family="Times-Roman" font-size="14.00">PiL</text>
</g>
<!-- PiL3&#45;&gt;!d3 -->
<g id="edge28" class="edge">
<title>PiL3&#45;&gt;!d3</title>
<g id="a_edge28"><a xlink:title="e48">
<path fill="none" stroke="blue" d="M378.17,-641.87C386.37,-631.44 395.81,-619.42 403.09,-610.16"/>
<polygon fill="blue" stroke="blue" points="375.36,-639.79 371.93,-649.81 380.86,-644.11 375.36,-639.79"/>
</a>
</g>
</g>
<!-- Dup2_3 -->
<g id="node36" class="node">
<title>Dup2_3</title>
<ellipse fill="none" stroke="black" cx="341" cy="-594" rx="29.5" ry="18"/>
<text text-anchor="middle" x="341" y="-590.3" font-family="Times-Roman" font-size="14.00">Dup</text>
</g>
<!-- PiL3&#45;&gt;Dup2_3 -->
<g id="edge32" class="edge">
<title>PiL3&#45;&gt;Dup2_3</title>
<g id="a_edge32"><a xlink:title="e52">
<path fill="none" stroke="red" d="M355.4,-648.05C353.09,-639.54 350.25,-629.07 347.7,-619.68"/>
<ellipse fill="red" stroke="red" cx="346.6" cy="-615.65" rx="4" ry="4"/>
</a>
</g>
</g>
<!-- PiL4 -->
<g id="node32" class="node">
<title>PiL4</title>
<ellipse fill="none" stroke="black" cx="288" cy="-666" rx="27" ry="18"/>
<text text-anchor="middle" x="288" y="-662.3" font-family="Times-Roman" font-size="14.00">PiL</text>
</g>
<!-- PiL4&#45;&gt;!d4 -->
<g id="edge29" class="edge">
<title>PiL4&#45;&gt;!d4</title>
<g id="a_edge29"><a xlink:title="e49">
<path fill="none" stroke="blue" d="M280.03,-638.43C277.35,-629.48 274.43,-619.76 272.04,-611.79"/>
<polygon fill="blue" stroke="blue" points="276.69,-639.48 282.92,-648.05 283.4,-637.47 276.69,-639.48"/>
</a>
</g>
</g>
<!-- PiL4&#45;&gt;Dup2_3 -->
<g id="edge33" class="edge">
<title>PiL4&#45;&gt;Dup2_3</title>
<g id="a_edge33"><a xlink:title="e53">
<path fill="none" stroke="red" d="M299.76,-649.46C306.97,-639.95 316.3,-627.62 324.27,-617.1"/>
<ellipse fill="none" stroke="red" cx="326.86" cy="-613.68" rx="4" ry="4"/>
</a>
</g>
</g>
<!-- Dup2_0&#45;&gt;I4 -->
<g id="edge34" class="edge">
<title>Dup2_0&#45;&gt;I4</title>
<g id="a_edge34"><a xlink:title="e7">
<path fill="none" stroke="red" stroke-width="2" d="M250.25,-966.19C250.36,-958.48 250.49,-949.21 250.61,-940.61"/>
<polygon fill="red" stroke="red" stroke-width="2" points="254.11,-940.65 250.76,-930.6 247.11,-940.55 254.11,-940.65"/>
</a>
</g>
</g>
<!-- Dup2_1&#45;&gt;!c0 -->
<g id="edge25" class="edge">
<title>Dup2_1&#45;&gt;!c0</title>
<g id="a_edge25"><a xlink:title="e45">
<path fill="none" stroke="blue" d="M214.91,-573.09C227.58,-561.57 243.22,-547.35 254.59,-537.01"/>
<ellipse fill="blue" stroke="blue" cx="211.91" cy="-575.81" rx="4" ry="4"/>
</a>
</g>
</g>
<!-- Dup2_1&#45;&gt;!c1 -->
<g id="edge27" class="edge">
<title>Dup2_1&#45;&gt;!c1</title>
<g id="a_edge27"><a xlink:title="e47">
<path fill="none" stroke="blue" d="M193,-567.64C193,-558.49 193,-548.38 193,-540.1"/>
<ellipse fill="none" stroke="blue" cx="193" cy="-571.7" rx="4" ry="4"/>
</a>
</g>
</g>
<!-- Dup2_2&#45;&gt;PiL3 -->
<g id="edge30" class="edge">
<title>Dup2_2&#45;&gt;PiL3</title>
<g id="a_edge30"><a xlink:title="e50">
<path fill="none" stroke="blue" d="M321.59,-718.97C330.79,-706.52 340.82,-692.96 348.32,-682.81"/>
<ellipse fill="blue" stroke="blue" cx="318.97" cy="-722.53" rx="4" ry="4"/>
</a>
</g>
</g>
<!-- Dup2_2&#45;&gt;PiL4 -->
<g id="edge31" class="edge">
<title>Dup2_2&#45;&gt;PiL4</title>
<g id="a_edge31"><a xlink:title="e51">
<path fill="none" stroke="blue" d="M292.73,-711.84C291.7,-702.01 290.64,-692.03 289.79,-683.98"/>
<ellipse fill="none" stroke="blue" cx="293.18" cy="-716.04" rx="4" ry="4"/>
</a>
</g>
</g>
<!-- Dup2_3&#45;&gt;Dup1_1 -->
<g id="edge13" class="edge">
<title>Dup2_3&#45;&gt;Dup1_1</title>
<g id="a_edge13"><a xlink:title="e31">
<path fill="none" stroke="red" d="M339.44,-575.9C336.24,-545.76 327.32,-481.68 306,-432 301.32,-421.08 294.28,-410.05 287.66,-400.9"/>
<ellipse fill="none" stroke="red" cx="285.12" cy="-397.51" rx="4" ry="4"/>
</a>
</g>
</g>
</g>
</svg>
