<?xml version="1.0" encoding="UTF-8" standalone="no"?>
<!DOCTYPE svg PUBLIC "-//W3C//DTD SVG 1.1//EN"
 "http://www.w3.org/Graphics/SVG/1.1/DTD/svg11.dtd">
<!-- Generated by graphviz version 2.43.0 (0)
 -->
<!-- Title: %3 Pages: 1 -->
<svg width="288pt" height="861pt"
 viewBox="0.00 0.00 288.00 861.30" xmlns="http://www.w3.org/2000/svg" xmlns:xlink="http://www.w3.org/1999/xlink">
<g id="graph0" class="graph" transform="scale(1 1) rotate(0) translate(4 857.3)">
<title>%3</title>
<polygon fill="white" stroke="transparent" points="-4,4 -4,-857.3 284,-857.3 284,4 -4,4"/>
<!-- Root0 -->
<g id="node1" class="node">
<title>Root0</title>
<ellipse fill="none" stroke="black" cx="171" cy="-835.3" rx="30.59" ry="18"/>
<text text-anchor="middle" x="171" y="-831.6" font-family="Times-Roman" font-size="14.00">Root</text>
</g>
<!-- I3 -->
<g id="node15" class="node">
<title>I3</title>
<ellipse fill="none" stroke="black" cx="171" cy="-763.3" rx="27" ry="18"/>
<text text-anchor="middle" x="171" y="-759.6" font-family="Times-Roman" font-size="14.00">I</text>
</g>
<!-- Root0&#45;&gt;I3 -->
<g id="edge26" class="edge">
<title>Root0&#45;&gt;I3</title>
<g id="a_edge26"><a xlink:title="rettop">
<path fill="none" stroke="red" stroke-width="2" d="M171,-816.99C171,-809.28 171,-800.01 171,-791.41"/>
<polygon fill="red" stroke="red" stroke-width="2" points="174.5,-791.4 171,-781.4 167.5,-791.4 174.5,-791.4"/>
</a>
</g>
</g>
<!-- PiL0 -->
<g id="node2" class="node">
<title>PiL0</title>
<ellipse fill="none" stroke="black" cx="171" cy="-691.3" rx="27" ry="18"/>
<text text-anchor="middle" x="171" y="-687.6" font-family="Times-Roman" font-size="14.00">PiL</text>
</g>
<!-- !p1 -->
<g id="node7" class="node">
<title>!p1</title>
<ellipse fill="none" stroke="black" cx="133" cy="-606.65" rx="27" ry="18"/>
<text text-anchor="middle" x="133" y="-602.95" font-family="Times-Roman" font-size="14.00">!p</text>
</g>
<!-- PiL0&#45;&gt;!p1 -->
<g id="edge20" class="edge">
<title>PiL0&#45;&gt;!p1</title>
<g id="a_edge20"><a xlink:title="e57">
<path fill="none" stroke="red" d="M163.49,-673.97C158.13,-662.31 150.82,-646.4 144.69,-633.08"/>
<polygon fill="red" stroke="red" points="147.85,-631.57 140.49,-623.94 141.49,-634.49 147.85,-631.57"/>
</a>
</g>
</g>
<!-- Cut2 -->
<g id="node20" class="node">
<title>Cut2</title>
<ellipse fill="none" stroke="black" cx="210" cy="-606.65" rx="26.78" ry="26.78"/>
<ellipse fill="none" stroke="black" cx="210" cy="-606.65" rx="30.8" ry="30.8"/>
<text text-anchor="middle" x="210" y="-602.95" font-family="Times-Roman" font-size="14.00">Cut</text>
</g>
<!-- PiL0&#45;&gt;Cut2 -->
<g id="edge17" class="edge">
<title>PiL0&#45;&gt;Cut2</title>
<g id="a_edge17"><a xlink:title="e51">
<path fill="none" stroke="blue" stroke-width="2" d="M183.11,-664.63C187.6,-655.12 192.7,-644.31 197.24,-634.68"/>
<polygon fill="blue" stroke="blue" stroke-width="2" points="179.81,-663.43 178.71,-673.97 186.14,-666.42 179.81,-663.43"/>
</a>
</g>
</g>
<!-- !p0 -->
<g id="node3" class="node">
<title>!p0</title>
<ellipse fill="none" stroke="black" cx="235" cy="-306" rx="27" ry="18"/>
<text text-anchor="middle" x="235" y="-302.3" font-family="Times-Roman" font-size="14.00">!p</text>
</g>
<!-- PiR0 -->
<g id="node4" class="node">
<title>PiR0</title>
<ellipse fill="none" stroke="black" cx="236" cy="-234" rx="27" ry="18"/>
<text text-anchor="middle" x="236" y="-230.3" font-family="Times-Roman" font-size="14.00">PiR</text>
</g>
<!-- !p0&#45;&gt;PiR0 -->
<g id="edge21" class="edge">
<title>!p0&#45;&gt;PiR0</title>
<g id="a_edge21"><a xlink:title="e85">
<path fill="none" stroke="red" d="M235.25,-287.7C235.36,-279.98 235.49,-270.71 235.61,-262.11"/>
<polygon fill="red" stroke="red" points="239.11,-262.15 235.76,-252.1 232.11,-262.05 239.11,-262.15"/>
</a>
</g>
</g>
<!-- I0 -->
<g id="node6" class="node">
<title>I0</title>
<ellipse fill="none" stroke="black" cx="226" cy="-162" rx="27" ry="18"/>
<text text-anchor="middle" x="226" y="-158.3" font-family="Times-Roman" font-size="14.00">I</text>
</g>
<!-- PiR0&#45;&gt;I0 -->
<g id="edge23" class="edge">
<title>PiR0&#45;&gt;I0</title>
<g id="a_edge23"><a xlink:title="e89">
<path fill="none" stroke="red" d="M233.58,-216.05C232.48,-208.35 231.15,-199.03 229.91,-190.36"/>
<polygon fill="red" stroke="red" points="233.35,-189.68 228.47,-180.28 226.42,-190.67 233.35,-189.68"/>
</a>
</g>
</g>
<!-- !d0 -->
<g id="node5" class="node">
<title>!d0</title>
<ellipse fill="none" stroke="black" cx="253" cy="-90" rx="27" ry="18"/>
<text text-anchor="middle" x="253" y="-86.3" font-family="Times-Roman" font-size="14.00">!d</text>
</g>
<!-- !d0&#45;&gt;PiR0 -->
<g id="edge22" class="edge">
<title>!d0&#45;&gt;PiR0</title>
<g id="a_edge22"><a xlink:title="e87">
<path fill="none" stroke="blue" d="M260.26,-117.92C263.95,-135.73 266.76,-159.48 262,-180 258.94,-193.18 252.12,-206.86 246.24,-217.02"/>
<polygon fill="blue" stroke="blue" points="263.61,-116.9 257.97,-107.94 256.79,-118.47 263.61,-116.9"/>
</a>
</g>
</g>
<!-- I0&#45;&gt;!d0 -->
<g id="edge24" class="edge">
<title>I0&#45;&gt;!d0</title>
<g id="a_edge24"><a xlink:title="e91">
<path fill="none" stroke="blue" d="M236.01,-135.06C239.5,-126.01 243.32,-116.09 246.46,-107.96"/>
<polygon fill="blue" stroke="blue" points="232.73,-133.82 232.4,-144.41 239.26,-136.34 232.73,-133.82"/>
</a>
</g>
</g>
<!-- I1 -->
<g id="node10" class="node">
<title>I1</title>
<ellipse fill="none" stroke="black" cx="131" cy="-522" rx="27" ry="18"/>
<text text-anchor="middle" x="131" y="-518.3" font-family="Times-Roman" font-size="14.00">I</text>
</g>
<!-- !p1&#45;&gt;I1 -->
<g id="edge25" class="edge">
<title>!p1&#45;&gt;I1</title>
<g id="a_edge25"><a xlink:title="e95">
<path fill="none" stroke="red" d="M132.59,-588.52C132.32,-577.44 131.96,-562.78 131.66,-550.13"/>
<polygon fill="red" stroke="red" points="135.15,-550.02 131.41,-540.1 128.16,-550.18 135.15,-550.02"/>
</a>
</g>
</g>
<!-- !d1 -->
<g id="node8" class="node">
<title>!d1</title>
<ellipse fill="none" stroke="black" cx="55" cy="-378" rx="27" ry="18"/>
<text text-anchor="middle" x="55" y="-374.3" font-family="Times-Roman" font-size="14.00">!d</text>
</g>
<!-- Cut0 -->
<g id="node17" class="node">
<title>Cut0</title>
<ellipse fill="none" stroke="black" cx="55" cy="-306" rx="27" ry="18"/>
<text text-anchor="middle" x="55" y="-302.3" font-family="Times-Roman" font-size="14.00">Cut</text>
</g>
<!-- !d1&#45;&gt;Cut0 -->
<g id="edge16" class="edge">
<title>!d1&#45;&gt;Cut0</title>
<g id="a_edge16"><a xlink:title="e47">
<path fill="none" stroke="blue" d="M55,-349.67C55,-341.05 55,-331.79 55,-324.1"/>
<polygon fill="blue" stroke="blue" points="51.5,-349.7 55,-359.7 58.5,-349.7 51.5,-349.7"/>
</a>
</g>
</g>
<!-- PiL1 -->
<g id="node9" class="node">
<title>PiL1</title>
<ellipse fill="none" stroke="black" cx="127" cy="-450" rx="27" ry="18"/>
<text text-anchor="middle" x="127" y="-446.3" font-family="Times-Roman" font-size="14.00">PiL</text>
</g>
<!-- PiL1&#45;&gt;!d1 -->
<g id="edge1" class="edge">
<title>PiL1&#45;&gt;!d1</title>
<g id="a_edge1"><a xlink:title="e103">
<path fill="none" stroke="blue" d="M104.96,-427.57C93.55,-416.48 79.93,-403.24 69.8,-393.38"/>
<polygon fill="blue" stroke="blue" points="102.82,-430.37 112.43,-434.83 107.7,-425.35 102.82,-430.37"/>
</a>
</g>
</g>
<!-- !p2 -->
<g id="node11" class="node">
<title>!p2</title>
<ellipse fill="none" stroke="black" cx="127" cy="-378" rx="27" ry="18"/>
<text text-anchor="middle" x="127" y="-374.3" font-family="Times-Roman" font-size="14.00">!p</text>
</g>
<!-- PiL1&#45;&gt;!p2 -->
<g id="edge3" class="edge">
<title>PiL1&#45;&gt;!p2</title>
<g id="a_edge3"><a xlink:title="e107">
<path fill="none" stroke="red" d="M127,-431.7C127,-423.98 127,-414.71 127,-406.11"/>
<polygon fill="red" stroke="red" points="130.5,-406.1 127,-396.1 123.5,-406.1 130.5,-406.1"/>
</a>
</g>
</g>
<!-- I1&#45;&gt;PiL1 -->
<g id="edge2" class="edge">
<title>I1&#45;&gt;PiL1</title>
<g id="a_edge2"><a xlink:title="e105">
<path fill="none" stroke="blue" d="M129.44,-493.67C128.95,-485.05 128.42,-475.79 127.98,-468.1"/>
<polygon fill="blue" stroke="blue" points="125.95,-493.91 130.01,-503.7 132.93,-493.51 125.95,-493.91"/>
</a>
</g>
</g>
<!-- PiR1 -->
<g id="node12" class="node">
<title>PiR1</title>
<ellipse fill="none" stroke="black" cx="127" cy="-306" rx="27" ry="18"/>
<text text-anchor="middle" x="127" y="-302.3" font-family="Times-Roman" font-size="14.00">PiR</text>
</g>
<!-- !p2&#45;&gt;PiR1 -->
<g id="edge4" class="edge">
<title>!p2&#45;&gt;PiR1</title>
<g id="a_edge4"><a xlink:title="e111">
<path fill="none" stroke="red" d="M127,-359.7C127,-351.98 127,-342.71 127,-334.11"/>
<polygon fill="red" stroke="red" points="130.5,-334.1 127,-324.1 123.5,-334.1 130.5,-334.1"/>
</a>
</g>
</g>
<!-- I2 -->
<g id="node14" class="node">
<title>I2</title>
<ellipse fill="none" stroke="black" cx="126" cy="-234" rx="27" ry="18"/>
<text text-anchor="middle" x="126" y="-230.3" font-family="Times-Roman" font-size="14.00">I</text>
</g>
<!-- PiR1&#45;&gt;I2 -->
<g id="edge6" class="edge">
<title>PiR1&#45;&gt;I2</title>
<g id="a_edge6"><a xlink:title="e119">
<path fill="none" stroke="red" d="M126.75,-287.7C126.64,-279.98 126.51,-270.71 126.39,-262.11"/>
<polygon fill="red" stroke="red" points="129.89,-262.05 126.24,-252.1 122.89,-262.15 129.89,-262.05"/>
</a>
</g>
</g>
<!-- !d2 -->
<g id="node13" class="node">
<title>!d2</title>
<ellipse fill="none" stroke="black" cx="135" cy="-162" rx="27" ry="18"/>
<text text-anchor="middle" x="135" y="-158.3" font-family="Times-Roman" font-size="14.00">!d</text>
</g>
<!-- !d2&#45;&gt;PiR1 -->
<g id="edge5" class="edge">
<title>!d2&#45;&gt;PiR1</title>
<g id="a_edge5"><a xlink:title="e117">
<path fill="none" stroke="blue" d="M150.61,-187.68C155.23,-196.3 159.66,-206.27 162,-216 165.73,-231.56 166.6,-236.68 162,-252 157.75,-266.15 148.36,-280.01 140.37,-290"/>
<polygon fill="blue" stroke="blue" points="153.62,-185.89 145.63,-178.93 147.53,-189.35 153.62,-185.89"/>
</a>
</g>
</g>
<!-- I2&#45;&gt;!d2 -->
<g id="edge7" class="edge">
<title>I2&#45;&gt;!d2</title>
<g id="a_edge7"><a xlink:title="e123">
<path fill="none" stroke="blue" d="M129.47,-206.01C130.58,-197.36 131.78,-188.03 132.78,-180.28"/>
<polygon fill="blue" stroke="blue" points="125.98,-205.69 128.18,-216.05 132.93,-206.58 125.98,-205.69"/>
</a>
</g>
</g>
<!-- I3&#45;&gt;PiL0 -->
<g id="edge19" class="edge">
<title>I3&#45;&gt;PiL0</title>
<g id="a_edge19"><a xlink:title="e55">
<path fill="none" stroke="blue" stroke-width="2" d="M171,-734.96C171,-726.35 171,-717.09 171,-709.4"/>
<polygon fill="blue" stroke="blue" stroke-width="2" points="167.5,-734.99 171,-744.99 174.5,-734.99 167.5,-734.99"/>
</a>
</g>
</g>
<!-- !p3 -->
<g id="node16" class="node">
<title>!p3</title>
<ellipse fill="none" stroke="black" cx="54" cy="-234" rx="27" ry="18"/>
<text text-anchor="middle" x="54" y="-230.3" font-family="Times-Roman" font-size="14.00">!p</text>
</g>
<!-- PiR2 -->
<g id="node18" class="node">
<title>PiR2</title>
<ellipse fill="none" stroke="black" cx="54" cy="-162" rx="27" ry="18"/>
<text text-anchor="middle" x="54" y="-158.3" font-family="Times-Roman" font-size="14.00">PiR</text>
</g>
<!-- !p3&#45;&gt;PiR2 -->
<g id="edge9" class="edge">
<title>!p3&#45;&gt;PiR2</title>
<g id="a_edge9"><a xlink:title="e127">
<path fill="none" stroke="red" d="M54,-215.7C54,-207.98 54,-198.71 54,-190.11"/>
<polygon fill="red" stroke="red" points="57.5,-190.1 54,-180.1 50.5,-190.1 57.5,-190.1"/>
</a>
</g>
</g>
<!-- Cut0&#45;&gt;!p3 -->
<g id="edge8" class="edge">
<title>Cut0&#45;&gt;!p3</title>
<g id="a_edge8"><a xlink:title="e125">
<path fill="none" stroke="red" d="M54.75,-287.7C54.64,-279.98 54.51,-270.71 54.39,-262.11"/>
<polygon fill="red" stroke="red" points="57.89,-262.05 54.24,-252.1 50.89,-262.15 57.89,-262.05"/>
</a>
</g>
</g>
<!-- I5 -->
<g id="node24" class="node">
<title>I5</title>
<ellipse fill="none" stroke="black" cx="27" cy="-90" rx="27" ry="18"/>
<text text-anchor="middle" x="27" y="-86.3" font-family="Times-Roman" font-size="14.00">I</text>
</g>
<!-- PiR2&#45;&gt;I5 -->
<g id="edge13" class="edge">
<title>PiR2&#45;&gt;I5</title>
<g id="a_edge13"><a xlink:title="e131">
<path fill="none" stroke="red" d="M47.6,-144.41C44.49,-136.34 40.67,-126.43 37.17,-117.35"/>
<polygon fill="red" stroke="red" points="40.4,-116.03 33.54,-107.96 33.87,-118.55 40.4,-116.03"/>
</a>
</g>
</g>
<!-- Cut1 -->
<g id="node19" class="node">
<title>Cut1</title>
<ellipse fill="none" stroke="black" cx="218" cy="-378" rx="27" ry="18"/>
<text text-anchor="middle" x="218" y="-374.3" font-family="Times-Roman" font-size="14.00">Cut</text>
</g>
<!-- Cut1&#45;&gt;!p0 -->
<g id="edge18" class="edge">
<title>Cut1&#45;&gt;!p0</title>
<g id="a_edge18"><a xlink:title="e53">
<path fill="none" stroke="red" d="M222.12,-360.05C224.01,-352.26 226.3,-342.82 228.42,-334.08"/>
<polygon fill="red" stroke="red" points="231.85,-334.82 230.8,-324.28 225.04,-333.17 231.85,-334.82"/>
</a>
</g>
</g>
<!-- I4 -->
<g id="node23" class="node">
<title>I4</title>
<ellipse fill="none" stroke="black" cx="210" cy="-522" rx="27" ry="18"/>
<text text-anchor="middle" x="210" y="-518.3" font-family="Times-Roman" font-size="14.00">I</text>
</g>
<!-- Cut2&#45;&gt;I4 -->
<g id="edge12" class="edge">
<title>Cut2&#45;&gt;I4</title>
<g id="a_edge12"><a xlink:title="e130">
<path fill="none" stroke="red" d="M210,-575.81C210,-567.45 210,-558.41 210,-550.21"/>
<polygon fill="red" stroke="red" points="213.5,-550.05 210,-540.05 206.5,-550.05 213.5,-550.05"/>
</a>
</g>
</g>
<!-- !d3 -->
<g id="node21" class="node">
<title>!d3</title>
<ellipse fill="none" stroke="black" cx="210" cy="-450" rx="27" ry="18"/>
<text text-anchor="middle" x="210" y="-446.3" font-family="Times-Roman" font-size="14.00">!d</text>
</g>
<!-- !d3&#45;&gt;Cut1 -->
<g id="edge10" class="edge">
<title>!d3&#45;&gt;Cut1</title>
<g id="a_edge10"><a xlink:title="e128">
<path fill="none" stroke="blue" d="M213.12,-421.67C214.11,-413.05 215.17,-403.79 216.05,-396.1"/>
<polygon fill="blue" stroke="blue" points="209.64,-421.36 211.98,-431.7 216.59,-422.16 209.64,-421.36"/>
</a>
</g>
</g>
<!-- !d4 -->
<g id="node22" class="node">
<title>!d4</title>
<ellipse fill="none" stroke="black" cx="54" cy="-18" rx="27" ry="18"/>
<text text-anchor="middle" x="54" y="-14.3" font-family="Times-Roman" font-size="14.00">!d</text>
</g>
<!-- !d4&#45;&gt;PiR2 -->
<g id="edge11" class="edge">
<title>!d4&#45;&gt;PiR2</title>
<g id="a_edge11"><a xlink:title="e129">
<path fill="none" stroke="blue" d="M59.49,-46.01C60.93,-54.31 62.28,-63.5 63,-72 64.34,-87.94 64.34,-92.06 63,-108 61.98,-120.09 59.68,-133.57 57.65,-143.91"/>
<polygon fill="blue" stroke="blue" points="62.91,-45.29 57.65,-36.09 56.03,-46.56 62.91,-45.29"/>
</a>
</g>
</g>
<!-- I4&#45;&gt;!d3 -->
<g id="edge14" class="edge">
<title>I4&#45;&gt;!d3</title>
<g id="a_edge14"><a xlink:title="e132">
<path fill="none" stroke="blue" d="M210,-493.67C210,-485.05 210,-475.79 210,-468.1"/>
<polygon fill="blue" stroke="blue" points="206.5,-493.7 210,-503.7 213.5,-493.7 206.5,-493.7"/>
</a>
</g>
</g>
<!-- I5&#45;&gt;!d4 -->
<g id="edge15" class="edge">
<title>I5&#45;&gt;!d4</title>
<g id="a_edge15"><a xlink:title="e133">
<path fill="none" stroke="blue" d="M37.01,-63.06C40.5,-54.01 44.32,-44.09 47.46,-35.96"/>
<polygon fill="blue" stroke="blue" points="33.73,-61.82 33.4,-72.41 40.26,-64.34 33.73,-61.82"/>
</a>
</g>
</g>
</g>
</svg>
