<?xml version="1.0" encoding="UTF-8" standalone="no"?>
<!DOCTYPE svg PUBLIC "-//W3C//DTD SVG 1.1//EN"
 "http://www.w3.org/Graphics/SVG/1.1/DTD/svg11.dtd">
<!-- Generated by graphviz version 2.49.3 (0)
 -->
<!-- Pages: 1 -->
<svg width="502pt" height="1152pt"
 viewBox="0.00 0.00 502.00 1151.80" xmlns="http://www.w3.org/2000/svg" xmlns:xlink="http://www.w3.org/1999/xlink">
<g id="graph0" class="graph" transform="scale(1 1) rotate(0) translate(4 1147.8)">
<polygon fill="white" stroke="transparent" points="-4,4 -4,-1147.8 498,-1147.8 498,4 -4,4"/>
<!-- I0 -->
<g id="node1" class="node">
<title>I0</title>
<ellipse fill="none" stroke="black" cx="27" cy="-1052.8" rx="27" ry="18"/>
<text text-anchor="middle" x="27" y="-1049.1" font-family="Times,serif" font-size="14.00">I</text>
</g>
<!-- !d1 -->
<g id="node2" class="node">
<title>!d1</title>
<ellipse fill="none" stroke="black" cx="82" cy="-965.8" rx="27" ry="18"/>
<text text-anchor="middle" x="82" y="-962.1" font-family="Times,serif" font-size="14.00">!d</text>
</g>
<!-- I0&#45;&gt;!d1 -->
<g id="edge4" class="edge">
<title>I0&#45;&gt;!d1</title>
<g id="a_edge4"><a xlink:title="iret84">
<path fill="none" stroke="blue" d="M42.8,-1027.38C52.09,-1013.02 63.57,-995.28 71.7,-982.71"/>
<polygon fill="blue" stroke="blue" points="39.84,-1025.51 37.35,-1035.81 45.72,-1029.31 39.84,-1025.51"/>
</a>
</g>
<text text-anchor="middle" x="61.5" y="-1005.6" font-family="Times,serif" font-size="14.00">3</text>
</g>
<!-- λ2 -->
<g id="node3" class="node">
<title>λ2</title>
<ellipse fill="none" stroke="black" cx="82" cy="-869.4" rx="27" ry="18"/>
<text text-anchor="middle" x="82" y="-865.7" font-family="Times,serif" font-size="14.00">λ</text>
</g>
<!-- !d1&#45;&gt;λ2 -->
<g id="edge3" class="edge">
<title>!d1&#45;&gt;λ2</title>
<g id="a_edge3"><a xlink:title="i81">
<path fill="none" stroke="blue" d="M82,-937.09C82,-921.07 82,-901.41 82,-887.6"/>
<polygon fill="blue" stroke="blue" points="78.5,-937.48 82,-947.48 85.5,-937.48 78.5,-937.48"/>
</a>
</g>
<text text-anchor="middle" x="85.5" y="-918.6" font-family="Times,serif" font-size="14.00">3</text>
</g>
<!-- λ2&#45;&gt;I0 -->
<g id="edge29" class="edge">
<title>λ2&#45;&gt;I0</title>
<g id="a_edge29"><a xlink:title="ret82">
<path fill="none" stroke="red" d="M73.02,-886.52C64.84,-901.84 53.01,-925.77 46,-947.8 37.91,-973.23 32.88,-1003.33 30.04,-1024.59"/>
<polygon fill="red" stroke="red" points="26.57,-1024.18 28.79,-1034.54 33.51,-1025.05 26.57,-1024.18"/>
</a>
</g>
</g>
<!-- !p3 -->
<g id="node4" class="node">
<title>!p3</title>
<ellipse fill="none" stroke="black" cx="154" cy="-965.8" rx="27" ry="18"/>
<text text-anchor="middle" x="154" y="-962.1" font-family="Times,serif" font-size="14.00">!p</text>
</g>
<!-- !p3&#45;&gt;λ2 -->
<g id="edge24" class="edge">
<title>!p3&#45;&gt;λ2</title>
<g id="a_edge24"><a xlink:title="newrretf78">
<path fill="none" stroke="red" d="M142.11,-949.21C130.58,-934.09 112.93,-910.96 99.74,-893.66"/>
<polygon fill="red" stroke="red" points="102.52,-891.52 93.67,-885.7 96.95,-895.77 102.52,-891.52"/>
</a>
</g>
<text text-anchor="middle" x="130.5" y="-918.6" font-family="Times,serif" font-size="14.00">3</text>
</g>
<!-- I4 -->
<g id="node5" class="node">
<title>I4</title>
<ellipse fill="none" stroke="black" cx="210" cy="-773" rx="27" ry="18"/>
<text text-anchor="middle" x="210" y="-769.3" font-family="Times,serif" font-size="14.00">I</text>
</g>
<!-- @5 -->
<g id="node6" class="node">
<title>@5</title>
<ellipse fill="none" stroke="black" cx="182" cy="-1052.8" rx="27" ry="18"/>
<text text-anchor="middle" x="182" y="-1049.1" font-family="Times,serif" font-size="14.00">@</text>
</g>
<!-- I4&#45;&gt;@5 -->
<g id="edge9" class="edge">
<title>I4&#45;&gt;@5</title>
<g id="a_edge9"><a xlink:title="lret75">
<path fill="none" stroke="blue" d="M207.6,-801.18C204.03,-841.19 196.97,-918.31 190,-983.8 188.15,-1001.17 185.79,-1021.01 184.11,-1034.76"/>
<polygon fill="blue" stroke="blue" points="211.09,-801.42 208.49,-791.15 204.12,-800.8 211.09,-801.42"/>
</a>
</g>
</g>
<!-- @5&#45;&gt;!p3 -->
<g id="edge19" class="edge">
<title>@5&#45;&gt;!p3</title>
<g id="a_edge19"><a xlink:title="newrret74">
<path fill="none" stroke="red" d="M176.47,-1035C172.56,-1023.13 167.23,-1006.96 162.75,-993.35"/>
<polygon fill="red" stroke="red" points="165.97,-991.96 159.52,-983.55 159.32,-994.15 165.97,-991.96"/>
</a>
</g>
<text text-anchor="middle" x="173.5" y="-1005.6" font-family="Times,serif" font-size="14.00">2</text>
</g>
<!-- !d6 -->
<g id="node7" class="node">
<title>!d6</title>
<ellipse fill="none" stroke="black" cx="264" cy="-965.8" rx="27" ry="18"/>
<text text-anchor="middle" x="264" y="-962.1" font-family="Times,serif" font-size="14.00">!d</text>
</g>
<!-- @5&#45;&gt;!d6 -->
<g id="edge14" class="edge">
<title>@5&#45;&gt;!d6</title>
<g id="a_edge14"><a xlink:title="lval70">
<path fill="none" stroke="blue" d="M206.79,-1031.86C212.3,-1027.1 217.98,-1021.91 223,-1016.8 233.69,-1005.89 244.59,-992.46 252.46,-982.27"/>
<polygon fill="blue" stroke="blue" points="204.35,-1029.35 198.96,-1038.47 208.86,-1034.7 204.35,-1029.35"/>
</a>
</g>
<text text-anchor="middle" x="240.5" y="-1005.6" font-family="Times,serif" font-size="14.00">2</text>
</g>
<!-- !p7 -->
<g id="node8" class="node">
<title>!p7</title>
<ellipse fill="none" stroke="black" cx="264" cy="-869.4" rx="27" ry="18"/>
<text text-anchor="middle" x="264" y="-865.7" font-family="Times,serif" font-size="14.00">!p</text>
</g>
<!-- !d6&#45;&gt;!p7 -->
<g id="edge2" class="edge">
<title>!d6&#45;&gt;!p7</title>
<g id="a_edge2"><a xlink:title="hf65">
<path fill="none" stroke="blue" d="M264,-937.09C264,-921.07 264,-901.41 264,-887.6"/>
<polygon fill="blue" stroke="blue" points="260.5,-937.48 264,-947.48 267.5,-937.48 260.5,-937.48"/>
</a>
</g>
<text text-anchor="middle" x="267.5" y="-918.6" font-family="Times,serif" font-size="14.00">1</text>
</g>
<!-- !p7&#45;&gt;I4 -->
<g id="edge23" class="edge">
<title>!p7&#45;&gt;I4</title>
<g id="a_edge23"><a xlink:title="newrretf66">
<path fill="none" stroke="red" d="M254.84,-852.38C246.46,-837.74 233.93,-815.84 224.25,-798.91"/>
<polygon fill="red" stroke="red" points="227.21,-797.03 219.21,-790.09 221.13,-800.51 227.21,-797.03"/>
</a>
</g>
<text text-anchor="middle" x="240.5" y="-812.8" font-family="Times,serif" font-size="14.00">2</text>
</g>
<!-- λ19 -->
<g id="node20" class="node">
<title>λ19</title>
<ellipse fill="none" stroke="black" cx="324" cy="-773" rx="27" ry="18"/>
<text text-anchor="middle" x="324" y="-769.3" font-family="Times,serif" font-size="14.00">λ</text>
</g>
<!-- !p7&#45;&gt;λ19 -->
<g id="edge1" class="edge">
<title>!p7&#45;&gt;λ19</title>
<g id="a_edge1"><a xlink:title="h34">
<path fill="none" stroke="blue" d="M279.81,-843.52C290.63,-826.5 304.66,-804.43 313.97,-789.78"/>
<polygon fill="blue" stroke="blue" points="276.59,-842.07 274.18,-852.38 282.5,-845.82 276.59,-842.07"/>
</a>
</g>
<text text-anchor="middle" x="304.5" y="-812.8" font-family="Times,serif" font-size="14.00">1</text>
</g>
<!-- I8 -->
<g id="node9" class="node">
<title>I8</title>
<ellipse fill="none" stroke="black" cx="324" cy="-686" rx="27" ry="18"/>
<text text-anchor="middle" x="324" y="-682.3" font-family="Times,serif" font-size="14.00">I</text>
</g>
<!-- @9 -->
<g id="node10" class="node">
<title>@9</title>
<ellipse fill="none" stroke="black" cx="265" cy="-613" rx="27" ry="18"/>
<text text-anchor="middle" x="265" y="-609.3" font-family="Times,serif" font-size="14.00">@</text>
</g>
<!-- I8&#45;&gt;@9 -->
<g id="edge8" class="edge">
<title>I8&#45;&gt;@9</title>
<g id="a_edge8"><a xlink:title="lret62">
<path fill="none" stroke="blue" d="M304.96,-662.09C295.96,-651.26 285.47,-638.63 277.49,-629.04"/>
<polygon fill="blue" stroke="blue" points="302.4,-664.49 311.49,-669.94 307.79,-660.01 302.4,-664.49"/>
</a>
</g>
</g>
<!-- @9&#45;&gt;!p7 -->
<g id="edge18" class="edge">
<title>@9&#45;&gt;!p7</title>
<g id="a_edge18"><a xlink:title="newrret61">
<path fill="none" stroke="red" d="M264.93,-631.01C264.76,-674.2 264.31,-788.37 264.11,-841.05"/>
<polygon fill="red" stroke="red" points="260.61,-841.3 264.07,-851.31 267.61,-841.33 260.61,-841.3"/>
</a>
</g>
<text text-anchor="middle" x="268.5" y="-725.8" font-family="Times,serif" font-size="14.00">1</text>
</g>
<!-- Cut18 -->
<g id="node19" class="node">
<title>Cut18</title>
<ellipse fill="none" stroke="black" cx="265" cy="-526" rx="27" ry="18"/>
<text text-anchor="middle" x="265" y="-522.3" font-family="Times,serif" font-size="14.00">Cut</text>
</g>
<!-- @9&#45;&gt;Cut18 -->
<g id="edge11" class="edge">
<title>@9&#45;&gt;Cut18</title>
<g id="a_edge11"><a xlink:title="lval38">
<path fill="none" stroke="blue" d="M265,-584.73C265,-571.42 265,-555.81 265,-544.18"/>
<polygon fill="blue" stroke="blue" points="261.5,-584.8 265,-594.8 268.5,-584.8 261.5,-584.8"/>
</a>
</g>
</g>
<!-- I10 -->
<g id="node11" class="node">
<title>I10</title>
<ellipse fill="none" stroke="black" cx="167" cy="-105" rx="27" ry="18"/>
<text text-anchor="middle" x="167" y="-101.3" font-family="Times,serif" font-size="14.00">I</text>
</g>
<!-- !d11 -->
<g id="node12" class="node">
<title>!d11</title>
<ellipse fill="none" stroke="black" cx="199" cy="-18" rx="27" ry="18"/>
<text text-anchor="middle" x="199" y="-14.3" font-family="Times,serif" font-size="14.00">!d</text>
</g>
<!-- I10&#45;&gt;!d11 -->
<g id="edge41" class="edge">
<title>I10&#45;&gt;!d11</title>
<g id="a_edge41"><a xlink:title="yret60">
<path fill="none" stroke="blue" d="M176.86,-77.8C182.02,-64.1 188.18,-47.74 192.69,-35.76"/>
<polygon fill="blue" stroke="blue" points="173.57,-76.61 173.32,-87.21 180.12,-79.08 173.57,-76.61"/>
</a>
</g>
<text text-anchor="middle" x="188.5" y="-57.8" font-family="Times,serif" font-size="14.00">2</text>
</g>
<!-- !p12 -->
<g id="node13" class="node">
<title>!p12</title>
<ellipse fill="none" stroke="black" cx="204" cy="-192" rx="27" ry="18"/>
<text text-anchor="middle" x="204" y="-188.3" font-family="Times,serif" font-size="14.00">!p</text>
</g>
<!-- !d11&#45;&gt;!p12 -->
<g id="edge40" class="edge">
<title>!d11&#45;&gt;!p12</title>
<g id="a_edge40"><a xlink:title="yBf56">
<path fill="none" stroke="blue" d="M200.91,-46.22C201.7,-58.65 202.54,-73.56 203,-87 204.04,-117.5 204.14,-153.05 204.09,-173.7"/>
<polygon fill="blue" stroke="blue" points="204.39,-45.78 200.23,-36.04 197.4,-46.25 204.39,-45.78"/>
</a>
</g>
<text text-anchor="middle" x="207.5" y="-101.3" font-family="Times,serif" font-size="14.00">1</text>
</g>
<!-- !p12&#45;&gt;I10 -->
<g id="edge22" class="edge">
<title>!p12&#45;&gt;I10</title>
<g id="a_edge22"><a xlink:title="newrretf57">
<path fill="none" stroke="red" d="M196.87,-174.61C191.63,-162.58 184.4,-145.98 178.37,-132.13"/>
<polygon fill="red" stroke="red" points="181.44,-130.4 174.24,-122.63 175.02,-133.19 181.44,-130.4"/>
</a>
</g>
<text text-anchor="middle" x="191.5" y="-144.8" font-family="Times,serif" font-size="14.00">2</text>
</g>
<!-- !c16 -->
<g id="node17" class="node">
<title>!c16</title>
<ellipse fill="none" stroke="black" cx="293" cy="-105" rx="27" ry="18"/>
<text text-anchor="middle" x="293" y="-101.3" font-family="Times,serif" font-size="14.00">!c</text>
</g>
<!-- !p12&#45;&gt;!c16 -->
<g id="edge39" class="edge">
<title>!p12&#45;&gt;!c16</title>
<g id="a_edge39"><a xlink:title="yB44">
<path fill="none" stroke="blue" d="M226.43,-169.84C231.24,-165.28 236.3,-160.49 241,-156 250.77,-146.68 261.54,-136.34 270.72,-127.5"/>
<polygon fill="blue" stroke="blue" points="224.01,-167.31 219.15,-176.72 228.82,-172.4 224.01,-167.31"/>
<polygon fill="blue" stroke="blue" points="280.44,-122.99 270.81,-127.41 275.58,-117.95 280.44,-122.99"/>
</a>
</g>
<text text-anchor="middle" x="259.5" y="-144.8" font-family="Times,serif" font-size="14.00">1</text>
</g>
<!-- I13 -->
<g id="node14" class="node">
<title>I13</title>
<ellipse fill="none" stroke="black" cx="265" cy="-352" rx="27" ry="18"/>
<text text-anchor="middle" x="265" y="-348.3" font-family="Times,serif" font-size="14.00">I</text>
</g>
<!-- @14 -->
<g id="node15" class="node">
<title>@14</title>
<ellipse fill="none" stroke="black" cx="222" cy="-279" rx="27" ry="18"/>
<text text-anchor="middle" x="222" y="-275.3" font-family="Times,serif" font-size="14.00">@</text>
</g>
<!-- I13&#45;&gt;@14 -->
<g id="edge7" class="edge">
<title>I13&#45;&gt;@14</title>
<g id="a_edge7"><a xlink:title="lret53">
<path fill="none" stroke="blue" d="M249.96,-326.16C243.91,-316.17 237.1,-304.93 231.72,-296.05"/>
<polygon fill="blue" stroke="blue" points="247.07,-328.15 255.24,-334.89 253.06,-324.52 247.07,-328.15"/>
</a>
</g>
</g>
<!-- @14&#45;&gt;!p12 -->
<g id="edge17" class="edge">
<title>@14&#45;&gt;!p12</title>
<g id="a_edge17"><a xlink:title="newrret52">
<path fill="none" stroke="red" d="M218.36,-260.8C215.88,-249.09 212.54,-233.34 209.71,-219.97"/>
<polygon fill="red" stroke="red" points="213.07,-218.94 207.58,-209.89 206.22,-220.39 213.07,-218.94"/>
</a>
</g>
<text text-anchor="middle" x="218.5" y="-231.8" font-family="Times,serif" font-size="14.00">1</text>
</g>
<!-- !d15 -->
<g id="node16" class="node">
<title>!d15</title>
<ellipse fill="none" stroke="black" cx="276" cy="-192" rx="27" ry="18"/>
<text text-anchor="middle" x="276" y="-188.3" font-family="Times,serif" font-size="14.00">!d</text>
</g>
<!-- @14&#45;&gt;!d15 -->
<g id="edge13" class="edge">
<title>@14&#45;&gt;!d15</title>
<g id="a_edge13"><a xlink:title="lval48">
<path fill="none" stroke="blue" d="M237.77,-253.18C246.85,-238.89 257.98,-221.36 265.89,-208.92"/>
<polygon fill="blue" stroke="blue" points="234.57,-251.69 232.16,-262.01 240.47,-255.45 234.57,-251.69"/>
</a>
</g>
<text text-anchor="middle" x="256.5" y="-231.8" font-family="Times,serif" font-size="14.00">1</text>
</g>
<!-- !d15&#45;&gt;!c16 -->
<g id="edge38" class="edge">
<title>!d15&#45;&gt;!c16</title>
<g id="a_edge38"><a xlink:title="yA43">
<path fill="none" stroke="blue" d="M281.47,-163.66C284.15,-150.25 287.29,-134.53 289.62,-122.89"/>
<polygon fill="blue" stroke="blue" points="277.97,-163.31 279.44,-173.8 284.83,-164.68 277.97,-163.31"/>
</a>
</g>
<text text-anchor="middle" x="288.5" y="-144.8" font-family="Times,serif" font-size="14.00">1</text>
</g>
<!-- λ17 -->
<g id="node18" class="node">
<title>λ17</title>
<ellipse fill="none" stroke="black" cx="265" cy="-439" rx="27" ry="18"/>
<text text-anchor="middle" x="265" y="-435.3" font-family="Times,serif" font-size="14.00">λ</text>
</g>
<!-- !c16&#45;&gt;λ17 -->
<g id="edge37" class="edge">
<title>!c16&#45;&gt;λ17</title>
<g id="a_edge37"><a xlink:title="y41">
<path fill="none" stroke="blue" d="M310.07,-129.78C320.17,-146.17 331,-168.91 331,-191 331,-353 331,-353 331,-353 331,-384.2 302.91,-410.87 283.38,-425.64"/>
<polygon fill="blue" stroke="blue" points="312.99,-127.85 304.61,-121.37 307.12,-131.67 312.99,-127.85"/>
</a>
</g>
</g>
<!-- λ17&#45;&gt;I13 -->
<g id="edge27" class="edge">
<title>λ17&#45;&gt;I13</title>
<g id="a_edge27"><a xlink:title="ret42">
<path fill="none" stroke="red" d="M265,-420.8C265,-409.16 265,-393.55 265,-380.24"/>
<polygon fill="red" stroke="red" points="268.5,-380.18 265,-370.18 261.5,-380.18 268.5,-380.18"/>
</a>
</g>
</g>
<!-- Cut18&#45;&gt;λ17 -->
<g id="edge30" class="edge">
<title>Cut18&#45;&gt;λ17</title>
<g id="a_edge30"><a xlink:title="rval39">
<path fill="none" stroke="red" d="M265,-507.8C265,-496.16 265,-480.55 265,-467.24"/>
<polygon fill="red" stroke="red" points="268.5,-467.18 265,-457.18 261.5,-467.18 268.5,-467.18"/>
</a>
</g>
</g>
<!-- λ19&#45;&gt;I8 -->
<g id="edge26" class="edge">
<title>λ19&#45;&gt;I8</title>
<g id="a_edge26"><a xlink:title="ret35">
<path fill="none" stroke="red" d="M324,-754.8C324,-743.16 324,-727.55 324,-714.24"/>
<polygon fill="red" stroke="red" points="327.5,-714.18 324,-704.18 320.5,-714.18 327.5,-714.18"/>
</a>
</g>
</g>
<!-- !p20 -->
<g id="node21" class="node">
<title>!p20</title>
<ellipse fill="none" stroke="black" cx="336" cy="-869.4" rx="27" ry="18"/>
<text text-anchor="middle" x="336" y="-865.7" font-family="Times,serif" font-size="14.00">!p</text>
</g>
<!-- !p20&#45;&gt;λ19 -->
<g id="edge21" class="edge">
<title>!p20&#45;&gt;λ19</title>
<g id="a_edge21"><a xlink:title="newrretf31">
<path fill="none" stroke="red" d="M333.8,-851.08C332.04,-837.25 329.54,-817.58 327.51,-801.58"/>
<polygon fill="red" stroke="red" points="330.92,-800.68 326.19,-791.2 323.98,-801.57 330.92,-800.68"/>
</a>
</g>
<text text-anchor="middle" x="333.5" y="-812.8" font-family="Times,serif" font-size="14.00">1</text>
</g>
<!-- I21 -->
<g id="node22" class="node">
<title>I21</title>
<ellipse fill="none" stroke="black" cx="336" cy="-1052.8" rx="27" ry="18"/>
<text text-anchor="middle" x="336" y="-1049.1" font-family="Times,serif" font-size="14.00">I</text>
</g>
<!-- @22 -->
<g id="node23" class="node">
<title>@22</title>
<ellipse fill="none" stroke="black" cx="336" cy="-965.8" rx="27" ry="18"/>
<text text-anchor="middle" x="336" y="-962.1" font-family="Times,serif" font-size="14.00">@</text>
</g>
<!-- I21&#45;&gt;@22 -->
<g id="edge6" class="edge">
<title>I21&#45;&gt;@22</title>
<g id="a_edge6"><a xlink:title="lret28">
<path fill="none" stroke="blue" d="M336,-1024.53C336,-1011.22 336,-995.6 336,-983.97"/>
<polygon fill="blue" stroke="blue" points="332.5,-1024.59 336,-1034.59 339.5,-1024.59 332.5,-1024.59"/>
</a>
</g>
</g>
<!-- @22&#45;&gt;!p20 -->
<g id="edge16" class="edge">
<title>@22&#45;&gt;!p20</title>
<g id="a_edge16"><a xlink:title="newrret27">
<path fill="none" stroke="red" d="M336,-947.48C336,-933.64 336,-913.98 336,-897.98"/>
<polygon fill="red" stroke="red" points="339.5,-897.6 336,-887.6 332.5,-897.6 339.5,-897.6"/>
</a>
</g>
<text text-anchor="middle" x="339.5" y="-918.6" font-family="Times,serif" font-size="14.00">0</text>
</g>
<!-- Cut31 -->
<g id="node32" class="node">
<title>Cut31</title>
<ellipse fill="none" stroke="black" cx="408" cy="-869.4" rx="23.31" ry="23.31"/>
<ellipse fill="none" stroke="black" cx="408" cy="-869.4" rx="27.3" ry="27.3"/>
<text text-anchor="middle" x="408" y="-865.7" font-family="Times,serif" font-size="14.00">Cut</text>
</g>
<!-- @22&#45;&gt;Cut31 -->
<g id="edge12" class="edge">
<title>@22&#45;&gt;Cut31</title>
<g id="a_edge12"><a xlink:title="lval4">
<path fill="none" stroke="blue" d="M354.27,-940.85C365.83,-925.69 380.64,-906.27 391.78,-891.66"/>
<polygon fill="blue" stroke="blue" points="351.17,-939.13 347.89,-949.21 356.74,-943.38 351.17,-939.13"/>
</a>
</g>
</g>
<!-- I23 -->
<g id="node24" class="node">
<title>I23</title>
<ellipse fill="none" stroke="black" cx="341" cy="-439" rx="27" ry="18"/>
<text text-anchor="middle" x="341" y="-435.3" font-family="Times,serif" font-size="14.00">I</text>
</g>
<!-- !d24 -->
<g id="node25" class="node">
<title>!d24</title>
<ellipse fill="none" stroke="black" cx="386" cy="-352" rx="27" ry="18"/>
<text text-anchor="middle" x="386" y="-348.3" font-family="Times,serif" font-size="14.00">!d</text>
</g>
<!-- I23&#45;&gt;!d24 -->
<g id="edge36" class="edge">
<title>I23&#45;&gt;!d24</title>
<g id="a_edge36"><a xlink:title="xret26">
<path fill="none" stroke="blue" d="M354.51,-412.49C361.92,-398.49 370.88,-381.56 377.35,-369.34"/>
<polygon fill="blue" stroke="blue" points="351.26,-411.14 349.68,-421.61 357.45,-414.41 351.26,-411.14"/>
</a>
</g>
<text text-anchor="middle" x="369.5" y="-391.8" font-family="Times,serif" font-size="14.00">1</text>
</g>
<!-- !p25 -->
<g id="node26" class="node">
<title>!p25</title>
<ellipse fill="none" stroke="black" cx="364" cy="-526" rx="27" ry="18"/>
<text text-anchor="middle" x="364" y="-522.3" font-family="Times,serif" font-size="14.00">!p</text>
</g>
<!-- !d24&#45;&gt;!p25 -->
<g id="edge35" class="edge">
<title>!d24&#45;&gt;!p25</title>
<g id="a_edge35"><a xlink:title="xBf22">
<path fill="none" stroke="blue" d="M384.42,-380.12C383.01,-401.16 380.6,-431.01 377,-457 374.58,-474.5 370.65,-494.33 367.75,-508.03"/>
<polygon fill="blue" stroke="blue" points="387.92,-380.2 385.07,-369.99 380.93,-379.75 387.92,-380.2"/>
</a>
</g>
<text text-anchor="middle" x="384.5" y="-435.3" font-family="Times,serif" font-size="14.00">0</text>
</g>
<!-- !p25&#45;&gt;I23 -->
<g id="edge20" class="edge">
<title>!p25&#45;&gt;I23</title>
<g id="a_edge20"><a xlink:title="newrretf23">
<path fill="none" stroke="red" d="M359.46,-508.21C356.24,-496.33 351.87,-480.17 348.19,-466.56"/>
<polygon fill="red" stroke="red" points="351.53,-465.5 345.53,-456.76 344.77,-467.33 351.53,-465.5"/>
</a>
</g>
<text text-anchor="middle" x="356.5" y="-478.8" font-family="Times,serif" font-size="14.00">1</text>
</g>
<!-- !c29 -->
<g id="node30" class="node">
<title>!c29</title>
<ellipse fill="none" stroke="black" cx="467" cy="-439" rx="27" ry="18"/>
<text text-anchor="middle" x="467" y="-435.3" font-family="Times,serif" font-size="14.00">!c</text>
</g>
<!-- !p25&#45;&gt;!c29 -->
<g id="edge34" class="edge">
<title>!p25&#45;&gt;!c29</title>
<g id="a_edge34"><a xlink:title="xB10">
<path fill="none" stroke="blue" d="M391.43,-507.39C399.24,-502.06 407.62,-496.01 415,-490 425.62,-481.35 436.66,-470.96 445.82,-461.9"/>
<polygon fill="blue" stroke="blue" points="389.31,-504.6 382.94,-513.07 393.2,-510.42 389.31,-504.6"/>
<polygon fill="blue" stroke="blue" points="455.5,-457.14 445.96,-461.76 450.54,-452.2 455.5,-457.14"/>
</a>
</g>
<text text-anchor="middle" x="434.5" y="-478.8" font-family="Times,serif" font-size="14.00">0</text>
</g>
<!-- I26 -->
<g id="node27" class="node">
<title>I26</title>
<ellipse fill="none" stroke="black" cx="408" cy="-686" rx="27" ry="18"/>
<text text-anchor="middle" x="408" y="-682.3" font-family="Times,serif" font-size="14.00">I</text>
</g>
<!-- @27 -->
<g id="node28" class="node">
<title>@27</title>
<ellipse fill="none" stroke="black" cx="383" cy="-613" rx="27" ry="18"/>
<text text-anchor="middle" x="383" y="-609.3" font-family="Times,serif" font-size="14.00">@</text>
</g>
<!-- I26&#45;&gt;@27 -->
<g id="edge5" class="edge">
<title>I26&#45;&gt;@27</title>
<g id="a_edge5"><a xlink:title="lret19">
<path fill="none" stroke="blue" d="M398.68,-658.54C395.4,-649.21 391.8,-639 388.88,-630.71"/>
<polygon fill="blue" stroke="blue" points="395.45,-659.9 402.08,-668.17 402.06,-657.58 395.45,-659.9"/>
</a>
</g>
</g>
<!-- @27&#45;&gt;!p25 -->
<g id="edge15" class="edge">
<title>@27&#45;&gt;!p25</title>
<g id="a_edge15"><a xlink:title="newrret18">
<path fill="none" stroke="red" d="M379.16,-594.8C376.54,-583.09 373.02,-567.34 370.03,-553.97"/>
<polygon fill="red" stroke="red" points="373.37,-552.88 367.77,-543.89 366.54,-554.41 373.37,-552.88"/>
</a>
</g>
<text text-anchor="middle" x="377.5" y="-565.8" font-family="Times,serif" font-size="14.00">0</text>
</g>
<!-- !d28 -->
<g id="node29" class="node">
<title>!d28</title>
<ellipse fill="none" stroke="black" cx="436" cy="-526" rx="27" ry="18"/>
<text text-anchor="middle" x="436" y="-522.3" font-family="Times,serif" font-size="14.00">!d</text>
</g>
<!-- @27&#45;&gt;!d28 -->
<g id="edge10" class="edge">
<title>@27&#45;&gt;!d28</title>
<g id="a_edge10"><a xlink:title="lval14">
<path fill="none" stroke="blue" d="M398.48,-587.18C407.38,-572.89 418.32,-555.36 426.08,-542.92"/>
<polygon fill="blue" stroke="blue" points="395.29,-585.67 392.97,-596.01 401.23,-589.38 395.29,-585.67"/>
</a>
</g>
<text text-anchor="middle" x="415.5" y="-565.8" font-family="Times,serif" font-size="14.00">0</text>
</g>
<!-- !d28&#45;&gt;!c29 -->
<g id="edge33" class="edge">
<title>!d28&#45;&gt;!c29</title>
<g id="a_edge33"><a xlink:title="xA9">
<path fill="none" stroke="blue" d="M445.55,-498.8C450.55,-485.1 456.52,-468.74 460.89,-456.76"/>
<polygon fill="blue" stroke="blue" points="442.26,-497.61 442.12,-508.21 448.84,-500.01 442.26,-497.61"/>
</a>
</g>
<text text-anchor="middle" x="456.5" y="-478.8" font-family="Times,serif" font-size="14.00">0</text>
</g>
<!-- λ30 -->
<g id="node31" class="node">
<title>λ30</title>
<ellipse fill="none" stroke="black" cx="408" cy="-773" rx="27" ry="18"/>
<text text-anchor="middle" x="408" y="-769.3" font-family="Times,serif" font-size="14.00">λ</text>
</g>
<!-- !c29&#45;&gt;λ30 -->
<g id="edge32" class="edge">
<title>!c29&#45;&gt;λ30</title>
<g id="a_edge32"><a xlink:title="x7">
<path fill="none" stroke="blue" d="M478.37,-466.07C484.57,-482.63 491,-504.68 491,-525 491,-687 491,-687 491,-687 491,-722.27 453.97,-748.35 429.37,-761.78"/>
<polygon fill="blue" stroke="blue" points="481.53,-464.55 474.59,-456.54 475.02,-467.13 481.53,-464.55"/>
</a>
</g>
</g>
<!-- λ30&#45;&gt;I26 -->
<g id="edge28" class="edge">
<title>λ30&#45;&gt;I26</title>
<g id="a_edge28"><a xlink:title="ret8">
<path fill="none" stroke="red" d="M408,-754.8C408,-743.16 408,-727.55 408,-714.24"/>
<polygon fill="red" stroke="red" points="411.5,-714.18 408,-704.18 404.5,-714.18 411.5,-714.18"/>
</a>
</g>
</g>
<!-- Cut31&#45;&gt;λ30 -->
<g id="edge31" class="edge">
<title>Cut31&#45;&gt;λ30</title>
<g id="a_edge31"><a xlink:title="rval5">
<path fill="none" stroke="red" stroke-width="2" d="M408,-841.85C408,-829.16 408,-813.98 408,-801.2"/>
<polygon fill="red" stroke="red" stroke-width="2" points="411.5,-801.13 408,-791.13 404.5,-801.13 411.5,-801.13"/>
</a>
</g>
</g>
<!-- Assign32 -->
<g id="node33" class="node">
<title>Assign32</title>
<ellipse fill="none" stroke="black" cx="336" cy="-1125.8" rx="35.19" ry="18"/>
<text text-anchor="middle" x="336" y="-1122.1" font-family="Times,serif" font-size="14.00">Assign</text>
</g>
<!-- Assign32&#45;&gt;I21 -->
<g id="edge25" class="edge">
<title>Assign32&#45;&gt;I21</title>
<g id="a_edge25"><a xlink:title="ret1">
<path fill="none" stroke="red" d="M336,-1107.61C336,-1099.59 336,-1089.84 336,-1080.86"/>
<polygon fill="red" stroke="red" points="339.5,-1080.82 336,-1070.82 332.5,-1080.82 339.5,-1080.82"/>
</a>
</g>
</g>
</g>
</svg>
