<?xml version="1.0" encoding="UTF-8" standalone="no"?>
<!DOCTYPE svg PUBLIC "-//W3C//DTD SVG 1.1//EN"
 "http://www.w3.org/Graphics/SVG/1.1/DTD/svg11.dtd">
<!-- Generated by graphviz version 2.49.3 (0)
 -->
<!-- Pages: 1 -->
<svg width="567pt" height="1166pt"
 viewBox="0.00 0.00 566.69 1165.80" xmlns="http://www.w3.org/2000/svg" xmlns:xlink="http://www.w3.org/1999/xlink">
<g id="graph0" class="graph" transform="scale(1 1) rotate(0) translate(4 1161.8)">
<polygon fill="white" stroke="transparent" points="-4,4 -4,-1161.8 562.69,-1161.8 562.69,4 -4,4"/>
<!-- Identity0 -->
<g id="node1" class="node">
<title>Identity0</title>
<ellipse fill="none" stroke="black" cx="135.35" cy="-1139.8" rx="38.19" ry="18"/>
<text text-anchor="middle" x="135.35" y="-1136.1" font-family="Times,serif" font-size="14.00">Identity</text>
</g>
<!-- BangD1 -->
<g id="node2" class="node">
<title>BangD1</title>
<ellipse fill="none" stroke="black" cx="135.35" cy="-1052.8" rx="36" ry="18"/>
<text text-anchor="middle" x="135.35" y="-1049.1" font-family="Times,serif" font-size="14.00">BangD</text>
</g>
<!-- BangD1&#45;&gt;Identity0 -->
<g id="edge26" class="edge">
<title>BangD1&#45;&gt;Identity0</title>
<g id="a_edge26"><a xlink:title="iret84">
<path fill="none" stroke="blue" d="M119.52,-1068.95C111.45,-1078.56 104.14,-1091.47 108.35,-1103.8 109.65,-1107.61 111.55,-1111.33 113.75,-1114.84"/>
<polygon fill="blue" stroke="blue" points="110.98,-1116.98 119.68,-1123.04 116.66,-1112.89 110.98,-1116.98"/>
</a>
</g>
<text text-anchor="middle" x="111.85" y="-1092.6" font-family="Times,serif" font-size="14.00">3</text>
</g>
<!-- BangD1&#45;&gt;Identity0 -->
<g id="edge27" class="edge">
<title>BangD1&#45;&gt;Identity0</title>
<g id="a_edge27"><a xlink:title="iseq83">
<path fill="none" stroke="black" d="M135.35,-1071C135.35,-1082.63 135.35,-1098.25 135.35,-1111.56"/>
<polygon fill="black" stroke="black" points="131.85,-1111.62 135.35,-1121.62 138.85,-1111.62 131.85,-1111.62"/>
</a>
</g>
<text text-anchor="middle" x="138.85" y="-1092.6" font-family="Times,serif" font-size="14.00">3</text>
</g>
<!-- PiR2 -->
<g id="node3" class="node">
<title>PiR2</title>
<ellipse fill="none" stroke="black" cx="135.35" cy="-965.8" rx="27" ry="18"/>
<text text-anchor="middle" x="135.35" y="-962.1" font-family="Times,serif" font-size="14.00">PiR</text>
</g>
<!-- PiR2&#45;&gt;Identity0 -->
<g id="edge52" class="edge">
<title>PiR2&#45;&gt;Identity0</title>
<g id="a_edge52"><a xlink:title="ret82">
<path fill="none" stroke="red" d="M148.96,-981.66C159.83,-994.61 174.23,-1014.46 180.35,-1034.8 184.96,-1050.12 184.96,-1055.47 180.35,-1070.8 175.51,-1086.88 165.49,-1102.66 156.13,-1114.96"/>
<polygon fill="red" stroke="red" points="153.32,-1112.88 149.83,-1122.88 158.8,-1117.23 153.32,-1112.88"/>
</a>
</g>
</g>
<!-- PiR2&#45;&gt;BangD1 -->
<g id="edge20" class="edge">
<title>PiR2&#45;&gt;BangD1</title>
<g id="a_edge20"><a xlink:title="i81">
<path fill="none" stroke="blue" d="M120.26,-981.08C111.91,-990.78 104.02,-1004.1 108.35,-1016.8 109.67,-1020.69 111.63,-1024.49 113.89,-1028.06"/>
<polygon fill="blue" stroke="blue" points="111.24,-1030.37 119.96,-1036.39 116.9,-1026.25 111.24,-1030.37"/>
</a>
</g>
<text text-anchor="middle" x="111.85" y="-1005.6" font-family="Times,serif" font-size="14.00">3</text>
</g>
<!-- PiR2&#45;&gt;BangD1 -->
<g id="edge62" class="edge">
<title>PiR2&#45;&gt;BangD1</title>
<g id="a_edge62"><a xlink:title="seq80">
<path fill="none" stroke="black" d="M135.35,-984C135.35,-995.63 135.35,-1011.25 135.35,-1024.56"/>
<polygon fill="black" stroke="black" points="131.85,-1024.62 135.35,-1034.62 138.85,-1024.62 131.85,-1024.62"/>
</a>
</g>
<text text-anchor="middle" x="138.85" y="-1005.6" font-family="Times,serif" font-size="14.00">3</text>
</g>
<!-- Bang3 -->
<g id="node4" class="node">
<title>Bang3</title>
<ellipse fill="none" stroke="black" cx="135.35" cy="-878.8" rx="29.5" ry="18"/>
<text text-anchor="middle" x="135.35" y="-875.1" font-family="Times,serif" font-size="14.00">Bang</text>
</g>
<!-- Bang3&#45;&gt;PiR2 -->
<g id="edge5" class="edge">
<title>Bang3&#45;&gt;PiR2</title>
<g id="a_edge5"><a xlink:title="c_bseq79">
<path fill="none" stroke="black" d="M135.35,-897C135.35,-908.63 135.35,-924.25 135.35,-937.56"/>
<polygon fill="black" stroke="black" points="131.85,-937.62 135.35,-947.62 138.85,-937.62 131.85,-937.62"/>
</a>
</g>
<text text-anchor="middle" x="138.85" y="-918.6" font-family="Times,serif" font-size="14.00">3</text>
</g>
<!-- Bang3&#45;&gt;PiR2 -->
<g id="edge47" class="edge">
<title>Bang3&#45;&gt;PiR2</title>
<g id="a_edge47"><a xlink:title="newrretf78">
<path fill="none" stroke="red" d="M128.91,-896.64C127.05,-902.32 125.27,-908.75 124.35,-914.8 123.16,-922.53 124.09,-930.85 125.82,-938.45"/>
<polygon fill="red" stroke="red" points="122.49,-939.54 128.55,-948.23 129.23,-937.66 122.49,-939.54"/>
</a>
</g>
<text text-anchor="middle" x="127.85" y="-918.6" font-family="Times,serif" font-size="14.00">3</text>
</g>
<!-- Identity4 -->
<g id="node5" class="node">
<title>Identity4</title>
<ellipse fill="none" stroke="black" cx="49.35" cy="-878.8" rx="38.19" ry="18"/>
<text text-anchor="middle" x="49.35" y="-875.1" font-family="Times,serif" font-size="14.00">Identity</text>
</g>
<!-- PiL5 -->
<g id="node6" class="node">
<title>PiL5</title>
<ellipse fill="none" stroke="black" cx="124.35" cy="-791.8" rx="27" ry="18"/>
<text text-anchor="middle" x="124.35" y="-788.1" font-family="Times,serif" font-size="14.00">PiL</text>
</g>
<!-- PiL5&#45;&gt;Bang3 -->
<g id="edge16" class="edge">
<title>PiL5&#45;&gt;Bang3</title>
<g id="a_edge16"><a xlink:title="dseq76">
<path fill="none" stroke="black" d="M124.68,-809.99C125.04,-819.67 125.79,-831.95 127.35,-842.8 127.73,-845.48 128.22,-848.26 128.76,-851.03"/>
<polygon fill="black" stroke="black" points="125.34,-851.78 130.87,-860.81 132.18,-850.3 125.34,-851.78"/>
</a>
</g>
<text text-anchor="middle" x="130.85" y="-831.6" font-family="Times,serif" font-size="14.00">2</text>
</g>
<!-- PiL5&#45;&gt;Bang3 -->
<g id="edge42" class="edge">
<title>PiL5&#45;&gt;Bang3</title>
<g id="a_edge42"><a xlink:title="newrret74">
<path fill="none" stroke="red" d="M128.82,-809.78C130.16,-815.47 131.5,-821.87 132.35,-827.8 133.39,-835.08 134.07,-843.02 134.52,-850.38"/>
<polygon fill="red" stroke="red" points="131.03,-850.78 135.01,-860.6 138.02,-850.44 131.03,-850.78"/>
</a>
</g>
<text text-anchor="middle" x="137.85" y="-831.6" font-family="Times,serif" font-size="14.00">2</text>
</g>
<!-- PiL5&#45;&gt;Identity4 -->
<g id="edge25" class="edge">
<title>PiL5&#45;&gt;Identity4</title>
<g id="a_edge25"><a xlink:title="idseq77">
<path fill="none" stroke="black" d="M100.44,-813.24C88.77,-825.26 75.19,-840.54 64.85,-853.21"/>
<polygon fill="black" stroke="black" points="110.05,-808.55 100.51,-813.17 105.08,-803.61 110.05,-808.55"/>
<polygon fill="black" stroke="black" points="62.06,-851.1 58.58,-861.1 67.54,-855.45 62.06,-851.1"/>
</a>
</g>
</g>
<!-- PiL5&#45;&gt;Identity4 -->
<g id="edge32" class="edge">
<title>PiL5&#45;&gt;Identity4</title>
<g id="a_edge32"><a xlink:title="lret75">
<path fill="none" stroke="blue" d="M115.34,-809.18C105.19,-822.41 88.84,-841.15 74.84,-855.7"/>
<polygon fill="blue" stroke="blue" points="72.3,-853.3 67.79,-862.88 77.29,-858.2 72.3,-853.3"/>
</a>
</g>
</g>
<!-- BangD6 -->
<g id="node7" class="node">
<title>BangD6</title>
<ellipse fill="none" stroke="black" cx="124.35" cy="-695.4" rx="36" ry="18"/>
<text text-anchor="middle" x="124.35" y="-691.7" font-family="Times,serif" font-size="14.00">BangD</text>
</g>
<!-- BangD6&#45;&gt;PiL5 -->
<g id="edge19" class="edge">
<title>BangD6&#45;&gt;PiL5</title>
<g id="a_edge19"><a xlink:title="hseq72">
<path fill="none" stroke="black" d="M124.35,-713.71C124.35,-727.55 124.35,-747.21 124.35,-763.21"/>
<polygon fill="black" stroke="black" points="120.85,-763.59 124.35,-773.59 127.85,-763.59 120.85,-763.59"/>
</a>
</g>
<text text-anchor="middle" x="127.85" y="-744.6" font-family="Times,serif" font-size="14.00">2</text>
</g>
<!-- BangD6&#45;&gt;PiL5 -->
<g id="edge37" class="edge">
<title>BangD6&#45;&gt;PiL5</title>
<g id="a_edge37"><a xlink:title="lval70">
<path fill="none" stroke="blue" d="M128.85,-713.27C131.47,-725.15 133.97,-741.42 132.35,-755.8 132.04,-758.49 131.61,-761.28 131.1,-764.05"/>
<polygon fill="blue" stroke="blue" points="127.68,-763.33 129.03,-773.84 134.53,-764.78 127.68,-763.33"/>
</a>
</g>
<text text-anchor="middle" x="136.85" y="-744.6" font-family="Times,serif" font-size="14.00">2</text>
</g>
<!-- Bang7 -->
<g id="node8" class="node">
<title>Bang7</title>
<ellipse fill="none" stroke="black" cx="124.35" cy="-599" rx="29.5" ry="18"/>
<text text-anchor="middle" x="124.35" y="-595.3" font-family="Times,serif" font-size="14.00">Bang</text>
</g>
<!-- Bang7&#45;&gt;Identity4 -->
<g id="edge46" class="edge">
<title>Bang7&#45;&gt;Identity4</title>
<g id="a_edge46"><a xlink:title="newrretf66">
<path fill="none" stroke="red" d="M111.26,-615.37C100.86,-628.48 86.84,-648.28 79.35,-668 55.64,-730.35 50.47,-809.61 49.46,-850.56"/>
<polygon fill="red" stroke="red" points="45.96,-850.52 49.28,-860.58 52.96,-850.64 45.96,-850.52"/>
</a>
</g>
<text text-anchor="middle" x="63.85" y="-744.6" font-family="Times,serif" font-size="14.00">2</text>
</g>
<!-- Bang7&#45;&gt;BangD6 -->
<g id="edge4" class="edge">
<title>Bang7&#45;&gt;BangD6</title>
<g id="a_edge4"><a xlink:title="c_bseq67">
<path fill="none" stroke="black" d="M124.35,-617.31C124.35,-631.15 124.35,-650.81 124.35,-666.82"/>
<polygon fill="black" stroke="black" points="120.85,-667.19 124.35,-677.19 127.85,-667.19 120.85,-667.19"/>
</a>
</g>
<text text-anchor="middle" x="127.85" y="-638.8" font-family="Times,serif" font-size="14.00">2</text>
</g>
<!-- Bang7&#45;&gt;BangD6 -->
<g id="edge18" class="edge">
<title>Bang7&#45;&gt;BangD6</title>
<g id="a_edge18"><a xlink:title="hf65">
<path fill="none" stroke="blue" d="M117.91,-616.84C116.05,-622.52 114.27,-628.96 113.35,-635 111.71,-645.69 113.17,-657.42 115.51,-667.6"/>
<polygon fill="blue" stroke="blue" points="112.21,-668.79 118.17,-677.55 118.97,-666.98 112.21,-668.79"/>
</a>
</g>
<text text-anchor="middle" x="116.85" y="-638.8" font-family="Times,serif" font-size="14.00">1</text>
</g>
<!-- Identity8 -->
<g id="node9" class="node">
<title>Identity8</title>
<ellipse fill="none" stroke="black" cx="38.35" cy="-599" rx="38.19" ry="18"/>
<text text-anchor="middle" x="38.35" y="-595.3" font-family="Times,serif" font-size="14.00">Identity</text>
</g>
<!-- PiL9 -->
<g id="node10" class="node">
<title>PiL9</title>
<ellipse fill="none" stroke="black" cx="108.35" cy="-512" rx="27" ry="18"/>
<text text-anchor="middle" x="108.35" y="-508.3" font-family="Times,serif" font-size="14.00">PiL</text>
</g>
<!-- PiL9&#45;&gt;Bang7 -->
<g id="edge15" class="edge">
<title>PiL9&#45;&gt;Bang7</title>
<g id="a_edge15"><a xlink:title="dseq63">
<path fill="none" stroke="black" d="M109.2,-530.26C109.89,-539.95 111.14,-552.23 113.35,-563 113.9,-565.71 114.59,-568.52 115.34,-571.3"/>
<polygon fill="black" stroke="black" points="112.05,-572.51 118.27,-581.09 118.76,-570.51 112.05,-572.51"/>
</a>
</g>
<text text-anchor="middle" x="116.85" y="-551.8" font-family="Times,serif" font-size="14.00">1</text>
</g>
<!-- PiL9&#45;&gt;Bang7 -->
<g id="edge41" class="edge">
<title>PiL9&#45;&gt;Bang7</title>
<g id="a_edge41"><a xlink:title="newrret61">
<path fill="none" stroke="red" d="M113.78,-529.96C115.44,-535.64 117.15,-542.05 118.35,-548 119.83,-555.34 120.99,-563.36 121.88,-570.79"/>
<polygon fill="red" stroke="red" points="118.4,-571.2 122.96,-580.77 125.36,-570.45 118.4,-571.2"/>
</a>
</g>
<text text-anchor="middle" x="124.85" y="-551.8" font-family="Times,serif" font-size="14.00">1</text>
</g>
<!-- PiL9&#45;&gt;Identity8 -->
<g id="edge24" class="edge">
<title>PiL9&#45;&gt;Identity8</title>
<g id="a_edge24"><a xlink:title="idseq64">
<path fill="none" stroke="black" d="M84.96,-534.19C74.26,-545.98 62.03,-560.72 52.67,-573.06"/>
<polygon fill="black" stroke="black" points="94.55,-529.04 85.17,-533.97 89.42,-524.27 94.55,-529.04"/>
<polygon fill="black" stroke="black" points="49.82,-571.03 46.71,-581.16 55.46,-575.19 49.82,-571.03"/>
</a>
</g>
</g>
<!-- PiL9&#45;&gt;Identity8 -->
<g id="edge31" class="edge">
<title>PiL9&#45;&gt;Identity8</title>
<g id="a_edge31"><a xlink:title="lret62">
<path fill="none" stroke="blue" d="M100.31,-529.39C91.07,-542.41 76.15,-560.78 63.15,-575.24"/>
<polygon fill="blue" stroke="blue" points="60.38,-573.08 56.18,-582.8 65.53,-577.82 60.38,-573.08"/>
</a>
</g>
</g>
<!-- Identity10 -->
<g id="node11" class="node">
<title>Identity10</title>
<ellipse fill="none" stroke="black" cx="307.35" cy="-1052.8" rx="38.19" ry="18"/>
<text text-anchor="middle" x="307.35" y="-1049.1" font-family="Times,serif" font-size="14.00">Identity</text>
</g>
<!-- BangD11 -->
<g id="node12" class="node">
<title>BangD11</title>
<ellipse fill="none" stroke="black" cx="307.35" cy="-965.8" rx="36" ry="18"/>
<text text-anchor="middle" x="307.35" y="-962.1" font-family="Times,serif" font-size="14.00">BangD</text>
</g>
<!-- BangD11&#45;&gt;Identity10 -->
<g id="edge75" class="edge">
<title>BangD11&#45;&gt;Identity10</title>
<g id="a_edge75"><a xlink:title="yret60">
<path fill="none" stroke="blue" d="M312.03,-983.75C313.38,-989.44 314.68,-995.85 315.35,-1001.8 316.19,-1009.28 315.57,-1017.35 314.38,-1024.78"/>
<polygon fill="blue" stroke="blue" points="310.92,-1024.23 312.4,-1034.73 317.79,-1025.6 310.92,-1024.23"/>
</a>
</g>
<text text-anchor="middle" x="319.85" y="-1005.6" font-family="Times,serif" font-size="14.00">2</text>
</g>
<!-- BangD11&#45;&gt;Identity10 -->
<g id="edge77" class="edge">
<title>BangD11&#45;&gt;Identity10</title>
<g id="a_edge77"><a xlink:title="yseq59">
<path fill="none" stroke="black" d="M307.35,-984C307.35,-995.63 307.35,-1011.25 307.35,-1024.56"/>
<polygon fill="black" stroke="black" points="303.85,-1024.62 307.35,-1034.62 310.85,-1024.62 303.85,-1024.62"/>
</a>
</g>
<text text-anchor="middle" x="310.85" y="-1005.6" font-family="Times,serif" font-size="14.00">2</text>
</g>
<!-- Bang12 -->
<g id="node13" class="node">
<title>Bang12</title>
<ellipse fill="none" stroke="black" cx="307.35" cy="-878.8" rx="29.5" ry="18"/>
<text text-anchor="middle" x="307.35" y="-875.1" font-family="Times,serif" font-size="14.00">Bang</text>
</g>
<!-- Bang12&#45;&gt;Identity10 -->
<g id="edge45" class="edge">
<title>Bang12&#45;&gt;Identity10</title>
<g id="a_edge45"><a xlink:title="newrretf57">
<path fill="none" stroke="red" d="M291.66,-894.26C279.12,-906.96 262.49,-926.68 255.35,-947.8 250.22,-962.95 250.22,-968.64 255.35,-983.8 261.05,-1000.66 272.8,-1016.62 283.69,-1028.84"/>
<polygon fill="red" stroke="red" points="281.27,-1031.38 290.65,-1036.3 286.39,-1026.6 281.27,-1031.38"/>
</a>
</g>
<text text-anchor="middle" x="258.85" y="-962.1" font-family="Times,serif" font-size="14.00">2</text>
</g>
<!-- Bang12&#45;&gt;BangD11 -->
<g id="edge3" class="edge">
<title>Bang12&#45;&gt;BangD11</title>
<g id="a_edge3"><a xlink:title="c_bseq58">
<path fill="none" stroke="black" d="M307.35,-897C307.35,-908.63 307.35,-924.25 307.35,-937.56"/>
<polygon fill="black" stroke="black" points="303.85,-937.62 307.35,-947.62 310.85,-937.62 303.85,-937.62"/>
</a>
</g>
<text text-anchor="middle" x="310.85" y="-918.6" font-family="Times,serif" font-size="14.00">2</text>
</g>
<!-- Bang12&#45;&gt;BangD11 -->
<g id="edge73" class="edge">
<title>Bang12&#45;&gt;BangD11</title>
<g id="a_edge73"><a xlink:title="yBf56">
<path fill="none" stroke="blue" d="M312.03,-896.75C313.38,-902.44 314.68,-908.85 315.35,-914.8 316.19,-922.28 315.57,-930.35 314.38,-937.78"/>
<polygon fill="blue" stroke="blue" points="310.92,-937.23 312.4,-947.73 317.79,-938.6 310.92,-937.23"/>
</a>
</g>
<text text-anchor="middle" x="319.85" y="-918.6" font-family="Times,serif" font-size="14.00">1</text>
</g>
<!-- Identity13 -->
<g id="node14" class="node">
<title>Identity13</title>
<ellipse fill="none" stroke="black" cx="221.35" cy="-878.8" rx="38.19" ry="18"/>
<text text-anchor="middle" x="221.35" y="-875.1" font-family="Times,serif" font-size="14.00">Identity</text>
</g>
<!-- PiL14 -->
<g id="node15" class="node">
<title>PiL14</title>
<ellipse fill="none" stroke="black" cx="247.35" cy="-791.8" rx="27" ry="18"/>
<text text-anchor="middle" x="247.35" y="-788.1" font-family="Times,serif" font-size="14.00">PiL</text>
</g>
<!-- PiL14&#45;&gt;Bang12 -->
<g id="edge14" class="edge">
<title>PiL14&#45;&gt;Bang12</title>
<g id="a_edge14"><a xlink:title="dseq54">
<path fill="none" stroke="black" d="M251.57,-810.04C254.6,-820.19 259.39,-832.93 266.35,-842.8 270.24,-848.32 275.19,-853.51 280.31,-858.12"/>
<polygon fill="black" stroke="black" points="278.42,-861.11 288.34,-864.84 282.92,-855.74 278.42,-861.11"/>
</a>
</g>
<text text-anchor="middle" x="269.85" y="-831.6" font-family="Times,serif" font-size="14.00">1</text>
</g>
<!-- PiL14&#45;&gt;Bang12 -->
<g id="edge40" class="edge">
<title>PiL14&#45;&gt;Bang12</title>
<g id="a_edge40"><a xlink:title="newrret52">
<path fill="none" stroke="red" d="M258.35,-808.39C267.26,-821.01 279.97,-839.01 290.21,-853.51"/>
<polygon fill="red" stroke="red" points="287.58,-855.87 296.21,-862.02 293.3,-851.83 287.58,-855.87"/>
</a>
</g>
<text text-anchor="middle" x="284.85" y="-831.6" font-family="Times,serif" font-size="14.00">1</text>
</g>
<!-- PiL14&#45;&gt;Identity13 -->
<g id="edge23" class="edge">
<title>PiL14&#45;&gt;Identity13</title>
<g id="a_edge23"><a xlink:title="idseq55">
<path fill="none" stroke="black" d="M233.35,-818.18C229.54,-828.48 225.87,-840.4 223.26,-850.86"/>
<polygon fill="black" stroke="black" points="240.3,-810.07 233.38,-818.09 233.79,-807.5 240.3,-810.07"/>
<polygon fill="black" stroke="black" points="219.82,-850.19 221.04,-860.71 226.65,-851.73 219.82,-850.19"/>
</a>
</g>
</g>
<!-- PiL14&#45;&gt;Identity13 -->
<g id="edge30" class="edge">
<title>PiL14&#45;&gt;Identity13</title>
<g id="a_edge30"><a xlink:title="lret53">
<path fill="none" stroke="blue" d="M247.63,-810C245.26,-822.02 240.53,-838.29 235.55,-851.88"/>
<polygon fill="blue" stroke="blue" points="232.28,-850.61 231.91,-861.2 238.8,-853.16 232.28,-850.61"/>
</a>
</g>
</g>
<!-- Identity15 -->
<g id="node16" class="node">
<title>Identity15</title>
<ellipse fill="none" stroke="black" cx="404.35" cy="-878.8" rx="38.19" ry="18"/>
<text text-anchor="middle" x="404.35" y="-875.1" font-family="Times,serif" font-size="14.00">Identity</text>
</g>
<!-- BangD16 -->
<g id="node17" class="node">
<title>BangD16</title>
<ellipse fill="none" stroke="black" cx="404.35" cy="-791.8" rx="36" ry="18"/>
<text text-anchor="middle" x="404.35" y="-788.1" font-family="Times,serif" font-size="14.00">BangD</text>
</g>
<!-- BangD16&#45;&gt;Identity15 -->
<g id="edge74" class="edge">
<title>BangD16&#45;&gt;Identity15</title>
<g id="a_edge74"><a xlink:title="yret51">
<path fill="none" stroke="blue" d="M388.52,-807.95C380.45,-817.56 373.14,-830.47 377.35,-842.8 378.65,-846.61 380.55,-850.33 382.75,-853.84"/>
<polygon fill="blue" stroke="blue" points="379.98,-855.98 388.68,-862.04 385.66,-851.89 379.98,-855.98"/>
</a>
</g>
<text text-anchor="middle" x="380.85" y="-831.6" font-family="Times,serif" font-size="14.00">1</text>
</g>
<!-- BangD16&#45;&gt;Identity15 -->
<g id="edge76" class="edge">
<title>BangD16&#45;&gt;Identity15</title>
<g id="a_edge76"><a xlink:title="yseq50">
<path fill="none" stroke="black" d="M404.35,-810C404.35,-821.63 404.35,-837.25 404.35,-850.56"/>
<polygon fill="black" stroke="black" points="400.85,-850.62 404.35,-860.62 407.85,-850.62 400.85,-850.62"/>
</a>
</g>
<text text-anchor="middle" x="407.85" y="-831.6" font-family="Times,serif" font-size="14.00">1</text>
</g>
<!-- Cut17 -->
<g id="node18" class="node">
<title>Cut17</title>
<ellipse fill="none" stroke="black" cx="338.35" cy="-695.4" rx="23.31" ry="23.31"/>
<ellipse fill="none" stroke="black" cx="338.35" cy="-695.4" rx="27.3" ry="27.3"/>
<text text-anchor="middle" x="338.35" y="-691.7" font-family="Times,serif" font-size="14.00">Cut</text>
</g>
<!-- Cut17&#45;&gt;PiL14 -->
<g id="edge8" class="edge">
<title>Cut17&#45;&gt;PiL14</title>
<g id="a_edge8"><a xlink:title="c_lseq46">
<path fill="none" stroke="black" d="M303.7,-710.86C290.37,-718.57 275.97,-728.92 265.35,-740.8 259.17,-747.7 253.9,-756.26 250.14,-764.33"/>
<polygon fill="black" stroke="black" points="314.37,-709.03 303.91,-710.74 311.02,-702.88 314.37,-709.03"/>
<polygon fill="black" stroke="black" points="246.81,-763.22 246.34,-773.8 253.31,-765.82 246.81,-763.22"/>
</a>
</g>
</g>
<!-- Cut17&#45;&gt;PiL14 -->
<g id="edge36" class="edge">
<title>Cut17&#45;&gt;PiL14</title>
<g id="a_edge36"><a xlink:title="lval48">
<path fill="none" stroke="blue" d="M316.99,-712.84C305.99,-720.31 293.08,-729.91 283.35,-740.8 276.42,-748.55 270.61,-758.39 265.56,-767.29"/>
<polygon fill="blue" stroke="blue" points="262.45,-765.67 260.55,-776.09 268.54,-769.13 262.45,-765.67"/>
</a>
</g>
</g>
<!-- Cut17&#45;&gt;Identity15 -->
<g id="edge55" class="edge">
<title>Cut17&#45;&gt;Identity15</title>
<g id="a_edge55"><a xlink:title="rval49">
<path fill="none" stroke="red" stroke-width="2" d="M339.39,-722.94C341.7,-753.87 349.07,-805.5 372.35,-842.8 374.93,-846.94 378.04,-851.05 381.29,-854.91"/>
<polygon fill="red" stroke="red" stroke-width="2" points="378.75,-857.32 388.04,-862.43 383.96,-852.65 378.75,-857.32"/>
</a>
</g>
</g>
<!-- Cut17&#45;&gt;BangD16 -->
<g id="edge11" class="edge">
<title>Cut17&#45;&gt;BangD16</title>
<g id="a_edge11"><a xlink:title="c_rseq47">
<path fill="none" stroke="black" d="M353.65,-718.29C363.71,-732.68 376.89,-751.52 387.28,-766.39"/>
<polygon fill="black" stroke="black" points="384.44,-768.43 393.04,-774.62 390.18,-764.42 384.44,-768.43"/>
</a>
</g>
<text text-anchor="middle" x="382.85" y="-744.6" font-family="Times,serif" font-size="14.00">1</text>
</g>
<!-- BangC18 -->
<g id="node19" class="node">
<title>BangC18</title>
<ellipse fill="none" stroke="black" cx="283.35" cy="-599" rx="35.19" ry="18"/>
<text text-anchor="middle" x="283.35" y="-595.3" font-family="Times,serif" font-size="14.00">BangC</text>
</g>
<!-- BangC18&#45;&gt;Bang12 -->
<g id="edge72" class="edge">
<title>BangC18&#45;&gt;Bang12</title>
<g id="a_edge72"><a xlink:title="yB44">
<path fill="none" stroke="blue" d="M285.72,-627.45C290.33,-680.78 300.44,-797.8 305.01,-850.78"/>
<polygon fill="blue" stroke="blue" points="288.33,-617.08 285.71,-627.34 281.36,-617.68 288.33,-617.08"/>
<polygon fill="blue" stroke="blue" points="301.53,-851.12 305.88,-860.78 308.5,-850.52 301.53,-851.12"/>
</a>
</g>
<text text-anchor="middle" x="300.85" y="-744.6" font-family="Times,serif" font-size="14.00">1</text>
</g>
<!-- BangC18&#45;&gt;BangD16 -->
<g id="edge71" class="edge">
<title>BangC18&#45;&gt;BangD16</title>
<g id="a_edge71"><a xlink:title="yA43">
<path fill="none" stroke="blue" d="M308.01,-612.17C328.83,-623.71 357.81,-643 374.35,-668 393.5,-696.96 400.44,-737.02 402.94,-763.4"/>
<polygon fill="blue" stroke="blue" points="399.46,-763.78 403.75,-773.47 406.44,-763.22 399.46,-763.78"/>
</a>
</g>
<text text-anchor="middle" x="399.85" y="-691.7" font-family="Times,serif" font-size="14.00">1</text>
</g>
<!-- BangC18&#45;&gt;Cut17 -->
<g id="edge60" class="edge">
<title>BangC18&#45;&gt;Cut17</title>
<g id="a_edge60"><a xlink:title="seq45">
<path fill="none" stroke="black" d="M292.93,-616.44C300.34,-629.16 310.82,-647.15 319.85,-662.65"/>
<polygon fill="black" stroke="black" points="316.9,-664.55 324.96,-671.43 322.95,-661.02 316.9,-664.55"/>
</a>
</g>
</g>
<!-- PiR19 -->
<g id="node20" class="node">
<title>PiR19</title>
<ellipse fill="none" stroke="black" cx="218.35" cy="-512" rx="27" ry="18"/>
<text text-anchor="middle" x="218.35" y="-508.3" font-family="Times,serif" font-size="14.00">PiR</text>
</g>
<!-- PiR19&#45;&gt;Identity13 -->
<g id="edge50" class="edge">
<title>PiR19&#45;&gt;Identity13</title>
<g id="a_edge50"><a xlink:title="ret42">
<path fill="none" stroke="red" d="M216.79,-530.09C212.9,-575.63 203.58,-703.65 211.35,-809.8 212.34,-823.33 214.42,-838.25 216.43,-850.66"/>
<polygon fill="red" stroke="red" points="213.03,-851.55 218.15,-860.83 219.93,-850.38 213.03,-851.55"/>
</a>
</g>
</g>
<!-- PiR19&#45;&gt;BangC18 -->
<g id="edge59" class="edge">
<title>PiR19&#45;&gt;BangC18</title>
<g id="a_edge59"><a xlink:title="seq40">
<path fill="none" stroke="black" d="M225.42,-529.39C233.94,-542.5 247.91,-561.01 260.11,-575.51"/>
<polygon fill="black" stroke="black" points="257.47,-577.81 266.66,-583.08 262.77,-573.23 257.47,-577.81"/>
</a>
</g>
</g>
<!-- PiR19&#45;&gt;BangC18 -->
<g id="edge70" class="edge">
<title>PiR19&#45;&gt;BangC18</title>
<g id="a_edge70"><a xlink:title="y41">
<path fill="none" stroke="blue" d="M234.25,-527.04C245.44,-539.49 259.93,-557.98 270.42,-572.97"/>
<polygon fill="blue" stroke="blue" points="267.57,-575 276.08,-581.31 273.36,-571.07 267.57,-575"/>
</a>
</g>
</g>
<!-- Cut20 -->
<g id="node21" class="node">
<title>Cut20</title>
<ellipse fill="none" stroke="black" cx="218.35" cy="-425" rx="27" ry="18"/>
<text text-anchor="middle" x="218.35" y="-421.3" font-family="Times,serif" font-size="14.00">Cut</text>
</g>
<!-- Cut20&#45;&gt;PiL9 -->
<g id="edge7" class="edge">
<title>Cut20&#45;&gt;PiL9</title>
<g id="a_edge7"><a xlink:title="c_lseq36">
<path fill="none" stroke="black" d="M183.31,-434.13C166.36,-439.83 146.81,-448.64 132.35,-461 124.65,-467.58 118.03,-476.38 113.28,-484.77"/>
<polygon fill="black" stroke="black" points="193.97,-434.48 183.38,-434.11 191.89,-427.8 193.97,-434.48"/>
<polygon fill="black" stroke="black" points="110.05,-483.41 108.76,-493.92 116.33,-486.51 110.05,-483.41"/>
</a>
</g>
</g>
<!-- Cut20&#45;&gt;PiL9 -->
<g id="edge34" class="edge">
<title>Cut20&#45;&gt;PiL9</title>
<g id="a_edge34"><a xlink:title="lval38">
<path fill="none" stroke="blue" d="M196.01,-435.31C181.8,-441.01 163.86,-449.46 150.35,-461 141.72,-468.37 134.45,-478.55 128.25,-487.79"/>
<polygon fill="blue" stroke="blue" points="125.25,-485.98 122.63,-496.25 131.08,-489.86 125.25,-485.98"/>
</a>
</g>
</g>
<!-- Cut20&#45;&gt;PiR19 -->
<g id="edge10" class="edge">
<title>Cut20&#45;&gt;PiR19</title>
<g id="a_edge10"><a xlink:title="c_rseq37">
<path fill="none" stroke="black" d="M212.84,-442.79C211.53,-454.55 211.25,-470.52 212.01,-484.04"/>
<polygon fill="black" stroke="black" points="208.55,-484.56 212.85,-494.24 215.52,-483.99 208.55,-484.56"/>
</a>
</g>
</g>
<!-- Cut20&#45;&gt;PiR19 -->
<g id="edge54" class="edge">
<title>Cut20&#45;&gt;PiR19</title>
<g id="a_edge54"><a xlink:title="rval39">
<path fill="none" stroke="red" d="M223.85,-442.79C225.16,-454.55 225.44,-470.52 224.68,-484.04"/>
<polygon fill="red" stroke="red" points="221.17,-483.99 223.85,-494.24 228.15,-484.56 221.17,-483.99"/>
</a>
</g>
</g>
<!-- PiR21 -->
<g id="node22" class="node">
<title>PiR21</title>
<ellipse fill="none" stroke="black" cx="218.35" cy="-338" rx="27" ry="18"/>
<text text-anchor="middle" x="218.35" y="-334.3" font-family="Times,serif" font-size="14.00">PiR</text>
</g>
<!-- PiR21&#45;&gt;Bang7 -->
<g id="edge17" class="edge">
<title>PiR21&#45;&gt;Bang7</title>
<g id="a_edge17"><a xlink:title="h34">
<path fill="none" stroke="blue" d="M208.71,-355.06C200.88,-368.58 189.93,-388.6 182.35,-407 179.14,-414.79 147.29,-521.1 132.2,-571.65"/>
<polygon fill="blue" stroke="blue" points="128.84,-570.67 129.34,-581.25 135.55,-572.67 128.84,-570.67"/>
</a>
</g>
<text text-anchor="middle" x="168.85" y="-464.8" font-family="Times,serif" font-size="14.00">1</text>
</g>
<!-- PiR21&#45;&gt;Identity8 -->
<g id="edge49" class="edge">
<title>PiR21&#45;&gt;Identity8</title>
<g id="a_edge49"><a xlink:title="ret35">
<path fill="none" stroke="red" d="M201.39,-352.55C171.26,-377.48 108.2,-433.6 72.35,-494 58.01,-518.14 48.9,-549.08 43.75,-570.91"/>
<polygon fill="red" stroke="red" points="40.3,-570.31 41.54,-580.83 47.13,-571.83 40.3,-570.31"/>
</a>
</g>
</g>
<!-- PiR21&#45;&gt;Cut20 -->
<g id="edge58" class="edge">
<title>PiR21&#45;&gt;Cut20</title>
<g id="a_edge58"><a xlink:title="seq33">
<path fill="none" stroke="black" d="M218.35,-356.2C218.35,-367.84 218.35,-383.45 218.35,-396.76"/>
<polygon fill="black" stroke="black" points="214.85,-396.82 218.35,-406.82 221.85,-396.82 214.85,-396.82"/>
</a>
</g>
</g>
<!-- Bang22 -->
<g id="node23" class="node">
<title>Bang22</title>
<ellipse fill="none" stroke="black" cx="243.35" cy="-251" rx="29.5" ry="18"/>
<text text-anchor="middle" x="243.35" y="-247.3" font-family="Times,serif" font-size="14.00">Bang</text>
</g>
<!-- Bang22&#45;&gt;PiR21 -->
<g id="edge2" class="edge">
<title>Bang22&#45;&gt;PiR21</title>
<g id="a_edge2"><a xlink:title="c_bseq32">
<path fill="none" stroke="black" d="M231.24,-267.54C227.38,-273.33 223.54,-280.17 221.35,-287 219.03,-294.2 217.95,-302.29 217.52,-309.82"/>
<polygon fill="black" stroke="black" points="214.02,-309.87 217.3,-319.95 221.02,-310.03 214.02,-309.87"/>
</a>
</g>
<text text-anchor="middle" x="224.85" y="-290.8" font-family="Times,serif" font-size="14.00">1</text>
</g>
<!-- Bang22&#45;&gt;PiR21 -->
<g id="edge44" class="edge">
<title>Bang22&#45;&gt;PiR21</title>
<g id="a_edge44"><a xlink:title="newrretf31">
<path fill="none" stroke="red" d="M238.41,-268.79C234.91,-280.67 230.16,-296.83 226.16,-310.44"/>
<polygon fill="red" stroke="red" points="222.74,-309.66 223.28,-320.24 229.46,-311.64 222.74,-309.66"/>
</a>
</g>
<text text-anchor="middle" x="235.85" y="-290.8" font-family="Times,serif" font-size="14.00">1</text>
</g>
<!-- Identity23 -->
<g id="node24" class="node">
<title>Identity23</title>
<ellipse fill="none" stroke="black" cx="329.35" cy="-251" rx="38.19" ry="18"/>
<text text-anchor="middle" x="329.35" y="-247.3" font-family="Times,serif" font-size="14.00">Identity</text>
</g>
<!-- PiL24 -->
<g id="node25" class="node">
<title>PiL24</title>
<ellipse fill="none" stroke="black" cx="329.35" cy="-164" rx="27" ry="18"/>
<text text-anchor="middle" x="329.35" y="-160.3" font-family="Times,serif" font-size="14.00">PiL</text>
</g>
<!-- PiL24&#45;&gt;Bang22 -->
<g id="edge13" class="edge">
<title>PiL24&#45;&gt;Bang22</title>
<g id="a_edge13"><a xlink:title="dseq29">
<path fill="none" stroke="black" d="M305.63,-172.84C291.72,-178.49 274.7,-187.36 263.35,-200 257.39,-206.63 253.1,-215.24 250.06,-223.46"/>
<polygon fill="black" stroke="black" points="246.69,-222.51 246.94,-233.11 253.35,-224.67 246.69,-222.51"/>
</a>
</g>
<text text-anchor="middle" x="266.85" y="-203.8" font-family="Times,serif" font-size="14.00">0</text>
</g>
<!-- PiL24&#45;&gt;Bang22 -->
<g id="edge39" class="edge">
<title>PiL24&#45;&gt;Bang22</title>
<g id="a_edge39"><a xlink:title="newrret27">
<path fill="none" stroke="red" d="M314.76,-179.42C301.25,-192.77 280.97,-212.81 265.47,-228.13"/>
<polygon fill="red" stroke="red" points="262.95,-225.71 258.3,-235.22 267.87,-230.68 262.95,-225.71"/>
</a>
</g>
<text text-anchor="middle" x="295.85" y="-203.8" font-family="Times,serif" font-size="14.00">0</text>
</g>
<!-- PiL24&#45;&gt;Identity23 -->
<g id="edge22" class="edge">
<title>PiL24&#45;&gt;Identity23</title>
<g id="a_edge22"><a xlink:title="idseq30">
<path fill="none" stroke="black" d="M323.02,-191.93C322.46,-201.79 322.46,-212.96 323,-222.85"/>
<polygon fill="black" stroke="black" points="327.33,-182.08 323.03,-191.76 320.35,-181.51 327.33,-182.08"/>
<polygon fill="black" stroke="black" points="319.53,-223.26 323.81,-232.95 326.5,-222.7 319.53,-223.26"/>
</a>
</g>
</g>
<!-- PiL24&#45;&gt;Identity23 -->
<g id="edge29" class="edge">
<title>PiL24&#45;&gt;Identity23</title>
<g id="a_edge29"><a xlink:title="lret28">
<path fill="none" stroke="blue" d="M334.85,-181.79C336.15,-193.48 336.43,-209.31 335.69,-222.78"/>
<polygon fill="blue" stroke="blue" points="332.19,-222.7 334.88,-232.95 339.17,-223.26 332.19,-222.7"/>
</a>
</g>
</g>
<!-- Identity25 -->
<g id="node26" class="node">
<title>Identity25</title>
<ellipse fill="none" stroke="black" cx="464.35" cy="-695.4" rx="38.19" ry="18"/>
<text text-anchor="middle" x="464.35" y="-691.7" font-family="Times,serif" font-size="14.00">Identity</text>
</g>
<!-- BangD26 -->
<g id="node27" class="node">
<title>BangD26</title>
<ellipse fill="none" stroke="black" cx="434.35" cy="-599" rx="36" ry="18"/>
<text text-anchor="middle" x="434.35" y="-595.3" font-family="Times,serif" font-size="14.00">BangD</text>
</g>
<!-- BangD26&#45;&gt;Identity25 -->
<g id="edge67" class="edge">
<title>BangD26&#45;&gt;Identity25</title>
<g id="a_edge67"><a xlink:title="xret26">
<path fill="none" stroke="blue" d="M433.35,-617.03C433.27,-626.88 434.02,-639.38 437.35,-650 439.45,-656.71 442.77,-663.45 446.38,-669.58"/>
<polygon fill="blue" stroke="blue" points="443.44,-671.48 451.76,-678.05 449.35,-667.73 443.44,-671.48"/>
</a>
</g>
<text text-anchor="middle" x="440.85" y="-638.8" font-family="Times,serif" font-size="14.00">1</text>
</g>
<!-- BangD26&#45;&gt;Identity25 -->
<g id="edge69" class="edge">
<title>BangD26&#45;&gt;Identity25</title>
<g id="a_edge69"><a xlink:title="xseq25">
<path fill="none" stroke="black" d="M439.71,-616.88C444.2,-631.02 450.7,-651.46 455.89,-667.8"/>
<polygon fill="black" stroke="black" points="452.56,-668.88 458.93,-677.35 459.24,-666.76 452.56,-668.88"/>
</a>
</g>
<text text-anchor="middle" x="452.85" y="-638.8" font-family="Times,serif" font-size="14.00">1</text>
</g>
<!-- Bang27 -->
<g id="node28" class="node">
<title>Bang27</title>
<ellipse fill="none" stroke="black" cx="434.35" cy="-512" rx="29.5" ry="18"/>
<text text-anchor="middle" x="434.35" y="-508.3" font-family="Times,serif" font-size="14.00">Bang</text>
</g>
<!-- Bang27&#45;&gt;Identity25 -->
<g id="edge43" class="edge">
<title>Bang27&#45;&gt;Identity25</title>
<g id="a_edge43"><a xlink:title="newrretf23">
<path fill="none" stroke="red" d="M448.17,-528.12C459.02,-541.08 473.27,-560.8 479.35,-581 488.07,-609.99 481.09,-644.66 474.01,-667.97"/>
<polygon fill="red" stroke="red" points="470.67,-666.93 470.91,-677.52 477.32,-669.09 470.67,-666.93"/>
</a>
</g>
<text text-anchor="middle" x="486.85" y="-595.3" font-family="Times,serif" font-size="14.00">1</text>
</g>
<!-- Bang27&#45;&gt;BangD26 -->
<g id="edge1" class="edge">
<title>Bang27&#45;&gt;BangD26</title>
<g id="a_edge1"><a xlink:title="c_bseq24">
<path fill="none" stroke="black" d="M434.35,-530.2C434.35,-541.84 434.35,-557.45 434.35,-570.76"/>
<polygon fill="black" stroke="black" points="430.85,-570.82 434.35,-580.82 437.85,-570.82 430.85,-570.82"/>
</a>
</g>
<text text-anchor="middle" x="437.85" y="-551.8" font-family="Times,serif" font-size="14.00">1</text>
</g>
<!-- Bang27&#45;&gt;BangD26 -->
<g id="edge66" class="edge">
<title>Bang27&#45;&gt;BangD26</title>
<g id="a_edge66"><a xlink:title="xBf22">
<path fill="none" stroke="blue" d="M439.03,-529.96C440.38,-535.65 441.68,-542.05 442.35,-548 443.19,-555.48 442.57,-563.55 441.38,-570.98"/>
<polygon fill="blue" stroke="blue" points="437.92,-570.44 439.4,-580.93 444.79,-571.8 437.92,-570.44"/>
</a>
</g>
<text text-anchor="middle" x="445.85" y="-551.8" font-family="Times,serif" font-size="14.00">0</text>
</g>
<!-- Identity28 -->
<g id="node29" class="node">
<title>Identity28</title>
<ellipse fill="none" stroke="black" cx="520.35" cy="-512" rx="38.19" ry="18"/>
<text text-anchor="middle" x="520.35" y="-508.3" font-family="Times,serif" font-size="14.00">Identity</text>
</g>
<!-- PiL29 -->
<g id="node30" class="node">
<title>PiL29</title>
<ellipse fill="none" stroke="black" cx="465.35" cy="-425" rx="27" ry="18"/>
<text text-anchor="middle" x="465.35" y="-421.3" font-family="Times,serif" font-size="14.00">PiL</text>
</g>
<!-- PiL29&#45;&gt;Bang27 -->
<g id="edge12" class="edge">
<title>PiL29&#45;&gt;Bang27</title>
<g id="a_edge12"><a xlink:title="dseq20">
<path fill="none" stroke="black" d="M459.22,-442.79C454.85,-454.78 448.88,-471.15 443.89,-484.84"/>
<polygon fill="black" stroke="black" points="440.6,-483.65 440.46,-494.24 447.17,-486.05 440.6,-483.65"/>
</a>
</g>
<text text-anchor="middle" x="454.85" y="-464.8" font-family="Times,serif" font-size="14.00">0</text>
</g>
<!-- PiL29&#45;&gt;Bang27 -->
<g id="edge38" class="edge">
<title>PiL29&#45;&gt;Bang27</title>
<g id="a_edge38"><a xlink:title="newrret18">
<path fill="none" stroke="red" d="M450.53,-440.38C445.42,-446.25 440.25,-453.45 437.35,-461 434.63,-468.06 433.41,-476.1 432.99,-483.63"/>
<polygon fill="red" stroke="red" points="429.49,-483.74 432.85,-493.79 436.49,-483.84 429.49,-483.74"/>
</a>
</g>
<text text-anchor="middle" x="440.85" y="-464.8" font-family="Times,serif" font-size="14.00">0</text>
</g>
<!-- PiL29&#45;&gt;Identity28 -->
<g id="edge21" class="edge">
<title>PiL29&#45;&gt;Identity28</title>
<g id="a_edge21"><a xlink:title="idseq21">
<path fill="none" stroke="black" d="M475.68,-451.64C482.26,-462.88 490.79,-476.01 498.71,-487.05"/>
<polygon fill="black" stroke="black" points="473.76,-441.08 475.61,-451.51 467.66,-444.51 473.76,-441.08"/>
<polygon fill="black" stroke="black" points="496.12,-489.43 504.88,-495.39 501.74,-485.27 496.12,-489.43"/>
</a>
</g>
</g>
<!-- PiL29&#45;&gt;Identity28 -->
<g id="edge28" class="edge">
<title>PiL29&#45;&gt;Identity28</title>
<g id="a_edge28"><a xlink:title="lret19">
<path fill="none" stroke="blue" d="M479.89,-440.42C489.38,-452.62 501.24,-470.41 509.84,-485.07"/>
<polygon fill="blue" stroke="blue" points="507.01,-487.17 514.96,-494.17 513.11,-483.74 507.01,-487.17"/>
</a>
</g>
</g>
<!-- BangD30 -->
<g id="node31" class="node">
<title>BangD30</title>
<ellipse fill="none" stroke="black" cx="465.35" cy="-338" rx="36" ry="18"/>
<text text-anchor="middle" x="465.35" y="-334.3" font-family="Times,serif" font-size="14.00">BangD</text>
</g>
<!-- BangD30&#45;&gt;PiL29 -->
<g id="edge33" class="edge">
<title>BangD30&#45;&gt;PiL29</title>
<g id="a_edge33"><a xlink:title="lval14">
<path fill="none" stroke="blue" d="M470.03,-355.96C471.38,-361.65 472.68,-368.05 473.35,-374 474.19,-381.48 473.57,-389.55 472.38,-396.98"/>
<polygon fill="blue" stroke="blue" points="468.92,-396.44 470.4,-406.93 475.79,-397.8 468.92,-396.44"/>
</a>
</g>
<text text-anchor="middle" x="476.85" y="-377.8" font-family="Times,serif" font-size="14.00">0</text>
</g>
<!-- BangD30&#45;&gt;PiL29 -->
<g id="edge68" class="edge">
<title>BangD30&#45;&gt;PiL29</title>
<g id="a_edge68"><a xlink:title="xseq16">
<path fill="none" stroke="black" d="M465.35,-356.2C465.35,-367.84 465.35,-383.45 465.35,-396.76"/>
<polygon fill="black" stroke="black" points="461.85,-396.82 465.35,-406.82 468.85,-396.82 461.85,-396.82"/>
</a>
</g>
<text text-anchor="middle" x="468.85" y="-377.8" font-family="Times,serif" font-size="14.00">0</text>
</g>
<!-- BangC31 -->
<g id="node32" class="node">
<title>BangC31</title>
<ellipse fill="none" stroke="black" cx="439.35" cy="-251" rx="35.19" ry="18"/>
<text text-anchor="middle" x="439.35" y="-247.3" font-family="Times,serif" font-size="14.00">BangC</text>
</g>
<!-- BangC31&#45;&gt;Bang27 -->
<g id="edge65" class="edge">
<title>BangC31&#45;&gt;Bang27</title>
<g id="a_edge65"><a xlink:title="xB10">
<path fill="none" stroke="blue" d="M430.13,-278.5C426.28,-290.93 422.26,-306.05 420.35,-320 412.37,-378.16 422.06,-446.96 428.84,-484.05"/>
<polygon fill="blue" stroke="blue" points="436.61,-269.85 430.2,-278.29 429.95,-267.7 436.61,-269.85"/>
<polygon fill="blue" stroke="blue" points="425.43,-484.89 430.74,-494.06 432.31,-483.58 425.43,-484.89"/>
</a>
</g>
<text text-anchor="middle" x="421.85" y="-377.8" font-family="Times,serif" font-size="14.00">0</text>
</g>
<!-- BangC31&#45;&gt;BangD30 -->
<g id="edge57" class="edge">
<title>BangC31&#45;&gt;BangD30</title>
<g id="a_edge57"><a xlink:title="seq11">
<path fill="none" stroke="black" d="M438.22,-269.08C438.09,-278.94 438.84,-291.44 442.35,-302 443.54,-305.59 445.2,-309.17 447.09,-312.59"/>
<polygon fill="black" stroke="black" points="444.18,-314.55 452.44,-321.19 450.12,-310.85 444.18,-314.55"/>
</a>
</g>
<text text-anchor="middle" x="445.85" y="-290.8" font-family="Times,serif" font-size="14.00">0</text>
</g>
<!-- BangC31&#45;&gt;BangD30 -->
<g id="edge64" class="edge">
<title>BangC31&#45;&gt;BangD30</title>
<g id="a_edge64"><a xlink:title="xA9">
<path fill="none" stroke="blue" d="M444.61,-269.2C448.23,-281.03 453.1,-296.97 457.22,-310.42"/>
<polygon fill="blue" stroke="blue" points="453.91,-311.58 460.18,-320.11 460.6,-309.53 453.91,-311.58"/>
</a>
</g>
<text text-anchor="middle" x="456.85" y="-290.8" font-family="Times,serif" font-size="14.00">0</text>
</g>
<!-- PiR32 -->
<g id="node33" class="node">
<title>PiR32</title>
<ellipse fill="none" stroke="black" cx="439.35" cy="-164" rx="27" ry="18"/>
<text text-anchor="middle" x="439.35" y="-160.3" font-family="Times,serif" font-size="14.00">PiR</text>
</g>
<!-- PiR32&#45;&gt;Identity28 -->
<g id="edge51" class="edge">
<title>PiR32&#45;&gt;Identity28</title>
<g id="a_edge51"><a xlink:title="ret8">
<path fill="none" stroke="red" d="M461.59,-174.29C488.25,-187.07 529.35,-212.82 529.35,-250 529.35,-250 529.35,-250 529.35,-426 529.35,-445.36 527.01,-467.05 524.72,-483.68"/>
<polygon fill="red" stroke="red" points="521.22,-483.4 523.24,-493.8 528.15,-484.41 521.22,-483.4"/>
</a>
</g>
</g>
<!-- PiR32&#45;&gt;BangC31 -->
<g id="edge61" class="edge">
<title>PiR32&#45;&gt;BangC31</title>
<g id="a_edge61"><a xlink:title="seq6">
<path fill="none" stroke="black" d="M433.84,-181.79C432.54,-193.48 432.26,-209.31 433,-222.78"/>
<polygon fill="black" stroke="black" points="429.53,-223.26 433.81,-232.95 436.51,-222.7 429.53,-223.26"/>
</a>
</g>
</g>
<!-- PiR32&#45;&gt;BangC31 -->
<g id="edge63" class="edge">
<title>PiR32&#45;&gt;BangC31</title>
<g id="a_edge63"><a xlink:title="x7">
<path fill="none" stroke="blue" d="M444.85,-181.79C446.15,-193.48 446.43,-209.31 445.69,-222.78"/>
<polygon fill="blue" stroke="blue" points="442.19,-222.7 444.88,-232.95 449.17,-223.26 442.19,-222.7"/>
</a>
</g>
</g>
<!-- Cut33 -->
<g id="node34" class="node">
<title>Cut33</title>
<ellipse fill="none" stroke="black" cx="329.35" cy="-91" rx="27" ry="18"/>
<text text-anchor="middle" x="329.35" y="-87.3" font-family="Times,serif" font-size="14.00">Cut</text>
</g>
<!-- Cut33&#45;&gt;PiL24 -->
<g id="edge6" class="edge">
<title>Cut33&#45;&gt;PiL24</title>
<g id="a_edge6"><a xlink:title="c_lseq2">
<path fill="none" stroke="black" d="M322.77,-119.06C322.54,-124.64 322.54,-130.52 322.78,-136.1"/>
<polygon fill="black" stroke="black" points="327,-109.08 322.79,-118.8 320.02,-108.57 327,-109.08"/>
<polygon fill="black" stroke="black" points="319.3,-136.58 323.52,-146.29 326.28,-136.07 319.3,-136.58"/>
</a>
</g>
</g>
<!-- Cut33&#45;&gt;PiL24 -->
<g id="edge35" class="edge">
<title>Cut33&#45;&gt;PiL24</title>
<g id="a_edge35"><a xlink:title="lval4">
<path fill="none" stroke="blue" d="M335.19,-108.83C336.06,-116.96 336.31,-126.92 335.92,-136.08"/>
<polygon fill="blue" stroke="blue" points="332.41,-136.07 335.17,-146.29 339.39,-136.58 332.41,-136.07"/>
</a>
</g>
</g>
<!-- Cut33&#45;&gt;PiR32 -->
<g id="edge9" class="edge">
<title>Cut33&#45;&gt;PiR32</title>
<g id="a_edge9"><a xlink:title="c_rseq3">
<path fill="none" stroke="black" d="M345.1,-105.69C361.95,-117.62 388.68,-134.93 409.47,-147.4"/>
<polygon fill="black" stroke="black" points="407.87,-150.51 418.26,-152.58 411.42,-144.49 407.87,-150.51"/>
</a>
</g>
</g>
<!-- Cut33&#45;&gt;PiR32 -->
<g id="edge56" class="edge">
<title>Cut33&#45;&gt;PiR32</title>
<g id="a_edge56"><a xlink:title="rval5">
<path fill="none" stroke="red" d="M350.53,-102.48C369.14,-113.25 395.9,-130.27 415.27,-143.53"/>
<polygon fill="red" stroke="red" points="413.39,-146.48 423.6,-149.31 417.39,-140.73 413.39,-146.48"/>
</a>
</g>
</g>
<!-- Assign34 -->
<g id="node35" class="node">
<title>Assign34</title>
<ellipse fill="none" stroke="black" cx="329.35" cy="-18" rx="35.19" ry="18"/>
<text text-anchor="middle" x="329.35" y="-14.3" font-family="Times,serif" font-size="14.00">Assign</text>
</g>
<!-- Assign34&#45;&gt;Identity23 -->
<g id="edge48" class="edge">
<title>Assign34&#45;&gt;Identity23</title>
<g id="a_edge48"><a xlink:title="ret1">
<path fill="none" stroke="red" d="M343.47,-34.72C351.6,-44.85 361.04,-58.77 365.35,-73 379.39,-119.37 374.38,-134.41 365.35,-182 362.45,-197.27 354.75,-212.7 347.21,-225"/>
<polygon fill="red" stroke="red" points="344.05,-223.44 341.56,-233.74 349.93,-227.24 344.05,-223.44"/>
</a>
</g>
</g>
<!-- Assign34&#45;&gt;Cut33 -->
<g id="edge53" class="edge">
<title>Assign34&#45;&gt;Cut33</title>
<g id="a_edge53"><a xlink:title="retseq0">
<path fill="none" stroke="black" d="M329.35,-36.19C329.35,-44.21 329.35,-53.95 329.35,-62.93"/>
<polygon fill="black" stroke="black" points="325.85,-62.97 329.35,-72.97 332.85,-62.97 325.85,-62.97"/>
</a>
</g>
</g>
</g>
</svg>
