<?xml version="1.0" encoding="UTF-8" standalone="no"?>
<!DOCTYPE svg PUBLIC "-//W3C//DTD SVG 1.1//EN"
 "http://www.w3.org/Graphics/SVG/1.1/DTD/svg11.dtd">
<!-- Generated by graphviz version 2.43.0 (0)
 -->
<!-- Title: %3 Pages: 1 -->
<svg width="299pt" height="1149pt"
 viewBox="0.00 0.00 299.00 1149.30" xmlns="http://www.w3.org/2000/svg" xmlns:xlink="http://www.w3.org/1999/xlink">
<g id="graph0" class="graph" transform="scale(1 1) rotate(0) translate(4 1145.3)">
<title>%3</title>
<polygon fill="white" stroke="transparent" points="-4,4 -4,-1145.3 295,-1145.3 295,4 -4,4"/>
<!-- Root0 -->
<g id="node1" class="node">
<title>Root0</title>
<ellipse fill="none" stroke="black" cx="37" cy="-1123.3" rx="30.59" ry="18"/>
<text text-anchor="middle" x="37" y="-1119.6" font-family="Times-Roman" font-size="14.00">Root</text>
</g>
<!-- I3 -->
<g id="node15" class="node">
<title>I3</title>
<ellipse fill="none" stroke="black" cx="37" cy="-1051.3" rx="27" ry="18"/>
<text text-anchor="middle" x="37" y="-1047.6" font-family="Times-Roman" font-size="14.00">I</text>
</g>
<!-- Root0&#45;&gt;I3 -->
<g id="edge17" class="edge">
<title>Root0&#45;&gt;I3</title>
<g id="a_edge17"><a xlink:title="rettop">
<path fill="none" stroke="red" stroke-width="2" d="M37,-1104.99C37,-1097.28 37,-1088.01 37,-1079.41"/>
<polygon fill="red" stroke="red" stroke-width="2" points="40.5,-1079.4 37,-1069.4 33.5,-1079.4 40.5,-1079.4"/>
</a>
</g>
</g>
<!-- PiL0 -->
<g id="node2" class="node">
<title>PiL0</title>
<ellipse fill="none" stroke="black" cx="93" cy="-738" rx="27" ry="18"/>
<text text-anchor="middle" x="93" y="-734.3" font-family="Times-Roman" font-size="14.00">PiL</text>
</g>
<!-- !d0 -->
<g id="node3" class="node">
<title>!d0</title>
<ellipse fill="none" stroke="black" cx="165" cy="-666" rx="27" ry="18"/>
<text text-anchor="middle" x="165" y="-662.3" font-family="Times-Roman" font-size="14.00">!d</text>
</g>
<!-- PiL0&#45;&gt;!d0 -->
<g id="edge26" class="edge">
<title>PiL0&#45;&gt;!d0</title>
<g id="a_edge26"><a xlink:title="yl1">
<path fill="none" stroke="blue" d="M115.04,-715.57C126.45,-704.48 140.07,-691.24 150.2,-681.38"/>
<polygon fill="blue" stroke="blue" points="112.3,-713.35 107.57,-722.83 117.18,-718.37 112.3,-713.35"/>
</a>
</g>
</g>
<!-- !p0 -->
<g id="node5" class="node">
<title>!p0</title>
<ellipse fill="none" stroke="black" cx="93" cy="-666" rx="27" ry="18"/>
<text text-anchor="middle" x="93" y="-662.3" font-family="Times-Roman" font-size="14.00">!p</text>
</g>
<!-- PiL0&#45;&gt;!p0 -->
<g id="edge29" class="edge">
<title>PiL0&#45;&gt;!p0</title>
<g id="a_edge29"><a xlink:title="ylp">
<path fill="none" stroke="red" d="M93,-719.7C93,-711.98 93,-702.71 93,-694.11"/>
<polygon fill="red" stroke="red" points="96.5,-694.1 93,-684.1 89.5,-694.1 96.5,-694.1"/>
</a>
</g>
</g>
<!-- !c0 -->
<g id="node4" class="node">
<title>!c0</title>
<ellipse fill="none" stroke="black" cx="165" cy="-594" rx="27" ry="18"/>
<text text-anchor="middle" x="165" y="-590.3" font-family="Times-Roman" font-size="14.00">!c</text>
</g>
<!-- !d0&#45;&gt;!c0 -->
<g id="edge22" class="edge">
<title>!d0&#45;&gt;!c0</title>
<g id="a_edge22"><a xlink:title="y1">
<path fill="none" stroke="blue" d="M165,-637.67C165,-629.05 165,-619.79 165,-612.1"/>
<polygon fill="blue" stroke="blue" points="161.5,-637.7 165,-647.7 168.5,-637.7 161.5,-637.7"/>
</a>
</g>
</g>
<!-- Cut0 -->
<g id="node17" class="node">
<title>Cut0</title>
<ellipse fill="none" stroke="black" cx="165" cy="-522" rx="27" ry="18"/>
<text text-anchor="middle" x="165" y="-518.3" font-family="Times-Roman" font-size="14.00">Cut</text>
</g>
<!-- !c0&#45;&gt;Cut0 -->
<g id="edge21" class="edge">
<title>!c0&#45;&gt;Cut0</title>
<g id="a_edge21"><a xlink:title="y">
<path fill="none" stroke="blue" d="M165,-565.67C165,-557.05 165,-547.79 165,-540.1"/>
<polygon fill="blue" stroke="blue" points="161.5,-565.7 165,-575.7 168.5,-565.7 161.5,-565.7"/>
</a>
</g>
</g>
<!-- !p0&#45;&gt;!c0 -->
<g id="edge23" class="edge">
<title>!p0&#45;&gt;!c0</title>
<g id="a_edge23"><a xlink:title="y2">
<path fill="none" stroke="blue" d="M115.04,-643.57C126.45,-632.48 140.07,-619.24 150.2,-609.38"/>
<polygon fill="blue" stroke="blue" points="112.3,-641.35 107.57,-650.83 117.18,-646.37 112.3,-641.35"/>
</a>
</g>
</g>
<!-- I0 -->
<g id="node6" class="node">
<title>I0</title>
<ellipse fill="none" stroke="black" cx="93" cy="-594" rx="27" ry="18"/>
<text text-anchor="middle" x="93" y="-590.3" font-family="Times-Roman" font-size="14.00">I</text>
</g>
<!-- !p0&#45;&gt;I0 -->
<g id="edge28" class="edge">
<title>!p0&#45;&gt;I0</title>
<g id="a_edge28"><a xlink:title="yli">
<path fill="none" stroke="red" d="M93,-647.7C93,-639.98 93,-630.71 93,-622.11"/>
<polygon fill="red" stroke="red" points="96.5,-622.1 93,-612.1 89.5,-622.1 96.5,-622.1"/>
</a>
</g>
</g>
<!-- !d1 -->
<g id="node7" class="node">
<title>!d1</title>
<ellipse fill="none" stroke="black" cx="74" cy="-522" rx="27" ry="18"/>
<text text-anchor="middle" x="74" y="-518.3" font-family="Times-Roman" font-size="14.00">!d</text>
</g>
<!-- I0&#45;&gt;!d1 -->
<g id="edge27" class="edge">
<title>I0&#45;&gt;!d1</title>
<g id="a_edge27"><a xlink:title="yl2">
<path fill="none" stroke="blue" d="M85.71,-566.14C83.3,-557.28 80.7,-547.68 78.56,-539.79"/>
<polygon fill="blue" stroke="blue" points="82.4,-567.32 88.4,-576.05 89.16,-565.49 82.4,-567.32"/>
</a>
</g>
</g>
<!-- !d1&#45;&gt;!p0 -->
<g id="edge24" class="edge">
<title>!d1&#45;&gt;!p0</title>
<g id="a_edge24"><a xlink:title="yj">
<path fill="none" stroke="blue" d="M62.51,-548.85C56.1,-566.81 50.59,-591.16 57,-612 61.38,-626.25 71.04,-640.1 79.25,-650.07"/>
<polygon fill="blue" stroke="blue" points="65.84,-549.93 66.19,-539.34 59.31,-547.4 65.84,-549.93"/>
</a>
</g>
</g>
<!-- !p1 -->
<g id="node8" class="node">
<title>!p1</title>
<ellipse fill="none" stroke="black" cx="165" cy="-450" rx="27" ry="18"/>
<text text-anchor="middle" x="165" y="-446.3" font-family="Times-Roman" font-size="14.00">!p</text>
</g>
<!-- I1 -->
<g id="node9" class="node">
<title>I1</title>
<ellipse fill="none" stroke="black" cx="220" cy="-378" rx="27" ry="18"/>
<text text-anchor="middle" x="220" y="-374.3" font-family="Times-Roman" font-size="14.00">I</text>
</g>
<!-- !p1&#45;&gt;I1 -->
<g id="edge11" class="edge">
<title>!p1&#45;&gt;I1</title>
<g id="a_edge11"><a xlink:title="hli">
<path fill="none" stroke="red" d="M176.93,-433.81C184.21,-424.55 193.66,-412.52 201.85,-402.09"/>
<polygon fill="red" stroke="red" points="204.66,-404.18 208.09,-394.16 199.16,-399.86 204.66,-404.18"/>
</a>
</g>
</g>
<!-- Dup0_0 -->
<g id="node21" class="node">
<title>Dup0_0</title>
<ellipse fill="none" stroke="black" cx="93" cy="-378" rx="29.5" ry="18"/>
<text text-anchor="middle" x="93" y="-374.3" font-family="Times-Roman" font-size="14.00">Dup</text>
</g>
<!-- !p1&#45;&gt;Dup0_0 -->
<g id="edge5" class="edge">
<title>!p1&#45;&gt;Dup0_0</title>
<g id="a_edge5"><a xlink:title="h">
<path fill="none" stroke="blue" d="M143.01,-427.62C131.68,-416.61 118.17,-403.47 108.04,-393.63"/>
<polygon fill="blue" stroke="blue" points="140.82,-430.37 150.43,-434.83 145.7,-425.35 140.82,-430.37"/>
</a>
</g>
</g>
<!-- PiL1 -->
<g id="node10" class="node">
<title>PiL1</title>
<ellipse fill="none" stroke="black" cx="220" cy="-306" rx="27" ry="18"/>
<text text-anchor="middle" x="220" y="-302.3" font-family="Times-Roman" font-size="14.00">PiL</text>
</g>
<!-- I1&#45;&gt;PiL1 -->
<g id="edge7" class="edge">
<title>I1&#45;&gt;PiL1</title>
<g id="a_edge7"><a xlink:title="hl2">
<path fill="none" stroke="blue" d="M220,-349.67C220,-341.05 220,-331.79 220,-324.1"/>
<polygon fill="blue" stroke="blue" points="216.5,-349.7 220,-359.7 223.5,-349.7 216.5,-349.7"/>
</a>
</g>
</g>
<!-- !d2 -->
<g id="node11" class="node">
<title>!d2</title>
<ellipse fill="none" stroke="black" cx="165" cy="-234" rx="27" ry="18"/>
<text text-anchor="middle" x="165" y="-230.3" font-family="Times-Roman" font-size="14.00">!d</text>
</g>
<!-- PiL1&#45;&gt;!d2 -->
<g id="edge8" class="edge">
<title>PiL1&#45;&gt;!d2</title>
<g id="a_edge8"><a xlink:title="hl21">
<path fill="none" stroke="blue" d="M201.83,-281.87C193.63,-271.44 184.19,-259.42 176.91,-250.16"/>
<polygon fill="blue" stroke="blue" points="199.14,-284.11 208.07,-289.81 204.64,-279.79 199.14,-284.11"/>
</a>
</g>
</g>
<!-- !p2 -->
<g id="node12" class="node">
<title>!p2</title>
<ellipse fill="none" stroke="black" cx="237" cy="-234" rx="27" ry="18"/>
<text text-anchor="middle" x="237" y="-230.3" font-family="Times-Roman" font-size="14.00">!p</text>
</g>
<!-- PiL1&#45;&gt;!p2 -->
<g id="edge10" class="edge">
<title>PiL1&#45;&gt;!p2</title>
<g id="a_edge10"><a xlink:title="hl2p">
<path fill="none" stroke="red" d="M224.12,-288.05C226.01,-280.26 228.3,-270.82 230.42,-262.08"/>
<polygon fill="red" stroke="red" points="233.85,-262.82 232.8,-252.28 227.04,-261.17 233.85,-262.82"/>
</a>
</g>
</g>
<!-- !d2&#45;&gt;!p1 -->
<g id="edge6" class="edge">
<title>!d2&#45;&gt;!p1</title>
<g id="a_edge6"><a xlink:title="hj">
<path fill="none" stroke="blue" d="M165,-262.39C165,-307.18 165,-394.83 165,-431.85"/>
<polygon fill="blue" stroke="blue" points="168.5,-262.23 165,-252.23 161.5,-262.23 168.5,-262.23"/>
</a>
</g>
</g>
<!-- PiR0 -->
<g id="node16" class="node">
<title>PiR0</title>
<ellipse fill="none" stroke="black" cx="237" cy="-162" rx="27" ry="18"/>
<text text-anchor="middle" x="237" y="-158.3" font-family="Times-Roman" font-size="14.00">PiR</text>
</g>
<!-- !p2&#45;&gt;PiR0 -->
<g id="edge9" class="edge">
<title>!p2&#45;&gt;PiR0</title>
<g id="a_edge9"><a xlink:title="hl2i">
<path fill="none" stroke="red" d="M237,-215.7C237,-207.98 237,-198.71 237,-190.11"/>
<polygon fill="red" stroke="red" points="240.5,-190.1 237,-180.1 233.5,-190.1 240.5,-190.1"/>
</a>
</g>
</g>
<!-- I2 -->
<g id="node13" class="node">
<title>I2</title>
<ellipse fill="none" stroke="black" cx="264" cy="-90" rx="27" ry="18"/>
<text text-anchor="middle" x="264" y="-86.3" font-family="Times-Roman" font-size="14.00">I</text>
</g>
<!-- !d3 -->
<g id="node14" class="node">
<title>!d3</title>
<ellipse fill="none" stroke="black" cx="236" cy="-18" rx="27" ry="18"/>
<text text-anchor="middle" x="236" y="-14.3" font-family="Times-Roman" font-size="14.00">!d</text>
</g>
<!-- I2&#45;&gt;!d3 -->
<g id="edge15" class="edge">
<title>I2&#45;&gt;!d3</title>
<g id="a_edge15"><a xlink:title="il">
<path fill="none" stroke="blue" d="M253.56,-62.91C249.89,-53.72 245.86,-43.65 242.59,-35.47"/>
<polygon fill="blue" stroke="blue" points="250.4,-64.43 257.36,-72.41 256.9,-61.83 250.4,-64.43"/>
</a>
</g>
</g>
<!-- !d3&#45;&gt;PiR0 -->
<g id="edge14" class="edge">
<title>!d3&#45;&gt;PiR0</title>
<g id="a_edge14"><a xlink:title="i">
<path fill="none" stroke="blue" d="M231.12,-46.04C229.84,-54.34 228.64,-63.52 228,-72 226.8,-87.96 226.66,-92.06 228,-108 229.02,-120.09 231.32,-133.57 233.35,-143.91"/>
<polygon fill="blue" stroke="blue" points="234.58,-46.55 232.75,-36.11 227.68,-45.41 234.58,-46.55"/>
</a>
</g>
</g>
<!-- Cut2 -->
<g id="node24" class="node">
<title>Cut2</title>
<ellipse fill="none" stroke="black" cx="37" cy="-966.65" rx="26.78" ry="26.78"/>
<ellipse fill="none" stroke="black" cx="37" cy="-966.65" rx="30.8" ry="30.8"/>
<text text-anchor="middle" x="37" y="-962.95" font-family="Times-Roman" font-size="14.00">Cut</text>
</g>
<!-- I3&#45;&gt;Cut2 -->
<g id="edge18" class="edge">
<title>I3&#45;&gt;Cut2</title>
<g id="a_edge18"><a xlink:title="xl">
<path fill="none" stroke="blue" stroke-width="2" d="M37,-1023.01C37,-1014.82 37,-1005.8 37,-997.45"/>
<polygon fill="blue" stroke="blue" stroke-width="2" points="33.5,-1023.17 37,-1033.17 40.5,-1023.17 33.5,-1023.17"/>
</a>
</g>
</g>
<!-- PiR0&#45;&gt;I2 -->
<g id="edge16" class="edge">
<title>PiR0&#45;&gt;I2</title>
<g id="a_edge16"><a xlink:title="ir">
<path fill="none" stroke="red" d="M243.4,-144.41C246.51,-136.34 250.33,-126.43 253.83,-117.35"/>
<polygon fill="red" stroke="red" points="257.13,-118.55 257.46,-107.96 250.6,-116.03 257.13,-118.55"/>
</a>
</g>
</g>
<!-- Cut0&#45;&gt;!p1 -->
<g id="edge12" class="edge">
<title>Cut0&#45;&gt;!p1</title>
<g id="a_edge12"><a xlink:title="hlp">
<path fill="none" stroke="red" d="M165,-503.7C165,-495.98 165,-486.71 165,-478.11"/>
<polygon fill="red" stroke="red" points="168.5,-478.1 165,-468.1 161.5,-478.1 168.5,-478.1"/>
</a>
</g>
</g>
<!-- I4 -->
<g id="node18" class="node">
<title>I4</title>
<ellipse fill="none" stroke="black" cx="74" cy="-810" rx="27" ry="18"/>
<text text-anchor="middle" x="74" y="-806.3" font-family="Times-Roman" font-size="14.00">I</text>
</g>
<!-- I4&#45;&gt;PiL0 -->
<g id="edge25" class="edge">
<title>I4&#45;&gt;PiL0</title>
<g id="a_edge25"><a xlink:title="yl">
<path fill="none" stroke="blue" d="M81.29,-782.14C83.7,-773.28 86.3,-763.68 88.44,-755.79"/>
<polygon fill="blue" stroke="blue" points="77.84,-781.49 78.6,-792.05 84.6,-783.32 77.84,-781.49"/>
</a>
</g>
</g>
<!-- !p3 -->
<g id="node19" class="node">
<title>!p3</title>
<ellipse fill="none" stroke="black" cx="93" cy="-234" rx="27" ry="18"/>
<text text-anchor="middle" x="93" y="-230.3" font-family="Times-Roman" font-size="14.00">!p</text>
</g>
<!-- PiR1 -->
<g id="node20" class="node">
<title>PiR1</title>
<ellipse fill="none" stroke="black" cx="38" cy="-162" rx="27" ry="18"/>
<text text-anchor="middle" x="38" y="-158.3" font-family="Times-Roman" font-size="14.00">PiR</text>
</g>
<!-- !p3&#45;&gt;PiR1 -->
<g id="edge19" class="edge">
<title>!p3&#45;&gt;PiR1</title>
<g id="a_edge19"><a xlink:title="xli">
<path fill="none" stroke="red" d="M81.07,-217.81C73.79,-208.55 64.34,-196.52 56.15,-186.09"/>
<polygon fill="red" stroke="red" points="58.84,-183.86 49.91,-178.16 53.34,-188.18 58.84,-183.86"/>
</a>
</g>
</g>
<!-- Dup0_1 -->
<g id="node22" class="node">
<title>Dup0_1</title>
<ellipse fill="none" stroke="black" cx="37" cy="-882" rx="29.5" ry="18"/>
<text text-anchor="middle" x="37" y="-878.3" font-family="Times-Roman" font-size="14.00">Dup</text>
</g>
<!-- PiR1&#45;&gt;Dup0_1 -->
<g id="edge4" class="edge">
<title>PiR1&#45;&gt;Dup0_1</title>
<g id="a_edge4"><a xlink:title="e7">
<path fill="none" stroke="red" d="M30.49,-179.66C19.42,-205.8 0,-258.3 0,-305 0,-739 0,-739 0,-739 0,-781.43 15.66,-828.76 26.61,-856.65"/>
<ellipse fill="none" stroke="red" cx="28.2" cy="-860.61" rx="4" ry="4"/>
</a>
</g>
</g>
<!-- Dup0_0&#45;&gt;PiR1 -->
<g id="edge2" class="edge">
<title>Dup0_0&#45;&gt;PiR1</title>
<g id="a_edge2"><a xlink:title="e5">
<path fill="none" stroke="blue" d="M74.8,-355.31C68.1,-346.19 61.15,-335.13 57,-324 38.41,-274.16 36.91,-210.16 37.4,-180.07"/>
<ellipse fill="none" stroke="blue" cx="77.38" cy="-358.7" rx="4" ry="4"/>
</a>
</g>
</g>
<!-- Cut1 -->
<g id="node23" class="node">
<title>Cut1</title>
<ellipse fill="none" stroke="black" cx="93" cy="-306" rx="27" ry="18"/>
<text text-anchor="middle" x="93" y="-302.3" font-family="Times-Roman" font-size="14.00">Cut</text>
</g>
<!-- Dup0_0&#45;&gt;Cut1 -->
<g id="edge1" class="edge">
<title>Dup0_0&#45;&gt;Cut1</title>
<g id="a_edge1"><a xlink:title="e4">
<path fill="none" stroke="blue" d="M93,-351.64C93,-342.49 93,-332.38 93,-324.1"/>
<ellipse fill="blue" stroke="blue" cx="93" cy="-355.7" rx="4" ry="4"/>
</a>
</g>
</g>
<!-- Dup0_1&#45;&gt;I4 -->
<g id="edge13" class="edge">
<title>Dup0_1&#45;&gt;I4</title>
<g id="a_edge13"><a xlink:title="hr">
<path fill="none" stroke="red" d="M45.58,-864.76C50.06,-856.28 55.65,-845.71 60.68,-836.2"/>
<polygon fill="red" stroke="red" points="63.89,-837.62 65.46,-827.15 57.7,-834.35 63.89,-837.62"/>
</a>
</g>
</g>
<!-- Cut1&#45;&gt;!p3 -->
<g id="edge20" class="edge">
<title>Cut1&#45;&gt;!p3</title>
<g id="a_edge20"><a xlink:title="xlp">
<path fill="none" stroke="red" d="M93,-287.7C93,-279.98 93,-270.71 93,-262.11"/>
<polygon fill="red" stroke="red" points="96.5,-262.1 93,-252.1 89.5,-262.1 96.5,-262.1"/>
</a>
</g>
</g>
<!-- Cut2&#45;&gt;Dup0_1 -->
<g id="edge3" class="edge">
<title>Cut2&#45;&gt;Dup0_1</title>
<g id="a_edge3"><a xlink:title="e6">
<path fill="none" stroke="red" d="M37,-935.81C37,-926.79 37,-916.99 37,-908.3"/>
<ellipse fill="red" stroke="red" cx="37" cy="-904.05" rx="4" ry="4"/>
</a>
</g>
</g>
</g>
</svg>
