<?xml version="1.0" encoding="UTF-8" standalone="no"?>
<!DOCTYPE svg PUBLIC "-//W3C//DTD SVG 1.1//EN"
 "http://www.w3.org/Graphics/SVG/1.1/DTD/svg11.dtd">
<!-- Generated by graphviz version 2.43.0 (0)
 -->
<!-- Title: %3 Pages: 1 -->
<svg width="494pt" height="1362pt"
 viewBox="0.00 0.00 494.00 1362.00" xmlns="http://www.w3.org/2000/svg" xmlns:xlink="http://www.w3.org/1999/xlink">
<g id="graph0" class="graph" transform="scale(1 1) rotate(0) translate(4 1358)">
<title>%3</title>
<polygon fill="white" stroke="transparent" points="-4,4 -4,-1358 490,-1358 490,4 -4,4"/>
<!-- I0 -->
<g id="node1" class="node">
<title>I0</title>
<ellipse fill="none" stroke="black" cx="82" cy="-1190" rx="27" ry="18"/>
<text text-anchor="middle" x="82" y="-1186.3" font-family="Times-Roman" font-size="14.00">I</text>
</g>
<!-- !d1 -->
<g id="node2" class="node">
<title>!d1</title>
<ellipse fill="none" stroke="black" cx="27" cy="-1103" rx="27" ry="18"/>
<text text-anchor="middle" x="27" y="-1099.3" font-family="Times-Roman" font-size="14.00">!d</text>
</g>
<!-- I0&#45;&gt;!d1 -->
<g id="edge5" class="edge">
<title>I0&#45;&gt;!d1</title>
<g id="a_edge5"><a xlink:title="iret84">
<path fill="none" stroke="blue" d="M65.99,-1164.71C63.64,-1161.12 61.25,-1157.46 59,-1154 51.6,-1142.58 43.32,-1129.64 37.04,-1119.79"/>
<polygon fill="blue" stroke="blue" points="63.24,-1166.9 71.66,-1173.34 69.09,-1163.06 63.24,-1166.9"/>
</a>
</g>
<text text-anchor="middle" x="63.5" y="-1142.8" font-family="Times-Roman" font-size="14.00">3</text>
</g>
<!-- λ2 -->
<g id="node3" class="node">
<title>λ2</title>
<ellipse fill="none" stroke="black" cx="82" cy="-1016" rx="27" ry="18"/>
<text text-anchor="middle" x="82" y="-1012.3" font-family="Times-Roman" font-size="14.00">λ</text>
</g>
<!-- !d1&#45;&gt;λ2 -->
<g id="edge4" class="edge">
<title>!d1&#45;&gt;λ2</title>
<g id="a_edge4"><a xlink:title="i81">
<path fill="none" stroke="blue" d="M42.58,-1077.52C47.78,-1069.39 53.62,-1060.29 59,-1052 63.11,-1045.65 67.68,-1038.69 71.66,-1032.65"/>
<polygon fill="blue" stroke="blue" points="39.47,-1075.89 37.04,-1086.2 45.37,-1079.65 39.47,-1075.89"/>
</a>
</g>
<text text-anchor="middle" x="63.5" y="-1055.8" font-family="Times-Roman" font-size="14.00">3</text>
</g>
<!-- λ2&#45;&gt;I0 -->
<g id="edge26" class="edge">
<title>λ2&#45;&gt;I0</title>
<g id="a_edge26"><a xlink:title="ret82">
<path fill="none" stroke="red" d="M82,-1034.05C82,-1063.88 82,-1125.76 82,-1161.64"/>
<polygon fill="red" stroke="red" points="78.5,-1161.87 82,-1171.87 85.5,-1161.87 78.5,-1161.87"/>
</a>
</g>
</g>
<!-- !p3 -->
<g id="node4" class="node">
<title>!p3</title>
<ellipse fill="none" stroke="black" cx="137" cy="-1103" rx="27" ry="18"/>
<text text-anchor="middle" x="137" y="-1099.3" font-family="Times-Roman" font-size="14.00">!p</text>
</g>
<!-- !p3&#45;&gt;λ2 -->
<g id="edge22" class="edge">
<title>!p3&#45;&gt;λ2</title>
<g id="a_edge22"><a xlink:title="newrretf78">
<path fill="none" stroke="red" d="M126.65,-1086.01C118.51,-1073.42 107.03,-1055.67 97.74,-1041.33"/>
<polygon fill="red" stroke="red" points="100.67,-1039.41 92.3,-1032.91 94.79,-1043.21 100.67,-1039.41"/>
</a>
</g>
<text text-anchor="middle" x="117.5" y="-1055.8" font-family="Times-Roman" font-size="14.00">3</text>
</g>
<!-- I4 -->
<g id="node5" class="node">
<title>I4</title>
<ellipse fill="none" stroke="black" cx="194" cy="-731" rx="27" ry="18"/>
<text text-anchor="middle" x="194" y="-727.3" font-family="Times-Roman" font-size="14.00">I</text>
</g>
<!-- @5 -->
<g id="node6" class="node">
<title>@5</title>
<ellipse fill="none" stroke="black" cx="173" cy="-1190" rx="27" ry="18"/>
<text text-anchor="middle" x="173" y="-1186.3" font-family="Times-Roman" font-size="14.00">@</text>
</g>
<!-- I4&#45;&gt;@5 -->
<g id="edge9" class="edge">
<title>I4&#45;&gt;@5</title>
<g id="a_edge9"><a xlink:title="lret75">
<path fill="none" stroke="blue" d="M193.03,-759.39C192.52,-776.05 192,-797.75 192,-817 192,-1104 192,-1104 192,-1104 192,-1128.19 184.58,-1155.34 179.01,-1172.31"/>
<polygon fill="blue" stroke="blue" points="196.53,-759.36 193.36,-749.25 189.53,-759.14 196.53,-759.36"/>
</a>
</g>
</g>
<!-- @5&#45;&gt;!p3 -->
<g id="edge17" class="edge">
<title>@5&#45;&gt;!p3</title>
<g id="a_edge17"><a xlink:title="newrret74">
<path fill="none" stroke="red" d="M165.89,-1172.2C160.78,-1160.13 153.79,-1143.63 147.97,-1129.89"/>
<polygon fill="red" stroke="red" points="151.1,-1128.31 143.98,-1120.46 144.65,-1131.04 151.1,-1128.31"/>
</a>
</g>
<text text-anchor="middle" x="162.5" y="-1142.8" font-family="Times-Roman" font-size="14.00">2</text>
</g>
<!-- Cut8 -->
<g id="node9" class="node">
<title>Cut8</title>
<ellipse fill="none" stroke="black" cx="247" cy="-1103" rx="27" ry="18"/>
<text text-anchor="middle" x="247" y="-1099.3" font-family="Times-Roman" font-size="14.00">Cut</text>
</g>
<!-- @5&#45;&gt;Cut8 -->
<g id="edge12" class="edge">
<title>@5&#45;&gt;Cut8</title>
<g id="a_edge12"><a xlink:title="lval70">
<path fill="none" stroke="blue" d="M194.05,-1167.13C198.07,-1162.83 202.21,-1158.31 206,-1154 215.93,-1142.7 226.7,-1129.53 234.71,-1119.54"/>
<polygon fill="blue" stroke="blue" points="191.36,-1164.89 187.04,-1174.56 196.45,-1169.69 191.36,-1164.89"/>
</a>
</g>
</g>
<!-- I6 -->
<g id="node7" class="node">
<title>I6</title>
<ellipse fill="none" stroke="black" cx="247" cy="-1016" rx="27" ry="18"/>
<text text-anchor="middle" x="247" y="-1012.3" font-family="Times-Roman" font-size="14.00">I</text>
</g>
<!-- !d7 -->
<g id="node8" class="node">
<title>!d7</title>
<ellipse fill="none" stroke="black" cx="248" cy="-917" rx="27" ry="18"/>
<text text-anchor="middle" x="248" y="-913.3" font-family="Times-Roman" font-size="14.00">!d</text>
</g>
<!-- I6&#45;&gt;!d7 -->
<g id="edge3" class="edge">
<title>I6&#45;&gt;!d7</title>
<g id="a_edge3"><a xlink:title="hret73">
<path fill="none" stroke="blue" d="M247.29,-987.32C247.46,-970.53 247.67,-949.63 247.82,-935.19"/>
<polygon fill="blue" stroke="blue" points="243.78,-987.62 247.18,-997.65 250.78,-987.69 243.78,-987.62"/>
</a>
</g>
<text text-anchor="middle" x="251.5" y="-968.8" font-family="Times-Roman" font-size="14.00">2</text>
</g>
<!-- !p9 -->
<g id="node10" class="node">
<title>!p9</title>
<ellipse fill="none" stroke="black" cx="249" cy="-818" rx="27" ry="18"/>
<text text-anchor="middle" x="249" y="-814.3" font-family="Times-Roman" font-size="14.00">!p</text>
</g>
<!-- !d7&#45;&gt;!p9 -->
<g id="edge2" class="edge">
<title>!d7&#45;&gt;!p9</title>
<g id="a_edge2"><a xlink:title="hf65">
<path fill="none" stroke="blue" d="M248.29,-888.32C248.46,-871.53 248.67,-850.63 248.82,-836.19"/>
<polygon fill="blue" stroke="blue" points="244.78,-888.62 248.18,-898.66 251.78,-888.69 244.78,-888.62"/>
</a>
</g>
<text text-anchor="middle" x="252.5" y="-857.8" font-family="Times-Roman" font-size="14.00">1</text>
</g>
<!-- Cut8&#45;&gt;I6 -->
<g id="edge28" class="edge">
<title>Cut8&#45;&gt;I6</title>
<g id="a_edge28"><a xlink:title="rval71">
<path fill="none" stroke="red" d="M247,-1084.79C247,-1073.16 247,-1057.54 247,-1044.23"/>
<polygon fill="red" stroke="red" points="250.5,-1044.17 247,-1034.17 243.5,-1044.17 250.5,-1044.17"/>
</a>
</g>
</g>
<!-- !p9&#45;&gt;I4 -->
<g id="edge21" class="edge">
<title>!p9&#45;&gt;I4</title>
<g id="a_edge21"><a xlink:title="newrretf66">
<path fill="none" stroke="red" d="M238.66,-801.35C234.68,-795.31 230.11,-788.34 226,-782 220.62,-773.71 214.78,-764.61 209.58,-756.48"/>
<polygon fill="red" stroke="red" points="212.37,-754.34 204.04,-747.79 206.47,-758.11 212.37,-754.34"/>
</a>
</g>
<text text-anchor="middle" x="230.5" y="-770.8" font-family="Times-Roman" font-size="14.00">2</text>
</g>
<!-- λ20 -->
<g id="node21" class="node">
<title>λ20</title>
<ellipse fill="none" stroke="black" cx="325" cy="-731" rx="27" ry="18"/>
<text text-anchor="middle" x="325" y="-727.3" font-family="Times-Roman" font-size="14.00">λ</text>
</g>
<!-- !p9&#45;&gt;λ20 -->
<g id="edge1" class="edge">
<title>!p9&#45;&gt;λ20</title>
<g id="a_edge1"><a xlink:title="h34">
<path fill="none" stroke="blue" d="M269.25,-794.35C282.68,-779.33 299.93,-760.04 311.66,-746.92"/>
<polygon fill="blue" stroke="blue" points="266.29,-792.41 262.24,-802.19 271.51,-797.07 266.29,-792.41"/>
</a>
</g>
<text text-anchor="middle" x="295.5" y="-770.8" font-family="Times-Roman" font-size="14.00">1</text>
</g>
<!-- I10 -->
<g id="node11" class="node">
<title>I10</title>
<ellipse fill="none" stroke="black" cx="325" cy="-658" rx="27" ry="18"/>
<text text-anchor="middle" x="325" y="-654.3" font-family="Times-Roman" font-size="14.00">I</text>
</g>
<!-- Cut32 -->
<g id="node33" class="node">
<title>Cut32</title>
<ellipse fill="none" stroke="black" cx="331" cy="-585" rx="27" ry="18"/>
<text text-anchor="middle" x="331" y="-581.3" font-family="Times-Roman" font-size="14.00">Cut</text>
</g>
<!-- I10&#45;&gt;Cut32 -->
<g id="edge8" class="edge">
<title>I10&#45;&gt;Cut32</title>
<g id="a_edge8"><a xlink:title="lret62">
<path fill="none" stroke="blue" d="M327.3,-629.75C328.06,-620.77 328.88,-611.03 329.56,-603.03"/>
<polygon fill="blue" stroke="blue" points="323.81,-629.55 326.45,-639.81 330.78,-630.14 323.81,-629.55"/>
</a>
</g>
</g>
<!-- I11 -->
<g id="node12" class="node">
<title>I11</title>
<ellipse fill="none" stroke="black" cx="459" cy="-265" rx="27" ry="18"/>
<text text-anchor="middle" x="459" y="-261.3" font-family="Times-Roman" font-size="14.00">I</text>
</g>
<!-- !d12 -->
<g id="node13" class="node">
<title>!d12</title>
<ellipse fill="none" stroke="black" cx="426" cy="-178" rx="27" ry="18"/>
<text text-anchor="middle" x="426" y="-174.3" font-family="Times-Roman" font-size="14.00">!d</text>
</g>
<!-- I11&#45;&gt;!d12 -->
<g id="edge39" class="edge">
<title>I11&#45;&gt;!d12</title>
<g id="a_edge39"><a xlink:title="yret60">
<path fill="none" stroke="blue" d="M448.83,-237.8C443.51,-224.1 437.16,-207.74 432.51,-195.76"/>
<polygon fill="blue" stroke="blue" points="445.6,-239.15 452.48,-247.21 452.12,-236.62 445.6,-239.15"/>
</a>
</g>
<text text-anchor="middle" x="448.5" y="-217.8" font-family="Times-Roman" font-size="14.00">2</text>
</g>
<!-- !p13 -->
<g id="node14" class="node">
<title>!p13</title>
<ellipse fill="none" stroke="black" cx="390" cy="-352" rx="27" ry="18"/>
<text text-anchor="middle" x="390" y="-348.3" font-family="Times-Roman" font-size="14.00">!p</text>
</g>
<!-- !d12&#45;&gt;!p13 -->
<g id="edge37" class="edge">
<title>!d12&#45;&gt;!p13</title>
<g id="a_edge37"><a xlink:title="yBf56">
<path fill="none" stroke="blue" d="M420.29,-206.27C412.79,-242.11 399.84,-304 393.58,-333.88"/>
<polygon fill="blue" stroke="blue" points="423.81,-206.56 422.43,-196.05 416.96,-205.12 423.81,-206.56"/>
</a>
</g>
<text text-anchor="middle" x="415.5" y="-261.3" font-family="Times-Roman" font-size="14.00">1</text>
</g>
<!-- !p13&#45;&gt;I11 -->
<g id="edge20" class="edge">
<title>!p13&#45;&gt;I11</title>
<g id="a_edge20"><a xlink:title="newrretf57">
<path fill="none" stroke="red" d="M402.76,-335.71C407.84,-329.6 413.72,-322.49 419,-316 426.05,-307.34 433.73,-297.77 440.46,-289.34"/>
<polygon fill="red" stroke="red" points="443.32,-291.37 446.81,-281.37 437.84,-287.01 443.32,-291.37"/>
</a>
</g>
<text text-anchor="middle" x="434.5" y="-304.8" font-family="Times-Roman" font-size="14.00">2</text>
</g>
<!-- !c19 -->
<g id="node20" class="node">
<title>!c19</title>
<ellipse fill="none" stroke="black" cx="304" cy="-91" rx="27" ry="18"/>
<text text-anchor="middle" x="304" y="-87.3" font-family="Times-Roman" font-size="14.00">!c</text>
</g>
<!-- !p13&#45;&gt;!c19 -->
<g id="edge36" class="edge">
<title>!p13&#45;&gt;!c19</title>
<g id="a_edge36"><a xlink:title="yB44">
<path fill="none" stroke="blue" d="M384.95,-323.83C377.5,-286.22 362.03,-216.54 340,-160 334.24,-145.22 326.08,-129.52 318.99,-116.94"/>
<polygon fill="blue" stroke="blue" points="381.58,-324.83 386.92,-333.98 388.45,-323.5 381.58,-324.83"/>
<polygon fill="blue" stroke="blue" points="316.86,-106.24 318.82,-116.65 310.79,-109.74 316.86,-106.24"/>
</a>
</g>
<text text-anchor="middle" x="366.5" y="-217.8" font-family="Times-Roman" font-size="14.00">1</text>
</g>
<!-- I14 -->
<g id="node15" class="node">
<title>I14</title>
<ellipse fill="none" stroke="black" cx="331" cy="-512" rx="27" ry="18"/>
<text text-anchor="middle" x="331" y="-508.3" font-family="Times-Roman" font-size="14.00">I</text>
</g>
<!-- @15 -->
<g id="node16" class="node">
<title>@15</title>
<ellipse fill="none" stroke="black" cx="343" cy="-439" rx="27" ry="18"/>
<text text-anchor="middle" x="343" y="-435.3" font-family="Times-Roman" font-size="14.00">@</text>
</g>
<!-- I14&#45;&gt;@15 -->
<g id="edge7" class="edge">
<title>I14&#45;&gt;@15</title>
<g id="a_edge7"><a xlink:title="lret53">
<path fill="none" stroke="blue" d="M335.61,-483.75C337.12,-474.77 338.77,-465.03 340.12,-457.03"/>
<polygon fill="blue" stroke="blue" points="332.12,-483.37 333.9,-493.81 339.02,-484.54 332.12,-483.37"/>
</a>
</g>
</g>
<!-- @15&#45;&gt;!p13 -->
<g id="edge15" class="edge">
<title>@15&#45;&gt;!p13</title>
<g id="a_edge15"><a xlink:title="newrret52">
<path fill="none" stroke="red" d="M352.06,-421.61C358.87,-409.3 368.31,-392.23 376.07,-378.19"/>
<polygon fill="red" stroke="red" points="379.35,-379.5 381.13,-369.05 373.22,-376.11 379.35,-379.5"/>
</a>
</g>
<text text-anchor="middle" x="373.5" y="-391.8" font-family="Times-Roman" font-size="14.00">1</text>
</g>
<!-- Cut18 -->
<g id="node19" class="node">
<title>Cut18</title>
<ellipse fill="none" stroke="black" cx="304" cy="-352" rx="27" ry="18"/>
<text text-anchor="middle" x="304" y="-348.3" font-family="Times-Roman" font-size="14.00">Cut</text>
</g>
<!-- @15&#45;&gt;Cut18 -->
<g id="edge11" class="edge">
<title>@15&#45;&gt;Cut18</title>
<g id="a_edge11"><a xlink:title="lval48">
<path fill="none" stroke="blue" d="M331.29,-412.49C324.87,-398.49 317.1,-381.56 311.5,-369.34"/>
<polygon fill="blue" stroke="blue" points="328.13,-413.98 335.48,-421.61 334.49,-411.06 328.13,-413.98"/>
</a>
</g>
</g>
<!-- I16 -->
<g id="node17" class="node">
<title>I16</title>
<ellipse fill="none" stroke="black" cx="304" cy="-265" rx="27" ry="18"/>
<text text-anchor="middle" x="304" y="-261.3" font-family="Times-Roman" font-size="14.00">I</text>
</g>
<!-- !d17 -->
<g id="node18" class="node">
<title>!d17</title>
<ellipse fill="none" stroke="black" cx="304" cy="-178" rx="27" ry="18"/>
<text text-anchor="middle" x="304" y="-174.3" font-family="Times-Roman" font-size="14.00">!d</text>
</g>
<!-- I16&#45;&gt;!d17 -->
<g id="edge38" class="edge">
<title>I16&#45;&gt;!d17</title>
<g id="a_edge38"><a xlink:title="yret51">
<path fill="none" stroke="blue" d="M304,-236.73C304,-223.42 304,-207.81 304,-196.18"/>
<polygon fill="blue" stroke="blue" points="300.5,-236.8 304,-246.8 307.5,-236.8 300.5,-236.8"/>
</a>
</g>
<text text-anchor="middle" x="308.5" y="-217.8" font-family="Times-Roman" font-size="14.00">1</text>
</g>
<!-- !d17&#45;&gt;!c19 -->
<g id="edge35" class="edge">
<title>!d17&#45;&gt;!c19</title>
<g id="a_edge35"><a xlink:title="yA43">
<path fill="none" stroke="blue" d="M304,-149.73C304,-136.42 304,-120.81 304,-109.18"/>
<polygon fill="blue" stroke="blue" points="300.5,-149.8 304,-159.8 307.5,-149.8 300.5,-149.8"/>
</a>
</g>
<text text-anchor="middle" x="308.5" y="-130.8" font-family="Times-Roman" font-size="14.00">1</text>
</g>
<!-- Cut18&#45;&gt;I16 -->
<g id="edge27" class="edge">
<title>Cut18&#45;&gt;I16</title>
<g id="a_edge27"><a xlink:title="rval49">
<path fill="none" stroke="red" d="M304,-333.8C304,-322.16 304,-306.55 304,-293.24"/>
<polygon fill="red" stroke="red" points="307.5,-293.18 304,-283.18 300.5,-293.18 307.5,-293.18"/>
</a>
</g>
</g>
<!-- Cut31 -->
<g id="node32" class="node">
<title>Cut31</title>
<ellipse fill="none" stroke="black" cx="249" cy="-18" rx="27" ry="18"/>
<text text-anchor="middle" x="249" y="-14.3" font-family="Times-Roman" font-size="14.00">Cut</text>
</g>
<!-- !c19&#45;&gt;Cut31 -->
<g id="edge34" class="edge">
<title>!c19&#45;&gt;Cut31</title>
<g id="a_edge34"><a xlink:title="y41">
<path fill="none" stroke="blue" d="M285.83,-66.54C277.63,-55.96 268.19,-43.77 260.91,-34.38"/>
<polygon fill="blue" stroke="blue" points="283.17,-68.83 292.07,-74.59 288.71,-64.55 283.17,-68.83"/>
</a>
</g>
</g>
<!-- λ20&#45;&gt;I10 -->
<g id="edge23" class="edge">
<title>λ20&#45;&gt;I10</title>
<g id="a_edge23"><a xlink:title="ret35">
<path fill="none" stroke="red" d="M325,-712.81C325,-704.79 325,-695.05 325,-686.07"/>
<polygon fill="red" stroke="red" points="328.5,-686.03 325,-676.03 321.5,-686.03 328.5,-686.03"/>
</a>
</g>
</g>
<!-- !p21 -->
<g id="node22" class="node">
<title>!p21</title>
<ellipse fill="none" stroke="black" cx="325" cy="-818" rx="27" ry="18"/>
<text text-anchor="middle" x="325" y="-814.3" font-family="Times-Roman" font-size="14.00">!p</text>
</g>
<!-- !p21&#45;&gt;λ20 -->
<g id="edge19" class="edge">
<title>!p21&#45;&gt;λ20</title>
<g id="a_edge19"><a xlink:title="newrretf31">
<path fill="none" stroke="red" d="M325,-799.8C325,-788.16 325,-772.55 325,-759.24"/>
<polygon fill="red" stroke="red" points="328.5,-759.18 325,-749.18 321.5,-759.18 328.5,-759.18"/>
</a>
</g>
<text text-anchor="middle" x="329.5" y="-770.8" font-family="Times-Roman" font-size="14.00">1</text>
</g>
<!-- I22 -->
<g id="node23" class="node">
<title>I22</title>
<ellipse fill="none" stroke="black" cx="442" cy="-1016" rx="27" ry="18"/>
<text text-anchor="middle" x="442" y="-1012.3" font-family="Times-Roman" font-size="14.00">I</text>
</g>
<!-- !d23 -->
<g id="node24" class="node">
<title>!d23</title>
<ellipse fill="none" stroke="black" cx="416" cy="-917" rx="27" ry="18"/>
<text text-anchor="middle" x="416" y="-913.3" font-family="Times-Roman" font-size="14.00">!d</text>
</g>
<!-- I22&#45;&gt;!d23 -->
<g id="edge33" class="edge">
<title>I22&#45;&gt;!d23</title>
<g id="a_edge33"><a xlink:title="xret26">
<path fill="none" stroke="blue" d="M434.82,-988.2C430.26,-971.2 424.5,-949.72 420.56,-935.03"/>
<polygon fill="blue" stroke="blue" points="431.5,-989.35 437.47,-998.1 438.26,-987.53 431.5,-989.35"/>
</a>
</g>
<text text-anchor="middle" x="436.5" y="-968.8" font-family="Times-Roman" font-size="14.00">1</text>
</g>
<!-- !p24 -->
<g id="node25" class="node">
<title>!p24</title>
<ellipse fill="none" stroke="black" cx="397" cy="-1103" rx="27" ry="18"/>
<text text-anchor="middle" x="397" y="-1099.3" font-family="Times-Roman" font-size="14.00">!p</text>
</g>
<!-- !d23&#45;&gt;!p24 -->
<g id="edge32" class="edge">
<title>!d23&#45;&gt;!p24</title>
<g id="a_edge32"><a xlink:title="xBf22">
<path fill="none" stroke="blue" d="M407.97,-944.84C403.78,-960.24 399.1,-980.02 397,-998 393.43,-1028.48 394.6,-1064.34 395.79,-1084.99"/>
<polygon fill="blue" stroke="blue" points="411.41,-945.53 410.75,-934.96 404.67,-943.63 411.41,-945.53"/>
</a>
</g>
<text text-anchor="middle" x="401.5" y="-1012.3" font-family="Times-Roman" font-size="14.00">0</text>
</g>
<!-- !p24&#45;&gt;I22 -->
<g id="edge18" class="edge">
<title>!p24&#45;&gt;I22</title>
<g id="a_edge18"><a xlink:title="newrretf23">
<path fill="none" stroke="red" d="M405.68,-1085.61C412.15,-1073.38 421.12,-1056.44 428.52,-1042.45"/>
<polygon fill="red" stroke="red" points="431.76,-1043.81 433.35,-1033.33 425.58,-1040.53 431.76,-1043.81"/>
</a>
</g>
<text text-anchor="middle" x="426.5" y="-1055.8" font-family="Times-Roman" font-size="14.00">1</text>
</g>
<!-- !c28 -->
<g id="node29" class="node">
<title>!c28</title>
<ellipse fill="none" stroke="black" cx="325" cy="-1016" rx="27" ry="18"/>
<text text-anchor="middle" x="325" y="-1012.3" font-family="Times-Roman" font-size="14.00">!c</text>
</g>
<!-- !p24&#45;&gt;!c28 -->
<g id="edge31" class="edge">
<title>!p24&#45;&gt;!c28</title>
<g id="a_edge31"><a xlink:title="xB10">
<path fill="none" stroke="blue" d="M376.09,-1079.56C372.35,-1075.43 368.52,-1071.11 365,-1067 357.74,-1058.51 350.01,-1048.98 343.31,-1040.53"/>
<polygon fill="blue" stroke="blue" points="373.74,-1082.19 383.08,-1087.2 378.91,-1077.46 373.74,-1082.19"/>
<polygon fill="blue" stroke="blue" points="339.75,-1030.36 343.19,-1040.38 334.25,-1034.69 339.75,-1030.36"/>
</a>
</g>
<text text-anchor="middle" x="369.5" y="-1055.8" font-family="Times-Roman" font-size="14.00">0</text>
</g>
<!-- I25 -->
<g id="node26" class="node">
<title>I25</title>
<ellipse fill="none" stroke="black" cx="397" cy="-1263" rx="27" ry="18"/>
<text text-anchor="middle" x="397" y="-1259.3" font-family="Times-Roman" font-size="14.00">I</text>
</g>
<!-- @26 -->
<g id="node27" class="node">
<title>@26</title>
<ellipse fill="none" stroke="black" cx="397" cy="-1190" rx="27" ry="18"/>
<text text-anchor="middle" x="397" y="-1186.3" font-family="Times-Roman" font-size="14.00">@</text>
</g>
<!-- I25&#45;&gt;@26 -->
<g id="edge6" class="edge">
<title>I25&#45;&gt;@26</title>
<g id="a_edge6"><a xlink:title="lret19">
<path fill="none" stroke="blue" stroke-width="2" d="M397,-1234.75C397,-1225.76 397,-1216.02 397,-1208.02"/>
<polygon fill="blue" stroke="blue" stroke-width="2" points="393.5,-1234.81 397,-1244.81 400.5,-1234.81 393.5,-1234.81"/>
</a>
</g>
</g>
<!-- @26&#45;&gt;!p24 -->
<g id="edge13" class="edge">
<title>@26&#45;&gt;!p24</title>
<g id="a_edge13"><a xlink:title="newrret18">
<path fill="none" stroke="red" d="M397,-1171.79C397,-1160.16 397,-1144.54 397,-1131.23"/>
<polygon fill="red" stroke="red" points="400.5,-1131.17 397,-1121.17 393.5,-1131.17 400.5,-1131.17"/>
</a>
</g>
<text text-anchor="middle" x="401.5" y="-1142.8" font-family="Times-Roman" font-size="14.00">0</text>
</g>
<!-- !d27 -->
<g id="node28" class="node">
<title>!d27</title>
<ellipse fill="none" stroke="black" cx="325" cy="-1103" rx="27" ry="18"/>
<text text-anchor="middle" x="325" y="-1099.3" font-family="Times-Roman" font-size="14.00">!d</text>
</g>
<!-- @26&#45;&gt;!d27 -->
<g id="edge10" class="edge">
<title>@26&#45;&gt;!d27</title>
<g id="a_edge10"><a xlink:title="lval14">
<path fill="none" stroke="blue" stroke-width="2" d="M377.52,-1166C364.89,-1151.08 348.78,-1132.07 337.76,-1119.06"/>
<polygon fill="blue" stroke="blue" stroke-width="2" points="374.99,-1168.43 384.13,-1173.8 380.34,-1163.91 374.99,-1168.43"/>
</a>
</g>
<text text-anchor="middle" x="369.5" y="-1142.8" font-family="Times-Roman" font-size="14.00">0</text>
</g>
<!-- !d27&#45;&gt;!c28 -->
<g id="edge30" class="edge">
<title>!d27&#45;&gt;!c28</title>
<g id="a_edge30"><a xlink:title="xA9">
<path fill="none" stroke="blue" stroke-width="2" d="M325,-1074.73C325,-1061.41 325,-1045.8 325,-1034.17"/>
<polygon fill="blue" stroke="blue" stroke-width="2" points="321.5,-1074.79 325,-1084.79 328.5,-1074.79 321.5,-1074.79"/>
</a>
</g>
<text text-anchor="middle" x="329.5" y="-1055.8" font-family="Times-Roman" font-size="14.00">0</text>
</g>
<!-- Cut30 -->
<g id="node31" class="node">
<title>Cut30</title>
<ellipse fill="none" stroke="black" cx="325" cy="-917" rx="26" ry="26"/>
<ellipse fill="none" stroke="black" cx="325" cy="-917" rx="30" ry="30"/>
<text text-anchor="middle" x="325" y="-913.3" font-family="Times-Roman" font-size="14.00">Cut</text>
</g>
<!-- !c28&#45;&gt;Cut30 -->
<g id="edge29" class="edge">
<title>!c28&#45;&gt;Cut30</title>
<g id="a_edge29"><a xlink:title="x7">
<path fill="none" stroke="blue" stroke-width="2" d="M325,-987.36C325,-974.86 325,-960.07 325,-947.36"/>
<polygon fill="blue" stroke="blue" stroke-width="2" points="321.5,-987.65 325,-997.65 328.5,-987.65 321.5,-987.65"/>
</a>
</g>
</g>
<!-- Assign29 -->
<g id="node30" class="node">
<title>Assign29</title>
<ellipse fill="none" stroke="black" cx="397" cy="-1336" rx="38.99" ry="18"/>
<text text-anchor="middle" x="397" y="-1332.3" font-family="Times-Roman" font-size="14.00">Assign</text>
</g>
<!-- Assign29&#45;&gt;I25 -->
<g id="edge25" class="edge">
<title>Assign29&#45;&gt;I25</title>
<g id="a_edge25"><a xlink:title="ret8">
<path fill="none" stroke="red" stroke-width="2" d="M397,-1317.81C397,-1309.78 397,-1300.04 397,-1291.06"/>
<polygon fill="red" stroke="red" stroke-width="2" points="400.5,-1291.02 397,-1281.02 393.5,-1291.02 400.5,-1291.02"/>
</a>
</g>
</g>
<!-- Cut30&#45;&gt;!p21 -->
<g id="edge14" class="edge">
<title>Cut30&#45;&gt;!p21</title>
<g id="a_edge14"><a xlink:title="newrret27">
<path fill="none" stroke="red" d="M325,-886.9C325,-874.12 325,-859.19 325,-846.6"/>
<polygon fill="red" stroke="red" points="328.5,-846.24 325,-836.24 321.5,-846.24 328.5,-846.24"/>
</a>
</g>
<text text-anchor="middle" x="329.5" y="-857.8" font-family="Times-Roman" font-size="14.00">0</text>
</g>
<!-- Cut31&#45;&gt;!p9 -->
<g id="edge16" class="edge">
<title>Cut31&#45;&gt;!p9</title>
<g id="a_edge16"><a xlink:title="newrret61">
<path fill="none" stroke="red" d="M249,-36.22C249,-50.59 249,-71.63 249,-90 249,-732 249,-732 249,-732 249,-751.25 249,-772.95 249,-789.6"/>
<polygon fill="red" stroke="red" points="245.5,-789.74 249,-799.74 252.5,-789.74 245.5,-789.74"/>
</a>
</g>
<text text-anchor="middle" x="253.5" y="-435.3" font-family="Times-Roman" font-size="14.00">1</text>
</g>
<!-- Cut32&#45;&gt;I14 -->
<g id="edge24" class="edge">
<title>Cut32&#45;&gt;I14</title>
<g id="a_edge24"><a xlink:title="ret42">
<path fill="none" stroke="red" d="M331,-566.81C331,-558.79 331,-549.05 331,-540.07"/>
<polygon fill="red" stroke="red" points="334.5,-540.03 331,-530.03 327.5,-540.03 334.5,-540.03"/>
</a>
</g>
</g>
</g>
</svg>
