<?xml version="1.0" encoding="UTF-8" standalone="no"?>
<!DOCTYPE svg PUBLIC "-//W3C//DTD SVG 1.1//EN"
 "http://www.w3.org/Graphics/SVG/1.1/DTD/svg11.dtd">
<!-- Generated by graphviz version 2.43.0 (0)
 -->
<!-- Title: %3 Pages: 1 -->
<svg width="454pt" height="1839pt"
 viewBox="0.00 0.00 454.00 1839.00" xmlns="http://www.w3.org/2000/svg" xmlns:xlink="http://www.w3.org/1999/xlink">
<g id="graph0" class="graph" transform="scale(1 1) rotate(0) translate(4 1835)">
<title>%3</title>
<polygon fill="white" stroke="transparent" points="-4,4 -4,-1835 450,-1835 450,4 -4,4"/>
<!-- I0 -->
<g id="node1" class="node">
<title>I0</title>
<ellipse fill="none" stroke="black" cx="185" cy="-1813" rx="27" ry="18"/>
<text text-anchor="middle" x="185" y="-1809.3" font-family="Times-Roman" font-size="14.00">I</text>
</g>
<!-- !d1 -->
<g id="node2" class="node">
<title>!d1</title>
<ellipse fill="none" stroke="black" cx="130" cy="-1726" rx="27" ry="18"/>
<text text-anchor="middle" x="130" y="-1722.3" font-family="Times-Roman" font-size="14.00">!d</text>
</g>
<!-- I0&#45;&gt;!d1 -->
<g id="edge8" class="edge">
<title>I0&#45;&gt;!d1</title>
<g id="a_edge8"><a xlink:title="iret84">
<path fill="none" stroke="blue" d="M168.99,-1787.71C166.64,-1784.12 164.25,-1780.46 162,-1777 154.6,-1765.58 146.32,-1752.64 140.04,-1742.79"/>
<polygon fill="blue" stroke="blue" points="166.24,-1789.9 174.66,-1796.34 172.09,-1786.06 166.24,-1789.9"/>
</a>
</g>
<text text-anchor="middle" x="166.5" y="-1765.8" font-family="Times-Roman" font-size="14.00">3</text>
</g>
<!-- λ2 -->
<g id="node3" class="node">
<title>λ2</title>
<ellipse fill="none" stroke="black" cx="185" cy="-1639" rx="27" ry="18"/>
<text text-anchor="middle" x="185" y="-1635.3" font-family="Times-Roman" font-size="14.00">λ</text>
</g>
<!-- !d1&#45;&gt;λ2 -->
<g id="edge7" class="edge">
<title>!d1&#45;&gt;λ2</title>
<g id="a_edge7"><a xlink:title="i81">
<path fill="none" stroke="blue" d="M145.58,-1700.52C150.78,-1692.39 156.62,-1683.29 162,-1675 166.11,-1668.65 170.68,-1661.69 174.66,-1655.65"/>
<polygon fill="blue" stroke="blue" points="142.47,-1698.89 140.04,-1709.2 148.37,-1702.65 142.47,-1698.89"/>
</a>
</g>
<text text-anchor="middle" x="166.5" y="-1678.8" font-family="Times-Roman" font-size="14.00">3</text>
</g>
<!-- λ2&#45;&gt;I0 -->
<g id="edge31" class="edge">
<title>λ2&#45;&gt;I0</title>
<g id="a_edge31"><a xlink:title="ret82">
<path fill="none" stroke="red" d="M185,-1657.05C185,-1686.88 185,-1748.76 185,-1784.64"/>
<polygon fill="red" stroke="red" points="181.5,-1784.87 185,-1794.87 188.5,-1784.87 181.5,-1784.87"/>
</a>
</g>
</g>
<!-- !p3 -->
<g id="node4" class="node">
<title>!p3</title>
<ellipse fill="none" stroke="black" cx="240" cy="-1726" rx="27" ry="18"/>
<text text-anchor="middle" x="240" y="-1722.3" font-family="Times-Roman" font-size="14.00">!p</text>
</g>
<!-- !p3&#45;&gt;λ2 -->
<g id="edge23" class="edge">
<title>!p3&#45;&gt;λ2</title>
<g id="a_edge23"><a xlink:title="newrretf78">
<path fill="none" stroke="red" d="M229.65,-1709.01C221.51,-1696.42 210.03,-1678.67 200.74,-1664.33"/>
<polygon fill="red" stroke="red" points="203.67,-1662.41 195.3,-1655.91 197.79,-1666.21 203.67,-1662.41"/>
</a>
</g>
<text text-anchor="middle" x="220.5" y="-1678.8" font-family="Times-Roman" font-size="14.00">3</text>
</g>
<!-- I4 -->
<g id="node5" class="node">
<title>I4</title>
<ellipse fill="none" stroke="black" cx="366" cy="-1378" rx="27" ry="18"/>
<text text-anchor="middle" x="366" y="-1374.3" font-family="Times-Roman" font-size="14.00">I</text>
</g>
<!-- @5 -->
<g id="node6" class="node">
<title>@5</title>
<ellipse fill="none" stroke="black" cx="271" cy="-1813" rx="27" ry="18"/>
<text text-anchor="middle" x="271" y="-1809.3" font-family="Times-Roman" font-size="14.00">@</text>
</g>
<!-- I4&#45;&gt;@5 -->
<g id="edge12" class="edge">
<title>I4&#45;&gt;@5</title>
<g id="a_edge12"><a xlink:title="lret75">
<path fill="none" stroke="blue" d="M366.97,-1406.39C367.48,-1423.04 368,-1444.74 368,-1464 368,-1727 368,-1727 368,-1727 368,-1747.48 318.43,-1782.12 290.16,-1800.2"/>
<polygon fill="blue" stroke="blue" points="370.47,-1406.13 366.64,-1396.25 363.47,-1406.36 370.47,-1406.13"/>
</a>
</g>
</g>
<!-- @5&#45;&gt;!p3 -->
<g id="edge18" class="edge">
<title>@5&#45;&gt;!p3</title>
<g id="a_edge18"><a xlink:title="newrret74">
<path fill="none" stroke="red" d="M264.88,-1795.2C260.5,-1783.21 254.53,-1766.85 249.54,-1753.15"/>
<polygon fill="red" stroke="red" points="252.83,-1751.95 246.11,-1743.75 246.25,-1754.35 252.83,-1751.95"/>
</a>
</g>
<text text-anchor="middle" x="262.5" y="-1765.8" font-family="Times-Roman" font-size="14.00">2</text>
</g>
<!-- Cut8 -->
<g id="node9" class="node">
<title>Cut8</title>
<ellipse fill="none" stroke="black" cx="312" cy="-1726" rx="27" ry="18"/>
<text text-anchor="middle" x="312" y="-1722.3" font-family="Times-Roman" font-size="14.00">Cut</text>
</g>
<!-- @5&#45;&gt;Cut8 -->
<g id="edge14" class="edge">
<title>@5&#45;&gt;Cut8</title>
<g id="a_edge14"><a xlink:title="lval70">
<path fill="none" stroke="blue" d="M283.31,-1786.48C290.06,-1772.49 298.23,-1755.55 304.12,-1743.33"/>
<polygon fill="blue" stroke="blue" points="280.1,-1785.08 278.91,-1795.61 286.4,-1788.12 280.1,-1785.08"/>
</a>
</g>
</g>
<!-- I6 -->
<g id="node7" class="node">
<title>I6</title>
<ellipse fill="none" stroke="black" cx="312" cy="-1639" rx="27" ry="18"/>
<text text-anchor="middle" x="312" y="-1635.3" font-family="Times-Roman" font-size="14.00">I</text>
</g>
<!-- !d7 -->
<g id="node8" class="node">
<title>!d7</title>
<ellipse fill="none" stroke="black" cx="311" cy="-1552" rx="27" ry="18"/>
<text text-anchor="middle" x="311" y="-1548.3" font-family="Times-Roman" font-size="14.00">!d</text>
</g>
<!-- I6&#45;&gt;!d7 -->
<g id="edge6" class="edge">
<title>I6&#45;&gt;!d7</title>
<g id="a_edge6"><a xlink:title="hret73">
<path fill="none" stroke="blue" d="M311.68,-1610.73C311.52,-1597.41 311.34,-1581.8 311.2,-1570.17"/>
<polygon fill="blue" stroke="blue" points="308.18,-1610.84 311.8,-1620.79 315.18,-1610.75 308.18,-1610.84"/>
</a>
</g>
<text text-anchor="middle" x="315.5" y="-1591.8" font-family="Times-Roman" font-size="14.00">2</text>
</g>
<!-- !p9 -->
<g id="node10" class="node">
<title>!p9</title>
<ellipse fill="none" stroke="black" cx="311" cy="-1465" rx="27" ry="18"/>
<text text-anchor="middle" x="311" y="-1461.3" font-family="Times-Roman" font-size="14.00">!p</text>
</g>
<!-- !d7&#45;&gt;!p9 -->
<g id="edge5" class="edge">
<title>!d7&#45;&gt;!p9</title>
<g id="a_edge5"><a xlink:title="hf65">
<path fill="none" stroke="blue" d="M311,-1523.73C311,-1510.41 311,-1494.8 311,-1483.17"/>
<polygon fill="blue" stroke="blue" points="307.5,-1523.79 311,-1533.79 314.5,-1523.79 307.5,-1523.79"/>
</a>
</g>
<text text-anchor="middle" x="315.5" y="-1504.8" font-family="Times-Roman" font-size="14.00">1</text>
</g>
<!-- Cut8&#45;&gt;I6 -->
<g id="edge33" class="edge">
<title>Cut8&#45;&gt;I6</title>
<g id="a_edge33"><a xlink:title="rval71">
<path fill="none" stroke="red" d="M312,-1707.79C312,-1696.16 312,-1680.54 312,-1667.23"/>
<polygon fill="red" stroke="red" points="315.5,-1667.17 312,-1657.17 308.5,-1667.17 315.5,-1667.17"/>
</a>
</g>
</g>
<!-- !p9&#45;&gt;I4 -->
<g id="edge22" class="edge">
<title>!p9&#45;&gt;I4</title>
<g id="a_edge22"><a xlink:title="newrretf66">
<path fill="none" stroke="red" d="M321.35,-1448.01C329.49,-1435.42 340.97,-1417.67 350.26,-1403.33"/>
<polygon fill="red" stroke="red" points="353.21,-1405.21 355.7,-1394.91 347.33,-1401.41 353.21,-1405.21"/>
</a>
</g>
<text text-anchor="middle" x="345.5" y="-1417.8" font-family="Times-Roman" font-size="14.00">2</text>
</g>
<!-- Dup31 -->
<g id="node32" class="node">
<title>Dup31</title>
<ellipse fill="none" stroke="black" cx="127" cy="-1378" rx="28.7" ry="18"/>
<text text-anchor="middle" x="127" y="-1374.3" font-family="Times-Roman" font-size="14.00">Dup</text>
</g>
<!-- !p9&#45;&gt;Dup31 -->
<g id="edge4" class="edge">
<title>!p9&#45;&gt;Dup31</title>
<g id="a_edge4"><a xlink:title="h34">
<path fill="none" stroke="blue" d="M279.86,-1449.61C242.85,-1432.51 182.02,-1404.41 149.38,-1389.33"/>
<polygon fill="blue" stroke="blue" points="278.62,-1452.89 289.17,-1453.91 281.56,-1446.54 278.62,-1452.89"/>
</a>
</g>
<text text-anchor="middle" x="235.5" y="-1417.8" font-family="Times-Roman" font-size="14.00">1</text>
</g>
<!-- I10 -->
<g id="node11" class="node">
<title>I10</title>
<ellipse fill="none" stroke="black" cx="164" cy="-658" rx="27" ry="18"/>
<text text-anchor="middle" x="164" y="-654.3" font-family="Times-Roman" font-size="14.00">I</text>
</g>
<!-- Cut26 -->
<g id="node27" class="node">
<title>Cut26</title>
<ellipse fill="none" stroke="black" cx="164" cy="-585" rx="27" ry="18"/>
<text text-anchor="middle" x="164" y="-581.3" font-family="Times-Roman" font-size="14.00">Cut</text>
</g>
<!-- I10&#45;&gt;Cut26 -->
<g id="edge11" class="edge">
<title>I10&#45;&gt;Cut26</title>
<g id="a_edge11"><a xlink:title="lret62">
<path fill="none" stroke="blue" d="M164,-629.75C164,-620.77 164,-611.03 164,-603.03"/>
<polygon fill="blue" stroke="blue" points="160.5,-629.81 164,-639.81 167.5,-629.81 160.5,-629.81"/>
</a>
</g>
</g>
<!-- I11 -->
<g id="node12" class="node">
<title>I11</title>
<ellipse fill="none" stroke="black" cx="101" cy="-265" rx="27" ry="18"/>
<text text-anchor="middle" x="101" y="-261.3" font-family="Times-Roman" font-size="14.00">I</text>
</g>
<!-- !d12 -->
<g id="node13" class="node">
<title>!d12</title>
<ellipse fill="none" stroke="black" cx="143" cy="-178" rx="27" ry="18"/>
<text text-anchor="middle" x="143" y="-174.3" font-family="Times-Roman" font-size="14.00">!d</text>
</g>
<!-- I11&#45;&gt;!d12 -->
<g id="edge42" class="edge">
<title>I11&#45;&gt;!d12</title>
<g id="a_edge42"><a xlink:title="yret60">
<path fill="none" stroke="blue" d="M113.61,-238.49C120.52,-224.49 128.89,-207.56 134.93,-195.34"/>
<polygon fill="blue" stroke="blue" points="110.39,-237.1 109.1,-247.61 116.67,-240.2 110.39,-237.1"/>
</a>
</g>
<text text-anchor="middle" x="129.5" y="-217.8" font-family="Times-Roman" font-size="14.00">2</text>
</g>
<!-- !p13 -->
<g id="node14" class="node">
<title>!p13</title>
<ellipse fill="none" stroke="black" cx="164" cy="-352" rx="27" ry="18"/>
<text text-anchor="middle" x="164" y="-348.3" font-family="Times-Roman" font-size="14.00">!p</text>
</g>
<!-- !d12&#45;&gt;!p13 -->
<g id="edge40" class="edge">
<title>!d12&#45;&gt;!p13</title>
<g id="a_edge40"><a xlink:title="yBf56">
<path fill="none" stroke="blue" d="M146.33,-206.27C150.71,-242.11 158.26,-304 161.91,-333.88"/>
<polygon fill="blue" stroke="blue" points="149.77,-205.55 145.08,-196.05 142.82,-206.4 149.77,-205.55"/>
</a>
</g>
<text text-anchor="middle" x="160.5" y="-261.3" font-family="Times-Roman" font-size="14.00">1</text>
</g>
<!-- !p13&#45;&gt;I11 -->
<g id="edge21" class="edge">
<title>!p13&#45;&gt;I11</title>
<g id="a_edge21"><a xlink:title="newrretf57">
<path fill="none" stroke="red" d="M152.44,-335.41C142.94,-322.59 129.33,-304.22 118.49,-289.6"/>
<polygon fill="red" stroke="red" points="121.25,-287.44 112.48,-281.49 115.62,-291.61 121.25,-287.44"/>
</a>
</g>
<text text-anchor="middle" x="141.5" y="-304.8" font-family="Times-Roman" font-size="14.00">2</text>
</g>
<!-- !c19 -->
<g id="node20" class="node">
<title>!c19</title>
<ellipse fill="none" stroke="black" cx="256" cy="-91" rx="27" ry="18"/>
<text text-anchor="middle" x="256" y="-87.3" font-family="Times-Roman" font-size="14.00">!c</text>
</g>
<!-- !p13&#45;&gt;!c19 -->
<g id="edge39" class="edge">
<title>!p13&#45;&gt;!c19</title>
<g id="a_edge39"><a xlink:title="yB44">
<path fill="none" stroke="blue" d="M171.1,-324.34C183.22,-279.31 207.75,-190.14 220,-160 225.97,-145.31 234.15,-129.62 241.2,-117.01"/>
<polygon fill="blue" stroke="blue" points="167.72,-323.44 168.51,-334.01 174.48,-325.26 167.72,-323.44"/>
<polygon fill="blue" stroke="blue" points="249.36,-109.78 241.36,-116.73 243.28,-106.31 249.36,-109.78"/>
</a>
</g>
<text text-anchor="middle" x="206.5" y="-217.8" font-family="Times-Roman" font-size="14.00">1</text>
</g>
<!-- I14 -->
<g id="node15" class="node">
<title>I14</title>
<ellipse fill="none" stroke="black" cx="164" cy="-512" rx="27" ry="18"/>
<text text-anchor="middle" x="164" y="-508.3" font-family="Times-Roman" font-size="14.00">I</text>
</g>
<!-- @15 -->
<g id="node16" class="node">
<title>@15</title>
<ellipse fill="none" stroke="black" cx="164" cy="-439" rx="27" ry="18"/>
<text text-anchor="middle" x="164" y="-435.3" font-family="Times-Roman" font-size="14.00">@</text>
</g>
<!-- I14&#45;&gt;@15 -->
<g id="edge10" class="edge">
<title>I14&#45;&gt;@15</title>
<g id="a_edge10"><a xlink:title="lret53">
<path fill="none" stroke="blue" d="M164,-483.75C164,-474.77 164,-465.03 164,-457.03"/>
<polygon fill="blue" stroke="blue" points="160.5,-483.81 164,-493.81 167.5,-483.81 160.5,-483.81"/>
</a>
</g>
</g>
<!-- @15&#45;&gt;!p13 -->
<g id="edge16" class="edge">
<title>@15&#45;&gt;!p13</title>
<g id="a_edge16"><a xlink:title="newrret52">
<path fill="none" stroke="red" d="M164,-420.8C164,-409.16 164,-393.55 164,-380.24"/>
<polygon fill="red" stroke="red" points="167.5,-380.18 164,-370.18 160.5,-380.18 167.5,-380.18"/>
</a>
</g>
<text text-anchor="middle" x="168.5" y="-391.8" font-family="Times-Roman" font-size="14.00">1</text>
</g>
<!-- Cut18 -->
<g id="node19" class="node">
<title>Cut18</title>
<ellipse fill="none" stroke="black" cx="256" cy="-352" rx="27" ry="18"/>
<text text-anchor="middle" x="256" y="-348.3" font-family="Times-Roman" font-size="14.00">Cut</text>
</g>
<!-- @15&#45;&gt;Cut18 -->
<g id="edge13" class="edge">
<title>@15&#45;&gt;Cut18</title>
<g id="a_edge13"><a xlink:title="lval48">
<path fill="none" stroke="blue" d="M186.94,-416.8C203.76,-401.26 226.13,-380.6 240.79,-367.06"/>
<polygon fill="blue" stroke="blue" points="184.16,-414.61 179.19,-423.96 188.91,-419.75 184.16,-414.61"/>
</a>
</g>
</g>
<!-- I16 -->
<g id="node17" class="node">
<title>I16</title>
<ellipse fill="none" stroke="black" cx="256" cy="-265" rx="27" ry="18"/>
<text text-anchor="middle" x="256" y="-261.3" font-family="Times-Roman" font-size="14.00">I</text>
</g>
<!-- !d17 -->
<g id="node18" class="node">
<title>!d17</title>
<ellipse fill="none" stroke="black" cx="256" cy="-178" rx="27" ry="18"/>
<text text-anchor="middle" x="256" y="-174.3" font-family="Times-Roman" font-size="14.00">!d</text>
</g>
<!-- I16&#45;&gt;!d17 -->
<g id="edge41" class="edge">
<title>I16&#45;&gt;!d17</title>
<g id="a_edge41"><a xlink:title="yret51">
<path fill="none" stroke="blue" d="M256,-236.73C256,-223.42 256,-207.81 256,-196.18"/>
<polygon fill="blue" stroke="blue" points="252.5,-236.8 256,-246.8 259.5,-236.8 252.5,-236.8"/>
</a>
</g>
<text text-anchor="middle" x="260.5" y="-217.8" font-family="Times-Roman" font-size="14.00">1</text>
</g>
<!-- !d17&#45;&gt;!c19 -->
<g id="edge38" class="edge">
<title>!d17&#45;&gt;!c19</title>
<g id="a_edge38"><a xlink:title="yA43">
<path fill="none" stroke="blue" d="M256,-149.73C256,-136.42 256,-120.81 256,-109.18"/>
<polygon fill="blue" stroke="blue" points="252.5,-149.8 256,-159.8 259.5,-149.8 252.5,-149.8"/>
</a>
</g>
<text text-anchor="middle" x="260.5" y="-130.8" font-family="Times-Roman" font-size="14.00">1</text>
</g>
<!-- Cut18&#45;&gt;I16 -->
<g id="edge32" class="edge">
<title>Cut18&#45;&gt;I16</title>
<g id="a_edge32"><a xlink:title="rval49">
<path fill="none" stroke="red" d="M256,-333.8C256,-322.16 256,-306.55 256,-293.24"/>
<polygon fill="red" stroke="red" points="259.5,-293.18 256,-283.18 252.5,-293.18 259.5,-293.18"/>
</a>
</g>
</g>
<!-- Cut25 -->
<g id="node26" class="node">
<title>Cut25</title>
<ellipse fill="none" stroke="black" cx="311" cy="-18" rx="27" ry="18"/>
<text text-anchor="middle" x="311" y="-14.3" font-family="Times-Roman" font-size="14.00">Cut</text>
</g>
<!-- !c19&#45;&gt;Cut25 -->
<g id="edge37" class="edge">
<title>!c19&#45;&gt;Cut25</title>
<g id="a_edge37"><a xlink:title="y41">
<path fill="none" stroke="blue" d="M274.17,-66.54C282.37,-55.96 291.81,-43.77 299.09,-34.38"/>
<polygon fill="blue" stroke="blue" points="271.29,-64.55 267.93,-74.59 276.83,-68.83 271.29,-64.55"/>
</a>
</g>
</g>
<!-- I20 -->
<g id="node21" class="node">
<title>I20</title>
<ellipse fill="none" stroke="black" cx="127" cy="-1030" rx="27" ry="18"/>
<text text-anchor="middle" x="127" y="-1026.3" font-family="Times-Roman" font-size="14.00">I</text>
</g>
<!-- !d21 -->
<g id="node22" class="node">
<title>!d21</title>
<ellipse fill="none" stroke="black" cx="127" cy="-931" rx="27" ry="18"/>
<text text-anchor="middle" x="127" y="-927.3" font-family="Times-Roman" font-size="14.00">!d</text>
</g>
<!-- I20&#45;&gt;!d21 -->
<g id="edge36" class="edge">
<title>I20&#45;&gt;!d21</title>
<g id="a_edge36"><a xlink:title="xret26">
<path fill="none" stroke="blue" d="M127,-1001.32C127,-984.53 127,-963.63 127,-949.19"/>
<polygon fill="blue" stroke="blue" points="123.5,-1001.65 127,-1011.65 130.5,-1001.65 123.5,-1001.65"/>
</a>
</g>
<text text-anchor="middle" x="131.5" y="-982.8" font-family="Times-Roman" font-size="14.00">1</text>
</g>
<!-- !p22 -->
<g id="node23" class="node">
<title>!p22</title>
<ellipse fill="none" stroke="black" cx="127" cy="-1117" rx="27" ry="18"/>
<text text-anchor="middle" x="127" y="-1113.3" font-family="Times-Roman" font-size="14.00">!p</text>
</g>
<!-- !d21&#45;&gt;!p22 -->
<g id="edge35" class="edge">
<title>!d21&#45;&gt;!p22</title>
<g id="a_edge35"><a xlink:title="xBf22">
<path fill="none" stroke="blue" d="M142.71,-956.46C155.74,-979.77 170.95,-1015.98 163,-1048 158.2,-1067.31 146.79,-1087.18 138.1,-1100.41"/>
<polygon fill="blue" stroke="blue" points="145.59,-954.45 137.51,-947.6 139.55,-957.99 145.59,-954.45"/>
</a>
</g>
<text text-anchor="middle" x="170.5" y="-1026.3" font-family="Times-Roman" font-size="14.00">0</text>
</g>
<!-- !p22&#45;&gt;I20 -->
<g id="edge20" class="edge">
<title>!p22&#45;&gt;I20</title>
<g id="a_edge20"><a xlink:title="newrretf23">
<path fill="none" stroke="red" d="M127,-1098.79C127,-1087.16 127,-1071.54 127,-1058.23"/>
<polygon fill="red" stroke="red" points="130.5,-1058.17 127,-1048.17 123.5,-1058.17 130.5,-1058.17"/>
</a>
</g>
<text text-anchor="middle" x="131.5" y="-1069.8" font-family="Times-Roman" font-size="14.00">1</text>
</g>
<!-- Cut28 -->
<g id="node29" class="node">
<title>Cut28</title>
<ellipse fill="none" stroke="black" cx="55" cy="-1030" rx="27" ry="18"/>
<text text-anchor="middle" x="55" y="-1026.3" font-family="Times-Roman" font-size="14.00">Cut</text>
</g>
<!-- !p22&#45;&gt;Cut28 -->
<g id="edge34" class="edge">
<title>!p22&#45;&gt;Cut28</title>
<g id="a_edge34"><a xlink:title="xB10">
<path fill="none" stroke="blue" d="M107.52,-1093C94.89,-1078.08 78.78,-1059.07 67.76,-1046.06"/>
<polygon fill="blue" stroke="blue" points="104.99,-1095.43 114.13,-1100.8 110.34,-1090.91 104.99,-1095.43"/>
</a>
</g>
<text text-anchor="middle" x="100.5" y="-1069.8" font-family="Times-Roman" font-size="14.00">0</text>
</g>
<!-- I23 -->
<g id="node24" class="node">
<title>I23</title>
<ellipse fill="none" stroke="black" cx="244" cy="-1030" rx="27" ry="18"/>
<text text-anchor="middle" x="244" y="-1026.3" font-family="Times-Roman" font-size="14.00">I</text>
</g>
<!-- Cut37 -->
<g id="node38" class="node">
<title>Cut37</title>
<ellipse fill="none" stroke="black" cx="202" cy="-931" rx="26" ry="26"/>
<ellipse fill="none" stroke="black" cx="202" cy="-931" rx="30" ry="30"/>
<text text-anchor="middle" x="202" y="-927.3" font-family="Times-Roman" font-size="14.00">Cut</text>
</g>
<!-- I23&#45;&gt;Cut37 -->
<g id="edge9" class="edge">
<title>I23&#45;&gt;Cut37</title>
<g id="a_edge9"><a xlink:title="lret19">
<path fill="none" stroke="blue" stroke-width="2" d="M232.83,-1003.2C226.9,-989.49 219.61,-972.66 213.61,-958.81"/>
<polygon fill="blue" stroke="blue" stroke-width="2" points="229.69,-1004.76 236.88,-1012.54 236.11,-1001.97 229.69,-1004.76"/>
</a>
</g>
</g>
<!-- Assign24 -->
<g id="node25" class="node">
<title>Assign24</title>
<ellipse fill="none" stroke="black" cx="244" cy="-1117" rx="38.99" ry="18"/>
<text text-anchor="middle" x="244" y="-1113.3" font-family="Times-Roman" font-size="14.00">Assign</text>
</g>
<!-- Assign24&#45;&gt;I23 -->
<g id="edge30" class="edge">
<title>Assign24&#45;&gt;I23</title>
<g id="a_edge30"><a xlink:title="ret8">
<path fill="none" stroke="red" stroke-width="2" d="M244,-1098.79C244,-1087.16 244,-1071.54 244,-1058.23"/>
<polygon fill="red" stroke="red" stroke-width="2" points="247.5,-1058.17 244,-1048.17 240.5,-1058.17 247.5,-1058.17"/>
</a>
</g>
</g>
<!-- Cut25&#45;&gt;!p9 -->
<g id="edge17" class="edge">
<title>Cut25&#45;&gt;!p9</title>
<g id="a_edge17"><a xlink:title="newrret61">
<path fill="none" stroke="red" d="M311,-36.22C311,-50.59 311,-71.63 311,-90 311,-1379 311,-1379 311,-1379 311,-1398.24 311,-1419.94 311,-1436.6"/>
<polygon fill="red" stroke="red" points="307.5,-1436.74 311,-1446.74 314.5,-1436.74 307.5,-1436.74"/>
</a>
</g>
<text text-anchor="middle" x="315.5" y="-697.8" font-family="Times-Roman" font-size="14.00">1</text>
</g>
<!-- Cut26&#45;&gt;I14 -->
<g id="edge29" class="edge">
<title>Cut26&#45;&gt;I14</title>
<g id="a_edge29"><a xlink:title="ret42">
<path fill="none" stroke="red" d="M164,-566.81C164,-558.79 164,-549.05 164,-540.07"/>
<polygon fill="red" stroke="red" points="167.5,-540.03 164,-530.03 160.5,-540.03 167.5,-540.03"/>
</a>
</g>
</g>
<!-- !p27 -->
<g id="node28" class="node">
<title>!p27</title>
<ellipse fill="none" stroke="black" cx="55" cy="-931" rx="27" ry="18"/>
<text text-anchor="middle" x="55" y="-927.3" font-family="Times-Roman" font-size="14.00">!p</text>
</g>
<!-- λ29 -->
<g id="node30" class="node">
<title>λ29</title>
<ellipse fill="none" stroke="black" cx="55" cy="-832" rx="27" ry="18"/>
<text text-anchor="middle" x="55" y="-828.3" font-family="Times-Roman" font-size="14.00">λ</text>
</g>
<!-- !p27&#45;&gt;λ29 -->
<g id="edge24" class="edge">
<title>!p27&#45;&gt;λ29</title>
<g id="a_edge24"><a xlink:title="newrretf92">
<path fill="none" stroke="red" d="M55,-912.66C55,-898.17 55,-877.26 55,-860.5"/>
<polygon fill="red" stroke="red" points="58.5,-860.19 55,-850.19 51.5,-860.19 58.5,-860.19"/>
</a>
</g>
<text text-anchor="middle" x="59.5" y="-871.8" font-family="Times-Roman" font-size="14.00">1</text>
</g>
<!-- Cut28&#45;&gt;!p27 -->
<g id="edge19" class="edge">
<title>Cut28&#45;&gt;!p27</title>
<g id="a_edge19"><a xlink:title="newrret94">
<path fill="none" stroke="red" d="M55,-1011.65C55,-997.17 55,-976.26 55,-959.5"/>
<polygon fill="red" stroke="red" points="58.5,-959.19 55,-949.19 51.5,-959.19 58.5,-959.19"/>
</a>
</g>
<text text-anchor="middle" x="59.5" y="-982.8" font-family="Times-Roman" font-size="14.00">0</text>
</g>
<!-- Dup32 -->
<g id="node33" class="node">
<title>Dup32</title>
<ellipse fill="none" stroke="black" cx="164" cy="-745" rx="28.7" ry="18"/>
<text text-anchor="middle" x="164" y="-741.3" font-family="Times-Roman" font-size="14.00">Dup</text>
</g>
<!-- λ29&#45;&gt;Dup32 -->
<g id="edge26" class="edge">
<title>λ29&#45;&gt;Dup32</title>
<g id="a_edge26"><a xlink:title="ret106">
<path fill="none" stroke="red" d="M72.03,-817.72C89.92,-803.77 118.26,-781.67 138.75,-765.69"/>
<polygon fill="none" stroke="red" points="141,-768.38 146.73,-759.47 136.69,-762.86 141,-768.38"/>
</a>
</g>
<text text-anchor="middle" x="121.5" y="-784.8" font-family="Times-Roman" font-size="14.00">1</text>
</g>
<!-- Dup30 -->
<g id="node31" class="node">
<title>Dup30</title>
<ellipse fill="none" stroke="black" cx="345" cy="-1813" rx="28.7" ry="18"/>
<text text-anchor="middle" x="345" y="-1809.3" font-family="Times-Roman" font-size="14.00">Dup</text>
</g>
<!-- Dup31&#45;&gt;λ29 -->
<g id="edge2" class="edge">
<title>Dup31&#45;&gt;λ29</title>
<g id="a_edge2"><a xlink:title="h105">
<path fill="none" stroke="blue" d="M89.95,-1368.91C52.46,-1358.3 0,-1335.65 0,-1292 0,-1292 0,-1292 0,-930 0,-897.09 24.25,-865.11 40.55,-847.34"/>
<polygon fill="none" stroke="blue" points="89.5,-1372.42 100.07,-1371.6 91.3,-1365.65 89.5,-1372.42"/>
</a>
</g>
<text text-anchor="middle" x="4.5" y="-1113.3" font-family="Times-Roman" font-size="14.00">1</text>
</g>
<!-- Lift34 -->
<g id="node35" class="node">
<title>Lift34</title>
<ellipse fill="none" stroke="black" cx="127" cy="-1291" rx="27" ry="18"/>
<text text-anchor="middle" x="127" y="-1287.3" font-family="Times-Roman" font-size="14.00">Lift</text>
</g>
<!-- Dup31&#45;&gt;Lift34 -->
<g id="edge1" class="edge">
<title>Dup31&#45;&gt;Lift34</title>
<g id="a_edge1"><a xlink:title="h101">
<path fill="none" stroke="blue" d="M127,-1349.73C127,-1336.41 127,-1320.8 127,-1309.17"/>
<polygon fill="blue" stroke="blue" points="123.5,-1349.79 127,-1359.79 130.5,-1349.79 123.5,-1349.79"/>
</a>
</g>
<text text-anchor="middle" x="131.5" y="-1330.8" font-family="Times-Roman" font-size="14.00">1</text>
</g>
<!-- Dup32&#45;&gt;I10 -->
<g id="edge28" class="edge">
<title>Dup32&#45;&gt;I10</title>
<g id="a_edge28"><a xlink:title="ret35">
<path fill="none" stroke="red" d="M164,-726.8C164,-715.16 164,-699.55 164,-686.24"/>
<polygon fill="red" stroke="red" points="167.5,-686.18 164,-676.18 160.5,-686.18 167.5,-686.18"/>
</a>
</g>
<text text-anchor="middle" x="168.5" y="-697.8" font-family="Times-Roman" font-size="14.00">1</text>
</g>
<!-- Lift33 -->
<g id="node34" class="node">
<title>Lift33</title>
<ellipse fill="none" stroke="black" cx="419" cy="-1813" rx="27" ry="18"/>
<text text-anchor="middle" x="419" y="-1809.3" font-family="Times-Roman" font-size="14.00">Lift</text>
</g>
<!-- Cut36 -->
<g id="node37" class="node">
<title>Cut36</title>
<ellipse fill="none" stroke="black" cx="127" cy="-1204" rx="27" ry="18"/>
<text text-anchor="middle" x="127" y="-1200.3" font-family="Times-Roman" font-size="14.00">Cut</text>
</g>
<!-- Lift34&#45;&gt;Cut36 -->
<g id="edge3" class="edge">
<title>Lift34&#45;&gt;Cut36</title>
<g id="a_edge3"><a xlink:title="h109">
<path fill="none" stroke="blue" d="M127,-1262.73C127,-1249.41 127,-1233.8 127,-1222.17"/>
<polygon fill="blue" stroke="blue" points="123.5,-1262.79 127,-1272.79 130.5,-1262.79 123.5,-1262.79"/>
</a>
</g>
<text text-anchor="middle" x="131.5" y="-1243.8" font-family="Times-Roman" font-size="14.00">0</text>
</g>
<!-- Lift35 -->
<g id="node36" class="node">
<title>Lift35</title>
<ellipse fill="none" stroke="black" cx="192" cy="-832" rx="27" ry="18"/>
<text text-anchor="middle" x="192" y="-828.3" font-family="Times-Roman" font-size="14.00">Lift</text>
</g>
<!-- Lift35&#45;&gt;Dup32 -->
<g id="edge25" class="edge">
<title>Lift35&#45;&gt;Dup32</title>
<g id="a_edge25"><a xlink:title="ret102">
<path fill="none" stroke="red" d="M186.47,-814.21C182.56,-802.33 177.23,-786.17 172.75,-772.56"/>
<polygon fill="red" stroke="red" points="175.97,-771.16 169.52,-762.76 169.32,-773.35 175.97,-771.16"/>
</a>
</g>
<text text-anchor="middle" x="184.5" y="-784.8" font-family="Times-Roman" font-size="14.00">1</text>
</g>
<!-- Cut36&#45;&gt;!p22 -->
<g id="edge15" class="edge">
<title>Cut36&#45;&gt;!p22</title>
<g id="a_edge15"><a xlink:title="newrret18">
<path fill="none" stroke="red" d="M127,-1185.79C127,-1174.16 127,-1158.54 127,-1145.23"/>
<polygon fill="red" stroke="red" points="130.5,-1145.17 127,-1135.17 123.5,-1145.17 130.5,-1145.17"/>
</a>
</g>
<text text-anchor="middle" x="131.5" y="-1156.8" font-family="Times-Roman" font-size="14.00">0</text>
</g>
<!-- Cut37&#45;&gt;Lift35 -->
<g id="edge27" class="edge">
<title>Cut37&#45;&gt;Lift35</title>
<g id="a_edge27"><a xlink:title="ret110">
<path fill="none" stroke="red" d="M199,-900.9C197.67,-887.99 196.11,-872.89 194.81,-860.22"/>
<polygon fill="red" stroke="red" points="198.28,-859.82 193.78,-850.24 191.32,-860.54 198.28,-859.82"/>
</a>
</g>
<text text-anchor="middle" x="201.5" y="-871.8" font-family="Times-Roman" font-size="14.00">0</text>
</g>
</g>
</svg>
