<?xml version="1.0" encoding="UTF-8" standalone="no"?>
<!DOCTYPE svg PUBLIC "-//W3C//DTD SVG 1.1//EN"
 "http://www.w3.org/Graphics/SVG/1.1/DTD/svg11.dtd">
<!-- Generated by graphviz version 2.49.3 (0)
 -->
<!-- Pages: 1 -->
<svg width="648pt" height="1166pt"
 viewBox="0.00 0.00 647.69 1165.80" xmlns="http://www.w3.org/2000/svg" xmlns:xlink="http://www.w3.org/1999/xlink">
<g id="graph0" class="graph" transform="scale(1 1) rotate(0) translate(4 1161.8)">
<polygon fill="white" stroke="transparent" points="-4,4 -4,-1161.8 643.69,-1161.8 643.69,4 -4,4"/>
<!-- Identity0 -->
<g id="node1" class="node">
<title>Identity0</title>
<ellipse fill="none" stroke="black" cx="420.35" cy="-1139.8" rx="38.19" ry="18"/>
<text text-anchor="middle" x="420.35" y="-1136.1" font-family="Times,serif" font-size="14.00">Identity</text>
</g>
<!-- BangD1 -->
<g id="node2" class="node">
<title>BangD1</title>
<ellipse fill="none" stroke="black" cx="420.35" cy="-1052.8" rx="36" ry="18"/>
<text text-anchor="middle" x="420.35" y="-1049.1" font-family="Times,serif" font-size="14.00">BangD</text>
</g>
<!-- BangD1&#45;&gt;Identity0 -->
<g id="edge31" class="edge">
<title>BangD1&#45;&gt;Identity0</title>
<g id="a_edge31"><a xlink:title="iret84">
<path fill="none" stroke="blue" d="M425.4,-1070.87C427.67,-1080.5 429.59,-1092.79 428.35,-1103.8 428.04,-1106.49 427.61,-1109.28 427.1,-1112.05"/>
<polygon fill="blue" stroke="blue" points="423.68,-1111.33 425.03,-1121.84 430.53,-1112.78 423.68,-1111.33"/>
</a>
</g>
<text text-anchor="middle" x="431.85" y="-1092.6" font-family="Times,serif" font-size="14.00">3</text>
</g>
<!-- BangD1&#45;&gt;Identity0 -->
<g id="edge32" class="edge">
<title>BangD1&#45;&gt;Identity0</title>
<g id="a_edge32"><a xlink:title="iseq83">
<path fill="none" stroke="black" d="M420.35,-1071C420.35,-1082.63 420.35,-1098.25 420.35,-1111.56"/>
<polygon fill="black" stroke="black" points="416.85,-1111.62 420.35,-1121.62 423.85,-1111.62 416.85,-1111.62"/>
</a>
</g>
<text text-anchor="middle" x="423.85" y="-1092.6" font-family="Times,serif" font-size="14.00">3</text>
</g>
<!-- PiR2 -->
<g id="node3" class="node">
<title>PiR2</title>
<ellipse fill="none" stroke="black" cx="420.35" cy="-965.8" rx="27" ry="18"/>
<text text-anchor="middle" x="420.35" y="-962.1" font-family="Times,serif" font-size="14.00">PiR</text>
</g>
<!-- PiR2&#45;&gt;Identity0 -->
<g id="edge57" class="edge">
<title>PiR2&#45;&gt;Identity0</title>
<g id="a_edge57"><a xlink:title="ret82">
<path fill="none" stroke="red" d="M433.96,-981.66C444.83,-994.61 459.23,-1014.46 465.35,-1034.8 469.96,-1050.12 469.96,-1055.47 465.35,-1070.8 460.51,-1086.88 450.49,-1102.66 441.13,-1114.96"/>
<polygon fill="red" stroke="red" points="438.32,-1112.88 434.83,-1122.88 443.8,-1117.23 438.32,-1112.88"/>
</a>
</g>
</g>
<!-- PiR2&#45;&gt;BangD1 -->
<g id="edge25" class="edge">
<title>PiR2&#45;&gt;BangD1</title>
<g id="a_edge25"><a xlink:title="i81">
<path fill="none" stroke="blue" d="M405.82,-981.17C400.86,-987.05 395.92,-994.24 393.35,-1001.8 390.26,-1010.85 393.38,-1020.21 398.46,-1028.36"/>
<polygon fill="blue" stroke="blue" points="395.79,-1030.64 404.52,-1036.64 401.44,-1026.51 395.79,-1030.64"/>
</a>
</g>
<text text-anchor="middle" x="396.85" y="-1005.6" font-family="Times,serif" font-size="14.00">3</text>
</g>
<!-- PiR2&#45;&gt;BangD1 -->
<g id="edge69" class="edge">
<title>PiR2&#45;&gt;BangD1</title>
<g id="a_edge69"><a xlink:title="seq80">
<path fill="none" stroke="black" d="M420.35,-984C420.35,-995.63 420.35,-1011.25 420.35,-1024.56"/>
<polygon fill="black" stroke="black" points="416.85,-1024.62 420.35,-1034.62 423.85,-1024.62 416.85,-1024.62"/>
</a>
</g>
<text text-anchor="middle" x="423.85" y="-1005.6" font-family="Times,serif" font-size="14.00">3</text>
</g>
<!-- Bang3 -->
<g id="node4" class="node">
<title>Bang3</title>
<ellipse fill="none" stroke="black" cx="420.35" cy="-878.8" rx="29.5" ry="18"/>
<text text-anchor="middle" x="420.35" y="-875.1" font-family="Times,serif" font-size="14.00">Bang</text>
</g>
<!-- Bang3&#45;&gt;PiR2 -->
<g id="edge5" class="edge">
<title>Bang3&#45;&gt;PiR2</title>
<g id="a_edge5"><a xlink:title="c_bseq79">
<path fill="none" stroke="black" d="M420.35,-897C420.35,-908.63 420.35,-924.25 420.35,-937.56"/>
<polygon fill="black" stroke="black" points="416.85,-937.62 420.35,-947.62 423.85,-937.62 416.85,-937.62"/>
</a>
</g>
<text text-anchor="middle" x="423.85" y="-918.6" font-family="Times,serif" font-size="14.00">3</text>
</g>
<!-- Bang3&#45;&gt;PiR2 -->
<g id="edge52" class="edge">
<title>Bang3&#45;&gt;PiR2</title>
<g id="a_edge52"><a xlink:title="newrretf78">
<path fill="none" stroke="red" d="M425.4,-896.87C427.67,-906.5 429.59,-918.79 428.35,-929.8 428.04,-932.49 427.61,-935.28 427.1,-938.05"/>
<polygon fill="red" stroke="red" points="423.68,-937.33 425.03,-947.84 430.53,-938.78 423.68,-937.33"/>
</a>
</g>
<text text-anchor="middle" x="431.85" y="-918.6" font-family="Times,serif" font-size="14.00">3</text>
</g>
<!-- Identity4 -->
<g id="node5" class="node">
<title>Identity4</title>
<ellipse fill="none" stroke="black" cx="506.35" cy="-878.8" rx="38.19" ry="18"/>
<text text-anchor="middle" x="506.35" y="-875.1" font-family="Times,serif" font-size="14.00">Identity</text>
</g>
<!-- PiL5 -->
<g id="node6" class="node">
<title>PiL5</title>
<ellipse fill="none" stroke="black" cx="475.35" cy="-791.8" rx="27" ry="18"/>
<text text-anchor="middle" x="475.35" y="-788.1" font-family="Times,serif" font-size="14.00">PiL</text>
</g>
<!-- PiL5&#45;&gt;Bang3 -->
<g id="edge20" class="edge">
<title>PiL5&#45;&gt;Bang3</title>
<g id="a_edge20"><a xlink:title="dseq76">
<path fill="none" stroke="black" d="M462.75,-808.12C458.03,-814.11 452.75,-821.14 448.35,-827.8 443.22,-835.55 438.11,-844.31 433.68,-852.3"/>
<polygon fill="black" stroke="black" points="430.53,-850.77 428.84,-861.22 436.68,-854.1 430.53,-850.77"/>
</a>
</g>
<text text-anchor="middle" x="451.85" y="-831.6" font-family="Times,serif" font-size="14.00">2</text>
</g>
<!-- PiL5&#45;&gt;Bang3 -->
<g id="edge47" class="edge">
<title>PiL5&#45;&gt;Bang3</title>
<g id="a_edge47"><a xlink:title="newrret74">
<path fill="none" stroke="red" d="M469.55,-809.74C465.72,-819.79 460.16,-832.52 453.35,-842.8 450.37,-847.29 446.79,-851.75 443.11,-855.9"/>
<polygon fill="red" stroke="red" points="440.32,-853.75 436.02,-863.43 445.42,-858.54 440.32,-853.75"/>
</a>
</g>
<text text-anchor="middle" x="464.85" y="-831.6" font-family="Times,serif" font-size="14.00">2</text>
</g>
<!-- PiL5&#45;&gt;Identity4 -->
<g id="edge30" class="edge">
<title>PiL5&#45;&gt;Identity4</title>
<g id="a_edge30"><a xlink:title="idseq77">
<path fill="none" stroke="black" d="M478.88,-819.87C482.09,-830.24 486.42,-842.04 490.79,-852.26"/>
<polygon fill="black" stroke="black" points="479.44,-809.04 478.81,-819.61 472.71,-810.96 479.44,-809.04"/>
<polygon fill="black" stroke="black" points="487.65,-853.81 494.95,-861.49 494.03,-850.93 487.65,-853.81"/>
</a>
</g>
</g>
<!-- PiL5&#45;&gt;Identity4 -->
<g id="edge37" class="edge">
<title>PiL5&#45;&gt;Identity4</title>
<g id="a_edge37"><a xlink:title="lret75">
<path fill="none" stroke="blue" d="M486.4,-808.39C492.16,-820.26 498.55,-836.91 502.87,-850.92"/>
<polygon fill="blue" stroke="blue" points="499.51,-851.89 505.61,-860.55 506.24,-849.97 499.51,-851.89"/>
</a>
</g>
</g>
<!-- Identity6 -->
<g id="node7" class="node">
<title>Identity6</title>
<ellipse fill="none" stroke="black" cx="601.35" cy="-878.8" rx="38.19" ry="18"/>
<text text-anchor="middle" x="601.35" y="-875.1" font-family="Times,serif" font-size="14.00">Identity</text>
</g>
<!-- BangD7 -->
<g id="node8" class="node">
<title>BangD7</title>
<ellipse fill="none" stroke="black" cx="556.35" cy="-791.8" rx="36" ry="18"/>
<text text-anchor="middle" x="556.35" y="-788.1" font-family="Times,serif" font-size="14.00">BangD</text>
</g>
<!-- BangD7&#45;&gt;Identity6 -->
<g id="edge23" class="edge">
<title>BangD7&#45;&gt;Identity6</title>
<g id="a_edge23"><a xlink:title="hret73">
<path fill="none" stroke="blue" d="M557.28,-809.84C558.42,-819.91 560.92,-832.65 566.35,-842.8 568.71,-847.2 571.8,-851.42 575.18,-855.3"/>
<polygon fill="blue" stroke="blue" points="572.89,-857.97 582.35,-862.74 577.93,-853.11 572.89,-857.97"/>
</a>
</g>
<text text-anchor="middle" x="569.85" y="-831.6" font-family="Times,serif" font-size="14.00">2</text>
</g>
<!-- BangD7&#45;&gt;Identity6 -->
<g id="edge24" class="edge">
<title>BangD7&#45;&gt;Identity6</title>
<g id="a_edge24"><a xlink:title="hseq72">
<path fill="none" stroke="black" d="M565.24,-809.59C571.65,-821.7 580.42,-838.26 587.71,-852.04"/>
<polygon fill="black" stroke="black" points="584.7,-853.84 592.47,-861.04 590.89,-850.56 584.7,-853.84"/>
</a>
</g>
<text text-anchor="middle" x="584.85" y="-831.6" font-family="Times,serif" font-size="14.00">2</text>
</g>
<!-- Cut8 -->
<g id="node9" class="node">
<title>Cut8</title>
<ellipse fill="none" stroke="black" cx="475.35" cy="-695.4" rx="23.31" ry="23.31"/>
<ellipse fill="none" stroke="black" cx="475.35" cy="-695.4" rx="27.3" ry="27.3"/>
<text text-anchor="middle" x="475.35" y="-691.7" font-family="Times,serif" font-size="14.00">Cut</text>
</g>
<!-- Cut8&#45;&gt;PiL5 -->
<g id="edge10" class="edge">
<title>Cut8&#45;&gt;PiL5</title>
<g id="a_edge10"><a xlink:title="c_lseq68">
<path fill="none" stroke="black" d="M468.77,-732.28C468.44,-742.79 468.58,-754.1 469.19,-763.95"/>
<polygon fill="black" stroke="black" points="472.75,-722.36 468.78,-732.18 465.76,-722.02 472.75,-722.36"/>
<polygon fill="black" stroke="black" points="465.7,-764.29 470.04,-773.96 472.68,-763.7 465.7,-764.29"/>
</a>
</g>
</g>
<!-- Cut8&#45;&gt;PiL5 -->
<g id="edge42" class="edge">
<title>Cut8&#45;&gt;PiL5</title>
<g id="a_edge42"><a xlink:title="lval70">
<path fill="none" stroke="blue" d="M481.44,-722.19C482.29,-735.07 482.32,-750.65 481.52,-763.7"/>
<polygon fill="blue" stroke="blue" points="478.01,-763.7 480.66,-773.96 484.98,-764.29 478.01,-763.7"/>
</a>
</g>
</g>
<!-- Cut8&#45;&gt;Identity6 -->
<g id="edge63" class="edge">
<title>Cut8&#45;&gt;Identity6</title>
<g id="a_edge63"><a xlink:title="rval71">
<path fill="none" stroke="red" stroke-width="2" d="M499.13,-709.35C534.03,-728.59 595.63,-763.57 601.35,-773.8 614.45,-797.22 612.33,-828.52 608.26,-850.64"/>
<polygon fill="red" stroke="red" stroke-width="2" points="604.78,-850.18 606.16,-860.68 611.63,-851.61 604.78,-850.18"/>
</a>
</g>
</g>
<!-- Cut8&#45;&gt;BangD7 -->
<g id="edge15" class="edge">
<title>Cut8&#45;&gt;BangD7</title>
<g id="a_edge15"><a xlink:title="c_rseq69">
<path fill="none" stroke="black" d="M492.92,-716.88C505.68,-731.75 522.96,-751.89 536.27,-767.4"/>
<polygon fill="black" stroke="black" points="533.65,-769.72 542.82,-775.03 538.96,-765.16 533.65,-769.72"/>
</a>
</g>
<text text-anchor="middle" x="528.85" y="-744.6" font-family="Times,serif" font-size="14.00">2</text>
</g>
<!-- Bang9 -->
<g id="node10" class="node">
<title>Bang9</title>
<ellipse fill="none" stroke="black" cx="412.35" cy="-599" rx="29.5" ry="18"/>
<text text-anchor="middle" x="412.35" y="-595.3" font-family="Times,serif" font-size="14.00">Bang</text>
</g>
<!-- Bang9&#45;&gt;Identity4 -->
<g id="edge51" class="edge">
<title>Bang9&#45;&gt;Identity4</title>
<g id="a_edge51"><a xlink:title="newrretf66">
<path fill="none" stroke="red" d="M408.69,-616.88C400.52,-659.21 385.16,-771.57 434.35,-842.8 438.75,-849.18 452.99,-856.64 467.66,-863.04"/>
<polygon fill="red" stroke="red" points="466.68,-866.42 477.26,-867.06 469.39,-859.97 466.68,-866.42"/>
</a>
</g>
<text text-anchor="middle" x="405.85" y="-744.6" font-family="Times,serif" font-size="14.00">2</text>
</g>
<!-- Bang9&#45;&gt;BangD7 -->
<g id="edge22" class="edge">
<title>Bang9&#45;&gt;BangD7</title>
<g id="a_edge22"><a xlink:title="hf65">
<path fill="none" stroke="blue" d="M435.04,-610.4C457.33,-621.67 490.89,-641.65 511.35,-668 533.5,-696.53 545.49,-737.02 551.4,-763.59"/>
<polygon fill="blue" stroke="blue" points="548.05,-764.63 553.51,-773.71 554.9,-763.21 548.05,-764.63"/>
</a>
</g>
<text text-anchor="middle" x="542.85" y="-691.7" font-family="Times,serif" font-size="14.00">1</text>
</g>
<!-- Bang9&#45;&gt;Cut8 -->
<g id="edge4" class="edge">
<title>Bang9&#45;&gt;Cut8</title>
<g id="a_edge4"><a xlink:title="c_bseq67">
<path fill="none" stroke="black" d="M423.03,-616.01C431.74,-629.06 444.29,-647.87 454.92,-663.79"/>
<polygon fill="black" stroke="black" points="452.12,-665.9 460.58,-672.28 457.94,-662.02 452.12,-665.9"/>
</a>
</g>
<text text-anchor="middle" x="446.85" y="-638.8" font-family="Times,serif" font-size="14.00">2</text>
</g>
<!-- Identity10 -->
<g id="node11" class="node">
<title>Identity10</title>
<ellipse fill="none" stroke="black" cx="498.35" cy="-599" rx="38.19" ry="18"/>
<text text-anchor="middle" x="498.35" y="-595.3" font-family="Times,serif" font-size="14.00">Identity</text>
</g>
<!-- PiL11 -->
<g id="node12" class="node">
<title>PiL11</title>
<ellipse fill="none" stroke="black" cx="382.35" cy="-512" rx="27" ry="18"/>
<text text-anchor="middle" x="382.35" y="-508.3" font-family="Times,serif" font-size="14.00">PiL</text>
</g>
<!-- PiL11&#45;&gt;Bang9 -->
<g id="edge19" class="edge">
<title>PiL11&#45;&gt;Bang9</title>
<g id="a_edge19"><a xlink:title="dseq63">
<path fill="none" stroke="black" d="M380.92,-530.18C380.69,-540.08 381.44,-552.58 385.35,-563 386.89,-567.12 389.1,-571.16 391.6,-574.93"/>
<polygon fill="black" stroke="black" points="388.98,-577.28 397.77,-583.2 394.59,-573.09 388.98,-577.28"/>
</a>
</g>
<text text-anchor="middle" x="388.85" y="-551.8" font-family="Times,serif" font-size="14.00">1</text>
</g>
<!-- PiL11&#45;&gt;Bang9 -->
<g id="edge46" class="edge">
<title>PiL11&#45;&gt;Bang9</title>
<g id="a_edge46"><a xlink:title="newrret61">
<path fill="none" stroke="red" d="M388.27,-529.79C392.46,-541.67 398.17,-557.83 402.97,-571.44"/>
<polygon fill="red" stroke="red" points="399.8,-572.98 406.43,-581.24 406.4,-570.65 399.8,-572.98"/>
</a>
</g>
<text text-anchor="middle" x="401.85" y="-551.8" font-family="Times,serif" font-size="14.00">1</text>
</g>
<!-- PiL11&#45;&gt;Identity10 -->
<g id="edge29" class="edge">
<title>PiL11&#45;&gt;Identity10</title>
<g id="a_edge29"><a xlink:title="idseq64">
<path fill="none" stroke="black" d="M404.88,-533.84C422.53,-547.64 447.1,-565.6 466.69,-579.01"/>
<polygon fill="black" stroke="black" points="398.99,-524.68 404.64,-533.64 394.63,-530.16 398.99,-524.68"/>
<polygon fill="black" stroke="black" points="464.78,-581.94 475.03,-584.63 468.7,-576.14 464.78,-581.94"/>
</a>
</g>
</g>
<!-- PiL11&#45;&gt;Identity10 -->
<g id="edge36" class="edge">
<title>PiL11&#45;&gt;Identity10</title>
<g id="a_edge36"><a xlink:title="lret62">
<path fill="none" stroke="blue" d="M402.51,-524.29C422.61,-537.44 453.11,-559.49 474.39,-576.06"/>
<polygon fill="blue" stroke="blue" points="472.32,-578.88 482.33,-582.33 476.66,-573.38 472.32,-578.88"/>
</a>
</g>
</g>
<!-- Identity12 -->
<g id="node13" class="node">
<title>Identity12</title>
<ellipse fill="none" stroke="black" cx="153.35" cy="-1052.8" rx="38.19" ry="18"/>
<text text-anchor="middle" x="153.35" y="-1049.1" font-family="Times,serif" font-size="14.00">Identity</text>
</g>
<!-- BangD13 -->
<g id="node14" class="node">
<title>BangD13</title>
<ellipse fill="none" stroke="black" cx="153.35" cy="-965.8" rx="36" ry="18"/>
<text text-anchor="middle" x="153.35" y="-962.1" font-family="Times,serif" font-size="14.00">BangD</text>
</g>
<!-- BangD13&#45;&gt;Identity12 -->
<g id="edge83" class="edge">
<title>BangD13&#45;&gt;Identity12</title>
<g id="a_edge83"><a xlink:title="yret60">
<path fill="none" stroke="blue" d="M137.96,-982.2C133.3,-987.88 128.77,-994.68 126.35,-1001.8 123.31,-1010.71 126.29,-1019.93 131.23,-1027.99"/>
<polygon fill="blue" stroke="blue" points="128.47,-1030.14 137.16,-1036.2 134.14,-1026.05 128.47,-1030.14"/>
</a>
</g>
<text text-anchor="middle" x="129.85" y="-1005.6" font-family="Times,serif" font-size="14.00">2</text>
</g>
<!-- BangD13&#45;&gt;Identity12 -->
<g id="edge85" class="edge">
<title>BangD13&#45;&gt;Identity12</title>
<g id="a_edge85"><a xlink:title="yseq59">
<path fill="none" stroke="black" d="M153.35,-984C153.35,-995.63 153.35,-1011.25 153.35,-1024.56"/>
<polygon fill="black" stroke="black" points="149.85,-1024.62 153.35,-1034.62 156.85,-1024.62 149.85,-1024.62"/>
</a>
</g>
<text text-anchor="middle" x="156.85" y="-1005.6" font-family="Times,serif" font-size="14.00">2</text>
</g>
<!-- Bang14 -->
<g id="node15" class="node">
<title>Bang14</title>
<ellipse fill="none" stroke="black" cx="153.35" cy="-878.8" rx="29.5" ry="18"/>
<text text-anchor="middle" x="153.35" y="-875.1" font-family="Times,serif" font-size="14.00">Bang</text>
</g>
<!-- Bang14&#45;&gt;Identity12 -->
<g id="edge50" class="edge">
<title>Bang14&#45;&gt;Identity12</title>
<g id="a_edge50"><a xlink:title="newrretf57">
<path fill="none" stroke="red" d="M167.17,-894.92C178.02,-907.88 192.27,-927.6 198.35,-947.8 202.96,-963.12 202.96,-968.47 198.35,-983.8 193.51,-999.88 183.49,-1015.66 174.13,-1027.96"/>
<polygon fill="red" stroke="red" points="171.32,-1025.88 167.83,-1035.88 176.8,-1030.23 171.32,-1025.88"/>
</a>
</g>
<text text-anchor="middle" x="204.85" y="-962.1" font-family="Times,serif" font-size="14.00">2</text>
</g>
<!-- Bang14&#45;&gt;BangD13 -->
<g id="edge3" class="edge">
<title>Bang14&#45;&gt;BangD13</title>
<g id="a_edge3"><a xlink:title="c_bseq58">
<path fill="none" stroke="black" d="M153.35,-897C153.35,-908.63 153.35,-924.25 153.35,-937.56"/>
<polygon fill="black" stroke="black" points="149.85,-937.62 153.35,-947.62 156.85,-937.62 149.85,-937.62"/>
</a>
</g>
<text text-anchor="middle" x="156.85" y="-918.6" font-family="Times,serif" font-size="14.00">2</text>
</g>
<!-- Bang14&#45;&gt;BangD13 -->
<g id="edge81" class="edge">
<title>Bang14&#45;&gt;BangD13</title>
<g id="a_edge81"><a xlink:title="yBf56">
<path fill="none" stroke="blue" d="M158.03,-896.75C159.38,-902.44 160.68,-908.85 161.35,-914.8 162.19,-922.28 161.57,-930.35 160.38,-937.78"/>
<polygon fill="blue" stroke="blue" points="156.92,-937.23 158.4,-947.73 163.79,-938.6 156.92,-937.23"/>
</a>
</g>
<text text-anchor="middle" x="165.85" y="-918.6" font-family="Times,serif" font-size="14.00">1</text>
</g>
<!-- Identity15 -->
<g id="node16" class="node">
<title>Identity15</title>
<ellipse fill="none" stroke="black" cx="239.35" cy="-878.8" rx="38.19" ry="18"/>
<text text-anchor="middle" x="239.35" y="-875.1" font-family="Times,serif" font-size="14.00">Identity</text>
</g>
<!-- PiL16 -->
<g id="node17" class="node">
<title>PiL16</title>
<ellipse fill="none" stroke="black" cx="229.35" cy="-791.8" rx="27" ry="18"/>
<text text-anchor="middle" x="229.35" y="-788.1" font-family="Times,serif" font-size="14.00">PiL</text>
</g>
<!-- PiL16&#45;&gt;Bang14 -->
<g id="edge18" class="edge">
<title>PiL16&#45;&gt;Bang14</title>
<g id="a_edge18"><a xlink:title="dseq54">
<path fill="none" stroke="black" d="M209.58,-804.41C200.25,-810.54 189.42,-818.69 181.35,-827.8 175.08,-834.86 169.62,-843.55 165.22,-851.7"/>
<polygon fill="black" stroke="black" points="161.96,-850.38 160.56,-860.88 168.2,-853.55 161.96,-850.38"/>
</a>
</g>
<text text-anchor="middle" x="184.85" y="-831.6" font-family="Times,serif" font-size="14.00">1</text>
</g>
<!-- PiL16&#45;&gt;Bang14 -->
<g id="edge45" class="edge">
<title>PiL16&#45;&gt;Bang14</title>
<g id="a_edge45"><a xlink:title="newrret52">
<path fill="none" stroke="red" d="M216.73,-807.83C208.25,-817.84 196.77,-831.23 186.35,-842.8 182.57,-846.98 178.5,-851.4 174.54,-855.63"/>
<polygon fill="red" stroke="red" points="171.95,-853.27 167.63,-862.95 177.04,-858.08 171.95,-853.27"/>
</a>
</g>
<text text-anchor="middle" x="202.85" y="-831.6" font-family="Times,serif" font-size="14.00">1</text>
</g>
<!-- PiL16&#45;&gt;Identity15 -->
<g id="edge28" class="edge">
<title>PiL16&#45;&gt;Identity15</title>
<g id="a_edge28"><a xlink:title="idseq55">
<path fill="none" stroke="black" d="M226.21,-820.13C226.83,-829.98 228.14,-841.08 229.85,-850.89"/>
<polygon fill="black" stroke="black" points="229.32,-809.86 226.2,-819.99 222.32,-810.13 229.32,-809.86"/>
<polygon fill="black" stroke="black" points="226.46,-851.79 231.85,-860.91 233.33,-850.42 226.46,-851.79"/>
</a>
</g>
</g>
<!-- PiL16&#45;&gt;Identity15 -->
<g id="edge35" class="edge">
<title>PiL16&#45;&gt;Identity15</title>
<g id="a_edge35"><a xlink:title="lret53">
<path fill="none" stroke="blue" d="M236.73,-809.18C239.44,-820.83 241.61,-836.75 242.47,-850.33"/>
<polygon fill="blue" stroke="blue" points="238.99,-850.72 242.87,-860.58 245.98,-850.45 238.99,-850.72"/>
</a>
</g>
</g>
<!-- Identity17 -->
<g id="node18" class="node">
<title>Identity17</title>
<ellipse fill="none" stroke="black" cx="334.35" cy="-878.8" rx="38.19" ry="18"/>
<text text-anchor="middle" x="334.35" y="-875.1" font-family="Times,serif" font-size="14.00">Identity</text>
</g>
<!-- BangD18 -->
<g id="node19" class="node">
<title>BangD18</title>
<ellipse fill="none" stroke="black" cx="310.35" cy="-791.8" rx="36" ry="18"/>
<text text-anchor="middle" x="310.35" y="-788.1" font-family="Times,serif" font-size="14.00">BangD</text>
</g>
<!-- BangD18&#45;&gt;Identity17 -->
<g id="edge82" class="edge">
<title>BangD18&#45;&gt;Identity17</title>
<g id="a_edge82"><a xlink:title="yret51">
<path fill="none" stroke="blue" d="M306.15,-809.89C304.51,-819.76 303.76,-832.26 307.35,-842.8 308.65,-846.61 310.55,-850.33 312.75,-853.84"/>
<polygon fill="blue" stroke="blue" points="309.98,-855.98 318.68,-862.04 315.66,-851.89 309.98,-855.98"/>
</a>
</g>
<text text-anchor="middle" x="310.85" y="-831.6" font-family="Times,serif" font-size="14.00">1</text>
</g>
<!-- BangD18&#45;&gt;Identity17 -->
<g id="edge84" class="edge">
<title>BangD18&#45;&gt;Identity17</title>
<g id="a_edge84"><a xlink:title="yseq50">
<path fill="none" stroke="black" d="M315.2,-810C318.54,-821.83 323.04,-837.77 326.84,-851.22"/>
<polygon fill="black" stroke="black" points="323.49,-852.24 329.58,-860.91 330.23,-850.34 323.49,-852.24"/>
</a>
</g>
<text text-anchor="middle" x="326.85" y="-831.6" font-family="Times,serif" font-size="14.00">1</text>
</g>
<!-- Cut19 -->
<g id="node20" class="node">
<title>Cut19</title>
<ellipse fill="none" stroke="black" cx="286.35" cy="-695.4" rx="27" ry="18"/>
<text text-anchor="middle" x="286.35" y="-691.7" font-family="Times,serif" font-size="14.00">Cut</text>
</g>
<!-- Cut19&#45;&gt;PiL16 -->
<g id="edge9" class="edge">
<title>Cut19&#45;&gt;PiL16</title>
<g id="a_edge9"><a xlink:title="c_lseq46">
<path fill="none" stroke="black" d="M266.59,-719.37C257.25,-733.06 246.66,-750.47 239,-764.68"/>
<polygon fill="black" stroke="black" points="275.24,-713.16 266.62,-719.32 269.52,-709.13 275.24,-713.16"/>
<polygon fill="black" stroke="black" points="235.71,-763.43 234.22,-773.92 241.93,-766.65 235.71,-763.43"/>
</a>
</g>
</g>
<!-- Cut19&#45;&gt;PiL16 -->
<g id="edge41" class="edge">
<title>Cut19&#45;&gt;PiL16</title>
<g id="a_edge41"><a xlink:title="lval48">
<path fill="none" stroke="blue" d="M281.47,-713.27C273.96,-728.54 260.5,-751.14 248.98,-768"/>
<polygon fill="blue" stroke="blue" points="246.08,-766.04 243.18,-776.23 251.8,-770.08 246.08,-766.04"/>
</a>
</g>
</g>
<!-- Cut19&#45;&gt;Identity17 -->
<g id="edge61" class="edge">
<title>Cut19&#45;&gt;Identity17</title>
<g id="a_edge61"><a xlink:title="rval49">
<path fill="none" stroke="red" d="M301.33,-710.63C319.9,-728.66 349.77,-759.16 355.35,-773.8 365.13,-799.47 356.38,-830.53 347.38,-851.99"/>
<polygon fill="red" stroke="red" points="344.18,-850.56 343.29,-861.11 350.57,-853.42 344.18,-850.56"/>
</a>
</g>
</g>
<!-- Cut19&#45;&gt;BangD18 -->
<g id="edge14" class="edge">
<title>Cut19&#45;&gt;BangD18</title>
<g id="a_edge14"><a xlink:title="c_rseq47">
<path fill="none" stroke="black" d="M290.64,-713.27C294.2,-727.28 299.33,-747.47 303.47,-763.73"/>
<polygon fill="black" stroke="black" points="300.16,-764.92 306.01,-773.75 306.94,-763.19 300.16,-764.92"/>
</a>
</g>
<text text-anchor="middle" x="303.85" y="-744.6" font-family="Times,serif" font-size="14.00">1</text>
</g>
<!-- BangC20 -->
<g id="node21" class="node">
<title>BangC20</title>
<ellipse fill="none" stroke="black" cx="310.35" cy="-599" rx="35.19" ry="18"/>
<text text-anchor="middle" x="310.35" y="-595.3" font-family="Times,serif" font-size="14.00">BangC</text>
</g>
<!-- BangC20&#45;&gt;Bang14 -->
<g id="edge80" class="edge">
<title>BangC20&#45;&gt;Bang14</title>
<g id="a_edge80"><a xlink:title="yB44">
<path fill="none" stroke="blue" d="M279.55,-618.43C236.84,-646.01 161.51,-702.47 131.35,-773.8 119.4,-802.04 122.85,-813.33 131.35,-842.8 132.4,-846.46 133.97,-850.11 135.78,-853.59"/>
<polygon fill="blue" stroke="blue" points="290.01,-615.95 279.69,-618.34 286.26,-610.03 290.01,-615.95"/>
<polygon fill="blue" stroke="blue" points="132.87,-855.54 141.01,-862.33 138.88,-851.95 132.87,-855.54"/>
</a>
</g>
<text text-anchor="middle" x="151.85" y="-744.6" font-family="Times,serif" font-size="14.00">1</text>
</g>
<!-- BangC20&#45;&gt;BangD18 -->
<g id="edge79" class="edge">
<title>BangC20&#45;&gt;BangD18</title>
<g id="a_edge79"><a xlink:title="yA43">
<path fill="none" stroke="blue" d="M314.18,-616.94C317.08,-630.63 320.81,-650.44 322.35,-668 324.47,-692.26 324.47,-698.53 322.35,-722.8 321.16,-736.37 318.66,-751.3 316.25,-763.71"/>
<polygon fill="blue" stroke="blue" points="312.74,-763.36 314.18,-773.86 319.6,-764.75 312.74,-763.36"/>
</a>
</g>
<text text-anchor="middle" x="326.85" y="-691.7" font-family="Times,serif" font-size="14.00">1</text>
</g>
<!-- BangC20&#45;&gt;Cut19 -->
<g id="edge67" class="edge">
<title>BangC20&#45;&gt;Cut19</title>
<g id="a_edge67"><a xlink:title="seq45">
<path fill="none" stroke="black" d="M306.06,-616.88C302.49,-630.88 297.36,-651.07 293.23,-667.33"/>
<polygon fill="black" stroke="black" points="289.75,-666.8 290.68,-677.35 296.54,-668.52 289.75,-666.8"/>
</a>
</g>
</g>
<!-- PiR21 -->
<g id="node22" class="node">
<title>PiR21</title>
<ellipse fill="none" stroke="black" cx="310.35" cy="-512" rx="27" ry="18"/>
<text text-anchor="middle" x="310.35" y="-508.3" font-family="Times,serif" font-size="14.00">PiR</text>
</g>
<!-- PiR21&#45;&gt;Identity15 -->
<g id="edge55" class="edge">
<title>PiR21&#45;&gt;Identity15</title>
<g id="a_edge55"><a xlink:title="ret42">
<path fill="none" stroke="red" d="M289.11,-523.33C244.55,-545.1 145.35,-594 145.35,-598 145.35,-598 145.35,-598 145.35,-792.8 145.35,-817.07 150.51,-825.31 167.35,-842.8 176.01,-851.79 187.46,-858.78 198.67,-864.07"/>
<polygon fill="red" stroke="red" points="197.4,-867.34 207.97,-868.12 200.2,-860.92 197.4,-867.34"/>
</a>
</g>
</g>
<!-- PiR21&#45;&gt;BangC20 -->
<g id="edge66" class="edge">
<title>PiR21&#45;&gt;BangC20</title>
<g id="a_edge66"><a xlink:title="seq40">
<path fill="none" stroke="black" d="M304.84,-529.79C303.54,-541.48 303.26,-557.31 304,-570.78"/>
<polygon fill="black" stroke="black" points="300.53,-571.26 304.81,-580.95 307.51,-570.7 300.53,-571.26"/>
</a>
</g>
</g>
<!-- PiR21&#45;&gt;BangC20 -->
<g id="edge78" class="edge">
<title>PiR21&#45;&gt;BangC20</title>
<g id="a_edge78"><a xlink:title="y41">
<path fill="none" stroke="blue" d="M315.85,-529.79C317.15,-541.48 317.43,-557.31 316.69,-570.78"/>
<polygon fill="blue" stroke="blue" points="313.19,-570.7 315.88,-580.95 320.17,-571.26 313.19,-570.7"/>
</a>
</g>
</g>
<!-- Cut22 -->
<g id="node23" class="node">
<title>Cut22</title>
<ellipse fill="none" stroke="black" cx="311.35" cy="-425" rx="27" ry="18"/>
<text text-anchor="middle" x="311.35" y="-421.3" font-family="Times,serif" font-size="14.00">Cut</text>
</g>
<!-- Cut22&#45;&gt;PiL11 -->
<g id="edge8" class="edge">
<title>Cut22&#45;&gt;PiL11</title>
<g id="a_edge8"><a xlink:title="c_lseq36">
<path fill="none" stroke="black" d="M325.57,-450.42C335.2,-462.96 347.92,-478.09 358.97,-490.09"/>
<polygon fill="black" stroke="black" points="322.38,-440.3 325.56,-450.4 316.77,-444.48 322.38,-440.3"/>
<polygon fill="black" stroke="black" points="356.53,-492.6 365.94,-497.46 361.61,-487.79 356.53,-492.6"/>
</a>
</g>
</g>
<!-- Cut22&#45;&gt;PiL11 -->
<g id="edge39" class="edge">
<title>Cut22&#45;&gt;PiL11</title>
<g id="a_edge39"><a xlink:title="lval38">
<path fill="none" stroke="blue" d="M327.87,-439.66C340.08,-452.21 356.24,-471.12 367.92,-486.32"/>
<polygon fill="blue" stroke="blue" points="365.44,-488.84 374.22,-494.76 371.05,-484.65 365.44,-488.84"/>
</a>
</g>
</g>
<!-- Cut22&#45;&gt;PiR21 -->
<g id="edge13" class="edge">
<title>Cut22&#45;&gt;PiR21</title>
<g id="a_edge13"><a xlink:title="c_rseq37">
<path fill="none" stroke="black" d="M305.65,-442.79C304.19,-454.55 303.73,-470.52 304.33,-484.04"/>
<polygon fill="black" stroke="black" points="300.86,-484.51 305.04,-494.24 307.84,-484.02 300.86,-484.51"/>
</a>
</g>
</g>
<!-- Cut22&#45;&gt;PiR21 -->
<g id="edge60" class="edge">
<title>Cut22&#45;&gt;PiR21</title>
<g id="a_edge60"><a xlink:title="rval39">
<path fill="none" stroke="red" d="M316.65,-442.79C317.83,-454.55 317.91,-470.52 317,-484.04"/>
<polygon fill="red" stroke="red" points="313.49,-483.96 316.04,-494.24 320.46,-484.61 313.49,-483.96"/>
</a>
</g>
</g>
<!-- PiR23 -->
<g id="node24" class="node">
<title>PiR23</title>
<ellipse fill="none" stroke="black" cx="311.35" cy="-338" rx="27" ry="18"/>
<text text-anchor="middle" x="311.35" y="-334.3" font-family="Times,serif" font-size="14.00">PiR</text>
</g>
<!-- PiR23&#45;&gt;Bang9 -->
<g id="edge21" class="edge">
<title>PiR23&#45;&gt;Bang9</title>
<g id="a_edge21"><a xlink:title="h34">
<path fill="none" stroke="blue" d="M326.11,-353.58C350.92,-379.23 400.06,-435.31 418.35,-494 426.22,-519.26 423.13,-549.61 419.05,-570.98"/>
<polygon fill="blue" stroke="blue" points="415.58,-570.48 416.93,-580.98 422.43,-571.92 415.58,-570.48"/>
</a>
</g>
<text text-anchor="middle" x="414.85" y="-464.8" font-family="Times,serif" font-size="14.00">1</text>
</g>
<!-- PiR23&#45;&gt;Identity10 -->
<g id="edge54" class="edge">
<title>PiR23&#45;&gt;Identity10</title>
<g id="a_edge54"><a xlink:title="ret35">
<path fill="none" stroke="red" d="M331.29,-350.4C350.55,-362.32 379.37,-382.65 397.35,-407 437.43,-461.3 471.06,-533.62 487.51,-571.81"/>
<polygon fill="red" stroke="red" points="484.36,-573.36 491.5,-581.19 490.81,-570.62 484.36,-573.36"/>
</a>
</g>
</g>
<!-- PiR23&#45;&gt;Cut22 -->
<g id="edge65" class="edge">
<title>PiR23&#45;&gt;Cut22</title>
<g id="a_edge65"><a xlink:title="seq33">
<path fill="none" stroke="black" d="M311.35,-356.2C311.35,-367.84 311.35,-383.45 311.35,-396.76"/>
<polygon fill="black" stroke="black" points="307.85,-396.82 311.35,-406.82 314.85,-396.82 307.85,-396.82"/>
</a>
</g>
</g>
<!-- Bang24 -->
<g id="node25" class="node">
<title>Bang24</title>
<ellipse fill="none" stroke="black" cx="264.35" cy="-251" rx="29.5" ry="18"/>
<text text-anchor="middle" x="264.35" y="-247.3" font-family="Times,serif" font-size="14.00">Bang</text>
</g>
<!-- Bang24&#45;&gt;PiR23 -->
<g id="edge2" class="edge">
<title>Bang24&#45;&gt;PiR23</title>
<g id="a_edge2"><a xlink:title="c_bseq32">
<path fill="none" stroke="black" d="M266.54,-269.03C268.36,-279.1 271.63,-291.84 277.35,-302 280.15,-306.98 283.84,-311.77 287.75,-316.12"/>
<polygon fill="black" stroke="black" points="285.4,-318.72 294.89,-323.43 290.41,-313.83 285.4,-318.72"/>
</a>
</g>
<text text-anchor="middle" x="280.85" y="-290.8" font-family="Times,serif" font-size="14.00">1</text>
</g>
<!-- Bang24&#45;&gt;PiR23 -->
<g id="edge49" class="edge">
<title>Bang24&#45;&gt;PiR23</title>
<g id="a_edge49"><a xlink:title="newrretf31">
<path fill="none" stroke="red" d="M273.79,-268.34C277.15,-274.2 280.95,-280.88 284.35,-287 288.82,-295.06 293.63,-303.89 297.93,-311.87"/>
<polygon fill="red" stroke="red" points="294.87,-313.58 302.69,-320.73 301.04,-310.27 294.87,-313.58"/>
</a>
</g>
<text text-anchor="middle" x="294.85" y="-290.8" font-family="Times,serif" font-size="14.00">1</text>
</g>
<!-- Identity25 -->
<g id="node26" class="node">
<title>Identity25</title>
<ellipse fill="none" stroke="black" cx="350.35" cy="-251" rx="38.19" ry="18"/>
<text text-anchor="middle" x="350.35" y="-247.3" font-family="Times,serif" font-size="14.00">Identity</text>
</g>
<!-- PiL26 -->
<g id="node27" class="node">
<title>PiL26</title>
<ellipse fill="none" stroke="black" cx="264.35" cy="-164" rx="27" ry="18"/>
<text text-anchor="middle" x="264.35" y="-160.3" font-family="Times,serif" font-size="14.00">PiL</text>
</g>
<!-- PiL26&#45;&gt;Bang24 -->
<g id="edge17" class="edge">
<title>PiL26&#45;&gt;Bang24</title>
<g id="a_edge17"><a xlink:title="dseq29">
<path fill="none" stroke="black" d="M264.35,-182.2C264.35,-193.84 264.35,-209.45 264.35,-222.76"/>
<polygon fill="black" stroke="black" points="260.85,-222.82 264.35,-232.82 267.85,-222.82 260.85,-222.82"/>
</a>
</g>
<text text-anchor="middle" x="267.85" y="-203.8" font-family="Times,serif" font-size="14.00">0</text>
</g>
<!-- PiL26&#45;&gt;Bang24 -->
<g id="edge44" class="edge">
<title>PiL26&#45;&gt;Bang24</title>
<g id="a_edge44"><a xlink:title="newrret27">
<path fill="none" stroke="red" d="M269.03,-181.96C270.38,-187.65 271.68,-194.05 272.35,-200 273.19,-207.48 272.57,-215.55 271.38,-222.98"/>
<polygon fill="red" stroke="red" points="267.92,-222.44 269.4,-232.93 274.79,-223.8 267.92,-222.44"/>
</a>
</g>
<text text-anchor="middle" x="275.85" y="-203.8" font-family="Times,serif" font-size="14.00">0</text>
</g>
<!-- PiL26&#45;&gt;Identity25 -->
<g id="edge27" class="edge">
<title>PiL26&#45;&gt;Identity25</title>
<g id="a_edge27"><a xlink:title="idseq30">
<path fill="none" stroke="black" d="M281.96,-188.44C293.79,-201.04 309.44,-216.45 322.85,-228.7"/>
<polygon fill="black" stroke="black" points="277.69,-178.62 281.88,-188.35 272.53,-183.36 277.69,-178.62"/>
<polygon fill="black" stroke="black" points="320.67,-231.44 330.45,-235.5 325.34,-226.22 320.67,-231.44"/>
</a>
</g>
</g>
<!-- PiL26&#45;&gt;Identity25 -->
<g id="edge34" class="edge">
<title>PiL26&#45;&gt;Identity25</title>
<g id="a_edge34"><a xlink:title="lret28">
<path fill="none" stroke="blue" d="M282.42,-177.91C297.06,-190.57 317.28,-210.17 331.97,-225.74"/>
<polygon fill="blue" stroke="blue" points="329.73,-228.48 339.09,-233.46 334.88,-223.74 329.73,-228.48"/>
</a>
</g>
</g>
<!-- Identity27 -->
<g id="node28" class="node">
<title>Identity27</title>
<ellipse fill="none" stroke="black" cx="38.35" cy="-695.4" rx="38.19" ry="18"/>
<text text-anchor="middle" x="38.35" y="-691.7" font-family="Times,serif" font-size="14.00">Identity</text>
</g>
<!-- BangD28 -->
<g id="node29" class="node">
<title>BangD28</title>
<ellipse fill="none" stroke="black" cx="38.35" cy="-599" rx="36" ry="18"/>
<text text-anchor="middle" x="38.35" y="-595.3" font-family="Times,serif" font-size="14.00">BangD</text>
</g>
<!-- BangD28&#45;&gt;Identity27 -->
<g id="edge75" class="edge">
<title>BangD28&#45;&gt;Identity27</title>
<g id="a_edge75"><a xlink:title="xret26">
<path fill="none" stroke="blue" d="M22.96,-615.4C18.3,-621.08 13.77,-627.88 11.35,-635 7.29,-646.89 11.82,-659.63 18.26,-670.25"/>
<polygon fill="blue" stroke="blue" points="15.43,-672.33 23.97,-678.61 21.21,-668.38 15.43,-672.33"/>
</a>
</g>
<text text-anchor="middle" x="14.85" y="-638.8" font-family="Times,serif" font-size="14.00">1</text>
</g>
<!-- BangD28&#45;&gt;Identity27 -->
<g id="edge77" class="edge">
<title>BangD28&#45;&gt;Identity27</title>
<g id="a_edge77"><a xlink:title="xseq25">
<path fill="none" stroke="black" d="M38.35,-617.31C38.35,-631.15 38.35,-650.81 38.35,-666.82"/>
<polygon fill="black" stroke="black" points="34.85,-667.19 38.35,-677.19 41.85,-667.19 34.85,-667.19"/>
</a>
</g>
<text text-anchor="middle" x="41.85" y="-638.8" font-family="Times,serif" font-size="14.00">1</text>
</g>
<!-- Bang29 -->
<g id="node30" class="node">
<title>Bang29</title>
<ellipse fill="none" stroke="black" cx="46.35" cy="-512" rx="29.5" ry="18"/>
<text text-anchor="middle" x="46.35" y="-508.3" font-family="Times,serif" font-size="14.00">Bang</text>
</g>
<!-- Bang29&#45;&gt;Identity27 -->
<g id="edge48" class="edge">
<title>Bang29&#45;&gt;Identity27</title>
<g id="a_edge48"><a xlink:title="newrretf23">
<path fill="none" stroke="red" d="M57.93,-528.8C66.84,-542.01 78.44,-561.72 83.35,-581 87.29,-596.51 87.51,-601.55 83.35,-617 78.19,-636.14 67,-655.42 57.07,-669.95"/>
<polygon fill="red" stroke="red" points="54.05,-668.15 51.12,-678.33 59.76,-672.21 54.05,-668.15"/>
</a>
</g>
<text text-anchor="middle" x="90.85" y="-595.3" font-family="Times,serif" font-size="14.00">1</text>
</g>
<!-- Bang29&#45;&gt;BangD28 -->
<g id="edge1" class="edge">
<title>Bang29&#45;&gt;BangD28</title>
<g id="a_edge1"><a xlink:title="c_bseq24">
<path fill="none" stroke="black" d="M43.62,-530.06C42.79,-535.75 41.94,-542.14 41.35,-548 40.6,-555.32 40.03,-563.27 39.58,-570.63"/>
<polygon fill="black" stroke="black" points="36.08,-570.67 39.03,-580.85 43.07,-571.05 36.08,-570.67"/>
</a>
</g>
<text text-anchor="middle" x="44.85" y="-551.8" font-family="Times,serif" font-size="14.00">1</text>
</g>
<!-- Bang29&#45;&gt;BangD28 -->
<g id="edge73" class="edge">
<title>Bang29&#45;&gt;BangD28</title>
<g id="a_edge73"><a xlink:title="xBf22">
<path fill="none" stroke="blue" d="M47.3,-530.18C47.59,-539.85 47.57,-552.13 46.35,-563 46.04,-565.69 45.61,-568.48 45.1,-571.26"/>
<polygon fill="blue" stroke="blue" points="41.68,-570.53 43.03,-581.04 48.53,-571.99 41.68,-570.53"/>
</a>
</g>
<text text-anchor="middle" x="50.85" y="-551.8" font-family="Times,serif" font-size="14.00">0</text>
</g>
<!-- Identity30 -->
<g id="node31" class="node">
<title>Identity30</title>
<ellipse fill="none" stroke="black" cx="132.35" cy="-512" rx="38.19" ry="18"/>
<text text-anchor="middle" x="132.35" y="-508.3" font-family="Times,serif" font-size="14.00">Identity</text>
</g>
<!-- PiL31 -->
<g id="node32" class="node">
<title>PiL31</title>
<ellipse fill="none" stroke="black" cx="111.35" cy="-425" rx="27" ry="18"/>
<text text-anchor="middle" x="111.35" y="-421.3" font-family="Times,serif" font-size="14.00">PiL</text>
</g>
<!-- PiL31&#45;&gt;Bang29 -->
<g id="edge16" class="edge">
<title>PiL31&#45;&gt;Bang29</title>
<g id="a_edge16"><a xlink:title="dseq20">
<path fill="none" stroke="black" d="M101.99,-442.28C95.96,-452.32 87.72,-465.28 79.35,-476 76.03,-480.25 72.28,-484.59 68.54,-488.69"/>
<polygon fill="black" stroke="black" points="65.76,-486.54 61.45,-496.22 70.85,-491.34 65.76,-486.54"/>
</a>
</g>
<text text-anchor="middle" x="93.85" y="-464.8" font-family="Times,serif" font-size="14.00">0</text>
</g>
<!-- PiL31&#45;&gt;Bang29 -->
<g id="edge43" class="edge">
<title>PiL31&#45;&gt;Bang29</title>
<g id="a_edge43"><a xlink:title="newrret18">
<path fill="none" stroke="red" d="M94.8,-439.68C88,-445.79 80.32,-453.33 74.35,-461 68.55,-468.45 63.2,-477.24 58.77,-485.36"/>
<polygon fill="red" stroke="red" points="55.54,-483.98 54.01,-494.46 61.74,-487.22 55.54,-483.98"/>
</a>
</g>
<text text-anchor="middle" x="77.85" y="-464.8" font-family="Times,serif" font-size="14.00">0</text>
</g>
<!-- PiL31&#45;&gt;Identity30 -->
<g id="edge26" class="edge">
<title>PiL31&#45;&gt;Identity30</title>
<g id="a_edge26"><a xlink:title="idseq21">
<path fill="none" stroke="black" d="M111.76,-453.41C113.69,-463.43 116.51,-474.74 119.55,-484.67"/>
<polygon fill="black" stroke="black" points="113.5,-442.62 111.7,-453.06 106.6,-443.78 113.5,-442.62"/>
<polygon fill="black" stroke="black" points="116.3,-486.01 122.76,-494.4 122.95,-483.81 116.3,-486.01"/>
</a>
</g>
</g>
<!-- PiL31&#45;&gt;Identity30 -->
<g id="edge33" class="edge">
<title>PiL31&#45;&gt;Identity30</title>
<g id="a_edge33"><a xlink:title="lret19">
<path fill="none" stroke="blue" d="M120.71,-441.99C125.01,-453.79 129.36,-470.14 132,-483.96"/>
<polygon fill="blue" stroke="blue" points="128.57,-484.63 133.66,-493.92 135.47,-483.48 128.57,-484.63"/>
</a>
</g>
</g>
<!-- Identity32 -->
<g id="node33" class="node">
<title>Identity32</title>
<ellipse fill="none" stroke="black" cx="227.35" cy="-512" rx="38.19" ry="18"/>
<text text-anchor="middle" x="227.35" y="-508.3" font-family="Times,serif" font-size="14.00">Identity</text>
</g>
<!-- BangD33 -->
<g id="node34" class="node">
<title>BangD33</title>
<ellipse fill="none" stroke="black" cx="230.35" cy="-425" rx="36" ry="18"/>
<text text-anchor="middle" x="230.35" y="-421.3" font-family="Times,serif" font-size="14.00">BangD</text>
</g>
<!-- BangD33&#45;&gt;Identity32 -->
<g id="edge74" class="edge">
<title>BangD33&#45;&gt;Identity32</title>
<g id="a_edge74"><a xlink:title="xret17">
<path fill="none" stroke="blue" d="M214.96,-441.4C210.3,-447.08 205.77,-453.88 203.35,-461 200.41,-469.61 202.91,-478.67 207.23,-486.68"/>
<polygon fill="blue" stroke="blue" points="204.35,-488.67 212.69,-495.2 210.24,-484.89 204.35,-488.67"/>
</a>
</g>
<text text-anchor="middle" x="206.85" y="-464.8" font-family="Times,serif" font-size="14.00">0</text>
</g>
<!-- BangD33&#45;&gt;Identity32 -->
<g id="edge76" class="edge">
<title>BangD33&#45;&gt;Identity32</title>
<g id="a_edge76"><a xlink:title="xseq16">
<path fill="none" stroke="black" d="M229.74,-443.2C229.33,-454.84 228.78,-470.45 228.31,-483.76"/>
<polygon fill="black" stroke="black" points="224.81,-483.71 227.95,-493.82 231.8,-483.95 224.81,-483.71"/>
</a>
</g>
<text text-anchor="middle" x="231.85" y="-464.8" font-family="Times,serif" font-size="14.00">0</text>
</g>
<!-- Cut34 -->
<g id="node35" class="node">
<title>Cut34</title>
<ellipse fill="none" stroke="black" cx="167.35" cy="-338" rx="27" ry="18"/>
<text text-anchor="middle" x="167.35" y="-334.3" font-family="Times,serif" font-size="14.00">Cut</text>
</g>
<!-- Cut34&#45;&gt;PiL31 -->
<g id="edge6" class="edge">
<title>Cut34&#45;&gt;PiL31</title>
<g id="a_edge6"><a xlink:title="c_lseq12">
<path fill="none" stroke="black" d="M146.31,-361.74C138.02,-373.02 128.95,-386.69 122,-398.34"/>
<polygon fill="black" stroke="black" points="155.42,-355.54 146.58,-361.38 149.84,-351.3 155.42,-355.54"/>
<polygon fill="black" stroke="black" points="118.87,-396.76 116.93,-407.17 124.94,-400.24 118.87,-396.76"/>
</a>
</g>
</g>
<!-- Cut34&#45;&gt;PiL31 -->
<g id="edge38" class="edge">
<title>Cut34&#45;&gt;PiL31</title>
<g id="a_edge38"><a xlink:title="lval14">
<path fill="none" stroke="blue" d="M161.79,-355.79C154.64,-368.85 142.79,-387.11 132.25,-401.44"/>
<polygon fill="blue" stroke="blue" points="129.17,-399.7 125.91,-409.78 134.75,-403.94 129.17,-399.7"/>
</a>
</g>
</g>
<!-- Cut34&#45;&gt;Identity32 -->
<g id="edge59" class="edge">
<title>Cut34&#45;&gt;Identity32</title>
<g id="a_edge59"><a xlink:title="rval15">
<path fill="none" stroke="red" d="M167.77,-356.24C169.14,-383.47 174.75,-437.32 197.35,-476 199.63,-479.92 202.38,-483.81 205.26,-487.51"/>
<polygon fill="red" stroke="red" points="202.59,-489.77 211.69,-495.2 207.97,-485.28 202.59,-489.77"/>
</a>
</g>
</g>
<!-- Cut34&#45;&gt;BangD33 -->
<g id="edge11" class="edge">
<title>Cut34&#45;&gt;BangD33</title>
<g id="a_edge11"><a xlink:title="c_rseq13">
<path fill="none" stroke="black" d="M178.9,-354.59C188.29,-367.25 201.68,-385.32 212.45,-399.85"/>
<polygon fill="black" stroke="black" points="209.67,-401.98 218.44,-407.93 215.29,-397.81 209.67,-401.98"/>
</a>
</g>
<text text-anchor="middle" x="205.85" y="-377.8" font-family="Times,serif" font-size="14.00">0</text>
</g>
<!-- BangC35 -->
<g id="node36" class="node">
<title>BangC35</title>
<ellipse fill="none" stroke="black" cx="175.35" cy="-251" rx="35.19" ry="18"/>
<text text-anchor="middle" x="175.35" y="-247.3" font-family="Times,serif" font-size="14.00">BangC</text>
</g>
<!-- BangC35&#45;&gt;Bang29 -->
<g id="edge72" class="edge">
<title>BangC35&#45;&gt;Bang29</title>
<g id="a_edge72"><a xlink:title="xB10">
<path fill="none" stroke="blue" d="M145.82,-271.27C109.26,-297.1 48.84,-346.75 24.35,-407 12.8,-435.41 15.85,-446.53 24.35,-476 25.4,-479.66 26.97,-483.31 28.78,-486.8"/>
<polygon fill="blue" stroke="blue" points="156.11,-268.41 145.9,-271.22 152.13,-262.65 156.11,-268.41"/>
<polygon fill="blue" stroke="blue" points="25.87,-488.75 34.01,-495.53 31.88,-485.15 25.87,-488.75"/>
</a>
</g>
<text text-anchor="middle" x="44.85" y="-377.8" font-family="Times,serif" font-size="14.00">0</text>
</g>
<!-- BangC35&#45;&gt;BangD33 -->
<g id="edge71" class="edge">
<title>BangC35&#45;&gt;BangD33</title>
<g id="a_edge71"><a xlink:title="xA9">
<path fill="none" stroke="blue" d="M183.02,-268.8C189.05,-282.42 197.4,-302.2 203.35,-320 211.94,-345.73 219.48,-375.79 224.4,-396.96"/>
<polygon fill="blue" stroke="blue" points="221.02,-397.89 226.65,-406.86 227.84,-396.33 221.02,-397.89"/>
</a>
</g>
<text text-anchor="middle" x="216.85" y="-334.3" font-family="Times,serif" font-size="14.00">0</text>
</g>
<!-- BangC35&#45;&gt;Cut34 -->
<g id="edge64" class="edge">
<title>BangC35&#45;&gt;Cut34</title>
<g id="a_edge64"><a xlink:title="seq11">
<path fill="none" stroke="black" d="M173.73,-269.2C172.63,-280.84 171.16,-296.45 169.91,-309.76"/>
<polygon fill="black" stroke="black" points="166.42,-309.54 168.96,-319.82 173.38,-310.2 166.42,-309.54"/>
</a>
</g>
</g>
<!-- PiR36 -->
<g id="node37" class="node">
<title>PiR36</title>
<ellipse fill="none" stroke="black" cx="175.35" cy="-164" rx="27" ry="18"/>
<text text-anchor="middle" x="175.35" y="-160.3" font-family="Times,serif" font-size="14.00">PiR</text>
</g>
<!-- PiR36&#45;&gt;Identity30 -->
<g id="edge56" class="edge">
<title>PiR36&#45;&gt;Identity30</title>
<g id="a_edge56"><a xlink:title="ret8">
<path fill="none" stroke="red" d="M149.26,-169.1C109.51,-177 38.35,-198.36 38.35,-250 38.35,-250 38.35,-250 38.35,-426 38.35,-450.46 44.28,-458.47 61.35,-476 69.96,-484.85 81.27,-491.8 92.33,-497.09"/>
<polygon fill="red" stroke="red" points="90.93,-500.3 101.49,-501.15 93.77,-493.9 90.93,-500.3"/>
</a>
</g>
</g>
<!-- PiR36&#45;&gt;BangC35 -->
<g id="edge68" class="edge">
<title>PiR36&#45;&gt;BangC35</title>
<g id="a_edge68"><a xlink:title="seq6">
<path fill="none" stroke="black" d="M169.84,-181.79C168.54,-193.48 168.26,-209.31 169,-222.78"/>
<polygon fill="black" stroke="black" points="165.53,-223.26 169.81,-232.95 172.51,-222.7 165.53,-223.26"/>
</a>
</g>
</g>
<!-- PiR36&#45;&gt;BangC35 -->
<g id="edge70" class="edge">
<title>PiR36&#45;&gt;BangC35</title>
<g id="a_edge70"><a xlink:title="x7">
<path fill="none" stroke="blue" d="M180.85,-181.79C182.15,-193.48 182.43,-209.31 181.69,-222.78"/>
<polygon fill="blue" stroke="blue" points="178.19,-222.7 180.88,-232.95 185.17,-223.26 178.19,-222.7"/>
</a>
</g>
</g>
<!-- Cut37 -->
<g id="node38" class="node">
<title>Cut37</title>
<ellipse fill="none" stroke="black" cx="264.35" cy="-91" rx="27" ry="18"/>
<text text-anchor="middle" x="264.35" y="-87.3" font-family="Times,serif" font-size="14.00">Cut</text>
</g>
<!-- Cut37&#45;&gt;PiL26 -->
<g id="edge7" class="edge">
<title>Cut37&#45;&gt;PiL26</title>
<g id="a_edge7"><a xlink:title="c_lseq2">
<path fill="none" stroke="black" d="M257.77,-119.06C257.54,-124.64 257.54,-130.52 257.78,-136.1"/>
<polygon fill="black" stroke="black" points="262,-109.08 257.79,-118.8 255.02,-108.57 262,-109.08"/>
<polygon fill="black" stroke="black" points="254.3,-136.58 258.52,-146.29 261.28,-136.07 254.3,-136.58"/>
</a>
</g>
</g>
<!-- Cut37&#45;&gt;PiL26 -->
<g id="edge40" class="edge">
<title>Cut37&#45;&gt;PiL26</title>
<g id="a_edge40"><a xlink:title="lval4">
<path fill="none" stroke="blue" d="M270.19,-108.83C271.06,-116.96 271.31,-126.92 270.92,-136.08"/>
<polygon fill="blue" stroke="blue" points="267.41,-136.07 270.17,-146.29 274.39,-136.58 267.41,-136.07"/>
</a>
</g>
</g>
<!-- Cut37&#45;&gt;PiR36 -->
<g id="edge12" class="edge">
<title>Cut37&#45;&gt;PiR36</title>
<g id="a_edge12"><a xlink:title="c_rseq3">
<path fill="none" stroke="black" d="M244.48,-103.72C230.01,-113.96 210.7,-129.08 196.06,-141.48"/>
<polygon fill="black" stroke="black" points="193.74,-138.86 188.47,-148.05 198.32,-144.15 193.74,-138.86"/>
</a>
</g>
</g>
<!-- Cut37&#45;&gt;PiR36 -->
<g id="edge62" class="edge">
<title>Cut37&#45;&gt;PiR36</title>
<g id="a_edge62"><a xlink:title="rval5">
<path fill="none" stroke="red" d="M251.11,-107.06C238.45,-118.25 219.36,-133.57 203.41,-145.34"/>
<polygon fill="red" stroke="red" points="200.99,-142.77 194.94,-151.47 205.09,-148.45 200.99,-142.77"/>
</a>
</g>
</g>
<!-- Assign38 -->
<g id="node39" class="node">
<title>Assign38</title>
<ellipse fill="none" stroke="black" cx="264.35" cy="-18" rx="35.19" ry="18"/>
<text text-anchor="middle" x="264.35" y="-14.3" font-family="Times,serif" font-size="14.00">Assign</text>
</g>
<!-- Assign38&#45;&gt;Identity25 -->
<g id="edge53" class="edge">
<title>Assign38&#45;&gt;Identity25</title>
<g id="a_edge53"><a xlink:title="ret1">
<path fill="none" stroke="red" d="M277.12,-35.23C284.75,-45.56 294.12,-59.49 300.35,-73 323.59,-123.46 338.34,-187.1 345.4,-222.69"/>
<polygon fill="red" stroke="red" points="342.01,-223.63 347.34,-232.78 348.89,-222.3 342.01,-223.63"/>
</a>
</g>
</g>
<!-- Assign38&#45;&gt;Cut37 -->
<g id="edge58" class="edge">
<title>Assign38&#45;&gt;Cut37</title>
<g id="a_edge58"><a xlink:title="retseq0">
<path fill="none" stroke="black" d="M264.35,-36.19C264.35,-44.21 264.35,-53.95 264.35,-62.93"/>
<polygon fill="black" stroke="black" points="260.85,-62.97 264.35,-72.97 267.85,-62.97 260.85,-62.97"/>
</a>
</g>
</g>
</g>
</svg>
