<?xml version="1.0" encoding="UTF-8" standalone="no"?>
<!DOCTYPE svg PUBLIC "-//W3C//DTD SVG 1.1//EN"
 "http://www.w3.org/Graphics/SVG/1.1/DTD/svg11.dtd">
<!-- Generated by graphviz version 2.49.3 (0)
 -->
<!-- Pages: 1 -->
<svg width="444pt" height="1071pt"
 viewBox="0.00 0.00 444.48 1070.80" xmlns="http://www.w3.org/2000/svg" xmlns:xlink="http://www.w3.org/1999/xlink">
<g id="graph0" class="graph" transform="scale(1 1) rotate(0) translate(4 1066.8)">
<polygon fill="white" stroke="transparent" points="-4,4 -4,-1066.8 440.48,-1066.8 440.48,4 -4,4"/>
<!-- Identity0 -->
<g id="node1" class="node">
<title>Identity0</title>
<ellipse fill="none" stroke="black" cx="49.14" cy="-1044.8" rx="38.19" ry="18"/>
<text text-anchor="middle" x="49.14" y="-1041.1" font-family="Times,serif" font-size="14.00">Identity</text>
</g>
<!-- BangD1 -->
<g id="node2" class="node">
<title>BangD1</title>
<ellipse fill="none" stroke="black" cx="49.14" cy="-972.8" rx="36" ry="18"/>
<text text-anchor="middle" x="49.14" y="-969.1" font-family="Times,serif" font-size="14.00">BangD</text>
</g>
<!-- BangD1&#45;&gt;Identity0 -->
<g id="edge24" class="edge">
<title>BangD1&#45;&gt;Identity0</title>
<g id="a_edge24"><a xlink:title="iret84">
<path fill="none" stroke="blue" d="M43.26,-990.74C42.43,-998.57 42.19,-1008.05 42.55,-1016.82"/>
<polygon fill="blue" stroke="blue" points="39.07,-1017.28 43.28,-1027.01 46.05,-1016.78 39.07,-1017.28"/>
</a>
</g>
</g>
<!-- BangD1&#45;&gt;Identity0 -->
<g id="edge25" class="edge">
<title>BangD1&#45;&gt;Identity0</title>
<g id="a_edge25"><a xlink:title="iseq83">
<path fill="none" stroke="black" d="M55.02,-990.74C55.85,-998.57 56.08,-1008.05 55.73,-1016.82"/>
<polygon fill="black" stroke="black" points="52.22,-1016.78 55,-1027.01 59.2,-1017.28 52.22,-1016.78"/>
</a>
</g>
</g>
<!-- PiR2 -->
<g id="node3" class="node">
<title>PiR2</title>
<ellipse fill="none" stroke="black" cx="49.14" cy="-900.8" rx="27" ry="18"/>
<text text-anchor="middle" x="49.14" y="-897.1" font-family="Times,serif" font-size="14.00">PiR</text>
</g>
<!-- PiR2&#45;&gt;Identity0 -->
<g id="edge50" class="edge">
<title>PiR2&#45;&gt;Identity0</title>
<g id="a_edge50"><a xlink:title="ret82">
<path fill="none" stroke="red" d="M32.93,-915.23C22.51,-924.98 9.88,-939.16 4.14,-954.8 -1.38,-969.81 -1.38,-975.78 4.14,-990.8 8.28,-1002.07 16,-1012.59 23.9,-1021.24"/>
<polygon fill="red" stroke="red" points="21.61,-1023.91 31.1,-1028.62 26.62,-1019.02 21.61,-1023.91"/>
</a>
</g>
</g>
<!-- PiR2&#45;&gt;BangD1 -->
<g id="edge19" class="edge">
<title>PiR2&#45;&gt;BangD1</title>
<g id="a_edge19"><a xlink:title="i81">
<path fill="none" stroke="blue" d="M43.3,-918.38C42.43,-926.29 42.19,-935.94 42.55,-944.86"/>
<polygon fill="blue" stroke="blue" points="39.06,-945.11 43.26,-954.84 46.04,-944.62 39.06,-945.11"/>
</a>
</g>
</g>
<!-- PiR2&#45;&gt;BangD1 -->
<g id="edge57" class="edge">
<title>PiR2&#45;&gt;BangD1</title>
<g id="a_edge57"><a xlink:title="seq80">
<path fill="none" stroke="black" d="M54.98,-918.38C55.84,-926.29 56.09,-935.94 55.73,-944.86"/>
<polygon fill="black" stroke="black" points="52.23,-944.62 55.02,-954.84 59.22,-945.11 52.23,-944.62"/>
</a>
</g>
</g>
<!-- Bang3 -->
<g id="node4" class="node">
<title>Bang3</title>
<ellipse fill="none" stroke="black" cx="49.14" cy="-828.8" rx="29.5" ry="18"/>
<text text-anchor="middle" x="49.14" y="-825.1" font-family="Times,serif" font-size="14.00">Bang</text>
</g>
<!-- Bang3&#45;&gt;PiR2 -->
<g id="edge5" class="edge">
<title>Bang3&#45;&gt;PiR2</title>
<g id="a_edge5"><a xlink:title="c_bseq79">
<path fill="none" stroke="black" d="M43.26,-846.74C42.43,-854.57 42.19,-864.05 42.55,-872.82"/>
<polygon fill="black" stroke="black" points="39.07,-873.28 43.28,-883.01 46.05,-872.78 39.07,-873.28"/>
</a>
</g>
</g>
<!-- Bang3&#45;&gt;PiR2 -->
<g id="edge44" class="edge">
<title>Bang3&#45;&gt;PiR2</title>
<g id="a_edge44"><a xlink:title="newrretf78">
<path fill="none" stroke="red" d="M55.02,-846.74C55.85,-854.57 56.08,-864.05 55.73,-872.82"/>
<polygon fill="red" stroke="red" points="52.22,-872.78 55,-883.01 59.2,-873.28 52.22,-872.78"/>
</a>
</g>
</g>
<!-- Identity4 -->
<g id="node5" class="node">
<title>Identity4</title>
<ellipse fill="none" stroke="black" cx="135.14" cy="-828.8" rx="38.19" ry="18"/>
<text text-anchor="middle" x="135.14" y="-825.1" font-family="Times,serif" font-size="14.00">Identity</text>
</g>
<!-- PiL5 -->
<g id="node6" class="node">
<title>PiL5</title>
<ellipse fill="none" stroke="black" cx="71.14" cy="-756.8" rx="27" ry="18"/>
<text text-anchor="middle" x="71.14" y="-753.1" font-family="Times,serif" font-size="14.00">PiL</text>
</g>
<!-- PiL5&#45;&gt;Bang3 -->
<g id="edge13" class="edge">
<title>PiL5&#45;&gt;Bang3</title>
<g id="a_edge13"><a xlink:title="dseq76">
<path fill="none" stroke="black" d="M60.38,-773.68C56.96,-781.65 53.58,-791.53 51.07,-800.66"/>
<polygon fill="black" stroke="black" points="47.64,-799.96 48.66,-810.5 54.44,-801.62 47.64,-799.96"/>
</a>
</g>
</g>
<!-- PiL5&#45;&gt;Bang3 -->
<g id="edge37" class="edge">
<title>PiL5&#45;&gt;Bang3</title>
<g id="a_edge37"><a xlink:title="newrret74">
<path fill="none" stroke="red" d="M71.61,-775.1C69.88,-783.31 66.95,-793.27 63.67,-802.32"/>
<polygon fill="red" stroke="red" points="60.4,-801.06 60,-811.65 66.92,-803.62 60.4,-801.06"/>
</a>
</g>
</g>
<!-- PiL5&#45;&gt;Identity4 -->
<g id="edge23" class="edge">
<title>PiL5&#45;&gt;Identity4</title>
<g id="a_edge23"><a xlink:title="idseq77">
<path fill="none" stroke="black" d="M86.77,-781.95C93.43,-789.72 101.3,-798.27 108.78,-805.87"/>
<polygon fill="black" stroke="black" points="82.87,-771.79 86.58,-781.72 77.49,-776.27 82.87,-771.79"/>
<polygon fill="black" stroke="black" points="106.49,-808.53 116.06,-813.08 111.42,-803.56 106.49,-808.53"/>
</a>
</g>
</g>
<!-- PiL5&#45;&gt;Identity4 -->
<g id="edge29" class="edge">
<title>PiL5&#45;&gt;Identity4</title>
<g id="a_edge29"><a xlink:title="lret75">
<path fill="none" stroke="blue" d="M88.59,-770.96C98.19,-780.05 109.85,-792.41 119.2,-803.28"/>
<polygon fill="blue" stroke="blue" points="116.73,-805.79 125.83,-811.23 122.11,-801.31 116.73,-805.79"/>
</a>
</g>
</g>
<!-- BangD6 -->
<g id="node7" class="node">
<title>BangD6</title>
<ellipse fill="none" stroke="black" cx="71.14" cy="-684.8" rx="36" ry="18"/>
<text text-anchor="middle" x="71.14" y="-681.1" font-family="Times,serif" font-size="14.00">BangD</text>
</g>
<!-- BangD6&#45;&gt;PiL5 -->
<g id="edge18" class="edge">
<title>BangD6&#45;&gt;PiL5</title>
<g id="a_edge18"><a xlink:title="hseq72">
<path fill="none" stroke="black" d="M65.26,-702.74C64.43,-710.57 64.19,-720.05 64.55,-728.82"/>
<polygon fill="black" stroke="black" points="61.07,-729.28 65.28,-739.01 68.05,-728.78 61.07,-729.28"/>
</a>
</g>
</g>
<!-- BangD6&#45;&gt;PiL5 -->
<g id="edge33" class="edge">
<title>BangD6&#45;&gt;PiL5</title>
<g id="a_edge33"><a xlink:title="lval70">
<path fill="none" stroke="blue" d="M77.02,-702.74C77.85,-710.57 78.08,-720.05 77.73,-728.82"/>
<polygon fill="blue" stroke="blue" points="74.22,-728.78 77,-739.01 81.2,-729.28 74.22,-728.78"/>
</a>
</g>
</g>
<!-- Bang7 -->
<g id="node8" class="node">
<title>Bang7</title>
<ellipse fill="none" stroke="black" cx="71.14" cy="-612.8" rx="29.5" ry="18"/>
<text text-anchor="middle" x="71.14" y="-609.1" font-family="Times,serif" font-size="14.00">Bang</text>
</g>
<!-- Bang7&#45;&gt;Identity4 -->
<g id="edge43" class="edge">
<title>Bang7&#45;&gt;Identity4</title>
<g id="a_edge43"><a xlink:title="newrretf66">
<path fill="none" stroke="red" d="M87.21,-627.89C97.29,-637.73 109.58,-651.74 116.14,-666.8 135.22,-710.61 137.35,-767.14 136.62,-800.23"/>
<polygon fill="red" stroke="red" points="133.11,-800.4 136.28,-810.51 140.1,-800.63 133.11,-800.4"/>
</a>
</g>
</g>
<!-- Bang7&#45;&gt;BangD6 -->
<g id="edge4" class="edge">
<title>Bang7&#45;&gt;BangD6</title>
<g id="a_edge4"><a xlink:title="c_bseq67">
<path fill="none" stroke="black" d="M65.26,-630.74C64.43,-638.57 64.19,-648.05 64.55,-656.82"/>
<polygon fill="black" stroke="black" points="61.07,-657.28 65.28,-667.01 68.05,-656.78 61.07,-657.28"/>
</a>
</g>
</g>
<!-- Bang7&#45;&gt;BangD6 -->
<g id="edge17" class="edge">
<title>Bang7&#45;&gt;BangD6</title>
<g id="a_edge17"><a xlink:title="hf65">
<path fill="none" stroke="blue" d="M77.02,-630.74C77.85,-638.57 78.08,-648.05 77.73,-656.82"/>
<polygon fill="blue" stroke="blue" points="74.22,-656.78 77,-667.01 81.2,-657.28 74.22,-656.78"/>
</a>
</g>
</g>
<!-- Identity8 -->
<g id="node9" class="node">
<title>Identity8</title>
<ellipse fill="none" stroke="black" cx="157.14" cy="-612.8" rx="38.19" ry="18"/>
<text text-anchor="middle" x="157.14" y="-609.1" font-family="Times,serif" font-size="14.00">Identity</text>
</g>
<!-- PiL9 -->
<g id="node10" class="node">
<title>PiL9</title>
<ellipse fill="none" stroke="black" cx="157.14" cy="-540.8" rx="27" ry="18"/>
<text text-anchor="middle" x="157.14" y="-537.1" font-family="Times,serif" font-size="14.00">PiL</text>
</g>
<!-- PiL9&#45;&gt;Bang7 -->
<g id="edge12" class="edge">
<title>PiL9&#45;&gt;Bang7</title>
<g id="a_edge12"><a xlink:title="dseq63">
<path fill="none" stroke="black" d="M137.77,-553.35C124.04,-563.22 105.88,-577.69 91.88,-589.76"/>
<polygon fill="black" stroke="black" points="89.38,-587.31 84.19,-596.54 94.01,-592.56 89.38,-587.31"/>
</a>
</g>
</g>
<!-- PiL9&#45;&gt;Bang7 -->
<g id="edge36" class="edge">
<title>PiL9&#45;&gt;Bang7</title>
<g id="a_edge36"><a xlink:title="newrret61">
<path fill="none" stroke="red" d="M144.15,-556.98C132.21,-567.77 114.46,-582.31 99.37,-593.7"/>
<polygon fill="red" stroke="red" points="97.27,-590.9 91.31,-599.66 101.43,-596.53 97.27,-590.9"/>
</a>
</g>
</g>
<!-- PiL9&#45;&gt;Identity8 -->
<g id="edge22" class="edge">
<title>PiL9&#45;&gt;Identity8</title>
<g id="a_edge22"><a xlink:title="idseq64">
<path fill="none" stroke="black" d="M150.55,-568.61C150.34,-573.84 150.33,-579.33 150.54,-584.58"/>
<polygon fill="black" stroke="black" points="154.79,-558.64 150.57,-568.36 147.81,-558.13 154.79,-558.64"/>
<polygon fill="black" stroke="black" points="147.07,-585.11 151.26,-594.84 154.05,-584.62 147.07,-585.11"/>
</a>
</g>
</g>
<!-- PiL9&#45;&gt;Identity8 -->
<g id="edge28" class="edge">
<title>PiL9&#45;&gt;Identity8</title>
<g id="a_edge28"><a xlink:title="lret62">
<path fill="none" stroke="blue" d="M162.98,-558.38C163.84,-566.29 164.09,-575.94 163.73,-584.86"/>
<polygon fill="blue" stroke="blue" points="160.23,-584.62 163.02,-594.84 167.22,-585.11 160.23,-584.62"/>
</a>
</g>
</g>
<!-- Identity10 -->
<g id="node11" class="node">
<title>Identity10</title>
<ellipse fill="none" stroke="black" cx="333.14" cy="-972.8" rx="38.19" ry="18"/>
<text text-anchor="middle" x="333.14" y="-969.1" font-family="Times,serif" font-size="14.00">Identity</text>
</g>
<!-- BangD11 -->
<g id="node12" class="node">
<title>BangD11</title>
<ellipse fill="none" stroke="black" cx="333.14" cy="-900.8" rx="36" ry="18"/>
<text text-anchor="middle" x="333.14" y="-897.1" font-family="Times,serif" font-size="14.00">BangD</text>
</g>
<!-- BangD11&#45;&gt;Identity10 -->
<g id="edge69" class="edge">
<title>BangD11&#45;&gt;Identity10</title>
<g id="a_edge69"><a xlink:title="yret60">
<path fill="none" stroke="blue" d="M327.26,-918.74C326.43,-926.57 326.19,-936.05 326.55,-944.82"/>
<polygon fill="blue" stroke="blue" points="323.07,-945.28 327.28,-955.01 330.05,-944.78 323.07,-945.28"/>
</a>
</g>
</g>
<!-- BangD11&#45;&gt;Identity10 -->
<g id="edge71" class="edge">
<title>BangD11&#45;&gt;Identity10</title>
<g id="a_edge71"><a xlink:title="yseq59">
<path fill="none" stroke="black" d="M339.02,-918.74C339.85,-926.57 340.08,-936.05 339.73,-944.82"/>
<polygon fill="black" stroke="black" points="336.22,-944.78 339,-955.01 343.2,-945.28 336.22,-944.78"/>
</a>
</g>
</g>
<!-- Bang12 -->
<g id="node13" class="node">
<title>Bang12</title>
<ellipse fill="none" stroke="black" cx="333.14" cy="-828.8" rx="29.5" ry="18"/>
<text text-anchor="middle" x="333.14" y="-825.1" font-family="Times,serif" font-size="14.00">Bang</text>
</g>
<!-- Bang12&#45;&gt;Identity10 -->
<g id="edge42" class="edge">
<title>Bang12&#45;&gt;Identity10</title>
<g id="a_edge42"><a xlink:title="newrretf57">
<path fill="none" stroke="red" d="M316.47,-843.66C306.14,-853.39 293.8,-867.39 288.14,-882.8 282.62,-897.81 282.62,-903.78 288.14,-918.8 292.28,-930.07 300,-940.59 307.9,-949.24"/>
<polygon fill="red" stroke="red" points="305.61,-951.91 315.1,-956.62 310.62,-947.02 305.61,-951.91"/>
</a>
</g>
</g>
<!-- Bang12&#45;&gt;BangD11 -->
<g id="edge3" class="edge">
<title>Bang12&#45;&gt;BangD11</title>
<g id="a_edge3"><a xlink:title="c_bseq58">
<path fill="none" stroke="black" d="M327.26,-846.74C326.43,-854.57 326.19,-864.05 326.55,-872.82"/>
<polygon fill="black" stroke="black" points="323.07,-873.28 327.28,-883.01 330.05,-872.78 323.07,-873.28"/>
</a>
</g>
</g>
<!-- Bang12&#45;&gt;BangD11 -->
<g id="edge68" class="edge">
<title>Bang12&#45;&gt;BangD11</title>
<g id="a_edge68"><a xlink:title="yBf56">
<path fill="none" stroke="blue" d="M339.02,-846.74C339.85,-854.57 340.08,-864.05 339.73,-872.82"/>
<polygon fill="blue" stroke="blue" points="336.22,-872.78 339,-883.01 343.2,-873.28 336.22,-872.78"/>
</a>
</g>
</g>
<!-- Identity13 -->
<g id="node14" class="node">
<title>Identity13</title>
<ellipse fill="none" stroke="black" cx="247.14" cy="-828.8" rx="38.19" ry="18"/>
<text text-anchor="middle" x="247.14" y="-825.1" font-family="Times,serif" font-size="14.00">Identity</text>
</g>
<!-- PiL14 -->
<g id="node15" class="node">
<title>PiL14</title>
<ellipse fill="none" stroke="black" cx="287.14" cy="-756.8" rx="27" ry="18"/>
<text text-anchor="middle" x="287.14" y="-753.1" font-family="Times,serif" font-size="14.00">PiL</text>
</g>
<!-- PiL14&#45;&gt;Bang12 -->
<g id="edge11" class="edge">
<title>PiL14&#45;&gt;Bang12</title>
<g id="a_edge11"><a xlink:title="dseq54">
<path fill="none" stroke="black" d="M292.39,-774.74C297.36,-783.75 304.56,-794.97 311.61,-804.76"/>
<polygon fill="black" stroke="black" points="308.92,-807 317.71,-812.91 314.52,-802.8 308.92,-807"/>
</a>
</g>
</g>
<!-- PiL14&#45;&gt;Bang12 -->
<g id="edge35" class="edge">
<title>PiL14&#45;&gt;Bang12</title>
<g id="a_edge35"><a xlink:title="newrret52">
<path fill="none" stroke="red" d="M301.99,-771.96C308.8,-780.59 316.54,-791.87 322.74,-802.03"/>
<polygon fill="red" stroke="red" points="319.87,-804.06 327.93,-810.94 325.92,-800.53 319.87,-804.06"/>
</a>
</g>
</g>
<!-- PiL14&#45;&gt;Identity13 -->
<g id="edge21" class="edge">
<title>PiL14&#45;&gt;Identity13</title>
<g id="a_edge21"><a xlink:title="idseq55">
<path fill="none" stroke="black" d="M267.61,-780.79C263.33,-787.53 259.05,-794.94 255.42,-801.85"/>
<polygon fill="black" stroke="black" points="276.17,-774.24 267.72,-780.63 270.34,-770.36 276.17,-774.24"/>
<polygon fill="black" stroke="black" points="252.26,-800.33 250.94,-810.85 258.53,-803.45 252.26,-800.33"/>
</a>
</g>
</g>
<!-- PiL14&#45;&gt;Identity13 -->
<g id="edge27" class="edge">
<title>PiL14&#45;&gt;Identity13</title>
<g id="a_edge27"><a xlink:title="lret53">
<path fill="none" stroke="blue" d="M283.33,-774.74C279.34,-783.33 273.49,-793.91 267.57,-803.36"/>
<polygon fill="blue" stroke="blue" points="264.48,-801.68 261.94,-811.97 270.34,-805.52 264.48,-801.68"/>
</a>
</g>
</g>
<!-- BangD15 -->
<g id="node16" class="node">
<title>BangD15</title>
<ellipse fill="none" stroke="black" cx="287.14" cy="-684.8" rx="36" ry="18"/>
<text text-anchor="middle" x="287.14" y="-681.1" font-family="Times,serif" font-size="14.00">BangD</text>
</g>
<!-- BangD15&#45;&gt;PiL14 -->
<g id="edge32" class="edge">
<title>BangD15&#45;&gt;PiL14</title>
<g id="a_edge32"><a xlink:title="lval48">
<path fill="none" stroke="blue" d="M281.26,-702.74C280.43,-710.57 280.19,-720.05 280.55,-728.82"/>
<polygon fill="blue" stroke="blue" points="277.07,-729.28 281.28,-739.01 284.05,-728.78 277.07,-729.28"/>
</a>
</g>
</g>
<!-- BangD15&#45;&gt;PiL14 -->
<g id="edge70" class="edge">
<title>BangD15&#45;&gt;PiL14</title>
<g id="a_edge70"><a xlink:title="yseq50">
<path fill="none" stroke="black" d="M293.02,-702.74C293.85,-710.57 294.08,-720.05 293.73,-728.82"/>
<polygon fill="black" stroke="black" points="290.22,-728.78 293,-739.01 297.2,-729.28 290.22,-728.78"/>
</a>
</g>
</g>
<!-- BangC16 -->
<g id="node17" class="node">
<title>BangC16</title>
<ellipse fill="none" stroke="black" cx="287.14" cy="-612.8" rx="35.19" ry="18"/>
<text text-anchor="middle" x="287.14" y="-609.1" font-family="Times,serif" font-size="14.00">BangC</text>
</g>
<!-- BangC16&#45;&gt;Bang12 -->
<g id="edge67" class="edge">
<title>BangC16&#45;&gt;Bang12</title>
<g id="a_edge67"><a xlink:title="yB44">
<path fill="none" stroke="blue" d="M311.73,-635.7C319.83,-644.47 327.85,-655.24 332.14,-666.8 348.64,-711.3 343.69,-767.6 338.49,-800.47"/>
<polygon fill="blue" stroke="blue" points="307.18,-626.08 311.7,-635.67 302.19,-630.99 307.18,-626.08"/>
<polygon fill="blue" stroke="blue" points="334.98,-800.22 336.74,-810.66 341.88,-801.4 334.98,-800.22"/>
</a>
</g>
</g>
<!-- BangC16&#45;&gt;BangD15 -->
<g id="edge56" class="edge">
<title>BangC16&#45;&gt;BangD15</title>
<g id="a_edge56"><a xlink:title="seq45">
<path fill="none" stroke="black" d="M281.26,-630.74C280.43,-638.57 280.19,-648.05 280.55,-656.82"/>
<polygon fill="black" stroke="black" points="277.07,-657.28 281.28,-667.01 284.05,-656.78 277.07,-657.28"/>
</a>
</g>
</g>
<!-- BangC16&#45;&gt;BangD15 -->
<g id="edge66" class="edge">
<title>BangC16&#45;&gt;BangD15</title>
<g id="a_edge66"><a xlink:title="yA43">
<path fill="none" stroke="blue" d="M293.02,-630.74C293.85,-638.57 294.08,-648.05 293.73,-656.82"/>
<polygon fill="blue" stroke="blue" points="290.22,-656.78 293,-667.01 297.2,-657.28 290.22,-656.78"/>
</a>
</g>
</g>
<!-- PiR17 -->
<g id="node18" class="node">
<title>PiR17</title>
<ellipse fill="none" stroke="black" cx="229.14" cy="-540.8" rx="27" ry="18"/>
<text text-anchor="middle" x="229.14" y="-537.1" font-family="Times,serif" font-size="14.00">PiR</text>
</g>
<!-- PiR17&#45;&gt;Identity13 -->
<g id="edge48" class="edge">
<title>PiR17&#45;&gt;Identity13</title>
<g id="a_edge48"><a xlink:title="ret42">
<path fill="none" stroke="red" d="M230.21,-558.83C233.21,-606.5 241.71,-741.61 245.4,-800.17"/>
<polygon fill="red" stroke="red" points="241.93,-800.73 246.05,-810.49 248.91,-800.29 241.93,-800.73"/>
</a>
</g>
</g>
<!-- PiR17&#45;&gt;BangC16 -->
<g id="edge55" class="edge">
<title>PiR17&#45;&gt;BangC16</title>
<g id="a_edge55"><a xlink:title="seq40">
<path fill="none" stroke="black" d="M237.04,-558.38C243.81,-567.79 253.5,-579.68 262.64,-589.85"/>
<polygon fill="black" stroke="black" points="260.1,-592.26 269.46,-597.23 265.24,-587.51 260.1,-592.26"/>
</a>
</g>
</g>
<!-- PiR17&#45;&gt;BangC16 -->
<g id="edge65" class="edge">
<title>PiR17&#45;&gt;BangC16</title>
<g id="a_edge65"><a xlink:title="y41">
<path fill="none" stroke="blue" d="M245.78,-555.29C254.45,-564.26 264.77,-576.3 273.05,-586.96"/>
<polygon fill="blue" stroke="blue" points="270.38,-589.23 279.18,-595.13 275.98,-585.03 270.38,-589.23"/>
</a>
</g>
</g>
<!-- Cut18 -->
<g id="node19" class="node">
<title>Cut18</title>
<ellipse fill="none" stroke="black" cx="157.14" cy="-468.8" rx="27" ry="18"/>
<text text-anchor="middle" x="157.14" y="-465.1" font-family="Times,serif" font-size="14.00">Cut</text>
</g>
<!-- Cut18&#45;&gt;PiL9 -->
<g id="edge8" class="edge">
<title>Cut18&#45;&gt;PiL9</title>
<g id="a_edge8"><a xlink:title="c_lseq36">
<path fill="none" stroke="black" d="M150.55,-496.61C150.34,-501.84 150.33,-507.33 150.54,-512.58"/>
<polygon fill="black" stroke="black" points="154.79,-486.64 150.57,-496.36 147.81,-486.13 154.79,-486.64"/>
<polygon fill="black" stroke="black" points="147.07,-513.11 151.26,-522.84 154.05,-512.62 147.07,-513.11"/>
</a>
</g>
</g>
<!-- Cut18&#45;&gt;PiL9 -->
<g id="edge31" class="edge">
<title>Cut18&#45;&gt;PiL9</title>
<g id="a_edge31"><a xlink:title="lval38">
<path fill="none" stroke="blue" d="M162.98,-486.38C163.84,-494.29 164.09,-503.94 163.73,-512.86"/>
<polygon fill="blue" stroke="blue" points="160.23,-512.62 163.02,-522.84 167.22,-513.11 160.23,-512.62"/>
</a>
</g>
</g>
<!-- Cut18&#45;&gt;PiR17 -->
<g id="edge9" class="edge">
<title>Cut18&#45;&gt;PiR17</title>
<g id="a_edge9"><a xlink:title="c_rseq37">
<path fill="none" stroke="black" d="M167.71,-485.68C177.14,-496 190.94,-509.53 203.16,-520.47"/>
<polygon fill="black" stroke="black" points="201.06,-523.29 210.9,-527.24 205.67,-518.02 201.06,-523.29"/>
</a>
</g>
</g>
<!-- Cut18&#45;&gt;PiR17 -->
<g id="edge52" class="edge">
<title>Cut18&#45;&gt;PiR17</title>
<g id="a_edge52"><a xlink:title="rval39">
<path fill="none" stroke="red" d="M175.33,-482.31C186.48,-491.77 200.48,-505.02 211.5,-516.42"/>
<polygon fill="red" stroke="red" points="209.19,-519.07 218.59,-523.95 214.29,-514.27 209.19,-519.07"/>
</a>
</g>
</g>
<!-- PiR19 -->
<g id="node20" class="node">
<title>PiR19</title>
<ellipse fill="none" stroke="black" cx="157.14" cy="-396.8" rx="27" ry="18"/>
<text text-anchor="middle" x="157.14" y="-393.1" font-family="Times,serif" font-size="14.00">PiR</text>
</g>
<!-- PiR19&#45;&gt;Bang7 -->
<g id="edge16" class="edge">
<title>PiR19&#45;&gt;Bang7</title>
<g id="a_edge16"><a xlink:title="h34">
<path fill="none" stroke="blue" d="M141.02,-411.53C130.43,-421.41 117.11,-435.63 109.14,-450.8 86.45,-493.96 77.14,-550.7 73.44,-584.01"/>
<polygon fill="blue" stroke="blue" points="69.92,-584.06 72.39,-594.36 76.89,-584.76 69.92,-584.06"/>
</a>
</g>
</g>
<!-- PiR19&#45;&gt;Identity8 -->
<g id="edge47" class="edge">
<title>PiR19&#45;&gt;Identity8</title>
<g id="a_edge47"><a xlink:title="ret35">
<path fill="none" stroke="red" d="M143.39,-412.73C135.18,-422.7 125.52,-436.55 121.14,-450.8 107.03,-496.68 107.03,-512.92 121.14,-558.8 124.32,-569.16 130.31,-579.32 136.49,-587.92"/>
<polygon fill="red" stroke="red" points="133.79,-590.15 142.65,-595.96 139.34,-585.89 133.79,-590.15"/>
</a>
</g>
</g>
<!-- PiR19&#45;&gt;Cut18 -->
<g id="edge54" class="edge">
<title>PiR19&#45;&gt;Cut18</title>
<g id="a_edge54"><a xlink:title="seq33">
<path fill="none" stroke="black" d="M157.14,-415.1C157.14,-422.81 157.14,-432.08 157.14,-440.68"/>
<polygon fill="black" stroke="black" points="153.64,-440.69 157.14,-450.69 160.64,-440.69 153.64,-440.69"/>
</a>
</g>
</g>
<!-- Identity20 -->
<g id="node21" class="node">
<title>Identity20</title>
<ellipse fill="none" stroke="black" cx="312.14" cy="-540.8" rx="38.19" ry="18"/>
<text text-anchor="middle" x="312.14" y="-537.1" font-family="Times,serif" font-size="14.00">Identity</text>
</g>
<!-- BangD21 -->
<g id="node22" class="node">
<title>BangD21</title>
<ellipse fill="none" stroke="black" cx="312.14" cy="-468.8" rx="36" ry="18"/>
<text text-anchor="middle" x="312.14" y="-465.1" font-family="Times,serif" font-size="14.00">BangD</text>
</g>
<!-- BangD21&#45;&gt;Identity20 -->
<g id="edge62" class="edge">
<title>BangD21&#45;&gt;Identity20</title>
<g id="a_edge62"><a xlink:title="xret26">
<path fill="none" stroke="blue" d="M306.26,-486.74C305.43,-494.57 305.19,-504.05 305.55,-512.82"/>
<polygon fill="blue" stroke="blue" points="302.07,-513.28 306.28,-523.01 309.05,-512.78 302.07,-513.28"/>
</a>
</g>
</g>
<!-- BangD21&#45;&gt;Identity20 -->
<g id="edge64" class="edge">
<title>BangD21&#45;&gt;Identity20</title>
<g id="a_edge64"><a xlink:title="xseq25">
<path fill="none" stroke="black" d="M318.02,-486.74C318.85,-494.57 319.08,-504.05 318.73,-512.82"/>
<polygon fill="black" stroke="black" points="315.22,-512.78 318,-523.01 322.2,-513.28 315.22,-512.78"/>
</a>
</g>
</g>
<!-- Bang22 -->
<g id="node23" class="node">
<title>Bang22</title>
<ellipse fill="none" stroke="black" cx="312.14" cy="-396.8" rx="29.5" ry="18"/>
<text text-anchor="middle" x="312.14" y="-393.1" font-family="Times,serif" font-size="14.00">Bang</text>
</g>
<!-- Bang22&#45;&gt;Identity20 -->
<g id="edge40" class="edge">
<title>Bang22&#45;&gt;Identity20</title>
<g id="a_edge40"><a xlink:title="newrretf23">
<path fill="none" stroke="red" d="M295.47,-411.66C285.14,-421.39 272.8,-435.39 267.14,-450.8 261.62,-465.81 261.62,-471.78 267.14,-486.8 271.28,-498.07 279,-508.59 286.9,-517.24"/>
<polygon fill="red" stroke="red" points="284.61,-519.91 294.1,-524.62 289.62,-515.02 284.61,-519.91"/>
</a>
</g>
</g>
<!-- Bang22&#45;&gt;BangD21 -->
<g id="edge1" class="edge">
<title>Bang22&#45;&gt;BangD21</title>
<g id="a_edge1"><a xlink:title="c_bseq24">
<path fill="none" stroke="black" d="M306.26,-414.74C305.43,-422.57 305.19,-432.05 305.55,-440.82"/>
<polygon fill="black" stroke="black" points="302.07,-441.28 306.28,-451.01 309.05,-440.78 302.07,-441.28"/>
</a>
</g>
</g>
<!-- Bang22&#45;&gt;BangD21 -->
<g id="edge61" class="edge">
<title>Bang22&#45;&gt;BangD21</title>
<g id="a_edge61"><a xlink:title="xBf22">
<path fill="none" stroke="blue" d="M318.02,-414.74C318.85,-422.57 319.08,-432.05 318.73,-440.82"/>
<polygon fill="blue" stroke="blue" points="315.22,-440.78 318,-451.01 322.2,-441.28 315.22,-440.78"/>
</a>
</g>
</g>
<!-- Identity23 -->
<g id="node24" class="node">
<title>Identity23</title>
<ellipse fill="none" stroke="black" cx="398.14" cy="-396.8" rx="38.19" ry="18"/>
<text text-anchor="middle" x="398.14" y="-393.1" font-family="Times,serif" font-size="14.00">Identity</text>
</g>
<!-- PiL24 -->
<g id="node25" class="node">
<title>PiL24</title>
<ellipse fill="none" stroke="black" cx="334.14" cy="-324.8" rx="27" ry="18"/>
<text text-anchor="middle" x="334.14" y="-321.1" font-family="Times,serif" font-size="14.00">PiL</text>
</g>
<!-- PiL24&#45;&gt;Bang22 -->
<g id="edge10" class="edge">
<title>PiL24&#45;&gt;Bang22</title>
<g id="a_edge10"><a xlink:title="dseq20">
<path fill="none" stroke="black" d="M323.38,-341.68C319.96,-349.65 316.58,-359.53 314.07,-368.66"/>
<polygon fill="black" stroke="black" points="310.64,-367.96 311.66,-378.5 317.44,-369.62 310.64,-367.96"/>
</a>
</g>
</g>
<!-- PiL24&#45;&gt;Bang22 -->
<g id="edge34" class="edge">
<title>PiL24&#45;&gt;Bang22</title>
<g id="a_edge34"><a xlink:title="newrret18">
<path fill="none" stroke="red" d="M334.61,-343.1C332.88,-351.31 329.95,-361.27 326.67,-370.32"/>
<polygon fill="red" stroke="red" points="323.4,-369.06 323,-379.65 329.92,-371.62 323.4,-369.06"/>
</a>
</g>
</g>
<!-- PiL24&#45;&gt;Identity23 -->
<g id="edge20" class="edge">
<title>PiL24&#45;&gt;Identity23</title>
<g id="a_edge20"><a xlink:title="idseq21">
<path fill="none" stroke="black" d="M349.77,-349.95C356.43,-357.72 364.3,-366.27 371.78,-373.87"/>
<polygon fill="black" stroke="black" points="345.87,-339.79 349.58,-349.72 340.49,-344.27 345.87,-339.79"/>
<polygon fill="black" stroke="black" points="369.49,-376.53 379.06,-381.08 374.42,-371.56 369.49,-376.53"/>
</a>
</g>
</g>
<!-- PiL24&#45;&gt;Identity23 -->
<g id="edge26" class="edge">
<title>PiL24&#45;&gt;Identity23</title>
<g id="a_edge26"><a xlink:title="lret19">
<path fill="none" stroke="blue" d="M351.59,-338.96C361.19,-348.05 372.85,-360.41 382.2,-371.28"/>
<polygon fill="blue" stroke="blue" points="379.73,-373.79 388.83,-379.23 385.11,-369.31 379.73,-373.79"/>
</a>
</g>
</g>
<!-- BangD25 -->
<g id="node26" class="node">
<title>BangD25</title>
<ellipse fill="none" stroke="black" cx="334.14" cy="-252.8" rx="36" ry="18"/>
<text text-anchor="middle" x="334.14" y="-249.1" font-family="Times,serif" font-size="14.00">BangD</text>
</g>
<!-- BangD25&#45;&gt;PiL24 -->
<g id="edge30" class="edge">
<title>BangD25&#45;&gt;PiL24</title>
<g id="a_edge30"><a xlink:title="lval14">
<path fill="none" stroke="blue" d="M328.26,-270.74C327.43,-278.57 327.19,-288.05 327.55,-296.82"/>
<polygon fill="blue" stroke="blue" points="324.07,-297.28 328.28,-307.01 331.05,-296.78 324.07,-297.28"/>
</a>
</g>
</g>
<!-- BangD25&#45;&gt;PiL24 -->
<g id="edge63" class="edge">
<title>BangD25&#45;&gt;PiL24</title>
<g id="a_edge63"><a xlink:title="xseq16">
<path fill="none" stroke="black" d="M340.02,-270.74C340.85,-278.57 341.08,-288.05 340.73,-296.82"/>
<polygon fill="black" stroke="black" points="337.22,-296.78 340,-307.01 344.2,-297.28 337.22,-296.78"/>
</a>
</g>
</g>
<!-- Assign26 -->
<g id="node27" class="node">
<title>Assign26</title>
<ellipse fill="none" stroke="black" cx="270.14" cy="-18" rx="35.19" ry="18"/>
<text text-anchor="middle" x="270.14" y="-14.3" font-family="Times,serif" font-size="14.00">Assign</text>
</g>
<!-- Assign26&#45;&gt;Identity23 -->
<g id="edge49" class="edge">
<title>Assign26&#45;&gt;Identity23</title>
<g id="a_edge49"><a xlink:title="ret8">
<path fill="none" stroke="red" d="M292.73,-31.86C329.47,-54.64 398.14,-105.86 398.14,-170.4 398.14,-170.4 398.14,-170.4 398.14,-253.8 398.14,-293.8 398.14,-340.14 398.14,-368.72"/>
<polygon fill="red" stroke="red" points="394.64,-368.75 398.14,-378.75 401.64,-368.75 394.64,-368.75"/>
</a>
</g>
</g>
<!-- Cut32 -->
<g id="node33" class="node">
<title>Cut32</title>
<ellipse fill="none" stroke="black" cx="270.14" cy="-90" rx="27" ry="18"/>
<text text-anchor="middle" x="270.14" y="-86.3" font-family="Times,serif" font-size="14.00">Cut</text>
</g>
<!-- Assign26&#45;&gt;Cut32 -->
<g id="edge51" class="edge">
<title>Assign26&#45;&gt;Cut32</title>
<g id="a_edge51"><a xlink:title="retseq0">
<path fill="none" stroke="black" d="M270.14,-36.3C270.14,-44.02 270.14,-53.29 270.14,-61.89"/>
<polygon fill="black" stroke="black" points="266.64,-61.9 270.14,-71.9 273.64,-61.9 266.64,-61.9"/>
</a>
</g>
</g>
<!-- Dup27 -->
<g id="node28" class="node">
<title>Dup27</title>
<ellipse fill="none" stroke="black" cx="190.14" cy="-324.8" rx="27" ry="18"/>
<text text-anchor="middle" x="190.14" y="-321.1" font-family="Times,serif" font-size="14.00">Dup</text>
</g>
<!-- Dup27&#45;&gt;PiR19 -->
<g id="edge2" class="edge">
<title>Dup27&#45;&gt;PiR19</title>
<g id="a_edge2"><a xlink:title="c_bseq32">
<path fill="none" stroke="black" d="M182.32,-342.38C178.41,-350.67 173.6,-360.87 169.23,-370.13"/>
<polygon fill="black" stroke="black" points="166,-368.79 164.9,-379.33 172.33,-371.77 166,-368.79"/>
</a>
</g>
</g>
<!-- Dup28 -->
<g id="node29" class="node">
<title>Dup28</title>
<ellipse fill="none" stroke="black" cx="118.14" cy="-324.8" rx="27" ry="18"/>
<text text-anchor="middle" x="118.14" y="-321.1" font-family="Times,serif" font-size="14.00">Dup</text>
</g>
<!-- Dup28&#45;&gt;PiR19 -->
<g id="edge41" class="edge">
<title>Dup28&#45;&gt;PiR19</title>
<g id="a_edge41"><a xlink:title="newrretf31">
<path fill="none" stroke="red" d="M127.18,-342.03C131.96,-350.6 137.92,-361.3 143.26,-370.9"/>
<polygon fill="red" stroke="red" points="140.22,-372.62 148.14,-379.65 146.33,-369.21 140.22,-372.62"/>
</a>
</g>
</g>
<!-- Bang29 -->
<g id="node30" class="node">
<title>Bang29</title>
<ellipse fill="none" stroke="black" cx="213.14" cy="-252.8" rx="29.5" ry="18"/>
<text text-anchor="middle" x="213.14" y="-249.1" font-family="Times,serif" font-size="14.00">Bang</text>
</g>
<!-- Bang29&#45;&gt;Dup27 -->
<g id="edge6" class="edge">
<title>Bang29&#45;&gt;Dup27</title>
<g id="a_edge6"><a xlink:title="c_bseq86">
<path fill="none" stroke="black" d="M207.57,-270.74C204.94,-278.74 201.75,-288.47 198.81,-297.4"/>
<polygon fill="black" stroke="black" points="195.45,-296.41 195.65,-307.01 202.1,-298.6 195.45,-296.41"/>
</a>
</g>
</g>
<!-- Bang29&#45;&gt;Dup28 -->
<g id="edge45" class="edge">
<title>Bang29&#45;&gt;Dup28</title>
<g id="a_edge45"><a xlink:title="newrretf87">
<path fill="none" stroke="red" d="M194.82,-267.29C180.44,-277.89 160.25,-292.77 144.19,-304.6"/>
<polygon fill="red" stroke="red" points="141.73,-302.06 135.76,-310.81 145.88,-307.7 141.73,-302.06"/>
</a>
</g>
</g>
<!-- Bang30 -->
<g id="node31" class="node">
<title>Bang30</title>
<ellipse fill="none" stroke="black" cx="185.14" cy="-171.4" rx="29.5" ry="18"/>
<text text-anchor="middle" x="185.14" y="-167.7" font-family="Times,serif" font-size="14.00">Bang</text>
</g>
<!-- Bang30&#45;&gt;Dup27 -->
<g id="edge7" class="edge">
<title>Bang30&#45;&gt;Dup27</title>
<g id="a_edge7"><a xlink:title="c_bseq90">
<path fill="none" stroke="black" d="M180.92,-189.51C176.65,-209.17 171.2,-242.39 175.14,-270.8 176.35,-279.55 178.64,-288.89 181.08,-297.25"/>
<polygon fill="none" stroke="black" points="177.75,-298.35 184.05,-306.87 184.44,-296.28 177.75,-298.35"/>
</a>
</g>
</g>
<!-- Bang30&#45;&gt;Dup28 -->
<g id="edge46" class="edge">
<title>Bang30&#45;&gt;Dup28</title>
<g id="a_edge46"><a xlink:title="newrretf91">
<path fill="none" stroke="red" d="M177.84,-188.89C166.21,-215.17 143.38,-266.75 129.57,-297.97"/>
<polygon fill="none" stroke="red" points="126.27,-296.76 125.43,-307.33 132.67,-299.6 126.27,-296.76"/>
</a>
</g>
</g>
<!-- Cut31 -->
<g id="node32" class="node">
<title>Cut31</title>
<ellipse fill="none" stroke="black" cx="325.14" cy="-171.4" rx="23.31" ry="23.31"/>
<ellipse fill="none" stroke="black" cx="325.14" cy="-171.4" rx="27.3" ry="27.3"/>
<text text-anchor="middle" x="325.14" y="-167.7" font-family="Times,serif" font-size="14.00">Cut</text>
</g>
<!-- Cut31&#45;&gt;BangD25 -->
<g id="edge53" class="edge">
<title>Cut31&#45;&gt;BangD25</title>
<g id="a_edge53"><a xlink:title="seq11">
<path fill="none" stroke="black" d="M322.54,-208.91C323.09,-214.31 323.81,-219.79 324.67,-224.94"/>
<polygon fill="black" stroke="black" points="325.22,-198.55 322.54,-208.8 318.24,-199.12 325.22,-198.55"/>
<polygon fill="black" stroke="black" points="321.26,-225.78 326.59,-234.94 328.14,-224.46 321.26,-225.78"/>
</a>
</g>
</g>
<!-- Cut31&#45;&gt;BangD25 -->
<g id="edge59" class="edge">
<title>Cut31&#45;&gt;BangD25</title>
<g id="a_edge59"><a xlink:title="xA9">
<path fill="none" stroke="blue" stroke-width="2" d="M334.31,-197.52C335.82,-206.18 336.96,-215.91 337.5,-224.71"/>
<polygon fill="blue" stroke="blue" stroke-width="2" points="334.01,-224.99 337.86,-234.86 341.01,-224.74 334.01,-224.99"/>
</a>
</g>
</g>
<!-- Cut31&#45;&gt;Bang29 -->
<g id="edge14" class="edge">
<title>Cut31&#45;&gt;Bang29</title>
<g id="a_edge14"><a xlink:title="dseq88">
<path fill="none" stroke="black" d="M301.48,-185.51C282.24,-197.88 255.51,-216.64 236.39,-231.05"/>
<polygon fill="black" stroke="black" points="234.01,-228.46 228.2,-237.32 238.27,-234.02 234.01,-228.46"/>
</a>
</g>
</g>
<!-- Cut31&#45;&gt;Bang29 -->
<g id="edge38" class="edge">
<title>Cut31&#45;&gt;Bang29</title>
<g id="a_edge38"><a xlink:title="newrret89">
<path fill="none" stroke="red" d="M305.22,-190.61C287.85,-203.87 262.65,-221.71 242.91,-234.7"/>
<polygon fill="red" stroke="red" points="240.77,-231.92 234.28,-240.3 244.57,-237.8 240.77,-231.92"/>
</a>
</g>
</g>
<!-- Cut32&#45;&gt;Bang22 -->
<g id="edge60" class="edge">
<title>Cut32&#45;&gt;Bang22</title>
<g id="a_edge60"><a xlink:title="xB10">
<path fill="none" stroke="blue" d="M271.09,-108.24C273.58,-149.22 281.24,-255.57 298.14,-342.8 299.79,-351.34 302.05,-360.53 304.27,-368.83"/>
<polygon fill="blue" stroke="blue" points="300.97,-370.04 307.01,-378.74 307.72,-368.17 300.97,-370.04"/>
</a>
</g>
</g>
<!-- Cut32&#45;&gt;Bang30 -->
<g id="edge15" class="edge">
<title>Cut32&#45;&gt;Bang30</title>
<g id="a_edge15"><a xlink:title="dseq92">
<path fill="none" stroke="black" d="M251.79,-103.41C237.59,-115.03 218.27,-132.72 203.97,-147"/>
<polygon fill="black" stroke="black" points="201.1,-144.93 196.61,-154.52 206.1,-149.82 201.1,-144.93"/>
</a>
</g>
</g>
<!-- Cut32&#45;&gt;Bang30 -->
<g id="edge39" class="edge">
<title>Cut32&#45;&gt;Bang30</title>
<g id="a_edge39"><a xlink:title="newrret93">
<path fill="none" stroke="red" d="M258.85,-106.69C246.84,-119.31 227.91,-137.12 212.14,-150.7"/>
<polygon fill="red" stroke="red" points="209.63,-148.25 204.24,-157.37 214.14,-153.6 209.63,-148.25"/>
</a>
</g>
</g>
<!-- Cut32&#45;&gt;Cut31 -->
<g id="edge58" class="edge">
<title>Cut32&#45;&gt;Cut31</title>
<g id="a_edge58"><a xlink:title="seqBC94">
<path fill="none" stroke="black" d="M286.83,-115.1C292.28,-122.97 298.41,-131.82 304.14,-140.09"/>
<polygon fill="black" stroke="black" points="283.88,-104.69 286.7,-114.91 278.13,-108.68 283.88,-104.69"/>
<polygon fill="black" stroke="black" points="301.35,-142.21 309.92,-148.43 307.1,-138.22 301.35,-142.21"/>
</a>
</g>
</g>
</g>
</svg>
