<?xml version="1.0" encoding="UTF-8" standalone="no"?>
<!DOCTYPE svg PUBLIC "-//W3C//DTD SVG 1.1//EN"
 "http://www.w3.org/Graphics/SVG/1.1/DTD/svg11.dtd">
<!-- Generated by graphviz version 2.43.0 (0)
 -->
<!-- Title: %3 Pages: 1 -->
<svg width="451pt" height="1839pt"
 viewBox="0.00 0.00 451.00 1839.00" xmlns="http://www.w3.org/2000/svg" xmlns:xlink="http://www.w3.org/1999/xlink">
<g id="graph0" class="graph" transform="scale(1 1) rotate(0) translate(4 1835)">
<title>%3</title>
<polygon fill="white" stroke="transparent" points="-4,4 -4,-1835 447,-1835 447,4 -4,4"/>
<!-- I0 -->
<g id="node1" class="node">
<title>I0</title>
<ellipse fill="none" stroke="black" cx="181" cy="-1813" rx="27" ry="18"/>
<text text-anchor="middle" x="181" y="-1809.3" font-family="Times-Roman" font-size="14.00">I</text>
</g>
<!-- !d1 -->
<g id="node2" class="node">
<title>!d1</title>
<ellipse fill="none" stroke="black" cx="126" cy="-1714" rx="27" ry="18"/>
<text text-anchor="middle" x="126" y="-1710.3" font-family="Times-Roman" font-size="14.00">!d</text>
</g>
<!-- I0&#45;&gt;!d1 -->
<g id="edge8" class="edge">
<title>I0&#45;&gt;!d1</title>
<g id="a_edge8"><a xlink:title="iret84">
<path fill="none" stroke="blue" d="M164.56,-1787.68C162.29,-1784.13 160.05,-1780.5 158,-1777 149.14,-1761.83 140.05,-1743.96 133.83,-1731.31"/>
<polygon fill="blue" stroke="blue" points="161.71,-1789.73 170.11,-1796.19 167.57,-1785.9 161.71,-1789.73"/>
</a>
</g>
<text text-anchor="middle" x="162.5" y="-1765.8" font-family="Times-Roman" font-size="14.00">3</text>
</g>
<!-- λ2 -->
<g id="node3" class="node">
<title>λ2</title>
<ellipse fill="none" stroke="black" cx="181" cy="-1615" rx="27" ry="18"/>
<text text-anchor="middle" x="181" y="-1611.3" font-family="Times-Roman" font-size="14.00">λ</text>
</g>
<!-- !d1&#45;&gt;λ2 -->
<g id="edge7" class="edge">
<title>!d1&#45;&gt;λ2</title>
<g id="a_edge7"><a xlink:title="i81">
<path fill="none" stroke="blue" d="M138.29,-1687.72C144.01,-1676.35 151.08,-1662.85 158,-1651 161.74,-1644.6 166.15,-1637.74 170.11,-1631.81"/>
<polygon fill="blue" stroke="blue" points="135.15,-1686.18 133.83,-1696.69 141.42,-1689.29 135.15,-1686.18"/>
</a>
</g>
<text text-anchor="middle" x="162.5" y="-1654.8" font-family="Times-Roman" font-size="14.00">3</text>
</g>
<!-- λ2&#45;&gt;I0 -->
<g id="edge31" class="edge">
<title>λ2&#45;&gt;I0</title>
<g id="a_edge31"><a xlink:title="ret82">
<path fill="none" stroke="red" d="M181,-1633.15C181,-1667.26 181,-1743.85 181,-1784.86"/>
<polygon fill="red" stroke="red" points="177.5,-1784.94 181,-1794.94 184.5,-1784.94 177.5,-1784.94"/>
</a>
</g>
</g>
<!-- !p3 -->
<g id="node4" class="node">
<title>!p3</title>
<ellipse fill="none" stroke="black" cx="236" cy="-1714" rx="27" ry="18"/>
<text text-anchor="middle" x="236" y="-1710.3" font-family="Times-Roman" font-size="14.00">!p</text>
</g>
<!-- !p3&#45;&gt;λ2 -->
<g id="edge23" class="edge">
<title>!p3&#45;&gt;λ2</title>
<g id="a_edge23"><a xlink:title="newrretf78">
<path fill="none" stroke="red" d="M226.92,-1696.98C218.32,-1681.82 205.28,-1658.81 195.28,-1641.19"/>
<polygon fill="red" stroke="red" points="198.07,-1639.01 190.1,-1632.04 191.98,-1642.47 198.07,-1639.01"/>
</a>
</g>
<text text-anchor="middle" x="213.5" y="-1654.8" font-family="Times-Roman" font-size="14.00">3</text>
</g>
<!-- I4 -->
<g id="node5" class="node">
<title>I4</title>
<ellipse fill="none" stroke="black" cx="366" cy="-1354" rx="27" ry="18"/>
<text text-anchor="middle" x="366" y="-1350.3" font-family="Times-Roman" font-size="14.00">I</text>
</g>
<!-- @5 -->
<g id="node6" class="node">
<title>@5</title>
<ellipse fill="none" stroke="black" cx="268" cy="-1813" rx="27" ry="18"/>
<text text-anchor="middle" x="268" y="-1809.3" font-family="Times-Roman" font-size="14.00">@</text>
</g>
<!-- I4&#45;&gt;@5 -->
<g id="edge12" class="edge">
<title>I4&#45;&gt;@5</title>
<g id="a_edge12"><a xlink:title="lret75">
<path fill="none" stroke="blue" d="M367.46,-1382.39C368.22,-1399.04 369,-1420.74 369,-1440 369,-1715 369,-1715 369,-1715 369,-1737.73 315.11,-1779.01 286.06,-1799.61"/>
<polygon fill="blue" stroke="blue" points="370.95,-1382.07 366.97,-1372.25 363.95,-1382.41 370.95,-1382.07"/>
</a>
</g>
</g>
<!-- @5&#45;&gt;!p3 -->
<g id="edge18" class="edge">
<title>@5&#45;&gt;!p3</title>
<g id="a_edge18"><a xlink:title="newrret74">
<path fill="none" stroke="red" d="M262.43,-1795.1C257.56,-1780.36 250.42,-1758.71 244.79,-1741.64"/>
<polygon fill="red" stroke="red" points="247.97,-1740.1 241.51,-1731.7 241.32,-1742.29 247.97,-1740.1"/>
</a>
</g>
<text text-anchor="middle" x="260.5" y="-1765.8" font-family="Times-Roman" font-size="14.00">2</text>
</g>
<!-- Cut8 -->
<g id="node9" class="node">
<title>Cut8</title>
<ellipse fill="none" stroke="black" cx="311" cy="-1714" rx="26" ry="26"/>
<ellipse fill="none" stroke="black" cx="311" cy="-1714" rx="30" ry="30"/>
<text text-anchor="middle" x="311" y="-1710.3" font-family="Times-Roman" font-size="14.00">Cut</text>
</g>
<!-- @5&#45;&gt;Cut8 -->
<g id="edge14" class="edge">
<title>@5&#45;&gt;Cut8</title>
<g id="a_edge14"><a xlink:title="lval70">
<path fill="none" stroke="blue" d="M279.44,-1786.2C285.51,-1772.49 292.97,-1755.66 299.11,-1741.81"/>
<polygon fill="blue" stroke="blue" points="276.15,-1784.98 275.29,-1795.54 282.55,-1787.82 276.15,-1784.98"/>
</a>
</g>
</g>
<!-- I6 -->
<g id="node7" class="node">
<title>I6</title>
<ellipse fill="none" stroke="black" cx="311" cy="-1615" rx="27" ry="18"/>
<text text-anchor="middle" x="311" y="-1611.3" font-family="Times-Roman" font-size="14.00">I</text>
</g>
<!-- !d7 -->
<g id="node8" class="node">
<title>!d7</title>
<ellipse fill="none" stroke="black" cx="311" cy="-1528" rx="27" ry="18"/>
<text text-anchor="middle" x="311" y="-1524.3" font-family="Times-Roman" font-size="14.00">!d</text>
</g>
<!-- I6&#45;&gt;!d7 -->
<g id="edge6" class="edge">
<title>I6&#45;&gt;!d7</title>
<g id="a_edge6"><a xlink:title="hret73">
<path fill="none" stroke="blue" d="M311,-1586.73C311,-1573.42 311,-1557.81 311,-1546.18"/>
<polygon fill="blue" stroke="blue" points="307.5,-1586.8 311,-1596.8 314.5,-1586.8 307.5,-1586.8"/>
</a>
</g>
<text text-anchor="middle" x="315.5" y="-1567.8" font-family="Times-Roman" font-size="14.00">2</text>
</g>
<!-- !p9 -->
<g id="node10" class="node">
<title>!p9</title>
<ellipse fill="none" stroke="black" cx="311" cy="-1441" rx="27" ry="18"/>
<text text-anchor="middle" x="311" y="-1437.3" font-family="Times-Roman" font-size="14.00">!p</text>
</g>
<!-- !d7&#45;&gt;!p9 -->
<g id="edge5" class="edge">
<title>!d7&#45;&gt;!p9</title>
<g id="a_edge5"><a xlink:title="hf65">
<path fill="none" stroke="blue" d="M311,-1499.73C311,-1486.42 311,-1470.81 311,-1459.18"/>
<polygon fill="blue" stroke="blue" points="307.5,-1499.8 311,-1509.8 314.5,-1499.8 307.5,-1499.8"/>
</a>
</g>
<text text-anchor="middle" x="315.5" y="-1480.8" font-family="Times-Roman" font-size="14.00">1</text>
</g>
<!-- Cut8&#45;&gt;I6 -->
<g id="edge33" class="edge">
<title>Cut8&#45;&gt;I6</title>
<g id="a_edge33"><a xlink:title="rval71">
<path fill="none" stroke="red" stroke-width="2" d="M311,-1683.9C311,-1671.12 311,-1656.19 311,-1643.6"/>
<polygon fill="red" stroke="red" stroke-width="2" points="314.5,-1643.24 311,-1633.24 307.5,-1643.24 314.5,-1643.24"/>
</a>
</g>
</g>
<!-- !p9&#45;&gt;I4 -->
<g id="edge22" class="edge">
<title>!p9&#45;&gt;I4</title>
<g id="a_edge22"><a xlink:title="newrretf66">
<path fill="none" stroke="red" d="M321.35,-1424.01C329.49,-1411.43 340.97,-1393.68 350.26,-1379.33"/>
<polygon fill="red" stroke="red" points="353.21,-1381.21 355.7,-1370.92 347.33,-1377.41 353.21,-1381.21"/>
</a>
</g>
<text text-anchor="middle" x="345.5" y="-1393.8" font-family="Times-Roman" font-size="14.00">2</text>
</g>
<!-- Dup31 -->
<g id="node32" class="node">
<title>Dup31</title>
<ellipse fill="none" stroke="black" cx="127" cy="-1354" rx="28.7" ry="18"/>
<text text-anchor="middle" x="127" y="-1350.3" font-family="Times-Roman" font-size="14.00">Dup</text>
</g>
<!-- !p9&#45;&gt;Dup31 -->
<g id="edge4" class="edge">
<title>!p9&#45;&gt;Dup31</title>
<g id="a_edge4"><a xlink:title="h34">
<path fill="none" stroke="blue" d="M279.86,-1425.61C242.85,-1408.52 182.02,-1380.42 149.38,-1365.34"/>
<polygon fill="blue" stroke="blue" points="278.62,-1428.9 289.17,-1429.92 281.56,-1422.54 278.62,-1428.9"/>
</a>
</g>
<text text-anchor="middle" x="235.5" y="-1393.8" font-family="Times-Roman" font-size="14.00">1</text>
</g>
<!-- I10 -->
<g id="node11" class="node">
<title>I10</title>
<ellipse fill="none" stroke="black" cx="164" cy="-658" rx="27" ry="18"/>
<text text-anchor="middle" x="164" y="-654.3" font-family="Times-Roman" font-size="14.00">I</text>
</g>
<!-- Cut26 -->
<g id="node27" class="node">
<title>Cut26</title>
<ellipse fill="none" stroke="black" cx="164" cy="-585" rx="27" ry="18"/>
<text text-anchor="middle" x="164" y="-581.3" font-family="Times-Roman" font-size="14.00">Cut</text>
</g>
<!-- I10&#45;&gt;Cut26 -->
<g id="edge11" class="edge">
<title>I10&#45;&gt;Cut26</title>
<g id="a_edge11"><a xlink:title="lret62">
<path fill="none" stroke="blue" d="M164,-629.75C164,-620.77 164,-611.03 164,-603.03"/>
<polygon fill="blue" stroke="blue" points="160.5,-629.81 164,-639.81 167.5,-629.81 160.5,-629.81"/>
</a>
</g>
</g>
<!-- I11 -->
<g id="node12" class="node">
<title>I11</title>
<ellipse fill="none" stroke="black" cx="101" cy="-265" rx="27" ry="18"/>
<text text-anchor="middle" x="101" y="-261.3" font-family="Times-Roman" font-size="14.00">I</text>
</g>
<!-- !d12 -->
<g id="node13" class="node">
<title>!d12</title>
<ellipse fill="none" stroke="black" cx="143" cy="-178" rx="27" ry="18"/>
<text text-anchor="middle" x="143" y="-174.3" font-family="Times-Roman" font-size="14.00">!d</text>
</g>
<!-- I11&#45;&gt;!d12 -->
<g id="edge42" class="edge">
<title>I11&#45;&gt;!d12</title>
<g id="a_edge42"><a xlink:title="yret60">
<path fill="none" stroke="blue" d="M113.61,-238.49C120.52,-224.49 128.89,-207.56 134.93,-195.34"/>
<polygon fill="blue" stroke="blue" points="110.39,-237.1 109.1,-247.61 116.67,-240.2 110.39,-237.1"/>
</a>
</g>
<text text-anchor="middle" x="129.5" y="-217.8" font-family="Times-Roman" font-size="14.00">2</text>
</g>
<!-- !p13 -->
<g id="node14" class="node">
<title>!p13</title>
<ellipse fill="none" stroke="black" cx="164" cy="-352" rx="27" ry="18"/>
<text text-anchor="middle" x="164" y="-348.3" font-family="Times-Roman" font-size="14.00">!p</text>
</g>
<!-- !d12&#45;&gt;!p13 -->
<g id="edge40" class="edge">
<title>!d12&#45;&gt;!p13</title>
<g id="a_edge40"><a xlink:title="yBf56">
<path fill="none" stroke="blue" d="M146.33,-206.27C150.71,-242.11 158.26,-304 161.91,-333.88"/>
<polygon fill="blue" stroke="blue" points="149.77,-205.55 145.08,-196.05 142.82,-206.4 149.77,-205.55"/>
</a>
</g>
<text text-anchor="middle" x="160.5" y="-261.3" font-family="Times-Roman" font-size="14.00">1</text>
</g>
<!-- !p13&#45;&gt;I11 -->
<g id="edge21" class="edge">
<title>!p13&#45;&gt;I11</title>
<g id="a_edge21"><a xlink:title="newrretf57">
<path fill="none" stroke="red" d="M152.44,-335.41C142.94,-322.59 129.33,-304.22 118.49,-289.6"/>
<polygon fill="red" stroke="red" points="121.25,-287.44 112.48,-281.49 115.62,-291.61 121.25,-287.44"/>
</a>
</g>
<text text-anchor="middle" x="141.5" y="-304.8" font-family="Times-Roman" font-size="14.00">2</text>
</g>
<!-- !c19 -->
<g id="node20" class="node">
<title>!c19</title>
<ellipse fill="none" stroke="black" cx="256" cy="-91" rx="27" ry="18"/>
<text text-anchor="middle" x="256" y="-87.3" font-family="Times-Roman" font-size="14.00">!c</text>
</g>
<!-- !p13&#45;&gt;!c19 -->
<g id="edge39" class="edge">
<title>!p13&#45;&gt;!c19</title>
<g id="a_edge39"><a xlink:title="yB44">
<path fill="none" stroke="blue" d="M171.1,-324.34C183.22,-279.31 207.75,-190.14 220,-160 225.97,-145.31 234.15,-129.62 241.2,-117.01"/>
<polygon fill="blue" stroke="blue" points="167.72,-323.44 168.51,-334.01 174.48,-325.26 167.72,-323.44"/>
<polygon fill="blue" stroke="blue" points="249.36,-109.78 241.36,-116.73 243.28,-106.31 249.36,-109.78"/>
</a>
</g>
<text text-anchor="middle" x="206.5" y="-217.8" font-family="Times-Roman" font-size="14.00">1</text>
</g>
<!-- I14 -->
<g id="node15" class="node">
<title>I14</title>
<ellipse fill="none" stroke="black" cx="164" cy="-512" rx="27" ry="18"/>
<text text-anchor="middle" x="164" y="-508.3" font-family="Times-Roman" font-size="14.00">I</text>
</g>
<!-- @15 -->
<g id="node16" class="node">
<title>@15</title>
<ellipse fill="none" stroke="black" cx="164" cy="-439" rx="27" ry="18"/>
<text text-anchor="middle" x="164" y="-435.3" font-family="Times-Roman" font-size="14.00">@</text>
</g>
<!-- I14&#45;&gt;@15 -->
<g id="edge10" class="edge">
<title>I14&#45;&gt;@15</title>
<g id="a_edge10"><a xlink:title="lret53">
<path fill="none" stroke="blue" d="M164,-483.75C164,-474.77 164,-465.03 164,-457.03"/>
<polygon fill="blue" stroke="blue" points="160.5,-483.81 164,-493.81 167.5,-483.81 160.5,-483.81"/>
</a>
</g>
</g>
<!-- @15&#45;&gt;!p13 -->
<g id="edge16" class="edge">
<title>@15&#45;&gt;!p13</title>
<g id="a_edge16"><a xlink:title="newrret52">
<path fill="none" stroke="red" d="M164,-420.8C164,-409.16 164,-393.55 164,-380.24"/>
<polygon fill="red" stroke="red" points="167.5,-380.18 164,-370.18 160.5,-380.18 167.5,-380.18"/>
</a>
</g>
<text text-anchor="middle" x="168.5" y="-391.8" font-family="Times-Roman" font-size="14.00">1</text>
</g>
<!-- Cut18 -->
<g id="node19" class="node">
<title>Cut18</title>
<ellipse fill="none" stroke="black" cx="256" cy="-352" rx="27" ry="18"/>
<text text-anchor="middle" x="256" y="-348.3" font-family="Times-Roman" font-size="14.00">Cut</text>
</g>
<!-- @15&#45;&gt;Cut18 -->
<g id="edge13" class="edge">
<title>@15&#45;&gt;Cut18</title>
<g id="a_edge13"><a xlink:title="lval48">
<path fill="none" stroke="blue" d="M186.94,-416.8C203.76,-401.26 226.13,-380.6 240.79,-367.06"/>
<polygon fill="blue" stroke="blue" points="184.16,-414.61 179.19,-423.96 188.91,-419.75 184.16,-414.61"/>
</a>
</g>
</g>
<!-- I16 -->
<g id="node17" class="node">
<title>I16</title>
<ellipse fill="none" stroke="black" cx="256" cy="-265" rx="27" ry="18"/>
<text text-anchor="middle" x="256" y="-261.3" font-family="Times-Roman" font-size="14.00">I</text>
</g>
<!-- !d17 -->
<g id="node18" class="node">
<title>!d17</title>
<ellipse fill="none" stroke="black" cx="256" cy="-178" rx="27" ry="18"/>
<text text-anchor="middle" x="256" y="-174.3" font-family="Times-Roman" font-size="14.00">!d</text>
</g>
<!-- I16&#45;&gt;!d17 -->
<g id="edge41" class="edge">
<title>I16&#45;&gt;!d17</title>
<g id="a_edge41"><a xlink:title="yret51">
<path fill="none" stroke="blue" d="M256,-236.73C256,-223.42 256,-207.81 256,-196.18"/>
<polygon fill="blue" stroke="blue" points="252.5,-236.8 256,-246.8 259.5,-236.8 252.5,-236.8"/>
</a>
</g>
<text text-anchor="middle" x="260.5" y="-217.8" font-family="Times-Roman" font-size="14.00">1</text>
</g>
<!-- !d17&#45;&gt;!c19 -->
<g id="edge38" class="edge">
<title>!d17&#45;&gt;!c19</title>
<g id="a_edge38"><a xlink:title="yA43">
<path fill="none" stroke="blue" d="M256,-149.73C256,-136.42 256,-120.81 256,-109.18"/>
<polygon fill="blue" stroke="blue" points="252.5,-149.8 256,-159.8 259.5,-149.8 252.5,-149.8"/>
</a>
</g>
<text text-anchor="middle" x="260.5" y="-130.8" font-family="Times-Roman" font-size="14.00">1</text>
</g>
<!-- Cut18&#45;&gt;I16 -->
<g id="edge32" class="edge">
<title>Cut18&#45;&gt;I16</title>
<g id="a_edge32"><a xlink:title="rval49">
<path fill="none" stroke="red" d="M256,-333.8C256,-322.16 256,-306.55 256,-293.24"/>
<polygon fill="red" stroke="red" points="259.5,-293.18 256,-283.18 252.5,-293.18 259.5,-293.18"/>
</a>
</g>
</g>
<!-- Cut25 -->
<g id="node26" class="node">
<title>Cut25</title>
<ellipse fill="none" stroke="black" cx="311" cy="-18" rx="27" ry="18"/>
<text text-anchor="middle" x="311" y="-14.3" font-family="Times-Roman" font-size="14.00">Cut</text>
</g>
<!-- !c19&#45;&gt;Cut25 -->
<g id="edge37" class="edge">
<title>!c19&#45;&gt;Cut25</title>
<g id="a_edge37"><a xlink:title="y41">
<path fill="none" stroke="blue" d="M274.17,-66.54C282.37,-55.96 291.81,-43.77 299.09,-34.38"/>
<polygon fill="blue" stroke="blue" points="271.29,-64.55 267.93,-74.59 276.83,-68.83 271.29,-64.55"/>
</a>
</g>
</g>
<!-- I20 -->
<g id="node21" class="node">
<title>I20</title>
<ellipse fill="none" stroke="black" cx="127" cy="-1006" rx="27" ry="18"/>
<text text-anchor="middle" x="127" y="-1002.3" font-family="Times-Roman" font-size="14.00">I</text>
</g>
<!-- !d21 -->
<g id="node22" class="node">
<title>!d21</title>
<ellipse fill="none" stroke="black" cx="127" cy="-919" rx="27" ry="18"/>
<text text-anchor="middle" x="127" y="-915.3" font-family="Times-Roman" font-size="14.00">!d</text>
</g>
<!-- I20&#45;&gt;!d21 -->
<g id="edge36" class="edge">
<title>I20&#45;&gt;!d21</title>
<g id="a_edge36"><a xlink:title="xret26">
<path fill="none" stroke="blue" d="M127,-977.73C127,-964.42 127,-948.81 127,-937.18"/>
<polygon fill="blue" stroke="blue" points="123.5,-977.8 127,-987.8 130.5,-977.8 123.5,-977.8"/>
</a>
</g>
<text text-anchor="middle" x="131.5" y="-958.8" font-family="Times-Roman" font-size="14.00">1</text>
</g>
<!-- !p22 -->
<g id="node23" class="node">
<title>!p22</title>
<ellipse fill="none" stroke="black" cx="127" cy="-1093" rx="27" ry="18"/>
<text text-anchor="middle" x="127" y="-1089.3" font-family="Times-Roman" font-size="14.00">!p</text>
</g>
<!-- !d21&#45;&gt;!p22 -->
<g id="edge35" class="edge">
<title>!d21&#45;&gt;!p22</title>
<g id="a_edge35"><a xlink:title="xBf22">
<path fill="none" stroke="blue" d="M143.43,-944.04C151,-956.56 159.14,-972.46 163,-988 166.86,-1003.53 166.86,-1008.47 163,-1024 158.2,-1043.32 146.79,-1063.18 138.1,-1076.42"/>
<polygon fill="blue" stroke="blue" points="146.39,-942.17 138.1,-935.58 140.47,-945.91 146.39,-942.17"/>
</a>
</g>
<text text-anchor="middle" x="170.5" y="-1002.3" font-family="Times-Roman" font-size="14.00">0</text>
</g>
<!-- !p22&#45;&gt;I20 -->
<g id="edge20" class="edge">
<title>!p22&#45;&gt;I20</title>
<g id="a_edge20"><a xlink:title="newrretf23">
<path fill="none" stroke="red" d="M127,-1074.8C127,-1063.16 127,-1047.55 127,-1034.24"/>
<polygon fill="red" stroke="red" points="130.5,-1034.18 127,-1024.18 123.5,-1034.18 130.5,-1034.18"/>
</a>
</g>
<text text-anchor="middle" x="131.5" y="-1045.8" font-family="Times-Roman" font-size="14.00">1</text>
</g>
<!-- Cut28 -->
<g id="node29" class="node">
<title>Cut28</title>
<ellipse fill="none" stroke="black" cx="55" cy="-1006" rx="27" ry="18"/>
<text text-anchor="middle" x="55" y="-1002.3" font-family="Times-Roman" font-size="14.00">Cut</text>
</g>
<!-- !p22&#45;&gt;Cut28 -->
<g id="edge34" class="edge">
<title>!p22&#45;&gt;Cut28</title>
<g id="a_edge34"><a xlink:title="xB10">
<path fill="none" stroke="blue" d="M107.52,-1069C94.89,-1054.09 78.78,-1035.08 67.76,-1022.06"/>
<polygon fill="blue" stroke="blue" points="104.99,-1071.44 114.13,-1076.8 110.34,-1066.91 104.99,-1071.44"/>
</a>
</g>
<text text-anchor="middle" x="100.5" y="-1045.8" font-family="Times-Roman" font-size="14.00">0</text>
</g>
<!-- I23 -->
<g id="node24" class="node">
<title>I23</title>
<ellipse fill="none" stroke="black" cx="244" cy="-1006" rx="27" ry="18"/>
<text text-anchor="middle" x="244" y="-1002.3" font-family="Times-Roman" font-size="14.00">I</text>
</g>
<!-- Cut37 -->
<g id="node38" class="node">
<title>Cut37</title>
<ellipse fill="none" stroke="black" cx="199" cy="-919" rx="27" ry="18"/>
<text text-anchor="middle" x="199" y="-915.3" font-family="Times-Roman" font-size="14.00">Cut</text>
</g>
<!-- I23&#45;&gt;Cut37 -->
<g id="edge9" class="edge">
<title>I23&#45;&gt;Cut37</title>
<g id="a_edge9"><a xlink:title="lret19">
<path fill="none" stroke="blue" d="M230.49,-979.49C223.08,-965.49 214.12,-948.56 207.65,-936.34"/>
<polygon fill="blue" stroke="blue" points="227.55,-981.41 235.32,-988.61 233.74,-978.14 227.55,-981.41"/>
</a>
</g>
</g>
<!-- Assign24 -->
<g id="node25" class="node">
<title>Assign24</title>
<ellipse fill="none" stroke="black" cx="244" cy="-1093" rx="38.99" ry="18"/>
<text text-anchor="middle" x="244" y="-1089.3" font-family="Times-Roman" font-size="14.00">Assign</text>
</g>
<!-- Assign24&#45;&gt;I23 -->
<g id="edge30" class="edge">
<title>Assign24&#45;&gt;I23</title>
<g id="a_edge30"><a xlink:title="ret8">
<path fill="none" stroke="red" d="M244,-1074.8C244,-1063.16 244,-1047.55 244,-1034.24"/>
<polygon fill="red" stroke="red" points="247.5,-1034.18 244,-1024.18 240.5,-1034.18 247.5,-1034.18"/>
</a>
</g>
</g>
<!-- Cut25&#45;&gt;!p9 -->
<g id="edge17" class="edge">
<title>Cut25&#45;&gt;!p9</title>
<g id="a_edge17"><a xlink:title="newrret61">
<path fill="none" stroke="red" d="M311,-36.22C311,-50.59 311,-71.63 311,-90 311,-1355 311,-1355 311,-1355 311,-1374.25 311,-1395.95 311,-1412.6"/>
<polygon fill="red" stroke="red" points="307.5,-1412.74 311,-1422.74 314.5,-1412.74 307.5,-1412.74"/>
</a>
</g>
<text text-anchor="middle" x="315.5" y="-697.8" font-family="Times-Roman" font-size="14.00">1</text>
</g>
<!-- Cut26&#45;&gt;I14 -->
<g id="edge29" class="edge">
<title>Cut26&#45;&gt;I14</title>
<g id="a_edge29"><a xlink:title="ret42">
<path fill="none" stroke="red" d="M164,-566.81C164,-558.79 164,-549.05 164,-540.07"/>
<polygon fill="red" stroke="red" points="167.5,-540.03 164,-530.03 160.5,-540.03 167.5,-540.03"/>
</a>
</g>
</g>
<!-- !p27 -->
<g id="node28" class="node">
<title>!p27</title>
<ellipse fill="none" stroke="black" cx="55" cy="-919" rx="27" ry="18"/>
<text text-anchor="middle" x="55" y="-915.3" font-family="Times-Roman" font-size="14.00">!p</text>
</g>
<!-- λ29 -->
<g id="node30" class="node">
<title>λ29</title>
<ellipse fill="none" stroke="black" cx="55" cy="-832" rx="27" ry="18"/>
<text text-anchor="middle" x="55" y="-828.3" font-family="Times-Roman" font-size="14.00">λ</text>
</g>
<!-- !p27&#45;&gt;λ29 -->
<g id="edge24" class="edge">
<title>!p27&#45;&gt;λ29</title>
<g id="a_edge24"><a xlink:title="newrretf92">
<path fill="none" stroke="red" d="M55,-900.8C55,-889.16 55,-873.55 55,-860.24"/>
<polygon fill="red" stroke="red" points="58.5,-860.18 55,-850.18 51.5,-860.18 58.5,-860.18"/>
</a>
</g>
<text text-anchor="middle" x="59.5" y="-871.8" font-family="Times-Roman" font-size="14.00">1</text>
</g>
<!-- Cut28&#45;&gt;!p27 -->
<g id="edge19" class="edge">
<title>Cut28&#45;&gt;!p27</title>
<g id="a_edge19"><a xlink:title="newrret94">
<path fill="none" stroke="red" d="M55,-987.8C55,-976.16 55,-960.55 55,-947.24"/>
<polygon fill="red" stroke="red" points="58.5,-947.18 55,-937.18 51.5,-947.18 58.5,-947.18"/>
</a>
</g>
<text text-anchor="middle" x="59.5" y="-958.8" font-family="Times-Roman" font-size="14.00">0</text>
</g>
<!-- Dup32 -->
<g id="node33" class="node">
<title>Dup32</title>
<ellipse fill="none" stroke="black" cx="164" cy="-745" rx="28.7" ry="18"/>
<text text-anchor="middle" x="164" y="-741.3" font-family="Times-Roman" font-size="14.00">Dup</text>
</g>
<!-- λ29&#45;&gt;Dup32 -->
<g id="edge26" class="edge">
<title>λ29&#45;&gt;Dup32</title>
<g id="a_edge26"><a xlink:title="ret106">
<path fill="none" stroke="red" d="M72.03,-817.72C89.92,-803.77 118.26,-781.67 138.75,-765.69"/>
<polygon fill="none" stroke="red" points="141,-768.38 146.73,-759.47 136.69,-762.86 141,-768.38"/>
</a>
</g>
<text text-anchor="middle" x="121.5" y="-784.8" font-family="Times-Roman" font-size="14.00">1</text>
</g>
<!-- Dup30 -->
<g id="node31" class="node">
<title>Dup30</title>
<ellipse fill="none" stroke="black" cx="342" cy="-1813" rx="28.7" ry="18"/>
<text text-anchor="middle" x="342" y="-1809.3" font-family="Times-Roman" font-size="14.00">Dup</text>
</g>
<!-- Dup31&#45;&gt;λ29 -->
<g id="edge2" class="edge">
<title>Dup31&#45;&gt;λ29</title>
<g id="a_edge2"><a xlink:title="h105">
<path fill="none" stroke="blue" d="M89.95,-1344.92C52.46,-1334.3 0,-1311.65 0,-1268 0,-1268 0,-1268 0,-918 0,-889 22.85,-862.07 39.09,-846.59"/>
<polygon fill="none" stroke="blue" points="89.5,-1348.42 100.07,-1347.6 91.3,-1341.66 89.5,-1348.42"/>
</a>
</g>
<text text-anchor="middle" x="4.5" y="-1089.3" font-family="Times-Roman" font-size="14.00">1</text>
</g>
<!-- Lift34 -->
<g id="node35" class="node">
<title>Lift34</title>
<ellipse fill="none" stroke="black" cx="127" cy="-1267" rx="27" ry="18"/>
<text text-anchor="middle" x="127" y="-1263.3" font-family="Times-Roman" font-size="14.00">Lift</text>
</g>
<!-- Dup31&#45;&gt;Lift34 -->
<g id="edge1" class="edge">
<title>Dup31&#45;&gt;Lift34</title>
<g id="a_edge1"><a xlink:title="h101">
<path fill="none" stroke="blue" d="M127,-1325.73C127,-1312.42 127,-1296.81 127,-1285.18"/>
<polygon fill="blue" stroke="blue" points="123.5,-1325.8 127,-1335.8 130.5,-1325.8 123.5,-1325.8"/>
</a>
</g>
<text text-anchor="middle" x="131.5" y="-1306.8" font-family="Times-Roman" font-size="14.00">1</text>
</g>
<!-- Dup32&#45;&gt;I10 -->
<g id="edge28" class="edge">
<title>Dup32&#45;&gt;I10</title>
<g id="a_edge28"><a xlink:title="ret35">
<path fill="none" stroke="red" d="M164,-726.8C164,-715.16 164,-699.55 164,-686.24"/>
<polygon fill="red" stroke="red" points="167.5,-686.18 164,-676.18 160.5,-686.18 167.5,-686.18"/>
</a>
</g>
<text text-anchor="middle" x="168.5" y="-697.8" font-family="Times-Roman" font-size="14.00">1</text>
</g>
<!-- Lift33 -->
<g id="node34" class="node">
<title>Lift33</title>
<ellipse fill="none" stroke="black" cx="416" cy="-1813" rx="27" ry="18"/>
<text text-anchor="middle" x="416" y="-1809.3" font-family="Times-Roman" font-size="14.00">Lift</text>
</g>
<!-- Cut36 -->
<g id="node37" class="node">
<title>Cut36</title>
<ellipse fill="none" stroke="black" cx="127" cy="-1180" rx="27" ry="18"/>
<text text-anchor="middle" x="127" y="-1176.3" font-family="Times-Roman" font-size="14.00">Cut</text>
</g>
<!-- Lift34&#45;&gt;Cut36 -->
<g id="edge3" class="edge">
<title>Lift34&#45;&gt;Cut36</title>
<g id="a_edge3"><a xlink:title="h109">
<path fill="none" stroke="blue" d="M127,-1238.73C127,-1225.42 127,-1209.81 127,-1198.18"/>
<polygon fill="blue" stroke="blue" points="123.5,-1238.8 127,-1248.8 130.5,-1238.8 123.5,-1238.8"/>
</a>
</g>
<text text-anchor="middle" x="131.5" y="-1219.8" font-family="Times-Roman" font-size="14.00">0</text>
</g>
<!-- Lift35 -->
<g id="node36" class="node">
<title>Lift35</title>
<ellipse fill="none" stroke="black" cx="190" cy="-832" rx="27" ry="18"/>
<text text-anchor="middle" x="190" y="-828.3" font-family="Times-Roman" font-size="14.00">Lift</text>
</g>
<!-- Lift35&#45;&gt;Dup32 -->
<g id="edge25" class="edge">
<title>Lift35&#45;&gt;Dup32</title>
<g id="a_edge25"><a xlink:title="ret102">
<path fill="none" stroke="red" d="M184.86,-814.21C181.23,-802.33 176.29,-786.17 172.12,-772.56"/>
<polygon fill="red" stroke="red" points="175.4,-771.3 169.13,-762.76 168.7,-773.34 175.4,-771.3"/>
</a>
</g>
<text text-anchor="middle" x="183.5" y="-784.8" font-family="Times-Roman" font-size="14.00">1</text>
</g>
<!-- Cut36&#45;&gt;!p22 -->
<g id="edge15" class="edge">
<title>Cut36&#45;&gt;!p22</title>
<g id="a_edge15"><a xlink:title="newrret18">
<path fill="none" stroke="red" d="M127,-1161.8C127,-1150.16 127,-1134.55 127,-1121.24"/>
<polygon fill="red" stroke="red" points="130.5,-1121.18 127,-1111.18 123.5,-1121.18 130.5,-1121.18"/>
</a>
</g>
<text text-anchor="middle" x="131.5" y="-1132.8" font-family="Times-Roman" font-size="14.00">0</text>
</g>
<!-- Cut37&#45;&gt;Lift35 -->
<g id="edge27" class="edge">
<title>Cut37&#45;&gt;Lift35</title>
<g id="a_edge27"><a xlink:title="ret110">
<path fill="none" stroke="red" d="M197.18,-900.8C195.95,-889.16 194.29,-873.55 192.88,-860.24"/>
<polygon fill="red" stroke="red" points="196.35,-859.75 191.82,-850.18 189.39,-860.49 196.35,-859.75"/>
</a>
</g>
<text text-anchor="middle" x="200.5" y="-871.8" font-family="Times-Roman" font-size="14.00">0</text>
</g>
</g>
</svg>
