<?xml version="1.0" encoding="UTF-8" standalone="no"?>
<!DOCTYPE svg PUBLIC "-//W3C//DTD SVG 1.1//EN"
 "http://www.w3.org/Graphics/SVG/1.1/DTD/svg11.dtd">
<!-- Generated by graphviz version 2.49.3 (0)
 -->
<!-- Pages: 1 -->
<svg width="495pt" height="1239pt"
 viewBox="0.00 0.00 495.00 1238.80" xmlns="http://www.w3.org/2000/svg" xmlns:xlink="http://www.w3.org/1999/xlink">
<g id="graph0" class="graph" transform="scale(1 1) rotate(0) translate(4 1234.8)">
<polygon fill="white" stroke="transparent" points="-4,4 -4,-1234.8 491,-1234.8 491,4 -4,4"/>
<!-- I0 -->
<g id="node1" class="node">
<title>I0</title>
<ellipse fill="none" stroke="black" cx="82" cy="-1139.8" rx="27" ry="18"/>
<text text-anchor="middle" x="82" y="-1136.1" font-family="Times,serif" font-size="14.00">I</text>
</g>
<!-- !d1 -->
<g id="node2" class="node">
<title>!d1</title>
<ellipse fill="none" stroke="black" cx="27" cy="-1052.8" rx="27" ry="18"/>
<text text-anchor="middle" x="27" y="-1049.1" font-family="Times,serif" font-size="14.00">!d</text>
</g>
<!-- I0&#45;&gt;!d1 -->
<g id="edge4" class="edge">
<title>I0&#45;&gt;!d1</title>
<g id="a_edge4"><a xlink:title="iret84">
<path fill="none" stroke="blue" d="M66.2,-1114.38C56.91,-1100.02 45.43,-1082.28 37.3,-1069.71"/>
<polygon fill="blue" stroke="blue" points="63.28,-1116.31 71.65,-1122.81 69.16,-1112.51 63.28,-1116.31"/>
</a>
</g>
<text text-anchor="middle" x="61.5" y="-1092.6" font-family="Times,serif" font-size="14.00">3</text>
</g>
<!-- λ2 -->
<g id="node3" class="node">
<title>λ2</title>
<ellipse fill="none" stroke="black" cx="82" cy="-965.8" rx="27" ry="18"/>
<text text-anchor="middle" x="82" y="-962.1" font-family="Times,serif" font-size="14.00">λ</text>
</g>
<!-- !d1&#45;&gt;λ2 -->
<g id="edge3" class="edge">
<title>!d1&#45;&gt;λ2</title>
<g id="a_edge3"><a xlink:title="i81">
<path fill="none" stroke="blue" d="M42.8,-1027.38C52.09,-1013.02 63.57,-995.28 71.7,-982.71"/>
<polygon fill="blue" stroke="blue" points="39.84,-1025.51 37.35,-1035.81 45.72,-1029.31 39.84,-1025.51"/>
</a>
</g>
<text text-anchor="middle" x="61.5" y="-1005.6" font-family="Times,serif" font-size="14.00">3</text>
</g>
<!-- λ2&#45;&gt;I0 -->
<g id="edge29" class="edge">
<title>λ2&#45;&gt;I0</title>
<g id="a_edge29"><a xlink:title="ret82">
<path fill="none" stroke="red" d="M82,-983.85C82,-1013.68 82,-1075.56 82,-1111.44"/>
<polygon fill="red" stroke="red" points="78.5,-1111.67 82,-1121.68 85.5,-1111.68 78.5,-1111.67"/>
</a>
</g>
</g>
<!-- !p3 -->
<g id="node4" class="node">
<title>!p3</title>
<ellipse fill="none" stroke="black" cx="137" cy="-1052.8" rx="27" ry="18"/>
<text text-anchor="middle" x="137" y="-1049.1" font-family="Times,serif" font-size="14.00">!p</text>
</g>
<!-- !p3&#45;&gt;λ2 -->
<g id="edge24" class="edge">
<title>!p3&#45;&gt;λ2</title>
<g id="a_edge24"><a xlink:title="newrretf78">
<path fill="none" stroke="red" d="M126.65,-1035.81C118.51,-1023.22 107.03,-1005.47 97.74,-991.13"/>
<polygon fill="red" stroke="red" points="100.67,-989.21 92.3,-982.71 94.79,-993.01 100.67,-989.21"/>
</a>
</g>
<text text-anchor="middle" x="116.5" y="-1005.6" font-family="Times,serif" font-size="14.00">3</text>
</g>
<!-- I4 -->
<g id="node5" class="node">
<title>I4</title>
<ellipse fill="none" stroke="black" cx="193" cy="-878.8" rx="27" ry="18"/>
<text text-anchor="middle" x="193" y="-875.1" font-family="Times,serif" font-size="14.00">I</text>
</g>
<!-- @5 -->
<g id="node6" class="node">
<title>@5</title>
<ellipse fill="none" stroke="black" cx="173" cy="-1139.8" rx="27" ry="18"/>
<text text-anchor="middle" x="173" y="-1136.1" font-family="Times,serif" font-size="14.00">@</text>
</g>
<!-- I4&#45;&gt;@5 -->
<g id="edge9" class="edge">
<title>I4&#45;&gt;@5</title>
<g id="a_edge9"><a xlink:title="lret75">
<path fill="none" stroke="blue" d="M190.9,-906.94C186.78,-960.4 177.7,-1077.9 174.31,-1121.8"/>
<polygon fill="blue" stroke="blue" points="194.4,-907.09 191.68,-896.85 187.42,-906.55 194.4,-907.09"/>
</a>
</g>
</g>
<!-- @5&#45;&gt;!p3 -->
<g id="edge19" class="edge">
<title>@5&#45;&gt;!p3</title>
<g id="a_edge19"><a xlink:title="newrret74">
<path fill="none" stroke="red" d="M165.89,-1122C160.78,-1109.93 153.79,-1093.43 147.97,-1079.69"/>
<polygon fill="red" stroke="red" points="151.1,-1078.11 143.98,-1070.26 144.65,-1080.84 151.1,-1078.11"/>
</a>
</g>
<text text-anchor="middle" x="161.5" y="-1092.6" font-family="Times,serif" font-size="14.00">2</text>
</g>
<!-- !d6 -->
<g id="node7" class="node">
<title>!d6</title>
<ellipse fill="none" stroke="black" cx="247" cy="-1052.8" rx="27" ry="18"/>
<text text-anchor="middle" x="247" y="-1049.1" font-family="Times,serif" font-size="14.00">!d</text>
</g>
<!-- @5&#45;&gt;!d6 -->
<g id="edge14" class="edge">
<title>@5&#45;&gt;!d6</title>
<g id="a_edge14"><a xlink:title="lval70">
<path fill="none" stroke="blue" d="M194.05,-1116.93C198.07,-1112.63 202.21,-1108.11 206,-1103.8 215.93,-1092.5 226.7,-1079.33 234.71,-1069.34"/>
<polygon fill="blue" stroke="blue" points="191.36,-1114.69 187.04,-1124.36 196.45,-1119.49 191.36,-1114.69"/>
</a>
</g>
<text text-anchor="middle" x="222.5" y="-1092.6" font-family="Times,serif" font-size="14.00">2</text>
</g>
<!-- !p7 -->
<g id="node8" class="node">
<title>!p7</title>
<ellipse fill="none" stroke="black" cx="247" cy="-965.8" rx="27" ry="18"/>
<text text-anchor="middle" x="247" y="-962.1" font-family="Times,serif" font-size="14.00">!p</text>
</g>
<!-- !d6&#45;&gt;!p7 -->
<g id="edge2" class="edge">
<title>!d6&#45;&gt;!p7</title>
<g id="a_edge2"><a xlink:title="hf65">
<path fill="none" stroke="blue" d="M247,-1024.53C247,-1011.22 247,-995.6 247,-983.97"/>
<polygon fill="blue" stroke="blue" points="243.5,-1024.59 247,-1034.59 250.5,-1024.59 243.5,-1024.59"/>
</a>
</g>
<text text-anchor="middle" x="250.5" y="-1005.6" font-family="Times,serif" font-size="14.00">1</text>
</g>
<!-- !p7&#45;&gt;I4 -->
<g id="edge23" class="edge">
<title>!p7&#45;&gt;I4</title>
<g id="a_edge23"><a xlink:title="newrretf66">
<path fill="none" stroke="red" d="M236.84,-948.81C228.92,-936.34 217.78,-918.81 208.72,-904.54"/>
<polygon fill="red" stroke="red" points="211.43,-902.28 203.11,-895.71 205.52,-906.03 211.43,-902.28"/>
</a>
</g>
<text text-anchor="middle" x="227.5" y="-918.6" font-family="Times,serif" font-size="14.00">2</text>
</g>
<!-- λ21 -->
<g id="node22" class="node">
<title>λ21</title>
<ellipse fill="none" stroke="black" cx="309" cy="-878.8" rx="27" ry="18"/>
<text text-anchor="middle" x="309" y="-875.1" font-family="Times,serif" font-size="14.00">λ</text>
</g>
<!-- !p7&#45;&gt;λ21 -->
<g id="edge1" class="edge">
<title>!p7&#45;&gt;λ21</title>
<g id="a_edge1"><a xlink:title="h34">
<path fill="none" stroke="blue" d="M264.29,-941.09C274.97,-926.45 288.37,-908.08 297.7,-895.29"/>
<polygon fill="blue" stroke="blue" points="261.44,-939.06 258.37,-949.21 267.09,-943.19 261.44,-939.06"/>
</a>
</g>
<text text-anchor="middle" x="284.5" y="-918.6" font-family="Times,serif" font-size="14.00">1</text>
</g>
<!-- I8 -->
<g id="node9" class="node">
<title>I8</title>
<ellipse fill="none" stroke="black" cx="309" cy="-791.8" rx="27" ry="18"/>
<text text-anchor="middle" x="309" y="-788.1" font-family="Times,serif" font-size="14.00">I</text>
</g>
<!-- @9 -->
<g id="node10" class="node">
<title>@9</title>
<ellipse fill="none" stroke="black" cx="248" cy="-718.8" rx="27" ry="18"/>
<text text-anchor="middle" x="248" y="-715.1" font-family="Times,serif" font-size="14.00">@</text>
</g>
<!-- I8&#45;&gt;@9 -->
<g id="edge8" class="edge">
<title>I8&#45;&gt;@9</title>
<g id="a_edge8"><a xlink:title="lret62">
<path fill="none" stroke="blue" d="M289.32,-767.89C280.01,-757.06 269.16,-744.43 260.92,-734.83"/>
<polygon fill="blue" stroke="blue" points="286.89,-770.43 296.06,-775.74 292.2,-765.87 286.89,-770.43"/>
</a>
</g>
</g>
<!-- @9&#45;&gt;!p7 -->
<g id="edge18" class="edge">
<title>@9&#45;&gt;!p7</title>
<g id="a_edge18"><a xlink:title="newrret61">
<path fill="none" stroke="red" d="M247.93,-737C247.76,-778.89 247.32,-886.45 247.11,-937.33"/>
<polygon fill="red" stroke="red" points="243.61,-937.55 247.07,-947.57 250.61,-937.58 243.61,-937.55"/>
</a>
</g>
<text text-anchor="middle" x="251.5" y="-831.6" font-family="Times,serif" font-size="14.00">1</text>
</g>
<!-- Cut20 -->
<g id="node21" class="node">
<title>Cut20</title>
<ellipse fill="none" stroke="black" cx="248" cy="-631.8" rx="27" ry="18"/>
<text text-anchor="middle" x="248" y="-628.1" font-family="Times,serif" font-size="14.00">Cut</text>
</g>
<!-- @9&#45;&gt;Cut20 -->
<g id="edge11" class="edge">
<title>@9&#45;&gt;Cut20</title>
<g id="a_edge11"><a xlink:title="lval38">
<path fill="none" stroke="blue" d="M248,-690.53C248,-677.22 248,-661.6 248,-649.97"/>
<polygon fill="blue" stroke="blue" points="244.5,-690.59 248,-700.59 251.5,-690.59 244.5,-690.59"/>
</a>
</g>
</g>
<!-- I10 -->
<g id="node11" class="node">
<title>I10</title>
<ellipse fill="none" stroke="black" cx="193" cy="-192" rx="27" ry="18"/>
<text text-anchor="middle" x="193" y="-188.3" font-family="Times,serif" font-size="14.00">I</text>
</g>
<!-- !d11 -->
<g id="node12" class="node">
<title>!d11</title>
<ellipse fill="none" stroke="black" cx="172" cy="-105" rx="27" ry="18"/>
<text text-anchor="middle" x="172" y="-101.3" font-family="Times,serif" font-size="14.00">!d</text>
</g>
<!-- I10&#45;&gt;!d11 -->
<g id="edge43" class="edge">
<title>I10&#45;&gt;!d11</title>
<g id="a_edge43"><a xlink:title="yret60">
<path fill="none" stroke="blue" d="M186.45,-164.47C183.11,-150.95 179.14,-134.91 176.21,-123.05"/>
<polygon fill="blue" stroke="blue" points="183.05,-165.34 188.85,-174.21 189.85,-163.66 183.05,-165.34"/>
</a>
</g>
<text text-anchor="middle" x="187.5" y="-144.8" font-family="Times,serif" font-size="14.00">2</text>
</g>
<!-- !p12 -->
<g id="node13" class="node">
<title>!p12</title>
<ellipse fill="none" stroke="black" cx="193" cy="-288.4" rx="27" ry="18"/>
<text text-anchor="middle" x="193" y="-284.7" font-family="Times,serif" font-size="14.00">!p</text>
</g>
<!-- !d11&#45;&gt;!p12 -->
<g id="edge41" class="edge">
<title>!d11&#45;&gt;!p12</title>
<g id="a_edge41"><a xlink:title="yBf56">
<path fill="none" stroke="blue" d="M159.98,-131.59C151.63,-152.73 143.13,-183.47 150,-210 156.05,-233.36 170.86,-257.18 181.4,-272.11"/>
<polygon fill="blue" stroke="blue" points="163.23,-132.89 163.88,-122.32 156.77,-130.18 163.23,-132.89"/>
</a>
</g>
<text text-anchor="middle" x="153.5" y="-188.3" font-family="Times,serif" font-size="14.00">1</text>
</g>
<!-- !p12&#45;&gt;I10 -->
<g id="edge22" class="edge">
<title>!p12&#45;&gt;I10</title>
<g id="a_edge22"><a xlink:title="newrretf57">
<path fill="none" stroke="red" d="M193,-270.08C193,-256.25 193,-236.58 193,-220.58"/>
<polygon fill="red" stroke="red" points="196.5,-220.2 193,-210.2 189.5,-220.2 196.5,-220.2"/>
</a>
</g>
<text text-anchor="middle" x="196.5" y="-231.8" font-family="Times,serif" font-size="14.00">2</text>
</g>
<!-- !c18 -->
<g id="node19" class="node">
<title>!c18</title>
<ellipse fill="none" stroke="black" cx="265" cy="-18" rx="27" ry="18"/>
<text text-anchor="middle" x="265" y="-14.3" font-family="Times,serif" font-size="14.00">!c</text>
</g>
<!-- !p12&#45;&gt;!c18 -->
<g id="edge40" class="edge">
<title>!p12&#45;&gt;!c18</title>
<g id="a_edge40"><a xlink:title="yB44">
<path fill="none" stroke="blue" d="M170.12,-266.07C163.83,-259.21 157.5,-251.25 153,-243 119.58,-181.79 99.97,-146.72 136,-87 156.15,-53.6 198.78,-35.77 229.52,-26.87"/>
<polygon fill="blue" stroke="blue" points="167.9,-268.81 177.38,-273.55 172.93,-263.94 167.9,-268.81"/>
<polygon fill="blue" stroke="blue" points="240.36,-27.56 229.79,-26.8 238.53,-20.81 240.36,-27.56"/>
</a>
</g>
<text text-anchor="middle" x="121.5" y="-144.8" font-family="Times,serif" font-size="14.00">1</text>
</g>
<!-- I13 -->
<g id="node14" class="node">
<title>I13</title>
<ellipse fill="none" stroke="black" cx="248" cy="-457.8" rx="27" ry="18"/>
<text text-anchor="middle" x="248" y="-454.1" font-family="Times,serif" font-size="14.00">I</text>
</g>
<!-- @14 -->
<g id="node15" class="node">
<title>@14</title>
<ellipse fill="none" stroke="black" cx="211" cy="-384.8" rx="27" ry="18"/>
<text text-anchor="middle" x="211" y="-381.1" font-family="Times,serif" font-size="14.00">@</text>
</g>
<!-- I13&#45;&gt;@14 -->
<g id="edge7" class="edge">
<title>I13&#45;&gt;@14</title>
<g id="a_edge7"><a xlink:title="lret53">
<path fill="none" stroke="blue" d="M234.97,-431.79C229.88,-422.02 224.18,-411.09 219.62,-402.34"/>
<polygon fill="blue" stroke="blue" points="231.88,-433.43 239.6,-440.68 238.09,-430.2 231.88,-433.43"/>
</a>
</g>
</g>
<!-- @14&#45;&gt;!p12 -->
<g id="edge17" class="edge">
<title>@14&#45;&gt;!p12</title>
<g id="a_edge17"><a xlink:title="newrret52">
<path fill="none" stroke="red" d="M207.78,-366.92C205.11,-352.91 201.26,-332.72 198.16,-316.46"/>
<polygon fill="red" stroke="red" points="201.56,-315.61 196.25,-306.45 194.69,-316.93 201.56,-315.61"/>
</a>
</g>
<text text-anchor="middle" x="208.5" y="-337.6" font-family="Times,serif" font-size="14.00">1</text>
</g>
<!-- Cut17 -->
<g id="node18" class="node">
<title>Cut17</title>
<ellipse fill="none" stroke="black" cx="265" cy="-288.4" rx="23.31" ry="23.31"/>
<ellipse fill="none" stroke="black" cx="265" cy="-288.4" rx="27.3" ry="27.3"/>
<text text-anchor="middle" x="265" y="-284.7" font-family="Times,serif" font-size="14.00">Cut</text>
</g>
<!-- @14&#45;&gt;Cut17 -->
<g id="edge13" class="edge">
<title>@14&#45;&gt;Cut17</title>
<g id="a_edge13"><a xlink:title="lval48">
<path fill="none" stroke="blue" d="M225.22,-358.94C233.43,-344.59 243.69,-326.64 251.74,-312.58"/>
<polygon fill="blue" stroke="blue" points="222.09,-357.36 220.16,-367.78 228.16,-360.84 222.09,-357.36"/>
</a>
</g>
</g>
<!-- I15 -->
<g id="node16" class="node">
<title>I15</title>
<ellipse fill="none" stroke="black" cx="265" cy="-192" rx="27" ry="18"/>
<text text-anchor="middle" x="265" y="-188.3" font-family="Times,serif" font-size="14.00">I</text>
</g>
<!-- !d16 -->
<g id="node17" class="node">
<title>!d16</title>
<ellipse fill="none" stroke="black" cx="265" cy="-105" rx="27" ry="18"/>
<text text-anchor="middle" x="265" y="-101.3" font-family="Times,serif" font-size="14.00">!d</text>
</g>
<!-- I15&#45;&gt;!d16 -->
<g id="edge42" class="edge">
<title>I15&#45;&gt;!d16</title>
<g id="a_edge42"><a xlink:title="yret51">
<path fill="none" stroke="blue" d="M265,-163.73C265,-150.42 265,-134.81 265,-123.18"/>
<polygon fill="blue" stroke="blue" points="261.5,-163.8 265,-173.8 268.5,-163.8 261.5,-163.8"/>
</a>
</g>
<text text-anchor="middle" x="268.5" y="-144.8" font-family="Times,serif" font-size="14.00">1</text>
</g>
<!-- !d16&#45;&gt;!c18 -->
<g id="edge39" class="edge">
<title>!d16&#45;&gt;!c18</title>
<g id="a_edge39"><a xlink:title="yA43">
<path fill="none" stroke="blue" d="M265,-76.73C265,-63.42 265,-47.81 265,-36.18"/>
<polygon fill="blue" stroke="blue" points="261.5,-76.8 265,-86.8 268.5,-76.8 261.5,-76.8"/>
</a>
</g>
<text text-anchor="middle" x="268.5" y="-57.8" font-family="Times,serif" font-size="14.00">1</text>
</g>
<!-- Cut17&#45;&gt;I15 -->
<g id="edge31" class="edge">
<title>Cut17&#45;&gt;I15</title>
<g id="a_edge31"><a xlink:title="rval49">
<path fill="none" stroke="red" stroke-width="2" d="M265,-260.85C265,-248.16 265,-232.98 265,-220.2"/>
<polygon fill="red" stroke="red" stroke-width="2" points="268.5,-220.13 265,-210.13 261.5,-220.13 268.5,-220.13"/>
</a>
</g>
</g>
<!-- λ19 -->
<g id="node20" class="node">
<title>λ19</title>
<ellipse fill="none" stroke="black" cx="248" cy="-544.8" rx="27" ry="18"/>
<text text-anchor="middle" x="248" y="-541.1" font-family="Times,serif" font-size="14.00">λ</text>
</g>
<!-- !c18&#45;&gt;λ19 -->
<g id="edge38" class="edge">
<title>!c18&#45;&gt;λ19</title>
<g id="a_edge38"><a xlink:title="y41">
<path fill="none" stroke="blue" d="M288.07,-39.78C303.13,-55.69 320,-79.08 320,-104 320,-458.8 320,-458.8 320,-458.8 320,-491.29 288.99,-517.74 267.67,-532.09"/>
<polygon fill="blue" stroke="blue" points="290.45,-37.2 280.91,-32.59 285.49,-42.14 290.45,-37.2"/>
</a>
</g>
</g>
<!-- λ19&#45;&gt;I13 -->
<g id="edge27" class="edge">
<title>λ19&#45;&gt;I13</title>
<g id="a_edge27"><a xlink:title="ret42">
<path fill="none" stroke="red" d="M248,-526.59C248,-514.96 248,-499.34 248,-486.03"/>
<polygon fill="red" stroke="red" points="251.5,-485.97 248,-475.97 244.5,-485.97 251.5,-485.97"/>
</a>
</g>
</g>
<!-- Cut20&#45;&gt;λ19 -->
<g id="edge30" class="edge">
<title>Cut20&#45;&gt;λ19</title>
<g id="a_edge30"><a xlink:title="rval39">
<path fill="none" stroke="red" d="M248,-613.59C248,-601.96 248,-586.34 248,-573.03"/>
<polygon fill="red" stroke="red" points="251.5,-572.97 248,-562.97 244.5,-572.97 251.5,-572.97"/>
</a>
</g>
</g>
<!-- λ21&#45;&gt;I8 -->
<g id="edge26" class="edge">
<title>λ21&#45;&gt;I8</title>
<g id="a_edge26"><a xlink:title="ret35">
<path fill="none" stroke="red" d="M309,-860.59C309,-848.96 309,-833.34 309,-820.03"/>
<polygon fill="red" stroke="red" points="312.5,-819.97 309,-809.97 305.5,-819.97 312.5,-819.97"/>
</a>
</g>
</g>
<!-- !p22 -->
<g id="node23" class="node">
<title>!p22</title>
<ellipse fill="none" stroke="black" cx="319" cy="-965.8" rx="27" ry="18"/>
<text text-anchor="middle" x="319" y="-962.1" font-family="Times,serif" font-size="14.00">!p</text>
</g>
<!-- !p22&#45;&gt;λ21 -->
<g id="edge21" class="edge">
<title>!p22&#45;&gt;λ21</title>
<g id="a_edge21"><a xlink:title="newrretf31">
<path fill="none" stroke="red" d="M316.98,-947.59C315.61,-935.96 313.77,-920.34 312.2,-907.03"/>
<polygon fill="red" stroke="red" points="315.67,-906.49 311.02,-896.97 308.71,-907.31 315.67,-906.49"/>
</a>
</g>
<text text-anchor="middle" x="317.5" y="-918.6" font-family="Times,serif" font-size="14.00">1</text>
</g>
<!-- I23 -->
<g id="node24" class="node">
<title>I23</title>
<ellipse fill="none" stroke="black" cx="319" cy="-1139.8" rx="27" ry="18"/>
<text text-anchor="middle" x="319" y="-1136.1" font-family="Times,serif" font-size="14.00">I</text>
</g>
<!-- @24 -->
<g id="node25" class="node">
<title>@24</title>
<ellipse fill="none" stroke="black" cx="319" cy="-1052.8" rx="27" ry="18"/>
<text text-anchor="middle" x="319" y="-1049.1" font-family="Times,serif" font-size="14.00">@</text>
</g>
<!-- I23&#45;&gt;@24 -->
<g id="edge6" class="edge">
<title>I23&#45;&gt;@24</title>
<g id="a_edge6"><a xlink:title="lret28">
<path fill="none" stroke="blue" d="M319,-1111.53C319,-1098.22 319,-1082.6 319,-1070.97"/>
<polygon fill="blue" stroke="blue" points="315.5,-1111.59 319,-1121.59 322.5,-1111.59 315.5,-1111.59"/>
</a>
</g>
</g>
<!-- @24&#45;&gt;!p22 -->
<g id="edge16" class="edge">
<title>@24&#45;&gt;!p22</title>
<g id="a_edge16"><a xlink:title="newrret27">
<path fill="none" stroke="red" d="M319,-1034.59C319,-1022.96 319,-1007.34 319,-994.03"/>
<polygon fill="red" stroke="red" points="322.5,-993.97 319,-983.97 315.5,-993.97 322.5,-993.97"/>
</a>
</g>
<text text-anchor="middle" x="322.5" y="-1005.6" font-family="Times,serif" font-size="14.00">0</text>
</g>
<!-- Cut33 -->
<g id="node34" class="node">
<title>Cut33</title>
<ellipse fill="none" stroke="black" cx="391" cy="-965.8" rx="27" ry="18"/>
<text text-anchor="middle" x="391" y="-962.1" font-family="Times,serif" font-size="14.00">Cut</text>
</g>
<!-- @24&#45;&gt;Cut33 -->
<g id="edge12" class="edge">
<title>@24&#45;&gt;Cut33</title>
<g id="a_edge12"><a xlink:title="lval4">
<path fill="none" stroke="blue" d="M338.48,-1028.8C351.11,-1013.88 367.22,-994.87 378.24,-981.86"/>
<polygon fill="blue" stroke="blue" points="335.66,-1026.71 331.87,-1036.6 341.01,-1031.23 335.66,-1026.71"/>
</a>
</g>
</g>
<!-- I25 -->
<g id="node26" class="node">
<title>I25</title>
<ellipse fill="none" stroke="black" cx="330" cy="-544.8" rx="27" ry="18"/>
<text text-anchor="middle" x="330" y="-541.1" font-family="Times,serif" font-size="14.00">I</text>
</g>
<!-- !d26 -->
<g id="node27" class="node">
<title>!d26</title>
<ellipse fill="none" stroke="black" cx="384" cy="-457.8" rx="27" ry="18"/>
<text text-anchor="middle" x="384" y="-454.1" font-family="Times,serif" font-size="14.00">!d</text>
</g>
<!-- I25&#45;&gt;!d26 -->
<g id="edge37" class="edge">
<title>I25&#45;&gt;!d26</title>
<g id="a_edge37"><a xlink:title="xret26">
<path fill="none" stroke="blue" d="M345.77,-518.97C354.85,-504.69 365.98,-487.16 373.89,-474.71"/>
<polygon fill="blue" stroke="blue" points="342.57,-517.49 340.16,-527.81 348.47,-521.24 342.57,-517.49"/>
</a>
</g>
<text text-anchor="middle" x="363.5" y="-497.6" font-family="Times,serif" font-size="14.00">1</text>
</g>
<!-- !p27 -->
<g id="node28" class="node">
<title>!p27</title>
<ellipse fill="none" stroke="black" cx="360" cy="-631.8" rx="27" ry="18"/>
<text text-anchor="middle" x="360" y="-628.1" font-family="Times,serif" font-size="14.00">!p</text>
</g>
<!-- !d26&#45;&gt;!p27 -->
<g id="edge36" class="edge">
<title>!d26&#45;&gt;!p27</title>
<g id="a_edge36"><a xlink:title="xBf22">
<path fill="none" stroke="blue" d="M380.19,-486.07C375.19,-521.91 366.56,-583.8 362.39,-613.68"/>
<polygon fill="blue" stroke="blue" points="383.71,-486.24 381.62,-475.85 376.77,-485.27 383.71,-486.24"/>
</a>
</g>
<text text-anchor="middle" x="377.5" y="-541.1" font-family="Times,serif" font-size="14.00">0</text>
</g>
<!-- !p27&#45;&gt;I25 -->
<g id="edge20" class="edge">
<title>!p27&#45;&gt;I25</title>
<g id="a_edge20"><a xlink:title="newrretf23">
<path fill="none" stroke="red" d="M354.07,-614C349.88,-602.13 344.18,-585.96 339.37,-572.35"/>
<polygon fill="red" stroke="red" points="342.54,-570.82 335.91,-562.55 335.94,-573.15 342.54,-570.82"/>
</a>
</g>
<text text-anchor="middle" x="349.5" y="-584.6" font-family="Times,serif" font-size="14.00">1</text>
</g>
<!-- !c31 -->
<g id="node32" class="node">
<title>!c31</title>
<ellipse fill="none" stroke="black" cx="456" cy="-544.8" rx="27" ry="18"/>
<text text-anchor="middle" x="456" y="-541.1" font-family="Times,serif" font-size="14.00">!c</text>
</g>
<!-- !p27&#45;&gt;!c31 -->
<g id="edge35" class="edge">
<title>!p27&#45;&gt;!c31</title>
<g id="a_edge35"><a xlink:title="xB10">
<path fill="none" stroke="blue" d="M385.52,-611.16C391.66,-606.25 398.14,-600.92 404,-595.8 414.31,-586.78 425.3,-576.34 434.51,-567.34"/>
<polygon fill="blue" stroke="blue" points="383.12,-608.59 377.44,-617.53 387.46,-614.09 383.12,-608.59"/>
<polygon fill="blue" stroke="blue" points="444.23,-562.67 434.65,-567.2 439.32,-557.69 444.23,-562.67"/>
</a>
</g>
<text text-anchor="middle" x="423.5" y="-584.6" font-family="Times,serif" font-size="14.00">0</text>
</g>
<!-- I28 -->
<g id="node29" class="node">
<title>I28</title>
<ellipse fill="none" stroke="black" cx="391" cy="-791.8" rx="27" ry="18"/>
<text text-anchor="middle" x="391" y="-788.1" font-family="Times,serif" font-size="14.00">I</text>
</g>
<!-- @29 -->
<g id="node30" class="node">
<title>@29</title>
<ellipse fill="none" stroke="black" cx="381" cy="-718.8" rx="27" ry="18"/>
<text text-anchor="middle" x="381" y="-715.1" font-family="Times,serif" font-size="14.00">@</text>
</g>
<!-- I28&#45;&gt;@29 -->
<g id="edge5" class="edge">
<title>I28&#45;&gt;@29</title>
<g id="a_edge5"><a xlink:title="lret19">
<path fill="none" stroke="blue" d="M387.16,-763.55C385.9,-754.56 384.53,-744.83 383.4,-736.82"/>
<polygon fill="blue" stroke="blue" points="383.72,-764.19 388.58,-773.61 390.65,-763.22 383.72,-764.19"/>
</a>
</g>
</g>
<!-- @29&#45;&gt;!p27 -->
<g id="edge15" class="edge">
<title>@29&#45;&gt;!p27</title>
<g id="a_edge15"><a xlink:title="newrret18">
<path fill="none" stroke="red" d="M376.85,-701C373.94,-689.2 369.98,-673.17 366.63,-659.62"/>
<polygon fill="red" stroke="red" points="370.01,-658.71 364.21,-649.85 363.21,-660.39 370.01,-658.71"/>
</a>
</g>
<text text-anchor="middle" x="374.5" y="-671.6" font-family="Times,serif" font-size="14.00">0</text>
</g>
<!-- !d30 -->
<g id="node31" class="node">
<title>!d30</title>
<ellipse fill="none" stroke="black" cx="432" cy="-631.8" rx="27" ry="18"/>
<text text-anchor="middle" x="432" y="-628.1" font-family="Times,serif" font-size="14.00">!d</text>
</g>
<!-- @29&#45;&gt;!d30 -->
<g id="edge10" class="edge">
<title>@29&#45;&gt;!d30</title>
<g id="a_edge10"><a xlink:title="lval14">
<path fill="none" stroke="blue" d="M395.89,-692.97C404.46,-678.69 414.98,-661.16 422.45,-648.71"/>
<polygon fill="blue" stroke="blue" points="392.74,-691.43 390.59,-701.81 398.74,-695.03 392.74,-691.43"/>
</a>
</g>
<text text-anchor="middle" x="412.5" y="-671.6" font-family="Times,serif" font-size="14.00">0</text>
</g>
<!-- !d30&#45;&gt;!c31 -->
<g id="edge34" class="edge">
<title>!d30&#45;&gt;!c31</title>
<g id="a_edge34"><a xlink:title="xA9">
<path fill="none" stroke="blue" d="M439.51,-604.2C443.35,-590.58 447.92,-574.42 451.27,-562.55"/>
<polygon fill="blue" stroke="blue" points="436.09,-603.43 436.74,-614 442.83,-605.33 436.09,-603.43"/>
</a>
</g>
<text text-anchor="middle" x="448.5" y="-584.6" font-family="Times,serif" font-size="14.00">0</text>
</g>
<!-- λ32 -->
<g id="node33" class="node">
<title>λ32</title>
<ellipse fill="none" stroke="black" cx="391" cy="-878.8" rx="27" ry="18"/>
<text text-anchor="middle" x="391" y="-875.1" font-family="Times,serif" font-size="14.00">λ</text>
</g>
<!-- !c31&#45;&gt;λ32 -->
<g id="edge33" class="edge">
<title>!c31&#45;&gt;λ32</title>
<g id="a_edge33"><a xlink:title="x7">
<path fill="none" stroke="blue" d="M470.3,-570.75C478.43,-587.25 487,-609.66 487,-630.8 487,-792.8 487,-792.8 487,-792.8 487,-831.53 442.65,-856.88 414.24,-869.14"/>
<polygon fill="blue" stroke="blue" points="473.36,-569.04 465.64,-561.78 467.15,-572.26 473.36,-569.04"/>
</a>
</g>
</g>
<!-- λ32&#45;&gt;I28 -->
<g id="edge28" class="edge">
<title>λ32&#45;&gt;I28</title>
<g id="a_edge28"><a xlink:title="ret8">
<path fill="none" stroke="red" d="M391,-860.59C391,-848.96 391,-833.34 391,-820.03"/>
<polygon fill="red" stroke="red" points="394.5,-819.97 391,-809.97 387.5,-819.97 394.5,-819.97"/>
</a>
</g>
</g>
<!-- Cut33&#45;&gt;λ32 -->
<g id="edge32" class="edge">
<title>Cut33&#45;&gt;λ32</title>
<g id="a_edge32"><a xlink:title="rval5">
<path fill="none" stroke="red" d="M391,-947.59C391,-935.96 391,-920.34 391,-907.03"/>
<polygon fill="red" stroke="red" points="394.5,-906.97 391,-896.97 387.5,-906.97 394.5,-906.97"/>
</a>
</g>
</g>
<!-- Assign34 -->
<g id="node35" class="node">
<title>Assign34</title>
<ellipse fill="none" stroke="black" cx="319" cy="-1212.8" rx="35.19" ry="18"/>
<text text-anchor="middle" x="319" y="-1209.1" font-family="Times,serif" font-size="14.00">Assign</text>
</g>
<!-- Assign34&#45;&gt;I23 -->
<g id="edge25" class="edge">
<title>Assign34&#45;&gt;I23</title>
<g id="a_edge25"><a xlink:title="ret1">
<path fill="none" stroke="red" d="M319,-1194.61C319,-1186.59 319,-1176.84 319,-1167.86"/>
<polygon fill="red" stroke="red" points="322.5,-1167.82 319,-1157.82 315.5,-1167.82 322.5,-1167.82"/>
</a>
</g>
</g>
</g>
</svg>
