<?xml version="1.0" encoding="UTF-8" standalone="no"?>
<!DOCTYPE svg PUBLIC "-//W3C//DTD SVG 1.1//EN"
 "http://www.w3.org/Graphics/SVG/1.1/DTD/svg11.dtd">
<!-- Generated by graphviz version 2.49.3 (0)
 -->
<!-- Pages: 1 -->
<svg width="447pt" height="1469pt"
 viewBox="0.00 0.00 446.71 1468.80" xmlns="http://www.w3.org/2000/svg" xmlns:xlink="http://www.w3.org/1999/xlink">
<g id="graph0" class="graph" transform="scale(1 1) rotate(0) translate(4 1464.8)">
<polygon fill="white" stroke="transparent" points="-4,4 -4,-1464.8 442.71,-1464.8 442.71,4 -4,4"/>
<!-- Identity0 -->
<g id="node1" class="node">
<title>Identity0</title>
<ellipse fill="none" stroke="black" cx="319.37" cy="-1442.8" rx="38.19" ry="18"/>
<text text-anchor="middle" x="319.37" y="-1439.1" font-family="Times,serif" font-size="14.00">Identity</text>
</g>
<!-- BangD1 -->
<g id="node2" class="node">
<title>BangD1</title>
<ellipse fill="none" stroke="black" cx="319.37" cy="-1355.8" rx="36" ry="18"/>
<text text-anchor="middle" x="319.37" y="-1352.1" font-family="Times,serif" font-size="14.00">BangD</text>
</g>
<!-- BangD1&#45;&gt;Identity0 -->
<g id="edge19" class="edge">
<title>BangD1&#45;&gt;Identity0</title>
<g id="a_edge19"><a xlink:title="iret84">
<path fill="none" stroke="blue" d="M303.54,-1371.95C295.48,-1381.56 288.17,-1394.47 292.37,-1406.8 293.67,-1410.61 295.57,-1414.33 297.77,-1417.84"/>
<polygon fill="blue" stroke="blue" points="295,-1419.98 303.7,-1426.04 300.68,-1415.89 295,-1419.98"/>
</a>
</g>
<text text-anchor="middle" x="295.87" y="-1395.6" font-family="Times,serif" font-size="14.00">3</text>
</g>
<!-- BangD1&#45;&gt;Identity0 -->
<g id="edge20" class="edge">
<title>BangD1&#45;&gt;Identity0</title>
<g id="a_edge20"><a xlink:title="iseq83">
<path fill="none" stroke="black" d="M319.37,-1374C319.37,-1385.63 319.37,-1401.25 319.37,-1414.56"/>
<polygon fill="black" stroke="black" points="315.87,-1414.62 319.37,-1424.62 322.87,-1414.62 315.87,-1414.62"/>
</a>
</g>
<text text-anchor="middle" x="322.87" y="-1395.6" font-family="Times,serif" font-size="14.00">3</text>
</g>
<!-- PiR2 -->
<g id="node3" class="node">
<title>PiR2</title>
<ellipse fill="none" stroke="black" cx="319.37" cy="-1268.8" rx="27" ry="18"/>
<text text-anchor="middle" x="319.37" y="-1265.1" font-family="Times,serif" font-size="14.00">PiR</text>
</g>
<!-- PiR2&#45;&gt;Identity0 -->
<g id="edge43" class="edge">
<title>PiR2&#45;&gt;Identity0</title>
<g id="a_edge43"><a xlink:title="ret82">
<path fill="none" stroke="red" d="M332.98,-1284.66C343.85,-1297.61 358.25,-1317.46 364.37,-1337.8 368.98,-1353.12 368.98,-1358.47 364.37,-1373.8 359.53,-1389.88 349.51,-1405.66 340.15,-1417.96"/>
<polygon fill="red" stroke="red" points="337.34,-1415.88 333.85,-1425.88 342.82,-1420.23 337.34,-1415.88"/>
</a>
</g>
</g>
<!-- PiR2&#45;&gt;BangD1 -->
<g id="edge14" class="edge">
<title>PiR2&#45;&gt;BangD1</title>
<g id="a_edge14"><a xlink:title="i81">
<path fill="none" stroke="blue" d="M304.28,-1284.08C295.93,-1293.78 288.04,-1307.1 292.37,-1319.8 293.69,-1323.69 295.65,-1327.49 297.91,-1331.06"/>
<polygon fill="blue" stroke="blue" points="295.26,-1333.37 303.98,-1339.39 300.92,-1329.25 295.26,-1333.37"/>
</a>
</g>
<text text-anchor="middle" x="295.87" y="-1308.6" font-family="Times,serif" font-size="14.00">3</text>
</g>
<!-- PiR2&#45;&gt;BangD1 -->
<g id="edge47" class="edge">
<title>PiR2&#45;&gt;BangD1</title>
<g id="a_edge47"><a xlink:title="seq80">
<path fill="none" stroke="black" d="M319.37,-1287C319.37,-1298.63 319.37,-1314.25 319.37,-1327.56"/>
<polygon fill="black" stroke="black" points="315.87,-1327.62 319.37,-1337.62 322.87,-1327.62 315.87,-1327.62"/>
</a>
</g>
<text text-anchor="middle" x="322.87" y="-1308.6" font-family="Times,serif" font-size="14.00">3</text>
</g>
<!-- Bang3 -->
<g id="node4" class="node">
<title>Bang3</title>
<ellipse fill="none" stroke="black" cx="314.37" cy="-1181.8" rx="29.5" ry="18"/>
<text text-anchor="middle" x="314.37" y="-1178.1" font-family="Times,serif" font-size="14.00">Bang</text>
</g>
<!-- Bang3&#45;&gt;PiR2 -->
<g id="edge4" class="edge">
<title>Bang3&#45;&gt;PiR2</title>
<g id="a_edge4"><a xlink:title="c_bseq79">
<path fill="none" stroke="black" d="M315.38,-1200C316.06,-1211.63 316.98,-1227.25 317.77,-1240.56"/>
<polygon fill="black" stroke="black" points="314.28,-1240.84 318.36,-1250.62 321.26,-1240.43 314.28,-1240.84"/>
</a>
</g>
<text text-anchor="middle" x="319.87" y="-1221.6" font-family="Times,serif" font-size="14.00">3</text>
</g>
<!-- Bang3&#45;&gt;PiR2 -->
<g id="edge37" class="edge">
<title>Bang3&#45;&gt;PiR2</title>
<g id="a_edge37"><a xlink:title="newrretf78">
<path fill="none" stroke="red" d="M319.05,-1199.75C320.4,-1205.44 321.7,-1211.85 322.37,-1217.8 323.19,-1225.11 323.14,-1233.06 322.71,-1240.41"/>
<polygon fill="red" stroke="red" points="319.2,-1240.38 321.85,-1250.63 326.18,-1240.96 319.2,-1240.38"/>
</a>
</g>
<text text-anchor="middle" x="325.87" y="-1221.6" font-family="Times,serif" font-size="14.00">3</text>
</g>
<!-- Identity4 -->
<g id="node5" class="node">
<title>Identity4</title>
<ellipse fill="none" stroke="black" cx="400.37" cy="-1181.8" rx="38.19" ry="18"/>
<text text-anchor="middle" x="400.37" y="-1178.1" font-family="Times,serif" font-size="14.00">Identity</text>
</g>
<!-- PiL5 -->
<g id="node6" class="node">
<title>PiL5</title>
<ellipse fill="none" stroke="black" cx="344.37" cy="-1094.8" rx="27" ry="18"/>
<text text-anchor="middle" x="344.37" y="-1091.1" font-family="Times,serif" font-size="14.00">PiL</text>
</g>
<!-- PiL5&#45;&gt;Bang3 -->
<g id="edge10" class="edge">
<title>PiL5&#45;&gt;Bang3</title>
<g id="a_edge10"><a xlink:title="dseq76">
<path fill="none" stroke="black" d="M330.08,-1110.26C325.15,-1116.14 320.17,-1123.32 317.37,-1130.8 314.71,-1137.88 313.52,-1145.92 313.09,-1153.46"/>
<polygon fill="black" stroke="black" points="309.59,-1153.56 312.94,-1163.61 316.59,-1153.67 309.59,-1153.56"/>
</a>
</g>
<text text-anchor="middle" x="320.87" y="-1134.6" font-family="Times,serif" font-size="14.00">2</text>
</g>
<!-- PiL5&#45;&gt;Bang3 -->
<g id="edge32" class="edge">
<title>PiL5&#45;&gt;Bang3</title>
<g id="a_edge32"><a xlink:title="newrret74">
<path fill="none" stroke="red" d="M338.44,-1112.59C334.25,-1124.46 328.54,-1140.63 323.74,-1154.24"/>
<polygon fill="red" stroke="red" points="320.31,-1153.44 320.28,-1164.04 326.91,-1155.77 320.31,-1153.44"/>
</a>
</g>
<text text-anchor="middle" x="333.87" y="-1134.6" font-family="Times,serif" font-size="14.00">2</text>
</g>
<!-- PiL5&#45;&gt;Identity4 -->
<g id="edge18" class="edge">
<title>PiL5&#45;&gt;Identity4</title>
<g id="a_edge18"><a xlink:title="idseq77">
<path fill="none" stroke="black" d="M355.01,-1121.43C361.78,-1132.79 370.57,-1146.06 378.69,-1157.18"/>
<polygon fill="black" stroke="black" points="352.96,-1110.85 354.91,-1121.26 346.89,-1114.33 352.96,-1110.85"/>
<polygon fill="black" stroke="black" points="375.9,-1159.3 384.72,-1165.18 381.5,-1155.09 375.9,-1159.3"/>
</a>
</g>
</g>
<!-- PiL5&#45;&gt;Identity4 -->
<g id="edge24" class="edge">
<title>PiL5&#45;&gt;Identity4</title>
<g id="a_edge24"><a xlink:title="lret75">
<path fill="none" stroke="blue" d="M359.08,-1110.21C368.81,-1122.53 381.02,-1140.54 389.81,-1155.29"/>
<polygon fill="blue" stroke="blue" points="386.77,-1157.03 394.79,-1163.97 392.85,-1153.55 386.77,-1157.03"/>
</a>
</g>
</g>
<!-- BangD6 -->
<g id="node7" class="node">
<title>BangD6</title>
<ellipse fill="none" stroke="black" cx="344.37" cy="-1007.8" rx="36" ry="18"/>
<text text-anchor="middle" x="344.37" y="-1004.1" font-family="Times,serif" font-size="14.00">BangD</text>
</g>
<!-- BangD6&#45;&gt;PiL5 -->
<g id="edge13" class="edge">
<title>BangD6&#45;&gt;PiL5</title>
<g id="a_edge13"><a xlink:title="hseq72">
<path fill="none" stroke="black" d="M344.37,-1026C344.37,-1037.63 344.37,-1053.25 344.37,-1066.56"/>
<polygon fill="black" stroke="black" points="340.87,-1066.62 344.37,-1076.62 347.87,-1066.62 340.87,-1066.62"/>
</a>
</g>
<text text-anchor="middle" x="347.87" y="-1047.6" font-family="Times,serif" font-size="14.00">2</text>
</g>
<!-- BangD6&#45;&gt;PiL5 -->
<g id="edge27" class="edge">
<title>BangD6&#45;&gt;PiL5</title>
<g id="a_edge27"><a xlink:title="lval70">
<path fill="none" stroke="blue" d="M349.05,-1025.75C350.4,-1031.44 351.7,-1037.85 352.37,-1043.8 353.21,-1051.28 352.6,-1059.35 351.4,-1066.78"/>
<polygon fill="blue" stroke="blue" points="347.94,-1066.23 349.42,-1076.73 354.81,-1067.6 347.94,-1066.23"/>
</a>
</g>
<text text-anchor="middle" x="355.87" y="-1047.6" font-family="Times,serif" font-size="14.00">2</text>
</g>
<!-- Bang7 -->
<g id="node8" class="node">
<title>Bang7</title>
<ellipse fill="none" stroke="black" cx="338.37" cy="-920.8" rx="29.5" ry="18"/>
<text text-anchor="middle" x="338.37" y="-917.1" font-family="Times,serif" font-size="14.00">Bang</text>
</g>
<!-- Bang7&#45;&gt;Identity4 -->
<g id="edge36" class="edge">
<title>Bang7&#45;&gt;Identity4</title>
<g id="a_edge36"><a xlink:title="newrretf66">
<path fill="none" stroke="red" d="M353.45,-936.42C365.56,-949.23 381.77,-969.01 389.37,-989.8 409.61,-1045.16 407.07,-1115.56 403.61,-1153.54"/>
<polygon fill="red" stroke="red" points="400.1,-1153.49 402.58,-1163.79 407.06,-1154.19 400.1,-1153.49"/>
</a>
</g>
<text text-anchor="middle" x="406.87" y="-1047.6" font-family="Times,serif" font-size="14.00">2</text>
</g>
<!-- Bang7&#45;&gt;BangD6 -->
<g id="edge3" class="edge">
<title>Bang7&#45;&gt;BangD6</title>
<g id="a_edge3"><a xlink:title="c_bseq67">
<path fill="none" stroke="black" d="M339.29,-938.93C339.83,-948.58 340.57,-960.87 341.37,-971.8 341.55,-974.35 341.76,-977.01 341.97,-979.67"/>
<polygon fill="black" stroke="black" points="338.49,-980.04 342.82,-989.71 345.47,-979.46 338.49,-980.04"/>
</a>
</g>
<text text-anchor="middle" x="344.87" y="-960.6" font-family="Times,serif" font-size="14.00">2</text>
</g>
<!-- Bang7&#45;&gt;BangD6 -->
<g id="edge12" class="edge">
<title>Bang7&#45;&gt;BangD6</title>
<g id="a_edge12"><a xlink:title="hf65">
<path fill="none" stroke="blue" d="M343.05,-938.75C344.4,-944.44 345.7,-950.85 346.37,-956.8 347.19,-964.1 347.25,-972.05 346.96,-979.4"/>
<polygon fill="blue" stroke="blue" points="343.46,-979.43 346.34,-989.62 350.44,-979.86 343.46,-979.43"/>
</a>
</g>
<text text-anchor="middle" x="349.87" y="-960.6" font-family="Times,serif" font-size="14.00">1</text>
</g>
<!-- Identity8 -->
<g id="node9" class="node">
<title>Identity8</title>
<ellipse fill="none" stroke="black" cx="206.37" cy="-833.8" rx="38.19" ry="18"/>
<text text-anchor="middle" x="206.37" y="-830.1" font-family="Times,serif" font-size="14.00">Identity</text>
</g>
<!-- Identity9 -->
<g id="node10" class="node">
<title>Identity9</title>
<ellipse fill="none" stroke="black" cx="227.37" cy="-1355.8" rx="38.19" ry="18"/>
<text text-anchor="middle" x="227.37" y="-1352.1" font-family="Times,serif" font-size="14.00">Identity</text>
</g>
<!-- BangD10 -->
<g id="node11" class="node">
<title>BangD10</title>
<ellipse fill="none" stroke="black" cx="238.37" cy="-1268.8" rx="36" ry="18"/>
<text text-anchor="middle" x="238.37" y="-1265.1" font-family="Times,serif" font-size="14.00">BangD</text>
</g>
<!-- BangD10&#45;&gt;Identity9 -->
<g id="edge63" class="edge">
<title>BangD10&#45;&gt;Identity9</title>
<g id="a_edge63"><a xlink:title="yret60">
<path fill="none" stroke="blue" d="M238.03,-1286.99C237.67,-1296.67 236.92,-1308.95 235.37,-1319.8 234.98,-1322.48 234.5,-1325.26 233.96,-1328.03"/>
<polygon fill="blue" stroke="blue" points="230.54,-1327.3 231.84,-1337.81 237.38,-1328.78 230.54,-1327.3"/>
</a>
</g>
<text text-anchor="middle" x="239.87" y="-1308.6" font-family="Times,serif" font-size="14.00">2</text>
</g>
<!-- BangD10&#45;&gt;Identity9 -->
<g id="edge65" class="edge">
<title>BangD10&#45;&gt;Identity9</title>
<g id="a_edge65"><a xlink:title="yseq59">
<path fill="none" stroke="black" d="M233.89,-1286.78C232.55,-1292.47 231.22,-1298.87 230.37,-1304.8 229.32,-1312.08 228.64,-1320.02 228.2,-1327.38"/>
<polygon fill="black" stroke="black" points="224.69,-1327.44 227.7,-1337.6 231.68,-1327.78 224.69,-1327.44"/>
</a>
</g>
<text text-anchor="middle" x="233.87" y="-1308.6" font-family="Times,serif" font-size="14.00">2</text>
</g>
<!-- Bang11 -->
<g id="node12" class="node">
<title>Bang11</title>
<ellipse fill="none" stroke="black" cx="238.37" cy="-1181.8" rx="29.5" ry="18"/>
<text text-anchor="middle" x="238.37" y="-1178.1" font-family="Times,serif" font-size="14.00">Bang</text>
</g>
<!-- Bang11&#45;&gt;Identity9 -->
<g id="edge35" class="edge">
<title>Bang11&#45;&gt;Identity9</title>
<g id="a_edge35"><a xlink:title="newrretf57">
<path fill="none" stroke="red" d="M222.68,-1197.26C210.14,-1209.96 193.52,-1229.68 186.37,-1250.8 177,-1278.46 192.82,-1309.54 207.45,-1330.46"/>
<polygon fill="red" stroke="red" points="204.81,-1332.79 213.56,-1338.77 210.45,-1328.64 204.81,-1332.79"/>
</a>
</g>
<text text-anchor="middle" x="189.87" y="-1265.1" font-family="Times,serif" font-size="14.00">2</text>
</g>
<!-- Bang11&#45;&gt;BangD10 -->
<g id="edge2" class="edge">
<title>Bang11&#45;&gt;BangD10</title>
<g id="a_edge2"><a xlink:title="c_bseq58">
<path fill="none" stroke="black" d="M238.37,-1200C238.37,-1211.63 238.37,-1227.25 238.37,-1240.56"/>
<polygon fill="black" stroke="black" points="234.87,-1240.62 238.37,-1250.62 241.87,-1240.62 234.87,-1240.62"/>
</a>
</g>
<text text-anchor="middle" x="241.87" y="-1221.6" font-family="Times,serif" font-size="14.00">2</text>
</g>
<!-- Bang11&#45;&gt;BangD10 -->
<g id="edge62" class="edge">
<title>Bang11&#45;&gt;BangD10</title>
<g id="a_edge62"><a xlink:title="yBf56">
<path fill="none" stroke="blue" d="M243.05,-1199.75C244.4,-1205.44 245.7,-1211.85 246.37,-1217.8 247.21,-1225.28 246.6,-1233.35 245.4,-1240.78"/>
<polygon fill="blue" stroke="blue" points="241.94,-1240.23 243.42,-1250.73 248.81,-1241.6 241.94,-1240.23"/>
</a>
</g>
<text text-anchor="middle" x="249.87" y="-1221.6" font-family="Times,serif" font-size="14.00">1</text>
</g>
<!-- Identity12 -->
<g id="node13" class="node">
<title>Identity12</title>
<ellipse fill="none" stroke="black" cx="152.37" cy="-1181.8" rx="38.19" ry="18"/>
<text text-anchor="middle" x="152.37" y="-1178.1" font-family="Times,serif" font-size="14.00">Identity</text>
</g>
<!-- PiL13 -->
<g id="node14" class="node">
<title>PiL13</title>
<ellipse fill="none" stroke="black" cx="216.37" cy="-1094.8" rx="27" ry="18"/>
<text text-anchor="middle" x="216.37" y="-1091.1" font-family="Times,serif" font-size="14.00">PiL</text>
</g>
<!-- PiL13&#45;&gt;Bang11 -->
<g id="edge8" class="edge">
<title>PiL13&#45;&gt;Bang11</title>
<g id="a_edge8"><a xlink:title="dseq54">
<path fill="none" stroke="black" d="M215.57,-1113.23C215.58,-1122.98 216.35,-1135.26 219.37,-1145.8 220.3,-1149.05 221.57,-1152.35 223.02,-1155.54"/>
<polygon fill="black" stroke="black" points="220.04,-1157.4 227.72,-1164.7 226.27,-1154.21 220.04,-1157.4"/>
</a>
</g>
<text text-anchor="middle" x="222.87" y="-1134.6" font-family="Times,serif" font-size="14.00">1</text>
</g>
<!-- PiL13&#45;&gt;Bang11 -->
<g id="edge30" class="edge">
<title>PiL13&#45;&gt;Bang11</title>
<g id="a_edge30"><a xlink:title="newrret52">
<path fill="none" stroke="red" d="M220.71,-1112.59C223.77,-1124.39 227.92,-1140.42 231.43,-1153.97"/>
<polygon fill="red" stroke="red" points="228.06,-1154.94 233.95,-1163.75 234.84,-1153.19 228.06,-1154.94"/>
</a>
</g>
<text text-anchor="middle" x="231.87" y="-1134.6" font-family="Times,serif" font-size="14.00">1</text>
</g>
<!-- PiL13&#45;&gt;Identity12 -->
<g id="edge16" class="edge">
<title>PiL13&#45;&gt;Identity12</title>
<g id="a_edge16"><a xlink:title="idseq55">
<path fill="none" stroke="black" d="M193.85,-1117.74C184.33,-1129.18 173.66,-1143.23 165.41,-1155.17"/>
<polygon fill="black" stroke="black" points="203.29,-1112.11 194.12,-1117.42 197.98,-1107.55 203.29,-1112.11"/>
<polygon fill="black" stroke="black" points="162.28,-1153.55 159.63,-1163.81 168.1,-1157.44 162.28,-1153.55"/>
</a>
</g>
</g>
<!-- PiL13&#45;&gt;Identity12 -->
<g id="edge22" class="edge">
<title>PiL13&#45;&gt;Identity12</title>
<g id="a_edge22"><a xlink:title="lret53">
<path fill="none" stroke="blue" d="M209.23,-1112.59C200.98,-1125.45 187.7,-1143.34 175.94,-1157.57"/>
<polygon fill="blue" stroke="blue" points="173.05,-1155.58 169.24,-1165.47 178.38,-1160.11 173.05,-1155.58"/>
</a>
</g>
</g>
<!-- BangD14 -->
<g id="node15" class="node">
<title>BangD14</title>
<ellipse fill="none" stroke="black" cx="216.37" cy="-1007.8" rx="36" ry="18"/>
<text text-anchor="middle" x="216.37" y="-1004.1" font-family="Times,serif" font-size="14.00">BangD</text>
</g>
<!-- BangD14&#45;&gt;PiL13 -->
<g id="edge26" class="edge">
<title>BangD14&#45;&gt;PiL13</title>
<g id="a_edge26"><a xlink:title="lval48">
<path fill="none" stroke="blue" d="M200.98,-1024.2C196.32,-1029.88 191.79,-1036.68 189.37,-1043.8 186.15,-1053.22 189.67,-1062.99 195.11,-1071.36"/>
<polygon fill="blue" stroke="blue" points="192.45,-1073.64 201.28,-1079.51 198.04,-1069.42 192.45,-1073.64"/>
</a>
</g>
<text text-anchor="middle" x="192.87" y="-1047.6" font-family="Times,serif" font-size="14.00">1</text>
</g>
<!-- BangD14&#45;&gt;PiL13 -->
<g id="edge64" class="edge">
<title>BangD14&#45;&gt;PiL13</title>
<g id="a_edge64"><a xlink:title="yseq50">
<path fill="none" stroke="black" d="M216.37,-1026C216.37,-1037.63 216.37,-1053.25 216.37,-1066.56"/>
<polygon fill="black" stroke="black" points="212.87,-1066.62 216.37,-1076.62 219.87,-1066.62 212.87,-1066.62"/>
</a>
</g>
<text text-anchor="middle" x="219.87" y="-1047.6" font-family="Times,serif" font-size="14.00">1</text>
</g>
<!-- BangC15 -->
<g id="node16" class="node">
<title>BangC15</title>
<ellipse fill="none" stroke="black" cx="250.37" cy="-920.8" rx="35.19" ry="18"/>
<text text-anchor="middle" x="250.37" y="-917.1" font-family="Times,serif" font-size="14.00">BangC</text>
</g>
<!-- BangC15&#45;&gt;Bang11 -->
<g id="edge61" class="edge">
<title>BangC15&#45;&gt;Bang11</title>
<g id="a_edge61"><a xlink:title="yB44">
<path fill="none" stroke="blue" d="M255.78,-948.91C257.99,-961.32 260.28,-976.24 261.37,-989.8 266.09,-1048.58 253.36,-1117.14 245,-1154.02"/>
<polygon fill="blue" stroke="blue" points="257.33,-938.11 255.72,-948.58 250.45,-939.39 257.33,-938.11"/>
<polygon fill="blue" stroke="blue" points="241.54,-1153.44 242.67,-1163.98 248.36,-1155.04 241.54,-1153.44"/>
</a>
</g>
<text text-anchor="middle" x="264.87" y="-1047.6" font-family="Times,serif" font-size="14.00">1</text>
</g>
<!-- BangC15&#45;&gt;BangD14 -->
<g id="edge46" class="edge">
<title>BangC15&#45;&gt;BangD14</title>
<g id="a_edge46"><a xlink:title="seq45">
<path fill="none" stroke="black" d="M243.65,-938.59C238.85,-950.58 232.31,-966.94 226.83,-980.64"/>
<polygon fill="black" stroke="black" points="223.54,-979.45 223.07,-990.04 230.03,-982.05 223.54,-979.45"/>
</a>
</g>
<text text-anchor="middle" x="238.87" y="-960.6" font-family="Times,serif" font-size="14.00">1</text>
</g>
<!-- BangC15&#45;&gt;BangD14 -->
<g id="edge60" class="edge">
<title>BangC15&#45;&gt;BangD14</title>
<g id="a_edge60"><a xlink:title="yA43">
<path fill="none" stroke="blue" d="M233.95,-936.71C228.69,-942.45 223.44,-949.41 220.37,-956.8 217.46,-963.79 216.06,-971.81 215.49,-979.34"/>
<polygon fill="blue" stroke="blue" points="211.99,-979.4 215.16,-989.51 218.98,-979.63 211.99,-979.4"/>
</a>
</g>
<text text-anchor="middle" x="223.87" y="-960.6" font-family="Times,serif" font-size="14.00">1</text>
</g>
<!-- PiR16 -->
<g id="node17" class="node">
<title>PiR16</title>
<ellipse fill="none" stroke="black" cx="208.37" cy="-655" rx="27" ry="18"/>
<text text-anchor="middle" x="208.37" y="-651.3" font-family="Times,serif" font-size="14.00">PiR</text>
</g>
<!-- PiR16&#45;&gt;Bang7 -->
<g id="edge11" class="edge">
<title>PiR16&#45;&gt;Bang7</title>
<g id="a_edge11"><a xlink:title="h34">
<path fill="none" stroke="blue" d="M225.83,-668.86C233.56,-675.05 242.45,-682.88 249.37,-691 291.48,-740.43 303.98,-754.48 325.37,-815.8 334.14,-840.93 337.13,-871.3 338.08,-892.71"/>
<polygon fill="blue" stroke="blue" points="334.59,-892.85 338.41,-902.73 341.58,-892.62 334.59,-892.85"/>
</a>
</g>
<text text-anchor="middle" x="321.87" y="-786.6" font-family="Times,serif" font-size="14.00">1</text>
</g>
<!-- PiR16&#45;&gt;Identity8 -->
<g id="edge40" class="edge">
<title>PiR16&#45;&gt;Identity8</title>
<g id="a_edge40"><a xlink:title="ret35">
<path fill="none" stroke="red" d="M221.76,-670.8C230.04,-681.01 239.93,-695.33 244.37,-710 251.42,-733.31 249.22,-740.93 244.37,-764.8 241.2,-780.37 232.94,-795.97 224.92,-808.29"/>
<polygon fill="red" stroke="red" points="221.97,-806.41 219.21,-816.64 227.74,-810.36 221.97,-806.41"/>
</a>
</g>
</g>
<!-- Cut33 -->
<g id="node34" class="node">
<title>Cut33</title>
<ellipse fill="none" stroke="black" cx="208.37" cy="-737.4" rx="23.31" ry="23.31"/>
<ellipse fill="none" stroke="black" cx="208.37" cy="-737.4" rx="27.3" ry="27.3"/>
<text text-anchor="middle" x="208.37" y="-733.7" font-family="Times,serif" font-size="14.00">Cut</text>
</g>
<!-- PiR16&#45;&gt;Cut33 -->
<g id="edge44" class="edge">
<title>PiR16&#45;&gt;Cut33</title>
<g id="a_edge44"><a xlink:title="seq33">
<path fill="none" stroke="black" d="M208.37,-673.05C208.37,-680.82 208.37,-690.34 208.37,-699.62"/>
<polygon fill="black" stroke="black" points="204.87,-699.88 208.37,-709.88 211.87,-699.88 204.87,-699.88"/>
</a>
</g>
</g>
<!-- Identity17 -->
<g id="node18" class="node">
<title>Identity17</title>
<ellipse fill="none" stroke="black" cx="40.37" cy="-568" rx="38.19" ry="18"/>
<text text-anchor="middle" x="40.37" y="-564.3" font-family="Times,serif" font-size="14.00">Identity</text>
</g>
<!-- Identity18 -->
<g id="node19" class="node">
<title>Identity18</title>
<ellipse fill="none" stroke="black" cx="115.37" cy="-286" rx="38.19" ry="18"/>
<text text-anchor="middle" x="115.37" y="-282.3" font-family="Times,serif" font-size="14.00">Identity</text>
</g>
<!-- PiL19 -->
<g id="node20" class="node">
<title>PiL19</title>
<ellipse fill="none" stroke="black" cx="201.37" cy="-178" rx="27" ry="18"/>
<text text-anchor="middle" x="201.37" y="-174.3" font-family="Times,serif" font-size="14.00">PiL</text>
</g>
<!-- PiL19&#45;&gt;Identity18 -->
<g id="edge15" class="edge">
<title>PiL19&#45;&gt;Identity18</title>
<g id="a_edge15"><a xlink:title="idseq21">
<path fill="none" stroke="black" d="M178.56,-200.29C163.07,-217.52 143.25,-241.82 129.83,-259.98"/>
<polygon fill="black" stroke="black" points="187.97,-195.23 178.63,-200.22 182.82,-190.49 187.97,-195.23"/>
<polygon fill="black" stroke="black" points="126.81,-258.19 123.81,-268.35 132.49,-262.28 126.81,-258.19"/>
</a>
</g>
</g>
<!-- PiL19&#45;&gt;Identity18 -->
<g id="edge21" class="edge">
<title>PiL19&#45;&gt;Identity18</title>
<g id="a_edge21"><a xlink:title="lret19">
<path fill="none" stroke="blue" d="M192.99,-195.56C180.5,-213.45 157.48,-242.07 139.61,-262.11"/>
<polygon fill="blue" stroke="blue" points="136.95,-259.84 132.8,-269.59 142.12,-264.55 136.95,-259.84"/>
</a>
</g>
</g>
<!-- Bang26 -->
<g id="node27" class="node">
<title>Bang26</title>
<ellipse fill="none" stroke="black" cx="201.37" cy="-286" rx="29.5" ry="18"/>
<text text-anchor="middle" x="201.37" y="-282.3" font-family="Times,serif" font-size="14.00">Bang</text>
</g>
<!-- PiL19&#45;&gt;Bang26 -->
<g id="edge7" class="edge">
<title>PiL19&#45;&gt;Bang26</title>
<g id="a_edge7"><a xlink:title="dseq20">
<path fill="none" stroke="black" d="M201.37,-196.03C201.37,-212.62 201.37,-238.12 201.37,-257.57"/>
<polygon fill="black" stroke="black" points="197.87,-257.66 201.37,-267.66 204.87,-257.66 197.87,-257.66"/>
</a>
</g>
<text text-anchor="middle" x="204.87" y="-228.3" font-family="Times,serif" font-size="14.00">0</text>
</g>
<!-- PiL19&#45;&gt;Bang26 -->
<g id="edge29" class="edge">
<title>PiL19&#45;&gt;Bang26</title>
<g id="a_edge29"><a xlink:title="newrret18">
<path fill="none" stroke="red" d="M194.93,-195.84C193.07,-201.52 191.3,-207.96 190.37,-214 187.94,-229.81 187.94,-234.19 190.37,-250 190.79,-252.74 191.38,-255.56 192.08,-258.35"/>
<polygon fill="red" stroke="red" points="188.78,-259.53 194.93,-268.16 195.5,-257.58 188.78,-259.53"/>
</a>
</g>
<text text-anchor="middle" x="193.87" y="-228.3" font-family="Times,serif" font-size="14.00">0</text>
</g>
<!-- Assign20 -->
<g id="node21" class="node">
<title>Assign20</title>
<ellipse fill="none" stroke="black" cx="201.37" cy="-18" rx="35.19" ry="18"/>
<text text-anchor="middle" x="201.37" y="-14.3" font-family="Times,serif" font-size="14.00">Assign</text>
</g>
<!-- Assign20&#45;&gt;Identity18 -->
<g id="edge42" class="edge">
<title>Assign20&#45;&gt;Identity18</title>
<g id="a_edge42"><a xlink:title="ret8">
<path fill="none" stroke="red" d="M188.38,-35.13C180.68,-45.43 171.29,-59.36 165.37,-73 137.98,-136.04 124.28,-216.43 118.63,-257.76"/>
<polygon fill="red" stroke="red" points="115.14,-257.49 117.31,-267.86 122.08,-258.4 115.14,-257.49"/>
</a>
</g>
</g>
<!-- Cut23 -->
<g id="node24" class="node">
<title>Cut23</title>
<ellipse fill="none" stroke="black" cx="201.37" cy="-91" rx="27" ry="18"/>
<text text-anchor="middle" x="201.37" y="-87.3" font-family="Times,serif" font-size="14.00">Cut</text>
</g>
<!-- Assign20&#45;&gt;Cut23 -->
<g id="edge48" class="edge">
<title>Assign20&#45;&gt;Cut23</title>
<g id="a_edge48"><a xlink:title="seqBC94">
<path fill="none" stroke="black" d="M201.37,-36.19C201.37,-44.21 201.37,-53.95 201.37,-62.93"/>
<polygon fill="black" stroke="black" points="197.87,-62.97 201.37,-72.97 204.87,-62.97 197.87,-62.97"/>
</a>
</g>
</g>
<!-- Dup21 -->
<g id="node22" class="node">
<title>Dup21</title>
<ellipse fill="none" stroke="black" cx="208.37" cy="-568" rx="27" ry="18"/>
<text text-anchor="middle" x="208.37" y="-564.3" font-family="Times,serif" font-size="14.00">Dup</text>
</g>
<!-- Dup21&#45;&gt;PiR16 -->
<g id="edge1" class="edge">
<title>Dup21&#45;&gt;PiR16</title>
<g id="a_edge1"><a xlink:title="c_bseq32">
<path fill="none" stroke="black" d="M208.37,-586.2C208.37,-597.84 208.37,-613.45 208.37,-626.76"/>
<polygon fill="black" stroke="black" points="204.87,-626.82 208.37,-636.82 211.87,-626.82 204.87,-626.82"/>
</a>
</g>
<text text-anchor="middle" x="211.87" y="-607.8" font-family="Times,serif" font-size="14.00">1</text>
</g>
<!-- Dup22 -->
<g id="node23" class="node">
<title>Dup22</title>
<ellipse fill="none" stroke="black" cx="280.37" cy="-568" rx="27" ry="18"/>
<text text-anchor="middle" x="280.37" y="-564.3" font-family="Times,serif" font-size="14.00">Dup</text>
</g>
<!-- Dup22&#45;&gt;PiR16 -->
<g id="edge34" class="edge">
<title>Dup22&#45;&gt;PiR16</title>
<g id="a_edge34"><a xlink:title="newrretf31">
<path fill="none" stroke="red" d="M267.5,-584.2C256.44,-597.25 240.33,-616.26 227.72,-631.15"/>
<polygon fill="red" stroke="red" points="224.92,-629.04 221.13,-638.94 230.26,-633.57 224.92,-629.04"/>
</a>
</g>
<text text-anchor="middle" x="251.87" y="-607.8" font-family="Times,serif" font-size="14.00">1</text>
</g>
<!-- Cut23&#45;&gt;PiL19 -->
<g id="edge25" class="edge">
<title>Cut23&#45;&gt;PiL19</title>
<g id="a_edge25"><a xlink:title="lval14">
<path fill="none" stroke="blue" d="M195.86,-108.79C194.55,-120.55 194.28,-136.52 195.04,-150.04"/>
<polygon fill="blue" stroke="blue" points="191.57,-150.56 195.87,-160.24 198.54,-149.99 191.57,-150.56"/>
</a>
</g>
</g>
<!-- Cut23&#45;&gt;PiL19 -->
<g id="edge57" class="edge">
<title>Cut23&#45;&gt;PiL19</title>
<g id="a_edge57"><a xlink:title="xseq16">
<path fill="none" stroke="black" d="M207.7,-119C208.26,-128.94 208.26,-140.18 207.7,-150.11"/>
<polygon fill="black" stroke="black" points="210.36,-108.51 207.68,-118.76 203.38,-109.08 210.36,-108.51"/>
<polygon fill="black" stroke="black" points="204.19,-149.99 206.87,-160.24 211.17,-150.56 204.19,-149.99"/>
</a>
</g>
</g>
<!-- Lift24 -->
<g id="node25" class="node">
<title>Lift24</title>
<ellipse fill="none" stroke="black" cx="307.37" cy="-232" rx="27" ry="18"/>
<text text-anchor="middle" x="307.37" y="-228.3" font-family="Times,serif" font-size="14.00">Lift</text>
</g>
<!-- Cut23&#45;&gt;Lift24 -->
<g id="edge54" class="edge">
<title>Cut23&#45;&gt;Lift24</title>
<g id="a_edge54"><a xlink:title="seqDS95">
<path fill="none" stroke="black" d="M213.12,-107.41C231.58,-131.62 267.53,-178.76 289.3,-207.31"/>
<polygon fill="black" stroke="black" points="286.72,-209.7 295.57,-215.52 292.29,-205.45 286.72,-209.7"/>
</a>
</g>
<text text-anchor="middle" x="241.87" y="-130.8" font-family="Times,serif" font-size="14.00">0</text>
</g>
<!-- Lift25 -->
<g id="node26" class="node">
<title>Lift25</title>
<ellipse fill="none" stroke="black" cx="353.37" cy="-340" rx="27" ry="18"/>
<text text-anchor="middle" x="353.37" y="-336.3" font-family="Times,serif" font-size="14.00">Lift</text>
</g>
<!-- Cut23&#45;&gt;Lift25 -->
<g id="edge52" class="edge">
<title>Cut23&#45;&gt;Lift25</title>
<g id="a_edge52"><a xlink:title="seqDM96">
<path fill="none" stroke="red" d="M221.45,-103.11C252.56,-121.55 311.5,-161.68 337.37,-214 352.71,-245.03 355.2,-285.44 354.86,-311.79"/>
<polygon fill="red" stroke="red" points="351.36,-311.73 354.59,-321.82 358.36,-311.92 351.36,-311.73"/>
</a>
</g>
<text text-anchor="middle" x="328.87" y="-174.3" font-family="Times,serif" font-size="14.00">0</text>
</g>
<!-- Lift24&#45;&gt;Dup21 -->
<g id="edge5" class="edge">
<title>Lift24&#45;&gt;Dup21</title>
<g id="a_edge5"><a xlink:title="c_bseq86">
<path fill="none" stroke="black" d="M308.42,-250.25C309.6,-271.22 311.37,-307.69 311.37,-339 311.37,-339 311.37,-339 311.37,-482 311.37,-508.15 299.78,-514.48 280.37,-532 279.47,-532.81 258.25,-543.09 239.09,-552.3"/>
<polygon fill="black" stroke="black" points="237.44,-549.21 229.94,-556.69 240.47,-555.52 237.44,-549.21"/>
</a>
</g>
<text text-anchor="middle" x="314.87" y="-390.3" font-family="Times,serif" font-size="14.00">1</text>
</g>
<!-- Lift25&#45;&gt;Dup22 -->
<g id="edge38" class="edge">
<title>Lift25&#45;&gt;Dup22</title>
<g id="a_edge38"><a xlink:title="newrretf87">
<path fill="none" stroke="red" d="M354.92,-358.21C357.28,-393.44 358.44,-475.25 325.37,-532 321.39,-538.82 315.53,-544.79 309.34,-549.77"/>
<polygon fill="red" stroke="red" points="306.87,-547.24 300.84,-555.95 310.98,-552.9 306.87,-547.24"/>
</a>
</g>
<text text-anchor="middle" x="356.87" y="-433.8" font-family="Times,serif" font-size="14.00">1</text>
</g>
<!-- Bang26&#45;&gt;Identity17 -->
<g id="edge33" class="edge">
<title>Bang26&#45;&gt;Identity17</title>
<g id="a_edge33"><a xlink:title="newrretf23">
<path fill="none" stroke="red" d="M179.7,-298.13C136.57,-321.68 41,-381.16 4.37,-463 -7.45,-489.4 7.3,-520.94 21.32,-542.31"/>
<polygon fill="red" stroke="red" points="18.64,-544.58 27.21,-550.81 24.39,-540.59 18.64,-544.58"/>
</a>
</g>
<text text-anchor="middle" x="25.87" y="-433.8" font-family="Times,serif" font-size="14.00">1</text>
</g>
<!-- Cut27 -->
<g id="node28" class="node">
<title>Cut27</title>
<ellipse fill="none" stroke="black" cx="184.37" cy="-394" rx="27" ry="18"/>
<text text-anchor="middle" x="184.37" y="-390.3" font-family="Times,serif" font-size="14.00">Cut</text>
</g>
<!-- Bang26&#45;&gt;Cut27 -->
<g id="edge28" class="edge">
<title>Bang26&#45;&gt;Cut27</title>
<g id="a_edge28"><a xlink:title="newcut_bseq100">
<path fill="none" stroke="black" d="M198.64,-304.03C195.96,-320.72 191.84,-346.42 188.71,-365.92"/>
<polygon fill="black" stroke="black" points="185.22,-365.58 187.09,-376.01 192.13,-366.69 185.22,-365.58"/>
</a>
</g>
<text text-anchor="middle" x="199.87" y="-336.3" font-family="Times,serif" font-size="14.00">1</text>
</g>
<!-- Lift28 -->
<g id="node29" class="node">
<title>Lift28</title>
<ellipse fill="none" stroke="black" cx="40.37" cy="-481" rx="27" ry="18"/>
<text text-anchor="middle" x="40.37" y="-477.3" font-family="Times,serif" font-size="14.00">Lift</text>
</g>
<!-- Cut27&#45;&gt;Lift28 -->
<g id="edge49" class="edge">
<title>Cut27&#45;&gt;Lift28</title>
<g id="a_edge49"><a xlink:title="seqDD103">
<path fill="none" stroke="black" d="M155.97,-411.76C130.67,-426.7 93.84,-448.44 68.59,-463.34"/>
<polygon fill="black" stroke="black" points="166.43,-409.65 156.04,-411.72 162.87,-403.63 166.43,-409.65"/>
<polygon fill="black" stroke="black" points="66.68,-460.4 59.85,-468.5 70.24,-466.43 66.68,-460.4"/>
</a>
</g>
<text text-anchor="middle" x="124.87" y="-433.8" font-family="Times,serif" font-size="14.00">0</text>
</g>
<!-- Lift29 -->
<g id="node30" class="node">
<title>Lift29</title>
<ellipse fill="none" stroke="black" cx="184.37" cy="-481" rx="27" ry="18"/>
<text text-anchor="middle" x="184.37" y="-477.3" font-family="Times,serif" font-size="14.00">Lift</text>
</g>
<!-- Cut27&#45;&gt;Lift29 -->
<g id="edge53" class="edge">
<title>Cut27&#45;&gt;Lift29</title>
<g id="a_edge53"><a xlink:title="seqDS101">
<path fill="none" stroke="black" d="M184.37,-412.2C184.37,-423.84 184.37,-439.45 184.37,-452.76"/>
<polygon fill="black" stroke="black" points="180.87,-452.82 184.37,-462.82 187.87,-452.82 180.87,-452.82"/>
</a>
</g>
<text text-anchor="middle" x="187.87" y="-433.8" font-family="Times,serif" font-size="14.00">0</text>
</g>
<!-- Lift30 -->
<g id="node31" class="node">
<title>Lift30</title>
<ellipse fill="none" stroke="black" cx="112.37" cy="-481" rx="27" ry="18"/>
<text text-anchor="middle" x="112.37" y="-477.3" font-family="Times,serif" font-size="14.00">Lift</text>
</g>
<!-- Cut27&#45;&gt;Lift30 -->
<g id="edge50" class="edge">
<title>Cut27&#45;&gt;Lift30</title>
<g id="a_edge50"><a xlink:title="seqDE104">
<path fill="none" stroke="blue" d="M171.5,-410.2C160.44,-423.25 144.33,-442.26 131.72,-457.15"/>
<polygon fill="blue" stroke="blue" points="128.92,-455.04 125.13,-464.94 134.26,-459.57 128.92,-455.04"/>
</a>
</g>
<text text-anchor="middle" x="156.87" y="-433.8" font-family="Times,serif" font-size="14.00">0</text>
</g>
<!-- Lift31 -->
<g id="node32" class="node">
<title>Lift31</title>
<ellipse fill="none" stroke="black" cx="256.37" cy="-481" rx="27" ry="18"/>
<text text-anchor="middle" x="256.37" y="-477.3" font-family="Times,serif" font-size="14.00">Lift</text>
</g>
<!-- Cut27&#45;&gt;Lift31 -->
<g id="edge51" class="edge">
<title>Cut27&#45;&gt;Lift31</title>
<g id="a_edge51"><a xlink:title="seqDM102">
<path fill="none" stroke="red" d="M197.24,-410.2C208.3,-423.25 224.4,-442.26 237.01,-457.15"/>
<polygon fill="red" stroke="red" points="234.47,-459.57 243.61,-464.94 239.81,-455.04 234.47,-459.57"/>
</a>
</g>
<text text-anchor="middle" x="227.87" y="-433.8" font-family="Times,serif" font-size="14.00">0</text>
</g>
<!-- Lift28&#45;&gt;Identity17 -->
<g id="edge58" class="edge">
<title>Lift28&#45;&gt;Identity17</title>
<g id="a_edge58"><a xlink:title="xseq25">
<path fill="none" stroke="black" d="M40.37,-499.2C40.37,-510.84 40.37,-526.45 40.37,-539.76"/>
<polygon fill="black" stroke="black" points="36.87,-539.82 40.37,-549.82 43.87,-539.82 36.87,-539.82"/>
</a>
</g>
<text text-anchor="middle" x="43.87" y="-520.8" font-family="Times,serif" font-size="14.00">1</text>
</g>
<!-- Lift29&#45;&gt;Dup21 -->
<g id="edge6" class="edge">
<title>Lift29&#45;&gt;Dup21</title>
<g id="a_edge6"><a xlink:title="c_bseq90">
<path fill="none" stroke="black" d="M189.11,-498.79C192.46,-510.67 197.03,-526.83 200.87,-540.44"/>
<polygon fill="none" stroke="black" points="197.55,-541.57 203.64,-550.24 204.29,-539.67 197.55,-541.57"/>
</a>
</g>
<text text-anchor="middle" x="201.87" y="-520.8" font-family="Times,serif" font-size="14.00">1</text>
</g>
<!-- Lift30&#45;&gt;Identity17 -->
<g id="edge56" class="edge">
<title>Lift30&#45;&gt;Identity17</title>
<g id="a_edge56"><a xlink:title="xret26">
<path fill="none" stroke="blue" d="M99.5,-497.2C88.64,-510.01 72.93,-528.56 60.42,-543.32"/>
<polygon fill="blue" stroke="blue" points="57.65,-541.18 53.86,-551.07 63,-545.7 57.65,-541.18"/>
</a>
</g>
<text text-anchor="middle" x="84.87" y="-520.8" font-family="Times,serif" font-size="14.00">1</text>
</g>
<!-- Lift31&#45;&gt;Dup22 -->
<g id="edge39" class="edge">
<title>Lift31&#45;&gt;Dup22</title>
<g id="a_edge39"><a xlink:title="newrretf91">
<path fill="none" stroke="red" d="M261.11,-498.79C264.46,-510.67 269.03,-526.83 272.87,-540.44"/>
<polygon fill="none" stroke="red" points="269.55,-541.57 275.64,-550.24 276.29,-539.67 269.55,-541.57"/>
</a>
</g>
<text text-anchor="middle" x="272.87" y="-520.8" font-family="Times,serif" font-size="14.00">1</text>
</g>
<!-- Cut32 -->
<g id="node33" class="node">
<title>Cut32</title>
<ellipse fill="none" stroke="black" cx="289.37" cy="-833.8" rx="27" ry="18"/>
<text text-anchor="middle" x="289.37" y="-830.1" font-family="Times,serif" font-size="14.00">Cut</text>
</g>
<!-- Cut32&#45;&gt;Bang7 -->
<g id="edge9" class="edge">
<title>Cut32&#45;&gt;Bang7</title>
<g id="a_edge9"><a xlink:title="dseq63">
<path fill="none" stroke="black" d="M288.31,-851.98C288.42,-862.1 289.88,-874.84 295.37,-884.8 298.86,-891.14 304.02,-896.78 309.56,-901.58"/>
<polygon fill="black" stroke="black" points="307.75,-904.61 317.8,-907.99 312.06,-899.09 307.75,-904.61"/>
</a>
</g>
<text text-anchor="middle" x="298.87" y="-873.6" font-family="Times,serif" font-size="14.00">1</text>
</g>
<!-- Cut32&#45;&gt;Bang7 -->
<g id="edge31" class="edge">
<title>Cut32&#45;&gt;Bang7</title>
<g id="a_edge31"><a xlink:title="newrret61">
<path fill="none" stroke="red" d="M298.58,-850.78C305.72,-863.17 315.75,-880.56 323.95,-894.78"/>
<polygon fill="red" stroke="red" points="321,-896.68 329.03,-903.59 327.06,-893.18 321,-896.68"/>
</a>
</g>
<text text-anchor="middle" x="319.87" y="-873.6" font-family="Times,serif" font-size="14.00">1</text>
</g>
<!-- Cut32&#45;&gt;BangC15 -->
<g id="edge45" class="edge">
<title>Cut32&#45;&gt;BangC15</title>
<g id="a_edge45"><a xlink:title="seq40">
<path fill="none" stroke="black" d="M272.09,-859.03C266.46,-869.7 260.64,-882.28 256.26,-893.21"/>
<polygon fill="black" stroke="black" points="280.14,-851.68 272.24,-858.75 274.02,-848.3 280.14,-851.68"/>
<polygon fill="black" stroke="black" points="252.94,-892.09 252.68,-902.69 259.48,-894.57 252.94,-892.09"/>
</a>
</g>
</g>
<!-- Cut32&#45;&gt;BangC15 -->
<g id="edge59" class="edge">
<title>Cut32&#45;&gt;BangC15</title>
<g id="a_edge59"><a xlink:title="y41">
<path fill="none" stroke="blue" d="M287.02,-852C282.72,-864.29 275.26,-881.03 268.05,-894.8"/>
<polygon fill="blue" stroke="blue" points="264.87,-893.32 263.14,-903.77 271.01,-896.68 264.87,-893.32"/>
</a>
</g>
</g>
<!-- Cut33&#45;&gt;Identity8 -->
<g id="edge17" class="edge">
<title>Cut33&#45;&gt;Identity8</title>
<g id="a_edge17"><a xlink:title="idseq64">
<path fill="none" stroke="black" d="M201.04,-774.21C200.49,-784.54 200.38,-795.64 200.76,-805.38"/>
<polygon fill="black" stroke="black" points="205.22,-764.43 201.04,-774.17 198.24,-763.95 205.22,-764.43"/>
<polygon fill="black" stroke="black" points="197.28,-805.91 201.39,-815.67 204.27,-805.48 197.28,-805.91"/>
</a>
</g>
</g>
<!-- Cut33&#45;&gt;Identity8 -->
<g id="edge23" class="edge">
<title>Cut33&#45;&gt;Identity8</title>
<g id="a_edge23"><a xlink:title="lret62">
<path fill="none" stroke="blue" d="M213.92,-764.44C214.48,-777.23 214.18,-792.64 213.12,-805.58"/>
<polygon fill="blue" stroke="blue" points="209.62,-805.45 212.06,-815.76 216.58,-806.18 209.62,-805.45"/>
</a>
</g>
</g>
<!-- Cut33&#45;&gt;Identity12 -->
<g id="edge41" class="edge">
<title>Cut33&#45;&gt;Identity12</title>
<g id="a_edge41"><a xlink:title="ret42">
<path fill="none" stroke="red" stroke-width="2" d="M186.85,-754.63C166.93,-771.68 140.37,-800.48 140.37,-832.8 140.37,-832.8 140.37,-832.8 140.37,-1095.8 140.37,-1115.23 143.48,-1136.93 146.54,-1153.54"/>
<polygon fill="red" stroke="red" stroke-width="2" points="143.16,-1154.49 148.5,-1163.64 150.03,-1153.16 143.16,-1154.49"/>
</a>
</g>
</g>
<!-- Cut33&#45;&gt;Cut32 -->
<g id="edge55" class="edge">
<title>Cut33&#45;&gt;Cut32</title>
<g id="a_edge55"><a xlink:title="seqP105">
<path fill="none" stroke="black" d="M225.94,-758.88C238.94,-774.03 256.63,-794.64 270.03,-810.26"/>
<polygon fill="black" stroke="black" points="267.43,-812.6 276.59,-817.91 272.74,-808.04 267.43,-812.6"/>
</a>
</g>
</g>
</g>
</svg>
