<?xml version="1.0" encoding="UTF-8" standalone="no"?>
<!DOCTYPE svg PUBLIC "-//W3C//DTD SVG 1.1//EN"
 "http://www.w3.org/Graphics/SVG/1.1/DTD/svg11.dtd">
<!-- Generated by graphviz version 2.43.0 (0)
 -->
<!-- Title: %3 Pages: 1 -->
<svg width="336pt" height="1437pt"
 viewBox="0.00 0.00 336.00 1437.30" xmlns="http://www.w3.org/2000/svg" xmlns:xlink="http://www.w3.org/1999/xlink">
<g id="graph0" class="graph" transform="scale(1 1) rotate(0) translate(4 1433.3)">
<title>%3</title>
<polygon fill="white" stroke="transparent" points="-4,4 -4,-1433.3 332,-1433.3 332,4 -4,4"/>
<!-- Root0 -->
<g id="node1" class="node">
<title>Root0</title>
<ellipse fill="none" stroke="black" cx="189" cy="-1411.3" rx="30.59" ry="18"/>
<text text-anchor="middle" x="189" y="-1407.6" font-family="Times-Roman" font-size="14.00">Root</text>
</g>
<!-- I5 -->
<g id="node31" class="node">
<title>I5</title>
<ellipse fill="none" stroke="black" cx="189" cy="-1339.3" rx="27" ry="18"/>
<text text-anchor="middle" x="189" y="-1335.6" font-family="Times-Roman" font-size="14.00">I</text>
</g>
<!-- Root0&#45;&gt;I5 -->
<g id="edge36" class="edge">
<title>Root0&#45;&gt;I5</title>
<g id="a_edge36"><a xlink:title="rettop">
<path fill="none" stroke="red" stroke-width="2" d="M189,-1392.99C189,-1385.28 189,-1376.01 189,-1367.41"/>
<polygon fill="red" stroke="red" stroke-width="2" points="192.5,-1367.4 189,-1357.4 185.5,-1367.4 192.5,-1367.4"/>
</a>
</g>
</g>
<!-- !p0 -->
<g id="node2" class="node">
<title>!p0</title>
<ellipse fill="none" stroke="black" cx="153" cy="-738" rx="27" ry="18"/>
<text text-anchor="middle" x="153" y="-734.3" font-family="Times-Roman" font-size="14.00">!p</text>
</g>
<!-- PiR0 -->
<g id="node4" class="node">
<title>PiR0</title>
<ellipse fill="none" stroke="black" cx="153" cy="-666" rx="27" ry="18"/>
<text text-anchor="middle" x="153" y="-662.3" font-family="Times-Roman" font-size="14.00">PiR</text>
</g>
<!-- !p0&#45;&gt;PiR0 -->
<g id="edge18" class="edge">
<title>!p0&#45;&gt;PiR0</title>
<g id="a_edge18"><a xlink:title="e39">
<path fill="none" stroke="red" d="M153,-719.7C153,-711.98 153,-702.71 153,-694.11"/>
<polygon fill="red" stroke="red" points="156.5,-694.1 153,-684.1 149.5,-694.1 156.5,-694.1"/>
</a>
</g>
</g>
<!-- Cut0 -->
<g id="node3" class="node">
<title>Cut0</title>
<ellipse fill="none" stroke="black" cx="153" cy="-810" rx="27" ry="18"/>
<text text-anchor="middle" x="153" y="-806.3" font-family="Times-Roman" font-size="14.00">Cut</text>
</g>
<!-- Cut0&#45;&gt;!p0 -->
<g id="edge17" class="edge">
<title>Cut0&#45;&gt;!p0</title>
<g id="a_edge17"><a xlink:title="e37">
<path fill="none" stroke="red" d="M153,-791.7C153,-783.98 153,-774.71 153,-766.11"/>
<polygon fill="red" stroke="red" points="156.5,-766.1 153,-756.1 149.5,-766.1 156.5,-766.1"/>
</a>
</g>
</g>
<!-- I0 -->
<g id="node9" class="node">
<title>I0</title>
<ellipse fill="none" stroke="black" cx="126" cy="-594" rx="27" ry="18"/>
<text text-anchor="middle" x="126" y="-590.3" font-family="Times-Roman" font-size="14.00">I</text>
</g>
<!-- PiR0&#45;&gt;I0 -->
<g id="edge20" class="edge">
<title>PiR0&#45;&gt;I0</title>
<g id="a_edge20"><a xlink:title="e43">
<path fill="none" stroke="red" d="M146.6,-648.41C143.49,-640.34 139.67,-630.43 136.17,-621.35"/>
<polygon fill="red" stroke="red" points="139.4,-620.03 132.54,-611.96 132.87,-622.55 139.4,-620.03"/>
</a>
</g>
</g>
<!-- !c0 -->
<g id="node5" class="node">
<title>!c0</title>
<ellipse fill="none" stroke="black" cx="154" cy="-162" rx="27" ry="18"/>
<text text-anchor="middle" x="154" y="-158.3" font-family="Times-Roman" font-size="14.00">!c</text>
</g>
<!-- !c0&#45;&gt;PiR0 -->
<g id="edge19" class="edge">
<title>!c0&#45;&gt;PiR0</title>
<g id="a_edge19"><a xlink:title="e41">
<path fill="none" stroke="blue" d="M167.41,-188.07C180.98,-215.84 200,-262.35 200,-305 200,-523 200,-523 200,-523 200,-570.78 175.72,-623.23 162.06,-648.96"/>
<polygon fill="blue" stroke="blue" points="170.49,-186.42 162.87,-179.06 164.24,-189.57 170.49,-186.42"/>
</a>
</g>
</g>
<!-- !d0 -->
<g id="node6" class="node">
<title>!d0</title>
<ellipse fill="none" stroke="black" cx="126" cy="-306" rx="27" ry="18"/>
<text text-anchor="middle" x="126" y="-302.3" font-family="Times-Roman" font-size="14.00">!d</text>
</g>
<!-- !d0&#45;&gt;!c0 -->
<g id="edge21" class="edge">
<title>!d0&#45;&gt;!c0</title>
<g id="a_edge21"><a xlink:title="e46">
<path fill="none" stroke="blue" d="M131.31,-278.06C136.99,-249.28 145.81,-204.53 150.61,-180.19"/>
<polygon fill="blue" stroke="blue" points="127.88,-277.38 129.38,-287.87 134.75,-278.74 127.88,-277.38"/>
</a>
</g>
</g>
<!-- PiL0 -->
<g id="node7" class="node">
<title>PiL0</title>
<ellipse fill="none" stroke="black" cx="126" cy="-450" rx="27" ry="18"/>
<text text-anchor="middle" x="126" y="-446.3" font-family="Times-Roman" font-size="14.00">PiL</text>
</g>
<!-- PiL0&#45;&gt;!d0 -->
<g id="edge23" class="edge">
<title>PiL0&#45;&gt;!d0</title>
<g id="a_edge23"><a xlink:title="e49">
<path fill="none" stroke="blue" d="M115.74,-422.54C112.98,-414.18 110.38,-404.82 109,-396 106.53,-380.19 106.53,-375.81 109,-360 110.94,-347.59 115.3,-334.12 119.11,-323.86"/>
<polygon fill="blue" stroke="blue" points="112.49,-423.87 119.11,-432.14 119.1,-421.55 112.49,-423.87"/>
</a>
</g>
</g>
<!-- !p1 -->
<g id="node10" class="node">
<title>!p1</title>
<ellipse fill="none" stroke="black" cx="145" cy="-378" rx="27" ry="18"/>
<text text-anchor="middle" x="145" y="-374.3" font-family="Times-Roman" font-size="14.00">!p</text>
</g>
<!-- PiL0&#45;&gt;!p1 -->
<g id="edge25" class="edge">
<title>PiL0&#45;&gt;!p1</title>
<g id="a_edge25"><a xlink:title="e53">
<path fill="none" stroke="red" d="M130.6,-432.05C132.75,-424.14 135.35,-414.54 137.76,-405.69"/>
<polygon fill="red" stroke="red" points="141.2,-406.36 140.44,-395.79 134.45,-404.52 141.2,-406.36"/>
</a>
</g>
</g>
<!-- PiL1 -->
<g id="node8" class="node">
<title>PiL1</title>
<ellipse fill="none" stroke="black" cx="126" cy="-522" rx="27" ry="18"/>
<text text-anchor="middle" x="126" y="-518.3" font-family="Times-Roman" font-size="14.00">PiL</text>
</g>
<!-- PiL1&#45;&gt;PiL0 -->
<g id="edge24" class="edge">
<title>PiL1&#45;&gt;PiL0</title>
<g id="a_edge24"><a xlink:title="e51">
<path fill="none" stroke="blue" d="M126,-493.67C126,-485.05 126,-475.79 126,-468.1"/>
<polygon fill="blue" stroke="blue" points="122.5,-493.7 126,-503.7 129.5,-493.7 122.5,-493.7"/>
</a>
</g>
</g>
<!-- !p3 -->
<g id="node15" class="node">
<title>!p3</title>
<ellipse fill="none" stroke="black" cx="45" cy="-450" rx="27" ry="18"/>
<text text-anchor="middle" x="45" y="-446.3" font-family="Times-Roman" font-size="14.00">!p</text>
</g>
<!-- PiL1&#45;&gt;!p3 -->
<g id="edge27" class="edge">
<title>PiL1&#45;&gt;!p3</title>
<g id="a_edge27"><a xlink:title="e57">
<path fill="none" stroke="red" d="M110,-507.17C98.24,-497.01 82.06,-483.03 68.79,-471.56"/>
<polygon fill="red" stroke="red" points="70.82,-468.69 60.97,-464.8 66.25,-473.99 70.82,-468.69"/>
</a>
</g>
</g>
<!-- I0&#45;&gt;PiL1 -->
<g id="edge26" class="edge">
<title>I0&#45;&gt;PiL1</title>
<g id="a_edge26"><a xlink:title="e55">
<path fill="none" stroke="blue" d="M126,-565.67C126,-557.05 126,-547.79 126,-540.1"/>
<polygon fill="blue" stroke="blue" points="122.5,-565.7 126,-575.7 129.5,-565.7 122.5,-565.7"/>
</a>
</g>
</g>
<!-- PiR1 -->
<g id="node11" class="node">
<title>PiR1</title>
<ellipse fill="none" stroke="black" cx="255" cy="-306" rx="27" ry="18"/>
<text text-anchor="middle" x="255" y="-302.3" font-family="Times-Roman" font-size="14.00">PiR</text>
</g>
<!-- !p1&#45;&gt;PiR1 -->
<g id="edge28" class="edge">
<title>!p1&#45;&gt;PiR1</title>
<g id="a_edge28"><a xlink:title="e85">
<path fill="none" stroke="red" d="M164.16,-364.81C181.67,-353.67 207.76,-337.06 227.49,-324.5"/>
<polygon fill="red" stroke="red" points="229.5,-327.37 236.06,-319.05 225.74,-321.47 229.5,-327.37"/>
</a>
</g>
</g>
<!-- I1 -->
<g id="node13" class="node">
<title>I1</title>
<ellipse fill="none" stroke="black" cx="301" cy="-234" rx="27" ry="18"/>
<text text-anchor="middle" x="301" y="-230.3" font-family="Times-Roman" font-size="14.00">I</text>
</g>
<!-- PiR1&#45;&gt;I1 -->
<g id="edge30" class="edge">
<title>PiR1&#45;&gt;I1</title>
<g id="a_edge30"><a xlink:title="e89">
<path fill="none" stroke="red" d="M265.44,-289.12C271.2,-280.34 278.48,-269.26 284.96,-259.42"/>
<polygon fill="red" stroke="red" points="288.04,-261.1 290.6,-250.82 282.19,-257.26 288.04,-261.1"/>
</a>
</g>
</g>
<!-- !d1 -->
<g id="node12" class="node">
<title>!d1</title>
<ellipse fill="none" stroke="black" cx="273" cy="-162" rx="27" ry="18"/>
<text text-anchor="middle" x="273" y="-158.3" font-family="Times-Roman" font-size="14.00">!d</text>
</g>
<!-- !d1&#45;&gt;PiR1 -->
<g id="edge29" class="edge">
<title>!d1&#45;&gt;PiR1</title>
<g id="a_edge29"><a xlink:title="e87">
<path fill="none" stroke="blue" d="M268.71,-190.1C267.45,-198.4 266.11,-207.57 265,-216 261.71,-240.97 258.58,-269.98 256.73,-287.91"/>
<polygon fill="blue" stroke="blue" points="272.17,-190.58 270.24,-180.16 265.26,-189.51 272.17,-190.58"/>
</a>
</g>
</g>
<!-- I1&#45;&gt;!d1 -->
<g id="edge31" class="edge">
<title>I1&#45;&gt;!d1</title>
<g id="a_edge31"><a xlink:title="e91">
<path fill="none" stroke="blue" d="M290.56,-206.91C286.89,-197.72 282.86,-187.65 279.59,-179.47"/>
<polygon fill="blue" stroke="blue" points="287.4,-208.43 294.36,-216.41 293.9,-205.83 287.4,-208.43"/>
</a>
</g>
</g>
<!-- !p2 -->
<g id="node14" class="node">
<title>!p2</title>
<ellipse fill="none" stroke="black" cx="189" cy="-1098" rx="27" ry="18"/>
<text text-anchor="middle" x="189" y="-1094.3" font-family="Times-Roman" font-size="14.00">!p</text>
</g>
<!-- I2 -->
<g id="node18" class="node">
<title>I2</title>
<ellipse fill="none" stroke="black" cx="189" cy="-1026" rx="27" ry="18"/>
<text text-anchor="middle" x="189" y="-1022.3" font-family="Times-Roman" font-size="14.00">I</text>
</g>
<!-- !p2&#45;&gt;I2 -->
<g id="edge32" class="edge">
<title>!p2&#45;&gt;I2</title>
<g id="a_edge32"><a xlink:title="e92">
<path fill="none" stroke="red" d="M189,-1079.7C189,-1071.98 189,-1062.71 189,-1054.11"/>
<polygon fill="red" stroke="red" points="192.5,-1054.1 189,-1044.1 185.5,-1054.1 192.5,-1054.1"/>
</a>
</g>
</g>
<!-- I3 -->
<g id="node21" class="node">
<title>I3</title>
<ellipse fill="none" stroke="black" cx="35" cy="-378" rx="27" ry="18"/>
<text text-anchor="middle" x="35" y="-374.3" font-family="Times-Roman" font-size="14.00">I</text>
</g>
<!-- !p3&#45;&gt;I3 -->
<g id="edge33" class="edge">
<title>!p3&#45;&gt;I3</title>
<g id="a_edge33"><a xlink:title="e95">
<path fill="none" stroke="red" d="M42.58,-432.05C41.48,-424.35 40.15,-415.03 38.91,-406.36"/>
<polygon fill="red" stroke="red" points="42.35,-405.68 37.47,-396.28 35.42,-406.67 42.35,-405.68"/>
</a>
</g>
</g>
<!-- !d2 -->
<g id="node16" class="node">
<title>!d2</title>
<ellipse fill="none" stroke="black" cx="153" cy="-882" rx="27" ry="18"/>
<text text-anchor="middle" x="153" y="-878.3" font-family="Times-Roman" font-size="14.00">!d</text>
</g>
<!-- !d2&#45;&gt;Cut0 -->
<g id="edge15" class="edge">
<title>!d2&#45;&gt;Cut0</title>
<g id="a_edge15"><a xlink:title="e23">
<path fill="none" stroke="blue" d="M153,-853.67C153,-845.05 153,-835.79 153,-828.1"/>
<polygon fill="blue" stroke="blue" points="149.5,-853.7 153,-863.7 156.5,-853.7 149.5,-853.7"/>
</a>
</g>
</g>
<!-- PiL2 -->
<g id="node17" class="node">
<title>PiL2</title>
<ellipse fill="none" stroke="black" cx="189" cy="-954" rx="27" ry="18"/>
<text text-anchor="middle" x="189" y="-950.3" font-family="Times-Roman" font-size="14.00">PiL</text>
</g>
<!-- PiL2&#45;&gt;!d2 -->
<g id="edge34" class="edge">
<title>PiL2&#45;&gt;!d2</title>
<g id="a_edge34"><a xlink:title="e96">
<path fill="none" stroke="blue" d="M175.99,-927.7C171.09,-918.18 165.66,-907.61 161.3,-899.15"/>
<polygon fill="blue" stroke="blue" points="172.96,-929.47 180.65,-936.76 179.19,-926.27 172.96,-929.47"/>
</a>
</g>
</g>
<!-- !p4 -->
<g id="node22" class="node">
<title>!p4</title>
<ellipse fill="none" stroke="black" cx="225" cy="-882" rx="27" ry="18"/>
<text text-anchor="middle" x="225" y="-878.3" font-family="Times-Roman" font-size="14.00">!p</text>
</g>
<!-- PiL2&#45;&gt;!p4 -->
<g id="edge1" class="edge">
<title>PiL2&#45;&gt;!p4</title>
<g id="a_edge1"><a xlink:title="e100">
<path fill="none" stroke="red" d="M197.35,-936.76C201.71,-928.28 207.15,-917.71 212.04,-908.2"/>
<polygon fill="red" stroke="red" points="215.23,-909.64 216.7,-899.15 209.01,-906.44 215.23,-909.64"/>
</a>
</g>
</g>
<!-- I2&#45;&gt;PiL2 -->
<g id="edge35" class="edge">
<title>I2&#45;&gt;PiL2</title>
<g id="a_edge35"><a xlink:title="e98">
<path fill="none" stroke="blue" d="M189,-997.67C189,-989.05 189,-979.79 189,-972.1"/>
<polygon fill="blue" stroke="blue" points="185.5,-997.7 189,-1007.7 192.5,-997.7 185.5,-997.7"/>
</a>
</g>
</g>
<!-- !d3 -->
<g id="node19" class="node">
<title>!d3</title>
<ellipse fill="none" stroke="black" cx="99" cy="-234" rx="27" ry="18"/>
<text text-anchor="middle" x="99" y="-230.3" font-family="Times-Roman" font-size="14.00">!d</text>
</g>
<!-- !d3&#45;&gt;!c0 -->
<g id="edge22" class="edge">
<title>!d3&#45;&gt;!c0</title>
<g id="a_edge22"><a xlink:title="e47">
<path fill="none" stroke="blue" d="M117.17,-209.87C125.37,-199.44 134.81,-187.42 142.09,-178.16"/>
<polygon fill="blue" stroke="blue" points="114.36,-207.79 110.93,-217.81 119.86,-212.11 114.36,-207.79"/>
</a>
</g>
</g>
<!-- PiL3 -->
<g id="node20" class="node">
<title>PiL3</title>
<ellipse fill="none" stroke="black" cx="35" cy="-306" rx="27" ry="18"/>
<text text-anchor="middle" x="35" y="-302.3" font-family="Times-Roman" font-size="14.00">PiL</text>
</g>
<!-- PiL3&#45;&gt;!d3 -->
<g id="edge2" class="edge">
<title>PiL3&#45;&gt;!d3</title>
<g id="a_edge2"><a xlink:title="e103">
<path fill="none" stroke="blue" d="M55.36,-282.73C65.19,-271.98 76.71,-259.38 85.45,-249.82"/>
<polygon fill="blue" stroke="blue" points="52.74,-280.41 48.57,-290.15 57.9,-285.14 52.74,-280.41"/>
</a>
</g>
</g>
<!-- !p5 -->
<g id="node23" class="node">
<title>!p5</title>
<ellipse fill="none" stroke="black" cx="27" cy="-234" rx="27" ry="18"/>
<text text-anchor="middle" x="27" y="-230.3" font-family="Times-Roman" font-size="14.00">!p</text>
</g>
<!-- PiL3&#45;&gt;!p5 -->
<g id="edge4" class="edge">
<title>PiL3&#45;&gt;!p5</title>
<g id="a_edge4"><a xlink:title="e107">
<path fill="none" stroke="red" d="M33.02,-287.7C32.14,-279.98 31.08,-270.71 30.1,-262.11"/>
<polygon fill="red" stroke="red" points="33.57,-261.64 28.95,-252.1 26.61,-262.44 33.57,-261.64"/>
</a>
</g>
</g>
<!-- I3&#45;&gt;PiL3 -->
<g id="edge3" class="edge">
<title>I3&#45;&gt;PiL3</title>
<g id="a_edge3"><a xlink:title="e105">
<path fill="none" stroke="blue" d="M35,-349.67C35,-341.05 35,-331.79 35,-324.1"/>
<polygon fill="blue" stroke="blue" points="31.5,-349.7 35,-359.7 38.5,-349.7 31.5,-349.7"/>
</a>
</g>
</g>
<!-- PiR2 -->
<g id="node24" class="node">
<title>PiR2</title>
<ellipse fill="none" stroke="black" cx="225" cy="-810" rx="27" ry="18"/>
<text text-anchor="middle" x="225" y="-806.3" font-family="Times-Roman" font-size="14.00">PiR</text>
</g>
<!-- !p4&#45;&gt;PiR2 -->
<g id="edge5" class="edge">
<title>!p4&#45;&gt;PiR2</title>
<g id="a_edge5"><a xlink:title="e108">
<path fill="none" stroke="red" d="M225,-863.7C225,-855.98 225,-846.71 225,-838.11"/>
<polygon fill="red" stroke="red" points="228.5,-838.1 225,-828.1 221.5,-838.1 228.5,-838.1"/>
</a>
</g>
</g>
<!-- PiR3 -->
<g id="node25" class="node">
<title>PiR3</title>
<ellipse fill="none" stroke="black" cx="27" cy="-162" rx="27" ry="18"/>
<text text-anchor="middle" x="27" y="-158.3" font-family="Times-Roman" font-size="14.00">PiR</text>
</g>
<!-- !p5&#45;&gt;PiR3 -->
<g id="edge6" class="edge">
<title>!p5&#45;&gt;PiR3</title>
<g id="a_edge6"><a xlink:title="e111">
<path fill="none" stroke="red" d="M27,-215.7C27,-207.98 27,-198.71 27,-190.11"/>
<polygon fill="red" stroke="red" points="30.5,-190.1 27,-180.1 23.5,-190.1 30.5,-190.1"/>
</a>
</g>
</g>
<!-- I4 -->
<g id="node28" class="node">
<title>I4</title>
<ellipse fill="none" stroke="black" cx="271" cy="-738" rx="27" ry="18"/>
<text text-anchor="middle" x="271" y="-734.3" font-family="Times-Roman" font-size="14.00">I</text>
</g>
<!-- PiR2&#45;&gt;I4 -->
<g id="edge8" class="edge">
<title>PiR2&#45;&gt;I4</title>
<g id="a_edge8"><a xlink:title="e114">
<path fill="none" stroke="red" d="M235.44,-793.12C241.2,-784.34 248.48,-773.26 254.96,-763.42"/>
<polygon fill="red" stroke="red" points="258.04,-765.1 260.6,-754.82 252.19,-761.26 258.04,-765.1"/>
</a>
</g>
</g>
<!-- I6 -->
<g id="node32" class="node">
<title>I6</title>
<ellipse fill="none" stroke="black" cx="55" cy="-90" rx="27" ry="18"/>
<text text-anchor="middle" x="55" y="-86.3" font-family="Times-Roman" font-size="14.00">I</text>
</g>
<!-- PiR3&#45;&gt;I6 -->
<g id="edge11" class="edge">
<title>PiR3&#45;&gt;I6</title>
<g id="a_edge11"><a xlink:title="e119">
<path fill="none" stroke="red" d="M33.64,-144.41C36.91,-136.22 40.94,-126.14 44.62,-116.95"/>
<polygon fill="red" stroke="red" points="47.95,-118.05 48.41,-107.47 41.45,-115.45 47.95,-118.05"/>
</a>
</g>
</g>
<!-- Cut1 -->
<g id="node26" class="node">
<title>Cut1</title>
<ellipse fill="none" stroke="black" cx="189" cy="-1182.65" rx="26.78" ry="26.78"/>
<ellipse fill="none" stroke="black" cx="189" cy="-1182.65" rx="30.8" ry="30.8"/>
<text text-anchor="middle" x="189" y="-1178.95" font-family="Times-Roman" font-size="14.00">Cut</text>
</g>
<!-- Cut1&#45;&gt;!p2 -->
<g id="edge16" class="edge">
<title>Cut1&#45;&gt;!p2</title>
<g id="a_edge16"><a xlink:title="e34">
<path fill="none" stroke="red" d="M189,-1151.81C189,-1143.45 189,-1134.41 189,-1126.21"/>
<polygon fill="red" stroke="red" points="192.5,-1126.05 189,-1116.05 185.5,-1126.05 192.5,-1126.05"/>
</a>
</g>
</g>
<!-- !d4 -->
<g id="node27" class="node">
<title>!d4</title>
<ellipse fill="none" stroke="black" cx="248" cy="-666" rx="27" ry="18"/>
<text text-anchor="middle" x="248" y="-662.3" font-family="Times-Roman" font-size="14.00">!d</text>
</g>
<!-- !d4&#45;&gt;PiR2 -->
<g id="edge7" class="edge">
<title>!d4&#45;&gt;PiR2</title>
<g id="a_edge7"><a xlink:title="e112">
<path fill="none" stroke="blue" d="M240.67,-693.98C238.61,-702.28 236.52,-711.47 235,-720 230.58,-744.8 227.75,-773.85 226.27,-791.84"/>
<polygon fill="blue" stroke="blue" points="244.12,-694.62 243.22,-684.07 237.34,-692.88 244.12,-694.62"/>
</a>
</g>
</g>
<!-- I4&#45;&gt;!d4 -->
<g id="edge12" class="edge">
<title>I4&#45;&gt;!d4</title>
<g id="a_edge12"><a xlink:title="e120">
<path fill="none" stroke="blue" d="M262.27,-710.43C259.33,-701.48 256.14,-691.76 253.52,-683.79"/>
<polygon fill="blue" stroke="blue" points="258.99,-711.65 265.43,-720.05 265.64,-709.46 258.99,-711.65"/>
</a>
</g>
</g>
<!-- !d5 -->
<g id="node29" class="node">
<title>!d5</title>
<ellipse fill="none" stroke="black" cx="189" cy="-1267.3" rx="27" ry="18"/>
<text text-anchor="middle" x="189" y="-1263.6" font-family="Times-Roman" font-size="14.00">!d</text>
</g>
<!-- !d5&#45;&gt;Cut1 -->
<g id="edge9" class="edge">
<title>!d5&#45;&gt;Cut1</title>
<g id="a_edge9"><a xlink:title="e116">
<path fill="none" stroke="blue" stroke-width="2" d="M189,-1239.01C189,-1230.82 189,-1221.8 189,-1213.45"/>
<polygon fill="blue" stroke="blue" stroke-width="2" points="185.5,-1239.17 189,-1249.17 192.5,-1239.17 185.5,-1239.17"/>
</a>
</g>
</g>
<!-- !d6 -->
<g id="node30" class="node">
<title>!d6</title>
<ellipse fill="none" stroke="black" cx="27" cy="-18" rx="27" ry="18"/>
<text text-anchor="middle" x="27" y="-14.3" font-family="Times-Roman" font-size="14.00">!d</text>
</g>
<!-- !d6&#45;&gt;PiR3 -->
<g id="edge10" class="edge">
<title>!d6&#45;&gt;PiR3</title>
<g id="a_edge10"><a xlink:title="e117">
<path fill="none" stroke="blue" d="M22.12,-46.04C20.84,-54.34 19.64,-63.52 19,-72 17.8,-87.96 17.8,-92.04 19,-108 19.91,-120.06 21.95,-133.54 23.75,-143.89"/>
<polygon fill="blue" stroke="blue" points="25.58,-46.55 23.75,-36.11 18.68,-45.41 25.58,-46.55"/>
</a>
</g>
</g>
<!-- I5&#45;&gt;!d5 -->
<g id="edge13" class="edge">
<title>I5&#45;&gt;!d5</title>
<g id="a_edge13"><a xlink:title="e122">
<path fill="none" stroke="blue" stroke-width="2" d="M189,-1310.96C189,-1302.35 189,-1293.09 189,-1285.4"/>
<polygon fill="blue" stroke="blue" stroke-width="2" points="185.5,-1310.99 189,-1320.99 192.5,-1310.99 185.5,-1310.99"/>
</a>
</g>
</g>
<!-- I6&#45;&gt;!d6 -->
<g id="edge14" class="edge">
<title>I6&#45;&gt;!d6</title>
<g id="a_edge14"><a xlink:title="e123">
<path fill="none" stroke="blue" d="M44.56,-62.91C40.89,-53.72 36.86,-43.65 33.59,-35.47"/>
<polygon fill="blue" stroke="blue" points="41.4,-64.43 48.36,-72.41 47.9,-61.83 41.4,-64.43"/>
</a>
</g>
</g>
</g>
</svg>
