<?xml version="1.0" encoding="UTF-8" standalone="no"?>
<!DOCTYPE svg PUBLIC "-//W3C//DTD SVG 1.1//EN"
 "http://www.w3.org/Graphics/SVG/1.1/DTD/svg11.dtd">
<!-- Generated by graphviz version 2.43.0 (0)
 -->
<!-- Title: %3 Pages: 1 -->
<svg width="455pt" height="1665pt"
 viewBox="0.00 0.00 455.00 1665.00" xmlns="http://www.w3.org/2000/svg" xmlns:xlink="http://www.w3.org/1999/xlink">
<g id="graph0" class="graph" transform="scale(1 1) rotate(0) translate(4 1661)">
<title>%3</title>
<polygon fill="white" stroke="transparent" points="-4,4 -4,-1661 451,-1661 451,4 -4,4"/>
<!-- I0 -->
<g id="node1" class="node">
<title>I0</title>
<ellipse fill="none" stroke="black" cx="186" cy="-1639" rx="27" ry="18"/>
<text text-anchor="middle" x="186" y="-1635.3" font-family="Times-Roman" font-size="14.00">I</text>
</g>
<!-- !d1 -->
<g id="node2" class="node">
<title>!d1</title>
<ellipse fill="none" stroke="black" cx="131" cy="-1552" rx="27" ry="18"/>
<text text-anchor="middle" x="131" y="-1548.3" font-family="Times-Roman" font-size="14.00">!d</text>
</g>
<!-- I0&#45;&gt;!d1 -->
<g id="edge7" class="edge">
<title>I0&#45;&gt;!d1</title>
<g id="a_edge7"><a xlink:title="iret84">
<path fill="none" stroke="blue" d="M169.99,-1613.71C167.64,-1610.12 165.25,-1606.46 163,-1603 155.6,-1591.58 147.32,-1578.64 141.04,-1568.79"/>
<polygon fill="blue" stroke="blue" points="167.24,-1615.9 175.66,-1622.34 173.09,-1612.06 167.24,-1615.9"/>
</a>
</g>
<text text-anchor="middle" x="167.5" y="-1591.8" font-family="Times-Roman" font-size="14.00">3</text>
</g>
<!-- λ2 -->
<g id="node3" class="node">
<title>λ2</title>
<ellipse fill="none" stroke="black" cx="186" cy="-1465" rx="27" ry="18"/>
<text text-anchor="middle" x="186" y="-1461.3" font-family="Times-Roman" font-size="14.00">λ</text>
</g>
<!-- !d1&#45;&gt;λ2 -->
<g id="edge6" class="edge">
<title>!d1&#45;&gt;λ2</title>
<g id="a_edge6"><a xlink:title="i81">
<path fill="none" stroke="blue" d="M146.58,-1526.52C151.78,-1518.39 157.62,-1509.29 163,-1501 167.11,-1494.65 171.68,-1487.69 175.66,-1481.65"/>
<polygon fill="blue" stroke="blue" points="143.47,-1524.89 141.04,-1535.2 149.37,-1528.65 143.47,-1524.89"/>
</a>
</g>
<text text-anchor="middle" x="167.5" y="-1504.8" font-family="Times-Roman" font-size="14.00">3</text>
</g>
<!-- λ2&#45;&gt;I0 -->
<g id="edge30" class="edge">
<title>λ2&#45;&gt;I0</title>
<g id="a_edge30"><a xlink:title="ret82">
<path fill="none" stroke="red" d="M186,-1483.05C186,-1512.88 186,-1574.76 186,-1610.64"/>
<polygon fill="red" stroke="red" points="182.5,-1610.87 186,-1620.87 189.5,-1610.87 182.5,-1610.87"/>
</a>
</g>
</g>
<!-- !p3 -->
<g id="node4" class="node">
<title>!p3</title>
<ellipse fill="none" stroke="black" cx="241" cy="-1552" rx="27" ry="18"/>
<text text-anchor="middle" x="241" y="-1548.3" font-family="Times-Roman" font-size="14.00">!p</text>
</g>
<!-- !p3&#45;&gt;λ2 -->
<g id="edge22" class="edge">
<title>!p3&#45;&gt;λ2</title>
<g id="a_edge22"><a xlink:title="newrretf78">
<path fill="none" stroke="red" d="M230.65,-1535.01C222.51,-1522.42 211.03,-1504.67 201.74,-1490.33"/>
<polygon fill="red" stroke="red" points="204.67,-1488.41 196.3,-1481.91 198.79,-1492.21 204.67,-1488.41"/>
</a>
</g>
<text text-anchor="middle" x="221.5" y="-1504.8" font-family="Times-Roman" font-size="14.00">3</text>
</g>
<!-- I4 -->
<g id="node5" class="node">
<title>I4</title>
<ellipse fill="none" stroke="black" cx="366" cy="-1378" rx="27" ry="18"/>
<text text-anchor="middle" x="366" y="-1374.3" font-family="Times-Roman" font-size="14.00">I</text>
</g>
<!-- @5 -->
<g id="node6" class="node">
<title>@5</title>
<ellipse fill="none" stroke="black" cx="272" cy="-1639" rx="27" ry="18"/>
<text text-anchor="middle" x="272" y="-1635.3" font-family="Times-Roman" font-size="14.00">@</text>
</g>
<!-- I4&#45;&gt;@5 -->
<g id="edge11" class="edge">
<title>I4&#45;&gt;@5</title>
<g id="a_edge11"><a xlink:title="lret75">
<path fill="none" stroke="blue" d="M369.6,-1405.9C373.48,-1444.5 375.91,-1516.77 349,-1570 336.37,-1594.98 310.27,-1614.9 291.97,-1626.56"/>
<polygon fill="blue" stroke="blue" points="373.08,-1405.51 368.49,-1395.96 366.12,-1406.28 373.08,-1405.51"/>
</a>
</g>
</g>
<!-- @5&#45;&gt;!p3 -->
<g id="edge17" class="edge">
<title>@5&#45;&gt;!p3</title>
<g id="a_edge17"><a xlink:title="newrret74">
<path fill="none" stroke="red" d="M265.88,-1621.2C261.5,-1609.21 255.53,-1592.85 250.54,-1579.15"/>
<polygon fill="red" stroke="red" points="253.83,-1577.95 247.11,-1569.75 247.25,-1580.35 253.83,-1577.95"/>
</a>
</g>
<text text-anchor="middle" x="263.5" y="-1591.8" font-family="Times-Roman" font-size="14.00">2</text>
</g>
<!-- !d6 -->
<g id="node7" class="node">
<title>!d6</title>
<ellipse fill="none" stroke="black" cx="313" cy="-1552" rx="27" ry="18"/>
<text text-anchor="middle" x="313" y="-1548.3" font-family="Times-Roman" font-size="14.00">!d</text>
</g>
<!-- @5&#45;&gt;!d6 -->
<g id="edge13" class="edge">
<title>@5&#45;&gt;!d6</title>
<g id="a_edge13"><a xlink:title="lval70">
<path fill="none" stroke="blue" d="M284.31,-1612.48C291.06,-1598.49 299.23,-1581.55 305.12,-1569.33"/>
<polygon fill="blue" stroke="blue" points="281.1,-1611.08 279.91,-1621.61 287.4,-1614.12 281.1,-1611.08"/>
</a>
</g>
<text text-anchor="middle" x="299.5" y="-1591.8" font-family="Times-Roman" font-size="14.00">2</text>
</g>
<!-- !p7 -->
<g id="node8" class="node">
<title>!p7</title>
<ellipse fill="none" stroke="black" cx="311" cy="-1465" rx="27" ry="18"/>
<text text-anchor="middle" x="311" y="-1461.3" font-family="Times-Roman" font-size="14.00">!p</text>
</g>
<!-- !d6&#45;&gt;!p7 -->
<g id="edge5" class="edge">
<title>!d6&#45;&gt;!p7</title>
<g id="a_edge5"><a xlink:title="hf65">
<path fill="none" stroke="blue" d="M312.36,-1523.73C312.05,-1510.41 311.68,-1494.8 311.4,-1483.17"/>
<polygon fill="blue" stroke="blue" points="308.86,-1523.88 312.6,-1533.79 315.86,-1523.71 308.86,-1523.88"/>
</a>
</g>
<text text-anchor="middle" x="316.5" y="-1504.8" font-family="Times-Roman" font-size="14.00">1</text>
</g>
<!-- !p7&#45;&gt;I4 -->
<g id="edge21" class="edge">
<title>!p7&#45;&gt;I4</title>
<g id="a_edge21"><a xlink:title="newrretf66">
<path fill="none" stroke="red" d="M321.35,-1448.01C329.49,-1435.42 340.97,-1417.67 350.26,-1403.33"/>
<polygon fill="red" stroke="red" points="353.21,-1405.21 355.7,-1394.91 347.33,-1401.41 353.21,-1405.21"/>
</a>
</g>
<text text-anchor="middle" x="345.5" y="-1417.8" font-family="Times-Roman" font-size="14.00">2</text>
</g>
<!-- Dup29 -->
<g id="node30" class="node">
<title>Dup29</title>
<ellipse fill="none" stroke="black" cx="127" cy="-1378" rx="28.7" ry="18"/>
<text text-anchor="middle" x="127" y="-1374.3" font-family="Times-Roman" font-size="14.00">Dup</text>
</g>
<!-- !p7&#45;&gt;Dup29 -->
<g id="edge4" class="edge">
<title>!p7&#45;&gt;Dup29</title>
<g id="a_edge4"><a xlink:title="h34">
<path fill="none" stroke="blue" d="M279.86,-1449.61C242.85,-1432.51 182.02,-1404.41 149.38,-1389.33"/>
<polygon fill="blue" stroke="blue" points="278.62,-1452.89 289.17,-1453.91 281.56,-1446.54 278.62,-1452.89"/>
</a>
</g>
<text text-anchor="middle" x="235.5" y="-1417.8" font-family="Times-Roman" font-size="14.00">1</text>
</g>
<!-- I8 -->
<g id="node9" class="node">
<title>I8</title>
<ellipse fill="none" stroke="black" cx="164" cy="-658" rx="27" ry="18"/>
<text text-anchor="middle" x="164" y="-654.3" font-family="Times-Roman" font-size="14.00">I</text>
</g>
<!-- Cut24 -->
<g id="node25" class="node">
<title>Cut24</title>
<ellipse fill="none" stroke="black" cx="164" cy="-585" rx="27" ry="18"/>
<text text-anchor="middle" x="164" y="-581.3" font-family="Times-Roman" font-size="14.00">Cut</text>
</g>
<!-- I8&#45;&gt;Cut24 -->
<g id="edge10" class="edge">
<title>I8&#45;&gt;Cut24</title>
<g id="a_edge10"><a xlink:title="lret62">
<path fill="none" stroke="blue" d="M164,-629.75C164,-620.77 164,-611.03 164,-603.03"/>
<polygon fill="blue" stroke="blue" points="160.5,-629.81 164,-639.81 167.5,-629.81 160.5,-629.81"/>
</a>
</g>
</g>
<!-- I9 -->
<g id="node10" class="node">
<title>I9</title>
<ellipse fill="none" stroke="black" cx="101" cy="-265" rx="27" ry="18"/>
<text text-anchor="middle" x="101" y="-261.3" font-family="Times-Roman" font-size="14.00">I</text>
</g>
<!-- !d10 -->
<g id="node11" class="node">
<title>!d10</title>
<ellipse fill="none" stroke="black" cx="143" cy="-178" rx="27" ry="18"/>
<text text-anchor="middle" x="143" y="-174.3" font-family="Times-Roman" font-size="14.00">!d</text>
</g>
<!-- I9&#45;&gt;!d10 -->
<g id="edge40" class="edge">
<title>I9&#45;&gt;!d10</title>
<g id="a_edge40"><a xlink:title="yret60">
<path fill="none" stroke="blue" d="M113.61,-238.49C120.52,-224.49 128.89,-207.56 134.93,-195.34"/>
<polygon fill="blue" stroke="blue" points="110.39,-237.1 109.1,-247.61 116.67,-240.2 110.39,-237.1"/>
</a>
</g>
<text text-anchor="middle" x="129.5" y="-217.8" font-family="Times-Roman" font-size="14.00">2</text>
</g>
<!-- !p11 -->
<g id="node12" class="node">
<title>!p11</title>
<ellipse fill="none" stroke="black" cx="164" cy="-352" rx="27" ry="18"/>
<text text-anchor="middle" x="164" y="-348.3" font-family="Times-Roman" font-size="14.00">!p</text>
</g>
<!-- !d10&#45;&gt;!p11 -->
<g id="edge38" class="edge">
<title>!d10&#45;&gt;!p11</title>
<g id="a_edge38"><a xlink:title="yBf56">
<path fill="none" stroke="blue" d="M146.33,-206.27C150.71,-242.11 158.26,-304 161.91,-333.88"/>
<polygon fill="blue" stroke="blue" points="149.77,-205.55 145.08,-196.05 142.82,-206.4 149.77,-205.55"/>
</a>
</g>
<text text-anchor="middle" x="160.5" y="-261.3" font-family="Times-Roman" font-size="14.00">1</text>
</g>
<!-- !p11&#45;&gt;I9 -->
<g id="edge20" class="edge">
<title>!p11&#45;&gt;I9</title>
<g id="a_edge20"><a xlink:title="newrretf57">
<path fill="none" stroke="red" d="M152.44,-335.41C142.94,-322.59 129.33,-304.22 118.49,-289.6"/>
<polygon fill="red" stroke="red" points="121.25,-287.44 112.48,-281.49 115.62,-291.61 121.25,-287.44"/>
</a>
</g>
<text text-anchor="middle" x="141.5" y="-304.8" font-family="Times-Roman" font-size="14.00">2</text>
</g>
<!-- !c17 -->
<g id="node18" class="node">
<title>!c17</title>
<ellipse fill="none" stroke="black" cx="256" cy="-91" rx="27" ry="18"/>
<text text-anchor="middle" x="256" y="-87.3" font-family="Times-Roman" font-size="14.00">!c</text>
</g>
<!-- !p11&#45;&gt;!c17 -->
<g id="edge37" class="edge">
<title>!p11&#45;&gt;!c17</title>
<g id="a_edge37"><a xlink:title="yB44">
<path fill="none" stroke="blue" d="M171.1,-324.34C183.22,-279.31 207.75,-190.14 220,-160 225.97,-145.31 234.15,-129.62 241.2,-117.01"/>
<polygon fill="blue" stroke="blue" points="167.72,-323.44 168.51,-334.01 174.48,-325.26 167.72,-323.44"/>
<polygon fill="blue" stroke="blue" points="249.36,-109.78 241.36,-116.73 243.28,-106.31 249.36,-109.78"/>
</a>
</g>
<text text-anchor="middle" x="206.5" y="-217.8" font-family="Times-Roman" font-size="14.00">1</text>
</g>
<!-- I12 -->
<g id="node13" class="node">
<title>I12</title>
<ellipse fill="none" stroke="black" cx="164" cy="-512" rx="27" ry="18"/>
<text text-anchor="middle" x="164" y="-508.3" font-family="Times-Roman" font-size="14.00">I</text>
</g>
<!-- @13 -->
<g id="node14" class="node">
<title>@13</title>
<ellipse fill="none" stroke="black" cx="164" cy="-439" rx="27" ry="18"/>
<text text-anchor="middle" x="164" y="-435.3" font-family="Times-Roman" font-size="14.00">@</text>
</g>
<!-- I12&#45;&gt;@13 -->
<g id="edge9" class="edge">
<title>I12&#45;&gt;@13</title>
<g id="a_edge9"><a xlink:title="lret53">
<path fill="none" stroke="blue" d="M164,-483.75C164,-474.77 164,-465.03 164,-457.03"/>
<polygon fill="blue" stroke="blue" points="160.5,-483.81 164,-493.81 167.5,-483.81 160.5,-483.81"/>
</a>
</g>
</g>
<!-- @13&#45;&gt;!p11 -->
<g id="edge15" class="edge">
<title>@13&#45;&gt;!p11</title>
<g id="a_edge15"><a xlink:title="newrret52">
<path fill="none" stroke="red" d="M164,-420.8C164,-409.16 164,-393.55 164,-380.24"/>
<polygon fill="red" stroke="red" points="167.5,-380.18 164,-370.18 160.5,-380.18 167.5,-380.18"/>
</a>
</g>
<text text-anchor="middle" x="168.5" y="-391.8" font-family="Times-Roman" font-size="14.00">1</text>
</g>
<!-- Cut16 -->
<g id="node17" class="node">
<title>Cut16</title>
<ellipse fill="none" stroke="black" cx="256" cy="-352" rx="27" ry="18"/>
<text text-anchor="middle" x="256" y="-348.3" font-family="Times-Roman" font-size="14.00">Cut</text>
</g>
<!-- @13&#45;&gt;Cut16 -->
<g id="edge12" class="edge">
<title>@13&#45;&gt;Cut16</title>
<g id="a_edge12"><a xlink:title="lval48">
<path fill="none" stroke="blue" d="M186.94,-416.8C203.76,-401.26 226.13,-380.6 240.79,-367.06"/>
<polygon fill="blue" stroke="blue" points="184.16,-414.61 179.19,-423.96 188.91,-419.75 184.16,-414.61"/>
</a>
</g>
</g>
<!-- I14 -->
<g id="node15" class="node">
<title>I14</title>
<ellipse fill="none" stroke="black" cx="256" cy="-265" rx="27" ry="18"/>
<text text-anchor="middle" x="256" y="-261.3" font-family="Times-Roman" font-size="14.00">I</text>
</g>
<!-- !d15 -->
<g id="node16" class="node">
<title>!d15</title>
<ellipse fill="none" stroke="black" cx="256" cy="-178" rx="27" ry="18"/>
<text text-anchor="middle" x="256" y="-174.3" font-family="Times-Roman" font-size="14.00">!d</text>
</g>
<!-- I14&#45;&gt;!d15 -->
<g id="edge39" class="edge">
<title>I14&#45;&gt;!d15</title>
<g id="a_edge39"><a xlink:title="yret51">
<path fill="none" stroke="blue" d="M256,-236.73C256,-223.42 256,-207.81 256,-196.18"/>
<polygon fill="blue" stroke="blue" points="252.5,-236.8 256,-246.8 259.5,-236.8 252.5,-236.8"/>
</a>
</g>
<text text-anchor="middle" x="260.5" y="-217.8" font-family="Times-Roman" font-size="14.00">1</text>
</g>
<!-- !d15&#45;&gt;!c17 -->
<g id="edge36" class="edge">
<title>!d15&#45;&gt;!c17</title>
<g id="a_edge36"><a xlink:title="yA43">
<path fill="none" stroke="blue" d="M256,-149.73C256,-136.42 256,-120.81 256,-109.18"/>
<polygon fill="blue" stroke="blue" points="252.5,-149.8 256,-159.8 259.5,-149.8 252.5,-149.8"/>
</a>
</g>
<text text-anchor="middle" x="260.5" y="-130.8" font-family="Times-Roman" font-size="14.00">1</text>
</g>
<!-- Cut16&#45;&gt;I14 -->
<g id="edge31" class="edge">
<title>Cut16&#45;&gt;I14</title>
<g id="a_edge31"><a xlink:title="rval49">
<path fill="none" stroke="red" d="M256,-333.8C256,-322.16 256,-306.55 256,-293.24"/>
<polygon fill="red" stroke="red" points="259.5,-293.18 256,-283.18 252.5,-293.18 259.5,-293.18"/>
</a>
</g>
</g>
<!-- Cut23 -->
<g id="node24" class="node">
<title>Cut23</title>
<ellipse fill="none" stroke="black" cx="311" cy="-18" rx="27" ry="18"/>
<text text-anchor="middle" x="311" y="-14.3" font-family="Times-Roman" font-size="14.00">Cut</text>
</g>
<!-- !c17&#45;&gt;Cut23 -->
<g id="edge35" class="edge">
<title>!c17&#45;&gt;Cut23</title>
<g id="a_edge35"><a xlink:title="y41">
<path fill="none" stroke="blue" d="M274.17,-66.54C282.37,-55.96 291.81,-43.77 299.09,-34.38"/>
<polygon fill="blue" stroke="blue" points="271.29,-64.55 267.93,-74.59 276.83,-68.83 271.29,-64.55"/>
</a>
</g>
</g>
<!-- I18 -->
<g id="node19" class="node">
<title>I18</title>
<ellipse fill="none" stroke="black" cx="127" cy="-1030" rx="27" ry="18"/>
<text text-anchor="middle" x="127" y="-1026.3" font-family="Times-Roman" font-size="14.00">I</text>
</g>
<!-- !d19 -->
<g id="node20" class="node">
<title>!d19</title>
<ellipse fill="none" stroke="black" cx="127" cy="-931" rx="27" ry="18"/>
<text text-anchor="middle" x="127" y="-927.3" font-family="Times-Roman" font-size="14.00">!d</text>
</g>
<!-- I18&#45;&gt;!d19 -->
<g id="edge34" class="edge">
<title>I18&#45;&gt;!d19</title>
<g id="a_edge34"><a xlink:title="xret26">
<path fill="none" stroke="blue" d="M127,-1001.32C127,-984.53 127,-963.63 127,-949.19"/>
<polygon fill="blue" stroke="blue" points="123.5,-1001.65 127,-1011.65 130.5,-1001.65 123.5,-1001.65"/>
</a>
</g>
<text text-anchor="middle" x="131.5" y="-982.8" font-family="Times-Roman" font-size="14.00">1</text>
</g>
<!-- !p20 -->
<g id="node21" class="node">
<title>!p20</title>
<ellipse fill="none" stroke="black" cx="127" cy="-1117" rx="27" ry="18"/>
<text text-anchor="middle" x="127" y="-1113.3" font-family="Times-Roman" font-size="14.00">!p</text>
</g>
<!-- !d19&#45;&gt;!p20 -->
<g id="edge33" class="edge">
<title>!d19&#45;&gt;!p20</title>
<g id="a_edge33"><a xlink:title="xBf22">
<path fill="none" stroke="blue" d="M142.71,-956.46C155.74,-979.77 170.95,-1015.98 163,-1048 158.2,-1067.31 146.79,-1087.18 138.1,-1100.41"/>
<polygon fill="blue" stroke="blue" points="145.59,-954.45 137.51,-947.6 139.55,-957.99 145.59,-954.45"/>
</a>
</g>
<text text-anchor="middle" x="170.5" y="-1026.3" font-family="Times-Roman" font-size="14.00">0</text>
</g>
<!-- !p20&#45;&gt;I18 -->
<g id="edge19" class="edge">
<title>!p20&#45;&gt;I18</title>
<g id="a_edge19"><a xlink:title="newrretf23">
<path fill="none" stroke="red" d="M127,-1098.79C127,-1087.16 127,-1071.54 127,-1058.23"/>
<polygon fill="red" stroke="red" points="130.5,-1058.17 127,-1048.17 123.5,-1058.17 130.5,-1058.17"/>
</a>
</g>
<text text-anchor="middle" x="131.5" y="-1069.8" font-family="Times-Roman" font-size="14.00">1</text>
</g>
<!-- Cut26 -->
<g id="node27" class="node">
<title>Cut26</title>
<ellipse fill="none" stroke="black" cx="55" cy="-1030" rx="27" ry="18"/>
<text text-anchor="middle" x="55" y="-1026.3" font-family="Times-Roman" font-size="14.00">Cut</text>
</g>
<!-- !p20&#45;&gt;Cut26 -->
<g id="edge32" class="edge">
<title>!p20&#45;&gt;Cut26</title>
<g id="a_edge32"><a xlink:title="xB10">
<path fill="none" stroke="blue" d="M107.52,-1093C94.89,-1078.08 78.78,-1059.07 67.76,-1046.06"/>
<polygon fill="blue" stroke="blue" points="104.99,-1095.43 114.13,-1100.8 110.34,-1090.91 104.99,-1095.43"/>
</a>
</g>
<text text-anchor="middle" x="100.5" y="-1069.8" font-family="Times-Roman" font-size="14.00">0</text>
</g>
<!-- I21 -->
<g id="node22" class="node">
<title>I21</title>
<ellipse fill="none" stroke="black" cx="244" cy="-1030" rx="27" ry="18"/>
<text text-anchor="middle" x="244" y="-1026.3" font-family="Times-Roman" font-size="14.00">I</text>
</g>
<!-- Cut35 -->
<g id="node36" class="node">
<title>Cut35</title>
<ellipse fill="none" stroke="black" cx="202" cy="-931" rx="26" ry="26"/>
<ellipse fill="none" stroke="black" cx="202" cy="-931" rx="30" ry="30"/>
<text text-anchor="middle" x="202" y="-927.3" font-family="Times-Roman" font-size="14.00">Cut</text>
</g>
<!-- I21&#45;&gt;Cut35 -->
<g id="edge8" class="edge">
<title>I21&#45;&gt;Cut35</title>
<g id="a_edge8"><a xlink:title="lret19">
<path fill="none" stroke="blue" stroke-width="2" d="M232.83,-1003.2C226.9,-989.49 219.61,-972.66 213.61,-958.81"/>
<polygon fill="blue" stroke="blue" stroke-width="2" points="229.69,-1004.76 236.88,-1012.54 236.11,-1001.97 229.69,-1004.76"/>
</a>
</g>
</g>
<!-- Assign22 -->
<g id="node23" class="node">
<title>Assign22</title>
<ellipse fill="none" stroke="black" cx="244" cy="-1117" rx="38.99" ry="18"/>
<text text-anchor="middle" x="244" y="-1113.3" font-family="Times-Roman" font-size="14.00">Assign</text>
</g>
<!-- Assign22&#45;&gt;I21 -->
<g id="edge29" class="edge">
<title>Assign22&#45;&gt;I21</title>
<g id="a_edge29"><a xlink:title="ret8">
<path fill="none" stroke="red" stroke-width="2" d="M244,-1098.79C244,-1087.16 244,-1071.54 244,-1058.23"/>
<polygon fill="red" stroke="red" stroke-width="2" points="247.5,-1058.17 244,-1048.17 240.5,-1058.17 247.5,-1058.17"/>
</a>
</g>
</g>
<!-- Cut23&#45;&gt;!p7 -->
<g id="edge16" class="edge">
<title>Cut23&#45;&gt;!p7</title>
<g id="a_edge16"><a xlink:title="newrret61">
<path fill="none" stroke="red" d="M311,-36.22C311,-50.59 311,-71.63 311,-90 311,-1379 311,-1379 311,-1379 311,-1398.24 311,-1419.94 311,-1436.6"/>
<polygon fill="red" stroke="red" points="307.5,-1436.74 311,-1446.74 314.5,-1436.74 307.5,-1436.74"/>
</a>
</g>
<text text-anchor="middle" x="315.5" y="-697.8" font-family="Times-Roman" font-size="14.00">1</text>
</g>
<!-- Cut24&#45;&gt;I12 -->
<g id="edge28" class="edge">
<title>Cut24&#45;&gt;I12</title>
<g id="a_edge28"><a xlink:title="ret42">
<path fill="none" stroke="red" d="M164,-566.81C164,-558.79 164,-549.05 164,-540.07"/>
<polygon fill="red" stroke="red" points="167.5,-540.03 164,-530.03 160.5,-540.03 167.5,-540.03"/>
</a>
</g>
</g>
<!-- !p25 -->
<g id="node26" class="node">
<title>!p25</title>
<ellipse fill="none" stroke="black" cx="55" cy="-931" rx="27" ry="18"/>
<text text-anchor="middle" x="55" y="-927.3" font-family="Times-Roman" font-size="14.00">!p</text>
</g>
<!-- λ27 -->
<g id="node28" class="node">
<title>λ27</title>
<ellipse fill="none" stroke="black" cx="55" cy="-832" rx="27" ry="18"/>
<text text-anchor="middle" x="55" y="-828.3" font-family="Times-Roman" font-size="14.00">λ</text>
</g>
<!-- !p25&#45;&gt;λ27 -->
<g id="edge23" class="edge">
<title>!p25&#45;&gt;λ27</title>
<g id="a_edge23"><a xlink:title="newrretf92">
<path fill="none" stroke="red" d="M55,-912.66C55,-898.17 55,-877.26 55,-860.5"/>
<polygon fill="red" stroke="red" points="58.5,-860.19 55,-850.19 51.5,-860.19 58.5,-860.19"/>
</a>
</g>
<text text-anchor="middle" x="59.5" y="-871.8" font-family="Times-Roman" font-size="14.00">1</text>
</g>
<!-- Cut26&#45;&gt;!p25 -->
<g id="edge18" class="edge">
<title>Cut26&#45;&gt;!p25</title>
<g id="a_edge18"><a xlink:title="newrret94">
<path fill="none" stroke="red" d="M55,-1011.65C55,-997.17 55,-976.26 55,-959.5"/>
<polygon fill="red" stroke="red" points="58.5,-959.19 55,-949.19 51.5,-959.19 58.5,-959.19"/>
</a>
</g>
<text text-anchor="middle" x="59.5" y="-982.8" font-family="Times-Roman" font-size="14.00">0</text>
</g>
<!-- Dup30 -->
<g id="node31" class="node">
<title>Dup30</title>
<ellipse fill="none" stroke="black" cx="164" cy="-745" rx="28.7" ry="18"/>
<text text-anchor="middle" x="164" y="-741.3" font-family="Times-Roman" font-size="14.00">Dup</text>
</g>
<!-- λ27&#45;&gt;Dup30 -->
<g id="edge25" class="edge">
<title>λ27&#45;&gt;Dup30</title>
<g id="a_edge25"><a xlink:title="ret106">
<path fill="none" stroke="red" d="M72.03,-817.72C89.92,-803.77 118.26,-781.67 138.75,-765.69"/>
<polygon fill="none" stroke="red" points="141,-768.38 146.73,-759.47 136.69,-762.86 141,-768.38"/>
</a>
</g>
<text text-anchor="middle" x="121.5" y="-784.8" font-family="Times-Roman" font-size="14.00">1</text>
</g>
<!-- Dup28 -->
<g id="node29" class="node">
<title>Dup28</title>
<ellipse fill="none" stroke="black" cx="346" cy="-1639" rx="28.7" ry="18"/>
<text text-anchor="middle" x="346" y="-1635.3" font-family="Times-Roman" font-size="14.00">Dup</text>
</g>
<!-- Dup29&#45;&gt;λ27 -->
<g id="edge2" class="edge">
<title>Dup29&#45;&gt;λ27</title>
<g id="a_edge2"><a xlink:title="h105">
<path fill="none" stroke="blue" d="M89.95,-1368.91C52.46,-1358.3 0,-1335.65 0,-1292 0,-1292 0,-1292 0,-930 0,-897.09 24.25,-865.11 40.55,-847.34"/>
<polygon fill="none" stroke="blue" points="89.5,-1372.42 100.07,-1371.6 91.3,-1365.65 89.5,-1372.42"/>
</a>
</g>
<text text-anchor="middle" x="4.5" y="-1113.3" font-family="Times-Roman" font-size="14.00">1</text>
</g>
<!-- Lift32 -->
<g id="node33" class="node">
<title>Lift32</title>
<ellipse fill="none" stroke="black" cx="127" cy="-1291" rx="27" ry="18"/>
<text text-anchor="middle" x="127" y="-1287.3" font-family="Times-Roman" font-size="14.00">Lift</text>
</g>
<!-- Dup29&#45;&gt;Lift32 -->
<g id="edge1" class="edge">
<title>Dup29&#45;&gt;Lift32</title>
<g id="a_edge1"><a xlink:title="h101">
<path fill="none" stroke="blue" d="M127,-1349.73C127,-1336.41 127,-1320.8 127,-1309.17"/>
<polygon fill="blue" stroke="blue" points="123.5,-1349.79 127,-1359.79 130.5,-1349.79 123.5,-1349.79"/>
</a>
</g>
<text text-anchor="middle" x="131.5" y="-1330.8" font-family="Times-Roman" font-size="14.00">1</text>
</g>
<!-- Dup30&#45;&gt;I8 -->
<g id="edge27" class="edge">
<title>Dup30&#45;&gt;I8</title>
<g id="a_edge27"><a xlink:title="ret35">
<path fill="none" stroke="red" d="M164,-726.8C164,-715.16 164,-699.55 164,-686.24"/>
<polygon fill="red" stroke="red" points="167.5,-686.18 164,-676.18 160.5,-686.18 167.5,-686.18"/>
</a>
</g>
<text text-anchor="middle" x="168.5" y="-697.8" font-family="Times-Roman" font-size="14.00">1</text>
</g>
<!-- Lift31 -->
<g id="node32" class="node">
<title>Lift31</title>
<ellipse fill="none" stroke="black" cx="420" cy="-1639" rx="27" ry="18"/>
<text text-anchor="middle" x="420" y="-1635.3" font-family="Times-Roman" font-size="14.00">Lift</text>
</g>
<!-- Cut34 -->
<g id="node35" class="node">
<title>Cut34</title>
<ellipse fill="none" stroke="black" cx="127" cy="-1204" rx="27" ry="18"/>
<text text-anchor="middle" x="127" y="-1200.3" font-family="Times-Roman" font-size="14.00">Cut</text>
</g>
<!-- Lift32&#45;&gt;Cut34 -->
<g id="edge3" class="edge">
<title>Lift32&#45;&gt;Cut34</title>
<g id="a_edge3"><a xlink:title="h109">
<path fill="none" stroke="blue" d="M127,-1262.73C127,-1249.41 127,-1233.8 127,-1222.17"/>
<polygon fill="blue" stroke="blue" points="123.5,-1262.79 127,-1272.79 130.5,-1262.79 123.5,-1262.79"/>
</a>
</g>
<text text-anchor="middle" x="131.5" y="-1243.8" font-family="Times-Roman" font-size="14.00">0</text>
</g>
<!-- Lift33 -->
<g id="node34" class="node">
<title>Lift33</title>
<ellipse fill="none" stroke="black" cx="182" cy="-832" rx="27" ry="18"/>
<text text-anchor="middle" x="182" y="-828.3" font-family="Times-Roman" font-size="14.00">Lift</text>
</g>
<!-- Lift33&#45;&gt;Dup30 -->
<g id="edge24" class="edge">
<title>Lift33&#45;&gt;Dup30</title>
<g id="a_edge24"><a xlink:title="ret102">
<path fill="none" stroke="red" d="M178.36,-813.8C175.88,-802.09 172.54,-786.34 169.71,-772.97"/>
<polygon fill="red" stroke="red" points="173.07,-771.94 167.58,-762.89 166.22,-773.39 173.07,-771.94"/>
</a>
</g>
<text text-anchor="middle" x="179.5" y="-784.8" font-family="Times-Roman" font-size="14.00">1</text>
</g>
<!-- Cut34&#45;&gt;!p20 -->
<g id="edge14" class="edge">
<title>Cut34&#45;&gt;!p20</title>
<g id="a_edge14"><a xlink:title="newrret18">
<path fill="none" stroke="red" d="M127,-1185.79C127,-1174.16 127,-1158.54 127,-1145.23"/>
<polygon fill="red" stroke="red" points="130.5,-1145.17 127,-1135.17 123.5,-1145.17 130.5,-1145.17"/>
</a>
</g>
<text text-anchor="middle" x="131.5" y="-1156.8" font-family="Times-Roman" font-size="14.00">0</text>
</g>
<!-- Cut35&#45;&gt;Lift33 -->
<g id="edge26" class="edge">
<title>Cut35&#45;&gt;Lift33</title>
<g id="a_edge26"><a xlink:title="ret110">
<path fill="none" stroke="red" d="M196.11,-901.42C193.41,-888.32 190.22,-872.88 187.56,-859.98"/>
<polygon fill="red" stroke="red" points="190.92,-858.94 185.48,-849.85 184.07,-860.35 190.92,-858.94"/>
</a>
</g>
<text text-anchor="middle" x="196.5" y="-871.8" font-family="Times-Roman" font-size="14.00">0</text>
</g>
</g>
</svg>
