<?xml version="1.0" encoding="UTF-8" standalone="no"?>
<!DOCTYPE svg PUBLIC "-//W3C//DTD SVG 1.1//EN"
 "http://www.w3.org/Graphics/SVG/1.1/DTD/svg11.dtd">
<!-- Generated by graphviz version 2.49.3 (0)
 -->
<!-- Pages: 1 -->
<svg width="559pt" height="999pt"
 viewBox="0.00 0.00 558.69 998.80" xmlns="http://www.w3.org/2000/svg" xmlns:xlink="http://www.w3.org/1999/xlink">
<g id="graph0" class="graph" transform="scale(1 1) rotate(0) translate(4 994.8)">
<polygon fill="white" stroke="transparent" points="-4,4 -4,-994.8 554.69,-994.8 554.69,4 -4,4"/>
<!-- Identity0 -->
<g id="node1" class="node">
<title>Identity0</title>
<ellipse fill="none" stroke="black" cx="38.35" cy="-972.8" rx="38.19" ry="18"/>
<text text-anchor="middle" x="38.35" y="-969.1" font-family="Times,serif" font-size="14.00">Identity</text>
</g>
<!-- BangD1 -->
<g id="node2" class="node">
<title>BangD1</title>
<ellipse fill="none" stroke="black" cx="38.35" cy="-900.8" rx="36" ry="18"/>
<text text-anchor="middle" x="38.35" y="-897.1" font-family="Times,serif" font-size="14.00">BangD</text>
</g>
<!-- BangD1&#45;&gt;Identity0 -->
<g id="edge28" class="edge">
<title>BangD1&#45;&gt;Identity0</title>
<g id="a_edge28"><a xlink:title="iret84">
<path fill="none" stroke="blue" d="M32.47,-918.74C31.64,-926.57 31.4,-936.05 31.76,-944.82"/>
<polygon fill="blue" stroke="blue" points="28.28,-945.28 32.49,-955.01 35.26,-944.78 28.28,-945.28"/>
</a>
</g>
</g>
<!-- BangD1&#45;&gt;Identity0 -->
<g id="edge29" class="edge">
<title>BangD1&#45;&gt;Identity0</title>
<g id="a_edge29"><a xlink:title="iseq83">
<path fill="none" stroke="black" d="M44.22,-918.74C45.06,-926.57 45.29,-936.05 44.94,-944.82"/>
<polygon fill="black" stroke="black" points="41.43,-944.78 44.21,-955.01 48.41,-945.28 41.43,-944.78"/>
</a>
</g>
</g>
<!-- PiR2 -->
<g id="node3" class="node">
<title>PiR2</title>
<ellipse fill="none" stroke="black" cx="38.35" cy="-828.8" rx="27" ry="18"/>
<text text-anchor="middle" x="38.35" y="-825.1" font-family="Times,serif" font-size="14.00">PiR</text>
</g>
<!-- PiR2&#45;&gt;Identity0 -->
<g id="edge54" class="edge">
<title>PiR2&#45;&gt;Identity0</title>
<g id="a_edge54"><a xlink:title="ret82">
<path fill="none" stroke="red" d="M54.55,-843.23C64.98,-852.98 77.6,-867.16 83.35,-882.8 88.86,-897.81 88.86,-903.78 83.35,-918.8 79.2,-930.07 71.48,-940.59 63.59,-949.24"/>
<polygon fill="red" stroke="red" points="60.86,-947.02 56.39,-956.62 65.88,-951.91 60.86,-947.02"/>
</a>
</g>
</g>
<!-- PiR2&#45;&gt;BangD1 -->
<g id="edge22" class="edge">
<title>PiR2&#45;&gt;BangD1</title>
<g id="a_edge22"><a xlink:title="i81">
<path fill="none" stroke="blue" d="M32.51,-846.38C31.64,-854.29 31.39,-863.94 31.76,-872.86"/>
<polygon fill="blue" stroke="blue" points="28.27,-873.11 32.47,-882.84 35.25,-872.62 28.27,-873.11"/>
</a>
</g>
</g>
<!-- PiR2&#45;&gt;BangD1 -->
<g id="edge65" class="edge">
<title>PiR2&#45;&gt;BangD1</title>
<g id="a_edge65"><a xlink:title="seq80">
<path fill="none" stroke="black" d="M44.19,-846.38C45.05,-854.29 45.3,-863.94 44.93,-872.86"/>
<polygon fill="black" stroke="black" points="41.44,-872.62 44.23,-882.84 48.43,-873.11 41.44,-872.62"/>
</a>
</g>
</g>
<!-- Bang3 -->
<g id="node4" class="node">
<title>Bang3</title>
<ellipse fill="none" stroke="black" cx="38.35" cy="-756.8" rx="29.5" ry="18"/>
<text text-anchor="middle" x="38.35" y="-753.1" font-family="Times,serif" font-size="14.00">Bang</text>
</g>
<!-- Bang3&#45;&gt;PiR2 -->
<g id="edge5" class="edge">
<title>Bang3&#45;&gt;PiR2</title>
<g id="a_edge5"><a xlink:title="c_bseq79">
<path fill="none" stroke="black" d="M32.47,-774.74C31.64,-782.57 31.4,-792.05 31.76,-800.82"/>
<polygon fill="black" stroke="black" points="28.28,-801.28 32.49,-811.01 35.26,-800.78 28.28,-801.28"/>
</a>
</g>
</g>
<!-- Bang3&#45;&gt;PiR2 -->
<g id="edge49" class="edge">
<title>Bang3&#45;&gt;PiR2</title>
<g id="a_edge49"><a xlink:title="newrretf78">
<path fill="none" stroke="red" d="M44.22,-774.74C45.06,-782.57 45.29,-792.05 44.94,-800.82"/>
<polygon fill="red" stroke="red" points="41.43,-800.78 44.21,-811.01 48.41,-801.28 41.43,-800.78"/>
</a>
</g>
</g>
<!-- Identity4 -->
<g id="node5" class="node">
<title>Identity4</title>
<ellipse fill="none" stroke="black" cx="124.35" cy="-756.8" rx="38.19" ry="18"/>
<text text-anchor="middle" x="124.35" y="-753.1" font-family="Times,serif" font-size="14.00">Identity</text>
</g>
<!-- PiL5 -->
<g id="node6" class="node">
<title>PiL5</title>
<ellipse fill="none" stroke="black" cx="60.35" cy="-684.8" rx="27" ry="18"/>
<text text-anchor="middle" x="60.35" y="-681.1" font-family="Times,serif" font-size="14.00">PiL</text>
</g>
<!-- PiL5&#45;&gt;Bang3 -->
<g id="edge18" class="edge">
<title>PiL5&#45;&gt;Bang3</title>
<g id="a_edge18"><a xlink:title="dseq76">
<path fill="none" stroke="black" d="M49.59,-701.68C46.17,-709.65 42.79,-719.53 40.28,-728.66"/>
<polygon fill="black" stroke="black" points="36.85,-727.96 37.87,-738.5 43.65,-729.62 36.85,-727.96"/>
</a>
</g>
</g>
<!-- PiL5&#45;&gt;Bang3 -->
<g id="edge44" class="edge">
<title>PiL5&#45;&gt;Bang3</title>
<g id="a_edge44"><a xlink:title="newrret74">
<path fill="none" stroke="red" d="M60.82,-703.1C59.09,-711.31 56.16,-721.27 52.88,-730.32"/>
<polygon fill="red" stroke="red" points="49.61,-729.06 49.21,-739.65 56.12,-731.62 49.61,-729.06"/>
</a>
</g>
</g>
<!-- PiL5&#45;&gt;Identity4 -->
<g id="edge27" class="edge">
<title>PiL5&#45;&gt;Identity4</title>
<g id="a_edge27"><a xlink:title="idseq77">
<path fill="none" stroke="black" d="M75.98,-709.95C82.64,-717.72 90.51,-726.27 97.99,-733.87"/>
<polygon fill="black" stroke="black" points="72.08,-699.79 75.78,-709.72 66.7,-704.27 72.08,-699.79"/>
<polygon fill="black" stroke="black" points="95.7,-736.53 105.27,-741.08 100.63,-731.56 95.7,-736.53"/>
</a>
</g>
</g>
<!-- PiL5&#45;&gt;Identity4 -->
<g id="edge34" class="edge">
<title>PiL5&#45;&gt;Identity4</title>
<g id="a_edge34"><a xlink:title="lret75">
<path fill="none" stroke="blue" d="M77.8,-698.96C87.4,-708.05 99.06,-720.41 108.41,-731.28"/>
<polygon fill="blue" stroke="blue" points="105.94,-733.79 115.04,-739.23 111.32,-729.31 105.94,-733.79"/>
</a>
</g>
</g>
<!-- BangD6 -->
<g id="node7" class="node">
<title>BangD6</title>
<ellipse fill="none" stroke="black" cx="60.35" cy="-612.8" rx="36" ry="18"/>
<text text-anchor="middle" x="60.35" y="-609.1" font-family="Times,serif" font-size="14.00">BangD</text>
</g>
<!-- BangD6&#45;&gt;PiL5 -->
<g id="edge21" class="edge">
<title>BangD6&#45;&gt;PiL5</title>
<g id="a_edge21"><a xlink:title="hseq72">
<path fill="none" stroke="black" d="M54.47,-630.74C53.64,-638.57 53.4,-648.05 53.76,-656.82"/>
<polygon fill="black" stroke="black" points="50.28,-657.28 54.49,-667.01 57.26,-656.78 50.28,-657.28"/>
</a>
</g>
</g>
<!-- BangD6&#45;&gt;PiL5 -->
<g id="edge39" class="edge">
<title>BangD6&#45;&gt;PiL5</title>
<g id="a_edge39"><a xlink:title="lval70">
<path fill="none" stroke="blue" d="M66.22,-630.74C67.06,-638.57 67.29,-648.05 66.94,-656.82"/>
<polygon fill="blue" stroke="blue" points="63.43,-656.78 66.21,-667.01 70.41,-657.28 63.43,-656.78"/>
</a>
</g>
</g>
<!-- Bang7 -->
<g id="node8" class="node">
<title>Bang7</title>
<ellipse fill="none" stroke="black" cx="60.35" cy="-540.8" rx="29.5" ry="18"/>
<text text-anchor="middle" x="60.35" y="-537.1" font-family="Times,serif" font-size="14.00">Bang</text>
</g>
<!-- Bang7&#45;&gt;Identity4 -->
<g id="edge48" class="edge">
<title>Bang7&#45;&gt;Identity4</title>
<g id="a_edge48"><a xlink:title="newrretf66">
<path fill="none" stroke="red" d="M76.42,-555.89C86.5,-565.73 98.79,-579.74 105.35,-594.8 124.43,-638.61 126.56,-695.14 125.82,-728.23"/>
<polygon fill="red" stroke="red" points="122.32,-728.4 125.49,-738.51 129.31,-728.63 122.32,-728.4"/>
</a>
</g>
</g>
<!-- Bang7&#45;&gt;BangD6 -->
<g id="edge4" class="edge">
<title>Bang7&#45;&gt;BangD6</title>
<g id="a_edge4"><a xlink:title="c_bseq67">
<path fill="none" stroke="black" d="M54.47,-558.74C53.64,-566.57 53.4,-576.05 53.76,-584.82"/>
<polygon fill="black" stroke="black" points="50.28,-585.28 54.49,-595.01 57.26,-584.78 50.28,-585.28"/>
</a>
</g>
</g>
<!-- Bang7&#45;&gt;BangD6 -->
<g id="edge20" class="edge">
<title>Bang7&#45;&gt;BangD6</title>
<g id="a_edge20"><a xlink:title="hf65">
<path fill="none" stroke="blue" d="M66.22,-558.74C67.06,-566.57 67.29,-576.05 66.94,-584.82"/>
<polygon fill="blue" stroke="blue" points="63.43,-584.78 66.21,-595.01 70.41,-585.28 63.43,-584.78"/>
</a>
</g>
</g>
<!-- Identity8 -->
<g id="node9" class="node">
<title>Identity8</title>
<ellipse fill="none" stroke="black" cx="146.35" cy="-540.8" rx="38.19" ry="18"/>
<text text-anchor="middle" x="146.35" y="-537.1" font-family="Times,serif" font-size="14.00">Identity</text>
</g>
<!-- PiL9 -->
<g id="node10" class="node">
<title>PiL9</title>
<ellipse fill="none" stroke="black" cx="146.35" cy="-468.8" rx="27" ry="18"/>
<text text-anchor="middle" x="146.35" y="-465.1" font-family="Times,serif" font-size="14.00">PiL</text>
</g>
<!-- PiL9&#45;&gt;Bang7 -->
<g id="edge17" class="edge">
<title>PiL9&#45;&gt;Bang7</title>
<g id="a_edge17"><a xlink:title="dseq63">
<path fill="none" stroke="black" d="M126.98,-481.35C113.25,-491.22 95.09,-505.69 81.09,-517.76"/>
<polygon fill="black" stroke="black" points="78.59,-515.31 73.4,-524.54 83.22,-520.56 78.59,-515.31"/>
</a>
</g>
</g>
<!-- PiL9&#45;&gt;Bang7 -->
<g id="edge43" class="edge">
<title>PiL9&#45;&gt;Bang7</title>
<g id="a_edge43"><a xlink:title="newrret61">
<path fill="none" stroke="red" d="M133.36,-484.98C121.42,-495.77 103.67,-510.31 88.58,-521.7"/>
<polygon fill="red" stroke="red" points="86.47,-518.9 80.52,-527.66 90.64,-524.53 86.47,-518.9"/>
</a>
</g>
</g>
<!-- PiL9&#45;&gt;Identity8 -->
<g id="edge26" class="edge">
<title>PiL9&#45;&gt;Identity8</title>
<g id="a_edge26"><a xlink:title="idseq64">
<path fill="none" stroke="black" d="M139.76,-496.61C139.55,-501.84 139.54,-507.33 139.75,-512.58"/>
<polygon fill="black" stroke="black" points="144,-486.64 139.78,-496.36 137.02,-486.13 144,-486.64"/>
<polygon fill="black" stroke="black" points="136.28,-513.11 140.47,-522.84 143.26,-512.62 136.28,-513.11"/>
</a>
</g>
</g>
<!-- PiL9&#45;&gt;Identity8 -->
<g id="edge33" class="edge">
<title>PiL9&#45;&gt;Identity8</title>
<g id="a_edge33"><a xlink:title="lret62">
<path fill="none" stroke="blue" d="M152.19,-486.38C153.05,-494.29 153.3,-503.94 152.93,-512.86"/>
<polygon fill="blue" stroke="blue" points="149.44,-512.62 152.23,-522.84 156.43,-513.11 149.44,-512.62"/>
</a>
</g>
</g>
<!-- Identity10 -->
<g id="node11" class="node">
<title>Identity10</title>
<ellipse fill="none" stroke="black" cx="314.35" cy="-900.8" rx="38.19" ry="18"/>
<text text-anchor="middle" x="314.35" y="-897.1" font-family="Times,serif" font-size="14.00">Identity</text>
</g>
<!-- BangD11 -->
<g id="node12" class="node">
<title>BangD11</title>
<ellipse fill="none" stroke="black" cx="314.35" cy="-828.8" rx="36" ry="18"/>
<text text-anchor="middle" x="314.35" y="-825.1" font-family="Times,serif" font-size="14.00">BangD</text>
</g>
<!-- BangD11&#45;&gt;Identity10 -->
<g id="edge79" class="edge">
<title>BangD11&#45;&gt;Identity10</title>
<g id="a_edge79"><a xlink:title="yret60">
<path fill="none" stroke="blue" d="M308.47,-846.74C307.64,-854.57 307.4,-864.05 307.76,-872.82"/>
<polygon fill="blue" stroke="blue" points="304.28,-873.28 308.49,-883.01 311.26,-872.78 304.28,-873.28"/>
</a>
</g>
</g>
<!-- BangD11&#45;&gt;Identity10 -->
<g id="edge81" class="edge">
<title>BangD11&#45;&gt;Identity10</title>
<g id="a_edge81"><a xlink:title="yseq59">
<path fill="none" stroke="black" d="M320.22,-846.74C321.06,-854.57 321.29,-864.05 320.94,-872.82"/>
<polygon fill="black" stroke="black" points="317.43,-872.78 320.21,-883.01 324.41,-873.28 317.43,-872.78"/>
</a>
</g>
</g>
<!-- Bang12 -->
<g id="node13" class="node">
<title>Bang12</title>
<ellipse fill="none" stroke="black" cx="314.35" cy="-756.8" rx="29.5" ry="18"/>
<text text-anchor="middle" x="314.35" y="-753.1" font-family="Times,serif" font-size="14.00">Bang</text>
</g>
<!-- Bang12&#45;&gt;Identity10 -->
<g id="edge47" class="edge">
<title>Bang12&#45;&gt;Identity10</title>
<g id="a_edge47"><a xlink:title="newrretf57">
<path fill="none" stroke="red" d="M331.01,-771.66C341.34,-781.39 353.69,-795.39 359.35,-810.8 364.86,-825.81 364.86,-831.78 359.35,-846.8 355.2,-858.07 347.48,-868.59 339.59,-877.24"/>
<polygon fill="red" stroke="red" points="336.86,-875.02 332.39,-884.62 341.88,-879.91 336.86,-875.02"/>
</a>
</g>
</g>
<!-- Bang12&#45;&gt;BangD11 -->
<g id="edge3" class="edge">
<title>Bang12&#45;&gt;BangD11</title>
<g id="a_edge3"><a xlink:title="c_bseq58">
<path fill="none" stroke="black" d="M308.47,-774.74C307.64,-782.57 307.4,-792.05 307.76,-800.82"/>
<polygon fill="black" stroke="black" points="304.28,-801.28 308.49,-811.01 311.26,-800.78 304.28,-801.28"/>
</a>
</g>
</g>
<!-- Bang12&#45;&gt;BangD11 -->
<g id="edge77" class="edge">
<title>Bang12&#45;&gt;BangD11</title>
<g id="a_edge77"><a xlink:title="yBf56">
<path fill="none" stroke="blue" d="M320.22,-774.74C321.06,-782.57 321.29,-792.05 320.94,-800.82"/>
<polygon fill="blue" stroke="blue" points="317.43,-800.78 320.21,-811.01 324.41,-801.28 317.43,-800.78"/>
</a>
</g>
</g>
<!-- Identity13 -->
<g id="node14" class="node">
<title>Identity13</title>
<ellipse fill="none" stroke="black" cx="228.35" cy="-756.8" rx="38.19" ry="18"/>
<text text-anchor="middle" x="228.35" y="-753.1" font-family="Times,serif" font-size="14.00">Identity</text>
</g>
<!-- PiL14 -->
<g id="node15" class="node">
<title>PiL14</title>
<ellipse fill="none" stroke="black" cx="267.35" cy="-684.8" rx="27" ry="18"/>
<text text-anchor="middle" x="267.35" y="-681.1" font-family="Times,serif" font-size="14.00">PiL</text>
</g>
<!-- PiL14&#45;&gt;Bang12 -->
<g id="edge16" class="edge">
<title>PiL14&#45;&gt;Bang12</title>
<g id="a_edge16"><a xlink:title="dseq54">
<path fill="none" stroke="black" d="M272.85,-702.74C278.01,-711.88 285.5,-723.28 292.79,-733.17"/>
<polygon fill="black" stroke="black" points="290.22,-735.56 299.08,-741.37 295.78,-731.3 290.22,-735.56"/>
</a>
</g>
</g>
<!-- PiL14&#45;&gt;Bang12 -->
<g id="edge42" class="edge">
<title>PiL14&#45;&gt;Bang12</title>
<g id="a_edge42"><a xlink:title="newrret52">
<path fill="none" stroke="red" d="M282.41,-699.96C289.41,-708.67 297.4,-720.1 303.78,-730.34"/>
<polygon fill="red" stroke="red" points="300.77,-732.14 308.9,-738.94 306.79,-728.55 300.77,-732.14"/>
</a>
</g>
</g>
<!-- PiL14&#45;&gt;Identity13 -->
<g id="edge25" class="edge">
<title>PiL14&#45;&gt;Identity13</title>
<g id="a_edge25"><a xlink:title="idseq55">
<path fill="none" stroke="black" d="M247.98,-709.07C243.95,-715.59 239.92,-722.72 236.49,-729.4"/>
<polygon fill="black" stroke="black" points="256.38,-702.54 248,-709.03 250.5,-698.74 256.38,-702.54"/>
<polygon fill="black" stroke="black" points="233.16,-728.23 231.95,-738.76 239.46,-731.28 233.16,-728.23"/>
</a>
</g>
</g>
<!-- PiL14&#45;&gt;Identity13 -->
<g id="edge32" class="edge">
<title>PiL14&#45;&gt;Identity13</title>
<g id="a_edge32"><a xlink:title="lret53">
<path fill="none" stroke="blue" d="M263.78,-702.74C259.91,-711.33 254.21,-721.91 248.43,-731.36"/>
<polygon fill="blue" stroke="blue" points="245.36,-729.66 242.92,-739.97 251.26,-733.43 245.36,-729.66"/>
</a>
</g>
</g>
<!-- Identity15 -->
<g id="node16" class="node">
<title>Identity15</title>
<ellipse fill="none" stroke="black" cx="424.35" cy="-756.8" rx="38.19" ry="18"/>
<text text-anchor="middle" x="424.35" y="-753.1" font-family="Times,serif" font-size="14.00">Identity</text>
</g>
<!-- BangD16 -->
<g id="node17" class="node">
<title>BangD16</title>
<ellipse fill="none" stroke="black" cx="424.35" cy="-684.8" rx="36" ry="18"/>
<text text-anchor="middle" x="424.35" y="-681.1" font-family="Times,serif" font-size="14.00">BangD</text>
</g>
<!-- BangD16&#45;&gt;Identity15 -->
<g id="edge78" class="edge">
<title>BangD16&#45;&gt;Identity15</title>
<g id="a_edge78"><a xlink:title="yret51">
<path fill="none" stroke="blue" d="M418.47,-702.74C417.64,-710.57 417.4,-720.05 417.76,-728.82"/>
<polygon fill="blue" stroke="blue" points="414.28,-729.28 418.49,-739.01 421.26,-728.78 414.28,-729.28"/>
</a>
</g>
</g>
<!-- BangD16&#45;&gt;Identity15 -->
<g id="edge80" class="edge">
<title>BangD16&#45;&gt;Identity15</title>
<g id="a_edge80"><a xlink:title="yseq50">
<path fill="none" stroke="black" d="M430.22,-702.74C431.06,-710.57 431.29,-720.05 430.94,-728.82"/>
<polygon fill="black" stroke="black" points="427.43,-728.78 430.21,-739.01 434.41,-729.28 427.43,-728.78"/>
</a>
</g>
</g>
<!-- Cut17 -->
<g id="node18" class="node">
<title>Cut17</title>
<ellipse fill="none" stroke="black" cx="267.35" cy="-612.8" rx="27" ry="18"/>
<text text-anchor="middle" x="267.35" y="-609.1" font-family="Times,serif" font-size="14.00">Cut</text>
</g>
<!-- Cut17&#45;&gt;PiL14 -->
<g id="edge9" class="edge">
<title>Cut17&#45;&gt;PiL14</title>
<g id="a_edge9"><a xlink:title="c_lseq46">
<path fill="none" stroke="black" d="M260.76,-640.61C260.55,-645.84 260.54,-651.33 260.75,-656.58"/>
<polygon fill="black" stroke="black" points="265,-630.64 260.78,-640.36 258.02,-630.13 265,-630.64"/>
<polygon fill="black" stroke="black" points="257.28,-657.11 261.47,-666.84 264.26,-656.62 257.28,-657.11"/>
</a>
</g>
</g>
<!-- Cut17&#45;&gt;PiL14 -->
<g id="edge38" class="edge">
<title>Cut17&#45;&gt;PiL14</title>
<g id="a_edge38"><a xlink:title="lval48">
<path fill="none" stroke="blue" d="M273.19,-630.38C274.05,-638.29 274.3,-647.94 273.93,-656.86"/>
<polygon fill="blue" stroke="blue" points="270.44,-656.62 273.23,-666.84 277.43,-657.11 270.44,-656.62"/>
</a>
</g>
</g>
<!-- Cut17&#45;&gt;Identity15 -->
<g id="edge58" class="edge">
<title>Cut17&#45;&gt;Identity15</title>
<g id="a_edge58"><a xlink:title="rval49">
<path fill="none" stroke="red" d="M282.69,-627.67C309.86,-652.25 366.67,-703.63 399.49,-733.32"/>
<polygon fill="red" stroke="red" points="397.52,-736.25 407.29,-740.37 402.22,-731.06 397.52,-736.25"/>
</a>
</g>
</g>
<!-- Cut17&#45;&gt;BangD16 -->
<g id="edge13" class="edge">
<title>Cut17&#45;&gt;BangD16</title>
<g id="a_edge13"><a xlink:title="c_rseq47">
<path fill="none" stroke="black" d="M289.18,-623.53C315.03,-635.05 358.43,-654.41 389.07,-668.07"/>
<polygon fill="black" stroke="black" points="387.97,-671.41 398.53,-672.29 390.82,-665.02 387.97,-671.41"/>
</a>
</g>
</g>
<!-- BangC18 -->
<g id="node19" class="node">
<title>BangC18</title>
<ellipse fill="none" stroke="black" cx="275.35" cy="-540.8" rx="35.19" ry="18"/>
<text text-anchor="middle" x="275.35" y="-537.1" font-family="Times,serif" font-size="14.00">BangC</text>
</g>
<!-- BangC18&#45;&gt;Bang12 -->
<g id="edge76" class="edge">
<title>BangC18&#45;&gt;Bang12</title>
<g id="a_edge76"><a xlink:title="yB44">
<path fill="none" stroke="blue" d="M291.36,-566.91C296.04,-575.44 300.63,-585.24 303.35,-594.8 316.29,-640.31 316.94,-695.85 315.89,-728.38"/>
<polygon fill="blue" stroke="blue" points="289.36,-556.46 291.34,-566.87 283.3,-559.97 289.36,-556.46"/>
<polygon fill="blue" stroke="blue" points="312.39,-728.34 315.48,-738.48 319.38,-728.62 312.39,-728.34"/>
</a>
</g>
</g>
<!-- BangC18&#45;&gt;BangD16 -->
<g id="edge75" class="edge">
<title>BangC18&#45;&gt;BangD16</title>
<g id="a_edge75"><a xlink:title="yA43">
<path fill="none" stroke="blue" d="M293.01,-556.53C305.36,-566.98 322.12,-581.46 336.35,-594.8 359.65,-616.64 385.21,-642.75 402.74,-661.01"/>
<polygon fill="blue" stroke="blue" points="400.3,-663.52 409.74,-668.33 405.36,-658.68 400.3,-663.52"/>
</a>
</g>
</g>
<!-- BangC18&#45;&gt;Cut17 -->
<g id="edge63" class="edge">
<title>BangC18&#45;&gt;Cut17</title>
<g id="a_edge63"><a xlink:title="seq45">
<path fill="none" stroke="black" d="M273.37,-559.1C272.49,-566.81 271.43,-576.08 270.45,-584.68"/>
<polygon fill="black" stroke="black" points="266.96,-584.36 269.3,-594.69 273.91,-585.15 266.96,-584.36"/>
</a>
</g>
</g>
<!-- PiR19 -->
<g id="node20" class="node">
<title>PiR19</title>
<ellipse fill="none" stroke="black" cx="218.35" cy="-468.8" rx="27" ry="18"/>
<text text-anchor="middle" x="218.35" y="-465.1" font-family="Times,serif" font-size="14.00">PiR</text>
</g>
<!-- PiR19&#45;&gt;Identity13 -->
<g id="edge52" class="edge">
<title>PiR19&#45;&gt;Identity13</title>
<g id="a_edge52"><a xlink:title="ret42">
<path fill="none" stroke="red" d="M218.94,-486.83C220.61,-534.5 225.33,-669.61 227.38,-728.17"/>
<polygon fill="red" stroke="red" points="223.89,-728.62 227.74,-738.49 230.89,-728.37 223.89,-728.62"/>
</a>
</g>
</g>
<!-- PiR19&#45;&gt;BangC18 -->
<g id="edge62" class="edge">
<title>PiR19&#45;&gt;BangC18</title>
<g id="a_edge62"><a xlink:title="seq40">
<path fill="none" stroke="black" d="M226.01,-486.38C232.49,-495.57 241.73,-507.13 250.53,-517.14"/>
<polygon fill="black" stroke="black" points="248.13,-519.7 257.44,-524.76 253.32,-515 248.13,-519.7"/>
</a>
</g>
</g>
<!-- PiR19&#45;&gt;BangC18 -->
<g id="edge74" class="edge">
<title>PiR19&#45;&gt;BangC18</title>
<g id="a_edge74"><a xlink:title="y41">
<path fill="none" stroke="blue" d="M234.79,-483.29C243.34,-492.26 253.49,-504.3 261.61,-514.96"/>
<polygon fill="blue" stroke="blue" points="258.88,-517.15 267.62,-523.13 264.52,-513 258.88,-517.15"/>
</a>
</g>
</g>
<!-- Cut20 -->
<g id="node21" class="node">
<title>Cut20</title>
<ellipse fill="none" stroke="black" cx="218.35" cy="-396.8" rx="27" ry="18"/>
<text text-anchor="middle" x="218.35" y="-393.1" font-family="Times,serif" font-size="14.00">Cut</text>
</g>
<!-- Cut20&#45;&gt;PiL9 -->
<g id="edge8" class="edge">
<title>Cut20&#45;&gt;PiL9</title>
<g id="a_edge8"><a xlink:title="c_lseq36">
<path fill="none" stroke="black" d="M192.41,-417.08C182.94,-425.56 172.51,-435.6 163.91,-444.49"/>
<polygon fill="black" stroke="black" points="202.46,-412.95 192.63,-416.89 197.86,-407.67 202.46,-412.95"/>
<polygon fill="black" stroke="black" points="161.2,-442.27 156.89,-451.95 166.29,-447.07 161.2,-442.27"/>
</a>
</g>
</g>
<!-- Cut20&#45;&gt;PiL9 -->
<g id="edge36" class="edge">
<title>Cut20&#45;&gt;PiL9</title>
<g id="a_edge36"><a xlink:title="lval38">
<path fill="none" stroke="blue" d="M207.77,-413.68C198.34,-424 184.55,-437.53 172.33,-448.47"/>
<polygon fill="blue" stroke="blue" points="169.82,-446.02 164.59,-455.24 174.42,-451.29 169.82,-446.02"/>
</a>
</g>
</g>
<!-- Cut20&#45;&gt;PiR19 -->
<g id="edge12" class="edge">
<title>Cut20&#45;&gt;PiR19</title>
<g id="a_edge12"><a xlink:title="c_rseq37">
<path fill="none" stroke="black" d="M212.51,-414.38C211.64,-422.29 211.39,-431.94 211.76,-440.86"/>
<polygon fill="black" stroke="black" points="208.27,-441.11 212.47,-450.84 215.25,-440.62 208.27,-441.11"/>
</a>
</g>
</g>
<!-- Cut20&#45;&gt;PiR19 -->
<g id="edge57" class="edge">
<title>Cut20&#45;&gt;PiR19</title>
<g id="a_edge57"><a xlink:title="rval39">
<path fill="none" stroke="red" d="M224.19,-414.38C225.05,-422.29 225.3,-431.94 224.93,-440.86"/>
<polygon fill="red" stroke="red" points="221.44,-440.62 224.23,-450.84 228.43,-441.11 221.44,-440.62"/>
</a>
</g>
</g>
<!-- PiR21 -->
<g id="node22" class="node">
<title>PiR21</title>
<ellipse fill="none" stroke="black" cx="218.35" cy="-315.4" rx="27" ry="18"/>
<text text-anchor="middle" x="218.35" y="-311.7" font-family="Times,serif" font-size="14.00">PiR</text>
</g>
<!-- PiR21&#45;&gt;Bang7 -->
<g id="edge19" class="edge">
<title>PiR21&#45;&gt;Bang7</title>
<g id="a_edge19"><a xlink:title="h34">
<path fill="none" stroke="blue" d="M196.54,-326.07C175.48,-336.4 143.97,-354.61 124.35,-378.8 91.55,-419.23 73.84,-478.59 65.82,-512.8"/>
<polygon fill="blue" stroke="blue" points="62.4,-512.03 63.63,-522.56 69.23,-513.56 62.4,-512.03"/>
</a>
</g>
</g>
<!-- PiR21&#45;&gt;Identity8 -->
<g id="edge51" class="edge">
<title>PiR21&#45;&gt;Identity8</title>
<g id="a_edge51"><a xlink:title="ret35">
<path fill="none" stroke="red" d="M201.86,-329.98C176.43,-352.14 128.63,-398.84 110.35,-450.8 105.03,-465.89 105.64,-471.5 110.35,-486.8 113.53,-497.16 119.52,-507.32 125.7,-515.92"/>
<polygon fill="red" stroke="red" points="123,-518.15 131.86,-523.96 128.55,-513.89 123,-518.15"/>
</a>
</g>
</g>
<!-- PiR21&#45;&gt;Cut20 -->
<g id="edge61" class="edge">
<title>PiR21&#45;&gt;Cut20</title>
<g id="a_edge61"><a xlink:title="seq33">
<path fill="none" stroke="black" d="M218.35,-333.63C218.35,-343.82 218.35,-356.97 218.35,-368.54"/>
<polygon fill="black" stroke="black" points="214.85,-368.6 218.35,-378.6 221.85,-368.6 214.85,-368.6"/>
</a>
</g>
</g>
<!-- Bang22 -->
<g id="node23" class="node">
<title>Bang22</title>
<ellipse fill="none" stroke="black" cx="230.35" cy="-234" rx="29.5" ry="18"/>
<text text-anchor="middle" x="230.35" y="-230.3" font-family="Times,serif" font-size="14.00">Bang</text>
</g>
<!-- Bang22&#45;&gt;PiR21 -->
<g id="edge2" class="edge">
<title>Bang22&#45;&gt;PiR21</title>
<g id="a_edge2"><a xlink:title="c_bseq32">
<path fill="none" stroke="black" d="M222.27,-251.45C219.55,-261.75 217.22,-275.26 216.02,-287.12"/>
<polygon fill="black" stroke="black" points="212.51,-287.19 215.26,-297.42 219.49,-287.7 212.51,-287.19"/>
</a>
</g>
</g>
<!-- Bang22&#45;&gt;PiR21 -->
<g id="edge46" class="edge">
<title>Bang22&#45;&gt;PiR21</title>
<g id="a_edge46"><a xlink:title="newrretf31">
<path fill="none" stroke="red" d="M233.42,-252.23C232.96,-262.74 231.14,-276.39 228.69,-288.22"/>
<polygon fill="red" stroke="red" points="225.27,-287.48 226.41,-298.02 232.09,-289.07 225.27,-287.48"/>
</a>
</g>
</g>
<!-- Identity23 -->
<g id="node24" class="node">
<title>Identity23</title>
<ellipse fill="none" stroke="black" cx="144.35" cy="-234" rx="38.19" ry="18"/>
<text text-anchor="middle" x="144.35" y="-230.3" font-family="Times,serif" font-size="14.00">Identity</text>
</g>
<!-- PiL24 -->
<g id="node25" class="node">
<title>PiL24</title>
<ellipse fill="none" stroke="black" cx="230.35" cy="-162" rx="27" ry="18"/>
<text text-anchor="middle" x="230.35" y="-158.3" font-family="Times,serif" font-size="14.00">PiL</text>
</g>
<!-- PiL24&#45;&gt;Bang22 -->
<g id="edge15" class="edge">
<title>PiL24&#45;&gt;Bang22</title>
<g id="a_edge15"><a xlink:title="dseq29">
<path fill="none" stroke="black" d="M224.51,-179.59C223.64,-187.49 223.39,-197.15 223.76,-206.06"/>
<polygon fill="black" stroke="black" points="220.27,-206.32 224.47,-216.04 227.25,-205.82 220.27,-206.32"/>
</a>
</g>
</g>
<!-- PiL24&#45;&gt;Bang22 -->
<g id="edge41" class="edge">
<title>PiL24&#45;&gt;Bang22</title>
<g id="a_edge41"><a xlink:title="newrret27">
<path fill="none" stroke="red" d="M236.19,-179.59C237.05,-187.49 237.3,-197.15 236.93,-206.06"/>
<polygon fill="red" stroke="red" points="233.44,-205.82 236.23,-216.04 240.43,-206.32 233.44,-205.82"/>
</a>
</g>
</g>
<!-- PiL24&#45;&gt;Identity23 -->
<g id="edge24" class="edge">
<title>PiL24&#45;&gt;Identity23</title>
<g id="a_edge24"><a xlink:title="idseq30">
<path fill="none" stroke="black" d="M202.62,-180.72C190.7,-189.69 177.05,-200.69 165.89,-210.28"/>
<polygon fill="black" stroke="black" points="213.06,-177.38 202.93,-180.49 208.9,-171.74 213.06,-177.38"/>
<polygon fill="black" stroke="black" points="163.47,-207.75 158.26,-216.97 168.09,-213.01 163.47,-207.75"/>
</a>
</g>
</g>
<!-- PiL24&#45;&gt;Identity23 -->
<g id="edge31" class="edge">
<title>PiL24&#45;&gt;Identity23</title>
<g id="a_edge31"><a xlink:title="lret28">
<path fill="none" stroke="blue" d="M217.36,-178.19C206.05,-188.41 189.53,-201.98 174.99,-213.07"/>
<polygon fill="blue" stroke="blue" points="172.62,-210.47 166.71,-219.26 176.82,-216.08 172.62,-210.47"/>
</a>
</g>
</g>
<!-- Identity25 -->
<g id="node26" class="node">
<title>Identity25</title>
<ellipse fill="none" stroke="black" cx="426.35" cy="-612.8" rx="38.19" ry="18"/>
<text text-anchor="middle" x="426.35" y="-609.1" font-family="Times,serif" font-size="14.00">Identity</text>
</g>
<!-- BangD26 -->
<g id="node27" class="node">
<title>BangD26</title>
<ellipse fill="none" stroke="black" cx="426.35" cy="-540.8" rx="36" ry="18"/>
<text text-anchor="middle" x="426.35" y="-537.1" font-family="Times,serif" font-size="14.00">BangD</text>
</g>
<!-- BangD26&#45;&gt;Identity25 -->
<g id="edge71" class="edge">
<title>BangD26&#45;&gt;Identity25</title>
<g id="a_edge71"><a xlink:title="xret26">
<path fill="none" stroke="blue" d="M420.47,-558.74C419.64,-566.57 419.4,-576.05 419.76,-584.82"/>
<polygon fill="blue" stroke="blue" points="416.28,-585.28 420.49,-595.01 423.26,-584.78 416.28,-585.28"/>
</a>
</g>
</g>
<!-- BangD26&#45;&gt;Identity25 -->
<g id="edge73" class="edge">
<title>BangD26&#45;&gt;Identity25</title>
<g id="a_edge73"><a xlink:title="xseq25">
<path fill="none" stroke="black" d="M432.22,-558.74C433.06,-566.57 433.29,-576.05 432.94,-584.82"/>
<polygon fill="black" stroke="black" points="429.43,-584.78 432.21,-595.01 436.41,-585.28 429.43,-584.78"/>
</a>
</g>
</g>
<!-- Bang27 -->
<g id="node28" class="node">
<title>Bang27</title>
<ellipse fill="none" stroke="black" cx="426.35" cy="-468.8" rx="29.5" ry="18"/>
<text text-anchor="middle" x="426.35" y="-465.1" font-family="Times,serif" font-size="14.00">Bang</text>
</g>
<!-- Bang27&#45;&gt;Identity25 -->
<g id="edge45" class="edge">
<title>Bang27&#45;&gt;Identity25</title>
<g id="a_edge45"><a xlink:title="newrretf23">
<path fill="none" stroke="red" d="M443.01,-483.66C453.34,-493.39 465.69,-507.39 471.35,-522.8 476.86,-537.81 476.86,-543.78 471.35,-558.8 467.2,-570.07 459.48,-580.59 451.59,-589.24"/>
<polygon fill="red" stroke="red" points="448.86,-587.02 444.39,-596.62 453.88,-591.91 448.86,-587.02"/>
</a>
</g>
</g>
<!-- Bang27&#45;&gt;BangD26 -->
<g id="edge1" class="edge">
<title>Bang27&#45;&gt;BangD26</title>
<g id="a_edge1"><a xlink:title="c_bseq24">
<path fill="none" stroke="black" d="M420.47,-486.74C419.64,-494.57 419.4,-504.05 419.76,-512.82"/>
<polygon fill="black" stroke="black" points="416.28,-513.28 420.49,-523.01 423.26,-512.78 416.28,-513.28"/>
</a>
</g>
</g>
<!-- Bang27&#45;&gt;BangD26 -->
<g id="edge69" class="edge">
<title>Bang27&#45;&gt;BangD26</title>
<g id="a_edge69"><a xlink:title="xBf22">
<path fill="none" stroke="blue" d="M432.22,-486.74C433.06,-494.57 433.29,-504.05 432.94,-512.82"/>
<polygon fill="blue" stroke="blue" points="429.43,-512.78 432.21,-523.01 436.41,-513.28 429.43,-512.78"/>
</a>
</g>
</g>
<!-- Identity28 -->
<g id="node29" class="node">
<title>Identity28</title>
<ellipse fill="none" stroke="black" cx="512.35" cy="-468.8" rx="38.19" ry="18"/>
<text text-anchor="middle" x="512.35" y="-465.1" font-family="Times,serif" font-size="14.00">Identity</text>
</g>
<!-- PiL29 -->
<g id="node30" class="node">
<title>PiL29</title>
<ellipse fill="none" stroke="black" cx="457.35" cy="-396.8" rx="27" ry="18"/>
<text text-anchor="middle" x="457.35" y="-393.1" font-family="Times,serif" font-size="14.00">PiL</text>
</g>
<!-- PiL29&#45;&gt;Bang27 -->
<g id="edge14" class="edge">
<title>PiL29&#45;&gt;Bang27</title>
<g id="a_edge14"><a xlink:title="dseq20">
<path fill="none" stroke="black" d="M444.94,-412.98C440.29,-421.22 435.38,-431.64 431.56,-441.18"/>
<polygon fill="black" stroke="black" points="428.24,-440.08 428.03,-450.67 434.8,-442.51 428.24,-440.08"/>
</a>
</g>
</g>
<!-- PiL29&#45;&gt;Bang27 -->
<g id="edge40" class="edge">
<title>PiL29&#45;&gt;Bang27</title>
<g id="a_edge40"><a xlink:title="newrret18">
<path fill="none" stroke="red" d="M455.6,-415.1C452.74,-423.51 448.39,-433.78 443.81,-443.01"/>
<polygon fill="red" stroke="red" points="440.57,-441.64 439.02,-452.12 446.77,-444.9 440.57,-441.64"/>
</a>
</g>
</g>
<!-- PiL29&#45;&gt;Identity28 -->
<g id="edge23" class="edge">
<title>PiL29&#45;&gt;Identity28</title>
<g id="a_edge23"><a xlink:title="idseq21">
<path fill="none" stroke="black" d="M470.49,-422.79C475.78,-429.99 481.96,-437.81 487.97,-444.88"/>
<polygon fill="black" stroke="black" points="467.4,-412.36 470.32,-422.55 461.68,-416.41 467.4,-412.36"/>
<polygon fill="black" stroke="black" points="485.65,-447.55 494.87,-452.76 490.91,-442.93 485.65,-447.55"/>
</a>
</g>
</g>
<!-- PiL29&#45;&gt;Identity28 -->
<g id="edge30" class="edge">
<title>PiL29&#45;&gt;Identity28</title>
<g id="a_edge30"><a xlink:title="lret19">
<path fill="none" stroke="blue" d="M473.41,-411.29C481.56,-420.11 491.18,-431.89 498.93,-442.42"/>
<polygon fill="blue" stroke="blue" points="496.28,-444.74 504.93,-450.87 501.99,-440.69 496.28,-444.74"/>
</a>
</g>
</g>
<!-- Identity30 -->
<g id="node31" class="node">
<title>Identity30</title>
<ellipse fill="none" stroke="black" cx="301.35" cy="-468.8" rx="38.19" ry="18"/>
<text text-anchor="middle" x="301.35" y="-465.1" font-family="Times,serif" font-size="14.00">Identity</text>
</g>
<!-- BangD31 -->
<g id="node32" class="node">
<title>BangD31</title>
<ellipse fill="none" stroke="black" cx="300.35" cy="-396.8" rx="36" ry="18"/>
<text text-anchor="middle" x="300.35" y="-393.1" font-family="Times,serif" font-size="14.00">BangD</text>
</g>
<!-- BangD31&#45;&gt;Identity30 -->
<g id="edge70" class="edge">
<title>BangD31&#45;&gt;Identity30</title>
<g id="a_edge70"><a xlink:title="xret17">
<path fill="none" stroke="blue" d="M294.71,-414.74C293.99,-422.57 293.89,-432.05 294.37,-440.82"/>
<polygon fill="blue" stroke="blue" points="290.9,-441.34 295.25,-451.01 297.88,-440.74 290.9,-441.34"/>
</a>
</g>
</g>
<!-- BangD31&#45;&gt;Identity30 -->
<g id="edge72" class="edge">
<title>BangD31&#45;&gt;Identity30</title>
<g id="a_edge72"><a xlink:title="xseq16">
<path fill="none" stroke="black" d="M306.47,-414.74C307.4,-422.45 307.77,-431.77 307.56,-440.43"/>
<polygon fill="black" stroke="black" points="304.06,-440.35 307.01,-450.52 311.05,-440.73 304.06,-440.35"/>
</a>
</g>
</g>
<!-- Cut32 -->
<g id="node33" class="node">
<title>Cut32</title>
<ellipse fill="none" stroke="black" cx="347.35" cy="-315.4" rx="23.31" ry="23.31"/>
<ellipse fill="none" stroke="black" cx="347.35" cy="-315.4" rx="27.3" ry="27.3"/>
<text text-anchor="middle" x="347.35" y="-311.7" font-family="Times,serif" font-size="14.00">Cut</text>
</g>
<!-- Cut32&#45;&gt;PiL29 -->
<g id="edge6" class="edge">
<title>Cut32&#45;&gt;PiL29</title>
<g id="a_edge6"><a xlink:title="c_lseq12">
<path fill="none" stroke="black" d="M375.18,-341.04C391.43,-353.32 411.79,-367.86 428.25,-378.87"/>
<polygon fill="black" stroke="black" points="369.19,-332.03 375,-340.89 364.93,-337.59 369.19,-332.03"/>
<polygon fill="black" stroke="black" points="426.67,-382.02 436.95,-384.59 430.51,-376.17 426.67,-382.02"/>
</a>
</g>
</g>
<!-- Cut32&#45;&gt;PiL29 -->
<g id="edge35" class="edge">
<title>Cut32&#45;&gt;PiL29</title>
<g id="a_edge35"><a xlink:title="lval14">
<path fill="none" stroke="blue" d="M370.95,-329.69C389.89,-342.09 416.07,-360.79 434.73,-375.14"/>
<polygon fill="blue" stroke="blue" points="432.69,-377.99 442.73,-381.39 437,-372.47 432.69,-377.99"/>
</a>
</g>
</g>
<!-- Cut32&#45;&gt;Identity30 -->
<g id="edge56" class="edge">
<title>Cut32&#45;&gt;Identity30</title>
<g id="a_edge56"><a xlink:title="rval15">
<path fill="none" stroke="red" stroke-width="2" d="M351.42,-342.76C353.49,-363.09 354,-391.58 345.35,-414.8 341.19,-425.95 333.62,-436.44 325.91,-445.1"/>
<polygon fill="red" stroke="red" stroke-width="2" points="323.23,-442.84 318.89,-452.5 328.31,-447.66 323.23,-442.84"/>
</a>
</g>
</g>
<!-- Cut32&#45;&gt;BangD31 -->
<g id="edge10" class="edge">
<title>Cut32&#45;&gt;BangD31</title>
<g id="a_edge10"><a xlink:title="c_rseq13">
<path fill="none" stroke="black" d="M333.75,-339.36C327.94,-349.18 321.14,-360.67 315.2,-370.71"/>
<polygon fill="black" stroke="black" points="312.11,-369.05 310.03,-379.43 318.14,-372.61 312.11,-369.05"/>
</a>
</g>
</g>
<!-- BangC33 -->
<g id="node34" class="node">
<title>BangC33</title>
<ellipse fill="none" stroke="black" cx="335.35" cy="-234" rx="35.19" ry="18"/>
<text text-anchor="middle" x="335.35" y="-230.3" font-family="Times,serif" font-size="14.00">BangC</text>
</g>
<!-- BangC33&#45;&gt;Bang27 -->
<g id="edge68" class="edge">
<title>BangC33&#45;&gt;Bang27</title>
<g id="a_edge68"><a xlink:title="xB10">
<path fill="none" stroke="blue" d="M360.12,-257.28C368.6,-266.09 377.43,-276.79 383.35,-288 409.6,-337.78 420.06,-403.73 424.05,-440.33"/>
<polygon fill="blue" stroke="blue" points="355.31,-247.57 359.94,-257.1 350.38,-252.54 355.31,-247.57"/>
<polygon fill="blue" stroke="blue" points="420.61,-441.1 425.09,-450.7 427.57,-440.4 420.61,-441.1"/>
</a>
</g>
</g>
<!-- BangC33&#45;&gt;BangD31 -->
<g id="edge67" class="edge">
<title>BangC33&#45;&gt;BangD31</title>
<g id="a_edge67"><a xlink:title="xA9">
<path fill="none" stroke="blue" d="M326.11,-251.67C320.9,-261.85 314.77,-275.32 311.35,-288 304.14,-314.72 301.58,-346.34 300.71,-368.39"/>
<polygon fill="blue" stroke="blue" points="297.2,-368.58 300.4,-378.68 304.2,-368.8 297.2,-368.58"/>
</a>
</g>
</g>
<!-- BangC33&#45;&gt;Cut32 -->
<g id="edge60" class="edge">
<title>BangC33&#45;&gt;Cut32</title>
<g id="a_edge60"><a xlink:title="seq11">
<path fill="none" stroke="black" d="M337.95,-252.23C339.1,-259.85 340.5,-269.12 341.87,-278.15"/>
<polygon fill="black" stroke="black" points="338.42,-278.78 343.38,-288.14 345.34,-277.73 338.42,-278.78"/>
</a>
</g>
</g>
<!-- PiR34 -->
<g id="node35" class="node">
<title>PiR34</title>
<ellipse fill="none" stroke="black" cx="335.35" cy="-162" rx="27" ry="18"/>
<text text-anchor="middle" x="335.35" y="-158.3" font-family="Times,serif" font-size="14.00">PiR</text>
</g>
<!-- PiR34&#45;&gt;Identity28 -->
<g id="edge53" class="edge">
<title>PiR34&#45;&gt;Identity28</title>
<g id="a_edge53"><a xlink:title="ret8">
<path fill="none" stroke="red" d="M349.63,-177.48C381.07,-210.25 456.37,-293.86 493.35,-378.8 501.95,-398.56 506.78,-422.54 509.42,-440.63"/>
<polygon fill="red" stroke="red" points="505.98,-441.32 510.76,-450.78 512.92,-440.41 505.98,-441.32"/>
</a>
</g>
</g>
<!-- PiR34&#45;&gt;BangC33 -->
<g id="edge64" class="edge">
<title>PiR34&#45;&gt;BangC33</title>
<g id="a_edge64"><a xlink:title="seq6">
<path fill="none" stroke="black" d="M329.51,-179.59C328.64,-187.49 328.39,-197.15 328.76,-206.06"/>
<polygon fill="black" stroke="black" points="325.27,-206.32 329.47,-216.04 332.25,-205.82 325.27,-206.32"/>
</a>
</g>
</g>
<!-- PiR34&#45;&gt;BangC33 -->
<g id="edge66" class="edge">
<title>PiR34&#45;&gt;BangC33</title>
<g id="a_edge66"><a xlink:title="x7">
<path fill="none" stroke="blue" d="M341.19,-179.59C342.05,-187.49 342.3,-197.15 341.93,-206.06"/>
<polygon fill="blue" stroke="blue" points="338.44,-205.82 341.23,-216.04 345.43,-206.32 338.44,-205.82"/>
</a>
</g>
</g>
<!-- Cut35 -->
<g id="node36" class="node">
<title>Cut35</title>
<ellipse fill="none" stroke="black" cx="230.35" cy="-90" rx="27" ry="18"/>
<text text-anchor="middle" x="230.35" y="-86.3" font-family="Times,serif" font-size="14.00">Cut</text>
</g>
<!-- Cut35&#45;&gt;PiL24 -->
<g id="edge7" class="edge">
<title>Cut35&#45;&gt;PiL24</title>
<g id="a_edge7"><a xlink:title="c_lseq2">
<path fill="none" stroke="black" d="M223.76,-117.81C223.55,-123.05 223.54,-128.54 223.75,-133.78"/>
<polygon fill="black" stroke="black" points="228,-107.84 223.78,-117.56 221.02,-107.34 228,-107.84"/>
<polygon fill="black" stroke="black" points="220.28,-134.31 224.47,-144.04 227.26,-133.82 220.28,-134.31"/>
</a>
</g>
</g>
<!-- Cut35&#45;&gt;PiL24 -->
<g id="edge37" class="edge">
<title>Cut35&#45;&gt;PiL24</title>
<g id="a_edge37"><a xlink:title="lval4">
<path fill="none" stroke="blue" d="M236.19,-107.59C237.05,-115.49 237.3,-125.15 236.93,-134.06"/>
<polygon fill="blue" stroke="blue" points="233.44,-133.82 236.23,-144.04 240.43,-134.32 233.44,-133.82"/>
</a>
</g>
</g>
<!-- Cut35&#45;&gt;PiR34 -->
<g id="edge11" class="edge">
<title>Cut35&#45;&gt;PiR34</title>
<g id="a_edge11"><a xlink:title="c_rseq3">
<path fill="none" stroke="black" d="M246.05,-105.17C261.8,-116.68 286.11,-132.94 305.47,-144.94"/>
<polygon fill="black" stroke="black" points="303.89,-148.07 314.25,-150.29 307.53,-142.09 303.89,-148.07"/>
</a>
</g>
</g>
<!-- Cut35&#45;&gt;PiR34 -->
<g id="edge59" class="edge">
<title>Cut35&#45;&gt;PiR34</title>
<g id="a_edge59"><a xlink:title="rval5">
<path fill="none" stroke="red" d="M251.3,-101.63C268.82,-112.08 293.51,-128.29 311.7,-141.13"/>
<polygon fill="red" stroke="red" points="309.88,-144.14 320.05,-147.13 313.97,-138.45 309.88,-144.14"/>
</a>
</g>
</g>
<!-- Assign36 -->
<g id="node37" class="node">
<title>Assign36</title>
<ellipse fill="none" stroke="black" cx="230.35" cy="-18" rx="35.19" ry="18"/>
<text text-anchor="middle" x="230.35" y="-14.3" font-family="Times,serif" font-size="14.00">Assign</text>
</g>
<!-- Assign36&#45;&gt;Identity23 -->
<g id="edge50" class="edge">
<title>Assign36&#45;&gt;Identity23</title>
<g id="a_edge50"><a xlink:title="ret1">
<path fill="none" stroke="red" d="M217.67,-34.95C210.09,-45.09 200.72,-58.77 194.35,-72 172.78,-116.78 157.82,-172.99 150.2,-205.76"/>
<polygon fill="red" stroke="red" points="146.69,-205.4 147.9,-215.93 153.52,-206.95 146.69,-205.4"/>
</a>
</g>
</g>
<!-- Assign36&#45;&gt;Cut35 -->
<g id="edge55" class="edge">
<title>Assign36&#45;&gt;Cut35</title>
<g id="a_edge55"><a xlink:title="retseq0">
<path fill="none" stroke="black" d="M230.35,-36.3C230.35,-44.02 230.35,-53.29 230.35,-61.89"/>
<polygon fill="black" stroke="black" points="226.85,-61.9 230.35,-71.9 233.85,-61.9 226.85,-61.9"/>
</a>
</g>
</g>
</g>
</svg>
