<?xml version="1.0" encoding="UTF-8" standalone="no"?>
<!DOCTYPE svg PUBLIC "-//W3C//DTD SVG 1.1//EN"
 "http://www.w3.org/Graphics/SVG/1.1/DTD/svg11.dtd">
<!-- Generated by graphviz version 2.43.0 (0)
 -->
<!-- Title: %3 Pages: 1 -->
<svg width="460pt" height="1509pt"
 viewBox="0.00 0.00 459.65 1509.30" xmlns="http://www.w3.org/2000/svg" xmlns:xlink="http://www.w3.org/1999/xlink">
<g id="graph0" class="graph" transform="scale(1 1) rotate(0) translate(4 1505.3)">
<title>%3</title>
<polygon fill="white" stroke="transparent" points="-4,4 -4,-1505.3 455.65,-1505.3 455.65,4 -4,4"/>
<!-- Root0 -->
<g id="node1" class="node">
<title>Root0</title>
<ellipse fill="none" stroke="black" cx="393" cy="-1483.3" rx="30.59" ry="18"/>
<text text-anchor="middle" x="393" y="-1479.6" font-family="Times-Roman" font-size="14.00">Root</text>
</g>
<!-- I2 -->
<g id="node10" class="node">
<title>I2</title>
<ellipse fill="none" stroke="black" cx="393" cy="-1411.3" rx="27" ry="18"/>
<text text-anchor="middle" x="393" y="-1407.6" font-family="Times-Roman" font-size="14.00">I</text>
</g>
<!-- Root0&#45;&gt;I2 -->
<g id="edge46" class="edge">
<title>Root0&#45;&gt;I2</title>
<g id="a_edge46"><a xlink:title="rettop">
<path fill="none" stroke="red" stroke-width="2" d="M393,-1464.99C393,-1457.28 393,-1448.01 393,-1439.41"/>
<polygon fill="red" stroke="red" stroke-width="2" points="396.5,-1439.4 393,-1429.4 389.5,-1439.4 396.5,-1439.4"/>
</a>
</g>
</g>
<!-- !p0 -->
<g id="node2" class="node">
<title>!p0</title>
<ellipse fill="none" stroke="black" cx="277" cy="-1195.3" rx="27" ry="18"/>
<text text-anchor="middle" x="277" y="-1191.6" font-family="Times-Roman" font-size="14.00">!p</text>
</g>
<!-- I0 -->
<g id="node3" class="node">
<title>I0</title>
<ellipse fill="none" stroke="black" cx="194" cy="-1123.3" rx="27" ry="18"/>
<text text-anchor="middle" x="194" y="-1119.6" font-family="Times-Roman" font-size="14.00">I</text>
</g>
<!-- !p0&#45;&gt;I0 -->
<g id="edge50" class="edge">
<title>!p0&#45;&gt;I0</title>
<g id="a_edge50"><a xlink:title="yli">
<path fill="none" stroke="red" d="M260.6,-1180.47C248.36,-1170.14 231.45,-1155.88 217.73,-1144.31"/>
<polygon fill="red" stroke="red" points="219.98,-1141.63 210.08,-1137.86 215.47,-1146.98 219.98,-1141.63"/>
</a>
</g>
</g>
<!-- Cut0 -->
<g id="node6" class="node">
<title>Cut0</title>
<ellipse fill="none" stroke="black" cx="304" cy="-1123.3" rx="27" ry="18"/>
<text text-anchor="middle" x="304" y="-1119.6" font-family="Times-Roman" font-size="14.00">Cut</text>
</g>
<!-- !p0&#45;&gt;Cut0 -->
<g id="edge47" class="edge">
<title>!p0&#45;&gt;Cut0</title>
<g id="a_edge47"><a xlink:title="y2">
<path fill="none" stroke="blue" d="M287.01,-1168.35C290.5,-1159.3 294.32,-1149.38 297.46,-1141.25"/>
<polygon fill="blue" stroke="blue" points="283.73,-1167.12 283.4,-1177.71 290.26,-1169.64 283.73,-1167.12"/>
</a>
</g>
</g>
<!-- !d0 -->
<g id="node4" class="node">
<title>!d0</title>
<ellipse fill="none" stroke="black" cx="213" cy="-1051.3" rx="27" ry="18"/>
<text text-anchor="middle" x="213" y="-1047.6" font-family="Times-Roman" font-size="14.00">!d</text>
</g>
<!-- I0&#45;&gt;!d0 -->
<g id="edge49" class="edge">
<title>I0&#45;&gt;!d0</title>
<g id="a_edge49"><a xlink:title="yl2">
<path fill="none" stroke="blue" d="M201.29,-1095.43C203.7,-1086.57 206.3,-1076.97 208.44,-1069.08"/>
<polygon fill="blue" stroke="blue" points="197.84,-1094.78 198.6,-1105.35 204.6,-1096.62 197.84,-1094.78"/>
</a>
</g>
</g>
<!-- !d0&#45;&gt;!p0 -->
<g id="edge48" class="edge">
<title>!d0&#45;&gt;!p0</title>
<g id="a_edge48"><a xlink:title="yj">
<path fill="none" stroke="blue" d="M224.69,-1078.23C237.75,-1107.21 258.5,-1153.25 269.53,-1177.73"/>
<polygon fill="blue" stroke="blue" points="227.72,-1076.44 220.42,-1068.76 221.34,-1079.31 227.72,-1076.44"/>
</a>
</g>
</g>
<!-- !p1 -->
<g id="node5" class="node">
<title>!p1</title>
<ellipse fill="none" stroke="black" cx="294" cy="-1051.3" rx="27" ry="18"/>
<text text-anchor="middle" x="294" y="-1047.6" font-family="Times-Roman" font-size="14.00">!p</text>
</g>
<!-- I1 -->
<g id="node9" class="node">
<title>I1</title>
<ellipse fill="none" stroke="black" cx="257" cy="-979.3" rx="27" ry="18"/>
<text text-anchor="middle" x="257" y="-975.6" font-family="Times-Roman" font-size="14.00">I</text>
</g>
<!-- !p1&#45;&gt;I1 -->
<g id="edge1" class="edge">
<title>!p1&#45;&gt;I1</title>
<g id="a_edge1"><a xlink:title="e11">
<path fill="none" stroke="red" d="M285.42,-1034.06C280.94,-1025.58 275.35,-1015.01 270.32,-1005.49"/>
<polygon fill="red" stroke="red" points="273.3,-1003.65 265.54,-996.44 267.11,-1006.92 273.3,-1003.65"/>
</a>
</g>
</g>
<!-- Dup1_0 -->
<g id="node29" class="node">
<title>Dup1_0</title>
<ellipse fill="none" stroke="black" cx="176" cy="-979.3" rx="29.5" ry="18"/>
<text text-anchor="middle" x="176" y="-975.6" font-family="Times-Roman" font-size="14.00">Dup</text>
</g>
<!-- !p1&#45;&gt;Dup1_0 -->
<g id="edge3" class="edge">
<title>!p1&#45;&gt;Dup1_0</title>
<g id="a_edge3"><a xlink:title="e15">
<path fill="none" stroke="blue" d="M265.85,-1033.6C244.44,-1020.9 215.49,-1003.72 196.31,-992.34"/>
<polygon fill="blue" stroke="blue" points="264.13,-1036.64 274.51,-1038.74 267.7,-1030.62 264.13,-1036.64"/>
</a>
</g>
</g>
<!-- Cut0&#45;&gt;!p1 -->
<g id="edge45" class="edge">
<title>Cut0&#45;&gt;!p1</title>
<g id="a_edge45"><a xlink:title="e9">
<path fill="none" stroke="red" d="M301.58,-1105.35C300.48,-1097.64 299.15,-1088.32 297.91,-1079.66"/>
<polygon fill="red" stroke="red" points="301.35,-1078.98 296.47,-1069.57 294.42,-1079.97 301.35,-1078.98"/>
</a>
</g>
</g>
<!-- !d1 -->
<g id="node7" class="node">
<title>!d1</title>
<ellipse fill="none" stroke="black" cx="312" cy="-835.3" rx="27" ry="18"/>
<text text-anchor="middle" x="312" y="-831.6" font-family="Times-Roman" font-size="14.00">!d</text>
</g>
<!-- !d1&#45;&gt;!p1 -->
<g id="edge2" class="edge">
<title>!d1&#45;&gt;!p1</title>
<g id="a_edge2"><a xlink:title="e13">
<path fill="none" stroke="blue" d="M309.7,-863.68C305.93,-908.48 298.56,-996.13 295.44,-1033.14"/>
<polygon fill="blue" stroke="blue" points="313.2,-863.79 310.55,-853.53 306.22,-863.2 313.2,-863.79"/>
</a>
</g>
</g>
<!-- PiL0 -->
<g id="node8" class="node">
<title>PiL0</title>
<ellipse fill="none" stroke="black" cx="257" cy="-907.3" rx="27" ry="18"/>
<text text-anchor="middle" x="257" y="-903.6" font-family="Times-Roman" font-size="14.00">PiL</text>
</g>
<!-- PiL0&#45;&gt;!d1 -->
<g id="edge4" class="edge">
<title>PiL0&#45;&gt;!d1</title>
<g id="a_edge4"><a xlink:title="e17">
<path fill="none" stroke="blue" d="M275.17,-883.17C283.37,-872.74 292.81,-860.71 300.09,-851.45"/>
<polygon fill="blue" stroke="blue" points="272.36,-881.08 268.93,-891.11 277.86,-885.41 272.36,-881.08"/>
</a>
</g>
</g>
<!-- !p3 -->
<g id="node20" class="node">
<title>!p3</title>
<ellipse fill="none" stroke="black" cx="240" cy="-835.3" rx="27" ry="18"/>
<text text-anchor="middle" x="240" y="-831.6" font-family="Times-Roman" font-size="14.00">!p</text>
</g>
<!-- PiL0&#45;&gt;!p3 -->
<g id="edge6" class="edge">
<title>PiL0&#45;&gt;!p3</title>
<g id="a_edge6"><a xlink:title="e21">
<path fill="none" stroke="red" d="M252.88,-889.35C250.99,-881.56 248.7,-872.12 246.58,-863.37"/>
<polygon fill="red" stroke="red" points="249.96,-862.46 244.2,-853.57 243.15,-864.11 249.96,-862.46"/>
</a>
</g>
</g>
<!-- I1&#45;&gt;PiL0 -->
<g id="edge5" class="edge">
<title>I1&#45;&gt;PiL0</title>
<g id="a_edge5"><a xlink:title="e19">
<path fill="none" stroke="blue" d="M257,-950.96C257,-942.35 257,-933.09 257,-925.4"/>
<polygon fill="blue" stroke="blue" points="253.5,-950.99 257,-960.99 260.5,-950.99 253.5,-950.99"/>
</a>
</g>
</g>
<!-- PiL3 -->
<g id="node19" class="node">
<title>PiL3</title>
<ellipse fill="none" stroke="black" cx="393" cy="-1339.3" rx="27" ry="18"/>
<text text-anchor="middle" x="393" y="-1335.6" font-family="Times-Roman" font-size="14.00">PiL</text>
</g>
<!-- I2&#45;&gt;PiL3 -->
<g id="edge9" class="edge">
<title>I2&#45;&gt;PiL3</title>
<g id="a_edge9"><a xlink:title="e32">
<path fill="none" stroke="blue" stroke-width="2" d="M393,-1382.96C393,-1374.35 393,-1365.09 393,-1357.4"/>
<polygon fill="blue" stroke="blue" stroke-width="2" points="389.5,-1382.99 393,-1392.99 396.5,-1382.99 389.5,-1382.99"/>
</a>
</g>
</g>
<!-- !p2 -->
<g id="node11" class="node">
<title>!p2</title>
<ellipse fill="none" stroke="black" cx="168" cy="-835.3" rx="27" ry="18"/>
<text text-anchor="middle" x="168" y="-831.6" font-family="Times-Roman" font-size="14.00">!p</text>
</g>
<!-- PiR0 -->
<g id="node13" class="node">
<title>PiR0</title>
<ellipse fill="none" stroke="black" cx="168" cy="-763.3" rx="27" ry="18"/>
<text text-anchor="middle" x="168" y="-759.6" font-family="Times-Roman" font-size="14.00">PiR</text>
</g>
<!-- !p2&#45;&gt;PiR0 -->
<g id="edge13" class="edge">
<title>!p2&#45;&gt;PiR0</title>
<g id="a_edge13"><a xlink:title="e39">
<path fill="none" stroke="red" d="M168,-816.99C168,-809.28 168,-800.01 168,-791.41"/>
<polygon fill="red" stroke="red" points="171.5,-791.4 168,-781.4 164.5,-791.4 171.5,-791.4"/>
</a>
</g>
</g>
<!-- Cut1 -->
<g id="node12" class="node">
<title>Cut1</title>
<ellipse fill="none" stroke="black" cx="176" cy="-907.3" rx="27" ry="18"/>
<text text-anchor="middle" x="176" y="-903.6" font-family="Times-Roman" font-size="14.00">Cut</text>
</g>
<!-- Cut1&#45;&gt;!p2 -->
<g id="edge12" class="edge">
<title>Cut1&#45;&gt;!p2</title>
<g id="a_edge12"><a xlink:title="e37">
<path fill="none" stroke="red" d="M174.02,-888.99C173.14,-881.28 172.08,-872.01 171.1,-863.41"/>
<polygon fill="red" stroke="red" points="174.57,-862.94 169.95,-853.4 167.61,-863.73 174.57,-862.94"/>
</a>
</g>
</g>
<!-- I3 -->
<g id="node18" class="node">
<title>I3</title>
<ellipse fill="none" stroke="black" cx="202" cy="-691.3" rx="27" ry="18"/>
<text text-anchor="middle" x="202" y="-687.6" font-family="Times-Roman" font-size="14.00">I</text>
</g>
<!-- PiR0&#45;&gt;I3 -->
<g id="edge15" class="edge">
<title>PiR0&#45;&gt;I3</title>
<g id="a_edge15"><a xlink:title="e43">
<path fill="none" stroke="red" d="M175.89,-746.06C179.9,-737.79 184.89,-727.53 189.42,-718.2"/>
<polygon fill="red" stroke="red" points="192.7,-719.45 193.92,-708.93 186.4,-716.39 192.7,-719.45"/>
</a>
</g>
</g>
<!-- !c0 -->
<g id="node14" class="node">
<title>!c0</title>
<ellipse fill="none" stroke="black" cx="147" cy="-403.3" rx="27" ry="18"/>
<text text-anchor="middle" x="147" y="-399.6" font-family="Times-Roman" font-size="14.00">!c</text>
</g>
<!-- !c0&#45;&gt;PiR0 -->
<g id="edge14" class="edge">
<title>!c0&#45;&gt;PiR0</title>
<g id="a_edge14"><a xlink:title="e41">
<path fill="none" stroke="blue" d="M147,-431.38C147,-459.95 147,-506.29 147,-546.3 147,-620.3 147,-620.3 147,-620.3 147,-665.9 157.73,-718.87 163.85,-745.37"/>
<polygon fill="blue" stroke="blue" points="150.5,-431.34 147,-421.34 143.5,-431.34 150.5,-431.34"/>
</a>
</g>
</g>
<!-- !d2 -->
<g id="node15" class="node">
<title>!d2</title>
<ellipse fill="none" stroke="black" cx="206" cy="-475.3" rx="27" ry="18"/>
<text text-anchor="middle" x="206" y="-471.6" font-family="Times-Roman" font-size="14.00">!d</text>
</g>
<!-- !d2&#45;&gt;!c0 -->
<g id="edge17" class="edge">
<title>!d2&#45;&gt;!c0</title>
<g id="a_edge17"><a xlink:title="e46">
<path fill="none" stroke="blue" d="M186.51,-451.17C177.72,-440.74 167.58,-428.71 159.78,-419.45"/>
<polygon fill="blue" stroke="blue" points="184.08,-453.72 193.2,-459.11 189.43,-449.2 184.08,-453.72"/>
</a>
</g>
</g>
<!-- PiL1 -->
<g id="node16" class="node">
<title>PiL1</title>
<ellipse fill="none" stroke="black" cx="212" cy="-547.3" rx="27" ry="18"/>
<text text-anchor="middle" x="212" y="-543.6" font-family="Times-Roman" font-size="14.00">PiL</text>
</g>
<!-- PiL1&#45;&gt;!d2 -->
<g id="edge19" class="edge">
<title>PiL1&#45;&gt;!d2</title>
<g id="a_edge19"><a xlink:title="e49">
<path fill="none" stroke="blue" d="M209.66,-518.96C208.92,-510.35 208.12,-501.09 207.47,-493.4"/>
<polygon fill="blue" stroke="blue" points="206.18,-519.33 210.52,-528.99 213.15,-518.73 206.18,-519.33"/>
</a>
</g>
</g>
<!-- !p5 -->
<g id="node34" class="node">
<title>!p5</title>
<ellipse fill="none" stroke="black" cx="280" cy="-475.3" rx="27" ry="18"/>
<text text-anchor="middle" x="280" y="-471.6" font-family="Times-Roman" font-size="14.00">!p</text>
</g>
<!-- PiL1&#45;&gt;!p5 -->
<g id="edge21" class="edge">
<title>PiL1&#45;&gt;!p5</title>
<g id="a_edge21"><a xlink:title="e53">
<path fill="none" stroke="red" d="M226.09,-531.79C235.57,-522.03 248.24,-508.99 258.92,-498"/>
<polygon fill="red" stroke="red" points="261.47,-500.39 265.93,-490.78 256.45,-495.51 261.47,-500.39"/>
</a>
</g>
</g>
<!-- PiL2 -->
<g id="node17" class="node">
<title>PiL2</title>
<ellipse fill="none" stroke="black" cx="212" cy="-619.3" rx="27" ry="18"/>
<text text-anchor="middle" x="212" y="-615.6" font-family="Times-Roman" font-size="14.00">PiL</text>
</g>
<!-- PiL2&#45;&gt;PiL1 -->
<g id="edge20" class="edge">
<title>PiL2&#45;&gt;PiL1</title>
<g id="a_edge20"><a xlink:title="e51">
<path fill="none" stroke="blue" d="M212,-590.96C212,-582.35 212,-573.09 212,-565.4"/>
<polygon fill="blue" stroke="blue" points="208.5,-590.99 212,-600.99 215.5,-590.99 208.5,-590.99"/>
</a>
</g>
</g>
<!-- Dup3_1 -->
<g id="node39" class="node">
<title>Dup3_1</title>
<ellipse fill="none" stroke="black" cx="365" cy="-547.3" rx="29.5" ry="18"/>
<text text-anchor="middle" x="365" y="-543.6" font-family="Times-Roman" font-size="14.00">Dup</text>
</g>
<!-- PiL2&#45;&gt;Dup3_1 -->
<g id="edge25" class="edge">
<title>PiL2&#45;&gt;Dup3_1</title>
<g id="a_edge25"><a xlink:title="e57">
<path fill="none" stroke="red" d="M233.6,-608.41C259.99,-596.34 304.8,-575.84 334.65,-562.18"/>
<ellipse fill="none" stroke="red" cx="338.63" cy="-560.36" rx="4" ry="4"/>
</a>
</g>
</g>
<!-- I3&#45;&gt;PiL2 -->
<g id="edge23" class="edge">
<title>I3&#45;&gt;PiL2</title>
<g id="a_edge23"><a xlink:title="e55">
<path fill="none" stroke="blue" d="M205.86,-663.3C207.09,-654.66 208.42,-645.33 209.53,-637.57"/>
<polygon fill="blue" stroke="blue" points="202.37,-662.96 204.42,-673.35 209.3,-663.95 202.37,-662.96"/>
</a>
</g>
</g>
<!-- Dup1_1 -->
<g id="node30" class="node">
<title>Dup1_1</title>
<ellipse fill="none" stroke="black" cx="365" cy="-1267.3" rx="29.5" ry="18"/>
<text text-anchor="middle" x="365" y="-1263.6" font-family="Times-Roman" font-size="14.00">Dup</text>
</g>
<!-- PiL3&#45;&gt;Dup1_1 -->
<g id="edge10" class="edge">
<title>PiL3&#45;&gt;Dup1_1</title>
<g id="a_edge10"><a xlink:title="e34">
<path fill="none" stroke="red" d="M386.36,-1321.71C382.93,-1313.11 378.66,-1302.45 374.85,-1292.92"/>
<ellipse fill="red" stroke="red" cx="373.27" cy="-1288.97" rx="4" ry="4"/>
</a>
</g>
</g>
<!-- PiL4 -->
<g id="node33" class="node">
<title>PiL4</title>
<ellipse fill="none" stroke="black" cx="422" cy="-619.3" rx="27" ry="18"/>
<text text-anchor="middle" x="422" y="-615.6" font-family="Times-Roman" font-size="14.00">PiL</text>
</g>
<!-- PiL3&#45;&gt;PiL4 -->
<g id="edge22" class="edge">
<title>PiL3&#45;&gt;PiL4</title>
<g id="a_edge22"><a xlink:title="e54">
<path fill="none" stroke="blue" stroke-width="2" d="M401.7,-1311.92C410.25,-1283.65 422,-1237.3 422,-1196.3 422,-1196.3 422,-1196.3 422,-762.3 422,-717.18 422,-664 422,-637.34"/>
<polygon fill="blue" stroke="blue" stroke-width="2" points="398.36,-1310.88 398.73,-1321.47 405.04,-1312.97 398.36,-1310.88"/>
</a>
</g>
</g>
<!-- PiR1 -->
<g id="node23" class="node">
<title>PiR1</title>
<ellipse fill="none" stroke="black" cx="274" cy="-763.3" rx="27" ry="18"/>
<text text-anchor="middle" x="274" y="-759.6" font-family="Times-Roman" font-size="14.00">PiR</text>
</g>
<!-- !p3&#45;&gt;PiR1 -->
<g id="edge26" class="edge">
<title>!p3&#45;&gt;PiR1</title>
<g id="a_edge26"><a xlink:title="e59">
<path fill="none" stroke="red" d="M247.89,-818.06C251.9,-809.79 256.89,-799.53 261.42,-790.2"/>
<polygon fill="red" stroke="red" points="264.7,-791.45 265.92,-780.93 258.4,-788.39 264.7,-791.45"/>
</a>
</g>
</g>
<!-- !p4 -->
<g id="node21" class="node">
<title>!p4</title>
<ellipse fill="none" stroke="black" cx="54" cy="-763.3" rx="27" ry="18"/>
<text text-anchor="middle" x="54" y="-759.6" font-family="Times-Roman" font-size="14.00">!p</text>
</g>
<!-- PiR2 -->
<g id="node24" class="node">
<title>PiR2</title>
<ellipse fill="none" stroke="black" cx="54" cy="-691.3" rx="27" ry="18"/>
<text text-anchor="middle" x="54" y="-687.6" font-family="Times-Roman" font-size="14.00">PiR</text>
</g>
<!-- !p4&#45;&gt;PiR2 -->
<g id="edge28" class="edge">
<title>!p4&#45;&gt;PiR2</title>
<g id="a_edge28"><a xlink:title="e65">
<path fill="none" stroke="red" d="M54,-744.99C54,-737.28 54,-728.01 54,-719.41"/>
<polygon fill="red" stroke="red" points="57.5,-719.4 54,-709.4 50.5,-719.4 57.5,-719.4"/>
</a>
</g>
</g>
<!-- Cut2 -->
<g id="node22" class="node">
<title>Cut2</title>
<ellipse fill="none" stroke="black" cx="54" cy="-835.3" rx="27" ry="18"/>
<text text-anchor="middle" x="54" y="-831.6" font-family="Times-Roman" font-size="14.00">Cut</text>
</g>
<!-- Cut2&#45;&gt;!p4 -->
<g id="edge27" class="edge">
<title>Cut2&#45;&gt;!p4</title>
<g id="a_edge27"><a xlink:title="e63">
<path fill="none" stroke="red" d="M54,-816.99C54,-809.28 54,-800.01 54,-791.41"/>
<polygon fill="red" stroke="red" points="57.5,-791.4 54,-781.4 50.5,-791.4 57.5,-791.4"/>
</a>
</g>
</g>
<!-- I4 -->
<g id="node26" class="node">
<title>I4</title>
<ellipse fill="none" stroke="black" cx="274" cy="-691.3" rx="27" ry="18"/>
<text text-anchor="middle" x="274" y="-687.6" font-family="Times-Roman" font-size="14.00">I</text>
</g>
<!-- PiR1&#45;&gt;I4 -->
<g id="edge30" class="edge">
<title>PiR1&#45;&gt;I4</title>
<g id="a_edge30"><a xlink:title="e69">
<path fill="none" stroke="red" d="M274,-744.99C274,-737.28 274,-728.01 274,-719.41"/>
<polygon fill="red" stroke="red" points="277.5,-719.4 274,-709.4 270.5,-719.4 277.5,-719.4"/>
</a>
</g>
</g>
<!-- I6 -->
<g id="node32" class="node">
<title>I6</title>
<ellipse fill="none" stroke="black" cx="54" cy="-619.3" rx="27" ry="18"/>
<text text-anchor="middle" x="54" y="-615.6" font-family="Times-Roman" font-size="14.00">I</text>
</g>
<!-- PiR2&#45;&gt;I6 -->
<g id="edge34" class="edge">
<title>PiR2&#45;&gt;I6</title>
<g id="a_edge34"><a xlink:title="e77">
<path fill="none" stroke="red" d="M54,-672.99C54,-665.28 54,-656.01 54,-647.41"/>
<polygon fill="red" stroke="red" points="57.5,-647.4 54,-637.4 50.5,-647.4 57.5,-647.4"/>
</a>
</g>
</g>
<!-- !d3 -->
<g id="node25" class="node">
<title>!d3</title>
<ellipse fill="none" stroke="black" cx="303" cy="-619.3" rx="27" ry="18"/>
<text text-anchor="middle" x="303" y="-615.6" font-family="Times-Roman" font-size="14.00">!d</text>
</g>
<!-- !d3&#45;&gt;PiR1 -->
<g id="edge29" class="edge">
<title>!d3&#45;&gt;PiR1</title>
<g id="a_edge29"><a xlink:title="e67">
<path fill="none" stroke="blue" d="M310.17,-646.92C313.79,-664.9 316.25,-688.99 310,-709.3 305.62,-723.54 295.96,-737.4 287.75,-747.36"/>
<polygon fill="blue" stroke="blue" points="313.57,-646.09 307.96,-637.1 306.74,-647.63 313.57,-646.09"/>
</a>
</g>
</g>
<!-- I4&#45;&gt;!d3 -->
<g id="edge35" class="edge">
<title>I4&#45;&gt;!d3</title>
<g id="a_edge35"><a xlink:title="e79">
<path fill="none" stroke="blue" d="M284.81,-664.21C288.62,-655.01 292.79,-644.94 296.18,-636.77"/>
<polygon fill="blue" stroke="blue" points="281.47,-663.13 280.87,-673.71 287.93,-665.81 281.47,-663.13"/>
</a>
</g>
</g>
<!-- !d4 -->
<g id="node27" class="node">
<title>!d4</title>
<ellipse fill="none" stroke="black" cx="299" cy="-162" rx="27" ry="18"/>
<text text-anchor="middle" x="299" y="-158.3" font-family="Times-Roman" font-size="14.00">!d</text>
</g>
<!-- Dup3_2 -->
<g id="node40" class="node">
<title>Dup3_2</title>
<ellipse fill="none" stroke="black" cx="325" cy="-90" rx="29.5" ry="18"/>
<text text-anchor="middle" x="325" y="-86.3" font-family="Times-Roman" font-size="14.00">Dup</text>
</g>
<!-- !d4&#45;&gt;Dup3_2 -->
<g id="edge31" class="edge">
<title>!d4&#45;&gt;Dup3_2</title>
<g id="a_edge31"><a xlink:title="e71">
<path fill="none" stroke="blue" d="M308.74,-134.77C312.08,-125.79 315.71,-116 318.7,-107.96"/>
<polygon fill="blue" stroke="blue" points="305.36,-133.82 305.16,-144.41 311.92,-136.26 305.36,-133.82"/>
</a>
</g>
</g>
<!-- I5 -->
<g id="node28" class="node">
<title>I5</title>
<ellipse fill="none" stroke="black" cx="299" cy="-234" rx="27" ry="18"/>
<text text-anchor="middle" x="299" y="-230.3" font-family="Times-Roman" font-size="14.00">I</text>
</g>
<!-- I5&#45;&gt;!d4 -->
<g id="edge36" class="edge">
<title>I5&#45;&gt;!d4</title>
<g id="a_edge36"><a xlink:title="e81">
<path fill="none" stroke="blue" d="M299,-205.67C299,-197.05 299,-187.79 299,-180.1"/>
<polygon fill="blue" stroke="blue" points="295.5,-205.7 299,-215.7 302.5,-205.7 295.5,-205.7"/>
</a>
</g>
</g>
<!-- Dup1_0&#45;&gt;Cut1 -->
<g id="edge7" class="edge">
<title>Dup1_0&#45;&gt;Cut1</title>
<g id="a_edge7"><a xlink:title="e23">
<path fill="none" stroke="blue" d="M176,-952.94C176,-943.78 176,-933.68 176,-925.4"/>
<ellipse fill="blue" stroke="blue" cx="176" cy="-956.99" rx="4" ry="4"/>
</a>
</g>
</g>
<!-- Dup3_0 -->
<g id="node38" class="node">
<title>Dup3_0</title>
<ellipse fill="none" stroke="black" cx="102" cy="-907.3" rx="29.5" ry="18"/>
<text text-anchor="middle" x="102" y="-903.6" font-family="Times-Roman" font-size="14.00">Dup</text>
</g>
<!-- Dup1_0&#45;&gt;Dup3_0 -->
<g id="edge8" class="edge">
<title>Dup1_0&#45;&gt;Dup3_0</title>
<g id="a_edge8"><a xlink:title="e25">
<path fill="none" stroke="blue" d="M154.7,-958.15C142.75,-946.84 128.12,-933.01 117.31,-922.78"/>
<ellipse fill="none" stroke="blue" cx="157.76" cy="-961.04" rx="4" ry="4"/>
</a>
</g>
</g>
<!-- Dup1_1&#45;&gt;!p0 -->
<g id="edge51" class="edge">
<title>Dup1_1&#45;&gt;!p0</title>
<g id="a_edge51"><a xlink:title="ylp">
<path fill="none" stroke="red" d="M347.61,-1252.47C334.55,-1242.07 316.47,-1227.69 301.88,-1216.08"/>
<polygon fill="red" stroke="red" points="303.76,-1213.11 293.75,-1209.62 299.4,-1218.59 303.76,-1213.11"/>
</a>
</g>
</g>
<!-- !d5 -->
<g id="node31" class="node">
<title>!d5</title>
<ellipse fill="none" stroke="black" cx="27" cy="-547.3" rx="27" ry="18"/>
<text text-anchor="middle" x="27" y="-543.6" font-family="Times-Roman" font-size="14.00">!d</text>
</g>
<!-- !d5&#45;&gt;PiR2 -->
<g id="edge33" class="edge">
<title>!d5&#45;&gt;PiR2</title>
<g id="a_edge33"><a xlink:title="e75">
<path fill="none" stroke="blue" d="M18.93,-574.89C14.77,-592.87 11.74,-616.94 18,-637.3 22.38,-651.54 32.04,-665.4 40.25,-675.36"/>
<polygon fill="blue" stroke="blue" points="22.35,-575.64 21.45,-565.08 15.57,-573.9 22.35,-575.64"/>
</a>
</g>
</g>
<!-- I6&#45;&gt;!d5 -->
<g id="edge38" class="edge">
<title>I6&#45;&gt;!d5</title>
<g id="a_edge38"><a xlink:title="e83">
<path fill="none" stroke="blue" d="M43.99,-592.35C40.5,-583.3 36.68,-573.38 33.54,-565.25"/>
<polygon fill="blue" stroke="blue" points="40.74,-593.64 47.6,-601.71 47.27,-591.12 40.74,-593.64"/>
</a>
</g>
</g>
<!-- Cut3 -->
<g id="node35" class="node">
<title>Cut3</title>
<ellipse fill="none" stroke="black" cx="421" cy="-318.65" rx="26.78" ry="26.78"/>
<ellipse fill="none" stroke="black" cx="421" cy="-318.65" rx="30.8" ry="30.8"/>
<text text-anchor="middle" x="421" y="-314.95" font-family="Times-Roman" font-size="14.00">Cut</text>
</g>
<!-- PiL4&#45;&gt;Cut3 -->
<g id="edge37" class="edge">
<title>PiL4&#45;&gt;Cut3</title>
<g id="a_edge37"><a xlink:title="e82">
<path fill="none" stroke="blue" stroke-width="2" d="M421.91,-590.7C421.72,-534.49 421.29,-407.19 421.1,-349.3"/>
<polygon fill="blue" stroke="blue" stroke-width="2" points="418.41,-590.96 421.94,-600.95 425.41,-590.94 418.41,-590.96"/>
</a>
</g>
</g>
<!-- PiL4&#45;&gt;Dup3_1 -->
<g id="edge24" class="edge">
<title>PiL4&#45;&gt;Dup3_1</title>
<g id="a_edge24"><a xlink:title="e56">
<path fill="none" stroke="red" d="M409.63,-603.11C401.82,-593.52 391.6,-580.97 382.92,-570.3"/>
<ellipse fill="red" stroke="red" cx="380.26" cy="-567.04" rx="4" ry="4"/>
</a>
</g>
</g>
<!-- PiR4 -->
<g id="node37" class="node">
<title>PiR4</title>
<ellipse fill="none" stroke="black" cx="281" cy="-403.3" rx="27" ry="18"/>
<text text-anchor="middle" x="281" y="-399.6" font-family="Times-Roman" font-size="14.00">PiR</text>
</g>
<!-- !p5&#45;&gt;PiR4 -->
<g id="edge40" class="edge">
<title>!p5&#45;&gt;PiR4</title>
<g id="a_edge40"><a xlink:title="e85">
<path fill="none" stroke="red" d="M280.25,-456.99C280.36,-449.28 280.49,-440.01 280.61,-431.41"/>
<polygon fill="red" stroke="red" points="284.11,-431.45 280.76,-421.4 277.11,-431.35 284.11,-431.45"/>
</a>
</g>
</g>
<!-- PiR3 -->
<g id="node36" class="node">
<title>PiR3</title>
<ellipse fill="none" stroke="black" cx="325" cy="-18" rx="27" ry="18"/>
<text text-anchor="middle" x="325" y="-14.3" font-family="Times-Roman" font-size="14.00">PiR</text>
</g>
<!-- Cut3&#45;&gt;PiR3 -->
<g id="edge39" class="edge">
<title>Cut3&#45;&gt;PiR3</title>
<g id="a_edge39"><a xlink:title="e84">
<path fill="none" stroke="red" d="M417.79,-288.09C411.83,-240.7 396.48,-145.59 363,-72 358.17,-61.38 351.07,-50.72 344.31,-41.77"/>
<polygon fill="red" stroke="red" points="346.95,-39.47 338.02,-33.78 341.45,-43.8 346.95,-39.47"/>
</a>
</g>
</g>
<!-- Dup3_3 -->
<g id="node41" class="node">
<title>Dup3_3</title>
<ellipse fill="none" stroke="black" cx="281" cy="-318.65" rx="29.5" ry="18"/>
<text text-anchor="middle" x="281" y="-314.95" font-family="Times-Roman" font-size="14.00">Dup</text>
</g>
<!-- PiR3&#45;&gt;Dup3_3 -->
<g id="edge43" class="edge">
<title>PiR3&#45;&gt;Dup3_3</title>
<g id="a_edge43"><a xlink:title="e88">
<path fill="none" stroke="red" d="M312.39,-33.98C304.29,-44.18 294,-58.28 287,-72 271.67,-102.04 268.4,-110.7 263,-144 255.31,-191.38 256.6,-204.43 263,-252 264.86,-265.8 268.82,-280.8 272.55,-292.98"/>
<ellipse fill="red" stroke="red" cx="273.86" cy="-297.09" rx="4" ry="4"/>
</a>
</g>
</g>
<!-- PiR4&#45;&gt;Dup3_3 -->
<g id="edge44" class="edge">
<title>PiR4&#45;&gt;Dup3_3</title>
<g id="a_edge44"><a xlink:title="e89">
<path fill="none" stroke="red" d="M281,-385.17C281,-373.54 281,-357.95 281,-344.89"/>
<ellipse fill="none" stroke="red" cx="281" cy="-340.75" rx="4" ry="4"/>
</a>
</g>
</g>
<!-- Dup3_0&#45;&gt;!c0 -->
<g id="edge18" class="edge">
<title>Dup3_0&#45;&gt;!c0</title>
<g id="a_edge18"><a xlink:title="e47">
<path fill="none" stroke="blue" d="M103.99,-881.1C106.06,-852.72 109,-805.23 109,-764.3 109,-764.3 109,-764.3 109,-546.3 109,-499.59 128.42,-447.1 139.49,-420.96"/>
<ellipse fill="none" stroke="blue" cx="103.68" cy="-885.27" rx="4" ry="4"/>
</a>
</g>
</g>
<!-- Dup3_0&#45;&gt;Cut2 -->
<g id="edge16" class="edge">
<title>Dup3_0&#45;&gt;Cut2</title>
<g id="a_edge16"><a xlink:title="e45">
<path fill="none" stroke="blue" d="M86.44,-883.6C79.39,-873.32 71.22,-861.41 64.85,-852.12"/>
<ellipse fill="blue" stroke="blue" cx="88.85" cy="-887.11" rx="4" ry="4"/>
</a>
</g>
</g>
<!-- Dup3_1&#45;&gt;Dup1_1 -->
<g id="edge11" class="edge">
<title>Dup3_1&#45;&gt;Dup1_1</title>
<g id="a_edge11"><a xlink:title="e35">
<path fill="none" stroke="red" d="M365.4,-565.34C365.98,-592 367,-645.18 367,-690.3 367,-1124.3 367,-1124.3 367,-1124.3 367,-1165.18 366.16,-1212.69 365.57,-1241.08"/>
<ellipse fill="none" stroke="red" cx="365.48" cy="-1245.25" rx="4" ry="4"/>
</a>
</g>
</g>
<!-- Dup3_2&#45;&gt;PiR3 -->
<g id="edge41" class="edge">
<title>Dup3_2&#45;&gt;PiR3</title>
<g id="a_edge41"><a xlink:title="e86">
<path fill="none" stroke="blue" d="M325,-63.64C325,-54.49 325,-44.38 325,-36.1"/>
<ellipse fill="blue" stroke="blue" cx="325" cy="-67.7" rx="4" ry="4"/>
</a>
</g>
</g>
<!-- Dup3_2&#45;&gt;PiR4 -->
<g id="edge42" class="edge">
<title>Dup3_2&#45;&gt;PiR4</title>
<g id="a_edge42"><a xlink:title="e87">
<path fill="none" stroke="blue" d="M330.72,-116.07C332.46,-124.85 334.14,-134.82 335,-144 343.52,-235.12 354.01,-264.74 319,-349.3 313.2,-363.31 303.06,-377.18 294.71,-387.21"/>
<ellipse fill="none" stroke="blue" cx="329.87" cy="-111.99" rx="4" ry="4"/>
</a>
</g>
</g>
<!-- Dup3_3&#45;&gt;I5 -->
<g id="edge32" class="edge">
<title>Dup3_3&#45;&gt;I5</title>
<g id="a_edge32"><a xlink:title="e73">
<path fill="none" stroke="red" d="M284.73,-300.52C287.14,-289.44 290.34,-274.78 293.09,-262.13"/>
<polygon fill="red" stroke="red" points="296.57,-262.62 295.28,-252.1 289.73,-261.13 296.57,-262.62"/>
</a>
</g>
</g>
</g>
</svg>
