<?xml version="1.0" encoding="UTF-8" standalone="no"?>
<!DOCTYPE svg PUBLIC "-//W3C//DTD SVG 1.1//EN"
 "http://www.w3.org/Graphics/SVG/1.1/DTD/svg11.dtd">
<!-- Generated by graphviz version 2.49.3 (0)
 -->
<!-- Pages: 1 -->
<svg width="682pt" height="1371pt"
 viewBox="0.00 0.00 682.00 1370.80" xmlns="http://www.w3.org/2000/svg" xmlns:xlink="http://www.w3.org/1999/xlink">
<g id="graph0" class="graph" transform="scale(1 1) rotate(0) translate(4 1366.8)">
<polygon fill="white" stroke="transparent" points="-4,4 -4,-1366.8 678,-1366.8 678,4 -4,4"/>
<!-- I0 -->
<g id="node1" class="node">
<title>I0</title>
<ellipse fill="none" stroke="black" cx="27" cy="-850.8" rx="27" ry="18"/>
<text text-anchor="middle" x="27" y="-847.1" font-family="Times,serif" font-size="14.00">I</text>
</g>
<!-- !d1 -->
<g id="node2" class="node">
<title>!d1</title>
<ellipse fill="none" stroke="black" cx="82" cy="-763.8" rx="27" ry="18"/>
<text text-anchor="middle" x="82" y="-760.1" font-family="Times,serif" font-size="14.00">!d</text>
</g>
<!-- I0&#45;&gt;!d1 -->
<g id="edge4" class="edge">
<title>I0&#45;&gt;!d1</title>
<g id="a_edge4"><a xlink:title="iret84">
<path fill="none" stroke="blue" d="M42.8,-825.38C52.09,-811.02 63.57,-793.28 71.7,-780.71"/>
<polygon fill="blue" stroke="blue" points="39.84,-823.51 37.35,-833.81 45.72,-827.31 39.84,-823.51"/>
</a>
</g>
<text text-anchor="middle" x="61.5" y="-803.6" font-family="Times,serif" font-size="14.00">3</text>
</g>
<!-- λ2 -->
<g id="node3" class="node">
<title>λ2</title>
<ellipse fill="none" stroke="black" cx="82" cy="-676.8" rx="27" ry="18"/>
<text text-anchor="middle" x="82" y="-673.1" font-family="Times,serif" font-size="14.00">λ</text>
</g>
<!-- !d1&#45;&gt;λ2 -->
<g id="edge3" class="edge">
<title>!d1&#45;&gt;λ2</title>
<g id="a_edge3"><a xlink:title="i81">
<path fill="none" stroke="blue" d="M82,-735.53C82,-722.22 82,-706.6 82,-694.97"/>
<polygon fill="blue" stroke="blue" points="78.5,-735.59 82,-745.59 85.5,-735.59 78.5,-735.59"/>
</a>
</g>
<text text-anchor="middle" x="85.5" y="-716.6" font-family="Times,serif" font-size="14.00">3</text>
</g>
<!-- λ2&#45;&gt;I0 -->
<g id="edge26" class="edge">
<title>λ2&#45;&gt;I0</title>
<g id="a_edge26"><a xlink:title="ret82">
<path fill="none" stroke="red" d="M71.81,-693.65C63.65,-707.04 52.52,-726.99 46,-745.8 37.2,-771.16 32.26,-801.5 29.63,-822.84"/>
<polygon fill="red" stroke="red" points="26.15,-822.49 28.49,-832.82 33.1,-823.28 26.15,-822.49"/>
</a>
</g>
</g>
<!-- !p3 -->
<g id="node4" class="node">
<title>!p3</title>
<ellipse fill="none" stroke="black" cx="154" cy="-763.8" rx="27" ry="18"/>
<text text-anchor="middle" x="154" y="-760.1" font-family="Times,serif" font-size="14.00">!p</text>
</g>
<!-- !p3&#45;&gt;λ2 -->
<g id="edge20" class="edge">
<title>!p3&#45;&gt;λ2</title>
<g id="a_edge20"><a xlink:title="newrretf78">
<path fill="none" stroke="red" d="M141.13,-747.6C130.07,-734.55 113.96,-715.53 101.35,-700.64"/>
<polygon fill="red" stroke="red" points="103.89,-698.23 94.76,-692.86 98.55,-702.75 103.89,-698.23"/>
</a>
</g>
<text text-anchor="middle" x="126.5" y="-716.6" font-family="Times,serif" font-size="14.00">3</text>
</g>
<!-- I4 -->
<g id="node5" class="node">
<title>I4</title>
<ellipse fill="none" stroke="black" cx="209" cy="-589.8" rx="27" ry="18"/>
<text text-anchor="middle" x="209" y="-586.1" font-family="Times,serif" font-size="14.00">I</text>
</g>
<!-- @5 -->
<g id="node6" class="node">
<title>@5</title>
<ellipse fill="none" stroke="black" cx="190" cy="-850.8" rx="27" ry="18"/>
<text text-anchor="middle" x="190" y="-847.1" font-family="Times,serif" font-size="14.00">@</text>
</g>
<!-- I4&#45;&gt;@5 -->
<g id="edge8" class="edge">
<title>I4&#45;&gt;@5</title>
<g id="a_edge8"><a xlink:title="lret75">
<path fill="none" stroke="blue" d="M207.01,-617.94C203.09,-671.4 194.47,-788.9 191.25,-832.8"/>
<polygon fill="blue" stroke="blue" points="210.51,-618.08 207.75,-607.85 203.53,-617.57 210.51,-618.08"/>
</a>
</g>
</g>
<!-- @5&#45;&gt;!p3 -->
<g id="edge15" class="edge">
<title>@5&#45;&gt;!p3</title>
<g id="a_edge15"><a xlink:title="newrret74">
<path fill="none" stroke="red" d="M182.89,-833C177.78,-820.93 170.79,-804.43 164.97,-790.69"/>
<polygon fill="red" stroke="red" points="168.1,-789.11 160.98,-781.26 161.65,-791.84 168.1,-789.11"/>
</a>
</g>
<text text-anchor="middle" x="178.5" y="-803.6" font-family="Times,serif" font-size="14.00">2</text>
</g>
<!-- !d6 -->
<g id="node7" class="node">
<title>!d6</title>
<ellipse fill="none" stroke="black" cx="264" cy="-763.8" rx="27" ry="18"/>
<text text-anchor="middle" x="264" y="-760.1" font-family="Times,serif" font-size="14.00">!d</text>
</g>
<!-- @5&#45;&gt;!d6 -->
<g id="edge11" class="edge">
<title>@5&#45;&gt;!d6</title>
<g id="a_edge11"><a xlink:title="lval70">
<path fill="none" stroke="blue" d="M211.05,-827.93C215.07,-823.63 219.21,-819.11 223,-814.8 232.93,-803.5 243.7,-790.33 251.71,-780.34"/>
<polygon fill="blue" stroke="blue" points="208.36,-825.69 204.04,-835.36 213.45,-830.49 208.36,-825.69"/>
</a>
</g>
<text text-anchor="middle" x="239.5" y="-803.6" font-family="Times,serif" font-size="14.00">2</text>
</g>
<!-- !p7 -->
<g id="node8" class="node">
<title>!p7</title>
<ellipse fill="none" stroke="black" cx="264" cy="-676.8" rx="27" ry="18"/>
<text text-anchor="middle" x="264" y="-673.1" font-family="Times,serif" font-size="14.00">!p</text>
</g>
<!-- !d6&#45;&gt;!p7 -->
<g id="edge2" class="edge">
<title>!d6&#45;&gt;!p7</title>
<g id="a_edge2"><a xlink:title="hf65">
<path fill="none" stroke="blue" d="M264,-735.53C264,-722.22 264,-706.6 264,-694.97"/>
<polygon fill="blue" stroke="blue" points="260.5,-735.59 264,-745.59 267.5,-735.59 260.5,-735.59"/>
</a>
</g>
<text text-anchor="middle" x="267.5" y="-716.6" font-family="Times,serif" font-size="14.00">1</text>
</g>
<!-- !p7&#45;&gt;I4 -->
<g id="edge19" class="edge">
<title>!p7&#45;&gt;I4</title>
<g id="a_edge19"><a xlink:title="newrretf66">
<path fill="none" stroke="red" d="M253.65,-659.81C245.51,-647.22 234.03,-629.47 224.74,-615.13"/>
<polygon fill="red" stroke="red" points="227.67,-613.21 219.3,-606.71 221.79,-617.01 227.67,-613.21"/>
</a>
</g>
<text text-anchor="middle" x="243.5" y="-629.6" font-family="Times,serif" font-size="14.00">2</text>
</g>
<!-- λ16 -->
<g id="node17" class="node">
<title>λ16</title>
<ellipse fill="none" stroke="black" cx="336" cy="-589.8" rx="27" ry="18"/>
<text text-anchor="middle" x="336" y="-586.1" font-family="Times,serif" font-size="14.00">λ</text>
</g>
<!-- !p7&#45;&gt;λ16 -->
<g id="edge1" class="edge">
<title>!p7&#45;&gt;λ16</title>
<g id="a_edge1"><a xlink:title="h34">
<path fill="none" stroke="blue" d="M283.48,-652.8C296.11,-637.88 312.22,-618.87 323.24,-605.86"/>
<polygon fill="blue" stroke="blue" points="280.66,-650.71 276.87,-660.6 286.01,-655.23 280.66,-650.71"/>
</a>
</g>
<text text-anchor="middle" x="307.5" y="-629.6" font-family="Times,serif" font-size="14.00">1</text>
</g>
<!-- I8 -->
<g id="node9" class="node">
<title>I8</title>
<ellipse fill="none" stroke="black" cx="336" cy="-516.8" rx="27" ry="18"/>
<text text-anchor="middle" x="336" y="-513.1" font-family="Times,serif" font-size="14.00">I</text>
</g>
<!-- Cut33 -->
<g id="node34" class="node">
<title>Cut33</title>
<ellipse fill="none" stroke="black" cx="351" cy="-434.4" rx="23.31" ry="23.31"/>
<ellipse fill="none" stroke="black" cx="351" cy="-434.4" rx="27.3" ry="27.3"/>
<text text-anchor="middle" x="351" y="-430.7" font-family="Times,serif" font-size="14.00">Cut</text>
</g>
<!-- I8&#45;&gt;Cut33 -->
<g id="edge7" class="edge">
<title>I8&#45;&gt;Cut33</title>
<g id="a_edge7"><a xlink:title="lret62">
<path fill="none" stroke="blue" d="M341.06,-488.68C342.69,-479.94 344.49,-470.28 346.11,-461.61"/>
<polygon fill="blue" stroke="blue" points="337.57,-488.27 339.18,-498.75 344.46,-489.56 337.57,-488.27"/>
</a>
</g>
</g>
<!-- I9 -->
<g id="node10" class="node">
<title>I9</title>
<ellipse fill="none" stroke="black" cx="391" cy="-105" rx="27" ry="18"/>
<text text-anchor="middle" x="391" y="-101.3" font-family="Times,serif" font-size="14.00">I</text>
</g>
<!-- !d10 -->
<g id="node11" class="node">
<title>!d10</title>
<ellipse fill="none" stroke="black" cx="423" cy="-18" rx="27" ry="18"/>
<text text-anchor="middle" x="423" y="-14.3" font-family="Times,serif" font-size="14.00">!d</text>
</g>
<!-- I9&#45;&gt;!d10 -->
<g id="edge35" class="edge">
<title>I9&#45;&gt;!d10</title>
<g id="a_edge35"><a xlink:title="yret60">
<path fill="none" stroke="blue" d="M400.86,-77.8C406.02,-64.1 412.18,-47.74 416.69,-35.76"/>
<polygon fill="blue" stroke="blue" points="397.57,-76.61 397.32,-87.21 404.12,-79.08 397.57,-76.61"/>
</a>
</g>
<text text-anchor="middle" x="411.5" y="-57.8" font-family="Times,serif" font-size="14.00">2</text>
</g>
<!-- !p11 -->
<g id="node12" class="node">
<title>!p11</title>
<ellipse fill="none" stroke="black" cx="391" cy="-192" rx="27" ry="18"/>
<text text-anchor="middle" x="391" y="-188.3" font-family="Times,serif" font-size="14.00">!p</text>
</g>
<!-- !d10&#45;&gt;!p11 -->
<g id="edge34" class="edge">
<title>!d10&#45;&gt;!p11</title>
<g id="a_edge34"><a xlink:title="yBf56">
<path fill="none" stroke="blue" d="M428.09,-45.8C431.16,-67.05 433.37,-97.35 427,-123 422.2,-142.32 410.79,-162.18 402.1,-175.42"/>
<polygon fill="blue" stroke="blue" points="431.53,-45.19 426.49,-35.86 424.62,-46.29 431.53,-45.19"/>
</a>
</g>
<text text-anchor="middle" x="434.5" y="-101.3" font-family="Times,serif" font-size="14.00">1</text>
</g>
<!-- !p11&#45;&gt;I9 -->
<g id="edge18" class="edge">
<title>!p11&#45;&gt;I9</title>
<g id="a_edge18"><a xlink:title="newrretf57">
<path fill="none" stroke="red" d="M391,-173.8C391,-162.16 391,-146.55 391,-133.24"/>
<polygon fill="red" stroke="red" points="394.5,-133.18 391,-123.18 387.5,-133.18 394.5,-133.18"/>
</a>
</g>
<text text-anchor="middle" x="394.5" y="-144.8" font-family="Times,serif" font-size="14.00">2</text>
</g>
<!-- !c15 -->
<g id="node16" class="node">
<title>!c15</title>
<ellipse fill="none" stroke="black" cx="319" cy="-105" rx="27" ry="18"/>
<text text-anchor="middle" x="319" y="-101.3" font-family="Times,serif" font-size="14.00">!c</text>
</g>
<!-- !p11&#45;&gt;!c15 -->
<g id="edge33" class="edge">
<title>!p11&#45;&gt;!c15</title>
<g id="a_edge33"><a xlink:title="yB44">
<path fill="none" stroke="blue" d="M371.52,-168C361.25,-155.88 348.7,-141.06 338.44,-128.95"/>
<polygon fill="blue" stroke="blue" points="368.99,-170.44 378.13,-175.8 374.34,-165.91 368.99,-170.44"/>
<polygon fill="blue" stroke="blue" points="334.43,-118.8 338.22,-128.7 329.09,-123.33 334.43,-118.8"/>
</a>
</g>
<text text-anchor="middle" x="362.5" y="-144.8" font-family="Times,serif" font-size="14.00">1</text>
</g>
<!-- I12 -->
<g id="node13" class="node">
<title>I12</title>
<ellipse fill="none" stroke="black" cx="351" cy="-352" rx="27" ry="18"/>
<text text-anchor="middle" x="351" y="-348.3" font-family="Times,serif" font-size="14.00">I</text>
</g>
<!-- @13 -->
<g id="node14" class="node">
<title>@13</title>
<ellipse fill="none" stroke="black" cx="355" cy="-279" rx="27" ry="18"/>
<text text-anchor="middle" x="355" y="-275.3" font-family="Times,serif" font-size="14.00">@</text>
</g>
<!-- I12&#45;&gt;@13 -->
<g id="edge6" class="edge">
<title>I12&#45;&gt;@13</title>
<g id="a_edge6"><a xlink:title="lret53">
<path fill="none" stroke="blue" d="M352.54,-323.75C353.04,-314.77 353.59,-305.03 354.04,-297.03"/>
<polygon fill="blue" stroke="blue" points="349.04,-323.63 351.97,-333.81 356.03,-324.03 349.04,-323.63"/>
</a>
</g>
</g>
<!-- @13&#45;&gt;!p11 -->
<g id="edge13" class="edge">
<title>@13&#45;&gt;!p11</title>
<g id="a_edge13"><a xlink:title="newrret52">
<path fill="none" stroke="red" d="M362.11,-261.21C367.22,-249.14 374.21,-232.64 380.03,-218.89"/>
<polygon fill="red" stroke="red" points="383.35,-220.04 384.02,-209.47 376.9,-217.31 383.35,-220.04"/>
</a>
</g>
<text text-anchor="middle" x="378.5" y="-231.8" font-family="Times,serif" font-size="14.00">1</text>
</g>
<!-- !d14 -->
<g id="node15" class="node">
<title>!d14</title>
<ellipse fill="none" stroke="black" cx="319" cy="-192" rx="27" ry="18"/>
<text text-anchor="middle" x="319" y="-188.3" font-family="Times,serif" font-size="14.00">!d</text>
</g>
<!-- @13&#45;&gt;!d14 -->
<g id="edge10" class="edge">
<title>@13&#45;&gt;!d14</title>
<g id="a_edge10"><a xlink:title="lval48">
<path fill="none" stroke="blue" d="M343.88,-251.74C338.03,-237.94 331.05,-221.46 325.98,-209.47"/>
<polygon fill="blue" stroke="blue" points="340.76,-253.36 347.89,-261.21 347.21,-250.63 340.76,-253.36"/>
</a>
</g>
<text text-anchor="middle" x="342.5" y="-231.8" font-family="Times,serif" font-size="14.00">1</text>
</g>
<!-- !d14&#45;&gt;!c15 -->
<g id="edge32" class="edge">
<title>!d14&#45;&gt;!c15</title>
<g id="a_edge32"><a xlink:title="yA43">
<path fill="none" stroke="blue" d="M319,-163.73C319,-150.42 319,-134.81 319,-123.18"/>
<polygon fill="blue" stroke="blue" points="315.5,-163.8 319,-173.8 322.5,-163.8 315.5,-163.8"/>
</a>
</g>
<text text-anchor="middle" x="322.5" y="-144.8" font-family="Times,serif" font-size="14.00">1</text>
</g>
<!-- Cut32 -->
<g id="node33" class="node">
<title>Cut32</title>
<ellipse fill="none" stroke="black" cx="264" cy="-18" rx="27" ry="18"/>
<text text-anchor="middle" x="264" y="-14.3" font-family="Times,serif" font-size="14.00">Cut</text>
</g>
<!-- !c15&#45;&gt;Cut32 -->
<g id="edge31" class="edge">
<title>!c15&#45;&gt;Cut32</title>
<g id="a_edge31"><a xlink:title="y41">
<path fill="none" stroke="blue" d="M303.2,-79.59C293.91,-65.23 282.43,-47.48 274.3,-34.92"/>
<polygon fill="blue" stroke="blue" points="300.28,-81.52 308.65,-88.01 306.16,-77.72 300.28,-81.52"/>
</a>
</g>
</g>
<!-- λ16&#45;&gt;I8 -->
<g id="edge23" class="edge">
<title>λ16&#45;&gt;I8</title>
<g id="a_edge23"><a xlink:title="ret35">
<path fill="none" stroke="red" d="M336,-571.61C336,-563.59 336,-553.84 336,-544.86"/>
<polygon fill="red" stroke="red" points="339.5,-544.82 336,-534.82 332.5,-544.82 339.5,-544.82"/>
</a>
</g>
</g>
<!-- I17 -->
<g id="node18" class="node">
<title>I17</title>
<ellipse fill="none" stroke="black" cx="351" cy="-1024.8" rx="27" ry="18"/>
<text text-anchor="middle" x="351" y="-1021.1" font-family="Times,serif" font-size="14.00">I</text>
</g>
<!-- Lift30 -->
<g id="node31" class="node">
<title>Lift30</title>
<ellipse fill="none" stroke="black" cx="339" cy="-937.8" rx="27" ry="18"/>
<text text-anchor="middle" x="339" y="-934.1" font-family="Times,serif" font-size="14.00">Lift</text>
</g>
<!-- I17&#45;&gt;Lift30 -->
<g id="edge30" class="edge">
<title>I17&#45;&gt;Lift30</title>
<g id="a_edge30"><a xlink:title="xret26">
<path fill="none" stroke="blue" d="M347.15,-996.53C345.27,-983.22 343.07,-967.6 341.42,-955.97"/>
<polygon fill="blue" stroke="blue" points="343.71,-997.18 348.57,-1006.59 350.64,-996.2 343.71,-997.18"/>
</a>
</g>
<text text-anchor="middle" x="348.5" y="-977.6" font-family="Times,serif" font-size="14.00">1</text>
</g>
<!-- I18 -->
<g id="node19" class="node">
<title>I18</title>
<ellipse fill="none" stroke="black" cx="351" cy="-1271.8" rx="27" ry="18"/>
<text text-anchor="middle" x="351" y="-1268.1" font-family="Times,serif" font-size="14.00">I</text>
</g>
<!-- @19 -->
<g id="node20" class="node">
<title>@19</title>
<ellipse fill="none" stroke="black" cx="351" cy="-1198.8" rx="27" ry="18"/>
<text text-anchor="middle" x="351" y="-1195.1" font-family="Times,serif" font-size="14.00">@</text>
</g>
<!-- I18&#45;&gt;@19 -->
<g id="edge5" class="edge">
<title>I18&#45;&gt;@19</title>
<g id="a_edge5"><a xlink:title="lret19">
<path fill="none" stroke="blue" d="M351,-1243.55C351,-1234.56 351,-1224.83 351,-1216.82"/>
<polygon fill="blue" stroke="blue" points="347.5,-1243.61 351,-1253.61 354.5,-1243.61 347.5,-1243.61"/>
</a>
</g>
</g>
<!-- Cut23 -->
<g id="node24" class="node">
<title>Cut23</title>
<ellipse fill="none" stroke="black" cx="408" cy="-850.8" rx="27" ry="18"/>
<text text-anchor="middle" x="408" y="-847.1" font-family="Times,serif" font-size="14.00">Cut</text>
</g>
<!-- @19&#45;&gt;Cut23 -->
<g id="edge9" class="edge">
<title>@19&#45;&gt;Cut23</title>
<g id="a_edge9"><a xlink:title="lval14">
<path fill="none" stroke="blue" d="M374.49,-1177.1C389.82,-1161.23 407,-1137.85 407,-1112.8 407,-1112.8 407,-1112.8 407,-936.8 407,-913.33 407.39,-886.22 407.68,-869.05"/>
<polygon fill="blue" stroke="blue" points="371.88,-1174.76 367.2,-1184.26 376.78,-1179.75 371.88,-1174.76"/>
</a>
</g>
</g>
<!-- !p26 -->
<g id="node27" class="node">
<title>!p26</title>
<ellipse fill="none" stroke="black" cx="351" cy="-1111.8" rx="27" ry="18"/>
<text text-anchor="middle" x="351" y="-1108.1" font-family="Times,serif" font-size="14.00">!p</text>
</g>
<!-- @19&#45;&gt;!p26 -->
<g id="edge12" class="edge">
<title>@19&#45;&gt;!p26</title>
<g id="a_edge12"><a xlink:title="newrret18">
<path fill="none" stroke="red" d="M351,-1180.59C351,-1168.96 351,-1153.34 351,-1140.03"/>
<polygon fill="red" stroke="red" points="354.5,-1139.97 351,-1129.97 347.5,-1139.97 354.5,-1139.97"/>
</a>
</g>
<text text-anchor="middle" x="354.5" y="-1151.6" font-family="Times,serif" font-size="14.00">0</text>
</g>
<!-- Assign20 -->
<g id="node21" class="node">
<title>Assign20</title>
<ellipse fill="none" stroke="black" cx="351" cy="-1344.8" rx="35.19" ry="18"/>
<text text-anchor="middle" x="351" y="-1341.1" font-family="Times,serif" font-size="14.00">Assign</text>
</g>
<!-- Assign20&#45;&gt;I18 -->
<g id="edge25" class="edge">
<title>Assign20&#45;&gt;I18</title>
<g id="a_edge25"><a xlink:title="ret8">
<path fill="none" stroke="red" d="M351,-1326.61C351,-1318.59 351,-1308.84 351,-1299.86"/>
<polygon fill="red" stroke="red" points="354.5,-1299.82 351,-1289.82 347.5,-1299.82 354.5,-1299.82"/>
</a>
</g>
</g>
<!-- Dup21 -->
<g id="node22" class="node">
<title>Dup21</title>
<ellipse fill="none" stroke="black" cx="431" cy="-1344.8" rx="27" ry="18"/>
<text text-anchor="middle" x="431" y="-1341.1" font-family="Times,serif" font-size="14.00">Dup</text>
</g>
<!-- Dup22 -->
<g id="node23" class="node">
<title>Dup22</title>
<ellipse fill="none" stroke="black" cx="336" cy="-676.8" rx="27" ry="18"/>
<text text-anchor="middle" x="336" y="-673.1" font-family="Times,serif" font-size="14.00">Dup</text>
</g>
<!-- Dup22&#45;&gt;λ16 -->
<g id="edge17" class="edge">
<title>Dup22&#45;&gt;λ16</title>
<g id="a_edge17"><a xlink:title="newrretf31">
<path fill="none" stroke="red" d="M336,-658.59C336,-646.96 336,-631.34 336,-618.03"/>
<polygon fill="red" stroke="red" points="339.5,-617.97 336,-607.97 332.5,-617.97 339.5,-617.97"/>
</a>
</g>
<text text-anchor="middle" x="339.5" y="-629.6" font-family="Times,serif" font-size="14.00">1</text>
</g>
<!-- Lift25 -->
<g id="node26" class="node">
<title>Lift25</title>
<ellipse fill="none" stroke="black" cx="408" cy="-763.8" rx="27" ry="18"/>
<text text-anchor="middle" x="408" y="-760.1" font-family="Times,serif" font-size="14.00">Lift</text>
</g>
<!-- Cut23&#45;&gt;Lift25 -->
<g id="edge29" class="edge">
<title>Cut23&#45;&gt;Lift25</title>
<g id="a_edge29"><a xlink:title="seqDM96">
<path fill="none" stroke="red" d="M408,-832.59C408,-820.96 408,-805.34 408,-792.03"/>
<polygon fill="red" stroke="red" points="411.5,-791.97 408,-781.97 404.5,-791.97 411.5,-791.97"/>
</a>
</g>
<text text-anchor="middle" x="411.5" y="-803.6" font-family="Times,serif" font-size="14.00">0</text>
</g>
<!-- Lift24 -->
<g id="node25" class="node">
<title>Lift24</title>
<ellipse fill="none" stroke="black" cx="503" cy="-1344.8" rx="27" ry="18"/>
<text text-anchor="middle" x="503" y="-1341.1" font-family="Times,serif" font-size="14.00">Lift</text>
</g>
<!-- Lift25&#45;&gt;Dup22 -->
<g id="edge21" class="edge">
<title>Lift25&#45;&gt;Dup22</title>
<g id="a_edge21"><a xlink:title="newrretf87">
<path fill="none" stroke="red" d="M395.13,-747.6C384.07,-734.55 367.96,-715.53 355.35,-700.64"/>
<polygon fill="red" stroke="red" points="357.89,-698.23 348.76,-692.86 352.55,-702.75 357.89,-698.23"/>
</a>
</g>
<text text-anchor="middle" x="379.5" y="-716.6" font-family="Times,serif" font-size="14.00">1</text>
</g>
<!-- !p26&#45;&gt;I17 -->
<g id="edge16" class="edge">
<title>!p26&#45;&gt;I17</title>
<g id="a_edge16"><a xlink:title="newrretf23">
<path fill="none" stroke="red" d="M351,-1093.59C351,-1081.96 351,-1066.34 351,-1053.03"/>
<polygon fill="red" stroke="red" points="354.5,-1052.97 351,-1042.97 347.5,-1052.97 354.5,-1052.97"/>
</a>
</g>
<text text-anchor="middle" x="354.5" y="-1064.6" font-family="Times,serif" font-size="14.00">1</text>
</g>
<!-- Cut27 -->
<g id="node28" class="node">
<title>Cut27</title>
<ellipse fill="none" stroke="black" cx="336" cy="-850.8" rx="27" ry="18"/>
<text text-anchor="middle" x="336" y="-847.1" font-family="Times,serif" font-size="14.00">Cut</text>
</g>
<!-- Lift31 -->
<g id="node32" class="node">
<title>Lift31</title>
<ellipse fill="none" stroke="black" cx="336" cy="-763.8" rx="27" ry="18"/>
<text text-anchor="middle" x="336" y="-760.1" font-family="Times,serif" font-size="14.00">Lift</text>
</g>
<!-- Cut27&#45;&gt;Lift31 -->
<g id="edge28" class="edge">
<title>Cut27&#45;&gt;Lift31</title>
<g id="a_edge28"><a xlink:title="seqDM102">
<path fill="none" stroke="red" d="M336,-832.59C336,-820.96 336,-805.34 336,-792.03"/>
<polygon fill="red" stroke="red" points="339.5,-791.97 336,-781.97 332.5,-791.97 339.5,-791.97"/>
</a>
</g>
<text text-anchor="middle" x="339.5" y="-803.6" font-family="Times,serif" font-size="14.00">0</text>
</g>
<!-- Lift28 -->
<g id="node29" class="node">
<title>Lift28</title>
<ellipse fill="none" stroke="black" cx="575" cy="-1344.8" rx="27" ry="18"/>
<text text-anchor="middle" x="575" y="-1341.1" font-family="Times,serif" font-size="14.00">Lift</text>
</g>
<!-- Lift29 -->
<g id="node30" class="node">
<title>Lift29</title>
<ellipse fill="none" stroke="black" cx="647" cy="-1344.8" rx="27" ry="18"/>
<text text-anchor="middle" x="647" y="-1341.1" font-family="Times,serif" font-size="14.00">Lift</text>
</g>
<!-- Lift30&#45;&gt;Cut27 -->
<g id="edge27" class="edge">
<title>Lift30&#45;&gt;Cut27</title>
<g id="a_edge27"><a xlink:title="seqDE104">
<path fill="none" stroke="blue" d="M338.04,-909.53C337.57,-896.22 337.02,-880.6 336.61,-868.97"/>
<polygon fill="blue" stroke="blue" points="334.54,-909.72 338.39,-919.59 341.54,-909.48 334.54,-909.72"/>
</a>
</g>
<text text-anchor="middle" x="340.5" y="-890.6" font-family="Times,serif" font-size="14.00">0</text>
</g>
<!-- Lift31&#45;&gt;Dup22 -->
<g id="edge22" class="edge">
<title>Lift31&#45;&gt;Dup22</title>
<g id="a_edge22"><a xlink:title="newrretf91">
<path fill="none" stroke="red" d="M336,-745.59C336,-733.96 336,-718.34 336,-705.03"/>
<polygon fill="none" stroke="red" points="339.5,-704.97 336,-694.97 332.5,-704.97 339.5,-704.97"/>
</a>
</g>
<text text-anchor="middle" x="339.5" y="-716.6" font-family="Times,serif" font-size="14.00">1</text>
</g>
<!-- Cut32&#45;&gt;!p7 -->
<g id="edge14" class="edge">
<title>Cut32&#45;&gt;!p7</title>
<g id="a_edge14"><a xlink:title="newrret61">
<path fill="none" stroke="red" d="M264,-36.26C264,-53.43 264,-80.54 264,-104 264,-590.8 264,-590.8 264,-590.8 264,-610.04 264,-631.74 264,-648.4"/>
<polygon fill="red" stroke="red" points="260.5,-648.54 264,-658.54 267.5,-648.54 260.5,-648.54"/>
</a>
</g>
<text text-anchor="middle" x="267.5" y="-348.3" font-family="Times,serif" font-size="14.00">1</text>
</g>
<!-- Cut33&#45;&gt;I12 -->
<g id="edge24" class="edge">
<title>Cut33&#45;&gt;I12</title>
<g id="a_edge24"><a xlink:title="ret42">
<path fill="none" stroke="red" stroke-width="2" d="M351,-406.63C351,-398.15 351,-388.77 351,-380.25"/>
<polygon fill="red" stroke="red" stroke-width="2" points="354.5,-380.07 351,-370.07 347.5,-380.07 354.5,-380.07"/>
</a>
</g>
</g>
</g>
</svg>
