<?xml version="1.0" encoding="UTF-8" standalone="no"?>
<!DOCTYPE svg PUBLIC "-//W3C//DTD SVG 1.1//EN"
 "http://www.w3.org/Graphics/SVG/1.1/DTD/svg11.dtd">
<!-- Generated by graphviz version 2.43.0 (0)
 -->
<!-- Title: %3 Pages: 1 -->
<svg width="582pt" height="1290pt"
 viewBox="0.00 0.00 582.39 1290.40" xmlns="http://www.w3.org/2000/svg" xmlns:xlink="http://www.w3.org/1999/xlink">
<g id="graph0" class="graph" transform="scale(1 1) rotate(0) translate(4 1286.4)">
<title>%3</title>
<polygon fill="white" stroke="transparent" points="-4,4 -4,-1286.4 578.39,-1286.4 578.39,4 -4,4"/>
<!-- Identity0 -->
<g id="node1" class="node">
<title>Identity0</title>
<ellipse fill="none" stroke="black" cx="329.2" cy="-1264.4" rx="44.39" ry="18"/>
<text text-anchor="middle" x="329.2" y="-1260.7" font-family="Times-Roman" font-size="14.00">Identity</text>
</g>
<!-- BangD1 -->
<g id="node2" class="node">
<title>BangD1</title>
<ellipse fill="none" stroke="black" cx="329.2" cy="-1177.4" rx="39.79" ry="18"/>
<text text-anchor="middle" x="329.2" y="-1173.7" font-family="Times-Roman" font-size="14.00">BangD</text>
</g>
<!-- BangD1&#45;&gt;Identity0 -->
<g id="edge27" class="edge">
<title>BangD1&#45;&gt;Identity0</title>
<g id="a_edge27"><a xlink:title="iret84">
<path fill="none" stroke="blue" d="M335.05,-1195.28C336.74,-1200.96 338.35,-1207.39 339.2,-1213.4 340.25,-1220.9 339.48,-1228.98 337.98,-1236.41"/>
<polygon fill="blue" stroke="blue" points="334.53,-1235.81 335.51,-1246.36 341.32,-1237.5 334.53,-1235.81"/>
</a>
</g>
<text text-anchor="middle" x="343.7" y="-1217.2" font-family="Times-Roman" font-size="14.00">3</text>
</g>
<!-- BangD1&#45;&gt;Identity0 -->
<g id="edge28" class="edge">
<title>BangD1&#45;&gt;Identity0</title>
<g id="a_edge28"><a xlink:title="iseq83">
<path fill="none" stroke="black" d="M329.2,-1195.6C329.2,-1207.23 329.2,-1222.85 329.2,-1236.16"/>
<polygon fill="black" stroke="black" points="325.7,-1236.22 329.2,-1246.22 332.7,-1236.22 325.7,-1236.22"/>
</a>
</g>
<text text-anchor="middle" x="333.7" y="-1217.2" font-family="Times-Roman" font-size="14.00">3</text>
</g>
<!-- PiR2 -->
<g id="node3" class="node">
<title>PiR2</title>
<ellipse fill="none" stroke="black" cx="329.2" cy="-1090.4" rx="27" ry="18"/>
<text text-anchor="middle" x="329.2" y="-1086.7" font-family="Times-Roman" font-size="14.00">PiR</text>
</g>
<!-- PiR2&#45;&gt;Identity0 -->
<g id="edge52" class="edge">
<title>PiR2&#45;&gt;Identity0</title>
<g id="a_edge52"><a xlink:title="ret82">
<path fill="none" stroke="red" d="M343.76,-1105.78C355.61,-1118.58 371.45,-1138.49 378.2,-1159.4 383.11,-1174.62 383.11,-1180.17 378.2,-1195.4 372.93,-1211.71 362.13,-1227.41 352.01,-1239.61"/>
<polygon fill="red" stroke="red" points="349.11,-1237.61 345.19,-1247.45 354.39,-1242.2 349.11,-1237.61"/>
</a>
</g>
</g>
<!-- PiR2&#45;&gt;BangD1 -->
<g id="edge22" class="edge">
<title>PiR2&#45;&gt;BangD1</title>
<g id="a_edge22"><a xlink:title="i81">
<path fill="none" stroke="blue" d="M312.88,-1105.08C307.09,-1110.97 301.25,-1118.35 298.2,-1126.4 294.67,-1135.71 298.32,-1145.18 304.2,-1153.34"/>
<polygon fill="blue" stroke="blue" points="301.53,-1155.6 310.64,-1161 306.89,-1151.1 301.53,-1155.6"/>
</a>
</g>
<text text-anchor="middle" x="302.7" y="-1130.2" font-family="Times-Roman" font-size="14.00">3</text>
</g>
<!-- PiR2&#45;&gt;BangD1 -->
<g id="edge61" class="edge">
<title>PiR2&#45;&gt;BangD1</title>
<g id="a_edge61"><a xlink:title="seq80">
<path fill="none" stroke="black" d="M329.2,-1108.6C329.2,-1120.23 329.2,-1135.85 329.2,-1149.16"/>
<polygon fill="black" stroke="black" points="325.7,-1149.22 329.2,-1159.22 332.7,-1149.22 325.7,-1149.22"/>
</a>
</g>
<text text-anchor="middle" x="333.7" y="-1130.2" font-family="Times-Roman" font-size="14.00">3</text>
</g>
<!-- Bang3 -->
<g id="node4" class="node">
<title>Bang3</title>
<ellipse fill="none" stroke="black" cx="329.2" cy="-1003.4" rx="32.49" ry="18"/>
<text text-anchor="middle" x="329.2" y="-999.7" font-family="Times-Roman" font-size="14.00">Bang</text>
</g>
<!-- Bang3&#45;&gt;PiR2 -->
<g id="edge4" class="edge">
<title>Bang3&#45;&gt;PiR2</title>
<g id="a_edge4"><a xlink:title="c_bseq79">
<path fill="none" stroke="black" d="M329.2,-1021.6C329.2,-1033.23 329.2,-1048.85 329.2,-1062.16"/>
<polygon fill="black" stroke="black" points="325.7,-1062.22 329.2,-1072.22 332.7,-1062.22 325.7,-1062.22"/>
</a>
</g>
<text text-anchor="middle" x="333.7" y="-1043.2" font-family="Times-Roman" font-size="14.00">3</text>
</g>
<!-- Bang3&#45;&gt;PiR2 -->
<g id="edge44" class="edge">
<title>Bang3&#45;&gt;PiR2</title>
<g id="a_edge44"><a xlink:title="newrretf78">
<path fill="none" stroke="red" d="M321.17,-1020.92C317.42,-1030.6 314.17,-1043.1 316.2,-1054.4 316.72,-1057.33 317.48,-1060.33 318.37,-1063.29"/>
<polygon fill="red" stroke="red" points="315.15,-1064.7 321.74,-1073 321.76,-1062.41 315.15,-1064.7"/>
</a>
</g>
<text text-anchor="middle" x="320.7" y="-1043.2" font-family="Times-Roman" font-size="14.00">3</text>
</g>
<!-- Identity4 -->
<g id="node5" class="node">
<title>Identity4</title>
<ellipse fill="none" stroke="black" cx="530.2" cy="-1003.4" rx="44.39" ry="18"/>
<text text-anchor="middle" x="530.2" y="-999.7" font-family="Times-Roman" font-size="14.00">Identity</text>
</g>
<!-- PiL5 -->
<g id="node6" class="node">
<title>PiL5</title>
<ellipse fill="none" stroke="black" cx="347.2" cy="-916.4" rx="27" ry="18"/>
<text text-anchor="middle" x="347.2" y="-912.7" font-family="Times-Roman" font-size="14.00">PiL</text>
</g>
<!-- PiL5&#45;&gt;Bang3 -->
<g id="edge14" class="edge">
<title>PiL5&#45;&gt;Bang3</title>
<g id="a_edge14"><a xlink:title="dseq76">
<path fill="none" stroke="black" d="M337.53,-933.58C334.6,-939.32 331.74,-945.96 330.2,-952.4 328.48,-959.54 327.79,-967.43 327.63,-974.79"/>
<polygon fill="black" stroke="black" points="324.13,-975.07 327.73,-985.04 331.13,-975 324.13,-975.07"/>
</a>
</g>
<text text-anchor="middle" x="334.7" y="-956.2" font-family="Times-Roman" font-size="14.00">2</text>
</g>
<!-- PiL5&#45;&gt;Bang3 -->
<g id="edge39" class="edge">
<title>PiL5&#45;&gt;Bang3</title>
<g id="a_edge39"><a xlink:title="newrret74">
<path fill="none" stroke="red" d="M344.96,-934.62C343.57,-944.3 341.6,-956.58 339.2,-967.4 338.6,-970.08 337.92,-972.86 337.2,-975.63"/>
<polygon fill="red" stroke="red" points="333.78,-974.84 334.49,-985.41 340.53,-976.71 333.78,-974.84"/>
</a>
</g>
<text text-anchor="middle" x="345.7" y="-956.2" font-family="Times-Roman" font-size="14.00">2</text>
</g>
<!-- PiL5&#45;&gt;Identity4 -->
<g id="edge26" class="edge">
<title>PiL5&#45;&gt;Identity4</title>
<g id="a_edge26"><a xlink:title="idseq77">
<path fill="none" stroke="black" d="M373.89,-934.28C373.99,-934.32 374.1,-934.36 374.2,-934.4 399.35,-944.18 407.4,-941.73 432.2,-952.4 452.99,-961.34 475.19,-973.81 493.34,-984.06"/>
<polygon fill="black" stroke="black" points="365.79,-927.05 373.63,-934.17 363.06,-933.49 365.79,-927.05"/>
<polygon fill="black" stroke="black" points="492,-987.32 502.43,-989.18 495.43,-981.22 492,-987.32"/>
</a>
</g>
</g>
<!-- PiL5&#45;&gt;Identity4 -->
<g id="edge32" class="edge">
<title>PiL5&#45;&gt;Identity4</title>
<g id="a_edge32"><a xlink:title="lret75">
<path fill="none" stroke="blue" d="M371.12,-925.33C378.02,-928.37 385.37,-931.74 392.2,-934.4 417.35,-944.18 425.4,-941.73 450.2,-952.4 469.11,-960.54 489.19,-971.59 504.64,-981.23"/>
<polygon fill="blue" stroke="blue" points="502.85,-984.24 513.16,-986.71 506.64,-978.36 502.85,-984.24"/>
</a>
</g>
</g>
<!-- Identity6 -->
<g id="node7" class="node">
<title>Identity6</title>
<ellipse fill="none" stroke="black" cx="424.2" cy="-1003.4" rx="44.39" ry="18"/>
<text text-anchor="middle" x="424.2" y="-999.7" font-family="Times-Roman" font-size="14.00">Identity</text>
</g>
<!-- BangD7 -->
<g id="node8" class="node">
<title>BangD7</title>
<ellipse fill="none" stroke="black" cx="432.2" cy="-916.4" rx="39.79" ry="18"/>
<text text-anchor="middle" x="432.2" y="-912.7" font-family="Times-Roman" font-size="14.00">BangD</text>
</g>
<!-- BangD7&#45;&gt;Identity6 -->
<g id="edge20" class="edge">
<title>BangD7&#45;&gt;Identity6</title>
<g id="a_edge20"><a xlink:title="hret73">
<path fill="none" stroke="blue" d="M430.58,-934.6C429.48,-946.23 428.01,-961.85 426.76,-975.16"/>
<polygon fill="blue" stroke="blue" points="423.27,-974.94 425.81,-985.22 430.23,-975.59 423.27,-974.94"/>
</a>
</g>
<text text-anchor="middle" x="432.7" y="-956.2" font-family="Times-Roman" font-size="14.00">2</text>
</g>
<!-- BangD7&#45;&gt;Identity6 -->
<g id="edge21" class="edge">
<title>BangD7&#45;&gt;Identity6</title>
<g id="a_edge21"><a xlink:title="hseq72">
<path fill="none" stroke="black" d="M421.7,-933.85C418.66,-939.5 415.74,-946.02 414.2,-952.4 412.39,-959.85 412.95,-967.98 414.49,-975.48"/>
<polygon fill="black" stroke="black" points="411.11,-976.42 417.05,-985.2 417.88,-974.63 411.11,-976.42"/>
</a>
</g>
<text text-anchor="middle" x="418.7" y="-956.2" font-family="Times-Roman" font-size="14.00">2</text>
</g>
<!-- Cut8 -->
<g id="node9" class="node">
<title>Cut8</title>
<ellipse fill="none" stroke="black" cx="347.2" cy="-829.4" rx="27" ry="18"/>
<text text-anchor="middle" x="347.2" y="-825.7" font-family="Times-Roman" font-size="14.00">Cut</text>
</g>
<!-- Cut8&#45;&gt;PiL5 -->
<g id="edge8" class="edge">
<title>Cut8&#45;&gt;PiL5</title>
<g id="a_edge8"><a xlink:title="c_lseq68">
<path fill="none" stroke="black" d="M340.86,-857.39C340.31,-867.33 340.31,-878.58 340.87,-888.51"/>
<polygon fill="black" stroke="black" points="345.18,-847.47 340.88,-857.16 338.2,-846.91 345.18,-847.47"/>
<polygon fill="black" stroke="black" points="337.39,-888.96 341.7,-898.64 344.37,-888.39 337.39,-888.96"/>
</a>
</g>
</g>
<!-- Cut8&#45;&gt;PiL5 -->
<g id="edge35" class="edge">
<title>Cut8&#45;&gt;PiL5</title>
<g id="a_edge35"><a xlink:title="lval70">
<path fill="none" stroke="blue" d="M352.7,-847.19C354.01,-858.95 354.29,-874.91 353.53,-888.44"/>
<polygon fill="blue" stroke="blue" points="350.02,-888.39 352.7,-898.64 357,-888.95 350.02,-888.39"/>
</a>
</g>
</g>
<!-- Cut8&#45;&gt;Identity6 -->
<g id="edge55" class="edge">
<title>Cut8&#45;&gt;Identity6</title>
<g id="a_edge55"><a xlink:title="rval71">
<path fill="none" stroke="red" d="M372.87,-835.08C404.69,-842.4 457.58,-859.93 481.2,-898.4 498.06,-925.86 472.99,-958.63 450.96,-979.94"/>
<polygon fill="red" stroke="red" points="448.32,-977.61 443.37,-986.97 453.08,-982.74 448.32,-977.61"/>
</a>
</g>
</g>
<!-- Cut8&#45;&gt;BangD7 -->
<g id="edge10" class="edge">
<title>Cut8&#45;&gt;BangD7</title>
<g id="a_edge10"><a xlink:title="c_rseq69">
<path fill="none" stroke="black" d="M361.62,-844.81C374.6,-857.8 393.92,-877.12 409.07,-892.27"/>
<polygon fill="black" stroke="black" points="407.01,-895.15 416.55,-899.75 411.96,-890.21 407.01,-895.15"/>
</a>
</g>
<text text-anchor="middle" x="398.7" y="-869.2" font-family="Times-Roman" font-size="14.00">2</text>
</g>
<!-- Bang9 -->
<g id="node10" class="node">
<title>Bang9</title>
<ellipse fill="none" stroke="black" cx="347.2" cy="-742.4" rx="32.49" ry="18"/>
<text text-anchor="middle" x="347.2" y="-738.7" font-family="Times-Roman" font-size="14.00">Bang</text>
</g>
<!-- Bang9&#45;&gt;Identity4 -->
<g id="edge43" class="edge">
<title>Bang9&#45;&gt;Identity4</title>
<g id="a_edge43"><a xlink:title="newrretf66">
<path fill="none" stroke="red" d="M365.75,-757.56C397.28,-782.6 461.39,-837.78 497.2,-898.4 511.44,-922.5 520.23,-953.44 525.13,-975.29"/>
<polygon fill="red" stroke="red" points="521.73,-976.15 527.22,-985.21 528.58,-974.71 521.73,-976.15"/>
</a>
</g>
<text text-anchor="middle" x="488.7" y="-869.2" font-family="Times-Roman" font-size="14.00">2</text>
</g>
<!-- Bang9&#45;&gt;BangD7 -->
<g id="edge19" class="edge">
<title>Bang9&#45;&gt;BangD7</title>
<g id="a_edge19"><a xlink:title="hf65">
<path fill="none" stroke="blue" d="M356.14,-759.77C363.56,-773.48 374.3,-793.59 383.2,-811.4 396.37,-837.75 410.65,-868.29 420.37,-889.43"/>
<polygon fill="blue" stroke="blue" points="417.28,-891.08 424.63,-898.71 423.64,-888.16 417.28,-891.08"/>
</a>
</g>
<text text-anchor="middle" x="403.7" y="-825.7" font-family="Times-Roman" font-size="14.00">1</text>
</g>
<!-- Bang9&#45;&gt;Cut8 -->
<g id="edge3" class="edge">
<title>Bang9&#45;&gt;Cut8</title>
<g id="a_edge3"><a xlink:title="c_bseq67">
<path fill="none" stroke="black" d="M347.2,-760.6C347.2,-772.23 347.2,-787.85 347.2,-801.16"/>
<polygon fill="black" stroke="black" points="343.7,-801.22 347.2,-811.22 350.7,-801.22 343.7,-801.22"/>
</a>
</g>
<text text-anchor="middle" x="351.7" y="-782.2" font-family="Times-Roman" font-size="14.00">2</text>
</g>
<!-- Identity10 -->
<g id="node11" class="node">
<title>Identity10</title>
<ellipse fill="none" stroke="black" cx="190.2" cy="-655.4" rx="44.39" ry="18"/>
<text text-anchor="middle" x="190.2" y="-651.7" font-family="Times-Roman" font-size="14.00">Identity</text>
</g>
<!-- Identity11 -->
<g id="node12" class="node">
<title>Identity11</title>
<ellipse fill="none" stroke="black" cx="139.2" cy="-1177.4" rx="44.39" ry="18"/>
<text text-anchor="middle" x="139.2" y="-1173.7" font-family="Times-Roman" font-size="14.00">Identity</text>
</g>
<!-- BangD12 -->
<g id="node13" class="node">
<title>BangD12</title>
<ellipse fill="none" stroke="black" cx="139.2" cy="-1090.4" rx="39.79" ry="18"/>
<text text-anchor="middle" x="139.2" y="-1086.7" font-family="Times-Roman" font-size="14.00">BangD</text>
</g>
<!-- BangD12&#45;&gt;Identity11 -->
<g id="edge76" class="edge">
<title>BangD12&#45;&gt;Identity11</title>
<g id="a_edge76"><a xlink:title="yret60">
<path fill="none" stroke="blue" d="M121.24,-1106.78C116.01,-1112.37 110.96,-1119.11 108.2,-1126.4 104.67,-1135.71 108.32,-1145.18 114.2,-1153.34"/>
<polygon fill="blue" stroke="blue" points="111.53,-1155.6 120.64,-1161 116.89,-1151.1 111.53,-1155.6"/>
</a>
</g>
<text text-anchor="middle" x="112.7" y="-1130.2" font-family="Times-Roman" font-size="14.00">2</text>
</g>
<!-- BangD12&#45;&gt;Identity11 -->
<g id="edge78" class="edge">
<title>BangD12&#45;&gt;Identity11</title>
<g id="a_edge78"><a xlink:title="yseq59">
<path fill="none" stroke="black" d="M139.2,-1108.6C139.2,-1120.23 139.2,-1135.85 139.2,-1149.16"/>
<polygon fill="black" stroke="black" points="135.7,-1149.22 139.2,-1159.22 142.7,-1149.22 135.7,-1149.22"/>
</a>
</g>
<text text-anchor="middle" x="143.7" y="-1130.2" font-family="Times-Roman" font-size="14.00">2</text>
</g>
<!-- Bang13 -->
<g id="node14" class="node">
<title>Bang13</title>
<ellipse fill="none" stroke="black" cx="139.2" cy="-1003.4" rx="32.49" ry="18"/>
<text text-anchor="middle" x="139.2" y="-999.7" font-family="Times-Roman" font-size="14.00">Bang</text>
</g>
<!-- Bang13&#45;&gt;Identity11 -->
<g id="edge42" class="edge">
<title>Bang13&#45;&gt;Identity11</title>
<g id="a_edge42"><a xlink:title="newrretf57">
<path fill="none" stroke="red" d="M121.46,-1018.73C107.53,-1031.23 89.19,-1050.7 81.2,-1072.4 70.07,-1102.6 82.61,-1116.65 103.2,-1141.4 106.59,-1145.48 110.41,-1149.6 114.26,-1153.51"/>
<polygon fill="red" stroke="red" points="112,-1156.2 121.59,-1160.71 116.91,-1151.21 112,-1156.2"/>
</a>
</g>
<text text-anchor="middle" x="85.7" y="-1086.7" font-family="Times-Roman" font-size="14.00">2</text>
</g>
<!-- Bang13&#45;&gt;BangD12 -->
<g id="edge2" class="edge">
<title>Bang13&#45;&gt;BangD12</title>
<g id="a_edge2"><a xlink:title="c_bseq58">
<path fill="none" stroke="black" d="M139.2,-1021.6C139.2,-1033.23 139.2,-1048.85 139.2,-1062.16"/>
<polygon fill="black" stroke="black" points="135.7,-1062.22 139.2,-1072.22 142.7,-1062.22 135.7,-1062.22"/>
</a>
</g>
<text text-anchor="middle" x="143.7" y="-1043.2" font-family="Times-Roman" font-size="14.00">2</text>
</g>
<!-- Bang13&#45;&gt;BangD12 -->
<g id="edge74" class="edge">
<title>Bang13&#45;&gt;BangD12</title>
<g id="a_edge74"><a xlink:title="yBf56">
<path fill="none" stroke="blue" d="M131.6,-1021.14C129.4,-1026.82 127.3,-1033.27 126.2,-1039.4 124.82,-1047.04 125.87,-1055.24 127.85,-1062.74"/>
<polygon fill="blue" stroke="blue" points="124.58,-1063.99 131,-1072.41 131.23,-1061.82 124.58,-1063.99"/>
</a>
</g>
<text text-anchor="middle" x="130.7" y="-1043.2" font-family="Times-Roman" font-size="14.00">1</text>
</g>
<!-- Identity14 -->
<g id="node15" class="node">
<title>Identity14</title>
<ellipse fill="none" stroke="black" cx="44.2" cy="-1003.4" rx="44.39" ry="18"/>
<text text-anchor="middle" x="44.2" y="-999.7" font-family="Times-Roman" font-size="14.00">Identity</text>
</g>
<!-- PiL15 -->
<g id="node16" class="node">
<title>PiL15</title>
<ellipse fill="none" stroke="black" cx="139.2" cy="-916.4" rx="27" ry="18"/>
<text text-anchor="middle" x="139.2" y="-912.7" font-family="Times-Roman" font-size="14.00">PiL</text>
</g>
<!-- PiL15&#45;&gt;Bang13 -->
<g id="edge12" class="edge">
<title>PiL15&#45;&gt;Bang13</title>
<g id="a_edge12"><a xlink:title="dseq54">
<path fill="none" stroke="black" d="M139.2,-934.6C139.2,-946.23 139.2,-961.85 139.2,-975.16"/>
<polygon fill="black" stroke="black" points="135.7,-975.22 139.2,-985.22 142.7,-975.22 135.7,-975.22"/>
</a>
</g>
<text text-anchor="middle" x="143.7" y="-956.2" font-family="Times-Roman" font-size="14.00">1</text>
</g>
<!-- PiL15&#45;&gt;Bang13 -->
<g id="edge37" class="edge">
<title>PiL15&#45;&gt;Bang13</title>
<g id="a_edge37"><a xlink:title="newrret52">
<path fill="none" stroke="red" d="M145.37,-933.98C148.27,-943.67 150.77,-956.17 149.2,-967.4 148.81,-970.12 148.27,-972.93 147.64,-975.71"/>
<polygon fill="red" stroke="red" points="144.22,-974.95 145.05,-985.51 150.99,-976.74 144.22,-974.95"/>
</a>
</g>
<text text-anchor="middle" x="154.7" y="-956.2" font-family="Times-Roman" font-size="14.00">1</text>
</g>
<!-- PiL15&#45;&gt;Identity14 -->
<g id="edge24" class="edge">
<title>PiL15&#45;&gt;Identity14</title>
<g id="a_edge24"><a xlink:title="idseq55">
<path fill="none" stroke="black" d="M112.76,-935.96C97.47,-948.52 78.67,-965.21 64.53,-978.73"/>
<polygon fill="black" stroke="black" points="122.88,-932.3 112.9,-935.85 118.49,-926.85 122.88,-932.3"/>
<polygon fill="black" stroke="black" points="61.92,-976.38 57.2,-985.86 66.81,-981.39 61.92,-976.38"/>
</a>
</g>
</g>
<!-- PiL15&#45;&gt;Identity14 -->
<g id="edge30" class="edge">
<title>PiL15&#45;&gt;Identity14</title>
<g id="a_edge30"><a xlink:title="lret53">
<path fill="none" stroke="blue" d="M127.14,-932.99C113.71,-946.45 92.01,-966.04 74.08,-980.98"/>
<polygon fill="blue" stroke="blue" points="71.67,-978.43 66.15,-987.47 76.11,-983.84 71.67,-978.43"/>
</a>
</g>
</g>
<!-- Identity16 -->
<g id="node17" class="node">
<title>Identity16</title>
<ellipse fill="none" stroke="black" cx="234.2" cy="-1003.4" rx="44.39" ry="18"/>
<text text-anchor="middle" x="234.2" y="-999.7" font-family="Times-Roman" font-size="14.00">Identity</text>
</g>
<!-- BangD17 -->
<g id="node18" class="node">
<title>BangD17</title>
<ellipse fill="none" stroke="black" cx="262.2" cy="-916.4" rx="39.79" ry="18"/>
<text text-anchor="middle" x="262.2" y="-912.7" font-family="Times-Roman" font-size="14.00">BangD</text>
</g>
<!-- BangD17&#45;&gt;Identity16 -->
<g id="edge75" class="edge">
<title>BangD17&#45;&gt;Identity16</title>
<g id="a_edge75"><a xlink:title="yret51">
<path fill="none" stroke="blue" d="M256.53,-934.6C252.63,-946.43 247.38,-962.37 242.95,-975.82"/>
<polygon fill="blue" stroke="blue" points="239.56,-974.92 239.76,-985.51 246.21,-977.11 239.56,-974.92"/>
</a>
</g>
<text text-anchor="middle" x="253.7" y="-956.2" font-family="Times-Roman" font-size="14.00">1</text>
</g>
<!-- BangD17&#45;&gt;Identity16 -->
<g id="edge77" class="edge">
<title>BangD17&#45;&gt;Identity16</title>
<g id="a_edge77"><a xlink:title="yseq50">
<path fill="none" stroke="black" d="M246.61,-933.18C242.05,-938.79 237.64,-945.45 235.2,-952.4 232.69,-959.52 231.77,-967.58 231.65,-975.11"/>
<polygon fill="black" stroke="black" points="228.15,-975.36 231.93,-985.26 235.15,-975.16 228.15,-975.36"/>
</a>
</g>
<text text-anchor="middle" x="239.7" y="-956.2" font-family="Times-Roman" font-size="14.00">1</text>
</g>
<!-- Cut18 -->
<g id="node19" class="node">
<title>Cut18</title>
<ellipse fill="none" stroke="black" cx="199.2" cy="-829.4" rx="27" ry="18"/>
<text text-anchor="middle" x="199.2" y="-825.7" font-family="Times-Roman" font-size="14.00">Cut</text>
</g>
<!-- Cut18&#45;&gt;PiL15 -->
<g id="edge7" class="edge">
<title>Cut18&#45;&gt;PiL15</title>
<g id="a_edge7"><a xlink:title="c_lseq46">
<path fill="none" stroke="black" d="M177.67,-852.39C168.62,-863.91 158.55,-878.08 150.85,-890.06"/>
<polygon fill="black" stroke="black" points="186.84,-846.63 177.83,-852.2 181.4,-842.23 186.84,-846.63"/>
<polygon fill="black" stroke="black" points="147.78,-888.37 145.48,-898.71 153.73,-892.06 147.78,-888.37"/>
</a>
</g>
</g>
<!-- Cut18&#45;&gt;PiL15 -->
<g id="edge34" class="edge">
<title>Cut18&#45;&gt;PiL15</title>
<g id="a_edge34"><a xlink:title="lval48">
<path fill="none" stroke="blue" d="M192.85,-847.19C185.01,-860.37 172.14,-878.85 160.84,-893.24"/>
<polygon fill="blue" stroke="blue" points="157.99,-891.2 154.42,-901.18 163.43,-895.6 157.99,-891.2"/>
</a>
</g>
</g>
<!-- Cut18&#45;&gt;Identity16 -->
<g id="edge54" class="edge">
<title>Cut18&#45;&gt;Identity16</title>
<g id="a_edge54"><a xlink:title="rval49">
<path fill="none" stroke="red" d="M200.62,-847.48C202.55,-868.21 206.54,-904.15 213.2,-934.4 216.25,-948.25 220.79,-963.36 224.87,-975.81"/>
<polygon fill="red" stroke="red" points="221.64,-977.19 228.14,-985.56 228.27,-974.96 221.64,-977.19"/>
</a>
</g>
</g>
<!-- Cut18&#45;&gt;BangD17 -->
<g id="edge9" class="edge">
<title>Cut18&#45;&gt;BangD17</title>
<g id="a_edge9"><a xlink:title="c_rseq47">
<path fill="none" stroke="black" d="M210.75,-845.99C220.08,-858.57 233.36,-876.49 244.09,-890.97"/>
<polygon fill="black" stroke="black" points="241.3,-893.09 250.07,-899.04 246.93,-888.92 241.3,-893.09"/>
</a>
</g>
<text text-anchor="middle" x="238.7" y="-869.2" font-family="Times-Roman" font-size="14.00">1</text>
</g>
<!-- BangC19 -->
<g id="node20" class="node">
<title>BangC19</title>
<ellipse fill="none" stroke="black" cx="249.2" cy="-742.4" rx="38.19" ry="18"/>
<text text-anchor="middle" x="249.2" y="-738.7" font-family="Times-Roman" font-size="14.00">BangC</text>
</g>
<!-- BangC19&#45;&gt;Bang13 -->
<g id="edge73" class="edge">
<title>BangC19&#45;&gt;Bang13</title>
<g id="a_edge73"><a xlink:title="yB44">
<path fill="none" stroke="blue" d="M218.59,-762.81C181.64,-788.47 122.12,-837.62 103.2,-898.4 94.64,-925.89 108.63,-957.05 121.59,-978.04"/>
<polygon fill="blue" stroke="blue" points="228.97,-760 218.73,-762.72 225.04,-754.2 228.97,-760"/>
<polygon fill="blue" stroke="blue" points="118.8,-980.18 127.2,-986.64 124.67,-976.35 118.8,-980.18"/>
</a>
</g>
<text text-anchor="middle" x="122.7" y="-869.2" font-family="Times-Roman" font-size="14.00">1</text>
</g>
<!-- BangC19&#45;&gt;BangD17 -->
<g id="edge72" class="edge">
<title>BangC19&#45;&gt;BangD17</title>
<g id="a_edge72"><a xlink:title="yA43">
<path fill="none" stroke="blue" d="M250.49,-760.52C252.75,-790.39 257.43,-852.28 260.13,-888.12"/>
<polygon fill="blue" stroke="blue" points="256.66,-888.64 260.91,-898.34 263.64,-888.11 256.66,-888.64"/>
</a>
</g>
<text text-anchor="middle" x="260.7" y="-825.7" font-family="Times-Roman" font-size="14.00">1</text>
</g>
<!-- BangC19&#45;&gt;Cut18 -->
<g id="edge60" class="edge">
<title>BangC19&#45;&gt;Cut18</title>
<g id="a_edge60"><a xlink:title="seq45">
<path fill="none" stroke="black" d="M239.32,-760.19C231.99,-772.65 221.88,-789.84 213.64,-803.84"/>
<polygon fill="black" stroke="black" points="210.6,-802.11 208.55,-812.5 216.63,-805.65 210.6,-802.11"/>
</a>
</g>
</g>
<!-- Identity20 -->
<g id="node21" class="node">
<title>Identity20</title>
<ellipse fill="none" stroke="black" cx="426.2" cy="-568.4" rx="44.39" ry="18"/>
<text text-anchor="middle" x="426.2" y="-564.7" font-family="Times-Roman" font-size="14.00">Identity</text>
</g>
<!-- BangD21 -->
<g id="node22" class="node">
<title>BangD21</title>
<ellipse fill="none" stroke="black" cx="426.2" cy="-481.4" rx="39.79" ry="18"/>
<text text-anchor="middle" x="426.2" y="-477.7" font-family="Times-Roman" font-size="14.00">BangD</text>
</g>
<!-- BangD21&#45;&gt;Identity20 -->
<g id="edge68" class="edge">
<title>BangD21&#45;&gt;Identity20</title>
<g id="a_edge68"><a xlink:title="xret26">
<path fill="none" stroke="blue" d="M432.05,-499.28C433.74,-504.96 435.35,-511.39 436.2,-517.4 437.25,-524.9 436.48,-532.98 434.98,-540.41"/>
<polygon fill="blue" stroke="blue" points="431.53,-539.81 432.51,-550.36 438.32,-541.5 431.53,-539.81"/>
</a>
</g>
<text text-anchor="middle" x="440.7" y="-521.2" font-family="Times-Roman" font-size="14.00">1</text>
</g>
<!-- BangD21&#45;&gt;Identity20 -->
<g id="edge70" class="edge">
<title>BangD21&#45;&gt;Identity20</title>
<g id="a_edge70"><a xlink:title="xseq25">
<path fill="none" stroke="black" d="M426.2,-499.6C426.2,-511.23 426.2,-526.85 426.2,-540.16"/>
<polygon fill="black" stroke="black" points="422.7,-540.22 426.2,-550.22 429.7,-540.22 422.7,-540.22"/>
</a>
</g>
<text text-anchor="middle" x="430.7" y="-521.2" font-family="Times-Roman" font-size="14.00">1</text>
</g>
<!-- Bang22 -->
<g id="node23" class="node">
<title>Bang22</title>
<ellipse fill="none" stroke="black" cx="395.2" cy="-394.4" rx="32.49" ry="18"/>
<text text-anchor="middle" x="395.2" y="-390.7" font-family="Times-Roman" font-size="14.00">Bang</text>
</g>
<!-- Bang22&#45;&gt;Identity20 -->
<g id="edge41" class="edge">
<title>Bang22&#45;&gt;Identity20</title>
<g id="a_edge41"><a xlink:title="newrretf23">
<path fill="none" stroke="red" d="M417.94,-407.27C437.2,-418.74 463.49,-438.08 475.2,-463.4 488.05,-491.19 467.9,-523.01 449.69,-544.06"/>
<polygon fill="red" stroke="red" points="447.01,-541.81 442.88,-551.57 452.19,-546.52 447.01,-541.81"/>
</a>
</g>
<text text-anchor="middle" x="483.7" y="-477.7" font-family="Times-Roman" font-size="14.00">1</text>
</g>
<!-- Bang22&#45;&gt;BangD21 -->
<g id="edge1" class="edge">
<title>Bang22&#45;&gt;BangD21</title>
<g id="a_edge1"><a xlink:title="c_bseq24">
<path fill="none" stroke="black" d="M392.73,-412.61C391.99,-422.51 392.24,-435.01 396.2,-445.4 397.74,-449.43 399.96,-453.33 402.51,-456.95"/>
<polygon fill="black" stroke="black" points="399.9,-459.29 408.9,-464.88 405.35,-454.9 399.9,-459.29"/>
</a>
</g>
<text text-anchor="middle" x="400.7" y="-434.2" font-family="Times-Roman" font-size="14.00">1</text>
</g>
<!-- Bang22&#45;&gt;BangD21 -->
<g id="edge67" class="edge">
<title>Bang22&#45;&gt;BangD21</title>
<g id="a_edge67"><a xlink:title="xBf22">
<path fill="none" stroke="blue" d="M401.32,-412.19C405.62,-423.99 411.47,-440.02 416.41,-453.57"/>
<polygon fill="blue" stroke="blue" points="413.26,-455.15 419.98,-463.35 419.84,-452.75 413.26,-455.15"/>
</a>
</g>
<text text-anchor="middle" x="416.7" y="-434.2" font-family="Times-Roman" font-size="14.00">0</text>
</g>
<!-- Identity23 -->
<g id="node24" class="node">
<title>Identity23</title>
<ellipse fill="none" stroke="black" cx="490.2" cy="-394.4" rx="44.39" ry="18"/>
<text text-anchor="middle" x="490.2" y="-390.7" font-family="Times-Roman" font-size="14.00">Identity</text>
</g>
<!-- PiL24 -->
<g id="node25" class="node">
<title>PiL24</title>
<ellipse fill="none" stroke="black" cx="426.2" cy="-296.7" rx="27" ry="18"/>
<text text-anchor="middle" x="426.2" y="-293" font-family="Times-Roman" font-size="14.00">PiL</text>
</g>
<!-- PiL24&#45;&gt;Bang22 -->
<g id="edge11" class="edge">
<title>PiL24&#45;&gt;Bang22</title>
<g id="a_edge11"><a xlink:title="dseq20">
<path fill="none" stroke="black" d="M412.75,-312.55C406.07,-320.96 398.69,-332.03 395.2,-343.4 392.98,-350.61 392.27,-358.7 392.3,-366.23"/>
<polygon fill="black" stroke="black" points="388.81,-366.53 392.75,-376.36 395.8,-366.22 388.81,-366.53"/>
</a>
</g>
<text text-anchor="middle" x="399.7" y="-347.2" font-family="Times-Roman" font-size="14.00">0</text>
</g>
<!-- PiL24&#45;&gt;Bang22 -->
<g id="edge36" class="edge">
<title>PiL24&#45;&gt;Bang22</title>
<g id="a_edge36"><a xlink:title="newrret18">
<path fill="none" stroke="red" d="M420.8,-314.37C416.11,-328.82 409.25,-350.01 403.81,-366.8"/>
<polygon fill="red" stroke="red" points="400.39,-366 400.64,-376.6 407.05,-368.16 400.39,-366"/>
</a>
</g>
<text text-anchor="middle" x="414.7" y="-347.2" font-family="Times-Roman" font-size="14.00">0</text>
</g>
<!-- PiL24&#45;&gt;Identity23 -->
<g id="edge23" class="edge">
<title>PiL24&#45;&gt;Identity23</title>
<g id="a_edge23"><a xlink:title="idseq21">
<path fill="none" stroke="black" d="M437.3,-323.37C445.9,-337.66 457.77,-355.34 468.18,-369.36"/>
<polygon fill="black" stroke="black" points="435.1,-312.61 437.1,-323.01 429.05,-316.12 435.1,-312.61"/>
<polygon fill="black" stroke="black" points="465.58,-371.73 474.43,-377.55 471.15,-367.48 465.58,-371.73"/>
</a>
</g>
</g>
<!-- PiL24&#45;&gt;Identity23 -->
<g id="edge29" class="edge">
<title>PiL24&#45;&gt;Identity23</title>
<g id="a_edge29"><a xlink:title="lret19">
<path fill="none" stroke="blue" stroke-width="2" d="M440.93,-312.23C452.64,-326.93 468.38,-349.94 479.08,-367.71"/>
<polygon fill="blue" stroke="blue" stroke-width="2" points="476.11,-369.58 484.17,-376.46 482.17,-366.06 476.11,-369.58"/>
</a>
</g>
</g>
<!-- Assign25 -->
<g id="node26" class="node">
<title>Assign25</title>
<ellipse fill="none" stroke="black" cx="354.2" cy="-18" rx="38.99" ry="18"/>
<text text-anchor="middle" x="354.2" y="-14.3" font-family="Times-Roman" font-size="14.00">Assign</text>
</g>
<!-- Assign25&#45;&gt;Identity23 -->
<g id="edge51" class="edge">
<title>Assign25&#45;&gt;Identity23</title>
<g id="a_edge51"><a xlink:title="ret8">
<path fill="none" stroke="red" stroke-width="2" d="M393.48,-18.34C445.62,-19.76 531.2,-31.07 531.2,-90 531.2,-90 531.2,-90 531.2,-297.7 531.2,-323.33 518.62,-349.92 507.39,-368.55"/>
<polygon fill="red" stroke="red" stroke-width="2" points="504.43,-366.7 502.05,-377.02 510.35,-370.43 504.43,-366.7"/>
</a>
</g>
</g>
<!-- Cut29 -->
<g id="node30" class="node">
<title>Cut29</title>
<ellipse fill="none" stroke="black" cx="354.2" cy="-91" rx="27" ry="18"/>
<text text-anchor="middle" x="354.2" y="-87.3" font-family="Times-Roman" font-size="14.00">Cut</text>
</g>
<!-- Assign25&#45;&gt;Cut29 -->
<g id="edge53" class="edge">
<title>Assign25&#45;&gt;Cut29</title>
<g id="a_edge53"><a xlink:title="retseq0">
<path fill="none" stroke="black" d="M354.2,-36.19C354.2,-44.21 354.2,-53.95 354.2,-62.93"/>
<polygon fill="black" stroke="black" points="350.7,-62.97 354.2,-72.97 357.7,-62.97 350.7,-62.97"/>
</a>
</g>
</g>
<!-- Cut26 -->
<g id="node27" class="node">
<title>Cut26</title>
<ellipse fill="none" stroke="black" cx="279.2" cy="-655.4" rx="27" ry="18"/>
<text text-anchor="middle" x="279.2" y="-651.7" font-family="Times-Roman" font-size="14.00">Cut</text>
</g>
<!-- Cut26&#45;&gt;Bang9 -->
<g id="edge13" class="edge">
<title>Cut26&#45;&gt;Bang9</title>
<g id="a_edge13"><a xlink:title="dseq63">
<path fill="none" stroke="black" d="M280.49,-673.49C281.99,-683.83 285.23,-696.82 292.2,-706.4 297.77,-714.06 305.58,-720.45 313.57,-725.59"/>
<polygon fill="black" stroke="black" points="311.82,-728.61 322.21,-730.66 315.36,-722.58 311.82,-728.61"/>
</a>
</g>
<text text-anchor="middle" x="296.7" y="-695.2" font-family="Times-Roman" font-size="14.00">1</text>
</g>
<!-- Cut26&#45;&gt;Bang9 -->
<g id="edge38" class="edge">
<title>Cut26&#45;&gt;Bang9</title>
<g id="a_edge38"><a xlink:title="newrret61">
<path fill="none" stroke="red" d="M291.35,-671.59C301.57,-684.37 316.36,-702.85 328.15,-717.58"/>
<polygon fill="red" stroke="red" points="325.7,-720.13 334.68,-725.76 331.17,-715.76 325.7,-720.13"/>
</a>
</g>
<text text-anchor="middle" x="321.7" y="-695.2" font-family="Times-Roman" font-size="14.00">1</text>
</g>
<!-- Cut26&#45;&gt;BangC19 -->
<g id="edge59" class="edge">
<title>Cut26&#45;&gt;BangC19</title>
<g id="a_edge59"><a xlink:title="seq40">
<path fill="none" stroke="black" d="M264.17,-681.37C259.86,-691.69 255.58,-703.68 252.45,-714.21"/>
<polygon fill="black" stroke="black" points="271.53,-673.4 264.28,-681.13 265.13,-670.57 271.53,-673.4"/>
<polygon fill="black" stroke="black" points="248.99,-713.58 249.73,-724.15 255.74,-715.43 248.99,-713.58"/>
</a>
</g>
</g>
<!-- Cut26&#45;&gt;BangC19 -->
<g id="edge71" class="edge">
<title>Cut26&#45;&gt;BangC19</title>
<g id="a_edge71"><a xlink:title="y41">
<path fill="none" stroke="blue" d="M278.67,-673.6C275.72,-685.7 270.16,-702.1 264.51,-715.74"/>
<polygon fill="blue" stroke="blue" points="261.22,-714.52 260.4,-725.09 267.63,-717.34 261.22,-714.52"/>
</a>
</g>
</g>
<!-- Cut27 -->
<g id="node28" class="node">
<title>Cut27</title>
<ellipse fill="none" stroke="black" cx="190.2" cy="-568.4" rx="27" ry="18"/>
<text text-anchor="middle" x="190.2" y="-564.7" font-family="Times-Roman" font-size="14.00">Cut</text>
</g>
<!-- Cut27&#45;&gt;Identity10 -->
<g id="edge25" class="edge">
<title>Cut27&#45;&gt;Identity10</title>
<g id="a_edge25"><a xlink:title="idseq64">
<path fill="none" stroke="black" d="M183.87,-596.32C183.31,-606.19 183.31,-617.36 183.85,-627.24"/>
<polygon fill="black" stroke="black" points="188.18,-586.47 183.88,-596.16 181.2,-585.9 188.18,-586.47"/>
<polygon fill="black" stroke="black" points="180.38,-627.66 184.66,-637.35 187.35,-627.1 180.38,-627.66"/>
</a>
</g>
</g>
<!-- Cut27&#45;&gt;Identity10 -->
<g id="edge31" class="edge">
<title>Cut27&#45;&gt;Identity10</title>
<g id="a_edge31"><a xlink:title="lret62">
<path fill="none" stroke="blue" d="M195.7,-586.19C197,-597.87 197.28,-613.7 196.54,-627.17"/>
<polygon fill="blue" stroke="blue" points="193.04,-627.1 195.73,-637.35 200.02,-627.66 193.04,-627.1"/>
</a>
</g>
</g>
<!-- Cut27&#45;&gt;Identity14 -->
<g id="edge50" class="edge">
<title>Cut27&#45;&gt;Identity14</title>
<g id="a_edge50"><a xlink:title="ret42">
<path fill="none" stroke="red" d="M163.32,-571.19C116.56,-575.92 25.2,-593.01 25.2,-654.4 25.2,-654.4 25.2,-654.4 25.2,-917.4 25.2,-937.31 30.22,-959.22 35.1,-975.81"/>
<polygon fill="red" stroke="red" points="31.77,-976.88 38.08,-985.39 38.46,-974.8 31.77,-976.88"/>
</a>
</g>
</g>
<!-- Cut27&#45;&gt;Cut26 -->
<g id="edge65" class="edge">
<title>Cut27&#45;&gt;Cut26</title>
<g id="a_edge65"><a xlink:title="seqP86">
<path fill="none" stroke="black" d="M205.29,-583.81C219.44,-597.33 240.77,-617.7 256.88,-633.09"/>
<polygon fill="black" stroke="black" points="254.67,-635.81 264.32,-640.19 259.51,-630.75 254.67,-635.81"/>
</a>
</g>
</g>
<!-- Bang28 -->
<g id="node29" class="node">
<title>Bang28</title>
<ellipse fill="none" stroke="black" cx="224.2" cy="-232" rx="32.49" ry="18"/>
<text text-anchor="middle" x="224.2" y="-228.3" font-family="Times-Roman" font-size="14.00">Bang</text>
</g>
<!-- PiR34 -->
<g id="node35" class="node">
<title>PiR34</title>
<ellipse fill="none" stroke="black" cx="222.2" cy="-394.4" rx="27" ry="18"/>
<text text-anchor="middle" x="222.2" y="-390.7" font-family="Times-Roman" font-size="14.00">PiR</text>
</g>
<!-- Bang28&#45;&gt;PiR34 -->
<g id="edge6" class="edge">
<title>Bang28&#45;&gt;PiR34</title>
<g id="a_edge6"><a xlink:title="c_bseq91">
<path fill="none" stroke="black" d="M223.98,-250.17C223.64,-277.9 222.95,-332.81 222.54,-366"/>
<polygon fill="black" stroke="black" points="219.03,-366.31 222.41,-376.35 226.03,-366.4 219.03,-366.31"/>
</a>
</g>
<text text-anchor="middle" x="227.7" y="-293" font-family="Times-Roman" font-size="14.00">1</text>
</g>
<!-- Bang28&#45;&gt;PiR34 -->
<g id="edge46" class="edge">
<title>Bang28&#45;&gt;PiR34</title>
<g id="a_edge46"><a xlink:title="newrretf92">
<path fill="none" stroke="red" d="M216.02,-249.7C213.65,-255.37 211.38,-261.83 210.2,-268 203.72,-301.64 209.66,-341.05 215.25,-366.58"/>
<polygon fill="red" stroke="red" points="211.91,-367.67 217.58,-376.62 218.72,-366.09 211.91,-367.67"/>
</a>
</g>
<text text-anchor="middle" x="214.7" y="-293" font-family="Times-Roman" font-size="14.00">1</text>
</g>
<!-- Cut29&#45;&gt;Bang22 -->
<g id="edge66" class="edge">
<title>Cut29&#45;&gt;Bang22</title>
<g id="a_edge66"><a xlink:title="xB10">
<path fill="none" stroke="blue" d="M367.56,-107.08C392.09,-135.88 443.49,-201.76 462.2,-268 469.13,-292.55 471.87,-301.79 462.2,-325.4 454.24,-344.8 437.78,-361.64 423.16,-373.71"/>
<polygon fill="blue" stroke="blue" points="420.98,-370.97 415.29,-379.91 425.32,-376.47 420.98,-370.97"/>
</a>
</g>
<text text-anchor="middle" x="460.7" y="-228.3" font-family="Times-Roman" font-size="14.00">0</text>
</g>
<!-- Cut29&#45;&gt;Bang28 -->
<g id="edge15" class="edge">
<title>Cut29&#45;&gt;Bang28</title>
<g id="a_edge15"><a xlink:title="dseq93">
<path fill="none" stroke="black" d="M327.85,-95.39C306.64,-99.44 277.45,-108.22 259.2,-127 239.02,-147.76 230.47,-180.51 226.84,-203.71"/>
<polygon fill="black" stroke="black" points="223.33,-203.54 225.47,-213.92 230.27,-204.48 223.33,-203.54"/>
</a>
</g>
<text text-anchor="middle" x="263.7" y="-130.8" font-family="Times-Roman" font-size="14.00">0</text>
</g>
<!-- Cut29&#45;&gt;Bang28 -->
<g id="edge40" class="edge">
<title>Cut29&#45;&gt;Bang28</title>
<g id="a_edge40"><a xlink:title="newrret94">
<path fill="none" stroke="red" d="M340.53,-106.61C317.89,-130.82 272.43,-179.43 245.53,-208.19"/>
<polygon fill="red" stroke="red" points="242.74,-206.05 238.47,-215.74 247.85,-210.83 242.74,-206.05"/>
</a>
</g>
<text text-anchor="middle" x="325.7" y="-130.8" font-family="Times-Roman" font-size="14.00">0</text>
</g>
<!-- Cut30 -->
<g id="node31" class="node">
<title>Cut30</title>
<ellipse fill="none" stroke="black" cx="354.2" cy="-178" rx="27" ry="18"/>
<text text-anchor="middle" x="354.2" y="-174.3" font-family="Times-Roman" font-size="14.00">Cut</text>
</g>
<!-- Cut29&#45;&gt;Cut30 -->
<g id="edge62" class="edge">
<title>Cut29&#45;&gt;Cut30</title>
<g id="a_edge62"><a xlink:title="seqBC95">
<path fill="none" stroke="black" d="M354.2,-119.27C354.2,-128.94 354.2,-139.83 354.2,-149.52"/>
<polygon fill="black" stroke="black" points="357.7,-109.2 354.2,-119.2 350.7,-109.2 357.7,-109.2"/>
<polygon fill="black" stroke="black" points="350.7,-149.82 354.2,-159.82 357.7,-149.82 350.7,-149.82"/>
</a>
</g>
</g>
<!-- Cut30&#45;&gt;PiL24 -->
<g id="edge33" class="edge">
<title>Cut30&#45;&gt;PiL24</title>
<g id="a_edge33"><a xlink:title="lval14">
<path fill="none" stroke="blue" stroke-width="2" d="M359.61,-195.72C369.8,-215.86 390.54,-249.81 406.36,-272.48"/>
<polygon fill="blue" stroke="blue" stroke-width="2" points="403.69,-274.77 412.36,-280.86 409.38,-270.69 403.69,-274.77"/>
</a>
</g>
</g>
<!-- Cut30&#45;&gt;PiL24 -->
<g id="edge69" class="edge">
<title>Cut30&#45;&gt;PiL24</title>
<g id="a_edge69"><a xlink:title="xseq16">
<path fill="none" stroke="black" d="M373.97,-202.12C387.59,-221.63 404.87,-249.53 415.93,-269.79"/>
<polygon fill="black" stroke="black" points="370.83,-191.74 373.82,-201.91 365.14,-195.82 370.83,-191.74"/>
<polygon fill="black" stroke="black" points="412.91,-271.57 420.68,-278.77 419.1,-268.3 412.91,-271.57"/>
</a>
</g>
</g>
<!-- Lift31 -->
<g id="node32" class="node">
<title>Lift31</title>
<ellipse fill="none" stroke="black" cx="354.2" cy="-296.7" rx="27" ry="18"/>
<text text-anchor="middle" x="354.2" y="-293" font-family="Times-Roman" font-size="14.00">Lift</text>
</g>
<!-- Cut30&#45;&gt;Lift31 -->
<g id="edge64" class="edge">
<title>Cut30&#45;&gt;Lift31</title>
<g id="a_edge64"><a xlink:title="seqDS96">
<path fill="none" stroke="black" d="M354.2,-196.22C354.2,-215.18 354.2,-245.93 354.2,-268.23"/>
<polygon fill="black" stroke="black" points="350.7,-268.41 354.2,-278.41 357.7,-268.41 350.7,-268.41"/>
</a>
</g>
<text text-anchor="middle" x="358.7" y="-228.3" font-family="Times-Roman" font-size="14.00">0</text>
</g>
<!-- Lift32 -->
<g id="node33" class="node">
<title>Lift32</title>
<ellipse fill="none" stroke="black" cx="280.2" cy="-296.7" rx="24.87" ry="24.87"/>
<ellipse fill="none" stroke="black" cx="280.2" cy="-296.7" rx="28.9" ry="28.9"/>
<text text-anchor="middle" x="280.2" y="-293" font-family="Times-Roman" font-size="14.00">Lift</text>
</g>
<!-- Cut30&#45;&gt;Lift32 -->
<g id="edge63" class="edge">
<title>Cut30&#45;&gt;Lift32</title>
<g id="a_edge63"><a xlink:title="seqDM97">
<path fill="none" stroke="red" stroke-width="2" d="M344.22,-194.74C333.07,-212.31 314.73,-241.23 300.54,-263.62"/>
<polygon fill="red" stroke="red" stroke-width="2" points="297.53,-261.83 295.13,-272.15 303.44,-265.58 297.53,-261.83"/>
</a>
</g>
<text text-anchor="middle" x="334.7" y="-228.3" font-family="Times-Roman" font-size="14.00">0</text>
</g>
<!-- PiR33 -->
<g id="node34" class="node">
<title>PiR33</title>
<ellipse fill="none" stroke="black" cx="318.2" cy="-394.4" rx="27" ry="18"/>
<text text-anchor="middle" x="318.2" y="-390.7" font-family="Times-Roman" font-size="14.00">PiR</text>
</g>
<!-- Lift31&#45;&gt;PiR33 -->
<g id="edge5" class="edge">
<title>Lift31&#45;&gt;PiR33</title>
<g id="a_edge5"><a xlink:title="c_bseq87">
<path fill="none" stroke="black" d="M347.93,-314.37C342.49,-328.82 334.52,-350.01 328.2,-366.8"/>
<polygon fill="black" stroke="black" points="324.76,-366 324.52,-376.6 331.31,-368.47 324.76,-366"/>
</a>
</g>
<text text-anchor="middle" x="340.7" y="-347.2" font-family="Times-Roman" font-size="14.00">1</text>
</g>
<!-- Lift32&#45;&gt;PiR33 -->
<g id="edge45" class="edge">
<title>Lift32&#45;&gt;PiR33</title>
<g id="a_edge45"><a xlink:title="newrretf88">
<path fill="none" stroke="red" d="M290.48,-323.6C295.89,-337.23 302.51,-353.89 307.92,-367.52"/>
<polygon fill="red" stroke="red" points="304.67,-368.81 311.61,-376.82 311.17,-366.23 304.67,-368.81"/>
</a>
</g>
<text text-anchor="middle" x="307.7" y="-347.2" font-family="Times-Roman" font-size="14.00">1</text>
</g>
<!-- Dup35 -->
<g id="node36" class="node">
<title>Dup35</title>
<ellipse fill="none" stroke="black" cx="190.2" cy="-481.4" rx="28.7" ry="18"/>
<text text-anchor="middle" x="190.2" y="-477.7" font-family="Times-Roman" font-size="14.00">Dup</text>
</g>
<!-- PiR33&#45;&gt;Dup35 -->
<g id="edge56" class="edge">
<title>PiR33&#45;&gt;Dup35</title>
<g id="a_edge56"><a xlink:title="seq100">
<path fill="none" stroke="black" d="M297.31,-405.99C284.82,-412.58 268.79,-421.46 255.2,-430.4 241.41,-439.46 226.79,-450.56 214.91,-460"/>
<polygon fill="black" stroke="black" points="212.39,-457.53 206.8,-466.52 216.78,-462.98 212.39,-457.53"/>
</a>
</g>
<text text-anchor="middle" x="259.7" y="-434.2" font-family="Times-Roman" font-size="14.00">1</text>
</g>
<!-- Dup36 -->
<g id="node37" class="node">
<title>Dup36</title>
<ellipse fill="none" stroke="black" cx="340.2" cy="-481.4" rx="28.7" ry="18"/>
<text text-anchor="middle" x="340.2" y="-477.7" font-family="Times-Roman" font-size="14.00">Dup</text>
</g>
<!-- PiR33&#45;&gt;Dup36 -->
<g id="edge16" class="edge">
<title>PiR33&#45;&gt;Dup36</title>
<g id="a_edge16"><a xlink:title="h101">
<path fill="none" stroke="blue" d="M323.23,-412.45C324.86,-418.14 326.65,-424.53 328.2,-430.4 330.14,-437.79 332.12,-445.83 333.91,-453.26"/>
<polygon fill="blue" stroke="blue" points="330.56,-454.3 336.27,-463.23 337.37,-452.69 330.56,-454.3"/>
</a>
</g>
<text text-anchor="middle" x="335.7" y="-434.2" font-family="Times-Roman" font-size="14.00">1</text>
</g>
<!-- Dup37 -->
<g id="node38" class="node">
<title>Dup37</title>
<ellipse fill="none" stroke="black" cx="265.2" cy="-481.4" rx="28.7" ry="18"/>
<text text-anchor="middle" x="265.2" y="-477.7" font-family="Times-Roman" font-size="14.00">Dup</text>
</g>
<!-- PiR33&#45;&gt;Dup37 -->
<g id="edge47" class="edge">
<title>PiR33&#45;&gt;Dup37</title>
<g id="a_edge47"><a xlink:title="ret102">
<path fill="none" stroke="red" d="M312.29,-412.26C308.42,-422.28 302.85,-435.01 296.2,-445.4 293.37,-449.81 289.99,-454.23 286.53,-458.36"/>
<polygon fill="red" stroke="red" points="283.87,-456.08 279.87,-465.89 289.12,-460.72 283.87,-456.08"/>
</a>
</g>
<text text-anchor="middle" x="307.7" y="-434.2" font-family="Times-Roman" font-size="14.00">1</text>
</g>
<!-- PiR34&#45;&gt;Dup35 -->
<g id="edge57" class="edge">
<title>PiR34&#45;&gt;Dup35</title>
<g id="a_edge57"><a xlink:title="seq104">
<path fill="none" stroke="black" d="M205.96,-409.11C200.18,-415 194.33,-422.38 191.2,-430.4 188.45,-437.43 187.45,-445.46 187.33,-452.99"/>
<polygon fill="none" stroke="black" points="183.84,-453.28 187.66,-463.16 190.84,-453.05 183.84,-453.28"/>
</a>
</g>
<text text-anchor="middle" x="195.7" y="-434.2" font-family="Times-Roman" font-size="14.00">1</text>
</g>
<!-- PiR34&#45;&gt;Dup36 -->
<g id="edge17" class="edge">
<title>PiR34&#45;&gt;Dup36</title>
<g id="a_edge17"><a xlink:title="h105">
<path fill="none" stroke="blue" d="M238.78,-408.68C251.77,-418.96 270.39,-433.41 287.2,-445.4 295.24,-451.13 304.14,-457.14 312.32,-462.53"/>
<polygon fill="none" stroke="blue" points="310.55,-465.55 320.84,-468.09 314.38,-459.69 310.55,-465.55"/>
</a>
</g>
<text text-anchor="middle" x="291.7" y="-434.2" font-family="Times-Roman" font-size="14.00">1</text>
</g>
<!-- PiR34&#45;&gt;Dup37 -->
<g id="edge48" class="edge">
<title>PiR34&#45;&gt;Dup37</title>
<g id="a_edge48"><a xlink:title="ret106">
<path fill="none" stroke="red" d="M219.13,-412.42C218.13,-422.49 218.31,-435.22 223.2,-445.4 226.29,-451.83 231.19,-457.51 236.58,-462.32"/>
<polygon fill="none" stroke="red" points="234.64,-465.25 244.65,-468.73 238.99,-459.77 234.64,-465.25"/>
</a>
</g>
<text text-anchor="middle" x="227.7" y="-434.2" font-family="Times-Roman" font-size="14.00">1</text>
</g>
<!-- Dup35&#45;&gt;Cut27 -->
<g id="edge58" class="edge">
<title>Dup35&#45;&gt;Cut27</title>
<g id="a_edge58"><a xlink:title="seq33">
<path fill="none" stroke="black" d="M190.2,-499.6C190.2,-511.23 190.2,-526.85 190.2,-540.16"/>
<polygon fill="black" stroke="black" points="186.7,-540.22 190.2,-550.22 193.7,-540.22 186.7,-540.22"/>
</a>
</g>
<text text-anchor="middle" x="194.7" y="-521.2" font-family="Times-Roman" font-size="14.00">1</text>
</g>
<!-- Dup36&#45;&gt;Bang9 -->
<g id="edge18" class="edge">
<title>Dup36&#45;&gt;Bang9</title>
<g id="a_edge18"><a xlink:title="h34">
<path fill="none" stroke="blue" d="M340.67,-499.79C341.86,-543.93 345.01,-660.57 346.46,-713.98"/>
<polygon fill="blue" stroke="blue" points="342.96,-714.17 346.73,-724.08 349.96,-713.98 342.96,-714.17"/>
</a>
</g>
<text text-anchor="middle" x="347.7" y="-608.2" font-family="Times-Roman" font-size="14.00">1</text>
</g>
<!-- Dup37&#45;&gt;Identity10 -->
<g id="edge49" class="edge">
<title>Dup37&#45;&gt;Identity10</title>
<g id="a_edge49"><a xlink:title="ret35">
<path fill="none" stroke="red" d="M260.15,-499.38C251.99,-525.82 234.63,-578.06 213.2,-619.4 211.54,-622.59 209.66,-625.86 207.72,-629.05"/>
<polygon fill="red" stroke="red" points="204.6,-627.42 202.15,-637.73 210.5,-631.2 204.6,-627.42"/>
</a>
</g>
<text text-anchor="middle" x="246.7" y="-564.7" font-family="Times-Roman" font-size="14.00">1</text>
</g>
</g>
</svg>
