<?xml version="1.0" encoding="UTF-8" standalone="no"?>
<!DOCTYPE svg PUBLIC "-//W3C//DTD SVG 1.1//EN"
 "http://www.w3.org/Graphics/SVG/1.1/DTD/svg11.dtd">
<!-- Generated by graphviz version 2.43.0 (0)
 -->
<!-- Title: %3 Pages: 1 -->
<svg width="766pt" height="1098pt"
 viewBox="0.00 0.00 766.39 1098.00" xmlns="http://www.w3.org/2000/svg" xmlns:xlink="http://www.w3.org/1999/xlink">
<g id="graph0" class="graph" transform="scale(1 1) rotate(0) translate(4 1094)">
<title>%3</title>
<polygon fill="white" stroke="transparent" points="-4,4 -4,-1094 762.39,-1094 762.39,4 -4,4"/>
<!-- Identity0 -->
<g id="node1" class="node">
<title>Identity0</title>
<ellipse fill="none" stroke="black" cx="427.2" cy="-1072" rx="44.39" ry="18"/>
<text text-anchor="middle" x="427.2" y="-1068.3" font-family="Times-Roman" font-size="14.00">Identity</text>
</g>
<!-- BangD1 -->
<g id="node2" class="node">
<title>BangD1</title>
<ellipse fill="none" stroke="black" cx="427.2" cy="-985" rx="39.79" ry="18"/>
<text text-anchor="middle" x="427.2" y="-981.3" font-family="Times-Roman" font-size="14.00">BangD</text>
</g>
<!-- BangD1&#45;&gt;Identity0 -->
<g id="edge28" class="edge">
<title>BangD1&#45;&gt;Identity0</title>
<g id="a_edge28"><a xlink:title="iret84">
<path fill="none" stroke="blue" d="M433.05,-1002.88C434.74,-1008.56 436.35,-1014.99 437.2,-1021 438.25,-1028.5 437.48,-1036.58 435.98,-1044.01"/>
<polygon fill="blue" stroke="blue" points="432.53,-1043.41 433.51,-1053.96 439.32,-1045.1 432.53,-1043.41"/>
</a>
</g>
<text text-anchor="middle" x="441.7" y="-1024.8" font-family="Times-Roman" font-size="14.00">3</text>
</g>
<!-- BangD1&#45;&gt;Identity0 -->
<g id="edge29" class="edge">
<title>BangD1&#45;&gt;Identity0</title>
<g id="a_edge29"><a xlink:title="iseq83">
<path fill="none" stroke="black" d="M427.2,-1003.2C427.2,-1014.83 427.2,-1030.45 427.2,-1043.76"/>
<polygon fill="black" stroke="black" points="423.7,-1043.82 427.2,-1053.82 430.7,-1043.82 423.7,-1043.82"/>
</a>
</g>
<text text-anchor="middle" x="431.7" y="-1024.8" font-family="Times-Roman" font-size="14.00">3</text>
</g>
<!-- PiR2 -->
<g id="node3" class="node">
<title>PiR2</title>
<ellipse fill="none" stroke="black" cx="427.2" cy="-898" rx="27" ry="18"/>
<text text-anchor="middle" x="427.2" y="-894.3" font-family="Times-Roman" font-size="14.00">PiR</text>
</g>
<!-- PiR2&#45;&gt;Identity0 -->
<g id="edge51" class="edge">
<title>PiR2&#45;&gt;Identity0</title>
<g id="a_edge51"><a xlink:title="ret82">
<path fill="none" stroke="red" d="M441.76,-913.38C453.61,-926.18 469.45,-946.09 476.2,-967 481.11,-982.22 481.11,-987.77 476.2,-1003 470.93,-1019.31 460.13,-1035.01 450.01,-1047.21"/>
<polygon fill="red" stroke="red" points="447.11,-1045.21 443.19,-1055.05 452.39,-1049.8 447.11,-1045.21"/>
</a>
</g>
</g>
<!-- PiR2&#45;&gt;BangD1 -->
<g id="edge23" class="edge">
<title>PiR2&#45;&gt;BangD1</title>
<g id="a_edge23"><a xlink:title="i81">
<path fill="none" stroke="blue" d="M410.88,-912.68C405.09,-918.57 399.25,-925.95 396.2,-934 392.67,-943.31 396.32,-952.78 402.2,-960.94"/>
<polygon fill="blue" stroke="blue" points="399.53,-963.2 408.64,-968.6 404.89,-958.69 399.53,-963.2"/>
</a>
</g>
<text text-anchor="middle" x="400.7" y="-937.8" font-family="Times-Roman" font-size="14.00">3</text>
</g>
<!-- PiR2&#45;&gt;BangD1 -->
<g id="edge62" class="edge">
<title>PiR2&#45;&gt;BangD1</title>
<g id="a_edge62"><a xlink:title="seq80">
<path fill="none" stroke="black" d="M427.2,-916.2C427.2,-927.83 427.2,-943.45 427.2,-956.76"/>
<polygon fill="black" stroke="black" points="423.7,-956.82 427.2,-966.82 430.7,-956.82 423.7,-956.82"/>
</a>
</g>
<text text-anchor="middle" x="431.7" y="-937.8" font-family="Times-Roman" font-size="14.00">3</text>
</g>
<!-- Bang3 -->
<g id="node4" class="node">
<title>Bang3</title>
<ellipse fill="none" stroke="black" cx="427.2" cy="-811" rx="32.49" ry="18"/>
<text text-anchor="middle" x="427.2" y="-807.3" font-family="Times-Roman" font-size="14.00">Bang</text>
</g>
<!-- Bang3&#45;&gt;PiR2 -->
<g id="edge5" class="edge">
<title>Bang3&#45;&gt;PiR2</title>
<g id="a_edge5"><a xlink:title="c_bseq79">
<path fill="none" stroke="black" d="M427.2,-829.2C427.2,-840.83 427.2,-856.45 427.2,-869.76"/>
<polygon fill="black" stroke="black" points="423.7,-869.82 427.2,-879.82 430.7,-869.82 423.7,-869.82"/>
</a>
</g>
<text text-anchor="middle" x="431.7" y="-850.8" font-family="Times-Roman" font-size="14.00">3</text>
</g>
<!-- Bang3&#45;&gt;PiR2 -->
<g id="edge47" class="edge">
<title>Bang3&#45;&gt;PiR2</title>
<g id="a_edge47"><a xlink:title="newrretf78">
<path fill="none" stroke="red" d="M433.05,-828.88C434.74,-834.56 436.35,-840.99 437.2,-847 438.28,-854.71 437.43,-863.03 435.86,-870.63"/>
<polygon fill="red" stroke="red" points="432.44,-869.86 433.37,-880.41 439.23,-871.58 432.44,-869.86"/>
</a>
</g>
<text text-anchor="middle" x="441.7" y="-850.8" font-family="Times-Roman" font-size="14.00">3</text>
</g>
<!-- Identity4 -->
<g id="node5" class="node">
<title>Identity4</title>
<ellipse fill="none" stroke="black" cx="332.2" cy="-811" rx="44.39" ry="18"/>
<text text-anchor="middle" x="332.2" y="-807.3" font-family="Times-Roman" font-size="14.00">Identity</text>
</g>
<!-- PiL5 -->
<g id="node6" class="node">
<title>PiL5</title>
<ellipse fill="none" stroke="black" cx="374.2" cy="-724" rx="27" ry="18"/>
<text text-anchor="middle" x="374.2" y="-720.3" font-family="Times-Roman" font-size="14.00">PiL</text>
</g>
<!-- PiL5&#45;&gt;Bang3 -->
<g id="edge18" class="edge">
<title>PiL5&#45;&gt;Bang3</title>
<g id="a_edge18"><a xlink:title="dseq76">
<path fill="none" stroke="black" d="M388.87,-739.5C394.44,-745.5 400.56,-752.75 405.2,-760 409.87,-767.3 414.01,-775.76 417.41,-783.62"/>
<polygon fill="black" stroke="black" points="414.27,-785.19 421.29,-793.13 420.75,-782.55 414.27,-785.19"/>
</a>
</g>
<text text-anchor="middle" x="416.7" y="-763.8" font-family="Times-Roman" font-size="14.00">2</text>
</g>
<!-- PiL5&#45;&gt;Bang3 -->
<g id="edge42" class="edge">
<title>PiL5&#45;&gt;Bang3</title>
<g id="a_edge42"><a xlink:title="newrret74">
<path fill="none" stroke="red" d="M380.11,-741.86C383.98,-751.88 389.55,-764.61 396.2,-775 398.85,-779.13 401.98,-783.27 405.22,-787.18"/>
<polygon fill="red" stroke="red" points="402.67,-789.58 411.89,-794.81 407.94,-784.98 402.67,-789.58"/>
</a>
</g>
<text text-anchor="middle" x="400.7" y="-763.8" font-family="Times-Roman" font-size="14.00">2</text>
</g>
<!-- PiL5&#45;&gt;Identity4 -->
<g id="edge27" class="edge">
<title>PiL5&#45;&gt;Identity4</title>
<g id="a_edge27"><a xlink:title="idseq77">
<path fill="none" stroke="black" d="M356.29,-748.83C350.23,-759.56 343.89,-772.27 339.06,-783.31"/>
<polygon fill="black" stroke="black" points="364.39,-741.97 356.3,-748.81 358.36,-738.42 364.39,-741.97"/>
<polygon fill="black" stroke="black" points="335.69,-782.31 335.11,-792.89 342.16,-784.98 335.69,-782.31"/>
</a>
</g>
</g>
<!-- PiL5&#45;&gt;Identity4 -->
<g id="edge33" class="edge">
<title>PiL5&#45;&gt;Identity4</title>
<g id="a_edge33"><a xlink:title="lret75">
<path fill="none" stroke="blue" d="M371.25,-742.2C366.54,-754.41 358.56,-771.02 350.91,-784.74"/>
<polygon fill="blue" stroke="blue" points="347.7,-783.28 345.7,-793.69 353.76,-786.8 347.7,-783.28"/>
</a>
</g>
</g>
<!-- Identity6 -->
<g id="node7" class="node">
<title>Identity6</title>
<ellipse fill="none" stroke="black" cx="226.2" cy="-811" rx="44.39" ry="18"/>
<text text-anchor="middle" x="226.2" y="-807.3" font-family="Times-Roman" font-size="14.00">Identity</text>
</g>
<!-- BangD7 -->
<g id="node8" class="node">
<title>BangD7</title>
<ellipse fill="none" stroke="black" cx="251.2" cy="-724" rx="39.79" ry="18"/>
<text text-anchor="middle" x="251.2" y="-720.3" font-family="Times-Roman" font-size="14.00">BangD</text>
</g>
<!-- BangD7&#45;&gt;Identity6 -->
<g id="edge21" class="edge">
<title>BangD7&#45;&gt;Identity6</title>
<g id="a_edge21"><a xlink:title="hret73">
<path fill="none" stroke="blue" d="M246.14,-742.2C242.68,-753.95 238.03,-769.76 234.09,-783.15"/>
<polygon fill="blue" stroke="blue" points="230.71,-782.24 231.25,-792.82 237.43,-784.21 230.71,-782.24"/>
</a>
</g>
<text text-anchor="middle" x="244.7" y="-763.8" font-family="Times-Roman" font-size="14.00">2</text>
</g>
<!-- BangD7&#45;&gt;Identity6 -->
<g id="edge22" class="edge">
<title>BangD7&#45;&gt;Identity6</title>
<g id="a_edge22"><a xlink:title="hseq72">
<path fill="none" stroke="black" d="M237.32,-741.03C233.27,-746.66 229.36,-753.26 227.2,-760 224.89,-767.19 224.03,-775.27 223.91,-782.8"/>
<polygon fill="black" stroke="black" points="220.41,-783.02 224.15,-792.93 227.41,-782.85 220.41,-783.02"/>
</a>
</g>
<text text-anchor="middle" x="231.7" y="-763.8" font-family="Times-Roman" font-size="14.00">2</text>
</g>
<!-- Cut8 -->
<g id="node9" class="node">
<title>Cut8</title>
<ellipse fill="none" stroke="black" cx="277.2" cy="-637" rx="27" ry="18"/>
<text text-anchor="middle" x="277.2" y="-633.3" font-family="Times-Roman" font-size="14.00">Cut</text>
</g>
<!-- Cut8&#45;&gt;PiL5 -->
<g id="edge9" class="edge">
<title>Cut8&#45;&gt;PiL5</title>
<g id="a_edge9"><a xlink:title="c_lseq68">
<path fill="none" stroke="black" d="M304.39,-655.76C312.48,-660.73 321.02,-666.56 328.2,-673 337.18,-681.05 345.38,-691.61 352.51,-700.94"/>
<polygon fill="black" stroke="black" points="297.34,-647.51 304.16,-655.62 293.77,-653.53 297.34,-647.51"/>
<polygon fill="black" stroke="black" points="349.88,-703.27 358.74,-709.06 355.43,-699 349.88,-703.27"/>
</a>
</g>
</g>
<!-- Cut8&#45;&gt;PiL5 -->
<g id="edge37" class="edge">
<title>Cut8&#45;&gt;PiL5</title>
<g id="a_edge37"><a xlink:title="lval70">
<path fill="none" stroke="blue" d="M301.28,-645.45C315.66,-651.64 333.18,-661.32 346.2,-673 353.99,-679.98 361.19,-688.85 366.63,-697.17"/>
<polygon fill="blue" stroke="blue" points="363.68,-699.05 371.8,-705.86 369.7,-695.48 363.68,-699.05"/>
</a>
</g>
</g>
<!-- Cut8&#45;&gt;Identity6 -->
<g id="edge56" class="edge">
<title>Cut8&#45;&gt;Identity6</title>
<g id="a_edge56"><a xlink:title="rval71">
<path fill="none" stroke="red" d="M257.24,-649.32C239.05,-660.91 213.38,-680.77 202.2,-706 191,-731.26 201,-762.39 211.29,-783.97"/>
<polygon fill="red" stroke="red" points="208.31,-785.84 215.97,-793.16 214.55,-782.66 208.31,-785.84"/>
</a>
</g>
</g>
<!-- Cut8&#45;&gt;BangD7 -->
<g id="edge13" class="edge">
<title>Cut8&#45;&gt;BangD7</title>
<g id="a_edge13"><a xlink:title="c_rseq69">
<path fill="none" stroke="black" d="M272.06,-654.79C268.45,-666.59 263.55,-682.62 259.4,-696.17"/>
<polygon fill="black" stroke="black" points="255.99,-695.36 256.41,-705.95 262.68,-697.41 255.99,-695.36"/>
</a>
</g>
<text text-anchor="middle" x="269.7" y="-676.8" font-family="Times-Roman" font-size="14.00">2</text>
</g>
<!-- Bang9 -->
<g id="node10" class="node">
<title>Bang9</title>
<ellipse fill="none" stroke="black" cx="332.2" cy="-550" rx="32.49" ry="18"/>
<text text-anchor="middle" x="332.2" y="-546.3" font-family="Times-Roman" font-size="14.00">Bang</text>
</g>
<!-- Bang9&#45;&gt;Identity4 -->
<g id="edge46" class="edge">
<title>Bang9&#45;&gt;Identity4</title>
<g id="a_edge46"><a xlink:title="newrretf66">
<path fill="none" stroke="red" d="M332.2,-568.39C332.2,-612.53 332.2,-729.17 332.2,-782.58"/>
<polygon fill="red" stroke="red" points="328.7,-782.68 332.2,-792.68 335.7,-782.68 328.7,-782.68"/>
</a>
</g>
<text text-anchor="middle" x="336.7" y="-676.8" font-family="Times-Roman" font-size="14.00">2</text>
</g>
<!-- Bang9&#45;&gt;BangD7 -->
<g id="edge20" class="edge">
<title>Bang9&#45;&gt;BangD7</title>
<g id="a_edge20"><a xlink:title="hf65">
<path fill="none" stroke="blue" d="M305.82,-560.57C281.73,-570.89 247.62,-589.86 232.2,-619 219.31,-643.33 228.06,-674.86 237.5,-696.8"/>
<polygon fill="blue" stroke="blue" points="234.45,-698.53 241.82,-706.14 240.8,-695.59 234.45,-698.53"/>
</a>
</g>
<text text-anchor="middle" x="236.7" y="-633.3" font-family="Times-Roman" font-size="14.00">1</text>
</g>
<!-- Bang9&#45;&gt;Cut8 -->
<g id="edge4" class="edge">
<title>Bang9&#45;&gt;Cut8</title>
<g id="a_edge4"><a xlink:title="c_bseq67">
<path fill="none" stroke="black" d="M321.39,-567.35C317.53,-573.22 313.15,-579.9 309.2,-586 303.82,-594.29 297.98,-603.39 292.78,-611.52"/>
<polygon fill="black" stroke="black" points="289.67,-609.89 287.24,-620.2 295.57,-613.65 289.67,-609.89"/>
</a>
</g>
<text text-anchor="middle" x="313.7" y="-589.8" font-family="Times-Roman" font-size="14.00">2</text>
</g>
<!-- Identity10 -->
<g id="node11" class="node">
<title>Identity10</title>
<ellipse fill="none" stroke="black" cx="430.2" cy="-550" rx="44.39" ry="18"/>
<text text-anchor="middle" x="430.2" y="-546.3" font-family="Times-Roman" font-size="14.00">Identity</text>
</g>
<!-- PiL11 -->
<g id="node12" class="node">
<title>PiL11</title>
<ellipse fill="none" stroke="black" cx="409.2" cy="-463" rx="27" ry="18"/>
<text text-anchor="middle" x="409.2" y="-459.3" font-family="Times-Roman" font-size="14.00">PiL</text>
</g>
<!-- PiL11&#45;&gt;Bang9 -->
<g id="edge17" class="edge">
<title>PiL11&#45;&gt;Bang9</title>
<g id="a_edge17"><a xlink:title="dseq63">
<path fill="none" stroke="black" d="M399.87,-480.18C393.58,-490.42 384.71,-503.63 375.2,-514 370.47,-519.14 364.97,-524.18 359.52,-528.76"/>
<polygon fill="black" stroke="black" points="357.24,-526.11 351.65,-535.11 361.63,-531.56 357.24,-526.11"/>
</a>
</g>
<text text-anchor="middle" x="390.7" y="-502.8" font-family="Times-Roman" font-size="14.00">1</text>
</g>
<!-- PiL11&#45;&gt;Bang9 -->
<g id="edge41" class="edge">
<title>PiL11&#45;&gt;Bang9</title>
<g id="a_edge41"><a xlink:title="newrret61">
<path fill="none" stroke="red" d="M391.45,-476.57C383.28,-482.81 373.74,-490.77 366.2,-499 359.32,-506.49 352.77,-515.48 347.3,-523.76"/>
<polygon fill="red" stroke="red" points="344.24,-522.04 341.81,-532.35 350.14,-525.81 344.24,-522.04"/>
</a>
</g>
<text text-anchor="middle" x="370.7" y="-502.8" font-family="Times-Roman" font-size="14.00">1</text>
</g>
<!-- PiL11&#45;&gt;Identity10 -->
<g id="edge26" class="edge">
<title>PiL11&#45;&gt;Identity10</title>
<g id="a_edge26"><a xlink:title="idseq64">
<path fill="none" stroke="black" d="M409.61,-491.4C411.54,-501.43 414.36,-512.74 417.4,-522.67"/>
<polygon fill="black" stroke="black" points="411.35,-480.62 409.55,-491.06 404.45,-481.78 411.35,-480.62"/>
<polygon fill="black" stroke="black" points="414.15,-524 420.61,-532.4 420.8,-521.81 414.15,-524"/>
</a>
</g>
</g>
<!-- PiL11&#45;&gt;Identity10 -->
<g id="edge32" class="edge">
<title>PiL11&#45;&gt;Identity10</title>
<g id="a_edge32"><a xlink:title="lret62">
<path fill="none" stroke="blue" d="M418.56,-479.98C422.86,-491.79 427.21,-508.13 429.85,-521.95"/>
<polygon fill="blue" stroke="blue" points="426.41,-522.62 431.51,-531.91 433.32,-521.47 426.41,-522.62"/>
</a>
</g>
</g>
<!-- Identity12 -->
<g id="node13" class="node">
<title>Identity12</title>
<ellipse fill="none" stroke="black" cx="619.2" cy="-985" rx="44.39" ry="18"/>
<text text-anchor="middle" x="619.2" y="-981.3" font-family="Times-Roman" font-size="14.00">Identity</text>
</g>
<!-- BangD13 -->
<g id="node14" class="node">
<title>BangD13</title>
<ellipse fill="none" stroke="black" cx="619.2" cy="-898" rx="39.79" ry="18"/>
<text text-anchor="middle" x="619.2" y="-894.3" font-family="Times-Roman" font-size="14.00">BangD</text>
</g>
<!-- BangD13&#45;&gt;Identity12 -->
<g id="edge76" class="edge">
<title>BangD13&#45;&gt;Identity12</title>
<g id="a_edge76"><a xlink:title="yret60">
<path fill="none" stroke="blue" d="M600.64,-914.39C591.56,-923.88 583.49,-936.58 588.2,-949 589.72,-953.01 591.93,-956.86 594.49,-960.44"/>
<polygon fill="blue" stroke="blue" points="591.86,-962.75 600.92,-968.26 597.27,-958.31 591.86,-962.75"/>
</a>
</g>
<text text-anchor="middle" x="592.7" y="-937.8" font-family="Times-Roman" font-size="14.00">2</text>
</g>
<!-- BangD13&#45;&gt;Identity12 -->
<g id="edge78" class="edge">
<title>BangD13&#45;&gt;Identity12</title>
<g id="a_edge78"><a xlink:title="yseq59">
<path fill="none" stroke="black" d="M619.2,-916.2C619.2,-927.83 619.2,-943.45 619.2,-956.76"/>
<polygon fill="black" stroke="black" points="615.7,-956.82 619.2,-966.82 622.7,-956.82 615.7,-956.82"/>
</a>
</g>
<text text-anchor="middle" x="623.7" y="-937.8" font-family="Times-Roman" font-size="14.00">2</text>
</g>
<!-- Bang14 -->
<g id="node15" class="node">
<title>Bang14</title>
<ellipse fill="none" stroke="black" cx="619.2" cy="-811" rx="32.49" ry="18"/>
<text text-anchor="middle" x="619.2" y="-807.3" font-family="Times-Roman" font-size="14.00">Bang</text>
</g>
<!-- Bang14&#45;&gt;Identity12 -->
<g id="edge45" class="edge">
<title>Bang14&#45;&gt;Identity12</title>
<g id="a_edge45"><a xlink:title="newrretf57">
<path fill="none" stroke="red" d="M601.46,-826.33C587.53,-838.83 569.19,-858.3 561.2,-880 550.11,-910.07 561.79,-924.27 582.2,-949 585.63,-953.15 589.52,-957.31 593.46,-961.24"/>
<polygon fill="red" stroke="red" points="591.35,-964.06 600.99,-968.44 596.18,-959 591.35,-964.06"/>
</a>
</g>
<text text-anchor="middle" x="565.7" y="-894.3" font-family="Times-Roman" font-size="14.00">2</text>
</g>
<!-- Bang14&#45;&gt;BangD13 -->
<g id="edge3" class="edge">
<title>Bang14&#45;&gt;BangD13</title>
<g id="a_edge3"><a xlink:title="c_bseq58">
<path fill="none" stroke="black" d="M619.2,-829.2C619.2,-840.83 619.2,-856.45 619.2,-869.76"/>
<polygon fill="black" stroke="black" points="615.7,-869.82 619.2,-879.82 622.7,-869.82 615.7,-869.82"/>
</a>
</g>
<text text-anchor="middle" x="623.7" y="-850.8" font-family="Times-Roman" font-size="14.00">2</text>
</g>
<!-- Bang14&#45;&gt;BangD13 -->
<g id="edge74" class="edge">
<title>Bang14&#45;&gt;BangD13</title>
<g id="a_edge74"><a xlink:title="yBf56">
<path fill="none" stroke="blue" d="M611.17,-828.52C607.42,-838.2 604.17,-850.7 606.2,-862 606.71,-864.87 607.45,-867.81 608.31,-870.71"/>
<polygon fill="blue" stroke="blue" points="605.03,-871.93 611.6,-880.25 611.65,-869.65 605.03,-871.93"/>
</a>
</g>
<text text-anchor="middle" x="610.7" y="-850.8" font-family="Times-Roman" font-size="14.00">1</text>
</g>
<!-- Identity15 -->
<g id="node16" class="node">
<title>Identity15</title>
<ellipse fill="none" stroke="black" cx="714.2" cy="-811" rx="44.39" ry="18"/>
<text text-anchor="middle" x="714.2" y="-807.3" font-family="Times-Roman" font-size="14.00">Identity</text>
</g>
<!-- PiL16 -->
<g id="node17" class="node">
<title>PiL16</title>
<ellipse fill="none" stroke="black" cx="642.2" cy="-724" rx="27" ry="18"/>
<text text-anchor="middle" x="642.2" y="-720.3" font-family="Times-Roman" font-size="14.00">PiL</text>
</g>
<!-- PiL16&#45;&gt;Bang14 -->
<g id="edge16" class="edge">
<title>PiL16&#45;&gt;Bang14</title>
<g id="a_edge16"><a xlink:title="dseq54">
<path fill="none" stroke="black" d="M630.56,-740.58C626.87,-746.38 623.22,-753.21 621.2,-760 619.03,-767.24 618.11,-775.33 617.83,-782.86"/>
<polygon fill="black" stroke="black" points="614.33,-782.98 617.81,-792.99 621.33,-782.99 614.33,-782.98"/>
</a>
</g>
<text text-anchor="middle" x="625.7" y="-763.8" font-family="Times-Roman" font-size="14.00">1</text>
</g>
<!-- PiL16&#45;&gt;Bang14 -->
<g id="edge40" class="edge">
<title>PiL16&#45;&gt;Bang14</title>
<g id="a_edge40"><a xlink:title="newrret52">
<path fill="none" stroke="red" d="M638.38,-742.19C636.15,-751.87 633.2,-764.15 630.2,-775 629.46,-777.67 628.65,-780.44 627.82,-783.2"/>
<polygon fill="red" stroke="red" points="624.41,-782.39 624.8,-792.98 631.1,-784.45 624.41,-782.39"/>
</a>
</g>
<text text-anchor="middle" x="637.7" y="-763.8" font-family="Times-Roman" font-size="14.00">1</text>
</g>
<!-- PiL16&#45;&gt;Identity15 -->
<g id="edge25" class="edge">
<title>PiL16&#45;&gt;Identity15</title>
<g id="a_edge25"><a xlink:title="idseq55">
<path fill="none" stroke="black" d="M656.75,-749.47C665.94,-761.26 677.89,-775.33 688.58,-786.93"/>
<polygon fill="black" stroke="black" points="653.41,-739.27 656.66,-749.35 647.83,-743.5 653.41,-739.27"/>
<polygon fill="black" stroke="black" points="686.33,-789.64 695.73,-794.52 691.42,-784.84 686.33,-789.64"/>
</a>
</g>
</g>
<!-- PiL16&#45;&gt;Identity15 -->
<g id="edge31" class="edge">
<title>PiL16&#45;&gt;Identity15</title>
<g id="a_edge31"><a xlink:title="lret53">
<path fill="none" stroke="blue" d="M658.88,-738.65C671.2,-751.16 687.51,-769.99 699.37,-785.16"/>
<polygon fill="blue" stroke="blue" points="696.6,-787.31 705.44,-793.15 702.17,-783.08 696.6,-787.31"/>
</a>
</g>
</g>
<!-- Identity17 -->
<g id="node18" class="node">
<title>Identity17</title>
<ellipse fill="none" stroke="black" cx="522.2" cy="-811" rx="44.39" ry="18"/>
<text text-anchor="middle" x="522.2" y="-807.3" font-family="Times-Roman" font-size="14.00">Identity</text>
</g>
<!-- BangD18 -->
<g id="node19" class="node">
<title>BangD18</title>
<ellipse fill="none" stroke="black" cx="519.2" cy="-724" rx="39.79" ry="18"/>
<text text-anchor="middle" x="519.2" y="-720.3" font-family="Times-Roman" font-size="14.00">BangD</text>
</g>
<!-- BangD18&#45;&gt;Identity17 -->
<g id="edge75" class="edge">
<title>BangD18&#45;&gt;Identity17</title>
<g id="a_edge75"><a xlink:title="yret51">
<path fill="none" stroke="blue" d="M525.05,-741.88C526.74,-747.56 528.35,-753.99 529.2,-760 530.24,-767.43 529.8,-775.49 528.75,-782.91"/>
<polygon fill="blue" stroke="blue" points="525.29,-782.41 526.96,-792.87 532.18,-783.65 525.29,-782.41"/>
</a>
</g>
<text text-anchor="middle" x="533.7" y="-763.8" font-family="Times-Roman" font-size="14.00">1</text>
</g>
<!-- BangD18&#45;&gt;Identity17 -->
<g id="edge77" class="edge">
<title>BangD18&#45;&gt;Identity17</title>
<g id="a_edge77"><a xlink:title="yseq50">
<path fill="none" stroke="black" d="M519.38,-742.12C519.53,-751.78 519.77,-764.06 520.2,-775 520.29,-777.55 520.41,-780.21 520.55,-782.87"/>
<polygon fill="black" stroke="black" points="517.05,-783.12 521.09,-792.91 524.04,-782.74 517.05,-783.12"/>
</a>
</g>
<text text-anchor="middle" x="524.7" y="-763.8" font-family="Times-Roman" font-size="14.00">1</text>
</g>
<!-- Cut19 -->
<g id="node20" class="node">
<title>Cut19</title>
<ellipse fill="none" stroke="black" cx="531.2" cy="-637" rx="27" ry="18"/>
<text text-anchor="middle" x="531.2" y="-633.3" font-family="Times-Roman" font-size="14.00">Cut</text>
</g>
<!-- Cut19&#45;&gt;PiL16 -->
<g id="edge8" class="edge">
<title>Cut19&#45;&gt;PiL16</title>
<g id="a_edge8"><a xlink:title="c_lseq46">
<path fill="none" stroke="black" d="M560.46,-653.79C570.69,-659.1 581.85,-665.58 591.2,-673 601.46,-681.14 611.02,-692.13 619.25,-701.73"/>
<polygon fill="black" stroke="black" points="552.99,-646.13 560.36,-653.74 549.85,-652.39 552.99,-646.13"/>
<polygon fill="black" stroke="black" points="616.66,-704.08 625.83,-709.38 621.96,-699.51 616.66,-704.08"/>
</a>
</g>
</g>
<!-- Cut19&#45;&gt;PiL16 -->
<g id="edge36" class="edge">
<title>Cut19&#45;&gt;PiL16</title>
<g id="a_edge36"><a xlink:title="lval48">
<path fill="none" stroke="blue" d="M555.96,-644.59C572.44,-650.61 593.41,-660.47 609.2,-673 617.9,-679.9 626.09,-688.84 632.38,-697.25"/>
<polygon fill="blue" stroke="blue" points="629.65,-699.45 638.2,-705.71 635.42,-695.49 629.65,-699.45"/>
</a>
</g>
</g>
<!-- Cut19&#45;&gt;Identity17 -->
<g id="edge55" class="edge">
<title>Cut19&#45;&gt;Identity17</title>
<g id="a_edge55"><a xlink:title="rval49">
<path fill="none" stroke="red" d="M514.02,-650.92C499.23,-663.21 478.93,-683.19 470.2,-706 464.48,-720.94 465.07,-726.84 470.2,-742 475.86,-758.74 487.49,-774.6 498.32,-786.79"/>
<polygon fill="red" stroke="red" points="495.87,-789.3 505.24,-794.24 501,-784.53 495.87,-789.3"/>
</a>
</g>
</g>
<!-- Cut19&#45;&gt;BangD18 -->
<g id="edge12" class="edge">
<title>Cut19&#45;&gt;BangD18</title>
<g id="a_edge12"><a xlink:title="c_rseq47">
<path fill="none" stroke="black" d="M528.77,-655.2C527.12,-666.83 524.92,-682.45 523.04,-695.76"/>
<polygon fill="black" stroke="black" points="519.55,-695.43 521.62,-705.82 526.48,-696.41 519.55,-695.43"/>
</a>
</g>
<text text-anchor="middle" x="529.7" y="-676.8" font-family="Times-Roman" font-size="14.00">1</text>
</g>
<!-- BangC20 -->
<g id="node21" class="node">
<title>BangC20</title>
<ellipse fill="none" stroke="black" cx="531.2" cy="-550" rx="38.19" ry="18"/>
<text text-anchor="middle" x="531.2" y="-546.3" font-family="Times-Roman" font-size="14.00">BangC</text>
</g>
<!-- BangC20&#45;&gt;Bang14 -->
<g id="edge73" class="edge">
<title>BangC20&#45;&gt;Bang14</title>
<g id="a_edge73"><a xlink:title="yB44">
<path fill="none" stroke="blue" d="M546.41,-576.47C553.42,-588.97 561.45,-604.44 567.2,-619 589.56,-675.58 605.86,-745.24 613.79,-782.83"/>
<polygon fill="blue" stroke="blue" points="544.33,-565.81 546.27,-576.22 538.26,-569.29 544.33,-565.81"/>
<polygon fill="blue" stroke="blue" points="610.43,-783.9 615.89,-792.99 617.29,-782.48 610.43,-783.9"/>
</a>
</g>
<text text-anchor="middle" x="593.7" y="-676.8" font-family="Times-Roman" font-size="14.00">1</text>
</g>
<!-- BangC20&#45;&gt;BangD18 -->
<g id="edge72" class="edge">
<title>BangC20&#45;&gt;BangD18</title>
<g id="a_edge72"><a xlink:title="yA43">
<path fill="none" stroke="blue" d="M516.71,-566.91C505.95,-579.87 492.15,-599.2 486.2,-619 478.07,-646.02 490.57,-676.8 502.45,-697.82"/>
<polygon fill="blue" stroke="blue" points="499.48,-699.68 507.61,-706.47 505.49,-696.09 499.48,-699.68"/>
</a>
</g>
<text text-anchor="middle" x="490.7" y="-633.3" font-family="Times-Roman" font-size="14.00">1</text>
</g>
<!-- BangC20&#45;&gt;Cut19 -->
<g id="edge60" class="edge">
<title>BangC20&#45;&gt;Cut19</title>
<g id="a_edge60"><a xlink:title="seq45">
<path fill="none" stroke="black" d="M531.2,-568.2C531.2,-579.83 531.2,-595.45 531.2,-608.76"/>
<polygon fill="black" stroke="black" points="527.7,-608.82 531.2,-618.82 534.7,-608.82 527.7,-608.82"/>
</a>
</g>
</g>
<!-- PiR21 -->
<g id="node22" class="node">
<title>PiR21</title>
<ellipse fill="none" stroke="black" cx="531.2" cy="-463" rx="27" ry="18"/>
<text text-anchor="middle" x="531.2" y="-459.3" font-family="Times-Roman" font-size="14.00">PiR</text>
</g>
<!-- PiR21&#45;&gt;Identity15 -->
<g id="edge49" class="edge">
<title>PiR21&#45;&gt;Identity15</title>
<g id="a_edge49"><a xlink:title="ret42">
<path fill="none" stroke="red" d="M558.13,-464.28C610.12,-466.39 719.2,-479.15 719.2,-549 719.2,-549 719.2,-549 719.2,-725 719.2,-744.28 717.9,-765.97 716.62,-782.62"/>
<polygon fill="red" stroke="red" points="713.12,-782.51 715.81,-792.76 720.1,-783.07 713.12,-782.51"/>
</a>
</g>
</g>
<!-- PiR21&#45;&gt;BangC20 -->
<g id="edge59" class="edge">
<title>PiR21&#45;&gt;BangC20</title>
<g id="a_edge59"><a xlink:title="seq40">
<path fill="none" stroke="black" d="M525.69,-480.79C524.39,-492.47 524.11,-508.3 524.85,-521.77"/>
<polygon fill="black" stroke="black" points="521.38,-522.26 525.66,-531.95 528.35,-521.7 521.38,-522.26"/>
</a>
</g>
</g>
<!-- PiR21&#45;&gt;BangC20 -->
<g id="edge71" class="edge">
<title>PiR21&#45;&gt;BangC20</title>
<g id="a_edge71"><a xlink:title="y41">
<path fill="none" stroke="blue" d="M536.7,-480.79C538,-492.47 538.28,-508.3 537.54,-521.77"/>
<polygon fill="blue" stroke="blue" points="534.04,-521.7 536.73,-531.95 541.02,-522.26 534.04,-521.7"/>
</a>
</g>
</g>
<!-- Cut22 -->
<g id="node23" class="node">
<title>Cut22</title>
<ellipse fill="none" stroke="black" cx="409.2" cy="-376" rx="27" ry="18"/>
<text text-anchor="middle" x="409.2" y="-372.3" font-family="Times-Roman" font-size="14.00">Cut</text>
</g>
<!-- Cut22&#45;&gt;PiL11 -->
<g id="edge7" class="edge">
<title>Cut22&#45;&gt;PiL11</title>
<g id="a_edge7"><a xlink:title="c_lseq36">
<path fill="none" stroke="black" d="M402.86,-403.99C402.31,-413.93 402.31,-425.18 402.87,-435.11"/>
<polygon fill="black" stroke="black" points="407.18,-394.07 402.88,-403.76 400.2,-393.5 407.18,-394.07"/>
<polygon fill="black" stroke="black" points="399.39,-435.56 403.7,-445.24 406.37,-434.99 399.39,-435.56"/>
</a>
</g>
</g>
<!-- Cut22&#45;&gt;PiL11 -->
<g id="edge35" class="edge">
<title>Cut22&#45;&gt;PiL11</title>
<g id="a_edge35"><a xlink:title="lval38">
<path fill="none" stroke="blue" d="M414.7,-393.79C416.01,-405.55 416.29,-421.51 415.53,-435.04"/>
<polygon fill="blue" stroke="blue" points="412.02,-434.99 414.7,-445.24 419,-435.55 412.02,-434.99"/>
</a>
</g>
</g>
<!-- Cut22&#45;&gt;PiR21 -->
<g id="edge11" class="edge">
<title>Cut22&#45;&gt;PiR21</title>
<g id="a_edge11"><a xlink:title="c_rseq37">
<path fill="none" stroke="black" d="M424.18,-391.03C443.63,-405.98 477.47,-429.63 502,-445.47"/>
<polygon fill="black" stroke="black" points="500.26,-448.51 510.58,-450.92 504.02,-442.6 500.26,-448.51"/>
</a>
</g>
</g>
<!-- Cut22&#45;&gt;PiR21 -->
<g id="edge54" class="edge">
<title>Cut22&#45;&gt;PiR21</title>
<g id="a_edge54"><a xlink:title="rval39">
<path fill="none" stroke="red" d="M429.6,-387.93C451.39,-401.53 485.46,-425 508.17,-441.88"/>
<polygon fill="red" stroke="red" points="506.17,-444.76 516.26,-447.99 510.39,-439.18 506.17,-444.76"/>
</a>
</g>
</g>
<!-- PiR23 -->
<g id="node24" class="node">
<title>PiR23</title>
<ellipse fill="none" stroke="black" cx="347.2" cy="-277" rx="27" ry="18"/>
<text text-anchor="middle" x="347.2" y="-273.3" font-family="Times-Roman" font-size="14.00">PiR</text>
</g>
<!-- PiR23&#45;&gt;Bang9 -->
<g id="edge19" class="edge">
<title>PiR23&#45;&gt;Bang9</title>
<g id="a_edge19"><a xlink:title="h34">
<path fill="none" stroke="blue" d="M346.23,-295.36C343.69,-341.25 336.79,-466.02 333.71,-521.62"/>
<polygon fill="blue" stroke="blue" points="330.21,-521.6 333.15,-531.78 337.2,-521.98 330.21,-521.6"/>
</a>
</g>
<text text-anchor="middle" x="343.7" y="-415.8" font-family="Times-Roman" font-size="14.00">1</text>
</g>
<!-- PiR23&#45;&gt;Identity10 -->
<g id="edge48" class="edge">
<title>PiR23&#45;&gt;Identity10</title>
<g id="a_edge48"><a xlink:title="ret35">
<path fill="none" stroke="red" d="M368.79,-288.27C392.56,-300.91 429.47,-324.86 445.2,-358 470.74,-411.83 453.19,-483.86 440.35,-522.25"/>
<polygon fill="red" stroke="red" points="436.88,-521.55 436.89,-532.14 443.49,-523.86 436.88,-521.55"/>
</a>
</g>
</g>
<!-- PiR23&#45;&gt;Cut22 -->
<g id="edge58" class="edge">
<title>PiR23&#45;&gt;Cut22</title>
<g id="a_edge58"><a xlink:title="seq33">
<path fill="none" stroke="black" d="M357.43,-294.01C367.28,-309.41 382.28,-332.89 393.61,-350.61"/>
<polygon fill="black" stroke="black" points="390.81,-352.74 399.15,-359.28 396.71,-348.97 390.81,-352.74"/>
</a>
</g>
</g>
<!-- Bang24 -->
<g id="node25" class="node">
<title>Bang24</title>
<ellipse fill="none" stroke="black" cx="314.2" cy="-178" rx="32.49" ry="18"/>
<text text-anchor="middle" x="314.2" y="-174.3" font-family="Times-Roman" font-size="14.00">Bang</text>
</g>
<!-- Bang24&#45;&gt;PiR23 -->
<g id="edge2" class="edge">
<title>Bang24&#45;&gt;PiR23</title>
<g id="a_edge2"><a xlink:title="c_bseq32">
<path fill="none" stroke="black" d="M312.64,-196.06C312.29,-205.92 312.79,-218.42 316.2,-229 318.85,-237.24 323.38,-245.41 328.17,-252.56"/>
<polygon fill="black" stroke="black" points="325.57,-254.95 334.25,-261.02 331.25,-250.86 325.57,-254.95"/>
</a>
</g>
<text text-anchor="middle" x="320.7" y="-217.8" font-family="Times-Roman" font-size="14.00">1</text>
</g>
<!-- Bang24&#45;&gt;PiR23 -->
<g id="edge44" class="edge">
<title>Bang24&#45;&gt;PiR23</title>
<g id="a_edge44"><a xlink:title="newrretf31">
<path fill="none" stroke="red" d="M319.94,-195.9C324.96,-210.64 332.32,-232.28 338.13,-249.36"/>
<polygon fill="red" stroke="red" points="334.98,-250.96 341.51,-259.3 341.61,-248.7 334.98,-250.96"/>
</a>
</g>
<text text-anchor="middle" x="334.7" y="-217.8" font-family="Times-Roman" font-size="14.00">1</text>
</g>
<!-- Identity25 -->
<g id="node26" class="node">
<title>Identity25</title>
<ellipse fill="none" stroke="black" cx="44.2" cy="-637" rx="44.39" ry="18"/>
<text text-anchor="middle" x="44.2" y="-633.3" font-family="Times-Roman" font-size="14.00">Identity</text>
</g>
<!-- BangD26 -->
<g id="node27" class="node">
<title>BangD26</title>
<ellipse fill="none" stroke="black" cx="44.2" cy="-550" rx="39.79" ry="18"/>
<text text-anchor="middle" x="44.2" y="-546.3" font-family="Times-Roman" font-size="14.00">BangD</text>
</g>
<!-- BangD26&#45;&gt;Identity25 -->
<g id="edge68" class="edge">
<title>BangD26&#45;&gt;Identity25</title>
<g id="a_edge68"><a xlink:title="xret26">
<path fill="none" stroke="blue" d="M26.24,-566.38C21.01,-571.97 15.96,-578.71 13.2,-586 9.67,-595.31 13.32,-604.78 19.2,-612.94"/>
<polygon fill="blue" stroke="blue" points="16.53,-615.2 25.64,-620.6 21.89,-610.69 16.53,-615.2"/>
</a>
</g>
<text text-anchor="middle" x="17.7" y="-589.8" font-family="Times-Roman" font-size="14.00">1</text>
</g>
<!-- BangD26&#45;&gt;Identity25 -->
<g id="edge70" class="edge">
<title>BangD26&#45;&gt;Identity25</title>
<g id="a_edge70"><a xlink:title="xseq25">
<path fill="none" stroke="black" d="M44.2,-568.2C44.2,-579.83 44.2,-595.45 44.2,-608.76"/>
<polygon fill="black" stroke="black" points="40.7,-608.82 44.2,-618.82 47.7,-608.82 40.7,-608.82"/>
</a>
</g>
<text text-anchor="middle" x="48.7" y="-589.8" font-family="Times-Roman" font-size="14.00">1</text>
</g>
<!-- Bang27 -->
<g id="node28" class="node">
<title>Bang27</title>
<ellipse fill="none" stroke="black" cx="44.2" cy="-463" rx="32.49" ry="18"/>
<text text-anchor="middle" x="44.2" y="-459.3" font-family="Times-Roman" font-size="14.00">Bang</text>
</g>
<!-- Bang27&#45;&gt;Identity25 -->
<g id="edge43" class="edge">
<title>Bang27&#45;&gt;Identity25</title>
<g id="a_edge43"><a xlink:title="newrretf23">
<path fill="none" stroke="red" d="M59.47,-479.15C71.24,-491.98 86.58,-511.5 93.2,-532 98.11,-547.22 98.11,-552.77 93.2,-568 87.93,-584.31 77.13,-600.01 67.01,-612.21"/>
<polygon fill="red" stroke="red" points="64.11,-610.21 60.19,-620.05 69.39,-614.8 64.11,-610.21"/>
</a>
</g>
<text text-anchor="middle" x="101.7" y="-546.3" font-family="Times-Roman" font-size="14.00">1</text>
</g>
<!-- Bang27&#45;&gt;BangD26 -->
<g id="edge1" class="edge">
<title>Bang27&#45;&gt;BangD26</title>
<g id="a_edge1"><a xlink:title="c_bseq24">
<path fill="none" stroke="black" d="M44.2,-481.2C44.2,-492.83 44.2,-508.45 44.2,-521.76"/>
<polygon fill="black" stroke="black" points="40.7,-521.82 44.2,-531.82 47.7,-521.82 40.7,-521.82"/>
</a>
</g>
<text text-anchor="middle" x="48.7" y="-502.8" font-family="Times-Roman" font-size="14.00">1</text>
</g>
<!-- Bang27&#45;&gt;BangD26 -->
<g id="edge66" class="edge">
<title>Bang27&#45;&gt;BangD26</title>
<g id="a_edge66"><a xlink:title="xBf22">
<path fill="none" stroke="blue" d="M50.51,-481.04C53.34,-490.66 55.74,-502.95 54.2,-514 53.81,-516.72 53.27,-519.53 52.64,-522.31"/>
<polygon fill="blue" stroke="blue" points="49.22,-521.55 50.05,-532.11 55.99,-523.34 49.22,-521.55"/>
</a>
</g>
<text text-anchor="middle" x="59.7" y="-502.8" font-family="Times-Roman" font-size="14.00">0</text>
</g>
<!-- Identity28 -->
<g id="node29" class="node">
<title>Identity28</title>
<ellipse fill="none" stroke="black" cx="139.2" cy="-463" rx="44.39" ry="18"/>
<text text-anchor="middle" x="139.2" y="-459.3" font-family="Times-Roman" font-size="14.00">Identity</text>
</g>
<!-- PiL29 -->
<g id="node30" class="node">
<title>PiL29</title>
<ellipse fill="none" stroke="black" cx="103.2" cy="-376" rx="27" ry="18"/>
<text text-anchor="middle" x="103.2" y="-372.3" font-family="Times-Roman" font-size="14.00">PiL</text>
</g>
<!-- PiL29&#45;&gt;Bang27 -->
<g id="edge14" class="edge">
<title>PiL29&#45;&gt;Bang27</title>
<g id="a_edge14"><a xlink:title="dseq20">
<path fill="none" stroke="black" d="M83.89,-388.99C75.58,-395 66.38,-402.93 60.2,-412 55.55,-418.8 52.19,-427.03 49.79,-434.84"/>
<polygon fill="black" stroke="black" points="46.36,-434.13 47.16,-444.69 53.12,-435.94 46.36,-434.13"/>
</a>
</g>
<text text-anchor="middle" x="64.7" y="-415.8" font-family="Times-Roman" font-size="14.00">0</text>
</g>
<!-- PiL29&#45;&gt;Bang27 -->
<g id="edge38" class="edge">
<title>PiL29&#45;&gt;Bang27</title>
<g id="a_edge38"><a xlink:title="newrret18">
<path fill="none" stroke="red" d="M92.57,-392.82C85.91,-402.69 77.12,-415.63 69.2,-427 66.75,-430.51 64.14,-434.21 61.57,-437.83"/>
<polygon fill="red" stroke="red" points="58.68,-435.85 55.72,-446.02 64.38,-439.91 58.68,-435.85"/>
</a>
</g>
<text text-anchor="middle" x="83.7" y="-415.8" font-family="Times-Roman" font-size="14.00">0</text>
</g>
<!-- PiL29&#45;&gt;Identity28 -->
<g id="edge24" class="edge">
<title>PiL29&#45;&gt;Identity28</title>
<g id="a_edge24"><a xlink:title="idseq21">
<path fill="none" stroke="black" d="M108.18,-403.67C112.04,-414.21 117.17,-426.27 122.24,-436.68"/>
<polygon fill="black" stroke="black" points="108.24,-393.06 108.17,-403.66 101.62,-395.33 108.24,-393.06"/>
<polygon fill="black" stroke="black" points="119.17,-438.37 126.84,-445.69 125.41,-435.19 119.17,-438.37"/>
</a>
</g>
</g>
<!-- PiL29&#45;&gt;Identity28 -->
<g id="edge30" class="edge">
<title>PiL29&#45;&gt;Identity28</title>
<g id="a_edge30"><a xlink:title="lret19">
<path fill="none" stroke="blue" stroke-width="2" d="M115.16,-392.59C121.63,-404.46 129,-421.11 134.14,-435.12"/>
<polygon fill="blue" stroke="blue" stroke-width="2" points="130.89,-436.43 137.45,-444.75 137.51,-434.15 130.89,-436.43"/>
</a>
</g>
</g>
<!-- Identity30 -->
<g id="node31" class="node">
<title>Identity30</title>
<ellipse fill="none" stroke="black" cx="260.2" cy="-463" rx="44.39" ry="18"/>
<text text-anchor="middle" x="260.2" y="-459.3" font-family="Times-Roman" font-size="14.00">Identity</text>
</g>
<!-- BangD31 -->
<g id="node32" class="node">
<title>BangD31</title>
<ellipse fill="none" stroke="black" cx="264.2" cy="-376" rx="39.79" ry="18"/>
<text text-anchor="middle" x="264.2" y="-372.3" font-family="Times-Roman" font-size="14.00">BangD</text>
</g>
<!-- BangD31&#45;&gt;Identity30 -->
<g id="edge67" class="edge">
<title>BangD31&#45;&gt;Identity30</title>
<g id="a_edge67"><a xlink:title="xret17">
<path fill="none" stroke="blue" d="M268.45,-394.14C270.29,-403.8 271.72,-416.09 270.2,-427 269.81,-429.72 269.27,-432.53 268.64,-435.31"/>
<polygon fill="blue" stroke="blue" points="265.22,-434.55 266.05,-445.11 271.99,-436.34 265.22,-434.55"/>
</a>
</g>
<text text-anchor="middle" x="274.7" y="-415.8" font-family="Times-Roman" font-size="14.00">0</text>
</g>
<!-- BangD31&#45;&gt;Identity30 -->
<g id="edge69" class="edge">
<title>BangD31&#45;&gt;Identity30</title>
<g id="a_edge69"><a xlink:title="xseq16">
<path fill="none" stroke="black" d="M262.51,-394.07C262,-399.77 261.5,-406.15 261.2,-412 260.81,-419.34 260.57,-427.29 260.42,-434.65"/>
<polygon fill="black" stroke="black" points="256.92,-434.81 260.26,-444.86 263.92,-434.92 256.92,-434.81"/>
</a>
</g>
<text text-anchor="middle" x="265.7" y="-415.8" font-family="Times-Roman" font-size="14.00">0</text>
</g>
<!-- Cut32 -->
<g id="node33" class="node">
<title>Cut32</title>
<ellipse fill="none" stroke="black" cx="216.2" cy="-277" rx="26" ry="26"/>
<ellipse fill="none" stroke="black" cx="216.2" cy="-277" rx="30" ry="30"/>
<text text-anchor="middle" x="216.2" y="-273.3" font-family="Times-Roman" font-size="14.00">Cut</text>
</g>
<!-- Cut32&#45;&gt;PiL29 -->
<g id="edge6" class="edge">
<title>Cut32&#45;&gt;PiL29</title>
<g id="a_edge6"><a xlink:title="c_lseq12">
<path fill="none" stroke="black" d="M183.51,-301.04C164.08,-316.66 140.17,-337.2 123.42,-352.67"/>
<polygon fill="black" stroke="black" points="193.7,-297.41 183.7,-300.89 189.35,-291.93 193.7,-297.41"/>
<polygon fill="black" stroke="black" points="120.71,-350.41 115.82,-359.81 125.5,-355.52 120.71,-350.41"/>
</a>
</g>
</g>
<!-- Cut32&#45;&gt;PiL29 -->
<g id="edge34" class="edge">
<title>Cut32&#45;&gt;PiL29</title>
<g id="a_edge34"><a xlink:title="lval14">
<path fill="none" stroke="blue" stroke-width="2" d="M196.58,-299.77C178.12,-316.85 150.61,-340.37 130.13,-356.54"/>
<polygon fill="blue" stroke="blue" stroke-width="2" points="127.86,-353.87 122.11,-362.77 132.15,-359.4 127.86,-353.87"/>
</a>
</g>
</g>
<!-- Cut32&#45;&gt;Identity30 -->
<g id="edge53" class="edge">
<title>Cut32&#45;&gt;Identity30</title>
<g id="a_edge53"><a xlink:title="rval15">
<path fill="none" stroke="red" d="M211.29,-306.79C208.31,-330.68 206.55,-365.26 215.2,-394 220,-409.97 229.91,-425.64 239.22,-437.91"/>
<polygon fill="red" stroke="red" points="236.53,-440.15 245.49,-445.82 242.02,-435.8 236.53,-440.15"/>
</a>
</g>
</g>
<!-- Cut32&#45;&gt;BangD31 -->
<g id="edge10" class="edge">
<title>Cut32&#45;&gt;BangD31</title>
<g id="a_edge10"><a xlink:title="c_rseq13">
<path fill="none" stroke="black" d="M229.19,-304.25C236.09,-318.2 244.54,-335.28 251.41,-349.17"/>
<polygon fill="black" stroke="black" points="248.31,-350.78 255.88,-358.19 254.58,-347.68 248.31,-350.78"/>
</a>
</g>
<text text-anchor="middle" x="249.7" y="-328.8" font-family="Times-Roman" font-size="14.00">0</text>
</g>
<!-- BangC33 -->
<g id="node34" class="node">
<title>BangC33</title>
<ellipse fill="none" stroke="black" cx="225.2" cy="-178" rx="38.19" ry="18"/>
<text text-anchor="middle" x="225.2" y="-174.3" font-family="Times-Roman" font-size="14.00">BangC</text>
</g>
<!-- BangC33&#45;&gt;Bang27 -->
<g id="edge65" class="edge">
<title>BangC33&#45;&gt;Bang27</title>
<g id="a_edge65"><a xlink:title="xB10">
<path fill="none" stroke="blue" d="M199.97,-201.3C165.52,-232.99 103.87,-294.31 67.2,-358 53.56,-381.68 48,-412.69 45.74,-434.66"/>
<polygon fill="blue" stroke="blue" points="210.06,-196.85 200.31,-200.99 205.35,-191.67 210.06,-196.85"/>
<polygon fill="blue" stroke="blue" points="42.25,-434.39 44.87,-444.65 49.22,-434.99 42.25,-434.39"/>
</a>
</g>
<text text-anchor="middle" x="92.7" y="-328.8" font-family="Times-Roman" font-size="14.00">0</text>
</g>
<!-- BangC33&#45;&gt;BangD31 -->
<g id="edge64" class="edge">
<title>BangC33&#45;&gt;BangD31</title>
<g id="a_edge64"><a xlink:title="xA9">
<path fill="none" stroke="blue" d="M234.54,-195.75C241.55,-209.17 250.67,-228.71 255.2,-247 263.59,-280.87 265.08,-321.2 264.97,-347.42"/>
<polygon fill="blue" stroke="blue" points="261.47,-347.68 264.85,-357.73 268.47,-347.77 261.47,-347.68"/>
</a>
</g>
<text text-anchor="middle" x="267.7" y="-273.3" font-family="Times-Roman" font-size="14.00">0</text>
</g>
<!-- BangC33&#45;&gt;Cut32 -->
<g id="edge57" class="edge">
<title>BangC33&#45;&gt;Cut32</title>
<g id="a_edge57"><a xlink:title="seq11">
<path fill="none" stroke="black" d="M223.59,-196.34C222.54,-207.65 221.12,-222.89 219.81,-237.01"/>
<polygon fill="black" stroke="black" points="216.32,-236.74 218.89,-247.02 223.29,-237.38 216.32,-236.74"/>
</a>
</g>
</g>
<!-- Assign34 -->
<g id="node35" class="node">
<title>Assign34</title>
<ellipse fill="none" stroke="black" cx="225.2" cy="-18" rx="38.99" ry="18"/>
<text text-anchor="middle" x="225.2" y="-14.3" font-family="Times-Roman" font-size="14.00">Assign</text>
</g>
<!-- Assign34&#45;&gt;Identity28 -->
<g id="edge50" class="edge">
<title>Assign34&#45;&gt;Identity28</title>
<g id="a_edge50"><a xlink:title="ret8">
<path fill="none" stroke="red" stroke-width="2" d="M200.63,-32.12C181.51,-44.3 158.2,-64.41 158.2,-90 158.2,-90 158.2,-90 158.2,-377 158.2,-396.91 153.17,-418.82 148.29,-435.41"/>
<polygon fill="red" stroke="red" stroke-width="2" points="144.94,-434.4 145.31,-444.99 151.62,-436.48 144.94,-434.4"/>
</a>
</g>
</g>
<!-- Cut35 -->
<g id="node36" class="node">
<title>Cut35</title>
<ellipse fill="none" stroke="black" cx="225.2" cy="-91" rx="27" ry="18"/>
<text text-anchor="middle" x="225.2" y="-87.3" font-family="Times-Roman" font-size="14.00">Cut</text>
</g>
<!-- Assign34&#45;&gt;Cut35 -->
<g id="edge52" class="edge">
<title>Assign34&#45;&gt;Cut35</title>
<g id="a_edge52"><a xlink:title="retseq0">
<path fill="none" stroke="black" d="M225.2,-36.19C225.2,-44.21 225.2,-53.95 225.2,-62.93"/>
<polygon fill="black" stroke="black" points="221.7,-62.97 225.2,-72.97 228.7,-62.97 221.7,-62.97"/>
</a>
</g>
</g>
<!-- Cut35&#45;&gt;Bang24 -->
<g id="edge15" class="edge">
<title>Cut35&#45;&gt;Bang24</title>
<g id="a_edge15"><a xlink:title="dseq29">
<path fill="none" stroke="black" d="M247.88,-101.03C260.61,-106.96 276.11,-115.71 287.2,-127 293.92,-133.86 299.44,-142.73 303.69,-151.09"/>
<polygon fill="black" stroke="black" points="300.54,-152.62 307.95,-160.18 306.88,-149.64 300.54,-152.62"/>
</a>
</g>
<text text-anchor="middle" x="302.7" y="-130.8" font-family="Times-Roman" font-size="14.00">0</text>
</g>
<!-- Cut35&#45;&gt;Bang24 -->
<g id="edge39" class="edge">
<title>Cut35&#45;&gt;Bang24</title>
<g id="a_edge39"><a xlink:title="newrret27">
<path fill="none" stroke="red" d="M239.43,-106.65C249.33,-116.73 262.9,-130.35 275.2,-142 279.88,-146.43 284.96,-151.1 289.85,-155.52"/>
<polygon fill="red" stroke="red" points="287.53,-158.14 297.31,-162.21 292.2,-152.93 287.53,-158.14"/>
</a>
</g>
<text text-anchor="middle" x="279.7" y="-130.8" font-family="Times-Roman" font-size="14.00">0</text>
</g>
<!-- Cut35&#45;&gt;BangC33 -->
<g id="edge61" class="edge">
<title>Cut35&#45;&gt;BangC33</title>
<g id="a_edge61"><a xlink:title="seq6">
<path fill="none" stroke="black" d="M218.87,-118.93C218.31,-128.79 218.31,-139.96 218.85,-149.85"/>
<polygon fill="black" stroke="black" points="223.18,-109.08 218.88,-118.76 216.2,-108.51 223.18,-109.08"/>
<polygon fill="black" stroke="black" points="215.38,-150.26 219.66,-159.95 222.35,-149.7 215.38,-150.26"/>
</a>
</g>
</g>
<!-- Cut35&#45;&gt;BangC33 -->
<g id="edge63" class="edge">
<title>Cut35&#45;&gt;BangC33</title>
<g id="a_edge63"><a xlink:title="x7">
<path fill="none" stroke="blue" d="M230.7,-108.79C232,-120.48 232.28,-136.31 231.54,-149.78"/>
<polygon fill="blue" stroke="blue" points="228.04,-149.7 230.73,-159.95 235.02,-150.26 228.04,-149.7"/>
</a>
</g>
</g>
</g>
</svg>
