<?xml version="1.0" encoding="UTF-8" standalone="no"?>
<!DOCTYPE svg PUBLIC "-//W3C//DTD SVG 1.1//EN"
 "http://www.w3.org/Graphics/SVG/1.1/DTD/svg11.dtd">
<!-- Generated by graphviz version 2.43.0 (0)
 -->
<!-- Title: %3 Pages: 1 -->
<svg width="299pt" height="933pt"
 viewBox="0.00 0.00 299.00 933.30" xmlns="http://www.w3.org/2000/svg" xmlns:xlink="http://www.w3.org/1999/xlink">
<g id="graph0" class="graph" transform="scale(1 1) rotate(0) translate(4 929.3)">
<title>%3</title>
<polygon fill="white" stroke="transparent" points="-4,4 -4,-929.3 295,-929.3 295,4 -4,4"/>
<!-- Root0 -->
<g id="node1" class="node">
<title>Root0</title>
<ellipse fill="none" stroke="black" cx="173" cy="-907.3" rx="30.59" ry="18"/>
<text text-anchor="middle" x="173" y="-903.6" font-family="Times-Roman" font-size="14.00">Root</text>
</g>
<!-- I4 -->
<g id="node23" class="node">
<title>I4</title>
<ellipse fill="none" stroke="black" cx="173" cy="-835.3" rx="27" ry="18"/>
<text text-anchor="middle" x="173" y="-831.6" font-family="Times-Roman" font-size="14.00">I</text>
</g>
<!-- Root0&#45;&gt;I4 -->
<g id="edge26" class="edge">
<title>Root0&#45;&gt;I4</title>
<g id="a_edge26"><a xlink:title="rettop">
<path fill="none" stroke="red" stroke-width="2" d="M173,-888.99C173,-881.28 173,-872.01 173,-863.41"/>
<polygon fill="red" stroke="red" stroke-width="2" points="176.5,-863.4 173,-853.4 169.5,-863.4 176.5,-863.4"/>
</a>
</g>
</g>
<!-- !c0 -->
<g id="node2" class="node">
<title>!c0</title>
<ellipse fill="none" stroke="black" cx="143" cy="-403.3" rx="27" ry="18"/>
<text text-anchor="middle" x="143" y="-399.6" font-family="Times-Roman" font-size="14.00">!c</text>
</g>
<!-- Cut0 -->
<g id="node22" class="node">
<title>Cut0</title>
<ellipse fill="none" stroke="black" cx="143" cy="-318.65" rx="26.78" ry="26.78"/>
<ellipse fill="none" stroke="black" cx="143" cy="-318.65" rx="30.8" ry="30.8"/>
<text text-anchor="middle" x="143" y="-314.95" font-family="Times-Roman" font-size="14.00">Cut</text>
</g>
<!-- !c0&#45;&gt;Cut0 -->
<g id="edge13" class="edge">
<title>!c0&#45;&gt;Cut0</title>
<g id="a_edge13"><a xlink:title="e41">
<path fill="none" stroke="blue" stroke-width="2" d="M143,-375.01C143,-366.82 143,-357.8 143,-349.45"/>
<polygon fill="blue" stroke="blue" stroke-width="2" points="139.5,-375.17 143,-385.17 146.5,-375.17 139.5,-375.17"/>
</a>
</g>
</g>
<!-- !d0 -->
<g id="node3" class="node">
<title>!d0</title>
<ellipse fill="none" stroke="black" cx="137" cy="-547.3" rx="27" ry="18"/>
<text text-anchor="middle" x="137" y="-543.6" font-family="Times-Roman" font-size="14.00">!d</text>
</g>
<!-- !d0&#45;&gt;!c0 -->
<g id="edge14" class="edge">
<title>!d0&#45;&gt;!c0</title>
<g id="a_edge14"><a xlink:title="e46">
<path fill="none" stroke="blue" stroke-width="2" d="M138.15,-518.97C139.37,-490.18 141.25,-445.72 142.27,-421.48"/>
<polygon fill="blue" stroke="blue" stroke-width="2" points="134.65,-519.03 137.72,-529.17 141.64,-519.32 134.65,-519.03"/>
</a>
</g>
</g>
<!-- PiL0 -->
<g id="node4" class="node">
<title>PiL0</title>
<ellipse fill="none" stroke="black" cx="137" cy="-691.3" rx="27" ry="18"/>
<text text-anchor="middle" x="137" y="-687.6" font-family="Times-Roman" font-size="14.00">PiL</text>
</g>
<!-- PiL0&#45;&gt;!d0 -->
<g id="edge16" class="edge">
<title>PiL0&#45;&gt;!d0</title>
<g id="a_edge16"><a xlink:title="e49">
<path fill="none" stroke="blue" stroke-width="2" d="M137,-662.97C137,-634.18 137,-589.72 137,-565.48"/>
<polygon fill="blue" stroke="blue" stroke-width="2" points="133.5,-663.17 137,-673.17 140.5,-663.17 133.5,-663.17"/>
</a>
</g>
</g>
<!-- !p0 -->
<g id="node6" class="node">
<title>!p0</title>
<ellipse fill="none" stroke="black" cx="74" cy="-619.3" rx="27" ry="18"/>
<text text-anchor="middle" x="74" y="-615.6" font-family="Times-Roman" font-size="14.00">!p</text>
</g>
<!-- PiL0&#45;&gt;!p0 -->
<g id="edge18" class="edge">
<title>PiL0&#45;&gt;!p0</title>
<g id="a_edge18"><a xlink:title="e53">
<path fill="none" stroke="red" d="M123.64,-675.45C115.12,-665.98 103.91,-653.53 94.31,-642.86"/>
<polygon fill="red" stroke="red" points="96.63,-640.21 87.34,-635.12 91.43,-644.89 96.63,-640.21"/>
</a>
</g>
</g>
<!-- PiL1 -->
<g id="node5" class="node">
<title>PiL1</title>
<ellipse fill="none" stroke="black" cx="173" cy="-763.3" rx="27" ry="18"/>
<text text-anchor="middle" x="173" y="-759.6" font-family="Times-Roman" font-size="14.00">PiL</text>
</g>
<!-- PiL1&#45;&gt;PiL0 -->
<g id="edge17" class="edge">
<title>PiL1&#45;&gt;PiL0</title>
<g id="a_edge17"><a xlink:title="e51">
<path fill="none" stroke="blue" stroke-width="2" d="M159.99,-737C155.09,-727.47 149.66,-716.91 145.3,-708.44"/>
<polygon fill="blue" stroke="blue" stroke-width="2" points="156.96,-738.77 164.65,-746.06 163.19,-735.57 156.96,-738.77"/>
</a>
</g>
</g>
<!-- !p1 -->
<g id="node10" class="node">
<title>!p1</title>
<ellipse fill="none" stroke="black" cx="209" cy="-691.3" rx="27" ry="18"/>
<text text-anchor="middle" x="209" y="-687.6" font-family="Times-Roman" font-size="14.00">!p</text>
</g>
<!-- PiL1&#45;&gt;!p1 -->
<g id="edge20" class="edge">
<title>PiL1&#45;&gt;!p1</title>
<g id="a_edge20"><a xlink:title="e57">
<path fill="none" stroke="red" d="M181.35,-746.06C185.71,-737.58 191.15,-727.01 196.04,-717.49"/>
<polygon fill="red" stroke="red" points="199.23,-718.94 200.7,-708.44 193.01,-715.73 199.23,-718.94"/>
</a>
</g>
</g>
<!-- PiR0 -->
<g id="node7" class="node">
<title>PiR0</title>
<ellipse fill="none" stroke="black" cx="65" cy="-547.3" rx="27" ry="18"/>
<text text-anchor="middle" x="65" y="-543.6" font-family="Times-Roman" font-size="14.00">PiR</text>
</g>
<!-- !p0&#45;&gt;PiR0 -->
<g id="edge21" class="edge">
<title>!p0&#45;&gt;PiR0</title>
<g id="a_edge21"><a xlink:title="e85">
<path fill="none" stroke="red" d="M71.82,-601.35C70.83,-593.64 69.63,-584.32 68.52,-575.66"/>
<polygon fill="red" stroke="red" points="71.97,-575.04 67.22,-565.57 65.02,-575.94 71.97,-575.04"/>
</a>
</g>
</g>
<!-- I0 -->
<g id="node9" class="node">
<title>I0</title>
<ellipse fill="none" stroke="black" cx="27" cy="-475.3" rx="27" ry="18"/>
<text text-anchor="middle" x="27" y="-471.6" font-family="Times-Roman" font-size="14.00">I</text>
</g>
<!-- PiR0&#45;&gt;I0 -->
<g id="edge23" class="edge">
<title>PiR0&#45;&gt;I0</title>
<g id="a_edge23"><a xlink:title="e89">
<path fill="none" stroke="red" d="M56.19,-530.06C51.58,-521.58 45.84,-511.01 40.68,-501.49"/>
<polygon fill="red" stroke="red" points="43.61,-499.56 35.77,-492.44 37.46,-502.9 43.61,-499.56"/>
</a>
</g>
</g>
<!-- !d1 -->
<g id="node8" class="node">
<title>!d1</title>
<ellipse fill="none" stroke="black" cx="52" cy="-403.3" rx="27" ry="18"/>
<text text-anchor="middle" x="52" y="-399.6" font-family="Times-Roman" font-size="14.00">!d</text>
</g>
<!-- !d1&#45;&gt;PiR0 -->
<g id="edge22" class="edge">
<title>!d1&#45;&gt;PiR0</title>
<g id="a_edge22"><a xlink:title="e87">
<path fill="none" stroke="blue" d="M58.59,-431.27C60.35,-439.56 62.03,-448.76 63,-457.3 65.84,-482.17 65.88,-511.2 65.54,-529.17"/>
<polygon fill="blue" stroke="blue" points="61.97,-430.35 56.37,-421.35 55.14,-431.88 61.97,-430.35"/>
</a>
</g>
</g>
<!-- I0&#45;&gt;!d1 -->
<g id="edge24" class="edge">
<title>I0&#45;&gt;!d1</title>
<g id="a_edge24"><a xlink:title="e91">
<path fill="none" stroke="blue" d="M36.37,-448.06C39.57,-439.09 43.07,-429.3 45.94,-421.25"/>
<polygon fill="blue" stroke="blue" points="32.99,-447.11 32.92,-457.71 39.58,-449.47 32.99,-447.11"/>
</a>
</g>
</g>
<!-- I1 -->
<g id="node13" class="node">
<title>I1</title>
<ellipse fill="none" stroke="black" cx="209" cy="-619.3" rx="27" ry="18"/>
<text text-anchor="middle" x="209" y="-615.6" font-family="Times-Roman" font-size="14.00">I</text>
</g>
<!-- !p1&#45;&gt;I1 -->
<g id="edge25" class="edge">
<title>!p1&#45;&gt;I1</title>
<g id="a_edge25"><a xlink:title="e95">
<path fill="none" stroke="red" d="M209,-672.99C209,-665.28 209,-656.01 209,-647.41"/>
<polygon fill="red" stroke="red" points="212.5,-647.4 209,-637.4 205.5,-647.4 212.5,-647.4"/>
</a>
</g>
</g>
<!-- !d2 -->
<g id="node11" class="node">
<title>!d2</title>
<ellipse fill="none" stroke="black" cx="192" cy="-475.3" rx="27" ry="18"/>
<text text-anchor="middle" x="192" y="-471.6" font-family="Times-Roman" font-size="14.00">!d</text>
</g>
<!-- !d2&#45;&gt;!c0 -->
<g id="edge15" class="edge">
<title>!d2&#45;&gt;!c0</title>
<g id="a_edge15"><a xlink:title="e47">
<path fill="none" stroke="blue" d="M175.22,-450.33C168.15,-440.22 160.12,-428.75 153.84,-419.79"/>
<polygon fill="blue" stroke="blue" points="172.52,-452.57 181.13,-458.76 178.26,-448.56 172.52,-452.57"/>
</a>
</g>
</g>
<!-- PiL2 -->
<g id="node12" class="node">
<title>PiL2</title>
<ellipse fill="none" stroke="black" cx="209" cy="-547.3" rx="27" ry="18"/>
<text text-anchor="middle" x="209" y="-543.6" font-family="Times-Roman" font-size="14.00">PiL</text>
</g>
<!-- PiL2&#45;&gt;!d2 -->
<g id="edge2" class="edge">
<title>PiL2&#45;&gt;!d2</title>
<g id="a_edge2"><a xlink:title="e103">
<path fill="none" stroke="blue" d="M202.51,-519.59C200.39,-510.86 198.1,-501.41 196.2,-493.57"/>
<polygon fill="blue" stroke="blue" points="199.12,-520.46 204.88,-529.35 205.93,-518.81 199.12,-520.46"/>
</a>
</g>
</g>
<!-- !p3 -->
<g id="node15" class="node">
<title>!p3</title>
<ellipse fill="none" stroke="black" cx="264" cy="-475.3" rx="27" ry="18"/>
<text text-anchor="middle" x="264" y="-471.6" font-family="Times-Roman" font-size="14.00">!p</text>
</g>
<!-- PiL2&#45;&gt;!p3 -->
<g id="edge4" class="edge">
<title>PiL2&#45;&gt;!p3</title>
<g id="a_edge4"><a xlink:title="e107">
<path fill="none" stroke="red" d="M220.93,-531.11C228.21,-521.84 237.66,-509.82 245.85,-499.39"/>
<polygon fill="red" stroke="red" points="248.66,-501.48 252.09,-491.45 243.16,-497.16 248.66,-501.48"/>
</a>
</g>
</g>
<!-- I1&#45;&gt;PiL2 -->
<g id="edge3" class="edge">
<title>I1&#45;&gt;PiL2</title>
<g id="a_edge3"><a xlink:title="e105">
<path fill="none" stroke="blue" d="M209,-590.96C209,-582.35 209,-573.09 209,-565.4"/>
<polygon fill="blue" stroke="blue" points="205.5,-590.99 209,-600.99 212.5,-590.99 205.5,-590.99"/>
</a>
</g>
</g>
<!-- !p2 -->
<g id="node14" class="node">
<title>!p2</title>
<ellipse fill="none" stroke="black" cx="143" cy="-234" rx="27" ry="18"/>
<text text-anchor="middle" x="143" y="-230.3" font-family="Times-Roman" font-size="14.00">!p</text>
</g>
<!-- PiR1 -->
<g id="node16" class="node">
<title>PiR1</title>
<ellipse fill="none" stroke="black" cx="143" cy="-162" rx="27" ry="18"/>
<text text-anchor="middle" x="143" y="-158.3" font-family="Times-Roman" font-size="14.00">PiR</text>
</g>
<!-- !p2&#45;&gt;PiR1 -->
<g id="edge5" class="edge">
<title>!p2&#45;&gt;PiR1</title>
<g id="a_edge5"><a xlink:title="e108">
<path fill="none" stroke="red" d="M143,-215.7C143,-207.98 143,-198.71 143,-190.11"/>
<polygon fill="red" stroke="red" points="146.5,-190.1 143,-180.1 139.5,-190.1 146.5,-190.1"/>
</a>
</g>
</g>
<!-- PiR2 -->
<g id="node17" class="node">
<title>PiR2</title>
<ellipse fill="none" stroke="black" cx="264" cy="-403.3" rx="27" ry="18"/>
<text text-anchor="middle" x="264" y="-399.6" font-family="Times-Roman" font-size="14.00">PiR</text>
</g>
<!-- !p3&#45;&gt;PiR2 -->
<g id="edge6" class="edge">
<title>!p3&#45;&gt;PiR2</title>
<g id="a_edge6"><a xlink:title="e111">
<path fill="none" stroke="red" d="M264,-456.99C264,-449.28 264,-440.01 264,-431.41"/>
<polygon fill="red" stroke="red" points="267.5,-431.4 264,-421.4 260.5,-431.4 267.5,-431.4"/>
</a>
</g>
</g>
<!-- I2 -->
<g id="node19" class="node">
<title>I2</title>
<ellipse fill="none" stroke="black" cx="171" cy="-90" rx="27" ry="18"/>
<text text-anchor="middle" x="171" y="-86.3" font-family="Times-Roman" font-size="14.00">I</text>
</g>
<!-- PiR1&#45;&gt;I2 -->
<g id="edge8" class="edge">
<title>PiR1&#45;&gt;I2</title>
<g id="a_edge8"><a xlink:title="e114">
<path fill="none" stroke="red" d="M149.64,-144.41C152.91,-136.22 156.94,-126.14 160.62,-116.95"/>
<polygon fill="red" stroke="red" points="163.95,-118.05 164.41,-107.47 157.45,-115.45 163.95,-118.05"/>
</a>
</g>
</g>
<!-- I3 -->
<g id="node21" class="node">
<title>I3</title>
<ellipse fill="none" stroke="black" cx="264" cy="-318.65" rx="27" ry="18"/>
<text text-anchor="middle" x="264" y="-314.95" font-family="Times-Roman" font-size="14.00">I</text>
</g>
<!-- PiR2&#45;&gt;I3 -->
<g id="edge10" class="edge">
<title>PiR2&#45;&gt;I3</title>
<g id="a_edge10"><a xlink:title="e119">
<path fill="none" stroke="red" d="M264,-385.17C264,-374.09 264,-359.42 264,-346.78"/>
<polygon fill="red" stroke="red" points="267.5,-346.75 264,-336.75 260.5,-346.75 267.5,-346.75"/>
</a>
</g>
</g>
<!-- !d3 -->
<g id="node18" class="node">
<title>!d3</title>
<ellipse fill="none" stroke="black" cx="143" cy="-18" rx="27" ry="18"/>
<text text-anchor="middle" x="143" y="-14.3" font-family="Times-Roman" font-size="14.00">!d</text>
</g>
<!-- !d3&#45;&gt;PiR1 -->
<g id="edge7" class="edge">
<title>!d3&#45;&gt;PiR1</title>
<g id="a_edge7"><a xlink:title="e112">
<path fill="none" stroke="blue" d="M138.12,-46.04C136.84,-54.34 135.64,-63.52 135,-72 133.8,-87.96 133.8,-92.04 135,-108 135.91,-120.06 137.95,-133.54 139.75,-143.89"/>
<polygon fill="blue" stroke="blue" points="141.58,-46.55 139.75,-36.11 134.68,-45.41 141.58,-46.55"/>
</a>
</g>
</g>
<!-- I2&#45;&gt;!d3 -->
<g id="edge11" class="edge">
<title>I2&#45;&gt;!d3</title>
<g id="a_edge11"><a xlink:title="e120">
<path fill="none" stroke="blue" d="M160.56,-62.91C156.89,-53.72 152.86,-43.65 149.59,-35.47"/>
<polygon fill="blue" stroke="blue" points="157.4,-64.43 164.36,-72.41 163.9,-61.83 157.4,-64.43"/>
</a>
</g>
</g>
<!-- !d4 -->
<g id="node20" class="node">
<title>!d4</title>
<ellipse fill="none" stroke="black" cx="242" cy="-234" rx="27" ry="18"/>
<text text-anchor="middle" x="242" y="-230.3" font-family="Times-Roman" font-size="14.00">!d</text>
</g>
<!-- !d4&#45;&gt;PiR2 -->
<g id="edge9" class="edge">
<title>!d4&#45;&gt;PiR2</title>
<g id="a_edge9"><a xlink:title="e117">
<path fill="none" stroke="blue" d="M232.7,-261.28C225.79,-284.8 218.99,-320 228,-349.3 232.38,-363.54 242.04,-377.4 250.25,-387.36"/>
<polygon fill="blue" stroke="blue" points="236.06,-262.25 235.72,-251.66 229.39,-260.15 236.06,-262.25"/>
</a>
</g>
</g>
<!-- I3&#45;&gt;!d4 -->
<g id="edge12" class="edge">
<title>I3&#45;&gt;!d4</title>
<g id="a_edge12"><a xlink:title="e123">
<path fill="none" stroke="blue" d="M256.85,-290.81C253.44,-277.98 249.46,-263.02 246.48,-251.82"/>
<polygon fill="blue" stroke="blue" points="253.49,-291.76 259.44,-300.52 260.25,-289.96 253.49,-291.76"/>
</a>
</g>
</g>
<!-- Cut0&#45;&gt;!p2 -->
<g id="edge1" class="edge">
<title>Cut0&#45;&gt;!p2</title>
<g id="a_edge1"><a xlink:title="e100">
<path fill="none" stroke="red" d="M143,-287.81C143,-279.45 143,-270.41 143,-262.21"/>
<polygon fill="red" stroke="red" points="146.5,-262.05 143,-252.05 139.5,-262.05 146.5,-262.05"/>
</a>
</g>
</g>
<!-- I4&#45;&gt;PiL1 -->
<g id="edge19" class="edge">
<title>I4&#45;&gt;PiL1</title>
<g id="a_edge19"><a xlink:title="e55">
<path fill="none" stroke="blue" stroke-width="2" d="M173,-806.96C173,-798.35 173,-789.09 173,-781.4"/>
<polygon fill="blue" stroke="blue" stroke-width="2" points="169.5,-806.99 173,-816.99 176.5,-806.99 169.5,-806.99"/>
</a>
</g>
</g>
</g>
</svg>
