<?xml version="1.0" encoding="UTF-8" standalone="no"?>
<!DOCTYPE svg PUBLIC "-//W3C//DTD SVG 1.1//EN"
 "http://www.w3.org/Graphics/SVG/1.1/DTD/svg11.dtd">
<!-- Generated by graphviz version 2.49.3 (0)
 -->
<!-- Pages: 1 -->
<svg width="443pt" height="1357pt"
 viewBox="0.00 0.00 443.40 1356.80" xmlns="http://www.w3.org/2000/svg" xmlns:xlink="http://www.w3.org/1999/xlink">
<g id="graph0" class="graph" transform="scale(1 1) rotate(0) translate(4 1352.8)">
<polygon fill="white" stroke="transparent" points="-4,4 -4,-1352.8 439.4,-1352.8 439.4,4 -4,4"/>
<!-- I0 -->
<g id="node1" class="node">
<title>I0</title>
<ellipse fill="none" stroke="black" cx="27" cy="-1010.8" rx="27" ry="18"/>
<text text-anchor="middle" x="27" y="-1007.1" font-family="Times,serif" font-size="14.00">I</text>
</g>
<!-- !d1 -->
<g id="node2" class="node">
<title>!d1</title>
<ellipse fill="none" stroke="black" cx="82" cy="-914.4" rx="27" ry="18"/>
<text text-anchor="middle" x="82" y="-910.7" font-family="Times,serif" font-size="14.00">!d</text>
</g>
<!-- I0&#45;&gt;!d1 -->
<g id="edge4" class="edge">
<title>I0&#45;&gt;!d1</title>
<g id="a_edge4"><a xlink:title="iret84">
<path fill="none" stroke="blue" d="M41.46,-984.98C51.31,-968.06 64.08,-946.16 72.62,-931.49"/>
<polygon fill="blue" stroke="blue" points="38.34,-983.38 36.33,-993.78 44.39,-986.9 38.34,-983.38"/>
</a>
</g>
<text text-anchor="middle" x="58.5" y="-963.6" font-family="Times,serif" font-size="14.00">3</text>
</g>
<!-- λ2 -->
<g id="node3" class="node">
<title>λ2</title>
<ellipse fill="none" stroke="black" cx="82" cy="-818" rx="27" ry="18"/>
<text text-anchor="middle" x="82" y="-814.3" font-family="Times,serif" font-size="14.00">λ</text>
</g>
<!-- !d1&#45;&gt;λ2 -->
<g id="edge3" class="edge">
<title>!d1&#45;&gt;λ2</title>
<g id="a_edge3"><a xlink:title="i81">
<path fill="none" stroke="blue" d="M82,-885.69C82,-869.67 82,-850.01 82,-836.2"/>
<polygon fill="blue" stroke="blue" points="78.5,-886.08 82,-896.08 85.5,-886.08 78.5,-886.08"/>
</a>
</g>
<text text-anchor="middle" x="85.5" y="-857.8" font-family="Times,serif" font-size="14.00">3</text>
</g>
<!-- λ2&#45;&gt;I0 -->
<g id="edge26" class="edge">
<title>λ2&#45;&gt;I0</title>
<g id="a_edge26"><a xlink:title="ret82">
<path fill="none" stroke="red" d="M71.67,-834.81C63.43,-848.17 52.26,-868.11 46,-887 35.47,-918.75 30.73,-957.09 28.62,-982.38"/>
<polygon fill="red" stroke="red" points="25.11,-982.46 27.85,-992.69 32.09,-982.98 25.11,-982.46"/>
</a>
</g>
</g>
<!-- !p3 -->
<g id="node4" class="node">
<title>!p3</title>
<ellipse fill="none" stroke="black" cx="154" cy="-914.4" rx="27" ry="18"/>
<text text-anchor="middle" x="154" y="-910.7" font-family="Times,serif" font-size="14.00">!p</text>
</g>
<!-- !p3&#45;&gt;λ2 -->
<g id="edge22" class="edge">
<title>!p3&#45;&gt;λ2</title>
<g id="a_edge22"><a xlink:title="newrretf78">
<path fill="none" stroke="red" d="M142.11,-897.81C130.58,-882.69 112.93,-859.56 99.74,-842.26"/>
<polygon fill="red" stroke="red" points="102.52,-840.13 93.67,-834.3 96.95,-844.37 102.52,-840.13"/>
</a>
</g>
<text text-anchor="middle" x="121.5" y="-857.8" font-family="Times,serif" font-size="14.00">3</text>
</g>
<!-- I4 -->
<g id="node5" class="node">
<title>I4</title>
<ellipse fill="none" stroke="black" cx="211" cy="-731" rx="27" ry="18"/>
<text text-anchor="middle" x="211" y="-727.3" font-family="Times,serif" font-size="14.00">I</text>
</g>
<!-- @5 -->
<g id="node6" class="node">
<title>@5</title>
<ellipse fill="none" stroke="black" cx="190" cy="-1010.8" rx="27" ry="18"/>
<text text-anchor="middle" x="190" y="-1007.1" font-family="Times,serif" font-size="14.00">@</text>
</g>
<!-- I4&#45;&gt;@5 -->
<g id="edge8" class="edge">
<title>I4&#45;&gt;@5</title>
<g id="a_edge8"><a xlink:title="lret75">
<path fill="none" stroke="blue" d="M208.96,-759.01C204.68,-815.64 194.87,-945.44 191.31,-992.42"/>
<polygon fill="blue" stroke="blue" points="212.45,-759.25 209.71,-749.02 205.47,-758.72 212.45,-759.25"/>
</a>
</g>
</g>
<!-- @5&#45;&gt;!p3 -->
<g id="edge17" class="edge">
<title>@5&#45;&gt;!p3</title>
<g id="a_edge17"><a xlink:title="newrret74">
<path fill="none" stroke="red" d="M183.56,-992.92C178.14,-978.69 170.28,-958.09 164.03,-941.69"/>
<polygon fill="red" stroke="red" points="167.21,-940.22 160.38,-932.13 160.67,-942.72 167.21,-940.22"/>
</a>
</g>
<text text-anchor="middle" x="180.5" y="-963.6" font-family="Times,serif" font-size="14.00">2</text>
</g>
<!-- !d6 -->
<g id="node7" class="node">
<title>!d6</title>
<ellipse fill="none" stroke="black" cx="264" cy="-914.4" rx="27" ry="18"/>
<text text-anchor="middle" x="264" y="-910.7" font-family="Times,serif" font-size="14.00">!d</text>
</g>
<!-- @5&#45;&gt;!d6 -->
<g id="edge12" class="edge">
<title>@5&#45;&gt;!d6</title>
<g id="a_edge12"><a xlink:title="lval70">
<path fill="none" stroke="blue" d="M211.56,-987.94C215.49,-983.68 219.46,-979.18 223,-974.8 234.43,-960.67 246.06,-943.49 254,-931.25"/>
<polygon fill="blue" stroke="blue" points="208.97,-985.59 204.65,-995.26 214.06,-990.39 208.97,-985.59"/>
</a>
</g>
<text text-anchor="middle" x="237.5" y="-963.6" font-family="Times,serif" font-size="14.00">2</text>
</g>
<!-- !p7 -->
<g id="node8" class="node">
<title>!p7</title>
<ellipse fill="none" stroke="black" cx="272" cy="-818" rx="27" ry="18"/>
<text text-anchor="middle" x="272" y="-814.3" font-family="Times,serif" font-size="14.00">!p</text>
</g>
<!-- !d6&#45;&gt;!p7 -->
<g id="edge2" class="edge">
<title>!d6&#45;&gt;!p7</title>
<g id="a_edge2"><a xlink:title="hf65">
<path fill="none" stroke="blue" d="M266.35,-885.69C267.71,-869.67 269.37,-850.01 270.54,-836.2"/>
<polygon fill="blue" stroke="blue" points="262.82,-885.82 265.47,-896.08 269.8,-886.42 262.82,-885.82"/>
</a>
</g>
<text text-anchor="middle" x="272.5" y="-857.8" font-family="Times,serif" font-size="14.00">1</text>
</g>
<!-- !p7&#45;&gt;I4 -->
<g id="edge21" class="edge">
<title>!p7&#45;&gt;I4</title>
<g id="a_edge21"><a xlink:title="newrretf66">
<path fill="none" stroke="red" d="M260.81,-801.41C251.7,-788.71 238.67,-770.56 228.23,-756.01"/>
<polygon fill="red" stroke="red" points="230.79,-753.58 222.12,-747.49 225.1,-757.66 230.79,-753.58"/>
</a>
</g>
<text text-anchor="middle" x="249.5" y="-770.8" font-family="Times,serif" font-size="14.00">2</text>
</g>
<!-- λ19 -->
<g id="node20" class="node">
<title>λ19</title>
<ellipse fill="none" stroke="black" cx="283" cy="-731" rx="27" ry="18"/>
<text text-anchor="middle" x="283" y="-727.3" font-family="Times,serif" font-size="14.00">λ</text>
</g>
<!-- !p7&#45;&gt;λ19 -->
<g id="edge1" class="edge">
<title>!p7&#45;&gt;λ19</title>
<g id="a_edge1"><a xlink:title="h34">
<path fill="none" stroke="blue" d="M275.53,-789.73C277.25,-776.42 279.27,-760.81 280.78,-749.18"/>
<polygon fill="blue" stroke="blue" points="272.04,-789.43 274.23,-799.8 278.98,-790.33 272.04,-789.43"/>
</a>
</g>
<text text-anchor="middle" x="281.5" y="-770.8" font-family="Times,serif" font-size="14.00">1</text>
</g>
<!-- I8 -->
<g id="node9" class="node">
<title>I8</title>
<ellipse fill="none" stroke="black" cx="283" cy="-644" rx="27" ry="18"/>
<text text-anchor="middle" x="283" y="-640.3" font-family="Times,serif" font-size="14.00">I</text>
</g>
<!-- @9 -->
<g id="node10" class="node">
<title>@9</title>
<ellipse fill="none" stroke="black" cx="338" cy="-571" rx="27" ry="18"/>
<text text-anchor="middle" x="338" y="-567.3" font-family="Times,serif" font-size="14.00">@</text>
</g>
<!-- I8&#45;&gt;@9 -->
<g id="edge7" class="edge">
<title>I8&#45;&gt;@9</title>
<g id="a_edge7"><a xlink:title="lret62">
<path fill="none" stroke="blue" d="M301.17,-619.54C309.37,-608.96 318.81,-596.77 326.09,-587.38"/>
<polygon fill="blue" stroke="blue" points="298.29,-617.55 294.93,-627.59 303.83,-621.83 298.29,-617.55"/>
</a>
</g>
</g>
<!-- @9&#45;&gt;!p7 -->
<g id="edge16" class="edge">
<title>@9&#45;&gt;!p7</title>
<g id="a_edge16"><a xlink:title="newrret61">
<path fill="none" stroke="red" d="M338.91,-589.23C340.02,-621.63 339.67,-693.38 319,-749 312.87,-765.5 301.82,-781.81 291.97,-794.31"/>
<polygon fill="red" stroke="red" points="289.05,-792.36 285.42,-802.32 294.46,-796.79 289.05,-792.36"/>
</a>
</g>
<text text-anchor="middle" x="337.5" y="-683.8" font-family="Times,serif" font-size="14.00">1</text>
</g>
<!-- Cut18 -->
<g id="node19" class="node">
<title>Cut18</title>
<ellipse fill="none" stroke="black" cx="338" cy="-498" rx="27" ry="18"/>
<text text-anchor="middle" x="338" y="-494.3" font-family="Times,serif" font-size="14.00">Cut</text>
</g>
<!-- @9&#45;&gt;Cut18 -->
<g id="edge10" class="edge">
<title>@9&#45;&gt;Cut18</title>
<g id="a_edge10"><a xlink:title="lval38">
<path fill="none" stroke="blue" d="M338,-542.75C338,-533.77 338,-524.03 338,-516.03"/>
<polygon fill="blue" stroke="blue" points="334.5,-542.81 338,-552.81 341.5,-542.81 334.5,-542.81"/>
</a>
</g>
</g>
<!-- I10 -->
<g id="node11" class="node">
<title>I10</title>
<ellipse fill="none" stroke="black" cx="249" cy="-105" rx="27" ry="18"/>
<text text-anchor="middle" x="249" y="-101.3" font-family="Times,serif" font-size="14.00">I</text>
</g>
<!-- !d11 -->
<g id="node12" class="node">
<title>!d11</title>
<ellipse fill="none" stroke="black" cx="281" cy="-18" rx="27" ry="18"/>
<text text-anchor="middle" x="281" y="-14.3" font-family="Times,serif" font-size="14.00">!d</text>
</g>
<!-- I10&#45;&gt;!d11 -->
<g id="edge37" class="edge">
<title>I10&#45;&gt;!d11</title>
<g id="a_edge37"><a xlink:title="yret60">
<path fill="none" stroke="blue" d="M258.86,-77.8C264.02,-64.1 270.18,-47.74 274.69,-35.76"/>
<polygon fill="blue" stroke="blue" points="255.57,-76.61 255.32,-87.21 262.12,-79.08 255.57,-76.61"/>
</a>
</g>
<text text-anchor="middle" x="270.5" y="-57.8" font-family="Times,serif" font-size="14.00">2</text>
</g>
<!-- !p12 -->
<g id="node13" class="node">
<title>!p12</title>
<ellipse fill="none" stroke="black" cx="286" cy="-192" rx="27" ry="18"/>
<text text-anchor="middle" x="286" y="-188.3" font-family="Times,serif" font-size="14.00">!p</text>
</g>
<!-- !d11&#45;&gt;!p12 -->
<g id="edge36" class="edge">
<title>!d11&#45;&gt;!p12</title>
<g id="a_edge36"><a xlink:title="yBf56">
<path fill="none" stroke="blue" d="M282.91,-46.22C283.7,-58.65 284.54,-73.56 285,-87 286.04,-117.5 286.14,-153.05 286.09,-173.7"/>
<polygon fill="blue" stroke="blue" points="286.39,-45.78 282.23,-36.04 279.4,-46.25 286.39,-45.78"/>
</a>
</g>
<text text-anchor="middle" x="288.5" y="-101.3" font-family="Times,serif" font-size="14.00">1</text>
</g>
<!-- !p12&#45;&gt;I10 -->
<g id="edge20" class="edge">
<title>!p12&#45;&gt;I10</title>
<g id="a_edge20"><a xlink:title="newrretf57">
<path fill="none" stroke="red" d="M278.87,-174.61C273.63,-162.58 266.4,-145.98 260.37,-132.13"/>
<polygon fill="red" stroke="red" points="263.44,-130.4 256.24,-122.63 257.02,-133.19 263.44,-130.4"/>
</a>
</g>
<text text-anchor="middle" x="272.5" y="-144.8" font-family="Times,serif" font-size="14.00">2</text>
</g>
<!-- !c16 -->
<g id="node17" class="node">
<title>!c16</title>
<ellipse fill="none" stroke="black" cx="375" cy="-105" rx="27" ry="18"/>
<text text-anchor="middle" x="375" y="-101.3" font-family="Times,serif" font-size="14.00">!c</text>
</g>
<!-- !p12&#45;&gt;!c16 -->
<g id="edge35" class="edge">
<title>!p12&#45;&gt;!c16</title>
<g id="a_edge35"><a xlink:title="yB44">
<path fill="none" stroke="blue" d="M308.43,-169.84C313.24,-165.28 318.3,-160.49 323,-156 332.77,-146.68 343.54,-136.34 352.72,-127.5"/>
<polygon fill="blue" stroke="blue" points="306.01,-167.31 301.15,-176.72 310.82,-172.4 306.01,-167.31"/>
<polygon fill="blue" stroke="blue" points="362.44,-122.99 352.81,-127.41 357.58,-117.95 362.44,-122.99"/>
</a>
</g>
<text text-anchor="middle" x="340.5" y="-144.8" font-family="Times,serif" font-size="14.00">1</text>
</g>
<!-- I13 -->
<g id="node14" class="node">
<title>I13</title>
<ellipse fill="none" stroke="black" cx="338" cy="-352" rx="27" ry="18"/>
<text text-anchor="middle" x="338" y="-348.3" font-family="Times,serif" font-size="14.00">I</text>
</g>
<!-- @14 -->
<g id="node15" class="node">
<title>@14</title>
<ellipse fill="none" stroke="black" cx="317" cy="-279" rx="27" ry="18"/>
<text text-anchor="middle" x="317" y="-275.3" font-family="Times,serif" font-size="14.00">@</text>
</g>
<!-- I13&#45;&gt;@14 -->
<g id="edge6" class="edge">
<title>I13&#45;&gt;@14</title>
<g id="a_edge6"><a xlink:title="lret53">
<path fill="none" stroke="blue" d="M330.17,-324.54C327.42,-315.21 324.39,-305 321.94,-296.71"/>
<polygon fill="blue" stroke="blue" points="326.83,-325.58 333.02,-334.17 333.54,-323.59 326.83,-325.58"/>
</a>
</g>
</g>
<!-- @14&#45;&gt;!p12 -->
<g id="edge15" class="edge">
<title>@14&#45;&gt;!p12</title>
<g id="a_edge15"><a xlink:title="newrret52">
<path fill="none" stroke="red" d="M310.88,-261.21C306.5,-249.22 300.53,-232.85 295.54,-219.16"/>
<polygon fill="red" stroke="red" points="298.83,-217.95 292.11,-209.76 292.25,-220.35 298.83,-217.95"/>
</a>
</g>
<text text-anchor="middle" x="306.5" y="-231.8" font-family="Times,serif" font-size="14.00">1</text>
</g>
<!-- !d15 -->
<g id="node16" class="node">
<title>!d15</title>
<ellipse fill="none" stroke="black" cx="358" cy="-192" rx="27" ry="18"/>
<text text-anchor="middle" x="358" y="-188.3" font-family="Times,serif" font-size="14.00">!d</text>
</g>
<!-- @14&#45;&gt;!d15 -->
<g id="edge11" class="edge">
<title>@14&#45;&gt;!d15</title>
<g id="a_edge11"><a xlink:title="lval48">
<path fill="none" stroke="blue" d="M329.31,-252.49C336.06,-238.49 344.23,-221.56 350.12,-209.34"/>
<polygon fill="blue" stroke="blue" points="326.1,-251.08 324.91,-261.61 332.4,-254.12 326.1,-251.08"/>
</a>
</g>
<text text-anchor="middle" x="342.5" y="-231.8" font-family="Times,serif" font-size="14.00">1</text>
</g>
<!-- !d15&#45;&gt;!c16 -->
<g id="edge34" class="edge">
<title>!d15&#45;&gt;!c16</title>
<g id="a_edge34"><a xlink:title="yA43">
<path fill="none" stroke="blue" d="M363.47,-163.66C366.15,-150.25 369.29,-134.53 371.62,-122.89"/>
<polygon fill="blue" stroke="blue" points="359.97,-163.31 361.44,-173.8 366.83,-164.68 359.97,-163.31"/>
</a>
</g>
<text text-anchor="middle" x="370.5" y="-144.8" font-family="Times,serif" font-size="14.00">1</text>
</g>
<!-- λ17 -->
<g id="node18" class="node">
<title>λ17</title>
<ellipse fill="none" stroke="black" cx="338" cy="-425" rx="27" ry="18"/>
<text text-anchor="middle" x="338" y="-421.3" font-family="Times,serif" font-size="14.00">λ</text>
</g>
<!-- !c16&#45;&gt;λ17 -->
<g id="edge33" class="edge">
<title>!c16&#45;&gt;λ17</title>
<g id="a_edge33"><a xlink:title="y41">
<path fill="none" stroke="blue" d="M392.07,-129.78C402.17,-146.17 413,-168.91 413,-191 413,-353 413,-353 413,-353 413,-382.41 382.22,-403.27 360.1,-414.47"/>
<polygon fill="blue" stroke="blue" points="394.99,-127.85 386.61,-121.37 389.12,-131.67 394.99,-127.85"/>
</a>
</g>
</g>
<!-- λ17&#45;&gt;I13 -->
<g id="edge24" class="edge">
<title>λ17&#45;&gt;I13</title>
<g id="a_edge24"><a xlink:title="ret42">
<path fill="none" stroke="red" d="M338,-406.81C338,-398.79 338,-389.05 338,-380.07"/>
<polygon fill="red" stroke="red" points="341.5,-380.03 338,-370.03 334.5,-380.03 341.5,-380.03"/>
</a>
</g>
</g>
<!-- Cut18&#45;&gt;λ17 -->
<g id="edge27" class="edge">
<title>Cut18&#45;&gt;λ17</title>
<g id="a_edge27"><a xlink:title="rval39">
<path fill="none" stroke="red" d="M338,-479.81C338,-471.79 338,-462.05 338,-453.07"/>
<polygon fill="red" stroke="red" points="341.5,-453.03 338,-443.03 334.5,-453.03 341.5,-453.03"/>
</a>
</g>
</g>
<!-- λ19&#45;&gt;I8 -->
<g id="edge23" class="edge">
<title>λ19&#45;&gt;I8</title>
<g id="a_edge23"><a xlink:title="ret35">
<path fill="none" stroke="red" d="M283,-712.8C283,-701.16 283,-685.55 283,-672.24"/>
<polygon fill="red" stroke="red" points="286.5,-672.18 283,-662.18 279.5,-672.18 286.5,-672.18"/>
</a>
</g>
</g>
<!-- !p20 -->
<g id="node21" class="node">
<title>!p20</title>
<ellipse fill="none" stroke="black" cx="386" cy="-818" rx="27" ry="18"/>
<text text-anchor="middle" x="386" y="-814.3" font-family="Times,serif" font-size="14.00">!p</text>
</g>
<!-- !p20&#45;&gt;λ19 -->
<g id="edge19" class="edge">
<title>!p20&#45;&gt;λ19</title>
<g id="a_edge19"><a xlink:title="newrretf31">
<path fill="none" stroke="red" d="M369.45,-803.34C352.63,-789.46 326.4,-767.81 307.24,-752"/>
<polygon fill="red" stroke="red" points="309.45,-749.29 299.51,-745.62 304.99,-754.69 309.45,-749.29"/>
</a>
</g>
<text text-anchor="middle" x="343.5" y="-770.8" font-family="Times,serif" font-size="14.00">1</text>
</g>
<!-- I21 -->
<g id="node22" class="node">
<title>I21</title>
<ellipse fill="none" stroke="black" cx="336" cy="-1010.8" rx="27" ry="18"/>
<text text-anchor="middle" x="336" y="-1007.1" font-family="Times,serif" font-size="14.00">I</text>
</g>
<!-- !d22 -->
<g id="node23" class="node">
<title>!d22</title>
<ellipse fill="none" stroke="black" cx="336" cy="-914.4" rx="27" ry="18"/>
<text text-anchor="middle" x="336" y="-910.7" font-family="Times,serif" font-size="14.00">!d</text>
</g>
<!-- I21&#45;&gt;!d22 -->
<g id="edge32" class="edge">
<title>I21&#45;&gt;!d22</title>
<g id="a_edge32"><a xlink:title="xret26">
<path fill="none" stroke="blue" d="M336,-982.09C336,-966.07 336,-946.41 336,-932.6"/>
<polygon fill="blue" stroke="blue" points="332.5,-982.48 336,-992.48 339.5,-982.48 332.5,-982.48"/>
</a>
</g>
<text text-anchor="middle" x="339.5" y="-963.6" font-family="Times,serif" font-size="14.00">1</text>
</g>
<!-- !p23 -->
<g id="node24" class="node">
<title>!p23</title>
<ellipse fill="none" stroke="black" cx="336" cy="-1097.8" rx="27" ry="18"/>
<text text-anchor="middle" x="336" y="-1094.1" font-family="Times,serif" font-size="14.00">!p</text>
</g>
<!-- !d22&#45;&gt;!p23 -->
<g id="edge31" class="edge">
<title>!d22&#45;&gt;!p23</title>
<g id="a_edge31"><a xlink:title="xBf22">
<path fill="none" stroke="blue" d="M317.6,-938.85C302.09,-961.52 283.79,-997.02 293,-1028.8 298.83,-1048.92 312.59,-1068.81 322.99,-1081.83"/>
<polygon fill="blue" stroke="blue" points="320.57,-940.71 323.55,-930.54 314.88,-936.63 320.57,-940.71"/>
</a>
</g>
<text text-anchor="middle" x="296.5" y="-1007.1" font-family="Times,serif" font-size="14.00">0</text>
</g>
<!-- !p23&#45;&gt;I21 -->
<g id="edge18" class="edge">
<title>!p23&#45;&gt;I21</title>
<g id="a_edge18"><a xlink:title="newrretf23">
<path fill="none" stroke="red" d="M336,-1079.59C336,-1067.96 336,-1052.34 336,-1039.03"/>
<polygon fill="red" stroke="red" points="339.5,-1038.97 336,-1028.97 332.5,-1038.97 339.5,-1038.97"/>
</a>
</g>
<text text-anchor="middle" x="339.5" y="-1050.6" font-family="Times,serif" font-size="14.00">1</text>
</g>
<!-- !c27 -->
<g id="node28" class="node">
<title>!c27</title>
<ellipse fill="none" stroke="black" cx="408" cy="-1010.8" rx="27" ry="18"/>
<text text-anchor="middle" x="408" y="-1007.1" font-family="Times,serif" font-size="14.00">!c</text>
</g>
<!-- !p23&#45;&gt;!c27 -->
<g id="edge30" class="edge">
<title>!p23&#45;&gt;!c27</title>
<g id="a_edge30"><a xlink:title="xB10">
<path fill="none" stroke="blue" d="M355.48,-1073.8C365.75,-1061.68 378.3,-1046.86 388.56,-1034.75"/>
<polygon fill="blue" stroke="blue" points="352.66,-1071.71 348.87,-1081.6 358.01,-1076.23 352.66,-1071.71"/>
<polygon fill="blue" stroke="blue" points="397.91,-1029.12 388.78,-1034.49 392.57,-1024.6 397.91,-1029.12"/>
</a>
</g>
<text text-anchor="middle" x="379.5" y="-1050.6" font-family="Times,serif" font-size="14.00">0</text>
</g>
<!-- I24 -->
<g id="node25" class="node">
<title>I24</title>
<ellipse fill="none" stroke="black" cx="336" cy="-1257.8" rx="27" ry="18"/>
<text text-anchor="middle" x="336" y="-1254.1" font-family="Times,serif" font-size="14.00">I</text>
</g>
<!-- @25 -->
<g id="node26" class="node">
<title>@25</title>
<ellipse fill="none" stroke="black" cx="336" cy="-1184.8" rx="27" ry="18"/>
<text text-anchor="middle" x="336" y="-1181.1" font-family="Times,serif" font-size="14.00">@</text>
</g>
<!-- I24&#45;&gt;@25 -->
<g id="edge5" class="edge">
<title>I24&#45;&gt;@25</title>
<g id="a_edge5"><a xlink:title="lret19">
<path fill="none" stroke="blue" d="M336,-1229.55C336,-1220.56 336,-1210.83 336,-1202.82"/>
<polygon fill="blue" stroke="blue" points="332.5,-1229.61 336,-1239.61 339.5,-1229.61 332.5,-1229.61"/>
</a>
</g>
</g>
<!-- @25&#45;&gt;!p23 -->
<g id="edge13" class="edge">
<title>@25&#45;&gt;!p23</title>
<g id="a_edge13"><a xlink:title="newrret18">
<path fill="none" stroke="red" d="M336,-1166.59C336,-1154.96 336,-1139.34 336,-1126.03"/>
<polygon fill="red" stroke="red" points="339.5,-1125.97 336,-1115.97 332.5,-1125.97 339.5,-1125.97"/>
</a>
</g>
<text text-anchor="middle" x="339.5" y="-1137.6" font-family="Times,serif" font-size="14.00">0</text>
</g>
<!-- !d26 -->
<g id="node27" class="node">
<title>!d26</title>
<ellipse fill="none" stroke="black" cx="408" cy="-1097.8" rx="27" ry="18"/>
<text text-anchor="middle" x="408" y="-1094.1" font-family="Times,serif" font-size="14.00">!d</text>
</g>
<!-- @25&#45;&gt;!d26 -->
<g id="edge9" class="edge">
<title>@25&#45;&gt;!d26</title>
<g id="a_edge9"><a xlink:title="lval14">
<path fill="none" stroke="blue" d="M355.48,-1160.8C368.11,-1145.88 384.22,-1126.87 395.24,-1113.86"/>
<polygon fill="blue" stroke="blue" points="352.66,-1158.71 348.87,-1168.6 358.01,-1163.23 352.66,-1158.71"/>
</a>
</g>
<text text-anchor="middle" x="379.5" y="-1137.6" font-family="Times,serif" font-size="14.00">0</text>
</g>
<!-- !d26&#45;&gt;!c27 -->
<g id="edge29" class="edge">
<title>!d26&#45;&gt;!c27</title>
<g id="a_edge29"><a xlink:title="xA9">
<path fill="none" stroke="blue" d="M408,-1069.53C408,-1056.22 408,-1040.6 408,-1028.97"/>
<polygon fill="blue" stroke="blue" points="404.5,-1069.59 408,-1079.59 411.5,-1069.59 404.5,-1069.59"/>
</a>
</g>
<text text-anchor="middle" x="411.5" y="-1050.6" font-family="Times,serif" font-size="14.00">0</text>
</g>
<!-- Cut29 -->
<g id="node30" class="node">
<title>Cut29</title>
<ellipse fill="none" stroke="black" cx="408" cy="-914.4" rx="23.31" ry="23.31"/>
<ellipse fill="none" stroke="black" cx="408" cy="-914.4" rx="27.3" ry="27.3"/>
<text text-anchor="middle" x="408" y="-910.7" font-family="Times,serif" font-size="14.00">Cut</text>
</g>
<!-- !c27&#45;&gt;Cut29 -->
<g id="edge28" class="edge">
<title>!c27&#45;&gt;Cut29</title>
<g id="a_edge28"><a xlink:title="x7">
<path fill="none" stroke="blue" stroke-width="2" d="M408,-982.42C408,-969.66 408,-954.53 408,-941.88"/>
<polygon fill="blue" stroke="blue" stroke-width="2" points="404.5,-982.48 408,-992.48 411.5,-982.48 404.5,-982.48"/>
</a>
</g>
</g>
<!-- Assign28 -->
<g id="node29" class="node">
<title>Assign28</title>
<ellipse fill="none" stroke="black" cx="336" cy="-1330.8" rx="35.19" ry="18"/>
<text text-anchor="middle" x="336" y="-1327.1" font-family="Times,serif" font-size="14.00">Assign</text>
</g>
<!-- Assign28&#45;&gt;I24 -->
<g id="edge25" class="edge">
<title>Assign28&#45;&gt;I24</title>
<g id="a_edge25"><a xlink:title="ret8">
<path fill="none" stroke="red" d="M336,-1312.61C336,-1304.59 336,-1294.84 336,-1285.86"/>
<polygon fill="red" stroke="red" points="339.5,-1285.82 336,-1275.82 332.5,-1285.82 339.5,-1285.82"/>
</a>
</g>
</g>
<!-- Cut29&#45;&gt;!p20 -->
<g id="edge14" class="edge">
<title>Cut29&#45;&gt;!p20</title>
<g id="a_edge14"><a xlink:title="newrret27">
<path fill="none" stroke="red" d="M401.99,-887.6C398.96,-874.59 395.28,-858.83 392.22,-845.7"/>
<polygon fill="red" stroke="red" points="395.6,-844.78 389.92,-835.84 388.78,-846.37 395.6,-844.78"/>
</a>
</g>
<text text-anchor="middle" x="400.5" y="-857.8" font-family="Times,serif" font-size="14.00">0</text>
</g>
</g>
</svg>
