<?xml version="1.0" encoding="UTF-8" standalone="no"?>
<!DOCTYPE svg PUBLIC "-//W3C//DTD SVG 1.1//EN"
 "http://www.w3.org/Graphics/SVG/1.1/DTD/svg11.dtd">
<!-- Generated by graphviz version 2.43.0 (0)
 -->
<!-- Title: %3 Pages: 1 -->
<svg width="662pt" height="1367pt"
 viewBox="0.00 0.00 662.00 1367.19" xmlns="http://www.w3.org/2000/svg" xmlns:xlink="http://www.w3.org/1999/xlink">
<g id="graph0" class="graph" transform="scale(1 1) rotate(0) translate(4 1363.19)">
<title>%3</title>
<polygon fill="white" stroke="transparent" points="-4,4 -4,-1363.19 658,-1363.19 658,4 -4,4"/>
<!-- I0 -->
<g id="node1" class="node">
<title>I0</title>
<ellipse fill="none" stroke="black" cx="82" cy="-1195.19" rx="27" ry="18"/>
<text text-anchor="middle" x="82" y="-1191.49" font-family="Times-Roman" font-size="14.00">I</text>
</g>
<!-- !d1 -->
<g id="node2" class="node">
<title>!d1</title>
<ellipse fill="none" stroke="black" cx="27" cy="-1108.19" rx="27" ry="18"/>
<text text-anchor="middle" x="27" y="-1104.49" font-family="Times-Roman" font-size="14.00">!d</text>
</g>
<!-- I0&#45;&gt;!d1 -->
<g id="edge5" class="edge">
<title>I0&#45;&gt;!d1</title>
<g id="a_edge5"><a xlink:title="iret84">
<path fill="none" stroke="blue" d="M65.99,-1169.91C63.64,-1166.32 61.25,-1162.66 59,-1159.19 51.6,-1147.78 43.32,-1134.84 37.04,-1124.99"/>
<polygon fill="blue" stroke="blue" points="63.24,-1172.1 71.66,-1178.54 69.09,-1168.26 63.24,-1172.1"/>
</a>
</g>
<text text-anchor="middle" x="63.5" y="-1147.99" font-family="Times-Roman" font-size="14.00">3</text>
</g>
<!-- λ2 -->
<g id="node3" class="node">
<title>λ2</title>
<ellipse fill="none" stroke="black" cx="82" cy="-1021.19" rx="27" ry="18"/>
<text text-anchor="middle" x="82" y="-1017.49" font-family="Times-Roman" font-size="14.00">λ</text>
</g>
<!-- !d1&#45;&gt;λ2 -->
<g id="edge4" class="edge">
<title>!d1&#45;&gt;λ2</title>
<g id="a_edge4"><a xlink:title="i81">
<path fill="none" stroke="blue" d="M42.58,-1082.72C47.78,-1074.58 53.62,-1065.49 59,-1057.19 63.11,-1050.85 67.68,-1043.88 71.66,-1037.85"/>
<polygon fill="blue" stroke="blue" points="39.47,-1081.09 37.04,-1091.4 45.37,-1084.85 39.47,-1081.09"/>
</a>
</g>
<text text-anchor="middle" x="63.5" y="-1060.99" font-family="Times-Roman" font-size="14.00">3</text>
</g>
<!-- λ2&#45;&gt;I0 -->
<g id="edge28" class="edge">
<title>λ2&#45;&gt;I0</title>
<g id="a_edge28"><a xlink:title="ret82">
<path fill="none" stroke="red" d="M82,-1039.25C82,-1069.08 82,-1130.96 82,-1166.84"/>
<polygon fill="red" stroke="red" points="78.5,-1167.07 82,-1177.07 85.5,-1167.07 78.5,-1167.07"/>
</a>
</g>
</g>
<!-- !p3 -->
<g id="node4" class="node">
<title>!p3</title>
<ellipse fill="none" stroke="black" cx="137" cy="-1108.19" rx="27" ry="18"/>
<text text-anchor="middle" x="137" y="-1104.49" font-family="Times-Roman" font-size="14.00">!p</text>
</g>
<!-- !p3&#45;&gt;λ2 -->
<g id="edge22" class="edge">
<title>!p3&#45;&gt;λ2</title>
<g id="a_edge22"><a xlink:title="newrretf78">
<path fill="none" stroke="red" d="M126.65,-1091.21C118.51,-1078.62 107.03,-1060.87 97.74,-1046.53"/>
<polygon fill="red" stroke="red" points="100.67,-1044.61 92.3,-1038.11 94.79,-1048.41 100.67,-1044.61"/>
</a>
</g>
<text text-anchor="middle" x="117.5" y="-1060.99" font-family="Times-Roman" font-size="14.00">3</text>
</g>
<!-- I4 -->
<g id="node5" class="node">
<title>I4</title>
<ellipse fill="none" stroke="black" cx="194" cy="-731" rx="27" ry="18"/>
<text text-anchor="middle" x="194" y="-727.3" font-family="Times-Roman" font-size="14.00">I</text>
</g>
<!-- @5 -->
<g id="node6" class="node">
<title>@5</title>
<ellipse fill="none" stroke="black" cx="173" cy="-1195.19" rx="27" ry="18"/>
<text text-anchor="middle" x="173" y="-1191.49" font-family="Times-Roman" font-size="14.00">@</text>
</g>
<!-- I4&#45;&gt;@5 -->
<g id="edge9" class="edge">
<title>I4&#45;&gt;@5</title>
<g id="a_edge9"><a xlink:title="lret75">
<path fill="none" stroke="blue" d="M193.15,-759.52C192.61,-779.51 192,-807.23 192,-831.6 192,-1109.19 192,-1109.19 192,-1109.19 192,-1133.39 184.58,-1160.54 179.01,-1177.51"/>
<polygon fill="blue" stroke="blue" points="196.66,-759.37 193.44,-749.27 189.66,-759.17 196.66,-759.37"/>
</a>
</g>
</g>
<!-- @5&#45;&gt;!p3 -->
<g id="edge16" class="edge">
<title>@5&#45;&gt;!p3</title>
<g id="a_edge16"><a xlink:title="newrret74">
<path fill="none" stroke="red" d="M165.89,-1177.4C160.78,-1165.33 153.79,-1148.83 147.97,-1135.09"/>
<polygon fill="red" stroke="red" points="151.1,-1133.51 143.98,-1125.66 144.65,-1136.24 151.1,-1133.51"/>
</a>
</g>
<text text-anchor="middle" x="162.5" y="-1147.99" font-family="Times-Roman" font-size="14.00">2</text>
</g>
<!-- Cut8 -->
<g id="node9" class="node">
<title>Cut8</title>
<ellipse fill="none" stroke="black" cx="247" cy="-1108.19" rx="27" ry="18"/>
<text text-anchor="middle" x="247" y="-1104.49" font-family="Times-Roman" font-size="14.00">Cut</text>
</g>
<!-- @5&#45;&gt;Cut8 -->
<g id="edge12" class="edge">
<title>@5&#45;&gt;Cut8</title>
<g id="a_edge12"><a xlink:title="lval70">
<path fill="none" stroke="blue" d="M194.05,-1172.33C198.07,-1168.03 202.21,-1163.51 206,-1159.19 215.93,-1147.9 226.7,-1134.73 234.71,-1124.74"/>
<polygon fill="blue" stroke="blue" points="191.36,-1170.09 187.04,-1179.76 196.45,-1174.89 191.36,-1170.09"/>
</a>
</g>
</g>
<!-- I6 -->
<g id="node7" class="node">
<title>I6</title>
<ellipse fill="none" stroke="black" cx="247" cy="-1021.19" rx="27" ry="18"/>
<text text-anchor="middle" x="247" y="-1017.49" font-family="Times-Roman" font-size="14.00">I</text>
</g>
<!-- !d7 -->
<g id="node8" class="node">
<title>!d7</title>
<ellipse fill="none" stroke="black" cx="248" cy="-934.19" rx="27" ry="18"/>
<text text-anchor="middle" x="248" y="-930.49" font-family="Times-Roman" font-size="14.00">!d</text>
</g>
<!-- I6&#45;&gt;!d7 -->
<g id="edge3" class="edge">
<title>I6&#45;&gt;!d7</title>
<g id="a_edge3"><a xlink:title="hret73">
<path fill="none" stroke="blue" d="M247.32,-992.93C247.48,-979.61 247.66,-964 247.8,-952.37"/>
<polygon fill="blue" stroke="blue" points="243.82,-992.95 247.2,-1002.99 250.82,-993.04 243.82,-992.95"/>
</a>
</g>
<text text-anchor="middle" x="251.5" y="-973.99" font-family="Times-Roman" font-size="14.00">2</text>
</g>
<!-- !p9 -->
<g id="node10" class="node">
<title>!p9</title>
<ellipse fill="none" stroke="black" cx="248" cy="-832.6" rx="27" ry="18"/>
<text text-anchor="middle" x="248" y="-828.9" font-family="Times-Roman" font-size="14.00">!p</text>
</g>
<!-- !d7&#45;&gt;!p9 -->
<g id="edge2" class="edge">
<title>!d7&#45;&gt;!p9</title>
<g id="a_edge2"><a xlink:title="hf65">
<path fill="none" stroke="blue" d="M248,-905.61C248,-888.04 248,-865.82 248,-850.75"/>
<polygon fill="blue" stroke="blue" points="244.5,-905.85 248,-915.85 251.5,-905.85 244.5,-905.85"/>
</a>
</g>
<text text-anchor="middle" x="252.5" y="-886.99" font-family="Times-Roman" font-size="14.00">1</text>
</g>
<!-- Cut8&#45;&gt;I6 -->
<g id="edge30" class="edge">
<title>Cut8&#45;&gt;I6</title>
<g id="a_edge30"><a xlink:title="rval71">
<path fill="none" stroke="red" d="M247,-1089.99C247,-1078.36 247,-1062.74 247,-1049.43"/>
<polygon fill="red" stroke="red" points="250.5,-1049.37 247,-1039.37 243.5,-1049.37 250.5,-1049.37"/>
</a>
</g>
</g>
<!-- !p9&#45;&gt;I4 -->
<g id="edge21" class="edge">
<title>!p9&#45;&gt;I4</title>
<g id="a_edge21"><a xlink:title="newrretf66">
<path fill="none" stroke="red" d="M239.08,-815.15C230.51,-799.34 217.44,-775.23 207.58,-757.04"/>
<polygon fill="red" stroke="red" points="210.59,-755.26 202.75,-748.14 204.44,-758.6 210.59,-755.26"/>
</a>
</g>
<text text-anchor="middle" x="225.5" y="-770.8" font-family="Times-Roman" font-size="14.00">2</text>
</g>
<!-- λ20 -->
<g id="node21" class="node">
<title>λ20</title>
<ellipse fill="none" stroke="black" cx="331" cy="-731" rx="27" ry="18"/>
<text text-anchor="middle" x="331" y="-727.3" font-family="Times-Roman" font-size="14.00">λ</text>
</g>
<!-- !p9&#45;&gt;λ20 -->
<g id="edge1" class="edge">
<title>!p9&#45;&gt;λ20</title>
<g id="a_edge1"><a xlink:title="h34">
<path fill="none" stroke="blue" d="M267.13,-808.64C282.84,-789.79 304.64,-763.63 318.28,-747.27"/>
<polygon fill="blue" stroke="blue" points="264.32,-806.55 260.61,-816.47 269.7,-811.03 264.32,-806.55"/>
</a>
</g>
<text text-anchor="middle" x="305.5" y="-770.8" font-family="Times-Roman" font-size="14.00">1</text>
</g>
<!-- I10 -->
<g id="node11" class="node">
<title>I10</title>
<ellipse fill="none" stroke="black" cx="331" cy="-658" rx="27" ry="18"/>
<text text-anchor="middle" x="331" y="-654.3" font-family="Times-Roman" font-size="14.00">I</text>
</g>
<!-- Cut28 -->
<g id="node29" class="node">
<title>Cut28</title>
<ellipse fill="none" stroke="black" cx="345" cy="-585" rx="27" ry="18"/>
<text text-anchor="middle" x="345" y="-581.3" font-family="Times-Roman" font-size="14.00">Cut</text>
</g>
<!-- I10&#45;&gt;Cut28 -->
<g id="edge8" class="edge">
<title>I10&#45;&gt;Cut28</title>
<g id="a_edge8"><a xlink:title="lret62">
<path fill="none" stroke="blue" d="M336.37,-629.75C338.14,-620.77 340.06,-611.03 341.64,-603.03"/>
<polygon fill="blue" stroke="blue" points="332.89,-629.32 334.39,-639.81 339.76,-630.68 332.89,-629.32"/>
</a>
</g>
</g>
<!-- I11 -->
<g id="node12" class="node">
<title>I11</title>
<ellipse fill="none" stroke="black" cx="459" cy="-265" rx="27" ry="18"/>
<text text-anchor="middle" x="459" y="-261.3" font-family="Times-Roman" font-size="14.00">I</text>
</g>
<!-- !d12 -->
<g id="node13" class="node">
<title>!d12</title>
<ellipse fill="none" stroke="black" cx="431" cy="-178" rx="27" ry="18"/>
<text text-anchor="middle" x="431" y="-174.3" font-family="Times-Roman" font-size="14.00">!d</text>
</g>
<!-- I11&#45;&gt;!d12 -->
<g id="edge40" class="edge">
<title>I11&#45;&gt;!d12</title>
<g id="a_edge40"><a xlink:title="yret60">
<path fill="none" stroke="blue" d="M450.24,-237.4C445.75,-223.79 440.43,-207.62 436.52,-195.76"/>
<polygon fill="blue" stroke="blue" points="447.02,-238.8 453.47,-247.21 453.66,-236.61 447.02,-238.8"/>
</a>
</g>
<text text-anchor="middle" x="450.5" y="-217.8" font-family="Times-Roman" font-size="14.00">2</text>
</g>
<!-- !p13 -->
<g id="node14" class="node">
<title>!p13</title>
<ellipse fill="none" stroke="black" cx="391" cy="-352" rx="27" ry="18"/>
<text text-anchor="middle" x="391" y="-348.3" font-family="Times-Roman" font-size="14.00">!p</text>
</g>
<!-- !d12&#45;&gt;!p13 -->
<g id="edge38" class="edge">
<title>!d12&#45;&gt;!p13</title>
<g id="a_edge38"><a xlink:title="yBf56">
<path fill="none" stroke="blue" d="M424.12,-205.82C420.95,-218.31 417.2,-233.4 414,-247 406.79,-277.6 399.02,-313.42 394.6,-334.03"/>
<polygon fill="blue" stroke="blue" points="427.54,-206.57 426.61,-196.02 420.75,-204.84 427.54,-206.57"/>
</a>
</g>
<text text-anchor="middle" x="418.5" y="-261.3" font-family="Times-Roman" font-size="14.00">1</text>
</g>
<!-- !p13&#45;&gt;I11 -->
<g id="edge20" class="edge">
<title>!p13&#45;&gt;I11</title>
<g id="a_edge20"><a xlink:title="newrretf57">
<path fill="none" stroke="red" d="M403.16,-335.8C413.44,-322.95 428.35,-304.32 440.17,-289.54"/>
<polygon fill="red" stroke="red" points="443.21,-291.35 446.72,-281.35 437.74,-286.97 443.21,-291.35"/>
</a>
</g>
<text text-anchor="middle" x="433.5" y="-304.8" font-family="Times-Roman" font-size="14.00">2</text>
</g>
<!-- !c19 -->
<g id="node20" class="node">
<title>!c19</title>
<ellipse fill="none" stroke="black" cx="304" cy="-91" rx="27" ry="18"/>
<text text-anchor="middle" x="304" y="-87.3" font-family="Times-Roman" font-size="14.00">!c</text>
</g>
<!-- !p13&#45;&gt;!c19 -->
<g id="edge37" class="edge">
<title>!p13&#45;&gt;!c19</title>
<g id="a_edge37"><a xlink:title="yB44">
<path fill="none" stroke="blue" d="M385.77,-323.83C378.08,-286.23 362.19,-216.56 340,-160 334.21,-145.24 326.04,-129.54 318.95,-116.95"/>
<polygon fill="blue" stroke="blue" points="382.41,-324.87 387.81,-333.99 389.27,-323.49 382.41,-324.87"/>
<polygon fill="blue" stroke="blue" points="316.83,-106.25 318.79,-116.66 310.77,-109.74 316.83,-106.25"/>
</a>
</g>
<text text-anchor="middle" x="366.5" y="-217.8" font-family="Times-Roman" font-size="14.00">1</text>
</g>
<!-- I14 -->
<g id="node15" class="node">
<title>I14</title>
<ellipse fill="none" stroke="black" cx="345" cy="-512" rx="27" ry="18"/>
<text text-anchor="middle" x="345" y="-508.3" font-family="Times-Roman" font-size="14.00">I</text>
</g>
<!-- @15 -->
<g id="node16" class="node">
<title>@15</title>
<ellipse fill="none" stroke="black" cx="369" cy="-439" rx="27" ry="18"/>
<text text-anchor="middle" x="369" y="-435.3" font-family="Times-Roman" font-size="14.00">@</text>
</g>
<!-- I14&#45;&gt;@15 -->
<g id="edge7" class="edge">
<title>I14&#45;&gt;@15</title>
<g id="a_edge7"><a xlink:title="lret53">
<path fill="none" stroke="blue" d="M353.94,-484.54C357.1,-475.21 360.55,-465 363.35,-456.71"/>
<polygon fill="blue" stroke="blue" points="350.57,-483.58 350.69,-494.17 357.21,-485.82 350.57,-483.58"/>
</a>
</g>
</g>
<!-- @15&#45;&gt;!p13 -->
<g id="edge14" class="edge">
<title>@15&#45;&gt;!p13</title>
<g id="a_edge14"><a xlink:title="newrret52">
<path fill="none" stroke="red" d="M373.35,-421.21C376.4,-409.41 380.55,-393.38 384.06,-379.82"/>
<polygon fill="red" stroke="red" points="387.47,-380.61 386.59,-370.05 380.69,-378.85 387.47,-380.61"/>
</a>
</g>
<text text-anchor="middle" x="385.5" y="-391.8" font-family="Times-Roman" font-size="14.00">1</text>
</g>
<!-- Cut18 -->
<g id="node19" class="node">
<title>Cut18</title>
<ellipse fill="none" stroke="black" cx="304" cy="-352" rx="27" ry="18"/>
<text text-anchor="middle" x="304" y="-348.3" font-family="Times-Roman" font-size="14.00">Cut</text>
</g>
<!-- @15&#45;&gt;Cut18 -->
<g id="edge11" class="edge">
<title>@15&#45;&gt;Cut18</title>
<g id="a_edge11"><a xlink:title="lval48">
<path fill="none" stroke="blue" d="M350.87,-414.29C339.67,-399.65 325.63,-381.28 315.85,-368.49"/>
<polygon fill="blue" stroke="blue" points="348.22,-416.59 357.08,-422.41 353.78,-412.34 348.22,-416.59"/>
</a>
</g>
</g>
<!-- I16 -->
<g id="node17" class="node">
<title>I16</title>
<ellipse fill="none" stroke="black" cx="304" cy="-265" rx="27" ry="18"/>
<text text-anchor="middle" x="304" y="-261.3" font-family="Times-Roman" font-size="14.00">I</text>
</g>
<!-- !d17 -->
<g id="node18" class="node">
<title>!d17</title>
<ellipse fill="none" stroke="black" cx="304" cy="-178" rx="27" ry="18"/>
<text text-anchor="middle" x="304" y="-174.3" font-family="Times-Roman" font-size="14.00">!d</text>
</g>
<!-- I16&#45;&gt;!d17 -->
<g id="edge39" class="edge">
<title>I16&#45;&gt;!d17</title>
<g id="a_edge39"><a xlink:title="yret51">
<path fill="none" stroke="blue" d="M304,-236.73C304,-223.42 304,-207.81 304,-196.18"/>
<polygon fill="blue" stroke="blue" points="300.5,-236.8 304,-246.8 307.5,-236.8 300.5,-236.8"/>
</a>
</g>
<text text-anchor="middle" x="308.5" y="-217.8" font-family="Times-Roman" font-size="14.00">1</text>
</g>
<!-- !d17&#45;&gt;!c19 -->
<g id="edge36" class="edge">
<title>!d17&#45;&gt;!c19</title>
<g id="a_edge36"><a xlink:title="yA43">
<path fill="none" stroke="blue" d="M304,-149.73C304,-136.42 304,-120.81 304,-109.18"/>
<polygon fill="blue" stroke="blue" points="300.5,-149.8 304,-159.8 307.5,-149.8 300.5,-149.8"/>
</a>
</g>
<text text-anchor="middle" x="308.5" y="-130.8" font-family="Times-Roman" font-size="14.00">1</text>
</g>
<!-- Cut18&#45;&gt;I16 -->
<g id="edge29" class="edge">
<title>Cut18&#45;&gt;I16</title>
<g id="a_edge29"><a xlink:title="rval49">
<path fill="none" stroke="red" d="M304,-333.8C304,-322.16 304,-306.55 304,-293.24"/>
<polygon fill="red" stroke="red" points="307.5,-293.18 304,-283.18 300.5,-293.18 307.5,-293.18"/>
</a>
</g>
</g>
<!-- Cut27 -->
<g id="node28" class="node">
<title>Cut27</title>
<ellipse fill="none" stroke="black" cx="249" cy="-18" rx="27" ry="18"/>
<text text-anchor="middle" x="249" y="-14.3" font-family="Times-Roman" font-size="14.00">Cut</text>
</g>
<!-- !c19&#45;&gt;Cut27 -->
<g id="edge35" class="edge">
<title>!c19&#45;&gt;Cut27</title>
<g id="a_edge35"><a xlink:title="y41">
<path fill="none" stroke="blue" d="M285.83,-66.54C277.63,-55.96 268.19,-43.77 260.91,-34.38"/>
<polygon fill="blue" stroke="blue" points="283.17,-68.83 292.07,-74.59 288.71,-64.55 283.17,-68.83"/>
</a>
</g>
</g>
<!-- λ20&#45;&gt;I10 -->
<g id="edge25" class="edge">
<title>λ20&#45;&gt;I10</title>
<g id="a_edge25"><a xlink:title="ret35">
<path fill="none" stroke="red" d="M331,-712.81C331,-704.79 331,-695.05 331,-686.07"/>
<polygon fill="red" stroke="red" points="334.5,-686.03 331,-676.03 327.5,-686.03 334.5,-686.03"/>
</a>
</g>
</g>
<!-- I21 -->
<g id="node22" class="node">
<title>I21</title>
<ellipse fill="none" stroke="black" cx="467" cy="-1021.19" rx="27" ry="18"/>
<text text-anchor="middle" x="467" y="-1017.49" font-family="Times-Roman" font-size="14.00">I</text>
</g>
<!-- !d22 -->
<g id="node23" class="node">
<title>!d22</title>
<ellipse fill="none" stroke="black" cx="499" cy="-934.19" rx="27" ry="18"/>
<text text-anchor="middle" x="499" y="-930.49" font-family="Times-Roman" font-size="14.00">!d</text>
</g>
<!-- I21&#45;&gt;!d22 -->
<g id="edge34" class="edge">
<title>I21&#45;&gt;!d22</title>
<g id="a_edge34"><a xlink:title="xret26">
<path fill="none" stroke="blue" d="M476.86,-994C482.02,-980.3 488.18,-963.94 492.69,-951.95"/>
<polygon fill="blue" stroke="blue" points="473.57,-992.81 473.32,-1003.4 480.12,-995.28 473.57,-992.81"/>
</a>
</g>
<text text-anchor="middle" x="488.5" y="-973.99" font-family="Times-Roman" font-size="14.00">1</text>
</g>
<!-- !p23 -->
<g id="node24" class="node">
<title>!p23</title>
<ellipse fill="none" stroke="black" cx="467" cy="-1108.19" rx="27" ry="18"/>
<text text-anchor="middle" x="467" y="-1104.49" font-family="Times-Roman" font-size="14.00">!p</text>
</g>
<!-- !d22&#45;&gt;!p23 -->
<g id="edge33" class="edge">
<title>!d22&#45;&gt;!p23</title>
<g id="a_edge33"><a xlink:title="xBf22">
<path fill="none" stroke="blue" d="M504.09,-961.99C507.16,-983.25 509.37,-1013.54 503,-1039.19 498.2,-1058.51 486.79,-1078.38 478.1,-1091.61"/>
<polygon fill="blue" stroke="blue" points="507.53,-961.38 502.49,-952.06 500.62,-962.49 507.53,-961.38"/>
</a>
</g>
<text text-anchor="middle" x="511.5" y="-1017.49" font-family="Times-Roman" font-size="14.00">0</text>
</g>
<!-- !p23&#45;&gt;I21 -->
<g id="edge18" class="edge">
<title>!p23&#45;&gt;I21</title>
<g id="a_edge18"><a xlink:title="newrretf23">
<path fill="none" stroke="red" d="M467,-1089.99C467,-1078.36 467,-1062.74 467,-1049.43"/>
<polygon fill="red" stroke="red" points="470.5,-1049.37 467,-1039.37 463.5,-1049.37 470.5,-1049.37"/>
</a>
</g>
<text text-anchor="middle" x="471.5" y="-1060.99" font-family="Times-Roman" font-size="14.00">1</text>
</g>
<!-- Cut32 -->
<g id="node33" class="node">
<title>Cut32</title>
<ellipse fill="none" stroke="black" cx="395" cy="-1021.19" rx="27" ry="18"/>
<text text-anchor="middle" x="395" y="-1017.49" font-family="Times-Roman" font-size="14.00">Cut</text>
</g>
<!-- !p23&#45;&gt;Cut32 -->
<g id="edge32" class="edge">
<title>!p23&#45;&gt;Cut32</title>
<g id="a_edge32"><a xlink:title="xB10">
<path fill="none" stroke="blue" d="M447.52,-1084.2C434.89,-1069.28 418.78,-1050.27 407.76,-1037.26"/>
<polygon fill="blue" stroke="blue" points="444.99,-1086.63 454.13,-1092 450.34,-1082.11 444.99,-1086.63"/>
</a>
</g>
<text text-anchor="middle" x="439.5" y="-1060.99" font-family="Times-Roman" font-size="14.00">0</text>
</g>
<!-- I24 -->
<g id="node25" class="node">
<title>I24</title>
<ellipse fill="none" stroke="black" cx="467" cy="-1268.19" rx="27" ry="18"/>
<text text-anchor="middle" x="467" y="-1264.49" font-family="Times-Roman" font-size="14.00">I</text>
</g>
<!-- @25 -->
<g id="node26" class="node">
<title>@25</title>
<ellipse fill="none" stroke="black" cx="467" cy="-1195.19" rx="27" ry="18"/>
<text text-anchor="middle" x="467" y="-1191.49" font-family="Times-Roman" font-size="14.00">@</text>
</g>
<!-- I24&#45;&gt;@25 -->
<g id="edge6" class="edge">
<title>I24&#45;&gt;@25</title>
<g id="a_edge6"><a xlink:title="lret19">
<path fill="none" stroke="blue" stroke-width="2" d="M467,-1239.95C467,-1230.96 467,-1221.22 467,-1213.22"/>
<polygon fill="blue" stroke="blue" stroke-width="2" points="463.5,-1240.01 467,-1250.01 470.5,-1240.01 463.5,-1240.01"/>
</a>
</g>
</g>
<!-- @25&#45;&gt;!p23 -->
<g id="edge13" class="edge">
<title>@25&#45;&gt;!p23</title>
<g id="a_edge13"><a xlink:title="newrret18">
<path fill="none" stroke="red" d="M467,-1176.99C467,-1165.36 467,-1149.74 467,-1136.43"/>
<polygon fill="red" stroke="red" points="470.5,-1136.37 467,-1126.37 463.5,-1136.37 470.5,-1136.37"/>
</a>
</g>
<text text-anchor="middle" x="471.5" y="-1147.99" font-family="Times-Roman" font-size="14.00">0</text>
</g>
<!-- Cut33 -->
<g id="node34" class="node">
<title>Cut33</title>
<ellipse fill="none" stroke="black" cx="323" cy="-1021.19" rx="27" ry="18"/>
<text text-anchor="middle" x="323" y="-1017.49" font-family="Times-Roman" font-size="14.00">Cut</text>
</g>
<!-- @25&#45;&gt;Cut33 -->
<g id="edge10" class="edge">
<title>@25&#45;&gt;Cut33</title>
<g id="a_edge10"><a xlink:title="lval14">
<path fill="none" stroke="blue" stroke-width="2" d="M447.83,-1171.29C417.89,-1135.54 360.87,-1067.43 335.6,-1037.25"/>
<polygon fill="blue" stroke="blue" stroke-width="2" points="445.37,-1173.81 454.47,-1179.23 450.74,-1169.32 445.37,-1173.81"/>
</a>
</g>
</g>
<!-- Assign26 -->
<g id="node27" class="node">
<title>Assign26</title>
<ellipse fill="none" stroke="black" cx="467" cy="-1341.19" rx="38.99" ry="18"/>
<text text-anchor="middle" x="467" y="-1337.49" font-family="Times-Roman" font-size="14.00">Assign</text>
</g>
<!-- Assign26&#45;&gt;I24 -->
<g id="edge27" class="edge">
<title>Assign26&#45;&gt;I24</title>
<g id="a_edge27"><a xlink:title="ret8">
<path fill="none" stroke="red" stroke-width="2" d="M467,-1323.01C467,-1314.98 467,-1305.24 467,-1296.26"/>
<polygon fill="red" stroke="red" stroke-width="2" points="470.5,-1296.22 467,-1286.22 463.5,-1296.22 470.5,-1296.22"/>
</a>
</g>
</g>
<!-- Cut27&#45;&gt;!p9 -->
<g id="edge15" class="edge">
<title>Cut27&#45;&gt;!p9</title>
<g id="a_edge15"><a xlink:title="newrret61">
<path fill="none" stroke="red" d="M249,-36.22C249,-50.59 249,-71.63 249,-90 249,-732 249,-732 249,-732 249,-756.37 248.7,-784.08 248.42,-804.08"/>
<polygon fill="red" stroke="red" points="244.92,-804.28 248.28,-814.32 251.92,-804.38 244.92,-804.28"/>
</a>
</g>
<text text-anchor="middle" x="253.5" y="-435.3" font-family="Times-Roman" font-size="14.00">1</text>
</g>
<!-- Cut28&#45;&gt;I14 -->
<g id="edge26" class="edge">
<title>Cut28&#45;&gt;I14</title>
<g id="a_edge26"><a xlink:title="ret42">
<path fill="none" stroke="red" d="M345,-566.81C345,-558.79 345,-549.05 345,-540.07"/>
<polygon fill="red" stroke="red" points="348.5,-540.03 345,-530.03 341.5,-540.03 348.5,-540.03"/>
</a>
</g>
</g>
<!-- Dup29 -->
<g id="node30" class="node">
<title>Dup29</title>
<ellipse fill="none" stroke="black" cx="553" cy="-1341.19" rx="28.7" ry="18"/>
<text text-anchor="middle" x="553" y="-1337.49" font-family="Times-Roman" font-size="14.00">Dup</text>
</g>
<!-- Dup30 -->
<g id="node31" class="node">
<title>Dup30</title>
<ellipse fill="none" stroke="black" cx="331" cy="-832.6" rx="28.68" ry="28.68"/>
<ellipse fill="none" stroke="black" cx="331" cy="-832.6" rx="32.7" ry="32.7"/>
<text text-anchor="middle" x="331" y="-828.9" font-family="Times-Roman" font-size="14.00">Dup</text>
</g>
<!-- Dup30&#45;&gt;λ20 -->
<g id="edge19" class="edge">
<title>Dup30&#45;&gt;λ20</title>
<g id="a_edge19"><a xlink:title="newrretf31">
<path fill="none" stroke="red" d="M331,-799.81C331,-786.78 331,-771.84 331,-759.31"/>
<polygon fill="red" stroke="red" points="334.5,-759.03 331,-749.03 327.5,-759.03 334.5,-759.03"/>
</a>
</g>
<text text-anchor="middle" x="335.5" y="-770.8" font-family="Times-Roman" font-size="14.00">1</text>
</g>
<!-- !p31 -->
<g id="node32" class="node">
<title>!p31</title>
<ellipse fill="none" stroke="black" cx="395" cy="-934.19" rx="27" ry="18"/>
<text text-anchor="middle" x="395" y="-930.49" font-family="Times-Roman" font-size="14.00">!p</text>
</g>
<!-- !p31&#45;&gt;Dup30 -->
<g id="edge24" class="edge">
<title>!p31&#45;&gt;Dup30</title>
<g id="a_edge24"><a xlink:title="newrretf92">
<path fill="none" stroke="red" d="M384.72,-917.19C376.43,-904.29 364.46,-885.67 353.92,-869.27"/>
<polygon fill="none" stroke="red" points="356.6,-866.96 348.25,-860.44 350.71,-870.75 356.6,-866.96"/>
</a>
</g>
<text text-anchor="middle" x="376.5" y="-886.99" font-family="Times-Roman" font-size="14.00">1</text>
</g>
<!-- Cut32&#45;&gt;!p31 -->
<g id="edge17" class="edge">
<title>Cut32&#45;&gt;!p31</title>
<g id="a_edge17"><a xlink:title="newrret94">
<path fill="none" stroke="red" d="M395,-1002.99C395,-991.36 395,-975.74 395,-962.43"/>
<polygon fill="red" stroke="red" points="398.5,-962.37 395,-952.37 391.5,-962.37 398.5,-962.37"/>
</a>
</g>
<text text-anchor="middle" x="399.5" y="-973.99" font-family="Times-Roman" font-size="14.00">0</text>
</g>
<!-- Lift35 -->
<g id="node36" class="node">
<title>Lift35</title>
<ellipse fill="none" stroke="black" cx="323" cy="-934.19" rx="27" ry="18"/>
<text text-anchor="middle" x="323" y="-930.49" font-family="Times-Roman" font-size="14.00">Lift</text>
</g>
<!-- Cut33&#45;&gt;Lift35 -->
<g id="edge31" class="edge">
<title>Cut33&#45;&gt;Lift35</title>
<g id="a_edge31"><a xlink:title="seqDM97">
<path fill="none" stroke="red" stroke-width="2" d="M323,-1002.99C323,-991.36 323,-975.74 323,-962.43"/>
<polygon fill="red" stroke="red" stroke-width="2" points="326.5,-962.37 323,-952.37 319.5,-962.37 326.5,-962.37"/>
</a>
</g>
<text text-anchor="middle" x="327.5" y="-973.99" font-family="Times-Roman" font-size="14.00">0</text>
</g>
<!-- Lift34 -->
<g id="node35" class="node">
<title>Lift34</title>
<ellipse fill="none" stroke="black" cx="627" cy="-1341.19" rx="27" ry="18"/>
<text text-anchor="middle" x="627" y="-1337.49" font-family="Times-Roman" font-size="14.00">Lift</text>
</g>
<!-- Lift35&#45;&gt;Dup30 -->
<g id="edge23" class="edge">
<title>Lift35&#45;&gt;Dup30</title>
<g id="a_edge23"><a xlink:title="newrretf88">
<path fill="none" stroke="red" stroke-width="2" d="M324.39,-915.85C325.29,-904.63 326.51,-889.54 327.65,-875.33"/>
<polygon fill="red" stroke="red" stroke-width="2" points="331.15,-875.47 328.46,-865.22 324.17,-874.91 331.15,-875.47"/>
</a>
</g>
<text text-anchor="middle" x="331.5" y="-886.99" font-family="Times-Roman" font-size="14.00">1</text>
</g>
</g>
</svg>
