<?xml version="1.0" encoding="UTF-8" standalone="no"?>
<!DOCTYPE svg PUBLIC "-//W3C//DTD SVG 1.1//EN"
 "http://www.w3.org/Graphics/SVG/1.1/DTD/svg11.dtd">
<!-- Generated by graphviz version 2.43.0 (0)
 -->
<!-- Title: %3 Pages: 1 -->
<svg width="279pt" height="861pt"
 viewBox="0.00 0.00 279.00 861.30" xmlns="http://www.w3.org/2000/svg" xmlns:xlink="http://www.w3.org/1999/xlink">
<g id="graph0" class="graph" transform="scale(1 1) rotate(0) translate(4 857.3)">
<title>%3</title>
<polygon fill="white" stroke="transparent" points="-4,4 -4,-857.3 275,-857.3 275,4 -4,4"/>
<!-- Root0 -->
<g id="node1" class="node">
<title>Root0</title>
<ellipse fill="none" stroke="black" cx="160" cy="-835.3" rx="30.59" ry="18"/>
<text text-anchor="middle" x="160" y="-831.6" font-family="Times-Roman" font-size="14.00">Root</text>
</g>
<!-- I3 -->
<g id="node14" class="node">
<title>I3</title>
<ellipse fill="none" stroke="black" cx="160" cy="-763.3" rx="27" ry="18"/>
<text text-anchor="middle" x="160" y="-759.6" font-family="Times-Roman" font-size="14.00">I</text>
</g>
<!-- Root0&#45;&gt;I3 -->
<g id="edge24" class="edge">
<title>Root0&#45;&gt;I3</title>
<g id="a_edge24"><a xlink:title="rettop">
<path fill="none" stroke="red" stroke-width="2" d="M160,-816.99C160,-809.28 160,-800.01 160,-791.41"/>
<polygon fill="red" stroke="red" stroke-width="2" points="163.5,-791.4 160,-781.4 156.5,-791.4 163.5,-791.4"/>
</a>
</g>
</g>
<!-- !p0 -->
<g id="node2" class="node">
<title>!p0</title>
<ellipse fill="none" stroke="black" cx="198" cy="-450" rx="27" ry="18"/>
<text text-anchor="middle" x="198" y="-446.3" font-family="Times-Roman" font-size="14.00">!p</text>
</g>
<!-- PiR0 -->
<g id="node3" class="node">
<title>PiR0</title>
<ellipse fill="none" stroke="black" cx="198" cy="-378" rx="27" ry="18"/>
<text text-anchor="middle" x="198" y="-374.3" font-family="Times-Roman" font-size="14.00">PiR</text>
</g>
<!-- !p0&#45;&gt;PiR0 -->
<g id="edge19" class="edge">
<title>!p0&#45;&gt;PiR0</title>
<g id="a_edge19"><a xlink:title="e85">
<path fill="none" stroke="red" d="M198,-431.7C198,-423.98 198,-414.71 198,-406.11"/>
<polygon fill="red" stroke="red" points="201.5,-406.1 198,-396.1 194.5,-406.1 201.5,-406.1"/>
</a>
</g>
</g>
<!-- I0 -->
<g id="node5" class="node">
<title>I0</title>
<ellipse fill="none" stroke="black" cx="198" cy="-306" rx="27" ry="18"/>
<text text-anchor="middle" x="198" y="-302.3" font-family="Times-Roman" font-size="14.00">I</text>
</g>
<!-- PiR0&#45;&gt;I0 -->
<g id="edge21" class="edge">
<title>PiR0&#45;&gt;I0</title>
<g id="a_edge21"><a xlink:title="e89">
<path fill="none" stroke="red" d="M198,-359.7C198,-351.98 198,-342.71 198,-334.11"/>
<polygon fill="red" stroke="red" points="201.5,-334.1 198,-324.1 194.5,-334.1 201.5,-334.1"/>
</a>
</g>
</g>
<!-- !d0 -->
<g id="node4" class="node">
<title>!d0</title>
<ellipse fill="none" stroke="black" cx="244" cy="-234" rx="27" ry="18"/>
<text text-anchor="middle" x="244" y="-230.3" font-family="Times-Roman" font-size="14.00">!d</text>
</g>
<!-- !d0&#45;&gt;PiR0 -->
<g id="edge20" class="edge">
<title>!d0&#45;&gt;PiR0</title>
<g id="a_edge20"><a xlink:title="e87">
<path fill="none" stroke="blue" d="M244.3,-262.41C243.69,-280.42 241.32,-304.22 234,-324 228.83,-337.98 219.21,-351.85 211.21,-361.89"/>
<polygon fill="blue" stroke="blue" points="247.8,-262.35 244.48,-252.29 240.8,-262.23 247.8,-262.35"/>
</a>
</g>
</g>
<!-- I0&#45;&gt;!d0 -->
<g id="edge22" class="edge">
<title>I0&#45;&gt;!d0</title>
<g id="a_edge22"><a xlink:title="e91">
<path fill="none" stroke="blue" d="M214.09,-280.51C220.57,-270.66 227.85,-259.58 233.6,-250.82"/>
<polygon fill="blue" stroke="blue" points="211,-278.84 208.44,-289.12 216.85,-282.68 211,-278.84"/>
</a>
</g>
</g>
<!-- !p1 -->
<g id="node6" class="node">
<title>!p1</title>
<ellipse fill="none" stroke="black" cx="124" cy="-619.3" rx="27" ry="18"/>
<text text-anchor="middle" x="124" y="-615.6" font-family="Times-Roman" font-size="14.00">!p</text>
</g>
<!-- I1 -->
<g id="node9" class="node">
<title>I1</title>
<ellipse fill="none" stroke="black" cx="122" cy="-534.65" rx="27" ry="18"/>
<text text-anchor="middle" x="122" y="-530.95" font-family="Times-Roman" font-size="14.00">I</text>
</g>
<!-- !p1&#45;&gt;I1 -->
<g id="edge23" class="edge">
<title>!p1&#45;&gt;I1</title>
<g id="a_edge23"><a xlink:title="e95">
<path fill="none" stroke="red" d="M123.59,-601.17C123.32,-590.09 122.96,-575.42 122.66,-562.78"/>
<polygon fill="red" stroke="red" points="126.15,-562.66 122.41,-552.75 119.16,-562.83 126.15,-562.66"/>
</a>
</g>
</g>
<!-- !d1 -->
<g id="node7" class="node">
<title>!d1</title>
<ellipse fill="none" stroke="black" cx="54" cy="-378" rx="27" ry="18"/>
<text text-anchor="middle" x="54" y="-374.3" font-family="Times-Roman" font-size="14.00">!d</text>
</g>
<!-- Cut0 -->
<g id="node16" class="node">
<title>Cut0</title>
<ellipse fill="none" stroke="black" cx="54" cy="-306" rx="27" ry="18"/>
<text text-anchor="middle" x="54" y="-302.3" font-family="Times-Roman" font-size="14.00">Cut</text>
</g>
<!-- !d1&#45;&gt;Cut0 -->
<g id="edge15" class="edge">
<title>!d1&#45;&gt;Cut0</title>
<g id="a_edge15"><a xlink:title="e47">
<path fill="none" stroke="blue" d="M54,-349.67C54,-341.05 54,-331.79 54,-324.1"/>
<polygon fill="blue" stroke="blue" points="50.5,-349.7 54,-359.7 57.5,-349.7 50.5,-349.7"/>
</a>
</g>
</g>
<!-- PiL0 -->
<g id="node8" class="node">
<title>PiL0</title>
<ellipse fill="none" stroke="black" cx="122" cy="-450" rx="27" ry="18"/>
<text text-anchor="middle" x="122" y="-446.3" font-family="Times-Roman" font-size="14.00">PiL</text>
</g>
<!-- PiL0&#45;&gt;!d1 -->
<g id="edge1" class="edge">
<title>PiL0&#45;&gt;!d1</title>
<g id="a_edge1"><a xlink:title="e103">
<path fill="none" stroke="blue" d="M100.9,-427.28C90.22,-416.29 77.55,-403.24 68.07,-393.49"/>
<polygon fill="blue" stroke="blue" points="98.43,-429.76 107.91,-434.5 103.45,-424.88 98.43,-429.76"/>
</a>
</g>
</g>
<!-- !p2 -->
<g id="node10" class="node">
<title>!p2</title>
<ellipse fill="none" stroke="black" cx="126" cy="-378" rx="27" ry="18"/>
<text text-anchor="middle" x="126" y="-374.3" font-family="Times-Roman" font-size="14.00">!p</text>
</g>
<!-- PiL0&#45;&gt;!p2 -->
<g id="edge3" class="edge">
<title>PiL0&#45;&gt;!p2</title>
<g id="a_edge3"><a xlink:title="e107">
<path fill="none" stroke="red" d="M122.99,-431.7C123.43,-423.98 123.96,-414.71 124.45,-406.11"/>
<polygon fill="red" stroke="red" points="127.95,-406.29 125.02,-396.1 120.96,-405.89 127.95,-406.29"/>
</a>
</g>
</g>
<!-- I1&#45;&gt;PiL0 -->
<g id="edge2" class="edge">
<title>I1&#45;&gt;PiL0</title>
<g id="a_edge2"><a xlink:title="e105">
<path fill="none" stroke="blue" d="M122,-506.49C122,-493.84 122,-479.18 122,-468.1"/>
<polygon fill="blue" stroke="blue" points="118.5,-506.52 122,-516.52 125.5,-506.52 118.5,-506.52"/>
</a>
</g>
</g>
<!-- PiR1 -->
<g id="node11" class="node">
<title>PiR1</title>
<ellipse fill="none" stroke="black" cx="126" cy="-306" rx="27" ry="18"/>
<text text-anchor="middle" x="126" y="-302.3" font-family="Times-Roman" font-size="14.00">PiR</text>
</g>
<!-- !p2&#45;&gt;PiR1 -->
<g id="edge4" class="edge">
<title>!p2&#45;&gt;PiR1</title>
<g id="a_edge4"><a xlink:title="e111">
<path fill="none" stroke="red" d="M126,-359.7C126,-351.98 126,-342.71 126,-334.11"/>
<polygon fill="red" stroke="red" points="129.5,-334.1 126,-324.1 122.5,-334.1 129.5,-334.1"/>
</a>
</g>
</g>
<!-- I2 -->
<g id="node13" class="node">
<title>I2</title>
<ellipse fill="none" stroke="black" cx="126" cy="-234" rx="27" ry="18"/>
<text text-anchor="middle" x="126" y="-230.3" font-family="Times-Roman" font-size="14.00">I</text>
</g>
<!-- PiR1&#45;&gt;I2 -->
<g id="edge6" class="edge">
<title>PiR1&#45;&gt;I2</title>
<g id="a_edge6"><a xlink:title="e119">
<path fill="none" stroke="red" d="M126,-287.7C126,-279.98 126,-270.71 126,-262.11"/>
<polygon fill="red" stroke="red" points="129.5,-262.1 126,-252.1 122.5,-262.1 129.5,-262.1"/>
</a>
</g>
</g>
<!-- !d2 -->
<g id="node12" class="node">
<title>!d2</title>
<ellipse fill="none" stroke="black" cx="153" cy="-162" rx="27" ry="18"/>
<text text-anchor="middle" x="153" y="-158.3" font-family="Times-Roman" font-size="14.00">!d</text>
</g>
<!-- !d2&#45;&gt;PiR1 -->
<g id="edge5" class="edge">
<title>!d2&#45;&gt;PiR1</title>
<g id="a_edge5"><a xlink:title="e117">
<path fill="none" stroke="blue" d="M161.07,-189.59C165.23,-207.57 168.26,-231.65 162,-252 157.62,-266.25 147.96,-280.1 139.75,-290.07"/>
<polygon fill="blue" stroke="blue" points="164.43,-188.6 158.55,-179.79 157.65,-190.35 164.43,-188.6"/>
</a>
</g>
</g>
<!-- I2&#45;&gt;!d2 -->
<g id="edge7" class="edge">
<title>I2&#45;&gt;!d2</title>
<g id="a_edge7"><a xlink:title="e123">
<path fill="none" stroke="blue" d="M136.01,-207.06C139.5,-198.01 143.32,-188.09 146.46,-179.96"/>
<polygon fill="blue" stroke="blue" points="132.73,-205.82 132.4,-216.41 139.26,-208.34 132.73,-205.82"/>
</a>
</g>
</g>
<!-- PiL1 -->
<g id="node22" class="node">
<title>PiL1</title>
<ellipse fill="none" stroke="black" cx="160" cy="-691.3" rx="27" ry="18"/>
<text text-anchor="middle" x="160" y="-687.6" font-family="Times-Roman" font-size="14.00">PiL</text>
</g>
<!-- I3&#45;&gt;PiL1 -->
<g id="edge17" class="edge">
<title>I3&#45;&gt;PiL1</title>
<g id="a_edge17"><a xlink:title="e55">
<path fill="none" stroke="blue" stroke-width="2" d="M160,-734.96C160,-726.35 160,-717.09 160,-709.4"/>
<polygon fill="blue" stroke="blue" stroke-width="2" points="156.5,-734.99 160,-744.99 163.5,-734.99 156.5,-734.99"/>
</a>
</g>
</g>
<!-- !p3 -->
<g id="node15" class="node">
<title>!p3</title>
<ellipse fill="none" stroke="black" cx="54" cy="-234" rx="27" ry="18"/>
<text text-anchor="middle" x="54" y="-230.3" font-family="Times-Roman" font-size="14.00">!p</text>
</g>
<!-- PiR2 -->
<g id="node17" class="node">
<title>PiR2</title>
<ellipse fill="none" stroke="black" cx="54" cy="-162" rx="27" ry="18"/>
<text text-anchor="middle" x="54" y="-158.3" font-family="Times-Roman" font-size="14.00">PiR</text>
</g>
<!-- !p3&#45;&gt;PiR2 -->
<g id="edge9" class="edge">
<title>!p3&#45;&gt;PiR2</title>
<g id="a_edge9"><a xlink:title="e127">
<path fill="none" stroke="red" d="M54,-215.7C54,-207.98 54,-198.71 54,-190.11"/>
<polygon fill="red" stroke="red" points="57.5,-190.1 54,-180.1 50.5,-190.1 57.5,-190.1"/>
</a>
</g>
</g>
<!-- Cut0&#45;&gt;!p3 -->
<g id="edge8" class="edge">
<title>Cut0&#45;&gt;!p3</title>
<g id="a_edge8"><a xlink:title="e125">
<path fill="none" stroke="red" d="M54,-287.7C54,-279.98 54,-270.71 54,-262.11"/>
<polygon fill="red" stroke="red" points="57.5,-262.1 54,-252.1 50.5,-262.1 57.5,-262.1"/>
</a>
</g>
</g>
<!-- I4 -->
<g id="node21" class="node">
<title>I4</title>
<ellipse fill="none" stroke="black" cx="27" cy="-90" rx="27" ry="18"/>
<text text-anchor="middle" x="27" y="-86.3" font-family="Times-Roman" font-size="14.00">I</text>
</g>
<!-- PiR2&#45;&gt;I4 -->
<g id="edge12" class="edge">
<title>PiR2&#45;&gt;I4</title>
<g id="a_edge12"><a xlink:title="e131">
<path fill="none" stroke="red" d="M47.6,-144.41C44.49,-136.34 40.67,-126.43 37.17,-117.35"/>
<polygon fill="red" stroke="red" points="40.4,-116.03 33.54,-107.96 33.87,-118.55 40.4,-116.03"/>
</a>
</g>
</g>
<!-- Cut1 -->
<g id="node18" class="node">
<title>Cut1</title>
<ellipse fill="none" stroke="black" cx="198" cy="-534.65" rx="26.78" ry="26.78"/>
<ellipse fill="none" stroke="black" cx="198" cy="-534.65" rx="30.8" ry="30.8"/>
<text text-anchor="middle" x="198" y="-530.95" font-family="Times-Roman" font-size="14.00">Cut</text>
</g>
<!-- Cut1&#45;&gt;!p0 -->
<g id="edge16" class="edge">
<title>Cut1&#45;&gt;!p0</title>
<g id="a_edge16"><a xlink:title="e53">
<path fill="none" stroke="red" d="M198,-503.81C198,-495.45 198,-486.41 198,-478.21"/>
<polygon fill="red" stroke="red" points="201.5,-478.05 198,-468.05 194.5,-478.05 201.5,-478.05"/>
</a>
</g>
</g>
<!-- !d3 -->
<g id="node19" class="node">
<title>!d3</title>
<ellipse fill="none" stroke="black" cx="197" cy="-619.3" rx="27" ry="18"/>
<text text-anchor="middle" x="197" y="-615.6" font-family="Times-Roman" font-size="14.00">!d</text>
</g>
<!-- !d3&#45;&gt;Cut1 -->
<g id="edge10" class="edge">
<title>!d3&#45;&gt;Cut1</title>
<g id="a_edge10"><a xlink:title="e128">
<path fill="none" stroke="blue" stroke-width="2" d="M197.33,-591.01C197.43,-582.82 197.54,-573.8 197.64,-565.45"/>
<polygon fill="blue" stroke="blue" stroke-width="2" points="193.83,-591.13 197.21,-601.17 200.83,-591.21 193.83,-591.13"/>
</a>
</g>
</g>
<!-- !d4 -->
<g id="node20" class="node">
<title>!d4</title>
<ellipse fill="none" stroke="black" cx="54" cy="-18" rx="27" ry="18"/>
<text text-anchor="middle" x="54" y="-14.3" font-family="Times-Roman" font-size="14.00">!d</text>
</g>
<!-- !d4&#45;&gt;PiR2 -->
<g id="edge11" class="edge">
<title>!d4&#45;&gt;PiR2</title>
<g id="a_edge11"><a xlink:title="e129">
<path fill="none" stroke="blue" d="M59.49,-46.01C60.93,-54.31 62.28,-63.5 63,-72 64.34,-87.94 64.34,-92.06 63,-108 61.98,-120.09 59.68,-133.57 57.65,-143.91"/>
<polygon fill="blue" stroke="blue" points="62.91,-45.29 57.65,-36.09 56.03,-46.56 62.91,-45.29"/>
</a>
</g>
</g>
<!-- I4&#45;&gt;!d4 -->
<g id="edge14" class="edge">
<title>I4&#45;&gt;!d4</title>
<g id="a_edge14"><a xlink:title="e133">
<path fill="none" stroke="blue" d="M37.01,-63.06C40.5,-54.01 44.32,-44.09 47.46,-35.96"/>
<polygon fill="blue" stroke="blue" points="33.73,-61.82 33.4,-72.41 40.26,-64.34 33.73,-61.82"/>
</a>
</g>
</g>
<!-- PiL1&#45;&gt;!p1 -->
<g id="edge18" class="edge">
<title>PiL1&#45;&gt;!p1</title>
<g id="a_edge18"><a xlink:title="e57">
<path fill="none" stroke="red" d="M151.65,-674.06C147.29,-665.58 141.85,-655.01 136.96,-645.49"/>
<polygon fill="red" stroke="red" points="139.99,-643.73 132.3,-636.44 133.77,-646.94 139.99,-643.73"/>
</a>
</g>
</g>
<!-- PiL1&#45;&gt;!d3 -->
<g id="edge13" class="edge">
<title>PiL1&#45;&gt;!d3</title>
<g id="a_edge13"><a xlink:title="e132">
<path fill="none" stroke="blue" stroke-width="2" d="M173.37,-665C178.41,-655.47 183.99,-644.91 188.46,-636.44"/>
<polygon fill="blue" stroke="blue" stroke-width="2" points="170.16,-663.58 168.58,-674.06 176.35,-666.85 170.16,-663.58"/>
</a>
</g>
</g>
</g>
</svg>
