<?xml version="1.0" encoding="UTF-8" standalone="no"?>
<!DOCTYPE svg PUBLIC "-//W3C//DTD SVG 1.1//EN"
 "http://www.w3.org/Graphics/SVG/1.1/DTD/svg11.dtd">
<!-- Generated by graphviz version 2.43.0 (0)
 -->
<!-- Title: %3 Pages: 1 -->
<svg width="488pt" height="416pt"
 viewBox="0.00 0.00 488.00 416.00" xmlns="http://www.w3.org/2000/svg" xmlns:xlink="http://www.w3.org/1999/xlink">
<g id="graph0" class="graph" transform="scale(1 1) rotate(0) translate(4 412)">
<title>%3</title>
<polygon fill="white" stroke="transparent" points="-4,4 -4,-412 484,-412 484,4 -4,4"/>
<!-- Assign29 -->
<g id="node1" class="node">
<title>Assign29</title>
<ellipse fill="none" stroke="black" cx="272" cy="-18" rx="27" ry="18"/>
<text text-anchor="middle" x="272" y="-14.3" font-family="Times-Roman" font-size="14.00">A</text>
</g>
<!-- r -->
<g id="node7" class="node">
<title>r</title>
<ellipse fill="none" stroke="black" cx="272" cy="-117" rx="26" ry="26"/>
<ellipse fill="none" stroke="black" cx="272" cy="-117" rx="30" ry="30"/>
<text text-anchor="middle" x="272" y="-113.3" font-family="Times-Roman" font-size="14.00">Cut</text>
</g>
<!-- Assign29&#45;&gt;r -->
<g id="edge1" class="edge">
<title>Assign29&#45;&gt;r</title>
<path fill="none" stroke="black" d="M272,-36.34C272,-47.46 272,-62.36 272,-76.27"/>
<polygon fill="black" stroke="black" points="268.5,-76.63 272,-86.63 275.5,-76.63 268.5,-76.63"/>
<text text-anchor="middle" x="294.5" y="-57.8" font-family="Times-Roman" font-size="14.00">c_bseq</text>
</g>
<!-- BangD27 -->
<g id="node2" class="node">
<title>BangD27</title>
<ellipse fill="none" stroke="black" cx="99" cy="-390" rx="27" ry="18"/>
<text text-anchor="middle" x="99" y="-386.3" font-family="Times-Roman" font-size="14.00">B</text>
</g>
<!-- Bang24 -->
<g id="node3" class="node">
<title>Bang24</title>
<ellipse fill="none" stroke="black" cx="27" cy="-390" rx="27" ry="18"/>
<text text-anchor="middle" x="27" y="-386.3" font-family="Times-Roman" font-size="14.00">C</text>
</g>
<!-- PiR20 -->
<g id="node4" class="node">
<title>PiR20</title>
<ellipse fill="none" stroke="black" cx="381" cy="-390" rx="27" ry="18"/>
<text text-anchor="middle" x="381" y="-386.3" font-family="Times-Roman" font-size="14.00">D</text>
</g>
<!-- break2 -->
<g id="node5" class="node">
<title>break2</title>
<ellipse fill="none" stroke="black" stroke-dasharray="1,5" cx="137" cy="-216" rx="27" ry="18"/>
<text text-anchor="middle" x="137" y="-212.3" font-family="Times-Roman" font-size="14.00">X</text>
</g>
<!-- left_node -->
<g id="node8" class="node">
<title>left_node</title>
<ellipse fill="none" stroke="black" cx="99" cy="-303" rx="38.19" ry="18"/>
<text text-anchor="middle" x="99" y="-299.3" font-family="Times-Roman" font-size="14.00">BangC</text>
</g>
<!-- break2&#45;&gt;left_node -->
<g id="edge12" class="edge">
<title>break2&#45;&gt;left_node</title>
<path fill="none" stroke="black" d="M129.67,-233.38C124.33,-245.34 116.97,-261.8 110.8,-275.6"/>
<polygon fill="black" stroke="black" points="107.45,-274.52 106.56,-285.08 113.84,-277.37 107.45,-274.52"/>
<text text-anchor="middle" x="147.5" y="-255.8" font-family="Times-Roman" font-size="14.00">bc_bseq</text>
</g>
<!-- break3 -->
<g id="node6" class="node">
<title>break3</title>
<ellipse fill="none" stroke="black" stroke-dasharray="1,5" cx="353" cy="-216" rx="27" ry="18"/>
<text text-anchor="middle" x="353" y="-212.3" font-family="Times-Roman" font-size="14.00">Y</text>
</g>
<!-- right_node -->
<g id="node9" class="node">
<title>right_node</title>
<ellipse fill="none" stroke="black" cx="353" cy="-303" rx="32.49" ry="18"/>
<text text-anchor="middle" x="353" y="-299.3" font-family="Times-Roman" font-size="14.00">Bang</text>
</g>
<!-- break3&#45;&gt;right_node -->
<g id="edge4" class="edge">
<title>break3&#45;&gt;right_node</title>
<path fill="none" stroke="black" d="M353,-234.2C353,-245.83 353,-261.45 353,-274.76"/>
<polygon fill="black" stroke="black" points="349.5,-274.82 353,-284.82 356.5,-274.82 349.5,-274.82"/>
<text text-anchor="middle" x="376" y="-255.8" font-family="Times-Roman" font-size="14.00">b_bseq</text>
</g>
<!-- r&#45;&gt;break2 -->
<g id="edge3" class="edge">
<title>r&#45;&gt;break2</title>
<path fill="none" stroke="black" d="M239.63,-141.26C213.07,-160.34 176.45,-186.65 154.89,-202.14"/>
<polygon fill="black" stroke="black" points="249.91,-138.18 239.74,-141.17 245.82,-132.5 249.91,-138.18"/>
<text text-anchor="middle" x="224" y="-168.8" font-family="Times-Roman" font-size="14.00">c_lseq</text>
</g>
<!-- r&#45;&gt;break3 -->
<g id="edge2" class="edge">
<title>r&#45;&gt;break3</title>
<path fill="none" stroke="black" d="M290.79,-140.49C306.02,-158.74 327.08,-183.95 340.37,-199.87"/>
<text text-anchor="middle" x="343.5" y="-168.8" font-family="Times-Roman" font-size="14.00">c_rseq</text>
</g>
<!-- r&#45;&gt;left_node -->
<g id="edge13" class="edge">
<title>r&#45;&gt;left_node</title>
<path fill="none" stroke="blue" stroke-width="2" d="M242.23,-122.25C202.25,-129.73 132.61,-149.35 101,-198 83.88,-224.34 89.11,-262.92 94.21,-284.93"/>
<text text-anchor="middle" x="79.21" y="-273.73" font-family="Times-Roman" font-size="14.00">bc_b</text>
<text text-anchor="middle" x="233.73" y="-111.05" font-family="Times-Roman" font-size="14.00">c_l</text>
</g>
<!-- r&#45;&gt;right_node -->
<g id="edge6" class="edge">
<title>r&#45;&gt;right_node</title>
<path fill="none" stroke="red" d="M300.45,-126.85C321.27,-134.43 349.21,-146.98 369,-165 381.68,-176.54 382.75,-182.02 389,-198 400.31,-226.92 413.94,-239.24 400,-267 396.61,-273.75 391.23,-279.53 385.31,-284.33"/>
<polygon fill="red" stroke="red" points="383.1,-281.6 377.02,-290.27 387.18,-287.29 383.1,-281.6"/>
<text text-anchor="middle" x="405.02" y="-279.07" font-family="Times-Roman" font-size="14.00">b_bmain</text>
<text text-anchor="middle" x="309.95" y="-115.65" font-family="Times-Roman" font-size="14.00">c_r</text>
</g>
<!-- left_node&#45;&gt;BangD27 -->
<g id="edge14" class="edge">
<title>left_node&#45;&gt;BangD27</title>
<path fill="none" stroke="black" d="M99,-321.2C99,-332.83 99,-348.45 99,-361.76"/>
<polygon fill="black" stroke="black" points="95.5,-361.82 99,-371.82 102.5,-361.82 95.5,-361.82"/>
<text text-anchor="middle" x="124" y="-342.8" font-family="Times-Roman" font-size="14.00">bc_tseq</text>
</g>
<!-- left_node&#45;&gt;BangD27 -->
<g id="edge15" class="edge">
<title>left_node&#45;&gt;BangD27</title>
<path fill="none" stroke="blue" stroke-width="2" d="M126.08,-315.91C135.4,-321.48 144.8,-329.11 150,-339 157.37,-352.99 144.74,-365.45 130.21,-374.43"/>
<polygon fill="blue" stroke="blue" stroke-width="2" points="128.08,-371.61 121.07,-379.55 131.51,-377.71 128.08,-371.61"/>
<text text-anchor="middle" x="175" y="-342.8" font-family="Times-Roman" font-size="14.00">bc_t[0]</text>
</g>
<!-- left_node&#45;&gt;Bang24 -->
<g id="edge16" class="edge">
<title>left_node&#45;&gt;Bang24</title>
<path fill="none" stroke="blue" d="M67.09,-323.81C61.28,-328.33 55.61,-333.46 51,-339 45.22,-345.94 40.45,-354.51 36.73,-362.59"/>
<polygon fill="blue" stroke="blue" points="77.64,-320.47 67.49,-323.52 73.53,-314.81 77.64,-320.47"/>
<polygon fill="blue" stroke="blue" points="33.4,-361.47 32.71,-372.04 39.85,-364.21 33.4,-361.47"/>
<text text-anchor="middle" x="73" y="-342.8" font-family="Times-Roman" font-size="14.00">bc_t[1]</text>
</g>
<!-- right_node&#45;&gt;PiR20 -->
<g id="edge8" class="edge">
<title>right_node&#45;&gt;PiR20</title>
<path fill="none" stroke="black" d="M358.53,-320.79C362.44,-332.66 367.77,-348.83 372.25,-362.44"/>
<polygon fill="black" stroke="black" points="369.03,-363.83 375.48,-372.24 375.68,-361.64 369.03,-363.83"/>
<text text-anchor="middle" x="389.5" y="-342.8" font-family="Times-Roman" font-size="14.00">b_tseq</text>
</g>
<!-- right_node&#45;&gt;PiR20 -->
<g id="edge9" class="edge">
<title>right_node&#45;&gt;PiR20</title>
<path fill="none" stroke="red" d="M329.87,-315.96C314.61,-325.53 298.98,-339.66 308,-354 316.4,-367.33 331.44,-375.7 345.7,-380.89"/>
<polygon fill="red" stroke="red" points="344.76,-384.27 355.36,-384 346.91,-377.61 344.76,-384.27"/>
<text text-anchor="middle" x="334.5" y="-342.8" font-family="Times-Roman" font-size="14.00">b_tmain</text>
</g>
<!-- G -->
<g id="node12" class="node">
<title>G</title>
<ellipse fill="none" stroke="black" cx="453" cy="-390" rx="27" ry="18"/>
<text text-anchor="middle" x="453" y="-386.3" font-family="Times-Roman" font-size="14.00">G</text>
</g>
<!-- right_node&#45;&gt;G -->
<g id="edge10" class="edge">
<title>right_node&#45;&gt;G</title>
<path fill="none" stroke="blue" d="M377.44,-314.88C389.5,-320.94 403.82,-329.24 415,-339 423.38,-346.31 431.11,-355.73 437.39,-364.42"/>
<polygon fill="blue" stroke="blue" points="434.58,-366.52 443.14,-372.76 440.35,-362.54 434.58,-366.52"/>
<text text-anchor="middle" x="449.5" y="-342.8" font-family="Times-Roman" font-size="14.00">b_tl[0]</text>
</g>
<!-- H -->
<g id="node13" class="node">
<title>H</title>
<ellipse fill="none" stroke="black" cx="239" cy="-390" rx="27" ry="18"/>
<text text-anchor="middle" x="239" y="-386.3" font-family="Times-Roman" font-size="14.00">H</text>
</g>
<!-- right_node&#45;&gt;H -->
<g id="edge11" class="edge">
<title>right_node&#45;&gt;H</title>
<path fill="none" stroke="red" d="M322.04,-308.57C301.5,-313.09 275.24,-321.93 258,-339 251.71,-345.22 247.47,-353.73 244.63,-361.97"/>
<polygon fill="red" stroke="red" points="241.23,-361.14 241.81,-371.72 247.95,-363.09 241.23,-361.14"/>
<text text-anchor="middle" x="279.5" y="-342.8" font-family="Times-Roman" font-size="14.00">b_tr[0]</text>
</g>
<!-- E -->
<g id="node10" class="node">
<title>E</title>
<ellipse fill="none" stroke="black" cx="209" cy="-216" rx="27" ry="18"/>
<text text-anchor="middle" x="209" y="-212.3" font-family="Times-Roman" font-size="14.00">E</text>
</g>
<!-- E&#45;&gt;right_node -->
<g id="edge5" class="edge">
<title>E&#45;&gt;right_node</title>
<path fill="none" stroke="blue" d="M217.63,-233.51C224.11,-244.43 233.91,-258.28 246,-267 265.48,-281.05 290.91,-289.67 312.1,-294.85"/>
<polygon fill="blue" stroke="blue" points="311.58,-298.32 322.11,-297.12 313.13,-291.49 311.58,-298.32"/>
<text text-anchor="middle" x="268" y="-255.8" font-family="Times-Roman" font-size="14.00">b_bl[0]</text>
</g>
<!-- F -->
<g id="node11" class="node">
<title>F</title>
<ellipse fill="none" stroke="black" cx="281" cy="-216" rx="27" ry="18"/>
<text text-anchor="middle" x="281" y="-212.3" font-family="Times-Roman" font-size="14.00">F</text>
</g>
<!-- F&#45;&gt;right_node -->
<g id="edge7" class="edge">
<title>F&#45;&gt;right_node</title>
<path fill="none" stroke="red" d="M285.89,-234.01C289.46,-244.33 295.06,-257.32 303,-267 308.29,-273.45 315.06,-279.24 321.9,-284.17"/>
<polygon fill="red" stroke="red" points="320.23,-287.27 330.48,-289.94 324.13,-281.46 320.23,-287.27"/>
<text text-anchor="middle" x="326" y="-255.8" font-family="Times-Roman" font-size="14.00">b_br[0]</text>
</g>
</g>
</svg>
