<?xml version="1.0" encoding="UTF-8" standalone="no"?>
<!DOCTYPE svg PUBLIC "-//W3C//DTD SVG 1.1//EN"
 "http://www.w3.org/Graphics/SVG/1.1/DTD/svg11.dtd">
<!-- Generated by graphviz version 2.43.0 (0)
 -->
<!-- Title: %3 Pages: 1 -->
<svg width="291pt" height="436pt"
 viewBox="0.00 0.00 291.00 436.00" xmlns="http://www.w3.org/2000/svg" xmlns:xlink="http://www.w3.org/1999/xlink">
<g id="graph0" class="graph" transform="scale(1 1) rotate(0) translate(4 432)">
<title>%3</title>
<polygon fill="white" stroke="transparent" points="-4,4 -4,-432 287,-432 287,4 -4,4"/>
<!-- Assign29 -->
<g id="node1" class="node">
<title>Assign29</title>
<ellipse fill="none" stroke="black" cx="112" cy="-18" rx="27" ry="18"/>
<text text-anchor="middle" x="112" y="-14.3" font-family="Times-Roman" font-size="14.00">A</text>
</g>
<!-- break2 -->
<g id="node5" class="node">
<title>break2</title>
<ellipse fill="none" stroke="black" stroke-dasharray="1,5" cx="112" cy="-91" rx="27" ry="18"/>
<text text-anchor="middle" x="112" y="-87.3" font-family="Times-Roman" font-size="14.00">X</text>
</g>
<!-- Assign29&#45;&gt;break2 -->
<g id="edge1" class="edge">
<title>Assign29&#45;&gt;break2</title>
<path fill="none" stroke="black" d="M112,-36.19C112,-44.21 112,-53.95 112,-62.93"/>
<polygon fill="black" stroke="black" points="108.5,-62.97 112,-72.97 115.5,-62.97 108.5,-62.97"/>
<text text-anchor="middle" x="99" y="-65.77" font-family="Times-Roman" font-size="9.00">c_lseq</text>
<text text-anchor="middle" x="97.5" y="-38.99" font-family="Times-Roman" font-size="9.00">c_bseq</text>
</g>
<!-- BangD27 -->
<g id="node2" class="node">
<title>BangD27</title>
<ellipse fill="none" stroke="black" cx="59" cy="-410" rx="27" ry="18"/>
<text text-anchor="middle" x="59" y="-406.3" font-family="Times-Roman" font-size="14.00">B</text>
</g>
<!-- Bang24 -->
<g id="node3" class="node">
<title>Bang24</title>
<ellipse fill="none" stroke="black" cx="27" cy="-328" rx="27" ry="18"/>
<text text-anchor="middle" x="27" y="-324.3" font-family="Times-Roman" font-size="14.00">C</text>
</g>
<!-- PiR20 -->
<g id="node4" class="node">
<title>PiR20</title>
<ellipse fill="none" stroke="black" cx="168" cy="-410" rx="27" ry="18"/>
<text text-anchor="middle" x="168" y="-406.3" font-family="Times-Roman" font-size="14.00">D</text>
</g>
<!-- break3 -->
<g id="node6" class="node">
<title>break3</title>
<ellipse fill="none" stroke="black" stroke-dasharray="1,5" cx="112" cy="-164" rx="27" ry="18"/>
<text text-anchor="middle" x="112" y="-160.3" font-family="Times-Roman" font-size="14.00">Y</text>
</g>
<!-- break2&#45;&gt;break3 -->
<g id="edge2" class="edge">
<title>break2&#45;&gt;break3</title>
<path fill="none" stroke="black" d="M112,-109.19C112,-120.35 112,-134.84 112,-145.97"/>
<text text-anchor="middle" x="98" y="-138.77" font-family="Times-Roman" font-size="9.00">c_rseq</text>
<text text-anchor="middle" x="96" y="-111.99" font-family="Times-Roman" font-size="9.00">pl_bseq</text>
</g>
<!-- cuts[0] -->
<g id="node8" class="node">
<title>cuts[0]</title>
<g id="a_node8"><a xlink:title="CutLR pl_r pr_m_l[0]">
<ellipse fill="none" stroke="black" cx="112" cy="-246" rx="27" ry="18"/>
<text text-anchor="middle" x="112" y="-242.3" font-family="Times-Roman" font-size="14.00">Cut</text>
</a>
</g>
</g>
<!-- break3&#45;&gt;cuts[0] -->
<g id="edge3" class="edge">
<title>break3&#45;&gt;cuts[0]</title>
<path fill="none" stroke="black" d="M112,-182.36C112,-192.7 112,-206.06 112,-217.78"/>
<polygon fill="black" stroke="black" points="108.5,-217.95 112,-227.95 115.5,-217.95 108.5,-217.95"/>
<text text-anchor="middle" x="129" y="-202.8" font-family="Times-Roman" font-size="9.00">pr_bseq</text>
</g>
<!-- cuts[1] -->
<g id="node7" class="node">
<title>cuts[1]</title>
<g id="a_node7"><a xlink:title="CutLL pr_m_r pl_l[0]">
<ellipse fill="none" stroke="black" cx="141" cy="-328" rx="27" ry="18"/>
<text text-anchor="middle" x="141" y="-324.3" font-family="Times-Roman" font-size="14.00">Cut</text>
</a>
</g>
</g>
<!-- cuts[1]&#45;&gt;BangD27 -->
<g id="edge6" class="edge">
<title>cuts[1]&#45;&gt;BangD27</title>
<path fill="none" stroke="black" d="M114.74,-332.82C96.08,-337.04 72.23,-345.83 60,-364 56.53,-369.15 55.12,-375.44 54.82,-381.66"/>
<polygon fill="black" stroke="black" points="51.33,-382 55.21,-391.86 58.33,-381.73 51.33,-382"/>
<text text-anchor="middle" x="76" y="-366.8" font-family="Times-Roman" font-size="9.00">pl_l[0]_t</text>
</g>
<!-- cuts[1]&#45;&gt;BangD27 -->
<g id="edge7" class="edge">
<title>cuts[1]&#45;&gt;BangD27</title>
<path fill="none" stroke="blue" stroke-width="2" d="M126.34,-343.3C113.75,-355.59 95.4,-373.48 81.04,-387.5"/>
<polygon fill="blue" stroke="blue" stroke-width="2" points="78.25,-385.33 73.53,-394.82 83.14,-390.34 78.25,-385.33"/>
<text text-anchor="middle" x="120.5" y="-366.8" font-family="Times-Roman" font-size="9.00">pl_l[0]_l</text>
</g>
<!-- cuts[1]&#45;&gt;PiR20 -->
<g id="edge5" class="edge">
<title>cuts[1]&#45;&gt;PiR20</title>
<path fill="none" stroke="black" d="M146.73,-345.97C150.33,-356.64 155.05,-370.64 159.14,-382.74"/>
<polygon fill="black" stroke="black" points="155.86,-383.98 162.37,-392.33 162.49,-381.74 155.86,-383.98"/>
<text text-anchor="middle" x="177" y="-366.8" font-family="Times-Roman" font-size="9.00">pr_m_seq</text>
</g>
<!-- cuts[1]&#45;&gt;PiR20 -->
<g id="edge10" class="edge">
<title>cuts[1]&#45;&gt;PiR20</title>
<path fill="none" stroke="red" d="M162.92,-338.91C178.23,-346.34 196.68,-356.47 201,-364 205.99,-372.69 201.56,-381.71 194.5,-389.38"/>
<polygon fill="red" stroke="red" points="191.75,-387.15 186.81,-396.52 196.52,-392.27 191.75,-387.15"/>
<text text-anchor="middle" x="224" y="-366.8" font-family="Times-Roman" font-size="9.00">pr_m_r[0]</text>
</g>
<!-- cuts[0]&#45;&gt;Bang24 -->
<g id="edge8" class="edge">
<title>cuts[0]&#45;&gt;Bang24</title>
<path fill="none" stroke="black" d="M75.64,-252.74C58.2,-257.5 38.8,-266.19 28,-282 24.5,-287.13 23.08,-293.4 22.78,-299.63"/>
<polygon fill="black" stroke="black" points="86.42,-253.77 75.88,-252.68 84.79,-246.96 86.42,-253.77"/>
<polygon fill="black" stroke="black" points="19.29,-299.97 23.17,-309.83 26.28,-299.7 19.29,-299.97"/>
<text text-anchor="middle" x="45" y="-284.8" font-family="Times-Roman" font-size="9.00">pl_r[0]_t</text>
</g>
<!-- cuts[0]&#45;&gt;Bang24 -->
<g id="edge9" class="edge">
<title>cuts[0]&#45;&gt;Bang24</title>
<path fill="none" stroke="red" d="M89.42,-268.26C77.13,-279.82 61.98,-294.08 49.68,-305.66"/>
<polygon fill="red" stroke="red" points="99.2,-263.85 89.52,-268.16 94.4,-258.75 99.2,-263.85"/>
<polygon fill="red" stroke="red" points="46.95,-303.42 42.06,-312.82 51.75,-308.52 46.95,-303.42"/>
<text text-anchor="middle" x="92" y="-284.8" font-family="Times-Roman" font-size="9.00">pl_r[0]_r</text>
</g>
<!-- cuts[0]&#45;&gt;cuts[1] -->
<g id="edge4" class="edge">
<title>cuts[0]&#45;&gt;cuts[1]</title>
<path fill="none" stroke="black" d="M118.01,-263.58C121.9,-274.3 127.04,-288.5 131.48,-300.74"/>
<polygon fill="black" stroke="black" points="128.3,-302.24 135,-310.45 134.88,-299.85 128.3,-302.24"/>
<text text-anchor="middle" x="145" y="-284.8" font-family="Times-Roman" font-size="9.00">seqP[0]</text>
</g>
<!-- J -->
<g id="node9" class="node">
<title>J</title>
<ellipse fill="none" stroke="black" cx="213" cy="-328" rx="27" ry="18"/>
<text text-anchor="middle" x="213" y="-324.3" font-family="Times-Roman" font-size="14.00">J</text>
</g>
<!-- cuts[0]&#45;&gt;J -->
<g id="edge11" class="edge">
<title>cuts[0]&#45;&gt;J</title>
<path fill="none" stroke="blue" d="M131.43,-258.72C141.7,-265.19 154.36,-273.59 165,-282 174.01,-289.11 183.34,-297.58 191.36,-305.24"/>
<polygon fill="blue" stroke="blue" points="189.26,-308.08 198.87,-312.54 194.14,-303.06 189.26,-308.08"/>
<text text-anchor="middle" x="196.5" y="-284.8" font-family="Times-Roman" font-size="9.00">pr_m_l[0]</text>
</g>
<!-- E -->
<g id="node10" class="node">
<title>E</title>
<ellipse fill="none" stroke="black" cx="184" cy="-18" rx="27" ry="18"/>
<text text-anchor="middle" x="184" y="-14.3" font-family="Times-Roman" font-size="14.00">E</text>
</g>
<!-- G -->
<g id="node11" class="node">
<title>G</title>
<ellipse fill="none" stroke="black" cx="184" cy="-91" rx="27" ry="18"/>
<text text-anchor="middle" x="184" y="-87.3" font-family="Times-Roman" font-size="14.00">G</text>
</g>
<!-- E&#45;&gt;G -->
<g id="edge12" class="edge">
<title>E&#45;&gt;G</title>
<path fill="none" stroke="blue" d="M184,-36.19C184,-44.21 184,-53.95 184,-62.93"/>
<polygon fill="blue" stroke="blue" points="180.5,-62.97 184,-72.97 187.5,-62.97 180.5,-62.97"/>
<text text-anchor="middle" x="163" y="-65.77" font-family="Times-Roman" font-size="9.00">pr_m_tl[0]</text>
<text text-anchor="middle" x="168" y="-38.99" font-family="Times-Roman" font-size="9.00">pr_bl[0]</text>
</g>
<!-- F -->
<g id="node12" class="node">
<title>F</title>
<ellipse fill="none" stroke="black" cx="256" cy="-18" rx="27" ry="18"/>
<text text-anchor="middle" x="256" y="-14.3" font-family="Times-Roman" font-size="14.00">F</text>
</g>
<!-- H -->
<g id="node13" class="node">
<title>H</title>
<ellipse fill="none" stroke="black" cx="256" cy="-91" rx="27" ry="18"/>
<text text-anchor="middle" x="256" y="-87.3" font-family="Times-Roman" font-size="14.00">H</text>
</g>
<!-- F&#45;&gt;H -->
<g id="edge13" class="edge">
<title>F&#45;&gt;H</title>
<path fill="none" stroke="red" d="M256,-36.19C256,-44.21 256,-53.95 256,-62.93"/>
<polygon fill="red" stroke="red" points="252.5,-62.97 256,-72.97 259.5,-62.97 252.5,-62.97"/>
<text text-anchor="middle" x="234.5" y="-65.77" font-family="Times-Roman" font-size="9.00">pr_m_tr[0]</text>
<text text-anchor="middle" x="239" y="-38.99" font-family="Times-Roman" font-size="9.00">pr_br[0]</text>
</g>
</g>
</svg>
